<?xml version="1.0" encoding="UTF-8" standalone="no"?>
<svg
   xmlns:dc="http://purl.org/dc/elements/1.1/"
   xmlns:cc="http://creativecommons.org/ns#"
   xmlns:rdf="http://www.w3.org/1999/02/22-rdf-syntax-ns#"
   xmlns:svg="http://www.w3.org/2000/svg"
   xmlns="http://www.w3.org/2000/svg"
   xmlns:sodipodi="http://sodipodi.sourceforge.net/DTD/sodipodi-0.dtd"
   xmlns:inkscape="http://www.inkscape.org/namespaces/inkscape"
   inkscape:version="1.0 (4035a4fb49, 2020-05-01)"
   sodipodi:docname="lover2.svg"
   viewBox="0 0 1080 1812"
   height="1812"
   width="1080"
   id="svg83"
   version="1.1">
  <metadata
     id="metadata89">
    <rdf:RDF>
      <cc:Work
         rdf:about="">
        <dc:format>image/svg+xml</dc:format>
        <dc:type
           rdf:resource="http://purl.org/dc/dcmitype/StillImage" />
        <dc:title></dc:title>
      </cc:Work>
    </rdf:RDF>
  </metadata>
  <defs
     id="defs87" />
  <sodipodi:namedview
     inkscape:current-layer="g91"
     inkscape:window-maximized="1"
     inkscape:window-y="-11"
     inkscape:window-x="-11"
     inkscape:cy="962.28638"
     inkscape:cx="567.77501"
     inkscape:zoom="0.78671483"
     showgrid="false"
     id="namedview85"
     inkscape:window-height="1826"
     inkscape:window-width="1080"
     inkscape:pageshadow="2"
     inkscape:pageopacity="0"
     guidetolerance="10"
     gridtolerance="10"
     objecttolerance="10"
     borderopacity="1"
     bordercolor="#666666"
     pagecolor="#ffffff" />
  <g
     id="g91"
     inkscape:label="Image"
     inkscape:groupmode="layer">
    <path
       d="m 715,1742.6224 c 3.37935,-4.0568 4.72838,-2.7618 0,0 z M 606.8333,1565.7503 c -45.27056,-9.6789 -91.56366,-21.1353 -139.85136,-12.1875 -43.2414,-18.0107 -105.16283,11.4897 -137.96655,-5.2151 60.60966,-5.814 116.25772,-4.2046 176.71391,-2.6001 52.11729,-9.1123 100.86097,27.3269 152.2707,11.2524 29.88935,-12.749 60.07322,5.6956 21.78527,-32.8738 -32.28142,-60.7175 -58.24599,-134.2239 -35.95701,-202.6313 -50.71642,23.6357 -107.53982,33.5999 -163.47326,35.0085 -23.49972,-2.1794 -102.36066,-60.9719 -68.86881,-4.0034 17.6096,15.0053 75.49581,59.9704 24.44017,31.3066 -20.49965,-23.7761 -56.8776,-42.5676 -28.49875,2.0495 4.08094,26.7321 88.94369,48.9038 24.76982,36.4942 -17.6362,-10.6308 -46.24911,-50.0595 -35.88298,-23.176 -5.80386,19.0777 92.17599,74.3538 26.43344,46.5016 -18.86171,-13.0196 -39.16395,-57.0222 -25.74973,-8.4396 4.58161,33.8559 91.69721,83.3759 23.95026,54.8375 -29.95357,6.3313 -40.32792,-43.9679 -9.20079,-8.6925 6.07301,-0.4507 -30.00457,-47.138 -23.19411,-73.3813 4.15606,-39.7769 -14.5228,-99.1936 -11.38226,-116.345 -22.01011,-38.2659 -73.62177,-68.4496 -104.05073,-106.083 -55.05804,-40.8033 -15.53824,42.0428 -34.68996,71.2332 1.46031,59.5026 -68.08039,54.4108 -67.89341,-2.387 -15.99969,-44.8865 -2.80511,-97.9868 -3.71143,-139.6078 C 125.45443,1063.271 100.54342,998.43848 77.916627,935.25808 65.302083,912.71797 53.114758,790.559 57.01262,865.89723 67.583695,905.41424 54.872652,933.64351 81.675448,984.56643 97.731226,1017.0853 46.955253,942.40469 58.095893,922.62068 52.148128,879.82844 48.579636,836.88708 39.438433,805.0865 34.890101,751.54615 42.933491,707.88898 54.695499,656.35312 67.304064,603.01349 82.349296,547.83784 118.91741,505.74691 151.39626,453.11324 205.07549,406.21512 265.24082,390.41413 279.94342,403.5762 289.31868,378.21119 316.20558,366 c -35.95817,19.27383 -29.87237,35.26857 3.1426,14.79468 59.97897,-9.19927 119.44421,-24.38994 180.78705,-18.68183 24.52569,-2.30562 111.33762,5.34996 38.82912,4.93545 C 470.08971,363.88694 400.54811,364.10018 334,384.43943 c -62.50303,-13.58611 -48.1832,57.25126 -33.5,76.92448 14.77721,-9.87443 143.76845,-16.84454 115.21845,-10.01978 -22.41824,-0.36946 -100.46295,6.14792 -37.21845,7.22401 17.50933,5.16141 104.85217,7.48875 82.63713,8.82965 -62.13395,5.65058 119.76394,8.00822 70.86287,8.0861 54.97366,6.972 108.76706,8.21082 146.57373,47.90871 75.28333,35.88348 133.03295,100.6441 183.50714,163.93587 23.41251,-8.01677 57.25681,109.82834 33.8087,28.48766 -24.17904,-43.98675 1.02989,-87.37794 -35.23723,-128.69921 1.86757,-28.21725 -78.74966,-74.40283 -56.57638,-76.14026 29.91401,11.34743 73.79783,95.0941 45.52967,27.84398 -16.11323,-49.59262 -59.71529,-68.36351 -99.6581,-98.0363 -61.2641,-34.44138 -129.12169,-54.12055 -198.00361,-66.11107 40.57501,-2.04198 105.19716,17.66428 150.00269,37.42346 C 762.67353,439.07513 821.43955,476.08416 864.45853,526.5 832.96395,475.00634 796.88498,424.17233 736.88043,403.85118 684.35138,368.26595 620.82212,360.7507 560,351.04272 c 24.51369,-7.63848 118.09184,14.67989 50.9125,-0.28324 -37.80849,-10.72681 -132.8244,-7.77568 -132.95754,-13.35355 5.9608,-3.81027 -69.54954,0.4439 -96.1679,9.79202 -46.7782,8.02285 45.1553,-18.77591 64.14714,-15.56707 71.81965,-2.87308 144.36337,-0.007 215.49955,10.13902 -83.04524,-38.9569 -179.06224,-19.91303 -266.10773,-5.49403 -27.09551,9.75062 -101.03839,36.78449 -33.77829,6.74072 71.81228,-48.25704 161.35976,-55.53627 245.83358,-58.57789 100.21905,14.76724 195.6668,68.2032 256.16548,150.59519 35.67592,55.50691 53.27735,117.64994 75.42016,178.96611 24.27377,56.51293 26.97547,120.04376 34.76937,180.5139 6.76598,72.82033 0.99969,146.32202 -9.06728,217.8159 -20.32903,53.8808 -28.51088,118.3923 -42.66904,168.7535 -7.61072,50.6524 -40.05541,110.548 -46.17741,167.5294 -21.28015,40.2169 -18.00558,105.2439 -67.53369,115.3527 -48.57301,1.9693 -102.85971,-1.6156 -144.20344,7.7342 -2.21478,39.0302 59.83103,72.9147 57.90008,92.3004 -38.48935,-18.4778 -76.01875,9.1981 -115.15224,1.7503 z m 62.95783,-100.6481 c 9.47017,-8.8455 -20.2927,5.6533 0,0 z m 32.91182,1.8002 c 42.41335,-21.0231 90.04885,12.1695 123.08592,-26.7099 22.01163,-36.9455 18.6882,-90.874 43.43433,-130.2149 13.08607,-18.4999 6.89945,-111.8151 -2.06868,-44.4776 -7.19805,55.9638 -19.58821,91.9475 -41.0491,143 -7.53266,34.0023 -13.0205,7.6856 -37.58085,31.022 -24.58412,-61.2604 -95.43718,2.7264 -98.35086,22.7952 5.04967,-1.5862 7.24973,9.3577 12.52924,4.5852 z m 101.06811,-7.7156 c -3.62707,-2.5541 -3.61626,4.9238 0,0 z m 11.42335,-2.233 c 36.23676,-26.162 0.47816,-17.8397 -6.78172,3.723 z m -136.43839,0.5416 c 39.10566,-28.3019 -51.74409,-73.3424 -22.73104,-119.3154 22.26372,-68.7938 34.36639,119.4042 43.82886,37.1483 1.12581,-23.1619 -9.12511,-127.7288 3.44921,-50.6966 0.26486,33.7892 2.77686,94.5511 6.28104,27.46 -8.51067,-40.3551 11.5318,-127.3828 59.08352,-70.1896 42.13024,-9.5888 17.60263,-101.5256 52.51052,-135.4623 2.27401,-21.3275 5.48392,-87.4237 6.27816,-26.1941 14.00998,-20.5961 17.30804,-111.4043 15.11164,-130.2457 -11.44242,23.1085 -34.20028,76.6133 -24.96379,83.5 7.19104,-16.8344 33.76936,-80.7155 14.44908,-25.4125 -25.12105,47.4532 -27.27157,102.9358 -57.70066,147.3307 -24.97054,12.2037 -76.12704,81.1938 -80.88923,84.0374 -7.12397,8.1583 -57.79489,35.3544 -44.00213,69.6587 2.71948,34.7853 -8.74591,82.9506 14.86455,107.1357 l 4.40096,2.6833 10.02935,-1.4379 z m 151.9053,-8.8132 c 2.92564,-11.211 -15.66058,16.0484 0,0 z M 698.82957,1443.25 c 6.3376,-38.5634 -30.31265,-90.2716 -35.72729,-115.6556 -19.11452,47.0197 19.86801,83.3342 35.72729,115.6556 z m 17.94691,-16.906 c 24.41699,-50.2733 85.40179,30.3169 72.21367,-31.1936 4.45164,-64.4958 3.35301,-130.6761 20.69889,-193.3593 -4.29558,45.5184 -14.64021,110.3505 -14.82813,163.7184 -6.80876,29.1912 -6.23978,98.7009 27.52193,42.3469 15.52923,-56.5269 8.03087,-116.7003 10.76728,-174.8564 -2.2362,-26.596 1.11731,-85.1932 -4.76079,-93.0573 0.26006,58.5753 -7.17275,117.1247 -4.06956,175.6294 6.97935,52.044 -21.57233,-97.0872 -4.49859,-60.5967 2.52077,-35.1026 2.73607,-70.3024 3.18476,-105.4754 -29.56106,41.3633 -12.90035,105.8346 -47.23144,139.6949 -48.27004,-34.1067 -20.14615,68.4213 -39.28203,94.054 -17.87249,73.4822 17.55149,-125.77 7.6082,-68.6126 22.49811,-46.9138 -32.87592,-68.4202 -29.0714,-10.4866 6.20842,40.4584 -15.40099,100.318 -7.9351,130.4895 z m 126.76795,-3.7612 c 6.30981,-41.9177 24.07206,-93.1658 34.94905,-126.8248 -19.0224,40.5368 -39.08688,101.7968 -34.94905,126.8248 z M 856.94845,1393.5 c 13.63629,-23.0592 32.23414,-122.6046 9.77379,-51.0978 -3.53486,8.8759 -22.99437,85.0454 -9.77379,51.0978 z m -212.08527,-36.25 c -0.456,-31.6732 -1.09108,32.1915 0,0 z m 194.79391,-6.5471 c -0.6106,-34.4932 -2.57084,43.4774 0,0 z m 9.25575,-19.3532 c 9.94487,-25.4633 8.70865,-79.984 -3.67177,-21.6163 -0.45401,9.7922 -2.69277,53.44 3.67177,21.6163 z M 534,1343.5803 c 55.03198,-1.6783 102.53188,-26.0556 136.06076,-53.8246 29.40652,-41.1908 43.23364,-46.3568 67.93924,-74.0735 16.46405,-22.4363 66.90423,-79.8086 14.1579,-26.9691 20.16934,14.8422 50.68431,-107.1961 44.25216,-77.5675 20.48312,-3.4637 14.21946,-93.0854 41.59958,-119.39287 14.1723,-25.11926 4.67617,-56.84747 13.61362,-81.6134 8.80539,-39.8748 -5.84306,-87.0563 -7.21318,-129.16449 -14.80762,-31.22431 -31.56061,8.64983 -58.00788,-23.5362 -31.83448,-7.43884 -64.33187,-13.37047 -95.40218,-0.37962 0.29991,-7.53743 -22.44107,11.44712 -32.70403,4.40285 -30.72328,15.7118 -48.37518,12.04768 -75.38637,49.77886 -18.69129,28.86623 -21.59537,74.26434 -17.21908,109.51608 5.38598,21.58046 10.26046,30.64268 -2.2792,35.83817 1.78887,44.49442 77.89759,67.06782 49.37277,117.99812 -18.31177,26.4756 -54.75538,6.9034 -87.1796,29.9952 -22.85022,-37.3285 -53.45473,11.8765 -76.68638,-28.4012 -13.40229,-41.0021 44.44981,-62.2627 47.76857,-83.90127 3.07566,-5.20171 4.15902,-73.43764 -4.69713,-31.77584 6.25573,0.49642 -23.33638,40.93801 -9.54382,5.44331 11.19217,-20.57287 13.21111,-34.88489 1.37286,-20.97622 16.27992,-28.02454 17.33271,-67.86716 3.48601,-16.1837 7.26635,-18.23906 1.95969,-78.44937 -23.89077,-107.60039 -23.60818,-45.86367 -85.186,-61.73601 -130.26797,-42.98467 -8.09463,9.21681 -26.22779,4.06792 -34.10873,19.79168 -40.52247,12.72687 -10.88721,43.48159 -45.00386,32.47943 1.29769,27.78806 7.34711,33.51212 -17.03329,4.53067 28.40891,-3.78242 -41.69234,-27.07913 11.27069,-13.31621 26.82045,10.60162 -41.96645,-44.7014 15.00145,-14.64831 -16.02942,-20.93332 23.5476,3.6996 16.3289,-18.37072 26.81749,7.55467 -5.56615,-28.94296 28.4222,-14.15253 9.15053,-15.15944 28.98436,4.90801 13.96233,-19.00877 25.77802,0.5276 32.74609,-0.3421 49.42483,1.2368 -27.09755,-22.00147 17.87761,-23.40187 26.45091,-14.8554 19.11482,23.34056 71.92958,49.208 83.60229,92.28795 28.71164,51.57648 38.79241,125.64102 15.5364,176.31759 -8.76174,2.0711 -29.98503,32.0782 -9.90874,4.4206 -43.6638,11.8338 -22.87107,86.9115 -11.09126,68.8303 19.08247,-23.9581 25.76993,-59.7593 28.49219,-9.775 29.03486,39.6342 70.08404,-6.3527 60.48698,-42.7396 10.13337,-31.29044 8.09069,77.7207 38.65758,45.5849 14.94032,-13.236 6.59181,-57.8699 -21.84979,-67.3205 -25.76334,1.6572 -17.13554,-67.75904 -34.96226,-29.10954 0.45235,-33.89899 0.22479,-68.41711 4.49769,-102.01096 -4.97796,-18.63283 55.02363,-102.05872 22.25315,-64.61471 -19.66569,17.00945 49.6012,-53.81744 50.99973,-53.05204 14.13347,-10.49625 5.8904,1.0302 24.05959,-21.71395 -21.63773,63.28152 43.91484,-50.52032 20.16577,14.80503 15.67765,-29.15713 19.81618,-2.40037 22.77796,-11.3982 23.72123,-40.1083 -3.76037,29.4947 22.52399,-9.87516 19.84367,-9.0566 -11.41277,24.17085 21.1503,-4.19095 4.90447,-0.92396 -2.19995,31.77939 22.22684,1.98426 18.2416,-18.07233 -13.0187,31.01161 19.52028,1.54478 -10.3529,20.70311 15.65974,2.62965 27.43587,13.03558 3.23231,5.30623 62.362,39.93199 28.33395,-4.48887 -34.97428,-12.23304 -27.34762,-25.21435 4.13786,-7.64601 C 803.46839,682.30914 763.39944,633.99597 712.5,599.99591 627.82522,540.92255 523.36942,512.34814 420.93632,510.83482 365.42012,509.01251 303.4838,515.10553 276.00713,571.5 c -37.059,62.8302 25.17971,-17.16571 20.81127,-18.32413 -34.63918,46.64843 -62.90738,96.62557 -83.06528,151.27326 18.76456,-24.15221 52.12981,-65.34455 15.91264,-15.12784 -35.08294,42.89506 -28.05464,104.65263 -7.47959,151.59071 10.4354,34.42067 -14.34857,31.9521 -7.09587,72.97244 -6.46787,17.72146 12.6741,101.55796 13.25094,144.43046 5.55121,38.3093 24.89709,98.5583 60.45751,129.5807 32.49008,42.2669 81.81888,60.7976 105.31962,106.87 9.26401,18.8848 80.92954,47.9393 80.88163,48.7344 19.54838,2.1272 39.42683,1.6667 59,0.08 z m -13.30195,-126.6429 c -36.42121,-9.6332 -102.41431,-46.1666 -119.82727,-28.6874 16.57436,-37.6589 2.15277,8.3023 40.88575,-10.4629 41.3087,-4.2424 68.56035,-38.8478 108.46366,-22.0333 20.06236,-30.4707 91.365,45.4035 93.21906,-5.5002 -0.78765,-19.6024 39.69206,45.3213 6.39598,13.0506 -46.32528,12.6788 -74.45418,66.1292 -129.13718,53.6332 z M 558,1211.6554 c 22.06361,-2.4632 100.20718,-57.1882 33.54427,-34.6107 -41.24652,5.1346 -105.68342,0.1301 -135.85785,8.2013 29.68341,17.8296 67.0793,33.5179 102.31358,26.4094 z m -22.5,-35.6724 c 28.77018,-0.8543 100.04008,2.0853 36.51481,-22.9867 -32.76209,12.5653 -72.70498,-12.3062 -102.01481,24.7589 21.8434,0.3283 43.67021,-1.1953 65.5,-1.7722 z M 498,1142.4412 c 15.93212,-17.9155 6.74695,-67.5103 11.47513,-9.6343 l -9.69407,8.9998 z m 61.48716,-12.8743 c -20.04316,-72.6861 18.28588,12.6551 0,0 z M 499.83094,1025 c 5.50657,-41.7392 0.7947,25.9921 0,0 z m -13.83571,-34.50575 c 8.03609,-30.04102 24.01178,-26.47116 0,0 z M 362.66885,984.33552 C 351.0891,930.38797 260.00255,922.73287 263.70027,867.92398 288.88983,805.16294 356.10323,848.07102 389,809.09039 c 74.57171,-23.0005 62.07776,88.94862 -0.45571,93.35154 -23.27616,22.6947 -21.8656,56.09054 -25.87544,81.89359 z M 360,958.89882 C 355.31382,893.29051 490.06681,870.74081 414.91218,808.95011 380.74918,801.01273 359.65106,837.48813 358,842.5 312.19077,790.77483 215.21035,892.76154 305.49332,915.11752 322.73554,928.05153 344.41754,952.9547 360,958.89882 Z M 668.68945,957.75 c 19.05203,-60.71087 -54.46058,-96.7992 -57.50601,-140.60352 20.53026,-43.57669 76.04629,-21.64641 97.65113,-3.87914 53.48996,-68.51354 113.37267,48.01476 36.83999,67.45912 -51.10282,0.12951 -57.22836,73.03863 -76.98511,77.02354 z m 11.02793,-13.9076 c 0.81903,-68.08417 112.06763,-51.3704 97.55054,-120.36918 -18.33356,-48.27713 -81.06431,-13.37113 -75.94344,-5.22322 -29.45376,-56.78547 -137.52135,3.58874 -60.1068,38.026 26.12644,14.49421 29.27245,95.9113 38.4997,87.5664 z M 755,764.38153 c -85.83917,-15.96713 44.30747,-6.08914 0,0 z M 839.72847,1320.25 c -1.39218,3.3092 1.38463,16.6547 0,0 z m -441.98337,-1 c -12.5748,-5.6802 3.27123,21.7808 0,0 z M 624,1324 c 6.59256,-2.3158 -11.39322,1.1799 0,0 z m 5.49292,-1.9885 c -2.53063,-1.8291 -3.98135,3.2213 0,0 z m 11.2039,-3.3376 c 33.22776,-24.7756 -19.14691,5.9876 0,0 z M 401,1316.559 c -2.33371,-3.4347 -2.8802,1.9056 0,0 z m 253.56184,-7.3305 c -5.87084,2.4817 -3.33391,4.3387 0,0 z m 186.44412,-9.7678 c 0.7987,-14.3404 -3.66012,18.1234 0,0 z m -624.97452,-1.0685 c 26.86118,-32.5291 33.81692,-98.6036 13.28935,-133.0463 10.66418,31.1356 -31.65506,101.489 -40.76924,35.1541 -6.84069,-18.4228 0.9889,-105.1226 -20.171,-52.5 -1.0733,45.503 -9.08205,143.6083 47.65089,150.3922 z M 670,1297.5 c 7.06119,-8.8902 -9.41089,9.0264 0,0 z M 853.83676,1276 c 14.80177,-64.6049 -23.3195,53.0505 0,0 z m 29.0293,9.1006 c 1.04792,-12.9827 -3.9933,16.6644 0,0 z M 842.888,1279.5 c -4.29531,6.4076 -1.71822,10.0146 0,0 z m 49.97609,-25.1831 c 17.2145,-33.2144 10.02134,-123.2823 4.31793,-119.7396 -17.12415,46.7408 -22.3563,95.4927 -15.95861,144.6608 7.22884,-6.1697 8.3062,-16.631 11.64068,-24.9212 z M 689,1274.5 c 7.06119,-8.8902 -9.41089,9.0264 0,0 z m 160.99008,-33 c 26.91661,-72.703 -20.90831,14.0979 -9.29188,29.2781 3.21575,-9.7216 6.21341,-19.5128 9.29188,-29.2781 z m 14.47478,18.5717 c -0.29871,-7.3568 -7.80077,29.9958 0,0 z m -166.63793,0.4625 c 19.25549,-21.5645 -22.91273,20.7425 0,0 z M 724,1243.7826 c -5.88628,0.3953 -30.1944,28.7717 0,0 z m 130.55645,5.0672 c 11.70388,-47.9056 -13.64972,39.5287 0,0 z m 12.96919,-11.5767 c 11.04627,-48.7244 -13.18818,20.4324 -3.49939,8.7269 z m 36.29265,3.2269 c -5.40139,6.7177 -0.1996,11.7021 0,0 z M 717.5,1246 c 5.11579,-7.1523 -7.46262,7.2725 0,0 z m -1.37244,-3.75 c 3.73369,-4.5661 -6.73499,5.4332 0,0 z m 15.23702,-12.4821 c -1.6742,-2.7731 -15.00026,19.2344 0,0 z M 841.60775,1223 c 22.16321,-49.2712 20.38238,-86.0585 30.32169,-123.8415 10.71,-56.5493 9.20791,-114.27661 11.70305,-171.30489 8.78148,51.56096 -0.77277,124.67319 -9.38518,183.63859 19.78219,-22.0111 21.44609,-99.9023 32.09595,-144.40877 0.39398,-26.03079 -0.10699,-92.25337 -7.16404,-98.33343 16.01143,26.63884 -33.09018,61.52308 -15.51555,52.06097 23.21587,-49.66147 6.9546,-110.33142 -3.98255,-162.43622 -14.08339,-32.32733 -5.35656,-52.63379 -19.50769,-31.62475 -4.01299,19.66867 0.49614,122.43108 10.73854,111.06643 -0.0616,-27.52989 -23.92764,-132.09122 -21.76017,-56.18611 6.28673,25.11367 2.90771,114.96623 15.64905,53.27222 -7.2818,45.20529 1.29448,33.84537 -0.15659,43.3754 -8.47277,30.35176 2.77196,83.87808 -8.75154,59.13081 -8.25777,73.32755 -1.13495,147.77785 2.26805,220.58825 -10.9155,-11.682 -7.8741,-153.2853 -13.34036,-70.5588 -5.24103,44.8246 -13.79743,118.8455 -5.09496,145.6837 z m -105.20223,4.8098 c 5.77861,-11.3971 -13.38414,19.0241 0,0 z m 112.58789,-7.0017 c 11.18777,-29.3088 7.49491,-46.8907 -1.6479,-7.4829 l -2.33892,12.9074 c -0.0745,5.8665 4.83685,-7.6171 3.98682,-5.4245 z m -638.11319,2.4419 c 33.93971,-25.758 4.57898,-92.7249 -22.83406,-74.1418 1.25934,20.2957 0.38292,75.0403 22.83406,74.1418 z m 697.81277,0.019 c -1.65823,1.2799 1.47998,6.5909 0,0 z m -166.56543,-4.019 c 3.73369,-4.5661 -6.73499,5.4332 0,0 z M 743,1215.5 c 7.06119,-8.8902 -9.41089,9.0264 0,0 z m 122.99427,-4.75 c 16.46484,-32.971 41.45513,-94.4122 26.97874,-118.6009 -8.95618,35.1123 -29.21254,103.5485 -26.97874,118.6009 z m 8.35956,-1 c 12.99475,-42.6283 -16.33965,19.0997 0,0 z m -112.34648,-11.7845 c 31.58811,-36.5662 -36.93533,31.8673 0,0 z M 761.5,1192 c 12.6418,-14.1829 -14.99384,14.3331 0,0 z m 105.03225,-11.9489 c 7.83682,-40.323 -10.5406,38.6698 0,0 z m 44.32149,-4.5511 c 10.08268,-22.78 -7.07259,-60.7982 -3.63681,-13.217 -0.1853,10.0724 2.05619,42.2989 3.63681,13.217 z m -133.13711,8.0024 c 1.85215,-6.8728 -11.17084,15.9709 0,0 z m -5.56156,-5.7524 c 6.65121,-11.7074 -17.76319,21.74 0,0 z m -514.84738,-4.8411 c -24.44908,-42.6105 -19.36693,3.6747 0,0 z m 526.35292,0.3609 c 4.32277,-13.5737 -7.91167,14.8199 0,0 z m 90.81714,-33.7701 c 17.73319,-55.3652 -11.00268,-7.0868 -7.49612,21.0003 3.27339,-6.6925 5.05379,-14.0018 7.49612,-21.0003 z m -638.84769,11.4006 c -14.49188,-32.9007 -6.57619,13.498 0,0 z m -29.43829,-7.3832 c -37.01386,-45.064 4.136,18.2999 0,0 z m 11.09991,1.2329 c -17.14789,-13.7491 -28.33702,-69.4654 -19.46018,-18.5655 5.92264,6.7001 11.49176,14.0976 19.46018,18.5655 z m -4.47709,-19.6829 c -31.38791,-30.6526 30.3484,40.2419 0,0 z m 584.86852,12.7454 c -1.92502,0.4337 1.43252,4.3834 0,0 z M 919.45645,1117.5 c -0.93758,-40.1094 -9.38128,55.7371 0,0 z m 4.40493,13.1409 c 7.71083,-22.0122 21.33228,-117.6462 4.97746,-50.9258 1.64989,9.4911 -12.85232,60.9555 -4.97746,50.9258 z m -15.87669,-1.3438 c 5.35875,-28.3123 33.15828,-74.3306 2.81746,-45.1319 -5.53341,13.5148 -9.70803,41.665 -2.81746,45.1319 z M 233,1126.2534 c -5.5979,-33.9207 -12.94518,-40.5155 -7.17214,-2.1893 -0.0396,11.4928 2.64224,7.7966 7.17214,2.1893 z m 696.68311,2.5591 c -1.92502,0.4337 1.43252,4.3834 0,0 z M 187,1124.3641 c -10.0205,-33.7654 -14.75357,10.0883 0,0 z m 743.68311,0.4484 c -1.92502,0.4337 1.43252,4.3834 0,0 z m -710.65438,-16.3526 c -11.47508,-52.1662 -33.51517,17.5245 0.57453,11.322 z m -44.53081,2.5447 c -5.24473,-24.4272 -69.26486,-91.5703 -27.73955,-29.6268 6.92394,4.3649 19.65908,40.8775 27.73955,29.6268 z m 14.92909,-4.4015 c 36.18758,-50.7857 -27.95574,-0.3272 0,0 z m -8.1672,-8.8531 c 14.18586,-41.4272 -20.14799,-93.2578 -26.92466,-139.42921 -7.46379,-17.14449 -29.69469,-69.24392 -3.46827,-23.47318 9.46906,23.87921 34.54127,116.07679 21.23006,40.04057 -10.91292,-43.45257 -37.51821,-64.24389 -36.64631,-112.70787 -1.92148,-25.03533 11.15519,-66.71872 11.93925,-48.81125 22.36422,-32.92044 54.5427,-14.62661 47.33438,-60.75844 7.20547,-46.66714 -37.55607,67.27119 -21.31636,1.32961 13.94255,-21.52779 31.31578,-114.75785 3.09259,-46.51717 -19.58383,43.81309 -31.40718,85.22906 -50.05361,129.61457 -12.21132,37.04993 6.53831,78.16398 12.48935,115.62329 0.88014,21.22474 48.9832,123.36808 13.99651,60.48048 -21.47264,-52.98592 -30.37887,-110.01187 -37.49394,-166.36522 -3.24108,59.47402 19.7866,122.56563 32.19288,174.13432 -30.97116,-50.9844 -28.94902,-120.57157 -41.21648,-170.76454 -20.574531,-2.23428 7.19597,-76.77186 -15.11164,-20.76547 -12.361319,67.19814 11.9284,135.97487 36.86082,197.79031 18.31642,18.2801 36.02607,59.3589 53.09543,70.5792 z m 729.32537,-24.8441 c 30.05915,-6.282 29.77459,-100.14541 32.65865,-139.54309 3.09422,-69.70355 -38.04493,20.31945 -24.09001,22.04218 33.54745,-63.36647 19.98265,-139.53732 11.83357,-207.66931 -8.68829,-27.68788 -12.26638,2.94947 -14.85281,-33.60114 -6.99345,25.55525 19.84674,112.80267 12.44956,162.48962 -2.98403,21.97757 2.16747,54.73516 -11.71013,53.37584 -10.00533,48.3045 0.39846,96.9524 -20.13859,143.5 4.26021,27.2694 1.18516,36.4334 13.84976,-0.5941 z M 554.12756,1090.25 c 3.24846,-4.9704 -5.68858,6.3135 0,0 z m 0.37799,-6.2561 c 5.15034,-8.583 -8.76886,7.6523 0,0 z M 498,1082.893 c -3.0462,-3.3639 -2.79614,4.6558 0,0 z m -295.31689,-5.0805 c -1.92502,0.4337 1.43252,4.3834 0,0 z m 7.97917,-5.0625 c -1.75023,0.9994 1.62308,5.5068 0,0 z m -13.417,-2.2472 c 27.80312,-3.0938 -18.81819,-19.819 0.65466,-47.8761 12.78236,11.0175 13.53307,-68.08864 -10.89074,-86.03954 -11.53256,-21.25754 -31.58565,-93.83273 5.61363,-104.33716 4.36918,-65.65463 -68.58562,-11.94903 -41.10743,27.56794 -19.77987,40.60405 37.27156,81.78957 31.961,129.79921 8.63053,25.37085 -8.40703,71.54665 13.76888,80.88565 z M 898.40024,1052.5 c 8.23595,-34.9989 3.57109,-49.7173 -2.10633,-6.7624 -1.20404,3.192 -1.60587,31.2306 2.10633,6.7624 z m -672.87378,2.6931 c -4.34968,1.1878 -1.93311,2.8301 0,0 z M 206.83003,1045.5 c -9.52081,-40.4362 -3.88885,33.4603 0,0 z m 746.71335,-6.7181 C 968.4886,992.59466 965.21959,946.5351 972.07134,899 c 1.20794,-27.4747 0.41384,-106.53337 -6.61823,-99.98332 3.32195,83.55782 2.43196,167.96231 -16.31852,249.82552 l 0.81766,-0.5603 z m -7.96438,-0.2539 c 4.40822,-32.063 -7.08168,32.6649 0,0 z M 222,1044.159 c -4.59852,-37.4297 -8.86609,11.6559 0,0 z M 466.03297,1028.5 c 3.29681,-5.9378 -6.08013,7.8516 0,0 z m 16.07695,-11.2261 c 27.3288,-29.87955 -39.61383,37.1956 0,0 z M 909.75652,1008 c -0.11646,-14.75453 -2.9343,27.5019 0,0 z m 32.92659,-0.1875 c -1.92502,0.4337 1.43252,4.3834 0,0 z M 946.85605,990 c 12.234,-66.92189 7.69458,-135.94708 -2.01682,-203.09486 -1.47108,31.6215 -0.17534,109.1491 4.01315,156.86589 2.66147,6.25489 -11.31448,92.19557 -1.99633,46.22897 z M 111,997.33103 C 92.971568,947.45435 84.412352,893.12679 80.71285,841.57853 99.041574,790.53423 83.772653,738.95558 98.481117,687 117.26952,628.90436 138.47299,570.4355 170.47541,518.10062 c 7.40204,-25.23227 41.0464,-87.42339 16.45862,-27.60062 -10.72009,27.9871 1.80261,12.09655 -20.39303,49.5 24.13584,-36.63847 51.73057,-72.30653 83.07926,-102.28663 -41.25436,47.23432 -81.56861,96.61043 -104.4276,155.81262 36.68349,-54.79978 68.12163,-119.50182 124.69095,-156.00747 -7.66044,18.9391 -2.25058,12.94977 16.57044,3.55582 C 226.76724,481.46273 190.74977,547.00578 146.06892,602.047 135.50069,637.77098 118.54151,749.43562 119.96493,735.84196 137.13624,697.4447 147.34906,653.78835 163.94906,617 c -13.43826,60.11338 32.23068,-38.25665 45.93024,-56.7375 13.75771,-19.57735 45.42152,-98.40394 24.34662,-35.33855 -19.76037,38.94206 -59.411,96.50856 -70.02265,122.26479 48.27279,-37.88723 68.93793,-96.85205 107.69272,-141.25444 -18.1529,20.86001 -54.61744,86.60707 -13.35584,35.47797 40.23283,-24.97981 47.66444,-51.94474 30.44363,-92.2082 3.78684,-63.81643 -43.39641,-48.73169 -62.90619,-3.20407 -58.65478,69.49683 52.37135,-55.44239 40.91737,-50 -52.25842,16.74382 -89.15902,65.26764 -116.80362,111.69776 -40.80733,62.65749 -47.95504,138.5395 -72.385239,207.46737 -4.130127,23.42452 -2.782166,48.47106 2.198534,43.56359 -6.484892,22.98396 3.704715,53.6687 -8.702307,42.39436 -3.466797,47.98532 -2.50685,84.03374 15.439293,142.88683 C 93.856967,961.1455 98.185409,985.7697 111,997.33103 Z M 571.15,994.5 c -2.71084,-4.64483 -2.71084,4.64483 0,0 z m 388.55573,-44.75 c -1.53162,1.95145 1.50397,9.97647 0,0 z M 200.41161,932.35642 c -7.17007,-83.96187 -3.51616,53.75539 0,0 z M 912.99058,935.5 c 19.8349,-64.40708 11.56432,-133.82279 -2.25493,-199.4834 -3.73711,-25.42217 -36.98502,-119.18026 -19.59495,-48.60722 24.01667,37.83086 18.25859,91.07523 -1.2511,65.51533 12.74146,15.94721 27.39159,82.12661 7.51375,29.65168 -31.78843,-77.27807 16.90899,91.63924 5.94234,60.1297 4.93051,27.66298 6.3909,79.42112 9.64489,92.79391 z m 48.83988,-18 c -3.33978,-7.41072 -0.54664,42.18055 0,0 z m -772.62845,-4.93678 c 6.16959,-18.09305 20.27337,-74.376 -9.02331,-68.56322 9.63069,-0.0842 -1.98247,96.53447 9.02331,68.56322 z M 962.58278,863.75 c -0.0738,-57.64575 -5.46623,-121.10789 -18.21034,-173.74734 22.36842,47.4063 -3.70855,-55.82151 -13.07379,-75.04921 -15.10905,-40.54408 10.03368,60.1094 6.83865,84.03143 -4.37784,54.34916 22.91378,104.12127 22.06059,158.62953 -0.28094,15.37124 4.00041,37.58888 2.38489,6.13559 z m -749.58751,-1.46232 c -2.85398,-5.3203 2.52908,9.94774 0,0 z M 207.9549,848.75 c -3.83717,-18.83547 -5.05041,5.63429 0,0 z m -3.58515,-14.05287 c -9.61935,-20.23885 5.0346,19.83356 0,0 z m -84.5282,-16.64679 c -2.03003,-18.04233 -8.22153,37.18507 0,0 z m 14.19831,-12.07125 c 13.21153,-46.84703 -24.77969,67.08428 0,0 z m -72.894083,9.87509 c -3.519207,-13.38346 2.268794,24.34723 0,0 z M 267,815.85941 c -27.67729,-25.35679 -10.44752,9.58424 0,0 z M 164.85871,801.24464 c 14.34154,-15.37975 -31.15511,24.09909 0,0 z M 116.5074,790.95148 c 12.56171,-29.31545 4.54639,-72.659 -2.61026,-19.47497 -5.43816,11.02018 -0.14576,58.26291 2.61026,19.47497 z m 158.44092,16.61079 c -2.04715,-7.15346 -13.42793,-5.03077 0,0 z M 97.914402,800.5 c -2.821756,0.43441 -2.079888,8.67377 0,0 z m 193.097868,-1.52292 c 1.75125,-8.34775 -9.82297,10.89168 0,0 z m -157.41251,-9.31715 c -0.36642,-14.62019 -10.76533,30.99972 0,0 z m 154.38863,7.38372 c 5.48683,-9.05331 -15.22962,2.89443 0,0 z M 61.298043,779.29249 c 3.043848,-26.01035 -8.933414,29.01303 0,0 z M 965.54034,771 c -4.21717,-44.5763 -7.33967,-25.38387 -2.16199,6.11026 0.0878,10.40372 5.30867,12.7391 2.16199,-6.11026 z m -663.03565,14.62023 c -0.0981,-10.69756 -20.36811,-1.83263 0,0 z M 139.55694,749.11186 c -5.43412,-22.82287 47.89567,-116.9561 8.64301,-60.50885 -8.69748,27.0884 -15.464,66.73667 -14.49179,84.51768 3.01225,-7.71882 4.3061,-15.92087 5.84878,-24.00883 z m 485.9402,19.48042 c 9.6074,-17.39212 -21.71809,19.24706 -6.63021,6.31195 z m -518.92389,-1.75956 c -2.72826,-28.19206 35.23026,-99.68724 10.03681,-105.09425 -15.88808,27.51089 -19.070508,110.36573 -10.03681,105.09425 z M 941.66228,772.75 c -1.75023,0.99942 1.62308,5.50683 0,0 z M 65.605162,766.66866 C 68.449849,703.12418 96.662641,642.73014 111.17022,580.76213 137.00311,516.08021 173.50801,448.33727 234.3079,410.87632 249.08563,388.61787 173.67783,442.23849 161.25393,463.8792 121.7179,518.94381 97.412232,583.36429 79.402532,648.59095 64.663846,665.99978 64.803146,744.51241 56.98699,708.72932 c 1.893177,11.03874 -5.418487,61.7541 8.618172,57.93934 z m 570.268248,-0.55008 c 23.23965,-34.158 -6.18293,-9.76956 0,0 z M 149.02634,755.5 c 12.83502,-34.87781 48.92203,-83.10178 44.99847,-112.5 -14.08302,25.08847 -60.8048,116.91697 -44.99847,112.5 z m 210.97517,5.04639 c -9.10662,-2.90944 6.06817,4.48484 0,0 z M 811,761 c -3.84426,-3.58521 -2.56315,3.70389 0,0 z m -151.45576,-4.02106 c 23.79763,-29.55503 1.50188,-21.93582 -6.92249,2.62419 z m 22.55677,-6.83429 c 22.02619,-36.41064 -18.84389,4.08537 0,0 z M 695.85672,746.25 c 12.57066,-24.85424 -15.48429,11.70146 0,0 z m 14.35973,-2.0716 c 26.63893,-27.95548 -15.52887,2.75401 0,0 z m 45.35718,-3.9284 c 8.77994,-19.83016 -19.83719,15.21747 0,0 z m 12.56444,0.18788 c -1.44389,-7.44211 -12.28083,12.1998 0,-3e-5 z m 18.97226,1.31212 c 4.86069,-7.36272 -9.91539,8.05253 0,0 z M 132.67931,724.42966 c 16.03124,-59.06041 -21.53958,56.17417 0,0 z m 596.7815,17.94701 c 27.05424,-31.23973 -30.80538,10.34909 0,0 z M 855,737.86109 c 2.28102,-26.36814 -44.35443,-90.48632 -18.43931,-35.06259 5.88088,10.49147 2.76694,34.93007 18.43931,35.06259 z M 888.12583,732.25 c -10.03308,-20.77048 4.31993,17.79314 0,0 z m -53.11624,-17.13605 c 1.03689,-23.07264 -53.71996,-73.64755 -15.38859,-23.23422 0.2994,3.73764 19.61548,45.83389 15.38859,23.23422 z m 96.21694,-10.87128 C 933.17656,652.05733 920.9413,610.98366 902.45855,561 892.20321,534.95249 868.9573,479.56194 871.55733,475.11401 c 22.40737,31.62651 -39.74172,-89.75078 -41.03475,-47.00127 44.8117,49.45717 -62.94401,-34.50288 -16.60552,14.06434 20.69079,15.73144 96.93714,96.79832 37.88309,45.7054 -36.27713,-32.47723 31.37749,50.53279 37.31428,67.69489 -34.22513,-15.29735 24.70682,49.5182 23.57548,83.57605 8.42146,24.99886 3.81234,70.36054 19.10229,78.3093 z m -49.454,9.45235 c -19.6711,-37.37873 -19.81303,-9.86484 2.05423,5.46015 z m -696.4281,-62.95733 c 30.35351,-70.80384 -17.1993,53.70376 -30.012,58.7252 9.87748,-19.63942 19.57545,-39.37258 30.012,-58.7252 z m 674.53726,52.21633 c -8.52117,-35.09024 -56.95854,-74.70347 -72.80573,-72.53394 22.02022,41.20694 51.2632,32.48862 71.33478,83.9472 1.54912,4.05392 0.0246,-27.09865 1.47095,-11.41326 z m 46.46446,-8.80017 c -14.30313,-30.57808 11.04446,33.15071 0,0 z M 230.09893,657.09814 c 9.14914,-30.40197 -39.91434,82.03411 -9.08689,19.77349 l 3.47938,-7.31164 z M 60.642206,686 C 84.358765,621.49936 99.104208,553.2997 137.10196,494.96822 145.59481,468.66819 213.18238,413.93021 159.29474,457.9662 120.00382,498.81659 90.074153,550.02217 76.235792,605.5063 69.049972,623.36643 52.405288,696.19045 60.642206,686 Z m 147.246234,1.75 c 2.18486,-8.88328 -4.90849,10.13956 0,0 z m 702.5946,-2 c -4.92828,-30.0144 -54.64519,-126.23692 -23.26745,-50.22272 4.02267,12.85729 19.59574,53.70482 23.26745,50.22272 z M 223.25279,658 c 16.67599,-26.24434 50.89703,-92.53456 14.41983,-29.60913 -13.13173,17.4862 -42.86306,83.58187 -14.41983,29.60913 z m -60.91856,9.5 c 8.7539,-19.59024 82.141,-101.64492 33.44914,-50.90281 -6.32204,1.73503 -68.76022,74.94772 -33.44914,50.90281 z m 750.62487,-7.97351 c -3.93417,-35.79213 -53.62167,-138.59026 -57.64924,-120.22692 17.06439,43.27546 42.60254,95.89195 58.53,131.98037 z m -715.67142,12.3883 c 39.32763,-43.73284 42.18134,-110.29339 87.73913,-150.93292 -16.60844,6.85887 -61.44262,59.60914 -74.09418,90.95236 -11.88651,16.24263 -11.38598,49.03656 -13.64495,59.98056 z M 796,658.1375 c -21.28971,-58.68463 -75.03264,-93.80901 -123.79427,-128.54726 -71.80225,-36.7948 -155.47594,-35.39133 -232.9869,-52.92286 -51.20199,5.86912 -71.45057,-22.46059 -133.51852,-11.7853 2.43464,3.69937 -7.92673,22.17966 10.14982,41.61792 -36.12106,0.45605 -72.33033,78.99695 -87.02559,124.51406 -22.46387,48.89538 24.55845,-43.14326 41.51516,-56.55944 39.1465,-55.18244 63.05986,-68.89826 123.97611,-70.48044 36.33959,3.33081 71.93721,-4.20992 14.80267,-6.40886 -30.3365,3.61157 -120.41068,-8.63349 -41.55891,-10.84504 33.21558,-7.22517 50.26904,-2.67353 6.48643,2.92792 -6.53293,7.0247 70.66253,-1.39961 93.70794,14.83339 75.25303,7.1389 150.75793,22.68926 215.24606,64.17681 44.77636,19.94532 82.19141,55.9499 113,89.4791 z m -668.29514,-3.93393 c 19.25086,-53.56209 -11.24384,-13.92779 0,0 z M 747.69424,618.4684 c -12.63179,-9.27625 7.22202,8.78702 0,0 z m 37.78175,-8.7184 c -14.30978,-21.80945 -88.15122,-73.96146 -32.12715,-27.24157 5.59568,3.81479 44.82641,44.13168 32.12715,27.24157 z M 140.19375,589.63173 c 10.56669,-31.55387 -18.05775,42.35314 0,0 z M 921,585.12631 c -4.7478,-21.45404 -19.93146,-63.99765 -6.72031,-15.26364 2.16174,-8.97617 2.73856,24.52806 6.72031,15.26364 z M 168.24926,567.75 c 24.70135,-40.20981 81.3724,-90.44636 90.67551,-121.71162 -39.44574,33.13522 -82.00281,100.94564 -98.14317,131.06943 z m -15.89028,-4.89522 c 17.04496,-44.62972 -23.6875,48.48721 0,0 z m 567.59571,-9.40938 c -10.07528,-9.34411 3.64107,6.03631 0,0 z m 180.04104,-18.11609 c -14.96347,-39.77102 2.09675,23.31122 0,0 z m 6.68738,-0.51681 c -1.92502,0.4337 1.43251,4.38336 0,0 z m -1,-4 c -1.92502,0.4337 1.43251,4.38336 0,0 z M 648,511.56714 C 600.14902,482.35079 540.85849,483.98549 486.78822,479.86098 540.47718,490.55646 595.76651,495.12921 648,511.56714 Z M 883.12207,496.325 c -3.64324,-4.57658 2.71436,7.37812 0,0 z M 398,464.45732 c -36.11137,-2.48367 -8.85432,0.24485 0,0 z m 417.5,-43.12961 c -25.85972,-27.49966 -46.71482,-36.38369 -10.00648,-3.47782 10.84892,11.05896 36.51832,26.16783 10.00648,3.47782 z M 791,424.43367 C 772.09183,401.5633 746.75021,358.62137 724.7788,352.75 c 16.06364,27.39541 40.442,53.60673 66.2212,71.68367 z m 38,-9.01652 C 800.99859,371.19159 768.03272,362.33782 742.04743,337.5297 681.69401,308.4301 616.3008,281.11852 548,293.53129 c -56.2809,4.37455 -115.45648,12.51466 -164.84074,40.94327 101.02103,-21.31706 213.5243,-39.26834 309.17624,10.91799 28.60398,17.24702 16.91174,14.35539 30.85926,-2.36944 30.60072,2.04221 59.91295,73.05161 43.10288,22.97689 20.47177,16.82099 36.87906,40.6636 62.70236,49.41715 z m -88.6595,-23.17169 c -23.30157,-36.49657 -134.64223,-41.15793 -121.34362,-47.02752 41.91593,1.92319 96.6533,40.92121 121.34362,47.02752 z M 391,1536.8108 c -33.59388,-0.222 -44.38034,-39.4503 -6.5048,-8.7539 15.45591,-0.578 34.31248,10.0788 6.5048,8.7539 z m 14.82733,-9.8017 c -36.22019,-0.9545 -32.6828,-68.2178 -12.04601,-14.8204 8.22212,7.5916 42.49644,13.8921 12.04601,14.8204 z m 12.51642,-7.0505 c -32.91262,-3.7567 -48.23239,-66.8262 -12.00843,-15.7849 7.45127,7.3098 40.0325,15.325 12.00843,15.7849 z m -40.01847,-36.1381 c 12.54307,-25.5191 5.46966,-3.6274 -1.29967,4.5685 z"
       style="fill:#000000"
       id="path95" />
    <path
       d="m 285.63902,399.12811 c -0.68523,1.05178 -0.68771,-1.03446 0,0 z"
       style="fill:#000000;stroke:#000000"
       id="path107" />
    <path
       d="m 292.43651,388.35192 c 22.02407,-30.65936 53.47171,-43.7149 86.87363,-54.8272 14.22892,7.00891 66.82692,-28.77913 17.1492,-13.87346 -22.57427,15.67847 -66.75709,11.72944 -89.95744,39.50183 -1.55365,8.73255 -33.23356,23.47004 -14.06539,29.19883 z"
       style="fill:#000000"
       id="path109" />
    <path
       d="m 389.27608,1410.7243 c -15.72442,42.2164 -27.45449,90.273 -50.67109,128.8931 -16.53804,21.1692 23.80133,12.4307 28.02553,-25.873 0.18505,-28.0095 54.96142,-95.8262 22.64556,-103.0201 z"
       style="fill:#000000"
       id="path111" />
    <path
       d="m 294.17636,550.39001 c -1.3729,2.10451 -1.37346,-2.07272 0,0 z"
       style="fill:#501616;stroke:#000000"
       id="path113" />
    <path
       d="m 707.06534,1430.563 c 5.1861,-51.5261 4.85752,-106.6084 16.00099,-156.1162 49.22359,-2.6511 5.86549,79.1451 8.80157,112.4359 -4.44891,52.1014 29.40804,-100.3097 13.72872,-60.1704 -5.54408,-33.8385 11.21857,-46.0598 34.38534,-41.0343 29.32801,-38.5154 16.31503,-92.8696 42.11118,-133.3347 -1.55177,32.4171 1.18365,66.1831 -4.32166,97.5576 -11.50031,13.6887 13.45886,116.7139 6.97847,43.7791 0.0823,-46.6966 2.08394,-105.3661 5.21238,-145.15 0.6918,79.0824 5.73076,158.9472 -3.38168,237.6256 -0.65836,47.2095 -47.29811,50.3109 -33.84034,-0.5669 4.16799,-60.3142 11.46371,-126.895 16.54621,-183.1349 -19.28588,69.13 -17.1507,142.3733 -20.93312,213.1044 -29.60651,0.4316 -60.21753,-19.2016 -81.28806,15.0048 z"
       style="fill:#501616;stroke-width:1.27111"
       id="path115" />
    <path
       d="M 102.58717,984.02257 C 79.096446,927.91156 63.339391,863.87816 73.946492,803.88724 88.333179,767.63474 66.345697,725.5073 87.429794,686.86284 108.21916,607.05841 128.63878,524.09689 183.8571,459.96413 c 16.76925,-23.00522 61.31751,-63.22641 78.72552,-57.10484 -21.99716,10.34849 -75.67205,94.37398 -33.18673,42.43702 13.53981,-35.66867 63.55427,-54.01279 59.42235,-0.28847 32.95338,44.98591 -27.3945,102.26353 -46.0011,107.98226 12.21619,-22.70242 42.80995,-68.16314 9.35286,-22.26027 -24.21581,35.04017 -55.6838,92.2096 -83.18937,108.1953 19.48155,-39.3111 72.68097,-111.68879 67.47714,-130.59697 -21.13725,34.53387 -52.58806,110.96592 -73.79472,120.21284 8.86849,-49.92088 -41.41831,110.64057 -25.30894,58.96095 -8.23562,28.15313 -19.77564,51.24236 -9.72066,8.27971 5.7936,-56.78082 21.19789,-110.36736 62.87138,-151.33186 19.67751,-35.39181 93.43026,-110.22461 86.98548,-99.58017 -24.20418,-14.26864 -70.27202,51.56242 -92.44644,84.93716 -11.81971,19.51047 -47.00098,73.36619 -20.85005,25.15265 22.39433,-42.43401 54.16964,-78.69459 84.36999,-115.59658 -25.29771,17.9311 -52.28436,63.16552 -67.51435,73.86959 9.07185,-25.36283 23.32343,-70.82662 -0.27929,-21.93174 -34.7783,73.85277 -76.86114,147.28006 -88.37836,229.24151 2.550141,52.53773 -13.855032,104.08545 -8.973048,155.8892 0.805413,32.18436 22.441658,102.02632 19.168408,107.59115 z"
       style="fill:#501616;stroke-width:1.27111"
       id="path117" />
    <path
       d="M 784.76142,645.78942 C 705.31853,560.99338 591.36401,514.38683 476.56859,505.15481 c -25.83527,-14.30848 -101.45732,-9.38059 -95.79501,-16.20244 61.42596,-12.396 -102.15026,1.42054 -16.68763,7.79262 26.00732,-0.12961 112.67281,5.21439 39.29261,7.61106 -44.30979,-10.58047 -104.85095,46.84917 -86.64523,-26.65086 3.05752,-38.9112 72.13527,3.05777 97.73048,-0.59669 64.23612,4.79996 128.52065,16.08449 191.83497,28.79684 67.74507,15.12631 125.44985,60.77902 168.73451,113.54178 5.68693,6.36053 32.50275,54.48489 9.72813,26.3423 z"
       style="fill:#501616;stroke-width:0.449405"
       id="path119" />
    <path
       d="m 635.81071,507.78083 c -43.74321,-12.8894 -101.5112,-18.27998 -139.31548,-26.86211 49.98211,3.11184 103.11671,3.25027 147.75736,29.04097 l -8.44188,-2.17891 z"
       style="fill:#501616;stroke-width:0.449405"
       id="path121" />
    <path
       d="m 823.88524,413.10218 c -24.93059,-8.01863 -62.74155,-64.082 -57.14613,-34.13258 -12.12144,-16.92765 -40.39219,-52.37809 -55.34563,-22.56946 -92.20883,-59.968 -207.65472,-46.59787 -310.00615,-26.2123 26.25627,-17.93184 69.01346,-29.06582 110.05594,-32.85202 61.71723,-10.98049 126.16558,-8.01859 183.55668,19.28958 48.83379,19.65578 95.00652,50.46054 128.57517,91.32924 l 4.25958,6.83279 -3.94946,-1.68527 z"
       style="fill:#501616;stroke-width:0.449405"
       id="path123" />
    <path
       d="m 928.62588,714.31726 c -14.11233,-52.2555 -16.13801,-109.38025 -49.37216,-155.73563 32.42626,-2.57577 -50.90402,-73.37301 -30.64191,-72.85843 22.05839,22.89487 33.6815,21.11619 7.67989,-3.14098 -14.315,-15.99468 -83.99837,-76.46523 -26.06682,-42.08765 26.43201,18.7542 -16.65683,-42.01368 16.06166,-11.81557 34.92395,40.28895 23.87679,65.44654 48.31215,113.80572 23.01125,54.9073 40.27007,113.65178 36.23687,173.8241 l -2.20973,-1.99152 z"
       style="fill:#501616;stroke-width:0.635554"
       id="path129" />
    <path
       d="m 838.46418,1226.3411 c -6.38436,-54.3706 4.85234,-108.7445 8.75955,-162.8887 3.11949,18.5474 4.06435,108.3392 10.97401,89.3647 -3.65448,-71.2657 -9.18416,-142.8934 -2.18015,-214.13178 12.24059,1.54067 5.46235,-118.6013 7.20226,-98.28456 -12.59594,33.89986 -9.89183,-53.31931 -13.39372,-69.4343 8.69341,-40.41499 9.8672,52.63601 17.02344,65.918 11.63427,-18.40266 -12.40244,-58.89445 -7.64175,-87.20907 5.77715,-71.12612 26.52553,35.11861 30.50925,59.46915 13.53121,27.73175 -2.90425,116.33304 -4.17988,108.24248 15.18782,-28.34582 21.44647,-41.48153 19.8778,0.005 3.4144,57.10564 -9.78635,113.60062 -19.97124,169.45152 -22.05731,53.1278 5.75445,-66.7601 1.37869,-91.09287 2.91835,-26.54438 -4.6695,-100.66241 -4.59437,-33.99055 -0.62415,91.49402 -13.17026,183.68172 -42.67416,270.30092 l -0.58342,-3.0624 z"
       style="fill:#501616;stroke-width:0.635554"
       id="path131" />
    <path
       d="m 695.63619,1464.2936 c -3.25754,-42.1662 79.34101,-67.0143 97.19837,-27.9381 51.7479,-15.9922 51.1496,-87.8756 68.34392,-133.154 2.75613,-28.0465 16.44683,-89.2625 14.9727,-28.1758 -14.43242,52.8072 -31.45621,106.5749 -47.82019,159.6133 -29.19409,44.736 -86.83652,12.2712 -128.01647,31.6249 l -4.67833,-1.9699 z"
       style="fill:#501616;stroke-width:0.635554"
       id="path133" />
    <path
       d="m 666.64704,1457.187 c -24.58353,-8.5449 -16.16117,-108.5473 -15.07985,-88.1909 3.3054,25.0857 70.29345,83.0597 15.07985,88.1909 z"
       style="fill:#501616;stroke-width:0.635554"
       id="path135" />
    <path
       d="m 692.84565,1394.6393 c -8.26995,-26.5974 -22.72927,-107.0738 -43.27166,-44.7539 -5.82377,-55.3584 65.71592,-75.7734 87.95823,-120.789 45.75955,-32.5541 64.83668,-84.2835 77.39042,-137.1888 9.74966,-26.0496 36.00585,-93.80793 9.09758,-34.5042 -25.89551,44.4023 29.56775,-121.75437 18.35074,-33.3833 0.54054,21.1115 -7.30869,100.1418 -14.97792,82.7589 -6.93563,-21.9013 1.66758,46.7766 -18.76561,58.629 -15.04896,27.3446 -3.90377,134.9881 -51.43823,104.5857 -59.99607,-23.1865 -47.77669,74.3997 -50.34608,110.2432 -0.92972,-16.2275 -9.31279,-124.2323 -9.04161,-51.8655 -0.34386,20.7958 6.77288,52.918 -4.95586,66.2679 z"
       style="fill:#501616;stroke-width:0.635554"
       id="path137" />
    <path
       d="m 695.89827,1437.0215 c -19.73011,-26.4281 -51.37746,-85.2011 -30.77276,-101.6158 11.13104,30.3602 41.86384,81.6674 30.77276,101.6158 z"
       style="fill:#501616;stroke-width:0.635554"
       id="path139" />
    <path
       d="m 881.28868,1276.7409 c -5.81582,-43.6343 -0.56192,-110.4604 18.19676,-136.7938 6.76526,44.2341 6.71879,101.7778 -18.19676,136.7938 z"
       style="fill:#501616;stroke-width:0.635554"
       id="path141" />
    <path
       d="m 901.02629,1095.2891 c -6.05984,-41.1255 18.19482,-81.134 12.43409,-123.81029 1.49954,-25.7478 7.9634,-62.97011 6.2899,-15.60526 10.31106,-21.55674 26.35557,-74.78347 23.75371,-18.77698 -6.11314,45.37344 5.21116,105.18723 -32.95421,137.78453 -2.44382,-2.653 -5.79775,27.8932 -9.52349,20.408 z"
       style="fill:#501616;stroke-width:0.635554"
       id="path143" />
    <path
       d="m 912.74374,932.9936 c -3.43264,-55.36631 -10.65429,-110.04628 -25.41672,-163.59525 1.23121,-14.18606 31.04401,67.92701 14.59151,9.18909 -14.68525,-23.50461 21.71255,-44.84354 -4.16372,-79.53886 -14.10174,-24.40486 -11.19486,-49.64506 -0.29581,-9.29059 23.17169,77.33137 38.6719,164.13955 15.28474,243.23561 z"
       style="fill:#501616;stroke-width:0.635554"
       id="path145" />
    <path
       d="m 928.21253,908.68364 c 10.30977,-64.41753 -9.33761,-127.50593 -11.56935,-191.46073 19.88998,36.8785 22.84265,83.72133 24.28416,127.85806 2.635,11.21091 -3.29667,86.54281 -12.71481,63.60267 z"
       style="fill:#501616;stroke-width:0.635554"
       id="path147" />
    <path
       d="m 961.95377,876.27037 c 1.59517,-62.97649 -27.74058,-122.18745 -23.53308,-185.25601 0.48312,-22.9946 -22.64024,-123.06174 0.23365,-54.16469 6.22528,18.84432 21.20308,75.75068 6.13212,56.56701 13.53587,59.36865 18.13981,124.94989 17.16731,182.85369 z"
       style="fill:#501616;stroke-width:0.635554"
       id="path149" />
    <path
       d="m 944.47869,997.4494 c 10.82774,-67.30853 -4.92035,-135.4561 1.18557,-203.00076 8.58322,67.10766 13.54107,136.41133 -1.18557,203.00076 z"
       style="fill:#501616;stroke-width:0.635554"
       id="path151" />
    <path
       d="m 866.14004,1206.994 c 5.57263,-31.5515 17.43438,-98.5109 29.49488,-107.9811 6.33506,35.176 -16.80631,86.5998 -29.49488,107.9811 z"
       style="fill:#501616;stroke-width:0.317777"
       id="path153" />
    <path
       d="m 907.03566,1128.3278 c -18.26429,-30.9952 35.6795,-79.4911 7.65562,-21.7966 -3.10878,6.128 -4.4972,18.2663 -7.65562,21.7966 z"
       style="fill:#501616;stroke-width:0.317777"
       id="path155" />
    <path
       d="m 908.72117,1184.5744 c -7.287,-24.4354 4.81521,-67.5697 4.518,-17.818 -2.26786,0.4452 -2.95143,26.1601 -4.518,17.818 z"
       style="fill:#501616;stroke-width:0.317777"
       id="path157" />
    <path
       d="m 921.93658,1131.5321 c 0.51836,-28.3002 21.72132,-113.649 9.88411,-37.6109 -3.48671,12.1054 -2.63779,27.0189 -9.88411,37.6109 z"
       style="fill:#501616;stroke-width:0.317777"
       id="path159" />
    <path
       d="m 866.90225,1157.7054 c -2.75882,-25.6591 23.16968,-62.543 6.76808,-16.2873 -3.46885,-8.5193 -2.7253,23.9069 -6.76808,16.2873 z"
       style="fill:#501616;stroke-width:0.317777"
       id="path161" />
    <path
       d="m 839.91156,1269.0111 c -7.9177,-19.4062 31.69845,-85.1065 11.56308,-32.0829 -3.81218,7.6656 -7.73437,29.8438 -11.56308,32.0829 z"
       style="fill:#501616;stroke-width:0.317777"
       id="path163" />
    <path
       d="m 844.96188,1340.7777 c -6.32186,-26.9367 16.04313,-84.1031 8.11846,-25.5117 -1.72538,6.7934 -5.43492,24.2796 -8.11846,25.5117 z"
       style="fill:#501616;stroke-width:0.317777"
       id="path165" />
    <path
       d="m 852.61672,1400.0273 c 1.54213,-25.4206 34.49607,-122.4095 18.46807,-48.9189 -3.55875,15.3538 -11.63155,41.3366 -18.46807,48.9189 z"
       style="fill:#501616;stroke-width:0.317777"
       id="path167" />
    <path
       d="m 843.23377,1415.351 c -1.04043,-27.8222 24.45448,-100.1693 29.74345,-103.2563 -10.93554,30.4025 -25.65752,87.9936 -29.74345,103.2563 z"
       style="fill:#501616;stroke-width:0.317777"
       id="path169" />
    <path
       d="m 846.30282,1288.4875 c 4.05975,-26.1208 17.84442,-42.9403 4.70929,-6.8651 6.2393,-12.7243 -5.64905,13.68 -4.70929,6.8651 z"
       style="fill:#501616;stroke-width:0.317777"
       id="path171" />
    <path
       d="m 862.06538,1244.6343 c 10.23252,-50.2004 11.08494,-8.74 0,0 z"
       style="fill:#501616;stroke-width:0.317777"
       id="path173" />
    <path
       d="m 869.48382,1212.9085 c 5.7762,-29.3814 16.33882,-18.2044 0,0 z"
       style="fill:#501616;stroke-width:0.317777"
       id="path175" />
    <path
       d="m 845.14044,1226.8838 c 0.81228,-22.7849 18.07695,-52.8122 5.56815,-11.5385 l -3.86241,9.9046 z"
       style="fill:#501616;stroke-width:0.317777"
       id="path177" />
    <path
       d="m 895.81003,1061.0657 c -2.53101,-22.9637 12.51404,-60.4217 3.6844,-14.486 l -2.22827,11.2549 z"
       style="fill:#501616;stroke-width:0.317777"
       id="path179" />
    <path
       d="m 915.39511,1131.4063 c 0.39345,-35.0298 8.03886,-27.1134 0,0 z"
       style="fill:#501616;stroke-width:0.317777"
       id="path181" />
    <path
       d="m 180.26483,1095.9946 c -28.36494,-35.9096 -58.58109,-72.3462 -69.48682,-118.07126 -16.687845,-53.34502 -34.745986,-115.4761 -9.4148,-168.85909 -2.392102,44.34672 19.41256,86.57558 20.78108,133.41745 -0.90872,25.11109 37.63365,112.1763 18.85045,48.53237 -12.53682,-46.45845 -26.31441,-93.65357 -24.51929,-142.29372 9.81958,62.62763 15.12729,129.94693 49.81578,184.62855 -19.31896,-56.21655 -39.63492,-114.04661 -42.49406,-174.07226 12.49531,-54.83104 36.39018,-107.36408 57.36867,-159.74302 25.77238,-40.82442 -3.37256,52.19915 -9.79724,67.63586 1.63097,22.37928 32.46938,-58.46761 24.94513,-3.29564 -14.87278,41.93998 -74.98985,40.24265 -60.07128,97.53977 -3.92658,48.87095 45.63332,99.33647 38.69058,140.29229 -10.46592,-22.99859 -19.26937,-72.66891 -33.63017,-77.32766 17.07215,49.20958 36.87496,98.87486 44.07903,150.65166 -1.27058,2.4907 1.21165,25.3811 -5.11706,20.9647 z"
       style="fill:#501616;stroke-width:0.317777"
       id="path185" />
    <path
       d="m 211.99916,1119.3334 c -28.59608,-30.1044 17.64031,-38.679 7.63379,0.4005 l -7.63362,-0.4005 z"
       style="fill:#501616;stroke-width:0.317777"
       id="path187" />
    <path
       d="m 170.10457,1112.3345 c -16.62312,-17.097 -54.88797,-83.4511 -14.2068,-34.318 3.18344,6.5922 28.34339,32.7076 14.2068,34.318 z"
       style="fill:#501616;stroke-width:0.317777"
       id="path189" />
    <path
       d="m 252.3864,1172.5774 c -29.34823,-22.973 8.87307,-15.049 0,0 z"
       style="fill:#501616;stroke-width:0.317777"
       id="path191" />
    <path
       d="m 226.68797,1130.5092 c -6.93148,-30.5618 1.38327,-40.6467 6.0187,-4.5582 l -5.05996,5.4321 z"
       style="fill:#501616;stroke-width:0.317777"
       id="path193" />
    <path
       d="m 61.271221,765.2244 c -12.779691,-50.22441 5.893105,-65.51007 18.626956,-118.23832 12.029068,-42.27512 26.349873,-84.033 45.823933,-123.51065 27.31405,4.04988 -28.543996,59.62695 -22.02774,84.90779 -14.980015,52.07692 -35.568177,103.4928 -38.272374,158.19173 H 64.017137 L 61.27123,765.2244 Z"
       style="fill:#501616;stroke-width:0.317777"
       id="path195" />
    <path
       d="m 104.66487,766.05458 c -5.680341,-26.04369 -3.34934,-105.439 19.8796,-95.19763 0.78589,31.51261 -16.69854,67.4441 -19.8796,95.19763 z"
       style="fill:#501616;stroke-width:0.317777"
       id="path197" />
    <path
       d="m 113.08106,803.99321 c -9.21068,-28.27849 17.94903,-85.71659 6.92058,-24.29052 -3.96849,1.09321 -3.54455,29.92972 -6.92058,24.29052 z"
       style="fill:#501616;stroke-width:0.317777"
       id="path199" />
    <path
       d="m 134.0203,765.46273 c 0.4799,-26.01073 11.75854,-87.93 27.09702,-88.89672 -13.47345,24.5714 -24.23313,78.91563 -27.09702,88.89672 z"
       style="fill:#501616;stroke-width:0.317777"
       id="path201" />
    <path
       d="m 146.74349,754.81227 c 5.05845,-35.51484 32.28382,-86.59334 47.4081,-106.69167 -5.41201,38.42329 -30.63012,74.54562 -47.4081,106.69167 z"
       style="fill:#501616;stroke-width:0.317777"
       id="path203" />
    <path
       d="m 197.8828,669.56703 c 0.83416,-57.16743 37.76919,-107.49225 80.32934,-142.51129 -38.76781,40.97143 -43.60701,101.88232 -80.50632,144.03161 z"
       style="fill:#501616;stroke-width:0.317777"
       id="path205" />
    <path
       d="m 223.65639,643.2422 c 20.26512,-47.89514 35.25576,-106.32524 82.68012,-134.64648 16.89683,5.21843 -13.95175,-62.23683 10.26326,-38.92499 5.79652,38.46768 -5.17723,66.846 -36.35255,91.0136 -22.07051,24.82 -39.62809,56.14063 -56.59083,82.55787 z"
       style="fill:#501616;stroke-width:0.317777"
       id="path207" />
    <path
       d="M 58.846244,685.95622 C 70.558757,596.12982 104.17387,501.77625 177.26942,443.71779 109.17631,507.65582 92.589652,602.94208 58.846244,685.95622 Z"
       style="fill:#501616;stroke-width:0.317777"
       id="path209" />
    <path
       d="m 125.93355,523.26436 c 23.29049,-48.92334 58.51342,-96.56024 109.8005,-117.19768 -38.48758,31.10566 -75.75353,69.36913 -97.84472,115.74485 -0.99926,4.67871 -9.52134,-0.6184 -11.95578,1.45283 z"
       style="fill:#501616;stroke-width:0.317777"
       id="path211" />
    <path
       d="m 163.11347,573.48426 c 26.22856,-45.80351 55.72527,-90.95769 95.21119,-126.49881 -22.80491,47.87796 -67.03431,81.87804 -95.21119,126.49881 z"
       style="fill:#501616;stroke-width:0.317777"
       id="path213" />
    <path
       d="m 152.0165,671.7533 c 6.47352,-24.50246 87.73516,-99.82994 39.02716,-44.44228 -14.51237,12.53649 -20.75911,38.66732 -39.02716,44.44228 z"
       style="fill:#501616;stroke-width:0.317777"
       id="path215" />
    <path
       d="m 126.53309,651.70294 c -2.73751,-44.20071 15.38469,-12.13586 0,0 z"
       style="fill:#501616;stroke-width:0.317777"
       id="path217" />
    <path
       d="m 780.19736,415.73657 c -21.48699,-11.16516 -79.69612,-91.06326 -28.73411,-41.82089 5.01495,6.98136 45.94768,54.73877 28.73411,41.82089 z"
       style="fill:#501616;stroke-width:0.635554"
       id="path219" />
    <path
       d="M 912.87732,668.64946 C 897.4856,626.93347 864.349,575.48579 859.39516,538.84519 c 26.27252,37.32813 49.00762,86.2433 53.48216,129.80427 z"
       style="fill:#501616;stroke-width:0.635554"
       id="path221" />
    <path
       d="M 899.56852,734.81636 C 883.32914,691.03334 841.71972,670.48073 816.10758,632.257 776.29157,586.31379 728.14287,548.19399 674.86224,519.25779 623.88956,474.97085 551.10179,477.48042 487.60717,472.95689 c -22.46862,-0.48679 -45.11404,-2.31737 -27.16087,-6.96658 -24.10046,-2.05719 -111.98879,-7.55037 -98.11989,-10.91191 17.36324,-1.47222 90.56858,-6.09206 31.85035,-6.38047 -48.4261,3.0238 -129.28926,30.97355 -101.88936,-50.38694 36.78798,-28.28371 93.06893,-19.27281 138.2042,-30.73497 38.0662,-4.26882 113.86337,3.28659 131.29498,-3.40986 -85.77055,-9.02203 -172.40715,-0.24532 -255.85183,20.55276 -28.99466,14.06907 34.30394,-49.0627 51.15033,-40.14083 -49.58437,23.10912 16.80622,0.5471 36.75262,-7.37649 86.36624,-14.83196 179.85032,-33.60306 263.30909,3.26422 -80.49924,-9.11293 -162.59423,-14.6371 -243.1796,-5.45281 -24.85305,2.69527 -66.23931,21.21187 -17.7684,8.82576 60.42327,-14.18113 121.2529,0.20367 182.2214,1.9168 32.20002,3.50703 49.63287,9.48227 5.53969,3.65719 -53.32068,1.72465 52.52881,11.63262 73.43722,20.23888 51.2878,17.179 103.42278,39.37257 144.66621,75.14796 17.59358,14.4172 63.24868,76.98726 48.83163,66.30311 C 772.97492,435.55045 668.17474,383.84693 559.59533,374.39 c 17.95577,7.79518 96.39976,20.95682 134.29402,39.92095 54.18855,24.12189 110.50818,54.30392 145.71948,103.3857 11.14868,19.52326 30.12719,69.54153 0.40176,25.46799 -13.68609,-27.03475 -62.98819,-43.54916 -19.81465,-7.56313 40.96524,33.06144 65.29569,84.3127 63.84657,137.26427 -3.3809,13.98624 22.28619,66.8929 15.52601,61.95058 z"
       style="fill:#d400aa;stroke-width:0.635554"
       id="path225" />
    <path
       d="m 607.57823,1558.6272 c -80.94926,-23.0096 -165.74299,-12.8392 -248.71663,-13.3116 -18.51545,-0.8853 16.8618,-32.7681 29.46325,-8.3745 43.85869,-2.2271 -52.43786,-17.005 -10.72195,-48.6586 9.55604,-39.4366 18.31269,-54.6385 32.67222,-9.095 -43.92186,-20.8819 16.0476,31.7999 36.92853,20.9784 -14.12685,-9.835 -68.88092,-75.2857 -39.01575,-68.1019 18.48217,25.4505 57.96764,26.8433 15.06206,-0.4826 -26.12072,-12.9124 -37.67619,-60.0361 -5.49765,-20.3644 11.48319,19.5688 62.03088,17.9699 17.82395,1.0845 -32.01534,-7.9981 -53.68274,-82.2506 -7.75322,-35.5467 20.94173,21.9513 41.99581,18.8631 11.00924,-2.4555 -24.57287,-8.9527 -53.39159,-65.7463 -6.04208,-37.3569 48.78242,33.6787 109.62941,15.4101 162.4717,3.3281 30.77771,-11.6526 57.18236,-26.1411 40.79686,18.645 -4.59364,67.1877 20.46666,135.0325 60.75983,187.8258 -27.34113,8.4167 -59.42276,15.531 -89.24036,11.8859 z m -189.61008,-32.5037 c -7.10315,-10.2804 31.10333,-7.4412 -8.40799,-21.0611 -37.09698,-58.2212 -43.83373,37.1159 8.40799,21.0611 z"
       style="fill:#de8787;stroke-width:1.27111"
       id="path231" />
    <path
       d="m 477.71026,1343.0588 c -55.34029,-13.9465 -87.74334,-57.1405 -123.85435,-96.3737 -59.03599,-44.4123 -113.52582,-102.9815 -122.74734,-179.53 -5.74668,-60.7378 -20.67327,-122.14842 -14.64748,-183.08668 23.89923,-47.35864 -26.3924,-95.32343 -8.29887,-145.47063 -2.37558,-24.36033 65.24652,-104.87918 17.67691,-50.69157 -15.85309,10.93876 26.92195,-67.27847 40.66541,-88.48758 13.60289,-16.74103 45.2899,-66.8752 13.59687,-24.219 -32.06957,43.13613 18.05453,-49.76006 43.84559,-49.38414 71.8013,-26.34925 151.78855,-12.78374 224.76672,2.28317 115.71415,27.01642 221.21431,97.90239 283.3864,199.98124 -63.28722,-22.66913 49.0869,46.80088 -7.9332,28.64919 -24.01233,-28.57513 -61.75871,-6.9455 -60.83211,-28.74855 -9.09205,1.65249 -25.30982,26.56444 -26.83933,0.31047 -13.66541,9.35176 -25.00595,5.02215 -33.31177,13.1618 -1.19501,-17.65496 -19.36498,4.21561 -29.43115,-0.50474 -0.0824,-24.99304 -39.44773,41.80579 -26.73619,-1.32889 -17.40111,19.95936 -79.72276,69.05113 -70.64885,72.06789 -12.70072,21.98941 -36.91111,88.55236 -29.6043,133.36267 1.60663,12.35186 -6.98443,47.25963 8.68845,25.75831 6.3507,38.33604 94.63474,78.49874 33.44361,109.52484 -13.16645,-20.367 -23.03994,-85.25674 -24.71105,-26.4566 -6.51053,48.29 -69.32394,37.8689 -65.12027,-5.8007 -12.30885,28.4067 -41.01394,55.815 -37.49187,3.0177 6.76088,-38.4616 45.30195,-25.9426 46.5745,-77.59251 8.35758,-63.10863 -11.30191,-130.87417 -51.4141,-179.85723 -20.57691,-23.17849 -89.59427,-85.90134 -91.22901,-38.27241 -19.89899,1.41389 -49.52994,-6.34749 -45.23927,12.71108 -32.65984,-2.66533 -33.86629,32.31944 -60.91377,32.17869 -1.68775,7.16049 -34.71505,-10.92125 -9.00655,15.79678 10.07006,14.00742 -46.37044,-10.37607 -8.42521,13.03672 -11.68301,16.19566 21.93985,32.27968 16.11967,3.19953 28.01365,-19.2817 61.00155,-62.09183 107.91558,-60.75703 81.58103,-7.1874 133.85139,82.60656 121.99793,155.55975 19.16682,-42.63825 -11.83576,23.77875 2.20985,18.71107 -11.82128,17.33544 -15.6763,55.03046 2.80185,16.283 18.18782,-36.6079 -22.07173,60.26506 5.402,13.81775 -0.70005,41.96931 -91.98397,79.90721 -30.71302,116.76251 41.59325,-6.326 63.91991,21.9318 104.75531,-1.0321 77.40308,-1.0857 37.43958,-83.9077 -0.23164,-112.24896 -6.02037,-42.18254 -11.82546,-95.63519 0.28705,-143.73236 18.18709,-62.3234 88.83845,-73.08776 143.00309,-84.37026 44.52095,-1.57626 97.31398,12.07801 127.97466,33.01061 8.03006,53.45701 14.08254,107.28761 2.93581,160.65 -7.23613,53.50128 -36.41734,101.44807 -42.26363,156.72837 -16.66911,10.9669 -16.64037,48.5824 -33.80767,68.5838 -23.44166,28.1812 -43.88058,60.7326 -76.4253,89.1851 -48.02491,69.208 -136.10617,90.853 -216.16996,83.6136 z m 82.69339,-127.8174 c 35.3721,-10.4645 69.61083,-60.5596 102.87654,-44.5355 -13.16534,-40.7909 -16.82509,-8.9438 -37.3253,-3.9155 -51.7177,-24.0142 -109.51862,-22.0004 -160.59885,4.2379 -20.57539,18.3135 -68.62848,-4.8557 -60.57912,15.668 53.25903,-9.5524 101.40274,46.7683 155.62673,28.5451 z m -55.73592,-76.889 c 9.95005,-22.8401 0.76771,-49.8527 -1.23494,-8.2848 -1.03015,3.858 -11.5796,22.5403 1.23494,8.2848 z m 60.34076,-8.7737 c -4.72025,-54.5607 -23.75091,-14.1257 0,0 z m -62.69971,-105.0503 c 3.16124,-37.19789 -7.67505,24.1282 0,0 z M 365.86273,963.73688 c -9.58496,-67.56569 107.75331,-74.92182 67.27717,-146.97594 -41.66437,-27.03877 -88.11658,22.1954 -136.01922,16.98486 -69.82754,26.94118 -9.94532,91.56293 32.84424,109.38481 20.18834,3.71971 36.40819,67.79629 35.89781,20.60627 z M 680.9253,946.42824 c 8.75598,-61.13695 87.54239,-52.26761 101.3806,-104.14629 6.12451,-57.64341 -53.44034,-51.79046 -81.99538,-35.84693 -39.45594,-40.27127 -124.53795,2.63991 -70.40025,51.73703 28.51199,23.10906 43.09507,77.24045 42.24306,98.58116 l 4.28828,-3.98729 z m 80.65026,-182.72363 c -0.7402,-14.80179 -67.36511,-6.60119 -12.39725,0.53588 l 6.90474,0.64085 z"
       style="fill:#de8787;stroke-width:1.27111"
       id="path233" />
    <path
       d="m 191.97159,1064.9889 c -9.24455,-56.4793 -3.85847,-118.38925 -40.33576,-168.75358 -4.96389,-29.38192 -13.69111,-106.19159 36.0257,-87.75095 5.71812,33.92182 -36.61117,66.51056 -9.56883,107.76242 29.13928,39.5563 31.61763,89.55361 16.35224,129.75131 4.0667,7.569 21.53769,34.0206 -2.47335,18.9908 z"
       style="fill:#de8787;stroke-width:1.27111"
       id="path235" />
    <path
       d="m 185.19911,916.86859 c -0.42529,-21.03434 -7.38733,-110.73202 12.29742,-48.87063 -1.98581,16.11939 -3.02312,35.48923 -12.29742,48.87063 z"
       style="fill:#de8787;stroke-width:0.89881"
       id="path239" />
    <path
       d="m 857.5451,711.57579 c -9.97724,-36.78765 -56.93124,-49.89934 -69.01336,-81.07966 30.66653,6.86576 77.94792,57.78141 69.01336,81.07966 z"
       style="fill:#501616;fill-opacity:1;stroke-width:0.449405"
       id="path241" />
    <path
       d="m 850.53877,736.61011 c -16.37088,-21.23189 -28.98677,-83.31327 -3.24867,-27.31 -0.40221,3.16386 15.94233,31.60112 3.24867,27.31 z"
       style="fill:#501616;fill-opacity:1;stroke-width:0.449405"
       id="path243" />
    <path
       d="m 832.42741,718.60665 c -12.35328,-23.71047 -38.22607,-68.84403 -5.3625,-24.1792 3.30332,1.96243 13.52087,32.4148 5.3625,24.1792 z"
       style="fill:#501616;fill-opacity:1;stroke-width:0.449405"
       id="path245" />
    <path
       d="m 908.44306,684.30876 c -14.44839,-22.3125 -45.63292,-113.72323 -14.9737,-45.11934 4.97302,12.74912 16.84185,36.37766 14.9737,45.11934 z"
       style="fill:#501616;fill-opacity:1;stroke-width:0.449405"
       id="path247" />
    <path
       d="m 783.55711,610.18349 c -20.1596,-18.99136 -72.68722,-65.20699 -23.47416,-25.63743 4.23762,2.20605 35.70219,34.15458 23.47416,25.63743 z"
       style="fill:#501616;fill-opacity:1;stroke-width:0.449405"
       id="path249" />
    <path
       d="m 733.91823,389.89812 c -25.35931,-11.32815 -99.36509,-45.94442 -30.67199,-21.8091 5.38533,-0.26759 48.34991,25.50001 30.67199,21.8091 z"
       style="fill:#501616;fill-opacity:1;stroke-width:0.449405"
       id="path251" />
    <path
       id="path253"
       d=""
       style="fill:#501616;fill-opacity:1;stroke-width:0.449405" />
    <path
       d="m 821.8006,430.2886 c -18.24513,-9.64047 -53.28416,-51.79876 -15.07773,-17.29829 -1.28529,0.60705 31.69852,27.37342 15.07773,17.29829 z"
       style="fill:#501616;fill-opacity:1;stroke-width:0.449405"
       id="path255" />
    <path
       d="m 677.1704,943.39442 c -7.36054,-47.52124 -30.59539,-85.7008 -62.98017,-116.50744 13.0591,-54.40448 76.78195,-17.5763 95.20117,-13.97291 54.63174,-55.75913 103.52637,56.83567 27.7446,68.34565 -28.26411,8.11846 -55.9412,35.4868 -59.9656,62.1347 z"
       style="fill:#ff0000;fill-opacity:1;stroke-width:0.449405"
       id="path257" />
    <path
       d="m 356.10183,956.63433 c -24.2223,-35.58589 -113.7553,-47.46803 -77.4025,-102.4968 17.98869,-40.09841 68.91948,-11.46574 84.74028,-20.44438 28.41433,-60.53794 110.5853,6.51982 54.32005,44.54252 -26.861,19.30145 -57.18565,53.24794 -61.65783,78.39866 z"
       style="fill:#ff0000;fill-opacity:1;stroke-width:0.449405"
       id="path259" />
    <path
       d="m 528.35565,1212.5697 c -22.82928,-1.124 -107.09919,-33.1586 -42.14857,-31.1238 36.94385,5.1632 112.80569,-13.8077 127.07938,-1.6082 -23.40554,20.3654 -52.70217,37.4456 -84.93081,32.732 z"
       style="fill:#c83737;fill-opacity:1;stroke-width:0.449405"
       id="path261" />
    <path
       d="m 471.18543,1176.8198 c 31.01676,-23.9326 95.06377,-35.4627 125.78944,-7.4109 -39.6495,10.8246 -84.56819,6.0019 -125.78944,7.4109 z"
       style="fill:#c83737;fill-opacity:1;stroke-width:0.449405"
       id="path263" />
    <path
       id="path338"
       d="m 207.38914,1295.5693 c -16.19118,-5.5986 -26.91945,-19.8926 -33.01853,-43.9926 -4.56581,-18.0415 -5.71627,-31.7982 -5.72013,-68.399 -0.003,-32.8476 0.0943,-34.1868 2.96866,-40.6754 3.27285,-7.3882 6.61592,-10.9765 8.48494,-9.1075 1.69463,1.6946 3.4429,16.1775 4.4323,36.7178 0.97545,20.2507 4.62717,41.5574 8.55435,49.9122 4.72672,10.0556 12.75801,11.0978 21.11571,2.7401 8.28987,-8.2898 15.28259,-25.3053 17.4382,-42.4325 0.93199,-7.405 1.90537,-6.3093 4.99586,5.6235 7.11011,27.4531 3.61234,64.1389 -8.6446,90.6674 -4.54354,9.8339 -11.73652,21.2685 -13.33238,21.1943 -0.49074,-0.023 -3.76422,-1.0346 -7.27438,-2.2483 z"
       style="fill:#00ff00;fill-opacity:1;stroke-width:1.27111" />
  </g>
</svg>
