<?xml version="1.0" encoding="UTF-8" standalone="no"?>
<svg
   xmlns:dc="http://purl.org/dc/elements/1.1/"
   xmlns:cc="http://creativecommons.org/ns#"
   xmlns:rdf="http://www.w3.org/1999/02/22-rdf-syntax-ns#"
   xmlns:svg="http://www.w3.org/2000/svg"
   xmlns="http://www.w3.org/2000/svg"
   xmlns:sodipodi="http://sodipodi.sourceforge.net/DTD/sodipodi-0.dtd"
   xmlns:inkscape="http://www.inkscape.org/namespaces/inkscape"
   inkscape:version="1.0 (4035a4fb49, 2020-05-01)"
   sodipodi:docname="lover1.svg"
   viewBox="0 0 1440 2416"
   height="2416"
   width="1440"
   id="svg111"
   version="1.1">
  <metadata
     id="metadata117">
    <rdf:RDF>
      <cc:Work
         rdf:about="">
        <dc:format>image/svg+xml</dc:format>
        <dc:type
           rdf:resource="http://purl.org/dc/dcmitype/StillImage" />
        <dc:title></dc:title>
      </cc:Work>
    </rdf:RDF>
  </metadata>
  <defs
     id="defs115" />
  <sodipodi:namedview
     inkscape:current-layer="g119"
     inkscape:window-maximized="1"
     inkscape:window-y="-11"
     inkscape:window-x="-11"
     inkscape:cy="567.43843"
     inkscape:cx="761.62601"
     inkscape:zoom="0.41721854"
     showgrid="false"
     id="namedview113"
     inkscape:window-height="1826"
     inkscape:window-width="1080"
     inkscape:pageshadow="2"
     inkscape:pageopacity="0"
     guidetolerance="10"
     gridtolerance="10"
     objecttolerance="10"
     borderopacity="1"
     bordercolor="#666666"
     pagecolor="#ffffff" />
  <g
     id="g119"
     inkscape:label="Image"
     inkscape:groupmode="layer">
    <path
       d="m 792.50793,1975.4286 c 50.94228,-65.6136 -87.0599,-54.9552 -123.95299,-54.7848 -68.9232,-4.224 -136.40036,-5.6512 -204.28964,3.5925 -72.19132,1.0255 59.79831,-53.2082 60.75184,-104.0247 -21.49163,15.5704 -48.3061,51.6921 -14.25968,7.8688 25.19279,-65.0639 45.51616,-168.0755 6.01368,-222.5868 -54.03116,-27.1706 -117.83904,-80.1645 -166.75223,-128.5431 -60.041,-64.8904 -41.63394,-158.1048 -53.38122,-238.3006 -21.67646,-14.1393 -68.73359,-13.0256 -61.68234,-63.7957 13.3925,-79.0661 23.92862,-160.9055 -8.31598,-237.68835 -31.80743,-65.23201 11.58624,-122.99585 12.10727,-188.718 27.44108,-77.80218 18.11362,-179.68969 95.96132,-230.31861 59.82406,-60.0948 110.99722,-131.39596 186.85901,-171.29503 80.18493,-12.31999 162.98519,-15.17164 244.35562,-13.34627 74.99464,11.66647 163.01988,28.73477 217.50064,81.01196 63.86127,37.38245 102.40737,92.90981 149.57537,144.7249 49.4857,47.52997 42.8011,111.09869 71.2746,166.36254 4.5155,27.01992 -35.9526,121.89733 -1.5585,53.47478 10.8999,-11.37081 27.9103,81.04899 21.3484,111.61385 -18.0512,71.98242 -39.347,145.54813 -26.0057,221.11353 14.5152,57.0272 14.3972,128.2163 -50.2207,148.1751 98.8331,110.3475 18.7913,46.344 -14.9694,12.4144 -1.3813,59.7278 -16.6492,122.8841 -55.5543,183.5952 -20.1924,49.0768 -134.67994,103.8898 -52.4193,152.0663 45.6607,60.3842 121.5596,74.4578 162.9842,134.0051 25.2757,48.2953 101.6239,69.3287 109.363,119.8252 -36.246,23.6423 -104.1902,-58.885 -107.5459,-33.9482 18.7126,29.6806 132.5769,86.7905 54.0283,100.9597 -75.449,2.895 -121.8163,-106.5792 -160.4769,-120.3002 17.7887,39.2829 140.3336,115.9164 63.2308,140.0678 -87.247,-6.7112 -78.665,-118.1284 -120.9111,-166.6433 -2.5256,44.8648 34.1919,126.6062 21.7112,146.226 -64.32937,-60.7628 -63.93832,-157.3101 -86.51952,-237.2976 -6.01615,-45.9271 -97.30077,-112.5927 -78.23385,-22.8668 0.97797,81.3222 18.70012,166.5301 70.05812,231.8552 81.79575,57.2697 -57.31721,17.8593 -91.50237,37.9278 -32.5683,3.8542 -60.27088,-2.1298 -68.57175,37.5774 z m 376.56467,-37.6984 c -10.4953,-56.4582 -130.8623,-114.5077 -89.9215,-156.3827 55.5729,47.6178 91.7457,128.3851 170.6304,141.3493 52.8775,-15.7711 -55.6309,-58.9131 -66.5621,-84.4363 -31.5928,-23.4202 -55.1405,-86.4273 -0,-40.0956 21.0744,15.5352 104.1336,74.8774 98.421,44.0225 -72.0655,-33.6133 -98.6686,-121.068 -167.3344,-150.2393 -50.7258,-21.5026 -33.0458,-8.0933 -9.8987,25.291 36.0867,75.9702 -42.1624,-48.6017 -68.443,-61.629 -89.44499,-37.4001 22.5968,49.9961 17.3397,61.0124 -43.7369,4.2497 -60.20759,-118.2991 -95.64143,-65.1958 31.3749,69.1897 21.62106,150.5795 62.26213,216.9459 26.6903,16.7227 -7.0385,-80.5831 -6.8721,-106.2366 15.7187,-66.8461 46.2023,71.4557 57.8197,94.9078 12.7731,45.2912 46.5297,87.5333 98.205,80.6864 z m -304.16628,-4.1462 c 34.4139,-19.2503 125.41383,2.8235 65.20139,-45.9354 -53.66479,-76.4545 -64.40279,-172.5061 -58.89289,-263.2692 -17.91524,-5.7875 -58.74426,76.106 -95.59081,44.8658 -5.87466,60.066 -72.09453,70.7106 -102.21688,33.9519 -27.06557,9.4796 -129.11315,-116.1255 -125.69442,-36.3012 11.04311,47.0661 55.4793,75.1399 70.50441,86.437 -33.85713,4.3476 -96.15985,-90.2289 -60.44839,-12.1158 11.05471,26.3636 89.71193,74.337 24.22483,36.7926 -24.28794,-29.4692 -52.13116,-50.1115 -27.90751,4.3703 8.6256,25.5037 99.39969,92.731 30.34133,56.5741 -40.65831,13.6503 -52.28606,-53.2821 -11.269,-7.8449 -7.717,-37.378 -47.99962,-63.9093 -41.63178,-8.8639 -15.03734,34.3148 -116.24751,107.7812 -21.15294,91.6508 71.46231,-12.0976 141.13247,1.3479 212.54604,-1.3874 48.17299,3.4724 100.36605,14.0752 141.98662,21.0753 z m -324.39839,-33.106 c -37.56235,4.9671 -55.21518,-48.1762 -11.83253,-13.3163 14.11652,0.7284 48.87643,15.4983 11.83253,13.3163 z m 19.87819,-13.0576 c -42.03221,4.3596 -42.22968,-84.6452 -16.16976,-19.7719 11.8877,7.4839 52.00134,21.028 16.16976,19.7719 z m 16.58015,-9.412 c -40.47542,1.0658 -56.47247,-79.9722 -17.9023,-21.7405 7.63872,7.2538 52.78619,21.3768 17.9023,21.7405 z m 35.2267,-174.4218 c -34.13272,-10.6672 -38.11421,-44.2419 -2.67069,-13.4868 24.0889,-0.2457 34.00429,35.0202 2.67069,13.4868 z m 122.82896,12.1596 c 34.09911,6.9884 36.15414,-92.9444 60.21795,-36.3493 59.38592,-50.8871 97.89964,-78.5866 158.16345,-114.9565 28.6589,-5.3868 -69.90276,27.8922 -29.96364,65.1689 47.73837,40.2142 81.52951,-43.1065 61.94817,-81.0477 28.95874,-18.665 67.60814,-53.4594 77.74874,-78.1887 -22.8376,27.5714 -104.84549,93.5199 -39.0017,27.1797 46.6967,-47.645 -47.93026,35.796 -0.9917,-7.1675 28.3699,-22.3601 56.3683,-56.6601 6.2279,-13.6672 -52.40529,33.2381 60.3513,-77.3634 57.2247,-55.9237 19.6243,-15.1123 43.3462,-109.4306 19.9404,-51.7289 -0.1461,-46.1798 32.9192,-80.4799 7.867,-91.0209 0.5708,-64.9447 9.102,-135.2589 21.6276,-188.0481 13.2808,-50.193 29.7561,-69.7661 21.8642,-132.6137 3.8688,-62.81713 -18.4836,87.307 -15.9318,71.3854 -2.0191,34.3398 -30.1616,86.4693 -14.2314,21.4306 24.6623,-73.56515 20.8005,-149.97499 31.8855,-225.11807 16.3416,-70.74494 -28.0458,-129.62451 -58.551,-183.40662 C 1037.1828,591.85988 1003.1393,528.48493 920.68322,505.37377 896.60204,442.11315 818.06146,437.42269 760.5588,411.17288 643.2942,376.65397 515.76512,430.67109 427.77113,508.61231 377.95906,564.311 333.07769,624.48088 297.97407,690.79683 c -38.6746,37.53202 8.92408,85.42107 -26.91701,118.69477 -11.03808,68.07828 23.10331,41.74647 43.15235,0.79843 57.39913,-11.64439 110.05192,-96.12241 163.97174,-35.56886 42.24565,50.68096 67.36948,117.76327 132.95891,145.19053 18.18502,21.61183 100.71191,38.07255 45.06545,52.68288 26.48109,11.68404 70.49326,82.90812 20.93078,47.99172 16.99885,22.769 61.88681,77.5006 4.63697,35.5273 12.4422,16.2386 61.57636,81.24 10.094,43.0679 72.403,70.9012 -71.20126,31.3791 -59.56231,113.1609 3.76638,65.0931 63.70051,19.9815 42.68357,-11.5796 2.67548,81.5416 85.55545,48.8653 91.22532,-12.0323 -35.39618,46.3359 16.05215,85.1239 38.75645,27.7188 -4.21469,-57.8139 -91.96829,-85.5644 -58.67587,-155.2014 -0.31704,-122.64281 63.05421,-253.02272 183.08063,-297.938 56.74646,-20.26886 135.45855,-33.46963 174.97145,5.94975 18.7305,23.99692 24.0655,84.99 6.9814,34.28469 -7.3569,-38.48478 -38.9988,-52.17012 -65.7667,-49.16332 -3.7274,-16.63767 -142.75772,18.4316 -109.21817,7.14248 -33.57648,15.02143 -122.50471,65.23729 -100.25346,90.393 74.35842,-29.15973 122.63835,-12.13945 202.72723,-25.22092 29.1267,13.45435 141.8846,7.10673 51.4,16.55237 -57.1846,-17.69099 -123.20673,-1.95693 -176.05421,0.39172 4.20914,-27.07644 -94.57283,33.90203 -80.66738,9.6168 -56.63447,30.11318 -50.51797,116.15988 -72.75384,172.54633 -24.79336,75.4484 38.20429,132.5288 60.71313,193.2181 -39.02377,66.0844 -134.66376,36.9629 -193.34393,28.1591 -37.60255,-62.0736 84.92877,-107.8999 39.60009,-182.2469 C 662.03453,995.39363 612.6196,941.86828 555.98229,907.79618 528.89493,852.06664 451.55355,851.56527 396.69261,849.21166 c -33.58396,-22.97696 -155.40164,59.35877 -80.05473,9.74787 62.55725,-25.0568 141.47989,-18.41499 205.39436,6.10551 37.27537,23.96643 -53.11457,-90.28891 -39.60874,-73.77044 -33.45431,-53.36546 -72.45632,-32.6564 -109.88938,0.68415 -75.52635,10.50225 -118.69547,96.31954 -68.71206,161.29296 8.07176,61.86129 73.99038,104.01759 89.55537,151.52449 -57.09889,-17.1905 -77.22693,-117.31095 -101.85076,-132.37923 10.01607,29.22733 40.20166,89.02263 35.35799,99.21563 -29.44086,-46.3184 -14.15232,-14.811 -8.8623,17.0541 -32.79575,-60.5633 -2.48028,51.856 -10.90118,80.3282 5.55169,94.1458 -4.34077,192.6204 35.19041,281.4787 35.11911,18.4849 110.38008,126.644 107.33806,26.9033 13.54127,-43.8145 16.58583,-92.978 58.02546,-125.3343 23.88421,-35.9877 88.81999,-77.0061 112.25936,-41.6193 38.68399,8.2136 100.30084,31.1028 135.11478,-8.0134 28.76024,-39.6944 143.69692,-39.2089 134.86145,-39.9997 54.13613,-10.0222 78.72379,77.5862 98.03797,121.9233 17.97993,52.0505 -14.02631,122.4859 -20.40726,161.7763 2.91431,-67.7367 7.49155,-140.2434 -34.33181,-198.5988 0.7925,29.6278 -25.7809,-67.2526 -53.61893,-54.9873 15.23332,-11.6712 61.24444,36.5842 24.7849,-11.4098 -57.77687,-31.3733 -131.80736,7.2913 -180.55661,47.4855 -59.43151,32.0981 -122.164,-61.5537 -178.74654,-4.454 -62.66098,43.2351 -87.75167,115.9691 -81.83789,189.8505 2.70022,73.8714 72.69005,81.7042 115.77904,127.5656 54.35601,23.5297 98.69937,79.204 156.00836,74.1647 z m -75.37489,-44.1592 c 5.91631,-31.2417 50.56005,15.4952 44.55503,-34.6204 53.98973,-23.8491 41.25587,15.3387 -3.1805,4.6366 0.48064,39.559 -31.29714,29.8879 -41.37453,29.9838 z m 127.52756,-25.1461 c 12.63419,-14.9089 45.14059,-29.2148 11.14077,-5.5403 z m -36,-14.9415 c 33.59293,-16.4132 24.09277,-69.5487 56.70385,-45.4722 16.04298,-28.5791 42.05222,-9.2752 9.02424,-1.5092 -15.25153,38.9644 -34.3262,-28.9611 -33.36544,19.4786 -5.55568,13.31 -17.28663,25.9245 -32.36265,27.5028 z m -138.42965,-11.676 c -47.83209,-28.6056 -19.64956,-104.7482 -67.40758,-130.6842 31.9095,32.8138 -13.61545,138.4018 -28.13661,49.6944 -0.48028,21.3464 41.50454,45.8925 31.05651,-4.0878 -17.67129,-35.7658 -5.89334,-88.1051 23.98826,-31.8405 7.13785,38.3263 30.02177,106.8911 40.49942,116.9181 z m 35.19044,-15.6906 c -12.74862,-19.0749 -33.26729,18.4178 -9.51793,-16.1478 37.48265,53.8813 24.93594,-55.9431 63.13991,0.3804 10.18843,-12.0434 36.6227,-40.9526 43.26488,4.3343 -19.16478,-26.9303 -24.00304,-7.2506 -50.54013,3.8735 -29.99779,-62.4412 -18.11252,48.4691 -46.34673,7.5596 z m 173.38186,-54.845 c 35.48493,-52.5197 70.87053,-16.8984 73.46106,-15.9296 44.61354,-38.3879 41.86838,-129.6188 -4.41758,-171.6141 -31.75123,-44.3825 -93.63923,44.1076 -61.52249,-21.8035 21.05037,-11.1768 106.59717,1.9156 36.76947,4.7542 -41.3989,-14.3534 95.09656,24.8145 64.92343,85.3688 9.56724,55.9094 -7.20431,110.0313 -65.74739,116.2994 -1.03739,-34.2608 -34.66511,-13.7045 -43.4665,2.9248 z m -117.49182,-2.8761 c -30.21769,-33.4352 -92.64569,12.4792 -98.01441,-54.4324 -28.98424,-17.6947 -126.36316,-55.5845 -61.64929,-88.9999 67.74886,26.6603 144.8953,14.7618 209.03245,4.2799 52.03354,12.6943 107.78774,-44.8873 146.32509,8.7223 -12.57863,64.5315 -101.5598,72.3268 -137.20648,123.7477 -20.64824,-1.3269 -37.83413,6.1038 -58.48736,6.6824 z m 15.90909,-9.0675 c 65.78632,-2.293 105.47124,-57.4837 162.60637,-86.3543 46.37948,-71.0268 -60.86654,-47.3929 -91.805,-40.896 -67.36832,7.3853 -139.27679,19.1892 -203.13106,15.6968 -38.24024,-50.1335 -87.6514,9.7512 -28.78722,33.2864 59.54038,5.8741 61.1417,100.133 128.91598,63.3271 8.95162,3.4124 21.87815,32.766 32.20093,14.94 z m -61.89325,-60.6288 c -34.60668,-15.7419 -103.78529,-21.6013 -108,-63.405 53.63967,54.3613 178.57639,11.3471 211.5504,28.6652 -66.96514,15.8577 -102.05993,-12.4015 -149.99272,13.0873 61.6581,21.9239 145.62974,33.9959 201.70906,-7.7424 -43.21245,27.642 -204.75692,11.3104 -179.52583,4.3549 60.50977,5.8575 123.78698,12.6049 182.25917,-8.5657 -97.49786,-2.2847 95.38938,-17.507 52.78797,-25.6588 29.93609,27.8057 -43.35085,0.5651 -53.21404,34.6178 -42.21949,42.3594 -104.56159,20.9203 -157.57401,24.6467 z m 330.66666,65.4732 c 9.09923,-11.5832 9.75505,-0.3742 0,0 z m -470.44356,-17.125 c 12.90309,-44.1035 -67.34432,-33.4785 -11.8191,-50.905 16.59012,7.156 19.70539,46.2331 11.8191,50.905 z m 490.88343,-41.1518 c 19.5764,-15.7225 -14.40597,15.8704 0,0 z m -517.00993,-47.5149 c -43.41948,-40.6137 87.32803,-106.4924 20.96367,-55.415 -33.97785,4.7181 -7.95584,62.6115 -20.96367,55.415 z m 164.84394,-45.3367 c -27.14078,-8.6532 -82.02219,-85.9422 -29.79885,-26.6382 19.60225,15.5919 23.8429,-5.9624 34.5047,17.3063 12.2844,-32.5801 28.21969,-24.8079 43.00435,-7.6879 20.38723,-42.7189 54.07301,-2.1349 64.39018,-45.5855 26.50911,4.4147 39.58572,-53.0339 64.57296,-10.7389 -41.90713,-25.8604 -63.38682,57.2293 -115.02632,42.7272 -24.0622,54.6733 -38.93211,-29.0342 -61.64702,30.617 z m -58.54994,-8.4992 c -8.94045,-41.0869 -24.70031,-35.8802 -37.99524,-18.9593 -2.75974,-45.3819 64.95559,12.6839 37.99524,18.9593 z m -184.49646,-19.6445 c 12.99534,-10.5026 -7.60713,10.0346 0,0 z m -7.25517,-4.0752 c 17.76684,-31.0161 -58.98511,-71.4269 2.47085,-48.7616 30.93315,-46.8635 -15.74138,26.2597 3.97627,46.273 z m 592.69436,-49.6917 c 32.3989,-24.3736 -46.61862,-36.664 9.5738,-31.8122 8.5334,9.4392 2.1825,27.9654 -9.5738,31.8122 z M 450.54404,1126.228 c -20.54158,-66.2824 -149.92092,-84.2202 -110.24973,-168.64765 46.39299,-36.49772 102.74389,24.1533 137.27414,-33.53714 98.58298,-16.2202 87.92199,113.37629 5.86,129.34879 -26.95377,14.0153 -40.48137,58.8899 -32.88441,72.836 z m -4.40589,-42.5167 c 41.98037,-37.1882 153.97136,-102.87238 59.86627,-151.54852 -52.42159,-15.01882 -67.90469,66.54472 -110.64978,18.93562 -94.92649,-10.08345 -42.97891,91.3997 12.35236,110.7233 11.89762,8.5853 23.81597,18.4564 38.43115,21.8896 z m 487.75941,6.0189 c -15.27574,-68.8925 -169.66024,-52.7368 -113.80547,-147.82406 39.3778,-63.37169 115.06323,-5.39111 153.38602,-57.55442 97.95189,-22.35445 104.48969,112.98008 19.66667,134.76138 -28.43189,14.2266 -52.54422,50.6374 -59.24722,70.6171 z m 8.85731,-25.1069 c 24.29558,-58.7144 154.84713,-78.44705 86.08673,-161.60949 -54.35288,-47.45741 -97.51524,57.1913 -138.12113,7.43846 -87.39687,-6.15297 -93.71593,125.10493 -1.23078,120.04933 18.77222,9.7758 34.65057,24.1257 53.26518,34.1217 z m 121.70963,597.1069 c -11.5634,-11.9128 -9.0657,-0.3765 0,0 z m -13.6514,-11.3294 c 5.2594,-52.1028 -107.4667,-34.4223 -40.6751,-19.0251 15.2513,2.5575 26.0192,15.0269 40.6751,19.0251 z m -144.79554,-51.8162 c -15.06301,-9.3949 2.68521,19.1132 0,0 z m -437.44851,-41.7402 c -13.82019,-22.96 -1.20192,10.6629 0,0 z m -39.96065,-24.6772 c -21.53259,-15.8694 9.74373,15.2844 0,0 z m 577.2329,-12.1975 -5.3544,2.847 z m -596.00003,1.4184 c -34.05319,-26.521 -34.80363,-18.4727 0,0 z m 41.67512,-12.1612 c 1.30429,-48.4185 -8.76616,38.3748 0,0 z m 575.99581,-9.1633 -8.1796,8.5321 z m -636.36143,-4.0947 c -28.62835,-26.737 -4.1631,1.007 9.91154,12.583 z m 688.22873,-52.572 c 27.4409,-41.9839 19.7251,-42.1782 -3.5168,-1.2918 -26.9076,35.4259 -50.2297,62.8222 3.5168,1.2918 z m -98.46613,17.5996 c 30.09383,-51.0696 -28.63205,-148.4949 -54.20912,-152.627 31.15413,50.552 46.59992,108.1526 51.55088,167.0721 z m -657.09196,-47.7299 c -4.55374,-28.3508 -17.30926,-70.0899 -8.65618,-16.7093 -3.0938,8.7387 22.38336,55.5746 8.65618,16.7093 z M 927.1746,1290.138 c -6.84673,-24.5524 -9.42333,5.3266 0,0 z m -11.19501,-16.6207 c -0.40649,-27.5165 -13.2254,3.5191 0,0 z M 784.4934,1249.4144 c -2.91246,-5.3132 -10.23358,9.3881 0,0 z m 376.0145,-4.085 c 10.9152,-7.999 -16.4175,6.7308 0,0 z m -362.49655,-5.5992 c 4.21676,-6.1135 -9.45147,8.542 0,0 z m 381.79705,-4.0312 c 52.9903,-72.2607 -35.8261,15.3468 0,0 z m -9.6663,-2.3245 c 42.5259,-55.1808 3.2473,-131.3245 16.1591,-195.8714 -3.781,-74.41525 55.8317,-145.63227 21.3676,-218.55002 -44.4121,-24.62237 -55.6623,93.738 -11.2652,55.25281 23.1963,79.21817 -42.4279,150.03701 -45.7553,228.39311 -2.1861,35.9008 -6.7995,118.458 19.4938,130.7755 z m -886.76242,-2.3109 c 32.51437,-25.337 -36.16807,8.4354 0,0 z m 911.53742,-7.0354 -2.0089,3.1415 z m -926.40917,1.5114 c -4.47762,-4.9362 -5.18585,3.0138 0,0 z m 14.16664,-4.5056 c 28.03014,-83.8745 -11.39419,-167.6777 -26.67788,-251.03297 -25.96883,-40.36832 40.08369,-137.85459 -23.65661,-141.98626 -29.77981,84.56161 45.76395,170.9342 23.03386,258.68323 -6.37135,41.0159 -33.28084,122.1586 27.30063,134.336 z m 371.17082,-53.9704 c 3.00167,-9.5355 -10.82126,17.779 0,0 z M 280.60816,992.57246 c -0.0587,-34.43256 -28.49247,-135.38013 -20.23396,-45.44587 1.71074,14.76904 31.6356,113.82021 20.23396,45.44587 z m 894.54974,-6.8423 c 14.0658,-21.72945 35.4033,-131.20436 -0.9646,-93.2206 -1.9536,27.53271 -10.9889,78.34985 0.9646,93.2206 z m 1.3021,-171.9344 c -0.5678,-40.99373 -12.7633,33.38918 0,0 z m -931.32205,-0.5953 c 29.38186,-30.93911 -15.0024,-26.81194 0,0 z m 0.95173,-27.8036 c 10.71984,-50.29098 -8.87374,-33.71634 -8.20197,8.68025 l 1.49512,0.73221 z m 940.10872,-1.6667 c 2.7257,-59.56093 -22.7135,-121.7895 -55.4078,-170.43229 -40.2022,-36.39098 -43.451,-94.36626 -88.3737,-113.06025 -7.3149,-56.39368 -72.59408,-12.00526 -96.87289,-61.70861 -46.40233,-2.51802 -97.31929,-33.87989 -119.06385,-64.24537 -64.77609,-50.32355 -150.23587,-41.17718 -228.39864,-29.26621 -71.74371,-7.62133 -139.27436,28.81452 -166.65065,97.21458 -19.50294,40.1743 52.07414,-38.77624 75.05106,-46.2821 62.19009,-25.46306 130.65209,-55.08743 199.58043,-37.1007 56.42621,9.04246 28.38822,20.39853 -11.38494,5.60267 -65.70862,-27.2008 -123.55866,23.5059 -187.37371,32.89138 -36.15614,25.11371 -84.52508,54.83542 -100.15524,93.7287 36.03573,-5.89597 105.97416,-98.5525 44.11872,-27.45433 -55.46068,47.57101 -121.4361,89.40503 -146.0823,162.15338 -18.56844,26.255 -42.60322,120.92496 -5.17742,50.45717 45.91588,-63.00957 83.73159,-134.56505 142.45838,-186.42081 44.79081,-39.18891 50.32085,-35.25874 117.0669,-67.87202 57.08918,-25.23224 119.80689,-32.52724 181.733,-23.61339 83.24298,20.76457 160.53758,55.24471 214.66119,119.69129 67.30166,15.74413 95.61526,83.74483 154.16436,121.95795 35.7945,44.74918 38.7853,102.51506 76.1071,143.75896 z M 294.47684,677.63136 c 3.64749,-28.36802 48.10286,-95.40277 14.91176,-29.0578 -2.24382,6.17517 -7.08795,32.99141 -14.91176,29.0578 z m 36.05424,-88.9387 c 22.21937,-26.9655 40.10247,-25.7058 0,0 z m 31.31019,-39.2014 c 30.99908,-26.03813 48.96119,-27.80337 0,0 z m 48.66814,-46.0961 c 29.94392,-25.22195 31.75234,-11.27141 0,0 z m -135.82948,256.5631 c -9.14324,-29.2134 1.73306,40.19697 0,0 z m 922.56927,-18.6272 c 23.3283,-38.36637 -47.5698,-78.87691 -14.537,-19.68978 4.7217,4.82784 13.4029,56.60073 14.537,19.68978 z m -942.88009,-10.0332 c 4.27266,-41.82502 -8.45594,17.31965 0,0 z m 20.68072,-14.5677 c -9.48981,12.11466 -0.94443,20.45894 0,0 z m -8.4119,7.3333 c 21.32471,-26.08257 8.98805,-80.5545 -3.7261,-22.90579 -4.07388,4.91534 -2.87222,48.69693 3.7261,22.90579 z m 1.1441,-48.7376 c 13.80062,-29.6665 -2.43713,-59.03656 -2.48998,-11.72716 -0.30396,7.37689 -11.21407,42.33645 2.48998,11.72716 z m 12.73089,-25.0077 c 21.66829,-63.77156 107.49584,-137.58711 123.22812,-171.99073 -50.27484,30.0574 -98.78466,72.97379 -122.13586,124.45219 -2.51523,15.59121 -4.60641,31.92684 -1.09226,47.53854 z m 884.74898,-20.588 c 28.623,-45.75518 -115.3496,-114.97459 -46.9563,-51.16061 13.8946,4.66651 37.7974,96.23934 46.9563,51.16061 z m -873.57051,5.81 c -8.67242,3.62238 -1.00228,10.98957 0,0 z m 14.18962,-13.5509 c 2.43286,-9.34998 -8.37348,14.16504 0,0 z m 24.45423,-51.5727 c 17.60831,-26.06309 -23.99394,27.98524 0,0 z m -28.73925,-5.0506 c 45.25273,-43.87936 -38.21973,38.09801 -1.43094,0.99293 z m 71.84281,-37.7205 c 30.70419,-42.61074 -36.67775,44.68967 0,0 z m -28.211,-6.3164 c 35.41885,-27.11614 108.84644,-94.48503 98.34742,-113.91872 -26.00058,33.12949 -105.15089,97.1987 -98.34742,113.91872 z m 735.98,-17.3603 c -26.1366,-61.04454 -56.2745,11.71665 1.7353,5.63059 z m -82.69987,-35.2386 c 56.61047,-25.72049 -44.36512,-95.03875 -83.69849,-87.22705 -24.23321,-8.81157 -116.46699,-52.69683 -101.3522,-20.27111 56.46846,11.29969 43.95848,63.13744 106.02105,64.32329 36.34756,8.38372 57.09093,21.70802 72.03305,46.44167 z m -479.0435,-28.3134 c -15.22067,-2.66414 5.28925,5.56462 0,0 z m 28.7344,-10.0926 c -8.10296,-6.9386 -6.31355,12.82247 0,0 z m -82.25032,-45.336 c -9.65603,-1.50113 -3.64598,7.10848 0,0 z m -140.10724,1383.12234 4.586,-2.5416 z m 970.66663,-150.5504 4.0539,-3.4093 z m -291.6984,-73.5948 c 10.0847,-7.1678 -5.00384,6.3534 0,0 z m 330.3651,-190.4052 4.0539,-3.4093 z"
       style="fill:#000000;stroke-width:1.33333"
       id="path123" />
    <path
       d="m 765.10997,1702.6107 c 22.34996,-14.5072 -29.7671,-16.6969 0,0 z"
       style="fill:#000000"
       id="path161" />
    <path
       d="m 783.36977,1659.2205 c -0.91515,1.4008 -0.92274,-1.3797 0,0 z"
       style="fill:#000000;stroke:#000000"
       id="path163" />
    <path
       d="m 780.3418,1662.9149 c -1.80424,70.1421 12.43933,0.2078 30.94853,11.6843 11.41255,-24.9396 79.45801,-45.43 67.7648,-63.0723 26.32577,14.0783 -4.82931,-30.4545 -15.88623,8.9858 -37.62139,9.8021 -53.93356,56.21 -68.18061,46.2427 -35.85087,32.3078 27.44014,0.2038 -14.64649,-3.8405 z"
       style="fill:#000000"
       id="path165" />
    <path
       d="m 757.24542,1708.9149 c 45.56783,-13.4693 30.66684,-82.3931 8.09197,-20.776 -1.50201,37.34 -68.43096,19.8141 -23.26669,36.1696 44.92024,-8.183 61.48427,-98.7875 13.40889,-30.1023 l -6.80441,6.4909 8.57024,8.2142 z"
       style="fill:#000000"
       id="path167" />
    <path
       d="m 891.13552,1608.0736 c 23.56561,-25.5149 82.39143,-26.9357 80.87259,-65.2927 1.78961,-47.9847 -31.8824,53.2202 9.74472,10.5012 24.16207,-34.9967 -9.40469,44.4348 13.9825,-3.2172 31.06297,-11.7686 85.58447,-85.6082 26.25837,-36.839 -25.76306,1.766 -59.9343,72.3936 -23.16073,49.6408 25.22383,-61.5867 -57.64676,1.435 -24.86245,-10.1983 9.6065,-62.7219 -27.71257,-0.6723 -12.3088,2.4774 -15.72442,8.517 -91.84963,33.2358 -70.5262,52.9278 z"
       style="fill:#000000"
       id="path169" />
    <path
       d="m 470.34641,1441.5159 c 6.59173,-51.7482 46.60628,-83.2594 75.34142,-121.4471 37.98406,-24.3019 76.43418,-38.1795 107.70001,8.3589 48.2259,23.612 90.80296,-3.8803 125.75227,-28.3373 2.98062,-44.613 -30.20493,18.7089 -41.4953,13.8376 -38.50318,24.5908 -80.67925,8.2539 -112.45101,-26.6807 -51.5864,-13.1867 -96.35261,29.6298 -125.58116,67.8731 -18.31195,15.3078 -58.8498,78.9858 -29.26623,86.3955 z"
       style="fill:#000000"
       id="path171" />
    <path
       d="m 1119.891,812.50049 c -7.4694,51.50711 41.4731,6.5401 3.7108,13.78527 25.6534,21.20582 -3.1188,-22.19344 2.026,14.57066 21.9951,26.50372 10.3744,-48.76651 -5.7368,-28.35593 z"
       style="fill:#000000"
       id="path173" />
    <path
       d="m 273.01095,859.082 c -31.75781,48.26428 23.47704,37.86658 28.28346,18.72736 51.26155,-11.8138 20.85102,-35.1218 -12.22873,-5.09071 -39.50657,22.81522 10.37917,34.75222 -16.05473,-13.63665 z"
       style="fill:#000000"
       id="path175" />
    <path
       d="m 343.56618,799.10364 c -0.91497,1.40092 -0.92291,-1.37952 0,0 z"
       style="fill:#000000;stroke:#000000"
       id="path177" />
    <path
       d="m 456.63798,1911.7474 c -1.81589,2.9392 -1.88258,-2.9374 0,0 z"
       style="fill:#000000;stroke:#000000"
       id="path179" />
    <path
       d="m 469.17019,1912.1222 c 31.66032,-17.4932 97.82421,-108.546 50.20275,-107.0258 -20.76596,40.0391 -29.7327,80.2525 -78.70743,96.7536 3.18609,42.3665 91.72652,-19.9523 90.16168,-61.1009 32.39328,-35.276 -15.42722,-72.0472 -23.56566,-18.9706 11.17609,39.7311 -93.78637,69.0943 -38.09134,90.3437 z"
       style="fill:#000000"
       id="path181" />
    <path
       d="m 840.87484,1929.2459 c -63.81578,-14.6341 -132.9278,-22.3083 -199.28408,-17.2643 -56.81432,-12.4425 -114.22898,2.6392 -171.46255,1.5139 16.82518,-35.6107 138.15236,2.2461 55.67418,-28.6578 -22.37977,-54.6506 36.4471,31.5915 58.25614,-6.2147 8.16237,-14.8593 -68.11379,-40.5064 -44.53811,-81.7151 0.52812,-29.5768 60.69004,66.6802 7.7279,14.1615 -19.00236,33.3279 118.56532,62.8259 46.12593,15.0684 -35.61773,-19.2906 -70.09302,-118.281 -14.21639,-49.5749 42.37321,30.2254 32.77325,11.7633 1.45702,-11.6534 -30.38049,-22.0933 -46.53076,-83.1125 -4.23641,-30.9636 26.80705,33.3393 82.62141,17.3353 17.89305,-1.1039 -37.72976,-17.2245 -77.9129,-130.2763 -1.66731,-77.6244 46.33835,36.8086 81.35174,58.5258 132.14,72.9927 53.4478,0.9548 111.72604,-106.4616 145.48333,-81.0646 -5.6379,96.416 17.41432,196.2607 80.86397,271.3149 -37.49681,-5.7785 -75.98206,24.014 -110.21667,10.7853 z M 633.959,1710.2045 c -4.79692,-34.3921 -96.91324,-45.3452 -25.64192,-7.5604 7.65198,0.2662 17.22262,13.7232 25.64192,7.5604 z"
       style="fill:#ffd5d5;stroke-width:2.39683"
       id="path183" />
    <path
       d="m 699.27299,1531.3729 c -32.27959,-14.4338 -86.87686,7.2659 -92.04635,-50.9681 -31.15282,-4.0888 -115.21595,-65.2769 -49.94427,-69.4593 52.8883,37.4342 117.68317,3.9185 177.31118,9.1548 51.39134,0.3672 111.91465,-33.9253 156.60353,-7.9645 -1.03943,68.4942 -96.10478,74.1849 -131.36602,118.3308 -21.35765,-4.1562 -46.88229,22.2425 -60.55807,0.9063 z m 86.03775,-57.934 c 31.43422,-15.8591 59.63139,-53.4402 95.87302,-41.4509 -10.57595,-38.606 -89.27231,15.1009 -90.48016,9.5406 15.23715,16.3004 -86.9368,15.0502 -115.76076,12.4362 -34.78443,2.1938 -74.61344,-11.8202 -15.58478,-9.0736 27.90162,10.7897 165.42831,-8.5539 70.41414,-7.8847 -61.89222,4.917 -128.69115,8.9092 -183.34968,-21.2307 26.9649,48.8374 104.32524,62.948 158.79638,63.0496 26.5038,-1.5351 54.58781,3.3261 80.09184,-5.3865 z"
       style="fill:#ffd5d5;stroke-width:2.39683"
       id="path185" />
    <path
       d="m 976.50318,1529.1489 c 10.85866,-65.9069 33.74372,-137.033 -8.85688,-198.2278 -22.04492,-51.8826 -58.3297,-88.6726 -115.30248,-66.2678 -69.3187,-13.1017 -116.94181,76.9789 -182.16606,53.6796 -51.91858,-64.9311 -133.61675,-22.1493 -171.38629,34.8183 -51.45701,42.3542 -34.88429,119.4585 -64.07169,169.8238 -49.51551,-35.4099 -107.6372,-75.5084 -112.61535,-142.3595 -17.51274,-101.4438 -7.59727,-205.1718 -18.03594,-307.2978 29.51095,46.8255 -4.49071,-48.7374 27.74468,5.5548 -0.12411,-24.1251 -56.12716,-139.37345 -11.41014,-58.3466 -1.42345,30.1665 91.54408,120.0929 67.72502,60.1687 -57.7636,-44.7032 -79.36698,-117.23927 -101.99474,-183.5298 43.62034,-53.91012 114.85104,-51.67242 178.0315,-41.2398 76.83348,10.22839 119.38781,79.36022 173.56478,127.55065 32.89348,62.64925 56.68088,153.25005 -7.01779,205.40075 -55.30594,78.5821 75.45626,77.0806 123.44021,69.5343 90.60974,5.6182 70.8327,-81.2257 23.30241,-121.4719 -43.34482,-82.7076 3.12511,-174.34952 26.40135,-255.76769 29.12705,-42.92026 105.52372,-43.32554 142.64148,-35.09606 60.62845,-19.08241 123.30465,-4.36391 182.82945,0.41786 25.3213,-23.68127 -26.3165,-79.08012 -47.6409,-99.62421 -61.4849,-5.21938 -133.71696,-6.55549 -189.72606,34.62482 -111.84511,58.95782 -148.99835,194.42614 -149.7074,312.30718 -10.91649,56.2963 124.294,128.1042 17.73301,151.383 -5.79554,-35.785 17.5479,-77.363 -14.61443,-18 -26.81405,58.2049 -68.38095,-2.9947 -74.46922,-27.0494 27.26771,53.3121 -50.70835,59.6346 -35.19586,0.2702 -2.61148,-63.8899 107.93115,-31.8944 70.62509,-89.1853 37.37147,-2.9255 -61.68459,-76.1586 9.47188,-38.7279 -14.57224,-24.8294 -43.76699,-52.7684 -15.18207,-39.308 10.05067,-36.70565 -77.61736,-63.62854 -20.53439,-74.36741 -71.32609,-37.13011 -143.81154,-82.25961 -178.88123,-157.81486 -32.3627,-69.97214 -98.04589,-50.79114 -143.72771,-11.66416 -48.12748,-11.02029 -86.66099,120.5175 -85.06207,27.64204 4.48187,-31.90193 28.49019,-52.72269 8.81058,-88.81496 34.72621,-78.0249 85.90304,-147.32308 141.29109,-211.56212 86.57248,-81.62772 215.23787,-137.32072 334.54711,-104.86697 68.46681,18.14318 135.62867,49.52625 179.24662,98.56161 73.03036,29.55717 107.60536,92.51981 170.44456,136.14935 19.5827,57.29083 68.0074,107.58034 51.9658,174.49475 -10.8059,68.55311 -5.6648,138.88182 -26.948,205.90053 -14.9386,38.8886 -8.3059,89.7274 6.9415,21.7112 7.5322,-30.7668 19.142,-129.19711 17.5883,-45.7855 -5.4506,50.5271 -29.668,95.0995 -31.9554,144.9613 -16.529,54.0137 -5.0283,118.1638 -8.5633,165.8892 -5.0003,53.2375 -8.8474,92.2313 -54.9096,134.3441 -11.3127,12.5374 -83.95179,52.6259 -34.6087,34.8751 -12.2976,-2.7599 -13.66,55.1379 -49.76272,46.3124 z M 417.61543,1360.6167 c -10.29546,0.1718 -3.81514,11.6608 0,0 z m -2.85796,-6.0568 c -21.09208,-22.0309 28.18865,-95.5967 -10.01149,-42.4732 -55.55638,-46.7899 10.36353,50.0596 10.01149,42.4732 z m 593.28403,-51.2087 c 23.1056,-39.2328 -46.37159,-30.5946 -2.2821,-6.057 -7.0104,5.769 -9.63585,21.1372 2.2821,6.057 z m -554.41574,-177.641 c -23.61243,-84.2245 136.35965,-89.051 92.99141,-174.24585 -32.54717,-62.46618 -89.08796,-6.19403 -125.30576,-1.14925 -74.61289,-42.54907 -127.65526,58.1389 -52.21954,97.5526 30.08158,20.3527 74.18105,56.7397 84.53389,77.8425 z m 499.25388,-68.6051 c 43.97445,-41.5287 158.72266,-104.1603 73.83616,-166.73287 -59.98936,-31.44621 -91.3962,45.49507 -152.62711,16.61322 -77.79964,5.47916 -89.63787,123.22145 -4.46293,129.96395 49.62576,-6.6053 63.07754,102.016 83.25388,20.1557 z"
       style="fill:#ffd5d5;stroke-width:2.39683"
       id="path187" />
    <path
       d="m 1161.9197,1227.7807 c -28.2977,-90.0512 -2.3063,-185.8809 34.5613,-269.2491 -14.5036,75.037 -15.3873,152.7365 -6.1068,228.4004 4.3563,7.885 -25.0887,65.9703 -28.4545,40.8487 z"
       style="fill:#ffd5d5;stroke-width:2.39683"
       id="path189" />
    <path
       d="m 1172.271,944.15065 c -11.2626,-30.05573 20.7523,-96.6841 21.0379,-31.33871 -3.3359,29.60907 -28.0671,108.06576 -21.0379,31.33871 z"
       style="fill:#ffd5d5;stroke-width:2.39683"
       id="path191" />
    <path
       d="m 1198.7833,945.34906 c 9.1049,-32.08865 7.8761,-96.70943 -29.1914,-70.57329 -13.9346,-46.58085 50.833,-89.99327 46.1916,-18.83474 3.3162,29.21012 -4.5842,67.50688 -17.0002,89.40803 z"
       style="fill:#ffd5d5;stroke-width:2.39683"
       id="path193" />
    <path
       d="m 269.34361,1216.0494 c -58.24599,-55.4637 11.61477,-142.9051 -15.00995,-211.2513 -5.70416,-58.4456 -51.63138,-127.40872 -14.92572,-180.55141 49.77453,41.72928 -14.86305,113.82572 21.54989,169.43608 12.52083,73.47153 48.43604,149.03953 21.47375,222.89993 l -2.58799,2.5962 z"
       style="fill:#ffd5d5;stroke-width:1.69481"
       id="path195" />
    <path
       d="m 275.11494,996.45169 c -17.81632,-26.80228 -19.49416,-137.8888 -3.46684,-51.61793 2.09656,10.26166 19.26845,101.96544 3.46684,51.61793 z"
       style="fill:#ffd5d5;stroke-width:1.69481"
       id="path197" />
    <path
       d="m 434.03091,1077.953 c -50.41628,-21.048 -151.30176,-120.01159 -41.35897,-126.03914 48.56281,60.27804 90.43302,-72.56968 140.36125,2.90012 38.23342,54.40082 -66.33649,109.76922 -99.00228,123.13902 z"
       style="fill:#ff0000;stroke-width:1.69481"
       id="path199" />
    <path
       d="m 918.04132,1047.4965 c -46.27413,-24.6521 -141.85995,-51.77495 -76.15454,-117.82486 41.56649,-51.99413 84.29574,33.82628 116.74049,-26.05768 82.46453,-54.90422 123.33143,92.6676 34.21977,108.66234 -36.58033,3.8121 -42.19402,74.4499 -74.80572,35.2202 z"
       style="fill:#ff0000;stroke-width:1.69481"
       id="path201" />
    <path
       d="m 930.7976,1636.2695 c -47.7155,-46.5801 87.7787,-124.5666 56.83337,-29.5894 -9.39758,19.1105 -34.32895,42.211 -56.83337,29.5894 z"
       style="fill:#2b0000;stroke-width:1.69481"
       id="path203" />
    <path
       d="m 702.30034,1716.0974 c -34.33683,-33.7308 -93.70683,-48.8097 -134.4164,-84.2413 -42.30905,-38.0706 -102.20704,-47.1494 -103.5581,-116.7729 -7.25725,-69.3002 24.55154,-138.3935 75.55152,-184.6039 49.00051,-53.2478 103.77717,1.7264 157.90748,9.4343 63.8361,-4.0065 79.29295,-70.5045 144.82076,-66.0532 33.13223,-30.3394 108.73708,47.7651 39.06385,13.9571 8.54764,10.4706 46.88971,36.9638 51.43543,72.7667 28.5664,11.1762 41.94531,107.5566 34.27113,153.0669 2.63226,54.7849 -56.83347,55.1958 -86.81962,87.8141 -32.66753,37.0021 -84.73071,55.8965 -111.33213,73.7024 -16.94838,40.5119 -33.5361,32.6584 -66.92392,40.9298 z m -37.44888,-47.2165 c 43.71364,16.7974 28.52189,-45.9156 77.0551,-30.2268 12.85978,-27.5213 -61.52224,-1.5929 -49.40593,26.1037 -39.79233,-42.5532 -37.20555,46.7139 -27.64917,4.1231 z m 133.38131,-27.2507 c 53.85219,-40.5363 -29.47266,10.7448 0,0 z m -34.72446,-13.5037 c 27.40836,-9.2339 14.76969,-62.5576 41.8888,-28.8249 35.42366,-16.8217 33.82058,-46.9448 -0.0289,-12.7172 -25.12365,-31.6323 -65.16353,49.6676 -50.27443,44.7828 z m -142.76149,-7.9013 c -49.80112,-30.6367 -21.20613,-133.6138 -82.07476,-142.5246 20.92536,56.8605 -2.71083,106.3514 -20.53955,68.8336 33.49749,87.2764 39.26194,-46.2685 38.15492,-50.2812 31.07197,31.561 13.30333,115.8476 64.45939,123.9722 z m 43.49089,-10.2021 c 4.16849,-64.2611 38.39786,19.4725 58.56621,-34.696 9.91965,9.4929 35.23187,31.7861 11.7206,-6.1535 -27.68681,-16.7024 -22.17516,48.542 -52.03722,2.6207 -23.77317,-1.4055 -9.79705,57.2048 -40.66821,16.45 -19.51311,-3.549 -17.56705,34.275 -1.46887,8.0053 7.2425,4.4328 13.2495,27.7517 23.88749,13.7735 z m 177.81588,-79.0183 c 22.52338,16.2523 50.14719,14.9261 70.41746,-9.8367 34.82673,-29.5804 20.16362,-99.457 6.12387,-142.0835 -7.67904,-29.9245 -63.48107,-29.2605 -23.368,-41.359 -27.49921,-26.7076 -101.19867,28.7946 -67.48534,26.3623 62.03209,-48.7095 113.05569,54.5306 95.00167,109.4433 7.25923,33.5416 -33.64633,82.9958 -58.08249,44.2405 -27.71448,-4.6335 -63.12818,52.8793 -22.60717,13.2331 z m -117.5232,13.9129 c 66.32393,-8.4017 111.09728,-67.8164 167.35799,-101.911 33.57562,-54.6487 -54.36115,-59.3749 -81.67148,-37.651 -63.43712,4.1357 -123.15973,8.0212 -187.55159,15.5439 -33.85922,-6.983 -123.33641,-43.1522 -94.27826,27.0352 50.15434,16.8041 81.20209,57.6955 111.88612,88.6084 36.31027,-19.8544 53.75068,13.1308 84.25722,8.3745 z m -202.77127,-36.3329 c 9.03564,-57.0393 -70.6087,-19.1223 -13.17533,-13.264 8.72124,11.3766 12.7455,55.3582 13.17533,13.264 z m -24.24618,-70.6629 c -37.02111,-32.6312 85.41222,-105.1533 11.51982,-63.558 -22.58361,7.5855 -33.48684,61.6344 -11.51982,63.558 z m 165.97718,-46.2245 c 6.02626,-50.608 46.36953,15.0843 60.01048,-31.727 45.31406,17.2731 67.75043,-71.0484 106.02285,-38.0873 3.30094,-40.2652 -61.04548,7.2537 -50.22977,1.1804 -25.97686,9.7228 -17.09937,45.3405 -47.92968,24.2548 -19.49721,19.0987 -32.45012,37.9973 -49.78167,7.6138 -22.94686,41.7353 -47.6558,6.5409 -78.88939,-17.8915 5.01666,30.6404 40.26463,42.1647 60.79718,54.6568 z m -57.82198,-12.8982 c -0.78586,-44.5467 -64.83942,-30.8044 -42.20252,-9.4601 19.99912,-45.9423 29.86038,27.41 42.20252,9.4601 z"
       style="fill:#ff7f2a;stroke-width:1.19841"
       id="path205" />
    <path
       d="m 1145.7725,1935.9329 c -75.9392,-16.538 -77.0759,-109.3022 -105.3275,-167.2931 -36.1225,-79.4144 -27.4706,42.0966 -14.0212,70.9454 14.9441,89.9016 -40.60544,-41.8513 -39.7132,-70.0959 12.20072,-39.5629 -55.07719,-120.6488 -7.35714,-131.7755 22.02014,22.695 55.71614,93.8114 77.29694,74.0492 -28.5191,-13.0017 -78.87459,-94.7415 -14.909,-50.1658 25.0569,10.5734 67.2715,99.8528 76.2549,77.5886 -16.9597,-31.1694 -59.1989,-75.1427 4.6705,-43.7593 59.4825,36.8555 91.1288,112.945 158.3548,147.2966 -11.2729,26.029 -97.4027,-52.7171 -134.545,-65.2782 4.862,46.0247 64.7743,87.9133 105.4101,117.0267 41.8558,65.16 -96.6269,-7.753 -107.3949,-42.6653 -18.3924,-27.3692 -100.8064,-121.9926 -68.8808,-31.5086 19.8604,41.3524 94.3807,75.8156 85.1416,117.5563 z"
       style="fill:#ff7f2a;stroke-width:1.19841"
       id="path207" />
    <path
       d="m 977.04644,1472.0332 c 6.77519,-54.6182 -55.48429,-175.2322 -41.40691,-164.4332 36.18292,45.5299 71.01147,116.3297 41.40691,164.4332 z"
       style="fill:#ff7f2a;stroke-width:1.19841"
       id="path209" />
    <path
       d="m 346.37657,517.41753 c 10.30422,-29.21501 73.50085,-65.03641 28.69274,-59.14972 -9.21601,12.104 -66.74971,49.73362 -28.69274,59.14972 z"
       style="fill:#241c1c"
       id="path213" />
    <path
       d="m 351.37445,512.72794 c 33.027,-52.63971 88.99233,-80.10169 132.2678,-121.90946 55.66531,-29.85714 86.85111,-40.7396 147.41249,-51.10318 29.71347,16.2832 55.5191,-30.16453 69.92905,13.37434 59.77769,9.17972 120.65386,26.00187 178.71624,8.22022 50.50599,26.98443 102.13914,55.77662 140.15107,99.8428 48.2285,20.89195 71.5064,115.52497 121.8329,101.43515 -41.5171,-53.61757 -89.6318,-100.6305 -140.6659,-145.68485 -45.79279,-31.23753 -95.02168,-79.32672 -152.54769,-71.63539 -47.90689,18.4423 -99.30213,-9.11832 -146.60153,-13.95601 -28.5681,-36.66493 -52.50812,13.30508 -87.73195,-7.7178 -53.75127,19.42833 -108.47097,23.3917 -154.44186,66.62185 -38.32916,33.78271 -120.1592,71.64024 -116.42815,120.47979 l 8.10753,2.03256 z"
       style="fill:#241c1c"
       id="path215" />
    <path
       d="m 280.47649,877.02131 c 12.45793,-64.8405 79.52626,-76.63314 126.4465,-106.58399 53.28322,-46.34783 109.31761,69.34803 126.08865,100.22368 -60.96852,-31.84143 -137.79593,-32.40755 -203.43056,-20.32404 -14.81949,9.56703 -39.64472,18.47457 -49.10459,26.68435 z"
       style="fill:#ff7f2a;fill-opacity:1;stroke-width:1.19841"
       id="path219" />
    <path
       d="m 825.55933,850.65941 c 19.36187,-39.52949 95.23302,-92.74206 120.80894,-83.90785 57.31683,-24.4483 104.97953,-19.52336 147.38413,3.70395 26.3297,36.80313 46.3319,82.2879 -20.5562,62.52898 -44.2581,-20.20386 -116.74484,16.2076 -147.1873,-3.56236 -33.31102,0.52644 -66.83711,22.38484 -100.44957,21.23728 z"
       style="fill:#ff7f2a;fill-opacity:1;stroke-width:1.19841"
       id="path221" />
    <path
       d="M 1181.5006,780.64588 C 1141.4148,722.17918 1137.8628,642.29179 1067.4408,603.57463 1032.9465,564.37226 993.77921,520.61579 940.24624,508.7325 913.68791,468.95538 873.75109,443.24626 829.11837,424.38069 759.82076,401.09352 686.99122,383.26409 613.8944,401.78932 567.30283,414.35406 500.41896,448.60547 473.84263,463.06351 400.55406,513.59482 358.91294,594.07914 306.4967,663.78878 c 9.67541,-26.41207 26.19731,-70.80338 0.52084,-21.14152 -5.88631,25.82827 -39.70842,96.7063 -20.74932,29.07867 24.22454,-69.13697 63.35881,-132.92621 125.50544,-173.93357 31.57998,-18.88041 113.29924,-113.10594 46.10051,-43.38426 -11.57889,23.03023 -78.92798,54.91319 -33.65823,9.0472 48.3784,-55.88122 115.4991,-76.72442 183.49626,-97.64634 33.13645,-30.22995 127.01645,21.63332 129.89626,0.85758 -64.50463,-28.62854 -130.18661,-6.54185 -193.05837,11.03641 -43.82605,8.84278 -90.94248,64.66955 -116.23708,72.37682 35.17247,-55.54811 105.62421,-94.109 169.54363,-98.13284 68.06755,-31.7984 120.30038,13.86245 190.48224,15.3835 43.27612,0.81202 56.43162,13.43656 73.36832,46.77662 44.46846,18.09939 88.93921,20.55206 122.88413,58.14917 51.95267,-20.79577 58.36667,43.41897 93.61547,56.73004 20.2385,64.03765 83.9639,104.09932 93.6268,173.3247 5.5653,20.07399 26.09,66.02118 9.667,78.33492 z M 335.38815,586.19944 c 58.35343,-43.44916 -10.31964,-4.71958 0,0 z m 46.4688,-48.42119 c 41.01617,-32.69453 -54.7371,34.29981 0,0 z m 41.20032,-39.14456 c 46.91025,-30.32997 -39.94675,15.25907 0,0 z"
       style="fill:#ff7f2a;fill-opacity:1;stroke-width:1.19841"
       id="path223" />
    <path
       d="m 985.56522,469.59928 c -7.61377,-52.10488 -100.71205,-37.35716 -122.36589,-70.1952 -12.82852,-23.07235 -33.41565,-41.36143 7.41452,-34.47653 57.35457,17.88077 107.41034,52.31505 147.59585,96.55928 -8.7132,5.77582 -22.34944,10.14435 -32.64448,8.11245 z"
       style="fill:#ff7f2a;fill-opacity:1;stroke-width:1.19841"
       id="path225" />
    <path
       d="m 1154.8317,638.33235 c -17.8152,-43.63493 -96.8394,-116.80359 -14.983,-64.45838 18.6401,9.1808 42.3518,66.14966 14.983,64.45838 z"
       style="fill:#ff7f2a;fill-opacity:1;stroke-width:1.19841"
       id="path227" />
    <path
       d="m 1193.9111,752.16652 c -14.7385,-20.82112 -28.1332,-96.81525 3.8366,-39.71972 3.951,12.22285 1.4619,29.75946 -3.8366,39.71972 z"
       style="fill:#ff7f2a;fill-opacity:1;stroke-width:1.19841"
       id="path229" />
    <path
       d="m 279.47593,643.76673 c -8.72565,-69.20096 56.55506,-113.0553 103.68179,-151.97045 56.72532,-38.2011 -35.91536,52.52251 -49.76039,72.44475 -19.42946,18.44878 -46.19836,77.99876 -53.9214,79.5257 z"
       style="fill:#ff7f2a;fill-opacity:1;stroke-width:0.847406"
       id="path231" />
    <path
       d="m 261.67283,728.96594 c -9.29494,-34.91984 30.70564,-84.00503 11.53211,-20.32216 -2.27214,-1.30768 -9.82364,33.33306 -11.53211,20.32216 z"
       style="fill:#ff7f2a;fill-opacity:1;stroke-width:0.599206"
       id="path235" />
    <path
       d="m 261.09987,686.10624 c 2.21676,-33.76527 18.11128,-74.6748 7.21056,-13.68146 l -6.01354,12.75276 z"
       style="fill:#ff7f2a;fill-opacity:1;stroke-width:0.599206"
       id="path237" />
    <path
       d="m 338.11817,519.52184 c 30.14538,-24.96536 99.34658,-98.13981 92.78619,-80.37132 -22.56257,28.83057 -70.33065,73.72785 -92.78619,80.37132 z"
       style="fill:#ff7f2a;fill-opacity:1;stroke-width:0.599206"
       id="path239" />
    <path
       d="m 237.9567,793.12517 c -1.27121,-28.51128 17.85217,-67.94689 8.85113,-15.77527 2.51706,-4.71203 -5.78709,25.1062 -8.85113,15.77527 z"
       style="fill:#ff7f2a;fill-opacity:1;stroke-width:0.599206"
       id="path241" />
    <path
       d="m 242.92214,810.97795 c -9.02578,-27.88731 35.18019,-31.10113 0,0 z"
       style="fill:#ff7f2a;fill-opacity:1;stroke-width:0.599206"
       id="path243" />
    <path
       d="m 1061.6336,502.72481 c -35.8808,-13.8093 -14.0306,-30.32324 0,0 z"
       style="fill:#ff7f2a;fill-opacity:1;stroke-width:0.599206"
       id="path245" />
    <path
       d="m 1047.7255,1649.4535 c -22.9066,-7.5884 -96.26494,-35.5973 -31.1659,-33.6987 13.0957,3.6661 39.7758,21.5128 31.1659,33.6987 z"
       style="fill:#ff7f2a;fill-opacity:1;stroke-width:0.599206"
       id="path247" />
    <path
       d="m 768.44195,1437.496 c -0.6475,0.9906 -0.65009,-0.9754 0,0 z"
       style="fill:#000000;stroke:#000000"
       id="path249" />
    <path
       d="m 772.65181,1443.4405 c 9.64737,-4.1981 24.66521,-2.0436 12.25392,-10.1764 -6.11281,-2.8507 -24.23038,0.6949 -12.25392,10.1764 z"
       style="fill:#000000;fill-opacity:1"
       id="path251" />
    <path
       d="m 773.21912,1443.3779 c 8.73043,-10.754 29.02353,11.9142 34.2552,-8.531 -9.86601,4.2096 -40.44667,-11.2243 -34.2552,8.531 z"
       style="fill:#000000;fill-opacity:1"
       id="path253" />
    <path
       d="m 766.6857,1435.7943 c -24.40678,-0.018 -27.03591,17.0501 4.94038,6.6245 z"
       style="fill:#000000;fill-opacity:1"
       id="path255" />
    <path
       d="m 772.47762,1434.6909 c -23.04887,-4.6626 1.13021,21.6083 0,0 z"
       style="fill:#000000;fill-opacity:1"
       id="path257" />
    <path
       d="m 704.83429,1472.8603 c -41.65006,10.79 -121.78712,-34.1549 -70.41548,-21.6526 -23.30633,2.2798 78.16723,18.2083 102.23791,12.1643 34.58349,-2.7336 108.97751,-24.0503 37.49843,4.5154 -22.61094,5.6311 -46.16415,6.0615 -69.32086,4.9729 z"
       style="fill:#ff8080;fill-opacity:1;stroke-width:0.599206"
       id="path259" />
    <path
       d="m 693.74897,1454.5407 c -32.31301,2.7918 -105.8096,-12.5241 -30.76035,-8.0104 40.90601,7.0276 108.23499,-9.4417 134.72419,0.4032 -33.89328,9.0327 -69.20577,8.2235 -103.96384,7.6072 z"
       style="fill:#ff8080;fill-opacity:1;stroke-width:0.599206"
       id="path261" />
  </g>
</svg>
