<svg xmlns="http://www.w3.org/2000/svg" width="1440" height="2416"><path d="M792.508 1975.429c50.942-65.614-87.06-54.956-123.953-54.785-68.923-4.224-136.4-5.651-204.29 3.592-72.191 1.026 59.799-53.208 60.752-104.024-21.491 15.57-48.306 51.692-14.26 7.868 25.193-65.063 45.517-168.075 6.014-222.586-54.031-27.171-117.839-80.165-166.752-128.543-60.041-64.89-41.634-158.105-53.381-238.301-21.677-14.14-68.734-13.026-61.683-63.796 13.393-79.066 23.929-160.905-8.316-237.688-31.807-65.232 11.587-122.996 12.108-188.718 27.44-77.802 18.113-179.69 95.961-230.319 59.824-60.095 110.997-131.396 186.859-171.295 80.185-12.32 162.985-15.171 244.356-13.346 74.994 11.666 163.02 28.735 217.5 81.012 63.862 37.382 102.408 92.91 149.576 144.725 49.485 47.53 42.8 111.098 71.274 166.362 4.516 27.02-35.952 121.898-1.558 53.475 10.9-11.37 27.91 81.05 21.348 111.614-18.051 71.982-39.347 145.548-26.006 221.113 14.516 57.028 14.398 128.217-50.22 148.176 98.833 110.347 18.791 46.344-14.97 12.414-1.381 59.728-16.649 122.884-55.554 183.595-20.192 49.077-134.68 103.89-52.42 152.066 45.661 60.385 121.56 74.458 162.985 134.006 25.276 48.295 101.624 69.328 109.363 119.825-36.246 23.642-104.19-58.885-107.546-33.948 18.713 29.68 132.577 86.79 54.028 100.96-75.449 2.894-121.816-106.58-160.477-120.3 17.79 39.282 140.334 115.915 63.231 140.067-87.247-6.711-78.665-118.129-120.91-166.643-2.527 44.864 34.191 126.606 21.71 146.226-64.33-60.763-63.938-157.31-86.52-237.298-6.015-45.927-97.3-112.593-78.233-22.867.978 81.322 18.7 166.53 70.058 231.855 81.796 57.27-57.317 17.86-91.502 37.928-32.569 3.854-60.271-2.13-68.572 37.578m376.565-37.699c-10.496-56.458-130.863-114.508-89.922-156.383 55.573 47.618 91.746 128.386 170.63 141.35 52.878-15.771-55.63-58.913-66.562-84.436-31.592-23.42-55.14-86.428 0-40.096 21.075 15.535 104.134 74.877 98.421 44.022-72.065-33.613-98.668-121.068-167.334-150.239-50.726-21.503-33.046-8.093-9.899 25.291 36.087 75.97-42.162-48.602-68.443-61.629-89.445-37.4 22.597 49.996 17.34 61.012-43.737 4.25-60.208-118.299-95.641-65.195 31.374 69.19 21.62 150.58 62.262 216.946 26.69 16.722-7.039-80.584-6.872-106.237 15.718-66.846 46.202 71.456 57.82 94.908 12.772 45.291 46.529 87.533 98.204 80.686zm-304.167-4.146c34.414-19.25 125.414 2.824 65.202-45.935-53.665-76.455-64.403-172.506-58.893-263.27-17.915-5.787-58.744 76.106-95.591 44.866-5.875 60.066-72.095 70.71-102.217 33.952-27.065 9.48-129.113-116.125-125.694-36.301 11.043 47.066 55.479 75.14 70.504 86.437-33.857 4.347-96.16-90.229-60.448-12.116 11.054 26.364 89.712 74.337 24.225 36.793-24.288-29.47-52.132-50.112-27.908 4.37 8.626 25.504 99.4 92.731 30.341 56.574-40.658 13.65-52.286-53.282-11.269-7.845-7.717-37.378-48-63.91-41.631-8.864-15.038 34.315-116.248 107.781-21.153 91.651 71.462-12.098 141.132 1.348 212.546-1.387 48.173 3.472 100.366 14.075 141.986 21.075m-324.398-33.106c-37.562 4.967-55.215-48.176-11.833-13.316 14.117.728 48.877 15.498 11.833 13.316m19.878-13.058c-42.032 4.36-42.23-84.645-16.17-19.772 11.888 7.484 52.002 21.029 16.17 19.772m16.58-9.412c-40.475 1.066-56.472-79.972-17.902-21.74 7.639 7.254 52.786 21.377 17.902 21.74m35.227-174.421c-34.133-10.668-38.114-44.242-2.67-13.487 24.088-.246 34.004 35.02 2.67 13.487m122.829 12.16c34.099 6.988 36.154-92.945 60.218-36.35 59.386-50.887 97.9-78.587 158.163-114.957 28.66-5.386-69.902 27.893-29.963 65.17 47.738 40.213 81.53-43.107 61.948-81.048 28.959-18.665 67.608-53.46 77.749-78.19-22.838 27.572-104.846 93.52-39.002 27.18 46.697-47.644-47.93 35.797-.992-7.167 28.37-22.36 56.368-56.66 6.228-13.667-52.405 33.238 60.351-77.364 57.225-55.924 19.624-15.112 43.346-109.43 19.94-51.729-.146-46.18 32.92-80.48 7.867-91.02.571-64.945 9.102-135.26 21.628-188.049 13.28-50.193 29.756-69.766 21.864-132.613 3.869-62.818-18.484 87.307-15.932 71.385-2.019 34.34-30.161 86.47-14.231 21.43 24.662-73.565 20.8-149.974 31.885-225.117 16.342-70.745-28.045-129.625-58.55-183.407-63.884-49.814-97.928-113.19-180.384-136.3-24.081-63.26-102.622-67.951-160.124-94.201-117.265-34.519-244.794 19.498-332.788 97.44-49.812 55.698-94.693 115.868-129.797 182.184-38.675 37.532 8.924 85.42-26.917 118.695-11.038 68.078 23.103 41.746 43.152.798 57.4-11.644 110.052-96.122 163.972-35.569 42.246 50.681 67.37 117.763 132.96 145.19 18.184 21.613 100.711 38.073 45.065 52.684 26.48 11.684 70.493 82.908 20.93 47.991 17 22.77 61.887 77.5 4.637 35.528 12.442 16.238 61.577 81.24 10.094 43.068 72.403 70.9-71.201 31.379-59.562 113.16 3.766 65.094 63.7 19.982 42.684-11.58 2.675 81.542 85.555 48.866 91.225-12.031-35.396 46.335 16.052 85.123 38.756 27.718-4.214-57.814-91.968-85.564-58.676-155.201-.317-122.643 63.055-253.023 183.081-297.938 56.747-20.269 135.459-33.47 174.972 5.95 18.73 23.997 24.065 84.99 6.98 34.284-7.356-38.484-38.998-52.17-65.766-49.163-3.727-16.638-142.758 18.432-109.218 7.143-33.576 15.02-122.505 65.237-100.253 90.393 74.358-29.16 122.638-12.14 202.727-25.221 29.127 13.454 141.884 7.106 51.4 16.552-57.185-17.691-123.207-1.957-176.054.392 4.209-27.077-94.573 33.902-80.668 9.616-56.634 30.114-50.518 116.16-72.754 172.547-24.793 75.448 38.205 132.529 60.714 193.218-39.024 66.084-134.664 36.963-193.344 28.159-37.603-62.074 84.928-107.9 39.6-182.247-5.676-69.54-55.091-123.065-111.729-157.137-27.087-55.73-104.428-56.23-159.29-58.584-33.583-22.977-155.401 59.358-80.054 9.748 62.557-25.057 141.48-18.415 205.394 6.105 37.276 23.966-53.114-90.289-39.609-73.77-33.454-53.366-72.456-32.657-109.889.684-75.526 10.502-118.695 96.32-68.712 161.293 8.072 61.861 73.99 104.017 89.555 151.524-57.098-17.19-77.227-117.31-101.85-132.379 10.016 29.227 40.201 89.023 35.358 99.216-29.441-46.319-14.153-14.811-8.863 17.054-32.795-60.564-2.48 51.856-10.9 80.328 5.55 94.146-4.342 192.62 35.19 281.479 35.119 18.484 110.38 126.644 107.338 26.903 13.54-43.815 16.585-92.978 58.025-125.334 23.884-35.988 88.82-77.007 112.26-41.62 38.683 8.214 100.3 31.103 135.114-8.013 28.76-39.695 143.697-39.209 134.862-40 54.136-10.022 78.723 77.586 98.038 121.923 17.98 52.051-14.027 122.486-20.408 161.777 2.915-67.737 7.492-140.244-34.331-198.599.792 29.628-25.781-67.253-53.62-54.987 15.234-11.672 61.245 36.584 24.786-11.41-57.777-31.373-131.808 7.291-180.557 47.485-59.432 32.098-122.164-61.553-178.747-4.454-62.66 43.235-87.751 115.97-81.837 189.85 2.7 73.872 72.69 81.705 115.779 127.566 54.356 23.53 98.699 79.204 156.008 74.165m-75.375-44.16c5.916-31.242 50.56 15.495 44.555-34.62 53.99-23.85 41.256 15.338-3.18 4.636.48 39.56-31.298 29.888-41.375 29.984m127.528-25.146c12.634-14.909 45.14-29.215 11.14-5.54zm-36-14.942c33.593-16.413 24.092-69.548 56.703-45.472 16.043-28.579 42.053-9.275 9.025-1.509-15.252 38.964-34.327-28.961-33.366 19.479-5.555 13.31-17.286 25.924-32.362 27.502m-138.43-11.676c-47.832-28.605-19.65-104.748-67.408-130.684 31.91 32.814-13.615 138.402-28.136 49.695-.48 21.346 41.504 45.892 31.056-4.088-17.671-35.766-5.893-88.105 23.989-31.84 7.137 38.326 30.021 106.89 40.499 116.917m35.19-15.69c-12.748-19.075-33.267 18.418-9.518-16.148 37.483 53.881 24.936-55.943 63.14.38 10.189-12.043 36.623-40.952 43.265 4.335-19.165-26.93-24.003-7.25-50.54 3.873-29.998-62.441-18.112 48.47-46.347 7.56m173.382-54.845c35.485-52.52 70.87-16.899 73.461-15.93 44.614-38.388 41.869-129.619-4.417-171.614-31.752-44.382-93.64 44.108-61.523-21.803 21.05-11.177 106.597 1.915 36.77 4.754-41.4-14.354 95.096 24.814 64.923 85.369 9.567 55.909-7.204 110.03-65.747 116.299-1.038-34.26-34.665-13.704-43.467 2.925m-117.492-2.876c-30.217-33.435-92.645 12.479-98.014-54.433-28.984-17.694-126.363-55.584-61.65-89 67.75 26.66 144.896 14.762 209.033 4.28 52.034 12.695 107.788-44.887 146.325 8.723-12.578 64.531-101.56 72.326-137.206 123.747-20.648-1.327-37.834 6.104-58.488 6.683m15.91-9.068c65.786-2.293 105.47-57.484 162.606-86.354 46.38-71.027-60.867-47.393-91.805-40.896-67.368 7.385-139.277 19.19-203.131 15.697-38.24-50.134-87.652 9.75-28.787 33.286 59.54 5.874 61.141 100.133 128.916 63.327 8.951 3.413 21.878 32.766 32.2 14.94m-61.894-60.629c-34.606-15.741-103.785-21.6-108-63.405 53.64 54.362 178.577 11.348 211.55 28.666-66.964 15.857-102.06-12.402-149.992 13.087 61.658 21.924 145.63 33.996 201.709-7.743-43.212 27.642-204.757 11.31-179.526 4.355 60.51 5.858 123.787 12.605 182.26-8.565-97.499-2.285 95.389-17.507 52.787-25.66 29.936 27.807-43.35.566-53.214 34.619-42.22 42.36-104.561 20.92-157.574 24.646m330.667 65.474c9.1-11.584 9.755-.375 0 0m-470.444-17.125c12.903-44.104-67.344-33.479-11.819-50.905 16.59 7.156 19.706 46.233 11.82 50.905m490.884-41.152c19.576-15.723-14.406 15.87 0 0m-517.01-47.515c-43.42-40.614 87.328-106.492 20.964-55.415-33.978 4.718-7.956 62.611-20.964 55.415m164.844-45.337c-27.141-8.653-82.022-85.942-29.799-26.638 19.602 15.592 23.843-5.962 34.505 17.306 12.284-32.58 28.22-24.808 43.004-7.688 20.387-42.719 54.073-2.135 64.39-45.585 26.51 4.415 39.586-53.034 64.573-10.739-41.907-25.86-63.387 57.23-115.026 42.727-24.062 54.673-38.932-29.034-61.647 30.617m-58.55-8.499c-8.94-41.087-24.7-35.88-37.995-18.96-2.76-45.381 64.955 12.685 37.995 18.96m-184.497-19.644c12.996-10.503-7.607 10.034 0 0m-7.255-4.076c17.767-31.016-58.985-71.427 2.471-48.761 30.933-46.864-15.741 26.26 3.976 46.273zm592.695-49.691c32.398-24.374-46.619-36.664 9.573-31.813 8.534 9.44 2.183 27.966-9.573 31.813m-548.631-182.922c-20.542-66.282-149.92-84.22-110.25-168.648 46.393-36.497 102.744 24.154 137.274-33.537 98.583-16.22 87.922 113.377 5.86 129.349-26.953 14.015-40.48 58.89-32.884 72.836m-4.406-42.517c41.98-37.188 153.972-102.872 59.866-151.548-52.421-15.019-67.904 66.545-110.65 18.935-94.926-10.083-42.978 91.4 12.353 110.724 11.898 8.585 23.816 18.456 38.431 21.89m487.76 6.02c-15.276-68.893-169.66-52.738-113.806-147.825 39.378-63.372 115.063-5.391 153.386-57.554 97.952-22.355 104.49 112.98 19.667 134.761-28.432 14.227-52.544 50.638-59.247 70.617m8.857-25.108c24.295-58.714 154.847-78.447 86.087-161.61-54.353-47.457-97.516 57.192-138.122 7.44-87.396-6.154-93.715 125.104-1.23 120.049 18.772 9.775 34.65 24.125 53.265 34.121m121.71 597.107c-11.564-11.913-9.066-.376 0 0m-13.652-11.33c5.26-52.102-107.467-34.421-40.675-19.024 15.251 2.557 26.02 15.027 40.675 19.025m-144.795-51.815c-15.063-9.395 2.685 19.113 0 0m-437.449-41.74c-13.82-22.96-1.202 10.662 0 0m-39.96-24.678c-21.533-15.87 9.743 15.285 0 0m577.232-12.197-5.354 2.847zm-596 1.418c-34.053-26.52-34.803-18.473 0 0m41.675-12.161c1.305-48.419-8.766 38.375 0 0m575.996-9.163-8.18 8.532zm-636.361-4.095c-28.629-26.737-4.163 1.007 9.911 12.583zm688.229-52.572c27.44-41.984 19.725-42.178-3.517-1.292-26.908 35.426-50.23 62.822 3.516 1.292m-98.467 17.6c30.094-51.07-28.632-148.495-54.209-152.627 31.154 50.552 46.6 108.152 51.551 167.072zm-657.092-47.73c-4.553-28.351-17.309-70.09-8.656-16.71-3.094 8.739 22.384 55.575 8.656 16.71m603.354-123.129c-6.847-24.552-9.424 5.327 0 0m-11.195-16.62c-.407-27.517-13.226 3.518 0 0m-131.487-24.104c-2.912-5.313-10.233 9.388 0 0m376.015-4.085c10.915-7.999-16.418 6.731 0 0m-362.497-5.599c4.217-6.113-9.451 8.542 0 0m381.797-4.031c52.99-72.26-35.826 15.347 0 0m-9.666-2.325c42.526-55.18 3.247-131.324 16.16-195.87-3.782-74.416 55.83-145.633 21.367-218.55-44.412-24.623-55.663 93.737-11.265 55.252 23.196 79.218-42.428 150.037-45.756 228.393-2.186 35.9-6.8 118.458 19.494 130.776m-886.762-2.31c32.514-25.337-36.168 8.435 0 0m911.537-7.036-2.009 3.142zm-926.41 1.512c-4.477-4.937-5.185 3.013 0 0m14.168-4.506c28.03-83.874-11.395-167.678-26.678-251.033-25.97-40.368 40.083-137.855-23.657-141.986-29.78 84.561 45.764 170.934 23.034 258.683-6.371 41.016-33.28 122.159 27.3 134.336m371.17-53.97c3.002-9.536-10.82 17.779 0 0M280.608 992.572c-.059-34.432-28.492-135.38-20.234-45.445 1.71 14.769 31.636 113.82 20.234 45.445m894.55-6.842c14.066-21.73 35.403-131.204-.965-93.22-1.953 27.532-10.989 78.35.965 93.22m1.302-171.934c-.568-40.994-12.763 33.389 0 0m-931.322-.596c29.382-30.939-15.002-26.811 0 0m.952-27.803c10.72-50.291-8.874-33.716-8.202 8.68l1.495.732zm940.108-1.667c2.726-59.56-22.713-121.79-55.407-170.432-40.203-36.391-43.451-94.366-88.374-113.06-7.315-56.394-72.594-12.006-96.873-61.709-46.402-2.518-97.32-33.88-119.064-64.245-64.776-50.324-150.236-41.178-228.398-29.267-71.744-7.62-139.275 28.815-166.651 97.215-19.503 40.174 52.074-38.776 75.05-46.282 62.191-25.463 130.653-55.088 199.581-37.1 56.427 9.042 28.389 20.398-11.385 5.602-65.708-27.2-123.558 23.506-187.373 32.891-36.156 25.114-84.525 54.836-100.156 93.729 36.036-5.896 105.975-98.553 44.12-27.454-55.461 47.57-121.437 89.405-146.083 162.153-18.569 26.255-42.603 120.925-5.178 50.457 45.916-63.01 83.732-134.565 142.459-186.42 44.79-39.19 50.32-35.26 117.067-67.873 57.089-25.232 119.807-32.527 181.733-23.613 83.243 20.765 160.537 55.245 214.66 119.691 67.303 15.744 95.616 83.745 154.165 121.958 35.795 44.75 38.786 102.515 76.107 143.76M294.477 677.631c3.647-28.368 48.103-95.402 14.912-29.057-2.244 6.175-7.088 32.991-14.912 29.057m36.054-88.938c22.22-26.966 40.103-25.706 0 0m31.31-39.202c31-26.038 48.961-27.803 0 0m48.668-46.096c29.944-25.222 31.753-11.271 0 0M274.68 759.958c-9.142-29.213 1.734 40.197 0 0m922.57-18.627c23.328-38.366-47.57-78.877-14.537-19.69 4.722 4.828 13.403 56.601 14.537 19.69m-942.88-10.033c4.273-41.825-8.456 17.32 0 0m20.68-14.568c-9.489 12.115-.944 20.46 0 0m-8.411 7.333c21.325-26.082 8.988-80.554-3.726-22.905-4.074 4.915-2.872 48.697 3.726 22.905m1.144-48.737c13.8-29.667-2.437-59.037-2.49-11.727-.304 7.377-11.214 42.336 2.49 11.727m12.73-25.008c21.67-63.771 107.497-137.587 123.229-171.99-50.275 30.057-98.785 72.973-122.136 124.452-2.515 15.59-4.606 31.926-1.092 47.538m884.75-20.588c28.623-45.755-115.35-114.974-46.956-51.16 13.894 4.666 37.797 96.239 46.956 51.16m-873.57 5.81c-8.673 3.623-1.003 10.99 0 0m14.189-13.55c2.433-9.35-8.373 14.164 0 0m24.454-51.573c17.609-26.064-23.994 27.985 0 0m-28.739-5.051c45.253-43.88-38.22 38.098-1.431.993zm71.843-37.72c30.704-42.611-36.678 44.69 0 0m-28.211-6.317c35.419-27.116 108.846-94.485 98.347-113.919-26 33.13-105.15 97.199-98.347 113.92m735.98-17.36c-26.137-61.045-56.275 11.716 1.735 5.63zm-82.7-35.239c56.61-25.72-44.365-95.039-83.699-87.227-24.233-8.811-116.467-52.697-101.352-20.271 56.469 11.3 43.959 63.137 106.021 64.323 36.348 8.384 57.091 21.708 72.033 46.442zm-479.044-28.313c-15.22-2.664 5.29 5.564 0 0m28.735-10.093c-8.103-6.938-6.314 12.823 0 0m-82.25-45.336c-9.657-1.501-3.646 7.109 0 0M325.84 1768.11l4.586-2.541zm970.667-150.55 4.054-3.41zm-291.698-73.595c10.084-7.168-5.004 6.354 0 0m330.365-190.405 4.054-3.41z" style="fill:#000;stroke-width:1.33333"/><path d="M765.11 1702.61c22.35-14.506-29.767-16.696 0 0" style="fill:#000"/><path d="M783.37 1659.22c-.915 1.401-.923-1.38 0 0z" style="fill:#000;stroke:#000"/><path d="M780.342 1662.915c-1.804 70.142 12.44.208 30.948 11.684 11.413-24.94 79.458-45.43 67.765-63.072 26.326 14.078-4.83-30.455-15.886 8.986-37.621 9.802-53.934 56.21-68.18 46.242-35.852 32.308 27.44.204-14.647-3.84" style="fill:#000"/><path d="M757.245 1708.915c45.568-13.47 30.667-82.393 8.092-20.776-1.502 37.34-68.43 19.814-23.266 36.17 44.92-8.184 61.484-98.788 13.409-30.103l-6.805 6.491 8.57 8.214zM891.136 1608.074c23.565-25.515 82.391-26.936 80.872-65.293 1.79-47.985-31.882 53.22 9.745 10.501 24.162-34.997-9.405 44.435 13.982-3.217 31.063-11.769 85.585-85.608 26.259-36.84-25.763 1.767-59.935 72.395-23.161 49.642 25.224-61.587-57.647 1.435-24.862-10.199 9.606-62.722-27.713-.672-12.31 2.478-15.724 8.517-91.849 33.236-70.525 52.928M470.346 1441.516c6.592-51.748 46.607-83.26 75.342-121.447 37.984-24.302 76.434-38.18 107.7 8.359 48.226 23.612 90.803-3.88 125.752-28.338 2.98-44.613-30.205 18.71-41.495 13.838-38.503 24.59-80.68 8.254-112.451-26.68-51.587-13.187-96.353 29.63-125.581 67.872-18.312 15.308-58.85 78.986-29.267 86.396M1119.891 812.5c-7.47 51.508 41.473 6.54 3.71 13.786 25.654 21.206-3.118-22.194 2.027 14.57 21.995 26.504 10.374-48.766-5.737-28.356M273.01 859.082c-31.757 48.264 23.478 37.867 28.284 18.727 51.262-11.813 20.851-35.121-12.228-5.09-39.507 22.815 10.379 34.752-16.055-13.637" style="fill:#000"/><path d="M343.566 799.104c-.915 1.4-.923-1.38 0 0zM456.638 1911.747c-1.816 2.94-1.883-2.937 0 0z" style="fill:#000;stroke:#000"/><path d="M469.17 1912.122c31.66-17.493 97.824-108.546 50.203-107.026-20.766 40.04-29.733 80.253-78.707 96.754 3.186 42.367 91.726-19.952 90.161-61.1 32.393-35.277-15.427-72.048-23.565-18.972 11.176 39.732-93.787 69.095-38.092 90.344" style="fill:#000"/><path d="M840.875 1929.246c-63.816-14.634-132.928-22.308-199.284-17.264-56.815-12.443-114.23 2.639-171.463 1.513 16.825-35.61 138.153 2.247 55.674-28.657-22.38-54.65 36.447 31.591 58.257-6.215 8.162-14.86-68.114-40.506-44.539-81.715.529-29.577 60.69 66.68 7.728 14.161-19.002 33.328 118.566 62.826 46.126 15.069-35.617-19.29-70.093-118.281-14.216-49.575 42.373 30.225 32.773 11.763 1.457-11.654-30.38-22.093-46.53-83.112-4.237-30.963 26.808 33.34 82.622 17.335 17.894-1.104-37.73-17.225-77.913-130.276-1.668-77.624 46.339 36.808 81.352 58.525 132.14 72.992 53.448.955 111.726-106.461 145.484-81.064-5.638 96.416 17.414 196.26 80.864 271.315-37.497-5.779-75.983 24.014-110.217 10.785m-206.916-219.042c-4.797-34.392-96.913-45.345-25.642-7.56 7.652.266 17.223 13.723 25.642 7.56M699.273 1531.373c-32.28-14.434-86.877 7.266-92.046-50.968-31.153-4.089-115.216-65.277-49.945-69.46 52.889 37.435 117.684 3.919 177.312 9.155 51.39.368 111.914-33.925 156.603-7.964-1.04 68.494-96.105 74.185-131.366 118.33-21.358-4.156-46.882 22.243-60.558.907m86.038-57.934c31.434-15.86 59.631-53.44 95.873-41.451-10.576-38.606-89.273 15.1-90.48 9.54 15.237 16.301-86.937 15.05-115.761 12.437-34.785 2.194-74.614-11.82-15.585-9.074 27.902 10.79 165.428-8.554 70.414-7.884-61.892 4.917-128.691 8.909-183.35-21.231 26.965 48.837 104.326 62.948 158.797 63.05 26.504-1.536 54.588 3.326 80.092-5.387" style="fill:#ffd5d5;stroke-width:2.39683"/><path d="M976.503 1529.149c10.859-65.907 33.744-137.033-8.857-198.228-22.045-51.883-58.33-88.673-115.302-66.268-69.319-13.101-116.942 76.98-182.166 53.68-51.919-64.931-133.617-22.15-171.387 34.818-51.457 42.354-34.884 119.459-64.071 169.824-49.516-35.41-107.637-75.508-112.616-142.36-17.512-101.443-7.597-205.171-18.036-307.297 29.511 46.825-4.49-48.738 27.745 5.554-.124-24.125-56.127-139.373-11.41-58.346-1.423 30.166 91.544 120.093 67.725 60.169-57.764-44.704-79.367-117.24-101.995-183.53 43.62-53.91 114.851-51.673 178.032-41.24 76.833 10.228 119.388 79.36 173.565 127.55 32.893 62.65 56.68 153.25-7.018 205.401-55.306 78.582 75.456 77.081 123.44 69.535 90.61 5.618 70.833-81.226 23.302-121.472-43.344-82.708 3.126-174.35 26.402-255.768 29.127-42.92 105.523-43.325 142.641-35.096 60.629-19.082 123.305-4.364 182.83.418 25.321-23.681-26.317-79.08-47.641-99.624-61.485-5.22-133.717-6.556-189.726 34.625C780.115 840.45 742.96 975.92 742.252 1093.8c-10.916 56.296 124.294 128.104 17.733 151.383-5.795-35.785 17.548-77.363-14.614-18-26.814 58.205-68.381-2.995-74.47-27.05 27.268 53.312-50.708 59.635-35.195.27-2.612-63.89 107.931-31.894 70.625-89.185 37.371-2.925-61.685-76.158 9.472-38.728-14.572-24.83-43.767-52.768-15.182-39.308 10.05-36.705-77.618-63.628-20.535-74.367-71.326-37.13-143.811-82.26-178.88-157.815-32.364-69.972-98.047-50.791-143.729-11.664-48.127-11.02-86.66 120.517-85.062 27.642 4.482-31.902 28.49-52.723 8.81-88.815 34.727-78.025 85.904-147.323 141.292-211.562 86.572-81.628 215.238-137.32 334.547-104.867 68.467 18.143 135.629 49.526 179.247 98.561 73.03 29.558 107.605 92.52 170.444 136.15 19.583 57.29 68.008 107.58 51.966 174.495-10.806 68.553-5.665 138.881-26.948 205.9-14.938 38.889-8.306 89.727 6.942 21.711 7.532-30.767 19.142-129.197 17.588-45.785-5.45 50.527-29.668 95.1-31.956 144.961-16.529 54.014-5.028 118.164-8.563 165.89-5 53.237-8.847 92.23-54.91 134.343-11.312 12.538-83.951 52.626-34.608 34.875-12.298-2.76-13.66 55.138-49.763 46.313m-558.888-168.532c-10.295.172-3.815 11.66 0 0m-2.858-6.057c-21.092-22.031 28.19-95.597-10.011-42.473-55.556-46.79 10.364 50.06 10.011 42.473m593.285-51.209c23.105-39.233-46.372-30.594-2.283-6.057-7.01 5.77-9.635 21.137 2.283 6.057m-554.416-177.64c-23.613-84.225 136.36-89.052 92.991-174.247-32.547-62.466-89.088-6.194-125.306-1.149-74.612-42.549-127.655 58.139-52.22 97.553 30.082 20.352 74.182 56.74 84.535 77.842m499.254-68.606c43.974-41.529 158.722-104.16 73.836-166.733-59.99-31.446-91.396 45.495-152.627 16.613-77.8 5.48-89.638 123.222-4.463 129.964 49.626-6.605 63.077 102.016 83.254 20.156M1161.92 1227.78c-28.298-90.05-2.307-185.88 34.561-269.248-14.504 75.037-15.387 152.736-6.107 228.4 4.356 7.885-25.089 65.97-28.454 40.849M1172.271 944.15c-11.263-30.055 20.752-96.683 21.038-31.338-3.336 29.609-28.067 108.066-21.038 31.339" style="fill:#ffd5d5;stroke-width:2.39683"/><path d="M1198.783 945.35c9.105-32.09 7.876-96.71-29.191-70.574-13.935-46.581 50.833-89.993 46.192-18.835 3.316 29.21-4.585 67.507-17 89.408" style="fill:#ffd5d5;stroke-width:2.39683"/><path d="M269.344 1216.05c-58.246-55.464 11.614-142.906-15.01-211.252-5.704-58.445-51.632-127.409-14.926-180.551 49.774 41.729-14.863 113.825 21.55 169.436 12.52 73.471 48.436 149.04 21.474 222.9l-2.588 2.596z" style="fill:#ffd5d5;stroke-width:1.69481"/><path d="M275.115 996.452c-17.816-26.803-19.494-137.89-3.467-51.618 2.097 10.261 19.269 101.965 3.467 51.618" style="fill:#ffd5d5;stroke-width:1.69481"/><path d="M434.03 1077.953c-50.415-21.048-151.3-120.012-41.358-126.04 48.563 60.279 90.433-72.569 140.361 2.901 38.234 54.4-66.336 109.77-99.002 123.139M918.041 1047.497c-46.274-24.653-141.86-51.775-76.154-117.825 41.566-51.994 84.296 33.826 116.74-26.058 82.465-54.904 123.332 92.668 34.22 108.662-36.58 3.812-42.194 74.45-74.806 35.22" style="fill:red;stroke-width:1.69481"/><path d="M930.798 1636.27c-47.716-46.58 87.778-124.567 56.833-29.59-9.398 19.11-34.329 42.211-56.833 29.59" style="fill:#2b0000;stroke-width:1.69481"/><path d="M702.3 1716.097c-34.336-33.73-93.706-48.81-134.416-84.24-42.31-38.071-102.207-47.15-103.558-116.774-7.257-69.3 24.551-138.393 75.551-184.604 49-53.247 103.778 1.727 157.908 9.435 63.836-4.007 79.293-70.505 144.82-66.054 33.133-30.339 108.738 47.766 39.064 13.958 8.548 10.47 46.89 36.963 51.436 72.766 28.566 11.176 41.945 107.557 34.271 153.067 2.632 54.785-56.833 55.196-86.82 87.814-32.667 37.002-84.73 55.897-111.332 73.703-16.948 40.512-33.536 32.658-66.924 40.93m-37.449-47.216c43.714 16.797 28.522-45.916 77.056-30.227 12.86-27.521-61.523-1.593-49.406 26.104-39.793-42.553-37.206 46.714-27.65 4.123m133.382-27.25c53.852-40.537-29.473 10.744 0 0m-34.725-13.505c27.409-9.233 14.77-62.557 41.89-28.824 35.423-16.822 33.82-46.945-.03-12.718-25.123-31.632-65.163 49.668-50.274 44.783zm-142.761-7.9c-49.801-30.638-21.206-133.615-82.075-142.525 20.925 56.86-2.71 106.351-20.54 68.833 33.498 87.277 39.262-46.268 38.155-50.281 31.072 31.561 13.304 115.848 64.46 123.972m43.49-10.203c4.17-64.261 38.399 19.473 58.567-34.696 9.92 9.493 35.232 31.786 11.72-6.153-27.686-16.703-22.175 48.542-52.037 2.62-23.773-1.405-9.797 57.205-40.668 16.45-19.513-3.549-17.567 34.275-1.469 8.006 7.243 4.432 13.25 27.751 23.888 13.773m177.817-79.018c22.523 16.252 50.147 14.926 70.417-9.837 34.827-29.58 20.164-99.457 6.124-142.083-7.68-29.925-63.481-29.26-23.368-41.36-27.5-26.707-101.199 28.795-67.485 26.363 62.032-48.71 113.055 54.53 95.001 109.443 7.26 33.542-33.646 82.996-58.082 44.24-27.715-4.633-63.128 52.88-22.607 13.234m-117.524 13.913c66.324-8.402 111.098-67.817 167.358-101.911 33.576-54.649-54.36-59.375-81.671-37.651-63.437 4.135-123.16 8.02-187.552 15.544-33.859-6.983-123.336-43.153-94.278 27.035 50.154 16.804 81.202 57.695 111.886 88.608 36.31-19.854 53.75 13.131 84.257 8.375m-202.77-36.333c9.035-57.04-70.61-19.122-13.176-13.264 8.721 11.376 12.745 55.358 13.175 13.264m-24.247-70.663c-37.021-32.631 85.412-105.153 11.52-63.558-22.584 7.585-33.487 61.634-11.52 63.558m165.977-46.225c6.026-50.608 46.37 15.085 60.01-31.727 45.315 17.273 67.751-71.048 106.023-38.087 3.301-40.265-61.045 7.254-50.23 1.18-25.976 9.723-17.099 45.341-47.929 24.255-19.497 19.099-32.45 37.998-49.782 7.614-22.947 41.735-47.655 6.541-78.89-17.891 5.018 30.64 40.266 42.164 60.798 54.656m-57.822-12.898c-.786-44.547-64.84-30.804-42.202-9.46 19.999-45.942 29.86 27.41 42.202 9.46M1145.773 1935.933c-75.94-16.538-77.076-109.302-105.328-167.293-36.122-79.415-27.47 42.096-14.021 70.945 14.944 89.902-40.606-41.851-39.713-70.096 12.2-39.563-55.078-120.649-7.358-131.775 22.02 22.695 55.717 93.811 77.297 74.049-28.519-13.002-78.874-94.741-14.909-50.166 25.057 10.574 67.272 99.853 76.255 77.589-16.96-31.17-59.199-75.143 4.67-43.76 59.483 36.856 91.13 112.946 158.356 147.297-11.273 26.03-97.403-52.717-134.545-65.278 4.862 46.025 64.774 87.913 105.41 117.027 41.855 65.16-96.627-7.753-107.395-42.666-18.393-27.369-100.807-121.992-68.881-31.508 19.86 41.352 94.38 75.815 85.142 117.556z" style="fill:#ff7f2a;stroke-width:1.19841"/><path d="M977.046 1472.033c6.776-54.618-55.484-175.232-41.406-164.433 36.182 45.53 71.011 116.33 41.406 164.433" style="fill:#ff7f2a;stroke-width:1.19841"/><path d="M346.377 517.418c10.304-29.215 73.5-65.037 28.692-59.15-9.216 12.104-66.75 49.733-28.692 59.15" style="fill:#241c1c"/><path d="M351.374 512.728c33.027-52.64 88.993-80.102 132.268-121.91 55.666-29.857 86.851-40.74 147.413-51.103 29.713 16.284 55.519-30.164 69.929 13.375 59.777 9.18 120.654 26.002 178.716 8.22 50.506 26.984 102.14 55.776 140.151 99.843 48.229 20.892 71.506 115.525 121.833 101.435-41.517-53.618-89.632-100.63-140.666-145.685-45.793-31.238-95.022-79.327-152.548-71.635-47.906 18.442-99.302-9.119-146.601-13.956-28.568-36.665-52.508 13.305-87.732-7.718-53.751 19.428-108.471 23.391-154.442 66.622-38.33 33.782-120.16 71.64-116.428 120.48z" style="fill:#241c1c"/><path d="M280.476 877.021c12.458-64.84 79.527-76.633 126.447-106.584 53.283-46.348 109.318 69.348 126.089 100.224-60.969-31.841-137.796-32.408-203.43-20.324-14.82 9.567-39.646 18.475-49.106 26.684M825.56 850.66c19.361-39.53 95.232-92.743 120.808-83.908 57.317-24.449 104.98-19.524 147.384 3.704 26.33 36.803 46.332 82.287-20.556 62.528-44.258-20.203-116.745 16.208-147.187-3.562-33.311.527-66.837 22.385-100.45 21.237" style="fill:#ff7f2a;fill-opacity:1;stroke-width:1.19841"/><path d="M1181.5 780.646c-40.085-58.467-43.637-138.354-114.06-177.071-34.494-39.203-73.66-82.96-127.194-94.843-26.558-39.777-66.495-65.486-111.128-84.351-69.297-23.287-142.127-41.117-215.224-22.592-46.591 12.565-113.475 46.816-140.051 61.275-73.289 50.53-114.93 131.015-167.346 200.725 9.675-26.412 26.197-70.804.52-21.142-5.886 25.829-39.708 96.707-20.749 29.079 24.225-69.137 63.359-132.926 125.506-173.934 31.58-18.88 113.299-113.106 46.1-43.384-11.579 23.03-78.928 54.913-33.658 9.047 48.378-55.88 115.499-76.724 183.496-97.646 33.137-30.23 127.017 21.633 129.896.858-64.504-28.629-130.186-6.542-193.058 11.036-43.826 8.843-90.942 64.67-116.237 72.377 35.172-55.548 105.624-94.11 169.544-98.133 68.067-31.798 120.3 13.862 190.482 15.383 43.276.812 56.431 13.437 73.368 46.777 44.469 18.1 88.94 20.552 122.884 58.15 51.953-20.797 58.367 43.418 93.616 56.73 20.238 64.037 83.964 104.099 93.627 173.324 5.565 20.074 26.09 66.021 9.667 78.335M335.389 586.199c58.354-43.449-10.32-4.72 0 0m46.469-48.42c41.016-32.695-54.737 34.3 0 0m41.2-39.145c46.91-30.33-39.946 15.259 0 0" style="fill:#ff7f2a;fill-opacity:1;stroke-width:1.19841"/><path d="M985.565 469.6c-7.614-52.106-100.712-37.358-122.366-70.196-12.828-23.072-33.415-41.361 7.415-34.476 57.354 17.88 107.41 52.315 147.596 96.559-8.714 5.776-22.35 10.144-32.645 8.112M1154.832 638.332c-17.816-43.635-96.84-116.803-14.983-64.458 18.64 9.18 42.352 66.15 14.983 64.458M1193.911 752.167c-14.738-20.822-28.133-96.816 3.837-39.72 3.95 12.223 1.462 29.76-3.837 39.72" style="fill:#ff7f2a;fill-opacity:1;stroke-width:1.19841"/><path d="M279.476 643.767c-8.726-69.201 56.555-113.056 103.682-151.97 56.725-38.202-35.916 52.522-49.76 72.444-19.43 18.449-46.199 77.999-53.922 79.526" style="fill:#ff7f2a;fill-opacity:1;stroke-width:.847406"/><path d="M261.673 728.966c-9.295-34.92 30.705-84.005 11.532-20.322-2.272-1.308-9.824 33.333-11.532 20.322M261.1 686.106c2.217-33.765 18.111-74.675 7.21-13.681l-6.013 12.753zM338.118 519.522c30.146-24.966 99.347-98.14 92.786-80.371-22.562 28.83-70.33 73.727-92.786 80.37M237.957 793.125c-1.272-28.511 17.852-67.947 8.85-15.775 2.518-4.712-5.786 25.106-8.85 15.775" style="fill:#ff7f2a;fill-opacity:1;stroke-width:.599206"/><path d="M242.922 810.978c-9.026-27.887 35.18-31.101 0 0M1061.634 502.725c-35.881-13.81-14.031-30.323 0 0M1047.726 1649.454c-22.907-7.589-96.265-35.598-31.166-33.7 13.095 3.667 39.775 21.514 31.166 33.7" style="fill:#ff7f2a;fill-opacity:1;stroke-width:.599206"/><path d="M768.442 1437.496c-.648.99-.65-.975 0 0z" style="fill:#000;stroke:#000"/><path d="M772.652 1443.44c9.647-4.198 24.665-2.043 12.254-10.176-6.113-2.85-24.23.695-12.254 10.176" style="fill:#000;fill-opacity:1"/><path d="M773.22 1443.378c8.73-10.754 29.023 11.914 34.254-8.531-9.866 4.21-40.446-11.224-34.255 8.53M766.686 1435.794c-24.407-.018-27.036 17.05 4.94 6.625z" style="fill:#000;fill-opacity:1"/><path d="M772.478 1434.69c-23.05-4.662 1.13 21.61 0 0" style="fill:#000;fill-opacity:1"/><path d="M704.834 1472.86c-41.65 10.79-121.787-34.155-70.415-21.652-23.307 2.28 78.167 18.208 102.238 12.164 34.583-2.734 108.977-24.05 37.498 4.515-22.61 5.632-46.164 6.062-69.32 4.973" style="fill:#ff8080;fill-opacity:1;stroke-width:.599206"/><path d="M693.749 1454.54c-32.313 2.793-105.81-12.523-30.76-8.01 40.906 7.028 108.235-9.441 134.724.404-33.893 9.032-69.206 8.223-103.964 7.607" style="fill:#ff8080;fill-opacity:1;stroke-width:.599206"/></svg>