<?xml version="1.0" encoding="UTF-8" standalone="no"?>
<!-- Created with Inkscape (http://www.inkscape.org/) -->

<svg
   xmlns:dc="http://purl.org/dc/elements/1.1/"
   xmlns:cc="http://creativecommons.org/ns#"
   xmlns:rdf="http://www.w3.org/1999/02/22-rdf-syntax-ns#"
   xmlns:svg="http://www.w3.org/2000/svg"
   xmlns="http://www.w3.org/2000/svg"
   xmlns:sodipodi="http://sodipodi.sourceforge.net/DTD/sodipodi-0.dtd"
   xmlns:inkscape="http://www.inkscape.org/namespaces/inkscape"
   width="29.633749mm"
   height="29.633749mm"
   viewBox="0 0 29.633749 29.633749"
   version="1.1"
   id="svg5340"
   inkscape:version="0.92.4 (5da689c313, 2019-01-14)"
   sodipodi:docname="person-spectating.svg">
  <defs
     id="defs5334" />
  <sodipodi:namedview
     id="base"
     pagecolor="#ffffff"
     bordercolor="#666666"
     borderopacity="1.0"
     inkscape:pageopacity="0.0"
     inkscape:pageshadow="2"
     inkscape:zoom="2.6326731"
     inkscape:cx="20.694166"
     inkscape:cy="110.33214"
     inkscape:document-units="mm"
     inkscape:current-layer="layer1"
     showgrid="false"
     inkscape:window-width="1680"
     inkscape:window-height="987"
     inkscape:window-x="1432"
     inkscape:window-y="-8"
     inkscape:window-maximized="1"
     fit-margin-top="0"
     fit-margin-left="0"
     fit-margin-right="0"
     fit-margin-bottom="0" />
  <metadata
     id="metadata5337">
    <rdf:RDF>
      <cc:Work
         rdf:about="">
        <dc:format>image/svg+xml</dc:format>
        <dc:type
           rdf:resource="http://purl.org/dc/dcmitype/StillImage" />
        <dc:title></dc:title>
      </cc:Work>
    </rdf:RDF>
  </metadata>
  <g
     inkscape:label="Layer 1"
     inkscape:groupmode="layer"
     id="layer1"
     transform="translate(-117.89954,-41.535228)">
    <rect
       style="fill:none;stroke:#000000;stroke-width:0.26499999;stroke-miterlimit:4;stroke-dasharray:none;stroke-dashoffset:0;stroke-opacity:1"
       id="rect818-0"
       width="29.36875"
       height="29.36875"
       x="118.03204"
       y="41.667728" />
    <path
       inkscape:connector-curvature="0"
       style="fill:#333333;stroke-width:0.26458326"
       d="m 136.36995,60.354642 c 0.9593,-2.096561 0.44625,-3.374396 1.13961,-4.890317 0.1324,-0.284 0.0217,-0.620381 -0.26147,-0.755758 l -0.002,-0.0013 0.25081,-0.510554 c 0.13812,-0.281859 0.0206,-0.620691 -0.26166,-0.756321 l -1.02552,-0.491451 c -0.2833,-0.135779 -0.62479,-0.01705 -0.76273,0.26515 l -0.25084,0.510506 -1.02548,-0.491457 0.25039,-0.510491 c 0.13853,-0.281962 0.0212,-0.620357 -0.26165,-0.75632 l -1.0255,-0.491466 c -0.2833,-0.13578 -0.62482,-0.01705 -0.76286,0.265196 l -0.25041,0.510411 -0.002,-0.0014 c -0.28274,-0.135525 -0.61596,-0.01203 -0.76199,0.265767 -0.77278,1.477822 -2.10693,1.870486 -3.17737,3.913824 l -0.22486,0.443995 c -0.20696,0.422754 -0.031,0.93077 0.39319,1.134395 l 2.05101,0.982887 c 0.42508,0.203412 0.93719,0.02585 1.1445,-0.397351 l 1.12629,-2.296866 1.02556,0.491452 -1.12627,2.296861 c -0.20698,0.422763 -0.031,0.930793 0.39318,1.13441 l 2.05104,0.982878 c 0.42508,0.203413 0.93726,0.02574 1.14451,-0.397351 z m -0.41175,-6.89498 1.0256,0.491434 -0.25082,0.510547 -1.02548,-0.491474 z m -3.07647,-1.474306 1.02546,0.491387 -0.25083,0.510513 -1.02546,-0.491401 z m -1.85289,6.361223 c -0.0685,0.140554 -0.24096,0.200116 -0.38195,0.132216 l -2.05095,-0.982898 c -0.14101,-0.06793 -0.20044,-0.23754 -0.13036,-0.378601 0,0 0.33944,-0.650112 0.39787,-0.754986 l 2.54007,1.217242 z m 0.62575,-1.27605 -2.47599,-1.186489 c 0.39873,-0.555172 0.81733,-0.957478 1.22744,-1.34661 0.51873,-0.492279 1.05407,-1.001441 1.4597,-1.778197 l 1.54082,0.738342 z m 1.26347,-1.285561 1.00112,-2.041676 1.02561,0.49144 -1.0012,2.0417 z m 2.53938,-1.304531 1.54088,0.738364 -0.005,0.01228 c -0.35641,0.78302 -0.43015,1.513587 -0.49987,2.220817 -0.0554,0.558969 -0.115,1.133289 -0.30879,1.786701 l -2.47604,-1.186535 z m 0.18635,6.077512 c -0.0685,0.140564 -0.24055,0.200055 -0.38139,0.132527 l -2.05098,-0.983111 c -0.1418,-0.06763 -0.20051,-0.237445 -0.13036,-0.378602 l 0.37539,-0.765613 2.54003,1.217261 c -0.044,0.113261 -0.35284,0.776172 -0.35284,0.776172 z"
       id="path2" />
  </g>
</svg>
