<?xml version="1.0" encoding="UTF-8" standalone="no"?>
<svg
   xmlns:dc="http://purl.org/dc/elements/1.1/"
   xmlns:cc="http://creativecommons.org/ns#"
   xmlns:rdf="http://www.w3.org/1999/02/22-rdf-syntax-ns#"
   xmlns:svg="http://www.w3.org/2000/svg"
   xmlns="http://www.w3.org/2000/svg"
   xmlns:sodipodi="http://sodipodi.sourceforge.net/DTD/sodipodi-0.dtd"
   xmlns:inkscape="http://www.inkscape.org/namespaces/inkscape"
   aria-hidden="true"
   focusable="false"
   data-prefix="fal"
   data-icon="question-circle"
   class="svg-inline--fa fa-question-circle fa-w-16"
   role="img"
   viewBox="0 0 512 512"
   version="1.1"
   id="svg4"
   sodipodi:docname="help.svg"
   inkscape:version="0.92.2 5c3e80d, 2017-08-06">
  <metadata
     id="metadata10">
    <rdf:RDF>
      <cc:Work
         rdf:about="">
        <dc:format>image/svg+xml</dc:format>
        <dc:type
           rdf:resource="http://purl.org/dc/dcmitype/StillImage" />
      </cc:Work>
    </rdf:RDF>
  </metadata>
  <defs
     id="defs8" />
  <sodipodi:namedview
     pagecolor="#ffffff"
     bordercolor="#666666"
     borderopacity="1"
     objecttolerance="10"
     gridtolerance="10"
     guidetolerance="10"
     inkscape:pageopacity="0"
     inkscape:pageshadow="2"
     inkscape:window-width="723"
     inkscape:window-height="480"
     id="namedview6"
     showgrid="false"
     inkscape:zoom="0.4609375"
     inkscape:cx="256"
     inkscape:cy="256"
     inkscape:window-x="0"
     inkscape:window-y="592"
     inkscape:window-maximized="0"
     inkscape:current-layer="svg4" />
  <path
     fill="currentColor"
     d="M256 340c-15.464 0-28 12.536-28 28s12.536 28 28 28 28-12.536 28-28-12.536-28-28-28zm7.67-24h-16c-6.627 0-12-5.373-12-12v-.381c0-70.343 77.44-63.619 77.44-107.408 0-20.016-17.761-40.211-57.44-40.211-29.144 0-44.265 9.649-59.211 28.692-3.908 4.98-11.054 5.995-16.248 2.376l-13.134-9.15c-5.625-3.919-6.86-11.771-2.645-17.177C185.658 133.514 210.842 116 255.67 116c52.32 0 97.44 29.751 97.44 80.211 0 67.414-77.44 63.849-77.44 107.408V304c0 6.627-5.373 12-12 12zM256 40c118.621 0 216 96.075 216 216 0 119.291-96.61 216-216 216-119.244 0-216-96.562-216-216 0-119.203 96.602-216 216-216m0-32C119.043 8 8 119.083 8 256c0 136.997 111.043 248 248 248s248-111.003 248-248C504 119.083 392.957 8 256 8z"
     id="path2" />
  <path
     style="fill:#333333;stroke:none;stroke-width:3;stroke-miterlimit:4;stroke-dasharray:none;stroke-opacity:1"
     d="M 206.53559,497.88863 C 130.55138,481.03064 69.732968,434.19451 35.393436,366.09243 -31.897038,232.64215 35.855787,69.600866 178.50105,21.716429 226.79096,5.5060406 285.08689,5.4953024 333.54863,21.68787 c 108.68701,36.315692 179.5418,144.86524 168.08406,257.50482 -8.4987,83.54987 -57.08108,156.16512 -129.98918,194.29261 -40.83124,21.35283 -61.14764,26.4638 -109.78588,27.61882 -30.48207,0.72383 -40.08099,0.16597 -55.32204,-3.21549 z m 93.36268,-29.54236 c 81.9919,-17.06674 146.99368,-80.40441 167.36846,-163.08367 6.67325,-27.07957 6.6575,-71.94129 -0.0347,-99.10566 C 451.3631,141.74474 410.08649,90.44203 350.80678,61.452138 320.179,46.474058 300.91605,41.833502 263.8146,40.495228 240.27203,39.646032 229.0954,40.229606 215.27705,43.029563 131.67732,59.969033 68.063353,119.59281 45.958925,201.72719 c -6.493861,24.12953 -8.069964,65.1366 -3.50764,91.26192 21.064654,120.62287 137.941735,200.23238 257.446985,175.35716 z"
     id="path3701"
     inkscape:connector-curvature="0" />
  <path
     style="fill:#333333;stroke:none;stroke-width:3;stroke-miterlimit:4;stroke-dasharray:none;stroke-opacity:1"
     d="m 240.49896,311.47663 c -8.06285,-8.90934 -1.87327,-35.53784 11.89668,-51.18133 4.94934,-5.62275 16.42505,-15.1685 25.50158,-21.21279 30.90681,-20.58162 39.13814,-32.26263 35.12485,-49.84537 -2.79187,-12.23156 -9.93081,-20.45998 -23.55577,-27.15064 -11.13036,-5.46567 -14.67843,-6.09566 -34.11715,-6.05777 -26.4963,0.0516 -37.28177,4.22604 -52.83716,20.45001 -12.17974,12.70322 -17.03201,13.57961 -28.31399,5.11391 -14.80727,-11.11099 -14.65105,-14.56142 1.42234,-31.41583 22.29402,-23.37732 43.69327,-32.15648 78.38155,-32.15648 34.28192,0 55.09049,7.29218 75.27099,26.37806 19.6523,18.58632 27.08847,46.08504 19.51095,72.1508 -4.36908,15.02911 -18.68772,30.3987 -45.64626,48.99656 -19.5631,13.49598 -26.31601,22.057 -28.40928,36.0159 -1.71871,11.46116 -5.20432,13.88241 -19.98501,13.88241 -7.56603,0 -11.69447,-1.14989 -14.24432,-3.96744 z"
     id="path3703"
     inkscape:connector-curvature="0" />
  <path
     style="fill:#333333;stroke:none;stroke-width:3;stroke-miterlimit:4;stroke-dasharray:none;stroke-opacity:1"
     d="m 247.75705,393.30219 c -20.96628,-8.45417 -24.74225,-34.74324 -6.73113,-46.86356 23.94265,-16.11186 52.23467,10.9393 37.21088,35.57884 -6.45429,10.58524 -19.88374,15.55732 -30.47975,11.28472 z"
     id="path3705"
     inkscape:connector-curvature="0" />
</svg>
