<svg xmlns="http://www.w3.org/2000/svg" aria-hidden="true" class="svg-inline--fa fa-question-circle fa-w-16" data-icon="question-circle" data-prefix="fal" viewBox="0 0 512 512"><path fill="currentColor" d="M256 340c-15.464 0-28 12.536-28 28s12.536 28 28 28 28-12.536 28-28-12.536-28-28-28m7.67-24h-16c-6.627 0-12-5.373-12-12v-.381c0-70.343 77.44-63.619 77.44-107.408 0-20.016-17.761-40.211-57.44-40.211-29.144 0-44.265 9.649-59.211 28.692-3.908 4.98-11.054 5.995-16.248 2.376l-13.134-9.15c-5.625-3.919-6.86-11.771-2.645-17.177C185.658 133.514 210.842 116 255.67 116c52.32 0 97.44 29.751 97.44 80.211 0 67.414-77.44 63.849-77.44 107.408V304c0 6.627-5.373 12-12 12M256 40c118.621 0 216 96.075 216 216 0 119.291-96.61 216-216 216-119.244 0-216-96.562-216-216 0-119.203 96.602-216 216-216m0-32C119.043 8 8 119.083 8 256c0 136.997 111.043 248 248 248s248-111.003 248-248C504 119.083 392.957 8 256 8"/><path d="M206.536 497.889C130.55 481.03 69.733 434.195 35.393 366.092c-67.29-133.45.463-296.491 143.108-344.376 48.29-16.21 106.586-16.22 155.048-.028C442.236 58.004 513.09 166.553 501.633 279.193c-8.499 83.55-57.081 156.165-129.99 194.292-40.83 21.353-61.147 26.464-109.785 27.62-30.482.723-40.081.165-55.322-3.216m93.362-29.543c81.992-17.066 146.994-80.404 167.369-163.083 6.673-27.08 6.657-71.942-.035-99.106-15.869-64.412-57.146-115.715-116.425-144.705-30.628-14.978-49.891-19.618-86.992-20.957-23.543-.849-34.72-.265-48.538 2.535-83.6 16.939-147.214 76.563-169.318 158.697-6.494 24.13-8.07 65.137-3.508 91.262 21.065 120.623 137.942 200.232 257.447 175.357" style="fill:#333;stroke:none;stroke-width:3;stroke-miterlimit:4;stroke-dasharray:none;stroke-opacity:1"/><path d="M240.499 311.477c-8.063-8.91-1.873-35.538 11.897-51.182 4.949-5.622 16.425-15.168 25.501-21.212 30.907-20.582 39.138-32.263 35.125-49.846-2.792-12.231-9.93-20.46-23.556-27.15-11.13-5.466-14.678-6.096-34.117-6.058-26.496.051-37.282 4.226-52.837 20.45-12.18 12.703-17.032 13.58-28.314 5.114-14.807-11.111-14.651-14.562 1.422-31.416 22.294-23.377 43.694-32.157 78.382-32.157 34.282 0 55.09 7.293 75.27 26.378 19.653 18.587 27.09 46.085 19.512 72.151-4.37 15.03-18.688 30.399-45.646 48.997-19.564 13.496-26.316 22.057-28.41 36.016-1.718 11.46-5.204 13.882-19.985 13.882-7.566 0-11.694-1.15-14.244-3.967M247.757 393.302c-20.966-8.454-24.742-34.743-6.731-46.863 23.943-16.112 52.235 10.939 37.21 35.578-6.453 10.586-19.883 15.558-30.479 11.285" style="fill:#333;stroke:none;stroke-width:3;stroke-miterlimit:4;stroke-dasharray:none;stroke-opacity:1"/></svg>
