<?xml version="1.0" encoding="UTF-8" standalone="no"?>
<!-- Created with Inkscape (http://www.inkscape.org/) -->

<svg
   xmlns:dc="http://purl.org/dc/elements/1.1/"
   xmlns:cc="http://creativecommons.org/ns#"
   xmlns:rdf="http://www.w3.org/1999/02/22-rdf-syntax-ns#"
   xmlns:svg="http://www.w3.org/2000/svg"
   xmlns="http://www.w3.org/2000/svg"
   xmlns:sodipodi="http://sodipodi.sourceforge.net/DTD/sodipodi-0.dtd"
   xmlns:inkscape="http://www.inkscape.org/namespaces/inkscape"
   width="209.65369mm"
   height="209.1783mm"
   viewBox="0 0 742.86739 741.18295"
   id="svg4138"
   version="1.1"
   inkscape:version="0.91 r13725"
   sodipodi:docname="logo.svg">
  <defs
     id="defs4140" />
  <sodipodi:namedview
     id="base"
     pagecolor="#ffffff"
     bordercolor="#666666"
     borderopacity="1.0"
     inkscape:pageopacity="0.0"
     inkscape:pageshadow="2"
     inkscape:zoom="0.6718989"
     inkscape:cx="371.43371"
     inkscape:cy="370.59147"
     inkscape:document-units="px"
     inkscape:current-layer="layer1"
     showgrid="false"
     fit-margin-top="0"
     fit-margin-left="0"
     fit-margin-right="0"
     fit-margin-bottom="0"
     inkscape:window-width="1280"
     inkscape:window-height="700"
     inkscape:window-x="0"
     inkscape:window-y="1"
     inkscape:window-maximized="1" />
  <metadata
     id="metadata4143">
    <rdf:RDF>
      <cc:Work
         rdf:about="">
        <dc:format>image/svg+xml</dc:format>
        <dc:type
           rdf:resource="http://purl.org/dc/dcmitype/StillImage" />
        <dc:title />
      </cc:Work>
    </rdf:RDF>
  </metadata>
  <g
     inkscape:label="Layer 1"
     inkscape:groupmode="layer"
     id="layer1"
     transform="translate(-30.434411,-104.51766)">
    <path
       style="fill:#000000"
       d="m 389.14137,845.28517 c -13.66406,-0.64016 -18.50831,-1.21256 -42.15633,-4.98138 -26.40216,-4.20779 -66.66585,-15.23425 -78.66833,-21.54389 -1.46012,-0.76757 -3.26044,-1.41085 -4.00072,-1.42959 -0.74027,-0.0191 -3.14627,-0.90562 -5.34666,-1.97092 -2.20039,-1.06521 -4.32441,-1.95218 -4.72004,-1.97082 -1.88871,-0.0892 -32.46602,-15.47144 -39.72575,-19.98427 -4.52211,-2.81108 -8.39728,-5.1111 -8.61149,-5.1111 -0.37731,0 -4.64929,-2.94885 -18.66712,-12.88562 -3.69204,-2.61716 -8.19284,-6.08774 -10.00178,-7.71242 -1.80895,-1.62467 -7.56475,-6.74906 -12.79069,-11.38755 -18.03212,-16.0051 -34.21381,-32.56623 -46.00821,-47.08701 -1.92534,-2.37041 -4.1017,-4.95255 -4.83635,-5.7381 -1.65788,-1.77277 -10.79329,-14.44038 -17.649154,-24.47322 -4.15054,-6.07387 -11.443632,-18.14471 -17.554392,-29.05436 -1.532934,-2.73678 -13.182582,-26.50898 -14.492026,-29.57232 -0.707026,-1.65405 -2.176018,-5.03732 -3.264423,-7.51839 -1.914021,-4.36309 -5.15745,-12.8083 -7.699944,-20.04903 -0.677601,-1.92972 -1.791859,-5.08744 -2.476141,-7.01716 -0.684273,-1.92972 -1.862443,-5.7641 -2.618138,-8.52084 -0.755704,-2.75674 -2.316623,-8.39553 -3.468709,-12.53064 -1.767455,-6.34381 -5.020586,-20.09018 -6.523944,-27.56742 -3.288447,-16.3557 -7.417023,-56.97941 -7.426585,-73.0748 -0.0142,-23.97467 4.511035,-62.50259 10.079209,-85.81377 1.119419,-4.68647 2.629369,-11.00191 3.355438,-14.03433 0.72607,-3.03241 1.783359,-6.64124 2.34954,-8.01961 0.566181,-1.37837 2.006098,-5.66385 3.199831,-9.52329 2.344598,-7.58031 5.21148,-15.40112 8.268065,-22.55516 1.060039,-2.48107 2.2965,-5.41324 2.74768,-6.51593 4.993801,-12.20487 18.069295,-36.01622 26.945959,-49.07042 1.893137,-2.78408 4.408276,-6.48345 5.589197,-8.2208 5.788843,-8.51654 24.065307,-29.13456 39.914837,-45.0287 17.54526,-17.59464 25.72656,-24.74539 46.07085,-40.26755 0.5501,-0.41971 3.02554,-2.11514 5.50098,-3.76765 2.47545,-1.65249 4.72585,-3.23557 5.0009,-3.51796 1.22348,-1.25612 9.05132,-6.00814 9.89699,-6.00814 0.51605,0 1.0883,-0.38148 1.27167,-0.84771 1.02552,-2.60756 46.28208,-25.83184 54.10243,-27.7637 1.51797,-0.37498 3.00729,-1.08292 3.30961,-1.57319 0.30232,-0.49027 1.31075,-0.89418 2.24095,-0.89758 0.93021,-0.003 2.81649,-0.59281 4.19173,-1.3098 1.37525,-0.71699 6.55117,-2.55394 11.50205,-4.08209 4.95089,-1.52816 10.12681,-3.16871 11.50206,-3.64568 3.52814,-1.22362 20.10112,-5.42152 29.00517,-7.34694 4.12574,-0.89215 10.6519,-2.30165 14.50259,-3.13223 3.85069,-0.83057 10.7427,-1.95628 15.31557,-2.50157 4.57289,-0.5453 8.64697,-1.19749 9.05352,-1.44933 0.40655,-0.25182 6.56687,-0.95804 13.68959,-1.56937 7.12273,-0.61131 14.63822,-1.27786 16.70109,-1.48121 2.06287,-0.20334 3.75067,0.0427 3.75067,0.5467 0,0.50402 -1.40125,0.91641 -3.11388,0.91641 -8.06031,0 -45.63629,10.67018 -58.89718,16.72462 -18.8011,8.58389 -28.52359,14.15772 -44.00723,25.229 -17.18881,12.29055 -40.45221,34.36626 -54.51035,51.72739 -2.2004,2.71738 -5.06808,6.0954 -6.37262,7.50671 -5.77475,6.24733 -31.99619,42.68306 -33.40912,46.42327 -0.36449,0.96486 -1.12691,1.75429 -1.69428,1.75429 -0.56737,0 -1.03157,0.52836 -1.03157,1.17413 0,0.64577 -0.60825,1.88631 -1.35167,2.75675 -3.30308,3.8674 -14.59805,28.18436 -20.26537,43.62927 -2.43907,6.64715 -4.86612,12.98793 -5.39344,14.09062 -0.52731,1.1027 -1.40272,3.80932 -1.94536,6.01471 -0.54262,2.2054 -1.93957,7.39308 -3.10432,11.5282 -4.29052,15.23226 -7.8211,32.32301 -10.14715,49.12012 -1.57091,11.34406 -1.47209,68.40626 0.13368,77.18877 0.65525,3.58377 1.7966,10.35032 2.53635,15.03678 0.73974,4.68646 1.78199,10.0997 2.31612,12.02942 0.53412,1.92972 2.22201,8.69626 3.75084,15.03677 1.52884,6.34051 3.09401,11.75374 3.47816,12.02942 0.38415,0.27567 1.00652,2.18065 1.38305,4.23327 0.92716,5.05438 9.59671,26.96891 15.77469,39.8746 4.85701,10.14621 13.57867,26.03222 14.85976,27.06619 0.34155,0.27567 0.88335,1.21681 1.20398,2.0914 1.05437,2.87612 13.27174,20.38008 21.13088,30.27445 7.77424,9.7875 29.26645,32.7935 30.63568,32.7935 0.40601,0 1.1985,-2.59384 1.7611,-5.76409 0.5626,-3.17026 1.51547,-7.11741 2.11748,-8.77146 0.602,-1.65404 2.04585,-6.39062 3.20855,-10.52574 2.76874,-9.84695 5.92043,-20.04534 6.97039,-22.55516 0.46132,-1.10269 2.47946,-5.83577 4.48476,-10.51795 6.9373,-16.1978 9.68868,-26.5572 10.91807,-41.1083 0.7363,-8.7149 3.59088,-22.71395 7.25663,-35.58703 3.94357,-13.84869 3.98157,-14.82127 0.63389,-16.22299 -2.64391,-1.10704 -7.98165,-4.01904 -21.33408,-11.63877 -14.24998,-8.13194 -25.35376,-17.59332 -28.9584,-24.67507 -2.7125,-5.32901 -2.5932,-6.94148 0.90523,-12.23513 2.94933,-4.46282 13.20975,-14.92294 14.63802,-14.92294 0.41547,0 1.46597,-0.6389 2.33444,-1.41976 2.68871,-2.41751 15.06677,-8.56967 26.58348,-13.21258 6.05108,-2.43946 11.78349,-4.88173 12.7387,-5.42726 0.95521,-0.54553 2.30545,-0.99945 3.00054,-1.00868 0.69508,-0.009 3.73924,-1.34458 6.76477,-2.96742 3.02554,-1.62285 6.61174,-3.44592 7.96934,-4.05126 4.81433,-2.14667 16.49911,-13.10503 27.68476,-25.96362 11.68378,-13.43124 25.59963,-27.75148 34.54571,-35.54964 6.15976,-5.36935 13.81258,-8.97545 21.7447,-10.24634 9.48897,-1.52033 17.43243,-3.77565 19.54973,-5.55058 4.52419,-3.79262 10.54301,-10.33861 17.6011,-19.1427 4.30306,-5.36753 8.79466,-10.78077 9.98135,-12.02942 1.18669,-1.24866 2.89147,-3.39804 3.7884,-4.77641 0.89693,-1.37838 5.93289,-8.37048 11.19103,-15.538 9.47918,-12.92137 20.97512,-29.31349 20.97512,-29.90853 0,-0.17017 4.72584,-7.43013 10.50187,-16.13322 5.77603,-8.7031 10.50188,-15.99628 10.50188,-16.20708 0,-1.3076 10.87679,-15.65481 12.7229,-16.78235 1.76941,-1.0807 6.55191,1.70545 9.51385,5.5425 1.40831,1.82439 3.97553,4.88475 5.70495,6.80082 1.72943,1.91605 4.57427,5.75043 6.32188,8.52083 1.7476,2.7704 3.46471,5.26264 3.81577,5.53832 0.35107,0.27567 2.2759,3.60889 4.27739,7.40715 5.46496,10.37092 7.04992,20.41059 6.30654,39.94772 -0.33018,8.67771 -0.33937,16.45924 -0.0204,17.29229 0.9923,2.59181 4.28888,1.69073 6.37791,-1.74333 1.41604,-2.32774 1.98299,-5.04685 1.98566,-9.52329 0.004,-7.29263 0.50556,-7.54051 7.60112,-3.75919 6.09732,3.24935 8.59827,3.15921 13.90646,-0.50122 2.39861,-1.65405 5.3624,-3.00736 6.58618,-3.00736 2.76125,0 9.16081,6.5782 11.98137,12.31583 5.02757,10.22712 6.17027,14.74526 6.10561,24.141 -0.10717,15.57345 -4.75051,27.07224 -15.18952,37.61542 -5.73891,5.79614 -12.98429,15.01782 -12.98429,16.52592 0,0.28463 -1.57528,3.21143 -3.50062,6.50399 -1.92535,3.29256 -3.50063,6.51905 -3.50063,7.16999 0,0.65092 -0.647,2.60498 -1.43777,4.34235 -4.77001,10.47986 -7.49743,18.94943 -10.54033,32.73117 -5.15905,23.36612 -6.36706,28.13759 -9.5151,37.58308 -6.4912,19.47642 -6.92147,22.95408 -6.94662,56.14614 -0.0207,27.35173 0.1772,30.98978 2.18699,40.19706 1.21537,5.56793 3.56719,13.46224 5.22627,17.5429 1.65907,4.08067 3.01804,7.80232 3.01992,8.27035 0.002,0.46802 0.67557,2.27243 1.49707,4.0098 3.65324,7.72616 7.39116,26.33936 7.57965,37.74344 0.125,7.56271 -1.74389,19.6526 -3.48665,22.55516 -5.12063,8.52832 -8.58165,27.20684 -9.28747,50.12258 -0.53637,17.41433 -0.47239,18.24158 1.83282,23.70147 l 2.38856,5.65734 7.9912,-2.75772 c 9.52993,-3.28872 12.39164,-4.41859 18.99316,-7.49889 17.82441,-8.31695 27.38782,-13.30631 36.50651,-19.04596 2.47544,-1.55813 7.12167,-4.46372 10.32495,-6.45687 5.15289,-3.20622 15.01288,-10.24111 18.38797,-13.11943 0.6644,-0.56661 1.51465,-1.0302 1.88943,-1.0302 0.37479,0 3.43183,-2.37602 6.79343,-5.28004 3.36159,-2.90403 8.32245,-7.05376 11.02412,-9.22165 6.28443,-5.04276 32.69034,-31.26378 39.40535,-39.12947 2.82415,-3.30809 5.74394,-6.69136 6.48841,-7.51839 7.95256,-8.83434 27.6715,-36.80237 34.2789,-48.6189 0.61659,-1.1027 2.05828,-3.58376 3.20375,-5.51348 4.7101,-7.93489 19.10606,-37.75278 21.53709,-44.6091 0.78196,-2.20539 2.5619,-7.16753 3.95541,-11.02696 3.81822,-10.57486 7.26512,-22.59595 10.06042,-35.08581 1.4895,-6.65532 -0.22446,22.55805 -2.76426,47.11522 -2.72162,26.31508 -9.83536,67.30438 -13.48319,77.69 -0.48414,1.37837 -1.86888,5.8894 -3.07719,10.02452 -3.14696,10.76955 -7.18382,22.39697 -8.16142,23.50749 -0.4611,0.52378 -0.83836,1.58336 -0.83836,2.35462 0,0.77127 -0.73479,3.04934 -1.63286,5.06239 -0.89807,2.01304 -2.53407,5.69004 -3.63555,8.17111 -5.84023,13.15509 -16.08547,32.84554 -20.50525,39.4093 -1.77734,2.63949 -3.23152,4.99598 -3.23152,5.23665 0,0.89852 -11.58202,17.32494 -18.4189,26.12296 -15.89665,20.45656 -38.50917,43.65275 -57.59466,59.08129 -4.67583,3.7799 -8.72656,7.16222 -9.00161,7.51627 -1.0491,1.3504 -19.87881,14.80975 -28.05071,20.05046 -4.70098,3.01478 -9.42682,6.04859 -10.50188,6.74179 -1.07505,0.6932 -3.07983,1.81173 -4.45508,2.48568 -1.37525,0.67405 -2.72549,1.48744 -3.00054,1.80772 -0.91676,1.06741 -23.58622,11.86522 -32.60843,15.53198 -19.31838,7.8512 -27.30875,10.42931 -49.4062,15.94099 -19.00688,4.74079 -24.15633,5.63358 -49.50884,8.58379 -10.36632,1.20625 -46.14573,1.68572 -63.86258,0.85569 z m 2.35161,-741.66635 c 0.82515,-0.53447 2.17539,-0.94696 3.00053,-0.91665 0.98924,0.0363 0.81889,0.34858 -0.50009,0.91665 -2.74958,1.18421 -4.32874,1.18421 -2.50044,0 z"
       id="path4767"
       inkscape:connector-curvature="0" />
  </g>
</svg>
