<svg xmlns="http://www.w3.org/2000/svg" width="792.392" height="790.595" viewBox="0 0 742.867 741.183"><path d="M389.141 845.285c-13.664-.64-18.508-1.212-42.156-4.981-26.402-4.208-66.666-15.234-78.668-21.544-1.46-.768-3.26-1.41-4.001-1.43-.74-.019-3.146-.905-5.347-1.97-2.2-1.066-4.324-1.953-4.72-1.971-1.888-.09-32.466-15.472-39.725-19.985-4.523-2.81-8.398-5.11-8.612-5.11-.377 0-4.65-2.95-18.667-12.886-3.692-2.618-8.193-6.088-10.002-7.713s-7.565-6.749-12.79-11.387c-18.033-16.005-34.214-32.567-46.009-47.087-1.925-2.37-4.101-4.953-4.836-5.738-1.658-1.773-10.793-14.44-17.65-24.474-4.15-6.074-11.443-18.144-17.554-29.054-1.533-2.737-13.182-26.51-14.492-29.572a1088 1088 0 0 0-3.264-7.519c-1.914-4.363-5.158-12.808-7.7-20.049-.678-1.93-1.792-5.087-2.476-7.017s-1.863-5.764-2.618-8.52c-.756-2.758-2.317-8.396-3.469-12.531-1.767-6.344-5.02-20.09-6.524-27.568-3.288-16.356-7.417-56.98-7.427-73.075-.014-23.974 4.511-62.502 10.08-85.813l3.355-14.035c.726-3.032 1.783-6.641 2.35-8.02.566-1.378 2.006-5.663 3.2-9.523a236 236 0 0 1 8.268-22.555 638 638 0 0 0 2.747-6.516c4.994-12.205 18.07-36.016 26.946-49.07l5.59-8.221c5.788-8.517 24.065-29.135 39.914-45.029 17.545-17.594 25.727-24.745 46.071-40.267.55-.42 3.026-2.115 5.501-3.768s4.726-3.235 5-3.518c1.224-1.256 9.052-6.008 9.898-6.008.516 0 1.088-.381 1.272-.848 1.025-2.607 46.282-25.832 54.102-27.763 1.518-.375 3.007-1.083 3.31-1.574.302-.49 1.31-.894 2.24-.897s2.817-.593 4.192-1.31 6.551-2.554 11.502-4.082 10.127-3.169 11.502-3.646c3.529-1.223 20.102-5.421 29.006-7.347 4.125-.892 10.651-2.301 14.502-3.132 3.85-.83 10.743-1.956 15.316-2.501 4.573-.546 8.647-1.198 9.053-1.45s6.567-.958 13.69-1.57c7.123-.61 14.638-1.277 16.701-1.48s3.75.042 3.75.546-1.4.917-3.113.917c-8.06 0-45.637 10.67-58.897 16.724-18.802 8.584-28.524 14.158-44.008 25.23-17.188 12.29-40.452 34.366-54.51 51.727-2.2 2.717-5.068 6.095-6.373 7.506-5.774 6.248-31.996 42.684-33.409 46.424-.364.965-1.127 1.754-1.694 1.754s-1.032.528-1.032 1.174-.608 1.886-1.351 2.757c-3.303 3.867-14.598 28.184-20.266 43.63-2.439 6.646-4.866 12.987-5.393 14.09s-1.403 3.81-1.945 6.014c-.543 2.206-1.94 7.394-3.105 11.529-4.29 15.232-7.82 32.323-10.147 49.12-1.57 11.344-1.472 68.406.134 77.189.655 3.583 1.796 10.35 2.536 15.036.74 4.687 1.782 10.1 2.316 12.03s2.222 8.696 3.751 15.037c1.529 6.34 3.094 11.753 3.478 12.029s1.007 2.18 1.383 4.233c.927 5.055 9.597 26.97 15.775 39.875 4.857 10.146 13.579 26.032 14.86 27.066.341.276.883 1.217 1.204 2.091 1.054 2.877 13.271 20.38 21.13 30.275 7.775 9.787 29.267 32.793 30.636 32.793.406 0 1.199-2.593 1.761-5.764.563-3.17 1.516-7.117 2.118-8.771s2.046-6.39 3.208-10.526c2.77-9.847 5.92-20.045 6.97-22.555.462-1.103 2.48-5.836 4.486-10.518 6.937-16.198 9.688-26.557 10.918-41.108.736-8.715 3.59-22.714 7.256-35.587 3.944-13.85 3.982-14.822.634-16.223-2.644-1.107-7.982-4.02-21.334-11.64-14.25-8.131-25.354-17.592-28.958-24.674-2.713-5.33-2.594-6.942.905-12.235 2.95-4.463 13.21-14.923 14.638-14.923.415 0 1.466-.64 2.334-1.42 2.69-2.418 15.067-8.57 26.584-13.213 6.05-2.44 11.783-4.881 12.739-5.427.955-.545 2.305-1 3-1.009s3.74-1.344 6.765-2.967 6.612-3.446 7.97-4.051c4.814-2.147 16.498-13.105 27.684-25.964 11.684-13.431 25.6-27.751 34.546-35.55 6.16-5.369 13.812-8.975 21.744-10.246 9.49-1.52 17.433-3.775 19.55-5.55 4.524-3.793 10.543-10.339 17.601-19.143 4.303-5.368 8.795-10.78 9.982-12.03 1.186-1.248 2.891-3.398 3.788-4.776s5.933-8.37 11.191-15.538c9.48-12.921 20.975-29.313 20.975-29.908 0-.17 4.726-7.43 10.502-16.134 5.776-8.703 10.502-15.996 10.502-16.207 0-1.307 10.877-15.655 12.723-16.782 1.77-1.08 6.552 1.705 9.514 5.542 1.408 1.825 3.975 4.885 5.705 6.801s4.574 5.75 6.321 8.521c1.748 2.77 3.465 5.263 3.816 5.538s2.276 3.61 4.278 7.408c5.465 10.37 7.05 20.41 6.306 39.947-.33 8.678-.34 16.46-.02 17.293.992 2.591 4.289 1.69 6.378-1.744 1.416-2.328 1.983-5.047 1.985-9.523.004-7.293.506-7.54 7.601-3.76 6.098 3.25 8.599 3.16 13.907-.5 2.398-1.655 5.362-3.008 6.586-3.008 2.761 0 9.16 6.578 11.981 12.316 5.028 10.227 6.17 14.745 6.106 24.141-.107 15.573-4.75 27.072-15.19 37.615-5.738 5.797-12.984 15.018-12.984 16.526 0 .285-1.575 3.212-3.5 6.504-1.926 3.293-3.501 6.52-3.501 7.17s-.647 2.605-1.438 4.343c-4.77 10.48-7.497 18.95-10.54 32.73-5.16 23.367-6.367 28.138-9.515 37.584-6.491 19.476-6.922 22.954-6.947 56.146-.02 27.352.177 30.99 2.187 40.197 1.216 5.568 3.567 13.462 5.226 17.543 1.66 4.08 3.018 7.802 3.02 8.27s.676 2.273 1.497 4.01c3.654 7.726 7.392 26.34 7.58 37.744.125 7.562-1.744 19.652-3.487 22.555-5.12 8.528-8.581 27.207-9.287 50.122-.536 17.415-.472 18.242 1.833 23.702l2.388 5.657 7.992-2.758c9.53-3.288 12.391-4.418 18.993-7.498 17.824-8.317 27.387-13.307 36.506-19.046 2.476-1.559 7.122-4.464 10.325-6.457 5.153-3.207 15.013-10.241 18.388-13.12.664-.566 1.515-1.03 1.89-1.03.374 0 3.431-2.376 6.793-5.28s8.322-7.054 11.024-9.222c6.285-5.042 32.69-31.263 39.405-39.13 2.825-3.307 5.744-6.69 6.489-7.517 7.952-8.835 27.671-36.803 34.279-48.62a320 320 0 0 1 3.203-5.513c4.71-7.935 19.107-37.753 21.538-44.609.782-2.205 2.561-7.168 3.955-11.027 3.818-10.575 7.265-22.596 10.06-35.086 1.49-6.655-.224 22.558-2.764 47.115-2.721 26.316-9.835 67.305-13.483 77.69-.484 1.379-1.869 5.89-3.077 10.025-3.147 10.77-7.184 22.397-8.162 23.507-.46.524-.838 1.584-.838 2.355s-.735 3.05-1.633 5.062c-.898 2.014-2.534 5.69-3.635 8.172-5.84 13.155-16.086 32.845-20.506 39.409-1.777 2.64-3.231 4.996-3.231 5.237 0 .898-11.582 17.324-18.42 26.123-15.896 20.456-38.508 43.652-57.594 59.08-4.676 3.78-8.726 7.163-9.001 7.517-1.05 1.35-19.88 14.81-28.051 20.05a9410 9410 0 0 0-10.502 6.742c-1.075.694-3.08 1.812-4.455 2.486s-2.726 1.487-3 1.808c-.917 1.067-23.587 11.865-32.609 15.532-19.318 7.85-27.309 10.429-49.406 15.94-19.007 4.741-24.157 5.634-49.509 8.584-10.366 1.207-46.146 1.686-63.863.856m2.352-741.666c.825-.535 2.175-.947 3-.917.99.036.82.349-.5.917-2.75 1.184-4.328 1.184-2.5 0" style="fill:#000" transform="translate(-30.434 -104.518)"/></svg>