<?xml version="1.0" encoding="UTF-8" standalone="no"?>
<!-- Created with Inkscape (http://www.inkscape.org/) -->

<svg
   xmlns:dc="http://purl.org/dc/elements/1.1/"
   xmlns:cc="http://creativecommons.org/ns#"
   xmlns:rdf="http://www.w3.org/1999/02/22-rdf-syntax-ns#"
   xmlns:svg="http://www.w3.org/2000/svg"
   xmlns="http://www.w3.org/2000/svg"
   xmlns:sodipodi="http://sodipodi.sourceforge.net/DTD/sodipodi-0.dtd"
   xmlns:inkscape="http://www.inkscape.org/namespaces/inkscape"
   width="209.65369mm"
   height="209.1783mm"
   viewBox="0 0 742.86739 741.18295"
   id="svg4138"
   version="1.1"
   inkscape:version="0.91 r13725"
   sodipodi:docname="drawing.svg">
  <defs
     id="defs4140" />
  <sodipodi:namedview
     id="base"
     pagecolor="#ffffff"
     bordercolor="#666666"
     borderopacity="1.0"
     inkscape:pageopacity="0.0"
     inkscape:pageshadow="2"
     inkscape:zoom="0.35"
     inkscape:cx="-108.29155"
     inkscape:cy="313.3384"
     inkscape:document-units="px"
     inkscape:current-layer="layer1"
     showgrid="false"
     fit-margin-top="0"
     fit-margin-left="0"
     fit-margin-right="0"
     fit-margin-bottom="0"
     inkscape:window-width="1280"
     inkscape:window-height="694"
     inkscape:window-x="0"
     inkscape:window-y="1"
     inkscape:window-maximized="1" />
  <metadata
     id="metadata4143">
    <rdf:RDF>
      <cc:Work
         rdf:about="">
        <dc:format>image/svg+xml</dc:format>
        <dc:type
           rdf:resource="http://purl.org/dc/dcmitype/StillImage" />
        <dc:title></dc:title>
      </cc:Work>
    </rdf:RDF>
  </metadata>
  <g
     inkscape:label="Layer 1"
     inkscape:groupmode="layer"
     id="layer1"
     transform="translate(-30.434411,-104.51766)">
    <path
       style="fill:#000000"
       d="m 389.07736,845.28619 c -13.66162,-0.6386 -18.50501,-1.2096 -42.14881,-4.9692 -26.39745,-4.1975 -66.65395,-15.197 -78.65429,-21.4912 -1.45986,-0.7657 -3.25986,-1.4074 -4,-1.4261 -0.74014,-0.019 -3.14571,-0.9034 -5.34571,-1.9661 -2.2,-1.0626 -4.32364,-1.9474 -4.7192,-1.966 -1.88837,-0.089 -32.46023,-15.4336 -39.71866,-19.9354 -4.5213,-2.8042 -8.39578,-5.0986 -8.60995,-5.0986 -0.37725,0 -4.64846,-2.94163 -18.66379,-12.8541 -3.69138,-2.61076 -8.19138,-6.07286 -10,-7.69356 -1.80862,-1.6207 -7.5634,-6.73256 -12.7884,-11.3597 -18.02891,-15.96596 -34.20771,-32.48659 -46,-46.97186 -1.925,-2.36461 -4.10097,-4.94044 -4.83549,-5.72407 -1.65759,-1.76843 -10.79137,-14.40506 -17.646006,-24.41336 -4.1498,-6.05902 -11.44159,-18.10034 -17.55126,-28.98331 -1.53266,-2.73009 -13.18023,-26.44415 -14.48944,-29.5 -0.7069,-1.65 -2.17563,-5.025 -3.26384,-7.5 -1.91368,-4.35242 -5.15653,-12.77698 -7.69857,-20 -0.67748,-1.925 -1.79154,-5.075 -2.4757,-7 -0.68415,-1.925 -1.86211,-5.75 -2.61767,-8.5 -0.75557,-2.75 -2.31621,-8.375 -3.46809,-12.5 -1.76714,-6.32829 -5.01969,-20.04104 -6.52278,-27.5 -3.28786,-16.3157 -7.4157,-56.84006 -7.42526,-72.89609 -0.0142,-23.91604 4.51023,-62.34973 10.07741,-85.60391 1.11922,-4.675 2.6289,-10.975 3.35484,-14 0.72594,-3.025 1.78304,-6.625 2.34912,-8 0.56608,-1.375 2.00574,-5.65 3.19926,-9.5 2.34418,-7.56177 5.21055,-15.36346 8.26659,-22.5 1.05985,-2.475 2.29609,-5.4 2.74719,-6.5 4.99291,-12.17502 18.06607,-35.92814 26.94115,-48.95041 1.8928,-2.77727 4.40749,-6.46759 5.5882,-8.2007 5.78781,-8.49571 24.061016,-29.06331 39.907716,-44.91858 17.54213,-17.55161 25.72197,-24.68487 46.06263,-40.16907 0.55,-0.41868 3.025,-2.10997 5.5,-3.75843 2.475,-1.64845 4.725,-3.22766 5,-3.50936 1.22327,-1.25305 9.04971,-5.99345 9.89523,-5.99345 0.51596,0 1.0881,-0.38054 1.27144,-0.84563 1.02534,-2.60119 46.27382,-25.76867 54.09278,-27.69581 1.5177,-0.37406 3.00675,-1.08027 3.30902,-1.56934 0.30226,-0.48907 1.31051,-0.89199 2.24055,-0.89538 0.93004,-0.003 2.81598,-0.59136 4.19098,-1.3066 1.375,-0.71524 6.55,-2.54769 11.5,-4.07211 4.95,-1.52442 10.125,-3.16096 11.5,-3.63676 3.52751,-1.22063 20.09754,-5.40826 29,-7.32897 4.125,-0.88997 10.65,-2.29603 14.5,-3.12457 3.85,-0.82854 10.74078,-1.9515 15.31284,-2.49546 4.57207,-0.54396 8.64542,-1.19456 9.0519,-1.44578 0.40648,-0.25121 6.5657,-0.9557 13.68715,-1.56553 7.12146,-0.60982 14.63561,-1.27474 16.69811,-1.47759 2.0625,-0.20284 3.75,0.0426 3.75,0.54536 0,0.50279 -1.401,0.91417 -3.11333,0.91417 -8.05887,0 -45.62814,10.64409 -58.88667,16.68372 -18.79774,8.5629 -28.5185,14.1231 -43.99937,25.1673 -17.18575,12.26049 -40.44499,34.28221 -54.50063,51.60089 -2.2,2.71073 -5.06717,6.08049 -6.37148,7.48835 -5.77372,6.23205 -31.99048,42.57867 -33.40316,46.30974 -0.36442,0.9625 -1.12671,1.75 -1.69398,1.75 -0.56726,0 -1.03138,0.52707 -1.03138,1.17126 0,0.64419 -0.60814,1.88169 -1.35143,2.75 -3.30249,3.85795 -14.59545,28.11544 -20.26175,43.52258 -2.43864,6.63089 -4.86526,12.95616 -5.39248,14.05616 -0.52722,1.1 -1.40247,3.8 -1.94501,6 -0.54253,2.2 -1.93923,7.375 -3.10377,11.5 -4.28975,15.19501 -7.8197,32.24397 -10.14534,49 -1.57063,11.31631 -1.47183,68.23896 0.13366,77 0.65513,3.575 1.79628,10.325 2.53589,15 0.73961,4.675 1.78168,10.075 2.31571,12 0.53403,1.925 2.22161,8.675 3.75017,15 1.52857,6.325 3.09346,11.725 3.47754,12 0.38408,0.275 1.00634,2.17532 1.3828,4.22292 0.927,5.04202 9.595,26.90295 15.77188,39.77708 4.85614,10.1214 13.57625,25.96856 14.85711,27 0.34149,0.275 0.88319,1.21383 1.20376,2.08629 1.05418,2.86908 13.26937,20.33023 21.12711,30.20041 7.77285,9.76356 29.26123,32.7133 30.63022,32.7133 0.40593,0 1.19828,-2.5875 1.76078,-5.75 0.5625,-3.1625 1.5152,-7.1 2.1171,-8.75 0.6019,-1.65 2.04549,-6.375 3.20798,-10.5 2.76825,-9.82287 5.91937,-19.99632 6.96915,-22.5 0.46123,-1.1 2.47901,-5.8215 4.48396,-10.49223 6.93606,-16.15819 9.68695,-26.49225 10.91612,-41.00777 0.73617,-8.69358 3.59024,-22.6584 7.25533,-35.5 3.94287,-13.81482 3.98086,-14.78502 0.63378,-16.18331 -2.64344,-1.10433 -7.98023,-4.00921 -21.33027,-11.61031 -14.24744,-8.11205 -25.34924,-17.55029 -28.95324,-24.61472 -2.71201,-5.31598 -2.59273,-6.92451 0.90507,-12.20521 2.94881,-4.45191 13.2074,-14.88645 14.63541,-14.88645 0.4154,0 1.46571,-0.63733 2.33402,-1.41628 2.68823,-2.4116 15.06409,-8.54872 26.57874,-13.18027 6.05,-2.4335 11.78139,-4.86979 12.73643,-5.41399 0.95504,-0.5442 2.30504,-0.997 3,-1.00621 0.69496,-0.009 3.73857,-1.34129 6.76357,-2.96017 3.025,-1.61888 6.61056,-3.43749 7.96791,-4.04135 4.81347,-2.14142 16.49617,-13.07298 27.67982,-25.90012 11.6817,-13.39839 25.59506,-27.68361 34.53955,-35.4627 6.15866,-5.35622 13.81011,-8.9535 21.74082,-10.22128 9.48727,-1.51662 17.42932,-3.76642 19.54624,-5.53701 4.52338,-3.78335 10.54113,-10.31333 17.59796,-19.09589 4.30229,-5.3544 8.79309,-10.7544 9.97957,-12 1.18648,-1.2456 2.89095,-3.38973 3.78772,-4.76473 0.89677,-1.375 5.93183,-8.35 11.18903,-15.5 9.47749,-12.88977 20.97138,-29.2418 20.97138,-29.83538 0,-0.16976 4.725,-7.41196 10.5,-16.09377 5.775,-8.68181 10.5,-15.95716 10.5,-16.16744 0,-1.3044 10.87485,-15.61653 12.72063,-16.74131 1.7691,-1.07806 6.55074,1.70128 9.51216,5.52895 1.40805,1.81992 3.97482,4.8728 5.70393,6.78418 1.72912,1.91137 4.57345,5.73637 6.32075,8.5 1.74729,2.76362 3.46409,5.24977 3.81509,5.52477 0.35101,0.275 2.27549,3.60007 4.27663,7.38904 5.46398,10.34555 7.04866,20.36067 6.30541,39.85002 -0.33012,8.65649 -0.33931,16.41899 -0.0204,17.25 0.99213,2.58547 4.28812,1.6866 6.37678,-1.73906 1.41578,-2.32205 1.98263,-5.03451 1.9853,-9.5 0.004,-7.2748 0.50547,-7.52207 7.59976,-3.75 6.09624,3.2414 8.59674,3.15148 13.90398,-0.5 2.39819,-1.65 5.36145,-3 6.58501,-3 2.76076,0 9.15917,6.56211 11.97923,12.28571 5.02667,10.20211 6.16917,14.7092 6.10452,24.08196 -0.10715,15.53537 -4.74966,27.00603 -15.18681,37.52343 -5.73788,5.78197 -12.98197,14.98109 -12.98197,16.4855 0,0.28394 -1.575,3.20358 -3.5,6.48809 -1.925,3.28451 -3.5,6.50311 -3.5,7.15245 0,0.64933 -0.64689,2.59861 -1.43752,4.33173 -4.76915,10.45424 -7.49609,18.90309 -10.53845,32.65113 -5.15812,23.30897 -6.36592,28.06878 -9.5134,37.49117 -6.49004,19.42879 -6.92023,22.89794 -6.94538,56.00883 -0.0207,27.28484 0.17717,30.91399 2.1866,40.09875 1.21516,5.55432 3.56656,13.42932 5.22534,17.5 1.65877,4.07069 3.0175,7.78324 3.01938,8.25012 0.002,0.46688 0.67545,2.26688 1.4968,4 3.65259,7.70726 7.38984,26.27494 7.5783,37.65113 0.12498,7.54422 -1.74358,19.60454 -3.48603,22.5 -5.11971,8.50747 -8.58012,27.14031 -9.28581,50 -0.53627,17.37175 -0.47231,18.19697 1.83249,23.64351 l 2.38814,5.64351 7.98977,-2.75098 c 9.52823,-3.28068 12.38943,-4.40778 18.98977,-7.48055 17.82123,-8.29661 27.38293,-13.27377 36.5,-18.99938 2.475,-1.55432 7.1204,-4.45281 10.32311,-6.44108 5.15197,-3.19838 15.0102,-10.21607 18.38468,-13.08735 0.66429,-0.56522 1.51438,-1.02768 1.8891,-1.02768 0.37472,0 3.43121,-2.37021 6.79221,-5.26713 3.36099,-2.89692 8.32097,-7.03651 11.02216,-9.19909 6.28331,-5.03043 32.6845,-31.18733 39.39832,-39.03378 2.82364,-3.3 5.74291,-6.675 6.48725,-7.5 7.95114,-8.81274 27.66656,-36.71237 34.27278,-48.5 0.61648,-1.1 2.05791,-3.575 3.20318,-5.5 4.70926,-7.91548 19.10265,-37.66045 21.53325,-44.5 0.78182,-2.2 2.56144,-7.15 3.9547,-11 3.81754,-10.54899 7.26382,-22.54069 10.05863,-35 1.48923,-6.63905 -0.22442,22.50288 -2.76377,47 -2.72114,26.25072 -9.83361,67.13978 -13.48079,77.5 -0.48405,1.375 -1.86854,5.875 -3.07664,10 -3.14639,10.74322 -7.18253,22.3422 -8.15996,23.45 -0.46102,0.5225 -0.83821,1.57949 -0.83821,2.34887 0,0.76938 -0.73466,3.04188 -1.63257,5.05 -0.89791,2.00812 -2.53362,5.67613 -3.6349,8.15113 -5.83919,13.12292 -16.0826,32.76522 -20.50159,39.31292 -1.77702,2.63304 -3.23094,4.98377 -3.23094,5.22385 0,0.89632 -11.57996,17.28257 -18.41562,26.05907 -15.89381,20.40653 -38.5023,43.546 -57.58438,58.9368 -4.675,3.77066 -8.725,7.14471 -9,7.49789 -1.04892,1.3471 -19.87527,14.77353 -28.04571,20.00143 -4.70014,3.0074 -9.42514,6.0338 -10.5,6.7253 -1.07486,0.6915 -3.07929,1.8073 -4.45429,2.4796 -1.375,0.6724 -2.725,1.4838 -3,1.8033 -0.9166,1.0648 -23.58202,11.8362 -32.60262,15.494 -19.31493,7.832 -27.30387,10.4038 -49.39738,15.902 -19.00349,4.7292 -24.15202,5.6198 -49.5,8.5628 -10.36448,1.2033 -46.1375,1.6816 -63.85119,0.8536 z m 2.35119,-739.85256 c 0.825,-0.53316 2.175,-0.94464 3,-0.9144 0.98906,0.0362 0.81874,0.34772 -0.5,0.9144 -2.74909,1.18132 -4.32797,1.18132 -2.5,0 z"
       id="path4767"
       inkscape:connector-curvature="0" />
  </g>
</svg>
