<svg xmlns="http://www.w3.org/2000/svg" width="112.002" height="112.002" viewBox="0 0 29.634 29.634"><path d="M118.032 41.668h29.369v29.369h-29.369z" style="fill:none;stroke:#000;stroke-width:.26499999;stroke-miterlimit:4;stroke-dasharray:none;stroke-dashoffset:0;stroke-opacity:1" transform="translate(-117.9 -41.535)"/><path d="M136.37 60.355c.96-2.097.446-3.375 1.14-4.89a.566.566 0 0 0-.262-.756l-.002-.002.25-.51a.563.563 0 0 0-.26-.757l-1.026-.491a.574.574 0 0 0-.763.265l-.25.51-1.026-.49.25-.511a.56.56 0 0 0-.262-.757l-1.025-.491a.574.574 0 0 0-.763.265l-.25.51h-.002a.58.58 0 0 0-.762.265c-.773 1.478-2.107 1.87-3.178 3.914l-.225.444a.844.844 0 0 0 .394 1.134l2.05.983a.86.86 0 0 0 1.145-.397l1.126-2.297 1.026.491-1.126 2.297a.844.844 0 0 0 .393 1.134l2.05.983a.86.86 0 0 0 1.145-.397zm-.412-6.895 1.026.491-.251.51-1.026-.49zm-3.076-1.475 1.025.492-.25.51-1.026-.491zm-1.853 6.362a.29.29 0 0 1-.382.132l-2.051-.983a.28.28 0 0 1-.13-.379s.339-.65.397-.755l2.54 1.218zm.626-1.276-2.476-1.187c.398-.555.817-.957 1.227-1.347.519-.492 1.054-1.001 1.46-1.778l1.54.739zm1.263-1.286 1.001-2.042 1.026.492-1.001 2.041zm2.54-1.305 1.54.739-.005.012c-.356.783-.43 1.514-.5 2.22-.055.56-.115 1.134-.308 1.788l-2.476-1.187zm.186 6.078c-.069.14-.24.2-.382.132l-2.05-.983a.28.28 0 0 1-.13-.378l.374-.766 2.54 1.217c-.044.114-.352.777-.352.777z" style="fill:#333;stroke-width:.26458326" transform="translate(-117.9 -41.535)"/></svg>
