<?xml version="1.0" encoding="UTF-8" standalone="no"?>
<svg
   xmlns:dc="http://purl.org/dc/elements/1.1/"
   xmlns:cc="http://creativecommons.org/ns#"
   xmlns:rdf="http://www.w3.org/1999/02/22-rdf-syntax-ns#"
   xmlns:svg="http://www.w3.org/2000/svg"
   xmlns="http://www.w3.org/2000/svg"
   xmlns:sodipodi="http://sodipodi.sourceforge.net/DTD/sodipodi-0.dtd"
   xmlns:inkscape="http://www.inkscape.org/namespaces/inkscape"
   aria-hidden="true"
   focusable="false"
   data-prefix="fad"
   data-icon="check-circle"
   class="svg-inline--fa fa-check-circle fa-w-16"
   role="img"
   viewBox="0 0 512 512"
   version="1.1"
   id="svg8"
   sodipodi:docname="tick.svg"
   inkscape:version="0.92.2 5c3e80d, 2017-08-06">
  <metadata
     id="metadata14">
    <rdf:RDF>
      <cc:Work
         rdf:about="">
        <dc:format>image/svg+xml</dc:format>
        <dc:type
           rdf:resource="http://purl.org/dc/dcmitype/StillImage" />
      </cc:Work>
    </rdf:RDF>
  </metadata>
  <defs
     id="defs12" />
  <sodipodi:namedview
     pagecolor="#ffffff"
     bordercolor="#666666"
     borderopacity="1"
     objecttolerance="10"
     gridtolerance="10"
     guidetolerance="10"
     inkscape:pageopacity="0"
     inkscape:pageshadow="2"
     inkscape:window-width="740"
     inkscape:window-height="480"
     id="namedview10"
     showgrid="false"
     inkscape:zoom="0.4609375"
     inkscape:cx="256"
     inkscape:cy="256"
     inkscape:window-x="0"
     inkscape:window-y="0"
     inkscape:window-maximized="0"
     inkscape:current-layer="svg8" />
  <g
     class="fa-group"
     id="g6"
     style="fill:#008000">
    <path
       class="fa-secondary"
       fill="currentColor"
       d="M256 8C119 8 8 119 8 256s111 248 248 248 248-111 248-248S393 8 256 8zm155.31 195.31l-184 184a16 16 0 0 1-22.62 0l-104-104a16 16 0 0 1 0-22.62l22.62-22.63a16 16 0 0 1 22.63 0L216 308.12l150.06-150.06a16 16 0 0 1 22.63 0l22.62 22.63a16 16 0 0 1 0 22.62z"
       opacity="0.4"
       id="path2"
       style="fill:#008000" />
    <path
       class="fa-primary"
       fill="currentColor"
       d="M227.31 387.31a16 16 0 0 1-22.62 0l-104-104a16 16 0 0 1 0-22.62l22.62-22.63a16 16 0 0 1 22.63 0L216 308.12l150.06-150.06a16 16 0 0 1 22.63 0l22.62 22.63a16 16 0 0 1 0 22.62l-184 184z"
       id="path4"
       style="fill:#008000" />
  </g>
</svg>
