<?xml version="1.0" encoding="UTF-8" standalone="no"?>
<!-- Created with Inkscape (http://www.inkscape.org/) -->

<svg
   xmlns:dc="http://purl.org/dc/elements/1.1/"
   xmlns:cc="http://creativecommons.org/ns#"
   xmlns:rdf="http://www.w3.org/1999/02/22-rdf-syntax-ns#"
   xmlns:svg="http://www.w3.org/2000/svg"
   xmlns="http://www.w3.org/2000/svg"
   xmlns:sodipodi="http://sodipodi.sourceforge.net/DTD/sodipodi-0.dtd"
   xmlns:inkscape="http://www.inkscape.org/namespaces/inkscape"
   width="90.732994mm"
   height="77.963539mm"
   viewBox="0 0 90.732994 77.963539"
   version="1.1"
   id="svg8"
   inkscape:version="0.92.2 5c3e80d, 2017-08-06"
   sodipodi:docname="clawmarks.svg">
  <defs
     id="defs2" />
  <sodipodi:namedview
     id="base"
     pagecolor="#ffffff"
     bordercolor="#666666"
     borderopacity="1.0"
     inkscape:pageopacity="0.0"
     inkscape:pageshadow="2"
     inkscape:zoom="1.635754"
     inkscape:cx="171.46393"
     inkscape:cy="147.33268"
     inkscape:document-units="mm"
     inkscape:current-layer="layer1"
     showgrid="false"
     fit-margin-top="0"
     fit-margin-left="0"
     fit-margin-right="0"
     fit-margin-bottom="0"
     inkscape:window-width="1280"
     inkscape:window-height="695"
     inkscape:window-x="0"
     inkscape:window-y="1"
     inkscape:window-maximized="1" />
  <metadata
     id="metadata5">
    <rdf:RDF>
      <cc:Work
         rdf:about="">
        <dc:format>image/svg+xml</dc:format>
        <dc:type
           rdf:resource="http://purl.org/dc/dcmitype/StillImage" />
        <dc:title />
      </cc:Work>
    </rdf:RDF>
  </metadata>
  <g
     inkscape:label="Layer 1"
     inkscape:groupmode="layer"
     id="layer1"
     transform="translate(-55.184523,-45.167413)">
    <path
       style="fill:none;fill-rule:evenodd;stroke:#000000;stroke-width:0.26458332px;stroke-linecap:butt;stroke-linejoin:miter;stroke-opacity:1"
       d="m 124.73214,45.267856 c -1.71122,1.466765 -4.33639,1.557046 -6.04762,3.023811 -0.9566,0.819944 -1.44791,2.067206 -2.26785,3.023809 -0.69575,0.811705 -1.46882,1.5576 -2.26786,2.267858 -1.47095,1.307505 -3.08495,2.449893 -4.53572,3.779761 -1.57615,1.444805 -3.02381,3.023809 -4.53571,4.535715 -2.01587,2.015871 -4.03175,4.031744 -6.04762,6.047618 -2.267855,2.267857 -4.781111,4.314391 -6.80357,6.803572 -1.281089,1.576721 -1.645844,3.798867 -3.023809,5.291667 -1.709158,1.851586 -4.265825,2.753916 -6.047621,4.535712 -15.484631,15.484631 2.043062,-0.170201 -8.315476,11.339288 -1.079365,1.199293 -2.700396,1.824513 -3.779761,3.023809 -1.215564,1.350624 -1.955054,3.066174 -3.023809,4.535714 -6.934316,9.53468 0.265647,-0.62116 -5.291666,6.04762 -0.581637,0.69796 -0.869469,1.62542 -1.511906,2.26786 -0.398423,0.39842 -1.113483,0.35753 -1.511904,0.75595 -0.755954,1.00793 -1.511905,2.01587 -2.267857,3.02381 -0.503968,0 -1.155547,-0.35636 -1.511906,0 -1.112311,1.11231 4.258405,0.75595 -0.755952,0.75595"
       id="path815"
       inkscape:connector-curvature="0" />
    <path
       style="fill:none;fill-rule:evenodd;stroke:#000000;stroke-width:0.26458332px;stroke-linecap:butt;stroke-linejoin:miter;stroke-opacity:1"
       d="m 145.89881,81.55357 c -1.76389,0.251984 -3.66344,0.0323 -5.29167,0.755952 -0.83024,0.368996 -0.75595,1.76389 -1.5119,2.267857 -1.59675,1.064501 -3.57522,1.409632 -5.29167,2.267858 -1.31419,0.657095 -2.48986,1.564277 -3.77976,2.267857 -1.48396,0.809432 -3.08624,1.398175 -4.53572,2.267858 -1.08037,0.648224 -1.99164,1.545338 -3.02381,2.267857 -3.57394,2.50176 -7.32329,4.59585 -10.58333,7.559521 -0.93226,0.84752 -1.31125,2.20387 -2.26786,3.02381 -0.85561,0.73338 -2.03871,0.96463 -3.02381,1.51191 -1.2844,0.71356 -2.55722,1.45283 -3.77976,2.26785 -1.04832,0.69888 -2.13291,1.37696 -3.023806,2.26786 -0.178181,0.17818 0,0.50397 0,0.75595 -1.007938,0.75596 -1.896904,1.70441 -3.023809,2.26786 -10.772532,2.69313 1.346708,-1.14979 -3.779764,2.26786 -0.419327,0.27955 -1.108728,-0.30238 -1.511903,0 -0.726834,0.54512 -0.785072,1.72273 -1.511906,2.26785 -0.403175,0.30239 -1.033798,-0.15936 -1.511906,0 -0.338071,0.1127 -0.503967,0.50397 -0.755951,0.75596 -0.503968,0.25198 -0.977366,0.57777 -1.511904,0.75595 -0.239053,0.0797 -0.577773,-0.17818 -0.755954,0 -0.39842,0.39842 -0.357529,1.11348 -0.755951,1.5119 -0.451782,0.45179 -1.511906,-0.81709 -1.511906,0.75596 0,0.25198 0.755954,-0.25199 0.755954,0 0,0.25198 -0.577773,-0.17818 -0.755954,0 -0.178179,0.17818 0.178181,0.57777 0,0.75595 -1.007936,1.00794 -0.755952,-1.25992 -0.755952,0.75595"
       id="path819"
       inkscape:connector-curvature="0" />
    <path
       style="fill:#ff0000;fill-rule:evenodd;stroke:#000000;stroke-width:0.26458332px;stroke-linecap:butt;stroke-linejoin:miter;stroke-opacity:1"
       d="m 73.785782,118.27845 c -0.03812,0.0381 -0.19987,-0.0381 -0.16175,0 0.08525,0.0852 0.23825,0.0764 0.3235,0.16175 0.03812,0.0381 -0.21567,0 -0.16175,0 h 0.3235 -0.16175 c 0.107833,0 0.22705,-0.0482 0.3235,0 0.431333,0.21565 -0.377417,0.16175 -0.16175,0.16175 0.957842,0 -0.472592,0.16175 0.48525,0.16175 0.05392,0 -0.19988,-0.0381 -0.16175,0 0.08525,0.0853 0.23825,0.0764 0.3235,0.16175 0.03813,0.0381 0.03813,0.12365 0,0.16175 -0.03812,0.0381 -0.21567,0 -0.16175,0 h 0.80875 -0.16175 0.3235 -0.16175 0.323501 c 0.05392,0 -0.161751,-0.0539 -0.161751,0 0,0.0539 0.107831,0 0.161751,0 h 0.3235 -0.16175 c 0.107833,0 0.2212,0.0341 0.3235,0 0.07234,-0.0241 0.0855,-0.16175 0.16175,-0.16175 0.120561,0 0.215667,0.21565 0.3235,0.16175 0.09645,-0.0482 -0.07625,-0.2472 0,-0.3235 0.07625,-0.0763 0.218886,0.0261 0.3235,0 0.116962,-0.0292 0.209126,-0.12365 0.3235,-0.16175 0.05115,-0.017 0.11353,0.0241 0.16175,0 0.493251,-0.2466 -0.295831,-0.12823 0.485251,-0.3235 0.104613,-0.0261 0.23378,0.0598 0.3235,0 0.10031,-0.0669 0.04479,-0.2943 0.16175,-0.3235 0.165409,-0.0413 0.332751,0.23805 0.48525,0.16175 0.15245,-0.0762 0.06717,-0.34339 0.16175,-0.48525 0.05982,-0.0897 0.24725,0.0763 0.3235,0 0.03812,-0.0381 -0.03813,-0.12365 0,-0.16175 0.03307,-0.0331 0.421121,0.0321 0.485251,0 0.0682,-0.0341 0.09355,-0.12765 0.16175,-0.16175 0.04822,-0.0241 0.10783,0 0.16175,0 0.05392,0 0.11352,-0.0241 0.16175,0 0.0682,0.0341 0.09355,0.19585 0.16175,0.16175 0.10783,-0.0539 0.16175,-0.20294 0.16175,-0.3235 0,-0.0762 -0.22995,0.19585 -0.16175,0.16175 0.173876,-0.0869 0.347789,-0.18604 0.48525,-0.3235 0.03812,-0.0381 -0.20997,0.0241 -0.16175,0 0.152499,-0.0763 0.343386,-0.0671 0.48525,-0.16175 0.04486,-0.0299 -0.04486,-0.13185 0,-0.16175 0.141864,-0.0945 0.364689,-0.0412 0.485249,-0.16175 0.120561,-0.12056 0.02535,-0.38295 0.161751,-0.48525 0.129399,-0.097 0.350668,0.0897 0.485251,0 0.08972,-0.0598 -0.06736,-0.2393 0,-0.3235 0.168407,-0.21051 0.439901,-0.31267 0.647001,-0.48525 0.117152,-0.0976 0.192731,-0.245 0.323498,-0.3235 0.146204,-0.0877 0.339048,-0.074 0.485251,-0.16175 0.130768,-0.0785 0.201502,-0.232 0.323501,-0.3235 0.249862,-0.1874 0.701149,-0.30569 0.9705,-0.48525 0.126886,-0.0846 0.1871,-0.2553 0.323501,-0.3235 0.04822,-0.0241 0.10783,0 0.16175,0 0.107834,-0.10784 0.215667,-0.21567 0.323498,-0.3235 0.04486,-0.0299 0.13765,0.0482 0.16175,0 0.04823,-0.0965 0,-0.21567 0,-0.3235 0,-0.0539 0.01704,-0.11055 0,-0.16175 -0.03812,-0.11438 -0.09487,-0.22319 -0.16175,-0.3235 -0.04229,-0.0635 -0.161748,-0.0854 -0.161748,-0.16175 0,-0.0763 0.161748,-0.0854 0.161748,-0.16175 0,-0.0539 -0.131838,0.0449 -0.161748,0 -0.09458,-0.14187 -0.0855,-0.33275 -0.16175,-0.48526 -0.0341,-0.0681 -0.16175,-0.0855 -0.16175,-0.16174 0,-0.0763 0.16175,-0.0855 0.16175,-0.16175 0,-0.0539 -0.10783,0 -0.16175,0 -0.05392,0 -0.123631,-0.0381 -0.161751,0 -0.141332,0.14133 0.161751,0.33658 0.161751,0 0,-0.10784 -0.247251,0.0762 -0.323501,0 -0.03812,-0.0381 0.05392,-0.16175 0,-0.16175 -0.05392,0 0,0.21565 0,0.16175 v -0.48525 -0.16176 c 0,-0.0539 -0.02991,-0.11685 0,-0.16175 0.08459,-0.12688 0.215667,-0.21566 0.323501,-0.3235 0.05392,-0.0539 0.12765,-0.0935 0.16175,-0.16174 0.129847,-0.2597 0.193651,-0.54906 0.323498,-0.80876 0.0341,-0.0682 0.10783,-0.10785 0.16175,-0.16175 0.269584,-0.26958 0.557697,-0.52183 0.808752,-0.80875 0.128014,-0.1463 0.165312,-0.37225 0.323501,-0.48525 0.236268,-0.16876 0.579562,-0.14524 0.808749,-0.3235 0.272513,-0.21195 0.377418,-0.59308 0.647002,-0.80875 0.282427,-0.22594 0.646999,-0.3235 0.970499,-0.48525 0.7995,-0.39975 0.418251,-0.24725 1.13225,-0.48525 0.161751,-0.0539 0.314751,-0.16175 0.485251,-0.16175 0.07625,0 0.107831,0.21565 0.161751,0.16175 0.07625,-0.0763 0,-0.21566 0,-0.3235 v 0.16175 -0.3235 0.16175 -0.3235 c 0,-0.0539 -0.05392,0.16175 0,0.16175 0.05392,0 0,-0.10785 0,-0.16175 v -0.80875 c 0,-0.0539 -0.01704,-0.11055 0,-0.16175 0.03812,-0.11437 0.12362,-0.20912 0.16175,-0.3235 0.01704,-0.0511 -0.03813,-0.12365 0,-0.16175 0.08525,-0.0853 0.251158,-0.0653 0.323498,-0.16175 0.630402,-0.84053 0.01894,-0.21857 0.161751,-0.647 0.09784,-0.29353 0.473027,-0.91478 0.647001,-1.13225 0.09527,-0.11908 0.255301,-0.1871 0.323501,-0.3235 0.09942,-0.19884 0.161748,-0.42469 0.161748,-0.647 0,-0.0539 -0.199878,-0.0381 -0.161748,0 0.515448,0.51545 0.238078,0.009 0.323498,-0.16175 0.02411,-0.0482 0.12363,-0.0381 0.16175,0 0.03813,0.0381 -0.05392,0.16175 0,0.16175 0.124601,0 0.321101,-0.48425 0.323501,-0.48525 0.0682,-0.0341 0.09095,0.19005 0.16175,0.16175 0.250302,-0.10012 0.431335,-0.3235 0.646999,-0.485251 0.05392,-0.05392 0.09355,-0.12765 0.161751,-0.16175 1.720077,-0.860042 -1.326634,1.035411 1.132252,-0.808752 0.0042,-0.0031 1.275321,-0.636629 1.294001,-0.646999 2.441231,-1.356241 -0.904333,0.472551 1.617498,-1.13225 0.305141,-0.19418 0.652981,-0.312057 0.970502,-0.485251 0.275996,-0.150545 0.516846,-0.36849 0.808746,-0.485251 0.25526,-0.1021 0.58882,0.0032 0.80876,-0.16175 0.2515,-0.18863 0.26294,-0.586447 0.48524,-0.80875 0.12057,-0.12056 0.35212,-0.05524 0.48525,-0.16175 0.1518,-0.121441 0.20206,-0.333449 0.32351,-0.485251 0.0953,-0.119081 0.232,-0.201499 0.3235,-0.323498 0.0723,-0.09645 0.10784,-0.215667 0.16174,-0.323501 0.0539,-0.107834 0.10785,-0.215667 0.16175,-0.323501 0.0539,-0.107833 0.10785,-0.215667 0.16175,-0.323501 0.0539,-0.107833 0.13256,-0.206536 0.16176,-0.323498 0.0862,-0.345067 -0.13725,-0.285919 0.16175,-0.485251 0.647,-0.431334 0.0539,-0.05392 0.48525,0.161751 0.0683,0.0341 0.0894,-0.185851 0.16175,-0.161751 0.14467,0.04822 0.1819,0.266861 0.3235,0.323501 0.15018,0.06007 0.3235,0 0.48525,0 0.10783,0 0.231,-0.05548 0.3235,0 0.19615,0.117689 0.28065,0.38295 0.48525,0.485248 0.14467,0.07234 0.3235,0 0.48525,0 0.21566,0 0.433,-0.02675 0.647,0 0.22058,0.02757 0.42693,0.193191 0.647,0.161751 0.19244,-0.02749 0.31855,-0.223483 0.48525,-0.323501 0.10338,-0.06203 0.22012,-0.09972 0.3235,-0.161748 0.28939,-0.173635 0.60097,-0.369964 0.80875,-0.647001 0.0724,-0.09645 0.0894,-0.227051 0.16175,-0.323501 0.59916,-0.798885 0.0817,0.301892 0.80875,-0.970499 0.0846,-0.148035 0.0854,-0.332751 0.16175,-0.485252 0.1406,-0.281193 0.32927,-0.535786 0.48525,-0.808749 0.0598,-0.104677 0.0764,-0.238251 0.16175,-0.323501 0.0853,-0.08525 0.2512,-0.0653 0.3235,-0.16175 0.41635,-0.55518 -0.14343,-0.431541 0.48525,-0.808749 0.1462,-0.08772 0.32694,-0.09843 0.48525,-0.161751 0.43133,-0.172534 0.27229,-0.216209 0.80875,-0.3235 0.10574,-0.02114 0.21713,0.01773 0.3235,0 0.21928,-0.03655 0.42693,-0.130311 0.647,-0.161751 0.26419,-0.03774 0.9058,0.05032 1.13225,0 0.28344,-0.06299 0.52532,-0.26051 0.80875,-0.3235 2.54704,-0.566008 -1.29159,0.531122 1.294,0.16175 0.19245,-0.02749 0.29281,-0.296011 0.48525,-0.323501 0.22007,-0.03144 0.4247,0.161751 0.647,0.161751 0.1705,0 0.32695,-0.09843 0.48525,-0.161751 0.11194,-0.04478 0.20294,-0.161747 0.3235,-0.161747 0.1705,0 0.31984,0.203107 0.48525,0.161747 0.11695,-0.02924 0.0948,-0.223186 0.16175,-0.323498 0.0423,-0.06344 0.12765,-0.09355 0.16175,-0.16175 0.0241,-0.04823 0,-0.107831 0,-0.161751 v -0.485251 -1.294 -0.646999 c 0,-0.05392 -0.0241,-0.11353 0,-0.16175 0.0341,-0.0682 0.14685,-0.08698 0.16175,-0.161751 0.0423,-0.211478 0,-0.431334 0,-0.647001 0.0539,-0.107834 0.13255,-0.206537 0.16175,-0.323498 0.0261,-0.104616 -0.0763,-0.247251 0,-0.323501 0.741,-0.741 -0.10114,1.273921 0.48525,-0.485251 0.0299,-0.04486 0.11685,0.02991 0.16175,0 0.90265,-0.601789 -0.36647,-0.05939 0.80875,-0.646999 0.1525,-0.07625 0.33905,-0.07403 0.48525,-0.16175 0.13077,-0.07846 0.1871,-0.255301 0.32351,-0.323501 0.38172,-0.190865 0.75052,-0.132636 1.13225,-0.323501 0.28119,-0.140597 0.52146,-0.357566 0.80874,-0.485251 0.20315,-0.09029 0.43325,-0.100678 0.64701,-0.161748 0.16393,-0.04684 0.31881,-0.12476 0.48525,-0.16175 0.32015,-0.07115 0.6708,-0.02855 0.9705,-0.16175 0.20903,-0.09291 0.26333,-0.429772 0.48525,-0.485252 0.26671,-0.06668 0.5444,0.237281 0.80875,0.161751 0.18692,-0.05341 0.14962,-0.398311 0.3235,-0.485251 0.19289,-0.09645 0.43427,0.03546 0.647,0 0.249,-0.0415 0.50502,-0.314873 0.647,-0.485249 0.17258,-0.2071 0.31684,-0.436491 0.48525,-0.647001 0.0476,-0.05954 0.12765,-0.09355 0.16175,-0.161751 0.0762,-0.152498 0.10785,-0.3235 0.16175,-0.485248 0.0539,-0.16175 0.13375,-0.317071 0.16175,-0.485251 0.0266,-0.159549 -0.0601,-0.335069 0,-0.485251 0.0566,-0.141592 0.3019,-0.172532 0.3235,-0.323501 0.0389,-0.272158 -0.16175,-0.533826 -0.16175,-0.808749 0,-0.12056 0.14195,-0.204579 0.16175,-0.323501 0.0354,-0.212733 -0.0423,-0.43552 0,-0.646999 0.0149,-0.07477 0.14325,-0.08778 0.16175,-0.16175 0.0994,-0.39791 -0.17934,-0.95291 0.16175,-1.294001 0.0381,-0.03813 -0.0539,0.161751 0,0.161751 0.0539,0 -0.0381,-0.123631 0,-0.161751 0.0381,-0.03813 0.12365,0.03812 0.16175,0 0.0381,-0.03813 -0.0539,-0.16175 0,-0.16175 0.0762,0 0.0855,0.16175 0.16175,0.16175 0.12056,0 0.2382,-0.0765 0.3235,-0.16175 0.0381,-0.03813 -0.19985,0.03812 -0.16175,0 0.30547,-0.305475 0.30533,-0.07633 0.647,-0.16175 0.39152,-0.09788 0.32474,-0.243557 0.647,-0.485251 0.61851,-0.463887 0.0292,0.241286 0.9705,-0.3235 0.10335,-0.06203 0.0692,-0.246321 0.16175,-0.323501 0.24152,-0.201264 0.58645,-0.262945 0.80875,-0.48525 0.12055,-0.120561 0.0495,-0.356936 0.16175,-0.48525 0.2773,-0.316912 0.647,-0.539167 0.9705,-0.80875 0.16175,-0.215667 0.31267,-0.439901 0.48525,-0.647001 0.30042,-0.360509 0.60977,-0.473057 0.80875,-0.9705 0.17945,-0.448695 0.16175,-0.84908 0.16175,-1.294001 v -0.80875 c 0,-0.107834 0.0262,-0.218887 0,-0.3235 -0.0292,-0.116962 -0.14195,-0.204579 -0.16175,-0.3235 -0.0354,-0.212733 0,-0.431334 0,-0.647001 -0.0539,-0.05392 -0.13765,-0.08941 -0.16175,-0.16175 -0.0341,-0.1023 0.0555,-0.23103 0,-0.3235 -0.11769,-0.196151 -0.34235,-0.306627 -0.48525,-0.48525 -0.0754,-0.09414 -0.10785,-0.215667 -0.16175,-0.3235 -0.0539,0 -0.11685,0.02991 -0.16175,0 -0.12689,-0.08459 -0.17386,-0.29409 -0.3235,-0.3235 -0.40214,-0.07903 -0.81956,0.01224 -1.22934,0.01834 -1.18855,1.92359 -3.75642,1.116426 -5.29166,2.267858 -1.42544,1.069078 -2.33876,2.731759 -3.77976,3.779761 -1.36706,0.994222 -3.09611,1.381945 -4.53572,2.267857 -12.10215,7.447476 0.64746,0.08346 -9.07143,7.559524 -10.18604,7.835421 -2.31111,0.122444 -9.82738,6.803573 -1.06538,0.947007 -2.01587,2.015871 -3.023806,3.023809 -1.007938,1.259919 -1.824517,2.700395 -3.023809,3.77976 -1.350629,1.215565 -3.156083,1.841268 -4.535715,3.02381 -0.427808,0.366691 -0.428453,1.053404 -0.755952,1.511905 -0.937821,1.312948 -1.882905,2.638854 -3.023812,3.779762 -0.39842,0.39842 -1.159917,0.31597 -1.511903,0.75595 -0.703974,0.87997 -0.71506,2.22697 -1.511906,3.02381 -0.356359,0.35636 -1.11837,-0.31483 -1.511903,0 -8.076052,0.0939 -0.384998,3.40881 -1.511906,4.53571 -0.534538,0.53455 -1.591712,-0.33807 -2.267857,0 -2.677975,1.33899 0.761571,1.50629 -0.755952,3.02382 -0.356359,0.35636 -1.061141,-0.22539 -1.511906,0 -0.22538,0.11269 0.178181,0.57777 0,0.75595 -0.39842,0.39842 -1.259919,0.25198 -1.511903,0.75595 -0.159369,0.31874 0.915321,0.43722 0.755952,0.75595 -0.251984,0.50397 -1.043083,0.44341 -1.511904,0.75596 -0.29651,0.19767 -0.50397,0.50396 -0.755954,0.75595 -0.251984,0.25198 -0.755952,0.39959 -0.755952,0.75595 0,0.35636 1.007936,0.50397 0.755952,0.75595 -1.197626,1.19763 -2.267857,-1.78975 -2.267857,1.51191 0,0.35636 1.078394,-0.60422 1.146374,-0.51443 0.06798,0.0898 0.106101,0.15954 0.06798,0.19764 z"
       id="path822"
       inkscape:connector-curvature="0"
       sodipodi:nodetypes="cccscccsscccsccccssscccscsccccccccccccsccsccccccccccccccccccsccssccssscscsscscccccccccscscccccsssscccccccscccsccccccccccccccccccccccsccsccccccccccccccccccscscscccsccscccccccsccccccccccccccccccsccccsccsscccccccccccssccccccccccccsscccccscccccsccscccscscc" />
  </g>
</svg>
