<?xml version="1.0" encoding="UTF-8" standalone="no"?>
<!-- Generator: Adobe Illustrator 19.0.0, SVG Export Plug-In . SVG Version: 6.00 Build 0)  -->

<svg
   xmlns:dc="http://purl.org/dc/elements/1.1/"
   xmlns:cc="http://creativecommons.org/ns#"
   xmlns:rdf="http://www.w3.org/1999/02/22-rdf-syntax-ns#"
   xmlns:svg="http://www.w3.org/2000/svg"
   xmlns="http://www.w3.org/2000/svg"
   xmlns:sodipodi="http://sodipodi.sourceforge.net/DTD/sodipodi-0.dtd"
   xmlns:inkscape="http://www.inkscape.org/namespaces/inkscape"
   version="1.1"
   id="Layer_1"
   x="0px"
   y="0px"
   viewBox="0 0 435.87 512"
   xml:space="preserve"
   sodipodi:docname="lynched.svg"
   inkscape:version="0.92.2 5c3e80d, 2017-08-06"
   width="435.87"
   height="512"><metadata
     id="metadata65"><rdf:RDF><cc:Work
         rdf:about=""><dc:format>image/svg+xml</dc:format><dc:type
           rdf:resource="http://purl.org/dc/dcmitype/StillImage" /><dc:title></dc:title></cc:Work></rdf:RDF></metadata><defs
     id="defs63" /><sodipodi:namedview
     pagecolor="#ffffff"
     bordercolor="#666666"
     borderopacity="1"
     objecttolerance="10"
     gridtolerance="10"
     guidetolerance="10"
     inkscape:pageopacity="0"
     inkscape:pageshadow="2"
     inkscape:window-width="740"
     inkscape:window-height="480"
     id="namedview61"
     showgrid="false"
     inkscape:zoom="0.4609375"
     inkscape:cx="217.935"
     inkscape:cy="256"
     inkscape:window-x="0"
     inkscape:window-y="0"
     inkscape:window-maximized="0"
     inkscape:current-layer="Layer_1"
     fit-margin-top="0"
     fit-margin-left="0"
     fit-margin-right="0"
     fit-margin-bottom="0"
     inkscape:pagecheckerboard="true" /><g
     id="g12"
     transform="translate(-38.065)"><polyline
       style="fill:none;stroke:#f7b239;stroke-width:15;stroke-linecap:round;stroke-linejoin:round;stroke-miterlimit:10"
       points="   393.351,93.719 393.351,165.424 393.351,184.294 393.351,203.163 393.351,213.227  "
       id="polyline2" /><polyline
       style="fill:none;stroke:#f7b239;stroke-width:15;stroke-linecap:round;stroke-linejoin:round;stroke-miterlimit:10"
       points="   376.368,171.085 393.351,165.424 410.334,159.763  "
       id="polyline4" /><polyline
       style="fill:none;stroke:#f7b239;stroke-width:15;stroke-linecap:round;stroke-linejoin:round;stroke-miterlimit:10"
       points="   376.368,189.954 393.351,184.294 410.334,178.633  "
       id="polyline6" /><polyline
       style="fill:none;stroke:#f7b239;stroke-width:15;stroke-linecap:round;stroke-linejoin:round;stroke-miterlimit:10"
       points="   376.368,208.824 393.351,203.163 410.334,197.502  "
       id="polyline8" /><path
       style="fill:none;stroke:#f7b239;stroke-width:15;stroke-linecap:round;stroke-linejoin:round;stroke-miterlimit:10"
       d="m 361.197,309.715 c -17.763,-17.763 -17.763,-46.558 0,-64.321 l 32.154,-32.167 32.167,32.167 c 17.763,17.763 17.763,46.558 0,64.321 -8.881,8.881 -20.518,13.322 -32.167,13.322 -11.636,0 -23.272,-4.441 -32.154,-13.322 z"
       id="path10"
       inkscape:connector-curvature="0" /></g><g
     id="g18"
     transform="translate(-38.065)"><polygon
       style="fill:#b27214"
       points="159.366,217.253 159.366,163.486 203.962,118.878 229.121,93.719 282.888,93.719 257.728,118.878 "
       id="polygon14" /><rect
       x="54.952999"
       y="34.592999"
       style="fill:#b27214"
       width="45.286999"
       height="59.125"
       id="rect16" /></g><rect
     x="38.044003"
     y="34.592999"
     style="fill:#995c0d"
     width="24.128"
     height="59.125"
     id="rect20" /><polygon
     style="fill:#b27214"
     points="393.351,93.719 282.888,93.719 229.121,93.719 159.366,93.719 159.366,34.593 437.381,34.593 437.381,93.719 "
     id="polygon22"
     transform="translate(-38.065)" /><polygon
     style="fill:#995c0d"
     points="203.962,118.878 229.121,93.719 282.888,93.719 257.728,118.878 "
     id="polygon24"
     transform="translate(-38.065)" /><polygon
     style="fill:#b27214"
     points="100.241,502.564 100.241,93.719 100.241,34.593 100.241,9.434 159.366,9.434 159.366,34.593 159.366,93.719 159.366,163.486 159.366,217.253 159.366,502.564 "
     id="polygon26"
     transform="translate(-38.065)" /><path
     style="fill:#333333"
     d="M 426.437,493.13 H 130.74 V 221.163 L 248.736,103.155 h 97.119 v 55.47 l -10.532,3.511 c -4.944,1.648 -7.615,6.991 -5.967,11.935 1.179,3.534 4.246,5.892 7.705,6.357 l -1.739,0.579 c -4.944,1.648 -7.615,6.991 -5.967,11.934 1.179,3.534 4.246,5.892 7.705,6.357 l -1.739,0.579 c -4.944,1.648 -7.615,6.991 -5.967,11.935 1.172,3.517 4.218,5.874 7.657,6.353 l -20.559,20.559 c -21.412,21.413 -21.412,56.256 0,77.669 0,0 0,0 10e-4,0 10.373,10.373 24.165,16.086 38.834,16.086 14.671,0 28.462,-5.712 38.834,-16.086 10.375,-10.373 16.087,-24.165 16.087,-38.835 0,-14.67 -5.712,-28.462 -16.086,-38.835 l -28.916,-28.916 10.048,-3.35 c 4.944,-1.648 7.615,-6.991 5.967,-11.935 -1.177,-3.531 -4.241,-5.892 -7.695,-6.359 l 1.728,-0.576 c 4.944,-1.648 7.615,-6.991 5.967,-11.935 -1.177,-3.531 -4.241,-5.892 -7.695,-6.359 l 1.728,-0.576 c 4.944,-1.648 7.615,-6.991 5.967,-11.935 -1.649,-4.944 -6.991,-7.616 -11.935,-5.968 l -4.564,1.521 v -49.178 h 34.595 c 5.212,0 9.435,-4.224 9.435,-9.435 V 34.595 c 0,-5.211 -4.223,-9.435 -9.435,-9.435 H 130.737 V 9.435 C 130.737,4.224 126.514,0 121.302,0 H 62.177 C 56.965,0 52.742,4.224 52.742,9.435 V 25.16 h -35.85 c -5.212,0 -9.435,4.224 -9.435,9.435 V 93.72 c 0,5.211 4.223,9.435 9.435,9.435 H 52.745 V 493.13 H 9.435 C 4.223,493.13 0,497.354 0,502.565 0,507.776 4.223,512 9.435,512 h 417 c 5.212,0 9.435,-4.224 9.435,-9.435 0,-5.211 -4.223,-9.435 -9.433,-9.435 z M 391.341,277.556 c 0,9.63 -3.75,18.682 -10.561,25.492 -6.808,6.809 -15.861,10.56 -25.492,10.56 -9.629,0 -18.684,-3.75 -25.493,-10.56 h 10e-4 c -14.057,-14.057 -14.057,-36.927 0,-50.984 l 25.492,-25.492 25.493,25.492 c 6.81,6.809 10.56,15.862 10.56,25.492 z M 130.74,103.155 h 37.546 l -37.546,37.552 z m 0,91.319 v -27.079 l 64.229,-64.24 h 27.082 z M 389.885,44.029 V 84.285 H 130.74 V 44.029 Z M 26.327,84.285 V 44.029 H 52.745 V 84.285 Z M 71.614,493.13 V 18.87 h 40.256 v 474.26 z"
     id="path28"
     inkscape:connector-curvature="0" /><g
     id="g30"
     transform="translate(-38.065)" /><g
     id="g32"
     transform="translate(-38.065)" /><g
     id="g34"
     transform="translate(-38.065)" /><g
     id="g36"
     transform="translate(-38.065)" /><g
     id="g38"
     transform="translate(-38.065)" /><g
     id="g40"
     transform="translate(-38.065)" /><g
     id="g42"
     transform="translate(-38.065)" /><g
     id="g44"
     transform="translate(-38.065)" /><g
     id="g46"
     transform="translate(-38.065)" /><g
     id="g48"
     transform="translate(-38.065)" /><g
     id="g50"
     transform="translate(-38.065)" /><g
     id="g52"
     transform="translate(-38.065)" /><g
     id="g54"
     transform="translate(-38.065)" /><g
     id="g56"
     transform="translate(-38.065)" /><g
     id="g58"
     transform="translate(-38.065)" /></svg>
