<svg xmlns="http://www.w3.org/2000/svg" width="677.636" height="856.616"><path d="M840.915 868.357c-31.14-6.844-18.394-56.096-28.807-79.154 2.77-28.46 61.755-14.445 86.54-24.768-12.806-60.204-19.22-121.56-19.926-183.09-3.643-58.826-6.217-117.742-10.95-176.549-3.367-57.52-2.002-115.395-12.735-172.243.667-36.112-10.608-62.31-11.348-96.698-6.326-33.993-6.51-72.024 39.69-63.224 108.787-14.933 218.411-22.166 327.619-33.097 30.157.556 58.79-1.476 73.015-27.653 17.66 9.706 22.117 27.739 46.83 20.156 29.872 2.459 62.858-7.84 90.224 2.411 5.137 35.652 12.48 98.256-43.232 83.864-22.163 5.46-61.793-.416-74.973 15.815 4.37 18.664-4.685 47.254 5.704 59.687 34.539 19.534 26.453 66.14 28.912 99.646 1.584 21.594-14.253 49.127-36.613 51.537-40.797-7.645-31.403-60.604-34.802-91.572-.81-24.072 25.105-42.444 14.826-65.994-8.221-15.125 2.171-47.284-8.41-54.894-108.99 9.14-217.922 19.396-326.65 31.374-29.173 2.119-64.515 4.94-46.803 42.47 13.701 60.65 7.644 123.335 16.558 184.551 5.78 83.641 10.791 167.33 14.928 251.1 2.187 38.717 14.022 75.942 18.968 114.215 60.908-9.577 122.694-8.181 184.003-6.269 109.702-5.78 220.597.494 329.07-20.324 38.364 3.805 15.57 66.4 27.19 94.627-17.579 29.077-69.768 14.248-101.556 19.908-130.787 4.787-261.69 7.352-392.417 13.083-51.585 3.161-103.151 12.471-154.855 11.085m47.876-13.203c75.476-7.215 151.002-13.907 226.9-13.918 115.05-3.315 230.134-5.608 344.992-12.327 29.643-14.103 8.332-63.416 6.227-87.572-36.424 5.856-73.21 9.745-109.961 13.298-11.19 18.715 29.757 5.316 43.662 8.62 36.466 2.408-18.391 27.568-34.038 21.542-26.053 7.42-82.2 7.878-92.118 16.017 32.852 9.181-42.067 18.99-.571 5.97-15.25-2.405-44.961-2.65-11.226-11.407 48.703-8.285 98.289-12.253 146.303-23.639-32.233-7.49-76.547-3.563-110.953 9.307-31.075 10.44-87.93-17.88-101.949 14.555-34.92 12.705-88.163 26.595-118.267 10.187 29.037-20.597 77.18-28.71 108.359-16.174-7.722 15.788-75.702 1.426-28.26 1.861 47.989-4.348-42.643-3.57-58.085 7.466-38.933 15.824 32.964 6.633 45.911 5.38 21.375 2.897 71.137-19.016 29.064-30.196-33.434-.773-70.604 5.801-100.63 14.866 12.366-21.415-49.343 6.548-64.617 5.66-33.487 9.102 25.285 4.145 33.208 7.496-3.862 15.38-57.93 20.22-81.235 29.407-33.085 18.91-71.013-9.11-96.402 11.218 5.884-9.054 23.951-26.23-4.299-19.19-36.497-13.025-34.805 46.48-.032 33.356 9.356-.281 18.696-.945 28.017-1.783m393.877-28.056c16.175-12.071 77.195-.655 81.386-17.65 3.737-22.845 68.428-42.45 72.494-25.64-20.717 11.626-24.38 12.48 1.415 9.156 19.619-3.667 38.893 4.333 9.297 14.333-32.62-18.99-68.191 15.07-105.168 15.956-19.27.425-41.052 7.146-59.424 3.845m103.199-22.06c12.982-6.607 66.288-31.135 21.048-19.527-10.395.082-62.035 31.638-21.048 19.527m62.875-3.329c-7.586-14.904-30.068 7.476 0 0m-25.083-36.471c7.58-13.679 56.59-4.608 19.536-2.178-5.932-.793-14.197 5.688-19.536 2.178m-484.513 66.385c23.574-6.538 73.42-15.038 80.373-25.909-15.145 1.982-50.24.422-17.836-13.797 21.287 4.099 64.354-33.2 19.715-27.102-63.08 6.854-126.369 23.88-181.7 54.907 28.576-7.31 44.267 2.93 66.375 14.25 11.058.47 22.192-.317 33.073-2.349m-53.088-14.363c27.117-12.491 67.208-12.364 99.235-12.27-22.805 15.532-69.518 7.43-99.235 12.27m-14.369-19.71c21.217-8.936-49.8 5.725-10.405-6.968 33.098-.146 63.58-12.43 95.458-19.903 38.479-11.278-32.862 1.576-47.079 3.743-22.219 12.308-83.254-7.379-77.675 27.206-4.033 29.417 27.498-3.494 39.701-4.077m209.886-22c37.253 7.572 79.414-21.12 114.34 1.891 39.174-1.907 78.895 3.33 117.003-10.103 15.165-.41 60.222-16.642 20.692-11.042-96.523 2.245-193.054 5.862-289.578 3.56 13.472 14.538-21.693 29.23 9.721 19.853 9.202-1.745 18.453-3.607 27.822-4.16m225.484-1.334c8.43-3.78-17.94 3.575 0 0m-379.76-14.42c24.84 4.52-3.33-73.902-5.27-26.317-11.65-3.862 19.363-57.343-6.678-60.003-14.78-8.196-12.772-32.27.217-6.32-2.451-14.76 1.17-67.949-15.164-59.08-17.848 34.204.726 76.66 2.628 113.925 4.539 13.6-.552 50.271 24.266 37.796m-12.106-176.925c-3.148-97.073-14.393-193.62-18.477-290.587-.589-40.032-8.066-80.36-16.384-118.965-34.792 1.022-6.937 60.747-9.755 85.469 9.861 75.967 6.297 153.2 15.303 229.361 1.906 40.709 3.769 81.412 6.3 122.055 26.7-9.942-6.505-54.851 13.976-55.88 4.86 16.932 14.642 67.705 10.022 61.197-.15-10.888-.57-21.77-.985-32.65m-8.737-50.086c-7.78-25.528-.14-73.353-12.786-86.906-.117 16.297 2.75 49.544-5.845 14.137-2.247-40.737 27.524-10.338 18.149 15.65-1.673 16.585 9.421 47.307.482 57.119M887.384 404.47c.541-16.884-7.16-63.906 3.068-65.243-4.572 14.795 13.266 67.369-3.068 65.243m-5.444-97.687c3.806-33.937-4.227-71.676-8.885-101.708 9.034 28.325 25.212 56.665 19.508 87.666-1.077 3.749-4.25 19.485-10.623 14.042m7.434-30.456c-1.228-26.721-2.8 34.945 0 0m416.712 56.179c17.325-15.482 13.157-26.254-5.338-11.42-14.759-6.847-3.71 21.022 5.338 11.42m-17.554-15.483c.446-22.683-14.364-41.184-5.896-6.219.077 7.486 8.94 24.434 5.896 6.219m17.726-17.41c3.705-18.44 6.54-54.046-5.38-63.451-4.696 10.162-9.713 85.903 5.38 63.451m18.71 3.267c4.44-13.145-2.502-56.918-3.609-18.792-1.316 3.8-6.114 35.327 3.609 18.792m-43.152-48.372c-12.205-.636 5.489 51.621 2.008 8.838l-.226-4.369zm41.714-4.527c-.34-33.82-10.382 1.346-.044 6.325l.045-6.325zm-34.99-14.23c12.62-39.864-16.687 11.436-3.436 12.207 1.213-4.049 2.3-8.136 3.436-12.207m29.272-15.833c-10.312-6.257 2.214 22.7 0 0m-6.685-8.875c-10.487-20.792-3.4 8.323 0 0m-18.982-40.56c-4.391-20.168-1.105 19.472 0 0m-407.215-11.26c37.792.523 75.938-12.3 114.455-12.808 80.142-9.175 160.75-14.198 240.777-23.542 46.48 10.382 13.32-38.939 20.157-64.829-.397-23.498-42.898-1.03-59.652-6.02-105.28 10.872-211.034 17.428-315.923 32.049-50.6-10.063-24.644 42.563-27.827 72.305-2.288 11.766 22.084 1.679 28.013 2.844m40.27-20.093c26.557-14.427 70.244-1.269 98.079-23.378-16.763.473-59.38-7.984-24.071-23.27 9.079-12.364 73.184-17.83 30.085-6.679-33.552 10.786 31.13-.196 43.888-2.186 28.242 3.154 85.922-29.662 94.509 8.113-19.581 37.067-68.81 20.232-102.685 27.872-51.925 2.105 18.841-19.182 34.685-21.498 61.912-8.135-74.982 21.848-22.502 15.48 24.222-2.444 98.263 3.672 79.02-34.503-53.697 4.024-107.034 13.144-160.215 20.998-17.709 12.152 63.458 6.395 19.951 25.867-28.235 12.017-61.94 10.694-90.743 13.184m-32.342-8.1c-26.353-19.418 67.723-40.453 9.535-28.113-14.283 8.094-53.658 5.39-16.512-1.378 23.982-3.044 78.394-24.595 85.731-8.657-23.065 1.663-74.754 15.465-75.287 33.427 26.103 4.81 73.358-16.476 85.616-12.088-26.786 13.715-59.554 16.588-89.083 16.81m301.669-33.555c17.37-3.826 68.461-24.856 19.618-22.137-13.54 3.177-52.314 12.301-18.326-1.636 20.433-14.948 72.735 6.076 28.143 18.868-8.74.714-21.76 9.843-29.435 4.905m97.618 55.386c-5.006-22.368-3.718 20.69 0 0m-1.356-14.36c-3.284-9.083-3.284 9.084 0 0m-6.492-24.817c-7.608-16.119-3.015 13.017 0 0m36.998.127c35.098-13.29 104.915 11.362 89.92-48.172 7.746-28.392-13.095-27.344-36.325-23.885-34.201 2.105-98.389-11.36-81.902 43.265 1.05 21.035.183 41.498 28.307 28.792m-12.779-18.326c12.382-19.007 61.57-4.814 71.513-22.36-20.214-6.383-74.568 21.487-72.63-5.416 17.346-15.55 81.448-4.843 30.897-2.91-16.748-.69-41.633 13.844-9.748 8.314 16.685-7.968 88.638-7.201 41.697 12.265-20.233 4.482-41.047 9.828-61.729 10.107m-27.895-2.78c.052-29.667-15.773 9.738-.553 8.953l.409-3.698zm-.432-19.798c9.55-27.858-11.263-36.001-8.176-3.944-.023 2.769 7.952 10.94 8.176 3.944m10.665-40.868c-3.763-25.55-15.945 11.531 0 0" style="fill:#000;stroke-width:1.33035004" transform="translate(-812.108 -11.88)"/><path d="M1284.303 33.748c-1.727-1.003-1.625-5.676.19-8.775.869-1.482 1.351-1.88 2.273-1.88 1.395 0 2.64 2.345 3.502 6.597.518 2.554.6 2.402-1.973 3.67-1.476.728-3.13.89-3.992.388M1276.378 74.602c-1.442-.955-3.285-3.12-3.9-4.581-.555-1.315-.785-8.932-.366-12.067.795-5.937 2.805-9.459 5.4-9.459 1.33 0 2.359.908 3.507 3.097 1.987 3.79 1.966 10.856-.055 18.152-.394 1.423-.804 3.017-.91 3.541-.49 2.413-1.484 2.77-3.677 1.317zM1278.067 101.345c-2.348-.707-3.785-2.666-4.294-5.853-.736-4.61 1.378-12.04 3.865-13.589.68-.423 1.503.448 1.998 2.116.893 3.006 1.056 8.04.502 15.486-.172 2.309-.259 2.386-2.071 1.84M1281.4 115.71c-.736-1.664-1.138-3.707-1.038-5.278.071-1.114.17-1.324.63-1.324.39 0 .913.616 1.846 2.172 1.406 2.345 1.468 2.927.495 4.638-.717 1.26-1.312 1.196-1.933-.208" style="fill:#d38d5f;stroke-width:.27241799" transform="translate(-812.108 -11.88)"/><path d="M1281.4 115.71c-.736-1.664-1.138-3.707-1.038-5.278.071-1.114.17-1.324.63-1.324.39 0 .913.616 1.846 2.172 1.406 2.345 1.468 2.927.495 4.638-.717 1.26-1.312 1.196-1.933-.208M1288.654 140.232c-.257-.96-.2-2.82.112-3.64.245-.644.336-.692.669-.358.211.214.565.823.787 1.355.366.881.356 1.069-.11 2.111-.563 1.255-1.201 1.488-1.458.532M1289.876 158.065c-.843-1.575-1.127-10.073-.38-11.363.291-.504.356-.452.86.68.298.675.802 2.17 1.118 3.321l.574 2.095-.572 2.437c-.315 1.34-.733 2.657-.93 2.926-.339.464-.373.459-.67-.096M1291.084 175.413c-.465-1.306-.722-3.312-.869-6.782-.194-4.618.056-4.783 1.132-.744.656 2.463.687 2.835.43 5.14-.28 2.51-.446 3.078-.693 2.386M1315.864 227.638c-.919-1.204-1.796-3.717-1.975-5.658-.129-1.388-.073-1.612.55-2.235.575-.575.823-.653 1.465-.46 1.927.577 2 .753 1.998 4.75 0 2.765-.372 4.528-.95 4.528-.21 0-.7-.416-1.088-.925M1308.822 211.932c-1.401-1.102-3.558-6.982-2.956-8.058.196-.35.402-.232 1.172.668 1 1.168 3.053 4.609 3.575 5.992.27.717.243.92-.188 1.398-.627.692-.723.692-1.603 0M1322.192 255.135c-1.973-1.918-2.894-4.619-3.114-9.137-.209-4.277.575-8.887 1.712-10.07 1.495-1.556 2.676 5.662 2.51 15.34l-.084 4.861zM1319.885 306.828c-1.107-1.688-.658-11.594.874-19.286.358-1.798.727-4.618.82-6.266.44-7.783 1.082-12.123 1.795-12.123.39 0 1.006 1.58 1.463 3.75.89 4.227 1.33 9.696 1.333 16.545.01 10.339-.713 13.521-3.765 16.671-.77.795-1.543 1.445-1.718 1.445s-.536-.331-.802-.736M1299.562 333.687c-2.244-1.184-4.515-4.332-5.469-7.58-.795-2.709-.36-4.796 1.165-5.585 1.09-.564 1.9-.538 3.863.123l1.632.55 2.65-1.918c4.59-3.32 9.7-5.55 11.618-5.068 1.287.323 1.793 1.097 1.793 2.743 0 3.008-3.352 8.108-8.893 13.527-1.626 1.59-3.35 3.093-3.829 3.337-1.187.606-3.248.547-4.53-.13M1287.536 324.3c-1.633-1.762-3.962-7.857-4.627-12.105-.199-1.273-.8-4.46-1.336-7.082-1.821-8.917-1.805-14.583.038-13.46.817.499 2.41 3.157 3.415 5.696 1.905 4.82 2.928 10.207 3.467 18.252.16 2.397.36 5.183.444 6.19.164 1.963-.02 3.208-.473 3.208-.154 0-.572-.315-.929-.7zM1282.023 279.437c-1.927-2.103-4.001-9.553-4.355-15.642-.266-4.571.67-7.85 2.492-8.72.505-.24 1.09-.37 1.302-.29.21.081.765 1.171 1.232 2.422.804 2.154.867 2.612 1.183 8.556.374 7.017.23 11.786-.399 13.292-.485 1.16-.693 1.214-1.455.382" style="fill:#d38d5f;stroke-width:.27241799" transform="translate(-812.108 -11.88)"/><path d="M1283.853 247.423c-1.552-.782-2.05-1.973-2.016-4.83.042-3.691 1.571-8.95 4.199-14.445 1.48-3.095 3.762-6.634 4.611-7.15.502-.305.597-.273.8.273.445 1.19-.532 6.289-2.272 11.86-.362 1.159-1.401 4.783-2.31 8.055-.908 3.272-1.747 6.12-1.864 6.329-.178.319-.363.304-1.148-.092M1304.606 117.385c-4.148-.69-7.201-3.68-8.868-8.686-1.247-3.743-1.862-8.459-2.36-18.087-.248-4.8-.42-6.184-1.103-8.83-2.631-10.205-2.351-18.134.86-24.306 4.067-7.817 12.52-12.405 26.54-14.404 7.329-1.046 11.83-1.201 30.647-1.06 19.182.145 23.746.017 30.102-.845 12.21-1.656 19.834-1.274 25.184 1.263 5.807 2.753 8.022 8.487 6.691 17.319-.221 1.47-.583 3.363-.804 4.208-.382 1.463-.363 1.725.394 5.5 2.613 13.04 1.057 22.051-4.863 28.165-5.798 5.987-14.893 8.999-30.961 10.252-1.948.151-8.445.46-14.438.684-24.796.929-32.383 1.966-41.795 5.716-4.447 1.772-7.667 2.73-10.492 3.123-2.358.328-2.693.327-4.734-.013m15.75-22.464c10.708-1.006 21.241-2.928 43.153-7.875 7.096-1.602 8.2-1.975 13.1-4.428 8.01-4.01 10.874-7.266 8.683-9.87-2.06-2.448-8.282-3.911-18.49-4.348-13.537-.578-29.782 1.163-36.776 3.942-2.334.928-6.164 1.504-11.033 1.658-4.293.137-5.363-.039-5.657-.93-.336-1.02 4.055-3.671 8.79-5.308 5.894-2.038 9.237-2.6 17.435-2.933 9.686-.393 16.768-1.337 17.605-2.345.946-1.14-1.479-2.069-7.117-2.726-5.262-.613-17.397-.38-22.747.439-4.343.664-8.657 1.667-11.441 2.66-2.498.892-6.275 2.842-7.56 3.903-.996.823-1.022.89-1.022 2.682 0 7.79 5.932 11.145 17.953 10.156 5.037-.415 9.278-1.121 22.268-3.708 18.256-3.636 24.364-4.26 30.41-3.104.866.165 1.642.41 1.725.545.083.134-.747 1.14-1.846 2.235-1.511 1.508-2.559 2.267-4.312 3.126-5.569 2.73-11.198 3.706-28.468 4.943-9.808.702-14.309 1.2-18.597 2.06-8.058 1.617-13.067 3.978-16.509 7.781-.844.933-1.534 1.814-1.534 1.96 0 .315 5.81.065 11.987-.515M1143.621 122.553l.072-9.846 2.043-.861a74 74 0 0 0 3.814-1.754c6.824-3.446 12.697-8.961 16.9-15.87 1.596-2.625 1.597-2.68.149-6.547-3.27-8.73-9.915-13.258-20.93-14.262l-2.112-.192v-15.44l.885-.138c.487-.077 9.467-.946 19.955-1.932s22.93-2.187 27.65-2.668c7.69-.784 8.751-.838 10.216-.521 2.221.48 9.357.242 13.757-.458 1.873-.298 6.531-1.153 10.352-1.9 13.295-2.599 18.527-3.229 22.94-2.761 4.045.429 5.86 1.103 7.877 2.925 1.354 1.224 2.264 2.97 2.7 5.185.28 1.43.259 2.133-.145 4.595-.386 2.349-.45 3.934-.333 8.247.164 6.074.584 9.016 3.159 22.092 2.042 10.374 2.457 13.123 2.65 17.571.264 6.113-.85 10.071-3.556 12.63-.779.737-1.924 1.599-2.545 1.916-3.56 1.816-9.229 2.04-16.474.652-2.246-.431-2.66-.431-6.543-.004-21.724 2.39-28.667 3.127-41.571 4.417-8.183.818-21.56 2.103-29.725 2.855s-16.047 1.49-17.514 1.641c-1.467.15-2.909.274-3.204.274-.527 0-.536-.202-.466-9.846zm62.047-24.374c1.423-.358 5.17-1.563 8.325-2.676s7.006-2.278 8.558-2.59c3.807-.763 7.125-1.913 11.04-3.828 4.566-2.233 6.937-4.344 7.76-6.906 1.574-4.904-5.005-10.12-15.808-12.535-10.425-2.331-21.45-1.2-28.232 2.893-1.022.618-3.365 1.773-5.206 2.567-7.468 3.223-10.66 5.123-9.894 5.89 1.01 1.008 10.064-.446 26.18-4.207l6.13-1.43 6.947.002c5.47.002 7.372.099 8.95.454 4.208.948 5.081 2.32 2.99 4.701-2.067 2.355-9.702 6.522-18.474 10.084-4.802 1.95-15.207 5.47-18.46 6.247-1.087.26-1.975.562-1.975.673 0 .33 1.954 1.112 3.412 1.366 1.864.326 4.682.07 7.757-.705" style="fill:#a05a2c;stroke-width:.27241799" transform="translate(-812.108 -11.88)"/><path d="M860.01 161.465c-.958-.292-1.936-.835-2.171-1.204-.236-.37-.47-4.596-.521-9.39-.067-6.357-.571-12.258-1.862-21.794-2.352-17.38-2.536-28.59-.564-34.308 1.015-2.94 1.941-4.428 4.104-6.59 4.527-4.528 9.777-5.704 20.618-4.618 6.481.649 7.035.615 20.824-1.263 30.87-4.205 73.36-8.899 121.226-13.393 29.87-2.804 119.72-10.929 120.863-10.929.454 0 .635 2.179.635 7.628v7.628h-3.607c-5.382 0-13.536 1.337-29.9 4.903-20.675 4.506-23.385 4.954-32.934 5.45-4.873.254-13.567 1.254-20.46 2.354-16.224 2.589-29.062 4.192-33.132 4.137l-3.372-.045 2.724-1.285c1.499-.706 6.157-2.31 10.352-3.564 8.205-2.453 11.945-4.053 11.429-4.888-.6-.97-9.374-.538-16.705.823-12.809 2.38-23.204 6.057-26.87 9.507-.898.846-3.653 2.576-6.122 3.844-10.532 5.411-12.054 10.835-4.229 15.07 6.114 3.308 19.058 6.166 28.129 6.21l4.016.02-1.634 1.348c-2.412 1.989-10.3 5.919-15.045 7.495-9.384 3.118-16.763 4.244-38.35 5.855-21.53 1.606-29.008 2.856-38.03 6.357-4.151 1.612-4.997 2.334-2.728 2.333 2.957-.002 37.56-2.177 43.755-2.75 25.409-2.353 48.785-9.218 56.475-16.587 5.206-4.989 2.114-7.116-15.428-10.611-14.62-2.913-17.619-3.924-17.619-5.94 0-2.469 1.102-2.735 28.697-6.918 52.268-7.925 79.249-11.617 105.06-14.378 12.234-1.308 28.262-2.702 28.5-2.478.093.087.762 1.84 1.487 3.895 3.446 9.766.33 16.589-9.79 21.433-8.526 4.08-20.49 6.165-40.767 7.101a3510 3510 0 0 0-37.727 1.983c-3.576.208-3.726.172-2.41-.58 1.471-.84 8.86-3.126 31.014-9.593 13.517-3.945 18.524-5.728 18.524-6.596 0-.74-6.905-.565-13.908.353-15.054 1.974-45.616 11.448-53.737 16.66-3.275 2.1-3.589 3.853-.868 4.837 2.64.955 14.479 1.368 18.217.635 7.339-1.438 13.085-1.805 35.313-2.255 24.2-.49 30.197-1.001 38.028-3.24l3.652-1.045v9.223c0 5.073.061 9.408.137 9.633.075.225-2.07.598-4.768.83-38.496 3.303-90.997 8.246-125.312 11.8-8.39.868-19.546 1.851-24.79 2.185-12.012.763-20.609 1.892-45.653 5.992-27.119 4.44-35.783 5.464-50.783 6.001-9.192.33-14.34.772-18.252 1.568-7.062 1.437-11.559 1.814-13.73 1.151m48.056-30.733c26.712-.766 51.328-5.779 69.867-14.227 2.177-.992 3.958-2.063 3.958-2.38 0-.98-8.746-.655-14.788.55-3.104.62-11.895 2.683-19.537 4.586-15.58 3.88-22.138 5.277-30.58 6.515-5.758.845-16.522 1.134-18.863.506-4.178-1.12 2.892-10.142 12.053-15.382 8.291-4.743 20.542-9.368 33.947-12.817 8.326-2.143 22.36-4.692 25.825-4.692 1.175 0 2.136-.146 2.136-.325 0-1.15-2.585-3.539-5.024-4.641-2.647-1.196-3.528-1.295-11.049-1.237-10.132.078-15.854 1.12-41.135 7.494-10.038 2.53-20.458 5.01-23.155 5.509-16.138 2.985-21.716 4.589-21.414 6.156.27 1.403 3.54 1.899 10.517 1.593 7.445-.326 13.706-1.49 18.684-3.47 3.158-1.258 17.453-4.558 19.61-4.528.514.007-1.15.95-3.697 2.097-16.588 7.466-24.296 12.768-26.802 18.432-1.458 3.297-.977 5.596 1.804 8.613 2.11 2.29 2.26 2.354 5.006 2.145 1.556-.119 7.243-.342 12.637-.497" style="fill:#a05a2c;stroke-width:.54483497" transform="translate(-812.108 -11.88)"/><path d="M892.322 607.034c-.155-1.273-.415-4.767-.579-7.764-1.75-32.15-2.717-50.879-4.103-79.546-.9-18.578-1.991-36.844-2.427-40.59-2.591-22.249-4.093-47.742-6.853-116.322-1.705-42.368-3.396-67.857-6.035-90.988-.615-5.394-1.225-12.994-1.355-16.89-.245-7.383-1.168-13.93-4.293-30.473-2.983-15.792-3.698-22.05-3.428-30.003.192-5.687.486-7.719 1.49-10.308 2.223-5.738 6.818-9.412 12.915-10.327 1.88-.283 2.33-.175 2.574.611.803 2.6 7.037 34.688 8.971 46.176 4.834 28.723 6.126 42.187 7.71 80.363 1.134 27.31 3.343 60.868 8.168 124.073 1.194 15.65 2.166 29.135 2.16 29.966-.008 1.054-.412.376-1.337-2.244-3.595-10.19-10.73-15.578-14.987-11.32-2.166 2.166-2.84 4.833-3.132 12.404-.228 5.916-.104 7.143 1.207 11.986 2.074 7.662 3.735 11.118 4.753 9.891.062-.075.246-6.51.408-14.302l.296-14.166 1.437 2.724c4.046 7.666 4.646 12.527 6.484 52.478.75 16.28 2.906 31.222 4.375 30.314.288-.177 1.06-1.348 1.714-2.601 1.022-1.954 1.22-3.369 1.396-9.907.172-6.42-.066-9.482-1.5-19.341-2.185-15.011-2.604-23.093-1.427-27.493.478-1.786.904-4.605.947-6.265.106-4.131.513.831 2.59 31.578 2.592 38.412 5.36 95.128 4.675 95.814-.143.142-.26-.26-.26-.896 0-1.566-4.4-23.198-6.536-32.125-1.609-6.727-1.814-7.22-3.008-7.22-6.455 0-7.691 5.932-4.612 22.133 2.89 15.205 2.679 22.23-.83 27.545-1.268 1.92-5.586 5.35-6.736 5.35-.302 0-.676-1.041-.832-2.315m-.145-204.171c3.193-3.794 3.224-11.456.141-34.33-2.223-16.493-2.748-23.328-2.062-26.834.279-1.423.313-2.588.077-2.588-5.37 0-6.595 14.188-4.069 47.129.437 5.693.801 12.13.81 14.302l.016 3.95h1.858c1.395 0 2.2-.407 3.23-1.63m-5.11-95.874c4.731-4.732 7.816-20.696 6.611-34.218-1.14-12.804-3.77-22.44-12.788-46.852-3.404-9.213-6.49-17.687-6.86-18.83-.368-1.144-.784-1.966-.924-1.826s1.104 8.676 2.764 18.97c5.992 37.162 7.753 57.808 6.402 75.084-.406 5.197-.404 7.539.01 8.037.873 1.052 3.575.846 4.786-.365zM914.605 761.097c-2.493-1.3-3.425-2.33-4.867-5.377-1.745-3.689-2.757-8.256-3.811-17.193a521 521 0 0 0-1.947-14.438c-.594-3.896-1.569-11.006-2.166-15.8s-2.293-15.46-3.77-23.7c-3.565-19.896-4.455-26.857-4.81-37.63-.441-13.435.886-22.545 4.743-32.546.939-2.433 2.151-4.973 2.695-5.644 1.273-1.573 4.408-1.654 6.063-.158 2.668 2.413 4.81 8.994 5.933 18.224.667 5.49 2.316 37.123 1.954 37.486-.118.118-.74-.815-1.38-2.072-1.552-3.04-5.33-7.082-6.621-7.082-1.462 0-2.08 2.058-1.52 5.06.687 3.677 2.422 6.727 5.677 9.982 2.205 2.205 3.574 3.072 5.94 3.76 3.646 1.06 5.938 2.85 7.58 5.92 1.069 1.997 1.196 3.006 1.14 9.058-.065 7.008-.113 7.3-4.276 25.607-2.154 9.475-2.535 15.78-1.079 17.859 1.58 2.255 2.237 1.491 2.593-3.012.38-4.804 1.636-9.502 2.8-10.468 2.756-2.287 7.257 4.88 10.177 16.207 1.735 6.726 1.789 16.199.114 19.822-1.423 3.08-3.18 4.321-6.597 4.66-1.419.14-3.876.723-5.46 1.294-3.491 1.259-6.907 1.326-9.105.18" style="fill:#784421;stroke-width:.54483497" transform="translate(-812.108 -11.88)"/><path d="M896.897 829.003c-10.956-5.64-18.584-8.788-25.433-10.498-3.937-.982-6.382-1.201-13.523-1.21-5.05-.006-9.954.275-11.657.668-1.617.372-3.053.564-3.191.426-.444-.443 25.412-13.047 35.666-17.386 40.274-17.04 83.586-28.36 132.826-34.71 19.968-2.576 26.867-2.1 28.726 1.979.509 1.116.41 1.781-.553 3.764-2.415 4.973-8.66 10.375-16.894 14.616-6.764 3.483-10.974 4.744-17 5.09-4.508.26-5.701.555-9.243 2.282-4.286 2.09-8.737 5.818-8.737 7.317 0 3.56 8.936 5.601 22.701 5.187l7.806-.235-1.224 1.31c-3.597 3.847-18.443 9.133-41.52 14.783-44.06 10.788-44.054 10.787-59.409 11.237l-9.807.288zm-.818-12.529c3.596-.287 15.487-.668 26.425-.846 28.564-.464 38.91-1.393 49.58-4.45 4.554-1.305 13.917-5.522 13.403-6.036-.481-.481-34.788-.151-43.641.42-21.074 1.358-39.078 4.65-50.82 9.293-4.852 1.919-6.308 2.981-3.391 2.473 1.048-.182 4.849-.567 8.444-.854M834.95 813.18c-2.321-.968-2.889-3.174-2.889-11.226 0-9.276.513-11.122 4.085-14.717 3.012-3.03 6.495-4.642 12.977-6.006 4.394-.924 19.214-1.816 30.417-1.831 12.99-.017 22.722-1.33 28.467-3.843 2.995-1.31 43.772-7.938 55.36-8.999 8.431-.772 2.192 1.387-26.152 9.049-40.065 10.83-50.566 13.07-66.257 14.134-4.762.323-9.718.827-11.014 1.12-4.185.946-10.993 3.82-10.993 4.64 0 1.01 2.62 1.003 13.894-.043 9.97-.925 12.258-.994 12.258-.369 0 .593-3.083 2.034-5.45 2.548-2.565.556-7.776 3.22-15.584 7.963-10.822 6.576-16.311 8.753-19.119 7.58" style="fill:#a05a2c;stroke-width:.54483497" transform="translate(-812.108 -11.88)"/><path d="M1041.235 781.81c0-.46 1.264-2.74 2.81-5.068 3.293-4.96 4.227-10.4 2.41-14.042l-1.127-2.259 42.065.364c23.136.2 64.338-.05 91.56-.554 51.381-.952 155.368-3.75 164.604-4.43 4-.293 5.15-.162 4.717.538-1.48 2.394-16.821 7.464-30.282 10.008-4.105.776-12.144 2.62-17.865 4.097-17.688 4.567-25.369 5.245-66.65 5.885l-36.984.573-6.164-2.966c-9.901-4.763-14.416-5.661-28.124-5.593-8.626.042-14.51.52-21.189 1.717-5.085.912-14.274 2.565-20.419 3.673-11.049 1.992-21.77 2.527-39.681 1.982-7.695-.234-26.135 2.897-38.333 6.51-.742.22-1.348.024-1.348-.435" style="fill:#a05a2c;stroke-width:.77051401" transform="translate(-812.108 -11.88)"/><path d="M848.208 857.904c-8.213-1.437-13.499-8.48-13.463-17.94.045-12.064 8.863-19.626 20.172-17.3 4.944 1.018 5.118 1.021 13.348.283 9.673-.868 9.862 1.373 1.112 13.204-4.184 5.658-5.555 8.674-2.87 6.313 2.108-1.852 7.906-4.58 12.137-5.711 5.483-1.465 18.697-1.268 33.902.505 22.863 2.666 32.949 1.846 46.06-3.746 9.114-3.887 13.936-5.288 36-10.458 30.488-7.144 38.879-10.112 44.849-15.866 3.995-3.851 4.43-4.92 2.345-5.77-.742-.302-10.364-.827-21.382-1.166-22.534-.694-20.419-.545-20.419-1.434 0-.919 9.2-3.603 15.796-4.61 2.966-.452 13.904-3.228 24.305-6.168 21.005-5.938 29.34-7.552 32.598-6.314 2.59.985 3.107 2.25 2.051 5.026-.453 1.191-.724 2.265-.603 2.386.12.121 3.763-.775 8.094-1.99 26.468-7.43 57.838-12.18 81.984-12.413 11.21-.109 12.108-.004 16.932 1.958 9.42 3.833 11.63 8.374 6.769 13.91-2.724 3.103-4.424 3.664-2.582.853 1.137-1.736 1.125-1.924-.175-2.602-2.66-1.387-10.248-3.267-17.755-4.399-17.393-2.622-39.928-.39-58.963 5.84-7.29 2.387-25.624 11.067-29.088 13.773-2.434 1.901-1.857 2.499 4.85 5.023 9.17 3.452 17.714 4.49 33.29 4.047 20.415-.58 39.077-4.225 66.335-12.954 11.643-3.729 12.484-4.128 13.79-6.554 1.873-3.48 6.311-7.834 9.81-9.628 8.307-4.259 21.187-4.914 45.29-2.305 30.244 3.274 34.963 3.043 52.364-2.56 11.865-3.82 23.99-6.663 37.017-8.679 15.941-2.466 63.182-1.497 63.182 1.295 0 .301-6.328 1.801-14.062 3.333-21.675 4.292-39.306 7.086-78.785 12.485-32.75 4.48-49.704 7.266-56.352 9.263-6.476 1.945-10.14 4.125-9.278 5.52.74 1.197 6.053 2.34 15.765 3.39 4.781.516 8.422 1.17 8.09 1.454-.332.283-2.337 1.14-4.456 1.906-4.263 1.54-5.779 2.508-5.779 3.692 0 1.195 9.573.149 15.476-1.69 8.681-2.705 9.708-5.675 3.129-9.045-3.617-1.853-3.611-1.864 1.814-3.59 6.205-1.975 15.46-3.417 40.452-6.305 26.224-3.03 25.767-2.967 36.944-5.138 5.123-.995 9.343-1.392 11.606-1.092 9.791 1.299 33.378-6.313 40.564-13.09 3.157-2.978 3.418-5.9.686-7.69-3.421-2.242-15.801-3.067-28.935-1.929-19.374 1.679-25.49 1.163-26.571-2.242-.534-1.682.788-5.331 2.1-5.8.537-.192 8.084-1.062 16.771-1.934 32.65-3.278 84.05-9.659 90.535-11.24 1.402-.34 1.657.308 2.82 7.171.703 4.15 2.485 13.267 3.959 20.26 5.141 24.387 5.308 36.785.626 46.572-2.466 5.155-4.918 8.03-9.193 10.777-2.613 1.68-4.098 1.888-19.015 2.671-47.219 2.478-99.018 4.651-148.324 6.222-13.35.425-29.993.964-36.985 1.199-32.413 1.084-125.887 3.539-160.267 4.208-60.623 1.18-100.734 3.632-182.997 11.19-16.104 1.48-35.694 3.2-43.534 3.824s-15.641 1.42-17.336 1.77c-1.696.35-4.643.363-6.55.03m470.467-31.798c8.014-1.042 19.08-2.243 24.59-2.67 12.706-.981 20.427-3.002 41.614-10.886 18.973-7.061 28.483-9.724 37.21-10.42 6.89-.55 14.955.888 21.314 3.8l4.09 1.872 4.216-1.713c11.483-4.667 14.32-9.264 7.68-12.44-4.037-1.933-13.457-2.232-24.403-.777-10.592 1.41-14.938 1.566-13.862.501.402-.398 3.998-2.569 7.99-4.823s7.398-4.518 7.57-5.032c.17-.514-.542-1.787-1.584-2.829-7.95-7.949-39.578-1.318-58.829 12.334-6.168 4.374-9.88 8.785-11.87 14.103-1.964 5.25-2.52 5.943-6.321 7.882-4.972 2.537-13.739 3.75-35.62 4.934-11.443.618-23.687 1.66-27.21 2.314-7.11 1.32-13.834 4.122-12.274 5.113 2.038 1.294 21.263.614 35.699-1.263m115.99-60.96c1.854-.666 6.744-1.538 10.866-1.938 7.925-.767 11.383-1.683 11.383-3.013 0-1.757-4.454-2.446-13.87-2.145-7.648.245-10.368.64-13.213 1.92-4.022 1.809-7.11 4.526-6.417 5.647.715 1.157 7.516.873 11.25-.47" style="fill:#a05a2c;stroke-width:.77051401" transform="translate(-812.108 -11.88)"/><path d="M1370.617 806.486c0-2.354 16.279-12.92 26.968-17.505 5.49-2.355 25.148-6.976 26.01-6.114.224.224-.023.924-.547 1.556-2.575 3.103-35.125 19.729-42.227 21.57-5.17 1.339-10.204 1.583-10.204.493" style="fill:#a05a2c;stroke-width:.77051401" transform="translate(-812.108 -11.88)"/><path d="M1435.933 802.55c-2.11-.593-2.5-1.151-1.779-2.546 1.348-2.607 6.976-4.03 10.091-2.553 1.567.744 4.22 3.576 3.763 4.019-.513.499-6.563 1.532-8.747 1.493-1.089-.019-2.586-.205-3.328-.413M1092.906 807.606c-6.127-.715-5.523-2.595 1.981-6.173 2.225-1.06 4.999-2.422 6.164-3.025 5.61-2.902 16.076-5.273 30.628-6.94 16.245-1.86 37.168-2.943 38.654-2.002.32.203-.913.498-3.275.782-2.083.251-4.308.545-4.944.653-.635.109-5.056.348-9.824.533-8.495.329-11.172.743-11.172 1.73 0 1.853 7.958 3.525 18.685 3.926 9.647.361 16.785-.656 21.794-3.105 1.909-.933 2.635-1.127 2.951-.789.873.934-7.528 5.207-15.132 7.698-7.223 2.366-16.88 3.887-21.668 3.412-1.294-.128-5.928.188-11.253.768-23.502 2.56-36.753 3.33-43.589 2.532" style="fill:#a05a2c;stroke-width:.38525701" transform="translate(-812.108 -11.88)"/></svg>
