<?xml version="1.0" encoding="UTF-8" standalone="no"?>
<svg
   xmlns:dc="http://purl.org/dc/elements/1.1/"
   xmlns:cc="http://creativecommons.org/ns#"
   xmlns:rdf="http://www.w3.org/1999/02/22-rdf-syntax-ns#"
   xmlns:svg="http://www.w3.org/2000/svg"
   xmlns="http://www.w3.org/2000/svg"
   xmlns:sodipodi="http://sodipodi.sourceforge.net/DTD/sodipodi-0.dtd"
   xmlns:inkscape="http://www.inkscape.org/namespaces/inkscape"
   inkscape:version="0.92.2 5c3e80d, 2017-08-06"
   sodipodi:docname="acolyte0shot.svg"
   viewBox="0 0 212.84918 706.71675"
   height="706.71674"
   width="212.84918"
   id="svg10"
   version="1.1">
  <metadata
     id="metadata16">
    <rdf:RDF>
      <cc:Work
         rdf:about="">
        <dc:format>image/svg+xml</dc:format>
        <dc:type
           rdf:resource="http://purl.org/dc/dcmitype/StillImage" />
        <dc:title></dc:title>
      </cc:Work>
    </rdf:RDF>
  </metadata>
  <defs
     id="defs14" />
  <sodipodi:namedview
     fit-margin-bottom="0"
     fit-margin-right="0"
     fit-margin-left="0"
     fit-margin-top="0"
     inkscape:current-layer="g18"
     inkscape:window-maximized="1"
     inkscape:window-y="1"
     inkscape:window-x="0"
     inkscape:cy="216.90062"
     inkscape:cx="-28.929943"
     inkscape:zoom="0.35725591"
     showgrid="false"
     id="namedview12"
     inkscape:window-height="700"
     inkscape:window-width="1280"
     inkscape:pageshadow="2"
     inkscape:pageopacity="0"
     guidetolerance="10"
     gridtolerance="10"
     objecttolerance="10"
     borderopacity="1"
     bordercolor="#666666"
     pagecolor="#ffffff"
     inkscape:document-rotation="0" />
  <g
     transform="translate(-483.34944,-214.66443)"
     id="g18"
     inkscape:label="Image"
     inkscape:groupmode="layer">
    <g
       transform="matrix(1.3048661,0,0,1.3887973,-835.32837,-76.636712)"
       id="g2433">
      <path
         inkscape:connector-curvature="0"
         style="fill:#000000;stroke-width:1.33333004"
         d="m 1052.5098,717.96411 c -1.715,-0.8692 -3.5339,-2.4805 -4.0419,-3.5804 -0.508,-1.1 -1.6169,-3.3419 -2.4642,-4.982 -0.8473,-1.64 -1.5405,-4.1546 -1.5405,-5.5879 0,-1.4334 -0.5367,-2.9378 -1.1925,-3.3431 -2.5993,-1.6064 -3.1912,-15.0926 -3.9836,-90.7537 -0.8191,-78.2011 -0.8384,-78.6272 -3.2608,-72 -1.3403,3.6667 -2.9476,7.8667 -3.5718,9.3333 -0.6242,1.4667 -2.3875,6.1656 -3.9184,10.442 -3.988,11.1399 -6.3342,15.2309 -10.1807,17.7512 -3.1617,2.0716 -3.5345,2.0694 -5.6389,-0.034 -1.9705,-1.9695 -2.2345,-5.4681 -2.1035,-27.8724 0.1421,-24.3131 1.0446,-33.8972 4.4841,-47.6203 1.5602,-6.2248 4.1104,-21.7932 6.7707,-41.3333 0.8486,-6.2333 2.095,-14.3333 2.7697,-18 0.6748,-3.6667 1.7111,-11.1667 2.303,-16.6667 1.2478,-11.5944 2.2062,-14.1072 9.1057,-23.8758 3.6998,-5.2382 8.8039,-9.7097 18.6695,-16.3553 12.5695,-8.467 14.3514,-9.2545 23.9959,-10.6062 12.1367,-1.7009 11.6365,-1.6987 23.7633,-0.1041 6.2445,0.8211 13.238,3.0612 21.0788,6.7518 6.4536,3.0377 12.2451,5.523 12.87,5.523 0.6249,0 4.3747,3.1618 8.3329,7.0263 6.368,6.2171 7.4568,8.0979 9.4551,16.3333 1.2422,5.1189 2.2569,10.3652 2.2549,11.6585 0,2.352 2.5183,7.7011 4.2475,9.0097 0.5047,0.382 1.3317,16.882 1.8376,36.6667 0.506,19.7847 1.4431,36.9827 2.0824,38.2179 0.6393,1.2351 1.1624,5.2851 1.1624,9 0,3.7148 0.6,6.7543 1.3333,6.7543 0.7334,0 1.3334,1.1646 1.3334,2.588 0,1.4233 0.6,2.9588 1.3333,3.412 0.7333,0.4532 1.3333,3.296 1.3333,6.3173 0,3.0214 0.7293,7.5101 1.6206,9.975 1.2719,3.5173 1.2719,5.04 0,7.0766 -0.8913,1.4272 -1.6206,4.8131 -1.6206,7.5242 0,4.5961 -3.6878,17.3819 -6.9225,24.0005 -0.7778,1.5914 -1.032,4.9308 -0.5649,7.4208 0.696,3.7098 0.2664,5.0749 -2.3793,7.5604 -4.3609,4.0969 -8.1035,3.2309 -8.2345,-1.9054 -0.056,-2.1832 -0.4807,-4.8694 -0.9444,-5.9694 -0.8704,-2.0646 -1.5265,-9.9712 -3.4854,-42 -1.064,-17.3977 -2.6718,-28.8528 -4.81,-34.2706 -0.7394,-1.8734 -1.3418,-1.9922 -3.4442,-0.6793 -1.9215,1.2 -2.5481,3.1326 -2.5481,7.8586 0,3.447 -0.6,6.6381 -1.3333,7.0913 -1.8397,1.1369 -1.7223,26.4111 0.1312,28.2646 1.4745,1.4745 1.368,3.4849 -1.5396,29.0687 -1.6284,14.3289 -1.8024,22.3654 -0.6204,28.6667 0.7971,4.2495 0.2779,5.3339 -5.8078,12.1312 -7.5569,8.4404 -14.1319,12.3363 -17.646,10.4556 -1.2508,-0.6694 -3.9789,-4.8315 -6.0625,-9.2493 -2.0836,-4.4177 -4.8383,-8.3664 -6.1217,-8.7747 -2.5314,-0.8056 -2.9483,-2.8613 -1.1542,-5.6922 0.6953,-1.0971 0.1204,-4.6268 -1.4777,-9.0709 -1.9816,-5.5109 -2.4003,-8.9548 -1.7268,-14.2039 1.713,-13.3511 2.2281,-43.9264 0.7647,-45.3899 -0.8094,-0.8094 -1.4059,-7.4216 -1.4059,-15.5837 0,-7.7978 -0.3948,-14.5726 -0.8773,-15.0551 -1.7208,-1.7208 -4.456,2.1644 -4.456,6.3294 0,2.3302 -0.5549,4.8068 -1.2332,5.5034 -1.7199,1.7668 -2.8176,17.7607 -3.5184,51.2667 -0.3298,15.7667 -1.1727,29.8667 -1.8732,31.3333 -0.7005,1.4667 -1.6325,9.5667 -2.0712,18 -3.6757,70.6653 -4.3236,77.273 -8.3054,84.713 -3.6997,6.9131 -13.9498,12.0696 -18.952,9.5342 z m 14.1569,-8.3707 c 1.7728,-2.7055 2.3772,-7.4148 2.7811,-21.6667 0.2838,-10.0153 1.0614,-19.4097 1.7281,-20.8764 0.6667,-1.4666 1.5193,-8.0666 1.8947,-14.6666 0.3753,-6.6 1.3248,-19.5 2.1099,-28.6667 0.7851,-9.1667 1.7044,-29.5667 2.0428,-45.3333 0.3385,-15.7667 0.9726,-29.5667 1.4092,-30.6667 0.4366,-1.1 0.6887,-5.9909 0.5603,-10.8687 -0.1338,-5.0852 0.3718,-9.2426 1.1852,-9.7453 0.7802,-0.4822 1.4185,-2.7591 1.4185,-5.0597 0,-4.5166 5.546,-13.6327 9.6202,-15.8132 2.8858,-1.5444 7.6572,-0.3814 7.8364,1.9101 1.4792,18.9117 1.8705,69.8778 0.5789,75.397 -0.7747,3.3109 -0.2437,6.9011 2.0262,13.6978 2.2634,6.7775 2.6831,9.6039 1.5884,10.6985 -1.0946,1.0946 -0.8125,2.0551 1.0678,3.6356 1.4054,1.1813 4.2923,5.4479 6.4152,9.4812 4.8684,9.2493 7.5985,9.8444 14.095,3.0728 3.8644,-4.0281 4.6934,-5.7593 4.0253,-8.4061 -1.7535,-6.9464 -2.1461,-16.4276 -0.7936,-19.1603 0.7731,-1.5619 1.75,-7.9397 2.1709,-14.173 1.0123,-14.9891 1.0119,-15.2583 -0.052,-35.4828 -0.6426,-12.2184 -0.4768,-17.7563 0.5507,-18.3913 0.9197,-0.5684 1.1702,-3.0977 0.669,-6.7545 -0.7327,-5.3451 -0.3675,-6.3752 4.2635,-12.0267 2.7856,-3.3995 6.772,-7.0637 8.8586,-8.1428 4.2039,-2.1739 4.2622,-2.1104 5.622,6.1314 0.4235,2.5667 1.3485,7.3667 2.0556,10.6667 0.7071,3.3 1.3118,13.83 1.3437,23.4 0.035,10.482 0.6242,17.9661 1.4821,18.824 0.7832,0.7832 1.4419,6.0041 1.4639,11.602 0.041,10.4782 1.686,14.4658 3.2568,7.8952 0.4893,-2.0467 1.474,-4.4636 2.1883,-5.3709 0.7143,-0.9074 0.9577,-2.5381 0.541,-3.624 -0.4166,-1.0859 -0.1838,-2.3289 0.5175,-2.7623 0.7014,-0.4335 1.2752,-3.7173 1.2752,-7.2974 0,-3.5801 0.6,-6.8801 1.3333,-7.3333 0.7333,-0.4532 1.3333,-2.5532 1.3333,-4.6667 0,-2.1134 -0.6,-4.2134 -1.3333,-4.6666 -0.7333,-0.4533 -1.3333,-3.5281 -1.3333,-6.8331 0,-3.3049 -0.691,-7.3001 -1.5356,-8.8781 -2.4407,-4.5604 -4.056,-18.6645 -4.6845,-40.9008 -0.3204,-11.3366 -1.1991,-21.3548 -1.9526,-22.2627 -0.7535,-0.908 -1.2565,-3.0326 -1.1178,-4.7214 0.1388,-1.6888 0.1859,-6.9015 0.1047,-11.5838 l -0.1476,-8.5131 -2.4729,3.1798 c -1.3602,1.7489 -5.3098,7.3402 -8.7769,12.425 -6.262,9.1839 -14.6599,16.4707 -23.2173,20.1455 -2.4569,1.0551 -7.3172,4.3046 -10.8006,7.221 -7.5496,6.321 -11.6861,8.0584 -19.1524,8.0448 -6.2634,-0.012 -20.5926,-4.0135 -24.7193,-6.9039 -6.3268,-4.4315 -25.4122,-22.7766 -28.8368,-27.7182 -2.0459,-2.9523 -4.2141,-5.3677 -4.8183,-5.3677 -1.4294,0 -3.2809,7.3817 -5.1836,20.6667 -0.8402,5.8666 -2.1393,13.6666 -2.8869,17.3333 -0.7475,3.6667 -1.8708,12.6667 -2.4961,20 -0.6253,7.3333 -1.7045,18.4333 -2.3982,24.6667 -2.3908,21.4827 -2.9842,34.6666 -1.5602,34.6666 1.6899,0 5.0235,-7.3717 9.9487,-22 2.3995,-7.1269 4.297,-11.9213 6.1931,-15.6486 0.6477,-1.2733 1.1777,-3.17 1.1777,-4.2148 0,-2.5585 8.0939,-9.2427 9.4952,-7.8414 0.6117,0.6117 1.3505,38.5955 1.642,84.4085 0.5161,81.1252 0.7608,89.6388 2.631,91.5089 0.4942,0.4942 0.8985,2.5631 0.8985,4.5976 0,2.0345 0.6,4.0699 1.3333,4.5231 0.7334,0.4533 1.3334,1.7725 1.3334,2.9317 0,5.9989 10.6467,7.7065 14.2035,2.2781 z m 43.4891,-229.4508 c 3.2326,-2.9796 9.7241,-7.309 14.4257,-9.6209 6.1889,-3.0433 9.7935,-5.9221 13.0599,-10.4305 l 4.5115,-6.2271 -6.5115,4.9998 c -3.5814,2.7499 -8.4205,5.8577 -10.7537,6.9063 -2.3332,1.0485 -4.6564,2.5766 -5.1627,3.3957 -1.0094,1.6334 -19.649,10.4853 -27.6144,13.1141 -7.2162,2.3815 -4.7661,4.5051 4.4303,3.8399 6.8284,-0.494 8.4282,-1.1963 13.6149,-5.9773 z m -23.3593,-1.3806 c -2.0167,-0.3055 -5.3167,-0.3055 -7.3333,0 -2.0167,0.3055 -0.3667,0.5554 3.6666,0.5554 4.0334,0 5.6834,-0.2499 3.6667,-0.5554 z m 19.1888,-9.6653 c 2.638,-2.1744 8.0806,-5.1824 12.0948,-6.6842 10.513,-3.9334 17.5493,-13.3568 18.9377,-25.3622 0.3817,-3.3 1.0745,-8.5336 1.5395,-11.6302 0.6413,-4.2693 0.1681,-7.03 -1.9576,-11.421 -1.5418,-3.1849 -2.8032,-6.3884 -2.8032,-7.119 0,-1.8739 -5.9969,-6.0838 -16.7596,-11.7655 -5.0822,-2.6829 -11.7921,-6.3909 -14.9108,-8.2398 -7.7908,-4.6188 -15.625,-4.7921 -21.6723,-0.4793 l -4.6573,3.3215 6,0.4175 c 6.8522,0.4768 9.3396,2.1096 6.9121,4.5371 -1.0764,1.0763 -5.1926,1.4859 -12.2467,1.2186 l -10.6255,-0.4026 -9.9859,6.3258 c -5.4922,3.4792 -11.1184,7.5808 -12.5027,9.1147 -3.1418,3.4815 -5.5513,13.1416 -5.5513,22.2562 0,6.1251 0.6747,7.8381 5.6667,14.3864 6.8859,9.0328 10.7316,12.4659 22.1773,19.798 l 8.8227,5.6517 13.3628,0.015 c 12.8557,0.014 13.545,-0.1351 18.1593,-3.9386 z m 7.1874,0.6883 c 2.5431,-1.0626 4.6238,-2.2706 4.6238,-2.6845 0,-0.7449 -9.2843,2.7896 -10.4871,3.9924 -1.1635,1.1636 1.2217,0.6315 5.8633,-1.3079 z m 24.9571,-16.4901 c 2.0167,-1.8756 3.6667,-4.2479 3.6667,-5.2718 0,-2.7318 -1.3274,-1.7675 -8.6924,6.3148 -5.4138,5.9409 -5.9018,6.8329 -2.6409,4.8274 2.2,-1.3531 5.65,-3.9948 7.6666,-5.8704 z m 4.9796,-11.9899 c -0.018,-1.9431 -0.199,-1.9783 -1.3129,-0.2547 -1.6875,2.6112 -1.6875,4.3763 0,3.3334 0.7333,-0.4533 1.3241,-1.8387 1.3129,-3.0787 z m 4.9312,0.8287 c -0.4256,-1.0637 -0.7415,-0.7478 -0.8055,0.8055 -0.058,1.4056 0.2572,2.1931 0.7003,1.75 0.443,-0.4431 0.4904,-1.5931 0.1052,-2.5555 z m -94.2441,-46.6406 c 3.3,-1.8792 8.1,-3.8087 10.6667,-4.2877 2.5666,-0.4791 7.6666,-2.795 11.3333,-5.1465 6.0088,-3.8536 6.3507,-4.3234 3.4651,-4.7612 -6.4228,-0.9743 -32.1318,8.3604 -32.1318,11.6668 0,0.6614 -2.1,3.1833 -4.6666,5.6042 -2.5667,2.421 -4.6667,5.4343 -4.6667,6.6963 0,1.262 -0.6,2.6654 -1.3333,3.1187 -0.7334,0.4532 -1.3334,1.4077 -1.3334,2.121 0,0.7134 2.85,-1.6036 6.3334,-5.1488 3.4833,-3.5453 9.0333,-7.9835 12.3333,-9.8628 z m -10,12.2239 c 1.3273,-1.4667 2.1133,-2.6667 1.7466,-2.6667 -0.3666,0 -1.7526,1.2 -3.0799,2.6667 -1.3274,1.4667 -2.1133,2.6667 -1.7467,2.6667 0.3667,0 1.7527,-1.2 3.08,-2.6667 z m 99.3333,-4 c 0,-0.7333 -0.6354,-1.3333 -1.412,-1.3333 -0.7766,0 -1.0412,0.6 -0.588,1.3333 0.4533,0.7333 1.0887,1.3333 1.4121,1.3333 0.3233,0 0.5879,-0.6 0.5879,-1.3333 z m -89.6197,-3.3333 c 2.698,-1.8334 4.4343,-3.3334 3.8585,-3.3334 -0.5758,0 -3.2544,1.5 -5.9524,3.3334 -2.6979,1.8333 -4.4343,3.3333 -3.8585,3.3333 0.5758,0 3.2544,-1.5 5.9524,-3.3333 z"
         id="path2366" />
      <path
         inkscape:connector-curvature="0"
         style="fill:#800000;stroke-width:0.72644699"
         d="M 57.451533,96.754184 C 45.413203,89.035181 39.267215,83.672178 33.023235,75.438008 27.404803,68.02877 26.400878,62.35168 28.721946,51.11467 30.878819,40.672578 33.044031,38.278796 49.736018,27.882244 l 5.818113,-3.623793 9.142417,0.352193 c 10.088707,0.388647 14.454047,-0.429334 14.454047,-2.70841 0,-2.179035 -1.95108,-3.11606 -7.282576,-3.497526 -5.826465,-0.416882 -5.815792,-0.917464 0.08807,-4.13075 3.35918,-1.828295 4.249929,-1.995085 9.019968,-1.688962 4.927562,0.316231 5.961824,0.706623 14.991285,5.658601 13.135088,7.203603 22.429988,12.625495 24.450538,14.262448 2.18391,1.769306 7.41466,14.71911 7.37147,18.249587 -0.0182,1.492944 -0.63117,6.727059 -1.36201,11.631367 -2.30612,15.475364 -6.98895,22.205165 -19.64634,28.234219 -3.80966,1.814644 -8.536742,4.454277 -10.504618,5.865851 -5.988842,4.295841 -7.183535,4.565301 -20.241647,4.565301 H 64.15485 Z"
         id="path2388"
         transform="translate(1010.5848,371.59135)" />
      <path
         inkscape:connector-curvature="0"
         style="fill:#800000;stroke-width:0.25683799"
         d="m 79.831116,114.34123 c -0.679846,-0.12325 -1.53885,-0.42248 -1.908899,-0.66494 l -0.672817,-0.44085 0.771035,-0.68892 c 0.433265,-0.38712 2.113359,-1.17718 3.835183,-1.80348 10.214465,-3.71544 24.710192,-10.70083 27.720582,-13.358346 0.97794,-0.863306 2.81092,-2.052887 4.54376,-2.948833 3.75438,-1.941173 7.6226,-4.462662 12.34333,-8.045963 2.0836,-1.581568 3.78836,-2.802696 3.78836,-2.713617 0,0.477152 -4.7732,6.637861 -6.46109,8.33924 -2.42341,2.442788 -4.6013,3.927765 -10.15592,6.92473 -5.00162,2.698599 -9.81265,5.851769 -12.91934,8.467409 -1.200721,1.01093 -2.934376,2.46953 -3.852572,3.24133 -2.198826,1.84827 -4.259675,2.82238 -6.934623,3.27783 -2.774542,0.4724 -8.484476,0.70676 -10.096989,0.41441 z"
         id="path2390"
         transform="translate(1010.5848,371.59135)" />
      <path
         inkscape:connector-curvature="0"
         style="fill:#800000;stroke-width:0.25683799"
         d="m 24.691285,38.577393 c 0,-0.136545 0.509022,-0.821396 1.13116,-1.52189 0.622138,-0.700495 1.200023,-1.628969 1.284189,-2.063277 0.08417,-0.434307 0.218767,-1.130761 0.299112,-1.547674 0.258035,-1.338943 2.015043,-3.690945 5.367231,-7.184795 2.040439,-2.126666 3.460038,-3.837263 3.774558,-4.548288 0.613345,-1.386567 1.98446,-2.435321 5.351887,-4.093611 5.082922,-2.503085 11.565392,-4.842027 18.23549,-6.579552 3.320217,-0.8649 4.428606,-1.0428263 6.677784,-1.071968 1.483239,-0.019218 2.914789,0.054151 3.181225,0.163042 0.474678,0.193998 0.474678,0.20885 0,0.737903 -0.855342,0.953324 -6.561465,4.588877 -9.397122,5.987207 -1.511725,0.745465 -3.765477,1.667317 -5.008339,2.048558 -7.625148,2.338969 -10.368876,3.48674 -14.002777,5.857719 -3.11831,2.034576 -7.069646,5.286386 -10.857469,8.935312 -3.260611,3.141048 -5.536466,5.129579 -5.870753,5.129579 -0.0914,0 -0.166176,-0.111719 -0.166176,-0.248265 z"
         id="path2392"
         transform="translate(1010.5848,371.59135)" />
      <path
         inkscape:connector-curvature="0"
         style="fill:#800000;stroke-width:0.25683799"
         d="m 118.65236,87.426427 c 0.9254,-1.299606 8.64855,-9.669312 10.06703,-10.909811 1.69085,-1.478689 2.30278,-1.577364 2.30278,-0.371331 0,1.605734 -1.93765,4.088925 -5.52202,7.076724 -2.29633,1.914144 -6.63737,4.916521 -7.10864,4.916521 -0.13542,0 -0.018,-0.320446 0.26085,-0.712103 z"
         id="path2394"
         transform="translate(1010.5848,371.59135)" />
      <path
         inkscape:connector-curvature="0"
         style="fill:#800000;stroke-width:0.25683799"
         d="m 96.7557,99.661624 c 0.410354,-0.663966 8.75572,-4.092912 9.89735,-4.066627 1.08183,0.02491 -3.29729,2.233178 -7.067185,3.563787 -2.399286,0.846846 -3.122145,0.975276 -2.830165,0.50284 z"
         id="path2396"
         transform="translate(1010.5848,371.59135)" />
      <path
         inkscape:connector-curvature="0"
         style="fill:#800000;stroke-width:0.25683799"
         d="m 130.14147,72.75776 c -0.20722,-0.335278 0.34841,-1.779221 1.24673,-3.239976 l 0.78974,-1.284189 0.084,0.881678 c 0.13082,1.373336 -0.18937,2.585946 -0.85984,3.256424 -0.64616,0.646154 -1.02766,0.762989 -1.26061,0.386063 z"
         id="path2398"
         transform="translate(1010.5848,371.59135)" />
      <path
         inkscape:connector-curvature="0"
         style="fill:#800000;stroke-width:0.25683799"
         d="m 130.37096,72.021954 c 0.0962,-0.388468 0.51074,-1.28419 0.92111,-1.990494 l 0.74612,-1.284189 0.005,1.15577 c 0.005,1.298653 -0.76742,2.825217 -1.43005,2.825217 -0.32597,0 -0.37871,-0.154019 -0.24188,-0.706304 z"
         id="path2400"
         transform="translate(1010.5848,371.59135)" />
      <path
         inkscape:connector-curvature="0"
         style="fill:#800000;stroke-width:0.25683799"
         d="m 131.174,32.642532 c -0.74308,-0.883096 -0.84778,-1.468189 -0.30032,-1.678268 0.71607,-0.274783 1.43268,0.37841 1.43268,1.305907 0,1.196684 -0.34365,1.309689 -1.13236,0.372361 z"
         id="path2402"
         transform="translate(1010.5848,371.59135)" />
      <path
         inkscape:connector-curvature="0"
         style="fill:#800000;stroke-width:0.25683799"
         d=""
         id="path2404"
         transform="translate(1010.5848,371.59135)" />
      <path
         inkscape:connector-curvature="0"
         style="fill:#800000;stroke-width:0.25683799"
         d="m 38.175273,30.976075 c 2.120457,-1.760316 7.98245,-5.442704 8.245497,-5.179658 0.246076,0.246076 -5.356637,4.17789 -7.542173,5.292868 -1.403948,0.71624 -1.653989,0.675993 -0.703324,-0.11321 z"
         id="path2406"
         transform="translate(1010.5848,371.59135)" />
      <path
         inkscape:connector-curvature="0"
         style="fill:#d40000;stroke-width:0.363224"
         d="m 45.245297,340.03677 c -2.100678,-1.10045 -3.261338,-2.76112 -3.261338,-4.66629 0,-0.7113 -0.400692,-1.64041 -1.07147,-2.48447 -0.652147,-0.82062 -1.143519,-1.94182 -1.255571,-2.86493 -0.101255,-0.83416 -0.279552,-2.38251 -0.396215,-3.44077 -0.116663,-1.05827 -0.52667,-2.52932 -0.911127,-3.26901 -0.390987,-0.75226 -0.864588,-2.78542 -1.074758,-4.61391 -0.555959,-4.83688 -1.043777,-33.38818 -1.473907,-86.26561 -0.375625,-46.17714 -0.826961,-74.39565 -1.303415,-81.49238 l -0.240412,-3.5809 -1.211447,0.19659 c -2.668893,0.4331 -7.842921,5.05732 -8.508925,7.60474 -0.221416,0.8469 -0.538763,2.03018 -0.705214,2.6295 -0.166451,0.59932 -1.197013,3.1328 -2.290139,5.62996 -1.093124,2.49716 -3.175094,7.97276 -4.6266,12.16799 -4.47135,12.92338 -8.2648511,21.61181 -9.4360461,21.61181 -1.3466397,0 -0.8722271,-12.0137 1.2765665,-32.3269 0.4966163,-4.69467 1.4717786,-14.50171 2.1670266,-21.79342 1.448948,-15.19647 1.956011,-19.26911 3.436947,-27.60499 0.585605,-3.29626 1.6582,-9.83428 2.383544,-14.52895 1.88546,-12.203323 3.374845,-18.758097 4.596795,-20.230456 0.553932,-0.667447 1.398802,0.139476 5.018876,4.793454 2.687546,3.455118 14.302122,15.271662 20.52901,20.885992 4.846435,4.36968 8.602348,7.23785 10.907743,8.3296 5.965636,2.82511 17.076867,5.47564 22.917688,5.46689 6.878497,-0.0103 10.309921,-1.43157 18.175906,-7.52834 5.904825,-4.57672 8.669425,-6.38804 12.588645,-8.24787 4.36623,-2.07196 9.10816,-5.448783 13.25118,-9.436432 4.15663,-4.000743 6.53573,-6.924716 11.69497,-14.373359 1.86801,-2.696935 4.42981,-6.276912 5.69289,-7.955504 l 2.29652,-3.051986 0.008,11.042905 c 0.007,10.284074 0.0583,11.153751 0.73975,12.655991 1.15516,2.546366 1.89834,10.011995 2.3343,23.449345 0.46181,14.23383 1.41165,26.36936 2.57287,32.87174 0.62036,3.47377 0.95447,4.68546 2.15332,7.8093 0.90951,2.3699 1.13011,3.72432 1.60521,9.85551 0.25977,3.35238 0.47525,4.32017 1.26008,5.65937 1.68222,2.8705 1.60971,6.92161 -0.1669,9.32461 -0.59898,0.81016 -0.81181,2.05142 -1.21468,7.08399 -0.41958,5.24128 -0.60034,6.25304 -1.28188,7.17488 -0.67547,0.91361 -0.75773,1.35892 -0.55331,2.99509 0.21018,1.68221 0.1051,2.18964 -0.84254,4.0686 -0.59548,1.18068 -1.43326,3.32513 -1.86174,4.76544 -0.84206,2.83055 -1.2617,3.39387 -1.77729,2.38575 -0.61171,-1.19609 -0.82411,-3.15608 -1.17213,-10.81607 -0.34292,-7.54785 -0.50673,-8.75961 -1.57629,-11.6603 -0.72242,-1.95924 -1.31305,-10.01702 -1.31515,-17.94243 -0.002,-7.05877 -0.57795,-18.71033 -1.07751,-21.79342 -0.92686,-5.7202 -3.39705,-18.09653 -3.7689,-18.88318 -0.59506,-1.25887 -1.43361,-1.30622 -3.6789,-0.2077 -3.2451,1.58769 -9.33355,7.51488 -12.34096,12.01412 -1.87544,2.80576 -2.1362,4.25736 -1.6186,9.01068 l 0.44202,4.05927 -0.96559,2.03278 c -0.92197,1.94093 -0.9656,2.29876 -0.9656,7.91914 0,3.2375 0.26229,10.98563 0.58287,17.21807 0.91697,17.82705 -0.0817,35.4026 -2.45579,43.21872 -0.69386,2.28438 -0.74836,3.09222 -0.55369,8.20649 0.12991,3.41291 0.50806,7.10665 0.94928,9.27236 0.73087,3.58755 0.73093,3.60512 0.0171,5.21883 -0.40422,0.91381 -2.02224,2.9604 -3.71427,4.69807 -6.37264,6.54452 -8.42726,6.08818 -13.67237,-3.03669 -2.756593,-4.79562 -5.493131,-8.73733 -7.11301,-10.24559 -1.057395,-0.98454 -1.175214,-1.93018 -0.328078,-2.63323 0.932617,-0.774 0.411136,-4.45305 -1.487659,-10.49551 -2.388939,-7.60221 -2.593456,-9.00533 -2.082811,-14.28938 0.234751,-2.42915 0.529983,-9.56533 0.656073,-15.85818 0.334383,-16.68832 -0.697517,-57.43357 -1.520218,-60.02668 -0.595553,-1.87716 -5.825849,-2.53881 -8.245906,-1.04313 -2.769511,1.71165 -6.653512,7.01704 -8.289907,11.32367 -0.395464,1.04078 -0.881261,3.22016 -1.079548,4.84307 -0.229045,1.87463 -0.617938,3.30602 -1.066356,3.92493 -1.130675,1.56055 -1.428696,3.70698 -1.438147,10.35795 -0.0049,3.43585 -0.246909,8.09419 -0.537833,10.35187 -0.552227,4.28546 -1.112612,15.67729 -1.470536,29.89375 -0.499697,19.84771 -1.251094,35.70165 -2.380575,50.22846 -0.392746,5.0513 -1.041805,13.87764 -1.442353,19.61407 -0.862605,12.35374 -1.259747,15.97966 -2.176738,19.8737 -0.855268,3.63194 -1.330335,9.30592 -1.8095,21.61181 -0.521502,13.3933 -1.037472,17.78116 -2.401293,20.42079 -1.891243,3.66045 -7.032158,5.01798 -11.044038,2.91632 z"
         id="path2408"
         transform="translate(1010.5848,371.59135)" />
    </g>
  </g>
</svg>
