<?xml version="1.0" encoding="UTF-8" standalone="no"?>
<svg
   xmlns:dc="http://purl.org/dc/elements/1.1/"
   xmlns:cc="http://creativecommons.org/ns#"
   xmlns:rdf="http://www.w3.org/1999/02/22-rdf-syntax-ns#"
   xmlns:svg="http://www.w3.org/2000/svg"
   xmlns="http://www.w3.org/2000/svg"
   xmlns:sodipodi="http://sodipodi.sourceforge.net/DTD/sodipodi-0.dtd"
   xmlns:inkscape="http://www.inkscape.org/namespaces/inkscape"
   inkscape:version="0.92.2 5c3e80d, 2017-08-06"
   sodipodi:docname="clawmarks.svg"
   viewBox="0 0 1241.9884 1009.2107"
   height="1009.2107"
   width="1241.9884"
   id="svg10"
   version="1.1">
  <metadata
     id="metadata16">
    <rdf:RDF>
      <cc:Work
         rdf:about="">
        <dc:format>image/svg+xml</dc:format>
        <dc:type
           rdf:resource="http://purl.org/dc/dcmitype/StillImage" />
        <dc:title></dc:title>
      </cc:Work>
    </rdf:RDF>
  </metadata>
  <defs
     id="defs14" />
  <sodipodi:namedview
     inkscape:current-layer="g18"
     inkscape:window-maximized="1"
     inkscape:window-y="1"
     inkscape:window-x="0"
     inkscape:cy="521.68172"
     inkscape:cx="648.68974"
     inkscape:zoom="0.41690454"
     showgrid="false"
     id="namedview12"
     inkscape:window-height="700"
     inkscape:window-width="1280"
     inkscape:pageshadow="2"
     inkscape:pageopacity="0"
     guidetolerance="10"
     gridtolerance="10"
     objecttolerance="10"
     borderopacity="1"
     bordercolor="#666666"
     pagecolor="#ffffff"
     inkscape:document-rotation="0"
     inkscape:pagecheckerboard="false"
     fit-margin-top="0"
     fit-margin-left="0"
     fit-margin-right="0"
     fit-margin-bottom="0" />
  <g
     id="g18"
     inkscape:label="Image"
     inkscape:groupmode="layer"
     transform="translate(-1171.3156,-311.66812)">
    <g
       transform="matrix(1.1068189,0.36716688,-0.39120503,1.1792816,747.66092,-431.53784)"
       id="g2572">
      <path
         d="m 951.39796,1138.1246 c -7.93579,-24.5921 13.21815,-45.2734 4.87406,-6.2695 35.88255,-10.103 50.25248,-61.6576 73.78178,-90.7972 28.4998,-34.8354 48.4703,-75.31922 75.6851,-111.26812 30.2259,-51.98749 65.5436,-100.84314 92.8839,-154.61726 35.332,-55.63037 69.9401,-111.75881 106.0664,-166.78126 23.2406,-42.14129 57.1027,-77.67111 78.4596,-121.16741 36.9773,-48.00698 67.7988,-100.48206 98.5521,-152.56407 11.2886,-58.35827 -50.8227,23.26135 -66.3218,38.5211 -34.6565,29.24046 -58.9421,67.91605 -88.9744,101.55479 -36.5823,50.11034 -74.2705,99.42621 -105.1747,153.37039 -41.1914,63.84371 -82.2378,127.77659 -117.1687,195.34513 -34.1835,56.77133 -62.2339,116.93655 -96.164,173.80012 -16.76945,42.07879 -47.0892,77.28859 -61.8229,120.39339 -18.42668,21.2609 13.12462,-39.1371 20.89868,-52.2129 26.14301,-41.6916 45.14692,-87.10144 71.11902,-128.93172 35.6491,-68.52305 74.4419,-135.42444 112.1282,-202.77552 51.1009,-76.79615 95.1566,-158.37116 152.5717,-230.85491 29.7195,-40.34455 60.444,-80.40226 95.3087,-116.32507 28.5081,-28.68841 54.3459,-61.49744 88.3108,-84.15332 11.7028,42.4495 -34.8813,76.44233 -50.4074,113.7316 -27.1054,41.9922 -56.4988,82.30484 -82.3149,125.15858 -31.7769,38.7955 -52.8598,84.2252 -82.638,124.44538 -34.4818,56.41784 -71.5111,111.32506 -102.2172,169.91955 -32.452,46.32836 -57.7408,97.02873 -92.6158,141.70707 -21.3977,41.86216 -55.0571,75.77156 -75.8385,118.19006 -13.63624,13.7922 -27.41336,44.1601 -48.98174,42.5811 z m 182.38534,-5.751 c -0.9082,-40.6109 28.5216,-75.6496 42.2958,-112.9815 24.498,-61.0643 66.5464,-112.61577 98.6015,-169.53865 31.618,-44.33734 57.2145,-92.51579 91.7163,-134.79556 28.7222,-41.72165 62.7826,-79.59027 86.1173,-124.92584 28.4252,-30.42751 40.4038,-69.53266 58.6171,-105.74079 22.2508,-42.20544 51.2264,-81.50877 67.8186,-126.12111 21.459,-50.35113 75.7418,-4.44466 42.8474,30.78771 -18.1391,35.86616 -36.1328,72.76602 -61.7401,104.20829 -36.9749,66.83451 -75.7396,132.63717 -115.0909,198.10906 -54.5753,77.55871 -104.8726,157.77168 -154.3543,238.60958 -27.9754,39.91955 -50.8637,82.96891 -81.4807,120.87501 -26.2326,24.9984 -36.8744,76.183 -75.348,81.5138 z m 16.4212,-8.8897 c 30.8098,-29.5921 48.7984,-71.4158 78.2234,-103.3825 38.6129,-59.90398 77.277,-120.01275 114.7886,-180.61424 38.5359,-65.03707 85.507,-124.87397 123.3152,-190.42927 31.3394,-53.17985 61.7409,-106.97248 93.2559,-160.00003 26.1582,-34.20118 44.8932,-73.4795 63.0637,-112.1137 14.3963,-49.68343 -47.3786,-39.36555 -45.9676,0.55529 -25.4976,43.3717 -51.5674,86.79471 -74.1899,131.82438 -12.4434,46.2919 -50.5312,78.63899 -70.6862,121.26246 -41.3986,58.22839 -87.7934,113.20498 -123.6359,175.23786 -36.9538,51.95251 -67.8771,107.63081 -102.7912,160.9374 -23.6518,49.22525 -48.9466,98.16395 -67.3791,149.59515 -3.1433,10.9709 3.7904,16.7475 12.0031,7.1272 z m -371.07324,-11.5281 c 6.88198,-41.9644 21.16089,-81.7963 32.5989,-122.55451 34.74846,-75.5433 67.59113,-152.10259 110.39644,-223.64338 62.80928,-117.18064 134.5334,-229.96648 218.6031,-333.12015 54.1055,-72.08005 116.3406,-138.74067 187.508,-194.1619 18.2345,-11.28682 84.0294,-70.43235 55.3634,-20.1835 -30.6497,44.54822 -68.0764,84.69209 -99.5253,128.97518 -57.4649,71.95424 -112.929,145.50301 -167.4286,219.73938 -47.0311,65.32269 -96.2438,129.13364 -138.21376,197.89836 -43.88155,70.15609 -84.39492,142.43036 -120.70919,216.81928 -27.72107,40.79754 -40.09424,90.38154 -68.24894,130.09594 -2.10285,1.335 -15.12267,17.1853 -10.34405,0.1353 z m 12.3734,-5.8979 c 32.10278,-72.8383 71.77455,-142.36731 107.68127,-213.65179 32.49354,-55.91869 63.93267,-112.47668 100.33495,-166.00443 47.47892,-72.57676 101.53262,-140.69346 151.77962,-211.43288 49.9276,-65.55851 99.6914,-131.34443 150.804,-196.03044 25.2879,-37.76729 61.4981,-68.41644 81.1514,-109.5471 -23.2787,-1.56437 -71.2269,46.8466 -98.8714,68.91441 -62.8539,54.48052 -115.3064,119.65531 -164.9179,186.13216 -96.9633,123.00552 -173.42674,260.40444 -245.66286,398.89759 -21.66762,52.85173 -51.91798,102.31559 -66.65508,157.72248 -9.13337,26.2181 -12.85333,31.2691 3.9826,10.5876 -6.11382,17.2027 -36.46757,72.529 -19.6266,74.4124 z m 90.2933,-30.7933 c 9.0732,-30.176 31.5451,-60.8527 44.57598,-91.77378 34.3005,-57.41352 63.84331,-117.58522 98.29926,-174.86989 33.4272,-50.28956 65.0247,-101.86673 103.1776,-148.87763 12.7397,-14.34522 49.2716,-60.97548 55.7086,-48.26906 -20.0399,42.35837 -48.8986,79.93293 -72.2369,120.56282 -43.0173,72.03612 -89.1467,142.21573 -126.98206,217.17152 -30.32448,39.6426 -47.71717,92.26152 -93.95408,117.27732 -2.75271,0.3026 -6.75577,14.2152 -8.5884,8.7787 z m 32.7402,-29.4441 c 29.63618,-35.3505 52.94133,-75.84263 75.32213,-115.87605 49.05811,-89.83117 105.37391,-175.4489 157.63561,-263.32236 13.0114,-12.19456 48.372,-80.87653 14.0536,-38.80833 -31.2594,27.39984 -53.1514,64.10979 -78.5465,97.02895 -31.654,50.76595 -67.6382,99.0092 -92.78874,153.55383 -35.00375,59.6252 -68.37797,120.27045 -98.6149,182.26366 7.11368,0.3631 16.76448,-10.2994 22.9388,-14.8397 z M 1176.7313,896.79122 c 1.2401,-39.46878 33.0763,-75.01914 55.8631,-106.2821 38.8238,-55.2712 83.2486,-106.51616 120.5748,-162.78456 10.5237,-19.71574 56.4358,-75.93454 57.3132,-64.56461 -34.7342,26.55583 -53.5477,67.19235 -79.5463,101.41244 -41.5362,56.74128 -86.8736,110.93924 -126.0798,169.17475 -11.2311,12.19639 -39.6824,82.69912 -5.8385,45.71681 46.8613,-52.13182 79.629,-114.89793 116.6146,-174.01951 28.8886,-40.93863 56.371,-83.22084 85.9762,-123.58546 11.6896,-18.25799 39.5474,-50.47924 13.3301,-12.58911 -30.8118,34.14215 -49.0169,77.24989 -80.1796,111.30027 -44.739,70.74216 -83.0803,146.94078 -140.815,208.42357 -4.8533,2.99112 -10.2846,13.49612 -17.2128,7.79751 z m 11.7334,-357.22136 c 30.2387,-50.48731 64.9913,-98.30603 97.4789,-147.28537 9.3287,-16.60749 59.6047,-49.27274 19.6747,-16.86631 -37.3943,38.27188 -59.6707,88.27629 -93.0592,129.94901 -12.6004,18.23481 -21.2578,40.5373 1.5061,13.49827 32.233,-40.62909 78.5622,-69.54981 102.8053,-116.4494 13.7664,-15.292 46.5778,-80.3625 23.8528,-28.44386 -24.0748,36.17954 -47.7621,72.16596 -80.9356,100.99768 -26.1038,17.84765 -42.827,56.07501 -71.323,64.59998 z"
         style="fill:#000000;stroke-width:1.33333004"
         id="path1749"
         inkscape:connector-curvature="0" />
      <path
         d="m 1301.9873,384.2118 c 7.0095,-4.17636 13.638,-9.0298 19.6183,-14.58807 2.8503,-2.6492 5.5504,-5.57926 8.2275,-8.40122 2.1207,-1.98698 4.6234,-6.04396 7.3224,-7.45534 0.3901,-0.20396 0.8664,-0.17327 1.306,-0.19538 0.5256,-0.0264 1.1341,-0.23229 1.578,0.0504 0.3485,0.22194 -0.8183,0.11523 -1.2275,0.17285 1.3477,-0.0764 12.1591,-0.1263 5.2767,-0.10501 -0.023,-0.10417 1.0257,0.13171 0.9405,0.0671 -0.3553,-0.26956 -0.8594,-0.30261 -1.2015,-0.58883 -0.9799,-0.81991 -1.1864,-1.30409 -1.7084,-2.23652 -1.3383,3.31698 -2.3876,6.74167 -3.6299,10.09762 -1.0923,3.42467 -2.9269,6.42218 -5.0509,9.28476 -1.0354,1.6733 -2.2769,3.20523 -3.4047,4.81216 -0.3963,0.56461 -0.7296,1.17296 -1.1436,1.72471 -0.5443,0.72544 -3.3281,3.86044 -3.5952,4.16475 -3.9068,4.71691 -1.9296,2.28566 -5.9255,7.29882 -0.4362,0.7275 9.8521,6.89688 10.2884,6.16939 v 0 c 3.7218,-5.28331 1.9882,-2.68752 5.2259,-7.77041 0.5645,-0.90838 2.3075,-3.74304 3.0412,-4.82913 1.5201,-2.25029 3.6037,-4.10296 4.8079,-6.58056 2.1513,-3.61144 4.4863,-7.15681 5.8971,-11.14676 1.5616,-4.17929 2.9863,-8.46609 3.4745,-12.92183 -0.1115,-0.95198 0.012,-1.96216 -0.3345,-2.85593 -0.964,-2.48844 -1.8345,-2.99755 -4.0178,-3.91837 -0.3215,-0.13558 -0.9038,0.2098 -1.2236,-0.0319 -0.9397,10e-4 -1.8795,0.01 -2.8191,0.003 -0.148,-10e-4 -0.5911,-0.0273 -0.4431,-0.0259 0.859,0.008 1.7225,0.13724 2.5768,0.0469 0.3378,-0.0357 -0.6643,-0.14177 -0.9962,-0.21406 -2.0222,-0.44049 -0.7559,-0.19236 -3.1128,-0.60511 -3.9183,0.016 -5.484,-0.39695 -8.8952,0.79189 -5.0676,1.7661 -8.8921,5.71314 -12.7027,9.29869 -1.2747,1.21383 -2.5194,2.45994 -3.824,3.6415 -7.1991,6.51999 -15.1314,12.23537 -21.8289,19.3032 -0.5333,0.5306 6.9706,8.07299 7.5039,7.54239 z"
         id="path1761"
         style="fill:#000000"
         inkscape:connector-curvature="0" />
      <path
         d="m 1391.1371,586.80516 c 0.5865,-0.45302 1.2073,-0.86493 1.7596,-1.35907 5.8068,-5.19519 10.9045,-12.15233 15.341,-18.50493 3.276,-4.86701 6.9193,-9.06828 11.6798,-12.52026 0.497,-0.36038 3.9049,-2.49354 4.5282,-2.88565 2.3752,-1.38375 3.94,-1.96788 5.2985,-4.6017 0.2262,-0.43869 0.2429,-0.95685 0.3643,-1.43528 -0.017,0.11079 0.058,0.35755 -0.052,0.33237 -3.2544,-0.74984 -6.3528,-2.31496 -9.6823,-2.5752 -0.6719,-0.0525 -0.7166,1.14282 -1.0333,1.73767 -1.4187,2.66488 -2.2723,5.50941 -3.2197,8.36277 -0.9195,3.84771 -3.1551,7.08811 -5.2257,10.38525 -0.3472,0.7104 9.6994,5.62154 10.0466,4.91114 v 0 c 2.2926,-3.9729 4.6753,-7.95011 5.7884,-12.45153 0.7559,-2.41356 1.3173,-4.88135 2.1582,-7.26519 0.1589,-0.45072 0.901,-1.05734 0.5144,-1.33833 -2.6041,-1.89263 -5.5674,-3.27731 -8.5459,-4.49881 -0.2855,-0.11709 -0.1677,0.59394 -0.2516,0.89092 0.4464,-1.43337 0.032,-0.4072 1.4176,-2.30726 0.048,-0.0652 0.1867,-0.23178 0.1072,-0.21719 -1.4414,0.26472 -3.1695,1.26535 -4.5284,1.65184 -2.2214,1.13305 -3.7823,1.86029 -5.9226,3.29203 -5.7046,3.81594 -10.2659,8.98528 -14.2361,14.53218 -4.5635,6.7005 -9.2043,13.35297 -14.1995,19.74179 -0.4329,0.55812 7.4601,6.68056 7.893,6.12244 z"
         id="path1763"
         style="fill:#000000"
         inkscape:connector-curvature="0" />
      <path
         d="m 963.2198,1098.8996 c 1.73069,-6.0125 2.1305,-12.2782 2.83223,-18.4628 0.51146,-4.5077 0.26955,-1.5934 0.45211,-3.9448 -3.94909,0.7805 -7.89818,1.5611 -11.84726,2.3416 -0.68282,-0.6017 -1.34572,-2.3833 -2.04845,-1.805 -1.12216,0.9234 -0.6387,2.8356 -0.93335,4.2587 -1.70082,8.2146 -2.79968,16.4622 -3.87767,24.7785 -0.88829,8.2482 -1.46744,16.5511 -1.41289,24.8521 0.01,1.4793 0.0294,2.9628 0.18088,4.4343 0.0624,0.6058 -0.14736,1.6998 0.45772,1.7687 4.72562,0.538 9.51209,-0.061 14.26813,-0.092 1.49913,-5.7233 0.7808,-2.6285 2.07073,-9.3037 0.11126,-1.1415 -16.0316,-2.7148 -16.14285,-1.5734 v 0 c -0.31362,7.0582 -0.40384,3.8212 0.0585,9.7144 4.66602,0.8799 9.25484,2.4211 13.99806,2.6396 0.71475,0.033 0.68648,-1.2676 0.88882,-1.9539 0.4278,-1.451 0.72146,-2.94 0.99284,-4.4282 1.47579,-8.0929 2.01997,-16.3098 2.85344,-24.482 0.64089,-8.3537 0.84413,-9.961 1.17332,-18.0813 0.0279,-0.6872 0.37746,-10.3962 0.10999,-12.0586 -0.38341,-2.383 0.41079,-6.1534 -1.8492,-7.0008 -3.96463,-1.4866 -8.4025,1.0543 -12.60374,1.5814 -0.44628,0.8875 -0.99091,1.7321 -1.33883,2.6625 -2.66392,7.1244 -2.52294,15.6466 -2.69737,23.1466 -0.0713,1.0193 14.34355,2.0276 14.41485,1.0083 z"
         id="path1765"
         style="fill:#000000"
         inkscape:connector-curvature="0" />
      <path
         transform="translate(779.13126,194.39126)"
         id="path1771"
         d="m 185.90158,929.76622 c 0.53743,-1.88865 1.3911,-14.1678 1.89704,-27.28702 l 0.91989,-23.85311 12.95328,-21.91306 c 7.12431,-12.05218 16.81726,-29.85348 21.5399,-39.55844 4.72264,-9.70496 11.93681,-23.43481 16.03148,-30.51078 4.09468,-7.07598 19.88044,-36.0754 35.07949,-64.44316 15.19904,-28.36777 33.97769,-62.6924 41.73035,-76.27696 7.75265,-13.58457 19.21746,-34.17934 25.47736,-45.76618 15.57782,-28.83398 45.47602,-78.59303 75.48167,-125.62277 13.78392,-21.60441 29.83817,-47.12638 35.67611,-56.71548 40.23255,-66.08393 129.03419,-183.58667 169.09384,-223.74574 9.56537,-9.58911 25.81692,-26.75063 36.11457,-38.13673 24.98377,-27.6245 37.78217,-37.87528 43.14796,-34.55903 0.84451,0.52194 1.53548,4.63623 1.53548,9.14288 0,7.9622 -0.59244,9.18208 -20.95004,43.13787 -26.24451,43.77493 -47.12599,76.05034 -65.2978,100.92736 -7.7681,10.63443 -15.99064,23.0217 -18.27233,27.52726 -5.33241,10.52974 -17.80217,29.45446 -39.69286,60.23989 -9.60969,13.51435 -21.52958,31.19594 -26.48863,39.29245 -4.95905,8.0965 -17.84348,28.45075 -28.63206,45.23168 -39.1935,60.9629 -86.5926,136.78609 -91.12301,145.76727 -9.35019,18.53597 -70.10845,117.38194 -93.03102,151.34964 -6.20142,9.18956 -19.62321,29.78434 -29.82619,45.76618 -10.20298,15.98184 -24.92511,37.55732 -32.71585,47.94551 -7.79074,10.3882 -19.25355,27.71396 -25.47292,38.50171 -18.99434,32.94646 -31.58923,49.19843 -42.76128,55.17753 -3.18008,1.70192 -3.33064,1.60097 -2.41443,-1.61877 z"
         style="fill:#800000;stroke-width:1.45289004"
         inkscape:connector-curvature="0" />
      <path
         transform="translate(779.13126,194.39126)"
         id="path2342"
         d="m 360.66551,931.90174 c -4.665,-4.66498 9.32782,-40.2246 45.35632,-115.26296 15.27673,-31.8176 24.61341,-48.97845 40.31421,-74.09761 11.23818,-17.97957 28.15244,-45.11237 37.58726,-60.29512 9.43481,-15.18275 24.16293,-38.06584 32.72916,-50.85131 8.5662,-12.78547 20.65029,-31.41884 26.85352,-41.40749 14.09623,-22.69825 30.36535,-45.66319 70.42164,-99.40484 33.34887,-44.74261 36.84954,-49.76339 47.99416,-68.83484 3.87398,-6.62944 14.48341,-22.6476 23.57648,-35.59592 9.09308,-12.94831 19.06516,-27.74905 22.16016,-32.89052 6.22087,-10.33422 15.21641,-30.10887 15.24481,-33.51224 0.0286,-3.42818 26.64897,-52.48984 51.71903,-95.31873 17.07971,-29.17846 23.16229,-40.85165 24.01799,-46.09327 1.64136,-10.05446 7.42833,-19.08054 15.12523,-23.59122 18.35371,-10.756 32.67131,-2.25162 30.80781,18.29926 -0.5889,6.49456 -3.67173,13.91927 -16.04835,38.6511 -17.55186,35.07332 -26.20152,50.22144 -40.95851,71.7305 -5.75655,8.39046 -20.92285,33.23496 -33.70289,55.20998 -88.83271,152.74609 -82.65056,142.63431 -131.90832,215.75483 -17.76422,26.37003 -49.2675,75.07832 -70.00731,108.24063 -52.88319,84.55865 -103.93336,163.32607 -112.5259,173.62089 -4.00176,4.79455 -15.69034,21.13961 -25.97463,36.32236 -31.23662,46.1148 -47.60059,64.5078 -52.78187,59.32652 z"
         style="fill:#ff0000;stroke-width:1.45289004"
         inkscape:connector-curvature="0" />
      <path
         transform="translate(779.13126,194.39126)"
         id="path2344"
         d="m 9.7792508,909.61217 c -1.4549119,-1.4549 -1.6939107,-3.04006 -1.2852698,-8.52456 0.5865191,-7.87185 4.640946,-19.19633 16.20521,-45.263 4.386844,-9.88826 7.769075,-18.19686 7.516067,-18.46356 -0.253007,-0.26669 -2.72596,2.04485 -5.49545,5.13676 -2.76949,3.09191 -5.055452,5.21296 -5.079915,4.71343 -0.02446,-0.49951 1.520687,-5.35375 3.433666,-10.78719 1.912978,-5.43342 5.430322,-16.12012 7.816318,-23.7482 7.330713,-23.43646 14.225378,-39.79703 37.233361,-88.35223 7.36304,-15.53869 15.902957,-34.03102 18.977593,-41.09406 10.613368,-24.381 60.630319,-117.63082 95.506029,-178.05802 46.57896,-80.70478 92.98773,-151.61756 137.9542,-210.79453 7.72841,-10.17078 21.60863,-28.43195 30.84493,-40.58038 47.9155,-63.02285 90.29318,-111.85719 126.8083,-146.12884 19.21496,-18.034393 70.71467,-62.300617 84.26497,-72.429373 16.2438,-12.142131 30.63985,-19.787342 37.25986,-19.787342 1.77596,0 -2.07984,7.748175 -9.69116,19.47423 -7.90121,12.172665 -15.44823,21.909983 -36.64236,47.276724 -10.13778,12.13364 -22.3626,27.389811 -27.16629,33.902601 -4.8037,6.51279 -15.9742,21.0876 -24.82333,32.38847 -43.65625,55.75161 -123.85991,160.90065 -145.36234,190.5737 -8.39383,11.58339 -28.91428,39.55303 -45.601,62.15477 -69.59919,94.27038 -107.11611,149.62605 -145.1744,214.20279 -28.41177,48.20863 -47.80861,82.58663 -61.44343,108.89926 -8.051921,15.53869 -21.921134,42.12141 -30.820473,59.07271 -20.653516,39.34044 -43.607037,85.24724 -54.449918,108.89926 -4.662628,10.17078 -8.594597,18.62992 -8.737709,18.79809 -0.143111,0.16816 -1.064468,-0.49852 -2.0474592,-1.48151 z"
         style="fill:#ff0000;stroke-width:1.02734995"
         inkscape:connector-curvature="0" />
      <path
         transform="translate(779.13126,194.39126)"
         id="path2346"
         d="m 114.05705,864.3868 c 0,-1.03903 27.55601,-54.58963 40.35434,-78.42209 13.08172,-24.36016 36.38223,-66.01465 48.56008,-86.8112 4.63222,-7.91061 11.94026,-21.41105 16.24009,-30.00098 12.81439,-25.59979 23.5177,-43.25842 64.635,-106.63678 22.53087,-34.72915 60.78636,-87.84836 74.72788,-103.7625 10.73082,-12.24913 37.3679,-38.89376 37.74671,-37.75737 1.1563,3.46892 -14.13725,32.34008 -24.17643,45.64024 -3.125,4.14007 -12.34859,18.56813 -20.49687,32.06236 -8.1483,13.49422 -27.6571,45.39348 -43.3529,70.88725 -48.8062,79.27301 -68.64856,112.79257 -100.72153,170.14816 -29.31729,52.42765 -57.67214,95.54571 -73.04881,111.08235 -8.41691,8.50448 -20.46756,16.4944 -20.46756,13.57056 z"
         style="fill:#ff0000;stroke-width:1.02734995"
         inkscape:connector-curvature="0" />
      <path
         transform="translate(779.13126,194.39126)"
         id="path2348"
         d="m 421.78365,333.67321 c 1.64064,-5.52054 9.49733,-18.47156 19.21828,-31.67954 5.7651,-7.8331 19.67085,-28.46978 30.90167,-45.85928 30.1965,-46.75544 44.93583,-66.28443 50.18799,-66.49696 4.2779,-0.1731 13.69716,-7.20782 25.84553,-19.30259 6.1187,-6.09171 11.5409,-10.81874 12.04932,-10.50451 1.35075,0.8348 -2.56113,10.40881 -6.69188,16.37781 -1.96406,2.83811 -5.8914,7.93405 -8.72741,11.32431 l -5.1564,6.16411 2.51679,2.23087 2.5168,2.23087 -3.57794,4.96059 c -1.96786,2.72833 -6.22779,9.22459 -9.46651,14.43614 -10.33132,16.62459 -22.30765,30.3819 -50.50348,58.01378 -15.01483,14.71452 -30.45534,30.28248 -34.31225,34.59548 -22.90493,25.61347 -26.41469,28.94043 -24.80051,23.50892 z"
         style="fill:#ff0000;stroke-width:1.02734995"
         inkscape:connector-curvature="0" />
      <path
         transform="translate(779.13126,194.39126)"
         id="path2350"
         d="m 405.44146,694.8319 c -2.75415,-2.75414 2.26919,-20.57431 10.65458,-37.79687 7.33551,-15.06622 30.28546,-47.4789 73.47162,-103.76544 48.33343,-62.9952 68.07344,-89.72556 86.55132,-117.20089 23.24528,-34.5641 31.1151,-44.67064 34.16364,-43.87343 2.69155,0.70386 9.26064,-5.36161 16.09342,-14.85963 3.89296,-5.41145 6.49352,-7.81201 6.49352,-5.99409 0,0.23477 -7.5445,10.98343 -16.76555,23.88592 -9.22107,12.90249 -25.48322,36.17255 -36.13813,51.71124 -10.65492,15.53869 -24.98935,36.34256 -31.85429,46.23082 -13.03685,18.77826 -16.13399,23.70605 -45.52134,72.42828 -28.43482,47.14299 -46.40538,73.92474 -66.54547,99.17353 -16.37647,20.53051 -28.3612,32.30268 -30.60332,30.06056 z"
         style="fill:#ff0000;stroke-width:1.02734995"
         inkscape:connector-curvature="0" />
      <path
         transform="translate(779.13126,194.39126)"
         id="path2352"
         d="m 186.27166,930.49397 c 0.35305,-0.92004 1.19513,-12.89221 1.87128,-26.60482 l 1.22938,-24.93204 12.22183,-21.06925 c 6.722,-11.58808 16.19523,-28.92849 21.05162,-38.53423 4.85638,-9.60573 13.55928,-26.01767 19.33977,-36.47098 5.78049,-10.4533 21.1415,-38.6541 34.13558,-62.66844 28.96999,-53.53939 75.8817,-137.90046 88.92032,-159.9049 25.58787,-43.18304 84.63326,-137.51966 109.14203,-174.37588 35.21308,-52.95332 86.15821,-120.75912 123.20807,-163.9847 6.05393,-7.06304 21.94242,-24.3996 35.30774,-38.52568 48.36081,-51.11351 57.7327,-60.06459 64.72603,-61.8198 3.32386,-0.83424 4.24216,0.98174 4.26108,8.4265 0.0204,8.05973 -2.47176,13.21908 -22.04031,45.62733 -25.39355,42.05525 -39.23597,63.34504 -70.44369,108.34313 -5.055,7.28875 -10.99296,16.53491 -13.19549,20.54703 -5.16072,9.40072 -17.14186,27.5226 -36.06724,54.55292 -18.82106,26.88129 -18.87053,26.95701 -62.58295,95.77851 -57.76883,90.95213 -77.8253,123.30811 -91.55699,147.70379 -29.45026,52.32128 -115.08857,186.24989 -154.98069,242.37226 -5.59058,7.86512 -15.41809,23.01603 -21.83892,33.66868 -13.95776,23.15701 -22.36726,35.16091 -30.45023,43.46538 -6.52599,6.70482 -13.41956,11.43158 -12.25822,8.40519 z"
         style="fill:#ff0000;stroke-width:1.02734995"
         inkscape:connector-curvature="0" />
    </g>
  </g>
</svg>
