<?xml version="1.0" encoding="UTF-8" standalone="no"?>
<svg
   xmlns:dc="http://purl.org/dc/elements/1.1/"
   xmlns:cc="http://creativecommons.org/ns#"
   xmlns:rdf="http://www.w3.org/1999/02/22-rdf-syntax-ns#"
   xmlns:svg="http://www.w3.org/2000/svg"
   xmlns="http://www.w3.org/2000/svg"
   xmlns:sodipodi="http://sodipodi.sourceforge.net/DTD/sodipodi-0.dtd"
   xmlns:inkscape="http://www.inkscape.org/namespaces/inkscape"
   inkscape:version="1.0 (4035a4fb49, 2020-05-01)"
   sodipodi:docname="acolyte hang.svg"
   viewBox="0 0 1019.377 1492.3009"
   height="1492.3009"
   width="1019.377"
   id="svg10"
   version="1.1">
  <metadata
     id="metadata16">
    <rdf:RDF>
      <cc:Work
         rdf:about="">
        <dc:format>image/svg+xml</dc:format>
        <dc:type
           rdf:resource="http://purl.org/dc/dcmitype/StillImage" />
        <dc:title></dc:title>
      </cc:Work>
    </rdf:RDF>
  </metadata>
  <defs
     id="defs14" />
  <sodipodi:namedview
     fit-margin-bottom="0"
     fit-margin-right="0"
     fit-margin-left="0"
     fit-margin-top="0"
     inkscape:current-layer="g18"
     inkscape:window-maximized="1"
     inkscape:window-y="-11"
     inkscape:window-x="-11"
     inkscape:cy="279.54589"
     inkscape:cx="87.992069"
     inkscape:zoom="0.39335741"
     showgrid="false"
     id="namedview12"
     inkscape:window-height="1826"
     inkscape:window-width="1080"
     inkscape:pageshadow="2"
     inkscape:pageopacity="0"
     guidetolerance="10"
     gridtolerance="10"
     objecttolerance="10"
     borderopacity="1"
     bordercolor="#666666"
     pagecolor="#ffffff"
     inkscape:document-rotation="0" />
  <g
     transform="translate(-25.876662,-6.0205536)"
     id="g18"
     inkscape:label="Image"
     inkscape:groupmode="layer">
    <path
       d="m 590.57506,1495.5714 c -17.83385,-31.0738 -74.86564,-5.4771 -92.05654,-17.4617 -30.93334,-16.4556 -101.76167,-0.1568 -141.74471,-13.5288 -21.17716,10.433 -25.33737,2.9352 -49.00004,-9.5654 -61.96103,-15.9429 -126.10811,19.269 -187.03362,-0.7759 -55.793156,-23.9431 -48.373301,-91.147 -48.331763,-141.1597 1.369443,-52.6312 8.577722,-104.1746 4.015249,-156.7585 1.551582,-105.4186 25.311924,-208.93322 38.588204,-313.20408 13.88248,-72.1318 26.28867,-144.85952 39.92061,-217.2959 9.15244,-15.81744 23.2071,-87.35871 6.70434,-41.876 -22.81371,27.15879 -20.20141,93.91086 -29.26481,137.83208 -1.30575,25.5615 -15.25432,89.02055 -9.4636,27.51754 9.30987,-51.23153 8.35104,-104.8638 24.05719,-154.47322 18.02706,-47.53281 35.40792,-46.27983 37.5405,-100.95979 14.67583,3.31116 -3.73226,78.95583 -16.15186,107.78251 -20.75386,67.70642 -25.53927,139.41302 -40.60541,208.57067 -0.4228,58.84138 -14.63584,116.01177 -18.08855,174.5562 -6.55542,-23.30412 14.15116,-109.38009 5.39203,-93.18307 -5.48798,31.89541 -19.986254,151.82076 -14.02201,130.58956 18.37191,-71.15726 -0.75827,28.4472 0.96523,50.5588 -16.403492,51.5742 -12.954851,108.0358 -9.93212,160.8946 1.975458,30.9147 -13.943159,-21.827 -10.706046,22.2723 -1.070219,53.6224 -9.446545,109.9829 9.247466,161.4178 31.80779,50.9868 96.44888,36.5678 146.31277,29.7182 35.08698,-13.4287 96.8027,24.6246 76.22157,-24.423 2.07894,-54.2449 -24.64865,-105.4471 -40.73891,-155.7714 24.03633,16.4152 -7.14358,-57.3376 -10.61116,-80.4678 -14.82917,-39.8216 -54.2406,-61.3781 -71.15875,-98.0663 -19.65811,-9.4127 -45.70371,-72.6063 -54.89824,-107.48969 -13.4146,-52.87632 31.17335,-92.91308 56.04177,-134.0621 34.92284,-31.21272 77.80445,-49.61743 121.18264,-66.8498 29.69451,-36.20631 14.50853,-101.79238 38.47085,-147.00134 17.03704,-54.51659 17.69104,-113.11361 25.66108,-169.64233 2.59992,-29.84944 -3.03812,-108.88072 12.34588,-108.03127 -0.82191,60.43998 14.07151,119.00327 14.51439,179.35449 3.41846,76.81882 10.86283,153.92085 8.76946,230.73235 51.64405,1.00776 103.99337,0.67183 152.84893,-18.2293 35.80169,-17.05327 77.22276,-28.06368 116.02659,-40.7385 19.30491,-4.97022 30.44894,-1.8281 28.66806,-11.02 23.68978,-48.5747 47.93734,-99.4322 54.78665,-153.86337 -0.62997,-68.22677 32.97646,-131.0742 32.98579,-199.1698 42.77655,7.95428 20.49323,101.63429 26.46271,142.59219 1.31096,86.41188 -1.67833,175.23887 25.87632,258.14397 15.60318,35.80405 52.45388,45.63814 77.26154,72.80687 33.20843,39.3423 21.46405,97.61595 17.64729,145.15038 -19.66224,52.04725 -40.61542,105.04035 -67.50156,153.46245 -33.4371,37.1861 -49.64237,87.4554 -60.29657,135.0929 10.10847,46.099 -5.61396,36.7468 -5.98318,24.2726 -5.85407,35.9768 7.42768,111.3288 -6.74218,123.75 -6.35949,-4.8605 -9.43263,44.9146 8.23525,56.0376 2.3016,42.145 46.7629,-28.2305 74.58408,-28.8698 51.25022,-23.6739 104.64852,-58.5857 102.49118,-122.9189 9.66499,-49.85 0.46052,-109.3466 5.7357,-153.9989 10.79675,67.1771 6.92395,136.5199 -10.4077,202.2269 -32.63723,60.5472 -107.5377,72.4273 -157.12277,114.2503 -25.69889,30.415 -40.70369,2.0224 -82.17506,16.7887 -44.01099,10.8789 -96.62187,-2.054 -133.54569,10.6759 -9.1136,-8.8374 -20.49184,-11.7172 -18.90661,6.5579 l -3.07139,-2.75 z m 80.69875,-14.7392 c 62.81319,-12.4958 -94.36311,-5.4003 -14.5,3.3878 l 5.70313,-0.9577 8.79687,-2.4297 z m 58,-2.5108 c 36.52518,-8.8993 -50.75256,6.1771 0,-8e-4 z m -128.75173,-2.7448 c -12.7257,-11.4988 -15.00624,4.0141 0,0 z m 211.75173,-3.2552 c 6.34938,-10.4337 -12.75334,9.73 0,0 z m -92.409,-0.1261 c 42.70673,-6.9588 -72.63505,-10.0982 -14.15677,0.8938 l 6.07821,-0.02 z m -71.091,-0.8739 c 1.15773,-3.6922 -12.04825,3.7752 0,0 z m -99,-4.6702 c -18.84413,-6.6419 -88.01389,-7.5228 -29.64481,-0.2536 3.80335,2.0837 48.13037,5.7381 29.64481,0.2536 z m 204.25,2.0079 c -5.50682,-1.6231 -0.99942,1.7503 0,0 z m -105.62764,-4.0609 c 40.05395,-8.8277 72.46666,-1.2763 112.59965,-2.2068 49.48279,7.4237 7.62487,-76.9486 23.6167,-110.07 -0.81381,-51.1073 15.63726,-102.2098 25.17162,-149.2705 -22.16422,50.4659 -71.49941,81.0811 -114.42922,111.7402 -19.02927,29.9052 -77.27385,39.5338 -76.24299,78.0624 5.84345,25.3944 -17.34762,88.5787 29.28424,71.7447 z m -175.3948,-5.2795 c -26.07321,-13.4825 -48.16124,4.8227 -2.72756,1.913 2.33219,-0.5506 10.65629,1.6916 2.72756,-1.913 z m -59.66869,-1.5291 c -28.91584,-5.8503 -15.60904,6.3162 0,0 z m 185.08031,-2.2182 c -4.23312,-65.9405 -7.9998,2.888 0,0 z m -214.16018,-2.1503 c 41.24017,-6.4652 91.42796,3.9089 136.59228,-1.3105 68.63719,19.469 25.317,-93.3715 -11.95425,-108.0516 -48.99102,-22.7562 -94.62021,-50.3608 -143.19903,-70.9523 -31.03264,-17.8055 -83.96699,-48.1602 -49.28595,9.198 33.77039,45.1978 21.80953,107.792 30.87352,160.904 3.96947,10.7508 19.6788,-15.4056 3.11035,8.9555 38.48447,-12.644 8.25226,10.3289 33.86308,1.2569 z m 1.771,3.238 c -5.50682,-1.6231 -0.99942,1.7503 0,0 z m 188.38029,-1.5877 c -2.89997,-11.4579 -9.92332,8.5686 0,0 z m 30.4441,-26.9429 c 9.50486,-28.7245 -18.61883,-66.4201 -10.24143,-54.879 5.84815,11.5611 11.24212,109.0149 10.24143,54.879 z m -266.7488,14.4429 c -5.45798,-28.5762 -1.5627,16.4566 0,0 z m -1.75447,-52 c -0.95775,-15.4403 -4.74232,-51.0744 -10.91979,-70.8697 2.72464,8.8901 8.12054,107.9806 10.91979,70.8697 z m 243.95845,-12.9882 c -7.5207,2.2392 4.77065,29.761 0,0 z m -12.41203,-11.6892 c 46.49126,7.7144 84.82182,-40.8964 123.88246,-62.1167 16.33851,-9.3717 60.13042,-60.3165 26.86716,-19.3403 -19.1583,15.2132 -38.88237,30.9418 -3.99167,11.5165 34.88225,-37.5027 39.32963,-35.7907 21.74846,-86.3569 -10.17449,-68.9172 -50.56262,36.545 -91.56219,32.7248 -44.68647,4.7693 -94.53723,26.4255 -144.16177,21.8462 -43.227,-11.2365 -77.92288,-48.3833 -120.36855,-54.3197 -18.94734,-12.98 -55.64979,-54.8907 -47.61166,-3.8835 -20.01848,48.113 49.86029,56.6276 83.32221,70.6027 42.84286,10.1969 54.7089,53.8237 105.05833,62.763 25.56367,8.4783 29.6595,18.2291 40.07135,27.0997 -0.80338,7.8858 4.05925,-2.1717 6.74587,-0.5358 z m 43.90146,0.9045 c 2.54656,-4.7452 -5.64796,5.1906 0,0 z m 190.981,-3.6581 c -3.91494,-12.1025 -4.74174,14.4334 0,0 z m -175.55716,-0.9178 c 12.76784,-8.167 -15.15057,6.6965 0,0 z m -9.47085,-2.8869 c 16.39504,-9.3267 -17.00314,6.9888 0,0 z m 12.02801,-6.2695 c -7.76245,3.5718 -8.42139,9.8767 0,0 z m 16.52646,-0.5517 c -4.34968,1.1878 -1.93311,2.8301 0,0 z m -325.45474,-12.3724 c -1.88875,-27.7055 -18.4034,-72.8233 -7.68939,-16.7896 -3.93227,5.8255 12.41509,42.5527 7.68939,16.7896 z m 324.18441,6.4005 c 4.68706,-6.83 -13.36695,8.3125 0,0 z m 8.93626,-5.5807 c -3.93942,0.5884 -8.15592,11.2814 0,0 z m -12.26274,3.4241 c 7.79274,-14.1007 -7.42498,4.2977 0,0 z m 18.82035,-3.3639 c 9.34787,-13.4594 -16.20853,12.7797 0,0 z m -2.31224,-8.3683 c 21.13041,-19.3149 -25.06799,15.4858 0,0 z m 16.7125,-10.8324 c 5.03473,-9.2976 -12.52744,13.1097 0,0 z m -369.77065,-2.9272 c -6.00149,-18.4049 1.97465,20.3174 0,0 z m 384.16313,-5.3634 c -9.97806,5.1181 -10.7069,12.4267 0,0 z m 11.95726,-6.6043 c 4.2141,-7.1784 -12.30457,10.0623 0,0 z m 14,-5.6051 c 5.11579,-7.1523 -7.46262,7.2725 0,0 z m 17.4725,-16.9014 c 6.71824,-14.0333 -19.69357,21.7389 0,0 z m -326.20696,2.5207 c -6.20283,-6.5538 0.73908,5.4955 0,0 z m 326.23446,-8.1193 c 7.06119,-8.8902 -9.41089,9.0264 0,0 z m 18.00524,-10.504 c -0.18081,-8.618 -23.13864,17.9452 0,0 z m 0.94955,-8.746 c -11.59698,0.8172 -12.66281,14.1117 0,0 z m 22.0305,-7.2145 c 17.71362,-11.2978 35.21443,-66.4963 9.96332,-20.8446 -5.01052,9.5048 -38.67468,41.3028 -9.96332,20.8446 z m -12.60373,0.4126 c -0.99125,-3.678 -2.05816,5.0908 0,0 z m -207.5184,-0.9519 c 58.77634,-0.6148 108.85005,-27.8372 150.14744,-67.9989 41.95165,-43.3807 74.47276,-93.6899 103.79198,-146.1761 13.39067,-36.9582 19.57831,-83.83767 37.4695,-131.47224 -3.20198,-29.29338 33.26586,-90.09323 0.39656,-100.06275 -52.12909,11.7465 -106.93693,-8.60529 -140.97103,-48.7862 -11.7882,-25.78492 -65.50691,-14.49536 -70.44761,9.999 3.49994,27.02739 -20.24077,89.39648 16.61239,43.36186 23.22129,8.18876 54.60314,39.05423 45.28785,63.43194 1.74698,42.33595 -60.43479,38.19331 -60.41707,44.89942 -31.80565,24.0048 -43.57984,88.02397 -88.18368,52.67381 -32.69567,-20.05937 -39.07416,-62.25995 -67.73639,-72.85045 -43.61974,32.133 -81.06883,-33.03314 -33.1174,-59.86264 41.93095,-33.74939 -57.33597,-17.08821 -80.15111,-25.25101 -33.8091,1.6047 -85.87591,18.49318 -67.64197,29.12607 29.25401,29.08789 -56.28108,-26.56803 -14.47074,23.246 12.91608,22.99804 79.4254,70.25773 18.21926,34.80922 -14.43221,-17.13862 -59.32038,-75.14674 -32.6689,-25.39122 11.79512,30.97443 44.08994,68.42465 65.21504,75.7673 -43.02385,17.15732 -76.57917,-98.05025 -80.40883,-79.1957 13.75855,43.13341 61.44661,90.68712 77.78975,113.09904 -47.98931,-20.34374 -62.5733,-75.57739 -89.25643,-114.15584 -3.89323,12.28636 32.86339,72.57296 3.61709,42.2137 8.7776,38.41257 42.37523,82.61132 48.9094,112.49769 -24.45855,-14.833 -41.85388,-83.78144 -49.92449,-87.54632 6.39575,35.9961 37.25587,91.19492 39.53527,110.29142 7.09038,29.0572 2.4902,61.6328 33.78617,85.7974 27.09741,27.4906 61.74649,70.286 90.63637,79.5769 44.72567,25.1182 91.12869,47.7136 143.98158,37.9586 z m -117.48513,-90.3503 c -51.44893,-17.7131 -79.43044,-69.8885 -67.51774,-124.3611 7.34411,-27.7798 3.90035,-57.88799 7.13148,-82.08889 -3.55052,-25.93916 64.16269,-113.9532 31.6682,-57.55055 -24.97562,33.88687 -30.87924,105.71314 -25.58121,129.40954 11.972,-10.8762 1.13927,71.8226 13.32911,90.5543 -16.26722,-5.1174 -23.77764,-105.8382 -18.33605,-33.9967 -3.30207,46.7349 37.57792,46.7867 57.32269,55.2606 -46.60187,0.9062 47.23674,18.9033 14.22639,25.5851 z m 191.0631,-11.6436 c 7.87199,-0.8498 65.69641,-18.3343 54.32884,-27.678 -17.9263,20.5396 -65.41821,22.6067 -18.30046,3.2362 21.36424,-12.2031 -32.51519,25.5568 9.53136,-0.3463 17.57514,-4.0751 59.23005,-70.8539 24.50422,-29.8758 16.00059,-16.9751 45.6791,-90.5032 12.77514,-36.8478 -12.29314,26.8849 -77.16016,85.5216 -32.15572,24.4745 33.94651,-36.2316 81.65751,-78.5304 47.69571,-124.87936 -17.75663,-15.14092 -38.1992,-87.61701 -7.37626,-49.42474 4.49506,38.00614 24.6463,47.53645 33.72615,70.73051 1.23217,30.35039 -26.02928,82.21579 -46.41778,118.33199 -19.3294,25.7687 -39.53291,62.7203 -78.3112,52.2788 z m 66.0701,-79.0023 c 11.08146,-20.1925 -20.71852,28.3972 0,0 z m 52.48877,-90.05899 c -3.10608,-3.62664 -1.89761,5.03537 0,0 z m -0.44505,-9.0781 c -14.07919,-26.20766 3.43197,21.95468 0,0 z M 421.77381,1090.2732 c 10.60955,-67.5533 83.15677,-81.2721 139.84344,-75.3923 49.60512,7.8661 44.28563,-18.83718 45.96693,-51.00524 8.51208,27.99367 -3.28604,53.27784 28.58775,59.99004 3.43658,19.8863 45.25857,73.946 2.71832,44.6034 -6.264,-71.36612 -75.54025,-10.7928 -119.50967,-32.3977 -51.31969,-14.4893 -70.11589,23.1239 -97.60677,54.2018 z m 38,-48.2812 c 6.54204,-14.9305 -35.32042,22.4505 -7.0577,2.0354 -16.32987,21.1519 1.05432,2.8837 7.0577,-2.0354 z m 114,-9.196 c 14.60474,-5.8665 -47.72296,3.4991 -7.17679,0.7908 z m -64,-7.4746 c -4.06495,-2.9911 -18.09747,2.8858 0,0 z m 19,-3 c -3.6907,-3.1378 -15.93776,3.1157 0,0 z m 71.8151,-4.1376 c 24.553,-8.1592 -53.60081,5.8771 -4.86629,0.786 z m -89.2973,-12.7814 c 2.20898,-32.66802 25.96191,-60.99572 11.77325,-10.01618 0.52298,4.3608 -11.20593,20.11228 -11.77325,10.01618 z m 250.26859,241.1142 c 4.06785,-7.9114 -8.70601,9.5402 0,0 z m 5.71536,-13.6952 c 4.18281,-28.8746 18.63969,-40.6864 4.96177,-40.3572 22.4076,-27.9601 4.02705,-44.2134 -6.27578,-5.3872 -25.52843,40.9303 13.32971,-43.5432 -9.188,1.2454 -18.0091,19.1691 12.12857,-56.2397 19.50151,-69.4847 30.64826,-36.1349 -49.20429,42.3563 -33.28298,45.2394 -4.49683,9.0321 -0.22622,75.8017 17.46792,79.1402 z m 3.62581,9.75 c 3.24846,-4.9704 -5.68858,6.3135 0,0 z m -449.11391,-4.5 c -6.7986,-6.9345 13.68606,-48.8866 -15.92149,-37.4813 -12.63466,-19.4036 6.11699,-54.4525 4.89394,-45.668 -29.09648,-20.0418 -15.44778,91.4984 11.02755,83.1493 z m 330.4286,-6.8617 c 23.65879,-15.6986 -23.85975,13.7621 0,0 z m 12.55775,-2.057 c -4.79882,-1.7956 -7.10761,5.3063 0,0 z m 21.19933,-11.5813 c -6.18388,1.0192 -10.08634,8.559 0,0 z m -14.12364,-3.9084 c 8.65144,-8.9323 -11.70397,9.003 0,0 z m 153.84283,-8.0746 c 9.14663,-57.4107 59.93321,-91.6232 74.6824,-146.392 21.6555,-51.5024 50.52355,-103.05908 42.72294,-161.25819 6.43761,-44.10946 -20.35364,-85.60496 -56.34023,-103.59007 -14.10443,37.76797 45.73804,72.64574 33.55582,119.73107 -3.37099,52.5812 -31.59866,96.41369 -58.52298,139.60219 -18.46748,46.223 -34.48073,97.7281 -35.89475,145.7629 -2.86929,-1.425 -3.40537,22.1071 -0.2032,6.1441 z m -133.41852,2.733 c 5.11579,-7.1523 -7.46262,7.2725 0,0 z m 107.6881,-1.6574 c 19.72849,-32.4228 -6.04791,-10.5311 -3.57854,2.8664 z m -8.80699,-6.6561 c 19.81381,-18.3307 0.27757,-41.6583 -1.15759,-21.3797 15.85187,-17.2442 -18.68852,54.5924 1.15759,21.3797 z m -86.49893,-1.945 c -6.12602,2.4844 -20.19959,18.5149 0,0 z m -428.7978,-1.4915 c -0.0293,-50.9985 -30.04386,-99.1672 -57.58438,-139.25 -30.28483,-11.6342 -60.67667,-33.775 -62.52051,-69.49999 -1.95543,-50.58015 36.54567,-92.37838 72.01328,-123.73287 19.02711,-36.10453 96.69283,-46.7039 89.14589,-81.401 -47.24173,20.54469 -101.78166,35.87994 -132.93118,79.13928 -36.69727,45.62906 -59.23652,103.63065 -26.6712,158.49658 16.28829,45.8806 50.65293,51.1824 79.24755,91.7941 28.94557,20.2646 -25.42903,1.7132 4.92596,27.7039 14.46799,14.0195 33.17129,55.2457 34.37459,56.75 z M 215.77381,864.43441 c 7.37639,-10.33776 18.8969,-12.08286 0,0 z m 478.76391,334.66799 c 26.75306,-23.1345 -21.20808,11.9631 0,0 z m 11.36365,-8.531 c 3.24846,-4.9704 -5.68858,6.3135 0,0 z m 109.80215,-3.059 c -0.65118,-7.25 -2.79911,10.726 0,0 z m -502.48258,-7.885 c -13.10375,-34.7415 4.26917,22.0041 0,0 z m 403.16739,-3.3615 c 25.10486,-28.4465 -28.79173,28.0114 0,0 z m 1.51304,7.3055 c 3.24846,-4.9704 -5.68858,6.3135 0,0 z m -395.76528,-10.058 c -4.36765,-19.7526 0.88543,21.012 0,0 z m 403.21797,0.6781 c -5.0801,-0.2081 -9.55108,7.8025 0,0 z m 64.90884,-3.3804 c 22.854,-29.0391 -6.95365,-17.956 -4.25593,5.0103 z m 37.21173,-22.4897 c 8.0237,-58.2487 36.60541,-110.4494 68.29918,-158.72509 18.61493,-46.46763 26.91948,-102.00564 -3.49066,-145.7749 -31.78122,-61.75879 -22.27827,42.12822 -33.49108,63.17103 -11.00877,53.52957 -29.86026,103.64856 -49.07531,152.16696 -15.47961,23.1724 8.70892,98.0526 15.69535,97.7526 z m -544.23096,5.2126 c 6.01607,-28.2026 27.62461,-24.0554 -6.446,-55.2295 -24.21001,-39.579 -45.1662,-83.8246 -47.31062,-131.27371 -12.96839,-25.89929 11.22657,-111.21779 -25.65262,-50.70938 -8.12711,16.12326 -30.61474,26.94606 -13.75367,2 -46.13,30.7476 -32.17018,111.12599 20.82989,125.91289 41.55799,20.8939 46.95613,75.4933 68.33892,112.9359 l 1.48652,2.3016 z m 13.58201,-3.0628 c 3.80727,-18.6166 -15.20236,25.5872 0,0 z m 490.94813,6.5922 c 23.48454,-16.8494 1.09293,-73.1415 -1.59603,-24.4153 0.54417,2.1874 -4.73644,28.0465 1.59603,24.4153 z m -463.5,-3.742 c -8.42237,-7.5859 3.7504,7.2976 0,0 z m 419.62756,-2.75 c 3.73369,-4.5661 -6.73499,5.4332 0,0 z m 11.04106,-13.75 c -3.53576,0.1601 -21.12514,27.4059 0,0 z m -442.16862,6.6743 c -10.38953,-15.3857 -4.33856,3.5888 0,0 z m -8.61123,-10.2972 c -8.38013,-4.0835 3.51186,8.0655 0,0 z m -86.38877,-20.2547 c -1.66814,-3.7077 -4.84075,-1.3093 0,0 z m 561,-9.8724 c -3.84197,1.7974 -9.38111,14.6601 0,0 z m -570.13982,-1.2952 c -19.21173,-23.3434 10.82093,18.5079 0,0 z M 90.31102,1085.0508 c -5.016435,-5.6848 -6.359142,38.8529 0,0 z m 707.99779,4.3383 c -11.20745,-11.4749 6.66836,17.67 0,0 z m -508.97575,2.3964 c -9.3929,-33.9984 -33.21804,-85.7809 -48.33287,-104.77803 9.84563,33.73293 29.28341,87.83083 48.33287,104.77803 z m 506.48462,-17.7738 c 14.17646,-28.2415 21.57717,-47.2718 1.10646,-7.1257 -3.98082,7.4745 -23.27161,31.618 -5.45628,14.0928 z m -702.9936,-1.7842 c -1.853202,-6.2137 -9.080462,9.9289 0,0 z m 5.61201,-37.1561 c -1.750233,0.9994 1.62308,5.5068 0,0 z m 155.92523,-46.49999 c -5.55258,-26.47582 -27.93425,-68.77094 -10.5624,-18.29266 1.29201,0.80232 10.19279,26.90723 10.5624,18.29266 z m 578.0236,-14.0975 c 12.64236,-17.27839 22.84937,-76.81693 7.93916,-25.7684 -2.15106,3.68863 -23.81975,66.02189 -7.93916,25.7684 z m -247.93444,-3.4025 c 26.77011,-29.73316 42.50451,-76.83078 63.68031,-89.05927 25.2389,-4.71658 -16.21114,40.33037 30.15818,13.43598 24.06541,-30.58784 -28.51432,-103.91649 -60.0152,-47.09021 -14.77528,7.20657 23.36468,-26.20832 -1.09381,-7.2865 9.76408,-18.30937 -17.28141,16.23319 1.09789,-19.56447 1.79317,-20.3811 25.30642,-77.54464 -13.47253,-43.25633 -38.17029,20.91254 -100.70568,27.62356 -96.1191,77.9175 -22.42869,11.76334 -40.39264,-50.60858 -59.24678,-4.70031 -47.69552,32.38281 29.53697,73.98786 24.21107,22.17684 40.69141,14.72786 48.46615,64.57458 82.18263,89.86587 8.41836,2.22172 19.82254,13.82964 28.61734,7.5609 z m -348.67667,-38.191 c -1.77695,-6.78703 -3.09154,5.40589 0,0 z m -39.48758,-11.011 c 10.77406,-20.30433 -14.04071,18.13469 0,0 z m -16.08194,0.202 c 9.10131,-14.29308 -10.78718,14.49051 0,0 z m 502.38226,-23.1551 c 23.90208,-16.15866 -31.88518,14.47877 0,0 z m -34.81274,-5.2359 c -15.99643,12.14979 -0.47839,3.91337 0,0 z m 206.35266,5.8794 c 9.67223,-37.01158 0.65775,-29.33026 0,0 z m -632.9576,-15.9285 c 9.14543,-14.89756 -26.40162,30.99842 0,0 z m 427.53465,3.872 c -3.41597,-9.56722 -8.05971,13.55037 0,0 z m -437.80299,-4.3685 c 7.57458,-16.88536 -18.85437,26.03124 0,0 z m -92.74846,-9.0634 c 1.15443,-22.77151 -5.03595,10.74964 0,0 z m 347.45507,-42.8568 c -19.2801,5.63931 -12.11552,23.95583 0,0 z m -188.83333,9.1068 c 2.44146,-3.96943 -8.69037,4.32291 0,0 z m 204,-3 c -7.32839,-4.19295 2.47946,3.93863 0,0 z m 22.4189,-4.25 c 8.38055,-23.84397 -50.75595,-7.13848 -5.9189,-0.75 l 4.56537,2.77706 z m 141.47897,-8.2387 c 16.33343,-16.37604 -28.19475,20.49682 0,0 z m -304.46532,-13.6442 c -6.29139,-1.07613 -18.76546,10.74476 0,0 z m 119.56745,2.5698 c -36.19787,-5.19067 10.21497,5.61984 0,0 z m 56,-3.2288 c -2.02697,-5.95033 -14.37433,8.61102 0,0 z m -9.387,-3.0485 c 51.82425,-14.91975 93.72267,-52.06005 140.887,-75.5406 30.48411,3.00508 55.71275,-33.73436 10.45218,-14.7361 -41.42752,15.80974 -82.72403,28.91463 -123.51105,43.5853 -39.76764,12.69612 -81.47248,10.28964 -122.62818,11.0318 -15.01997,41.7494 3.64045,-16.18653 -33.29491,-0.43498 -27.62301,-11.25262 -85.46698,35.10047 -31.76427,26.48449 54.63877,-6.73312 107.08171,5.74502 159.85923,9.61009 z m -164.34112,-3.1104 c -16.72684,-3.40357 -23.53818,5.57072 0,0 z m 537.71084,-0.7992 c -6.12157,-29.57147 -39.88952,-26.58275 -58.63655,-41.25 -30.79797,-14.93236 -65.15067,-18.80101 -91.94544,-41.4 -18.12719,-30.38218 -63.57165,21.21076 -17.38477,17.908 46.09494,18.57203 84.96873,65.18062 140.26844,58.30365 6.12431,-12.77419 18.74036,9.34057 27.69832,6.43835 z m -97.98272,-4.643 c -3.90415,-3.26053 -4.00797,1.77509 0,0 z m -8,-3.607 c -7.18434,-3.0317 2.92798,3.41785 0,0 z m -428.65424,-25.5 c 30.22703,-7.23799 83.24628,10.46585 61.6829,-43.34284 -5.6183,-90.98005 -6.78853,-182.62124 -16.45296,-273.15735 -8.93453,-46.75935 -8.12889,64.55221 -16.27794,86.7245 -7.41511,49.26937 -4.56176,96.99917 -17.6974,146.42535 -0.4605,19.32087 -38.81683,84.80555 -11.2546,83.35034 z m 273.84141,-0.9337 c 21.27651,-19.90851 -14.04912,4.39149 0,0 z m 235.6796,-0.4628 c -22.98712,-39.74253 -28.36115,-91.50524 -32.44113,-138.39212 -7.91224,-87.74895 2.26003,-176.50011 -9.23559,-263.82549 -14.02789,-62.58614 -14.82436,99.80834 -22.23772,60.61412 -23.57106,62.87942 -10.18076,134.16858 -43.152,194.20937 -5.99166,44.67667 -65.67009,84.32403 -2.35382,99.79062 23.36406,19.78734 55.00155,21.54875 82.05349,35.5 9.64592,4.43083 17.34968,11.45863 27.36677,12.1035 z m -208.3018,-29.8718 c -13.70196,3.64843 -17.82484,11.00036 0,0 z m -305.59045,-19.259 c 7.34746,-18.86393 22.75367,-77.7786 15.49525,-84.4727 -6.46567,16.04256 -27.3149,108.56918 -15.49525,84.4727 z m 346.02548,7.0753 c -5.33451,-5.88678 -4.24574,4.74991 0,0 z m 306.6919,410.63399 c -7.57795,-34.754 -18.32571,-14.0462 -13.78843,-60.182 -4.93065,-41.0353 3.67422,-76.5801 9.87356,-113.50896 2.4939,-59.79697 3.57136,-120.65976 -13.1727,-178.72003 -21.27949,-35.69092 -17.50313,-91.3459 -21.12542,-136.30983 -5.61652,-34.67325 4.83802,-61.32304 -16.97891,-95.74635 -20.70637,-54.70535 -56.16846,-103.76896 -61.89308,-163.66363 -4.4354,-52.98659 -44.60497,-90.65499 -79.93663,-125.44148 -40.43557,-32.42018 -88.33738,-59.37961 -142.13816,-55.22801 -73.94346,-23.61328 -151.40323,1.09323 -222.8587,21.55232 -65.3333,19.72177 -120.58675,64.30304 -168.48261,111.56599 -47.25568,49.14957 -78.50996,112.63613 -87.26001,180.00964 -8.59798,-22.86614 16.22014,-94.75383 43.09547,-127.08147 43.12891,-68.9532 111.11667,-118.6501 180.97372,-157.43342 69.46553,-25.33438 142.62375,-46.78864 217.3823,-44.0145 52.40147,12.73151 113.09091,5.8913 155.6177,45.03102 45.2067,27.87307 84.24457,69.19638 104.53539,118.71131 8.92074,54.40059 23.66146,108.29609 53.39129,155.23211 12.06838,37.02199 36.57202,70.75492 33.57332,111.43644 14.69836,44.44531 11.83282,98.50666 17.45824,146.75728 21.15065,78.26049 16.55803,159.5637 11.36467,239.56917 -0.65314,43.5944 -4.83932,84.0493 0.36899,127.4644 z m -5.8913,-103.182 c -1.76712,-33.6479 -1.76712,33.6479 0,0 z m -1.1076,-28.231 c -1.65806,1.2799 1.47974,6.5909 0,0 z m 1.3206,-10.01899 c 3.1612,-22.30113 -5.44678,13.12249 0,0 z m -13.95389,-249.0032 c -5.70195,-42.79953 2.60685,43.59684 0,0 z M 547.35545,669.45351 C 534.59104,649.25175 480.10601,627.65558 466.64484,594.28254 423.57015,539.78206 443.07419,466.58979 436.8007,402.73706 c 0.41707,-28.09471 -7.72221,-63.77776 4.13413,-61.35769 3.6515,-29.61566 49.43105,-125.20227 65.64983,-52.32272 9.1087,37.39063 57.2779,6.87911 82.8634,17.89747 10.13417,-38.62794 41.82425,-74.69504 57.53231,-24.31963 16.77731,29.08906 21.61154,61.38393 32.5545,93.57522 2.50962,49.98627 4.26681,103.34239 -4.28052,154.52933 -15.53218,40.13204 -3.77238,50.99217 -36.45866,85.43746 -9.32327,15.94839 -69.13298,48.67018 -19.52187,29.89911 -19.74085,13.21005 -48.30381,21.4328 -71.91837,23.3779 z m 32.41836,-14.0385 c 36.63573,-13.15475 68.68923,-57.22818 76.14457,-90.39127 -17.52909,18.33321 -50.00396,53.96733 -15.87408,12.83793 34.08683,-25.80284 31.87605,-78.88812 29.26583,-102.15754 -6.38167,-46.11151 9.2479,-80.28104 -6.82253,-116.97404 -1.23442,-44.74899 -26.39399,-46.50143 -38.01865,-84.28308 -12.41666,-15.05367 -20.37109,66.89507 -56.30954,37.07063 -44.58688,-6.3011 -71.30655,27.54045 -79.42805,-28.48329 -16.63116,-40.2457 -30.66453,54.39701 -36.87949,72.16164 -6.31348,52.85304 -0.7329,106.56477 -5.16126,162.21558 5.10767,51.27555 41.88143,95.09972 81.13323,125.29885 16.29627,9.24045 32.27545,21.32821 51.94997,12.70459 z m 11.57324,-74.30047 c 8.25101,-35.54685 -23.83244,-68.51346 -51.44889,-40.4603 0.008,29.70714 -19.56489,55.39121 -27.12435,11.84747 9.26218,-38.71725 -65.0083,-9.35526 -17.25,-28.06491 41.16463,1.13765 99.05737,1.45334 131.7942,1.83848 -21.72544,9.97755 -18.18004,44.6618 -35.97096,54.83926 z m 21.41073,-46.77061 c -8.90196,-14.43837 -34.77862,11.91582 -15.91249,30.85747 5.63413,-10.10971 9.93644,-20.92358 15.91249,-30.85747 z m -82.01277,21.47749 c 28.2485,-32.14551 -38.75469,-36.6943 -9.48548,-3.06425 1.26588,4.26212 11.63683,24.50582 9.48548,3.06425 z m -2.35817,-118.2203 c -28.98504,12.2357 -65.12125,-68.38574 -33.47097,-50.87622 16.37875,6.00375 59.27366,42.84525 33.47097,50.87622 z m -4.10281,-9.29624 c -13.50872,-48.47957 -43.52594,-17.58437 -6.06021,0.99517 l 6.06021,-0.99513 z m 47.48978,7.19085 c 28.27429,3.23022 58.06118,-73.10184 20.36298,-28.76964 -17.94719,25.08613 -29.3674,27.90876 -3.16697,0.15275 17.21612,-19.64543 42.3431,-53.0887 24.88794,-3.08913 -5.84115,17.23379 -24.69953,30.7532 -42.08395,31.70602 z m 63.85392,180.69509 c 39.88317,-46.8895 -5.69086,-2.48188 -18.12666,18.63059 6.34191,-5.90991 12.39347,-12.12666 18.12666,-18.63059 z m -38.0342,-307.15217 c 15.94904,-19.88551 -16.55082,8.16979 0,0 z m -128.99696,-24.2278 c -17.57045,29.46029 -11.36115,30.35251 0,0 z m 135.66467,5.53553 c 12.34657,-26.01098 -13.56944,22.95517 0,0 z m 14.3508,-30.13242 c -5.42181,-0.58437 -6.10689,15.6874 0,0 z"
       style="fill:#000000"
       id="path22" />
    <path
       id="path34"
       d="m 819.81603,1145.821 c -11.44423,-24.0572 -17.33069,-67.1243 -11.15735,-81.6305 28.88319,-67.87007 52.34903,-147.75269 57.55832,-195.9405 3.34367,-30.93019 5.40569,-40.19977 9.27256,-41.68362 3.63989,-1.39676 5.90464,1.18099 16.5934,18.8867 21.03436,34.84299 24.71728,71.49432 11.75447,116.97731 -5.05824,17.74802 -9.70278,27.38168 -26.52699,55.02201 -27.46534,45.1225 -40.63261,78.7197 -51.07727,130.3274 l -1.63716,8.0892 z"
       style="fill:#000000;stroke-width:1.79762" />
    <path
       id="path36"
       d="m 274.53421,1145.0007 c -3.12476,-6.8754 -9.89845,-22.9528 -15.05266,-35.7276 -16.92355,-41.9454 -27.55334,-55.5937 -52.54627,-67.4678 -24.63984,-11.7064 -38.00042,-29.3235 -42.69847,-56.30176 -1.49027,-8.55773 -1.47064,-14.44975 0.0767,-23.03135 2.18305,-12.10709 10.46202,-29.74192 16.54864,-35.24981 3.49784,-3.16526 3.57136,-3.13525 2.94887,1.20355 -1.65908,11.56386 12.24496,2.92464 22.52275,-13.99442 6.79787,-11.1905 14.76735,-19.63792 16.70182,-17.70345 0.67559,0.67559 1.37223,14.76762 1.54809,31.31562 0.17587,16.548 1.12838,32.10959 2.11671,34.58132 0.98832,2.47173 2.33716,9.92929 2.99741,16.57237 1.74223,17.52951 8.68611,43.25763 17.17272,63.62753 9.80461,23.5335 25.76433,51.9894 34.16361,60.9132 14.43037,15.3315 15.25973,18.9313 7.72344,33.5228 -2.73274,5.291 -5.77262,12.0097 -6.7553,14.9303 -1.78446,5.3036 -1.79379,5.2946 -7.46807,-7.1905 z"
       style="fill:#000000;stroke-width:1.79762" />
    <path
       id="path38"
       d="m 509.78716,1252.0188 c -24.83112,-3.459 -49.21771,-12.5216 -88.43002,-32.8629 -15.3247,-7.9496 -32.9243,-18.4371 -39.11023,-23.3055 -6.18592,-4.8684 -26.90976,-25.2326 -46.05298,-45.2538 -40.26589,-42.1125 -39.46118,-40.6821 -46.673,-82.9602 -3.76163,-22.0519 -6.33934,-31.2804 -13.808,-49.4345 -18.72807,-45.52221 -25.3269,-63.11171 -24.76718,-66.0181 0.31598,-1.64078 3.7109,4.6886 7.54426,14.06529 10.1507,24.82938 20.29352,43.82041 28.05993,52.53831 14.82011,16.6358 11.02596,1.4433 -9.76103,-39.08502 -13.39193,-26.11016 -28.0032,-57.88849 -28.0032,-60.9047 0,-0.65782 1.94742,0.08 4.32759,1.63951 2.66826,1.7483 4.75002,2.15205 5.42929,1.05297 0.60593,-0.98042 -2.15042,-10.33467 -6.12521,-20.78723 -12.26798,-32.26123 -9.93188,-30.73709 10.87426,7.09469 18.73064,34.05791 26.51154,45.5677 39.35071,58.20908 9.44598,9.30047 27.99121,21.42918 29.87918,19.54121 0.99043,-0.99043 -3.43401,-6.81205 -20.2942,-26.70289 -7.20956,-8.50547 -13.10828,-16.03832 -13.10828,-16.73966 0,-0.70136 3.61062,1.31778 8.02361,4.48695 5.57539,4.00394 10.71488,6.02071 16.84381,6.60962 11.8205,1.13579 12.92024,-1.74309 2.90741,-7.61101 -10.03625,-5.88163 -25.29538,-20.93924 -36.18636,-35.70848 -7.05251,-9.56389 -27.54085,-47.40679 -27.54085,-50.8692 0,-2.33794 7.80944,5.83702 23.42033,24.51652 12.91399,15.45247 17.90202,20.01166 27.50861,25.14357 6.45388,3.4477 12.35715,5.64573 13.11838,4.88451 0.76123,-0.76123 -6.75979,-9.64905 -16.71337,-19.75071 -18.56036,-18.83648 -36.54824,-41.27887 -36.54824,-45.59902 0,-3.36966 4.8561,-3.03785 17.07738,1.16689 16.89042,5.81116 19.10533,4.48217 9.93563,-5.96154 l -5.34414,-6.08663 3.99592,-3.72791 c 5.40585,-5.04327 20.59264,-10.82307 39.0495,-14.86149 13.78138,-3.01542 19.69846,-3.20065 60.33961,-1.88888 46.44295,1.49904 54.87504,2.91681 56.13088,9.43786 0.33638,1.74674 -2.54468,5.40639 -7.06515,8.97441 -18.92174,14.93501 -24.97477,24.54322 -24.87777,39.48941 0.0974,15.01252 13.41985,30.98137 27.62406,33.11143 8.06748,1.20979 24.97612,-2.8159 27.24472,-6.48656 1.53065,-2.47666 9.82276,2.49549 17.20913,10.319 3.57737,3.78908 10.79355,13.36066 16.03594,21.27019 13.46935,20.32199 21.02839,29.19811 31.3699,36.83576 13.12058,9.69014 19.58412,12.59876 27.99692,12.59876 13.8768,0 24.04413,-8.6987 43.07295,-36.85119 3.34138,-4.94345 10.03862,-13.19816 14.88278,-18.34377 8.12491,-8.63058 9.8731,-9.59061 22.55571,-12.38678 24.43692,-5.38766 38.56303,-13.93449 43.16317,-26.11537 0.97933,-2.59323 2.3498,-10.49132 3.04547,-17.55133 1.18785,-12.05489 0.91891,-13.53908 -4.41764,-24.37917 -6.4257,-13.05244 -19.22728,-25.70529 -33.14087,-32.75584 l -8.85543,-4.48739 -8.36478,8.23899 c -4.60062,4.53145 -8.85713,8.23899 -9.45891,8.23899 -2.73825,0 -2.86678,-6.52771 -0.48382,-24.5748 1.41372,-10.70678 2.58015,-23.10704 2.59205,-27.55615 0.0302,-11.26258 4.92217,-18.39765 16.48412,-24.04228 12.27484,-5.99268 24.31797,-7.64216 34.65852,-4.74698 6.36647,1.7825 10.30658,4.79884 18.90236,14.47064 20.91749,23.53592 47.55348,39.44257 78.48792,46.87192 13.77023,3.30712 19.33517,3.69348 40.60061,2.81879 l 24.64318,-1.01362 4.56813,5.42893 c 6.41868,7.62817 5.97755,16.35769 -2.62233,51.89117 -3.94821,16.31339 -7.19611,32.0875 -7.21759,35.05357 -0.0214,2.96607 -2.82107,14.10776 -6.22136,24.75929 -3.40029,10.65154 -10.64886,36.99437 -16.10796,58.53961 -12.56637,49.59526 -12.82391,50.29236 -28.24302,76.43956 -74.29479,125.9867 -141.74575,182.1427 -228.0315,189.8467 -34.86245,3.1127 -43.98585,3.4136 -55.37951,1.8265 z m -55.92585,-88.0605 c 0.90782,0 1.65059,-1.6623 1.65059,-3.6941 0,-2.7467 -2.5206,-4.8089 -9.82727,-8.0403 -25.19411,-11.142 -23.9012,-10.3774 -18.93463,-11.1972 9.04393,-1.4929 7.32814,-3.8393 -5.62389,-7.6909 -31.38262,-9.3324 -43.10518,-20.9971 -42.78376,-42.5727 l 0.12806,-8.5964 3.12724,10.7857 c 4.00287,13.8057 8.78268,23.7231 12.03523,24.9712 1.40668,0.5398 2.54883,0.8046 2.53813,0.5884 -0.0107,-0.2161 -1.25393,-4.4376 -2.76274,-9.381 -1.75602,-5.7534 -3.07277,-19.6627 -3.65879,-38.6489 -1.16137,-37.6267 -2.03264,-44.9404 -5.35367,-44.9404 -2.11006,0 -2.58629,-4.0793 -2.58629,-22.1535 0,-36.93472 8.91559,-76.18496 22.32565,-98.28701 8.64486,-14.24821 14.03308,-25.35953 12.86435,-26.52826 -4.01496,-4.01496 -32.48799,39.98279 -39.44092,60.94582 -1.79022,5.39751 -3.43809,21.61335 -4.65824,45.83928 -1.03842,20.61797 -3.07043,42.74527 -4.51558,49.17177 -3.39032,15.0766 -3.41466,39.2159 -0.0539,53.4696 8.25495,35.0113 37.41081,65.9426 70.84396,75.158 4.53629,1.2504 9.32511,1.9421 10.64185,1.5372 1.31672,-0.405 3.13681,-0.7363 4.04464,-0.7363 z m 205.90039,-16.1548 c 18.60613,-8.0694 41.38568,-37.5732 64.55674,-83.613 18.71278,-37.1815 26.12071,-57.6465 27.32945,-75.50002 l 0.85193,-12.58334 -11.25373,-17.07738 c -13.8205,-20.97242 -19.2995,-32.46002 -20.80055,-43.61163 -0.90712,-6.73913 -2.47534,-9.72002 -7.37847,-14.02502 -3.42457,-3.00682 -7.16161,-5.16036 -8.30453,-4.78564 -7.32325,2.40104 1.48528,36.03718 14.09628,53.82777 12.89827,18.19582 15.74851,24.59826 16.63044,37.35643 1.46202,21.15013 -8.52431,40.01343 -38.33711,72.41563 -19.9561,21.6894 -34.91405,41.6367 -34.91405,46.56 0,6.4198 5.94255,3.0338 20.38534,-11.6155 13.8872,-14.0858 19.84404,-21.9147 33.52619,-44.0624 3.22981,-5.2282 6.22896,-9.1493 6.66476,-8.7135 1.48675,1.4868 -10.31683,27.4925 -18.54002,40.8475 -6.25596,10.1601 -7.0987,12.2893 -3.54882,8.9662 6.3562,-5.9501 5.85269,-3.116 -1.04767,5.897 -14.12474,18.4492 -24.58354,26.9076 -31.32209,25.3313 -3.79474,-0.8877 -24.38301,9.6453 -25.44514,13.0178 -0.43247,1.3733 2.10034,2.3379 7.08002,2.6965 l 7.75338,0.5583 -13.48215,4.1716 c -19.46859,6.0238 -19.69649,6.1619 -12.58333,7.6213 8.26184,1.6951 18.90558,0.3004 28.08313,-3.6799 z m -210.96088,-86.899 c 18.20299,-19.9981 30.05162,-26.3747 49.00807,-26.3747 8.01107,0 17.2588,1.373 24.21492,3.5952 14.73483,4.7072 25.98404,4.5174 57.52381,-0.9706 15.01024,-2.6119 28.79787,-4.0847 32.50778,-3.4725 13.92215,2.2971 21.81954,11.3291 24.70986,28.2601 1.08869,6.3773 2.42457,8.2172 8.43968,11.624 8.84739,5.0109 13.43792,5.2507 13.43792,0.702 0,-1.8726 -4.84978,-13.3998 -10.7773,-25.6161 -5.92751,-12.2163 -10.78108,-23.2226 -10.78572,-24.4584 -0.005,-1.2359 -1.42404,-2.2501 -3.15424,-2.2538 -5.54321,-0.013 -14.97023,-7.0795 -17.49152,-13.1137 -1.34466,-3.2182 -3.33273,-13.81423 -4.41797,-23.54669 -2.73954,-24.56841 -4.74223,-26.57233 -5.9711,-5.97476 -1.05148,17.62445 -3.41496,24.71115 -10.32599,30.96155 -3.72668,3.3705 -6.58038,3.5966 -46.47273,3.6815 -47.45625,0.101 -58.54254,1.9539 -82.6281,13.8098 -22.33574,10.9946 -40.94574,34.5582 -44.39091,56.2069 l -1.14429,7.1905 6.87814,-7.456 c 3.783,-4.1007 13.16085,-14.3582 20.83969,-22.7943 z m 71.1505,-56.5482 c 1.96084,-2.7538 4.84287,-11.19261 6.4045,-18.75295 4.49888,-21.78049 0.32237,-25.79973 -8.53477,-8.21337 -6.21241,12.33508 -8.82806,31.97312 -4.2586,31.97312 1.55302,0 4.42802,-2.2531 6.38887,-5.0068 z"
       style="fill:#ac9393;stroke-width:1.79762" />
    <path
       id="path40"
       d="m 564.0715,966.12112 c -13.64149,-7.07491 -23.28511,-17.47376 -39.91765,-43.04374 -7.39582,-11.36994 -16.36091,-24.25149 -19.92242,-28.62566 -5.83076,-7.16121 -25.41424,-21.70767 -29.22441,-21.70767 -0.83541,0 -1.52018,2.22455 -1.52172,4.94345 -0.004,7.61621 -5.64203,17.10265 -11.24524,18.92206 -7.9765,2.59003 -19.95827,-4.17453 -24.68353,-13.93561 -3.46796,-7.16386 -3.57117,-8.35518 -1.21281,-13.99954 1.41775,-3.39315 5.90611,-9.46465 9.97415,-13.49222 4.06803,-4.02758 7.39642,-8.19524 7.39642,-9.26146 0,-1.06622 1.14592,-1.93859 2.54649,-1.93859 1.40057,0 4.09408,-2.1245 5.98558,-4.7211 4.16998,-5.72446 6.14247,-4.95093 21.3827,8.38545 10.36895,9.07364 15.55755,11.57018 21.61998,10.40266 2.53767,-0.48871 3.5807,-3.01229 4.59235,-11.11112 2.88743,-23.11549 17.0437,-35.17322 62.60593,-53.32515 21.17158,-8.43472 31.01069,-13.25489 38.55863,-18.8898 15.38577,-11.48623 17.66857,-6.29966 10.80675,24.55333 -2.67072,12.0085 -6.39704,25.42906 -8.28072,29.82348 -4.20313,9.80553 -4.20881,9.4894 0.1704,9.4894 3.72163,0 4.96071,4.33677 1.79762,6.29166 -0.98869,0.61105 -1.79762,1.87218 -1.79762,2.80252 0,3.80763 4.38238,1.20489 11.72835,-6.96562 4.77144,-5.30698 10.51478,-9.55854 14.84136,-10.98644 6.24423,-2.06078 7.96892,-1.92627 14.96133,1.16684 9.29675,4.11245 18.62759,14.13267 23.8163,25.5759 4.29609,9.47464 5.03317,27.40889 1.39601,33.96676 -2.44172,4.40247 -20.58668,13.82649 -23.34232,12.12341 -0.87296,-0.53952 -0.96546,-4.38097 -0.20556,-8.53656 1.81898,-9.94724 0.68335,-12.29562 -5.94594,-12.29562 -8.06508,0 -17.32724,10.76433 -35.9883,41.82495 -21.56698,35.89743 -30.68997,48.05601 -36.05804,48.05601 -2.33459,0 -9.00992,-2.47139 -14.83407,-5.49198 z"
       style="fill:#ac9393;stroke-width:1.79762" />
    <path
       id="path42"
       d="m 553.88283,1358.4255 c -10.30435,-10.5902 -19.42412,-15.6617 -39.38087,-21.8999 -18.85139,-5.8926 -30.40872,-13.1319 -52.05085,-32.6038 -19.65605,-17.6849 -30.40104,-23.4558 -65.1268,-34.9779 -16.937,-5.6198 -35.41495,-12.5267 -41.06211,-15.3488 -20.01274,-10.001 -29.3969,-24.6225 -25.07055,-39.0626 1.14519,-3.8223 2.08216,-11.8125 2.08216,-17.7561 0,-19.1112 5.78311,-18.7029 31.51409,2.2247 11.14637,9.0656 16.32898,12.043 23.58389,13.5491 10.88877,2.2605 32.20801,12.2805 56.28804,26.4552 25.52755,15.0269 45.68284,23.9365 58.1283,25.6957 14.98997,2.1188 43.48752,-0.7882 73.16425,-7.4634 48.16043,-10.8328 55.04344,-12.224 68.97968,-13.9428 17.88888,-2.2063 25.24227,-7.0417 52.27591,-34.3759 10.82956,-10.95 21.55838,-20.378 23.8418,-20.9511 5.93925,-1.4906 9.1339,2.0015 12.37409,13.5262 1.56197,5.5556 4.78951,16.4121 7.17232,24.1255 5.23235,16.9376 5.49403,27.918 0.87767,36.83 -6.99218,13.4987 -35.55426,41.0632 -38.98962,37.6279 -0.42075,-0.4208 3.09238,-3.7593 7.80694,-7.4191 8.41744,-6.5342 22.57385,-22.72 21.13221,-24.1616 -0.40354,-0.4036 -7.8438,5.9457 -16.5339,14.1095 -8.69011,8.1638 -22.27162,19.0802 -30.18115,24.2587 -7.90952,5.1785 -23.68363,16.4148 -35.05357,24.9694 -11.36994,8.5547 -28.10315,19.2915 -37.1849,23.8595 -15.1712,7.631 -17.91263,8.396 -33.75407,9.4195 l -17.24181,1.1139 z"
       style="fill:#ac9393;stroke-width:1.79762" />
    <path
       id="path44"
       d="m 988.69048,1116.3214 c 0,86.9962 -4.82352,16.089 1.79762,35.9524 0.9858,2.9574 1.79761,5.7016 1.79761,8.9881 0,1.7976 -1.79761,5.3929 0,5.3929 0.59921,0 0,-1.1985 0,-1.7977 0,-3.5952 0,-7.1904 0,-10.7857 0,-5.8744 2.62476,-28.6295 1.79762,-30.5595 -1.18019,-2.7538 -5.12161,-4.2067 -5.39285,-7.1905 -0.0129,-0.1414 8.67324,-22.7393 3.59523,-12.5833"
       style="fill:none;stroke:#000000;stroke-width:1px;stroke-linecap:butt;stroke-linejoin:miter;stroke-opacity:1" />
    <path
       id="path50"
       d="m 373.35014,1451.6074 c -0.95136,-3.638 -1.90739,-3.9502 -9.77967,-3.1938 -8.14549,0.7827 -11.09805,-0.5504 -6.92761,-3.1279 3.61283,-2.2328 1.78508,-4.6138 -1.99061,-2.5931 -2.31806,1.2405 -4.43292,1.3827 -5.44941,0.3662 -1.674,-1.674 -3.43551,-20.3976 -6.89352,-73.2731 -2.86331,-43.7821 -7.42932,-59.4115 -26.92167,-92.1522 -5.1489,-8.6485 -7.84204,-15.3248 -7.97643,-19.7738 l -0.20289,-6.7168 7.58523,0.1511 c 5.46998,0.1089 12.73874,2.8325 26.06548,9.7666 10.16414,5.2885 24.54721,12.4814 31.96239,15.9841 50.29322,23.7572 143.49844,72.5521 149.64934,78.3447 21.43927,20.1902 38.389,64.8725 31.97777,84.2986 -3.65294,11.0686 -8.2259,12.7615 -35.04336,12.9735 -12.89578,0.102 -42.45667,-0.5355 -65.69089,-1.4166 -39.65401,-1.5037 -67.63806,-0.3759 -76.05665,3.065 -2.45514,1.0035 -3.5117,0.3407 -4.3075,-2.7025 z"
       style="fill:#800000;stroke-width:1.79762" />
    <path
       id="path52"
       d="m 625.61107,1462.6108 c -5.61818,-6.208 -6.56884,-14.6739 -5.37707,-47.8846 1.58029,-44.0378 2.17146,-45.0583 40.41232,-69.7628 11.48315,-7.4184 25.67191,-18.2155 31.53057,-23.9935 5.85866,-5.7781 21.50178,-18.1904 34.76249,-27.583 28.9846,-20.5298 58.00071,-47.838 70.18304,-66.0522 4.90887,-7.3393 8.9252,-12.979 8.9252,-12.5326 0,0.4463 -3.20321,14.8726 -7.11827,32.0583 -9.70493,42.6014 -12.6381,59.8847 -14.45514,85.1753 -0.8524,11.8643 -2.36177,26.3516 -3.35415,32.1941 -1.32161,7.7807 -1.11492,17.1586 0.7726,35.0535 3.30402,31.3245 3.29559,47.5004 -0.0281,53.9278 -4.68023,9.0505 -9.09224,9.6762 -53.42968,7.5763 -39.98739,-1.8939 -71.02832,-0.5991 -81.55132,3.4018 -7.64633,2.9071 -17.90178,2.1461 -21.27246,-1.5784 z"
       style="fill:#800000;stroke-width:1.79762" />
    <path
       id="path54"
       d="m 835.4455,759.51229 c -7.06539,-3.91857 -24.77879,-11.19204 -39.3631,-16.16325 -14.58432,-4.97121 -30.64461,-11.32791 -35.68955,-14.126 -15.14257,-8.39856 -19.59218,-10.63861 -27.72881,-13.95948 -4.27377,-1.74428 -9.32958,-5.15347 -11.23512,-7.57599 -6.33937,-8.0592 -4.63142,-16.14289 8.90882,-42.16517 6.8054,-13.07894 14.04428,-29.1894 16.08641,-35.80102 2.04212,-6.61163 5.28504,-15.10369 7.20648,-18.87127 8.98851,-17.62466 15.81043,-48.7706 20.99023,-95.83225 5.04303,-45.81908 13.7772,-87.97919 17.1094,-82.58759 2.52075,4.07866 3.86349,-2.07934 7.39328,-33.90667 5.12801,-46.23823 8.08196,-54.51712 12.14024,-34.02499 4.18329,21.12332 5.90161,57.60266 7.34407,155.9121 1.75547,119.64268 4.614,155.12716 16.12108,200.11941 3.67726,14.37796 13.34677,39.94875 16.57939,43.84382 3.63546,4.38045 -2.69962,2.43888 -15.86282,-4.86165 z"
       style="fill:#800000;stroke-width:1.79762" />
    <path
       id="path56"
       d="m 339.01255,766.31136 c -4.13313,-4.13313 -2.08237,-16.83023 6.90789,-42.76969 14.59075,-42.09846 18.21853,-61.43322 23.35537,-124.47571 1.99345,-24.46492 4.84513,-51.4815 6.33706,-60.03686 1.49193,-8.55535 3.89783,-29.3895 5.34644,-46.2981 4.04648,-47.23173 4.63453,-51.31717 6.61863,-45.98266 3.63715,9.7789 9.47405,93.65012 14.94701,214.77547 1.94724,43.09551 3.66252,65.4244 5.44466,70.87677 6.95742,21.28583 0.61618,31.31099 -21.06181,33.29757 -26.56466,2.43441 -45.82742,2.68104 -47.89525,0.61321 z"
       style="fill:#800000;stroke-width:1.79762" />
    <path
       id="path58"
       d="m 184.50607,493.86203 c -4.87286,9.40189 -1.65933,16.90844 -0.83087,26.0214 0.26914,2.96057 0.41269,6.35554 1.2711,6.35554 0.21186,0 -0.0415,-0.42782 0,-0.63556 0.34261,-1.71304 1.02405,-3.35502 1.27111,-5.08443 0.19657,-1.376 0.75613,-20.72347 0,-23.51551 -0.3117,-1.15098 -1.56344,-1.9582 -1.71134,-3.14144 -0.29112,-2.32894 0.49153,-4.68092 0.44023,-7.02743 -0.0433,-1.9826 -1.2711,-3.72799 -1.2711,-5.71999 0,-2.19962 -0.73554,-3.04213 -1.27111,-5.71999 -0.0416,-0.20773 0,-0.4237 0,-0.63555 -0.21185,-0.4237 -0.52066,-0.81154 -0.63556,-1.27111 -0.10276,-0.41105 0.42371,-1.27111 0,-1.27111 -0.4237,0 0,0.84741 0,1.27111 0,1.90666 0,3.81333 0,5.71999 0,6.91561 -0.5305,14.07671 0,20.97329 0.8097,10.52604 0.63556,-2.13427 0.63556,6.9911 0,1.90666 0,3.81333 0,5.71999 0,0.8474 0,1.69481 0,2.54222 0,0.21185 -0.21185,0.63555 0,0.63555 0.0918,0 -0.13403,-1.43538 0,-3.17777 0.14713,-1.91275 0.49887,-3.80647 0.63555,-5.71999 0.21185,-2.96592 -1.06145,-5.95494 -0.63555,-8.89776 0.23335,-1.61241 2.39342,-2.80962 2.10198,-4.41255 -0.25317,-1.39243 -2.65757,-1.35749 -3.37309,-2.57855 -0.53553,-0.91391 0.11697,-2.12499 0,-3.17777 -0.0965,-0.86814 -0.46425,-1.68569 -0.63556,-2.54222 -0.12464,-0.62321 -0.0702,-2.53833 0,-1.90666 0.66967,6.02702 0.30157,11.78381 0.63556,17.79552 0.68234,12.2822 0.63555,2.44525 0.63555,6.9911"
       style="fill:none;stroke:#000000;stroke-width:1px;stroke-linecap:butt;stroke-linejoin:miter;stroke-opacity:1" />
    <path
       id="path60"
       d="m 856.72721,1441.4372 c -8.41352,9.7171 -22.09292,12.5899 -31.77772,20.3377 -1.70523,1.3642 -2.66164,3.4672 -5.08443,3.8133 -2.09722,0.2996 -4.28748,-0.4595 -6.35554,0 -1.84974,0.4111 -3.50782,1.4912 -5.08444,2.5423 -0.99714,0.6647 -1.3438,2.5422 -2.54222,2.5422 -3.53781,0 2.97778,-4.24 6.35555,-5.0845 7.13507,-1.7837 3.12721,2.2498 10.16887,-1.2711 4.11686,-2.0584 6.59989,-6.0133 11.43997,-7.6266 0.80392,-0.268 1.69482,0 2.54222,0 1.69481,-0.4237 3.47872,-0.583 5.08444,-1.2711 1.66604,-0.714 14.98711,-7.1608 15.2533,-7.6267 1.05108,-1.8394 -1.72391,-5.1242 0,-6.3555 22.2444,-15.8889 2.36063,4.5396 11.43998,0 2.64185,-1.321 6.35554,-13.0236 6.35554,-8.8978 0,0.9474 -0.51317,1.9738 -1.27111,2.5422 -4.47479,3.3561 -11.79493,3.9908 -16.52441,6.3556 -6.8538,3.4269 -11.8169,9.4982 -17.79552,13.9822 -7.80309,5.8523 2.43275,-2.4875 -5.08444,1.2711 -3.61411,1.807 -1.47031,3.2774 -5.08443,5.0844 -0.75794,0.379 -1.78427,-0.379 -2.54222,0 -1.07189,0.536 -1.47032,2.0063 -2.54221,2.5422 -2.40665,1.2034 -8.14848,-0.076 -10.16887,1.2711 -3.10982,2.0732 -0.75604,2.8447 -6.35555,5.0845 -1.18019,0.472 -5.05599,-0.2674 -3.81332,0 2.96025,0.637 5.95544,1.0991 8.93316,1.6487"
       style="fill:none;stroke:#000000;stroke-width:1px;stroke-linecap:butt;stroke-linejoin:miter;stroke-opacity:1" />
    <path
       id="path64"
       d="m 988.69048,1116.3214 c -1.19841,13.1825 -2.39683,26.3651 -3.59524,39.5476 0.5992,1.1985 0.45775,3.5953 1.79762,3.5953 2.44275,0 -6.69367,-23.4775 -7.19048,-25.1667 -2.15849,-7.3389 -1.39098,-16.1786 -3.59524,-16.1786 -1.19841,0 -0.20533,2.4146 0,3.5953 2.9202,16.7911 5.93932,33.565 8.9881,50.3333 0.96053,5.2829 2.75815,16.0686 1.79762,10.7857 -2.94332,-16.1882 -6.16891,-32.3254 -8.9881,-48.5357 -2.77195,-15.9387 -1.45817,-29.4408 -3.59524,-25.1666 -4.81109,9.6221 7.49881,50.2824 10.78572,59.3214 1.48845,4.0932 9.68853,16.879 3.59524,10.7857 -7.43461,-7.4346 -6.84169,-49.6358 -14.38096,-64.7143 -0.79629,-1.5926 -0.47254,3.4077 1.79762,10.7857 3.51112,11.4112 6.77016,22.9112 10.78572,34.1548 1.00767,2.8215 5.39285,10.1865 5.39285,7.1905 0,-1.3399 -1.49633,-2.2897 -1.79761,-3.5953 -1.50641,-6.5277 -2.2814,-13.2046 -3.59524,-19.7738 -4.27901,-21.395 -1.67198,-10.4716 -8.9881,-28.7619 -1.13473,-2.8368 -3.16402,-11.7209 -1.79762,-8.9881 4.10863,8.2173 10.47877,27.5341 12.58334,35.9524 1.62851,6.514 1.4002,14.9863 3.59523,21.5714 0.37898,1.1369 0.16949,-2.4088 0,-3.5952 -2.28789,-16.0153 -6.19642,-27.5358 -3.59523,-43.1429"
       style="fill:none;stroke:#000000;stroke-width:1px;stroke-linecap:butt;stroke-linejoin:miter;stroke-opacity:1" />
    <path
       id="path66"
       d="m 992.28571,1103.7381 c -1.79762,11.3849 -4.50885,22.6627 -5.39285,34.1548 -0.46186,6.0042 1.79762,11.9542 1.79762,17.9761 0,0.5993 0.07,-1.2025 0,-1.7976 -1.12891,-9.5957 -2.46633,-19.1661 -3.59524,-28.7619 -1.26797,-10.7777 -2.51542,-21.5589 -3.59524,-32.3571 -0.11925,-1.1925 1.19841,-3.5953 0,-3.5953 -1.24206,0 0.0979,2.8102 1.79762,12.5834 2.80231,16.1133 3.7636,32.5436 7.19048,48.5357 0.67611,3.1552 2.57482,5.9269 3.59523,8.9881 0.78127,2.3438 -0.67297,7.1905 1.79762,7.1905 2.04822,0 -4.61397,-43.3827 -5.39285,-44.9405 -0.59921,-1.1984 -1.71405,2.258 -1.79762,3.5952 -1.6353,26.1647 0.79497,17.389 -3.59524,30.5595"
       style="fill:none;stroke:#000000;stroke-width:1px;stroke-linecap:butt;stroke-linejoin:miter;stroke-opacity:1" />
    <path
       id="path72"
       d="m 814.2524,1457.067 c -0.64918,-3.4604 -1.88044,-6.2916 -2.73614,-6.2916 -0.85569,0 -3.42948,-3.8424 -5.71954,-8.5387 -5.45146,-11.1794 -6.22918,-40.1177 -1.18138,-43.9573 6.53956,-4.9744 7.25652,-11.6675 6.97059,-65.0725 -0.25711,-48.0231 -0.0545,-51.7698 2.67759,-49.5024 2.54025,2.1082 3.30744,1.9721 5.45765,-0.9685 2.97951,-4.0748 3.06621,-7.1787 0.62129,-22.2461 -1.58194,-9.7492 -1.30243,-13.622 1.90812,-26.4374 10.49908,-41.9087 27.73162,-81.4565 46.16649,-105.9497 18.306,-24.322 35.66197,-59.7306 62.67156,-127.8586 l 15.05635,-37.97762 2.92284,-33.02834 c 3.31418,-37.4508 2.47879,-59.31733 -3.02911,-79.28727 -6.87176,-24.91477 -15.67222,-35.77271 -49.21444,-60.72036 -37.85376,-28.15445 -43.59595,-35.9749 -52.7809,-71.8838 -12.20071,-47.69912 -16.02317,-86.83848 -18.08274,-185.15476 -0.85951,-41.03066 -1.14113,-89.16191 -0.6258,-106.95834 1.41025,-48.70148 -3.2778,-70.24485 -17.30913,-79.54204 -9.67091,-6.40796 -10.32682,-5.72472 -11.67723,12.16386 -1.65412,21.91185 -3.15928,29.74866 -15.57108,81.07288 -11.31499,46.78875 -16.0501,73.27719 -16.06752,89.88233 -0.0338,32.17217 -15.42377,81.37924 -45.75431,146.29202 l -11.75914,25.16667 -13.94203,2.84063 c -25.03665,5.10114 -89.01811,26.31982 -126.75938,42.03822 -31.02171,12.91987 -69.31324,18.93663 -120.51531,18.93663 h -31.24224 l -1.13101,-47.1875 c -1.04078,-43.423 -5.63855,-137.12293 -10.16593,-207.1756 -1.02236,-15.81905 -3.89895,-45.34494 -6.39242,-65.6131 -2.49348,-20.26815 -5.04637,-48.78288 -5.67307,-63.36607 -0.90007,-20.94412 -1.66654,-26.51488 -3.64815,-26.51488 -6.73587,0 -11.13497,33.30122 -11.26438,85.27132 -0.0471,18.91421 -3.26832,53.25116 -10.8725,115.89653 -4.14409,34.14016 -11.03548,66.71812 -17.24183,81.50804 -6.84343,16.30805 -9.4569,28.50329 -14.25638,66.5247 -4.67348,37.02317 -10.13071,58.75741 -17.39773,69.28905 -3.27553,4.74704 -8.5969,7.84362 -26.56622,15.45923 -40.32629,17.09077 -75.17437,36.78189 -93.00403,52.5525 -9.09225,8.04224 -45.03757,60.89883 -53.6221,78.84982 -8.75973,18.31735 -12.5989,36.13919 -10.7643,49.96907 4.29975,32.41308 35.27612,101.62678 51.64826,115.40308 3.07561,2.588 8.50929,9.4736 12.07483,15.3015 3.56555,5.8279 16.12487,21.506 27.9096,34.8403 24.24866,27.4371 32.14142,39.0134 36.29242,53.2301 1.58775,5.4378 6.36676,21.6503 10.62003,36.0277 4.25328,14.3774 8.00888,29.7471 8.34581,34.1548 0.56006,7.3271 0.26592,8.0017 -3.43207,7.8712 -2.22455,-0.079 -4.04464,0.5967 -4.04464,1.5005 0,0.9038 6.46299,19.733 14.3622,41.8428 17.99733,50.3741 23.28059,70.4721 24.5574,93.4185 0.55014,9.8869 2.1289,21.9621 3.50838,26.8337 2.22746,7.8665 2.18319,9.3535 -0.39562,13.2893 -2.89142,4.4128 -2.98107,4.4251 -21.11983,2.8851 -28.48971,-2.4188 -50.33597,-1.7186 -76.63872,2.4564 -29.21925,4.6379 -62.85269,5.1946 -77.84896,1.2885 -25.30275,-6.5905 -43.687595,-22.091 -49.88459,-42.0582 -8.03088,-25.8762 -9.336036,-43.3461 -8.004439,-107.1413 0.680814,-32.617 1.68196,-60.0222 2.224769,-60.9005 0.542809,-0.8783 1.724108,-0.2796 2.625109,1.3304 0.901001,1.61 2.727936,2.9273 4.059855,2.9273 1.98656,0 2.374242,-10.5778 2.1577,-58.872 -0.270848,-60.4056 0.286378,-67.6411 7.787222,-101.1161 1.883084,-8.4039 4.732304,-28.6271 6.331604,-44.9405 1.5993,-16.3134 3.3677,-32.6942 3.92976,-36.4018 1.52171,-10.03769 -2.28862,-8.34834 -4.99593,2.215 -1.26245,4.9259 -2.63259,8.6189 -3.04475,8.2067 -0.41217,-0.4122 0.29778,-11.1161 1.57767,-23.78642 l 2.32706,-23.03703 2.14747,9.8869 c 1.18111,5.4378 2.23825,9.36592 2.3492,8.72915 0.11094,-0.63675 1.05034,-9.53497 2.08754,-19.77381 1.0372,-10.23882 4.6405,-39.24373 8.00734,-64.45534 3.36684,-25.2116 6.62465,-55.54643 7.23959,-67.41071 0.61493,-11.86429 2.66772,-29.66072 4.56174,-39.54762 1.89402,-9.88691 7.06646,-40.29836 11.49432,-67.58099 11.98418,-73.84162 16.93417,-96.29119 29.68977,-134.65115 8.03082,-24.15112 15.50332,-56.62824 17.22928,-74.88218 0.95458,-10.09577 0.58963,-14.12062 -1.69575,-18.70178 -6.42955,-12.88834 -1.79171,-32.59177 16.74024,-71.11933 19.65271,-40.8576 42.55172,-71.10802 78.97887,-104.33392 48.5773,-44.3083 95.43693,-74.34234 138.31227,-88.64936 42.88552,-14.31042 101.63686,-28.45795 135.16366,-32.54788 22.368,-2.72868 61.31011,-1.05143 79.99404,3.44536 7.90953,1.90364 22.87471,3.91846 33.25596,4.47737 60.06596,3.23384 126.5833,45.04268 174.82681,109.88574 18.67206,25.09673 24.89875,40.58559 30.11533,74.91194 4.37377,28.78043 12.38202,52.66119 30.79071,91.81848 45.00759,95.73596 43.0331,90.32622 44.81055,122.77294 7.0542,128.77107 8.74662,143.21455 19.70757,168.18806 12.22334,27.84981 17.9276,71.65433 17.9276,137.67108 0,40.9978 -0.34705,45.64428 -5.64927,75.63722 -5.29097,29.92918 -5.64259,34.60768 -5.54388,73.76338 0.0579,22.9941 -0.54171,41.4075 -1.33259,40.9187 -0.79088,-0.4888 -2.4343,1.5167 -3.65203,4.4565 -2.61983,6.3248 -1.55122,15.7016 4.40473,38.6508 2.30933,8.8982 5.17585,20.9475 6.37002,26.7763 1.19418,5.8288 2.69614,9.8734 3.33771,8.9881 0.64157,-0.8853 2.17766,-1.8119 3.41352,-2.0591 2.87849,-0.5757 3.19473,83.336 0.41495,110.1042 -4.62472,44.534 -10.39319,60.4399 -29.48396,81.2987 -19.29034,21.0769 -38.30503,33.3078 -85.5292,55.0153 -5.4378,2.4996 -14.33602,7.8167 -19.77381,11.8158 -5.4378,3.9991 -13.12262,9.0023 -17.07738,11.1182 -3.95477,2.116 -9.76553,5.7771 -12.9128,8.1359 -7.91677,5.9334 -10.73362,5.4685 -12.13526,-2.003 z M 576.72794,664.98129 c 15.42345,-3.84597 39.17797,-14.04052 41.51058,-17.81479 1.05193,-1.70204 0.58682,-2.00673 -1.71494,-1.12345 -5.49252,2.10767 -11.81241,3.41932 -11.81241,2.45159 0,-0.51283 6.2692,-5.90595 13.93155,-11.98473 15.48271,-12.28293 32.20231,-30.85987 38.87971,-43.19881 4.59182,-8.48507 15.7021,-49.4604 20.47149,-75.5 2.16954,-11.8452 2.82652,-29.4221 2.92273,-78.19643 l 0.12403,-62.91667 -9.30009,-30.55952 c -11.63789,-38.2415 -12.54571,-40.71332 -23.5503,-64.12289 -10.206,-21.71078 -14.54676,-25.94075 -24.8967,-24.26119 -10.87538,1.76483 -22.57905,15.63508 -30.12089,35.69685 l -4.1933,11.15445 -9.47079,-0.50267 c -5.20895,-0.27647 -17.75748,0.4794 -27.88564,1.67972 -10.12817,1.20032 -21.31266,1.63876 -24.85446,0.97432 -9.4787,-1.77822 -16.44803,-8.52187 -19.16425,-18.54369 -5.22378,-19.27377 -13.14392,-28.73422 -22.16116,-26.47104 -6.35597,1.59525 -18.97802,15.57823 -26.98284,29.89216 -6.99617,12.51032 -17.33242,38.89087 -17.33242,44.23642 0,1.71109 -1.73992,4.19766 -3.86647,5.52571 -3.76791,2.3531 -3.83286,3.06289 -2.54834,27.8461 0.72498,13.98731 1.96825,56.17075 2.76284,93.74098 1.82717,86.39404 2.76373,90.98669 26.57691,130.32739 11.34064,18.73534 23.28857,30.44618 53.06707,52.01401 12.62922,9.14704 24.35869,18.56601 26.06547,20.93107 2.71712,3.76505 4.10972,4.17448 11.19252,3.29063 4.4491,-0.5552 14.50666,-2.60968 22.3501,-4.56552 z"
       style="fill:#000000;stroke-width:1.79762" />
    <path
       id="path74"
       d="m 828.58618,1178.4361 c 3.65905,-41.4473 25.39056,-110.568 44.10254,-140.2756 16.72917,-26.5596 31.63223,-56.22975 38.36247,-76.37494 5.98987,-17.92912 11.83855,-48.45031 11.83855,-61.77923 0,-10.36236 -6.61868,-28.1732 -17.10908,-46.04047 -13.66026,-23.26618 -18.93362,-35.11288 -19.95205,-44.82263 -1.30017,-12.39596 0.81985,-14.05978 10.30931,-8.09091 12.05279,7.58119 27.32823,24.47275 34.53688,38.19084 10.23918,19.4852 11.98875,29.04528 11.98875,65.50949 0,46.42358 -3.96414,62.84881 -29.5104,122.27515 -7.47225,17.3822 -14.90567,35.5054 -16.51871,40.2739 -4.89788,14.4794 -12.04063,27.1651 -31.74397,56.3783 -21.71063,32.1893 -28.79709,44.2842 -33.82112,57.7246 l -3.59405,9.6148 z"
       style="fill:#ff0000;stroke-width:1.79762" />
    <path
       id="path76"
       d="m 868.88233,798.1764 c -8.11535,-5.38379 -14.97337,-6.80876 -16.99854,-3.53197 -1.6985,2.74823 -21.51798,2.1399 -33.89529,-1.04038 -14.14272,-3.63389 -32.36718,-12.77869 -60.0823,-30.14851 -29.89986,-18.73906 -41.43915,-24.57136 -50.37329,-25.46016 -9.6063,-0.95567 -14.73841,-3.70171 -14.73841,-7.88606 0,-7.1863 12.91584,-18.15537 21.37756,-18.15537 1.96894,0 8.095,3.95107 13.61346,8.78015 11.95311,10.45989 28.35438,18.70555 57.58636,28.95126 11.86429,4.1584 28.85179,11.0183 37.75,15.24424 8.89822,4.22593 21.732,9.93992 28.51952,12.69775 6.78753,2.75784 14.56966,6.88958 17.29363,9.18165 4.71269,3.96547 10.3666,14.27275 8.72795,15.91139 -0.42361,0.42362 -4.3749,-1.62118 -8.78065,-4.54399 z"
       style="fill:#ff0000;stroke-width:1.79762" />
    <path
       id="path78"
       d="m 492.35998,805.23111 c -6.92083,-0.68412 -27.95298,-3.0281 -46.7381,-5.20883 -36.02602,-4.1822 -74.30433,-5.38129 -99.76785,-3.1253 -9.34232,0.8277 -16.32755,0.67061 -17.97619,-0.40428 -5.12003,-3.33816 1.61841,-11.11388 16.08639,-18.56265 11.52073,-5.93139 14.81531,-6.81487 25.10229,-6.7315 6.51259,0.0528 14.51539,-0.41126 17.78398,-1.03121 7.1059,-1.34776 13.86836,3.87976 15.67811,12.1195 1.53764,7.00085 3.52256,6.49555 6.81581,-1.7351 l 2.76172,-6.90221 36.08652,-1.20576 c 38.05497,-1.27152 56.98461,-3.22824 74.72684,-7.72437 9.11302,-2.30936 64.43805,-21.2771 136.0054,-46.62835 18.20276,-6.44794 24.43642,-6.63035 21.22028,-0.62095 -2.77135,5.17832 -16.02576,12.03829 -25.99949,13.45632 -11.60837,1.65045 -20.06777,5.99711 -59.32142,30.4809 -40.0039,24.95174 -66.5054,38.55049 -85.38691,43.81471 -2.47173,0.68912 -10.15655,0.69321 -17.07738,0.009 z"
       style="fill:#ff0000;stroke-width:1.79762" />
    <path
       id="path80"
       d="m 263.16355,1170.0433 c -5.4378,-9.8389 -14.5523,-23.1528 -20.25445,-29.5864 -5.70215,-6.4337 -9.93975,-12.3897 -9.41689,-13.2358 0.52287,-0.846 3.3589,-2.0671 6.30229,-2.7136 7.91977,-1.7394 7.98834,-3.558 0.41955,-11.1268 -3.76711,-3.7672 -9.14325,-9.8887 -11.94699,-13.6035 -2.80373,-3.7147 -14.64461,-14.8997 -26.31307,-24.8555 -25.53234,-21.7847 -31.57369,-29.2518 -43.03673,-53.1929 -14.47511,-30.23189 -15.16783,-32.8908 -15.1389,-58.10818 0.0226,-19.72992 0.6184,-24.17642 4.88518,-36.46072 9.79419,-28.19798 27.98666,-57.46323 49.23608,-79.20343 12.2195,-12.50172 34.42093,-27.54977 54.04831,-36.63374 17.32995,-8.02067 64.08321,-27.30867 64.70727,-26.69491 0.25404,0.24985 -0.0746,3.13666 -0.73028,6.41513 -1.55628,7.78141 -11.52912,17.59747 -26.94753,26.5239 -6.78243,3.92667 -19.20759,11.08573 -27.61146,15.90902 -15.98897,9.17666 -18.09964,11.06592 -53.08153,47.51331 -39.97321,41.64782 -54.3371,70.59299 -52.64055,106.0778 0.58446,12.22453 1.77693,17.61102 5.65235,25.53212 6.70557,13.7056 24.50227,30.0327 42.72069,39.1927 13.67755,6.877 14.82582,7.9379 24.02547,22.1985 15.02709,23.2939 27.22245,45.6031 33.36389,61.0332 7.03552,17.6764 12.95487,40.7845 12.21071,47.6683 -0.50215,4.645 -1.68971,3.2081 -10.45341,-12.6485 z M 223.06629,860.31433 c 3.57209,-3.14258 4.21725,-4.45381 2.21121,-4.49405 -1.55787,-0.0312 -4.73236,1.96552 -7.05442,4.43724 -5.45238,5.8038 -1.73875,5.84735 4.84321,0.0568 z"
       style="fill:#ff0000;stroke-width:1.79762" />
    <path
       style="fill:#ffffff;stroke-width:1.79762"
       d="M 552.58022,654.53374 C 539.32495,649.60486 523.06597,638.30106 506.6276,622.58586 485.05835,601.96553 473.90549,587.25385 462.63021,564.54919 447.87677,534.84066 448.08537,536.84792 449.92175,442.26515 l 1.6046,-82.64453 8.18029,-32.41817 c 8.63351,-34.21424 13.14048,-46.91201 18.117,-51.04216 4.56555,-3.78906 7.8542,0.55452 11.67953,15.42608 6.25007,24.29816 12.05588,27.79126 38.6553,23.25722 23.34571,-3.97942 37.25221,-3.75224 44.60152,0.72864 13.45015,8.20056 23.62986,1.54584 37.07714,-24.23825 4.5959,-8.81227 9.35026,-16.32657 10.56523,-16.69843 1.26766,-0.38799 4.17159,3.76154 6.81434,9.73727 2.53292,5.72737 9.45839,17.09305 15.38994,25.25707 12.78957,17.6032 15.25262,23.04231 17.85426,39.42727 1.07948,6.79859 3.22566,16.00126 4.76926,20.45036 3.97349,11.45278 5.06945,140.26117 1.35215,158.9202 -3.28914,16.50995 -11.10783,32.6645 -20.1715,41.67728 -9.88192,9.82643 -21.92583,24.50721 -21.92583,26.72621 0,0.98362 6.47143,-4.64508 14.38096,-12.50821 7.90952,-7.86313 14.38095,-13.56573 14.38095,-12.67244 0,0.89329 -3.20277,8.15466 -7.11724,16.1364 -14.23813,29.03192 -35.64862,51.54708 -60.21227,63.3189 -13.60384,6.51946 -22.54926,7.43927 -33.33716,3.42788 z m 45.30231,-77.9897 c 2.35217,-2.79539 7.06188,-12.28677 10.46602,-21.09194 4.16116,-10.76329 8.31846,-18.13851 12.68674,-22.5068 l 6.49741,-6.4974 -32.37155,-1.17257 c -59.77434,-2.16516 -100.97186,-1.51577 -109.05646,1.71904 -9.0945,3.63891 -9.31767,6.03481 -0.45135,4.84559 9.22877,-1.23784 21.43691,2.32309 24.55997,7.16373 1.41017,2.18575 2.49626,7.61916 2.41354,12.07427 -0.0859,4.62622 1.4674,11.75754 3.62182,16.62797 2.98897,6.75706 4.66854,8.52778 8.08877,8.52778 2.37408,0 5.63398,-1.45578 7.24422,-3.23508 3.92422,-4.3362 8.41523,-17.43299 8.41523,-24.54067 0,-12.72847 18.97974,-21.41198 31.99701,-14.63909 12.08299,6.28678 18.9301,19.07093 19.10633,35.67321 0.0708,6.67338 0.66359,12.13365 1.31722,12.13393 0.65363,3.1e-4 3.11292,-2.28659 5.46508,-5.08197 z m -64.17829,-140.5238 c 3.41718,-2.836 3.46679,-11.27486 0.10452,-17.77679 -6.59568,-12.75464 -36.00931,-34.35498 -46.78187,-34.35498 -4.16792,0 -4.55381,0.65559 -4.55381,7.73634 0,13.3201 14.19754,36.20042 27.75301,44.72592 6.09276,3.83194 18.67616,3.65481 23.47815,-0.33049 z m 55.96292,-4.84657 c 16.16795,-7.91667 24.677,-20.11743 29.53769,-42.35281 2.48936,-11.38764 1.96948,-13.026 -3.57501,-11.26625 -3.55711,1.12898 -43.27581,45.29778 -43.27581,48.12445 0,2.68769 3.84206,1.26358 7.72159,-2.86213 2.17962,-2.31792 8.66457,-9.59827 14.41101,-16.17857 5.74644,-6.58029 11.20671,-11.96417 12.13393,-11.96417 4.78296,0 -0.48256,12.54431 -10.40908,24.79806 -7.31259,9.02699 -12.73955,12.89702 -20.75664,14.8018 -5.73837,1.36338 -5.74589,1.37923 -0.74063,1.56137 2.78114,0.10121 9.50997,-1.99659 14.95295,-4.66175 z"
       id="path27" />
    <path
       style="fill:#ffffff;stroke-width:1.79762"
       d="m 754.94971,1237.9093 c -6.35415,-7.0213 -10.34934,-25.0354 -11.56144,-52.1301 -0.90126,-20.146 -0.61199,-27.0412 1.2998,-30.9831 3.0702,-6.3304 25.40888,-32.6806 26.65172,-31.4377 0.50294,0.5029 -2.32431,8.8543 -6.28279,18.5585 -14.93318,36.609 -19.0802,57.8118 -9.51597,48.6531 1.91814,-1.8368 2.12179,-1.1804 1.11551,3.5953 -0.76439,3.6276 -0.52419,5.8422 0.63365,5.8422 2.31559,0 9.90038,-13.0523 12.67013,-21.8034 2.32512,-7.3463 7.91863,-13.3059 10.81084,-11.5185 2.65679,1.642 0.56671,9.5045 -4.71837,17.7495 -4.02558,6.2801 -4.15779,7.0906 -1.47655,9.0512 2.71067,1.9821 2.65666,2.935 -0.67882,11.9772 -1.99308,5.4031 -4.60639,13.8684 -5.80735,18.8119 -2.20222,9.0649 -6.28969,17.0774 -8.71179,17.0774 -0.72175,0 -2.71461,-1.5496 -4.42857,-3.4435 z"
       id="path29" />
    <path
       style="fill:#ffffff;stroke-width:1.79762"
       d="m 311.26638,1232.8141 c -13.86548,-14.5813 -21.20287,-65.8983 -10.89596,-76.2052 6.03005,-6.0301 7.81614,-2.6681 3.96587,7.465 -3.77343,9.9308 -4.50433,26.2001 -1.47567,32.8473 1.61569,3.5461 3.22183,4.2488 9.4375,4.1292 l 7.49043,-0.1441 v 18.4235 c 0,11.8096 -0.68593,18.4243 -1.9107,18.4256 -1.05089,0 -4.02605,-2.2224 -6.61147,-4.9413 z"
       id="path31" />
    <g
       transform="matrix(4.2575508,0,-0.13008645,3.4482091,168.57165,139.70974)"
       id="g1509">
      <g
         transform="matrix(0.52900596,0,0,0.64883731,-178.24319,-96.795445)"
         id="g1173">
        <path
           d="m 555.37909,729.37125 c -38.84762,-12.55865 -82.02203,-10.83023 -117.64665,-33.2448 -48.9781,-25.19272 -95.96973,-54.69112 -135.42553,-93.52926 -36.66982,-21.37955 18.45298,-61.04098 32.9443,-23.54248 31.08777,29.22908 66.01908,55.30132 106.31282,70.02974 51.29586,25.46525 111.28815,30.38461 167.36747,21.89408 32.02812,-1.83334 49.57917,-31.42612 71.20354,-50.97605 -33.7127,-9.75429 -21.42746,-54.48757 -38.17243,-78.63536 -11.08534,-24.64553 4.5443,-45.03565 29.33916,-44.14348 -5.50347,-50.14161 -6.97598,-101.89279 -10.9858,-152.68978 -3.76121,-69.35786 -8.58399,-139.148 -2.73999,-208.47332 -3.82452,-25.33619 24.31733,-71.035998 41.49049,-30.55239 17.96875,38.17745 11.9433,81.66893 14.976,122.56868 1.24156,65.9382 -0.99813,131.86957 -2.79084,197.77572 1.9526,28.81431 -7.13703,58.78639 0.87067,86.75342 20.04102,10.4247 36.94522,25.42822 24.98245,51.01135 -1.29925,18.34271 5.8419,37.80004 0.40887,56.09459 -27.42352,15.4117 -21.52139,59.03667 -53.7572,71.04038 -28.76571,24.56801 -68.39843,32.87205 -104.74386,38.77369 -7.87785,0.26108 -15.75602,-0.0861 -23.63347,-0.15473 z M 577.11926,724 c 24.18503,-8.27127 38.71286,-62.92128 -1.65713,-45.13083 -12.92475,7.99162 -25.36809,36.28132 -26.91054,42.94612 8.96443,3.15735 19.41178,6.74478 28.56767,2.18471 z m 30.59788,-2.90677 c 28.13945,3.49165 48.15585,-68.62858 7.61822,-48.81821 -18.01364,13.62574 -13.76414,43.65123 -35.86547,53.87781 9.57613,-0.55087 19.0443,-2.39814 28.24725,-5.0596 z M 541.29947,717.75 c 29.59293,-7.97279 23.42454,-60.19115 -8.60376,-35.92678 -12.128,15.98682 -33.39202,41.14554 1.18728,36.73148 l 3.73489,-0.14139 z m 90.52977,-3.27402 c 36.02256,-1.2826 48.77336,-36.31117 37.16241,-66.12137 -19.97981,-20.11669 -31.45677,31.40487 -29.97561,47.65532 0.58265,3.48251 -22.64544,25.17455 -7.1868,18.46605 z M 517.46705,701.12079 c 33.55714,-29.09699 -38.18793,-41.5461 -40.80725,-7.1447 -27.57569,13.81862 37.01951,28.35152 40.80725,7.1447 z m -50.36053,-1.75438 c 38.72244,-15.56078 -2.9471,-56.18066 -21.18454,-20.28377 -27.30688,12.2843 8.57984,23.23754 21.18454,20.28377 z m 213.28314,-8.50952 c 31.25426,-5.26968 20.81482,-72.29569 -4.13496,-64.0899 -13.67864,21.4808 7.85934,50.49954 -4.41962,72.36131 2.98388,-2.6222 5.56236,-5.65809 8.55458,-8.27141 z M 438.69947,680.82762 c 39.755,-18.05575 -22.26118,-48.98096 -35.56321,-19.76134 -24.55015,9.08712 29.45536,25.45062 35.56321,19.76134 z M 708.923,663.46144 c 19.05291,-12.58241 1.09911,-62.69688 -12.26545,-39.32704 3.60648,5.44683 1.57505,59.69174 12.26545,39.32704 z m -310.13414,-1.67987 c 49.81262,-13.75513 -32.69251,-49.76591 -30.51396,-10.69194 9.05199,4.71397 19.44444,18.57272 30.51396,10.69194 z m -26.32803,-24.02411 c 31.1475,-10.6693 -23.03287,-50.44964 -37.14214,-22.44068 -17.85701,7.71355 29.45575,34.82506 37.14214,22.44068 z m 358.30601,-17.05914 c 26.25936,-34.03857 -33.84025,-30.11572 -51.94172,-38.06615 -45.04554,-17.23812 -9.2046,43.91726 17.79868,33.00394 11.93955,-2.51661 24.35128,7.65329 34.14304,5.06221 z m -45.44672,-2.50519 c -3.49125,0.73751 -1.44682,2.92378 0,0 z m -345.04957,-6.73672 c 25.08462,-15.47939 -31.9729,-55.41182 -45.80235,-38.21807 -0.63692,20.30892 24.14945,48.59264 45.80235,38.21807 z m 394.08198,-26.87449 c 9.14654,-33.13811 -36.11536,-40.98971 -56.91449,-52.17256 -19.42539,-7.74467 -47.14234,17.28942 -17.89229,26.6633 5.70239,29.01102 46.82394,25.9544 69.82945,26.63372 z m 2.54589,-33.53226 c -3.66228,-40.46897 -57.87919,-44.84981 -89.23834,-46.04409 -16.91235,16.70653 2.94192,34.51443 19.75341,22.7594 25.05543,1.57596 44.40698,22.44342 69.48493,23.28469 z M 705.51643,510.2 c 7.50919,-23.17894 -13.67369,-44.02146 -32.3399,-40.30741 -5.50962,26.70529 7.82785,36.63573 32.3399,40.30741 z m 0.36015,-48.7 c 13.59245,-29.37331 -20.20239,-33.87708 -37.267,-36.63937 -9.84464,19.50204 33.76829,78.05224 37.267,36.63937 z m 0.20268,-32.01536 c 8.06009,-20.90308 0.75524,-45.14527 -23.35784,-43.67333 -28.4051,-26.98978 -17.24204,47.79873 9.36444,42.36208 l 7.06727,1.24968 z m 2.35694,-45.42395 c 6.4765,-21.05858 -0.73821,-42.48937 -25.4906,-38.76966 -33.36534,-30.7096 -20.25223,38.55201 6.21509,38.94278 4.236,1.61393 16.75313,6.08667 19.27551,-0.17312 z m 1.38216,-64.39402 c 17.30942,-29.38334 -49.016,-42.70085 -48.65552,-39.99269 -10.25555,30.95027 14.45138,75.70342 48.1795,62.98779 1.15808,-7.48252 0.13425,-15.36977 0.47602,-22.9951 z m 0,-52.05417 c 7.79698,-31.33065 -34.29967,-25.76593 -49.86282,-42.64294 -11.89171,29.65147 12.58838,64.98236 46.30831,60.41553 7.47316,-0.27362 1.63071,-13.06333 3.55451,-17.77259 z m 0.14821,-47.14983 c 13.11115,-31.30836 -34.15003,-39.57749 -51.49294,-41.72358 -11.87359,27.54563 27.20043,77.39936 51.1044,52.11441 0.31348,-3.45721 0.31155,-6.92539 0.38854,-10.39083 z M 708.6548,179.25 c 8.28493,-29.39837 -22.14994,-51.9036 -45.35952,-49.95743 -16.75292,30.41327 10.95859,58.43266 42.04102,57.3199 2.88166,-1.09416 3.692,-4.65415 3.3185,-7.36247 z m -4.85915,-43.53466 c 7.84819,-26.94409 -41.80218,-64.692378 -38.54259,-18.71858 8.3361,11.56963 24.06838,20.37864 38.54259,18.71858 z"
           style="fill:#000000;stroke-width:0.92757"
           id="path125"
           sodipodi:nodetypes="ccccccccccccccccccccccccccccccccccccccccccccccccccccccccccccccccccccccccccccccccccccccccccccccccccccccccccccccc" />
        <path
           d="m 356.67913,639.86938 c -16.04881,-6.72499 -40.56553,-23.54258 -9.55205,-31.05304 21.83408,-14.05469 54.72316,33.01543 15.54308,31.75209 z"
           style="opacity:1;fill:#28170b;fill-opacity:1;stroke-width:0.544835"
           id="path137-4" />
        <path
           d="m 532.11614,718.18886 c -38.47519,6.1434 -4.86246,-33.39243 9.57925,-40.98122 38.95218,-6.96235 12.81689,44.77414 -9.57925,40.98122 z"
           style="opacity:1;fill:#28170b;fill-opacity:1;stroke-width:0.544835"
           id="path982-1" />
        <path
           d="m 713.64113,586.33649 c -28.14162,0.43102 -47.72694,-13.39203 -62.46925,-32.82093 -14.58955,-29.73836 43.30259,-22.80758 56.42663,-7.07511 23.09525,4.2149 47.53247,45.88879 6.04262,39.89604 z"
           style="opacity:1;fill:#28170b;fill-opacity:1;stroke-width:0.544835"
           id="path984-7" />
        <path
           d="m 697.19753,386.22717 c -22.83727,1.58713 -45.2972,-41.02236 -27.96524,-48.6444 16.86367,12.51469 50.91576,6.51974 39.73038,38.48728 0.171,8.11222 -2.03994,13.44162 -11.76514,10.15712 z"
           style="opacity:1;fill:#28170b;fill-opacity:1;stroke-width:0.544835"
           id="path986-1" />
        <path
           d="m 693.65984,185.39224 c -20.90975,-6.925 -43.19033,-19.9644 -33.09,-45.10682 2.17898,-25.68324 42.48134,0.21235 46.45544,15.20736 0.1453,10.88397 8.29755,39.22318 -13.36544,29.89946 z"
           style="opacity:1;fill:#28170b;fill-opacity:1;stroke-width:0.544835"
           id="path988-1" />
        <path
           d="m 419.60762,678.81595 c -18.94739,-2.71699 -32.01996,-15.93262 -7.36514,-22.74597 20.97863,-25.9229 61.95711,21.45236 20.34535,26.99754 -4.36853,-1.28712 -8.66439,-2.80214 -12.98021,-4.25157 z"
           style="opacity:1;fill:#784421;fill-opacity:1;stroke-width:0.544835"
           id="path990-0" />
        <path
           d="m 626.64508,715.01979 c 24.41364,-19.69667 4.55351,-59.70995 35.8301,-73.68896 18.57038,22.60547 11.74517,68.91858 -24.93339,71.48205 -2.70967,-1.13481 -8.66313,4.5335 -10.89671,2.20691 z"
           style="opacity:1;fill:#784421;fill-opacity:1;stroke-width:0.544835"
           id="path992-4" />
        <path
           d="m 696.38401,285.02437 c -29.30235,1.74415 -51.48495,-47.05986 -31.376,-58.43059 19.65538,16.47607 55.36423,15.57374 44.4678,50.10931 2.3746,10.19845 -4.68497,9.18753 -13.0918,8.32128 z"
           style="opacity:1;fill:#784421;fill-opacity:1;stroke-width:0.544835"
           id="path994-2" />
        <path
           d="m 728.26537,549.83243 c -26.54557,-12.97136 -57.77623,-23.85055 -83.79455,-22.09286 -10.00277,-42.52433 51.2512,-14.9626 72.14092,-7.41289 8.69394,0.0483 33.70495,35.98532 11.65363,29.50575 z"
           style="opacity:1;fill:#784421;fill-opacity:1;stroke-width:0.544835"
           id="path996-0" />
        <path
           d="m 327.25802,613.38066 c -24.44684,0.47035 -50.3799,-59.23687 -10.4768,-41.4609 16.21823,10.48434 55.74101,38.52281 10.4768,41.4609 z"
           style="opacity:1;fill:#a05a2c;fill-opacity:1;stroke-width:0.544835"
           id="path998-2" />
        <path
           d="m 559.90274,725.04715 c -26.27583,-1.33224 5.32662,-34.13288 14.54281,-45.45585 45.32625,-20.24349 22.70079,47.79214 -6.60366,45.86952 l -4.70804,-0.074 z"
           style="opacity:1;fill:#a05a2c;fill-opacity:1;stroke-width:0.544835"
           id="path1000-1" />
        <path
           d="m 723.26116,620.40388 c -24.18009,-7.21109 -66.90497,-2.33277 -66.28904,-38.44695 20.65658,-4.00327 41.76943,11.55262 63.8637,9.45995 20.41202,0.24987 23.1641,31.05431 2.42534,28.987 z"
           style="opacity:1;fill:#a05a2c;fill-opacity:1;stroke-width:0.544835"
           id="path1002-0" />
        <path
           d="m 695.19827,474.73606 c -24.80907,-2.99409 -41.80619,-71.56411 -5.12435,-42.98775 24.34331,-9.81189 21.33476,47.95578 5.12435,42.98775 z"
           style="opacity:1;fill:#a05a2c;fill-opacity:1;stroke-width:0.544835"
           id="path1004-7" />
        <path
           d="m 696.23624,135.55142 c -20.98291,-0.76255 -44.97979,-26.78083 -20.81015,-41.721182 12.9941,-2.96406 43.03495,43.667042 20.81015,41.721182 z"
           style="opacity:1;fill:#a05a2c;fill-opacity:1;stroke-width:0.544835"
           id="path1006-5" />
        <path
           d="m 488.80172,710.72558 c -28.92815,-3.20515 -16.99803,-13.64984 -2.59862,-30.02091 15.89488,-20.97462 60.25673,2.9078 28.89352,23.30245 -5.86972,8.83096 -17.10161,9.134 -26.2949,6.71846 z"
           style="opacity:1;fill:#c87137;fill-opacity:1;stroke-width:0.544835"
           id="path1008-5" />
        <path
           d="m 488.80172,710.72558 c -28.92815,-3.20515 -16.99803,-13.64984 -2.59862,-30.02091 15.89488,-20.97462 60.25673,2.9078 28.89352,23.30245 -5.86972,8.83096 -17.10161,9.134 -26.2949,6.71846 z"
           style="opacity:1;fill:#c87137;fill-opacity:1;stroke-width:0.544835"
           id="path1010-3" />
        <path
           d="m 386.60589,662.76495 c -26.3144,-5.64672 -19.07733,-31.94803 5.86997,-28.93579 35.67221,2.67491 22.55433,32.68534 -5.86997,28.93579 z"
           style="opacity:1;fill:#c87137;fill-opacity:1;stroke-width:0.544835"
           id="path1012-1" />
        <path
           d="m 694.22646,238.27938 c -26.06807,-6.09101 -46.62205,-40.10449 -31.56254,-61.69072 28.98894,7.9619 63.58749,24.02077 43.85403,59.55995 -3.05929,3.24947 -8.30507,3.38539 -12.29149,2.13077 z"
           style="opacity:1;fill:#c87137;fill-opacity:1;stroke-width:0.544835"
           id="path1014-4" />
        <path
           d="m 696.38388,507.17258 c -28.22953,8.70315 -33.10226,-59.18239 -5.51316,-31.37526 16.82456,-5.58085 20.73142,43.23946 5.51316,31.37526 z"
           style="opacity:1;fill:#c87137;fill-opacity:1;stroke-width:0.544835"
           id="path1016-7" />
        <path
           d="m 672.14816,697.2973 c 14.54284,-20.16696 -19.26536,-74.23387 18.24266,-70.90674 10.41461,29.14037 15.91249,56.95256 -18.24266,70.90674 z"
           style="opacity:1;fill:#c87137;fill-opacity:1;stroke-width:0.544835"
           id="path1018-1" />
        <path
           d="m 454.61523,699.49827 c -35.63518,-3.57963 -2.07673,-31.3356 13.95141,-34.80767 33.0957,2.06539 5.86156,41.85843 -13.95141,34.80767 z"
           style="opacity:1;fill:#d38d5f;fill-opacity:1;stroke-width:0.544835"
           id="path1020-3" />
        <path
           d="m 584.61185,723.19354 c 17.87299,-14.11931 22.07606,-70.08492 53.08116,-48.88132 7.77164,33.81505 -34.87292,56.55763 -53.08116,48.88132 z"
           style="opacity:1;fill:#d38d5f;fill-opacity:1;stroke-width:0.544835"
           id="path1022-5" />
        <path
           d="m 703.79929,667.44739 c -4.7037,-15.89699 -15.23377,-69.29963 10.81287,-40.36718 4.48412,12.07049 -0.0561,37.12483 -10.81287,40.36718 z"
           style="opacity:1;fill:#d38d5f;fill-opacity:1;stroke-width:0.544835"
           id="path1024-7" />
        <path
           d="m 694.74951,428.423 c -25.52304,5.37081 -40.57694,-57.32876 -16.28188,-45.82871 11.73831,10.96838 38.31299,5.93876 29.60382,32.35301 -0.83763,10.44047 -0.65083,17.52017 -13.32194,13.4757 z"
           style="opacity:1;fill:#d38d5f;fill-opacity:1;stroke-width:0.544835"
           id="path1026-9" />
        <path
           d="m 697.20127,345.57303 c -29.21076,-5.32582 -40.74595,-32.52083 -35.86709,-59.62416 -5.27406,-25.6779 28.80121,8.93312 41.89673,7.9866 9.16877,5.70116 14.81829,58.29698 -6.02964,51.63756 z"
           style="opacity:1;fill:#d38d5f;fill-opacity:1;stroke-width:0.544835"
           id="path1028-4" />
      </g>
      <path
         d="m -11.609059,268.04212 c 7.9043154,-6.58514 21.665196,-15.49348 30.530283,-5.80932 1.901613,8.65336 -9.8407352,13.10062 -14.2852762,19.11273 -7.4276329,6.45372 9.9418772,-3.5617 10.9259892,-7.35128 9.880915,-5.2465 5.951116,-18.58265 -4.866974,-18.10258 -7.2198556,-0.5859 -22.567817,6.62202 -22.304022,12.15045 z"
         style="fill:#000000;fill-opacity:1;stroke-width:0.264583"
         id="path1470" />
      <path
         d="m -11.02513,267.78267 c 2.1328927,-5.31872 -5.804627,8.73743 0.750981,-1.50625 -10.523093,3.75582 3.8786782,4.17504 1.9214333,-1.56344 3.4870343,0.53814 10.8522482,-6.54335 16.0203364,-5.76835 3.5797593,1.63703 14.1948263,1.3565 10.3684783,7.60479 -3.507928,6.65737 -14.2082747,12.12961 -15.2263661,17.71552 5.8384272,-5.11783 24.0564881,-16.61222 15.1699041,-24.21397 -7.000976,-3.33395 -14.931166,-3.64809 -21.8194437,0.64825 -4.0625498,2.69583 -11.5163703,8.96959 -7.9964003,8.01513 0.440809,-5.5857 -4.577366,7.59691 2.771896,-1.88823 1.0888885,-2.99845 -5.898645,-0.40321 -1.960819,0.95655 z"
         style="fill:#000000;fill-opacity:1;stroke-width:0.264583"
         id="path1472" />
      <path
         d="m 12.866139,257.31962 c -6.4349824,-0.88075 6.643798,2.84185 -1.836398,2.50538 7.914821,0.37875 -4.0999646,-1.2415 4.084114,0.54556 2.700405,-6.12567 -9.8043043,-1.87304 -2.247716,-3.05094 z"
         style="fill:#550000;fill-opacity:1;stroke-width:0.264583"
         id="path1474" />
      <path
         d="m 1.053967,281.12265 c -10.5036919,-9.34326 -14.191188,-17.34074 2.5680931,-21.43793 12.7504559,-3.01384 21.0733649,7.41318 6.7590419,15.34783 -2.5737215,0.57663 -6.4558358,10.05848 -9.327135,6.0901 z"
         style="fill:#550000;fill-opacity:1;stroke-width:0.133635"
         id="path1476" />
    </g>
  </g>
</svg>
