<svg xmlns="http://www.w3.org/2000/svg" width="811.829" height="1294.913"><path d="M475.764 1347.452c-35.385-24.067-129.703 11.34-143.23-23.842 34.566-40.195 60.82-90.013 62.404-143.408 16.623-65.906-18.187-115.125-75.28-144.38-40.794-26.46-43.088-50.472-65.67-91.572-13.936-28.114-16.648-70.048-49.241-33.548-44.018-36.592-17.912-107.684-16.994-158.924-6.018-51.534-52.32-102.69-24.172-156.684 65.983-6.018 7.467-81.96 24.434-126.426-59.616 30.745-43.114-51.548-44.49-88.627 25.87 22.935-16.82 111.328 54.814 84.164-4.058 23.631 20.716 40.182 39.33 47.504 29.628-42.063 73.663-62.537 125.82-52.245 50.81.41 87.322 22.432 99.752 65.15 15.492 38.344 40.635 67.083 25.102 111.323-21.01 40.311 2.89 119.984-3.133 135.902-52.429-20.483-71.392 53.81-67.639 97.747 19.45-35.283 80-68.628 107.914-18.818 40.16 36.373 66.926-71.087 118.22-35.782 10.547 23.548 38.223 49.474 24.875 2.305.312-45.304-35.865-58.091-72.05-55.053 13.274-17.065 10.989-105.133 5.588-37.641-10.144-4.628-3.458-87.267-28.523-114.067-2.328-56.17 10.74-111.221 45.533-154.839 35.65-35.367 100.751-69.481 142.73-25.827 37.61 6.417 70.868 68.107 59.611 92.468-12.343-51.904-37.75-58.916-70.252-91.002-30.727-19.33-80.523-8.479-101.93 17.223-30.008 27.583-62.993 66.324-57.091 106.406-16.67 45.074 3.5 92.966 21.092 132.256 3.098 39.148-21.56 83.998 38.5 74.05 32.262 15.455 43.206 77.486 21.384 93.195-27.956 1.44-20.959 11.097-52.231-2.229 24.272 50.312-21.663-27.028-19.824 20.227.492-16.181-7.815-31.031-20.647.874 23.676-54.952-34.763 26.921-53.914-8.956-33.734-28.072-14.344 2.188-37.65 9.784-20.575-46.257-12.952 35.27-24.125-9.086-29.322-.945-31.4 66.844-23.793 7.931-56.767 30.997-31.29-69.222-8.664-91.997 35.769-25.472-38.597 16.376 7.357-13.12 57.212 4.581 21.76-59.02 31.063-91.185 7.275-28.005 16.974-65.804 1.244-87.852-3.27-45.002-24.028-58.338-46.19-92.978-37.112-28.032-75.522-27.01-116.764-25.822-35.923 12.488-71.512 52.562-89.287 75.347 14.222 27.273-29.578-13.54-1.343 28.856 15.581 45.63 31.829 99.476 75.593 125.913 5.41 42.462-47.224-22.177-55.985-48.14-17.398-34.288-33.247-57.225-14.276-10.034 18.394 51.098 66.985 109.563 93.478 137.358-46.193-12.217-80.886-107.073-90.203-104.85 27.825 47.66 42.194 119.959 100.477 137.386-51.183 12.552-68.372-67.719-92.818-101.185 2.802 15.682 41.501 102.716 80.897 125.742 26.749 30.345-49.394-20.268-49.28-42.437-10.829-18.986-49.987-97.53-27.877-34.866 24.402 38.272-8.059 14.075 2.274 30.066 1.99 30.323 53.317 87.314 39.614 97.338-18.769-16.803-38.112-79.732-45.386-84.971 13.175 58.89 43.136 95.437 47.613 140.886-9.253 31.767 35.923 54.636 43.487 83.402 45.164 41.657 101.882 66.36 159.434 85.277 49.655 8.37 96.47-3.775 140.042-28.419 40.023-22.636 56.459-51.842 98.55-81.703 49.684-63.356 85.279-137.525 106.347-215.526 18.394-44.112 5.065-100.272 28.833-139.789.849 79.894 15.526-131.653-.18-36.622-2.207 28.032-20.629 70.468-9.1 16.42 5.878-26.162 19.983-87.16.77-77.882 9.141-10.234 22.824-102.607 6.983-43.608-20.405 54.477 2.602-42.88 3.915-64.311 4-50.366-16.067 74.232-20.98 38.753-.703-2.109 10.943-97.444 18.203-59.637 6.878-36.344-72.64-13.681-98.97-25.904-24.826-.753-116.25 14.339-51.489-20.081 23.292-24.715 102.902-31.43 101.102-58.144-20.667-20.982-9.55-29.305-50.734-45.1-11.406-43.545-74.2-23.622-106.378 4.155-63.734 30.213 13.813-56.983 24.351-77.744-43.175-7.143-107.426-26.983-141.764-3.19.268 28.258-24.353 90.948-34.78 28.895-5.739-71.298-88.178-3.716-126.61 1.427-7.426 34.13 75.904 55.278 64.145 95.823-42.854-15.343-95.64-38.78-144.726-48.25-32.714 3.532-68.658 56.873-72.76 75.022 1.118 5.6-13.214 40.195 24.772 32.602 58.154 16.448 122.223 4.793 178 24.218-48.013 24.187-107.017 27.774-159.012 45.002-24.167 11.436-76.675 13.673-22.092-1.101 49.35-17.65 125.325-25.37 160.069-45.184-67.425-1.774-134.3-10.492-200.48-23.667-21.831 5.034-88.578-7.71-28.18-6.565 44.274-6.836 42.838-86.79 92.695-105.398-64.235-3.638 27.986-58.313 43.126-78.534 32.269 4.651 63.801 47.778 102.051 9.761 28.287-17.045 93.291-.263 62.394-48.45 7.6-38.497-63.249-61.345 4.43-68.272 29.239-10.767 123.972-58.972 82.352 10.108-7.814 45.472-38.3 102.263 32.258 82.64 32.892-8.072 69.88 10.549 99.564 7.73 34.511-29.713 77.678-125.43 113.192-40.864 16.695 26.982 56.354 57.487-.848 59.154-40.838 9.487-42.87 29.728-21.46 46.702-63.012-30.657 47.026 37.529 48.808 65.419 34.228 1.774 121.38-73.518 117.992-.534-2.307 45.938 21.789 152.73-55.513 98.157-45.592-9.388-8.042 75.841-23.343 107.636-14.635 46.865 40.098-35.648 51.03 20.21 19.14 62.08-37.971 118.724-21.882 181.708 19.828 44 14.25 151.754-56.787 103.4-6.392-36.018 53.543 40.433 57.63-11.11 10.194-54.209-24.96-108.256-.743-160.615 12.922-35.466 44.17-135.305-19.688-122.98-9.609 23.528-11.64 52.726 13.889 26.779 33.29 40.547-2.683 97.119-22.87 135.158-27.777 30.452-18.534 74.442-26.082 114.955-26.81 43.006-28.528 95.325-57.079 137.413-33.34 49.96-71.845 98.539-123.015 133.034-10.853 54.012-16.984 120.083 12.994 169.476 20.024 15.634 53.672 106.892-13.276 94.436-59.29 10.438-119.748 5.783-179.624 5.392-2.387 2.41-5.819 7.41-9.724 3.912m106.697-9.706c-7.584-39.178-.722-86.396-55.42-73.496-34.476-19.44-25.48 112.464-34.866 72.467 30.15-1.004 60.214 3.653 90.286 1.029m39.027-.976c41.106-2.07 94.378-3.742 68.269-57.738-20.444-35-72.59-5.132-107.269-11.83 5.108 26.047-5.646 88.544 39 69.568m-139.392-11.068c17.235-31.579 37.625-84.883-22.57-71.016-27.735 5.15-82.192-22.348-83.658 23.906-7.012 24.904-65.087 62.91-3.887 51.331 32.817-3.311 87.314 17.253 110.115-4.22m142.621-66.604c-3.96-2.101-.934 2.254 0 0m-31.729-4.181c39.87-4.155 94.517 4.763 59.818-49.512-8.585-30.164-.83-78.005-9.511-100.057 5.75-17.617-57.192 14.659-86.011 16.53-50.284 19.16-95.342.422-139.096-21.257-42.741-12.299 60.156 71.024 50.402 64.53-27.977 1.188-84.248-76.1-54.901-11.497 2.009 28.378 93.022 53.403 27.497 40.399-17.642-10.642-46.242-50.038-35.883-23.176-5.432 19.202 92.501 74.962 25.951 46.02-21.108-17.693-38.973-52.626-23.09-2.93 14.198 52.776 75.678 27.158 114.83 40.362 23.37.55 46.638 3.07 69.994.588m-175.596-10.37c-10.714-23.303-23.514-30.753-20.873-.01 11.083-12.99 6.395 8.262 20.873.01m229.596-144.845c-1.21-3.656-2.466 3.563 0 0m-10.69-10.286c39.1-21.742-23.236 5.92-14.991 5.843l5.566-1.976zm73.186-54.706c.932-6.996-16.765 13.77 0 0m-430.937-79.543c-7.664-30.028-59.392-110.025-48.069-102.465 13.5 31.927 28.733 85.72 48.07 102.465M216.48 902.6c24.99-30.035-6.728-87.738-6.219-123.587-12.325-14.538-16.218-57.055-17.645-10.24-.577 35.564-25.541 129.29 23.864 133.827m278.508-35.443c-2.274-30.49-18.94-7.254 0 0m-34.5-5.7c-6.995-2.299-20.878 12.026 0 0m102.54-4.841c38.26-35.622 1.538-10.75-18.04 7.216 6.777 2.788 13.4-3.64 18.04-7.216m1.003 4.252c5.538-6.806-10.492 6.379 0 0m-131.757-6.883c.626-7.755-4.569 10.62 0 0m-188.698-2.034c-5.062-24.37-28.556-71.44-10.563-18.292 1.292.802 10.193 26.907 10.563 18.292m223.662-2.912c-5.507-1.623-1 1.75 0 0m167.25-6.338c-4.905-3.27-6.899 4.166 0 0m-143.25-1.85c-4.491-11.737-23.313 11.157 0 0m-28.75-3.286c11.073-9.064-19.219 9.498 0 0m7.628-2.614c3.733-4.566-6.735 5.434 0 0m12.372-.25c13.77-5.933-19.327 3.543 0 0m115.52-4.524c3.592-6.726-8.55 6.183 0 0m-373.02-33.917c-1.777-6.787-3.091 5.406 0 0m-9.873-38.123c3.817-28.232-11.59-59.043-11.872-15.187 3.46 3.83 5.8 33.358 11.872 15.187m630.878-7.734c5.769-42.964-11.38 46.366 0 0m-639.135-46.72c3.338-23.717-5.101-118.67-13-42.642-1.276 14.331 2.198 94.316 13 42.642m-18.004 4.67c-24.98-40.856 50.535-114.198-15.52-117.828-25.712 34.305-4.904 86.12 12.435 120.176.998 3.1 9.277 11.425 3.085-2.347m674.57-12.825c2.752-9.732-9.648 15.766 0 0m7.548-15.246c16.546-48.723-6.203-11.053-12.984 14.835l5.447-4.856zm-646.986 7.913c-9.646-27.778-1.23 13.21 0 0m648.938-37.368c29.717-28.698-3.493-42.663 0 0m8.706-36.372c44.17 8.581-.083-101.044-8.722-25.869 3.368 8.26-9.741 47.426 8.722 25.869m-391.642 3.128c-3.47-1.724-1.65 4.67 0 0m372.945-80.132c1.49-36.147-12.427 17.454 0 0m-659.76-5c-10.4-20.865 6.266 26.26 0 0m15.208-7.226c3.66-8.82-12.428 6.723 0 0m-17.06-11.097c-4.776-5.498-.805 9.569 0 0m16.667 1.533c-6.271-18.462-20.251-10.968 0 0m-14.696-19.836c-13.04-18.159 5.685 21.92 0 0m581.563-46.674c-21.65-15.955.884 10.668 0 0m154.133-37.026c-6.713-35.094 21.29-116.374-15.744-124.423-58.963 16.226-110.816 45.919-167.434 68.072-21.69 13.676-89.76 40.459-24.822 31.062 45.478-2.93 91.14 5.879 134.727 13.44 25.872-7.018 54.858 16.888 73.273 11.849m-515-112.384c-39.212-28.183-72.75-94.657-117.806-101.598-19.866 22.095-77.933 60.215-14.617 65.141 44.527 3.352 92.904 29.437 132.423 36.457M649.661 266.4c51.436-30.846 107.88-51.2 161.825-77.547 23.284-6.782-27.982-75.66-48.631-75.902-39.967 51.645-90.57 95.155-120.348 154.088 1.657 2.237 5.776 1.81 7.154-.64m108.775-17.522c-60.676-44.185 17.606 19.44 0 0m-240.915-25.885c11.91-49.612 40.433-130.694 36.845-162.83-28.354 19.602-124.115 18.996-78.064 56.872 2.337 40.99 27.41 90.945 38.724 115.168zm-13.033 783.75c-26.776-16.29-84.6-33.97-92.117-52.955 32.965-1.274 82.364-43.856 127.382-11.102 45.56-30.238 104.288-26.053 153.461-20.57 47.8-22.886-24.215 34.93-30.778 51.686-38.633 45.078-106.063 24.05-157.948 32.942m14-7.598c54.538-3.976 122.18 7.44 153.79-49.588-44.593 14.376-105.68 32.647-158.455 21.716-24.435 1.423-96.06-14.817-38.272 12.72 12.78 8.287 26.47 19.86 42.937 15.152m50.5-32.468c34.88-5.85 90.931-12.171 108.418-36.286-53.74-25.572-105.855 19.623-154.368 14.702-25.86-25.056-127.443 18.191-51.05 16.608 32.623-.393 64.636 8.135 97 4.976m111.503-22.981c-3.083-2.772-6.42 7.78 0 0M427.988 892.36l8.213-8.771c8.647-5.865-24.63 32.07-8.213 8.77m25-11.223c8.22-37.47 8.662 19.978 0 0m382-35.864c5.472-4.806 5.237-.889 0 0m-174.595-141.07c-26.156-23.932-18.871-71.296 24.276-47.24 30.866-4.2 64.23 10.679 11.131 7.99-1.407 13.46 9.196 17.596-21.312 20.25 41.147 21.123 20.11 23.979-11.57 6.465 11.439 10.234 16.701 30.95-2.525 12.534m26.595-30.92c-26.65-12.148-26.594-3.756 0 0m-314.82 31.136c57.9-38.842-105.222 5.397-34.325-20.708 29.113-2.876 112.791-71.13 77.164 1.661-21.454 36.77-11.13-10.152-38.045 20.215zm-52.18-54.829c-71.594-21.453 62.015-9.681 79.611-22.794 69.598-30.451-20.178 30.083-47.514 22.732-10.673.661-21.434 1.255-32.097.062m30.5-6.83c12.155-3.112-26.497 2.866 0 0m10.25-1.747c-7.745-1.556-1.487 1.608 0 0m315.75-13.38c-38.47-3.435-30.045-27.46 4.63-11.887 40.272 15.775 99.87-16.896 125.477-11.986-39.755 18.175-85.987 30.947-130.107 23.873m-282.865-41.578c-34.828-8.981-67.623-18.907-100.299-1.92 22.892-36.865 104.996-18.126 111.136 5.05zm238.032-1.02c11.33-39.049 74.228-61.737 115.15-49.58 25.298-4.143 70.57 48.147 19.53 16.23-37.436-30.01-96.81 3.713-130.383 33.629zm-139.693-71.153c2.86-24.554 30.335-100.646 9.526-102.715-27.499 24.02-82.134 43.912-57.327-12.565-16.51-49.955 20.09-47.134 54.734-35.342-8.405-30.796-81.718-68.802-15.322-61.841 38.46-2.118 105.027-30.848 84.44 34.269-1.553 29.994 71.893-48.843 59.016 8.77-.239 33.373 3.936 126.96-45.64 68.594-59.627-39.797 42.834 119.439-39.208 96.004-17.003-2.231-34.049 8.57-50.22 4.826m28.026-9.978c49.85 11.305 55.816-21.43 36.48-61.875-12.561-31.152-2.792-73.023 32.601-33.175 41.224 50.257 31.883-87.511 17.69-73.688-30.471 12.188-65.132 57.872-48.461-2.964 21.858-54.064-88.235-2.928-82.104-14.421 19.858 27.979 74.535 66.823 7.005 50.293-48.505-27.051-24.555 40.708-31.96 62.108 30.002-9.705 88.508-72.083 66.257.9 9.473 14.681-35.41 92.279 2.492 72.822" style="fill:#000" transform="translate(-139.83 -53.742)"/><path d="M393.648 1203.066c-10.385-.622-19.873-1.744-21.084-2.492-1.211-.749-17.798-2.027-36.86-2.84-30.024-1.28-35.926-2.024-44.157-5.565-12.486-5.371-20.494-14.946-25.205-30.14-7.597-24.5-7.62-24.476 8.054-8.49 10.702 10.916 16.264 15.14 23.087 17.536 9.89 3.47 15.906 4.055 14.98 1.453-.33-.926-9.024-8.813-19.322-17.527-21.96-18.583-28.08-25.875-29.753-35.448l-1.227-7.021 14.964 13.93c8.23 7.661 17.039 15.01 19.573 16.331 5.92 3.086 27.838 5.71 26.252 3.143-.624-1.01-8.556-6.184-17.626-11.498-22.49-13.175-30.018-21.002-36.178-37.612-5.244-14.14-5.937-17.888-3.308-17.888.885 0 9.763 6.389 19.727 14.198 19.636 15.389 32.038 22.352 38.18 21.437 3.205-.477-.228-4.302-19.07-21.254-21.496-19.34-38.65-37.763-38.65-41.51 0-3.45 7.935-1.31 26.937 7.264 32.309 14.577 46.175 18.342 71.518 19.417 19.628.833 24.378.4 43.143-3.938 11.597-2.681 35.076-9.263 52.175-14.625 17.1-5.363 32.964-9.751 35.255-9.751 3.628 0 4.438 1.334 6.276 10.336 1.16 5.685 2.53 24.088 3.043 40.896 1.168 38.289 3.004 50.142 9.755 62.976 6.125 11.644 7.026 22.287 2.287 27.026-6.165 6.166-15.428 8.13-50.512 10.708-37.061 2.725-41.604 2.784-72.254.948" style="fill:#ac9393;stroke-width:1.79762" transform="translate(2.92 -2.876)"/><path d="M724.031 768.808c-8.616-4.427-17.735-8.049-20.264-8.049-4.348 0-4.456-.22-1.976-4.045 1.762-2.716 3.546-15.58 5.433-39.166 3.706-46.318 6.216-55.798 20.123-76.016 10.9-15.846 31.081-58.912 35.05-74.798 6.097-24.399 3.112-47.667-7.972-62.136-2.747-3.586-2.764-3.585-6.943.225-2.304 2.101-6.013 4.76-8.242 5.91-6.022 3.105-8.673-3.57-6.13-15.43 3.833-17.872 4.41-18.568 15.393-18.568 8.02 0 10.839.88 15.568 4.86 8.325 7.005 10.68 14.2 10.68 32.634 0 22.028-3.932 40.951-15.742 75.756l-10.064 29.66.019 22.471c.013 16.125 1.373 30.321 4.813 50.271 4.752 27.551 6.053 54.288 3.343 68.7-1.548 8.234-7.998 15.863-13.366 15.81-2.232-.021-11.107-3.661-19.723-8.089" style="fill:#ac9393;fill-opacity:1;stroke-width:1.79762" transform="translate(2.92 -2.876)"/><path d="M730.8 549.988c1.268-20.235 3.063-29.388 6.75-34.43 6.413-8.77 17.642 7.332 18.914 27.12.644 10.03.263 11.565-3.9 15.729-2.85 2.849-6.624 4.614-9.869 4.614-2.89 0-6.261 1.213-7.492 2.696-4.667 5.624-5.545 2.49-4.403-15.729" style="fill:#ac9393;stroke-width:1.79762" transform="translate(2.92 -2.876)"/><path d="M188.552 473.645c7.915-1.037 15.29-4.18 22.913-6.414.522-.106 1.065-.14 1.567-.318 1.092-.387 2.516-1.282 3.72-1.597 1.868-.489.044.886 2.798-.901 1.039-.675 1.952-1.525 2.928-2.287 3.333-2.9 7.537-3.865 11.863-3.777 3.781-.244 7.267-1.678 10.56-3.465 1.277-.694 4.945-3.057 3.681-2.338-.753.427-1.46.93-2.191 1.395l-7.31-1.585c-.204-.224-.712-.958-.61-.672.12.342.414.603.674.856.842.818 1.502 2.002 2.623 2.348 7.246 2.241 7.007 1.911 11.757.488 1.087-.564-6.886-15.938-7.974-15.374-2.785.269 1.995-.227 6.562 1.54.678.262.93 1.118 1.377 1.69.236.302-.492-.583-.74-.874-.64-.756-1.02-1.857-1.923-2.268-2.777-1.266-5.85-1.74-8.776-2.61-4.637 1.585-9.165 3.468-14.12 3.802-7.554 1.595-12.319 3.472-17.934 8.925.227-.177.63-.247.68-.53.036-.197-.402.004-.595.057-.082.023-2.583.901-3.061.942-.212.018-.412-.108-.618-.162l-2.893.393c-4.092.856-7.942 2.02-11.916 3.314-2.631.856-5.317 1.544-7.931 2.452-1.199.416-2.358.937-3.536 1.406-1.1.595 7.324 16.16 8.425 15.564M164.444 386.747c2.005-1.93 3.726-4.14 5.892-5.907.533-.435 1.158-.745 1.705-1.163 1.991-1.522 1.7-1.36 3.19-3.143-4.465-3.787-8.49-8.168-13.397-11.362-.712-.463-1.507.783-2.261 1.172-3.518 1.819-6.676 4.18-10.174 6.051-3.777 1.146-7.716 4.865-8.785 8.716-.38 1.373-.49 2.807-.735 4.21-.413 3.89 1.845 7.1 2.81 10.671.473 1.753.476 2.26.719 4.093.594.796.037 4.21.777 1.263-.265 1.16 16.147 4.9 16.411 3.74.647-2.476.958-4.816.677-7.393-.65-3.694-1.265-8.083-3.517-11.238-.15-.21-.6-.037-.672-.382-.229.58-.31 1.23-.642 1.758-.118.186-.63.523-.41.518 1.635-.034 2.936-1.998 4.555-1.815a94 94 0 0 0 10.978-7.072c.625-.467 2.222-.846 1.797-1.5-3.09-4.744-7.418-8.553-11.127-12.83-6.11 2.464-11.281 9.18-14.009 14.957-.47 1.147 15.747 7.803 16.218 6.656M230.462 907.68c5.184-4.197 10.949-8.42 14.235-14.401.708-1.29 1.173-2.698 1.76-4.046.48-4.362 1.912-9.986-4.73-12.413-3.757-1.374-8.019.923-11.783 2.279-1.368.492-2.122 1.994-3.09 3.078-2.96 3.312-3.094 3.983-5.424 7.893-1.751 3.249-3.066 6.679-4.73 9.966-.873 1.726-.78 2.616-2.621 2.496-.503.314-1.818 1.25-2.587 1.402-.248.048-.494-.679-.245-.715 3.53-.517 3.09-.556 4.997.47-.717-.236-3.5-3.911-1.765-2.471.127-1.241-17.422-3.036-17.55-1.795-.053 1.536-.33 3.08-.161 4.608.617 5.58 4.598 10.07 8.826 13.363 1.27.676 2.405 1.724 3.812 2.028 6.218 1.34 11.501-.491 16.59-3.771 1.062-.865 2.23-1.614 3.19-2.593 4.137-4.228 6.316-9.96 9.148-15.022 2.481-4.493.688-1.4 3.298-5.546.264-.42 1.261-1.216.768-1.275-7.04-.847-13.389 4.305-12.763-8.345-2.694 4.913-8.036 7.86-11.38 12.281-.887.863 11.32 13.393 12.205 12.53" style="fill:#2b1100;fill-opacity:1" transform="translate(-139.83 -53.742)"/><path d="M157.58 604.083c1.348-2.247 2.385-4.713 4.044-6.74 1.082-1.323 2.775-2.004 4.045-3.147.249-.224.15-.749.45-.898.401-.201.946.2 1.348 0 .568-.285.83-.98 1.348-1.349.545-.39 1.23-.543 1.797-.899 2.088-1.304 3.58-4 5.843-4.943.978-.407 2.124-.17 3.146-.45 1.263-.344 3.42-1.66 4.943-.898 1.707-.19 1 1.715 1.798 2.247.374.25 1.03-.318 1.348 0 .237.237.212.662.45.899.105.106.382-.134.449 0 1.807 3.614-5.915.898-6.292.898-.807 0-1.46.724-2.247.9-4.884 1.085 2.1-1.75-4.494.449-4.3 1.433-6.204 6.158-9.438 8.988-.563.493-1.127 1.013-1.797 1.348-.268.134-.687-.212-.899 0s.134.63 0 .899c-.032.063-1.482.268-1.348 0 .567-1.135 8.596-8.631 9.887-9.438.38-.238.916.124 1.348 0 9.93-2.837 1.058-.614 7.64-3.146 1.822-.7 3.866-1.526 5.393 0 .354.355 1.348 1.997 1.348 1.349 0-.356-1.958.144-3.146-.45-.3-.15-.15-.749-.45-.899-.401-.2-.909.098-1.348 0-1.735-.385-2.716-1.343-4.494-.898-4.844 1.21-9.629 6.26-13.032 9.437-.755.705-2.44 2.76-3.596 3.146-.426.142-.898 0-1.348 0-.15 0-.45.15-.45 0 0-1.532 5.183-3.662 6.292-4.494 1.274-.956 2.286-2.24 3.596-3.146 2.799-1.938 7.675-3.072 10.785-4.045 3.574-1.116.957-.8 4.944-1.797.29-.073.65-.166.899 0 .485.324 1.78 2.229 2.247 2.696.268.269.898-.485.898.45 0 .223-1.336-.442-2.696-1.349-.374-.249-.922.143-1.348 0-.636-.211-1.128-.898-1.798-.898s-1.153.714-1.797.898c-1.66.475-3.718-.418-5.393 0-.524.131-.831.744-1.348.9-5.02 1.505-3.21-.335-5.843 4.493-.848 1.556-2.696 3.072-2.696 4.944" style="fill:none;stroke:#000;stroke-width:1px;stroke-linecap:butt;stroke-linejoin:miter;stroke-opacity:1" transform="translate(-139.83 -53.742)"/><path d="M357.04 1061.377c-13.63-1.21-13.491-1.172-43.135-12.159-49.154-18.219-87.039-38.998-118.747-65.13-7.615-6.275-11.288-10.302-13.022-14.276-3.487-7.989-7.912-14.225-21.638-30.492-6.767-8.02-14.117-18.308-16.543-23.157-4.097-8.189-4.36-9.482-4.285-20.982.128-19.492-2.918-29.288-26.538-85.343-9.013-21.39-18.525-48.826-17.742-51.176.24-.716 5.745 10.648 12.235 25.254 12.413 27.936 21.156 43.985 27.026 49.608l3.522 3.374 1.462-3.208c2.443-5.362-1.367-14.86-16.706-41.648-15.955-27.862-20.927-38.145-23.353-48.3-.919-3.846-1.88-7.82-2.136-8.829-.303-1.197.862-2.084 3.348-2.548 5.728-1.07 5.606-5.573-.472-17.465-5.152-10.081-11.115-26.73-9.98-27.865 1.36-1.36 31.481 52.863 33.196 59.76 2.789 11.214 25.743 34.018 45.363 45.066 3.902 2.197 7.763 3.995 8.58 3.995 4.59 0-1.636-9.277-10.169-15.154-20.028-13.793-49.608-58.02-67.565-101.022-9.552-22.872-2.898-12.288 14.7 23.385 20.758 42.08 35.66 57.773 56.442 59.441 4.323.347 9.416.24 11.318-.237 3.138-.787 2.262-1.455-9.442-7.197-10.55-5.175-14.703-8.117-22.789-16.14-11.33-11.24-21.243-25.644-30.732-44.656-9.75-19.533-28.147-60.112-27.532-60.726.293-.293 5.545 7.935 11.672 18.284 24.405 41.227 43.037 63.816 59.872 72.587 12.64 6.585 13.204 5.254 2.72-6.42-30.535-34-55.088-68.06-71.575-99.29-7.08-13.41-18.808-41.984-20.247-49.326-.73-3.727-.178-3.243 4.591 4.027 2.982 4.544 9.597 16.488 14.702 26.542 10.482 20.648 17.155 31.156 27.894 43.93 18.46 21.956 31.008 26.021 30.9 10.009-.03-4.358-.652-5.27-6.141-8.992-8.71-5.904-19.688-16.967-28.11-28.326-12.344-16.649-22.935-39.282-35.977-76.884-3.159-9.109-7.803-19.977-10.32-24.151-6.396-10.607-6.18-12.109 1.6-11.187 7.167.849 8.332-.214 6.379-5.818-1.29-3.697-.989-4.514 4.146-11.268 8.775-11.543 40.163-42.18 51.303-50.075 5.59-3.961 14.452-9.395 19.695-12.076l9.533-4.873 20.974-.414c33.35-.66 53.867 2.743 74.305 12.32 17.584 8.24 20.414 10.8 36.954 33.408 22.05 30.141 27.944 42.353 31.067 64.37.722 5.093 2.122 10.526 3.11 12.073 8.192 12.825 7.7 39.92-1.37 75.265-3.905 15.221-4.115 25.276-1.09 52.184 2.5 22.233 1.584 31.133-3.949 38.386-4.185 5.488-9.715 7.848-20.591 8.787-6.336.548-9.99 1.678-14.425 4.462-11.005 6.909-10.98 9.834.04 4.833 3.048-1.383 5.803-2.515 6.123-2.515s-2.266 2.774-5.746 6.163c-10.632 10.357-20.818 34.209-25.073 58.714-3.393 19.54-.782 33.11 7.321 38.05 5.26 3.208 9.38 3.237 18.222.13 6.428-2.26 6.96-2.282 6.96-.292 0 1.186-3.719 5.985-8.263 10.665-7.459 7.682-10.18 12.41-7.144 12.41.944 0 5.999-5.616 12.517-13.905 1.27-1.615 1.437-.802.899 4.372l-.66 6.355 2.555-6.355c3.578-8.899 6.198-13.337 10.69-18.113 5.052-5.371 6.017-5.215 3.93.635-2.268 6.353-2.224 9.835.147 11.803 3.407 2.827 5.038-.571 4.959-10.335-.066-8.124.142-8.857 2.415-8.515 1.75.263 3.003 2.148 4.224 6.349 2.936 10.109 4.447 9.497 7.87-3.186 2.796-10.359 5.668-10.68 10.748-1.2 1.967 3.67 3.968 6.67 4.448 6.668.48-.003 2.776-1.165 5.103-2.583 2.967-1.81 5.342-5.032 7.957-10.8 2.05-4.521 4.468-8.22 5.372-8.22 2.814 0 13.144 7.187 18.246 12.697 11.468 12.38 18.773 11.83 43.697-3.293 7.373-4.474 13.808-8.134 14.3-8.134 1.681 0 .9 6.252-1.624 12.982-2.712 7.235-2.178 6.71 4.153-4.084 4.974-8.48 8.654-9.73 11.64-3.955 1.089 2.106 2.019 5.716 2.066 8.023.078 3.844.223 3.683 1.73-1.921.904-3.363 2.29-6.76 3.079-7.55 1.962-1.962 8.038 1.066 15.638 7.794 3.253 2.88 6.256 5.236 6.673 5.236 1.518 0 .7-4.936-1.709-10.317-1.356-3.031-2.308-5.67-2.115-5.863.194-.193 3.681.794 7.75 2.194 8.302 2.856 16.603 3.232 24.161 1.092 2.797-.791 8.17-1.79 11.941-2.217 5.858-.665 7.378-1.426 10.44-5.227 15.9-19.742 3.667-71.884-20.351-86.749-3.738-2.313-6.007-2.636-16.689-2.372-13.504.334-18.959-1.135-23.635-6.366-4.69-5.246-5.981-11.796-5.087-25.81.45-7.043 1.18-19.176 1.625-26.962l.809-14.157-7.698-18.257c-14.59-34.604-19.82-55.889-19.632-79.904.081-10.357.878-17.549 2.736-24.673 1.537-5.897 2.621-14.054 2.621-19.727 0-29.23 17.65-58.615 58.471-97.347 19.423-18.428 36.129-25.225 62.285-25.34 12.085-.053 16.22.46 23.866 2.966 8.516 2.79 11.067 4.593 32.229 22.778 31.624 27.176 40.066 37.956 47.48 60.627 1.828 5.593 3.613 11.011 3.965 12.04 1.375 4.014 3.007-1.894 3.027-10.953.063-29.433-27.691-70.096-53.75-78.752-3.606-1.197-10.499-5.18-15.317-8.852-4.82-3.671-11.927-7.887-15.796-9.367-31.66-12.115-72.824.485-112.146 34.329-18.631 16.035-37.66 51.443-46.256 86.072-4.417 17.795-5.829 27.404-7.039 47.918-1.309 22.187-.638 29.291 3.25 34.413 7.792 10.266 12.892 31.692 17.55 73.733 2.879 25.992 4.714 34.872 7.205 34.872.894 0 1.444-2.82 2.852-14.618.25-2.097.54.293.645 5.31.31 14.82-2.917 32.948-8.049 45.217-.845 2.02.103 2.226 10.328 2.243 33.955.057 57.249 17.469 59.639 44.58.395 4.484 1.58 11.924 2.633 16.535 2.467 10.801 1.963 18.126-1.288 18.743-3.256.618-15.745-12.652-20.557-21.841-3.288-6.28-4.609-7.516-11.196-10.472-6.137-2.754-8.872-3.262-15.34-2.85-11.846.754-20.029 5.564-38.026 22.352-27.25 25.42-34.744 29.845-45.594 26.923-5.41-1.456-8.712-4.375-19.785-17.487-21.408-25.347-65.713-15.646-94.708 20.738l-5.065 6.356.676-16.525c1.49-36.379 15.207-67.32 34.126-76.971 7.08-3.613 18.911-4.53 26.795-2.08 5.228 1.626 6.047 1.624 6.674-.01 1.27-3.31.744-11.914-2.47-40.423-5.128-45.473-4.066-72.133 3.599-90.37 4.74-11.278 6.355-21.687 5.654-36.428-.769-16.177-3.47-24.49-17.932-55.175-5.878-12.471-11.402-24.963-12.277-27.76-6.032-19.284-24.207-40.575-41.957-49.15-17.3-8.355-24.18-9.856-63.787-13.913-34.438-3.527-60.14 2.092-84.917 18.563-9.463 6.292-24.475 20.636-30.77 29.401l-3.951 5.502-8.87-4.66c-14.645-7.697-26.967-20.695-29.325-30.935-.713-3.099-.262-3.405 9.897-6.713 5.855-1.907 12.118-4.626 13.919-6.042 3.37-2.652 11.201-4.553 23.98-5.823 5.777-.574 7.308-1.184 7.308-2.908 0-4.03 21.13-10.194 80.716-23.55 17.478-3.917 37.784-8.863 45.124-10.99 14.947-4.33 37.656-12.894 41.345-15.592 2.22-1.623 1.719-1.984-6.12-4.405-18.496-5.713-37.724-8.2-84.798-10.967-37.428-2.2-59.015-4.593-74.576-8.269-6.857-1.62-12.52-2.2-16.668-1.709-11.123 1.318-17.608-2.424-19.83-11.44-1.674-6.794 1.747-23.646 6.887-33.924 5.084-10.167 16.003-25.548 25.874-36.45 12.15-13.417 30.225-24.64 39.832-24.732 11.673-.11 46.63 10.724 104.256 32.313 22.543 8.446 41.399 14.946 41.9 14.443.503-.502.9-3.888.881-7.525-.067-13.377-8.068-24.297-31.654-43.202-24.379-19.54-33.684-30.652-33.684-40.222 0-3.412.56-3.951 5.402-5.202 2.971-.768 6.546-1.724 7.944-2.125 1.399-.4 13.983-5.72 27.965-11.82 39.292-17.143 52.9-20.954 63.945-17.908 11.696 3.225 17.634 12.085 20.517 30.608 3.737 24.018 10.418 32.375 19.502 24.393 5.643-4.958 14.13-28.943 15.915-44.975.866-7.78.943-7.905 6.688-10.86 14.125-7.264 36.284-9.485 62.069-6.222 18.651 2.36 71.305 12.377 71.305 13.564 0 .455-8.568 12.784-19.041 27.399-27.214 37.976-33.784 51.895-26.14 55.377 5.092 2.32 18.591-2.783 31.198-11.794 28.972-20.71 62.396-28.588 81.005-19.094 6.012 3.066 12.448 10.365 14.426 16.357 1.158 3.509 2.865 4.861 10.713 8.487 14.486 6.693 20.112 11.186 26.799 21.399 3.322 5.075 8.002 11.68 10.399 14.678 4.937 6.175 4.878 9.087-.306 15.248-4.562 5.423-17.24 11.573-43.8 21.249-28.848 10.509-39.574 15.365-47.675 21.585-3.452 2.65-9.172 6.508-12.711 8.573-8.165 4.764-14.698 10.975-14.698 13.974 0 1.362 1.448 2.882 3.496 3.67 4.137 1.593 31.435 1.602 53.472.017 12.66-.91 16.795-.766 21.608.754 4.315 1.361 15.922 2.13 42.18 2.792 37.767.952 42.254 1.63 48.573 7.35 2.911 2.634 2.867 3.75-.18 4.547-3.213.84-5.699 9.203-9.72 32.702-3.675 21.468-5.057 39.243-3.257 41.868 3.226 4.703 7.235-4.828 14.937-35.51 5.812-23.157 5.391-10.337-.804 24.466-2.894 16.256-5.541 33.847-5.883 39.09l-.622 9.533 2.473-2.808c1.36-1.545 4.666-9.476 7.347-17.625s5.074-14.214 5.319-13.48c1.23 3.69-8.399 48.332-11.873 55.051-2.413 4.665-2.345 4.92 1.311 4.92 5.19 0 6.205 3.827 5.371 20.265-.48 9.483-2.371 22.35-5.333 36.3-6.138 28.914-8.96 46.113-7.762 47.312 3.211 3.21 9.639-16.395 14.03-42.795 3.915-23.526 5.726-27.742 5.765-13.415.028 10.263-1.703 38.25-3.38 54.657l-.909 8.898-1.348-7.542-1.349-7.542-4.025 8.813c-7.096 15.54-9.503 27.957-13.045 67.312-3.626 40.288-3.973 41.838-21.75 97.036-16.503 51.24-46.198 112.552-73.347 151.438-17.114 24.513-22.57 30.934-34.037 40.064-6.448 5.134-22.195 19.182-34.992 31.219s-27.733 25.197-33.192 29.244c-23.712 17.581-57.497 32.877-86.494 39.16-11.133 2.412-37.296 5.436-43.544 5.034-1.398-.09-7.92-.642-14.493-1.226zm63.432-107.874c37.858-.914 45.283-1.42 54.31-3.695 20.751-5.234 38.331-15.992 46.676-28.563 2.56-3.857 13.06-15.875 23.334-26.708s19.716-21.457 20.982-23.608c2.18-3.703 2.184-3.957.087-4.762-1.219-.467-4.829.184-8.023 1.448-7.128 2.822-7.458 2.83-32.274.75-50.607-4.243-88.912 1.216-118.325 16.863l-10.396 5.53-4.602-2.912c-9.17-5.804-19.733-8.49-33.418-8.498-15.331-.009-22.761 1.751-52.75 12.491-12.235 4.382-25.534 8.643-29.554 9.468-4.02.826-7.31 2.147-7.31 2.936s2.977 4.228 6.615 7.643c5.09 4.779 12.338 8.982 31.46 18.24 13.665 6.617 31.138 15.154 38.828 18.971 13.661 6.781 14.172 6.923 22.244 6.202 4.545-.406 27.997-1.214 52.116-1.796m110.195-296.846c-.398-2.453-2.017-6.276-3.596-8.495-2.651-3.723-2.682-3.953-.396-2.987 10.393 4.391 19.248 7.045 23.508 7.045 8.77 0 5.842-4.747-8.05-13.055l-7.358-4.4 6.722-.882c10.358-1.358 12.441-3.266 12.441-11.39v-6.788l11.758-.668c17.06-.967 20.513-3.058 11.44-6.925-2.964-1.263-10.776-2.365-20.656-2.914-11.73-.652-17.885-1.634-23.515-3.751-13.834-5.202-24.153-2.158-28.875 8.518-4.736 10.705-1.379 26.724 8.11 38.706 4.956 6.256 13.248 12.447 16.673 12.447 2.169 0 2.418-.618 1.794-4.46m-289.91-6.979c6.253-5.764 8.866-6.224 13.708-2.415 5.166 4.064 8.896 2.412 14.649-6.488 10.589-16.383 15.154-34.844 9.63-38.944-5.257-3.9-16.925.005-50.853 17.017-9.792 4.91-21.804 10.139-26.693 11.62-11.794 3.57-24.779 9.05-24.779 10.455 0 1.636 6.358 1.395 23.568-.891 19.694-2.617 38.02-2.984 40.207-.806 2.171 2.164.414 4.904-6.296 9.817-6.134 4.49-6.566 5.72-2.01 5.72 2.145 0 5.34-1.832 8.87-5.085m-5.867-53.867c18.932-6.65 46.363-22.176 47.995-27.166 1.001-3.064-6.18-1.597-20.108 4.107-17.316 7.092-22.09 7.848-64.307 10.183-18.77 1.038-35.843 2.364-37.94 2.947-8.667 2.408-4.108 7.128 11.409 11.811 6.46 1.95 11.235 2.245 30.538 1.889 20.84-.385 23.73-.721 32.413-3.77m341.293-17.361c17.722-1.668 38.741-6.354 57.484-12.817 16.194-5.583 30.858-11.906 30.858-13.304 0-2.263-23.265 1.216-46.73 6.987-32.156 7.909-43.052 9.52-58.577 8.66-9.28-.514-14.904-1.632-23.075-4.588-16.77-6.066-28.832-5.013-27.768 2.424.931 6.501 10.809 10.264 32.852 12.514 15.484 1.581 19.32 1.595 34.956.124m-315.157-43.02c-6.39-12.359-28.974-21.455-56.298-22.678-18.11-.81-28.065.745-38.503 6.015-6.255 3.157-17.529 13.363-16.214 14.678.266.266 3.885-.91 8.043-2.612 11.91-4.875 19.995-6.068 36.741-5.424 15.515.597 34.178 4.13 55.106 10.432 13.315 4.01 13.41 4.007 11.125-.411m240.547-6.994c34.416-27.666 73.175-42.64 97.5-37.669 8.724 1.783 15.055 4.699 28.75 13.242 9.657 6.024 20.177 9.131 20.177 5.96 0-2.698-11.704-14.073-18.952-18.418-8.064-4.834-13.886-6.933-21.15-7.622-2.762-.262-8.997-1.192-13.855-2.067-11.167-2.01-29.674-.895-43.313 2.61-10.626 2.732-27.605 10.206-35.814 15.766-11.585 7.846-23.369 22.22-26.382 32.18-1.525 5.043 3.855 3.4 13.039-3.982m-125.45-67.037c10.582-2.162 15.101-2.5 22.74-1.698 21.923 2.299 27.239.91 32.185-8.406 3.752-7.07 2.25-26.281-4.019-51.39-8.382-33.572-9.173-41.306-4.415-43.132 3.503-1.344 13.539 4.36 21.953 12.477 13.25 12.782 20.53 15.154 27.783 9.051 7.486-6.3 11.047-22.387 12.24-55.298.417-11.535 1.078-26.532 1.468-33.325.694-12.08.635-12.426-2.638-15.7-4.68-4.68-8.693-3.69-31.572 7.795-10.358 5.199-19.918 9.452-21.246 9.452-4.206 0-5.378-4.296-3.187-11.676 1.075-3.62 1.955-10.396 1.955-15.06 0-9.83-2.828-15.275-10.174-19.59-6.413-3.768-25.304-3.401-50.945.989-13.898 2.379-24.338 3.39-34.99 3.39-11.685 0-15.834.457-18.008 1.98-5.71 3.998-3.157 8.44 17.385 30.256 12.472 13.245 22.83 26.837 21.48 28.187-.353.353-5.445-.51-11.315-1.917-13.616-3.264-29.325-3.42-35.434-.35-7.135 3.584-10.199 9.386-10.17 19.253.013 4.615.748 11.18 1.632 14.59 1.452 5.6 1.33 7.009-1.263 14.617-3.207 9.409-3.706 18.258-1.297 23.038.962 1.91 3.68 3.9 6.81 4.99 4.606 1.601 6.22 1.565 13.951-.317 10.808-2.63 23.98-9.022 34.637-16.807l8.1-5.916 2.62 2.62c5.634 5.633 4.1 22.734-5.602 62.461-2.817 11.535-5.876 24.834-6.798 29.553l-1.675 8.58h7.302c4.016 0 13.245-1.214 20.508-2.697M64.796 847.984c-8.22-1.945-15.353-11.711-18.591-25.452-2.934-12.449-2.492-39.151 1.19-71.8 1.733-15.381 3.227-31.97 3.319-36.863.091-4.894.548-10.614 1.016-12.711.798-3.58 1.071-3.228 4.45 5.72 1.98 5.243 5.162 12.393 7.07 15.889 2.351 4.304 3.755 9.227 4.348 15.253.482 4.894 3.187 18.622 6.01 30.507 6.899 29.032 8.745 40.038 8.747 52.135.002 8.548-.515 11.106-3.21 15.889-1.767 3.135-3.825 7.273-4.573 9.196-1.418 3.64-2.654 3.923-9.776 2.237M44.648 660.831c-2.305-3.09-13.347-27.855-16.478-36.959-10.626-30.901-11.627-54.516-3.088-72.889 3.397-7.31 3.962-7.867 8.816-8.687 7.137-1.206 12.283.173 17.394 4.66 8.843 7.765 8.499 15.916-2.077 49.12-3.434 10.778-6.89 23.318-7.683 27.866-1.903 10.927-.88 23.679 2.516 31.355 2.7 6.103 2.984 8.728.6 5.534" style="fill:#ac9393;fill-opacity:1;stroke-width:1.27111" transform="translate(2.92 -2.876)"/><path d="M56.858 669.302c-3.16-3.806-5.539-24.307-5.587-48.137-.025-12.76.63-19.819 2.876-30.98.898-4.46 2.466-8.463 3.342-8.532 1.492-.118 3.707 8.306 4.911 18.677 1.501 12.933 1.818 19.063 1.818 35.216 0 15.778-.052 16.835-1.017 20.673-2.579 10.26-4.831 14.906-6.343 13.083M67.93 712.285c-1.16-1.281-2.352-4.471-3.904-10.442-.802-3.085-1.872-6.714-2.378-8.066-.817-2.185-.89-3.11-.652-8.356.387-8.567 2.13-15.046 4.048-15.046 1.68 0 4.238 4.774 5.673 10.589 1.449 5.874 1.93 11.048 1.741 18.76-.156 6.385-.304 7.563-1.21 9.605-.569 1.28-1.387 2.646-1.818 3.037-.717.648-.846.641-1.5-.08" style="fill:#ac9393;fill-opacity:1;stroke-width:.449405" transform="translate(2.92 -2.876)"/><path d="M357.702 946.58c-3.495-1.26-10.516-4.99-15.601-8.291-5.085-3.3-12.235-7.498-15.889-9.327-3.654-1.83-8.61-4.803-11.014-6.61l-4.37-3.282 3.359-.898c3.643-.975 43.714 1.732 63.217 4.27 37.22 4.844 84.289-1.424 136.645-18.196 6.768-2.167 12.556-3.69 12.863-3.384 1.155 1.156-11.35 16.257-17.552 21.195-21.59 17.19-41.89 22.276-96.632 24.213-18.38.65-36.849 1.501-41.044 1.892-5.593.52-9.32.1-13.982-1.581" style="fill:#d35f5f;fill-opacity:1;stroke-width:1.27111" transform="translate(2.92 -2.876)"/><path d="M390.115 914.912c-2.446-.238-9.882-1.053-16.524-1.81s-23.516-1.853-37.498-2.435c-32.226-1.34-37.964-3.176-30.824-9.862 7.268-6.806 31.053-13.348 48.823-13.428 10.571-.047 12.398.32 19.858 3.992 5.502 2.71 10.083 4.045 13.873 4.045 10.23 0 29.258-3.974 52.501-10.963 33.883-10.189 45.353-12.31 62.285-11.516 13.259.622 29.87 4.572 29.87 7.104 0 1.46-6.52 7.15-12.276 10.715-13.132 8.133-37.08 14.971-73.94 21.115-22.204 3.7-39.663 4.646-56.148 3.043" style="fill:#d35f5f;fill-opacity:1;stroke-width:1.27111" transform="translate(2.92 -2.876)"/><path d="M363.881 453.786c-2.474-2.981-.997-13.86 4.24-31.225 6.972-23.123 8.49-30.028 8.32-37.828-.088-4.013.744-11.014 1.85-15.558 4.007-16.48 1.96-24.151-6.449-24.151-5.597 0-14.177 4.313-34.722 17.455-13.457 8.608-25.55 15.601-26.96 15.59-.203-.001-.351-12.442-.33-27.646.034-23.726.351-28.224 2.238-31.737 4.088-7.613 11.162-8.714 22.393-3.486 8.108 3.774 27.966 7.487 33.995 6.355 5.652-1.06 6.795-5.32 3.053-11.375-1.501-2.429-10.124-12.568-19.162-22.53l-16.433-18.116 22.53-5.471c35.812-8.697 48.733-9.363 55.645-2.87 3.966 3.726 4.074 9.717.395 21.83-1.624 5.347-2.774 12.77-2.86 18.464-.24 15.89 1.94 15.677 29.727-2.915 8.738-5.847 18.02-11.517 20.623-12.6 4.599-1.912 4.792-1.883 6.706 1.038 5.994 9.148 8.622 52.09 4.102 67.029-2.884 9.533-6.415 13.864-11.3 13.864-3.107 0-6.096-2.182-15.714-11.47-6.532-6.308-13.898-12.314-16.368-13.346-14.767-6.17-21.976 2.756-20.81 25.763.527 10.41 1.39 14.339 5.37 24.476 11.535 29.371 12.309 42.227 3.17 52.636-6.093 6.939-12.14 8.643-29.133 8.21-8.058-.204-16.399.084-18.535.642-2.927.765-4.303.511-5.58-1.028" style="fill:#a40;fill-opacity:1;stroke-width:1.27111" transform="translate(2.92 -2.876)"/><path d="M783.914 360.669c-1.398-.321-10.55-3.218-20.337-6.438-16.498-5.426-18.862-5.874-32.414-6.142-8.685-.172-22.098-1.601-33.049-3.522-52.402-9.191-88.507-11.66-119.742-8.186-10.414 1.157-14.079 1.17-15.198.05-2.203-2.203 1.823-4.981 24.99-17.245 11.185-5.921 22.053-11.68 24.15-12.799 2.098-1.118 14.396-6.543 27.33-12.055 12.933-5.513 35.24-15.292 49.573-21.731 42.937-19.293 83.073-34.35 91.56-34.35 2.008 0 5.318 1.464 7.544 3.337 10.34 8.7 12.839 24.051 9.597 58.947-1.202 12.933-2.484 31.952-2.85 42.264l-.664 18.749-3.974-.148c-2.185-.08-5.117-.41-6.516-.731M501.093 215.623c0-1.489 12.387-22.183 20.204-33.751 9.588-14.192 28.142-36.883 54.196-66.284 12.39-13.982 27.679-31.585 33.973-39.119 9.552-11.431 11.89-13.566 14.138-12.905 9.075 2.668 26.09 19.04 37.32 35.913 11.306 16.984 15.464 29.638 11.45 34.848-1.711 2.222-18.656 10.211-72.686 34.272-37.123 16.532-67.182 31.22-85.031 41.55-11.151 6.453-13.564 7.427-13.564 5.476M365.293 164.609c-8.288-17.67-17.922-41.724-22.292-55.664-3.658-11.667-8.424-33.835-8.424-39.184 0-2.369-1.812-5.42-5.668-9.542-6.724-7.188-8.212-11.647-5.445-16.313 2.642-4.455 15.582-10.868 29.544-14.641 32.204-8.703 45.097-12.571 51.163-15.348l6.673-3.054-.004 7.874c-.008 15.846-5.106 38.41-24.321 107.656-6.305 22.72-12.143 43.849-12.974 46.95l-1.51 5.64zM261.489 243.317c-6.991-2.022-24.437-7.75-38.77-12.727-32.26-11.206-50.24-15.911-70.271-18.39-17.988-2.227-26.822-4.817-29.51-8.654-5.586-7.977.246-16.822 29.489-44.722l11.694-11.157 6.737 2.165c17.452 5.608 34.455 19.92 66.356 55.85 24.326 27.398 25.843 29.011 33.533 35.66 3.693 3.193 5.981 5.771 5.084 5.729-.897-.043-7.351-1.732-14.342-3.754M22.116 414.896c-8.064-4.916-9.52-11.015-10.955-45.903l-.608-14.8 4.077.182c4.013.179 4.077.092 4.066-5.538-.007-3.146-.446-7.293-.978-9.216-.844-3.054-.61-3.495 1.858-3.495 1.553 0 4.566-1.678 6.697-3.728 3.844-3.698 4.003-3.729 20.398-3.99 13.833-.22 19.978.38 37.726 3.68 50.656 9.42 125.11 17.95 157.39 18.034 14.171.037 14.845 1.52 2.798 6.166-14.837 5.722-27.807 9.278-63.32 17.361-17.398 3.96-40.428 9.447-51.177 12.192-14.136 3.61-19.992 4.618-21.168 3.642-3.436-2.852-9.446-3.644-14.918-1.966-2.961.908-8.244 2.329-11.74 3.158-3.495.829-8.514 2.925-11.152 4.659s-6.642 3.484-8.897 3.89-8.82 2.14-14.588 3.853c-11.262 3.344-11.909 4.15-8.548 10.65l1.94 3.75-7.342-.005c-5.125-.003-8.615-.781-11.559-2.576z" style="fill:#fc0;fill-opacity:1;stroke-width:1.27111" transform="translate(2.92 -2.876)"/><path d="M282.462 1282.423c-35.605-4.441-43.926-4.883-59.088-3.137-11.085 1.277-15.4 1.334-17.81.235-5.857-2.668-4-6.713 12.206-26.6 10.962-13.45 16.39-22.916 16.39-28.58 0-7.025 5.786-16.99 11.723-20.191 5.132-2.767 15.685-3.69 27.637-2.42 6.666.71 17.432 1.86 23.925 2.556 9.339 1.002 14.35.858 23.985-.693 37.047-5.961 44.512 13.78 22.704 60.042-5.096 10.81-5.965 11.91-11.713 14.822-11.8 5.98-25.253 7.047-49.96 3.966M453.485 1284.254c-6.691-5.875-9.293-15.827-10.881-41.619-.718-11.65-1.487-22.04-1.71-23.089-.338-1.584 1.657-1.927 11.783-2.03 6.704-.068 20.271-1.355 30.15-2.86 23.236-3.54 37.51-3.585 46.7-.147 13.629 5.1 22.769 20.048 22.952 37.538.08 7.73-.387 9.713-3.35 14.195-6.743 10.2-23.23 15.643-54.52 18.001-9.48.715-18.8 1.895-20.712 2.621-1.912.727-6.28 1.322-9.705 1.322-5.15 0-7.004-.68-10.707-3.932" style="fill:#000;fill-opacity:1;stroke-width:1.27111" transform="translate(2.92 -2.876)"/><path d="M379.41 1285.865c-12.906-.662-23.646-1.384-23.867-1.604-.564-.565 3.227-32.995 4.844-41.434 2.107-10.997 6-21.906 9.282-26.005l3.01-3.76 17.64-.408c20.939-.483 26.04.901 32.91 8.928 5.536 6.467 8.777 16.554 11.415 35.529 1.095 7.873 2.489 17.461 3.097 21.307s.84 7.266.516 7.602c-1.102 1.142-35.296 1.052-58.847-.155" style="fill:#fff;fill-opacity:1;stroke-width:1.27111" transform="translate(2.92 -2.876)"/><path d="M951.398 1138.125c-7.936-24.592 13.218-45.274 4.874-6.27 35.883-10.103 50.252-61.658 73.782-90.797 28.5-34.835 48.47-75.32 75.685-111.268 30.226-51.988 65.543-100.843 92.884-154.617 35.332-55.63 69.94-111.76 106.066-166.782 23.24-42.141 57.103-77.67 78.46-121.167 36.977-48.007 67.799-100.482 98.552-152.564 11.288-58.358-50.823 23.261-66.322 38.52-34.656 29.241-58.942 67.917-88.974 101.556-36.583 50.11-74.27 99.426-105.175 153.37-41.191 63.844-82.238 127.777-117.169 195.345-34.183 56.772-62.234 116.937-96.164 173.8-16.77 42.08-47.089 77.289-61.823 120.394-18.426 21.26 13.125-39.137 20.9-52.213 26.142-41.692 45.146-87.102 71.118-128.932 35.65-68.523 74.442-135.424 112.128-202.775 51.101-76.797 95.157-158.372 152.572-230.855 29.72-40.345 60.444-80.403 95.309-116.325 28.508-28.689 54.346-61.498 88.31-84.154 11.703 42.45-34.88 76.443-50.407 113.732-27.105 41.992-56.499 82.305-82.315 125.158-31.777 38.796-52.86 84.226-82.638 124.446-34.482 56.418-71.51 111.325-102.217 169.92-32.452 46.328-57.74 97.028-92.616 141.706-21.398 41.863-55.057 75.772-75.838 118.19-13.637 13.793-27.414 44.16-48.982 42.582m182.385-5.751c-.908-40.611 28.522-75.65 42.296-112.982 24.498-61.064 66.547-112.616 98.602-169.539 31.618-44.337 57.214-92.515 91.716-134.795 28.722-41.722 62.783-79.59 86.117-124.926 28.425-30.427 40.404-69.533 58.617-105.74 22.251-42.206 51.227-81.51 67.819-126.122 21.459-50.351 75.742-4.445 42.847 30.788-18.139 35.866-36.132 72.766-61.74 104.208-36.975 66.835-75.74 132.637-115.09 198.11-54.576 77.558-104.873 157.77-154.355 238.609-27.975 39.92-50.864 82.969-81.48 120.875-26.233 24.998-36.875 76.183-75.349 81.514m16.422-8.89c30.81-29.592 48.798-71.416 78.223-103.383 38.613-59.904 77.277-120.012 114.789-180.614 38.535-65.037 85.507-124.874 123.315-190.43 31.34-53.179 61.74-106.972 93.256-160 26.158-34.2 44.893-73.479 63.063-112.113 14.397-49.683-47.378-39.365-45.967.555-25.498 43.372-51.568 86.795-74.19 131.825-12.444 46.292-50.531 78.639-70.686 121.262-41.399 58.229-87.794 113.205-123.636 175.238-36.954 51.953-67.877 107.631-102.792 160.938-23.651 49.225-48.946 98.164-67.379 149.595-3.143 10.97 3.79 16.747 12.003 7.127m-371.074-11.528c6.882-41.965 21.161-81.796 32.6-122.555 34.748-75.543 67.59-152.102 110.396-223.643 62.809-117.18 134.533-229.967 218.603-333.12 54.105-72.08 116.34-138.74 187.508-194.162 18.234-11.287 84.03-70.432 55.363-20.184-30.65 44.549-68.076 84.692-99.525 128.976-57.465 71.954-112.93 145.503-167.429 219.739-47.03 65.323-96.244 129.134-138.214 197.898-43.881 70.156-84.394 142.43-120.709 216.82-27.72 40.797-40.094 90.381-68.249 130.096-2.103 1.335-15.122 17.185-10.344.135m12.374-5.898c32.102-72.838 71.774-142.367 107.68-213.652 32.494-55.919 63.934-112.477 100.336-166.004 47.479-72.577 101.533-140.694 151.78-211.433 49.927-65.559 99.69-131.345 150.804-196.03 25.287-37.768 61.498-68.417 81.15-109.548-23.278-1.564-71.226 46.847-98.87 68.915-62.854 54.48-115.307 119.655-164.918 186.132-96.964 123.005-173.427 260.404-245.663 398.897-21.668 52.852-51.918 102.316-66.655 157.723-9.134 26.218-12.854 31.269 3.982 10.588-6.114 17.202-36.467 72.529-19.626 74.412m90.293-30.793c9.073-30.176 31.545-60.853 44.576-91.774 34.3-57.414 63.843-117.585 98.3-174.87 33.426-50.29 65.024-101.867 103.177-148.878 12.74-14.345 49.271-60.975 55.708-48.269-20.04 42.359-48.898 79.933-72.236 120.563-43.018 72.036-89.147 142.216-126.983 217.172-30.324 39.642-47.717 92.261-93.954 117.277-2.752.303-6.755 14.215-8.588 8.779m32.74-29.444c29.636-35.351 52.941-75.843 75.322-115.877 49.058-89.83 105.374-175.448 157.636-263.322 13.011-12.194 48.372-80.876 14.054-38.808-31.26 27.4-53.152 64.11-78.547 97.029-31.654 50.766-67.638 99.009-92.789 153.554-35.003 59.625-68.378 120.27-98.615 182.263 7.114.363 16.765-10.3 22.94-14.84m262.193-149.03c1.24-39.469 33.077-75.019 55.863-106.282 38.824-55.271 83.249-106.516 120.575-162.784 10.524-19.716 56.436-75.935 57.313-64.565-34.734 26.556-53.547 67.192-79.546 101.412-41.536 56.742-86.873 110.94-126.08 169.175-11.23 12.197-39.682 82.7-5.838 45.717 46.861-52.132 79.629-114.898 116.614-174.02 28.889-40.938 56.371-83.22 85.977-123.585 11.69-18.258 39.547-50.48 13.33-12.59-30.812 34.143-49.017 77.25-80.18 111.301-44.739 70.742-83.08 146.94-140.815 208.424-4.853 2.99-10.285 13.496-17.213 7.797m11.734-357.221c30.238-50.487 64.991-98.306 97.479-147.286 9.328-16.607 59.604-49.272 19.674-16.866-37.394 38.272-59.67 88.276-93.059 129.95-12.6 18.234-21.258 40.536 1.506 13.497 32.233-40.629 78.562-69.55 102.806-116.449 13.766-15.292 46.577-80.362 23.852-28.444-24.074 36.18-47.762 72.166-80.935 100.998-26.104 17.848-42.827 56.075-71.323 64.6" style="fill:#000;stroke-width:1.33333" transform="matrix(.78343 0 0 .77285 -565.894 56.133)"/><path d="M1301.987 384.212c7.01-4.177 13.638-9.03 19.619-14.588 2.85-2.65 5.55-5.58 8.227-8.401 2.12-1.987 4.623-6.044 7.322-7.456.39-.204.867-.173 1.307-.195.525-.027 1.134-.233 1.578.05.348.222-.819.115-1.228.173 1.348-.076 12.16-.126 5.277-.105-.023-.104 1.025.132.94.067-.355-.27-.86-.302-1.201-.589-.98-.82-1.187-1.304-1.709-2.236-1.338 3.317-2.387 6.741-3.63 10.097-1.092 3.425-2.926 6.423-5.05 9.285-1.036 1.673-2.277 3.205-3.405 4.812-.396.565-.73 1.173-1.144 1.725-.544.725-3.328 3.86-3.595 4.165-3.907 4.717-1.93 2.285-5.925 7.299-.437.727 9.852 6.896 10.288 6.169 3.722-5.283 1.988-2.688 5.226-7.77.564-.909 2.307-3.743 3.041-4.83 1.52-2.25 3.604-4.103 4.808-6.58 2.151-3.612 4.486-7.157 5.897-11.147 1.562-4.18 2.986-8.466 3.474-12.922-.111-.952.012-1.962-.334-2.856-.964-2.488-1.835-2.997-4.018-3.918-.321-.136-.904.21-1.223-.032-.94.001-1.88.01-2.82.003-.148 0-.59-.027-.443-.026.86.008 1.723.137 2.577.047.338-.036-.664-.142-.996-.214-2.022-.44-.756-.192-3.113-.605-3.918.016-5.484-.397-8.895.792-5.068 1.766-8.892 5.713-12.703 9.299-1.274 1.213-2.52 2.46-3.824 3.641-7.199 6.52-15.131 12.235-21.829 19.303-.533.53 6.971 8.073 7.504 7.543zM1391.137 586.805c.587-.453 1.207-.865 1.76-1.359 5.807-5.195 10.904-12.152 15.34-18.505 3.277-4.867 6.92-9.068 11.68-12.52.498-.36 3.905-2.494 4.529-2.886 2.375-1.383 3.94-1.968 5.298-4.601.226-.44.243-.957.365-1.436-.017.111.058.358-.052.333-3.255-.75-6.353-2.315-9.683-2.576-.672-.052-.716 1.143-1.033 1.738-1.419 2.665-2.272 5.51-3.22 8.363-.92 3.848-3.155 7.088-5.226 10.385-.347.71 9.7 5.622 10.047 4.911 2.293-3.973 4.675-7.95 5.788-12.451.756-2.414 1.318-4.882 2.159-7.265.159-.451.9-1.058.514-1.339-2.604-1.892-5.567-3.277-8.546-4.499-.285-.117-.168.594-.251.891.446-1.433.032-.407 1.417-2.307.048-.065.187-.232.107-.217-1.441.265-3.17 1.265-4.528 1.652-2.221 1.133-3.782 1.86-5.923 3.292-5.704 3.816-10.266 8.985-14.236 14.532-4.563 6.7-9.204 13.353-14.2 19.742-.432.558 7.46 6.68 7.894 6.122zM963.22 1098.9c1.73-6.013 2.13-12.279 2.832-18.463.511-4.508.27-1.594.452-3.945l-11.847 2.342c-.683-.602-1.346-2.384-2.049-1.805-1.122.923-.638 2.835-.933 4.258-1.7 8.215-2.8 16.462-3.878 24.779-.888 8.248-1.467 16.55-1.412 24.852.01 1.48.029 2.963.18 4.434.063.606-.147 1.7.458 1.769 4.726.538 9.512-.061 14.268-.092 1.5-5.723.781-2.629 2.071-9.304.111-1.141-16.032-2.715-16.143-1.573-.313 7.058-.404 3.821.059 9.714 4.666.88 9.254 2.421 13.998 2.64.714.033.686-1.268.889-1.954.427-1.451.721-2.94.992-4.428 1.476-8.093 2.02-16.31 2.854-24.482.64-8.354.844-9.961 1.173-18.082.028-.687.378-10.396.11-12.058-.383-2.383.41-6.154-1.85-7.001-3.964-1.487-8.402 1.054-12.603 1.581-.446.888-.99 1.732-1.339 2.663-2.664 7.124-2.523 15.646-2.697 23.146-.071 1.02 14.344 2.028 14.415 1.009z" style="fill:#000" transform="matrix(.78343 0 0 .77285 -565.894 56.133)"/><path d="M185.902 929.766c.537-1.888 1.39-14.168 1.897-27.287l.92-23.853 12.953-21.913c7.124-12.052 16.817-29.853 21.54-39.558s11.937-23.435 16.031-30.511c4.095-7.076 19.88-36.076 35.08-64.443 15.199-28.368 33.977-62.693 41.73-76.277s19.217-34.18 25.477-45.766c15.578-28.834 45.476-78.594 75.482-125.623 13.784-21.605 29.838-47.127 35.676-56.716 40.233-66.084 129.034-183.586 169.094-223.745 9.565-9.59 25.817-26.751 36.115-38.137 24.983-27.625 37.782-37.875 43.148-34.56.844.523 1.535 4.637 1.535 9.144 0 7.962-.592 9.182-20.95 43.138-26.245 43.774-47.126 76.05-65.298 100.927-7.768 10.634-15.99 23.022-18.272 27.527-5.333 10.53-17.802 29.455-39.693 60.24-9.61 13.514-21.53 31.196-26.489 39.292s-17.843 28.451-28.632 45.232c-39.193 60.963-86.592 136.786-91.123 145.767-9.35 18.536-70.108 117.382-93.03 151.35-6.202 9.19-19.624 29.784-29.827 45.766s-24.925 37.558-32.716 47.946c-7.79 10.388-19.253 27.714-25.473 38.501-18.994 32.947-31.589 49.199-42.761 55.178-3.18 1.702-3.33 1.601-2.414-1.619" style="fill:maroon;stroke-width:1.45289" transform="matrix(.78343 0 0 .77285 44.504 206.368)"/><path d="M360.666 931.902c-4.665-4.665 9.327-40.225 45.356-115.263 15.277-31.818 24.613-48.979 40.314-74.098a33088 33088 0 0 0 37.587-60.295c9.435-15.183 24.163-38.066 32.73-50.851 8.566-12.786 20.65-31.42 26.853-41.408 14.096-22.698 30.365-45.663 70.422-99.405 33.348-44.742 36.85-49.763 47.994-68.834 3.874-6.63 14.483-22.648 23.576-35.596 9.093-12.949 19.065-27.75 22.16-32.89 6.221-10.335 15.217-30.11 15.245-33.513.029-3.428 26.65-52.49 51.72-95.319 17.079-29.178 23.162-40.851 24.017-46.093 1.642-10.055 7.429-19.08 15.125-23.591 18.354-10.756 32.672-2.252 30.808 18.299-.589 6.494-3.671 13.92-16.048 38.651-17.552 35.073-26.202 50.221-40.959 71.73-5.756 8.391-20.922 33.235-33.702 55.21-88.833 152.747-82.651 142.635-131.909 215.755-17.764 26.37-49.267 75.079-70.007 108.241-52.883 84.559-103.933 163.326-112.526 173.62-4.002 4.795-15.69 21.14-25.975 36.323-31.236 46.115-47.6 64.508-52.781 59.327" style="fill:red;stroke-width:1.45289" transform="matrix(.78343 0 0 .77285 44.504 206.368)"/><path d="M9.78 909.612c-1.456-1.455-1.695-3.04-1.286-8.524.587-7.872 4.64-19.197 16.205-45.263 4.387-9.889 7.77-18.197 7.516-18.464s-2.726 2.045-5.495 5.137-5.056 5.213-5.08 4.713 1.52-5.354 3.434-10.787c1.913-5.433 5.43-16.12 7.816-23.748 7.33-23.437 14.225-39.797 37.233-88.352 7.363-15.54 15.903-34.031 18.978-41.094 10.613-24.381 60.63-117.631 95.506-178.058 46.579-80.705 92.988-151.618 137.954-210.795 7.728-10.17 21.609-28.432 30.845-40.58 47.915-63.023 90.293-111.858 126.808-146.13 19.215-18.034 70.715-62.3 84.265-72.429 16.244-12.142 30.64-19.787 37.26-19.787 1.776 0-2.08 7.748-9.691 19.474-7.901 12.173-15.448 21.91-36.642 47.277-10.138 12.134-22.363 27.39-27.167 33.903-4.803 6.512-15.974 21.087-24.823 32.388-43.656 55.752-123.86 160.9-145.362 190.574-8.394 11.583-28.915 39.553-45.601 62.155-69.6 94.27-107.116 149.626-145.175 214.202-28.412 48.209-47.808 82.587-61.443 108.9a15113 15113 0 0 1-30.82 59.072c-20.654 39.34-43.608 85.248-54.45 108.9-4.663 10.17-8.595 18.63-8.738 18.798s-1.065-.499-2.048-1.482M114.057 864.387c0-1.04 27.556-54.59 40.354-78.422 13.082-24.36 36.383-66.015 48.56-86.811 4.633-7.911 11.94-21.412 16.24-30.001 12.815-25.6 23.518-43.259 64.636-106.637 22.53-34.73 60.786-87.849 74.727-103.763 10.731-12.249 37.368-38.894 37.747-37.757 1.156 3.469-14.137 32.34-24.176 45.64-3.125 4.14-12.349 18.568-20.497 32.062-8.148 13.495-27.657 45.394-43.353 70.888-48.806 79.273-68.649 112.792-100.722 170.148-29.317 52.428-57.672 95.546-73.048 111.082-8.417 8.505-20.468 16.495-20.468 13.57M421.784 333.673c1.64-5.52 9.497-18.471 19.218-31.68 5.765-7.832 19.67-28.47 30.902-45.859 30.196-46.755 44.935-66.284 50.188-66.497 4.277-.173 13.697-7.207 25.845-19.302 6.119-6.092 11.541-10.819 12.05-10.505 1.35.835-2.562 10.41-6.692 16.378-1.964 2.838-5.892 7.934-8.728 11.324l-5.156 6.165 2.517 2.23 2.516 2.231-3.578 4.96c-1.967 2.73-6.227 9.225-9.466 14.437-10.331 16.625-22.308 30.382-50.504 58.014-15.014 14.714-30.455 30.282-34.312 34.595-22.905 25.614-26.415 28.94-24.8 23.51M405.441 694.832c-2.754-2.754 2.27-20.574 10.655-37.797 7.336-15.066 30.286-47.479 73.472-103.765 48.333-62.996 68.073-89.726 86.551-117.201 23.245-34.564 31.115-44.67 34.164-43.874 2.691.704 9.26-5.361 16.093-14.86 3.893-5.41 6.494-7.811 6.494-5.993 0 .234-7.545 10.983-16.766 23.885s-25.483 36.173-36.138 51.712c-10.655 15.538-24.99 36.342-31.854 46.23-13.037 18.779-16.134 23.707-45.522 72.429-28.435 47.143-46.405 73.925-66.545 99.173-16.377 20.53-28.361 32.303-30.604 30.06M186.272 930.494c.353-.92 1.195-12.892 1.87-26.605l1.23-24.932 12.222-21.07c6.722-11.587 16.195-28.928 21.052-38.533s13.56-26.018 19.34-36.471c5.78-10.454 21.141-38.654 34.135-62.669 28.97-53.54 75.882-137.9 88.92-159.905 25.588-43.183 84.634-137.52 109.142-174.376 35.214-52.953 86.159-120.759 123.209-163.984 6.053-7.063 21.942-24.4 35.307-38.526 48.361-51.113 57.733-60.065 64.726-61.82 3.324-.834 4.242.982 4.261 8.427.02 8.06-2.471 13.219-22.04 45.627-25.393 42.055-39.236 63.345-70.444 108.343-5.055 7.289-10.993 16.535-13.195 20.547-5.16 9.401-17.142 27.523-36.067 54.553-18.821 26.881-18.87 26.957-62.583 95.779-57.77 90.952-77.826 123.308-91.557 147.703-29.45 52.322-115.089 186.25-154.981 242.373-5.59 7.865-15.418 23.016-21.839 33.668-13.958 23.157-22.367 35.161-30.45 43.466-6.526 6.705-13.42 11.431-12.258 8.405" style="fill:red;stroke-width:1.02735" transform="matrix(.78343 0 0 .77285 44.504 206.368)"/></svg>