<svg xmlns="http://www.w3.org/2000/svg" width="772.816" height="1448.137"><path d="M606.833 1565.75c-45.27-9.679-91.563-21.135-139.851-12.187-49.543-11.85-109.484.979-155.841 2.756 4.503-8.301-14.36-9.527 12.726-11.288 28.454-23.319 84.071-97.86 27.133-44.958 48.035-38.052 34.266-110.163 33.791-164.54-12.878-49.808-84.676-67.285-118.413-109.797 16.639-15.216 61.449 51.954 25.517 7.147-37.356-20.18-51.973-105.374-77.249-104.292-62.862 27.363-40.906-90.027-37.623-127.591 10.917-58.562-46.818-105.198-28.32-165.912 17.877-30.152 56.73-16.134 32.87-63.055 1.09-63.925-20.006-132.254 14.35-191.245 16.898-52.983 53.462-85.614 96.135-110.657 76.312-87.628 137.792-186.588 192.537-289.134 11.387-25.15 24.507-98.111 48.503-34.257 12.39 61.657 58.331 106.357 99.77 150.24 41.558 51.885 77.157 107.627 121.2 156.12 39.317 25.407 59.302 57.337 82.407 104.9 21.45 36.556 31.31 62.037 27.941 119.183 5.418 38.503-21.993 90.623 32.85 68.906 51.9 47.034-11.199 116.21-7.752 172.411.14 47.507 43.671 151.13-39.053 144.742-40.874-48.972-37.575 64.794-60.799 89.758-14.772 40.965-50.751 101.49-68.012 122.974 23.728-14.059 64.697-55.144 17.966-9.624-22.34 37.35-99.56 35.094-90.616 85.56-4.68 48.244 6.206 95.739 22.962 137.835 1.656 41.186 96.954 82.461 19.003 70.813-27.015-14.337-56.096 19.447-84.132 5.192m27.466-4.11c27.288-17.575 94.096 4.944 47.402-34.912-37.413-57.704-46.42-126.98-44.155-194.436-57.721 10.195-117.59 33.676-175.804 21.334-15.882-17.464-101.563-59.334-53.362-4.094 16.536 17.184 80.21 62.228 27.034 33.966-22.543-21.58-55.95-47.666-30.713-1.547 2.008 28.379 93.022 53.403 27.496 40.4-16.707-11.673-46.73-49.61-35.883-23.177-3.79 19.02 92.24 74.994 25.952 46.02-21.948-20.499-38.178-49.034-22.966-2.34 8.666 31.774 87.065 76.986 21.648 49.22-29.967 6.253-40.315-43.846-9.2-8.693 12 6.62-30.588-66.316-27.48-8.936-7.292 34.804-95.82 83.39-18.288 74.128 63.703-8.15 130.686-6.137 194.834 3.038 25.223-2.386 49.208 12.545 73.485 10.03M391 1536.81c-36.41-3.307-42.114-37.242-6-8.534 15.54-.895 33.466 9.994 6 8.535m14.909-9.792c-35.826-.875-33.067-68.09-12.128-14.83 8.146 7.596 42.477 13.845 12.128 14.83m12.435-7.06c-32.736-3.712-47.38-66.866-12.009-15.784 7.452 7.31 40.033 15.325 12.009 15.785M550 1340.487c69.887-8.125 145.14-33.907 182.191-98.217 16.869-19.289 61.655-114.8 24.855-51.443-13.16 31.833-43.638 51.37-11.972 10.322 18.14-29.073 59.292-90.286 48.394-98.984-36.961 49.838-61.097 108.495-87.996 163.483-52.042 44.276-125.503 49.578-189.946 64.16-49.135-38.146-122.48-15.105-160.122-76.783-43.357-32.185-64.898-79.395-90.2-123.616-17.825-29.572-23.074-91.555-40.78-104.577 9.793 19.288 12.431 71.837-1.06 22.283-22.8-40.595 46.283 122.759.105 33.343-4.452 7.384 34.956 105.592 47.357 100.178 18.637 46.29 65.245 84.384 103.31 117.398 32.39 15.07 78.644 42.844 125.076 42.38 15.483 1.03 34.287 3.538 50.788.074zm-20.348-21.401c56.136-15.963 120.742-18.665 166.96-57.415 33.409-67.315 64.737-139.244 114-197.94 21.39-43.975 13.114-72.955 24.576-130.097-1.913-21.927 16.893-87.181 15.007-35.133 10.37-30.036 9.208-132.323-1.654-53.64-4.48 40.095-18.877 48.425-6.116 1.514 5.453-22.6 18.44-85.562-2.009-67.136 13.86-26.35 22.718-105.927 4.085-33.006-21.336 37.27 13.818-65.85 8.426-87.936 1.423-18.136-17.845 80.744-21.29 48.454-1.046-.866 11.112-98.121 18.204-59.637 1.845-51.278-32.564-103.235-60.742-146.66-47.683-44.437-118.46-50.137-180.647-60.14-93.06-7.67-185.18 16.506-270.219 52.563-52.288 28.964-121.502 54.69-134.344 120.382-10.199 34.065-31.645 97.112 3.269 110.083 32.076 38.548-18.552 21.62 8.842 59.297-11.938 14.985-33.438-53.843-19.305-5.738 12.172 15.248 36.643 113.658 35.804 65.748-5.555-29.027 50.084-13.199 36.459-53.96 37.726 15.743 7.38-25.217 39.933-16.057 24.387 13.088-3.427-29.568 20.865-13.112-14.91-35.219 40.166 11 44.218-21.11 20.325 8.999 19.354 14.535 27.86-5.409 22.069 40.687 8.059 28.056 15.002 0 15.176 43.705 29.694 15.426 34.773 2.218 26.219 29.932 19.374 73.152 35.219 106.745-13.935 45.773-31.028 117.88.036 154.098-49.698-6.856-84.794 34.907-78.408 93.976 5.15 8.155 69.011-74.078 95.51-20.962 41.065 60.033 67.863-44.77 117.279-29.033 24.692 1.809 48.567 67.622 38.347 5.546 11.532-57.432-62.412-44.647-67.842-62.27 6.642-17.975 7.307-96.054 1.38-30.423-12.361-.952-.437-86.703-28.107-110.38-.314-28.546 41.408-129.916 42.45-78.434-19.307 90.352 15.76-91.047 22.117-11.581 8.475-31.172 16.528 11.198 28.084-28.5 19.247-6.752 20.564 6.697 39.639 1.693-35.079 44.822 58.005-51.355 22.835 6.258-11.654 16.68 53.733-26.817 40.554.777 39.554-23.984 18.225 14.754 56.685 1.408 17.743 3.943-22.182 62.21 7.563 13.734 9.89 5.98-20.062 38.13-23.385 17.81-21.026-15.052-40.12 18.055-37.79-7.724-29.978 35.567-34.743 12.161-23.573 4.112-26.234 27.881-5.68-22.036-42.916 12.538 20.993-41.151-30.316 13.301-26.056-7.77-23.476-4-4.492 47.39-22.506 10.84-6.554-8.963-41.09 13.807-28.476 3.824 7.012-28.011-5.267-61.039.371-25.392-9.26 47.345-69.21 76.415-29.448 124.892 34.454 35.115-23.132 114.778 43.081 107.635 38.941 8.595 53.564 68.535 30.248 96.865-23.6-7.467-23.53 12.497-52.547-4.97 23.626 50.19-21.013-27.285-22.127 20.47 10.565-54.914-40.042 36.168-10.992-20-31.13 23.605-57.928 29.433-88.638-2.604 13.835 54.11-38.706-18.227-26.622 29.534-19.703-48.606-34.427 30.4-36.805 17.823 25.155-50.337-45.205 9.047-26.57-44.753-24.57-29.299 63.897-101.06 13.801-72.804 27.715-20.958 65.422-12.166 46.466-57.077-4.018-40.96 15.154-74.537 8.123-113.61-19.878-37.382-39.006-47-70.477-60.886-13.873 10.469-54.765-7.95-62.907 16.548-7.892 13.044-31.65 6.19-55.031 20.27-24.684 28.558-34.086 42.583-47.155 71.964-12.84-19.723-40.188-71.608-21.362-24.902 11.388 23.484 33.035 87.702 2.559 31.35 7.012 14.85 28.743 71.767 7.015 41.963 21.584 56.066-.441 16.02 1.356 33.402 24.16 58.25 24.996 127.075 65.609 176.83 19.258 56.395 65.917 100.129 114.965 138.462 41.053 18.29 87.595 17.698 126.49 36.575m81.04-56.944c-32.424-24.22-84.743-22.977-115.81 3.283 18.48-21.634 109.383-31.892 50.118-61.598-51.788-9.242-108.74-33.163-152.638 13.004 20.607 47.78-56.012-22.759-9.408.09 24.63-17.937 91.175-28.23 52.715-59.419 34.599-27.268 101.655-19.276 65.695 20.38 19.656-66.002-95.695 3.418-23.364 0 61.669 32.133 122.252-2.798 183.314-16.886 26.32-2.83 33.716 33 48.602 21.898-16.966 14.963-42.201 45.488-18.31 9.84-13.277-45.571-105.007-15.129-72.364 26.248-6.41 26.63-75.31 13.024-13.974 29.273 14.563-1.32 21.126 31.532 5.424 13.885zm-16.438-36.115c50.11-11.552-24.896-70.872-24.355-13.526-3.18 21.626 10.905 14.439 24.355 13.526M419 1120.657l8.213-8.77c8.647-5.865-24.63 32.07-8.213 8.77m25-9.688c7.595-39.246 6.43 24.813 0 1.815zm-97.358-170.66c-42.936-5.527-127.03-20.29-58.353-67.132 27.524-34.064 82.474-81.924 119.116-32.632 13.734 31.098 82.622 32.53 30.717 57.737-23.804 24.265-56.139 44.484-91.48 42.027M349 931c-49.85-.13-19.064-107.283-63.557-40.627-47.777 33.26 46.95 34.462 63.557 40.627m25.337-2.587c43.454-11.785 94.249-52.975 28.926-79.633-23.162-10.764 24.743 67.81-25.113 74.569l-9.813 6.268zm-7.95-9.302c35.491-4.14 37.35-77.535 2.235-30.08-59.746 18.886-11.57-66.57-11.106-32.031-43.277 43.222 62.25 14.632 19.672-23.19-67.02-19.254-77.345 97.693-10.801 85.3M707 921.977c-44.578-16.358-123.588-37.86-60.591-89.422 36.672-62.098 111.212-48.61 159.198-7.582 58.223 27.15-40.486 71.731-68.742 92.009-9.344 3.726-19.654 7.985-29.865 4.995m18.54-9.99c43.771-14.376-52.123 8.881-56.41-26.63-31.3-19.732 28.094-91.473-19.476-42.601-61.178 45.662 46.013 64.145 75.886 69.23m.96-12.434c32.265 5.806 63.603-99.867 47.505-31.29-57.044 63.283 91.088-35.287 13.912-43.806-22.027-15.432-73.488-40.133-37.383 1.288 14.075 68.12-99.248 41.05-44.721-1.972 48.477 5.684-41.823 17.084 10.68 38.354 71.562-30.322-32.078-94.425-41.803-22.221-24.914 32.681 22.306 64.904 51.81 59.647M508.698 778.27c-16.296-11.426-37.384-104.09-4.722-35.77-.313 8.646 23.079 39.661 4.722 35.77M538 774.59c-4.888-32.908 71.714-110.854 26.514-41.802-8.439 10.777-16.754 40.895-26.514 41.801m-25.025-91.517c-28.09-27.177-66.382-28.643-100.482-38.44-61.222-50.053 35.387-120.798 83.007-135.65 56.132-17.55 132.628-11.233 167.989 41.654-.34 64.278-49.384 124.473-116.811 130.363-11.235.845-22.353 3.718-33.703 2.073m24.525-10.097c66.45 1.513 130.626-66.422 110.588-127.452-29.532-32.752-86.175-41.6-123.023-32.847-53.411 2.713-156.624 68.181-108.92 123.877 19.289 12.29 45.923-2.4 63.34 16.271 21.675 6.868 31.663 31.469 58.015 20.151m29.592-48.521c-65.373-33.706 63.204-92.527 44.302-18.206-7.388 17.968-26.858 22.247-44.302 18.206m-.107-10.205c-14.774-16.062 37.878-54.323-5.735-23.294-6.04 4.294-3.687 25.128 5.735 23.294m19.034-1.26c21.785-22.342-31.71 2.199 0 0m18.473-18.282c-4.901-25.21-40.73 7.637 0 0M819 556.5c4.688-5.688.773 4.898 0 0m-126.272 737.483c42.046-37.523-26.745 14.926 0 0m-485.236-163.084c23.004-30.505-2.376-95.379-10.34-127.899-17.636-76.396-17.699 48.088-18.742 69.084-.392 18.235-.12 66.22 29.082 58.815M486 1095.456c-2.274-30.49-18.94-7.254 0 0m-34.5-5.701c-6.995-2.298-20.878 12.026 0 0m102.539-4.84c40.686-45.988-13.014 7.885-13.622 7.847l5.339-1.817zm1.004 4.252c5.538-6.806-10.492 6.378 0 0m-131.757-6.883c.626-7.756-4.57 10.62 0 0m34.964-4.946c-5.507-1.623-1 1.75 0 0M625.5 1071c-4.905-3.27-6.899 4.166 0 0m-143.25-1.85c-4.491-11.737-23.314 11.157 0 0m-28.75-3.286c11.073-9.065-19.219 9.498 0 0m7.628-2.614c3.733-4.566-6.735 5.433 0 0m12.372-.25c14.838-5.97-20.031 3.884 0 0m115.52-4.524c3.592-6.727-8.55 6.182 0 0m287.613-6.61c43.488-45.845-14.839-114.355 12.927-167.444 8.023-41.384 41.895-95.279 2.095-128.45-30.326-19.502-38.402 67.175-6.203 26.002 34.452 45.49-5.627 108.783-32.575 148.628-9.108 29.637-42.11 136.614 23.756 121.265M216 1024.56c-1.777-6.787-3.092 5.406 0 0m-9.873-38.123c3.461-30.303-11.378-57.792-11.872-15.188 3.866.323 5.745 34.19 11.872 15.188m630.877-7.734c5.77-42.964-11.38 46.366 0 0m-639.134-46.72c3.35-23.04-5.74-117.857-13-42.642.045 7.83.207 101.38 13 42.641m-18.004 4.67c-24.578-40.808 49.847-114.266-15.52-117.829-29.118 24.29 3.434 121.448 15.52 117.83m674.57-12.825c2.752-9.733-9.648 15.765 0 0m7.548-15.246c33.067-94.154-37.663 56.56 0 0m-646.987 7.912c-8.5-27.843-2.731 12.513 0 0m648.939-37.367c33.355-39.122-9.46-29.668 0 0m8.706-36.373c43.48 8.71-.043-101.108-8.722-25.868 4.698 8.155-11.465 47.739 8.722 25.868M481 845.882c-3.47-1.724-1.65 4.669 0 0m-234.638-9.452c-18.91-14.521-3.298 23.08 0 0m331.94-10.18c-5.079-1.907-6.4 13.206 0 0M275 821.582c-1.704-8.505-5.413 2.835 0 0m192.584-10.087c-13.158-22.068 5.587 13.463 2.267 9.359zm123.907-11.106c5.363-34.697-13.023 46.772 0 0m-310.889 1.445c-7.502-16.41-12.367 5.16 0 0M306 780.56c-2.334-3.435-2.88 1.906 0 0m23 .048c-.456-2.685-5.913.896 0 0m315.74-14.201c-6.931 5.359-3.91 21.367 0 0m6.228 5.722c-2.164-3.125-3.665 8.828 0 0m-238.903-1.378c-13.998-24.586-13.05-13.153 1.314 2.942zm441.88-5c1.521-36.456-12.595 18.416 0 0M394.6 768.836c-4.403-11.865-7.973 1.801 0 0m345.516-10.735c12.067-29.116-28.318 34.499 0 0M705.5 767c3.174-7.176-6.626 7.386 0 0m48.1-3.733c-8.322 2.61-6.288 8.427 0 0m-61.954-2.885c7.067-19.056-22.055 20.567 0 0m86.007 2.065c6.847-18.047-19.841 16.116 0 0m-109.365-2.2c4.232-11.904-11.607 12.39 0 0m-22.73-.43c-.163-9.86-7.95 10.158 0 0m28.635 1.433c8.011-11.143-8.446 5.333 0 0m-285.627-2.356c-4.66-13.056-7.675 1.509 0 0m335.33-2.429c11.577-13.342-20.256 13.083 0 0m85.578.585c4.757-12.33-9.067 10.49 0 0M760.5 756c-3.446-4.759-5.966 5.709 0 0m46.09-2.743c-7.166 2.213.628 2.969 0 0m-91.56-1.313c.487-7.256-6.402 8.144 0 0m85.955-1.22c-4.204-13.067-8.07 13.642 0 0m-135.958-.825c2.365-16.835-9.113 15.225 0 0m55.144 2.446c6.293-9.095-8.179 5.409 0 0m-41.528-6.642c23.474-35.557-18.4 18.152 0 0M728 748.43c-5.237.888-5.472 4.805 0 0m64.95-3.36c2.318-13.415-17.649 11.717 0 0m-90.248-1.26c11.077-16.9-22.923 14.319 0 0m-510.368-1.383c-4.777-5.498-.806 9.568 0 0m581.108-3.355c29.728-30.616-34.743 22.516 0 0M209 743.96c-6.271-18.462-20.251-10.968 0 0m517.547-4.103c13.394-12.58-23.767 14.357 0 0m-60.921 2.378c9.76-23.538-5.463-9.139 0 0m69.911-5.735c21.352-23.035-26.256 23.243 0 0m26.59 3.75c3.734-4.566-6.734 5.433 0 0m48.873.25c-6.315-5.615-1.71 4.2 0 0m-136.5-.5c-1.21-3.656-2.466 3.562 0 0m69.694-4.003c37.444-33.428-26.966 17.159 0 0m-39.411-3.616c-1.219-7.487-11.168 18.652 0 0m46.579 4.119c-.866-5.282-2.374 5.247 0 0m16.21-3.095c16.174-9.994-17.418 8.186 0 0m-573.268-9.281c-13.04-18.16 5.684 21.92 0 0m521.59 4.431c23.721-25.709-19.531-.65 0 0M250.126 511.352c18-35.445-53.704 70.86-13.14 16.61l4.752-6.219zm26.451 4.095c105.513-61.804 230.603-93.898 352.87-81.78 35.417 1.66 131.312 19.871 116.594 23.441-43.016-43.654-73.267-97.572-112.664-145.388-39.63-46.424-90.408-88.16-105.072-150.22-19.89-69.562-35.025 46.706-59.43 67.434-43.45 74.76-88.077 148.592-143.39 214.998-5.265 28.332-53.576 53.35-58.486 77.597Zm208.434-102.814c-19.903-42.36-48.447-127.515 22.333-134.573 90.688-31.944 114.725 111.66 25.87 126.89-15.654-1.581-35.867 21.598-48.203 7.683m17.126-7.602c88.338 5.784 111.388-142.907 7.935-118.403-68.304 5.374-25.63 84.5-15.511 121.372Zm2.083-23.281c-44.425-51.58 29.794-104.087 51.534-37.005.878 24.521-32.197 36.997-51.534 37.005m13.354-11.14c80.217-12.944-37.555-90.213-12.234-15.991 3.21 4.907-.117 26.771 12.234 15.99M826 1073.57c5.472-4.805 5.237-.888 0 0" style="fill:#000" transform="translate(-145.019 -121.202)"/><path d="M524.81 1316.367c-11.998-5.435-28.29-10.027-58.422-16.468-32.963-7.045-54.002-13.035-61.887-17.62-3.786-2.201-22.8-17.618-34.192-27.722-27.53-24.418-48.144-47.86-62.631-71.224-5.5-8.869-15.604-29.31-17.466-35.331-.612-1.978-2.636-5.618-4.499-8.09-9.144-12.134-18.7-29.86-24.711-45.839-5.312-14.12-8.97-26.54-17.154-58.235-8.381-32.461-12.08-45.196-17.039-58.65-1.813-4.922-3.51-10.122-3.77-11.557-.436-2.406-.307-2.557 1.672-1.95 6.057 1.861 6.19 1.831 6.18-1.404-.003-1.664-1.411-7.07-3.127-12.014s-3.127-9.314-3.138-9.713c-.01-.398.88-.095 1.98.674 1.098.77 2.57 1.4 3.271 1.4 2.177 0 .637-8.73-3.9-22.104-2.287-6.742-3.995-12.421-3.796-12.62.2-.2 1.488 1.263 2.865 3.249s3.111 3.611 3.855 3.611c3.527 0-2.077-19.388-13.9-48.086-8.513-20.667-8.596-20.89-8.214-22.038.185-.554 5.153 7.009 11.041 16.807s11.688 19.396 12.89 21.33l2.184 3.514 6.466-13.03c3.557-7.166 9.512-17.646 13.234-23.288 8.655-13.12 20.268-27.786 22.002-27.786.742 0 1.07-.44.735-.983-.334-.54 1.147-2.77 3.29-4.954 5.202-5.3 14.218-8.727 32.887-12.5 17.233-3.484 21.302-5.37 24.555-11.38 3.157-5.835 4.836-7.463 10.165-9.862 4.418-1.989 5.681-2.098 24.878-2.143 16.914-.04 20.783-.294 23.644-1.558l3.42-1.51 9.163 4.1c5.04 2.256 13.405 6.593 18.59 9.638 15.34 9.008 31.886 26.864 40.384 43.579 4.872 9.584 4.36 28.076-1.725 62.174-4.049 22.69-5.826 40.031-4.967 48.457.332 3.257 1.624 9.157 2.872 13.112 2.667 8.452 3.059 16.736.977 20.672-3.27 6.186-8.205 9.418-23.989 15.706-9.664 3.85-19.41 8.607-23.878 11.655-3.584 2.444-.896 2.39 3.129-.063 1.72-1.05 4.653-2.446 6.516-3.103 3-1.058 3.388-1.031 3.388.236 0 .787-4.389 7.746-9.752 15.464-18.177 26.157-22.87 36.092-22.985 48.646-.057 6.262.267 8.178 1.788 10.582 1.846 2.92 1.847 2.974.181 9.43-2.062 7.995-1.539 13.026 1.669 16.035 2.12 1.989 2.853 2.119 10.075 1.792 18.678-.847 20.215-.736 21.355 1.54 1.269 2.535.307 7.55-2.726 14.204-1.293 2.837-1.811 5.07-1.35 5.816.411.666.995.964 1.297.662s2.803-5.74 5.557-12.083c2.754-6.344 6.008-13.12 7.232-15.058 7.042-11.156 13.221-10.239 20.046 2.973 2.932 5.678 3.045 5.519 1.673-2.36-.851-4.886-.784-6.025.47-7.938.805-1.229 1.996-2.234 2.646-2.234s5.318 2.023 10.372 4.494c9.484 4.638 13.45 5.458 15.346 3.172 1.344-1.619 1.596-6.547.657-12.87l-.706-4.755 6.343 5.326c15.065 12.65 31.417 17.2 47.243 13.149 6.713-1.719 18.442-7.263 25.491-12.05 2.961-2.011 5.613-3.656 5.893-3.656s-1.137 3.272-3.147 7.27c-2.011 4-3.532 7.875-3.381 8.614.167.817 2.822-1.667 6.778-6.342 6.97-8.236 11.53-11.538 12.984-9.402.456.67.567 4.808.248 9.297-.644 9.074.182 9.878 1.387 1.35 1.669-11.806 7.274-12.056 20.159-.9 3.425 2.966 6.56 5.393 6.965 5.393 1.458 0 .693-3.738-1.965-9.6-1.488-3.28-2.56-6.107-2.385-6.283s2.707.745 5.625 2.046c7.568 3.372 14.428 3.739 23.297 1.245 5.947-1.673 8.493-1.926 14.864-1.477l7.689.542 2.814-4.697c5.807-9.692 6.963-14.81 6.946-30.762-.015-13.891-.116-14.671-2.96-22.92-5.742-16.652-15.633-29.243-27.599-35.134-5.63-2.772-7.089-3.08-16.996-3.59-12.41-.637-17.066-2.124-21.124-6.745-5.695-6.487-6.637-17.289-4.032-46.25 2.618-29.099-.016-41.548-11.874-56.134-8.79-10.811-13.76-24.573-12.434-34.427 1.647-12.245 5.418-20.217 20.384-43.104 17.471-26.718 21.915-36.779 21.73-49.202-.086-5.846.03-6.518.623-3.595 1.018 5.019.993 19.633-.044 25.965-.477 2.911-1.55 6.048-2.386 6.972-2.553 2.82-.787 2.83 5.653.028 9.028-3.928 13.698-5.215 18.709-5.155 4.362.052 4.524.152 6.63 4.098 3.924 7.35 6.565 11.005 7.37 10.201.432-.432 1.19-4.349 1.685-8.704 1.238-10.892 3.834-14.98 9.515-14.98 1.505 0 2.194.582 2.399 2.023.222 1.563.968 2.088 3.288 2.31 2.33.223 4.841-.805 11.235-4.602 11.313-6.718 14.035-8.028 15.506-7.463 1.831.702 1.555 3.032-1.015 8.553-1.246 2.675-2.137 5.249-1.98 5.718.156.47 2.491-1.03 5.188-3.333 2.698-2.302 7.03-5.226 9.627-6.497 4.402-2.153 4.869-2.214 6.87-.903 1.181.774 3.035 2.843 4.12 4.598 1.626 2.632 2.502 3.192 4.992 3.192 1.66 0 3.27-.404 3.575-.899 1.033-1.672 2.247-.912 2.247 1.408 0 4.095 1.531 5.783 5.248 5.783 4.428 0 10.192-3.678 17.69-11.287 5.393-5.474 5.824-5.736 5.824-3.545 0 3.534 1.584 5.844 4.008 5.844 1.181 0 5.313-1.296 9.181-2.88 11.953-4.894 23.343-3.58 25.621 2.956 1.779 5.103 6.369 5.753 12.622 1.788 8.073-5.12 14.755-16.307 12.385-20.736-1.31-2.449-2.031-2.274-3.94.958-2.087 3.533-2.75 2.86-1.525-1.551 1.58-5.692 1.23-11.48-.808-13.323-1.844-1.67-2.025-1.662-12.154.449-7.568 1.577-10.867.484-17.36-5.748-5.688-5.46-5.778-5.505-10.933-5.476-4.1.023-6.541.697-11.569 3.193-6.096 3.026-6.35 3.076-5.869 1.158.277-1.102.237-2.842-.088-3.866-.49-1.542-1.33-1.863-4.884-1.863-4.709 0-8.795 1.257-24.436 7.515-5.733 2.293-11.317 4.17-12.409 4.17h-1.986l2.365-3.82c3.547-5.731 7.622-14.395 7.623-16.207.001-2.243-2.237-2.852-5.508-1.497-2.597 1.076-13.6 9.016-26.627 19.214-3.091 2.42-5.819 4.202-6.061 3.96-.243-.243 1.174-2.606 3.149-5.253 1.974-2.646 3.59-5.05 3.59-5.34 0-.292-2.933-.395-6.517-.231-5.2.238-7.865-.167-13.19-2.005-7.321-2.527-10.771-2.803-16.627-1.328-3.485.877-3.987 1.352-4.992 4.719-1.34 4.482-4.197 10.335-6.106 12.506-1.59 1.81-4.958 2.016-9.13.562-4.067-1.418-6.938.11-9.045 4.815-1.861 4.158-2.214 3.784-3.17-3.354-1.292-9.641-4.288-12.657-8.26-8.314-2.826 3.091-4.743 7.291-8.923 19.549-3.646 10.691-3.833 11.027-3.876 6.937-.025-2.364-.631-5.701-1.348-7.415-3.122-7.474-9.96-1.32-19.005 17.106-10.136 20.649-19.752 49.211-21.935 65.15-1.004 7.34-.989 7.462 1.228 9.79 10.303 10.818 15.234 29.802 18.559 71.46 1.976 24.753 2.805 30.603 4.917 34.688 2.562 4.953 3.753 3.456 4.454-5.596.354-4.572.97-9.931 1.368-11.909.651-3.233.735-2.952.828 2.793.159 9.844-1.64 29.493-3.604 39.349l-1.77 8.885 2.065 2.247c2.941 3.202 7.409 4.977 22.897 9.095 25.356 6.742 35.04 12.303 40.684 23.368 2.74 5.37 4.028 14.092 3.075 20.825-.556 3.932-.473 8.097.258 12.98 1.189 7.934 1.53 17.81.645 18.693-1.109 1.109-3.755-1.192-10.272-8.931-13.905-16.513-19.392-20.769-29.888-23.184-10.472-2.41-17.708-1.487-27.545 3.51-7.217 3.666-12.648 7.936-27.077 21.29-15.388 14.243-18.597 16.816-24.99 20.04-7.13 3.596-13.078 3.96-19.162 1.175-5.351-2.45-13.27-9.939-16.892-15.973-6.741-11.236-12.438-16.305-20.303-18.065-11.848-2.651-27.43 3.5-47.422 18.718-6.352 4.836-12.52 9.32-13.707 9.965-1.186.645-2.157 1.496-2.157 1.892 0 .867-10.261 8.17-11.48 8.17-2.03 0-2.556-13.866-1.006-26.514 3.472-28.33 17.934-50.991 39.001-61.112 9.772-4.694 16.515-6.168 28.537-6.238 5.808-.034 10.56-.109 10.56-.167.001-.058-1.778-2.76-3.953-6.003-8.117-12.104-12.106-26.783-12.88-47.392-.912-24.307 3.092-50.52 13.34-87.329l3.674-13.199-2.763-7.474c-3.423-9.255-5.601-18.088-8.606-34.887-4.84-27.06-8.534-40.033-14.591-51.232-3.235-5.982-8.4-13.405-9.361-13.455-.296-.015-2.01 2.953-3.811 6.596-9.023 18.256-18.289 18.645-26.585 1.119-1.898-4.011-3.767-8.102-4.153-9.09-.99-2.538-3.008 7.998-3.1 16.178l-.07 6.292-5.9-11.685c-3.244-6.426-6.058-11.848-6.252-12.048s-1.222 1.62-2.284 4.045c-2.93 6.69-5.096 9.351-7.607 9.351-1.212 0-5.846-1.828-10.296-4.064-7.202-3.617-8.149-3.889-8.605-2.471-1.577 4.896-2.6 6.766-4.537 8.289-3.997 3.144-8.365 3.138-22.849-.032-17.373-3.802-18.384-3.562-18.264 4.339.077 5.04-.059 5.46-1.514 4.682-.879-.47-2.838-.856-4.354-.856-3.15 0-3.084-.25-2.78 10.555.252 9.025-.281 9.426-8.834 6.642-12.046-3.92-17.25-2.04-18.995 6.865-1.355 6.913-2.63 9.99-4.567 11.026-2.538 1.359-7.291 1.02-12.93-.92l-5.185-1.783.6 2.008c1.299 4.339 1.595 13.077.551 16.239-1.608 4.873-7.87 9.795-17.829 14.014-18.334 7.766-19.416 8.967-19.773 21.928-.295 10.713-.766 13.504-2.138 12.657-1.725-1.067-6.638-12.75-14.513-34.516-9.688-26.775-12.705-34.386-15.884-40.063-2.346-4.191-5.435-12.863-5.397-15.153.01-.528 1.61 1.77 3.557 5.107 4.665 7.993 8.02 12.196 10.988 13.77 3.027 1.603 4.417 1.616 6.54.063 1.623-1.186 1.618-1.298-.162-3.82-3.85-5.457-6.558-12-6.558-15.85 0-4.164 1.072-6.177 6.449-12.12 2.926-3.233 3.438-4.41 3.438-7.893 0-5.06-1.54-8.842-6.448-15.84-2.61-3.72-5.097-6.087-7.894-7.515-10.457-5.338-15.319-16.305-15.319-34.564 0-16.704 3.808-33.826 18.594-83.61 9.02-30.368 33.854-56.347 77.13-80.683 20.925-11.768 55.938-29.623 66.867-34.102 52.992-21.711 106.892-36.855 156.037-43.84 26.924-3.827 37.31-4.512 67.411-4.446 31.326.068 34.567.417 87.634 9.425 48.897 8.3 81.334 19.401 107.05 36.634 15.802 10.59 18.154 13.08 30.26 32.05 16.777 26.29 22.04 35.735 20.422 36.64-.737.413-1.34 1.337-1.34 2.054 0 1.852 2.496 1.621 2.91-.27.423-1.93 9.122 15.009 14.596 28.42 7.286 17.852 11.55 34.224 12.67 48.653.531 6.836.455 7.46-.73 5.921-1.802-2.343-4.046-1.305-5.692 2.635-2.193 5.25-5.55 20.618-7.948 36.385-3.982 26.188-4.13 35.053-.584 35.053 2.995 0 6.575-9.77 13.995-38.2 2.322-8.897 4.437-16.38 4.7-16.627.904-.853-.536 18.447-1.978 26.515-.796 4.449-4.023 19.819-7.171 34.155-6.188 28.175-6.978 32.847-5.86 34.656.599.968.982.97 2.136.014 2.94-2.441 5.16-7.45 8.177-18.459 1.716-6.26 3.898-13.077 4.85-15.146l1.73-3.762.077 3.281c.192 8.35-5.826 36.016-10.757 49.45-4.362 11.886-4.282 11.342-1.334 9.024 3.115-2.45 4.247-2.482 6.334-.175 4.728 5.224 1.685 31.398-8.933 76.837-3.914 16.75-3.948 26.142-.082 22.933 3.278-2.72 6.603-14.709 9.353-33.719 1.943-13.426 4.233-25.2 5.209-26.78 1.387-2.244 1.959 3.495 1.997 20.039.042 18.61-.723 29.392-3.221 45.39-1.576 10.087-2.611 10.32-2.878.646-.128-4.627-2.235-6.038-4.619-3.094-4.03 4.977-9.552 28.943-10.768 46.733-.449 6.56-1 12.227-1.226 12.593-.903 1.46-4.248 28.063-6.407 50.946-2.603 27.595-5.226 41.976-10.202 55.924-4.402 12.337-6.626 16.71-11.344 22.306-11.18 13.257-27.004 36.251-41.17 59.823-12.9 21.468-23.615 41.827-47.844 90.912l-20.672 41.88-6.247 4.66c-24.634 18.376-50.839 28.027-111.048 40.898-13.1 2.8-29.36 6.476-36.132 8.169-6.772 1.692-12.636 3.049-13.032 3.014s-2.54-.888-4.765-1.896zm95.122-51.434c.427-3.734-2.095-9.634-5.551-12.984-2.283-2.213-4.657-3.294-10.1-4.598-8.93-2.14-22.148-6.262-23.167-7.225-.423-.4 1.6-1.197 4.495-1.77 20.138-3.986 29.882-8.848 33.13-16.53.982-2.322.796-3.063-1.89-7.523-8.595-14.274-2.638-28.902 15.416-37.86 2.957-1.467 7.855-3.31 10.884-4.095 7.12-1.845 20.12-1.845 26.431 0 9.214 2.695 16.942 9.155 20.157 16.85 1.313 3.14 1.295 3.193-3.608 11.002-5.15 8.204-5.628 9.37-3.84 9.37 1.01 0 26.814-24.705 27.55-26.377.183-.42-.495-.318-1.509.224-1.013.543-2.81.986-3.994.986-2.723 0-9.594-4.516-13.311-8.75-7.738-8.813-16.066-14.074-23.933-15.117-5.27-.7-12.932 1.215-48.806 12.19-41.852 12.803-58.729 16.573-79.065 17.661-18.11.97-37.361-2.433-52.61-9.3-6.045-2.722-8.623-3.342-16.179-3.89-12.378-.9-15.729-2.467-15.729-7.357 0-6.107 15.227-16.568 27.99-19.229 15.886-3.312 23.314 5.283 19.302 22.333-.67 2.842-.9 5.168-.512 5.168.862 0 6.413-7.538 8.272-11.235 7.17-14.256-1.9-24.302-22.934-25.4-16.938-.884-35.769 4.294-48.1 13.227l-3.819 2.766 3.105 2.726c5.106 4.483 8.607 10.499 8.607 14.79 0 7.21-8.76 15.36-20.673 19.231-3.213 1.045-8.673 3.502-12.134 5.46-3.46 1.96-10.74 5.768-16.178 8.463-5.438 2.696-10.96 5.606-12.272 6.467-2.292 1.505-2.57 1.49-7.086-.387-5.743-2.387-10.752-2.613-10.752-.487 0 4.063 9.997 14.237 18.004 18.322 4.276 2.181 9.443 2.364 10.212.361.932-2.428.553-6.027-1.157-10.976l-1.643-4.758 5.493-4.932c5.428-4.873 7.031-5.778 25.909-14.61 13.097-6.129 17.084-6.899 35.31-6.817 17.613.078 22.158.735 59.321 8.58 21.093 4.454 27.002 6.03 30.976 8.261 8.662 4.864 14.414 11.186 14.414 15.84 0 2.821-5.913 8.736-12.306 12.312-3.163 1.769-13.604 6.59-23.201 10.714s-18.78 8.174-20.407 9c-4.477 2.276-14.383 9.477-13.816 10.044.274.274 2.932-1.208 5.907-3.295 22.561-15.826 56.555-20.691 84.025-12.026 9.795 3.09 19.74 8.22 26.595 13.723 6.283 5.042 8.327 5.382 8.777 1.457M420.248 1123.51c6.483-7.505 8.65-10.68 8.203-12.02-.67-2.011-14.194 13.462-14.194 16.242 0 1.961 1.664.788 5.991-4.222m28.5-8.426c.872-4.356.663-16.797-.291-17.387-2.062-1.274-5.21 11.395-4.187 16.847.818 4.365 3.645 4.706 4.479.54m-81.013-175.59c21.711-3.786 41.397-14.347 64.049-34.362 4.449-3.93 10.3-8.327 13.004-9.77 2.704-1.441 6.647-4.271 8.764-6.287 3.134-2.987 3.848-4.264 3.848-6.89 0-4.428-4.624-8.3-20.026-16.766-15.305-8.414-22.383-14.068-27.728-22.152-19.071-28.843-48.304-31.82-82.218-8.376-9.108 6.296-24.702 20.555-32.713 29.911-3.708 4.33-9.445 9.88-12.75 12.331-7.104 5.269-15.382 13.969-17.697 18.599-5.924 11.847-1.07 20.873 15.573 28.952 12.873 6.25 28.15 10.174 58.916 15.136 7.848 1.265 20.68 1.121 28.978-.326m361.003-19.02c3.975-1.309 11.73-5.309 19.324-9.965 43.887-26.91 53.132-33.241 63.472-43.458 10.837-10.71 14.656-20.181 11.34-28.12-1.626-3.89-7.167-9.22-12.298-11.826-2.255-1.146-6.32-3.892-9.033-6.102-12.845-10.463-29.364-19.483-45.638-24.921-26.748-8.937-53.766-8.226-74.07 1.948-11.938 5.983-24.885 17.498-32.714 29.098-2.002 2.966-5.816 7.4-8.474 9.855-27.878 25.74-23.346 46.878 13.96 65.104 11.889 5.808 48.705 19.798 55.358 21.035 3.944.733 11.932-.393 18.773-2.647M514.929 777.686c1.943-2.34.476-8.619-4.739-20.289-2.743-6.14-5.397-12.68-5.897-14.534-1.98-7.341-13.344-25.84-15.873-25.84-7.021 0 7.132 48.207 17.372 59.168 2.943 3.151 7.187 3.845 9.137 1.495m29.23-6.88c1.904-2.107 6.142-9.467 9.703-16.853 3.477-7.211 9.26-17.805 12.85-23.542 10.676-17.056 14.08-24.754 11.372-25.716-1.555-.552-10.22 7.855-16.914 16.408-14.279 18.25-23.776 38.123-23.776 49.754 0 4.956 2.258 4.939 6.766-.051m-1.53-88.864c8.243-1.004 18.367-2.624 22.496-3.6 22.818-5.395 46.731-19.585 62.68-37.195 20.433-22.56 32.488-49.534 35.472-79.37l1.099-10.988-3.871-5.19c-26.122-35.03-77.2-51.631-134.692-43.777-19.658 2.685-36.244 7.737-52.598 16.02-32.87 16.648-61.996 42.084-73.7 64.36-5.241 9.976-7.089 17.631-6.684 27.698.312 7.768.706 9.473 3.592 15.551 2.172 4.573 5.205 8.908 9.186 13.128 6.804 7.213 5.663 6.766 32.916 12.878 23.753 5.327 36.87 9.288 47.405 14.317 9.46 4.516 20.794 11.802 24.51 15.758 1.914 2.037 2.77 2.235 9.65 2.235 4.153 0 14.295-.821 22.539-1.825" style="fill:#0f0;stroke-width:.89881" transform="translate(-145.019 -121.202)"/><path d="M621.882 1560.954c-3.708-.344-13.617-2.271-22.021-4.282-19.809-4.74-24.572-5.554-32.488-5.554-3.598 0-12.725-.79-20.283-1.753-36.806-4.695-75.148-6.78-110.812-6.026-27.667.585-38.276 1.278-65.614 4.281-24.902 2.736-34.69 1.668-35.33-3.856-.57-4.912 2.977-9.648 24.894-33.24 11.779-12.68 18.891-21.952 21.949-28.615 1.309-2.852 2.027-6.83 2.435-13.493.694-11.308 2.012-14.708 5.847-15.085 3.773-.371 9.03 4.34 15.146 13.573 9.478 14.307 10.253 19.493 1.686 11.284-8.935-8.562-14.606-10.255-14.606-4.36 0 3.59 2.674 8.698 6.438 12.3 4.427 4.236 10.17 6.524 16.432 6.547 4.104.015 7.541.882 14.83 3.741 10.474 4.108 17.116 5.41 17.145 3.362.009-.683-7.02-8.117-15.62-16.52-16.476-16.1-22.838-23.176-27.474-30.556-4.4-7.008-11.922-32.1-10.152-33.87.999-.999 5.275 2.99 17.512 16.34l9.476 10.335 9.75 3.818c12.967 5.078 14.693 5.44 14.693 3.091 0-1.26-5.516-6.55-17.8-17.072-24.815-21.255-29.133-26.351-32.002-37.77-.787-3.13-1.43-6.102-1.43-6.605 0-1.799 5.407 2.613 19.81 16.163 8.042 7.566 15.672 14.29 16.955 14.944 2.54 1.293 17.915 4.107 22.443 4.107 1.545 0 2.81-.375 2.81-.834s-2.326-2.202-5.168-3.875c-24.091-14.18-29.747-17.873-35.535-23.206-5.652-5.209-10.53-12.148-10.53-14.981 0-.498-1.863-4.839-4.14-9.647-4.787-10.104-5.93-15.408-3.52-16.332 3.42-1.313 15.632 6.77 30.13 19.942 5.707 5.185 9.895 8.047 16.55 11.31 4.899 2.402 9.651 4.367 10.56 4.367 4.404 0 .095-4.587-19.47-20.724a1391 1391 0 0 1-16.927-14.255c-16.146-13.851-28.238-32.398-22.546-34.582 2.95-1.132 8.828-.47 15.497 1.748 13.875 4.613 37.773 17.883 46.651 25.904 3.315 2.995 4.424 3.4 12.946 4.725 6.079.946 15.104 1.45 25.948 1.451 25.725 0 42.766-2.567 91.586-13.801 15.027-3.458 31.205-7.071 35.952-8.03 4.748-.959 9.542-1.956 10.654-2.217l2.022-.473v21.008c0 65.092 12.01 117.476 37.098 161.803 4.249 7.509 7.184 11.419 12.195 16.245 7.342 7.07 11.356 13.028 10.53 15.63-1.096 3.455-4.067 4.028-33.308 6.43-12.085.992-19.678 2.569-25.997 5.399-4.885 2.188-7.78 2.511-15.797 1.766m-219.76-24.105c1.818-.386 2.785-1.188 2.967-2.46.216-1.505-.64-2.277-4.235-3.824-2.477-1.066-7.033-2.202-10.123-2.525-4.746-.496-6.632-1.275-12.142-5.014-6.798-4.612-13.837-7.346-16.63-6.46-3.06.972-2.048 5.423 2.19 9.633 8.244 8.192 26.051 13.186 37.974 10.65m15.105-10.597c.893-.25 1.472-.925 1.288-1.5-.37-1.159-2.48-2.288-15.044-8.053l-8.539-3.918-4.756-9.597c-5.03-10.151-8.063-13.43-10.528-11.384-1.975 1.64-1.702 9.758.53 15.72 3.554 9.501 10.83 16.613 19.403 18.965 4.009 1.1 13.318.977 17.646-.233m9.153-6.481c1.503-.322 2.815-1.248 2.98-2.105.222-1.156-2.337-2.848-10.494-6.937-10.428-5.228-10.965-5.64-16.111-12.395-6.446-8.46-13.2-14.847-15.28-14.45-3.862.735-1.391 10.022 5.142 19.325 9.075 12.922 21.74 19.135 33.763 16.562" style="fill:#ffd5d5;stroke-width:.89881" transform="translate(-145.019 -121.202)"/><path d="M514.923 1341.17c-.741-.175-8.426-.716-17.077-1.202-33.121-1.862-53.832-8.412-103.45-32.716l-21.035-10.304-17.527-15.422c-21.59-19-43.916-40.877-54.304-53.216-9.996-11.874-20.89-28.194-26.335-39.45-3.603-7.448-4.643-8.885-6.737-9.304-5.16-1.031-17.617-22.14-29.462-49.922-6.16-14.449-13.891-36.993-14.814-43.2-.558-3.76-.19-3.307 5.21 6.402 6.984 12.555 8.655 15.168 9.7 15.168 2.285 0 .456-6.372-12.611-43.943-4.022-11.563-7.13-21.207-6.906-21.43.726-.726 3.395 5.302 5.936 13.406 2.664 8.497 4.943 12.801 6.327 11.946 2.182-1.349.23-21.619-3.23-33.518-.776-2.667-1.22-5.04-.987-5.274.65-.649 4.713 6.68 7.643 13.784 2.636 6.393 6.352 18.547 14.113 46.154 4.397 15.644 8.467 27.025 12.557 35.115 5.133 10.155 31.531 56.559 38.057 66.9 14.485 22.954 30.73 42.2 47.282 56.015 4.437 3.703 9.632 8.996 11.544 11.761s6.168 7.792 9.46 11.171c15.544 15.96 33.572 24.144 71.596 32.504 41.294 9.08 54.8 13.711 69.995 24.005l5.28 3.578 32.92-6.471c18.104-3.56 39.187-7.846 46.85-9.525 45.698-10.015 79.42-23.835 103.832-42.553l7.05-5.405 7.614-15.968c35.637-74.738 44.469-91.936 60.682-118.156 9.123-14.756 18.646-28.587 19.683-28.588 1.29 0 .663 7.837-1.012 12.666-2.717 7.83-8.324 19.278-15.749 32.155-9.402 16.306-30.049 49.074-37.166 58.986-8.59 11.963-11.082 17.53-7.846 17.53 4.037 0 15.827-14.587 22.928-28.368 6.012-11.668 13.744-24.239 14.153-23.011.43 1.29-12.272 27.418-20.173 41.493-7.407 13.194-24.2 38.546-31.745 47.926-22.962 28.543-59.02 50.79-104.275 64.338-27.056 8.099-65.275 14.545-85.166 14.364-6.301-.057-12.063-.247-12.805-.422M859.617 1052.616c-8.067-2.04-14.334-6.662-17.534-12.934-8.733-17.12-5.958-50.297 8.268-98.856 2.283-7.79 3.894-11.163 9.232-19.324 21.604-33.033 33.68-58.878 37.823-80.952 2.083-11.101 1.916-26.696-.382-35.566-1.828-7.055-6.594-17.476-9.81-21.446l-1.816-2.242-3.754 4.265c-2.332 2.649-4.501 4.265-5.725 4.265-1.084 0-2.909.657-4.056 1.46-1.961 1.375-2.2 1.346-4.02-.476-1.684-1.687-1.934-2.951-1.934-9.775 0-19.514 11.431-31.683 23.823-25.361 4.532 2.312 12.143 11.457 15.499 18.624 8.033 17.155 6.346 36.05-6.899 77.283-2.733 8.506-6.165 19.83-7.628 25.166s-4 13.341-5.639 17.79l-2.978 8.09.058 17.976c.054 16.958.249 18.968 3.443 35.503 5.942 30.767 6.886 37.57 6.922 49.884.038 13.186-1.751 22.033-6.294 31.124-3.343 6.69-9.002 13.99-11.32 14.602-2.942.777-13.341 1.39-15.28.9" style="fill:#ffd5d5;stroke-width:.89881" transform="translate(-145.019 -121.202)"/><path d="M863.035 847.662c-.33-.859.098-7.07.95-13.8s1.305-13.832 1.005-15.779c-.622-4.048 1.482-15.002 3.942-20.52 1.364-3.062 2.304-3.892 5.5-4.858 3.567-1.08 4.005-1.024 5.896.752 5.49 5.157 10.468 19.267 10.616 30.089.171 12.483-4.433 18.791-13.82 18.938-4.113.064-5.422.503-7.64 2.56-4.102 3.803-5.74 4.468-6.449 2.618M195.331 1129.672c-6.986-3.173-11.115-10.279-14.467-24.896-1.401-6.11-1.613-10.959-1.506-34.522.221-48.856 3.012-84.961 6.988-90.398 2.854-3.904 5.493 3.94 21.335 63.434 6.131 23.025 8.152 35.544 8.268 51.232.114 15.267-.914 20.965-5.458 30.245-3.376 6.894-7.7 8.293-15.16 4.905M175.28 933.173c-9.162-10.436-19.296-42.273-21.71-68.21-1.702-18.296 1.284-34.177 7.876-41.878 3.226-3.77 3.307-3.803 7.907-3.262 10.108 1.188 17.423 5.406 20.278 11.693 3.426 7.545 1.892 17.906-6.468 43.697-5.87 18.104-7.876 26.553-8.577 36.111-.607 8.267.61 17.114 2.986 21.71 1.943 3.757.939 3.818-2.291.14" style="fill:#ffd5d5;stroke-width:.89881" transform="translate(-145.019 -121.202)"/><path d="M189.626 949.052c-1.694-3.166-2.77-13.277-3.743-35.19-.844-18.98-.779-23.572.469-33.256 2.182-16.935 3.978-21.537 6.267-16.058 3.156 7.552 6.379 47.03 5.054 61.897-.725 8.14-2.937 17.632-5.07 21.756-1.533 2.964-1.805 3.042-2.977.851M201.781 991.313c-1.317-2.133-6.238-20.099-6.583-24.042-.48-5.477 1.08-14.681 2.778-16.379 1.898-1.897 4.671 2.344 6.344 9.702 1.887 8.295 1.91 25.195.04 28.812-1.455 2.813-1.842 3.1-2.579 1.907" style="fill:#ffd5d5;stroke-width:.89881" transform="translate(-145.019 -121.202)"/><path d="M374.258 926.465c1.236-1.003 4.472-2.48 7.19-3.283 7.353-2.17 11.138-4.35 14.626-8.425 6.767-7.907 7.63-19.996 3.262-45.713-3.955-23.282-3.709-23.622 11.609-16.015 8.826 4.383 18.522 12.768 20.952 18.118 5.099 11.224-1.232 25.17-16.717 36.824-10.906 8.207-29.603 17.319-40.473 19.722l-2.696.596zM518.728 674.7c-4.858-1.145-8.908-3.422-19.086-10.73-4.943-3.55-11.415-7.68-14.381-9.177-2.966-1.498-6.606-3.744-8.09-4.993-6.697-5.637-18.131-8.254-36.132-8.27-18.973-.017-25.965-3.902-32.608-18.121-8.797-18.83-2.83-39.582 17.477-60.783 13.642-14.243 29.105-25.187 49.017-34.69 25.51-12.177 48.841-17.19 79.994-17.19 20.238 0 29.308 1.331 45.864 6.734 17.162 5.6 30.468 13.023 41.268 23.022 7.502 6.946 8.608 10.657 8.54 28.666-.06 15.754-1.537 22.47-7.899 35.899-5.396 11.391-12.087 21.011-21.16 30.424-20.709 21.481-46.481 34.1-74.724 36.586-5.673.5-12.526 1.514-15.23 2.254-5.426 1.486-7.813 1.555-12.85.368m78.133-52.487c12.13-5.995 16.918-14.932 16.34-30.494-.274-7.383-.612-8.807-3.005-12.674-3.902-6.303-9.357-8.865-18.875-8.865-13.319 0-26.864 5.966-36.046 15.876-12.014 12.967-9.09 26.206 8.182 37.045 3.96 2.485 7.945 3.093 17.87 2.727 8.07-.298 9.489-.628 15.534-3.615M668.65 898.063c-25.825-8.876-39.036-20.493-36.809-32.367.871-4.642 6.916-13.176 12.8-18.068 2.806-2.333 9.106-8.103 13.999-12.822 5.172-4.987 9.06-8.108 9.287-7.455.215.617-1.232 6.077-3.215 12.134-4.285 13.081-5.531 18.824-5.531 25.487 0 7.78 1.599 12.52 5.815 17.236 2.085 2.332 4.061 5.345 4.393 6.695.727 2.959 5.403 8.46 9.116 10.724 4.238 2.585.477 1.988-9.855-1.564" style="fill:#fff;stroke-width:.89881" transform="translate(-145.019 -121.202)"/><path d="M707.517 898.034c-8.688-2.09-19.473-7.948-26.34-14.307-13.453-12.454-16.341-26.252-8.368-39.972 1.293-2.225 2.82-6.32 3.395-9.101 3.057-14.803 12.396-24.797 25.104-26.865 19.05-3.1 42.022 14.33 39.52 29.985-1.278 7.99-8.257 15.646-19.383 21.262l-5.04 2.544-5.484-2.632c-5.813-2.79-11.044-7.84-11.044-10.662 0-2.796 3.998-6.699 12.543-12.244 4.444-2.884 8.309-5.838 8.588-6.565.845-2.202-1.563-3.651-8.459-5.089l-6.567-1.37-3.795 3.11c-5.177 4.243-10.225 11.843-11.11 16.728-1.684 9.298 2.78 16.572 13.161 21.438 4.607 2.16 6.074 2.38 15.862 2.38 9.75 0 11.267-.225 15.79-2.346 5.937-2.785 10.717-7.45 13.553-13.228 1.782-3.63 2.066-5.61 2.089-14.59l.027-10.392-3.685-4.44c-8.058-9.708-10.607-15.307-7.967-17.498 3.219-2.671 21.514 4.477 39.068 15.265 6.063 3.725 10.153 5.574 14.014 6.333 21.741 4.278 22.704 18.39 2.685 39.342-11.785 12.333-27.449 23.575-32.85 23.575-3.513 0-1.49-4.283 6.88-14.559 4.787-5.879 4.956-6.283 7.238-17.298 1.286-6.203 2.031-11.583 1.657-11.956-.965-.962-3.348 2.242-8.731 11.736-12.875 22.706-23.993 36.286-33.224 40.583-4.263 1.985-6.017 2.254-14.297 2.196-5.19-.036-11.864-.65-14.83-1.363M327.77 926.722c-1.236-.207-8.112-1.35-15.28-2.538-21.545-3.572-34.55-8.082-38.158-13.232-.764-1.092-1.391-3.411-1.393-5.155-.003-2.78.857-4.001 6.98-9.911 3.84-3.708 9.137-9.672 11.77-13.254 5.793-7.88 12.378-13.893 14.816-13.526 3.294.495 5.235 4.881 9.11 20.59 5.357 21.713 7.45 26.583 14.725 34.277 3.357 3.55 3.201 3.717-2.57 2.75M345.224 917.673c-14.642-5.24-23.334-19.662-23.154-38.415.295-30.727 23.094-51.82 49.922-46.188 5.341 1.122 6.985 2.301 10.688 7.669 6.138 8.897 5.505 16.784-2.005 25.002-10.519 11.51-33.131 16.673-33.131 7.565 0-2.528 2.117-6.3 6.683-11.906 3.597-4.416 3.894-5.147 3.25-8.001-.942-4.177-1.627-5.15-3.626-5.15-3.069 0-7.152 4.561-10.957 12.24-3.311 6.682-3.806 8.487-4.107 14.98-.288 6.228-.058 7.833 1.469 10.256 3.1 4.92 5.866 6.121 13.991 6.072 10.408-.064 13.345-1.352 20.466-8.977 6.381-6.834 11.235-9.889 14.21-8.945 4.312 1.369 5.702 10.26 3.028 19.376-3.093 10.544-10.453 19.716-18.791 23.42-6.33 2.81-21.376 3.35-27.936 1.002M268.962 517.262c1.665-5.3 8.537-13.533 26.823-32.132 20.295-20.644 26.048-27.91 28.818-36.402 1.053-3.229 4.991-8.908 13.984-20.169 36.68-45.926 75.04-103.936 122.473-185.21 4.472-7.662 9.723-15.75 11.67-17.975 4.843-5.537 11.59-20.014 20.527-44.042 8.567-23.038 15.33-37.221 19.035-39.924 2.299-1.678 2.72-1.72 4.943-.504 3.433 1.878 7.61 10.783 11.795 25.148 10.94 37.546 26.643 61.518 73.908 112.826 34.498 37.448 38.222 42.082 74.03 92.103 29.124 40.685 44.296 60.36 57.106 74.054 2.943 3.146 5.35 5.915 5.35 6.154 0 .24-4.752-.733-10.56-2.16-13.57-3.334-43.937-8.972-64.04-11.889-50.434-7.317-107.768-8.176-154.146-2.307-60.622 7.672-120.793 24.79-176.616 50.244-16.295 7.43-44.177 21.836-55.472 28.66-5.05 3.05-9.425 5.547-9.722 5.547s-.255-.91.094-2.022m243.35-105.342c12.126-5.34 16.606-6.768 21.285-6.788 5.202-.021 19.857-5.608 26.775-10.206 19.198-12.763 29.907-35.328 28.638-60.347-.627-12.374-2.35-19.269-7.522-30.11-3.43-7.19-5.228-9.675-11.377-15.73-14.337-14.117-31.042-18.57-52.243-13.926-4.449.974-11.931 2.593-16.628 3.598-25.513 5.457-37.522 19.486-39.235 45.832-1.306 20.08 5.09 47.871 18.111 78.702 4.108 9.727 6.842 13.338 10.756 14.207 4.377.971 11.052-.657 21.44-5.232" style="fill:#fff;stroke-width:.89881" transform="translate(-145.019 -121.202)"/><path d="M494.194 404.923c-5.367-14.547-16.892-50.491-18.603-58.016-7.919-34.826.495-53.387 26.548-58.568 34.138-6.788 51.306-4.19 64.01 9.685 7.983 8.719 11.466 18.703 11.473 32.88.005 11.933-2.404 21.837-8.091 33.257-12.57 25.239-32.286 38.29-61.55 40.743-5.437.456-10.589 1.122-11.447 1.48-1.147.48-1.767.093-2.34-1.46m24.573-24.727c8.451-1.863 21.577-8.261 27.06-13.191 6.63-5.96 9.744-12.193 9.77-19.55.018-5.095-.454-6.855-3.39-12.644-4.718-9.304-10.239-15.35-17.073-18.696-10.268-5.029-19.624-4.49-29.167 1.677-19.151 12.378-21.245 40.176-4.618 61.315 2.423 3.08 2.804 3.24 6.846 2.868 2.354-.215 7.112-1.016 10.572-1.78" style="fill:red;stroke-width:.89881" transform="translate(-145.019 -121.202)"/><path d="M509.637 371.576c-.384-.618-1.383-4.764-2.221-9.213s-2.368-11.095-3.4-14.77c-2.982-10.611-2.184-17.83 2.423-21.933 5.847-5.206 19.499-1.056 30.154 9.167 9.512 9.126 11.246 18.529 4.66 25.274-3.879 3.971-11.086 7.43-18.89 9.064-2.967.622-6.032 1.671-6.813 2.332-1.786 1.513-4.996 1.556-5.913.079" style="fill:#fff;stroke-width:.89881" transform="translate(-145.019 -121.202)"/><path d="M572.548 1225.321c-2.41-2.072-2.49-2.42-2.316-10.102.415-18.46 5.152-26.618 15.41-26.539 12.708.098 26.664 13.569 24.956 24.089-1.114 6.865-8.386 11.404-21.458 13.394-11.616 1.768-13.68 1.664-16.592-.842" style="fill:#ff0;stroke-width:.89881" transform="translate(-145.019 -121.202)"/></svg>