<svg xmlns="http://www.w3.org/2000/svg" width="1538.403" height="1538.403"><g transform="translate(-.414 -74.938)"><path d="M804.271 74.959c-66.063.416-114.902 51.987-157.07 95.31-34.156 71.223 34.314-46.868 62.091-55.678 68.344-61.744 176.1-28.947 223.177 42.29 41.758 34.074 31.922 78.126-22.013 87.44-67.619 29.172-123.736 102.7-168.65 140.658-23.97-35.472 12.164-87.8-5.598-132.845-.649-42.903 14.187-92.129 55.95-111.753-79.888 34.403-60.09 132.544-59.31 201.044-31.23 5.353-50.56-54.971-87.957-63.375-25.409-19.687-12.825-60.625-38.335-21.525-79.342-20.573-171.74-29.47-243.607 19.414-63.534 40.533-87.99 117.01-117.443 182.11-28.703 44.947-29.727 177.474 50.92 130.013 54.313-39.8-9.305-90.462-21.823-115.263 56.672-51.531 126.415 8.481 151.308 62.865 36.845 48.952 44.653 116.163 23.914 170.708-5.97 59.588 23.993 126.79-34.263 158.956-12.668 71.159 51.228 132.734 27.58 205.005-22.26 78.313 75.083 91.412 79.796 163.707 7.996 26.08 81.488 84.19 23.386 38.46 20.221 60.377 120.295 63.113 111.44 138.292 10.343 35.31-14.731 128.64-22.914 130.132 33.04-38.987-14.993 45.126 18.429-11.055-6.967-66.993 65.633 34.494 15.927-7.409-15.047 21.93 88.312 42.465 26.401 4.858-26.796-17.582-46.41-92.723-5.274-34.613 77.641 45.018-55.282-49.045-12.23-45.011 8.446 27.118 77.741 39.994 21.44 10.676-32.507-15.11-46.5-86.814-2.122-33.218 87.088 55.908-89.322-69.091-2.115-44.78 47.971 42.917 111.078 27.567 165.668 8.343 81.678-30.662 35.218 108.54 69.242 149.356 7.363 27.486 68.818 70.986 4.173 67.007-71.314 12.886-143.766-17.808-217.025-11.884-26.022-11.003-139.015 33.381-98.019-20.514-23.402 15.581-56.2 40.339-4.075 32.058 60.807-11.566 120.33-1.35 181.144-2.695 63.822 18.84 123.825 7.683 186.457 10.807 18.217-16.979-54.931-58.02-48.022-96.08-11.13-49.383-39.227-124.263 9.953-159.728 30.606-4.294 121.558-88.42 56.117-36.004-30.92 25.351-56.26 33.26-14.863-2.238 54.242-56.34 82.92-132.598 106.963-205.788-4.648-73.479 59.598 45.796 70.412-25.238.716-70.925-25.065-143.162 16.097-209.598 21.9-29.323 24.304-118.945-27.017-97.967 70.292-6.94 14.32 150.801 15.337 58.005-.37-34.519-51.012-14.05-7.757-5.978 18.728 68.765-29.986 137.283-5.97 206.479 30.241 57.379-57.047 67.995-44.274 6.364 20.467-73.012 24.338-116.495 25.258-200.286.857-63.202 1.154-112.177-.5-182.16-43.65-69.314-66.753-163.374-31.117-241.678 28.366-60.159 155.734 17.837 111.562 54.877-71.424 35.62-29.063 156.164 47.372 107.796 61.954-33.215 41.286-97.78-7.046-126.867-16.043-67.25-22.96-143.855-81.89-190.631-49.649-50.38-115.775-79.337-185.472-58.208-47.808-26.712-62.01-102.56-124.87-118.828-18.495-8.33-38.376-14.565-58.873-14.135m339.842 707.314 8.398-2.064zm-9.836 180.344 3.498-7.168zm3.498-7.168c22.442-15.814.49-74.768 4.124-22.65l-1.244 11.504zm-518.43 617.23c26.522-26.17 23.248-26.773 0 0m4.246-1338.767c10.911-24.334 13.948-61.32 0 0m235.983-85.69c-56.393 8.388-45.232 123.32-24.585 119.79-2.97-39.81-29.965-102.403 24.585-119.79m-50.323 17.143c-55.439 26.651-52.622 108.66-25.4 155.45 1.782-30.703-37.587-127.866 25.4-155.45m219.131 41.705c118.93 5.789 213.507 121.411 213.524 237.498-18.022-4.231-103.477-98.968-141.304-24.798-27.138 49.864-22.78 138.807-25.166 142.878-68.059-44.702-165.117-80.157-237.055-23.44-38.035 21.886-59.308 93.438-64.22 104.575-11.682-83.645-16.092-169.196-16.947-253.174 26.956-65.157 93.102-105.29 150.378-141.854 37.292-20.539 77.899-38.437 120.79-41.685M489.25 245.547c96.149.226 202.932 42.135 242.116 136.097 32.503 64.091 26.588 152.614 23.248 216.068-47.95-27.553-125.694-11.833-128.499-90.071-34.637-66.789-101.823-114.999-175.774-127.489-28.577-9.474-125.985 20.93-45.149 6.824 98.987-7.158 194.515 63.392 228.298 154.003-11.502 52.6-106.418 32.488-132.584 90.105-50.691 85.844-19.197-40.992-54.412-75.038-26.537-57.054-79.259-135.501-152.37-98.851-29.156 17.669-57.301 37.505-39.09-11.858 31.391-64.377 54.881-144.158 125.52-176.014 33.653-16.528 71.375-23.584 108.696-23.776m541.699 70.148c-64.057 11.143-120.96 55.644-162.905 104.894-33.93 41.682-65.444 105.274-67.118 151.66 15.27-46.98 30.325-99.884 62.28-140.972 37.88-51.716 93.878-93.76 156.517-108.204 34.556-18.533 131.777 61.194 68.685 5.994-17.825-8.655-37.657-13.236-57.46-13.372m-547.012 12.733c-52.33-.734-104.056 22.108-137.951 62.136 83.202-93.257 253.729-64.748 308.507 45.548 35.418 31.354 17.258 135.339 25.457 122.262 39.873-62.71-21.784-140.914-67.296-185.631-35.988-29.21-82.546-44.389-128.717-44.315m-137.951 62.136-5.42 5.162zm717.742-27.21c-76.495 19.597-153.756 67.624-179.973 145.896 34.085-76.462 108.542-136.16 193.6-140.351 22.248-2.919-12.614-5.84-13.627-5.545m21.879 27.21c-54.9 4.872-114.796 73.689-109.695 117.145 3.898-58.792 80.27-116.929 109.695-117.145m-707.744 24.297c39.302 27.772 132.178 71.813 159.466 138.777 45.233 70.152-4.913-41.154-30.971-56.064-35.11-36.354-78.743-70.707-128.495-82.713m853.94 63.725c41.517 16.846 64.765 88.332 46.03 81.312-28.161 53.463-104.517-1.706-72.742-52.232 4.683-11.926 12.077-28.087 26.711-29.08m29.833 97.66c6.936-2.37 20.72-25.717 0 0m-3.635-97.3c3.27 1.041-3.229 3.093 0 0m-50.298 8.286c-9.288 20.988-25.393 77.343-14.69 25.164 4.069-8.816 8.328-17.712 14.69-25.164m-952.664.13c57.285 4.983-10.156 23.327-20.303 18.666 4.512-7.305 10.266-17.903 20.303-18.667m1020.904 6.497c23.695 31.18.406 31.858 0 0m15.476 7.15c21.83 22.307-19.082 83.456.772 26.393.024-8.568-4.666-17.946-.772-26.392m-1033.982 1.499c60.25 12.423 63.593 86.787 25.777 87.531-43.233 14.148-68.055-77.602-25.777-87.531m41.588 77.445c11.79-14.433 10.408-18.812 0 0m623.168-64.3c62.708 5.345 139.442 27.722 171.009 86.234-46.516-30.86-116.975-49.886-176.52-27.761C857.402 592.655 800.01 635.414 786.371 699c-10.236-68.156 13.14-149.113 84.407-173.41 16.226-6.8 33.866-9.87 51.415-9.938m261.447 27.765c14.862 15.684.098 23.533 0 0m-208.135 26.508c84.46-2.218 99.672 98.148 117.844 160.854 13.148 36.648-13.713 94.423 28.164 102.232 5.778 45.63-24.664 99.72-19.693 139.082 13.715-29.417 26.324-155.06 26.05-64.464-9.285 47.208-25.755 100.638-32.713 162.352-8.963 72.506-49.475 137.55-89.547 197.133-23.58 47.073-99.351 93.688-113.096 109.437-71.215 20.573-153.32 32.217-217.643-14-65.891-30.35-110.906-91.582-151.318-149.565-23.13-46.397-36.774-78.818-24.268-87.695-18.118-55.107 4.87-37.562-.316-28.555-7.298-64.866-13.01-130.269-21.955-195.406 10.584-62.495-4.457-130.406 25.733-193.56 10.965-71.09 83.005-92.12 145.715-83.406 74.55-8.955 113.57 88.621 143.098 117.633-7.224-63.194 28.844-126.923 89.862-150.495 29.337-13.697 61.683-21.32 94.083-21.577m-350.6 5.053c64.057-4.117 144.603 14.78 146.424 93.295 7.399 28.817 12.55 66.434-8.511 20.529-33.26-75.215-135.305-84.407-204.325-58.748-35.333 3.21-113.351 93.557-69.718 17.132 34.415-39.514 80.822-75.275 136.13-72.208m636.37 6.535c-1.925 3.8-15.738 2.813 0 0m-184.783 25.011c25.722 13.53 15.098 26.746 0 0m21.39 34.407c25.922 24.787 32.49 105.069 11.23 31.08-3.986-10.197-10.366-19.917-11.23-31.08m-576.879 9.56c-7.574 30.411-39.814 62.275-32.677 38.136-22.58 26.065-27.752 143.057-25.873 55.726 3.432-37.932 24.452-75.653 58.55-93.862m559.19 1.07c10.009 11.363 6.14 17.343 0 0m17.562 34.147c12.723 31.785 9.867 74.85 2.375 18.714l-2.134-13.475zm-598.834 9.168c-6.6 25.728-19.074 19.742 0 0m-8.652 21.863c-6.655 26.32-9.478 20.135 0 0m-28.252 3.53-.067 2.951zm321.51 4.884c6.28 6.252.275 13.173 0 0m159.219 17.387c-48.555 22.676-89.554 43-127.102 83.444-38.71 53.108 47.944 112.746 11.04 170.904 5.939 13.056 29.365-57.576 6.6-81.025-24.354-43.635-30.947-90.012 27.635-111.57 9.032-3.412 87.532-71.15 125.341-19.28 18.517 12.615 87.691 84.9 87.03 42.66-47.92-22.446-71.402-84.108-130.544-85.133m183.72.51c5.774 30.135-21.218 25.75 0 0m-184.287 7.408c3.386 2.338-4.13 2.609 0 0m4.756 1.246c-.145 7.398-9.853 9.193 0 0m-16.053.584c4.18 17.565-13.604 21.222 0 0m-13.88 6.656c3.27 1.042-3.23 3.094 0 0m-285.956 2.637c-56.282 8.184-120.774 55.168-136.42 104.317 51.143-21.731 111.734-124.408 170.686-61.03 29.321 47.024 99.925 74.219 60.03 130.09-5.418 28.092 18.519 94.5-21.344 45.695-52.298-10.799-93.392 116.79-39.048 108.319 49.585-78.842 83.329 108.64 138.13 29.9 12.378-49.41 51.37-42.927 80.005-18.923 44.216-48.384-34.01-142.866-56.296-87.76 57.288-45.06 67.414 126.249 20.92 35.317-47.087 4.576-45.43 125.467-101.935 59.25-15.623-54.886-61.123-95.627-83.936-25.194-30.318-32.016 12.58-137.612 51.378-68.892 51.398 4.77 4.636-95.492 33.817-131.337-18.649-34.262-69.615-104.107-115.987-119.752m285.116 3.938c2.308 1.141-3.36 4.024 0 0m-8.036.326c-4.244 10.142-9.617 2.967 0 0m217.922 5.922-.015 5.981zm-235.787 2.252c-.282 2.09-6.578 3.813 0 0m-6.164 7.931c-.257 2.956-10.059 7.664 0 0m4.164.069c-.282 2.09-6.578 3.813 0 0m-21.047.812c-2.366 16.715-18.153 11.979 0 0m-285.892 2.1c9.22 5.807-5.732 5.52 0 0m7.002 5.498-4.016 2.135zm517.523 3.656c4.956 39.233-5.74 29.173 0 0m-242.586 1.934c-.282 2.09-6.578 3.813 0 0m-395.386 1.792c9.267 29.399-12.833 47.462 0 0m373.66 6.596c-6.58 18.49-11.817 3.526 0 0m-293.623.59c5.13 4.363-5.637 4.793 0 0m9.502 2.725c-1.823 10.223-17.126 8.938 0 0m400.17 8.582c-37.595 6.741 58.842 1.197 37.948 42.202 8.164 63.489-79.044 68.316-76.109 4.483-25.074 84.627 111.018 55.713 85.248-18.813-1.7-22.25-29.344-27.209-47.087-27.872m-38.16 46.685c14.722-22.25 8.433-24.826 0 0m9.855-17.306c43.797-32.063 55.179 55.417 13.906 24.486 17.61-16.11 27.918-28.677-1.57-12.918 22.467 82.472 59.88-60.206-6.626-17.562zm-390.735-22.86c3.635 3.762-6.886 3.84 0 0m-66.28 6.192c9.616 9.61-6.914 19.208 0 0m53.646.205c10.911 5.517-3.115 6.256 0 0m67.504.763c-33.218 1.153-69.204 46.353-20.933 9.191 83.292-36.543 106.44 128.768 16.46 97.372-69.552-22.111 8.68-123.19 29.01-52.93-12.275 48.33-50.213-2.767-23.509-10.907-57.38 28.59 37.519 59.562 32.92 3.709-43.323-77.656-117.611 62.606-35.277 70.87 53.473 7.656 90.649-76.553 38.735-105.555-10.909-7.532-24.103-11.916-37.406-11.75m-70.788 11.28c-7.306 9.79-18.23 11.869 0 0m-85.402.05c56.546 23.332-36.62 78.013 9.54 120.187-16.526-33.776 6.528-116.107 22.162-37.112 9.395 33.595-19.423 98.002-30.144 33.276-14.258-35.293-33.913-84.883-1.558-116.35m64.469 12.98c7.676 5.231-3.562 6.964 0 0m538.207 27.948c-18.042 20.577-16.1 21.544 0 0m-13.006 15.813c-37.968 56.525-124.383 28.852-156.374 26.92 73.275 20.554 99.608 86.843 98.306 160.155 22.048 50.357 1.256-55.566 6.026-77.159 3.017-41.697 26.62-78.153 52.042-109.916m-152.717 22.931c5.396.67-3.456 3.296 0 0m124.203.942c1.264 3.658-9.264 5.19 0 0m-328.496 3.71c-33.603 47.366-110.142 11.652-137.06 28.366 58.949 26.727 36.573 124.408 65.252 154.792-1.33-62.046-4.416-142.047 63.327-172.463l5.39-6.21zm325.233 1.173c.002 26.81-34.086 54.936-25.953 87.374-28.028-48.327-43.547-83.506 25.953-87.374m-337.948 10.953c-12.118 15.463-22.443 14.274 0 0m-26.343 16.841c3.896.64-5.236 2.5 0 0M613.5 956.81c4.43-.196-1.31 2.377 0 0m5 0c4.43-.196-1.31 2.377 0 0m-10.343 7.896c9.93 14.509-22.263 62.55-17.576 81.932-17.032-30.707-47.491-95.261 17.576-81.932m-144.61 17.01c27.365 21.433 6.577 92.565-.96 28.785 1.194-8.089-5.805-21.767.96-28.785m665.705 28.33-2.93 2.578zm-673.816 7.625c19.066 35.314 38.553 108.375 21.668 129.89-45.355-23.57-26.206-89.919-21.668-129.89m653.025 3.25c-5.172 46.856-11.06 42.86 0 0m-622.377 52.525c4.811 1.919-3.845 3.26 0 0m661.006 18.057c9.11 14.03-27.729 5.895 0 0m6.686 1.266c6.998 9.219-11.697 17.906 0 0m-199.46 29.05c-9.18 5.473 15.427 2.542 0 0m-169.823 8.397c.914 4.232-6.978 4.69 0 0m274.715 58.879c-17.341 39.126-73.072 146.871-79.955 129.513 24.91-44.217 56.18-84.61 79.955-129.513m-228.72 54.238c-3.595-.988-2.298 5.98 0 0m.393 16.244c-12.673 2.209 2.681 7.538 0 0m-32.767 13.762c-32.593-3.5-81.688 26.71-19.67 8.132 27.312-8.494 99.052 19.756 37.803-6.683l-8.816-1.033zm-55.68 16.283-.394.455zm228.318 24.203c-15.78 21.673-51.04 47.534-11.65 10.486l6.462-6.191zm5.78 1.522c-23.609 41.274-36.298 25.816 0 0m-21.477 30.498c-17.2 19.006-36.536 18.609 0 0m-29.299 7.045c-1.055 4.008-12.895 7.788 0 0M660 1534.602c-14.94 33.29 72.928 46.167 17.376 19.82-5.108-7.01-9.032-15.865-17.376-19.82m-7.915 10.189c-8.236 34.705 68.277 42.131 12.06 11.647l-5.029-6.827zm-17.242 23.418c-7.583 24.822 79.866 20.294 17.64 6.151l-7.256-3.538z" style="fill:#000"/><path d="M975.74 569.498c-78.994 3.071-169.856 46.791-183.18 132.375 8.732 31.75-6.621 63.498-22.315 16.816-29.682-75.213-113.41-113.909-190.314-90.18-76.745 17.687-91.058 105.85-97.309 172.059-5.713 42.147 10.839 64.215 39.38 20.76 39.569-32.68 103.643-94.084 154.274-34.597 26.844 51.123 99.542 82.986 58.471 145.513 7.808 34.267 8.84 121.573-39.9 60.937-52.014-16.497-52.44 149.066-9.017 53.938 42.56-41.662 65.93 140.56 113.788 58.105 9.666-49.226 55.344-70.607 76.88-30.843 8.53-44.45-19.568-72.317-51.59-69.576 40.055-59.084-36.066-109.009-17.462-166.546 42.398-50.847 127.724-129.466 192.844-71.587 14.438 19.825 120.722 86.877 47.98 70.616-48.612-49.28-126.083-104.99-184.005-31.37-87.685 22.337-22.057 96.212-21.243 153.647 2.934 25.151-19.773 45.992 17.408 36.397 45.148 14.35 49.725 154.668-10.019 87.669-40.07-20.07-46.354 89.1-101.454 42.464-32.25-22.3-47.406-99.368-85.196-32.115-66.023-1.541 6.223-164.363 60.114-95.365-.685-61.693 31.57-131.457-38.682-169.002-32.977-65.797-103.62-46.124-142.657 1.091-26.213 35.476-87.05 31.665-59.816 90.548-4.215 49.113 31.842 201.375 13.67 178.705-20.647-26.306 22.234 43.568-.775 40.957 17.868 80.888 79.452 144.125 139.564 197.052 53.12 36.861 116.343 66.692 182.45 53.82 110.718-10.345 186.536-109.68 233.975-201.486 35.304-57.374 42.505-121.741 55.122-186.054-2.32-46.434 35.246-92.172 16.764-125.39-3.246 26.9-27.57 139.726-20.42 58.53 9.328-40.082 35.251-100.17-3.745-119.04 1.592-71.897-15.27-141.344-47.264-204.92-14.03-28.362-45.055-45.04-76.321-43.928M723.875 998.615c-4.419 22.555 9.679 12.503 0 0M964.972 812.84c68.655 12.173 36.822 131.075-30.593 101.486-55.877-33.574 25.782-130.03 45.025-54.528-13.552 53.512-69.079-3.386-21.144-20.108-88.799 5.083 10.124 123.91 32.423 42.035 25.96-45.096-38.407-69.524-46.174-62.278l7.127-3.769zm-362.191 15.55c84.608 2.61 53.073 156.543-26.62 112.51-70.135-35.083 28.347-138.156 47.377-51.56-.258 40.097-80.48 11.249-37.351-11.736-7.352 59.9 71.137-12.98 7.64-15.827-93.388 23.531 50.275 138.865 54.613 35.333 7.22-60.452-71.866-74.462-97.81-42.494 14.533-12.866 31.486-27.154 52.15-26.225m-3.92 45.204-10.283 2.99zm438.119 12.87c-46.179 48.12-71.028 112.142-58.531 179.055 9.686 52.185-11.6 30.606-14.35-7.584-7.33-49.017-9.328-118.565-74.972-118.41-51.891-44.973 49.114 11.72 76.204-7.66 29.49-4.921 52.553-23.616 71.649-45.4m-368.977 40.45c-49.569 36.114-80.6 89.586-67.438 152.089-6.682 83.913-22.82-46.359-29.179-70.31-2.004-41.17-82.794-72.373-6.768-60.285 36.843 7.337 74.607 5.69 103.385-21.494m276.23 188.379c14.05 13.398 35.089 6.81 46.434 16.53 23.66 36.358-33.353 55.712-59.005 79.33-20.623 5.797-83.7 88.696-102.24 49.486-29.136 11.112 12.007-29.874-24.846-7.111-13.556-22.022-90.649 37.973-57.862.303-30.452 9.014-76.832 11.754-51.107-23.147-31.073 18.037-55.618 16.328-38.717-7.618 21.165-13.058-90.348 34.954-34.395-17.286 18.044-35.57-97.986 38.347-34.71-14.595 12.62-1.904 53.913-42.75 19.054-18.022-17.722-25.218 97.504-71.144 44.89-16.32 13.656 13.47 30.326-24.27 42.021-9.3 49.752-17.001-39.767 45.334 15.857 18.503 19.249 3.594 55.618-33.097 51.166-7.479 29.32-21.911 82.713-23.703 89.74-3.902 21.094-4.497 68.117-23.947 94.487-37.75l.017-.016-.783-1.608zm-40.339 21.164c-14.903 5.875 26.253-1.108 0 0m86.572 17.072c-.92-.102.277.704 0 0m-70.99 2.58c-19.354 3.457-80.013 16.912-63.5 18.99 7.535-4.34 16.614 20.075 40.81-5.25 11.686-.295 33.344 1.09 22.69-13.74m-156.209 2.328c-.885.325 1.801.01 0 0m-118.807 42.854c-53.172 34.77 23.732 11.588 0 0m20.323 9.252c-1.286-.1-.018 2.383 0 0m136.584 62.959c29.72-7.6 64.12 26.931 12.742 11.849-23.37-20.06-109.337 19.635-46.476-8.268 11.077-2.38 22.409-3.518 33.734-3.581" style="fill:#fff;stroke-width:1.20158994"/><path d="M971.042 571.03c-82.945.852-181.239 57.14-178.71 149.764-17.602 50.89-49.77-87.461-96.625-86.493-72.182-22.243-177.64-15.698-193.344 75.515-15.526 34.643-35.552 135.237-4.94 135.633 48.044-36.506 93.684-107.991 162.469-73.535 31.354 36.571 73.443 78.16 87.666 115.79-30.601 35.923 12.045 108.369-23.048 128.14-25.958-29.701-61.13-34.676-66.233 15.458-16.726 26.178 2.12 78.05 20.502 25.814 44.879-64.514 50.057 71.23 101.685 72.081 24.346-38.872 60.997-111.52 96.069-55.024 7.166-42.72-16.123-76.405-55.52-67.995 53.73-66.495-69.62-142.642 11.155-199.973 55.076-43.208 138.796-98.942 192.382-18.385 9.848 16.77 83.409 53.967 28.458 51.12-54.048-58.819-135.789-100.476-199.302-29.16-78.005 30.715-.93 104.743-10.674 161.66-17.193 34.075 56.718 31.322 51.136 81.328 11.697 48.26-20.739 65.056-54.043 25.88-24.11 25.537-64.818 91.202-107.316 34.38-14.627-42.423-41.717-62.783-72.145-18.374-57.47-17.334 6.684-153.606 59.755-100.828-1.745-53.909 41.274-108.968-18.6-147.079-33.815-58.156-97.175-82.932-145.595-29.528-29.478 45.407-104.06 42.651-72.725 111.196-.995 61.764 18.257 121.818 17.012 183.562-27.923-58.251 10.953 23.155-3.674 34.886 20.64 79.672 81.636 142.616 142.555 194.571 52.609 34.355 114.589 64.9 179.208 50.259 115.599-11.088 189.792-116.356 238.038-211.729 35.363-56.14 35.682-118.016 51.035-179.524.463-43.717 30.38-89.426 16.406-120.95-6.926 33.332-28.775 142.266-19.06 52.515 12.327-48.58 28.784-96.605-8.233-124.53 8.336-76.559-21.873-148.268-59.456-213.049-9.122-22.51-45.684-21.779-66.288-23.397M720.42 993.825c-8.94 26.687 18.765 13.815 0 0m244.6-180.994c52.046 8.108 51.228 97.395-2.463 104.48-99.849 17.995-4.924-156.517 15.36-51.03-22.94 46.698-59.946-14.933-19.716-26.525-88.674 5.064 9.991 123.735 32.476 42.043 26.19-44.933-38.499-69.956-46.121-62.669l7.128-3.659zm-362.77 15.295c67.505 3.61 69.764 122.963-2.727 120.48-107.794 2.683 13.17-166.94 25.052-53.148-18.34 54.835-77.28-35.221-21.721-20.342-57.202 13.76 52.053 47.456 5.833-5.86-82.788-35.321-28.74 136.923 30.597 53.152 35.952-56.306-43.002-118.715-89.321-66.792 15.663-11.964 30.964-27.949 52.288-27.49m434.098 58.932c-45.704 48.118-70.34 111.814-57.899 178.467 9.486 52.475-11.422 30.323-14.313-7.826-7.58-48.733-9.255-118.41-74.792-117.988-52.214-47.402 79.498 24.78 107.945-19.4 16.163-7.235 25.49-22.688 39.06-33.253M667.58 926.64c-46.497 37.413-81.155 87.323-67.033 150.336-5.814 87.356-22.887-42.822-29.151-68.285-1.692-40.97-82.836-72.227-7.202-60.343 36.918 7.016 74.989 6.436 103.386-21.708m276.654 188.652c14.04 13.4 35.088 6.808 46.433 16.53 23.66 36.358-33.353 55.713-59.005 79.33-20.612 5.803-83.75 88.708-102.23 49.48-29.163 11.125 12.03-29.882-24.856-7.105-13.556-22.022-90.649 37.973-57.862.303-30.452 9.014-76.832 11.754-51.107-23.147-31.065 18.033-55.622 16.331-38.716-7.618 21.164-13.058-90.35 34.954-34.396-17.286 18.044-35.57-97.986 38.347-34.71-14.595 12.62-1.904 53.913-42.75 19.055-18.022-16.355-27.193 100.163-71.208 43.078-13.293 17.134 2.591 43.02-25.297 57.125-13.047 14.842 10.183-49.483 37.33 2.564 19.223 19.249 3.594 55.618-33.097 51.166-7.479 29.32-21.911 82.713-23.703 89.74-3.902 21.095-4.497 68.117-23.947 94.487-37.75l.017-.016-.783-1.607zm-40.34 21.164c-14.903 5.875 26.253-1.107 0 0m86.572 17.072c-.92-.102.277.704 0 0m-70.99 2.58c-19.354 3.457-80.013 16.912-63.5 18.99 8.09-3.951 15.509 20.929 40.81-5.25 11.686-.294 33.344 1.09 22.69-13.74m-156.209 2.329c-.885.324 1.801.01 0 0M644.46 1201.29c-53.172 34.77 23.732 11.588 0 0m20.323 9.252c-1.286-.1-.018 2.383 0 0m133.26 62.248c36.23-1.64 71.656 26.821 14.64 11.564-26.52-20.54-110.918 31.352-49.616-6.015 11.15-4.128 23.123-5.747 34.975-5.549" style="fill:#fff;stroke-width:1.20158994"/><path d="M1123.299 1086.067c-46.095-60.26 37.732-125.298 19.122-178.45 4.29 38.955-26.123 87.02-8.326 22.848-6.236-26.105-2.065-139.45 27.444-83.266.201 77.535-23.83 154.19-6.384 231.702-5.417 12.584-21.539 9.783-31.856 7.166m5.802-75.321c-2.2-6.073-4.398 11.174 0 0M477.016 1148.247c-37.439-27.487-17.193-90.759-20.306-122.737 15.114 37.643 36.186 82.4 20.306 122.737M884.738 1609.743c-63.15-17.998-130.427-15.06-195.282-18.05-27.772 13.96-122.156-.136-59.989-18.014 29.026 16.586 63.956 14.792 15.483 1.079-25.964-62.503 32.531 31.75 52.304-9.658-21.498-17.608-60.81-30.587-33.66-65.065 11.95 13.825 29.239 44.36-2.308 20.8 11.883 36.128 95.182 35.563 29.615 3.103-21.011-17.328-35.708-84.23-1.76-31.292 70.037 47-72.716-92.493-4.088-31.628 32.593 20.54 56.925 13.809 10.52-4.446-28.92-19.672-34.817-82.13 2.3-28.433 22.876 25.678 50.498 7.48 6.95-5.388-31.068-11.593-50.378-75.418-1.815-36.521 59.662 49.275 138.048-1.04 200.159-2.909 13.784 54.085-1.765 116.789 35.512 165.193 21.831 33.763 37.887 61.157-14.175 58.344-12.457 4.552-26.98 9.627-39.766 2.885" style="fill:#fff;stroke-width:1.20158994"/><path d="M768.252 697.05c-36.992-91.64-161.915-97.313-238.314-55.495-24.891 10.227-79.612 73.1-44.944 14.745 50.733-86.077 178.966-106.005 258.35-50.621 20.476-1.25 48.367 144.008 24.908 91.37M785.256 682.525c-10.122-80.604 48.16-172.083 136.359-166.253 54.885-1.469 164.3 44.045 162.788 84.744-53.714-48.563-131.336-45.028-194.369-17.56-48.576 19.424-90.523 61.284-103.854 108.176Z" style="fill:#ff0;stroke-width:1.20158994"/><path d="M774.287 641.017c-9.583-85.086-19.55-172.58-13.562-257.568 38.279-73.852 117.13-119.247 189.638-154.894 83.319-47.942 181.606-4.436 236.592 65.299 33.819 42.015 60.757 110.257 50.096 158.99-27.905-77.532-159.72-78.081-153.896 17.145-17.263 26.644 23.34 127.179-35.676 76.03-68.903-45.303-164.082-52.272-227.5 6.675-24.036-18.77 28.492-100.18 52.47-131.504 41.283-51.548 101.553-90.399 165.89-102.524 21.254 2.608 108.812 61.997 57.934 12.923-73.317-42.554-153.19 14.175-206.533 63.663-50.382 49.515-85.298 122.076-92.125 188.281-5.024 11.053-14.773 67.657-23.328 57.484m113.107-130.973c28.798-83.08 113.067-133.476 197.09-143.354-57.602-9.025-120.497 35.742-163.006 76.962-15.963 15.7-39.292 54.657-34.084 66.392m89.211-1.436c-15.869-60.107 128.426-129.931 103.364-119.757-48.948 16.54-108.079 62.733-103.364 119.757" style="fill:red;stroke-width:1.20158994"/><path d="M471.302 661.745c.242-75.931-38.13-151.062-93.828-201.119-62.146-20.396-125.192 2.89-123.786 11.879 10.102-71.225 49.675-142.152 104.425-188.647 93.48-61.471 223.889-43.08 312.036 19.076 63.928 51.02 87.611 129.255 85.432 208.011 2.323 33.978 17.038 122.492-35.944 67.929-84.31 12.987-83.439-72.623-126.058-118.648-51.156-62.943-143.624-96.878-221.778-71.48-5.08 11.185 75.029-12.926 102.697 6.15 70.769 20.623 133.549 78.049 158.583 147.089-21.04 50.21-115.18 36.686-142.261 99.14-4.476-.665-24.509 41.926-19.518 20.62m87.419-83.716c-31.422-76.056-98.737-137.492-176.974-162.943-7.158 14.416 77.589 36.807 96.024 67.247 34.571 23.26 53.676 76.225 79.854 96.52zm124.264-21.123c33.883-69.77-25.544-143.118-74.871-188.392-78.78-60.786-209.605-54.398-269.402 30.161 70.196-83.59 207.396-81.712 282.815-6.571 36.229 43.136 88.234 113.727 50.444 168.689 4.182.25 7.463-2.166 11.014-3.887" style="fill:#00f;stroke-width:1.20158994"/><path d="M740.794 380.361c-13.359-48.695 8.248-102.958-4.646-154.101.809-33.292 74.713-116.834 17.63-57.499-45.597 49.241-4.404 130.807-31.902 176.909-19.918-57.628-122.226-62.368-90.092-133.853 36.408-74.804 116.988-152.146 206.994-123.47 53.381 18.141 127.377 80.745 116.024 133.409-77.109 30.864-142.627 86.5-197 148.001-1.278 7.538-10.02 30.223-17.008 10.604m51.288-57.85c-35.106-46.217-11.598-146.73 9.94-154.495-48.604 26.39-47.232 131.355-9.94 154.494m48.14-44.01c-31.594-33.627.958-135.05 7.175-125.645-38.755 22.296-38.92 108.292-7.176 125.646" style="fill:green;stroke-width:1.20158994"/><path d="M259.91 586.252c-63.83-33.766 15.227-133.828 44.875-48.86 10.924 24.899-16.55 66.364-44.874 48.86M1233.514 580.73c-71.837-18.553-9.304-151.448 36.537-76.58 21.383 23.894 2.65 88.265-36.537 76.58" style="fill:#ff0;stroke-width:1.20158994"/><path d="M967.039 1016.715c-16.292-37.42-37.64-93.1 24.649-85.196-1.85 29.413-27.887 55.19-24.65 85.196M585.248 1036.475c-35.465-27.94 12.245-100.407 20.631-55.72-13.344 5.716-6.455 74.713-20.63 55.72" style="fill:#000;stroke-width:1.20158994"/><path d="M710.033 1220.557c-.172-.151-.638.41 0 0m34.941 12.796c-6.278 1.616.781 2.293 0 0" style="fill:#ff2a2a;stroke-width:1.20158994"/><path d="M597.807 1146.711c-2.997 4.9-7.202 8.868-11.076 13.044-2.07 2.232-4.065 4.532-6.161 6.739-5.266 5.546-5.704 5.782-11.05 10.653-4.77 3.578-2.451 2.429-6.65 4.001-.798.487 6.084 11.759 6.88 11.272 7.325-2.68 3.655-.96 10.926-5.338 2.118-1.695 4.336-3.273 6.355-5.086 5.18-4.655 8.514-8.453 12.666-14.052 2.962-3.995 5.988-8.604 8.05-13.196.552-1.23.836-2.563 1.254-3.844.296-.791-10.898-4.984-11.194-4.193M599.731 1174.316c1.24.565 2.457 1.183 3.72 1.695 1.713.694 3.471 1.27 5.202 1.919 7.8 2.918 15.59 5.887 23.537 8.39 3.392 1.069 6.825 2 10.238 2.998 10.05 3.05 20.266 5.51 30.625 7.248 3.085.517 6.197.866 9.288 1.352 26.199 4.122-7.294-.853 19.517 3.07 11.135 2.071 22.346 3.712 33.577 5.157 4.154.534 8.303 1.117 12.471 1.522 11.054 1.075 13.8.949 24.762 1.218 5.235-.03 10.47.022 15.703-.09 3.603-.076 7.198-.364 10.8-.473 11.056-.337 15.874-.042 27.024-.964 9.487-.784 17.835-2.165 27.228-3.552 12.202-2.427 24.363-5.112 36.371-8.373 3.705-1.006 7.364-2.176 11.065-3.195 7.142-1.968 14.33-3.77 21.49-5.671 6.849-2.02 13.84-3.502 20.719-5.41 3.517-.976 13.961-4.242 17.723-5.375 11.197-3.375 4.393-1.063 14.984-4.923 13.04-5.274 24.11-14.055 35.419-22.21 8.243-6.174 17.223-11.566 23.973-19.498 1.04-1.222 1.94-2.557 2.91-3.836 3.68-5.276 4.904-11.431 4.946-17.734-.111-2.013-.01-1.044-.288-2.91-.093-.808-11.512.514-11.419 1.321.056.562.04.252.027.93-.704 3.955-1.835 7.91-4.26 11.172-.772.825-1.483 1.713-2.317 2.475-1.115 1.018-2.339 1.909-3.517 2.853-6.596 5.283-13.554 10.066-20.524 14.84-3.614 2.784-7.135 5.69-10.831 8.363-6.57 4.753-13.791 8.65-21.445 11.333-10.866 3.118-21.862 5.605-32.814 8.391-3.464.88-6.907 1.841-10.367 2.736-3.391.877-6.792 1.72-10.188 2.58-3.565.81-7.152 1.531-10.696 2.43-3.772.955-7.487 2.124-11.246 3.13-15.174 4.062-30.537 7.595-46.083 9.886-11.664 1.435-14.567 1.88-26.343 2.973-4.522.42-9.055.723-13.58 1.126-4.144.37-8.272.96-12.426 1.192-3.781.21-12.845.063-17.332.012-11.968-.48-23.98-.91-35.9-2.16-3.83-.403-7.633-1.025-11.453-1.512-32.31-4.118 9.163 1.3-22.363-2.842-2.069-.27-17.277-2.243-19.417-2.572-12.955-1.988-25.727-5.008-38.302-8.68-6.545-1.623-13.112-3.16-19.636-4.863-8.217-2.144-16.319-4.898-24.764-6.047-.748-.411-6.555 10.168-5.807 10.578z" style="fill:#000"/><path d="M1013.428 1101.341c7.096 12.305 17.43 22.224 28.537 30.916 2.298 1.8 4.723 3.431 7.085 5.147 3.771 2.216 6.028 3.819 9.94 5.302.895.34 1.85.499 2.775.748.718.448 7.049-9.704 6.33-10.152-2.493-2.342-5.328-4.295-7.894-6.551-9.224-7.767-18.713-15.271-27.535-23.503-1.836-1.713-3.544-3.557-5.36-5.291-1.198-1.147-2.453-2.233-3.68-3.349-.477-.721-10.674 6.012-10.198 6.733" style="fill:#000"/><path d="M598.907 1175.482c.862.82 1.682 1.687 2.587 2.46 1.26 1.073 2.65 1.989 3.9 3.073 2.363 2.049 7.911 7.445 9.885 9.587 4.422 4.802 5.275 6.279 9.082 11.497 6.06 8.825 10.501 18.595 15.637 27.955 4.118 8.593 6.777 17.752 9.67 26.798 2.477 7.226 5.529 14.258 7.82 21.547 1.09 3.517 1.765 7.212 3.486 10.505 1.54 2.95 2.859 4.451 4.894 7.164 6.687 7.407 15.436 12.486 24.415 16.643 2.132.987 4.328 1.83 6.492 2.745 11.356 4.041 23.363 6.065 35.407 6.333 2.057.046 4.115-.057 6.173-.085 2.97-.11 5.946-.143 8.912-.333 8.919-.57.373-.57 8.753-.723 3.793-.07 7.632.215 11.42.31 1.85.045 3.7.095 5.55.138 3.651.084 7.158.09 10.797.37 6.005.46 5.998.852 12.345 1.048 3.415.106 6.832.038 10.248.056 10.654-.082 21.178-1.804 31.749-2.85 1.167-.082 2.332-.22 3.502-.245 3.359-.068 6.906.402 10.24.57 5.603.281 5.864.243 11.456.352 1.665-.026 3.332.024 4.994-.077 2.885-.176 5.78-.32 8.638-.752 2.518-.38 5.57-1.666 7.984-2.532 3.793-1.36 3.25-1.148 6.98-2.306 3.042-.732 6.093-1.395 9.2-1.786.732-.092 1.502 0 2.202-.23.46-.152-1.933.022-1.451-.02 1.688-.141 3.383-.189 5.075-.284 2.212-.33 4.315-1.122 6.45-1.755.674-.2 1.371-.322 2.029-.57 4.023-1.51.91-.795 3.624-1.332 2.38-1.095 5.056-1.16 7.488-2.124 2.013-.799 4.413-2.13 6.339-3.15 3.751-2.443 7.707-4.693 10.902-7.884 2.334-2.332 3.234-3.769 5.154-6.395.46-.64 3.135-4.416 3.825-5.183.511-.568 1.128-1.033 1.703-1.538 1.743-1.532 3.58-2.943 5.343-4.452 4.566-5.623 7.274-12.479 10.109-19.082 1.853-4.46 4.219-8.7 5.902-13.231.822-2.214 1.287-4.06 1.908-6.305.283-.718.5-1.466.848-2.155.65-1.285 1.783-2.437 2.564-3.612 2.703-4.068 5.037-8.399 7.362-12.686.907-1.913 4.5-9.452 5.223-11.175 1.684-4.017 3.081-8.15 4.68-12.201 2.336-5.925 1.753-4.433 4.488-10.412 3.066-7.517 7.7-14.387 10.272-22.113.47-1.415.799-2.873 1.198-4.309 1.804-6.298 3.69-12.607 7.16-18.224.516-.834 1.138-1.598 1.707-2.397 2.658-3.169 5.275-6.478 8.304-9.314 1.256-1.176 2.647-2.199 3.968-3.302l1.873-1.356c.624-.613-8.04-9.443-8.664-8.83l-2.306 1.656c-2.165 1.663-3.024 2.236-5.078 4.217-3.366 3.246-6.301 6.961-9.262 10.565-.784 1.109-1.62 2.184-2.354 3.328-4.035 6.29-6.47 13.415-8.033 20.682-.792 2.77-.888 3.61-2.226 6.214-.623 1.214-1.383 2.353-2.07 3.531-2.806 4.815-5.574 9.662-7.724 14.818l-2.342 5.465c-.825 1.765-1.693 3.51-2.475 5.295-3.261 7.44-5.443 15.312-9.17 22.553-.77 1.653-1.568 3.293-2.312 4.957-1.259 2.813-1.734 4.44-3.182 6.963-2.196 3.827-1.445 1.708-3.374 5.762-.427.9-.756 1.843-1.134 2.764-2.424 6.178-4.88 12.346-7.714 18.35-1.33 2.748-1.778 3.597-3.003 6.456-.83 1.937-1.444 3.966-2.347 5.87-.356.75-1.302 2.187-1.824 2.998-2.05 1.612-4.235 3.096-6.15 4.872-2.582 2.395-4.783 5.134-6.788 8.022-1.05 1.416-2.388 3.332-3.636 4.622-2.586 2.675-6.061 4.229-9.14 6.23-.14.076-3.987 2.19-4.505 2.413-2.25.967-4.693 1.533-7.048 2.171-2.03.652-4.051 1.327-6.076 1.996-.293.097-2.317.827-2.914.915-.4.06-.81.028-1.213.043.55-.015 2.198-.03 1.649-.044-2.544-.063-5.805-.162-8.47.13-3.708.406-7.35 1.29-10.922 2.344-3.215 1.08-6.344 2.346-9.692 2.956-1.145.209-2.312.288-3.453.518-.179.036-.293.275-.476.274-1.626-.01-3.246-.198-4.869-.297a453 453 0 0 0-33.048.28c-10.408.61-20.804 1.509-31.24 1.448-3 .088-5.724.194-8.812.077-7.06-.269-4.738-.603-11.667-.978-1.882-.102-3.768-.07-5.653-.096-1.879-.026-3.758-.041-5.637-.062-5.844 0-7.546-.03-14.034.135-4.994.127-9.986.594-14.985.383-12.583-.531-25.392-.826-37.434-4.924-3.118-1.129-8.59-3.038-11.68-4.423-5.827-2.614-11.28-6.204-16.212-10.23-.998-.909-3.151-2.685-4.033-4.013-1.756-2.646-2.223-5.952-3.137-8.92-.74-3.048-1.225-6.147-2.098-9.164-1.26-4.354-1.56-4.542-3.157-8.862-.506-1.371-.97-2.757-1.455-4.136-2.795-9.197-.028-.238-3.019-9.492-2.125-6.572-4.19-13.179-7.556-19.257-3.012-5.769-5.682-11.687-8.406-17.595-.91-1.971-1.738-3.98-2.726-5.913-1.131-2.213-2.417-4.343-3.626-6.514-4.118-6.023-5.287-8.273-10.451-13.588-5.733-5.9-12.57-10.45-19.823-14.241-.61-.586-8.89 8.05-8.28 8.635z" style="fill:#000"/><path d="M727.067 1207.603c-5.68 14.38-7.38 29.904-10.485 44.953-.981 5.553-4.364 10.247-5.453 15.749.762 2.042.379 5.072 2.287 6.126 4.216 2.326 12.465-1.635 16.617-3.115 6.732-2.399 4.985-1.763 12.393-3.838 14.083-4.091 28.503-6.832 42.996-8.99 1.442.26-1.444-.246 2.856.232.256.028.49.204.748.194.088 0-.122-.134-.15-.217-.17-.49-.558-.988-.442-1.494.352-1.545 1.19-2.937 1.786-4.406l5.536-.654c-.242-.27.187.327.296.333.195.012.38-.181.462-.358.27-.588.372-1.24.558-1.858 1.663-5.559 2.58-11.33 2.373-17.146-.13-3.67-.64-6.025-1.24-9.597-.405-3.771-2.427-7.122-3.083-10.82-.208-1.17-.245-2.632-.306-3.81-.289-2.636.496-5.33-.052-7.95-.157-.747-.428-1.465-.642-2.198-.258-.765-11.074 2.893-10.815 3.657-.032-.287-.009-.585-.095-.861-.054-.174.014.364-.003.544-.029.298-.095.591-.136.887-.297 2.166-.537 4.342-.502 6.533.06.919.078 1.842.18 2.757.483 4.35 2.002 8.612 2.324 13.005.436 2.96.779 4.838.957 7.832.304 5.078-.386 10.102-1.146 15.111-.633 4.413-1.06 8.539 2.361 12.006.6.607 1.167 1.429 2.005 1.59 2.51.48 5.11.175 7.666.262 1.048-1.684 2.57-3.154 3.143-5.054.364-1.21-.052-2.573-.487-3.76-1.437-3.91-5.78-6.943-9.81-7.556-2.973-.453-6.007-.315-9.01-.472-2.073.134-4.151.197-6.218.402-5.779.573-9.591 1.28-15.342 2.433-8.226 1.65-16.345 3.727-24.234 6.613-5.643 2.258-7.624 2.875-12.812 5.559-1.485.768-2.925 1.623-4.356 2.488-.922.557-3.418.974-2.699 1.776 10.255 11.442 1.735-11.16 7.123 7.048.91-1.191 1.527-2.543 2.284-3.83 2.297-3.908 4.78-7.713 6.418-11.974.76-2.373 1.621-4.715 2.28-7.117 2.452-8.924 4.141-18.278 5.017-27.488.237-2.484.212-4.986.358-7.477.087-1.467.226-2.931.34-4.396.116-.838-11.729-2.492-11.846-1.654z" style="fill:#000"/><path d="M731.739 1206.931c1.03-2.272 1.701-4.694 2.77-6.95.207-.436.425-.872.712-1.26.072-.097.447-.185.331-.148-1.963.634-3.918 1.294-5.877 1.94-.585-.301-1.101-.825-1.754-.906-.227-.028-.055.456-.042.683.032.587.145 1.168.177 1.755.142 2.626.128 5.277.185 7.907-.197 3.66.122 7.37-.456 11a132 132 0 0 1-1.66 7.268c-.169.819 11.408 3.2 11.577 2.38.165-.693.656-2.71.76-3.334.2-1.212.059-2.498.595-3.64 1.54-4.431 1.7-9.055 1.69-13.715.059-4.713.16-12.891-2.852-16.727-1.04-1.325-2.505-2.253-3.757-3.379-2.67.525-5.457.627-8.007 1.574-.877.326-1.316 1.34-1.87 2.093-2.202 2.995-3.308 6.694-3.854 10.32-.222.801 11.11 3.94 11.332 3.14M805.971 1220.959c.37 5.716.755 11.484 1.58 17.16.475 3.27 1.024 5.384 1.75 8.517.022.082.916 3.152.938 3.898.032 1.072-.196 1.118-.479 2.014-.352 1.118-.558 2.08-.83 3.226-.803 3.31-.636 6.78.93 9.861.275.54.416 1.556 1.02 1.507 3.71-.305 7.26-1.656 10.89-2.484.558-4.545-.598-9.048-1.28-13.521-.13-1.45-.918-2.72-1.216-4.121-.12-.57-.107-1.16-.17-1.74-.341-3.214-.49-6.431-.747-9.655-1.21-8.549-2.673-17.061-4.28-25.544-.447-2.649-1.172-5.237-1.705-7.868-.05-.245-.006-.96-.125-.74-.405 1.972-.058 1.099-.94 2.656-2.295 2.692.436-.267-9.006-1.021-.25-.02-.02.504.004.754.07.755.179 1.505.278 2.257.154 1.16.355 2.314.482 3.478.202 1.845.336 3.697.504 5.545 1.322 11.266 3.492 22.405 5.477 33.566.322 1.525-.238 3.003-.28 4.51-.052 1.89.082 2.226.377 3.958 1.433 4.741 4.897 8.567 10.167 8.914 2.363.156 4.732-.178 7.099-.268 8.373.433 15.497-3.71 23.135-6.3 1.46-.495 2.954-.889 4.431-1.333 1.56-.466 3.112-.962 4.681-1.399 4.106-1.142 8.259-1.936 12.456-2.652 3.393-.579 4.815-.664 2.614-.494.593.377 1.248-.244 1.856-.123.393.08.92.707 1.144.374.221-.33-.658-.507-.808-.875-.108-.266.423.683.672.54 3.246-1.858 6.21-4.171 9.315-6.257.282-2.093.002.255.18-3.007.196-3.588.419-3.779.428-7.83.008-3.604-.282-6.898-.529-10.49-.79-7.443-1.191-15.029-3.306-22.247-.395-2.282-2.345-4.005-2.77-6.244-.736-3.283-1.655-6.545-2.866-9.685l-.364-.738c-.203-.794-11.433 2.078-11.23 2.872l.26 1.29c.989 2.98 1.864 5.998 2.907 8.96a35 35 0 0 0 1.367 3.647c.18.406.473.762.603 1.185.103.337.149.689.223 1.033.343 2.47.404 4.906.54 7.394.37 6.74.166 1.433.699 8.643.116 1.574.177 3.151.265 4.727.371 4.807.795 9.607 1.22 14.41.086.964.394 5.055.593 6.294.14.874.373 1.73.56 2.596 3.3-1.439 6.546-3.007 9.9-4.316.149-.058.476.427.368.308-.554-.613-1.1-1.24-1.713-1.794-.227-.206-.526-.315-.79-.47-3.265-1.92-1.534-1.114-5.42-2.392-2.361-.01-4.725-.128-7.085-.028-2.791.118-5.691.835-8.414 1.35-4.826.914-9.632 1.877-14.237 3.657-4.633 1.626-4.617 1.608-9.123 3.238-5.248 1.9-10.478 3.827-16.109 4.217.23.16.68.202.689.482.011.344-.445.527-.646.807-.821 1.145-.65.74-1.49-.189l-.256-.68c-.052.076-.113.313-.156.23-.088-.165.399-1.324.416-1.38.747-2.434.574-2.015.992-4.737.099-1.109.263-2.214.297-3.326.331-10.859-2.216-21.597-4.52-32.123-.536-1.9-1.063-3.804-1.61-5.702-1.253-4.353-4.182-17.897-13.057-10.418-.411.55-.928 1.033-1.233 1.647-2.07 4.167-.99 9.14-.58 13.523.364 2.242 1.086 6.815 1.512 8.994 1.027 5.244 2.487 10.418 2.955 15.761.712 5.43 1.544 10.836 3.073 16.106.404 2.084.67 4.181 1.088 6.262.2 1 .237 2.064.687 2.978.04.082.184-.01.275-.014 19.57-1.058 10.509 2.146 10.007-1.344-.111-.773-.024-1.748.01-2.51.515-1.843 1.238-3.678 1.546-5.57.417-2.563.246-5.242.093-7.813-.843-8.764-1.722-17.699-4.641-26.049-.152-.816-11.693 1.328-11.542 2.144zM894.972 1193.242c.146 9.227 2.103 18.286 3.997 27.278.702 3.92 2.327 7.664 2.778 11.625.04 4.294.817 8.209 2.345 12.208 1.094 3.134 2.709 6.786 6.506 7.506 4.668.885 6.94-.137 10.86-1.324 4.823-1.616 9.7-3.085 14.43-4.964.835-.331 1.686-.63 2.49-1.03.738-.368 1.417-.845 2.126-1.267 3.174-2.363 2.696-1.381-2.799-.735-.036 0-.111-.084-.075-.08 1.764.135 3.524.32 5.286.48-1.494.098 4.335-.691 3.232-.714-.954-.02-1.89.273-2.843.325-.056 0-.065-.172-.009-.168.51.029 1.015.371 1.512.253 2.218-.53 4.326-1.443 6.489-2.164.45-.548.977-1.042 1.35-1.645 2.815-4.563 4.149-10.86 5.5-16.005 2.273-8.046 3.322-16.4 2.631-24.757-.152-1.844-.52-3.664-.78-5.496-1.31-5.92-3.91-11.531-7.23-16.595-.575-.742-.047-2-.633-3.37-.41-.956-1.032-1.806-1.547-2.709-.958-.687-1.816-1.539-2.872-2.062-2.825-1.401-6.7-.991-9.532-.931-5.307.113-10.307 1.47-15.395 2.84-8.28 2.316-16.423 5.347-23.721 9.94-.271.103-.525.276-.813.307-.082.01.18-.232.097-.23-.326.01-.63.169-.945.248-2.211.556-3.252 2.157-4.443 3.897-2.554 6.938-1.81 14.358-.732 21.511l.768 2.783c.148.856 12.252-1.243 12.104-2.1l-.211-1.934c-.277-3.36-.568-6.72-.833-10.081-.086-1.086-.174-2.171-.252-3.257-.045-.638.077-1.307-.118-1.916-.05-.152-.316.044-.474.066-.93 1.108-.309.486-2.042 1.67-.14.151.408-.06.614-.074 1.5-.103 2.932-.552 4.335-1.095 7.737-2.555 15.54-4.894 23.31-7.346 2.144-.698 6.915-2.32 9.308-2.87 1.027-.237 2.155-.07 3.124-.482.358-.152-1.057.01-1.103-.377-.045-.368.666-.328.999-.492l-.452-1.217c-.112-.471-.26-.935-.335-1.414-.01-.066.064-.242.086-.18.403 1.18-.029 3.445.77 4.763 1.37 4.813 3.711 9.318 4.65 14.266.191 1.457.443 2.908.575 4.371.653 7.235.192 14.623-1.567 21.672-1.688 7.056-.048.118-1.585 6.859-.382 1.671-.916 3.312-1.176 5.006-.032.208.053.416.08.624l-.015.09c1.722-.355 3.43-.785 5.165-1.065.085-.014.238.225.154.207-.648-.138-1.24-.554-1.902-.579-2.536-.094-4.306.26-6.56.57 1.134.186 2.253.506 3.401.56.477.023-.877-.467-1.354-.464-4.261.024-4.955.407-8.067 1.387-6.33 1.516-12.418 3.731-18.434 6.2-4.392 1.63-1.686.128.375 1.544 1.107.762.904 3.128.266 1.399-.167-.452-.253-.93-.379-1.394-.951-3.263-1.39-6.637-2.148-9.945-.38-4.214-.306-8.464-.979-12.663-.398-2.654-1.105-7.53-1.593-10.078-1.053-5.499-2.601-10.883-4.09-16.274-.077-.826-11.753.263-11.676 1.088zM695.261 1200.984c-.488 5.425.385 10.83 1.016 16.202.601 5.116.477 4.124.92 9.203.557 6.231-.022 12.477.652 18.694-.097 4.158 1.452 8.375 1.61 12.44-.516-.502 1.261-3.794 1.157-3.871-.541-.404-1.39.124-2.024-.11-.208-.076.321-.305.482-.458l-3.59-.468c-7.207-.503-14.536-.9-21.738-.036-3.379.406-4.915.84-8.142 1.578 5.812.282-5.34.952-3.977 1.197 1.112.2 2.266-.011 3.388.127.136.017.337.211.256.321-2.162 2.938-4.877 5.474-6.801 8.573-.228.367.604.615.906.923-.052-.076-.227-.285-.155-.228 4.205 3.319-1.508 1.201 1.535-8.49.287-.914 1.908-.182 2.862-.273-.784-.226-3.977 10.862-3.193 11.088 1.592-.069 3.89 1.118 4.776-.207 8.405-12.579-1.213-12.026 2.925-8.973.273.201-.454-.506-.681-.76 2.178 3.517-9.929 8.241-6.594 8.699 1.646.226 3.31.31 4.97.356 1.26.035 3.656-.34 4.838-.498 2.599-.338 4.238-.603 6.887-.728 8.645-.407-.305.308 8.787-.195.352-.02.689-.173 1.04-.184 1.274-.039 2.548.022 3.822.033 4.708.346 12.68 1.408 16.826-1.666 2.526-1.873 2.497-3.163 3.37-5.886-.01-4.36-.955-8.577-1.442-12.893.041-6.357.848-12.693.699-19.058-.699-8.546-1.867-17.043-3.627-25.44-.07-.83-11.83.156-11.76.988z" style="fill:#000"/><circle cx="720.537" cy="1317.981" r=".368" style="fill:#000;stroke:#000"/><path d="M725.671 1318.91c1.459-6.318 2.36-12.74 3.604-19.097.205-1.103.396-2.21.615-3.31 1.104-5.553.51-1.792 1.345-7.33.24-1.597.362-3.792.873-5.394-1.938 4.36 4.83-5.916 1.018-.518.663.209.929-.92 1.404-1.368.12-.113.48-.415.418-.262-.208.509-.75.861-.882 1.396-.052.213.593.388.413.513-.395.273-.951.125-1.426.188 3.83.583 3.63.695 9.118.137 1.153-.117 2.24-.61 3.379-.823 2.345-.44 3.167-.263 5.562-.438 1.223-.09 2.44-.237 3.66-.355 3.789-.352 3.526-.5 7.24-.187.16.013.29.162.45.173a72 72 0 0 0 4.463.187c8.78.095 5.048-.403 7.821-.025 2.342.088 3.873.182 6.216.126.563-.013 1.182.13 1.685-.122.501-.252-1.361-.808-1.077-1.291 1.832-3.114 4.19-5.887 6.286-8.83-1.864.01-3.782-.424-5.593.02-1.102.27-1.942 1.215-2.74 2.023-2.021 2.046-2.73 5.353-2.499 8.13.09 1.084.404 2.138.606 3.207.297.868.541 1.757.89 2.606.348.846.84 1.628 1.199 2.47 1.19 2.788 1.815 5.748 2.35 8.715.593 4.169.794 8.399 1.738 12.51.466 1.284.58 2.68 1.084 3.946.102.797 11.366-.646 11.264-1.443.019-1.482-.356-2.915-.604-4.369-.522-4.13-.95-8.276-1.187-12.434-.506-3-1.104-5.97-2.181-8.83-1.305-3.463-.816-1.823-2.036-4.259-.26-.517-.477-1.054-.716-1.581-.155-.249-.348-.477-.465-.745-.102-.233-.003-.562-.184-.741-.095-.094-.218.156-.323.24-2.003 1.596-2.376 1.21-5.618.732 2.495-2.843 5.52-5.297 7.486-8.53.355-.582-.834-1.099-1.376-1.511-2.727-2.074-3.887-1.676-6.97-1.992-1.172-.12-2.333-.33-3.5-.495-2.446-.11-4.892-.236-7.34-.331-1.616-.063-3.234.08-4.85.049-5.326-.1-10.615-.558-15.89.475-3.414.45-6.785.892-10.163 1.567-.73.146-1.694-.117-2.192.437-.34.38 2 .283 1.493.342-.873.1-1.752-.14-2.629-.21-1.813-.056-3.627-.25-5.439-.166-2.479.114-3.54.94-5.554 2.468-.297.226-.569.52-.716.863-.101.238.4-.33.571-.524.108-.123-.254.206-.38.308-.493.617-.978 1.24-1.477 1.852-.378.461.92-.807 1.184-1.34.118-.238-.489.21-.709.358-1.873 1.25-1.551 1.21-3.211 3.235-.395.755-.858 1.477-1.185 2.263-2.124 5.109-1.911 10.877-3.456 16.142-1.28 6.607-2.622 13.334-2.543 20.083-.077.826 11.599 1.914 11.676 1.089zM822.874 1303.046a72.8 72.8 0 0 0-4.478-19.488c-.464-.538-1.177-3.36-1.652-3.848-.121-.125.06.346.06.52-.012 1.238-.052 1.237-.25 2.317.211-.174.39-.396.633-.52.635-.327.61.131 1.313.03.657-.094 1.28-.353 1.925-.51 2.379-.576 1.962-.452 4.431-.77 4.82-.044 8.03.04 13.123.445 3.922.182 3.758.235 8.773.024 3.155-.133 2.084-.326 5.079-.546.576-.042 1.156.03 1.732-.013.491-.037-.985 0-1.477-.01 4.853.234 9.805.62 14.654.053.406-.048-.817-.016-1.226-.025 1.99-.431 4.883.553 6.618-.275.993-.474-2.206 0-3.295-.155-.254-.036-.46-.237-.657-.402-.536-.447-1.023-.951-1.534-1.427-.14-.182-.373-.77-.418-.546-.023.114.745 2.546.764 2.617.57 2.188.92 4.366 1.178 6.609.65 4.669 1.082 9.362 2.37 13.915.657 2.324 1.16 3.53 1.984 5.704.904 1.03.672 2.799 1.388 3.916.09.14-.003-.336.024-.501.469-2.883.1-1.8 1.657-4.169-1.17-1.002 2.101-.728 1.533-.742-4.448-.113-8.36.4-12.602 1.53-4.474 1.384-9.1 2.319-13.773 2.64-.59-.016-1.19.056-1.772-.05-.339-.062 1.368-.017 1.03-.085-.743-.15-1.511-.11-2.267-.164-.353-.025-4.24-.313-4.628-.311-1.994.01-3.987.115-5.98.173-4.383-.143-8.687-.617-13.085-.502-2.343.06-4.682.207-7.023.31-1.666.406-3.416-.05-5.09.237-.402.069.849-.067 1.222.099.189.084-.703.01-.594.18.287.466.953.573 1.313.985.49.559.796 1.254 1.193 1.882.118.01.25.076.354.019.517-.282 1.2-1.914 1.233-1.983.809-1.704 1.545-3.463 2.247-5.214.997-2.995 1.083-6.178 1.535-9.282l.205-1.488c.09-.828-11.623-2.11-11.713-1.281l-.166 1.353c-.319 2.212-.237 4.522-1.039 6.628-1.313 2.668-3.547 6.862-4.039 9.703-.175 1.01-.087 2.048-.131 3.073.513 1.356.727 2.868 1.54 4.07 2.338 3.463 6.341 3.046 9.914 3.19 2.988.119 2.68.077 5.855.027-1.338-.616-.286-.09 3.27.011 5.585.16 11.195.167 16.757-.424-.517-.052-2.072-.187-1.553-.155 5.072.314 10.141 1.044 15.238.59 5.27-.47 10.37-1.685 15.405-3.306 2.015-.492 1.424-.413 3.569-.658.585-.067 1.37.273 1.758-.17.325-.37-1.958-.127-1.467-.162 7.357-.526 2.829.585 7.54-.81.94-.803 2.116-1.393 2.82-2.41 2.052-2.955.913-6.809.24-9.947-.977-3.738-2.083-7.649-2.754-11.443-.203-1.15-.265-2.32-.438-3.476-.168-1.12-.39-2.233-.585-3.35-.596-2.676-.711-3.62-1.577-6.077-.77-2.188-1.889-4.25-2.649-6.443-.641-.682-2.071-2.722-3.449-2.96-1.368-.236-2.803.03-4.155-.285-.831-.194 1.71 0 2.558-.087.924-.1-6.062-.203-2.75-.453-5.77-.076-3.912-.167-7.994.053-.804.043-1.616 0-2.41.139-.31.053 1.238.022.937.11-.552.164-1.147.138-1.721.121-.67-.02-1.332-.153-1.998-.23-3.454-.102-6.442-.112-9.833.079-.782.044-1.572.012-2.349.118-.254.035 1.019.069.764.098-.696.079-1.4.036-2.1.054-7.36-.73-14.831-1.824-22.152-.115-4.8 1.237-9.98 2.727-12.899 7.073-.353.69-.815 1.336-1.059 2.072-.935 2.822.094 5.385.751 8.098 1.45 6.233 2.401 12.607 4.464 18.68.161.837 11.991-1.445 11.83-2.281zM903.806 1290.632c.236-2.814-.151-5.593-.394-8.385-.217-2.503-.23-4.63-.542-7.127-.137-1.094-.365-2.175-.548-3.263-.024-2.368-1.688-4.752-1.337-7.135-.04.415-.097.828-.12 1.245-.02.355-.312.878-.011 1.068.37.234.855-.21 1.29-.26.605-.071 3.194-.12 3.567.018.2.074-.178.39-.266.585 7.752.151 15.537.89 23.299.522 2.057-.097 4.104-.346 6.15-.578 1.723-.196 3.458-.341 5.153-.704 1.405-.3 2.745-.852 4.118-1.278.71-.35 1.481-.598 2.132-1.05 1.925-1.338 5.34-4.778 3.402-7.623-1.31-1.922-7.648-5.557-9.664-3.122-1.262 1.524-2.015 3.406-3.023 5.11-.702 5.93 1.204 11.584 2.926 17.165.437 1.562.507 3.207.443 4.822-.012.319-.292 1.212-.336.896s.078-.633.117-.95c.094-.326.525-.742.282-.981-.323-.319-.909-.135-1.36-.08-2.516.31-5.088 1.517-7.02 3.158-.637.542-1.15 1.214-1.726 1.82-1.161 1.524-1.922 3.142-2.555 4.937-.126.358-.14.763-.34 1.085-.057.09-.222-.067-.32-.025-.23.098-.413.282-.62.423l-.62.26c-.382.27-.723.607-1.143.808-.272.13-.602.072-.887.166-2.106.69-4.136 1.773-6.174 2.638-.744.273-1.491.536-2.232.819-.861.329-1.762.576-2.573 1.014-2.728 1.475-3.116 2.142-5.342 4.028-1.03.872-2.1 1.693-3.149 2.542-.303.178-1.822 1.082-2.17 1.241-.187.085-.684.352-.594.167.436-.907 4.743-1.568 3.91-.345.228.188.465.367.686.564.039.035-.1-.04-.139-.075-.257-.224-.478-.49-.748-.699-1.118-.87-1.654-1.124-2.686-1.794.04.044.087.182.118.132.04-.065-.048-.147-.062-.222a15 15 0 0 1-.193-1.363c-.133-1.465-.128-2.298-.17-3.818-.014-.786-.045-1.572-.043-2.358.002-.888.076-1.775.055-2.661-.064-2.681-.534-5.317-.942-7.96-.369-1.552-.112-2.876-.704-.311.259-.741-10.217-4.403-10.476-3.663-.41 1.634-.636 3.271-.512 4.957.19 4.257.048 8.523.37 12.776.548 4.781 1.101 9.67 4.869 13.098.746.47 1.37 1.2 2.218 1.444.204.06-.263-.373-.255-.586.004-.102.195.074.27.142 2.794 2.54-2.245-1.587 2.546 2.22 5.164 2.217 9.15.374 13.344-2.51 2.101-1.544 4.195-3.355 6.567-4.48.826-.392 1.692-.694 2.534-1.05.901-.382 1.797-.777 2.695-1.166 3.997-2.049 8.207-3.9 11.338-7.227 1.577-2.122 1.3-1.514 2.42-4.04.163-.369.178-.792.346-1.158.211-.458.175-.395.497-.539.81-.265 1.519-.643 2.356-.849 2.627-.645 5.06-.983 7.231-2.856.688-.894 1.498-1.706 2.063-2.682 2.149-3.713 1.359-8.37.705-12.339-.527-2.325-1.188-4.604-1.757-6.917-.377-1.53-.578-3.105-1.045-4.61-.096-.31-.292-.578-.438-.868-3.027 2.951-5.371 6.171-9.72-1.375-.896-1.554.824-3.496 1.385-5.2.099-.298.85-.596.574-.747-.558-.305-1.272.012-1.908.018-4.634.259-9.241.291-13.882.316-3.648.019-10.112 0-13.753.439-.704.086-1.34.466-2.01.7-2.627.052-5.263-.056-7.882.154-4.005.323-8.76 2.49-10.914 6.02-.487.799-.616 1.767-.924 2.65-.247 3.14-.156 6.27.187 9.404.478 6.215 1.22 12.424 2.39 18.546.078.826 11.753-.263 11.676-1.088z" style="fill:#000"/><path d="M883.317 1297.261c-.698-3.182-1.533-7.67-1.854-9.975-.856-6.146-4.633-15.706-6.753-17.095-1.439-.943-7.238-1.276-27.09-1.558-26.063-.37-29.806-.04-36.007 3.169-4.17 2.157-18.935 1.975-23.618-.292-5.206-2.52-27.916-3.293-40.599-1.381-5.038.759-10.582 1.353-12.32 1.32l-3.16-.06 3.398-1.253c7.745-2.855 31.118-8.162 48.123-10.927 1.489-.242 2.745.193 3.743 1.295 1.124 1.243 2.616 1.659 5.945 1.659 3.785 0 4.647-.31 5.816-2.094 1.724-2.632 1.759-6.322.082-8.715-1.026-1.466-1.117-2.586-.445-5.5 1.481-6.423 1.055-18.472-.915-25.825-3.024-11.292-3.026-11.394-.187-11.394 2.748 0 2.168-2.246 7.524 29.102 1.098 6.427 2.262 12.52 2.586 13.54s.544 3.792.489 6.158.307 5.54.804 7.053l.904 2.749 9.072-.451c11.942-.595 17.115-1.557 25.26-4.698 8.205-3.166 24.346-7.413 29.27-7.704 5.452-.322 12.01-5.19 12.994-9.645 1.585-7.176-1.29-37.577-4.085-43.177-.71-1.423-.998-2.847-.64-3.165.57-.506 7.832-2.507 9.098-2.507.26 0 .512 1.816.558 4.036.121 5.758.987 8.244 2.972 8.534 1.459.213 2.067 1.841 4.127 11.045 1.328 5.938 2.693 12.943 3.033 15.568.878 6.783 3.1 12.937 5.477 15.171 4.286 4.026 8.676 3.257 33.162-5.808 1.402-.519 4.714-1.523 7.36-2.231 4.35-1.165 4.976-1.632 6.55-4.896 2.523-5.235 5.938-18.616 6.907-27.066 1.083-9.453-.06-18.574-3.293-26.269l-2.474-5.889 9.893-3.075c11.22-3.488 20.66-7.952 29.672-14.031 3.402-2.295 6.349-4.173 6.548-4.173.795 0-2.082 6.68-5.062 11.753-4.268 7.264-9.62 18.927-15.373 33.5-2.627 6.654-6.874 16.304-9.438 21.445-2.563 5.14-6.883 14.507-9.598 20.816s-6.206 14.294-7.757 17.745c-2.718 6.05-2.844 6.188-3.511 3.824-.381-1.349-.476-3.689-.212-5.201.265-1.512.093-3.474-.38-4.359-.964-1.801-7.365-4.674-8.648-3.881-.456.281-9.64.856-20.408 1.276s-21.027 1.155-22.795 1.631c-4.39 1.182-7.487 3.801-8.344 7.059-.394 1.497-.5 10.943-.234 20.99.265 10.047.479 18.319.475 18.38-.004.063-1.215.372-2.69.688l-2.682.574zM709.665 1304.147c-12.709-3.284-25.672-9.904-33.131-16.92-4.252-3.997-4.642-4.72-6.624-12.267-1.158-4.41-1.908-8.217-1.666-8.46.242-.242 8.62-.598 18.619-.792 15.9-.308 18.507-.553 20.803-1.95 3.455-2.1 4.58-5.216 3.799-10.516-.345-2.337-.726-11.896-.848-21.242-.13-10.106-.702-19.49-1.409-23.153-.89-4.612-.937-6.16-.19-6.16 1.728 0 9.997 1.643 13.824 2.747 4.156 1.198 4.098.109.64 12.122-1.21 4.206-3.381 13.956-4.823 21.666s-3.731 16.887-5.087 20.392c-2.977 7.695-3.18 12.038-.68 14.538 1.81 1.81 3.524 1.843 10.952.206l2.124-.467-2.264 1.995c-3.468 3.057-4.877 6.695-6.792 17.533-.967 5.474-2.001 10.383-2.299 10.91-.396.702-1.719.653-4.948-.182" style="fill:#000;stroke-width:.84965301"/><path d="M1082.36 1500.842c27.473-25.575 12.477-11.342 44.804-42.893 1.635-2.395-32.23-25.524-33.865-23.13-26.75 36.7-15.522 19.32-34.625 51.52-1.026 1.674 22.661 16.178 23.687 14.503M1089.282 1328.276c9.141-15.887 18.04-31.94 28.949-46.728 14.175-19.215 31.876-39.531 48.046-56.84 9.237-9.889 18.936-19.335 28.404-29.002 1.854-2.475-33.15-28.694-35.005-26.22-9.96 10.558-20.546 20.559-29.88 31.673-18.438 21.95-30.488 40.696-43.81 65.635-7.578 14.188-13.443 27.791-18.044 43.074-1.261 4.187-1.945 8.526-2.918 12.79-.397 1.715 23.86 7.333 24.258 5.618M1179.024 1363.574c23.326-18.888 47.28-36.902 72.21-53.639 12.648-8.492 25.59-16.537 38.386-24.806 2.348-2.257-29.58-35.468-31.928-33.21-12.626 9.588-25.68 18.639-37.88 28.765-23.897 19.838-46.22 42.067-63.019 68.326-1.03 1.572 21.2 16.136 22.23 14.564M313.181 1374.864c-16.13-25.096-34.94-48.68-55.717-70.102-8.593-8.86-17.356-17.591-26.708-25.646-10.53-9.07-21.908-17.107-32.861-25.66-43.482-27.903-22.278-15.216-63.416-38.39-2.083-1.828-27.918 27.642-25.834 29.468 37.48 25.843 17.796 12.709 59.154 39.252 10.634 7.225 21.638 13.934 31.903 21.675 9.43 7.112 18.22 15.044 27.104 22.827 19.476 17.062 37.516 35.678 56.973 52.747 2.905 2.548 6.005 4.864 9.008 7.296.952 1.442 21.346-12.025 20.394-13.467M285.212 1097.805c-1.846-3.516-3.28-7.283-5.54-10.549-9.194-13.29-19.74-23.587-32.027-34.2-14.932-12.897-34.569-27.142-51.103-37.677-9.843-6.27-20.093-11.877-30.14-17.815l-29.411-14.427c-2.177-1.635-25.304 29.143-23.128 30.778l27.51 14.343c9.7 5.242 19.564 10.194 29.102 15.728 15.577 9.037 36.215 22.832 51.284 32.97 8.682 5.841 24.927 16.523 33.63 24.117 2.77 2.418 5.06 5.336 7.59 8.005.797 1.572 23.03-9.7 22.233-11.273M382.109 782.607c-.05-31.28-12.572-57.146-33.922-79.913-6.652-7.094-14.319-13.163-21.479-19.745-34.276-23.488-16.508-13.143-53.233-31.157-2.103-1.534-23.795 28.213-21.692 29.747 32.579 15.538 16.478 7.032 48.26 25.596 6.696 4.942 13.77 9.408 20.087 14.826 10.038 8.612 18.316 18.478 25.025 29.837 6.002 10.161 9.274 21.432 13.11 32.477.119 1.686 23.962.018 23.844-1.668M476.152 136.407c-3.055-1.85-6.007-3.88-9.165-5.548-7.963-4.208-28.904-13.575-35.785-16.534-8.679-3.732-17.316-7.585-26.17-10.88-10.57-3.935-21.377-7.198-32.066-10.798-2.442-1.302-20.867 33.23-18.426 34.533 10.515 2.597 21.1 4.923 31.545 7.79 9.267 2.544 18.351 5.712 27.567 8.436 15.676 4.633 31.432 8.941 47.475 12.113 1.351 1.062 16.376-18.05 15.025-19.112" style="fill:red"/><path d="M1071.02 167.19c21.194-16.258 8.724-7.044 37.788-27.124 1.73-2.008-26.665-26.476-28.395-24.468-24.07 26.875-14.29 14.573-30.314 36.111-1.095 1.48 19.827 16.96 20.921 15.48M1203.376 699.055c10.81-5.768 4.957-2.203 17.214-11.241 1.33-1.476-19.544-20.302-20.875-18.826-9.95 9.615-5.225 5.06-14.173 13.669-1.16 1.261 16.675 17.66 17.834 16.398M308.347 1161.07c2.67 1.012 5.56 1.569 8.01 3.035 9.156 5.48 27.637 22.283 33.434 27.218 26.969 22.964 54.287 45.504 81.527 68.143l21.318 17.884c1.63 2.017 30.15-21.042 28.519-23.059l-19.72-21.225c-8.752-7.896-17.257-16.074-26.256-23.687-16.965-14.353-40.807-32.563-59.482-44.793-13.35-8.743-31.662-19.723-47.45-24.992-3.66-1.222-7.633-1.13-11.45-1.695-1.638-.598-10.088 22.574-8.45 23.171M448.118 1519.218c-22.09-25.574-48.383-47.036-74.544-68.25-31.074-25.011-65.82-45.31-102.699-60.503-7.234-2.98-14.696-5.375-22.045-8.062-1.989-1.304-20.431 26.822-18.442 28.126 22.724 10.609 18.68 8.47 42.79 20.894 8.508 4.383 17.095 8.624 25.434 13.317 19.401 10.919 30.837 18.908 49.42 31.137 18.636 13.302 37.474 26.342 55.972 39.835 6.927 5.053 12.937 10.023 20.193 14.466 1.42.87 2.987 1.47 4.481 2.204.931 1.375 20.37-11.79 19.44-13.164M1118.3 1313.644c11.55-9.202 22.049-19.614 33.309-29.146 9.146-7.743 18.634-15.073 27.863-22.717a2830 2830 0 0 0 80.326-69.079l14.64-13.847c1.634-1.648-21.679-24.757-23.313-23.109l-18.802 11.106c-8.43 5.982-17.057 11.695-25.29 17.945-37.815 28.703-73.107 61.245-100.902 99.94-3.365 4.686-6.213 9.722-9.32 14.583-1.013 1.52 20.477 15.843 21.49 14.324" style="fill:#ff0"/><path d="M1204.755 707.49c3.51-3.218 7.173-6.278 10.532-9.653 14.905-14.976 28.23-31.474 41.979-47.482 11.655-13.57 10.128-11.716 21.079-23.411-13.628-1.149 13.984-7.002 9.868-7.972-2.36-.556-4.769.87-7.153 1.305 1.629.421 7.586-22.622 5.957-23.043-4.6.43-9.283.314-13.797 1.292-5.507 1.193-13.408 6.907-17.634 9.584-4.007 3.285-8.192 6.363-12.02 9.854-23.732 21.642-42.367 48.067-59.88 74.789-1.042 1.49 20.027 16.227 21.07 14.737M265.71 148.865c1.421.863 2.917 1.615 4.263 2.59 3.43 2.486 6.667 5.227 10.045 7.781 4.982 3.766 10.094 7.36 15.035 11.179 12.987 10.037 25.547 20.618 38.479 30.726 6.818 5.328 13.753 10.505 20.63 15.757 14.42 11.75 30.104 21.616 46.261 30.724 1.415 1.422 21.53-18.588 20.115-20.01-12.908-12.551-26.383-24.47-40.765-35.338-21.646-17.009-19.823-16.082-42.675-31.97-18.895-13.136-38.441-26.695-61.09-32.375-1.481-.728-11.778 20.207-10.298 20.936" style="fill:#ff0"/><path d="M1180.689 200.455c26.908-22.232 53.068-45.34 80.817-66.545 5.924-4.527 11.986-8.87 17.978-13.306 10.846-7.753 21.505-15.759 31.915-24.084 1.468-1.152-14.82-21.908-16.288-20.756-2.972 1.09-6.034 1.96-8.915 3.27-11.664 5.301-19.198 10.4-30.462 17.211-6.58 4.556-13.336 8.869-19.742 13.666-6.836 5.12-13.437 10.553-19.959 16.067-17.628 14.904-34.58 30.85-48.811 49.101-2.969 3.806-5.48 7.948-8.219 11.922-.951 1.534 20.734 14.987 21.686 13.454M1294.042 1402.36c32.808-19.263 65.584-38.643 96.918-60.262 7.89-5.445 15.551-11.215 23.327-16.823 1.935-1.765-23.024-29.127-24.959-27.362-8.408 5.023-16.957 9.817-25.225 15.068-27.177 17.26-53.417 36.183-76.89 58.297-4.43 4.174-8.386 8.826-12.58 13.238-1.261 1.373 18.147 19.217 19.409 17.845M1317.23 687.16c16.448-9.579 33.709-17.682 50.076-27.402 10.443-6.201 13.346-8.426 22.62-14.873 1.535-1.26-16.288-22.962-17.823-21.702-26.277 12.214-52.48 26.45-72.708 47.579-1.16 1.26 16.675 17.66 17.835 16.398M564.046 1360.553c-1.637-3.081-3.058-6.288-4.912-9.245-18.903-30.134-44.352-56.083-70.542-79.852-9.027-8.193-18.45-15.937-27.675-23.906l-28.76-21.35c-1.987-2.014-30.45 26.08-28.464 28.092l26.902 20.405c39.78 32.856 15.18 12.482 54.064 44.816 7.657 6.367 15.514 12.502 22.979 19.095 5.654 4.993 10.88 10.451 16.355 15.64 19.173 18.168 4.776 4.15 18.693 17.806.814 1.51 22.174-9.99 21.36-11.5M247.266 1516.514c-25.778-20.977-51.898-41.7-79.4-60.401-7.342-4.993-14.92-9.63-22.38-14.445-1.848-1.715-26.109 24.415-24.261 26.13 22.314 15.615 44.645 31.313 68.108 45.188 6.407 3.79 13.025 7.21 19.567 10.761 4.571 2.482 9.11 5.029 13.772 7.338 2.972 1.473 6.074 2.668 9.112 4.001 1.313 1.095 16.796-17.477 15.482-18.572M357.363 846.38c-7.293-12.726-17.979-22.081-28.671-31.802-1.41-1.613-24.213 18.315-22.804 19.927 10.293 8.53 20.548 17.109 31.08 25.341.953 1.442 21.347-12.024 20.395-13.466M104.593 191.842c2.463 2.272 4.873 4.6 7.387 6.815 14.604 12.87 13.152 10.986 29.524 24.69 18.325 15.337 36.17 31.237 54.332 46.767 9.482 8.216 19.196 16.154 28.484 24.59.927 1.6 23.553-11.513 22.626-13.113-1.419-2.757-2.582-5.66-4.255-8.27-6.801-10.607-12.083-15.356-20.976-25.05-14.02-13.448-20.813-20.463-36.169-33.012-19.991-16.339-41.63-30.734-64.97-41.835-1.302-1.13-17.285 17.288-15.983 18.418" style="fill:green"/><path d="M1414.989 836.966c-25.08 35.755-47.7 73.192-71.071 110.092-9.698 15.756-5.606 8.452-12.584 21.73-1.463 2.46 32.98 23.37 34.444 20.91 11.22-11.088 4.993-4.6 18.343-19.786 11.12-14.805 17.862-23.181 27.924-39.283 15.496-24.798 29.055-51.163 38.388-78.968 1.029-2.532-34.415-17.226-35.444-14.695" style="fill:#00f;stroke-width:1.59725046"/><path d="M112.626 713.438c12.066 28.536 27.3 56.095 46.593 80.429 4.051 5.11 8.59 9.815 12.886 14.723l10.376 9.915c1.174 1.689 25.06-14.921 23.886-16.61l-7.641-10.488c-12.24-16.37-23.98-33.007-35.553-49.855-5.34-7.775-15.61-23.006-21.639-30.935-2.383-3.134-5.025-6.063-7.538-9.095-.842-1.511-22.213 10.405-21.37 11.916M979.996 1449.732c18.662-14.973 36.88-30.457 55.034-46.039 1.688-2.06-27.458-25.93-29.146-23.87-7.115 7.294-14.498 14.334-21.344 21.88-10.916 12.032-16.584 20.013-25.772 32.249-1.116 1.5 20.112 17.281 21.228 15.78M1039.603 175.195c23.008-16.83 44.094-35.996 65.183-55.109 1.742-2.095-27.888-26.728-29.63-24.633-7.847 7.365-16.007 14.41-23.54 22.096-19.163 19.546-19.87 21.812-34.566 41.871-1.115 1.595 21.437 17.37 22.553 15.775M1221.417 273.783c15.93-10.704 32.043-21.208 47.714-32.291 6.122-4.33 12.069-8.903 18.103-13.354 1.702-1.676-21.992-25.745-23.694-24.07-6.23 4.424-12.604 8.65-18.689 13.272-15.687 11.916-30.948 24.76-43.256 40.243-1.146 1.402 18.677 17.602 19.822 16.2M589.19 192.124c-7.151-15.251-16.697-29.303-27.239-42.404-5.11-6.35-10.681-12.313-16.022-18.47-1.42-1.97-29.272 18.108-27.852 20.077 16.794 17.176 33.3 34.61 49.276 52.555.831 1.544 22.669-10.214 21.837-11.758" style="fill:#00f"/><path d="M555.38 729.371c-38.849-12.558-82.023-10.83-117.648-33.245-48.978-25.192-95.97-54.69-135.425-93.529-36.67-21.38 18.453-61.04 32.944-23.542 31.088 29.229 66.02 55.301 106.313 70.03 51.296 25.465 111.288 30.384 167.367 21.894 32.029-1.834 49.58-31.427 71.204-50.977-33.713-9.754-21.427-54.487-38.172-78.635-11.086-24.645 4.544-45.036 29.339-44.143-5.504-50.142-6.976-101.893-10.986-152.69-3.761-69.358-8.584-139.148-2.74-208.473-3.825-25.337 24.317-71.036 41.49-30.553 17.97 38.178 11.944 81.67 14.976 122.569 1.242 65.938-.998 131.87-2.79 197.776 1.952 28.814-7.137 58.786.87 86.753 20.041 10.425 36.946 25.428 24.983 51.011-1.3 18.343 5.842 37.8.409 56.095-27.424 15.412-21.522 59.037-53.758 71.04-28.765 24.568-68.398 32.872-104.743 38.774-7.878.261-15.756-.086-23.634-.155M577.12 724c24.184-8.271 38.712-62.921-1.658-45.13-12.925 7.99-25.368 36.28-26.91 42.945 8.964 3.158 19.411 6.745 28.567 2.185m30.597-2.907c28.14 3.492 48.156-68.628 7.618-48.818-18.013 13.626-13.764 43.651-35.865 53.878 9.576-.551 19.044-2.398 28.247-5.06M541.3 717.75c29.593-7.973 23.425-60.191-8.603-35.927-12.128 15.987-33.392 41.146 1.187 36.732l3.735-.142zm90.53-3.274c36.023-1.283 48.774-36.311 37.163-66.121-19.98-20.117-31.457 31.404-29.976 47.655.583 3.482-22.645 25.174-7.187 18.466m-114.362-13.355c33.557-29.097-38.188-41.546-40.807-7.145-27.576 13.819 37.02 28.352 40.807 7.145m-50.36-1.755c38.722-15.56-2.948-56.18-21.185-20.283-27.307 12.284 8.58 23.237 21.185 20.283m213.283-8.51c31.254-5.269 20.814-72.295-4.135-64.089-13.679 21.48 7.859 50.5-4.42 72.361 2.984-2.622 5.562-5.658 8.555-8.271M438.7 680.829c39.754-18.056-22.262-48.981-35.564-19.762-24.55 9.087 29.456 25.45 35.563 19.762m270.223-17.367c19.053-12.582 1.1-62.696-12.265-39.327 3.606 5.447 1.575 59.692 12.265 39.327m-310.134-1.68c49.812-13.755-32.693-49.765-30.514-10.691 9.052 4.714 19.444 18.572 30.514 10.692m-26.328-24.024c31.147-10.669-23.033-50.45-37.142-22.44-17.857 7.713 29.455 34.825 37.142 22.44m358.306-17.059c26.26-34.038-33.84-30.115-51.942-38.066-45.045-17.238-9.204 43.917 17.799 33.004 11.94-2.516 24.351 7.653 34.143 5.062m-45.447-2.505c-3.491.738-1.447 2.924 0 0m-345.05-6.737c25.085-15.479-31.972-55.411-45.802-38.218-.637 20.31 24.15 48.593 45.803 38.218m394.083-26.874c9.146-33.138-36.116-40.99-56.915-52.173-19.425-7.744-47.142 17.29-17.892 26.664 5.702 29.01 46.824 25.954 69.83 26.633zm2.545-33.532c-3.662-40.47-57.879-44.85-89.238-46.044-16.912 16.706 2.942 34.514 19.753 22.759 25.056 1.576 44.407 22.443 69.485 23.285m-31.382-40.85c7.51-23.179-13.673-44.021-32.34-40.307-5.51 26.705 7.828 36.635 32.34 40.307m.36-48.7c13.593-29.373-20.202-33.877-37.266-36.64-9.845 19.503 33.768 78.053 37.267 36.64m.203-32.015c8.06-20.903.756-45.146-23.358-43.674-28.405-26.99-17.242 47.799 9.365 42.362l7.067 1.25zm2.357-45.424c6.477-21.059-.738-42.49-25.49-38.77-33.366-30.71-20.253 38.552 6.215 38.943 4.236 1.614 16.753 6.086 19.275-.173m1.382-64.394c17.31-29.384-49.016-42.701-48.655-39.993-10.256 30.95 14.451 75.703 48.18 62.988 1.157-7.483.134-15.37.475-22.995m0-52.054c7.797-31.331-34.3-25.766-49.862-42.643-11.892 29.651 12.588 64.982 46.308 60.415 7.473-.274 1.63-13.063 3.554-17.772m.149-47.15c13.11-31.309-34.15-39.578-51.493-41.724-11.874 27.546 27.2 77.4 51.104 52.115.314-3.458.312-6.926.389-10.391m-1.312-41.213c8.285-29.398-22.15-51.904-45.36-49.957-16.753 30.413 10.959 58.432 42.041 57.32 2.882-1.095 3.692-4.655 3.319-7.363m-4.86-43.535c7.849-26.944-41.802-64.692-38.542-18.718 8.336 11.57 24.068 20.378 38.543 18.718" style="fill:#000;stroke-width:.92756999" transform="matrix(2.13358 0 -.07996 2.30535 -276.455 -134.48)"/><path d="M356.68 639.87c-16.05-6.726-40.566-23.543-9.553-31.054 21.834-14.054 54.723 33.016 15.543 31.752zM532.116 718.189c-38.475 6.143-4.862-33.393 9.58-40.981 38.952-6.963 12.816 44.774-9.58 40.98M713.641 586.336c-28.141.432-47.727-13.392-62.47-32.82-14.589-29.739 43.303-22.808 56.428-7.076 23.095 4.215 47.532 45.89 6.042 39.896M697.198 386.227c-22.838 1.587-45.298-41.022-27.966-48.644 16.864 12.514 50.916 6.52 39.73 38.487.172 8.112-2.04 13.442-11.764 10.157M693.66 185.392c-20.91-6.925-43.19-19.964-33.09-45.107 2.179-25.683 42.481.213 46.455 15.208.146 10.884 8.298 39.223-13.365 29.9" style="opacity:1;fill:#28170b;fill-opacity:1;stroke-width:.54483497" transform="matrix(2.13358 0 -.07996 2.30535 -276.455 -134.48)"/><path d="M419.608 678.816c-18.948-2.717-32.02-15.933-7.366-22.746 20.98-25.923 61.958 21.452 20.346 26.998-4.369-1.288-8.665-2.803-12.98-4.252M626.645 715.02c24.414-19.697 4.554-59.71 35.83-73.69 18.57 22.606 11.745 68.92-24.933 71.483-2.71-1.135-8.663 4.533-10.897 2.207M696.384 285.024c-29.302 1.745-51.485-47.06-31.376-58.43 19.655 16.476 55.364 15.574 44.468 50.11 2.374 10.198-4.685 9.187-13.092 8.32M728.265 549.832c-26.545-12.97-57.776-23.85-83.794-22.092-10.003-42.525 51.251-14.963 72.14-7.413 8.695.048 33.706 35.985 11.654 29.505" style="opacity:1;fill:#784421;fill-opacity:1;stroke-width:.54483497" transform="matrix(2.13358 0 -.07996 2.30535 -276.455 -134.48)"/><path d="M327.258 613.38c-24.447.471-50.38-59.236-10.477-41.46 16.218 10.484 55.741 38.523 10.477 41.46M559.903 725.047c-26.276-1.332 5.326-34.133 14.543-45.456 45.326-20.243 22.7 47.792-6.604 45.87l-4.708-.074zM723.261 620.404c-24.18-7.211-66.905-2.333-66.289-38.447 20.657-4.003 41.77 11.553 63.864 9.46 20.412.25 23.164 31.054 2.425 28.987M695.198 474.736c-24.809-2.994-41.806-71.564-5.124-42.988 24.343-9.812 21.335 47.956 5.124 42.988M696.236 135.551c-20.983-.762-44.98-26.78-20.81-41.72 12.994-2.965 43.035 43.666 20.81 41.72" style="opacity:1;fill:#a05a2c;fill-opacity:1;stroke-width:.54483497" transform="matrix(2.13358 0 -.07996 2.30535 -276.455 -134.48)"/><path d="M488.802 710.726c-28.928-3.206-16.998-13.65-2.599-30.021 15.895-20.975 60.257 2.907 28.894 23.302-5.87 8.831-17.102 9.134-26.295 6.719" style="opacity:1;fill:#c87137;fill-opacity:1;stroke-width:.54483497" transform="matrix(2.13358 0 -.07996 2.30535 -276.455 -134.48)"/><path d="M488.802 710.726c-28.928-3.206-16.998-13.65-2.599-30.021 15.895-20.975 60.257 2.907 28.894 23.302-5.87 8.831-17.102 9.134-26.295 6.719M386.606 662.765c-26.315-5.647-19.077-31.948 5.87-28.936 35.672 2.675 22.554 32.686-5.87 28.936M694.226 238.28c-26.068-6.092-46.622-40.105-31.562-61.691 28.989 7.962 63.587 24.02 43.854 59.56-3.06 3.25-8.305 3.385-12.292 2.13M696.384 507.173c-28.23 8.703-33.102-59.183-5.513-31.376 16.824-5.58 20.731 43.24 5.513 31.376M672.148 697.297c14.543-20.167-19.265-74.234 18.243-70.906 10.414 29.14 15.912 56.952-18.243 70.906" style="opacity:1;fill:#c87137;fill-opacity:1;stroke-width:.54483497" transform="matrix(2.13358 0 -.07996 2.30535 -276.455 -134.48)"/><path d="M454.615 699.498c-35.635-3.58-2.077-31.335 13.952-34.807 33.095 2.065 5.861 41.858-13.952 34.807M584.612 723.194c17.873-14.12 22.076-70.085 53.081-48.882 7.772 33.815-34.873 56.558-53.081 48.882M703.8 667.447c-4.704-15.897-15.234-69.3 10.812-40.367 4.484 12.07-.056 37.125-10.813 40.367M694.75 428.423c-25.524 5.37-40.577-57.329-16.282-45.829 11.738 10.969 38.313 5.94 29.603 32.353-.837 10.44-.65 17.52-13.321 13.476M697.201 345.573c-29.21-5.326-40.746-32.52-35.867-59.624-5.274-25.678 28.801 8.933 41.897 7.986 9.169 5.702 14.818 58.297-6.03 51.638" style="opacity:1;fill:#d38d5f;fill-opacity:1;stroke-width:.54483497" transform="matrix(2.13358 0 -.07996 2.30535 -276.455 -134.48)"/><path d="M-11.61 268.042c7.905-6.585 21.666-15.493 30.531-5.81 1.902 8.654-9.84 13.101-14.285 19.114-7.428 6.453 9.942-3.562 10.926-7.352 9.88-5.246 5.951-18.582-4.867-18.102-7.22-.586-22.568 6.622-22.304 12.15" style="fill:#000;fill-opacity:1;stroke-width:.26458299" transform="matrix(4.03319 0 -.12323 3.55305 430.505 209.44)"/><path d="M-11.025 267.783c2.133-5.32-5.805 8.737.75-1.507-10.522 3.756 3.88 4.175 1.922-1.563 3.487.538 10.853-6.543 16.02-5.768 3.58 1.637 14.195 1.356 10.37 7.604-3.509 6.658-14.21 12.13-15.227 17.716 5.838-5.118 24.056-16.612 15.17-24.214-7.001-3.334-14.932-3.648-21.82.648-4.062 2.696-11.516 8.97-7.996 8.015.44-5.585-4.578 7.597 2.772-1.888 1.089-2.998-5.899-.403-1.961.957" style="fill:#000;fill-opacity:1;stroke-width:.26458299" transform="matrix(4.03319 0 -.12323 3.55305 430.505 209.44)"/><path d="M12.866 257.32c-6.435-.881 6.644 2.841-1.836 2.505 7.915.379-4.1-1.241 4.084.546 2.7-6.126-9.804-1.873-2.248-3.051" style="fill:#500;fill-opacity:1;stroke-width:.26458299" transform="matrix(4.03319 0 -.12323 3.55305 430.505 209.44)"/><path d="M1.054 281.123c-10.504-9.344-14.191-17.341 2.568-21.438 12.75-3.014 21.073 7.413 6.76 15.348-2.575.576-6.457 10.058-9.328 6.09" style="fill:#500;fill-opacity:1;stroke-width:.133635" transform="matrix(4.03319 0 -.12323 3.55305 430.505 209.44)"/><circle cx="836.09" cy="1033.347" r="1.471" style="fill:#00f;stroke:#000"/></g></svg>
