<svg xmlns="http://www.w3.org/2000/svg" width="1073.159" height="1538.403"><g transform="translate(-.414 -74.938)"><path d="M576.947 74.959c-66.063.416-114.902 51.987-157.07 95.31-34.155 71.223 34.315-46.868 62.092-55.678 68.344-61.744 176.099-28.947 223.177 42.29 41.757 34.074 31.921 78.126-22.013 87.44-67.62 29.172-123.737 102.7-168.651 140.658-23.97-35.472 12.164-87.8-5.597-132.845-.65-42.903 14.186-92.129 55.949-111.753-79.888 34.403-60.089 132.544-59.31 201.044-31.23 5.353-50.56-54.971-87.956-63.375-25.41-19.687-12.826-60.625-38.336-21.525-79.342-20.573-171.74-29.47-243.607 19.414-63.534 40.533-87.99 117.01-117.443 182.11-28.702 44.947-29.727 177.474 50.921 130.013 54.312-39.8-9.305-90.462-21.824-115.263 56.672-51.531 126.415 8.481 151.308 62.865 36.845 48.952 44.653 116.163 23.915 170.708-5.97 59.588 23.992 126.79-34.264 158.956-12.667 71.159 51.228 132.734 27.58 205.005-22.259 78.313 75.083 91.412 79.796 163.707 7.997 26.08 81.489 84.19 23.386 38.46 20.222 60.377 120.295 63.113 111.44 138.292 10.344 35.31-14.73 128.64-22.914 130.132 33.04-38.987-14.993 45.126 18.43-11.055-6.968-66.993 65.633 34.494 15.926-7.409-15.046 21.93 88.312 42.465 26.402 4.858-26.796-17.582-46.411-92.723-5.275-34.613 77.641 45.018-55.282-49.045-12.23-45.011 8.446 27.118 77.742 39.994 21.44 10.676-32.507-15.11-46.499-86.814-2.121-33.218 87.087 55.908-89.323-69.091-2.116-44.78 47.971 42.917 111.079 27.567 165.668 8.343 81.678-30.662 35.218 108.54 69.242 149.356 7.363 27.486 68.818 70.986 4.173 67.007-71.313 12.886-143.765-17.808-217.024-11.884-26.023-11.003-139.015 33.381-98.02-20.514-23.402 15.581-56.2 40.339-4.074 32.058 60.806-11.566 120.33-1.35 181.143-2.695 63.822 18.84 123.825 7.683 186.457 10.807 18.217-16.979-54.931-58.02-48.022-96.08-11.13-49.383-39.227-124.263 9.953-159.728 30.606-4.294 121.558-88.42 56.118-36.004-30.92 25.351-56.261 33.26-14.864-2.238 54.242-56.34 82.92-132.598 106.963-205.788-4.648-73.479 59.599 45.796 70.412-25.238.717-70.925-25.065-143.162 16.097-209.598 21.9-29.323 24.304-118.945-27.016-97.967 70.29-6.94 14.318 150.801 15.336 58.005-.37-34.519-51.012-14.05-7.757-5.978 18.728 68.765-29.986 137.283-5.969 206.479 30.24 57.379-57.048 67.995-44.275 6.364 20.467-73.012 24.338-116.495 25.258-200.286.857-63.202 1.154-112.177-.5-182.16-43.65-69.314-66.753-163.374-31.117-241.678 28.366-60.159 155.734 17.837 111.562 54.877-71.424 35.62-29.062 156.164 47.373 107.796 61.954-33.215 41.286-97.78-7.047-126.867-16.043-67.25-22.96-143.855-81.889-190.631-49.65-50.38-115.776-79.337-185.473-58.208-47.808-26.712-62.01-102.56-124.869-118.828-18.496-8.33-38.377-14.565-58.874-14.135M916.79 782.273l8.399-2.064zm-9.836 180.344 3.498-7.168zm3.498-7.168c22.442-15.814.491-74.768 4.124-22.65l-1.244 11.504zm-518.43 617.23c26.523-26.17 23.249-26.773 0 0m4.247-1338.767c10.91-24.334 13.947-61.32 0 0m235.982-85.69c-56.393 8.388-45.232 123.32-24.584 119.79-2.97-39.81-29.966-102.403 24.584-119.79m-50.322 17.143c-55.44 26.651-52.623 108.66-25.4 155.45 1.781-30.703-37.588-127.866 25.4-155.45m219.13 41.705c118.93 5.789 213.508 121.411 213.524 237.498-18.022-4.231-103.477-98.968-141.304-24.798-27.138 49.864-22.78 138.807-25.166 142.878-68.058-44.702-165.117-80.157-237.055-23.44-38.035 21.886-59.308 93.438-64.22 104.575-11.681-83.645-16.091-169.196-16.947-253.174 26.956-65.157 93.102-105.29 150.378-141.854 37.293-20.539 77.899-38.437 120.79-41.685m-539.132 38.477c96.149.226 202.933 42.135 242.116 136.097 32.503 64.091 26.588 152.614 23.248 216.068-47.95-27.553-125.694-11.833-128.499-90.071-34.637-66.789-101.823-114.999-175.773-127.489-28.577-9.474-125.986 20.93-45.15 6.824 98.988-7.158 194.515 63.392 228.298 154.003-11.502 52.6-106.418 32.488-132.584 90.105-50.69 85.844-19.196-40.992-54.411-75.038-26.537-57.054-79.26-135.501-152.37-98.851-29.157 17.669-57.302 37.505-39.09-11.858C59.1 380.96 82.59 301.18 153.23 269.323c33.652-16.528 71.375-23.584 108.695-23.776m541.699 70.148c-64.056 11.143-120.96 55.644-162.904 104.894-33.93 41.682-65.445 105.274-67.119 151.66 15.27-46.98 30.325-99.884 62.28-140.972 37.88-51.716 93.879-93.76 156.517-108.204 34.557-18.533 131.778 61.194 68.686 5.994-17.826-8.655-37.657-13.236-57.46-13.372m-547.012 12.733c-52.33-.734-104.055 22.108-137.95 62.136 83.201-93.257 253.728-64.748 308.506 45.548 35.419 31.354 17.259 135.339 25.457 122.262 39.874-62.71-21.784-140.914-67.296-185.631-35.987-29.21-82.545-44.389-128.717-44.315m-137.95 62.136-5.421 5.162zm717.741-27.21C759.91 382.95 682.648 430.978 656.432 509.25c34.084-76.462 108.542-136.16 193.6-140.351 22.247-2.919-12.615-5.84-13.628-5.545m21.88 27.21c-54.901 4.872-114.797 73.689-109.696 117.145 3.898-58.792 80.27-116.929 109.695-117.145m-707.745 24.297c39.302 27.772 132.178 71.813 159.466 138.777 45.233 70.152-4.913-41.154-30.971-56.064-35.11-36.354-78.743-70.707-128.495-82.713m853.94 63.725c41.518 16.846 64.765 88.332 46.03 81.312-28.161 53.463-104.517-1.706-72.742-52.232 4.683-11.926 12.077-28.087 26.711-29.08m29.833 97.66c6.936-2.37 20.72-25.717 0 0m-3.634-97.3c3.27 1.041-3.23 3.093 0 0m-50.3 8.286c-9.286 20.988-25.392 77.343-14.69 25.164 4.07-8.816 8.33-17.712 14.69-25.164m-952.663.13C85 492.344 17.559 510.688 7.412 506.027c4.512-7.305 10.266-17.903 20.303-18.667m1020.904 6.497c23.695 31.18.406 31.858 0 0m15.477 7.15c21.83 22.307-19.082 83.456.771 26.393.024-8.568-4.665-17.946-.771-26.392M30.113 502.509c60.25 12.423 63.593 86.787 25.778 87.531-43.234 14.148-68.056-77.602-25.778-87.531m41.588 77.445c11.79-14.433 10.409-18.812 0 0m623.168-64.3c62.708 5.345 139.442 27.722 171.009 86.234-46.516-30.86-116.975-49.886-176.52-27.761-59.28 18.529-116.672 61.288-130.311 124.874-10.236-68.156 13.14-149.113 84.407-173.41 16.226-6.8 33.867-9.87 51.415-9.938m261.447 27.765c14.862 15.684.099 23.533 0 0m-208.134 26.508c84.459-2.218 99.671 98.148 117.844 160.854 13.147 36.648-13.714 94.423 28.163 102.232 5.779 45.63-24.663 99.72-19.692 139.082 13.714-29.417 26.323-155.06 26.05-64.464-9.285 47.208-25.756 100.638-32.714 162.352-8.963 72.506-49.474 137.55-89.546 197.133-23.58 47.073-99.352 93.688-113.096 109.437-71.215 20.573-153.32 32.217-217.644-14-65.89-30.35-110.906-91.582-151.318-149.565-23.13-46.397-36.774-78.818-24.268-87.695-18.117-55.107 4.87-37.562-.316-28.555-7.297-64.866-13.01-130.269-21.954-195.406 10.584-62.495-4.457-130.406 25.733-193.56 10.964-71.09 83.004-92.12 145.715-83.406 74.55-8.955 113.57 88.621 143.098 117.633-7.225-63.194 28.843-126.923 89.862-150.495 29.336-13.697 61.682-21.32 94.083-21.577m-350.6 5.053c64.056-4.117 144.602 14.78 146.423 93.295 7.4 28.817 12.55 66.434-8.511 20.529-33.26-75.215-135.305-84.407-204.325-58.748-35.333 3.21-113.351 93.557-69.718 17.132 34.415-39.514 80.823-75.275 136.131-72.208m636.37 6.535c-1.925 3.8-15.739 2.813 0 0m-184.784 25.011c25.722 13.53 15.099 26.746 0 0m21.39 34.407c25.922 24.787 32.49 105.069 11.231 31.08-3.987-10.197-10.367-19.917-11.23-31.08m-576.878 9.56c-7.575 30.411-39.815 62.275-32.677 38.136-22.58 26.065-27.753 143.057-25.874 55.726 3.432-37.932 24.452-75.653 58.55-93.862m559.19 1.07c10.008 11.363 6.139 17.343 0 0m17.562 34.147c12.722 31.785 9.867 74.85 2.374 18.714l-2.134-13.475zm-598.834 9.168c-6.602 25.728-19.074 19.742 0 0m-8.653 21.863c-6.655 26.32-9.477 20.135 0 0m-28.252 3.53-.066 2.951zm321.51 4.884c6.28 6.252.276 13.173 0 0m159.219 17.387c-48.555 22.676-89.554 43-127.102 83.444-38.71 53.108 47.944 112.746 11.04 170.904 5.939 13.056 29.365-57.576 6.6-81.025-24.354-43.635-30.947-90.012 27.635-111.57 9.032-3.412 87.532-71.15 125.342-19.28 18.516 12.615 87.69 84.9 87.029 42.66-47.92-22.446-71.402-84.108-130.544-85.133m183.72.51c5.775 30.135-21.218 25.75 0 0m-184.287 7.408c3.386 2.338-4.13 2.609 0 0m4.756 1.246c-.145 7.398-9.852 9.193 0 0m-16.052.584c4.179 17.565-13.605 21.222 0 0m-13.881 6.656c3.27 1.042-3.23 3.094 0 0m-285.955 2.637c-56.283 8.184-120.775 55.168-136.42 104.317 51.143-21.731 111.734-124.408 170.686-61.03 29.32 47.024 99.924 74.219 60.03 130.09-5.418 28.092 18.518 94.5-21.345 45.695-52.298-10.799-93.391 116.79-39.048 108.319 49.585-78.842 83.329 108.64 138.13 29.9 12.378-49.41 51.37-42.927 80.006-18.923 44.215-48.384-34.01-142.866-56.296-87.76 57.287-45.06 67.413 126.249 20.919 35.317-47.087 4.576-45.43 125.467-101.934 59.25-15.624-54.886-61.124-95.627-83.937-25.194-30.318-32.016 12.58-137.612 51.378-68.892 51.399 4.77 4.636-95.492 33.818-131.337-18.65-34.262-69.615-104.107-115.987-119.752m285.115 3.938c2.309 1.141-3.36 4.024 0 0m-8.035.326c-4.245 10.142-9.618 2.967 0 0m217.922 5.922-.015 5.981zm-235.788 2.252c-.282 2.09-6.578 3.813 0 0m-6.164 7.931c-.256 2.956-10.059 7.664 0 0m4.164.069c-.282 2.09-6.578 3.813 0 0m-21.046.812c-2.367 16.715-18.154 11.979 0 0m-285.893 2.1c9.22 5.807-5.732 5.52 0 0M361 790.43l-4.016 2.135zm517.523 3.656c4.957 39.233-5.74 29.173 0 0m-242.586 1.934c-.282 2.09-6.578 3.813 0 0m-395.386 1.792c9.267 29.399-12.833 47.462 0 0m373.66 6.596c-6.58 18.49-11.817 3.526 0 0m-293.623.59c5.131 4.363-5.637 4.793 0 0m9.502 2.725c-1.823 10.223-17.126 8.938 0 0m400.17 8.582c-37.595 6.741 58.842 1.197 37.949 42.202 8.163 63.489-79.045 68.316-76.11 4.483-25.074 84.627 111.018 55.713 85.248-18.813-1.7-22.25-29.344-27.209-47.087-27.872M692.1 862.99c14.722-22.25 8.433-24.826 0 0m9.855-17.306c43.798-32.063 55.179 55.417 13.906 24.486 17.61-16.11 27.919-28.677-1.57-12.918 22.467 82.472 59.88-60.206-6.626-17.562zm-390.734-22.86c3.634 3.762-6.886 3.84 0 0m-66.282 6.192c9.617 9.61-6.912 19.208 0 0m53.647.205c10.912 5.517-3.115 6.256 0 0m67.504.763c-33.218 1.153-69.204 46.353-20.933 9.191 83.292-36.543 106.441 128.768 16.46 97.372-69.551-22.111 8.68-123.19 29.01-52.93-12.275 48.33-50.212-2.767-23.508-10.907-57.38 28.59 37.518 59.562 32.92 3.709-43.323-77.656-117.612 62.606-35.277 70.87 53.472 7.656 90.648-76.553 38.735-105.555-10.91-7.532-24.103-11.916-37.407-11.75m-70.787 11.28c-7.306 9.79-18.23 11.869 0 0m-85.403.05c56.547 23.332-36.62 78.013 9.54 120.187-16.526-33.776 6.529-116.107 22.162-37.112 9.395 33.595-19.423 98.002-30.144 33.276-14.258-35.293-33.912-84.883-1.558-116.35m64.47 12.98c7.675 5.231-3.563 6.964 0 0m538.206 27.948c-18.042 20.577-16.1 21.544 0 0m-13.006 15.813c-37.968 56.525-124.383 28.852-156.373 26.92 73.274 20.554 99.608 86.843 98.305 160.155 22.048 50.357 1.257-55.566 6.026-77.159 3.017-41.697 26.621-78.153 52.042-109.916m-152.716 22.931c5.395.67-3.457 3.296 0 0m124.203.942c1.264 3.658-9.264 5.19 0 0m-328.496 3.71c-33.604 47.366-110.142 11.652-137.061 28.366 58.95 26.727 36.573 124.408 65.252 154.792-1.33-62.046-4.416-142.047 63.327-172.463l5.39-6.21zm325.232 1.173c.002 26.81-34.086 54.936-25.953 87.374-28.028-48.327-43.547-83.506 25.953-87.374m-337.947 10.953c-12.119 15.463-22.444 14.274 0 0m-26.344 16.841c3.897.64-5.236 2.5 0 0m-17.324 2.204c4.43-.196-1.31 2.377 0 0m5 0c4.43-.196-1.31 2.377 0 0m-10.344 7.896c9.93 14.509-22.263 62.55-17.576 81.932-17.032-30.707-47.491-95.261 17.576-81.932m-144.61 17.01c27.365 21.433 6.577 92.565-.96 28.785 1.194-8.089-5.805-21.767.96-28.785m665.706 28.33-2.93 2.578Zm-673.817 7.625c19.067 35.314 38.553 108.375 21.668 129.89-45.355-23.57-26.206-89.919-21.668-129.89m653.026 3.25c-5.172 46.856-11.06 42.86 0 0m-622.377 52.525c4.81 1.919-3.845 3.26 0 0m661.006 18.057c9.109 14.03-27.73 5.895 0 0m6.685 1.266c6.999 9.219-11.696 17.906 0 0m-199.459 29.05c-9.18 5.473 15.426 2.542 0 0m-169.824 8.397c.914 4.232-6.977 4.69 0 0m274.715 58.879c-17.34 39.126-73.071 146.871-79.955 129.513 24.91-44.217 56.18-84.61 79.955-129.513m-228.719 54.238c-3.595-.988-2.299 5.98 0 0m.393 16.244c-12.674 2.209 2.68 7.538 0 0m-32.768 13.762c-32.593-3.5-81.688 26.71-19.67 8.132 27.312-8.494 99.053 19.756 37.803-6.683l-8.816-1.033zm-55.68 16.283-.394.455zm228.319 24.203c-15.78 21.673-51.04 47.534-11.65 10.486l6.462-6.191zm5.779 1.522c-23.609 41.274-36.298 25.816 0 0m-21.477 30.498c-17.2 19.006-36.536 18.609 0 0m-29.298 7.045c-1.055 4.008-12.896 7.788 0 0m-265.758 181.713c-14.94 33.29 72.928 46.167 17.377 19.82-5.109-7.01-9.033-15.865-17.377-19.82m-7.914 10.189c-8.237 34.705 68.276 42.131 12.059 11.647l-5.029-6.827zm-17.242 23.418c-7.583 24.822 79.865 20.294 17.64 6.151l-7.256-3.538z" style="fill:#000"/><path d="M748.416 569.498c-78.993 3.071-169.856 46.791-183.179 132.375 8.732 31.75-6.622 63.498-22.316 16.816-29.681-75.213-113.41-113.909-190.314-90.18-76.745 17.687-91.057 105.85-97.309 172.059-5.712 42.147 10.84 64.215 39.38 20.76 39.569-32.68 103.643-94.084 154.275-34.597 26.843 51.123 99.541 82.986 58.47 145.513 7.808 34.267 8.84 121.573-39.9 60.937-52.014-16.497-52.44 149.066-9.017 53.938 42.56-41.662 65.93 140.56 113.788 58.105 9.666-49.226 55.344-70.607 76.88-30.843 8.53-44.45-19.568-72.317-51.59-69.576 40.055-59.084-36.065-109.009-17.461-166.546 42.397-50.847 127.723-129.466 192.844-71.587 14.437 19.825 120.721 86.877 47.979 70.616-48.612-49.28-126.083-104.99-184.005-31.37-87.685 22.337-22.057 96.212-21.243 153.647 2.935 25.151-19.773 45.992 17.408 36.397 45.148 14.35 49.726 154.668-10.019 87.669-40.07-20.07-46.353 89.1-101.454 42.464-32.25-22.3-47.406-99.368-85.196-32.115-66.023-1.541 6.224-164.363 60.114-95.365-.685-61.693 31.57-131.457-38.682-169.002-32.977-65.797-103.62-46.124-142.656 1.091-26.214 35.476-87.05 31.665-59.817 90.548-4.215 49.113 31.843 201.375 13.67 178.705-20.647-26.306 22.235 43.568-.775 40.957 17.869 80.888 79.452 144.125 139.564 197.052 53.12 36.861 116.343 66.692 182.451 53.82 110.718-10.345 186.535-109.68 233.974-201.486 35.304-57.374 42.505-121.741 55.122-186.054-2.319-46.434 35.246-92.172 16.764-125.39-3.245 26.9-27.57 139.726-20.42 58.53 9.329-40.082 35.252-100.17-3.744-119.04 1.591-71.897-15.271-141.344-47.265-204.92-14.03-28.362-45.055-45.04-76.321-43.928M496.551 998.615c-4.419 22.555 9.68 12.503 0 0M737.648 812.84c68.655 12.173 36.822 131.075-30.593 101.486-55.876-33.574 25.783-130.03 45.025-54.528-13.551 53.512-69.079-3.386-21.144-20.108-88.799 5.083 10.124 123.91 32.423 42.035 25.961-45.096-38.407-69.524-46.173-62.278l7.126-3.769zm-362.191 15.55c84.608 2.61 53.073 156.543-26.62 112.51-70.135-35.083 28.347-138.156 47.377-51.56-.258 40.097-80.48 11.249-37.35-11.736-7.353 59.9 71.137-12.98 7.64-15.827-93.39 23.531 50.275 138.865 54.612 35.333 7.22-60.452-71.866-74.462-97.81-42.494 14.533-12.866 31.486-27.154 52.151-26.225m-3.92 45.204-10.283 2.99zm438.12 12.87c-46.18 48.12-71.028 112.142-58.532 179.055 9.686 52.185-11.599 30.606-14.35-7.584-7.33-49.017-9.328-118.565-74.972-118.41-51.89-44.973 49.114 11.72 76.204-7.66 29.491-4.921 52.554-23.616 71.65-45.4m-368.977 40.45c-49.57 36.114-80.6 89.586-67.439 152.089-6.681 83.913-22.82-46.359-29.179-70.31-2.004-41.17-82.794-72.373-6.768-60.285 36.843 7.337 74.607 5.69 103.386-21.494m276.23 188.379c14.05 13.398 35.088 6.81 46.434 16.53 23.658 36.358-33.354 55.712-59.006 79.33-20.622 5.797-83.7 88.696-102.24 49.486-29.136 11.112 12.007-29.874-24.846-7.111-13.556-22.022-90.649 37.973-57.861.303-30.453 9.014-76.833 11.754-51.108-23.147-31.073 18.037-55.617 16.328-38.716-7.618 21.164-13.058-90.35 34.954-34.396-17.286 18.044-35.57-97.986 38.347-34.71-14.595 12.62-1.904 53.913-42.75 19.055-18.022-17.723-25.218 97.503-71.144 44.888-16.32 13.657 13.47 30.327-24.27 42.022-9.3 49.753-17.001-39.767 45.334 15.857 18.503 19.249 3.594 55.618-33.097 51.166-7.479 29.32-21.911 82.713-23.703 89.74-3.902 21.095-4.497 68.117-23.947 94.487-37.75l.017-.016-.783-1.608zm-40.34 21.164c-14.903 5.875 26.253-1.108 0 0m86.573 17.072c-.92-.102.277.704 0 0m-70.99 2.58c-19.354 3.457-80.014 16.912-63.5 18.99 7.534-4.34 16.613 20.075 40.81-5.25 11.685-.295 33.343 1.09 22.69-13.74m-156.21 2.328c-.885.325 1.802.01 0 0m-118.806 42.854c-53.172 34.77 23.731 11.588 0 0m20.322 9.252c-1.285-.1-.018 2.383 0 0m136.584 62.959c29.72-7.6 64.12 26.931 12.742 11.849-23.37-20.06-109.336 19.635-46.475-8.268 11.076-2.38 22.408-3.518 33.733-3.581" style="fill:#fff;stroke-width:1.20159"/><path d="M743.719 571.03c-82.946.852-181.24 57.14-178.71 149.764-17.603 50.89-49.772-87.461-96.625-86.493-72.183-22.243-177.64-15.698-193.345 75.515-15.526 34.643-35.551 135.237-4.94 135.633 48.044-36.506 93.684-107.991 162.469-73.535 31.354 36.571 73.444 78.16 87.666 115.79-30.6 35.923 12.045 108.369-23.047 128.14-25.959-29.701-61.131-34.676-66.234 15.458-16.726 26.178 2.12 78.05 20.502 25.814 44.88-64.514 50.057 71.23 101.686 72.081 24.346-38.872 60.996-111.52 96.068-55.024 7.166-42.72-16.123-76.405-55.52-67.995 53.73-66.495-69.62-142.642 11.155-199.973 55.076-43.208 138.797-98.942 192.383-18.385 9.847 16.77 83.408 53.967 28.457 51.12-54.047-58.819-135.788-100.476-199.301-29.16-78.005 30.715-.931 104.743-10.674 161.66-17.194 34.075 56.717 31.322 51.135 81.328 11.697 48.26-20.739 65.056-54.042 25.88-24.112 25.537-64.819 91.202-107.317 34.38-14.627-42.423-41.717-62.783-72.144-18.374-57.47-17.334 6.683-153.606 59.755-100.828-1.746-53.909 41.273-108.968-18.602-147.079-33.814-58.156-97.174-82.932-145.594-29.528-29.478 45.407-104.06 42.651-72.725 111.196-.994 61.764 18.257 121.818 17.012 183.562-27.923-58.251 10.954 23.155-3.674 34.886 20.641 79.672 81.636 142.616 142.556 194.571 52.608 34.355 114.588 64.9 179.207 50.259 115.599-11.088 189.792-116.356 238.038-211.729 35.363-56.14 35.682-118.016 51.036-179.524.462-43.717 30.38-89.426 16.405-120.95-6.926 33.332-28.774 142.266-19.06 52.515 12.327-48.58 28.784-96.605-8.233-124.53 8.336-76.559-21.872-148.268-59.455-213.049-9.122-22.51-45.685-21.779-66.288-23.397M493.096 993.825c-8.94 26.687 18.764 13.815 0 0m244.6-180.994c52.045 8.108 51.227 97.395-2.464 104.48-99.848 17.995-4.924-156.517 15.36-51.03-22.94 46.698-59.945-14.933-19.716-26.525-88.674 5.064 9.991 123.735 32.476 42.043 26.19-44.933-38.499-69.956-46.121-62.669l7.129-3.659zm-362.77 15.295c67.504 3.61 69.763 122.963-2.728 120.48-107.794 2.683 13.17-166.94 25.052-53.148-18.339 54.835-77.279-35.221-21.72-20.342-57.203 13.76 52.052 47.456 5.832-5.86-82.788-35.321-28.74 136.923 30.597 53.152 35.953-56.306-43.001-118.715-89.321-66.792 15.663-11.964 30.964-27.949 52.288-27.49m434.097 58.932c-45.704 48.118-70.34 111.814-57.898 178.467 9.485 52.475-11.422 30.323-14.314-7.826-7.58-48.733-9.255-118.41-74.792-117.988-52.214-47.402 79.499 24.78 107.946-19.4 16.162-7.235 25.49-22.688 39.058-33.253M440.256 926.64c-46.497 37.413-81.155 87.323-67.032 150.336-5.814 87.356-22.888-42.822-29.152-68.285-1.692-40.97-82.836-72.227-7.201-60.343 36.917 7.016 74.988 6.436 103.385-21.708m276.654 188.652c14.041 13.4 35.089 6.808 46.434 16.53 23.658 36.358-33.354 55.713-59.006 79.33-20.612 5.803-83.749 88.708-102.23 49.48-29.163 11.125 12.03-29.882-24.856-7.105-13.556-22.022-90.649 37.973-57.861.303-30.453 9.014-76.833 11.754-51.108-23.147-31.064 18.033-55.622 16.331-38.716-7.618 21.164-13.058-90.35 34.954-34.396-17.286 18.044-35.57-97.985 38.347-34.71-14.595 12.62-1.904 53.913-42.75 19.055-18.022-16.355-27.193 100.164-71.208 43.078-13.293 17.134 2.591 43.02-25.297 57.125-13.047 14.843 10.183-49.483 37.33 2.564 19.223 19.249 3.594 55.618-33.097 51.166-7.479 29.32-21.911 82.713-23.703 89.74-3.902 21.095-4.497 68.117-23.947 94.487-37.75l.018-.016-.784-1.607zm-40.34 21.164c-14.903 5.875 26.253-1.107 0 0m86.573 17.072c-.92-.102.277.704 0 0m-70.99 2.58c-19.354 3.457-80.014 16.912-63.5 18.99 8.09-3.951 15.508 20.929 40.81-5.25 11.685-.294 33.343 1.09 22.69-13.74m-156.21 2.329c-.885.324 1.802.01 0 0m-118.806 42.853c-53.172 34.77 23.731 11.588 0 0m20.322 9.252c-1.286-.1-.018 2.383 0 0m133.26 62.248c36.23-1.64 71.656 26.821 14.64 11.564-26.52-20.54-110.918 31.352-49.616-6.015 11.15-4.128 23.123-5.747 34.976-5.549" style="fill:#fff;stroke-width:1.20159"/><path d="M895.975 1086.067c-46.095-60.26 37.732-125.298 19.122-178.45 4.29 38.955-26.123 87.02-8.326 22.848-6.236-26.105-2.065-139.45 27.445-83.266.2 77.535-23.831 154.19-6.385 231.702-5.417 12.584-21.538 9.783-31.856 7.166m5.802-75.321c-2.2-6.073-4.397 11.174 0 0M249.692 1148.247c-37.438-27.487-17.192-90.759-20.305-122.737 15.113 37.643 36.185 82.4 20.305 122.737M657.415 1609.743c-63.151-17.998-130.428-15.06-195.283-18.05-27.771 13.96-122.156-.136-59.989-18.014 29.027 16.586 63.956 14.792 15.483 1.079-25.964-62.503 32.531 31.75 52.304-9.658-21.498-17.608-60.81-30.587-33.66-65.065 11.951 13.825 29.239 44.36-2.308 20.8 11.883 36.128 95.183 35.563 29.615 3.103-21.011-17.328-35.708-84.23-1.76-31.292 70.037 47-72.715-92.493-4.088-31.628 32.593 20.54 56.925 13.809 10.52-4.446-28.92-19.672-34.816-82.13 2.3-28.433 22.876 25.678 50.498 7.48 6.95-5.388-31.068-11.593-50.377-75.418-1.815-36.521 59.662 49.275 138.049-1.04 200.159-2.909 13.784 54.085-1.764 116.789 35.513 165.193 21.83 33.763 37.886 61.157-14.176 58.344-12.457 4.552-26.98 9.627-39.765 2.885" style="fill:#fff;stroke-width:1.20159"/><path d="M540.928 697.05c-36.992-91.64-161.915-97.313-238.313-55.495-24.892 10.227-79.612 73.1-44.944 14.745 50.732-86.077 178.965-106.005 258.35-50.621 20.475-1.25 48.366 144.008 24.907 91.37M557.932 682.525c-10.122-80.604 48.16-172.083 136.359-166.253 54.885-1.469 164.3 44.045 162.788 84.744-53.714-48.563-131.336-45.028-194.369-17.56-48.576 19.424-90.522 61.284-103.854 108.176Z" style="fill:#ff0;stroke-width:1.20159"/><path d="M546.963 641.017c-9.583-85.086-19.55-172.58-13.562-257.568 38.279-73.852 117.13-119.247 189.638-154.894 83.319-47.942 181.606-4.436 236.592 65.299 33.82 42.015 60.758 110.257 50.096 158.99-27.905-77.532-159.719-78.081-153.896 17.145-17.263 26.644 23.34 127.179-35.675 76.03-68.904-45.303-164.083-52.272-227.5 6.675-24.037-18.77 28.492-100.18 52.47-131.504 41.282-51.548 101.553-90.399 165.889-102.524 21.255 2.608 108.812 61.997 57.934 12.923-73.317-42.554-153.189 14.175-206.533 63.663-50.381 49.515-85.298 122.076-92.125 188.281-5.023 11.053-14.772 67.657-23.328 57.484M660.07 510.044c28.798-83.08 113.067-133.476 197.09-143.354-57.602-9.025-120.496 35.742-163.006 76.962-15.963 15.7-39.291 54.657-34.084 66.392m89.211-1.436c-15.868-60.107 128.426-129.931 103.364-119.757-48.948 16.54-108.079 62.733-103.364 119.757" style="fill:red;stroke-width:1.20159"/><path d="M243.979 661.745c.24-75.931-38.13-151.062-93.829-201.119-62.146-20.396-125.192 2.89-123.785 11.879C36.467 401.28 76.039 330.353 130.79 283.858c93.479-61.471 223.888-43.08 312.036 19.076 63.927 51.02 87.61 129.255 85.431 208.011 2.323 33.978 17.038 122.492-35.944 67.929-84.31 12.987-83.438-72.623-126.058-118.648-51.156-62.943-143.623-96.878-221.778-71.48-5.08 11.185 75.03-12.926 102.697 6.15 70.77 20.623 133.549 78.049 158.583 147.089-21.04 50.21-115.18 36.686-142.26 99.14-4.477-.665-24.51 41.926-19.518 20.62m87.418-83.716c-31.421-76.056-98.736-137.492-176.974-162.943-7.158 14.416 77.59 36.807 96.024 67.247 34.571 23.26 53.676 76.225 79.854 96.52zm124.265-21.123c33.882-69.77-25.545-143.118-74.872-188.392-78.78-60.786-209.604-54.398-269.402 30.161 70.197-83.59 207.396-81.712 282.815-6.571 36.23 43.136 88.234 113.727 50.445 168.689 4.181.25 7.462-2.166 11.014-3.887" style="fill:#00f;stroke-width:1.20159"/><path d="M513.47 380.361c-13.358-48.695 8.248-102.958-4.646-154.101.809-33.292 74.713-116.834 17.63-57.499-45.597 49.241-4.403 130.807-31.901 176.909-19.918-57.628-122.227-62.368-90.093-133.853C440.87 137.013 521.448 59.67 611.454 88.347c53.381 18.141 127.377 80.745 116.025 133.409-77.11 30.864-142.628 86.5-197 148.001-1.279 7.538-10.022 30.223-17.009 10.604m51.288-57.85c-35.105-46.217-11.598-146.73 9.94-154.495-48.604 26.39-47.232 131.355-9.94 154.494m48.14-44.01c-31.594-33.627.959-135.05 7.175-125.645-38.755 22.296-38.92 108.292-7.176 125.646" style="fill:green;stroke-width:1.20159"/><path d="M32.587 586.252c-63.83-33.766 15.226-133.828 44.874-48.86 10.924 24.899-16.55 66.364-44.874 48.86M1006.19 580.73c-71.837-18.553-9.304-151.448 36.537-76.58 21.383 23.894 2.65 88.265-36.537 76.58" style="fill:#ff0;stroke-width:1.20159"/><path d="M739.715 1016.715c-16.292-37.42-37.64-93.1 24.649-85.196-1.85 29.413-27.887 55.19-24.649 85.196M357.924 1036.475c-35.464-27.94 12.246-100.407 20.632-55.72-13.345 5.716-6.456 74.713-20.632 55.72" style="fill:#000;stroke-width:1.20159"/><path d="M482.709 1220.557c-.172-.151-.637.41 0 0m34.941 12.796c-6.277 1.616.781 2.293 0 0" style="fill:#ff2a2a;stroke-width:1.20159"/><path d="M406.573 1203.697c-29.347 23.492-13.412 77.194 8.39 28.37 6.14-14.502 17.192-30.526-8.39-28.37" style="fill:#000"/><path d="M426.453 1227.498c51.72-47.66 119.037-1.542 169.326-24.539 43.231-54.318 138.1 53.75 141.74-47.427-9.622-53.758-32.465 78.463-67.692 15.2-51.933-31.997-83.877 49.225-128.012 18.92-27.49-16.858-139.333 1.949-115.362 37.846" style="fill:#000"/><path d="M715.961 1149.522c10.57 28.205 79.335 65.712 40.23 14.405-11.477-9.93-25.965-38.256-40.23-14.405M511.158 1173.66c-56.68-54.562 28.912-27.246 36.484 8.71 11.256-20.28 100.877-77.76 68.922-15.724 19.232 53.95 46.875-89.152-27.607-41.65-30.733-.934-50.99 67.874-35.28 36.77-15.573-62.56-130.663-32.347-55.574 22.02l7.064-4.37z" style="fill:#000"/><path d="M500.842 1196.425c-42.92 69.274 57.98 75.504 96.566 59.205 47.752 9.768 56.251-92.273 23.005-63.885 18.449 53.896-53.804 59.487-87.925 51.822-53.269 10.89 8.38-49.438-31.646-47.142" style="fill:#000"/><path d="M498.783 1191.435c7.994 45.618 40.905-37.599-.917-17.93-15.638 42.19 47.053 20.347.917 17.93" style="fill:#000"/><path d="M568.173 1243.911c-31.296 7.74-84.048-8.094-44.668-40.338 34.636 26.854 72.029-3.762 97.696-7.693 15.87 33.057-28.3 48.456-53.028 48.031m-50.467-9.544c-1.492-4.737-4.312 4.575 0 0M557.359 1193.593c-23.945 5.98-76.992-43.48-55.733-49.437 35.336 9.034 49.018 67.91 76.324 11.114 29.677-39.152 66.202-.542 25.783 19.755-16.43 5.527-26.814 30.65-46.374 18.568" style="fill:red;stroke-width:1.20159"/><circle cx="387.996" cy="1465.481" r=".445" style="fill:#000;stroke:#000"/><circle cx="550.474" cy="1737.151" r=".629" style="fill:#000;stroke:#000"/><path d="M951.398 1138.125c-7.936-24.592 13.218-45.274 4.874-6.27 35.883-10.103 50.252-61.658 73.782-90.797 28.5-34.835 48.47-75.32 75.685-111.268 30.226-51.988 65.543-100.843 92.884-154.617 35.332-55.63 69.94-111.76 106.066-166.782 23.24-42.141 57.103-77.67 78.46-121.167 36.977-48.007 67.799-100.482 98.552-152.564 11.288-58.358-50.823 23.261-66.322 38.52-34.656 29.241-58.942 67.917-88.974 101.556-36.583 50.11-74.27 99.426-105.175 153.37-41.191 63.844-82.238 127.777-117.169 195.345-34.183 56.772-62.234 116.937-96.164 173.8-16.77 42.08-47.089 77.289-61.823 120.394-18.426 21.26 13.125-39.137 20.9-52.213 26.142-41.692 45.146-87.102 71.118-128.932 35.65-68.523 74.442-135.424 112.128-202.775 51.101-76.797 95.157-158.372 152.572-230.855 29.72-40.345 60.444-80.403 95.309-116.325 28.508-28.689 54.346-61.498 88.31-84.154 11.703 42.45-34.88 76.443-50.407 113.732-27.105 41.992-56.499 82.305-82.315 125.158-31.777 38.796-52.86 84.226-82.638 124.446-34.482 56.418-71.51 111.325-102.217 169.92-32.452 46.328-57.74 97.028-92.616 141.706-21.398 41.863-55.057 75.772-75.838 118.19-13.637 13.793-27.414 44.16-48.982 42.582m182.385-5.751c-.908-40.611 28.522-75.65 42.296-112.982 24.498-61.064 66.547-112.616 98.602-169.539 31.618-44.337 57.214-92.515 91.716-134.795 28.722-41.722 62.783-79.59 86.117-124.926 28.425-30.427 40.404-69.533 58.617-105.74 22.251-42.206 51.227-81.51 67.819-126.122 21.459-50.351 75.742-4.445 42.847 30.788-18.139 35.866-36.132 72.766-61.74 104.208-36.975 66.835-75.74 132.637-115.09 198.11-54.576 77.558-104.873 157.77-154.355 238.609-27.975 39.92-50.864 82.969-81.48 120.875-26.233 24.998-36.875 76.183-75.349 81.514m16.422-8.89c30.81-29.592 48.798-71.416 78.223-103.383 38.613-59.904 77.277-120.012 114.789-180.614 38.535-65.037 85.507-124.874 123.315-190.43 31.34-53.179 61.74-106.972 93.256-160 26.158-34.2 44.893-73.479 63.063-112.113 14.397-49.683-47.378-39.365-45.967.555-25.498 43.372-51.568 86.795-74.19 131.825-12.444 46.292-50.531 78.639-70.686 121.262-41.399 58.229-87.794 113.205-123.636 175.238-36.954 51.953-67.877 107.631-102.792 160.938-23.651 49.225-48.946 98.164-67.379 149.595-3.143 10.97 3.79 16.747 12.003 7.127m-371.074-11.528c6.882-41.965 21.161-81.796 32.6-122.555 34.748-75.543 67.59-152.102 110.396-223.643 62.809-117.18 134.533-229.967 218.603-333.12 54.105-72.08 116.34-138.74 187.508-194.162 18.234-11.287 84.03-70.432 55.363-20.184-30.65 44.549-68.076 84.692-99.525 128.976-57.465 71.954-112.93 145.503-167.429 219.739-47.03 65.323-96.244 129.134-138.214 197.898-43.881 70.156-84.394 142.43-120.709 216.82-27.72 40.797-40.094 90.381-68.249 130.096-2.103 1.335-15.122 17.185-10.344.135m12.374-5.898c32.102-72.838 71.774-142.367 107.68-213.652 32.494-55.919 63.934-112.477 100.336-166.004 47.479-72.577 101.533-140.694 151.78-211.433 49.927-65.559 99.69-131.345 150.804-196.03 25.287-37.768 61.498-68.417 81.15-109.548-23.278-1.564-71.226 46.847-98.87 68.915-62.854 54.48-115.307 119.655-164.918 186.132-96.964 123.005-173.427 260.404-245.663 398.897-21.668 52.852-51.918 102.316-66.655 157.723-9.134 26.218-12.854 31.269 3.982 10.588-6.114 17.202-36.467 72.529-19.626 74.412m90.293-30.793c9.073-30.176 31.545-60.853 44.576-91.774 34.3-57.414 63.843-117.585 98.3-174.87 33.426-50.29 65.024-101.867 103.177-148.878 12.74-14.345 49.271-60.975 55.708-48.269-20.04 42.359-48.898 79.933-72.236 120.563-43.018 72.036-89.147 142.216-126.983 217.172-30.324 39.642-47.717 92.261-93.954 117.277-2.752.303-6.755 14.215-8.588 8.779m32.74-29.444c29.636-35.351 52.941-75.843 75.322-115.877 49.058-89.83 105.374-175.448 157.636-263.322 13.011-12.194 48.372-80.876 14.054-38.808-31.26 27.4-53.152 64.11-78.547 97.029-31.654 50.766-67.638 99.009-92.789 153.554-35.003 59.625-68.378 120.27-98.615 182.263 7.114.363 16.765-10.3 22.94-14.84m262.193-149.03c1.24-39.469 33.077-75.019 55.863-106.282 38.824-55.271 83.249-106.516 120.575-162.784 10.524-19.716 56.436-75.935 57.313-64.565-34.734 26.556-53.547 67.192-79.546 101.412-41.536 56.742-86.873 110.94-126.08 169.175-11.23 12.197-39.682 82.7-5.838 45.717 46.861-52.132 79.629-114.898 116.614-174.02 28.889-40.938 56.371-83.22 85.977-123.585 11.69-18.258 39.547-50.48 13.33-12.59-30.812 34.143-49.017 77.25-80.18 111.301-44.739 70.742-83.08 146.94-140.815 208.424-4.853 2.99-10.285 13.496-17.213 7.797m11.734-357.221c30.238-50.487 64.991-98.306 97.479-147.286 9.328-16.607 59.604-49.272 19.674-16.866-37.394 38.272-59.67 88.276-93.059 129.95-12.6 18.234-21.258 40.536 1.506 13.497 32.233-40.629 78.562-69.55 102.806-116.449 13.766-15.292 46.577-80.362 23.852-28.444-24.074 36.18-47.762 72.166-80.935 100.998-26.104 17.848-42.827 56.075-71.323 64.6" style="fill:#000;stroke-width:1.33333" transform="matrix(1.07129 0 0 1.11624 -688.03 139.138)"/><path d="M1301.987 384.212c7.01-4.177 13.638-9.03 19.619-14.588 2.85-2.65 5.55-5.58 8.227-8.401 2.12-1.987 4.623-6.044 7.322-7.456.39-.204.867-.173 1.307-.195.525-.027 1.134-.233 1.578.05.348.222-.819.115-1.228.173 1.348-.076 12.16-.126 5.277-.105-.023-.104 1.025.132.94.067-.355-.27-.86-.302-1.201-.589-.98-.82-1.187-1.304-1.709-2.236-1.338 3.317-2.387 6.741-3.63 10.097-1.092 3.425-2.926 6.423-5.05 9.285-1.036 1.673-2.277 3.205-3.405 4.812-.396.565-.73 1.173-1.144 1.725-.544.725-3.328 3.86-3.595 4.165-3.907 4.717-1.93 2.285-5.925 7.299-.437.727 9.852 6.896 10.288 6.169 3.722-5.283 1.988-2.688 5.226-7.77.564-.909 2.307-3.743 3.041-4.83 1.52-2.25 3.604-4.103 4.808-6.58 2.151-3.612 4.486-7.157 5.897-11.147 1.562-4.18 2.986-8.466 3.474-12.922-.111-.952.012-1.962-.334-2.856-.964-2.488-1.835-2.997-4.018-3.918-.321-.136-.904.21-1.223-.032-.94.001-1.88.01-2.82.003-.148 0-.59-.027-.443-.026.86.008 1.723.137 2.577.047.338-.036-.664-.142-.996-.214-2.022-.44-.756-.192-3.113-.605-3.918.016-5.484-.397-8.895.792-5.068 1.766-8.892 5.713-12.703 9.299-1.274 1.213-2.52 2.46-3.824 3.641-7.199 6.52-15.131 12.235-21.829 19.303-.533.53 6.971 8.073 7.504 7.543zM1391.137 586.805c.587-.453 1.207-.865 1.76-1.359 5.807-5.195 10.904-12.152 15.34-18.505 3.277-4.867 6.92-9.068 11.68-12.52.498-.36 3.905-2.494 4.529-2.886 2.375-1.383 3.94-1.968 5.298-4.601.226-.44.243-.957.365-1.436-.017.111.058.358-.052.333-3.255-.75-6.353-2.315-9.683-2.576-.672-.052-.716 1.143-1.033 1.738-1.419 2.665-2.272 5.51-3.22 8.363-.92 3.848-3.155 7.088-5.226 10.385-.347.71 9.7 5.622 10.047 4.911 2.293-3.973 4.675-7.95 5.788-12.451.756-2.414 1.318-4.882 2.159-7.265.159-.451.9-1.058.514-1.339-2.604-1.892-5.567-3.277-8.546-4.499-.285-.117-.168.594-.251.891.446-1.433.032-.407 1.417-2.307.048-.065.187-.232.107-.217-1.441.265-3.17 1.265-4.528 1.652-2.221 1.133-3.782 1.86-5.923 3.292-5.704 3.816-10.266 8.985-14.236 14.532-4.563 6.7-9.204 13.353-14.2 19.742-.432.558 7.46 6.68 7.894 6.122zM963.22 1098.9c1.73-6.013 2.13-12.279 2.832-18.463.511-4.508.27-1.594.452-3.945l-11.847 2.342c-.683-.602-1.346-2.384-2.049-1.805-1.122.923-.638 2.835-.933 4.258-1.7 8.215-2.8 16.462-3.878 24.779-.888 8.248-1.467 16.55-1.412 24.852.01 1.48.029 2.963.18 4.434.063.606-.147 1.7.458 1.769 4.726.538 9.512-.061 14.268-.092 1.5-5.723.781-2.629 2.071-9.304.111-1.141-16.032-2.715-16.143-1.573-.313 7.058-.404 3.821.059 9.714 4.666.88 9.254 2.421 13.998 2.64.714.033.686-1.268.889-1.954.427-1.451.721-2.94.992-4.428 1.476-8.093 2.02-16.31 2.854-24.482.64-8.354.844-9.961 1.173-18.082.028-.687.378-10.396.11-12.058-.383-2.383.41-6.154-1.85-7.001-3.964-1.487-8.402 1.054-12.603 1.581-.446.888-.99 1.732-1.339 2.663-2.664 7.124-2.523 15.646-2.697 23.146-.071 1.02 14.344 2.028 14.415 1.009z" style="fill:#000" transform="matrix(1.07129 0 0 1.11624 -688.03 139.138)"/><path d="M185.902 929.766c.537-1.888 1.39-14.168 1.897-27.287l.92-23.853 12.953-21.913c7.124-12.052 16.817-29.853 21.54-39.558s11.937-23.435 16.031-30.511c4.095-7.076 19.88-36.076 35.08-64.443 15.199-28.368 33.977-62.693 41.73-76.277s19.217-34.18 25.477-45.766c15.578-28.834 45.476-78.594 75.482-125.623 13.784-21.605 29.838-47.127 35.676-56.716 40.233-66.084 129.034-183.586 169.094-223.745 9.565-9.59 25.817-26.751 36.115-38.137 24.983-27.625 37.782-37.875 43.148-34.56.844.523 1.535 4.637 1.535 9.144 0 7.962-.592 9.182-20.95 43.138-26.245 43.774-47.126 76.05-65.298 100.927-7.768 10.634-15.99 23.022-18.272 27.527-5.333 10.53-17.802 29.455-39.693 60.24-9.61 13.514-21.53 31.196-26.489 39.292s-17.843 28.451-28.632 45.232c-39.193 60.963-86.592 136.786-91.123 145.767-9.35 18.536-70.108 117.382-93.03 151.35-6.202 9.19-19.624 29.784-29.827 45.766s-24.925 37.558-32.716 47.946c-7.79 10.388-19.253 27.714-25.473 38.501-18.994 32.947-31.589 49.199-42.761 55.178-3.18 1.702-3.33 1.601-2.414-1.619" style="fill:maroon;stroke-width:1.45289" transform="matrix(1.07129 0 0 1.11624 146.643 356.125)"/><path d="M360.666 931.902c-4.665-4.665 9.327-40.225 45.356-115.263 15.277-31.818 24.613-48.979 40.314-74.098a33088 33088 0 0 0 37.587-60.295c9.435-15.183 24.163-38.066 32.73-50.851 8.566-12.786 20.65-31.42 26.853-41.408 14.096-22.698 30.365-45.663 70.422-99.405 33.348-44.742 36.85-49.763 47.994-68.834 3.874-6.63 14.483-22.648 23.576-35.596 9.093-12.949 19.065-27.75 22.16-32.89 6.221-10.335 15.217-30.11 15.245-33.513.029-3.428 26.65-52.49 51.72-95.319 17.079-29.178 23.162-40.851 24.017-46.093 1.642-10.055 7.429-19.08 15.125-23.591 18.354-10.756 32.672-2.252 30.808 18.299-.589 6.494-3.671 13.92-16.048 38.651-17.552 35.073-26.202 50.221-40.959 71.73-5.756 8.391-20.922 33.235-33.702 55.21-88.833 152.747-82.651 142.635-131.909 215.755-17.764 26.37-49.267 75.079-70.007 108.241-52.883 84.559-103.933 163.326-112.526 173.62-4.002 4.795-15.69 21.14-25.975 36.323-31.236 46.115-47.6 64.508-52.781 59.327" style="fill:red;stroke-width:1.45289" transform="matrix(1.07129 0 0 1.11624 146.643 356.125)"/><path d="M9.78 909.612c-1.456-1.455-1.695-3.04-1.286-8.524.587-7.872 4.64-19.197 16.205-45.263 4.387-9.889 7.77-18.197 7.516-18.464s-2.726 2.045-5.495 5.137-5.056 5.213-5.08 4.713 1.52-5.354 3.434-10.787c1.913-5.433 5.43-16.12 7.816-23.748 7.33-23.437 14.225-39.797 37.233-88.352 7.363-15.54 15.903-34.031 18.978-41.094 10.613-24.381 60.63-117.631 95.506-178.058 46.579-80.705 92.988-151.618 137.954-210.795 7.728-10.17 21.609-28.432 30.845-40.58 47.915-63.023 90.293-111.858 126.808-146.13 19.215-18.034 70.715-62.3 84.265-72.429 16.244-12.142 30.64-19.787 37.26-19.787 1.776 0-2.08 7.748-9.691 19.474-7.901 12.173-15.448 21.91-36.642 47.277-10.138 12.134-22.363 27.39-27.167 33.903-4.803 6.512-15.974 21.087-24.823 32.388-43.656 55.752-123.86 160.9-145.362 190.574-8.394 11.583-28.915 39.553-45.601 62.155-69.6 94.27-107.116 149.626-145.175 214.202-28.412 48.209-47.808 82.587-61.443 108.9a15113 15113 0 0 1-30.82 59.072c-20.654 39.34-43.608 85.248-54.45 108.9-4.663 10.17-8.595 18.63-8.738 18.798s-1.065-.499-2.048-1.482M114.057 864.387c0-1.04 27.556-54.59 40.354-78.422 13.082-24.36 36.383-66.015 48.56-86.811 4.633-7.911 11.94-21.412 16.24-30.001 12.815-25.6 23.518-43.259 64.636-106.637 22.53-34.73 60.786-87.849 74.727-103.763 10.731-12.249 37.368-38.894 37.747-37.757 1.156 3.469-14.137 32.34-24.176 45.64-3.125 4.14-12.349 18.568-20.497 32.062-8.148 13.495-27.657 45.394-43.353 70.888-48.806 79.273-68.649 112.792-100.722 170.148-29.317 52.428-57.672 95.546-73.048 111.082-8.417 8.505-20.468 16.495-20.468 13.57M421.784 333.673c1.64-5.52 9.497-18.471 19.218-31.68 5.765-7.832 19.67-28.47 30.902-45.859 30.196-46.755 44.935-66.284 50.188-66.497 4.277-.173 13.697-7.207 25.845-19.302 6.119-6.092 11.541-10.819 12.05-10.505 1.35.835-2.562 10.41-6.692 16.378-1.964 2.838-5.892 7.934-8.728 11.324l-5.156 6.165 2.517 2.23 2.516 2.231-3.578 4.96c-1.967 2.73-6.227 9.225-9.466 14.437-10.331 16.625-22.308 30.382-50.504 58.014-15.014 14.714-30.455 30.282-34.312 34.595-22.905 25.614-26.415 28.94-24.8 23.51M405.441 694.832c-2.754-2.754 2.27-20.574 10.655-37.797 7.336-15.066 30.286-47.479 73.472-103.765 48.333-62.996 68.073-89.726 86.551-117.201 23.245-34.564 31.115-44.67 34.164-43.874 2.691.704 9.26-5.361 16.093-14.86 3.893-5.41 6.494-7.811 6.494-5.993 0 .234-7.545 10.983-16.766 23.885s-25.483 36.173-36.138 51.712c-10.655 15.538-24.99 36.342-31.854 46.23-13.037 18.779-16.134 23.707-45.522 72.429-28.435 47.143-46.405 73.925-66.545 99.173-16.377 20.53-28.361 32.303-30.604 30.06M186.272 930.494c.353-.92 1.195-12.892 1.87-26.605l1.23-24.932 12.222-21.07c6.722-11.587 16.195-28.928 21.052-38.533s13.56-26.018 19.34-36.471c5.78-10.454 21.141-38.654 34.135-62.669 28.97-53.54 75.882-137.9 88.92-159.905 25.588-43.183 84.634-137.52 109.142-174.376 35.214-52.953 86.159-120.759 123.209-163.984 6.053-7.063 21.942-24.4 35.307-38.526 48.361-51.113 57.733-60.065 64.726-61.82 3.324-.834 4.242.982 4.261 8.427.02 8.06-2.471 13.219-22.04 45.627-25.393 42.055-39.236 63.345-70.444 108.343-5.055 7.289-10.993 16.535-13.195 20.547-5.16 9.401-17.142 27.523-36.067 54.553-18.821 26.881-18.87 26.957-62.583 95.779-57.77 90.952-77.826 123.308-91.557 147.703-29.45 52.322-115.089 186.25-154.981 242.373-5.59 7.865-15.418 23.016-21.839 33.668-13.958 23.157-22.367 35.161-30.45 43.466-6.526 6.705-13.42 11.431-12.258 8.405" style="fill:red;stroke-width:1.02735" transform="matrix(1.07129 0 0 1.11624 146.643 356.125)"/></g></svg>