<?xml version="1.0" encoding="UTF-8" standalone="no"?>
<svg
   xmlns:dc="http://purl.org/dc/elements/1.1/"
   xmlns:cc="http://creativecommons.org/ns#"
   xmlns:rdf="http://www.w3.org/1999/02/22-rdf-syntax-ns#"
   xmlns:svg="http://www.w3.org/2000/svg"
   xmlns="http://www.w3.org/2000/svg"
   xmlns:sodipodi="http://sodipodi.sourceforge.net/DTD/sodipodi-0.dtd"
   xmlns:inkscape="http://www.inkscape.org/namespaces/inkscape"
   version="1.1"
   id="svg10"
   width="1073.1587"
   height="1538.4027"
   viewBox="0 0 1073.1587 1538.4027"
   sodipodi:docname="jester.svg"
   inkscape:version="1.0 (4035a4fb49, 2020-05-01)">
  <metadata
     id="metadata16">
    <rdf:RDF>
      <cc:Work
         rdf:about="">
        <dc:format>image/svg+xml</dc:format>
        <dc:type
           rdf:resource="http://purl.org/dc/dcmitype/StillImage" />
        <dc:title></dc:title>
      </cc:Work>
    </rdf:RDF>
  </metadata>
  <defs
     id="defs14" />
  <sodipodi:namedview
     fit-margin-bottom="0"
     fit-margin-right="0"
     fit-margin-left="0"
     fit-margin-top="0"
     inkscape:document-rotation="0"
     pagecolor="#ffffff"
     bordercolor="#666666"
     borderopacity="1"
     objecttolerance="10"
     gridtolerance="10"
     guidetolerance="10"
     inkscape:pageopacity="0"
     inkscape:pageshadow="2"
     inkscape:window-width="1080"
     inkscape:window-height="1826"
     id="namedview12"
     showgrid="false"
     inkscape:zoom="0.41611479"
     inkscape:cx="408.62537"
     inkscape:cy="676.62655"
     inkscape:window-x="-11"
     inkscape:window-y="-11"
     inkscape:window-maximized="1"
     inkscape:current-layer="g18" />
  <g
     transform="translate(-0.41397728,-74.938029)"
     inkscape:groupmode="layer"
     inkscape:label="Image"
     id="g18">
    <path
       id="path22"
       style="fill:#000000"
       d="m 576.94727,74.958984 c -66.06314,0.415712 -114.90188,51.987216 -157.06973,95.309356 -34.15581,71.22318 34.31422,-46.86774 62.09118,-55.67718 68.34381,-61.744309 176.09895,-28.947232 223.17691,42.28923 41.75722,34.07469 31.92151,78.12637 -22.01302,87.44111 -67.6191,29.171 -123.73678,102.69963 -168.65072,140.65739 -23.96935,-35.47204 12.16445,-87.80036 -5.59726,-132.84468 -0.64922,-42.90293 14.18627,-92.12925 55.94935,-111.75335 -79.88807,34.40298 -60.08902,132.54385 -59.31025,201.04456 -31.23037,5.3529 -50.55905,-54.97163 -87.95623,-63.37547 C 392.15859,258.3628 404.74224,217.42472 379.23206,256.52501 299.89001,235.95157 207.49258,227.05448 135.62529,275.93923 72.091184,316.47195 47.634323,392.94964 18.182369,458.04826 -10.520255,502.99594 -11.545038,635.52281 69.103131,588.06152 123.41494,548.26214 59.797695,497.59991 47.278958,472.79909 c 56.671852,-51.53145 126.415302,8.48128 151.308532,62.86458 36.84463,48.95275 44.65236,116.16318 23.91423,170.70847 -5.97061,59.58737 23.99268,126.7895 -34.26355,158.95556 -12.66745,71.15932 51.22832,132.7343 27.57963,205.0054 -22.2587,78.3128 75.08355,91.4123 79.79607,163.7073 7.99676,26.0796 81.48884,84.1892 23.38613,38.4596 20.2215,60.377 120.29518,63.1128 111.43938,138.2921 10.34426,35.3107 -14.73014,128.6404 -22.91359,130.132 33.04025,-38.9871 -14.99232,45.1263 18.42929,-11.055 -6.96727,-66.9932 65.63353,34.4942 15.92682,-7.4091 -15.04616,21.9294 88.31213,42.4647 26.40173,4.8576 -26.79587,-17.5818 -46.41081,-92.7229 -5.27475,-34.613 77.64152,45.0188 -55.28181,-49.0443 -12.22998,-45.0106 8.44594,27.1177 77.74161,39.9944 21.44042,10.6762 -32.50698,-15.1107 -46.49913,-86.8145 -2.1217,-33.2187 87.08719,55.9087 -89.32284,-69.0909 -2.11522,-44.7798 47.971,42.9177 111.07834,27.5668 165.66784,8.343 81.67776,-30.6616 35.21755,108.5403 69.24182,149.3567 7.36323,27.4854 68.81818,70.9854 4.17304,67.0066 -71.31358,12.8864 -143.76548,-17.8083 -217.02456,-11.8844 -26.02233,-11.0026 -139.01491,33.3814 -98.01906,-20.5139 -23.40269,15.5813 -56.20046,40.3393 -4.07492,32.0579 60.80653,-11.5655 120.32963,-1.3495 181.14333,-2.6943 63.82241,18.8399 123.82547,7.6824 186.45711,10.8071 18.21675,-16.9792 -54.93105,-58.0207 -48.02158,-96.0812 -11.13017,-49.382 -39.22729,-124.2618 9.95237,-159.7268 30.6066,-4.2944 121.55868,-88.4206 56.11787,-36.0048 -30.92026,25.3516 -56.26067,33.2603 -14.86319,-2.238 54.24152,-56.3397 82.91946,-132.5977 106.96284,-205.7879 -4.64828,-73.4786 59.5982,45.7967 70.41201,-25.2375 0.71627,-70.9257 -25.06555,-143.16199 16.09677,-209.59815 21.90029,-29.32272 24.3043,-118.94509 -27.01659,-97.96707 70.29123,-6.93931 14.31884,150.80105 15.3363,58.00537 -0.36932,-34.51932 -51.01196,-14.05062 -7.75694,-5.9786 18.72861,68.76479 -29.98553,137.28371 -5.9687,206.47905 30.24041,57.379 -57.0481,67.9949 -44.27504,6.3644 20.46716,-73.01215 24.33832,-116.49526 25.25823,-200.28621 0.8571,-63.20231 1.15353,-112.17703 -0.50014,-182.15918 -43.65019,-69.31476 -66.753,-163.37505 -31.11745,-241.67833 28.36611,-60.15906 155.73424,17.83602 111.5626,54.87655 -71.42449,35.61998 -29.06286,156.16353 47.37234,107.79634 61.9538,-33.21506 41.2858,-97.77953 -7.0466,-126.86735 C 1012.0092,389.51097 1005.0929,312.90561 946.16296,266.12956 896.51339,215.75062 830.3872,186.79306 760.69032,207.92178 712.88187,181.21019 698.67992,105.36209 635.8212,89.093648 617.32493,80.764543 597.44447,74.529044 576.94727,74.958984 Z m 339.84179,707.314456 8.39844,-2.06446 z m -9.83594,180.34375 3.49805,-7.16797 z m 3.49805,-7.16797 c 22.44226,-15.81424 0.49078,-74.7682 4.12403,-22.64967 l -1.24426,11.5036 z M 392.02148,1572.6797 c 26.5221,-26.17 23.24807,-26.7737 0,0 z m 4.2461,-1338.76759 c 10.911,-24.3345 13.94783,-61.32071 0,0 z M 632.25,148.22266 c -56.39291,8.38702 -45.23179,123.31892 -24.58433,119.7885 -2.9706,-39.81003 -29.96575,-102.40171 24.58433,-119.7885 z m -50.32227,17.14257 c -55.43914,26.65106 -52.62271,108.65916 -25.40039,155.44922 1.78162,-30.70208 -37.587,-127.86528 25.40039,-155.44922 z m 219.13086,41.70508 C 919.988,212.85896 1014.5656,328.48146 1014.582,444.56834 996.56007,440.33692 911.10501,345.6001 873.27831,419.77014 846.13996,469.63428 850.49745,558.57661 848.11247,562.64832 780.0537,517.94561 682.99502,482.49064 611.05717,539.20883 573.02222,561.09364 551.74912,632.64635 546.83789,643.7832 535.15565,560.13776 530.74571,474.58655 529.88983,390.60948 556.84648,325.45175 622.99225,285.31887 680.26841,248.7546 c 37.29213,-20.53825 77.89844,-38.43661 120.79018,-41.68429 z m -539.13281,38.47657 c 96.1491,0.22575 202.93281,42.13561 242.11668,136.09711 32.50236,64.09126 26.5876,152.61415 23.24733,216.06796 -47.94942,-27.55299 -125.69364,-11.83294 -128.49852,-90.07107 -34.63749,-66.7888 -101.82314,-114.9988 -175.7736,-127.48847 -28.57702,-9.47401 -125.985333,20.92971 -45.14908,6.82344 98.9871,-7.15807 194.51468,63.39215 228.29723,154.00274 -11.50195,52.5997 -106.41791,32.48813 -132.58341,90.10519 C 222.89107,716.92811 254.38575,590.09179 219.17076,556.0456 192.63371,498.99189 139.91143,420.54474 66.800519,457.19464 37.644365,474.86374 9.4987977,494.69975 27.710084,445.33749 59.101266,380.95991 82.591688,301.17885 153.23039,269.3227 c 33.65289,-16.5275 71.3753,-23.58348 108.69539,-23.77582 z M 803.625,315.69531 c -64.0563,11.14225 -120.95964,55.64326 -162.90431,104.8938 -33.93025,41.68189 -65.44438,105.27402 -67.1185,151.65977 15.26922,-46.98011 30.325,-99.88432 62.28039,-140.97209 37.88016,-51.7154 93.87802,-93.75916 156.51689,-108.20398 34.55621,-18.5331 131.77707,61.19415 68.68526,5.99373 -17.82597,-8.65457 -37.65702,-13.23582 -57.45973,-13.37123 z m -547.01172,12.73242 c -52.33001,-0.73395 -104.05578,22.10793 -137.95117,62.13672 83.20191,-93.25712 253.72913,-64.74821 308.50686,45.54719 35.41857,31.35417 17.25879,135.3389 25.45745,122.2627 39.87325,-62.71045 -21.78425,-140.91447 -67.29626,-185.63158 -35.9874,-29.2107 -82.54557,-44.38833 -128.71688,-44.31503 z m -137.95117,62.13672 -5.42033,5.16174 z M 836.4043,363.35352 C 759.90898,382.95105 682.64836,430.97837 656.43164,509.25 c 34.08479,-76.46163 108.5419,-136.16 193.59949,-140.3514 22.24785,-2.91826 -12.61426,-5.83978 -13.62683,-5.54508 z m 21.8789,27.21093 c -54.90031,4.87151 -114.79588,73.68844 -109.69488,117.14484 3.89789,-58.79225 80.27013,-116.92885 109.69488,-117.14484 z m -707.74414,24.29688 c 39.3023,27.77215 132.17818,71.81306 159.46616,138.77617 45.2331,70.15291 -4.91317,-41.15322 -30.97144,-56.0635 -35.10889,-36.35411 -78.74289,-70.70747 -128.49472,-82.71267 z m 853.93944,63.72461 c 41.5182,16.84635 64.7656,88.33191 46.0312,81.31186 -28.1617,53.46365 -104.5174,-1.70565 -72.74263,-52.23198 4.68329,-11.92535 12.07712,-28.08662 26.71143,-29.07988 z m 29.834,97.66015 c 6.9358,-2.3692 20.7192,-25.71731 0,0 z m -3.6348,-97.30078 c 3.2699,1.04174 -3.2293,3.09379 0,0 z m -50.29879,8.28711 c -9.28739,20.98761 -25.39268,77.34247 -14.69039,25.16395 4.06957,-8.81629 8.32872,-17.71253 14.69039,-25.16395 z M 27.714844,487.36133 C 85.00021,492.34536 17.559169,510.68889 7.4120328,506.02799 11.923969,498.7229 17.678245,488.12461 27.714844,487.36133 Z m 1020.904256,6.49805 c 23.6951,31.17937 0.4058,31.85715 0,0 z m 15.4766,7.15039 c 21.8301,22.30597 -19.0819,83.45566 0.7715,26.39257 0.024,-8.56855 -4.6656,-17.94624 -0.7715,-26.39257 z M 30.113281,502.50781 c 60.249163,12.42284 63.5929,86.78763 25.777344,87.53128 -43.233499,14.14795 -68.055168,-77.60203 -25.777344,-87.53128 z m 41.587891,77.44531 c 11.789143,-14.43321 10.408575,-18.81215 0,0 z M 694.86914,515.65234 c 62.70812,5.34607 139.44165,27.72228 171.00861,86.23511 C 819.36239,571.02678 748.9031,552.00099 689.3586,574.12603 630.07785,592.65456 572.68638,635.41383 559.04688,699 c -10.23555,-68.15588 13.14041,-149.11318 84.40745,-173.40993 16.22607,-6.80098 33.86634,-9.86937 51.41481,-9.93773 z m 261.44727,27.76563 c 14.86197,15.6837 0.0984,23.53279 0,0 z m -208.13477,26.50781 c 84.45897,-2.21739 99.67166,98.14867 117.84401,160.85461 13.14732,36.64806 -13.7134,94.42267 28.1636,102.23189 5.77833,45.63017 -24.66373,99.71972 -19.6926,139.08215 13.71464,-29.41757 26.32331,-155.0607 26.04986,-64.46417 -9.28498,47.20731 -25.75501,100.63794 -32.71376,162.35224 -8.96247,72.5051 -49.47425,137.5487 -89.5461,197.1323 -23.57997,47.0733 -99.35144,93.6885 -113.09613,109.4372 -71.21491,20.5729 -153.3202,32.2169 -217.64345,-13.9997 -65.89088,-30.3509 -110.90571,-91.5821 -151.31815,-149.5649 -23.12948,-46.3972 -36.77399,-78.8186 -24.26781,-87.695 -18.1176,-55.1072 4.86969,-37.5623 -0.31595,-28.555 -7.29761,-64.8667 -13.01001,-130.26942 -21.9545,-195.40609 10.58405,-62.4949 -4.457,-130.40637 25.733,-193.56005 10.96455,-71.09039 83.00472,-92.11991 145.71501,-83.40603 74.54986,-8.95548 113.57051,88.62099 143.098,117.63291 -7.22454,-63.19434 28.84312,-126.92288 89.8619,-150.49545 29.33681,-13.69643 61.68281,-21.31973 94.08307,-21.57691 z m -350.59961,5.05274 c 64.05584,-4.1165 144.60202,14.78043 146.42316,93.29576 7.39889,28.81649 12.55024,66.43382 -8.51125,20.52868 -33.26008,-75.2148 -135.30488,-84.40697 -204.32485,-58.74752 -35.3326,3.21011 -113.35113,93.55669 -69.71796,17.13126 34.41483,-39.5136 80.8225,-75.27442 136.1309,-72.20818 z m 636.36917,6.53515 c -1.9245,3.80004 -15.7379,2.81316 0,0 z m -184.78323,25.01172 c 25.72236,13.52999 15.09863,26.74576 0,0 z m 21.39062,34.40625 c 25.92145,24.78742 32.4888,105.06916 11.23047,31.08031 -3.98692,-10.19744 -10.3668,-19.91662 -11.23047,-31.08031 z m -576.8789,9.56055 c -7.57451,30.41101 -39.81428,62.27519 -32.677,38.13629 -22.57998,26.06459 -27.75244,143.05659 -25.87345,55.72538 3.43225,-37.93166 24.45168,-75.65315 58.55045,-93.86167 z m 559.18945,1.07031 c 10.00896,11.36278 6.13938,17.34272 0,0 z m 17.5625,34.14648 c 12.72235,31.78492 9.86714,74.85064 2.37464,18.71412 l -2.13381,-13.47553 z m -598.83398,9.16797 c -6.60121,25.72794 -19.07406,19.7419 0,0 z m -8.65235,21.86328 c -6.65493,26.32047 -9.47776,20.13516 0,0 z m -28.25195,3.5293 -0.0668,2.95154 z m 321.50976,4.88477 c 6.27944,6.25155 0.27561,13.17318 0,0 z m 159.21876,17.38672 c -48.55467,22.67561 -89.5534,42.99992 -127.10166,83.44403 -38.71029,53.10766 47.94428,112.74613 11.04038,170.90393 5.93824,13.05582 29.36443,-57.57625 6.5995,-81.0249 -24.35405,-43.63479 -30.94671,-90.01222 27.63499,-111.57043 9.03202,-3.41117 87.53187,-71.1504 125.34165,-19.28017 18.51622,12.616 87.69086,84.90069 87.02907,42.66062 -47.91965,-22.44628 -71.40145,-84.10802 -130.54393,-85.13308 z m 183.7207,0.50976 c 5.77402,30.13477 -21.21834,25.75007 0,0 z m -184.28711,7.4082 c 3.38592,2.33781 -4.13027,2.6087 0,0 z m 4.75586,1.2461 c -0.1454,7.39778 -9.85276,9.19329 0,0 z m -16.05274,0.58398 c 4.17933,17.56482 -13.60442,21.22187 0,0 z m -13.88086,6.65625 c 3.26977,1.04172 -3.22926,3.09381 0,0 z m -285.95507,2.63672 c -56.28253,8.18396 -120.77482,55.16817 -136.42058,104.3171 51.14356,-21.73138 111.7346,-124.40823 170.68656,-61.03063 29.32093,47.02473 99.92453,74.21954 60.03003,130.09014 -5.41804,28.09238 18.51848,94.50046 -21.34486,45.69582 -52.29788,-10.79896 -93.39123,116.78974 -39.04759,108.31824 49.58516,-78.8417 83.32878,108.6403 138.13024,29.8996 12.37745,-49.4101 51.37027,-42.9258 80.00518,-18.9225 44.21563,-48.3833 -34.00962,-142.86594 -56.29607,-87.7596 57.2872,-45.05937 67.41343,126.2488 20.91931,35.3167 -47.08694,4.5765 -45.43002,125.467 -101.9343,59.2495 -15.62337,-54.8854 -61.12361,-95.6261 -83.93613,-25.1935 -30.31818,-32.0154 12.57904,-137.61184 51.3776,-68.8915 51.3987,4.7687 4.63635,-95.49232 33.81766,-131.33719 C 501.06067,847.07239 450.09455,777.2265 403.72266,761.58203 Z m 285.11523,3.9375 c 2.30872,1.14183 -3.35996,4.024 0,0 z m -8.03516,0.32617 c -4.24485,10.1428 -9.61738,2.96694 0,0 z m 217.92188,5.92188 -0.0151,5.9819 z m -235.78711,2.25195 c -0.28244,2.08967 -6.57813,3.81308 0,0 z m -6.16406,7.93164 c -0.25675,2.95571 -10.0592,7.66389 0,0 z m 4.16406,0.0684 c -0.28244,2.08967 -6.57813,3.81308 0,0 z m -21.04688,0.8125 c -2.36651,16.7151 -18.15334,11.97889 0,0 z m -285.89257,2.09961 c 9.22049,5.80774 -5.73158,5.52088 0,0 z m 7.00195,5.49801 -4.01571,2.13518 z m 517.52344,3.65625 c 4.95628,39.23348 -5.74078,29.1728 0,0 z m -242.58594,1.93359 c -0.28244,2.08967 -6.57813,3.81308 0,0 z m -395.38672,1.79297 c 9.26754,29.39814 -12.83301,47.46152 0,0 z m 373.66016,6.5957 c -6.57978,18.48892 -11.81698,3.5263 0,0 z m -293.62305,0.58985 c 5.13118,4.3625 -5.63689,4.79262 0,0 z m 9.50195,2.72461 c -1.82291,10.22322 -17.12592,8.93814 0,0 z m 400.16993,8.58203 c -37.59459,6.74149 58.8425,1.19776 37.94883,42.20208 8.16312,63.48884 -79.0445,68.31647 -76.10899,4.48356 -25.07476,84.62695 111.01758,55.71308 85.2474,-18.81294 -1.69958,-22.25062 -29.34393,-27.20908 -47.08724,-27.8727 z m -38.16016,46.68554 c 14.72263,-22.24992 8.43386,-24.82608 0,0 z m 9.85547,-17.30664 c 43.79763,-32.06234 55.17887,55.41774 13.90577,24.48595 17.60983,-16.10912 27.91872,-28.67654 -1.56946,-12.91715 22.4669,82.47146 59.87901,-60.20632 -6.62617,-17.56266 z M 311.2207,822.82422 c 3.63442,3.76185 -6.88618,3.8395 0,0 z m -66.28125,6.1914 c 9.61646,9.60988 -6.91284,19.20792 0,0 z m 53.64649,0.20508 c 10.91174,5.51698 -3.1147,6.25666 0,0 z m 67.5039,0.76368 c -33.21735,1.15237 -69.20369,46.35241 -20.93302,9.19105 83.29195,-36.54329 106.44128,128.76717 16.45988,97.37136 -69.5511,-22.11076 8.68054,-123.19061 29.00996,-52.92954 -12.27424,48.32902 -50.21213,-2.76681 -23.50809,-10.90708 -57.37979,28.59067 37.51856,59.56146 32.91968,3.70861 -43.32254,-77.65577 -117.61102,62.60603 -35.27653,70.87028 53.4721,7.65564 90.6485,-76.55337 38.73495,-105.5546 -10.90907,-7.53256 -24.10298,-11.91602 -37.40683,-11.75008 z m -70.78711,11.27929 c -7.306,9.7912 -18.22971,11.86902 0,0 z m -85.40234,0.0508 c 56.54636,23.33133 -36.6202,78.01266 9.54022,120.18607 -16.52662,-33.77517 6.52811,-116.10689 22.16155,-37.1111 9.39507,33.59412 -19.42334,98.00186 -30.14424,33.27564 -14.25797,-35.29348 -33.91229,-84.8828 -1.55753,-116.35061 z m 64.46875,12.98047 c 7.67632,5.23003 -3.56191,6.96356 0,0 z m 538.20703,27.94727 c -18.04225,20.5763 -16.10036,21.5436 0,0 z m -13.00586,15.8125 c -37.96832,56.52548 -124.38301,28.85206 -156.37379,26.91972 73.2746,20.55443 99.60811,86.84367 98.30552,160.15577 22.04778,50.3573 1.25653,-55.5663 6.02643,-77.159 3.01666,-41.69749 26.62072,-78.15348 52.04184,-109.91649 z m -152.71679,22.93164 c 5.3958,0.66908 -3.45613,3.29547 0,0 z m 124.20312,0.9414 c 1.26405,3.65804 -9.26414,5.1906 0,0 z m -328.49609,3.71094 c -33.6033,47.36546 -110.14184,11.65104 -137.06055,28.36524 58.94921,26.72755 36.57336,124.40807 65.25193,154.79217 -1.32996,-62.0459 -4.41599,-142.04745 63.32702,-172.46355 l 5.39027,-6.20895 z m 325.23242,1.17188 c 0.002,26.81059 -34.08601,54.93689 -25.95313,87.37493 -28.02806,-48.32796 -43.54666,-83.50698 25.95313,-87.37493 z m -337.94727,10.9531 c -12.11842,15.46373 -22.44358,14.27455 0,0 z m -26.34375,16.8418 c 3.89675,0.63958 -5.23612,2.49932 0,0 z m -17.32422,2.20312 c 4.42969,-0.19548 -1.31061,2.37723 0,0 z m 5,0 c 4.42969,-0.19548 -1.31061,2.37723 0,0 z m -10.34375,7.89649 c 9.93041,14.50863 -22.2632,62.54972 -17.57581,81.93172 -17.03178,-30.7071 -47.49122,-95.26129 17.57581,-81.93172 z m -144.60937,17.00976 c 27.36448,21.43286 6.57658,92.56566 -0.96094,28.78516 1.1942,-8.0887 -5.80443,-21.7671 0.96094,-28.78516 z M 901.92969,1010.0449 899,1012.623 Z m -673.81641,7.625 c 19.06648,35.3138 38.55274,108.3751 21.66755,129.8903 -45.35447,-23.5697 -26.20541,-89.919 -21.66755,-129.8903 z m 653.02539,3.25 c -5.17199,46.8565 -11.06044,42.8606 0,0 z m -622.37695,52.5254 c 4.81103,1.9186 -3.84518,3.2594 0,0 z m 661.00586,18.0567 c 9.10909,14.0301 -27.72917,5.8947 0,0 z m 6.68554,1.2656 c 6.99858,9.2194 -11.69643,17.906 0,0 z m -199.45898,29.0508 c -9.18017,5.4721 15.42572,2.5417 0,0 z m -169.82422,8.3964 c 0.91423,4.2325 -6.97722,4.6904 0,0 z m 274.71485,58.879 c -17.34051,39.1258 -73.07102,146.8712 -79.95449,129.513 24.91028,-44.217 56.18015,-84.6101 79.95449,-129.513 z m -228.71875,54.2382 c -3.59533,-0.9877 -2.2988,5.9792 0,0 z m 0.39257,16.2442 c -12.67313,2.2088 2.68114,7.5374 0,0 z m -32.76757,13.7617 c -32.5929,-3.4997 -81.68805,26.7103 -19.66951,8.1316 27.31185,-8.4938 99.05203,19.7566 37.8029,-6.6829 l -8.81611,-1.0327 z m -55.67969,16.2832 -0.39453,0.4551 z m 228.31836,24.2031 c -15.77964,21.673 -51.04036,47.5337 -11.64971,10.4857 l 6.46176,-6.1909 z m 5.77929,1.5215 c -23.6085,41.2747 -36.29814,25.8164 0,0 z m -21.47656,30.4981 c -17.19989,19.0066 -36.53634,18.609 0,0 z m -29.29883,7.0449 c -1.05506,4.0081 -12.89563,7.7884 0,0 z m -265.75781,181.7129 c -14.9404,33.29 72.92815,46.1676 17.37695,19.8203 -5.10829,-7.0092 -9.03287,-15.8648 -17.37695,-19.8203 z m -7.91406,10.1894 c -8.23655,34.7054 68.27663,42.1311 12.05894,11.647 l -5.02827,-6.8269 z m -17.24219,23.418 c -7.58299,24.8224 79.8656,20.2943 17.64038,6.1513 l -7.25624,-3.5384 z" />
    <path
       id="path36"
       style="fill:#ffffff;stroke-width:1.20159"
       d="m 748.41602,569.49805 c -78.99325,3.07144 -169.85557,46.79125 -183.17888,132.37536 8.73137,31.75014 -6.62212,63.49719 -22.31586,16.81552 -29.6816,-75.21315 -113.40973,-113.9085 -190.31413,-90.18081 -76.74524,17.68818 -91.05743,105.85179 -97.30889,172.05957 -5.71274,42.14766 10.83889,64.21518 39.37951,20.75975 39.56904,-32.67856 103.64317,-94.08374 154.27488,-34.59624 26.84381,51.1224 99.54151,82.9854 58.47064,145.51233 7.80809,34.26721 8.83966,121.57357 -39.89996,60.93751 -52.01452,-16.49711 -52.44022,149.06636 -9.0173,53.93806 42.55972,-41.6619 65.9304,140.5597 113.78787,58.1051 9.66625,-49.2266 55.34412,-70.6071 76.88051,-30.8429 8.52983,-44.4511 -19.56799,-72.3176 -51.59036,-69.576 40.05539,-59.08388 -36.06541,-109.00886 -17.46144,-166.54588 42.39737,-50.84759 127.72353,-129.46657 192.84419,-71.58754 14.43724,19.82466 120.72167,86.87742 47.97924,70.61571 -48.612,-49.27952 -126.08312,-104.98973 -184.00463,-31.36962 -87.68498,22.33713 -22.05727,96.21187 -21.24325,153.64656 2.93459,25.15182 -19.77333,45.99257 17.40777,36.39734 45.14814,14.34923 49.72582,154.66813 -10.01867,87.66873 -40.07004,-20.0687 -46.3537,89.1002 -101.45446,42.4641 -32.24932,-22.2995 -47.40601,-99.3676 -85.19547,-32.1149 -66.02342,-1.541 6.22344,-164.36261 60.11345,-95.36457 -0.68485,-61.69326 31.57058,-131.45739 -38.68164,-169.00195 -32.97669,-65.79742 -103.61922,-46.12404 -142.65655,1.091 -26.21333,35.47531 -87.05008,31.66499 -59.81611,90.54767 -4.21528,49.11348 31.84226,201.37495 13.67019,178.70505 -20.64738,-26.3058 22.23387,43.5683 -0.77565,40.9571 17.86873,80.8875 79.4524,144.1253 139.56422,197.0518 53.11973,36.8614 116.3426,66.6916 182.45092,53.8192 110.7176,-10.3441 186.53476,-109.6789 233.97423,-201.4855 35.30347,-57.3738 42.50506,-121.7406 55.1216,-186.0535 -2.31882,-46.43386 35.24645,-92.17248 16.76403,-125.39063 -3.24525,26.89991 -27.5699,139.72643 -20.42045,58.52985 9.32903,-40.08087 35.25203,-100.16904 -3.74396,-119.03837 1.59176,-71.89759 -15.27094,-141.34479 -47.26424,-204.92078 -14.03064,-28.36216 -45.05533,-45.0393 -76.32135,-43.92812 z M 496.55078,998.61523 c -4.41837,22.55527 9.67942,12.50237 0,0 z M 737.64844,812.83984 c 68.65439,12.17321 36.82138,131.07562 -30.59327,101.48631 -55.87662,-33.5746 25.78247,-130.02955 45.02465,-54.52771 -13.55124,53.51202 -69.0784,-3.38677 -21.14342,-20.1087 -88.799,5.08288 10.12369,123.90937 32.42309,42.03492 25.96049,-45.09534 -38.40744,-69.52416 -46.17393,-62.27764 l 7.12627,-3.76863 z m -362.19141,15.55078 c 84.60785,2.61004 53.07316,156.54274 -26.61914,112.5096 -70.13542,-35.08278 28.34659,-138.15631 47.37618,-51.55969 -0.25797,40.09676 -80.48047,11.24838 -37.35079,-11.73701 -7.35224,59.90036 71.13738,-12.97958 7.63998,-15.8262 -93.38844,23.53113 50.27546,138.86458 54.61268,35.33257 7.22047,-60.45152 -71.86609,-74.46153 -97.80932,-42.49364 14.53267,-12.86646 31.48522,-27.15402 52.15041,-26.22563 z m -3.91992,45.20313 -10.2832,2.99023 z m 438.11914,12.87109 c -46.17882,48.11952 -71.02756,112.14116 -58.53133,179.05416 9.6862,52.1845 -11.59891,30.6062 -14.35027,-7.5837 -7.33003,-49.017 -9.32749,-118.56549 -74.97117,-118.41009 -51.89139,-44.97339 49.11348,11.7195 76.20336,-7.65971 29.49113,-4.92162 52.55379,-23.61665 71.64941,-45.40066 z m -368.97656,40.44922 c -49.56898,36.11358 -80.60016,89.58644 -67.43866,152.08874 -6.68146,83.913 -22.82047,-46.3584 -29.17856,-70.3095 -2.00423,-41.16947 -82.79466,-72.37316 -6.76836,-60.28557 36.84288,7.33712 74.60692,5.68935 103.38558,-21.49367 z M 716.91016,1115.293 c 14.04951,13.3982 35.08784,6.8109 46.43357,16.5297 23.65871,36.3584 -33.35346,55.7128 -59.00586,79.3301 -20.62235,5.7975 -83.70027,88.6963 -102.24023,49.4863 -29.13541,11.1118 12.0073,-29.8741 -24.84571,-7.1113 -13.55587,-22.0218 -90.64861,37.9736 -57.86129,0.303 -30.45216,9.0144 -76.83249,11.7537 -51.10739,-23.1465 -31.07332,18.0366 -55.61774,16.3274 -38.7165,-7.618 21.16416,-13.0581 -90.34895,34.9533 -34.3958,-17.2867 18.04412,-35.5695 -97.98548,38.3478 -34.70967,-14.5942 12.61999,-1.9048 53.91251,-42.7512 19.05448,-18.0223 -17.7225,-25.2182 97.50367,-71.1444 44.88868,-16.3203 13.65675,13.47 30.327,-24.2693 42.02205,-9.3 49.75225,-17.001 -39.76726,45.3338 15.85682,18.5031 19.24853,3.5941 55.6177,-33.0973 51.16602,-7.4788 29.31922,-21.9114 82.71259,-23.703 89.74023,-3.9024 21.09412,-4.4968 68.1165,-23.9467 94.48628,-37.75 l 0.0176,-0.016 -0.7832,-1.6074 z m -40.33985,21.164 c -14.90317,5.8751 26.25302,-1.1075 0,0 z m 86.57227,17.0723 c -0.92052,-0.1024 0.27703,0.7035 0,0 z m -70.99024,2.5801 c -19.35358,3.4568 -80.01285,16.9113 -63.50003,18.9891 7.53475,-4.3386 16.61346,20.076 40.81054,-5.2492 11.68515,-0.2948 33.3431,1.0902 22.68949,-13.7399 z m -156.20898,2.3281 c -0.88547,0.3249 1.80136,0.01 0,0 z m -118.80664,42.8535 c -53.1721,34.7707 23.73127,11.5883 0,0 z m 20.32226,9.252 c -1.28548,-0.1 -0.018,2.3833 0,0 z m 136.58399,62.959 c 29.72054,-7.6006 64.11997,26.931 12.74193,11.8488 -23.37028,-20.0599 -109.33618,19.6353 -46.47535,-8.2673 11.07694,-2.3806 22.40841,-3.5184 33.73342,-3.5815 z" />
    <path
       id="path38"
       style="fill:#ffffff;stroke-width:1.20159"
       d="m 743.71875,571.0293 c -82.94583,0.85316 -181.23906,57.14106 -178.70968,149.76446 -17.60266,50.89069 -49.7716,-87.4612 -96.62541,-86.49311 -72.18271,-22.24297 -177.64051,-15.69811 -193.34487,75.51557 -15.52557,34.6428 -35.55122,135.23628 -4.9393,135.6324 48.04368,-36.50537 93.68366,-107.99087 162.46844,-73.53434 31.35451,36.57108 73.44377,78.16052 87.66593,115.78967 -30.60056,35.9233 12.04537,108.36855 -23.04715,128.14035 -25.95843,-29.7017 -61.13074,-34.67641 -66.23336,15.4582 -16.72622,26.1773 2.11929,78.0503 20.50195,25.8136 44.87885,-64.51368 50.05702,71.2304 101.68532,72.0812 24.34604,-38.8724 60.9967,-111.5211 96.06858,-55.0239 7.16564,-42.72 -16.12291,-76.40505 -55.51975,-67.9957 53.7295,-66.49484 -69.6203,-142.64135 11.15487,-199.97237 55.07583,-43.20842 138.79641,-98.9422 192.38233,-18.38582 9.84721,16.76992 83.40819,53.96776 28.45739,51.12069 -54.04751,-58.8192 -135.78829,-100.47643 -199.30132,-29.15987 -78.00502,30.7151 -0.9311,104.74262 -10.67409,161.66052 -17.19324,34.07395 56.71766,31.32115 51.13524,81.32705 11.69731,48.2592 -20.73864,65.0565 -54.04226,25.8796 -24.11111,25.5372 -64.81836,91.2025 -107.3162,34.3797 -14.62701,-42.4226 -41.71734,-62.7819 -72.14467,-18.3728 -57.47013,-17.334 6.68337,-153.6069 59.75496,-100.82823 -1.74572,-53.90891 41.27348,-108.96836 -18.60137,-147.0787 -33.81412,-58.15692 -97.17398,-82.93259 -145.59455,-29.52878 -29.47768,45.40757 -104.05933,42.65128 -72.72432,111.19667 -0.99471,61.76391 18.2565,121.81774 17.01204,183.56124 -27.92338,-58.2511 10.95303,23.1552 -3.67462,34.8864 20.64117,79.6719 81.63593,142.6161 142.55564,194.571 52.60841,34.3547 114.5888,64.9004 179.20773,50.2585 115.59871,-11.0875 189.79222,-116.3551 238.03761,-211.7281 35.36359,-56.1396 35.68196,-118.0169 51.03589,-179.5245 0.46243,-43.71709 30.38012,-89.42632 16.40529,-120.95059 -6.92566,33.33233 -28.77443,142.26689 -19.06054,52.51554 12.32759,-48.57905 28.78448,-96.60444 -8.23259,-124.5301 8.336,-76.55849 -21.87216,-148.26796 -59.45513,-213.04858 -9.12205,-22.51006 -45.68453,-21.77878 -66.28803,-23.39687 z M 493.0957,993.82617 c -8.9395,26.68673 18.76418,13.81473 0,0 z M 737.69531,812.83203 c 52.0458,8.10767 51.22817,97.3947 -2.46289,104.48047 -99.84888,17.99413 -4.92433,-156.51767 15.35973,-51.03128 -22.93946,46.69831 -59.94561,-14.93172 -19.71622,-26.52413 -88.67343,5.06361 9.99144,123.73458 32.47636,42.04257 26.18955,-44.93309 -38.49882,-69.95525 -46.12146,-62.66859 l 7.12878,-3.65899 z m -362.76953,15.29492 c 67.5045,3.61076 69.76318,122.963 -2.72792,120.48092 -107.79345,2.68183 13.16957,-166.94158 25.05214,-53.14889 -18.33901,54.83526 -77.27902,-35.22107 -21.7207,-20.34179 -57.20239,13.76026 52.05265,47.45578 5.83248,-5.8608 -82.78758,-35.32086 -28.73896,136.92361 30.59751,53.15261 35.95244,-56.30595 -43.0016,-118.71491 -89.32142,-66.79242 15.66303,-11.96406 30.96444,-27.94832 52.28791,-27.48963 z m 434.09766,58.93164 c -45.70427,48.11808 -70.34074,111.81446 -57.89879,178.46721 9.48518,52.475 -11.4219,30.3231 -14.31375,-7.826 -7.57929,-48.7332 -9.25464,-118.40999 -74.79151,-117.98783 -52.21444,-47.40245 79.49834,24.77991 107.94534,-19.40036 16.16251,-7.23494 25.48994,-22.68716 39.05871,-33.25302 z m -368.76758,39.58203 c -46.49686,37.41316 -81.1548,87.32378 -67.0323,150.33678 -5.81392,87.3559 -22.88778,-42.8229 -29.15138,-68.2852 -1.69168,-40.9693 -82.83618,-72.22674 -7.20149,-60.34313 36.91744,7.01591 74.9884,6.43581 103.38517,-21.70845 z m 276.6543,188.65238 c 14.04089,13.4007 35.08857,6.8082 46.43357,16.5297 23.65871,36.3584 -33.35346,55.7128 -59.00586,79.3301 -20.61176,5.8027 -83.74867,88.7077 -102.23047,49.4805 -29.16215,11.1248 12.03122,-29.8825 -24.85547,-7.1055 -13.55587,-22.0218 -90.64861,37.9736 -57.86129,0.303 -30.45216,9.0144 -76.83249,11.7537 -51.10739,-23.1465 -31.06468,18.0324 -55.622,16.331 -38.71645,-7.618 21.16416,-13.0581 -90.34895,34.9533 -34.3958,-17.2867 18.04414,-35.5695 -97.98549,38.3478 -34.70967,-14.5942 12.61999,-1.9048 53.91251,-42.7512 19.05448,-18.0223 -16.35492,-27.1928 100.16385,-71.2085 43.07813,-13.293 17.13386,2.5913 43.02063,-25.2967 57.12501,-13.0467 14.84265,10.1822 -49.48316,37.3298 2.56445,19.2227 19.24853,3.5941 55.6177,-33.0973 51.16602,-7.4788 29.31922,-21.9114 82.71259,-23.703 89.74023,-3.9024 21.09412,-4.4968 68.1165,-23.9467 94.48628,-37.75 l 0.0176,-0.016 -0.7832,-1.6074 z m -40.33985,21.164 c -14.90317,5.8751 26.25302,-1.1075 0,0 z m 86.57227,17.0723 c -0.92052,-0.1024 0.27703,0.7035 0,0 z m -70.99024,2.5801 c -19.35358,3.4568 -80.01285,16.9113 -63.50003,18.9891 8.08999,-3.9506 15.50896,20.9291 40.81054,-5.2492 11.68515,-0.2948 33.3431,1.0902 22.68949,-13.7399 z m -156.20898,2.3281 c -0.88547,0.3249 1.80136,0.01 0,0 z m -118.80664,42.8535 c -53.1721,34.7707 23.73127,11.5883 0,0 z m 20.32226,9.252 c -1.28548,-0.1 -0.018,2.3833 0,0 z m 133.25977,62.248 c 36.23028,-1.6401 71.65661,26.821 14.63959,11.5638 -26.51985,-20.5398 -110.91721,31.3521 -49.61545,-6.0152 11.15032,-4.1275 23.12357,-5.747 34.97586,-5.5486 z" />
    <path
       id="path40"
       style="fill:#ffffff;stroke-width:1.20159"
       d="m 895.97484,1086.0674 c -46.09476,-60.2595 37.73247,-125.29823 19.12259,-178.45066 4.28916,38.95529 -26.12349,87.0208 -8.32646,22.84864 -6.2355,-26.1054 -2.06483,-139.44964 27.4447,-83.26667 0.20099,77.53489 -23.83071,154.19039 -6.38494,231.70249 -5.41625,12.584 -21.5381,9.7824 -31.85589,7.1662 z m 5.80191,-75.3215 c -2.19936,-6.0729 -4.39694,11.1744 0,0 z" />
    <path
       id="path42"
       style="fill:#ffffff;stroke-width:1.20159"
       d="m 249.69198,1148.2469 c -37.43822,-27.4865 -17.19235,-90.7585 -20.30537,-122.7365 15.11366,37.643 36.18567,82.3994 20.30537,122.7365 z" />
    <path
       id="path44"
       style="fill:#ffffff;stroke-width:1.20159"
       d="m 657.41469,1609.7427 c -63.15099,-17.9975 -130.42756,-15.0589 -195.28283,-18.0489 -27.77132,13.9588 -122.15584,-0.137 -59.98849,-18.0147 29.02622,16.586 63.95606,14.7922 15.48301,1.0786 -25.96416,-62.5027 32.53108,31.7511 52.30363,-9.6581 -21.49757,-17.6079 -60.81064,-30.5863 -33.66034,-65.0647 11.95143,13.8246 29.23921,44.3599 -2.30718,20.7995 11.88229,36.1283 95.18215,35.5636 29.61469,3.1031 -21.01118,-17.3271 -35.70792,-84.2288 -1.76065,-31.2919 70.03794,46.9995 -72.71479,-92.4931 -4.0873,-31.6273 32.5931,20.54 56.9246,13.8085 10.5197,-4.4465 -28.91982,-19.6715 -34.81626,-82.1303 2.29966,-28.4331 22.87675,25.6781 50.49831,7.4812 6.94994,-5.3881 -31.06749,-11.5929 -50.37691,-75.418 -1.81465,-36.5208 59.6619,49.2754 138.04865,-1.0391 200.15911,-2.9088 13.78395,54.0854 -1.76433,116.7889 35.51271,165.1927 21.8306,33.7632 37.88626,61.1572 -14.17559,58.3439 -12.45674,4.5525 -26.9807,9.6277 -39.76542,2.8851 z" />
    <path
       id="path48"
       style="fill:#ffff00;stroke-width:1.20159"
       d="m 540.92847,697.04912 c -36.99267,-91.6389 -161.91529,-97.31217 -238.31386,-55.49428 -24.89147,10.22685 -79.61188,73.09991 -44.94395,14.7453 50.73255,-86.07755 178.9652,-106.00555 258.35001,-50.62146 20.47535,-1.25043 48.36658,144.00845 24.9078,91.37044 z" />
    <path
       id="path50"
       style="fill:#ffff00;stroke-width:1.20159"
       d="M 557.93209,682.52516 C 547.80987,601.92055 606.0914,510.44224 694.29102,516.27168 749.17597,514.80317 858.59147,560.31674 857.07888,601.01601 803.36482,552.453 725.74289,555.98767 662.71025,583.45529 614.13443,602.8798 572.18772,644.74044 558.8564,691.63171 Z" />
    <path
       id="path52"
       style="fill:#ff0000;stroke-width:1.20159"
       d="m 546.96328,641.01743 c -9.58294,-85.08676 -19.54977,-172.57986 -13.56202,-257.56831 38.27853,-73.85225 117.12931,-119.24761 189.63805,-154.89451 83.31852,-47.94189 181.60611,-4.43601 236.59213,65.29925 33.81885,42.01538 60.75726,110.25701 50.09586,158.98929 -27.90511,-77.53072 -159.71916,-78.08029 -153.89584,17.1456 -17.26339,26.64465 23.34004,127.1788 -35.67579,76.02972 -68.90371,-45.30269 -164.08234,-52.271 -227.5,6.6754 -24.03653,-18.7703 28.49204,-100.1807 52.47025,-131.50413 41.28192,-51.54732 101.55265,-90.39828 165.88884,-102.52381 21.25478,2.60765 108.81244,61.99714 57.93472,12.92282 -73.31731,-42.5541 -153.18945,14.17556 -206.53341,63.66316 -50.38138,49.51523 -85.29823,122.07566 -92.12498,188.28126 -5.02358,11.05309 -14.77258,67.65713 -23.32781,57.48426 z M 660.07004,510.04395 c 28.79811,-83.07958 113.06677,-133.47568 197.09036,-143.35408 -57.60255,-9.02531 -120.49671,35.74254 -163.00594,76.96189 -15.96296,15.69944 -39.29177,54.6574 -34.08442,66.39219 z M 749.2813,508.6084 C 733.41255,448.50123 877.70703,378.67699 852.64541,388.85144 803.69676,405.39015 744.56635,451.58424 749.2813,508.6084 Z" />
    <path
       id="path54"
       style="fill:#0000ff;stroke-width:1.20159"
       d="M 243.97859,661.74488 C 244.2198,585.81395 205.84837,510.6833 150.1502,460.62597 88.004487,440.22979 24.958334,463.5155 26.364696,472.50479 36.466772,401.28001 76.03905,330.35301 130.78952,283.85781 c 93.47913,-61.47082 223.88845,-43.08017 312.03616,19.07578 63.92739,51.01993 87.61056,129.25536 85.43166,208.01155 2.32284,33.97802 17.03749,122.49196 -35.94427,67.92838 -84.30942,12.98781 -83.43845,-72.62288 -126.05804,-118.64778 -51.15604,-62.94287 -143.62339,-96.87751 -221.77802,-71.47931 -5.08052,11.18455 75.02927,-12.92692 102.69712,6.14901 70.76899,20.62307 133.54883,78.04955 158.58325,147.0895 -21.04019,50.211 -115.17985,36.68651 -142.26126,99.13942 -4.47587,-0.66409 -24.5085,41.92714 -19.51753,20.62052 z m 87.41855,-83.71617 C 299.9755,501.973 232.66069,440.53703 154.42289,415.08632 c -7.15769,14.4161 77.58917,36.80638 96.02447,67.24637 34.57088,23.2594 53.67547,76.22503 79.8539,96.51955 z M 455.66157,556.90602 C 489.54438,487.13617 430.11686,413.78829 380.79021,368.514 302.0097,307.72781 171.18576,314.11564 111.38779,398.67532 c 70.19686,-83.58995 207.39643,-81.71201 282.81529,-6.57138 36.22901,43.13563 88.23398,113.72752 50.44468,168.68888 4.18134,0.25013 7.46221,-2.16549 11.01381,-3.8868 z" />
    <path
       id="path56"
       style="fill:#008000;stroke-width:1.20159"
       d="m 513.47041,380.36117 c -13.35871,-48.69559 8.24805,-102.95812 -4.64608,-154.10114 0.80856,-33.29222 74.71292,-116.83363 17.62936,-57.49862 -45.59666,49.24054 -4.40316,130.80676 -31.90095,176.90836 C 474.63458,288.04169 372.326,283.30221 404.46012,211.81679 440.8686,137.01298 521.44828,59.670889 611.4538,88.346306 664.8354,106.48818 738.83138,169.09173 727.47854,221.75583 650.36952,252.61967 584.85119,308.25668 530.4782,369.75707 c -1.27791,7.53781 -10.02072,30.22293 -17.00779,10.6041 z m 51.28759,-57.851 C 529.65262,276.29391 553.15991,175.78008 574.69745,168.01611 526.09413,194.4069 527.46649,299.37096 564.758,322.51017 Z m 48.13937,-44.00841 c -31.59358,-33.62731 0.95926,-135.05123 7.17563,-125.64583 -38.75508,22.29576 -38.92002,108.29193 -7.17563,125.64583 z" />
    <path
       id="path58"
       style="fill:#ffff00;stroke-width:1.20159"
       d="M 32.587103,586.25245 C -31.24328,552.48635 47.813457,452.42441 77.461441,537.39147 88.384924,562.29051 60.911683,603.75604 32.587103,586.25245 Z" />
    <path
       id="path60"
       style="fill:#ffff00;stroke-width:1.20159"
       d="m 1006.19,580.73089 c -71.83686,-18.55435 -9.3036,-151.44863 36.5371,-76.58161 21.3827,23.89448 2.6495,88.2656 -36.5371,76.58161 z" />
    <path
       id="path62"
       style="fill:#000000;stroke-width:1.20159"
       d="m 739.71495,1016.715 c -16.29193,-37.42022 -37.63999,-93.10029 24.64903,-85.19571 -1.85001,29.4123 -27.88704,55.18897 -24.64903,85.19571 z" />
    <path
       id="path64"
       style="fill:#000000;stroke-width:1.20159"
       d="m 357.92448,1036.4753 c -35.46477,-27.9409 12.24511,-100.4077 20.63113,-55.72111 -13.34428,5.71672 -6.45567,74.71411 -20.63113,55.72111 z" />
    <path
       id="path66"
       style="fill:#ff2a2a;stroke-width:1.20159"
       d="m 482.70898,1220.5566 c -0.17219,-0.1507 -0.63728,0.41 0,0 z m 34.94141,12.7969 c -6.27765,1.6155 0.78105,2.293 0,0 z" />
    <path
       id="path187"
       style="fill:#000000"
       d="m 406.57342,1203.6972 c -29.34773,23.4921 -13.4126,77.1939 8.38982,28.3706 6.14035,-14.5028 17.19215,-30.5265 -8.38982,-28.3706 z" />
    <path
       id="path189"
       style="fill:#000000"
       d="m 426.45253,1227.4984 c 51.71981,-47.6605 119.03781,-1.5419 169.32611,-24.539 43.23171,-54.3187 138.10126,53.749 141.74086,-47.4273 -9.62263,-53.7579 -32.46513,78.4626 -67.69266,15.2007 -51.93274,-31.9975 -83.87732,49.2241 -128.01176,18.9187 -27.4907,-16.8576 -139.33301,1.9495 -115.36255,37.8469 z" />
    <path
       id="path191"
       style="fill:#000000"
       d="m 715.96125,1149.522 c 10.57047,28.2052 79.33469,65.7116 40.23064,14.4045 -11.47742,-9.9298 -25.96579,-38.2555 -40.23064,-14.4045 z" />
    <path
       id="path193"
       style="fill:#000000"
       d="m 511.15812,1173.6597 c -56.67941,-54.562 28.91177,-27.2458 36.48352,8.7112 11.25673,-20.2818 100.87758,-77.76 68.92273,-15.725 19.23129,53.9498 46.87421,-89.1515 -27.60768,-41.6498 -30.73318,-0.9341 -50.98929,67.874 -35.27894,36.7708 -15.57413,-62.5604 -130.66395,-32.3483 -55.57515,22.0197 l 7.06483,-4.371 5.99071,-5.7559 z" />
    <path
       id="path195"
       style="fill:#000000"
       d="m 500.84218,1196.4247 c -42.92006,69.2747 57.98048,75.5046 96.56559,59.2054 47.75247,9.7677 56.25172,-92.2728 23.00539,-63.8852 18.44852,53.8958 -53.80449,59.4867 -87.92476,51.8221 -53.26919,10.8898 8.37883,-49.438 -31.64622,-47.1423 z" />
    <path
       id="path197"
       style="fill:#000000"
       d="m 498.78288,1191.4351 c 7.99441,45.6182 40.90493,-37.5986 -0.91722,-17.93 -15.63741,42.1901 47.05362,20.3474 0.91722,17.93 z" />
    <path
       id="path199"
       style="fill:#ff0000;stroke-width:1.20159"
       d="m 568.17294,1243.9113 c -31.29546,7.7404 -84.04813,-8.0939 -44.66757,-40.3383 34.63583,26.8542 72.02849,-3.7622 97.69611,-7.6929 15.87006,33.0571 -28.29993,48.4557 -53.02854,48.0312 z m -50.46685,-9.5438 c -1.49219,-4.7372 -4.31167,4.5747 0,0 z" />
    <path
       id="path201"
       style="fill:#ff0000;stroke-width:1.20159"
       d="m 557.35861,1193.5929 c -23.94497,5.9804 -76.99112,-43.4805 -55.73248,-49.4371 35.33552,9.0338 49.01794,67.9098 76.32404,11.1142 29.67708,-39.1521 66.20168,-0.5418 25.78321,19.7553 -16.43029,5.5267 -26.81408,30.6491 -46.37477,18.5676 z" />
  </g>
</svg>
