<?xml version="1.0" encoding="UTF-8" standalone="no"?>
<svg
   xmlns:dc="http://purl.org/dc/elements/1.1/"
   xmlns:cc="http://creativecommons.org/ns#"
   xmlns:rdf="http://www.w3.org/1999/02/22-rdf-syntax-ns#"
   xmlns:svg="http://www.w3.org/2000/svg"
   xmlns="http://www.w3.org/2000/svg"
   xmlns:sodipodi="http://sodipodi.sourceforge.net/DTD/sodipodi-0.dtd"
   xmlns:inkscape="http://www.inkscape.org/namespaces/inkscape"
   inkscape:version="1.0 (4035a4fb49, 2020-05-01)"
   sodipodi:docname="mason2 claw.svg"
   viewBox="0 0 775.86176 1245.9894"
   height="1245.9894"
   width="775.86176"
   id="svg10"
   version="1.1">
  <metadata
     id="metadata16">
    <rdf:RDF>
      <cc:Work
         rdf:about="">
        <dc:format>image/svg+xml</dc:format>
        <dc:type
           rdf:resource="http://purl.org/dc/dcmitype/StillImage" />
        <dc:title></dc:title>
      </cc:Work>
    </rdf:RDF>
  </metadata>
  <defs
     id="defs14" />
  <sodipodi:namedview
     inkscape:current-layer="g18"
     inkscape:window-maximized="1"
     inkscape:window-y="-11"
     inkscape:window-x="-11"
     inkscape:cy="585.1414"
     inkscape:cx="124.93157"
     inkscape:zoom="0.55629139"
     showgrid="false"
     id="namedview12"
     inkscape:window-height="1826"
     inkscape:window-width="1080"
     inkscape:pageshadow="2"
     inkscape:pageopacity="0"
     guidetolerance="10"
     gridtolerance="10"
     objecttolerance="10"
     borderopacity="1"
     bordercolor="#666666"
     pagecolor="#ffffff"
     inkscape:document-rotation="0"
     fit-margin-top="0"
     fit-margin-left="0"
     fit-margin-right="0"
     fit-margin-bottom="0" />
  <g
     id="g18"
     inkscape:label="Image"
     inkscape:groupmode="layer"
     transform="translate(-161.4025,-317.22324)">
    <path
       d="m 630.20234,1560.3574 c -48.49865,-12.6934 -97.92376,-16.9984 -147.65406,-14.9091 -51.8214,-4.737 -109.42225,3.2553 -156.92828,3.9865 -0.94669,-8.3072 55.64417,-51.5544 50.00669,-85.7279 3.2363,-56.5847 42.89854,-146.7946 -16.25348,-179.0584 -28.89621,-42.8391 -97.09416,-8.0342 -109.2198,-66.288 -24.46699,-77.8339 -21.65388,-160.5433 -18.70079,-241.14215 -56.78325,-29.46856 -5.38524,-87.19374 -10.60916,-132.59431 2.38717,-47.88155 -42.45817,-24.45867 -31.19544,10.56734 -1.39449,46.03489 22.86398,91.56832 3.11387,136.77172 -17.02654,37.3546 -3.74149,90.1118 26.64371,105.5556 -71.80963,-14.3202 -26.67096,-102.52697 -24.39544,-150.31204 -2.15792,-54.58277 -42.44597,-102.18551 -31.82888,-157.86283 7.09172,-25.81046 64.53523,-10.81159 25.6325,-45.5924 -10.15426,-25.16834 -15.08997,-115.32195 -5.4842,-101.10305 4.98242,18.65386 3.81801,78.11739 5.49266,26.15201 -0.78503,-69.44075 2.9657,-146.3575 44.52981,-204.85322 41.26964,-25.43052 69.25361,-58.28581 109.20592,-88.04736 16.04355,-15.06743 90.58647,-34.13744 77.13895,-41.34197 -27.07109,3.29268 -68.6498,30.6454 -21.80774,1.98176 65.58528,-16.03695 134.63938,-7.87214 201.04473,-19.31636 61.63548,11.13048 129.71363,19.72483 181.6333,56.41204 34.46596,47.18484 82.26427,77.04191 122.89224,117.38672 43.77267,71.35045 30.26964,163.40198 -0.74764,237.26125 76.93381,2.96579 0.77057,97.25547 4.91319,140.06811 -8.38688,54.64093 35.67425,130.80601 -14.14811,170.20954 -34.02016,28.9427 -15.77952,88.7159 -25.63637,132.0462 7.30502,63.921 -54.51829,95.5024 -108.36373,101.9014 -40.71865,10.48 -80.3198,40.6951 -66.70768,87.436 5.60598,59.5864 25.17895,119.6077 59.34782,168.7631 22.55496,16.2494 31.96329,48.9961 -7.17418,27.3189 -38.07785,-11.1353 -76.34538,9.129 -114.74041,4.3309 z m 27.46549,-4.11 c 25.96269,-15.159 101.31944,-22.5725 93.7162,-14.0049 -35.01047,-45.833 -54.06417,-101.3016 -63.09496,-157.9422 -11.05463,-28.1452 19.8895,-95.5416 -28.99295,-64.3495 -61.96163,17.4932 -131.00925,49.7534 -193.49967,16.4858 -19.88647,-11.7749 -69.68251,-40.0731 -33.08079,3.4489 1.62591,25.1995 -45.68038,-65.0435 -36.91949,-7.7129 -3.76482,44.6715 -3.28109,91.6718 -5.87787,134.6684 13.50915,17.651 53.97333,45.9009 11.74574,20.4766 -36.79933,-30.5499 -26.87176,46.1545 -26.73087,47.4105 -55.2074,-3.4264 22.36061,18.0097 40.81148,5.6072 53.05739,-2.8158 105.46891,-0.6335 158.63474,2.1703 28.1458,0.6942 57.46072,15.4076 83.28844,13.7418 z M 391.5141,1525.167 c -13.536,-32.6423 27.4053,18.4574 0,0 z m 19.25,-2.8552 c -28.22491,-17.156 -23.23304,-51.8005 1.01846,-12.7099 7.47491,5.0276 16.31105,24.2507 -1.01846,12.7099 z m 10.27339,-39.284 c -23.68095,-9.2379 -26.93945,-57.0527 -4.92835,-17.8661 5.36312,6.0016 27.20248,23.8479 4.92835,17.8661 z m 9.49971,-29.1963 c -24.0271,-8.0739 -42.07434,-89.981 -17.4707,-35.1677 -0.55793,7.6188 46.6636,42.089 17.4707,35.1677 z m 1.11426,-41.8759 c -20.15618,-12.3755 -46.21944,-72.9126 -11.13169,-25.0117 3.21083,6.5781 34.76098,23.6903 11.13169,25.0117 z m -2.28242,-40.2291 c -20.08426,-6.7221 -36.10567,-70.2219 -10.28055,-26.5913 -0.0826,6.5423 37.28865,34.751 10.28055,26.5913 z m -73.66024,159.7287 c 17.79239,-19.8712 18.81614,-47.479 -1.26264,-13.1901 -11.40245,7.2975 -20.09337,31.736 1.26264,13.1901 z m 24.00455,-61.192 c 16.23217,-34.2636 -2.35229,-24.3897 -4.95438,5.5401 -3.77628,16.3667 5.05065,-2.5329 4.95438,-5.5401 z M 557.2322,1338.1033 c 69.6582,-4.7396 133.5087,-36.5793 192.9437,-70.7872 37.52838,-26.3455 32.396,-81.9851 56.831,-119.9329 17.74352,-35.2369 11.13469,-77.3095 18.82262,-114.2081 -4.26189,-67.14231 21.9508,-129.71458 40.58592,-192.6704 9.61242,-50.47837 9.88207,-102.38963 13.56767,-153.61685 -11.95704,-13.27498 1.07708,-72.2637 -7.61407,-26.603 0.67159,22.86687 -21.27326,58.43269 -10.10404,15.09012 -2.22313,-30.53438 13.4131,-73.81031 -10.86286,-95.9402 7.42659,20.76454 -13.85248,62.76014 -6.70265,18.37702 11.503,-26.95838 -23.96127,-87.85725 -15.58475,-24.78749 5.13401,21.25924 -4.81278,75.83287 -10.50764,25.85399 -3.16712,-35.64282 8.02729,-83.56279 -29.17807,-105.27114 9.67239,24.92919 -3.64797,93.4156 -4.00105,29.41976 0.45508,-20.23233 -16.1943,-57.16449 -8.88027,-14.92562 5.29969,51.05134 -18.26946,8.53242 -11.08658,-17.19057 -2.42194,-24.22198 -47.67795,-59.44387 -22.45017,-13.29975 8.12691,19.03071 20.9528,99.41226 7.40016,85.77722 -1.92092,-31.72336 -12.5427,-109.20175 -35.23417,-106.88738 -0.86451,44.26859 -20.32831,-54.54284 -22.83749,-7.52565 11.04787,21.56333 26.88063,90.75581 11.4215,89.00255 -5.31571,-34.1338 -4.07962,-90.02076 -36.8592,-104.86782 12.68603,55.4708 -36.01587,-61.47769 -43.52204,-11.63123 10.34437,21.52965 52.12538,84.25529 33.07246,84.92221 -11.07246,-30.65436 -41.41707,-90.81179 -57.08996,-93.43022 20.46019,25.16511 49.15898,93.43052 35.33383,102.63535 -6.31818,-48.15551 -34.0828,-84.40092 -64.22994,-106.24262 -15.547,-8.01656 -105.69254,-8.13816 -52.79439,21.85863 40.08607,44.69498 80.4538,89.68249 108.62199,143.36915 21.65138,44.75121 58.96605,82.65645 82.05108,123.50875 -49.0409,10.00479 -102.6646,5.28421 -153.50632,7.69589 -41.42918,3.43373 -121.55842,-4.35776 -138.30085,10.88732 40.7845,38.60083 68.16812,89.17633 98.28953,135.95429 20.3362,45.04956 31.95213,113.52039 -6.53755,150.65259 -24.24303,-2.0495 -39.04172,-25.79617 -40.98942,13.4081 -18.73741,29.9744 24.27032,82.3684 34.30518,51.194 -22.80456,-27.48 42.9138,-36.5937 23.97448,2.755 2.6714,50.4795 74.53371,40.3635 59.24673,-10.7901 1.83796,-24.7421 43.58759,-8.9497 16.77177,5.8516 59.87326,36.4729 63.06904,-73.75243 17.33052,-81.27613 -57.57334,48.88053 -45.28386,-52.2363 -46.25244,-88.78386 1.64471,-55.66054 40.13741,-101.70199 60.445,-151.36001 27.71549,-39.21811 68.16927,-22.44041 109.59791,-41.62355 38.22504,-12.12221 144.58358,-12.47125 108.45211,55.50704 -40.53538,14.22943 -89.06534,-35.24472 -136.08663,-8.95764 -48.52532,4.37402 -102.53811,28.44496 -118.71577,78.1109 35.18887,-41.42413 -33.33969,48.02811 -16.26259,73.53675 5.54985,30.33187 -7.89045,121.0139 46.18591,74.62857 37.83331,6.10928 40.97969,86.53453 11.56466,106.81543 19.97719,-15.6803 58.92815,-44.1814 57.29251,4.7646 10.51569,59.0701 40.42897,126.6199 14.93123,184.2398 -17.30262,24.8538 -34.99522,29.8559 -18.00159,-3.6302 3.92861,-16.562 9.9865,-42.8157 -8.04844,-16.256 26.36105,-41.1315 -2.18854,-92.9223 -14.18005,-130.614 16.37867,77.073 -40.95136,-62.6667 -65.9374,5.0661 -23.79561,26.8356 -17.86297,-66.465 10.07831,-22.1855 -8.77069,-18.1534 22.47899,-3.6635 14.97411,-26.5501 -57.06592,-27.1828 -50.75063,70.5374 -92.34517,49.0058 -20.28728,3.4692 -15.29191,23.7062 -32.51547,-6.0821 -16.92329,-45.9103 31.09702,-0.3604 35.32064,-14.3061 -12.67943,-54.7674 -93.25653,6.5499 -86.68046,-61.2186 -13.14779,-46.57628 37.85624,-71.0377 61.77488,-59.24119 11.07453,-47.74005 11.2172,-101.46883 -16.89054,-143.43983 -20.08564,-49.50734 -71.43341,-90.15812 -126.83035,-73.21619 -23.37942,2.89919 -66.1805,26.47271 -19.09747,8.57917 33.19199,0.75384 -45.54332,10.72468 -50.45134,30.01307 -16.80032,11.50983 -49.60965,77.078 -29.49892,26.34346 31.01007,-46.56448 88.86499,-85.17366 146.75257,-77.37064 66.49769,28.02196 -30.17786,-69.86826 -52.27274,-33.91117 -29.91827,12.54531 -48.9456,34.97167 -66.8858,30.87701 -30.81141,30.59702 -68.72307,79.32135 -37.94272,121.68874 5.32011,30.40227 70.08669,58.32598 43.01891,78.12721 -33.75665,-11.67121 -52.29697,-97.00749 -61.79534,-88.44799 26.45929,44.68795 39.32895,101.98035 87.08925,130.09354 -32.63589,7.74301 -63.80198,-54.33831 -84.45067,-85.83778 4.36146,32.66193 45.43348,74.50385 64.11994,109.65059 28.58298,11.9336 34.10487,29.3323 1.03748,11.7605 -19.37622,-20.9526 -41.70844,-48.13804 -15.94982,-4.9088 16.76206,18.081 65.40517,62.7949 14.34528,27.8428 -13.00228,-17.0788 -40.19035,-47.57 -24.56822,-4.0398 14.7396,45.214 21.14878,91.7243 26.10369,139.0654 -13.02339,51.3601 38.40111,90.8692 81.91752,106.3093 32.51966,8.0572 -11.19315,-58.1431 -3.13357,-83.6903 -7.38822,-46.6755 11.10454,-94.182 35.55042,-132.4112 -45.33937,34.4681 22.92504,-40.523 35.33932,7.4344 20.36121,-5.4507 17.259,14.3822 25.23703,14.2216 18.0159,-1.3068 8.02413,19.4661 20.13867,19.4631 -0.27835,35.2032 -23.2956,-6.2577 -32.43773,6.8856 -15.943,-20.9755 -21.44161,-38.8569 -25.30604,-10.1049 -28.69161,-15.9365 0.89503,31.8866 -21.35692,2.7862 -1.49605,19.57 -16.32156,69.6648 -10.73867,91.0425 2.86241,28.2923 -1.0311,40.3806 17.6272,46.1361 11.55395,30.4537 -2.88172,10.1799 -14.12963,6.1377 14.14695,37.979 42.42808,74.2045 86.9041,75.8498 17.00629,2.1072 34.26166,1.8353 51.26719,-0.1245 z m -37.86316,-74.3841 c 7.8987,-38.697 102.92038,-27.9803 76.35552,-13.5619 -25.96078,-5.7363 -53.44994,0.875 -76.35552,13.5619 z m -65.83045,-13.7406 c 10.81451,-51.7199 33.47917,-106.3467 96.81443,-94.1808 51.92068,-25.7225 119.50733,-1.1025 108.76538,64.6477 -9.14124,45.575 -1.73909,-95.4499 -50.06192,-54.5256 -33.40948,47.7497 -112.88537,-14.33 -133.65936,34.4157 -4.6886,17.3253 -6.90899,37.5508 -21.85853,49.643 z m 111.33045,-70.778 c 19.85316,-2.9307 85.76172,-31.8119 29.84127,-13.9209 -23.27286,4.9418 -107.26896,13.7612 -40.3101,15.3124 3.5364,-0.082 6.987,-0.8574 10.46883,-1.3915 z m -79.04271,-6.5244 c -0.095,-5.0946 -3.29843,3.4323 0,0 z m 64.11303,-5.0456 c 28.0437,1.2693 82.04862,-20.9379 21.66013,-10.7743 -25.04565,3.2746 -92.37808,15.2562 -30.07106,11.6508 2.80364,-0.2922 5.60729,-0.5843 8.41093,-0.8765 z m 21.93654,-33.6252 c 6.74641,-38.6041 14.23443,-17.2203 0,0 z M 399.86904,1004.9692 c 19.26655,-12.37831 57.99258,-66.59919 41.98986,-72.68118 -12.29822,15.87558 -65.53769,56.54538 -25.31046,21.63086 25.57249,-12.56339 44.47604,-64.46452 4.61817,-24.41802 -17.42736,15.59802 -87.38001,30.5128 -29.36098,9.81902 53.49132,5.31605 74.09004,-82.22293 28.25362,-77.49756 5.3448,79.78153 -119.79641,33.56853 -59.80278,-23.25708 -14.9355,-7.28547 -87.3787,101.29377 -41.26965,33.45857 28.13007,-64.90299 103.01347,-48.82405 133.50704,4.76089 30.63301,41.00871 -25.98257,112.1105 -54.23875,130.1703 z m -7.18426,-100.52435 c 53.77282,-14.10721 -11.37087,-99.58634 -32.09684,-56.3446 56.12754,-46.58206 40.17825,85.68748 1.57467,20.31398 7.3637,-40.97429 17.22226,39.25392 33.73055,2.60892 -27.34518,-83.45586 -73.00162,47.06776 -3.20838,33.4217 z m 141.68426,100.72845 c 20.76222,-18.71526 44.19248,-0.092 8.96726,-2.0773 -0.17514,-2.0145 -13.58737,9.1851 -8.96726,2.0773 z m 3.92821,-8.99305 c 15.69026,-2.79102 6.02224,-25.16649 25.14542,-12.27921 -1.8184,1.53956 -37.58156,23.93676 -25.14542,12.27921 z m 146.7277,-34.5795 c -35.71046,-20.25521 -95.13811,-69.90295 -45.021,-108.20131 30.46325,-54.16245 103.57922,-61.2737 132.09725,-1.6885 19.98475,21.32651 10.3819,37.38288 -5.80638,7.38648 -14.69536,-23.54134 -43.13499,-49.56248 -30.71772,-2.40479 -11.16081,49.87417 -101.47714,8.76629 -63.70932,-30.57688 -24.46643,13.28393 -73.06569,68.24377 -13.49874,63.9913 33.53425,0.78919 42.38284,25.68708 4.91371,9.17302 -62.30285,-20.50343 15.45813,17.18997 29.55692,27.23929 -23.38287,0.35804 -80.12938,-40.29524 -38.75865,2.28277 5.1251,7.57635 68.37258,43.15372 30.94393,32.79862 z m 30.08659,-86.8995 c 27.32831,-16.33269 11.73227,-47.46279 -7.65395,-15.72715 -30.69912,11.96084 -21.02407,-53.3066 2.80111,-28.73415 -50.08618,0.16414 34.2804,43.11237 4.50243,-3.81606 -41.7606,-34.1616 -63.28433,59.21122 -7.59417,49.97078 2.64818,-0.56445 5.29656,-1.12915 7.94458,-1.69342 z m -17.4925,-62.7564 -2.43984,0.0477 z m 11.4777,-1.0675 -6.9847,0.0135 z m -50.2277,63.7298 c 3.15652,-4.35676 1.53888,4.1296 0,0 z M 418.59126,1300.3849 c -9.40538,-5.8996 6.09921,8.7038 0,0 z m -5.22222,-1.7778 c -1.31647,-3.7917 -2.24455,3.8725 0,0 z m 309.56498,-13.1051 c -5.38108,-1.1647 -2.99596,6.527 0,0 z m -23.39372,-2.5499 c 7.81342,-10.6048 -10.07371,4.9057 0,0 z m 51.09244,-10.0864 c 30.55987,-12.694 21.63756,-20.3192 -3.46414,-0.2672 -16.25151,9.1109 -2.19061,5.0367 3.46414,0.2672 z m 65.2363,-16.2586 c -1.31647,-3.7917 -2.24455,3.8725 0,0 z m -9.94406,-4.9559 c 51.4922,-17.806 51.36646,-81.285 58.13843,-126.1471 -8.82751,-48.1644 9.11297,-104.2644 -12.90564,-148.44111 -20.04367,-36.82942 -13.79806,54.08321 -11.52649,74.82161 -9.75911,19.2772 -7.76543,77.241 -20.22598,98.2035 2.86058,31.6752 -62.21238,84.2 -13.48032,101.5631 z m -505.85757,-6.2078 c -3.76563,-62.2186 -4.84677,-125.5761 -23.10381,-185.4518 -11.88594,-39.9335 -2.45119,-96.54739 -37.34394,-136.67657 -18.74691,-45.41539 -0.36798,44.85464 -2.51825,60.04988 1.31172,55.51849 6.60123,111.01449 9.26005,165.79769 12.02904,35.97 6.99237,84.2285 47.02845,98.6804 l 6.67752,-2.3996 z m 19.30802,0.2137 c -13.25153,-9.8008 8.46572,10.0133 0,0 z m 389.92332,-4.359 c -4.23587,-10.8488 0.14279,21.874 0,0 z m 123.07029,3.691 c -4.14129,-3.5832 -0.39193,6.7896 0,0 z m -124.6646,-36.382 c -4.71099,-25.4019 0.44345,40.6171 0,0 z m 145.55579,10.4984 c -8.38293,-33.2453 -3.12693,29.6134 0,0 z m -47.36569,-55.3326 c 4.10135,-37.9442 -7.35622,39.6869 0,0 z m -500.937,0.4543 c -5.77967,-23.7755 -1.99598,26.2901 0,0 z m 90.43428,-2.1201 c 0.10156,-36.2783 -4.08007,30.1086 0,0 z m 412.66033,-13.6875 -0.18469,1.8064 z m -147.09647,-25.1293 c -4.92731,-29.2169 -17.91899,-11.7907 0,0 z m -135.58664,-6.7422 c -3.26642,-3.824 -1.47238,5.366 0,0 z m 142.89074,-11.8237 c 6.48052,-16.6844 -14.05651,-17.0792 0,0 z m -39.51574,0.085 c -0.38423,-8.5858 -7.97709,5.1345 0,0 z m -199.4392,-13.1523 c -5.35152,13.01 -1.38699,16.1248 0,0 z m 221.0642,7.391 c -3.26642,-3.824 -1.47238,5.366 0,0 z m 31.09378,-5.7472 c -5.24889,1.854 5.91742,6.9582 0,0 z m -33.23498,2.4146 c 7.30036,-19.9631 -15.36707,0.796 0,0 z m 32.3918,-8.7018 c 3.40913,-28.4223 -12.68827,-8.4946 0,0 z m -245.1578,-8.0359 c 4.54291,-9.472 -23.69435,20.8813 0,0 z m 2.59031,7.4418 -0.18469,1.8064 z m 217.77473,-7.3037 c -5.28243,-17.0125 2.34559,20.9488 0,0 z m 16.12935,-9.7205 c 23.61407,-8.346 -19.43544,-1.0428 0,0 z m -68.38867,-11.391 c 10.553,-15.5754 -31.40463,15.3198 0,0 z m -97.19852,-7.6256 c -5.3814,-7.6088 -3.28265,15.2135 0,0 z m -233,-1.7127 c -1.47238,-5.366 -3.26642,3.824 0,0 z m 622.16325,-10.2709 c 38.28162,-68.58661 -20.12334,-149.4691 17.91756,-218.16699 25.25733,-23.60609 23.41263,-120.6887 -21.87041,-76.17297 -18.54284,20.69597 -0.34227,53.92587 14.80917,46.62113 -51.91366,4.85941 13.94357,72.96236 -15.04535,105.55804 0.54368,45.29959 -31.3224,109.87609 -1.50844,144.08199 z m -24.63012,-65.80145 c 0.4523,-9.63397 -7.18349,19.98675 0,0 z m -7.96266,-0.3941 c 13.04684,-28.20223 12.55149,-90.35053 10.14797,-102.61472 3.19683,27.33167 -37.37302,92.08673 -10.14797,102.61472 z m -636.05839,-11.6121 c 5.24795,-27.19942 -17.87956,-87.97006 -15.06517,-25.98514 0.18526,9.67368 -0.0751,29.05262 15.06517,25.98514 z m 623.99493,-37.5886 c 3.52737,-51.87062 -9.00048,71.54456 -0.35664,3.69477 l 0.28196,-2.92107 z m 38.47924,-41.3918 c 6.64509,-22.72637 -2.95854,-52.44499 -4.24761,-12.28351 -7.18388,20.29677 5.05453,49.56668 4.24761,12.28351 z m -31.588,3 c 5.97852,-13.69001 -5.90247,17.34434 0,0 z m -622.39825,-16.441 c -1.34583,-7.11115 -3.33958,5.46933 0,0 z m -51.60438,-16.309 c 0.66506,-28.71597 52.14222,-78.03537 -8.87012,-74.91034 -12.40158,7.80894 -2.60293,107.5577 8.87012,74.91034 z m 689.60438,-9.2174 c 8.83803,-32.15533 -8.04451,7.59698 0,0 z m -590.77575,-16.4438 c 4.23505,-8.88469 -14.83737,19.26968 0,0 z m -38.77088,-13.259 c -4.73107,-24.56644 -31.70666,-50.79256 -11.74874,-11.09998 0.78617,3.15455 6.204,24.89873 11.74874,11.09998 z m 12.20077,-5.5792 c 8.97624,-66.68888 69.85501,-64.944 110.67451,-99.94065 33.48681,2.19992 60.60053,-1.41737 77.80066,-38.59915 33.76892,-54.6216 42.09285,-120.23352 72.65428,-176.42118 26.59115,-36.11344 -27.64312,-100.83421 -59.09663,-73.76325 20.14083,6.27978 35.97656,49.39961 9.12954,29.73142 -13.65535,-37.37869 -102.86256,-33.61419 -45.42865,3.74195 26.38552,43.53685 -64.26685,-53.88819 -27.82143,2.05894 16.83345,20.22316 27.60679,98.95145 3.97304,36.57461 -6.78041,-31.98679 -77.96432,-64.2753 -60.14817,-10.18452 17.49105,24.38258 18.07256,33.9212 -0.80223,21.76296 4.06909,18.667 29.36584,84.4566 1.78242,34.34283 -6.23181,-27.36383 -21.80467,-78.94769 -13.90278,-22.64671 8.3078,29.68688 -1.62384,49.16596 -6.28915,7.17175 -3.2959,-20.82187 -18.34872,53.31771 -9.53654,-2.32272 4.76409,-15.71857 8.57837,-77.51427 -4.88479,-29.31556 -12.28953,20.55999 2.71932,86.33063 -15.41521,81.84999 -2.55622,-20.75881 -10.17142,-80.98 -11.15632,-24.17889 6.46649,25.21456 -24.91227,67.42162 -14.06826,15.63764 -5.55889,-40.0566 -20.04396,64.11297 -12.87083,83.15193 -16.37794,-41.43648 -0.61502,73.57783 -20.59824,25.11171 -14.58017,-18.83486 12.81647,48.50485 12.6438,62.88337 -12.51776,22.90513 -28.9335,-105.28975 -22.26449,-32.66647 13.40495,33.91237 17.37456,78.54718 35.62547,106.02 z m 58.81958,-14.3508 c -7.58338,0.80306 -14.68886,16.60524 0,0 z m 320.53178,-19.0203 c 58.78428,-38.23646 138.52248,-51.41585 201.15975,-14.99905 57.79116,-32.08814 -36.62586,-70.82428 -73.09483,-53.42633 -50.21604,12.23301 -115.9061,5.314 -138.50431,60.96962 -5.55855,22.53182 -14.59641,27.67999 10.43939,7.45576 z m -283.0055,-1.8795 c 6.73119,-8.83138 -9.61855,9.56119 0,0 z m -129.65459,-5.0423 c -4.68388,-4.70125 -1.383,5.42275 0,0 z m 5.09168,-13.9365 c -18.44352,-36.67396 12.91539,37.57091 0,0 z m -25.18375,-5.5212 c -10.34993,-38.408 -18.80647,-24.7359 -0.73231,4.84841 z m 694.16482,-17.943 c 6.48142,-9.76571 21.29516,-49.20368 0.33949,-19.9273 34.07874,-43.51462 11.00912,-111.65903 5.74993,-149.74891 22.09365,11.76431 16.80782,101.08851 21.45785,41.02463 5.23359,-44.27686 -26.41858,-128.02636 -54.82395,-128.09774 31.62233,79.48222 49.3343,171.77529 16.15159,253.41195 -3.31861,14.67159 3.80955,18.86104 11.12509,3.33737 z m -694.45686,-42.057 c -2.52709,-21.47523 -7.07775,-102.44066 -7.15901,-39.03918 -1.50937,15.40674 6.83133,94.51879 7.15901,39.03918 z m 266.0387,14.4143 c 77.36318,-3.91407 155.01564,-0.12732 232.23092,-7.2796 -34.39849,-22.09201 -53.5429,-121.19046 -97.20851,-54.15807 -43.01519,36.58345 -93.38918,-2.52386 -133.11424,-5.78696 -13.43621,15.98017 -53.94976,69.69316 -36.84002,69.03033 11.64044,-0.66892 23.28781,-1.20564 34.93185,-1.8057 z m 427.58247,-66.6643 c 0.0777,-32.0603 -3.58923,-40.11282 -1.57377,-3.75099 0.5917,22.39315 2.68929,45.16914 1.57377,3.75099 z m -676.58247,14.1276 c -5.04256,-6.51817 -2.1582,11.03182 0,0 z m 324,-0.5249 c -32.84176,-22.34047 -5.71064,-85.24632 12.46816,-61.3527 13.02747,-18.68839 8.91711,24.04969 23.1848,-3.26801 -12.47914,-32.99397 -96.6692,14.50039 -61.45099,6.50376 -29.26466,-10.67985 -16.74289,16.48607 1.0031,14.22631 -21.43375,5.0861 -24.30677,14.58798 2.57529,18.91455 -29.08582,-1.36695 -14.19593,15.92084 -3.01587,9.13224 -15.9172,12.64838 15.9645,1.19341 16.27479,14.92041 l 8.96069,0.92343 z m 27.82606,-2.399 c -13.12161,1.36909 -17.07592,-22.96195 -26.48131,-6.00927 2.56833,6.99867 24.55906,15.14496 26.48131,6.00927 z m 16.10136,-4.85177 c 21.48766,-30.49115 -28.53897,-63.07496 -11.98094,-21.09057 24.67736,14.8596 -36.68094,-9.38537 0.19337,17.7479 -2.11422,8.1712 11.40929,12.057 11.78757,3.34267 z m 9.03216,0.91869 c 51.69083,-7.27928 0.59392,-76.04842 -4.87768,-53.85607 8.82369,16.90135 0.10035,36.77074 4.87768,53.85607 z M 491.74473,625.85715 c 13.99585,-40.28917 -8.007,-34.88229 -12.36138,-4.84869 1.3682,3.67329 15.35359,15.38608 12.36138,4.84869 z m -263.37569,-3.30902 c -3.69219,-15.60175 -0.312,17.60876 0,0 z m 326.12854,-3.19098 c 2.10432,-6.36624 -5.64537,8.4205 0,0 z m 317.55457,-1.9375 -0.18469,1.8064 z m -394.04617,-6.5319 c 23.44665,-70.56174 135.88691,-32.88702 148.76802,-17.83971 -25.45149,-44.53548 -55.65955,-99.38912 -95.03442,-127.56369 -18.55388,40.34489 -32.85234,83.20356 -48.00776,125.5836 l -3.17941,9.86184 z m -264.57352,-9.0306 c 0.47644,-24.5431 4.9903,-107.82985 8.66349,-40.70114 23.81467,10.1783 0.58428,-93.76965 41.75455,-94.22942 2.58565,-56.05991 -50.48491,23.94542 -46.65827,48.37441 -7.82821,26.14002 -6.87107,75.74479 -3.75977,86.55615 z m 17.45744,-12.59736 c 12.04527,-38.68587 -3.97647,-15.24001 -4.9235,9.03595 z m 338.47914,6.74037 c -3.88938,-2.26036 -3.35822,3.70215 0,0 z m 303.6431,-24.2897 c 6.05147,-30.13222 -18.71913,-59.61286 -6.39229,-12.854 -0.37202,11.21243 8.92612,43.11799 6.39229,12.854 z m -14.67611,-21.82087 c 0.62235,-23.1224 -21.17969,-61.35932 -10.21851,-16.09155 -4.85225,11.44427 19.1765,50.27252 10.21851,16.09155 z M 258.99253,531.8973 c -7.23127,5.74831 -8.27465,28.16006 -1.95042,8.78442 z m -0.0929,-7.29015 c 14.8449,-21.74155 -24.35324,29.10024 0,0 z m -15.12517,3.24476 c 3.72875,-22.38651 5.1417,-58.70701 -0.48585,-15.35376 0.47264,1.72208 -3.69718,27.26029 0.48585,15.35376 z m 596.5946,2.83471 c 3.14379,-25.04534 -33.19678,-114.08127 -19.01477,-42.00817 2.24406,14.53171 1.65301,36.48628 19.01477,42.00817 z M 275.80563,511.71465 c -10.58465,7.67477 0.58887,20.05389 0,0 z m 16.9827,2.31863 c 5.7951,-48.66001 -9.78958,23.08758 -0.76522,6.31805 0.25508,-2.10602 0.51015,-4.21203 0.76522,-6.31805 z m -26.70888,-3.04905 c -18.09359,10.95915 -14.03566,22.21866 0,0 z m 2.15614,-6.74998 c 13.29494,-25.32082 27.25405,-87.44167 -0.0541,-39.69 -7.82179,8.29298 -29.99074,79.15189 0.0541,39.69 z m 597.28921,6.27995 c -1.88942,-29.14959 -52.31289,-80.36666 -16.9526,-23.51457 4.59518,7.27589 5.86203,24.33367 16.9526,23.51457 z m -587.15576,-5.90705 c 2.18019,-7.05611 -4.69782,7.59193 0,0 z m -1.19313,-5.52646 -1.50671,2.35605 z m 532.65223,-8.69099 c 8.56953,-29.63699 -68.08059,-101.31589 -37.70591,-34.80205 5.01881,8.55675 31.8423,55.8079 37.70591,34.80205 z m -525.64462,-9.76683 c 1.49626,-24.67155 -9.28664,31.84474 0,0 z m 15.71608,-10.1966 c 32.65802,-25.76363 -26.9098,-7.00718 -5.50479,9.5548 z m 28.46944,-8.3543 c -4.31667,-13.68867 -1.76129,15.33705 0,0 z m 57.96647,-4.87292 c -52.08784,-54.58808 -3.42996,23.52706 0,0 z m 375.51436,-2.8419 c -8.97307,-24.46957 -18.38219,-14.10991 0,0 z m -462.85498,-3.70343 c 16.52546,-17.72256 22.81254,-38.41348 1.5534,-9.11805 -5.4321,-0.55365 -10.71912,21.30502 -1.5534,9.11805 z m 30.37415,-1.14077 c -3.91922,-11.83754 -4.28375,19.34674 0,0 z m 9.25,-1.29785 c 4.97305,-8.11912 -9.02572,3.95342 0,0 z m -42.68406,-5.73546 c 6.22788,-18.02004 -10.67258,15.3168 0,0 z m 24.21818,-1.46207 c 22.75704,5.19654 64.9513,-11.2313 20.48927,-21.066 -16.96493,13.51064 -11.1495,14.91579 -15.1288,1.38435 -6.59748,2.33687 -27.39992,35.25822 -5.36047,19.68165 z m 419.70753,-1.16042 c -8.21672,-20.46628 -51.4465,-54.11098 -24.63444,-11.35131 2.99672,3.90509 24.25535,21.67473 24.63444,11.35131 z M 383.09023,429.24348 c -32.63808,-29.36764 -29.29172,1.23908 0,0 z m -73.38661,-3.88633 c 11.12117,-22.73857 38.26531,-14.51662 47.24359,-42.72202 -17.20502,-10.69723 -74.49114,46.73986 -47.24359,42.72202 z m 444.66542,2.53343 c 0.67914,-15.76252 -18.95961,-6.83425 0,0 z m -59.18002,-8.43587 c -16.84987,-15.36334 -42.55897,-68.00983 -63.39614,-50.9464 21.30507,5.09467 58.97802,74.49033 63.39614,50.9464 z m -394.01176,-1.09756 c 23.49328,-28.11952 -14.144,25.05125 -0.0611,0.0882 z m 104.69178,2.583 c 9.70288,-19.75136 -58.84245,9.90938 0,0 z m 35,-4.333 c -3.15652,-4.35676 -1.53888,4.1296 0,0 z m -107.35127,-3.08404 c 32.748,-11.97042 -29.35034,4.26796 0,0 z m 469.51104,-4.23354 c -10.45953,-26.49881 -76.68125,-66.34056 -74.80601,-45.73269 26.32671,7.29988 68.63203,43.67906 74.80601,45.73269 z m -55.32467,3.31119 c -7.69724,-26.59971 -27.0834,9.16167 0,0 z m -314.67896,-1.31642 c -17.00722,-15.95883 -26.89263,10.05768 0,0 z m -18.68005,-4.3534 c -13.54108,-22.15585 -78.28157,8.12883 -21.20882,2.76249 7.02019,0.6863 15.2103,2.40994 21.20882,-2.76249 z m 372.02391,2.61635 c -13.4871,-22.25417 -44.34486,-27.69394 -10.8476,-4.51159 2.85347,0.61987 6.89816,8.54906 10.8476,4.51159 z m -330.08381,-2.80451 c 10.65829,-13.18319 -31.92168,7.36686 0,0 z m 180.5209,-1.23713 c -14.36349,-17.80938 -90.21441,-61.22607 -42.74157,-17.36065 10.21677,9.11743 28.49927,26.08641 42.74157,17.36065 z M 357.5988,401.91359 c 39.84975,-22.79632 -32.58009,8.40078 0,0 z m 148.60896,-0.85104 c 46.24187,-5.65594 -57.34571,-26.13894 -60.33538,-19.20367 -84.20771,11.96287 51.42277,21.92068 60.33538,19.20367 z m 150.0646,-0.63604 c -11.7101,-19.9679 -44.99202,-33.07121 -11.77803,-7.67437 -2.68921,-7.53014 14.42356,17.1774 11.77803,7.67437 z m -67.6602,-4.83564 c -30.16051,-24.18659 17.53331,24.05179 0,0 z m 142.51615,4.25341 c -12.68622,-27.26469 -50.28445,-14.62109 -8.50418,-0.25913 l 4.1448,1.37969 z m -180.75927,-0.16515 c -6.78684,-10.34319 -32.24895,-0.99524 -9.87809,0.70354 z m 204,-3.07198 c -13.89757,-10.05576 6.81423,10.11972 0,0 z m -375,-3.52166 c 38.35911,-19.88287 -29.25602,9.62646 0,0 z m 310.68415,-2.85708 c -22.46701,-27.57951 -18.37252,-11.68403 0,0 z m -289.68415,2.35913 c 25.34115,-6.18744 -38.6105,2.76959 0,0 z m -59.76463,-11.14459 c 49.75854,-17.49646 -28.20965,24.73828 -7.72531,4.25661 z m 204.72892,7.77062 c -31.59912,-16.98864 -45.76681,-4.84393 0,0 z m -175.83872,-1.96171 c 61.25074,-8.73968 -27.4021,-17.27858 0,0 z m 365.66822,-0.89471 c -14.28222,-16.65323 -6.87128,4.78559 0,0 z m -173.79379,-5.64641 c -18.78131,-19.75511 -57.59387,-6.80367 -12.71661,-3.89032 4.22388,1.26478 8.01232,4.64431 12.71661,3.89032 z m -50.61013,-2.9819 c -9.05641,-11.5046 -22.85201,4.06378 0,0 z m 184.95391,-3.77402 c -10.7266,0.0812 6.72861,7.27058 0,0 z m -216.34378,2.73556 c -28.87607,-7.7915 -48.68238,4.35397 -8.0123,0.44714 2.67076,-0.14904 5.34159,-0.29815 8.0123,-0.44714 z m -69.19603,-1.50566 c 23.9698,-7.75522 -27.22857,4.24715 0,0 z m -9.80397,-1.93956 c -3.97626,-2.25733 -8.69856,6.80703 0,0 z m 207.92431,-1.23302 c -23.22599,-20.99487 1.68941,8.76755 0,0 z m 105.57569,-0.40499 c -16.71011,-7.50578 0.0518,4.36359 0,0 z m -301,-21.45078 c 56.53152,-30.29295 -80.9812,32.73696 -17.84073,9.65617 l 8.82199,-5.01009 z m -12.70757,17.38514 c 23.11017,-10.59843 114.48625,-26.82423 95.62368,-26.88352 -26.82717,-8.67112 -97.41035,7.43527 -95.62368,26.88352 z m 278.20757,-0.43436 c -7.37547,-7.59541 -0.599,5.67645 0,0 z m -227,-7.03222 c 18.84726,-13.65539 -54.76825,14.96618 -7.18843,2.74427 2.39614,-0.91476 4.79229,-1.82951 7.18843,-2.74427 z m 51.5,4.44355 c 19.18226,1.92476 57.00635,-2.7014 18.74372,-13.91133 -22.81765,-2.13804 -91.29687,21.27231 -28.45779,15.01631 3.27042,-0.0332 6.47594,-0.73729 9.71407,-1.10498 z m -44.42431,-1.49926 c 8.37508,-8.52146 -20.52698,10.76422 0,0 z m 257.3293,-0.54369 c -13.37848,-24.74901 -68.03162,0.6783 0,0 z m -123.40499,-0.88369 c -21.16123,-21.88241 -46.44255,-9.90623 -7.38398,-0.99844 l 3.60737,1.67625 z m 29.96416,-3.12588 c 17.1703,-12.70204 -63.38975,-14.33812 -12.92201,1.12758 l 4.30267,-0.20089 z m 46.28584,-2.85012 c 0.75167,-8.80489 -27.73054,8.60187 0,0 z m -8.33052,-7.024 c -10.66455,-29.95224 -92.0966,-12.65484 -85.90719,-11.55066 29.36834,-1.65759 56.43186,18.38244 85.90719,11.55066 z m 24.83052,-2.97368 c -10.16064,-19.62118 -25.66565,5.47709 0,0 z m -138.461,-5.53013 c -41.37329,-18.70587 -31.50844,7.32148 0,0 z m 21.46391,-9.39868 c 19.69207,-2.72563 70.44628,-6.78411 22.76332,-6.43021 -19.70415,-2.52189 -84.16296,9.66072 -22.76332,6.43021 z"
       style="fill:#000000"
       id="path22" />
    <path
       d="m 637.97024,1554.188 c -67.19147,-20.2617 -138.06032,-13.107 -207.13399,-15.7333 -15.49978,6.5382 -108.22736,0.4014 -56.71583,-3.012 11.70157,2.6785 -15.40617,-58.4402 21.15021,-52.5861 15.76221,23.367 44.98926,14.4581 7.96357,-2.3523 -26.82286,-37.5989 -1.63817,-93.97 -7.71872,-139.3258 -4.34354,-56.2135 18.13087,-1.906 40.18102,5.0312 -18.15675,-26.3609 -16.78238,-39.3605 14.43907,-16.4632 51.05679,33.2037 113.3704,22.0744 167.48081,4.0051 29.24646,-3.5743 84.90922,-45.6881 68.89845,13.9934 -1.41853,68.3562 22.82272,136.5062 61.6284,192.1219 8.51145,18.109 -42.58813,-7.3286 -57.14323,8.9685 -17.29747,1.8763 -35.9718,11.9253 -53.02976,5.3526 z m -235.62455,-25.0922 c -10.82954,-35.1914 -22.75146,1.1696 0,0 z m 20.01588,-3.9869 c -4.23614,-20.3878 -50.99721,-57.3852 -24.88055,-13.5013 4.96446,5.8004 15.96996,18.2793 24.88055,13.5013 z m 9.78129,-43.4512 c -8.55191,-15.9769 -48.76955,-55.6298 -26.48435,-12.5081 3.78588,6.3249 19.38048,22.6102 26.48435,12.5081 z m 8.98809,-28.9029 c -14.26625,-15.6057 -57.36444,-90.8394 -34.9001,-30.6166 6.73385,11.6944 17.46705,41.1687 34.9001,30.6166 z m -0.62088,-43.4975 c -8.97496,-21.5766 -62.65527,-67.6237 -27.17002,-16.7466 6.44453,7.2745 15.66406,26.8434 27.17002,16.7466 z m 0.62088,-36.6818 c -10.81234,-21.0533 -54.95261,-69.2205 -27.21065,-16.4807 5.41461,8.1255 15.35443,22.9186 27.21065,16.4807 z"
       style="fill:#e9afaf;stroke-width:1.79762"
       id="path34" />
    <path
       d="m 495.95833,1335.5019 c -32.62869,4.8963 -84.21867,-68.8207 -67.79937,-66.3908 23.64679,21.0445 -16.10239,-23.7093 -8.61656,-25.8952 -11.73479,-43.3385 1.69313,-76.2607 5.53076,-120.5115 -1.34148,2.5226 25.71554,12.5073 9.95686,-6.1791 28.74491,12.3242 8.74683,-36.0394 26.98151,-3.6264 14.40357,24.9119 35.61873,15.2203 51.05546,21.2131 11.91161,12.5931 19.69876,-22.1242 41.305,-0.059 14.34487,-23.146 47.26154,-81.8938 74.65443,-49.2754 -16.68518,11.3656 -14.4145,20.9429 -36.11107,6.3066 -13.1915,45.3506 6.63887,46.2695 33.74801,16.3237 23.19189,1.5371 50.89656,70.9642 46.13027,22.5338 22.05157,21.855 19.69412,148.6476 17.3767,115.8775 18.7595,-10.7199 -29.83486,85.3436 14.09199,34.04 34.33491,-42.2042 7.07948,-102.3875 2.2058,-150.5703 -5.83076,-33.8806 -17.5887,-106.6298 -59.5685,-51.6005 26.65434,-37.077 6.45157,-139.55972 -53.24811,-89.48572 -12.56219,-44.05303 -18.81462,-95.26674 -3.34738,-139.75286 25.08005,-35.76627 10.65243,-50.6685 54.9829,-76.01081 44.03088,-21.75736 97.83574,-34.83425 146.16667,-22.64036 34.58688,35.45576 96.15652,-2.16317 56.1486,-42.27516 -48.62923,-20.32301 -103.07617,-10.63521 -151.75109,6.86003 -37.64738,-5.95367 -70.95765,28.21043 -82.24878,66.3994 -23.64022,45.12968 -47.79079,92.45226 -42.41862,145.12713 0.91014,31.63781 -0.4557,104.17965 43.79083,61.04295 55.70494,-4.42346 33.20052,121.4483 -7.06745,74.0705 6.21902,-35.2264 -40.00743,1.6008 -27.52385,25.6534 -29.85752,50.6974 -57.86718,-18.6433 -61.00276,-45.2594 -44.71186,-5.6524 5.55262,47.0476 -37.98722,32.6809 -24.56014,-20.1096 -20.85134,-106.35045 22.97013,-68.9692 42.75021,-28.37386 30.27629,-99.13527 15.98306,-142.0644 C 492.08523,809.169 456.6224,757.15639 416.03033,712.70727 c 94.08722,-8.09003 189.1052,-4.8141 283.50366,-9.90039 23.54935,-22.98048 -41.15243,-59.58244 -48.35035,-89.87845 -41.17875,-71.52041 -87.98857,-140.22294 -148.58698,-196.79983 16.8878,-19.23175 70.53899,-12.64565 84.56519,8.63576 33.5765,15.45249 36.21238,78.94707 51.22428,92.78098 7.65714,-34.09661 -25.49964,-77.49085 -30.06442,-97.11087 25.06538,14.93488 38.84342,96.30222 55.23723,83.39191 3.98929,-29.41823 -59.31607,-80.95366 -28.15915,-91.56664 21.53898,8.10956 33.97554,65.89168 36.4473,20.49817 29.33006,28.12771 20.6846,85.03458 37.30907,111.00682 14.52518,-32.32983 -26.63952,-89.38068 -7.47545,-104.141 2.90351,23.53838 12.1256,43.2267 17.42685,14.47798 31.31795,27.76691 18.24194,96.74371 37.31318,115.5965 6.94314,-38.04968 -15.41764,-85.85847 -16.79613,-115.34257 35.57359,12.67248 12.77522,78.65405 38.33423,77.85524 3.85963,-17.7432 -7.02994,-65.59764 4.27664,-20.3006 0.96726,20.80004 9.14148,64.99681 10.87461,19.3531 -9.49706,-64.87308 33.56784,2.66746 23.37934,32.10285 -4.59375,26.07624 12.776,93.75288 13.967,29.49601 -2.5957,-23.11473 0.43765,-75.73865 12.75764,-23.60181 3.60896,16.9267 -4.68422,81.08041 8.87174,31.72813 11.23891,-48.02203 14.21565,65.07474 7.63155,83.31631 -0.86061,49.4654 18.85634,-64.08653 15.34668,-6.53604 7.77827,45.69417 -3.59553,93.03479 -5.42424,139.24833 -13.70505,72.77946 -50.74712,141.41162 -44.62194,217.51264 -4.59555,53.704 -9.96755,107.6505 -36.626,156.098 -5.88327,53.5382 -42.60273,88.4951 -92.88561,104.3431 -60.90747,31.7223 -130.73622,50.2342 -199.54792,40.531 z m 35.25434,-76.03 c 16.02959,-20.1029 110.07734,4.4147 55.12386,-23.8563 -10.02846,-18.8535 -100.53387,39.9425 -55.12386,23.8563 z m -71.29997,-14.8377 c 10.4982,-46.8059 33.13152,-75.9548 85.05513,-60.1542 39.57709,16.9118 92.80739,-60.2144 102.71716,9.7157 -0.60274,17.6466 14.30163,66.7412 11.95066,20.905 8.61749,-68.489 -64.01669,-81.1839 -114.15773,-59.7113 -61.17865,-12.1694 -83.08145,46.564 -91.80717,94.6691 z m 116.92241,-107.6141 c 14.34131,-44.4734 -13.79758,-22.608 0,0 z m -24.37157,-133.1878 c 39.03418,-10.3867 -34.71254,-1.8478 8.73376,-17.01095 5.01976,-25.2643 -45.32699,25.20325 -18.08946,18.51575 z M 699.9881,964.75894 c -17.62503,-18.82087 -61.46062,-45.77044 -56.48775,-55.29914 17.73682,15.91906 76.65508,24.49223 26.2818,2.03692 -25.39608,-10.50952 -38.47,-24.71588 -1.60593,-9.79036 55.10541,8.03356 -19.50182,-17.93956 -36.65845,-18.92334 -7.81639,-21.30628 43.06075,-72.40806 34.2106,-23.33126 27.62492,46.05671 86.15763,5.98128 72.54966,-30.26888 13.70375,15.49007 67.38623,79.8901 35.58488,23.38641 -27.33998,-57.69548 -99.4769,-56.46908 -131.13518,-3.6079 -51.91736,36.22384 -0.72296,89.92496 37.80005,110.31171 4.96492,-0.21011 13.76918,11.17184 19.46032,5.48584 z m -37.75,-90.21727 c -4.59282,-6.44888 -4.59282,6.44888 0,0 z"
       style="fill:#e9afaf;stroke-width:1.79762"
       id="path36" />
    <path
       d="m 390.79762,1292.6917 c -38.35867,-15.2736 -86.73742,-48.3118 -79.63637,-94.9059 -2.3433,-52.0736 -11.2092,-103.2933 -27.24522,-152.8612 -17.65798,-49.92916 69.07812,60.566 40.83979,9.5863 -18.94707,-11.2614 -55.59758,-70.93217 -19.93445,-27.9684 15.38408,18.2477 50.63266,11.6082 14.48646,-2.4813 -21.93866,-20.2586 -77.99601,-108.56627 -65.21405,-99.46701 11.46267,26.58768 58.56056,85.85681 75.52027,68.96565 -21.77907,-10.00089 -74.04757,-81.05045 -27.53655,-40.68431 35.31144,1.02084 -19.35598,-49.37341 -30.66758,-61.40756 -36.25302,-42.04325 -15.89741,-84.97753 11.98984,-124.30974 30.45869,-17.83283 57.12242,-23.89957 91.56478,-50.27318 25.38013,-9.30584 106.97973,64.00455 37.38498,37.87425 -58.20115,-3.06918 -116.42787,34.75895 -144.35588,84.68887 -11.16008,43.12575 26.95037,-38.24414 47.79728,-42.14431 7.75285,-11.41485 67.05136,-16.00366 37.36137,-22.91153 55.22744,-23.24622 118.39164,6.81385 139.89409,61.91274 13.11786,23.90588 28.37729,47.47311 26.25998,75.91663 -0.23817,33.91606 8.72761,94.2249 -41.10239,71.21154 -45.90137,13.98528 -14.94145,112.89366 -18.19048,100.32316 -30.76167,-34.5346 -57.24987,2.3901 -53.6387,25.6331 -31.50917,58.7507 -16.74938,126.8711 -1.83655,187.4872 l -4.88444,-1.2729 z m 22.29872,-296.09939 c 29.79746,-28.30725 48.96417,-67.80371 51.80253,-108.88826 -29.55816,-27.27738 -60.26379,-76.05379 -106.41912,-57.1065 -22.82923,5.2976 -72.15932,93.23128 -55.16973,67.55336 11.01126,-15.65133 53.37885,-68.69556 50.8198,-52.3927 -46.06901,56.77638 68.78764,90.42727 67.01676,20.43384 18.55784,-21.0104 43.49369,58.71665 -1.93368,61.04558 -11.99247,6.20641 -84.30616,31.51244 -33.25311,19.7211 22.42903,-4.73222 82.1385,-55.28761 44.9137,-7.77455 -19.42661,15.51674 -47.86252,47.29431 -10.72999,15.39701 13.00092,-16.9674 38.56982,-33.73389 19.19602,-0.64657 -1.67587,13.4206 -69.72107,79.73528 -26.24318,42.65769 z"
       style="fill:#e9afaf;stroke-width:1.79762"
       id="path38" />
    <path
       d="m 252.37341,801.7381 c -6.13183,-21.6355 -37.3669,-98.01825 -10.14436,-61.01744 6.40351,-19.76004 -34.96967,-102.69325 -2.9776,-56.36261 11.02355,-45.45555 9.56781,-71.68212 18.74982,-125.61107 6.16431,-31.48329 -0.27939,73.03374 17.46452,13.68314 3.29423,-21.76339 4.27077,-72.25055 9.31653,-21.68955 11.83547,66.09742 16.00908,-31.84576 18.42028,-51.70296 23.23418,-82.38301 -10.667,99.7506 13.02446,18.19105 0.36224,27.18234 19.90118,46.79205 10.74041,7.1808 -4.29865,-72.08085 4.58664,38.65948 28.90884,30.1881 -12.18757,-24.62555 -26.30008,-68.1985 -2.83642,-41.61554 -8.62355,-21.9482 -35.53382,-79.52022 13.99318,-55.56752 23.93354,8.60219 56.47159,100.57752 42.2185,32.68656 -0.67448,-20.36319 -47.5783,-74.95665 -3.16922,-40.84848 22.44314,31.49533 29.31747,10.16448 5.17051,-11.08548 -18.90523,-34.13803 59.93243,-7.30805 61.56793,21.12457 38.70753,-15.91582 -44.86179,-48.75679 4.35806,-47.23238 61.67268,18.65239 44.14333,84.79739 19.1162,126.42311 -24.78673,59.02774 -35.99189,133.277 -93.00498,170.82787 -39.36319,-22.71253 -68.23882,34.73279 -106.13064,30.20229 -19.90286,8.46578 -38.03034,65.54374 -44.78602,62.22554 z"
       style="fill:#e9afaf;stroke-width:1.79762"
       id="path40" />
    <path
       d="m 256.00424,846.28906 c 17.45804,0.59355 14.97679,-26.29259 0,0 z"
       style="fill:#000000"
       id="path42" />
    <path
       d="m 247.72908,847.3572 c 13.57949,25.36343 36.2625,-2.53732 24.1686,10.29591 30.95386,-22.02115 -18.16993,-34.37841 -21.01666,-28.38183 -39.39085,3.97428 37.78912,44.53507 27.35502,11.54051 -31.29737,4.90146 7.73632,0.46002 -23.38325,1.38748 l -7.12373,5.15789 z"
       style="fill:#000000"
       id="path44" />
    <path
       d="m 239.60148,1098.0344 c 38.86192,-27.0443 -37.89507,-10.2355 -18.48478,1.1413 11.24165,16.6261 52.76246,-30.2042 14.7568,-24.2756 27.198,27.0096 -33.22203,-15.8672 -31.36643,26.553 21.89968,43.4829 70.78865,-43.9156 24.61425,-17.4714 l 4.4948,7.5821 5.98533,6.4706 z"
       style="fill:#000000"
       id="path46" />
    <path
       d="m 886.51297,1025.7847 c -1.3731,2.1043 -1.3733,-2.0728 0,0 z"
       style="fill:#000000;stroke:#000000"
       id="path48" />
    <path
       d="m 866.72379,1026.148 c -18.92338,56.0063 54.95864,28.4002 49.03083,-5.2458 3.68741,-4.6938 -21.80592,-18.932 -23.42312,11.3436 -26.82847,34.0996 12.22927,-10.8695 -25.60771,-6.0978 z"
       style="fill:#000000"
       id="path50" />
    <path
       d="m 355.18958,622.8432 c -1.37293,2.10448 -1.37346,-2.07271 0,0 z"
       style="fill:#e9afaf;stroke:#000000"
       id="path52" />
    <path
       d="m 203.3903,1082.6902 c -34.5827,-35.487 -6.42216,-99.7046 0.61484,-131.5699 41.72946,21.36182 21.29319,69.5107 25.0744,107.7175 2.67404,22.7643 -0.5192,30.3333 -25.68924,23.8524 z"
       style="fill:#e9afaf;fill-opacity:1;stroke-width:1.27111"
       id="path54" />
    <path
       d="m 201.12228,939.22126 c -1.00956,-32.90859 -32.89272,-117.73181 11.57277,-119.27194 26.38202,37.31282 -13.50063,91.1533 -11.57277,119.27194 z"
       style="fill:#e9afaf;fill-opacity:1;stroke-width:1.27111"
       id="path56" />
    <path
       d="m 177.71373,857.29351 c -17.58876,-28.2723 -8.42856,-115.89114 29.32416,-61.85571 -12.84485,16.94795 -24.48498,54.14612 -29.32416,61.85571 z"
       style="fill:#e9afaf;fill-opacity:1;stroke-width:1.27111"
       id="path58" />
    <path
       d="m 218.24793,957.48604 c -15.39013,-22.53273 0.72517,-83.33203 5.96398,-24.73367 -1.49676,6.0023 10.38642,37.05775 -5.96398,24.73367 z"
       style="fill:#e9afaf;fill-opacity:1;stroke-width:1.27111"
       id="path60" />
    <path
       d="m 884.60639,1038.3974 c -14.88191,-36.6279 2.84817,-85.65127 5.14141,-127.55227 3.91419,-24.6987 10.08011,-67.24019 10.30791,-19.55038 3.92036,38.64052 9.5928,77.27087 7.06383,116.20675 -12.07972,6.671 -9.84337,25.2497 -22.51315,30.8959 z m 2.87589,-12.5893 c -3.1517,-6.6973 -3.15128,6.6975 0,0 z"
       style="fill:#e9afaf;fill-opacity:1;stroke-width:1.27111"
       id="path62" />
    <path
       d="m 899.06153,854.44268 c -8.80263,-17.92149 -27.63415,-66.4064 7.89388,-63.74217 -36.61392,10.99677 -18.48642,-87.12372 19.13787,-49.35111 15.63997,34.55044 -28.72102,127.37193 -27.00304,114.61746 z"
       style="fill:#e9afaf;fill-opacity:1;stroke-width:1.27111"
       id="path64" />
    <path
       d="m 854.98318,969.86883 c -2.92022,-20.36007 18.431,-98.36489 18.35061,-86.51877 -1.68792,21.91017 3.09324,88.01057 -18.35061,86.51877 z"
       style="fill:#e9afaf;fill-opacity:1;stroke-width:1.27111"
       id="path66" />
    <path
       d="m 884.26063,893.70181 c -1.51749,-23.53567 8.05641,-65.38828 4.98418,-18.08709 0.11261,3.58682 -1.60958,38.87224 -4.98418,18.08709 z"
       style="fill:#241c1c;fill-opacity:1;stroke-width:1.27111"
       id="path68" />
    <path
       d="m 257.97859,830.74774 c -0.98971,-23.98298 28.74111,-89.89897 68.83498,-78.70453 29.84783,-45.25193 84.12207,-41.69245 113.73178,3.40045 -31.69372,-4.23939 -100.76331,1.23664 -134.31775,37.54017 -19.22173,6.96778 -26.47777,46.31429 -48.24901,37.76391 z"
       style="fill:#241c1c;fill-opacity:1;stroke-width:1.27111"
       id="path70" />
    <path
       d="m 619.27837,784.0367 c 8.18854,-52.26682 54.87697,-61.6223 96.82138,-69.34852 30.05678,-13.81501 64.45537,-7.02523 96.44639,-9.15259 50.45818,-8.22752 53.63501,78.23587 3.09166,44.11306 -64.30724,-29.3431 -141.9479,-4.81322 -196.35943,34.38805 z"
       style="fill:#241c1c;fill-opacity:1;stroke-width:1.27111"
       id="path72" />
    <path
       d="m 287.89294,1246.3266 c -40.63631,-31.505 -36.96718,-90.464 -42.55833,-137.7039 8.11093,-19.2939 6.75394,-29.5757 -4.41626,-44.8643 -0.1,-52.2078 -5.29514,-104.18668 -9.15602,-156.16337 18.61989,42.35972 53.38564,88.23793 32.76575,136.39337 30.19595,41.1598 25.00373,97.3176 31.68139,145.8502 -4.98229,11.8506 16.3792,62.4591 -8.31653,56.488 z"
       style="fill:#241c1c;fill-opacity:1;stroke-width:1.27111"
       id="path74" />
    <path
       d="m 799.14024,1250.2696 c -28.33486,-35.2453 25.7235,-76.1518 25.67678,-111.9773 8.86889,-33.0066 7.56352,-68.9517 14.4984,-92.1464 0.33424,-15.1355 -9.35573,-105.52799 14.63343,-63.60881 13.07407,45.48761 5.3272,98.04821 8.82695,145.58391 -6.42954,43.0219 -7.96827,116.1769 -63.63556,122.1486 z"
       style="fill:#241c1c;fill-opacity:1;stroke-width:1.27111"
       id="path76" />
    <path
       d="m 499.09659,1111.2736 c -1.82453,-18.5967 -48.26845,-21.3325 -0.1624,-31.3187 23.14295,-14.1277 61.38137,54.5372 20.56239,21.0948 -40.6829,-16.4382 -0.38957,12.971 -20.39999,10.2239 z"
       style="fill:#241c1c;fill-opacity:1;stroke-width:1.27111"
       id="path78" />
    <path
       d="m 540.84794,1180.3825 c -53.90042,-3.816 82.25431,-16.265 76.19423,-19.7109 -24.23377,9.304 -49.48808,22.0723 -76.19423,19.7109 z"
       style="fill:#ff8080;fill-opacity:1;stroke-width:0.317777"
       id="path80" />
    <path
       d="m 513.76857,1168.8249 c 10.6785,-4.0739 86.07268,-20.5599 85.58232,-10.5209 -27.70042,7.9915 -56.80766,11.1739 -85.58232,10.5209 z"
       style="fill:#ff8080;fill-opacity:1;stroke-width:0.317777"
       id="path82" />
    <path
       d="m 538.00741,648.77682 c -12.90839,-9.581 -16.7066,-22.82306 -21.78173,-16.56271 -42.85048,-0.32172 30.15054,-10.82678 -10.83034,-12.47074 -22.46367,-10.43142 40.19905,-19.33909 -2.97409,-16.71312 -16.99916,-27.8937 33.6708,2.59207 25.53809,-26.26595 21.12998,-21.79141 70.47248,21.97537 37.63998,9.89163 -11.0736,-8.64155 -49.68551,-3.94726 -35.89094,40.96884 -5.99277,5.97249 21.69992,25.07285 8.29903,21.15205 z"
       style="fill:#00ffff;fill-opacity:1;stroke-width:0.449405"
       id="path84" />
    <path
       d="m 580.0207,645.07491 c -14.85808,-23.86181 -25.93694,-21.98037 4.49322,-19.4735 -30.19192,-16.29137 3.76105,-46.90589 7.4981,-1.43266 0.95789,3.30445 -4.69599,27.81931 -11.99132,20.90616 z"
       style="fill:#00ffff;fill-opacity:1;stroke-width:0.449405"
       id="path86" />
    <path
       d="m 558.12774,648.87523 c -46.31104,-31.82491 37.35655,0.79463 0,0 z"
       style="fill:#00ffff;fill-opacity:1;stroke-width:0.449405"
       id="path88" />
    <path
       d="m 699.0246,874.67707 c -71.74662,-10.64456 21.46287,-95.21686 19.73031,-28.2276 -22.72377,16.38411 -32.15337,-24.09783 -10.31073,-18.30879 -46.78281,-4.17839 -0.0612,59.94484 21.06541,16.42323 4.53163,17.8282 -12.23737,36.76368 -30.48499,30.11316 z"
       style="fill:#808000;fill-opacity:1;stroke-width:0.449405"
       id="path90" />
    <path
       d="m 379.44562,905.01355 c -66.78811,-19.93139 20.7251,-103.48365 12.77584,-25.9649 -24.86703,8.3709 -22.72926,-50.41655 -29.44299,-5.54194 18.3835,32.50024 52.23297,-4.24992 32.52522,-28.49454 28.03588,18.47933 20.62101,62.4856 -15.85807,60.00138 z"
       style="fill:#808000;fill-opacity:1;stroke-width:0.449405"
       id="path92" />
    <circle
       r="0.44474047"
       cy="1316.8362"
       cx="402.83002"
       style="fill:#000000;stroke:#000000"
       id="path1767" />
    <circle
       r="0.62895799"
       cy="1588.5057"
       cx="565.30713"
       style="fill:#000000;stroke:#000000"
       id="path1769" />
    <g
       transform="matrix(0.89330818,0,0,0.87317515,-534.71346,267.22285)"
       id="g2572">
      <path
         id="path1749"
         style="fill:#000000;stroke-width:1.33333"
         d="m 951.39796,1138.1246 c -7.93579,-24.5921 13.21815,-45.2734 4.87406,-6.2695 35.88255,-10.103 50.25248,-61.6576 73.78178,-90.7972 28.4998,-34.8354 48.4703,-75.31922 75.6851,-111.26812 30.2259,-51.98749 65.5436,-100.84314 92.8839,-154.61726 35.332,-55.63037 69.9401,-111.75881 106.0664,-166.78126 23.2406,-42.14129 57.1027,-77.67111 78.4596,-121.16741 36.9773,-48.00698 67.7988,-100.48206 98.5521,-152.56407 11.2886,-58.35827 -50.8227,23.26135 -66.3218,38.5211 -34.6565,29.24046 -58.9421,67.91605 -88.9744,101.55479 -36.5823,50.11034 -74.2705,99.42621 -105.1747,153.37039 -41.1914,63.84371 -82.2378,127.77659 -117.1687,195.34513 -34.1835,56.77133 -62.2339,116.93655 -96.164,173.80012 -16.76945,42.07879 -47.0892,77.28859 -61.8229,120.39339 -18.42668,21.2609 13.12462,-39.1371 20.89868,-52.2129 26.14301,-41.6916 45.14692,-87.10144 71.11902,-128.93172 35.6491,-68.52305 74.4419,-135.42444 112.1282,-202.77552 51.1009,-76.79615 95.1566,-158.37116 152.5717,-230.85491 29.7195,-40.34455 60.444,-80.40226 95.3087,-116.32507 28.5081,-28.68841 54.3459,-61.49744 88.3108,-84.15332 11.7028,42.4495 -34.8813,76.44233 -50.4074,113.7316 -27.1054,41.9922 -56.4988,82.30484 -82.3149,125.15858 -31.7769,38.7955 -52.8598,84.2252 -82.638,124.44538 -34.4818,56.41784 -71.5111,111.32506 -102.2172,169.91955 -32.452,46.32836 -57.7408,97.02873 -92.6158,141.70707 -21.3977,41.86216 -55.0571,75.77156 -75.8385,118.19006 -13.63624,13.7922 -27.41336,44.1601 -48.98174,42.5811 z m 182.38534,-5.751 c -0.9082,-40.6109 28.5216,-75.6496 42.2958,-112.9815 24.498,-61.0643 66.5464,-112.61577 98.6015,-169.53865 31.618,-44.33734 57.2145,-92.51579 91.7163,-134.79556 28.7222,-41.72165 62.7826,-79.59027 86.1173,-124.92584 28.4252,-30.42751 40.4038,-69.53266 58.6171,-105.74079 22.2508,-42.20544 51.2264,-81.50877 67.8186,-126.12111 21.459,-50.35113 75.7418,-4.44466 42.8474,30.78771 -18.1391,35.86616 -36.1328,72.76602 -61.7401,104.20829 -36.9749,66.83451 -75.7396,132.63717 -115.0909,198.10906 -54.5753,77.55871 -104.8726,157.77168 -154.3543,238.60958 -27.9754,39.91955 -50.8637,82.96891 -81.4807,120.87501 -26.2326,24.9984 -36.8744,76.183 -75.348,81.5138 z m 16.4212,-8.8897 c 30.8098,-29.5921 48.7984,-71.4158 78.2234,-103.3825 38.6129,-59.90398 77.277,-120.01275 114.7886,-180.61424 38.5359,-65.03707 85.507,-124.87397 123.3152,-190.42927 31.3394,-53.17985 61.7409,-106.97248 93.2559,-160.00003 26.1582,-34.20118 44.8932,-73.4795 63.0637,-112.1137 14.3963,-49.68343 -47.3786,-39.36555 -45.9676,0.55529 -25.4976,43.3717 -51.5674,86.79471 -74.1899,131.82438 -12.4434,46.2919 -50.5312,78.63899 -70.6862,121.26246 -41.3986,58.22839 -87.7934,113.20498 -123.6359,175.23786 -36.9538,51.95251 -67.8771,107.63081 -102.7912,160.9374 -23.6518,49.22525 -48.9466,98.16395 -67.3791,149.59515 -3.1433,10.9709 3.7904,16.7475 12.0031,7.1272 z m -371.07324,-11.5281 c 6.88198,-41.9644 21.16089,-81.7963 32.5989,-122.55451 34.74846,-75.5433 67.59113,-152.10259 110.39644,-223.64338 62.80928,-117.18064 134.5334,-229.96648 218.6031,-333.12015 54.1055,-72.08005 116.3406,-138.74067 187.508,-194.1619 18.2345,-11.28682 84.0294,-70.43235 55.3634,-20.1835 -30.6497,44.54822 -68.0764,84.69209 -99.5253,128.97518 -57.4649,71.95424 -112.929,145.50301 -167.4286,219.73938 -47.0311,65.32269 -96.2438,129.13364 -138.21376,197.89836 -43.88155,70.15609 -84.39492,142.43036 -120.70919,216.81928 -27.72107,40.79754 -40.09424,90.38154 -68.24894,130.09594 -2.10285,1.335 -15.12267,17.1853 -10.34405,0.1353 z m 12.3734,-5.8979 c 32.10278,-72.8383 71.77455,-142.36731 107.68127,-213.65179 32.49354,-55.91869 63.93267,-112.47668 100.33495,-166.00443 47.47892,-72.57676 101.53262,-140.69346 151.77962,-211.43288 49.9276,-65.55851 99.6914,-131.34443 150.804,-196.03044 25.2879,-37.76729 61.4981,-68.41644 81.1514,-109.5471 -23.2787,-1.56437 -71.2269,46.8466 -98.8714,68.91441 -62.8539,54.48052 -115.3064,119.65531 -164.9179,186.13216 -96.9633,123.00552 -173.42674,260.40444 -245.66286,398.89759 -21.66762,52.85173 -51.91798,102.31559 -66.65508,157.72248 -9.13337,26.2181 -12.85333,31.2691 3.9826,10.5876 -6.11382,17.2027 -36.46757,72.529 -19.6266,74.4124 z m 90.2933,-30.7933 c 9.0732,-30.176 31.5451,-60.8527 44.57598,-91.77378 34.3005,-57.41352 63.84331,-117.58522 98.29926,-174.86989 33.4272,-50.28956 65.0247,-101.86673 103.1776,-148.87763 12.7397,-14.34522 49.2716,-60.97548 55.7086,-48.26906 -20.0399,42.35837 -48.8986,79.93293 -72.2369,120.56282 -43.0173,72.03612 -89.1467,142.21573 -126.98206,217.17152 -30.32448,39.6426 -47.71717,92.26152 -93.95408,117.27732 -2.75271,0.3026 -6.75577,14.2152 -8.5884,8.7787 z m 32.7402,-29.4441 c 29.63618,-35.3505 52.94133,-75.84263 75.32213,-115.87605 49.05811,-89.83117 105.37391,-175.4489 157.63561,-263.32236 13.0114,-12.19456 48.372,-80.87653 14.0536,-38.80833 -31.2594,27.39984 -53.1514,64.10979 -78.5465,97.02895 -31.654,50.76595 -67.6382,99.0092 -92.78874,153.55383 -35.00375,59.6252 -68.37797,120.27045 -98.6149,182.26366 7.11368,0.3631 16.76448,-10.2994 22.9388,-14.8397 z M 1176.7313,896.79122 c 1.2401,-39.46878 33.0763,-75.01914 55.8631,-106.2821 38.8238,-55.2712 83.2486,-106.51616 120.5748,-162.78456 10.5237,-19.71574 56.4358,-75.93454 57.3132,-64.56461 -34.7342,26.55583 -53.5477,67.19235 -79.5463,101.41244 -41.5362,56.74128 -86.8736,110.93924 -126.0798,169.17475 -11.2311,12.19639 -39.6824,82.69912 -5.8385,45.71681 46.8613,-52.13182 79.629,-114.89793 116.6146,-174.01951 28.8886,-40.93863 56.371,-83.22084 85.9762,-123.58546 11.6896,-18.25799 39.5474,-50.47924 13.3301,-12.58911 -30.8118,34.14215 -49.0169,77.24989 -80.1796,111.30027 -44.739,70.74216 -83.0803,146.94078 -140.815,208.42357 -4.8533,2.99112 -10.2846,13.49612 -17.2128,7.79751 z m 11.7334,-357.22136 c 30.2387,-50.48731 64.9913,-98.30603 97.4789,-147.28537 9.3287,-16.60749 59.6047,-49.27274 19.6747,-16.86631 -37.3943,38.27188 -59.6707,88.27629 -93.0592,129.94901 -12.6004,18.23481 -21.2578,40.5373 1.5061,13.49827 32.233,-40.62909 78.5622,-69.54981 102.8053,-116.4494 13.7664,-15.292 46.5778,-80.3625 23.8528,-28.44386 -24.0748,36.17954 -47.7621,72.16596 -80.9356,100.99768 -26.1038,17.84765 -42.827,56.07501 -71.323,64.59998 z" />
      <path
         style="fill:#000000"
         id="path1761"
         d="m 1301.9873,384.2118 c 7.0095,-4.17636 13.638,-9.0298 19.6183,-14.58807 2.8503,-2.6492 5.5504,-5.57926 8.2275,-8.40122 2.1207,-1.98698 4.6234,-6.04396 7.3224,-7.45534 0.3901,-0.20396 0.8664,-0.17327 1.306,-0.19538 0.5256,-0.0264 1.1341,-0.23229 1.578,0.0504 0.3485,0.22194 -0.8183,0.11523 -1.2275,0.17285 1.3477,-0.0764 12.1591,-0.1263 5.2767,-0.10501 -0.023,-0.10417 1.0257,0.13171 0.9405,0.0671 -0.3553,-0.26956 -0.8594,-0.30261 -1.2015,-0.58883 -0.9799,-0.81991 -1.1864,-1.30409 -1.7084,-2.23652 -1.3383,3.31698 -2.3876,6.74167 -3.6299,10.09762 -1.0923,3.42467 -2.9269,6.42218 -5.0509,9.28476 -1.0354,1.6733 -2.2769,3.20523 -3.4047,4.81216 -0.3963,0.56461 -0.7296,1.17296 -1.1436,1.72471 -0.5443,0.72544 -3.3281,3.86044 -3.5952,4.16475 -3.9068,4.71691 -1.9296,2.28566 -5.9255,7.29882 -0.4362,0.7275 9.8521,6.89688 10.2884,6.16939 v 0 c 3.7218,-5.28331 1.9882,-2.68752 5.2259,-7.77041 0.5645,-0.90838 2.3075,-3.74304 3.0412,-4.82913 1.5201,-2.25029 3.6037,-4.10296 4.8079,-6.58056 2.1513,-3.61144 4.4863,-7.15681 5.8971,-11.14676 1.5616,-4.17929 2.9863,-8.46609 3.4745,-12.92183 -0.1115,-0.95198 0.012,-1.96216 -0.3345,-2.85593 -0.964,-2.48844 -1.8345,-2.99755 -4.0178,-3.91837 -0.3215,-0.13558 -0.9038,0.2098 -1.2236,-0.0319 -0.9397,10e-4 -1.8795,0.01 -2.8191,0.003 -0.148,-10e-4 -0.5911,-0.0273 -0.4431,-0.0259 0.859,0.008 1.7225,0.13724 2.5768,0.0469 0.3378,-0.0357 -0.6643,-0.14177 -0.9962,-0.21406 -2.0222,-0.44049 -0.7559,-0.19236 -3.1128,-0.60511 -3.9183,0.016 -5.484,-0.39695 -8.8952,0.79189 -5.0676,1.7661 -8.8921,5.71314 -12.7027,9.29869 -1.2747,1.21383 -2.5194,2.45994 -3.824,3.6415 -7.1991,6.51999 -15.1314,12.23537 -21.8289,19.3032 -0.5333,0.5306 6.9706,8.07299 7.5039,7.54239 z" />
      <path
         style="fill:#000000"
         id="path1763"
         d="m 1391.1371,586.80516 c 0.5865,-0.45302 1.2073,-0.86493 1.7596,-1.35907 5.8068,-5.19519 10.9045,-12.15233 15.341,-18.50493 3.276,-4.86701 6.9193,-9.06828 11.6798,-12.52026 0.497,-0.36038 3.9049,-2.49354 4.5282,-2.88565 2.3752,-1.38375 3.94,-1.96788 5.2985,-4.6017 0.2262,-0.43869 0.2429,-0.95685 0.3643,-1.43528 -0.017,0.11079 0.058,0.35755 -0.052,0.33237 -3.2544,-0.74984 -6.3528,-2.31496 -9.6823,-2.5752 -0.6719,-0.0525 -0.7166,1.14282 -1.0333,1.73767 -1.4187,2.66488 -2.2723,5.50941 -3.2197,8.36277 -0.9195,3.84771 -3.1551,7.08811 -5.2257,10.38525 -0.3472,0.7104 9.6994,5.62154 10.0466,4.91114 v 0 c 2.2926,-3.9729 4.6753,-7.95011 5.7884,-12.45153 0.7559,-2.41356 1.3173,-4.88135 2.1582,-7.26519 0.1589,-0.45072 0.901,-1.05734 0.5144,-1.33833 -2.6041,-1.89263 -5.5674,-3.27731 -8.5459,-4.49881 -0.2855,-0.11709 -0.1677,0.59394 -0.2516,0.89092 0.4464,-1.43337 0.032,-0.4072 1.4176,-2.30726 0.048,-0.0652 0.1867,-0.23178 0.1072,-0.21719 -1.4414,0.26472 -3.1695,1.26535 -4.5284,1.65184 -2.2214,1.13305 -3.7823,1.86029 -5.9226,3.29203 -5.7046,3.81594 -10.2659,8.98528 -14.2361,14.53218 -4.5635,6.7005 -9.2043,13.35297 -14.1995,19.74179 -0.4329,0.55812 7.4601,6.68056 7.893,6.12244 z" />
      <path
         style="fill:#000000"
         id="path1765"
         d="m 963.2198,1098.8996 c 1.73069,-6.0125 2.1305,-12.2782 2.83223,-18.4628 0.51146,-4.5077 0.26955,-1.5934 0.45211,-3.9448 -3.94909,0.7805 -7.89818,1.5611 -11.84726,2.3416 -0.68282,-0.6017 -1.34572,-2.3833 -2.04845,-1.805 -1.12216,0.9234 -0.6387,2.8356 -0.93335,4.2587 -1.70082,8.2146 -2.79968,16.4622 -3.87767,24.7785 -0.88829,8.2482 -1.46744,16.5511 -1.41289,24.8521 0.01,1.4793 0.0294,2.9628 0.18088,4.4343 0.0624,0.6058 -0.14736,1.6998 0.45772,1.7687 4.72562,0.538 9.51209,-0.061 14.26813,-0.092 1.49913,-5.7233 0.7808,-2.6285 2.07073,-9.3037 0.11126,-1.1415 -16.0316,-2.7148 -16.14285,-1.5734 v 0 c -0.31362,7.0582 -0.40384,3.8212 0.0585,9.7144 4.66602,0.8799 9.25484,2.4211 13.99806,2.6396 0.71475,0.033 0.68648,-1.2676 0.88882,-1.9539 0.4278,-1.451 0.72146,-2.94 0.99284,-4.4282 1.47579,-8.0929 2.01997,-16.3098 2.85344,-24.482 0.64089,-8.3537 0.84413,-9.961 1.17332,-18.0813 0.0279,-0.6872 0.37746,-10.3962 0.10999,-12.0586 -0.38341,-2.383 0.41079,-6.1534 -1.8492,-7.0008 -3.96463,-1.4866 -8.4025,1.0543 -12.60374,1.5814 -0.44628,0.8875 -0.99091,1.7321 -1.33883,2.6625 -2.66392,7.1244 -2.52294,15.6466 -2.69737,23.1466 -0.0713,1.0193 14.34355,2.0276 14.41485,1.0083 z" />
      <path
         style="fill:#800000;stroke-width:1.45289"
         d="m 185.90158,929.76622 c 0.53743,-1.88865 1.3911,-14.1678 1.89704,-27.28702 l 0.91989,-23.85311 12.95328,-21.91306 c 7.12431,-12.05218 16.81726,-29.85348 21.5399,-39.55844 4.72264,-9.70496 11.93681,-23.43481 16.03148,-30.51078 4.09468,-7.07598 19.88044,-36.0754 35.07949,-64.44316 15.19904,-28.36777 33.97769,-62.6924 41.73035,-76.27696 7.75265,-13.58457 19.21746,-34.17934 25.47736,-45.76618 15.57782,-28.83398 45.47602,-78.59303 75.48167,-125.62277 13.78392,-21.60441 29.83817,-47.12638 35.67611,-56.71548 40.23255,-66.08393 129.03419,-183.58667 169.09384,-223.74574 9.56537,-9.58911 25.81692,-26.75063 36.11457,-38.13673 24.98377,-27.6245 37.78217,-37.87528 43.14796,-34.55903 0.84451,0.52194 1.53548,4.63623 1.53548,9.14288 0,7.9622 -0.59244,9.18208 -20.95004,43.13787 -26.24451,43.77493 -47.12599,76.05034 -65.2978,100.92736 -7.7681,10.63443 -15.99064,23.0217 -18.27233,27.52726 -5.33241,10.52974 -17.80217,29.45446 -39.69286,60.23989 -9.60969,13.51435 -21.52958,31.19594 -26.48863,39.29245 -4.95905,8.0965 -17.84348,28.45075 -28.63206,45.23168 -39.1935,60.9629 -86.5926,136.78609 -91.12301,145.76727 -9.35019,18.53597 -70.10845,117.38194 -93.03102,151.34964 -6.20142,9.18956 -19.62321,29.78434 -29.82619,45.76618 -10.20298,15.98184 -24.92511,37.55732 -32.71585,47.94551 -7.79074,10.3882 -19.25355,27.71396 -25.47292,38.50171 -18.99434,32.94646 -31.58923,49.19843 -42.76128,55.17753 -3.18008,1.70192 -3.33064,1.60097 -2.41443,-1.61877 z"
         id="path1771"
         transform="translate(779.13126,194.39126)" />
      <path
         style="fill:#ff0000;stroke-width:1.45289"
         d="m 360.66551,931.90174 c -4.665,-4.66498 9.32782,-40.2246 45.35632,-115.26296 15.27673,-31.8176 24.61341,-48.97845 40.31421,-74.09761 11.23818,-17.97957 28.15244,-45.11237 37.58726,-60.29512 9.43481,-15.18275 24.16293,-38.06584 32.72916,-50.85131 8.5662,-12.78547 20.65029,-31.41884 26.85352,-41.40749 14.09623,-22.69825 30.36535,-45.66319 70.42164,-99.40484 33.34887,-44.74261 36.84954,-49.76339 47.99416,-68.83484 3.87398,-6.62944 14.48341,-22.6476 23.57648,-35.59592 9.09308,-12.94831 19.06516,-27.74905 22.16016,-32.89052 6.22087,-10.33422 15.21641,-30.10887 15.24481,-33.51224 0.0286,-3.42818 26.64897,-52.48984 51.71903,-95.31873 17.07971,-29.17846 23.16229,-40.85165 24.01799,-46.09327 1.64136,-10.05446 7.42833,-19.08054 15.12523,-23.59122 18.35371,-10.756 32.67131,-2.25162 30.80781,18.29926 -0.5889,6.49456 -3.67173,13.91927 -16.04835,38.6511 -17.55186,35.07332 -26.20152,50.22144 -40.95851,71.7305 -5.75655,8.39046 -20.92285,33.23496 -33.70289,55.20998 -88.83271,152.74609 -82.65056,142.63431 -131.90832,215.75483 -17.76422,26.37003 -49.2675,75.07832 -70.00731,108.24063 -52.88319,84.55865 -103.93336,163.32607 -112.5259,173.62089 -4.00176,4.79455 -15.69034,21.13961 -25.97463,36.32236 -31.23662,46.1148 -47.60059,64.5078 -52.78187,59.32652 z"
         id="path2342"
         transform="translate(779.13126,194.39126)" />
      <path
         style="fill:#ff0000;stroke-width:1.02735"
         d="m 9.7792508,909.61217 c -1.4549119,-1.4549 -1.6939107,-3.04006 -1.2852698,-8.52456 0.5865191,-7.87185 4.640946,-19.19633 16.20521,-45.263 4.386844,-9.88826 7.769075,-18.19686 7.516067,-18.46356 -0.253007,-0.26669 -2.72596,2.04485 -5.49545,5.13676 -2.76949,3.09191 -5.055452,5.21296 -5.079915,4.71343 -0.02446,-0.49951 1.520687,-5.35375 3.433666,-10.78719 1.912978,-5.43342 5.430322,-16.12012 7.816318,-23.7482 7.330713,-23.43646 14.225378,-39.79703 37.233361,-88.35223 7.36304,-15.53869 15.902957,-34.03102 18.977593,-41.09406 10.613368,-24.381 60.630319,-117.63082 95.506029,-178.05802 46.57896,-80.70478 92.98773,-151.61756 137.9542,-210.79453 7.72841,-10.17078 21.60863,-28.43195 30.84493,-40.58038 47.9155,-63.02285 90.29318,-111.85719 126.8083,-146.12884 19.21496,-18.034393 70.71467,-62.300617 84.26497,-72.429373 16.2438,-12.142131 30.63985,-19.787342 37.25986,-19.787342 1.77596,0 -2.07984,7.748175 -9.69116,19.47423 -7.90121,12.172665 -15.44823,21.909983 -36.64236,47.276724 -10.13778,12.13364 -22.3626,27.389811 -27.16629,33.902601 -4.8037,6.51279 -15.9742,21.0876 -24.82333,32.38847 -43.65625,55.75161 -123.85991,160.90065 -145.36234,190.5737 -8.39383,11.58339 -28.91428,39.55303 -45.601,62.15477 -69.59919,94.27038 -107.11611,149.62605 -145.1744,214.20279 -28.41177,48.20863 -47.80861,82.58663 -61.44343,108.89926 -8.051921,15.53869 -21.921134,42.12141 -30.820473,59.07271 -20.653516,39.34044 -43.607037,85.24724 -54.449918,108.89926 -4.662628,10.17078 -8.594597,18.62992 -8.737709,18.79809 -0.143111,0.16816 -1.064468,-0.49852 -2.0474592,-1.48151 z"
         id="path2344"
         transform="translate(779.13126,194.39126)" />
      <path
         style="fill:#ff0000;stroke-width:1.02735"
         d="m 114.05705,864.3868 c 0,-1.03903 27.55601,-54.58963 40.35434,-78.42209 13.08172,-24.36016 36.38223,-66.01465 48.56008,-86.8112 4.63222,-7.91061 11.94026,-21.41105 16.24009,-30.00098 12.81439,-25.59979 23.5177,-43.25842 64.635,-106.63678 22.53087,-34.72915 60.78636,-87.84836 74.72788,-103.7625 10.73082,-12.24913 37.3679,-38.89376 37.74671,-37.75737 1.1563,3.46892 -14.13725,32.34008 -24.17643,45.64024 -3.125,4.14007 -12.34859,18.56813 -20.49687,32.06236 -8.1483,13.49422 -27.6571,45.39348 -43.3529,70.88725 -48.8062,79.27301 -68.64856,112.79257 -100.72153,170.14816 -29.31729,52.42765 -57.67214,95.54571 -73.04881,111.08235 -8.41691,8.50448 -20.46756,16.4944 -20.46756,13.57056 z"
         id="path2346"
         transform="translate(779.13126,194.39126)" />
      <path
         style="fill:#ff0000;stroke-width:1.02735"
         d="m 421.78365,333.67321 c 1.64064,-5.52054 9.49733,-18.47156 19.21828,-31.67954 5.7651,-7.8331 19.67085,-28.46978 30.90167,-45.85928 30.1965,-46.75544 44.93583,-66.28443 50.18799,-66.49696 4.2779,-0.1731 13.69716,-7.20782 25.84553,-19.30259 6.1187,-6.09171 11.5409,-10.81874 12.04932,-10.50451 1.35075,0.8348 -2.56113,10.40881 -6.69188,16.37781 -1.96406,2.83811 -5.8914,7.93405 -8.72741,11.32431 l -5.1564,6.16411 2.51679,2.23087 2.5168,2.23087 -3.57794,4.96059 c -1.96786,2.72833 -6.22779,9.22459 -9.46651,14.43614 -10.33132,16.62459 -22.30765,30.3819 -50.50348,58.01378 -15.01483,14.71452 -30.45534,30.28248 -34.31225,34.59548 -22.90493,25.61347 -26.41469,28.94043 -24.80051,23.50892 z"
         id="path2348"
         transform="translate(779.13126,194.39126)" />
      <path
         style="fill:#ff0000;stroke-width:1.02735"
         d="m 405.44146,694.8319 c -2.75415,-2.75414 2.26919,-20.57431 10.65458,-37.79687 7.33551,-15.06622 30.28546,-47.4789 73.47162,-103.76544 48.33343,-62.9952 68.07344,-89.72556 86.55132,-117.20089 23.24528,-34.5641 31.1151,-44.67064 34.16364,-43.87343 2.69155,0.70386 9.26064,-5.36161 16.09342,-14.85963 3.89296,-5.41145 6.49352,-7.81201 6.49352,-5.99409 0,0.23477 -7.5445,10.98343 -16.76555,23.88592 -9.22107,12.90249 -25.48322,36.17255 -36.13813,51.71124 -10.65492,15.53869 -24.98935,36.34256 -31.85429,46.23082 -13.03685,18.77826 -16.13399,23.70605 -45.52134,72.42828 -28.43482,47.14299 -46.40538,73.92474 -66.54547,99.17353 -16.37647,20.53051 -28.3612,32.30268 -30.60332,30.06056 z"
         id="path2350"
         transform="translate(779.13126,194.39126)" />
      <path
         style="fill:#ff0000;stroke-width:1.02735"
         d="m 186.27166,930.49397 c 0.35305,-0.92004 1.19513,-12.89221 1.87128,-26.60482 l 1.22938,-24.93204 12.22183,-21.06925 c 6.722,-11.58808 16.19523,-28.92849 21.05162,-38.53423 4.85638,-9.60573 13.55928,-26.01767 19.33977,-36.47098 5.78049,-10.4533 21.1415,-38.6541 34.13558,-62.66844 28.96999,-53.53939 75.8817,-137.90046 88.92032,-159.9049 25.58787,-43.18304 84.63326,-137.51966 109.14203,-174.37588 35.21308,-52.95332 86.15821,-120.75912 123.20807,-163.9847 6.05393,-7.06304 21.94242,-24.3996 35.30774,-38.52568 48.36081,-51.11351 57.7327,-60.06459 64.72603,-61.8198 3.32386,-0.83424 4.24216,0.98174 4.26108,8.4265 0.0204,8.05973 -2.47176,13.21908 -22.04031,45.62733 -25.39355,42.05525 -39.23597,63.34504 -70.44369,108.34313 -5.055,7.28875 -10.99296,16.53491 -13.19549,20.54703 -5.16072,9.40072 -17.14186,27.5226 -36.06724,54.55292 -18.82106,26.88129 -18.87053,26.95701 -62.58295,95.77851 -57.76883,90.95213 -77.8253,123.30811 -91.55699,147.70379 -29.45026,52.32128 -115.08857,186.24989 -154.98069,242.37226 -5.59058,7.86512 -15.41809,23.01603 -21.83892,33.66868 -13.95776,23.15701 -22.36726,35.16091 -30.45023,43.46538 -6.52599,6.70482 -13.41956,11.43158 -12.25822,8.40519 z"
         id="path2352"
         transform="translate(779.13126,194.39126)" />
    </g>
  </g>
</svg>
