<svg xmlns="http://www.w3.org/2000/svg" width="775.862" height="1245.989"><path d="M630.202 1560.357c-48.498-12.693-97.923-16.998-147.654-14.909-51.821-4.737-109.422 3.256-156.928 3.987-.947-8.307 55.644-51.555 50.007-85.728 3.236-56.585 42.898-146.795-16.254-179.059-28.896-42.839-97.094-8.034-109.22-66.288-24.467-77.833-21.653-160.543-18.7-241.142-56.784-29.468-5.386-87.193-10.61-132.594 2.388-47.882-42.458-24.459-31.195 10.567-1.394 46.035 22.864 91.569 3.114 136.772-17.027 37.355-3.742 90.112 26.644 105.556-71.81-14.32-26.671-102.527-24.396-150.312-2.158-54.583-42.446-102.186-31.829-157.863 7.092-25.81 64.536-10.812 25.633-45.593-10.154-25.168-15.09-115.322-5.484-101.103 4.982 18.654 3.818 78.118 5.492 26.152-.785-69.44 2.966-146.357 44.53-204.853 41.27-25.43 69.254-58.286 109.206-88.047 16.044-15.068 90.586-34.138 77.139-41.342-27.071 3.293-68.65 30.645-21.808 1.982 65.585-16.037 134.64-7.873 201.045-19.317 61.635 11.13 129.714 19.725 181.633 56.412 34.466 47.185 82.264 77.042 122.892 117.387 43.773 71.35 30.27 163.402-.747 237.261 76.934 2.966.77 97.256 4.913 140.068-8.387 54.641 35.674 130.806-14.148 170.21-34.02 28.943-15.78 88.716-25.636 132.046 7.305 63.921-54.519 95.502-108.364 101.901-40.719 10.48-80.32 40.696-66.708 87.436 5.606 59.587 25.18 119.608 59.348 168.764 22.555 16.249 31.963 48.996-7.174 27.318-38.078-11.135-76.346 9.13-114.74 4.331m27.466-4.11c25.963-15.159 101.32-22.572 93.716-14.004-35.01-45.833-54.064-101.302-63.095-157.943-11.055-28.145 19.89-95.541-28.993-64.35-61.962 17.494-131.01 49.754-193.5 16.487-19.886-11.775-69.682-40.073-33.08 3.449 1.626 25.199-45.68-65.044-36.92-7.713-3.765 44.671-3.28 91.671-5.878 134.668 13.51 17.651 53.974 45.9 11.746 20.477-36.8-30.55-26.872 46.154-26.73 47.41-55.208-3.426 22.36 18.01 40.81 5.607 53.058-2.815 105.47-.633 158.635 2.17 28.146.695 57.461 15.408 83.289 13.742m-266.154-31.08c-13.536-32.642 27.405 18.457 0 0m19.25-2.855c-28.225-17.156-23.233-51.8 1.019-12.71 7.474 5.027 16.31 24.25-1.019 12.71m10.273-39.284c-23.68-9.238-26.939-57.053-4.928-17.866 5.363 6.001 27.203 23.848 4.928 17.866m9.5-29.197c-24.027-8.073-42.074-89.98-17.47-35.167-.558 7.619 46.663 42.089 17.47 35.167m1.114-41.875c-20.156-12.376-46.219-72.913-11.131-25.012 3.21 6.578 34.76 23.69 11.131 25.012m-2.282-40.23c-20.084-6.722-36.106-70.221-10.28-26.59-.083 6.541 37.288 34.75 10.28 26.59m-73.66 159.73c17.792-19.872 18.816-47.48-1.263-13.19-11.402 7.297-20.093 31.735 1.263 13.19m24.004-61.193c16.233-34.263-2.352-24.39-4.954 5.54-3.776 16.367 5.05-2.533 4.954-5.54m177.52-132.16c69.657-4.74 133.508-36.579 192.943-70.787 37.528-26.345 32.396-81.985 56.83-119.933 17.744-35.237 11.136-77.31 18.824-114.208-4.262-67.142 21.95-129.714 40.585-192.67 9.613-50.479 9.883-102.39 13.568-153.617-11.957-13.275 1.077-72.264-7.614-26.603.672 22.867-21.273 58.433-10.104 15.09-2.223-30.534 13.413-73.81-10.863-95.94 7.427 20.764-13.852 62.76-6.703 18.377 11.503-26.959-23.96-87.857-15.584-24.788 5.134 21.26-4.813 75.833-10.508 25.854-3.167-35.643 8.027-83.563-29.178-105.27 9.672 24.928-3.648 93.415-4.001 29.419.455-20.232-16.194-57.165-8.88-14.926 5.3 51.052-18.27 8.533-11.087-17.19-2.422-24.222-47.678-59.444-22.45-13.3 8.127 19.03 20.953 99.412 7.4 85.777-1.92-31.723-12.543-109.202-35.234-106.887-.865 44.268-20.328-54.543-22.838-7.526 11.048 21.563 26.881 90.756 11.422 89.003-5.316-34.134-4.08-90.021-36.86-104.868 12.687 55.47-36.015-61.478-43.521-11.631 10.344 21.53 52.125 84.255 33.072 84.922-11.072-30.654-41.417-90.812-57.09-93.43 20.46 25.165 49.16 93.43 35.334 102.635-6.318-48.156-34.083-84.4-64.23-106.243-15.547-8.016-105.692-8.138-52.794 21.859 40.086 44.695 80.454 89.682 108.622 143.37 21.651 44.75 58.966 82.656 82.05 123.508-49.04 10.005-102.664 5.284-153.506 7.696-41.429 3.434-121.558-4.358-138.3 10.887 40.784 38.6 68.168 89.176 98.29 135.954 20.335 45.05 31.951 113.52-6.538 150.653-24.243-2.05-39.042-25.796-40.99 13.408-18.737 29.974 24.27 82.368 34.305 51.194-22.804-27.48 42.914-36.594 23.975 2.755 2.671 50.48 74.534 40.364 59.247-10.79 1.838-24.742 43.587-8.95 16.771 5.852 59.874 36.473 63.07-73.753 17.33-81.277-57.572 48.881-45.283-52.236-46.252-88.783 1.645-55.66 40.138-101.702 60.445-151.36 27.716-39.219 68.17-22.44 109.598-41.624 38.225-12.122 144.584-12.471 108.452 55.507-40.535 14.23-89.065-35.245-136.086-8.958-48.526 4.374-102.538 28.445-118.716 78.111 35.189-41.424-33.34 48.028-16.263 73.537 5.55 30.332-7.89 121.014 46.186 74.629 37.834 6.109 40.98 86.534 11.565 106.815 19.977-15.68 58.928-44.181 57.293 4.765 10.515 59.07 40.429 126.62 14.93 184.24-17.302 24.853-34.994 29.855-18-3.63 3.928-16.563 9.986-42.816-8.05-16.257 26.362-41.131-2.188-92.922-14.18-130.614 16.38 77.073-40.95-62.666-65.937 5.066-23.795 26.836-17.863-66.465 10.079-22.185-8.771-18.153 22.479-3.664 14.974-26.55-57.066-27.183-50.75 70.537-92.345 49.006-20.288 3.469-15.292 23.706-32.516-6.082-16.923-45.91 31.097-.36 35.32-14.307-12.679-54.767-93.256 6.55-86.68-61.218-13.148-46.576 37.856-71.038 61.775-59.241 11.075-47.74 11.217-101.47-16.89-143.44-20.086-49.508-71.434-90.158-126.83-73.216-23.38 2.899-66.181 26.472-19.098 8.579 33.192.754-45.544 10.724-50.452 30.013-16.8 11.51-49.61 77.078-29.498 26.343 31.01-46.564 88.864-85.173 146.752-77.37 66.498 28.022-30.178-69.869-52.273-33.912-29.918 12.546-48.945 34.972-66.885 30.877-30.812 30.598-68.724 79.322-37.943 121.69 5.32 30.402 70.087 58.325 43.019 78.126-33.757-11.67-52.297-97.007-61.796-88.448 26.46 44.688 39.33 101.98 87.09 130.094-32.636 7.743-63.802-54.338-84.451-85.838 4.361 32.662 45.433 74.504 64.12 109.65 28.583 11.934 34.105 29.333 1.037 11.761-19.376-20.952-41.708-48.138-15.95-4.908 16.763 18.08 65.406 62.794 14.346 27.842-13.002-17.078-40.19-47.57-24.568-4.04 14.74 45.215 21.148 91.725 26.103 139.066-13.023 51.36 38.401 90.87 81.918 106.31 32.52 8.056-11.193-58.144-3.134-83.691-7.388-46.676 11.105-94.182 35.55-132.411-45.339 34.468 22.926-40.523 35.34 7.434 20.361-5.45 17.259 14.382 25.237 14.222 18.016-1.307 8.024 19.466 20.139 19.463-.279 35.203-23.296-6.258-32.438 6.885-15.943-20.975-21.442-38.856-25.306-10.104-28.692-15.937.895 31.886-21.357 2.786-1.496 19.57-16.322 69.665-10.739 91.042 2.863 28.293-1.03 40.38 17.628 46.136 11.553 30.454-2.882 10.18-14.13 6.138 14.147 37.979 42.428 74.205 86.904 75.85 17.006 2.107 34.262 1.835 51.267-.125m-37.864-74.384c7.899-38.697 102.92-27.98 76.356-13.562-25.961-5.736-53.45.875-76.356 13.562m-65.83-13.74c10.814-51.72 33.479-106.347 96.814-94.181 51.92-25.723 119.507-1.103 108.765 64.647-9.14 45.575-1.739-95.45-50.062-54.525-33.409 47.75-112.885-14.33-133.659 34.416-4.688 17.325-6.909 37.55-21.858 49.643m111.33-70.778c19.853-2.931 85.762-31.812 29.841-13.921-23.273 4.941-107.269 13.76-40.31 15.312 3.537-.082 6.987-.857 10.469-1.391m-79.043-6.525c-.095-5.094-3.298 3.432 0 0m64.113-5.045c28.044 1.269 82.049-20.938 21.66-10.775-25.045 3.275-92.378 15.256-30.07 11.651zm21.937-33.626c6.746-38.604 14.234-17.22 0 0M399.869 1004.97c19.267-12.378 57.993-66.599 41.99-72.681-12.298 15.876-65.538 56.545-25.31 21.63 25.572-12.563 44.475-64.464 4.618-24.417-17.428 15.598-87.38 30.513-29.361 9.819 53.491 5.316 74.09-82.223 28.253-77.498 5.345 79.782-119.796 33.569-59.803-23.257-14.935-7.285-87.378 101.294-41.27 33.459 28.13-64.903 103.014-48.824 133.508 4.76 30.633 41.01-25.983 112.111-54.239 130.171zm-7.184-100.524c53.773-14.107-11.371-99.586-32.097-56.345 56.127-46.582 40.178 85.688 1.575 20.314 7.363-40.974 17.222 39.254 33.73 2.61-27.345-83.457-73.001 47.067-3.208 33.42m141.684 100.728c20.762-18.715 44.193-.092 8.967-2.077-.175-2.015-13.587 9.185-8.967 2.077m3.928-8.993c15.69-2.79 6.022-25.166 25.146-12.279-1.819 1.54-37.582 23.937-25.146 12.28m146.728-34.58c-35.71-20.254-95.138-69.902-45.021-108.2 30.463-54.163 103.58-61.274 132.097-1.69 19.985 21.327 10.382 37.384-5.806 7.387-14.696-23.54-43.135-49.562-30.718-2.404-11.16 49.874-101.477 8.766-63.71-30.577-24.466 13.284-73.065 68.244-13.498 63.991 33.534.79 42.383 25.687 4.914 9.173-62.303-20.503 15.458 17.19 29.557 27.24-23.383.357-80.13-40.296-38.759 2.282 5.125 7.576 68.373 43.154 30.944 32.799m30.087-86.899c27.328-16.332 11.732-47.463-7.654-15.727-30.7 11.96-21.024-53.307 2.8-28.734-50.085.164 34.281 43.112 4.503-3.816-41.76-34.162-63.284 59.211-7.594 49.97zm-17.493-62.756-2.44.048zm11.478-1.068-6.985.014zm-50.228 63.73c3.157-4.357 1.539 4.13 0 0m-240.278 425.778c-9.405-5.9 6.1 8.704 0 0m-5.222-1.778c-1.316-3.792-2.245 3.873 0 0m309.565-13.105c-5.381-1.165-2.996 6.527 0 0m-23.394-2.55c7.814-10.605-10.073 4.906 0 0m51.093-10.086c30.56-12.694 21.637-20.32-3.464-.267-16.252 9.11-2.191 5.036 3.464.267m65.236-16.259c-1.316-3.792-2.245 3.873 0 0m-9.944-4.956c51.492-17.806 51.366-81.285 58.138-126.147-8.827-48.164 9.113-104.264-12.905-148.441-20.044-36.83-13.798 54.083-11.527 74.822-9.759 19.277-7.765 77.24-20.226 98.203 2.86 31.675-62.212 84.2-13.48 101.563m-505.858-6.208c-3.765-62.218-4.846-125.576-23.103-185.451-11.886-39.934-2.452-96.548-37.344-136.677-18.747-45.415-.368 44.855-2.519 60.05 1.312 55.518 6.602 111.014 9.26 165.798 12.03 35.97 6.993 84.228 47.029 98.68zm19.308.214c-13.251-9.8 8.466 10.013 0 0m389.924-4.359c-4.236-10.849.143 21.874 0 0m123.07 3.691c-4.141-3.583-.392 6.79 0 0m-124.665-36.382c-4.71-25.402.444 40.617 0 0m145.556 10.499c-8.383-33.246-3.127 29.613 0 0m-47.365-55.333c4.1-37.944-7.357 39.687 0 0m-500.937.454c-5.78-23.775-1.996 26.29 0 0m90.434-2.12c.101-36.278-4.08 30.109 0 0m412.66-13.687-.185 1.806zm-147.096-25.13c-4.928-29.217-17.92-11.79 0 0m-135.587-6.742c-3.266-3.824-1.472 5.366 0 0m142.89-11.824c6.481-16.684-14.056-17.079 0 0m-39.515.085c-.384-8.585-7.977 5.135 0 0m-199.44-13.152c-5.35 13.01-1.386 16.125 0 0m221.065 7.391c-3.266-3.824-1.472 5.366 0 0m31.094-5.747c-5.25 1.854 5.917 6.958 0 0m-33.235 2.415c7.3-19.964-15.367.796 0 0m32.392-8.702c3.409-28.423-12.689-8.495 0 0m-245.158-8.036c4.543-9.472-23.695 20.881 0 0m2.59 7.442-.185 1.806zm217.775-7.304c-5.283-17.013 2.345 20.949 0 0m16.13-9.72c23.613-8.347-19.436-1.043 0 0m-68.39-11.392c10.554-15.575-31.404 15.32 0 0m-97.198-7.625c-5.381-7.609-3.283 15.213 0 0m-233-1.713c-1.472-5.366-3.266 3.824 0 0m622.163-10.27c38.282-68.587-20.123-149.47 17.918-218.168 25.257-23.606 23.412-120.688-21.87-76.173-18.543 20.696-.343 53.926 14.809 46.621-51.914 4.86 13.943 72.963-15.046 105.558.544 45.3-31.322 109.877-1.508 144.082zm-24.63-65.802c.452-9.634-7.183 19.987 0 0m-7.962-.394c13.046-28.203 12.551-90.35 10.147-102.615 3.197 27.332-37.373 92.087-10.147 102.615M226.88 960.588c5.248-27.2-17.88-87.97-15.065-25.986.185 9.674-.075 29.053 15.065 25.986m623.995-37.589c3.527-51.87-9 71.545-.357 3.695l.282-2.921zm38.48-41.392c6.644-22.726-2.96-52.445-4.248-12.283-7.184 20.296 5.054 49.566 4.247 12.283m-31.589 3c5.979-13.69-5.902 17.344 0 0m-622.398-16.44c-1.346-7.112-3.34 5.468 0 0m-51.604-16.31c.665-28.716 52.142-78.035-8.87-74.91-12.402 7.809-2.603 107.558 8.87 74.91m689.604-9.217c8.838-32.156-8.044 7.597 0 0m-590.776-16.444c4.235-8.885-14.837 19.27 0 0m-38.77-13.259c-4.732-24.566-31.707-50.793-11.75-11.1.787 3.155 6.205 24.899 11.75 11.1m12.2-5.58c8.976-66.688 69.855-64.943 110.675-99.94 33.486 2.2 60.6-1.417 77.8-38.599 33.77-54.622 42.093-120.234 72.655-176.421 26.59-36.114-27.643-100.834-59.097-73.763 20.14 6.28 35.977 49.4 9.13 29.73-13.656-37.378-102.863-33.613-45.43 3.743 26.386 43.537-64.266-53.888-27.82 2.059 16.833 20.223 27.606 98.951 3.972 36.574-6.78-31.986-77.964-64.275-60.148-10.184 17.491 24.383 18.073 33.921-.802 21.763 4.07 18.667 29.366 84.456 1.783 34.343-6.232-27.364-21.805-78.948-13.903-22.647 8.308 29.687-1.624 49.166-6.29 7.172-3.295-20.822-18.348 53.317-9.536-2.323 4.764-15.719 8.578-77.514-4.885-29.316-12.29 20.56 2.72 86.331-15.415 81.85-2.556-20.758-10.171-80.98-11.156-24.178 6.466 25.214-24.913 67.421-14.069 15.637-5.558-40.056-20.043 64.113-12.87 83.152-16.378-41.436-.615 73.578-20.599 25.112-14.58-18.835 12.817 48.505 12.644 62.883-12.518 22.905-28.933-105.29-22.264-32.666 13.405 33.912 17.374 78.547 35.625 106.02m58.82-14.35c-7.584.803-14.69 16.605 0 0m320.532-19.02c58.784-38.237 138.522-51.416 201.16-15 57.79-32.088-36.627-70.824-73.096-53.426-50.216 12.233-115.906 5.314-138.504 60.97-5.558 22.532-14.596 27.68 10.44 7.456m-283.006-1.88c6.731-8.831-9.619 9.561 0 0m-129.655-5.042c-4.683-4.701-1.383 5.423 0 0m5.092-13.937c-18.443-36.674 12.916 37.571 0 0m-25.184-5.52c-10.35-38.409-18.806-24.737-.732 4.848zm694.165-17.944c6.482-9.766 21.295-49.204.34-19.927 34.078-43.515 11.009-111.66 5.75-149.75 22.093 11.765 16.807 101.09 21.457 41.026 5.234-44.277-26.418-128.027-54.823-128.098 31.622 79.482 49.334 171.775 16.151 253.412-3.319 14.671 3.81 18.86 11.125 3.337M202.33 687.607c-2.527-21.475-7.077-102.44-7.159-39.039-1.509 15.407 6.832 94.519 7.16 39.04m266.039 14.414c77.363-3.914 155.016-.127 232.231-7.28-34.399-22.091-53.543-121.19-97.209-54.157-43.015 36.583-93.389-2.524-133.114-5.787-13.436 15.98-53.95 69.693-36.84 69.03 11.64-.669 23.288-1.205 34.932-1.806m427.583-66.664c.077-32.06-3.59-40.113-1.574-3.75.591 22.392 2.689 45.168 1.574 3.75m-676.583 14.128c-5.043-6.518-2.158 11.032 0 0m324-.525c-32.842-22.34-5.71-85.246 12.468-61.353 13.028-18.688 8.917 24.05 23.185-3.268-12.48-32.994-96.67 14.5-61.451 6.504-29.265-10.68-16.743 16.486 1.003 14.226-21.434 5.086-24.307 14.588 2.575 18.915-29.085-1.367-14.196 15.92-3.015 9.132-15.918 12.648 15.964 1.193 16.274 14.92zm27.826-2.4c-13.122 1.37-17.076-22.961-26.481-6.008 2.568 6.998 24.559 15.145 26.481 6.009m16.101-4.85c21.488-30.492-28.539-63.076-11.98-21.091 24.677 14.86-36.681-9.386.193 17.747-2.114 8.172 11.41 12.057 11.787 3.343m9.033.918c51.69-7.28.594-76.049-4.878-53.856 8.824 16.901.1 36.77 4.878 53.856m-104.584-16.77c13.996-40.29-8.007-34.883-12.362-4.85 1.369 3.674 15.354 15.387 12.362 4.85m-263.376-3.31c-3.692-15.602-.312 17.609 0 0m326.129-3.19c2.104-6.367-5.646 8.42 0 0m317.554-1.938-.185 1.806zm-394.046-6.532c23.447-70.562 135.887-32.887 148.768-17.84-25.451-44.535-55.66-99.39-95.034-127.564-18.554 40.345-32.853 83.204-48.008 125.584l-3.18 9.862zm-264.574-9.03c.477-24.544 4.99-107.83 8.664-40.702 23.815 10.178.584-93.77 41.754-94.23 2.586-56.06-50.484 23.946-46.658 48.375-7.828 26.14-6.87 75.745-3.76 86.556m17.458-12.598c12.045-38.686-3.977-15.24-4.924 9.036zM569.369 596c-3.89-2.26-3.358 3.702 0 0m303.643-24.29c6.052-30.132-18.719-59.612-6.392-12.854-.372 11.213 8.926 43.118 6.392 12.854m-14.676-21.82c.622-23.123-21.18-61.36-10.218-16.092-4.853 11.444 19.176 50.273 10.218 16.092m-599.343-17.993c-7.232 5.749-8.275 28.16-1.95 8.785zm-.093-7.29c14.845-21.741-24.354 29.1 0 0m-15.126 3.245c3.73-22.387 5.142-58.707-.485-15.354.472 1.722-3.698 27.26.485 15.354m596.595 2.835c3.144-25.046-33.197-114.082-19.015-42.009 2.244 14.532 1.653 36.487 19.015 42.009m-564.563-18.972c-10.585 7.674.589 20.054 0 0m16.982 2.318c5.795-48.66-9.79 23.088-.765 6.318zm-26.709-3.049c-18.093 10.96-14.035 22.219 0 0m2.157-6.75c13.295-25.32 27.254-87.441-.055-39.69-7.821 8.293-29.99 79.152.055 39.69m597.289 6.28c-1.89-29.15-52.313-80.366-16.953-23.514 4.595 7.276 5.862 24.333 16.953 23.514m-587.156-5.907c2.18-7.056-4.698 7.592 0 0m-1.193-5.526-1.507 2.356zm532.652-8.691c8.57-29.637-68.08-101.316-37.706-34.802 5.019 8.556 31.843 55.808 37.706 34.802m-525.644-9.767c1.496-24.672-9.287 31.845 0 0m15.716-10.197c32.658-25.763-26.91-7.007-5.505 9.555zm28.469-8.354c-4.317-13.689-1.761 15.337 0 0m57.967-4.873c-52.088-54.588-3.43 23.527 0 0m375.514-2.842c-8.973-24.47-18.382-14.11 0 0m-462.855-3.703c16.525-17.723 22.812-38.414 1.553-9.118-5.432-.554-10.719 21.305-1.553 9.118m30.374-1.141c-3.92-11.838-4.284 19.347 0 0m9.25-1.298c4.973-8.119-9.026 3.954 0 0m-42.684-5.735c6.228-18.02-10.673 15.316 0 0m24.218-1.462c22.757 5.196 64.951-11.232 20.49-21.066-16.965 13.51-11.15 14.915-15.13 1.384-6.597 2.337-27.4 35.258-5.36 19.682m419.708-1.16c-8.217-20.467-51.447-54.112-24.635-11.352 2.997 3.905 24.256 21.675 24.635 11.351m-356.77-10.615c-32.639-29.367-29.292 1.24 0 0m-73.387-3.886c11.12-22.738 38.265-14.516 47.243-42.722-17.205-10.697-74.49 46.74-47.243 42.722m444.665 2.534c.68-15.763-18.96-6.835 0 0m-59.18-8.436c-16.85-15.364-42.559-68.01-63.396-50.947 21.305 5.095 58.978 74.49 63.396 50.947m-394.012-1.098c23.494-28.12-14.144 25.051-.06.088zm104.692 2.583c9.703-19.751-58.842 9.91 0 0m35-4.333c-3.156-4.357-1.539 4.13 0 0m-107.351-3.084c32.748-11.97-29.35 4.268 0 0m469.51-4.233c-10.459-26.5-76.68-66.341-74.805-45.733 26.327 7.3 68.632 43.679 74.806 45.733m-55.324 3.31c-7.697-26.599-27.083 9.162 0 0m-314.679-1.316c-17.007-15.958-26.892 10.058 0 0m-18.68-4.353c-13.54-22.156-78.281 8.129-21.209 2.762 7.02.687 15.21 2.41 21.21-2.762m372.024 2.616c-13.487-22.254-44.345-27.694-10.848-4.511 2.854.62 6.899 8.549 10.848 4.511m-330.084-2.804c10.659-13.183-31.921 7.367 0 0m180.521-1.237c-14.363-17.81-90.214-61.226-42.741-17.361 10.216 9.117 28.499 26.086 42.741 17.36M357.6 401.914c39.85-22.797-32.58 8.4 0 0m148.609-.851c46.242-5.656-57.346-26.14-60.336-19.204-84.207 11.963 51.423 21.92 60.336 19.204m150.064-.636c-11.71-19.968-44.992-33.072-11.778-7.675-2.689-7.53 14.424 17.178 11.778 7.675m-67.66-4.836c-30.16-24.187 17.533 24.052 0 0m142.516 4.253c-12.686-27.264-50.284-14.62-8.504-.259l4.145 1.38zm-180.759-.165c-6.787-10.343-32.249-.995-9.878.704zm204-3.072c-13.898-10.056 6.814 10.12 0 0m-375-3.522c38.36-19.882-29.256 9.627 0 0m310.684-2.857c-22.467-27.58-18.372-11.684 0 0m-289.684 2.36c25.341-6.188-38.61 2.77 0 0m-59.765-11.145c49.759-17.497-28.21 24.738-7.725 4.257zm204.73 7.77c-31.6-16.988-45.767-4.843 0 0m-175.84-1.961c61.251-8.74-27.401-17.279 0 0m365.669-.895c-14.282-16.653-6.871 4.786 0 0m-173.794-5.646c-18.781-19.755-57.594-6.804-12.717-3.89 4.224 1.264 8.013 4.644 12.717 3.89m-50.61-2.982c-9.056-11.505-22.852 4.064 0 0m184.954-3.774c-10.727.081 6.728 7.27 0 0m-216.344 2.735c-28.876-7.791-48.682 4.354-8.012.448zm-69.196-1.505c23.97-7.755-27.229 4.247 0 0m-9.804-1.94c-3.976-2.257-8.699 6.807 0 0m207.924-1.233c-23.226-20.995 1.69 8.768 0 0m105.576-.405c-16.71-7.506.052 4.364 0 0m-301-21.45c56.532-30.294-80.981 32.736-17.84 9.656l8.821-5.01zm-12.708 17.385c23.11-10.599 114.487-26.825 95.624-26.884-26.827-8.671-97.41 7.435-95.624 26.884m278.208-.435c-7.375-7.595-.599 5.677 0 0m-227-7.032c18.847-13.655-54.768 14.966-7.188 2.744zm51.5 4.443c19.182 1.925 57.006-2.7 18.744-13.91-22.818-2.139-91.297 21.271-28.458 15.015 3.27-.033 6.476-.737 9.714-1.105m-44.424-1.499c8.375-8.521-20.527 10.764 0 0m257.329-.543c-13.378-24.75-68.032.678 0 0m-123.405-.884c-21.161-21.883-46.443-9.906-7.384-.999l3.607 1.677zm29.964-3.126c17.17-12.702-63.39-14.338-12.922 1.128l4.303-.201zm46.286-2.85c.752-8.805-27.73 8.602 0 0m-8.33-7.024c-10.665-29.952-92.097-12.655-85.908-11.55 29.369-1.658 56.432 18.382 85.908 11.55m24.83-2.974c-10.16-19.621-25.666 5.477 0 0m-138.461-5.53c-41.373-18.706-31.508 7.322 0 0m21.464-9.399c19.692-2.725 70.446-6.784 22.763-6.43-19.704-2.522-84.163 9.66-22.763 6.43" style="fill:#000" transform="translate(-161.403 -317.223)"/><path d="M637.97 1554.188c-67.191-20.262-138.06-13.107-207.134-15.733-15.5 6.538-108.227.401-56.716-3.012 11.702 2.678-15.406-58.44 21.15-52.586 15.763 23.367 44.99 14.458 7.964-2.353-26.823-37.599-1.638-93.97-7.719-139.325-4.343-56.214 18.131-1.907 40.181 5.03-18.156-26.36-16.782-39.36 14.44-16.463 51.056 33.204 113.37 22.075 167.48 4.006 29.247-3.575 84.91-45.688 68.899 13.993-1.419 68.356 22.823 136.506 61.628 192.122 8.512 18.109-42.588-7.329-57.143 8.968-17.297 1.877-35.972 11.926-53.03 5.353m-235.624-25.092c-10.83-35.192-22.752 1.17 0 0m20.016-3.987c-4.237-20.388-50.998-57.385-24.881-13.501 4.964 5.8 15.97 18.279 24.88 13.5m9.78-43.451c-8.551-15.977-48.769-55.63-26.483-12.508 3.785 6.324 19.38 22.61 26.484 12.508m8.989-28.903c-14.266-15.606-57.364-90.84-34.9-30.617 6.734 11.695 17.467 41.169 34.9 30.617m-.62-43.498c-8.976-21.576-62.656-67.623-27.171-16.746 6.445 7.274 15.664 26.843 27.17 16.746m.62-36.682c-10.812-21.053-54.953-69.22-27.21-16.48 5.414 8.125 15.354 22.918 27.21 16.48" style="fill:#e9afaf;stroke-width:1.79762" transform="translate(-161.403 -317.223)"/><path d="M495.958 1335.502c-32.628 4.896-84.218-68.82-67.799-66.39 23.647 21.044-16.102-23.71-8.617-25.896-11.734-43.339 1.694-76.26 5.531-120.512-1.341 2.523 25.716 12.508 9.957-6.179 28.745 12.324 8.747-36.04 26.982-3.626 14.403 24.912 35.618 15.22 51.055 21.213 11.912 12.593 19.699-22.124 41.305-.059 14.345-23.146 47.262-81.894 74.654-49.275-16.685 11.365-14.414 20.942-36.11 6.306-13.192 45.35 6.638 46.27 33.747 16.324 23.192 1.537 50.897 70.964 46.13 22.534 22.052 21.855 19.695 148.647 17.377 115.877 18.76-10.72-29.835 85.344 14.092 34.04 34.335-42.204 7.08-102.387 2.206-150.57-5.83-33.88-17.589-106.63-59.568-51.6 26.654-37.078 6.451-139.56-53.248-89.486-12.563-44.053-18.815-95.267-3.348-139.753 25.08-35.766 10.653-50.669 54.983-76.011 44.03-21.757 97.836-34.834 146.167-22.64 34.587 35.455 96.156-2.164 56.148-42.276-48.629-20.323-103.076-10.635-151.75 6.86-37.648-5.953-70.958 28.21-82.25 66.4-23.64 45.13-47.79 92.452-42.418 145.127.91 31.638-.456 104.18 43.79 61.043 55.706-4.423 33.201 121.448-7.067 74.07 6.22-35.226-40.007 1.601-27.524 25.654-29.857 50.697-57.867-18.643-61.002-45.26-44.712-5.652 5.552 47.048-37.988 32.681-24.56-20.11-20.851-106.35 22.97-68.969 42.75-28.374 30.277-99.135 15.984-142.064-28.262-53.896-63.725-105.909-104.317-150.358 94.088-8.09 189.106-4.814 283.504-9.9 23.55-22.98-41.152-59.583-48.35-89.879-41.18-71.52-87.989-140.223-148.587-196.8 16.887-19.231 70.539-12.645 84.565 8.636 33.576 15.453 36.212 78.947 51.224 92.781 7.657-34.096-25.5-77.49-30.064-97.11 25.065 14.934 38.843 96.302 55.237 83.391 3.99-29.418-59.316-80.953-28.16-91.566 21.54 8.11 33.976 65.891 36.448 20.498 29.33 28.128 20.685 85.034 37.31 111.007 14.524-32.33-26.64-89.381-7.476-104.141 2.903 23.538 12.125 43.226 17.427 14.478 31.318 27.767 18.241 96.743 37.313 115.596 6.943-38.05-15.418-85.858-16.796-115.342 35.573 12.672 12.775 78.654 38.334 77.855 3.86-17.743-7.03-65.598 4.276-20.3.968 20.8 9.142 64.996 10.875 19.352-9.497-64.873 33.568 2.668 23.38 32.103-4.594 26.076 12.775 93.753 13.966 29.496-2.595-23.114.438-75.738 12.758-23.602 3.609 16.927-4.684 81.08 8.872 31.729 11.239-48.022 14.215 65.074 7.631 83.316-.86 49.465 18.857-64.087 15.347-6.536 7.778 45.694-3.595 93.035-5.424 139.248-13.705 72.78-50.747 141.412-44.622 217.513-4.596 53.704-9.968 107.65-36.626 156.098-5.883 53.538-42.603 88.495-92.886 104.343-60.907 31.722-130.736 50.234-199.548 40.53m35.255-76.03c16.03-20.103 110.077 4.415 55.124-23.856-10.029-18.854-100.534 39.942-55.124 23.856m-71.3-14.838c10.498-46.806 33.131-75.955 85.055-60.154 39.577 16.912 92.807-60.214 102.717 9.716-.603 17.646 14.302 66.74 11.95 20.905 8.618-68.49-64.016-81.184-114.157-59.712-61.179-12.169-83.082 46.564-91.807 94.67zm116.922-107.614c14.341-44.473-13.797-22.608 0 0m-24.371-133.188c39.034-10.386-34.713-1.848 8.733-17.01 5.02-25.265-45.327 25.203-18.09 18.515zm147.524-39.073c-17.625-18.82-61.46-45.77-56.488-55.3 17.737 15.92 76.655 24.493 26.282 2.038-25.396-10.51-38.47-24.716-1.606-9.79 55.106 8.033-19.502-17.94-36.658-18.924-7.817-21.306 43.06-72.408 34.21-23.331 27.625 46.056 86.158 5.981 72.55-30.27 13.704 15.491 67.386 79.891 35.585 23.387-27.34-57.695-99.477-56.469-131.135-3.608-51.918 36.224-.723 89.925 37.8 110.312 4.965-.21 13.769 11.172 19.46 5.486m-37.75-90.217c-4.593-6.45-4.593 6.449 0 0" style="fill:#e9afaf;stroke-width:1.79762" transform="translate(-161.403 -317.223)"/><path d="M390.798 1292.692c-38.36-15.274-86.738-48.312-79.637-94.906-2.343-52.074-11.209-103.293-27.245-152.861-17.658-49.93 69.078 60.566 40.84 9.586-18.947-11.261-55.598-70.932-19.935-27.968 15.384 18.247 50.633 11.608 14.487-2.482-21.939-20.258-77.996-108.566-65.214-99.467 11.462 26.588 58.56 85.857 75.52 68.966-21.779-10.001-74.048-81.05-27.536-40.684 35.31 1.02-19.356-49.374-30.668-61.408-36.253-42.043-15.897-84.978 11.99-124.31 30.458-17.833 57.122-23.9 91.565-50.273 25.38-9.306 106.98 64.005 37.385 37.874-58.202-3.069-116.428 34.76-144.356 84.69-11.16 43.125 26.95-38.245 47.797-42.145 7.753-11.415 67.051-16.004 37.361-22.912 55.228-23.246 118.392 6.814 139.894 61.913 13.118 23.906 28.378 47.473 26.26 75.917-.238 33.916 8.728 94.225-41.102 71.211-45.901 13.986-14.941 112.894-18.19 100.323-30.762-34.534-57.25 2.39-53.64 25.633-31.508 58.751-16.749 126.872-1.836 187.488l-4.884-1.273zm22.298-296.1c29.798-28.307 48.965-67.803 51.803-108.888-29.558-27.277-60.264-76.054-106.42-57.106-22.828 5.297-72.159 93.23-55.169 67.553 11.011-15.651 53.379-68.696 50.82-52.393-46.07 56.777 68.787 90.427 67.017 20.434 18.557-21.01 43.493 58.717-1.934 61.046-11.993 6.206-84.306 31.512-33.253 19.72 22.429-4.731 82.138-55.287 44.913-7.774-19.426 15.517-47.862 47.294-10.73 15.397 13.001-16.967 38.57-33.734 19.197-.646-1.676 13.42-69.722 79.735-26.244 42.657" style="fill:#e9afaf;stroke-width:1.79762" transform="translate(-161.403 -317.223)"/><path d="M252.373 801.738c-6.131-21.635-37.366-98.018-10.144-61.017 6.404-19.76-34.97-102.694-2.978-56.363 11.024-45.455 9.568-71.682 18.75-125.611 6.165-31.483-.28 73.034 17.465 13.683 3.294-21.763 4.27-72.25 9.316-21.69 11.836 66.098 16.01-31.845 18.42-51.702 23.235-82.383-10.666 99.75 13.025 18.19.362 27.183 19.901 46.793 10.74 7.181-4.298-72.08 4.587 38.66 28.91 30.189-12.188-24.626-26.3-68.199-2.837-41.616-8.624-21.948-35.534-79.52 13.993-55.568 23.934 8.603 56.472 100.578 42.219 32.687-.675-20.363-47.579-74.957-3.17-40.848 22.443 31.495 29.318 10.164 5.17-11.086-18.904-34.138 59.933-7.308 61.569 21.125 38.707-15.916-44.862-48.757 4.358-47.233 61.673 18.653 44.143 84.798 19.116 126.423-24.787 59.028-35.992 133.277-93.005 170.828-39.363-22.712-68.239 34.733-106.13 30.203-19.903 8.465-38.03 65.543-44.787 62.225" style="fill:#e9afaf;stroke-width:1.79762" transform="translate(-161.403 -317.223)"/><path d="M256.004 846.29c17.458.593 14.977-26.294 0 0" style="fill:#000" transform="translate(-161.403 -317.223)"/><path d="M247.73 847.357c13.579 25.364 36.262-2.537 24.168 10.296 30.954-22.021-18.17-34.378-21.017-28.382-39.39 3.975 37.79 44.535 27.355 11.54-31.297 4.902 7.736.46-23.383 1.388zM239.601 1098.034c38.862-27.044-37.895-10.235-18.484 1.142 11.241 16.626 52.762-30.204 14.757-24.276 27.198 27.01-33.223-15.867-31.367 26.553 21.9 43.483 70.789-43.915 24.614-17.471l4.495 7.582z" style="fill:#000" transform="translate(-161.403 -317.223)"/><path d="M886.513 1025.785c-1.373 2.104-1.373-2.073 0 0z" style="fill:#000;stroke:#000" transform="translate(-161.403 -317.223)"/><path d="M866.724 1026.148c-18.924 56.006 54.958 28.4 49.03-5.246 3.688-4.694-21.805-18.932-23.422 11.344-26.829 34.1 12.229-10.87-25.608-6.098" style="fill:#000" transform="translate(-161.403 -317.223)"/><path d="M355.19 622.843c-1.373 2.105-1.374-2.073 0 0z" style="fill:#e9afaf;stroke:#000" transform="translate(-161.403 -317.223)"/><path d="M203.39 1082.69c-34.582-35.487-6.422-99.704.615-131.57 41.73 21.362 21.293 69.511 25.075 107.718 2.674 22.764-.52 30.333-25.69 23.852M201.122 939.221c-1.01-32.908-32.892-117.732 11.573-119.272 26.382 37.313-13.5 91.154-11.573 119.272" style="fill:#e9afaf;fill-opacity:1;stroke-width:1.27111" transform="translate(-161.403 -317.223)"/><path d="M177.714 857.294c-17.589-28.273-8.429-115.892 29.324-61.856-12.845 16.948-24.485 54.146-29.324 61.856M218.248 957.486c-15.39-22.533.725-83.332 5.964-24.734-1.497 6.003 10.386 37.058-5.964 24.734M884.606 1038.397c-14.882-36.627 2.849-85.65 5.142-127.552 3.914-24.699 10.08-67.24 10.308-19.55 3.92 38.64 9.593 77.27 7.064 116.207-12.08 6.67-9.844 25.25-22.514 30.895m2.876-12.589c-3.151-6.697-3.151 6.698 0 0M899.062 854.443c-8.803-17.922-27.635-66.407 7.893-63.742-36.614 10.996-18.486-87.124 19.138-49.352 15.64 34.55-28.72 127.372-27.003 114.618zM854.983 969.869c-2.92-20.36 18.431-98.365 18.35-86.519-1.687 21.91 3.094 88.01-18.35 86.519" style="fill:#e9afaf;fill-opacity:1;stroke-width:1.27111" transform="translate(-161.403 -317.223)"/><path d="M884.26 893.702c-1.517-23.536 8.057-65.388 4.985-18.087.112 3.587-1.61 38.872-4.984 18.087M257.979 830.748c-.99-23.983 28.74-89.9 68.835-78.705 29.847-45.252 84.122-41.692 113.731 3.4-31.693-4.239-100.763 1.237-134.317 37.54-19.222 6.969-26.478 46.315-48.25 37.765M619.278 784.037c8.189-52.267 54.877-61.623 96.822-69.349 30.057-13.815 64.455-7.025 96.446-9.152 50.458-8.228 53.635 78.235 3.092 44.113-64.307-29.343-141.948-4.814-196.36 34.388M287.893 1246.327c-40.636-31.505-36.967-90.464-42.558-137.704 8.11-19.294 6.754-29.576-4.417-44.865-.1-52.207-5.295-104.186-9.156-156.163 18.62 42.36 53.386 88.238 32.766 136.393 30.196 41.16 25.004 97.318 31.681 145.85-4.982 11.851 16.38 62.46-8.316 56.489M799.14 1250.27c-28.335-35.246 25.724-76.152 25.677-111.978 8.869-33.006 7.564-68.951 14.498-92.146.335-15.136-9.355-105.528 14.634-63.609 13.074 45.488 5.327 98.048 8.827 145.584-6.43 43.022-7.968 116.177-63.636 122.149M499.097 1111.274c-1.825-18.597-48.269-21.333-.163-31.32 23.143-14.127 61.382 54.538 20.563 21.096-40.683-16.438-.39 12.97-20.4 10.224" style="fill:#241c1c;fill-opacity:1;stroke-width:1.27111" transform="translate(-161.403 -317.223)"/><path d="M540.848 1180.383c-53.9-3.817 82.254-16.266 76.194-19.711-24.234 9.304-49.488 22.072-76.194 19.71M513.769 1168.825c10.678-4.074 86.072-20.56 85.582-10.521-27.7 7.992-56.808 11.174-85.582 10.52" style="fill:#ff8080;fill-opacity:1;stroke-width:.317777" transform="translate(-161.403 -317.223)"/><path d="M538.007 648.777c-12.908-9.581-16.706-22.823-21.781-16.563-42.85-.322 30.15-10.827-10.83-12.47-22.464-10.432 40.198-19.34-2.975-16.714-16.999-27.893 33.671 2.592 25.538-26.266 21.13-21.791 70.473 21.976 37.64 9.892-11.073-8.642-49.685-3.947-35.89 40.969-5.993 5.972 21.7 25.073 8.298 21.152" style="fill:#0ff;fill-opacity:1;stroke-width:.449405" transform="translate(-161.403 -317.223)"/><path d="M580.02 645.075c-14.857-23.862-25.936-21.98 4.494-19.474-30.192-16.291 3.761-46.905 7.498-1.432.958 3.304-4.696 27.82-11.991 20.906M558.128 648.875c-46.311-31.825 37.356.795 0 0" style="fill:#0ff;fill-opacity:1;stroke-width:.449405" transform="translate(-161.403 -317.223)"/><path d="M699.025 874.677c-71.747-10.644 21.462-95.217 19.73-28.228-22.724 16.385-32.153-24.097-10.31-18.308-46.784-4.179-.062 59.945 21.065 16.423 4.531 17.828-12.238 36.764-30.485 30.113M379.446 905.014c-66.788-19.932 20.725-103.484 12.775-25.965-24.867 8.37-22.729-50.417-29.443-5.542 18.384 32.5 52.233-4.25 32.526-28.495 28.036 18.48 20.62 62.486-15.858 60.002" style="fill:olive;fill-opacity:1;stroke-width:.449405" transform="translate(-161.403 -317.223)"/><path d="M555.38 729.371c-38.849-12.558-82.023-10.83-117.648-33.245-48.978-25.192-95.97-54.69-135.425-93.529-36.67-21.38 18.453-61.04 32.944-23.542 31.088 29.229 66.02 55.301 106.313 70.03 51.296 25.465 111.288 30.384 167.367 21.894 32.029-1.834 49.58-31.427 71.204-50.977-33.713-9.754-21.427-54.487-38.172-78.635-11.086-24.645 4.544-45.036 29.339-44.143-5.504-50.142-6.976-101.893-10.986-152.69-3.761-69.358-8.584-139.148-2.74-208.473-3.825-25.337 24.317-71.036 41.49-30.553 17.97 38.178 11.944 81.67 14.976 122.569 1.242 65.938-.998 131.87-2.79 197.776 1.952 28.814-7.137 58.786.87 86.753 20.041 10.425 36.946 25.428 24.983 51.011-1.3 18.343 5.842 37.8.409 56.095-27.424 15.412-21.522 59.037-53.758 71.04-28.765 24.568-68.398 32.872-104.743 38.774-7.878.261-15.756-.086-23.634-.155M577.12 724c24.184-8.271 38.712-62.921-1.658-45.13-12.925 7.99-25.368 36.28-26.91 42.945 8.964 3.158 19.411 6.745 28.567 2.185m30.597-2.907c28.14 3.492 48.156-68.628 7.618-48.818-18.013 13.626-13.764 43.651-35.865 53.878 9.576-.551 19.044-2.398 28.247-5.06M541.3 717.75c29.593-7.973 23.425-60.191-8.603-35.927-12.128 15.987-33.392 41.146 1.187 36.732l3.735-.142zm90.53-3.274c36.023-1.283 48.774-36.311 37.163-66.121-19.98-20.117-31.457 31.404-29.976 47.655.583 3.482-22.645 25.174-7.187 18.466m-114.362-13.355c33.557-29.097-38.188-41.546-40.807-7.145-27.576 13.819 37.02 28.352 40.807 7.145m-50.36-1.755c38.722-15.56-2.948-56.18-21.185-20.283-27.307 12.284 8.58 23.237 21.185 20.283m213.283-8.51c31.254-5.269 20.814-72.295-4.135-64.089-13.679 21.48 7.859 50.5-4.42 72.361 2.984-2.622 5.562-5.658 8.555-8.271M438.7 680.829c39.754-18.056-22.262-48.981-35.564-19.762-24.55 9.087 29.456 25.45 35.563 19.762m270.223-17.367c19.053-12.582 1.1-62.696-12.265-39.327 3.606 5.447 1.575 59.692 12.265 39.327m-310.134-1.68c49.812-13.755-32.693-49.765-30.514-10.691 9.052 4.714 19.444 18.572 30.514 10.692m-26.328-24.024c31.147-10.669-23.033-50.45-37.142-22.44-17.857 7.713 29.455 34.825 37.142 22.44m358.306-17.059c26.26-34.038-33.84-30.115-51.942-38.066-45.045-17.238-9.204 43.917 17.799 33.004 11.94-2.516 24.351 7.653 34.143 5.062m-45.447-2.505c-3.491.738-1.447 2.924 0 0m-345.05-6.737c25.085-15.479-31.972-55.411-45.802-38.218-.637 20.31 24.15 48.593 45.803 38.218m394.083-26.874c9.146-33.138-36.116-40.99-56.915-52.173-19.425-7.744-47.142 17.29-17.892 26.664 5.702 29.01 46.824 25.954 69.83 26.633zm2.545-33.532c-3.662-40.47-57.879-44.85-89.238-46.044-16.912 16.706 2.942 34.514 19.753 22.759 25.056 1.576 44.407 22.443 69.485 23.285m-31.382-40.85c7.51-23.179-13.673-44.021-32.34-40.307-5.51 26.705 7.828 36.635 32.34 40.307m.36-48.7c13.593-29.373-20.202-33.877-37.266-36.64-9.845 19.503 33.768 78.053 37.267 36.64m.203-32.015c8.06-20.903.756-45.146-23.358-43.674-28.405-26.99-17.242 47.799 9.365 42.362l7.067 1.25zm2.357-45.424c6.477-21.059-.738-42.49-25.49-38.77-33.366-30.71-20.253 38.552 6.215 38.943 4.236 1.614 16.753 6.086 19.275-.173m1.382-64.394c17.31-29.384-49.016-42.701-48.655-39.993-10.256 30.95 14.451 75.703 48.18 62.988 1.157-7.483.134-15.37.475-22.995m0-52.054c7.797-31.331-34.3-25.766-49.862-42.643-11.892 29.651 12.588 64.982 46.308 60.415 7.473-.274 1.63-13.063 3.554-17.772m.149-47.15c13.11-31.309-34.15-39.578-51.493-41.724-11.874 27.546 27.2 77.4 51.104 52.115.314-3.458.312-6.926.389-10.391m-1.312-41.213c8.285-29.398-22.15-51.904-45.36-49.957-16.753 30.413 10.959 58.432 42.041 57.32 2.882-1.095 3.692-4.655 3.319-7.363m-4.86-43.535c7.849-26.944-41.802-64.692-38.542-18.718 8.336 11.57 24.068 20.378 38.543 18.718" style="fill:#000;stroke-width:.92757" transform="matrix(1.66642 0 -.06245 1.88218 -420.714 -162.3)"/><path d="M356.68 639.87c-16.05-6.726-40.566-23.543-9.553-31.054 21.834-14.054 54.723 33.016 15.543 31.752zM532.116 718.189c-38.475 6.143-4.862-33.393 9.58-40.981 38.952-6.963 12.816 44.774-9.58 40.98M713.641 586.336c-28.141.432-47.727-13.392-62.47-32.82-14.589-29.739 43.303-22.808 56.428-7.076 23.095 4.215 47.532 45.89 6.042 39.896M697.198 386.227c-22.838 1.587-45.298-41.022-27.966-48.644 16.864 12.514 50.916 6.52 39.73 38.487.172 8.112-2.04 13.442-11.764 10.157M693.66 185.392c-20.91-6.925-43.19-19.964-33.09-45.107 2.179-25.683 42.481.213 46.455 15.208.146 10.884 8.298 39.223-13.365 29.9" style="opacity:1;fill:#28170b;fill-opacity:1;stroke-width:.544835" transform="matrix(1.66642 0 -.06245 1.88218 -420.714 -162.3)"/><path d="M419.608 678.816c-18.948-2.717-32.02-15.933-7.366-22.746 20.98-25.923 61.958 21.452 20.346 26.998-4.369-1.288-8.665-2.803-12.98-4.252M626.645 715.02c24.414-19.697 4.554-59.71 35.83-73.69 18.57 22.606 11.745 68.92-24.933 71.483-2.71-1.135-8.663 4.533-10.897 2.207M696.384 285.024c-29.302 1.745-51.485-47.06-31.376-58.43 19.655 16.476 55.364 15.574 44.468 50.11 2.374 10.198-4.685 9.187-13.092 8.32M728.265 549.832c-26.545-12.97-57.776-23.85-83.794-22.092-10.003-42.525 51.251-14.963 72.14-7.413 8.695.048 33.706 35.985 11.654 29.505" style="opacity:1;fill:#784421;fill-opacity:1;stroke-width:.544835" transform="matrix(1.66642 0 -.06245 1.88218 -420.714 -162.3)"/><path d="M327.258 613.38c-24.447.471-50.38-59.236-10.477-41.46 16.218 10.484 55.741 38.523 10.477 41.46M559.903 725.047c-26.276-1.332 5.326-34.133 14.543-45.456 45.326-20.243 22.7 47.792-6.604 45.87l-4.708-.074zM723.261 620.404c-24.18-7.211-66.905-2.333-66.289-38.447 20.657-4.003 41.77 11.553 63.864 9.46 20.412.25 23.164 31.054 2.425 28.987M695.198 474.736c-24.809-2.994-41.806-71.564-5.124-42.988 24.343-9.812 21.335 47.956 5.124 42.988M696.236 135.551c-20.983-.762-44.98-26.78-20.81-41.72 12.994-2.965 43.035 43.666 20.81 41.72" style="opacity:1;fill:#a05a2c;fill-opacity:1;stroke-width:.544835" transform="matrix(1.66642 0 -.06245 1.88218 -420.714 -162.3)"/><path d="M488.802 710.726c-28.928-3.206-16.998-13.65-2.599-30.021 15.895-20.975 60.257 2.907 28.894 23.302-5.87 8.831-17.102 9.134-26.295 6.719" style="opacity:1;fill:#c87137;fill-opacity:1;stroke-width:.544835" transform="matrix(1.66642 0 -.06245 1.88218 -420.714 -162.3)"/><path d="M488.802 710.726c-28.928-3.206-16.998-13.65-2.599-30.021 15.895-20.975 60.257 2.907 28.894 23.302-5.87 8.831-17.102 9.134-26.295 6.719M386.606 662.765c-26.315-5.647-19.077-31.948 5.87-28.936 35.672 2.675 22.554 32.686-5.87 28.936M694.226 238.28c-26.068-6.092-46.622-40.105-31.562-61.691 28.989 7.962 63.587 24.02 43.854 59.56-3.06 3.25-8.305 3.385-12.292 2.13M696.384 507.173c-28.23 8.703-33.102-59.183-5.513-31.376 16.824-5.58 20.731 43.24 5.513 31.376M672.148 697.297c14.543-20.167-19.265-74.234 18.243-70.906 10.414 29.14 15.912 56.952-18.243 70.906" style="opacity:1;fill:#c87137;fill-opacity:1;stroke-width:.544835" transform="matrix(1.66642 0 -.06245 1.88218 -420.714 -162.3)"/><path d="M454.615 699.498c-35.635-3.58-2.077-31.335 13.952-34.807 33.095 2.065 5.861 41.858-13.952 34.807M584.612 723.194c17.873-14.12 22.076-70.085 53.081-48.882 7.772 33.815-34.873 56.558-53.081 48.882M703.8 667.447c-4.704-15.897-15.234-69.3 10.812-40.367 4.484 12.07-.056 37.125-10.813 40.367M694.75 428.423c-25.524 5.37-40.577-57.329-16.282-45.829 11.738 10.969 38.313 5.94 29.603 32.353-.837 10.44-.65 17.52-13.321 13.476M697.201 345.573c-29.21-5.326-40.746-32.52-35.867-59.624-5.274-25.678 28.801 8.933 41.897 7.986 9.169 5.702 14.818 58.297-6.03 51.638" style="opacity:1;fill:#d38d5f;fill-opacity:1;stroke-width:.544835" transform="matrix(1.66642 0 -.06245 1.88218 -420.714 -162.3)"/><path d="M-11.61 268.042c7.905-6.585 21.666-15.493 30.531-5.81 1.902 8.654-9.84 13.101-14.285 19.114-7.428 6.453 9.942-3.562 10.926-7.352 9.88-5.246 5.951-18.582-4.867-18.102-7.22-.586-22.568 6.622-22.304 12.15" style="fill:#000;fill-opacity:1;stroke-width:.264583" transform="matrix(3.1501 0 -.09625 2.90085 131.455 118.488)"/><path d="M-11.025 267.783c2.133-5.32-5.805 8.737.75-1.507-10.522 3.756 3.88 4.175 1.922-1.563 3.487.538 10.853-6.543 16.02-5.768 3.58 1.637 14.195 1.356 10.37 7.604-3.509 6.658-14.21 12.13-15.227 17.716 5.838-5.118 24.056-16.612 15.17-24.214-7.001-3.334-14.932-3.648-21.82.648-4.062 2.696-11.516 8.97-7.996 8.015.44-5.585-4.578 7.597 2.772-1.888 1.089-2.998-5.899-.403-1.961.957" style="fill:#000;fill-opacity:1;stroke-width:.264583" transform="matrix(3.1501 0 -.09625 2.90085 131.455 118.488)"/><path d="M12.866 257.32c-6.435-.881 6.644 2.841-1.836 2.505 7.915.379-4.1-1.241 4.084.546 2.7-6.126-9.804-1.873-2.248-3.051" style="fill:#500;fill-opacity:1;stroke-width:.264583" transform="matrix(3.1501 0 -.09625 2.90085 131.455 118.488)"/><path d="M1.054 281.123c-10.504-9.344-14.191-17.341 2.568-21.438 12.75-3.014 21.073 7.413 6.76 15.348-2.575.576-6.457 10.058-9.328 6.09" style="fill:#500;fill-opacity:1;stroke-width:.133635" transform="matrix(3.1501 0 -.09625 2.90085 131.455 118.488)"/></svg>