<?xml version="1.0" encoding="UTF-8" standalone="no"?>
<svg
   xmlns:dc="http://purl.org/dc/elements/1.1/"
   xmlns:cc="http://creativecommons.org/ns#"
   xmlns:rdf="http://www.w3.org/1999/02/22-rdf-syntax-ns#"
   xmlns:svg="http://www.w3.org/2000/svg"
   xmlns="http://www.w3.org/2000/svg"
   xmlns:sodipodi="http://sodipodi.sourceforge.net/DTD/sodipodi-0.dtd"
   xmlns:inkscape="http://www.inkscape.org/namespaces/inkscape"
   inkscape:version="1.0 (4035a4fb49, 2020-05-01)"
   sodipodi:docname="mason1 hang.svg"
   viewBox="0 0 1036.3678 1658.6378"
   height="1658.6378"
   width="1036.3678"
   id="svg447"
   version="1.1">
  <metadata
     id="metadata453">
    <rdf:RDF>
      <cc:Work
         rdf:about="">
        <dc:format>image/svg+xml</dc:format>
        <dc:type
           rdf:resource="http://purl.org/dc/dcmitype/StillImage" />
        <dc:title></dc:title>
      </cc:Work>
    </rdf:RDF>
  </metadata>
  <defs
     id="defs451" />
  <sodipodi:namedview
     inkscape:current-layer="g455"
     inkscape:window-maximized="1"
     inkscape:window-y="-11"
     inkscape:window-x="-11"
     inkscape:cy="1379.3469"
     inkscape:cx="240.19996"
     inkscape:zoom="0.29501806"
     showgrid="false"
     id="namedview449"
     inkscape:window-height="1826"
     inkscape:window-width="1080"
     inkscape:pageshadow="2"
     inkscape:pageopacity="0"
     guidetolerance="10"
     gridtolerance="10"
     objecttolerance="10"
     borderopacity="1"
     bordercolor="#666666"
     pagecolor="#ffffff"
     inkscape:document-rotation="0"
     fit-margin-top="0"
     fit-margin-left="0"
     fit-margin-right="0"
     fit-margin-bottom="0" />
  <g
     id="g455"
     inkscape:label="Image"
     inkscape:groupmode="layer"
     transform="translate(-220.72255,-245.07889)">
    <path
       d="m 845.06345,1900.7147 c -52.99624,-8.7118 -106.54224,-27.9405 -162.56664,-17.694 -61.49604,-4.0717 -119.91362,-8.0276 -181.11245,2.295 -43.97006,-5.4611 -45.70508,7.5917 -52.91395,-4.3165 -61.68415,34.4281 57.97729,-45.6975 47.24647,-80.083 30.72167,-76.4911 25.29739,-161.7303 27.80757,-242.7254 -43.78135,-17.3691 -80.72335,-77.3333 -128.03596,-59.4817 -62.91155,-7.4793 -63.55867,-89.2472 -77.84494,-141.7428 -7.24338,-73.5387 -8.47613,-146.7897 -4.64153,-220.5203 8.26117,-42.9564 -46.50796,-19.0189 -35.43112,-70.075 -9.97815,-44.3673 35.90864,-66.87402 20.04212,-110.75175 12.78812,-50.97096 -41.81581,-73.90609 -38.19519,-12.76056 -7.49673,47.75182 8.89492,89.09541 14.02108,138.35821 -3.33717,61.8289 -51.9395,141.0691 10.18349,190.9643 50.7873,15.0325 -26.21309,22.4303 -32.14107,-20.9556 -30.87258,-65.0949 28.31483,-126.9541 9.64686,-192.4488 C 254.793,996.96752 208.7348,946.88777 223.6946,881.96858 c -10.90099,-54.95826 79.1008,-9.01668 52.29606,-65.39728 4.62449,-57.67015 -14.96756,-120.68721 8.851,-174.61181 15.19307,-69.36063 50.4085,-134.56807 106.91422,-178.49481 59.21016,-33.79584 97.25616,-78.6798 139.13029,-130.76965 86.77525,-80.92102 220.1222,-107.32164 332.55364,-72.78868 58.2659,33.89458 120.21612,74.87639 156.89029,131.94104 7.7602,69.25287 80.5615,97.66977 113.5761,154.76463 12.9627,26.8405 30.9794,63.37179 46.8754,55.82018 10.7893,68.77376 9.1473,139.29829 4.2151,208.61538 48.9076,-66.88163 97.5548,20.10439 56.969,67.3333 -35.185,65.75466 -28.6579,139.20052 -18.2048,210.18042 8.4026,53.1718 -1.0501,124.8175 -52.5956,132.894 9.9548,31.1342 -3.0883,71.0232 -4.9511,95.5291 -4.5924,57.2774 -1.5562,87.3833 -14.2934,124.8159 -7.1612,29.1187 -31.9373,18.8687 -42.7621,50.9665 -25.3024,13.6836 -57.9761,4.9106 -85.8368,21.6104 -54.24943,19.5246 -116.31038,48.2081 -94.43166,117.8948 2.10529,71.3707 31.33734,138.8912 61.45104,202.2751 10.27252,25.2802 90.05782,87.493 17.74162,63.9434 -53.50441,-22.1358 -106.93937,8.8255 -163.01919,2.2242 z m 36.62065,-5.48 c 39.75153,-6.5454 82.17171,-19.4776 102.94458,-18.2923 70.34722,41.141 -28.55426,-52.3397 -26.07383,-88.3657 -32.89366,-68.9568 -46.05825,-146.3722 -35.34497,-222.1958 -51.11747,18.5753 -108.1017,36.9325 -165.61636,48.7381 -65.0569,19.347 -117.88769,-2.5218 -172.69433,-34.6601 -67.2014,-39.2177 43.88712,70.3466 -19.32711,23.428 -21.72673,-32.5661 -35.81667,-58.9634 -33.05019,-7.4186 -2.67547,57.6268 -8.40042,114.0217 -4.38805,158.7124 -32.14828,37.0963 97.7184,78.1153 17.43765,57.0678 -27.54751,-56.2355 -61.5955,30.5239 -38.43089,48.26 31.58641,20.8459 -56.753,-15.1349 -25.64988,16.3773 59.14091,5.9099 118.87866,-16.3889 175.20076,-0.3339 62.42099,-8.5358 121.43792,-1.1353 180.70087,12.7385 14.67532,-4.3617 28.23113,18.2425 44.29175,5.9443 z m -354.87164,-41.4406 c -19.44273,-43.401 39.20723,24.4273 0,0 z m 25.66667,-3.8069 c -26.88331,-12.759 -44.63101,-76.5315 -9.04318,-27.6642 10.17703,9.5346 42.42763,44.5366 9.04318,27.6642 z m 13.69785,-52.3787 c -31.79412,-17.8158 -42.77619,-81.9928 -6.57114,-23.8215 5.17649,9.6957 39.88811,30.6126 6.57114,23.8215 z m 12.66628,-38.9284 c -27.49977,-9.8877 -65.11546,-126.6927 -25.08309,-54.4244 -3.36642,16.4791 65.98366,65.7446 25.08309,54.4244 z m 1.48568,-55.8345 c -24.31399,-18.3467 -69.83435,-100.0691 -17.70989,-38.7272 2.45172,13.0923 51.91044,37.6387 17.70989,38.7272 z m -3.04323,-53.6388 c -27.93952,-15.0775 -52.49345,-98.8322 -13.70739,-35.455 1.85181,10.432 50.22004,47.9878 13.70739,35.455 z m -98.21365,212.9716 c 19.19968,-19.4757 32.08027,-73.9979 5.05215,-23.7867 -17.31751,14.2545 -42.75824,50.2438 -5.05215,23.7867 z m 32.00607,-81.5893 c 18.38808,-34.1257 8.01821,-53.3433 -2.9553,-6.2068 -6.40277,19.7837 -7.07946,36.6254 2.9553,6.2068 z m 236.6918,-176.2132 c 53.85601,-5.5881 107.37397,-17.1714 145.32654,-38.4168 48.51972,-21.9866 106.8059,-43.3967 142.34033,-81.9345 4.8321,-49.6846 33.183,-96.3275 48.3566,-142.6284 24.1456,-37.2077 3.6386,-85.8388 23.6903,-124.6157 -6.0661,-50.3599 3.2043,-102.8032 13.3858,-153.6721 19.289,-60.2557 44.067,-115.9132 48.4162,-180.63662 -0.4074,-45.75871 7.6994,-89.34259 9.2679,-142.5209 -15.2531,-16.6096 4.3259,-93.16153 -18.6017,-117.331 -17.0874,-50.20629 -51.4495,-91.92876 -86.3323,-131.53702 -29.9312,-22.78649 -39.6092,-52.64925 -64.3151,-12.13272 -18.17622,8.46724 41.0948,-39.91836 -7.2167,-49.58876 -30.41666,-17.84312 -66.1771,-36.12184 -34.65072,10.8886 36.27012,28.62772 -36.73273,72.33385 -14.1022,46.1962 45.96909,-12.68302 -59.67389,-146.94126 -28.0739,-58.7319 18.32094,76.38875 -15.95561,-13.24794 -28.08538,-38.34066 -80.49515,-36.40876 -171.72999,-26.11316 -257.50034,-23.93114 -64.42385,-10.01403 -73.33816,74.0755 -97.77457,102.51046 -11.57849,-30.99315 89.01828,-119.31976 11.19426,-82.32489 -39.86487,15.30141 -7.6609,124.60767 -33.2444,57.93102 4.70509,-35.68123 39.37777,-73.03518 -17.6083,-39.41022 -50.71832,-6.13625 -38.95403,145.99343 -45.25329,50.68833 48.07067,-73.86887 -38.39024,-0.6283 -49.53953,0.8771 20.34709,-8.1972 -17.60772,67.07311 -8.08926,90.96687 9.05608,33.94863 -13.62646,64.80425 -9.59469,11.16025 0.26972,-27.02576 24.4607,-123.74854 -7.11437,-56.00258 -12.4008,25.64155 -8.92415,134.3813 -28.79649,96.22006 0.21538,-33.81024 31.27884,-137.37278 1.01411,-59.21963 -14.74984,59.14649 -29.0604,116.20302 -24.47634,168.61896 -16.93133,5.99037 2.77961,56.00913 -20.40858,6.06897 -1.11215,-29.46206 -2.73451,-102.3883 -3.91112,-32.0796 -15.86439,44.32143 34.90858,95.84252 18.89576,130.5126 -21.00004,-29.14938 -35.48171,-154.46512 -26.31114,-56.6052 20.36618,55.79619 26.35263,107.76217 44.62848,142.24519 15.04841,-29.94987 27.09897,-67.63108 55.33326,-85.51659 21.7369,-6.52556 56.31326,-20.31458 80.89042,-31.6277 8.27628,-24.89136 42.04764,-29.45066 63.91682,-11.2806 80.11219,-55.31827 94.66144,-160.98745 129.04933,-245.54387 22.10607,-32.15988 33.77835,-148.09084 76.86663,-68.63683 40.8266,55.04789 83.66961,109.45357 112.9936,172.01699 23.68836,41.25873 78.43305,94.06725 87.37773,125.90685 -132.1779,14.02015 -265.87079,3.1024 -398.17993,16.03636 47.47737,35.56975 72.21336,87.92078 106.91682,135.64748 40.11344,52.52922 66.40167,117.10654 53.41669,184.22204 2.56707,47.7945 -28.88815,101.0876 -71.00789,49.5966 -23.47384,33.9535 -26.52458,152.0817 40.5979,109.0633 -49.97331,-15.7221 33.96728,-72.5 23.83169,-10.4068 -1.41541,69.9675 81.92135,83.3427 79.96723,5.2042 4.32771,-52.7662 55.55613,-19.2859 22.57965,-0.6276 79.93946,43.0412 75.39885,-72.1401 41.80324,-91.1979 -15.03272,-67.0387 -74.24554,58.2534 -76.26033,-20.3271 -4.935,-66.4807 -17.50315,-138.47275 16.90129,-199.74812 30.92163,-48.46582 44.03713,-119.66955 90.78201,-150.02952 -10.48546,33.02425 37.76631,-40.36849 29.11773,3.81142 28.80658,-16.2796 76.61184,-28.22343 98.50562,-27.1152 28.426,-12.49031 57.8635,-2.07593 101.7182,-4.76142 37.4171,13.73138 63.3376,52.19173 18.0855,87.31208 -36.9056,5.80426 -84.9465,-45.95198 -137.90469,-26.95987 -55.24002,11.192 -116.83821,16.24956 -158.94485,59.39751 -25.50583,26.45225 -43.41976,70.51181 -6.01596,22.1932 -52.7208,52.59307 -50.37326,126.42372 -43.09472,194.89762 2.48702,35.3157 10.57179,77.2117 44.98078,33.9578 53.50741,-14.8034 85.69884,131.4316 16.01673,133.3423 -40.22024,-4.5178 -58.48466,-7.9252 -72.43163,37.5512 -49.31378,67.6886 -63.77338,-87.258 -117.14228,-25.6601 -67.00689,-0.373 -56.2869,-145.4739 -2.2647,-135.9882 66.62727,44.526 42.34049,-69.8149 46.38933,-103.5629 1.47628,-49.34025 -35.04364,-97.88793 -65.35271,-137.49432 -34.6133,-66.0159 -122.63477,-53.9544 -181.49198,-32.91843 -61.16331,28.20467 102.22735,-23.34287 15.68855,5.91757 -55.94481,11.33778 -86.70194,59.432 -110.13178,100.00706 5.64492,-59.40342 85.08071,-112.85669 144.55347,-131.9412 41.19751,-15.87509 88.85886,4.44785 101.48298,3.7278 -24.74862,-30.19385 -61.93558,-59.35738 -92.52875,-67.4576 -17.35929,26.31224 -62.39057,19.55199 -70.24276,54.287 -13.22447,-22.76377 -15.95805,22.24949 -33.71133,-7.6763 -4.04691,30.00303 -29.01401,13.56945 -35.72362,44.1003 -15.38599,31.49167 -15.76819,49.58865 -39.24951,65.87598 6.52973,34.8636 42.99124,116.19464 64.04774,113.72834 22.61969,13.5917 18.61233,34.1935 28.44666,53.3278 -37.7956,2.5634 -53.20189,-47.0239 -72.2102,-82.5364 -10.90723,-26.68896 -42.3707,-75.74711 -16.04045,-20.7574 33.12835,52.9481 42.8502,108.1587 91.67797,145.0993 66.59437,43.0319 -46.28942,1.9291 -50.19529,-33.7936 -19.48582,-24.631 -70.91628,-116.45189 -36.78253,-43.4959 14.21318,42.5499 61.20426,81.9289 69.36923,113.0671 14.49278,22.8346 83.53804,42.0354 18.72844,30.9761 -22.94444,-10.6715 -74.60827,-93.6299 -37.52452,-25.8379 6.84709,28.8385 109.69585,96.1465 36.87843,58.8281 -29.61718,-19.594 -63.99952,-90.4936 -43.97187,-14.7525 3.48723,36.6621 27.4779,68.8936 22.89055,97.4736 4.24273,43.8632 18.97477,84.2207 8.16064,128.6121 18.80186,49.1177 76.74129,97.5001 134.58702,106.0484 33.81387,7.4794 64.50054,34.1817 108.24714,49.9839 28.91702,8.5643 60.34335,4.5972 90.0914,3.2102 z m -50.48422,-99.1788 c 19.2132,-40.4504 114.7979,-53.1872 115.75469,-13.6982 -36.09016,-14.587 -81.90609,-5.4397 -115.75469,13.6982 z M 549.51622,1490.506 c -16.09876,-48.4375 -28.44866,-101.4255 -9.56384,-151.902 9.98558,-43.8145 48.56443,-104.6682 8.05544,-65.2231 27.45208,-49.9484 69.80085,-10.5429 84.27789,7.6948 -40.99736,-17.3872 -72.60264,-15.1942 -77.52843,41.5966 -16.81907,54.4997 -7.9671,120.7496 3.21737,170.0277 l -4.51776,3.0143 z m 34.32464,-230.5321 c 8.78708,-17.18 -37.34347,32.8958 0,0 z m 350.65812,224.721 c 24.16748,-22.2355 14.38949,-107.445 4.31426,-30.94 -12.37022,36.7684 -30.21639,45.2483 -7.94376,2.626 20.43681,-65.3442 -14.51851,-127.3214 -13.46136,-193.218 -6.31185,-45.4206 -82.93368,64.3813 -34.20022,4.8847 47.97791,-30.5429 5.79204,-40.177 -13.0538,-4.7983 -33.23303,29.6884 55.33778,-84.0894 56.96748,-10.2017 6.2379,70.161 44.07891,141.6133 24.8747,211.5543 1.28523,3.5677 -32.67875,42.8676 -17.4973,20.093 z m -324.9872,2.1814 c 24.4642,-49.7359 19.11164,-133.5605 94.43365,-119.8919 55.58437,-4.1793 150.33679,-50.1621 171.24422,25.4744 11.79675,25.3885 11.22938,124.8183 -1.16451,49.9221 -2.66978,-41.5043 -17.72345,-105.7707 -65.78613,-60.3131 -48.41819,39.0903 -123.97913,2.2989 -161.49894,15.6207 -13.99732,28.3799 -11.35477,68.485 -37.22829,89.1878 z m 148.4406,-94.3707 c 33.08648,-7.2684 126.92913,-46.1198 39.78836,-18.5612 -32.23518,9.6925 -154.59247,15.4015 -61.54911,21.0215 l 12.8998,-1.0001 z m -105.39028,-8.6992 c -0.48668,-6.5668 -4.25011,4.4357 0,0 z m 85.48404,-6.7275 c 29.01516,-1.4234 119.29042,-21.1438 43.92683,-17.5932 -29.59564,7.945 -156.60466,22.1607 -64.63297,19.2212 l 9.49156,-0.4593 z m -49.1438,-49.1818 c 5.91089,-50.3077 27.2809,-40.0311 4.13915,1.3948 l -6.21856,5.089 z m 120.05813,-20.8962 c -38.93155,-44.8285 9.36939,-30.2689 10.93939,1.4359 l -4.72536,2.9578 z M 537.95238,1160.1971 c 32.29941,-20.8487 66.63389,-85.4084 60.68702,-102.5377 -21.39826,27.8968 -106.02375,93.1757 -38.44782,34.4706 31.8133,-20.7513 67.80311,-85.6845 12.16432,-37.4764 -27.24357,26.4219 -137.09211,51.0059 -45.15473,18.0109 64.14057,-13.4195 112.96722,-72.79336 36.51849,-111.84263 17.40376,93.86103 -132.28753,89.73133 -90.824,-5.35899 49.35781,-63.26675 -44.59718,22.8084 -52.20285,46.68702 -49.05426,59.1923 25.07834,-44.68023 46.40805,-62.20149 59.74401,-54.29337 117.57319,26.12592 156.45277,65.77149 -5.82208,62.5664 -37.83559,124.3469 -90.221,160.1614 z m -9.57901,-134.0326 c 80.83201,-41.54288 -39.89436,-130.3841 -42.79576,-75.12612 67.56791,-58.04325 71.16136,96.50562 4.42952,37.61221 -11.3694,-30.25759 22.31591,-44.62364 9.72783,-4.83468 64.03879,46.02099 21.21388,-80.257 -15.53572,-24.1994 -20.24026,28.92226 7.20771,78.30839 44.17413,66.54799 z m 188.91234,134.3047 c 27.57551,-23.3467 69.18314,-5.2883 14.72409,-1.9278 1.88158,-5.9979 -23.68861,11.7892 -14.72409,1.9278 z m 5.23762,-11.9908 c 43.32706,-20.1677 -17.68915,-10.0627 29.25897,-22.0657 17.80968,6.4602 -20.04836,18.503 -27.27608,23.4569 l -6.62791,4.2694 z m 195.63695,-46.106 c -36.75341,-23.714 -106.93525,-74.9252 -82.38899,-117.09672 34.95625,-43.41901 97.4315,-123.21074 156.42359,-74.3648 18.77022,15.89983 75.06632,76.88556 55.02672,81.1778 -19.4556,-22.75206 -82.20995,-114.45732 -59.70472,-44.3744 -2.37248,87.61472 -140.3187,31.72545 -86.8995,-25.9885 -31.69076,26.91204 -106.42273,84.87812 -17.99833,85.32172 38.61319,3.8269 70.64302,30.6733 17.3024,15.8321 -25.98267,-8.6976 -78.99527,-27.01241 -26.06395,1.86 24.40613,15.3458 96.17731,42.0753 25.39956,25.9532 -26.25452,-15.9661 -71.29142,-41.8627 -28.67779,1.0913 6.58408,13.35 105.79128,71.3073 47.58101,50.5883 z m 40.1154,-115.86602 c 30.59132,-10.81447 24.54232,-75.3938 -0.6301,-24.9495 -55.47146,28.85195 -39.34325,-69.69062 -5.8403,-34.3316 -62.64078,-8.34601 18.69576,63.81443 13.6678,5.4058 -39.32124,-66.60945 -107.15379,42.77479 -30.1874,53.8425 l 12.39725,2.29136 10.59275,-2.25836 z m -23.3233,-83.6752 c -7.34237,-2.16407 -1.33255,2.3336 0,0 z m 15.3036,-1.4233 c -20.53458,-1.81056 -4.30179,1.85178 0,0 z m -66.97027,84.973 c 4.78453,-5.07616 1.65561,5.25655 0,0 z m 85.41997,547.85992 c -6.41859,-0.5704 -6.10154,7.5355 0,0 z m 36.93162,-16.8484 c 32.0397,-9.9549 45.1152,-35.4981 6.459,-6.4137 -13.39972,5.9516 -37.85891,24.5075 -6.459,6.4137 z m 86.9818,-21.6781 c -1.6122,-4.8749 -3.2886,4.7496 0,0 z m -13.2588,-6.6079 c 45.0441,-10.3082 55.5906,-54.7673 71.5014,-106.0588 -3.869,-49.963 18.5437,-76.9976 4.108,-116.218 -9.1108,-46.1162 -0.5672,-51.9882 -0.017,-111.3391 -2.0719,-26.9832 -36.5425,-67.0995 -32.2383,-54.3377 8.9148,57.0053 -12.555,72.2392 1.5877,121.5981 17.4262,30.9311 -22.9277,-7.1826 -10.3984,34.9176 2.2707,27.5832 -4.6763,99.7353 -16.7543,77.1993 5.636,52.7866 -33.0512,84.051 -39.8321,111.7476 -1.7098,23.0399 -0.3502,43.4189 22.043,42.491 z m -674.47676,-8.2771 c 0.58789,-46.755 -9.89866,-112.7965 -11.63672,-167.8544 -10.6367,-23.8497 -6.78732,-79.2394 -35.10324,-101.0527 28.03811,-56.9593 -12.69109,-118.6716 -38.92552,-170.412 -16.28173,-53.86355 -2.55158,94.04 0.11304,77.5824 9.75117,65.3743 -1.18361,134.4564 15.50158,197.1874 -11.10208,50.9919 20.06535,89.0753 19.5136,136.7397 21.18761,3.3843 24.06355,42.6319 50.53726,27.8096 z m 25.74403,0.285 c -17.38148,-12.1903 12.10967,13.477 0,0 z m 683.99153,-0.8907 c -4.9038,-4.8596 -1.599,8.6532 0,0 z m 27.8549,-34.5115 c -3.9002,-31.7653 -11.5358,5.0549 -1.9321,10.7613 l 1.0942,-1.0667 z m -63.1543,-73.7768 c 5.6718,-50.981 -9.8702,52.3529 0,0 z m -667.91599,0.6058 c -8.32965,-34.6729 -3.48121,37.3216 0,0 z m 670.79279,-21.0768 c -2.5666,0.5784 1.91,5.8445 0,0 z M 809.55041,1230.9107 c 15.49586,-19.2033 -39.6466,15.2318 0,0 z m -129.59803,-10.1675 c -5.86185,-10.0362 -6.47747,18.4636 0,0 z m -310.66667,-2.2836 c -2.53013,-6.7139 -4.14144,4.8356 0,0 z m 829.55099,-13.6945 c 35.1275,-58.4624 8.6377,-136.1974 6.7922,-201.7175 -18.7846,-72.06204 80.6478,-149.58574 21.2407,-208.83472 -45.5915,-18.81669 -63.0735,106.4127 -18.0166,68.8694 22.2218,31.75923 -34.901,-12.04385 -21.0431,34.31237 -12.0222,46.69124 26.6487,30.82541 12.1008,82.78676 -13.1234,62.18049 -18.9244,124.81039 -25.4718,189.69549 -4.4884,14.9816 2.2291,46.8924 24.3978,34.8882 z m -32.8401,-87.7354 c 1.1244,-12.5043 -9.4963,22.6313 0,0 z m -10.6169,-0.5254 c 18.6404,-46.5567 13.1957,-94.1245 15.9726,-143.33412 -2.693,-8.28567 -6.7811,62.02862 -22.5316,82.36862 1.6128,11.7681 -16.7799,82.1103 6.559,60.9655 z m -848.07788,-15.4828 c 2.03133,-27.0949 -14.82328,-125.98781 -20.94942,-49.4113 2.77377,15.1483 -4.51546,54.0563 20.94942,49.4113 z m 831.99328,-50.1181 c 8.0513,-87.55722 -13.9051,94.2108 -1.7049,17.9477 l 0.8534,-9.1266 z m 51.3056,-55.18912 c 6.562,-31.56085 -0.6322,-81.04985 -5.6635,-16.37806 -7.4023,32.04518 4.4619,73.81348 5.6635,16.37806 z m -42.1173,4 c 4.3228,-15.89658 2.0614,4.39092 -2.8049,8.00002 z m -829.86435,-21.9213 c -2.36917,-9.04954 -4.12215,7.20778 0,0 z m -68.80584,-21.7454 c -8.8794,-42.31159 76.98194,-85.67745 -0.16369,-99.56577 -39.49943,-25.19609 -7.87014,163.96059 0.16369,99.56577 z m 919.47249,-12.2899 c 7.1707,-40.20847 -8.9564,14.15369 0,0 z m -787.70099,-21.925 c 8.2781,-13.02529 -18.4996,21.41707 0,0 z m -51.6945,-17.6787 c -9.95517,-23.6068 -52.76508,-119.07918 -30.44051,-50.0385 9.43566,6.12151 15.65597,70.91319 30.44051,50.0385 z m 94.6938,-26.5734 c -4.89519,-1.7866 -23.80152,22.11835 0,0 z m 427.3757,-25.3604 c 63.01724,-40.42777 146.90431,-61.62198 220.20769,-40.9309 35.6312,14.27653 67.1938,45.5055 75.5676,-11.88831 -14.8114,-30.52487 -42.9248,-43.44325 -88.5527,-40.27749 -30.6825,2.70075 -43.5568,1.19525 -69.03672,3.2159 -25.2156,3.93006 -81.33413,36.30409 -90.2863,19.0328 -25.56168,10.87678 -54.44358,26.98497 -67.37891,78.68572 -18.9267,27.90436 13.60139,-6.57996 19.47934,-7.83772 z m -377.34066,-2.5059 c 9.41498,-11.8537 -12.54783,12.03509 0,0 z m -168.68836,-32.1698 c -8.50543,-28.15844 -21.53674,-57.41832 -7.71471,-12.34886 6.28404,22.78985 23.01797,49.4003 7.71471,12.34886 z m 323.35502,-61.2778 c 103.14715,-5.2182 206.74742,-0.17149 309.64127,-9.7061 -39.48255,-19.32197 -59.78529,-118.74149 -96.60504,-106.4014 -34.69424,56.75292 -111.96635,68.62779 -167.96609,38.2218 -54.29615,-59.98189 -75.44644,61.32625 -107.16217,81.25356 20.68187,-1.38431 41.39221,-2.3011 62.09203,-3.36786 z m -332,-70.0924 c -6.87169,-8.87645 -5.68392,17.80092 0,0 z m 432,-0.6564 c -33.30954,-21.9017 -19.699,-94.5884 0.0914,-90.06856 -6.99874,25.0797 26.0107,-14.92981 16.53289,8.26496 35.15879,-26.63355 -12.18269,23.69361 31.81528,0.5556 0.88176,-28.03748 -93.75799,-26.61904 -71.58352,-0.10652 6.68788,24.6509 -46.84871,-30.81887 -34.88388,21.96752 39.98318,-18.66924 26.85269,19.0561 -0.76358,5.76874 -8.84638,27.08923 67.62318,16.05199 4.45811,23.07806 -11.61981,29.24807 49.21078,-9.34827 10.49936,16.2705 19.77174,12.50324 25.59967,-12.86828 20.44729,8.9758 7.60738,2.07921 15.1014,6.99144 23.38668,5.2939 z m 37.10142,-3.1986 c -8.5985,-24.65069 -18.61183,20.0347 -21.66304,-20.8504 -43.19075,18.18154 30.13248,34.43093 21.66304,20.8504 z m 21.46848,-6.4691 c 23.99484,-33.27618 -23.51203,-77.44335 -18.0793,-53.4914 15.59393,-3.23564 -26.24826,20.84869 13.43626,29.134 7.63949,17.52164 -41.23003,-14.39664 -26.48026,5.4539 11.72304,-13.28492 18.98671,45.50818 31.1233,18.9035 z m 12.04288,1.2249 c 52.14273,-23.07595 36.37807,-70.40717 -13.27944,-80.6689 22.71263,19.29181 5.58119,77.15196 13.27944,80.6689 z M 660.4533,654.71428 c 2.64448,-31.1022 14.50698,-72.99564 -11.09475,-21.1331 -24.52501,6.92527 18.22498,39.86178 11.09475,21.1331 z m 83.67047,-8.6667 c 3.55607,-8.55996 -7.55265,9.97189 0,0 z m -101.9888,-11.2925 C 679.1912,558.20665 794.58146,562.4266 845.28571,622.38098 821.18691,561.015 772.93324,507.87013 734.17059,453.20859 c -33.93696,-52.31645 -36.70277,60.50218 -58.38925,79.24537 -9.14676,26.64309 -35.01108,99.83737 -33.64637,102.30112 z m -314.63288,-4.7075 c -2.33365,1.3326 2.16411,7.34258 0,0 z m 1.39126,-14.6666 c -2.04213,2.60193 2.00527,13.30196 0,0 z m -15.56193,-11.4662 c 21.00978,-53.6959 2.92494,-38.2412 -6.76233,2.6883 -9.79809,24.649 6.08631,11.38101 6.76233,-2.6883 z m 450.62096,10.9902 c -5.34397,-2.3668 -5.20552,4.34748 0,0 z m -428.54315,-34.947 c 10.25834,-30.53471 18.85097,-72.74894 1.17172,-17.62914 -6.4632,23.5341 -9.71412,67.74228 -1.17172,17.62914 z m 1.3981,-41.887 c 30.58095,-37.06394 17.35456,-30.5515 -3.68493,2.35164 l -1.95111,5.95836 z m 21.95196,-34.69 c -20.92829,10.3642 -23.58635,30.30899 4e-5,0 z m 17.19309,-10.3334 c 3.26926,-9.46359 -6.33938,9.56836 0,0 z m -1.46317,-7.2409 c -5.72213,4.65121 -3.76113,7.26348 0,0 z m 11.54705,-12.9864 c 12.02984,-12.95129 -14.74293,12.49603 0,0 z m 633.53324,-50.106 c -12.6229,-64.39675 -79.75752,-90.6583 -122.44201,-132.44384 -91.27796,-59.14248 -213.34222,-42.45526 -306.7727,3.12005 -42.88413,22.94992 -96.75814,66.74609 -104.03326,109.90439 68.71653,-8.6701 99.72454,-80.10199 164.95676,-97.09444 77.50825,-35.76718 171.09977,-28.11965 242.00742,18.33074 41.06996,29.29907 42.65427,90.70105 106.66139,90.01694 4.7397,-1.70555 22.8749,27.01717 19.6224,8.16616 z m -100.94762,-53.6602 c -31.18481,-56.88897 -106.33283,-72.32172 -165.91965,-78.159 -73.74522,3.63728 -152.73525,28.50626 -199.63685,88.758 64.53785,-14.50573 108.5726,-74.81824 177.55367,-78.6669 66.88769,-13.57341 135.24985,22.62025 174.03663,76.3582 12.77147,4.95538 29.12357,16.23816 13.9662,-8.2903 z m -37.81137,-3.5418 c -55.0414,-62.88736 -152.47138,-76.96855 -223.95138,-34.56332 -23.95214,8.69063 -80.3703,47.01951 -19.65235,28.11851 82.35734,-5.93636 167.70534,-10.76924 247.94317,13.21881 z"
       style="fill:#000000;stroke-width:1.33333"
       id="path459" />
    <path
       id="path471"
       d="m 855.88919,1892.8133 c -6.05895,-2.7845 -13.37346,-5.0841 -16.25443,-5.1102 -2.88099,-0.026 -12.79564,-1.6308 -22.03255,-3.566 -47.33331,-9.9167 -109.19587,-14.3376 -144.31996,-10.3135 -12.50296,1.4324 -17.98075,1.305 -27.11699,-0.6311 -15.46536,-3.2773 -56.19384,-3.1633 -88.74915,0.2484 -14.34583,1.5034 -36.92727,2.8381 -50.18099,2.9659 -22.6175,0.2182 -24.32361,0.01 -27.77617,-3.4397 -4.70916,-4.701 -3.19881,-9.0687 3.09482,-8.9497 2.59265,0.049 10.43391,1.1153 17.425,2.3694 6.9911,1.2542 13.31854,1.9098 14.06098,1.457 0.74243,-0.4529 -1.65062,-4.0785 -5.31791,-8.0571 -4.46367,-4.8425 -7.05007,-9.4964 -7.82428,-14.0789 -1.44372,-8.5453 1.15441,-23.081 5.94853,-33.2801 3.87011,-8.2333 13.54972,-17.9867 17.85059,-17.9867 5.05728,0 11.79259,4.8721 15.95757,11.5433 2.95564,4.7341 6.09286,7.3472 10.37349,8.6403 9.12883,2.7576 21.83377,4.2173 21.78672,2.503 -0.0227,-0.8258 -6.866,-5.9479 -15.20742,-11.3825 -17.47284,-11.3839 -31.59715,-25.825 -33.10155,-33.8441 -0.56333,-3.0029 -0.10573,-7.7398 1.01686,-10.5265 1.33514,-3.3143 2.23913,-19.4283 2.61365,-46.5897 0.77421,-56.1479 5.97175,-144.4211 8.55415,-145.2807 2.67078,-0.889 7.41155,4.4682 19.26909,21.7746 6.96197,10.1612 12.53362,16.2355 18.26612,19.914 14.93162,9.5816 15.87531,6.5419 3.61837,-11.6551 -17.33097,-25.7299 -18.12825,-30.872 -3.61284,-23.3011 66.02277,34.4355 79.11627,39.8168 108.78753,44.7101 23.56955,3.8871 43.72042,2.3747 80.50354,-6.042 42.28985,-9.6768 78.36725,-19.9038 121.7777,-34.5208 l 37.03712,-12.471 -1.0466,6.0673 c -0.57561,3.337 -1.52126,17.1259 -2.10141,30.642 -2.23364,52.0374 7.83577,109.9883 27.43285,157.88 4.32734,10.5753 9.22694,24.2783 10.88801,30.4511 4.24825,15.7873 11.20585,28.7555 32.42764,60.4414 10.16673,15.1797 18.48493,28.717 18.48493,30.0829 0,3.7333 -3.5661,3.0389 -14.58246,-2.8398 l -9.9752,-5.323 -15.26185,2.0391 c -8.39401,1.1215 -32.42181,5.8526 -53.3951,10.5135 -50.32209,11.1832 -46.44921,10.8603 -59.3184,4.946 z M 540.65425,1856.373 c 0,-4.835 -11.55227,-17.8669 -15.83829,-17.8669 -6.28761,0 -1.16469,15.4461 6.36978,19.2055 7.4247,3.7046 9.46851,3.4156 9.46851,-1.3386 z m 27.11698,-3.9313 c 0,-1.6569 -1.28559,-4.8983 -2.85688,-7.203 -5.31877,-7.8015 -34.62077,-40.3398 -37.22881,-41.3406 -6.97159,-2.6753 -6.70409,5.4306 0.66669,20.2021 6.48371,12.9937 14.76892,22.1169 24.48029,26.9563 10.39593,5.1805 14.93871,5.6017 14.93871,1.3852 z m 13.5585,-55.4376 c 0,-1.3867 -3.89009,-6.1534 -8.64464,-10.5926 -4.75455,-4.4392 -12.4016,-13.5963 -16.99344,-20.3493 -12.47299,-18.3431 -21.8114,-22.7677 -19.28367,-9.1367 2.52878,13.6367 18.94036,37.0008 28.80046,41.0014 6.05479,2.4567 16.12129,1.8804 16.12129,-0.9228 z m 11.06233,-38.2287 c 1.4754,-2.3873 -1.64975,-6.8035 -16.13811,-22.8054 -13.27878,-14.666 -22.03169,-27.0716 -22.05731,-31.2622 -0.0259,-4.2408 -13.21138,-23.8192 -16.04153,-23.8192 -3.59456,0 -3.2421,4.2544 1.50993,18.226 8.78427,25.8268 27.49402,55.8255 37.28882,59.7879 5.02927,2.0345 14.14865,1.9594 15.4382,-0.1271 z m -1.15041,-57.3544 c 3.9621,-2.5109 1.524,-6.4979 -14.14895,-23.1375 -8.38932,-8.9068 -20.03267,-21.2561 -25.87413,-27.443 -7.42885,-7.8681 -11.15652,-10.7131 -12.40331,-9.4663 -1.24679,1.2468 -0.99871,3.6583 0.82543,8.0241 4.09193,9.7934 19.88515,33.0695 29.70385,43.7777 7.27832,7.9376 9.92578,9.7403 14.27376,9.7192 2.93594,-0.014 6.36645,-0.6777 7.62335,-1.4742 z m 0.25694,-51.5093 c 0,-3.028 -4.41143,-9.3169 -12.40785,-17.6886 -3.75234,-3.9285 -11.83827,-14.5565 -17.96873,-23.6178 -11.04035,-16.3185 -15.73398,-21.1456 -18.1812,-18.6984 -1.93204,1.932 2.30016,15.8989 8.82419,29.1211 6.94697,14.0793 17.99486,27.5084 25.21901,30.6545 6.69695,2.9165 14.51458,3.04 14.51458,0.2292 z"
       style="fill:#c8b7b7;stroke-width:1.69481" />
    <path
       id="path473"
       d="m 679.62879,1604.4962 c -20.86225,-2.4798 -35.76515,-8.6143 -83.89317,-34.5329 -23.8512,-12.8448 -34.05606,-16.7535 -59.59735,-22.8274 -35.49269,-8.4404 -75.31553,-35.1545 -99.52762,-66.7656 -9.83083,-12.835 -21.84953,-34.6122 -20.39824,-36.9605 0.4488,-0.7262 1.44844,-8.1742 2.22142,-16.5512 1.63207,-17.6872 -0.0834,-41.5891 -5.05562,-70.4418 -1.93569,-11.2323 -4.1386,-29.6451 -4.89536,-40.9173 -1.23465,-18.3906 -2.3477,-23.4136 -10.84021,-48.9195 -5.20536,-15.6335 -10.59494,-34.248 -11.97685,-41.3656 -1.3819,-7.1177 -3.65377,-18.2707 -5.0486,-24.7845 -1.39482,-6.5139 -1.90005,-12.4793 -1.12273,-13.2567 0.77732,-0.7773 5.89633,3.771 11.37558,10.1073 23.43399,27.0995 31.68556,34.6828 45.09198,41.4401 12.57246,6.337 18.25684,8.0075 18.25684,5.3652 0,-0.6799 -12.83723,-13.8359 -28.52717,-29.2355 -26.07096,-25.5885 -29.06781,-29.1491 -34.80625,-41.3539 -3.45349,-7.3451 -5.96325,-13.6705 -5.57725,-14.0565 0.38601,-0.386 5.68706,5.2752 11.78012,12.5804 12.9826,15.5653 25.02298,27.017 30.65856,29.1597 2.20473,0.8382 9.54388,2.0695 16.30921,2.7361 16.11244,1.5877 15.41517,-0.6622 -3.69739,-11.9303 -22.83161,-13.4608 -25.9562,-16.4287 -33.55022,-31.8672 -3.77213,-7.6687 -15.67056,-25.7643 -26.44097,-40.2126 -10.77041,-14.4483 -22.56941,-31.2469 -26.22,-37.3303 -6.63964,-11.0644 -20.77882,-42.3722 -19.64714,-43.5039 0.33011,-0.3301 6.55878,8.7612 13.84147,20.203 7.28269,11.4417 16.40384,25.3791 20.26921,30.972 3.86538,5.5929 8.09898,12.8326 9.408,16.0883 5.10572,12.6984 24.6521,29.0076 47.53845,39.6655 15.69568,7.3092 23.57694,9.1365 23.57694,5.4663 0,-2.6295 -2.47807,-4.803 -21.48499,-18.844 -20.63173,-15.2413 -35.76349,-35.2348 -53.20049,-70.2935 -11.33576,-22.7915 -12.78549,-30.2526 -1.76316,-9.0741 12.79657,24.5875 30.14136,39.4735 46.04432,39.5172 l 6.03412,0.017 -6.15386,-18.4765 c -3.38462,-10.1621 -7.53908,-20.6487 -9.23214,-23.3037 -4.083,-6.4026 -11.2129,-12.3172 -14.93934,-12.3928 -4.55075,-0.092 -17.29609,-12.6989 -24.71486,-24.4456 -13.35122,-21.14021 -27.31687,-52.30042 -33.95744,-75.766 l -3.46023,-12.22729 7.26949,-6.39884 c 8.67544,-7.63643 14.74841,-18.6534 26.54881,-48.16217 4.84588,-12.1179 10.4343,-23.80088 12.41871,-25.96219 1.98441,-2.16131 7.99104,-6.26579 13.34807,-9.12105 7.43088,-3.96061 10.41334,-6.71742 12.57994,-11.62814 l 2.83989,-6.43674 3.23907,4.1178 c 4.32637,5.50009 8.95226,5.18895 16.09514,-1.08258 l 5.92291,-5.20039 3.84376,3.61103 3.84376,3.61102 3.76535,-7.77817 c 4.86208,-10.04373 11.23791,-14.75566 32.38987,-23.93708 20.37975,-8.84622 27.42068,-12.98258 31.54404,-18.53127 l 3.03988,-4.0907 9.76623,4.00257 c 22.15849,9.08139 56.51924,34.50719 72.61681,53.73398 7.27191,8.68549 7.31152,8.80087 2.61728,7.62269 -57.04171,-14.31655 -82.59579,-11.89605 -132.45504,12.54621 -53.45843,26.20669 -92.88902,64.72514 -104.39332,101.97842 -5.60746,18.15811 -3.40042,18.82093 6.81267,2.04601 17.78256,-29.20774 31.31274,-45.81591 49.04332,-60.20018 15.90795,-12.90562 26.25346,-18.03069 53.96089,-26.73172 12.30444,-3.864 22.88659,-7.85855 23.5159,-8.87681 0.73691,-1.19232 0.0136,-1.50284 -2.03394,-0.87229 -7.99622,2.46338 -45.73858,11.23976 -48.04815,11.17283 -10.08336,-0.2922 33.03093,-14.65038 58.95092,-19.63217 19.4811,-3.74425 53.15571,-3.73428 68.79459,0.0203 24.72392,5.93581 44.69475,19.55427 57.94148,39.51131 3.48891,5.25626 12.77285,18.365 20.63098,29.13054 24.62651,33.73802 37.37679,57.72832 44.40628,83.55262 2.97134,10.91585 3.43043,18.68225 3.83866,64.93785 0.51897,58.8009 -0.1344,63.6451 -9.90198,73.4127 -5.14396,5.1439 -6.55718,5.7061 -12.08786,4.8086 -3.44457,-0.559 -9.97737,-2.9435 -14.51733,-5.2989 -27.87322,-14.4611 -50.77477,10.6877 -53.22838,58.4516 -2.05871,40.0763 13.97489,69.9808 39.57956,73.8205 6.8087,1.021 7.94371,0.6301 13.96426,-4.8091 8.36442,-7.5568 16.69691,-10.4576 23.07416,-8.033 8.83534,3.3592 14.12721,8.5025 29.49698,28.6689 8.45668,11.0958 17.95854,21.7704 21.11523,23.7214 15.17788,9.3805 32.61919,-0.059 40.68559,-22.0202 5.17326,-14.0843 12.3281,-23.4951 20.6676,-27.184 6.76069,-2.9906 10.63833,-3.3218 33.4404,-2.8564 24.69162,0.5039 26.0995,0.3508 32.9726,-3.5859 14.70715,-8.4239 21.2243,-23.4965 21.30533,-49.2743 0.13778,-43.8456 -22.04008,-81.3509 -48.10499,-81.3509 -6.18783,0 -8.26761,1.1329 -17.11222,9.3214 -15.11001,13.9892 -21.6177,12.6387 -28.68167,-5.9521 -6.98534,-18.3839 -12.15448,-96.6221 -8.46958,-128.19246 4.29434,-36.79176 15.93444,-66.80743 34.31211,-88.4787 5.70015,-6.72171 9.96807,-12.61714 9.48427,-13.10094 -0.4838,-0.4838 -4.90039,3.74312 -9.81467,9.39319 -4.91426,5.65006 -9.24926,9.95859 -9.63334,9.57453 -2.7119,-2.71192 17.52818,-32.35616 30.26369,-44.32507 26.83976,-25.22422 53.4895,-36.15912 122.65491,-50.32773 68.40472,-14.01277 65.94692,-14.25936 132.19532,13.26326 11.0452,4.58871 18.5262,6.54871 27.117,7.10463 l 11.8636,0.7677 8.9768,-9.49676 c 10.9885,-11.62544 13.9032,-18.24558 13.9032,-31.57864 0,-16.92778 -10.7735,-32.33697 -29.8065,-42.63197 -8.1678,-4.41793 -9.1358,-4.52687 -50.697,-5.70579 -35.6385,-1.01088 -44.1206,-0.77941 -53.3866,1.45693 -6.059,1.46232 -19.02427,3.79868 -28.8118,5.1919 -24.34619,3.46562 -41.61208,8.59926 -75.72528,22.51525 -1.24813,0.50916 -2.20461,-1.30734 -2.54222,-4.82807 -0.8513,-8.87795 -5.65676,-8.1512 -18.25763,2.76117 -5.96362,5.16449 -11.36598,9.38998 -12.00525,9.38998 -0.63928,0 -0.77234,-2.04006 -0.29569,-4.53347 l 0.86662,-4.53348 -5.54328,3.94716 c -20.89796,14.88067 -34.47094,36.34095 -62.1936,98.33442 -6.87792,15.38042 -16.25572,34.46657 -20.83956,42.41366 -11.18182,19.3861 -17.69519,36.18702 -22.3227,57.58022 -3.39055,15.67472 -3.83476,22.34008 -3.72736,55.92878 0.14694,45.9603 5.50863,109.6501 9.77957,116.1684 4.75889,7.263 11.8914,5.6928 28.23418,-6.2155 7.834,-5.7083 17.53237,-11.8663 21.55192,-13.6844 6.86878,-3.1069 7.56628,-3.1366 11.59851,-0.4946 2.35962,1.5461 5.86183,6.364 7.78269,10.7064 1.92085,4.3424 5.66317,9.923 8.31622,12.4013 15.92945,14.8804 21.8647,56.1009 11.10393,77.1173 -8.14841,15.9143 -21.42455,20.485 -41.65394,14.3405 -12.28119,-3.7303 -15.55848,-5.9158 -11.31381,-7.5446 3.90639,-1.499 7.90199,-10.7556 6.70362,-15.5303 -2.33999,-9.3232 -15.80188,-14.1382 -23.82222,-8.5205 -5.99414,4.1985 -9.56121,14.3707 -10.99829,31.3641 -2.89023,34.1767 -20.11846,52.2827 -43.73729,45.9656 -14.17691,-3.7917 -26.70499,-16.9076 -31.46716,-32.9435 -1.45255,-4.8913 -2.5255,-15.2497 -2.5255,-24.3816 0,-16.496 -2.31039,-24.4506 -7.70258,-26.5198 -13.35944,-5.1265 -34.66771,9.0117 -34.66771,23.0022 0,4.8278 4.18549,10.225 11.11589,14.3341 3.00875,1.7838 2.63803,2.2515 -4.33665,5.4709 -20.72517,9.5662 -36.81181,-0.7191 -42.41414,-27.1186 -4.30306,-20.2769 -0.19109,-57.6138 8.51185,-77.2882 l 3.26117,-7.3724 7.18798,6.9757 c 13.33405,12.9402 25.24281,16.2066 37.48347,10.2809 20.4586,-9.9038 30.03477,-43.7951 30.03477,-106.297 0,-44.5142 -15.51945,-88.76128 -47.1508,-134.43023 -6.82394,-9.85231 -23.67762,-34.69194 -37.45261,-55.19916 -33.10663,-49.28681 -49.17245,-69.21627 -69.24556,-85.89833 l -7.24777,-6.02338 13.17961,-1.08975 c 39.47845,-3.26419 78.7952,-4.63653 176.35653,-6.15565 59.38623,-0.92469 122.0883,-2.45913 139.33796,-3.40983 33.57455,-1.85046 66.38531,-4.75734 67.61867,-5.9907 2.19166,-2.19165 -14.25697,-28.66264 -32.11561,-51.68404 -42.79692,-55.16915 -49.2941,-64.40957 -61.57952,-87.57974 -21.89525,-41.29425 -38.76842,-67.24346 -80.74639,-124.1797 -12.71419,-17.24471 -25.31343,-34.78601 -27.99832,-38.98067 -10.39206,-16.23578 -18.45048,-23.69444 -25.62319,-23.71619 -10.41113,-0.0316 -19.22335,14.41504 -33.80948,55.42658 -5.19548,14.60808 -11.98284,31.56257 -15.08301,37.67665 -3.10016,6.11408 -13.76737,35.14046 -23.7049,64.50307 -9.93751,29.36261 -21.48497,61.77588 -25.66102,72.02949 -18.511,45.45081 -41.50333,79.74032 -67.96288,101.35617 l -12.04048,9.83634 -8.45758,-4.28578 c -21.07205,-10.67801 -44.83565,-5.94618 -54.24866,10.80203 -2.95815,5.26329 -5.95584,7.20561 -20.91761,13.55337 -9.60554,4.07531 -28.46791,11.45578 -41.91638,16.40103 -20.57506,7.56584 -25.63207,10.14253 -31.89637,16.25209 -10.79138,10.52483 -20.78621,26.3327 -32.8369,51.93499 l -10.60347,22.52761 -3.02662,-5.89949 c -4.71233,-9.18527 -10.45532,-27.55587 -21.54851,-68.92905 -5.62347,-20.97329 -12.2057,-43.85325 -14.62718,-50.84435 -2.42148,-6.99109 -4.77659,-18.04974 -5.23357,-24.57476 -0.79228,-11.31248 -0.52256,-10.68252 5.80526,13.55849 6.68776,25.61989 16.11343,52.49019 19.04918,54.30459 3.04382,1.88119 5.31068,-8.50629 4.45372,-20.40836 -0.62912,-8.7375 -3.52091,-19.23255 -10.9742,-39.82807 -14.5284,-40.14607 -15.66226,-49.42059 -9.73838,-79.65614 0.27395,-1.39822 0.58655,7.2008 0.69469,19.10893 0.1928,21.23357 0.31206,21.88044 6.1831,33.53878 3.29258,6.53817 6.72457,11.43145 7.62665,10.87394 0.90208,-0.55752 1.643,-4.97266 1.64648,-9.81141 0.004,-5.55165 1.15736,-10.68518 3.12591,-13.91319 2.56253,-4.20203 3.29775,-10.10321 4.11748,-33.04882 1.10359,-30.89121 4.67032,-54.55546 15.06661,-99.96286 6.85829,-29.95463 13.08518,-50.98183 17.50706,-59.11859 3.58246,-6.59212 3.14907,-2.00698 -2.39988,25.39011 -8.04495,39.7207 -9.33905,51.85633 -6.06292,56.85633 4.07071,6.21269 9.30328,4.69632 12.13552,-3.51678 1.26287,-3.66219 4.20998,-22.34748 6.54912,-41.52288 5.69173,-46.65874 9.80837,-61.37222 20.90251,-74.70862 l 3.51119,-4.22086 0.0564,4.50336 c 0.031,2.47685 -1.83012,17.47176 -4.13586,33.32202 -4.99522,34.33859 -6.72637,58.5823 -4.68125,65.55812 2.22576,7.59201 6.70664,7.47556 9.93804,-0.25827 2.16696,-5.18627 2.45634,-9.61438 1.47608,-22.58668 -2.15111,-28.46666 -1.54225,-35.05761 5.85634,-63.39493 4.25726,-16.30572 6.82783,-29.67179 6.51893,-33.89623 l -0.51,-6.97475 17.79552,-11.58709 c 27.22916,-17.72955 37.2175,-22.2961 39.76214,-18.17877 0.53985,0.87348 -2.41829,8.08775 -6.57363,16.03171 l -7.55516,14.44357 0.9964,15.37961 c 0.54802,8.45879 1.50789,15.69574 2.13305,16.08211 0.62516,0.38637 2.36583,-7.45674 3.86816,-17.42914 6.39076,-42.42167 19.08622,-64.73894 36.82755,-64.73894 1.90836,0 7.58235,-2.32102 12.60889,-5.15782 11.9408,-6.73896 19.51576,-8.95293 20.63677,-6.03159 0.46082,1.20087 -1.50841,8.59508 -4.37607,16.43157 -2.86765,7.8365 -6.33193,18.53991 -7.69841,23.78536 -2.34767,9.01194 -2.28193,10.03867 1.19396,18.64293 3.94352,9.76184 6.13466,13.34277 8.16428,13.34277 0.70062,0 1.66544,-10.86798 2.14406,-24.15107 0.96457,-26.76935 3.70096,-38.55499 10.95261,-47.17311 4.74107,-5.63443 21.60183,-14.15316 31.79913,-16.06619 10.71117,-2.00942 8.64586,3.37408 -15.25471,39.76338 -13.56063,20.64645 -19.37023,33.77935 -19.42604,43.91368 -0.0722,13.114 5.72059,4.89797 22.82905,-32.37864 17.73251,-38.63636 29.64103,-53.57351 48.39087,-60.69789 7.30628,-2.77617 16.47238,-3.21363 88.35382,-4.21682 68.73593,-0.95929 83.62026,-0.71968 104.11285,1.676 23.15801,2.70729 58.01282,10.18609 70.15104,15.05232 3.26252,1.30795 9.47195,3.67723 13.79875,5.26507 l 7.86691,2.88698 12.90319,29.16538 c 14.45298,32.6684 19.18988,41.34465 21.36719,39.13682 1.67483,-1.69831 -1.33218,-18.85838 -6.64165,-37.90176 -1.94396,-6.97236 -3.53448,-14.40835 -3.53448,-16.52441 0,-11.44924 17.48097,4.69361 30.99624,28.62357 14.64939,25.93799 16.47935,44.19437 5.1517,51.3951 -2.95622,1.8792 -6.18119,5.13273 -7.16661,7.23006 -4.83911,10.29939 13.97952,-0.5041 22.61219,-12.98133 3.69851,-5.34563 5.1662,-9.69519 5.68316,-16.84228 0.66373,-9.17571 0.37481,-10.02533 -6.0549,-17.80616 -3.71352,-4.49388 -8.83524,-12.2884 -11.38157,-17.32115 -8.66906,-17.1341 -2.26795,-18.52082 23.6326,-5.1197 9.73897,5.039 20.30286,10.01845 23.47526,11.06546 3.1725,1.047 7.5101,3.75787 9.6391,6.02416 5.0441,5.36911 3.9569,15.03488 -2.9304,26.05285 -2.7028,4.32384 -5.9764,9.54283 -7.2747,11.59777 -1.2983,2.05493 -1.7825,4.31438 -1.0758,5.02099 0.7066,0.70661 5.5053,-3.45337 10.6637,-9.24439 7.5395,-8.46397 10.3716,-10.52913 14.4396,-10.52913 7.2641,0 9.8946,1.79072 29.4499,20.04773 37.0271,34.5687 75.0484,86.04542 90.943,123.12698 3.6047,8.40959 8.1121,18.19982 10.0163,21.75606 8.0233,14.98373 8.6859,19.12981 9.9352,62.17397 0.967,33.31483 1.773,42.84204 4.0776,48.19627 3.096,7.19276 2.6951,17.89369 -3.0831,82.30422 -1.2961,14.44827 -2.8312,37.32822 -3.4112,50.84434 -1.9921,46.42157 -9.451,79.20168 -34.6435,152.25064 -20.2088,58.5979 -27.4065,98.9737 -28.1863,158.1112 -0.4419,33.5176 -0.9622,39.8113 -4.1325,49.9969 -2.8482,9.1505 -3.9438,18.7485 -5.1023,44.7012 -1.6602,37.1936 -2.9546,44.712 -10.4596,60.7548 -2.9009,6.2011 -6.6062,15.0881 -8.234,19.7488 -1.6278,4.6607 -8.7151,22.3403 -15.7497,39.288 -14.8983,35.8932 -22.4463,58.5427 -25.1991,75.6153 -1.8158,11.2619 -2.6348,12.9034 -10.5734,21.1908 -16.5937,17.3228 -48.08887,36.2621 -95.04059,57.152 -13.9822,6.2209 -34.95549,15.7523 -46.60732,21.1807 -24.30425,11.3231 -50.9575,19.8242 -81.35095,25.9472 -40.63238,8.1858 -97.78745,12.5674 -123.72124,9.4848 z m 58.91053,-114.4279 c 20.62474,-5.2319 46.66921,-5.6092 63.57628,-0.921 11.20607,3.1074 11.4033,3.1059 11.4033,-0.084 0,-5.9848 -4.69173,-12.4019 -12.11953,-16.5765 -5.82215,-3.2723 -10.48946,-4.29 -22.25265,-4.8524 -24.0986,-1.1522 -45.14609,4.384 -63.65423,16.7433 -8.47107,5.6568 -18.91558,17.0619 -18.91558,20.6552 0,0.5884 5.81998,-1.6192 12.93331,-4.9058 7.11331,-3.2865 20.17641,-7.8129 29.0291,-10.0586 z m -181.49638,4.7726 c 1.48642,-0.9455 1.19778,-5.0886 -1.15303,-16.5498 -11.2449,-54.8239 -12.44109,-103.4905 -3.49755,-142.2966 1.71864,-7.4572 3.66479,-17.3419 4.32479,-21.966 3.20268,-22.4386 15.17414,-38.5257 30.36465,-40.8037 9.83885,-1.4754 20.80511,0.1466 34.43213,5.093 13.90823,5.0484 13.95277,2.4697 0.17273,-10.0005 -27.24455,-24.6549 -52.74679,-26.1494 -69.0034,-4.0439 -7.30877,9.9384 -6.55192,11.3358 2.23842,4.1328 4.1185,-3.3748 7.93182,-6.136 8.47406,-6.136 2.46764,0 0.29512,7.6489 -8.42411,29.6592 -10.51665,26.5475 -19.95961,56.4128 -22.81406,72.1543 -2.79329,15.404 -2.35577,47.6168 0.90845,66.887 3.30388,19.5043 13.37282,55.7858 17.0316,61.3701 2.67104,4.0768 3.81787,4.4896 6.94532,2.5001 z m 388.6084,-18.1233 c 8.39611,-10.9184 11.92654,-26.9308 11.92654,-54.0937 0,-23.7551 -1.75783,-36.9304 -9.36712,-70.2086 -3.2374,-14.1583 -8.54079,-37.3523 -11.7853,-51.5424 -3.24451,-14.19 -6.78165,-33.8286 -7.8603,-43.6414 -1.07866,-9.8127 -3.00795,-19.916 -4.2873,-22.4518 -7.41458,-14.6961 -25.72815,-8.5782 -49.62374,16.5777 -10.92111,11.4971 -14.56424,17.692 -10.40434,17.692 0.86974,0 4.4924,-3.614 8.05035,-8.031 11.17413,-13.8723 19.60499,-19.6579 27.34299,-18.764 6.32112,0.7302 5.52476,6.1465 -1.6829,11.4462 -8.92521,6.5625 -31.90994,30.0926 -31.82576,32.5809 0.042,1.242 4.04602,-2.0152 8.89776,-7.2383 10.16238,-10.9401 26.28514,-24.3839 31.00864,-25.8562 7.00044,-2.182 10.86154,4.9273 10.86154,19.9992 0,13.8399 3.25685,35.4842 11.10847,73.8245 4.74037,23.1478 6.28225,35.2767 7.02317,55.2465 1.13449,30.5783 -0.7734,43.8183 -8.92108,61.9088 -8.17345,18.1478 -7.60552,28.7616 0.89987,16.8169 6.35907,-8.9305 12.02291,-23.9434 14.59289,-38.6808 1.38332,-7.9324 3.1888,-15.6265 4.01223,-17.0978 2.74841,-4.9112 4.10909,9.8582 2.07841,22.5599 -2.82465,17.6681 -4.83035,23.4951 -11.34898,32.9715 -11.57222,16.8231 -4.31131,13.6873 9.30396,-4.0181 z m -329.62555,5.6255 c 7.62489,-9.0617 13.7798,-23.4243 19.48625,-45.4717 7.63283,-29.4902 11.18868,-38.4255 15.78166,-39.6568 6.68172,-1.7912 33.69622,-1.085 56.29948,1.4717 39.21874,4.4363 65.81174,2.6797 84.27737,-5.5669 3.98335,-1.7789 12.86924,-7.5155 19.74642,-12.7479 19.70747,-14.9942 30.21581,-16.504 40.38452,-5.8025 10.58578,11.1406 16.20962,27.3779 20.0987,58.0297 5.9113,46.59 14.67143,51.9717 11.96119,7.3482 -3.34551,-55.083 -17.50018,-81.0187 -48.50993,-88.8851 -16.93574,-4.2962 -40.88626,-2.3934 -85.58798,6.7997 -32.33795,6.6503 -39.78251,7.6333 -56.09997,7.4076 -17.31842,-0.2396 -19.56321,0.1063 -28.23649,4.3496 -18.7487,9.1729 -27.85135,24.5779 -40.82561,69.0916 -6.70806,23.015 -10.28759,33.6582 -15.47186,46.0039 -2.01185,4.7909 1.80794,3.4383 6.69625,-2.3711 z m 80.55366,-157.3699 c 6.90634,-13.5375 9.85657,-32.1964 5.09069,-32.1964 -3.36205,0 -8.41511,9.3932 -10.75507,19.9926 -5.35574,24.2603 -5.27163,22.9061 -1.29038,20.7754 1.95334,-1.0454 5.08298,-4.9026 6.95476,-8.5716 z m 123.15463,-16.223 c 2.76403,-7.2029 -6.82587,-23.7418 -16.73889,-28.868 -14.92336,-7.7172 -12.24132,8.7268 4.2454,26.0294 5.6587,5.9387 10.85117,7.1185 12.49349,2.8386 z M 547.95284,1155.9207 c 35.80762,-29.2917 63.7031,-77.9762 73.1184,-127.6097 4.41853,-23.2926 5.18621,-21.3378 -18.13267,-46.17469 -27.56294,-29.35732 -44.66953,-43.81696 -62.16606,-52.54695 -13.95733,-6.9641 -14.68215,-7.12848 -31.35401,-7.11067 -15.46404,0.0169 -17.94156,0.47399 -26.38784,4.87248 -5.43774,2.83174 -14.97156,10.59159 -22.88247,18.62469 -17.36908,17.63733 -56.77367,69.31664 -56.77367,74.45894 0,3.6526 12.40811,-10.1568 21.60448,-24.04443 13.19389,-19.92439 55.99473,-63.84069 59.14698,-60.68844 0.5278,0.5278 -2.143,5.39103 -5.93511,10.80719 -17.02473,24.31592 -18.05507,50.97866 -2.63285,68.13188 9.89591,11.0066 19.14238,14.6197 37.13184,14.5095 16.14937,-0.099 25.59959,-3.7317 36.96791,-14.2107 10.89563,-10.0432 15.43848,-21.31955 15.51206,-38.50429 0.0373,-8.70679 0.68605,-13.46184 1.754,-12.85607 20.28974,11.50908 33.16532,27.15438 34.37759,41.77266 1.972,23.7798 -24.39383,51.2718 -59.43275,61.9713 -22.44434,6.8536 -45.51805,15.791 -49.2324,19.0697 l -3.67377,3.2429 7.62665,-1.0445 c 19.6842,-2.696 60.36585,-20.0531 75.06837,-32.0285 14.07387,-11.4633 23.53297,-18.008 26.0272,-18.008 4.34491,0 2.25902,6.5386 -6.04815,18.9588 -8.57759,12.8245 -17.41532,21.7952 -42.99957,43.646 -13.3403,11.3937 -16.86505,15.3566 -13.65864,15.3566 2.26273,0 32.96668,-25.9788 47.86415,-40.4981 16.36834,-15.9529 17.4225,-15.9582 12.70246,-0.064 -7.12329,23.9867 -24.74685,51.4861 -46.90368,73.1874 -18.71554,18.3307 -19.06941,21.8154 -0.68845,6.7792 z m 175.40151,5.7427 c 2.51712,-1.2693 10.06703,-2.7469 16.77759,-3.2838 20.70019,-1.656 26.51025,-8.3733 8.07272,-9.3332 -10.71805,-0.5581 -21.18689,2.5008 -28.64992,8.3712 -7.46099,5.8689 -4.96044,8.663 3.79961,4.2458 z m 33.21292,-28.7219 c 1.48099,-2.4272 1.2355,-3.5371 -1.17954,-5.3326 -2.54722,-1.8938 -4.47398,-1.8917 -11.69203,0.012 -10.02528,2.6446 -13.49361,5.1952 -9.26894,6.8164 4.59685,1.7639 3.35751,3.6642 -6.79621,10.4202 -5.29202,3.5212 -9.90814,7.2852 -10.25805,8.3644 -0.94954,2.9288 37.02133,-16.7187 39.19477,-20.2808 z m 180.37343,-27.8651 c -0.30137,-1.6313 -13.51327,-12.631 -29.35976,-24.4438 -26.54817,-19.7905 -44.02746,-35.6728 -51.0425,-46.3791 -1.54177,-2.3531 -2.45931,-4.6222 -2.03896,-5.0425 1.00524,-1.0053 23.45947,9.7908 35.28594,16.9656 9.92841,6.0233 36.51559,12.4696 39.42601,9.5591 2.19156,-2.1915 -4.96044,-6.6934 -30.95196,-19.4829 -23.1037,-11.3686 -48.36561,-26.3842 -44.52488,-26.4655 1.14534,-0.024 12.67521,3.3504 25.62192,7.4993 28.5509,9.1492 45.24867,12.5488 48.02074,9.7767 6.56441,-6.5644 -26.31922,-20.5756 -48.60811,-20.7111 -12.35419,-0.075 -27.5549,-4.1075 -32.30458,-8.56954 -5.69235,-5.34769 -5.33299,-12.58539 1.13576,-22.87494 5.27427,-8.38956 29.54462,-33.14899 39.31127,-40.10346 4.84237,-3.44806 5.08381,-3.47435 3.60932,-0.39288 -0.86909,1.81632 -1.58078,8.64103 -1.58153,15.16606 -10e-4,10.59689 0.5791,12.69949 5.43491,19.69123 10.11667,14.56677 29.10603,23.79275 49.64509,24.12009 10.40184,0.16575 14.24832,-0.56253 21.17267,-4.00886 17.10086,-8.51128 25.62047,-27.75423 21.25774,-48.01408 -2.97862,-13.8322 -3.03411,-16.71779 -0.33944,-17.65209 3.26363,-1.13157 16.91495,13.64291 40.01105,43.30281 20.1775,25.9118 24.8406,29.66135 26.0774,20.96838 2.0186,-14.18727 -49.329,-74.99861 -73.20752,-86.70034 -24.81091,-12.15861 -50.8776,-6.94057 -80.73181,16.16093 -19.21394,14.86795 -60.29561,59.91865 -65.5578,71.89154 -3.87835,8.82428 -2.40661,25.87885 3.2263,37.38655 9.45383,19.3136 35.1693,44.7721 68.49387,67.8093 16.6991,11.5441 33.72355,17.0639 32.51886,10.5435 z M 886.39579,985.91586 c 0,-0.87714 -0.76266,-1.59479 -1.69481,-1.59479 -0.93214,0 -1.69481,1.18902 -1.69481,2.64225 0,1.45323 0.76267,2.17088 1.69481,1.59478 0.93215,-0.5761 1.69481,-1.76511 1.69481,-2.64224 z"
       style="fill:#c8b7b7;stroke-width:1.69481" />
    <path
       id="path475"
       d="m 1203.0489,956.2212 c -0.6141,-8.49009 -1.8978,-11.75638 -8.2755,-21.05737 l -7.5486,-11.00856 -0.1593,-21.18515 c -0.088,-11.65183 0.5112,-22.51981 1.3308,-24.15106 1.2191,-2.42673 3.79,-2.96592 14.1415,-2.96592 7.7034,0 12.6514,-0.69576 12.6514,-1.77898 0,-2.14227 -4.8551,-11.77951 -5.9344,-11.77951 -0.4196,0 -3.26,1.52248 -6.312,3.38328 -12.6625,7.72032 -19.1715,1.65237 -19.0049,-17.71699 0.1922,-22.34371 11.0285,-45.04486 24.9276,-52.22104 12.4396,-6.42268 21.8904,-0.42643 30.8714,19.58697 10.5572,23.52593 7.718,37.25235 -22.8606,110.52321 -3.8902,9.32146 -8.4292,22.22927 -10.0868,28.68401 l -3.0137,11.7359 z"
       style="fill:#c8b7b7;stroke-width:1.69481" />
    <path
       id="path477"
       d="m 240.94901,960.07222 c -5.51596,-14.70721 -9.07962,-39.90109 -9.27571,-65.57616 -0.15289,-20.01832 0.28106,-23.88682 3.46958,-30.93031 2.33614,-5.16056 4.7118,-8.05035 6.61809,-8.05035 1.63557,0 9.24165,1.91182 16.9024,4.2485 14.57932,4.44696 22.68472,10.86792 22.68472,17.97043 0,4.25194 -7.09714,18.27605 -15.58011,30.78669 -11.4191,16.84081 -16.6088,29.60226 -16.69641,41.05642 -0.0428,5.59288 -1.05724,12.45686 -2.25436,15.2533 l -2.17658,5.08444 z"
       style="fill:#c8b7b7;stroke-width:1.69481" />
    <path
       id="path479"
       d="m 270.7059,1057.4868 c -1.61052,-9.9464 -4.85343,-29.143 -7.20646,-42.6591 -4.56102,-26.19905 -5.64298,-48.23882 -3.68565,-75.07719 1.89324,-25.95955 9.35976,-36.39869 22.1974,-31.03478 11.05118,4.61747 16.68506,17.72785 16.28295,37.89137 -0.14411,7.22657 0.26421,17.41661 0.9074,22.64455 1.36758,11.11583 -1.71525,23.6142 -9.75123,39.53335 -11.16447,22.1167 -13.62705,31.0258 -13.48579,48.7886 0.0721,9.062 -0.42279,16.8186 -1.09968,17.237 -0.67689,0.4183 -2.54841,-7.3774 -4.15894,-17.3238 z"
       style="fill:#c8b7b7;stroke-width:1.69481" />
    <path
       id="path481"
       d="m 1180.6637,1201.207 c -7.8558,-9.336 -7.7846,-13.74 1.573,-97.4017 7.1044,-63.5175 17.2743,-126.13317 19.501,-120.06815 0.6313,1.71938 2.0454,13.42212 3.1425,26.00605 1.0971,12.584 3.8839,38.7425 6.1929,58.13 5.0615,42.4988 5.6127,77.1847 1.5406,96.9453 -3.4202,16.5969 -11.9219,37.6095 -16.1275,39.8603 -5.7579,3.0814 -11.3387,1.8569 -15.8225,-3.4718 z"
       style="fill:#c8b7b7;stroke-width:1.69481" />
    <path
       id="path483"
       d="m 306.79365,1281.1032 c -3.19577,-1.9974 -13.3559,-5.9921 -9.5873,-5.9921 5.19312,0 9.57164,4.0327 14.38095,5.9921 5.97668,2.4349 11.8221,5.2471 17.97619,7.1905 1.52372,0.4811 3.19577,0 4.79365,0 1.19842,0 -2.42009,0.235 -3.59524,0 -5.70343,-1.1407 -11.2186,-3.0832 -16.77777,-4.7937 -2.41476,-0.743 -9.71695,-2.3968 -7.19048,-2.3968 4.85977,0 9.57002,1.7095 14.38095,2.3968 1.58183,0.226 5.50825,1.4292 4.79365,0 -1.62437,-3.2487 -10.64386,-3.5952 -11.98412,-3.5952 -2.42989,0 -4.97002,2.1852 -7.19048,1.1984 -2.12854,-0.946 -1.7318,-4.5945 -3.59524,-5.9921 -0.71459,-0.5359 -1.65798,1.6309 -1.19841,2.3968 1.02763,1.7128 2.94994,2.8271 4.79365,3.5953 3.04073,1.2669 6.43885,1.428 9.5873,2.3968 2.05609,0.6326 3.95124,1.7166 5.99207,2.3968 0.37897,0.1263 1.56931,0.1484 1.19841,0 -3.07206,-1.2288 -25.16667,-7.4081 -25.16667,-4.7936 0,5.9212 10.8323,7.2215 14.38095,9.5873 0.33238,0.2216 -0.81944,0.1263 -1.19841,0 -4.08164,-1.3606 -7.94073,-3.3233 -11.98413,-4.7937 -2.37436,-0.8634 -4.7612,-1.7027 -7.19047,-2.3968 -0.3841,-0.1097 -1.59789,0 -1.19841,0 7.27251,0 20.7895,2.8133 26.36508,8.3889 0.28246,0.2825 -0.80438,0.066 -1.19842,0 -2.00919,-0.3349 -4.00731,-0.7404 -5.99206,-1.1984 -8.8773,-2.0486 -11.98376,-2.6145 -20.37302,-7.1905 -0.99191,-0.541 -1.45671,-1.7701 -2.39682,-2.3968 -0.33238,-0.2216 -1.59789,0 -1.19841,0 4.82577,0 16.23714,6.9201 21.57142,9.5873 0.3573,0.1786 1.37707,0.3573 1.19842,0 -0.5053,-1.0106 -1.36434,-1.938 -2.39683,-2.3968 -2.65754,-1.1812 -5.71584,-1.2513 -8.38889,-2.3969 -2.96023,-1.2686 -5.38292,-3.6375 -8.38889,-4.7936 -2.26792,-0.8723 -4.78501,-0.8548 -7.19047,-1.1984 -0.39546,-0.056 -1.48088,-0.2825 -1.19842,0 2.77641,2.7764 32.02405,10.7857 31.15873,10.7857 -8.49214,0 -9.79888,-1.1388 -17.97619,-2.3968 -2.36895,-0.3645 -4.88587,0.6584 -7.19047,0 -0.85888,-0.2454 -0.79894,-1.5979 -1.19841,-2.3969"
       style="fill:none;stroke:#000000;stroke-width:1px;stroke-linecap:butt;stroke-linejoin:miter;stroke-opacity:1" />
    <path
       id="path485"
       d="m 306.59379,1276.255 c -1.06649,-1.6478 -5.64732,-2.996 -10.17961,-2.996 -10.58869,0 -25.33725,-12.903 -34.07189,-29.8082 -5.22661,-10.1157 -6.43152,-16.1266 -7.23738,-36.1045 -0.84977,-21.0666 0.10496,-28.7247 7.88623,-63.2578 4.86918,-21.6092 9.68589,-46.4164 10.70381,-55.127 1.09935,-9.4074 1.97865,-12.4048 2.16576,-7.3826 0.42546,11.4193 5.01818,17.2473 20.45892,25.9615 7.16868,4.0458 13.57347,9.2822 14.23286,11.6365 1.99167,7.111 -1.86919,160.3066 -3.9587,157.0781 z"
       style="fill:#c8b7b7;fill-opacity:1;stroke-width:2.39683" />
    <path
       d="m 343.23189,944.12881 c 0.9662,-0.0762 2.45135,-1.08827 2.89862,-0.22845 0.4169,0.80144 -2.01247,0.14929 -2.57007,0.86006 -0.31362,0.39975 0.93832,0.40107 1.36814,0.67203 2.26286,1.42651 4.17901,3.36607 6.23712,5.0597 8.46682,6.1783 -13.23725,-12.53234 14.6718,1.92384 4.88619,2.53092 -9.83762,1.76569 -6.97149,1.91155 -0.0642,-0.0363 -0.24635,-0.15947 -0.19263,-0.10892 2.15667,2.02963 3.9256,4.42117 6.10066,6.46472 5.10124,0.88893 0.0476,0.0806 9.4065,-11.57578 0.0882,-0.10981 0.43545,-0.12437 0.35012,-0.23638 -0.60558,-0.795 -1.38483,-1.44448 -2.13419,-2.10571 -4.75754,-4.19799 -4.16714,-3.51457 -9.66429,-7.039 -7.43627,-4.7863 -15.76498,-7.51619 -24.1055,-10.18231 -2.54123,-0.78888 -5.13233,-1.40674 -7.59714,-2.42365 -0.073,-0.0301 -2.11291,-0.74539 -2.41694,-1.24164 -0.83998,-0.67987 -1.30146,-4.30561 -1.04104,-1.11046 0.1516,-1.12492 -15.75721,-3.26879 -15.9088,-2.14386 v 0 c -0.0596,1.06919 -0.2165,2.1374 -0.17869,3.20759 0.0985,2.78949 1.4334,5.60209 2.5897,8.04851 0.71004,1.03479 1.32126,2.14484 2.13011,3.10437 3.68796,4.37507 9.41002,6.30344 14.63275,8.07384 0.98954,0.18402 1.99791,0.28603 2.96862,0.55207 0.94567,0.25918 1.83465,0.69332 2.7599,1.01793 0.86674,0.30409 1.77126,0.50569 2.61534,0.86793 4.07241,1.7477 7.82332,4.23622 11.67839,6.38479 1.77977,0.93588 6.74635,3.48699 8.50896,4.64251 0.72184,0.47322 7.43771,5.92584 8.39118,5.41529 14.38746,-7.70409 13.76707,-7.23372 10.16594,-13.24467 -0.47249,-0.5158 -0.94499,-1.03159 -1.41748,-1.54738 -0.26236,-0.17296 -0.57321,-0.28864 -0.78708,-0.51887 -0.51037,-0.54942 -0.89338,-1.20501 -1.35978,-1.79222 -2.10095,-2.64516 -4.28495,-4.93833 -7.24262,-6.67421 -0.94687,-0.33807 -1.8365,-1.06519 -2.84063,-1.0142 -3.16684,0.16079 -10.93511,-1.12426 -9.37134,1.63425 2.08648,3.68054 15.71202,4.45714 9.64398,-0.64836 -7.60702,-9.45866 -15.53819,-15.67911 -28.58007,-10.76934 -1.044,0.5135 6.21794,15.27793 7.26195,14.76443 z"
       id="path495"
       style="fill:#241c1c;fill-opacity:1" />
    <path
       id="path497"
       d="m 359.92008,934.28202 c -5.02478,-5.46329 -11.73874,-7.72075 -20.44316,-6.87368 l -7.62622,0.74216 8.01119,-8.0011 c 8.85563,-8.84448 15.61568,-20.74405 25.35782,-44.63687 11.69341,-28.67833 12.14008,-29.28249 29.85936,-40.38723 5.08173,-3.18474 7.58748,-5.73502 9.49738,-9.66617 l 2.59439,-5.34005 4.02647,3.53529 c 5.70712,5.01091 8.59832,4.55139 16.93501,-2.69162 l 4.00385,-3.47859 4.16415,3.17615 c 2.29028,1.74689 4.3335,2.98687 4.54047,2.75553 0.20698,-0.23135 1.74753,-3.15128 3.42343,-6.48874 4.83599,-9.63055 10.88349,-14.02832 36.13542,-26.27781 18.57675,-9.01142 23.93042,-12.16141 27.11388,-15.95326 l 3.96666,-4.72475 8.19327,3.48655 c 23.62037,10.05137 57.65695,35.37393 74.35671,55.31996 l 5.02536,6.00222 -3.57464,-0.91809 c -54.26693,-13.9377 -83.47153,-11.15436 -131.43083,12.52602 -45.32895,22.38162 -79.78846,51.96914 -96.9395,83.23391 l -4.28776,7.8162 z"
       style="fill:#241c1c;fill-opacity:1;stroke-width:1.19841" />
    <path
       id="path499"
       d="m 390.57292,1483.0488 c -4.26596,-1.0955 -7.03159,-3.6407 -16.17857,-14.889 -6.07029,-7.4648 -10.62336,-11.8556 -14.02542,-13.5254 -3.76224,-1.8467 -5.05148,-3.192 -5.09325,-5.3147 -0.17889,-9.0903 -4.6312,-30.7991 -10.85805,-52.9424 -10.74056,-38.1943 -12.54447,-51.1486 -10.18345,-73.1299 0.64046,-5.9627 0.23554,-10.82 -1.66763,-20.0043 -3.03202,-14.6318 -3.0158,-13.4661 -0.18737,-13.4661 3.71454,0 4.04248,-2.1951 0.39065,-2.6149 -3.26598,-0.3754 -3.33726,-0.5618 -4.72927,-12.3653 -0.77733,-6.5913 -1.97418,-33.8252 -2.65968,-60.5198 -0.68549,-26.6947 -1.53999,-53.1197 -1.89889,-58.7223 -1.1402,-17.7992 -3.36171,-37.1508 -4.26482,-37.1508 -2.09435,0 -7.13646,-50.9494 -7.11592,-71.9047 0.014,-14.2838 1.42265,-18.7063 3.81719,-11.9841 0.82177,2.3069 8.59663,18.2158 17.27745,35.3531 26.23973,51.8013 33.22557,72.8144 33.2676,100.0675 0.0241,15.5969 -1.59261,24.339 -6.70624,36.264 l -2.44618,5.7045 5.65283,6.0433 c 10.41564,11.1352 15.41562,25.3508 22.10277,62.8414 1.99865,11.2051 4.46472,23.0694 5.48016,26.365 1.01543,3.2957 2.38579,14.351 3.04524,24.5675 0.65945,10.2165 3.06503,39.3379 5.34573,64.7143 2.28069,25.3764 4.51128,54.5715 4.95685,64.878 0.7622,17.6303 0.67568,18.8097 -1.46215,19.9317 -3.14727,1.6516 -8.99065,2.5402 -11.85958,1.8034 z"
       style="fill:#241c1c;fill-opacity:1;stroke-width:1.19841" />
    <path
       id="path501"
       d="m 828.59276,868.34908 c 0,-0.59317 0.81198,-2.23775 1.80439,-3.65462 0.99241,-1.41687 3.38838,-7.42334 5.32438,-13.34772 10.23357,-31.31594 26.18739,-50.33546 53.91303,-64.273 8.57913,-4.31269 9.03213,-4.40779 12.16903,-2.55478 7.87029,4.6491 21.49841,1.98809 55.40234,-10.81781 11.32407,-4.27723 23.82493,-8.52823 27.77969,-9.44666 8.03417,-1.86581 70.03838,-4.92162 91.67858,-4.51828 24.4519,0.45575 42.4053,6.89315 55.6593,19.95728 9.001,8.87206 14.4365,17.71041 14.0457,22.83899 -0.7036,9.23361 -5.2248,19.80918 -10.6887,25.00177 -7.6324,7.25338 -15.4869,5.86971 -43.5884,-7.6786 -26.9009,-12.96945 -37.9708,-15.41847 -73.5509,-16.27187 -19.22266,-0.46106 -28.7048,-0.14216 -40.14685,1.35019 -18.6466,2.43201 -45.59432,8.98051 -62.91667,15.28923 -26.58513,9.68217 -62.13496,28.53462 -76.0992,40.35621 -9.52165,8.06066 -10.78572,8.97126 -10.78572,7.76967 z"
       style="fill:#241c1c;fill-opacity:1;stroke-width:1.19841" />
    <path
       id="path503"
       d="m 1070.9241,1486.7873 c -8.1643,-2.8031 -11.997,-10.224 -13.1492,-25.4598 -1.0879,-14.3842 1.1916,-20.7658 16.428,-45.9905 16.8642,-27.9195 23.7545,-47.1622 23.7545,-66.3399 0,-9.5106 0.3062,-10.4215 3.2445,-9.6531 4.2281,1.1057 5.8994,-2.1927 9.625,-18.9949 2.2993,-10.3693 3.0158,-21.4335 3.071,-47.4211 0.045,-21.1485 0.726,-34.3646 1.8109,-35.1414 0.9564,-0.6849 4.1726,-1.2569 7.1471,-1.2711 2.9744,-0.014 5.8017,-0.6629 6.2828,-1.4414 0.4812,-0.7785 -0.9823,-6.7554 -3.252,-13.2821 -5.9833,-17.2049 -6.8227,-31.5106 -3.3758,-57.5358 1.9003,-14.3482 2.7195,-29.4857 2.3227,-42.9236 l -0.6128,-20.7588 6.0466,7.0206 c 8.4705,9.835 16.2594,23.148 20.4468,34.9481 3.1833,8.9704 3.4518,12.3369 2.4917,31.239 -3.3056,65.0809 -3.2593,71.1355 0.6799,88.9776 5.8282,26.398 5.9822,35.7277 1.0491,63.5554 -2.3961,13.5161 -4.6552,32.5828 -5.0203,42.3703 -0.5835,15.6433 -1.6146,20.6524 -8.525,41.4168 -14.422,43.3349 -26.7896,62.1231 -47.3782,71.9742 -13.7985,6.6022 -16.1706,7.0862 -23.0873,4.7115 z"
       style="fill:#241c1c;fill-opacity:1;stroke-width:1.69481" />
    <path
       id="path505"
       d="m 1026.782,1508.0831 c 17.7887,-12.4792 10.6578,-14.8632 -8.2582,-2.7609 -13.1085,8.3866 -18.0559,9.3245 -7.4716,1.4164 3.5209,-2.6307 10.6219,-8.3895 15.7799,-12.7972 9.3329,-7.9755 9.3875,-8.0782 11.3233,-21.2992 1.0699,-7.3067 4.5896,-21.3442 7.8216,-31.1944 5.2685,-16.0571 29.1306,-75.7311 31.1291,-77.8474 0.4401,-0.4661 0.3793,4.8726 -0.1351,11.8637 l -0.9353,12.711 2.5135,-9.3214 c 1.3825,-5.1268 2.3053,-12.5628 2.0509,-16.5244 -0.2545,-3.9617 0.1149,-7.203 0.8206,-7.203 0.7059,0 1.2834,-1.821 1.2834,-4.0467 0,-2.2257 2.3466,-9.0615 5.2148,-15.1906 6.692,-14.3006 9.8965,-32.5517 10.0129,-57.0292 0.1053,-22.1374 2.1948,-39.3457 6.2765,-51.6918 2.2167,-6.7048 2.8539,-16.0815 3.0517,-44.9125 0.1932,-28.1488 1.1001,-41.9327 3.9863,-60.5898 6.4128,-41.4541 10.0148,-55.6951 27.3282,-108.0439 25.7275,-77.78992 29.6091,-95.94021 32.2582,-150.83822 0.8997,-18.64293 2.7344,-45.33621 4.0773,-59.31841 4.7073,-49.01367 5.0248,-61.94032 1.7066,-69.48727 -2.4493,-5.571 -3.1887,-14.17981 -4.1485,-48.30213 -1.2113,-43.0638 -1.8218,-46.89284 -9.9141,-62.17397 -1.8833,-3.55624 -7.6424,-15.49546 -12.798,-26.53161 -20.2141,-43.27054 -62.3371,-97.28052 -100.8542,-129.31508 -12.36,-10.27973 -18.8996,-11.61262 -27.373,-5.57905 -5.4189,3.85859 -6.0545,2.92258 -2.3801,-3.50503 3.1892,-5.57901 3.1907,-16.96279 0,-21.51419 -1.3967,-1.99399 -5.9609,-4.93215 -10.1428,-6.52922 -4.1819,-1.59708 -13.90715,-6.2873 -21.61169,-10.42269 -10.72809,-5.75828 -12.66889,-7.29413 -8.28829,-6.55895 3.14599,0.52797 9.08932,0.95996 13.20739,0.95996 6.53616,0 8.52329,0.96894 15.64089,7.62665 4.4845,4.19466 9.0278,7.62665 10.0963,7.62665 5.1963,0 -0.4223,-23.3993 -9.3274,-38.84524 -12.14942,-21.07208 -27.43254,-35.9032 -70.92877,-68.83054 -12.1179,-9.17344 -27.00518,-20.94466 -33.08284,-26.15825 -19.80214,-16.98684 -53.86919,-31.91992 -89.61734,-39.28321 -23.70708,-4.8831 -70.81026,-6.04847 -98.24603,-2.43068 -35.73611,4.7123 -73.21302,14.88686 -104.97405,28.49927 -8.67337,3.7173 -16.11465,6.41384 -16.53619,5.9923 -1.09542,-1.09542 33.385,-17.11024 48.05741,-22.32081 35.28534,-12.53078 67.40178,-18.18653 109.17012,-19.22501 36.97088,-0.9192 55.87455,0.69844 86.08245,7.36629 22.34088,4.93134 24.48497,5.91189 56.12875,25.66916 33.93636,21.18867 64.08155,44.29898 85.60472,65.62745 19.71527,19.53697 39.61137,44.70241 39.61137,50.10231 0,1.73546 1.911,9.20495 4.2468,16.59887 7.0063,22.17884 17.3813,35.98187 56.0237,74.53443 39.661,39.56871 45.9784,47.41159 60.0723,74.57792 15.8541,30.55915 26.2322,42.66651 36.5887,42.68498 3.2248,0.005 3.7346,1.52472 5.5481,16.53076 5.4594,45.17377 6.7686,104.31464 3.5174,158.88852 -0.9841,16.51935 -1.4427,30.3818 -1.019,30.80547 0.4237,0.42367 4.3839,-3.09289 8.8005,-7.8146 10.0308,-10.72374 13.706,-11.38188 4.3772,-0.78386 -3.7767,4.29057 -8.3963,11.88931 -10.2659,16.88606 -3.8566,10.30787 -7.1377,28.42597 -6.0969,33.6671 2.1449,10.80099 2.8449,12.8268 5.2696,15.25156 3.4888,3.48875 11.5958,3.38864 17.0896,-0.21104 4.1602,-2.72583 4.5016,-2.70937 6.7196,0.32393 4.4924,6.14366 4.0608,6.37065 -11.3485,5.96852 -13.2887,-0.34681 -14.066,1.01004 -14.3898,25.12082 -0.3095,23.0362 0.4763,26.52115 8.6603,38.40387 9.3035,13.50827 10.0131,19.36983 5.1843,42.82565 -8.6391,41.96456 -16.2495,97.53646 -24.121,176.13206 -2.4116,24.0799 -2.5498,30.3688 -0.7962,36.2218 2.9575,9.8712 8.666,15.1426 16.3982,15.1426 4.9429,0 5.8377,0.4563 4.3679,2.2273 -1.7118,2.0627 -14.1107,8.1343 -21.0497,10.308 -2.5319,0.7931 -2.7929,2.0533 -1.6948,8.1833 2.2133,12.3551 0.9572,40.202 -2.7868,61.7827 -1.9858,11.4461 -4.7157,39.7575 -6.1282,63.5554 -2.657,44.7627 -5.4483,66.0595 -11.0312,84.1634 -4.3993,14.2661 -8.1527,19.1413 -21.6553,28.1279 -15.6161,10.3932 -18.3753,13.0759 -19.713,19.1664 -1.3462,6.1292 -3.0013,7.6824 -11.094,10.411 -3.9678,1.3378 -6.1058,1.4187 -6.4968,0.2459 -0.8616,-2.585 -3.6898,-2.1225 -3.6898,0.6034 0,1.7216 -4.6542,2.8914 -17.3719,4.3664 -20.6531,2.3955 -35.1793,5.7484 -44.6001,10.2946 -10.4936,5.0638 -10.7498,3.9992 -0.7294,-3.0303 z m 67.393,-23.3875 c 12.2472,-5.4785 25.2962,-19.1626 33.8593,-35.5072 l 7.1034,-13.5585 0.053,7.7264 c 0.054,7.8854 3.7272,15.4362 6.2697,12.8879 2.6641,-2.6702 1.4187,-19.4011 -1.7007,-22.848 -2.7989,-3.0927 -2.614,-4.2096 4.0103,-24.2316 5.8552,-17.6974 7.0578,-23.7359 7.6677,-38.5 0.3978,-9.6307 2.6368,-28.627 4.9756,-42.2138 5.2314,-30.3913 5.2981,-39.1815 0.439,-57.8334 -3.5068,-13.4607 -3.7584,-17.499 -3.1302,-50.2286 0.3757,-19.5751 0.7571,-44.4714 0.8474,-55.3251 l 0.1642,-19.7341 -8.0528,-15.857 c -7.3612,-14.495 -20.0145,-31.9576 -23.1562,-31.9576 -0.7074,0 -0.9287,9.9012 -0.4917,22.0027 0.5562,15.4022 -0.096,28.7257 -2.1737,44.414 -3.4871,26.3289 -2.5931,42.4388 3.2975,59.423 l 3.9677,11.44 h -6.4018 c -10.757,0 -10.891,0.4687 -9.2064,32.2014 1.5912,29.9746 -4.8245,71.1821 -11.0826,71.1821 -0.9797,0 -1.7813,-0.7627 -1.7813,-1.6948 0,-0.9322 -0.7626,-1.6948 -1.6948,-1.6948 -0.9771,0 -1.6948,5.3074 -1.6948,12.5325 0,20.0565 -6.8224,38.605 -25.8604,70.3085 -13.06,21.7484 -15.3801,29.0418 -14.2108,44.6719 1.4147,18.9088 5.6409,25.2908 18.0387,27.2401 5.5235,0.8685 9.1275,-0.01 19.9449,-4.846 z m 70.6839,-363.3691 c 2.954,-5.7124 3.2883,-8.5582 1.0052,-8.5582 -1.4397,0 -2.0159,1.3268 -4.5999,10.5925 -1.2926,4.6349 0.7411,3.484 3.5947,-2.0343 z m -10.5327,-3.0501 c 3.6398,-4.0582 9.1073,-21.8963 12.3373,-40.2518 2.4308,-13.8133 6.5482,-103.95201 4.8321,-105.78445 -1.4586,-1.55754 -2.3224,1.6393 -5.7001,21.09638 -4.5833,26.40137 -9.3651,45.42487 -13.6358,54.24687 -6.2748,12.9622 -11.6019,65.4808 -7.3411,72.3749 1.4225,2.3017 6.7856,1.353 9.5076,-1.6819 z m -15.8292,-52.1154 c 2.8096,-24.0165 3.728,-40.8359 2.0824,-38.1333 -1.7982,2.953 -7.1001,45.4977 -6.8853,55.2495 l 0.1458,6.6111 1.5355,-5.0844 c 0.8445,-2.7965 2.2493,-11.1858 3.1217,-18.6429 z m 51.2052,-49.2817 c 4.606,-27.15731 5.4032,-66.92418 1.3914,-69.40364 -2.6292,-1.62492 -3.7715,3.09883 -6.9249,28.63628 -2.8571,23.13791 -2.9585,32.84886 -0.4683,44.83316 1.2204,5.8733 4.718,3.5039 6.0018,-4.0658 z m -20.0313,-71.47366 c 1.8461,-3.20796 2.9443,-17.37182 1.3469,-17.37182 -1.7632,0 -5.2416,10.36991 -5.2585,15.677 -0.01,2.97382 2.5399,4.07842 3.9116,1.69482 z"
       style="fill:#241c1c;fill-opacity:1;stroke-width:1.69481" />
    <path
       id="path507"
       d="m 1145.2888,1114.986 c -0.9539,-2.5088 -1.262,-8.8008 -0.6847,-13.9822 3.3445,-30.0168 6.2633,-46.7211 9.154,-52.3873 3.7892,-7.4273 7.6966,-21.6753 12.1535,-44.3162 l 3.1694,-16.10067 -0.6913,37.28587 c -0.4305,23.2208 -1.6787,42.7495 -3.3088,51.7699 -6.2167,34.4003 -14.8215,50.8042 -19.7921,37.7306 z"
       style="fill:#6c5353;fill-opacity:1;stroke-width:1.69481" />
    <path
       id="path509"
       d="m 935.22576,985.82719 c -13.09311,-2.85067 -18.09859,-5.01701 -24.08173,-10.42243 -9.24222,-8.34979 -12.22859,-18.78827 -8.99085,-31.42639 2.49911,-9.755 6.74649,-16.7981 14.13763,-23.44338 11.04845,-9.9335 22.99666,-11.08713 34.68927,-3.34933 6.42612,4.2526 14.206,15.21563 14.206,20.01839 0,10.11758 -4.97372,17.47358 -11.81466,17.47358 -9.95859,0 -24.13772,-11.63584 -24.13772,-19.80818 0,-3.79726 0.49701,-4.49004 4.38742,-6.11555 2.76478,-1.1552 6.97619,-1.68661 11.38711,-1.43687 3.84982,0.21798 6.99869,0.0193 6.99749,-0.4415 -0.005,-1.99319 -8.6883,-7.21514 -12.84025,-7.72203 -10.03833,-1.22553 -17.17015,8.09839 -18.00565,23.54001 -0.4146,7.66252 -0.076,9.77309 2.29576,14.31079 4.06349,7.77429 8.06505,10.25434 16.33526,10.12412 10.15266,-0.15985 18.54534,-4.16521 21.23757,-10.13551 2.66085,-5.90071 10.68982,-14.71685 12.77589,-14.02845 3.15857,1.04232 4.69994,6.13658 4.03108,13.3228 -1.58086,16.98478 -12.37389,29.14659 -27.62946,31.13346 -2.65579,0.34588 -9.3366,-0.36479 -14.98016,-1.59353 z"
       style="fill:#6c5353;fill-opacity:1;stroke-width:1.19841" />
    <path
       id="path511"
       d="m 507.74161,1025.721 c -18.64197,-5.9387 -33.24647,-32.72113 -28.38052,-52.04559 3.67852,-14.6087 15.83286,-27.679 25.72484,-27.66347 10.39385,0.0163 23.90118,16.2973 26.19142,31.56968 2.17298,14.49047 -5.62218,18.9752 -20.40798,11.74118 l -9.22888,-4.51527 1.04373,-11.17706 c 0.89196,-9.55173 0.60097,-11.50082 -2.00105,-13.40346 -10.49609,-7.67493 -19.11947,19.67956 -9.59703,30.44305 4.49734,5.08347 15.82216,11.01144 23.12121,12.10284 15.06343,2.2524 25.64536,-12.17641 24.08505,-32.84064 -0.46578,-6.16857 -1.37201,-13.12223 -2.01384,-15.4526 -1.06023,-3.84944 -0.6841,-3.69441 4.11176,1.69481 20.5618,23.10577 19.03801,47.66023 -3.93976,63.48563 -9.88981,6.8114 -19.79128,8.9017 -28.70895,6.0609 z"
       style="fill:#6c5353;fill-opacity:1;stroke-width:1.69481" />
    <path
       id="path513"
       d="m 1146.789,1116.8319 c -2.8327,-4.3233 -2.5158,-13.1108 1.473,-40.8504 2.1149,-14.7077 3.8371,-22.1029 6.7357,-28.923 3.3286,-7.8319 6.2925,-18.5748 10.1012,-36.6129 l 3.2858,-15.5621 0.055,7.2029 c 0.096,12.4747 -1.5595,55.1195 -2.4996,64.4029 -1.8205,17.9767 -7.7791,40.8823 -12.6211,48.5174 -2.8886,4.5549 -4.4549,4.9926 -6.5303,1.8252 z"
       style="fill:#241c1c;fill-opacity:1;stroke-width:0.847406" />
    <path
       id="path515"
       d="m 1184.6341,1019.2464 c -1.5152,-5.8519 -2.008,-21.60405 -0.9212,-29.44734 0.5167,-3.72858 1.4933,-11.5459 2.1704,-17.37182 1.5049,-12.94908 2.0288,-16.42769 3.1113,-20.65738 2.4251,-9.4757 4.6954,9.36945 3.2514,26.9882 -0.5337,6.51142 -1.1385,12.11095 -1.3439,12.4434 -0.2055,0.33245 -0.7425,6.25423 -1.1934,13.15954 -0.8106,12.4136 -1.9531,18.9106 -3.3255,18.9106 -0.3888,0 -1.1759,-1.8113 -1.7491,-4.0252 z"
       style="fill:#241c1c;fill-opacity:1;stroke-width:0.847406" />
    <path
       id="path517"
       d="m 714.69344,682.74862 -7.86181,-2.68816 0.56483,-4.99242 0.56483,-4.99243 -4.50972,2.28525 c -4.91878,2.49254 -8.78366,2.55931 -14.3513,0.24796 l -2.94835,-1.22398 6.73436,-4.5443 c 3.7039,-2.49936 6.32366,-4.68119 5.82171,-4.84851 -0.50196,-0.16732 -4.25032,0.663 -8.32968,1.84515 -13.06512,3.78612 -17.56376,2.43029 -16.03228,-4.83193 l 0.76156,-3.61127 12.02889,-1.29863 c 6.6159,-0.71424 12.27793,-1.54765 12.58229,-1.85201 0.30437,-0.30437 -0.91556,-0.7892 -2.71096,-1.0774 -18.6131,-2.98777 -26.56802,-7.5333 -26.56802,-15.18126 0,-1.67582 0.15986,-3.04695 0.35526,-3.04695 0.19539,0 2.70103,0.60096 5.56809,1.33546 7.97065,2.04199 14.79342,0.41079 18.61784,-4.45118 2.4196,-3.07601 2.04157,-7.0498 -0.81383,-8.55485 -2.82915,-1.4912 -9.42103,-0.74417 -16.67836,1.89009 -3.14367,1.1411 -5.81618,1.97431 -5.93891,1.85158 -0.98133,-0.98133 -1.84352,-13.07474 -1.12293,-15.75079 1.98812,-7.38334 6.45009,-7.84947 20.80196,-2.17316 6.21646,2.45868 10.88764,3.81804 12.56122,3.65545 2.41405,-0.23453 2.68918,-0.55859 2.92813,-3.44886 0.18485,-2.2358 -0.25874,-3.85422 -1.48296,-5.41056 -1.88458,-2.39586 -2.26797,-6.21384 -0.8837,-8.80037 1.1321,-2.11536 7.06272,-5.50771 11.82621,-6.76469 14.44576,-3.81191 37.70147,-1.95631 49.59512,3.95724 7.02969,3.49518 12.45948,9.97376 11.17173,13.32959 -0.49805,1.29792 -13.04236,6.45509 -15.70137,6.45509 -3.023,0 -3.60719,-1.85413 -2.2391,-7.1066 0.69333,-2.66187 1.2606,-5.39316 1.2606,-6.06953 0,-1.95869 -3.26252,-1.4352 -7.08005,1.13604 -6.04654,4.07255 -5.79159,4.02941 -5.48558,0.92818 0.4005,-4.05889 -1.22017,-3.96801 -8.62177,0.48344 -3.49431,2.10154 -7.2644,3.82733 -8.37798,3.8351 -1.93286,0.0135 -2.00194,-0.17806 -1.52289,-4.2229 0.48808,-4.12108 0.44187,-4.23703 -1.6886,-4.23703 -7.03907,0 -13.19658,9.10474 -16.90638,24.99847 -2.28767,9.80096 -2.07614,28.78371 0.42493,38.13326 2.59107,9.68599 6.43196,16.96514 11.94081,22.62994 l 4.77555,4.91074 -2.5838,-0.0201 c -1.42108,-0.011 -6.1216,-1.22973 -10.44559,-2.70822 z"
       style="fill:#00ffff;fill-opacity:1;stroke-width:0.847406" />
    <path
       id="path519"
       d="m 777.65025,679.40671 c -1.24055,-1.47431 -4.10668,-6.36938 -6.36918,-10.87794 -2.2625,-4.50856 -5.16316,-9.44467 -6.4459,-10.96912 -2.04638,-2.43198 -2.71765,-2.72005 -5.47627,-2.35004 -2.71523,0.36419 -3.27234,0.14005 -4.08498,-1.6435 -0.51753,-1.13586 -0.94097,-2.23793 -0.94097,-2.44903 0,-1.0058 4.21377,-0.0961 14.10859,3.04592 13.10302,4.16075 15.0253,4.1421 15.38379,-0.14922 0.24683,-2.95468 0.13076,-3.09824 -2.96592,-3.66845 -4.80561,-0.88487 -10.14263,-3.45631 -12.53799,-6.04094 -3.60358,-3.88832 -2.53869,-9.42555 3.31767,-17.25129 2.60473,-3.48064 2.77827,-5.13165 0.5394,-5.13165 -2.13555,0 -2.87868,-1.28556 -2.23216,-3.86149 2.16218,-8.61483 19.28263,11.43249 22.91186,26.82883 2.5549,10.83867 1.21945,19.63979 -4.42283,29.14812 -5.41494,9.1252 -6.97258,9.90073 -10.78511,5.3698 z"
       style="fill:#00ffff;fill-opacity:1;stroke-width:0.847406" />
    <path
       id="path521"
       d="m 751.37455,685.83669 c -10.50204,-2.08424 -19.92155,-7.90397 -19.92155,-12.30828 0,-3.88288 11.16365,-12.55037 12.81306,-9.94809 0.39571,0.62432 0.73464,2.27912 0.75317,3.67734 0.0529,3.98854 1.65709,10.00229 3.09083,11.58655 1.5167,1.67594 3.30388,1.20818 8.27622,-2.16614 3.89627,-2.64408 5.61291,-2.03858 8.11278,2.86155 2.24066,4.39206 2.14143,5.81046 -0.47611,6.80564 -2.76864,1.05264 -5.29334,0.95112 -12.6484,-0.50857 z"
       style="fill:#00ffff;fill-opacity:1;stroke-width:0.847406" />
    <path
       id="path523"
       d="m 687.10253,1378.5572 c -2.56721,-0.3017 -2.34816,-0.8678 0.68583,-1.7725 5.20426,-1.5519 8.62018,-2.1537 59.26812,-10.4417 7.92325,-1.2965 18.69589,-3.2274 23.93922,-4.2908 12.90229,-2.6168 12.78761,-2.6047 24.57476,-2.5989 10.88742,0.01 14.93348,0.445 15.16042,1.6474 0.49504,2.6229 -24.88739,9.156 -51.59886,13.2809 -11.73108,1.8116 -29.07306,3.5182 -41.31103,4.0653 -8.69313,0.3887 -27.7662,0.4572 -30.71846,0.1103 z"
       style="fill:#c83737;fill-opacity:1;stroke-width:0.423703" />
    <path
       id="path525"
       d="m 723.11727,1393.8618 c -12.90193,-1.0727 -20.26795,-2.2862 -20.63928,-3.4002 -0.44618,-1.3385 8.49523,-3.1143 29.53704,-5.8662 52.18408,-6.8247 56.94796,-7.6573 73.89732,-12.9154 14.71349,-4.5645 25.86388,-7.5083 27.00239,-7.1288 1.91976,0.6399 -20.09514,9.8989 -41.36945,17.399 -33.03826,11.6474 -45.5044,13.8175 -68.42802,11.9116 z"
       style="fill:#c83737;fill-opacity:1;stroke-width:0.423703" />
    <g
       transform="matrix(4.2319671,0,-0.12930475,3.9587302,388.43674,404.58185)"
       id="g1509">
      <g
         transform="matrix(0.52900596,0,0,0.64883731,-178.24319,-96.795445)"
         id="g1173">
        <path
           d="m 555.37909,729.37125 c -38.84762,-12.55865 -82.02203,-10.83023 -117.64665,-33.2448 -48.9781,-25.19272 -95.96973,-54.69112 -135.42553,-93.52926 -36.66982,-21.37955 18.45298,-61.04098 32.9443,-23.54248 31.08777,29.22908 66.01908,55.30132 106.31282,70.02974 51.29586,25.46525 111.28815,30.38461 167.36747,21.89408 32.02812,-1.83334 49.57917,-31.42612 71.20354,-50.97605 -33.7127,-9.75429 -21.42746,-54.48757 -38.17243,-78.63536 -11.08534,-24.64553 4.5443,-45.03565 29.33916,-44.14348 -5.50347,-50.14161 -6.97598,-101.89279 -10.9858,-152.68978 -3.76121,-69.35786 -8.58399,-139.148 -2.73999,-208.47332 -3.82452,-25.33619 24.31733,-71.035998 41.49049,-30.55239 17.96875,38.17745 11.9433,81.66893 14.976,122.56868 1.24156,65.9382 -0.99813,131.86957 -2.79084,197.77572 1.9526,28.81431 -7.13703,58.78639 0.87067,86.75342 20.04102,10.4247 36.94522,25.42822 24.98245,51.01135 -1.29925,18.34271 5.8419,37.80004 0.40887,56.09459 -27.42352,15.4117 -21.52139,59.03667 -53.7572,71.04038 -28.76571,24.56801 -68.39843,32.87205 -104.74386,38.77369 -7.87785,0.26108 -15.75602,-0.0861 -23.63347,-0.15473 z M 577.11926,724 c 24.18503,-8.27127 38.71286,-62.92128 -1.65713,-45.13083 -12.92475,7.99162 -25.36809,36.28132 -26.91054,42.94612 8.96443,3.15735 19.41178,6.74478 28.56767,2.18471 z m 30.59788,-2.90677 c 28.13945,3.49165 48.15585,-68.62858 7.61822,-48.81821 -18.01364,13.62574 -13.76414,43.65123 -35.86547,53.87781 9.57613,-0.55087 19.0443,-2.39814 28.24725,-5.0596 z M 541.29947,717.75 c 29.59293,-7.97279 23.42454,-60.19115 -8.60376,-35.92678 -12.128,15.98682 -33.39202,41.14554 1.18728,36.73148 l 3.73489,-0.14139 z m 90.52977,-3.27402 c 36.02256,-1.2826 48.77336,-36.31117 37.16241,-66.12137 -19.97981,-20.11669 -31.45677,31.40487 -29.97561,47.65532 0.58265,3.48251 -22.64544,25.17455 -7.1868,18.46605 z M 517.46705,701.12079 c 33.55714,-29.09699 -38.18793,-41.5461 -40.80725,-7.1447 -27.57569,13.81862 37.01951,28.35152 40.80725,7.1447 z m -50.36053,-1.75438 c 38.72244,-15.56078 -2.9471,-56.18066 -21.18454,-20.28377 -27.30688,12.2843 8.57984,23.23754 21.18454,20.28377 z m 213.28314,-8.50952 c 31.25426,-5.26968 20.81482,-72.29569 -4.13496,-64.0899 -13.67864,21.4808 7.85934,50.49954 -4.41962,72.36131 2.98388,-2.6222 5.56236,-5.65809 8.55458,-8.27141 z M 438.69947,680.82762 c 39.755,-18.05575 -22.26118,-48.98096 -35.56321,-19.76134 -24.55015,9.08712 29.45536,25.45062 35.56321,19.76134 z M 708.923,663.46144 c 19.05291,-12.58241 1.09911,-62.69688 -12.26545,-39.32704 3.60648,5.44683 1.57505,59.69174 12.26545,39.32704 z m -310.13414,-1.67987 c 49.81262,-13.75513 -32.69251,-49.76591 -30.51396,-10.69194 9.05199,4.71397 19.44444,18.57272 30.51396,10.69194 z m -26.32803,-24.02411 c 31.1475,-10.6693 -23.03287,-50.44964 -37.14214,-22.44068 -17.85701,7.71355 29.45575,34.82506 37.14214,22.44068 z m 358.30601,-17.05914 c 26.25936,-34.03857 -33.84025,-30.11572 -51.94172,-38.06615 -45.04554,-17.23812 -9.2046,43.91726 17.79868,33.00394 11.93955,-2.51661 24.35128,7.65329 34.14304,5.06221 z m -45.44672,-2.50519 c -3.49125,0.73751 -1.44682,2.92378 0,0 z m -345.04957,-6.73672 c 25.08462,-15.47939 -31.9729,-55.41182 -45.80235,-38.21807 -0.63692,20.30892 24.14945,48.59264 45.80235,38.21807 z m 394.08198,-26.87449 c 9.14654,-33.13811 -36.11536,-40.98971 -56.91449,-52.17256 -19.42539,-7.74467 -47.14234,17.28942 -17.89229,26.6633 5.70239,29.01102 46.82394,25.9544 69.82945,26.63372 z m 2.54589,-33.53226 c -3.66228,-40.46897 -57.87919,-44.84981 -89.23834,-46.04409 -16.91235,16.70653 2.94192,34.51443 19.75341,22.7594 25.05543,1.57596 44.40698,22.44342 69.48493,23.28469 z M 705.51643,510.2 c 7.50919,-23.17894 -13.67369,-44.02146 -32.3399,-40.30741 -5.50962,26.70529 7.82785,36.63573 32.3399,40.30741 z m 0.36015,-48.7 c 13.59245,-29.37331 -20.20239,-33.87708 -37.267,-36.63937 -9.84464,19.50204 33.76829,78.05224 37.267,36.63937 z m 0.20268,-32.01536 c 8.06009,-20.90308 0.75524,-45.14527 -23.35784,-43.67333 -28.4051,-26.98978 -17.24204,47.79873 9.36444,42.36208 l 7.06727,1.24968 z m 2.35694,-45.42395 c 6.4765,-21.05858 -0.73821,-42.48937 -25.4906,-38.76966 -33.36534,-30.7096 -20.25223,38.55201 6.21509,38.94278 4.236,1.61393 16.75313,6.08667 19.27551,-0.17312 z m 1.38216,-64.39402 c 17.30942,-29.38334 -49.016,-42.70085 -48.65552,-39.99269 -10.25555,30.95027 14.45138,75.70342 48.1795,62.98779 1.15808,-7.48252 0.13425,-15.36977 0.47602,-22.9951 z m 0,-52.05417 c 7.79698,-31.33065 -34.29967,-25.76593 -49.86282,-42.64294 -11.89171,29.65147 12.58838,64.98236 46.30831,60.41553 7.47316,-0.27362 1.63071,-13.06333 3.55451,-17.77259 z m 0.14821,-47.14983 c 13.11115,-31.30836 -34.15003,-39.57749 -51.49294,-41.72358 -11.87359,27.54563 27.20043,77.39936 51.1044,52.11441 0.31348,-3.45721 0.31155,-6.92539 0.38854,-10.39083 z M 708.6548,179.25 c 8.28493,-29.39837 -22.14994,-51.9036 -45.35952,-49.95743 -16.75292,30.41327 10.95859,58.43266 42.04102,57.3199 2.88166,-1.09416 3.692,-4.65415 3.3185,-7.36247 z m -4.85915,-43.53466 c 7.84819,-26.94409 -41.80218,-64.692378 -38.54259,-18.71858 8.3361,11.56963 24.06838,20.37864 38.54259,18.71858 z"
           style="fill:#000000;stroke-width:0.92757"
           id="path125"
           sodipodi:nodetypes="ccccccccccccccccccccccccccccccccccccccccccccccccccccccccccccccccccccccccccccccccccccccccccccccccccccccccccccccc" />
        <path
           d="m 356.67913,639.86938 c -16.04881,-6.72499 -40.56553,-23.54258 -9.55205,-31.05304 21.83408,-14.05469 54.72316,33.01543 15.54308,31.75209 z"
           style="opacity:1;fill:#28170b;fill-opacity:1;stroke-width:0.544835"
           id="path137-4" />
        <path
           d="m 532.11614,718.18886 c -38.47519,6.1434 -4.86246,-33.39243 9.57925,-40.98122 38.95218,-6.96235 12.81689,44.77414 -9.57925,40.98122 z"
           style="opacity:1;fill:#28170b;fill-opacity:1;stroke-width:0.544835"
           id="path982-1" />
        <path
           d="m 713.64113,586.33649 c -28.14162,0.43102 -47.72694,-13.39203 -62.46925,-32.82093 -14.58955,-29.73836 43.30259,-22.80758 56.42663,-7.07511 23.09525,4.2149 47.53247,45.88879 6.04262,39.89604 z"
           style="opacity:1;fill:#28170b;fill-opacity:1;stroke-width:0.544835"
           id="path984-7" />
        <path
           d="m 697.19753,386.22717 c -22.83727,1.58713 -45.2972,-41.02236 -27.96524,-48.6444 16.86367,12.51469 50.91576,6.51974 39.73038,38.48728 0.171,8.11222 -2.03994,13.44162 -11.76514,10.15712 z"
           style="opacity:1;fill:#28170b;fill-opacity:1;stroke-width:0.544835"
           id="path986-1" />
        <path
           d="m 693.65984,185.39224 c -20.90975,-6.925 -43.19033,-19.9644 -33.09,-45.10682 2.17898,-25.68324 42.48134,0.21235 46.45544,15.20736 0.1453,10.88397 8.29755,39.22318 -13.36544,29.89946 z"
           style="opacity:1;fill:#28170b;fill-opacity:1;stroke-width:0.544835"
           id="path988-1" />
        <path
           d="m 419.60762,678.81595 c -18.94739,-2.71699 -32.01996,-15.93262 -7.36514,-22.74597 20.97863,-25.9229 61.95711,21.45236 20.34535,26.99754 -4.36853,-1.28712 -8.66439,-2.80214 -12.98021,-4.25157 z"
           style="opacity:1;fill:#784421;fill-opacity:1;stroke-width:0.544835"
           id="path990-0" />
        <path
           d="m 626.64508,715.01979 c 24.41364,-19.69667 4.55351,-59.70995 35.8301,-73.68896 18.57038,22.60547 11.74517,68.91858 -24.93339,71.48205 -2.70967,-1.13481 -8.66313,4.5335 -10.89671,2.20691 z"
           style="opacity:1;fill:#784421;fill-opacity:1;stroke-width:0.544835"
           id="path992-4" />
        <path
           d="m 696.38401,285.02437 c -29.30235,1.74415 -51.48495,-47.05986 -31.376,-58.43059 19.65538,16.47607 55.36423,15.57374 44.4678,50.10931 2.3746,10.19845 -4.68497,9.18753 -13.0918,8.32128 z"
           style="opacity:1;fill:#784421;fill-opacity:1;stroke-width:0.544835"
           id="path994-2" />
        <path
           d="m 728.26537,549.83243 c -26.54557,-12.97136 -57.77623,-23.85055 -83.79455,-22.09286 -10.00277,-42.52433 51.2512,-14.9626 72.14092,-7.41289 8.69394,0.0483 33.70495,35.98532 11.65363,29.50575 z"
           style="opacity:1;fill:#784421;fill-opacity:1;stroke-width:0.544835"
           id="path996-0" />
        <path
           d="m 327.25802,613.38066 c -24.44684,0.47035 -50.3799,-59.23687 -10.4768,-41.4609 16.21823,10.48434 55.74101,38.52281 10.4768,41.4609 z"
           style="opacity:1;fill:#a05a2c;fill-opacity:1;stroke-width:0.544835"
           id="path998-2" />
        <path
           d="m 559.90274,725.04715 c -26.27583,-1.33224 5.32662,-34.13288 14.54281,-45.45585 45.32625,-20.24349 22.70079,47.79214 -6.60366,45.86952 l -4.70804,-0.074 z"
           style="opacity:1;fill:#a05a2c;fill-opacity:1;stroke-width:0.544835"
           id="path1000-1" />
        <path
           d="m 723.26116,620.40388 c -24.18009,-7.21109 -66.90497,-2.33277 -66.28904,-38.44695 20.65658,-4.00327 41.76943,11.55262 63.8637,9.45995 20.41202,0.24987 23.1641,31.05431 2.42534,28.987 z"
           style="opacity:1;fill:#a05a2c;fill-opacity:1;stroke-width:0.544835"
           id="path1002-0" />
        <path
           d="m 695.19827,474.73606 c -24.80907,-2.99409 -41.80619,-71.56411 -5.12435,-42.98775 24.34331,-9.81189 21.33476,47.95578 5.12435,42.98775 z"
           style="opacity:1;fill:#a05a2c;fill-opacity:1;stroke-width:0.544835"
           id="path1004-7" />
        <path
           d="m 696.23624,135.55142 c -20.98291,-0.76255 -44.97979,-26.78083 -20.81015,-41.721182 12.9941,-2.96406 43.03495,43.667042 20.81015,41.721182 z"
           style="opacity:1;fill:#a05a2c;fill-opacity:1;stroke-width:0.544835"
           id="path1006-5" />
        <path
           d="m 488.80172,710.72558 c -28.92815,-3.20515 -16.99803,-13.64984 -2.59862,-30.02091 15.89488,-20.97462 60.25673,2.9078 28.89352,23.30245 -5.86972,8.83096 -17.10161,9.134 -26.2949,6.71846 z"
           style="opacity:1;fill:#c87137;fill-opacity:1;stroke-width:0.544835"
           id="path1008-5" />
        <path
           d="m 488.80172,710.72558 c -28.92815,-3.20515 -16.99803,-13.64984 -2.59862,-30.02091 15.89488,-20.97462 60.25673,2.9078 28.89352,23.30245 -5.86972,8.83096 -17.10161,9.134 -26.2949,6.71846 z"
           style="opacity:1;fill:#c87137;fill-opacity:1;stroke-width:0.544835"
           id="path1010-3" />
        <path
           d="m 386.60589,662.76495 c -26.3144,-5.64672 -19.07733,-31.94803 5.86997,-28.93579 35.67221,2.67491 22.55433,32.68534 -5.86997,28.93579 z"
           style="opacity:1;fill:#c87137;fill-opacity:1;stroke-width:0.544835"
           id="path1012-1" />
        <path
           d="m 694.22646,238.27938 c -26.06807,-6.09101 -46.62205,-40.10449 -31.56254,-61.69072 28.98894,7.9619 63.58749,24.02077 43.85403,59.55995 -3.05929,3.24947 -8.30507,3.38539 -12.29149,2.13077 z"
           style="opacity:1;fill:#c87137;fill-opacity:1;stroke-width:0.544835"
           id="path1014-4" />
        <path
           d="m 696.38388,507.17258 c -28.22953,8.70315 -33.10226,-59.18239 -5.51316,-31.37526 16.82456,-5.58085 20.73142,43.23946 5.51316,31.37526 z"
           style="opacity:1;fill:#c87137;fill-opacity:1;stroke-width:0.544835"
           id="path1016-7" />
        <path
           d="m 672.14816,697.2973 c 14.54284,-20.16696 -19.26536,-74.23387 18.24266,-70.90674 10.41461,29.14037 15.91249,56.95256 -18.24266,70.90674 z"
           style="opacity:1;fill:#c87137;fill-opacity:1;stroke-width:0.544835"
           id="path1018-1" />
        <path
           d="m 454.61523,699.49827 c -35.63518,-3.57963 -2.07673,-31.3356 13.95141,-34.80767 33.0957,2.06539 5.86156,41.85843 -13.95141,34.80767 z"
           style="opacity:1;fill:#d38d5f;fill-opacity:1;stroke-width:0.544835"
           id="path1020-3" />
        <path
           d="m 584.61185,723.19354 c 17.87299,-14.11931 22.07606,-70.08492 53.08116,-48.88132 7.77164,33.81505 -34.87292,56.55763 -53.08116,48.88132 z"
           style="opacity:1;fill:#d38d5f;fill-opacity:1;stroke-width:0.544835"
           id="path1022-5" />
        <path
           d="m 703.79929,667.44739 c -4.7037,-15.89699 -15.23377,-69.29963 10.81287,-40.36718 4.48412,12.07049 -0.0561,37.12483 -10.81287,40.36718 z"
           style="opacity:1;fill:#d38d5f;fill-opacity:1;stroke-width:0.544835"
           id="path1024-7" />
        <path
           d="m 694.74951,428.423 c -25.52304,5.37081 -40.57694,-57.32876 -16.28188,-45.82871 11.73831,10.96838 38.31299,5.93876 29.60382,32.35301 -0.83763,10.44047 -0.65083,17.52017 -13.32194,13.4757 z"
           style="opacity:1;fill:#d38d5f;fill-opacity:1;stroke-width:0.544835"
           id="path1026-9" />
        <path
           d="m 697.20127,345.57303 c -29.21076,-5.32582 -40.74595,-32.52083 -35.86709,-59.62416 -5.27406,-25.6779 28.80121,8.93312 41.89673,7.9866 9.16877,5.70116 14.81829,58.29698 -6.02964,51.63756 z"
           style="opacity:1;fill:#d38d5f;fill-opacity:1;stroke-width:0.544835"
           id="path1028-4" />
      </g>
      <path
         d="m -11.609059,268.04212 c 7.9043154,-6.58514 21.665196,-15.49348 30.530283,-5.80932 1.901613,8.65336 -9.8407352,13.10062 -14.2852762,19.11273 -7.4276329,6.45372 9.9418772,-3.5617 10.9259892,-7.35128 9.880915,-5.2465 5.951116,-18.58265 -4.866974,-18.10258 -7.2198556,-0.5859 -22.567817,6.62202 -22.304022,12.15045 z"
         style="fill:#000000;fill-opacity:1;stroke-width:0.264583"
         id="path1470" />
      <path
         d="m -11.02513,267.78267 c 2.1328927,-5.31872 -5.804627,8.73743 0.750981,-1.50625 -10.523093,3.75582 3.8786782,4.17504 1.9214333,-1.56344 3.4870343,0.53814 10.8522482,-6.54335 16.0203364,-5.76835 3.5797593,1.63703 14.1948263,1.3565 10.3684783,7.60479 -3.507928,6.65737 -14.2082747,12.12961 -15.2263661,17.71552 5.8384272,-5.11783 24.0564881,-16.61222 15.1699041,-24.21397 -7.000976,-3.33395 -14.931166,-3.64809 -21.8194437,0.64825 -4.0625498,2.69583 -11.5163703,8.96959 -7.9964003,8.01513 0.440809,-5.5857 -4.577366,7.59691 2.771896,-1.88823 1.0888885,-2.99845 -5.898645,-0.40321 -1.960819,0.95655 z"
         style="fill:#000000;fill-opacity:1;stroke-width:0.264583"
         id="path1472" />
      <path
         d="m 12.866139,257.31962 c -6.4349824,-0.88075 6.643798,2.84185 -1.836398,2.50538 7.914821,0.37875 -4.0999646,-1.2415 4.084114,0.54556 2.700405,-6.12567 -9.8043043,-1.87304 -2.247716,-3.05094 z"
         style="fill:#550000;fill-opacity:1;stroke-width:0.264583"
         id="path1474" />
      <path
         d="m 1.053967,281.12265 c -10.5036919,-9.34326 -14.191188,-17.34074 2.5680931,-21.43793 12.7504559,-3.01384 21.0733649,7.41318 6.7590419,15.34783 -2.5737215,0.57663 -6.4558358,10.05848 -9.327135,6.0901 z"
         style="fill:#550000;fill-opacity:1;stroke-width:0.133635"
         id="path1476" />
    </g>
  </g>
</svg>
