<svg xmlns="http://www.w3.org/2000/svg" width="1258.425" height="1882.235"><path d="M904.984 2037.334c-60.36-12.905-122.085-28.18-186.468-16.25-66.771-14.898-141.85-1.791-207.04 5.916 10.047-18.984-25.667-4.63 11.792-19.393 32.219-13.884 73.577-64.354 77.547-98.369-59.32-48.045-128.121-93.41-155.777-168.938-34.153-49.36-20.914-114.158-8.862-172.494 6.846-27.036-41.218-134.581-24.83-50.14-1.693 64.185-53.858 77.54-79.778 21.24-.277-44.243-7.18-92.37 12.48-132.912-8.998-61.57 10.663-137.398-39.333-183.93 7.6 37.973 33.925 64.285 28.014 87.603-62.614-61.268-58.83-154.482-66.143-234.426 2.609-44.382 11.152-92.274-43.294-42.14-41.892 29.233-136.227 7.844-71.419-40.77 42.441-22.614 124.053-17.81 90.558-69.998-9.615-35.59-10.894-76.668 5.334-57.895-6.438-41.214 96.293-42.544 23.127-55.809 33.07 1.308 96.673-7.174 22.038-15.12-58.702-20.735 124.227-3.097 21.876-23.35-33.572-2.657-69.603-42.618-13.088-15.079 48.231 8.12 66.765 23.859 38.66 38.667C414.41 770.52 478.242 717.15 547.46 680.516c128.822-63.11 273.51-82.603 409.079-125.602 55.912-10.238 117.36-88.915 159.155-76.96 55.303-4.184 53.713 146.718 105.511 89.046 43.65-29.999 166.636-118.387 149.89-107.214 53.628-3.431-35.413 90.014-41.071 117.933-34.257 46.47-108.139 70.451-56.864 135.948 16.862 99.129 81.664 189.615 64.576 293.79-17.054 43.821-5.128 94.86-21.252 140.882-11.552 34.16-28.745 48.557-12.921 9.792-37.051 56.35-34.855 130.485-53.13 193.602 27.491 56.65-11.722 144.775-73.211 134.946-39.604 36.538-82.13 72.021-33.385 116.321 18.214 79.54-8.388 163.743-42.286 236-18.327 64.095-159.555 37.798-100.673 118.359 6.503 38.874 109.967 87.841 27.66 71.232-43.244-12.206-79.242 21.84-123.555 8.743m36.62-5.48c36.384-23.434 125.462 6.591 63.204-46.55-40.272-65.496-59.906-140.26-58.35-217.568-1.844-34.45-1.578-52.486-16.01-46.49-69.493 22.17-142.546 43.843-216.119 35.087-27.597-25.76-132.366-60.847-65.523 1.433 30.594 20.22 92.44 74.44 25.393 35.033-38.517-56.488-85.726-39.814-45.477 21.473-4.751 40.957 117.702 97.79 27.684 60.498-20.872-39.903-66.143-60.738-68.995-9.634 34.48 16.184 28.192-55.229 37.495-1.383 3.773 46.23 123.532 113.62 32.232 75.345-40.133 9.406-53.343-60.686-12.268-11.59 15.988 8.467-41.038-88.365-36.64-11.538-10.928 46.262-127.434 111.017-24.384 98.46 76.019-19.686 151.836 5.64 230.17-6.143 41.768 12.266 85.944 19.106 127.589 23.567m-324.398-33.106c-48.546-4.41-56.152-49.658-8-11.38 20.72-1.193 44.621 13.326 8 11.38m19.879-13.058c-47.725-1.11-44.154-90.88-16.17-19.772 10.86 10.128 56.636 18.46 16.17 19.772m16.58-9.412c-43.887-5.022-64.305-89.061-16.012-21.046 9.935 9.746 53.377 20.433 16.012 21.046m33.541-125.115c-46.724 2.583-82.583-111.261-31.49-32.196 3.613 19.417 86.535 35.584 31.49 32.196m305.448 44.084c-22.377 5.555-3.767 14.15 0 0m-9.233.19c-13.209 2.486-1.13 3.823 0 0m35.119-4.527c21.06-8.577-34.557 8.653 0 0m-410.056-6.243c7.273-31.793-33.23 19.768 0 0m374.065-1.098c33.815-24.326 55.097-48.772 9.01-9.694-55.37-.547 64.69-38.07 55.274-76.138 19.8-23.437 61.616-127.054 39.635-103.404-24.725 52.06-73.443 158.512-124.784 151.793 2.653-55.726-3.55-74.553 17.972-125.49-37.981 37.2-37.471 148.833 2.893 162.933m18.535-6.73c41.56-40.494-47.432 33.043 0 0m24.789 4.138c54.228 4.867 101.472-110.528 92.51-113.977-5.008 40.685-107.18 117.166-92.51 113.977m-.489-14.977c22.525-19.626 63.394-105.538 21.282-37.667-10.822 19.27-77.13 85.3-21.282 37.667m38.783 6.194c56.046-43.967-8.168 9.577-11.88 6.707zm-63.575-7.945c-18.047.952-17.145 12.656 0 0m40.493-7.928c31.921-39.309 79.565-106.246 78.1-142.567-23.568 52.763-58.073 114.15-88.332 153.211zm-33.641-1.306c26.2-17.56-35.59 15.893 0 0m43.246-1.015c19.586-22.078-16.602 12.112 0 0m-465.417-5.796c4.694-18.447-58.048-67.962-21.423-15.435 2.53-3.32 16.409 34.592 21.423 15.435m400.08-3.423c47.605-50.647-20.485 12.26-1.537-23.114-15.137 2.797-21.265 35.959 1.538 23.114m116.17-56.391c25.838-32.148 44.83-142.047 17.515-43.574-9.147 29.353-90.857 134.365-27.798 62.379l4.618-7.633zm-592.137 18.41c-12.383-34.266-22.33-69.863-44.18-94.837-41.038 18.706 69.975 148.152 44.18 94.837m29.74 10.15c-39.598-62.245-12.694 1.183 0 0m433.607 1.132c-7.014 1.12-3.364 20.166 0 0m69.978-1.082c2.972-7.906-12.286 19.284 0 0m-56.171-2.281c-18.661 8.04-.235 5.364 0 0m-372.604-3.186c-11.929-15.16.622 22.848 0 0m386.833 4.467c60.526-71.169-22.539 9.974 0 0m7.77-2.333c6.822-9.537-9.95 9.697 0 0m38-2.667c3.27-9.464-6.339 9.568 0 0m-70.504-3.048c21.918-53.281-11.413-58.892 0 0m24.545-3.356c-12.744 6.55.496 4.356 0 0m-405.166.071c-.487-60.356-42.487-33.835-1.498 1.7l1.595.565zm413.645-15.884c6.156-26.814-25.287 39.902 0 0m-442.398 2.445c-36.254-51.844-4.464 9.357 0 0M995.873 1788c-7.232 6.956-2.435 7.437 0 0m84.598-5.456c10.578-42.094 57.904-83.575 32.069-98.728-1.81-106.859-5.677 48.977-29.2 76.62-4.767 6.685-22.542 48.82-2.869 22.108m-35.09-16.001c27.46-21.522 53.561-143.6 32.195-129.148-11.7 42.469-27.194 126.308-44.365 145.605l5.27-6.759zm-21.442 6.312c6.136-35.936-12.037 29.479 0 0m-26.16.41c17.922-27.204 6.686-124.105-4.429-40.4-5.624 1.842-6.91 62.468 4.43 40.4m14.15-3.931c14.161-49.484-15.662 31.197 0 0m-502.864-16.667c-27.156-38.428 21.977 36.781 0 0m75.614 8c-2.12-33.035-105.205-112.835-44.078-36.323 14.257 8.5 27.553 39.146 44.078 36.323m-56.886-6.656c-18.127-49.382-35.247-101.235-68.108-125.477-6.022 40.02 31.063 115.897 15.03 43.046 13.005-24.575 30.228 90.346 53.078 82.431m457.862-19.677c19.832-74.3-27.85 69.282 0 0m54.505 1.71c-4.968-39.598-1.43 31.907 0 0m-232.47 4.951c31.5-3.33 132.178-19.618 131.31-32.219-50.838 18.104 76.209-48.135 89.775-79.317 32.334-29.542 84.177-115.33 69.016-85.296 5.623-26.626 53.26-81.42 24.744-61.335 45.89-50.343 78.257-160.829 81.942-205.494-23.513 89.936-2.149-47.525 10.69-73 2.162-50.489 38.72-85.133 12.114-123.739 25.903 1.268 4.449-96.694 2.547-18.712-7.287 47.782 1.24-118.74 1.253-80.148 10.873-45.78-41.511-106.047-45.644-171.47-8.124-49.77-14.637-142.637-79.948-89.06 65.414-42.147-108.1.613-16.626 21.298 62.71 45.963 86.878 120.672 116.483 189.001 16.286 36.19-6.257 87.2-6.272 18.464-24.113-65.559-47.8-135.112-100.064-183.917-29.191-46.614-93.866-39.157-101.906-42.415-60.984 6.164-102.585 5.56-161.979 4.716-56.481 13.442-135.016 16.325-194.108 48.717-75.636 36.98-153.513 75.494-211.31 138.171-33.778 38.744-65.508 85.581-48.944 128.284 13.274 37.362 26.622 76.48 49.932 18.618 41.312-56.995 108.773-96.407 176.874-101.514 84.462 14.616 128.384 99.353 159.127 170.456 22.138 45.877-6.908 122.62 9.097 155.675 28.318-37.274 94.061 10.863 56.747-52.789-20.818-101.258 15-229.508 120.503-267.852 68.783-27.075 152.91-42.248 219.294-1.117-58.118-9.615-129.335-27.058-194.315-2.887-65.912 12.15-118.663 76.409-118.49 107.217-31.029 58.789-29.785 147.293 4.008 201.65 7.451-4.75 73.6 21.226 35.163 57.748-37.295 24.916-53.806 26.476-103.443 33.49-42.751-9.739-112.183-20.037-53.602-76.316 44.965-32.117 1.088-89.28 21.365-134.31-34.264-70.23-69.435-173.84-163.505-173.789-44.732-6.486-157.846 49.1-57.14 13.455 22.71 4.808-87.217 23.216-90.833 59.774-36.211 32.27-45.907 115.914-73.697 32.502 14.865 70.109 60.497 136.348 110.328 187.67 62.63 50.38-54.897-13.345-55.532-48.402-13.78-21.54-69.117-119.687-32.572-39.12 17.545 59.112 87.513 140.363 111.141 159.607-72.11-18.711-89.917-108.24-125.528-165.15-21.619-26.92 35.698 82.016 50.863 108.463-1.492 39.01 97.177 90.546 69.251 95.872-60.11-19.735-111.417-173.25-114.521-147.708 2.255 16.39 43.051 94.995 7.18 54.794 4.883 46.206 45.305 165.003 59.161 146.563-25.025-22.403-50.815-106.309-60.514-113.294 17.675 78.551 57.389 127.268 63.554 187.892-10.326 50.186 55.933 91.686 91.04 127.279 60.694 35.755 110.983 100.08 187.465 104.29 22.826.75 45.774.992 68.527-1.296m71.878-101.661c-18.085-51.077-186.273 8.9-69.402-28.156 18.62-10.766 105.651 8.564 69.402 28.156m-95.987-45.07c-54.913-15.321-187.234-15.645-171.757-88.727 62-41.094 148.783-59.308 215.311-17.203 63.163-25.235 147.951-43.52 207.384-1.977-53.144 85.176-155.265 115.909-250.938 107.907m84.959-10.34c49.664 3.774 165.501-64.907 142-90.257-57.374 32.17-119.917 70.254-190.771 72.371-69.416 4.423-150.472-13.96-206.563-41.3 55.577 49.648 140.433 58.113 212.853 61.713 14.18-.398 28.393-.654 42.48-2.526m-48.667-25.592c36.867-5.887 18.98-5.461-16.198 1.732zm-26.79-4.49c18.83-59.23-6.672-39.79-19.354-9.31-35.66-8.313-137.491-9.452-45.468 6.854 20.409-1.561 46.536 12.886 64.821 2.455m78.79-2.83c34.875 1.989 101.375-44.056 29.08-25.502-39.959 36.615-14.931-55.6-40.904-7.702 13.01 20.351-25.335 46.579 11.824 33.203m-28.333-4.762c38.842-28.816-57.498-56.171-39.563 2.283 13.216-.158 26.405-1.096 39.563-2.283m-165.824-21.111c18.777-33.987-82.558 6.956-13.843 9.337l8.966 1.257zm51.49 8.407c58.182 22.671 59.07-46.337 9.125-25.354-.344 7.1-32.208 37.792-9.125 25.354m-36.762-3.538c67.271-7.318-1.93-55.762-7.597 3.12zm269.955-14.04c43.72-19.62 29.41-31.96-11.189-22.968 7.39 23.277-25.01 50.112 11.189 22.968m-75.126 7.113c48.437 4.504 83.772-43.253 14.96-25.41-14.835-7.461-23.143 25.567-14.96 25.41m-157.332-11.653c7.773-25.086-15.379 25.722 0 0m-78.068 1.169c59.056-28.979 127.448-9.147 191.837-8.315 26.031-20.67 225.748-21.815 158.432-25.868-74.12-35.01-152.794 35.245-219.334 1.031-48.216-19.525-150.85 1.565-163.167 34.672l17.75.175zm206.667-78.466c-40.89-17.984-26.64-98.64-5.44-31.522-18.423 10.596 31.502 29.251 5.44 31.522m-172.667-2.232c-36.828-32.59 64.323-37.928 6.465 1.174zm78-5.617c17.071-23.576 35.696-78.517 18.58-15.694-6.356 4.185-10.015 14.716-18.58 15.694m-118.408-153.615c10.845-28.162 60.92-82.91 7.541-30.883-65.308 53.609 4.392-4.468 26.668-30.91-32.735 23.277-128.057 60.049-41.16 17.867 48.727-10.885 70.651-75.608 9.359-28.148-74.804 16.765-158.523 6.23-218.33-44.456 40.652-75.182 150.163-102.027 219.738-51.015 63.081 32.476 60.814 61.454 40.2 106.37-14.43 13.815-36.264 64.065-44.016 61.175m-16.259-75.431c75.988 11.372 73.323-77.24 17.334-71.516-9.375 96.453-167.709 34.53-103.164-34.328-61.84-13.795-150.806 81.348-42.66 92.172 40.173 16.613 85.183 18.644 128.49 13.672m-17.891-31.622c41.938-18.68 23.365-70.444-3.649-16.66-66.58 40.504-57.114-55.517-32.87-60.358-80.986-3.427-16.203 105.79 36.519 77.018m-6.389-18.472c32.51-33.098 4.714-47.627-21.486-16.976-34.506-13.712 41.91-49.595-18.126-25.398-23.86 26.421 13.49 54.728 39.612 42.374m-8.309-25.162c26.654-26.57-48.65-6.052 0 0m35.834-13.79c-11.286-12.469-1.713 11.42 0 0m280.36 142.441c-27.831-13.902-81.808-115.78-15.04-64.451 36.973 7.168 57.714 38.495 10.769 17.57 28.823 13.655 72.912 42.514 14.271 22.63-79.317-87.665 48.018 145.534-1.33 24.424-2.616 5.438-5.711 1.272-8.67-.173m42.395-71.9c-39.718 2.935-133.943-70.676-46.812-26.597 11.696 12.678-9.597-64.453 4.65-67.049-24.381 15.222-64.273 77.08-27.533 18.498 44.15-53.323 114.73-79.871 182.65-57.097 39.06 14.651 144.234 36.839 62.379 68.179-39.22 54.427-112.021 69.716-175.334 64.066m62.668-8.422c38.926 3.406 153.382-59.495 113.52-88.919-45.204-35.697-142.18-33.572-153.612-23.723 72.277 16.167-46.306 154.162-30.568 108.9 22.592 7.986 47.282 6.24 70.66 3.742m-80.668-19.308c-36.992-30.39 1.987 12.813 0 0m36.058-8.751c24.281-31.675 6.859-96.728-2.957-29.211-18.844 34.203-73.73-16.54-28.541 27.52 7.94 4.585 25.418 14.453 31.498 1.691m-12.036-24.917c40.233-64.341-64.271-37.309-38.076-13.863 26.45-67.012 43.622 1.704 19.485 14.466l9.735 2.24zM950.34 1100c8.785-38.431-35.99 13.915 0 0m-8.652-19.964c-9.106-2.679-6.897 11.091 0 0m-11.408-7.072c-9.832 8.688-5.549 9.422 0 0m-219.205 50.464c-18.283-33.186-117.445-105.722-110.507-79.698 81.59 43.485-59.196-17.802-87.232 12.966-28.586 11.442-85.605 46.387-26.915 6.718 66.346-26.389 115.888-45.832 174.784-7.127 19.156 6.6 73.471 55.415 49.87 67.141m163.416-40.333c21.541-28.561 42.12-45.416 10.707-25.133 22.632-33.78 118.371-65.617 117.078-45.662-53.372-5.486-117.168 55.48-127.785 70.795m6.613-48.58c13.853-12.381-7.822 9.932 0 0m250.768-11.451c-27.377-19.298-159.925-23.512-69.333-28.27-25.485-15.98-156.497 29.055-99.15 1.04 40.615-10.902 131.8-21.615 147.76 9.057 6.82 1.99 58.446 17.697 20.723 18.173m-56.361-26.203c-5.28-2.802-1.246 3.005 0 0m-363.639-69.714c-35.198-10.645-78.165-9.252-11.848-15.535 66.76 13.037 135.7-30.65 207.85-4.048 7.999 25.292-77.445-10.548-104.438 2.834-33.776-16.61-59.704 27.575-91.564 16.749m-64-41.756c60.032-23.252 147.09-47.558 215.333-23.008 22.44-5.142 101.642-11.248 85.16 15.06-48.83-24.625-102.526 1.329-155.672-21.009-45.924 20.233-105.571 9.611-144.821 28.957m4.738-40.058c33.371-72.624 117.436.679 173.369-48.58 53.632-4.766 103.28 15.808 152.96 30.79 53.116 23.758-140.767-19.72-86.55-15.21-74.95-23.678-147.691 27.782-219.061 8.634-5.229.167-17.68 35.222-20.717 24.366m315.204 873.809c11.674-37.828-20.936 35.67 0 0m-367.96 8.191c-1.478-19.032-9.424 4.529 0 0m453.912-21.666c12.203-57.557-26.166 20.137-1.82 12.252zm-107.227 14.666c-1.613-4.875-3.289 4.75 0 0m-344.73-8.214c-3.27-17.37-86.947-69.806-33.176-18.804 8.01 5.684 20.162 26.117 33.176 18.804m379.396-6.452c3.27-9.464-6.339 9.568 0 0m-15.927-3.802c48.318-32.695-29.002 6.444 0 0m17.491-8.661c20.264-22.523-30.56 27.11 0 0m-16.18-3.602c9.252-10.81-18.375 14.77 0 0m23.125 1.995c-1.322-4.903-2.744 6.788 0 0m62.815-14.11c26.86-80.456-31.415 54.266 0 0m-464.024.047c-77.289-59.454 19.475 28.582 0 0m-71.497 4.283c-.627-11.508-11.705.6 0 0m520.763-5.817c11.374-42.12-14.951 23.954 0 0m-46.757-1.727c20.206-19.047-24.709 15.27 0 0m2.361 2.394c4.332-6.627-7.584 8.418 0 0m-488.17-6.837c-2.764-9.207-7.133 2.592 0 0m530.5-12.76c-6.38 2.115 8.917-45.25 38.192-56.197-17.601 62.612 17.604 9.683.565-8.722 5.48-25.353-104.152 106.55-42.59 42.085-30.324 34.775-8.163 11.07-2.623 34.529zm-595.554-27.016c5.101-76.294 4.363-3.474-5.382 16.946zm75.632 28.387c-9.887-61.704-43.88-21.027 0 0m541.348-25.774c-10.216.172-2.61 23.308 0 0m78.58 4.935c5.091-43.855-18.282-8.797 0 0m-657.937-20.336c-25.213-53.457-12.64 11.784 1.807 15.052l.05-.605zm619.342-8.642c-11.157-36.546 5.96 59.998 0 0M505.207 1613c-12.434-10.092 9.432 13.11 0 0m-6.667-5.282c-37.97-46.069-50.147-44.108 0 0m614.666-6.416c-9.171-44.878-12.13 17.176 0 0m16.368-7.302c-26.667-50.064-10.01 2.815 0 0m-27.701-24.333c6.073-9.77-11.802 8.872 0 0m-718.762-12.07c18.793-38.08 23.873-113.18-5.618-136.597-60.18-13.46-49.374 115.874-13.979 141.298 6.53.604 15.636 2.739 19.597-4.701m6.384 3.07c19.875-21.488-19.613 9.84 0 0m730.953-14.085c11.48-16.377 26.313-41.604 25.814-38.16-29.993 41.128-53.787 40.955-9.137-.711 27.171-23.45 30.587-34.011-2.585-10.361 55.99-93.91-50.183 42.087-22.46 59.522zm-3.242-27.29c13.484-20.813 16.993-13.011 0 0m30.74-16.802c27.296-34.721-40.748 43.76 0 0m-707.682-3.202c8.192-33.108-58.478-123.44-23.15-40.604 6.98 6.607 10.672 51.065 23.15 40.604m733.355-13.614c7.848-15.696-29.516 31.884 0 0m-19.08-5.388c-5.775-4.921-5.042 10.826 0 0m24.057-8.43c-8.753-1.311-.148 9.235 0 0m36.365 2.972c54.374-29.3 7.338-170.078-20.287-74.495-20.192 45.114-3.002 71.513 34.5 47.682-16.849 10.185-66.89 19.475-14.213 26.813m-40.013-4.876c2.152-54.152 1.84-68.818-15.56-11.49-15.593 17.027 14.45 10.055 15.56 11.49m-793.915-55.41c-23.036-48.537-1.695-62.14-13.617-130.425 30.714-62.572-86.886-112.23-11.572-165.978 26.677-70.514-63.065-51.117-41.331 12.35-11.574 70.095 53.043 133.555 35.376 200.7-5.512 30.97-6.222 89.555 31.144 83.353m812.664-33.959c25.51-98.369-26.796 69.109 0 0M408.657 1390c-6.75-32.495-38.075-95.254-14.084-24.39 1.723 1.07 13.59 35.876 14.083 24.39m840.067-6.974c-14.626-65.56-2.749 23.326 0 0m-20.313-22.484c2.23-27.545-28.39 10.611 0 0m-19.317-18.939c25.613-74.53-25.885.624 0 0m-380.64.651c17.387-34.866 58.654-41.96 28.308-.587 63.38-4.966 37.84-85.46-14.9-55.74-29.743-3.801-121.221-6.573-109.989 45.74 19.783 37.976 34.978-52.663 59.726 8.662 9.868 5.292 27.74 11.16 36.856 1.925m395.419 4.037c-2.865-27.302-13.404 7.506 0 0m-378.667-4.93c-5.397.01-3.41 5.439 0 0m401.19-10.361c7.676-35.265-10.851 30.113 0 0m-404.278 1.801c-7.909 2.7-5.08 11.919 0 0m49.22-2.62c17.035-16.477-19.837 9.437 0 0m350.861-15.603c11.064-32.019 20.442-170.403 35.211-141.486 5.585-35.687 36.518-137.712-11.19-138.715-21.554 21.982-33.185 70.812 2.884 59.302 4.202 75.783-27.46 145.672-58.26 205.853-1.59-5.152 27.506 21.948 31.355 15.046m-858.326 1.167c-2.37-9.05-4.122 7.208 0 0m888.014-107.412c13.03-93.848-25.587 128.557-5.291 29.217 1.875-9.718 3.708-19.446 5.291-29.217m-60.233 47c8.96-43.812-10.38 21.974 0 0m17.789 3.5c7.836-47.197 50.547-128.4 20.071-161.503-2.664 44.611-44.656 140.376-20.071 161.502M363.873 1207c-6.782-25.396-9.593 23.745 0 0m-11.73-12.333c17.558-25.598-5.27-110.278-11.955-36.63.326 5.658 5.636 48.38 11.955 36.63m-50.937-14.714c-4.284-38.757-26.458-121.76-15.408-34.876-.178 2.398 15.637 68.428 15.408 34.876m993.646-27.511c37.722-87.682 16.756-184.884 14.608-275.666 2.57-34.608-36.605-101.103-19.515-27.525 11.938 39.757 16.568 136.527-14.973 153.687 31.797-81.955-36.146 11.317-27.095 45.285 53.269-70.663 62.963 48.538 44.544 90.777-4.551 21.342-11.626 54.145 2.43 13.442m-911.488-11.657c-6.989-11.128 6.197 14.345 0 0m-79.101-44.874c12.146-55.797-4.074-21.19-6.589 15.09l1.43-4.374zm-21.723-9.578c-3.219-9.268-3.22 9.269 0 0m14.593-13.266c24.947-35.863-12.453-93.563-8.436-27.9 5.443.937.596 72.607 8.436 27.9m73.731-5.506c-22.526-37.092 17.77 43.384 0 0m-31.601-7.32c29.693-19.038-15.708-11.377-21.519-10.472-1.902 30.077-3.321 33.412 21.519 10.473m102.242-1.79c9.354-13.532-22.419 23.568 0 0m-285.632-20.497c-20.168-29.602-28.19 2.868 0 0M346.564 1034c1.152-41.057-36.914-69.042-15.16-7.952 3.557.267 9.51 11.705 15.16 7.952m-159.71-3c28.814-14.226 78.537-48.037 20.569-16.705-4.812 3.26-62.724 26.29-20.568 16.705m32.49-1.98c27.81-9.901-31.575 7.764 0 0m-49.94-2.71c16.655-9.873-31.679 3.716 0 0m63.171-3.052c-5.8 1.583-2.578 3.773 0 0m-12.035-4.519c33.168-18.769-43.752 18.066 0 0m263.965-4.54c-5.528-2.162-21.518 21.6 0 0m-169.464-8.345c-12.24-51.789-3.351 49.374 0 0m-78.501 10.48c36.858-12.279 66.479-45.412 13.741-11.083-.216 1.108-33.534 17.006-13.741 11.082m-83.922-1.934c7.69-9.215 20.43-27.724-7.307-.538l2.945 2.359zm17.922-1.677c-.267-5.554-19.564 10.141 0 0m22.774-8.846c53.11-28.208-38.041 12.276 0 0m179.1-10.432c5.95-38.238-21.72 25.415 0 0m-191.027 6.274c15.812-6.972-20.119 4.878 0 0m1084.247-19.386c42.064-22.786 13.015-123.329-4.402-36.812-.831 12.352-15.262 95.564 4.402 36.812m-962.879-7.552c86.333-51.501-94.687 46.08-12.465 6.269zm231.785 13.552c9.415-11.853-12.548 12.035 0 0m-322.93-2.298c23.385-12.345-47.314 16.27 0 0m100.375-1.422c13.432-32.724-26.862 14.644 0 0m52.36-7.28c24.375-34.37-22.81 5.198-12.088-5.52.57 4.882 8.627 34.266 12.088 5.52m-118.509.16c-9.202.487-28.654 14.628 0 0m6.287 3.526c29.002-19.288-37.13 19.866 0 0m997.002-30.29c30.555-50.696 37.95-85.349 8.032-122.544-18.253-53.575 6.154 57.85-9.415 80.697-.223 11.886-8.502 94.516 1.383 41.847m-856.635 8.51c10.158-36.525.428-16.18-3.428 6.53zm-31.643-3.202c14.778-33.515-35.467 20.927 0 0m968.53-12.37c-4.294-19.793 2.994 37.89 0 0M285.4 945.527c73.02-32.38 135.292-83.743 201.644-127.448 57.138-37.114 99.087-74.483 172.048-96.691 77.136-21.082 156.18-38.3 236.585-47.472 97.395-16.055 197.23-32.14 285.741-78.697-32.895-33.414-61.549-162.141-120.328-91.062-69.626 43.85-145.342 77.075-227.008 89.863-133.027 35.444-272.076 65.246-384.209 150.113-64.361 36.729-128.625 71.18-194.603 103.595 17.9 58.717 116.455-31.394 155.27-45.873 33.932-13.845 130.31-82.229 50.931-24.42-68.233 32.961-127.165 87.64-203.598 99.951 4.348 21.435-8.734 84.418 27.527 68.14m-1.527-46.32c68.423-24.241 127.13-70.29 187.214-111.033 23.059-23.49 141.714-84.146 50.953-32.258-78.022 48.748-146.79 116.757-236.088 144.257zm166.41-137.179c79.547-62.26 182.887-78.152 280.076-95.408 46.098-11.212 154.848-51.056 157.497-38.287-89.31 22.283-176.132 53.446-267.747 66.402-58.142 7.536-130.72 44.595-169.827 67.293m203.316-99.987c74.02-15.613 147.412-38.706 218.807-65.502 40.502-6.053 154.891 28.04 146.636 4.453-78.812-11.407-159.46-1.822-232.08 31.126-38.182 14.45-107.59 34.021-133.363 29.923m257.962-27.08c52.162-1.591 165.753-46.02 175.478-40.391-58.707 18.372-117.102 45.604-179.833 44.352l3.357-3.054zM307.873 946.333c8.378-7.125-14.882 7.474 0 0m68.926-.386c13.961-28.922-13.168.01 0 0m-59.15-2.977c19.305-10.023-13.944 3.265 0 0m84.796-16.91c4.76-18.797-13.587 22.614 0 0m834.704-22.529c-4.927-47.471 2.112-105.151-23.858-163.16-24.35-5.479 13.96 99.784 8.971 135.928-13.46 13.592 21.098 84.95 14.887 27.232m-813.314 12.065c22.294-19.195 68.38-63.587 15.602-21.056-14.097-5.193-45.21 46.15-15.602 21.056m-28.629 6.07c-1.655-5.256-4.784 5.077 0 0m-6.343-17.067c10.949-9.996-46.202 28.815 0 0m-6.323-10.36c-6.983 1.185-7.296 6.408 0 0m827.221-47.906c-9.533-47.257-9.073-126.313-44.363-150.766 26.364 45.645 27.305 139.583 45.496 165.044zM477.673 858.09c37.95-19.917 58.154-41.331 6.565-5.837-3.287-2.863-42.841 29.79-6.565 5.837m13.63-2.727c43.434-28.34-47.115 27.576 0 0m785.146-12.03c-18.642-61.049-23.976-52.915 0 0m-800.243-13.39c33.159-23.777-40.924 25.467 0 0m13-2.458c-10.484 4.93-10.859 10.225 0 0m42.667-2.644c-15.37 9.456-7.834 8.728 0 0m18.667-8.453c39.606-20.796 67.448-40.356 10.03-9.296-8.637 2.435-41.98 31.616-10.03 9.296m-30.667-3.342c-32.133 12.167-3.626 4.677 0 0m755.958-31.38c-11.184-27.925-72.407-147.741-19.716-66 25.767 43.37-14.283-112.163-38.444-36.383 13.793 52.56 32.396 89.147 58.869 131 .604-9.534.78-19.14-.709-28.616m-725.291 2.656c14.532-14.17-32.539 19.972 0 0m67.375 2.08c68.026-37.144-9.008-5.968 0 0m-42.371-4.448c25.441-14.274-34.756 15.628 0 0m46.114-6.244c58.394-33.043-48.686 22.505 0 0m-18.859-3.41c34.419-12.025 63.226-33.206 12.015-7.758 4.453-6.386-36.671 22.683-12.015 7.758m-16.26-9.826c40.395-13.79 60.717-37.587 6.464-8.665-9.104-4.4-35.841 26.73-6.463 8.665m85.105-7.45c33.906-8.447 91.06-31.831 23.997-13.128-7.728.479-62.218 25.172-23.997 13.129m16.896-17.357c3.645-5.482-13.594 5.883 0 0m-3.334-16.105c57.168-12.845-72.145 11.64 0 0m92-.13c55.69-12.393-72.582 10.84 0 0m241.727.164c33.981-8.261-51.879 7.737 0 0m-145.727-3.683c103.893-23.229-75.075 9.309 0 0m80-.213c37.948.779 87.26-37.995 16.492-9.502-14.59 3.862-53.454 15.553-16.492 9.502m-244.36-.839c-5.28-2.802-1.247 3.005 0 0m28.864-6.538c57.736-15.857-46.496 8.445 0 0m274.83-1.99c3.645-5.482-13.593 5.884 0 0m30-1.36c34.091-10.363 81.524-42.079 23.11-12.419-3.985-.01-55.714 21.843-23.11 12.419m28-2.64c14.375-9.226-21.92 9.785 0 0m-30.462-5.347c46.305-21.199-63.073 21.98 0 0m-276.566 4.542c-5.28-2.802-1.246 3.004 0 0m327.61-6.614c43.22-19.845-52.872 18.162 0 0m-301.249.792c30.466-8.26-44.729 6.379 0 0m410 .59c-3.696-22.507-32.267-21.086 0 0m-326-8.42c135.86-31.768-98.951 17.95 0 0m256.667-1.426c51.593-19.503-56.026 18.77 0 0m-298.667 2.445c2.281-4.885-24.147 7.096 0 0m375.896-8.422c-11.006-23.998 3.566 21.89 0 0m-358.924 5.055c-5.28-2.802-1.246 3.004 0 0m258.146-5.068c67.418-40.856-52.691 23.918 0 0m12.215 1.012c14.056-11.283-22.153 12.818 0 0m-52.666-2.03c-6.399-2.394-9.477 7.075 0 0m73.05-4.314c41.927-14.662 64.781-30.73 8.642-8.174-7.406 1.956-36.886 20.551-8.642 8.174m17.149-17.946c-24.323 3.769-42.153 23.42 0 0m-202.866 13.151c6.822-4.562-12.326 3.58 0 0m71.333-5.333c3.256-5.293-11.587 5.764 0 0m213.275-14.776c-18.37 4.17-17.9 19.79 0 0m-41.95 8.125c-3.375-2.439-5.309 4.295 0 0m30.282-10.977c21.647-15.022-47.61 21.324 0 0m-176.634.822c-5.28-2.801-1.247 3.005 0 0m23.477-4.527c89.664-23.356-111.13 19.356-21.667 3.44l5.55.244zM1255.149 647c28.871-11.562 104.943-115.631 87.484-104.203-22.606 40.182-90.61 84.337-87.484 104.203m-39.396-4.45c43.514-23.502-59.286 17.975 0 0m-72.247-5.233c29.721-15.67-53.323 17.735 0 0m50.174-.43c58.918-31.751-41.75 8.347 0 0m51.586-3.065c54.782-29.672-54.82 14.226 0 0m-69.898-4.29c4.167-7.9-27.501 14.204 0 0m74.66-25.448c-33.879 16.338-58.777 44.465 0 0m-80.267 19.04c5.555-11.08-15.34 15.197 0 0m48.428-8.386c57.65-54.127-56.585 34.704 0 0m22.477 5.389c9.264-9.89-13.28 9.636 0 0m17.627-3.989c39.237 1.474 102.061-113.067 54.658-46.133-1.924 8.596-91.096 55.735-54.658 46.133m-103.087-2.69c3.044-6.059-20.236 11.696 0 0m94-4.63c-10.484 4.93-10.859 10.226 0 0m-62.684-5.353c47.639-14.972-25.59-4.697-26.649 9.49l9.649-3.418zm65.593-7.869c24.936-15.25 68.822-72.515 18.202-24.224-10.772 7.61-61.693 55.486-18.202 24.224m17.261-1.596c4.979-6.088-8.98 7.244 0 0m-62.483-9.007c30.384-21.208 62.885-49.052 12.313-12.789-16.189 9.218-36.746 30.835-12.313 12.79m14.313-1.25c50.131-33.168-27.046 7.248 0 0m33.52-6.142c10.947-9.343-15.855 9.147 0 0m-.737-13.987c18.207-19.4-46.455 38.016 0 0m9.983.235c40.295-26.6-5.402 7.536-14.82 9.014zm40.071 6.151c4.978-6.088-8.98 7.244 0 0m2.341-20.035c37.244-49.451-44.17 49.473 0 0m3.489 15.702c6.821-9.537-9.95 9.697 0 0m-26-8.903c-19.507 13.314-7.009 8.329 0 0m29.452 1.413c-1.871-4.126-17.37 17.244 0 0m26.36-23.245c55.286-76.29-48.34 40.254-8.194 9.151zm-48.479 2.674c13.06-15.22-36.432 27.445-12 9.716zm-33.83 8.394c4.979-6.088-8.98 7.244 0 0m34.667-1.333c4.978-6.088-8.98 7.244 0 0m-11.257-14.066c-23.039 17.06-13.037 14.003 0 0m21.754 10.199c-15.214 6.203-.909 3.586 0 0m-35.207-3.322c7.323-7.898-11.192 7.636 0 0m15.377-.811c4.978-6.088-8.98 7.244 0 0m22.613-5.885c2.268-7.483-10.367 10.673 0 0m-8.117-3.21c-6.982 1.186-7.295 6.408 0 0m-9.916-2.239c13.179-13.615-15.393 13.596 0 0m46.052-3.92c-8.415-7.131-8.99 15.762 0 0m-32.637-.604c27.632-24.625-28.307 17.22 0 0m19.985 2.072c35.488-20.364 49.638-45.204 4.628-10.222-10.067-13.567-15.43 28.388-4.628 10.222m36.556-1.289c3.505-9.56-8.453 12.335 0 0m-37.617-7.148c-.722-4.818-19.562 16.554 0 0m8.658-10.649c56.821-48.739-37.154 17.114 0 0m21.591 1.662c7.558-9.38-16.956 16.046 0 0m17.45-14.69c-.64-7.058-27.94 29.07 0 0m-2.2-6.197c36.793-54.737-48.558 30.905 0 0m-34.337 1344.763c7.726-18.794-.188 15.976 0 0m-63.872-525.891c.388-30.924 4.613 16.453 0 0M243.753 846.667c-6.317-120.932 20.909-242.592-6.542-362.334 13.386-67.668 102.007-98.03 156.432-134.503 63.48-37.251 132.097-65.758 198.23-98.18 92.761-34.04 183.717-83.45 284.047-88.07 19.143 25.562-69.112-1.667-94.752 23.397-81.074 22.445-158.488 58.054-235.962 90.686-70.682 37.102-145.284 66.466-210.971 111.998 123.555-42.285 234.938-112.604 355.212-161.922 32.123-17.128 172.843-68.471 119.923 6.61-30.638 14.915-81.299 36.617-15.31 23.625-10.644 20.372-124.984 42.407-165.406 74.66-82.407 32.708-163.967 78.166-254.819 78.305 49.332-38.396-20.893-30.3-10.192-24.228-8.256-12.397-120.579 51.587-95.103 61.44 73.467-27.639 13.51 11.97 17.068 3.787 109.997-14.76 212.566-61.298 320.398-86.358 89.84-38.448 186.138-69.709 259.723-136.845 24.508-36.405 57.183-77.014 73.096-7.012 38.808 70.358 77.206 141.695 129.099 203.463 42.567 20.52 40.27 52.607-2.122 13.543-56.214-60.95-92.231-136.28-134.11-206.974-9.006-35.65-36.21-66.52-49.24-11.944-61.395 57.308-137.234 92.313-213.195 125.222-90.712 41.299-189.9 58.312-283.529 91.87-36.89 19.846-174.022 17.338-67.85 45.59 43.057 11.013 162.558-14.316 145.826-12.166-25.43 28.786-156.832 13.56-70.055 33.654 46.71-.468 70.928 19.246 10.461 11.8-53.354-7.827-124.14-36.948-159.323-54.448 18.454 42.656 119.504 61.715 175.009 70.43 35.858-7.68 66.592-39.465 18.577.916-39.133 4.806 41 28.019-26.41 18.628-30.247-11.83-116.332-15.677-40.09 9.1 31.525 6.462 80.974 29.382 18.403 21.256-42.344 21.708-148.62-79.289-131.783-.856.507 87.212-7.587 174.189-8.029 261.423l-1.687 2.407zm122.676-277.508c-38.248-7.013-137.178-74.191-53.397-36.615 72.224 7.358-40.698-20.74-55.457-42.637-42.32 52.713 70.395 71.767 108.854 79.252m49.444-168.87c92.836-13.184 177.984-57.903 262.306-96.76-92.508 20.752-179.858 59.783-272.508 80.186-30.65 22.668-31.006 23.044 10.202 16.573m-30.39-22.716c66.535-27.12-28.854 6.124 0 0m39.057-9.647c36.168-19.602 67.91-44.382 11.088-10.903-21.784 9.91-52.82 31.68-11.088 10.903m32.212-4.325c41.391-15.473 161.973-69.416 57.877-30.549-14.4 2.949-119.81 48.245-57.877 30.549m92.454-27.822c40.878-16.363 147.386-39.667 142.275-53.81-67.118 15.398-131.735 40.45-193.608 70.351 17.215-5.186 34.253-10.932 51.333-16.54m-74.947 7.367c39.26-20.037 151.197-48.1 157.841-55.9-50.529 11.968-131.667 39.61-157.84 55.9m106.969-47.864c58.129-18.983 166.822-32.188 192.32-56.927-75.216 10.34-149.312 32.415-217.867 65.114 8.573-2.547 17.032-5.456 25.547-8.187m-15.298-2.24c71.787-31.17 149.184-57.231 226.579-63.128-30.603 45.128 65.66-42.822-4.636-28.302-84.953 20.417-165.546 56.976-241.683 99.711l6.733-2.647zm132.031-2.072c32.142-14.745-29.746 8.356 0 0m65.74-22.394c-34.47-1.947-74.841 31.036-14.273 5.78l8.07-2.893zm-39.073-.258c64.39-27.217 23.746-11.69 0 0M360.54 749.159c-37.46-.867-138.2-74.178-59.205-35.847 21.08 27.42 165.148 35.454 59.205 35.847m24-30.826c-45.913 3.765-96.626-32.21-113.732-35.608 13.333 13.96 161.663 25.092 113.732 35.608m-37.003-26.735c-40.372.1-127.791-36.258-40.06-17.004 33.479 14.8 136.061 24.61 120.06 15.524-25.308 8.716-53.886 4.403-80 1.48m35.67-12.481c-44.92 4.72-95.85-36.01-110.483-35.782 41.653 15.046 170.859 35.34 158.206 34.766-15.817 1.879-31.93 4.723-47.724 1.016m-11.334-27.456c-32.23.248-154.207-52.964-60.87-26.534 88.977 38.213-78.52-52.038-30.767-48.14 28.1 21.136 175.809 44.449 71.896 38.644 32.97 18.899 132.132 23.57 47.849 38.974l-13.36-.526zm32.046-7.422c-66.552-5.018 37.108 8.229 0 0m-34.046-50.15c-30.736 5.746-160.537-54.243-68-28.439 11.731 19.58 152.597 20.027 68 28.439m-46-126.992c49.254-14.22 147.631-10.904 177.114-16.091-54.604 20.444-119.227 14.009-177.114 16.09m33.333-15.814c31.223-12.442 122.814-11.065 136.91-9.412-44.718 9.999-91.35 10.975-136.91 9.412" style="fill:#000;stroke-width:1.33333" transform="translate(-129.784 -158.152)"/><path d="M904.93 176.612c-24.41-37.946-79.508-7.854-15.703 6.018 44.319 27.952 20.18-19.26-11.366-24.381-48.224 9.302 9.765 24.438 27.07 18.363" style="fill:#000" transform="translate(-129.784 -158.152)"/><path d="M1095.146 481.215c39.165 30.65 7.944-84.535-8.668-26.27-17.347 34.982 47.228 60.183 30.741 18.18l-11.465 2.874z" style="fill:#333" transform="translate(-129.784 -158.152)"/><path d="M253.005 785.561c.933-79.253 8.77-158.307 6.645-237.572-5.083 26.015 123.196 61.115 131.382 38.29-39.855-1.354-90.921-19.89-20.494-5.907 40.416 13.085 79.305-8.032 16.029-15.22-52.438-16.544-55.151-29.734.052-18.637 23.638 13.444 85.966 6.58 40.345-8.82 25.162-5.426 64.5-52.683 15.313-13.092-64.525 16.883-160.63-25.182-196.679-62.148 48.086 24.972 111.046 46.795 169.196 55.68 103.88-5.396-132.762-24.557-8.423-29.15 40.042.53 91.257-38.242 23.359-12.088-47.028 11.722-129.04 10.009-155.614-15.198 67.708-18.067 91.028-9.91 154.884-10.673 36.783 6.116 116.639-27.473 33.88-12.006-40.492 4.857-140.17 9.935-46.56-10.85 102.853-33.29 209.987-55.223 306.075-106.76 74.819-19.429 138.423-93.263 191.726-124.282 31.865 70.885 75.024 135.987 116.754 201.19 29.18 32.463 99.955 85.988 17.157 108.096-71.33 47.442-153.81 67.983-236.18 86.306-123.377 32-249.848 64.315-354.36 140.877-26.23 13.548-106.712 67.607-114.997 55.105 66.386-24.7-146.307-63.598-44.254-23.545 34.588 8.535 68.706 20.26 8.348 17.72-93.783.461 85.81 25.949-8.516 23.367-57.23-.157-11.153 24.128-5.3 16.812-58.85 34.01-36.637 11.944-39.768-37.495m140.847-34.994c17.118-16.929-83.367-13.903-102.124-43.263-71.191-20.428 49.791 46.15 78.167 44.425l14.111 1.062zm3.807-32.948c-24.309-13.715-162.756-19.022-135.46-28.338 42.166 15.939 91.512 28.612 135.46 28.338m29.774-26.647c-25.534-4.109-125.01-22.722-166.29-17.693 52.974 14.891 111.53 28.883 166.29 17.693m-6.34-10.814c74.031-23.813-137.448 2.026-82.205-21.264-27.339-14.805-118.726-17.818-38.65 2.336 39.746 8.199 79.654 24.085 120.855 18.928m-2.331-28.91c65.966-22.147-125.549-25.647-20.87-40.676-37.013 11.507-125.995-56.366-125.574-24.947 23.228 23.404 93.687 62.558 20.47 31.654-58.893-3.084 76.13 42.917 103.941 37.116l14.773-.438zm-26.27-184.74c35.61 8.383 167.364-26.999 72.494-13.591-40.431 8.323-115.21-3.704-137.099 15.478 21.55.94 43.072-1.395 64.605-1.886" style="fill:#333;stroke-width:1.69481" transform="translate(-129.784 -158.152)"/><path d="M297.463 444.356c66.916-37.688-89.277 34.277-13.269-19.82 22.773-26.664 110.73-54.274 99.4-27.69-39.817 47.256 165.5-28.125 105.804-6.759 102.389-34.098 194.956-91.728 298.69-121.865 51.156-26.007-69.097 4.77-1.287-21.056 83.288-22.62 9.139-84.397-40.472-41.676-138.482 45.062-259.799 129.773-397.567 176.844 122.296-75.643 256.035-131.053 390.193-182.27 39.555-8.826 155.264-58.777 145.484 6.24-67.02 79.558-171.192 110.839-263.147 152.136-112.012 29.942-220.655 74.785-335.567 92.61z" style="fill:#333;stroke-width:1.69481" transform="translate(-129.784 -158.152)"/><path d="M566.463 291.574c74.272-41.14 154.005-76.814 237.841-91.54 33.281 19.767-10.285 50.741-24.303 29.859-74.065 9.065-144.779 33.711-213.538 61.681M385.875 400.334c65.482-39.847 149.817-46.765 221.56-77.14 28.7-9.938 96.445-28.28 32.329-1.15-83.142 33.864-165.036 77.805-256.641 81.765zM508.84 347.129c51.272-23.752 155.101-64.14 182.693-61.505-54.444 26.576-138.415 46.485-182.694 61.505" style="fill:#333;stroke-width:.847406" transform="translate(-129.784 -158.152)"/><path d="M570.7 296.659c66.302-28.984 136.61-48.818 208.232-58.906-66.33 35.065-143.112 36.612-212.994 61.552z" style="fill:#d40000;stroke-width:.847406" transform="translate(-129.784 -158.152)"/><path d="M267.991 946.89c-49.58-98.462 92.2-82.481 139.387-137.475 28.435-9.165 139.536-91.798 54.755-37.875-63.08 25.098-145.381 109.65-204.948 87.255 18.152-40.975 95.892-47.182 132.088-79.302 95.309-54.689 186.477-120.27 296.008-143.898 91.298-30.21 188.089-42.924 277.495-77.83 65.569-22.246 144.205-119.905 183.391-17.97 80.546 74.216-50.712 86.148-107.29 105.593-113.793 27.822-232.071 34.765-344.954 65.315-58.631 14.296-122.644 40.87-165 79.58-85.432 50.846-160.71 119.456-253.347 157.444zm33.824-50.528c95.058-39.375 171.255-112.921 259.98-163.186-73.663 29.772-135.53 91.672-206.1 131.215-9.012 8.98-108.03 42.259-53.88 31.971m154.23-135.324C562.252 687.86 696.1 692.35 813.676 648.778c20.45-.913 131.693-40.579 52.512-21.823-95.684 29.746-193.553 50.018-291.385 71.193-33.803 12.672-122.996 48.265-118.76 62.89M684.478 661.01c94.357-14.74 179.67-72.108 277.9-62.721 41.196 7.63 98.656-6.325 22.002-9.83-113.208-14.91-210.34 56.127-319.862 67.312-22.155 14.768-16.49 12.56 10.575 6.682zm269.475-25.051c35.978-8.35 112.057-27.21 133.079-47.82-57.722 24.5-123.354 33.245-180.533 50.938 15.903 2.211 31.758-1.127 47.454-3.118" style="fill:#d40000;stroke-width:1.69481" transform="translate(-129.784 -158.152)"/><path d="M914.126 2029.062c-59.253-12.751-117.66-28.81-179.126-17.31-52.894-8.363-105.292-8.113-159.08 1.088-74.182 21.46-9.855-64.639 20.743-18.449 42.117 16.577 53.733-9.578 4.73-10.902-48.101-16.038 4.867-62.315 13.894-6.665 36.247 26.15 79.235-12.266 19.782-26.038-27.497-36.312-43.432-1.295-20.4-52.734 7.056-39.893 62.178 77.26 8.552 10.256-33.618 27.626 133.107 68.49 48.937 21.496-41.294-16.659-46.948-130.387-67.538-64.608-50.064-6.201 34.34-63.072 37.216-2.686 31.66 38.27 81.319 26.278 17.703-1.298-38.177-13.86-66.135-155.986-9.145-86.02 14.063 26.99 97.504 51.526 36.689 11.946-46.037-20.543-88.417-95.814-11.575-50.262 70.971 45.917 160.247 10.327 234.887-8.214 59.505-28.994 25.416 76.244 41.106 118.52 4.553 63.071 50.637 129.94 73.657 173.714-36.987-17.688-73.36 23.727-111.032 8.166m-207.378-176.675c-24.91-19.36-83.97-54.405-79.907-61.033 6.773 32.232 46.295 69.51 79.907 61.033M1234.092 1314.588c-55.976-29.724 38.89-87.193 27.553-143.883 14.797-37.271 12.713-87.295-14.032-86.656-3.01-57.047 55.447-68.48 42.163-1.02-2.208 68.08-40.16 126.761-41.545 197.163-3.577 4.909-1.82 49.53-14.14 34.396M363.807 1413.214c-35.397-60.085 11.536-133.276-33.752-194.004-25.861-31.317-22.73-187.452 25.424-133.992 2.48 42.133-53.256 79.331-9.268 129.235 49.183 23.172 6.124 89.804 26.636 131.281-11.513 35.416 3.091 33.203.661 69.219zM802.12 1343.92c-26.373-33.72-46.597-26.353-61.785-2.085-34.781-52.62 56.697-52.106 87.29-58.112 34.018-8.45 102.9 18.745 45.25 50.029-30.805 27.177 17.04-63.776-32.747-6.346-9.572 12.357-20.849 23.63-38.009 16.514" style="fill:#de8787;stroke-width:1.69481" transform="translate(-129.784 -158.152)"/><path d="M788.485 1585.467c-57.71-11.515-137.098-19.088-173.714-61.507 117.623 60.915 273.456 59.785 380.16-24.485 73.65-20.46-70.98 96.574-110.628 80.58-31.293 7.535-63.898 5.694-95.818 5.412" style="fill:#f55;stroke-width:.847406" transform="translate(-129.784 -158.152)"/><path d="M615.765 1512.336c41.002-37.63 135.89-56.582 192.908-20.286 51.275-10.42 169.96-34.723 193.209-8.813-53.458.366-106.865 2.625-156.097 20.805-52.954-.47-105.582-12.224-158.26-6.118-20.375 14.217-47.49 18.193-71.76 14.412M778.417 1583.589c-39.364-6.96-146.74-27.822-149.568-51.288 118.43 52.307 267.321 48.448 370.74-35.433 58.23-14.634-93.288 71.886-69.002 70.73-48.97 17.352-100.747 19.96-152.17 15.99" style="fill:#d40000;stroke-width:.847406" transform="translate(-129.784 -158.152)"/><path d="M804.12 1548.01c-14.515-72.916 91.48-7.879 27.563-1.333-9.186.399-18.35 1.787-27.564 1.333" style="fill:#ff0;stroke-width:.847406" transform="translate(-129.784 -158.152)"/><path d="M857.146 1549.706c-1.535-39.578 25.813-62.117 22.314-17.1 36.98-25.722 87.653-2.835 21.407 9.697-2.86-.908-55.92 19.099-43.72 7.403M946.463 1524.17c-8.4-52.663 93.048-33.692 13.522-7.215l-12.527 8-1.908.688zM766.13 1555.728c-26.54 1.663-120.234-23.674-55.102-15.3 35.768 5.964 78.675 5.45 86.274-27.123 11.68 18.46-3.989 56.726-31.173 42.423M660.627 1532.829c-61.044-9.029 57.845-39.225 9.505 2.816z" style="fill:#000;stroke-width:.847406" transform="translate(-129.784 -158.152)"/><path d="M589.992 1199.177c-43.706-.238-184.906-20.298-122.71-81.17 18.957-20.788 100.23-47.424 59.3 1.56 1.812 75.966 119.348 73.076 121.149-1.337 57.716 18.515 56.687 79.183-10.102 76.836-15.509 4.416-31.704 4.104-47.637 4.111M970.18 1171.403c-64.275 4.412 89-67.449 12.38-111.48-10.852-24.623 93.412-8.327 124.847 10.154 90.086 29.079-50.74 107.47-103.374 101.242-11.278.325-22.577.686-33.853.084zM884.673 1523.38c-10.181-54.633 109.767-17.895 30.089-8.358-10.431 1.363-19.942 6.011-30.089 8.358M720.62 1535.432c.85-60.762 93.916-10.915 38.11-4.39-12.989-1.163-25.667.736-38.11 4.39" style="fill:#fff;stroke-width:.599206" transform="translate(-129.784 -158.152)"/><path d="M685.842 1523.558c62.735-72.653 36.222 34.912 0 0" style="fill:#fff;stroke-width:.599206" transform="translate(-129.784 -158.152)"/><path d="M956.706 1147.082c-27.461-10.704-51.214-44.714-6.109-19.77 37.644-7.352 24.628-92.014 34.832-16.005-3.505 13.011-8.835 42.1-28.723 35.775" style="fill:#483737;stroke-width:.599206" transform="translate(-129.784 -158.152)"/><path d="M945.482 1118.708c-1.48-.813 35.657-65.792-12.501-38.715-41.057 73.516 20.626-63.236 36.399 16.17 1.917 13.062-10.205 28.174-23.898 22.545" style="fill:#483737;stroke-width:.599206" transform="translate(-129.784 -158.152)"/><path d="M941.614 1102.717c-22.484-21.444 38.151-18.801 0 0M580.704 1148.644c-66.63-19.998 43.828-83.495-9.218-28.986 17.463 31.592 64.1-43.556 42.34 19.124-7.148 11.41-21.435 11.105-33.122 9.862" style="fill:#483737;stroke-width:.599206" transform="translate(-129.784 -158.152)"/><path d="M579.37 1169.128c-59.38-12.383-42.306-97.52-2.658-77.244-76.712 58.47 39.435 86.18 59.501 32.569 6.25 30.904-30.825 49.782-56.844 44.675" style="fill:#483737;stroke-width:.599206" transform="translate(-129.784 -158.152)"/><path d="M586.648 1120.515c-20.253-25.184 43.383-1.977 0 0" style="fill:#483737;stroke-width:.599206" transform="translate(-129.784 -158.152)"/><path d="M909.647 1152.058c-66.174-6.126-20.67-52.343 4.34-64.158-17.264 17.251 1.3 56.17-4.34 64.158" style="fill:#fff;stroke-width:.847406" transform="translate(-129.784 -158.152)"/><path d="M293.171 1085.826c-10.937-23.293 2.04-117.656 11.995-44.999-4.769 13.626-8.619 35.214-11.995 44.999M317.393 1071.283c-3.705-41.355 10.526-14.425 31.439-24.573 11.83 7.942-38.988 37.501-31.439 24.573M340.221 1032.605c-30.014-31.33-4.562-62.335 3.426-15.035 10.104-2.624 4.198 24.98-3.426 15.035M297.705 1185.536c-16.873-30.999-18.786-129.904-4.4-45.24.957 8.376 14.624 49.376 4.4 45.24" style="fill:#fff;stroke-width:.599206" transform="translate(-129.784 -158.152)"/><path d="M1219.337 1258.691c13.577-45.55 9.647-139.18 40.861-157.98-3.931 45.336-11.083 138.436-40.86 157.98" style="fill:#de8787;fill-opacity:1;stroke-width:.847406" transform="translate(-129.784 -158.152)"/><path d="M717.719 1738.459c-30.197-6.476-54.497-19.956-105.952-58.776-21.01-15.851-42.5-31.6-47.755-34.996-14.613-9.444-69.646-59.65-81.46-74.315-5.772-7.163-12.784-17.907-15.583-23.873-4.45-9.486-5.247-13.53-6.353-32.202-1.78-30.06-5.855-43.19-33-106.335-13.434-31.25-26.682-68.825-25.829-73.255.653-3.39 8.903 15.735 19.193 44.489 9.284 25.943 20.178 48.824 26.436 55.524 4.895 5.239 6.078 5.62 9.92 3.191 2.1-1.328 1.616-2.53-2.892-7.181-13.794-14.232-38.086-66.805-46.834-101.363-3.183-12.568-6.313-25.827-6.957-29.463l-1.17-6.611 5.338 4.492c2.937 2.471 6.143 4.493 7.125 4.493 3.56 0-.008-14.707-9.442-38.92-16.309-41.858-12.44-39.178 13.366 9.26 22.71 42.625 43.243 73.744 59.078 89.533 18.839 18.784 36.641 26.552 36.641 15.987 0-3.766-10.555-14.697-39.409-40.81-19.96-18.064-30.722-32.544-34.248-46.083-1.418-5.445-2.352-10.126-2.075-10.403s3.843 4.624 7.925 10.89c9.163 14.065 30.26 35.38 41.349 41.776 8.591 4.956 25.096 11.373 26.259 10.21.365-.366-5.245-6.598-12.468-13.85-33.892-34.025-73.459-89.087-88.637-123.347-6.997-15.794-17.418-41.535-18.525-45.76l-.889-3.39 2.517 3.39c6.912 9.31 37.12 60.898 39.207 66.958 3.32 9.636 10.165 19.037 21.212 29.133 11.295 10.324 30.23 23.87 41.202 29.477 17.434 8.91 15.514 4.5-8.418-19.338-31.479-31.354-61.149-71.732-79.926-108.772-9.44-18.623-17.142-36.65-19.548-45.76l-1.12-4.237 3.639 4.687c11.114 14.32 16.088 10.566 39.795-30.032 5.418-9.28 12.583-19.957 15.922-23.728 3.339-3.77 7.795-10.294 9.902-14.497 6.812-13.583 22.608-23.25 63.161-38.656 17.736-6.738 26.4-10.868 26.77-12.762.736-3.764-1.506-3.552-16.235 1.531-6.904 2.383-13.423 4.042-14.488 3.687-3.188-1.062 27.173-11.418 46.276-15.785 33.579-7.675 61.929-4.91 89.574 8.736 12.993 6.413 18.515 10.468 30.633 22.493 23.052 22.877 36.933 45.032 64.552 103.021 16.336 34.3 16.469 34.682 14.239 40.928-3.077 8.62-2.958 35.174.275 61.11 4.457 35.767 1.55 45.42-20.605 68.401-15.296 15.868-20.952 25.405-21.013 35.433-.093 15.115 16.777 26.102 54.021 35.184l22.065 5.38 23.375-3.536c28.06-4.245 48.46-10.745 66.638-21.229 21.913-12.64 29.953-25.096 25.592-39.651-3.536-11.803-22.708-25.685-39.41-28.536-7.04-1.202-7.651-1.785-12.811-12.233-21.57-43.676-25.49-107.675-9.671-157.863 2.447-7.764 6.158-17.547 8.248-21.742s4.307-10.926 4.927-14.958c4.422-28.733 45.305-72.272 84.591-90.085 13.457-6.102 55.54-18.057 71.532-20.321 30.018-4.25 73.055-1.61 125.964 7.728 13.352 2.356 25.555 4.005 27.117 3.663 3.62-.79-13.105-9.443-29.933-15.486-36.04-12.942-87.261-12.943-138.316 0-22.804 5.78-56.696 18.135-71.608 26.103-45.477 24.302-77.255 66.632-94.37 125.71-6.43 22.193-9.522 46.961-9.509 76.163.016 33.48 2.943 53.287 9.918 67.103 5.772 11.432 6.754 19.208 2.837 22.458-1.397 1.16-11.234 2.65-22.456 3.404-21.361 1.433-26.958 2.935-35.647 9.562l-5.522 4.212-1.893-4.752c-2.577-6.474-2.51-33.21.164-65.355 2.812-33.802 1.689-59.381-3.256-74.135-6.024-17.975-34.406-74.053-47.177-93.215-32.365-48.559-68.155-76.673-108.028-84.86-23.05-4.733-73.097 9.53-110 31.349-32.577 19.261-66.486 51.828-78.992 75.866-11.174 21.478-17.41 25.934-24.993 17.86-4.423-4.707-13.624-24.523-19.841-42.73-8.884-26.017-3.83-52.897 15.942-84.783 24.092-38.853 63.334-76.934 113.249-109.897 28.814-19.028 56.304-34.238 110.473-61.124 60.645-30.1 71.718-33.51 158.603-48.847l49.15-8.675 66.097-1.232c36.354-.677 73.686-2.023 82.96-2.99 19.067-1.99 47.479-.161 65.336 4.203 20.074 4.906 31.766 11.633 46.414 26.703 46.209 47.542 67.025 82.808 97.609 165.367 7.741 20.897 9.986 29.225 10.867 40.313 1.76 22.152 5.58 28.22 10.44 16.586 3.23-7.727 3.149-28.462-.153-39.58-3.274-11.026-30.511-75.11-41.611-97.904-17.62-36.185-37.416-64.098-60.983-85.993-11.215-10.419-15.886-13.543-24.565-16.431-11.459-3.814-19.375-8.97-19.375-12.62 0-9.101 39.625-25.691 53.216-22.28 5.634 1.414 4.307 4.661-4.574 11.192-8.989 6.61-6.021 6.616 3.897.007 17.666-11.77 29.032-12.63 39.973-3.023 13.521 11.871 20.27 33.509 28.599 91.699 5.164 36.077 9.441 51.008 26.306 91.833 21.879 52.964 22.88 58.147 18.997 98.3-2.196 22.711-2.588 77.666-.544 76.402.81-.5 2.02-7.903 2.689-16.45.669-8.546 1.836-17.142 2.594-19.103 1.362-3.523 1.395-3.525 2.82-.174.792 1.864 1.44 10.888 1.44 20.053 0 16.571-.029 16.69-5.369 21.46l-5.369 4.797 3.674 7.351c3.023 6.048 3.658 10.206 3.584 23.452-.082 14.494-.888 18.524-8.076 40.366-4.391 13.346-8.843 29.743-9.893 36.439-1.05 6.695-3.643 17.598-5.764 24.23-4.779 14.941-9.849 38.131-14.297 65.395-3.857 23.639-4.138 28.474-1.653 28.474.962 0 2.44-1.716 3.282-3.813 3.081-7.666 1.61 1.709-3.257 20.76-14.81 57.967-38.845 113.106-63.71 146.158-8.69 11.55-10.722 16.202-5.01 11.46 6.014-4.99 3.542.818-10.07 23.661-7.913 13.28-14.896 25.783-15.518 27.784-1.666 5.36-34.497 50.958-51.775 71.908a9541 9541 0 0 0-23.453 28.543c-10.329 12.653-26.336 25.449-66.524 53.177-16.888 11.651-31.015 22.138-31.394 23.303-.415 1.278.88 2.14 3.266 2.17 10.617.139-14.872 8.344-46.962 15.117-47.386 10.003-79.357 13.643-118.564 13.499-24.511-.09-39.22-.91-47.245-2.63zm168.51-103.242c3.786-4.03 3.894-4.643 1.566-8.898-5.513-10.076-40.05-20.265-63.078-18.608-9.8.705-56.61 14.358-54.942 16.025.401.402 9.294-.525 19.761-2.06 12.686-1.86 26.455-2.59 41.295-2.185 19.895.542 23.303 1.092 32.042 5.168 6.344 2.959 10.81 6.371 12.711 9.713 3.578 6.287 5.397 6.431 10.644.845m-7.522-45.483c51.35-10.89 93.013-32.333 125.367-64.524 8.467-8.425 19.092-20.565 23.61-26.98 9.636-13.676 10.237-12.51-12.036-23.349-21.354-10.39-41.034-13.782-74.424-12.825-32.742.938-54.047 4.872-89.331 16.495l-24.928 8.212-8.968-4.854c-41.977-22.716-100.568-23.933-155.509-3.23-20.887 7.871-48.694 22.845-51.232 27.589-1.007 1.88-1.413 7.997-.93 14.006 2.598 32.367 30.867 48.51 109.725 62.66 18.177 3.261 39.532 7.372 47.455 9.134 12.34 2.745 19.873 3.12 52.539 2.612 33.031-.513 40.88-1.175 58.662-4.946m-178.644-161.076c8.598-6.565 13.105-15.002 10.356-19.383-3.67-5.85-23.592-4.927-29.984 1.39-7.273 7.188-.16 22.536 10.984 23.701.565.059 4.455-2.51 8.644-5.708m167.012 2.885c.376-1.146-3.188-6.177-7.92-11.18-9.093-9.615-9.754-11.21-6.68-16.132 1.559-2.497.836-5.289-3.813-14.735-3.156-6.41-7.116-12.45-8.802-13.422-4.653-2.681-7.951 3.024-7.951 13.752 0 22.224 15.523 45.48 29.528 44.24 2.725-.242 5.262-1.377 5.638-2.523m-98.07-6.615c10.044-7.034 15.018-14.724 18.016-27.849 1.629-7.131 2.596-14.028 2.15-15.326s-4.323 4.503-8.614 12.892c-4.29 8.39-10.142 19.258-13.003 24.151-5.45 9.324-5.117 10.733 1.452 6.132m164.527-141.717c-.036-2.097-2.515-10.237-5.508-18.089-5.022-13.17-5.818-14.291-10.287-14.47-6.01-.24-8.261-3.264-14.527-19.513-5.723-14.838-6.972-22.245-3.933-23.31 1.165-.409 6.885 3.795 12.711 9.341 10.585 10.076 18.233 13.816 33.897 16.574 4.915.865 6.355.567 6.355-1.317 0-3.34-5.742-8.422-17.795-15.745-5.593-3.398-8.644-6.033-6.78-5.856 10.944 1.041 12.065-1.84 3.814-9.801-5.513-5.319-21.909-13.921-26.693-14.006-1.399-.025-8.228-3.464-15.176-7.643-13.699-8.239-23.586-10.142-24.06-4.633-1.36 15.77 14.597 46.488 34.692 66.784 4.933 4.983 11.74 14.148 15.125 20.367 13.026 23.923 18.317 30.132 18.165 21.317m-280.682-14.834c2.356-2.8 9.352-13.502 15.547-23.784 6.194-10.282 13.703-21.91 16.686-25.84 9.683-12.762 18.03-36.854 18.01-51.992-.03-24.209-11.713-38.041-53.151-62.926-31.81-19.103-52.567-25.291-84.692-25.25-54.772.071-107.982 28.376-132.73 70.606-5.115 8.726-6.586 6.688 15.711 21.769 23.81 16.102 50.443 26.638 84.214 33.313 25.074 4.956 69.303 5.3 96.934.756 10.253-1.687 19.498-3.769 20.543-4.627s5.823-2.725 10.617-4.149c4.793-1.424 11.183-4.731 14.2-7.35 10.133-8.8 12.983-2.595 4.762 10.369-6.041 9.526-19.076 20.109-30.054 24.401-17.378 6.794-48.891 23.445-45.393 23.984 3.908.602 22.472-7.01 46.263-18.971 8.72-4.384 16.18-7.644 16.579-7.245s-8.933 10.006-20.739 21.35c-11.805 11.342-21.118 20.969-20.696 21.39.987.988 21.637-15.766 33.111-26.863 4.871-4.711 9.321-8.1 9.89-7.532.569.57-2.735 6.626-7.342 13.46-8.815 13.078-15.64 25.496-15.64 28.458 0 3.202 3.025 1.836 7.37-3.327m369.133-91.44c42.864-7.386 72.11-21.86 98.32-48.657 8.889-9.088 16.574-15.108 24.352-19.076 10.644-5.43 17.718-12.727 17.736-18.295.014-4.584-11.261-14.442-22.945-20.062-16.391-7.883-81.185-28.898-96.936-31.439-16.975-2.738-48.454-1.02-65.695 3.584-44.067 11.771-85.78 44.014-104.983 81.148-4.554 8.805-.536 5.926 9.253-6.63 13.952-17.897 33.207-33.428 26.951-21.739-1.187 2.218-.892 11.085.96 28.82 1.47 14.087 2.283 26.005 1.805 26.483-1.837 1.837-23.754-4.92-29.042-8.952-6.3-4.806-9.175-5.365-9.175-1.784 0 2.677 15.607 14.214 30.683 22.681 10.98 6.167 29.846 13.544 39.652 15.505 13.957 2.792 58.886 1.89 79.064-1.587m-306.105-56.711c8.67-13.231-19.769-46.429-57.162-66.727-27.98-15.189-35.558-17.504-60.691-18.537-29.909-1.23-48.211 2.816-94.91 20.983-18.694 7.273-45.765 24.028-41.252 25.533 1.022.34 13.963-5.511 28.758-13.004s29.57-14.944 32.832-16.558c9.522-4.711 35.95-3.647 67.792 2.73 27.413 5.49 36.508 6.433 34.76 3.605-.567-.918-6.332-4.818-12.811-8.667s-11.78-7.674-11.78-8.5c0-6.368 24.924 6.445 50.783 26.106 18.744 14.252 46.632 40.518 53.42 50.313 2.6 3.751 5.368 6.82 6.152 6.82s2.633-1.844 4.11-4.097m172.456-50.806c33.754-32.677 72.454-53.9 102.947-56.457 6.492-.544 11.804-1.489 11.804-2.1 0-3.15-4.985-5.177-12.731-5.177-25.493 0-75.594 21.71-97.447 42.228-9.19 8.629-10.612 13.223-2.433 7.863 6.493-4.254 7.233-1.728 1.345 4.592-6.68 7.17-18.16 21.584-17.19 21.584.418 0 6.584-5.64 13.705-12.533m-2.191-38.837c0-.932-1.526-.314-3.39 1.373s-3.39 3.83-3.39 4.762 1.526.315 3.39-1.373 3.39-3.83 3.39-4.762m259.678-9.026c3.32-2.052-4.785-7.446-18.766-12.49-8.092-2.919-16.932-7.425-19.74-10.062-6.394-6.007-11.179-8.475-21.919-11.308-21.3-5.619-64.413-4.374-102.511 2.96-17.084 3.288-34.034 9.943-34.034 13.363 0 2.632 5.105 2.059 38.75-4.35 31.893-6.076 69.675-9.589 64.633-6.01-1.398.993-5.974 1.829-10.169 1.857-7.374.05-13.58 2.239-11.694 4.124.506.506 14.593 3.264 31.305 6.129 35.352 6.061 54.651 10.687 63.24 15.158 5.761 2.998 16.546 3.322 20.905.629m-392.97-101.87c20.17-9.807 35.45-13.527 44.002-10.714 3.522 1.158 8.658 1.242 14.785.241 10.261-1.676 22.85-.582 55.862 4.853 25.683 4.229 36.087 4.445 39.707.826 5.736-5.737 2.431-8.508-15.2-12.744-26.475-6.361-73.235-3.817-119.417 6.497-9.479 2.117-21.976 2.9-49.15 3.077-37.113.242-56.938 1.66-58.498 4.183-1.123 1.817 1.389 2.544 23.368 6.76 10.041 1.925 19.956 4.225 22.033 5.11s8.44 1.397 14.14 1.137c8.463-.386 13.663-2.077 28.367-9.226m-94.859-36.901c11.04-4.613 26.745-7.389 61.976-10.955 34.596-3.502 50.079-6.2 64.486-11.233 7.212-2.52 8.318-2.461 20.338 1.077 11.246 3.31 18.472 3.89 62.708 5.033 50.564 1.307 58.95 2.335 75.502 9.25 5.733 2.396 6.06 2.343 7.366-1.188 3.39-9.164-2.795-13.801-22.18-16.628-12.712-1.854-38.834-.953-55.747 1.923-7.445 1.266-11.062 1.043-16.948-1.047-30.094-10.682-84.149-9.61-135.442 2.688-20.096 4.818-72.877 21.434-72.877 22.942 0 1.46 4.878.62 10.818-1.862m6.253-47.535c7.125-12.17 7.76-12.772 12.588-11.898 2.797.507 13.474 1.413 23.728 2.015 21.13 1.24 37.614-.754 86.63-10.483 45.836-9.097 88.061-10.068 95.397-2.194 5.699 6.117 76.307 21.879 97.49 21.763l10.296-.057-3.997-3.329c-4.004-3.336-47.99-17.993-78.202-26.06-23.028-6.147-45.767-9.464-64.945-9.472-15.586-.006-17.094.304-23.765 4.894-15.616 10.744-34.202 14.817-59.834 13.111-48.97-3.258-64.285-3.3-74.144-.198-14.062 4.423-33.228 22.967-33.228 32.15 0 5.982 4.979 1.728 11.986-10.242" style="fill:#de8787;fill-opacity:1;stroke-width:1.69481" transform="translate(-129.784 -158.152)"/></svg>
