<?xml version="1.0" encoding="UTF-8" standalone="no"?>
<svg
   xmlns:dc="http://purl.org/dc/elements/1.1/"
   xmlns:cc="http://creativecommons.org/ns#"
   xmlns:rdf="http://www.w3.org/1999/02/22-rdf-syntax-ns#"
   xmlns:svg="http://www.w3.org/2000/svg"
   xmlns="http://www.w3.org/2000/svg"
   xmlns:sodipodi="http://sodipodi.sourceforge.net/DTD/sodipodi-0.dtd"
   xmlns:inkscape="http://www.inkscape.org/namespaces/inkscape"
   inkscape:version="1.0 (4035a4fb49, 2020-05-01)"
   sodipodi:docname="judge shot.svg"
   viewBox="0 0 1264.7065 1737.1954"
   height="1737.1954"
   width="1264.7065"
   id="svg227"
   version="1.1">
  <metadata
     id="metadata233">
    <rdf:RDF>
      <cc:Work
         rdf:about="">
        <dc:format>image/svg+xml</dc:format>
        <dc:type
           rdf:resource="http://purl.org/dc/dcmitype/StillImage" />
        <dc:title></dc:title>
      </cc:Work>
    </rdf:RDF>
  </metadata>
  <defs
     id="defs231" />
  <sodipodi:namedview
     inkscape:current-layer="g235"
     inkscape:window-maximized="1"
     inkscape:window-y="-11"
     inkscape:window-x="-11"
     inkscape:cy="1010.2364"
     inkscape:cx="288.34812"
     inkscape:zoom="0.41721854"
     inkscape:pagecheckerboard="true"
     showgrid="false"
     id="namedview229"
     inkscape:window-height="1826"
     inkscape:window-width="1080"
     inkscape:pageshadow="2"
     inkscape:pageopacity="0"
     guidetolerance="10"
     gridtolerance="10"
     objecttolerance="10"
     borderopacity="1"
     bordercolor="#666666"
     pagecolor="#ffffff"
     inkscape:document-rotation="0"
     fit-margin-top="0"
     fit-margin-left="0"
     fit-margin-right="0"
     fit-margin-bottom="0" />
  <g
     id="g235"
     inkscape:label="Image"
     inkscape:groupmode="layer"
     transform="translate(-78.904824,-377.70376)">
    <path
       d="m 837.87297,2030.1433 c -69.84364,-20.305 -141.77002,-19.6878 -212.97041,-21.9257 -58.91526,-9.8309 -137.07343,21.4067 -184.19996,-2.3393 39.77288,-2.8529 100.22992,-92.4486 91.22522,-96.0503 -22.64405,35.6937 -41.45662,34.9883 -3.90354,-0.062 29.60869,-38.313 -1.12121,-149.8891 26.66237,-153.2179 -10.77937,47.525 134.86676,122.6492 39.99868,73.4193 -40.88575,-42.593 -44.22411,-18.0691 -10.03493,17.8995 39.74794,24.6459 40.96286,45.9885 -3.41638,11.0002 -57.92604,-67.9018 -3.57708,60.0444 30.7879,69.7066 45.73221,35.8353 -93.46602,-15.1237 -48.42587,-22.0124 50.17029,51.976 -33.06083,-83.3277 -20.15069,0.4968 -8.31467,35.5346 -120.03344,109.8952 -26.71024,100.1818 83.64811,-15.3601 172.15434,-3.117 255.30514,-0.3727 52.25907,17.9998 159.1188,28.1672 182.71229,-9.0051 -56.99327,-67.3849 -76.5513,-159.723 -76.23277,-246.2749 -52.7884,19.8767 -110.27778,59.7325 -186.77741,41.0242 -98.91803,-24.5533 -193.35963,-71.3089 -275.11582,-131.7068 -38.12046,-55.3453 -71.70318,-116.791 -88.55498,-181.5917 -18.15394,-83.7502 20.49129,8.2892 13.53374,12.361 -9.80683,-34.5095 -25.21811,-151.7783 -43.04793,-57.4871 -50.61109,43.9284 59.79379,74.5235 40.28624,141.0924 4.41551,17.5147 -13.45336,57.0166 9.99335,37.9711 -37.11728,35.627 -18.69974,89.8486 27.1626,46.728 19.97227,-49.1631 74.52094,66.589 31.79273,5.5299 -61.67229,-34.0384 -87.41115,69.0081 -14.87099,55.1075 60.31924,-22.439 4.02431,-15.7046 7.0931,14.6246 36.30217,13.4339 141.34355,-11.8284 51.92526,26.3105 -30.80924,32.3016 -169.86549,109.7094 -150.3851,83.6886 45.11498,-17.9691 153.50053,-65.4714 145.97148,-98.3287 -37.066,-5.082 -114.87152,-4.2186 -124.78692,3.2205 98.07418,3.9753 -35.45296,-115.364 -23.85356,-17.531 15.4346,51.2555 -19.2902,121.6795 -11.63765,152.8535 74.04221,-8.0112 156.87651,-35.8365 210.36203,-90.8037 19.8954,-25.314 42.09864,-66.8506 13.02439,-12.3145 -38.88788,64.7097 -120.32775,86.0853 -189.27121,104.6029 -66.97566,5.638 -161.83275,47.1026 -208.73507,-22.1722 -75.282774,-58.3652 -2.70587,-152.0264 9.10424,-203.1848 -38.034279,-64.3915 3.39862,-128.8778 38.81254,-174.4574 -52.06871,-44.0921 -99.464758,-110.4087 -68.957634,-182.1842 4.785323,-48.1253 103.497054,-57.4799 31.158934,-85.0092 -67.771621,-52.2199 -48.391966,-155.151 30.53528,-180.5854 -72.233613,-37.4184 -85.640572,-153.30459 0.821,-191.07908 98.71142,-16.62262 37.3214,-135.99861 70.48496,-199.38871 29.24489,-120.81718 113.52192,-246.25324 242.62433,-270.60619 92.3027,-6.12981 186.62044,37.8811 244.71547,108.7791 28.99179,35.73361 36.82395,161.28181 67.23671,64.28753 59.93842,-80.32151 154.99843,-130.77521 250.36121,-156.0417 101.5696,-13.79472 207.9153,53.76696 232.6263,154.83081 34.3099,95.59726 38.7364,199.61748 25.942,299.6824 -19.794,-0.66689 -91.9067,-25.99941 -60.8221,17.48644 -32.3108,4.08858 -75.1118,-5.23115 -73.4468,53.46447 -20.3389,42.01156 76.4957,117.53483 28.7345,49.89365 -21.3838,-73.55214 94.6111,-162.82129 138.9539,-77.30996 45.6022,58.70454 -20.1362,107.48654 -35.2718,153.12604 48.9882,36.5043 64.0481,104.2164 54.7892,163.2758 -47.6514,37.3259 -41.8733,94.3956 -8.5247,139.4914 14.216,80.2281 -29.7877,171.6298 -108.3071,187.6672 16.7322,63.5435 30.6531,169.8152 -63.5109,172.4004 76.2484,-7.2056 89.9269,-125.01 38.2061,-170.0562 -11.5563,-25.5372 -115.2191,-68.1932 -65.8308,-75.18 18.9783,30.5893 85.9065,66.381 29.4806,19.4009 -26.6416,-21.3797 -8.517,-146.7035 -11.8526,-60.3391 0.5797,85.8948 122.4673,86.67 113.1689,-3.3113 10.6008,-36.7187 -7.5927,-80.7567 -7.3545,-17.4614 2.6597,95.2706 -128.7958,48.6043 -70.831,-29.2843 31.5593,-90.5293 121.915,-37.3898 91.0481,40.8961 -18.8245,47.4615 -105.7626,141.2904 -2.0085,95.0721 59.5755,-46.9752 67.0583,-146.5774 25.2722,-207.5459 -46.1304,-45.4192 -127.5016,-54.006 -134.9039,28.6755 11.9441,-27.5371 5.3219,-123.8254 -17.8078,-99.9459 5.2863,87.4833 -14.1167,143.7316 -35.8513,236.5065 -29.6081,60.9348 -42.3466,179.2949 40.7585,196.7352 53.0101,-27.4407 -6.2895,-166.9302 -25.1107,-76.118 -26.4537,55.4956 52.6956,52.5079 27.8322,7.3257 -34.4022,-9.2147 52.4032,-11.3739 6.982,27.4411 -69.4947,79.0496 -39.2209,-157.2738 14.3398,-57.3952 37.7581,72.3864 -61.5251,160.2977 -89.1033,57.3425 -1.0569,-56.7438 -29.3649,-26.403 -43.419,5.2373 38.9593,-14.5467 -89.04397,61.8532 -70.37899,54.0351 -86.12709,24.1154 9.83678,115.3026 20.08761,96.8107 -70.97038,11.5452 49.80068,54.2981 27.83348,26.5805 17.7578,-1.2646 -6.1462,-93.5427 -47.46632,-94.6267 -4.06133,-23.9185 57.67832,37.7278 74.34242,-11.3104 57.4764,-11.8246 -27.2616,-86.0021 32.925,-33.3061 48.498,47.9503 142.5522,78.8824 122.5986,164.8547 -17.6571,79.8142 -119.8744,82.2803 -183.9709,86.5702 -67.21601,-10.8596 -119.91069,-111.7162 -132.50989,-139.2491 0.86745,71.5288 31.85738,140.0898 64.87899,201.9247 21.58573,16.7994 68.9611,60.2212 9.3855,41.8164 -41.86045,-12.2008 -81.70232,22.0361 -123.55513,8.7427 z m 237.55923,-123.2264 c 8.8186,-27.7876 -58.6076,-68.1247 -78.73844,-83.6188 -44.78757,-13.5247 -113.65765,-138.8983 -83.17592,-31.4647 30.44463,61.7155 81.11959,138.2637 161.91436,115.0835 z m -850.91374,-11.777 c 76.06218,-7.2086 95.4143,-171.505 17.94381,-164.2239 -50.59886,-25.7939 -109.58221,-21.0252 -84.65254,49.7644 -1.27745,55.8844 34.46972,40.8279 27.17411,-5.0284 13.32546,-63.5205 90.02242,-31.7282 56.80851,24.728 -35.85758,97.067 -145.003394,2.9121 -97.25945,-71.1471 5.73888,-101.7018 -71.438972,37.4941 -40.52375,74.276 10.66252,52.5945 63.27945,106.6919 120.50931,91.631 z m 937.13744,-6.2274 c 57.036,-14.3464 25.1584,-146.0111 10.6043,-122.6414 36.8915,27.0684 -49.5509,143.2991 -10.6043,122.6414 z m -911.82464,2.3669 c 25.79878,-16.2046 -14.81303,2.2562 0,0 z m 889.94354,-4.7444 c 79.1402,-32.2961 -6.454,-219.7531 -48.5548,-124.6488 -4.1875,50.5682 16.8962,37.901 33.5776,12.7585 61.2064,-45.5425 -29.2516,122.1568 37.0788,70.7087 -11.9732,43.9941 -125.4797,-6.8569 -54.7928,37.8078 15.9299,-16.3 5.6956,26.7271 32.6912,3.3738 z m -71.4241,-19.7255 c 0,-39.6712 -59.3699,-62.6743 -21.003,-12.8974 -3.2529,-1.9321 32.5733,29.1508 21.003,12.8974 z m 41.8098,-12.5986 c -24.8596,-45.05 -48.8922,-162.6606 35.6533,-125.1585 -44.5218,-71.7699 -138.3215,22.2889 -90.4298,76.3025 16.517,8.5333 22.7988,60.0973 54.7765,48.856 z m 17.8235,-6.0838 c 9.7762,-30.6256 7.8838,-67.8468 -10.1227,-20.9192 -4.6853,2.1334 3.0642,42.5411 10.1227,20.9192 z M 103.87467,1835.4762 c -17.580573,-26.8278 -9.585046,-123.7625 -13.827428,-43.9225 -0.298805,3.5556 7.03224,62.6338 13.827428,43.9225 z m 112.54864,-4.0473 c 7.84715,-11.3541 -22.92202,16.6541 0,0 z m -11.66141,-0.9807 c 61.32855,-6.0321 12.16755,-144.311 -8.09564,-51.0365 -4.13518,14.1278 -29.89712,66.5336 8.09564,51.0365 z m 919.32,-25.972 c 13.8136,-71.771 -20.3982,24.2942 0,0 z m -367.31712,-20.0367 c 106.705,-26.4959 197.57749,-96.5757 274.96992,-171.5117 27.1194,-41.6858 63.3798,-96.0315 47.8363,-105.7842 31.7539,-62.4986 44.6112,-132.1608 41.2935,-201.9035 9.9958,-59.3254 24.5543,-158.3831 6.7677,-202.5774 -51.3935,6.5518 -13.0648,105.4278 -73.9983,122.1304 -48.7454,-9.4598 -125.13002,-8.6953 -154.50761,8.5546 30.31823,14.2906 88.63307,65.3131 18.67494,26.617 -35.30105,-33.5169 -68.89385,-38.2709 -19.40255,3.5992 30.39881,18.6752 125.20722,71.7481 38.27546,34.944 -57.83363,-28.0241 -146.96328,-94.0791 -88.77699,-163.9039 48.38868,-52.9212 123.99188,-64.2484 189.57615,-43.0598 51.813,11.1008 78.9296,-72.2447 12.4714,-43.0267 -78.53765,9.1125 -157.65164,18.9251 -233.21391,43.1919 74.44649,-40.7421 163.22534,-35.752 244.38551,-53.2213 48.4325,-7.6858 59.5656,12.2084 43.4347,45.9499 -1.3371,27.4976 64.0164,-5.5656 40.6576,-41.599 -6.619,-73.17223 -29.9159,-143.71562 -30.2065,-216.73652 4.8897,-63.57992 -14.6441,-142.23238 -94.4321,-120.0095 -64.78496,1.54136 -129.07185,3.01718 -193.65122,-4.45373 -77.42146,7.42828 -139.64759,-81.73207 -223.30647,-36.73028 -69.55087,14.45297 -140.39582,19.70764 -206.07846,47.19505 -22.37073,1.18138 80.75109,-40.57758 112.66747,-33.86475 57.59553,1.71173 29.45518,-69.64561 -5.4189,-21.11344 -94.89232,-6.26826 -181.60728,64.47143 -244.51,130.35906 -50.56858,16.14173 3.35747,80.45935 -35.0977,59.84846 -1.24092,44.48145 72.66167,76.35227 39.99801,6.28214 -22.29588,-46.69752 65.55139,-108.61873 20.82458,-39.49255 -9.18286,69.74737 -0.7934,149.46489 23.7676,217.70896 11.05085,40.4146 67.52991,28.8417 33.78174,-11.1473 61.72799,6.8139 68.90656,-79.22463 123.87451,-53.73071 -42.01924,-42.71601 65.49759,-11.84149 86.1016,-31.70068 40.13125,-5.31698 66.48716,39.42195 82.89488,-4.02351 19.78289,9.37033 43.58421,4.35943 65.56218,29.17519 30.43891,-34.06896 51.96231,24.54547 62.74622,-13.20089 27.20076,31.60911 92.7438,-0.25218 129.3659,-6.6473 3.08464,22.28649 27.41291,-35.51156 37.92679,-7.67077 20.64222,-31.00932 39.90326,-0.22267 33.82523,-12.42917 24.97496,-35.09371 35.47484,18.46762 49.44854,-3.79293 5.4017,53.41581 16.2568,-11.37725 42.2228,19.87898 33.2183,5.81528 70.7839,-13.84369 37.0366,34.25571 -11.4859,20.31358 -77.1671,-31.91256 -114.94377,0.97111 35.24267,-67.26106 -98.93559,57.28747 -25.78674,-19.92008 -62.36324,38.67756 -119.53449,22.32316 -155.32892,87.43215 6.50675,7.0559 30.52188,-32.7644 1.53075,9.4601 -34.59932,25.574 -43.86454,147.0546 8.28161,117.2869 4.82482,-26.2021 14.68057,-104.6101 10.96816,-30.8792 -1.6101,38.6689 9.72374,104.1586 -33.45827,48.9711 -38.78009,32.5044 2.92447,119.499 54.40498,88.065 74.40621,32.7589 9.9731,145.0949 -58.18904,107.0583 -28.34633,36.0689 -61.69543,60.2332 -84.58735,8.3204 -49.71873,10.143 -104.19576,9.0723 -97.18503,-58.2262 19.70789,-48.3092 134.69964,-57.393 84.15539,-134.7931 -53.96144,28.0574 -101.76642,72.4778 -129.73511,136.4561 -14.53203,15.8034 73.4023,-131.09 15.61313,-40.0206 -17.55384,27.9966 -78.91036,94.0856 -27.29053,28.1332 15.23474,-26.9437 71.33952,-110.3556 18.07803,-47.467 -40.63778,42.0461 19.05281,-41.9229 -25.4676,9.7756 -82.50871,68.847 57.30046,-56.3758 13.52443,-24.9419 -44.5726,32.2383 -5.82123,8.0263 -9.40131,-0.2007 -25.07711,15.206 -101.68251,68.1735 -38.20595,23.9054 41.71351,-45.5459 -84.11228,16.2826 -107.80233,-20.6186 -29.87603,-22.7593 -29.36032,-152.3559 -69.81472,-109.0454 10.6095,45.1361 57.64694,102.3804 33.98841,111.5699 15.63423,23.4998 42.18932,91.9379 3.13449,32.4943 -15.02466,-27.437 -52.17093,-127.0846 -33.01203,-42.062 14.1893,47.5974 63.87823,125.3049 62.59331,151.8306 -39.59169,-28.2458 -45.41662,-123.2072 -71.37879,-133.8777 7.44801,63.2495 38.19063,143.857 59.85857,186.3938 -34.8853,-6.3809 12.92005,64.0698 42.89739,86.5196 -27.28798,-5.7143 -38.65615,-23.0338 -10.847,13.4951 55.26931,84.1605 -97.71777,-100.3183 -23.11424,-3.4375 26.3923,26.2966 55.82368,91.2845 7.42381,29.7747 -23.96119,-18.8292 29.36935,85.1544 61.78492,90.133 69.82798,28.7428 129.77109,62.4662 189.72841,92.0859 35.58067,8.709 72.51735,29.9783 109.79582,18.9987 z m -85.33621,-108.2786 c 16.28705,-33.7105 145.13833,-41.482 116.87602,-9.1516 -38.81489,2.8061 -82.07153,-13.3728 -116.87602,9.1516 z m -142.16438,-48.018 c -44.84081,-73.3731 -24.30214,-184.1135 63.97187,-212.6116 -35.41056,49.0924 -37.46441,40.9909 -78.34823,94.7939 -7.68385,34.5457 45.9975,86.9432 14.37636,117.8177 z m -6.23208,-135.6667 c 1.98056,-11.804 -21.26614,35.6183 0,0 z m 26.3511,-38 c 49.63014,-50.3083 -45.89857,56.2904 -11.73911,12.5955 z m 29.46257,-23 c 12.38237,-13.0185 -15.52047,13.8528 0,0 z m 180.95832,157.6481 c -49.38159,-10.2409 -170.08543,-11.8857 -172.52704,-44.2167 92.33128,-63.6777 201.97696,-93.5358 297.35678,-150.9945 68.05551,-8.1499 41.02051,105.7989 65.22213,150.2376 -21.93727,64.5041 -115.39721,39.0486 -169.44848,45.232 l -10.32086,-0.1513 z m 116.29113,-9.2764 c 97.93269,-2.1564 45.0641,-116.9244 29.82446,-172.8357 -36.42186,-26.4089 -19.17012,63.5775 -68.8536,52.7047 -23.54535,33.9981 -93.63707,66.9331 -79.07514,1.5496 -15.12566,34.1586 -27.8401,107.9052 -87.01339,60.6136 -10.72887,-48.8959 4.89773,52.1829 -38.78421,30.4389 63.10096,39.9618 130.75294,23.7695 189.15904,-12.4255 36.22514,-26.7755 93.01321,57.9929 33.26913,14.3763 -36.87528,-41.9897 -143.5865,48.086 -47.62762,27.5414 23.04203,-0.2005 46.10286,-0.392 69.10133,-1.9633 z m -252.91649,-30.5233 c -4.5197,-49.5383 -60.88326,35.6092 0,0 z m -26.33455,-7.6143 c -16.05888,4.9544 -17.02042,16.2977 0,0 z m 52.993,-2.7729 c 34.57976,-63.3274 -64.32702,19.8177 0,0 z m 44.50864,-13.0663 c 65.59209,25.2049 31.18215,-96.1469 -8.12859,-25.8488 -6.28312,6.1334 -10.36158,36.8036 8.12859,25.8488 z m 90.79478,-35.3818 c 37.62113,7.0614 15.40392,-78.938 46.97319,-34.2374 47.02756,-8.0314 43.42701,-61.6655 -2.82533,-23.838 -31.66312,-7.9913 -91.28813,62.664 -49.72991,59.3842 l 7.43422,-4.5808 z m 203.13069,13.6536 c -21.71311,-56.1889 -12.45861,-195.1749 -99.64386,-155.853 78.25138,-72.8816 97.44477,59.2472 100.75461,114.7073 -5.26236,11.0284 20.51875,40.4052 -1.11075,41.1457 z m -532.84273,-89.4343 c 8.08096,-16.4689 47.69458,-13.0131 14.45338,-2.484 z M 518.4791,888.51582 c -37.0067,-22.56525 90.4301,-6.18396 107.85532,-35.88594 81.06861,-25.38966 163.13806,6.32022 243.80283,7.90276 31.31069,-15.41023 124.19734,19.50304 46.95492,5.96451 -67.78726,11.13614 -132.48973,-9.27142 -199.4283,-14.85963 -70.73396,-7.89971 -131.88647,25.30573 -199.18477,36.8783 z m 21.00112,-90.76854 c 82.04995,-23.31808 168.78576,-19.17353 252.56484,-31.85389 27.65368,-2.30887 122.07411,8.43271 42.39271,13.23971 -79.42702,-14.24749 -151.61318,10.63184 -228.78552,12.14675 -21.81438,3.81846 -43.8733,8.64528 -66.17203,6.46743 z m 23.36992,-57.02024 c 71.05773,-37.13704 164.24481,-24.07251 238.66542,-13.03131 37.55705,25.54438 -75.22198,-13.90423 -97.43574,-2.67141 -46.63973,9.24207 -98.90475,-6.00472 -141.22968,15.70272 z m 573.48936,1045.49916 -0.2463,2.4085 z m -100.9305,-30.4167 c 37.959,-27.0329 18.6468,-84.6565 -1.758,-35.413 12.714,3.7756 -6.1583,82.5208 1.758,35.413 z m -883.92703,-16.0022 c 13.66451,-97.8075 -9.52149,42.1256 0,0 z m 784.69602,11.6689 c -13.93356,-68.6631 -30.64858,-7.0557 0,0 z m 218.72291,-15.3056 c -6.1436,-0.3161 3.117,6.2812 0,0 z M 116.06491,1700.5803 c 38.33845,-53.1623 -52.391425,67.3888 0,0 z m 154.69699,23.2292 c -2.05205,-5.5061 -4.20854,5.8092 0,0 z m -3.24843,-6.2176 c 1.38824,-62.9797 -146.00871,-35.1688 -50.13989,-5.9995 15.8046,6.0349 33.30792,10.3751 50.13989,5.9995 z m 31.67852,-22.4086 c 44.04708,-62.3643 22.39259,-163.3199 -37.5763,-206.9524 -102.44651,-31.23 -110.88647,104.0487 -57.73864,155.2753 -14.53463,-39.1943 35.27689,-178.032 86.20521,-85.8741 40.65968,52.2879 -65.64576,128.2552 4.30279,145.6629 z m 632.35499,5.0473 -9.43675,7.0972 z m 153.91312,-5.7659 c 7.509,-10.0284 -37.191,29.9232 0,0 z m -777.71859,2.3478 c 27.93577,-33.3683 -29.13922,20.2063 0,0 z m 658.04086,-10.035 -11.6745,7.2845 z m -784.41654,-6.8562 c 1.85502,-25.7721 -29.78777,28.7945 0,0 z m 793.5581,-9.7072 c -19.59978,10.8441 -18.04928,18.2451 0,0 z m -0.25442,9.7253 -4.46804,3.5562 z m -810.89476,-3.7965 c 11.47663,-19.6135 -26.15407,15.0349 0,0 z m 815.8239,-5.3334 c 3.72909,-6.4929 -7.97614,9.6112 0,0 z m -718.16268,-1.6748 c 6.85381,-13.5793 -19.3997,13.2369 0,0 z m 764.70463,-35.0006 c 31.5588,-25.5283 66.2074,-104.6251 21.1552,-28.8112 -21.0404,27.8335 -86.70018,83.7219 -22.6282,30.194 z m -873.9787,31.0778 c 57.13094,-6.6558 -38.60867,-83.0731 0.45575,-123.7612 -0.57137,-62.9172 -44.93236,62.0302 -24.51964,83.3695 3.72285,15.4412 11.83947,30.0543 24.06389,40.3917 z m 48.65036,-5.4565 c -18.48819,-16.004 9.06382,14.0862 0,0 z m 67.21539,-3.5839 c -5.11696,-2.4244 -6.49113,12.5909 0,0 z m -4.71102,-1.0861 c 72.89579,-24.1603 -17.82587,-195.3298 -40.21489,-80.6494 -22.47552,45.3908 62.55316,102.4117 36.04371,28.5668 -22.15219,-69.0827 58.65144,56.4923 -14.79463,44.0728 -57.08736,-44.9762 -24.33774,28.631 18.96581,8.0098 z m 728.28202,2.3908 c 3.72911,-6.493 -7.97602,9.6108 0,0 z m 52.67285,-36.1803 c -23.8776,19.2681 -27.164,29.073 -2.0888,2.2112 z m -32.3115,18.8403 c 38.9844,-34.9468 -25.92954,15.4322 0,0 z m -837.06274,-16.0899 c -10.90583,-31.3141 -12.35609,-152.8267 -16.86184,-65.0048 0.96117,8.8669 8.91465,92.1612 16.86184,65.0048 z m -59.3949,-26.3134 c 18.6209,-61.134 -12.95959,-18.6276 -0.78089,13.5373 z m 212.88918,-30.9234 c 18.69942,-43.927 -92.8326,-115.8496 -19.41545,-47.9386 6.40085,6.0016 17.29406,83.8368 19.41545,47.9386 z m 744.28636,-11.9522 c 15.3097,-32.3398 -17.4708,29.7825 0,0 z m 13.9262,-25.117 c -2.1115,-4.7064 -1.9124,7.4745 0,0 z m -942.50887,-8.5974 c 6.36588,-9.5104 -10.15314,10.4482 0,0 z m 15.90762,-15.8702 -4.46801,3.5562 z m 204.75905,-12.1298 c -11.70522,-14.8874 8.10463,13.9235 0,0 z m -143.4222,-5.4158 c 72.26136,-29.8504 -87.78182,-8.3491 0,0 z m 47.68721,-10.7261 -4.88355,-5.3153 z m -75.01917,-3.0955 c 6.86982,-26.3619 86.25301,7.1758 43.40437,-20.736 93.06964,-0.8321 40.5708,-140.8177 5.23465,-185.7363 -73.6712,-59.6126 -118.9181,64.608 -74.90363,115.9724 15.90331,64.374 104.03414,-7.4931 47.19169,-15.375 -61.35721,46.4072 -39.27562,-103.8804 19.20503,-40.2473 33.61574,47.3584 -35.98557,-49.7746 12.44835,6.5481 56.4353,89.3112 -98.39423,141.6577 -108.93959,37.3616 -11.52631,-49.0866 12.98325,-98.8258 36.35263,-124.9737 -40.36112,10.3228 -98.121655,53.3941 -25.01807,14.6592 17.08992,-9.9494 -83.262592,37.9015 -53.976166,79.6053 2.171827,48.3739 50.994796,137.4893 99.000736,132.9217 z m 93.80401,-26.1997 c 29.85443,-77.3905 4.4789,-162.9407 6.74193,-243.5979 -2.29018,-69.9216 0.3442,-142.211 -20.96167,-209.21761 -27.03961,26.19101 -112.80393,58.05261 -36.11217,91.50791 97.5068,23.5788 -20.56833,171.4066 -16.57319,147.2429 48.74608,-18.1989 53.28166,38.9933 64.75456,82.4457 3.57091,20.1157 24.77641,123.82 -9.97237,140.5071 z m -9.94141,-380.3217 c 4.53785,-30.6798 4.56435,15.891 0,0 z m 953.83706,380.298 c 22.3688,-31.6656 -35.3408,23.8545 0,0 z m -8.1568,-3.9348 c 45.0326,-17.7696 -6.9226,-87.2958 -9.9246,-25.2816 35.0993,23.4553 -26.2028,38.5277 9.9246,25.2816 z m -24.0783,-11.6044 c -27.3314,-58.6398 100.9506,-58.7086 35.2732,-98.4732 2.3545,-33.0001 -93.0559,97.8139 -35.2732,98.4732 z m -979.58153,-4.2538 c 62.48774,-43.3499 -77.03258,-2.7533 -8.51858,0.8896 z m 528.11705,-26.5772 c 1.47921,-47.9234 64.60893,-75.9382 78.72257,-32.5492 82.94654,-11.4782 9.58021,-131.1278 -50.83411,-84.7949 -20.8258,-33.856 -0.58799,-150.4159 -64.92125,-89.9083 -10.72578,44.2422 -18.67113,121.2366 -61.89623,99.8664 -74.70991,9.811 -10.20092,134.917 18.88453,75.2035 -16.30413,-61.9339 54.27032,-3.6862 63.74652,26.4929 3.44069,-6.1036 13.1232,18.1753 16.29797,5.6896 z m -37.91259,-111.4141 c 51.2166,-19.9737 37.98827,-3.9057 -1.21667,3.0156 z m 5.23762,-11.9908 c 10.24305,-25.3831 64.73667,-23.9975 9.78095,-1.939 4.22573,-1.6199 -20.30733,8.2668 -9.78095,1.939 z m 46.31614,114.0917 c 3.19317,-18.7445 -17.53828,37.1329 0,0 z m 458.60911,-2.3956 c 1.0744,-35.6138 -21.4813,34.5039 0,0 z m -1066.46153,-14.331 c -16.74295,-38.5375 13.99259,47.2885 0,0 z m 55.16841,-4.6695 c 10.15903,-28.1594 -28.81395,13.4707 0,0 z m -1.68228,-16.7176 c 53.33892,-10.6548 -52.24126,-60.5213 -18.35171,6.9774 2.26118,9.7224 22.42511,-11.4726 18.35171,-6.9774 z m 582.77392,9.9767 c 4.61401,-7.1313 -10.23513,6.4013 0,0 z m 15.15588,-5.0522 c -3.52059,-11.4582 -8.27201,0.7555 0,0 z m -491.03965,-17.2681 c -18.35316,-87.6266 2.53116,62.1057 0,0 z m 358.58905,8.6304 c -7.17519,-10.1451 -4.37687,20.2847 0,0 z m 459.8424,-18.1076 c -6.6678,-6.0991 1.8129,24.892 0,0 z m -518.19044,-16.8809 c -1.05203,-9.4258 -1.95999,12.1226 0,0 z m 6.51812,-13.7071 c 4.21672,-6.1136 -9.45139,8.5421 0,0 z m 12.01017,-3.6145 c 10.374,-7.3809 -18.00167,7.5591 0,0 z m 543.40675,-15.4412 c 31.1928,-29.3777 -25.7618,-8.4061 0,0 z m -913.43669,-8.8117 c -31.96636,-43.5857 -28.77739,-16.1703 2.93933,6.6666 l -1.73813,-3.9422 z m 989.75759,-1.9669 c -23.0679,-42.2154 -59.2642,1.8694 0,0 z m -684.54519,-11.499 c 38.5112,-47.0795 -35.89031,33.1389 0,0 z m 704.63739,6.5114 c -6.6209,-12.8351 -6.2491,6.4094 0,0 z m 23.3333,-4.7315 c 67.0311,-46.0959 42.3141,-156.5986 -13.5589,-201.2984 -33.0065,-26.6735 -121.2492,27.4882 -100.9546,99.8511 -30.242,62.0157 55.0973,126.8086 86.2456,67.5718 -87.4873,28.2445 -107.046,-135.4104 -24.2852,-155.7715 91.9361,-13.2238 91.3871,122.2562 48.9167,173.9881 -14.9444,1.5306 -6.9781,26.7083 3.6364,15.6589 z m -100.8346,-5.649 c -14.8825,-9.4357 0.4747,17.2399 0,0 z m -750.2558,3.7407 c 32.2432,20.0812 144.46057,-36.6811 113.05612,-39.7009 -51.39001,38.4726 -175.06401,-8.2727 -161.94823,-47.3801 29.26971,24.9738 78.23307,-57.141 128.76733,-38.0368 46.13266,-1.3552 128.86004,12.6768 89.45934,71.9197 55.48396,68.6097 57.33862,-104.8887 -13.51923,-96.6719 -69.11113,5.8524 -191.2338,-1.9866 -222.46333,47.5215 7.97661,45.958 -6.4694,116.4439 66.648,102.3485 z m 844.4451,-16.205 c 55.1476,-62.2356 1.2218,-232.8548 -81.3451,-135.331 -35.8662,42.865 6.7541,142.5491 62.6877,99.0487 -28.0176,4.8535 -70.5321,-9.1089 -48.3685,-54.2683 4.5974,-71.1482 105.9219,-54.3356 71.729,13.9095 2.9643,12.1012 -50.1671,115.054 -4.7031,76.6411 z m -734.52241,0.8404 c 33.59384,-13.0459 36.17554,-49.1451 5.87484,-9.1395 2.6679,-1.313 -24.38752,18.172 -5.87484,9.1395 z m 24.31554,-6.5731 c 40.58124,-40.4151 -6.95716,-11.4686 0,0 z m 603.50677,-5.2673 c -32.5301,-45.244 11.3205,-144.2382 2.9186,-154.5601 -21.921,43.6775 -47.3064,117.0118 -2.9186,154.5601 z m -595.15125,2 c 4.21668,-6.1135 -9.45152,8.5424 0,0 z m -388.83675,-3.3023 c 108.56564,-20.9679 48.70841,-190.3263 -47.0836,-165.0946 -60.08125,25.2173 -9.37289,172.1019 45.75818,110.8798 14.7616,-28.3871 -27.45556,42.9065 -27.65951,-17.0584 -6.25489,-26.7911 16.01823,-45.3742 5.78021,-9.7252 36.0069,-85.2257 62.43026,77.0656 -15.07573,49.1349 -80.79342,-23.3757 -51.31936,-147.7405 28.32451,-155.6573 -93.865024,-11.4101 -117.950383,113.7017 -53.96858,164.5568 16.06172,16.8736 40.18175,29.5744 63.92452,22.964 z m 289.39628,-9.4384 c -45.33201,-63.4249 119.44259,-81.0389 39.46642,-10.2116 0.0246,42.5482 147.43269,-53.7561 45.6481,-62.4706 -42.35624,-18.402 -201.07594,1.3387 -129.80751,62.3269 13.47436,7.1695 29.0685,13.5391 44.69299,10.3553 z m 374.67996,-3.7509 c 15.40631,-27.1076 -36.36758,-1.8707 0,0 z m 22.47867,-5.2985 c -17.2352,-19.1434 2.1889,9.9739 0,0 z m -639.72158,-3.3473 c 30.90671,-32.5138 -18.0137,10.4674 0,0 z m 685.83334,2.0778 c 61.72559,-2.8029 182.13483,27.6359 154.76193,-78.3953 -30.7527,-36.4154 2.6479,-17.8886 -0.5901,-29.4995 -61.251,21.167 -105.28037,97.309 -186.99756,81.8707 -61.38798,-16.0351 13.60646,43.677 32.82573,26.0241 z m -401.33334,-10.89 c -18.46242,-9.1743 -5.93546,24.1158 0,0 z m -22.06902,4.4164 c 27.0831,-21.0616 -3.94666,-18.9989 0,0 z m 1.82648,-20.0086 c -5.94219,-5.8442 -19.04358,38.4941 0,0 z m 749.50671,13.4778 c 28.9125,-27.5181 -29.6946,-90.293 25.3191,-55.2696 -39.2787,-101.3297 -95.2892,78.9117 -25.3191,55.2696 z m -763.94509,-8.2693 c 14.9827,-21.4889 -18.67306,22.8655 0,0 z m 183.13396,-0.3333 c 40.36583,-63.2257 -28.91966,-126.1591 -55.67024,-180.3978 -64.74763,-49.89359 -125.30091,-22.90828 -190.40103,-1.3634 -38.8453,16.7755 -137.8378,124.7504 -51.77513,130.6329 79.64553,-28.8278 216.57024,-66.617 276.28782,-2.3571 5.66486,13.7987 -6.63361,62.9184 21.55858,53.4854 z m -145.78637,-5.2001 c -10.39274,-7.5539 -8.56346,15.2182 0,0 z m 77.30368,-2.3131 c -8.55947,2.8275 -2.08784,11.2251 0,0 z m -108.42912,-2.2652 c 55.56889,-30.9812 -23.64866,5.9815 -1.44115,0.9912 z m 405.21885,-3.0705 c -27.03722,-19.5303 -90.49775,-31.1275 -28.13564,-4.5478 9.00975,3.0711 18.53691,5.3264 28.13564,4.5478 z m 35.27683,-1.4855 c 55.63222,5.7425 164.80616,-94.2667 54.43452,-82.8252 -41.82743,-20.0143 -159.29031,11.6755 -129.7945,55.602 22.46299,-25.8532 112.63232,-52.0619 74.78127,10.4618 -19.9222,11.4015 -32.4621,26.3233 0.57871,16.7614 z m -224.03691,-1.5156 c 71.85161,6.0724 35.1522,-105.0357 81.18442,-145.2885 31.48534,-53.35322 -24.79091,-13.6242 -54.76711,-34.32738 -41.58451,0.87823 -175.29243,-38.89524 -104.2883,38.05138 45.80027,35.8884 53.75051,88.7468 77.87099,141.5645 z m 210.68294,-8.15 c 38.49233,-38.6509 16.62439,-35.6034 0,0 z m -736.882,-2 c 15.65138,-35.6398 -15.72105,-9.3165 0,0 z m 732.81468,-6.4207 c 9.21201,-33.2416 -35.8298,30.3853 0,0 z m -611.94895,0.9301 c -1.01731,-13.0594 -6.22074,3.8866 0,0 z m 595.83815,-2.8974 c -5.69778,-20.5519 21.66304,-41.5184 -11.07768,-9.224 -6.15262,8.531 2.62062,18.3951 11.07768,9.224 z m 245.51515,-10.9454 c 11.6158,-36.624 42.4762,-106.9144 5.6402,-33.3046 -0.6913,2.5971 -17.5511,54.4604 -5.6402,33.3046 z m -216.01997,-9 c -4.91025,-5.7442 -6.43669,5.9396 0,0 z m 110.66677,-36.6666 c 1.8093,-8.3611 -8.9313,8.9133 0,0 z m 113.9177,-11.3334 c 60.0747,-22.6762 -27.2512,-87.5962 -7.9659,-14.0064 -0.8672,3.109 -0.057,34.018 7.9659,14.0064 z m -845.48608,-2.6271 c -16.40646,-23.0953 10.75867,27.6131 0,0 z m -209.98057,-9.7062 c 3.07308,-14.2771 -27.489765,41.5448 0,0 z m 983.21565,12.4633 c 29.8647,-35.6551 -32.9241,-6.4394 -14.9956,3.823 z m 151.0942,-35.8135 c -19.6467,0.093 -3.7965,4.9883 0,0 z m -16.7309,-10.8961 c 81.0974,14.0632 105.1649,-102.00952 74.2602,-155.4119 -62.1485,-74.05995 -167.6336,93.68986 -61.4523,97.33127 16.231,-11.95604 -66.2295,-6.95299 -29.025,-52.05053 16.2054,-90.99805 128.4405,-12.16912 60.8905,35.52811 -13.3795,12.09198 -80.1865,45.06265 -23.613,37.40395 -26.8422,37.4848 -118.3012,-51.44291 -77.609,19.0507 15.0982,10.9468 36.9837,30.7496 56.5486,18.1484 z m -847.74121,-4.3315 c -9.63597,-3.0002 4.65272,9.8442 0,0 z m -165.56905,-5.6819 c 91.75711,-22.8102 55.68664,-163.41575 -25.96081,-173.5233 -50.56977,8.5869 -37.61636,156.0535 -4.57263,63.47363 50.41539,1.06928 15.14629,97.34247 14.43497,22.98502 -29.38468,-50.42525 -38.10507,78.54535 -14.63011,43.13818 -59.15947,12.48074 -46.26273,-119.66145 5.89601,-137.4072 32.59768,-19.62713 -79.75287,10.04278 -78.12361,50.75311 -34.255853,63.2125 35.10105,148.01596 102.95618,130.58056 z m 158.79912,-8.7847 c -17.02947,-11.7585 4.05006,9.1305 0,0 z m 948.79374,-35.51581 c 25.8339,-38.68508 -14.2972,-107.55379 -3.0905,-27.13462 -4.2543,25.4052 -28.6997,82.20833 3.0905,27.13462 z m -440.15041,-10.1825 c 18.10938,-39.13889 -38.23391,39.47671 0,0 z m -408.16229,5.7427 c -4.57582,-5.54637 -3.44857,5.4373 0,0 z m 305.74716,-3.5636 c -5.31816,-17.56102 -5.33219,17.92111 0,0 z m 41.58617,-0.012 c -4.3988,-4.31023 -1.72819,9.67424 0,0 z m 335.11577,-0.5682 c -2.0815,-36.57337 -11.9443,3.58688 0,0 z m -303.22585,-18.3172 c -18.88908,0.37548 -0.12216,38.09228 0,0 z m -83.99697,14.461 c 3.62908,-9.02194 -8.1528,12.89096 0,0 z m 52.66051,-4.5647 c 5.79469,-23.75834 -18.08805,23.41222 0,0 z m 444.93841,0.2558 c 52.2949,-30.96631 -43.4434,-118.67545 -2.7236,-42.47133 5.1076,7.76019 -12.1603,46.96431 2.7236,42.47133 z m -408.54071,-0.4608 c 1.09422,-16.2274 -6.66651,21.10721 0,0 z m 58.94822,-1.7163 c 41.00409,-34.80384 -31.42892,8.80859 0,0 z m -180.16631,0.9462 c -2.69426,-29.93558 -9.67177,13.35356 0,0 z m 507.3592,-1.1511 c 58.3553,-40.75056 -49.3018,-84.59472 -27.9047,-8.64641 1.4662,12.9249 19.1266,17.22641 27.9047,8.64641 z m -657.69781,-3.8616 c -9.53654,-10.35008 3.88919,11.28598 0,0 z m 314.55864,1.3068 c 5.58413,-13.97541 -10.27052,8.90224 0,0 z m 187.38037,1.2457 c -1.7554,-5.05543 -2.9927,5.16328 0,0 z m -319.19531,-5.7285 c -5.64981,1.69383 4.39259,9.78089 0,0 z m 305.75511,1.5557 c -6.8377,-1.678 0.064,8.88483 0,0 z m -71.2266,-1.6738 c 35.7041,-34.71891 -37.88715,15.56225 0,0 z m -364.02041,0.8466 c 0.25142,-10.06192 -5.87988,2.29298 0,0 z m 445.35381,-3.7009 -7.5876,4.0628 z m -356.00007,-2.6793 c -6.33853,-2.53867 -3.89865,7.278 0,0 z m 298.30317,-6.7611 c -10.0879,3.85064 1.7576,12.8182 0,0 z m -139.6365,1.9191 c -3.70537,-15.59238 -3.88344,19.44959 0,0 z m 214.4407,-2.9958 c 11.2344,-23.09884 -30.2772,19.80588 0,0 z m -56.0569,-4.96428 c -4.3336,1.05909 2.5699,7.00639 0,0 z m -112.15948,-1.03648 c 4.4324,-12.04835 -18.84909,14.98444 0,0 z m 7.80739,-1.78124 c 6.71692,-13.83696 -9.77666,13.94774 0,0 z m 207.70299,-9.66667 c -2.6015,-20.25394 -0.9777,48.40147 0,0 z m -181.84055,0.12774 c 9.31753,-15.20597 -19.32731,19.93708 0,0 z m 41.01675,2.95564 -0.2463,2.40853 z m 191.0251,-13.07008 c 20.824,-49.42035 -23.7561,47.43901 0,0 z m -215.936,2.65337 c -1.7553,-5.05559 -2.99273,5.16335 0,0 z m 159.1236,-18.45065 c 19.082,-55.4396 98.0373,-76.94387 79.8801,-148.11922 3.6932,-32.03955 2.8646,-125.60879 -7.8467,-115.15299 -0.8766,34.39844 1.9541,113.16838 -18.305,121.62393 11.1625,-65.78385 20.5567,-156.50489 -16.2814,-205.49475 6.0132,36.52057 6.3232,122.38548 -4.9151,36.04729 -7.6421,-97.43943 -123.7507,-169.57898 -210.91485,-118.3723 69.00755,-20.87816 152.74865,10.90664 179.53425,83.11796 44.6702,79.75974 -86.0846,8.19932 -124.7879,52.60447 -32.10803,12.88777 -98.42629,85.15265 -40.25165,20.38935 26.52225,-47.03088 156.09815,-24.61529 132.89175,-72.85799 -66.7814,-26.54389 -148.05105,12.68483 -195.39693,61.66844 -49.68545,30.68482 -52.77977,103.82998 21.52349,81.79492 52.84958,-1.31967 -40.55716,-16.00764 22.93877,-6.93504 70.63397,-5.19908 168.36107,-28.44303 161.16857,76.80784 6.2648,47.7846 17.9278,107.83074 15.7885,147.40717 z m 13.3761,-59.54935 c 13.6368,-66.52179 0.9954,-172.87646 -69.2325,-197.78446 -30.3406,-3.97891 -116.31173,57.91212 -53.1875,12.57411 97.227,-74.63445 135.2576,59.62194 138.3348,134.59285 -0.2625,17.8513 -4.3216,36.52649 -15.9148,50.6175 z m -4.4996,-23.23303 c 8.8332,-31.2694 -39.5032,-129.15737 -14.0715,-114.36412 9.7353,35.97062 35.3492,78.35305 14.0715,114.36412 z m 76.0794,88.8997 c -12.3885,-6.83526 -8.079,28.62753 0,0 z m -42.0301,-50.35446 c 63.4809,-24.69754 -36.569,0.22377 -7.0365,4.02075 l 3.7407,-2.1375 z m 6.6174,-13.70064 c -21.6081,6.2862 -9.5828,12.82015 0,0 z m 91.3333,-3.0236 c -7.9123,-14.15815 -6.3654,16.28152 0,0 z m -75.8144,-5.87694 c 6.1146,-9.84687 -14.9312,12.13201 0,0 z M 226.19589,827.5319 c 19.35959,-50.04572 95.80422,-157.51211 76.05906,-158.97703 -28.26428,22.79844 -79.51333,44.68744 -19.27125,12.03078 34.74035,-18.6839 100.52971,-122.363 35.98989,-47.84461 27.22882,-54.92757 119.91408,-91.32969 120.72233,-111.95194 -61.98817,26.48354 -104.19035,85.95971 -147.35565,135.92466 -26.40041,36.34875 91.68665,-127.57044 12.70359,-63.70069 38.28559,-8.77561 74.72139,-99.60213 21.85921,-40.19172 -31.96541,22.9718 -78.4668,153.69113 -63.22545,64.69401 35.81752,-85.29024 -36.75375,38.04574 -33.77539,69.41882 -6.29759,36.10656 -17.10244,135.30308 -3.70634,140.59772 z m 1055.07591,5.27762 c 11.6559,-131.02932 1.1465,-279.56377 -91.9015,-381.19675 -53.4202,-36.18526 21.3299,60.88907 12.3628,86.68816 17.1807,80.16705 45.7666,163.80998 19.9504,245.22512 -15.2481,63.20575 40.8832,35.75861 59.5883,49.28347 z M 260.85953,786.70088 c 46.24606,-68.92934 146.27504,-112.79363 200.80901,-142.41389 -34.68746,-6.53729 -107.58795,41.30057 -114.38274,53.11454 33.92223,-23.79468 117.41836,-62.14999 36.92377,-16.48313 -29.52547,23.26958 -91.18498,40.52638 -26.94094,3.12828 29.61244,-22.31428 148.16399,-71.96554 53.39538,-59.88806 -69.6122,25.88064 -118.92845,90.85325 -149.55848,156.21036 z m 46.21728,-86.22469 c 20.0839,-35.76009 91.10928,-74.73163 107.28545,-87.4496 -57.38802,-2.80534 -119.14816,65.44004 -116.69819,99.4276 z m 504.03445,-3.33333 c -35.26624,-23.80637 -66.64098,-12.64409 -13.33929,0.7733 z m 52.23915,-12.91791 c 42.0912,-84.30052 127.46365,-143.16161 222.09459,-143.76454 -72.5888,-39.09107 -189.98879,13.44429 -245.20179,78.9018 -63.08097,69.98168 53.3742,-74.67144 93.58762,-73.88225 50.64682,-32.92565 128.05727,-25.03677 171.99927,-19.92336 -35.4718,-52.19559 -119.48615,-62.28764 -143.35871,-35.01585 -31.59914,-18.71212 -78.5346,69.78639 -45.02839,9.50131 -58.74679,32.55976 -121.71302,79.1483 -140.95386,146.16865 -10.70991,48.86777 69.0696,49.09394 86.86127,38.01424 z M 762.09082,663.47619 c -7.0215,-52.65095 164.02264,-205.6183 112.71663,-160.4974 -70.49147,19.98459 -91.18649,119.34319 -129.48302,138.09539 1.83175,-76.39287 -37.17737,-169.19808 -111.44121,-208.14474 -85.20614,-57.22331 -210.92661,-69.79643 -287.48228,9.35352 -60.96093,55.15178 -95.65618,133.29888 -117.12389,211.07235 28.40753,-62.94703 74.44622,-116.14435 107.89144,-176.3815 79.83948,-36.77378 182.64812,-75.00583 266.28757,-19.62018 81.25886,38.95407 117.93937,115.95441 130.74675,201.84491 9.56212,-0.71804 18.6241,10.35675 27.88801,4.27765 z m -174.66225,-1.65925 c 57.0753,-23.81287 155.43964,-2.08703 130.94507,-21.04589 3.99597,-82.23543 -61.41005,-126.06813 -118.42681,-163.41104 -55.33527,-37.5857 -134.85764,-52.20923 -192.76322,-12.97189 41.31468,-9.24221 139.78214,-21.90229 183.65469,28.86893 42.86597,35.14174 118.55619,108.14131 113.61993,143.73289 -12.56654,-28.98941 -85.16362,-117.90264 -56.39114,-32.60474 -5.48215,71.38669 -96.5074,-100.65094 -51.42097,6.46264 -40.45142,-18.10191 -114.70382,-94.93951 -161.04156,-39.51537 -0.48077,34.36051 107.49405,102.61453 84.87952,38.18797 -33.95481,-52.15291 92.02167,75.22329 50.23301,54.25292 5.57978,-0.51344 11.00857,-4.7767 16.71148,-1.95642 z M 346.97343,633.65516 c 40.26604,-4.41031 119.12702,-70.09061 76.54055,-81.56189 -25.53849,-4.10701 -124.66454,104.13574 -76.54055,81.56189 z m -62.48536,-31.72554 c 36.95713,-24.06552 43.81569,-81.38127 1.26776,-22.70962 -3.66066,6.77527 -24.58648,60.80006 -1.26776,22.70962 z m 484.27688,4.70614 c 37.03822,-77.2028 120.31208,-113.67741 183.71245,-164.56542 22.02176,-14.28994 138.9913,-23.18549 100.0328,-41.22607 -92.6541,9.94281 -183.17306,56.52826 -247.00391,124.07389 -15.88734,22.74402 -49.00852,51.51939 -36.74134,81.7176 z m -134.67657,-23.8744 c 23.85664,-57.68525 -135.80906,-89.51411 -44.92764,-35.66103 10.40685,-0.70335 48.01519,59.77959 44.92764,35.66103 z M 363.54921,572.14464 c 26.02181,-21.90488 58.96685,-72.04027 66.31727,-64.51236 28.61505,-5.15663 108.35379,-15.40444 35.54076,-18.76859 -33.23675,-18.98263 -133.81305,57.5031 -90.42265,52.57865 29.13935,-25.80189 -71.81891,71.37606 -14.67035,33.786 l 3.11851,-2.97268 z m 206.54602,3.49828 c -13.25165,-29.73061 -48.74183,-27.9527 -25.52722,-37.90526 -37.93459,-37.63071 -154.62863,10.25132 -143.91402,22.56299 20.8607,-21.78618 122.25525,-43.66825 102.1366,-21.80179 -88.55381,1.69416 39.21058,19.57074 67.30464,37.14406 z M 286.06166,565.567 c 4.26823,-13.20484 -12.93775,23.09587 0,0 z m 843.29974,-9.13617 c -27.9904,-45.19576 12.4099,33.43427 0,0 z m -818.78422,-5.77055 c 57.74844,-29.44256 -16.15215,-16.91985 -10.49146,8.44801 z m 534.80203,-11.3415 c 52.02111,-41.20207 1.433,-11.73352 -16.89412,16.69788 6.7569,-4.29342 11.11209,-11.35633 16.89412,-16.69788 z m 345.49769,-9.92191 c 15.8323,-58.95253 -96.6625,-139.9389 -110.5705,-107.54848 49.4731,8.7428 103.4661,117.40553 110.5705,107.54848 z m -739.115,13.52961 -3.25312,0.0636 z m -136.62292,-8.77134 c 45.20521,-7.56224 72.82654,-70.12182 28.73558,-28.42118 87.90226,-96.58449 -55.38492,2.37573 -28.73558,28.42118 z m 229.12448,-10.01228 c -26.43762,-43.76545 -71.74744,7.3483 0,0 z m 57.09943,-11.63426 c -43.33417,-47.01711 -116.36537,-57.06853 -175.90388,-43.75744 61.91296,-14.46353 140.42544,35.96986 175.90388,43.75744 z m -235.76763,1.78652 c 47.40562,-32.58719 -6.69408,-22.09472 -4.18357,1.18687 l 4.14478,-1.17587 z m 536.67081,-10.4004 c 31.49643,-27.53051 -51.39985,32.21703 0,0 z m -407.72765,5.17804 c 8.75727,-21.02716 -62.50884,15.31269 0,0 z m -79.38039,-17.22384 c 46.224,-5.57356 66.9462,-16.19876 7.80492,-12.99398 -27.52812,1.18344 -57.10464,41.64553 -7.80492,12.99398 z m 484.49332,1.42543 c 40.36729,-19.35802 -18.61412,2.41771 0,0 z m 241.23635,-9.13149 c -8.5024,-43.33778 -121.3174,-39.09444 -32.6268,-19.86031 4.568,-1.92274 47.3834,41.55369 32.6268,19.86031 z m -212.93987,2.24205 c 70.41798,-28.6405 -40.12586,3.34694 -4.04597,0.74756 z m 22.81407,-22.54655 c 26.84885,-0.50943 118.5834,-44.65238 40.43019,-28.43682 -29.3287,-0.95071 -132.74974,71.84041 -50.47724,33.20888 z M 391.42857,474.0931 c 55.22224,-20.95171 -14.05203,-26.21037 -7.0705,2.21415 l 4.11147,-1.28752 z m 654.00013,-31.77571 c 35.2205,8.25093 67.4948,-15.15236 12.0647,-17.4388 -17.2481,-4.153 -49.5175,29.09942 -12.0647,17.4388 z M 550.09523,1991.5573 c -43.84006,-0.3317 -53.84307,-48.6909 -3.02339,-11.1517 20.76975,3.559 32.2912,12.495 3.02339,11.1517 z m 19.87819,-13.0576 c -43.43118,3.3202 -40.76049,-81.9619 -16.16976,-19.7719 5.84637,7.8779 57.93282,18.9929 16.16976,19.7719 z m 16.58015,-9.412 c -40.71831,1.7884 -56.3492,-81.4876 -18.80416,-21.647 7.80402,7.6484 56.60053,21.3789 18.80416,21.647 z m 35.08704,-174.4964 c -36.50483,-14.4739 -56.29695,-53.5659 -7.5403,-18.6016 16.32779,4.6086 45.62048,36.7799 7.5403,18.6016 z m 433.45469,-108.2219 c -13.8693,-26.468 29.8892,2.583 0,0 z m 47,-170.4812 c 1.5363,-7.5886 2.7076,4.678 0,0 z m 34.4179,-3.4256 c -55.3662,1.3545 22.8241,-21.9566 2.435,2.6002 z"
       style="fill:#000000;stroke-width:1.33333"
       id="path239" />
    <path
       d="m 702.02381,1780.6144 c -71.28129,-11.8957 -123.44513,-60.619 -190.39192,-83.6314 -52.99382,-1.5279 -143.80627,-115.7755 -116.44101,-111.5397 32.12836,44.1342 40.16175,21.6011 9.6049,-14.3243 62.64022,43.0157 -30.84948,-42.0893 17.99787,-27.6365 -21.54533,-29.0511 -74.58868,-67.7139 -37.56799,-88.6927 -35.75558,-44.1398 -64.52014,-152.2819 -58.6834,-181.4763 21.2935,44.1093 27.54838,109.543 72.28314,133.9823 -23.99534,-62.1876 -68.98942,-127.071 -74.32603,-190.4118 13.92193,26.947 80.69038,89.6253 58.80675,97.0984 -23.09672,-58.8556 -38.67153,-115.234 -55.54669,-176.6887 65.84097,30.9722 24.10808,166.6832 133.24684,132.7378 35.01851,-11.9808 77.99028,-8.5016 24.83436,18.421 -53.84955,44.6315 90.46282,-61.7348 42.65943,-7.9822 -63.93909,59.3511 62.08157,-35.444 31.78005,-5.9584 38.60074,-26.6339 -76.92382,114.6965 -22.69813,60.1883 36.74556,-48.2641 22.39075,1.9617 16.2305,-0.8444 28.31936,-60.8983 79.10092,-115.8497 133.40386,-134.538 42.45917,95.2688 -154.09982,93.2913 -67.98564,191.9844 47.94905,-8.4513 85.24659,-1.3389 115.63211,32.275 29.69367,-50.5394 73.90853,-38.6313 119.32288,-52.0478 52.9113,-54.8841 -6.79855,-116.1993 -63.27969,-103.2325 -37.35188,-35.2873 -10.54375,-116.6077 26.95617,-58.3445 5.3895,-30.2926 5.38175,-165.8815 -6.36524,-69.0319 -18.02806,89.8356 -65.78242,-51.1097 -17.24837,-79.0567 28.37905,-42.2714 15.77408,-27.6678 10.64903,-32.0604 37.10626,-48.78651 90.8296,-42.49824 146.04868,-76.56075 -10.8405,22.4506 -44.89723,37.3449 0.12703,15.06613 49.4105,-31.70933 23.61618,-5.70414 35.18884,1.79751 54.13036,-32.07315 124.67816,57.99601 122.55016,-37.90586 -31.6961,22.99146 -76.3751,-23.06896 -86.9944,6.15671 -2.363,-45.67772 -79.62923,-44.44784 -69.6988,-29.04724 -36.60747,35.80098 -63.10605,21.92061 -116.1346,46.99457 -61.28362,7.44203 -80.02595,-20.57342 -137.58848,1.22725 -29.69419,-35.35115 -70.88622,-23.65228 -85.60357,-5.95446 -47.2804,-33.86281 -98.64985,-3.7145 -150.67174,-6.84342 -33.16652,12.53803 -65.12214,69.00016 -114.75103,73.71546 -2.59137,14.7394 6.58905,62.316 -30.3226,23.3324 -33.26016,-63.56589 -28.87821,-139.65601 -35.56851,-208.70879 18.76178,-36.09546 30.70926,-76.60045 -9.49126,-33.47002 -16.57112,34.32897 14.46628,145.5463 -39.7681,67.04048 -21.21051,-35.40842 33.28916,1.37849 2.95969,-36.34906 33.47057,-65.86159 102.67055,-116.43059 169.08146,-149.56861 43.24316,-14.61142 111.4764,-42.44473 140.77137,-28.49783 -27.17092,43.29172 -141.95001,26.31276 -154.28155,63.54864 85.03992,-33.49749 177.40433,-40.3177 266.26469,-59.71663 55.57242,-15.14533 90.14125,44.95335 138.45349,47.71032 79.54922,1.64222 158.74074,7.74521 238.36554,3.72513 102.8236,-13.97045 73.6046,123.12199 85.4557,187.73142 -6.5117,62.63372 70.2369,166.48915 -4.7841,198.88465 -14.1494,-11.9549 14.7104,-73.419 -48.8529,-56.5615 -81.93291,13.1365 -168.6371,14.8958 -245.05227,50.0188 53.00437,-7.3713 146.26396,-31.6169 215.78427,-36.1767 40.705,-17.3055 78.039,4.6659 29.5464,34.6958 -67.88588,2.6841 -143.64851,-22.4481 -200.77996,31.5438 -87.47752,61.371 0.73745,154.325 69.81623,180.7864 33.9931,23.3242 65.75193,15.3018 14.05999,-5.9548 -36.16383,-10.8712 -111.95411,-90.624 -39.63593,-36.7567 33.26165,30.1994 67.93822,18.0991 15.09623,-7.1855 -58.6642,-35.9019 83.35494,-27.9868 113.26284,-24.6665 75.9847,9.8503 42.4398,-111.2415 91.2148,-120.4793 11.3825,62.3359 0.8,139.4964 -8.0767,205.7735 1.2597,71.9645 -15.2708,142.1965 -45.5108,207.1876 5.1668,36.2724 -50.9781,111.2487 -94.19599,141.2145 -76.53475,58.7414 -161.27707,126.7924 -261.88426,127.2668 l -7.90503,-1.7571 -9.36863,-2.4461 z M 684.34214,1672.022 c 22.746,-16.5907 150.23285,10.7692 98.13347,-23.9043 -17.58411,-20.0427 -141.85105,29.3198 -98.13347,23.9043 z m -146.58519,-48.0152 c -1.5411,-62.8795 -49.88317,-130.7709 29.06136,-170.1992 72.47684,-82.1828 -68.98847,6.7388 -58.99813,56.7006 -4.12471,30.6079 -2.02494,111.4606 29.93677,113.4986 z m 368.5492,-40.4408 c 84.2856,-21.7719 18.92897,-137.0635 7.73801,-191.0615 -79.59098,9.3574 -150.93196,70.1469 -229.09899,96.0639 -30.00069,19.5357 -169.12572,69.7991 -62.7853,79.5154 92.94007,22.3715 189.33035,28.1315 284.14628,15.4822 z m 90.24419,-82.539 c -14.65571,-50.7284 -1.78779,-197.275 -84.63272,-168.1108 -73.03858,39.6998 53.2721,-18.1114 46.19837,44.4005 17.69647,32.6444 6.2441,116.1832 38.43435,123.7103 z m -517.50926,-90.8958 c 21.94213,-29.1106 -58.30594,21.9137 0,0 z m 65.99067,-525.76571 c 78.98999,-27.56496 165.02221,-43.25315 248.07142,-21.41333 50.64943,14.35876 117.11797,2.34545 159.73281,6.53967 -87.62604,-15.40073 -184.70645,-22.68403 -276.90404,-25.2616 -57.47623,6.70421 -121.75397,32.06808 -171.74302,38.9371 12.05868,10.9479 27.40689,2.70903 40.84283,1.19816 z m 50.33333,-90.05632 c 75.84964,-1.23308 147.62773,-27.51196 224.3843,-14.92249 46.61201,6.60854 69.19346,-15.43016 10.16174,-12.10641 -87.10165,-2.26616 -174.12619,10.77397 -260.46036,21.37329 -52.92429,8.5206 -13.21623,14.46907 14.44756,7.41247 z m -18.16703,-58.24521 c 69.21888,-7.65509 143.70002,-17.62826 212.87669,0.29377 73.91527,-2.4752 -72.56465,-33.25572 -99.08713,-17.91603 -39.6459,0.4402 -104.01149,-7.68448 -125.65806,23.09696 z"
       style="fill:#e9afaf;stroke-width:2.39683"
       id="path251" />
    <path
       d="m 664.73769,1184.9773 c 14.02814,-101.434 -102.02666,-83.5162 -169.3909,-77.3603 -45.47817,-8.9829 -165.61644,76.4648 -142.38006,-13.3501 30.75559,-59.5236 97.44622,-112.63108 163.79671,-103.82026 62.40192,-35.16801 127.14732,35.92956 149.34062,93.58346 17.16046,20.8766 45.83563,107.4423 -1.36637,100.9472 z"
       style="fill:#e9afaf;stroke-width:2.39683"
       id="path253" />
    <path
       d="m 720.7247,1173.3459 c -21.58284,-68.3664 -61.83295,-124.874 -103.78717,-183.4069 59.56181,-13.50176 128.81658,16.665 181.41294,13.8223 11.59893,23.4899 -49.70981,105.7649 -42.36204,159.0902 -6.33403,12.1547 -23.38118,14.4861 -35.26373,10.4944 z"
       style="fill:#e9afaf;stroke-width:2.39683"
       id="path255" />
    <path
       d="m 736.20247,1396.3764 c -10.12099,-36.7271 -92.61039,-89.2048 -69.70508,-19.2214 -73.59235,36.3763 -50.50639,-111.1926 -3.22917,-75.7265 52.12617,-8.2011 34.79487,-171.4811 95.69099,-105.851 -1.47239,52.2808 6.61254,112.0285 70.24484,84.3404 70.96693,28.6617 6.37997,127.585 -30.11892,63.5027 -39.66116,-12.656 -44.54753,74.569 -62.88266,52.9558 z m -3.65405,-107.8278 c 54.98489,-15.7859 -38.82625,-10.2821 -19.13969,3.3605 l 7.84684,-1.7038 z m 3.03095,-15.8907 c 76.52599,-49.5737 -66.72896,14.3594 0,0 z"
       style="fill:#e9afaf;stroke-width:2.39683"
       id="path257" />
    <path
       d="m 835.04762,2020.1862 c -72.37611,-26.3569 -147.29715,-16.753 -222.4667,-20.7534 -38.85682,-12.4951 -183.64149,38.317 -108.0565,-36.8122 34.36519,-39.6054 59.14928,-113.0517 64.97373,-51.8643 -67.61843,-12.3884 107.87478,70.9167 35.29897,9.0509 -37.10754,-22.8576 -74.23311,-122.3934 -12.12713,-50.5503 82.73926,50.0449 -87.75166,-96.0812 -2.13214,-40.8805 22.83136,18.8336 71.36389,28.9915 17.0769,1.9544 -43.38463,-15.4834 -71.5246,-126.7227 -16.7127,-55.0572 27.37643,33.8084 80.33752,26.8209 20.40327,-2.0067 -7.84234,-12.8047 81.96602,31.8761 115.8199,22.8301 56.15382,13.6568 107.1826,-34.1107 149.3042,-40.0257 1.86304,88.76 24.27006,179.9638 80.85629,250.1058 -36.25206,9.1098 -81.85745,17.6653 -122.23809,14.0091 z m -266.74751,-31.0921 c -28.28097,-23.667 -94.15046,-29.9973 -29.5304,2.612 l 13.26149,0.7063 z m 19.38036,-14.7092 c 36.45737,-10.9434 -80.60077,-89.1835 -50.09803,-16.8095 6.32944,16.9169 37.23673,28.6978 50.09803,16.8095 z"
       style="fill:#e9afaf;stroke-width:2.39683"
       id="path259" />
    <path
       d="m 765.26465,1581.5648 c 18.18913,-52.1912 88.93981,-30.4052 119.90791,-14.7125 -49.72495,-83.4841 -122.95657,36.3767 -188.03719,5.8338 -32.01377,-8.3739 -91.37331,-15.7398 -33.69997,-33.9594 -21.06629,-61.8277 67.42934,39.697 78.09249,-24.194 -4.25805,-39.3607 29.95664,-76.4372 17.35072,-14.305 50.52552,5.8257 78.60858,-45.7955 120.26141,-65.3689 22.44093,-90.2644 76.24771,96.0348 43.40253,128.017 -43.49284,30.2127 -106.80089,13.5299 -157.2779,18.689 z"
       style="fill:#000000;stroke-width:1.69481"
       id="path261" />
    <path
       d="m 1007.199,1212.2549 c -37.66261,-10.4799 -123.56262,15.3496 -122.16149,-25.5765 73.3284,7.9591 134.62099,-29.8248 180.03919,-79.1847 43.5874,-6.8414 -21.3577,2.4146 20.2503,26.08 14.3613,54.1099 -20.9376,94.7029 -78.128,78.6812 z"
       style="fill:#ffffff;stroke-width:1.69481"
       id="path267" />
    <path
       d="m 1022.4523,1907.0433 c -62.0618,-23.1085 -118.84956,-103.5863 -113.90128,-165.219 36.33783,58.4227 97.60098,78.7999 140.78098,125.9842 60.5458,35.8338 21.788,43.5831 -26.8797,39.2348 z"
       style="fill:#ffffff;stroke-width:1.69481"
       id="path269" />
    <path
       d="m 1133.4383,906.04524 c 2.2467,-65.44478 -11.3668,-132.09062 -29.3237,-194.87946 -31.0172,-56.3335 -119.17189,-0.33818 -173.97657,-20.23779 67.14317,13.48779 -106.49564,23.04792 -45.96494,-33.63736 43.63682,-67.81871 124.05601,-112.5194 205.21041,-106.86364 82.5382,41.57134 -76.1495,37.93127 -100.34485,68.43602 -26.74187,19.09111 -59.66422,66.22589 -13.67859,21.52053 39.05504,-62.23071 144.81134,-29.82642 177.50334,-53.45439 -17.9765,-78.52174 -101.6135,-142.56497 -182.73729,-112.35011 34.11009,-31.31912 148.19829,-12.48929 177.22749,53.78495 24.5551,28.5461 36.9661,163.82748 33.5759,63.71742 -7.1598,-80.58124 32.7478,56.97396 20.9207,84.62121 0.6257,24.98883 -21.1791,147.00839 4.5553,64.54592 8.3825,-21.868 2.5491,-151.42305 13.2151,-65.64451 11.8643,83.7113 -4.9744,162.30115 -75.4296,212.62683 -2.7993,1.91998 -14.735,53.06712 -10.7527,17.81438 z m 28.1284,-72.82354 c 20.7186,-65.23335 -7.4216,-146.80002 -49.2164,-195.06213 -35.9074,-17.99876 -156.16915,67.97584 -73.2784,23.27238 68.0692,-46.11602 102.2719,32.58857 94.9761,86.46723 13.4025,23.4304 11.4596,88.69381 23.7007,62.29642 0.1258,9.5079 -11.2655,54.10369 3.818,23.0261 z"
       style="fill:#ffffff;stroke-width:1.69481"
       id="path273" />
    <path
       d="m 850.05632,689.5569 c -97.66464,18.32157 -77.7799,-94.04303 -15.23951,-128.21629 38.08643,-44.33916 80.02002,-43.07993 80.63746,-48.15464 51.58911,-39.65341 122.47823,-53.42841 178.38143,-0.22821 28.8175,35.80438 -71.0088,-12.93146 -94.67223,9.79642 -76.59464,13.79676 -141.5019,63.69556 -186.38446,125.45688 46.56395,-47.99306 100.34392,-100.6802 170.64689,-113.95892 40.5962,-19.14522 154.3339,8.16986 52.4765,12.66362 -87.12478,5.34924 -139.00657,93.25623 -185.84608,142.64114 z"
       style="fill:#ffffff;stroke-width:1.69481"
       id="path275" />
    <path
       d="m 566.548,656.01681 c 2.29336,-33.80677 -92.07474,-94.67027 -38.00085,-31.65812 -37.47008,47.78377 -146.79469,-87.86902 -44.49969,-71.46848 41.84017,3.4652 85.30298,53.4928 112.69408,56.25234 -42.44218,-92.77336 65.45431,79.76826 49.49845,-14.39858 -20.62801,-93.95705 95.6307,116.42949 49.59617,8.57714 -34.14056,-51.33077 -82.66955,-93.49428 -129.75674,-131.88182 -46.20801,-23.3516 -128.02084,-16.0479 -155.29935,-8.03367 85.18627,-56.28696 178.54473,8.43721 247.30921,54.37907 46.6142,29.6439 102.66209,162.37767 -0.63389,129.35405 -22.79887,-3.22569 -79.65227,27.76042 -90.90739,8.87807 z"
       style="fill:#ffffff;stroke-width:1.69481"
       id="path277" />
    <path
       d="M 746.42714,661.50235 C 704.69059,612.12932 719.52624,509.51961 637.95741,482.47057 577.9821,424.83105 481.35614,411.14732 408.31912,451.05735 323.22319,448.57317 304.65667,541.90918 259.80161,595.16094 240.31618,629.52713 220.82213,669.64845 244.769,607.80431 281.28281,500.19846 366.08121,381.98092 491.73707,386.81103 c 109.6137,7.71078 223.67461,78.58563 245.57532,192.5593 -0.76148,56.86097 22.82874,81.86322 43.17932,20.92039 12.39589,-35.48327 86.65322,-105.41629 87.16641,-88.47452 -56.29803,34.56099 -81.8016,119.15112 -121.23098,149.68615 z"
       style="fill:#ffffff;stroke-width:1.69481"
       id="path279" />
    <path
       d="m 220.8369,815.6553 c 1.55908,-76.27558 3.08659,-159.67358 50.40032,-223.705 -24.57123,33.47286 -8.95141,101.72686 9.77983,28.0955 6.39006,-30.7264 105.69945,-132.62028 57.56893,-55.98798 -23.66003,20.47743 -56.94554,47.82514 -6.568,12.77496 8.62316,32.74778 -93.43158,137.62977 -21.45853,58.91904 18.64883,-23.37502 30.21298,-35.04453 7.24361,-1.19024 64.01363,-66.03729 -26.11742,55.22968 -59.15456,58.6036 -29.3364,31.96654 87.09757,-65.44388 37.15129,1.70543 -23.79267,39.66333 -54.76955,108.09516 -74.70175,133.56887 z"
       style="fill:#ffffff;stroke-width:1.69481"
       id="path281" />
    <path
       d="m 176.74136,1031.1298 c -80.08223,-16.935 -103.70679,-132.29828 -29.2741,-172.51495 31.19617,-16.56796 73.47859,-22.94931 19.57896,5.52326 -41.24758,24.48339 -27.9083,168.67049 15.10117,112.38827 -34.65007,-47.55499 21.31802,-44.89592 22.52305,-2.95208 24.92631,-67.94935 -48.05662,-45.08572 -48.84297,-24.54501 -24.78167,-67.45117 42.66824,-123.19316 86.52757,-54.60749 48.03544,52.5963 15.15504,155.3924 -65.61368,136.708 z"
       style="fill:#ffffff;stroke-width:1.69481"
       id="path283" />
    <path
       d="m 299.14438,1396.2695 c -18.32241,-55.4546 0.23584,-114.2009 -47.66424,-157.0426 20.27316,-16.204 -56.602,2.2805 -8.8738,-23.7806 71.3099,-58.5593 10.05798,-125.3291 -38.748,-165.4805 30.69426,-17.9747 83.08477,-91.45351 78.89696,-10.4542 14.87651,99.325 9.65274,200.9298 17.13171,301.1287 0.26532,18.5339 0.47115,37.1247 -0.74263,55.6292 z m -17.32471,-332.3831 c -6.1832,-20.8238 -3.77271,26.6207 0,0 z"
       style="fill:#ffffff;stroke-width:1.69481"
       id="path285" />
    <path
       d="m 164.42042,1227.7711 c -62.09522,-27.893 -95.356096,-132.3892 -25.89036,-171.5789 28.94144,-17.9194 67.68487,-13.2688 14.69756,5.5754 -75.165728,23.3411 -41.65696,172.6539 40.70441,132.7597 48.36186,-21.1241 3.1929,-97.9456 -15.20881,-59.3059 -34.08736,-20.8469 33.8986,84.216 -19.8909,55.151 -68.7775,-42.4891 -17.69016,-177.2458 59.13566,-105.8657 66.2844,38.6508 42.13991,158.3236 -41.92889,146.4383 l -11.61867,-3.1744 z"
       style="fill:#ffffff;stroke-width:1.69481"
       id="path287" />
    <path
       d="m 172.83904,1470.7107 c -49.07399,-39.6719 -94.656771,-107.4299 -72.13148,-171.5876 24.56739,-30.1143 77.58253,-48.5285 36.06842,-36.1217 37.40083,-26.9059 53.88421,-10.9259 11.84351,13.6445 -48.27611,65.9145 20.80663,215.3207 98.9186,130.8661 24.85821,-60.6209 -8.34903,-107.0682 -63.28634,-87.3152 -19.68841,43.511 2.93908,72.4886 45.13502,48.2044 -1.05399,94.9555 -107.17087,-9.2561 -74.30057,-63.4558 15.13339,-102.1149 133.23987,-26.6015 125.10466,47.066 16.671,40.3088 6.26334,111.0707 -40.79693,103.2045 43.8268,16.9135 -62.01036,9.25 -66.55489,15.4948 z"
       style="fill:#ffffff;stroke-width:1.69481"
       id="path289" />
    <path
       d="m 174.01194,1471.5345 c -49.99741,-39.4037 -98.544558,-111.1371 -71.2768,-175.1128 24.91955,-27.9653 73.12449,-44.806 34.05437,-33.3865 33.99104,-25.7227 56.45523,-12.3732 13.17832,11.8183 -23.15392,52.558 -25.66726,151.3763 51.06191,158.3187 79.75436,0.4788 63.16729,-135.2212 4.52154,-116.9286 -51.72127,5.5415 -25.87232,94.9856 23.8355,52.1576 0.66287,93.1936 -106.69463,-7.2041 -74.25271,-61.5642 12.90415,-102.7323 131.0583,-30.7294 124.43172,43.6726 26.61583,45.7603 -9.97682,109.6584 -34.79325,108.9997 16.60098,1.6407 -64.18657,11.0002 -70.7606,12.0252 z"
       style="fill:#ffffff;stroke-width:1.69481"
       id="path291" />
    <path
       d="m 282.09045,1699.3595 c -28.76167,-41.7691 66.30509,-156.5834 -35.04445,-175.2379 -61.162,11.0807 -27.02763,183.2658 -66.34993,74.4678 -46.03813,-71.4392 32.38112,-146.1624 97.82347,-97.3338 42.24155,48.0331 68.83412,173.6312 3.57091,198.1039 z"
       style="fill:#ffffff;stroke-width:1.69481"
       id="path293" />
    <path
       d="m 199.62131,1896.7862 c -94.48533,-6.99 -135.055606,-165.6551 -58.10692,-205.1958 -0.32881,56.4008 -23.71711,176.9396 73.66801,146.0957 56.34017,-21.6597 32.02204,-151.6363 -24.84525,-78.2124 -4.05478,36.9086 -23.83702,93.5453 -31.51229,20.0015 -27.48364,-84.1003 45.28454,-59.0966 94.59666,-48.4805 56.47081,3.52 40.93062,116.4736 5.06931,145.1474 -15.59402,14.2751 -37.97949,21.0456 -58.86952,20.6441 z"
       style="fill:#ffffff;stroke-width:1.69481"
       id="path295" />
    <path
       d="m 296.0643,1840.1358 c 11.65834,-42.6753 -18.25692,-201.3777 59.74299,-121.489 20.93888,32.9622 -91.25669,42.5772 -6.28962,29.0224 34.70826,-24.3427 87.31064,15.2059 100.88592,11.0542 -43.62291,30.5969 -109.02089,82.902 -154.33929,81.4124 z"
       style="fill:#ffffff;stroke-width:1.69481"
       id="path297" />
    <path
       d="m 1274.5596,828.79147 c -89.8406,12.87412 -28.9389,-92.94667 -42.9356,-144.67198 -14.5861,-81.91183 -24.2416,-168.74976 -64.4819,-242.34779 67.3299,37.52341 92.814,129.51459 107.8237,202.95283 7.6421,51.15696 17.1179,156.18774 -0.4062,184.06694 z"
       style="fill:#ffffff;stroke-width:2.39683"
       id="path301" />
    <path
       d="m 1224.0232,970.71764 c -46.781,-39.01072 45.5014,-88.9228 30.9685,-18.8666 -6.2271,10.50303 -17.5874,21.08734 -30.9685,18.8666 z"
       style="fill:#ffffff;stroke-width:1.19841"
       id="path303" />
    <path
       d="m 1236.916,1198.937 c -32.9626,-33.5199 22.7383,-130.8618 45.367,-53.0279 -58.6067,-49.0518 14.2716,43.3636 -28.6744,53.8262 l -9.5042,1.1639 z"
       style="fill:#ffffff;stroke-width:1.19841"
       id="path305" />
    <path
       d="m 1193.666,1441.0182 c -56.7864,-55.6107 83.3386,-149.8325 48.9089,-68.4409 -47.5001,-5.7012 -41.1924,56.9303 -48.9089,68.4409 z"
       style="fill:#ffffff;stroke-width:1.19841"
       id="path307" />
    <path
       d="m 1120.2057,1889.8486 c -2.692,-14.1871 -72.4425,-34.8214 -14.195,-24.9666 29.0852,10.4765 82.6071,-29.6311 30.0801,-10.848 2.8553,-31.5445 31.0205,-122.43 -22.7368,-73.2658 -33.7962,66.5789 -27.2969,-109.8932 30.5591,-33.0569 34.5588,35.8529 41.1533,136.153 -23.7074,142.1373 z"
       style="fill:#ffffff;stroke-width:1.19841"
       id="path309" />
    <path
       d="m 1280.762,843.06416 c 11.6945,52.89169 -6.8482,-20.11517 6.3332,23.38822 -14.3868,-54.08759 12.1814,22.5198 -7.9383,-15.14102 l -6.3949,4.65266"
       style="fill:none;stroke:#000000;stroke-width:1px;stroke-linecap:butt;stroke-linejoin:miter;stroke-opacity:1"
       id="path311" />
    <path
       d="m 1154.9009,1736.1706 c 17.7187,-36.7929 69.6063,-31.6819 10.499,-8.0888 10.5825,-14.6825 73.1604,-60.542 17.4334,-14.3516 -11.4956,4.4796 -18.35,15.0335 -27.9324,22.4404 z"
       style="fill:#ffffff;stroke:#000000;stroke-width:1px;stroke-linecap:butt;stroke-linejoin:miter;stroke-opacity:1"
       id="path313" />
    <path
       d="m 1001.327,1814.9102 c -33.79006,-8.1056 -43.00757,-42.7488 1.2169,-38.6406 -94.95269,1.7877 -65.13948,-103.7517 7.477,-115.6448 23.2655,-16.4205 18.9107,-41.7849 39.4469,-41.3427 37.364,-99.4653 51.6654,129.974 118.5587,32.5254 44.4142,-39.752 -15.8825,-170.3529 -45.2929,-77.2829 -25.3054,70.3709 40.9582,72.1728 48.7405,36.1006 -8.7498,120.6221 -116.4793,-17.7171 -78.1273,-74.427 20.4162,-72.2271 38.5108,-145.7388 51.8977,-219.1865 5.6651,-27.7494 -5.3826,-150.1317 25.4127,-58.307 -0.308,37.4304 -14.4943,104.8869 11.6428,31.7427 26.3255,-43.6324 119.3065,-12.5649 133.4193,41.9615 27.7544,72.2113 -3.3206,200.9448 -101.216,187.0484 38.6773,-52.6284 88.4381,-118.6463 54.3543,-187.9354 -70.1391,-49.4878 -143.4174,130.4 -49.3667,127.5869 52.0765,-3.3181 40.0074,-153.9937 44.83,-46.5084 10.5438,99.6832 -126.071,93.2177 -112.0378,-3.8478 -7.1061,-58.0648 -12.0893,103.966 35.9133,98.3497 -28.4476,-2.4718 -85.9344,-92.1066 -61.8769,-15.3799 77.5532,15.4057 128.1628,108.5347 88.6867,180.0784 1.3984,31.4429 -89.7288,43.5913 -28.5937,34.9655 -42.0669,58.7483 -128.7506,-93.0526 -124.9785,-47.3093 14.3479,28.7235 -9.2299,12.6152 -17.262,41.3688 -19.7832,44.791 -107.84267,-32.4083 -53.44738,23.5195 34.08748,8.8908 44.68408,73.9248 27.13428,84.0617 0.6569,8.8989 -11.2098,9.8962 -16.5319,6.5032 z m 102.48,-299.9607 c -3.7048,-6.4784 -2.1296,8.1336 0,0 z m 40.659,-3.0869 c -6.1415,-21.7621 -56.1884,2.9168 -5.0599,3.0762 z"
       style="fill:#ffffff;stroke-width:1.19841"
       id="path315" />
    <path
       d="m 1098.8041,1854.88 c -54.8685,-35.7891 -78.9061,-121.7317 -6.0087,-154.0519 38.5012,6.4576 73.0498,40.5915 16.3473,17.27 -67.8801,30.2791 16.8972,113.159 -10.3386,136.7819 z"
       style="fill:#ffffff;stroke-width:1.19841"
       id="path317" />
    <path
       d="m 1154.1294,1879.0381 c 14.7697,-40.5788 39.2072,-98.0051 26.2651,-116.1022 36.3221,30.0264 -6.6815,159.0538 -26.2651,116.1022 z"
       style="fill:#ffffff;stroke-width:1.19841"
       id="path319" />
    <path
       d="m 1223.6438,1436.2246 c -29.1298,-31.8491 26.8974,-70.2065 14.9631,-10.2631 0,0.035 -16.3332,27.6417 -14.9631,10.2631 z"
       style="fill:#ffffff;stroke-width:1.19841"
       id="path321" />
    <path
       d="m 1133.9403,1631.7504 c -27.649,-31.9741 15.5769,-120.1493 35.205,-46.8779 -79.895,7.9602 49.3627,15.856 -35.205,46.8779 z"
       style="fill:#ffffff;stroke-width:1.19841"
       id="path323" />
    <path
       d="m 1272.0125,1250.7555 c 8.085,-45.2466 64.8552,-164.2965 -24.2154,-140.2272 -40.9799,30.43 -41.4139,116.9412 21.3908,95.7894 -66.1603,49.6565 -105.0202,-96.8454 -33.7109,-121.9205 94.57,-27.2947 89.4876,129.3847 38.8316,168.1706 z"
       style="fill:#ffffff;stroke-width:1.19841"
       id="path325" />
    <path
       d="m 1286.4803,1261.7676 c 33.4261,-55.0232 57.7769,-142.7104 -4.372,-187.8216 -85.7052,-30.0415 -127.9514,114.2566 -55.1579,153.995 24.8052,10.6608 64.2901,-0.046 14.2022,20.9936 -82.0541,10.8452 -58.7972,-92.6764 -53.7183,-143.7985 12.4202,-52.1324 113.6858,-28.3179 97.0455,-41.3183 53.688,45.7936 76.077,149.8345 11.8359,196.7294 l -6.3481,2.5941 z"
       style="fill:#ffffff;stroke-width:1.19841"
       id="path327" />
    <path
       d="m 1205.9636,1043.9265 c -37.5929,-1.6161 -77.3847,-84.51384 -13.1436,-37.5848 28.0298,18.0379 74.8452,-5.6248 31.5504,-7.70632 62.8765,-7.64549 96.9558,-123.58405 14.5074,-108.11233 -39.8245,21.77759 -52.4013,98.35379 4.9529,88.02873 -86.3483,19.76902 -45.6665,-117.17796 17.9728,-109.26274 77.3383,13.69055 57.171,141.98426 -1.7967,169.26706 -17.3897,6.6238 -36.213,2.3785 -54.0432,5.3704 z"
       style="fill:#ffffff;stroke-width:1.19841"
       id="path329" />
    <path
       d="m 1196.0848,998.57689 c -65.348,-9.53133 -46.5572,-161.75159 8.622,-122.32582 36.2511,-4.81112 -1.5901,-54.03924 53.7798,-30.28086 46.7386,8.66965 -66.5304,23.24193 -65.2522,62.73777 -23.1657,27.27006 -10.5178,77.83699 2.8504,89.86891 z"
       style="fill:#ffffff;stroke-width:1.19841"
       id="path331" />
    <path
       d="m 1258.9552,969.3857 c 11.9921,-33.61018 -30.0317,-112.65226 15.7602,-47.40686 10.2517,12.96892 -1.4086,53.32761 -15.7602,47.40686 z"
       style="fill:#ffffff;stroke-width:1.19841"
       id="path333" />
    <path
       d="m 767.32302,1484.6198 c 8.84502,-74.79 78.50468,-15.7865 19.71908,2.1851 -8.81847,3.1515 -26.11967,21.0279 -19.71908,-2.1851 z"
       style="fill:#ffff00;stroke-width:1.19841"
       id="path335" />
    <path
       d="m 699.25545,1526.8204 c -59.15032,-8.3748 58.49894,-92.5731 31.09517,-10.2637 -4.80292,12.5906 -20.32613,13.9154 -31.09517,10.2637 z"
       style="fill:#ffff00;stroke-width:1.19841"
       id="path339" />
    <path
       d="m 628.8487,1539.4272 c 12.49154,-52.0406 59.07547,-3.1308 0,0 z"
       style="fill:#ffff00;stroke-width:1.19841"
       id="path341" />
    <path
       d="m 595.29315,1556.5497 c 8.71339,-51.4606 57.39786,0.8528 0,0 z"
       style="fill:#ffff00;stroke-width:1.19841"
       id="path343" />
    <path
       d="m 823.82498,1448.9457 c -23.10563,-27.3072 91.09662,-41.6187 25.6197,-1.6151 -7.19849,5.0046 -20.6938,14.2192 -25.6197,1.6151 z"
       style="fill:#ffff00;stroke-width:1.19841"
       id="path345" />
    <path
       d="m 455.42502,1261.5228 c -80.16323,20.3468 -73.16738,-74.798 -78.23337,-115.4558 75.35378,-32.2934 160.40118,-37.1594 240.56163,-31.2508 43.06825,11.8167 61.18814,140.2433 -1.32794,100.2536 41.13922,-87.1583 -92.58813,-92.7315 -151.59491,-68.5124 -30.37365,17.5126 -85.91011,21.3807 -76.75439,30.739 33.86125,67.586 130.63016,61.6187 182.53096,42.3098 -30.25745,27.0758 -74.42773,43.5534 -115.18198,41.9166 z"
       style="fill:#e9afaf;stroke-width:1.19841"
       id="path347" />
    <path
       d="m 903.48966,1209.4264 c -78.24687,-47.2242 77.89098,-9.1157 99.78214,-46.665 40.2466,-28.1459 75.326,-93.8597 82.0401,-22.9022 21.2553,101.7515 -97.84372,64.1773 -155.98765,71.4851 -8.45474,2.3462 -17.91174,2.2901 -25.83459,-1.9179 z"
       style="fill:#e9afaf;stroke-width:2.39683"
       id="path349" />
    <path
       d="m 523.4624,1222.3274 c 51.10663,-36.4213 8.95541,-88.5742 -34.90792,-40.5408 -4.8415,38.7445 -7.81601,54.3368 -51.59298,24.299 -47.24629,-61.8592 104.70231,-73.4476 145.3466,-52.9597 78.54224,18.5358 -31.78447,75.6219 -58.8457,69.2015 z"
       style="fill:#ffffff;stroke-width:1.19841"
       id="path351" />
    <path
       d="m 921.50158,1175.7974 c 67.99138,-23.3711 4.97078,-93.9236 -29.46451,-39.934 -72.90372,35.0136 -7.21476,-49.2693 33.13675,-45.13 40.98681,-0.7546 175.42228,-4.9269 94.02548,49.9227 -25.96285,25.2446 -61.04372,40.3976 -97.69772,35.1413 z"
       style="fill:#ffffff;stroke-width:1.19841"
       id="path353" />
    <path
       d="m 424.55028,2007.5042 c 44.39263,-25.3101 71.1298,-128.2648 127.11086,-100.8413 30.7395,29.5857 66.68687,41.6 100.84128,66.0977 27.08712,17.0942 42.99022,50.7329 61.86062,71.1821"
       style="fill:none;stroke:#000000;stroke-width:1px;stroke-linecap:butt;stroke-linejoin:miter;stroke-opacity:1"
       id="path366" />
    <path
       d="m 424.55028,2007.5042 c 72.74895,3.5765 162.60243,2.7482 210.15662,67.7925 9.44757,83.7622 47.21993,-2.8031 72.02949,-28.8118 0.18806,-2.6492 17.90514,-17.977 7.62665,-2.5422"
       style="fill:none;stroke:#000000;stroke-width:1px;stroke-linecap:butt;stroke-linejoin:miter;stroke-opacity:1"
       id="path368" />
    <path
       d="m 706.73639,2046.4849 c 55.09354,-63.8326 126.06837,-111.2958 190.72486,-162.8108 l 5.87328,-0.7385"
       style="fill:none;stroke:#000000;stroke-width:1px;stroke-linecap:butt;stroke-linejoin:miter;stroke-opacity:1"
       id="path370" />
    <path
       d="m 706.73639,2046.4849 c 38.12026,14.2543 41.34958,115.3554 75.41911,40.6755 62.00371,-57.0331 125.381,-116.7881 197.44554,-159.3123"
       style="fill:none;stroke:#000000;stroke-width:1px;stroke-linecap:butt;stroke-linejoin:miter;stroke-opacity:1"
       id="path372" />
    <path
       d="m 883.84419,1889.7148 c 26.63826,-59.0668 69.08827,-16.1496 81.35096,24.5748 12.40504,9.5412 11.71146,18.7421 -4.23703,23.7273"
       style="fill:#ff0000;stroke:#000000;stroke-width:1px;stroke-linecap:butt;stroke-linejoin:miter;stroke-opacity:1"
       id="path374" />
    <path
       d="m 755.01332,2114.8992 c -10.83377,-45.3101 -76.82574,-69.8543 -14.79202,-102.9548 34.68551,11.377 139.61905,5.4489 69.05518,48.4691 -18.71281,12.0625 -41.96303,48.5881 -54.26316,54.4857 z"
       style="fill:#ff0000;stroke-width:0.847406"
       id="path376" />
    <path
       d="m 837.59094,2020.0053 c -57.63252,-7.1113 -109.52031,-20.4602 -36.43845,-60.1794 29.81181,-13.9056 88.38111,-101.4479 106.22873,-39.7696 47.47164,47.1929 -26.28264,75.2101 -56.63038,100.4559 l -3.15498,-0.054 z"
       style="fill:#ff0000;stroke-width:0.847406"
       id="path378" />
    <path
       d="m 482.32048,2004.3853 c -7.73106,-16.5614 93.39412,-128.7636 70.34614,-92.4419 31.84391,33.6925 87.97028,39.9374 118.5374,80.1083 21.17157,31.2978 -146.61168,-16.1012 -106.47774,5.9106 -27.55566,1.4374 -54.55832,10.456 -82.4058,6.423 z m 83.46506,-13.4431 c -3.70708,-13.4585 -96.03349,-46.2306 -37.97862,-1.965 11.85733,5.7169 25.50313,2.9237 37.97862,1.965 z m 19.70219,-12.6353 c 46.82372,-21.0134 -90.73635,-91.5035 -44.43733,-14.5123 10.05717,14.0255 28.60276,16.5654 44.43733,14.5123 z"
       style="fill:#ff0000;stroke-width:0.847406"
       id="path380" />
    <path
       d="m 650.01977,2111.0549 c -5.68349,-65.9404 -98.89852,-94.9338 -134.44302,-98.4031 60.53392,4.4203 158.41073,-30.0663 189.82754,27.9387 -4.24576,24.0566 -42.61021,59.1768 -55.38452,70.4644 z"
       style="fill:#ff0000;stroke-width:0.847406"
       id="path382" />
    <path
       d="m 430.77403,2001.5323 c 30.11323,-25.6363 119.38115,-92.8897 99.59413,-97.0714 -25.39107,26.4275 -34.788,51.8571 -2.16488,11.8505 22.61167,-9.0614 -66.14201,84.7581 -56.1506,74.776 -1.88675,6.0106 -54.61238,23.2552 -41.27865,10.4449 z"
       style="fill:#ff0000;stroke-width:0.847406"
       id="path384" />
    <path
       d="m 936.05378,1949.2203 c -44.6135,-50.9414 30.30298,-21.8542 17.41563,-6.4005 -5.04993,-5.4532 -13.93283,19.3949 -17.41563,6.4005 z"
       style="fill:#ff0000;stroke-width:0.847406"
       id="path386" />
    <g
       transform="matrix(1.4995573,0,0,1.6305318,-899.10727,313.42072)"
       id="g2433">
      <path
         style="fill:#000000;stroke-width:1.33333"
         d="m 1052.5098,717.96411 c -1.715,-0.8692 -3.5339,-2.4805 -4.0419,-3.5804 -0.508,-1.1 -1.6169,-3.3419 -2.4642,-4.982 -0.8473,-1.64 -1.5405,-4.1546 -1.5405,-5.5879 0,-1.4334 -0.5367,-2.9378 -1.1925,-3.3431 -2.5993,-1.6064 -3.1912,-15.0926 -3.9836,-90.7537 -0.8191,-78.2011 -0.8384,-78.6272 -3.2608,-72 -1.3403,3.6667 -2.9476,7.8667 -3.5718,9.3333 -0.6242,1.4667 -2.3875,6.1656 -3.9184,10.442 -3.988,11.1399 -6.3342,15.2309 -10.1807,17.7512 -3.1617,2.0716 -3.5345,2.0694 -5.6389,-0.034 -1.9705,-1.9695 -2.2345,-5.4681 -2.1035,-27.8724 0.1421,-24.3131 1.0446,-33.8972 4.4841,-47.6203 1.5602,-6.2248 4.1104,-21.7932 6.7707,-41.3333 0.8486,-6.2333 2.095,-14.3333 2.7697,-18 0.6748,-3.6667 1.7111,-11.1667 2.303,-16.6667 1.2478,-11.5944 2.2062,-14.1072 9.1057,-23.8758 3.6998,-5.2382 8.8039,-9.7097 18.6695,-16.3553 12.5695,-8.467 14.3514,-9.2545 23.9959,-10.6062 12.1367,-1.7009 11.6365,-1.6987 23.7633,-0.1041 6.2445,0.8211 13.238,3.0612 21.0788,6.7518 6.4536,3.0377 12.2451,5.523 12.87,5.523 0.6249,0 4.3747,3.1618 8.3329,7.0263 6.368,6.2171 7.4568,8.0979 9.4551,16.3333 1.2422,5.1189 2.2569,10.3652 2.2549,11.6585 0,2.352 2.5183,7.7011 4.2475,9.0097 0.5047,0.382 1.3317,16.882 1.8376,36.6667 0.506,19.7847 1.4431,36.9827 2.0824,38.2179 0.6393,1.2351 1.1624,5.2851 1.1624,9 0,3.7148 0.6,6.7543 1.3333,6.7543 0.7334,0 1.3334,1.1646 1.3334,2.588 0,1.4233 0.6,2.9588 1.3333,3.412 0.7333,0.4532 1.3333,3.296 1.3333,6.3173 0,3.0214 0.7293,7.5101 1.6206,9.975 1.2719,3.5173 1.2719,5.04 0,7.0766 -0.8913,1.4272 -1.6206,4.8131 -1.6206,7.5242 0,4.5961 -3.6878,17.3819 -6.9225,24.0005 -0.7778,1.5914 -1.032,4.9308 -0.5649,7.4208 0.696,3.7098 0.2664,5.0749 -2.3793,7.5604 -4.3609,4.0969 -8.1035,3.2309 -8.2345,-1.9054 -0.056,-2.1832 -0.4807,-4.8694 -0.9444,-5.9694 -0.8704,-2.0646 -1.5265,-9.9712 -3.4854,-42 -1.064,-17.3977 -2.6718,-28.8528 -4.81,-34.2706 -0.7394,-1.8734 -1.3418,-1.9922 -3.4442,-0.6793 -1.9215,1.2 -2.5481,3.1326 -2.5481,7.8586 0,3.447 -0.6,6.6381 -1.3333,7.0913 -1.8397,1.1369 -1.7223,26.4111 0.1312,28.2646 1.4745,1.4745 1.368,3.4849 -1.5396,29.0687 -1.6284,14.3289 -1.8024,22.3654 -0.6204,28.6667 0.7971,4.2495 0.2779,5.3339 -5.8078,12.1312 -7.5569,8.4404 -14.1319,12.3363 -17.646,10.4556 -1.2508,-0.6694 -3.9789,-4.8315 -6.0625,-9.2493 -2.0836,-4.4177 -4.8383,-8.3664 -6.1217,-8.7747 -2.5314,-0.8056 -2.9483,-2.8613 -1.1542,-5.6922 0.6953,-1.0971 0.1204,-4.6268 -1.4777,-9.0709 -1.9816,-5.5109 -2.4003,-8.9548 -1.7268,-14.2039 1.713,-13.3511 2.2281,-43.9264 0.7647,-45.3899 -0.8094,-0.8094 -1.4059,-7.4216 -1.4059,-15.5837 0,-7.7978 -0.3948,-14.5726 -0.8773,-15.0551 -1.7208,-1.7208 -4.456,2.1644 -4.456,6.3294 0,2.3302 -0.5549,4.8068 -1.2332,5.5034 -1.7199,1.7668 -2.8176,17.7607 -3.5184,51.2667 -0.3298,15.7667 -1.1727,29.8667 -1.8732,31.3333 -0.7005,1.4667 -1.6325,9.5667 -2.0712,18 -3.6757,70.6653 -4.3236,77.273 -8.3054,84.713 -3.6997,6.9131 -13.9498,12.0696 -18.952,9.5342 z m 14.1569,-8.3707 c 1.7728,-2.7055 2.3772,-7.4148 2.7811,-21.6667 0.2838,-10.0153 1.0614,-19.4097 1.7281,-20.8764 0.6667,-1.4666 1.5193,-8.0666 1.8947,-14.6666 0.3753,-6.6 1.3248,-19.5 2.1099,-28.6667 0.7851,-9.1667 1.7044,-29.5667 2.0428,-45.3333 0.3385,-15.7667 0.9726,-29.5667 1.4092,-30.6667 0.4366,-1.1 0.6887,-5.9909 0.5603,-10.8687 -0.1338,-5.0852 0.3718,-9.2426 1.1852,-9.7453 0.7802,-0.4822 1.4185,-2.7591 1.4185,-5.0597 0,-4.5166 5.546,-13.6327 9.6202,-15.8132 2.8858,-1.5444 7.6572,-0.3814 7.8364,1.9101 1.4792,18.9117 1.8705,69.8778 0.5789,75.397 -0.7747,3.3109 -0.2437,6.9011 2.0262,13.6978 2.2634,6.7775 2.6831,9.6039 1.5884,10.6985 -1.0946,1.0946 -0.8125,2.0551 1.0678,3.6356 1.4054,1.1813 4.2923,5.4479 6.4152,9.4812 4.8684,9.2493 7.5985,9.8444 14.095,3.0728 3.8644,-4.0281 4.6934,-5.7593 4.0253,-8.4061 -1.7535,-6.9464 -2.1461,-16.4276 -0.7936,-19.1603 0.7731,-1.5619 1.75,-7.9397 2.1709,-14.173 1.0123,-14.9891 1.0119,-15.2583 -0.052,-35.4828 -0.6426,-12.2184 -0.4768,-17.7563 0.5507,-18.3913 0.9197,-0.5684 1.1702,-3.0977 0.669,-6.7545 -0.7327,-5.3451 -0.3675,-6.3752 4.2635,-12.0267 2.7856,-3.3995 6.772,-7.0637 8.8586,-8.1428 4.2039,-2.1739 4.2622,-2.1104 5.622,6.1314 0.4235,2.5667 1.3485,7.3667 2.0556,10.6667 0.7071,3.3 1.3118,13.83 1.3437,23.4 0.035,10.482 0.6242,17.9661 1.4821,18.824 0.7832,0.7832 1.4419,6.0041 1.4639,11.602 0.041,10.4782 1.686,14.4658 3.2568,7.8952 0.4893,-2.0467 1.474,-4.4636 2.1883,-5.3709 0.7143,-0.9074 0.9577,-2.5381 0.541,-3.624 -0.4166,-1.0859 -0.1838,-2.3289 0.5175,-2.7623 0.7014,-0.4335 1.2752,-3.7173 1.2752,-7.2974 0,-3.5801 0.6,-6.8801 1.3333,-7.3333 0.7333,-0.4532 1.3333,-2.5532 1.3333,-4.6667 0,-2.1134 -0.6,-4.2134 -1.3333,-4.6666 -0.7333,-0.4533 -1.3333,-3.5281 -1.3333,-6.8331 0,-3.3049 -0.691,-7.3001 -1.5356,-8.8781 -2.4407,-4.5604 -4.056,-18.6645 -4.6845,-40.9008 -0.3204,-11.3366 -1.1991,-21.3548 -1.9526,-22.2627 -0.7535,-0.908 -1.2565,-3.0326 -1.1178,-4.7214 0.1388,-1.6888 0.1859,-6.9015 0.1047,-11.5838 l -0.1476,-8.5131 -2.4729,3.1798 c -1.3602,1.7489 -5.3098,7.3402 -8.7769,12.425 -6.262,9.1839 -14.6599,16.4707 -23.2173,20.1455 -2.4569,1.0551 -7.3172,4.3046 -10.8006,7.221 -7.5496,6.321 -11.6861,8.0584 -19.1524,8.0448 -6.2634,-0.012 -20.5926,-4.0135 -24.7193,-6.9039 -6.3268,-4.4315 -25.4122,-22.7766 -28.8368,-27.7182 -2.0459,-2.9523 -4.2141,-5.3677 -4.8183,-5.3677 -1.4294,0 -3.2809,7.3817 -5.1836,20.6667 -0.8402,5.8666 -2.1393,13.6666 -2.8869,17.3333 -0.7475,3.6667 -1.8708,12.6667 -2.4961,20 -0.6253,7.3333 -1.7045,18.4333 -2.3982,24.6667 -2.3908,21.4827 -2.9842,34.6666 -1.5602,34.6666 1.6899,0 5.0235,-7.3717 9.9487,-22 2.3995,-7.1269 4.297,-11.9213 6.1931,-15.6486 0.6477,-1.2733 1.1777,-3.17 1.1777,-4.2148 0,-2.5585 8.0939,-9.2427 9.4952,-7.8414 0.6117,0.6117 1.3505,38.5955 1.642,84.4085 0.5161,81.1252 0.7608,89.6388 2.631,91.5089 0.4942,0.4942 0.8985,2.5631 0.8985,4.5976 0,2.0345 0.6,4.0699 1.3333,4.5231 0.7334,0.4533 1.3334,1.7725 1.3334,2.9317 0,5.9989 10.6467,7.7065 14.2035,2.2781 z m 43.4891,-229.4508 c 3.2326,-2.9796 9.7241,-7.309 14.4257,-9.6209 6.1889,-3.0433 9.7935,-5.9221 13.0599,-10.4305 l 4.5115,-6.2271 -6.5115,4.9998 c -3.5814,2.7499 -8.4205,5.8577 -10.7537,6.9063 -2.3332,1.0485 -4.6564,2.5766 -5.1627,3.3957 -1.0094,1.6334 -19.649,10.4853 -27.6144,13.1141 -7.2162,2.3815 -4.7661,4.5051 4.4303,3.8399 6.8284,-0.494 8.4282,-1.1963 13.6149,-5.9773 z m -23.3593,-1.3806 c -2.0167,-0.3055 -5.3167,-0.3055 -7.3333,0 -2.0167,0.3055 -0.3667,0.5554 3.6666,0.5554 4.0334,0 5.6834,-0.2499 3.6667,-0.5554 z m 19.1888,-9.6653 c 2.638,-2.1744 8.0806,-5.1824 12.0948,-6.6842 10.513,-3.9334 17.5493,-13.3568 18.9377,-25.3622 0.3817,-3.3 1.0745,-8.5336 1.5395,-11.6302 0.6413,-4.2693 0.1681,-7.03 -1.9576,-11.421 -1.5418,-3.1849 -2.8032,-6.3884 -2.8032,-7.119 0,-1.8739 -5.9969,-6.0838 -16.7596,-11.7655 -5.0822,-2.6829 -11.7921,-6.3909 -14.9108,-8.2398 -7.7908,-4.6188 -15.625,-4.7921 -21.6723,-0.4793 l -4.6573,3.3215 6,0.4175 c 6.8522,0.4768 9.3396,2.1096 6.9121,4.5371 -1.0764,1.0763 -5.1926,1.4859 -12.2467,1.2186 l -10.6255,-0.4026 -9.9859,6.3258 c -5.4922,3.4792 -11.1184,7.5808 -12.5027,9.1147 -3.1418,3.4815 -5.5513,13.1416 -5.5513,22.2562 0,6.1251 0.6747,7.8381 5.6667,14.3864 6.8859,9.0328 10.7316,12.4659 22.1773,19.798 l 8.8227,5.6517 13.3628,0.015 c 12.8557,0.014 13.545,-0.1351 18.1593,-3.9386 z m 7.1874,0.6883 c 2.5431,-1.0626 4.6238,-2.2706 4.6238,-2.6845 0,-0.7449 -9.2843,2.7896 -10.4871,3.9924 -1.1635,1.1636 1.2217,0.6315 5.8633,-1.3079 z m 24.9571,-16.4901 c 2.0167,-1.8756 3.6667,-4.2479 3.6667,-5.2718 0,-2.7318 -1.3274,-1.7675 -8.6924,6.3148 -5.4138,5.9409 -5.9018,6.8329 -2.6409,4.8274 2.2,-1.3531 5.65,-3.9948 7.6666,-5.8704 z m 4.9796,-11.9899 c -0.018,-1.9431 -0.199,-1.9783 -1.3129,-0.2547 -1.6875,2.6112 -1.6875,4.3763 0,3.3334 0.7333,-0.4533 1.3241,-1.8387 1.3129,-3.0787 z m 4.9312,0.8287 c -0.4256,-1.0637 -0.7415,-0.7478 -0.8055,0.8055 -0.058,1.4056 0.2572,2.1931 0.7003,1.75 0.443,-0.4431 0.4904,-1.5931 0.1052,-2.5555 z m -94.2441,-46.6406 c 3.3,-1.8792 8.1,-3.8087 10.6667,-4.2877 2.5666,-0.4791 7.6666,-2.795 11.3333,-5.1465 6.0088,-3.8536 6.3507,-4.3234 3.4651,-4.7612 -6.4228,-0.9743 -32.1318,8.3604 -32.1318,11.6668 0,0.6614 -2.1,3.1833 -4.6666,5.6042 -2.5667,2.421 -4.6667,5.4343 -4.6667,6.6963 0,1.262 -0.6,2.6654 -1.3333,3.1187 -0.7334,0.4532 -1.3334,1.4077 -1.3334,2.121 0,0.7134 2.85,-1.6036 6.3334,-5.1488 3.4833,-3.5453 9.0333,-7.9835 12.3333,-9.8628 z m -10,12.2239 c 1.3273,-1.4667 2.1133,-2.6667 1.7466,-2.6667 -0.3666,0 -1.7526,1.2 -3.0799,2.6667 -1.3274,1.4667 -2.1133,2.6667 -1.7467,2.6667 0.3667,0 1.7527,-1.2 3.08,-2.6667 z m 99.3333,-4 c 0,-0.7333 -0.6354,-1.3333 -1.412,-1.3333 -0.7766,0 -1.0412,0.6 -0.588,1.3333 0.4533,0.7333 1.0887,1.3333 1.4121,1.3333 0.3233,0 0.5879,-0.6 0.5879,-1.3333 z m -89.6197,-3.3333 c 2.698,-1.8334 4.4343,-3.3334 3.8585,-3.3334 -0.5758,0 -3.2544,1.5 -5.9524,3.3334 -2.6979,1.8333 -4.4343,3.3333 -3.8585,3.3333 0.5758,0 3.2544,-1.5 5.9524,-3.3333 z"
         id="path2366" />
      <path
         style="fill:#800000;stroke-width:0.726447"
         d="M 57.451533,96.754184 C 45.413203,89.035181 39.267215,83.672178 33.023235,75.438008 27.404803,68.02877 26.400878,62.35168 28.721946,51.11467 30.878819,40.672578 33.044031,38.278796 49.736018,27.882244 l 5.818113,-3.623793 9.142417,0.352193 c 10.088707,0.388647 14.454047,-0.429334 14.454047,-2.70841 0,-2.179035 -1.95108,-3.11606 -7.282576,-3.497526 -5.826465,-0.416882 -5.815792,-0.917464 0.08807,-4.13075 3.35918,-1.828295 4.249929,-1.995085 9.019968,-1.688962 4.927562,0.316231 5.961824,0.706623 14.991285,5.658601 13.135088,7.203603 22.429988,12.625495 24.450538,14.262448 2.18391,1.769306 7.41466,14.71911 7.37147,18.249587 -0.0182,1.492944 -0.63117,6.727059 -1.36201,11.631367 -2.30612,15.475364 -6.98895,22.205165 -19.64634,28.234219 -3.80966,1.814644 -8.536742,4.454277 -10.504618,5.865851 -5.988842,4.295841 -7.183535,4.565301 -20.241647,4.565301 H 64.15485 Z"
         id="path2388"
         transform="translate(1010.5848,371.59135)" />
      <path
         style="fill:#800000;stroke-width:0.256838"
         d="m 79.831116,114.34123 c -0.679846,-0.12325 -1.53885,-0.42248 -1.908899,-0.66494 l -0.672817,-0.44085 0.771035,-0.68892 c 0.433265,-0.38712 2.113359,-1.17718 3.835183,-1.80348 10.214465,-3.71544 24.710192,-10.70083 27.720582,-13.358346 0.97794,-0.863306 2.81092,-2.052887 4.54376,-2.948833 3.75438,-1.941173 7.6226,-4.462662 12.34333,-8.045963 2.0836,-1.581568 3.78836,-2.802696 3.78836,-2.713617 0,0.477152 -4.7732,6.637861 -6.46109,8.33924 -2.42341,2.442788 -4.6013,3.927765 -10.15592,6.92473 -5.00162,2.698599 -9.81265,5.851769 -12.91934,8.467409 -1.200721,1.01093 -2.934376,2.46953 -3.852572,3.24133 -2.198826,1.84827 -4.259675,2.82238 -6.934623,3.27783 -2.774542,0.4724 -8.484476,0.70676 -10.096989,0.41441 z"
         id="path2390"
         transform="translate(1010.5848,371.59135)" />
      <path
         style="fill:#800000;stroke-width:0.256838"
         d="m 24.691285,38.577393 c 0,-0.136545 0.509022,-0.821396 1.13116,-1.52189 0.622138,-0.700495 1.200023,-1.628969 1.284189,-2.063277 0.08417,-0.434307 0.218767,-1.130761 0.299112,-1.547674 0.258035,-1.338943 2.015043,-3.690945 5.367231,-7.184795 2.040439,-2.126666 3.460038,-3.837263 3.774558,-4.548288 0.613345,-1.386567 1.98446,-2.435321 5.351887,-4.093611 5.082922,-2.503085 11.565392,-4.842027 18.23549,-6.579552 3.320217,-0.8649 4.428606,-1.0428263 6.677784,-1.071968 1.483239,-0.019218 2.914789,0.054151 3.181225,0.163042 0.474678,0.193998 0.474678,0.20885 0,0.737903 -0.855342,0.953324 -6.561465,4.588877 -9.397122,5.987207 -1.511725,0.745465 -3.765477,1.667317 -5.008339,2.048558 -7.625148,2.338969 -10.368876,3.48674 -14.002777,5.857719 -3.11831,2.034576 -7.069646,5.286386 -10.857469,8.935312 -3.260611,3.141048 -5.536466,5.129579 -5.870753,5.129579 -0.0914,0 -0.166176,-0.111719 -0.166176,-0.248265 z"
         id="path2392"
         transform="translate(1010.5848,371.59135)" />
      <path
         style="fill:#800000;stroke-width:0.256838"
         d="m 118.65236,87.426427 c 0.9254,-1.299606 8.64855,-9.669312 10.06703,-10.909811 1.69085,-1.478689 2.30278,-1.577364 2.30278,-0.371331 0,1.605734 -1.93765,4.088925 -5.52202,7.076724 -2.29633,1.914144 -6.63737,4.916521 -7.10864,4.916521 -0.13542,0 -0.018,-0.320446 0.26085,-0.712103 z"
         id="path2394"
         transform="translate(1010.5848,371.59135)" />
      <path
         style="fill:#800000;stroke-width:0.256838"
         d="m 96.7557,99.661624 c 0.410354,-0.663966 8.75572,-4.092912 9.89735,-4.066627 1.08183,0.02491 -3.29729,2.233178 -7.067185,3.563787 -2.399286,0.846846 -3.122145,0.975276 -2.830165,0.50284 z"
         id="path2396"
         transform="translate(1010.5848,371.59135)" />
      <path
         style="fill:#800000;stroke-width:0.256838"
         d="m 130.14147,72.75776 c -0.20722,-0.335278 0.34841,-1.779221 1.24673,-3.239976 l 0.78974,-1.284189 0.084,0.881678 c 0.13082,1.373336 -0.18937,2.585946 -0.85984,3.256424 -0.64616,0.646154 -1.02766,0.762989 -1.26061,0.386063 z"
         id="path2398"
         transform="translate(1010.5848,371.59135)" />
      <path
         style="fill:#800000;stroke-width:0.256838"
         d="m 130.37096,72.021954 c 0.0962,-0.388468 0.51074,-1.28419 0.92111,-1.990494 l 0.74612,-1.284189 0.005,1.15577 c 0.005,1.298653 -0.76742,2.825217 -1.43005,2.825217 -0.32597,0 -0.37871,-0.154019 -0.24188,-0.706304 z"
         id="path2400"
         transform="translate(1010.5848,371.59135)" />
      <path
         style="fill:#800000;stroke-width:0.256838"
         d="m 131.174,32.642532 c -0.74308,-0.883096 -0.84778,-1.468189 -0.30032,-1.678268 0.71607,-0.274783 1.43268,0.37841 1.43268,1.305907 0,1.196684 -0.34365,1.309689 -1.13236,0.372361 z"
         id="path2402"
         transform="translate(1010.5848,371.59135)" />
      <path
         style="fill:#800000;stroke-width:0.256838"
         d=""
         id="path2404"
         transform="translate(1010.5848,371.59135)" />
      <path
         style="fill:#800000;stroke-width:0.256838"
         d="m 38.175273,30.976075 c 2.120457,-1.760316 7.98245,-5.442704 8.245497,-5.179658 0.246076,0.246076 -5.356637,4.17789 -7.542173,5.292868 -1.403948,0.71624 -1.653989,0.675993 -0.703324,-0.11321 z"
         id="path2406"
         transform="translate(1010.5848,371.59135)" />
      <path
         style="fill:#d40000;stroke-width:0.363224"
         d="m 45.245297,340.03677 c -2.100678,-1.10045 -3.261338,-2.76112 -3.261338,-4.66629 0,-0.7113 -0.400692,-1.64041 -1.07147,-2.48447 -0.652147,-0.82062 -1.143519,-1.94182 -1.255571,-2.86493 -0.101255,-0.83416 -0.279552,-2.38251 -0.396215,-3.44077 -0.116663,-1.05827 -0.52667,-2.52932 -0.911127,-3.26901 -0.390987,-0.75226 -0.864588,-2.78542 -1.074758,-4.61391 -0.555959,-4.83688 -1.043777,-33.38818 -1.473907,-86.26561 -0.375625,-46.17714 -0.826961,-74.39565 -1.303415,-81.49238 l -0.240412,-3.5809 -1.211447,0.19659 c -2.668893,0.4331 -7.842921,5.05732 -8.508925,7.60474 -0.221416,0.8469 -0.538763,2.03018 -0.705214,2.6295 -0.166451,0.59932 -1.197013,3.1328 -2.290139,5.62996 -1.093124,2.49716 -3.175094,7.97276 -4.6266,12.16799 -4.47135,12.92338 -8.2648511,21.61181 -9.4360461,21.61181 -1.3466397,0 -0.8722271,-12.0137 1.2765665,-32.3269 0.4966163,-4.69467 1.4717786,-14.50171 2.1670266,-21.79342 1.448948,-15.19647 1.956011,-19.26911 3.436947,-27.60499 0.585605,-3.29626 1.6582,-9.83428 2.383544,-14.52895 1.88546,-12.203323 3.374845,-18.758097 4.596795,-20.230456 0.553932,-0.667447 1.398802,0.139476 5.018876,4.793454 2.687546,3.455118 14.302122,15.271662 20.52901,20.885992 4.846435,4.36968 8.602348,7.23785 10.907743,8.3296 5.965636,2.82511 17.076867,5.47564 22.917688,5.46689 6.878497,-0.0103 10.309921,-1.43157 18.175906,-7.52834 5.904825,-4.57672 8.669425,-6.38804 12.588645,-8.24787 4.36623,-2.07196 9.10816,-5.448783 13.25118,-9.436432 4.15663,-4.000743 6.53573,-6.924716 11.69497,-14.373359 1.86801,-2.696935 4.42981,-6.276912 5.69289,-7.955504 l 2.29652,-3.051986 0.008,11.042905 c 0.007,10.284074 0.0583,11.153751 0.73975,12.655991 1.15516,2.546366 1.89834,10.011995 2.3343,23.449345 0.46181,14.23383 1.41165,26.36936 2.57287,32.87174 0.62036,3.47377 0.95447,4.68546 2.15332,7.8093 0.90951,2.3699 1.13011,3.72432 1.60521,9.85551 0.25977,3.35238 0.47525,4.32017 1.26008,5.65937 1.68222,2.8705 1.60971,6.92161 -0.1669,9.32461 -0.59898,0.81016 -0.81181,2.05142 -1.21468,7.08399 -0.41958,5.24128 -0.60034,6.25304 -1.28188,7.17488 -0.67547,0.91361 -0.75773,1.35892 -0.55331,2.99509 0.21018,1.68221 0.1051,2.18964 -0.84254,4.0686 -0.59548,1.18068 -1.43326,3.32513 -1.86174,4.76544 -0.84206,2.83055 -1.2617,3.39387 -1.77729,2.38575 -0.61171,-1.19609 -0.82411,-3.15608 -1.17213,-10.81607 -0.34292,-7.54785 -0.50673,-8.75961 -1.57629,-11.6603 -0.72242,-1.95924 -1.31305,-10.01702 -1.31515,-17.94243 -0.002,-7.05877 -0.57795,-18.71033 -1.07751,-21.79342 -0.92686,-5.7202 -3.39705,-18.09653 -3.7689,-18.88318 -0.59506,-1.25887 -1.43361,-1.30622 -3.6789,-0.2077 -3.2451,1.58769 -9.33355,7.51488 -12.34096,12.01412 -1.87544,2.80576 -2.1362,4.25736 -1.6186,9.01068 l 0.44202,4.05927 -0.96559,2.03278 c -0.92197,1.94093 -0.9656,2.29876 -0.9656,7.91914 0,3.2375 0.26229,10.98563 0.58287,17.21807 0.91697,17.82705 -0.0817,35.4026 -2.45579,43.21872 -0.69386,2.28438 -0.74836,3.09222 -0.55369,8.20649 0.12991,3.41291 0.50806,7.10665 0.94928,9.27236 0.73087,3.58755 0.73093,3.60512 0.0171,5.21883 -0.40422,0.91381 -2.02224,2.9604 -3.71427,4.69807 -6.37264,6.54452 -8.42726,6.08818 -13.67237,-3.03669 -2.756593,-4.79562 -5.493131,-8.73733 -7.11301,-10.24559 -1.057395,-0.98454 -1.175214,-1.93018 -0.328078,-2.63323 0.932617,-0.774 0.411136,-4.45305 -1.487659,-10.49551 -2.388939,-7.60221 -2.593456,-9.00533 -2.082811,-14.28938 0.234751,-2.42915 0.529983,-9.56533 0.656073,-15.85818 0.334383,-16.68832 -0.697517,-57.43357 -1.520218,-60.02668 -0.595553,-1.87716 -5.825849,-2.53881 -8.245906,-1.04313 -2.769511,1.71165 -6.653512,7.01704 -8.289907,11.32367 -0.395464,1.04078 -0.881261,3.22016 -1.079548,4.84307 -0.229045,1.87463 -0.617938,3.30602 -1.066356,3.92493 -1.130675,1.56055 -1.428696,3.70698 -1.438147,10.35795 -0.0049,3.43585 -0.246909,8.09419 -0.537833,10.35187 -0.552227,4.28546 -1.112612,15.67729 -1.470536,29.89375 -0.499697,19.84771 -1.251094,35.70165 -2.380575,50.22846 -0.392746,5.0513 -1.041805,13.87764 -1.442353,19.61407 -0.862605,12.35374 -1.259747,15.97966 -2.176738,19.8737 -0.855268,3.63194 -1.330335,9.30592 -1.8095,21.61181 -0.521502,13.3933 -1.037472,17.78116 -2.401293,20.42079 -1.891243,3.66045 -7.032158,5.01798 -11.044038,2.91632 z"
         id="path2408"
         transform="translate(1010.5848,371.59135)" />
    </g>
  </g>
</svg>
