<?xml version="1.0" encoding="UTF-8" standalone="no"?>
<svg
   xmlns:dc="http://purl.org/dc/elements/1.1/"
   xmlns:cc="http://creativecommons.org/ns#"
   xmlns:rdf="http://www.w3.org/1999/02/22-rdf-syntax-ns#"
   xmlns:svg="http://www.w3.org/2000/svg"
   xmlns="http://www.w3.org/2000/svg"
   xmlns:sodipodi="http://sodipodi.sourceforge.net/DTD/sodipodi-0.dtd"
   xmlns:inkscape="http://www.inkscape.org/namespaces/inkscape"
   inkscape:version="1.0 (4035a4fb49, 2020-05-01)"
   sodipodi:docname="medic hang.svg"
   viewBox="0 0 1339.7115 1682.7622"
   height="1682.7622"
   width="1339.7115"
   id="svg297"
   version="1.1">
  <metadata
     id="metadata303">
    <rdf:RDF>
      <cc:Work
         rdf:about="">
        <dc:format>image/svg+xml</dc:format>
        <dc:type
           rdf:resource="http://purl.org/dc/dcmitype/StillImage" />
        <dc:title></dc:title>
      </cc:Work>
    </rdf:RDF>
  </metadata>
  <defs
     id="defs301" />
  <sodipodi:namedview
     inkscape:current-layer="g305"
     inkscape:window-maximized="1"
     inkscape:window-y="-11"
     inkscape:window-x="-11"
     inkscape:cy="379.91"
     inkscape:cx="536.97182"
     inkscape:zoom="0.41721854"
     inkscape:pagecheckerboard="true"
     showgrid="false"
     id="namedview299"
     inkscape:window-height="1826"
     inkscape:window-width="1080"
     inkscape:pageshadow="2"
     inkscape:pageopacity="0"
     guidetolerance="10"
     gridtolerance="10"
     objecttolerance="10"
     borderopacity="1"
     bordercolor="#666666"
     pagecolor="#ffffff"
     inkscape:document-rotation="0"
     fit-margin-top="0"
     fit-margin-left="0"
     fit-margin-right="0"
     fit-margin-bottom="0" />
  <g
     id="g305"
     inkscape:label="Image"
     inkscape:groupmode="layer"
     transform="translate(-28.162655,-406.6643)">
    <path
       d="m 809.11107,2087.6671 c -60.3607,-12.9053 -122.08491,-28.1804 -186.46848,-16.25 -66.77086,-14.898 -141.85,-1.791 -207.0394,5.9162 10.04684,-18.9842 -25.66671,-4.6305 11.79192,-19.3933 32.03656,-0.3693 103.2284,-127.7048 61.16329,-70.0249 -54.61367,45.2414 54.6774,-60.5599 -12.37025,-15.7078 -20.36354,-44.4489 -67.97964,51.5576 -80.68042,-23.1414 -42.68538,-69.0858 6.0869,-147.0036 -7.57589,-220.1239 -40.07797,70.0507 -13.55096,154.865 -41.8567,227.79 -68.37368,82.044 -108.5851,-46.5882 -77.10701,-103.5086 -4.42437,-70.1587 52.90318,-129.7957 45.9128,-196.7955 -35.01836,59.6201 -42.01579,140.5669 -54.6604,210.7797 16.54015,55.0458 -78.8626,160.1738 -89.77668,64.8461 12.26922,-49.6383 47.51348,-131.3302 23.99699,-164.3206 -17.78649,36.6383 -16.55242,145.6386 -66.0562,133.7685 -21.90039,-125.9028 45.32831,-243.9035 51.71149,-368.0922 5.05093,-76.7443 41.71607,-146.5044 55.95777,-220.9711 -16.53577,-69.2032 -36.11555,65.7416 -37.633,91.9896 -13.46605,102.6808 -48.76791,200.4537 -80.79915,298.1794 -57.083929,89.087 -57.106263,-77.326 -43.606068,-114.8521 17.727771,-77.4236 45.723118,-152.5134 68.567018,-228.0521 -42.699375,-16.4848 -49.024701,109.3234 -57.235416,152.8863 0.289032,41.9792 -35.711714,61.4384 -31.214085,8.0773 -22.090905,-94.1087 14.375059,-188.7404 13.108093,-283.6516 1.998893,-86.2166 37.159118,-165.1936 65.074028,-245.14385 17.2631,-86.6627 -59.212626,114.73185 -38.122731,69.70955 -6.091868,34.923 -51.718793,161.2681 -66.029934,68.8781 C 45.608511,1002.9796 128.6233,897.31066 168.6666,778.13749 130.36468,811.50504 124.36216,927.75297 75.308257,916.94633 104.42901,848.00883 98.46805,770.16115 149.64519,709.65928 c 37.31527,-59.30213 71.91978,-127.27209 142.59964,-152.8179 45.93673,-22.28793 173.66645,25.43927 87.51718,66.20214 -46.83708,57.15761 77.72158,-1.47855 38.81547,-39.85687 30.89831,-18.63881 66.39648,-83.39711 115.93861,-104.72982 80.62725,-38.16966 167.74233,-70.91363 257.61602,-71.73674 89.72704,-1.31516 176.70434,20.79195 261.46179,48.46778 75.0383,33.00177 127.584,95.91043 181.0154,155.24302 35.7939,32.38092 83.4017,115.21317 37.5702,146.01359 -41.8206,-56.56155 -82.6312,-118.11095 -151.5559,-145.12453 -46.4562,-34.82972 -94.2249,-64.61978 -150.07582,-82.97865 -34.89956,0.71256 -170.59216,-4.38403 -68.35195,15.50778 82.85344,19.13931 165.09027,48.60922 231.35137,103.56084 75.9986,50.35327 141.3487,117.73765 195.2064,190.67421 38.0049,70.21881 46.3401,153.27924 33.4964,231.19787 -1.8964,57.0369 -50.1163,45.0995 -47.8203,-7.3372 -23.8554,-63.0044 -59.1007,-132.08321 -120.0614,-162.99647 -3.056,75.74076 79.3345,111.73867 106.9389,175.54947 68.3351,128.2227 45.2248,278.0916 16.7775,413.9733 -3.8368,33.0207 -15.1361,132.9802 -48.2667,111.1851 -1.8324,-75.2156 25.0501,-152.2544 -1.4178,-226.6942 -11.4185,-27.7573 -53.737,-96.135 -46.7598,-25.7159 5.9737,74.4185 3.9007,151.6816 22.9406,224.5985 23.3444,65.036 36.182,133.8925 17.6851,202.1554 5.9418,41.7002 -39.3029,156.0996 -29.0203,50.3088 -8.7216,-87.8974 -44.383,-171.8935 -88.5751,-247.4541 -33.9504,-37.8792 13.9108,76.9488 5.4207,101.1453 10.7928,94.3653 57.3217,194.3855 9.9972,286.0337 -8.9297,44.3196 -62.6864,81.6666 -48.9721,15.9663 16.429,-98.9337 23.8755,-206.2563 -14.3184,-300.9772 2.7586,116.1899 5.083,240.2388 -56.0789,343.5927 -37.7513,-15.8119 -1.6867,-88.5373 -19.9218,-124.6155 -16.2218,-59.7207 -3.7776,-128.9704 -43.54883,-180.6667 -4.43459,82.42 -28.82346,166.9585 0.30784,247.5374 -2.19649,62.8411 -91.83737,69.1748 -72.08021,-3.9827 18.04662,-47.3694 5.40317,-145.5339 22.99723,-165.8109 17.69955,69.4173 -39.95117,153.451 1.90268,213.5904 77.98519,-20.9059 -2.80464,-128.9486 28.34025,-188.6675 2.22442,-40.3694 9.32068,-170.798 45.95534,-73.3228 18.0146,54.5033 15.3322,113.9672 29.1771,169.2718 -0.5705,31.2954 -8.2707,135.8883 20.7602,62.472 36.0798,-84.2471 36.1129,-179.5586 33.7386,-269.7678 -6.9492,-34.4637 -21.6747,-118.9478 14.3188,-45.5603 42.2934,103.1941 34.4815,219.496 14.8667,327.0382 10.5822,76.8552 79.4102,-148.0663 53.9486,-88.365 8.2571,-59.0731 -16.5254,-118.2409 -23.1064,-176.7828 -6.4003,-64.7616 -26.5858,-132.3564 -29.7994,-194.6242 41.334,29.6389 69.5322,104.0303 90.8267,158.1124 24.3271,42.8541 31.8264,125.1268 34.7593,157.2941 9.6982,-74.4596 33.1283,-152.383 3.7456,-225.0989 -25.1206,-65.1306 -25.5983,-134.3052 -30.8065,-202.9328 0.031,-32.1571 -20.3359,-124.8267 12.822,-125.3137 50.4731,55.1708 68.5053,131.1751 56.7803,204.9131 -11.87,27.9714 -13.1008,160.369 9.9772,65.9317 25.3966,-138.8933 64.6881,-285.106 20.4815,-424.5373 -22.8277,-49.9204 2.8668,105.7412 6.5411,87.0062 -1.5031,25.8486 3.218,179.8095 -23.0104,89.9818 -18.5604,-51.2987 -62.0991,-138.0953 -77.3455,-161.7795 -28.3721,73.8811 -27.3818,149.5938 -29.899,225.3198 -28.3688,32.5532 -52.6445,46.9299 -14.0201,84.3645 5.4649,44.2653 17.8319,116.6978 5.7876,147.6066 -18.6848,-59.2303 12.6004,-138.488 -44.7765,-183.799 -70.4801,-8.1788 -64.3791,71.8156 -91.2226,116.2527 -64.70509,63.087 18.9316,130.2713 10.9606,206.7698 8.8168,33.4083 13.4012,118.2891 -4.8778,39.6063 -8.7067,-44.5487 -11.3837,-161.647 -48.8862,-163.8986 -25.17267,45.66 -68.86314,81.5466 -94.86107,109.3411 26.50642,-14.7329 95.62287,-66.0747 100.37207,-70.9623 -38.14357,48.9557 -114.48601,65.8379 -146.59107,112.6351 1.32736,63.3846 -8.30166,133.8007 25.86615,188.3093 -8.03366,51.2739 74.07355,95.1815 71.44791,119.8521 -51.57166,-24.6606 -101.4835,12.3333 -153.53612,2.3335 z m 36.62065,-5.48 c 36.38374,-23.4341 125.46119,6.5915 63.20356,-46.5494 -43.68732,-71.148 -62.21674,-154.4582 -58.6672,-237.7261 3.24574,-26.2435 -16.88103,-18.7397 -6.85958,-29.2577 -73.5249,22.9833 -151.42773,50.2082 -229.15722,35.5344 -22.76976,-24.8148 -131.4266,-75.2479 -69.74425,-4.8118 20.76326,21.1268 109.00835,83.8076 36.04535,45.2879 -29.87843,-25.998 -74.68501,-65.2345 -40.95153,-2.0624 3.88906,37.7863 122.53194,71.278 36.66239,53.8651 -23.54285,-14.2241 -61.62676,-66.6466 -47.84397,-30.9014 -4.74826,27.2581 120.35785,99.3462 34.60243,61.3607 -29.26383,-27.333 -50.9037,-65.3801 -30.62225,-3.122 8.14784,36.5923 117.12806,108.9859 32.12968,63.1184 -36.37812,20.251 -61.51364,-61.4249 -15.53229,-9.0811 20.34293,19.3224 -38.61241,-85.6236 -32.63903,-23.031 -1.03431,51.0213 -136.25797,121.6498 -28.38459,109.9532 76.01852,-19.6869 151.83578,5.6403 230.16906,-6.1432 41.76867,12.2651 85.94449,19.1056 127.58944,23.5664 z m -324.39839,-33.106 c -48.54668,-4.4102 -56.15243,-49.6576 -8,-11.3794 20.7203,-1.1933 44.62092,13.3256 8,11.3794 z m 19.87819,-13.0576 c -47.92553,-3.5871 -43.96478,-88.419 -16.16976,-19.7719 10.86101,10.1272 56.63589,18.4597 16.16976,19.7719 z m 16.58015,-9.412 c -38.2841,0.749 -64.51674,-85.3715 -22.56658,-27.1234 3.34187,15.4048 67.41412,24.2085 22.56658,27.1234 z M 325.54573,1973 c 41.13743,-47.687 20.35275,-120.7249 32.29092,-179.2486 4.43304,-30.4897 53.38921,-142.7468 40.88493,-78.6162 10.88927,76.3657 -36.7764,156.598 5.86538,228.1981 44.06473,86.2949 78.48404,-64.5108 54.36367,-104.0154 -11.47871,-57.2616 72.37284,-99.8974 -10.04594,-128.3186 -21.42082,-22.5096 -100.35116,-64.3584 -82.30441,-81.6934 32.813,27.5528 61.98976,52.8133 14.73305,5.9272 -46.33965,-50.015 -77.738,-111.593 -95.55324,-176.9979 6.93741,-61.1417 -31.76145,5.4042 -45.4811,-52.9019 -4.30086,-36.4957 6.2667,-100.2675 -14.93429,-28.2935 -33.10879,82.7414 -36.08334,172.1229 -52.74349,258.3464 -24.01526,84.6096 -50.94804,175.4775 -33.59721,263.4287 42.71442,-14.3273 21.82747,-145.7812 70.1224,-137.0049 20.77448,67.5652 -49.40657,137.683 -20.08882,197.7618 79.89705,9.0634 54.18228,-115.5886 76.41037,-167.5718 10.60338,-39.0722 21.05227,-147.9759 59.99616,-134.2807 -8.3382,73.4234 -53.50637,142.4186 -52.67798,220.0741 -10.2004,40.8585 -6.14597,113.3051 52.7596,95.2066 z m 171.76364,-15.0857 c 26.66083,-50.5678 22.08371,-146.8503 10.23483,-185.825 -10.14604,59.4014 -62.15816,148.101 -18.92792,192.4965 z m -17.97166,-115.2476 c 15.80788,-32.039 42.0058,-145.9105 -5.7488,-58.3279 -6.55235,8.4615 -9.85516,99.0246 5.7488,58.3279 z m 232.47984,-51.3384 c 31.4997,-3.3303 132.17712,-19.6183 131.31016,-32.2192 -73.69038,29.4942 136.55813,-77.886 20.87229,-45.6308 -112.71004,16.2648 -228.19879,-5.813 -340,13.1353 -29.80528,20.3578 71.43553,46.0936 97.72612,61.5053 28.91671,8.5637 60.34498,4.5982 90.09143,3.2094 z m 138.84912,-20.6616 c -1.61227,-4.875 -3.28855,4.7496 0,0 z m 18.73896,-18.4687 c 48.31807,-32.6948 -29.00158,6.4439 0,0 z m 25.9277,-10.2271 c 47.69711,-42.3191 -52.58289,30.8418 0,0 z m -24.6163,-2.0361 c 9.25235,-10.8103 -18.37474,14.7701 0,0 z m -361.3837,-8.6484 c -11.57897,-4.5245 -7.96304,5.9858 0,0 z m 384.15535,-5.394 c 23.76353,-25.2158 37.18908,-42.667 -6.22701,3.3753 z m 4.01473,1.1076 c 4.33129,-6.6272 -7.58475,8.4179 0,0 z m -793.50025,-9.8827 c 27.96821,-70.3357 48.69859,-144.1794 69.03934,-217.346 21.71571,-71.3207 9.13963,-155.4863 52.61247,-218.048 -20.54311,-41.9434 -55.77008,-115.0514 6.85342,-152.4119 61.44969,-3.4003 -12.42072,-104.6971 6.45219,-149.95359 1.51982,-72.7398 -64.84087,112.07569 -52.38282,94.94399 -15.65694,80.2665 -79.43126,153.1117 -58.57791,238.3652 3.15118,24.7483 41.07345,24.7344 16.46653,68.2488 -29.91016,91.1361 -69.237884,183.9138 -68.473138,281.1717 8.672435,8.8528 3.147502,91.4853 28.009918,55.0298 z m 814.71844,0.216 c 37.37997,-40.33 -44.41514,27.4654 0,0 z m -403.03305,4.5775 c -29.53293,-12.8373 -69.60208,-25.0759 -19.10038,-1.2017 l 11.14509,1.9724 z m 15.95898,-3.3896 c 101.28485,-17.81 205.72831,1.1781 308.03997,-10.3055 74.0527,10.5444 120.59323,-50.1693 153.54828,-107.4816 44.79142,-72.0862 60.80432,-155.7896 88.69222,-234.672 -7.6879,-45.9764 -67.2383,4.0667 -95.86948,-18.3415 -143.13294,-8.474 -287.66967,-11.2335 -429.88962,9.7676 -41.57534,12.9726 -115.74732,15.5876 -141.50223,27.0463 20.86879,17.5153 123.59494,-4.9197 100.44138,14.2449 -34.25914,4.7077 -165.37203,-8.078 -64.09579,5.1492 32.31418,1.3608 145.11418,6.8551 55.26525,11.9245 -33.3691,1.3218 -139.93398,-19.1404 -58.6503,13.2784 32.03483,7.9858 118.53881,30.5213 38.71209,20.7035 -37.65326,-15.3552 -109.15509,-29.3345 -41.11496,15.9852 20.61572,22.9534 72.45613,39.2532 63.05894,58.2921 2.10132,8.4796 33.4424,28.7314 -6.42138,14.0569 -40.29736,-14.9772 -89.74557,-94.3769 -101.73851,-86.5045 27.30602,42.0517 81.64921,88.1785 107.96285,115.3887 -38.13726,9.2585 -107.56312,-114.9746 -108.40537,-89.7228 13.37303,39.9472 86.24127,73.9187 82.70204,102.3569 -32.03588,9.4076 -93.57856,-79.4756 -50.92649,-17.5274 21.40652,18.5538 55.07472,57.2708 5.69119,25.8372 -0.97767,34.2615 94.9821,92.6364 54.53834,88.5606 -35.66753,-23.1468 -68.67883,-80.8349 -81.8329,-88.4999 -1.6584,70.6145 34.42906,77.6556 81.9891,113.377 -17.22022,-12.3667 -83.27375,-80.2255 -54.35584,-74.0187 20.47043,36.5481 79.6301,75.8775 94.16122,91.1049 z m 276.2527,-67.0124 c -77.97092,-6.4378 -148.2506,-40.6736 -226.2594,-7.6694 -100.16648,8.9702 35.64767,-13.5687 66.41739,-19.2804 54.85429,-14.4918 146.14156,24.0541 179.57425,24.971 l -10.38237,1.8318 z m -284.12092,-13.5975 c -63.43084,-17.9298 -12.44858,-19.0853 20.88736,-5.6478 -6.01127,4.4774 -11.9263,13.1254 -20.88736,5.6478 z m 27.15336,-9.0609 c -18.76334,-18.5451 45.45319,-0.9199 0,0 z m 364.40066,-26.2787 c -27.91761,1.8921 -116.56988,-17.7787 -44.34853,-12.0351 17.29238,-8.3242 104.39585,15.9559 44.34853,12.0351 z m -296.37345,-76.7878 c 50.3173,-33.6528 118.46541,0.6637 175.70679,-14.7887 34.80921,0.8833 76.51161,-9.1387 20.35855,8.2923 -59.81452,-1.2399 -119.22692,5.9016 -178.83665,0.9273 1.6008,-4.4737 -31.51901,17.7233 -17.22869,5.5691 z M 966,1492.4296 c -43.46556,0.3642 -70.59423,-25.6227 -9.80002,-10.5485 21.49482,-0.7586 49.31052,11.0687 9.80002,10.5485 z m -389.00068,-16.5091 c -56.71921,-22.8379 64.10077,-4.4309 71.88945,-2.678 -22.71389,7.5405 -48.61943,8.9131 -71.88945,2.678 z M 496,1474.0968 c -29.69935,-2.1282 -114.51818,-55.6438 -41.8441,-27.6184 6.64969,10.1959 94.08144,26.7109 41.8441,27.6184 z m 66.35437,-59.4692 c 76.79849,-2.9162 154.64959,-23.5253 231.66967,-24.5205 31.53898,22.1201 171.83844,-14.3885 75.95194,16.4967 -70.45279,-8.1251 -140.21546,-15.2634 -209.32411,6.8817 -24.11773,-3.1428 -93.09633,13.2942 -98.2975,1.1421 z m 377.2846,288.6089 c 22.6264,-24.0759 -35.22609,29.7709 0,0 z m -487.8291,-16.4281 c -44.03103,-37.8267 41.82564,40.9578 0,0 z m 473.96746,6.9699 c 26.49685,-31.0808 -21.9225,18.8136 0,0 z m 11.38528,0.31 c 32.55073,-36.8061 -23.22789,11.5417 0,0 z m 13.55792,-4.7838 c 47.48257,-44.5695 83.35747,-140.9339 102.54587,-176.7088 -26.3083,61.0761 -85.25487,123.55 -102.54587,176.7088 z m -541.24282,-50.3722 c -8.28191,-52.3849 -11.19289,-100.9296 -41.87466,-146.0736 -28.43847,-23.0991 -54.89716,-106.9163 -65.26371,-116.7152 2.81728,45.2349 40.89787,161.2687 49.13229,143.3808 13.70499,49.6548 8.18348,90.3472 58.6677,124.8268 z m -50.06538,-60.9802 c -12.50965,-45.2848 -44.33313,-114.4999 -64.44011,-139.6715 13.14224,44.9638 39.04092,117.0849 64.44011,139.6715 z M 412,1562.7583 c -3.39511,-20.0863 -6.35321,16.0265 0,0 z m 44.46131,-3.5886 c -54.74753,-61.4903 -12.57087,6.3669 0,0 z M 1042.4926,1522 c 23.129,-59.6585 39.5058,-92.4893 60.7319,-154.7445 10.7938,-39.7211 20.0586,-112.1339 4.5591,-34.5408 -24.6113,80.7447 2.115,-60.4545 13.0029,-83.3237 14.2362,-71.8001 -39.128,94.7437 -32.7864,70.6795 -1.1299,43.4031 -11.7233,103.602 -33.3333,153.306 -1.8099,25.6177 -54.6114,126.8632 -12.1742,48.6235 z m -970.603152,17 c 0.528158,-79.8477 47.347192,-153.4087 46.283262,-228.938 -16.86089,-83.8703 46.56472,-155.2199 61.12806,-234.6816 17.07378,-53.2653 51.40219,-105.05505 59.43435,-157.71492 -5.3217,-54.89951 9.29863,-107.76034 21.55283,-160.80858 28.44415,-64.02631 49.83684,-146.7967 124.866,-170.46967 7.27852,-25.80253 -126.58953,-44.23252 -156.0903,14.67606 -32.60274,34.95598 -41.60396,53.30213 0.35686,10.7651 24.84134,-30.19272 115.01575,-31.79095 33.38218,-14.32859 C 193.79716,627.29037 159.35749,702.11746 125.23478,764.441 105.29365,810.74871 95.743003,879.33062 87.975295,916.86961 129.04215,865.87511 136.95857,789.71035 191.96185,748.9783 203.56379,719.1427 293.24273,619.71146 238.70744,687.34873 166.05423,788.91698 120.52933,906.01375 65.839219,1017.6955 c -15.500398,28.7062 -47.618435,143.5225 -9.601321,131.8474 31.854524,-59.364 32.083828,-151.7392 87.519322,-187.87186 -9.5113,75.44136 -56.684394,142.34196 -61.71716,219.31756 -8.981996,90.188 -16.748676,180.6195 -28.160557,270.6275 1.953122,20.0408 10.532854,100.1271 18.009945,87.3839 z M 146.66667,974.53909 c 3.53728,-42.44696 92.49164,-128.39074 28.36394,-49.41784 -12.96177,3.05754 -20.37366,69.19524 -28.36394,49.41784 z m 253.26741,561.33171 c -11.08021,-17.4283 7.77218,18.7377 0,0 z m 0.69984,-26.4845 c -14.92301,-43.579 -28.25594,-30.9317 0,0 z m -34.54951,-43.053 c 8.77253,-37.7007 -68.32479,-131.2561 -32.67704,-50.7637 5.03825,9.8617 31.33217,72.1369 32.67704,50.7637 z m -53.30106,-26 c -7.40347,-35.3011 -37.24566,-91.6945 -14.0832,-24.3902 1.72267,1.0697 13.59041,35.8764 14.0832,24.3902 z m 74.43985,-5.4885 c -3.05844,-12.1061 -8.17968,2.9723 0,0 z m 710.5523,-5.1781 c 35.911,-16.981 103.1242,-13.5053 92.5867,-82.5506 -25.3209,-78.8498 31.6442,-151.4935 27.1987,-230.0634 -30.7247,-86.6625 -90.6335,39.4223 -25.5609,60.9473 25.767,18.1423 -21.1286,85.7429 -1.9801,19.6161 -7.1902,-22.297 -49.237,-67.3939 -44.3881,-9.1641 -26.6846,47.924 31.5166,19.5564 12.4375,82.3706 -26.1013,44.1999 -68.4024,122.1452 -60.2938,158.8441 z m -728.87161,-7.6048 c -8.31002,-37.9428 -6.90622,21.5064 0,0 z m -95.39014,-1.1523 c 6.20321,-30.3996 5.84311,-157.7581 -24.35706,-88.2429 -2.29742,24.8187 -7.95198,96.8623 24.35706,88.2429 z m 845.74105,1.048 c 5.5884,-7.373 -11.9851,7.7481 0,0 z m -718.64099,-13.0875 c -1.27279,-8.5707 -20.1709,-5.2045 -4.30149,1.5936 z m -35.8959,-13.351 c -22.4292,-19.2777 5.45185,27.0062 1.00844,1.3221 z m 22.94796,0.4576 c 35.21214,-13.5217 -45.63914,-6.2153 0,0 z m -44.51342,-16.31 c -39.67927,-45.8525 -27.46775,-83.7453 -30.09257,-23.7079 2.79524,3.952 22.91728,27.2019 30.09257,23.7079 z m 34.79284,0.8365 c -22.82555,-27.8972 -77.00014,-126.6692 -33.28022,-39.1673 7.80642,12.6707 13.82108,42.6555 33.28022,39.1673 z M 418,1374.8377 c 75.76769,-12.172 152.25953,-25.4196 227.11361,-39.5044 35.10467,-38.5556 9.42001,-85.6228 18.96703,-128.209 -12.12161,-59.2052 -50.32334,-113.1439 -91.28745,-156.9732 -19.65762,-8.4587 -87.20333,-34.9694 -79.79319,-9.2485 -30.07641,0.1873 -93.75029,19.3213 -97.34551,40.1326 -33.77124,1.0533 -81.47425,53.3561 -75.89605,91.082 17.65605,25.6197 73.91572,106.2087 26.22331,70.5697 -26.19428,-40.0069 -63.35988,-108.9098 -77.21741,-130.7004 19.34583,59.6537 51.5779,120.703 90.20017,173.9914 15.68537,25.1105 93.79923,78.3048 24.83323,42.8431 -37.45123,-25.4235 -71.84475,-106.0627 -86.99651,-114.0606 32.30266,49.3014 52.53791,160.2204 121.19877,160.0773 z m 68.61631,-56.2252 c 32.75935,-1.3086 81.44847,-31.4165 91.5663,-47.4482 -19.67911,21.5664 -134.20918,42.0989 -63.45511,4.4767 41.22514,-23.3237 102.75065,-24.3421 111.81177,-33.7847 0.82157,36.8236 -104.42324,92.7639 -76.7803,63.8464 -5.9699,1.6317 -77.68743,27.1018 -63.14266,12.9098 z m 81.80468,-17.4742 c 52.96665,-41.3542 7.29966,-15.659 0,0 z m -7.51012,-7.3943 c 19.66638,-15.0564 -32.76157,20.0654 0,0 z m -40.27846,-7.0219 c 55.01507,-21.8006 -49.5781,7.4247 0,0 z m 91.19998,-24.2322 c 0.71358,-8.375 -27.33887,38.5452 0,0 z m -32.99564,13.8434 c 4.97821,-6.0881 -8.98003,7.2446 0,0 z m -71.45422,-34.5085 c -51.14658,-13.0583 -106.51576,-8.0371 -147.50141,-33.4315 -27.07244,-70.7711 37.76518,35.9871 42.78928,-9.278 -46.23623,-20.1267 -33.46862,-56.5691 3.83072,-9.569 41.36541,16.8629 -9.54681,-75.3882 14.24578,-47.7902 -0.97983,70.5588 50.13692,9.9778 18.5865,-8.6143 -38.68699,18.4358 15.57907,-25.2422 29.46907,-15.9433 24.95898,-7.5967 35.46302,-40.1833 31.40451,-12.2646 27.64436,3.9488 29.63403,-30.7396 42.76078,-3.4453 37.04024,17.7827 57.5967,27.6994 76.42528,56.3709 13.95514,56.0061 -99.18287,-109.1675 -96.2482,-20.9369 38.62589,1.3377 156.16136,76.0852 72.18852,89.7013 -29.50721,6.0959 -56.63781,23.235 -87.95083,15.2009 z m 43.9508,-7.7428 c 75.42953,-0.2183 70.01262,-47.4808 13.03566,-70.7487 30.49078,31.2581 -59.53298,84.1322 -13.03566,70.7487 z m -10.05252,-8.7219 c 32.84541,-49.5577 2.71304,-5.7255 -11.8982,2.6399 z m -65.68378,-3.3668 c -26.15808,-35.1269 54.96898,-102.0412 -17.27204,-53.1789 -24.31552,21.6688 -89.19769,55.888 -16.40067,52.501 2.91375,-1.265 49.11607,12.4339 33.67271,0.6779 z m 58.20061,-6.543 c 34.17376,-27.9146 22.14159,-45.5002 -0.49087,-3.2021 l -7.31132,8.438 z m -7.52096,0.1525 c 57.66392,-61.7608 -17.58635,2.3105 0,0 z m -28.94335,-7.5528 c 9.76326,-21.1439 44.02158,-51.0924 0.82396,-32.8319 -20.17213,23.1569 25.26774,-38.8694 -9.16537,-4.5121 -8.23339,8.7752 -9.10957,44.6695 8.34141,37.344 z m 31.67654,-3.7192 c 33.97454,-53.2418 -55.38543,19.671 0,0 z m -112.3028,-8.0682 c -12.74419,6.5515 0.4959,4.3558 0,0 z m 102.03345,-4.3021 c 25.45895,-27.8094 -26.2069,4.1094 0,0 z m 26.34837,-26.004 c -29.9082,-26.1494 -60.58771,-15.2019 -16.14146,-1.9769 4.87845,2.3783 10.83388,4.5187 16.14146,1.9769 z m -74.84865,-8.8501 c 22.09067,-12.0141 -7.90376,-1.2545 -7.6526,4.7691 z M 464,1155.2284 c 53.87594,-31.0921 -28.58965,-48.863 -5.60625,3.3614 z m 44,-17.4954 c 41.02741,-47.2612 -60.36996,-14.2589 0,0 z m -220,228.3457 c -2.36909,-9.0495 -4.12223,7.2078 0,0 z m 17.48629,-22.9454 c -13.71413,-25.545 11.06567,27.4611 0,0 z m -165.02928,-0.8 c -8.87097,-20.0487 -6.01598,14.7863 0,0 z m 883.50389,-2.2573 c 53.4288,5.1928 62.9212,-69.1779 78.805,-107.6207 6.6657,-65.8599 41.8722,-142.2698 27.3357,-202.7258 17.5669,-46.39669 10.5287,-100.67141 6.4135,-133.61731 12.8097,-63.64057 -6.5656,-127.25184 -83.3426,-112.19943 -54.64648,3.14182 -168.64231,-42.88493 -158.77657,44.87989 27.9446,5.33077 144.39537,-12.9731 63.33648,7.65418 -70.99205,-24.07156 -97.56683,27.79297 -131.52396,78.89455 -51.11236,48.31694 -132.88598,22.37238 -179.11243,-14.56642 -71.05689,-8.68443 -127.75895,36.88772 -194.84887,38.32588 53.87151,-8.7994 109.08273,-46.52449 165.31393,-40.93746 57.69943,-3.47253 -40.97213,-73.60082 -30.84049,-118.68191 -61.94457,-19.92693 -149.58878,30.47758 -219.68018,38.35093 -52.37483,31.41316 -105.02161,13.09322 -111.66484,54.47187 -12.0856,67.19687 89.33419,-42.80574 130.3531,-31.8953 55.25854,-21.19869 163.92847,-49.02009 196.86004,-36.67681 -104.37391,9.60997 -205.83738,39.399 -301.52773,82.07791 -47.04133,14.4171 -20.64577,65.48483 -26.97493,100.64748 4.73613,40.36065 27.81559,154.70185 66.23377,136.33695 -3.47146,-24.4775 -17.93757,-41.2916 25.46176,-33.2803 12.981,-27.2144 39.97948,-23.4691 54.92427,-48.8805 36.0545,-12.1098 47.921,-32.4955 86.76692,-30.0738 45.91528,-0.1914 -1.99558,-5.9377 15.32752,-25.64549 27.15791,7.51981 72.44079,25.59849 86.4323,58.73469 42.34723,64.2745 101.25483,129.7842 88.11258,213.0174 8.9254,46.1391 -51.00789,103.235 29.18366,78.7705 31.46561,-2.5254 60.16043,8.3055 29.06981,-27.0612 -4.0157,-68.5003 -14.62562,-142.2435 24.69024,-203.741 18.13837,-29.7764 41.94033,-97.5878 63.53497,-92.635 -29.96245,59.0351 69.82389,-58.75973 33.83387,1.3883 27.96317,-45.08093 18.11536,2.6742 55.25758,-34.24997 -10.12667,24.65927 46.20072,-12.48219 20.38979,13.43756 46.51371,-42.50894 45.77694,13.31201 93.21121,-21.16997 -10.1416,29.84008 19.618,23.07502 41.6976,33.39378 10.5433,21.2329 25.4566,8.9849 -1.4338,31.4138 -14.654,25.8146 0.3437,-36.31961 -28.0101,-14.5922 -16.3638,0.5993 -62.94814,-21.7373 -52.1095,-17.9224 -24.64842,-11.54555 -116.31206,6.7962 -99.32013,10.8789 -17.28227,-8.1991 -55.70162,32.6366 -72.18277,36.0887 -13.51879,15.0481 -48.09389,30.6676 -44.9922,51.9334 44.06193,-46.8441 -46.04225,53.7257 -25.83972,89.7624 3.55942,51.7755 -14.50444,167.4842 67.67309,141.4307 70.69982,-4.5507 142.75714,7.1788 211.96213,6.2832 z m -170.78453,-27.2501 c -36.86091,-15.2343 -104.87247,-94.6746 -35.66923,-88.8501 17.26341,21.4931 126.60328,32.0855 45.32761,32.4423 -88.57918,-22.1791 128.61297,41.0392 12.85126,19.7042 -104.30531,-30.7553 83.90702,46.3881 38.42424,22.4223 -23.68419,23.0112 -124.10955,-39.9474 -51.92006,6.7054 22.29199,-0.4673 -3.28189,16.0472 -9.01382,7.5759 z m 53.63039,-83.6786 c -41.4207,-10.1597 -172.32892,-19.8923 -80.26568,-69.2274 34.08233,-8.372 93.88096,-90.2887 22.66155,-50.9439 -30.8945,18.1705 -88.07785,80.0791 -34.57026,18.6098 39.99884,-31.1132 54.52648,-46.5624 113.05213,-37.5212 23.31883,-40.7384 4.77584,-10.0758 33.0571,5.8685 10.9406,-52.3267 10.41121,46.3743 40.4669,1.1607 -12.69813,7.8483 26.095,51.4788 41.3108,13.8769 -28.8908,25.5702 18.8673,48.3981 -24.9783,32.2073 -39.09147,46.7335 62.97,37.2625 64.5701,6.6985 -36.3573,53.2361 -110.47555,77.5756 -175.30434,79.2708 z m 27.40637,-9.7538 c 56.51117,-0.2045 113.98697,-23.6345 49.18939,-65.2448 -39.55037,-29.7736 -35.83409,-22.2506 -23.40252,20.4246 -16.03133,80.8271 -112.91599,23.4823 -109.47396,-14.6658 -38.02003,20.2354 -69.4841,42.82 -3.87332,45.9984 28.03225,9.9834 57.62204,17.5987 87.56041,13.4876 z M 938,1204.1177 c 41.62224,-34.3584 -55.25954,23.2626 0,0 z m -19.83616,-0.2996 c 36.19685,-11.3989 34.65068,-57.6208 3.04623,-10.5793 -9.42641,2.4262 -25.78355,19.5419 -3.04623,10.5793 z m -6.95636,-8.2892 c 40.77953,-9.254 37.59473,-75.0201 -5.48952,-34.2538 78.54111,-8.3908 -61.47545,65.592 -3.40078,-0.7997 51.38565,-36.9071 -71.04449,-5.4167 -18.32238,30.6555 7.46209,2.1729 19.21082,12.2397 27.21268,4.398 z m 123.09752,-7.0016 c -12.3454,2.2616 -0.5885,4.0034 0,0 z m -213.21555,-13.1089 c -6.64148,1.5395 -21.1073,16.7674 0,0 z m 97.04388,2.7149 c 17.37437,-23.8791 -24.21378,18.5561 0,0 z m -14.78074,-0.4666 c 25.13544,-29.8083 -21.79742,7.4801 0,0 z m 9.81665,-3.839 c 4.19658,-13.8332 -8.34663,12.6997 0,0 z m -61.83591,-20.5133 c 34.09127,-20.5126 -54.13104,24.3681 0,0 z m 20.05306,-3.6477 c 8.42713,-12.5253 -10.45774,11.6744 0,0 z m 130.86181,-1.166 c 46.3128,-5.3055 -38.49553,-44.8892 -21.91487,-9.7724 4.69647,4.8634 17.83703,14.1183 21.91487,9.7724 z m -136.58609,-8.7348 c 13.24738,-12.5297 -27.31456,13.9623 0,0 z m 34.6861,-2.0887 c 14.27951,-13.0272 -40.5813,15.9615 0,0 z M 914,1134.6667 c -4.96038,-5.007 -7.28772,4.8812 0,0 z m 66.45952,-10.0616 c 5.28398,-29.5086 -55.9479,-2.5383 -9.9822,5.2875 z m -87.12619,-3.953 c 82.33886,-35.6823 -45.26374,-28.3968 0,0 z m 59.22386,-7.1608 c -3.4391,-38.82 -42.00828,28.4287 0,0 z m -25.35415,-3.172 c 1.37757,-24.6542 -23.21369,25.5944 0,0 z m 6.63904,-19.0552 c -1.32164,-4.9041 -2.74424,6.7879 0,0 z m 90.25882,113.2214 c 33.2491,2.0224 100.1369,-77.0027 42.7089,-12.2974 -4.0449,7.3969 -47.9714,19.3554 -42.7089,12.2974 z M 678,1153.3333 c 10.02726,-9.7023 -6.91105,9.4985 0,0 z M 844,898.51316 C 880.80601,863.41449 964.48782,882.4291 995.09511,876.53716 948.24109,897.43329 887.84191,873.78708 844,898.51316 Z M 534.6238,858.04563 c 20.06373,-8.70959 103.24061,-27.70022 39.46802,-2.24919 -4.81545,-4.40458 -44.79025,10.86546 -39.46802,2.24919 z M 1060,1337.3333 c -4.1752,-3.9965 -6.9376,5.2567 0,0 z m 19.3788,-12.3101 c 30.7005,-56.398 -27.7322,35.2999 0,0 z m 46.3471,-5.9648 c 18.4561,-29.394 14.8628,-141.6886 3.5958,-47.6794 3.2742,5.1696 -17.6557,66.6416 -3.5958,47.6794 z m 188.2918,-55.1717 c -2.5309,-75.8465 -7.1314,-162.1593 -53.1203,-225.1096 -30.2569,-34.9733 -125.1991,-8.6816 -90.2802,-82.66414 16.4687,-54.62802 -10.6478,-136.51038 25.9422,-170.43123 -90.9138,-47.70058 -180.7746,-103.2296 -283.60863,-120.76037 -10.18163,-30.75494 114.91373,-2.06923 43.7159,-51.59224 -36.87566,-29.9336 -109.45754,-54.01915 -142.29867,-47.30723 21.33895,28.55444 98.0504,82.57664 103.08125,61.66646 -58.98181,-7.32033 -100.318,-59.27556 -137.17144,-74.19779 -46.98641,6.97677 -115.65701,-29.83038 -34.83795,-42.14079 47.36409,-15.13245 133.86238,1.42037 162.34245,-16.03085 -55.73932,-23.21582 -130.00609,-46.17087 -187.64289,-25.53255 -20.69189,11.7447 45.46084,14.99688 -8.66931,15.70767 -36.5141,-5.61149 -133.67187,35.05344 -118.36358,54.97629 27.49879,-26.19177 99.80598,-40.51415 31.56669,-5.8425 -41.66076,15.38036 -71.08761,57.69757 -5.75101,37.69338 83.63,-6.9182 -51.89447,-0.31962 -52.07226,28.27983 -47.53541,75.24763 82.64222,-11.63583 30.38246,18.84675 -45.25584,9.66726 -54.58297,85.17965 -17.50065,73.4265 -36.24402,6.30836 7.27051,40.7001 -47.22275,46.64165 -24.33599,9.69573 -80.32302,34.19309 -34.77452,-8.51986 64.93315,-55.39728 -74.04118,24.83118 -12.19439,-15.01546 42.55925,4.87212 97.75963,-99.28661 27.30354,-48.08522 -24.1456,14.3142 -74.0837,42.30781 -24.47764,9.53979 31.82554,-11.20594 -59.21204,5.1652 -8.49205,-32.28752 30.56933,-27.31991 78.09419,-70.1172 15.68875,-25.95232 -18.65166,21.79715 -84.90306,45.30552 -24.44147,14.90241 15.39012,-14.10643 157.76305,-101.07709 97.82352,-74.34899 -58.07154,42.47462 -61.36031,-5.43328 -77.69877,18.24974 -37.98879,11.61145 85.48323,-87.28492 62.09393,-62.54867 60.54867,-15.94268 111.29589,-85.17647 178.84583,-59.914 51.01005,0.90367 174.74715,-2.8637 180.5412,48.44146 -58.29387,17.99941 -163.37573,-5.67101 -197.60116,28.66335 70.35405,18.81253 146.04108,17.63857 212.41365,50.74207 89.45797,20.72534 42.07646,89.54297 6.7241,77.32645 105.16177,20.17271 197.22727,78.72408 289.79517,129.4102 52.4963,37.58927 100.7176,95.8561 91.2746,164.74068 -33.5393,3.16894 -23.2832,-110.18472 -74.6111,-133.91701 -65.879,-73.04494 -62.2716,50.30988 -50.5142,76.10936 38.3438,-21.57898 77.3027,59.64339 99.7648,85.40511 25.9533,28.21629 49.2042,179.51489 65.9488,80.20919 10.2275,-96.59151 -5.7777,-205.03206 -80.6752,-273.8271 C 1198.8096,703.16853 1107.3602,627.05333 1000.5011,583.37635 960.86526,556.5391 849.25289,559.22524 847.45316,528.06804 917.15171,509.3922 992.20986,519.28537 1056,552.70543 c 54.5461,50.4831 133.9661,70.61067 178.0348,133.96124 16.7169,28.70011 60.2125,94.93503 45.2591,21.21969 -15.718,-46.71226 -55.1925,-128.6071 -110.5885,-117.36157 -41.1328,-14.17221 -111.4288,-102.12025 -123.1636,-57.37298 -46.50803,-45.82679 -89.53916,-43.18284 -132.50387,-70.24919 -92.46056,-30.1793 -193.59029,-47.79968 -288.33898,-15.54273 -78.78562,24.78892 -160.08538,68.73623 -195.36452,146.78915 4.03109,55.30687 14.10163,59.24756 3.38704,95.6428 21.942,22.41982 26.9751,105.39032 10.48833,67.678 -59.56271,11.94075 -137.06252,34.86729 -175.76661,65.43007 -17.92044,50.59922 79.20612,-22.39249 112.54608,-18.08643 68.48713,-9.19425 133.56965,-38.79121 203.1223,-38.81348 -8.48727,-67.97247 28.30907,-132.34705 77.89731,-175.62855 70.75819,-25.48208 153.14121,20.30785 201.51584,72.81116 26.50026,77.00473 98.44527,61.00497 165.16638,65.34607 55.8731,4.6697 87.1491,16.1412 115.1329,54.14402 21.5325,103.02787 -0.1794,208.75352 8.7165,312.7619 -16.4829,68.9235 57.5004,-75.6497 77.8532,10.4926 0.6585,45.1799 45.0923,120.4894 69.1502,175.599 14.7527,52.3501 15.4853,14.4135 15.4738,-17.6395 z m -1053.48153,32.5681 c 7.95911,-19.8643 4.09501,-137.0476 -13.41808,-74.4548 0.7283,19.4923 5.88678,78.116 13.41808,74.4548 z m 11.2899,-13.2709 c -11.61616,-38.077 7.61362,47.4095 0,0 z m 877.57243,-7.2192 c 5.9742,-82.0002 -15.499,50.123 0,0 z m -904.06853,3.702 c -44.43659,-54.9793 67.34117,-121.9912 -12.50872,-145.0213 -58.0883,40.131 -14.98013,112.9816 12.50872,145.0213 z m 45.49946,-45.9 c -4.85766,-6.1022 3.61913,9.8375 0,0 z m -2.66667,-6.6667 c -4.85766,-6.1021 3.61917,9.8375 0,0 z M 1134.5289,1197 c -1.7368,-23.5964 -2.0553,28.0004 0,0 z m -7.8694,-37 c 27.5683,-20.4338 14.7883,-127.1103 7.1226,-45.3534 -0.8496,6.6433 -18.285,84.7651 -7.1226,45.3534 z m -813.17151,-18.0613 c -4.30625,-30.4625 -15.79502,26.0627 0,0 z M 345.47931,1109 c 9.66875,-13.7393 -12.42589,13.3178 0,0 z m -10.4516,-7.8757 c -29.25202,-13.2103 18.26378,18.5964 0,0 z m 89.63896,-55.791 c -4.78453,-5.0762 -1.65561,5.2565 0,0 z M 830,1040 c 6.82105,-9.5365 -9.95015,9.6968 0,0 z m 17.17541,-26.0693 c -1.32177,-4.9038 -2.74413,6.788 0,0 z m 182.15789,-3.2828 c -12.2905,-13.54729 -8.5177,14.9311 0,0 z m -154.56558,-5.5034 c -3.98438,-4.7145 -13.45302,17.027 0,0 z m 48.87064,2.0494 c -12.34552,2.2617 -0.58837,4.0036 0,0 z m 317.69494,2.753 c -38.7746,-14.04248 -60.0255,-131.34597 -65.493,-43.86185 -17.6377,49.64295 35.6432,41.79675 65.493,43.86185 z m -353.87329,-7.4866 c 8.98028,-9.74607 -13.44772,9.8382 0,0 z m 119.20669,-1.1874 c 3.7649,-8.07745 -24.57677,2.6968 -7.79109,2.0485 z m -54.35441,-13.35863 c 8.39131,-10.91227 -18.05285,15.03043 0,0 z m 7.75802,0.56748 c 3.58739,-13.10416 -13.79215,13.48875 0,0 z m 12.58692,0.86685 c -3.37437,-2.4384 -5.30829,4.29517 0,0 z m 43.22417,-4.14508 c -8.3689,-20.8803 -21.26667,20.82908 0,0 z M 788.06667,930.8622 C 830.47314,927.43424 897.01156,820.02287 826,892.35751 c -37.10461,41.71807 -123.8366,21.97804 -149.06035,16.60633 32.74267,19.09643 73.4195,30.90982 111.12702,21.89836 z m 516.84193,-13.78283 c -15.0005,-61.25834 4.7009,48.01094 0,0 z M 779.18935,909.29588 C 856.21508,892.88984 904.44909,812.13081 879.06663,737.33333 879.20025,674.12077 805.31903,631.89258 768,609.37009 715.72971,588.39764 646.61978,582.46173 619.49316,647.98214 c -16.21713,47.9226 -28.20685,106.54096 -12.43252,155.20429 22.34129,73.82265 94.28844,121.65876 172.12871,106.10945 z M 723.71696,768.33333 c -21.51076,-28.51921 43.0682,-38.26734 7.05267,-20.13546 36.24034,-15.57436 11.76998,38.0203 -7.05267,20.13546 z m 16.94971,-5.66666 c -6.1427,-3.81624 -9.38009,5.18212 0,0 z m -15.33334,-98.43426 c 13.85269,-20.51422 5.78478,4.78506 0,0 z M 326.30556,827.19444 c -5.27959,-2.80184 -1.24609,3.00457 0,0 z m -41.74833,-16.41667 c 17.73436,-23.3976 -28.22996,14.09839 0,0 z m 0.44964,-15.31345 c 24.23183,-2.07118 129.29776,-99.95754 104.70391,-78.86739 -25.63927,16.8108 -125.70178,79.80542 -60.77945,27.66334 14.32799,-25.45345 106.09979,-67.52871 81.37726,-73.49795 -42.40695,-10.29537 -101.74344,45.51835 -29.43543,13.6664 -52.69896,6.45405 -95.34779,92.12678 -104.48104,114.60599 l 4.68295,-3.24293 z m -7.62555,-11.34565 c 9.045,-23.42303 57.72212,-76.0756 32.33405,-65.5159 57.04493,-50.07512 -16.53476,-12.57216 -13.12314,-19.17854 23.09907,-28.92678 30.89843,-46.69264 0.91566,-9.28721 -10.41208,12.68269 -48.58563,144.08855 -20.12657,93.98165 z M 896.85892,780 c -7.67148,14.68936 -1.68848,23.73365 0,0 z m -578.96036,10.43293 c 19.07159,-16.93367 -26.53415,10.83226 0,0 z m 807.43474,-5.70566 c -12.1596,-44.94893 -76.9124,-42.22404 -125.1317,-49.95338 -34.56658,-9.79746 -135.32467,-3.36556 -78.78768,33.89712 68.35216,-0.63336 136.56988,5.48265 203.91938,16.05626 z m -779.44587,-13.2305 c 39.38718,-33.89785 129.04757,-6.34648 78.80423,-72.45554 3.55984,-56.87058 -73.75332,36.01271 -93.20499,50.70615 30.46694,-25.09317 120.13871,-73.74544 48.14575,-14.18174 -13.39149,-5.55344 -84.40757,62.23078 -33.74499,35.93113 z m 551.71376,-7.62545 c -9.31297,-85.91595 -5.92051,25.29073 0,0 z m -507.39222,1.32001 c 118.31262,-37.11948 -89.23086,13.66546 0,0 z m 55.85028,-13.28721 c -0.29177,-6.36792 -10.85827,11.01177 0,0 z m 59.70731,-7.45804 c 38.24161,4.19376 73.66064,-48.85947 19.6096,-37.1524 -5.99021,5.43496 -63.19112,60.03142 -19.6096,37.1524 z m 90.268,-38.29263 c -1.20739,-21.87258 -6.95562,62.35844 0,0 z M 890.0502,723 c -5.36453,-16.91663 -1.4469,13.72613 0,0 z M 542.66667,696.02445 c 23.85844,-39.75822 -36.22703,15.21079 0,0 z M 358.42175,676.96416 c 2.96358,-20.97773 -40.11076,42.9117 0,0 z m -16.59566,-2.98073 c 15.08471,-25.42812 36.5071,-68.15412 -1.85497,-21.61661 -7.87391,8.65538 -32.10395,32.19073 1.85497,21.61661 z m -30.7975,-4.3036 C 339.68979,653.73272 426.91535,560.54209 348,611.12245 c -12.93137,0.69951 -54.81096,64.85623 -36.97141,58.55738 z m 43.23237,0.6535 c 16.55678,-33.46229 -12.93437,7.13989 0,0 z m 53.40571,-7.16692 c 39.38475,-9.90577 14.0964,-54.80401 -14.90919,-9.56861 -32.63131,15.06561 -0.43212,11.4255 14.90919,9.56861 z m 93.18736,0.16282 c 59.82606,12.97487 85.09155,-120.66414 21.75109,-54.3991 -11.59499,10.39312 -86.06719,72.85818 -21.75109,54.3991 z M 378.43461,659.5604 c 35.1776,-20.74698 57.65075,-41.36642 5.2526,-14.29215 -10.86504,-0.56618 -26.03995,32.5734 -5.2526,14.29215 z m 0.35791,-42.46223 c 0.68483,-7.98594 -7.58856,12.74957 0,0 z m 7.78076,-12.31898 c -8.61059,2.09278 -23.58501,19.53197 0,0 z M 401.9096,598 c 10.48139,-16.0813 -15.67622,15.25157 0,0 z m 272.75707,-6.23728 c 15.74275,-12.41634 -27.74728,11.73617 0,0 z m 516.38273,-7.25657 C 1139.318,504.77788 1050.472,454.89532 958.12695,437.83022 886.61625,415.78316 810.70209,413.13523 736.55642,416.14561 c -58.74024,12.53721 133.63119,3.49568 86.79514,13.41869 62.28872,12.26494 121.35845,37.0888 182.14854,51.56385 69.244,22.15874 120.7571,79.92677 185.5493,103.378 z m -625.68932,-6.53838 c 4.22135,-9.31709 -9.04656,7.97312 0,0 z m -29.56055,-8.0512 c 36.90736,3.91211 78.25827,-70.11908 18.64761,-32.008 -12.11148,2.95213 -78.33422,44.33107 -18.64761,32.008 z m -24.17898,-14.48146 c 37.87874,-39.9566 -42.2981,24.27389 -4.10228,4.82905 z m 72.42784,1.17326 c 32.82391,-20.48783 83.67945,-53.20346 16.80926,-17.51804 -3.08118,-1.55738 -29.85414,22.14598 -16.80926,17.51804 z m -49.8681,-12.15766 c 26.96901,-10.86538 100.62355,-53.16013 32.16624,-24.49095 -13.36285,-0.56746 -72.20948,48.75994 -32.16624,24.49095 z m 27.15808,-26.45324 c 35.23641,-21.03661 -52.25235,23.15242 0,0 z m 59.99496,-15.24267 c 27.20407,-14.36646 87.89708,-24.8306 21.17691,-11.32151 -18.68969,-3.38153 -61.91023,35.6583 -21.17691,11.32151 z m 26,-18.82435 c 33.04961,-3.90276 107.81848,-25.67379 30.83358,-12.00657 -13.13383,0.49845 -82.0574,28.10323 -30.83358,12.00657 z m -13.49993,-2.5757 c 23.88746,-13.17342 116.90366,-32.49965 37.73387,-19.43335 -11.55498,-4.11508 -76.27039,37.41454 -37.73387,19.43335 z M 1040,1736.8299 c 4.5059,-5.4092 6.3043,-3.6823 0,0 z m 63.5065,-78.2167 c 12.8782,-36.9977 -30.7929,-93.1515 -7.4461,-119.5592 -2.0314,32.3668 37.9043,107.9035 7.4461,119.5592 z m 127.1602,-231.186 c 7.2953,-6.4072 6.9827,-1.1848 0,0 z"
       style="fill:#000000;stroke-width:1.33333"
       id="path309" />
    <path
       d="m 1096.3016,1426.6153 c 3.0103,-73.5723 72.8319,-122.1245 64.9597,-194.9121 -19.5481,-15.8551 -19.4681,-47.5579 -2.6423,-70.8932 51.385,49.8374 16.9984,96.4044 24.0877,161.0392 19.6296,50.7647 -16.2758,104.5061 -67.2835,93.1083 l -12.6248,8.9765 -6.4967,2.6813 z"
       style="fill:#6c5353;stroke-width:2.39683"
       id="path319" />
    <path
       d="m 1203.0584,1189.9043 c -23.6745,-20.2838 -68.4821,-98.2211 -5.2764,-98.0492 31.729,13.6424 5.8124,107.1955 5.2764,98.0492 z"
       style="fill:#6c5353;stroke-width:2.39683"
       id="path321" />
    <path
       d="m 227.97746,1244.5461 c -68.41305,-41.9561 38.977,-165.3712 27.03841,-61.5366 -24.68839,9.9762 -14.52702,58.3998 -27.03841,61.5366 z"
       style="fill:#6c5353;stroke-width:2.39683"
       id="path323" />
    <path
       d="m 265.0219,1414.7262 c -35.78433,-26.1814 2.97726,-154.6565 3.91768,-57.6744 -0.88859,9.768 16.012,74.2058 -3.91768,57.6744 z"
       style="fill:#6c5353;stroke-width:2.39683"
       id="path325" />
    <path
       d="m 253.12433,1249.1042 c -12.16641,-39.3766 10.69378,-62.9564 9.01177,-8.4739 1.67598,3.2441 -6.06142,38.6545 -9.01177,8.4739 z"
       style="fill:#6c5353;stroke-width:2.39683"
       id="path327" />
    <path
       d="m 886.30616,1118.7862 c 11.17228,-44.9628 57.47113,-2.3542 0,0 z"
       style="fill:#6c5353;stroke-width:0.847406"
       id="path329" />
    <path
       d="m 970.37442,1126.7564 c -48.74301,-19.4767 32.47608,-9.0148 0,0 z"
       style="fill:#6c5353;stroke-width:0.847406"
       id="path331" />
    <path
       d="m 1005.7536,1147.0935 c -27.09318,-11.615 -32.98156,-25.0829 4.1973,-9.2699 8.9416,3.8804 -0.045,6.0647 -4.1973,9.2699 z"
       style="fill:#6c5353;stroke-width:0.847406"
       id="path333" />
    <path
       d="m 943.46929,1116.4327 c -31.11586,-12.1638 27.94585,-12.1296 0,0 z"
       style="fill:#6c5353;stroke-width:0.847406"
       id="path335" />
    <path
       d="m 919.12574,1113.2948 c 5.87624,-17.5196 12.55403,0.019 0,0 z"
       style="fill:#6c5353;stroke-width:0.847406"
       id="path337" />
    <path
       d="m 390.08558,1207.2569 c -44.42831,-26.7486 -16.82474,-28.3895 13.26369,-4.4041 -2.56029,4.3252 -8.206,6.9904 -13.26369,4.4041 z"
       style="fill:#6c5353;stroke-width:0.847406"
       id="path341" />
    <path
       d="m 438.33652,1172.9729 c -41.70737,-31.4006 25.11216,-64.196 0,0 z m 0.34062,-31.2332 c -1.06691,-9.5809 -16.71087,8.5717 0,0 z"
       style="fill:#6c5353;stroke-width:0.847406"
       id="path343" />
    <path
       d="m 460.94775,1152.7051 c -12.05726,-56.2485 49.88117,-23.0213 0,0 z"
       style="fill:#6c5353;stroke-width:0.847406"
       id="path345" />
    <path
       d="m 495.0768,1134.6226 c -3.75417,-54.4137 47.28742,5.7688 0,0 z"
       style="fill:#6c5353;stroke-width:0.847406"
       id="path347" />
    <path
       d="m 397.01653,1624.8233 c -25.85741,-22.3668 -47.78195,-97.0812 -25.3294,-108.6778 23.16942,29.7214 31.06642,90.0899 25.3294,108.6778 z"
       style="fill:#6c5353;stroke-width:1.69481"
       id="path349" />
    <path
       d="m 358.71076,1504.1749 c -26.53029,-25.1731 -33.57008,-73.5961 -2.67064,-17.3177 5.6842,1.1563 22.72082,38.5647 2.67064,17.3177 z"
       style="fill:#6c5353;stroke-width:1.69481"
       id="path351" />
    <path
       d="m 346.19279,1431.7998 c -29.67314,-45.6697 1.82636,-45.2757 5.48503,4.9314 1.09545,12.3846 -3.2907,-1.5316 -5.48503,-4.9314 z"
       style="fill:#6c5353;stroke-width:0.847406"
       id="path353" />
    <path
       id="path355"
       d=""
       style="fill:#6c5353;stroke-width:0.847406" />
    <path
       d="m 1091.9341,1341.0997 c -21.9105,-19.0708 36.4139,-87.1472 7.6156,-22.8821 -4.5919,1.1758 -2.4672,42.3788 -7.6156,22.8821 z"
       style="fill:#6c5353;stroke-width:0.847406"
       id="path357" />
    <path
       d="m 1065.8918,1447.8884 c 4.6368,-31.582 46.1351,-130.0928 24.9746,-45.6123 -11.609,13.6352 -10.4149,34.7886 -24.9746,45.6123 z"
       style="fill:#6c5353;stroke-width:0.847406"
       id="path359" />
    <path
       d="m 954.45409,1681.4211 c -0.39077,-19.2089 53.75611,-85.8091 41.37843,-57.8355 -5.98673,22.1013 -28.5799,46.4868 -41.37843,57.8355 z"
       style="fill:#6c5353;stroke-width:0.847406"
       id="path361" />
    <path
       id="path363"
       d=""
       style="fill:#6c5353;stroke-width:0.847406" />
    <path
       d="m 908.16029,1764.9683 c -1.39927,68.9451 52.89201,15.5696 21.35506,-22.6101 -39.20197,-57.2936 -20.97655,96.9257 8.96114,49.649 -2.67231,-21.456 -2.70259,-45.7237 -30.3162,-27.0389 z"
       style="fill:#241c1c"
       id="path374" />
    <path
       d="m 1121.1667,2003.6094 c 4.5413,-85.0574 22.5171,-172.9521 5.5585,-259.0622 -29.3248,-62.2307 -6.1416,-102.4322 -22.5424,-165.2442 -0.018,-41.0937 -25.5336,-55.3377 -12.7369,-3.6784 11.0843,38.058 22.797,103.2395 -14.5454,55.3322 12.4573,70.0355 17.0757,151.5494 5.6909,226.0342 -2.4974,43.385 -20.6626,130.8845 -46.3539,146.9058 -6.1881,-47.4325 5.1252,-96.1361 -11.4748,-142.417 -7.6596,-41.1742 -6.9475,-165.5235 -56.70961,-145.1353 -6.19957,86.2786 -27.27873,174.3961 -0.63366,259.3156 -38.35859,83.0956 -69.61876,-26.6827 -44.0719,-68.5949 10e-4,-61.7736 26.766,-117.6664 3.93974,-177.0423 29.47541,-12.7148 124.34323,-98.6206 67.86931,-54.404 -28.24318,26.1166 -116.25893,79.1712 -40.66717,21.1032 24.9115,-23.7784 64.22379,-123.805 77.13909,-35.5974 23.1982,40.8279 8.6837,154.0349 41.4749,157.6023 -18.7475,-71.5941 -12.5204,-152.702 -55.1238,-216.2805 48.2949,-46.5343 36.732,-151.8775 102.0982,-170.5612 90.4257,2.1894 32.5191,143.6738 72.7932,178.0252 -10.6811,-61.7618 6.19,-138.2346 -35.8224,-188.7535 77.0132,-44.1888 15.0312,-135.6262 50.5781,-200.4063 13.9382,-35.5955 15.1241,-112.9729 32.7991,-31.5425 34.0327,41.329 51.1734,142.0373 79.7323,152.8017 6.1038,-71.7716 4.8229,-143.6691 -8.6997,-214.1815 51.2197,140.4612 10.3959,291.1737 -15.2027,432.4654 -27.3982,96.1642 -14.6023,-52.0811 -6.9553,-79.6274 7.0775,-71.6714 -13.7497,-143.8889 -65.1366,-195.3441 -25.6615,34.8892 -8.4285,100.0642 -6.6308,144.5164 1.4761,70.5171 10.5372,139.8261 33.6356,206.6697 25.6218,62.5617 -0.7175,130.936 -5.4579,195.314 -5.8448,-15.9711 -11.9827,-108.1396 -34.7694,-142.6645 -17.6326,-41.9366 -64.1125,-167.7353 -95.1707,-148.4225 21.0411,107.1048 36.6268,215.2487 55.7787,322.7741 5.7177,45.5681 -22.0038,131.3218 -50.3826,140.0999 z m -78.1331,-267.6491 c 1.686,-9.0906 -7.8926,7.2872 0,0 z"
       style="fill:#241c1c;stroke-width:1.69481"
       id="path376" />
    <path
       d="m 1304.1494,1292.8799 c -19.2839,-65.5592 -76.873,-120.4865 -69.1321,-192.5494 -19.2417,-17.5359 -70.7181,-33.1308 -82.2358,13.7103 -8.846,-109.5903 10.5305,-219.97866 -7.7436,-329.01423 -31.4737,-60.8446 -113.5998,-55.81282 -177.55063,-60.44256 -82.11725,20.44969 -93.40134,-81.19008 -160.19163,-108.32201 -54.6658,-33.12237 -147.96561,-62.47314 -182.50506,13.03048 -49.06414,30.48869 -22.81373,115.63418 -55.57738,137.05373 -77.24212,6.7259 -152.30516,31.78525 -227.84196,48.91726 -26.5049,10.89848 -116.85291,47.42109 -57.80882,1.33282 37.75076,-29.90719 139.44994,-66.07936 161.35769,-45.85873 25.46874,-23.69508 4.35512,-126.58986 -8.68005,-114.25938 -21.52754,-59.30724 22.35493,-123.78884 76.87889,-155.781 108.08703,-72.55534 249.86819,-90.00175 371.93083,-43.79486 59.65836,23.00334 110.24057,32.88887 162.26552,77.54943 15.9256,-47.21048 84.8672,56.26198 131.5902,58.95544 41.2211,-9.61405 66.5606,56.32428 90.0108,85.10354 18.0286,29.36333 15.7396,97.23248 -13.732,37.55706 -36.0778,-73.04511 -115.1742,-101.30119 -175.782,-147.78304 -30.6898,-23.79488 -70.7427,-37.33345 -107.07556,-48.52943 -30.96612,4.45178 -142.26729,-13.5167 -122.42847,22.37895 101.43067,20.94271 202.76893,53.36329 284.45833,119.49642 70.1392,51.05524 134.4235,113.35876 184.4198,184.11176 40.8561,72.45325 45.899,159.92685 31.4169,240.20585 -20.8603,40.9124 -31.4658,-74.681 -53.8231,-92.40296 -15.09,-55.5145 -91.4668,-98.11178 -109.2405,-111.27622 -15.9309,-58.58803 9.9373,-115.44427 61.8375,-51.86095 43.32,19.63287 34.3627,145.99763 67.9701,121.00031 6.0776,-101.04944 -86.6794,-167.82611 -169.0151,-204.39881 -67.9437,-37.26956 -138.1529,-73.44305 -215.12111,-87.56615 63.68408,9.76822 70.31581,-49.04366 12.43858,-69.00457 -71.63141,-41.15338 -156.95244,-36.26963 -233.12842,-61.68324 59.42712,-36.14138 170.7563,10.24536 205.51634,-39.79421 -59.86527,-37.57083 -134.26472,-29.50878 -200.67334,-40.4785 -70.85997,1.39611 -123.22195,52.9369 -184.31704,81.08312 -34.42116,10.47883 -72.14194,79.26698 -29.1597,45.0067 25.52055,19.33576 100.18034,-34.54294 36.97472,12.49709 -13.26623,5.87836 -167.83003,109.74373 -95.99785,64.32383 30.39919,-10.25235 105.56241,-72.75229 45.29747,-16.9658 -19.95861,10.50509 -38.7615,52.60452 1.50112,39.613 -93.48053,72.22305 105.47581,-74.64857 43.875,9.83257 -20.79226,24.01645 -110.77224,61.63016 -33.5935,31.05995 30.76044,-14.62821 -59.39813,67.6966 -0.24176,37.46917 28.72863,-11.08688 79.63489,-25.08694 63.73554,-53.55418 48.29814,-16.6625 -41.54227,5.60992 -5.28789,-41.06969 15.41134,-32.15559 63.0215,-50.79868 3.31201,-23.89545 -26.30631,-68.03451 83.35009,-43.99067 81.00744,-68.95995 -27.23292,8.93633 -105.10636,22.08688 -41.72161,-15.40379 32.43005,-14.10864 85.93927,-58.85199 19.07245,-26.97433 -77.04696,34.42429 37.55307,-43.11185 74.47307,-35.44104 82.31552,-8.38962 11.13179,7.91782 24.9344,-16.86845 43.09153,-19.93052 99.48674,2.74669 145.75715,9.03295 49.54358,10.567 41.63843,28.65556 -6.15579,22.627 -44.76822,5.8117 -151.06864,-7.28339 -151.84681,39.30774 78.78738,0.57694 112.63696,50.76662 183.92197,79.36965 85.89062,14.67353 -62.53937,-32.68521 -77.65419,-57.11048 47.8955,1.87758 173.7682,39.8543 150.76633,83.08049 -38.99979,-8.80778 -87.3113,22.49139 -20.94201,26.95377 91.29253,20.84019 171.19593,71.72131 253.49803,114.19213 -46.0057,53.22853 -10.9078,143.27016 -33.1164,210.68161 47.1903,25.55429 129.3447,31.49939 128.6403,113.85129 15.6712,64.6341 24.7219,131.1247 17.0563,197.6061 -2.1979,-5.6493 -4.3956,-11.2989 -6.5936,-16.9481 z"
       style="fill:#241c1c;stroke-width:1.69481"
       id="path378" />
    <path
       id="path380"
       d=""
       style="fill:#241c1c;stroke-width:1.69481" />
    <path
       d="M 1171.4145,579.45748 C 1115.8841,537.54418 1056.6338,500.05311 991.37974,474.49701 904.54938,455.7154 820.63292,415.16415 729.28187,420.66648 c 44.6996,-9.87982 123.94011,-3.6277 179.8455,6.15296 91.81853,17.97592 186.93783,46.51638 250.30443,119.93334 4.8478,8.81709 56.4319,49.77802 11.9827,32.7047 z"
       style="fill:#241c1c;stroke-width:1.69481"
       id="path382" />
    <path
       d="m 1206.5132,1007.3839 c -59.4573,13.2429 -20.3458,-132.32077 -6.3627,-42.12522 12.684,22.96483 66.3134,55.81382 6.3627,42.12522 z"
       style="fill:#241c1c;stroke-width:1.69481"
       id="path384" />
    <path
       d="m 302.33125,1972.2379 c -66.20458,-39.2368 -12.68407,-141.7207 -8.19696,-203.6101 5.87337,-31.6244 61.37961,-115.6314 14.94818,-116.0712 -51.2098,86.6743 -43.67021,192.5424 -74.72122,285.5593 -42.39671,69.2488 -74.69942,-23.6571 -39.65778,-61.47 23.04248,-28.5149 23.78616,-178.7642 -14.28558,-89.0601 -2.80505,39.6623 -48.16778,169.732 -45.42116,62.9403 -2.85451,-115.6671 52.20352,-222.1532 56.874,-337.1468 6.27433,-45.0434 31.10802,-143.9462 46.12969,-149.3726 -15.86743,48.5518 44.49724,88.9431 43.75105,73.3559 10.69639,76.2793 52.57907,143.1935 100.17843,201.8812 -64.38401,-20.4744 68.30349,71.8787 92.01607,92.3567 46.04944,26.5745 -47.91071,76.9763 -13.24315,124.979 25.56631,58.738 -40.57185,175.0315 -65.9093,62.6805 -19.80343,-73.4777 11.90809,-147.5614 8.1282,-222.1564 -9.3622,-13.6274 -51.23384,87.0669 -47.54472,121.3691 -14.40228,43.1205 16.46547,160.1744 -53.04575,153.7652 z"
       style="fill:#241c1c;stroke-width:1.69481"
       id="path386" />
    <path
       d="m 89.703563,1722.6476 c -36.532792,-109.7418 18.994087,-219.596 48.719937,-323.9337 39.15726,-67.4291 -41.19609,-89.0171 -8.17717,-164.2731 36.75204,-91.2218 62.3305,-187.4157 106.67431,-275.31667 -13.67856,68.39917 58.60566,165.49247 -23.31968,187.72777 -49.79956,44.0302 13.85466,101.3651 7.35813,138.8052 -38.89741,70.9436 -29.10309,158.1988 -54.41702,234.5559 -20.3466,66.0413 -36.81841,134.358 -64.85143,197.3196 0.40026,0.4276 -9.763446,12.2598 -11.987077,5.115 z"
       style="fill:#241c1c;stroke-width:1.69481"
       id="path388" />
    <path
       d="m 67.689845,1539.475 c -23.351104,-79.0224 -3.755391,-159.2869 4.234629,-238.9685 2.858348,-96.9683 19.602508,-193.1046 59.161146,-282.1861 17.62109,-26.3818 17.52033,-92.2889 -14.27591,-33.33803 C 84.968665,1030.946 79.856904,1134.0613 44.032206,1150.2252 28.925486,1070.4036 80.376956,993.79155 112.03989,922.79998 156.4304,830.70268 196.82267,734.53155 265.27187,656.98713 213.424,713.73618 160.0091,774.44905 126.195,843.75485 123.54855,876.40709 62.107922,958.81718 95.697643,878.82128 112.23653,803.96987 131.0926,728.74931 184.32396,668.15272 c 21.30845,-48.38198 81.45821,-69.03048 117.98752,-85.09789 -32.23123,-13.93068 -130.48563,78.34086 -65.47204,13.27371 37.83715,-43.60294 116.01653,-44.99667 151.92719,-11.3934 -81.49814,23.44593 -106.32429,115.8612 -133.03496,186.06291 -27.74736,74.0449 -2.46578,157.16281 -46.23978,226.01138 -31.43183,82.04887 -61.63748,164.62607 -90.98399,247.35837 -13.20346,34.1897 3.87639,69.8063 1.77063,103.3815 -36.663072,54.8962 -35.594718,149.2974 -52.523907,195.0448 z M 155.03259,973.78272 c 5.75846,-35.14966 81.03558,-131.0526 19.07508,-54.60876 -8.82692,1.51734 -45.2247,81.09434 -19.07508,54.60876 z"
       style="fill:#241c1c;stroke-width:1.69481"
       id="path390" />
    <path
       d="m 329.78772,774.39998 c 8.92742,-22.1195 103.07394,-65.25757 72.32794,-70.30071 -32.4207,20.6168 -99.55379,62.86398 -33.77817,11.34509 32.17347,-22.09524 60.93252,-61.72233 62.27777,-0.47818 45.93133,46.90194 -83.09018,32.70041 -100.82754,59.4338 z"
       style="fill:#241c1c;stroke-width:1.69481"
       id="path392" />
    <path
       d="m 268.49345,786.55496 c 11.58051,-54.46359 16.53542,-81.76745 57.70779,-102.94448 15.73804,-0.42751 -16.84039,47.96077 -13.5695,42.97978 -11.73532,9.15413 -38.86317,74.95927 -44.13829,59.9647 z"
       style="fill:#241c1c;stroke-width:1.69481"
       id="path394" />
    <path
       d="m 478.07159,665.41189 c 3.62422,-36.20358 115.23094,-124.02725 73.9377,-28.94296 -13.43351,19.03907 -50.56186,27.64787 -73.9377,28.94296 z"
       style="fill:#241c1c;stroke-width:0.847406"
       id="path396" />
    <path
       d="m 478.07159,665.41189 c 3.62422,-36.20358 115.23094,-124.02725 73.9377,-28.94296 -13.43351,19.03907 -50.56186,27.64787 -73.9377,28.94296 z"
       style="fill:#241c1c;stroke-width:0.847406"
       id="path398" />
    <path
       d="m 488.87601,749.488 c 1.61689,-37.40065 88.31057,-60.77819 55.76454,-20.82524 -19.04842,5.14858 -36.78513,16.79828 -55.76454,20.82524 z"
       style="fill:#241c1c;stroke-width:0.847406"
       id="path400" />
    <path
       d="m 515.34243,570.7838 c 3.06404,-33.96922 119.36457,-61.43443 44.1766,-10.98335 -13.29957,5.17492 -29.28128,15.63185 -44.1766,10.98335 z"
       style="fill:#241c1c;stroke-width:0.847406"
       id="path402" />
    <path
       d="m 304.98896,671.58407 c -3.89694,-45.28634 123.88429,-111.90622 53.73656,-45.59715 -16.02902,16.94713 -32.25568,35.62543 -53.73656,45.59715 z"
       style="fill:#241c1c;stroke-width:0.847406"
       id="path404" />
    <path
       d="m 276.17717,798.22026 c 6.60409,-47.25192 104.455,-124.20778 94.4245,-112.08632 -90.65343,23.80204 97.81537,-48.82536 31.11005,0.28576 -36.0082,23.67883 -72.76256,55.21407 -101.94551,82.36696 23.05651,-7.75537 139.73477,-81.0679 66.26338,-33.80022 -33.39357,15.5613 -50.04356,65.00479 -89.85242,63.23382 z"
       style="fill:#241c1c;stroke-width:0.847406"
       id="path406" />
    <path
       d="m 527.81349,1714.4403 c -17.03477,-19.3252 -98.34004,-78.0697 -83.08917,-82.6153 17.40243,39.4398 94.57292,66.1834 38.98978,19.4211 -22.42778,-25.7545 -63.63213,-63.396 -16.25693,-54.9507 -34.7905,-32.6219 -43.22245,-31.6227 2.17018,-22.4859 54.27574,9.5131 -60.77263,-98.8445 -54.13593,-75.6154 -37.10596,-55.654 42.56182,42.7994 63.09046,57.1849 76.21402,37.2897 -51.51039,-57.8793 -65.18622,-88.1829 -41.50993,-54.3878 103.00026,100.6143 63.10717,55.2538 32.96544,29.6206 62.88915,22.6867 33.57775,1.955 9.75453,-26.9302 -136.0723,-95.6309 -46.04174,-60.9979 37.6168,23.8737 71.2428,3.5907 12.68601,-8.043 -98.54561,-30.8715 119.87685,17.5664 18.81073,-14.1471 -33.83816,-2.8739 -119.19792,-41.8249 -39.05285,-27.4033 34.66017,10.8236 140.09157,-6.4788 48.0959,-7.3835 -30.13597,0.1384 -114.92021,-9.2642 -36.27405,-6.658 37.63223,6.8833 87.41098,-13.4074 18.9357,-10.0156 -31.15809,3.3521 -109.40324,-6.4136 -32.46323,-13.3392 96.96599,-17.5027 194.24663,-34.5871 293.27505,-32.4099 94.06745,-1.0817 189.4193,-4.5466 282.3304,11.4289 98.9111,-35.4651 10.7214,102.5214 7.076,148.0529 -28.4068,72.8728 -65.70665,145.0757 -127.57154,195.218 -122.28406,21.6661 -247.58184,5.0082 -370.3949,16.2098 4.75086,11.7735 -20.31785,4.4784 -11.67857,-0.4767 z m 302.17752,-65.4934 c -46.4028,-3.5479 -129.51722,-42.3508 -190.56399,-23.5627 -30.72847,2.229 -156.19941,29.0258 -60.85701,19.4468 72.53063,-27.7583 139.44753,-6.8039 210.95589,6.3576 13.44273,0.3463 27.42435,2.1665 40.46511,-2.2417 z m -289.49487,-11.6831 c -1.76368,-22.8347 -95.49926,-15.7382 -17.76416,1.4353 l 10.56121,1.8996 z m 26.95491,-10.9008 c -5.7471,-23.0264 -42.63329,15.4558 0,0 z m 368.48219,-23.0732 c -8.59427,-25.0808 -160.27587,-14.8147 -55.78947,-3.246 18.48047,-3.0266 38.88405,10.5879 55.78947,3.246 z m -276.11496,-81.9796 c 50.88522,0.7547 172.41856,6.7254 179.02126,-15.2423 -72.64865,21.1926 -159.95076,-16.4876 -223.93377,22.8235 15.29148,-6.5486 28.18092,-10.9284 44.91251,-7.5812 z m 326.67491,-30.3492 c -8.65728,-23.0401 -119.31468,-12.3815 -38.3328,-0.5383 12.42063,3.4685 25.81648,3.719 38.3328,0.5383 z m -352.36156,-13.1846 c 59.64759,-17.1304 -90.94271,-17.3916 -76.66974,-11.8066 16.01698,18.7117 53.01738,14.8919 76.66974,11.8066 z m 8.73853,-62.365 c 70.8436,-12.4377 140.64117,-24.5236 212.22801,-8.2225 32.86607,7.2842 86.04015,-36.6295 21.64306,-9.9093 -79.87501,-13.5204 -157.33191,-4.444 -236.39395,8.9461 -41.28926,-4.0061 -122.5193,18.3479 -40.59749,11.3805 14.37883,-0.6185 28.7553,-1.308 43.12037,-2.1948 z"
       style="fill:#00ffff;stroke-width:1.69481"
       id="path410" />
    <path
       d="m 467.8948,1684.395 c -43.29474,-15.8679 -55.79512,-52.0204 -57.64599,-105.6195 21.92259,42.427 24.06585,82.6384 70.96239,115.4233 z"
       style="fill:#00ffff;stroke-width:1.69481"
       id="path412" />
    <path
       d="m 895.78725,1196.0005 c -75.45357,-25.9718 60.11134,-80.0941 3.11208,-32.5714 -50.4406,60.9941 82.7802,-9.6348 9.59901,-3.5162 62.11946,-41.6877 22.88827,47.2294 -12.71109,36.0876 z"
       style="fill:#2b1100;stroke-width:0.847406"
       id="path414" />
    <path
       d="m 491.06601,1207.5279 c -23.8787,-28.8675 28.42027,-63.7502 1.27813,-25.5782 45.18063,-42.6215 14.86522,21.9587 -1.27813,25.5782 z"
       style="fill:#2b1100;stroke-width:0.847406"
       id="path416" />
    <path
       d="m 511.7006,1205.6803 c 3.29903,-38.0224 55.7337,-8.0263 0,0 z"
       style="fill:#2b1100;stroke-width:0.847406"
       id="path418" />
    <path
       d="m 535.65264,1166.89 c -25.19971,-12.9203 -54.49144,-22.9351 -0.4832,-10.1618 12.55034,6.5115 12.26967,11.3805 0.4832,10.1618 z"
       style="fill:#2b1100;stroke-width:0.423703"
       id="path420" />
    <path
       d="m 525.28933,1226.0025 c 47.80113,-56.3376 24.7736,12.3691 0,0 z"
       style="fill:#2b1100;stroke-width:0.423703"
       id="path422" />
    <path
       d="m 527.17858,1219.3945 c 23.7209,-38.1684 44.19125,-44.9323 6.60389,-4.3564 z"
       style="fill:#2b1100;stroke-width:0.423703"
       id="path424" />
    <path
       d="m 520.01018,1216.8083 c 23.80318,-32.0991 37.94417,-29.7841 0,0 z"
       style="fill:#2b1100;stroke-width:0.423703"
       id="path426" />
    <path
       d="m 908.59201,1205.5661 c 7.4543,-11.1004 61.46357,-60.9105 26.82157,-10.863 -9.00251,1.7637 -16.89257,13.6345 -26.82157,10.863 z"
       style="fill:#2b1100;stroke-width:0.423703"
       id="path428" />
    <path
       d="m 920.40459,1208.084 c 50.04602,-41.1481 24.47772,2.8021 0,0 z"
       style="fill:#2b1100;stroke-width:0.423703"
       id="path430" />
    <path
       d="m 1108.2289,782.19431 c -64.5362,-16.43126 -143.70486,-5.40174 -200.92892,-21.15017 -15.97212,-54.7547 67.75005,-14.2208 95.48362,-25.21676 41.5048,7.76264 106.6688,5.08001 115.5022,41.6498 18.3947,8.90871 -12.0872,9.00037 -10.0569,4.71713 z"
       style="fill:#0000ff;stroke-width:1.19841"
       id="path432" />
    <path
       d="m 254.27238,892.6403 c -5.34699,-68.49451 102.29803,-57.41641 159.61438,-85.216 47.04918,-3.57095 170.88805,-69.36424 170.17396,-10.18025 -106.67671,7.82859 -211.56338,39.18343 -306.72591,87.24534 -3.23294,-5.56999 -28.0475,29.28693 -23.06243,8.15091 z"
       style="fill:#0000ff;stroke-width:1.19841"
       id="path434" />
    <path
       d="m 378.25261,663.66423 c 21.95711,-16.81905 65.04057,-49.42385 43.06561,-1.92958 -9.13787,-1.2644 -40.4589,5.93094 -43.06561,1.92958 z"
       style="fill:#241c1c;fill-opacity:1;stroke-width:0.599206"
       id="path445" />
    <path
       d="m 329.5671,674.00802 c -0.53011,-22.98819 61.62211,-70.6948 16.13364,-8.0721 -0.50172,7.8819 -9.73961,12.04614 -16.13364,8.0721 z"
       style="fill:#241c1c;fill-opacity:1;stroke-width:0.599206"
       id="path447" />
    <path
       d="m 725.8271,910.1701 c -63.62728,-8.57001 -104.83964,-61.91499 -123.41633,-118.62859 -3.35833,-65.55212 -2.54932,-151.30314 59.04955,-189.98293 55.41057,-17.25812 97.57652,5.51415 146.94406,32.43364 41.19695,19.44615 62.78445,60.18933 54.29428,103.97849 0.004,39.45767 0.008,78.91533 0.0114,118.373 -35.09094,39.3509 -83.82561,61.69061 -136.88299,53.82639 z m 11.78054,-140.29597 c 33.47542,-28.62928 -24.46736,-18.37102 3.2058,-32.46534 -21.37526,-7.8673 -37.1177,44.24327 -3.2058,32.46534 z m -8.67506,-105.72974 c 13.61354,-14.6036 -11.82998,3.32722 0,0 z"
       style="fill:#e3dbdb;fill-opacity:1;stroke-width:0.599206"
       id="path449" />
    <path
       d="m 472.03691,1225.7958 c -38.67927,-1.7801 -97.63787,-10.455 -35.88593,-37.7287 20.07224,-21.2428 87.1102,-64.0999 38.57229,-7.6486 -21.76457,11.6667 15.91357,52.6463 -2.68636,45.3773 z"
       style="fill:#ffffff;fill-opacity:1;stroke-width:0.299603"
       id="path451" />
    <path
       d="m 533.75517,1234.284 c 50.50461,-8.5762 10.6913,-111.6551 60.61521,-49.9619 62.82865,48.7992 -38.23279,37.8514 -60.61521,49.9619 z"
       style="fill:#ffffff;fill-opacity:1;stroke-width:0.299603"
       id="path453" />
    <path
       d="m 904.35789,1220.126 c -37.7782,-12.112 -146.06981,-17.2936 -64.38175,-54.5582 31.30542,-22.8608 18.45777,74.1072 76.69168,51.3024 59.37592,-7.2889 38.60354,-68.0637 38.74139,-80.8265 34.38135,16.5055 95.12249,72.8264 22.82911,76.0713 -24.46259,4.259 -48.86798,9.4016 -73.88043,8.011 z"
       style="fill:#ffffff;fill-opacity:1;stroke-width:0.299603"
       id="path455" />
    <path
       d="m 904.35789,1220.126 c -41.75568,-12.1171 -148.53072,-19.2809 -59.2013,-57.4306 22.85332,-9.738 15.58834,72.208 68.08522,54.4333 62.3564,-2.6951 42.53253,-70.5402 42.12609,-81.1278 47.4958,19.9185 91.1565,80.8882 9.21232,78.4251 -19.81633,4.0852 -39.95091,6.5061 -60.22233,5.7 z"
       style="fill:#ffffff;fill-opacity:1;stroke-width:0.299603"
       id="path457" />
    <path
       id="path558"
       d="m 669.55311,1339.2229 c -1.43612,-0.7403 -3.26815,-2.9323 -4.0712,-4.871 -1.62774,-3.9297 -0.27982,-10.2329 8.02581,-37.5302 3.73139,-12.2636 4.4326,-16.4101 4.76262,-28.1627 0.21284,-7.5799 0.73755,-19.7139 1.16602,-26.9643 1.83837,-31.1083 -6.22973,-63.4503 -24.52529,-98.3129 -9.30024,-17.7218 -17.93515,-31.3598 -42.84381,-67.6672 -11.53092,-16.8078 -22.66234,-33.7396 -24.7365,-37.6262 -7.67772,-14.3869 -27.68194,-30.9439 -49.70134,-41.13659 -9.85439,-4.56154 -31.63586,-12.31661 -34.59334,-12.31661 -2.36894,0 -5.46403,7.68177 -4.55476,11.30456 0.39969,1.59251 2.58415,5.06544 4.85436,7.71774 l 4.12763,4.8222 -3.93525,0.6161 c -2.16439,0.3388 -11.48525,0.8244 -20.71303,1.0791 -20.4558,0.5646 -28.46803,2.9427 -50.93254,15.1172 -8.23909,4.4652 -18.75516,9.6638 -23.36905,11.5526 -4.61389,1.8888 -8.87872,4.2315 -9.4774,5.206 -3.70262,6.027 -12.47903,13.288 -24.95106,20.6427 -16.4752,9.7154 -21.42854,13.7687 -25.66925,21.0049 -2.96643,5.0618 -3.24439,5.2265 -7.44427,4.4106 -6.90087,-1.3406 -19.68664,-1.0041 -22.62442,0.5954 -4.13897,2.2535 -4.48205,6.5727 -1.59628,20.0966 1.45659,6.8263 2.30921,12.9601 1.89471,13.6308 -0.4145,0.6706 -3.33733,1.2194 -6.49517,1.2194 -13.78637,0 -26.44834,-17.0726 -38.21888,-51.5318 -11.50493,-33.6816 -18.01347,-68.2381 -19.07286,-101.26584 -1.53103,-47.73132 -1.26855,-56.77562 1.84793,-63.67458 3.38548,-7.49444 7.64624,-11.64896 13.98949,-13.64066 5.86288,-1.84087 11.32635,-4.51269 24.56746,-12.01432 16.38555,-9.28306 69.21332,-29.22964 111.03402,-41.92394 53.30981,-16.18172 113.31298,-28.63008 162.50368,-33.7133 7.74474,-0.80031 14.08135,-1.84554 14.08135,-2.32272 0,-0.47719 -4.17946,-1.67165 -9.2877,-2.65437 -9.28355,-1.78596 -9.28495,-1.78681 -3.14583,-1.90755 3.37803,-0.0664 7.8881,-0.47003 10.02239,-0.89689 3.84594,-0.76919 3.87546,-0.82859 3.31435,-6.66815 -0.32822,-3.41586 -1.65935,-7.37067 -3.16738,-9.41041 -2.65023,-3.58462 -2.06367,-4.16572 2.86706,-2.8404 2.0205,0.54309 2.33531,1.46481 1.98871,5.82266 -1.01856,12.80685 6.44707,29.40918 26.6467,59.25782 16.36361,24.18022 19.65928,29.74493 21.77003,36.75843 1.95544,6.49744 0.86801,10.26608 -3.85527,13.36089 -2.69569,1.76628 -7.07257,2.30609 -24.32134,2.99961 -25.36462,1.01984 -37.77094,3.60622 -68.3714,14.25355 -57.32345,19.94552 -66.05571,22.84403 -75.5,25.06088 l -10.18651,2.39106 11.38492,-0.48886 c 16.01684,-0.68777 35.07981,-5.29936 72.66716,-17.57916 52.11641,-17.02645 67.05027,-20.26383 93.51309,-20.27192 l 15.77946,-0.005 12.38324,8.30011 c 58.3224,39.09173 122.77512,44.04525 162.4085,12.48191 4.68512,-3.73115 9.63347,-9.37313 14.00833,-15.97194 3.72037,-5.61162 9.73441,-13.97794 13.36453,-18.59183 3.63014,-4.61389 7.77763,-10.80513 9.21666,-13.75831 3.37301,-6.9221 23.53439,-27.03217 32.17684,-32.09495 10.27344,-6.01822 19.70415,-8.89041 31.48606,-9.58931 10.77764,-0.63933 23.60231,0.97142 32.38861,4.06793 5.01847,1.76864 10.22931,0.89318 26.82379,-4.50656 13.38479,-4.35533 9.19814,-5.804 -12.88293,-4.45777 -8.23909,0.50232 -27.86443,1.29212 -43.61186,1.75511 l -28.6317,0.84181 0.57514,-11.94393 c 1.07746,-22.37564 10.03805,-34.03562 30.18978,-39.28448 15.93501,-4.15054 34.23361,-3.59063 77.84628,2.38196 30.2666,4.14489 42.8927,4.77028 58.9552,2.92016 41.1505,-4.73984 67.2157,13.64987 75.3817,53.18383 2.3219,11.24125 2.5705,33.8062 0.5431,49.30237 -1.1735,8.97005 -1.0852,14.5454 0.504,31.79564 3.0294,32.88479 3.3169,41.37494 1.987,58.66825 -1.3483,17.53218 -4.4771,34.85987 -8.3019,45.97687 -2.2948,6.6699 -2.3271,7.5432 -0.6374,17.2331 4.5602,26.1496 1.3455,52.6701 -14.4181,118.9488 -8.4405,35.4883 -10.5985,45.7809 -13.0659,62.3174 -2.205,14.7778 -20.2156,68.0815 -28.3826,84.0002 -7.3279,14.2832 -16.2862,24.4222 -26.4442,29.9296 l -7.5878,4.1139 -34.7539,-0.1014 c -22.8869,-0.067 -48.66713,-1.0538 -75.50002,-2.8907 -54.45942,-3.7282 -111.13634,-4.0669 -126.98009,-0.7589 -30.724,6.4149 -47.08364,-6.6025 -54.77691,-43.5864 -1.96833,-9.4623 -2.52606,-18.7717 -3.30269,-55.127 -0.5999,-28.0823 -1.42773,-44.9498 -2.31236,-47.1157 -2.08724,-5.1102 -1.65526,-16.0468 1.01433,-25.6804 4.20758,-15.1835 13.00325,-32.4568 30.25907,-59.4238 4.56739,-7.1378 7.97622,-13.3059 7.57518,-13.707 -0.40103,-0.401 -3.14464,1.6415 -6.0969,4.5389 -5.13373,5.0384 -5.36772,5.1368 -5.36772,2.2571 0,-6.8381 8.78118,-16.7586 28.7619,-32.4938 6.26171,-4.9312 12.11261,-9.8429 13.00201,-10.915 0.88939,-1.072 4.50558,-3.2716 8.03597,-4.8878 3.53039,-1.6163 13.85806,-8.1724 22.95037,-14.5691 19.73605,-13.8848 31.09617,-19.7097 38.43945,-19.7097 2.9813,0 4.89743,-0.4859 4.49344,-1.1396 -1.86564,-3.0187 30.50671,-9.7445 58.52315,-12.1591 22.41198,-1.9315 32.39121,-0.5676 47.50005,6.4919 14.83797,6.9329 32.25467,12.8507 39.98277,13.585 4.6479,0.4417 7.2626,0.01 10.6722,-1.7802 8.1515,-4.2692 11.5344,-1.0885 14.194,13.3455 0.8028,4.3568 1.8181,8.5015 2.2563,9.2105 1.1144,1.8032 3.9531,0.4694 6.0371,-2.8365 0.9671,-1.5342 4.7245,-5.3736 8.3497,-8.532 9.5895,-8.3547 9.9133,-9.5676 3.9583,-14.8301 -2.7083,-2.3933 -5.8655,-5.862 -7.016,-7.7083 -2.8546,-4.5808 -6.5537,-6.2643 -21.5502,-9.80778 -14.301,-3.37912 -21.2247,-6.66452 -23.2052,-11.01129 -1.6341,-3.58646 -1.6964,-8.83754 -0.1531,-12.89683 1.5281,-4.01908 0.2491,-3.92039 -6.7546,0.52119 -3.118,1.97738 -6.7769,3.61239 -8.1309,3.63335 -1.354,0.021 -3.5086,0.8299 -4.7881,1.79762 -3.932,2.97407 -14.52689,2.18274 -26.45046,-1.97561 -13.48944,-4.70444 -19.96838,-4.33797 -31.05622,1.75667 -5.39323,2.96448 -7.96903,3.8042 -8.87876,2.89448 -0.90973,-0.90973 -4.01326,-0.50367 -10.69776,1.39966 -5.17894,1.47463 -11.00189,2.50062 -12.93989,2.27996 -3.13843,-0.35735 -3.5043,-0.82698 -3.34691,-4.29605 0.21374,-4.71142 -0.65691,-4.86196 -4.46186,-0.7715 -4.06253,4.36739 -12.5464,10.07008 -16.79313,11.28803 -2.18513,0.62668 -6.09574,0.49471 -10.0753,-0.34 -6.41279,-1.3451 -6.57189,-1.30969 -11.34387,2.52518 -3.49057,2.8051 -4.83985,3.37252 -4.83985,2.03531 0,-1.01974 -0.7362,-1.85408 -1.636,-1.85408 -1.96596,0 -4.24083,1.72938 -23.28741,17.70349 -20.28878,17.0158 -24.28369,18.5475 -20.13544,7.7199 3.63623,-9.4911 3.66483,-9.844 0.79784,-9.844 -6.27401,0 -15.4983,8.2847 -24.01778,21.5714 -2.74712,4.2843 -10.95237,19.654 -18.23389,34.1548 -7.28151,14.5008 -16.92859,32.8365 -21.43794,40.746 -16.69272,29.2794 -23.59829,53.7449 -26.38443,93.4762 -1.32572,18.9052 -0.86399,38.0874 1.95676,81.2912 l 1.70826,26.1641 6.03278,7.9906 c 12.1096,16.0395 10.87128,17.3202 -17.71469,18.3217 -14.93292,0.5232 -23.00899,1.3371 -27.22346,2.7437 -7.61278,2.5409 -23.08046,3.5668 -26.57938,1.7629 z m 198.252,-26.2095 c 5.68495,-3.4662 4.56437,-8.402 -1.9075,-8.402 -2.75084,0 -24.81624,-12.9237 -23.80019,-13.9398 0.25924,-0.2592 5.6608,1.4072 12.00347,3.7031 24.13959,8.7382 42.53427,11.7971 52.42031,8.717 3.61886,-1.1275 6.42882,-1.3428 8.33274,-0.6385 1.57994,0.5845 3.97646,0.9047 5.32559,0.7116 2.10917,-0.3018 1.87021,-0.7189 -1.70496,-2.9759 -2.87333,-1.8138 -4.60244,-2.2559 -5.59671,-1.4307 -0.99974,0.8297 -6.31345,-0.7923 -17.4135,-5.3154 -20.02045,-8.158 -41.04752,-17.6514 -46.53425,-21.0093 -3.96219,-2.425 -4.02808,-2.5674 -1.18999,-2.5716 1.65246,0 7.85424,1.3643 13.78175,3.0372 21.45453,6.0552 49.7257,9.7339 49.7257,6.4705 0,-1.8022 -11.66455,-6.8453 -35.95238,-15.5438 -11.53472,-4.1311 -21.0621,-7.5649 -21.17196,-7.6306 -0.1099,-0.066 8.33896,-0.1195 18.77513,-0.1195 28.5698,0 27.71546,-1.9035 -5.06953,-11.2953 -25.0335,-7.1711 -36.81228,-11.7654 -45.5181,-17.7539 -5.86055,-4.0314 -6.44329,-4.1768 -14.60938,-3.647 -14.31045,0.9284 -20.41759,5.9146 -20.25731,16.5391 0.27842,18.4563 29.0075,52.6966 59.43885,70.8412 8.72674,5.2033 14.97978,5.8768 20.92222,2.2536 z m 67.54007,-85.6164 c 39.09019,-4.8492 77.04382,-18.0163 104.73172,-36.3341 21.5592,-14.2632 45.4466,-37.3449 42.1058,-40.6857 -0.4183,-0.4183 -0.9208,-0.5358 -1.1166,-0.2612 -7.2158,10.1185 -13.847,16.815 -18.6564,18.8401 -8.9902,3.7855 -18.059,5.5343 -28.924,5.5776 -21.9556,0.087 -29.9869,-10.5999 -19.1783,-25.5207 l 3.5361,-4.8814 6.8103,2.3431 c 6.8927,2.3714 11.426,2.9446 12.7576,1.6131 0.4014,-0.4014 -0.3176,-3.3875 -1.5979,-6.6356 -3.3356,-8.4625 -3.0766,-15.3796 0.7383,-19.7119 3.286,-3.7317 6.9698,-10.0242 6.2752,-10.7188 -0.7737,-0.7737 -2.8411,1.1952 -6.3403,6.0383 -4.859,6.7252 -6.4362,7.7897 -11.541,7.7897 -6.3402,0 -9.8215,-1.598 -16.1103,-7.3948 -6.9546,-6.4105 -9.35146,-10.963 -8.5081,-16.1598 0.6974,-4.2979 -0.94414,-5.5526 -2.1781,-1.6647 -1.15937,3.6528 -7.61898,8.4415 -11.38704,8.4415 -4.62173,0 -8.31816,-4.6742 -13.12323,-16.5945 -4.57867,-11.3586 -6.71447,-13.7829 -9.17643,-10.4159 -0.90898,1.2431 -1.99835,4.1888 -2.42082,6.546 -1.44117,8.0413 -2.07852,8.1761 -8.45451,1.7876 -3.67268,-3.6799 -6.93481,-8.498 -8.69215,-12.8382 -1.97646,-4.8813 -3.38168,-6.838 -4.725,-6.5793 -1.05156,0.2025 -4.34913,4.5726 -7.3279,9.7112 l -5.41598,9.3429 -8.98809,-0.9118 c -14.18263,-1.4389 -33.37081,-0.8578 -42.54365,1.2884 -4.61389,1.0795 -12.70318,4.0927 -17.97619,6.696 -9.62409,4.7515 -34.1661,22.3641 -43.16416,30.9769 -7.90752,7.5689 -22.39967,25.1802 -21.91561,26.6324 0.24765,0.7429 9.05976,-6.0603 19.58248,-15.1183 28.61316,-24.6302 42.36642,-33.6222 58.67815,-38.3641 6.9781,-2.0286 7.06578,-2.0234 9.14646,0.5461 1.90677,2.3548 1.94143,3.0462 0.37513,7.4856 -3.77675,10.7044 -21.20959,30.715 -35.89399,41.2015 -3.95972,2.8277 -11.35434,7.0347 -16.43251,9.3489 -14.98461,6.8287 -28.75666,17.3285 -32.78954,24.9987 -4.51112,8.5798 0.33769,16.3867 14.32392,23.0625 11.34988,5.4175 26.51588,9.4032 61.87141,16.2603 32.76288,6.3543 41.86712,6.964 63.64523,4.2624 z m 110.72382,-24.3061 c 14.9654,-4.6536 19.218,-7.6041 31.7579,-22.0336 12.7485,-14.6695 14.7566,-17.923 7.2902,-11.8112 -25.5675,20.9286 -44.9883,32.6954 -56.4786,34.2196 -5.7492,0.7627 -6.8946,1.5203 -5.0649,3.35 1.3324,1.3324 11.8132,-0.403 22.4954,-3.7248 z m -364.91667,-52.2478 c 0,-0.6591 -1.07857,-0.2223 -2.39682,0.9707 -1.31826,1.193 -2.39683,2.7084 -2.39683,3.3675 0,0.6591 1.07857,0.2223 2.39683,-0.9707 1.31825,-1.193 2.39682,-2.7084 2.39682,-3.3675 z m 243.02754,-143.2642 c 0.39639,-1.2058 -0.19686,-1.4025 -2.3044,-0.7641 -4.57941,1.387 -5.72564,3.2264 -1.73223,2.7797 1.92656,-0.2155 3.74304,-1.1225 4.03663,-2.0156 z M 855.62883,894.11564 c 14.55471,-5.56703 24.85461,-6.71887 69.40049,-7.76105 30.89721,-0.72287 44.15388,-1.48036 50.33333,-2.87609 9.31142,-2.10313 19.77452,-5.61556 19.77252,-6.63758 -7.1e-4,-0.36414 -21.16768,-0.61227 -47.0377,-0.55141 -50.92133,0.1198 -61.12964,1.02323 -78.6889,6.96395 -9.20094,3.1129 -20.49363,9.36217 -23.85659,13.20202 -1.91124,2.18227 -1.89163,2.25294 0.3821,1.37598 1.31825,-0.50844 5.68088,-2.18056 9.69475,-3.71582 z M 552.32297,858.71853 c 5.93214,-1.33556 14.05306,-2.60751 18.0465,-2.82657 5.50642,-0.30205 9.79592,-1.60826 17.75295,-5.40599 11.71965,-5.59356 12.9177,-8.07436 3.62225,-7.50057 -15.41442,0.9515 -57.09303,12.60624 -57.7767,16.15631 -0.53955,2.80165 4.55277,2.68425 18.355,-0.42318 z"
       style="fill:#6c5353;fill-opacity:1;stroke-width:1.19841" />
    <path
       id="path560"
       d="m 403.2552,1372.2252 c -22.34106,-6.0083 -41.95193,-26.2819 -60.36736,-62.4075 -3.64365,-7.1478 -11.3252,-23.7817 -17.07012,-36.9642 -5.74491,-13.1826 -12.81267,-29.0355 -15.70614,-35.2287 -9.07445,-19.4231 -6.52499,-16.5253 12.83365,14.587 21.33939,34.2957 33.05757,50.6582 45.89962,64.0912 9.92104,10.3776 11.83279,11.782 24.02525,17.6496 24.26621,11.6782 25.24358,9.7357 4.7463,-9.4332 -8.50742,-7.956 -19.53352,-18.5427 -24.50245,-23.5258 -20.6483,-20.7075 -57.38271,-79.6984 -79.09031,-127.0092 -8.67835,-18.9141 -20.59871,-48.9329 -20.06586,-50.5314 0.20324,-0.6097 7.07573,10.6452 15.2722,25.011 20.5471,36.0125 44.80735,77.1196 51.46973,87.2114 4.14264,6.275 7.21194,9.407 12.06448,12.311 3.57957,2.1422 7.74555,3.8948 9.25775,3.8948 2.30784,0 2.74944,-0.631 2.74944,-3.9286 0,-7.3428 -8.5609,-22.8747 -31.46193,-57.081 l -13.16528,-19.6643 0.57368,-9.0976 c 0.70294,-11.1472 3.96109,-20.5354 11.40855,-32.8732 13.83092,-22.913 40.54421,-44.314 58.71503,-47.0389 3.9694,-0.5953 5.51637,-1.4598 6.30002,-3.521 3.0489,-8.0192 20.14683,-18.7491 41.86158,-26.2704 13.11005,-4.5409 38.70439,-10.2472 45.96177,-10.2472 5.99512,0 8.03674,-1.0509 8.03674,-4.1369 0,-11.0415 21.80122,-9.1296 60.54194,5.3094 18.58013,6.925 19.24285,7.4052 34.35194,24.895 32.76051,37.9224 56.2012,77.0679 69.05805,115.3257 5.19292,15.4525 5.42443,16.7221 5.02938,27.583 -0.62868,17.2835 -0.55429,24.6286 0.54631,53.9465 1.16205,30.9549 0.058,39.21 -7.17079,53.6153 -7.25707,14.4618 -8.87029,15.7341 -23.34724,18.4145 -86.91325,16.0916 -210.49533,37.0533 -217.71858,36.929 -2.51938,-0.043 -7.48619,-0.8603 -11.03735,-1.8153 z m 98.73443,-51.3673 c 6.59127,-1.6088 18.79778,-5.1135 27.12556,-7.7882 8.32778,-2.6747 15.4836,-4.8631 15.9018,-4.8631 0.41821,0 0.422,1.3482 0.008,2.9961 -0.64637,2.5753 -0.34619,2.996 2.13779,2.996 3.95635,0 20.78162,-8.2927 31.92229,-15.7337 27.4282,-18.3195 45.3407,-38.1975 47.73916,-52.9775 l 0.71341,-4.3962 -5.60077,2.4775 c -3.08042,1.3626 -18.38687,5.1243 -34.01432,8.3594 -40.22197,8.3265 -59.48401,14.7204 -79.41757,26.3622 -15.87093,9.2691 -20.38358,15.355 -13.40663,18.0804 7.31091,2.8559 43.1562,-4.2144 61.74043,-12.178 13.01403,-5.5766 12.52716,-5.4566 9.86912,-2.4335 -4.02419,4.5769 -23.14548,16.7317 -35.88002,22.8078 -14.35995,6.8517 -25.36029,10.5753 -37.02878,12.5343 -7.37799,1.2386 -8.6416,1.811 -8.97061,4.0632 -0.50578,3.4621 1.89509,3.4192 17.16073,-0.3067 z m 34.95127,-77.3843 c 4.06328,-0.6595 11.88292,-2.5447 17.37698,-4.1893 8.77797,-2.6277 26.01254,-7.5687 52.82878,-15.1456 29.48851,-8.3318 22.19845,-32.8049 -17.82476,-59.8385 -18.51284,-12.5044 -42.93619,-23.7971 -57.40287,-26.5414 l -7.75876,-1.4718 0.0264,-6.6176 c 0.0349,-8.7688 3.35788,-16.0782 8.05367,-17.7152 8.62563,-3.0069 23.02633,6.102 53.63827,33.928 20.90668,19.0039 28.61639,24.7871 32.33412,24.2545 2.09543,-0.3002 2.39867,-1.1778 2.26191,-6.5453 -0.13747,-5.3953 -0.85701,-7.1037 -5.55202,-13.1826 -13.10281,-16.9647 -26.26192,-26.8652 -54.45857,-40.9731 -10.935,-5.4712 -17.52642,-9.4896 -18.42554,-11.233 -2.2199,-4.3042 -6.13295,-8.1072 -8.3418,-8.1072 -1.11645,0 -5.47155,2.6216 -9.67801,5.8256 -8.02499,6.1128 -13.51009,8.5554 -19.21182,8.5554 -3.25013,0 -3.41641,-0.2625 -3.41641,-5.3929 0,-3.5856 -0.51459,-5.3928 -1.53553,-5.3928 -0.84454,0 -4.75437,3.2605 -8.68849,7.2457 -11.26736,11.4134 -16.88906,14.5165 -26.70158,14.739 -7.03202,0.1594 -9.63502,0.9044 -18.29326,5.2354 -9.61747,4.8109 -21.47955,13.6557 -21.47955,16.016 0,0.6078 0.80997,1.1051 1.79994,1.1051 1.49404,0 1.39221,0.7608 -0.59921,4.4763 -1.31953,2.462 -2.39915,6.1311 -2.39915,8.1536 0,4.8975 5.32173,15.3549 9.68048,19.0226 4.38062,3.686 4.37973,4.2999 -0.006,4.2999 -6.57802,0 -10.13089,-7.3461 -11.59203,-23.9682 -0.57984,-6.5965 -1.44206,-9.7056 -3.24031,-11.6846 -5.73048,-6.3063 -5.69105,-1.4383 0.16606,20.5024 4.24382,15.8973 4.81944,25.1366 1.83181,29.4021 -1.66888,2.3826 -2.71966,2.7154 -7.03772,2.2287 -4.46957,-0.5038 -6.11163,-1.6625 -13.7458,-9.6993 -12.67231,-13.3406 -24.77645,-18.5453 -26.98037,-11.6014 -0.99291,3.1284 2.3752,10.6343 6.94315,15.4729 3.71864,3.9389 3.74388,4.0355 0.83807,3.2068 -1.64782,-0.47 -5.55764,-1.1528 -8.68849,-1.5174 -4.8062,-0.5596 -5.69246,-0.3476 -5.69246,1.3618 0,1.6322 -1.02577,1.2878 -5.29375,-1.7772 -8.76353,-6.2935 -10.09514,-2.2742 -4.56179,13.7692 l 3.28248,9.5171 8.91337,4.4628 c 18.41269,9.2189 35.45412,13.1982 83.9454,19.6017 17.46687,2.3065 39.30794,5.7878 48.53572,7.7361 18.25717,3.8548 24.86461,4.3073 36.14967,2.4757 z"
       style="fill:#6c5353;fill-opacity:1;stroke-width:1.19841" />
    <path
       id="path562"
       d="m 829.75551,2079.8399 c -38.88091,-5.2264 -73.17288,-11.5631 -97.02904,-17.9297 -13.55079,-3.6163 -14.07513,-3.6627 -27.0673,-2.3941 -19.09673,1.8647 -57.02049,1.592 -90.63473,-0.6518 -35.58286,-2.3752 -80.1193,-2.6399 -95.65782,-0.5684 -6.26171,0.8347 -16.50814,2.6447 -22.76984,4.022 -15.36793,3.3806 -39.5289,3.6787 -45.24008,0.5584 -3.06639,-1.6754 -3.89484,-2.8989 -3.89484,-5.752 0,-6.8906 4.44926,-12.7604 31.72533,-41.8542 17.50545,-18.672 27.34457,-31.5813 32.80374,-43.0396 3.79991,-7.9757 4.30192,-10.2184 4.90558,-21.9158 0.76665,-14.8554 1.82931,-16.6325 7.84554,-13.1201 7.93329,4.6317 29.63339,37.4741 26.69916,40.4083 -0.33284,0.3329 -4.14192,-2.9316 -8.46463,-7.2543 -4.32271,-4.3227 -9.89023,-8.7079 -12.37227,-9.745 -4.19373,-1.7523 -4.62163,-1.7368 -6.05183,0.2192 -2.70383,3.6977 0.44929,11.8447 7.68312,19.8517 7.67892,8.4997 16.64988,11.539 26.50972,8.9814 l 5.98765,-1.5532 13.95136,6.9924 c 13.77055,6.9019 18.57911,8.345 18.57911,5.5759 0,-0.7792 -11.24929,-12.7783 -24.99844,-26.6647 -29.15964,-29.4508 -35.43246,-37.9985 -40.83942,-55.6501 -5.0004,-16.3243 -6.3416,-22.203 -5.81088,-25.4699 0.40697,-2.505 2.77851,-0.5045 19.57773,16.5152 l 19.11466,19.3656 12.79263,4.9023 c 13.63095,5.2236 16.56849,5.8183 16.56849,3.3542 0,-1.984 -6.4836,-8.1296 -25.24646,-23.9301 -25.13731,-21.1685 -39.46783,-37.8806 -39.46783,-46.0269 0,-1.3413 -0.58353,-4.1127 -1.29673,-6.1586 -3.39211,-9.7306 -0.70569,-8.2195 18.784,10.5662 24.52051,23.6349 26.51738,25.0051 40.39691,27.7188 12.00629,2.3475 21.21106,2.8484 21.21106,1.1544 0,-1.1664 -4.92272,-4.3475 -23.36905,-15.1013 -23.57185,-13.7418 -37.80523,-25.8338 -41.85987,-35.5623 -1.18913,-2.8531 -4.47625,-10.3107 -7.30472,-16.5724 -14.69334,-32.5284 -8.08639,-32.2212 31.97252,1.4866 10.70519,9.008 16.64745,13.0051 25.44669,17.117 19.36445,9.0491 21.65058,6.4338 6.12129,-7.0026 -5.27025,-4.56 -17.77542,-14.9945 -27.7893,-23.1877 -20.96644,-17.1546 -33.81046,-30.3217 -40.21558,-41.227 -5.49581,-9.3572 -5.81362,-13.46 -1.19095,-15.3748 10.71198,-4.4371 53.94996,14.8437 78.94176,35.2019 5.8371,4.7549 7.02246,5.1985 18.02733,6.747 16.21631,2.2817 53.36734,2.0016 72.29924,-0.545 33.68489,-4.5311 57.10698,-10.1834 112.83237,-27.2292 14.93022,-4.567 27.46861,-8.3037 27.86309,-8.3037 0.39449,0 0.71724,0.9846 0.71724,2.188 0,1.2033 1.39773,3.4953 3.10607,5.0932 1.70834,1.5979 3.69736,3.9839 4.42004,5.3022 0.84175,1.5354 1.39702,13.8099 1.54508,34.1547 0.23837,32.7527 1.88876,52.6526 6.55976,79.0953 7.43814,42.1075 22.53115,85.7473 42.06926,121.6389 7.07113,12.9896 10.23728,17.3807 19.04726,26.4164 19.27598,19.7698 16.77286,23.4026 -17.72389,25.7226 -23.43347,1.576 -37.98484,3.9636 -47.6001,7.8103 -7.85374,3.142 -9.83896,3.2872 -22.20919,1.6244 z m -292.4127,-30.8881 c 1.88986,-0.5257 2.99603,-1.6984 2.99603,-3.1762 0,-3.3255 -7.38454,-6.5966 -18.51298,-8.2006 -6.95821,-1.0029 -10.33688,-2.1656 -13.65505,-4.699 -20.11632,-15.3589 -38.06538,-12.8595 -21.57375,3.0041 10.51308,10.1127 36.92479,16.9162 50.74575,13.0717 z m 19.45043,-14.0783 c 2.17931,-1.3469 0.57282,-3.7334 -4.17067,-6.1955 -4.98225,-2.5861 -5.00657,-2.628 -1.1159,-1.9204 4.72602,0.8595 19.45586,-0.4584 21.88093,-1.9577 2.79313,-1.7268 -0.51598,-4.0025 -15.30969,-10.5283 -15.44441,-6.8129 -18.57103,-8.9937 -23.07393,-16.094 -4.58392,-7.2281 -15.77043,-18.7036 -18.63339,-19.1148 -3.91501,-0.5623 -3.67845,5.2715 0.58302,14.378 4.8436,10.3506 11.74794,19.4284 19.3425,25.4316 7.19694,5.6888 5.76245,6.1633 -3.5792,1.1838 -6.2624,-3.3381 -7.05273,-4.2557 -10.75643,-12.4875 -4.23959,-9.4228 -11.21976,-18.6637 -14.09786,-18.6637 -3.30679,0 -4.66352,5.547 -3.13691,12.8251 3.53782,16.8667 14.39783,29.4443 28.96261,33.5431 4.9995,1.407 20.6188,1.1368 23.10492,-0.3997 z"
       style="fill:#6c5353;fill-opacity:1;stroke-width:1.19841" />
    <path
       id="path564"
       d="m 635.11325,1790.4372 c -5.21812,-0.9423 -13.57705,-3.5541 -18.57539,-5.8042 -4.99835,-2.2501 -20.95219,-8.7414 -35.45299,-14.4251 -33.22741,-13.0238 -49.72664,-21.0687 -56.47899,-27.5386 -5.94193,-5.6933 -6.57031,-9.0025 -2.48526,-13.0875 2.31225,-2.3123 5.24374,-3.0738 18.27579,-4.7479 37.41282,-4.8059 39.78852,-4.8815 156.93449,-4.9913 79.4268,-0.074 119.50023,-0.55 129.42858,-1.5359 28.01101,-2.7815 36.85092,-4.0522 48.17532,-6.9248 11.52144,-2.9227 22.4427,-3.789 23.62613,-1.8742 1.74434,2.8224 -16.62742,16.9478 -49.14975,37.7894 -19.24764,12.3347 -24.57272,16.465 -22.23347,17.2447 0.77953,0.2599 3.92702,-0.3827 6.99444,-1.4279 7.14998,-2.4362 8.01166,-1.5956 1.67702,1.6361 -16.52136,8.4286 -91.64219,23.5007 -131.76555,26.4373 -22.485,1.6456 -57.83141,1.2612 -68.97037,-0.7501 z"
       style="fill:#6c5353;fill-opacity:1;stroke-width:1.19841" />
    <path
       id="path568"
       d="m 354.62585,1572.4606 c -15.06209,-17.5045 -30.74577,-49.6786 -47.66014,-97.7719 -4.16701,-11.8482 -10.67924,-32.7517 -10.31644,-33.1145 0.17769,-0.1777 2.33231,2.7411 4.78803,6.4862 17.38232,26.5089 39.17507,73.6119 52.32059,113.086 2.78353,8.3585 4.95797,15.3003 4.83208,15.4262 -0.12589,0.1259 -1.90974,-1.7245 -3.96412,-4.112 z"
       style="fill:#6c5353;fill-opacity:1;stroke-width:0.599206" />
    <path
       id="path570"
       d="m 404.22478,1639.5987 c -6.88203,-5.1489 -18.03224,-16.451 -22.52126,-22.828 -4.73459,-6.7259 -10.23637,-17.5213 -13.03736,-25.5814 -3.33816,-9.6059 -5.33265,-17.7014 -9.59573,-38.9486 -3.5375,-17.6309 -6.61404,-31.2581 -7.34772,-32.546 -0.15304,-0.2686 -0.78386,-0.031 -1.40183,0.5284 -1.02564,0.9282 -1.24789,0.9354 -2.55005,0.082 -7.93326,-5.198 -25.19967,-51.2597 -36.65796,-97.7927 -4.83276,-19.6261 -8.10568,-37.018 -8.06256,-42.8432 0.0148,-2.002 0.0567,-2.0428 0.92272,-0.8988 1.86987,2.4701 8.17766,15.5853 16.42672,34.1547 19.49238,43.8791 30.10271,62.8187 42.5756,75.998 5.89674,6.2308 10.08255,12.4774 15.48191,23.1042 11.35672,22.352 18.34367,46.2973 23.9726,82.1577 3.2197,20.5119 7.27893,48.7132 7.0453,48.9468 -0.12427,0.1243 -2.48695,-1.4657 -5.25038,-3.5332 z m -5.87553,-19.6492 c 1.10587,-7.059 0.35138,-25.854 -1.49966,-37.3577 -4.21198,-26.1764 -12.62285,-49.639 -22.94509,-64.0068 -2.32359,-3.2343 -2.69638,-3.2218 -5.982,0.2008 -2.36094,2.4593 -4.04748,6.2141 -5.00335,11.1391 -1.15983,5.9759 -0.40466,21.0138 1.51105,30.09 3.87442,18.3561 12.70229,39.6984 21.94134,53.0452 3.7955,5.4831 10.1636,12.4922 10.78505,11.8708 0.26887,-0.2689 0.80556,-2.5105 1.19266,-4.9814 z m -30.00804,-111.1706 c 0,-4.6772 -7.34338,-19.2487 -10.77504,-21.381 -0.68187,-0.4236 -2.62006,-3.1971 -4.30708,-6.1632 -7.24394,-12.736 -13.71907,-20.9217 -16.26326,-20.5596 -1.15218,0.164 -1.30919,0.5503 -1.29346,3.1827 0.0347,5.8116 4.77312,16.8363 11.73012,27.2921 4.95819,7.4518 16.97307,19.7456 19.2976,19.7456 1.44461,0 1.61112,-0.2188 1.61112,-2.1166 z"
       style="fill:#6c5353;fill-opacity:1;stroke-width:0.599206" />
    <path
       id="path572"
       d="m 360.98487,1467.8217 c -4.18971,-4.6375 -10.26378,-15.982 -21.69269,-40.5155 -9.5964,-20.5998 -13.33586,-30.0835 -14.63672,-37.1205 -0.78152,-4.2276 -0.34757,-5.7226 1.66139,-5.7235 2.3642,0 11.29266,9.4904 17.19226,18.2765 12.01901,17.8995 19.65649,34.9603 22.20424,49.6002 1.41133,8.1098 0.44094,17.8105 -1.78163,17.8105 -0.46416,0 -1.79024,-1.0474 -2.94685,-2.3277 z m -9.03989,-31.078 c -1.24288,-16.5201 -6.16032,-31.4357 -12.07634,-36.6301 -2.59732,-2.2804 -5.38764,-2.5425 -6.01529,-0.565 -1.64429,5.1807 1.51752,14.7714 9.05724,27.4733 2.08413,3.5111 4.48505,7.9569 5.33538,9.8797 3.08114,6.967 4.23135,6.9179 3.69901,-0.1579 z"
       style="fill:#6c5353;fill-opacity:1;stroke-width:0.599206" />
    <g
       transform="matrix(5.407151,0,-0.16521167,3.8476748,235.26402,561.86157)"
       id="g1509">
      <g
         transform="matrix(0.52900596,0,0,0.64883731,-178.24319,-96.795445)"
         id="g1173">
        <path
           d="m 555.37909,729.37125 c -38.84762,-12.55865 -82.02203,-10.83023 -117.64665,-33.2448 -48.9781,-25.19272 -95.96973,-54.69112 -135.42553,-93.52926 -36.66982,-21.37955 18.45298,-61.04098 32.9443,-23.54248 31.08777,29.22908 66.01908,55.30132 106.31282,70.02974 51.29586,25.46525 111.28815,30.38461 167.36747,21.89408 32.02812,-1.83334 49.57917,-31.42612 71.20354,-50.97605 -33.7127,-9.75429 -21.42746,-54.48757 -38.17243,-78.63536 -11.08534,-24.64553 4.5443,-45.03565 29.33916,-44.14348 -5.50347,-50.14161 -6.97598,-101.89279 -10.9858,-152.68978 -3.76121,-69.35786 -8.58399,-139.148 -2.73999,-208.47332 -3.82452,-25.33619 24.31733,-71.035998 41.49049,-30.55239 17.96875,38.17745 11.9433,81.66893 14.976,122.56868 1.24156,65.9382 -0.99813,131.86957 -2.79084,197.77572 1.9526,28.81431 -7.13703,58.78639 0.87067,86.75342 20.04102,10.4247 36.94522,25.42822 24.98245,51.01135 -1.29925,18.34271 5.8419,37.80004 0.40887,56.09459 -27.42352,15.4117 -21.52139,59.03667 -53.7572,71.04038 -28.76571,24.56801 -68.39843,32.87205 -104.74386,38.77369 -7.87785,0.26108 -15.75602,-0.0861 -23.63347,-0.15473 z M 577.11926,724 c 24.18503,-8.27127 38.71286,-62.92128 -1.65713,-45.13083 -12.92475,7.99162 -25.36809,36.28132 -26.91054,42.94612 8.96443,3.15735 19.41178,6.74478 28.56767,2.18471 z m 30.59788,-2.90677 c 28.13945,3.49165 48.15585,-68.62858 7.61822,-48.81821 -18.01364,13.62574 -13.76414,43.65123 -35.86547,53.87781 9.57613,-0.55087 19.0443,-2.39814 28.24725,-5.0596 z M 541.29947,717.75 c 29.59293,-7.97279 23.42454,-60.19115 -8.60376,-35.92678 -12.128,15.98682 -33.39202,41.14554 1.18728,36.73148 l 3.73489,-0.14139 z m 90.52977,-3.27402 c 36.02256,-1.2826 48.77336,-36.31117 37.16241,-66.12137 -19.97981,-20.11669 -31.45677,31.40487 -29.97561,47.65532 0.58265,3.48251 -22.64544,25.17455 -7.1868,18.46605 z M 517.46705,701.12079 c 33.55714,-29.09699 -38.18793,-41.5461 -40.80725,-7.1447 -27.57569,13.81862 37.01951,28.35152 40.80725,7.1447 z m -50.36053,-1.75438 c 38.72244,-15.56078 -2.9471,-56.18066 -21.18454,-20.28377 -27.30688,12.2843 8.57984,23.23754 21.18454,20.28377 z m 213.28314,-8.50952 c 31.25426,-5.26968 20.81482,-72.29569 -4.13496,-64.0899 -13.67864,21.4808 7.85934,50.49954 -4.41962,72.36131 2.98388,-2.6222 5.56236,-5.65809 8.55458,-8.27141 z M 438.69947,680.82762 c 39.755,-18.05575 -22.26118,-48.98096 -35.56321,-19.76134 -24.55015,9.08712 29.45536,25.45062 35.56321,19.76134 z M 708.923,663.46144 c 19.05291,-12.58241 1.09911,-62.69688 -12.26545,-39.32704 3.60648,5.44683 1.57505,59.69174 12.26545,39.32704 z m -310.13414,-1.67987 c 49.81262,-13.75513 -32.69251,-49.76591 -30.51396,-10.69194 9.05199,4.71397 19.44444,18.57272 30.51396,10.69194 z m -26.32803,-24.02411 c 31.1475,-10.6693 -23.03287,-50.44964 -37.14214,-22.44068 -17.85701,7.71355 29.45575,34.82506 37.14214,22.44068 z m 358.30601,-17.05914 c 26.25936,-34.03857 -33.84025,-30.11572 -51.94172,-38.06615 -45.04554,-17.23812 -9.2046,43.91726 17.79868,33.00394 11.93955,-2.51661 24.35128,7.65329 34.14304,5.06221 z m -45.44672,-2.50519 c -3.49125,0.73751 -1.44682,2.92378 0,0 z m -345.04957,-6.73672 c 25.08462,-15.47939 -31.9729,-55.41182 -45.80235,-38.21807 -0.63692,20.30892 24.14945,48.59264 45.80235,38.21807 z m 394.08198,-26.87449 c 9.14654,-33.13811 -36.11536,-40.98971 -56.91449,-52.17256 -19.42539,-7.74467 -47.14234,17.28942 -17.89229,26.6633 5.70239,29.01102 46.82394,25.9544 69.82945,26.63372 z m 2.54589,-33.53226 c -3.66228,-40.46897 -57.87919,-44.84981 -89.23834,-46.04409 -16.91235,16.70653 2.94192,34.51443 19.75341,22.7594 25.05543,1.57596 44.40698,22.44342 69.48493,23.28469 z M 705.51643,510.2 c 7.50919,-23.17894 -13.67369,-44.02146 -32.3399,-40.30741 -5.50962,26.70529 7.82785,36.63573 32.3399,40.30741 z m 0.36015,-48.7 c 13.59245,-29.37331 -20.20239,-33.87708 -37.267,-36.63937 -9.84464,19.50204 33.76829,78.05224 37.267,36.63937 z m 0.20268,-32.01536 c 8.06009,-20.90308 0.75524,-45.14527 -23.35784,-43.67333 -28.4051,-26.98978 -17.24204,47.79873 9.36444,42.36208 l 7.06727,1.24968 z m 2.35694,-45.42395 c 6.4765,-21.05858 -0.73821,-42.48937 -25.4906,-38.76966 -33.36534,-30.7096 -20.25223,38.55201 6.21509,38.94278 4.236,1.61393 16.75313,6.08667 19.27551,-0.17312 z m 1.38216,-64.39402 c 17.30942,-29.38334 -49.016,-42.70085 -48.65552,-39.99269 -10.25555,30.95027 14.45138,75.70342 48.1795,62.98779 1.15808,-7.48252 0.13425,-15.36977 0.47602,-22.9951 z m 0,-52.05417 c 7.79698,-31.33065 -34.29967,-25.76593 -49.86282,-42.64294 -11.89171,29.65147 12.58838,64.98236 46.30831,60.41553 7.47316,-0.27362 1.63071,-13.06333 3.55451,-17.77259 z m 0.14821,-47.14983 c 13.11115,-31.30836 -34.15003,-39.57749 -51.49294,-41.72358 -11.87359,27.54563 27.20043,77.39936 51.1044,52.11441 0.31348,-3.45721 0.31155,-6.92539 0.38854,-10.39083 z M 708.6548,179.25 c 8.28493,-29.39837 -22.14994,-51.9036 -45.35952,-49.95743 -16.75292,30.41327 10.95859,58.43266 42.04102,57.3199 2.88166,-1.09416 3.692,-4.65415 3.3185,-7.36247 z m -4.85915,-43.53466 c 7.84819,-26.94409 -41.80218,-64.692378 -38.54259,-18.71858 8.3361,11.56963 24.06838,20.37864 38.54259,18.71858 z"
           style="fill:#000000;stroke-width:0.92757"
           id="path125"
           sodipodi:nodetypes="ccccccccccccccccccccccccccccccccccccccccccccccccccccccccccccccccccccccccccccccccccccccccccccccccccccccccccccccc" />
        <path
           d="m 356.67913,639.86938 c -16.04881,-6.72499 -40.56553,-23.54258 -9.55205,-31.05304 21.83408,-14.05469 54.72316,33.01543 15.54308,31.75209 z"
           style="opacity:1;fill:#28170b;fill-opacity:1;stroke-width:0.544835"
           id="path137-4" />
        <path
           d="m 532.11614,718.18886 c -38.47519,6.1434 -4.86246,-33.39243 9.57925,-40.98122 38.95218,-6.96235 12.81689,44.77414 -9.57925,40.98122 z"
           style="opacity:1;fill:#28170b;fill-opacity:1;stroke-width:0.544835"
           id="path982-1" />
        <path
           d="m 713.64113,586.33649 c -28.14162,0.43102 -47.72694,-13.39203 -62.46925,-32.82093 -14.58955,-29.73836 43.30259,-22.80758 56.42663,-7.07511 23.09525,4.2149 47.53247,45.88879 6.04262,39.89604 z"
           style="opacity:1;fill:#28170b;fill-opacity:1;stroke-width:0.544835"
           id="path984-7" />
        <path
           d="m 697.19753,386.22717 c -22.83727,1.58713 -45.2972,-41.02236 -27.96524,-48.6444 16.86367,12.51469 50.91576,6.51974 39.73038,38.48728 0.171,8.11222 -2.03994,13.44162 -11.76514,10.15712 z"
           style="opacity:1;fill:#28170b;fill-opacity:1;stroke-width:0.544835"
           id="path986-1" />
        <path
           d="m 693.65984,185.39224 c -20.90975,-6.925 -43.19033,-19.9644 -33.09,-45.10682 2.17898,-25.68324 42.48134,0.21235 46.45544,15.20736 0.1453,10.88397 8.29755,39.22318 -13.36544,29.89946 z"
           style="opacity:1;fill:#28170b;fill-opacity:1;stroke-width:0.544835"
           id="path988-1" />
        <path
           d="m 419.60762,678.81595 c -18.94739,-2.71699 -32.01996,-15.93262 -7.36514,-22.74597 20.97863,-25.9229 61.95711,21.45236 20.34535,26.99754 -4.36853,-1.28712 -8.66439,-2.80214 -12.98021,-4.25157 z"
           style="opacity:1;fill:#784421;fill-opacity:1;stroke-width:0.544835"
           id="path990-0" />
        <path
           d="m 626.64508,715.01979 c 24.41364,-19.69667 4.55351,-59.70995 35.8301,-73.68896 18.57038,22.60547 11.74517,68.91858 -24.93339,71.48205 -2.70967,-1.13481 -8.66313,4.5335 -10.89671,2.20691 z"
           style="opacity:1;fill:#784421;fill-opacity:1;stroke-width:0.544835"
           id="path992-4" />
        <path
           d="m 696.38401,285.02437 c -29.30235,1.74415 -51.48495,-47.05986 -31.376,-58.43059 19.65538,16.47607 55.36423,15.57374 44.4678,50.10931 2.3746,10.19845 -4.68497,9.18753 -13.0918,8.32128 z"
           style="opacity:1;fill:#784421;fill-opacity:1;stroke-width:0.544835"
           id="path994-2" />
        <path
           d="m 728.26537,549.83243 c -26.54557,-12.97136 -57.77623,-23.85055 -83.79455,-22.09286 -10.00277,-42.52433 51.2512,-14.9626 72.14092,-7.41289 8.69394,0.0483 33.70495,35.98532 11.65363,29.50575 z"
           style="opacity:1;fill:#784421;fill-opacity:1;stroke-width:0.544835"
           id="path996-0" />
        <path
           d="m 327.25802,613.38066 c -24.44684,0.47035 -50.3799,-59.23687 -10.4768,-41.4609 16.21823,10.48434 55.74101,38.52281 10.4768,41.4609 z"
           style="opacity:1;fill:#a05a2c;fill-opacity:1;stroke-width:0.544835"
           id="path998-2" />
        <path
           d="m 559.90274,725.04715 c -26.27583,-1.33224 5.32662,-34.13288 14.54281,-45.45585 45.32625,-20.24349 22.70079,47.79214 -6.60366,45.86952 l -4.70804,-0.074 z"
           style="opacity:1;fill:#a05a2c;fill-opacity:1;stroke-width:0.544835"
           id="path1000-1" />
        <path
           d="m 723.26116,620.40388 c -24.18009,-7.21109 -66.90497,-2.33277 -66.28904,-38.44695 20.65658,-4.00327 41.76943,11.55262 63.8637,9.45995 20.41202,0.24987 23.1641,31.05431 2.42534,28.987 z"
           style="opacity:1;fill:#a05a2c;fill-opacity:1;stroke-width:0.544835"
           id="path1002-0" />
        <path
           d="m 695.19827,474.73606 c -24.80907,-2.99409 -41.80619,-71.56411 -5.12435,-42.98775 24.34331,-9.81189 21.33476,47.95578 5.12435,42.98775 z"
           style="opacity:1;fill:#a05a2c;fill-opacity:1;stroke-width:0.544835"
           id="path1004-7" />
        <path
           d="m 696.23624,135.55142 c -20.98291,-0.76255 -44.97979,-26.78083 -20.81015,-41.721182 12.9941,-2.96406 43.03495,43.667042 20.81015,41.721182 z"
           style="opacity:1;fill:#a05a2c;fill-opacity:1;stroke-width:0.544835"
           id="path1006-5" />
        <path
           d="m 488.80172,710.72558 c -28.92815,-3.20515 -16.99803,-13.64984 -2.59862,-30.02091 15.89488,-20.97462 60.25673,2.9078 28.89352,23.30245 -5.86972,8.83096 -17.10161,9.134 -26.2949,6.71846 z"
           style="opacity:1;fill:#c87137;fill-opacity:1;stroke-width:0.544835"
           id="path1008-5" />
        <path
           d="m 488.80172,710.72558 c -28.92815,-3.20515 -16.99803,-13.64984 -2.59862,-30.02091 15.89488,-20.97462 60.25673,2.9078 28.89352,23.30245 -5.86972,8.83096 -17.10161,9.134 -26.2949,6.71846 z"
           style="opacity:1;fill:#c87137;fill-opacity:1;stroke-width:0.544835"
           id="path1010-3" />
        <path
           d="m 386.60589,662.76495 c -26.3144,-5.64672 -19.07733,-31.94803 5.86997,-28.93579 35.67221,2.67491 22.55433,32.68534 -5.86997,28.93579 z"
           style="opacity:1;fill:#c87137;fill-opacity:1;stroke-width:0.544835"
           id="path1012-1" />
        <path
           d="m 694.22646,238.27938 c -26.06807,-6.09101 -46.62205,-40.10449 -31.56254,-61.69072 28.98894,7.9619 63.58749,24.02077 43.85403,59.55995 -3.05929,3.24947 -8.30507,3.38539 -12.29149,2.13077 z"
           style="opacity:1;fill:#c87137;fill-opacity:1;stroke-width:0.544835"
           id="path1014-4" />
        <path
           d="m 696.38388,507.17258 c -28.22953,8.70315 -33.10226,-59.18239 -5.51316,-31.37526 16.82456,-5.58085 20.73142,43.23946 5.51316,31.37526 z"
           style="opacity:1;fill:#c87137;fill-opacity:1;stroke-width:0.544835"
           id="path1016-7" />
        <path
           d="m 672.14816,697.2973 c 14.54284,-20.16696 -19.26536,-74.23387 18.24266,-70.90674 10.41461,29.14037 15.91249,56.95256 -18.24266,70.90674 z"
           style="opacity:1;fill:#c87137;fill-opacity:1;stroke-width:0.544835"
           id="path1018-1" />
        <path
           d="m 454.61523,699.49827 c -35.63518,-3.57963 -2.07673,-31.3356 13.95141,-34.80767 33.0957,2.06539 5.86156,41.85843 -13.95141,34.80767 z"
           style="opacity:1;fill:#d38d5f;fill-opacity:1;stroke-width:0.544835"
           id="path1020-3" />
        <path
           d="m 584.61185,723.19354 c 17.87299,-14.11931 22.07606,-70.08492 53.08116,-48.88132 7.77164,33.81505 -34.87292,56.55763 -53.08116,48.88132 z"
           style="opacity:1;fill:#d38d5f;fill-opacity:1;stroke-width:0.544835"
           id="path1022-5" />
        <path
           d="m 703.79929,667.44739 c -4.7037,-15.89699 -15.23377,-69.29963 10.81287,-40.36718 4.48412,12.07049 -0.0561,37.12483 -10.81287,40.36718 z"
           style="opacity:1;fill:#d38d5f;fill-opacity:1;stroke-width:0.544835"
           id="path1024-7" />
        <path
           d="m 694.74951,428.423 c -25.52304,5.37081 -40.57694,-57.32876 -16.28188,-45.82871 11.73831,10.96838 38.31299,5.93876 29.60382,32.35301 -0.83763,10.44047 -0.65083,17.52017 -13.32194,13.4757 z"
           style="opacity:1;fill:#d38d5f;fill-opacity:1;stroke-width:0.544835"
           id="path1026-9" />
        <path
           d="m 697.20127,345.57303 c -29.21076,-5.32582 -40.74595,-32.52083 -35.86709,-59.62416 -5.27406,-25.6779 28.80121,8.93312 41.89673,7.9866 9.16877,5.70116 14.81829,58.29698 -6.02964,51.63756 z"
           style="opacity:1;fill:#d38d5f;fill-opacity:1;stroke-width:0.544835"
           id="path1028-4" />
      </g>
      <path
         d="m -11.609059,268.04212 c 7.9043154,-6.58514 21.665196,-15.49348 30.530283,-5.80932 1.901613,8.65336 -9.8407352,13.10062 -14.2852762,19.11273 -7.4276329,6.45372 9.9418772,-3.5617 10.9259892,-7.35128 9.880915,-5.2465 5.951116,-18.58265 -4.866974,-18.10258 -7.2198556,-0.5859 -22.567817,6.62202 -22.304022,12.15045 z"
         style="fill:#000000;fill-opacity:1;stroke-width:0.264583"
         id="path1470" />
      <path
         d="m -11.02513,267.78267 c 2.1328927,-5.31872 -5.804627,8.73743 0.750981,-1.50625 -10.523093,3.75582 3.8786782,4.17504 1.9214333,-1.56344 3.4870343,0.53814 10.8522482,-6.54335 16.0203364,-5.76835 3.5797593,1.63703 14.1948263,1.3565 10.3684783,7.60479 -3.507928,6.65737 -14.2082747,12.12961 -15.2263661,17.71552 5.8384272,-5.11783 24.0564881,-16.61222 15.1699041,-24.21397 -7.000976,-3.33395 -14.931166,-3.64809 -21.8194437,0.64825 -4.0625498,2.69583 -11.5163703,8.96959 -7.9964003,8.01513 0.440809,-5.5857 -4.577366,7.59691 2.771896,-1.88823 1.0888885,-2.99845 -5.898645,-0.40321 -1.960819,0.95655 z"
         style="fill:#000000;fill-opacity:1;stroke-width:0.264583"
         id="path1472" />
      <path
         d="m 12.866139,257.31962 c -6.4349824,-0.88075 6.643798,2.84185 -1.836398,2.50538 7.914821,0.37875 -4.0999646,-1.2415 4.084114,0.54556 2.700405,-6.12567 -9.8043043,-1.87304 -2.247716,-3.05094 z"
         style="fill:#550000;fill-opacity:1;stroke-width:0.264583"
         id="path1474" />
      <path
         d="m 1.053967,281.12265 c -10.5036919,-9.34326 -14.191188,-17.34074 2.5680931,-21.43793 12.7504559,-3.01384 21.0733649,7.41318 6.7590419,15.34783 -2.5737215,0.57663 -6.4558358,10.05848 -9.327135,6.0901 z"
         style="fill:#550000;fill-opacity:1;stroke-width:0.133635"
         id="path1476" />
    </g>
  </g>
</svg>
