<svg xmlns="http://www.w3.org/2000/svg" width="1029.789" height="1585.087"><g transform="translate(-198.308 -232.403)"><path d="M813.905 1814.429c-60.361-12.905-122.085-28.18-186.469-16.25-66.77-14.898-141.85-1.791-207.04 5.916 10.048-18.984-25.666-4.63 11.793-19.393 32.035-.361 103.228-127.71 61.163-70.025-46.03 37.36 42.343-48.017 24.24-79.984-3.683-59.463 28.423-155.11-40.798-179.189-28.616-28.463-117.284-75.103-105.4-99.436 32.813 27.553 61.99 52.813 14.733 5.927-41.99-34.454-63.65-107.427-88.9-137.388-78.032 62.401-66.655-97.444-59.753-143.625 24.398-64.35-23.89-115.936-35.102-175.855-13.444-44.212 7.08-101.621 52.494-99.67-15.562-74.774-11.498-152.07-10.9-227.716 23.049-75.646 79.348-135.398 133.045-190.666 71.894-37.936 138.779-87.75 219.783-106.47 81.657-25.275 165.93-45.97 251.683-48.202 69.49 13.25 159.203 24.129 195.744 91.306 1.607 61.039 30.61 96.224 72.13 136.95 16.572 61.141 46.456 53.11 39.924 126.344 6.675 40.031-8.715 176.366 1.75 152.144 70.188-65.85 87.324 75.43 52.866 119.426-32.54 66.27-14.993 136.496-6.827 205.589 33.733 64.195-81.694 113.557-85.087 46.693 22.3 37.998 100.468 27.413 76.374-38.99.59-58.222-30.482-117.77-2.224-174.203 13.606-50.02 61.352-160.628-19.542-169.047-21.872 22.553-23.98 81.435 11.81 40.78 44.832 52.343-4.29 122.202-24.581 174.442-44.347 39.132-28.809 98.99-40.474 154.203-25.87 48.306-36.163 105.46-58.68 154.242-33.983 69.103-67.214 141.677-129.178 190.874-73.562 67.005 122.68-77.665 72.858-43.788 45.656-35.655-67.479 61.2-91.843 68.456-53.724 8.23-43.706 55.098-43.357 93.973-6.78 69.79 23.387 129.875 49.346 190.086 16.867 31.816 92.229 69.463 17.974 53.803-42.412-12.22-80.093 21.869-123.555 8.743m36.62-5.48c36.384-23.434 125.461 6.592 63.204-46.55-43.683-71.142-62.216-154.446-58.667-237.708 4.446-27.639-17.207-18.392-6.852-29.278-60.458 20.36-125.95 38.166-187.74 42.04-45.614 4.442-96.355-56.128-131.094-46.358-7.026 40.139 117.917 94.505 73.176 90.312-33.961-16.567-95.57-87.736-58.158-12.043 3.89 37.786 122.532 71.278 36.663 53.865-23.544-14.225-61.626-66.644-47.844-30.901-4.748 27.258 120.358 99.346 34.602 61.36-29.263-27.333-50.903-65.38-30.622-3.122 8.15 36.593 117.126 108.986 32.13 63.119-36.377 20.252-61.517-61.428-15.533-9.081 20.343 19.322-38.612-85.624-32.639-23.031-1.034 51.02-136.258 121.65-28.384 109.953 76.018-19.687 151.836 5.64 230.169-6.143 41.769 12.265 85.944 19.105 127.59 23.566m-324.398-33.106c-48.547-4.41-56.152-49.658-8-11.38 20.72-1.193 44.62 13.326 8 11.38m19.878-13.058c-47.924-3.586-43.966-88.42-16.17-19.772 10.861 10.128 56.636 18.46 16.17 19.772m16.58-9.412c-38.283.75-64.516-85.37-22.566-27.123 3.34 15.407 67.415 24.207 22.566 27.123m154.248-235.332c46.82-10.39 86.167-6.67 50.376-25.002-6.139-46.688 14.535-57.56 16.092-20.162 13.78-41.62 28.228 1.692 36.157-12.666-22.615 34.06-18.836 57.361 4.14 34.515 28.344-30.55-30.835 26.03 3.435-26.334 6-60.356 11.44 51.338 16.331-15.629 20.247-70.177 2.336 64.459 22.122 4.205 13.215-39.324 8.37 16.352 26.569-32.399 21.775-21.727-19.982 55.533 14.739 12.881 25.318-31.53 45.942-54.976 73.193-78.769 39.334-65.285 83.74-127.749 105.406-201.995 34.083-61.608 7.065-87.49 31.505-157.2-3.956-28.82 19.2-152.096 21.489-74.724 11.186-29.508 8.967-81.346 5.04-106.766-3.23 32.477-32.235 134.691-17.367 47.163 5.76-29.39 29.991-125.35-.712-99.413 3.98-32.983 28.968-61.178 19.455-94.255-4.3 39.233-40.176 106.08-16.779 30.417 9.743-35.235 22.271-163.722 3.955-61.268-21.805 72.102-23.175 13.57-8.18-35.645 11.417-54.86 4.46-24.735 13.407-14.91 2.66-58.047-29.108-131.803-75.978-172.656-12.769 1.429-32.503 50.51-27.227-3.749-1.826-54.57-46.103-1.632-19.874 33.773-23.317 39.259 8.59-89.487-47.818-81.138-64.92-46.107-145.347-27.561-216.849-10.762-80.876 21.145-165.716 35.436-240.503 73.616-33.15 15.046-95.168 66.716-101.944 77.53 11.012-33.474 123.34-86.95 40.608-53.217-24.133 12.202-107.997 93.026-49.854 31.801 46.383-36.017 90.133-76.71 143.843-102.15-63.844 24.445-116.492 69.315-170.765 109.629 71.712-65.207 156.274-118.877 251.282-143.01 35.668-18.281 148.699-38.402 149.204-41.261-47.931 1.697-97.952-3.216-144.756 6.28-62.228 24.666-119.902 60.652-177.98 93.893-3.475-7.696-71.945 40.402-87.964 75.431 11.654-36.2 74.797-76.508 9.66-29.507-29.701 39.02-37.457 34.723-1.461-2.1C442.245 397.4 524.67 354.8 607.334 315.21c-63.966 7.593-133.075 40.242-172.959 90.454-18.342-14.806 122.588-88.266 27.81-39.127-49.87 23.228-106.902 86.598-133.963 109.31 52.11-64.51 123.307-111.347 197.616-147.152-62.851 12.86-119.648 43.734-163.23 91.257-16.881 32.016-93.265 95.474-32.428 33.684 15.811-24.69 115.296-109.638 38.08-52.152-56.914 47.917-92.312 112.168-105.77 184.431-6.427 55.24-16.62 93.267 28.186 118.847 23.195 43.758-32.092 9.94-2.625 57.125 4.065 40.498-51.888-70.316-15.529 11.49 12.757 23.31 46.636 141.53 41.738 74.673-2.532-35.332 66.277-16.564 49.144-69.703 40.231 11.198 22.439-8.76 38.838-26.799 46.712 22.552 14.887-.404 29.372-18.172 23.623 27.112-7.853-45.642 33.81-6.676 27.792 4.985 33.822-16.39 57.084-11.162 19.036 36.893 4.063-43.567 26.62 9.224 30.963 62.85-15.98-62.034 25.412-.547 18.034 50.969 25.628-37.156 35.11-11.683 29.993 39.885 32.66 101.251 40.735 144.006-14.785 60.47-37.346 151.98 3.561 198.305-36.86 9.374-94.898-4.417-96.107 63.868-8.906 45.116-18.687 99.33 22.075 37.604 50.831-60.527 98.284-.546 139.14 22.55 34.264-28.652 109.328-104.882 140.1-44.207 50.997 74.23 21.19-60.585 1.624-72.645-25.743-24.703-97.35 7.548-61.561-52.443 6.063-41.52.221-72.146-3.584-12.282-15.2-1.671-1.39-105.14-32.58-138.459-7.539-35.661 28.224-145.052 51.212-129.575 4.034 14.721-19.052 91.022.897 24.935-5.576-35.833 32.566-81.181 29.084-24.094 8.712-46.107 23.663 20.1 32.503-34.45 33.57-23.592 22.35 18.933 57.8-5.96-48.339 70.672 74.903-65.369 30.442 13.011-15.556 21.693 72.515-37.957 54.072 1.037 52.739-31.98 24.3 19.671 75.58 1.876 24.576-.77-26.08 74.935 4.164 29.655 33.433-47.523-25.788 66.131-21.208 10.863-30.689-15.031-57.28 22.284-54.439-8.757-18.919 15.674-37.618 33.771-24.719-1.348-27.78 38.46-40.157 5.84-33.168 7.48-20.895 11.614-42.045 26.987-22.52-10.073-39.441 38.07-34.623 8.173-60.493 22.922 6.668 54.225-6.38-13.052-30.545 18.47 5.78-46.748-46.783 40.396-18.672-17.642 4.184-28.286-3.016-72.304-3.742-22.284 8.827 49.93-89.467 93.593-42.458 147.2 19.79 51.727 35.582 99.87 16.275 155.88 65.188-9.85 109.317 46.03 102.28 103.47.033 43.113-69.934 41.026-57.692 35.649-43.307-21.742-18.037 2.003-17.718 14.248-18.502 3.425-29.62-49.103-35.651 3.06-4.531-3.913-4.13-51.378-21.981-5.566-22.25 29.375 22.964-51.6-17.7-10.89-38.516 64.443-97.454-55.42-100.487 16.64-23.59 1.325-33.388-40.517-31.276 9.417-13.751-35.504-45.416-5.331-48.931 29.426 26.095-54.824-44.925-50.07-33.417-36.334-23.097-45.843 47.962-148.082 37.53-135.963-64.01 14.375 66.117-8.19 43.386-33.82-6.704-43.65.338-96.419 6.656-131.833 23.123-49.142-30.464-102.566-59.257-119.27-33.044-6.044-60.69-19.53-98.094-6.618-19.844 10.93-44.383 25.768-36.27 26.443-37.877 3.79-55.625 20.14-85.51 46.434-9.736 29.365-47.138 48.508-5.211 87.338 27.465 14.237 64.929 80.312 16.636 43.541-37.96-29.5-73.3-134.19-83.897-121.89 23.036 56.498 53.76 118.172 93.175 169.187 18.278 21.177 83.16 68.383 20.605 36.163-43.595-28.694-77.955-116.376-97.77-133.946 36.47 65.883 57.014 162.172 133.604 190.034-48.78 22.836-90.534-81.887-115.521-124.29-27.489-38.868 48.057 99.076 37.063 79.15 6.352 41.043 71.9 116.825 73.895 94.824-65.352-22.933-90.02-120.337-121.769-152.967 12.112 33.958 34.394 85.726 10.877 66.086 3.532 42.883 72.47 121.998 55.867 137.52-25.039-22.395-50.996-106.624-60.514-113.294 8.528 47.995 49.674 121.594 52.714 147.056 9.3 38.693 3.41 82.2 45.048 114.396 36.997 38.086 83.62 94.811 124.124 107.305 33.014 25.405 72.118 10.543 62.075 16.938 16.903 36.758.931-39.171 36.24.307 24.19 19.042-4.39-24.631 31.753-24.164 23.377-55.828 10.155 62.845 20.736-5.537 24.325-25.44-22.095 94.841 38.117 61.816m-20.88-6.828c-9.55-27.865 16.556-123.633 13.972-42.425-1.007 9.99-2.864 49.507-13.971 42.425m29.362-1.18c-40.81-9.499 33.758-116.07 3.65-40.502-20.73-13.393 28.635 61.475-3.65 40.501m16.358-13.613c-16.18-55.809 24.583 10.588 0 0m11.023-29.278c-1.292-94.032 21.372 35.218 0 0m71.443-48.323c-24.423-36.101-81.425-37.654-120.679-25.551-35.92 20.062-53.988 21.362-8.225-2.68 43.418-18.926 106.591-18.66 137.215 20.473 5.17 3.988-6.719 18.133-8.31 7.758m-302.129-47.724c-40.277-31.134-31.214-25.871 3.39-24.836 33.497-48.265 134.253-22.02 115.558-83.202 48.049-32.629 89.5-8.641 78.248 49.59 54.396 45.027-26.846-96.828 52.155-81.03 70.449-42.117 7.798 79.927 62.813 64.117 35.415-17.182 84.43-35.555 103.11 14.823 61.165-46.964-69.701 76.004-8.215 9.16-32.821-71.144-107.694-2.813-163.915-6.306-68.97 48.8-158.767-46.949-226.36 27.611-34.079.254 12.185 47.69-16.784 30.073m232.748-54.943c45.393-1.626 66.004-61.263 33.302-82.758-62.98-7.91-46.858 68.76-33.302 82.758m-45.124-1.723c20.756-52.101-41.859-76.443-62.647-41.828-7.72 30.72 52.993 59.138 62.647 41.828M563.46 1220.97l10.95-11.694c11.53-7.82-32.838 42.76-10.95 11.694m33.334-12.917c10.476-52.51 7.812 32.109 0 3.624zm-132.667-288.67c-34.497 3.643-122.126-41.287-102.905-60 26.493 27.164 113.522 87.288 103.29 8.297 15.532-67.525 99.412-26.521 50.447 26.75-59.209 50.135 83.618 2.267 78.53-10.689-26.331 45.19-84.676 41.438-129.362 35.641m38.16-16.1c18.393-22.679-31.801 16.58 0 0m-2.16-7.189c6.821-9.536-9.95 9.697 0 0m1.269-6.035c32-67.162-39.707 20.71 0 0m-5.152-25.485c22.142-48.6-38.631 52.866-5.37 6.886zm-18.31-2.176c43.986-56.176 5.197 31.49-7.855 18.363l3.307-8.144zm29.229-15.637c26.207-13.166-40.88 10.073-9.144.581zm361.195 70.707c-46.756-41.686 41.981-133.394 100.364-130.777 45.945-1.586 183.017 1.856 89.97 53.97-46.671 51.867-121.2 80.524-190.334 76.806m43.417-8.022c67.92-9.108 130.547-42.815 170.215-99.352-64.12-19.173-158.605-36.583-200.107 31.411-29.961 41.275-39.617 78.237 29.892 67.94m24.352-18.614c-77.212-49.626 80.854-136.682 34.745-18.944-7.994 10.562-19.826 23.237-34.745 18.944m19.85-9.347c14.844-22.558 14.667-53.133.178-9.559-56.913 15.636 31.55-88.729-18.565-46.07-6.12 18.244-16.828 64.486 18.386 55.629m-1.244-19.39c5.99-34.572-8.756 17.274 0 0m-9.222-10.233c41.147-29.278-6.731-23.082 0 0m-364.97 25.232c-34.724-77.793-135.596-61.526-199.518-34.48-66.722 25.235 55.42-33.622 83.224-29.232 42.72-18.59 148.142 35.991 116.294 63.712m102.517-112.64c-13.732-4.9-56.909-139.09-11.556-61.026-1.062 12.787 37.005 64.733 11.556 61.026m39.069-4.908c-6.51-33.497 83.163-139.558 42.676-69.66-13.799 19.235-26.948 63.914-42.676 69.66m374.667-290.785c6.25-7.585 1.03 6.53 0 0m-420 1042.167c7.224-46.941-14.472 24.788 0 0m178.666-13.5c-1.612-4.875-3.288 4.75 0 0m-17.921-4.625c5.832-7.004-15.025 6.843 0 0m-158.935-4.62c-6.126 2.196 1.135 8.247 0 0m178.456-3.14c-2.009-15.73-17.925 18.8 0 0m17.14-6.084c49.117-34.616-28.757 7.566 0 0m-82.17-6.865c-1.572-7.665-4.352 17.883 0 0m108.097-3.362c47.697-42.32-52.583 30.842 0 0m-22.615-3.362c5.375-8.22-9.19 8.428 0 0m4.692-10.144c4.282-15.625-8.379 12.985 0 0m16.167-2.634c39.92-36.118-15.911 5.356 0 0m3.926 1.169c4.331-6.627-7.585 8.418 0 0m26.932-15.667c59.115-66.681-33.29 13.16-13.973 10.79l7.186-4.87zm14.123-6.822c56.14-54.673 83.008-129.438 118.03-197.844-31.7 66.505-79.787 123.024-113.523 187.571-2.328 2.165-27.927 32.536-4.507 10.273m-7.623-17.178c-14.276 7.723-10.322 16.708 0 0m-571.523-109.381c-12.513-45.297-44.322-114.466-64.441-139.68 13.138 44.967 39.042 117.09 64.441 139.68m-82.757-70.087c34.786-41.034-12.292-111.264-5.306-164.352-21.525-12.292-23.096-80.603-26.512-14.084-.11 50.783-35.098 166.295 31.818 178.436m371.345-47.258c-3.032-40.653-25.253-9.671 0 0m-46-7.6c-9.327-3.065-27.838 16.035 0 0m136.718-6.455c51.015-47.495 2.052-14.333-24.052 9.621 9.037 3.718 17.868-4.851 24.052-9.62m1.338 5.67c7.385-9.074-13.989 8.505 0 0m-175.675-9.177c.835-10.34-6.092 14.159 0 0m-251.598-2.712c-7.403-35.3-37.246-91.694-14.083-24.39 1.722 1.07 13.59 35.876 14.083 24.39m298.217-3.883c-7.343-2.164-1.333 2.334 0 0m223-8.45c-6.54-4.36-9.199 5.554 0 0m-191-2.467c-5.988-15.65-31.085 14.876 0 0m-38.334-4.381c14.765-12.086-25.625 12.663 0 0m10.17-3.485c4.979-6.089-8.98 7.244 0 0m16.497-.334c17.79-7.846-25.385 4.67 0 0m154.027-6.032c4.42-8.795-12.035 7.905 0 0m-497.36-45.222c-2.37-9.05-4.123 7.207 0 0m-13.164-50.832c5.088-37.642-15.454-78.723-15.83-20.25 4.615 5.107 7.734 44.479 15.83 20.25m841.17-10.312c8.088-53.71-15.763 60.578 0 0m-852.18-62.293c-6.778-27.185 10.751-92.184-13.003-96.975-7.548 10.529-6.33 178.406 13.004 96.975m-24.005 6.228c-33.781-57.623 55.265-127.764-6.49-159.488-58.904 23.335-20.461 117.412 1.335 159.882 1.84 5.817 11.038 19.147 5.155-.394m899.427-17.1c3.669-12.978-12.864 21.02 0 0m10.063-20.329c22.062-64.964-8.27-14.738-17.311 19.78l7.262-6.475zm-862.648 10.55c-12.86-37.037-1.64 17.613 0 0m865.251-49.823c39.623-38.264-4.658-56.885 0 0m11.608-48.497c58.893 11.442-.11-134.725-11.629-34.491 4.387 11.386-12.82 62.435 11.63 34.491m-522.189 4.172c-4.628-2.299-2.2 6.225 0 0m-312.85-12.603c-27.38-18.666.105 29.032 0 0m442.585-13.573c-6.77-2.543-8.533 17.607 0 0m-405.382-6.464c1.177-9.076-6.961 2.691 0 0m257.759-13.21c-17.574-41.194 8.423 42.3 0 0m165.21-14.808c6.86-46.1-17.357 61.233 0 0m-414.519 1.928c-10.003-21.882-16.49 6.88 0 0m33.864-28.368c-3.112-4.58-3.84 2.54 0 0m30.666.064c-.607-3.58-7.884 1.195 0 0m420.986-18.934c-9.53 6.847-4.614 27.798 0 0m8.305 7.628c-2.33-4.747-5.258 12.006 0 0m-318.537-1.836c-18.665-32.781-17.4-17.538 1.751 3.922zm589.173-6.667c1.878-48.146-16.343 23.024 0 0m-612.458 4.115c-5.872-15.821-10.632 2.401 0 0m460.687-14.314c16.09-38.821-37.757 45.999 0 0M945.46 749.43c4.232-9.569-8.834 9.847 0 0m64.134-4.977c-10.664 3.066-8.9 11.66 0 0m-82.606-3.848c9.513-25.433-29.626 27.485 0 0m114.677 2.754c9.128-24.063-26.455 21.487 0 0m-145.82-2.934c5.642-15.871-15.477 16.52 0 0m-30.307-.573c-.219-13.146-10.6 13.546 0 0m38.18 1.91c10.681-14.856-11.262 7.111 0 0m-380.837-3.14c-6.212-17.409-10.233 2.011 0 0m447.108-3.239c15.435-17.789-27.008 17.444 0 0m114.104.78c6.342-16.44-12.09 13.987 0 0m-65.3-1.4c-4.595-6.345-7.955 7.611 0 0m61.455-3.657c-9.555 2.95.836 3.958 0 0m-122.081-1.75c.547-11.845-10.652 12.048 0 0m114.606-1.627c-5.605-17.424-10.76 18.188 0 0m-181.276-1.1c3.152-22.447-12.152 20.3 0 0m73.525 3.26c8.39-12.127-10.905 7.212 0 0m-55.371-8.856c33.215-50.41-25.95 26.593 0 0m65.81 3.636c-6.983 1.185-7.296 6.407 0 0m86.6-4.48c3.09-17.886-23.532 15.623 0 0M941.73 718.51c11.587-21.23-27.197 17.41 0 0m-680.492-1.845c-6.368-7.33-1.073 12.759 0 0m774.812-4.473c38.644-40.308-45.57 29.967 0 0m-752.59 6.517c-8.361-24.616-27.001-14.623 0 0m690.063-5.47c17.935-16.902-31.727 19.21 0 0m-81.228 3.17c13.012-31.384-7.284-12.185 0 0m93.215-7.646c28.469-30.713-35.009 30.99 0 0m35.454 5c4.978-6.088-8.98 7.244 0 0m65.163.333c-8.42-7.486-2.28 5.6 0 0m-182-.666c-1.612-4.875-3.288 4.75 0 0m92.926-5.338c30.512-14.778-4.631-17.155-8.248 6.274zm-52.55-4.82c-.712-10.53-16.778 26.337 0 0m62.106 5.49c-1.154-7.042-3.165 6.997 0 0m21.614-4.126c21.565-13.325-23.224 10.915 0 0M263.865 692.26c-17.387-24.212 7.58 29.227 0 0m695.453 5.909c31.63-34.28-26.04-.867 0 0M272.68 535.429c-3.763.579-2.774 11.565 0 0m197.25-95.298c44.332-16.743 93.79-56.721 97.53-42.018 99.335-29.922 199.857-57.737 303.086-70.684-67.203-32.24-142.94-.924-210.586 15.874-76.773 20.75-148.95 53.699-211.166 104.142l9-3.438zm35.53-11.963c21.585-18.23-39.916 25.712 0 0m541.941-24.263c-8.577-1.448-3.132 27.518 0 0m2.726-19.916c-1.687-82.102-80.75-120.737-152-132.387-86.416-25.433-175.096 3.621-259.59 22.268-44.749 13.651-159.711 46.386-157.14 63.268 67.653-22.12 137.773-37.192 206.743-55.698 87.265-6.129 188.405-57.98 265.179 8.468 21.914 41.058 92.252 62.16 96.808 94.081m-16.013-4.894c-14.338-47.386-68.658-26.751-16.732.376 3.057-1.582 14.343 6.239 16.732-.376m-55.57-33.953c-30.903-24.883-71.38-40.48-112.224-36.272-7.657 9.998 109 35.306 112.225 36.272m-12.417-24.884c-31.717-65.903-153.979-60.986-178.269-47.015 61.674-5.123 119.688 10.204 162.063 43.373 4.558-6.306 11.595 8.93 16.206 3.642m-321.333-17.54c33.589-8.09 66-21.39 11.866-8.045-22.942 4.862-58.031 16.027-11.866 8.044m78-2.099c48.924-3.887 161.457 9.935 171.408-6.391-73.552-18.428-154.939-20.436-226.075 8.485 18.226-.485 36.52-.037 54.667-2.094m383.333 857.57c7.296-6.407 6.983-1.185 0 0" style="fill:#000;stroke-width:1.33333"/><path d="M841.04 1806.552c-18.332-1.668-59.978-8.635-83.89-14.034-23.695-5.35-33.643-6.104-98.27-7.446-108.893-2.26-131.569-1.835-155.332 2.91-23.053 4.604-46.396 4.029-49.641-1.222-3.18-5.146 3.023-14.422 26.65-39.854 33.873-36.462 40.242-47.16 41.493-69.7.387-6.987 1.414-13.413 2.28-14.28 2.514-2.514 15.766 11.376 23.317 24.44 9.174 15.871 8.764 17.55-1.785 7.305-10.656-10.35-17.608-11.23-17.608-2.23 0 4.117 3.275 9.55 9.53 15.804 8.886 8.886 10.32 9.474 21.224 8.706 9.127-.643 14.922.717 26.395 6.195 8.085 3.86 15.429 6.29 16.32 5.399.89-.891-10.198-13.757-24.64-28.59s-28.613-30.826-31.488-35.538c-5.238-8.583-14.855-36.257-14.913-42.912-.017-1.948 8.867 5.182 19.743 15.845 19.34 18.962 33.35 27.317 45.588 27.19 5.894-.061 1.076-5.134-32.674-34.4-18.025-15.63-26.595-27.303-29.17-39.73-1.698-8.193-1.52-8.093 18.356 10.41 11.039 10.275 22.768 20.088 26.065 21.807 7.981 4.16 33.553 7.338 33.553 4.169 0-1.32-9.752-8.124-21.671-15.12-32.999-19.37-44.271-33.203-55.025-67.521-3.03-9.672 1.874-8.53 18.362 4.277 29.79 23.139 47.324 34.671 52.718 34.671 10.256 0 6.11-7.934-10.622-20.33-33.822-25.056-51.737-40.786-58.376-51.254-9.637-15.197-9.172-19.496 2.11-19.493 9.696 0 26.47 7.355 56.924 24.956 28.597 16.526 42.257 20.97 64.016 20.828 34.225-.224 89.9-11.05 150.12-29.192l31.975-9.633 5.774 6.23c5.552 5.99 5.776 7.588 5.818 41.46.024 19.376 1.634 46.415 3.577 60.085 9.564 67.286 35.942 135.58 63.712 164.95 11.645 12.315 14.17 18.146 9.19 21.224-1.414.874-15.166 2.644-30.56 3.932-15.392 1.288-33.38 4.142-39.97 6.342-6.592 2.199-15.22 3.704-19.175 3.344m-296.982-32.066c2.33-3.772-5.251-8.878-15.621-10.52-4.715-.748-10.19-2.368-12.167-3.602-20.186-12.592-31.159-15.124-31.159-7.188 0 5.93 13.885 17.21 25.714 20.89s31.068 3.922 33.233.42m19.654-15.815c-.531-3.164 1.21-4.38 7.086-4.946 12.21-1.177 9.232-6.305-7.89-13.582-12.934-5.497-17.576-9.128-26.505-20.733-11.518-14.968-17.736-17.878-17.736-8.301 0 4.715-.937 5.523-5.134 4.425-4.868-1.273-5.072-.693-3.93 11.189 2.161 22.497 17.52 36.142 40.682 36.142 12.129 0 14.032-.594 13.427-4.194" style="fill:#e3dbdb;stroke-width:2.39683"/><path d="M691.238 1518.389c-4.302-4.302-4.794-7.99-4.794-35.952 0-17.138-.45-31.16-1.002-31.16-4.82 0-8.618 4-8.778 9.245-.141 4.647-.94 3.46-2.996-4.45-1.542-5.933-3.86-10.786-5.15-10.786s-4.527 3.464-7.19 7.697-6.612 7.739-8.773 7.79c-7.662.18-14.778 8.6-16.232 19.204l-1.41 10.291-10.555-8.828c-13.736-11.488-19.246-10.725-24.504 3.393-3.838 10.304-4.09 10.505-5.638 4.486-1.554-6.038-2.438-6.345-21.208-7.354-18.153-.976-21.539-2.053-46.238-14.716-33.295-17.07-50.084-31.286-104.276-88.296-48.98-51.527-48.53-50.7-58.038-106.438-5.015-29.402-8.452-41.707-18.41-65.912-24.775-60.22-33.772-84.137-33.049-87.855.408-2.094 3.33 2.57 6.494 10.365 10.473 25.802 33.706 71.589 39.795 78.427 12.173 13.67 14.637-.982 3.953-23.508-3.751-7.91-14.087-27.166-22.969-42.792-13.269-23.346-27.73-54.86-27.73-60.431 0-.687 1.887-.932 4.194-.545 6.699 1.125 6.277-7.332-1.584-31.779-3.968-12.338-6.841-22.807-6.384-23.264 1.066-1.066 6.417 7.834 27.694 46.064 21.982 39.496 28.222 48.472 48.672 70 17.564 18.49 31.146 28.515 35.221 25.996 4.079-2.52 2.77-5.102-4.15-8.193-13.688-6.113-25.006-15.806-36.397-31.172-13.413-18.094-27.685-45.362-30.216-57.733-1.539-7.52-.189-6.332 13.029 11.472 21.211 28.571 42.173 40.626 59.001 33.931l7.166-2.85-8.335-3.53c-21.5-9.105-43.278-28.83-61.61-55.801-12.77-18.79-48.088-92.488-45.542-95.034.618-.618 4.657 5.142 8.976 12.8 27.2 48.228 55.635 82.122 77.046 91.84 10.957 4.972 18.679 6.094 18.679 2.714 0-1.134-9.847-11.061-21.883-22.061-24.38-22.283-40.089-42.175-61.392-77.743-21.499-35.894-57.68-110.313-54.956-113.036 1.44-1.44 6.815 7.388 28.111 46.169 30.023 54.672 44.276 73.145 64.508 83.607 9.287 4.802 12.95 2.71 11.137-6.358-2.117-10.586-14.104-26.5-31.609-41.963-30.375-26.834-32.204-36.804-12.889-70.27 9.87-17.103 16.448-25.214 29.047-35.82 18.189-15.31 37.46-25.671 53.226-28.617 5.776-1.079 12.709-4.012 15.407-6.52 7.14-6.632 30.116-20.164 40.576-23.896 13.914-4.965 36.719-4.03 66.124 2.71 23.318 5.344 28.5 7.474 39.974 16.427 17.182 13.408 36.716 38.718 43.206 55.981 5.783 15.383 5.526 31.51-.983 61.665-6.354 29.437-9.505 81.491-6.546 108.113l2.636 23.712-6.573 5.411c-7.304 6.012-26.76 13.897-44.253 17.935-6.3 1.455-11.455 3.462-11.455 4.462s3.498.815 7.774-.411c4.275-1.227 7.969-2.23 8.207-2.23s-4.936 10.2-11.498 22.665c-16.004 30.399-26.147 59.002-27.764 78.29-1.449 17.279.577 33.267 4.215 33.267 1.258 0 2.018-1.348 1.689-2.996-.397-1.985 3.258-3.243 10.836-3.728 9.955-.638 12.345.176 18.456 6.287l7.02 7.02-10.666 11.132c-5.866 6.122-10.622 13-10.568 15.284.07 2.915 2.953.995 9.682-6.45l9.584-10.6-1.31 10.6-1.31 10.602 3.504-7.19c1.927-3.955 3.553-9.438 3.612-12.184.06-2.747 3.884-9.218 8.499-14.381l8.39-9.388-1.468 12.277c-.989 8.266-.546 12.846 1.356 14.021 4.337 2.68 5.613-.01 6.8-14.316 1.283-15.47 4.519-16.763 13.482-5.39l6.139 7.79.026-12.791.027-12.791 10.06 7.398c13.724 10.093 20.11 9.829 22.125-.914 1.913-10.198 7.271-15.997 12.825-13.881 2.269.864 12.456 6.625 22.637 12.802 31.108 18.87 44.209 18.056 62.981-3.917 12.41-14.525 16.922-16.518 14.643-6.466-4.214 18.593-4.578 22.898-1.79 21.175 1.55-.957 5.51-7.057 8.803-13.555s6.94-11.815 8.105-11.815c1.164 0 3.41 5.393 4.992 11.984 3.13 13.044 7.19 16.01 7.19 5.252 0-3.703 1.4-8.647 3.112-10.987 2.878-3.936 3.847-3.52 12.9 5.534 14.75 14.749 22.577 12.093 13.887-4.711-2.632-5.09-2.847-7.072-.77-7.072 4.941 0 18.808 5.657 18.808 7.672 0 2.876 22.093 2.304 31.4-.812 12.14-4.065 23.809-13.661 27.576-22.678 1.838-4.398 3.341-15.467 3.341-24.598 0-52.62-37.401-93.39-85.966-93.706-14.64-.096-15.2-.319-13.796-5.493 5.213-19.21 6.945-47.821 4.118-68.029-3.586-25.633-16.997-68.18-28.071-89.054-4.46-8.408-8.1-18.703-8.087-22.878.035-11.072 9.053-28.517 28.088-54.329 23.166-31.413 25.333-36.202 27.12-59.92l1.533-20.373.327 19.174c.248 14.51-.826 21.717-4.413 29.623-2.608 5.747-4.742 10.87-4.742 11.385 0 3.207 6.755-.277 15.027-7.75 8.48-7.66 9.883-8.21 11.876-4.648 1.243 2.221 1.665 5.591.937 7.488-1.736 4.524 1.918 4.43 5.716-.145 4.472-5.388 12.844-4.342 19.175 2.397 8.35 8.89 10.436 7.527 8.86-5.789-1.644-13.874-.682-14.584 19.763-14.584 10.862 0 15.777-1.308 22.78-6.06l8.928-6.059-1.544 7.03c-2.205 10.037 1.97 11.265 15.508 4.565 11.234-5.56 11.826-5.614 15.408-1.43 4.798 5.603 10.266 5.489 19.951-.417 7.768-4.736 7.79-4.736 7.79.01 0 7.012 7.41 5.965 18.144-2.565 8.92-7.089 9.274-7.166 11.038-2.397 2.173 5.874 5.26 6.093 18.755 1.332 10.764-3.798 28.07-4.725 32.74-1.754 1.529.973 3.146 4.918 3.595 8.767.448 3.849 2.147 7.435 3.775 7.97 3.951 1.297 15.45-11.577 23.42-26.22 6.692-12.297 6.585-17.01-.26-11.33-3.6 2.989-3.808 2.412-2.313-6.438 2.247-13.3-.967-15.58-17.21-12.209-11.52 2.39-13.132 2.166-19.174-2.668-17.85-14.284-20.348-14.696-39.554-6.525-3.232 1.375-4.194.626-4.194-3.266 0-7.37-8.268-6.555-33.886 3.34-11.947 4.613-22.006 8.388-22.354 8.388s1.918-5.036 5.034-11.192c11.547-22.808 4.33-23.48-23.404-2.178-11.022 8.466-20.438 14.994-20.925 14.508-.486-.487 1.483-4.717 4.378-9.4 5.679-9.19 4.643-10.27-4.716-4.92-8.274 4.73-13.782 4.414-20.917-1.199-12.315-9.686-27.122-3.573-31.798 13.128-3.713 13.26-5.395 14.534-12.792 9.687-5.915-3.875-13.375-2.795-13.872 2.01-.156 1.506-.965-.382-1.797-4.196-.833-3.813-3.339-8.082-5.569-9.486-5.098-3.21-12.41 2.873-19.02 15.821-3.47 6.803-6.058 8.989-10.639 8.989-3.328 0-8.612 2.56-11.741 5.689-11.764 11.763-27.28 50.211-33.503 83.02-5.483 28.902-4.895 37.723 3.554 53.323 9.092 16.785 13.228 36.607 16.772 80.373 1.526 18.84 3.536 37.105 4.468 40.59 3.01 11.25 6.653 8.486 9.293-7.05l2.56-15.065-1.213 17.977c-.723 10.727-3.552 23.946-7.014 32.782-9.561 24.402-4.484 29.764 31.29 33.04 32.646 2.99 42.914 12.133 53.941 48.027 5.46 17.774 8.918 46.127 6.42 52.638-2.404 6.263-9.308.902-22.894-17.777-6.693-9.203-15.365-18.384-19.27-20.404-21.93-11.34-55.085 3.119-103.399 45.095l-20.56 17.863-20.186-14.573c-11.102-8.015-28.063-18.692-37.691-23.727-14.742-7.71-19.827-9.155-32.2-9.155-19.462 0-31.381 5.998-48.303 24.309-7.394 8.001-13.444 15.324-13.444 16.273 0 2.141-10.492 12.148-12.738 12.148-2.495 0-1.962-26.437.827-41.018 1.358-7.101 3.543-20.413 4.855-29.583 5.264-36.796 20.16-47.434 74.167-52.97 21.707-2.225 22.85-3.193 15.518-13.132-7.972-10.805-14.583-32.655-16.693-55.168-2.104-22.46 1.3-52.672 11.16-99.049l7.58-35.657-5.328-34.615c-2.93-19.039-7.446-42.9-10.035-53.025-7.441-29.098-25.713-64.798-31.373-61.3-1.342.83-5.53 8.392-9.304 16.806s-7.97 15.298-9.32 15.298c-1.352 0-5.065-5.123-8.252-11.385-6.65-13.063-16.703-23.412-20.478-21.08-1.607.994-2.096 6.733-1.3 15.232l1.278 13.638-7.813-15.05c-8.21-15.819-14.415-18.82-15.91-7.696-1.166 8.675-4.348 10.822-7.45 5.027-3.613-6.753-11.355-6.443-29.468 1.18-17.814 7.498-29.082 7.957-36.172 1.475-2.862-2.617-7.63-5.494-10.594-6.393-4.358-1.322-5.851-.426-7.79 4.674-1.32 3.47-2.399 9.067-2.399 12.439 0 5.251-.53 5.69-3.696 3.061-5.719-4.746-9.55.909-9.067 13.384.46 11.866-2.513 13.412-13.602 7.073-10.318-5.898-13.662-4.466-18.19 7.79-6.368 17.236-7.46 18.09-20.884 16.309l-11.719-1.555 1.603 9.483c2.606 15.428-3.095 23.276-23.74 32.685-21.944 10-27.736 16.926-27.736 33.162 0 7.606-.843 11.29-2.257 9.864-2.07-2.09-36.999-89.513-40.172-100.547-1.06-3.687.425-2.995 6.429 2.996 4.294 4.284 8.757 7.79 9.919 7.79 3.402 0 2.43-11.608-1.628-19.456-5.108-9.878-3.57-17.02 4.493-20.873 3.71-1.773 7.362-4.83 8.115-6.792 2.6-6.775-4.214-21.112-12.666-26.653-11.978-7.852-21.913-22.986-25.069-38.187-3.522-16.966.296-58.565 8.594-93.625 8.88-37.518 31.958-89.753 38.66-87.498 4.118 1.386 34.749-28.406 49.892-48.526 28.237-37.518 72.721-69.156 124.8-88.758 26.619-10.02 24.648-6.514-6.295 11.198-57.6 32.97-106.352 71.683-139.25 110.578-15.938 18.842-6.798 12.926 22.218-14.38 15.059-14.172 34.377-31.852 42.929-39.289 17.107-14.877 49.74-38.01 53.619-38.01 1.354 0-3.153 5.19-10.014 11.53-8.358 7.725-12.5 13.46-12.55 17.377-.062 4.787-5.322 9.325-29.009 25.022-28.536 18.912-42.513 30.811-54.269 46.204-11.527 15.093-2.336 11.179 12.815-5.458 8.405-9.227 15.31-16.077 15.346-15.22.035.856-3.711 7.166-8.325 14.022s-8.389 14.16-8.389 16.231 3.265-1.164 7.255-7.188c14.545-21.959 61.962-61.6 78.711-65.803 3.418-.858 27.562-13.787 53.652-28.731 50.524-28.94 89.843-49.333 114.183-59.223 20.959-8.516 43.876-11.102 96.908-10.934l45.966.145-44.341 10.637c-24.388 5.85-54.049 13.95-65.913 18s-31.607 10.488-43.871 14.307c-77.44 24.108-140.751 60.055-214.4 121.732-10.225 8.562-18.09 16.066-17.48 16.676s19.221-12.32 41.358-28.733c46.61-34.558 62.975-45.896 64.313-44.559.525.526-18.03 16-41.233 34.386-38.38 30.412-60.967 51.965-57.788 55.144.671.671 12.418-8.141 26.105-19.583 29.316-24.506 46.136-35.988 56.043-38.255 8.705-1.992 7.728-.97-14.602 15.267-17.391 12.647-39.326 34.25-39.326 38.73 0 3.773.639 3.366 13.366-8.516 6.49-6.058 21.273-18.407 32.85-27.441 57.763-45.074 102.375-63.368 234.166-96.025 107.16-26.552 130.683-31.077 169.023-32.511 42.033-1.572 61.033 1.996 91.127 17.116 11.891 5.973 24.418 10.861 27.836 10.861 15.34 0 24.762 20.513 27.467 59.796 1.885 27.366 3.616 32.063 9.61 26.072 3.734-3.734 3.74-4.698.086-13.83-5.08-12.695-4.982-25.617.27-35.906 10.71-20.981 19.77-14.23 19.77 14.735 0 23.928 3.794 26.636 16.546 11.81 4.742-5.511 9.865-10.004 11.385-9.984 7.312.098 40.07 40.471 37.747 46.523-.992 2.587-.163 3.848 2.531 3.848 5.642 0 21.852 35.566 28.722 63.022 5.7 22.773 10.713 61.325 5.875 45.171-1.327-4.429-3.022-7.442-3.768-6.696-3.247 3.247-15.398 62.162-16.76 81.26-1.336 18.747-1.061 20.973 2.59 20.973 5.351 0 12.435-16.175 18.134-41.408 2.448-10.841 4.543-18.049 4.654-16.016.391 7.165-7.284 61.2-10.71 75.4a9777 9777 0 0 1-6.848 28.156c-1.857 7.576-2.443 14.351-1.302 15.056 3.317 2.05 9.887-9.899 18.35-33.375 7.138-19.806 7.722-20.714 6.325-9.837-.847 6.591-5.692 23.628-10.767 37.859-10.827 30.36-11.551 36.305-4.134 33.95 11.117-3.528 11.955 11.938 3.122 57.62-13.05 67.48-15.136 86.697-8.196 75.469 2.416-3.909 10.825-34.158 15.622-56.195 3.1-14.24 3.15-13.88 3.06 21.472-.052 19.773-.814 39.188-1.695 43.142l-1.6 7.19-3.04-8.388c-2.846-7.855-3.251-8.105-6.362-3.93-5.428 7.281-15.548 62.921-15.577 85.638-.01 6.05-2.206 19.533-4.884 29.96-3.094 12.045-5.631 32.944-6.959 57.308-2.073 38.054-5.989 56.653-16.003 76.019-1.918 3.709-6.81 16.157-10.871 27.663-13.156 37.273-30.39 70.32-73.43 140.794-16.355 26.78-25.647 38.88-46.02 59.921-14.039 14.5-33.384 35.871-42.99 47.49-9.604 11.619-17.97 20.618-18.589 19.999-.62-.62.025-5.273 1.432-10.34 3.393-12.217 3.244-15.205-.756-15.205-1.837 0-5.882 5.124-8.988 11.385-4.567 9.208-6.686 11.24-11.08 10.629-4.588-.64-6.52 1.6-12.406 14.38l-6.973 15.138-.177-9.852c-.098-5.418-.865-14.865-1.705-20.993-1.236-9.017-2.146-10.627-4.776-8.444-3.239 2.688-6.028 11.502-9.4 29.702l-1.777 9.587-2.717-10.61c-3.52-13.746-7.517-14.878-9.468-2.68-.85 5.315-3.687 13.176-6.304 17.47-5.901 9.678-6.133 16.167-.582 16.273 3.518.067 3.283.84-1.464 4.794-13.692 11.406-16.6-.502-5.498-22.512 5.63-11.162 6.153-13.534 2.996-13.597-2.103-.042-5.918-1.66-8.477-3.595-6.553-4.957-15.148-4.37-18.673 1.275-3.762 6.023-6.634 6.15-6.634.293 0-2.475-1.742-5.945-3.87-7.712-3.318-2.753-4.515-2.415-8.39 2.37-3.512 4.337-4.518 9.509-4.518 23.229 0 17.33.135 17.719 7.466 21.51 9.596 4.962 6.866 7.576-11.172 10.698-7.849 1.358-16.697 3-19.663 3.65-4.387.96-5.393.139-5.393-4.403 0-3.071-2.639-12.317-5.864-20.547-5.695-14.532-5.737-15.09-1.452-19.375 4.604-4.604 8.998-23.214 6.152-26.053-2.818-2.811-12.56 10.712-17.794 24.7-8.564 22.889-5.386 44.37 6.563 44.37 1.544 0 2.808 1.078 2.808 2.397s-2.026 2.397-4.501 2.397-8.373 1.617-13.106 3.595c-11.112 4.643-12.601 4.546-18.346-1.199zm14.261-13.36c2.284-4.609 3.822-17.57 4.485-37.804.954-29.073.76-30.745-3.475-29.95-3.291.619-5.558 4.988-8.516 16.411-4.01 15.486-5.855 55.217-2.71 58.361 2.843 2.844 6.613.254 10.216-7.018m45.102-11.831c.754-5.613-7.73-20.349-11.717-20.349-2.777 0-1.436 19.236 1.694 24.3 2.397 3.878 9.339 1.142 10.023-3.951m12.165-25.159c1.113-7.622-1.708-29.156-4.387-33.49-3.55-5.746-5.748-.782-6.772 15.297-.994 15.607 2.299 26.472 7.504 24.759 1.558-.513 3.203-3.468 3.655-6.566m71.163-50.568c1.217-3.835-.61-7.309-7.617-14.485-21.76-22.283-61.802-31.04-102.507-22.417-17.733 3.757-41.96 14.16-51.742 22.217-10.926 9.001-2.985 8.366 18.422-1.473 46.45-21.349 101.912-16.284 125.776 11.487 9.007 10.481 15.296 12.144 17.668 4.671m-300.881-43.789c0-1.811-1.624-7.896-3.609-13.52-3.737-10.595-1.948-16.741 4.874-16.741 1.691 0 7.672-3.841 13.29-8.536 12.696-10.606 21.616-15.28 36.976-19.373 17.872-4.762 29.563-4.021 69.335 4.392 49.002 10.366 79.954 10.836 100.84 1.53 7.91-3.525 19.908-7.05 26.662-7.833 6.755-.783 27.595-6.258 46.31-12.167 55.142-17.407 70.652-16.987 88.52 2.399 5.435 5.895 9.881 11.885 9.881 13.31s-3.416 6.841-7.59 12.036c-4.176 5.195-6.92 10.118-6.098 10.94 1.88 1.88 31.419-23.89 38.038-33.187 6.32-8.874 4.229-10.954-4.654-4.629l-6.944 4.945-7.623-10.814c-16.428-23.307-43.948-25.88-83.957-7.85-30.466 13.73-36.129 8.995-38.064-31.826-1.054-22.238-2.049-27.484-5.952-31.388-5.186-5.186-13.646-4.597-26.569 1.85-3.975 1.982-9.14 2.997-11.48 2.255-8.235-2.614-23.403 3.427-27.242 10.851-4.215 8.152-4.703 33.764-1.116 58.583 2.833 19.598.831 23.66-8.923 18.111-5.831-3.317-6.275-4.785-6.506-21.536-.283-20.458-5.545-33.704-16.603-41.79-10.015-7.323-34.974-6.91-51.55.855l-12.39 5.802v12.24c0 20.584-9.875 28.615-45.716 37.175-30.486 7.281-51.826 16.377-62.707 26.728-9.409 8.95-10.197 9.227-22.248 7.81-15.807-1.857-18.61 1.633-9.205 11.461 7.156 7.478 26.602 21.211 30.034 21.211 1.092 0 1.986-1.482 1.986-3.294m8.062-453.274c9.047-1.917 20.912-6.124 26.365-9.35 11.73-6.937 29.49-24.63 27.11-27.01-.916-.916-3.003.11-4.638 2.281-4.01 5.328-35.479 19.552-53.65 24.252-16.785 4.34-34.408 5.01-34.408 1.308 0-1.374 4.712-7.576 10.47-13.781 13.64-14.699 18.292-24.194 18.292-37.345 0-25.178-28.933-38.159-50.727-22.758-9.846 6.958-16.384 22.787-16.384 39.667 0 27.919-14.706 34.342-45.392 19.826-16.362-7.741-41.446-24.696-49.055-33.158-6.495-7.223-11.014-6.44-11.014 1.909 0 12.988 32.995 35.907 69.164 48.044 26.367 8.848 85.882 12.044 113.867 6.115m400.307-9.48c39.322-9.976 76.521-30.019 106.198-57.22 7.663-7.023 19.072-16.26 25.354-20.526 20.284-13.774 23.829-26.224 9.795-34.397-14.647-8.529-40.113-12.088-88.483-12.365l-45.696-.261-21.208 10.496c-26.567 13.15-54.27 39.33-64.98 61.408-9.375 19.326-9.863 41.493-1.181 53.666l5.795 8.125 25.78-1.565c14.178-.862 36.06-4.174 48.626-7.362M586.133 872.62c4.042-8.871.366-18.323-11.387-29.28-19.586-18.257-60.274-34.412-86.67-34.412-19.691 0-52.388 6.772-76.924 15.934-27.037 10.094-52.997 22.768-49.27 24.052 1.432.494 14.375-3.31 28.762-8.45C453.08 818.15 498.007 815.7 534.36 832.63c18.219 8.484 29.065 17.996 38.235 33.53 3.955 6.7 8.023 12.202 9.04 12.228s3.041-2.57 4.498-5.768m106.619-110.388c3.796-9.893-31.39-85.13-39.814-85.13-8.872 0 12.183 69.035 25.768 84.488 4.504 5.123 12.192 5.474 14.046.642m37.223-7.832c6.7-7.266 48.564-86.668 46.686-88.547C768.228 657.421 720 734.27 720 756.14c0 6.58 2.746 6.101 9.975-1.738" style="fill:#e3dbdb;stroke-width:2.39683"/><path d="M270.476 1229.79c-10.149-4.413-19.05-15.764-24.08-30.704-5.463-16.23-5.517-47.96-.164-97.745 2.197-20.433 4.635-44.585 5.418-53.672l1.424-16.52 5.72 14.075c3.147 7.741 7.726 16.793 10.176 20.116 2.983 4.046 4.903 11.977 5.816 24.017.749 9.887 4.88 32.537 9.18 50.333 9.753 40.366 10.843 68.067 3.248 82.544-5.848 11.148-7.138 11.73-16.738 7.556" style="fill:#000;stroke-width:2.39683"/><path d="M1113.09 1113.848c2.009 5.248 5.53 9.807 9.166 14.038 4.008 3.329 3.083 3.275 10.134-6.797.57-.814-1.024-1.704-1.57-2.534-1.176-1.788-2.514-3.44-3.527-5.336-.57-1.065-1.005-2.197-1.507-3.295-2.208-4.704-3.99-9.532-5.114-14.596-.552-2.035-.806-4.107-1.398-6.132-.174-.794-11.41 1.663-11.235 2.457.396 1.852.573 3.74.998 5.587.316 2.05.258 4.094.643 6.147.756 4.04 2.15 7.947 3.943 11.637 2.047 3.698 3.782 6.686 6.536 9.888.537.624.87 2.006 1.671 1.818 11.791-2.764 12.25-1.121 10.75-5.163-2.835-4.26-6.016-8.266-8.756-12.59-.344-.759-11.08 4.112-10.735 4.871M577.108 865.717c1.565 1.883 3.539 3.435 4.978 5.427 1.18 1.635 1.75 3.505 2.257 5.42.42 2.25-.326 4.274-1.213 6.303-1.417 3.292-1.236 7.001-2.773 10.228-.232.386-.404.814-.695 1.157-.139.164-.39.187-.558.32-.387.306-.715.682-1.098.992-1.156.935-2.365 1.81-3.515 2.762-1.559 1.33-3.262 2.176-4.853 3.452-1.153.924-.584.91-1.455.76-.286.031-.572.082-.86.092-.688.022-1.38-.165-2.063-.08-1.732.216-3.457.82-5.122 1.325 1.2.385-2.911.394-2.2.248.651-.135 1.39.144 1.99-.146.435-.21-.966-.077-1.448-.116q-.923-.076-1.847-.153l-2.519-.265c-.835-.245-4.3 11.568-3.464 11.813l2.507-.061c4.08.084 8.201.25 12.178-.826 3.258-.648 6.666-.732 9.657-2.34 2.857-1.769 5.689-3.583 8.288-5.722 3.258-2.717 6.773-5.208 8.393-9.331.823-2.138 1.025-2.409 1.502-4.659.399-1.879.433-3.843 1.01-5.687 1.573-4.001 3-7.97 2.263-12.374-.22-1.057-.362-2.134-.66-3.173-1.589-5.542-5.081-10.02-9.91-13.123-.549-.62-9.318 7.137-8.77 7.757" style="fill:#000"/><circle cx="361.842" cy="870.286" r=".367" style="fill:#000;stroke:#000"/><path d="M366.235 866.303c1.672-2.649 2.096-5.849 3.464-8.627.482-.978 1.151-1.852 1.721-2.782 2.402-3.916 1.017-2.203 3.706-4.998 2.14-1.52 4.582-2.563 7.126-3.201 1.413-.355 2.865-.526 4.292-.82 7.437-1.323 14.532-3.975 21.707-6.251 3.062-1.046 6.115-2.184 9.089-3.464 1.092-.47 4.55-2.2 5.805-2.632.824-.284 1.692-.419 2.537-.628 2.62-.697 5.282-1.46 7.989-1.756 1.725-.188 3.465-.19 5.197-.288.839-.263-2.883-12.128-3.722-11.865-5.289.36-10.565 1.146-15.6 2.864-1.156.42-2.324.808-3.467 1.26-3.628 1.436-7.013 3.177-10.789 4.23-1.103.307-2.213.59-3.319.886-6.927 2.1-13.709 4.666-20.71 6.508-6.054 1.565-12.02 3.377-16.69 7.786-.995 1.174-2.087 2.272-2.985 3.522-3.64 5.071-5.456 11.088-6.652 17.125-.222.799 11.08 3.93 11.301 3.13" style="fill:#000"/><path d="M1147.685 1130.644c-6.315-1.583-14.063-5.715-14.063-7.499 0-.822-1.378-3.523-3.063-6.002-1.684-2.48-4.415-8.1-6.068-12.492l-3.005-7.984 1.833-13.852c1.009-7.619 2.412-23.56 3.119-35.424 3.25-54.55 9.559-75.832 28.657-96.675 4.009-4.375 7.289-8.303 7.289-8.729s6.134-14.365 13.63-30.975c15.367-34.047 19.899-45.423 23.364-58.652 8.12-31 5.712-54.709-7.654-75.37-2.928-4.526-5.583-8.23-5.901-8.23s-2.967 2.292-5.888 5.094c-2.92 2.801-7.57 6.016-10.333 7.144-4.98 2.034-5.047 2.027-7.918-.844-2.452-2.453-2.895-4.058-2.895-10.488 0-12.414 5.51-28.523 12.972-37.927l2.274-2.866 8.346 2.045c24.578 6.023 36.274 23.042 36.303 52.823.013 12.846-2.34 29.412-6.584 46.357-4.914 19.62-18.533 64.186-22.822 74.682-7.415 18.148-10.065 39.637-7.812 63.359.743 7.823 3.512 26.884 6.153 42.36 2.642 15.474 5.365 35.229 6.051 43.899.687 8.67 2.362 20.742 3.724 26.827 5.03 22.48-.856 37.69-17.815 46.04-6.566 3.232-9.421 3.91-17.61 4.184-5.374.18-11.803-.183-14.285-.805M503.52 912.758c-1.758-1.116-.777-2.54 11.962-17.362 10.435-12.14 14.556-20.517 15.135-30.766.584-10.343-1.368-17.052-6.67-22.921-5.783-6.4-12.45-9.625-21.39-10.342-10.714-.86-18.604 2.08-26.341 9.818-8.156 8.156-11.077 16.073-13.155 35.662-.906 8.535-2.458 16.841-3.537 18.928-7.83 15.14-31.99 9.675-69.362-15.691-13.636-9.256-21.127-15.571-21.127-17.811 0-2.638 5.144-10.777 7.99-12.642 1.51-.989 6.397-2.569 10.86-3.512 4.462-.942 13.507-3.693 20.098-6.112s16.433-5.542 21.871-6.938c7.403-1.9 9.887-3.039 9.887-4.531 0-3.461 23.446-6.264 46.368-5.543 22.283.7 32.5 2.98 48.906 10.916 18.117 8.762 27.408 17.091 38.121 34.173 4.42 7.046 8.081 11.033 9.39 10.224 1.322-.818 1.245.057-.646 7.298-1.749 6.696-4.235 8.623-18.703 14.495-4.284 1.739-8.868 3.637-10.186 4.219-15.15 6.684-44.378 11.67-49.47 8.438M685.275 1316.55c-20.804-6.655-38.209-24.088-38.209-38.27 0-4.233.785-5.893 4.892-10.348 10.032-10.883 24.82-13.8 38.412-7.578 17.774 8.137 25.61 24.468 21.421 44.645-2.042 9.84-6.127 13.856-14 13.768-3.181-.035-8.814-1.033-12.516-2.218" style="fill:#fff;stroke-width:1.19841"/><path d="M236.335 967.697c-31.58-65.146-37.302-114.776-15.926-138.164 3.19-3.49 8.476-7.803 11.745-9.582l5.946-3.236 4.648 3.109c10.437 6.982 15.563 14.721 16.829 25.412.75 6.331-1.2 20.092-3.682 25.989-2.556 6.072-14.858 43.891-16.868 51.857-4.607 18.256-3.64 33.672 3.111 49.536 6.849 16.093 2.664 12.545-5.803-4.921M1146.205 1130.272c-7.124-2.355-12.583-5.45-12.583-7.133 0-.819-1.378-3.517-3.063-5.996-1.684-2.48-4.406-8.076-6.048-12.438l-2.985-7.93 1.825-14.506c1.004-7.977 2.383-23.672 3.064-34.878 1.52-25.013 2.094-30.788 4.341-43.742 3.754-21.637 11.826-39.455 23.752-52.426 4.093-4.452 8.292-10.25 9.332-12.887s6.495-14.861 12.121-27.166c20.196-44.167 26.658-64.223 27.932-86.683.488-8.612.145-14.514-1.218-20.973-1.942-9.201-9.281-25.515-14.181-31.522l-2.741-3.36-5.599 5.157c-3.079 2.837-7.843 6.081-10.586 7.21-4.945 2.032-5.014 2.025-7.884-.845-2.452-2.453-2.895-4.058-2.895-10.488 0-12.391 5.513-28.532 12.939-37.883 2.149-2.706 2.521-2.765 8.995-1.42 14.33 2.974 26.166 11.395 31.947 22.726 8.122 15.921 7.921 43.103-.57 77.009-4.356 17.396-19.423 67.033-22.367 73.689-4.157 9.398-6.893 20.698-8.327 34.391-1.752 16.734-.226 34.486 6.209 72.247 2.6 15.261 5.299 34.675 5.996 43.143.697 8.467 2.384 20.698 3.749 27.179 4.923 23.382-.718 38.118-17.814 46.534-6.711 3.304-9.392 3.926-18.209 4.225-6.301.214-12.21-.268-15.132-1.234" style="fill:#e3dbdb;fill-opacity:1;stroke-width:1.19841"/><path d="M1155.712 854.551c-.4-1.59-.142-7.657.572-13.482.715-5.825 1.3-14.735 1.303-19.8 0-11.263 2.715-24.921 6.373-32.107 3.5-6.875 8.79-8.895 13.7-5.229 4.682 3.496 10.771 15.472 13.646 26.84 5.847 23.12-1.304 39.48-17.257 39.48-4.909 0-6.676.632-10.05 3.595-4.955 4.35-7.322 4.55-8.287.703M256.415 985.79c-5.382-19.988-6.049-93.873-.977-108.283 1.5-4.264 1.719-4.409 4.105-2.738 7.38 5.17 9.334 19.007 7.62 53.98-.778 15.884-.875 29.334-.245 33.834 1.01 7.202-.487 14.745-5.118 25.787-1.492 3.558-4.064 2.326-5.385-2.58M273.43 1047.691c-2.405-2.945-8.657-27.37-8.657-33.821 0-8.302 2.078-18.052 4.229-19.837 2.395-1.988 5.985 4.386 8.428 14.964 2.616 11.328 2.618 31.39.004 36.446-2.192 4.239-2.32 4.31-4.004 2.248zM268.81 1227.798c-12.148-6.967-20.913-21.323-24.076-39.432-2.818-16.136-1.437-54.275 3.758-103.824 2.35-22.41 4.328-42.903 4.395-45.54l.122-4.793 3.128 7.19c1.721 3.955 5.926 12.588 9.344 19.186 4.753 9.174 6.523 14.106 7.527 20.972.722 4.937 2.148 14.64 3.169 21.56 1.02 6.921 3.985 22.291 6.588 34.155 7.107 32.402 8.68 44.13 8.17 60.901-.392 12.908-.83 15.429-3.772 21.757-5.907 12.705-8.204 13.69-18.353 7.868" style="fill:#e3dbdb;fill-opacity:1;stroke-width:1.19841"/><path d="M686.744 1316.95c-13.32-4.067-31.543-17.76-36.569-27.479-5.836-11.286-1.054-22.87 11.861-28.736 17.44-7.92 37.718-.361 46.896 17.48 5.792 11.26 3.592 34.805-3.612 38.66-3.577 1.915-12.432 1.95-18.576.075zM751.05 1308.178c-1.954-3.832-4.696-12.412-6.092-19.067-6.796-32.39 7.633-55.317 34.814-55.317 7.73 0 8.868.55 14.327 6.929 14.982 17.503 10.668 44.097-10.124 62.398-6.998 6.16-20.248 12.024-27.17 12.024-1.21 0-3.8-3.135-5.754-6.967" style="fill:#ff0;fill-opacity:1;stroke-width:1.69481"/><path d="M1052.51 717.964c-1.715-.87-3.534-2.48-4.042-3.58s-1.617-3.342-2.464-4.982c-.848-1.64-1.54-4.155-1.54-5.588 0-1.434-.537-2.938-1.193-3.343-2.6-1.607-3.191-15.093-3.984-90.754-.819-78.201-.838-78.627-3.26-72-1.341 3.667-2.948 7.867-3.573 9.333-.624 1.467-2.387 6.166-3.918 10.442-3.988 11.14-6.334 15.231-10.18 17.752-3.162 2.071-3.535 2.069-5.64-.034-1.97-1.97-2.234-5.469-2.103-27.873.142-24.313 1.045-33.897 4.484-47.62 1.56-6.225 4.11-21.793 6.77-41.333.85-6.234 2.096-14.334 2.77-18 .675-3.667 1.712-11.167 2.304-16.667 1.247-11.595 2.206-14.107 9.105-23.876 3.7-5.238 8.804-9.71 18.67-16.355 12.57-8.467 14.351-9.255 23.996-10.606 12.136-1.701 11.636-1.7 23.763-.105 6.244.822 13.238 3.062 21.079 6.752 6.453 3.038 12.245 5.523 12.87 5.523s4.374 3.162 8.333 7.027c6.368 6.217 7.456 8.097 9.455 16.333 1.242 5.119 2.257 10.365 2.255 11.658 0 2.352 2.518 7.701 4.247 9.01.505.382 1.332 16.882 1.838 36.667.506 19.784 1.443 36.982 2.082 38.218.64 1.235 1.162 5.285 1.162 9s.6 6.754 1.334 6.754c.733 0 1.333 1.165 1.333 2.588s.6 2.959 1.333 3.412c.734.453 1.334 3.296 1.334 6.317s.73 7.51 1.62 9.975c1.272 3.518 1.272 5.04 0 7.077-.89 1.427-1.62 4.813-1.62 7.524 0 4.596-3.688 17.382-6.923 24-.778 1.592-1.032 4.931-.565 7.421.696 3.71.267 5.075-2.379 7.56-4.36 4.098-8.103 3.232-8.234-1.905-.056-2.183-.481-4.87-.945-5.97-.87-2.064-1.526-9.97-3.485-42-1.064-17.397-2.672-28.852-4.81-34.27-.74-1.873-1.342-1.992-3.444-.679-1.922 1.2-2.549 3.133-2.549 7.859 0 3.447-.6 6.638-1.333 7.09-1.84 1.138-1.722 26.412.131 28.266 1.475 1.474 1.368 3.484-1.54 29.068-1.628 14.33-1.802 22.366-.62 28.667.797 4.25.278 5.334-5.807 12.131-7.557 8.44-14.132 12.336-17.646 10.456-1.251-.67-3.98-4.832-6.063-9.25-2.084-4.417-4.838-8.366-6.122-8.774-2.531-.806-2.948-2.862-1.154-5.692.695-1.098.12-4.627-1.478-9.071-1.981-5.511-2.4-8.955-1.726-14.204 1.713-13.351 2.228-43.927.764-45.39-.809-.81-1.405-7.422-1.405-15.584 0-7.798-.395-14.572-.878-15.055-1.72-1.72-4.456 2.164-4.456 6.33 0 2.33-.555 4.806-1.233 5.503-1.72 1.767-2.818 17.76-3.518 51.267-.33 15.766-1.173 29.866-1.874 31.333-.7 1.467-1.632 9.567-2.07 18-3.676 70.665-4.324 77.273-8.306 84.713-3.7 6.913-13.95 12.07-18.952 9.534m14.157-8.37c1.773-2.706 2.377-7.415 2.78-21.667.285-10.016 1.062-19.41 1.729-20.877s1.52-8.066 1.895-14.666 1.324-19.5 2.11-28.667 1.704-29.567 2.042-45.333c.339-15.767.973-29.567 1.41-30.667s.688-5.99.56-10.869c-.134-5.085.372-9.242 1.185-9.745.78-.482 1.419-2.76 1.419-5.06 0-4.516 5.545-13.632 9.62-15.813 2.886-1.544 7.657-.381 7.836 1.91 1.48 18.912 1.87 69.878.579 75.397-.775 3.311-.244 6.901 2.026 13.698 2.264 6.778 2.683 9.604 1.589 10.699-1.095 1.094-.813 2.055 1.067 3.635 1.406 1.181 4.293 5.448 6.416 9.481 4.868 9.25 7.598 9.845 14.095 3.073 3.864-4.028 4.693-5.76 4.025-8.406-1.754-6.946-2.146-16.428-.794-19.16.773-1.562 1.75-7.94 2.171-14.173 1.013-14.99 1.012-15.259-.052-35.483-.642-12.218-.477-17.756.55-18.391.92-.569 1.171-3.098.67-6.755-.733-5.345-.368-6.375 4.263-12.027 2.786-3.4 6.772-7.063 8.859-8.142 4.204-2.174 4.262-2.11 5.622 6.131.424 2.567 1.349 7.367 2.056 10.667s1.311 13.83 1.343 23.4c.035 10.482.625 17.966 1.482 18.824.784.783 1.442 6.004 1.464 11.602.041 10.478 1.686 14.466 3.257 7.895.49-2.047 1.474-4.464 2.188-5.371s.958-2.538.541-3.624-.183-2.329.518-2.762c.701-.434 1.275-3.718 1.275-7.298s.6-6.88 1.333-7.333c.734-.453 1.334-2.553 1.334-4.667s-.6-4.213-1.334-4.666c-.733-.454-1.333-3.528-1.333-6.833s-.69-7.3-1.535-8.878c-2.441-4.56-4.056-18.665-4.685-40.901-.32-11.337-1.2-21.355-1.953-22.263s-1.256-3.033-1.117-4.721c.138-1.69.186-6.902.104-11.584l-.147-8.513-2.473 3.18c-1.36 1.748-5.31 7.34-8.777 12.425-6.262 9.183-14.66 16.47-23.217 20.145-2.457 1.055-7.318 4.305-10.801 7.221-7.55 6.321-11.686 8.058-19.152 8.045-6.264-.012-20.593-4.014-24.72-6.904-6.326-4.432-25.412-22.777-28.836-27.718-2.046-2.953-4.215-5.368-4.819-5.368-1.43 0-3.28 7.382-5.183 20.667-.84 5.866-2.14 13.666-2.887 17.333-.748 3.667-1.871 12.667-2.496 20-.626 7.333-1.705 18.433-2.399 24.667-2.39 21.482-2.984 34.666-1.56 34.666 1.69 0 5.024-7.371 9.949-22 2.4-7.127 4.297-11.921 6.193-15.648.648-1.274 1.178-3.17 1.178-4.215 0-2.559 8.094-9.243 9.495-7.841.612.611 1.35 38.595 1.642 84.408.516 81.125.76 89.639 2.63 91.509.495.494.9 2.563.9 4.598s.6 4.07 1.333 4.523 1.333 1.772 1.333 2.931c0 6 10.647 7.707 14.204 2.278m43.489-229.451c3.232-2.98 9.724-7.31 14.426-9.621 6.188-3.044 9.793-5.922 13.06-10.43l4.51-6.228-6.51 5c-3.582 2.75-8.421 5.858-10.754 6.906s-4.657 2.577-5.163 3.396c-1.01 1.633-19.649 10.485-27.614 13.114-7.217 2.382-4.767 4.505 4.43 3.84 6.828-.494 8.428-1.196 13.615-5.977m-23.36-1.381c-2.016-.305-5.316-.305-7.333 0-2.017.306-.367.555 3.667.555s5.683-.25 3.666-.555m19.19-9.665c2.637-2.175 8.08-5.183 12.094-6.684 10.513-3.934 17.55-13.357 18.938-25.363.381-3.3 1.074-8.533 1.54-11.63.64-4.27.167-7.03-1.958-11.42-1.542-3.186-2.803-6.39-2.803-7.12 0-1.874-5.997-6.084-16.76-11.765-5.082-2.683-11.792-6.391-14.91-8.24-7.792-4.619-15.626-4.792-21.673-.48l-4.658 3.322 6 .418c6.853.476 9.34 2.11 6.913 4.537-1.077 1.076-5.193 1.486-12.247 1.218l-10.626-.402-9.986 6.325c-5.492 3.48-11.118 7.581-12.502 9.115-3.142 3.482-5.552 13.142-5.552 22.256 0 6.125.675 7.838 5.667 14.387 6.886 9.033 10.732 12.466 22.177 19.798l8.823 5.651 13.363.015c12.856.014 13.545-.135 18.16-3.938m7.187.688c2.543-1.063 4.623-2.27 4.623-2.684 0-.745-9.284 2.79-10.487 3.992-1.163 1.164 1.222.631 5.864-1.308m24.957-16.49c2.016-1.876 3.666-4.248 3.666-5.272 0-2.732-1.327-1.767-8.692 6.315-5.414 5.94-5.902 6.833-2.64 4.827 2.2-1.353 5.65-3.994 7.666-5.87m4.98-11.99c-.019-1.943-.2-1.978-1.314-.255-1.687 2.612-1.687 4.377 0 3.334.734-.454 1.325-1.839 1.313-3.079m4.93.829c-.425-1.064-.74-.748-.805.805-.058 1.406.257 2.193.7 1.75s.49-1.593.106-2.555m-94.244-46.64c3.3-1.88 8.1-3.81 10.667-4.289s7.667-2.795 11.333-5.146c6.01-3.854 6.351-4.323 3.466-4.761-6.423-.975-32.132 8.36-32.132 11.667 0 .66-2.1 3.183-4.667 5.604-2.567 2.42-4.667 5.434-4.667 6.696s-.6 2.665-1.333 3.119c-.733.453-1.333 1.407-1.333 2.12s2.85-1.603 6.333-5.148 9.033-7.984 12.333-9.863m-10 12.223c1.328-1.467 2.114-2.667 1.747-2.667s-1.753 1.2-3.08 2.667-2.113 2.667-1.747 2.667c.367 0 1.753-1.2 3.08-2.667m99.334-4c0-.733-.636-1.333-1.412-1.333-.777 0-1.041.6-.588 1.333s1.088 1.333 1.412 1.333.588-.6.588-1.333m-89.62-3.333c2.698-1.834 4.434-3.334 3.859-3.334s-3.255 1.5-5.953 3.334c-2.698 1.833-4.434 3.333-3.858 3.333s3.254-1.5 5.952-3.333" style="fill:#000;stroke-width:1.33333" transform="matrix(1.56368 0 0 1.32764 -1008.612 75.429)"/><path d="M57.452 96.754c-12.039-7.719-18.185-13.082-24.429-21.316-5.618-7.41-6.622-13.086-4.301-24.323 2.157-10.442 4.322-12.836 21.014-23.233l5.818-3.624 9.143.353c10.088.388 14.454-.43 14.454-2.709 0-2.179-1.951-3.116-7.283-3.497-5.826-.417-5.816-.918.088-4.131 3.36-1.828 4.25-1.995 9.02-1.689 4.928.316 5.962.707 14.991 5.659 13.135 7.203 22.43 12.625 24.45 14.262 2.185 1.77 7.416 14.72 7.372 18.25-.018 1.493-.63 6.727-1.362 11.631-2.306 15.475-6.989 22.205-19.646 28.234-3.81 1.815-8.537 4.454-10.505 5.866-5.988 4.296-7.183 4.565-20.241 4.565h-11.88Z" style="fill:maroon;stroke-width:.726447" transform="matrix(1.56368 0 0 1.32764 571.617 568.768)"/><path d="M79.831 114.341c-.68-.123-1.539-.422-1.909-.665l-.673-.44.771-.69c.434-.387 2.114-1.177 3.836-1.803 10.214-3.715 24.71-10.7 27.72-13.358.978-.864 2.811-2.053 4.544-2.95 3.754-1.94 7.623-4.462 12.343-8.045 2.084-1.582 3.789-2.803 3.789-2.714 0 .477-4.774 6.638-6.461 8.34-2.424 2.442-4.602 3.927-10.156 6.924-5.002 2.699-9.813 5.852-12.92 8.468-1.2 1.01-2.934 2.47-3.852 3.241-2.2 1.848-4.26 2.822-6.935 3.278-2.774.472-8.484.707-10.097.414M24.691 38.577c0-.136.51-.821 1.131-1.521.623-.701 1.2-1.63 1.285-2.064l.299-1.547c.258-1.34 2.015-3.691 5.367-7.185 2.04-2.127 3.46-3.838 3.775-4.549.613-1.386 1.984-2.435 5.351-4.093 5.083-2.503 11.566-4.842 18.236-6.58 3.32-.865 4.429-1.043 6.678-1.072 1.483-.019 2.914.054 3.18.163.476.194.476.21 0 .738-.854.954-6.56 4.59-9.396 5.987-1.512.746-3.766 1.668-5.009 2.049-7.625 2.339-10.368 3.487-14.002 5.858-3.119 2.034-7.07 5.286-10.858 8.935-3.26 3.141-5.536 5.13-5.87 5.13-.092 0-.167-.112-.167-.249M118.652 87.426c.926-1.3 8.649-9.669 10.067-10.91 1.691-1.478 2.303-1.577 2.303-.37 0 1.605-1.937 4.088-5.522 7.076-2.296 1.914-6.637 4.917-7.108 4.917-.136 0-.018-.32.26-.713M96.756 99.662c.41-.664 8.755-4.093 9.897-4.067 1.082.025-3.297 2.233-7.067 3.564-2.4.847-3.122.975-2.83.503M130.141 72.758c-.207-.336.349-1.78 1.247-3.24l.79-1.284.084.881c.13 1.374-.19 2.586-.86 3.257-.646.646-1.028.763-1.26.386" style="fill:maroon;stroke-width:.256838" transform="matrix(1.56368 0 0 1.32764 571.617 568.768)"/><path d="M130.371 72.022c.096-.389.51-1.284.921-1.99l.746-1.285.005 1.156c.005 1.299-.767 2.825-1.43 2.825-.326 0-.379-.154-.242-.706zM131.174 32.643c-.743-.884-.848-1.469-.3-1.679.716-.275 1.432.379 1.432 1.306 0 1.197-.343 1.31-1.132.373M38.175 30.976c2.12-1.76 7.983-5.443 8.246-5.18.246.246-5.357 4.178-7.542 5.293-1.404.717-1.654.676-.704-.113" style="fill:maroon;stroke-width:.256838" transform="matrix(1.56368 0 0 1.32764 571.617 568.768)"/><path d="M45.245 340.037c-2.1-1.1-3.261-2.761-3.261-4.667 0-.71-.4-1.64-1.072-2.484-.652-.82-1.143-1.942-1.255-2.865-.101-.834-.28-2.382-.396-3.44-.117-1.059-.527-2.53-.911-3.27-.391-.752-.865-2.785-1.075-4.614-.556-4.836-1.044-33.388-1.474-86.265-.376-46.177-.827-74.396-1.304-81.493l-.24-3.58-1.211.196c-2.67.433-7.843 5.057-8.51 7.605-.22.847-.538 2.03-.705 2.63-.166.599-1.197 3.132-2.29 5.63-1.093 2.496-3.175 7.972-4.626 12.167C12.443 188.511 8.65 197.2 7.479 197.2c-1.347 0-.873-12.014 1.276-32.327.497-4.694 1.472-14.502 2.167-21.793 1.45-15.197 1.956-19.27 3.437-27.605.586-3.296 1.658-9.834 2.384-14.53 1.885-12.202 3.375-18.757 4.597-20.23.554-.667 1.398.14 5.018 4.794 2.688 3.455 14.303 15.271 20.53 20.886 4.846 4.37 8.602 7.238 10.907 8.33 5.966 2.825 17.077 5.475 22.918 5.466 6.878-.01 10.31-1.431 18.176-7.528 5.905-4.577 8.67-6.388 12.588-8.248 4.367-2.072 9.109-5.449 13.252-9.436 4.156-4.001 6.535-6.925 11.695-14.374 1.868-2.697 4.43-6.277 5.692-7.955l2.297-3.052.008 11.043c.007 10.284.058 11.153.74 12.656 1.155 2.546 1.898 10.012 2.334 23.45.462 14.233 1.412 26.368 2.573 32.87.62 3.475.954 4.686 2.153 7.81.91 2.37 1.13 3.724 1.605 9.856.26 3.352.476 4.32 1.26 5.659 1.683 2.87 1.61 6.922-.166 9.325-.6.81-.812 2.051-1.215 7.084-.42 5.24-.6 6.253-1.282 7.174-.675.914-.758 1.36-.553 2.996.21 1.682.105 2.19-.843 4.068-.595 1.18-1.433 3.325-1.862 4.766-.842 2.83-1.261 3.393-1.777 2.385-.612-1.196-.824-3.156-1.172-10.816-.343-7.548-.507-8.76-1.576-11.66-.723-1.96-1.313-10.017-1.315-17.942-.002-7.06-.578-18.71-1.078-21.794-.927-5.72-3.397-18.096-3.769-18.883-.595-1.259-1.433-1.306-3.679-.208-3.245 1.588-9.333 7.515-12.34 12.014-1.876 2.806-2.137 4.258-1.62 9.011l.443 4.06-.966 2.032c-.922 1.941-.965 2.299-.965 7.92 0 3.237.262 10.985.582 17.217.917 17.827-.081 35.403-2.455 43.219-.694 2.284-.749 3.092-.554 8.207.13 3.412.508 7.106.95 9.272.73 3.587.73 3.605.016 5.219-.404.914-2.022 2.96-3.714 4.698-6.373 6.544-8.427 6.088-13.672-3.037-2.757-4.796-5.493-8.737-7.113-10.246-1.058-.984-1.175-1.93-.328-2.633.932-.774.41-4.453-1.488-10.495-2.389-7.602-2.593-9.006-2.083-14.29.235-2.429.53-9.565.656-15.858.335-16.688-.697-57.433-1.52-60.026-.596-1.878-5.826-2.54-8.246-1.044-2.77 1.712-6.653 7.017-8.29 11.324-.395 1.04-.881 3.22-1.08 4.843-.228 1.875-.617 3.306-1.066 3.925-1.13 1.56-1.428 3.707-1.438 10.358-.005 3.436-.247 8.094-.538 10.352-.552 4.285-1.112 15.677-1.47 29.894-.5 19.847-1.251 35.701-2.38 50.228a3034 3034 0 0 0-1.443 19.614c-.863 12.354-1.26 15.98-2.177 19.874-.855 3.632-1.33 9.306-1.81 21.612-.52 13.393-1.037 17.78-2.4 20.42-1.892 3.66-7.033 5.018-11.045 2.917" style="fill:#d40000;stroke-width:.363224" transform="matrix(1.56368 0 0 1.32764 571.617 568.768)"/><path d="M671.029 673.2c-8.56-6.24-10.333-13.67-6.413-26.871 3.679-12.387 20.907-39.928 33.184-53.048 30.339-32.42 84.524-39.68 159.733-21.403 11.205 2.723 21.346 5.83 22.536 6.902 4.01 3.618-46.158 50.422-66.877 62.392-36.967 21.358-74.264 33.015-111.453 34.837-21.137 1.035-26.054.585-30.71-2.81m88.62-19.05c22.6-15.357 29.939-63.613 11.05-72.665-12.083-5.792-34.007 3.662-46.511 20.056-5.876 7.703-6.87 11.182-6.87 24.057 0 14.295.476 15.538 9.475 24.754 11.341 11.614 19.898 12.603 32.856 3.798" style="fill:#fff;stroke:none;stroke-width:3;stroke-miterlimit:4;stroke-dasharray:none;stroke-opacity:1" transform="translate(198.308 232.403)"/><path d="M740.644 646.13c-5.39-3.532-7.592-16.643-5.222-31.109 1.233-7.529 2.248-14.55 2.256-15.6.017-2.355 12.016-13.668 14.495-13.668.988 0-1.852 8.359-6.313 18.575-12.47 28.562-10.174 40.5 7.15 37.188 5.183-.99 6.608-.492 5.782 2.02-1.253 3.813-13.595 5.576-18.148 2.593" style="fill:#fff;stroke:none;stroke-width:3;stroke-miterlimit:4;stroke-dasharray:none;stroke-opacity:1" transform="translate(198.308 232.403)"/></g></svg>
