<svg xmlns="http://www.w3.org/2000/svg" width="868.035" height="1561.9"><g transform="translate(-77.697 -157.968)"><path d="M617.619 1718.548c-45.27-9.679-91.564-21.135-139.851-12.188-49.543-11.85-109.484.98-155.842 2.756 7.694-11.048-18.352-2.807 9.406-12.863 29.603-8.186 86.72-104.21 32.876-42.455 38.433-34.022 34.684-107.261 32.398-160.11-36.099-26.384-97.188-34.603-124.997-80.226-31.027-34.887-28.125-112.432-48.097-135.757-52.493 65.469-79.642-55.632-61.73-95.907 7.51-66.222 5.009-136.422-19.996-198.77-40.538-38.92 31.76-118.01 26.96-108.258-27.056 13.172-20.831-26.311-43.348-21.741-.592-55.533 86.532-24.328 45.36-84.231-14.937-36.639-17.945-75.477-37.746-121.947-11.304-69.966-35.697-136.314-55.315-204.08 44.551-33.7 100.251-51.382 145.657-85.339 97.848-57.639 199.263-114.59 276.782-199.464 35.176 4.696 74.706 52.937 117.869 62.9 58.134 36.947 118.7 69.99 182.972 94.913 41.01 30.238 144.862-8.229 119.873 65.517-3.212 114.13-2.308 229.217-21.736 341.908 21.96 17.158-24.038 82.437 9.465 78.128 4.273 1.97 46.452-2.977 25.707 20.464-.29 20.108-46.686 22.212-8.135 36.894 25.97 54.627-15.651 109.977-9.858 166.606 4.314 61.89 31.035 133.508-8.012 189.694-30.81 16.937-64.906-2.246-56.09 51.556-16.326 54.948-26.049 133.385-84.831 154.69-27.028 32.9-108.518 25.987-107.574 75.9.255 43.756-4.15 92.563 19.4 129.77-6.026 38.456 55.554 71.387 53.585 89.89-38.679-18.496-76.112 9.25-115.152 1.75m27.466-4.11c27.287-17.576 94.095 4.944 47.402-34.912-37.42-57.704-46.41-126.98-44.155-194.437-12.63.622-.29-10.773-29.796 2.392-26.566 21.317-55.72 7.778-96.982 20.833-38.637 3.787-98-12.151-104.85-8.83 14.7 16.988 84.185 65.782 29.496 36.812-22.544-21.58-55.95-47.666-30.714-1.547 2.01 28.378 93.023 53.403 27.497 40.399-16.718-11.699-46.718-49.57-35.883-23.176-3.79 19.02 92.24 74.994 25.952 46.02-21.948-20.5-38.178-49.035-22.967-2.341 8.684 31.78 87.043 76.98 21.65 49.22-29.962 6.287-40.321-43.898-9.202-8.692 12.001 6.62-30.588-66.316-27.479-8.936-7.293 34.803-95.82 83.39-18.288 74.128 60.902-10.079 124.236-2.845 185.954.248 27.978 2.129 55.154 12.649 82.365 12.819m-243.3-24.83c-36.41-3.307-42.114-37.243-6-8.534 15.541-.895 33.466 9.994 6 8.534m14.91-9.793c-35.816-.86-33.083-68.112-12.128-14.829 8.146 7.596 42.477 13.845 12.127 14.83m12.434-7.059c-32.722-3.728-47.409-66.834-12.008-15.785 7.451 7.31 40.033 15.325 12.008 15.785m55.663-174.096c26.594.605 125.43-4.483 63.966-26.33-36.095-19.684-39.696-72.932-21.925-104.532 12.108 25.518 60.52.018 85.361.614 42.46-12.33 31.856 34.893 25.699 64.61-6.432 25.018-41.404 61.112 7.192 34.026 55.166-22.402 125.625-34.512 161.522-86.25 31.687-51.363 30.507-114.007 38.664-171.998.248-19.153 5.688-51.221-4.545-29.351.302-22.589 14.419-85.522.996-27.667-19.271 55.134 5.546-47.46 8.07-65.523-13.962-20.529 30.634-102.446 9.725-89.148-3.01 25.232-26.194 128.375-16.408 53.55 11.759-49.36 19.286-102.743 20.593-146.503 5.426-52.331 3.035-69.442-6.525-117.263-129.287-57.849-274.244-46.296-412.52-46.482-82.737 4.81-169.152 16.696-240.068 61.779 3.517 17.162-16.855 77.273 6.697 77.31-29.96 23.56 44.602 108.507 28.136 105.345 8.17-18.025 17.068-46.746 31.423-55.675-26.74-8.624 50.672-49.716 77.246-46.43 30.128-8.913 76.81 9.405 73.797-23.944 24.882 42.976 101.993 24.288 85.427 87.617 26.635 33.88 10.985 61.04-9.017 97.037 10.44 38.046-27.329 50.052-30.097 89.377 3.46 45.251 35.792-24.44 55.568 22.37 30.175 37.115 62.821-26.676 80.144-29.08-22.957 44 68.528-1.757 14.623-28.298-30.188-25.6-39.732-58.232-60.679-86.365-35.27-64.543 44.57-117.876 101.545-122.673 38.538-4.443 84.48-15.823 115.697 15.044 32.233 9.877 53.087 59.267 10.617 16.554-42.52-42.849-107.606-33.633-159.967-18.546-53.29 8.35-91.203 67.978-50.394 112.072 25.631-9.613 64.01-62.4 107.988-46.733 23.222-5.801 98.984 42.282 76 43.681-24.19-19.829-97.087-63.907-66.435-4.644-11.902 55.275-97.219 34.473-86.996-5.504-43.38 20.075-14 45.047.868 68.915 37.4 46.693-12.014-7.619 9.48-18.433 15.853 22.244 133.52 26.146 55.103 31.452-33.762-10.347 44.282 28.66-14.314 7.392-60.118-36.336 32.823 56.296 26.599 41.464 25.033 40.042-76.268-67.573-40.948-3.98-18.353 38.533-37.594 22.551-59.824 31.003-22.266 13.057-48.327 22.786-64.775 10.376-22.23 4.108-79.94-5.616-55.514-46.027-9.539-8.652 36.303-57.657 33.698-88.571 42.792-48.612-.092-109.68-58.5-109.94-51.544-19.052-139.72 6.327-144.439 50.667-7.1 32.286-54.283 48.937-47.716 46.584 11.164 28.209 85.065 99.641 26.696 60.689-14.736-17.956-64.207-100.49-33.35-31.226 16.603 41.186 62.644 87.536 80.036 109.375-44.118-10.201-68.11-87.99-87.182-97.908 23.152 46.6 50.985 116.316 94.71 132.75-58.654-2.493-72.825-85.448-101.51-127.527 5.15 23.183 44.483 105.081 78.046 139.025 62.033 48.874-40.13-6.868-40.622-41.522-14.274-29.279-45.236-83.88-21.14-21.878 26.605 44.144-18.899-1.327 4.182 34.41 20.493 31.92 26.923 82.058 36.6 89.843-21.725-18.983-64.044-143.955-35.66-56.109 22.908 37.039-10.357 56.575 27.945 65.954 53.03 69.066-69.225-41.709-19.073 9.857 27.393 16.337 59.613 62.488 9.444 32.938-51.696-67.894-.805 38.507-4.184 68.88 29.718 38.477 72.203 76.015 119.624 80.119 33.022 12.74 68.236 32.754 104.6 29.381m-145.005-90.112c6.077-27.732-26.224-11.809-9.432-55.816 6.685-39.134 50.326-110.66 62.568-103.06 22.87-20.613 44.028-42.805 22.527-16.763 27.513-23.365 76.88-59.942 100.6-41.271 16.957-5.957 28.837 5.865 54.663-3.654 21.347-3.947 34.095-6.51 42.284 7.687 16.031-32.149 18.05 6.987 44.684-15.73 31.56 2.748 71.05 20.654 85.32 57.853 19.892-1.079 36.97 30.38 56.328 42.504 5.516 20.946 13.43 100.54-15.26 76.5-16.944-15.841-50.387-59.992-82.488-65.641-28.653 18.442-68.868 69.042-119.364 66.025-51.835 4.788-126.652-.6-153.988-44.28 45.37 33.95 114.409 48.317 174.55 35.98 27.44 1.833 92.71-45.646 77.34-56.462-59.795 48.312-147.09 57.481-217.457 30.014-23.443-34.205-52.498-4.476-69.482 16.02-18.163 21.327-33.996 49.936-53.393 70.094m15.263-35.573c25.625-25.883 49.157-58.939 80.427-72.59 24.28-28.11 35.547-28.273 58.664-45.087 16.508 8.433 36.133-.673 40.502-5.431 6.024 13.79 32.612 11.511 28.597-.981 7.806-6.461 16.139 6.893 27.23-5.53 6.768 7.507 16.09-9.805 24.74.59 14.341-13.812 26.95 25.914 47.254 19.83 20.16 16.846 59.487 18.817 83.628 43.115 20.049 11.052 39.909 38.286 53.682 14.013-2.815-47.633-34.919-52.6-56.508-78.524-18.225-19.977-52.782-56.462-80.842-52.794-21.352-5.304-37.655 17.99-46.288 6.599-20.123 9.209-33.12-15.756-63.11 1.169-30.452 1.623-36.757-3.08-57.712 2.7-24.151-5.886-39.982 23.506-60.288 22.938-14.82 14.496 4.139 8.155-24.032 18.207-26.77 16.906-19.882 42.575-35.796 35.849-19.306 22.455-13.393 47.444-26.876 45.54-14.806 24.868-6.39 59.538 6.728 50.387m209.28-46.274c23.134-47.044-66.49-43.304-43.862-1.049-19.68-15.434 18.17-58.795-35.465-36.436-21.403 48.726 37.302 39.47 75.053 41.531 3.33 1.67 3.192-2.154 4.273-4.046m24.456 3.019c28.015-8.922 2.34-84.976-20.52-38.335 14.186 16.751-14.837 52.03 20.52 38.335m25-6.952c55.044-9.98-9.209-67.841-8.5-15.739 7.998 4.626-13.616 30.2 8.5 15.74m-137.723-17.44c-9.193-29.523 52.607-34.197 52.303-14.686 28.773 5.254 75.782-40.342 79.854-3.62 32.094-27.24 31.81 11.424 35.257 24.863 38.473-11.878 46.601-31.504 5.745-42.63-25.491-17.846-38.586-25.27-64.668-14.87-4.664-4.645-38.43-10.441-36.471-2.458-24.515 16.377-58.526 6.646-86.57 29.95-44.548 8.455 24.466 58.559 14.55 23.451m-103.68-31.78c15.608-25.827-12.625 18.335 0 0m22.403-18.94c-6.376.499-3.084 7.533 0 0m66.403-46.202c13.507-17.223 41.547-21.846.355-7.282-14.116-3.05-2.172 23.942-.355 7.282m-75.403-55.536c37.586-29.072 30.455-27.012-6.797-6.542 33.38-9.101 96.898-87.596 33.105-39.324-19.472 16.112-39.972 32.022-9.61 4.16-33.428 7.5 88.896-53.9 26.802-23.852-29.89 26.108-75.99 13.154-19.375.033 28.744-12.6 72.59-47.058 52.665-20.548 8.746 10.587-53.217 75.075-76.79 86.073zm59.155-55.934c35.057-54.29-31.244 35.755 0 0m-46.713.955c-3.598-1.649-3.876 2.845 0 0m19.139-6.536c35.315-18.867 16.095-14.85-7.867 3.283zm158.37 24.278c-23.776-41.627-106.689 31.004-36.021-19.114 15.852-17.413 62.681 23.683 36.02 19.114m-160.451-64.456c-46.438-.233-29.526-53.838-23.658-59.959-28.536.031-120.918 81.254-56.04 26.36 41.9-35.414 117.572-59.46 157.526-9.253 3.895 31.715-44.005-46.21-30.86 10.147-3.52 17.697-28.27 36.725-46.968 32.705m25.246-14.151c53.823-63.083-90.305-25.472-12.027 2.83zm-40.666-23.879c18.461-18.872 53.455-23.14 4.92-16.248-11.497-.898-13.346 45.868-4.92 16.248m-.645-14.684c35.736-39.553-39.796 39.966 0 0m21.065-11.665c-3.447-4.759-5.967 5.708 0 0m124.5-28.54c12.77-26.09 44.113-118.945 64.612-85.55 31.958-11.753 64.381-48.36 72.638-16.148 52.266-20.355 70.261-4.881 119.728 2.238 35.53 5.91-17.37 29.522 29.093 38.418 17.879 10.366-9.819 30.87 5.804 46.214-21.103 15.167-31.75 5.88-5.875-.732-7.172-24.689 7.14-51.115-36.5-55.374 41.16-32.773-56.352-23.519-62.834-37.765-25.745 8.054-72.27 24.563-68.044-3.337-20.584 15.437-60.359 38.355-68.872 24.57-22.494 25.563-29.24 63.375-49.75 87.465m-69.11-94.306c-29.341-13.387-70.977-30.817-86.322-24.45 18.037-21.409 49.192 2.628 70.64 11.172 46.33 18.75 92.992-34.6 145.292-29.884 19.297-7.893 121.547-4.506 47.791 1.059-52.902 2.69-108.833 9.724-158.291 37.467-4.523 3.696-13.16 14.146-19.11 4.636m19.3-47.154c-23.863.362-62.23 1.112-80.085-25.085-46.773 6.051 21.34-22.713 31.283 17.03 38.679-4.227 66.363 12.828 95.132-6.711 41.622-19.719 87.771-25.809 132.48-29.302-41.162 12.809-83.322 14.894-126.487 27.69-11.543 5.98-40.472 26.81-52.322 16.378m-18.083-44.543c-33.215 1.745-27.978-4.066 3.807-8.707 35.516 11.82 86.857-1.836 128.336 6.214-5.07 16.41-78.402-8.69-111.794 4.992-4.82-3.453-18.416 6.489-20.35-2.5m113.99 708.402c29.977-1.439 42.88-45.638 45.403-75.86 9.172-37.225-41.679-34.752-62.837-20.446-23.636-4.167-56.086-6.546-48.512 31.919-2.52 44.53 43.592 43.735 54.144 65.541-1.625 9.254 10.923-.336 11.801-1.154m35.903-.379c16.805-8.293-25.245 8.289 0 0m22 .52c-1.21-3.657-2.467 3.562 0 0m-36-4c-1.21-3.657-2.467 3.562 0 0m28-1c2.48-3.939-7.329 4.193 0 0m-429.664-186.634c39.434-40.155-12.604-105.036 7.555-153.658-31.398-31.313-14.864-77.8-10.29-116.073 4.457-32.349-28.531-113.677-29.49-41.82 3.944 58.94 6.594 117.95 4.389 177.026-14.014-24.935-1.18-112.785-10.364-160.748-16.672-43.953 47.614-62.554 8.723-102.594-76.733-3.223-29.976 97.91-17.761 138.5 16.683 71.739 1.503 144.625 1.992 217.045 1.773 18.926 20.783 58.393 45.246 42.322m634.643-18.696c3.503-22.853-8.173 25.83 0 0m5.604-40.17c-1.35-21.745-5.633 41.565 0 0m-614.65 11.08c-2.234-20.904-9.017-1.099 0 0m8.519-8.83c-5.696-24.202-27.363-72.363-10.998-19.09.939-1.493 12.578 33.883 10.998 19.09m653.385-13.872c40.398-45.265 19.716-115.558 11.841-170.042-12.16-59.937 30.72-116.955 12.831-175.336-20.004-66.109-86.592 57.885-34.076 30.5 40.247 39.122 11.016 111.438 6.101 162.5-16.39 25.565 8.314 101.193-7.487 100.305-17.756-38.75 8.296-102.075 4.127-129.601-53.75 34.008-31.908 114.884-31.8 169 3.127 12.282 22.779 19.45 38.463 12.674m-323.926-65.211c22.43-26.88-29.886 28.616 0 0m-67.129 3.333c-11.337-16.464-15.386 7.333 0 0m-20.014-1c-9.841-7.223.594 9.104 0 0m92.758-3.807c-4.35 1.188-1.933 2.83 0 0m12.015-3.26c.359-6.017-6.79 5.249 0 0m38.559-6.194c-1.182-2.663-11.761 11.152 0 0m-36.729-2.594c3.977-15.337-15.595 17.163 0 0m-122.186-35.472c12.486-27.365-21.264 37.277 0 0m-258.602 5.684c.555-31.662-9.897-67.058-8.277-15.34l5.124 13.233 2.641 3.682zm647.951-59.252c-5.29-2.257 3.188 12.256 0 0m20.66-8.629c28.362-23.23-17.334-92.236-8.864-25.363 3.594 9.646-14.007 40.31 8.865 25.363m-18.194-7.091c14.416-44.88-12.256-1.731 0 0m-184.77-11.131c5.639-9.156-17.14 14.33 0 0m-7.554-2.934c40.7-53.707-77.224-14.659-11.773-1.807 17.912-6.434-9.453 13.812 11.773 1.807m-51.644-1.57c-13.524-23.974 3.387 13.58 0 0m281.21-15.585c4.186-24.207 3.773-124.372-28.91-76.362-9.45 41.43 25.434 60.266 26.986 88.973zm-630.952 1.835c33.842-49.186-1.15.547 5.32-15.577 27.333-60.132 89.386-87.693 153.523-74.802 34.036-2.716 101.002 54.489 61.407-11.146-21.76-5.351-54.82-7.19-59.029-18.882-43.3.431-102.957-3.89-146.236 23.18-40.393 20.587 22.791 7.371-18.216 30.33-7.998 20.506-29.482 41.515-29.196 65.57 8.3 9.489 26.061 13.456 32.427 1.327m355.705 2.75c2.896-35.788 82.433-29.541 10.872-31.206-10.633 3.3-23.91 30.485-10.872 31.206M217.98 992.94c-21.567-35.364 15.851 43.021 0 0m398.661-5.273c12.703-16.195-46.427 38.354 0 0m-3.162 13.4c-1.659 1.28 1.48 6.59 0 0m31.807-14.546c-8.193.438-17.726 20.143 0 0m222.5-13.586c-3.472-36.64-6.859 47.97 0 2.71zM189.939 871.548c14.737-37.99-29.502-85.35-35.907-24.013-10.14 38.165 23.078 19.569 29.606.687-6.673 6.955-3.078 46.44 6.301 23.326m689.655-10.052c12.63-19.406-21.046 16.932 0 0m-.996-7.91c12.434-1.667 78.456-34.837 28.407-21.252 88.587-31.956-82.747-22.947-13.178-29.858-23.255 9.74-21.959 26.392-15.229 51.11m-735.226-.554c-8.294-8.158 14.281-57.945-8.462-15.985-7.788 9.165-3.326 20.66 8.462 15.985m11.073-17.07c18.935-36.877-27.077 7.486 0 0m36.095-45.849c28.938-28.179 18.76-74.994-19.367-50.815 6.436 9.692 15.606 95.172 19.367 50.815m690.708 5.435c9.378-38.14 11.855-54.524-8.168-74.293-33.818-9.75-17.357 35.703-4.425 21.157 7.146 7.162 1.322 66.618 12.593 53.136m-659.462-7.784c19.745-15.206 73.08-18.776 22.796-32.318-32.55-50.397-60.15 76.223-22.796 32.318m670.929-10.475c8.16-41.802-5.579-12.604-3.282 11.29zm-32.126-1.741c7.791-58.894-59.228-36.737-58.764-16.07 17.962 2.37 47.613 20.44 58.764 16.07M285.286 760.73c39.84-15.399 132.874-11.12 53.356-50.932-19.482-51.09-62.693 58.206-53.356 50.932m-7.237-2.682c22.42-36.955 54.54-79.456-6.263-95.58-28.52-27.547-31.673 56.399-48.852 73.76 17.869 6.218 36.987 23.249 55.115 21.82m503.737-7.672c4.14-64.298-52.792-38.09-50.517-7.336 15.51-.675 41.307 11.983 50.517 7.336m17-.085c73.285-6.604 24.587-57.264-6-85.444-46.876 24.04-6.582 57.68-1.25 88.327zm-82.754-10.368c-26.2-33.945-52.912-101.277-94.113-39.981-34.23 20.5-42.48 42.075 1.334 34.222 30.484-.41 64.528 4.623 92.779 5.759m-304.553-3.157c36.866-1.668 98.96 4.013 42.892-36.896-22.194-61.467-74 29.678-55.636 38.146zm-245.174-1.16c17.181-26.009 65.155 21.375 65.34-31.807 16.315-25.156 32.057-75.83-8.589-34.953-22.082 14.211-59.093 46.943-56.75 66.76m562.98-2.293c53.744-25.055 15.45-77.92-16.627-101.575-30.366 21.692-59.55 37.64-16.872 66.498 9.853 9.402 21.457 39.687 33.5 35.077m-341.5.922c23.422-39.473 50.169-78.208-7.5-102.953-29.793-47.5-86.127 64.697-33.433 74.612 13.122 7.242 28.623 25.658 40.934 28.34m190.394-3.187c-20.06-26.879-41.924-93.106-66.769-28.25-44.276 36.643-5.49 32.272 25.779 31 11.82-2.001 35.246 3.89 40.99-2.75m9.607-1.293c17.172-36.579 113.421-54.172 42.661-92.851-27.958-54.597-67.106 4.256-85.833 29.759 15.497 19.159 30.298 45.47 43.172 63.092m-93.93-9.193c36.361-31.34 56.157-65.477 4.57-92.481-27.327-63.212-53.64 17.144-66.263 40.479 22.288 9.656 44.724 58.921 61.694 52.002m397.93 4.373c24.356-125.084 16.662-253.312 24.228-379.925-77.375-5.29-152.876-28.573-218.502-69.943-33.504-2.786-95.911-76.006-106.001-43.504 4.442 80.416-22.995 158.42-20.678 239.005 11.278 45.508-39.936 146.436 38.785 131.679 50.403 6.524 98.264 20.401 144.856 32.39 50.131 20.047 104.686 40.332 133.515 89.042l2.61 3zm-37.237-3.846c49.082-17.015-96.457-84.361-28.972-33.291 11.242 5.07 14.6 45.032 28.972 33.291m-683.62-8.041c49.405-59.62 123.05-92.091 196.857-109.272 50.716-12.997 124.43 7.147 97.946-72.492-3.114-84.23 1.988-168.567-9.017-252.322-6.978-44.883-13.114-98.773 42.526-50.748 28.86 54.78 120.977-20.646 49.071-35.416-34.429-33.24-57.112-37.963-86.23 6.429-92.956 81.936-203.234 138.307-307.573 203.719-66.495 11.647-80.225 54.61-47.71 108.852 25.079 67.3 28.286 141.242 60.51 206zm599.013-24.684c52.417-27.374-41.96-32.445-31.373-43.406 14.107 6.713 20.336 51.68 31.373 43.406M321.83 675.048c11.095-33.157 54.074-88.378-9.325-50.032-32.796 6.746-66.399 23.399-20.217 40.89 8.141-.223 25.254 27.066 29.542 9.142m354.957-17.309c90.122-32.233-66.178-54.163-55.237-39.941 20.806 4.69 35.14 57.148 55.237 39.941m-246.75.271c16.8-24.659 65.286-75.193 2.102-56.828-28.424-1.934-99.433 3.97-37.796 30.556 10.634 3.323 25.7 35.305 35.695 26.272m115.36.538c12.426-19.102 83.323-60.977 19.315-53.408-8.015 7.953-52.284-11.867-81.06-5.343 17.288 18.289 42.919 49.497 61.745 58.75m15.167-74.518c-5.821-54.013-69.573-82.428-85.735-13.732-17.826 39.849 95.07 14.888 85.597 20.827l.07-3.586zm-76.676-33.395c47.036-18.24 7.896-61.751-13.097-65.097 5.265 12.494-8.23 108.8 13.097 65.097m78.38-3.477c-.62-30.293 12.396-99.898-27.422-44.401-38.743 7.344 29.09 59.396 27.422 44.401m-41.886-34.482c31.667-23.475 58.001-43.323 9.22-66.755-24.522 1.274-78.828 32.701-27.554 52.541 6.059.921 11.509 23.424 18.334 14.214m-44.095-42.378c31.16-15.917 65.367-36.955 18.553-63.5-37.8-75.633-23.011 63.052-18.553 63.5m87.918-9.75c2.66-31.003 14.162-85.132-21.513-34.333-26.641 9.308 15.185 37.915 21.513 34.333m-23.013-35.805c56.654-20.736-28.072-82.28-49.636-66.521-40.073 3.295 42.654 93.063 49.636 66.521m28.84-42.027c3.107-38.728 36.155-121.073-24.445-66.17-32.524 16.438-49.387 35.059-5.096 51.836 7.19-.095 29.602 34.967 29.541 14.334m-88.423-18.92c47.015-7.369-37.438-81.564-12.53-19.984 3.171 6.77-2.984 41.853 12.53 19.983m29.998-24.162c27.388-25.764 102.036-50.032 33.68-74.815-32.93-10.453-106.504 47.619-43.141 74.527l3.834 3.452zm-41.939-38.36c19.429-22.914 95.011-44.017 31.994-62.046-68.188-65.113-33.506 35.072-31.994 62.045m115.68-44.226c-2.625-28.356 6.57-60.088-20.23-22.425-65.129 9.305 46.952 77.24 20.23 22.425m357.939 875.75c7.52-7.277-5.184 7.123 0 0" style="fill:#000"/><path d="M457.433 1496.492c-12.13-2.582-29.205-8.553-54.727-19.138-12.73-5.279-24.491-9.598-26.137-9.598-5.475 0-24.292-5.504-34.044-9.958-22.442-10.249-51.566-33.928-72.437-58.894-6.65-7.956-8.719-11.872-8.719-16.507 0-5.575-2.312-15.204-15.301-63.72-2.63-9.824-3.87-17.623-2.95-18.544.922-.921 6.272 3.678 12.722 10.936 14.325 16.118 32.547 24.907 35.529 17.137 1.742-4.54-4.31-13.984-17.143-26.755-6.445-6.412-11.263-11.66-10.707-11.66s5.711 2.832 11.458 6.292c11.74 7.07 13.356 7.49 13.356 3.477 0-7.301-12.684-23.491-19.594-25.009-10.31-2.264-12.29-6.828-13.137-30.292l-.767-21.265 6.899 14.075c7.415 15.13 17.643 31.142 19.895 31.148.761 0-.16-3.03-2.047-6.738-1.888-3.707-6.265-15.64-9.728-26.515-9.475-29.759-15.09-43.696-22.942-56.939-3.913-6.6-7.114-12.552-7.114-13.228s2.04-.716 4.533-.09c7.248 1.819 7.361-3.148.419-18.382-8.425-18.486-11.016-25.438-9.898-26.556 1.927-1.927 23.672 38.34 27.408 50.755 1.307 4.34 5.483 12.002 9.28 17.026 11.581 15.32 48.266 42.606 52.112 38.76.745-.745-5.989-8.405-14.964-17.023-14.045-13.484-32.938-36.848-32.938-40.733 0-.682 4.029 2.896 8.952 7.95 4.924 5.056 13.216 11.139 18.426 13.519 9.15 4.178 24.753 7.803 24.753 5.75 0-.552-3.782-2.88-8.404-5.174-11.936-5.924-28.647-23.103-41.722-42.892-11.602-17.56-41.008-74.773-39.306-76.475.529-.53 4.82 5.355 9.538 13.076 27.366 44.792 39.697 60.377 55.904 70.655 7.85 4.979 15.002 7.007 15.002 4.255 0-.63-7.14-9.325-15.868-19.324-36.015-41.263-52.193-64.63-65.067-93.987-11.842-27-10.061-25.4 20.334 18.284 11.057 15.891 15.497 20.744 22.614 24.717 8.755 4.887 14.618 6.294 14.618 3.507 0-2.323-8.758-14.904-26.456-38.004-9.112-11.895-17.805-24.02-19.317-26.944l-2.75-5.317 10.736-5.722c19.272-10.272 33.533-26.922 36.845-43.017 4.302-20.912 26.163-38.238 61.583-48.808 15.372-4.587 51.269-6.486 65.271-3.453 5.394 1.168 16.638 3.325 24.987 4.792 25.463 4.476 43.032 14.685 54.59 31.724 15.423 22.737 14.958 49.13-1.242 70.473-2.41 3.176-4.57 9.096-5.119 14.04-1.031 9.272-9.886 28.906-24.486 54.293-5.094 8.857-9.261 18.26-9.261 20.896s-1.214 8.232-2.697 12.436c-1.483 4.203-2.696 9.238-2.696 11.189 0 7.046 5.876 15.907 13.52 20.386 9.062 5.31 31.157 10.314 41.307 9.354 3.955-.375 9.213.37 11.685 1.654 11.098 5.766 38.942.702 56.788-10.327 3.898-2.41 11.602-4.285 22.646-5.515 19.235-2.141 28.003-6.165 34.478-15.823 8.15-12.156 8.22-12.59 3.65-22.442-2.334-5.032-3.451-9.418-2.483-9.747 2.488-.846 10.963 4.692 29.617 19.352 17.192 13.51 24.034 16.28 20.373 8.245-1.117-2.453-3.431-4.904-5.142-5.447-4.278-1.358-33.197-30.386-39.728-39.878-4.357-6.334-4.776-7.74-2.304-7.74 1.66 0 5.662 1.634 8.892 3.63 6.178 3.818 24.872 10.751 28.988 10.751 4.458 0 2.473-3.53-5.045-8.976l-7.46-5.404h8.108c13.149 0 24.788-2.103 24.788-4.479 0-1.297-6.054-3.455-14.83-5.286-28.856-6.021-49.067-12.017-58.552-17.37-12.275-6.928-15.5-5.177-14.258 7.74.455 4.735.61 8.609.345 8.609-1 0-13.68-18.054-19.694-28.04-10.362-17.21-8.104-29.191 7.204-38.224l6.31-3.722v6.86c0 9.41 8.023 20.11 19.162 25.559 11.598 5.672 33.355 6.923 44.746 2.573 9.148-3.493 20.965-15.893 23.554-24.714 1.326-4.52 1.02-7.592-1.303-13.096-5.056-11.977-5.581-16.506-2.295-19.792 5.887-5.887 26.055 1.823 54.448 20.815 19.238 12.868 25.484 13.946 19.854 3.427-2.52-4.708-21.714-18.047-36.827-25.592-15.225-7.6-27.828-11.299-46.19-13.555-25.963-3.19-41.182 2.45-74.25 27.509-24.64 18.671-28.427 20.547-33.047 16.367-1.87-1.693-5.595-7.97-8.278-13.95-6.726-14.985-6.108-33.453 1.628-48.721 6.265-12.365 21.966-27.884 34.78-34.377 20.494-10.386 71.37-20.904 100.875-20.856 36.916.06 58.83 8.357 85.375 32.324 15.798 14.263 22.696 17.62 22.696 11.047 0-5.108-11.24-18.6-19.684-23.628-4.151-2.472-12.801-7.995-19.223-12.274-18.85-12.56-28.375-15.227-54.57-15.285-29.564-.065-72.667 6.133-92.186 13.257-30.42 11.102-57.754 32.836-68.586 54.537-10.035 20.106-7.85 49.592 4.927 66.462 2.355 3.11 8.198 12.53 12.983 20.934 20.373 35.776 32.678 51.194 53.408 66.916 11.415 8.657 10.29 20.945-2.831 30.954-9.33 7.116-17.04 9.288-20.542 5.787-2.355-2.355-2.517-3.989-.912-9.218 3.524-11.48-2.76-8.062-26.475 14.402-12.909 12.229-24.09 18.79-32.02 18.79-7.225 0-16.331-6.643-21.793-15.9-4.768-8.08-10.96-12.689-17.193-12.797-1.977-.034-8.723 2.364-14.991 5.33-13.378 6.328-15.708 6.573-18.201 1.914-5.392-10.075-.392-29.64 12.38-48.447 12.536-18.46 16.562-28.888 16.191-41.927-.288-10.117.446-12.732 6.962-24.792 9.654-17.87 14.737-33.637 14.737-45.715 0-10.403-4.922-25.9-10.526-33.145-2.635-3.406-3.012-5.744-1.882-11.684 2.992-15.73-2.35-28.558-15.501-37.227-3.93-2.59-15.639-8.13-26.02-12.31-22.302-8.98-33.871-15.996-41.235-25.006l-5.382-6.586-.06 4.843c-.16 12.776-12.832 17.585-46.595 17.683-35.782.104-54.848 4.437-81.726 18.573-17.697 9.308-28.133 18.632-28.133 25.137 0 2.624.872 4.77 1.938 4.77s-.874 3.285-4.31 7.3-9.313 14.328-13.06 22.919-7.268 16.169-7.824 16.839c-1.273 1.533-24.348-40.173-30.388-54.924-6.324-15.445-7.288-30.417-2.385-37.049l3.746-5.067-4.353-1.092c-7.599-1.907-9.011-12.202-5.572-40.604 1.616-13.348 2.927-26.476 2.913-29.175-.022-4.037 1.648-5.879 9.411-10.384 43.269-25.11 103.883-43.1 173.021-51.353 33.743-4.027 165.807-6.575 226.766-4.375 104.02 3.754 158.023 13.59 232.904 42.416 9.703 3.735 9.565 3.367 15.011 40.287 5.937 40.248-1.29 134.091-15.643 203.131-6.212 29.882-8.46 50.334-5.532 50.334 1.06 0 2.204-1.416 2.542-3.146.339-1.73 1.466.552 2.506 5.073 1.633 7.1.975 12.728-4.833 41.345-8.448 41.623-9.473 48.406-7.315 48.406.944 0 2.968-3.033 4.498-6.74l2.781-6.742-.916 12.583c-.873 11.976-.77 12.41 2.117 8.988 2.87-3.402 2.975-2.583 1.953 15.28-2.15 37.578-10.327 104.237-15.547 126.751-12.412 53.533-32.644 81.303-75.938 104.23-17.562 9.3-31.613 14.963-71.443 28.792-16.313 5.664-35.543 13.033-42.733 16.376-13.508 6.28-18.386 7.406-18.386 4.244 0-1.009 3.741-9.283 8.314-18.387 13.897-27.672 19.501-66.84 11.452-80.042-5.275-8.652-10.696-10.114-28.456-7.676-8.24 1.13-24.014 4.108-35.053 6.617-25.74 5.848-38.448 5.326-45.98-1.89-4.903-4.698-5.34-4.803-7.009-1.682-8.582 16.053-10.522 47.374-4.16 67.143 5.725 17.788 14.53 28.02 32.15 37.363 8.148 4.32 14.813 8.918 14.813 10.218 0 3.423-11.698 7.581-27.517 9.781-19.443 2.705-72.517 3.956-82.014 1.934m-110.864-93.556c2.545-3.025 13.871-18.192 25.17-33.706 23.573-32.368 35.258-45.913 46.08-53.412l7.635-5.292 2.812 4.463c9.664 15.337 35.372 30.983 61.89 37.666 34.259 8.635 100.517 8.807 124.28.323 13.76-4.914 31.084-15.37 47.156-28.462 7.06-5.751 18.994-15.476 26.52-21.61l13.684-11.153 7.238 2.553c13.475 4.754 27.721 15.926 53.176 41.701 22.097 22.374 26.11 25.69 31.101 25.69 4.896 0 6.16-.982 8.692-6.742 3.584-8.153 3.948-45.244.617-62.895-2.07-10.972-2.504-11.59-20.162-28.762-18.848-18.328-28.756-25.613-34.858-25.628-2.578-.01-4.862-2.625-7.935-9.097-10.604-22.336-37.367-40.579-69.666-47.49-10.582-2.264-11.516-2.174-19.517 1.877-7.852 3.975-8.819 4.08-14.722 1.614-9.55-3.99-14.25-3.328-18.653 2.627l-3.893 5.266-5.312-3.918c-6.542-4.824-23.41-5.07-40.232-.587-12.265 3.269-47.902 2.95-57.003-.51-16.761-6.373-47.22 5.78-80.293 32.034-2.696 2.14-4.907 2.829-5.581 1.738-.614-.994-8.017 4.725-16.45 12.708s-16.638 14.514-18.232 14.514c-8.39 0-28.707 26.837-44.23 58.423-8.41 17.11-21.595 58.006-21.595 66.976 0 5.002 4.766 14.816 7.195 14.816 3.016 0 7.732 9.011 7.577 14.478-.192 6.74 1.712 6.689 7.511-.203m49.801-255.449c14.487-10.414 34.16-29.032 47.587-45.034 13.75-16.39 18.331-23.66 20.707-32.87.765-2.966 1.944-7.213 2.62-9.437.86-2.824.489-4.04-1.226-4.03-1.351.01-13.782 6.5-27.623 14.426s-30.553 16.021-37.135 17.988c-21.61 6.458-25.725 14.31-7.5 14.31h9.98l-4.245 3.558c-3.062 2.568-3.639 3.96-2.071 5.003 1.519 1.01.303 2.936-4.045 6.405-5.786 4.616-8.012 8.445-4.868 8.37.741-.018 8.854-5.948 18.027-13.18 35.318-27.84 42.072-26.182 12.532 3.076-13.704 13.574-21.304 19.598-29.66 23.512-6.18 2.894-11.236 5.933-11.236 6.753 0 1.932 11.324-2.808 17.909-7.497 7.698-5.481 10.892-4.341 3.697 1.32-11 8.654-15.368 12.897-13.337 12.956 1.088.03 5.537-2.502 9.887-5.629m187.966-33.082c1.428-3.722-8.73-14.138-18.31-18.776-13.109-6.345-19.85-5.022-38.365 7.531-9.01 6.108-16.126 11.361-15.815 11.672.312.312 4.91-1.529 10.22-4.09 21.126-10.192 40.3-9.788 48.84 1.027 4.53 5.735 11.7 7.143 13.43 2.636m-148.598-65.632c9.093-4.107 20.518-14.367 24.543-22.038 2.006-3.825 2.366-7.979 1.44-16.628-1.548-14.45-.082-14.71 14.496-2.587 12.56 10.445 17.045 11.463 17.045 3.87 0-3.8-2.09-7.09-7.91-12.456-29.518-27.208-78.504-26.509-127.452 1.82-12.323 7.133-45.368 33.407-43.883 34.892.44.44 9.81-5.65 20.82-13.532 18.962-13.574 46.349-28.93 51.595-28.93 1.98 0 1.942 1.322-.208 7.417-3.493 9.9-3.37 29.101.234 36.698 3.174 6.688 9.59 11.571 17.784 13.537 10.437 2.503 23.246 1.664 31.496-2.063m117.069-100.095c3.583-5.677 12.205-22.21 19.16-36.74 6.955-14.532 14.775-29.212 17.377-32.623 4.314-5.656 5.172-6.037 9.73-4.317 7.333 2.769 26.314-3.592 46.081-15.443l16.173-9.696 2.053 4.882c1.129 2.685 3.422 5.407 5.096 6.05 6.9 2.648 24.572.922 42.714-4.172 17.122-4.808 19.526-5.092 24.13-2.85 2.813 1.37 15.797 4.17 28.855 6.223 24.969 3.924 37.345 7.732 38.98 11.994.54 1.407-1.42 5.293-4.355 8.636-6.572 7.486-6.61 8.29-.393 8.34 8.016.064 19.842 6.438 23.693 12.77 1.95 3.206 4.007 10.331 4.572 15.834s1.387 13.362 1.826 17.465c.739 6.892.428 7.553-4.075 8.683-9.616 2.414-12.745 8.13-4.445 8.119 7.388-.011 17.274-6.577 15.662-10.403-2.932-6.962-2.899-11.824.16-23.617 2.967-11.441 2.993-12.749.332-16.81-1.8-2.747-5.849-5.15-10.762-6.387-4.332-1.091-9.366-3.63-11.187-5.641-2.88-3.182-3.039-4.56-1.229-10.602 3.419-11.412 2.729-15.727-2.863-17.899-2.719-1.056-19.873-4.903-38.122-8.55-28.957-5.785-35.246-6.493-49.434-5.563-8.941.586-21.514 2.706-27.94 4.71-8.455 2.637-11.883 3.06-12.4 1.526-.393-1.165-2.663-4.067-5.043-6.447-6.312-6.311-13.362-4.347-41.04 11.437-12.884 7.347-24.313 13.36-25.395 13.36s-2.975-1.214-4.206-2.697c-1.23-1.483-4.672-2.696-7.648-2.696-10.864 0-22.005 16.707-42.937 64.39-13.534 30.827-12.879 29.092-10.984 29.07.742-.009 4.28-4.66 7.864-10.336m-59.154-86.52c30.389-20.643 78.559-33.153 149.393-38.8 34.333-2.736 39.573-3.712 35.113-6.537-3.372-2.137-42.674-1.89-59.064.37-7.415 1.022-18.285 2.203-24.156 2.623-15.826 1.133-29.024 5.006-57.338 16.825-34.318 14.325-43.678 16.853-59.371 16.035-10.931-.57-15.76-2.044-32.605-9.956-23.204-10.899-33.298-13.846-41.894-12.234-6.256 1.174-14.735 5.7-14.727 7.863.002.627 4.654 1.257 10.336 1.398s17.209 2.465 25.612 5.163c18.45 5.922 48.525 18.626 51.81 21.885 3.58 3.55 5.695 2.97 16.891-4.635m36.865-51.474c22.164-11.361 31.551-14.016 84.982-24.029 21.257-3.983 43.502-8.877 49.435-10.874l10.785-3.63-13.482.919c-19.03 1.297-50.415 5.888-67.888 9.93-20.493 4.743-34.36 9.532-54.35 18.77-19.395 8.964-19.968 9.028-63.045 7.078l-29.789-1.35-3.467-6.475c-6.268-11.708-27.003-18.171-41.1-12.812-7.246 2.755-5.407 5.438 3.727 5.438 7.18 0 9.384.964 15.875 6.948 11.72 10.802 24.748 14.895 51.59 16.207 12.527.612 23.38 1.72 24.119 2.46 3.59 3.602 14.387.76 32.608-8.58m-25.305-37.178c5.735-1.189 18.384-1.467 33.256-.73 67.784 3.358 65.17 3.339 68.939.502 1.976-1.487 2.919-3.377 2.095-4.2-.823-.822-25.09-1.572-53.926-1.665-33.93-.11-56.88-.98-65.046-2.461-12.806-2.324-28.376-.734-35.02 3.578-4.372 2.838 1.164 5.285 12.029 5.317 5.132.016 9.855.876 10.495 1.912 1.218 1.97 10.538 1.198 27.178-2.253M183.956 1282.83c-5.017-5.204-10.17-13.047-12.7-19.324-3.834-9.52-4.218-12.967-3.874-34.833.209-13.348 1.33-38.02 2.49-54.828 3.06-44.345 2.674-98.456-.865-121.218-1.67-10.746-7.09-31.471-12.691-48.536-12.841-39.117-16.092-53.572-16.198-72.026-.075-12.908.567-16.388 4.135-22.425 6.663-11.275 16.444-16.736 30.42-16.985 7.244-.13 7.984.342 13.033 8.304 6.689 10.547 7.036 20.141 1.13 31.251-2.322 4.37-7.58 14.257-11.684 21.973-8.06 15.154-9.59 26.103-5.447 39.013 1.229 3.83 2.561 33.292 3.414 75.488 1.348 66.696 2.564 80.51 7.517 85.387 1.867 1.839.837-113.142-1.482-165.578-1.145-25.863.766-39.455 5.335-37.956 7.182 2.355 18.79 33.262 20.407 54.332.665 8.672-.291 20.127-3.077 36.851-7.335 44.045-5.022 69.837 7.768 86.62 5.84 7.66 5.881 7.854 3.448 15.844-3.382 11.109-1.846 33.095 4.335 62.018 6.65 31.127 6.95 55.388.838 67.872-5.57 11.377-13.044 17.515-21.325 17.515-5.405 0-7.89-1.458-14.927-8.759M870.531 1216.08c-3.587-1.896-7.067-4.868-7.733-6.604s-2.461-20.575-3.989-41.864c-4.016-55.965-1.755-80.792 9.351-102.71 4.943-9.753 19.639-25.772 22.194-24.193 1.935 1.196.96 10.954-4.495 44.99-6.363 39.706-5.199 78.862 2.421 81.402 1.212.404 3.18-1.409 4.375-4.03 1.694-3.718 1.697-10.554.013-31.15-2.935-35.879-2.72-45.253 1.407-61.223 1.947-7.534 5.627-25.832 8.178-40.662 2.55-14.83 4.898-27.774 5.216-28.762.319-.989.58 7.91.58 19.774.002 16.348 1.422 29.624 5.864 54.827 12.414 70.431 8.502 113.219-12.541 137.186-5.315 6.053-6.613 6.617-15.067 6.544-5.513-.047-11.887-1.472-15.774-3.526" style="fill:#f4d7d7;stroke-width:1.79762"/><path d="M632.577 1712.768c-2.966-.398-17.721-3.11-32.79-6.028-49.393-9.566-165.129-13.96-209.888-7.97-24.855 3.327-37.008 3.374-41.402.16-3.15-2.303-3.218-2.934-.793-7.48 1.456-2.732 9.119-11.914 17.028-20.406 26.083-28.004 31.458-36.716 31.458-50.988 0-4.292 1.15-9.374 2.557-11.293 2.522-3.444 2.622-3.44 7.64.253 4.8 3.533 16.768 21.162 16.768 24.7 0 .9-3.238-1.288-7.196-4.864-8.744-7.9-12.593-8.377-12.538-1.557.075 9.25 9.128 16.862 22.168 18.64 5.088.693 14.256 3.135 20.375 5.427s11.712 3.58 12.429 2.862c.717-.717-7.558-10.407-18.39-21.532s-21.46-23.12-23.616-26.653c-3.928-6.438-11.142-27.193-11.185-32.184-.013-1.461 6.65 3.886 14.807 11.884 9.306 9.124 17.69 15.637 22.507 17.487 8.35 3.205 14.794 3.828 14.794 1.43 0-.834-6.624-7.103-14.719-13.932-22.68-19.131-31.766-29.066-33.93-37.103-1.057-3.923-1.523-7.53-1.036-8.017s7.618 5.547 15.847 13.408c17.854 17.055 19.103 17.773 33.745 19.43 14.019 1.586 13.497-.183-2.735-9.26-19.355-10.825-32.187-21.194-35.682-28.834-12.832-28.057-13.239-29.45-8.608-29.45 3.829 0 17.163 9.419 28.243 19.949 7.207 6.85 27.152 17.314 29.165 15.3 1.646-1.645-3.925-7.16-27.14-26.868-11.739-9.966-20.486-18.405-19.44-18.754 1.048-.35 13.484 1.126 27.636 3.277 35.645 5.42 67.353 6.538 83.346 2.94 6.87-1.545 20.581-3.33 30.468-3.963 27.132-1.741 38.471-4.128 50.334-10.596 16.552-9.026 23.217-10.812 29.675-7.954l5.378 2.38v24.8c0 56.712 10.344 104.853 31.64 147.258 4.688 9.333 12.108 20.415 17.852 26.663 9.714 10.566 11.658 14.774 7.9 17.097-1.06.655-11.374 1.983-22.92 2.95-11.544.967-25.616 3.309-31.27 5.205-5.653 1.896-10.911 3.327-11.684 3.178-.773-.148-3.832-.594-6.798-.992m-217.343-24.178c1.748-2.828-3.938-6.658-11.716-7.89-3.536-.56-7.642-1.775-9.125-2.7-15.14-9.445-23.37-11.344-23.37-5.392 0 4.448 10.415 12.908 19.286 15.668s23.302 2.941 24.925.314m14.74-11.86c-.4-2.384.915-3.285 5.424-3.718 8.093-.777 6.555-3.647-5.175-9.655-5.37-2.751-11.661-7.238-13.98-9.971-14.823-17.478-20.053-20.693-20.053-12.328 0 3.44-.735 4.133-3.595 3.386-3.11-.814-3.595-.055-3.595 5.618 0 9.297 3.813 17.268 11.48 23.999 6.013 5.28 7.696 5.814 18.322 5.814 10.146 0 11.63-.418 11.173-3.146" style="fill:#f4d7d7;stroke-width:1.79762"/><path d="M803.852 951.791c5.481 4.9 12.123 7.921 19.316 9.17l7.358-.421c1.137-.44-5.09-16.518-6.227-16.078l4.6-.03c-2.922.775-9.9-4.094-12.841-5.17-.886-.863-13.092 11.666-12.206 12.529" style="fill:#000"/><path d="M824.438 937.076c-4.083-4.105-8.825-7.42-11.588-12.625-1.723-4.24-3.822-7.322-8.014-9.836-3.669-2.2-8.894-2.239-13.027-2.792-2.8-.569-5.807-.995-8.27-2.578-1.59-1.021-2.782-2.788-3.932-4.243q-.592-.748-1.187-1.495c-.58-1.094-16.052 7.117-15.471 8.211l.928 1.726c5.319 8.93 10.556 13.586 21.056 15.628 1.02.172 8.48 1.825 9.37.165.336-.629-.379-1.51-.043-2.14.636-1.194 1.962 7.937 1.739 3.672 3.765 8.986 7.973 13.668 16.233 18.836.886.863 13.092-11.666 12.206-12.529M562.972 942.467c1.883-7.74 1.623-15.657 1.261-23.537.593-3.975 3.652-6.97 5.692-10.278.882-1.431 1.668-2.92 2.502-4.38 2.335-4.38 4.296-8.907 5.736-13.66.694-2.288 1.134-4.643 1.848-6.926-3.075.444.263 1.24-.084 1.68-3.193 4.051-10.103-2.684-12.494-3.726-.334-.145-.703-.875-.924-.585-.816 1.07-.993 2.5-1.489 3.75-6.943 15.687-11.636 32.197-15.204 48.94-1.353 4.927-1.72 10.119-3.132 15.033-.53 1.843-.324.885-.262.82-.634 1.47-1.352 2.905-1.9 4.409-.368 1.007-.464 4.322-.35 5.417.091.865.337 1.706.505 2.56 1.98 2.104 3.051 6.29 5.941 6.313 9.655.078 11.443-4.654 14.37-10.508 1.143-2.286 2.313-4.56 3.365-6.89 3.773-8.356 4.279-10.31 7.496-19.181 3.335-9.355 5.96-18.94 8.564-28.518.116-.423 2.277-8.78 2.699-10.011.41-1.2.978-2.34 1.467-3.509.898-1.821 1.883-3.59 3.554-4.807 2.252-1.64-1.185 1.463 2.162-1.43.674-.581 1.288-1.23 1.932-1.845 2.07-2.54 3.193-5.592 4.644-8.476.75-1.493.17-1.242.845-1.48-1.075 1.955-.377.94-2.25 2.932 1.131-.44-5.1-16.427-6.23-15.986-4.994 2.494-2.936.923-6.369 4.446-1.559 2.378-2.85 4.855-4.077 7.411-.026.055.096-.075.144-.112-1.532 1.141-3.15 2.08-4.6 3.35-3.067 2.683-5.507 5.93-7.275 9.601-2.24 4.827-4.846 9.513-6.87 14.436-3.764 9.154-6.57 18.684-9.574 28.098-2.657 8.698-5.272 17.324-7.305 26.189-.242 1.053-1.795 3.09-.716 3.162 15.963 1.056 5.673-8.413 14.939 3.6-.237.818-.278-2.029-.346-2.26-.04-.136-.652.612-.162.398l-1.715 3.525c6.684-5.312 8.79-14.887 11.227-22.547 8.774-32.913-4.728 17.943 4.581-17.877 2.728-10.493 5.948-20.857 8.408-31.422.166-1.238 1.589-9.855.59-10.918-6.509-6.928-9.26-9.002-15.128-5.731-.907.505-1.78 1.109-2.502 1.855-1.04 1.077-1.824 2.375-2.735 3.562-3.323 6.258-5.2 13.173-8.62 19.398-3.503 7.257-8.595 13.918-9.134 22.24-.12 3.581-.06 7.164-.25 10.742-.187 3.515-.47 5.259-.472 8.77 0 1.322.107 2.642.16 3.963 0 1.24 17.537 1.24 17.537 0" style="fill:#000"/><path d="M347.916 1372.546c-2.591-1.953-5.433-8.742-6.582-15.73-1.717-10.436 4.781-33.525 9.435-33.525 3.668 0 6.272-4.17 10.227-16.37 5.538-17.084 12.703-29.624 16.244-28.427 4.629 1.566 7.683-1.11 13.055-11.437 7.88-15.147 15.46-22.651 27.976-27.697 7.697-3.102 10.276-4.765 10.833-6.981 1.122-4.473 5.792-8.099 12.759-9.906 3.651-.947 11.77-5.252 19.19-10.176 14.647-9.72 21.372-12.493 29.56-12.189 3.156.117 9.17-.43 13.365-1.216s16.78-1.29 27.965-1.117c18.496.283 21.004.053 27.694-2.548 9.62-3.74 18.204-3.64 31.506.365 6.822 2.054 13.48 3.175 18.337 3.088 4.195-.076 9.431.246 11.636.714 3.133.666 6.327-.217 14.618-4.041 10.36-4.778 10.952-4.893 25.226-4.893 14.502 0 14.704.041 25.423 5.202 14.294 6.882 27.015 17.21 50.844 41.277 10.836 10.945 23.992 23.337 29.235 27.537 21.592 17.294 28.247 28.058 32.321 52.274.612 3.638.084 4.897-3.599 8.58-4.612 4.612-9.015 5.463-15.502 2.997-3.814-1.45-29-18.965-39.666-27.585-8.763-7.082-18.371-11.862-40.71-20.252-18.816-7.067-32.478-13.374-33.88-15.642-.44-.714-3.263-1.3-6.27-1.3-6.478 0-11.755-3.208-23.117-14.057-8.016-7.653-12.249-9.658-17.573-8.322-1.699.426-4.567.213-6.373-.474-2.507-.953-4.933-.631-10.249 1.358-3.862 1.445-8.104 2.244-9.521 1.794-1.62-.514-3.733.114-5.768 1.715-2.88 2.265-4.622 2.463-16.836 1.917-15.256-.683-21.887.113-21.887 2.627 0 .932-1.739 2.414-3.863 3.295-3.438 1.423-4.176 1.306-6.702-1.067l-2.838-2.666-7.278 3.67c-9.362 4.723-18.646 5.88-26.886 3.35l-6.257-1.92-17.773 11.064c-12.53 7.8-21.371 14.481-29.97 22.649-6.709 6.371-14.567 12.787-17.464 14.256-10.791 5.474-26.376 18.741-43.975 37.436-35.02 37.2-32.933 35.37-36.91 32.373M579.61 1482.329c0-3.903-8.978-11.7-23.154-20.11-15.694-9.31-23.087-16.244-27.508-25.8-2.934-6.34-3.241-8.549-3.298-23.726-.056-15.08.202-17.092 2.612-20.338 5.617-7.563 9.45-8.685 29.739-8.703 15.07-.013 19.172-.419 22.499-2.224 5.694-3.091 18.769-5.98 27.16-6.003 15.265-.04 26.64 6.705 28.56 16.937.99 5.28-2.35 28.613-5.944 41.515-3.762 13.507-10.291 26.61-16.953 34.019-5.79 6.44-14.775 11.718-20.035 11.77-1.58.015-4.304 1.146-6.052 2.513-4.092 3.202-7.627 3.27-7.627.15M824.026 942.35c-1.2-.445-1.206-1.113-.026-3.002 1.319-2.112.75-3.221-4.358-8.49-3.231-3.333-6.765-7.834-7.854-10.002-2.568-5.118-6.62-7.683-14.36-9.09-4.35-.79-10.523-3.872-20.204-10.086-27.587-17.708-31.471-18.864-62.877-18.716-25.523.12-47.115 2.422-70.854 7.554-21.326 4.611-39.068 12.275-55.558 24.001-3.46 2.461-6.442 4.324-6.627 4.14s1.437-6.758 3.603-14.607c3.53-12.797 4.511-14.853 9.487-19.9 3.052-3.096 5.55-6.228 5.55-6.96s2.021-1.331 4.492-1.331c7.706 0 24.426-6.436 40.2-15.473 15.717-9.004 17.572-9.751 17.62-7.09.058 3.286 4.72 7.501 9.48 8.575 6.825 1.54 22.268-.426 41.631-5.298 15.99-4.024 16.265-4.048 22.88-1.987 3.683 1.147 14.99 3.582 25.127 5.412 31.185 5.63 40.675 8.696 40.675 13.142 0 1.266-2.054 4.939-4.565 8.162s-4.24 6.39-3.84 7.035c.399.647 3.553 1.447 7.009 1.779 8.99.864 18.796 7.405 22.017 14.687 3.276 7.404 6.556 34.66 4.416 36.683-.837.79-2.215 1.178-3.064.863M250.086 1011.332c-2.615-.934-6.264-2.686-8.109-3.895-3.127-2.049-3.308-2.68-2.691-9.369.796-8.635 4.482-17.252 14.2-33.205 4.013-6.586 8.907-15.149 10.876-19.028 2.484-4.894 4.96-7.786 8.084-9.443 6.117-3.243 10.226-7.817 9.267-10.315-.428-1.116-2.788-2.869-5.245-3.895-2.457-1.027-4.467-2.427-4.467-3.113 0-3.42 26.646-17.927 41.947-22.838 22.08-7.086 49.552-10.202 89.952-10.202 25.596 0 26.687.103 29.017 2.727 3.98 4.482 11.782 7.184 32.419 11.227 10.767 2.11 20.73 4.1 22.142 4.425 2.703.62 10.511 13.937 13.29 22.664 1.212 3.805 1.2 5.217-.055 6.73-2.202 2.652-5.787 1.722-29.783-7.727-22.256-8.765-26.597-9.92-46.396-12.35-49.812-6.113-88.768 4.903-118.928 33.631-11.786 11.226-21.588 24.022-27.72 36.189-3.53 7-4.207 10.529-2.024 10.529 2.738 0-8.856 14.921-13.193 16.98-5.219 2.476-6.354 2.5-12.583.278M183.095 875.994c-2.508-4.685-2.958-15.73-.885-21.693 1.085-3.118 1.78-5.861 1.547-6.095s-1.917 2.121-3.74 5.233c-3.665 6.254-11.272 12.873-17.15 14.922-4.94 1.722-8.605-.16-9.66-4.961-.894-4.071 2.163-23.308 5.135-32.308 2.229-6.751 8.032-12.431 12.7-12.431 4.456 0 12.6 7.954 16.709 16.319 3.15 6.413 3.534 8.58 3.534 19.907 0 10.782-.437 13.531-2.885 18.114-1.587 2.97-3.14 5.402-3.45 5.402-.312 0-1.146-1.084-1.855-2.409M879.179 851.996c-1.609-2.833-3.843-15.948-3.838-22.53.006-8.738 3.578-17.1 8.754-20.492 2.653-1.738 5.095-1.946 14.284-1.218 14.172 1.123 27.722 3.915 31.724 6.538l3.132 2.052-3.549 3.704c-1.952 2.038-8.057 5.548-13.566 7.8-10.119 4.138-11.524 6.087-2.603 3.61 7.028-1.952 11.246-1.808 9.478.323-3.69 4.446-42.582 22.387-43.816 20.213" style="fill:#fff;stroke-width:1.27111"/><path d="M161.018 701.952c-10.916-26.148-17.438-48.8-30.075-104.464-12.448-54.829-18.804-75.97-29.192-97.1-8.05-16.376-10.727-26.455-10.67-40.18.076-18.131 6.984-30.64 21.602-39.118 16.558-9.603 26.658-14.26 34.182-15.762 5.816-1.161 12.1-4.287 27.26-13.557 10.837-6.627 45.157-27.308 76.267-45.958 59.824-35.863 95.583-58.343 123.472-77.621 41.009-28.348 85.423-63.566 92.152-73.071 5.373-7.59 22.288-23.143 27.57-25.35 12.522-5.232 28.537.412 45.983 16.204 5.727 5.183 9.787 7.62 16.299 9.778 18.45 6.117 23.534 18.499 13.174 32.083-3.289 4.311-5.752 5.952-12.34 8.221-5.242 1.805-9.263 4.127-11.069 6.391-2.598 3.26-3.662 3.593-12.712 3.982-7.876.34-11.062-.105-15.733-2.193-5.222-2.335-13.992-10.283-17.14-15.532-1.774-2.96-14.296-12.403-20.851-15.725-13.007-6.591-20.185-5.383-24.487 4.123-2.317 5.119-2.72 8.28-2.635 20.661.056 8.04 1.302 23.198 2.77 33.684 6.458 46.154 7.728 70.516 9.044 173.507 1.034 80.986 1.245 86.364 3.75 95.854 2.899 10.977 3.401 22.799 1.292 30.393-1.866 6.721-9.451 14.692-17.288 18.167-7.966 3.532-22.573 6.287-42.998 8.108-22.505 2.006-32.611 3.598-49.573 7.808-56.938 14.132-104.85 35.618-143.3 64.262-7.176 5.345-21.155 17.879-31.066 27.852l-18.02 18.134zM884.598 716.752c-8.055-12.019-29.188-32.374-43.14-41.552-14.87-9.782-41.474-23.04-66.733-33.257-28.78-11.64-101.255-30.123-149.991-38.25-4.894-.815-15.255-1.375-23.024-1.243-21.604.368-29.813-4.385-34.314-19.865-2.71-9.323-1.866-31.396 2.201-57.55 2.54-16.334 2.834-22.482 2.58-54.022-.318-39.71.828-54.301 8.19-104.231 9.344-63.376 10.762-76.538 11.564-107.343.765-29.345.824-29.852 3.851-32.879 6.271-6.27 16.145-1.982 50.897 22.11 24.549 17.018 33.51 22.227 44.198 25.694 4.22 1.368 13.924 6.09 21.566 10.492 41.322 23.803 90.72 42.285 138.633 51.87 16.367 3.273 25.623 4.628 58.704 8.59 4.518.542 5.4 1.103 5.39 3.43-.006 1.53-.554 13.65-1.216 26.933s-1.813 51.893-2.557 85.8c-2.037 92.785-4.105 137.078-8.398 179.862-3.222 32.104-10.512 80.955-12.357 82.8-.36.36-3.08-2.965-6.044-7.389" style="fill:#d40000;stroke-width:1.27111"/><path d="M465.845 1315.476c-10.995-5.98-18.43-14.705-18.43-21.629 0-3.842 4.296-8.11 10.223-10.154 2.416-.833 7.322-3.45 10.9-5.815 9.02-5.96 20.91-9.81 42.165-13.652 9.99-1.806 20.639-4.124 23.664-5.151 4.302-1.461 6.386-1.559 9.57-.448 8.589 2.994 20.42-.897 20.42-6.715 0-3.072 3.175-3.016 12.807.23 7.158 2.41 8.056 2.451 14.172.635 15.674-4.655 29.063-1.671 47.848 10.662 5.42 3.558 13.326 7.642 17.57 9.075 8.153 2.753 17.441 9.65 18.513 13.745 1.032 3.947-2.832 10.192-8.88 14.354-5.112 3.517-19.133 9.967-21.667 9.967-.57 0-1.716-3.861-2.545-8.58-2.272-12.938-3.811-17.436-7.224-21.119-4.43-4.78-12.15-4.63-20.063.388l-5.895 3.739-1.459-4.42c-3.629-10.996-13.356-10.868-42.175.554-13.978 5.54-22.41 8.143-28.102 8.675-8.026.75-8.144.714-8.993-2.668-2.721-10.844-34.972-11.256-47.106-.602-5.952 5.226-7.702 10.933-5.793 18.892 2.351 9.802-1.835 14.216-9.52 10.037" style="fill:#000;stroke-width:1.27111"/><path d="M489.002 591.016c-14.313-3.37-17.785-10.008-12.572-24.035 3.909-10.517 7.89-15.69 14.705-19.105 3.948-1.978 8.026-5.402 10.6-8.897 7.053-9.583 6.461-9.218 13.46-8.29 18.39 2.44 35.484 19.234 42.028 41.29 1.127 3.797 2.049 9.276 2.049 12.177v5.273l-16.843 1.489c-19.323 1.708-46.377 1.758-53.427.098M510.093 506.491c-3.838-5.78-6.294-7.897-13.187-11.369-14.56-7.332-18.578-15.474-12.277-24.875 5.363-8.001 23.732-19.036 36.74-22.07l7.908-1.845 6.913 3.955c8.623 4.934 15.03 10.497 17.427 15.131 2.108 4.078 2.405 10.486.63 13.622-2.354 4.16-21.085 22.85-24.846 24.791-2.098 1.083-5.435 3.723-7.417 5.866-1.982 2.144-4.407 3.898-5.39 3.898-.981 0-3.907-3.197-6.501-7.104M522.924 423.545c-8.863-5.77-25.859-23.227-32.705-33.594-9.137-13.836-10.926-24.727-4.349-26.472 1.926-.511 5.329-2.467 7.562-4.346 3.627-3.052 4.733-3.327 10.36-2.58 23.376 3.1 55.48 29.445 55.48 45.527 0 3.271-4.722 9.256-16.946 21.48-6.257 6.256-9.77 6.254-19.402-.015M505.365 340.91c-.383-.62-3.912-2.753-7.842-4.742-8.643-4.373-17.933-14.275-19.068-20.324-1.522-8.113 1.992-18.19 9.303-26.678 2.35-2.727 24.067-16.95 32.514-21.294 2.773-1.425 8.515-2.757 13.395-3.107 9.526-.681 16.693 1.638 29.02 9.392 10.02 6.304 12.249 13.09 6.81 20.727-3.068 4.309-18.447 16.298-32.006 24.95-5.149 3.286-13.651 9.22-18.895 13.186-11.836 8.955-12.375 9.276-13.231 7.89M264.36 755.15c-3.853-1.327-14.25-6.194-23.105-10.816l-16.1-8.404 3.647-7.89c2.006-4.34 6.549-17.474 10.096-29.188 7.455-24.62 11.579-34.042 16.835-38.465 4.58-3.853 5.548-3.886 11.184-.378 2.447 1.523 7.88 3.993 12.075 5.489 10.398 3.708 17.725 8.574 22.19 14.737 9.393 12.968 5.791 28.138-14.979 63.084-9.56 16.084-9.533 16.07-21.843 11.831M379.187 729.325c-3.41-2.294-11.025-8.1-16.924-12.901s-13.892-10.12-17.763-11.817c-8.581-3.764-14.738-9.451-16.79-15.508-.845-2.497-1.49-8.646-1.434-13.665.093-8.188.8-10.668 6.884-24.151 7.272-16.119 13.51-24.316 21.673-28.48 8.16-4.163 15.347-2.524 21.62 4.931 1.687 2.005 6.76 5.59 11.274 7.968 11.829 6.231 22.072 16.782 24.619 25.357 1.11 3.74 2.02 8.58 2.02 10.752 0 7.417-3.895 18.916-10.1 29.82-3.409 5.99-6.59 12.23-7.068 13.865-1.18 4.027-9.577 18-10.818 18-.547 0-3.784-1.877-7.193-4.171M185.725 797.687c-.797-2.796-3.733-15.952-6.525-29.235s-5.406-25.349-5.808-26.813c-.613-2.236.29-3.101 5.64-5.402 11.765-5.062 20.302-2.86 25.132 6.48 2.6 5.027 2.536 17.58-.126 25.045-2.306 6.464-8.396 16.39-12.131 19.77-1.427 1.29-2.567 4.001-2.617 6.221-.05 2.164-.546 5.078-1.103 6.477-.865 2.17-1.226 1.796-2.462-2.543M484.912 718.786c-5.408-2.812-8.26-5.656-22.215-22.152-12.12-14.327-20.62-22.892-26.49-26.693l-2.945-1.908 8.806-18.43c15.408-32.246 24.997-44.47 34.896-44.484 4.855-.007 12.383 7.148 17.375 16.513 3.003 5.635 5.368 8.32 8.92 10.133 7.858 4.009 19.267 15.298 22.52 22.283 1.894 4.067 2.966 8.738 2.974 12.956.01 5.922-.53 7.22-5.285 12.71-2.913 3.364-6.962 9.67-8.997 14.016-2.536 5.415-6.712 10.912-13.277 17.477-5.268 5.268-10.229 9.575-11.023 9.57-.795-.003-3.162-.9-5.26-1.99M573.215 706.543c-7.897-12.091-17.351-26.044-21.009-31.007l-6.65-9.022 10.586-13.917c11.735-15.428 27.98-30.942 36.406-34.765 7.006-3.18 13.836-3.208 19.963-.081 5.251 2.678 11.667 9.337 14.76 15.318 1.072 2.073 4.983 5.71 8.692 8.083 10.52 6.73 15.756 11.914 18.022 17.85 1.867 4.889 1.89 5.94.211 9.957-1.458 3.49-3.409 5.193-8.75 7.638-6.559 3.003-14.165 9.335-19.51 16.242-1.36 1.758-6.477 6.023-11.371 9.479-10.507 7.42-21.732 17.673-24.801 22.656l-2.189 3.553zM724.516 732.599c-3.738-1.367-8.05-6.27-16.532-18.805-5.575-8.238-12.167-15.926-18.732-21.847-11.272-10.165-14.961-16.226-13.891-22.821 1.103-6.798 5.487-11.637 14.78-16.317 8.215-4.138 15.308-10.547 15.308-13.834 0-.844 1.73-2.557 3.846-3.807l3.846-2.271 6.277 5.255c19.317 16.173 33.995 39.184 35.29 55.324 1.033 12.856-.131 16.415-6.61 20.212-5.712 3.348-14.684 12.747-14.684 15.384 0 1.16-5.61 4.761-6.734 4.324-.141-.055-1.116-.414-2.164-.797M788.531 741.825c-2.17-5.63-6.675-16.166-10.01-23.415-4.76-10.344-6.186-14.993-6.632-21.609l-.568-8.429 5.714-3.537c6.599-4.085 10.272-9.004 9.352-12.523-.43-1.644.363-3.112 2.4-4.448 2.89-1.892 3.305-1.786 8.214 2.102 6.292 4.983 23.296 23.795 28.979 32.059 9.74 14.163 12.966 26.982 8.169 32.458-1.224 1.397-5.018 3.204-8.433 4.016-7.187 1.708-14.843 5.375-17.23 8.251-.913 1.1-2.876 2.025-4.364 2.056-1.487.03-4.716.775-7.175 1.655l-4.47 1.599z" style="fill:#ff0;stroke-width:1.27111"/><path d="M876.49 794.888c-.765-1.994-1.995-14.05-3.95-38.72-.918-11.579-2.633-14.803-6.714-12.619-5.447 2.915-11.657-4.1-11.657-13.167 0-6.484 3.578-9.597 11.033-9.597 5.434 0 6.421.507 11.398 5.851 11.103 11.924 13.179 26.836 7.433 53.41-1.751 8.1-3.5 15.24-3.888 15.867-1.11 1.795-2.749 1.335-3.655-1.025" style="fill:#fff;stroke-width:1.27111"/><path d="M469.544 297.18c0-1.478-1.586-10.887-3.524-20.907-4.853-25.098-5.723-31.282-5.785-41.139-.061-9.584 1.637-14.69 5.465-16.434 4.953-2.256 15.54 3.215 29.01 14.993 4.361 3.812 8.329 6.429 11.236 7.409 14.904 5.024 21.397 10.6 19.17 16.46-1.884 4.953-5.243 7.936-13.698 12.16-4.706 2.35-11.907 6.976-16.002 10.279-4.096 3.302-9.42 7.354-11.832 9.004s-6.558 4.77-9.213 6.932l-4.827 3.932zM571.987 275.293c-13.832-5.691-26.943-18.83-26.943-27 0-1.727.79-2.49 3.82-3.682 7.382-2.907 17.26-10.258 21.373-15.906 4.358-5.985 9.262-10.648 11.198-10.648 2.259 0 3.147 6.373 3.152 22.62.004 14.067.218 16.375 1.87 20.223 4.676 10.896 2.894 16.497-5.236 16.457-2.348-.012-6.503-.94-9.234-2.064M471.89 367.933c-.307-1.112-.802-6.471-1.1-11.91-.407-7.462-1.178-11.785-3.14-17.633-5.69-16.953-1.686-22.612 10.21-14.427 10.647 7.325 18.893 21.19 17.385 29.229-.593 3.162-2.101 4.191-8.057 5.5-1.418.31-3.317 1.456-4.22 2.544-6.103 7.36-7.493 8.72-8.918 8.72-.894 0-1.847-.893-2.16-2.023M563.894 387.32c-1.222-.83-6.314-5.425-11.315-10.209-5.285-5.055-10.178-8.965-11.684-9.336-4.202-1.033-14.936-6.457-18.701-9.45-7.71-6.126-9.53-11.836-5.988-18.78 2.959-5.8 9.205-10.668 28.551-22.255 1.572-.942 7.033-4.904 12.134-8.805 12.945-9.899 18.24-11.742 21.944-7.64 1.495 1.655 1.704 3.283 1.645 12.808-.058 9.484-.725 14.206-5.092 36.08-2.764 13.84-5.307 27.795-5.65 31.008-.58 5.409-1.585 8.09-3.033 8.09-.323 0-1.588-.68-2.81-1.511M474.96 464.982c-2.858-13.226-3.944-26.07-4.005-47.39-.066-23.209.552-28.028 4.045-31.52 1.623-1.624 1.973-1.659 4.35-.43 2.96 1.532 7.34 7.281 12.092 15.874 2.668 4.825 4.258 6.545 8.446 9.133 10.455 6.46 17.254 15.217 17.254 22.223 0 7.116-6.27 15.692-15.567 21.292-3.034 1.827-7.538 4.818-10.01 6.647-2.472 1.828-6.99 4.571-10.042 6.096l-5.548 2.772zM559.285 459.452c-5.764-2.005-11.837-6.068-17.468-11.683-8.999-8.974-9.543-14.6-1.897-19.625 13.949-9.166 18.116-12.994 19.936-18.315 1.316-3.847 3.885-4.953 5.891-2.536 2.078 2.503 2.08 15.789.007 34.567-1.064 9.64-2.216 17.799-2.56 18.131-.342.333-2.102.09-3.91-.539zM556.093 548.393c-9.8-4.261-25.967-18.933-30.182-27.39-3.774-7.576-3.413-9.262 2.948-13.763 5.216-3.691 21.308-18.743 24.555-22.968 2.198-2.862 5.055-2.225 7.314 1.63 1.768 3.017 1.835 4.331 1.639 32.24-.195 27.74-.548 31.682-2.827 31.54-.31-.02-1.862-.6-3.447-1.289M474.212 560.264c-1.813-2.185-2.139-8.079-2.28-41.244l-.14-32.88 3.396 1.199c9.34 3.294 21.82 15 26.82 25.157 3.72 7.559 4.787 17.054 2.02 17.994-11.313 3.84-19.783 12.406-25.036 25.317-2.21 5.435-3.201 6.358-4.78 4.457M538.63 653.81c-5.867-3.863-30.767-28.163-45.593-44.496l-8.318-9.162 3.332-.625c6.958-1.306 24.849.343 44.751 4.122 20.604 3.913 25.06 4.138 35.611 1.798 5.397-1.198 16.722-.738 19.586.795 6.05 3.237 2.75 8.253-17.81 27.065-5.673 5.19-13.726 12.774-17.897 16.852s-7.663 7.415-7.762 7.415-2.754-1.694-5.9-3.765M498.045 732.51c-4.953-1.505-6.903-4.339-5.517-8.015.459-1.218 6.107-7.572 12.55-14.12 12.026-12.22 19.026-21.541 21.776-28.998 3.516-9.536 12.869-6.991 23.184 6.308 2.3 2.966 8.807 13.077 14.46 22.47 5.652 9.392 10.898 17.957 11.656 19.033 2.73 3.875.174 4.17-38.298 4.409-28.989.18-36.296-.019-39.811-1.087M703.235 738.768c-37.789-3.731-68.54-5.035-93.477-3.964-13.822.593-18.36-2.615-14.732-10.417 2.174-4.678 11.068-13.303 19.603-19.011 3.87-2.589 8.113-5.808 9.428-7.154s6.144-5.043 10.73-8.214c4.586-3.17 10.437-7.755 13.001-10.187 4.523-4.287 4.794-4.406 8.958-3.936 10.242 1.158 22.569 11.656 35.068 29.867 3.359 4.893 9.901 14.458 14.538 21.255l8.432 12.36-4.202-.145c-2.31-.079-5.617-.283-7.347-.454M665.847 660.133c-4.409-1.174-10.366-7.105-19.985-19.897-10.237-13.614-16.163-19.698-21.244-21.812-3.26-1.356-3.428-1.585-1.953-2.663 5.47-4 35.24-1.152 57.023 5.456 13.09 3.97 24.555 11.055 24.406 15.08-.02.58-2.92 3.077-6.44 5.548s-8.544 6.443-11.164 8.825c-7.695 6.996-15.857 10.738-20.643 9.463M770.645 750.4c-1.236-.225-8.688-1.99-16.561-3.923s-16.114-3.516-18.312-3.516h-3.998l.421-5.078c.265-3.196.942-5.444 1.826-6.067 9.482-6.673 12.936-9.646 15.693-13.505 4.51-6.313 5.314-6.81 10.991-6.793 12.777.038 20.726 12.215 20.726 31.75 0 5.273-.301 6.807-1.422 7.237-1.54.591-5.778.543-9.364-.106M763.605 686.497c-2.217-2.373-15.855-31.493-15.103-32.246.543-.542 22.275 6.956 26.971 9.305 2.536 1.268 5.467 3.092 6.516 4.052l1.906 1.746-4.585 4.373c-2.522 2.406-5.807 6.73-7.3 9.61-1.494 2.882-3.43 5.37-4.309 5.535-.896.17-2.692-.872-4.096-2.375M845.851 720.507c-1.71-1.501-4.266-5.45-5.95-9.189-9.119-20.257-9.44-20.771-15.993-25.645-8.592-6.388-15.513-13.062-15.513-14.958 0-2.338 3.936-1.294 15.203 4.035 22.037 10.421 40.523 26.598 40.523 35.46 0 3.578-2.73 7.107-7.306 9.441-7.233 3.69-7.694 3.727-10.964.856M846.452 773.962c-2.057-.648-10.777-3.832-19.378-7.074s-17.74-6.346-20.305-6.897c-2.566-.55-4.665-1.182-4.665-1.404 0-1.411 2.728-6.424 4.145-7.615.933-.785 4.124-1.935 7.09-2.557 6.916-1.448 15.021-5.034 17.612-7.791 4.235-4.508 16.173-2.05 22.294 4.59 5.301 5.751 6.539 9.335 7.06 20.442l.452 9.663-5.283-.09c-2.906-.048-6.966-.619-9.022-1.267M877.136 795.962c-1.544-2.5-2.367-8.219-3.604-25.06-2.066-28.138-2.315-28.998-7.833-27.002-2.81 1.016-3.527.966-5.59-.385-5.574-3.653-8.24-12.706-5.25-17.827 2.072-3.548 4.999-5.166 9.375-5.184 6.857-.028 8.882.931 13.063 6.184 11.845 14.885 13.063 27.641 5.672 59.416-1.921 8.261-2.98 10.786-4.524 10.786-.404 0-.993-.418-1.309-.928M397.53 736.076c-.79-.91-1.67-2.617-1.958-3.796-.79-3.231 1.041-11.779 3.39-15.834 1.147-1.977 4.004-7.437 6.35-12.133 5.195-10.403 9.62-15.873 16.623-20.549 5.6-3.74 10.743-5.159 15.172-4.186 4.538.996 10.566 7.175 14.033 14.382 2.444 5.082 4.218 7.386 7.86 10.207 7.262 5.628 14.806 13.709 16.417 17.588 1.38 3.322 1.366 3.636-.265 5.842-4.141 5.598-11.914 7.04-43.83 8.128-13.854.472-26.803 1.117-28.774 1.432-2.839.454-3.883.23-5.019-1.08M422.357 657.716c-3.013-1.844-9.402-8.36-17.035-17.374-4.53-5.351-6.308-6.632-16.498-11.89-19.238-9.926-22.688-15.625-12.615-20.835 6.974-3.606 38.683-7.576 50.196-6.284 3.594.403 6.914.04 12.134-1.325 3.953-1.034 10.098-1.941 13.657-2.017 5.695-.12 6.746.12 8.764 2.017 3.952 3.712 2.895 7.938-5.247 20.97-6.104 9.772-24.937 35.516-27.265 37.27-1.989 1.499-2.902 1.419-6.091-.532M313.6 679.636c-1.482-.68-5.931-3.914-9.886-7.186s-8.202-6.188-9.438-6.481c-5.591-1.325-17.146-7.82-20.622-11.59-4.453-4.831-4.615-7.322-.762-11.71 5.38-6.127 16.12-11.27 31.9-15.273 5.299-1.344 10.745-3.493 14.685-5.794 12.034-7.028 20.602-9.96 24.61-8.422 3.735 1.433-.02 14.635-7.216 25.363-2.134 3.182-4.974 8.664-6.312 12.183-8.789 23.122-11.377 29.227-12.59 29.692-1.629.625-1.092.721-4.368-.782M284.837 757.249c1.032-4.86 6.136-17.604 10.763-26.873 8.902-17.831 19.815-31.158 27.179-33.192 2.536-.7 3.92-.587 6.23.509 2.84 1.347 8.41 8.439 8.41 10.706 0 .596 4.348 3.537 9.662 6.536 17.347 9.791 24.02 16.567 21.366 21.697-2.69 5.202-11.098 7.953-42.712 13.974-17.662 3.364-28.054 5.763-39.873 9.207-1.48.431-1.598.135-1.025-2.564M206.708 795.479c-2.12-2.12-2.618-5.282-1.994-12.666 1.05-12.423 6.906-26.372 14.14-33.681 7.318-7.393 12.876-7.006 21.068 1.465 4.517 4.67 6.304 5.86 10.748 7.152 2.931.852 7.294 2.545 9.695 3.761 3.444 1.745 4.305 2.62 4.083 4.145-.376 2.578-3.714 4.396-18.446 10.044-16.244 6.228-21.188 8.81-26.702 13.939-7.965 7.41-10.054 8.379-12.592 5.84M166.93 730.765c.78-4.802 5.097-13.17 10.447-20.245 6.452-8.533 25.14-26.224 35.991-34.07 5.128-3.708 11.878-9.075 15.001-11.927 18.49-16.885 24.285-13.147 16.369 10.557-1.482 4.438-5.068 12.73-7.969 18.426-4.007 7.87-5.41 11.652-5.841 15.75-.748 7.096-2.01 11.045-4.67 14.607-4.713 6.311-10.953 7.216-29.475 4.272-14.948-2.375-23.138-1.161-28.528 4.229l-1.89 1.89z" style="fill:#fff;stroke-width:.89881"/><path d="M529.537 1350.988c-34.472-4.435-67.226-16.023-92.672-32.787-4.493-2.96-8.559-5.382-9.034-5.382s-1.082-.569-1.349-1.264c-.782-2.039 4.56-3.68 11.978-3.68 8.277 0 12.677 2.253 19.91 10.192 4.584 5.03 5.266 5.426 14.694 8.51 17.706 5.793 32.248 8.795 51.244 10.581 14.142 1.33 42.053.609 55.265-1.427 35.06-5.404 68.21-18.613 93.19-37.135 5.34-3.96 7.54-5.128 8.274-4.394 6.45 6.45-18.113 29.987-46.53 44.584-11.145 5.725-20.364 8.729-30.384 9.901-4.357.51-12.371 1.539-17.81 2.286-12.22 1.68-43.778 1.688-56.776.015z" style="fill:#d35f5f;stroke-width:.89881"/><path d="M536.88 1329.863c-33.506-.846-42.945-2.759-50.468-10.227-4.956-4.92-6.293-9.703-4.879-17.448 1.863-10.2 3.189-12.43 8.588-14.451 8.158-3.052 15.928-4.745 19.07-4.156 5.297.994 5.91 3.09 5.193 17.738-.704 14.357.007 18.75 3.67 22.703 3.06 3.302 3.519 2.509 1.334-2.306-2.095-4.619-2.353-11.338-.592-15.442 1.703-3.97 6.421-8.244 11.792-10.684 3.585-1.63 6.13-2.047 12.583-2.069 7.111-.024 8.722.284 13.323 2.543 8.924 4.382 12.845 12.327 10.52 21.313-1.323 5.115-4.698 13.466-5.358 13.259-.28-.088-11.43-.436-24.777-.773M574.044 1332.018c-3.187-.905-3.691-4.828-2.154-16.753 1.528-11.856 1.047-17.592-1.848-22.03-1.255-1.923-1.12-2.392 2.072-7.17 3.933-5.888 8.342-9.198 12.251-9.198 4.02 0 10.395 6.945 13.228 14.415 1.853 4.884 2.203 7.38 2.203 15.695 0 10.686-1.25 14.633-6.053 19.114-3.557 3.318-15.853 7.018-19.699 5.927" style="fill:#fff;stroke-width:.89881"/><path d="M908.225 1004.527c-.975-4.646-.97-4.753.735-18.875 2.097-17.363 1.547-39.418-1.243-49.884-3.04-11.4-8.3-21.483-15.462-29.641l-2.6-2.961-5.165 2.123c-6.663 2.74-9.625 2.73-12.396-.04-3.693-3.693-2.336-12.71 3.643-24.203 10.713-20.593 26.545-31.262 36.468-24.574 9.327 6.285 14.747 24.322 14.647 48.737-.072 17.263-1.637 27.105-9.667 60.763-3.423 14.348-6.49 29.213-7.584 36.758-.708 4.887-.724 4.907-1.376 1.797z" style="fill:#f4d7d7;fill-opacity:1;stroke-width:.89881"/><path d="M898.751 1010.969c-.19-3.961-5.274-14.996-12.698-27.564-12.22-20.684-16.092-32.714-14.871-46.192.775-8.552 2.143-11.419 8.164-17.113 3.836-3.629 5.434-4.555 7.859-4.555 7.283 0 11.986 11.999 14.224 36.292 1.283 13.93.519 45.738-1.32 54.937-.691 3.46-1.303 5.348-1.358 4.195M871.386 1045.273c-1.032-1.032-.657-5.812 1.21-15.427 1.477-7.61 1.64-10.285.902-14.83-1.197-7.375-1.069-18.275.261-22.173 2.097-6.15 7.174-3.82 11.886 5.457 6.57 12.936 6.54 30.504-.07 39.169-4.013 5.262-12.218 9.775-14.189 7.804" style="fill:#f4d7d7;fill-opacity:1;stroke-width:.89881"/><path d="M603.84 1325.543c0-.417.833-3.147 1.85-6.067 1.775-5.093 1.86-8.21.385-13.97-1.013-3.954 1.21-12.226 4.201-15.633 3.354-3.82 7.277-4.697 12.07-2.697 10.366 4.324 15.967 16.645 11.154 24.538-2.235 3.666-8.511 7.717-14.14 9.127-2.356.59-6.164 2.06-8.461 3.266-4.25 2.232-7.058 2.804-7.058 1.436" style="fill:#ff0;fill-opacity:1;stroke-width:.89881"/><circle cx="331.753" cy="1551.895" r=".445" style="fill:#000;stroke:#000"/><circle cx="494.23" cy="1823.565" r=".629" style="fill:#000;stroke:#000"/><path d="M951.398 1138.125c-7.936-24.592 13.218-45.274 4.874-6.27 35.883-10.103 50.252-61.658 73.782-90.797 28.5-34.835 48.47-75.32 75.685-111.268 30.226-51.988 65.543-100.843 92.884-154.617 35.332-55.63 69.94-111.76 106.066-166.782 23.24-42.141 57.103-77.67 78.46-121.167 36.977-48.007 67.799-100.482 98.552-152.564 11.288-58.358-50.823 23.261-66.322 38.52-34.656 29.241-58.942 67.917-88.974 101.556-36.583 50.11-74.27 99.426-105.175 153.37-41.191 63.844-82.238 127.777-117.169 195.345-34.183 56.772-62.234 116.937-96.164 173.8-16.77 42.08-47.089 77.289-61.823 120.394-18.426 21.26 13.125-39.137 20.9-52.213 26.142-41.692 45.146-87.102 71.118-128.932 35.65-68.523 74.442-135.424 112.128-202.775 51.101-76.797 95.157-158.372 152.572-230.855 29.72-40.345 60.444-80.403 95.309-116.325 28.508-28.689 54.346-61.498 88.31-84.154 11.703 42.45-34.88 76.443-50.407 113.732-27.105 41.992-56.499 82.305-82.315 125.158-31.777 38.796-52.86 84.226-82.638 124.446-34.482 56.418-71.51 111.325-102.217 169.92-32.452 46.328-57.74 97.028-92.616 141.706-21.398 41.863-55.057 75.772-75.838 118.19-13.637 13.793-27.414 44.16-48.982 42.582m182.385-5.751c-.908-40.611 28.522-75.65 42.296-112.982 24.498-61.064 66.547-112.616 98.602-169.539 31.618-44.337 57.214-92.515 91.716-134.795 28.722-41.722 62.783-79.59 86.117-124.926 28.425-30.427 40.404-69.533 58.617-105.74 22.251-42.206 51.227-81.51 67.819-126.122 21.459-50.351 75.742-4.445 42.847 30.788-18.139 35.866-36.132 72.766-61.74 104.208-36.975 66.835-75.74 132.637-115.09 198.11-54.576 77.558-104.873 157.77-154.355 238.609-27.975 39.92-50.864 82.969-81.48 120.875-26.233 24.998-36.875 76.183-75.349 81.514m16.422-8.89c30.81-29.592 48.798-71.416 78.223-103.383 38.613-59.904 77.277-120.012 114.789-180.614 38.535-65.037 85.507-124.874 123.315-190.43 31.34-53.179 61.74-106.972 93.256-160 26.158-34.2 44.893-73.479 63.063-112.113 14.397-49.683-47.378-39.365-45.967.555-25.498 43.372-51.568 86.795-74.19 131.825-12.444 46.292-50.531 78.639-70.686 121.262-41.399 58.229-87.794 113.205-123.636 175.238-36.954 51.953-67.877 107.631-102.792 160.938-23.651 49.225-48.946 98.164-67.379 149.595-3.143 10.97 3.79 16.747 12.003 7.127m-371.074-11.528c6.882-41.965 21.161-81.796 32.6-122.555 34.748-75.543 67.59-152.102 110.396-223.643 62.809-117.18 134.533-229.967 218.603-333.12 54.105-72.08 116.34-138.74 187.508-194.162 18.234-11.287 84.03-70.432 55.363-20.184-30.65 44.549-68.076 84.692-99.525 128.976-57.465 71.954-112.93 145.503-167.429 219.739-47.03 65.323-96.244 129.134-138.214 197.898-43.881 70.156-84.394 142.43-120.709 216.82-27.72 40.797-40.094 90.381-68.249 130.096-2.103 1.335-15.122 17.185-10.344.135m12.374-5.898c32.102-72.838 71.774-142.367 107.68-213.652 32.494-55.919 63.934-112.477 100.336-166.004 47.479-72.577 101.533-140.694 151.78-211.433 49.927-65.559 99.69-131.345 150.804-196.03 25.287-37.768 61.498-68.417 81.15-109.548-23.278-1.564-71.226 46.847-98.87 68.915-62.854 54.48-115.307 119.655-164.918 186.132-96.964 123.005-173.427 260.404-245.663 398.897-21.668 52.852-51.918 102.316-66.655 157.723-9.134 26.218-12.854 31.269 3.982 10.588-6.114 17.202-36.467 72.529-19.626 74.412m90.293-30.793c9.073-30.176 31.545-60.853 44.576-91.774 34.3-57.414 63.843-117.585 98.3-174.87 33.426-50.29 65.024-101.867 103.177-148.878 12.74-14.345 49.271-60.975 55.708-48.269-20.04 42.359-48.898 79.933-72.236 120.563-43.018 72.036-89.147 142.216-126.983 217.172-30.324 39.642-47.717 92.261-93.954 117.277-2.752.303-6.755 14.215-8.588 8.779m32.74-29.444c29.636-35.351 52.941-75.843 75.322-115.877 49.058-89.83 105.374-175.448 157.636-263.322 13.011-12.194 48.372-80.876 14.054-38.808-31.26 27.4-53.152 64.11-78.547 97.029-31.654 50.766-67.638 99.009-92.789 153.554-35.003 59.625-68.378 120.27-98.615 182.263 7.114.363 16.765-10.3 22.94-14.84m262.193-149.03c1.24-39.469 33.077-75.019 55.863-106.282 38.824-55.271 83.249-106.516 120.575-162.784 10.524-19.716 56.436-75.935 57.313-64.565-34.734 26.556-53.547 67.192-79.546 101.412-41.536 56.742-86.873 110.94-126.08 169.175-11.23 12.197-39.682 82.7-5.838 45.717 46.861-52.132 79.629-114.898 116.614-174.02 28.889-40.938 56.371-83.22 85.977-123.585 11.69-18.258 39.547-50.48 13.33-12.59-30.812 34.143-49.017 77.25-80.18 111.301-44.739 70.742-83.08 146.94-140.815 208.424-4.853 2.99-10.285 13.496-17.213 7.797m11.734-357.221c30.238-50.487 64.991-98.306 97.479-147.286 9.328-16.607 59.604-49.272 19.674-16.866-37.394 38.272-59.67 88.276-93.059 129.95-12.6 18.234-21.258 40.536 1.506 13.497 32.233-40.629 78.562-69.55 102.806-116.449 13.766-15.292 46.577-80.362 23.852-28.444-24.074 36.18-47.762 72.166-80.935 100.998-26.104 17.848-42.827 56.075-71.323 64.6" style="fill:#000;stroke-width:1.33333" transform="translate(-688.806 357.89)"/><path d="M1301.987 384.212c7.01-4.177 13.638-9.03 19.619-14.588 2.85-2.65 5.55-5.58 8.227-8.401 2.12-1.987 4.623-6.044 7.322-7.456.39-.204.867-.173 1.307-.195.525-.027 1.134-.233 1.578.05.348.222-.819.115-1.228.173 1.348-.076 12.16-.126 5.277-.105-.023-.104 1.025.132.94.067-.355-.27-.86-.302-1.201-.589-.98-.82-1.187-1.304-1.709-2.236-1.338 3.317-2.387 6.741-3.63 10.097-1.092 3.425-2.926 6.423-5.05 9.285-1.036 1.673-2.277 3.205-3.405 4.812-.396.565-.73 1.173-1.144 1.725-.544.725-3.328 3.86-3.595 4.165-3.907 4.717-1.93 2.285-5.925 7.299-.437.727 9.852 6.896 10.288 6.169 3.722-5.283 1.988-2.688 5.226-7.77.564-.909 2.307-3.743 3.041-4.83 1.52-2.25 3.604-4.103 4.808-6.58 2.151-3.612 4.486-7.157 5.897-11.147 1.562-4.18 2.986-8.466 3.474-12.922-.111-.952.012-1.962-.334-2.856-.964-2.488-1.835-2.997-4.018-3.918-.321-.136-.904.21-1.223-.032-.94.001-1.88.01-2.82.003-.148 0-.59-.027-.443-.026.86.008 1.723.137 2.577.047.338-.036-.664-.142-.996-.214-2.022-.44-.756-.192-3.113-.605-3.918.016-5.484-.397-8.895.792-5.068 1.766-8.892 5.713-12.703 9.299-1.274 1.213-2.52 2.46-3.824 3.641-7.199 6.52-15.131 12.235-21.829 19.303-.533.53 6.971 8.073 7.504 7.543zM1391.137 586.805c.587-.453 1.207-.865 1.76-1.359 5.807-5.195 10.904-12.152 15.34-18.505 3.277-4.867 6.92-9.068 11.68-12.52.498-.36 3.905-2.494 4.529-2.886 2.375-1.383 3.94-1.968 5.298-4.601.226-.44.243-.957.365-1.436-.017.111.058.358-.052.333-3.255-.75-6.353-2.315-9.683-2.576-.672-.052-.716 1.143-1.033 1.738-1.419 2.665-2.272 5.51-3.22 8.363-.92 3.848-3.155 7.088-5.226 10.385-.347.71 9.7 5.622 10.047 4.911 2.293-3.973 4.675-7.95 5.788-12.451.756-2.414 1.318-4.882 2.159-7.265.159-.451.9-1.058.514-1.339-2.604-1.892-5.567-3.277-8.546-4.499-.285-.117-.168.594-.251.891.446-1.433.032-.407 1.417-2.307.048-.065.187-.232.107-.217-1.441.265-3.17 1.265-4.528 1.652-2.221 1.133-3.782 1.86-5.923 3.292-5.704 3.816-10.266 8.985-14.236 14.532-4.563 6.7-9.204 13.353-14.2 19.742-.432.558 7.46 6.68 7.894 6.122zM963.22 1098.9c1.73-6.013 2.13-12.279 2.832-18.463.511-4.508.27-1.594.452-3.945l-11.847 2.342c-.683-.602-1.346-2.384-2.049-1.805-1.122.923-.638 2.835-.933 4.258-1.7 8.215-2.8 16.462-3.878 24.779-.888 8.248-1.467 16.55-1.412 24.852.01 1.48.029 2.963.18 4.434.063.606-.147 1.7.458 1.769 4.726.538 9.512-.061 14.268-.092 1.5-5.723.781-2.629 2.071-9.304.111-1.141-16.032-2.715-16.143-1.573-.313 7.058-.404 3.821.059 9.714 4.666.88 9.254 2.421 13.998 2.64.714.033.686-1.268.889-1.954.427-1.451.721-2.94.992-4.428 1.476-8.093 2.02-16.31 2.854-24.482.64-8.354.844-9.961 1.173-18.082.028-.687.378-10.396.11-12.058-.383-2.383.41-6.154-1.85-7.001-3.964-1.487-8.402 1.054-12.603 1.581-.446.888-.99 1.732-1.339 2.663-2.664 7.124-2.523 15.646-2.697 23.146-.071 1.02 14.344 2.028 14.415 1.009z" style="fill:#000" transform="translate(-688.806 357.89)"/><path d="M185.902 929.766c.537-1.888 1.39-14.168 1.897-27.287l.92-23.853 12.953-21.913c7.124-12.052 16.817-29.853 21.54-39.558s11.937-23.435 16.031-30.511c4.095-7.076 19.88-36.076 35.08-64.443 15.199-28.368 33.977-62.693 41.73-76.277s19.217-34.18 25.477-45.766c15.578-28.834 45.476-78.594 75.482-125.623 13.784-21.605 29.838-47.127 35.676-56.716 40.233-66.084 129.034-183.586 169.094-223.745 9.565-9.59 25.817-26.751 36.115-38.137 24.983-27.625 37.782-37.875 43.148-34.56.844.523 1.535 4.637 1.535 9.144 0 7.962-.592 9.182-20.95 43.138-26.245 43.774-47.126 76.05-65.298 100.927-7.768 10.634-15.99 23.022-18.272 27.527-5.333 10.53-17.802 29.455-39.693 60.24-9.61 13.514-21.53 31.196-26.489 39.292s-17.843 28.451-28.632 45.232c-39.193 60.963-86.592 136.786-91.123 145.767-9.35 18.536-70.108 117.382-93.03 151.35-6.202 9.19-19.624 29.784-29.827 45.766s-24.925 37.558-32.716 47.946c-7.79 10.388-19.253 27.714-25.473 38.501-18.994 32.947-31.589 49.199-42.761 55.178-3.18 1.702-3.33 1.601-2.414-1.619" style="fill:maroon;stroke-width:1.45289" transform="translate(90.326 552.282)"/><path d="M360.666 931.902c-4.665-4.665 9.327-40.225 45.356-115.263 15.277-31.818 24.613-48.979 40.314-74.098a33088 33088 0 0 0 37.587-60.295c9.435-15.183 24.163-38.066 32.73-50.851 8.566-12.786 20.65-31.42 26.853-41.408 14.096-22.698 30.365-45.663 70.422-99.405 33.348-44.742 36.85-49.763 47.994-68.834 3.874-6.63 14.483-22.648 23.576-35.596 9.093-12.949 19.065-27.75 22.16-32.89 6.221-10.335 15.217-30.11 15.245-33.513.029-3.428 26.65-52.49 51.72-95.319 17.079-29.178 23.162-40.851 24.017-46.093 1.642-10.055 7.429-19.08 15.125-23.591 18.354-10.756 32.672-2.252 30.808 18.299-.589 6.494-3.671 13.92-16.048 38.651-17.552 35.073-26.202 50.221-40.959 71.73-5.756 8.391-20.922 33.235-33.702 55.21-88.833 152.747-82.651 142.635-131.909 215.755-17.764 26.37-49.267 75.079-70.007 108.241-52.883 84.559-103.933 163.326-112.526 173.62-4.002 4.795-15.69 21.14-25.975 36.323-31.236 46.115-47.6 64.508-52.781 59.327" style="fill:red;stroke-width:1.45289" transform="translate(90.326 552.282)"/><path d="M9.78 909.612c-1.456-1.455-1.695-3.04-1.286-8.524.587-7.872 4.64-19.197 16.205-45.263 4.387-9.889 7.77-18.197 7.516-18.464s-2.726 2.045-5.495 5.137-5.056 5.213-5.08 4.713 1.52-5.354 3.434-10.787c1.913-5.433 5.43-16.12 7.816-23.748 7.33-23.437 14.225-39.797 37.233-88.352 7.363-15.54 15.903-34.031 18.978-41.094 10.613-24.381 60.63-117.631 95.506-178.058 46.579-80.705 92.988-151.618 137.954-210.795 7.728-10.17 21.609-28.432 30.845-40.58 47.915-63.023 90.293-111.858 126.808-146.13 19.215-18.034 70.715-62.3 84.265-72.429 16.244-12.142 30.64-19.787 37.26-19.787 1.776 0-2.08 7.748-9.691 19.474-7.901 12.173-15.448 21.91-36.642 47.277-10.138 12.134-22.363 27.39-27.167 33.903-4.803 6.512-15.974 21.087-24.823 32.388-43.656 55.752-123.86 160.9-145.362 190.574-8.394 11.583-28.915 39.553-45.601 62.155-69.6 94.27-107.116 149.626-145.175 214.202-28.412 48.209-47.808 82.587-61.443 108.9a15113 15113 0 0 1-30.82 59.072c-20.654 39.34-43.608 85.248-54.45 108.9-4.663 10.17-8.595 18.63-8.738 18.798s-1.065-.499-2.048-1.482M114.057 864.387c0-1.04 27.556-54.59 40.354-78.422 13.082-24.36 36.383-66.015 48.56-86.811 4.633-7.911 11.94-21.412 16.24-30.001 12.815-25.6 23.518-43.259 64.636-106.637 22.53-34.73 60.786-87.849 74.727-103.763 10.731-12.249 37.368-38.894 37.747-37.757 1.156 3.469-14.137 32.34-24.176 45.64-3.125 4.14-12.349 18.568-20.497 32.062-8.148 13.495-27.657 45.394-43.353 70.888-48.806 79.273-68.649 112.792-100.722 170.148-29.317 52.428-57.672 95.546-73.048 111.082-8.417 8.505-20.468 16.495-20.468 13.57M421.784 333.673c1.64-5.52 9.497-18.471 19.218-31.68 5.765-7.832 19.67-28.47 30.902-45.859 30.196-46.755 44.935-66.284 50.188-66.497 4.277-.173 13.697-7.207 25.845-19.302 6.119-6.092 11.541-10.819 12.05-10.505 1.35.835-2.562 10.41-6.692 16.378-1.964 2.838-5.892 7.934-8.728 11.324l-5.156 6.165 2.517 2.23 2.516 2.231-3.578 4.96c-1.967 2.73-6.227 9.225-9.466 14.437-10.331 16.625-22.308 30.382-50.504 58.014-15.014 14.714-30.455 30.282-34.312 34.595-22.905 25.614-26.415 28.94-24.8 23.51M405.441 694.832c-2.754-2.754 2.27-20.574 10.655-37.797 7.336-15.066 30.286-47.479 73.472-103.765 48.333-62.996 68.073-89.726 86.551-117.201 23.245-34.564 31.115-44.67 34.164-43.874 2.691.704 9.26-5.361 16.093-14.86 3.893-5.41 6.494-7.811 6.494-5.993 0 .234-7.545 10.983-16.766 23.885s-25.483 36.173-36.138 51.712c-10.655 15.538-24.99 36.342-31.854 46.23-13.037 18.779-16.134 23.707-45.522 72.429-28.435 47.143-46.405 73.925-66.545 99.173-16.377 20.53-28.361 32.303-30.604 30.06M186.272 930.494c.353-.92 1.195-12.892 1.87-26.605l1.23-24.932 12.222-21.07c6.722-11.587 16.195-28.928 21.052-38.533s13.56-26.018 19.34-36.471c5.78-10.454 21.141-38.654 34.135-62.669 28.97-53.54 75.882-137.9 88.92-159.905 25.588-43.183 84.634-137.52 109.142-174.376 35.214-52.953 86.159-120.759 123.209-163.984 6.053-7.063 21.942-24.4 35.307-38.526 48.361-51.113 57.733-60.065 64.726-61.82 3.324-.834 4.242.982 4.261 8.427.02 8.06-2.471 13.219-22.04 45.627-25.393 42.055-39.236 63.345-70.444 108.343-5.055 7.289-10.993 16.535-13.195 20.547-5.16 9.401-17.142 27.523-36.067 54.553-18.821 26.881-18.87 26.957-62.583 95.779-57.77 90.952-77.826 123.308-91.557 147.703-29.45 52.322-115.089 186.25-154.981 242.373-5.59 7.865-15.418 23.016-21.839 33.668-13.958 23.157-22.367 35.161-30.45 43.466-6.526 6.705-13.42 11.431-12.258 8.405" style="fill:red;stroke-width:1.02735" transform="translate(90.326 552.282)"/></g></svg>