<?xml version="1.0" encoding="UTF-8" standalone="no"?>
<svg
   xmlns:dc="http://purl.org/dc/elements/1.1/"
   xmlns:cc="http://creativecommons.org/ns#"
   xmlns:rdf="http://www.w3.org/1999/02/22-rdf-syntax-ns#"
   xmlns:svg="http://www.w3.org/2000/svg"
   xmlns="http://www.w3.org/2000/svg"
   xmlns:sodipodi="http://sodipodi.sourceforge.net/DTD/sodipodi-0.dtd"
   xmlns:inkscape="http://www.inkscape.org/namespaces/inkscape"
   inkscape:version="1.0 (4035a4fb49, 2020-05-01)"
   sodipodi:docname="prostitute.svg"
   viewBox="0 0 1440 2416"
   height="2416"
   width="1440"
   id="svg195"
   version="1.1">
  <metadata
     id="metadata201">
    <rdf:RDF>
      <cc:Work
         rdf:about="">
        <dc:format>image/svg+xml</dc:format>
        <dc:type
           rdf:resource="http://purl.org/dc/dcmitype/StillImage" />
        <dc:title></dc:title>
      </cc:Work>
    </rdf:RDF>
  </metadata>
  <defs
     id="defs199" />
  <sodipodi:namedview
     inkscape:current-layer="g203"
     inkscape:window-maximized="1"
     inkscape:window-y="-11"
     inkscape:window-x="-11"
     inkscape:cy="727.956"
     inkscape:cx="678.68136"
     inkscape:zoom="0.41721854"
     showgrid="false"
     id="namedview197"
     inkscape:window-height="1826"
     inkscape:window-width="1080"
     inkscape:pageshadow="2"
     inkscape:pageopacity="0"
     guidetolerance="10"
     gridtolerance="10"
     objecttolerance="10"
     borderopacity="1"
     bordercolor="#666666"
     pagecolor="#ffffff" />
  <g
     id="g203"
     inkscape:label="Image"
     inkscape:groupmode="layer">
    <path
       d="m 1015.6508,2143.7346 c 6.2866,-5.2868 3.6437,-3.0642 0,0 z M 871.42853,1907.9052 c -87.59697,-25.9859 -180.57696,-17.2252 -270.3474,-24.2894 -37.59783,7.8736 -175.47351,24.7976 -88.16955,-18.8701 35.27665,-29.2976 59.60041,-92.0235 11.55561,-28.6084 -31.25515,-4.1512 -44.60957,-69.9792 -51.88459,-3.3193 -25.11012,25.6689 -43.98651,-87.6417 -48.78289,-6.9236 2.66773,68.6635 -63.01639,41.6714 -44.44214,-13.8119 -10.27877,66.0419 -114.22891,51.5343 -119.95008,12.4382 -9.83024,69.969 -3.52929,-136.0816 -21.80475,-45.3584 15.09864,70.8758 -88.15026,121.0793 -69.9052,20.5653 -19.77875,-37.288 -14.18315,110.1093 -26.00881,17.1314 -11.56121,-63.6394 35.08452,-118.4263 31.1598,-182.9134 8.21414,-90.3944 -22.54775,-177.1484 -31.19663,-265.944 C 107.2237,1237.0722 114.35448,1099.9954 126.569,966.72089 116.29606,879.94087 111.58832,792.12208 132.5386,706.21578 159.44778,556.17629 249.72953,406.40221 394.66875,346.73969 491.15359,329.23043 558.74634,245.84464 655.67559,228.35992 c 131.14475,-40.08877 280.631,-41.76213 400.23531,33.35912 118.2669,62.84502 202.2375,180.4352 223.9018,312.56459 31.1235,108.90893 40.9611,222.35171 27.2473,334.83916 -7.6589,222.29441 9.6998,446.09101 -21.821,667.21261 -26.9811,72.1498 73.2566,167.3623 0.9676,213.8567 -53.7032,32.7499 -102.5603,16.9676 -151.8707,37.023 42.5438,20.7896 -78.4248,-16.2151 -99.7912,6.4282 -44.56579,1.8146 -93.87509,-22.5796 -41.04408,29.7986 90.45498,67.6927 -96.15727,28.0488 -122.07209,44.4633 z m 36.62065,-5.48 c 37.56686,-4.3427 120.02912,-19.8418 53.8594,-62.0544 -59.7114,-66.1807 -25.322,-205.2307 -72.2119,-247.0601 -94.42768,45.0146 -195.71787,39.9975 -286.14904,0.5668 -26.53358,39.7983 112.79851,114.4773 20.58697,53.6428 -99.73632,-34.3746 98.62305,110.7717 5.07104,62.3152 -36.83182,-57.3301 -50.23455,-1.2336 -2.54145,18.5613 67.67173,81.6249 -88.53346,-72.3772 -27.71625,17.4468 17.41406,35.4353 83.85626,99.3891 5.96595,57.9301 -47.07321,-32.6142 39.56318,9.2383 -5.57865,-31.0315 -41.32446,-39.8517 -23.65176,61.9749 -67.68811,72.3994 -60.76146,75.2698 88.33283,21.8836 123.03199,32.725 85.41152,-2.3708 169.19268,13.2827 253.37005,24.5586 z m -324.39839,-33.106 c -48.64638,-4.7113 -36.78713,-40.3266 4.71985,-10.8616 16.18957,-1.7274 20.33075,23.4153 -4.71985,10.8616 z m 19.87819,-13.0576 c -46.7982,-6.1774 -35.88933,-71.0307 -5.30387,-13.4686 5.5481,0.027 42.74669,17.981 5.30387,13.4686 z m 16.58015,-9.412 c -49.68989,-10.3274 -45.62998,-72.3497 -5.91777,-14.6367 4.23522,-0.5212 40.73415,20.1818 5.91777,14.6367 z m -215.46734,17.7984 c 46.90165,-28.017 -33.53091,-137.2987 -12.78075,-43.5398 2.28617,5.7599 -4.34862,75.391 12.78075,43.5398 z m -213.72274,-1.9562 c 52.16295,-27.2932 -29.35044,-97.8505 -4.30427,-18.7653 1.02031,3.3751 -7.75338,24.5447 4.30427,18.7653 z m 104.61498,-7.322 c 49.63393,-39.2175 -48.33091,-175.6367 -24.11855,-61.871 1.46738,21.9575 2.44262,49.4873 24.11855,61.871 z m 58.7429,-3.7774 c 41.49303,-25.6886 -5.44206,-92.9794 -10.44462,-25.8971 -0.82259,3.5994 -2.91916,31.5493 10.44462,25.8971 z m -22.63138,-29.254 c -23.72298,-30.6526 3.01145,61.8864 0,0 z m 134.66074,12.5873 c 36.35377,-39.9548 -42.31396,-103.6644 -8.82264,-23.7872 2.30516,5.3718 -3.49789,26.6682 8.82264,23.7872 z m 58.26001,-8.3035 c 12.25408,-42.9099 -31.9455,-133.5644 -24.2733,-38.3657 -0.31823,15.2595 2.48408,41.7249 24.2733,38.3657 z m 493.6977,-5.1401 c 13.1966,-22.3698 -47.32378,17.8966 0,0 z m 84.5943,0.2929 c -15.5398,-23.4593 -31.7,9.6017 0,0 z m -120.44083,-11.0002 c -16.28838,-59.7918 -45.34356,-140.6483 -18.31982,-194.768 -15.22813,51.8523 28.91397,177.5931 49.65165,158.9028 -51.77388,-54.3994 -15.61609,-178.3975 -54.49447,-207.7916 -65.1714,55.1432 -28.4195,161.1263 -1.72187,228.8886 4.83777,6.7136 14.28324,23.9825 24.88451,14.7682 z m -637.01424,-10.3651 c 5.71825,-32.7804 -17.81203,31.0513 0,0 z m 199.48872,10.0007 c 3.54824,-36.672 -20.70201,9.9516 0,0 z m -326.07866,-1.2996 c -4.46385,-53.4446 53.69792,-153.3323 -27.57857,-168.871 -3.6515,32.0223 -49.08815,131.5422 -20.22847,116.1633 8.97422,-33.911 19.05536,-72.3804 11.71265,-14.2887 -16.74826,35.4076 23.45692,42.8237 36.09439,66.9964 z m 961.50421,1.0106 c 26.4593,-44.279 -107.0488,-2.2752 -15.301,0.2584 z m -169.319,-0.573 c -18.99234,-66.677 -54.59596,-23.979 0,0 z m 52.2192,0.3189 c 7.5093,-79.7462 -62.2776,5.4483 0,0 z m 21.4331,-3.8923 c -20.3891,-28.9824 -46.344,-149.8973 -16.6842,-56.6986 14.9336,70.5556 103.5284,49.8252 63.495,-21.9426 -4.3912,-40.4206 -5.7774,-147.5977 -50.7795,-130.9181 -21.6334,54.169 37.4,187.1088 37.1116,163.3621 -81.015,-103.2713 -93.9867,-48.2184 -26.7103,-20.9479 -52.8339,-69.4634 3.1711,-170.5307 -28.8308,-236.411 -81.61916,13.4309 -88.36858,110.7592 -73.49484,175.6646 4.42303,40.6608 41.15694,78.6147 26.72734,13.885 -14.5296,-31.9937 18.8626,-158.0883 8.7465,-63.1686 -13.057,68.6826 4.6946,141.9612 60.4192,177.1751 z m -58.8611,-4.0425 c -6.4754,-0.3019 3.8261,6.1537 0,0 z m 189.4457,-1.8737 c 73.7877,-63.1781 14.7793,-169.4686 35.9123,-251.6764 2.1092,-97.5799 4.3888,-195.28 -0.6638,-292.811 -24.0068,-35.9266 5.7032,-73.6687 6.987,-10.5304 12.2945,161.4994 -2.2663,323.6587 0.6462,485.2173 -1.4173,56.8262 50.2574,66.9271 41.0371,1.6009 -22.6267,-83.6377 -31.6721,-166.9149 -11.8186,-252.0177 15.9471,-152.4926 5.4994,-305.9678 8.9822,-458.9367 -39.228,43.0636 -34.9208,276.1705 -32.4241,218.8228 -5.6192,-46.9891 -36.1819,-90.899 -39.73,-14.3527 -11.5614,98.4424 -3.1599,199.2144 -22.4543,296.1383 -6.1372,59.1915 -73.9755,77.0774 -58.8223,-0.4461 -14.4362,-83.0992 40.1664,-205.5469 9.6629,-263.8219 -16.1622,65.3129 -57.339,120.7189 -75.3384,184.419 17.0272,-32.2619 57.7666,-91.0017 51.0191,-16.6386 -9.1775,107.6753 -7.9816,216.7899 21.8152,321.5626 35.2346,-25.8076 18.0524,-157.0831 35.0972,-136.3157 -4.1038,57.1423 -1.0792,155.8048 30.0923,189.7863 z m -790.95391,-7.6496 c -21.05018,-45.7038 -15.91625,-175.783 -56.12929,-165.6766 -21.37624,43.9041 -34.79767,129.297 13.37959,121.2632 7.06551,2.3676 18.26079,-24.0314 23.88726,21.3997 3.22396,2.3442 10.14994,37.8857 18.86244,23.0137 z m 140.71188,-16.6751 c 18.79711,-93.322 -44.95736,61.923 0,0 z m 621.80733,15.3735 c 23.0513,-66.791 -76.2914,-42.7386 -15.9854,-0.5197 l 7.8369,2.0347 z m -865.91029,-5.2028 c -8.54247,-2.2588 4.64799,14.9274 0,0 z m 217.10484,-0.6667 c 39.24854,-22.0619 2.81595,-109.007 -1.03195,-31.7059 -0.50722,7.6379 -20.09875,38.393 1.03195,31.7059 z m 720.22785,-0.5275 c 3.832,-42.2686 -30.315,11.4655 0,0 z m -770.59272,-4.8058 c -3.60616,-10.6135 -1.62959,16.7034 0,0 z m -138.5586,1.6197 c 7.1472,-43.6578 -40.91174,8.8962 0,0 z m 16.91235,-5.2717 c 19.86792,-22.5887 -21.32101,8.398 0,0 z m -39.19074,-3.3318 c 23.40842,-27.9557 -22.36486,-4.7088 0,0 z m 157.35287,-8.5214 c 32.21003,-31.8607 -34.40172,-199.6176 -19.22219,-154.9338 4.94162,49.7208 -25.86898,117.7998 19.22219,154.9338 z m -97.09239,-3.0479 c -7.14535,-7.438 -7.39512,24.6425 0,0 z m 51.58222,3.5935 c -1.6343,-9.0673 -1.38143,13.0527 0,0 z m -72.5853,0.3596 c 21.68394,-32.3646 -15.82943,-4.4448 0,0 z m -41.72069,-7.9915 c 12.31499,-32.3376 -17.16667,-81.0066 -5.05044,-20.8908 1.59824,-3.4911 -7.03917,37.9349 5.05044,20.8908 z m 114.07964,-17.6667 c 26.97678,-48.8127 4.40616,-35.5955 -6.21659,4.821 z m 92.26644,-0.4085 c 90.36878,-68.9751 41.89724,-206.3313 -57.30868,-236.5956 -30.77522,-19.7668 -65.1135,-71.4279 -9.55385,-24.4575 -24.03057,-27.4843 -108.32213,-139.0071 -92.31776,-99.9342 -8.78068,-45.6616 -17.154,-79.8813 -18.16128,-9.5578 -13.19304,28.4799 -3.27923,-161.4144 -33.32891,-65.9612 6.23449,100.1227 70.18875,186.5778 77.21289,287.2 -6.77461,41.2089 45.9729,170.9514 52.35454,67.1785 15.27965,-94.9582 -59.97533,-167.7738 -88.00673,-247.3447 64.18225,41.7763 56.61791,114.0821 102.10638,167.9859 13.05832,-50.4063 35.49713,126.7623 37.40653,28.1651 -24.40137,-95.2286 87.0712,18.1269 23.5773,41.3554 -21.03266,-71.7793 -23.43696,73.6865 -4.77856,50.9066 2.37982,4.3902 -0.56194,62.2486 10.79813,41.0595 z m -76.50343,-16.2223 c -3.74257,-17.4071 0.67979,53.5489 0,0 z m -145.54486,-2.6562 c 19.93672,-32.0492 -8.71734,-151.7842 -10.81273,-57.7488 1.40744,7.9819 7.73494,95.0007 10.81273,57.7488 z m -15.18528,2.2118 c 12.48195,-109.8605 -49.27416,33.0924 0,0 z m 281.79884,0.692 -0.0891,3.9354 z M 336.38759,1710.241 c -11.03628,-18.2698 5.03572,36.347 0,0 z m -65.0848,-8.6696 c 30.8911,-23.3701 -2.18839,-113.6172 -3.87697,-36.5617 0.41993,4.8765 -15.7768,82.6945 3.87697,36.5617 z m -19.18317,3.6535 c -1.73261,-40.4269 -6.8158,31.3079 0,0 z m -74.57317,-26.9868 c 12.73757,-45.3033 -13.32701,29.3525 0,0 z m 176.03845,-24 c 65.60766,-85.8617 -5.27325,-186.9064 -28.53342,-274.2728 -18.04685,-39.9156 -7.95835,-183.1271 -32.18595,-71.0852 12.56904,-52.3457 19.20383,-179.4706 -6.24081,-255.9773 -36.20346,-97.58789 -0.16856,55.9828 -3.89624,89.3373 4.28324,106.9601 -7.75056,217.4687 30.77928,319.8884 15.66593,59.8285 10.62969,181.9911 36.81089,203.1068 z m -89.24537,-12.8787 c 55.86243,-19.7226 35.2561,-121.2423 19.60456,-181.5942 -14.33065,-36.7646 -17.78661,-83.8814 -17.60649,-111.1554 13.27084,35.695 39.5897,171.1 19.30195,65.9264 -26.65464,-122.7068 4.91089,-249.3014 -25.06539,-371.7551 -24.67697,-80.69787 1.37165,-154.8612 66.18411,-204.57848 8.95741,-62.6248 -50.43992,46.33251 -27.05829,-19.94568 16.3393,-33.6364 27.90387,-127.16917 -3.49371,-47.29755 -30.80425,82.86468 -76.88583,164.35308 -71.01635,254.94961 -7.40501,32.2172 9.66067,167.6432 9.17197,77.9385 -3.53599,-37.7454 7.03773,-124.87047 9.8403,-36.2837 2.5742,199.5155 -5.74581,400.5877 13.26754,598.9948 10.06664,-1.8794 -1.30412,-23.4974 6.8698,-25.1992 z m 270.12858,-16.7674 c -12.40685,-60.2369 -22.26507,-7.7499 -2.00534,14.5579 z m -312.66425,1.6544 c -16.34435,-29.1736 -13.21641,-114.447 -20.21722,-32.6491 0.25245,6.1677 11.18645,62.7696 20.21722,32.6491 z m 14.23841,-76.0083 c 1.11973,-127.3366 0.0717,-254.6774 -0.46388,-382.014 -41.94237,71.5313 13.53276,156.2543 -5.9689,233.2823 -14.98378,-0.2972 -7.02217,-73.8156 -11.3882,-10.7764 2.24942,74.0703 -10.96958,149.9307 11.1205,222.1284 7.20152,-19.257 2.43618,-42.2021 6.70048,-62.6203 z m 538.09274,61.3283 c 73.95217,-1.5755 140.49601,-30.7059 192.06536,-82.9092 108.37533,-101.5351 175.77123,-242.4922 208.21463,-385.9656 9.2208,-40.3284 -23.5995,75.9914 -9.1786,2.6227 10.9232,-65.4942 56.3571,-192.93753 34.6217,-222.07359 -8.743,40.88484 -44.0714,96.88599 -28.9558,108.03529 -37.5408,44.4201 6.317,-107.51404 -3.7846,-47.07325 -50.6223,-5.60876 -21.9238,76.58935 -62.8624,18.14115 -23.419,25.9111 2.6106,61.2193 -22.5911,14.2123 -50.1706,-19.85561 -36.6028,92.1558 -105.86499,43.7838 -28.23096,-29.7196 -115.45976,-66.90196 -106.60298,-52.4327 17.08091,-68.51104 83.79028,-152.97065 159.89477,-136.53086 41.5608,4.0858 15.5053,-42.07148 33.5263,8.71835 28.1057,28.96226 60.2581,-34.7667 37.0593,28.5861 -53.1465,63.36036 13.1827,-0.97221 31.9099,-3.632 -9.9802,26.48306 -41.3394,69.16832 5.4497,29.42063 51.7639,-57.98401 -45.3285,85.62508 32.7799,32.13147 60.1632,-51.3364 12.6728,-175.53011 -14.9235,-177.2498 26.9299,-38.68597 -70.0082,-107.19256 -101.514,-146.04123 C 906.38894,524.38914 706.98633,479.24719 522.13202,507.98258 c -37.76607,4.9905 -109.08873,75.4482 -97.64326,93.28401 57.59663,-77.68318 -33.5002,50.70981 -33.49988,79.22252 -6.75471,32.39757 -56.56748,107.11453 -8.38645,37.17561 -58.1544,59.46143 -59.00273,151.43341 -24.82997,223.02298 50.70211,37.41537 73.27986,-87.54458 134.51379,-87.71423 79.12425,-49.40318 169.08854,2.90378 206.32473,77.58374 42.11199,69.18313 68.03035,168.77699 17.46556,239.01089 -59.0468,3.931 -42.53769,141.4701 -5.77494,69.9991 14.07874,-44.1321 18.00978,-69.8029 20.53381,-5.2848 20.80733,70.914 108.00428,8.4028 96.61292,-44.4501 12.19426,28.3264 23.13091,106.5181 51.10938,39.2365 15.0785,-76.7484 -133.66655,-70.2388 -88.86701,-158.567 10.397,-88.30654 17.06469,-170.89432 85.72553,-210.67962 85.41113,-47.79271 198.15977,-70.49542 289.60487,-27.0627 36.97,34.95415 -46.8397,-17.76402 -21.217,13.79815 -35.0063,-30.82392 -165.55562,-39.97867 -153.50283,-20.72257 40.37493,-9.46468 120.06413,21.50924 34.17443,8.33965 -100.07409,-13.51132 -209.98699,61.671 -211.45745,166.63659 4.19763,79.5708 8.9702,152.7349 82.16423,196.8904 8.2097,95.5106 -135.35592,92.9912 -202.07173,75.713 -78.63988,-17.4508 -3.53796,-116.9706 32.62237,-138.2542 17.63935,-67.2978 -17.21361,-25.1306 -18.11683,-26.1454 12.04881,-28.5988 15.74833,-85.0198 2.58009,-60.5164 21.78671,-94.77168 -67.86752,-218.81966 -172.5075,-197.26825 -39.21079,7.43194 -107.15614,32.20214 -29.36092,13.83676 -75.1089,18.71976 -140.80956,81.42113 -135.37806,164.13229 -22.26297,-0.8637 18.65936,106.8223 -12.43063,36.31 -23.14426,-29.2782 39.88205,106.1283 2.83307,67.8866 -2.4548,55.1859 70.60606,156.2589 52.63637,162.1174 -43.97332,-69.7976 12.95068,97.2928 13.38572,97.285 34.17189,98.6045 128.04019,168.3122 222.70538,204.4505 38.99887,11.8436 81.25103,20.3525 122.0552,14.3174 z m 38.48386,-97.4598 c -23.1234,-27.7555 -161.67423,-22.2879 -65.7449,-29.3035 18.24328,5.3284 72.78125,-1.5314 65.7449,29.3035 z m 16.36526,-33.7777 c 3.78279,-13.3277 10.3396,2.4943 0,0 z m -69.33334,-21.0443 c -76.63121,-1.491 -162.75014,-95.0472 -202.91623,-116.9484 30.14348,-54.3782 26.20909,52.6495 80.59054,34.1984 77.29423,-4.5772 158.06227,-31.3898 230.03677,9.1147 72.05124,45.2301 111.12949,-114.7144 108.53238,-71.3064 83.14285,49.9215 -46.44235,13.2951 -54.97283,65.7708 -43.13987,42.0268 -96.38594,87.8384 -161.27063,79.1709 z m 44.1657,-9.1978 c 31.3172,4.7949 110.2654,-65.1116 36.89065,-26.0773 -42.54645,16.6249 -153.40403,-22.0177 -146.98624,4.565 33.50459,17.2885 72.19151,29.4869 110.09559,21.5123 z m 39.8343,-33.8127 c 68.88941,-26.9156 -83.15372,-49.327 -114.65986,-42.2634 -79.93475,-19.4275 -59.2795,51.1376 7.37326,40.0241 35.5512,4.5204 71.5763,5.1737 107.2866,2.2393 z m -113.85818,-77.036 c -1.67316,-83.9456 29.15006,2.6814 0,0 z m 79.58958,-2.946 c -22.50573,-28.8537 5.98914,-57.5062 7.50744,-13.5822 10.85804,4.0485 1.21928,20.7123 -7.50744,13.5822 z M 580.10971,1304.243 c -22.75886,-60.6041 92.19482,-19.4599 14.09134,-0.4074 -4.72606,1.7623 -9.27943,1.563 -14.09134,0.4074 z m 26.20775,-21.3382 c -0.90073,-5.8682 -8.36156,10.0852 0,0 z m 200.25183,-87.577 c -2.20678,-13.4482 11.90405,4.2617 0,0 z m -101.93227,-46.0897 c 11.58521,-42.4688 40.25019,-40.609 0,0 z M 489.92775,1110.667 c 32.76572,-10.6705 171.15478,-47.0763 76.53027,-12.3742 -24.8671,7.4608 -50.86498,9.4653 -76.53027,12.3742 z m -17.61029,-46.9894 c -13.64866,-31.014 -110.61748,-13.8144 -43.87935,-52.978 -52.70353,-37.05628 -26.35709,-34.9378 13.16438,-21.88518 -14.12909,-63.03851 -10.7812,-26.62122 30.06187,-21.39936 -7.94389,-27.81121 -18.94499,-96.6528 6.80738,-33.31311 38.1553,45.46217 29.10335,-110.69858 34.07251,-23.86396 52.86272,66.40382 46.55839,-108.1457 57.11829,-17.30196 -11.91242,67.4118 39.58906,-60.40152 30.57297,20.08911 -21.01927,25.52533 75.06349,-38.22935 16.76986,9.93871 7.38165,41.33781 89.0775,140.22395 -10.56691,91.89885 -12.47971,23.598 2.1018,52.6877 -34.18208,7.7578 -26.16396,14.7779 -5.25552,63.9805 -34.29696,9.0541 -25.65777,11.961 -35.30148,48.1287 -52.01496,7.8944 -10.20212,1.5094 -4.74924,54.6037 -13.627,24.1086 z m -42.0194,-28.7832 c 72.95139,47.3705 98.12943,-120.79816 31.09912,-45.05489 -4.79584,6.85266 -77.1575,54.50319 -31.09912,45.05489 z m 130.78699,-24.9896 c 9.91845,-11.71458 -18.00647,16.2014 0,0 z m -6.01102,-3.1455 c -7.58543,4.5628 -5.98719,3.6014 0,0 z m 20.957,2.3823 c 73.61439,32.8571 49.03583,-73.46781 6.32631,-51.66995 -4.40325,16.79105 2.12772,36.01922 -6.32631,51.66995 z m -20.38214,-7.1695 c 29.99783,-22.77035 -6.15882,-69.07193 -5.41621,-13.65755 -28.64143,18.63955 -19.72538,-70.44229 -29.31919,2.58355 3.9822,14.5911 23.56129,23.3281 34.7354,11.074 z m -4.0143,-18.38342 c 1.93332,-35.69083 -35.20419,17.77602 0,0 z m -33.428,-20.5752 c 39.6229,-42.00685 -28.24486,17.00549 0,0 z m -38.5558,0.5579 c 8.38192,-11.68212 -13.25068,13.82971 0,0 z m 94.66667,-16.6666 c -1.90835,-5.20699 -2.69921,5.53837 0,0 z m 40.75055,-31 c 12.1586,-13.71183 -15.23218,15.36839 0,0 z m 21.34892,-9.161 c -6.9693,-6.42504 -3.71173,10.55217 0,0 z m 469.90057,24.161 c 4.5116,-6.3018 4.5119,6.30176 0,0 z M 592.64426,1579.2381 c -20.15705,-6.3084 12.29033,29.7112 0,0 z m 320.33987,11.6667 c -1.90831,-5.207 -2.69924,5.5383 0,0 z m 201.95367,-53.3334 c 6.1425,-36.0956 8.673,-193.3059 -25.9301,-87.0072 -7.4032,32.2949 -6.3076,133.8805 26.2497,116.5436 -0.2034,-9.8408 -1.8777,-19.7077 -0.3196,-29.5364 z m 61.9199,31.439 c 31.0987,-103.4936 39.9892,-213.2044 29.1211,-320.586 -80.161,74.6837 -36.6472,196.1795 -53.9559,292.3061 -0.5281,12.5745 4.5405,53.7909 24.8348,28.2799 z m -8.1307,-72.439 c -8.25,-49.145 -12.0375,-165.8998 28.5824,-167.7299 14.8735,56.0823 8.566,121.3483 -28.5824,167.7299 z m 11.379,-20.3333 c 21.6173,-35.5968 6.1406,-181.9027 -4.9972,-75.4305 -3.2365,24.5725 -10.2142,53.2345 4.9972,75.4305 z m -248.38291,96.198 c 36.35655,-22.907 -17.29887,1.001 -4.72757,-1.2624 z m -730.81634,-31.5313 c 9.46099,-70.5398 25.52888,-215.1405 -22.75381,-234.1751 6.58035,86.1491 5.47565,173.388 18.79568,258.6978 l 1.72777,-7.0329 z m 756.74404,21.3042 c 46.31101,-39.5932 -51.43433,29.1462 0,0 z m -24.6163,-2.0361 c 3.26343,-9.7392 -20.20335,22.5512 0,0 z m 43.34222,-6.6973 c -6.7809,-4.885 -4.74469,14.796 0,0 z m -21.23949,-6.9042 c 24.40137,-19.1173 51.71608,-57.0669 12.17509,-15.1979 7.27602,-2.4404 -30.79017,23.6671 -12.17509,15.1979 z m 4.68365,0.6667 -1.59258,1.1692 z m 52.49663,-16.9457 c 48.9217,4.9895 75.0537,-109.0662 19.528,-36.513 -11.0484,8.7281 -65.17096,72.945 -19.528,36.513 z m -42.75909,12.7422 c -6.50599,5.1783 -4.08764,3.2534 0,0 z m 20.2296,-14.4778 c 43.19649,-43.2474 -34.85376,12.4733 0,0 z m 11.08749,-3.8075 c 42.9694,-28.2469 115.9019,-194.4426 102.7559,-168.4424 -31.5094,57.8182 -75.1376,108.4051 -102.7559,168.4424 z m -834.96376,-72.1779 c -18.41724,-99.3216 1.26753,56.9461 0,0 z m 253.30959,-62.571 c -3.09651,-42.5173 -70.34419,-127.8974 -26.66109,-37.4992 5.73316,5.8997 16.10025,53.1429 26.66109,37.4992 z m -255.71798,-24.7623 c -5.02035,-55.1466 -2.16527,60.0001 0,0 z m -9.28648,-23 c 7.55177,-109.4567 -7.1745,-218.6494 -18.13306,-327.3434 -21.949,70.2098 -6.86169,146.1559 -7.16893,218.6051 1.10246,29.4772 13.70745,125.6 25.30199,108.7383 z m 54.76726,-57.2323 c 14.33696,-82.9986 -5.50915,-165.0746 -21.1718,-245.7381 -0.42395,-25.9532 -10.29735,-94.71142 1.27517,-117.77583 -29.01021,119.37663 -29.60784,246.62033 -2.6096,366.08573 8.209,20.0183 34.30917,42.9085 22.50623,-2.5718 z m 592.17008,-11.101 -1.59259,1.1692 z m 0.50398,-8.3415 c 5.49357,-11.6734 -11.70804,12.2903 0,0 z m -75.34073,-1.4679 c -4.56082,-5.1536 -2.34207,7.3194 0,0 z m -356.67413,-20.1649 c -17.00695,-56.434 -16.55086,-22.4645 1.35328,11.8844 z m -26.44283,6.6409 -0.0636,3.2532 z m 859.0937,-4.7129 c 4.8668,-31.4612 -28.86,17.0719 0,0 z m -861.27091,-2.2628 c -5.02185,-31.4977 -33.94507,19.3848 0,0 z m 834.62751,-16.6951 c -11.3577,-44.7513 52.3022,-57.6566 41.5629,-5.3059 28.6162,-41.0885 -1.4544,-193.6081 -32.493,-87.3175 -2.1222,24.8481 -30.9696,75.8686 -9.0699,92.6234 z m -854.56997,3.25 c 25.63484,-67.8791 16.43274,-138.8199 -27.7442,-195.6525 -17.7034,-39.96078 53.81968,-176.84953 -23.85566,-125.02158 -23.40996,98.04538 72.83016,187.85858 39.09851,290.31108 l 3.9721,15.6018 z m 17.01,-15.9125 c -6.37242,-48.183 -10.12511,41.0383 0,0 z m 862.18597,-4.4859 c -0.9266,-48.1816 -22.0475,41.1868 0,0 z m -511.28751,-36.7406 c 17.45541,-14.8132 -31.45958,18.3986 0,0 z m 550.15841,-38.4402 c 4.2579,-32.9026 -5.8367,-157.79653 12.7693,-127.0608 -3.0358,36.5205 13.5492,85.899 15.2977,19.2674 19.1284,-54.05877 25.1807,-158.16762 19.3056,-183.22583 -19.0545,101.60411 -93.3024,205.46033 -46.6958,309.35303 l 0.5882,-2.525 z m 10.0511,-11.6666 c -7.1289,17.7306 8.0125,28.9351 0,0 z M 159.5212,1099.5401 c 14.8145,-37.8604 -14.2044,-114.59223 -8.18983,-33.3648 -0.51235,25.7034 11.68935,97.4796 8.18983,33.3648 z m 49.63581,1.0321 c 4.23838,-43.6447 -11.68628,-143.86372 -7.78326,-44.4143 0.65151,2.0707 2.67843,81.0225 7.78326,44.4143 z m 986.01299,-2.0008 c 27.1981,-62.1566 -14.7899,-52.4966 0,0 z m 78.9355,-23.6963 c 13.2687,-23.3032 29.293,-144.78151 15.5432,-116.86732 -4.0731,36.04939 -26.4312,88.66112 -15.5432,116.86732 z M 329.53294,1063.38 c -3.39841,-68.99672 -8.29426,42.1092 0,0 z m 709.73536,-19.1394 c -6.392,-71.2231 -101.93291,9.5643 -20.3475,12.7319 7.2698,2.219 28.8849,0.3848 20.3475,-12.7319 z m -55.61751,3.5298 c -25.98028,-78.95381 -82.33013,4.1466 0,0 z m -669.05082,-11.4698 c 38.84385,-35.8191 -21.53622,-138.3538 -10.83081,-41.61334 2.64339,10.71624 -7.31793,43.80094 10.83081,41.61334 z m 904.19793,-1.0625 c 10.1636,-47.39515 29.6452,-105.02882 -3.748,-147.46196 16.9253,48.42678 -31.2362,104.10129 3.748,147.46196 z m -327.81377,-22.9585 c 53.14803,0.194 87.17723,-26.09431 64.91335,-68.70999 -18.56544,9.88869 -83.42284,55.81337 -64.91335,68.70999 z m -725.3271,-29.35122 c 9.42454,-70.97476 -19.88107,53.96602 -0.20234,1.53279 z m 894.04447,20.73342 c 115.7645,21.9082 -55.7143,-136.15979 -18.0365,-37.4235 -11.8907,31.55653 -40.4035,54.8904 18.0365,37.4235 z M 355.78033,992.37618 c -21.191,-55.26522 6.8234,30.44412 0,0 z m 768.13717,4.9286 c -8.0655,-5.14073 -0.6593,6.22232 0,0 z m -104.8023,-1.6532 c 27.4498,-22.72196 -20.38934,6.68542 0,0 z m -38.13107,-3.2507 c 15.63947,-78.2344 -35.89407,-33.73023 0,0 z m 37.97127,-4.4266 c 48.2022,-55.75888 -58.22834,-3.201 -12.4452,2.58134 z m -803.68294,-7.4029 c -0.01,8.96479 -0.008,7.30515 0,0 z m 131.03869,-10.6164 c -5.06521,-3.23013 7.7514,15.48791 0,0 z m 656.60435,-3.7357 c 37.6646,-19.49781 -29.2655,-0.3062 0,0 z m 2.1924,-14.7482 c -20.39481,-25.46526 -17.88612,38.97452 0,0 z m 244.0057,-2.9426 c 39.4698,-15.21682 0.5783,-143.7321 4.1614,-62.2904 2.9428,-40.63521 -54.6149,-71.32607 -33.4973,-24.89032 37.1518,7.2038 3.2731,101.74337 29.3359,87.18072 z m -1030.43765,-2.2904 c -3.07935,-16.40249 1.17887,-2.86629 -2.7735,14.27417 z m 696.79114,5.582 c 48.33769,-46.37665 -38.67464,0.82517 0,0 z m -749.86079,-3.2487 c 33.40352,-99.19181 3.98283,-210.78565 60.17934,-304.78217 27.51319,-69.69798 62.86734,-135.88844 97.56681,-202.18234 -6.20994,26.96955 -49.25683,119.72777 -5.3465,51.3353 13.20436,-28.10551 98.20702,-109.71048 37.23817,-43.41041 -30.96395,37.34758 -86.01032,166.61736 -86.81472,142.455 45.75715,-71.86926 90.37259,-157.82824 169.15449,-186.95377 18.28706,-76.00057 -67.31952,-32.42395 -75.77733,12.81027 -63.58679,62.18761 103.63648,-113.53663 14.13609,-49.62769 -132.81315,92.48079 -171.90995,259.25569 -208.66649,406.65504 1.69985,53.32886 -12.81025,139.73658 -1.66986,173.70077 z m 173.98436,3.3334 c 3.85533,-28.19507 -12.05734,4.62217 0,0 z m 588.23021,-7.3334 c 2.94382,-6.00085 -9.87576,10.46368 0,0 z m 52.67058,-10.3201 c -4.97682,-13.44221 -29.57483,33.87136 0,0 z m -835.74167,-12.6799 c -4.77381,-46.23765 -1.34404,43.72707 0,0 z m 190.06068,11.5962 c -12.59755,-28.82766 5.49285,25.37703 0,0 z m 664.84033,5.0827 c -8.07799,-4.62897 -6.31739,8.82913 0,0 z m -777.56006,-27.1653 c -11.33342,-8.31889 -2.73702,40.20101 0,0 z m 615.59264,2.1978 c 11.92291,-29.57442 86.93725,-79.95451 21.77171,-36.89633 -4.8949,3.46074 -52.40153,79.79575 -21.77171,36.89633 z m 163.92223,14.0417 c 11.944,-16.31971 -25.21749,10.63644 0,0 z m -760.56833,-32.4476 c 5.09031,-32.60243 -18.04754,55.75509 0,0 z m 716.07111,21.1181 c 22.94229,-79.59557 -47.13514,39.60884 0,0 z m 122.43012,-0.7569 c -10.7308,-48.15797 -52.8929,21.65582 0,0 z m -101.20575,-7.0109 c 57.06755,-17.5757 -23.01427,-48.35699 0,0 z m -764.81573,-6.9614 c 14.6321,-26.71166 10.86029,-121.72984 -0.57307,-41.37691 2.64415,12.38118 -9.27794,31.74509 0.57307,41.37691 z m 832.74038,-7.7196 c -45.8535,-48.5189 -61.46986,38.69107 0,0 z m -909.29369,0.9465 c -7.76314,-0.59033 3.11249,9.10594 0,0 z m 313.98538,-9.7216 c -12.43548,0.33759 -13.73281,23.44419 0,0 z M 192.87,887.57138 c -3.61546,6.71825 -2.48824,4.62365 0,0 z m 47.58047,-14.4534 c -6.13153,-12.95364 -8.42419,42.396 0,0 z m -94.15518,-20.168 C 162.79553,737.12201 198.89256,624.31269 242.95576,516.42902 276.16575,457.76283 324.81162,410.22067 371.8953,362.77045 252.83873,420.45963 206.35669,558.0311 170.74392,676.3615 152.14678,728.67734 121.82863,823.45372 146.29529,852.94998 Z m 354.68884,3.9548 c 8.38215,-11.68231 -13.25045,13.82916 0,0 z m -252.59075,-37.8509 c 2.637,-35.25345 45.23097,-143.8403 3.90305,-55.50181 -5.16007,14.94729 -20.70384,129.83617 -3.90305,55.50181 z m -43.97825,23.6278 c -1.01012,-29.33763 45.35561,-151.52594 5.02937,-116.6714 -9.70361,37.5851 -18.72806,78.86537 -5.02937,116.6714 z m 711.23566,2.8897 c -0.90102,-5.86803 -8.36144,10.0852 0,0 z m 6.66667,-2.6666 c -0.90102,-5.86803 -8.36143,10.0852 0,0 z m -661.29821,-15.3334 c 27.86121,-45.78592 61.28632,-135.55809 52.24705,-134.32521 -19.50731,43.58241 -54.24834,84.10183 -52.24705,134.32521 z m 1004.80835,-11.3333 c 9.5025,-56.1951 -48.8784,-227.3771 -50.1747,-203.59548 16.914,68.62777 32.9866,160.28654 50.5097,215.08331 z m 32.0396,7.6667 -0.064,3.25309 z m -70.883,-4.3807 C 1230.3696,739.56591 1145.3315,695.83044 1099.7493,641.01299 1025.171,576.84684 951.022,499.5948 852.89676,475.19448 764.80881,458.29901 674.76356,455.39452 585.29579,456.38539 c 26.44838,-22.61147 131.39339,-21.07481 45.73488,-19.40949 -44.10264,12.783 -131.45008,5.56306 -111.07266,-31.10868 -65.82442,-29.08472 -78.97484,160.49943 -52.3615,93.721 -65.49279,42.65969 -82.2812,124.96096 -113.97966,191.31656 52.5119,-72.74208 91.21985,-185.36867 195.70718,-191.40269 220.90491,-32.88683 467.40497,47.28828 600.36547,232.8535 24.5774,30.06726 49.1739,60.28966 77.2947,87.16849 z m -987.76099,-33.3798 c 17.0763,-61.15671 -23.19005,59.44635 0,0 z m -8.20135,-8.5729 c 19.76932,-73.12883 51.59205,-117.1549 90.34412,-175.71252 17.51655,-24.41911 64.17786,-126.37573 57.98035,-95.30795 -9.64184,47.94923 -100.91628,144.82777 -77.15606,158.28691 38.16242,-33.87969 100.89729,-151.0392 106.26381,-148.17649 -27.58732,29.89547 -25.30271,64.08337 9.03372,21.76502 71.58104,-24.31441 33.65643,-187.06734 -27.79996,-81.8662 -70.5726,78.29604 -150.01259,162.31318 -155.34213,273.7733 -1.47502,8.3051 -21.99735,109.83812 -3.32385,47.23793 z m 1069.53694,25.3334 c 23.1206,-45.53758 -16.377,-92.21942 -17.0168,-20.53918 -3.3542,9.90206 4.0797,28.55813 17.0168,20.53918 z M 309.44337,687.88838 c 14.78227,-65.63647 -73.13685,141.5597 -22.88782,44.67035 7.7505,-14.82798 13.69071,-30.61385 22.88782,-44.67035 z m 917.55963,64.0164 c -11.7195,-76.85599 -29.7775,-215.57179 -105.1209,-226.99244 16.6481,79.19501 80.9807,141.04802 91.8696,223.0917 1.2284,8.20103 18.0769,28.16295 13.2513,3.90074 z m 60.1026,-35.8481 c 16.5745,-35.72974 -38.3856,-80.96172 -9.8507,-21.77529 1.2135,26.60769 11.7075,78.84211 9.8507,21.77529 z m -917.98957,-19.6877 c -30.8013,41.5889 -23.56244,64.92278 0,0 z m -225.9423,38.5358 C 183.58522,621.43111 210.60255,494.4872 301.99115,408.86695 203.67412,485.93646 152.0825,615.42379 143.17373,734.90478 Z m 196.32832,2.3333 c 1.53113,-11.32494 -6.13548,16.06591 0,0 z m 20.4858,-39.6667 c 25.42245,-37.30967 49.32568,-95.32381 10.55754,-26.09358 -13.05475,21.29876 -37.19211,77.41656 -10.55754,26.09358 z m -81.22475,12.6667 c 21.21348,-33.08997 89.48726,-116.89279 22.88754,-46.60531 -3.96725,5.33079 -63.62672,70.21566 -22.88754,46.60531 z m 46.6046,5.8864 C 371.8717,657.31808 387.56608,580.38989 432.47532,520.98127 376.83871,571.209 325.57176,637.6763 325.3677,716.12448 Z m 933.8606,-12.1364 -0.2462,2.40857 z m -3.7214,-15.9847 c -12.8016,-32.70058 13.0028,48.12353 0,0 z m -61.2098,9.2347 c 1.3121,-18.39682 -11.4863,7.54442 0,0 z m -961.70649,-4.7286 c 14.83726,-11.01404 1.77828,-52.31307 -0.88732,-16.09165 z m 936.28289,-20.6047 c -4.4215,-34.37772 -79.9194,-121.93396 -72.9277,-91.70459 25.019,29.98508 42.1029,66.743 72.9277,91.70459 z m -33.2227,-18.1623 C 1098.0775,588.9641 982.20306,465.28405 942.46658,496.7249 1006.4129,549.61554 1072.6483,599.705 1135.6508,653.74248 Z m 144.0458,-23.6708 c -11.4715,-58.46098 -42.5724,-142.06813 -97.8677,-161.71236 28.6233,44.76076 67.5031,175.07233 97.8677,161.71236 z M 249.24246,606.41378 c 6.17628,-27.93278 -17.79056,46.96263 0,0 z m 37.40735,-29.1757 c 28.37192,-55.3329 97.91685,-96.66264 111.00024,-153.48006 -43.4745,44.85583 -85.42918,96.73183 -111.00024,153.48006 z m -21.18704,-6.5269 c 15.92482,-48.27314 -25.86792,56.51028 0,0 z m 858.67783,-4.8177 c 14.3968,-60.6317 -158.56713,-126.0245 -60.5391,-46.59001 17.7399,17.80424 34.5074,40.92704 60.5391,46.59001 z m 68.2932,4.2775 c -8.1367,-9.51772 11.729,25.59077 0,0 z m 61.4032,-51.9754 C 1193.3496,306.65197 954.15817,174.65023 741.57458,216.41556 c -45.20443,1.8189 -168.30635,37.84245 -156.15466,47.32492 131.55382,-26.46259 280.10399,-50.81769 402.04189,20.89246 107.88609,-14.05631 127.00319,118.17732 205.38669,167.16016 15.6563,4.04782 68.5447,101.13123 60.9885,66.40248 z m -96.6601,-11.7065 C 1104.282,363.78556 939.21024,315.6019 801.45724,304.70565 c -29.37785,-2.30906 -143.3961,0.16757 -116.64267,29.12854 104.86741,1.80105 218.985,-7.75203 309.85241,55.34083 50.67962,20.9679 131.06602,152.17276 162.50992,117.31406 z m -109.752,11.8582 c -19.1785,-27.86382 -121.34118,-83.64466 -104.15099,-60.09857 35.82111,18.11186 67.69999,43.14335 104.15099,60.09857 z m 29.5593,-37.8718 C 1012.7134,390.84281 899.89693,346.0833 792.59459,340.67604 c -61.39799,24.06289 151.48789,49.8924 91.17404,59.41358 60.79383,35.46998 123.78617,66.41301 193.21557,80.38586 z m -140.00007,-3.5903 C 915.97409,453.08682 830.48984,452.13925 901.37441,473.1065 l 17.76419,2.26295 z m -85.77676,-16.0871 C 815.18659,426.84132 647.66302,444.30872 676.245,448.11562 c 58.35413,3.74001 116.52735,10.24675 174.96237,12.68246 z m 311.61383,-2.2267 c -44.2402,-74.42206 -24.4181,-11.94242 0,0 z m -318.50374,-19.7431 c -36.36515,-6.83657 11.96445,5.24638 0,0 z m 64,-13.9398 c -76.89299,-40.31777 -158.51143,-95.98754 -249.79565,-68.54275 -29.13576,-0.15249 -105.84454,37.45699 -32.89168,32.69525 97.23254,-6.47642 207.82173,36.02037 292.19529,40.48459 z m -284,4.842 c 38.5754,-4.69465 137.03734,-0.90566 148.26736,-5.80817 -81.26533,-16.20761 -172.30933,-33.71997 -248.60069,9.40887 33.49928,2.51221 66.89327,-2.55527 100.33333,-3.6007 z m 178.19971,-6.2597 c -54.10218,-21.24877 23.43901,14.86067 0,0 z m -280.19971,-30.7191 c 40.66385,-1.23275 138.14133,-71.81456 38.56446,-48.95238 9.67674,-25.01204 111.73689,-37.02044 118.71576,-36.54567 75.90856,-18.50709 113.3755,-24.3183 191.28014,-18.53343 78.94272,12.09417 -55.51921,-15.12757 -84.01501,-12.68517 -102.20027,-5.00946 -206.59565,17.95562 -294.62404,70.89088 -52.99816,5.84923 66.93213,-78.50372 -10.33595,-36.60108 -73.24886,28.99319 -34.01851,152.88474 40.41464,82.42685 z m 17.12387,21.3365 c 27.67409,-8.94577 119.73377,-20.47335 37.84302,-19.82254 -7.15593,4.5306 -50.15477,4.94869 -37.84302,19.82254 z m -5.79054,-15.8811 c 109.94803,-38.49667 -39.94162,0.8068 0,0 z m 574.22711,-24.8791 c -13.5964,-38.80802 -108.85525,-108.26553 -40.7671,-32.80804 4.6092,1.99088 49.6678,61.30256 40.7671,32.80804 z m -451.56044,-21.0706 c 70.38442,-31.85751 -123.35124,18.58119 -2.85407,0.61932 z m 382.00004,4.7369 c -61.40683,-41.46087 -138.49405,-58.44279 -211.63081,-62.39911 50.50573,10.87671 149.77854,28.23726 211.63081,62.39911 z m 11.1207,-13.7622 c -26.7191,-45.3206 -154.86627,-49.57438 -140.97657,-59.76606 50.43529,11.05336 92.66777,43.02612 140.97657,59.76606 z m -554.45407,-3.4203 c 62.43178,-34.80051 143.75362,-49.9451 204.83365,-71.88903 -66.73675,-7.56916 -208.52503,27.51697 -206.75583,72.67093 z m 86.46145,-4.1258 c 33.14502,8.37758 96.4988,-25.10796 27.90415,-9.69857 -2.88645,1.1915 -52.47938,12.4369 -27.90415,9.69857 z m -35.29779,-49.5962 c 124.8707,-45.10351 258.82754,-18.9945 387.70019,-14.4567 -113.71889,-46.5428 -241.18823,-23.38098 -356.90932,2.13988 0.75127,0.10772 -58.99291,19.1606 -30.79087,12.31682 z"
       style="fill:#000000;stroke-width:1.33333"
       id="path207" />
    <path
       d="m 1169.1151,1230.7757 c 2.4787,-64.5659 20.2795,-120.9886 39.1419,-138.7519 16.2755,-27.2561 17.4868,106.3573 18.8288,104.6002 -14.6926,61.2143 -22.8567,16.7527 -14.1501,-19.0654 -29.7369,-31.3367 -32.8154,60.7397 -43.8206,53.2171 z"
       style="fill:#f4d7d7;stroke-width:1.19841"
       id="path244" />
    <path
       d="m 314.36219,1226.2136 c 1.0243,-83.9182 -10.31202,-166.8413 -42.07605,-246.60165 -52.52591,-45.38959 40.28995,-149.59983 44.84706,-55.27794 -42.27724,29.01088 -28.86433,132.20679 9.75931,170.95839 18.99057,24.1566 8.85362,96.4534 -3.77797,92.8481 -8.12557,4.1711 5.68381,56.4512 -8.75235,38.0731 z"
       style="fill:#f4d7d7;stroke-width:1.19841"
       id="path248" />
    <path
       d="m 310.45647,1041.8441 c -11.96727,-22.7011 -12.78466,-151.36426 13.88313,-72.01426 7.11525,23.80624 -12.76445,62.55296 -13.88313,72.01426 z"
       style="fill:#f4d7d7;stroke-width:1.19841"
       id="path250" />
    <path
       d="m 1023.863,1054.8351 c -55.96381,16.7773 -47.21246,-76.35396 6.9552,-32.6334 7.0226,6.0879 19.2425,48.2332 -6.9552,32.6334 z"
       style="fill:#f4d7d7;fill-opacity:1;stroke-width:0.847406"
       id="path258" />
    <path
       d="m 973.22818,1050.1802 c -46.92054,-6.2094 -53.01552,-72.62647 0.0249,-24.5651 5.90897,4.0668 19.03999,33.1915 -0.0249,24.5651 z"
       style="fill:#f4d7d7;fill-opacity:1;stroke-width:0.847406"
       id="path260" />
    <path
       d="m 1213.3184,1039.7675 c -11.3965,-30.3377 8.4435,-226.80254 10.2066,-158.96308 9.688,48.66934 12.9568,122.44498 -10.2066,158.96308 z"
       style="fill:#f4d7d7;fill-opacity:1;stroke-width:0.847406"
       id="path262" />
    <path
       d="m 1241.3576,959.83751 c 0.5932,-40.16371 -2.7021,-91.8562 -28.9685,-103.0278 24.6132,-67.43391 41.5245,23.97259 41.3566,30.59387 -7.6784,-41.99354 2.3796,-72.73208 13.1782,-10.85575 0.9598,26.14629 -15.3988,70.82076 -25.5663,83.28968 z"
       style="fill:#f4d7d7;fill-opacity:1;stroke-width:1.19841"
       id="path264" />
    <path
       d="m 1191.4828,1099.9419 c -0.8556,-26.838 15.7071,-93.643 11.1186,-25.9249 l -3.3831,13.6848 z"
       style="fill:#f4d7d7;fill-opacity:1;stroke-width:1.19841"
       id="path266" />
    <path
       d="m 225.14606,785.4661 c 17.82115,-74.30989 12.74001,-159.69998 73.10146,-215.79733 44.12519,-47.31081 95.57932,-149.48884 148.77586,-148.17828 38.43376,61.56624 -14.56366,96.5182 -56.62091,135.68479 -18.23395,8.61751 64.59164,-99.21217 13.60418,-41.96552 -33.8435,59.29745 -68.52326,118.2558 -120.8224,163.82133 C 314.87973,613.09907 373.25467,551.6013 385.40322,481.34338 357.3331,538.39459 309.47873,632.8463 278.60021,663.44557 289.08005,584.19546 238.06305,779.08465 225.14606,785.4661 Z"
       style="fill:#ffff00;fill-opacity:1;stroke-width:1.69481"
       id="path268" />
    <path
       d="m 719.92097,1612.3939 c -89.3379,-13.1525 -173.21318,-57.7473 -229.64088,-129.1692 -63.02461,-40.4813 -64.00512,-113.3446 -81.79084,-171.6567 -17.36335,-39.7451 -16.34776,-62.2846 8.54047,-11.271 26.52188,-2.5655 -47.62038,-95.3074 -46.21216,-135.7179 -15.23602,-37.1386 -2.82008,-44.5605 10.40109,-23.7077 -14.6979,-33.626 -43.02919,-125.5583 -5.23407,-43.7439 1.66309,-20.0006 -27.03894,-102.48743 4.46435,-55.4216 -25.27571,-88.15658 59.01945,-161.86078 137.7105,-177.33498 -38.80308,-5.31797 97.88045,-36.49575 112.80265,7.8395 61.33568,32.36901 95.66648,150.85668 81.89273,178.19478 25.32219,-32.774 -36.47874,124.157 12.1506,47.3638 -0.99047,29.7674 -36.92763,72.0507 1.69481,22.2343 -1.89737,55.6047 -93.71857,53.118 -64.27194,126.863 2.19493,51.2453 82.99082,19.497 108.4934,42.8614 61.24944,-2.2311 172.57863,-51.7699 105.62335,-123.1296 -53.70203,-15.5867 -65.34368,-51.6815 -49.57659,-88.4595 -34.24142,-81.5597 -2.0431,-176.32045 75.25644,-218.48719 40.53801,-28.67702 229.44752,-31.01632 167.61042,-27.1603 -26.9003,-10.40393 -138.06145,-6.78921 -54.3455,-11.94262 62.9039,-17.48904 136.2057,43.54321 144.9925,23.1191 54.815,14.95705 -54.7815,-53.37112 -77.6623,-32.94507 -97.64272,-4.6708 -207.15863,22.90482 -267.08636,105.52755 43.73886,-40.31634 -35.07825,67.82529 -21.4303,96.57503 -5.6449,67.5023 -22.8128,157.2586 69.98374,166.1356 55.54538,30.7253 -38.76689,131.6005 -23.21382,34.7371 -32.75577,-74.4083 -18.05656,99.9725 -85.99361,50.1815 -48.26529,-13.1171 -6.64855,-132.3789 -40.28191,-47.9821 -1.67682,45.1793 -37.34684,72.3279 -36.28591,12.0525 -2.18584,-60.5287 80.33236,-58.0548 62.87512,-131.6271 12.24054,-93.3723 -40.09992,-184.63133 -109.74576,-242.84371 -84.46945,-54.81694 -187.43254,13.81209 -239.04955,83.4346 -44.30938,61.22304 -60.00367,-84.4884 -54.67055,-122.68758 -7.76203,-40.42497 90.98413,-150.95054 18.73138,-66.49036 -2.31308,-38.44528 96.70805,-178.38869 86.62822,-174.16768 -19.30351,31.35888 -38.21468,47.84104 -9.13412,5.22689 39.82719,-81.92791 139.38556,-75.9423 216.47162,-76.78184 160.10212,0.24877 320.5477,62.95516 435.82781,174.14387 19.9155,30.07654 101.4332,101.37071 74.47,113.67359 -52.8487,-4.53687 67.4918,29.24735 35.1522,70.05886 13.5897,41.2297 -27.2294,143.39406 -63.8329,107.21211 24.0876,-28.12204 39.4346,-71.156 -2.9078,-28.636 -54.2784,58.78653 43.3546,-101.64513 -6.3312,-23.68396 -16.1029,38.1767 -74.3501,15.72743 -15.5493,-7.63202 8.1505,-69.58863 -28.8838,14.51731 -48.4534,-37.02345 9.2359,-28.43634 -40.2941,18.66164 -61.01135,-8.95689 -62.19012,38.8125 -114.95563,69.59432 -127.85911,140.89307 -24.56972,47.565 70.2226,-10.2002 66.2936,44.9145 37.45866,15.9236 133.87696,41.776 111.02656,-18.3842 38.9177,-62.8279 44.7275,70.6351 52.8882,-10.8088 -13.5971,-44.62282 55.5896,51.8223 33.3385,-16.9147 39.6677,-15.66624 45.4453,-51.77462 38.9331,10.4477 -8.883,35.5371 -12.818,68.089 2.816,11.519 7.9855,-21.2073 26.8537,-85.29176 27.8068,-96.60424 8.041,87.50404 -39.434,168.41924 -42.8309,254.96634 3.8422,19.9613 -34.0163,113.0717 -56.2578,156.9837 -49.2389,91.4616 -109.56525,183.0155 -202.009,235.6226 -30.75399,35.1047 -125.32202,35.4634 -182.20723,38.5898 z m 96.2653,-99.2493 c 4.42122,-29.071 -91.2499,-38.6188 -112.13574,-20.5252 39.2438,-7.1275 77.25541,10.7621 112.13574,20.5252 z m 19.01588,-34.4456 c 4.09121,-15.0389 -15.06944,12.2384 0,0 z m -37.31985,-20.1857 c 78.26181,-8.993 117.90675,-95.4419 185.59202,-118.1964 84.74188,38.888 -61.64845,-79.7078 -15.88538,-7.817 -41.28371,61.0932 -102.41614,72.1047 -160.58357,26.9977 -48.19247,21.7103 -104.22729,-9.194 -159.96129,19.1083 -59.12503,13.8632 -67.12082,-98.3521 -94.71612,-30.4301 -13.51203,7.3087 54.4778,3.4386 64.2881,37.5284 49.04674,44.8679 111.36549,86.3339 181.26624,72.8091 z m -62.01127,-118.0305 c 28.2235,-103.0039 -32.59722,-1.0538 0,0 z m 85.42609,-7.0781 c -10.80772,-34.2394 -25.52101,-62.8611 -16.77667,-3.2373 0.25306,8.3411 13.65396,9.0256 16.77667,3.2373 z m -219.34608,-31.6952 c 74.61939,-38.7403 -55.91137,-50.2132 -19.46194,3.9824 l 7.70066,0.071 z m 209.93791,-106.1688 c 0.95104,-13.3697 -11.87035,3.6496 0,0 z M 524.6802,1107.3793 c 40.78986,7.716 139.3912,-65.9806 53.48013,-20.5791 -22.23689,3.5937 -134.79681,33.0956 -53.48013,20.5791 z m -46.34025,-40.0548 c 8.52488,-71.27988 31.66692,39.3295 42.73895,-25.267 24.25061,-39.0068 44.81246,69.7333 38.43966,-9.1491 5.96136,-31.7003 74.50663,59.9822 36.1525,-8.4763 14.41974,-18.5039 95.50437,38.9043 60.13771,-25.66379 -28.37413,-29.86736 -52.14801,-83.68398 -20.48426,-97.49101 -27.3539,17.07796 -54.29295,32.29079 -31.59166,2.30337 -2.33203,-59.52895 -40.39203,9.75964 -34.70586,12.33523 7.60155,-39.18565 -11.71514,-81.29798 -11.82794,-20.87479 -9.2612,92.91626 -82.51627,-53.24774 -51.49045,-16.12581 12.11137,40.48244 -18.63141,104.36833 -33.59624,32.26238 -38.60327,-39.11774 32.99245,108.79492 -30.00899,43.03265 -50.59003,-50.27504 40.45051,67.77717 -23.51504,31.99085 -58.03084,-42.62229 8.50105,39.27662 2.89741,28.04802 -69.01463,45.936 66.37901,23.6888 56.85421,53.0753 z"
       style="fill:#f4d7d7;fill-opacity:1;stroke-width:1.69481"
       id="path289" />
    <path
       d="m 879.36514,1898.1595 c -71.20215,-18.2405 -142.50822,-18.8301 -215.57405,-19.8019 -45.46724,-18.2448 -126.86087,27.4916 -151.80537,-7.2372 30.00953,-34.2763 63.9986,-69.9645 72.02202,-113.584 29.4945,27.2122 35.23623,41.3899 2.05854,26.4677 1.09765,32.3014 116.00161,54.6683 48.69041,9.988 -32.52955,-13.5693 -71.80987,-124.6314 -17.15984,-53.5081 98.6485,56.5627 -52.01467,-52.3329 -22.85299,-61.7563 19.75828,39.568 116.73633,58.9328 37.2763,17.6406 -37.2772,-17.5716 -53.99151,-97.7087 -0.45194,-41.269 35.06401,34.2131 52.60263,19.0435 8.766,-9.0015 -64.73448,-30.5338 -33.9554,-82.1828 19.88689,-35.3363 61.48844,40.8053 144.1116,6.1598 210.02524,-9.9306 28.86575,-19.8341 49.16352,-0.3721 41.3012,31.3831 0.1563,88.4459 20.95342,181.6198 79.54326,249.6078 -31.21686,11.1582 -76.71649,18.7769 -111.72567,16.3377 z M 598.03316,1869.394 c 11.43061,-11.9009 -92.59747,-43.181 -38.12907,-5.7878 11.82059,5.463 25.24607,7.6381 38.12907,5.7878 z m 15.53839,-12.9515 c 48.41344,-5.5983 -52.00159,-87.6012 -46.76679,-33.8298 3.51608,21.7381 24.25716,39.2729 46.76679,33.8298 z"
       style="fill:#f4d7d7;fill-opacity:1;stroke-width:1.69481"
       id="path291" />
    <path
       d="m 1074.4452,1802.933 c -21.4607,-43.6082 -64.8848,-59.9477 -50.92,-128.0718 -1.5652,-33.1897 15.8313,-147.97 -9.1374,-55.9731 -8.4082,29.3715 20.1381,181.1551 -18.20955,84.952 -16.62663,-69.4219 -26.55076,-168.5428 55.86775,-198.6843 43.6255,-24.4199 6.1832,92.0987 16.0313,122.1098 -3.2556,36.1273 5.143,113.6088 30.2279,114.6515 -9.9924,-14.8073 61.083,60.5248 18.5912,3.9196 -29.1271,-38.6509 -56.977,-145.4343 -21.7805,-160.8277 27.2046,60.8309 62.5215,163.2397 21.7707,217.4793 -42.1499,-5.817 -84.0186,-167.4006 -55.969,-55.7144 -3.9641,6.2117 41.0131,77.3933 13.5276,56.1591 z"
       style="fill:#ffff00;fill-opacity:1;stroke-width:1.19841"
       id="path293" />
    <path
       d="m 1204.5214,1798.8424 c -8.0627,-55.8722 -30.334,-131.9293 -16.8876,-200.1591 -23.0275,-37.3724 -1.0272,116.9918 -22.2958,104.6942 -21.2653,100.5906 -33.6934,-69.8444 -40.6733,-101.6195 -4.7765,-74.6625 7.4661,-149.729 1.0566,-224.1801 -24.821,15.9447 -72.9857,112.6788 -34.5503,25.3815 31.0162,-39.7988 46.7189,-138.9057 73.3296,-150.2414 -2.7905,100.4125 -33.335,201.024 -18.7407,302.3019 24.1487,78.8102 70.7771,-56.664 62.1621,-94.7745 23.6032,-94.8328 -6.5262,-196.3387 31.7711,-288.4981 12.0839,27.2238 38.9732,127.2959 26.3466,41.4329 -14.6279,-64.281 10.4281,-127.4858 29.6337,-187.8587 -2.5652,171.8922 7.76,344.5584 -16.1536,515.3491 -26.0784,83.4688 37.0304,166.0286 12.0025,239.8617 -58.3119,-7.3056 -20.8919,-130.813 -31.5691,-181.8681 -3.1208,-123.1906 12.6712,-247.4813 -4.5406,-369.8841 -37.617,-95.8508 21.5677,161.6564 -3.2885,91.365 3.8461,142.9563 -7.2046,286.0016 -1.1377,428.8497 1.1451,20.4636 -24.9962,60.3869 -46.465,49.8476 z"
       style="fill:#ffff00;fill-opacity:1;stroke-width:1.19841"
       id="path295" />
    <path
       d="m 976.66721,1811.9511 c -57.75394,-44.8144 -44.20406,-130.6626 -50.45579,-196.0609 -3.32934,-59.7657 82.05858,-70.6635 50.1625,0.9347 -15.3297,55.2017 37.57848,139.6819 36.04668,168.8433 -54.6494,-40.19 -40.06823,-139.1201 -54.25043,-178.9022 -17.89539,68.4871 12.26998,155.2211 18.49704,205.1851 z"
       style="fill:#ffff00;fill-opacity:1;stroke-width:1.19841"
       id="path297" />
    <path
       d="m 1104.2138,1579.2877 c -28.5941,-44.182 -24.0421,-168.8302 13.0242,-171.5719 -1.3419,58.5617 -0.098,117.4347 -5.298,175.7174 l -3.1757,0.4902 z"
       style="fill:#ffff00;fill-opacity:1;stroke-width:1.19841"
       id="path299" />
    <path
       d="m 1160.8232,1574.7129 c -20.7234,-79.4654 4.3892,-163.4969 1.067,-244.9946 -2.9553,-51.169 61.508,-114.0657 46.7088,-27.8953 2.0254,91.583 -3.1617,187.7986 -37.9089,272.8649 l -5.3426,2.3789 z m 14.5912,-84.4679 c 33.7194,-44.5541 42.5122,-155.7098 9.1094,-172.4419 -19.3994,46.6673 -34.3215,150.2609 -9.1094,172.4419 z"
       style="fill:#ffff00;fill-opacity:1;stroke-width:1.19841"
       id="path301" />
    <path
       d="M 1222.8485,813.45645 C 1142.4539,733.23376 1083.4055,626.92233 975.58575,578.3769 846.55258,500.11538 689.8221,479.9291 541.96393,498.87421 c -55.41539,-8.41149 -87.09173,51.48884 -119.95055,86.05226 -22.21317,24.41201 -85.5018,140.20738 -45.06489,50.36627 19.22011,-58.37164 69.99497,-121.83681 101.29158,-151.63983 -60.27595,-44.85304 38.93775,-95.65805 48.85768,-68.71111 -44.99763,46.17821 136.25059,23.25239 109.25595,22.26401 52.46649,-6.12846 -112.49499,21.04823 -19.24428,19.47677 96.74685,3.78999 199.03486,0.0481 289.81247,37.09288 125.25621,78.79137 242.91861,177.33495 325.61291,300.99919 6.5851,4.84331 -0.647,33.05766 -9.6863,18.6818 z"
       style="fill:#ffff00;fill-opacity:1;stroke-width:1.19841"
       id="path303" />
    <path
       d="M 1053.3834,472.67531 C 952.33778,453.38371 874.22516,379.92815 776.68471,351.86939 c 49.08607,-29.97764 162.25744,19.48256 223.69609,55.88727 14.6514,5.27639 109.9175,88.54878 53.0026,64.91865 z"
       style="fill:#ffff00;fill-opacity:1;stroke-width:1.19841"
       id="path305" />
    <path
       d="M 1156.4469,522.71077 C 1074.5928,475.90505 1023.1597,382.88436 926.97161,358.3758 c -82.71833,-43.95957 -178.266,-10.96512 -266.06625,-28.56338 73.69869,-39.18163 163.98031,-23.92086 242.71116,-8.90003 109.79878,22.76877 230.49208,88.59304 258.56038,204.04546 z"
       style="fill:#ffff00;fill-opacity:1;stroke-width:1.19841"
       id="path307" />
    <path
       d="m 459.56988,413.20506 c -51.22849,-43.23284 23.34478,-124.3149 51.09034,-108.39082 -42.61374,23.1394 -49.95855,68.971 7.01361,31.21141 105.44775,-61.13217 233.28579,-71.18044 351.35239,-49.12814 -103.96809,-1.78016 -208.37006,15.58375 -306.95967,48.00046 -40.36939,25.23847 108.25686,-14.63003 27.18816,28.27794 -40.92001,20.03299 -86.73928,40.14347 -129.68483,50.02915 z"
       style="fill:#ffff00;fill-opacity:1;stroke-width:1.19841"
       id="path309" />
    <path
       d="M 1253.9054,527.68794 C 1216.4065,455.71211 1140.5349,419.03981 1102.7627,346.92243 1077.1544,308.20412 1036.1351,263.30618 998.64868,289.60264 874.15102,210.83774 717.58241,237.23962 581.07541,263.3971 672.5231,215.95517 779.83181,208.75107 880.84014,210.82777 1049.7091,239.91946 1214.0821,356.85526 1256.073,529.42022 Z"
       style="fill:#ffff00;fill-opacity:1;stroke-width:1.19841"
       id="path311" />
    <path
       d="M 907.77623,434.27207 C 802.11339,402.50089 692.3956,387.07935 582.02597,387.19612 c 40.27061,-33.85768 99.17309,-29.09269 149.17366,-39.57741 65.16637,18.57335 131.68872,47.78776 185.11487,87.17034 z"
       style="fill:#ffff00;fill-opacity:1;stroke-width:1.19841"
       id="path313" />
    <path
       d="m 531.47464,432.85854 c 40.81372,-31.62264 137.22326,-29.91305 198.035,-16.6837 85.96379,17.15806 -108.02643,15.48408 -85.68433,11.95567 -37.48704,0.52681 -74.85506,6.13163 -112.35067,4.72803 z"
       style="fill:#ffff00;fill-opacity:1;stroke-width:1.19841"
       id="path315" />
    <path
       d="m 1125.663,647.19031 c -62.5112,-53.53293 -122.686,-109.62069 -193.02769,-152.80804 33.1624,-40.83733 99.14219,46.30397 132.64759,71.00185 16.6108,18.54216 71.9492,78.24695 60.3801,81.80619 z"
       style="fill:#ffff00;fill-opacity:1;stroke-width:0.599206"
       id="path317" />
    <path
       d="m 1116.7524,567.0897 c -16.1517,-23.61045 -119.93552,-88.37335 -82.0421,-90.70224 35.8831,7.83611 99.9143,61.84723 82.0421,90.70224 z"
       style="fill:#ffff00;fill-opacity:1;stroke-width:0.599206"
       id="path319" />
    <path
       d="m 928.26772,475.91246 c -47.98849,2.41602 -90.44645,-40.24012 -16.98682,-10.16808 -2.06221,-0.0693 39.87354,14.07831 16.98682,10.16808 z"
       style="fill:#ffff00;fill-opacity:1;stroke-width:0.599206"
       id="path321" />
    <path
       d="m 849.47208,463.08156 c -56.95886,-8.43981 -142.83666,-11.32359 -184.25595,-16.92086 57.63241,-4.87617 148.20884,-15.34072 184.25595,16.92086 z"
       style="fill:#ffff00;fill-opacity:1;stroke-width:0.599206"
       id="path323" />
    <path
       d="m 1041.165,515.63809 c -32.8734,-22.75405 -90.16149,-47.59545 -108.9405,-68.68699 37.80016,9.87879 95.7381,49.99535 108.9405,68.68699 z"
       style="fill:#ffff00;fill-opacity:1;stroke-width:0.599206"
       id="path325" />
    <path
       d="m 1108.8213,381.70812 c -28.0561,-15.92393 -112.91107,-128.55727 -43.061,-60.00123 14.1292,15.94695 45.1199,46.79156 43.061,60.00123 z"
       style="fill:#ffff00;fill-opacity:1;stroke-width:0.599206"
       id="path327" />
    <path
       d="m 1163.9171,668.38365 c -18.2581,-26.53241 -67.2007,-119.22986 -71.5444,-101.87911 31.5535,22.37443 69.1674,76.58292 71.5444,101.87911 z"
       style="fill:#ffff00;fill-opacity:1;stroke-width:0.599206"
       id="path329" />
    <path
       d="m 1225.0683,765.47298 c -31.3276,-68.05766 -52.1391,-141.7048 -92.9987,-206.96087 -53.4212,-86.79387 64.3175,-4.49603 60.2733,43.27266 17.4978,49.60721 35.6168,119.94589 32.7254,163.68821 z"
       style="fill:#ffff00;fill-opacity:1;stroke-width:0.599206"
       id="path331" />
    <path
       d="m 482.06868,342.07562 c 48.17388,-67.12696 138.96864,-69.74885 213.85996,-73.47068 -75.58274,10.49051 -145.17256,47.0437 -213.85996,73.47068 z"
       style="fill:#ffff00;fill-opacity:1;stroke-width:0.847406"
       id="path333" />
    <path
       d="m 605.88268,359.60149 c 1.09016,-28.5249 133.1008,-19.09244 44.17027,-6.43316 -13.10664,-1.56947 -33.26522,14.63288 -44.17027,6.43316 z"
       style="fill:#ffff00;fill-opacity:1;stroke-width:0.847406"
       id="path335" />
    <path
       d="m 541.27709,286.34355 c 107.63261,-37.22885 226.06539,-48.9206 338.49184,-32.02739 33.34435,5.66837 77.42632,25.03183 15.33814,15.29324 -117.81136,-8.79 -239.72395,-23.11324 -353.82998,16.73415 z"
       style="fill:#ffff00;fill-opacity:1;stroke-width:0.847406"
       id="path337" />
    <path
       d="m 1028.0105,352.2874 c -69.48319,-33.64198 -145.14269,-49.22972 -221.40676,-56.42064 78.84212,-2.7262 160.59294,16.44295 227.84826,58.83437 z"
       style="fill:#ffff00;fill-opacity:1;stroke-width:0.299603"
       id="path339" />
    <path
       d="m 1043.7397,341.26954 c -38.8924,-16.56005 -137.52946,-63.15491 -44.7119,-30.77796 12.3569,2.69898 56.7514,27.88042 44.7119,30.77796 z"
       style="fill:#ffff00;fill-opacity:1;stroke-width:0.299603"
       id="path341" />
    <path
       d="m 537.253,413.32619 c 11.95179,-32.79107 141.7955,-14.10326 45.03114,-9.66962 -15.42625,1.35763 -30.02758,6.46705 -45.03114,9.66962 z"
       style="fill:#ffff00;fill-opacity:1;stroke-width:0.423703"
       id="path343" />
    <path
       d="m 573.99055,336.57572 c 31.26857,-16.46749 121.25482,-18.70904 37.82636,-2.9139 -12.45576,2.96967 -25.26295,1.22978 -37.82636,2.9139 z"
       style="fill:#ffff00;fill-opacity:1;stroke-width:0.423703"
       id="path345" />
    <path
       d="M 161.1624,953.17074 C 147.24309,904.7438 175.55005,873.33397 165.58374,830.046 159.50273,751.94114 200.30831,678.29112 215.27899,602.3477 250.4113,501.64442 310.2923,397.52557 410.37867,350.36287 c -24.77741,28.04643 -110.64602,140.91091 -39.84849,56.19404 12.55512,-43.44186 91.35283,-72.19727 65.18421,-2.69643 -39.87914,11.13289 -109.77516,84.49026 -141.57043,146.95768 -15.79512,25.10011 -47.82785,75.5643 -16.4555,15.59779 14.81916,-46.99691 119.36414,-160.21462 101.45017,-146.8263 -31.23936,25.95227 -102.04768,118.03659 -85.86696,103.50006 18.44595,-29.74498 43.73633,-124.8185 8.49987,-43.72173 -45.73627,98.63634 -102.06239,196.77351 -116.95051,306.18238 -4.64181,55.58544 6.63754,118.14819 -23.65863,167.62038 z"
       style="fill:#ffff00;fill-opacity:1;stroke-width:0.599206"
       id="path347" />
    <path
       d="M 326.15868,714.21817 C 309.33582,660.32235 423.427,509.41222 415.62962,544.76468 378.96464,597.61872 369.26413,665.40511 326.15868,714.21817 Z"
       style="fill:#ffff00;fill-opacity:1;stroke-width:0.599206"
       id="path349" />
    <path
       d="m 201.75315,841.25805 c -9.08787,-30.00512 -0.36327,-156.83853 27.18699,-120.05439 -3.06165,39.34311 -22.45982,86.69171 -27.18699,120.05439 z"
       style="fill:#ffff00;fill-opacity:1;stroke-width:0.599206"
       id="path351" />
    <path
       d="m 257.969,826.48072 c 0.0873,-32.97216 72.18221,-175.72788 62.69747,-136.92673 -10.20277,48.50478 -40.07042,95.86837 -62.69747,136.92673 z"
       style="fill:#ffff00;fill-opacity:1;stroke-width:0.599206"
       id="path353" />
    <path
       d="m 249.79124,1546.0976 c -11.16058,-174.556 1.09371,-349.9178 -8.33886,-524.346 -15.10742,-22.59762 1.20262,181.8416 -15.14852,84.3197 0.32102,-54.6042 -6.13887,-111.82957 5.79038,-165.04088 27.10242,-70.47099 47.64662,-144.64211 85.09989,-210.30288 15.66732,29.36506 -47.26257,122.32182 -16.28419,112.55803 17.92099,-28.10312 28.97984,-53.6327 22.02047,-1.08059 -21.94168,42.86647 -90.63482,60.72413 -68.86845,127.88865 2.76354,83.44177 25.91195,165.78467 21.47305,250.31787 -6.21849,78.6152 -3.07156,157.3074 20.48737,233.4701 14.45856,80.6768 -33.70665,-125.106 -20.45244,-78.5192 -43.21709,-93.3425 20.48423,117.0708 22.41714,158.955 12.14864,24.6199 -37.18953,8.1947 -48.19584,11.7802 z"
       style="fill:#ffff00;fill-opacity:1;stroke-width:0.599206"
       id="path355" />
    <path
       d="M 140.64681,734.0074 C 156.8392,615.74485 200.4323,491.80913 295.9025,414.34659 208.33643,500.0074 183.13074,624.51421 142.14838,735.30231 Z"
       style="fill:#ffff00;fill-opacity:1;stroke-width:0.599206"
       id="path357" />
    <path
       d="M 143.15983,863.90115 C 121.98038,787.46219 158.86084,727.60254 176.85364,654.62987 210.03288,552.76438 251.7854,441.91197 342.56392,378.58788 428.34998,333.6 298.0948,418.08163 286.82613,450.91539 209.15404,552.66931 185.4655,680.93897 153.15686,801.71588 c -4.56722,19.95625 -5.58375,45.70196 -9.99703,62.18527 z"
       style="fill:#ffff00;fill-opacity:1;stroke-width:0.599206"
       id="path359" />
    <path
       d="M 280.85031,583.07212 C 315.74943,522.92709 354.52127,463.2941 406.59013,416.56369 376.10158,479.59891 318.52605,524.47798 280.85031,583.07212 Z"
       style="fill:#ffff00;fill-opacity:1;stroke-width:0.599206"
       id="path361" />
    <path
       d="m 203.42639,1313.1576 c -47.43279,-74.8165 -31.95663,-170.5158 -33.7752,-255.2062 -1.41936,-52.4809 11.03197,-104.2528 25.71126,-154.14491 3.03115,78.9016 -19.74686,162.00851 14.25809,236.99761 4.53173,54.5793 5.21513,127.137 -6.19415,172.3535 z"
       style="fill:#ffff00;fill-opacity:1;stroke-width:0.599206"
       id="path363" />
    <path
       d="m 149.86428,1353.2346 c -29.69471,-109.236 -26.67819,-224.7741 -19.37337,-336.616 19.95834,39.0856 14.9232,147.6237 24.31974,211.8149 0.38611,40.6491 6.79177,87.452 -4.94637,124.8011 z"
       style="fill:#ffff00;fill-opacity:1;stroke-width:0.599206"
       id="path365" />
    <path
       d="m 195.96457,1563.2524 c -17.55858,-78.1959 -0.2647,-161.5378 -21.67802,-236.6266 -4.31208,-81.117 53.24244,49.5654 36.11321,78.6342 -0.42794,51.2248 -5.10147,115.5967 -14.43519,157.9924 z"
       style="fill:#ffff00;fill-opacity:1;stroke-width:0.599206"
       id="path367" />
    <path
       d="m 344.83159,1673.8485 c -23.31795,-98.3441 -18.22788,-203.1057 -55.10464,-298.9243 -11.47814,-121.9878 5.14422,-246.5852 -25.04597,-366.5909 23.33038,27.264 34.64927,91.9456 38.85278,137.3666 3.09544,41.3972 -8.79106,174.3937 -8.98684,165.971 1.65349,-45.2285 36.1061,-83.375 18.87164,-17.3362 -8.49615,83.0879 45.60627,154.8901 59.50407,234.2859 33.32338,49.8637 -15.6446,103.7005 -28.09104,145.2279 z"
       style="fill:#ffff00;fill-opacity:1;stroke-width:0.599206"
       id="path369" />
    <path
       d="m 526.16614,1745.0568 c -6.54654,-37.5954 -31.71148,-47.263 -17.77541,-57.0554 0.70225,-33.4518 -5.08731,-97.1909 20.94209,-38.3411 50.38706,-39.155 -50.20831,-142.554 -28.0609,-43.0008 -3.66285,117.2756 -25.72829,-117.1202 -38.59035,-24.2601 -28.28064,-31.6307 -48.93617,-139.5578 -47.31333,-119.3028 -34.68426,-17.2415 -79.21963,-98.1564 -41.53862,-16.8974 48.5476,66.8778 85.51446,144.0746 75.18073,229.1008 -30.65261,94.5779 -48.26913,-86.1301 -58.21563,-119.0061 -15.74542,-76.4069 -47.17328,-148.0623 -69.22163,-222.5281 -14.22127,-31.4764 14.88041,-104.167 22.69535,-31.1901 4.86859,27.9009 -1.95665,126.4774 12.58431,45.0302 -4.35366,-98.1351 25.15139,122.5751 23.4748,24.1691 19.59758,26.5766 58.77854,81.7038 74.2948,99.1939 -75.70376,-50.9618 31.65859,49.9654 59.45017,58.6467 73.6043,35.7851 88.07094,140.6841 27.31245,194.9455 -6.67405,-7.6652 -11.89727,30.203 -15.21883,20.4957 z"
       style="fill:#ffff00;fill-opacity:1;stroke-width:0.599206"
       id="path371" />
    <path
       d="m 418.19087,1798.1136 c -8.18731,-24.191 -24.6159,-82.232 -37.13494,-43.8918 8.19056,-51.0444 -43.53291,38.255 -33.17101,-25.294 -5.03801,-38.6361 30.80423,-173.0301 48.43517,-74.8589 -6.94926,46.7788 38.94148,110.5979 21.87078,144.0447 z"
       style="fill:#ffff00;fill-opacity:1;stroke-width:0.599206"
       id="path373" />
    <path
       d="m 256.16558,1668.6851 c 12.72557,-35.4298 -38.0223,-132.8043 23.03583,-121.7887 42.54418,-13.269 21.94364,103.2684 -6.13918,62.7174 -11.12178,16.3705 -7.4321,48.7958 -16.89665,59.0713 z"
       style="fill:#ffff00;fill-opacity:1;stroke-width:0.599206"
       id="path375" />
    <path
       d="m 213.93923,1808.8994 c -32.58747,-28.7156 -35.84325,-61.758 -27.17478,-109.9353 -10.0893,24.7598 -32.71422,114.1485 -25.23894,42.6942 15.66684,-36.0374 27.46783,-157.3851 71.50769,-70.9412 5.28916,43.7569 -13.1786,103.7673 -19.09397,138.1823 z"
       style="fill:#ffff00;fill-opacity:1;stroke-width:0.599206"
       id="path377" />
    <path
       d="m 229.20687,1616.5844 c -21.7589,-87.2217 -8.23057,-177.1294 -9.87587,-265.7507 -1.12438,36.3424 13.99025,87.2789 11.88828,22.5924 6.60868,-67.3671 -26.58765,-144.8876 -0.54169,-205.332 10.82247,69.051 2.64292,153.3624 5.52774,228.3396 -0.0752,74.4238 0.89699,148.9393 -4.89031,223.186 z"
       style="fill:#ffff00;fill-opacity:1;stroke-width:0.599206"
       id="path379" />
    <path
       d="m 262.91752,1714.6869 c -4.04739,-29.6458 18.948,-136.9565 20.23778,-50.7395 -0.80702,18.3534 -10.19123,37.4527 -20.23778,50.7395 z"
       style="fill:#ffff00;fill-opacity:1;stroke-width:0.599206"
       id="path381" />
    <path
       d="m 307.43128,1733.0998 c -18.39774,-34.0083 -2.71749,-182.1196 5.92742,-73.3469 2.12213,21.2038 -5.00553,66.2767 -5.92742,73.3469 z"
       style="fill:#ffff00;fill-opacity:1;stroke-width:0.599206"
       id="path383" />
    <path
       d="m 278.36543,1729.1511 c -10.42968,-49.6243 24.42271,-63.96 14.89004,-6.4808 -4.26571,3.202 -8.82671,10.3287 -14.89004,6.4808 z"
       style="fill:#ffff00;fill-opacity:1;stroke-width:0.599206"
       id="path385" />
    <path
       d="m 292.02455,1852.8981 c -34.47655,-31.849 -31.6621,-180.029 7.48892,-72.7478 5.61741,20.8022 14.76252,64.4022 -7.48892,72.7478 z"
       style="fill:#ffff00;fill-opacity:1;stroke-width:0.599206"
       id="path387" />
    <path
       d="m 473.21417,1765.3423 c -18.47126,-49.2248 -10.64965,-116.2795 -6.80458,-164.3741 -1.15879,46.0772 57.00475,142.904 6.80458,164.3741 z"
       style="fill:#ffff00;fill-opacity:1;stroke-width:0.599206"
       id="path389" />
    <path
       d="m 461.89694,1834.546 c -11.60259,-24.8704 -17.47299,-110.3276 9.99094,-43.1875 3.60673,11.1633 4.37023,42.2341 -9.99094,43.1875 z"
       style="fill:#ffff00;fill-opacity:1;stroke-width:0.599206"
       id="path391" />
    <path
       d="m 515.48778,1826.089 c -32.12395,-21.4704 -6.15101,-148.0971 3.60394,-52.2333 2.56702,10.2414 20.86223,55.3952 -3.60394,52.2333 z"
       style="fill:#ffff00;fill-opacity:1;stroke-width:0.599206"
       id="path393" />
    <path
       d="m 530.00798,1785.1469 c -2.86423,-24.5431 31.42634,-115.2737 24.83083,-38.0877 -2.95543,12.3489 -7.03001,40.4018 -24.83083,38.0877 z"
       style="fill:#ffff00;fill-opacity:1;stroke-width:0.599206"
       id="path395" />
    <path
       d="m 550.11524,1789.4751 c 9.25128,-74.8696 35.13745,-27.7018 0,0 z"
       style="fill:#ffff00;fill-opacity:1;stroke-width:0.599206"
       id="path397" />
    <path
       d="m 530.36166,1641.8309 c -16.10817,-34.7938 -10.8859,-73.7648 4.70236,-14.9405 2.61346,1.5814 -1.48889,20.1958 -4.70236,14.9405 z"
       style="fill:#ffff00;fill-opacity:1;stroke-width:0.599206"
       id="path399" />
    <path
       id="path401"
       d=""
       style="fill:#ffff00;fill-opacity:1;stroke-width:0.599206" />
    <path
       d="m 164.88958,1463.3071 c -15.62713,-49.7143 -0.40778,-64.5289 0,0 z"
       style="fill:#ffff00;fill-opacity:1;stroke-width:0.599206"
       id="path403" />
    <path
       d="m 157.09493,1002.3046 c 0.48071,-47.93607 19.92453,-61.45076 5.94248,-4.6119 1.1035,1.64627 -4.07408,9.4268 -5.94248,4.6119 z"
       style="fill:#ffff00;fill-opacity:1;stroke-width:0.847406"
       id="path405" />
    <path
       d="m 157.98859,1134.4442 c -9.52687,-34.1739 -5.79396,-174.43891 3.58401,-69.6528 -0.7013,23.1725 -2.37415,46.6593 -3.58401,69.6528 z"
       style="fill:#ffff00;fill-opacity:1;stroke-width:0.847406"
       id="path407" />
    <path
       d="m 211.56697,886.78985 c -2.61725,-40.83045 21.85401,-97.71476 9.61287,-25.62617 0.0956,5.30186 -12.01128,67.77159 -9.61287,25.62617 z"
       style="fill:#ffff00;fill-opacity:1;stroke-width:0.847406"
       id="path409" />
    <path
       d="m 265.1596,713.91908 c 14.94839,-34.42066 108.81432,-122.48019 43.23327,-46.65185 -14.63181,12.57476 -24.1424,46.67837 -43.23327,46.65185 z"
       style="fill:#ffff00;fill-opacity:1;stroke-width:0.847406"
       id="path411" />
    <path
       d="m 241.018,842.81454 c 3.09478,-32.12448 9.94345,-108.20369 34.10674,-116.0811 -17.02548,32.98959 -30.22702,95.92819 -34.10674,116.0811 z"
       style="fill:#ffff00;fill-opacity:1;stroke-width:0.847406"
       id="path413" />
    <path
       d="m 266.73049,767.9412 c 3.24487,-33.62216 78.25742,-154.61093 33.71814,-64.76299 -10.35309,19.62508 -24.43522,51.46681 -33.71814,64.76299 z"
       style="fill:#ffff00;fill-opacity:1;stroke-width:0.847406"
       id="path415" />
    <path
       d="m 396.92553,1872.9672 c -9.72439,-31.575 -9.27127,-153.5436 17.0444,-61.0831 6.59455,21.485 0.97598,48.2952 -17.0444,61.0831 z"
       style="fill:#ffff00;fill-opacity:1;stroke-width:1.19841"
       id="path417" />
    <path
       d="m 347.65906,1849.5535 c -23.46477,-49.8651 46.03126,-84.7306 16.65313,-16.474 -2.83663,2.5383 -9.40132,26.1117 -16.65313,16.474 z"
       style="fill:#ffff00;fill-opacity:1;stroke-width:1.19841"
       id="path419" />
    <path
       d="m 185.716,1861.391 c -6.3395,-28.495 3.21213,-96.1893 22.06927,-33.4313 3.70316,12.3052 -10.26121,34.3185 -22.06927,33.4313 z"
       style="fill:#ffff00;fill-opacity:1;stroke-width:1.19841"
       id="path421" />
    <path
       d="m 1276.2305,641.67883 c -37.2106,-45.278 -86.7385,-150.48454 -89.1793,-177.34162 54.6613,45.52701 85.9087,114.82609 96.2898,184.26514 z"
       style="fill:#ffff00;fill-opacity:1;stroke-width:1.19841"
       id="path423" />
    <path
       d="m 1260.2147,826.55229 c -5.3252,-68.67216 -30.5596,-140.24864 -43.4458,-210.62558 -9.5492,-85.71384 53.456,189.79641 35.0414,100.00975 8.6627,31.09129 24.3654,87.74299 8.4044,110.61583 z"
       style="fill:#ffff00;fill-opacity:1;stroke-width:1.19841"
       id="path425" />
    <path
       d="m 1235.7781,1140.2255 c -29.6461,-85.5994 12.8269,-168.698 39.5109,-248.42116 7.3076,-37.44014 21.0688,-77.39718 9.4435,-15.71346 11.9958,36.80716 -13.4949,123.4978 -25.5457,190.94342 -6.6485,-29.2904 -6.2458,-134.17979 -18.4794,-49.2527 -4.1171,29.0729 2.5221,134.3884 -4.9293,122.4439 z"
       style="fill:#ffff00;fill-opacity:1;stroke-width:1.19841"
       id="path427" />
    <path
       d="m 1269.546,1073.3045 c 3.832,-32.5051 15.7995,-107.40592 25.5262,-120.49672 -1.0105,26.09397 -14.086,133.17292 -25.5262,120.49672 z"
       style="fill:#ffff00;fill-opacity:1;stroke-width:1.19841"
       id="path429" />
    <path
       d="m 989.95529,1542.209 c 14.97591,-26.1203 109.08391,-120.5134 65.49381,-44.9625 -17.356,21.1549 -45.0473,30.8496 -65.49381,44.9625 z"
       style="fill:#ffff00;fill-opacity:1;stroke-width:1.19841"
       id="path431" />
    <path
       d="m 1288.6611,801.92959 c -11.1828,-33.98915 17.7384,-106.52854 17.113,-28.30877 1.1045,8.8247 -0.9702,37.74849 -17.113,28.30877 z"
       style="fill:#ffff00;fill-opacity:1;stroke-width:1.19841"
       id="path433" />
    <path
       d="m 1281.3844,721.88844 c -1.2856,-25.8371 -27.4683,-106.00807 4.4217,-35.49166 5.7569,14.49499 -1.7846,93.23948 -4.4217,35.49166 z"
       style="fill:#ffff00;fill-opacity:1;stroke-width:1.19841"
       id="path435" />
    <path
       d="m 766.33055,1416.1196 c -33.4597,-0.1861 -153.75424,-15.1244 -68.49846,-45.5272 68.74061,16.2534 120.48129,-18.5261 175.7564,34.9897 -32.4534,17.3964 -71.95714,9.8245 -107.25794,10.5375 z"
       style="fill:#d40000;fill-opacity:1;stroke-width:1.19841"
       id="path464" />
    <path
       d="m 761.69841,1450.7526 c -40.55985,-3.0783 -123.22761,-47.5103 -35.10181,-29.2228 49.78267,8.2181 115.2505,9.507 152.84688,-10.6734 -32.62184,27.8784 -74.11713,46.5014 -117.74507,39.8962 z"
       style="fill:#d40000;fill-opacity:1;stroke-width:1.19841"
       id="path466" />
  </g>
</svg>
