<?xml version="1.0" encoding="UTF-8" standalone="no"?>
<svg
   xmlns:dc="http://purl.org/dc/elements/1.1/"
   xmlns:cc="http://creativecommons.org/ns#"
   xmlns:rdf="http://www.w3.org/1999/02/22-rdf-syntax-ns#"
   xmlns:svg="http://www.w3.org/2000/svg"
   xmlns="http://www.w3.org/2000/svg"
   xmlns:sodipodi="http://sodipodi.sourceforge.net/DTD/sodipodi-0.dtd"
   xmlns:inkscape="http://www.inkscape.org/namespaces/inkscape"
   inkscape:version="1.0 (4035a4fb49, 2020-05-01)"
   sodipodi:docname="seer shot.svg"
   viewBox="0 0 592.6778 826.02164"
   height="8.6043921in"
   width="6.173727in"
   id="svg10"
   version="1.1">
  <metadata
     id="metadata16">
    <rdf:RDF>
      <cc:Work
         rdf:about="">
        <dc:format>image/svg+xml</dc:format>
        <dc:type
           rdf:resource="http://purl.org/dc/dcmitype/StillImage" />
        <dc:title></dc:title>
      </cc:Work>
    </rdf:RDF>
  </metadata>
  <defs
     id="defs14" />
  <sodipodi:namedview
     fit-margin-bottom="0"
     fit-margin-right="0"
     fit-margin-left="0"
     fit-margin-top="0"
     inkscape:current-layer="g18"
     inkscape:window-maximized="1"
     inkscape:window-y="-11"
     inkscape:window-x="-11"
     inkscape:cy="733.89772"
     inkscape:cx="305.37461"
     inkscape:zoom="0.78671481"
     units="in"
     inkscape:pagecheckerboard="true"
     showgrid="false"
     id="namedview12"
     inkscape:window-height="1826"
     inkscape:window-width="1080"
     inkscape:pageshadow="2"
     inkscape:pageopacity="0"
     guidetolerance="10"
     gridtolerance="10"
     objecttolerance="10"
     borderopacity="1"
     bordercolor="#666666"
     pagecolor="#ffffff"
     inkscape:document-rotation="0" />
  <g
     transform="translate(-114.83553,-137.63713)"
     id="g18"
     inkscape:label="Image"
     inkscape:groupmode="layer">
    <path
       id="path22"
       style="fill:#000000;stroke-width:0.660554"
       d="m 280.69883,957.41998 c -1.87576,-13.81868 -7.21798,-33.04953 -12.73063,-29.3128 -13.25199,-1.55653 16.53146,-4.97953 7.03154,-25.30256 -1.80956,-40.54176 -6.44352,-81.29133 -15.16182,-120.86694 -4.39142,-31.98857 -25.4622,-49.70718 -37.04311,-78.29774 -12.20502,-30.81056 -34.2551,-58.05988 -31.7317,-93.38753 3.2323,-38.2329 -12.75026,-75.79091 -2.1928,-113.67066 6.25963,-29.16799 21.43995,-56.74106 25.21311,-87.73393 1.23897,-38.03347 34.37079,-56.69219 56.13987,-82.04787 7.12353,-31.74217 42.07076,-47.71959 70.30828,-57.78903 19.72051,-6.90997 41.76273,-2.15574 60.29724,5.78357 16.43006,3.00748 36.62987,8.20155 42.5322,10.99176 17.78478,7.09721 16.20892,-12.06354 16.22537,6.17844 32.26011,9.55446 61.7305,24.09441 88.43756,45.00807 26.7011,16.53832 54.69162,36.21243 67.78608,66.97912 9.10937,10.70323 16.71243,45.4658 21.44223,32.28529 -2.73867,19.95462 18.92309,42.99616 4.49836,43.71265 -2.09784,15.7135 2.22084,33.06352 -4.88568,41.89276 -9.72807,35.37391 -17.08001,73.13917 -24.49398,109.6758 -9.08484,33.92768 -26.60172,64.37279 -38.57944,96.984 -7.86369,39.24489 -7.75502,84.67327 -0.90882,125.9278 3.44824,30.70451 3.09553,61.65602 5.59363,92.4288 -13.07871,-10.77998 -3.4777,-59.67935 -9.65279,-84.3515 -6.35896,-41.32605 -7.31043,-83.68103 -1.10882,-125.0996 -19.696,20.7051 -55.92857,28.16422 -71.1603,49.7214 1.45939,29.92937 -5.9363,63.86056 13.90661,89.15666 -3.01902,24.82285 29.26998,45.47428 38.69156,57.63483 -28.90436,-9.85438 -58.92929,9.4362 -88.31112,0.59011 -30.54482,-5.58758 -60.77986,-10.88288 -92.75869,-6.01263 -28.25119,-8.92113 -57.09465,2.04987 -86.41144,0.31758 -5.92316,5.05315 9.35405,27.72667 -0.9725,28.60415 z m 205.83761,-23.7483 c 12.53541,-6.95166 49.49696,-2.92063 41.61708,-11.4459 -21.61819,-25.55647 -35.76695,-58.84772 -37.85853,-92.48993 0.64784,-16.55758 -6.91983,-46.06234 -4.77368,-45.60137 -12.53087,1.09744 -49.36366,14.72771 -70.81991,16.36596 -31.65648,8.18879 -55.71409,-6.48659 -83.35996,-19.47049 -24.63686,-4.57056 17.31885,35.78347 29.97541,38.47143 17.52817,19.1704 -32.23119,-12.36353 -37.83114,-21.9854 -5.75101,26.82807 37.36679,43.31529 40.52599,50.6746 -19.26068,0.15833 -51.54017,-35.98431 -37.13542,-17.7226 -0.82085,19.88328 57.92481,44.0086 15.17308,28.6425 -14.48064,-12.46184 -26.1821,-31.84438 -15.65035,-1.4993 6.9526,21.09258 59.18378,49.55899 14.76948,31.50403 -19.11792,5.00849 -28.13857,-29.33292 -6.28691,-5.55353 10.46372,9.47922 -19.83283,-41.67803 -16.86886,-10.49513 -0.28119,19.95294 -43.32156,41.23243 -33.04488,51.44603 29.24932,1.89667 58.27921,-8.63508 86.5578,0.18285 32.81225,-5.09018 63.59524,1.3679 95.18396,5.55458 6.28109,2.33157 12.78336,7.44087 19.82684,3.42167 z m -165.79311,-15.8985 c -18.59766,3.10674 -31.50566,-25.55106 -9.78995,-7.20913 8.28655,1.77353 32.5764,7.03727 9.78995,7.20913 z m 10.15932,-6.2707 c -23.92741,-1.07281 -22.85167,-42.68882 -8.26402,-9.4951 5.73187,4.92603 28.82759,8.84215 8.26402,9.4951 z m 8.47376,-4.52 c -19.06648,0.75374 -33.25885,-41.07833 -11.5333,-13.0255 1.9917,7.59001 34.33061,11.52014 11.5333,13.0255 z m -43.5462,-3.6919 c 12.56542,-12.49192 24.99625,-39.21243 4.75628,-11.34001 -14.34083,7.50904 24.05419,-26.35202 15.79448,-41.9621 -2.21599,-24.97887 12.9442,-70.59124 -14.43952,-81.37153 -16.17166,-8.51307 -44.09082,-37.49314 -53.31156,-36.42531 22.47977,53.04834 27.53805,111.00403 31.07854,167.90702 -0.60829,24.71862 -0.77849,19.69716 16.12178,3.19193 z m 122.26555,-109.2987 c 18.26443,-1.86639 68.92761,-9.93864 67.10983,-15.4727 -28.10551,9.34384 34.11877,-19.29858 39.94275,-32.40876 26.99462,-24.34835 45.59272,-55.76484 64.57199,-86.18035 8.5461,-23.48267 17.50431,-13.75277 20.17728,-42.68374 -2.79884,-8.80545 10.0175,-50.40383 14.23641,-76.22826 6.26799,-12.23348 4.60594,-39.68169 3.85389,-44.82075 -0.6005,14.50432 -13.22593,50.56237 -7.35954,16.73806 10.69578,-35.22334 13.79122,-74.05409 -8.8062,-105.20401 -13.86419,-26.79803 -34.67123,-52.13616 -64.25589,-62.0774 -10.64351,9.6217 -44.80168,31.9677 -15.12411,10.18684 33.27064,-12.13813 -26.51543,-52.47764 -35.60634,-27.44871 -15.02863,11.67231 -26.09001,15.86431 -2.76725,24.3068 14.06695,-9.29056 26.66141,-20.72453 6.91518,-2.25952 -8.65007,12.14216 53.88838,26.51587 12.60661,35.08911 -18.96299,14.28609 -62.8162,14.31284 -54.5842,38.50164 -5.47993,-24.4407 -37.39288,-9.11427 -34.20791,8.49494 1.05069,-29.62359 -24.68099,-5.03185 -21.96935,3.75036 8.57322,-20.18981 -54.8454,-19.95483 -41.18054,-13.58834 -1.84924,22.50628 -9.68587,-40.61607 -25.23196,-12.67711 -7.47729,6.97018 7.35905,-19.44996 -15.68321,-16.85456 -7.60146,-3.12627 -14.46836,29.31261 -9.19067,3.20635 -0.95575,-22.87499 -18.75029,-3.01216 -21.22956,7.92908 15.93384,-19.73879 -4.99107,-24.27033 -12.9482,-33.16042 21.00496,-11.69192 -8.60997,-38.56588 -5.92135,-40.75872 -27.62073,21.24276 -55.81105,47.71 -51.56017,86.18934 3.60814,17.8471 -22.71438,64.79426 -4.92246,64.57277 21.89594,-31.78259 55.80121,-57.31316 94.84555,-61.17957 36.94479,-2.50411 59.76379,32.59691 77.99677,60.19362 16.21339,26.72601 17.04401,62.25072 6.2454,90.67881 -2.87492,5.63096 -21.71988,24.06959 -11.11953,9.24657 -39.95539,-6.0659 -32.69852,66.31657 1.27574,42.52762 -24.67458,-13.49491 20.91004,-31.76204 14.60012,0.42718 26.17244,25.27186 40.95593,-35.10468 56.19956,-11.07679 -26.70367,16.96458 48.3774,15.1097 26.51248,-13.23025 2.09439,-32.33181 -38.55367,-16.92478 -45.17067,-21.61263 -11.33695,-23.27319 -7.53414,-51.1053 -7.50666,-76.42834 7.43155,-37.32023 32.90652,-71.66855 70.84602,-81.63752 33.6933,-10.39237 72.84827,-16.64501 104.77332,2.29154 -26.93454,-2.98043 -59.02859,-13.37924 -89.08982,-3.0983 -27.39736,-0.49831 -69.46067,31.38278 -67.45234,45.00666 22.71028,-22.56703 -23.48796,25.26263 -13.20613,43.10681 3.51745,16.56711 -8.77758,76.16744 21.26877,64.3542 38.71371,-6.31243 43.40762,67.19109 0.33471,57.22195 -23.64241,-13.3781 -44.41133,23.58519 -65.87623,-3.69496 -34.0842,32.20604 -64.24107,-31.57349 -24.64293,-44.8273 30.12916,4.96387 29.52663,-33.86961 26.53573,-47.63144 6.15631,-27.35537 -11.45004,-51.296 -26.70667,-73.5347 -18.44473,-34.69739 -61.92462,-35.37525 -94.85877,-23.84379 -43.71307,17.12116 50.30782,-11.15181 3.79457,4.17646 -25.78993,6.80561 -58.07383,31.42282 -54.78099,58.57697 9.17627,12.63154 25.7348,45.80005 2.90006,16.5613 -25.46437,-35.78002 34.18213,56.444 3.06029,20.1056 -10.48342,-9.71764 -22.96248,-48.48359 -23.10144,-45.5417 -0.88824,6.95143 11.07671,32.3075 -2.39642,16.30296 2.93192,20.20786 37.39332,51.32784 31.08367,58.859 -11.87027,-6.8287 -35.6739,-51.11581 -31.7608,-41.40598 2.32166,20.88891 34.40245,51.31164 29.50963,64.34348 -11.04752,-9.59114 -26.44992,-42.09826 -15.96093,-10.4648 4.30981,18.20806 -11.463,-12.48376 0.91207,13.07285 12.00995,18.90641 19.33038,29.82559 5.22101,28.60915 4.36985,13.44754 15.56673,28.17116 1.77532,22.49566 14.19587,18.63807 2.10606,18.59358 -7.26373,6.90164 6.0348,17.76939 22.72807,54.49305 25.75223,39.1668 -1.62154,15.22855 17.60482,31.73473 31.40305,44.4507 17.02969,22.45437 39.79432,34.65428 60.53311,44.83449 27.12749,14.29608 55.60582,23.62778 86.64985,18.55411 z m 59.37838,-18.4882 c 2.23147,-2.54138 3.29625,-1.82909 0,0 z m -64.73664,-42.618 c 13.08779,-17.79336 -29.49956,-14.94462 -29.19767,-5.3371 -7.74031,-28.05654 -41.79984,14.72989 -13.0515,-14.5372 -21.66662,-17.63098 -27.6591,-6.22679 -40.09842,-29.4864 -17.52568,12.07236 -18.25592,13.10856 -2.11968,-1.8503 -14.51602,-19.71119 -46.4184,18.32406 -17.83075,-9.27183 15.20091,-5.54901 23.56351,14.1426 26.62751,-4.1897 3.45802,15.66365 28.24084,-4.23559 2.64832,10.42273 4.68133,13.66974 35.77025,41.2406 36.0056,17.9325 -1.28144,25.02328 35.29813,-18.97636 7.59639,8.49391 -10.46766,17.88748 52.66291,18.93242 32.44479,-0.39101 11.25046,16.83386 24.82859,-27.80404 12.52905,4.0301 -1.54284,16.09122 48.4014,-2.82624 38.23644,-17.1129 8.28971,9.12667 20.56781,-26.10519 9.85506,5.239 16.63476,-2.59437 31.44815,-22.59711 29.07015,-35.24686 4.20897,18.80312 11.64177,-27.81428 9.35607,-1.83444 -8.13001,14.72113 42.32681,-8.49249 30.65783,13.26427 -19.14084,-19.41513 -40.19217,2.24091 -32.1453,16.78478 -7.76303,-18.45035 -24.44191,33.30779 -10.70166,-4.22181 5.78815,-18.45104 -36.17131,25.36435 -16.95719,21.11796 8.17621,16.24727 -21.22853,-5.11819 -19.4354,7.6026 11.58986,-23.29964 -25.23622,7.00597 -34.86272,4.9861 7.56754,30.76613 -7.98666,-19.84397 -18.62692,13.6056 z m -10.22157,-152.0722 c 14.07512,-11.19861 34.30358,-2.13837 7.52517,-0.92396 1.13509,-3.03299 -12.12551,5.74107 -7.52517,0.92396 z m 2.67683,-5.7584 c 21.6004,-9.38931 -9.36801,-6.08317 17.29728,-10.43955 13.36105,0.99619 -26.27238,15.16727 -17.29728,10.43955 z m -73.54642,-10.3538 c 10.70083,-16.03742 38.78546,-45.71363 5.81557,-21.0999 -23.34504,23.06963 -42.35573,-2.68643 -65.33827,-8.6131 23.28577,-5.53237 49.20093,31.05102 73.71074,1.96673 21.68829,-30.86931 15.92785,8.2398 7.69645,26.20767 6.81235,-38.92914 -5.7414,-13.56893 -21.88449,1.5386 z m 190.16607,-24.219 c -21.02679,-4.62899 -44.81827,-25.5601 -49.51315,-0.67008 -5.08944,-13.43695 -4.47782,-41.19979 19.02722,-21.69843 16.31068,1.11999 59.44419,17.78936 18.77791,9.75636 -12.44641,-3.17581 -51.31026,-17.07594 -19.06011,-2.67633 3.25179,3.02875 47.40736,9.6869 30.76813,15.28848 z m -212.95958,-11.6623 c -20.87916,-2.9127 -45.885,-36.72108 -55.88395,-14.0312 28.44585,-18.54671 -5.96747,-16.13623 -11.44275,-12.125 39.03369,1.83907 -34.97436,-30.6566 -1.39627,-19.39639 30.8789,33.02834 64.30282,-34.89829 96.82134,-3.85701 23.59526,11.92795 37.39054,29.97359 6.11934,41.69182 -10.67315,4.38742 -22.0729,13.81228 -34.21771,7.71778 z m 18.96427,-3.7108 c 17.22308,-6.96983 45.41445,-20.76434 15.07298,-35.03375 -16.82411,-17.59752 -43.03453,-16.79162 -61.20915,0.51686 -33.78743,10.30305 38.12556,38.97937 46.13617,34.51689 z m 22.5688,-10.7082 c 2.06549,-4.29644 -16.59249,12.14356 0,0 z m -80.34718,-18.30554 c -4.95847,0.76872 -2.24747,4.07289 0,0 z m 10.49975,-8.94635 c -14.88052,6.96729 -1.88428,2.41822 0,0 z m 242.93276,29.81869 c -13.8238,-6.30981 -47.67832,-13.36991 -44.739,-25.48212 21.16191,-9.20526 43.01852,-41.08889 68.97174,-31.55958 23.11326,19.78487 47.24674,24.96098 72.77676,5.27565 18.27575,-2.03584 -55.30679,23.07083 -16.58511,11.82719 42.28258,-7.24227 -29.96248,4.21824 -2.82923,11.13135 21.14948,19.82519 -0.25162,11.17015 -10.26166,0.0884 7.49618,10.49301 19.9032,42.54646 1.93772,16.06625 -10.25605,-38.9413 -43.2978,27.31965 -69.27122,12.6529 z m 12.16078,-4.7099 c 18.1218,-6.09787 63.99143,-22.30477 24.31589,-38.0163 -19.77251,-27.90724 -66.04567,5.58472 -68.52875,18.83991 15.85433,3.09757 29.17862,17.60388 44.21286,19.17639 z m 25.31832,-8.1146 c 5.65396,-3.97473 -15.16248,6.46819 0,0 z m -116.03008,-9.03021 c 1.08903,-21.91918 8.83781,10.55478 0,0 z m -87.48179,-14.71951 c -13.79678,-40.07276 -69.05851,-15.77168 -83.31378,-17.0758 33.72891,-15.18793 72.86338,-17.38121 93.50341,18.65956 -2.92624,2.63219 -8.16923,6.42353 -10.18963,-1.58376 z m 114.58417,-6.1649 c 13.97194,-19.47087 38.6268,-35.47493 62.91182,-34.68768 13.61599,-1.06582 77.96295,21.01367 37.94105,13.44513 -31.28284,-13.03925 -65.30213,-12.76611 -90.16312,12.9303 -3.79543,1.13364 -6.82121,8.70402 -10.68975,8.31225 z m 17.3608,-15.42373 c 17.18944,-8.75383 1.39165,-6.25071 -3.47916,2.54831 z m -7.36479,-46.0023 c -13.37091,-27.48792 17.27568,4.75974 0,0 z m 23.66999,-6.97362 c -18.82259,-25.18635 15.36691,-6.26539 1.52204,3.14339 z m 18.00059,-8.3467 c -30.26396,-17.2699 21.768,-3.61812 0,0 z m -34.63063,386.58717 c -0.83918,-2.35278 -1.67221,2.28627 0,0 z m 9.57708,-8.8692 c 24.28828,-15.57087 -14.64028,3.02431 0,0 z m 13.2511,-4.9114 c 22.64061,-16.84993 -19.16443,7.4177 -4.55073,2.56318 z m -12.58087,-0.9778 c 4.73063,-5.21146 -9.41988,7.13306 0,0 z m 36.62611,-11.8145 c 35.21351,-13.34725 42.28177,-50.85613 56.98891,-81.28105 8.03909,-28.09013 -22.49667,39.58346 -32.09941,48.81249 -7.69296,13.08487 -41.68723,39.17013 -39.09583,41.33776 4.84338,-2.7809 9.52823,-5.82278 14.20633,-8.8692 z m -25.32987,5.2826 c 14.18559,-12.00928 36.42195,-35.58105 9.22144,-10.09162 -0.52813,0.94764 -18.84309,15.98912 -9.22144,10.09162 z m 2.39372,0.3202 c 2.22627,-3.19813 -3.88599,4.05473 0,0 z m 13.76441,-7.5237 c 23.53469,-25.26421 -3.49818,-5.79539 -10.9588,7.1609 3.92715,-1.9253 7.78069,-4.10114 10.9588,-7.1609 z m 7.21771,-3.2762 c 26.31933,-23.38565 38.99523,-56.40524 56.30254,-86.18986 9.25304,-17.84284 -21.04917,32.35254 -27.08643,41.9858 -9.16204,8.34986 -34.90391,49.67423 -29.21611,44.20406 z m -277.42554,-26.0762 c -11.40833,-8.025 -47.83522,-63.02432 -27.76713,-21.5522 2.41235,15.57841 33.13031,20.38349 33.72509,27.20164 l -2.65822,-2.56609 z m -16.58743,-5.1956 c -6.69391,-3.16348 1.54619,8.60393 0,0 z m -25.87871,-53.9404 c -7.67137,-13.51776 -19.0073,-40.61237 -9.01253,-9.8007 0.10009,-0.59101 11.26241,17.11693 9.01253,9.8007 z m 386.98818,-12.7138 c -0.6821,-2.35605 -1.39751,3.26354 0,0 z m -397.83207,-22.6978 c 7.72116,-14.88129 -14.8585,-55.40755 -7.61131,-19.00747 0.62191,3.38097 2.40696,36.45218 7.61131,19.00747 z m 228.82215,-7.2765 c 13.48681,-14.12524 -19.83016,16.11159 0,0 z m -218.3756,1.3013 c -7.487,-34.36681 -7.93927,-13.62411 0,0 z m 232.0983,-9.7719 c 19.668,-8.52061 -15.1606,1.26164 0,0 z m -62.35161,-6.1696 c -3.01918,-4.87147 -3.26849,8.93325 0,0 z m -29.85953,-16.1368 c -0.31281,-6.89718 -1.12599,7.67258 0,0 z m 3.37036,-7.2484 c 2.54307,-2.93006 -4.60605,3.50203 0,0 z m 6.13815,-1.7358 c 5.80075,-3.37423 -8.66355,2.97322 0,0 z m -172.38428,-50.9297 c -2.03631,-16.19218 0.86918,27.26618 0,0 z m 445.49592,-38.0245 c 1.95607,-23.96951 -3.74707,-20.32334 -1.68595,1.8028 l 0.7141,3.4597 z m -0.26602,-26.64183 c 0.39289,-4.89117 -3.55553,6.95067 0,0 z m -404.98396,-2.82953 c 3.93871,-5.85283 -8.7807,9.31429 0,0 z M 211.32833,443.7134 c -0.50268,-5.95108 -6.43274,18.01665 0,0 z m 41.59398,1.24777 c -2.51115,-0.75689 -12.40277,10.74083 0,0 z m 25.57185,-13.38235 c 4.81123,-5.70077 -6.41828,5.7931 0,0 z M 389.88353,416.0513 c 6.35707,-28.24667 -42.46863,-0.78245 -9.63477,1.13519 -1.30256,-3.51228 13.33499,5.5729 9.63477,-1.13519 z m 18.0839,1.15647 c 39.56973,-7.08351 77.79711,-19.81354 113.9209,-37.34141 -17.46283,-17.80129 -49.21381,-33.69468 -73.62596,-48.29332 -9.43829,7.61722 9.89372,66.99882 -13.19872,76.76381 9.6349,-27.24787 18.27458,-79.19139 -16.80102,-91.89089 -11.87855,-3.12258 -2.27817,40.15757 16.28185,18.85977 -26.86383,6.49255 -13.05038,24.62409 1.5945,19.14783 -22.56145,-2.01613 -26.83276,27.30261 -7.04696,31.90919 -7.29609,3.33545 -18.43926,-9.96884 -15.44348,7.18652 14.46839,10.75561 3.98887,14.79547 -3.12387,6.41469 -2.71192,7.90235 -24.62737,24.334 -2.55724,17.24381 z m 21.80603,-45.5295 c -24.80894,-5.96454 21.44962,-5.37307 4.74665,1.19032 z m -26.60168,35.02796 c -3.03872,1.72889 -9.57307,12.23302 0,0 z m -35.74993,2.03696 c 28.80039,-14.80686 8.68175,-6.00361 2.02771,-6.28221 19.99917,-2.0943 17.44913,-26.04967 -1.57155,-11.86027 31.21952,-13.91933 2.61773,-13.91416 -2.39818,-9.62853 23.64285,0.90453 25.51006,-46.2623 5.70879,-47.00542 -5.34268,-7.31186 25.96866,5.00742 19.15007,-16.76907 13.75744,-24.08684 -39.11892,3.97986 -33.17769,23.58586 -1.22788,18.02264 -10.55962,64.93595 10.26085,67.95964 z m -5.39201,-43.92463 c 32.15894,-12.48485 -2.25625,9.03704 0,0 z m 1.67637,-14.1894 c -14.52843,-4.86805 26.7387,-1.53835 0,0 z m -11.95219,48.45393 c -4.20022,-30.24327 -4.43883,-65.71093 20.99207,-87.33333 -34.36922,11.78451 -61.58216,37.65997 -91.52611,57.44372 21.11771,10.17974 51.62999,27.50789 70.53404,29.88961 z M 295.636,356.57457 c 20.18864,-8.34291 -12.78051,-42.03888 3.32297,-57.86008 -1.19803,17.98757 7.25268,68.12005 24.04065,35.16589 -16.15091,-15.7574 2.54281,-72.39011 -2.28725,-25.56585 -3.48814,36.14578 33.45511,20.18105 26.0078,-6.68088 -0.68582,-17.34174 12.71764,-34.28776 4.71063,-6.45254 -9.77974,31.91499 8.21055,21.62468 27.23479,10.54171 20.03961,7.39833 51.2215,-33.20089 12.47521,-28.17476 -11.63774,2.00748 -16.40948,42.44803 -11.88188,8.08665 10.07617,-31.36593 -56.61761,-12.02857 -71.51749,-0.30268 -33.73699,9.702 -40.18649,59.31608 -12.10543,71.24254 z m 185.63502,-17.31174 c 23.24915,-10.08714 31.2469,-33.39792 -0.84848,-34.7261 -17.33254,-16.18953 -48.36653,-0.95906 -38.58856,17.67103 14.35942,28.62134 51.11915,-41.21055 27.22335,-4.24088 -20.8281,12.57847 -4.06805,21.53673 12.21369,21.29595 z M 439.1103,311.04046 c 27.43789,-28.62966 -20.45599,-22.45665 -18.80511,1.02777 7.89812,0.71932 14.93974,11.56101 18.80511,-1.02777 z m -19.22141,-4.55112 c 21.82567,-14.58046 10.50072,-24.57233 -7.8744,-20.54095 -14.62706,8.81403 -7.05,32.06654 7.8744,20.54095 z M 133.3478,943.14788 c 25.69495,-24.13252 38.06703,-58.94614 34.19963,-93.8675 -0.14317,-56.81825 -5.97323,-113.29511 -14.81673,-169.33729 -2.80924,-46.39639 -25.94065,-88.90567 -26.99788,-135.74683 -10.47849,-40.51582 -14.3241,-82.59773 -7.42321,-124.14302 4.25506,-43.1896 16.96205,-84.78015 25.29176,-127.05116 14.08047,-34.19389 37.23606,-66.08566 64.62,-90.83464 26.03679,-23.72182 57.67808,-43.61187 92.43437,-51.68945 46.51551,-5.83076 93.71053,-15.89387 140.39552,-11.94747 31.40726,8.47948 60.8285,21.15466 90.40421,34.47853 28.84862,11.84436 58.13795,23.90234 83.43169,42.30866 25.40474,20.31491 41.41245,49.02726 58.3068,76.37222 25.35056,47.92125 27.73349,103.84452 28.80247,157.01604 -8.15342,44.92519 14.94259,89.7366 0.84794,134.04406 -10.52593,47.14281 -28.89101,92.05665 -37.37669,139.70544 -12.08824,36.61453 -32.35007,72.68792 -26.23987,112.64711 -13.78555,32.2433 15.05241,67.7004 14.20135,94.3173 -17.14605,-30.30007 -26.33893,-65.63573 -18.92583,-100.1603 -4.86928,-49.51648 30.19742,-90.89905 34.13988,-139.27873 13.21953,-56.35162 43.40343,-112.14498 31.56526,-171.58226 -9.09026,-40.2293 1.65207,-81.58687 -5.42222,-122.18593 -2.88468,-49.63819 -17.93606,-98.94195 -49.77517,-137.78673 -16.45257,-29.78052 -45.59898,-50.97875 -76.78629,-63.32166 -31.16559,-16.19609 -64.54018,-27.71896 -96.36315,-42.44428 -31.01304,-11.12698 -63.65878,-13.74497 -96.36564,-8.59216 -46.44331,6.22773 -97.08923,5.76779 -135.86232,36.13428 -28.6041,16.22574 -51.80192,41.94403 -69.12769,69.87944 -25.92615,26.69552 -24.93009,64.98684 -35.87712,98.29099 -12.81149,61.62103 -23.36536,126.64504 -5.0951,188.23572 1.3946,42.45604 19.86995,81.8269 22.6812,123.96297 16.51199,68.51211 19.94526,139.63265 19.94397,209.96647 -1.69594,28.32167 -17.01201,55.19489 -38.81114,72.61018 z" />
    <path
       id="path37"
       style="fill:#000000;stroke-width:0.660554"
       d="m 541.38624,933.22698 c 8.01426,5.07512 20.882,15.37745 33.64176,21.2248 22.27882,-5.53952 41.64714,-12.80181 65.46063,-17.0596 9.17507,7.39432 25.51881,-9.39629 1.62328,-7.3667 -21.05508,8.55995 -42.78889,0.53665 -62.48371,17.4459 -1.37052,2.70726 -15.80184,-11.61749 -22.80259,-12.474 3.18774,7.49638 -18.48125,-24.54795 -15.43937,-1.7704 z" />
    <path
       id="path39"
       style="fill:#000000;stroke:#000000;stroke-width:0.660554"
       d="m 657.86207,933.4104 c -0.65873,0.95338 -0.67034,-0.93788 0,0 z" />
    <path
       id="path41"
       style="fill:#000000;stroke-width:0.660554"
       d="m 650.95542,922.79448 c -6.5208,26.95369 22.27848,17.51681 4.26498,-0.71216 l -4.26502,0.71216 z" />
    <path
       id="path43"
       style="fill:#000000;stroke-width:0.660554"
       d="m 138.02019,952.83108 c 21.25332,0.89507 34.78339,-8.34665 51.51958,6.97004 26.00716,-10.25677 47.28891,-2.38233 70.54297,3.85766 11.93524,-11.77148 27.91845,-11.03553 23.36337,-19.7308 -18.3272,2.71194 -33.02101,23.64794 -50.05197,0.8385 -25.7142,1.79654 -47.85374,10.67851 -68.94217,-3.58578 -8.38729,5.59938 -24.09413,-0.67613 -26.43178,11.65038 z" />
    <path
       id="path45"
       style="fill:#000000;stroke-width:0.660554"
       d="m 131.58147,944.88288 c 10.73506,22.03362 37.82415,0.58969 7.77736,-0.009 1.45723,-13.47065 42.79706,-31.30364 26.8178,-51.4895 -9.52999,11.68092 -14.4295,32.60222 -33.59627,39.93516 -19.40189,29.48894 43.92169,20.83615 6.97822,8.81594 l -4.14359,0.97615 -3.83348,1.77115 z" />
    <path
       id="path57"
       style="fill:#000000;stroke-width:0.839637"
       d="m 310.53905,522.51508 c -18.94222,-9.13685 -58.62498,-24.6096 -19.303,-38.55076 21.73345,-13.76819 44.89107,-3.25728 60.15159,15.30696 15.47223,10.36912 -31.3843,34.39849 -40.84859,23.2438 z" />
    <path
       id="path59"
       style="fill:#000000;stroke-width:0.839637"
       d="m 527.15934,509.65498 c -17.67424,-10.92872 -58.08652,-19.52164 -18.41273,-33.22124 22.68476,-25.97043 50.08075,-5.12453 68.65129,13.37734 -13.77107,8.67537 -33.88779,26.74034 -50.23856,19.8439 z" />
    <path
       id="path72"
       style="fill:#000000;stroke-width:0.839637"
       d="m 568.30299,940.21418 c -31.17278,-13.0221 -54.12618,-39.1379 -62.66428,-71.71559 -12.91349,-26.57112 -7.10006,-56.84359 -8.36255,-85.37301 21.69744,-11.24218 54.25792,-36.40771 69.29995,-40.60446 -9.56188,62.31977 4.68324,124.43066 5.63708,186.78629 -1.48402,3.4558 5.52707,22.11376 -3.9102,10.90677 z" />
    <path
       id="path74"
       style="fill:#000000;stroke-width:0.839637"
       d="m 279.88851,904.11448 c -2.30391,-57.303 -8.00172,-115.65963 -29.75875,-169.27 10.29155,3.00747 49.96594,30.07403 63.20807,44.87561 4.99714,34.26262 9.27274,74.70739 -10.05346,105.52789 -28.03055,26.16289 22.3486,-16.57539 0.14009,7.71893 -8.37582,5.65922 -28.51101,43.11601 -23.53595,11.14757 z" />
    <path
       id="path79"
       style="fill:#008000;stroke-width:0.419818"
       d="m 363.2219,409.73814 c -13.39393,-28.18147 -13.67107,-72.06446 10.74796,-96.1261 12.62091,-12.45746 29.57814,-3.84205 13.62448,11.54019 0.0643,12.66098 -35.92743,1.27068 -5.84358,12.36678 4.71568,17.01783 1.75607,41.21207 -18.72571,46.06151 20.25794,-12.44058 25.34936,-1.31999 4.85068,7.13528 22.93066,-13.39035 16.56774,10.30765 -0.20548,13.73296 23.66228,-9.467 17.0665,-4.48268 -0.18724,4.03251 l -2.55658,2.06929 z m 3.74661,-43.57919 c 35.56917,-12.82195 -24.7881,1.28273 0,0 z m 5.43691,-15.921 c 2.30409,-10.70313 -29.04456,6.20625 0,0 z" />
    <path
       id="path85"
       style="fill:#000000;stroke-width:0.660554"
       d="m 440.61034,411.9531 c 17.98772,-17.64956 -14.15914,-12.9289 0,0 z" />
    <path
       id="path87"
       style="fill:#000000;stroke-width:0.660554"
       d="m 438.46595,402.38612 c -16.89483,12.02526 10.94558,10.45637 -4.11375,4.94265 -8.34779,10.72877 23.81991,-1.13037 4.11375,-4.94265 z" />
    <path
       id="path98"
       style="fill:#008000;stroke-width:0.419818"
       d="m 397.52112,417.96483 c 9.90022,-14.88491 11.97154,-19.60578 24.41414,-13.26821 -13.50768,-14.72594 -6.84746,-24.92489 7.2015,-18.31193 -21.11582,-7.36855 -13.33624,-33.34444 8.58302,-33.40605 -26.59653,12.77814 -23.04604,-13.05291 -2.51974,-17.36016 -25.26303,22.87048 -30.7641,-43.42334 -3.70435,-11.58122 15.07732,24.13922 22.80283,84.16877 -14.34203,91.22798 -6.47941,1.29493 -13.00984,2.46908 -19.63254,2.69959 z m 40.65176,-45.95335 c -5.8145,-14.96041 -31.56228,3.89886 0,0 z" />
    <path
       id="path100"
       style="fill:#008000;stroke-width:0.419818"
       d="m 384.52839,417.8397 c -26.30036,-0.10829 -10.68221,-17.28853 2.16068,-13.88412 -1.57909,4.21335 9.6849,18.1204 -2.16068,13.88412 z" />
    <path
       id="path112"
       style="fill:#ececec;fill-opacity:1;stroke-width:0.839637"
       d="m 411.04792,308.18136 c -24.12638,-12.82263 19.91122,-34.64155 19.16513,-15.5364 -6.87554,3.77283 -10.11071,22.59692 -19.16513,15.5364 z" />
    <path
       id="path118"
       style="fill:#ffffff;fill-opacity:1;stroke-width:0.839637"
       d="m 344.08775,398.69553 c -14.7467,-12.72097 -59.76199,-18.4051 -56.95147,-33.11057 25.16173,-16.57418 58.68836,-46.30441 81.7545,-50.27292 -31.08387,16.90358 -8.14171,77.328 -24.80303,83.38349 z" />
    <path
       id="path120"
       style="fill:#ffffff;fill-opacity:1;stroke-width:0.839637"
       d="m 444.13178,408.46428 c 5.20341,-22.30441 0.95189,-60.55041 3.282,-76.70069 24.36788,14.49385 55.15024,29.24703 72.89283,47.9997 -24.6772,11.49418 -49.49565,22.6532 -76.17483,28.70099 z" />
    <path
       transform="translate(114.83553,137.63713)"
       id="path58"
       d="m 357.6031,794.28249 c -11.136,-5.05726 -66.6652,-10.60444 -89.37842,-8.92861 -6.58604,0.48593 -13.73603,0.37494 -15.88886,-0.24665 -8.21798,-2.37277 -24.80534,-2.58959 -46.24003,-0.60442 -28.02102,2.59517 -35.69975,2.62912 -36.64646,0.16203 -1.13154,-2.94873 3.54832,-9.27613 15.98657,-21.61461 10.67035,-10.58476 11.50577,-11.15791 11.50577,-7.89379 0,5.25083 4.64339,13.35556 9.26681,16.17461 5.04446,3.07576 19.41391,3.65503 18.29434,0.7375 -0.47997,-1.25079 0.80375,-1.9961 4.43929,-2.57745 6.40846,-1.02476 5.1678,-3.03427 -3.88264,-6.28876 -6.35649,-2.28576 -8.54197,-3.96921 -16.46332,-12.68143 -4.94062,-5.43392 -6.57005,-5.83032 -6.57005,-1.59838 0,2.40834 -0.52784,2.92074 -2.48225,2.40965 -2.43991,-0.63805 -2.43732,-0.70991 0.15194,-4.21207 1.69235,-2.28903 2.94267,-6.54326 3.49695,-11.8984 0.47451,-4.58449 1.26639,-8.73909 1.75973,-9.23243 1.18159,-1.18158 6.59565,3.93221 11.19086,10.57019 4.79977,6.93348 4.64103,7.79812 -0.68577,3.73517 -5.43643,-4.14656 -8.34702,-4.29779 -8.34702,-0.43369 0,6.17201 7.58034,12.35836 15.14312,12.35836 2.10617,0 6.73174,1.14399 10.27905,2.54221 3.54731,1.39822 8.00148,2.51639 9.89815,2.48482 3.15851,-0.0526 2.51628,-0.94579 -7.63766,-10.62239 -16.05672,-15.30191 -21.00625,-21.73749 -23.90544,-31.08291 -1.37836,-4.44307 -2.50611,-8.66279 -2.50611,-9.37713 0,-0.71435 4.15257,2.64573 9.22794,7.46683 7.63046,7.24819 10.60251,9.18183 17.16811,11.16974 4.36708,1.32224 8.24615,2.09809 8.62013,1.7241 0.374,-0.37399 -3.25754,-3.59899 -8.07007,-7.16667 -13.52509,-10.02656 -23.13279,-21.20408 -23.13279,-26.91251 0,-0.62557 3.861,1.79164 8.57999,5.37159 4.71899,3.57995 11.43997,7.8111 14.93552,9.40256 17.02551,7.75141 17.86836,4.19871 1.7037,-7.18125 -6.40362,-4.50816 -14.15549,-10.63535 -17.22638,-13.61599 -5.78,-5.61013 -11.77206,-16.58769 -11.79374,-21.60635 -0.0113,-2.62476 0.62286,-2.3565 7.29646,3.08638 14.05906,11.46635 32.28666,22.26518 34.25668,20.29516 1.10818,-1.10818 -2.25739,-7.16028 -3.98183,-7.16028 -2.22781,0 -13.59589,-8.07246 -21.35656,-15.16527 -7.25726,-6.63273 -14.95605,-16.93214 -14.95605,-20.00814 0,-3.31234 6.70088,-1.59762 22.70894,5.81109 30.59832,14.16126 42.5231,16.17132 69.47398,11.71064 9.07327,-1.50173 27.06623,-5.58043 39.98436,-9.06378 12.91811,-3.48335 24.42932,-6.33336 25.58046,-6.33336 1.68043,0 2.50916,2.67206 4.20426,13.5557 1.16119,7.45563 2.65377,20.66324 3.31683,29.35024 2.70386,35.42418 12.45879,60.22176 36.71428,93.32969 1.05247,1.43659 1.31298,2.88408 0.63555,3.53148 -0.63137,0.60339 -8.76267,2.01382 -18.06957,3.1343 -9.3069,1.12049 -18.95773,2.88797 -21.44631,3.92777 -5.87544,2.45491 -8.79554,2.3518 -15.15244,-0.53509 z M 211.34757,780.20105 c 7.79581,-0.0277 4.9892,-2.88478 -5.63612,-5.73734 -5.20813,-1.39822 -11.25923,-3.82922 -13.44688,-5.40221 -7.76891,-5.58612 -10.90058,-2.27407 -4.53844,4.79984 3.84978,4.28047 12.23753,7.87789 16.20664,6.95084 1.39822,-0.32657 4.73488,-0.60159 7.4148,-0.61113 z"
       style="fill:#b7c8be;stroke-width:1.27111" />
    <path
       transform="translate(114.83553,137.63713)"
       id="path60"
       d="m 266.95014,655.44521 c -19.12261,-3.17274 -56.6158,-19.798 -80.15178,-35.54096 -8.66855,-5.79831 -17.43245,-13.58099 -31.72709,-28.17489 -23.30334,-23.79119 -28.05821,-30.1045 -29.00596,-38.51286 -0.61139,-5.42428 -0.85665,-5.80807 -2.38012,-3.72459 -1.62666,2.22458 -1.80376,2.22758 -4.18695,0.0708 -4.03954,-3.65571 -19.43694,-35.04072 -17.19089,-35.04072 0.36395,0 2.06718,0.9209 3.78496,2.04642 1.71778,1.12553 3.98565,1.71549 5.03971,1.31101 2.44428,-0.93796 2.4718,-5.95067 0.0502,-9.15225 -2.4017,-3.17534 -2.41278,-4.37405 -0.0404,-4.37405 2.98598,0 2.30319,-5.23478 -1.90667,-14.61775 -2.09733,-4.67455 -3.81332,-8.73186 -3.81332,-9.01625 0,-0.28438 1.39145,-0.51706 3.09211,-0.51706 6.70922,0 5.21289,-7.06536 -4.94942,-23.37012 -4.854731,-7.78909 -5.587006,-9.8174 -4.953576,-13.72078 0.408823,-2.51927 0.04951,-6.68274 -0.798466,-9.25215 -0.847979,-2.56939 -1.32695,-4.88645 -1.064381,-5.14903 0.262571,-0.26257 4.045643,4.38051 8.406833,10.31796 4.36119,5.93745 8.49336,10.44685 9.1826,10.02087 3.58901,-2.21813 -1.30355,-14.39618 -13.01765,-32.40218 -7.215656,-11.09135 -15.498415,-26.58326 -14.66066,-27.42101 0.258762,-0.25876 4.545085,5.66211 9.525163,13.15749 10.046447,15.12063 19.156837,25.19031 21.064567,23.28258 2.12493,-2.12494 -0.23343,-7.45684 -8.62727,-19.50496 C 97.538596,390.25255 89.336722,377.185 88.343101,373.85206 c -0.702183,-2.35536 -0.418007,-2.64922 1.960521,-2.02721 2.521385,0.65936 2.697261,0.38181 1.879128,-2.96535 -0.496436,-2.03103 -1.16461,-5.12277 -1.48483,-6.87054 l -0.582219,-3.17777 1.501764,3.17777 c 13.383125,28.31905 15.159285,31.44089 21.290495,37.42107 3.54063,3.45339 6.8535,5.86291 7.36194,5.35447 0.50844,-0.50845 -1.61262,-5.90795 -4.71348,-11.9989 -7.4175,-14.57003 -7.38186,-14.39646 -1.752,-8.53224 4.49529,4.68241 4.91563,4.866 5.31605,2.32202 0.46452,-2.95113 -2.36905,-9.23174 -9.5592,-21.18799 -3.95892,-6.58315 -4.38326,-8.12282 -3.73867,-13.56534 1.07547,-9.08069 6.34269,-18.26237 15.92545,-27.76085 10.76662,-10.67192 21.13079,-16.69828 38.90388,-22.62107 15.18765,-5.06122 16.2519,-7.12217 1.85603,-3.59428 -11.62456,2.84875 -12.81103,1.5284 -1.59687,-1.77706 14.33322,-4.22484 25.46605,-5.64449 37.86014,-4.8279 18.66614,1.22983 31.38109,6.46934 41.69737,17.18243 7.02984,7.30025 25.19154,35.3738 30.835,47.66339 5.76863,12.5622 6.85388,19.82585 6.58222,44.05551 -0.23029,20.54041 -0.31379,21.13042 -4.04528,28.58675 -4.5585,9.10889 -9.088,12.1205 -19.06308,12.67482 -14.14334,0.78596 -22.84096,10.7679 -22.74815,26.10718 0.0975,16.11348 10.68616,28.25773 24.63811,28.25773 5.65456,0 15.39166,-3.76124 17.16493,-6.63046 0.4672,-0.75593 2.76919,0.29615 5.5663,2.54397 5.68951,4.57222 12.10022,6.6493 17.32505,5.61336 2.09733,-0.41585 9.96549,-2.82381 17.48481,-5.35104 13.1164,-4.40841 13.94213,-4.52905 20.33774,-2.9717 16.90284,4.11593 24.8647,3.00742 31.33585,-4.36281 10.93508,-12.45438 7.39377,-38.79402 -6.51136,-48.43027 -5.11185,-3.54253 -10.52792,-4.19333 -24.35875,-2.92698 -4.09302,0.37476 -5.43357,-0.13481 -7.90089,-3.00324 -5.42306,-6.30467 -5.7357,-9.38673 -7.05116,-69.51168 -0.15459,-7.06573 3.12601,-14.76177 12.2767,-28.80015 7.19764,-11.04217 8.85317,-15.24542 4.42698,-11.23977 -4.24585,3.84244 -2.84786,-0.0206 2.41854,-6.68311 9.44205,-11.94507 31.56306,-26.22051 46.53527,-30.03077 32.29957,-8.21989 46.17666,-8.68002 83.08574,-2.75494 11.44964,1.83803 21.0875,3.07191 21.41745,2.74195 0.93632,-0.93631 -10.97704,-6.61994 -18.6442,-8.89479 -20.28537,-6.01866 -44.62408,-5.22285 -74.88969,2.44872 -25.42033,6.44341 -38.42404,13.19377 -52.3545,27.17776 -11.60709,11.65169 -18.16682,21.32618 -23.92011,35.27806 -6.44188,15.62171 -7.15575,20.58272 -7.10225,49.35698 0.0511,27.44989 1.50114,38.39863 6.3198,47.71689 l 1.94593,3.76301 h 15.26149 c 10.40674,0 16.65485,0.58218 19.6417,1.83017 5.17527,2.16237 9.50891,8.64361 9.51557,14.23117 0.003,2.19219 0.85923,5.62418 1.90359,7.62665 1.04436,2.00246 1.90235,4.8507 1.90666,6.32942 0.0207,7.12531 -10.85421,13.20029 -23.63015,13.20029 -11.10939,0 -13.02076,-1.79204 -7.82196,-7.33358 l 2.86,-3.04853 -3.56643,-3.07116 c -1.96153,-1.68913 -4.24953,-3.06901 -5.08443,-3.06639 -2.58325,0.008 -8.78912,4.40487 -17.40687,12.33257 -4.54421,4.18035 -9.61848,8.31978 -11.27614,9.19875 -4.54943,2.41228 -11.03279,1.92359 -15.36018,-1.15778 -3.38168,-2.40797 -3.87029,-3.51705 -3.87029,-8.78519 0,-8.14327 -3.17886,-11.59311 -10.68252,-11.59311 -10.21732,0 -16.05001,8.83053 -9.65521,14.61775 3.44183,3.11482 3.22019,3.96385 -1.46079,5.59564 -5.91399,2.06164 -9.22663,1.71775 -13.14523,-1.36463 -10.44562,-8.21652 -10.84134,-26.1805 -0.81354,-36.93084 3.89148,-4.17186 5.7756,-5.16932 10.8435,-5.74054 5.82224,-0.65625 6.08977,-0.55307 5.2692,2.03233 -1.46002,4.6001 1.25969,3.0645 8.58416,-4.84681 6.52184,-7.04436 7.19888,-8.37961 9.74251,-19.21406 7.45099,-31.7371 3.20426,-59.49945 -12.85135,-84.01391 -35.68593,-54.48697 -60.64222,-65.73137 -106.57378,-48.01829 -22.67535,8.74454 -44.96913,27.15163 -64.480577,53.23906 -0.230317,0.30794 -1.387462,-0.40881 -2.571432,-1.59279 -3.140547,-3.14054 -2.396673,-10.42709 2.944046,-28.83816 4.013913,-13.83714 4.734023,-18.43298 5.576673,-35.59104 1.08259,-22.04373 3.33082,-30.16558 12.20825,-44.10303 4.77335,-7.4941 23.59656,-27.06141 33.10054,-34.40906 l 5.22085,-4.0363 4.99076,7.90759 c 9.26397,14.67827 10.37475,20.87788 4.90529,27.37797 -1.74778,2.07711 -3.17777,4.07078 -3.17777,4.43038 0,0.35959 3.70743,3.56737 8.23874,7.12838 9.75238,7.6641 11.07465,10.95634 7.18208,17.88224 -1.49036,2.65173 -2.70974,5.4922 -2.70974,6.31216 0,2.82698 2.83661,-0.27267 5.25711,-5.7446 2.45008,-5.53881 7.64472,-10.71012 10.75845,-10.71012 3.13483,0 4.66956,5.1941 3.91268,13.24202 -0.59198,6.29459 -0.44433,7.28943 0.79454,5.35356 6.69114,-10.45568 6.54009,-10.3226 12.17968,-10.73059 7.81786,-0.56557 10.31524,2.04023 10.31524,10.76309 0,7.45679 1.35919,8.51017 4.59958,3.5647 1.16379,-1.77616 3.20411,-3.81174 4.53406,-4.5235 3.51888,-1.88325 8.5858,4.07175 12.96778,15.24066 1.94997,4.97016 4.06685,9.03664 4.70419,9.03664 1.06483,0 1.31934,-0.9685 1.67016,-6.35554 0.29299,-4.49882 24.91526,-2.38819 34.47091,2.95485 4.04719,2.26298 5.13757,3.65186 5.45773,6.95179 0.42688,4.39958 2.77767,4.43147 2.77767,0.0377 0,-1.4392 2.2207,-4.83744 4.93489,-7.55163 7.93955,-7.93954 13.96454,-6.16454 14.24638,4.19708 l 0.11465,4.21467 1.26312,-4.40244 c 1.90948,-6.65523 5.94335,-11.52154 11.72849,-14.14884 9.20198,-4.17903 14.91752,-2.55293 19.93209,5.67077 l 2.42856,3.98275 0.005,-5.22888 c 0.004,-3.99949 0.82269,-6.04682 3.48364,-8.70777 3.306,-3.30635 11.73566,-8.30776 14.00202,-8.30776 0.58197,0 1.72806,2.50486 2.54688,5.56636 1.50868,5.64079 3.83849,7.66187 7.30071,6.33329 2.8992,-1.11254 2.30377,-3.73226 -1.94933,-8.57626 -4.31204,-4.91115 -4.28389,-4.95131 5.93772,-8.46806 8.76079,-3.01415 9.35825,-3.0391 9.35825,-0.39082 0,2.34614 6.48922,13.15634 7.89971,13.15987 1.78662,0.004 3.7429,-5.37286 3.01286,-8.2816 -0.40897,-1.62945 -2.33108,-4.27736 -4.27135,-5.88424 l -3.52776,-2.92159 4.48103,-2.40347 c 2.46458,-1.3219 7.91303,-3.62571 12.10769,-5.11956 6.41663,-2.28518 7.68756,-3.24059 8.01055,-6.02192 0.2899,-2.49637 -0.7937,-4.33977 -4.42549,-7.52852 -2.77211,-2.43394 -4.15767,-4.43995 -3.27085,-4.73555 0.8462,-0.28207 7.41366,-4.75769 14.59436,-9.94584 7.18071,-5.18814 13.72925,-9.43451 14.55235,-9.43637 2.99037,-0.007 18.51025,8.91785 26.33326,15.14281 12.94014,10.29678 22.51035,22.63774 37.54054,48.40923 8.74409,14.99302 12.29605,24.97512 14.39844,40.4641 1.77781,13.09767 -0.0299,33.40226 -4.54536,51.05572 -4.04397,15.80996 -5.36491,25.42218 -3.49359,25.42218 1.67477,0 3.23413,-3.75642 6.59574,-15.88886 l 2.46536,-8.89776 -0.62583,13.34664 c -0.34422,7.34065 -1.23982,15.34864 -1.99022,17.79552 -4.59457,14.98173 -15.62907,68.47981 -16.53848,80.18285 -1.21847,15.68024 -2.73118,19.91862 -10.17909,28.52036 -3.0155,3.48266 -6.61551,8.90612 -8.00001,12.05211 -5.42019,12.31627 -33.36478,54.3498 -46.47135,69.901 -19.0583,22.61303 -32.87072,34.05518 -61.98571,51.34867 -5.20952,3.09431 -5.79898,3.80865 -3.74619,4.53976 3.01786,1.07485 -6.5942,3.86402 -25.95163,7.53051 -31.73528,6.01097 -55.26313,7.6861 -71.08459,5.06106 z m 97.77787,-18.89679 c 0,-0.69911 -0.25224,-1.27111 -0.56053,-1.27111 -0.3083,0 -0.91406,0.572 -1.34613,1.27111 -0.43208,0.69911 -0.17984,1.27111 0.56053,1.27111 0.74037,0 1.34613,-0.572 1.34613,-1.27111 z m -63.55543,-46.22055 c 0,-2.08871 4.07727,-5.8949 6.31474,-5.8949 1.15906,0 3.75142,1.71599 5.76079,3.81332 4.89613,5.11046 6.11127,4.80668 5.08443,-1.27111 -0.74651,-4.41856 -0.54913,-5.08443 1.50716,-5.08443 1.30138,0 8.90695,-3.14109 16.90124,-6.9802 9.60633,-4.61328 14.96243,-6.55289 15.79532,-5.71999 0.83288,0.83288 0.74299,1.77744 -0.26512,2.78554 -0.83893,0.83893 -1.50714,2.41193 -1.4849,3.49555 0.0327,1.59223 0.38757,1.51176 1.84983,-0.41943 1.61263,-2.12979 2.4297,-2.23346 7.51353,-0.95333 3.13729,0.78997 7.20485,1.43632 9.03903,1.43632 2.88817,0 3.28102,-0.46825 2.93268,-3.49555 -0.28117,-2.44366 -1.04274,-3.38978 -2.53079,-3.14406 -3.47348,0.57356 -3.94386,-2.02337 -1.17729,-6.49975 3.48231,-5.63449 18.23884,-19.59938 18.83154,-17.82129 0.25915,0.77749 -0.69681,4.48671 -2.12438,8.24271 -3.13531,8.24915 -3.3187,12.12764 -0.31914,6.74971 5.36661,-9.62183 8.33371,-11.86889 11.67698,-8.84327 2.26405,2.04893 2.32688,1.92464 1.63494,-3.23415 -0.90053,-6.71391 2.14522,-12.87051 8.22655,-16.62899 5.67375,-3.50657 13.86116,-2.70426 19.9726,1.95716 4.36007,3.32558 4.41354,3.33246 5.79852,0.74459 1.92756,-3.60167 0.42657,-7.44132 -3.27181,-8.36955 -1.69856,-0.42632 -8.04949,-0.19684 -14.11317,0.50993 -14.1192,1.64572 -14.86004,1.34705 -14.0689,-5.67196 0.87583,-7.77038 -0.9961,-8.01007 -3.50744,-0.44912 -2.43021,7.31667 -3.76926,8.61809 -5.61145,5.45375 -1.11232,-1.91062 -1.31831,-1.67429 -1.36165,1.56215 -0.0896,6.69244 -5.55857,16.1246 -13.26622,22.87996 -6.9601,6.10015 -11.87992,8.98817 -13.14925,7.71885 -0.32889,-0.32889 0.0402,-2.42853 0.82009,-4.66588 2.57414,-7.38416 1.57045,-8.08989 -3.5765,-2.51474 -3.63902,3.94177 -5.64986,5.20213 -7.40894,4.64383 -2.05632,-0.65265 -2.33552,-0.22922 -1.88279,2.85547 0.76202,5.19195 -8.27431,12.90982 -19.38616,16.55758 -9.9451,3.26474 -13.75683,3.42498 -16.48868,0.69313 -2.14313,-2.14313 -1.82407,-4.61703 1.41714,-10.98827 2.46477,-4.84499 1.22718,-4.3721 -4.15821,1.58889 -5.12047,5.66774 -6.24492,6.01689 -9.5998,2.98076 -2.45044,-2.21761 -3.3131,-0.66446 -0.9458,1.70284 0.7583,0.75831 1.1873,2.73123 0.95333,4.38428 -1.29942,9.1808 -33.83009,6.91841 -35.15813,-2.44513 -0.30283,-2.13505 1.22126,-4.41756 5.71999,-8.56643 3.37304,-3.11072 5.50644,-5.66196 4.74092,-5.66941 -0.76554,-0.008 -2.48019,1.18899 -3.81033,2.65879 -1.33015,1.4698 -4.03389,3.50773 -6.0083,4.52874 -4.20187,2.17286 -7.18849,0.5867 -7.27032,-3.86118 -0.0402,-2.18317 -0.38038,-1.94487 -1.76532,1.23651 -0.94355,2.16748 -2.54851,4.2605 -3.56655,4.65116 -2.76714,1.06185 -11.42644,-3.25766 -17.46226,-8.71065 -4.78712,-4.32488 -12.74716,-14.49801 -12.74716,-16.2912 0,-0.38417 2.28799,-1.86572 5.08443,-3.29236 2.79644,-1.42664 5.08444,-2.8323 5.08444,-3.12369 0,-0.2914 -2.09813,-0.18933 -4.66251,0.22682 -4.02838,0.6537 -5.04098,0.28193 -7.44546,-2.73357 l -2.78298,-3.49019 -0.78496,3.92475 c -0.89167,4.45837 -4.2581,5.15543 -9.74627,2.01811 -1.74777,-0.99912 -6.06167,-1.83686 -9.58643,-1.86162 -5.94102,-0.0418 -6.81831,0.37235 -12.02241,5.67494 -3.08756,3.14599 -5.35165,5.7176 -5.03132,5.71466 0.32034,-0.003 3.39637,-1.43292 6.83563,-3.17777 3.43925,-1.74484 7.90065,-3.17244 9.91421,-3.17244 3.96117,0 11.16143,3.20225 11.16143,4.96396 0,0.59693 -2.66482,3.26896 -5.92183,5.93784 -7.36464,6.03477 -5.19562,7.27192 2.93806,1.67582 5.64128,-3.88132 6.08299,-3.9883 7.35279,-1.78085 3.43874,5.97789 10.06169,11.90585 15.63856,13.99748 7.35698,2.75928 16.5895,7.47279 20.03234,10.22718 2.48934,1.99155 2.42986,2.1346 -2.85999,6.87665 -2.97122,2.66354 -5.40221,5.16091 -5.40221,5.54972 0,0.38881 2.43099,-0.68302 5.40221,-2.38183 7.39089,-4.22581 11.40946,-4.02006 15.45809,0.79147 1.80992,2.15096 3.29076,4.56623 3.29076,5.36726 0,0.80102 0.87487,0.20736 1.94414,-1.31924 3.48667,-4.97791 19.24677,-7.23996 26.02025,-3.73469 3.26464,1.68945 3.57507,2.98643 2.03134,8.4869 -0.85638,3.05131 -0.81337,3.07958 1.08062,0.71038 1.08486,-1.35706 1.97248,-3.02802 1.97248,-3.71324 z m -3.17777,-147.65995 c 8.54679,-1.07399 11.00698,-1.89718 10.47815,-3.50599 -0.27878,-0.84811 -2.92619,-1.71949 -5.88313,-1.93643 l -5.37627,-0.39443 6.6899,-3.4189 c 3.67945,-1.88039 6.90589,-4.1339 7.16987,-5.00779 0.53179,-1.76046 -4.41781,-2.11347 -11.0461,-0.78782 -3.17308,0.63462 -3.84975,1.29126 -3.25659,3.16016 0.57027,1.79676 -0.33081,2.87388 -3.7802,4.51879 -5.07973,2.42235 -6.02954,4.32971 -1.66895,3.35148 2.19999,-0.49355 1.90666,-0.0304 -1.27111,2.00698 -5.05108,3.2384 -5.28658,4.51795 -0.63556,3.45314 1.92255,-0.44014 5.78355,-1.08777 8.57999,-1.43919 z m -69.82759,-26.70821 c 6.49209,-7.15094 10.28432,-10.42711 11.11176,-9.59967 0.82034,0.82034 0.83516,4.36617 0.0427,10.22025 -0.66738,4.93025 -0.77615,8.9641 -0.24171,8.9641 2.11799,0 6.58767,-18.65531 6.69224,-27.93184 0.14787,-13.1155 -1.88109,-13.36074 -13.29108,-1.60649 -4.72512,4.86767 -11.24447,10.13479 -14.48743,11.70469 -7.72111,3.73772 -13.46192,2.89704 -31.85648,-4.66497 -9.55119,-3.92652 -16.56069,-5.96482 -22.11872,-6.43195 -5.94639,-0.49976 -7.89356,-0.29069 -7.23386,0.77672 0.49647,0.8033 1.58391,1.448 2.41654,1.43266 0.83263,-0.0154 8.57237,3.54386 17.19942,7.90934 13.73827,6.95189 16.75197,7.99751 24.27569,8.42264 10.03648,0.56711 12.63347,-0.50293 26.51084,-10.92325 5.0997,-3.82929 9.50741,-6.72712 9.79491,-6.43962 0.2875,0.2875 -2.74098,4.79732 -6.72996,10.02183 -13.17748,17.25899 -14.38393,19.00135 -13.15684,19.00135 0.66897,0 5.65136,-4.88512 11.07197,-10.85579 z M 409.9272,402.10657 c 2.19464,-1.6268 2.25662,-2.04182 0.56072,-3.7545 -1.04867,-1.05904 -8.89332,-3.9142 -17.43258,-6.3448 -14.08723,-4.00977 -22.10292,-7.02967 -18.79402,-7.08064 0.69911,-0.0102 5.8471,1.42535 11.43998,3.19136 5.59288,1.76602 14.17286,3.56633 19.06663,4.0007 8.07063,0.71635 8.7412,0.60008 7.2135,-1.25072 -1.82437,-2.21024 -17.07991,-7.61654 -27.95849,-9.90801 -3.71953,-0.78349 -9.15352,-2.7916 -12.07553,-4.46246 -8.79453,-5.02891 -14.99897,-3.5175 -16.91605,4.12079 -0.94674,3.77209 0.0702,18.56759 1.42706,20.76309 0.60196,0.97398 1.7526,-0.28551 3.18623,-3.48763 3.84323,-8.58411 8.82037,-8.77876 28.3928,-1.11046 21.24145,8.32223 18.68327,7.70011 21.88975,5.32328 z M 223.2459,386.58783 c 18.80894,-8.59612 23.26901,-12.50392 23.26901,-20.38764 0,-7.30704 -5.46676,-13.32537 -22.17761,-24.41525 l -12.65144,-8.39593 h -9.14435 c -8.87542,0 -9.71839,0.28926 -28.66317,9.83517 -26.06374,13.13302 -34.24607,14.00233 -44.77586,4.75706 -4.00474,-3.51622 -14.78014,-6.86843 -13.04299,-4.05766 0.45995,0.74422 5.40463,4.55425 10.98818,8.46675 5.58354,3.91249 10.15189,7.59964 10.15189,8.19367 0,0.59401 -2.25517,1.44066 -5.01149,1.88141 -2.75632,0.44075 -5.36407,1.37185 -5.795,2.06912 -1.07703,1.74266 6.47956,1.61803 11.47768,-0.18932 4.52796,-1.63733 11.21184,-0.50763 10.45367,1.76687 -0.27264,0.81793 -2.11078,2.3823 -4.08475,3.47636 -3.79985,2.10607 -8.21806,7.65382 -6.09546,7.65382 1.2622,0 7.98369,-4.78523 9.28921,-6.61327 1.29243,-1.80971 8.89098,1.3388 20.02735,8.29847 13.44724,8.40384 15.3551,9.40085 23.61051,12.33842 10.79862,3.84252 14.80585,3.2599 32.17462,-4.67805 z m 206.05858,-7.94689 c 2.65445,-1.35419 9.9456,-6.3034 16.20258,-10.99827 6.25697,-4.69485 13.84287,-9.64605 16.85754,-11.00265 4.94537,-2.22543 5.76508,-2.28058 8.38498,-0.56394 1.59708,1.04644 3.66535,3.80593 4.59616,6.13219 2.41319,6.03094 8.99367,15.03399 10.98862,15.03399 2.39368,0 2.08317,-2.10737 -1.59197,-10.80442 -5.26896,-12.46871 -5.07647,-11.69625 -2.3346,-9.36882 2.93423,2.49068 10.05287,6.19105 11.91018,6.19105 4.30075,0 -3.8793,-11.85655 -9.70932,-14.07311 -5.97397,-2.27131 -2.0695,-5.50026 11.3781,-9.40958 4.01066,-1.16594 7.2921,-2.38499 7.2921,-2.70902 0,-0.32403 -3.00299,-0.25435 -6.67332,0.15485 l -6.67332,0.74398 8.89776,-3.95306 c 10.20788,-4.53511 12.06771,-5.94012 9.2794,-7.0101 -1.09663,-0.42081 -4.53588,0.99677 -7.85822,3.23899 -18.56471,12.52918 -37.90089,11.58881 -59.25662,-2.8818 -15.95617,-10.81186 -26.89992,-9.69788 -46.5877,4.74222 -6.18626,4.53735 -15.68074,11.25185 -21.09884,14.92112 -10.74788,7.27873 -12.0405,9.9771 -6.9911,14.59414 4.14861,3.79338 9.60393,6.359 29.55328,13.89882 19.52617,7.37988 24.22968,7.81927 33.43431,3.12342 z m -94.82723,-20.14753 c 0.75996,-3.06056 -0.65437,-8.28912 -2.39956,-8.87085 -2.12438,-0.70813 -3.48191,7.00494 -1.62641,9.24069 2.04272,2.46134 3.35284,2.34097 4.02597,-0.36984 z m -82.47089,-13.1979 c 1.84661,-2.95075 -6.32162,-13.71837 -15.2646,-20.12231 -11.01154,-7.88519 -17.49929,-9.59518 -35.98676,-9.48511 -14.33177,0.0853 -17.09873,0.49453 -28.23463,4.17555 -12.05478,3.98477 -16.45978,6.53427 -11.28983,6.53427 1.41469,0 8.45543,-1.14151 15.6461,-2.53671 37.56317,-7.28832 53.56707,-3.33189 63.20649,15.6257 3.80322,7.47969 4.8117,8.58937 7.50875,8.26221 1.71353,-0.20784 3.70004,-1.31196 4.41448,-2.4536 z M 368.97192,328.229 c 22.69869,-20.79121 48.95465,-25.73534 80.4759,-15.154 5.48693,1.8419 12.69359,3.67074 16.01479,4.06409 14.44682,1.71101 1.3975,-5.13249 -22.6098,-11.85733 -30.34346,-8.4997 -54.28311,-2.14716 -76.98276,20.42787 -4.82278,4.7963 -8.76869,9.20129 -8.76869,9.78885 0,2.57767 3.3794,0.50814 11.87056,-7.26948 z m 44.90748,-69.93396 c 1.0426,-2.71698 -1.73707,-5.12377 -7.80209,-6.75548 -7.41136,-1.99391 -8.89673,0.30505 -3.26405,5.05192 4.82342,4.0649 9.86234,4.84061 11.06614,1.70356 z"
       style="fill:#b7c8be;stroke-width:1.27111" />
    <path
       transform="translate(114.83553,137.63713)"
       id="path71"
       d="m 128.93736,815.12011 c -2.09733,-1.1266 -5.38734,-3.55017 -7.31113,-5.38572 l -3.49781,-3.33737 -18.945111,2.33025 c -22.553056,2.77401 -32.742822,2.23581 -42.533538,-2.24652 -5.835877,-2.67176 -7.850675,-3.03955 -11.263085,-2.05607 -6.229052,1.79528 -15.990307,1.93069 -17.675788,0.2452 -1.135243,-1.13524 1.684391,-4.74278 11.919919,-15.25073 14.826287,-15.22091 17.777693,-20.72743 15.149886,-28.26556 -1.065147,-3.05548 -0.982379,-5.61446 0.346631,-10.71687 3.137277,-12.04482 3.479385,-22.4391 2.071966,-62.95242 -2.286875,-65.82884 -6.324922,-103.934 -15.971757,-150.71791 -1.729876,-8.38931 -3.972819,-21.25929 -4.984317,-28.59994 -1.011499,-7.34065 -5.26352,-27.64661 -9.448936,-45.12436 -7.201877,-30.07408 -8.872007,-38.71774 -11.543394,-59.7421 -0.621809,-4.89377 -2.589626,-15.7234 -4.372927,-24.06584 -6.1962863,-28.98678 -6.6943063,-67.02126 -1.3908714,-106.2228 2.8652304,-21.17899 9.1296214,-54.7767 12.6796044,-68.00431 1.688622,-6.29199 4.869753,-19.73396 7.06918,-29.87105 7.050026,-32.49337 10.685734,-40.47154 31.858925,-69.91098 C 73.29979,88.255068 81.957675,78.090373 93.567928,67.100301 104.05159,57.176642 133.97532,36.233584 146.73288,29.891155 c 16.82662,-8.36537 41.06085,-14.357482 73.08874,-18.071787 9.43799,-1.094532 26.88395,-3.1891357 38.76882,-4.654675 35.16175,-4.3358435 65.69093,-2.2149275 91.51982,6.358042 4.19466,1.392265 17.06463,6.594633 28.59994,11.560818 11.53531,4.966185 27.26528,11.691177 34.95549,14.944425 29.71046,12.568655 60.27057,27.622843 72.34128,35.635973 15.67524,10.405991 29.4328,24.050046 40.07019,39.739599 4.49932,6.63622 11.31124,16.64185 15.13761,22.23473 14.40968,21.06217 27.36711,53.36914 33.13741,82.62206 5.52379,28.0032 6.99408,48.35807 7.06984,97.87537 0.066,43.13464 0.30716,48.28202 2.91098,62.13119 6.42783,34.18827 2.63841,61.78929 -16.86161,122.81511 -9.11606,28.52893 -13.89299,46.36125 -15.83348,59.10656 -1.73486,11.39466 -7.67569,30.17195 -18.48858,58.43718 -10.63203,27.79247 -13.25174,39.31551 -14.64182,64.4037 -0.64461,11.6337 -1.52355,23.35968 -1.95321,26.05772 -1.06067,6.66043 1.44622,28.07872 4.73991,40.49658 1.48343,5.59288 4.96396,15.31686 7.73449,21.60885 2.77052,6.29199 5.31601,12.95094 5.65663,14.79767 0.57971,3.143 0.26598,3.39683 -4.90694,3.9697 -3.03944,0.33662 -9.81624,1.49246 -15.05956,2.56854 -5.24333,1.0761 -14.58875,2.55988 -20.7676,3.29731 -11.09823,1.32453 -22.99203,5.57581 -27.81784,9.9431 -2.10485,1.90487 -2.25998,1.83579 -2.27464,-1.01271 -0.0909,-17.65715 -4.42109,-82.64159 -6.59847,-99.02571 -3.68268,-27.71099 -3.98405,-76.7374 -0.61108,-99.40988 2.51604,-16.91244 3.87292,-20.83533 19.77687,-57.1766 15.80416,-36.11329 19.84434,-48.30265 26.25236,-79.20417 11.63119,-56.08941 18.06656,-82.89305 21.82071,-90.88426 1.47195,-3.13325 2.26694,-9.33552 2.68827,-20.9733 0.5161,-14.25507 0.92295,-16.75251 2.9626,-18.18537 3.27912,-2.3036 3.01222,-4.68532 -2.11113,-18.83879 -2.46151,-6.80003 -4.6065,-15.11829 -4.76666,-18.48502 -0.16015,-3.36674 -0.72019,-6.12545 -1.24452,-6.13047 -0.52433,-0.005 -0.95333,0.68999 -0.95333,1.54446 0,3.13251 -4.75068,-3.66585 -8.19162,-11.72244 -6.40809,-15.00388 -19.73934,-38.6361 -26.5022,-46.98028 -9.00946,-11.1161 -22.63256,-22.6569 -42.8639,-36.31216 -9.2937,-6.27284 -21.81413,-14.74206 -27.82318,-18.8205 -13.74739,-9.33056 -37.26033,-20.94829 -55.41434,-27.38016 -13.47238,-4.77321 -13.99673,-5.09817 -14.38051,-8.91244 -0.21908,-2.17725 -0.57822,-3.95863 -0.79809,-3.95863 -0.21989,0 -2.41656,0.84265 -4.88149,1.87257 -4.14188,1.73059 -5.14157,1.64826 -13.18411,-1.08573 -4.7863,-1.62707 -15.28037,-4.48972 -23.32014,-6.36144 -8.03976,-1.87173 -19.76573,-5.06738 -26.05772,-7.10142 -24.33819,-7.86796 -40.60859,-7.41511 -63.1923,1.75882 -29.03181,11.79329 -46.7382,25.2144 -54.96793,41.66466 -2.47596,4.94916 -4.50176,9.64488 -4.50176,10.43492 0,0.79003 -7.47526,8.86417 -16.61168,17.94251 -26.11084,25.94482 -35.34904,39.11715 -38.00854,54.19465 -0.659713,3.74012 -2.110234,12.23421 -3.223375,18.87576 -1.128834,6.73516 -6.472536,25.56699 -12.083068,42.58214 -5.532543,16.77863 -10.989196,34.5106 -12.125895,39.40436 -3.76924,16.2275 -3.754105,32.671 0.06083,66.09765 2.488346,21.80297 3.287009,33.85784 2.799346,42.2528 -0.821596,14.14351 0.782037,27.02506 4.900974,39.36823 4.558258,13.65966 33.556958,73.35894 43.614238,89.78811 15.02607,24.54599 16.23596,27.6449 21.81624,55.87827 6.46469,32.70805 12.67425,82.07675 12.67425,100.7658 0,3.67949 0.67275,9.60448 1.495,13.16668 1.85517,8.03704 -0.1973,13.24745 -7.0597,17.92178 -2.52274,1.71836 -4.59071,3.55329 -4.59549,4.07762 -0.008,0.88476 3.1716,1.35399 4.30675,0.63556 2.536,-1.60502 11.08048,14.91176 8.7205,16.85702 -0.52822,0.43538 -5.1366,2.67051 -10.24084,4.96694 -11.39868,5.12832 -17.4016,5.99855 -22.49728,3.26136 z"
       style="fill:#535d6c;stroke-width:1.27111" />
    <path
       transform="translate(114.83553,137.63713)"
       id="path127"
       d="m 178.20744,217.26066 c -4.14755,-2.20403 -8.6955,-7.0145 -10.93035,-11.5613 -2.71112,-5.51576 -3.69098,-9.84874 -3.70355,-16.37718 -0.0354,-18.3992 10.49861,-34.3369 26.73055,-40.44259 1.69971,-0.63935 3.98766,-1.7798 5.08434,-2.53434 1.09668,-0.75453 4.05401,-2.34617 6.57183,-3.53697 16.48598,-7.797 38.50183,-12.77015 50.17178,-11.33329 4.31204,0.53092 8.34184,2.02987 10.30259,3.83224 2.60396,2.39361 3.31331,6.30342 2.11016,11.63067 -0.83009,3.67539 -2.21172,14.73975 -1.88179,15.06968 0.13985,0.13984 0.3501,-0.0275 0.46723,-0.37182 4.11617,-12.1007 7.93033,-19.00711 11.52294,-20.86492 0.70852,-0.36639 3.06445,-0.78875 5.2354,-0.93857 9.13487,-0.63042 14.50819,2.12853 14.50819,7.44927 0,1.75158 -0.32584,2.55554 -1.99844,4.93084 -1.09915,1.56092 -2.12175,3.39943 -2.27245,4.08558 -0.33386,1.52007 -4.93033,6.02854 -8.32569,8.16631 -5.48442,3.45307 -10.8726,4.83206 -15.48205,3.96232 l -2.74381,-0.51772 -4.41068,2.54654 c -6.49571,3.75035 -13.12085,6.84429 -16.55102,7.72932 -2.72201,0.70231 -3.21067,0.71394 -4.89729,0.11654 -2.58378,-0.91516 -3.54218,-2.80264 -3.52812,-6.94826 0.0112,-3.30124 0.60713,-6.28614 3.30018,-16.52999 1.72712,-6.56965 2.22684,-11.14956 1.31598,-12.0609 -0.94023,-0.94072 -3.0556,1.91222 -4.61662,6.22631 -2.05155,5.66974 -2.99143,12.50588 -2.23972,16.2906 0.83401,4.19917 0.66273,9.12079 -0.44026,12.65071 -2.90121,9.28475 -12.00513,15.56146 -18.57906,12.80936 -2.09549,-0.87725 -4.55497,-3.8239 -5.72862,-6.86333 -1.19297,-3.08946 -1.34799,-7.78243 -0.69714,-21.10384 0.40899,-8.37091 0.24112,-10.52564 -0.81999,-10.52564 -0.92073,0 -2.0468,2.74479 -3.11066,7.58224 -0.7942,3.61127 -0.95367,5.85086 -0.96411,13.53979 -0.0112,8.26353 0.0925,9.57505 1.00629,12.72858 1.12528,3.88317 2.32714,6.50107 4.02219,8.7611 l 1.1184,1.49117 -1.05738,2.01119 c -2.89386,5.50429 -7.07712,9.09122 -9.88374,8.47478 -6.1242,-1.3451 -11.58402,-18.44433 -12.37433,-38.75435 -0.27645,-7.1045 -0.30806,-7.28848 -1.1251,-6.54907 -0.46236,0.41843 -1.47965,2.05876 -2.26063,3.64517 -2.7631,5.61265 -2.26645,11.76504 2.07768,25.73786 4.09416,13.1688 4.69936,16.37763 3.85549,20.44251 -0.5627,2.71053 -2.63142,5.53276 -4.9249,6.71877 -1.06916,0.55288 -1.41771,0.47913 -3.85372,-0.81537 z"
       style="fill:#b7c8be;fill-opacity:1;stroke-width:0.449405" />
    <path
       transform="translate(114.83553,137.63713)"
       id="path129"
       d="m 297.24611,170.89322 c -2.82138,-1.41154 -6.22713,-4.3395 -7.17122,-6.16516 -0.90813,-1.75613 -0.88734,-4.82012 0.0461,-6.7871 2.43052,-5.12194 11.17301,-10.20627 17.50247,-10.17885 6.25158,0.0271 9.59925,4.93402 5.83515,8.55302 -0.88595,0.8518 -2.7441,3.46993 -4.12921,5.81807 -5.48237,9.29405 -7.74178,10.93206 -12.08324,8.76002 z"
       style="fill:#b7c8be;fill-opacity:1;stroke-width:0.449405" />
    <path
       transform="translate(114.83553,137.63713)"
       id="path131"
       d="m 312.37295,176.7301 c -2.84249,-1.35128 -5.54991,-2.45824 -6.01649,-2.45992 -0.76206,-0.003 -0.81925,-0.25054 -0.56232,-2.43654 0.38891,-3.30907 0.53928,-3.59924 2.60819,-5.033 2.45682,-1.70257 7.5164,-7.23504 7.85673,-8.59105 0.3224,-1.28452 2.78941,-2.49022 6.7831,-3.3151 5.15519,-1.06479 8.87298,0.42553 9.40563,3.77035 0.36581,2.29709 -2.01166,7.09919 -5.6745,11.46161 -1.49826,1.78442 -3.04785,4.05351 -3.44354,5.04242 -0.88244,2.20545 -2.97724,4.04572 -4.58727,4.0299 -0.66076,-0.006 -3.52705,-1.1174 -6.36953,-2.46867 z"
       style="fill:#b7c8be;fill-opacity:1;stroke-width:0.449405" />
    <path
       transform="translate(114.83553,137.63713)"
       id="path133"
       d="m 357.53813,200.56536 c -6.27577,-1.38389 -10.72183,-3.83682 -12.05794,-6.65247 -1.489,-3.13782 -0.95073,-4.44955 3.29454,-8.02863 4.6906,-3.95452 13.48215,-14.69958 13.48215,-16.47791 0,-1.15037 -1.19401,0.23746 -4.78552,5.56235 -2.61283,3.87387 -3.99836,5.46967 -5.86544,6.75558 -1.34449,0.92598 -3.50175,2.85188 -4.79391,4.27977 -2.84071,3.13908 -7.04991,5.34492 -10.17121,5.33023 -4.21269,-0.0198 -7.08736,-2.29935 -9.62159,-7.62965 -1.8519,-3.89514 -1.96165,-8.48053 -0.28505,-11.90923 2.19161,-4.4819 6.94918,-8.14049 13.50188,-10.383 3.47419,-1.18896 11.80296,-1.18947 15.27976,-9.4e-4 3.32359,1.13616 5.31494,2.16939 7.72162,4.00645 1.65938,1.26664 2.56314,1.59658 5.12351,1.8705 11.73264,1.25521 18.18574,5.76756 18.15393,12.69419 -0.0106,2.31936 -0.80856,4.2222 -3.48192,8.30366 -1.27014,1.93913 -3.11005,3.64675 -7.59268,7.04678 -3.25397,2.46811 -6.5302,4.80492 -7.28051,5.19292 -1.67673,0.86707 -6.78233,0.88601 -10.62162,0.0394 z"
       style="fill:#b7c8be;fill-opacity:1;stroke-width:0.449405" />
    <path
       transform="translate(114.83553,137.63713)"
       id="path135"
       d="m 398.20926,227.2468 c -6.97271,-4.51467 -10.74633,-7.65086 -11.94449,-9.92685 -1.33612,-2.53808 -0.98132,-3.18438 4.86636,-8.8645 3.02787,-2.94111 5.39093,-5.46266 5.25126,-5.60345 -0.13968,-0.14079 -2.26312,1.22729 -4.71875,3.04017 -2.45564,1.81288 -6.25564,4.54886 -8.44445,6.07995 l -3.97966,2.78381 -3.05367,-1.16687 c -4.68989,-1.79211 -8.5869,-4.32771 -9.57365,-6.22914 l -0.84694,-1.63201 1.17885,-2.01155 c 1.27054,-2.16802 1.44108,-2.31365 6.63186,-5.66308 4.63116,-2.98832 8.06753,-6.20384 10.36594,-9.69971 1.49787,-2.27826 2.37825,-3.11974 4.15186,-3.96836 4.46774,-2.13771 10.14204,-1.7919 17.56426,1.07041 10.58794,4.08315 20.43083,13.47051 21.56571,20.56766 0.6751,4.22184 -1.8903,8.0982 -7.07656,10.69277 -5.15543,2.57916 -16.03934,11.00601 -14.26404,11.04391 0.40832,0.009 0.31463,0.19545 -0.25871,0.51568 -0.49435,0.27611 -0.96428,0.55451 -1.0443,0.61868 -0.08,0.0642 0.17796,0.74215 0.5733,1.50664 0.39533,0.76448 0.56191,1.38234 0.37019,1.373 -0.19173,-0.009 -3.4832,-2.04656 -7.31437,-4.52716 z"
       style="fill:#b7c8be;fill-opacity:1;stroke-width:0.449405" />
    <circle
       id="path1767"
       style="fill:#000000;stroke:#000000"
       cx="356.26306"
       cy="1137.2501"
       r="0.44474047" />
    <circle
       id="path1769"
       style="fill:#000000;stroke:#000000"
       cx="518.74011"
       cy="1408.9197"
       r="0.62895799" />
    <g
       transform="matrix(1.1209346,0,0,0.84677331,-812.72995,19.193889)"
       id="g2433">
      <path
         style="fill:#000000;stroke-width:1.33333"
         d="m 1052.5098,717.96411 c -1.715,-0.8692 -3.5339,-2.4805 -4.0419,-3.5804 -0.508,-1.1 -1.6169,-3.3419 -2.4642,-4.982 -0.8473,-1.64 -1.5405,-4.1546 -1.5405,-5.5879 0,-1.4334 -0.5367,-2.9378 -1.1925,-3.3431 -2.5993,-1.6064 -3.1912,-15.0926 -3.9836,-90.7537 -0.8191,-78.2011 -0.8384,-78.6272 -3.2608,-72 -1.3403,3.6667 -2.9476,7.8667 -3.5718,9.3333 -0.6242,1.4667 -2.3875,6.1656 -3.9184,10.442 -3.988,11.1399 -6.3342,15.2309 -10.1807,17.7512 -3.1617,2.0716 -3.5345,2.0694 -5.6389,-0.034 -1.9705,-1.9695 -2.2345,-5.4681 -2.1035,-27.8724 0.1421,-24.3131 1.0446,-33.8972 4.4841,-47.6203 1.5602,-6.2248 4.1104,-21.7932 6.7707,-41.3333 0.8486,-6.2333 2.095,-14.3333 2.7697,-18 0.6748,-3.6667 1.7111,-11.1667 2.303,-16.6667 1.2478,-11.5944 2.2062,-14.1072 9.1057,-23.8758 3.6998,-5.2382 8.8039,-9.7097 18.6695,-16.3553 12.5695,-8.467 14.3514,-9.2545 23.9959,-10.6062 12.1367,-1.7009 11.6365,-1.6987 23.7633,-0.1041 6.2445,0.8211 13.238,3.0612 21.0788,6.7518 6.4536,3.0377 12.2451,5.523 12.87,5.523 0.6249,0 4.3747,3.1618 8.3329,7.0263 6.368,6.2171 7.4568,8.0979 9.4551,16.3333 1.2422,5.1189 2.2569,10.3652 2.2549,11.6585 0,2.352 2.5183,7.7011 4.2475,9.0097 0.5047,0.382 1.3317,16.882 1.8376,36.6667 0.506,19.7847 1.4431,36.9827 2.0824,38.2179 0.6393,1.2351 1.1624,5.2851 1.1624,9 0,3.7148 0.6,6.7543 1.3333,6.7543 0.7334,0 1.3334,1.1646 1.3334,2.588 0,1.4233 0.6,2.9588 1.3333,3.412 0.7333,0.4532 1.3333,3.296 1.3333,6.3173 0,3.0214 0.7293,7.5101 1.6206,9.975 1.2719,3.5173 1.2719,5.04 0,7.0766 -0.8913,1.4272 -1.6206,4.8131 -1.6206,7.5242 0,4.5961 -3.6878,17.3819 -6.9225,24.0005 -0.7778,1.5914 -1.032,4.9308 -0.5649,7.4208 0.696,3.7098 0.2664,5.0749 -2.3793,7.5604 -4.3609,4.0969 -8.1035,3.2309 -8.2345,-1.9054 -0.056,-2.1832 -0.4807,-4.8694 -0.9444,-5.9694 -0.8704,-2.0646 -1.5265,-9.9712 -3.4854,-42 -1.064,-17.3977 -2.6718,-28.8528 -4.81,-34.2706 -0.7394,-1.8734 -1.3418,-1.9922 -3.4442,-0.6793 -1.9215,1.2 -2.5481,3.1326 -2.5481,7.8586 0,3.447 -0.6,6.6381 -1.3333,7.0913 -1.8397,1.1369 -1.7223,26.4111 0.1312,28.2646 1.4745,1.4745 1.368,3.4849 -1.5396,29.0687 -1.6284,14.3289 -1.8024,22.3654 -0.6204,28.6667 0.7971,4.2495 0.2779,5.3339 -5.8078,12.1312 -7.5569,8.4404 -14.1319,12.3363 -17.646,10.4556 -1.2508,-0.6694 -3.9789,-4.8315 -6.0625,-9.2493 -2.0836,-4.4177 -4.8383,-8.3664 -6.1217,-8.7747 -2.5314,-0.8056 -2.9483,-2.8613 -1.1542,-5.6922 0.6953,-1.0971 0.1204,-4.6268 -1.4777,-9.0709 -1.9816,-5.5109 -2.4003,-8.9548 -1.7268,-14.2039 1.713,-13.3511 2.2281,-43.9264 0.7647,-45.3899 -0.8094,-0.8094 -1.4059,-7.4216 -1.4059,-15.5837 0,-7.7978 -0.3948,-14.5726 -0.8773,-15.0551 -1.7208,-1.7208 -4.456,2.1644 -4.456,6.3294 0,2.3302 -0.5549,4.8068 -1.2332,5.5034 -1.7199,1.7668 -2.8176,17.7607 -3.5184,51.2667 -0.3298,15.7667 -1.1727,29.8667 -1.8732,31.3333 -0.7005,1.4667 -1.6325,9.5667 -2.0712,18 -3.6757,70.6653 -4.3236,77.273 -8.3054,84.713 -3.6997,6.9131 -13.9498,12.0696 -18.952,9.5342 z m 14.1569,-8.3707 c 1.7728,-2.7055 2.3772,-7.4148 2.7811,-21.6667 0.2838,-10.0153 1.0614,-19.4097 1.7281,-20.8764 0.6667,-1.4666 1.5193,-8.0666 1.8947,-14.6666 0.3753,-6.6 1.3248,-19.5 2.1099,-28.6667 0.7851,-9.1667 1.7044,-29.5667 2.0428,-45.3333 0.3385,-15.7667 0.9726,-29.5667 1.4092,-30.6667 0.4366,-1.1 0.6887,-5.9909 0.5603,-10.8687 -0.1338,-5.0852 0.3718,-9.2426 1.1852,-9.7453 0.7802,-0.4822 1.4185,-2.7591 1.4185,-5.0597 0,-4.5166 5.546,-13.6327 9.6202,-15.8132 2.8858,-1.5444 7.6572,-0.3814 7.8364,1.9101 1.4792,18.9117 1.8705,69.8778 0.5789,75.397 -0.7747,3.3109 -0.2437,6.9011 2.0262,13.6978 2.2634,6.7775 2.6831,9.6039 1.5884,10.6985 -1.0946,1.0946 -0.8125,2.0551 1.0678,3.6356 1.4054,1.1813 4.2923,5.4479 6.4152,9.4812 4.8684,9.2493 7.5985,9.8444 14.095,3.0728 3.8644,-4.0281 4.6934,-5.7593 4.0253,-8.4061 -1.7535,-6.9464 -2.1461,-16.4276 -0.7936,-19.1603 0.7731,-1.5619 1.75,-7.9397 2.1709,-14.173 1.0123,-14.9891 1.0119,-15.2583 -0.052,-35.4828 -0.6426,-12.2184 -0.4768,-17.7563 0.5507,-18.3913 0.9197,-0.5684 1.1702,-3.0977 0.669,-6.7545 -0.7327,-5.3451 -0.3675,-6.3752 4.2635,-12.0267 2.7856,-3.3995 6.772,-7.0637 8.8586,-8.1428 4.2039,-2.1739 4.2622,-2.1104 5.622,6.1314 0.4235,2.5667 1.3485,7.3667 2.0556,10.6667 0.7071,3.3 1.3118,13.83 1.3437,23.4 0.035,10.482 0.6242,17.9661 1.4821,18.824 0.7832,0.7832 1.4419,6.0041 1.4639,11.602 0.041,10.4782 1.686,14.4658 3.2568,7.8952 0.4893,-2.0467 1.474,-4.4636 2.1883,-5.3709 0.7143,-0.9074 0.9577,-2.5381 0.541,-3.624 -0.4166,-1.0859 -0.1838,-2.3289 0.5175,-2.7623 0.7014,-0.4335 1.2752,-3.7173 1.2752,-7.2974 0,-3.5801 0.6,-6.8801 1.3333,-7.3333 0.7333,-0.4532 1.3333,-2.5532 1.3333,-4.6667 0,-2.1134 -0.6,-4.2134 -1.3333,-4.6666 -0.7333,-0.4533 -1.3333,-3.5281 -1.3333,-6.8331 0,-3.3049 -0.691,-7.3001 -1.5356,-8.8781 -2.4407,-4.5604 -4.056,-18.6645 -4.6845,-40.9008 -0.3204,-11.3366 -1.1991,-21.3548 -1.9526,-22.2627 -0.7535,-0.908 -1.2565,-3.0326 -1.1178,-4.7214 0.1388,-1.6888 0.1859,-6.9015 0.1047,-11.5838 l -0.1476,-8.5131 -2.4729,3.1798 c -1.3602,1.7489 -5.3098,7.3402 -8.7769,12.425 -6.262,9.1839 -14.6599,16.4707 -23.2173,20.1455 -2.4569,1.0551 -7.3172,4.3046 -10.8006,7.221 -7.5496,6.321 -11.6861,8.0584 -19.1524,8.0448 -6.2634,-0.012 -20.5926,-4.0135 -24.7193,-6.9039 -6.3268,-4.4315 -25.4122,-22.7766 -28.8368,-27.7182 -2.0459,-2.9523 -4.2141,-5.3677 -4.8183,-5.3677 -1.4294,0 -3.2809,7.3817 -5.1836,20.6667 -0.8402,5.8666 -2.1393,13.6666 -2.8869,17.3333 -0.7475,3.6667 -1.8708,12.6667 -2.4961,20 -0.6253,7.3333 -1.7045,18.4333 -2.3982,24.6667 -2.3908,21.4827 -2.9842,34.6666 -1.5602,34.6666 1.6899,0 5.0235,-7.3717 9.9487,-22 2.3995,-7.1269 4.297,-11.9213 6.1931,-15.6486 0.6477,-1.2733 1.1777,-3.17 1.1777,-4.2148 0,-2.5585 8.0939,-9.2427 9.4952,-7.8414 0.6117,0.6117 1.3505,38.5955 1.642,84.4085 0.5161,81.1252 0.7608,89.6388 2.631,91.5089 0.4942,0.4942 0.8985,2.5631 0.8985,4.5976 0,2.0345 0.6,4.0699 1.3333,4.5231 0.7334,0.4533 1.3334,1.7725 1.3334,2.9317 0,5.9989 10.6467,7.7065 14.2035,2.2781 z m 43.4891,-229.4508 c 3.2326,-2.9796 9.7241,-7.309 14.4257,-9.6209 6.1889,-3.0433 9.7935,-5.9221 13.0599,-10.4305 l 4.5115,-6.2271 -6.5115,4.9998 c -3.5814,2.7499 -8.4205,5.8577 -10.7537,6.9063 -2.3332,1.0485 -4.6564,2.5766 -5.1627,3.3957 -1.0094,1.6334 -19.649,10.4853 -27.6144,13.1141 -7.2162,2.3815 -4.7661,4.5051 4.4303,3.8399 6.8284,-0.494 8.4282,-1.1963 13.6149,-5.9773 z m -23.3593,-1.3806 c -2.0167,-0.3055 -5.3167,-0.3055 -7.3333,0 -2.0167,0.3055 -0.3667,0.5554 3.6666,0.5554 4.0334,0 5.6834,-0.2499 3.6667,-0.5554 z m 19.1888,-9.6653 c 2.638,-2.1744 8.0806,-5.1824 12.0948,-6.6842 10.513,-3.9334 17.5493,-13.3568 18.9377,-25.3622 0.3817,-3.3 1.0745,-8.5336 1.5395,-11.6302 0.6413,-4.2693 0.1681,-7.03 -1.9576,-11.421 -1.5418,-3.1849 -2.8032,-6.3884 -2.8032,-7.119 0,-1.8739 -5.9969,-6.0838 -16.7596,-11.7655 -5.0822,-2.6829 -11.7921,-6.3909 -14.9108,-8.2398 -7.7908,-4.6188 -15.625,-4.7921 -21.6723,-0.4793 l -4.6573,3.3215 6,0.4175 c 6.8522,0.4768 9.3396,2.1096 6.9121,4.5371 -1.0764,1.0763 -5.1926,1.4859 -12.2467,1.2186 l -10.6255,-0.4026 -9.9859,6.3258 c -5.4922,3.4792 -11.1184,7.5808 -12.5027,9.1147 -3.1418,3.4815 -5.5513,13.1416 -5.5513,22.2562 0,6.1251 0.6747,7.8381 5.6667,14.3864 6.8859,9.0328 10.7316,12.4659 22.1773,19.798 l 8.8227,5.6517 13.3628,0.015 c 12.8557,0.014 13.545,-0.1351 18.1593,-3.9386 z m 7.1874,0.6883 c 2.5431,-1.0626 4.6238,-2.2706 4.6238,-2.6845 0,-0.7449 -9.2843,2.7896 -10.4871,3.9924 -1.1635,1.1636 1.2217,0.6315 5.8633,-1.3079 z m 24.9571,-16.4901 c 2.0167,-1.8756 3.6667,-4.2479 3.6667,-5.2718 0,-2.7318 -1.3274,-1.7675 -8.6924,6.3148 -5.4138,5.9409 -5.9018,6.8329 -2.6409,4.8274 2.2,-1.3531 5.65,-3.9948 7.6666,-5.8704 z m 4.9796,-11.9899 c -0.018,-1.9431 -0.199,-1.9783 -1.3129,-0.2547 -1.6875,2.6112 -1.6875,4.3763 0,3.3334 0.7333,-0.4533 1.3241,-1.8387 1.3129,-3.0787 z m 4.9312,0.8287 c -0.4256,-1.0637 -0.7415,-0.7478 -0.8055,0.8055 -0.058,1.4056 0.2572,2.1931 0.7003,1.75 0.443,-0.4431 0.4904,-1.5931 0.1052,-2.5555 z m -94.2441,-46.6406 c 3.3,-1.8792 8.1,-3.8087 10.6667,-4.2877 2.5666,-0.4791 7.6666,-2.795 11.3333,-5.1465 6.0088,-3.8536 6.3507,-4.3234 3.4651,-4.7612 -6.4228,-0.9743 -32.1318,8.3604 -32.1318,11.6668 0,0.6614 -2.1,3.1833 -4.6666,5.6042 -2.5667,2.421 -4.6667,5.4343 -4.6667,6.6963 0,1.262 -0.6,2.6654 -1.3333,3.1187 -0.7334,0.4532 -1.3334,1.4077 -1.3334,2.121 0,0.7134 2.85,-1.6036 6.3334,-5.1488 3.4833,-3.5453 9.0333,-7.9835 12.3333,-9.8628 z m -10,12.2239 c 1.3273,-1.4667 2.1133,-2.6667 1.7466,-2.6667 -0.3666,0 -1.7526,1.2 -3.0799,2.6667 -1.3274,1.4667 -2.1133,2.6667 -1.7467,2.6667 0.3667,0 1.7527,-1.2 3.08,-2.6667 z m 99.3333,-4 c 0,-0.7333 -0.6354,-1.3333 -1.412,-1.3333 -0.7766,0 -1.0412,0.6 -0.588,1.3333 0.4533,0.7333 1.0887,1.3333 1.4121,1.3333 0.3233,0 0.5879,-0.6 0.5879,-1.3333 z m -89.6197,-3.3333 c 2.698,-1.8334 4.4343,-3.3334 3.8585,-3.3334 -0.5758,0 -3.2544,1.5 -5.9524,3.3334 -2.6979,1.8333 -4.4343,3.3333 -3.8585,3.3333 0.5758,0 3.2544,-1.5 5.9524,-3.3333 z"
         id="path2366" />
      <path
         style="fill:#800000;stroke-width:0.726447"
         d="M 57.451533,96.754184 C 45.413203,89.035181 39.267215,83.672178 33.023235,75.438008 27.404803,68.02877 26.400878,62.35168 28.721946,51.11467 30.878819,40.672578 33.044031,38.278796 49.736018,27.882244 l 5.818113,-3.623793 9.142417,0.352193 c 10.088707,0.388647 14.454047,-0.429334 14.454047,-2.70841 0,-2.179035 -1.95108,-3.11606 -7.282576,-3.497526 -5.826465,-0.416882 -5.815792,-0.917464 0.08807,-4.13075 3.35918,-1.828295 4.249929,-1.995085 9.019968,-1.688962 4.927562,0.316231 5.961824,0.706623 14.991285,5.658601 13.135088,7.203603 22.429988,12.625495 24.450538,14.262448 2.18391,1.769306 7.41466,14.71911 7.37147,18.249587 -0.0182,1.492944 -0.63117,6.727059 -1.36201,11.631367 -2.30612,15.475364 -6.98895,22.205165 -19.64634,28.234219 -3.80966,1.814644 -8.536742,4.454277 -10.504618,5.865851 -5.988842,4.295841 -7.183535,4.565301 -20.241647,4.565301 H 64.15485 Z"
         id="path2388"
         transform="translate(1010.5848,371.59135)" />
      <path
         style="fill:#800000;stroke-width:0.256838"
         d="m 79.831116,114.34123 c -0.679846,-0.12325 -1.53885,-0.42248 -1.908899,-0.66494 l -0.672817,-0.44085 0.771035,-0.68892 c 0.433265,-0.38712 2.113359,-1.17718 3.835183,-1.80348 10.214465,-3.71544 24.710192,-10.70083 27.720582,-13.358346 0.97794,-0.863306 2.81092,-2.052887 4.54376,-2.948833 3.75438,-1.941173 7.6226,-4.462662 12.34333,-8.045963 2.0836,-1.581568 3.78836,-2.802696 3.78836,-2.713617 0,0.477152 -4.7732,6.637861 -6.46109,8.33924 -2.42341,2.442788 -4.6013,3.927765 -10.15592,6.92473 -5.00162,2.698599 -9.81265,5.851769 -12.91934,8.467409 -1.200721,1.01093 -2.934376,2.46953 -3.852572,3.24133 -2.198826,1.84827 -4.259675,2.82238 -6.934623,3.27783 -2.774542,0.4724 -8.484476,0.70676 -10.096989,0.41441 z"
         id="path2390"
         transform="translate(1010.5848,371.59135)" />
      <path
         style="fill:#800000;stroke-width:0.256838"
         d="m 24.691285,38.577393 c 0,-0.136545 0.509022,-0.821396 1.13116,-1.52189 0.622138,-0.700495 1.200023,-1.628969 1.284189,-2.063277 0.08417,-0.434307 0.218767,-1.130761 0.299112,-1.547674 0.258035,-1.338943 2.015043,-3.690945 5.367231,-7.184795 2.040439,-2.126666 3.460038,-3.837263 3.774558,-4.548288 0.613345,-1.386567 1.98446,-2.435321 5.351887,-4.093611 5.082922,-2.503085 11.565392,-4.842027 18.23549,-6.579552 3.320217,-0.8649 4.428606,-1.0428263 6.677784,-1.071968 1.483239,-0.019218 2.914789,0.054151 3.181225,0.163042 0.474678,0.193998 0.474678,0.20885 0,0.737903 -0.855342,0.953324 -6.561465,4.588877 -9.397122,5.987207 -1.511725,0.745465 -3.765477,1.667317 -5.008339,2.048558 -7.625148,2.338969 -10.368876,3.48674 -14.002777,5.857719 -3.11831,2.034576 -7.069646,5.286386 -10.857469,8.935312 -3.260611,3.141048 -5.536466,5.129579 -5.870753,5.129579 -0.0914,0 -0.166176,-0.111719 -0.166176,-0.248265 z"
         id="path2392"
         transform="translate(1010.5848,371.59135)" />
      <path
         style="fill:#800000;stroke-width:0.256838"
         d="m 118.65236,87.426427 c 0.9254,-1.299606 8.64855,-9.669312 10.06703,-10.909811 1.69085,-1.478689 2.30278,-1.577364 2.30278,-0.371331 0,1.605734 -1.93765,4.088925 -5.52202,7.076724 -2.29633,1.914144 -6.63737,4.916521 -7.10864,4.916521 -0.13542,0 -0.018,-0.320446 0.26085,-0.712103 z"
         id="path2394"
         transform="translate(1010.5848,371.59135)" />
      <path
         style="fill:#800000;stroke-width:0.256838"
         d="m 96.7557,99.661624 c 0.410354,-0.663966 8.75572,-4.092912 9.89735,-4.066627 1.08183,0.02491 -3.29729,2.233178 -7.067185,3.563787 -2.399286,0.846846 -3.122145,0.975276 -2.830165,0.50284 z"
         id="path2396"
         transform="translate(1010.5848,371.59135)" />
      <path
         style="fill:#800000;stroke-width:0.256838"
         d="m 130.14147,72.75776 c -0.20722,-0.335278 0.34841,-1.779221 1.24673,-3.239976 l 0.78974,-1.284189 0.084,0.881678 c 0.13082,1.373336 -0.18937,2.585946 -0.85984,3.256424 -0.64616,0.646154 -1.02766,0.762989 -1.26061,0.386063 z"
         id="path2398"
         transform="translate(1010.5848,371.59135)" />
      <path
         style="fill:#800000;stroke-width:0.256838"
         d="m 130.37096,72.021954 c 0.0962,-0.388468 0.51074,-1.28419 0.92111,-1.990494 l 0.74612,-1.284189 0.005,1.15577 c 0.005,1.298653 -0.76742,2.825217 -1.43005,2.825217 -0.32597,0 -0.37871,-0.154019 -0.24188,-0.706304 z"
         id="path2400"
         transform="translate(1010.5848,371.59135)" />
      <path
         style="fill:#800000;stroke-width:0.256838"
         d="m 131.174,32.642532 c -0.74308,-0.883096 -0.84778,-1.468189 -0.30032,-1.678268 0.71607,-0.274783 1.43268,0.37841 1.43268,1.305907 0,1.196684 -0.34365,1.309689 -1.13236,0.372361 z"
         id="path2402"
         transform="translate(1010.5848,371.59135)" />
      <path
         style="fill:#800000;stroke-width:0.256838"
         d=""
         id="path2404"
         transform="translate(1010.5848,371.59135)" />
      <path
         style="fill:#800000;stroke-width:0.256838"
         d="m 38.175273,30.976075 c 2.120457,-1.760316 7.98245,-5.442704 8.245497,-5.179658 0.246076,0.246076 -5.356637,4.17789 -7.542173,5.292868 -1.403948,0.71624 -1.653989,0.675993 -0.703324,-0.11321 z"
         id="path2406"
         transform="translate(1010.5848,371.59135)" />
      <path
         style="fill:#d40000;stroke-width:0.363224"
         d="m 45.245297,340.03677 c -2.100678,-1.10045 -3.261338,-2.76112 -3.261338,-4.66629 0,-0.7113 -0.400692,-1.64041 -1.07147,-2.48447 -0.652147,-0.82062 -1.143519,-1.94182 -1.255571,-2.86493 -0.101255,-0.83416 -0.279552,-2.38251 -0.396215,-3.44077 -0.116663,-1.05827 -0.52667,-2.52932 -0.911127,-3.26901 -0.390987,-0.75226 -0.864588,-2.78542 -1.074758,-4.61391 -0.555959,-4.83688 -1.043777,-33.38818 -1.473907,-86.26561 -0.375625,-46.17714 -0.826961,-74.39565 -1.303415,-81.49238 l -0.240412,-3.5809 -1.211447,0.19659 c -2.668893,0.4331 -7.842921,5.05732 -8.508925,7.60474 -0.221416,0.8469 -0.538763,2.03018 -0.705214,2.6295 -0.166451,0.59932 -1.197013,3.1328 -2.290139,5.62996 -1.093124,2.49716 -3.175094,7.97276 -4.6266,12.16799 -4.47135,12.92338 -8.2648511,21.61181 -9.4360461,21.61181 -1.3466397,0 -0.8722271,-12.0137 1.2765665,-32.3269 0.4966163,-4.69467 1.4717786,-14.50171 2.1670266,-21.79342 1.448948,-15.19647 1.956011,-19.26911 3.436947,-27.60499 0.585605,-3.29626 1.6582,-9.83428 2.383544,-14.52895 1.88546,-12.203323 3.374845,-18.758097 4.596795,-20.230456 0.553932,-0.667447 1.398802,0.139476 5.018876,4.793454 2.687546,3.455118 14.302122,15.271662 20.52901,20.885992 4.846435,4.36968 8.602348,7.23785 10.907743,8.3296 5.965636,2.82511 17.076867,5.47564 22.917688,5.46689 6.878497,-0.0103 10.309921,-1.43157 18.175906,-7.52834 5.904825,-4.57672 8.669425,-6.38804 12.588645,-8.24787 4.36623,-2.07196 9.10816,-5.448783 13.25118,-9.436432 4.15663,-4.000743 6.53573,-6.924716 11.69497,-14.373359 1.86801,-2.696935 4.42981,-6.276912 5.69289,-7.955504 l 2.29652,-3.051986 0.008,11.042905 c 0.007,10.284074 0.0583,11.153751 0.73975,12.655991 1.15516,2.546366 1.89834,10.011995 2.3343,23.449345 0.46181,14.23383 1.41165,26.36936 2.57287,32.87174 0.62036,3.47377 0.95447,4.68546 2.15332,7.8093 0.90951,2.3699 1.13011,3.72432 1.60521,9.85551 0.25977,3.35238 0.47525,4.32017 1.26008,5.65937 1.68222,2.8705 1.60971,6.92161 -0.1669,9.32461 -0.59898,0.81016 -0.81181,2.05142 -1.21468,7.08399 -0.41958,5.24128 -0.60034,6.25304 -1.28188,7.17488 -0.67547,0.91361 -0.75773,1.35892 -0.55331,2.99509 0.21018,1.68221 0.1051,2.18964 -0.84254,4.0686 -0.59548,1.18068 -1.43326,3.32513 -1.86174,4.76544 -0.84206,2.83055 -1.2617,3.39387 -1.77729,2.38575 -0.61171,-1.19609 -0.82411,-3.15608 -1.17213,-10.81607 -0.34292,-7.54785 -0.50673,-8.75961 -1.57629,-11.6603 -0.72242,-1.95924 -1.31305,-10.01702 -1.31515,-17.94243 -0.002,-7.05877 -0.57795,-18.71033 -1.07751,-21.79342 -0.92686,-5.7202 -3.39705,-18.09653 -3.7689,-18.88318 -0.59506,-1.25887 -1.43361,-1.30622 -3.6789,-0.2077 -3.2451,1.58769 -9.33355,7.51488 -12.34096,12.01412 -1.87544,2.80576 -2.1362,4.25736 -1.6186,9.01068 l 0.44202,4.05927 -0.96559,2.03278 c -0.92197,1.94093 -0.9656,2.29876 -0.9656,7.91914 0,3.2375 0.26229,10.98563 0.58287,17.21807 0.91697,17.82705 -0.0817,35.4026 -2.45579,43.21872 -0.69386,2.28438 -0.74836,3.09222 -0.55369,8.20649 0.12991,3.41291 0.50806,7.10665 0.94928,9.27236 0.73087,3.58755 0.73093,3.60512 0.0171,5.21883 -0.40422,0.91381 -2.02224,2.9604 -3.71427,4.69807 -6.37264,6.54452 -8.42726,6.08818 -13.67237,-3.03669 -2.756593,-4.79562 -5.493131,-8.73733 -7.11301,-10.24559 -1.057395,-0.98454 -1.175214,-1.93018 -0.328078,-2.63323 0.932617,-0.774 0.411136,-4.45305 -1.487659,-10.49551 -2.388939,-7.60221 -2.593456,-9.00533 -2.082811,-14.28938 0.234751,-2.42915 0.529983,-9.56533 0.656073,-15.85818 0.334383,-16.68832 -0.697517,-57.43357 -1.520218,-60.02668 -0.595553,-1.87716 -5.825849,-2.53881 -8.245906,-1.04313 -2.769511,1.71165 -6.653512,7.01704 -8.289907,11.32367 -0.395464,1.04078 -0.881261,3.22016 -1.079548,4.84307 -0.229045,1.87463 -0.617938,3.30602 -1.066356,3.92493 -1.130675,1.56055 -1.428696,3.70698 -1.438147,10.35795 -0.0049,3.43585 -0.246909,8.09419 -0.537833,10.35187 -0.552227,4.28546 -1.112612,15.67729 -1.470536,29.89375 -0.499697,19.84771 -1.251094,35.70165 -2.380575,50.22846 -0.392746,5.0513 -1.041805,13.87764 -1.442353,19.61407 -0.862605,12.35374 -1.259747,15.97966 -2.176738,19.8737 -0.855268,3.63194 -1.330335,9.30592 -1.8095,21.61181 -0.521502,13.3933 -1.037472,17.78116 -2.401293,20.42079 -1.891243,3.66045 -7.032158,5.01798 -11.044038,2.91632 z"
         id="path2408"
         transform="translate(1010.5848,371.59135)" />
    </g>
  </g>
</svg>
