<svg xmlns="http://www.w3.org/2000/svg" width="592.678" height="826.022"><g transform="translate(-114.836 -137.637)"><path d="M280.699 957.42c-1.876-13.819-7.218-33.05-12.73-29.313-13.253-1.556 16.53-4.98 7.03-25.302-1.809-40.542-6.443-81.292-15.161-120.867-4.392-31.989-25.462-49.707-37.043-78.298-12.205-30.81-34.255-58.06-31.732-93.388 3.232-38.232-12.75-75.79-2.193-113.67 6.26-29.168 21.44-56.741 25.213-87.734 1.24-38.034 34.371-56.692 56.14-82.048 7.124-31.742 42.071-47.72 70.309-57.79 19.72-6.909 41.762-2.155 60.297 5.784 16.43 3.008 36.63 8.202 42.532 10.992 17.785 7.097 16.209-12.063 16.225 6.179 32.26 9.554 61.73 24.094 88.438 45.008 26.701 16.538 54.692 36.212 67.786 66.979 9.11 10.703 16.712 45.466 21.442 32.285-2.738 19.955 18.923 42.996 4.499 43.713-2.098 15.713 2.22 33.063-4.886 41.893-9.728 35.373-17.08 73.139-24.494 109.675-9.085 33.928-26.602 64.373-38.58 96.984-7.863 39.245-7.755 84.674-.908 125.928 3.448 30.705 3.095 61.656 5.593 92.429-13.078-10.78-3.477-59.68-9.652-84.352-6.36-41.326-7.31-83.68-1.11-125.1-19.695 20.706-55.928 28.165-71.16 49.722 1.46 29.93-5.936 63.86 13.907 89.157-3.019 24.823 29.27 45.474 38.692 57.635-28.905-9.855-58.93 9.436-88.312.59-30.544-5.588-60.78-10.883-92.758-6.013-28.251-8.92-57.095 2.05-86.412.318-5.923 5.053 9.354 27.727-.972 28.604m205.837-23.748c12.536-6.952 49.497-2.92 41.618-11.446-21.619-25.557-35.767-58.848-37.859-92.49.648-16.558-6.92-46.062-4.774-45.602-12.53 1.098-49.363 14.728-70.82 16.366-31.656 8.19-55.714-6.486-83.36-19.47-24.636-4.57 17.32 35.783 29.976 38.471 17.528 19.17-32.231-12.363-37.831-21.985-5.751 26.828 37.366 43.315 40.526 50.675-19.261.158-51.54-35.985-37.136-17.723-.82 19.883 57.925 44.009 15.173 28.642-14.48-12.461-26.182-31.844-15.65-1.499 6.953 21.093 59.184 49.56 14.77 31.504-19.118 5.009-28.14-29.333-6.287-5.553 10.463 9.479-19.833-41.678-16.87-10.495-.28 19.952-43.32 41.232-33.044 51.446 29.25 1.896 58.28-8.636 86.558.182 32.812-5.09 63.595 1.368 95.184 5.555 6.28 2.332 12.783 7.44 19.826 3.422m-165.793-15.899c-18.597 3.107-31.505-25.55-9.79-7.209 8.287 1.774 32.577 7.037 9.79 7.21m10.16-6.27c-23.928-1.073-22.852-42.69-8.264-9.496 5.731 4.926 28.827 8.843 8.264 9.495m8.473-4.52c-19.066.753-33.258-41.079-11.533-13.026 1.992 7.59 34.33 11.52 11.533 13.025m-43.546-3.692c12.566-12.492 24.996-39.213 4.756-11.34-14.34 7.509 24.055-26.352 15.795-41.963-2.216-24.978 12.944-70.59-14.44-81.371-16.171-8.513-44.09-37.493-53.311-36.425 22.48 53.048 27.538 111.004 31.078 167.907-.608 24.718-.778 19.697 16.122 3.192m122.266-109.3c18.264-1.866 68.927-9.938 67.11-15.472-28.106 9.344 34.118-19.298 39.942-32.409 26.995-24.348 45.593-55.764 64.572-86.18 8.546-23.483 17.505-13.753 20.178-42.684-2.8-8.805 10.017-50.404 14.236-76.228 6.268-12.233 4.606-39.682 3.854-44.82-.6 14.504-13.226 50.562-7.36 16.737 10.696-35.223 13.792-74.054-8.806-105.204-13.864-26.798-34.671-52.136-64.256-62.077-10.643 9.622-44.801 31.968-15.124 10.187 33.27-12.138-26.515-52.478-35.606-27.449-15.029 11.672-26.09 15.864-2.767 24.307 14.067-9.29 26.661-20.725 6.915-2.26-8.65 12.143 53.888 26.516 12.606 35.09-18.963 14.286-62.816 14.312-54.584 38.501-5.48-24.44-37.393-9.114-34.208 8.495 1.051-29.624-24.68-5.032-21.97 3.75 8.574-20.19-54.844-19.954-41.18-13.588-1.849 22.506-9.686-40.616-25.232-12.677-7.477 6.97 7.36-19.45-15.683-16.855-7.601-3.126-14.468 29.313-9.19 3.207-.956-22.875-18.75-3.012-21.23 7.929 15.934-19.739-4.991-24.27-12.948-33.16 21.005-11.692-8.61-38.566-5.922-40.76-27.62 21.243-55.81 47.71-51.56 86.19 3.608 17.847-22.714 64.794-4.922 64.573 21.896-31.783 55.801-57.313 94.845-61.18 36.945-2.504 59.764 32.597 77.997 60.194 16.213 26.726 17.044 62.25 6.246 90.679-2.875 5.63-21.72 24.07-11.12 9.246-39.955-6.066-32.699 66.317 1.276 42.528-24.675-13.495 20.91-31.762 14.6.427 26.172 25.272 40.956-35.105 56.2-11.077-26.704 16.965 48.377 15.11 26.512-13.23 2.094-32.332-38.554-16.925-45.17-21.613-11.338-23.273-7.535-51.105-7.507-76.428 7.431-37.32 32.906-71.669 70.846-81.637 33.693-10.393 72.848-16.645 104.773 2.291-26.935-2.98-59.029-13.38-89.09-3.098-27.397-.499-69.46 31.383-67.452 45.006 22.71-22.567-23.488 25.263-13.206 43.107 3.517 16.567-8.778 76.168 21.268 64.354 38.714-6.312 43.408 67.192.335 57.222-23.642-13.378-44.411 23.586-65.876-3.695-34.084 32.206-64.241-31.573-24.643-44.827 30.13 4.964 29.527-33.87 26.536-47.631 6.156-27.356-11.45-51.296-26.707-73.535-18.445-34.697-61.925-35.375-94.859-23.844-43.713 17.121 50.308-11.152 3.795 4.177-25.79 6.805-58.074 31.422-54.781 58.577 9.176 12.631 25.735 45.8 2.9 16.56-25.465-35.78 34.182 56.445 3.06 20.107-10.483-9.718-22.962-48.484-23.101-45.542-.889 6.951 11.076 32.307-2.397 16.303 2.932 20.208 37.394 51.328 31.084 58.859-11.87-6.829-35.674-51.116-31.76-41.406 2.32 20.889 34.402 51.311 29.509 64.343-11.048-9.59-26.45-42.098-15.961-10.465 4.31 18.209-11.463-12.483.912 13.073 12.01 18.907 19.33 29.826 5.22 28.61 4.37 13.447 15.568 28.17 1.776 22.495 14.196 18.638 2.106 18.594-7.263 6.902 6.034 17.77 22.728 54.493 25.752 39.167-1.622 15.228 17.605 31.734 31.403 44.45 17.03 22.455 39.794 34.655 60.533 44.835 27.127 14.296 55.606 23.628 86.65 18.554m59.378-18.487c2.232-2.542 3.296-1.83 0 0m-64.737-42.618c13.088-17.794-29.5-14.945-29.197-5.337-7.74-28.057-41.8 14.73-13.052-14.538-21.666-17.63-27.659-6.226-40.098-29.486-17.526 12.072-18.256 13.109-2.12-1.85-14.516-19.712-46.418 18.324-17.83-9.272 15.2-5.55 23.563 14.142 26.627-4.19 3.458 15.664 28.24-4.235 2.648 10.423 4.682 13.67 35.77 41.24 36.006 17.932-1.282 25.024 35.298-18.976 7.596 8.494-10.467 17.888 52.663 18.933 32.445-.39 11.25 16.833 24.829-27.805 12.53 4.03-1.544 16.09 48.4-2.827 38.236-17.114 8.29 9.127 20.567-26.105 9.855 5.24 16.634-2.595 31.448-22.598 29.07-35.247 4.209 18.803 11.642-27.815 9.356-1.835-8.13 14.721 42.327-8.492 30.658 13.264-19.141-19.415-40.192 2.241-32.146 16.785-7.763-18.45-24.442 33.308-10.701-4.222 5.788-18.45-36.172 25.365-16.957 21.118 8.176 16.248-21.229-5.118-19.436 7.603 11.59-23.3-25.236 7.006-34.863 4.986 7.568 30.766-7.986-19.844-18.627 13.606m-10.221-152.073c14.075-11.198 34.304-2.138 7.525-.923 1.135-3.033-12.125 5.74-7.525.923m2.677-5.758c21.6-9.39-9.368-6.083 17.297-10.44 13.361.997-26.272 15.168-17.297 10.44m-73.547-10.354c10.701-16.037 38.786-45.713 5.816-21.1-23.345 23.07-42.356-2.686-65.338-8.613 23.285-5.532 49.2 31.051 73.71 1.967 21.689-30.87 15.928 8.24 7.697 26.208 6.812-38.93-5.742-13.57-21.885 1.538m190.166-24.219c-21.026-4.629-44.818-25.56-49.513-.67-5.09-13.437-4.478-41.2 19.027-21.698 16.311 1.12 59.445 17.79 18.778 9.756-12.446-3.176-51.31-17.076-19.06-2.676 3.252 3.029 47.408 9.687 30.768 15.288m-212.96-11.662c-20.878-2.913-45.884-36.721-55.883-14.031 28.446-18.547-5.968-16.136-11.443-12.125 39.034 1.839-34.974-30.657-1.396-19.397 30.879 33.029 64.303-34.898 96.821-3.857 23.595 11.928 37.39 29.974 6.12 41.692-10.674 4.388-22.073 13.812-34.218 7.718m18.965-3.71c17.223-6.97 45.415-20.765 15.073-35.035-16.824-17.597-43.034-16.791-61.21.517-33.787 10.303 38.126 38.98 46.137 34.517m22.569-10.709c2.065-4.296-16.593 12.144 0 0m-80.347-18.306c-4.959.77-2.248 4.073 0 0m10.5-8.946c-14.881 6.967-1.885 2.418 0 0m242.932 29.819c-13.824-6.31-47.678-13.37-44.739-25.482 21.162-9.206 43.019-41.09 68.972-31.56 23.113 19.785 47.247 24.961 72.777 5.276 18.275-2.036-55.307 23.07-16.585 11.827 42.282-7.242-29.963 4.218-2.83 11.131 21.15 19.825-.251 11.17-10.261.089 7.496 10.493 19.903 42.546 1.937 16.066-10.256-38.941-43.297 27.32-69.27 12.653m12.161-4.71c18.122-6.098 63.991-22.305 24.316-38.016-19.773-27.908-66.046 5.584-68.529 18.84 15.854 3.097 29.179 17.603 44.213 19.176m25.318-8.115c5.654-3.974-15.162 6.468 0 0m-116.03-9.03c1.09-21.92 8.838 10.555 0 0m-87.482-14.72c-13.796-40.072-69.058-15.771-83.313-17.075 33.729-15.188 72.863-17.381 93.503 18.66-2.926 2.632-8.17 6.423-10.19-1.584m114.585-6.164c13.972-19.471 38.626-35.475 62.911-34.688 13.616-1.066 77.963 21.014 37.942 13.445-31.283-13.04-65.303-12.766-90.164 12.93-3.795 1.134-6.82 8.704-10.69 8.313m17.36-15.424c17.19-8.754 1.392-6.25-3.479 2.548zm-7.364-46.002c-13.371-27.488 17.275 4.76 0 0m23.67-6.974c-18.823-25.186 15.367-6.265 1.522 3.143zm18-8.347c-30.264-17.27 21.768-3.618 0 0M489.06 784.07c-.84-2.352-1.673 2.287 0 0m9.577-8.869c24.288-15.57-14.64 3.025 0 0m13.25-4.911c22.641-16.85-19.164 7.418-4.55 2.563zm-12.58-.978c4.73-5.211-9.42 7.133 0 0m36.626-11.814c35.214-13.348 42.282-50.857 56.989-81.281 8.039-28.09-22.497 39.583-32.1 48.812-7.692 13.085-41.687 39.17-39.095 41.338 4.843-2.781 9.528-5.823 14.206-8.87m-25.33 5.282c14.186-12.01 36.422-35.58 9.222-10.091-.529.947-18.844 15.989-9.222 10.091m2.394.32c2.226-3.198-3.886 4.055 0 0m13.764-7.523c23.535-25.265-3.498-5.796-10.959 7.16 3.928-1.925 7.781-4.1 10.96-7.16m7.218-3.277c26.32-23.385 38.995-56.405 56.303-86.19 9.253-17.842-21.05 32.353-27.087 41.986-9.162 8.35-34.904 49.675-29.216 44.204m-277.426-26.076c-11.408-8.025-47.835-63.024-27.767-21.552 2.413 15.578 33.13 20.384 33.725 27.202l-2.658-2.566zm-16.587-5.195c-6.694-3.164 1.546 8.604 0 0m-25.879-53.94c-7.671-13.518-19.007-40.613-9.012-9.801.1-.591 11.262 17.117 9.012 9.8m386.988-12.715c-.682-2.356-1.397 3.264 0 0m-397.832-22.697c7.722-14.882-14.858-55.408-7.61-19.008.621 3.381 2.406 36.452 7.61 19.008m228.823-7.277c13.486-14.125-19.83 16.112 0 0M213.689 625.7c-7.487-34.366-7.94-13.624 0 0m232.098-9.771c19.668-8.521-15.16 1.261 0 0m-62.351-6.17c-3.02-4.871-3.269 8.933 0 0m-29.86-16.137c-.313-6.897-1.126 7.673 0 0m3.37-7.248c2.544-2.93-4.606 3.502 0 0m6.139-1.736c5.8-3.374-8.664 2.973 0 0M190.7 533.708c-2.036-16.192.87 27.266 0 0m445.496-38.024c1.956-23.97-3.747-20.324-1.686 1.803l.714 3.46zm-.266-26.642c.393-4.891-3.555 6.95 0 0m-404.984-2.83c3.939-5.852-8.78 9.315 0 0m-19.618-22.499c-.502-5.95-6.432 18.017 0 0m41.594 1.248c-2.51-.757-12.402 10.741 0 0m25.572-13.382c4.811-5.701-6.418 5.793 0 0m111.39-15.528c6.357-28.246-42.47-.782-9.635 1.135-1.303-3.512 13.335 5.573 9.635-1.135m18.083 1.157c39.57-7.084 77.798-19.814 113.921-37.342-17.463-17.8-49.213-33.694-73.626-48.293-9.438 7.617 9.894 66.999-13.198 76.764 9.635-27.248 18.274-79.192-16.801-91.891-11.879-3.123-2.279 40.158 16.281 18.86-26.863 6.492-13.05 24.624 1.595 19.148-22.561-2.017-26.833 27.302-7.047 31.909-7.296 3.335-18.44-9.97-15.443 7.186 14.468 10.756 3.988 14.796-3.124 6.415-2.712 7.902-24.628 24.334-2.558 17.244m21.806-45.53c-24.808-5.964 21.45-5.373 4.747 1.19zm-26.601 35.028c-3.039 1.73-9.573 12.233 0 0m-35.75 2.037c28.8-14.807 8.682-6.003 2.028-6.282 19.999-2.094 17.449-26.05-1.572-11.86 31.22-13.92 2.618-13.914-2.398-9.629 23.643.905 25.51-46.262 5.709-47.005-5.343-7.312 25.968 5.007 19.15-16.77 13.757-24.086-39.12 3.98-33.178 23.587-1.228 18.022-10.56 64.936 10.26 67.96m-5.392-43.924c32.159-12.485-2.256 9.037 0 0m1.676-14.19c-14.528-4.868 26.739-1.538 0 0m-11.952 48.454c-4.2-30.243-4.439-65.71 20.992-87.333-34.37 11.784-61.582 37.66-91.526 57.443 21.118 10.18 51.63 27.508 70.534 29.89m-56.118-42.508c20.189-8.343-12.78-42.04 3.323-57.86-1.198 17.987 7.253 68.12 24.04 35.165-16.15-15.757 2.543-72.39-2.287-25.565-3.488 36.145 33.455 20.18 26.008-6.681-.686-17.342 12.718-34.288 4.71-6.453-9.779 31.915 8.211 21.625 27.236 10.542 20.04 7.398 51.221-33.201 12.475-28.175-11.638 2.008-16.41 42.448-11.882 8.087 10.076-31.366-56.618-12.029-71.518-.303-33.737 9.702-40.186 59.316-12.105 71.243m185.635-17.312c23.25-10.087 31.247-33.398-.848-34.726-17.333-16.19-48.367-.96-38.589 17.67 14.36 28.622 51.12-41.21 27.223-4.24-20.828 12.578-4.068 21.537 12.214 21.296m-42.16-28.223c27.437-28.63-20.457-22.456-18.806 1.028 7.898.72 14.94 11.561 18.805-1.028m-19.222-4.55c21.826-14.581 10.5-24.573-7.875-20.542-14.627 8.814-7.05 32.067 7.875 20.541M133.348 943.147c25.695-24.133 38.067-58.946 34.2-93.868-.144-56.818-5.974-113.295-14.817-169.337-2.81-46.396-25.94-88.906-26.998-135.747-10.479-40.516-14.324-82.597-7.423-124.143 4.255-43.19 16.962-84.78 25.291-127.05 14.08-34.195 37.236-66.087 64.62-90.836 26.037-23.721 57.678-43.611 92.435-51.689 46.515-5.83 93.71-15.894 140.395-11.947 31.408 8.479 60.829 21.154 90.404 34.478 28.85 11.844 58.138 23.902 83.432 42.309 25.405 20.315 41.413 49.027 58.307 76.372 25.35 47.921 27.733 103.844 28.802 157.016-8.153 44.925 14.943 89.737.848 134.044-10.526 47.143-28.89 92.057-37.376 139.705-12.089 36.615-32.35 72.688-26.24 112.648-13.786 32.243 15.052 67.7 14.201 94.317-17.146-30.3-26.339-65.636-18.926-100.16-4.869-49.517 30.198-90.9 34.14-139.28 13.22-56.35 43.404-112.144 31.565-171.581-9.09-40.23 1.653-81.587-5.422-122.186-2.884-49.639-17.936-98.942-49.775-137.787-16.452-29.78-45.599-50.979-76.786-63.322-31.166-16.196-64.54-27.719-96.363-42.444-31.013-11.127-63.66-13.745-96.366-8.592-46.443 6.228-97.09 5.768-135.862 36.134-28.604 16.226-51.802 41.944-69.128 69.88-25.926 26.695-24.93 64.986-35.877 98.29-12.812 61.622-23.365 126.646-5.095 188.236 1.394 42.456 19.87 81.827 22.681 123.963 16.512 68.512 19.945 139.633 19.944 209.967-1.696 28.321-17.012 55.195-38.811 72.61" style="fill:#000;stroke-width:.660554"/><path d="M541.386 933.227c8.015 5.075 20.882 15.377 33.642 21.225 22.279-5.54 41.647-12.802 65.46-17.06 9.176 7.394 25.52-9.396 1.624-7.367-21.055 8.56-42.789.537-62.484 17.446-1.37 2.708-15.802-11.617-22.802-12.474 3.187 7.497-18.482-24.548-15.44-1.77" style="fill:#000;stroke-width:.660554"/><path d="M657.862 933.41c-.659.954-.67-.937 0 0z" style="fill:#000;stroke:#000;stroke-width:.660554"/><path d="M650.955 922.794c-6.52 26.954 22.279 17.517 4.265-.712zM138.02 952.831c21.254.895 34.784-8.347 51.52 6.97 26.007-10.257 47.289-2.382 70.543 3.858 11.935-11.772 27.918-11.036 23.363-19.731-18.327 2.712-33.02 23.648-50.052.838-25.714 1.797-47.854 10.679-68.942-3.585-8.387 5.6-24.094-.676-26.432 11.65" style="fill:#000;stroke-width:.660554"/><path d="M131.581 944.883c10.736 22.033 37.825.59 7.778-.01 1.457-13.47 42.797-31.303 26.818-51.489-9.53 11.681-14.43 32.603-33.597 39.936-19.402 29.488 43.922 20.836 6.979 8.815l-4.144.977z" style="fill:#000;stroke-width:.660554"/><path d="M310.539 522.515c-18.942-9.137-58.625-24.61-19.303-38.55 21.733-13.769 44.891-3.258 60.152 15.306 15.472 10.37-31.385 34.399-40.849 23.244M527.16 509.655c-17.675-10.929-58.087-19.522-18.413-33.221 22.684-25.97 50.08-5.125 68.65 13.377-13.77 8.675-33.887 26.74-50.238 19.844M568.303 940.214c-31.173-13.022-54.126-39.138-62.664-71.715-12.914-26.572-7.1-56.844-8.363-85.373 21.698-11.243 54.258-36.408 69.3-40.605-9.562 62.32 4.683 124.43 5.637 186.786-1.484 3.456 5.527 22.114-3.91 10.907M279.889 904.114c-2.304-57.303-8.002-115.66-29.76-169.27 10.292 3.008 49.967 30.075 63.209 44.876 4.997 34.263 9.273 74.707-10.054 105.528-28.03 26.163 22.349-16.575.14 7.719-8.375 5.66-28.51 43.116-23.535 11.147" style="fill:#000;stroke-width:.839637"/><path d="M363.222 409.738c-13.394-28.181-13.671-72.064 10.748-96.126 12.62-12.457 29.578-3.842 13.624 11.54.065 12.661-35.927 1.27-5.843 12.367 4.715 17.018 1.756 41.212-18.726 46.062 20.258-12.441 25.35-1.32 4.85 7.135 22.931-13.39 16.568 10.307-.205 13.733 23.663-9.467 17.067-4.483-.187 4.032l-2.557 2.07zm3.747-43.58c35.569-12.821-24.789 1.284 0 0m5.436-15.92c2.305-10.703-29.044 6.206 0 0" style="fill:green;stroke-width:.419818"/><path d="M440.61 411.953c17.988-17.65-14.159-12.929 0 0" style="fill:#000;stroke-width:.660554"/><path d="M438.466 402.386c-16.895 12.025 10.946 10.456-4.114 4.943-8.348 10.729 23.82-1.13 4.114-4.943" style="fill:#000;stroke-width:.660554"/><path d="M397.521 417.965c9.9-14.885 11.972-19.606 24.414-13.268-13.507-14.726-6.847-24.925 7.202-18.312-21.116-7.369-13.336-33.345 8.583-33.406-26.597 12.778-23.046-13.053-2.52-17.36-25.263 22.87-30.764-43.424-3.704-11.582 15.077 24.14 22.803 84.169-14.342 91.228-6.48 1.295-13.01 2.47-19.633 2.7m40.652-45.954c-5.815-14.96-31.562 3.9 0 0M384.528 417.84c-26.3-.109-10.682-17.289 2.161-13.884-1.579 4.213 9.685 18.12-2.16 13.884" style="fill:green;stroke-width:.419818"/><path d="M411.048 308.181c-24.126-12.822 19.911-34.641 19.165-15.536-6.875 3.773-10.11 22.597-19.165 15.536" style="fill:#ececec;fill-opacity:1;stroke-width:.839637"/><path d="M344.088 398.696c-14.747-12.721-59.762-18.406-56.952-33.111 25.162-16.574 58.689-46.304 81.755-50.273-31.084 16.904-8.142 77.328-24.803 83.384M444.132 408.464c5.203-22.304.952-60.55 3.282-76.7 24.368 14.493 55.15 29.247 72.893 48-24.678 11.493-49.496 22.652-76.175 28.7" style="fill:#fff;fill-opacity:1;stroke-width:.839637"/><path d="M357.603 794.282c-11.136-5.057-66.665-10.604-89.378-8.928-6.586.486-13.736.375-15.89-.247-8.217-2.373-24.805-2.59-46.24-.604-28.02 2.595-35.699 2.629-36.646.162-1.131-2.949 3.549-9.276 15.987-21.615 10.67-10.585 11.506-11.158 11.506-7.894 0 5.251 4.643 13.356 9.266 16.175 5.045 3.076 19.414 3.655 18.295.738-.48-1.251.804-1.997 4.44-2.578 6.408-1.025 5.167-3.034-3.884-6.289-6.356-2.285-8.541-3.969-16.463-12.681-4.94-5.434-6.57-5.83-6.57-1.598 0 2.408-.528 2.92-2.482 2.41-2.44-.639-2.437-.71.152-4.213 1.692-2.289 2.942-6.543 3.497-11.898.474-4.585 1.266-8.74 1.76-9.233 1.181-1.181 6.595 3.932 11.19 10.57 4.8 6.934 4.641 7.799-.685 3.736-5.437-4.147-8.347-4.298-8.347-.434 0 6.172 7.58 12.358 15.143 12.358 2.106 0 6.731 1.144 10.279 2.543 3.547 1.398 8.001 2.516 9.898 2.484 3.158-.052 2.516-.945-7.638-10.622-16.057-15.302-21.006-21.738-23.905-31.083-1.379-4.443-2.506-8.663-2.506-9.377s4.152 2.646 9.228 7.467c7.63 7.248 10.602 9.182 17.168 11.17 4.367 1.322 8.246 2.098 8.62 1.724s-3.258-3.6-8.07-7.167c-13.525-10.027-23.133-21.204-23.133-26.913 0-.625 3.861 1.792 8.58 5.372s11.44 7.811 14.935 9.403c17.026 7.751 17.869 4.198 1.704-7.182-6.403-4.508-14.155-10.635-17.226-13.616-5.78-5.61-11.772-16.587-11.794-21.606-.011-2.625.623-2.357 7.297 3.086 14.059 11.467 32.286 22.266 34.256 20.295 1.108-1.108-2.257-7.16-3.982-7.16-2.227 0-13.596-8.072-21.356-15.165-7.257-6.633-14.956-16.932-14.956-20.008 0-3.313 6.7-1.598 22.709 5.81 30.598 14.162 42.523 16.172 69.474 11.712 9.073-1.502 27.066-5.58 39.984-9.064s24.43-6.334 25.58-6.334c1.68 0 2.51 2.672 4.205 13.556 1.16 7.456 2.654 20.663 3.317 29.35 2.703 35.425 12.458 60.222 36.714 93.33 1.052 1.437 1.313 2.884.635 3.532-.631.603-8.762 2.013-18.07 3.134-9.306 1.12-18.957 2.888-21.445 3.928-5.876 2.454-8.796 2.351-15.153-.536m-146.255-14.081c7.795-.028 4.989-2.885-5.637-5.737-5.208-1.399-11.259-3.83-13.446-5.403-7.77-5.586-10.901-2.274-4.539 4.8 3.85 4.28 12.238 7.878 16.207 6.951 1.398-.326 4.735-.601 7.415-.61" style="fill:#b7c8be;stroke-width:1.27111" transform="translate(114.836 137.637)"/><path d="M266.95 655.445c-19.122-3.173-56.616-19.798-80.152-35.54-8.668-5.8-17.432-13.582-31.727-28.176-23.303-23.79-28.058-30.104-29.006-38.513-.611-5.424-.856-5.808-2.38-3.724-1.626 2.224-1.804 2.227-4.187.07-4.04-3.655-19.437-35.04-17.19-35.04.363 0 2.067.92 3.784 2.046 1.718 1.126 3.986 1.716 5.04 1.311 2.444-.938 2.472-5.95.05-9.152-2.401-3.175-2.413-4.374-.04-4.374 2.986 0 2.303-5.235-1.907-14.618-2.097-4.674-3.813-8.731-3.813-9.016 0-.284 1.391-.517 3.092-.517 6.71 0 5.213-7.065-4.95-23.37-4.854-7.79-5.586-9.817-4.953-13.72.409-2.52.05-6.684-.799-9.253-.848-2.57-1.326-4.886-1.064-5.149.263-.263 4.046 4.38 8.407 10.318s8.493 10.447 9.183 10.02c3.589-2.217-1.304-14.395-13.018-32.401-7.216-11.092-15.499-26.584-14.66-27.421.258-.26 4.544 5.662 9.524 13.157 10.047 15.12 19.157 25.19 21.065 23.283 2.125-2.125-.233-7.457-8.627-19.505-11.083-15.908-19.285-28.976-20.279-32.309-.702-2.355-.418-2.65 1.96-2.027 2.522.66 2.698.382 1.88-2.966-.497-2.03-1.165-5.122-1.485-6.87l-.582-3.178 1.501 3.178c13.384 28.319 15.16 31.44 21.291 37.421 3.54 3.453 6.853 5.863 7.362 5.354.508-.508-1.613-5.907-4.714-11.998-7.417-14.57-7.381-14.397-1.752-8.533 4.496 4.683 4.916 4.866 5.316 2.322.465-2.95-2.369-9.231-9.559-21.188-3.959-6.583-4.383-8.122-3.738-13.565 1.075-9.08 6.342-18.262 15.925-27.76 10.767-10.673 21.13-16.7 38.904-22.622 15.188-5.061 16.252-7.122 1.856-3.594-11.625 2.849-12.811 1.528-1.597-1.777 14.333-4.225 25.466-5.645 37.86-4.828 18.666 1.23 31.381 6.47 41.698 17.182 7.03 7.3 25.191 35.374 30.835 47.664 5.768 12.562 6.853 19.826 6.582 44.055-.23 20.54-.314 21.13-4.045 28.587-4.559 9.109-9.088 12.12-19.064 12.675-14.143.786-22.84 10.768-22.748 26.107.098 16.113 10.686 28.258 24.638 28.258 5.655 0 15.392-3.762 17.165-6.63.468-.757 2.77.295 5.567 2.543 5.69 4.572 12.1 6.65 17.325 5.614 2.097-.416 9.965-2.824 17.485-5.351 13.116-4.409 13.942-4.53 20.337-2.972 16.903 4.116 24.865 3.007 31.336-4.363 10.935-12.454 7.394-38.794-6.511-48.43-5.112-3.543-10.528-4.194-24.359-2.927-4.093.375-5.434-.135-7.9-3.003-5.424-6.305-5.737-9.387-7.052-69.512-.155-7.066 3.126-14.762 12.277-28.8 7.197-11.042 8.853-15.246 4.427-11.24-4.246 3.842-2.848-.02 2.418-6.683 9.442-11.945 31.563-26.22 46.535-30.031 32.3-8.22 46.177-8.68 83.086-2.755 11.45 1.838 21.088 3.072 21.418 2.742.936-.936-10.977-6.62-18.645-8.895-20.285-6.018-44.624-5.223-74.89 2.449-25.42 6.443-38.423 13.194-52.354 27.178-11.607 11.651-18.167 21.326-23.92 35.278-6.442 15.622-7.156 20.583-7.102 49.357.051 27.45 1.501 38.398 6.32 47.717l1.946 3.763h15.261c10.407 0 16.655.582 19.642 1.83 5.175 2.162 9.509 8.643 9.515 14.231.003 2.192.86 5.624 1.904 7.627 1.044 2.002 1.902 4.85 1.907 6.33.02 7.124-10.855 13.2-23.63 13.2-11.11 0-13.021-1.793-7.823-7.334l2.86-3.049-3.566-3.07c-1.961-1.69-4.25-3.07-5.084-3.067-2.584.008-8.79 4.405-17.407 12.332-4.544 4.18-9.619 8.32-11.276 9.199-4.55 2.412-11.033 1.924-15.36-1.158-3.382-2.408-3.87-3.517-3.87-8.785 0-8.143-3.18-11.593-10.683-11.593-10.218 0-16.05 8.83-9.656 14.618 3.442 3.115 3.22 3.964-1.46 5.595-5.914 2.062-9.227 1.718-13.146-1.364-10.445-8.217-10.84-26.18-.813-36.931 3.891-4.172 5.775-5.17 10.843-5.74 5.823-.657 6.09-.554 5.27 2.032-1.46 4.6 1.26 3.064 8.584-4.847 6.522-7.044 7.199-8.38 9.742-19.214 7.451-31.737 3.204-59.5-12.851-84.014-35.686-54.487-60.642-65.731-106.574-48.018-22.675 8.744-44.969 27.151-64.48 53.239-.23.308-1.388-.41-2.572-1.593-3.14-3.14-2.397-10.427 2.944-28.838 4.014-13.837 4.734-18.433 5.577-35.591 1.082-22.044 3.33-30.166 12.208-44.103 4.773-7.494 23.597-27.062 33.1-34.41l5.221-4.036 4.991 7.908c9.264 14.678 10.375 20.878 4.906 27.378-1.748 2.077-3.178 4.07-3.178 4.43s3.707 3.568 8.238 7.129c9.753 7.664 11.075 10.956 7.183 17.882-1.49 2.652-2.71 5.492-2.71 6.312 0 2.827 2.836-.273 5.257-5.745 2.45-5.538 7.645-10.71 10.758-10.71 3.135 0 4.67 5.194 3.913 13.242-.592 6.295-.444 7.29.795 5.354 6.69-10.456 6.54-10.323 12.18-10.73 7.817-.566 10.315 2.04 10.315 10.762 0 7.457 1.359 8.51 4.6 3.565 1.163-1.776 3.203-3.812 4.533-4.523 3.519-1.884 8.586 4.071 12.968 15.24 1.95 4.97 4.067 9.037 4.704 9.037 1.065 0 1.32-.969 1.67-6.356.293-4.498 24.916-2.388 34.471 2.955 4.047 2.263 5.138 3.652 5.458 6.952.427 4.4 2.778 4.431 2.778.038 0-1.44 2.22-4.838 4.934-7.552 7.94-7.94 13.965-6.165 14.247 4.197l.115 4.215 1.263-4.403c1.91-6.655 5.943-11.521 11.728-14.148 9.202-4.18 14.918-2.553 19.932 5.67l2.429 3.983.005-5.229c.004-4 .822-6.047 3.483-8.708 3.306-3.306 11.736-8.307 14.002-8.307.582 0 1.728 2.504 2.547 5.566 1.509 5.64 3.839 7.662 7.301 6.333 2.9-1.112 2.304-3.732-1.95-8.576-4.311-4.911-4.283-4.951 5.938-8.468 8.761-3.014 9.359-3.04 9.359-.39 0 2.345 6.489 13.155 7.9 13.159 1.786.004 3.742-5.373 3.012-8.282-.409-1.63-2.33-4.277-4.271-5.884l-3.528-2.921 4.481-2.404c2.465-1.322 7.913-3.626 12.108-5.12 6.416-2.285 7.687-3.24 8.01-6.021.29-2.497-.793-4.34-4.425-7.529-2.772-2.434-4.158-4.44-3.27-4.735.845-.283 7.413-4.758 14.593-9.946 7.181-5.188 13.73-9.435 14.553-9.437 2.99-.007 18.51 8.918 26.333 15.143 12.94 10.297 22.51 22.638 37.54 48.41 8.745 14.992 12.297 24.974 14.399 40.463 1.778 13.098-.03 33.403-4.545 51.056-4.044 15.81-5.365 25.422-3.494 25.422 1.675 0 3.234-3.756 6.596-15.888l2.465-8.898-.626 13.346c-.344 7.341-1.24 15.349-1.99 17.796-4.594 14.982-15.629 68.48-16.538 80.183-1.219 15.68-2.732 19.918-10.18 28.52-3.015 3.483-6.615 8.906-8 12.052-5.42 12.317-33.364 54.35-46.47 69.901-19.06 22.613-32.872 34.055-61.987 51.349-5.209 3.094-5.799 3.809-3.746 4.54 3.018 1.075-6.594 3.864-25.951 7.53-31.736 6.011-55.263 7.686-71.085 5.061m97.778-18.897c0-.699-.252-1.27-.56-1.27s-.915.571-1.347 1.27-.18 1.272.56 1.272c.741 0 1.347-.572 1.347-1.272m-63.555-46.22c0-2.089 4.077-5.895 6.314-5.895 1.16 0 3.752 1.716 5.761 3.813 4.896 5.11 6.111 4.807 5.085-1.27-.747-4.42-.55-5.085 1.507-5.085 1.301 0 8.907-3.141 16.9-6.98 9.607-4.614 14.963-6.553 15.796-5.72.833.832.743 1.777-.265 2.785-.839.839-1.507 2.412-1.485 3.496.033 1.592.388 1.511 1.85-.42 1.613-2.13 2.43-2.233 7.514-.953 3.137.79 7.204 1.436 9.039 1.436 2.888 0 3.28-.468 2.932-3.495-.28-2.444-1.042-3.39-2.53-3.144-3.474.573-3.944-2.024-1.178-6.5 3.483-5.635 18.24-19.6 18.832-17.821.259.777-.697 4.486-2.125 8.242-3.135 8.25-3.318 12.128-.319 6.75 5.367-9.622 8.334-11.869 11.677-8.843 2.264 2.049 2.327 1.924 1.635-3.234-.9-6.714 2.145-12.871 8.227-16.63 5.673-3.506 13.86-2.704 19.972 1.958 4.36 3.325 4.414 3.332 5.799.744 1.927-3.601.426-7.441-3.272-8.37-1.699-.426-8.05-.196-14.113.51-14.12 1.646-14.86 1.348-14.069-5.671.876-7.77-.996-8.01-3.507-.45-2.43 7.317-3.77 8.619-5.612 5.454-1.112-1.91-1.318-1.674-1.362 1.563-.09 6.692-5.558 16.124-13.266 22.88-6.96 6.1-11.88 8.988-13.15 7.718-.328-.329.041-2.428.821-4.666 2.574-7.384 1.57-8.09-3.576-2.514-3.64 3.941-5.65 5.202-7.41 4.644-2.056-.653-2.335-.23-1.882 2.855.762 5.192-8.275 12.91-19.386 16.558-9.945 3.264-13.757 3.425-16.489.693-2.143-2.143-1.824-4.617 1.417-10.989 2.465-4.845 1.227-4.372-4.158 1.59-5.12 5.667-6.245 6.016-9.6 2.98-2.45-2.218-3.313-.664-.946 1.703.759.758 1.188 2.731.954 4.384-1.3 9.181-33.83 6.919-35.159-2.445-.302-2.135 1.222-4.417 5.72-8.566 3.374-3.111 5.507-5.662 4.741-5.67-.765-.008-2.48 1.19-3.81 2.659-1.33 1.47-4.034 3.508-6.008 4.529-4.202 2.173-7.189.586-7.27-3.861-.04-2.184-.38-1.945-1.766 1.236-.943 2.168-2.548 4.26-3.566 4.651-2.768 1.062-11.427-3.257-17.463-8.71-4.787-4.325-12.747-14.498-12.747-16.292 0-.384 2.288-1.865 5.085-3.292 2.796-1.427 5.084-2.832 5.084-3.124 0-.291-2.098-.189-4.662.227-4.029.654-5.041.282-7.446-2.733l-2.783-3.49-.785 3.924c-.892 4.459-4.258 5.156-9.746 2.018-1.748-.999-6.062-1.837-9.587-1.861-5.94-.042-6.818.372-12.022 5.675-3.088 3.146-5.352 5.717-5.031 5.714.32-.003 3.396-1.433 6.835-3.177 3.44-1.745 7.901-3.173 9.915-3.173 3.96 0 11.161 3.202 11.161 4.964 0 .597-2.665 3.269-5.922 5.938-7.365 6.035-5.195 7.272 2.938 1.676 5.641-3.882 6.083-3.989 7.353-1.781 3.439 5.978 10.062 11.906 15.639 13.997 7.357 2.76 16.589 7.473 20.032 10.227 2.49 1.992 2.43 2.135-2.86 6.877-2.971 2.664-5.402 5.161-5.402 5.55s2.43-.683 5.402-2.382c7.39-4.226 11.41-4.02 15.458.792 1.81 2.15 3.29 4.566 3.29 5.367 0 .8.876.207 1.945-1.32 3.487-4.977 19.247-7.24 26.02-3.734 3.265 1.69 3.575 2.986 2.031 8.487-.856 3.051-.813 3.08 1.081.71 1.085-1.357 1.973-3.028 1.973-3.713m-3.178-147.66c8.547-1.074 11.007-1.897 10.478-3.506-.279-.848-2.926-1.72-5.883-1.936l-5.376-.395 6.69-3.419c3.679-1.88 6.905-4.134 7.17-5.008.531-1.76-4.418-2.113-11.047-.787-3.173.634-3.85 1.29-3.256 3.16.57 1.796-.331 2.874-3.78 4.519-5.08 2.422-6.03 4.33-1.67 3.351 2.2-.494 1.907-.03-1.27 2.007-5.052 3.238-5.287 4.518-.636 3.453 1.922-.44 5.783-1.088 8.58-1.44m-69.828-26.708c6.492-7.151 10.285-10.427 11.112-9.6.82.82.835 4.366.043 10.22-.668 4.93-.776 8.964-.242 8.964 2.118 0 6.588-18.655 6.692-27.931.148-13.116-1.88-13.361-13.29-1.607-4.726 4.868-11.245 10.135-14.488 11.705-7.721 3.737-13.462 2.897-31.857-4.665-9.551-3.927-16.56-5.965-22.119-6.432-5.946-.5-7.893-.29-7.233.777.496.803 1.584 1.448 2.416 1.432.833-.015 8.573 3.544 17.2 7.91 13.738 6.951 16.752 7.997 24.275 8.422 10.037.567 12.634-.503 26.511-10.923 5.1-3.83 9.508-6.727 9.795-6.44.288.288-2.74 4.798-6.73 10.022-13.177 17.26-14.384 19.002-13.157 19.002.67 0 5.652-4.886 11.072-10.856m181.76-13.853c2.195-1.627 2.257-2.042.56-3.755-1.048-1.059-8.892-3.914-17.432-6.345-14.087-4.01-22.103-7.03-18.794-7.08.7-.01 5.847 1.425 11.44 3.191s14.173 3.566 19.067 4c8.07.717 8.741.6 7.213-1.25-1.824-2.21-17.08-7.617-27.958-9.908-3.72-.784-9.154-2.792-12.076-4.463-8.794-5.028-14.999-3.517-16.916 4.121-.946 3.772.07 18.568 1.427 20.763.602.974 1.753-.285 3.187-3.487 3.843-8.584 8.82-8.779 28.392-1.11 21.242 8.322 18.684 7.7 21.89 5.323m-186.681-15.52c18.809-8.595 23.269-12.503 23.269-20.387 0-7.307-5.467-13.325-22.178-24.415l-12.651-8.396h-9.144c-8.876 0-9.719.29-28.664 9.835-26.063 13.133-34.246 14.003-44.776 4.757-4.004-3.516-14.78-6.868-13.043-4.057.46.744 5.405 4.554 10.989 8.466 5.583 3.913 10.152 7.6 10.152 8.194s-2.256 1.44-5.012 1.881-5.364 1.372-5.795 2.07c-1.077 1.742 6.48 1.618 11.478-.19 4.528-1.637 11.212-.507 10.453 1.767-.272.818-2.11 2.382-4.084 3.476-3.8 2.107-8.218 7.654-6.096 7.654 1.262 0 7.984-4.785 9.29-6.613 1.292-1.81 8.89 1.339 20.027 8.298 13.447 8.404 15.355 9.401 23.61 12.339 10.799 3.842 14.806 3.26 32.175-4.678m206.058-7.946c2.655-1.354 9.946-6.303 16.203-10.998s13.843-9.646 16.858-11.003c4.945-2.225 5.765-2.28 8.385-.564 1.597 1.047 3.665 3.806 4.596 6.132 2.413 6.031 8.993 15.034 10.988 15.034 2.394 0 2.084-2.107-1.592-10.804-5.269-12.469-5.076-11.696-2.334-9.369 2.934 2.49 10.053 6.191 11.91 6.191 4.3 0-3.88-11.856-9.71-14.073-5.973-2.271-2.069-5.5 11.379-9.41 4.01-1.166 7.292-2.385 7.292-2.709s-3.003-.254-6.673.155l-6.674.744 8.898-3.953c10.208-4.535 12.068-5.94 9.28-7.01-1.097-.42-4.537.997-7.859 3.239-18.565 12.53-37.9 11.589-59.256-2.882-15.957-10.812-26.9-9.698-46.588 4.742-6.186 4.538-15.68 11.252-21.099 14.922-10.748 7.278-12.04 9.977-6.991 14.594 4.149 3.793 9.604 6.359 29.553 13.899 19.526 7.38 24.23 7.819 33.434 3.123m-94.827-20.148c.76-3.06-.654-8.289-2.4-8.87-2.124-.709-3.481 7.004-1.626 9.24 2.043 2.462 3.353 2.341 4.026-.37m-82.47-13.197c1.846-2.951-6.322-13.719-15.265-20.123-11.012-7.885-17.5-9.595-35.987-9.485-14.332.085-17.099.495-28.235 4.176-12.054 3.984-16.46 6.534-11.29 6.534 1.415 0 8.456-1.142 15.647-2.537 37.563-7.288 53.567-3.332 63.206 15.626 3.803 7.48 4.812 8.59 7.509 8.262 1.713-.208 3.7-1.312 4.414-2.453m116.965-17.067c22.699-20.791 48.955-25.735 80.476-15.154 5.487 1.842 12.693 3.67 16.015 4.064 14.446 1.711 1.397-5.132-22.61-11.857-30.344-8.5-54.283-2.147-76.983 20.428-4.823 4.796-8.769 9.2-8.769 9.788 0 2.578 3.38.509 11.87-7.269m44.907-69.934c1.043-2.717-1.737-5.124-7.802-6.755-7.411-1.994-8.896.305-3.264 5.051 4.824 4.065 9.863 4.841 11.066 1.704" style="fill:#b7c8be;stroke-width:1.27111" transform="translate(114.836 137.637)"/><path d="M128.937 815.12c-2.097-1.126-5.387-3.55-7.31-5.386l-3.499-3.337-18.945 2.33c-22.553 2.774-32.743 2.236-42.533-2.246-5.836-2.672-7.85-3.04-11.263-2.056-6.23 1.795-15.99 1.93-17.676.245-1.135-1.135 1.684-4.743 11.92-15.25 14.826-15.222 17.778-20.728 15.15-28.266-1.065-3.056-.983-5.615.346-10.717 3.138-12.045 3.48-22.44 2.072-62.953-2.287-65.829-6.325-103.934-15.971-150.718-1.73-8.389-3.973-21.259-4.985-28.6-1.011-7.34-5.263-27.646-9.449-45.124-7.202-30.074-8.872-38.718-11.543-59.742-.622-4.894-2.59-15.723-4.373-24.066-6.196-28.987-6.694-67.021-1.39-106.223 2.864-21.179 9.129-54.776 12.679-68.004 1.688-6.292 4.87-19.734 7.069-29.871 7.05-32.493 10.686-40.472 31.859-69.911C73.3 88.255 81.958 78.09 93.568 67.1c10.484-9.923 40.407-30.866 53.165-37.209 16.826-8.365 41.06-14.357 73.089-18.072 9.438-1.094 26.884-3.189 38.768-4.654 35.162-4.336 65.691-2.215 91.52 6.358 4.195 1.392 17.065 6.594 28.6 11.56a7535 7535 0 0 0 34.956 14.945c29.71 12.569 60.27 27.623 72.341 35.636 15.675 10.406 29.433 24.05 40.07 39.74 4.5 6.636 11.311 16.641 15.138 22.234 14.41 21.062 27.367 53.37 33.137 82.622 5.524 28.004 6.994 48.358 7.07 97.876.066 43.134.307 48.282 2.911 62.13 6.428 34.19 2.638 61.79-16.862 122.816-9.116 28.529-13.893 46.361-15.833 59.107-1.735 11.394-7.676 30.172-18.489 58.437-10.632 27.792-13.251 39.315-14.641 64.403-.645 11.634-1.524 23.36-1.954 26.058-1.06 6.66 1.447 28.079 4.74 40.497 1.484 5.593 4.964 15.317 7.735 21.609s5.316 12.95 5.656 14.797c.58 3.143.266 3.397-4.907 3.97-3.04.337-9.816 1.492-15.06 2.569s-14.588 2.56-20.767 3.297c-11.098 1.324-22.992 5.576-27.818 9.943-2.104 1.905-2.26 1.836-2.274-1.013-.091-17.657-4.421-82.641-6.599-99.025-3.682-27.711-3.984-76.738-.61-99.41 2.515-16.913 3.872-20.836 19.776-57.177 15.804-36.113 19.844-48.303 26.252-79.204 11.632-56.09 18.067-82.893 21.821-90.884 1.472-3.134 2.267-9.336 2.688-20.974.517-14.255.923-16.752 2.963-18.185 3.28-2.304 3.012-4.685-2.111-18.839-2.462-6.8-4.607-15.118-4.767-18.485s-.72-6.125-1.244-6.13c-.525-.005-.954.69-.954 1.544 0 3.133-4.75-3.666-8.191-11.722-6.408-15.004-19.74-38.636-26.502-46.98-9.01-11.117-22.633-22.658-42.864-36.313a16417 16417 0 0 1-27.824-18.82c-13.747-9.33-37.26-20.949-55.414-27.38-13.472-4.774-13.997-5.099-14.38-8.913-.22-2.177-.579-3.959-.798-3.959s-2.417.843-4.882 1.873c-4.142 1.73-5.142 1.648-13.184-1.086-4.786-1.627-15.28-4.49-23.32-6.361-8.04-1.872-19.766-5.067-26.058-7.102-24.338-7.867-40.609-7.415-63.192 1.76-29.032 11.793-46.738 25.214-54.968 41.664-2.476 4.95-4.502 9.645-4.502 10.435s-7.475 8.864-16.612 17.942c-26.11 25.945-35.349 39.118-38.008 54.195-.66 3.74-2.11 12.234-3.224 18.876-1.128 6.735-6.472 25.567-12.083 42.582-5.532 16.779-10.989 34.51-12.125 39.404-3.77 16.228-3.755 32.671.06 66.098 2.489 21.803 3.287 33.858 2.8 42.253-.822 14.143.782 27.025 4.9 39.368 4.559 13.66 33.558 73.359 43.615 89.788 15.026 24.546 16.236 27.645 21.816 55.878 6.465 32.708 12.674 82.077 12.674 100.766 0 3.68.673 9.605 1.495 13.167 1.856 8.037-.197 13.247-7.06 17.922-2.522 1.718-4.59 3.553-4.595 4.077-.008.885 3.172 1.354 4.307.636 2.536-1.605 11.08 14.912 8.72 16.857-.528.435-5.136 2.67-10.24 4.967-11.4 5.128-17.402 5.998-22.498 3.261" style="fill:#535d6c;stroke-width:1.27111" transform="translate(114.836 137.637)"/><path d="M178.207 217.26c-4.147-2.203-8.695-7.014-10.93-11.56-2.711-5.516-3.69-9.85-3.703-16.378-.036-18.399 10.498-34.337 26.73-40.442 1.7-.64 3.988-1.78 5.084-2.535 1.097-.754 4.054-2.346 6.572-3.537 16.486-7.797 38.502-12.77 50.172-11.333 4.312.53 8.342 2.03 10.303 3.832 2.604 2.394 3.313 6.304 2.11 11.63-.83 3.676-2.212 14.74-1.882 15.07.14.14.35-.027.467-.371 4.116-12.1 7.93-19.007 11.523-20.865.709-.367 3.065-.789 5.236-.939 9.134-.63 14.508 2.129 14.508 7.45 0 1.751-.326 2.555-1.999 4.93-1.099 1.561-2.121 3.4-2.272 4.086-.334 1.52-4.93 6.029-8.326 8.166-5.484 3.453-10.872 4.832-15.482 3.963l-2.744-.518-4.41 2.546c-6.496 3.75-13.121 6.845-16.551 7.73-2.722.702-3.211.714-4.898.116-2.583-.915-3.542-2.802-3.528-6.948.011-3.301.607-6.286 3.3-16.53 1.728-6.57 2.227-11.15 1.316-12.06-.94-.942-3.055 1.911-4.616 6.225-2.052 5.67-2.992 12.506-2.24 16.291.834 4.2.663 9.12-.44 12.65-2.901 9.285-12.005 15.562-18.58 12.81-2.095-.877-4.554-3.824-5.728-6.863-1.193-3.09-1.348-7.783-.697-21.104.409-8.371.241-10.526-.82-10.526-.92 0-2.047 2.745-3.11 7.583-.795 3.61-.954 5.85-.965 13.54-.011 8.263.093 9.574 1.006 12.728 1.126 3.883 2.328 6.501 4.023 8.761l1.118 1.491-1.057 2.011c-2.894 5.505-7.077 9.092-9.884 8.475-6.124-1.345-11.584-18.444-12.374-38.754-.277-7.105-.308-7.289-1.125-6.55-.463.42-1.48 2.06-2.261 3.646-2.763 5.613-2.267 11.765 2.078 25.738 4.094 13.169 4.699 16.377 3.855 20.442-.563 2.71-2.631 5.533-4.925 6.719-1.069.553-1.418.48-3.854-.815M297.246 170.893c-2.821-1.411-6.227-4.34-7.171-6.165-.908-1.756-.887-4.82.046-6.787 2.43-5.122 11.173-10.206 17.502-10.179 6.252.027 9.6 4.934 5.836 8.553-.886.852-2.744 3.47-4.13 5.818-5.482 9.294-7.741 10.932-12.083 8.76M312.373 176.73c-2.843-1.351-5.55-2.458-6.017-2.46-.762-.003-.819-.25-.562-2.436.39-3.31.54-3.6 2.608-5.033 2.457-1.703 7.517-7.235 7.857-8.591.322-1.285 2.79-2.49 6.783-3.316 5.155-1.064 8.873.426 9.406 3.77.366 2.298-2.012 7.1-5.675 11.462-1.498 1.785-3.048 4.054-3.443 5.043-.883 2.205-2.977 4.046-4.588 4.03-.66-.006-3.527-1.118-6.37-2.469M357.538 200.565c-6.276-1.384-10.722-3.836-12.058-6.652-1.489-3.138-.95-4.45 3.295-8.029 4.69-3.954 13.482-14.7 13.482-16.478 0-1.15-1.194.238-4.786 5.563-2.612 3.874-3.998 5.47-5.865 6.755-1.345.926-3.502 2.852-4.794 4.28-2.84 3.14-7.05 5.345-10.171 5.33-4.213-.02-7.088-2.3-9.622-7.63-1.852-3.895-1.961-8.48-.285-11.909 2.192-4.481 6.95-8.14 13.502-10.383 3.474-1.189 11.803-1.19 15.28 0 3.323 1.136 5.315 2.169 7.721 4.006 1.66 1.267 2.564 1.596 5.124 1.87 11.733 1.256 18.186 5.768 18.154 12.695-.01 2.319-.809 4.222-3.482 8.303-1.27 1.94-3.11 3.647-7.593 7.047-3.254 2.468-6.53 4.805-7.28 5.193-1.677.867-6.783.886-10.622.04" style="fill:#b7c8be;fill-opacity:1;stroke-width:.449405" transform="translate(114.836 137.637)"/><path d="M398.21 227.247c-6.973-4.515-10.747-7.651-11.945-9.927-1.336-2.538-.982-3.184 4.866-8.865 3.028-2.94 5.391-5.462 5.251-5.603-.14-.14-2.263 1.227-4.718 3.04a496 496 0 0 1-8.445 6.08l-3.98 2.784-3.053-1.167c-4.69-1.792-8.587-4.328-9.574-6.23l-.847-1.631 1.18-2.012c1.27-2.168 1.44-2.313 6.631-5.663 4.631-2.988 8.068-6.204 10.366-9.7 1.498-2.278 2.378-3.12 4.152-3.968 4.468-2.138 10.142-1.792 17.564 1.07 10.588 4.084 20.43 13.471 21.566 20.568.675 4.222-1.89 8.098-7.077 10.693-5.155 2.58-16.04 11.006-14.264 11.044.408.009.315.195-.259.516-.494.276-.964.554-1.044.618-.08.065.178.742.573 1.507.396.764.562 1.382.37 1.373-.191-.009-3.483-2.047-7.314-4.527" style="fill:#b7c8be;fill-opacity:1;stroke-width:.449405" transform="translate(114.836 137.637)"/><circle cx="356.263" cy="1137.25" r=".445" style="fill:#000;stroke:#000"/><circle cx="518.74" cy="1408.92" r=".629" style="fill:#000;stroke:#000"/><path d="M963.22 1098.9c1.73-6.013 2.13-12.279 2.832-18.463.511-4.508.27-1.594.452-3.945l-11.847 2.342c-.683-.602-1.346-2.384-2.049-1.805-1.122.923-.638 2.835-.933 4.258-1.7 8.215-2.8 16.462-3.878 24.779-.888 8.248-1.467 16.55-1.412 24.852.01 1.48.029 2.963.18 4.434.063.606-.147 1.7.458 1.769 4.726.538 9.512-.061 14.268-.092 1.5-5.723.781-2.629 2.071-9.304.111-1.141-16.032-2.715-16.143-1.573-.313 7.058-.404 3.821.059 9.714 4.666.88 9.254 2.421 13.998 2.64.714.033.686-1.268.889-1.954.427-1.451.721-2.94.992-4.428 1.476-8.093 2.02-16.31 2.854-24.482.64-8.354.844-9.961 1.173-18.082.028-.687.378-10.396.11-12.058-.383-2.383.41-6.154-1.85-7.001-3.964-1.487-8.402 1.054-12.603 1.581-.446.888-.99 1.732-1.339 2.663-2.664 7.124-2.523 15.646-2.697 23.146-.071 1.02 14.344 2.028 14.415 1.009z" style="fill:#000" transform="matrix(.50784 0 0 .57948 -246.995 39.046)"/><path d="M555.38 729.371c-38.849-12.558-82.023-10.83-117.648-33.245-48.978-25.192-95.97-54.69-135.425-93.529-36.67-21.38 18.453-61.04 32.944-23.542 31.088 29.229 66.02 55.301 106.313 70.03 51.296 25.465 111.288 30.384 167.367 21.894 32.029-1.834 49.58-31.427 71.204-50.977-33.713-9.754-21.427-54.487-38.172-78.635-11.086-24.645 4.544-45.036 29.339-44.143-5.504-50.142-6.976-101.893-10.986-152.69-3.761-69.358-8.584-139.148-2.74-208.473-3.825-25.337 24.317-71.036 41.49-30.553 17.97 38.178 11.944 81.67 14.976 122.569 1.242 65.938-.998 131.87-2.79 197.776 1.952 28.814-7.137 58.786.87 86.753 20.041 10.425 36.946 25.428 24.983 51.011-1.3 18.343 5.842 37.8.409 56.095-27.424 15.412-21.522 59.037-53.758 71.04-28.765 24.568-68.398 32.872-104.743 38.774-7.878.261-15.756-.086-23.634-.155M577.12 724c24.184-8.271 38.712-62.921-1.658-45.13-12.925 7.99-25.368 36.28-26.91 42.945 8.964 3.158 19.411 6.745 28.567 2.185m30.597-2.907c28.14 3.492 48.156-68.628 7.618-48.818-18.013 13.626-13.764 43.651-35.865 53.878 9.576-.551 19.044-2.398 28.247-5.06M541.3 717.75c29.593-7.973 23.425-60.191-8.603-35.927-12.128 15.987-33.392 41.146 1.187 36.732l3.735-.142zm90.53-3.274c36.023-1.283 48.774-36.311 37.163-66.121-19.98-20.117-31.457 31.404-29.976 47.655.583 3.482-22.645 25.174-7.187 18.466m-114.362-13.355c33.557-29.097-38.188-41.546-40.807-7.145-27.576 13.819 37.02 28.352 40.807 7.145m-50.36-1.755c38.722-15.56-2.948-56.18-21.185-20.283-27.307 12.284 8.58 23.237 21.185 20.283m213.283-8.51c31.254-5.269 20.814-72.295-4.135-64.089-13.679 21.48 7.859 50.5-4.42 72.361 2.984-2.622 5.562-5.658 8.555-8.271M438.7 680.829c39.754-18.056-22.262-48.981-35.564-19.762-24.55 9.087 29.456 25.45 35.563 19.762m270.223-17.367c19.053-12.582 1.1-62.696-12.265-39.327 3.606 5.447 1.575 59.692 12.265 39.327m-310.134-1.68c49.812-13.755-32.693-49.765-30.514-10.691 9.052 4.714 19.444 18.572 30.514 10.692m-26.328-24.024c31.147-10.669-23.033-50.45-37.142-22.44-17.857 7.713 29.455 34.825 37.142 22.44m358.306-17.059c26.26-34.038-33.84-30.115-51.942-38.066-45.045-17.238-9.204 43.917 17.799 33.004 11.94-2.516 24.351 7.653 34.143 5.062m-45.447-2.505c-3.491.738-1.447 2.924 0 0m-345.05-6.737c25.085-15.479-31.972-55.411-45.802-38.218-.637 20.31 24.15 48.593 45.803 38.218m394.083-26.874c9.146-33.138-36.116-40.99-56.915-52.173-19.425-7.744-47.142 17.29-17.892 26.664 5.702 29.01 46.824 25.954 69.83 26.633zm2.545-33.532c-3.662-40.47-57.879-44.85-89.238-46.044-16.912 16.706 2.942 34.514 19.753 22.759 25.056 1.576 44.407 22.443 69.485 23.285m-31.382-40.85c7.51-23.179-13.673-44.021-32.34-40.307-5.51 26.705 7.828 36.635 32.34 40.307m.36-48.7c13.593-29.373-20.202-33.877-37.266-36.64-9.845 19.503 33.768 78.053 37.267 36.64m.203-32.015c8.06-20.903.756-45.146-23.358-43.674-28.405-26.99-17.242 47.799 9.365 42.362l7.067 1.25zm2.357-45.424c6.477-21.059-.738-42.49-25.49-38.77-33.366-30.71-20.253 38.552 6.215 38.943 4.236 1.614 16.753 6.086 19.275-.173m1.382-64.394c17.31-29.384-49.016-42.701-48.655-39.993-10.256 30.95 14.451 75.703 48.18 62.988 1.157-7.483.134-15.37.475-22.995m0-52.054c7.797-31.331-34.3-25.766-49.862-42.643-11.892 29.651 12.588 64.982 46.308 60.415 7.473-.274 1.63-13.063 3.554-17.772m.149-47.15c13.11-31.309-34.15-39.578-51.493-41.724-11.874 27.546 27.2 77.4 51.104 52.115.314-3.458.312-6.926.389-10.391m-1.312-41.213c8.285-29.398-22.15-51.904-45.36-49.957-16.753 30.413 10.959 58.432 42.041 57.32 2.882-1.095 3.692-4.655 3.319-7.363m-4.86-43.535c7.849-26.944-41.802-64.692-38.542-18.718 8.336 11.57 24.068 20.378 38.543 18.718m195.308 79.907c2.137-4.525 3.172-.525 0 0m-26.672-132c2.138-4.525 3.172-.525 0 0" style="fill:#000;stroke-width:.92757" transform="matrix(1.17136 0 -.0439 1.22912 -173.203 29.703)"/><path d="M356.68 639.87c-16.05-6.726-40.566-23.543-9.553-31.054 21.834-14.054 54.723 33.016 15.543 31.752zM532.116 718.189c-38.475 6.143-4.862-33.393 9.58-40.981 38.952-6.963 12.816 44.774-9.58 40.98M713.641 586.336c-28.141.432-47.727-13.392-62.47-32.82-14.589-29.739 43.303-22.808 56.428-7.076 23.095 4.215 47.532 45.89 6.042 39.896M697.198 386.227c-22.838 1.587-45.298-41.022-27.966-48.644 16.864 12.514 50.916 6.52 39.73 38.487.172 8.112-2.04 13.442-11.764 10.157M693.66 185.392c-20.91-6.925-43.19-19.964-33.09-45.107 2.179-25.683 42.481.213 46.455 15.208.146 10.884 8.298 39.223-13.365 29.9" style="opacity:1;fill:#28170b;fill-opacity:1;stroke-width:.544835" transform="matrix(1.17136 0 -.0439 1.22912 -173.203 29.703)"/><path d="M419.608 678.816c-18.948-2.717-32.02-15.933-7.366-22.746 20.98-25.923 61.958 21.452 20.346 26.998-4.369-1.288-8.665-2.803-12.98-4.252M626.645 715.02c24.414-19.697 4.554-59.71 35.83-73.69 18.57 22.606 11.745 68.92-24.933 71.483-2.71-1.135-8.663 4.533-10.897 2.207M696.384 285.024c-29.302 1.745-51.485-47.06-31.376-58.43 19.655 16.476 55.364 15.574 44.468 50.11 2.374 10.198-4.685 9.187-13.092 8.32M728.265 549.832c-26.545-12.97-57.776-23.85-83.794-22.092-10.003-42.525 51.251-14.963 72.14-7.413 8.695.048 33.706 35.985 11.654 29.505" style="opacity:1;fill:#784421;fill-opacity:1;stroke-width:.544835" transform="matrix(1.17136 0 -.0439 1.22912 -173.203 29.703)"/><path d="M327.258 613.38c-24.447.471-50.38-59.236-10.477-41.46 16.218 10.484 55.741 38.523 10.477 41.46M559.903 725.047c-26.276-1.332 5.326-34.133 14.543-45.456 45.326-20.243 22.7 47.792-6.604 45.87l-4.708-.074zM723.261 620.404c-24.18-7.211-66.905-2.333-66.289-38.447 20.657-4.003 41.77 11.553 63.864 9.46 20.412.25 23.164 31.054 2.425 28.987M695.198 474.736c-24.809-2.994-41.806-71.564-5.124-42.988 24.343-9.812 21.335 47.956 5.124 42.988M696.236 135.551c-20.983-.762-44.98-26.78-20.81-41.72 12.994-2.965 43.035 43.666 20.81 41.72" style="opacity:1;fill:#a05a2c;fill-opacity:1;stroke-width:.544835" transform="matrix(1.17136 0 -.0439 1.22912 -173.203 29.703)"/><path d="M488.802 710.726c-28.928-3.206-16.998-13.65-2.599-30.021 15.895-20.975 60.257 2.907 28.894 23.302-5.87 8.831-17.102 9.134-26.295 6.719" style="opacity:1;fill:#c87137;fill-opacity:1;stroke-width:.544835" transform="matrix(1.17136 0 -.0439 1.22912 -173.203 29.703)"/><path d="M488.802 710.726c-28.928-3.206-16.998-13.65-2.599-30.021 15.895-20.975 60.257 2.907 28.894 23.302-5.87 8.831-17.102 9.134-26.295 6.719M386.606 662.765c-26.315-5.647-19.077-31.948 5.87-28.936 35.672 2.675 22.554 32.686-5.87 28.936M694.226 238.28c-26.068-6.092-46.622-40.105-31.562-61.691 28.989 7.962 63.587 24.02 43.854 59.56-3.06 3.25-8.305 3.385-12.292 2.13M696.384 507.173c-28.23 8.703-33.102-59.183-5.513-31.376 16.824-5.58 20.731 43.24 5.513 31.376M672.148 697.297c14.543-20.167-19.265-74.234 18.243-70.906 10.414 29.14 15.912 56.952-18.243 70.906" style="opacity:1;fill:#c87137;fill-opacity:1;stroke-width:.544835" transform="matrix(1.17136 0 -.0439 1.22912 -173.203 29.703)"/><path d="M454.615 699.498c-35.635-3.58-2.077-31.335 13.952-34.807 33.095 2.065 5.861 41.858-13.952 34.807M584.612 723.194c17.873-14.12 22.076-70.085 53.081-48.882 7.772 33.815-34.873 56.558-53.081 48.882M703.8 667.447c-4.704-15.897-15.234-69.3 10.812-40.367 4.484 12.07-.056 37.125-10.813 40.367M694.75 428.423c-25.524 5.37-40.577-57.329-16.282-45.829 11.738 10.969 38.313 5.94 29.603 32.353-.837 10.44-.65 17.52-13.321 13.476M697.201 345.573c-29.21-5.326-40.746-32.52-35.867-59.624-5.274-25.678 28.801 8.933 41.897 7.986 9.169 5.702 14.818 58.297-6.03 51.638" style="opacity:1;fill:#d38d5f;fill-opacity:1;stroke-width:.544835" transform="matrix(1.17136 0 -.0439 1.22912 -173.203 29.703)"/><path d="M-11.61 268.042c7.905-6.585 21.666-15.493 30.531-5.81 1.902 8.654-9.84 13.101-14.285 19.114-7.428 6.453 9.942-3.562 10.926-7.352 9.88-5.246 5.951-18.582-4.867-18.102-7.22-.586-22.568 6.622-22.304 12.15" style="fill:#000;fill-opacity:1;stroke-width:.264583" transform="matrix(2.21426 0 -.06766 1.89434 214.925 213.066)"/><path d="M-11.025 267.783c2.133-5.32-5.805 8.737.75-1.507-10.522 3.756 3.88 4.175 1.922-1.563 3.487.538 10.853-6.543 16.02-5.768 3.58 1.637 14.195 1.356 10.37 7.604-3.509 6.658-14.21 12.13-15.227 17.716 5.838-5.118 24.056-16.612 15.17-24.214-7.001-3.334-14.932-3.648-21.82.648-4.062 2.696-11.516 8.97-7.996 8.015.44-5.585-4.578 7.597 2.772-1.888 1.089-2.998-5.899-.403-1.961.957" style="fill:#000;fill-opacity:1;stroke-width:.264583" transform="matrix(2.21426 0 -.06766 1.89434 214.925 213.066)"/><path d="M12.866 257.32c-6.435-.881 6.644 2.841-1.836 2.505 7.915.379-4.1-1.241 4.084.546 2.7-6.126-9.804-1.873-2.248-3.051" style="fill:#500;fill-opacity:1;stroke-width:.264583" transform="matrix(2.21426 0 -.06766 1.89434 214.925 213.066)"/><path d="M1.054 281.123c-10.504-9.344-14.191-17.341 2.568-21.438 12.75-3.014 21.073 7.413 6.76 15.348-2.575.576-6.457 10.058-9.328 6.09" style="fill:#500;fill-opacity:1;stroke-width:.133635" transform="matrix(2.21426 0 -.06766 1.89434 214.925 213.066)"/></g></svg>