<?xml version="1.0" encoding="UTF-8" standalone="no"?>
<svg
   xmlns:dc="http://purl.org/dc/elements/1.1/"
   xmlns:cc="http://creativecommons.org/ns#"
   xmlns:rdf="http://www.w3.org/1999/02/22-rdf-syntax-ns#"
   xmlns:svg="http://www.w3.org/2000/svg"
   xmlns="http://www.w3.org/2000/svg"
   xmlns:sodipodi="http://sodipodi.sourceforge.net/DTD/sodipodi-0.dtd"
   xmlns:inkscape="http://www.inkscape.org/namespaces/inkscape"
   version="1.1"
   id="svg10"
   width="8.5in"
   height="11in"
   viewBox="0 0 816 1056"
   sodipodi:docname="seer.svg"
   inkscape:version="1.0 (4035a4fb49, 2020-05-01)">
  <metadata
     id="metadata16">
    <rdf:RDF>
      <cc:Work
         rdf:about="">
        <dc:format>image/svg+xml</dc:format>
        <dc:type
           rdf:resource="http://purl.org/dc/dcmitype/StillImage" />
        <dc:title></dc:title>
      </cc:Work>
    </rdf:RDF>
  </metadata>
  <defs
     id="defs14" />
  <sodipodi:namedview
     inkscape:document-rotation="0"
     pagecolor="#ffffff"
     bordercolor="#666666"
     borderopacity="1"
     objecttolerance="10"
     gridtolerance="10"
     guidetolerance="10"
     inkscape:pageopacity="0"
     inkscape:pageshadow="2"
     inkscape:window-width="1080"
     inkscape:window-height="1826"
     id="namedview12"
     showgrid="false"
     inkscape:pagecheckerboard="true"
     units="in"
     inkscape:zoom="0.78671482"
     inkscape:cx="456.68358"
     inkscape:cy="698.55459"
     inkscape:window-x="-11"
     inkscape:window-y="-11"
     inkscape:window-maximized="1"
     inkscape:current-layer="g18" />
  <g
     inkscape:groupmode="layer"
     inkscape:label="Image"
     id="g18">
    <path
       d="m 280.69883,957.41998 c -1.87576,-13.81868 -7.21798,-33.04953 -12.73063,-29.3128 -13.25199,-1.55653 16.53146,-4.97953 7.03154,-25.30256 -1.80956,-40.54176 -6.44352,-81.29133 -15.16182,-120.86694 -4.39142,-31.98857 -25.4622,-49.70718 -37.04311,-78.29774 -12.20502,-30.81056 -34.2551,-58.05988 -31.7317,-93.38753 3.2323,-38.2329 -12.75026,-75.79091 -2.1928,-113.67066 6.25963,-29.16799 21.43995,-56.74106 25.21311,-87.73393 1.23897,-38.03347 34.37079,-56.69219 56.13987,-82.04787 7.12353,-31.74217 42.07076,-47.71959 70.30828,-57.78903 19.72051,-6.90997 41.76273,-2.15574 60.29724,5.78357 16.43006,3.00748 36.62987,8.20155 42.5322,10.99176 17.78478,7.09721 16.20892,-12.06354 16.22537,6.17844 32.26011,9.55446 61.7305,24.09441 88.43756,45.00807 26.7011,16.53832 54.69162,36.21243 67.78608,66.97912 9.10937,10.70323 16.71243,45.4658 21.44223,32.28529 -2.73867,19.95462 18.92309,42.99616 4.49836,43.71265 -2.09784,15.7135 2.22084,33.06352 -4.88568,41.89276 -9.72807,35.37391 -17.08001,73.13917 -24.49398,109.6758 -9.08484,33.92768 -26.60172,64.37279 -38.57944,96.984 -7.86369,39.24489 -7.75502,84.67327 -0.90882,125.9278 3.44824,30.70451 3.09553,61.65602 5.59363,92.4288 -13.07871,-10.77998 -3.4777,-59.67935 -9.65279,-84.3515 -6.35896,-41.32605 -7.31043,-83.68103 -1.10882,-125.0996 -19.696,20.7051 -55.92857,28.16422 -71.1603,49.7214 1.45939,29.92937 -5.9363,63.86056 13.90661,89.15666 -3.01902,24.82285 29.26998,45.47428 38.69156,57.63483 -28.90436,-9.85438 -58.92929,9.4362 -88.31112,0.59011 -30.54482,-5.58758 -60.77986,-10.88288 -92.75869,-6.01263 -28.25119,-8.92113 -57.09465,2.04987 -86.41144,0.31758 -5.92316,5.05315 9.35405,27.72667 -0.9725,28.60415 z m 205.83761,-23.7483 c 12.53541,-6.95166 49.49696,-2.92063 41.61708,-11.4459 -21.61819,-25.55647 -35.76695,-58.84772 -37.85853,-92.48993 0.64784,-16.55758 -6.91983,-46.06234 -4.77368,-45.60137 -12.53087,1.09744 -49.36366,14.72771 -70.81991,16.36596 -31.65648,8.18879 -55.71409,-6.48659 -83.35996,-19.47049 -24.63686,-4.57056 17.31885,35.78347 29.97541,38.47143 17.52817,19.1704 -32.23119,-12.36353 -37.83114,-21.9854 -5.75101,26.82807 37.36679,43.31529 40.52599,50.6746 -19.26068,0.15833 -51.54017,-35.98431 -37.13542,-17.7226 -0.82085,19.88328 57.92481,44.0086 15.17308,28.6425 -14.48064,-12.46184 -26.1821,-31.84438 -15.65035,-1.4993 6.9526,21.09258 59.18378,49.55899 14.76948,31.50403 -19.11792,5.00849 -28.13857,-29.33292 -6.28691,-5.55353 10.46372,9.47922 -19.83283,-41.67803 -16.86886,-10.49513 -0.28119,19.95294 -43.32156,41.23243 -33.04488,51.44603 29.24932,1.89667 58.27921,-8.63508 86.5578,0.18285 32.81225,-5.09018 63.59524,1.3679 95.18396,5.55458 6.28109,2.33157 12.78336,7.44087 19.82684,3.42167 z m -165.79311,-15.8985 c -18.59766,3.10674 -31.50566,-25.55106 -9.78995,-7.20913 8.28655,1.77353 32.5764,7.03727 9.78995,7.20913 z m 10.15932,-6.2707 c -23.92741,-1.07281 -22.85167,-42.68882 -8.26402,-9.4951 5.73187,4.92603 28.82759,8.84215 8.26402,9.4951 z m 8.47376,-4.52 c -19.06648,0.75374 -33.25885,-41.07833 -11.5333,-13.0255 1.9917,7.59001 34.33061,11.52014 11.5333,13.0255 z m -43.5462,-3.6919 c 12.56542,-12.49192 24.99625,-39.21243 4.75628,-11.34001 -14.34083,7.50904 24.05419,-26.35202 15.79448,-41.9621 -2.21599,-24.97887 12.9442,-70.59124 -14.43952,-81.37153 -16.17166,-8.51307 -44.09082,-37.49314 -53.31156,-36.42531 22.47977,53.04834 27.53805,111.00403 31.07854,167.90702 -0.60829,24.71862 -0.77849,19.69716 16.12178,3.19193 z m 122.26555,-109.2987 c 18.26443,-1.86639 68.92761,-9.93864 67.10983,-15.4727 -28.10551,9.34384 34.11877,-19.29858 39.94275,-32.40876 26.99462,-24.34835 45.59272,-55.76484 64.57199,-86.18035 8.5461,-23.48267 17.50431,-13.75277 20.17728,-42.68374 -2.79884,-8.80545 10.0175,-50.40383 14.23641,-76.22826 6.26799,-12.23348 4.60594,-39.68169 3.85389,-44.82075 -0.6005,14.50432 -13.22593,50.56237 -7.35954,16.73806 10.69578,-35.22334 13.79122,-74.05409 -8.8062,-105.20401 -13.86419,-26.79803 -34.67123,-52.13616 -64.25589,-62.0774 -10.64351,9.6217 -44.80168,31.9677 -15.12411,10.18684 33.27064,-12.13813 -26.51543,-52.47764 -35.60634,-27.44871 -15.02863,11.67231 -26.09001,15.86431 -2.76725,24.3068 14.06695,-9.29056 26.66141,-20.72453 6.91518,-2.25952 -8.65007,12.14216 53.88838,26.51587 12.60661,35.08911 -18.96299,14.28609 -62.8162,14.31284 -54.5842,38.50164 -5.47993,-24.4407 -37.39288,-9.11427 -34.20791,8.49494 1.05069,-29.62359 -24.68099,-5.03185 -21.96935,3.75036 8.57322,-20.18981 -54.8454,-19.95483 -41.18054,-13.58834 -1.84924,22.50628 -9.68587,-40.61607 -25.23196,-12.67711 -7.47729,6.97018 7.35905,-19.44996 -15.68321,-16.85456 -7.60146,-3.12627 -14.46836,29.31261 -9.19067,3.20635 -0.95575,-22.87499 -18.75029,-3.01216 -21.22956,7.92908 15.93384,-19.73879 -4.99107,-24.27033 -12.9482,-33.16042 21.00496,-11.69192 -8.60997,-38.56588 -5.92135,-40.75872 -27.62073,21.24276 -55.81105,47.71 -51.56017,86.18934 3.60814,17.8471 -22.71438,64.79426 -4.92246,64.57277 21.89594,-31.78259 55.80121,-57.31316 94.84555,-61.17957 36.94479,-2.50411 59.76379,32.59691 77.99677,60.19362 16.21339,26.72601 17.04401,62.25072 6.2454,90.67881 -2.87492,5.63096 -21.71988,24.06959 -11.11953,9.24657 -39.95539,-6.0659 -32.69852,66.31657 1.27574,42.52762 -24.67458,-13.49491 20.91004,-31.76204 14.60012,0.42718 26.17244,25.27186 40.95593,-35.10468 56.19956,-11.07679 -26.70367,16.96458 48.3774,15.1097 26.51248,-13.23025 2.09439,-32.33181 -38.55367,-16.92478 -45.17067,-21.61263 -11.33695,-23.27319 -7.53414,-51.1053 -7.50666,-76.42834 7.43155,-37.32023 32.90652,-71.66855 70.84602,-81.63752 33.6933,-10.39237 72.84827,-16.64501 104.77332,2.29154 -26.93454,-2.98043 -59.02859,-13.37924 -89.08982,-3.0983 -27.39736,-0.49831 -69.46067,31.38278 -67.45234,45.00666 22.71028,-22.56703 -23.48796,25.26263 -13.20613,43.10681 3.51745,16.56711 -8.77758,76.16744 21.26877,64.3542 38.71371,-6.31243 43.40762,67.19109 0.33471,57.22195 -23.64241,-13.3781 -44.41133,23.58519 -65.87623,-3.69496 -34.0842,32.20604 -64.24107,-31.57349 -24.64293,-44.8273 30.12916,4.96387 29.52663,-33.86961 26.53573,-47.63144 6.15631,-27.35537 -11.45004,-51.296 -26.70667,-73.5347 -18.44473,-34.69739 -61.92462,-35.37525 -94.85877,-23.84379 -43.71307,17.12116 50.30782,-11.15181 3.79457,4.17646 -25.78993,6.80561 -58.07383,31.42282 -54.78099,58.57697 9.17627,12.63154 25.7348,45.80005 2.90006,16.5613 -25.46437,-35.78002 34.18213,56.444 3.06029,20.1056 -10.48342,-9.71764 -22.96248,-48.48359 -23.10144,-45.5417 -0.88824,6.95143 11.07671,32.3075 -2.39642,16.30296 2.93192,20.20786 37.39332,51.32784 31.08367,58.859 -11.87027,-6.8287 -35.6739,-51.11581 -31.7608,-41.40598 2.32166,20.88891 34.40245,51.31164 29.50963,64.34348 -11.04752,-9.59114 -26.44992,-42.09826 -15.96093,-10.4648 4.30981,18.20806 -11.463,-12.48376 0.91207,13.07285 12.00995,18.90641 19.33038,29.82559 5.22101,28.60915 4.36985,13.44754 15.56673,28.17116 1.77532,22.49566 14.19587,18.63807 2.10606,18.59358 -7.26373,6.90164 6.0348,17.76939 22.72807,54.49305 25.75223,39.1668 -1.62154,15.22855 17.60482,31.73473 31.40305,44.4507 17.02969,22.45437 39.79432,34.65428 60.53311,44.83449 27.12749,14.29608 55.60582,23.62778 86.64985,18.55411 z m 59.37838,-18.4882 c 2.23147,-2.54138 3.29625,-1.82909 0,0 z m -64.73664,-42.618 c 13.08779,-17.79336 -29.49956,-14.94462 -29.19767,-5.3371 -7.74031,-28.05654 -41.79984,14.72989 -13.0515,-14.5372 -21.66662,-17.63098 -27.6591,-6.22679 -40.09842,-29.4864 -17.52568,12.07236 -18.25592,13.10856 -2.11968,-1.8503 -14.51602,-19.71119 -46.4184,18.32406 -17.83075,-9.27183 15.20091,-5.54901 23.56351,14.1426 26.62751,-4.1897 3.45802,15.66365 28.24084,-4.23559 2.64832,10.42273 4.68133,13.66974 35.77025,41.2406 36.0056,17.9325 -1.28144,25.02328 35.29813,-18.97636 7.59639,8.49391 -10.46766,17.88748 52.66291,18.93242 32.44479,-0.39101 11.25046,16.83386 24.82859,-27.80404 12.52905,4.0301 -1.54284,16.09122 48.4014,-2.82624 38.23644,-17.1129 8.28971,9.12667 20.56781,-26.10519 9.85506,5.239 16.63476,-2.59437 31.44815,-22.59711 29.07015,-35.24686 4.20897,18.80312 11.64177,-27.81428 9.35607,-1.83444 -8.13001,14.72113 42.32681,-8.49249 30.65783,13.26427 -19.14084,-19.41513 -40.19217,2.24091 -32.1453,16.78478 -7.76303,-18.45035 -24.44191,33.30779 -10.70166,-4.22181 5.78815,-18.45104 -36.17131,25.36435 -16.95719,21.11796 8.17621,16.24727 -21.22853,-5.11819 -19.4354,7.6026 11.58986,-23.29964 -25.23622,7.00597 -34.86272,4.9861 7.56754,30.76613 -7.98666,-19.84397 -18.62692,13.6056 z m -10.22157,-152.0722 c 14.07512,-11.19861 34.30358,-2.13837 7.52517,-0.92396 1.13509,-3.03299 -12.12551,5.74107 -7.52517,0.92396 z m 2.67683,-5.7584 c 21.6004,-9.38931 -9.36801,-6.08317 17.29728,-10.43955 13.36105,0.99619 -26.27238,15.16727 -17.29728,10.43955 z m -73.54642,-10.3538 c 10.70083,-16.03742 38.78546,-45.71363 5.81557,-21.0999 -23.34504,23.06963 -42.35573,-2.68643 -65.33827,-8.6131 23.28577,-5.53237 49.20093,31.05102 73.71074,1.96673 21.68829,-30.86931 15.92785,8.2398 7.69645,26.20767 6.81235,-38.92914 -5.7414,-13.56893 -21.88449,1.5386 z m 190.16607,-24.219 c -21.02679,-4.62899 -44.81827,-25.5601 -49.51315,-0.67008 -5.08944,-13.43695 -4.47782,-41.19979 19.02722,-21.69843 16.31068,1.11999 59.44419,17.78936 18.77791,9.75636 -12.44641,-3.17581 -51.31026,-17.07594 -19.06011,-2.67633 3.25179,3.02875 47.40736,9.6869 30.76813,15.28848 z m -212.95958,-11.6623 c -20.87916,-2.9127 -45.885,-36.72108 -55.88395,-14.0312 28.44585,-18.54671 -5.96747,-16.13623 -11.44275,-12.125 39.03369,1.83907 -34.97436,-30.6566 -1.39627,-19.39639 30.8789,33.02834 64.30282,-34.89829 96.82134,-3.85701 23.59526,11.92795 37.39054,29.97359 6.11934,41.69182 -10.67315,4.38742 -22.0729,13.81228 -34.21771,7.71778 z m 18.96427,-3.7108 c 17.22308,-6.96983 45.41445,-20.76434 15.07298,-35.03375 -16.82411,-17.59752 -43.03453,-16.79162 -61.20915,0.51686 -33.78743,10.30305 38.12556,38.97937 46.13617,34.51689 z m 22.5688,-10.7082 c 2.06549,-4.29644 -16.59249,12.14356 0,0 z m -80.34718,-18.30554 c -4.95847,0.76872 -2.24747,4.07289 0,0 z m 10.49975,-8.94635 c -14.88052,6.96729 -1.88428,2.41822 0,0 z m 242.93276,29.81869 c -13.8238,-6.30981 -47.67832,-13.36991 -44.739,-25.48212 21.16191,-9.20526 43.01852,-41.08889 68.97174,-31.55958 23.11326,19.78487 47.24674,24.96098 72.77676,5.27565 18.27575,-2.03584 -55.30679,23.07083 -16.58511,11.82719 42.28258,-7.24227 -29.96248,4.21824 -2.82923,11.13135 21.14948,19.82519 -0.25162,11.17015 -10.26166,0.0884 7.49618,10.49301 19.9032,42.54646 1.93772,16.06625 -10.25605,-38.9413 -43.2978,27.31965 -69.27122,12.6529 z m 12.16078,-4.7099 c 18.1218,-6.09787 63.99143,-22.30477 24.31589,-38.0163 -19.77251,-27.90724 -66.04567,5.58472 -68.52875,18.83991 15.85433,3.09757 29.17862,17.60388 44.21286,19.17639 z m 25.31832,-8.1146 c 5.65396,-3.97473 -15.16248,6.46819 0,0 z m -116.03008,-9.03021 c 1.08903,-21.91918 8.83781,10.55478 0,0 z m -87.48179,-14.71951 c -13.79678,-40.07276 -69.05851,-15.77168 -83.31378,-17.0758 33.72891,-15.18793 72.86338,-17.38121 93.50341,18.65956 -2.92624,2.63219 -8.16923,6.42353 -10.18963,-1.58376 z m 114.58417,-6.1649 c 13.97194,-19.47087 38.6268,-35.47493 62.91182,-34.68768 13.61599,-1.06582 77.96295,21.01367 37.94105,13.44513 -31.28284,-13.03925 -65.30213,-12.76611 -90.16312,12.9303 -3.79543,1.13364 -6.82121,8.70402 -10.68975,8.31225 z m 17.3608,-15.42373 c 17.18944,-8.75383 1.39165,-6.25071 -3.47916,2.54831 z m -7.36479,-46.0023 c -13.37091,-27.48792 17.27568,4.75974 0,0 z m 23.66999,-6.97362 c -18.82259,-25.18635 15.36691,-6.26539 1.52204,3.14339 z m 18.00059,-8.3467 c -30.26396,-17.2699 21.768,-3.61812 0,0 z m -34.63063,386.58717 c -0.83918,-2.35278 -1.67221,2.28627 0,0 z m 9.57708,-8.8692 c 24.28828,-15.57087 -14.64028,3.02431 0,0 z m 13.2511,-4.9114 c 22.64061,-16.84993 -19.16443,7.4177 -4.55073,2.56318 z m -12.58087,-0.9778 c 4.73063,-5.21146 -9.41988,7.13306 0,0 z m 36.62611,-11.8145 c 35.21351,-13.34725 42.28177,-50.85613 56.98891,-81.28105 8.03909,-28.09013 -22.49667,39.58346 -32.09941,48.81249 -7.69296,13.08487 -41.68723,39.17013 -39.09583,41.33776 4.84338,-2.7809 9.52823,-5.82278 14.20633,-8.8692 z m -25.32987,5.2826 c 14.18559,-12.00928 36.42195,-35.58105 9.22144,-10.09162 -0.52813,0.94764 -18.84309,15.98912 -9.22144,10.09162 z m 2.39372,0.3202 c 2.22627,-3.19813 -3.88599,4.05473 0,0 z m 13.76441,-7.5237 c 23.53469,-25.26421 -3.49818,-5.79539 -10.9588,7.1609 3.92715,-1.9253 7.78069,-4.10114 10.9588,-7.1609 z m 7.21771,-3.2762 c 26.31933,-23.38565 38.99523,-56.40524 56.30254,-86.18986 9.25304,-17.84284 -21.04917,32.35254 -27.08643,41.9858 -9.16204,8.34986 -34.90391,49.67423 -29.21611,44.20406 z m -277.42554,-26.0762 c -11.40833,-8.025 -47.83522,-63.02432 -27.76713,-21.5522 2.41235,15.57841 33.13031,20.38349 33.72509,27.20164 l -2.65822,-2.56609 z m -16.58743,-5.1956 c -6.69391,-3.16348 1.54619,8.60393 0,0 z m -25.87871,-53.9404 c -7.67137,-13.51776 -19.0073,-40.61237 -9.01253,-9.8007 0.10009,-0.59101 11.26241,17.11693 9.01253,9.8007 z m 386.98818,-12.7138 c -0.6821,-2.35605 -1.39751,3.26354 0,0 z m -397.83207,-22.6978 c 7.72116,-14.88129 -14.8585,-55.40755 -7.61131,-19.00747 0.62191,3.38097 2.40696,36.45218 7.61131,19.00747 z m 228.82215,-7.2765 c 13.48681,-14.12524 -19.83016,16.11159 0,0 z m -218.3756,1.3013 c -7.487,-34.36681 -7.93927,-13.62411 0,0 z m 232.0983,-9.7719 c 19.668,-8.52061 -15.1606,1.26164 0,0 z m -62.35161,-6.1696 c -3.01918,-4.87147 -3.26849,8.93325 0,0 z m -29.85953,-16.1368 c -0.31281,-6.89718 -1.12599,7.67258 0,0 z m 3.37036,-7.2484 c 2.54307,-2.93006 -4.60605,3.50203 0,0 z m 6.13815,-1.7358 c 5.80075,-3.37423 -8.66355,2.97322 0,0 z m -172.38428,-50.9297 c -2.03631,-16.19218 0.86918,27.26618 0,0 z m 445.49592,-38.0245 c 1.95607,-23.96951 -3.74707,-20.32334 -1.68595,1.8028 l 0.7141,3.4597 z m -0.26602,-26.64183 c 0.39289,-4.89117 -3.55553,6.95067 0,0 z m -404.98396,-2.82953 c 3.93871,-5.85283 -8.7807,9.31429 0,0 z M 211.32833,443.7134 c -0.50268,-5.95108 -6.43274,18.01665 0,0 z m 41.59398,1.24777 c -2.51115,-0.75689 -12.40277,10.74083 0,0 z m 25.57185,-13.38235 c 4.81123,-5.70077 -6.41828,5.7931 0,0 z M 389.88353,416.0513 c 6.35707,-28.24667 -42.46863,-0.78245 -9.63477,1.13519 -1.30256,-3.51228 13.33499,5.5729 9.63477,-1.13519 z m 18.0839,1.15647 c 39.56973,-7.08351 77.79711,-19.81354 113.9209,-37.34141 -17.46283,-17.80129 -49.21381,-33.69468 -73.62596,-48.29332 -9.43829,7.61722 9.89372,66.99882 -13.19872,76.76381 9.6349,-27.24787 18.27458,-79.19139 -16.80102,-91.89089 -11.87855,-3.12258 -2.27817,40.15757 16.28185,18.85977 -26.86383,6.49255 -13.05038,24.62409 1.5945,19.14783 -22.56145,-2.01613 -26.83276,27.30261 -7.04696,31.90919 -7.29609,3.33545 -18.43926,-9.96884 -15.44348,7.18652 14.46839,10.75561 3.98887,14.79547 -3.12387,6.41469 -2.71192,7.90235 -24.62737,24.334 -2.55724,17.24381 z m 21.80603,-45.5295 c -24.80894,-5.96454 21.44962,-5.37307 4.74665,1.19032 z m -26.60168,35.02796 c -3.03872,1.72889 -9.57307,12.23302 0,0 z m -35.74993,2.03696 c 28.80039,-14.80686 8.68175,-6.00361 2.02771,-6.28221 19.99917,-2.0943 17.44913,-26.04967 -1.57155,-11.86027 31.21952,-13.91933 2.61773,-13.91416 -2.39818,-9.62853 23.64285,0.90453 25.51006,-46.2623 5.70879,-47.00542 -5.34268,-7.31186 25.96866,5.00742 19.15007,-16.76907 13.75744,-24.08684 -39.11892,3.97986 -33.17769,23.58586 -1.22788,18.02264 -10.55962,64.93595 10.26085,67.95964 z m -5.39201,-43.92463 c 32.15894,-12.48485 -2.25625,9.03704 0,0 z m 1.67637,-14.1894 c -14.52843,-4.86805 26.7387,-1.53835 0,0 z m -11.95219,48.45393 c -4.20022,-30.24327 -4.43883,-65.71093 20.99207,-87.33333 -34.36922,11.78451 -61.58216,37.65997 -91.52611,57.44372 21.11771,10.17974 51.62999,27.50789 70.53404,29.88961 z M 295.636,356.57457 c 20.18864,-8.34291 -12.78051,-42.03888 3.32297,-57.86008 -1.19803,17.98757 7.25268,68.12005 24.04065,35.16589 -16.15091,-15.7574 2.54281,-72.39011 -2.28725,-25.56585 -3.48814,36.14578 33.45511,20.18105 26.0078,-6.68088 -0.68582,-17.34174 12.71764,-34.28776 4.71063,-6.45254 -9.77974,31.91499 8.21055,21.62468 27.23479,10.54171 20.03961,7.39833 51.2215,-33.20089 12.47521,-28.17476 -11.63774,2.00748 -16.40948,42.44803 -11.88188,8.08665 10.07617,-31.36593 -56.61761,-12.02857 -71.51749,-0.30268 -33.73699,9.702 -40.18649,59.31608 -12.10543,71.24254 z m 185.63502,-17.31174 c 23.24915,-10.08714 31.2469,-33.39792 -0.84848,-34.7261 -17.33254,-16.18953 -48.36653,-0.95906 -38.58856,17.67103 14.35942,28.62134 51.11915,-41.21055 27.22335,-4.24088 -20.8281,12.57847 -4.06805,21.53673 12.21369,21.29595 z M 439.1103,311.04046 c 27.43789,-28.62966 -20.45599,-22.45665 -18.80511,1.02777 7.89812,0.71932 14.93974,11.56101 18.80511,-1.02777 z m -19.22141,-4.55112 c 21.82567,-14.58046 10.50072,-24.57233 -7.8744,-20.54095 -14.62706,8.81403 -7.05,32.06654 7.8744,20.54095 z M 133.3478,943.14788 c 25.69495,-24.13252 38.06703,-58.94614 34.19963,-93.8675 -0.14317,-56.81825 -5.97323,-113.29511 -14.81673,-169.33729 -2.80924,-46.39639 -25.94065,-88.90567 -26.99788,-135.74683 -10.47849,-40.51582 -14.3241,-82.59773 -7.42321,-124.14302 4.25506,-43.1896 16.96205,-84.78015 25.29176,-127.05116 14.08047,-34.19389 37.23606,-66.08566 64.62,-90.83464 26.03679,-23.72182 57.67808,-43.61187 92.43437,-51.68945 46.51551,-5.83076 93.71053,-15.89387 140.39552,-11.94747 31.40726,8.47948 60.8285,21.15466 90.40421,34.47853 28.84862,11.84436 58.13795,23.90234 83.43169,42.30866 25.40474,20.31491 41.41245,49.02726 58.3068,76.37222 25.35056,47.92125 27.73349,103.84452 28.80247,157.01604 -8.15342,44.92519 14.94259,89.7366 0.84794,134.04406 -10.52593,47.14281 -28.89101,92.05665 -37.37669,139.70544 -12.08824,36.61453 -32.35007,72.68792 -26.23987,112.64711 -13.78555,32.2433 15.05241,67.7004 14.20135,94.3173 -17.14605,-30.30007 -26.33893,-65.63573 -18.92583,-100.1603 -4.86928,-49.51648 30.19742,-90.89905 34.13988,-139.27873 13.21953,-56.35162 43.40343,-112.14498 31.56526,-171.58226 -9.09026,-40.2293 1.65207,-81.58687 -5.42222,-122.18593 -2.88468,-49.63819 -17.93606,-98.94195 -49.77517,-137.78673 -16.45257,-29.78052 -45.59898,-50.97875 -76.78629,-63.32166 -31.16559,-16.19609 -64.54018,-27.71896 -96.36315,-42.44428 -31.01304,-11.12698 -63.65878,-13.74497 -96.36564,-8.59216 -46.44331,6.22773 -97.08923,5.76779 -135.86232,36.13428 -28.6041,16.22574 -51.80192,41.94403 -69.12769,69.87944 -25.92615,26.69552 -24.93009,64.98684 -35.87712,98.29099 -12.81149,61.62103 -23.36536,126.64504 -5.0951,188.23572 1.3946,42.45604 19.86995,81.8269 22.6812,123.96297 16.51199,68.51211 19.94526,139.63265 19.94397,209.96647 -1.69594,28.32167 -17.01201,55.19489 -38.81114,72.61018 z"
       style="fill:#000000;stroke-width:0.660554"
       id="path22" />
    <path
       d="m 541.38624,933.22698 c 8.01426,5.07512 20.882,15.37745 33.64176,21.2248 22.27882,-5.53952 41.64714,-12.80181 65.46063,-17.0596 9.17507,7.39432 25.51881,-9.39629 1.62328,-7.3667 -21.05508,8.55995 -42.78889,0.53665 -62.48371,17.4459 -1.37052,2.70726 -15.80184,-11.61749 -22.80259,-12.474 3.18774,7.49638 -18.48125,-24.54795 -15.43937,-1.7704 z"
       style="fill:#000000;stroke-width:0.660554"
       id="path37" />
    <path
       d="m 657.86207,933.4104 c -0.65873,0.95338 -0.67034,-0.93788 0,0 z"
       style="fill:#000000;stroke:#000000;stroke-width:0.660554"
       id="path39" />
    <path
       d="m 650.95542,922.79448 c -6.5208,26.95369 22.27848,17.51681 4.26498,-0.71216 l -4.26502,0.71216 z"
       style="fill:#000000;stroke-width:0.660554"
       id="path41" />
    <path
       d="m 138.02019,952.83108 c 21.25332,0.89507 34.78339,-8.34665 51.51958,6.97004 26.00716,-10.25677 47.28891,-2.38233 70.54297,3.85766 11.93524,-11.77148 27.91845,-11.03553 23.36337,-19.7308 -18.3272,2.71194 -33.02101,23.64794 -50.05197,0.8385 -25.7142,1.79654 -47.85374,10.67851 -68.94217,-3.58578 -8.38729,5.59938 -24.09413,-0.67613 -26.43178,11.65038 z"
       style="fill:#000000;stroke-width:0.660554"
       id="path43" />
    <path
       d="m 131.58147,944.88288 c 10.73506,22.03362 37.82415,0.58969 7.77736,-0.009 1.45723,-13.47065 42.79706,-31.30364 26.8178,-51.4895 -9.52999,11.68092 -14.4295,32.60222 -33.59627,39.93516 -19.40189,29.48894 43.92169,20.83615 6.97822,8.81594 l -4.14359,0.97615 -3.83348,1.77115 z"
       style="fill:#000000;stroke-width:0.660554"
       id="path45" />
    <path
       d="m 471.79596,932.09598 c -30.58264,-5.95381 -60.99442,-13.02467 -92.53005,-7.96479 -23.57759,-3.50149 -47.52663,-4.34618 -71.25064,-0.44301 -16.33005,4.18681 -40.45185,0.93206 -14.54269,-15.0361 4.07665,7.23085 59.38073,12.68222 23.90201,3.24661 -25.34233,2.34216 -9.35833,-35.58493 -2.26425,-9.49996 16.14619,19.37889 49.10389,0.87562 13.70291,-8.39596 -8.43108,-17.68545 -22.61005,0.2041 -10.78131,-20.21579 -0.2023,-31.55259 34.79427,32.09916 7.16763,2.0884 -21.04451,2.66295 41.0113,28.56269 35.40175,16.021 -18.40445,-6.09444 -40.53343,-39.85897 -36.08231,-50.0224 5.98328,21.92507 60.52503,29.96736 19.13728,10.97577 -16.30723,-10.60833 -31.10584,-51.13348 -5.60811,-15.26721 7.82463,14.22462 49.49733,10.85847 14.53959,2.37317 -14.03248,-0.005 -41.39647,-53.79539 -20.63994,-34.70293 7.58041,14.92666 57.34514,30.05356 23.54926,10.14002 -16.35693,-5.65406 -51.09739,-49.83449 -15.00235,-29.69099 26.82654,17.03313 56.54342,20.81288 88.06741,12.85187 21.73088,0.92108 60.16367,-27.78497 60.05213,-2.50191 -2.15071,47.1064 10.48217,96.2837 42.95682,131.52101 -19.82275,-6.64519 -39.27037,11.70867 -59.77514,4.5232 z"
       style="fill:#ececec;stroke-width:0.839637"
       id="path53" />
    <path
       d="m 375.96774,793.15358 c -31.31611,-12.58357 -62.33143,-22.8747 -87.09801,-45.09223 -14.85843,-17.03252 -40.51592,-34.57291 -47.64793,-53.83217 2.55861,-17.28584 -6.95964,0.48696 -8.43634,-8.14301 -8.19989,-16.47278 -30.703,-48.30669 -3.31581,-30.46429 -7.4249,-16.19238 -12.37346,-16.07101 0.72517,-16.26255 -13.37908,-16.49714 -10.2781,-23.18156 -1.01402,-26.65345 -13.74374,-9.42756 -21.51393,-50.08719 -15.04608,-44.5873 7.29671,19.89806 30.57493,22.35748 8.98345,1.63712 -8.18566,-13.11675 -30.85591,-63.36359 -8.52598,-23.68362 7.27778,14.13979 33.70953,26.87484 12.73601,3.95046 -12.41303,-7.68064 -32.95173,-59.94058 -12.20766,-32.48233 3.43405,13.18086 32.27146,41.93594 14.82487,11.85052 -8.81973,-12.69275 -17.69237,-31.22543 -2.10607,-7.74107 23.05404,10.03363 -30.0238,-36.11728 -0.13235,-48.5474 10.24218,-24.53097 46.65655,-31.93479 60.46496,-40.14876 -14.87591,2.5531 -37.34223,8.39539 -10.69897,0.16488 35.05446,-12.65897 75.75142,-2.4721 92.62892,32.46618 23.5681,26.43327 25.03411,60.85565 21.62238,91.04042 3.92015,32.35058 -48.82657,12.4119 -43.86461,47.1371 -7.33666,36.44003 30.08294,25.20529 46.37527,23.1089 24.50065,21.02864 46.23397,-11.19994 73.72306,0.28956 40.31734,-4.53251 12.13111,-77.09404 -22.79396,-53.15836 -12.90216,-28.11046 -13.98709,-64.57057 -4.90435,-94.03625 3.34433,-8.01012 28.5593,-37.75707 8.51548,-19.74391 19.94995,-38.90007 69.03283,-42.42187 107.42544,-46.98081 11.697,0.063 68.62336,19.32202 34.64082,1.57397 -37.19299,-12.75882 -79.41618,-3.42422 -113.71443,13.69533 -39.66038,21.92438 -54.61531,71.22683 -48.51379,114.05835 0.52582,18.90642 1.7257,51.79531 28.06162,33.80292 24.45757,-5.96479 39.9891,50.07432 7.62931,45.7824 -23.20226,1.58397 -10.66697,-5.90722 -10.80044,-15.0521 -20.50418,-7.89861 -32.11088,39.2987 -56.1779,12.7599 2.73128,-34.0007 -35.06255,-4.30096 -15.14111,4.1408 -26.28603,17.61766 -38.90344,-36.69055 -11.40907,-39.58247 15.3154,-6.67978 5.09934,9.38522 20.45228,-9.06224 15.38692,-28.33696 13.22975,-67.27376 -3.04642,-95.43794 -17.26536,-26.26617 -36.75468,-56.01489 -70.65547,-60.66571 -25.70053,-0.18529 -53.15131,12.09378 -73.28858,29.08261 -13.92788,10.59629 -42.68164,57.46055 -33.1186,13.57852 15.45424,-34.0844 0.0684,-80.67848 32.95231,-106.34585 8.78821,-2.45685 26.64913,-33.6785 30.73401,-20.37637 1.34517,15.45765 21.31747,27.98382 0.72827,37.43689 18.38637,6.41099 22.93357,15.27581 15.5323,32.53953 7.54715,-27.4624 26.79191,-16.25742 19.71306,1.80072 -0.47288,-24.3536 32.49093,-8.8107 21.78841,7.15221 7.24112,-28.25208 30.60672,10.80455 25.86731,15.70129 1.2066,-19.92025 36.51662,-8.95035 42.75266,0.25519 5.55127,23.18325 6.85248,-28.81919 20.73582,-7.7022 6.62199,26.66418 2.68554,-21.03025 25.74775,-10.57215 6.10408,3.79739 20.60255,23.18388 10.67172,-0.0404 12.07861,-5.22644 45.24994,-33.70273 48.99516,-2.52511 10.9286,-7.96677 -15.13048,-26.79596 14.64929,-26.43721 19.54903,-7.5006 -18.8847,-16.02721 8.53521,-23.53283 19.29744,-26.96918 50.64864,3.0798 62.66758,22.68967 20.44568,24.29711 39.83923,57.70653 34.83694,90.84137 1.46159,10.1072 -18.53065,63.34725 -5.50046,52.84925 2.73075,-15.87588 10.69299,-51.60852 5.11689,-14.02721 1.31095,29.39047 -15.0541,57.77904 -14.65692,86.45408 -9.71404,10.79394 -0.97503,37.09627 -11.79322,44.1058 -14.23727,17.13325 -31.99256,52.86565 -50.32713,75.59539 -21.62215,26.47893 -48.04783,49.14989 -78.38879,64.60801 -18.66894,8.90641 -55.92915,11.92431 -81.86047,11.59106 l -6.98412,-0.0849 -7.66478,-0.73811 z m 103.63014,-19.0761 c -3.82496,-0.10178 -2.1024,4.21589 0,0 z m -63.51021,-42.3289 c 1.41143,-23.89274 28.02068,11.12562 15.30131,-12.819 16.42886,-2.3226 41.60358,-22.69312 36.65762,-2.8332 4.16303,-20.36448 24.74172,11.33465 20.44201,-12.2241 -30.57874,3.95287 35.7863,-42.07816 8.91663,-9.17612 -2.31338,18.73179 9.88093,-23.11434 18.90449,-5.29368 -10.91215,-18.43636 12.50951,-31.64007 30.93779,-16.6702 2.26119,-24.43324 -44.5038,7.03776 -32.18305,-21.76043 -7.81429,12.7977 -2.44366,15.65401 -14.56572,12.72983 13.34351,19.03701 -37.61283,47.15933 -20.94128,18.5037 -2.55969,21.50308 -19.17626,-1.4776 -12.47456,19.4925 -19.81574,13.72786 -48.30458,16.70029 -35.21119,-4.87761 0.0365,20.76705 -30.76003,-0.10979 -12.73159,19.0453 -18.94009,7.03966 -54.95638,-4.42715 -24.03144,-20.94639 -10.98083,9.7681 -16.34445,11.55733 -21.70965,2.2879 1.29986,24.28612 -53.13804,-22.03154 -19.98454,-26.705 -13.3105,12.62714 -19.80063,-12.29311 -21.258,6.4338 -13.74802,-25.35484 -52.47474,27.10604 -23.59834,-0.792 25.88222,-2.9564 15.23485,11.7657 5.08752,19.5889 15.47303,-21.89499 22.63616,-0.5633 32.61428,5.4405 11.27508,-0.037 32.79612,14.812 11.01732,25.42818 10.58446,-25.16347 24.40023,6.856 30.47587,-3.14488 3.51669,-4.41264 35.50584,-4.03798 28.33452,8.292 z m -5.86292,-151.2381 c 50.55572,-12.3786 -32.70281,1.48321 0,0 z m 6.666,-9.2402 c 21.12138,-11.00955 -12.56216,-6.01976 -11.9262,3.35291 -7.35332,8.93586 10.2973,-4.54663 11.9262,-3.35291 z m -83.77828,-6.2732 c 10.86358,-14.68078 25.7759,-33.2187 20.24081,-1.6024 9.53401,-14.49069 15.21798,-59.76613 -8.32508,-26.7683 -24.13741,26.55259 -47.02619,-1.26279 -71.37547,-3.9546 11.00457,5.95693 34.63941,30.69653 53.20743,16.43559 16.54224,-8.03417 37.90795,-23.32456 14.72139,1.09445 -1.22022,2.46944 -14.96357,15.38979 -8.46908,14.79526 z m 192.73844,-25.1159 c -7.40047,-11.26562 -59.92592,-21.15652 -16.30159,-11.76466 17.06084,8.92104 28.85177,-2.9798 5.48347,-4.43784 -21.11807,-8.62536 -60.20262,-21.72941 -43.48338,14.06198 7.39568,4.28061 2.13731,-25.00197 19.08765,-7.26383 11.61717,2.34533 23.81418,10.11136 35.21385,9.40435 z m -202.84448,-9.5096 c 21.57445,-6.67751 60.33419,-28.25701 23.52687,-44.73048 -26.13246,-32.90122 -60.00719,1.46361 -87.67918,7.2621 -12.00632,-11.266 -45.55922,-18.63155 -15.57885,-1.60558 28.84203,6.73196 -26.55347,17.91218 9.04004,11.64696 25.12613,-6.35936 -17.75087,28.47103 10.48283,4.93411 15.3718,-0.71808 38.90474,29.04719 60.20829,22.49289 z m 218.06064,-14.7765 c 22.69386,-5.15115 45.8421,-42.11409 55.67625,-3.78297 21.39131,15.01874 -23.13197,-44.65644 7.69854,-11.99182 25.21548,6.02599 -28.1207,-21.61637 1.54005,-20.15329 37.39712,-13.9522 -29.07126,4.89145 1.74107,-6.21522 16.39103,-4.01537 26.78021,-15.16258 2.64728,-4.58179 -32.04252,31.49117 -59.65996,-30.91887 -90.97761,-4.66265 -13.77856,10.18351 -68.21807,33.93008 -24.34191,40.32599 13.79463,9.12611 29.01982,17.45911 46.01633,11.06175 z m -92.47045,-16.9892 c 7.00222,-26.32459 -14.23944,-1.67676 0,0 z m -80.87515,-16.02353 c -19.28926,-38.00704 -61.36374,-34.37365 -94.57003,-19.15246 12.65348,6.29198 62.50762,-25.05334 76.69223,9.77296 5.12249,2.44143 10.84097,17.31536 17.8778,9.3795 z M 479.422,469.66078 c 25.77658,-29.22576 62.88287,-29.79201 96.47806,-15.25922 34.38702,2.37601 -26.80099,-14.62441 -39.04566,-14.84777 -21.34023,-3.39725 -42.52819,11.57862 -57.52403,25.10334 -5.76418,4.29736 -13.00173,17.98058 0.0916,5.00365 z m 7.46793,-56.7681 c -4.08021,-28.24086 -16.04707,4.38624 0,0 z m 40.85084,-15.58118 c -0.37554,-20.30201 -23.28955,-2.04879 0,0 z"
       style="fill:#ececec;stroke-width:0.839637"
       id="path55" />
    <path
       d="m 310.53905,522.51508 c -18.94222,-9.13685 -58.62498,-24.6096 -19.303,-38.55076 21.73345,-13.76819 44.89107,-3.25728 60.15159,15.30696 15.47223,10.36912 -31.3843,34.39849 -40.84859,23.2438 z"
       style="fill:#000000;stroke-width:0.839637"
       id="path57" />
    <path
       d="m 527.15934,509.65498 c -17.67424,-10.92872 -58.08652,-19.52164 -18.41273,-33.22124 22.68476,-25.97043 50.08075,-5.12453 68.65129,13.37734 -13.77107,8.67537 -33.88779,26.74034 -50.23856,19.8439 z"
       style="fill:#000000;stroke-width:0.839637"
       id="path59" />
    <path
       d="m 568.30299,940.21418 c -31.17278,-13.0221 -54.12618,-39.1379 -62.66428,-71.71559 -12.91349,-26.57112 -7.10006,-56.84359 -8.36255,-85.37301 21.69744,-11.24218 54.25792,-36.40771 69.29995,-40.60446 -9.56188,62.31977 4.68324,124.43066 5.63708,186.78629 -1.48402,3.4558 5.52707,22.11376 -3.9102,10.90677 z"
       style="fill:#000000;stroke-width:0.839637"
       id="path72" />
    <path
       d="m 279.88851,904.11448 c -2.30391,-57.303 -8.00172,-115.65963 -29.75875,-169.27 10.29155,3.00747 49.96594,30.07403 63.20807,44.87561 4.99714,34.26262 9.27274,74.70739 -10.05346,105.52789 -28.03055,26.16289 22.3486,-16.57539 0.14009,7.71893 -8.37582,5.65922 -28.51101,43.11601 -23.53595,11.14757 z"
       style="fill:#000000;stroke-width:0.839637"
       id="path74" />
    <path
       d="m 245.74858,951.68818 c -27.168,-14.06866 -62.48193,1.8892 -88.44553,-8.06412 -35.58979,-1.89377 22.738,-29.02959 13.10535,-51.57853 C 178.94296,781.48505 158.3721,671.1397 133.18076,563.93711 125.78835,517.00654 115.236,469.64602 122.7591,421.81418 c 5.90958,-47.56494 16.43699,-94.74473 29.50598,-140.69764 32.47001,-67.46411 96.93787,-125.88692 174.43994,-130.71711 51.45095,-6.03615 106.54168,-17.78199 155.05419,7.29087 58.38656,27.49877 131.24569,43.29479 165.09913,104.02411 49.83738,62.43019 51.76131,146.65146 48.95647,222.72056 3.69995,40.07495 12.91292,81.67194 -2.97729,120.48978 -12.89726,44.1493 -25.44021,88.5384 -36.93897,132.96749 -19.1391,39.06455 -23.94048,82.158 -24.71577,124.66427 -0.41556,31.10948 42.23699,80.10233 -13.22929,70.86877 -23.61221,1.85839 -47.3071,25.71799 -40.24435,-12.20016 -1.404,-69.92001 -21.42925,-142.22058 2.72905,-210.25435 36.35004,-61.36681 39.88361,-134.12485 60.37946,-201.08109 4.71114,-30.62026 9.00285,-47.702 -8.04481,-77.74499 -18.64041,-30.37829 -35.23234,-70.32445 -71.31925,-86.93348 -31.51301,-20.17343 -61.04929,-44.45022 -98.35926,-52.12006 -1.17042,-20.93851 -13.76513,1.97063 -30.51604,-11.69687 -35.20555,-7.1038 -73.28916,-26.51683 -108.49052,-6.99057 -41.73684,11.79872 -51.68079,55.15078 -81.6133,80.1197 -35.9658,27.51247 -26.37653,78.06683 -46.54385,115.13804 -22.01465,50.40856 -1.90861,104.32688 -4.65365,156.55454 8.41053,38.45024 29.64723,73.05113 47.55421,107.73241 30.13903,45.91397 28.93579,103.03173 35.11617,155.60629 9.49949,22.99819 -12.80496,38.5869 -6.21951,39.42092 24.80637,6.01474 -13.02545,37.39946 -21.97926,22.71257 z"
       style="fill:#808080;stroke-width:0.839637"
       id="path76" />
    <path
       d="m 363.2219,409.73814 c -13.39393,-28.18147 -13.67107,-72.06446 10.74796,-96.1261 12.62091,-12.45746 29.57814,-3.84205 13.62448,11.54019 0.0643,12.66098 -35.92743,1.27068 -5.84358,12.36678 4.71568,17.01783 1.75607,41.21207 -18.72571,46.06151 20.25794,-12.44058 25.34936,-1.31999 4.85068,7.13528 22.93066,-13.39035 16.56774,10.30765 -0.20548,13.73296 23.66228,-9.467 17.0665,-4.48268 -0.18724,4.03251 l -2.55658,2.06929 z m 3.74661,-43.57919 c 35.56917,-12.82195 -24.7881,1.28273 0,0 z m 5.43691,-15.921 c 2.30409,-10.70313 -29.04456,6.20625 0,0 z"
       style="fill:#008000;stroke-width:0.419818"
       id="path79" />
    <path
       d="m 440.61034,411.9531 c 17.98772,-17.64956 -14.15914,-12.9289 0,0 z"
       style="fill:#000000;stroke-width:0.660554"
       id="path85" />
    <path
       d="m 438.46595,402.38612 c -16.89483,12.02526 10.94558,10.45637 -4.11375,4.94265 -8.34779,10.72877 23.81991,-1.13037 4.11375,-4.94265 z"
       style="fill:#000000;stroke-width:0.660554"
       id="path87" />
    <path
       d="m 397.52112,417.96483 c 9.90022,-14.88491 11.97154,-19.60578 24.41414,-13.26821 -13.50768,-14.72594 -6.84746,-24.92489 7.2015,-18.31193 -21.11582,-7.36855 -13.33624,-33.34444 8.58302,-33.40605 -26.59653,12.77814 -23.04604,-13.05291 -2.51974,-17.36016 -25.26303,22.87048 -30.7641,-43.42334 -3.70435,-11.58122 15.07732,24.13922 22.80283,84.16877 -14.34203,91.22798 -6.47941,1.29493 -13.00984,2.46908 -19.63254,2.69959 z m 40.65176,-45.95335 c -5.8145,-14.96041 -31.56228,3.89886 0,0 z"
       style="fill:#008000;stroke-width:0.419818"
       id="path98" />
    <path
       d="m 384.52839,417.8397 c -26.30036,-0.10829 -10.68221,-17.28853 2.16068,-13.88412 -1.57909,4.21335 9.6849,18.1204 -2.16068,13.88412 z"
       style="fill:#008000;stroke-width:0.419818"
       id="path100" />
    <path
       d="m 290.08488,356.60692 c -27.02553,-32.49478 -3.67218,-67.51002 31.45547,-78.58207 26.18879,-11.62154 76.47349,-16.90257 55.27184,23.83754 5.40217,-17.72913 13.16764,-33.24067 35.0004,-18.72434 -10.63642,28.27032 -39.70409,18.53639 -61.30117,36.2733 0.64963,-17.44166 6.54365,-63.64212 -3.55747,-21.25261 8.49523,27.66114 -28.96335,47.68654 -25.93338,9.31149 4.79085,-22.33034 -3.75251,-25.38818 -5.11018,-1.9324 4.37264,13.69851 10.62499,47.92882 -9.77082,36.11758 -2.9442,-15.77962 -11.69475,-62.92757 -10.40655,-24.72314 -5.02208,15.66721 23.68238,42.11329 -5.64814,39.67465 z"
       style="fill:#ececec;fill-opacity:1;stroke-width:0.419818"
       id="path102" />
    <path
       d="m 451.71192,327.33257 c -31.57838,-7.13545 7.37007,-48.52053 25.2814,-22.56753 -0.0288,-2.40936 -18.30588,31.2434 -25.2814,22.56753 z"
       style="fill:#ececec;fill-opacity:1;stroke-width:0.419818"
       id="path104" />
    <path
       d="m 516.69753,367.88863 c -18.23236,-10.01523 -22.0265,-16.98991 -3.20395,-29.82446 -7.29562,23.78329 -51.92287,8.16493 -20.73086,-5.55309 9.669,-27.24326 51.74763,-0.56672 49.01659,15.73617 -7.81121,5.12968 -21.57192,17.70805 -25.08178,19.64138 z"
       style="fill:#ececec;fill-opacity:1;stroke-width:0.419818"
       id="path106" />
    <path
       d="m 290.05228,356.13874 c -16.57603,-22.50847 -16.8329,-57.06468 13.78218,-67.73997 22.6131,-15.06846 53.45508,-24.46098 79.57511,-13.75835 -10.85729,15.54544 -5.40318,41.8514 0.64145,9.06805 8.29113,-15.05737 37.7485,0.0323 17.64903,13.1049 -8.95131,13.24984 -40.76522,12.19951 -51.01224,20.28783 -0.32739,-14.85192 8.29272,-61.03697 -3.56882,-21.29323 8.40659,17.98154 -19.62855,52.89795 -24.6336,21.63542 -2.81452,-11.66635 2.72786,-47.11859 -6.62225,-17.51355 0.0497,14.86255 14.78052,54.43418 -9.95197,40.31299 -3.47719,-15.86844 -10.26477,-64.58501 -10.07754,-20.95625 -2.08605,14.26256 19.87297,40.86976 -5.78135,36.85216 z"
       style="fill:#ececec;fill-opacity:1;stroke-width:0.419818"
       id="path108" />
    <path
       d="m 465.97572,335.16267 c -18.1833,-6.46946 21.51152,-45.74918 33.60984,-21.59828 15.52751,4.71941 -25.36026,36.34764 -33.60984,21.59828 z"
       style="fill:#ececec;fill-opacity:1;stroke-width:0.839637"
       id="path110" />
    <path
       d="m 411.04792,308.18136 c -24.12638,-12.82263 19.91122,-34.64155 19.16513,-15.5364 -6.87554,3.77283 -10.11071,22.59692 -19.16513,15.5364 z"
       style="fill:#ececec;fill-opacity:1;stroke-width:0.839637"
       id="path112" />
    <path
       d="m 428.97359,314.75098 c -28.60531,-8.56641 37.42478,-41.9331 12.8279,-8.63195 -3.91797,2.58937 -6.23093,15.23326 -12.8279,8.63195 z"
       style="fill:#ececec;fill-opacity:1;stroke-width:0.839637"
       id="path114" />
    <path
       d="m 344.08775,398.69553 c -14.7467,-12.72097 -59.76199,-18.4051 -56.95147,-33.11057 25.16173,-16.57418 58.68836,-46.30441 81.7545,-50.27292 -31.08387,16.90358 -8.14171,77.328 -24.80303,83.38349 z"
       style="fill:#ffffff;fill-opacity:1;stroke-width:0.839637"
       id="path118" />
    <path
       d="m 444.13178,408.46428 c 5.20341,-22.30441 0.95189,-60.55041 3.282,-76.70069 24.36788,14.49385 55.15024,29.24703 72.89283,47.9997 -24.6772,11.49418 -49.49565,22.6532 -76.17483,28.70099 z"
       style="fill:#ffffff;fill-opacity:1;stroke-width:0.839637"
       id="path120" />
  </g>
</svg>
