<svg xmlns="http://www.w3.org/2000/svg" width="803.93" height="1217.688"><g transform="translate(-140.201 -245.403)"><path d="M619.417 1461.488c-47.951-12.405-96.797-17.164-145.964-14.793-49.028-8.61-97.366 7.44-146.145 2.372 13.784-16.903 74.514-60.816 72.288-107.546 4.33-63.184 22.502 51.838 58.587 49.547 2.41 24.06-90.608-43.324-32.733-11.28-2.778-16.183-25.95-53.726-25.372-13.39-9.067 27.557-89.063 86.276-20.429 76.29 54.335-9.146 108.438.788 163.02-.944 48.569 1.24 95.274 27.488 143.682 7.626 47.613 6.705 1.514-36.621-12.187-54.307-35.461 50.73-78.285-8.779-55.1-51.1 3.363-38.994-83.55-49.889-33.96-85.81 15.952-11.502 19.462 40.83 46.384 40.669 18.006 20.919-3.913 117.93 40.735 78.963-29.103-45.322-12.962-114.402-28.62-153.48-49.451 11.203-105.92 34.694-160.566 26.21-17.996-11.217-106.027-47.095-57.423-.38 14.283 9.272 68.48 55.822 20.714 27.952-29.303-29.733-62.396-25.33-55.178-74.435-19.768 5.806-65.815-52.26-89.876-79.947-39.713-4.075-36.257-50.72-53.441-74.622 22.377 45.514-47.901 96.822-58.772 33.418-8.057-58.586 18.431-115.639 5.996-174.28 2.855-25.565-42.746-84.094-13.749-28.547 10.968 24.526 15.442 45.045-7.752 14.049-35.719-52.208-27.777-118.188-33.355-177.864 1.648-78.075 17.09-155.529 44.689-228.62 22.338-44.737 68.049-84.971 85.72-122.96 2.388-20.153 11.101 22.594 19.448-4.868 23.65-25.372 58.934-40.909 81.254-65.29-19.86 7.728-75.284 49.535-29.247 13.117 61.787-40.515 139.293-36.475 207.811-58.324 81.09-14.534 162.216 18.34 232.23 56.722 44.228 41.02 89.255 88.231 108.71 146.5 10.194 63.291 43.96 119.438 52.921 182.785 2.251 59.201-5.105 120.584-22.905 176.716-18.427 24.57 10.267-31.969-10.88 5.556-18.733 54.035-34.188 112.28-25.558 168.055 4.257 68.77-73.027 49.523-95.12 100.834-19.725 14.349 30.011-42.86-2.684-6.138-46.338 35.816 55.299-59.205 4.993-23.444 24.273-57.453-15.042 31.321-28.56 46.691-1.75 12.051-108.876 110.129-60.7 67.622 24.84-22.637-31.529 32.313-35.175 48.954-23.192 54.41-1.82 118.182 22.025 169.28 2.582 23.513 54.301 58.349 41.068 68.24-36.562-15.157-73.597 12.547-110.824 4.201m23.717-57.378c-5.69-33.061-29.585 18.36 0 0m14.764 2.833c3.272-27.641-20.637 10.644 0 0m15.96-14.499c5.23-18.828-22.97 27.142 0 0m-40.747.289c14.07-35.846-38.591 3.776 0 0m-4.593-21.995c22.176-37.79-31.134-6.444 0 0m5.79-40.27c-20.392-87.569-10.324 55.765 0 0m-15.312-25.48c1.687-26.467-24.991 6.518 0 0m-17.895-4c17.375-24.813-29.59 1.812-12.5-29.093-20.14-4.668-10.957 43.095 12.5 29.093m-54.655-61.754c33.177-4.114 103.514-15.025 92.644-25.756 62.4-34.708 108.876-93.026 142.726-154.878 16.116-35.038 42.465-79.558 53.69-124.167 9.51-22.552 17.217-70.35 1.235-20.847-1.253-46.865 33.244-92.841 7.085-138.267-11.322-58.294 6.67-121.545-20.486-177.703-14.564-33.579-52.47-121.398-94.098-65.378-70.737 62.664-142.554 124.593-218.772 180.276-33.647 42.708 27.156 87.124 10.987 136.191-18.562 48.99 71.132 26.899 39.605-13.065-4.822-53.77 10.186-113.456 48.904-152.095 55.987-38.053 130.79-62.594 196.007-35.327 33.392 25.38-105.01-13.1-67.187.803-26.945-3.47-50.554 4.99-78.62 20.822 18.167-21.432-47.586 42.923-13.924-.533-12.35 12.425-46.84 58.014-30.279 14.794-40 50.304-55.794 117.759-41.822 180.368 14.957 35.263 78.954 15.58 75.265 70.934 4.927 53.928-65.6 46.279-91.094 85.606-40.347 14.75-63.342-43.458-100.157-33.54-40.018-41.144 9.22-96.725 48.095-105.479 8.157-28.328-6.51-110.666-8.658-104.593-7.934 55.64-43.13 103.173-94.12 126.323-48.507 25.663-96.954-9.763-132.5-31.87-3.38 26.857 47.484 74.329 47.078 69.744-28.51-.438-67.55-89.751-41.968-24.913 13.984 17.97 77.381 75.435 23.672 42.12-17.95-21.41-48.907-88.813-55.887-43.482 4.412 34.309 43.198 62.647 40.026 95.258-20.728-18.504-37.22-82.406-43.838-77.982 14.236 51.309 45.248 97.715 46.806 152.283 27.368 54.076 83.555 88.836 132.801 122.08 36.86 24.715 82.046 41.282 126.784 32.273m-20.808-53.043c-28.942 1.15-29.567-33.59-2.106-6.13 24.904 12.186 90.926-30.462 34.215 3.903-10.234 3.66-21.468 4.396-32.109 2.227m-11.055-38.97c-50.564 4.486-115.616-49.236-49.166-81.88 36.416-28.34 83.61 11.431 115.905-24.442 55.893-8.16 94.645 72.79 27.405 89.306-28.813 14.798-62.044 19.928-94.144 17.016m35.5-5.501c27.923-1.152 72-12.707 82.807-36.133-50.335 34.431-140.671 21.372-175.992 15.38 28.303 12.052 62.141 28.162 93.185 20.753m-4.115-17.796c4.67-38.87-33.368 8.267 0 0m-20.866-4.462c1.66-34.28-30.231 16.553 0 0m43.72 2.142c-4.408-31.217 61.08-22.049 8.776-31.873-26.57-1.099-113.216 5.55-105.883 15.79 31.939-8.677 78.266-6.438 88.738 17.499zm-64.818-2.116c6.957-28.29-28.816 7.652 0 0m79.33-.682c8.809-36.527-21.29 3.922 0 0m14.416-4.068c35.474-13.359-28.417-16.973 0 0m-112.362-2.75c-20.073-22.969-11.392 24.79 0 0m139.492-10.334c-19.504-10.829-12.78 16.844 0 0m-166.973.481c12.636-26.057-36.316 10.912 0 0m-20.824-2.397c-1.539-4.13-3.156 4.357 0 0m199.909-1.852c-17.3-13.5-19.5-1.765 0 0m-160.087-2.742c19.206-18.77-27.457-6.063 0 0m-22.655-7.203c19.02-13.014 104.477-20.884 38.214-31.835-9.403.49-53.937 31.666-38.214 31.835m49.54 1.669c8.616-32.332-31.134 11.298 0 0m15.164-3.587c37.495-4.126-21.247-10.6-2.575 1.076zm93.88 1.787c-15.484-18.349-30.177 9.017 0 0m-59.922-2.588c35.13-11.086-6.684-14.54-10.615-1.064zm35.275-.026c3.326-26.205-25.806 14.7 0 0m49.396 1.438c1.85-46.758-97.854-42.802-75.102-23.354 26.89.601 49.724 16.75 75.102 23.354m-64-11.01c-6.782-2.666-3.468 9 0 0m-106.05-35.334c14.195-27.703 89.733-1.569 28.433-8.038-7.234-1.598-27.617 10.776-28.433 8.038m103.645-12.66c11.652-35.855 99.072 6.28 34.295-8.851-11.859-.692-24.788 1.156-34.295 8.851m143.514-106.473c-40.732-12.948-97.164-67.615-87.866-100.66 21.406 1.32 92.21 32.715 76.571 28.715-18.955-3.184-71.892-16.163-24.904 1.792 14.845 13.043 103.482 15.178 46.038 19.96-17.864-1.111-84.394-26.289-35.99 1.888 20.036 12.422 85.811 33.953 25.129 21.804-20.033-6.007-88.682-59.873-50.354-14.283 3.491 11.728 81.428 36.667 51.376 40.784M644 846.095c-2.833-11.682-11.202.968 0 0m-46.417-32.202c29.585-48.423 91.362-92.607 148.47-62.309 18.476 6.313 59.215 13.787 69.995 7.58-21.423 3.954 21.62 12.33-8.354 11.275 3.034 15.31-48.79 5.426-64.389 25.94-45.846 33.156-100.396 4.162-145.722 17.514m89.5-6.152c24.004-3.876 125.542-23.366 68.252-48.257-50.122-33.224-26.814 69.678-82.005 37.44-37.699-15.903 21.775-67.393-23.886-31.611-51.115 34.662-20.6 45.738 37.64 42.428m18.174-14.431c36.52-31.968-18.68 4.065 0 0m-78.674-9.298c-18.636 8.085-3.688 5.56 0 0m73.713 3.476c26.67-29.015-37.334 11.816 0 0m10.257-8.016c-4.59 1.895-4.06 9.004 0 0m-14.812.24c16.738-28.997-34.192 12.189 0 0m-17.676-4.955c33.263-13.973-19.248-3.645 0 0m.014-20.768c-1.625-14.297-18.007 35.55 0 0m1.182 7.671c50.648 6.06 10.248-29.895 0 0m-54.611-9.053c37.691-47.233 138.909-50.004 165.177-20.562-44.435-6.103-93.34-27.353-134.095 3.189-3.273.094-56.194 40.964-31.082 17.373m25.933 471.131c-1.316-3.792-2.244 3.873 0 0m14.055-13.851c31.094-20.447-18.804 2.432 0 0m.983-9.198c5.451-7.976-14.768 13.441 0 0m18.319-11.497c14.94-14.328-18.667 11.781 0 0m1.77 1.796c2.798-4.87-5.981 7.208 0 0m-457.698-89.302c13.586-28.607 24.582-112.557-21.077-101.385-22.746 17.851-19.751 118.502 21.077 101.385m4.788 2.302c16.12-16.454-14.146 6.775 0 0m568.838-43.632c15.238-21.108-27.147 30.173 0 0m-530.762-2.402c7.147-27.235-43.064-86.396-15.975-28.182 4.6 8.202 3.39 28.14 15.975 28.182m550.017-10.21c4.689-11.433-19.037 22.097 0 0m-14.31-4.041c-5.294-3.637-2.196 8.722 0 0m18.043-6.322c-6.812-1.568.618 7.178 0 0m27.273 2.228c48.017-24.311-4.838-126.977-18.963-44.628-15.792 19.038 6.445 38.663 23.496 27.253-15.506 2.113-33.684 18.088-4.533 17.375m-30.01-3.657c1.733-27.15.67-54.795-11.008-10.962-9.515 14.612.773 10.44 11.009 10.962m-269.243-21.736c27.772 7.382 38.929-69.308 24.785-19.004-17.155-36.079 44.839-82.983 37.79-19.32 52.555-20.547 10.804-100.56-41.298-74.711-41.664-21.743-120.184-8.412-120.625 49.043 1.116 44.358 40.04 27.422 43.682-6.604 11.694 7.233 2.74 71.5 9.238 25.19 32.014 22.202-7.12 57.159 46.428 45.406m15.81-1.912c17.17-11.5-11.017 4.263 0 0m10.127-12.566c-1.316-3.792-2.244 3.873 0 0m-352.13-5.343c-14.838-39.712-5.98-83.352-8.232-124.953-12.339-32.354-50.903-60.102-14.336-96.084 23.354-32.07-24.765-53.643-27.224-9.43-13.832 55.433 31.928 103.096 28.193 156.933-2.505 21.807-13.831 76.02 21.6 73.534m609.498-25.47c9.606-46.646-15.942 39.113-.538 1.468zm-588.78 7.063c-2.46-21.546-26.882-64.048-10.563-18.293 3.05 2.08 7.112 24.286 10.563 18.293m630.05-5.23c-8.412-42.505-2.845 16.207.04 1.14zm-246.86 3.423c28.894-8.065-3.195-11.11 0 0m231.626-20.287c.883-20.814-19.378 9.066 0 0m-14.488-14.204c20.775-33.495-19.075-20.237 0 0m11.084 3.516c.499-21.063-11.52 4.99 0 0m16.893-11.468c7.315-29.909-8.53 21.329 0 0m-3.148-12.316c8.361-47.88 15.21-95.194 32.83-137.24 14.7-24.161-1.924-109.104-26.34-51.892-9.579 29.208 27.592 24.51 11.069 59.165 7.322 45.516-38.594 84.817-38.173 120.46 7.755-.237 16.34 2.523 20.614 9.507m-643.745.875c-1.345-7.111-3.34 5.47 0 0m164.028-17.078c25.325-10.23 40.858-19.787 5.605-4.596.634-1.646-27.035 12.883-5.605 4.596m-14.028-.325c60.322-13.343 109.222-71.253 100.395-134.59 4.805-58.15-48.151-117.113-108.717-96.883-57.123 11.374-112.263 66.315-99.621 127.62 26.677 23.538 26.262 48.567 7.905 36.175 19.546 35.738 54.984 74.964 100.038 67.678m-129.98-10.679c1.93-4.824-5.649 6.118 0 0m645.99-52.477c7.704-52.41-13.079 52.25-6.624 35.03 2.42-11.635 4.7-23.301 6.625-35.03m-45.174 35.25c9.04-35.675-8.283 14.414 0 0m13.342 2.624c7.575-32.248 34.571-102.101 15.966-113.542-7.499 36.257-30.488 76.961-15.966 113.542m-419.015-3.56c22.262-4.732 48.327-82.671 23.317-32.213-1.649 9.223-27.484 29.478-23.317 32.214m-173.663-8.314c5.704-10.456-12.7 11.163 0 0m-33.959-7.066c.738-5.492-4.492 4.766 0 0m-1.54-4.243c-3.386-17.35-3.954 5.628 0 0m10.5-3.69c-1.54-4.13-3.157 4.356 0 0m-1.5-4.023c-6.298-22.619-29.43-53.359-9.483-13.303 2.574 2.446 2.912 17.02 9.482 13.303m-30-7.978c-6.378-16.653-5.668 14.315 0 0m40.776.738c-2.9-27.155-38.503-59.208-11.59-15.113 2.553 2.388 4.005 22.336 11.59 15.113m-49.574-9.988c19.1-25.883-13.15-74.957-8.129-20.15 2.034.904 1.104 26.515 8.129 20.15m59.298-.601c-2.842-22.721-36.676-86.899-38.539-70.039 7.038 25.94 21.661 49.395 38.54 70.039m-97.5-10.434c-1.141-24.96-20.09-83.415-11.324-25.599 1.076 2.433 7.255 43.845 11.323 25.6m347.881 2.535c-.266-24.453-3.97 11.72 0 0m397.352-23.169c29.726-71.77 11.528-150.626 8.784-224.9-3.514-25.976-24.89-36.837-12.464-2.492 12.41 35.658 7.811 108.469-10.61 119.339 20.186-60.276-23.584-2.617-19.903 24.206 48.98-36.22 41.889 55.155 29.525 86.895-4.949 19.842.195 10.254 4.668-3.048m-421.992-13.747c9.642-30.562-11.502-47.192-3.477-6.683-.493 5.31-1.053 33.329 3.477 6.683m-261.623 5.004c-5.334-7.989 5.154 11.182 0 0m638.93-8.831c-1.928-19.502-7.139 26.022 0 0m-606.636-12.582c3.881-20.05 17.463-49.818-3.374-16.286-19.369 8.049 9.616 53.352 3.374 16.286m607.085 1.074c2.83-20.5-9.672 20.585 0 0M168.876 755.42c10.456-50.265-9.78 14.034-3.87 8.037zm694.62 5.851c12.14-29.63-17.478 13.281 0 0m-13.647-8.669c-3.826 6.1 3.773 9.334 0 0m28.786 4.58c3.557-7.376-8.447 10.632 0 0m-632.042-1.754c32.584-57.56 95.18-105.376 163.6-99.54 39.234 12.722 69.627 65.298 102.024 13.09 69.66-60.31 145.176-113.26 221.206-164.593 17.732-37.4-56.098-49.906-83.048-63.829-64.631-17.095-133.475-6.702-196.82 10.28-53.12 21.668-106.794 50.399-139.214 99.548-37.85 43.704 18.021-35.93 38.685-44.779 20.084-22.28 91.644-49.376 83.782-58.06-49.7 2.22-80.529 46.85-122.464 66.942 40.785-52.417-37.709 48.803-38.096 45.751 15.705-14.485 48.13-70.614 12.474-29.83-25.929 28.777-47.013 62.976-55.767 101.034 26.976-54.143 76.372-95.279 121.562-133.382 36.313-17.588-38.047 23.828-43.392 40.198-14.488 15.324-46.477 55.12-13.318 17.874 15.321-20.362 49.511-50.858 14.044-12.022-43.42 38.224-71.62 88.973-87.693 143.567-4.668 23.688 8.492 55.274 22.435 67.751m72.447-119.374c24.75-14.11-27.3-57.923 13.964-31.44-1.483-30.952 20.896-25.298 17.846-53.578 18.707 46.843 9.54-49.619 25.955-4.299 20.301-19.179 36.642-24.51 5.681-4.526-1.478 15.762 26.985 28.876-8.047 15.524-27.171 8.664 18.533 30.115-19.133 22.955-19.014 15.815 30.79 24.354-11.598 19.777-24.04 9.904 36.442 29.703-5.17 21.644-14.594-6.802-13.738 21.348-19.498 13.943m130.543-10.18c29.59-19.214 128.842-14.808 118.51-21.257-36.498 21.907-80.138 9.166-118.51 21.256m2-43.645c-40.664-9.64 43.294-7.558 57.736-11.163 28.551-.539 110.014-7.032 106.631-4.086-53.33 15.676-110.36 2.421-164.367 15.25m9-36.272c49.798-39.025 116.895-26.516 174.539-20.99-44.115 15.476-86.218-12.091-130.637 4.905-15.258 3.318-30.397 8.099-43.902 16.085m-308 202.28c-2.357-7.149-2.357 7.149 0 0m10.945-9.95c22.05-23.106-13.544-66.613-5.463-19.996 4.033 4.541-1.528 51.374 5.463 19.997m110.606-.333c-12.032 17.09.148 6.98 0 0m595.307-14.463c2.863-50.852-14.683 46.781-.22 10.58zm-650.614 10.667c-17.02-27.245 14.019 33.07 0 0m-23.701-5.49c22.307-17.531-41.735-14.261-12.201 12.76 6.728-.88 8.957-8.1 12.2-12.76m664.545-9.645c20.348-61.551-13.687-106.077-26.508-163.742-9.321-50.954-17.906-116.073-70.286-140.37-38.382-19.872-101.676-62.662-163.935-58.734-20.078.299-103.862 50.788-87.283 36.436 28.266-11.145 97.07-6.4 90.434-24.26 51.185 4.238 99.84 21.708 141.574 50.658 20.698 7.631 48.837 61.724 13.933 23.49-36.256-23.97-74.874-49.037-117.76-58.408-21.734-11.934-87.286 15.775-33.251 7.452 31.25-2.962 91.638 17.502 97.814 30.6-44.685-9.474-87.601-39.994-134.817-18.48-32.073 7.165-33.11 16.675 1.808 6.046 25.751-7.314 26.279 2.638 1.94 7.093 44.528 19.81 100.234 8.584 139.837 43.983 61.445 27.945 99.676 86.886 122.12 148.463 22.094 27.884 8.353 110.427 24.095 111.088zm-587.863 8.303c4.241-8.888-14.844 19.272 0 0m9.337-.339c21.685-20.207 24.069-34.53 2.12-5.993-.407-.185-12.187 22.844-2.12 5.993m236.863-21.25c72.064-55.872 142.43-113.998 209.792-175.48 32.749-8.538 34.005-49.197-.052-19.166-79.868 54.1-159.204 109.59-231.124 174.103-43.107 13.61 1.872 56.577 21.384 20.543m-317.406 3.25c-2.08-57.194-38.002-23.043 0 0m103.455-14.85c-7.582.795-14.665 16.594 0 0m-127.098-6.26c-7.804-34.093-1.505 33.796 0 0m147.36-4.308c44.37-14.466 1.215-11.814-14.288 7.794l6.99-4.177zm-104.33-4.999c5.74-27.594-15.452 19.712 0 0m669.915-9.833c33.431-15.57 7.148-85.684-2.508-25.922-3.003 8.142-10.875 63.544 2.508 25.922m-260.77 7.513c9.094-15.837-17.9 22.041 0 0m-453.684-4.095c4.2-17.867 9.63-99.789-7.506-42.048 8.894 8.9-14.225 51.432 7.506 42.048m38.113-6.367c13.121-21.865 20.108-61.06 3.213-17.522-16.298-36.827 15.255-87.177 41.277-118.107 23.496-32.258 30.882-83.816 34.039-80.772-34.444 16.146-22.704 75.443-38.931 43.41-20.414 27.353-41.804 115.508-45.802 106.381 8.91-44.556 31.68-95.793 40.962-133.373-44.206 52.602-55.443 124.485-42.115 190.64 3.254 6.128.153 28.601 7.357 9.343m446.52-1.544c20.592-23.334-27.908 22.889 0 0m-502.182-4.507c10.307-53.776-11.274 23.015-2.303 8.294zm719.621-14.703c26.777-31.925 23.432-79.98-1.194-103.778 11.68 39.455-5.366 78.628-2.325 118.31l1.922-6.388zm-642.384 6.175c21.783-57.448-14.271 17.73 0 0m446.445 1.958-4.015 2.135zm92.082-4.43c.781-6.646-8.409 6.08 0 0m164.046-9c-4.46-10.427 4.718 30.118 0 0m-182.27 6.278c6.528-12.793-26.098 12.637 0 0m-594.824-19.818c6.963-69.73 36.51-134.319 66.05-196.96-30.742 43.43-56.018 91.867-61.295 145.542-1.449 5.398-26.076 90.635-4.755 51.418m707.923-15.061c-4.822-34.797 2.462-108.865-25.596-120.563 23.054 37.58-2.414 116.062 26.167 131.91zm-644.514 8.601c15.386-41.891 70.667-99.206 85.676-114.302-38.062 31.32-77.468 68.922-89.305 117.967zm-47.229-20.156c12.41-18.999 12.168-91.44 1.877-36.97-.439 3.754-18.356 65.416-1.877 36.97m84.549-7.136c19.993-27.418-15.925 14.15 0 0M848 568.238c5.29-22.282-24.648-97.16-12.554-36.54.772 5.376 15.565 73.833 12.554 36.54m-575.935-31c17.875-16.217 65.104-63.822 18.17-23.625-16.446 16.247-84.97 91.873-33.159 40.036l7.6-8.11zm-18.482 12.979c18.84-27.963 65.146-68.829 41.805-95.536-9.793 40.273-35.425 77.53-59.07 114.384a1451 1451 0 0 1 17.265-18.848m644.432 15.771c-5.157-21.25-17.612-42.259-4.745-8.924-.363-5.083 5.38 19.467 4.745 8.924m-.463-46.25c.964-16.857-47.84-77.394-22.875-65.114 29.927 55.249-.59-44.122-18.441-53.872-13.107-22.62-44.779-56.62-21.745-10.508 19.08 46.551 27.565 99.028 58.496 138.712 9.354 18.35 4.325-5.745 4.565-9.218m-693.54-5.25c-9.813 12.733 2.64 19.77 0 0m13.085-18.79c17.983-46.914-32.28 37.156-2.528-3.88-4.883 22.319-5.572 29.124 2.528 3.88m28.311 6.235c17.831-40.41-23.135 19.418-1.378 2.205zm48.204 5.263c35.403-17.444 1.173-35.803-6.273-.721-5.778 14.893 2.965 2.688 6.273.72m43.971-8.808c23.237-5.807 68.648-69.765 23.887-27.56-3.512 4.304-54.191 48.39-23.887 27.56m-18.473.543-2.356 1.507zm11.133-9.029c1.913-20.499-27.465-49.619-10.983-11.07 1.351.95 6.821 20.703 10.983 11.07m29.342-22.107c21.957-19.229 43.65-54.537 6.456-17.608-68.466 28.5 44.381-26.997 28.957-27.17-38.886 23.196 24.253-19.882-16.057 1.619-31.712-3.047-74.157 52.217-33.003 56.31 4.733-4.191 9.108-8.757 13.647-13.15m-139.207 7.466c14.357-18.006 32.94-79.267 6.164-27.854-2.424 4.638-29.004 52.938-6.164 27.854m43.248-3.17c9.754-16.774 34.663-52.033 6.768-20.502-3.268 5.516-20.977 47.843-6.768 20.502m566.331 2.148c-13.989-35.528-22.126-17.124 1.368 5.822zm-590.851-1.5c10.656-21.712 62.234-64.064 30.822-81.664-27.91 31.003 22.055-11.657-1.15 17.48-8.801 19.83-29.968 46.538-29.672 64.183m-6.179-3.25c4.463-13.182-7.194 14.44 0 0m63.607-30.81c-26.62 4.319-25.848 42.527-4.124 5.35 1.452-1.718 2.713-3.598 4.124-5.35m-57.956 17.81c12.71-21.504 20.827-43.224 2.29-10.402.073-1.642-10.416 26.82-2.29 10.401m64.005.25c-2.653-7.713-3.655 7.583 0 0m538 .624c-17.031-19.086-19.828-65.54-.198-20.825 4.466-4.251-26.184-72.676-50.235-88.105 42.217 1.426-30.791-45.58-54.704-51.48-24.977-13-73.608-7.318-24.643 11.026 55.83 30.03 87.23 85.864 118.35 137.874l5.17 6.361zm-577.618-4.177c-1.584-3.53-1.434 5.606 0 0m52.597-.437c18.982-27.36-22.405-11.172 0 0m108.521-12.465c44.238-25.705 102.595-17.369 143.203-49.066-57.941-3.95-110.094 26.987-163.352 44.88-33.155 10.633-12.64 25.115 7.741 9.132l6.742-3.136zm-7.5 7.954c5.362-5.607-11.915 7.034 0 0m-145.361-10.946c5.918-19.773-15.42 32.116 0 0m97.861-11.498c24.07-8.593 82.191-37.336 84.45-35.183-25.45 5.667-81.442 59.425-25.277 31.948 33.929-25.607 114.19-35.47 126.183-57.272-35.915-6.497-113.553 28.653-111.326 19.805 34.126-17.283 113.6-36.617 119.457-51.58-36.94-3.326-107.774 23.697-122.346 19.045 25.334-14.082 95.453-25.456 95.212-35.358-41.087 5.805-123.62 16.645-135.501 38.546-7.017 9.267-84.797 41.808-69.198 79.001 34.502-35.057 115.398-76.262 138.14-80.445-47.592 27.058-104.87 44.834-140.1 88.324 12.028 1.973 27.586-13.25 40.306-16.831m-58.085 9.95c17.472-31.761-42.41-100.76-20.647-35.015 11.054 3.614 9.866 53.36 20.647 35.015m170.585-2.414c41.133-8.044 25.396-14.555-4.51-4.344-27.079 7.48-13.624 10.57 4.51 4.344m13.5 2.547c18.41-.982 88.82-13 36.678-10.24-4.824-.14-52.678 12.975-36.678 10.24m-202.513-7.528c-7.314-17.316-13.647 22.952 0 0m-5.376-6.235c4.95-24.565-19.3 32.746 0 0m522.696 5.515c-13.022-22.571-55.392-50.694-15.115-13.54 1.823 1.08 19.168 22.956 15.115 13.54m-548.473-15.036c-19.44 6.55-15.619 28.71 0 0m18.196 6.09c1.825-7.013-6.28 10.623 0 0m47.645-4.195c39.631-46.45-23.468 17.36 0 0m-68.235-13.75c20.073-30.318-26.788 29.687-6.07 6.883zm69.087 3.935c23.516-13.293 74.385-69.046 16.774-35.892-11.69 3.375-54.207 37.237-16.774 35.892m-82.402-.435c14.766-23.044-15.38 19.82 0 0m15.407-13.622c12.037-16.677-22.107 24.337 0 0m481.393-3.505c-19.935-20.377-58.269-21.312-76.925-34.785 24.11 14.795 51.605 22.52 76.925 34.785m-466.925-5.564c-6.94-2.56.01 9.23 0 0m46.549-6.559c8.9-18.555 81.89-49.006 59.164-48.05-17.96 9.093-68.893 31.1-26.458-.648-27.007-3.164-72.722 72.87-24.39 34.483 19.957-17.34 54.935-34.848 13.46-8.087-5.12 2.311-49.95 44.854-21.776 22.302m3.804 3.911c14.36-10.224 85.85-51.397 46.188-9.817 52.071-47.012 121.602-60.797 187.925-74.51 23.7-11.93-53.237-1.48-69.193-2.344-27.294 11.248-34.042 18.423-67.55 25.48-23.814 10.065-57.72 40.305-73.522 41.645 53.166-42.01-42.963 21.479-23.848 19.546m451.647 2.27c-5.85-18.497-49.823-56.341-21.83-15.215 4.933 7.875 14.176 10.857 21.83 15.214m-445.069-45.072c-27.928-4.157-51.287 50.225-11.778 11.37l5.875-5.7zm181.57 27.205c32.538-2.525 121.775-15.365 115.109-18.259-29.345-26.318-109.779 13.894-113.499 16.937zm214.943-8.814c-12.316-18.305-30.584-21.428 0 0m-368.316-1.5c3.162-4.585-7.089 6.407 0 0m43.372-27.503c48.877-36.385-78.55 48.05-17.615 10.808l8.762-5.48zM733.397 343.5c-10.906-25.526-79.242-51.918-22.938-18.406 2.575.156 29.637 31.056 22.938 18.406m-46.314 2.183c-7.267-8.614 33.437-2.589 1.465-18.42-16.09-42.472-111.069-11.471-102.772-27.306 22.337-3.318 102.496-2.131 38.253-7.51-61.173 2.991-121.18 18.477-179.263 37.022 30.808-2.982 103.787-32.192 108.77-11.233-23.948 11.477-70.585 20.786-15.686 11.817 47.621-19.184 75.218 12.134 126.039 15.864 7.715.63 15.495.78 23.194-.234m-335.548-8.945c34.144-13.055 126.055-51.44 112.818-50.191-33.69 14.89 118.712-26.937 44.283-15.252-34.411-8.69-91.56 37.476-102.064 26.295 48.455-30.957-42.122 13.002-47.055 29.628-.601-1.184-21.788 15.006-7.982 9.52m-11.824-11.75c2.797-4.87-5.982 7.208 0 0m8.955-2.906c-4.214-.269-8.645 9.297 0 0m24.417-19.642c-37.498 21.82-28.448 21.303 0 0m-17.94 18.83c32.383-8.554 16.125-19.576 0 0m79.035-15.507c37.775-4.12 9.242-13.869-8.216 1.948zm-36.3-11.506c-6.752-5.607-24.66 16.87-5.991 3.583zm-15.295-1.09-4.015 2.136zm269-8.475c-20.8-23.036-81.083 2.272-25.851.066 8.598.53 17.274 1.076 25.851-.066m70.427.927c-42.5-21.234-92.388-37.797-140.177-30.217 45.929 13.25 92.394 26.004 140.177 30.217m-279.698-.485c-3.378-2.819-1.411 2.507 0 0m75-3.473c18.033-4.54 103.507 5.302 47.951-10.3-2.944-2.2-81.713 14.994-47.951 10.3m8.614-22.093c21.67-.946 54.576-4.847 13.592-3.732-5.739-1.54-42.202 10.66-13.592 3.732m-122.343 1172.98c-27.888 3.802-41.538-35.974-8.874-9.986 10.587.546 36.657 11.623 8.874 9.987m14.909-9.792c-31.527 3.267-31.677-63.496-12.127-14.83 6.1 4.745 40.025 15.617 12.127 14.83m12.435-7.06c-30.36.812-42.35-59.98-13.43-16.302 5.734 5.446 39.611 16.02 13.43 16.303m23.011-65.064c-29.845-13.693-62.695-42.428-53.135-79.008 6.54 31.038 45.303 71.266 53.135 79.008m2.145-28.772c-30.54 7.339-58.853-77.759-23.617-24.146.08 12.339 64.415 27.5 23.617 24.146m482.689-16.372c5.2-15.084.706 11.486 0 0m-167.939-47.412c-.83-11.755 17.024-4.08 0 0m7.75-185.12c7.025-16.108 11.346-4.531 0 0M890.868 911.07c-.54-18.777 4.379 9.242 0 0" style="fill:#000"/><path d="M532.32 1013.76c-35.36-4.517 17.589-20.307-17.28-32.423-11.993-14.65-14.338-10.118-10.184-39.124-27.08 2.75-18.388 63.524-47.75 23.47-22.903-51.866 51.071-76.847 79.036-72.362 34.234 6.737 53.18 10.625 85.55 7.395 23.418 18.41 22.655 89.342-13.579 69.32 22.845-40.423-33.078-35.97-30.197-.044-2.268 29.781-6.28 47.042-45.596 43.769M865.551 918.88c-40.908-18.896 23.845-50.305 16.53-88.333 10.963-31.665 18.586-80.92-4.296-88.923-3.377-28.01 34.663-51.361 29-8.705 7.415 55.608-29.584 100.145-29.211 156.385-3.347 5.383-1.552 41.725-12.023 29.576" style="fill:#f4d7d7;stroke-width:1.27111"/><path d="M855.817 876.609c7.906-35.48 9.463-98.485 28.909-116.003-1.476 35.205-7.76 95.231-28.909 116.003" style="fill:#f4d7d7;stroke-width:1.27111"/><path d="M215.424 994.56c-23.134-19.703-10.442-62.285-9.158-88.756-12.104-48.939-39-95.922-28.163-147.878 21.486-57.885 48.598 19.47 11.327 36.498-14.224 40.581 39.255 52.276 28.065 88.553-4.196 29.29 6.696 77.956 3.376 81.71-11.482 9.969 21.93 34.595-5.447 29.872" style="fill:#f4d7d7;stroke-width:.635554"/><path d="M201.91 828.903c-15.684-17.248 3.765-79.932 7.148-28.123 1.213 4.807-4.51 36.316-7.148 28.123" style="fill:#f4d7d7;stroke-width:.635554"/><path d="M509.195 1240.217c-69.318-8.69-125.667-56.73-177.24-100.23-50.866-30.242-44.261-89.712-64.903-137.334-12.164-24.348-38.504-103.369-10.791-38.533 3.81 20.417 43.01 71.024 23.79 22.515-17.408-17.562-56.989-111.207-14.993-77.208 10.616 17.76 46.874 77.765 58.534 55.646-15.728-12.648-63.033-63.161-48.614-61.904 2.024 23.949 77.11 55.5 29.304 26.542-25.702-14.353-47.91-89.735-4.62-38.454 42.274 33.543 105.817 24.156 143-12.739 34.846-22.862 46.786-65.3 56.26-103.466 3.63 37.28 15.225 75.48 4.845 112.565-51.703-.51-84.4 77.14-37.777 106.807 38.56-12.52 74.466 62.642 112.49 12.874 25.853-32.226 93.453-27.27 68.148-86.724-12.748-47.634-93.249-25.279-75.386-91.286-4.58-49.142 11.283-98.43 41-137.193 2.225 29.225 13.322-13.367 28.752-8.01 23.395-20.466 58.448-33.292 83.598-34.796 20.228-3.328 86.256 19.154 84.897.496-49.03-24.25-110.129-13.391-158.006 9.45-52.648 16.997-79.808 68.424-88.758 119.799-14.575 39.38 28.315 105.752-40.527 98.075.267-41.777 2.588-85.644-20.658-122.587-5.31-64.351 84.074-81.52 118.022-126.484 45.255-36.507 86.826-77.48 132.322-113.524 48.057 5.046 61.75 69.999 79.067 108.119 15.301 48.7 2.956 100.926 11.295 150.016 24.981 43.791-2.525 88.427-5.937 133.363.832 19.734 16.422-36.479 5.687 4.655-14.118 46.922-30.434 93.291-56 135.27-25.847 57.982-68.42 109.408-118.281 148.504-39.29 21.549-22.003 19.155-33.21 26.825-40.565 10.763-83.21 19.69-125.31 18.951m47.73-55.251c23.56-10.19 37.492-24.746 5.686-9.164-16.246 22.177-84.647-26.674-50.012 8.026 14.179 4.724 29.94 5.34 44.326 1.138m7.22-39.337c54.781.84 123.363-68.442 47.115-99.43-36.168-23.936-56.881 26.996-91.75 8.819-44.796-18.237-126.244 53.736-56.566 78.981 31.162 16.087 67.264 16.556 101.2 11.63m-86.786-107.65c19.784-4.023 73.337-6.696 22.864-10.873-9.416-7.757-54.544 24.398-22.864 10.872m102.675-14.385c13.298-10.591 78.886 8.45 36.808-10.328-7.242-14.577-70.174 22.727-36.808 10.328m144.792-103.379c-15.101-15.257-86.421-48.163-65.256-55.652 19.008 13.436 71.693 45.34 80.566 30.625-24.9-5.793-103.29-49.38-37.67-28.134 18.467 9.994 71.8-.311 23.582-4.24-23.104 1.157-99.13-32.018-35.905-15.367 59.618 13.663-50.64-30.078-69.683-27.243 11.979 46.912 54.594 95.696 104.366 100.011m-38.02-105.73c41.364-5.007 91.837-38.99 123.339-38.8.838-9.114 20.424-3.454.92-13.273 35.981-12.947-43.552 5.802-54.756-8.838-46.071-24.23-102.057-9.586-134.632 29.631-15.806 17.794-38.463 38.191.82 24.693 21.256 4.041 42.437 10.633 64.31 6.586m-47.808-67.23c39.182-35.647 93.273-29.588 139.99-15.783 43.549-.523-55.684-29.837-71.337-18.436-26.177-5.82-97.07 42.285-82.66 43.431l6.46-4.206zM240.559 747.742c-37.1-49.621 1.335-108.466 27.254-153.097 12.506-15.322 43.48-54.167 32.128-26.197 34.523-50.203 83.049-88.145 139.38-111.105 63.224-22.805 134.043-31.383 200.335-18.44 30.932 10.82 132.863 35.488 80.714 74.244-85.368 54.211-164.308 117.85-242.044 182.448-37.463-30.558-84.891-56.192-132.875-30.197-42.339 16.51-75.46 50.642-99.176 88.6zm82.196-111.244c5.006-25.49 50.927-3.218 17.108-26.466-6.727-18.775 48.074-.885 11.035-19.848 3.607-21.442 40.091 1.605 14.43-22.427.348-23.26 52.483 11.9 17.373-18.551 3.259-12.341 36.756-34.643 4.494-11.72-16.55 14.35-24.361-22.963-22.507 17.513-5.208 20.128-24.616-27.173-16.477 18.537-10.414 2.406-16.006 17.715-18.12 28.653-37.33-29.153 8.492 32.643-7.336 34.309m143.515-13.271c35.391-7.823 80.193 2.93 108.466-24.555-33.187 21.755-106.572 4.829-120.501 27.518l5.725-1.132zm-.43-42.016c51.921-11.745 108.188 3.579 158.047-17.336-62.829 6.044-127.56 4.122-189.91 14.046 9.079 5.365 21.52 6.152 31.863 3.29m2.69-38.547c49.76-27.881 103.36-10.703 155.676-13.971 22.601-8.984-53.307-8.62-67.529-10.237-19.47-8.622-107.178 21.873-88.147 24.208" style="fill:#f4d7d7;stroke-width:1.27111"/><path d="M358.225 902.707c-31.83-2.728-76.253-50.864-73.835-65.857 36.844-.856-35.059-40.045-14.33-65.308 10.62-70.57 94.926-120.497 161.373-94.331 50.273 29.081 54.401 97.452 39.691 147.6-17.857 43.835-65.01 78.837-112.899 77.896M493.563 719.188c-39.675-32.487 47.848-57.21 64.871-84.913 61.866-47.202 123.818-95.729 191.577-133.95.471 24.077-59.779 54.915-81.527 81.362-54.917 48.693-113.876 92.531-169.873 139.896l-2.64-1.252z" style="fill:#000;stroke-width:1.27111"/><path d="M855.54 721.687c-5.35-49.793-6.925-101.219-34.076-145.414-23.126-59.676-74.015-102.143-130.542-128.954-30.545-24.87-90.782-11.857-113.05-31.18 53.962-21.875-83.293 9.809-8.437-11.34 44.715-27.664 110.384 22.416 136.658 13.88-36.738-22.294-81.064-30.375-122.554-26.508 51.55-27.578 105.824 11.543 150.593 35.34 14.615 6.71 60.515 53.456 32.816 11.577-43.747-43.596-104.535-65.805-165.42-71.455-12.424-3.766 8.963 18.943-19.868 13.455-28.186 2.917-69.315 10.116-18.12-9.653 40.272-31.837 98.849-6.518 140.122 12.548 35.22 30.67 52.902 18.085 83.886 49.754 53.147 55.007 29.423 144.137 76.79 201.565-.668 24.742-1.184 77.85-8.798 86.385M830.14 445.679c-32.222-54.342-66.488-111.419-124.62-141.797-45.253-26.014 47.568-7.317 59.611 7.74 22.993 13.28 45.705 30.774 27.495 42.402 22.165 9.16 50.539 80.242 41.312 69.617-22.189-34.578 6.974 38.902-3.798 22.038M888.527 522.324c-29.119-46.437-40.122-102.302-61.113-152.987 17.603 7.168 67.248 87.996 55.745 99.064-31.398-51.38-4.892 23.959 11.06 39.976 2.631 9.666 7.13 35.494-5.692 13.947" style="fill:red;stroke-width:1.27111"/><path d="M864.238 625.188c-17.798-41.796-1.985-93.501-20.575-136.765 29.592 29.368 20.39 93.076 24.506 136.892l-1.518 1.497zM873.526 651.757c3.25-36.564 9.24-77.807 4.725-111.169 25.346 38.269 19.549 77.062-4.067 116.845z" style="fill:red;stroke-width:.449405"/><path d="M882.583 680.297c-5.327-20.967 23.08-99.158 22.69-39.494 2.334 18.598-18.654 28.294-22.69 39.494" style="fill:red;stroke-width:.449405"/><path d="M905.466 811.58c6.168-28.272 27.473-110.136-12.812-105.153-43.091 33.375 27.874-95.176 5.64-21.311-3.055 26.033 24.19-41.939 16.966-55.626 6.018-22.95-17.901-72.167-5.233-80.281 20.388 47.738 13.299 103.44 18.368 154.864.667 35.949-8.56 80.19-22.929 107.506" style="fill:red;stroke-width:.449405"/><path d="M864.995 742.68c-8.878-24.835 12.007-48.877 3.852-9.297 5.648-3.108-.39 16.052-3.852 9.298M846.403 576.431c-9.495-23.708-21.027-105.952-2.978-42.526 2.77 8.169 8.177 47.956 2.978 42.526M828.116 475.936c-20.305-23.455-10.01-32.816 1.724-1.281l1.12 4.917zM770.85 377.386c-23.947-9.629-31.994-50.448-5.985-14.23.64 1.916 21.1 24.95 5.985 14.23M804.192 423.732c-12.328-11.61-43.825-46.073-11.283-15.599 2.628.417 28.695 33.736 11.283 15.599" style="fill:red;stroke-width:.449405"/><path d="M329.372 443.943c27.223-40.129 79.39-56.061 120.555-79.804 59.208-29.277-34.717 9.183-52.312 22.12-23.608 1.834-56.432 58.283-71.23 40.576 2.79-39.162 84.59-67.252 71.777-73.966 43.482-26.967 96.09-27.077 144.796-36.98-26.11 16.083-103.247 28.762-100.238 38.764 36.039-6.191 102.445-27.29 123.158-18.413-42.342 20.663-88.506 32.183-130.88 52.693 36.374-5.506 99.012-34.653 122.478-18.89-52.392 19.393-104.466 39.44-155.409 62.133-2.585-23.16 99.216-59.358 28.431-33.24-33.7 14.988-67.641 30.196-101.126 45.007M391.242 452.441c-13.736-15.825 64.786-32.343 89.763-45.365 22.46-8.364 74.687-25.015 80.887-10.598-49.718 24.812-108.94 23.476-157.667 51.97 2.411-.923-18.438 8.28-12.983 3.993" style="fill:red;stroke-width:.317777"/><path d="M509.473 363.4c32.476-19.198 108.277-39.125 120.496-13.986-40.722-1.4-79.834 14.723-120.496 13.986" style="fill:red;stroke-width:.317777"/><path d="M668.361 346.092c-53.432-4.102-84.853-36.682-135.947-15.57-64.74 13.045 70.59-20.084 7.703-20.558-28.49 3.017-71.09 15.292-89.115 17.265 64.526-16.818 131.298-40.478 198.73-32.009-2.27.145-120.65 8.115-43.337 9.429 31.762-10.492 91.715 11.168 89.84 36.112-21.571-6.972-1.785 9.658-19.321 5.327z" style="fill:red;stroke-width:.317777"/><path d="M319.977 380.71c10.893-14.656 65.35-52.9 27.962-18.159 37.81-18.852 78.45-55.828 118.614-54.932 15.496-28.477 76.027-14.057 104.223-16.924-62.509 17.322-130.71 23.85-183.158 66.257-26.674 25.14 20.468-28.576-19.605-2.15-16.539 7.57-31.24 19.141-48.036 25.908M509.79 282.078c19.254-7.537 76.558-16.488 72.507-.992-22.323-.486-56.577-2.567-72.507.992M711.897 284.443c-36.658-5.492-107.626-17.575-122.98-30.868 45.604-1.747 91.681 10.923 132.036 31.67l-1.27-.02zM633.406 285.066c-30.78 4.614-44.643-13.246-4.72-9.232 17.59 2.7 32.658 13.005 4.72 9.232" style="fill:red;stroke-width:.317777"/><path d="M489.858 436.763c19.255-12.283 99.78-14.644 38.325-5.447-12.744 2.042-25.6 3.276-38.325 5.447M458.649 437.369c16.927-14.608 77.823-17.285 27.53-5.384-9.08 2.08-18.164 5.216-27.53 5.384" style="fill:red;stroke-width:.224702"/><path d="M208.258 666.394c-15.024-69.05-7.41-146.929 41.683-201.138-17.065 46.006-33.043 94.037-45.23 142.333 19.722-30.818 31.455-108.874 53.834-111.434 11.647 32.605.48-38.239 26.04-40.075 20.537-22.814-13.47 30.51-9.739 45.345-25.326 45.842-70.305 86.464-63.02 144.131 15.18 5.266 19.51-43.898 10.586.912-1.816 1.844-14.075 39.55-14.154 19.926M320.945 404.452c-29.101-25.612 100.498-72.641 32.368-20.999-10.082 6.733-18.752 22.468-32.368 20.999M305.046 438.548c-11.33-18.055-33.755-103.816-.705-48.038 6.48 11.607 15.782 47.04.705 48.038M297.12 361.993c4.113-21.78 58.859-39.071 16.2-7.662-4.047 4.628-10.096 7.353-16.2 7.662" style="fill:red;stroke-width:.317777"/><path d="M313.328 380.713c15.583-19.494 87.228-67.07 26.585-27.438-15.245 21.415-51.095 24.94-20.423-3.477 15.329-17.782 48.222-34.188 16.873-4.496 23.1-8.305 82.91-35.341 30.414-4.05-19.994 10.347-36.204 25.655-53.449 39.46" style="fill:red;stroke-width:.317777"/><path d="M346.757 337.363c17.74-12.882 57.73-52.187 70.388-46.968-33.481 33.26 38.144-17.052 56.765-13.699 24.076-6.757 89.483-10.795 30.147 1.773-17.111 3.053-59.279 20.111-36.8 4.652-40.39 17.437-79.026 39.631-120.5 54.242" style="fill:red;stroke-width:.317777"/><path d="M347.075 337.124c17.743-13.366 62.156-54.122 70.546-47.224-34.522 34.697 37.187-16.722 56.227-12.98 22.15-6.328 89.638-11.202 30.686 1.237-25.346 4.097-37.021 15.555-42.73 7.266-38.345 16.852-75.417 37.59-114.729 51.701M338.498 482.504c-54.126-35.062 91.465-83.089 40.672-51.44 69.88-32.686-83.866 48.589-17.99 22.37 18.057-16.253 42.264-32.468 12.12-1.048-10.497 7.766-22.433 31.935-34.802 30.118M242.526 642.342c13.515-50.208 58.04-81.116 88.607-120.321-14.937 8.2-64.885 71.88-31.035 29.044 11.188-21.971 97.766-81.602 65.958-59.806-46.286 27.042-80.405 70.983-116.683 109.903-18.36 33.917-15.728 21.305-2.884-7.94 7.322-19.934 53.39-84.746 58.715-73.93-9.378 17.635-50.86 67.664-13.02 24.615 23.092-40.683 70.347-57.618 107.29-86.019 20.616-12.658 69.417-14.465 21.497 3.828-47.087 25.812-94.208 56.783-122.126 104.041 10.292-23.608-33.886 29.909-41.931 44.592-6.261 9.581-10.593 22.765-14.388 31.993M236.806 567.698c28.813-34.27 42.629-74.969 58.471-112.852 25.274 24.001-25.812 69.696-42.402 95.732-5.71 5.332-9.864 12.298-16.069 17.12" style="fill:red;stroke-width:.317777"/><path d="M327.326 504.01c11.739-14.712 80.45-75.927 40.735-29.52-10.858 12.454-28.36 23.694-40.735 29.52M286.579 511.98c-.69-30.671 45.56-32.237 9.493-6.692-.906-5.953-8.843 12.414-9.493 6.692M219.964 622.503c13.6-49.167 51.919-85.612 90.05-116.983-36.806 33.24-66.214 75.965-90.05 116.983M237.226 472.596c7.158-25.647 31.943-58.559 36.999-76.515-34.515 22.938 17.104-27.67 5.26 13.938-10.211 22.347-26.154 45.57-42.259 62.577M211.28 482.192c4.23-23.44 46.89-87.787 21.104-30.185-5.527 10.49-9.951 25.596-21.103 30.185M152.388 636.604c9.624-48.484 16.57-99.761 37.261-145.434 8.286-18.052 49.898-85.426 23.465-33.263-25.771 54.072-45.895 111.548-54.125 170.727-2.251 2.4-2.442 8.275-6.601 7.97" style="fill:red;stroke-width:.317777"/><path d="M168.298 674.07c-8.568-13.695 11.174-100.273 11.066-45.074-4.478 11.38 4.599 43.849-11.066 45.074M170.263 606.283c1.54-23.185 21.886-103.812 14.31-36.293-1.43 10.334-4.886 33.04-14.31 36.293M160.09 739.902c-8.98-20.422 4.412-69.986 9.24-20.053.01 2.66-11.969 44.627-9.24 20.053M197.09 708.787c-24.251-14.905-3.776-53.38 2.961-6.56l-.025 6.74zM181.624 740.329c-24.738-36.099 53.082-23.895 0 0M162.741 820.55c-9.948-17.264-13.231-88.918-1.925-32.595-.147 4.484 10.913 40.474 1.925 32.594M259.788 823.161c-19.016-14.698-52.56-105.525-19.15-49.546 5.866 9.628 28.602 54.294 19.15 49.546M325.862 490.885c-14.323-15.04-11.989-51.695.985-14.1.526-2.26 6.674 20.934-.985 14.1M312.557 451.707c-14.323-18.602 24.342-17.52 0 0M236.718 508.471c12.285-42.78 21.548-10.292 0 0M258.526 479.74c.49-24.18 46.641-64.183 11.295-19.538-4.305 6.206-6.873 13.393-11.295 19.539" style="fill:red;stroke-width:.449405"/><path d="M273.974 462.905c3.337-24.138 47.753-43.99 0 0" style="fill:#000;stroke-width:.449405"/><path d="M397.102 1235.246c-11.873 25.496 15.874 75.06 11.424 24.517-5.356-6.018 5.763-30.9-11.424-24.517" style="fill:#000"/><path d="M397.494 1249.464c1.62 42.405 15.359 86.168-5.935 125.88-6.573 22.12-22.602 39.47-37.382 53.851-32.842 27.22 18.59 2.028 23.48-16.373 25.325-17.356 10.533-40.36-6.342-8.847-18.643 14.255-30.456 52.601-2.074 16.827 24.31-15.602 24.613-51.564 3.547-15.931-11.257 13.988-53.597 57.73-12.703 31.136 29.886-26.38 47.606-65.387 53.336-105.298-8.173-20.569 7.992-79.217-15.927-81.245" style="fill:#000"/><path d="M626.657 1456.68c-60.232-20.944-124.49-13.206-186.853-18.313-26.019-4.698-119.408 22.609-64.214-17.412 19.136 23.758 64.634 5.672 14.252-.26-17.95-8.265 8.784-35.314 10.812-5.613 19.902 16.67 43.764 2.302 8.31-6.017-14.645-19.391-15.035-34.787-.956-6.013 15.402 21.832 53.017 9.94 12.025-2.5-38.886-13.309-3.977-77.788 6.091-21.038-57.094-35.14 28.958 36.999 33.392 12.725-22.21-12.134-54.311-48.764-43.978-68.113 11.364 18.156 69.293 39.173 25.558 11.087-27.067-12.545-44.686-79.574-24.172-81.366 12.583 19.159 80.218 53.251 30.924 13.607-16.885-8.684-63.396-55.93-15.017-38.318 49.464 33.544 110.506 24.546 164.607 7.916 25.071-9.997 61.3-24.447 52.574 14.873.372 42.537 2.273 86.85 21.617 125.643-48.401 39.167-14.4-71.51-48.02-84.048-24.65-8.476-29.805-61.845-51.763-22.014-9.626 41.603 70.633 44.19 44.481 96.41-21.675 43.204 42.275 63.594 60.352 27.895 8.246 19.588 59.038 58.72 9.208 53.34-19.533 3.873-39.15 8.714-59.23 7.53m-155.728-134.973c-23.561 1.69-72.891-74.875-47.322-21.037 10.474 16.739 27.863 25.187 47.322 21.037" style="fill:#f4d7d7;stroke-width:.635554"/><path d="M629.845 1083.929c-13.948-17.777-82.557-12.331-71.363-27.454 20.799-25.673 89.936 11.772 71.363 27.454M449.894 1087.31c4.875-26.604 76.906-40.95 63.783-17.444-20.48 4.142-49.39 11.148-63.783 17.445M523.061 1142.425c-25.668-.416-105.18-38.828-38.209-17.5 50.224 13.642 103.072-.757 149.631-17.208-28.094 27.055-73.012 37.875-111.422 34.708" style="fill:#c83737;stroke-width:.635554"/><path d="M553.074 1118.778c-5.09-41.553-136.855 3.855-56.982-23.07 33.918-4.168 67.55-9.083 99.721-.969 14.38.666-40.096 7.634-29.119 27.016-3.307-2.117-17.363 7.488-13.62-2.977" style="fill:#000;stroke-width:.635554"/><path d="M628.642 1342.778c-12.89-15.337-2.406-57.547 5.745-16.69.035 4.76 4.093 18.473-5.745 16.69M650.881 1408.57c-3.065-28.74 18.015 2.844 0 0M624.59 1393.285c-21.432-32.176 38.243-2.29 0 0M622.031 1370.184c-6.895-42.029 30.22 1.528 0 0" style="fill:#0f0;stroke-width:.317777"/><path d="M631.536 1407.152c-12.162-29.244 32.764-2.1 0 0M663.79 1401.072c1.715-8.242 18.848-20.788 6.76-5.525zM587.926 1301.307c-28.955-13.984 13.766-47.726-1.61-11.033 28.161-11.907 24.247 14.615 1.61 11.033" style="fill:#0f0;stroke-width:.317777"/><path d="M610.79 1304.958c-7.152-25.055 23.309 4.805 0 0" style="fill:#0f0;stroke-width:.317777"/><ellipse cx="356.708" cy="1376.116" rx=".418" ry=".427" style="fill:#000;stroke:#000;stroke-width:.949316"/><ellipse cx="509.304" cy="1636.797" rx=".591" ry=".604" style="fill:#000;stroke:#000;stroke-width:.949316"/><path d="M951.398 1138.125c-7.936-24.592 13.218-45.274 4.874-6.27 35.883-10.103 50.252-61.658 73.782-90.797 28.5-34.835 48.47-75.32 75.685-111.268 30.226-51.988 65.543-100.843 92.884-154.617 35.332-55.63 69.94-111.76 106.066-166.782 23.24-42.141 57.103-77.67 78.46-121.167 36.977-48.007 67.799-100.482 98.552-152.564 11.288-58.358-50.823 23.261-66.322 38.52-34.656 29.241-58.942 67.917-88.974 101.556-36.583 50.11-74.27 99.426-105.175 153.37-41.191 63.844-82.238 127.777-117.169 195.345-34.183 56.772-62.234 116.937-96.164 173.8-16.77 42.08-47.089 77.289-61.823 120.394-18.426 21.26 13.125-39.137 20.9-52.213 26.142-41.692 45.146-87.102 71.118-128.932 35.65-68.523 74.442-135.424 112.128-202.775 51.101-76.797 95.157-158.372 152.572-230.855 29.72-40.345 60.444-80.403 95.309-116.325 28.508-28.689 54.346-61.498 88.31-84.154 11.703 42.45-34.88 76.443-50.407 113.732-27.105 41.992-56.499 82.305-82.315 125.158-31.777 38.796-52.86 84.226-82.638 124.446-34.482 56.418-71.51 111.325-102.217 169.92-32.452 46.328-57.74 97.028-92.616 141.706-21.398 41.863-55.057 75.772-75.838 118.19-13.637 13.793-27.414 44.16-48.982 42.582m182.385-5.751c-.908-40.611 28.522-75.65 42.296-112.982 24.498-61.064 66.547-112.616 98.602-169.539 31.618-44.337 57.214-92.515 91.716-134.795 28.722-41.722 62.783-79.59 86.117-124.926 28.425-30.427 40.404-69.533 58.617-105.74 22.251-42.206 51.227-81.51 67.819-126.122 21.459-50.351 75.742-4.445 42.847 30.788-18.139 35.866-36.132 72.766-61.74 104.208-36.975 66.835-75.74 132.637-115.09 198.11-54.576 77.558-104.873 157.77-154.355 238.609-27.975 39.92-50.864 82.969-81.48 120.875-26.233 24.998-36.875 76.183-75.349 81.514m16.422-8.89c30.81-29.592 48.798-71.416 78.223-103.383 38.613-59.904 77.277-120.012 114.789-180.614 38.535-65.037 85.507-124.874 123.315-190.43 31.34-53.179 61.74-106.972 93.256-160 26.158-34.2 44.893-73.479 63.063-112.113 14.397-49.683-47.378-39.365-45.967.555-25.498 43.372-51.568 86.795-74.19 131.825-12.444 46.292-50.531 78.639-70.686 121.262-41.399 58.229-87.794 113.205-123.636 175.238-36.954 51.953-67.877 107.631-102.792 160.938-23.651 49.225-48.946 98.164-67.379 149.595-3.143 10.97 3.79 16.747 12.003 7.127m-371.074-11.528c6.882-41.965 21.161-81.796 32.6-122.555 34.748-75.543 67.59-152.102 110.396-223.643 62.809-117.18 134.533-229.967 218.603-333.12 54.105-72.08 116.34-138.74 187.508-194.162 18.234-11.287 84.03-70.432 55.363-20.184-30.65 44.549-68.076 84.692-99.525 128.976-57.465 71.954-112.93 145.503-167.429 219.739-47.03 65.323-96.244 129.134-138.214 197.898-43.881 70.156-84.394 142.43-120.709 216.82-27.72 40.797-40.094 90.381-68.249 130.096-2.103 1.335-15.122 17.185-10.344.135m12.374-5.898c32.102-72.838 71.774-142.367 107.68-213.652 32.494-55.919 63.934-112.477 100.336-166.004 47.479-72.577 101.533-140.694 151.78-211.433 49.927-65.559 99.69-131.345 150.804-196.03 25.287-37.768 61.498-68.417 81.15-109.548-23.278-1.564-71.226 46.847-98.87 68.915-62.854 54.48-115.307 119.655-164.918 186.132-96.964 123.005-173.427 260.404-245.663 398.897-21.668 52.852-51.918 102.316-66.655 157.723-9.134 26.218-12.854 31.269 3.982 10.588-6.114 17.202-36.467 72.529-19.626 74.412m90.293-30.793c9.073-30.176 31.545-60.853 44.576-91.774 34.3-57.414 63.843-117.585 98.3-174.87 33.426-50.29 65.024-101.867 103.177-148.878 12.74-14.345 49.271-60.975 55.708-48.269-20.04 42.359-48.898 79.933-72.236 120.563-43.018 72.036-89.147 142.216-126.983 217.172-30.324 39.642-47.717 92.261-93.954 117.277-2.752.303-6.755 14.215-8.588 8.779m32.74-29.444c29.636-35.351 52.941-75.843 75.322-115.877 49.058-89.83 105.374-175.448 157.636-263.322 13.011-12.194 48.372-80.876 14.054-38.808-31.26 27.4-53.152 64.11-78.547 97.029-31.654 50.766-67.638 99.009-92.789 153.554-35.003 59.625-68.378 120.27-98.615 182.263 7.114.363 16.765-10.3 22.94-14.84m262.193-149.03c1.24-39.469 33.077-75.019 55.863-106.282 38.824-55.271 83.249-106.516 120.575-162.784 10.524-19.716 56.436-75.935 57.313-64.565-34.734 26.556-53.547 67.192-79.546 101.412-41.536 56.742-86.873 110.94-126.08 169.175-11.23 12.197-39.682 82.7-5.838 45.717 46.861-52.132 79.629-114.898 116.614-174.02 28.889-40.938 56.371-83.22 85.977-123.585 11.69-18.258 39.547-50.48 13.33-12.59-30.812 34.143-49.017 77.25-80.18 111.301-44.739 70.742-83.08 146.94-140.815 208.424-4.853 2.99-10.285 13.496-17.213 7.797m11.734-357.221c30.238-50.487 64.991-98.306 97.479-147.286 9.328-16.607 59.604-49.272 19.674-16.866-37.394 38.272-59.67 88.276-93.059 129.95-12.6 18.234-21.258 40.536 1.506 13.497 32.233-40.629 78.562-69.55 102.806-116.449 13.766-15.292 46.577-80.362 23.852-28.444-24.074 36.18-47.762 72.166-80.935 100.998-26.104 17.848-42.827 56.075-71.323 64.6" style="fill:#000;stroke-width:1.33333" transform="matrix(.93919 0 0 .95955 -582.711 179.489)"/><path d="M1301.987 384.212c7.01-4.177 13.638-9.03 19.619-14.588 2.85-2.65 5.55-5.58 8.227-8.401 2.12-1.987 4.623-6.044 7.322-7.456.39-.204.867-.173 1.307-.195.525-.027 1.134-.233 1.578.05.348.222-.819.115-1.228.173 1.348-.076 12.16-.126 5.277-.105-.023-.104 1.025.132.94.067-.355-.27-.86-.302-1.201-.589-.98-.82-1.187-1.304-1.709-2.236-1.338 3.317-2.387 6.741-3.63 10.097-1.092 3.425-2.926 6.423-5.05 9.285-1.036 1.673-2.277 3.205-3.405 4.812-.396.565-.73 1.173-1.144 1.725-.544.725-3.328 3.86-3.595 4.165-3.907 4.717-1.93 2.285-5.925 7.299-.437.727 9.852 6.896 10.288 6.169 3.722-5.283 1.988-2.688 5.226-7.77.564-.909 2.307-3.743 3.041-4.83 1.52-2.25 3.604-4.103 4.808-6.58 2.151-3.612 4.486-7.157 5.897-11.147 1.562-4.18 2.986-8.466 3.474-12.922-.111-.952.012-1.962-.334-2.856-.964-2.488-1.835-2.997-4.018-3.918-.321-.136-.904.21-1.223-.032-.94.001-1.88.01-2.82.003-.148 0-.59-.027-.443-.026.86.008 1.723.137 2.577.047.338-.036-.664-.142-.996-.214-2.022-.44-.756-.192-3.113-.605-3.918.016-5.484-.397-8.895.792-5.068 1.766-8.892 5.713-12.703 9.299-1.274 1.213-2.52 2.46-3.824 3.641-7.199 6.52-15.131 12.235-21.829 19.303-.533.53 6.971 8.073 7.504 7.543zM1391.137 586.805c.587-.453 1.207-.865 1.76-1.359 5.807-5.195 10.904-12.152 15.34-18.505 3.277-4.867 6.92-9.068 11.68-12.52.498-.36 3.905-2.494 4.529-2.886 2.375-1.383 3.94-1.968 5.298-4.601.226-.44.243-.957.365-1.436-.017.111.058.358-.052.333-3.255-.75-6.353-2.315-9.683-2.576-.672-.052-.716 1.143-1.033 1.738-1.419 2.665-2.272 5.51-3.22 8.363-.92 3.848-3.155 7.088-5.226 10.385-.347.71 9.7 5.622 10.047 4.911 2.293-3.973 4.675-7.95 5.788-12.451.756-2.414 1.318-4.882 2.159-7.265.159-.451.9-1.058.514-1.339-2.604-1.892-5.567-3.277-8.546-4.499-.285-.117-.168.594-.251.891.446-1.433.032-.407 1.417-2.307.048-.065.187-.232.107-.217-1.441.265-3.17 1.265-4.528 1.652-2.221 1.133-3.782 1.86-5.923 3.292-5.704 3.816-10.266 8.985-14.236 14.532-4.563 6.7-9.204 13.353-14.2 19.742-.432.558 7.46 6.68 7.894 6.122zM963.22 1098.9c1.73-6.013 2.13-12.279 2.832-18.463.511-4.508.27-1.594.452-3.945l-11.847 2.342c-.683-.602-1.346-2.384-2.049-1.805-1.122.923-.638 2.835-.933 4.258-1.7 8.215-2.8 16.462-3.878 24.779-.888 8.248-1.467 16.55-1.412 24.852.01 1.48.029 2.963.18 4.434.063.606-.147 1.7.458 1.769 4.726.538 9.512-.061 14.268-.092 1.5-5.723.781-2.629 2.071-9.304.111-1.141-16.032-2.715-16.143-1.573-.313 7.058-.404 3.821.059 9.714 4.666.88 9.254 2.421 13.998 2.64.714.033.686-1.268.889-1.954.427-1.451.721-2.94.992-4.428 1.476-8.093 2.02-16.31 2.854-24.482.64-8.354.844-9.961 1.173-18.082.028-.687.378-10.396.11-12.058-.383-2.383.41-6.154-1.85-7.001-3.964-1.487-8.402 1.054-12.603 1.581-.446.888-.99 1.732-1.339 2.663-2.664 7.124-2.523 15.646-2.697 23.146-.071 1.02 14.344 2.028 14.415 1.009z" style="fill:#000" transform="matrix(.93919 0 0 .95955 -582.711 179.489)"/><path d="M185.902 929.766c.537-1.888 1.39-14.168 1.897-27.287l.92-23.853 12.953-21.913c7.124-12.052 16.817-29.853 21.54-39.558s11.937-23.435 16.031-30.511c4.095-7.076 19.88-36.076 35.08-64.443 15.199-28.368 33.977-62.693 41.73-76.277s19.217-34.18 25.477-45.766c15.578-28.834 45.476-78.594 75.482-125.623 13.784-21.605 29.838-47.127 35.676-56.716 40.233-66.084 129.034-183.586 169.094-223.745 9.565-9.59 25.817-26.751 36.115-38.137 24.983-27.625 37.782-37.875 43.148-34.56.844.523 1.535 4.637 1.535 9.144 0 7.962-.592 9.182-20.95 43.138-26.245 43.774-47.126 76.05-65.298 100.927-7.768 10.634-15.99 23.022-18.272 27.527-5.333 10.53-17.802 29.455-39.693 60.24-9.61 13.514-21.53 31.196-26.489 39.292s-17.843 28.451-28.632 45.232c-39.193 60.963-86.592 136.786-91.123 145.767-9.35 18.536-70.108 117.382-93.03 151.35-6.202 9.19-19.624 29.784-29.827 45.766s-24.925 37.558-32.716 47.946c-7.79 10.388-19.253 27.714-25.473 38.501-18.994 32.947-31.589 49.199-42.761 55.178-3.18 1.702-3.33 1.601-2.414-1.619" style="fill:maroon;stroke-width:1.45289" transform="matrix(.93919 0 0 .95955 149.037 366.018)"/><path d="M360.666 931.902c-4.665-4.665 9.327-40.225 45.356-115.263 15.277-31.818 24.613-48.979 40.314-74.098a33088 33088 0 0 0 37.587-60.295c9.435-15.183 24.163-38.066 32.73-50.851 8.566-12.786 20.65-31.42 26.853-41.408 14.096-22.698 30.365-45.663 70.422-99.405 33.348-44.742 36.85-49.763 47.994-68.834 3.874-6.63 14.483-22.648 23.576-35.596 9.093-12.949 19.065-27.75 22.16-32.89 6.221-10.335 15.217-30.11 15.245-33.513.029-3.428 26.65-52.49 51.72-95.319 17.079-29.178 23.162-40.851 24.017-46.093 1.642-10.055 7.429-19.08 15.125-23.591 18.354-10.756 32.672-2.252 30.808 18.299-.589 6.494-3.671 13.92-16.048 38.651-17.552 35.073-26.202 50.221-40.959 71.73-5.756 8.391-20.922 33.235-33.702 55.21-88.833 152.747-82.651 142.635-131.909 215.755-17.764 26.37-49.267 75.079-70.007 108.241-52.883 84.559-103.933 163.326-112.526 173.62-4.002 4.795-15.69 21.14-25.975 36.323-31.236 46.115-47.6 64.508-52.781 59.327" style="fill:red;stroke-width:1.45289" transform="matrix(.93919 0 0 .95955 149.037 366.018)"/><path d="M9.78 909.612c-1.456-1.455-1.695-3.04-1.286-8.524.587-7.872 4.64-19.197 16.205-45.263 4.387-9.889 7.77-18.197 7.516-18.464s-2.726 2.045-5.495 5.137-5.056 5.213-5.08 4.713 1.52-5.354 3.434-10.787c1.913-5.433 5.43-16.12 7.816-23.748 7.33-23.437 14.225-39.797 37.233-88.352 7.363-15.54 15.903-34.031 18.978-41.094 10.613-24.381 60.63-117.631 95.506-178.058 46.579-80.705 92.988-151.618 137.954-210.795 7.728-10.17 21.609-28.432 30.845-40.58 47.915-63.023 90.293-111.858 126.808-146.13 19.215-18.034 70.715-62.3 84.265-72.429 16.244-12.142 30.64-19.787 37.26-19.787 1.776 0-2.08 7.748-9.691 19.474-7.901 12.173-15.448 21.91-36.642 47.277-10.138 12.134-22.363 27.39-27.167 33.903-4.803 6.512-15.974 21.087-24.823 32.388-43.656 55.752-123.86 160.9-145.362 190.574-8.394 11.583-28.915 39.553-45.601 62.155-69.6 94.27-107.116 149.626-145.175 214.202-28.412 48.209-47.808 82.587-61.443 108.9a15113 15113 0 0 1-30.82 59.072c-20.654 39.34-43.608 85.248-54.45 108.9-4.663 10.17-8.595 18.63-8.738 18.798s-1.065-.499-2.048-1.482M114.057 864.387c0-1.04 27.556-54.59 40.354-78.422 13.082-24.36 36.383-66.015 48.56-86.811 4.633-7.911 11.94-21.412 16.24-30.001 12.815-25.6 23.518-43.259 64.636-106.637 22.53-34.73 60.786-87.849 74.727-103.763 10.731-12.249 37.368-38.894 37.747-37.757 1.156 3.469-14.137 32.34-24.176 45.64-3.125 4.14-12.349 18.568-20.497 32.062-8.148 13.495-27.657 45.394-43.353 70.888-48.806 79.273-68.649 112.792-100.722 170.148-29.317 52.428-57.672 95.546-73.048 111.082-8.417 8.505-20.468 16.495-20.468 13.57M421.784 333.673c1.64-5.52 9.497-18.471 19.218-31.68 5.765-7.832 19.67-28.47 30.902-45.859 30.196-46.755 44.935-66.284 50.188-66.497 4.277-.173 13.697-7.207 25.845-19.302 6.119-6.092 11.541-10.819 12.05-10.505 1.35.835-2.562 10.41-6.692 16.378-1.964 2.838-5.892 7.934-8.728 11.324l-5.156 6.165 2.517 2.23 2.516 2.231-3.578 4.96c-1.967 2.73-6.227 9.225-9.466 14.437-10.331 16.625-22.308 30.382-50.504 58.014-15.014 14.714-30.455 30.282-34.312 34.595-22.905 25.614-26.415 28.94-24.8 23.51M405.441 694.832c-2.754-2.754 2.27-20.574 10.655-37.797 7.336-15.066 30.286-47.479 73.472-103.765 48.333-62.996 68.073-89.726 86.551-117.201 23.245-34.564 31.115-44.67 34.164-43.874 2.691.704 9.26-5.361 16.093-14.86 3.893-5.41 6.494-7.811 6.494-5.993 0 .234-7.545 10.983-16.766 23.885s-25.483 36.173-36.138 51.712c-10.655 15.538-24.99 36.342-31.854 46.23-13.037 18.779-16.134 23.707-45.522 72.429-28.435 47.143-46.405 73.925-66.545 99.173-16.377 20.53-28.361 32.303-30.604 30.06M186.272 930.494c.353-.92 1.195-12.892 1.87-26.605l1.23-24.932 12.222-21.07c6.722-11.587 16.195-28.928 21.052-38.533s13.56-26.018 19.34-36.471c5.78-10.454 21.141-38.654 34.135-62.669 28.97-53.54 75.882-137.9 88.92-159.905 25.588-43.183 84.634-137.52 109.142-174.376 35.214-52.953 86.159-120.759 123.209-163.984 6.053-7.063 21.942-24.4 35.307-38.526 48.361-51.113 57.733-60.065 64.726-61.82 3.324-.834 4.242.982 4.261 8.427.02 8.06-2.471 13.219-22.04 45.627-25.393 42.055-39.236 63.345-70.444 108.343-5.055 7.289-10.993 16.535-13.195 20.547-5.16 9.401-17.142 27.523-36.067 54.553-18.821 26.881-18.87 26.957-62.583 95.779-57.77 90.952-77.826 123.308-91.557 147.703-29.45 52.322-115.089 186.25-154.981 242.373-5.59 7.865-15.418 23.016-21.839 33.668-13.958 23.157-22.367 35.161-30.45 43.466-6.526 6.705-13.42 11.431-12.258 8.405" style="fill:red;stroke-width:1.02735" transform="matrix(.93919 0 0 .95955 149.037 366.018)"/></g></svg>