<?xml version="1.0" encoding="UTF-8" standalone="no"?>
<svg
   xmlns:dc="http://purl.org/dc/elements/1.1/"
   xmlns:cc="http://creativecommons.org/ns#"
   xmlns:rdf="http://www.w3.org/1999/02/22-rdf-syntax-ns#"
   xmlns:svg="http://www.w3.org/2000/svg"
   xmlns="http://www.w3.org/2000/svg"
   xmlns:sodipodi="http://sodipodi.sourceforge.net/DTD/sodipodi-0.dtd"
   xmlns:inkscape="http://www.inkscape.org/namespaces/inkscape"
   inkscape:version="1.0 (4035a4fb49, 2020-05-01)"
   sodipodi:docname="vigilante claw.svg"
   viewBox="0 0 803.92993 1217.6885"
   height="1217.6885"
   width="803.92993"
   id="svg10"
   version="1.1">
  <metadata
     id="metadata16">
    <rdf:RDF>
      <cc:Work
         rdf:about="">
        <dc:format>image/svg+xml</dc:format>
        <dc:type
           rdf:resource="http://purl.org/dc/dcmitype/StillImage" />
        <dc:title></dc:title>
      </cc:Work>
    </rdf:RDF>
  </metadata>
  <defs
     id="defs14" />
  <sodipodi:namedview
     inkscape:current-layer="g18"
     inkscape:window-maximized="1"
     inkscape:window-y="-11"
     inkscape:window-x="-11"
     inkscape:cy="811.32434"
     inkscape:cx="292.24769"
     inkscape:zoom="0.78671483"
     inkscape:object-paths="true"
     showgrid="false"
     id="namedview12"
     inkscape:window-height="1826"
     inkscape:window-width="1080"
     inkscape:pageshadow="2"
     inkscape:pageopacity="0"
     guidetolerance="10"
     gridtolerance="10"
     objecttolerance="10"
     borderopacity="1"
     bordercolor="#666666"
     pagecolor="#ffffff"
     inkscape:document-rotation="0"
     fit-margin-top="0"
     fit-margin-left="0"
     fit-margin-right="0"
     fit-margin-bottom="0" />
  <g
     id="g18"
     inkscape:label="Image"
     inkscape:groupmode="layer"
     transform="translate(-140.20148,-245.40306)">
    <path
       d="m 619.41663,1461.4884 c -47.95113,-12.4055 -96.79638,-17.1648 -145.96385,-14.7933 -49.02739,-8.6095 -97.3659,7.44 -146.14506,2.3718 13.78469,-16.9027 74.51466,-60.8156 72.28872,-107.5458 4.32876,-63.1838 22.50131,51.8378 58.58694,49.5469 2.40939,24.0594 -90.60818,-43.3238 -32.73321,-11.2809 -2.77859,-16.1822 -25.95085,-53.7254 -25.37222,-13.389 -9.06697,27.557 -89.06317,86.2764 -20.42862,76.2892 54.335,-9.145 108.43759,0.789 163.01917,-0.9433 48.56905,1.2393 95.27475,27.4875 143.68244,7.6261 47.6131,6.7049 1.51432,-36.6214 -12.18727,-54.3075 -35.46081,50.7313 -78.28418,-8.7783 -55.1004,-51.099 3.36375,-38.9943 -83.55017,-49.8896 -33.95943,-85.8103 15.95211,-11.5018 19.46179,40.8295 46.38392,40.6683 18.00601,20.9192 -3.91249,117.9306 40.73489,78.9637 -29.10279,-45.3224 -12.96207,-114.4025 -28.61961,-153.4796 -49.45138,11.2026 -105.92004,34.6937 -160.56564,26.209 -17.99663,-11.2168 -106.02731,-47.095 -57.42311,-0.3796 14.28239,9.2719 68.4796,55.8221 20.7134,27.9522 -29.3028,-29.7336 -62.39573,-25.3303 -55.17743,-74.4351 -19.76841,5.8058 -65.81565,-52.2606 -89.87647,-79.9474 -39.71244,-4.0748 -36.25682,-50.7203 -53.44111,-74.6214 22.37719,45.5139 -47.90067,96.8213 -58.77173,33.4172 -8.0573,-58.5858 18.43151,-115.6383 5.99604,-174.27947 2.85523,-25.5656 -42.74566,-84.09423 -13.74855,-28.54692 10.96761,24.52625 15.44121,45.04498 -7.75205,14.04842 -35.71915,-52.20781 -27.77693,-118.18752 -33.35491,-177.86412 1.64714,-78.07427 17.09031,-155.52832 44.68838,-228.62021 22.33833,-44.73602 68.04908,-84.9705 85.71922,-122.95914 2.38843,-20.15357 11.10219,22.59353 19.44873,-4.8682 23.65028,-25.37215 58.93447,-40.90869 81.2546,-65.28936 -19.86087,7.72699 -75.2846,49.53454 -29.24749,13.1165 61.78734,-40.51462 139.29301,-36.47505 207.81107,-58.3246 81.09086,-14.53376 162.21595,18.33994 232.23015,56.72262 44.22762,41.02014 89.25496,88.23106 108.71057,146.49974 10.19336,63.29151 43.95853,119.43817 52.92047,182.7853 2.25115,59.20115 -5.10547,120.58338 -22.90561,176.71596 -18.42663,24.57064 10.26788,-31.96901 -10.88011,5.55545 -18.73243,54.03504 -34.18733,112.27984 -25.55764,168.05502 4.25719,68.77001 -73.0266,49.52301 -95.11956,100.83481 -19.72574,14.3484 30.01095,-42.8611 -2.68432,-6.1383 -46.33805,35.8157 55.29883,-59.2047 4.99339,-23.4437 24.2729,-57.45324 -15.04278,31.321 -28.55968,46.6908 -1.74973,12.0508 -108.87701,110.1285 -60.70023,67.6222 24.83946,-22.6369 -31.52929,32.3125 -35.17557,48.9536 -23.19207,54.4102 -1.81916,118.1816 22.02465,169.2802 2.58254,23.5128 54.3016,58.3485 41.06855,68.2402 -36.56245,-15.1572 -73.59683,12.5465 -110.82442,4.201 z m 23.71759,-57.3784 c -5.68951,-33.0614 -29.58505,18.3603 0,0 z m 14.76348,2.8332 c 3.27264,-27.6414 -20.63642,10.6437 0,0 z m 15.96014,-14.4989 c 5.22995,-18.8281 -22.96958,27.1417 0,0 z m -40.74638,0.2884 c 14.06975,-35.8455 -38.59161,3.7766 0,0 z m -4.59387,-21.9946 c 22.17629,-37.7894 -31.13361,-6.4438 0,0 z m 5.78991,-40.2705 c -20.39164,-87.5686 -10.32325,55.7653 0,0 z m -15.31166,-25.4795 c 1.68698,-26.4668 -24.99122,6.5177 0,0 z m -17.89532,-4 c 17.37595,-24.8134 -29.59021,1.8124 -12.50003,-29.0929 -20.13986,-4.668 -10.95669,43.0945 12.50003,29.0929 z m -54.65403,-61.7538 c 33.17603,-4.1142 103.51398,-15.0248 92.64398,-25.7563 62.39865,-34.7078 108.87504,-93.0256 142.72581,-154.8783 16.11552,-35.0378 42.46428,-79.55783 53.6888,-124.16625 9.51069,-22.55225 17.21791,-70.3504 1.23613,-20.84709 -1.25317,-46.8656 33.24428,-92.84152 7.08446,-138.26755 -11.32183,-58.29405 6.67103,-121.54448 -20.48522,-177.70303 -14.56473,-33.57836 -52.47118,-121.39735 -94.09889,-65.37768 -70.73644,62.66406 -142.55352,124.59321 -218.77181,180.27562 -33.64671,42.70841 27.15616,87.12442 10.98765,136.19142 -18.56287,48.98967 71.13159,26.89848 39.60509,-13.06483 -4.82261,-53.76976 10.18557,-113.45622 48.90339,-152.09573 55.98753,-38.05292 130.7892,-62.59362 196.00708,-35.32684 33.39252,25.37939 -105.01066,-13.10038 -67.18738,0.80285 -26.94463,-3.47041 -50.55309,4.98961 -78.61933,20.8226 18.16648,-21.43249 -47.58659,42.9233 -13.92469,-0.53292 -12.34929,12.42429 -46.84017,58.01376 -30.27833,14.79343 -40.00001,50.30429 -55.7947,117.7592 -41.82236,180.36795 14.95703,35.26377 78.95396,15.58084 75.26497,70.93396 4.92729,53.92881 -65.6,46.27942 -91.09339,85.60599 -40.34761,14.75 -63.34218,-43.45806 -100.15793,-33.54054 -40.01755,-41.1435 9.22057,-96.72386 48.095,-105.47777 8.1572,-28.32809 -6.50929,-110.6666 -8.65779,-104.59372 -7.9334,55.64068 -43.12978,103.17312 -94.12038,126.32297 -48.50604,25.6635 -96.95342,-9.76263 -132.4998,-31.86984 -3.38021,26.85739 47.48451,74.32894 47.0783,69.74476 -28.51057,-0.43834 -67.54897,-89.75179 -41.96817,-24.91298 13.98469,17.96952 77.38152,75.43496 23.6727,42.12044 -17.95065,-21.41 -48.90758,-88.81421 -55.8874,-43.48329 4.41242,34.30909 43.19769,62.64758 40.02596,95.25847 -20.72809,-18.50414 -37.21956,-82.40637 -43.83776,-77.98226 14.23555,51.30892 45.24801,97.71526 46.80608,152.28326 27.36793,54.0756 83.55467,88.8356 132.80109,122.0808 36.85995,24.7138 82.04529,41.2812 126.78414,32.2724 z m -20.80815,-53.0428 c -28.94217,1.1494 -29.56767,-33.5911 -2.10639,-6.1312 24.9037,12.187 90.92615,-30.461 34.21547,3.9041 -10.23429,3.6596 -21.46801,4.396 -32.10908,2.2271 z m -11.05501,-38.9709 c -50.56482,4.4861 -115.61645,-49.2353 -49.16653,-81.8803 36.4166,-28.3397 83.61063,11.4317 115.90539,-24.4412 55.89328,-8.1592 94.64475,72.7906 27.4045,89.3061 -28.8122,14.7975 -62.04404,19.9282 -94.14336,17.0154 z m 35.5,-5.5009 c 27.92271,-1.152 72.00037,-12.7068 82.80668,-36.1331 -50.33483,34.4315 -140.67111,21.3727 -175.99163,15.381 28.30231,12.0515 62.141,28.1617 93.18495,20.7521 z m -4.11515,-17.7953 c 4.66985,-38.8699 -33.36812,8.2666 0,0 z m -20.8661,-4.4628 c 1.65931,-34.2787 -30.23114,16.5534 0,0 z m 43.71944,2.1423 c -4.40731,-31.2165 61.08136,-22.0487 8.77687,-31.8724 -26.57068,-1.0992 -113.21662,5.5503 -105.88305,15.7893 31.93869,-8.6764 78.26531,-6.4375 88.73745,17.4988 z m -64.81792,-2.1158 c 6.95743,-28.2896 -28.81514,7.6523 0,0 z m 79.32973,-0.6825 c 8.80927,-36.5269 -21.28889,3.922 0,0 z m 14.41691,-4.0675 c 35.47363,-13.3591 -28.41741,-16.9733 0,0 z m -112.36212,-2.75 c -20.07316,-22.969 -11.39198,24.7907 0,0 z m 139.49154,-10.3342 c -19.50364,-10.8285 -12.78041,16.8441 0,0 z m -166.97258,0.4816 c 12.63615,-26.0578 -36.31649,10.912 0,0 z m -20.82375,-2.3974 c -1.53886,-4.1296 -3.15654,4.3568 0,0 z m 199.90872,-1.8523 c -17.29932,-13.5006 -19.49961,-1.7645 0,0 z m -160.08686,-2.7417 c 19.20623,-18.7701 -27.45722,-6.0626 0,0 z m -22.65497,-7.2031 c 19.01889,-13.0142 104.47699,-20.8836 38.21398,-31.8351 -9.40289,0.4909 -53.93741,31.6657 -38.21398,31.8351 z m 49.54008,1.6688 c 8.61564,-32.3321 -31.13462,11.2986 0,0 z m 15.16359,-3.5864 c 37.49519,-4.1265 -21.24659,-10.5997 -2.5745,1.0761 z m 93.87944,1.7868 c -15.4835,-18.3491 -30.17614,9.0167 0,0 z m -59.92161,-2.5885 c 35.12992,-11.0854 -6.68355,-14.5399 -10.61494,-1.064 z m 35.2751,-0.026 c 3.32581,-26.2049 -25.8058,14.7004 0,0 z m 49.39651,1.4386 c 1.84979,-46.7579 -97.85441,-42.8027 -75.1022,-23.3538 26.88994,0.6008 49.72384,16.7488 75.1022,23.3538 z m -64,-11.0112 c -6.78262,-2.665 -3.4681,9.0009 0,0 z m -106.0508,-35.3326 c 14.19506,-27.7033 89.7332,-1.569 28.4331,-8.0389 -7.23408,-1.5973 -27.6168,10.7764 -28.4331,8.0389 z M 571.17834,1027.63 c 11.6519,-35.85456 99.07173,6.2808 34.29476,-8.8513 -11.85905,-0.6915 -24.78855,1.1565 -34.29476,8.8513 z M 714.69226,921.15666 c -40.73258,-12.94719 -97.16455,-67.61416 -87.86629,-100.66052 21.40555,1.32157 92.20916,32.71556 76.57128,28.7159 -18.95546,-3.18386 -71.8922,-16.16344 -24.90414,1.79182 14.84513,13.04292 103.48203,15.17774 46.03814,19.95977 -17.86432,-1.11071 -84.39459,-26.28841 -35.98941,1.88859 20.03523,12.42179 85.81058,33.95324 25.12804,21.80388 -20.03315,-6.00698 -88.68224,-59.87336 -50.35431,-14.28321 3.49163,11.72764 81.42805,36.66748 51.37669,40.78377 z m -70.69238,-75.0617 c -2.83278,-11.68242 -11.20193,0.96825 0,0 z m -46.41655,-32.2018 c 29.58459,-48.4234 91.36123,-92.60746 148.46914,-62.30896 18.47649,6.31276 59.21518,13.78696 69.99559,7.5796 -21.42309,3.95458 21.62045,12.33016 -8.35448,11.27486 3.03413,15.31071 -48.78927,5.42659 -64.38813,25.94102 -45.84609,33.15523 -100.39602,4.16174 -145.72212,17.51348 z m 89.5,-6.1521 c 24.00359,-3.87612 125.542,-23.36603 68.25191,-48.25684 -50.1223,-33.22457 -26.81391,69.67776 -82.00531,37.43909 -37.69877,-15.90207 21.77508,-67.39187 -23.8856,-31.61035 -51.11568,34.66173 -20.60025,45.73773 37.639,42.4281 z m 18.17362,-14.4313 c 36.51979,-31.96823 -18.67972,4.06494 0,0 z m -78.67362,-9.2977 c -18.63612,8.08471 -3.68805,5.55901 0,0 z m 73.71283,3.476 c 26.6707,-29.01534 -37.33418,11.81644 0,0 z m 10.25676,-8.0157 c -4.58948,1.89509 -4.05909,9.00395 0,0 z m -14.81173,0.2397 c 16.73731,-28.99663 -34.19174,12.18894 0,0 z m -17.67595,-4.9551 c 33.26311,-13.97247 -19.24868,-3.64487 0,0 z m 0.0138,-20.7681 c -1.62535,-14.2971 -18.00669,35.55099 0,0 z m 1.18199,7.6715 c 50.64769,6.06005 10.24753,-29.89579 0,0 z m -54.61144,-9.0535 c 37.69164,-47.23274 138.90932,-50.00351 165.17781,-20.56185 -44.43536,-6.10269 -93.34107,-27.35308 -134.09573,3.18884 -3.27267,0.0937 -56.19376,40.96378 -31.08208,17.37301 z m 25.93374,471.13124 c -1.31647,-3.7917 -2.24455,3.8725 0,0 z m 14.05422,-13.8515 c 31.09435,-20.4465 -18.80372,2.4327 0,0 z m 0.98355,-9.1974 c 5.45086,-7.9765 -14.76838,13.441 0,0 z m 18.31843,-11.4969 c 14.94079,-14.3287 -18.66687,11.7808 0,0 z m 1.77136,1.7958 c 2.79684,-4.8697 -5.98204,7.2082 0,0 z m -457.6993,-89.3023 c 13.5861,-28.6066 24.5823,-112.55727 -21.07681,-101.3848 -22.74573,17.8512 -19.7512,118.5017 21.07681,101.3848 z m 4.78825,2.3023 c 16.12103,-16.4545 -14.14575,6.7747 0,0 z m 568.83845,-43.6325 c 15.23764,-21.1077 -27.14739,30.1733 0,0 z m -530.76201,-2.4014 c 7.14695,-27.2357 -43.06408,-86.39634 -15.97498,-28.1823 4.59974,8.2017 3.39033,28.14 15.97498,28.1823 z m 550.01659,-10.2103 c 4.68873,-11.433 -19.03695,22.0969 0,0 z m -14.30954,-4.041 c -5.2946,-3.6368 -2.19676,8.7216 0,0 z m 18.04238,-6.3224 c -6.81132,-1.5672 0.61797,7.178 0,0 z m 27.27336,2.2285 c 48.0166,-24.311 -4.83808,-126.97709 -18.9633,-44.62773 -15.79143,19.03803 6.44568,38.66243 23.4964,27.25293 -15.5057,2.1126 -33.68438,18.0881 -4.5331,17.3748 z m -30.00947,-3.6568 c 1.73226,-27.1499 0.66944,-54.79566 -11.00865,-10.9621 -9.51544,14.6121 0.77282,10.4393 11.00865,10.9621 z m -269.24388,-21.7361 c 27.77254,7.3814 38.92917,-69.30805 24.78572,-19.00364 -17.15547,-36.07933 44.83858,-82.98307 37.79008,-19.32036 52.55418,-20.54736 10.80352,-100.56083 -41.29862,-74.71154 -41.66422,-21.74284 -120.18391,-8.41146 -120.62444,49.04387 1.11553,44.35773 40.03896,27.42132 43.68108,-6.60451 11.6948,7.23292 2.74033,71.50048 9.23863,25.19034 32.01363,22.20202 -7.1208,57.15864 46.42755,45.40584 z m 15.8101,-1.9121 c 17.16962,-11.4992 -11.01711,4.2632 0,0 z m 10.12751,-12.56594 c -1.31657,-3.79175 -2.24447,3.87264 0,0 z m -352.12987,-5.3435 c -14.8381,-39.71158 -5.97968,-83.35135 -8.23287,-124.95231 -12.33819,-32.35444 -50.90239,-60.10178 -14.33516,-96.08405 23.35395,-32.07051 -24.76546,-53.64353 -27.22412,-9.43111 -13.83183,55.43376 31.92771,103.09734 28.19223,156.93351 -2.5042,21.80764 -13.83065,76.0201 21.59992,73.53396 z m 609.49764,-25.4692 c 9.60621,-46.64663 -15.94203,39.11284 -0.53815,1.46726 z m -588.78026,7.0627 c -2.46015,-21.5458 -26.88185,-64.04836 -10.5624,-18.29266 3.05005,2.07896 7.11141,24.28598 10.5624,18.29266 z m 630.05095,-5.2302 c -8.41329,-42.50446 -2.84568,16.20697 0.0386,1.14048 z m -246.86097,3.4235 c 28.89374,-8.06542 -3.19502,-11.10943 0,0 z m 231.626,-20.2871 c 0.88346,-20.81384 -19.37753,9.06543 0,0 z m -14.48793,-14.2038 c 20.77525,-33.49499 -19.07536,-20.2373 0,0 z m 11.08444,3.5155 c 0.49859,-21.06266 -11.52089,4.99004 0,0 z m 16.89224,-11.4679 c 7.31522,-29.90911 -8.52914,21.32888 0,0 z m -3.14763,-12.3164 c 8.36136,-47.87968 15.20996,-95.19395 32.82914,-137.23885 14.70064,-24.16179 -1.92343,-109.10512 -26.33933,-51.89233 -9.57852,29.20787 27.59234,24.50897 11.06916,59.16469 7.32199,45.5163 -38.5935,84.81677 -38.17249,120.45987 7.75437,-0.23743 16.33925,2.5234 20.61352,9.50662 z m -643.74461,0.8754 c -1.34583,-7.11115 -3.33958,5.46933 0,0 z m 164.02787,-17.0785 c 25.32431,-10.23027 40.85745,-19.78683 5.60516,-4.59513 0.63381,-1.64596 -27.03583,12.88285 -5.60516,4.59513 z m -14.02787,-0.3246 c 60.32181,-13.34336 109.2216,-71.25252 100.39497,-134.58934 4.80445,-58.15063 -48.15132,-117.11328 -108.71746,-96.88333 -57.123,11.37388 -112.26327,66.3147 -99.62124,127.62022 26.67757,23.53723 26.26252,48.56697 7.90522,36.17468 19.54624,35.73794 54.98397,74.96369 100.03851,67.67777 z m -129.981,-10.6788 c 1.93132,-4.82429 -5.64806,6.11784 0,0 z m 645.9915,-52.4771 c 7.70351,-52.40924 -13.07981,52.25007 -6.62517,35.0302 2.41942,-11.63524 4.70107,-23.30174 6.62517,-35.0302 z m -45.17503,35.25 c 9.03963,-35.67545 -8.28261,14.4144 0,0 z m 13.34206,2.6243 c 7.57518,-32.24839 34.57151,-102.1014 15.96588,-113.54207 -7.49833,36.25631 -30.48807,76.96084 -15.96588,113.54207 z m -419.01448,-3.5595 c 22.26131,-4.73306 48.32686,-82.67189 23.31689,-32.2141 -1.64891,9.22354 -27.48447,29.47795 -23.31689,32.2141 z m -173.66305,-8.3148 c 5.70396,-10.45593 -12.69942,11.16277 0,0 z m -33.95888,-7.0665 c 0.73714,-5.49172 -4.49215,4.76682 0,0 z m -1.54112,-4.2423 c -3.38534,-17.35104 -3.95303,5.62753 0,0 z m 10.5,-3.6912 c -1.53888,-4.1296 -3.15652,4.35676 0,0 z m -1.5,-4.0222 c -6.29684,-22.61869 -29.43005,-53.3587 -9.48206,-13.30304 2.57366,2.44638 2.91165,17.02042 9.48206,13.30304 z m -30,-7.9778 c -6.37718,-16.65259 -5.66687,14.31456 0,0 z m 40.77669,0.7377 c -2.90031,-27.15496 -38.50299,-59.2082 -11.58911,-15.11299 2.55181,2.38796 4.00412,22.33634 11.58911,15.11299 z m -49.574,-9.9877 c 19.10061,-25.88339 -13.15032,-74.95669 -8.12863,-20.1501 2.03329,0.90438 1.10409,26.51529 8.12863,20.1501 z m 59.29821,-0.6011 c -2.8424,-22.72102 -36.67613,-86.89857 -38.53886,-70.03847 7.03725,25.93983 21.6607,49.39478 38.53886,70.03847 z m -97.5009,-10.4338 c -1.14043,-24.96012 -20.08865,-83.41487 -11.32336,-25.59902 1.0762,2.43315 7.25465,43.84533 11.32336,25.59902 z m 347.88169,2.5349 c -0.26651,-24.45291 -3.97038,11.71931 0,0 z m 397.35225,-23.1688 c 29.72549,-71.76951 11.52786,-150.62599 8.78341,-224.89959 -3.51383,-25.97622 -24.88972,-36.83753 -12.4633,-2.49304 12.40929,35.6588 7.81099,108.4692 -10.61004,119.33891 20.18572,-60.27535 -23.58464,-2.6162 -19.90313,24.20662 48.97997,-36.21955 41.88869,55.15493 29.5244,86.89462 -4.94817,19.84248 0.19501,10.25429 4.66866,-3.04752 z m -421.99242,-13.7468 c 9.64172,-30.56222 -11.50152,-47.1925 -3.47718,-6.68301 -0.49269,5.30996 -1.05275,33.32834 3.47718,6.68301 z m -261.62322,5.004 c -5.33354,-7.98916 5.15406,11.18113 0,0 z m 638.92979,-8.8317 c -1.92764,-19.50177 -7.13815,26.02198 0,0 z m -606.6357,-12.5815 c 3.88143,-20.05044 17.46354,-49.81867 -3.37363,-16.28593 -19.36862,8.04848 9.61634,53.35174 3.37363,16.28593 z m 607.08522,1.0734 c 2.83098,-20.49938 -9.67169,20.58511 0,0 z m -698.70526,-13.3152 c 10.45603,-50.26541 -9.77931,14.03343 -3.86935,8.0369 1.28978,-2.67897 2.57957,-5.35793 3.86935,-8.0369 z m 694.6194,5.851 c 12.1403,-29.62953 -17.4773,13.28074 0,0 z m -13.64646,-8.6691 c -3.82587,6.099 3.77335,9.33404 0,0 z m 28.78687,4.5792 c 3.55619,-7.37551 -8.4471,10.63245 0,0 z m -632.04239,-1.7535 c 32.58376,-57.55963 95.17993,-105.37631 163.60013,-99.54019 39.23389,12.72215 69.62659,65.29856 102.02386,13.08982 69.65926,-60.30976 145.17615,-113.25898 221.20554,-164.59222 17.73208,-37.401 -56.09763,-49.90673 -83.04765,-63.82925 -64.63105,-17.09567 -133.47482,-6.7022 -196.82056,10.27992 -53.11867,21.66807 -106.79334,50.39838 -139.21333,99.54815 -37.85063,43.70323 18.02094,-35.93065 38.68516,-44.77927 20.08424,-22.27969 91.64366,-49.37594 83.78168,-58.06083 -49.70074,2.22107 -80.52882,46.8509 -122.46359,66.94291 40.78416,-52.41699 -37.70914,48.8033 -38.09618,45.75101 15.70465,-14.48463 48.1305,-70.61373 12.47383,-29.83082 -25.92853,28.77786 -47.01331,62.977 -55.76727,101.03457 26.97635,-54.14321 76.37248,-95.27857 121.5625,-133.38141 36.31308,-17.58808 -38.04733,23.82796 -43.39258,40.19762 -14.48794,15.32405 -46.47693,55.12038 -13.31798,17.87388 15.32155,-20.36174 49.51148,-50.85772 14.0441,-12.02179 -43.4198,38.22351 -71.61906,88.97312 -87.6932,143.56656 -4.66755,23.68866 8.49245,55.27389 22.43554,67.75134 z m 72.4467,-119.3736 c 24.75078,-14.11056 -27.29997,-57.92366 13.96397,-31.4414 -1.48314,-30.95118 20.89623,-25.29662 17.8467,-53.57743 18.70645,46.84294 9.53862,-49.6183 25.9544,-4.29853 20.3012,-19.17875 36.64176,-24.50971 5.68123,-4.52646 -1.47845,15.76247 26.98449,28.87587 -8.04753,15.52468 -27.17055,8.66366 18.53297,30.11426 -19.13252,22.95418 -19.01432,15.81532 30.79007,24.35481 -11.59784,19.77728 -24.04028,9.90455 36.44185,29.70353 -5.16986,21.6439 -14.59433,-6.80186 -13.73816,21.34784 -19.49855,13.94378 z m 130.54353,-10.181 c 29.5892,-19.21335 128.84157,-14.80782 118.50985,-21.25609 -36.4978,21.90702 -80.13846,9.16568 -118.50985,21.25609 z m 2,-43.64401 c -40.66408,-9.63953 43.29369,-7.55847 57.73563,-11.16352 28.5513,-0.53845 110.01423,-7.03223 106.63126,-4.0857 -53.33092,15.67606 -110.3608,2.42078 -164.36689,15.24922 z m 9,-36.27204 c 49.79795,-39.02539 116.89446,-26.51639 174.53833,-20.98978 -44.11423,15.47491 -86.2174,-12.09179 -130.63707,4.9048 -15.25736,3.31773 -30.39638,8.09859 -43.90126,16.08498 z m -308,202.27965 c -2.35739,-7.14887 -2.35739,7.14887 0,0 z m 10.94471,-9.9494 c 22.04941,-23.10628 -13.54369,-66.61334 -5.46258,-19.99693 4.03291,4.5416 -1.52848,51.37461 5.46258,19.99693 z m 110.60565,-0.3335 c -12.03132,17.08898 0.14842,6.97975 0,0 z m 595.30705,-14.4633 c 2.86353,-50.85192 -14.68316,46.78155 -0.21942,10.58064 z m -650.61398,10.6667 c -17.01988,-27.24467 14.01894,33.06964 0,0 z m -23.70099,-5.4891 c 22.30678,-17.53142 -41.73434,-14.26172 -12.2008,12.7593 6.72838,-0.8801 8.95691,-8.0999 12.2008,-12.7593 z m 664.54567,-9.6459 C 880.01898,657.47291 845.98422,612.94678 833.16254,555.28218 823.84163,504.32813 815.25652,439.20941 762.877,414.91249 724.4949,395.04007 661.2009,352.24969 598.94155,356.17793 c -20.0778,0.29883 -103.86134,50.78809 -87.28241,36.436 28.26589,-11.14472 97.07003,-6.40039 90.43352,-24.2597 51.18499,4.2381 99.83957,21.70771 141.57466,50.65787 20.69798,7.63135 48.83619,61.7239 13.93235,23.49051 -36.25536,-23.97108 -74.87346,-49.03725 -117.76014,-58.4086 -21.73398,-11.93388 -87.28598,15.77468 -33.25054,7.45222 31.24914,-2.96238 91.63816,17.5018 97.81393,30.60016 -44.68456,-9.47438 -87.60109,-39.99432 -134.81643,-18.48098 -32.07354,7.16554 -33.11139,16.67578 1.80777,6.04669 25.75101,-7.31377 26.27859,2.63818 1.93907,7.09296 44.52904,19.80992 100.23445,8.58396 139.83776,43.98294 61.44473,27.9446 99.67542,86.88649 122.1198,148.46343 22.09431,27.88341 8.35328,110.42633 24.0955,111.08775 l 0.28507,-1.31562 z m -587.86386,8.3033 c 4.24172,-8.88752 -14.84372,19.27261 0,0 z m 9.33766,-0.3388 c 21.68445,-20.20703 24.06855,-34.52955 2.11888,-5.99299 -0.40565,-0.18526 -12.18579,22.84408 -2.11888,5.99299 z m 236.86267,-21.25 c 72.06455,-55.87238 142.43093,-113.99807 209.79218,-175.48085 32.74893,-8.53675 34.00519,-49.19605 -0.0522,-19.16521 -79.86753,54.09954 -159.20374,109.58993 -231.12363,174.10277 -43.10773,13.60962 1.87129,56.57713 21.38367,20.54329 z m -317.40622,3.25 c -2.07982,-57.19436 -38.00173,-23.04355 0,0 z m 103.45536,-14.8502 c -7.58193,0.79498 -14.66524,16.59419 0,0 z m -127.09779,-6.2594 c -7.80456,-34.09343 -1.50555,33.79577 0,0 z m 147.36014,-4.308 c 44.36962,-14.4668 1.2144,-11.81446 -14.28852,7.7933 l 6.991,-4.17628 z m -104.3304,-4.999 c 5.74018,-27.59417 -15.45226,19.7119 0,0 z m 669.91514,-9.8334 c 33.43115,-15.571 7.1478,-85.68375 -2.50839,-25.92229 -3.00306,8.14257 -10.87507,63.5441 2.50839,25.92229 z m -260.77079,7.5125 c 9.09477,-15.83616 -17.8996,22.04158 0,0 z m -453.68329,-4.0948 c 4.19926,-17.86707 9.62907,-99.7883 -7.50613,-42.04761 8.89398,8.8989 -14.22459,51.43158 7.50613,42.04761 z m 38.11276,-6.3668 c 13.12116,-21.86535 20.10828,-61.06083 3.21309,-17.52197 -16.29825,-36.82727 15.25488,-87.17739 41.27703,-118.10704 23.49584,-32.25765 30.88221,-83.81604 34.03897,-80.77216 -34.44378,16.14658 -22.70412,75.44327 -38.93139,43.40929 -20.41333,27.3539 -41.80366,115.50894 -45.80111,106.3822 8.91044,-44.55611 31.67982,-95.79366 40.96148,-133.37367 -44.20546,52.60271 -55.44253,124.48515 -42.11491,190.64023 3.25417,6.12785 0.15302,28.60152 7.35684,9.34312 z m 446.52051,-1.5442 c 20.59207,-23.33346 -27.90811,22.88927 0,0 z M 157.901,659.73806 c 10.3073,-53.77655 -11.27356,23.01539 -2.30324,8.29366 0.76775,-2.76455 1.53549,-5.52911 2.30324,-8.29366 z m 719.62124,-14.7029 c 26.77671,-31.92537 23.43179,-79.98005 -1.19417,-103.77792 11.68078,39.45439 -5.36626,78.62787 -2.32506,118.31022 l 1.92199,-6.38808 z m -642.38427,6.1753 c 21.78274,-57.44807 -14.27118,17.72954 0,0 z m 446.44536,1.9573 -4.01573,2.13511 z m 92.08179,-4.4297 c 0.78127,-6.64606 -8.40891,6.07927 0,0 z m 164.04571,-9 c -4.45932,-10.42708 4.71823,30.11773 0,0 z m -182.26941,6.2777 c 6.52788,-12.7929 -26.09837,12.6373 0,0 z m -594.82456,-19.8181 c 6.96348,-69.72897 36.5109,-134.31846 66.04942,-196.95956 -30.74087,43.42898 -56.01741,91.86698 -61.29398,145.54178 -1.44889,5.39806 -26.07612,90.63517 -4.75544,51.41778 z m 707.92338,-15.0611 c -4.82197,-34.79682 2.46154,-108.86436 -25.59636,-120.56267 23.05377,37.58015 -2.41379,116.06193 26.16742,131.91079 l -0.57073,-11.34812 z m -644.51443,8.6015 c 15.38669,-41.89155 70.66762,-99.20558 85.67573,-114.30182 -38.06111,31.31958 -77.46739,68.92197 -89.30463,117.96702 z m -47.2285,-20.1563 c 12.40961,-18.99872 12.1672,-91.43899 1.87674,-36.97044 -0.43878,3.75422 -18.35559,65.41618 -1.87674,36.97044 z m 84.54843,-7.136 c 19.99326,-27.41736 -15.92447,14.14937 0,0 z M 847.99965,568.2381 c 5.28992,-22.28219 -24.64812,-97.15926 -12.55345,-36.53959 0.77216,5.37587 15.5644,73.83207 12.55345,36.53959 z m -575.93461,-31 c 17.87466,-16.21715 65.10367,-63.82204 18.16989,-23.62502 -16.4464,16.24704 -84.96998,91.87298 -33.15847,40.03607 l 7.59985,-8.11084 z m -18.48171,12.97852 c 18.84026,-27.96216 65.14553,-68.82858 41.80421,-95.53575 -9.79216,40.27276 -35.42444,77.53059 -59.07042,114.38457 5.70077,-6.3327 11.45478,-12.6175 17.26621,-18.84882 z m 644.43208,15.77148 c -5.15706,-21.25092 -17.61259,-42.25895 -4.74561,-8.92415 -0.36231,-5.08275 5.37973,19.46659 4.74561,8.92415 z m -0.46345,-46.25 c 0.96427,-16.85756 -47.83961,-77.39389 -22.87545,-65.11451 29.92724,55.24892 -0.58969,-44.12137 -18.44092,-53.87136 -13.10684,-22.62101 -44.77818,-56.62092 -21.74469,-10.50842 19.07986,46.55135 27.56521,99.02824 58.49564,138.71192 9.3545,18.35092 4.32537,-5.74493 4.56542,-9.21763 z m -693.53951,-5.25 c -9.81311,12.73248 2.63903,19.77051 0,0 z m 13.0846,-18.79102 c 17.98253,-46.91262 -32.2792,37.15709 -2.52853,-3.87899 -4.88245,22.31844 -5.57199,29.12428 2.52853,3.87899 z m 28.31101,6.23637 c 17.83123,-40.4104 -23.13545,19.41802 -1.37808,2.20436 z m 48.20416,5.26239 c 35.40251,-17.44423 1.17279,-35.80318 -6.27284,-0.721 -5.77854,14.89315 2.96424,2.6884 6.27284,0.721 z m 43.97111,-8.80768 c 23.23625,-5.80669 68.64775,-69.76492 23.88655,-27.56067 -3.51208,4.30408 -54.19098,48.39122 -23.88655,27.56067 z m -18.47354,0.54307 -2.35605,1.50671 z m 11.13336,-9.02875 c 1.91238,-20.49938 -27.46481,-49.61905 -10.98267,-11.07141 1.35055,0.9502 6.82067,20.7042 10.98267,11.07141 z m 29.34162,-22.10724 c 21.95683,-19.22908 43.65043,-54.5372 6.456,-17.6081 -68.46549,28.49898 44.38164,-26.99683 28.95749,-27.17049 -38.88583,23.19607 24.25304,-19.88203 -16.05722,1.6193 -31.71234,-3.04737 -74.15734,52.21675 -33.00295,56.30986 4.7326,-4.1909 9.10805,-8.75659 13.64668,-13.15057 z m -139.20694,7.4658 c 14.35765,-18.00632 32.94096,-79.26661 6.16454,-27.85425 -2.42412,4.63862 -29.00484,52.93803 -6.16454,27.85425 z m 43.24836,-3.16967 c 9.75349,-16.77397 34.66312,-52.0329 6.76801,-20.50244 -3.26853,5.51602 -20.97689,47.84314 -6.76801,20.50244 z m 566.33118,2.14733 c -13.98918,-35.52811 -22.12643,-17.12343 1.36721,5.82189 z m -590.85158,-1.5006 c 10.65585,-21.71061 62.23378,-64.0633 30.82172,-81.66351 -27.90953,31.00332 22.05595,-11.65652 -1.15009,17.48036 -8.8007,19.83059 -29.96785,46.53792 -29.67163,64.18315 z m -6.17858,-3.25 c 4.46288,-13.18126 -7.19416,14.44007 0,0 z m 63.60653,-30.80887 c -26.61885,4.31831 -25.8476,42.52663 -4.12342,5.34922 1.45185,-1.71732 2.71282,-3.59702 4.12342,-5.34922 z m -57.95539,17.80887 c 12.7105,-21.503 20.82645,-43.2229 2.28909,-10.40138 0.0739,-1.64197 -10.41528,26.8202 -2.28909,10.40138 z m 64.00498,0.25 c -2.65284,-7.7123 -3.65513,7.58379 0,0 z m 538,0.62501 c -17.03153,-19.08565 -19.82806,-65.54094 -0.19787,-20.82549 4.46509,-4.25107 -26.18419,-72.67569 -50.23587,-88.10417 42.21774,1.42558 -30.791,-45.58135 -54.70352,-51.48068 -24.97701,-12.99883 -73.6084,-7.31818 -24.64356,11.02617 55.83092,30.02919 87.23102,85.86398 118.35135,137.87427 l 5.16819,6.36125 z m -577.61844,-4.17695 c -1.58361,-3.52989 -1.43427,5.60593 0,0 z m 52.59717,-0.43721 c 18.98192,-27.36084 -22.40526,-11.17213 0,0 z m 108.52127,-12.46463 c 44.23732,-25.70552 102.59417,-17.36925 143.20258,-49.06593 -57.94099,-3.95126 -110.09387,26.987 -163.35161,44.87954 -33.15558,10.63273 -12.6397,25.11529 7.74066,9.13174 l 6.7422,-3.13524 z m -7.5,7.95378 c 5.36124,-5.60672 -11.91556,7.03373 0,0 z M 271.22162,437.29242 c 5.91852,-19.7735 -15.41879,32.11511 0,0 z m 97.86171,-11.49886 c 24.06994,-8.59233 82.19073,-37.33526 84.45054,-35.18252 -25.45103,5.66659 -81.44324,59.42521 -25.27826,31.9483 33.92893,-25.60703 114.19001,-35.46966 126.18366,-57.27276 -35.91573,-6.49611 -113.55301,28.65354 -111.32641,19.80503 34.12592,-17.28275 113.59981,-36.61643 119.4575,-51.58047 -36.94056,-3.3256 -107.774,23.69822 -122.34663,19.04604 25.33401,-14.08173 95.45339,-25.45662 95.21266,-35.35795 -41.08714,5.80454 -123.6206,16.64505 -135.5016,38.54546 -7.01677,9.26687 -84.79662,41.80839 -69.19826,79.0017 34.50234,-35.05783 115.3983,-76.26203 138.14028,-80.44569 -47.59213,27.05792 -104.86917,44.83442 -140.10009,88.32463 12.02878,1.97314 27.58626,-13.25024 40.30661,-16.83177 z m -58.08543,9.94997 c 17.47178,-31.76077 -42.40905,-100.75909 -20.64645,-35.01498 11.05395,3.61454 9.86591,53.36095 20.64645,35.01498 z m 170.58543,-2.41335 c 41.13218,-8.04411 25.39519,-14.55549 -4.50982,-4.34441 -27.07923,7.481 -13.62464,10.56956 4.50982,4.34441 z m 13.5,2.54682 c 18.41009,-0.98213 88.82039,-12.99914 36.67814,-10.23941 -4.82466,-0.14071 -52.67801,12.97423 -36.67814,10.23941 z m -202.51365,-7.52823 c -7.31389,-17.31539 -13.64658,22.95225 0,0 z m -5.37582,-6.23517 c 4.95005,-24.56509 -19.29981,32.74638 0,0 z m 522.69601,5.51536 c -13.02211,-22.57107 -55.39202,-50.69353 -15.11467,-13.53922 1.82255,1.07878 19.16742,22.95497 15.11467,13.53922 z M 261.41666,412.59348 c -19.44029,6.55037 -15.61818,28.70959 0,0 z m 18.19648,6.08893 c 1.8246,-7.01241 -6.28011,10.62377 0,0 z m 47.64493,-4.19431 c 39.63129,-46.44931 -23.46847,17.3599 0,0 z m -68.23466,-13.75 c 20.07243,-30.31771 -26.78876,29.68648 -6.07133,6.88303 z m 69.08674,3.93462 c 23.51538,-13.29241 74.3846,-69.04586 16.77366,-35.8922 -11.68994,3.37547 -54.20634,37.23708 -16.77366,35.8922 z m -82.40204,-0.43462 c 14.76552,-23.0439 -15.37986,19.81957 0,0 z m 15.40652,-13.62256 c 12.03746,-16.67668 -22.10629,24.3372 0,0 z m 481.39301,-3.50438 c -19.93512,-20.37667 -58.26836,-21.31206 -76.92431,-34.7855 24.109,14.79533 51.60487,22.52073 76.92431,34.7855 z m -466.92431,-5.56419 c -6.94062,-2.56002 0.0102,9.22995 0,0 z m 46.54827,-6.55887 c 8.89997,-18.55473 81.89069,-49.00643 59.16432,-48.05069 -17.95905,9.09354 -68.89297,31.10133 -26.45781,-0.64709 -27.00673,-3.1643 -72.72259,72.87026 -24.38976,34.48313 19.9563,-17.34059 54.93479,-34.84799 13.45876,-8.08747 -5.11926,2.31132 -49.94834,44.85392 -21.77551,22.30212 z m 3.80438,3.91138 c 14.36072,-10.22407 85.84909,-51.39735 46.18756,-9.81702 52.07177,-47.01278 121.60295,-60.7976 187.9254,-74.50983 23.69993,-11.92995 -53.23719,-1.48052 -69.19313,-2.34506 -27.29416,11.24825 -34.04179,18.42375 -67.54967,25.48079 -23.81374,10.06434 -57.71971,40.30487 -73.5226,41.64443 53.16682,-42.00887 -42.9625,21.47888 -23.84756,19.54669 z m 451.64735,2.2688 c -5.84973,-18.49657 -49.82362,-56.34065 -21.83036,-15.21429 4.93266,7.87486 14.1758,10.85662 21.83036,15.21429 z M 332.51431,336.09655 c -27.92804,-4.1566 -51.2871,50.22533 -11.77807,11.37072 l 5.87434,-5.70058 z m 181.56902,27.20531 c 32.53883,-2.52445 121.77606,-15.36472 115.10954,-18.25882 -29.34506,-26.31765 -109.77859,13.89445 -113.49855,16.93719 z m 214.94342,-8.81376 c -12.31595,-18.30506 -30.58349,-21.42792 0,0 z m -368.31586,-1.5 c 3.16258,-4.58515 -7.08859,6.40658 0,0 z m 43.37244,-27.50334 c 48.87666,-36.38478 -78.55102,48.05064 -17.61504,10.80821 l 8.76159,-5.47927 z m 329.31387,18.01573 c -10.90663,-25.52651 -79.24173,-51.91869 -22.93794,-18.40639 2.57461,0.15619 29.63711,31.05622 22.93794,18.40639 z m -46.31387,2.18289 c -7.26776,-8.61405 33.43661,-2.58932 1.4645,-18.42023 -16.08979,-42.47169 -111.06886,-11.47125 -102.77222,-27.30586 22.33734,-3.31848 102.49631,-2.13154 38.25315,-7.51077 -61.17258,2.99182 -121.18023,18.47776 -179.26307,37.022 30.80782,-2.98177 103.78709,-32.19176 108.77076,-11.23231 -23.94889,11.4764 -70.5857,20.78565 -15.68688,11.81722 47.62168,-19.18476 75.21843,12.13399 126.03923,15.86357 7.71481,0.6293 15.49512,0.77972 23.19453,-0.23362 z M 351.53461,336.7381 c 34.14397,-13.05514 126.05587,-51.43971 112.81823,-50.19137 -33.69073,14.88944 118.71166,-26.9372 44.28333,-15.25167 -34.41117,-8.69026 -91.56042,37.476 -102.06445,26.29466 48.45492,-30.95651 -42.12202,13.00206 -47.0545,29.62839 -0.60167,-1.1839 -21.78872,15.00596 -7.98261,9.51999 z m -11.82372,-11.75 c 2.79688,-4.86968 -5.98207,7.20819 0,0 z m 8.95468,-2.90633 c -4.21315,-0.26828 -8.64432,9.29704 0,0 z m 24.41776,-19.64182 c -37.49827,21.81949 -28.44851,21.30272 0,0 z M 355.1422,321.2699 c 32.38424,-8.55382 16.12557,-19.57586 0,0 z m 79.0359,-15.50721 c 37.7746,-4.11881 9.24159,-13.86842 -8.21602,1.94784 2.73867,-0.64928 5.47735,-1.29856 8.21602,-1.94784 z m -36.2996,-11.50575 c -6.75297,-5.60655 -24.6612,16.87055 -5.99186,3.58258 z m -15.29517,-1.08921 -4.01571,2.13518 z m 269,-8.47563 c -20.79938,-23.03627 -81.08327,2.27195 -25.85172,0.0663 8.59798,0.53054 17.27445,1.07577 25.85172,-0.0663 z m 70.4266,0.92723 c -42.49986,-21.23388 -92.38754,-37.79711 -140.1766,-30.21748 45.92871,13.24945 92.39375,26.00449 140.1766,30.21748 z m -279.69743,-0.4854 c -3.37873,-2.81887 -1.41186,2.5071 0,0 z m 74.9991,-3.47317 c 18.03315,-4.54062 103.50728,5.30266 47.95164,-10.29982 -2.94419,-2.19951 -81.71302,14.99358 -47.95164,10.29982 z m 8.61465,-22.09266 c 21.66992,-0.9466 54.57548,-4.84665 13.59143,-3.73173 -5.73858,-1.54058 -42.2021,10.65996 -13.59143,3.73173 z M 403.58333,1432.5489 c -27.88794,3.8008 -41.53837,-35.975 -8.8744,-9.9872 10.58739,0.5463 36.65733,11.6237 8.8744,9.9872 z m 14.90864,-9.7932 c -31.52725,3.2671 -31.67648,-63.4956 -12.12732,-14.8289 6.1007,4.7443 40.02578,15.6159 12.12732,14.8289 z m 12.43511,-7.059 c -30.35952,0.8114 -42.34953,-59.9805 -13.4296,-16.3031 5.73384,5.4463 39.61076,16.02 13.4296,16.3031 z m 23.0113,-65.0652 c -29.84544,-13.6925 -62.69539,-42.4276 -53.13541,-79.0075 6.53962,31.0376 45.30323,71.2664 53.13541,79.0075 z m 2.14495,-28.7713 c -30.53959,7.3386 -58.85374,-77.7592 -23.61764,-24.1466 0.0796,12.3391 64.41558,27.4996 23.61764,24.1466 z m 482.6885,-16.3721 c 5.20036,-15.0838 0.7063,11.4855 0,0 z m -167.9385,-47.4123 c -0.83002,-11.7546 17.02385,-4.0797 0,0 z m 7.75,-185.119 c 7.02475,-16.1089 11.34544,-4.5323 0,0 z m 112.2848,-161.88744 c -0.54072,-18.77695 4.37872,9.24161 0,0 z"
       style="fill:#000000"
       id="path22" />
    <path
       d="m 532.31968,1013.7606 c -35.36025,-4.5172 17.58888,-20.30769 -17.27914,-32.42315 -11.99312,-14.64983 -14.33835,-10.11881 -10.18483,-39.12432 -27.08041,2.7496 -18.38738,63.52337 -47.74883,23.47031 -22.90397,-51.86634 51.07027,-76.84702 79.03521,-72.36235 34.23386,6.73654 53.17957,10.62512 85.54912,7.39525 23.419,18.41006 22.65595,89.34147 -13.57776,69.31885 22.84415,-40.42254 -33.07874,-35.96845 -30.19754,-0.0428 -2.2679,29.78075 -6.27988,47.04181 -45.59623,43.76821 z"
       style="fill:#f4d7d7;stroke-width:1.27111"
       id="path35" />
    <path
       d="m 865.55097,918.87991 c -40.90806,-18.89548 23.84494,-50.3047 16.53096,-88.33266 10.96184,-31.66521 18.58482,-80.92006 -4.29708,-88.92349 -3.37669,-28.00948 34.66316,-51.36099 29.0002,-8.70463 7.415,55.60832 -29.58447,100.14476 -29.21124,156.38512 -3.34669,5.38319 -1.55181,41.72478 -12.02284,29.57566 z"
       style="fill:#f4d7d7;stroke-width:1.27111"
       id="path39" />
    <path
       d="m 855.81704,876.60869 c 7.90566,-35.47996 9.46255,-98.48434 28.90871,-116.00243 -1.47534,35.20496 -7.76063,95.23087 -28.90871,116.00243 z"
       style="fill:#f4d7d7;stroke-width:1.27111"
       id="path41" />
    <path
       d="m 215.42399,994.5592 c -23.13413,-19.70215 -10.442,-62.28421 -9.1576,-88.75568 -12.10488,-48.93837 -39.00123,-95.92153 -28.16319,-147.87775 21.48625,-57.88509 48.5982,19.4698 11.32704,36.49828 -14.22416,40.58095 39.25478,52.27552 28.06494,88.55248 -4.19604,29.28959 6.69537,77.95663 3.37583,81.71027 -11.48152,9.96906 21.92958,34.59482 -5.44702,29.8724 z"
       style="fill:#f4d7d7;stroke-width:0.635554"
       id="path43" />
    <path
       d="m 201.90972,828.90318 c -15.68411,-17.2484 3.76531,-79.93258 7.14813,-28.12328 1.21331,4.80681 -4.50976,36.31634 -7.14813,28.12328 z"
       style="fill:#f4d7d7;stroke-width:0.635554"
       id="path45" />
    <path
       d="m 509.19489,1240.2173 c -69.31767,-8.6911 -125.66686,-56.73 -177.23899,-100.2295 -50.8669,-30.2432 -44.26197,-89.7131 -64.90401,-137.3351 -12.1642,-24.34773 -38.5042,-103.36827 -10.79119,-38.53234 3.81073,20.41627 43.00952,71.02374 23.79044,22.51471 -17.40794,-17.56193 -56.98872,-111.20667 -14.99362,-77.20814 10.6168,17.76093 46.87492,77.76518 58.53399,55.64587 -15.72783,-12.64787 -63.03239,-63.16116 -48.61384,-61.90355 2.02454,23.94848 77.11096,55.50066 29.30432,26.54168 -25.70211,-14.35316 -47.90927,-89.73521 -4.62036,-38.45344 42.27395,33.54275 105.81729,24.15527 142.99964,-12.73915 34.84688,-22.86264 46.78626,-65.29953 56.26139,-103.46626 3.62911,37.27996 15.2239,75.47906 4.84458,112.56526 -51.7034,-0.5097 -84.40074,77.13872 -37.77712,106.80659 38.56,-12.51956 74.46622,62.64197 112.48908,12.87427 25.85404,-32.22608 93.45358,-27.2694 68.1486,-86.72394 -12.74805,-47.63445 -93.24876,-25.27911 -75.38571,-91.28669 -4.57928,-49.14166 11.28263,-98.42991 41.00067,-137.19284 2.22461,29.22517 13.32168,-13.36687 28.75107,-8.00934 23.39537,-20.46689 58.4486,-33.29246 83.59781,-34.79616 20.22862,-3.32788 86.25613,19.15347 84.89762,0.49576 -49.03115,-24.24919 -110.12917,-13.39125 -158.00627,9.45036 -52.64754,16.9969 -79.80807,68.42356 -88.75817,119.79849 -14.57446,39.37988 28.31527,105.75262 -40.52651,98.07544 0.26631,-41.777 2.58723,-85.64399 -20.65785,-122.58729 -5.30967,-64.35131 84.07366,-81.51922 118.02139,-126.48368 45.25521,-36.50767 86.82655,-77.48109 132.32197,-113.52415 48.05724,5.04608 61.74953,69.99886 79.06724,108.11844 15.30126,48.69967 2.95595,100.92685 11.29472,150.01615 24.98136,43.79165 -2.52519,88.42751 -5.93686,133.36345 0.83253,19.73392 16.42247,-36.47897 5.68715,4.65466 -14.11819,46.92246 -30.43435,93.29144 -56.00101,135.27104 -25.84564,57.9814 -68.41913,109.4071 -118.2805,148.5026 -39.28969,21.549 -22.00215,19.1559 -33.20954,26.825 -40.56505,10.7638 -83.21045,19.6911 -125.31013,18.9518 z m 47.73021,-55.2513 c 23.56026,-10.1892 37.49227,-24.7462 5.68627,-9.1637 -16.24636,22.1766 -84.64699,-26.6742 -50.01201,8.0258 14.17827,4.7242 29.93951,5.3395 44.32574,1.1379 z m 7.2198,-39.3372 c 54.78111,0.8402 123.36269,-68.4423 47.11465,-99.4303 -36.16708,-23.9356 -56.8809,26.9968 -91.7501,8.8195 -44.79549,-18.2375 -126.243,53.7355 -56.56562,78.9811 31.16196,16.0871 67.26409,16.5555 101.20107,11.6297 z m -86.78625,-107.6505 c 19.78391,-4.0224 73.33709,-6.6957 22.86408,-10.872 -9.41558,-7.7571 -54.54359,24.3981 -22.86408,10.872 z m 102.67511,-14.3844 c 13.29787,-10.591 78.88607,8.4497 36.80804,-10.3282 -7.24191,-14.57681 -70.17392,22.7274 -36.80804,10.3282 z M 724.82594,920.21538 c -15.10099,-15.25696 -86.42123,-48.16333 -65.25606,-55.65215 19.00831,13.43582 71.69279,45.34034 80.5659,30.62452 -24.90024,-5.79234 -103.29025,-49.38033 -37.66897,-28.1335 18.46593,9.99408 71.79929,-0.31128 23.58153,-4.24086 -23.10411,1.15725 -99.13056,-32.017 -35.90556,-15.36631 59.61791,13.66326 -50.64029,-30.07768 -69.68277,-27.24295 11.97878,46.91222 54.59405,95.69589 104.36593,100.01124 z M 686.80688,814.48431 c 41.36355,-5.00656 91.83632,-38.98863 123.33796,-38.79936 0.83777,-9.11411 20.42401,-3.4539 0.92081,-13.27283 35.98039,-12.94668 -43.55258,5.80169 -54.75693,-8.83849 -46.0708,-24.22919 -102.05706,-9.58595 -134.6315,29.6318 -15.80664,17.79343 -38.46317,38.19055 0.82039,24.6925 21.25516,4.04112 42.43621,10.6326 64.30927,6.58638 z m -47.80847,-67.22957 c 39.18117,-35.64685 93.27287,-29.58755 139.99053,-15.78308 43.5479,-0.52275 -55.68512,-29.83633 -71.33791,-18.43589 -26.17674,-5.81955 -97.07003,42.28569 -82.65927,43.4315 l 6.45909,-4.20639 z"
       style="fill:#f4d7d7;stroke-width:1.27111"
       id="path68" />
    <path
       d="m 240.55862,747.74179 c -37.0992,-49.62121 1.33538,-108.46628 27.25444,-153.09691 12.5058,-15.32212 43.48068,-54.16664 32.12789,-26.19657 34.52346,-50.2031 83.04865,-88.14546 139.38076,-111.10535 63.22342,-22.8046 134.04198,-31.38304 200.33454,-18.43919 30.93196,10.82007 132.86272,35.48674 80.71396,74.24305 -85.36781,54.2112 -164.30871,117.84954 -242.04464,182.44794 -37.46298,-30.5576 -84.89072,-56.19145 -132.87499,-30.19654 -42.33835,16.51022 -75.45982,50.64145 -99.17596,88.59961 z m 82.19683,-111.24406 c 5.00525,-25.48946 50.92629,-3.21798 17.10725,-26.46576 -6.72687,-18.77451 48.07393,-0.8846 11.03548,-19.84763 3.60683,-21.44272 40.09129,1.6045 14.4299,-22.42706 0.34837,-23.26016 52.48334,11.89945 17.37255,-18.55153 3.25889,-12.341 36.75622,-34.64275 4.49403,-11.71926 -16.54999,14.34975 -24.36115,-22.96397 -22.50639,17.51262 -5.20821,20.12768 -24.61597,-27.17263 -16.47695,18.5365 -10.41414,2.40617 -16.00625,17.71578 -18.11951,28.65388 -37.33143,-29.15348 8.49127,32.64223 -7.33636,34.30824 z m 143.51409,-13.27098 c 35.39184,-7.82325 80.19381,2.93028 108.46628,-24.55501 -33.18699,21.7555 -106.57133,4.82904 -120.50105,27.51783 l 5.72508,-1.13155 z m -0.4296,-42.01605 c 51.92124,-11.74464 108.18779,3.57932 158.04706,-17.33556 -62.82852,6.04354 -127.55912,4.12225 -189.91066,14.04614 9.07971,5.36488 21.52071,6.15221 31.8636,3.28942 z m 2.69029,-38.54693 c 49.75987,-27.88108 103.35996,-10.70242 155.67586,-13.97077 22.60117,-8.98378 -53.30706,-8.62002 -67.52888,-10.23701 -19.47026,-8.62182 -107.17848,21.87327 -88.14698,24.20778 z"
       style="fill:#f4d7d7;stroke-width:1.27111"
       id="path70" />
    <path
       d="m 358.2253,902.70668 c -31.83044,-2.72723 -76.25358,-50.86416 -73.83571,-65.85654 36.84466,-0.85631 -35.05839,-40.04508 -14.32921,-65.30838 10.6202,-70.57043 94.92537,-120.49653 161.37277,-94.33118 50.27322,29.0819 54.40105,97.45196 39.69111,147.60103 -17.85771,43.83414 -65.00953,78.83667 -112.89896,77.89507 z"
       style="fill:#000000;stroke-width:1.27111"
       id="path72" />
    <path
       d="m 493.56262,719.18775 c -39.67473,-32.48679 47.848,-57.21067 64.87161,-84.91277 61.86588,-47.20197 123.81788,-95.7288 191.57674,-133.94978 0.4711,24.0766 -59.7786,54.9149 -81.52651,81.36159 -54.91712,48.69283 -113.87675,92.53127 -169.87316,139.896 l -2.63958,-1.25219 z"
       style="fill:#000000;stroke-width:1.27111"
       id="path74" />
    <path
       d="M 855.54042,721.68681 C 850.19043,671.89445 848.61545,620.46817 821.46414,576.27263 798.33799,516.59745 747.44907,474.13022 690.92155,447.31918 660.37732,422.44989 600.14049,435.46186 577.87189,416.13897 c 53.96259,-21.87509 -83.293,9.80901 -8.4373,-11.33998 44.71548,-27.66397 110.38428,22.41621 136.65812,13.8799 -36.73763,-22.29342 -81.06351,-30.37445 -122.55393,-26.50779 51.5511,-27.57834 105.82407,11.54243 150.59295,35.34057 14.61576,6.70939 60.51489,53.45503 32.81622,11.57605 -43.74733,-43.59602 -104.53502,-65.80458 -165.42019,-71.4543 -12.42361,-3.76651 8.96317,18.94268 -19.86797,13.45468 -28.18562,2.91664 -69.3144,10.11564 -18.11912,-9.65273 40.27169,-31.83783 98.84805,-6.51811 140.12091,12.54802 35.22055,30.67026 52.9026,18.08438 83.88678,49.75337 53.14629,55.0077 29.42304,144.13747 76.79047,201.56552 -0.6689,24.74145 -1.18517,77.85015 -8.79841,86.38453 z"
       style="fill:#ff0000;stroke-width:1.27111"
       id="path76" />
    <path
       d="M 830.1405,445.67865 C 797.91766,391.33747 763.65155,334.26034 705.5196,303.88156 c -45.2521,-26.01333 47.56851,-7.31636 59.61169,7.74003 22.99293,13.2811 45.70457,30.77437 27.49444,42.40211 22.16556,9.16026 50.53877,80.24251 41.31197,69.61706 -22.18871,-34.57762 6.97427,38.90239 -3.7972,22.03789 z"
       style="fill:#ff0000;stroke-width:1.27111"
       id="path78" />
    <path
       d="m 888.52708,522.32388 c -29.1188,-46.43711 -40.12237,-102.30169 -61.11286,-152.98689 17.60274,7.16839 67.248,87.99644 55.74516,99.06378 -31.39824,-51.37886 -4.89263,23.95875 11.05961,39.97643 2.63118,9.66575 7.13023,35.49418 -5.69191,13.94668 z"
       style="fill:#ff0000;stroke-width:1.27111"
       id="path80" />
    <path
       d="m 864.23799,625.18849 c -17.79802,-41.79662 -1.98473,-93.5018 -20.57475,-136.7658 29.59176,29.36836 20.39001,93.07659 24.50537,136.89259 l -1.51791,1.49715 z"
       style="fill:#ff0000;stroke-width:0.449405"
       id="path82" />
    <path
       d="m 873.52633,651.75672 c 3.25002,-36.56378 9.23884,-77.80721 4.72446,-111.16868 25.34638,38.26863 19.5492,77.06181 -4.06657,116.84524 z"
       style="fill:#ff0000;stroke-width:0.449405"
       id="path84" />
    <path
       d="m 882.58281,680.29675 c -5.32729,-20.96687 23.08057,-99.1581 22.69029,-39.4938 2.33435,18.59784 -18.6536,28.29451 -22.69029,39.4938 z"
       style="fill:#ff0000;stroke-width:0.449405"
       id="path86" />
    <path
       d="m 905.46613,811.57912 c 6.16786,-28.27122 27.47282,-110.13466 -12.81198,-105.15206 -43.09139,33.37511 27.87421,-95.17583 5.64058,-21.31127 -3.05541,26.0332 24.18856,-41.93851 16.96484,-55.62606 6.01852,-22.94921 -17.90054,-72.16704 -5.23275,-80.28075 20.38781,47.73772 13.29882,103.44089 18.36795,154.86361 0.66748,35.94944 -8.55979,80.19054 -22.92864,107.50653 z"
       style="fill:#ff0000;stroke-width:0.449405"
       id="path88" />
    <path
       d="m 864.99517,742.68069 c -8.87835,-24.83608 12.00721,-48.87744 3.85209,-9.298 5.64774,-3.10752 -0.39009,16.05207 -3.85209,9.298 z"
       style="fill:#ff0000;stroke-width:0.449405"
       id="path90" />
    <path
       d="m 846.40255,576.43108 c -9.49504,-23.70815 -21.02668,-105.95254 -2.97785,-42.52597 2.77074,8.16845 8.17694,47.95631 2.97785,42.52597 z"
       style="fill:#ff0000;stroke-width:0.449405"
       id="path92" />
    <path
       d="m 828.11642,475.93609 c -20.30581,-23.45504 -10.01045,-32.81636 1.72393,-1.28139 l 1.12007,4.91767 z"
       style="fill:#ff0000;stroke-width:0.449405"
       id="path94" />
    <path
       d="m 770.84955,377.38581 c -23.94682,-9.62866 -31.99338,-50.44819 -5.98474,-14.23016 0.63995,1.91623 21.10055,24.95013 5.98474,14.23016 z"
       style="fill:#ff0000;stroke-width:0.449405"
       id="path96" />
    <path
       d="m 804.19247,423.7316 c -12.32877,-11.61054 -43.82498,-46.07297 -11.28319,-15.59812 2.62725,0.41611 28.69437,33.73601 11.28319,15.59812 z"
       style="fill:#ff0000;stroke-width:0.449405"
       id="path98" />
    <path
       d="m 329.37235,443.94329 c 27.22242,-40.12919 79.39013,-56.06132 120.55421,-79.80418 59.2089,-29.27703 -34.71694,9.18254 -52.31156,22.11955 -23.60835,1.8346 -56.43208,58.28384 -71.23048,40.57623 2.79064,-39.16211 84.59056,-67.25152 71.77773,-73.96545 43.48181,-26.96714 96.08881,-27.07746 144.79615,-36.98076 -26.11086,16.08377 -103.24719,28.76203 -100.23844,38.76422 36.03905,-6.19137 102.44552,-27.29071 123.15804,-18.4129 -42.34166,20.66331 -88.50617,32.18331 -130.8792,52.6933 36.37315,-5.50655 99.01071,-34.65378 122.47681,-18.8903 -52.39203,19.39271 -104.46573,39.44041 -155.40866,62.1329 -2.58446,-23.15977 99.21576,-59.3578 28.43122,-33.23998 -33.69945,14.98771 -67.64131,30.19624 -101.12582,45.00737 z"
       style="fill:#ff0000;stroke-width:0.317777"
       id="path100" />
    <path
       d="m 391.24162,452.441 c -13.73562,-15.82535 64.78682,-32.34265 89.76345,-45.36491 22.45987,-8.36381 74.68734,-25.01481 80.88694,-10.59779 -49.718,24.81124 -108.93977,23.47573 -157.66695,51.97034 2.41103,-0.92402 -18.43807,8.27994 -12.98344,3.99236 z"
       style="fill:#ff0000;stroke-width:0.317777"
       id="path102" />
    <path
       d="M 509.47256,363.3996 C 541.94904,344.202 617.75044,324.27527 629.9688,349.41375 589.24686,348.0138 550.13488,364.13723 509.47256,363.3996 Z"
       style="fill:#ff0000;stroke-width:0.317777"
       id="path104" />
    <path
       d="m 668.36113,346.09208 c -53.43167,-4.10247 -84.85292,-36.68216 -135.94718,-15.56975 -64.74043,13.04469 70.59089,-20.08406 7.7029,-20.55828 -28.49023,3.01651 -71.08899,15.29232 -89.11529,17.26472 64.52633,-16.81788 131.29811,-40.47751 198.73083,-32.0088 -2.27015,0.14464 -120.65012,8.11491 -43.3378,9.42865 31.76215,-10.49209 91.71522,11.16881 89.84036,36.1128 -21.57137,-6.97263 -1.78523,9.65778 -19.32135,5.32614 z"
       style="fill:#ff0000;stroke-width:0.317777"
       id="path106" />
    <path
       d="m 319.97684,380.70963 c 10.89299,-14.65569 65.35092,-52.89961 27.96203,-18.15822 37.8094,-18.8528 78.45014,-55.82847 118.61438,-54.93199 15.49606,-28.47699 76.02636,-14.05754 104.22273,-16.92424 -62.50896,17.32178 -130.70991,23.85056 -183.15784,66.25711 -26.67389,25.13909 20.46758,-28.57646 -19.6052,-2.15009 -16.53889,7.57015 -31.24032,19.14087 -48.0361,25.90743 z"
       style="fill:#ff0000;stroke-width:0.317777"
       id="path108" />
    <path
       d="m 509.79033,282.0777 c 19.25417,-7.53672 76.55751,-16.48809 72.50619,-0.99177 -22.3224,-0.48603 -56.57624,-2.56733 -72.50619,0.99177 z"
       style="fill:#ff0000;stroke-width:0.317777"
       id="path118" />
    <path
       d="m 711.8966,284.44253 c -36.65779,-5.49129 -107.62552,-17.57417 -122.97975,-30.86797 45.60432,-1.74633 91.68114,10.92364 132.0364,31.67077 l -1.2711,-0.0202 -7.78555,-0.78257 z"
       style="fill:#ff0000;stroke-width:0.317777"
       id="path122" />
    <path
       d="m 633.40565,285.06574 c -30.77986,4.61406 -44.64245,-13.24553 -4.71929,-9.23127 17.58966,2.69868 32.65724,13.00406 4.71929,9.23127 z"
       style="fill:#ff0000;stroke-width:0.317777"
       id="path124" />
    <path
       d="m 489.85771,436.76314 c 19.25563,-12.28338 99.78101,-14.64457 38.32538,-5.44751 -12.74434,2.04272 -25.60104,3.27645 -38.32538,5.44751 z"
       style="fill:#ff0000;stroke-width:0.224702"
       id="path126" />
    <path
       d="m 458.64858,437.3689 c 16.92756,-14.60777 77.82303,-17.28458 27.53099,-5.38421 -9.07993,2.08037 -18.16487,5.21673 -27.53099,5.38421 z"
       style="fill:#ff0000;stroke-width:0.224702"
       id="path130" />
    <path
       d="m 208.25828,666.39423 c -15.02449,-69.05093 -7.41057,-146.92898 41.68251,-201.13789 -17.06443,46.00586 -33.04301,94.03694 -45.23001,142.3323 19.72201,-30.81809 31.45566,-108.87362 53.83437,-111.43402 11.6472,32.60514 0.47958,-38.23836 26.04057,-40.07462 20.53647,-22.81361 -13.47018,30.51084 -9.73973,45.34454 -25.32629,45.84225 -70.30471,86.46479 -63.02036,144.13144 15.17949,5.26611 19.50947,-43.89774 10.58676,0.91244 -1.81616,1.84339 -14.07536,39.55027 -14.15411,19.92581 z"
       style="fill:#ff0000;stroke-width:0.317777"
       id="path132" />
    <path
       d="m 320.94469,404.45157 c -29.10096,-25.6112 100.4986,-72.64103 32.36817,-20.99839 -10.08154,6.73262 -18.75186,22.46812 -32.36817,20.99839 z"
       style="fill:#ff0000;stroke-width:0.317777"
       id="path134" />
    <path
       d="m 305.04647,438.54801 c -11.32998,-18.055 -33.75529,-103.81552 -0.70572,-48.03812 6.48038,11.60676 15.78226,47.04006 0.70572,48.03812 z"
       style="fill:#ff0000;stroke-width:0.317777"
       id="path136" />
    <path
       d="m 297.11942,361.99263 c 4.11391,-21.77978 58.85934,-39.07073 16.19994,-7.66156 -4.04635,4.62749 -10.0956,7.35276 -16.19994,7.66156 z"
       style="fill:#ff0000;stroke-width:0.317777"
       id="path138" />
    <path
       d="m 313.32796,380.71257 c 15.58346,-19.49334 87.2285,-67.06994 26.58503,-27.43762 -15.24517,21.4147 -51.0951,24.94083 -20.42251,-3.47689 15.32803,-17.78194 48.22105,-34.18828 16.8725,-4.49601 23.09913,-8.30535 82.91061,-35.34148 30.41415,-4.05069 -19.99397,10.34724 -36.20368,25.65521 -53.44917,39.46121 z"
       style="fill:#ff0000;stroke-width:0.317777"
       id="path140" />
    <path
       d="m 346.75717,337.36332 c 17.73944,-12.8821 57.72902,-52.18729 70.38764,-46.96829 -33.48108,33.25982 38.14386,-17.05232 56.76566,-13.69883 24.07538,-6.75706 89.48223,-10.79498 30.14639,1.77304 -17.11108,3.05262 -59.27845,20.11078 -36.80051,4.65225 -40.38991,17.43621 -79.02568,39.63063 -120.49918,54.24183 z"
       style="fill:#ff0000;stroke-width:0.317777"
       id="path142" />
    <path
       d="m 347.07495,337.12431 c 17.74272,-13.36636 62.15571,-54.12205 70.54652,-47.22423 -34.52204,34.69687 37.1868,-16.72222 56.22652,-12.97932 22.15068,-6.32851 89.63812,-11.2032 30.68554,1.23652 -25.34503,4.09704 -37.02085,15.55501 -42.7299,7.26547 -38.34471,16.85185 -75.41654,37.59003 -114.72868,51.70156 z"
       style="fill:#ff0000;stroke-width:0.317777"
       id="path144" />
    <path
       d="m 338.49759,482.50435 c -54.12512,-35.06275 91.46512,-83.08909 40.67285,-51.44121 69.88005,-32.68524 -83.86607,48.58955 -17.99054,22.37099 18.05712,-16.25265 42.26427,-32.46808 12.12105,-1.04852 -10.49832,7.76672 -22.43373,31.93519 -34.80336,30.11874 z"
       style="fill:#ff0000;stroke-width:0.317777"
       id="path146" />
    <path
       d="m 242.52626,642.34203 c 13.5147,-50.20825 58.03956,-81.11597 88.60686,-120.32118 -14.93689,8.19928 -64.88539,71.8796 -31.03528,29.0446 11.18786,-21.97162 97.76587,-81.60197 65.95852,-59.80608 -46.28616,27.0412 -80.40546,70.98254 -116.68326,109.90233 -18.35925,33.91742 -15.72812,21.30543 -2.88377,-7.93892 7.3216,-19.93493 53.38915,-84.74687 58.71501,-73.93154 -9.37846,17.63535 -50.86026,67.66434 -13.02002,24.61535 23.09181,-40.68248 70.34678,-57.61735 107.28989,-86.0184 20.61573,-12.65794 69.41703,-14.46518 21.49654,3.82733 -47.08692,25.81237 -94.20765,56.78299 -122.12602,104.04174 10.2922,-23.60785 -33.88614,29.90875 -41.93099,44.59209 -6.2612,9.58085 -10.59239,22.76454 -14.38748,31.99268 z"
       style="fill:#ff0000;stroke-width:0.317777"
       id="path148" />
    <path
       d="m 236.80627,567.69819 c 28.81231,-34.27099 42.6283,-74.9692 58.47097,-112.85188 25.27352,24.00097 -25.81203,69.69524 -42.40225,95.73214 -5.70985,5.33134 -9.86359,12.29748 -16.06872,17.11974 z"
       style="fill:#ff0000;stroke-width:0.317777"
       id="path150" />
    <path
       d="m 327.32603,504.0101 c 11.7388,-14.71163 80.4504,-75.92666 40.73519,-29.52093 -10.85864,12.4553 -28.36105,23.69516 -40.73519,29.52093 z"
       style="fill:#ff0000;stroke-width:0.317777"
       id="path152" />
    <path
       d="m 286.5789,511.98034 c -0.68992,-30.67168 45.56004,-32.23757 9.49281,-6.69202 -0.90613,-5.95361 -8.84315,12.41355 -9.49281,6.69202 z"
       style="fill:#ff0000;stroke-width:0.317777"
       id="path154" />
    <path
       d="m 219.96408,622.50347 c 13.59898,-49.16768 51.91875,-85.61268 90.04918,-116.98393 -36.80533,33.24115 -66.21368,75.9655 -90.04918,116.98393 z"
       style="fill:#ff0000;stroke-width:0.317777"
       id="path156" />
    <path
       d="m 237.22612,472.59613 c 7.15771,-25.64675 31.94323,-58.55893 36.99841,-76.5155 -34.5142,22.9385 17.10399,-27.66886 5.25998,13.93864 -10.2105,22.34722 -26.15303,45.57019 -42.25839,62.57686 z"
       style="fill:#ff0000;stroke-width:0.317777"
       id="path158" />
    <path
       d="m 211.28051,482.19244 c 4.2301,-23.4396 46.88901,-87.78729 21.10343,-30.18505 -5.5265,10.49035 -9.95103,25.59546 -21.10343,30.18505 z"
       style="fill:#ff0000;stroke-width:0.317777"
       id="path160" />
    <path
       d="m 152.38803,636.60426 c 9.62439,-48.48412 16.56905,-99.76174 37.26126,-145.43438 8.28586,-18.05164 49.89794,-85.42571 23.46504,-33.26281 -25.77165,54.07237 -45.89499,111.54755 -54.12539,170.72743 -2.25137,2.3992 -2.44163,8.27491 -6.60091,7.96976 z"
       style="fill:#ff0000;stroke-width:0.317777"
       id="path162" />
    <path
       d="m 168.29824,674.06959 c -8.56833,-13.6948 11.17366,-100.273 11.06617,-45.07329 -4.47887,11.38027 4.59847,43.84859 -11.06617,45.07329 z"
       style="fill:#ff0000;stroke-width:0.449405"
       id="path164" />
    <path
       d="m 170.26338,606.28318 c 1.54038,-23.18479 21.88551,-103.81181 14.3094,-36.29295 -1.42887,10.33423 -4.88606,33.04021 -14.3094,36.29295 z"
       style="fill:#ff0000;stroke-width:0.449405"
       id="path166" />
    <path
       d="m 160.09038,739.90237 c -8.98133,-20.42231 4.4113,-69.98678 9.23972,-20.05374 0.0104,2.66116 -11.96868,44.62708 -9.23972,20.05374 z"
       style="fill:#ff0000;stroke-width:0.449405"
       id="path168" />
    <path
       d="m 197.08986,708.78725 c -24.25084,-14.90494 -3.77537,-53.38059 2.96113,-6.55993 l -0.025,6.74044 z"
       style="fill:#ff0000;stroke-width:0.449405"
       id="path170" />
    <path
       d="m 181.62361,740.32893 c -24.73721,-36.0989 53.08244,-23.8952 0,0 z"
       style="fill:#ff0000;stroke-width:0.449405"
       id="path172" />
    <path
       d="m 162.74143,820.54925 c -9.94883,-17.26318 -13.23163,-88.91726 -1.92515,-32.5945 -0.14742,4.48452 10.91237,40.4741 1.92515,32.5945 z"
       style="fill:#ff0000;stroke-width:0.449405"
       id="path174" />
    <path
       d="m 259.78844,823.16114 c -19.01681,-14.69845 -52.55995,-105.52499 -19.14996,-49.54587 5.86562,9.62822 28.6014,54.29368 19.14996,49.54587 z"
       style="fill:#ff0000;stroke-width:0.449405"
       id="path176" />
    <path
       d="m 325.86237,490.8845 c -14.32364,-15.04013 -11.98914,-51.69413 0.98415,-14.09869 0.5265,-2.26025 6.67463,20.93289 -0.98415,14.09869 z"
       style="fill:#ff0000;stroke-width:0.449405"
       id="path178" />
    <path
       d="m 312.55673,451.70713 c -14.32234,-18.60233 24.34246,-17.52058 0,0 z"
       style="fill:#ff0000;stroke-width:0.449405"
       id="path180" />
    <path
       d="m 236.7178,508.47129 c 12.28498,-42.77941 21.54813,-10.29266 0,0 z"
       style="fill:#ff0000;stroke-width:0.449405"
       id="path182" />
    <path
       d="m 258.52568,479.74067 c 0.49071,-24.18155 46.64172,-64.18324 11.29558,-19.53828 -4.3048,6.20598 -6.87296,13.39308 -11.29558,19.53828 z"
       style="fill:#ff0000;stroke-width:0.449405"
       id="path184" />
    <path
       d="m 273.97397,462.90472 c 3.3367,-24.13809 47.75302,-43.99018 0,0 z"
       style="fill:#000000;stroke-width:0.449405"
       id="path186" />
    <path
       d="m 397.10228,1235.246 c -11.87284,25.4959 15.87364,75.0607 11.42395,24.5168 -5.35637,-6.0183 5.76279,-30.8996 -11.42395,-24.5168 z"
       style="fill:#000000"
       id="path188" />
    <path
       d="m 397.49409,1249.4643 c 1.61966,42.4044 15.35893,86.168 -5.93508,125.879 -6.57272,22.1207 -22.6018,39.4709 -37.38159,53.8517 -32.84275,27.2204 18.5895,2.0278 23.47893,-16.3734 25.32528,-17.3555 10.53325,-40.36 -6.34172,-8.8464 -18.64274,14.2549 -30.45603,52.6012 -2.07391,16.827 24.31054,-15.6025 24.61323,-51.564 3.54759,-15.9313 -11.25703,13.9878 -53.59721,57.7305 -12.70294,31.136 29.8858,-26.3807 47.60605,-65.3868 53.33575,-105.2981 -8.17329,-20.5686 7.99211,-79.2165 -15.92703,-81.2445 z"
       style="fill:#000000"
       id="path190" />
    <path
       d="m 626.65661,1456.6807 c -60.23167,-20.9442 -124.48945,-13.2066 -186.85296,-18.3135 -26.0183,-4.6978 -119.40801,22.6086 -64.21408,-17.4119 19.13596,23.7579 64.63398,5.6722 14.25225,-0.261 -17.94907,-8.2638 8.78387,-35.3133 10.81216,-5.612 19.90171,16.6698 43.76358,2.3022 8.31019,-6.0176 -14.6447,-19.3911 -15.03559,-34.7871 -0.95579,-6.0125 15.4018,21.8315 53.01619,9.9403 12.02492,-2.4998 -38.88602,-13.3093 -3.97685,-77.7887 6.09095,-21.038 -57.09407,-35.14 28.95726,36.9985 33.39151,12.7246 -22.20981,-12.1337 -54.31083,-48.7641 -43.97756,-68.1125 11.36339,18.1558 69.29307,39.1727 25.55783,11.087 -27.06662,-12.5451 -44.68588,-79.5742 -24.17234,-81.3667 12.5834,19.1591 80.21877,53.2516 30.92423,13.6076 -16.88523,-8.684 -63.39631,-55.9302 -15.01674,-38.3186 49.46372,33.5443 110.50584,24.5463 164.60673,7.9158 25.07107,-9.9964 61.29978,-24.4463 52.57425,14.8734 0.37216,42.5374 2.27296,86.8501 21.61716,125.6435 -48.40147,39.1667 -14.40022,-71.5106 -48.01988,-84.0483 -24.65099,-8.4765 -29.80544,-61.8452 -51.76365,-22.0142 -9.6261,41.6035 70.63312,44.1891 44.48162,96.4095 -21.67578,43.2042 42.27461,63.5943 60.35139,27.8959 8.24655,19.5872 59.03832,58.719 9.20855,53.3401 -19.53376,3.8723 -39.15014,8.7132 -59.23074,7.5292 z M 470.92855,1321.7068 c -23.56062,1.6904 -72.8905,-74.8743 -47.32119,-21.0365 10.47348,16.7385 27.86302,25.1866 47.32119,21.0365 z"
       style="fill:#f4d7d7;stroke-width:0.635554"
       id="path192" />
    <path
       d="m 629.84464,1083.9289 c -13.94808,-17.7769 -82.55665,-12.3314 -71.36298,-27.4544 20.79912,-25.6727 89.93586,11.7723 71.36298,27.4544 z"
       style="fill:#c83737;stroke-width:0.635554"
       id="path194" />
    <path
       d="m 449.89437,1087.3105 c 4.87471,-26.6047 76.90529,-40.9499 63.78283,-17.4441 -20.47995,4.1415 -49.39025,11.148 -63.78283,17.4441 z"
       style="fill:#c83737;stroke-width:0.635554"
       id="path196" />
    <path
       d="m 523.06126,1142.4248 c -25.6682,-0.4154 -105.18075,-38.8279 -38.20907,-17.4993 50.22348,13.641 103.07163,-0.7579 149.63079,-17.2088 -28.09435,27.0554 -73.01214,37.8753 -111.42172,34.7081 z"
       style="fill:#c83737;stroke-width:0.635554"
       id="path198" />
    <path
       d="m 553.07369,1118.7782 c -5.0898,-41.5532 -136.85515,3.8544 -56.98139,-23.0709 33.9174,-4.1672 67.54919,-9.082 99.72065,-0.9683 14.38088,0.666 -40.09592,7.6339 -29.11878,27.0161 -3.3071,-2.1169 -17.36331,7.4882 -13.62048,-2.9769 z"
       style="fill:#000000;stroke-width:0.635554"
       id="path200" />
    <path
       d="m 628.64241,1342.7776 c -12.8897,-15.3362 -2.40594,-57.5462 5.7444,-16.6902 0.035,4.7611 4.09302,18.4736 -5.7444,16.6902 z"
       style="fill:#00ff00;stroke-width:0.317777"
       id="path204" />
    <path
       d="m 650.88117,1408.5698 c -3.06563,-28.7402 18.01528,2.844 0,0 z"
       style="fill:#00ff00;stroke-width:0.317777"
       id="path206" />
    <path
       d="m 624.59015,1393.2846 c -21.43248,-32.1759 38.24299,-2.2899 0,0 z"
       style="fill:#00ff00;stroke-width:0.317777"
       id="path208" />
    <path
       d="m 622.03123,1370.1842 c -6.89479,-42.0288 30.21901,1.5274 0,0 z"
       style="fill:#00ff00;stroke-width:0.317777"
       id="path210" />
    <path
       d="m 631.53643,1407.1515 c -12.16291,-29.2439 32.76376,-2.1003 0,0 z"
       style="fill:#00ff00;stroke-width:0.317777"
       id="path212" />
    <path
       d="m 663.79081,1401.0722 c 1.71399,-8.2419 18.84687,-20.7886 6.75932,-5.525 z"
       style="fill:#00ff00;stroke-width:0.317777"
       id="path214" />
    <path
       d="m 587.92613,1301.3072 c -28.95541,-13.9844 13.76551,-47.7264 -1.60939,-11.0333 28.16058,-11.9068 24.24584,14.615 1.60939,11.0333 z"
       style="fill:#00ff00;stroke-width:0.317777"
       id="path216" />
    <path
       d="m 610.78951,1304.9584 c -7.15137,-25.0555 23.3094,4.8045 0,0 z"
       style="fill:#00ff00;stroke-width:0.317777"
       id="path218" />
    <ellipse
       ry="0.42675292"
       rx="0.41769376"
       cy="1376.1156"
       cx="356.70773"
       style="fill:#000000;stroke:#000000;stroke-width:0.949316"
       id="path1767" />
    <ellipse
       ry="0.6035198"
       rx="0.5907082"
       cy="1636.7975"
       cx="509.3038"
       style="fill:#000000;stroke:#000000;stroke-width:0.949316"
       id="path1769" />
    <g
       transform="matrix(0.93918542,0,0,0.95955499,-582.71131,179.48881)"
       id="g2572">
      <path
         id="path1749"
         style="fill:#000000;stroke-width:1.33333"
         d="m 951.39796,1138.1246 c -7.93579,-24.5921 13.21815,-45.2734 4.87406,-6.2695 35.88255,-10.103 50.25248,-61.6576 73.78178,-90.7972 28.4998,-34.8354 48.4703,-75.31922 75.6851,-111.26812 30.2259,-51.98749 65.5436,-100.84314 92.8839,-154.61726 35.332,-55.63037 69.9401,-111.75881 106.0664,-166.78126 23.2406,-42.14129 57.1027,-77.67111 78.4596,-121.16741 36.9773,-48.00698 67.7988,-100.48206 98.5521,-152.56407 11.2886,-58.35827 -50.8227,23.26135 -66.3218,38.5211 -34.6565,29.24046 -58.9421,67.91605 -88.9744,101.55479 -36.5823,50.11034 -74.2705,99.42621 -105.1747,153.37039 -41.1914,63.84371 -82.2378,127.77659 -117.1687,195.34513 -34.1835,56.77133 -62.2339,116.93655 -96.164,173.80012 -16.76945,42.07879 -47.0892,77.28859 -61.8229,120.39339 -18.42668,21.2609 13.12462,-39.1371 20.89868,-52.2129 26.14301,-41.6916 45.14692,-87.10144 71.11902,-128.93172 35.6491,-68.52305 74.4419,-135.42444 112.1282,-202.77552 51.1009,-76.79615 95.1566,-158.37116 152.5717,-230.85491 29.7195,-40.34455 60.444,-80.40226 95.3087,-116.32507 28.5081,-28.68841 54.3459,-61.49744 88.3108,-84.15332 11.7028,42.4495 -34.8813,76.44233 -50.4074,113.7316 -27.1054,41.9922 -56.4988,82.30484 -82.3149,125.15858 -31.7769,38.7955 -52.8598,84.2252 -82.638,124.44538 -34.4818,56.41784 -71.5111,111.32506 -102.2172,169.91955 -32.452,46.32836 -57.7408,97.02873 -92.6158,141.70707 -21.3977,41.86216 -55.0571,75.77156 -75.8385,118.19006 -13.63624,13.7922 -27.41336,44.1601 -48.98174,42.5811 z m 182.38534,-5.751 c -0.9082,-40.6109 28.5216,-75.6496 42.2958,-112.9815 24.498,-61.0643 66.5464,-112.61577 98.6015,-169.53865 31.618,-44.33734 57.2145,-92.51579 91.7163,-134.79556 28.7222,-41.72165 62.7826,-79.59027 86.1173,-124.92584 28.4252,-30.42751 40.4038,-69.53266 58.6171,-105.74079 22.2508,-42.20544 51.2264,-81.50877 67.8186,-126.12111 21.459,-50.35113 75.7418,-4.44466 42.8474,30.78771 -18.1391,35.86616 -36.1328,72.76602 -61.7401,104.20829 -36.9749,66.83451 -75.7396,132.63717 -115.0909,198.10906 -54.5753,77.55871 -104.8726,157.77168 -154.3543,238.60958 -27.9754,39.91955 -50.8637,82.96891 -81.4807,120.87501 -26.2326,24.9984 -36.8744,76.183 -75.348,81.5138 z m 16.4212,-8.8897 c 30.8098,-29.5921 48.7984,-71.4158 78.2234,-103.3825 38.6129,-59.90398 77.277,-120.01275 114.7886,-180.61424 38.5359,-65.03707 85.507,-124.87397 123.3152,-190.42927 31.3394,-53.17985 61.7409,-106.97248 93.2559,-160.00003 26.1582,-34.20118 44.8932,-73.4795 63.0637,-112.1137 14.3963,-49.68343 -47.3786,-39.36555 -45.9676,0.55529 -25.4976,43.3717 -51.5674,86.79471 -74.1899,131.82438 -12.4434,46.2919 -50.5312,78.63899 -70.6862,121.26246 -41.3986,58.22839 -87.7934,113.20498 -123.6359,175.23786 -36.9538,51.95251 -67.8771,107.63081 -102.7912,160.9374 -23.6518,49.22525 -48.9466,98.16395 -67.3791,149.59515 -3.1433,10.9709 3.7904,16.7475 12.0031,7.1272 z m -371.07324,-11.5281 c 6.88198,-41.9644 21.16089,-81.7963 32.5989,-122.55451 34.74846,-75.5433 67.59113,-152.10259 110.39644,-223.64338 62.80928,-117.18064 134.5334,-229.96648 218.6031,-333.12015 54.1055,-72.08005 116.3406,-138.74067 187.508,-194.1619 18.2345,-11.28682 84.0294,-70.43235 55.3634,-20.1835 -30.6497,44.54822 -68.0764,84.69209 -99.5253,128.97518 -57.4649,71.95424 -112.929,145.50301 -167.4286,219.73938 -47.0311,65.32269 -96.2438,129.13364 -138.21376,197.89836 -43.88155,70.15609 -84.39492,142.43036 -120.70919,216.81928 -27.72107,40.79754 -40.09424,90.38154 -68.24894,130.09594 -2.10285,1.335 -15.12267,17.1853 -10.34405,0.1353 z m 12.3734,-5.8979 c 32.10278,-72.8383 71.77455,-142.36731 107.68127,-213.65179 32.49354,-55.91869 63.93267,-112.47668 100.33495,-166.00443 47.47892,-72.57676 101.53262,-140.69346 151.77962,-211.43288 49.9276,-65.55851 99.6914,-131.34443 150.804,-196.03044 25.2879,-37.76729 61.4981,-68.41644 81.1514,-109.5471 -23.2787,-1.56437 -71.2269,46.8466 -98.8714,68.91441 -62.8539,54.48052 -115.3064,119.65531 -164.9179,186.13216 -96.9633,123.00552 -173.42674,260.40444 -245.66286,398.89759 -21.66762,52.85173 -51.91798,102.31559 -66.65508,157.72248 -9.13337,26.2181 -12.85333,31.2691 3.9826,10.5876 -6.11382,17.2027 -36.46757,72.529 -19.6266,74.4124 z m 90.2933,-30.7933 c 9.0732,-30.176 31.5451,-60.8527 44.57598,-91.77378 34.3005,-57.41352 63.84331,-117.58522 98.29926,-174.86989 33.4272,-50.28956 65.0247,-101.86673 103.1776,-148.87763 12.7397,-14.34522 49.2716,-60.97548 55.7086,-48.26906 -20.0399,42.35837 -48.8986,79.93293 -72.2369,120.56282 -43.0173,72.03612 -89.1467,142.21573 -126.98206,217.17152 -30.32448,39.6426 -47.71717,92.26152 -93.95408,117.27732 -2.75271,0.3026 -6.75577,14.2152 -8.5884,8.7787 z m 32.7402,-29.4441 c 29.63618,-35.3505 52.94133,-75.84263 75.32213,-115.87605 49.05811,-89.83117 105.37391,-175.4489 157.63561,-263.32236 13.0114,-12.19456 48.372,-80.87653 14.0536,-38.80833 -31.2594,27.39984 -53.1514,64.10979 -78.5465,97.02895 -31.654,50.76595 -67.6382,99.0092 -92.78874,153.55383 -35.00375,59.6252 -68.37797,120.27045 -98.6149,182.26366 7.11368,0.3631 16.76448,-10.2994 22.9388,-14.8397 z M 1176.7313,896.79122 c 1.2401,-39.46878 33.0763,-75.01914 55.8631,-106.2821 38.8238,-55.2712 83.2486,-106.51616 120.5748,-162.78456 10.5237,-19.71574 56.4358,-75.93454 57.3132,-64.56461 -34.7342,26.55583 -53.5477,67.19235 -79.5463,101.41244 -41.5362,56.74128 -86.8736,110.93924 -126.0798,169.17475 -11.2311,12.19639 -39.6824,82.69912 -5.8385,45.71681 46.8613,-52.13182 79.629,-114.89793 116.6146,-174.01951 28.8886,-40.93863 56.371,-83.22084 85.9762,-123.58546 11.6896,-18.25799 39.5474,-50.47924 13.3301,-12.58911 -30.8118,34.14215 -49.0169,77.24989 -80.1796,111.30027 -44.739,70.74216 -83.0803,146.94078 -140.815,208.42357 -4.8533,2.99112 -10.2846,13.49612 -17.2128,7.79751 z m 11.7334,-357.22136 c 30.2387,-50.48731 64.9913,-98.30603 97.4789,-147.28537 9.3287,-16.60749 59.6047,-49.27274 19.6747,-16.86631 -37.3943,38.27188 -59.6707,88.27629 -93.0592,129.94901 -12.6004,18.23481 -21.2578,40.5373 1.5061,13.49827 32.233,-40.62909 78.5622,-69.54981 102.8053,-116.4494 13.7664,-15.292 46.5778,-80.3625 23.8528,-28.44386 -24.0748,36.17954 -47.7621,72.16596 -80.9356,100.99768 -26.1038,17.84765 -42.827,56.07501 -71.323,64.59998 z" />
      <path
         style="fill:#000000"
         id="path1761"
         d="m 1301.9873,384.2118 c 7.0095,-4.17636 13.638,-9.0298 19.6183,-14.58807 2.8503,-2.6492 5.5504,-5.57926 8.2275,-8.40122 2.1207,-1.98698 4.6234,-6.04396 7.3224,-7.45534 0.3901,-0.20396 0.8664,-0.17327 1.306,-0.19538 0.5256,-0.0264 1.1341,-0.23229 1.578,0.0504 0.3485,0.22194 -0.8183,0.11523 -1.2275,0.17285 1.3477,-0.0764 12.1591,-0.1263 5.2767,-0.10501 -0.023,-0.10417 1.0257,0.13171 0.9405,0.0671 -0.3553,-0.26956 -0.8594,-0.30261 -1.2015,-0.58883 -0.9799,-0.81991 -1.1864,-1.30409 -1.7084,-2.23652 -1.3383,3.31698 -2.3876,6.74167 -3.6299,10.09762 -1.0923,3.42467 -2.9269,6.42218 -5.0509,9.28476 -1.0354,1.6733 -2.2769,3.20523 -3.4047,4.81216 -0.3963,0.56461 -0.7296,1.17296 -1.1436,1.72471 -0.5443,0.72544 -3.3281,3.86044 -3.5952,4.16475 -3.9068,4.71691 -1.9296,2.28566 -5.9255,7.29882 -0.4362,0.7275 9.8521,6.89688 10.2884,6.16939 v 0 c 3.7218,-5.28331 1.9882,-2.68752 5.2259,-7.77041 0.5645,-0.90838 2.3075,-3.74304 3.0412,-4.82913 1.5201,-2.25029 3.6037,-4.10296 4.8079,-6.58056 2.1513,-3.61144 4.4863,-7.15681 5.8971,-11.14676 1.5616,-4.17929 2.9863,-8.46609 3.4745,-12.92183 -0.1115,-0.95198 0.012,-1.96216 -0.3345,-2.85593 -0.964,-2.48844 -1.8345,-2.99755 -4.0178,-3.91837 -0.3215,-0.13558 -0.9038,0.2098 -1.2236,-0.0319 -0.9397,10e-4 -1.8795,0.01 -2.8191,0.003 -0.148,-10e-4 -0.5911,-0.0273 -0.4431,-0.0259 0.859,0.008 1.7225,0.13724 2.5768,0.0469 0.3378,-0.0357 -0.6643,-0.14177 -0.9962,-0.21406 -2.0222,-0.44049 -0.7559,-0.19236 -3.1128,-0.60511 -3.9183,0.016 -5.484,-0.39695 -8.8952,0.79189 -5.0676,1.7661 -8.8921,5.71314 -12.7027,9.29869 -1.2747,1.21383 -2.5194,2.45994 -3.824,3.6415 -7.1991,6.51999 -15.1314,12.23537 -21.8289,19.3032 -0.5333,0.5306 6.9706,8.07299 7.5039,7.54239 z" />
      <path
         style="fill:#000000"
         id="path1763"
         d="m 1391.1371,586.80516 c 0.5865,-0.45302 1.2073,-0.86493 1.7596,-1.35907 5.8068,-5.19519 10.9045,-12.15233 15.341,-18.50493 3.276,-4.86701 6.9193,-9.06828 11.6798,-12.52026 0.497,-0.36038 3.9049,-2.49354 4.5282,-2.88565 2.3752,-1.38375 3.94,-1.96788 5.2985,-4.6017 0.2262,-0.43869 0.2429,-0.95685 0.3643,-1.43528 -0.017,0.11079 0.058,0.35755 -0.052,0.33237 -3.2544,-0.74984 -6.3528,-2.31496 -9.6823,-2.5752 -0.6719,-0.0525 -0.7166,1.14282 -1.0333,1.73767 -1.4187,2.66488 -2.2723,5.50941 -3.2197,8.36277 -0.9195,3.84771 -3.1551,7.08811 -5.2257,10.38525 -0.3472,0.7104 9.6994,5.62154 10.0466,4.91114 v 0 c 2.2926,-3.9729 4.6753,-7.95011 5.7884,-12.45153 0.7559,-2.41356 1.3173,-4.88135 2.1582,-7.26519 0.1589,-0.45072 0.901,-1.05734 0.5144,-1.33833 -2.6041,-1.89263 -5.5674,-3.27731 -8.5459,-4.49881 -0.2855,-0.11709 -0.1677,0.59394 -0.2516,0.89092 0.4464,-1.43337 0.032,-0.4072 1.4176,-2.30726 0.048,-0.0652 0.1867,-0.23178 0.1072,-0.21719 -1.4414,0.26472 -3.1695,1.26535 -4.5284,1.65184 -2.2214,1.13305 -3.7823,1.86029 -5.9226,3.29203 -5.7046,3.81594 -10.2659,8.98528 -14.2361,14.53218 -4.5635,6.7005 -9.2043,13.35297 -14.1995,19.74179 -0.4329,0.55812 7.4601,6.68056 7.893,6.12244 z" />
      <path
         style="fill:#000000"
         id="path1765"
         d="m 963.2198,1098.8996 c 1.73069,-6.0125 2.1305,-12.2782 2.83223,-18.4628 0.51146,-4.5077 0.26955,-1.5934 0.45211,-3.9448 -3.94909,0.7805 -7.89818,1.5611 -11.84726,2.3416 -0.68282,-0.6017 -1.34572,-2.3833 -2.04845,-1.805 -1.12216,0.9234 -0.6387,2.8356 -0.93335,4.2587 -1.70082,8.2146 -2.79968,16.4622 -3.87767,24.7785 -0.88829,8.2482 -1.46744,16.5511 -1.41289,24.8521 0.01,1.4793 0.0294,2.9628 0.18088,4.4343 0.0624,0.6058 -0.14736,1.6998 0.45772,1.7687 4.72562,0.538 9.51209,-0.061 14.26813,-0.092 1.49913,-5.7233 0.7808,-2.6285 2.07073,-9.3037 0.11126,-1.1415 -16.0316,-2.7148 -16.14285,-1.5734 v 0 c -0.31362,7.0582 -0.40384,3.8212 0.0585,9.7144 4.66602,0.8799 9.25484,2.4211 13.99806,2.6396 0.71475,0.033 0.68648,-1.2676 0.88882,-1.9539 0.4278,-1.451 0.72146,-2.94 0.99284,-4.4282 1.47579,-8.0929 2.01997,-16.3098 2.85344,-24.482 0.64089,-8.3537 0.84413,-9.961 1.17332,-18.0813 0.0279,-0.6872 0.37746,-10.3962 0.10999,-12.0586 -0.38341,-2.383 0.41079,-6.1534 -1.8492,-7.0008 -3.96463,-1.4866 -8.4025,1.0543 -12.60374,1.5814 -0.44628,0.8875 -0.99091,1.7321 -1.33883,2.6625 -2.66392,7.1244 -2.52294,15.6466 -2.69737,23.1466 -0.0713,1.0193 14.34355,2.0276 14.41485,1.0083 z" />
      <path
         style="fill:#800000;stroke-width:1.45289"
         d="m 185.90158,929.76622 c 0.53743,-1.88865 1.3911,-14.1678 1.89704,-27.28702 l 0.91989,-23.85311 12.95328,-21.91306 c 7.12431,-12.05218 16.81726,-29.85348 21.5399,-39.55844 4.72264,-9.70496 11.93681,-23.43481 16.03148,-30.51078 4.09468,-7.07598 19.88044,-36.0754 35.07949,-64.44316 15.19904,-28.36777 33.97769,-62.6924 41.73035,-76.27696 7.75265,-13.58457 19.21746,-34.17934 25.47736,-45.76618 15.57782,-28.83398 45.47602,-78.59303 75.48167,-125.62277 13.78392,-21.60441 29.83817,-47.12638 35.67611,-56.71548 40.23255,-66.08393 129.03419,-183.58667 169.09384,-223.74574 9.56537,-9.58911 25.81692,-26.75063 36.11457,-38.13673 24.98377,-27.6245 37.78217,-37.87528 43.14796,-34.55903 0.84451,0.52194 1.53548,4.63623 1.53548,9.14288 0,7.9622 -0.59244,9.18208 -20.95004,43.13787 -26.24451,43.77493 -47.12599,76.05034 -65.2978,100.92736 -7.7681,10.63443 -15.99064,23.0217 -18.27233,27.52726 -5.33241,10.52974 -17.80217,29.45446 -39.69286,60.23989 -9.60969,13.51435 -21.52958,31.19594 -26.48863,39.29245 -4.95905,8.0965 -17.84348,28.45075 -28.63206,45.23168 -39.1935,60.9629 -86.5926,136.78609 -91.12301,145.76727 -9.35019,18.53597 -70.10845,117.38194 -93.03102,151.34964 -6.20142,9.18956 -19.62321,29.78434 -29.82619,45.76618 -10.20298,15.98184 -24.92511,37.55732 -32.71585,47.94551 -7.79074,10.3882 -19.25355,27.71396 -25.47292,38.50171 -18.99434,32.94646 -31.58923,49.19843 -42.76128,55.17753 -3.18008,1.70192 -3.33064,1.60097 -2.41443,-1.61877 z"
         id="path1771"
         transform="translate(779.13126,194.39126)" />
      <path
         style="fill:#ff0000;stroke-width:1.45289"
         d="m 360.66551,931.90174 c -4.665,-4.66498 9.32782,-40.2246 45.35632,-115.26296 15.27673,-31.8176 24.61341,-48.97845 40.31421,-74.09761 11.23818,-17.97957 28.15244,-45.11237 37.58726,-60.29512 9.43481,-15.18275 24.16293,-38.06584 32.72916,-50.85131 8.5662,-12.78547 20.65029,-31.41884 26.85352,-41.40749 14.09623,-22.69825 30.36535,-45.66319 70.42164,-99.40484 33.34887,-44.74261 36.84954,-49.76339 47.99416,-68.83484 3.87398,-6.62944 14.48341,-22.6476 23.57648,-35.59592 9.09308,-12.94831 19.06516,-27.74905 22.16016,-32.89052 6.22087,-10.33422 15.21641,-30.10887 15.24481,-33.51224 0.0286,-3.42818 26.64897,-52.48984 51.71903,-95.31873 17.07971,-29.17846 23.16229,-40.85165 24.01799,-46.09327 1.64136,-10.05446 7.42833,-19.08054 15.12523,-23.59122 18.35371,-10.756 32.67131,-2.25162 30.80781,18.29926 -0.5889,6.49456 -3.67173,13.91927 -16.04835,38.6511 -17.55186,35.07332 -26.20152,50.22144 -40.95851,71.7305 -5.75655,8.39046 -20.92285,33.23496 -33.70289,55.20998 -88.83271,152.74609 -82.65056,142.63431 -131.90832,215.75483 -17.76422,26.37003 -49.2675,75.07832 -70.00731,108.24063 -52.88319,84.55865 -103.93336,163.32607 -112.5259,173.62089 -4.00176,4.79455 -15.69034,21.13961 -25.97463,36.32236 -31.23662,46.1148 -47.60059,64.5078 -52.78187,59.32652 z"
         id="path2342"
         transform="translate(779.13126,194.39126)" />
      <path
         style="fill:#ff0000;stroke-width:1.02735"
         d="m 9.7792508,909.61217 c -1.4549119,-1.4549 -1.6939107,-3.04006 -1.2852698,-8.52456 0.5865191,-7.87185 4.640946,-19.19633 16.20521,-45.263 4.386844,-9.88826 7.769075,-18.19686 7.516067,-18.46356 -0.253007,-0.26669 -2.72596,2.04485 -5.49545,5.13676 -2.76949,3.09191 -5.055452,5.21296 -5.079915,4.71343 -0.02446,-0.49951 1.520687,-5.35375 3.433666,-10.78719 1.912978,-5.43342 5.430322,-16.12012 7.816318,-23.7482 7.330713,-23.43646 14.225378,-39.79703 37.233361,-88.35223 7.36304,-15.53869 15.902957,-34.03102 18.977593,-41.09406 10.613368,-24.381 60.630319,-117.63082 95.506029,-178.05802 46.57896,-80.70478 92.98773,-151.61756 137.9542,-210.79453 7.72841,-10.17078 21.60863,-28.43195 30.84493,-40.58038 47.9155,-63.02285 90.29318,-111.85719 126.8083,-146.12884 19.21496,-18.034393 70.71467,-62.300617 84.26497,-72.429373 16.2438,-12.142131 30.63985,-19.787342 37.25986,-19.787342 1.77596,0 -2.07984,7.748175 -9.69116,19.47423 -7.90121,12.172665 -15.44823,21.909983 -36.64236,47.276724 -10.13778,12.13364 -22.3626,27.389811 -27.16629,33.902601 -4.8037,6.51279 -15.9742,21.0876 -24.82333,32.38847 -43.65625,55.75161 -123.85991,160.90065 -145.36234,190.5737 -8.39383,11.58339 -28.91428,39.55303 -45.601,62.15477 -69.59919,94.27038 -107.11611,149.62605 -145.1744,214.20279 -28.41177,48.20863 -47.80861,82.58663 -61.44343,108.89926 -8.051921,15.53869 -21.921134,42.12141 -30.820473,59.07271 -20.653516,39.34044 -43.607037,85.24724 -54.449918,108.89926 -4.662628,10.17078 -8.594597,18.62992 -8.737709,18.79809 -0.143111,0.16816 -1.064468,-0.49852 -2.0474592,-1.48151 z"
         id="path2344"
         transform="translate(779.13126,194.39126)" />
      <path
         style="fill:#ff0000;stroke-width:1.02735"
         d="m 114.05705,864.3868 c 0,-1.03903 27.55601,-54.58963 40.35434,-78.42209 13.08172,-24.36016 36.38223,-66.01465 48.56008,-86.8112 4.63222,-7.91061 11.94026,-21.41105 16.24009,-30.00098 12.81439,-25.59979 23.5177,-43.25842 64.635,-106.63678 22.53087,-34.72915 60.78636,-87.84836 74.72788,-103.7625 10.73082,-12.24913 37.3679,-38.89376 37.74671,-37.75737 1.1563,3.46892 -14.13725,32.34008 -24.17643,45.64024 -3.125,4.14007 -12.34859,18.56813 -20.49687,32.06236 -8.1483,13.49422 -27.6571,45.39348 -43.3529,70.88725 -48.8062,79.27301 -68.64856,112.79257 -100.72153,170.14816 -29.31729,52.42765 -57.67214,95.54571 -73.04881,111.08235 -8.41691,8.50448 -20.46756,16.4944 -20.46756,13.57056 z"
         id="path2346"
         transform="translate(779.13126,194.39126)" />
      <path
         style="fill:#ff0000;stroke-width:1.02735"
         d="m 421.78365,333.67321 c 1.64064,-5.52054 9.49733,-18.47156 19.21828,-31.67954 5.7651,-7.8331 19.67085,-28.46978 30.90167,-45.85928 30.1965,-46.75544 44.93583,-66.28443 50.18799,-66.49696 4.2779,-0.1731 13.69716,-7.20782 25.84553,-19.30259 6.1187,-6.09171 11.5409,-10.81874 12.04932,-10.50451 1.35075,0.8348 -2.56113,10.40881 -6.69188,16.37781 -1.96406,2.83811 -5.8914,7.93405 -8.72741,11.32431 l -5.1564,6.16411 2.51679,2.23087 2.5168,2.23087 -3.57794,4.96059 c -1.96786,2.72833 -6.22779,9.22459 -9.46651,14.43614 -10.33132,16.62459 -22.30765,30.3819 -50.50348,58.01378 -15.01483,14.71452 -30.45534,30.28248 -34.31225,34.59548 -22.90493,25.61347 -26.41469,28.94043 -24.80051,23.50892 z"
         id="path2348"
         transform="translate(779.13126,194.39126)" />
      <path
         style="fill:#ff0000;stroke-width:1.02735"
         d="m 405.44146,694.8319 c -2.75415,-2.75414 2.26919,-20.57431 10.65458,-37.79687 7.33551,-15.06622 30.28546,-47.4789 73.47162,-103.76544 48.33343,-62.9952 68.07344,-89.72556 86.55132,-117.20089 23.24528,-34.5641 31.1151,-44.67064 34.16364,-43.87343 2.69155,0.70386 9.26064,-5.36161 16.09342,-14.85963 3.89296,-5.41145 6.49352,-7.81201 6.49352,-5.99409 0,0.23477 -7.5445,10.98343 -16.76555,23.88592 -9.22107,12.90249 -25.48322,36.17255 -36.13813,51.71124 -10.65492,15.53869 -24.98935,36.34256 -31.85429,46.23082 -13.03685,18.77826 -16.13399,23.70605 -45.52134,72.42828 -28.43482,47.14299 -46.40538,73.92474 -66.54547,99.17353 -16.37647,20.53051 -28.3612,32.30268 -30.60332,30.06056 z"
         id="path2350"
         transform="translate(779.13126,194.39126)" />
      <path
         style="fill:#ff0000;stroke-width:1.02735"
         d="m 186.27166,930.49397 c 0.35305,-0.92004 1.19513,-12.89221 1.87128,-26.60482 l 1.22938,-24.93204 12.22183,-21.06925 c 6.722,-11.58808 16.19523,-28.92849 21.05162,-38.53423 4.85638,-9.60573 13.55928,-26.01767 19.33977,-36.47098 5.78049,-10.4533 21.1415,-38.6541 34.13558,-62.66844 28.96999,-53.53939 75.8817,-137.90046 88.92032,-159.9049 25.58787,-43.18304 84.63326,-137.51966 109.14203,-174.37588 35.21308,-52.95332 86.15821,-120.75912 123.20807,-163.9847 6.05393,-7.06304 21.94242,-24.3996 35.30774,-38.52568 48.36081,-51.11351 57.7327,-60.06459 64.72603,-61.8198 3.32386,-0.83424 4.24216,0.98174 4.26108,8.4265 0.0204,8.05973 -2.47176,13.21908 -22.04031,45.62733 -25.39355,42.05525 -39.23597,63.34504 -70.44369,108.34313 -5.055,7.28875 -10.99296,16.53491 -13.19549,20.54703 -5.16072,9.40072 -17.14186,27.5226 -36.06724,54.55292 -18.82106,26.88129 -18.87053,26.95701 -62.58295,95.77851 -57.76883,90.95213 -77.8253,123.30811 -91.55699,147.70379 -29.45026,52.32128 -115.08857,186.24989 -154.98069,242.37226 -5.59058,7.86512 -15.41809,23.01603 -21.83892,33.66868 -13.95776,23.15701 -22.36726,35.16091 -30.45023,43.46538 -6.52599,6.70482 -13.41956,11.43158 -12.25822,8.40519 z"
         id="path2352"
         transform="translate(779.13126,194.39126)" />
    </g>
  </g>
</svg>
