<svg xmlns="http://www.w3.org/2000/svg" width="821.08" height="1339.992"><g transform="translate(-150.901 -274.316)"><path d="M648.179 1610.69c-42.14-7.473-84.802-21.476-129.52-12.862-53.566-10.04-107.964 1.563-161.608 1.913-.013-2.393-20.837-5.04 4.84-11.345 22.77-1.738 68.296-78.894 51.445-60.168-44.736 48.988 33.169-42.648 13.785-72.05 3.84-37.356 8.776-89.328-39.688-90.903-48.033 26.797-68.956-29.933-95.001-45.972-57.075 16.547-51.35-65.135-74.296-96.184-8.792-30.036 25.277-67.698 11.21-66.64-26.027 9.01-62.507-49.418-40.025-89.727-2.688-57.79-13.97-113.814-34.677-167.578-17.816-45.213 32.131-88.89 62.201-74.234-23.168 18.082 43.403-15.68-4.07-10.488-43.19-7.726-18.247-46.435 7.54-51.135-8.621-42.533 6.985-113.145 21.475-132.887 26.051-55.204 69.814-105.995 121.709-139.561 15.915-8.217 61.143-31.63 25.662-15.585 30.796-29.65 102.06-13.341 86.696-72.98-4.144-39.938 49.447-22.34 49.052-66.287 18.466-55.008 82.46-68.217 133.428-59.016 56.398 5.848 74.4 69.328 52.16 113.94 36.055 8.116 41.704 31.887 26.371 61.261 15.887 28.699 66.057 64.83 91.275 101.238 24.272 34.23 61.26 64.662 74.559 96.082 31.26 1.36 57.392 52.477 13.313 71.522-18.138-6.558-6.64 45.788-19.42 15.09 4.082-24.64-79.256-2.218-50.25-56.291 17.967-25.045 66.416-21.694 26.382-57.72-28.708-43.638-60.251-58.925-90.732-101.554-21.584-12.083-53.073-26.369-60.341-45.47-47.693-.406-97.446-10.499-146.249-11.683-53.709-10.618-112.516-20.408-161.23 12.503-47.305 24.388-84.152 45.957-114.88 77.214-11.773 11.69-41.962 46.769-9.826 14.146 11.486-13.48 49.487-34.276 13.032-7.927-43.043 42.751-73.193 99.123-71.02 161.187-11.011 40.075 9.916 49.57 43.58 54.303 12.533 21.72-23.706 55.576 11.284 56.434 29.24-37.609 78.947-51.85 121.458-61.984 28.623-5.367 88.724 3.836 63.542 51.558 30.731 35.143 72.377 73.998 72.444 123.342 7.092 27.255-11.31 47.19 3.054 74.274-2.434 20.292-29.114 56.47-29.998 37.475-69.683 1.299-12.24 105.136 1.729 62.846-17.808-38.664 42.964-31.088 25.188 9.43 16.456 47.737 66.476 26.762 51.527-19.987 16.37-28.112 48.836-5.599 24.969 8.166 66.929 37.864 62.54-84.847 3.729-68.061-48.914 25.044-12.905-49.855-11.306-76.602-9.652-36.085-28.701-70.93-1.383-101.767 10.098-40.302 23.477-101.993 67.814-127.718 26.828-24.379 12.973 20.67 37.143-6.013 30.161-19.652 30.932 17.56 62.363-7.332 13.329 20.707 15.09 23.057 40.987 10.476 10.913 20.5 19.12 24.319 45.726 18.076 44.939-28.582-13.643 21.217 19.178 41.693-27.996-1.008-8.308 43.548-45.715 16.694-30.723-34.869-86.883-18.775-128.825-13.45-38.455 2.83-95.835 52.016-90.999 69.5 32.926-36.09-48.604 52.618 1.875 74.049 12.797 26.455-41.153 101.161 5 95.237 55.676-18.123 74.138 93.87 12.198 87.982-35.642-19.687-37.094 6.567-53.698 30.9 19.949.972 52.947-9.345 75.892-6.792 43.463-19.794 71.145-68.05 123.12-63.173 17.329-25.057 49.003-61.86 54.803-97.698 8.75-40.3 71.734-18.197 56.115-63.52-4.368-24.43 12.174-109.755-4.863-44.936 8.85-23.986-12.943-76.177 17.722-80.887 56.722-.703 32.9-56.437 2.847-55.98 17.706-17.533 50.544-36.036 55.534 9.709 11.191 55.014-18.242 108.65-11.907 164.359-1.947 45.878 40.408 111.194 2.646 145.8-31.61 5.688-59.247.891-43.69 42.654 14.761 53.428 31.082 119.994-22.235 160.535-38.36 17.937-10.655 84.198-72.893 78.981-1.973 29.67-73.419 49.92-71.058 29.646 35.958 17.072 63.212-51.128 65.789-38.83 29.524 12.434 63.726-22.185 51.331-57.237 12.36-3.46 43.25-26.424 24.061-17.747 43.201-20.036 3.835-85.556 12.059-86.336-19.637-12.3 29.737-4.065-.17-33.54-29.205-12.983 12.452-40.843-6.476-68.376 2.244-3.164 20.857-81.315 22.26-28.976 4.62 41.811 73.189 12.182 47.545-25.395-7.282-54.298-24.104-108.261-11.999-163.578 7.875-40.69 27.587-100.545-13.505-128.217-48.816 17.5 50.013 29.746 2.748 60.004-25.302 16.364-51.438 16.407-32.997 52.639-2.749 23.594-5.935 32.817 15.065 21.061 25.059 37.976-8.168 83.12-6.591 112.318 20.169 23.58-4.548 94.861 3.446 28.65-5.648-69.602-99.033-35.294-80.52 24.243-21.262 5.198-40.682 45.514-49.867 75.631-21.432-28.808-65.128 7.03-68.864 19.655-20.438-5.365-63.021 54.909-100.532 33.825-39.515 17.836-84.314 4.03-120.103-14.732-39.613 8.688-61.068-18.431-97.582-17.445-28.554 11.423-43.122 29.926-35.326-13.875 8.573-50.574-65.648 4.122-33.145-37.387 10.05-32.61-55.445-68.854-40.018-66.123 13.396-37.126-89.138-8.13-61.587 34.415 39.327 23.856-45.384 55.483-4.584 97.32 16.52 18.07 43.671-6.108 12.547 20.88-38.24 42.407 5.215 88.49 11.728 130.902 2.056 38.822 86.896 11.524 65.527 34.829 9.797 43.828 67.026 41.705 81.147 22.031 26.942-.105 38.32 28.141 57.404-15.079 8.132-25.862-39.546-30.014-1.502-47.927-3.24-30.637-10.95-48.616 25.166-60.225-5.855-49.854 22.485 3.637 46.879-22.995 31.067 15.208 63.95-4.63 92.504-15.179 26.275 18.809 49.764-22.471 56.527 23.977 37.35 10.006 4.967 56.99 33.089 65.424 19.953 23.032-20.816 21.027 17.456 33.875 16.224 3.565-5.535 54.253 18.11 60.14-7.794 13.913-62.853 14.137-79.306 41.968-13.716 21.981-47.173 32.198-9.752 8.342 10.506-17.536 28.504-39.696-.41-8.082-13.447 15.897-44.178 40.435-4.153 22.464-20.11 23.666-69.591 26.403-76.56-4.459-39.243 40.72-63.816-7.156-91.333-23.339-39.73-22.765-28.59-4.52.654 14.648 37.582 48.335-75.045-66.09-41.165-4.08 1.21 29.5 51.175 65.32 54.468 54.238-29.757-.839-75.486-56.133-54.496-27.678-2.287 29.934 85.646 69.266 22.267 44.732-21.948-20.5-38.178-49.035-22.967-2.341 5.758 27.283 87.838 81.451 24.426 47.627-27.029 14.819-46.881-46.22-11.978-7.1 15.257 14.493-28.96-64.217-24.48-17.272-.775 38.266-102.193 91.237-21.288 82.464 54.634-17.379 108.433 6.985 164.795-6.166 47.342 8.477 95.304 31.266 142.225 9.094 30.125 3.548 32.204-.021 8.702-24.772-29.188-49.587-46.74-106.63-43.107-164.713 25.19 13.963-.344 64.468 18.863 89.269 16.932 35.092 24.591 82.333 63.929 103.15 11.016 20.106-56.64-10.134-74.334 10.47-13.292.15-27.881 9.389-40.22.849M614.345 1440.5c-5.276-.357-5.406 4.567 0 0m-53.951-4.847c35.61-13.55-21.426-90.165 16.447-67.465-1.368 29.45 4.622 25.817 22.504 8.73-51.38 33.133 13.361 94.618 39.101 39.901 2.31-47.149 78.89-28.417 84.211-65.796 18.24-41.55-26.89-37.872-35.532-71.909-20.252-26.602-36.162-65.106-69.776-31.64-29.57 14.054-72.522 5.541-94.716 8.13-2.01 19.807-44.685 95.19-20.07 39.049 25.59-29.977 19.884-75.38-17.218-76.705-9.248 22.6-41.261 24.26-22.985 56.652-11.738 22.244-24.873 23.922-1.03 40.913 14.4 26.955-59.357 53.461-6.648 56.54-2.024 7.287 52.958 17.061 66.725 42.35 3.524 18.953 20.713 27.759 38.987 21.25m-29.049-17.524c12.36-17.828 4.992 3.146 0 0m19-11.615c6.586-11.631 6.055 3.396 0 0m59.465-5.63c4.595-13.364 11.54-.481 0 0m-85.798-20.61c-.635-16.486 14.699-2.48 0 0m125.333-18.26c6.683-14.17 8.51 4.775 0 0m-140-7.398c9.059-36.158 6.57 23.301 0 0m-39.873 1.978c-12.412-21.543 18.388-4.723 0 0m67.873-7.185c-9.376-13.151 17.595-1.9 0 0m148.981-2.482c-6.192-12.107 19.159.484 0 0m-49.736-1.235c-5.347-20.264 15.76.164 0 0m-47.03-1.037c-8.32-20.277 18.304-3.581 0 0m100.202-10.255c16.313-12.607-11.185 12.47 0 0m-200.024-4.04c3.386-17.15 14.898-5.372 0 0m46.607-11.88c9.573-13.725 4.433 2.278 0 0m44-3.329c8.743-15.224 6.228 2.712 0 0m69.667-7.876c-1.913-14.881 16.8-8.18 0 0m-8.748-8.22c27.852-27.872-4.708 10.223 0 0m-100.919-2.809c13.083-36.173 4.345 19.313 0 0m51.734-6.429c5.368-2.979-2.437 3.074 0 0m-28.734-7.253c3.38-4.057 4.729-2.762 0 0m9.256 145.878c1.069-4.938-12.586 15.58 0 0m90.647-33.931c-4.292 3.488-2.821 5.448 0 0m22.097-.57c20.793-13.58-29.889 12.259 0 0m34.105-23.627c19.566-11.911-31.129 10.345 0 0m-35.105-115.891c23.75-38.111-62.676-64.313-17.977-15.862 4.674.79 18.082 32.849 17.977 15.862m-107.5-4.996c21.795 8.885 104.972-33.413 43.552-19.442-26.638 4.723-118.287 22.011-43.552 19.442m-35.5-8.976c-3.799-30.354-48.25-41.302-16.647-8.95 13.008.28-2.06 18.78 16.647 8.95m25.358-4.609c10.448-.942 31.185-25.656 20.102-27.381-17.421-4.154-39.927 15.488-46.894 14.594 17.316-20.743 40.442 8.122 23.434 5.587-15.328-26.853-24.102 25.284 3.358 7.2m25.642-4.8c31.044-21.52-34.917-13.728 0 0m17.885-4.008c-8.213-25.243 41.121-30.358-1.885-31.092-32.254 22.241 5.325 1.498-.53 31.258zm18.413-3.773c26.144-26.802-41-.596 0 0m21.297-8.87c30.736-39.113-30.53-12.826-4.767 4.377zm274.038-14.795c-1.403-24.96-5.842 29.12 0 0m-10.115-23.08c27.924-4.894-23.442-66.574.118-15.047 5.724 3.2-11.332 19.96-.118 15.048m-375.518-20.574c29.004 4.07-10.31-55.526-27.27-21.488-20.711-.637 27.706 20.656 27.27 21.488m-313.449-5.75c-33.98-36.895 16.708-80.639.82-123.067 22.63-22.356 8.231-106 2.895-39.564 9.77 48.74-25.622-32.946 10.392-37.746-10.249-31.898 4.229-90.795-45.122-73.107-5.008 27.046 27.838 122.357 6.509 110.653-.664-51.852-26.074-97.89 1.513-144.703-38.853-45.682-54.46 54.737-32.443 82.445 20.749 48.12 28.4 104.45 23.412 156.339-7.283 20.856 3.396 74.038 32.024 68.75m153.164-16.6c31.968-32.907 63.395 1.098 93.997 2.334 42.94 9.015-28.399-40.304 4.742-65.923 19.178-28.495 81.095-10.654 50.672-63.742-2.471-52.337 11.663-106.307-33.09-147.197-26.82-52.229-94.25-48.61-141.576-30.143-46.05 21.688 82.605-19.68 8.122 5.272-26.574-2.422-73.867 59.783-49.92 41.68-25.083 31.82-74.412 71.77-54.269 5.478-19.752-17.106-2.073 73.74-7.827 97.36-10.423 36.074 49.398-16.864 58.368 22.018 18.908 12.156 41.363 60.414 30.723 83.92 49.614-26.036 24.79 54.841 40.058 48.943m42.285-75.16c-3.021-30.55 25.277-89.92 22.044-86.855-21.344 7.073-64.772 86.037-31.715 27.539 19.448-26.321 63.436-45.872 5.008-40.221-47.745 2.252-26.823 77.44-72.837 57.035-40.093-8.315-2.154-12.532.109-10.222-3.206-33.275-96.804-22.037-51.712-33.953 23.314.272 51.043 15.995 61.766 27.548-10.91-48.527-21.629-120.002 28.837-148.32 55.298.355 76.215 63.728 82.53 107.763-33.371 21.427-31.077 80.062-44.03 99.686m-52.695-62.49c8.298-17.686 55.112-55.944 87.695-43.928-3.202-23.964-25.593-99.451-41.983-46.928-50.261 6.517 12.914-61.609-39.737-48.392-33.81 39.45-24.086 97.89-12.138 144.486 2.008-1.8 3.742-3.92 6.163-5.239m46.695-96.5c-2.45-4.89-5.48 5.873 0 0m-10-32.55c-5.393-3.379-7.45 8.618 0 0m498 260.49c-1.99-23.282-11.178 8.334 0 0m-286.5-17.033c32.238-17.762-23.564 5.211 0 0m-91.5-9.636c-4.396-7.527-4.858 13.848 0 0m-43.818-25.201c-.459-10.77-1.654 11.974 0 0m4.946-11.32c3.733-4.567-6.735 5.433 0 0m9.007-2.711c8.453-5.246-12.675 4.62 0 0m415.823-99.338c31.177-20.139 4.383-137.08-8.958-61.809 9.929 15.198-12.291 61.873 8.958 61.81m-669.46-81.952c-8.84-.516 3.097 67.598.363 14.923l-.034-6.9zm30.53 29.084c31.416-40.524 64.023-88.018 119.015-99.864 28.392-19.8 104.585 32.255 70.78-25.803-26.21-16.051-53.04-1.668-76.763-2.277 2.985 21.325-53.699-10.742-42.213 25.82-22.182-8.978-47.771 15.368-55.633 31.748-5.951 12.06-48.51 44.782-10.852 30.729-7.375 6.818-36.71 46.41-4.334 39.647m29.51-30.405c6.208-12.433-10.78 12.109 0 0m-31.538-3.929c-2.563-3.703-3.844 3.586 0 0m-23.231-2.547c46.65-18.768 18.37-72.749-23.269-45.336-31.618 16.37-19.905 61.787 23.269 45.336m23.981-15.909c20.636-26.342-30.286 23.564 0 0m381.619-30.935c47.953-31.682 112.744-48.08 168.823-31.256 27.98 4.459 41.012 37.961 39.418 10.647 41.301-15.725-48.584-24.092-.7-35.994-15.45-16.27-42.3 11.92-38.637-21.52-26.158.661-36.647 16.754-47.26-12.428-33.065 26.074-39.316-17.437-70.72 13.42-28.391 34.262 7.589-34.611-28.293-.431-33.094 10.874-55.098 114.184-47.344 99.17 7.357-8.142 15.952-15.049 24.713-21.608M332.819 843.34c-.853-3.498-21.583 19.506 0 0m37.526-20.9c7.061-8.89-9.41 9.027 0 0m-117.486-9.405c65.03-28.199-53.34-65.811-58.383-21.779 10.541 20.375 37.744 25.202 58.383 21.779m616.861-35.22c17.664-52.346-30.528 9.89 0 0m26.191-61.98c37.685-9.443 32.42 6.646 35.125-39.52-4.028-20.578-39.147-14.731-58.895-6.8-25.075 10.853-14.626 65.017 23.77 46.32M854.083 691.4c6.65-52.338-12.32 24.935-.23 12.384zm-600.59-75.806c6.538-16.323-11.425 20.376 0 0m17.29-22.104c24.979-30.938 3.645-12.01-5.78 8.13zm53.284-66.389c26.184-28.644-45.253 38.65-8.716 7.342zm24.778-21.194c24.157-16.014 92.394-49.457 27.167-18.458-11.456 2.395-65.93 42.716-27.167 18.458m-.5 4.482c-7.884 2.184-8.086 6.047 0 0m9-5c-7.884 2.184-8.086 6.047 0 0m5-3.019c-5.237.889-5.471 4.805 0 0m404-6.382c-16.202-25.922-45.027-24.537-7.722-.7l5.734 1.506zm-47.56-24.95c-9.769-8.97 36.8-41.187 9.422-65.47-34.625-8.375-59.613-21.802-103.362-24.144-43.378 6.19-130.443-32.05-144.092 23.147-13.752 63.595 75.787 40.466 113.931 54.136 41.39 2.346 83.886 6.025 124.1 12.331m-273.44-14.305c37.093-21.342-67.885 30.049 0 0m258.222-72.543c23.93-46.97-64.96-11.995-89.779-30.256-26.357-3.67-106.782-19.802-90.391 17.457 59.633-2.07 120.519 3.203 178.304 15.933zm-.286-29.091c23.931-23.454-29.097-74.014-60.942-71.59-41.025-12.586-113.32 14.268-105.542 56.431 55.835 1.04 110.79 16.664 166.484 15.159M432.345 1581.75c-27.986 4.446-45.94-39.867-14.366-11.258 12.194 2.782 47.857 10.989 14.366 11.258m14.909-9.793c-35.935-2.68-32.989-66.334-12.127-14.829 8.145 7.596 42.476 13.845 12.127 14.83m12.435-7.059c-28.71.579-48.388-64.025-16.925-20.342 2.491 11.573 50.575 18.134 16.925 20.342m318.656-235.644c8.535-19.09-19.857-26.546-6.92-51.395-18.604-6.058-36.054 6.5-4.026-9.612 21.694 7.332 1.388 37.449 21.709 48.54.79 5.183-6.139 12.662-10.763 12.467m-406-50.77c22.465-25.224-10.936-72.74-35.037-53.475 32.518-38.156 68.726 35.37 35.037 53.475m-67.049-14.638c-10.36-17.587-35.992-10.371-1.534-16.759 10.86 4.664 20.1 43.7 1.534 16.759m509.202-8.204c60.471-35.124-4.314-91.89-41.38-75.737 32.333-29.885-59.228-1.929-4.6-20.384 32.515-5.093 2.405 27.418 40.259 15.32 71.998 3.535 16.477 87.699 5.72 80.8m-406.1-21.453c36.66-25.088-10.571-62.104-29.803-54.48 48.007-21.388 67.021 42.846 29.803 54.48m-143.053-37.965c37.375-19.62 46.027-66.188 12.005-90.293 33.662-19.082 5.65-72.378.697-64.11 48.323 21.322-16.967 65.395 27.322 89.851 12.058 29.435-21.472 48.986-40.024 64.552m552-82.038c4.803-29.154 65.417-43.014 14.484-19.23-5.334 2.49-7.69 19.944-14.484 19.23m-265-58.68c21.35-17.16 50.257-3.491 11.043-1.446 1.411-4.498-17.766 8.842-11.043 1.446m4.042-9.112c35.081-17.785-16.872-3.593 24.353-16.439 6.093 10.845-19.986 11.92-22.98 17.601l-4.968 3.196zm147.916-4.656c-10.81-49.288-71.603-75.48-42.185-128.879 10.229-44.326 71.315-108.495 108.124-51.692 9.228 33.546-1.078 135.955 44.655 67.293 20.607-13.33 70.163-43.457 21.757-10.406-24.574 7.97-66.44 58.463-12.788 23.535 21.9-11.39 64.874-26.82 18.383-4.22-22.199 7.78-61.897 26.005-13.98 19.142 25.357-5.911 57.516-16.348 13.247 2.733-44.748 3.936-70.218 20.85-108.926-5.174-18.299-8.91-87.224-5.823-40.1 15.482 20.82 13.749 29.45 56.548 2.358 15.387-15.92-25.542-42.495-28.875-10.089-2.202 2.11 12.213 40.61 65.64 19.544 59m69.548-87.886c-2.058-41.53-1.6-133.39-67.316-103.453-32.183 24.274-78.274 129.81-5.19 94.494 35.314 11.338 11.887-67.3 55.78-34.955 14.692 17.737-9.91 60.459 16.726 43.914m-97.506-28.306c.456-2.685 5.914.897 0 0m78.02 22.87c3.166-6.988-6.785 5.98 0 0m-3.325-3.266c19.906-28.896-24.9 8.68 0 0m-8.695-13.21c-1.21-3.657-2.466 3.562 0 0m-3.376-1.766c1.859-10.361-6.77 1.911 0 0m-5.417-14.954c32.17-22.301-29.934 16.11 0 0m-194.79-102.034c-1.168-23.686-38.35-66.977 2.781-26.877 8.575 3.356-.057 53.191-2.78 26.877m26.583 5.81c-3.354-27.8 72.462-84.736 20.406-34.483-9.797 3.223-13.95 45.326-20.406 34.484m-20.637-95.807c-19.435-36.27-58.151 17.455-84.577-15.074-26.488 8.041-47.874 13.978-8.745-2.925 29.972-.433 54.315 16.75 84.02-2.35 24.196 41.402 61.711-24.143 89.021 8.77 20.832-13.08 100.492-41.815 92.418-26.023-49.92 3.502-91.055 39.162-133.652 25.414-12.09 2.525-26.565 21.944-38.485 12.188m-143.363-50.582c39.093-36.421 87.12 2.85 129.55-17.376 31.372 7.844 57.329-41.084 93.057-6.801 18.77 11.214 105.557-27.108 48.72.224-48.218 21.491-96.272-25.712-136.428 16.454-32.284-1.376-62.435 6.126-95.671-4.663-12.598 2.853-26.754 15.021-39.228 12.162" style="fill:#000"/><path d="M604.804 1437.472c-12.895-3.2-22.997-15.277-23.87-28.536-.686-10.404 2.506-17.045 12.426-25.852 3.212-2.852 5.988-5.564 6.17-6.027.659-1.69-4.05 1.55-8.868 6.103-6.994 6.607-8.716 7.383-11.098 5.002-1.624-1.625-1.939-3.21-2.238-11.294l-.348-9.404-3.778-1.829c-2.078-1.006-5.059-1.829-6.623-1.829-5.235 0-4.967 4.004 2.016 30.11 4.214 15.755 4.42 25.759.679 32.922-2.098 4.016-3.367 5.25-7.647 7.439-4.296 2.197-6.267 2.637-12.09 2.703-13.557.154-23.048-6.885-26.831-19.898-3.28-11.28-17.258-21.417-46.213-33.51-13.694-5.718-17.835-7.764-20.315-10.032-1.19-1.09-4.173-2.069-7.916-2.599-5.935-.84-10.624-2.626-11.772-4.483-1.366-2.21 1.07-5.994 10.454-16.231 11.337-12.37 14.606-17.092 16.076-23.22 1.605-6.69.137-10.763-5.403-14.988-6.305-4.808-9.335-9.403-8.716-13.217.268-1.648 3.558-7.667 7.311-13.375l6.824-10.378-2.425-5.28c-2.829-6.158-3.669-13.926-2.04-18.861.807-2.445 4.403-6.68 12.486-14.701 6.244-6.197 12.136-12.774 13.093-14.617 1.671-3.218 1.884-3.328 5.366-2.796 14.627 2.235 24.658 12.361 27.552 27.813 2.534 13.527-2.786 32.383-12.634 44.775-2.376 2.99-9.943 20.434-9.943 22.922 0 8.251 21.025-32.162 26.969-51.839l1.968-6.516 30.697-.01c33.459-.01 42.055-.772 55.178-4.917 5.293-1.673 8.587-3.367 11.582-5.96 2.303-1.993 5.153-4.256 6.335-5.03 3.971-2.603 1.52-2.119-7.436 1.467-11.634 4.658-25.045 8.086-32.05 8.192-11.203.17-36.857-.982-38.164-1.713-3.51-1.964 19.818-7.876 65.811-16.68 22.333-4.276 26.515-4.623 26.515-2.202 0 .452-2.503 2.44-5.562 4.417-7.101 4.59-7.254 4.775-2.584 3.127 11.324-3.995 21.345.405 32.22 14.148 8.6 10.87 20.28 28.127 21.931 32.407 3.48 9.018 7.67 14.001 20.932 24.897 13.98 11.486 17.551 16.783 17.551 26.032 0 5.028-5.047 21.61-8.063 26.489-4.055 6.56-13.115 11.287-33.602 17.53-8.225 2.506-17.104 5.36-19.73 6.344-5.708 2.135-14.523 7.311-17.852 10.482-3.527 3.36-7.866 12.06-8.506 17.054-1.074 8.389-8.99 18.907-17.51 23.265-4.84 2.476-11.522 3.37-16.315 2.18zm-67.643-22.605c2.48-4.63.932-5.426-2.747-1.412-3.572 3.898-3.89 5.42-1.051 5.016 1.249-.177 2.701-1.555 3.798-3.604m17.035-8.432c1.784-1.784 1.838-4.879.085-4.879-.73 0-2.013 1.046-2.85 2.324-1.297 1.978-1.333 2.444-.246 3.132 1.616 1.022 1.363 1.07 3.01-.577m59.326-5.914c3.496-1.593 4.216-6.155.97-6.155-1.458 0-4.955 4.209-4.955 5.963 0 1.499 1.01 1.547 3.985.192m-86.197-20.94c2.569-1.073 3.117-1.773 3.117-3.984 0-3.171-2.98-4.703-5.074-2.608-1.335 1.334-2.794 7.895-1.756 7.895.327 0 1.998-.586 3.713-1.303m127.505-18.095c1.073-2.797.584-4.87-1.148-4.87-1.636 0-4.598 3.454-4.598 5.36 0 1.526 5.141 1.087 5.746-.49m-140.552-3.1c1.118-2.089 1.666-14.767.68-15.754-1.263-1.267-3.18 1.489-4.63 6.66-1.154 4.11-1.255 5.838-.476 8.074 1.134 3.254 3 3.683 4.426 1.02m-40.661-3.17c4.087-2.862.965-9.386-4.492-9.386-3.384 0-3.958 1.868-2.084 6.775 1.66 4.348 3.215 4.966 6.576 2.611m68.568-6.721c3.742-2.003.927-5.361-4.494-5.361-2.964 0-3.52 1.386-1.825 4.553 1.024 1.913 3.63 2.247 6.32.808m151.313-2.696c1.295-1.32-2.48-4.463-5.362-4.463-2.629 0-3.43 1.254-2.69 4.206.523 2.081.896 2.255 3.827 1.78 1.787-.29 3.688-.976 4.225-1.523m-51.645-1.268c1.617-1.949.785-5.042-1.892-7.033-3.225-2.399-4.359-1.386-4.359 3.891 0 4.293.086 4.441 2.587 4.441 1.422 0 3.071-.584 3.664-1.299m-47.164-1.748c2.48-2.48 2.198-5.256-.744-7.317-4.553-3.19-7.61-.186-5.979 5.874 1.15 4.268 3.412 4.754 6.723 1.443m99.268-9.898c1.565-1.678 1.805-2.335.85-2.335-1.635 0-7.973 5.683-7.973 7.148 0 1.262 3.936-1.398 7.123-4.813m-199.537-4.662c4.114-3.461 3.535-8.997-.703-6.729-1.374.736-4.62 6.796-4.62 8.625 0 1.19 2.87.168 5.323-1.896m46.753-12.228c.745-1.33 1.064-2.71.71-3.065-.74-.74-3.991 1.973-5.303 4.424-1.505 2.812 3.007 1.477 4.593-1.359m43.197-1.623c2.067-2.068 2.399-5.393.538-5.393-1.429 0-5.143 5.384-4.468 6.477.727 1.176 2.029.817 3.93-1.084m70.781-10.226c1.113-.975 2.023-2.738 2.023-3.92 0-1.877-.364-2.111-2.89-1.865-2.403.234-3.102.843-4.153 3.618-.696 1.835-1.009 4.004-.696 4.82.613 1.598 1.15 1.348 5.716-2.653m-109.244-8.203c1.711-5.012 2.127-13.03.675-13.03-1.21 0-6.252 10.632-6.253 13.184-.003 6.27 3.416 6.175 5.578-.154m101.692-.38c4.511-4.729 6.106-7.257 4.577-7.257-.84 0-10.376 9.283-11.29 10.99-1.854 3.463 1.772 1.448 6.713-3.733m-53.548-6.19c.22-.657-.192-.858-1.067-.522-.783.3-1.423.941-1.423 1.424 0 1.181 2.042.442 2.49-.902m-28.538-7.83c1.737-2.092.498-2.487-1.361-.433-.898.992-1.214 1.803-.704 1.803s1.44-.616 2.065-1.37" style="fill:#ffd5d5;fill-opacity:1;stroke-width:.89881"/><path d="M375.353 1591.986c6.762-3.029 12.41-7.474 17.32-13.007 1.535-1.728 2.914-3.588 4.37-5.381 4.711-5.9 8.804-12.25 13.174-18.395 1.144-1.607 2.343-3.174 3.493-4.776a50.8 50.8 0 0 0 5.476-10.275c.294-.632.543-1.287.883-1.896.436-.782.983-1.497 1.44-2.268 2.285-3.86 4.47-7.802 6.56-11.772 1.395-2.655 3.055-5.41 3.132-8.505.038-1.56-.362-2.027-.964-3.598-.304-.513-7.56 3.783-7.256 4.296-.145-.54-.3-1.078-.434-1.622-.032-.131.06-.341-.061-.4-.1-.049-.11.193-.165.29-.206.369-.4.745-.618 1.108-.87 1.449-1.834 2.84-2.679 4.304-3.288 5.553-6.505 11.227-8.648 17.334-1.036 2.998-2.358 5.466-4.688 7.685-2.485 2.554-5.024 5.082-7.337 7.794-3.988 4.675-7.478 9.736-11.223 14.6-1.385 1.911-5.033 7.11-6.834 9.014-.946 1-2.063 1.826-3.132 2.695-2.637 2.142-5.5 4.006-8.002 6.316-.457.438 5.736 6.897 6.193 6.46M687.954 1405.967c-.346-4.37-1.334-8.65-1.835-13.004-1.065 2.714.241-2.658-.102-2.062-.692 1.204.72 2.247-1.978 2.842-4.365.963-4.202-2.291-4.131.183 1.495 9.124 2.192 18.347 2.94 27.556.51 5.595.36 11.303 1.888 16.758.203.727.513 1.42.769 2.13.121.643 9.21-1.073 9.089-1.715-.278-5.895-.852-11.77-.922-17.671-.22-7.403-.731-14.714-2.372-21.959-.348-1.535-.706-3.073-1.192-4.57-.434-1.334-1.043-2.606-1.564-3.909-1.922-3.195-2.128-4.835-7.335-4.899-2.088-.026-3.45 2.582-4 4.145-.44 1.252-.367 2.46-.402 3.758.2 4.772.966 9.489 2.514 14.021.114.61 8.747-.993 8.633-1.604M234.282 1045.464c.209-5.175-.991-10.454-.594-15.61.063-.823.254-1.632.38-2.448.223-.709.386-1.44.668-2.127.913-2.224 3.022-5.113 4.785-6.785 3.078-2.657 4.914-6.348 6.706-9.924.956-2.686 2.267-3.07 4.41-4.608.492-.354 3.062-2.25 3.647-2.68 1.623-1.237 3.683-2.279 5.173-3.672.916-.857 1.073-1.173 1.721-2.112l.223-.359c.332-.5-6.74-5.202-7.073-4.702l-.353.328c-2.093 1.246-4.206 2.47-6.263 3.78-2.804 1.956-5.794 4.013-7.89 6.759-.596.78-1.567 2.625-2.096 3.599-.628 1.131-1.267 2.257-1.888 3.391-.928 1.694-1.64 3.385-3.313 4.491-3.92 3.684-6.834 7.95-8.207 13.226-.22 1.212-.53 2.41-.659 3.636-.584 5.542.447 11.673 1.763 17.054.087.626 8.948-.61 8.86-1.237M892.12 721.69c-.338.772-.74 1.52-1.015 2.317-1.384 4.015-2.088 8.644-1.34 12.862.161.906.497 1.772.745 2.658.983 1.68 1.786 3.7 3.96 4.322 1.708.487 3.547.202 5.323.234.417.008 1.663-.104 1.246-.115-2.353-.066-1.188.488-2.436-.278-.147-.136-.247-.457-.442-.408-.163.04.1.32.134.485.056.262.092.528.137.793.34 1.995.57 2.733 1.415 4.629 1.666 2.536 4.25 4.494 7.417 4.517 1.264.009 2.524-.137 3.787-.206 3.046-.196 6.054-.725 9.112-.714-3.172-.078 1.435-.075 1.973-.026 1.438.15.366.055 3.228.096.581-.15-1.544-8.369-2.125-8.219 1.883.043 2.39-.024 1.535.07-2.328-.13-4.569-1.168-6.97-.579-3.253.113-6.51.343-9.706 1 1.837.058 1.732-.168.944.275-.19.107-.297.368-.512.407-.573.103-.208-.345-.472.07-.485-.595-.671-2.518-.846-3.196-.556-2.164-1.337-3.991-2.913-5.642-3.196-1.94-1.738-1.567-6.377-1.471-.483.01-1.84-.04-1.432.218.798.506 1.938.17 2.765.626.382.212.356.799.535 1.198l-.196-.06c-.942-4.33.36-8.778.945-13.077.197-.596-8.221-3.382-8.418-2.787" style="fill:#000"/><circle cx="929.816" cy="697.839" r=".275" style="fill:#000;stroke:#000"/><path d="M931.603 705.502c3.332 2.702 6.657 5.4 9.47 8.658.129.17.31.313.387.513.073.19.03.405.046.608.031.394.05.788.098 1.18.164 1.356.34 2.62.366 3.99.058 2.374 1.17 4.51 1.58 6.812 0 .822.168 1.633.28 2.444.068.609 8.68-.353 8.611-.962a35 35 0 0 1-.22-2.598c-.292-2.072-1.078-4.016-1.216-6.104-.291-3.53-.403-7.142-1.901-10.423-.395-.647-.75-1.32-1.184-1.941-2.681-3.849-6.31-6.751-10.516-8.784-.467-.41-6.268 6.197-5.801 6.607M728.409 1377.574c2.79 1.06 5.463 2.4 8.22 3.537 1.667.687 3.72 1.394 5.404 1.995 4.995 1.398 10.201 2.043 15.382 2.126 1.278-.026 2.557-.016 3.833-.079.416-.02-.862-.202-1.25-.049-.367.145.79.046 1.184.075 2.203.163 2.946.332 5.725.15.84-.055 1.655-.312 2.482-.469.904-.292 1.802-.603 2.712-.875 1.818-.544 4.086-1.05 5.852-1.69 1.668-.603 4.81-2.062 6.33-2.94 1.098-.635 2.126-1.384 3.188-2.075 5.428-3.976 10.63-8.247 15.7-12.669 5.016-4.128 9.543-8.885 12.55-14.705.548-1.06.95-2.188 1.424-3.282.904-2.963 1.878-6.494.574-9.526-.268-.623-.325-2.01-.966-1.79-2.67.915-4.755 3.043-7.132 4.564 1.515 3.183 4.211 5.735 7.47 7.13 1.157.494 2.353.977 3.601 1.127 2.094.251 4.218.043 6.327.064 1.214-.36 2.487-.56 3.641-1.08 3.568-1.607 6.109-4.496 8.688-7.31 6.868-7.489-2.548 2.713 4.438-4.845.706-.649 1.393-1.318 2.117-1.946 1.943-1.686 2.293-1.951 4.369-3.225 1.418-.87 2.928-1.585 4.339-2.467.74-.463 1.433-.997 2.15-1.496 5.401-4.423 8.217-10.119 10.77-16.45 1.218-3.956 2.283-7.976 3.747-11.851.93-2.403 1.84-4.85 2.305-7.394.338-1.844.3-2.357.384-4.197.133-1.595.154-3.2.345-4.79.022-.191.222-.719.106-.567-2.43 3.179 6.025 1.03-7.494 1.056-.148-.05-.39-.298-.444-.15-.225.62-.162 1.31-.215 1.97-.18 2.233-.163 4.48-.354 6.714-.29 3.376-.561 4.053-1.309 7.43-2.108 7.188-5.003 14.13-7.832 21.061-.852 2.816-2.063 5.464-3.313 8.113-.941 1.994-.25.789-1.033 2.082-.882.63-1.763 1.368-2.821 1.686-.645.194-1.324.243-1.986.369-.364.026-.728.084-1.093.077l-1.388-.127c.176-.044.707-.104.528-.133-.67-.112-1.355-.082-2.033-.118-1.879-.1-1.83-.09-3.605-.149 1.819 1.017-2.198-.527-1.893.025.687 1.244 1.793 2.224 2.476 3.47.285.52-.144 1.458.379 1.738.619.332 1.395-.211 2.062-.431 1.214-.4 2.374-.949 3.56-1.423 9.245-4.816 16.946-12.028 23.034-20.444 1.211-1.674 2.277-3.448 3.415-5.172.895-1.594 1.852-3.154 2.684-4.782 2.055-4.02 4.25-9.111 4.876-13.642.124-.903.12-1.82.18-2.73.138-2.898-.352-5.795-.228-8.69.042-1.004.192-1.715.356-2.695.093-.153.141-.344.278-.46.095-.08.25-.026.363-.08 2.34-1.111-1.484.372 1.711-.675 4.3-1.408-.87.068 3.714-1.187 3.083-.851 6.316-.917 9.32-2.112 2.49-.99 2.748-1.374 4.898-2.917 3.77-3.22 5.864-7.643 8.3-11.836 2.112-3.635 2.496-4.07 4.898-7.626.347-.681-9.281-5.59-9.628-4.91-.879 1.494-1.807 2.96-2.635 4.48-2.38 4.371-3.91 9.303-7.328 13.033-.427.256-.832.551-1.28.767-2.661 1.282-5.963 1.365-8.802 2.142-.881.241-1.74.557-2.609.836-4.727 1.98-8.399 3.954-10.17 9.067-.368 1.7-.556 2.303-.685 4.102-.194 2.716.176 5.432.223 8.145-.048.463-.041.936-.144 1.39-.573 2.535-2.11 4.924-3.362 7.146-2.481 4.406-1.834 3.241-4.819 7.803-2.27 3.222-4.102 6.001-6.708 8.977-4.634 5.292-10.09 9.856-15.902 13.787-1.243.715-5.447 2.971-6.448 4.163-.95 1.13-2.15 2.428-2.095 3.904.157 4.226 2.14 5.044 5.039 5.472 4.863.755 9.927 1.08 14.734-.183 3.706-1.252 6.105-2.803 8.478-5.937 2.32-3.449 4.289-7.128 5.81-11 1.77-3.883.825-1.896 2.847-5.957 2.488-5.392 4.554-11.002 6.03-16.754.26-1.547.586-3.085.781-4.642.416-3.325.412-4.908.257-8.166-.083-1.737-.272-4.4-.685-6.154-.211-.894-.56-1.75-.84-2.624-2.521-.275-5.044-1.1-7.566-.825-.688.075-.795 1.14-1.09 1.766-.982 2.084-.846 4.643-.988 6.87a29.4 29.4 0 0 1-2.347 9.475c-1.25 3.843-2.906 7.53-4.309 11.319-.675 1.708-1.326 3.485-2.164 5.125a27.2 27.2 0 0 1-5.536 7.372c-2.531 1.439-1.142.682-4.183 2.24-3.934 2.195-7.509 4.88-10.618 8.15-1.033 1.156-3.292 3.688-4.35 4.86-2.07 2.299-3.928 4.484-7.184 4.843.172.134.724.34.516.403-2.382.73-5.063-1.463-7.014-2.527-2.566 1.124-4.958 2.786-7.697 3.371-.567.121-.464-1.066-.763-1.563-.03-.05-.076.095-.087.153-.053.293-.056.593-.103.887-.298 1.824-.26 1.39-1.003 3.386-3.142 5.66-7.088 10.891-12.09 15.046-2.528 2.016-5.082 4.008-7.586 6.052-2.44 1.993-4.781 4.124-7.491 5.763-.814.51-1.6 1.068-2.442 1.532-3.943 2.177-8.385 3.336-12.569 4.94l-1.373.206c.264.041 1.057.081.793.123-.974.151-5.954-.124-6.314-.146-.364-.02.728-.026 1.092-.038-4.455-.333-8.89-1.04-13.277-1.848-2.474-.64-2.398-.532-4.68-1.45-3.028-1.218-5.933-2.935-9.254-3.211-.539-.31-4.922 7.316-4.382 7.626M711.122 1159.726c2.912-.74 2.535-.734 5.837-1.133 1.323-.16 2.647-.436 3.979-.385.369.014.608.429.948.571 8.328 3.496-1.133-1.049 8.21 3.634 9.314 5.384 20.1 7.563 29.397 12.986 1.438.839 2.737 1.896 4.105 2.844 3.758 3.553 2.073 1.81 5.11 5.18.36.62 9.123-4.483 8.762-5.103-3.14-5.15-1.278-2.493-5.759-7.846-5.16-4.381-4.883-4.676-11.161-7.764-2.208-1.086-4.494-2.013-6.803-2.861-5.685-2.09-11.804-3.043-17.014-6.332-3.098-1.547-8.015-4.283-11.484-4.847-5.934-.965-11.668-.125-17.03 2.437-.852.407-1.608.995-2.412 1.492-.504.376 4.811 7.503 5.315 7.127M856.027 1048.317c.646-3.083 1.312-6.162 1.935-9.25.685-3.394.545-4.857 2.55-7.694.715-1.01 1.721-1.778 2.581-2.667 2.922-1.627 3.007-2.148 6.335-2.258.138 0 0 .35.131.394.655.216 1.368.185 2.044.324 1.051.215 2.076.544 3.116.81 6.992-1.458 4.823.424 7.746-3.77.257-.587-8.053-4.224-8.31-3.636 1.486 1.357.151.26 5.178-.133-2.044-1.424-4.435-3.24-6.99-3.542-4.814-.57-9.234-.114-13.475 2.233-1.777.984-3.221 2.477-4.832 3.715-1.208 1.648-2.639 3.155-3.626 4.945-1.905 3.457-2.337 6.22-2.832 9.984-.286 2.175-.58 5.787-.542 8.069.014.828.148 1.65.223 2.476 0 .62 8.768.62 8.768 0M912.371 1021.85c-.196 4.531.025 9.144-.978 13.601-.23 1.02-.578 2.01-.867 3.015-1.422 3.608-4.128 6.336-6.57 9.244-1.51 1.797-1.74 2.186-3.043 4.002-2.77 5.278-3.041 5.78 6.318 7.652.66.131 1-.904 1.458-1.397.61-.655 1.163-1.361 1.745-2.042 3.531-4.92 5.613-10.65 7.94-16.184 2.813-6.417 1.456-3.248 4.077-9.504 1.89-4.733 1.075-2.505 2.495-6.665.245-.65-8.937-4.109-9.182-3.46-2.249 3.845-1.053 1.718-3.54 6.405-2.271 4.91-2.283 4.724-4.271 9.922-1.558 4.072-2.708 8.322-4.478 12.31-.353.797-.79 1.554-1.184 2.331q-.532.874-1.069 1.745c-.197.32-.886.716-.597.956 6.076 5.058 5.478 6.132 8.15 3.07 4.61-4.834 9.312-9.75 11.609-16.17.331-1.298.724-2.582.995-3.894 1.126-5.465 1.017-11.138-.375-16.54-.113-.611-8.746.993-8.633 1.603" style="fill:#000"/><path d="M592.839 1147.068c9.29-16.235 12.23-19.987 17.703-22.584 5.556-2.636 11.43-1.908 21.697 2.69 5.958 2.667 8.585 3.149 14.18 2.599 19.089-1.875 30.63-16.778 30.63-39.55 0-22.383-10.257-41.27-26.437-48.677-6.183-2.83-7.852-3.062-15.973-2.214-16.191 1.69-19.776 1.321-23.505-2.415-2.966-2.971-3.339-4.294-3.179-11.275.115-4.992 1.932-13.77 4.928-23.798 8.543-28.597 9.91-34.726 10.028-44.985.1-8.627-.225-10.227-2.325-11.44-5.917-3.419-12.196-10.276-14.19-15.497-4.486-11.747.513-30.83 14.102-53.826 7.043-11.919 8.183-16.566 2.421-9.872-5.11 5.937-3.86-.055 1.83-8.772 11.598-17.764 40.301-39.701 63.811-48.767 9.268-3.575 37.774-8.677 71.078-12.723 33.095-4.021 57.725 1.391 74.19 16.302 7.802 7.066 18.109 12.896 22.798 12.896 4.533 0 6.82-2.41 10.86-11.44 4.36-9.748 6.875-12.276 13.64-13.71 4.723-1 4.858-1.152 2.275-2.558-1.51-.823-4.024-3.562-5.584-6.087-4.287-6.935-3.773-15.177 1.847-29.662 2.677-6.9 4.172-12.451 3.528-13.096-.645-.644-5.375 1.124-11.158 4.172-8.489 4.474-11.537 5.393-19.752 5.959-5.343.368-11.22.29-13.06-.172-3.96-.993-12.873-8.747-15.395-13.39-3.727-6.862-3.36-6.787-13.021-2.675-14.426 6.138-17.927 5.262-26.473-6.629-2.64-3.675-4.89-6.829-4.997-7.01-.107-.18-4.143 1.73-8.968 4.245-10.04 5.233-13.46 5.221-24.853-.082-11.934-5.556-21.3-3.937-32.664 5.645-3.352 2.826-6.903 5.139-7.891 5.139s-3.888-2.288-6.445-5.085c-2.556-2.796-5.518-5.084-6.582-5.084-3.599 0-21.818 13.232-31.463 22.851-20.082 20.028-32.386 45.854-45.131 94.726-2.98 11.43-5.76 19.28-7.77 21.946-6.374 8.45-9.63 17.777-10.298 29.502-.8 14.025.82 23.192 8.672 49.094 7.205 23.768 7.427 17.72-2.038 55.585-6.6 26.403-7.392 37.72-3.03 43.266 3.43 4.36 8.582 4.38 19.899.073 26.462-10.07 48.594 9.522 47.176 41.761-1.053 23.938-14.832 34.859-35.7 28.295-10.242-3.222-10.612-3.626-6.795-7.443 3.242-3.242 4.237-8.365 2.503-12.884-2.016-5.254-14.939-7.569-21.965-3.936-1.959 1.013-5.367 3.898-7.574 6.412-3.284 3.74-3.837 5.194-3.048 8.01.53 1.891.963 8.348.963 14.347 0 9.931-.345 11.467-3.858 17.145-11.553 18.674-35.391 14.482-45.323-7.969-1.987-4.493-2.182-6.317-1.094-10.233 4.686-16.875-3.345-30.825-17.746-30.825-6.97 0-11.94 3.181-13.275 8.495-.476 1.898-.15 7.05.724 11.45 1.536 7.725 1.488 8.109-1.405 11.187-1.905 2.028-4.38 3.188-6.804 3.188-7.362 0-18.963-15.898-22.364-30.648-5.04-21.861 4.545-36.77 25.663-39.922 5.121-.764 6.038-.583 6.038 1.19 0 3 3.456 3.903 7.22 1.889 6.141-3.287 18.84-23.675 21.957-35.253 1.266-4.701 1.107-6.514-1.142-13.013-3.205-9.26-3.323-18.63-.48-38.134 2-13.721 2.003-15.89.05-32.413-1.219-10.305-3.4-21.535-5.22-26.86-7.45-21.824-22.53-44.235-51.557-76.629-10.492-11.707-15.097-17.75-14.532-19.067 5.485-12.754 5.726-25.71.612-32.891-4.307-6.049-11.745-11.03-21.505-14.402-7.4-2.558-10.942-2.935-27.559-2.935-18.61 0-19.537.132-38.768 5.509-43.626 12.197-69.968 25.657-90.776 46.384-9.46 9.423-10.323 9.978-14.458 9.307-9.893-1.605-11.199-7.06-5.962-24.908 3.427-11.68 4.156-24.932 1.563-28.392-.9-1.2-5.497-2.933-10.59-3.994-14.005-2.916-22.707-6.677-28.233-12.203-6.165-6.165-8.352-13.26-7.477-24.259.355-4.466 1.238-16.413 1.96-26.55 1.544-21.639 4.02-35.495 9.317-52.116 12.073-37.889 39.732-79.155 68.707-102.508 4.719-3.804 8.58-7.475 8.58-8.158 0-1.89-8.975 3.092-18.33 10.172-4.6 3.481-8.363 5.821-8.363 5.2 0-2.148 26.408-25.784 41.035-36.728 19.608-14.671 64.31-41.068 97.515-57.584 31.316-15.576 68.29-17.563 128.382-6.9 9.438 1.674 26.598 3.675 38.134 4.447 11.535.772 33.557 2.82 48.937 4.552s38.622 3.848 51.648 4.702l23.683 1.553 2.337 4.338c4.814 8.94 20.653 20.65 47.08 34.806 9.065 4.855 11.345 6.88 20.46 18.175 5.643 6.991 21.898 24.151 36.121 38.133 16.19 15.915 29.403 30.176 35.33 38.134 5.209 6.99 12.19 15.57 15.515 19.066 8.07 8.485 10.326 13.898 8.05 19.312-1.754 4.17-4.833 6.488-20.698 15.59-18.315 10.504-24.877 19.589-24.985 34.586-.053 7.33.368 8.934 3.117 11.881 4.614 4.947 10.528 7.568 24.15 10.701 6.642 1.528 14.221 3.338 16.843 4.023l4.767 1.245v6.942c0 7.22 2.794 12.027 6.99 12.027 1.05 0 1.907.858 1.907 1.906 0 1.05 1.153 3.06 2.562 4.47 2.212 2.21 4.107 2.54 13.86 2.41 6.213-.084 12.162.336 13.22.933 3.85 2.174 9.856 11.184 11.661 17.497 1.964 6.868 1.14 14.248-2.017 18.051-3.326 4.008-19.386 10.962-27.693 11.993-9.513 1.18-13.76 3.835-17.313 10.826-2.346 4.618-2.542 7.517-2.542 37.707 0 34.075.123 34.563 4.464 17.694.783-3.042 1.628-5.326 1.878-5.076s-.398 9.603-1.44 20.784c-1.757 18.868-1.685 35.582.24 55.284 1.208 12.358-2.899 16.166-26.542 24.616-21.591 7.718-27.623 14.007-32.469 33.855-4.797 19.649-15.444 38.675-44.642 79.778l-8.262 11.63-8.948.057c-21.396.133-37.758 7.871-69.86 33.039-16.273 12.757-28.1 21.196-36.441 26.002-5.076 2.924-7.741 3.493-18.431 3.936-6.874.284-22.221 1.972-34.106 3.75-11.885 1.78-23.42 3.236-25.631 3.237h-4.023l7.091-12.393zm-36.143-90.787c1.527-.82 6.208-1.704 10.403-1.965 9.513-.59 15.889-2.549 15.889-4.88 0-4.506-14.017-3.79-23.906 1.22-7.159 3.629-10.741 7.117-7.309 7.117 1.18 0 3.396-.671 4.923-1.492m1.442-8.576c.394-.636 4.858-2.715 9.922-4.62 10.785-4.057 13.656-6.222 13.656-10.296 0-3.5-1.493-3.674-9.055-1.053-10.138 3.514-9.63 3.15-7.049 5.051 2.147 1.58 1.76 2.091-4.992 6.583-4.025 2.678-7.57 5.64-7.876 6.582-.44 1.353-.009 1.418 2.061.31 1.44-.77 2.94-1.921 3.333-2.557m152.472-10.27c-.242-8.69-23.225-52.132-33.07-62.508-9.783-10.31-9.321-12.812 1.139-6.178 4.072 2.583 9.186 8.185 16.261 17.817 10.658 14.51 14.335 17.881 16.803 15.412 2.142-2.141-2.115-13.856-8.045-22.137-3.573-4.99-7.528-8.56-13.03-11.765-8.89-5.178-13.618-9.15-13.618-11.44 0-2.465 9.547-5.618 19.468-6.431 15.468-1.268 27.653 1.162 42.18 8.409 17.35 8.655 25.98 10.676 41.947 9.824 6.991-.374 20.719-2.117 30.507-3.875s20.941-3.6 24.786-4.092c7.541-.965 27.965-9.697 27.965-11.956 0-1.522.21-1.56-22.047 3.944-18.149 4.488-35.786 6.258-34.965 3.509.608-2.038 18.377-11.25 33.496-17.367 13.361-5.405 24.906-12.112 21.93-12.74-4.204-.887-31.56 10.58-45.924 19.252-11.155 6.734-17.317 9.07-17.317 6.567 0-2.805 12.051-16.401 19.566-22.075 3.822-2.886 9.42-6.51 12.44-8.054 11.213-5.732 29.254-18.854 25.922-18.854-1.588 0-8.924 4.144-25.036 14.14-13.724 8.516-17.357 11.5-25.114 20.638-8.823 10.392-14.697 14.556-18.485 13.102-5.635-2.162-8.945-13.692-11.557-40.253-5.042-51.267-5.113-51.548-15.391-61.023-10.778-9.934-22.55-13.087-36-9.64-11.456 2.934-19.429 7.67-30.609 18.18-14.812 13.925-24.375 28.642-31.862 49.03a5229 5229 0 0 1-6.437 17.435c-2.132 5.73-2.512 9.17-2.103 19.067.445 10.756 1.008 13.128 5.157 21.71 2.562 5.298 10.452 17.784 17.533 27.746 14.002 19.7 21.423 32.588 24.807 43.085 1.96 6.078 2.5 6.704 5.5 6.356 2.91-.338 3.311-.944 3.203-4.835M543.774 816.937c.53-1.984 1.337-7.383 1.791-11.997 1.274-12.925-.5-17.043-11.684-27.13-14.486-13.063-15.157-11.788-4.94 9.392 3.83 7.943 7.571 17.588 8.312 21.433 2.348 12.196 2.58 12.902 4.083 12.401.81-.27 1.907-2.114 2.438-4.099m26.224 2.82c.717-.873 3.133-7.022 5.37-13.664 2.235-6.641 4.555-12.994 5.153-14.117.599-1.122 6.26-7.267 12.582-13.655 6.321-6.388 11.493-12.19 11.493-12.895 0-2.922-3.331-.778-12.331 7.936-17.242 16.693-27.036 32.106-27.06 42.582-.013 5.54 2.037 7.171 4.793 3.813m-3.267-99.053c13.122-8.712 14.321-9.086 23.546-7.346 17.262 3.258 35.024.128 69.017-12.16 22.21-8.03 40.324-13.051 51.186-14.191 6.57-.69 7.331-1.065 6.991-3.446-.345-2.413-1.142-2.651-8.228-2.458-13.248.36-46.298 10.991-72.47 23.31-12.872 6.058-12.96 6.078-15.25 3.547-7.744-8.557-17.936-8.335-41.078.893-24.532 9.783-32.072 9.367-41.37-2.285l-3.504-4.392-8.365 3.915c-11.87 5.554-23.94 5.95-48.968 1.604-10.422-1.81-20.804-3.29-23.07-3.29-4.692 0-25.985 9.346-25.985 11.405 0 1.546 1.939 1.19 18.801-3.449l11.81-3.249 3.443 3.299c8.822 8.45 18.567 9.116 40.942 2.798 23.517-6.64 28.524-5.95 37.66 5.2 4.781 5.834 4.861 5.871 11.484 5.322 4.903-.406 8.455-1.738 13.408-5.027M415.32 671.487c3.78-1.325 10.73-4.237 15.444-6.471l8.572-4.061 7.953 2.286c6.823 1.963 13.722 2.32 48.595 2.516l40.642.229 5.753-5.085c10.904-9.637 27.011-14.604 42.54-13.119 4.935.472 17.533 2.251 27.996 3.954 21.953 3.572 38.366 3.94 49.311 1.103 8.408-2.179 31.665-13.352 29.415-14.132-.77-.267-10.493 1.858-21.61 4.722-11.115 2.863-24.915 5.54-30.665 5.948l-10.456.743-9.611-6.493c-15.958-10.782-25.193-10.718-49.22.339-8.575 3.946-16.719 7.803-18.097 8.57-1.377.768-7.383 1.833-13.346 2.368s-13.988 1.944-17.833 3.133c-9.311 2.88-27.811 2.891-49.573.03-21.806-2.867-40.796-2.235-50.844 1.694-7.416 2.9-19.067 10.769-19.067 12.878 0 2.006 6.644 1.464 14.101-1.152" style="fill:#ffd5d5;fill-opacity:1;stroke-width:1.27111"/><path d="M469.527 1135.2c-4.027-.59-12.321-2.866-18.43-5.058-23.2-8.321-30.426-10.387-38.533-11.017-10.904-.847-20.14 1.884-28.849 8.53-3.684 2.812-7.22 5.113-7.858 5.113-1.88 0-2.5-3.511-3.752-21.191-1.843-26.033-6.233-33.19-19.521-31.822-3.662.377-7.917 1.079-9.455 1.559-2.74.855-2.783.692-2.084-7.839 1.695-20.696-12.253-54.62-28.487-69.287-2.773-2.506-5.388-5.933-5.81-7.616-.423-1.684-2.516-4.735-4.65-6.78-5.295-5.073-15.58-5.772-30.108-2.049-12.307 3.154-21.79 3.5-22.814.832-.386-1.006-.092-6.817.654-12.915 1.038-8.488.892-18.707-.622-43.613-2.505-41.188-1.339-53.927 4.724-51.6 1.804.692 1.77 1.732-.342 10.556-1.288 5.383-2.346 12.142-2.352 15.018-.013 6.69 3.848 11.93 8.79 11.93 8.058 0 26.905-13.607 41.878-30.233 9.57-10.627 10.604-12.374 6.563-11.092-2.518.8-2.659.624-1.395-1.738 8.149-15.226 38.683-39.505 49.736-39.547 4.017-.015 25.373-7.131 27.194-9.061.952-1.01.61-1.205-1.216-.693-12.065 3.385-33.495 8.462-35.563 8.425-8.868-.155 25.062-11.497 43.734-14.619 18.727-3.131 42.733-2.12 56.655 2.385 18.17 5.881 32.433 16.462 42.253 31.346 2.537 3.845 7.995 10.71 12.13 15.253 9.531 10.478 17.74 27.035 21.454 43.276 2.399 10.49 2.853 17.429 3.576 54.6.827 42.528.832 42.592 4.213 50.208 5.85 13.18 3.943 22.536-5.583 27.396-2.84 1.449-10.959 4.651-18.042 7.117-17.432 6.068-22.086 8.615-29.292 16.036-8.653 8.91-10.996 13.227-11.002 20.271-.006 8.116 2.794 15.879 10.935 30.315 10.54 18.69 9.739 20.307-8.729 17.603m-37.288-112.298c8.457-33.576 13.836-45.78 25.17-57.114l7.558-7.557-1.422-8.383c-3.636-21.44-11.998-45.506-21.407-61.608-6.225-10.653-20.384-25.081-29.251-29.808-8.458-4.508-20.072-7.85-27.277-7.85-3.351 0-6.59 1.171-10.22 3.696-24.042 16.724-34.859 48.712-31.299 92.557 1.164 14.326 4.607 37.321 6.98 46.602l.937 3.668-6.74-5.328c-12.826-10.139-38.522-20.453-50.903-20.433-4.85.008-12.243 1.865-15.172 3.811-3.014 2.002.238 3.372 11.962 5.036 25.266 3.588 40.582 9 46.979 16.603 4.947 5.88 4.36 7.131-3.736 7.967-6.571.678-10.717 2.481-10.717 4.661 0 2.466 25.18 10.217 33.19 10.217 10.262 0 14.751-4.98 23.438-25.999 7.167-17.344 11.316-23.19 20.29-28.588 7.876-4.737 14.642-6.184 29.621-6.333 9.117-.091 14.217 1.277 14.217 3.814 0 .702-7.625 8.833-16.944 18.07-13.68 13.558-18.093 18.854-22.912 27.501-3.282 5.89-5.804 11.199-5.605 11.798.2.599 4.146-4.233 8.769-10.737 14.186-19.958 30.164-37.153 32.423-34.894.356.357-1.462 6.278-4.04 13.157-5.194 13.858-11.456 33.605-13.423 42.328-2.14 9.492-3.742 24.58-2.893 27.255 1.498 4.72 5.218-5.491 12.427-34.11M659.89 1604.786c-16.365-1.946-26.504-3.826-44.315-8.219-41.932-10.341-41.406-10.262-53.736-8.112-14.245 2.485-39.87 2.436-71.359-.135-31.193-2.546-58.483-1.818-73.76 1.968-14.307 3.546-26.317 4.522-33.081 2.689l-5.505-1.492 6.017-3.985c3.31-2.192 8.595-7.306 11.746-11.364 3.152-4.058 5.844-7.378 5.984-7.378s2.391 2.016 5.004 4.48c8.304 7.832 11.33 8.87 25.723 8.831 7.128-.019 13.386-.462 13.907-.983 2.018-2.018-3.217-4.732-15.342-7.957-8.69-2.31-14.24-4.602-17.796-7.347-2.842-2.194-5.405-4.137-5.696-4.32-.291-.181 1.497-3.333 3.973-7.003s5.036-7.693 5.687-8.939c.963-1.842 1.603-.934 3.434 4.873 2.855 9.059 11.82 18.75 19.213 20.773 12.49 3.417 25.9-.3 16.842-4.67-2.43-1.172-1.778-1.392 4.345-1.465 15.156-.181 14.773-2.288-1.831-10.061-9.153-4.285-13.773-7.224-15.45-9.827-5.072-7.873-12.506-15.79-14.829-15.79-2.96 0-2.967.333.118-5.72 2.757-5.407 3.289-10.192 1.272-11.44-2.076-1.282-1.54-12.812.682-14.655 1.655-1.374 2.867-.663 7.944 4.662 6.21 6.512 15.525 21.233 15.525 24.535 0 1.114-2.474-.506-6.038-3.955-6.08-5.884-10.303-8.68-13.113-8.68-2.61 0-.442 9.875 3.22 14.678 5.173 6.781 12.403 9.931 20.805 9.064 6.086-.628 7.934-.207 15.323 3.494 10.726 5.373 14.123 6.443 14.123 4.448 0-.845-8.438-10.178-18.75-20.74-10.314-10.563-20.621-22.038-22.907-25.5-4.278-6.481-9.834-22.09-11.233-31.558l-.793-5.365 14.448 14.275c13.698 13.535 14.994 14.475 24.971 18.113 17.358 6.33 17.397 5.042.253-8.26-21.306-16.529-31.197-28.633-33.463-40.949l-.756-4.11 8.684 7.288c11.41 9.573 33.573 24.412 38.91 26.05 4.318 1.326 8.262.657 8.262-1.4 0-.632-2.331-1.522-5.18-1.978-17.849-2.854-41.627-25.462-47.6-45.256-1.16-3.845-3.487-10.318-5.171-14.384-3.685-8.896-3.817-11.038-.683-11.038 3.146 0 17.835 9.746 35.119 23.302 14.761 11.578 20.087 13.988 16.624 7.522-2.875-5.367-6.985-9.59-15.714-16.144-8.487-6.372-16.8-14.362-16.8-16.146 0-2.223 4.053-.892 16.146 5.306 9.04 4.633 16.288 9.73 26.437 18.591 15.774 13.774 26.806 21.44 33.55 23.312 11.182 3.107 21.782.63 32.753-7.654l6.718-5.072 2.61 5.117c5.609 10.993 17.225 15.859 35.911 15.041 10.413-.455 12.99-1.07 21.333-5.097 9.431-4.55 19.027-11.583 17.685-12.959-.386-.396-4.104.679-8.262 2.388-10.842 4.457-12.79 4.122-8.841-1.517 1.242-1.773 2.767-2.48 4.416-2.05 5.514 1.442 13.358-5.095 32.388-26.994l6.287-7.235 1.691 4.884c.99 2.86 1.374 7.003.927 9.996-1.068 7.137 1.643 39.42 4.603 54.82 5.571 28.98 13.516 51.938 28.248 81.628 6.744 13.593 11.074 20.52 17.082 27.329 8.532 9.67 10.766 14.323 7.817 16.284-.969.645-6.909 1.096-13.2 1.004-9.33-.138-13.082.424-20.339 3.046-13.084 4.727-29.812 6.706-43.217 5.112M929.67 1066.154c-6.46-2.345-8.575-4.29-11.267-10.36-2.27-5.119-2.263-5.205.842-11.339 1.72-3.399 3.129-7.304 3.129-8.677s.676-4.753 1.502-7.511c.912-3.046 1.037-5.35.318-5.868-.652-.469-1.185-8.289-1.185-17.377 0-15.74-.176-16.872-3.712-23.85-3.578-7.062-3.66-7.613-2.25-15.254.806-4.36 4.028-16.94 7.162-27.953 9.346-32.847 10.137-49.07 3.184-65.291-4.043-9.43-4.474-9.711-10.326-6.726-2.782 1.42-6.3 2.404-7.82 2.187-2.65-.377-2.748-.903-2.417-12.958.277-10.099-.16-13.912-2.225-19.432-3.592-9.601-3.39-17.532.581-22.738 3.93-5.153 10.028-8.977 18.168-11.394 6.293-1.87 13.457-6.79 24.31-16.698 4.967-4.536 5.79-5.986 5.773-10.17-.03-6.868-3.113-10.783-16.052-20.38-6.22-4.614-11.876-9.449-12.57-10.744q-2.747-5.134 6.624-9.772l5.324-2.634 3.559 2.533c8.995 6.406 16.51 19.332 19.532 33.598 3.726 17.59 2.046 35.825-7.198 78.151l-5.413 24.787.064 31.778c.053 25.88.551 34.726 2.685 47.666 9.268 56.206 12.304 72.396 14.426 76.933 1.316 2.813 2.741 6.855 3.166 8.981 3.418 17.09-20.923 36.68-37.914 30.512" style="fill:#ffd5d5;fill-opacity:1;stroke-width:1.27111"/><path d="M903.896 958.098c-2.563-3.912-2.731-13.08-.557-30.356.876-6.956 1.16-15.29.649-19.028-1.4-10.245-.992-15.26 1.868-22.904 3.4-9.086 5.518-10.952 8.928-7.865 7.4 6.696 11.428 42.325 7.023 62.122-3.6 16.184-12.953 25.598-17.911 18.03M210.479 1146.25c-6.11-4.151-10.9-11.439-14.835-22.566-2.774-7.845-3.313-11.595-3.354-23.33-.027-7.69.678-20.56 1.565-28.6 4.835-43.797-6.437-110.534-25.19-149.147-6.81-14.02-8.115-20.336-8.052-38.976.083-24.969 6.416-44.005 16.621-49.965 5.65-3.3 11.338-2.048 18.148 3.996l5.417 4.807-3.265 6.916c-6.937 14.7-7.96 20.457-7.888 44.415.057 19.273.62 25.384 4.214 45.76 2.28 12.933 4.54 28.889 5.018 35.457.663 9.103 1.374 12.258 2.988 13.272 3.907 2.457 6.145-1.115 6.14-9.799-.005-8.712-1.492-18.413-8.203-53.548-2.537-13.283-4.956-29.371-5.375-35.75l-.762-11.6 4.55-1.502c6.459-2.131 16.416-1.942 20.942.398 8.338 4.312 11.761 14.769 14.82 45.276 1.087 10.836 2.512 21.561 3.169 23.833 1.067 3.696.92 4.131-1.388 4.131-3.946 0-10.8 7.69-12.529 14.06-3.026 11.143 1.11 37.355 6.159 39.038 1.341.447 1.524-1.81.917-11.334-.776-12.189 1.23-26.49 3.762-26.83 4.557-.613 3.662 39.837-1.022 46.254-.836 1.145-3.192 4.19-5.236 6.765-2.77 3.49-3.861 6.429-4.284 11.527-.794 9.57.68 18.396 3.071 18.396 3.226 0 1.116 10.377-9.046 44.488-5.885 19.756-6.505 33.206-2.06 44.691 1.532 3.957 3.62 7.888 4.643 8.736 5.508 4.571-3.05 5.22-9.655.731" style="fill:#ffd5d5;fill-opacity:1;stroke-width:1.27111"/><path d="M751.41 1374.925c-.7-.233-2.912-.788-4.917-1.233-2.005-.444-3.294-1.16-2.865-1.59.43-.429-.905-1.806-2.966-3.059-7.123-4.332-8.211-8.414-8.28-31.065-.054-17.29-.406-20.936-2.305-23.834-1.233-1.881-2.943-3.421-3.801-3.422-2.856 0-17.449-7.495-17.449-8.96 0-.793 1.144-2.897 2.543-4.674 5.25-6.676 2.013-17.642-6.499-22.013-6.994-3.592-8.899-8.952-9.626-27.094-.919-22.947-3.437-28.952-14.494-34.554-3.849-1.95-6.246-4.01-6.25-5.367-.015-4.576-2.75-11.796-5.875-15.51-2.761-3.281-4.122-3.851-9.167-3.838-3.259.01-9.07.86-12.916 1.891-9.544 2.562-15.593 2.378-22.725-.69l-6.036-2.596-19.431 7.774c-26.448 10.582-37.117 13.17-50.914 12.347-5.965-.356-13.296-1.642-16.292-2.859-4.859-1.973-5.683-2.006-7.627-.303-6.998 6.132-14.245 7.316-24.061 3.933-16.076-5.54-16.772-5.645-19.476-2.941-2 2-2.495 4.245-2.495 11.322v8.826l-7.624 3.421c-6.73 3.02-17.688 12.498-17.854 15.442-.03.54-.57 3.556-1.2 6.702-1.021 5.1.108 24.428 1.903 32.582.46 2.091-.285 3.077-3.258 4.308-5.832 2.416-11.372 8.161-11.372 11.794 0 2.095 2.572 6.013 7.562 11.52 4.408 4.863 8.186 10.428 9.059 13.34 1.38 4.605 1.17 5.71-2.675 14.05-2.671 5.794-6.208 10.928-9.833 14.269-5.21 4.803-6.08 5.16-10.925 4.483-2.895-.404-8.75-2.157-13.01-3.897-4.261-1.74-10.6-3.541-14.088-4.004-5.643-.748-6.723-.487-9.801 2.366-1.903 1.763-6.146 4.54-9.428 6.171-5.208 2.588-7.827 2.966-20.585 2.967-13.35 0-15.28-.307-22.245-3.558-9.857-4.602-17.395-12.066-21.564-21.355-3.194-7.117-3.244-7.581-1.254-11.43 3.388-6.552 1.145-7.62-18.687-8.904-38.986-2.524-44.903-5.837-49.968-27.98-1.662-7.264-7.112-23.498-12.113-36.077-14.126-35.533-16.655-50.275-11.48-66.926 3.24-10.426 9.429-19.475 19.037-27.832 4.228-3.677 7.687-7.35 7.687-8.163 0-.964-2.765-1.484-7.944-1.496-9.231-.021-14.076-2.146-19.823-8.691-14.156-16.123-13.057-28.636 4.855-55.274 9.367-13.931 11.472-18.59 11.472-25.386 0-3.833-.936-6.148-3.813-9.425-3.458-3.938-3.813-5.17-3.813-13.217 0-8.591.198-9.152 6.242-17.627 9.324-13.074 18.431-21.334 25.876-23.47 10.067-2.887 23.626-.445 25.563 4.604 1.24 3.232.923 9.476-.481 9.476-3.115 0-.204 3.601 15.668 19.383 19.547 19.437 25.34 28.469 25.4 39.601.028 5.421-.736 7.601-4.682 13.359-2.593 3.784-4.537 7.788-4.32 8.898.422 2.148 4.483 2.37 23.335 1.27 17.712-1.031 20.214 3.553 16.923 31.01-2.557 21.329.748 22.96 23.879 11.78l14.217-6.87 9.065 1.138c10.48 1.316 14.944 2.61 37.497 10.87 16.379 6 16.677 6.056 33.932 6.386 14.875.284 18.186.73 22.752 3.058 8.596 4.386 27.024 11.202 39.653 14.669 21.622 5.934 48.379 5.596 66.992-.845 6.634-2.296 7.573-2.341 11.828-.563 5.404 2.258 17.158 2.51 24.407.524 8.327-2.281 22-9.673 36.72-19.85 16.675-11.53 26.548-16.876 31.168-16.876 2.63 0 4.385-1.34 7.453-5.693 5-7.094 19.047-17.609 28.114-21.044 14.421-5.464 23.175-4.526 31.977 3.427 2.646 2.39 5.07 3.894 5.385 3.342.315-.553 1.595-4.151 2.845-7.996 9.438-29.04 27.75-57.89 41.088-64.732l4.474-2.295.086-14.47c.082-13.996.228-14.736 4.441-22.506 13.36-24.641 45.16-33.529 63.221-17.67 8.46 7.428 13.54 22.294 12.268 35.906-.602 6.442-1.263 8.332-3.124 8.922-1.299.413-2.361 1.55-2.361 2.527s-1.93 5.372-4.287 9.765-5.481 11.707-6.941 16.25c-9.444 29.404-8.93 26.8-6.392 32.414 3.56 7.87 2.981 16.924-2.082 32.587-6.384 19.748-5.904 23.648 3.73 30.276 6.448 4.436 12.158 11.96 12.158 16.02 0 3-3.983 6.964-9.25 9.206-4.492 1.91-5.61 4.803-2.98 7.71 1.134 1.252 2.062 3.5 2.062 4.997s1.838 9.173 4.085 17.06c3.488 12.239 4.093 16.44 4.131 28.682.03 9.252-.46 14.666-1.38 15.253-.783.501-3.181 4.405-5.33 8.676-3.865 7.688-9.138 11.937-14.811 11.937-4.87 0-13.389 6.611-13.389 10.39 0 1.598-.944 2.321-3.03 2.321-3.347 0-5.124 3.43-4.712 9.095.25 3.442-7.692 25.558-10.314 28.717-.794.957-5.602 4.615-10.684 8.128s-10.14 7.761-11.24 9.441c-1.101 1.68-3.424 3.987-5.162 5.125-2.928 1.92-3.4 1.913-6.44-.079-2.981-1.953-3.652-1.972-7.36-.212-2.348 1.114-7.84 6.774-12.927 13.324-13.607 17.517-26.156 25.5-39.988 25.438-3.845-.017-7.563-.222-8.263-.455zm33.448-48.31c5.702-4.797 6.228-8.936 1.629-12.807-4.693-3.948-6.057-8.297-7.147-22.787-1.031-13.716-2.952-18.88-7.99-21.485-3.588-1.856-4.222-1.75-12.804 2.14-9.781 4.432-11.67 6.606-4.586 5.277 2.452-.46 7.083-.442 10.292.04 5.253.787 5.75 1.15 4.982 3.638-.47 1.52-1.157 5.351-1.528 8.514-.596 5.066.036 7.108 5.302 17.16 5.254 10.03 5.908 12.14 5.405 17.447-.67 7.067.717 7.683 6.445 2.864zm-406.833-51.8c5.602-5.788 7.94-12.221 7.94-21.839 0-13.914-6.102-26.88-16.32-34.672-4.52-3.449-6.61-4.185-11.868-4.185-7.448 0-13.231 2.434-18.263 7.685-4.052 4.23-3.755 4.597 1.5 1.856 8.209-4.281 18.73-1.473 26.436 7.057 11.929 13.203 14.99 32.029 7.028 43.21-4.584 6.439-2.363 6.994 3.547.887m-61.998-5.72c-.034-5.713-3.997-14.941-8.39-19.54l-3.185-3.332-9 1.715c-4.95.943-9.222 1.937-9.494 2.21-.272.271 2.64 2.027 6.47 3.9 5.086 2.49 8.702 5.62 13.41 11.61 7.497 9.54 10.23 10.461 10.189 3.436m509.822-19.221c11.594-12.028 19.457-30.292 19.516-45.33.03-7.497-.528-9.902-3.458-14.902-6.625-11.304-22.157-16.81-39.183-13.89-10.857 1.861-13.185.873-15.222-6.46-2.86-10.299-10.881-13.586-22.722-9.311-3.954 1.428-5.441 1.231-13.982-1.846-5.257-1.894-12.703-4.939-16.549-6.766-8.044-3.824-17.856-4.419-24.827-1.506-5.146 2.15-5.204 2.368-1.889 7.024 2.26 3.173 3.098 3.473 8.12 2.907 4.702-.53 7.615.283 18.137 5.062 6.894 3.13 15.23 6.7 18.524 7.93s8.247 4.17 11.006 6.532c5.805 4.968 6.839 5.14 11.409 1.907 5.213-3.688 12.619-4.385 22.426-2.11 24.316 5.638 42.8 25.938 40.9 44.915-1.06 10.59-6.915 18.85-20.63 29.105l-3.731 2.79 3.093.07c2.092.048 5.027-1.934 9.062-6.12zm-410.52-18.184c18.474-10.383 17.094-41.345-2.352-52.771-7.436-4.37-17.944-5.207-27.738-2.211l-7.535 2.305 7.626.824c10.172 1.099 19.19 5.916 26.931 14.386 11.595 12.686 11.906 23.708.98 34.634-6.152 6.153-5.469 7.08 2.087 2.833m-140.407-40.884c10.511-7.787 26.112-24.584 29.683-31.96 3.552-7.337 4.71-17.699 2.65-23.711-.877-2.56-3.493-5.677-6.521-7.771-11.519-7.967-13.148-16.063-7.68-38.158 4.256-17.205 4.964-28.297 2.152-33.735-1.943-3.758-14.118-15.494-16.073-15.494-2.379 0-1.157 2.621 1.863 3.998 1.896.864 4.317 4.169 6.316 8.623 9.069 20.208 7.146 37.382-5.46 48.77l-5.15 4.653 6.111 5.716c14.49 13.554 18.905 33.087 11.644 51.509-3.974 10.083-8.135 15.366-18.472 23.452-5.298 4.144-9.923 8.005-10.279 8.58-1.553 2.514 2.325.632 9.216-4.472m545.561-76.997c1.195-.64 3.866-4.704 5.934-9.031 3.464-7.247 4.416-8.199 12.043-12.04 15.779-7.947 19.84-14.38 4.566-7.233-9.857 4.613-20.535 14.138-23.77 21.205-3.505 7.654-3.192 9.464 1.227 7.1m37.851-73.158c2.058-10.316 5.92-13.753 14.254-12.684 4.372.56 6.6.233 8.475-1.242 2.394-1.885 2.413-2.101.337-3.716-1.213-.943-1.874-2.045-1.47-2.448 1.278-1.28-6.833-4.735-11.114-4.735-2.261 0-6.587 1.199-9.615 2.664-7.344 3.556-11.334 10.535-12.51 21.886l-.897 8.66 5.513-.398 5.513-.399zM626.205 845.267c0-4.26 7.514-31.434 12.062-43.623 9.96-26.691 23.096-46.698 34.088-51.914 2.306-1.094 5.306-3.219 6.665-4.721 3.216-3.553 9.183-6.612 10.868-5.57.782.483 1.157 4.487.916 9.774-.281 6.18.069 9.121 1.13 9.491.847.295 5.261-3.242 9.811-7.86 8.487-8.612 16.465-13.314 22.677-13.363 1.936-.015 7.613 1.402 12.615 3.15 12.69 4.434 21.14 4.264 29.755-.598l6.69-3.775 1.398 4.093c3.974 11.632 11.216 14.345 28.248 10.584 17.194-3.798 15.892-4.042 16.58 3.118.353 3.675 1.605 7.41 3 8.95 2.226 2.46 3.25 2.584 14.625 1.77 10.262-.734 12.914-.523 16.464 1.313l4.23 2.188-6.178 2.345c-11.202 4.252-10.256 7.574 4.311 15.153 15.825 8.233 17.409 11.576 7.805 16.476-4.713 2.404-5.147 3.052-5.147 7.684 0 2.782-.429 5.052-.953 5.043-.525-.01-4.88-3.177-9.68-7.04-11.233-9.042-15.765-11.282-30.665-15.153-25.706-6.68-54.814-7.357-82.635-1.924-40.497 7.908-85.337 30.304-105.184 52.535-2.431 2.723-3.496 3.293-3.496 1.874M874.94 717.83c-12.4-4.46-18.53-18.476-14.356-32.833 3.52-12.108 14.117-18.165 37.464-21.413 14.535-2.021 23.773.308 29.452 7.428 2.65 3.322 2.767 4.375 2.074 18.595-.976 20.052-1.172 20.321-16.318 22.365-6.52.88-15.002 2.64-18.847 3.913-10.563 3.497-14.158 3.856-19.468 1.946M906.856 740.313c-3.377-6.856 1.559-20.34 6.931-18.934 3.02.789 11.628-3.832 16.194-8.692 1.653-1.76 3.663-3.198 4.468-3.198 3.04 0 6.687 5.826 7.303 11.666l.626 5.946-6.467 2.115c-6.459 2.113-18.28 9.211-21.202 12.731-2.427 2.925-5.971 2.187-7.853-1.634M259.11 907.528c-4.108-4.108.779-17.092 11.388-30.258 3.378-4.192 5.58-7.622 4.894-7.622s-3.811.686-6.945 1.524c-3.133.838-6.079 1.142-6.546.676-1.275-1.275 2.812-6.89 12.338-16.955 4.705-4.972 11.112-13.028 14.236-17.902 7.91-12.34 17.345-21.2 28.387-26.658 8.543-4.222 9.959-4.54 17.512-3.934l8.218.66-.716-6.045c-.598-5.049-.27-6.49 1.985-8.745 2.478-2.478 4.07-2.7 19.308-2.7 17.388 0 21.526-.986 21.526-5.13 0-1.96.871-2.497 4.054-2.497 2.23 0 11.524-1.207 20.655-2.683 21.36-3.451 34.02-2.951 44.275 1.747 6.74 3.09 7.642 4.01 11.12 11.364 4.45 9.406 4.919 15.571 1.33 17.492-3.776 2.02-9.69 1.605-28.196-1.982-21.813-4.229-36.296-4.496-44.976-.83-3.496 1.477-9.582 3.58-13.526 4.672-28.791 7.982-60.273 34.16-93.883 78.07-14.522 18.972-14.651 19.097-19.766 19.179-2.831.045-5.834-.605-6.673-1.443M216.273 871.915c-5.48-3.139-10.81-11.764-10.798-17.471.025-11.045 8.533-22.328 21.987-29.157 15.353-7.793 29.185-6.185 37.2 4.323 2.869 3.761 3.723 6.378 4.094 12.544.457 7.588.314 8-5.455 15.708-8.034 10.734-18.438 16.068-32.383 16.6-8.058.308-10.36-.092-14.645-2.547M226.317 811.912c-10.849-2.473-19.395-7.135-25.78-14.063-5.996-6.504-6.218-9.175-1.33-16.038 10.667-14.982 53.895-11.913 68.632 4.873 4.14 4.714 4.593 7.699 1.944 12.799-5.763 11.097-25.081 16.62-43.466 12.429" style="fill:#e3dbdb;fill-opacity:1;stroke-width:1.27111"/><path d="M528.775 1150.554c-12.94-6.803-17.776-9.698-20.569-12.312-2.19-2.051-2.244-2.158-1.405-2.809.48-.372 1.694-.676 2.697-.676 1.714 0 1.893-.128 2.938-2.098 1.542-2.906 4.974-6.3 7.529-7.444 3.48-1.559 7.427-1.32 11.475.693 7.447 3.704 13.585 10.916 16.273 19.12 2.096 6.4-.767 10.931-6.829 10.807-1.83-.038-3.627-.822-12.109-5.28" style="fill:#ffd5d5;fill-opacity:1;stroke-width:.449405"/><path d="M680.881 1257.557c-.891-.927-3.174-4.112-5.073-7.079-5.243-8.191-5.969-9.152-9.87-13.06-6.5-6.514-11.845-15.01-12.278-19.52-.179-1.862-.042-2.3 1.12-3.601 1.12-1.254 1.699-1.513 3.759-1.682 3.303-.27 7.448.865 12.047 3.299 13.912 7.363 20.427 20.066 16.42 32.014-.637 1.897-1.547 4.08-2.023 4.85-.476.771-.865 2.022-.865 2.78 0 1.594-.707 3.684-1.246 3.684-.203 0-1.099-.758-1.99-1.685" style="fill:#fff;fill-opacity:1;stroke-width:.449405"/><path d="M625.14 1222.893c-6.181-.573-9.886-1.895-9.886-3.528 0-2.013 5.868-5.773 11.235-7.2 6.455-1.715 9.478.029 7.26 4.189-1.421 2.665-5.174 6.782-6.137 6.732a80 80 0 0 1-2.471-.193" style="fill:#000;fill-opacity:1;stroke-width:.449405"/><path d="M642.71 1216.33c-5.203-5.143-4.892-10.656.925-16.428 4.477-4.443 11.61-6.836 13.811-4.634 2.055 2.055.71 6.662-3.997 13.702-2.75 4.114-7.433 9.27-8.419 9.27-.213 0-1.257-.86-2.32-1.91M608.447 1222.69c.193-4.981-.425-7.407-2.508-9.84-1.775-2.074-3.705-3.178-7.469-4.272-1.43-.416-2.715-1.054-2.855-1.42-.372-.97 2-3.21 7.83-7.397l5.116-3.674 6.693.312c7.092.33 10.56 1.011 10.56 2.072 0 .353-1.617 1.927-3.595 3.499-9.553 7.593-12.893 12.44-12.983 18.843-.027 1.921.106 4.05.296 4.73.284 1.012.202 1.235-.45 1.235-.713 0-.778-.417-.635-4.088" style="fill:#fff;fill-opacity:1;stroke-width:.449405"/><path d="M680.469 1257.064c-1.003-1.139-3.385-4.526-5.293-7.527-4.4-6.92-5.516-8.384-9.132-11.973-6.11-6.064-11.84-15.015-12.388-19.352-.538-4.26 2.655-6.442 8.041-5.498 9.898 1.736 20.008 9.468 24.304 18.587 3.275 6.951 3.024 13.42-.817 20.998-.644 1.272-1.171 2.939-1.171 3.705 0 1.505-.689 3.131-1.326 3.131-.218 0-1.216-.932-2.219-2.07" style="fill:#ffd5d5;fill-opacity:1;stroke-width:.449405"/><path d="M532.192 1242.437c-.582-.582-.926-1.818-1.137-4.086-.46-4.964-1.32-6.095-5.34-7.035-1.886-.44-8.229-7.894-10.675-12.545-2.207-4.195-1.588-6.542 1.714-6.502 3.437.04 8.262 2.606 12.952 6.888 5.11 4.666 8.941 10.993 10.58 17.477 1.028 4.062 1.14 3.833-2.554 5.21-3.836 1.43-4.619 1.514-5.54.593" style="fill:#000;fill-opacity:1;stroke-width:.449405"/><path d="M703.922 468.512c-22.081-3.37-70.482-8.083-96.172-9.363-5.932-.296-13.82-1.298-17.527-2.226-8.533-2.137-19.238-3.302-41.345-4.5-9.64-.522-21.165-1.382-25.612-1.911-27.687-3.294-41.462-12.862-43.25-30.04-1.275-12.254 3.965-27.477 11.845-34.414 14.341-12.624 34.254-14.048 88.925-6.363 8.74 1.229 21.7 2.15 36.85 2.62 30.999.96 40.479 2.7 78.133 14.344 11.334 3.505 23.064 7.004 26.065 7.774 9.384 2.41 14.333 9.066 14.303 19.238-.021 7.43-2.652 13.954-11.06 27.422-6.725 10.774-8.122 13.72-8.122 17.127 0 1.219-.498 2.133-1.123 2.064-.618-.069-5.977-.866-11.91-1.772M670.217 353.844c-9.337-.704-30.862-3.258-55.277-6.56-35.627-4.817-47.677-6.183-59.77-6.777-16.962-.833-17.685-.991-18.286-3.992-.78-3.902.8-11.862 3.481-17.528 11.66-24.649 59.085-43.324 93.45-36.799 3.955.75 9.599 1.563 12.542 1.806 23.693 1.949 54.73 26.943 61.186 49.272 1.945 6.728 1.301 13.042-1.81 17.743l-2.285 3.454-14.593-.157c-8.026-.087-16.413-.295-18.638-.462" style="fill:#483737;fill-opacity:1;stroke-width:.89881"/><path d="M685.497 383.624c-42.035-8.466-89.72-12.957-137.765-12.974l-24.065-.01-.877-2.305c-2.27-5.969-.28-12.428 4.793-15.563 6.406-3.96 13.134-4.869 32.08-4.336 20.39.573 50.987 4.68 57.075 7.661 7.058 3.456 12.324 3.862 46.428 3.58l32.667-.271 4.494 2.247c5.506 2.752 6.974 5.308 6.367 11.08-.473 4.5-4.374 14.165-5.643 13.982-.398-.057-7.397-1.449-15.554-3.091z" style="fill:maroon;fill-opacity:1;stroke-width:.89881"/><path d="M210.486 723.204c-5.281-15.455-9.908-47.408-9.898-68.351.013-26.468 3.952-43.145 14.017-59.352 8.647-13.922 8.083-13.483 17.503-13.617 12.632-.18 13.948 3.074 10.304 25.477-.925 5.688-1.427 12.078-1.116 14.2.886 6.035 5.508 9.472 13.644 10.146l7.002.58 3.04-6.83c1.672-3.757 4.563-8.246 6.424-9.977 3.17-2.948 3.596-3.026 6.785-1.236 8.428 4.73 17.613 26.318 24.9 58.53l.748 3.303-9.376-.602c-11.58-.743-19.484 1.043-34.67 7.837-14.858 6.646-31.56 20.218-40.01 32.512-4.861 7.074-8.433 9.909-9.297 7.38M611.757 681.3c-1.102-1.103-1.302-5.888-.731-17.478 1-20.329-.23-25.414-7.411-30.616-15.085-10.927-23.885-6.94-29.547 13.385-5.697 20.453-8.57 24.026-19.538 24.29-4.035.098-10.178 1.368-13.912 2.878-9.365 3.785-19.39 3.658-23.996-.304-7.386-6.353-4.925-26.959 6.006-50.286 6.47-13.805 19.572-33.384 27.433-40.994 11.265-10.906 29.307-14.308 42.09-7.938 17.85 8.895 26.722 35.043 29.233 86.147l.928 18.877-3.438 1.778c-4.196 2.17-5.171 2.206-7.117.26m-82.883-30.26c0-.7-.858-1.271-1.907-1.271s-1.907.572-1.907 1.27c0 .7.858 1.272 1.907 1.272s1.907-.572 1.907-1.271M401.416 962.78c-2.605-2.878-2.884-10.33-.51-13.578 2.14-2.927 6.216-1.797 9.035 2.504 2.184 3.334 7.712 4.312 8.701 1.54.977-2.736-2.595-8.117-6.712-10.11l-3.947-1.912 6.74-2.948c7.285-3.185 20.775-4.872 22.796-2.851 2.005 2.005-.094 7.53-3.44 9.054-1.701.775-3.08 2.495-3.08 3.841 0 3.202-7.264 9.482-14.889 12.873-9.142 4.065-12.157 4.39-14.694 1.587M436.35 953.547c-4.143-2.526-4.16-2.578-1.906-5.61 3.596-4.841 14.35-5.454 14.35-.819 0 1.866-6.11 8.996-7.696 8.983-.312-.003-2.448-1.152-4.748-2.554" style="fill:#fff;stroke:none;stroke-width:2.99999976;stroke-miterlimit:4;stroke-dasharray:none;stroke-opacity:1" transform="translate(150.901 274.316)"/></g></svg>
