<svg xmlns="http://www.w3.org/2000/svg" width="1383.991" height="1702.797"><path d="M815.89 2036.823c-60.36-12.906-122.085-28.18-186.468-16.25-66.771-14.898-141.85-1.791-207.04 5.916 10.047-18.984-25.666-4.63 11.792-19.393 32.047-.454 103.226-127.66 61.164-70.025-46.03 37.359 42.342-48.017 24.239-79.984-1.446-64.35 26.65-158.64-47.951-184.82-49.415-46.03-129.592-57.125-159.128-117.222-42.836-44.57-56.462-109.403-55.395-169.54 4.547-52.016 16.43-57.02-22.242-68.93-32.857-65.34 17.764-137.635-.828-206.643-6.368-62.091-65.72-147.814-6.587-196.765-1.64-55.65-93.169 35.763-114.552 63.877-18.696 27.169-80.467 87.941-28.547 28.985 30.476-55.13 99.22-86.41 131.024-130.473.463-26.106-8.851-118.288 30.09-59.734-1.853-67.065 48.078-118.09 85.518-168.803 40.897-63.43 29.844-143.648 68.905-208.707 8.326-87.781 115.492-93.8 184.766-95.25 88.996-11.884 178.526-2.99 267.993.503C915.245 358.95 967 376.08 994.588 449.476c13.903 76.847 89.36 117.565 112.162 190.025 11.782 80.502 81.82 100.727 148.118 121.217 62.766 29.118 126.123 58.482 149.245 130.438 31.377 45.418-17.823.602-32-11.61-51.488-60.015-129.75-90.848-204.729-109.947 6.984 38.215-2.872 41.29 15.612 8.89-2.55 33.424 4.424 141.445-19.73 115.539-21.71 48.716 54.136-30.724 48.847 32.18 12.68 80.666-39.74 152.5-28.936 233.284 14.25 63.12 13.098 148.4-51.731 183.245 2.11 44.786-6.656 85.531-21.053 129.085-4.108 54.978-43.047 84.971-85.67 111.418 28.1-39.145 10.349-64.92-15.788-12.744-17.29 21.672-17.388 52.193-25.447 49.177-24.489 25.866-50.867 39.645-80.892 55.322-47.589 19.058-25.218 65.463-30.424 119.128-2.075 71.617 25.007 136.64 60.99 195.769 27.404 26.579 66.97 51.504 6.284 38.188-43.244-12.206-79.243 21.84-123.556 8.743m36.621-5.48c36.384-23.434 125.461 6.591 63.204-46.55-47.355-74.794-62.185-163.702-58.797-251.143-18.965-36.764-40.97 50.977-63.49 7.556-25.637 38.38-34.364-10.645-56.379 19.537-16.67-14.044-58.34 22.365-63.227 4.32-13.57 28.03-25.423-33.551-45.314 15.804-1.217-42.343-69.729-69.65-97.146-67.378-6.68 41.238 109.724 87.309 76.804 92.213-34.329-15.146-100.07-91.349-61.786-13.944 2.679 37.837 124.03 71.204 36.662 53.865-23.534-14.213-61.638-66.672-47.843-30.902-5.094 25.462 120.638 100.185 34.602 61.361-29.264-27.333-50.904-65.38-30.622-3.122 7.146 35.712 117.744 109.522 32.13 63.118-38.42 19.924-60.314-61.234-15.533-9.08 20.313 19.581-38.418-86.749-32.639-23.032-1.034 51.022-136.258 121.65-28.385 109.954 76.019-19.687 151.836 5.64 230.17-6.144 41.768 12.265 85.944 19.106 127.589 23.567m-324.398-33.106c-48.547-4.41-56.153-49.658-8-11.38 20.72-1.193 44.62 13.326 8 11.38m19.878-13.058c-47.708-1.088-44.178-90.916-16.17-19.772 10.861 10.127 56.636 18.46 16.17 19.772m16.58-9.412c-44.922-7.175-63.216-86.765-16.011-21.046 10.298 9.859 53.448 20.441 16.01 21.046m71.311-206.945c5.628-31.8-19.295 6.475 0 0m62.189-12.793c-13.564-.64-7.49 14.135 0 0m21.375-1.54c-4.595-6.345-7.955 7.612 0 0m27.333-1.89c3.361-9.987-9.622 1.284 0 0m35.97-6.363c-.003-27.69-25.673 21.781 0 0m35.914-6.528c3.026-42.82-26.2 32.05 0 0m-166.57.448c-2.394-14.73-4.213 8.873 0 0m20.02-2.334c52.873 2.83 146.795 5.11 186.526-52.347-2.202-23.065 31.702-64.979 32.244-18.986 2.868-60.185 43.183 14.608 54.797-47.424 37.875-33.4 57.634-66.078 85.793-107.66 28.56-48.337 45.421-112.656 71.384-170.526-6.78-44.83 13.033-86.655 18.946-137.493-16.426 10.423 24.185-42.913 9.054-63.667 28.229 46.77 21.662-194.806 8.291-68.838-4.342 32.11-34.534 176.47-22.604 75.426 15.723-65.192 25.438-135.394 26.846-193.638-4.69-31.199-.059-54.195-8.822.208-18.026 36.478 2.218-106.797-9.125-9.22-16.793 42.065 1.27-70.977-38.529-30.703-37.638-29.466-74.299-15.918-99.12-9.898-39.5 1.4-59.035 14.72-82.549 12.283-16.296 28.523-26.479 6.994-41.59 17.821-19.751 12.62-27.674 17.316-42.01 28.786-50.055 13.108-66.22 111.778-69.654 162.994-8.462-39.94-6.9-53.585-8.32-3.864 1.244 28.942 3.375 86.571 9.515 24.995 17.323 19.882-17.228 119.208 52.501 93.384 44.01 6.93 134.203 33.954 50.348 65.176-30.084 22.957-51.248 27.233-50.896 24.201-53.206 1.737-76.527 55.115-107.831 76.253-37.277-49.031-100.593-64.098-154.085-66.315-69.5-39.215-40.84-71.139 30.963-76.555 43.576-22.34 73.672 1.167 20.947 7.541-38.657 4.515-112.944 10.525-47.705 51.163 39.172 30.357 61.92-63.468 96.36-4.818-11.925 28.644 64.332 69.449 62.68 77.932 24.362-32.281 55.645-126.4 106.308-84.874 24.983-37.077 107.003-13.753 52.67-41.164-41.347-32.821-118.235 2.82-119.738-52.03-22.705-77.415-9.96-159.094 33.742-225.476 11.995-44.745 44.114-133.134 72.788-143.159-27.2 74.546 36.177-60.617 15.302 14.856-16.203 41.247 50.004-104.15 22.865-15.015-9.278 26.426-23.837 94.737-1.693 30.009 8.363-32.324 48.194-85.882 23.21-20.043-18.933 35.926-20.6 80.858 5.773 21.895 16.732-38.837 39.722-47.44 18.347.196-16.506 60.367 55.386-81.76 31.48 3.811 3.292 5.955 40.056-43.769 25.285 4.43 23.333-6.072 38.805-49.722 28.088-1.233 30.459-4.86 40.248-37.09 39.884 1.724 19.94-25.813 46.346 51.97 31.394-17.309-18.252-32.67 33.353-103.56 13.135-92.28-21.95 77.506 6.46-58.644-50.529-8.641-103.94 4.344-207.227 17.124-309.565 33.447-76.638 8.49-140.14 60.95-217.393 67.416-60.613-12.191-26.976 26.93-9.182 42.834 20.177 78.584 108.85 124.344 101.686 211.511-2.782 28.845 22.1 116.48-.67 117.85-4.557-62.776-9.13-106.153-17.658-169.257-22.139-41.32-61.839-99.37-95.52-102.709-30.32-37.443-35.723.816-67.035-26.208-32.053-7.362-37.686-16.821-31.829 15.837-31.993-8.734-52.623-28.145-55.498 9.242-24.565-12.331-96.329-.175-79.81-1.657-25.143-39.33 15.22 72.365 30.216 101.51 61.053 8.333 141.136-77.066 209.678-31.856 38.746 27.195 34.792 87.473 1.829 71.632-55.331 48.803-141.585 8.275-200.582-17.085 6.654 51.323 89.965 96.77 67.04 116.394-53.061-25.253-81.4-130.478-103.869-141.97 21.942 59.525 54.288 123.12 95.057 176.376 18.278 21.178 83.16 68.383 20.605 36.164-43.595-28.695-117.587-151.516-97.77-133.946 36.47 65.883 57.014 162.172 133.604 190.034-48.98 21.797-89.18-79.003-114.131-121.467-35.99-48.21 80.607 154.237 43.078 89.47 13.196 36.173 119.583 113.213 31.094 58.216-33.178-38.822-98.36-146.04-84.065-123.02-3.19 34.775.481 50.899 7.635 26.202 33.786 50.474-5.387 25.52-1.085 31.48-47.346 10.275-9.446 91.123-5.857 133.652 1.182 54.06 48.808 129.996 79.93 145.726-21.724-20.858-36.18-78.72-1.383-27.325 25.885 19.588 79.168 99.033 21.348 52.455 12.216 26.967 74.846 50.926 46.125-5.192 11.857 3.13-16.618-47.527-.152-60.959-8.863-44.333 29.815 11.908 11.484-32.593-8.415-54.006 36.426 20.187 12.425-39.002.687-52.615 41.752 46.437 25.765-24.076-1.428-23.055 21.002-47.082 25.488-7.176-6.909-81.898 18.273-17.54 18.065-3.868-8.315-38.102 13.104-71.503 18.08-9.702 13.695-69.723 13.289 21.65 23.924 11.12 10.73-61.02 17.007-17.106 17.198 9.925.564-26.92 19.855-70.628 24.37-26.666 24.324-37.741 9.574 59.906 38.86 5.085-8.782 51.07 35.812.87 35.683 38.248 8.848-47.054 34.212-62.722 35.392-6.203 4.765-51.073 30.662-5.714 29.395-28.663 17.545-14.929 39.983-61.315 38-4.489 20.785-65.835 43.224-52.412 38.88 7.471 10.166-32.078 37.672-77.827 46.394-53.208 17.949-7.04-6.394 68.43 17.467 9.73 2.13 24.69.05 46.553-1.988 80.303 23.063-78.236 18.112 33.276 13.622 27.752 24.075-34.107 5.635 46.84 22.233 40.781 18.752 27.831-69.29 131.81-36.825 55.108 12.942-51.541-25.958 60.998-17.22 1.014 11.73-51.193-2.927-38.403-10.179 2.304-30.045 34.501 24.9-79.046-21.122-47.72-74.828 54.373-175.377 57.628-261.023 30.411-31.857-16.997-113.933 3.502-75.576-9.888 3.152-9.692-44.89 28.885-1.498-7.359 24-21.23 46.65-64.36 19.62-8.81 68.05-20.058 138.182-10.854 204.814-16.534 33.67-27.758 130.435 25.939 113.735-30.001 13.168 13.841 29.203 52.775 28.085-4.538 12.076-46.382-14.239-96.185-12.77-118.428-8.326 54.56-52.086 67.364-45.858 12.41-20.794 77.81-37.244 5.361-37.996 23.133-10.14 33.066-36.855 40.832-39.51 29.76-22.154 72.526-24.492-70.427-38.148 11.959-23.332 23.665-44.324-23.32-66.958-5.157-15.442-54.268-29.194-11.117-49.24 4.516-3.889-23.24-44.228-20.574-46.493.36-30.98 7.808-40.974 38.042-58.963 24.71 24.796 55.175-33.842 15.762-8.126 65.878-6.15 21.353-6.49 44.145-4.026 66.885 8.793 16.74-15.934 62.817 10.002 23.378-1.738 33.692 34.99-12.195 47.796 28.469 23.13-3.407 16.536 22.12 39.852-6.346 9.251 17.366 15.722 53.893 38.7 29.197-.83 23.269 32.14 90.693 30.39 22.225 18.101-59.268 8.892 57.545 29.263 31.59m76.6-104.503c-37.204-26.272-81.31.712-91.463-10.005-69.73 12.431 64.28-33.477 86.196-4.852 16.252-.165 27.685 16.054 5.267 14.857m95.83-35.707c42.937-18.136-12.381 18.643 0 0m-309.764-78.307c18.93-42.249 6.33 14.593 0 0m130.667-272.725c15.455-21.739 34.733-38.999 42.447-15.633 48.102 9.98-35.003 11.468-42.447 15.633m-166.552-38.424c26.183-40.806.22 16.28 0 0m364.57-15.83c-28.799-23.553-54.806-96.388 5.982-52.087 27.336 14.158 157.086 19.787 61.447 22.747-51.44-19.038-35.452 3.617-50.602 7.146-55.584-35.186.444 3.261-13.913 27.024zm-371.296-15.977c27.297-15.312 57.375-62.068 7.958-22.954-32.999 22.455-66.779 26.463-13.017 2.895 26.242-22.712 76.694-40.062 40.105 1.313 12.221-26.411-49.363 40.299-35.046 18.746m25.278 2.97c4.506-5.409 6.305-3.683 0 0m379.73-57.545c-34.901-17.29-122.857-24.419-58.788-59.008 47.209-75.779 135.276-52.797 196.987-10.658 46.611 25.367-78.704 76.327-116.835 69.803l-14.9.093zm59.603-10.782c39.835-3.993 130.164-48.624 46.434-63.013-21.51-14.32-118.55-54.552-63.096-5.47 11.024 70.962-89.79 47.391-30.522-1.991 21.737 53.51.012-.322-7.938 13.792-3.626 79.032 67.497-26.327 1.659-27.218-78.427 28.371 9.788 132.453 49.829 61.318-5.508 22.758-45.327 32.67 3.634 22.582m-86-6.903c-50.764-50.946 102.952-117.135 4.493-71.552-26.476 30.623-76.63 47.559-25.504 62.09 6.721.836 13.345 13.014 21.011 9.462m-540-66.778c52.1-43.037 130.456-70.324 189.56-22.486 50.12 54.074-61.448-36.721-92.25-18.875-34.13 8.554-66.841 24.002-97.31 41.361m724.687-12.922c-62.323-30.663-160.16-69.362-213.452-3.558 22.755-54.68 134.155-50.053 193.891-19.098 11.739-1.805 45.117 29.225 19.561 22.656M607.55 1724.156c5.207-32.492-37.947-27.892-44.796-56.511-11.227 36.377-77.386-48.02-67.472-5.97 9.572 24.798 62.233 41.42 105.89 65.047l5.88.835zm242.628-5.38c-7.94.249-3.263 9.098 0 0m-2.236-5.76c20.98-14.167-17.98 5.178 0 0m28.323-24.739c24.13-14.917-25.574 10.58 0 0m-1.35-5.455c23.277-15.74-25.519 13.35 0 0m.36-6.446c23.805-29.017-16.389-30.596 0 0m31.484-8.425c12.31-12.781-24.392 15.601 0 0m1.354-10.803c-7.15-13.849-9.536 11.412 0 0m41.503-16.992c4.978-6.089-8.98 7.244 0 0m8.28-11.486c5.33-19.446-35.553 27.519 0 0m-2.947 7.486c4.332-6.628-7.584 8.418 0 0m16.684-23c15.55-32.472-21.83 16.002 0 0m-575.853-7.667c-31.892-37.737-43.115-17.38 0 0m597.894-18.928c4.504-31.618-20.703 25.89 0 0m-244.895-9.11c38.344-2.788 140.874-49.795 49.693-22.391-80.46 9.635-161.938 6.117-242.36.337 64.107 9.836 126.52 31.913 192.667 22.054m173.69-8.625c2.58-30.865 6.897-77.654-14.203-57.61 11.604-59.155-18.682-35.838-11.44-1.922 19.172-1.944-12.87 93.336 16.244 23.618 16.126-18.49-8.79 55.94 9.4 35.914m-582.535-11.903c-6.637-16.876 4.588 26.403 0 0m690.095-16.879c41.575-51.485 81.639-112.962 78.075-182.623-22.876 29.942-46.008 110.051-64.087 158.944-20.688 7.317-58.958 79.481-13.988 23.68zm-278.583 11.613c34.354 2.381 158.36-22.484 58.667-23.835-65.066 5.095-124.012 16.874-189.013 7.534-38.888 8.369-54.64 18.433-1.153 15.097 43.792 3.723 87.562 3.91 131.499 1.204m327.176-21.383c-3.217-3.072-34.192 43.228 0 0m-3.188-4.092c32.715-38.194 19.865-96.865-4.692-23.654-11.48 25.783-25.105 68.166 4.692 23.653zm-736.655 21.562c-3.811-7.148-.5 8.718 0 0m-21.633-17.241c-17.339-33.552-15.214-73.813-36.992-84.958 3.758 26.212 21.88 87.494 36.992 84.958m576.206 1.653c-1.107-13.037-3.67 16.502 0 0m-601.11-119.607c-9.577-26.3 1.659 31.289 0 0m-23.028-22.393c12.605-16.053 13.406-107.812 2.303-39.107-4.159 4.39-5.915 79.84-2.303 39.107m12.232-22.491c-3.862-7.387-2.023 11.43 0 0m353.333-28.672c-2.228-4.609-5.747 7.226 0 0m113.737-4.17c14.292-28.295-10.107 6.647 0 0m397.882-6c27.181-37.664-32.024 8.717 0 0m14.168-36.783c21.932-70.706 7.56-142.804 20.018-215.363 12.333-45.804 56.406-159.1-7.08-166.234-22.644 28.011-33.035 93.62 12.616 54.593 15.33 61.75-20.56 126.6-36.562 184.57-9.4 46.722-36.519 148.47-12.554 170.626 8.312-8.982 17.873-17.157 23.562-28.192m-901.12 27.318c29.542-56.629 4.344-128.644 2.196-191.14-17.44-48.571-36.819-105.78-13.086-151.773 14.916-36.534-25.91-90.242-37.593-31.076-1.138 86.144 53.503 167.85 29.388 255.312-4.548 35.686-27.608 105.387 19.095 118.677m-2.667-3.536c4.785-5.076 1.656 5.257 0 0m500.667 2c9.415-11.853-12.548 12.036 0 0m13.333-6.98c-23.225 14.666-1.926 4.504 0 0m.754 4.84c-6.787-.897-5.522 8.301 0 0m-166.57-10.823c-10.763-4.548-25.178 22.89-8.901 6.891zm229.483 9.645c16.732-11.56-25.29 9.858 0 0m1.667-9.68c57.46-35.036-48.176 20.824 0 0m-554.774-5.002c4.307-9.224-7.946 11.502 0 0m885.183-.702c-3.774 2.578-1.584 5.8 0 0m-49.73-20.215c6.242-51.423-11.732 57.32 0 0m-247.176 13.25c4.978-6.087-8.98 7.245 0 0m-578.88-8.278c12.602-64.525-8.692-52.85 0 0m329.377-24.055c-1.372-4.942-18.356 5.427 0 0m-323.61-82.395c-23.848-47.417 18.46 54.574 0 0m196.75-56.202c75.673-28.698 1.886-113.16-57.81-84.758-104.878-4.026-9.932 144.35 33.25 49.93 17.36-84.531-66.857-8.057-29.53-10.111 59.427-30.082-35.194 73.33-15.348-4.101 16.257-87.633 96.042 14.144 24.514 41.077-57.383 9.209 54.144 13.092 44.924 7.963m-225.04-30.894c-3.112-30.363-24.9-146.387-21.741-56.227-.026 18.134 35.887 133.244 21.74 56.227m121.096 19.158c-26.436-35.932 16.056-81.317-48.708-40.66-66.575 9.202 44.04 43.19 48.708 40.66m773.454-26c21.357-22.266 28.069-159.01-2.916-85.423.979 13.46-8.344 119.716 2.916 85.423m-716.99 10c28.075-49.153-38.724 10.91 0 0m371.078-139.04c16.757-31.716 32.095-140.466 5.243-50.267-1.831 24.97-58.58 107.773-5.243 50.267m-531.825 2.586c9.836-8.94-20.041 1.689 0 0m60.42-1.967c-7.132-17.783-16.6-2.004 0 0m173.333-1.284c-15.916-34.785-58.995-113.433-29.288-30.628 7.313 11.456 15.335 26.553 29.288 30.628m-216-5.235c-61.173-38.483-4.627-26.333 26.85-7.608-5.996-14.234-44.886-88.892 12.744-40.165 23.224 25.641 57.362 44.005 17.817 2.415-45.97-77.49 102.717 70.534 41.794-3.637-42.15-54.072 12.157-21.003 29.72 10.454 13.615-82.543-84.456-41.717-136.814-41.927-22.297-.64-35.916 106.578-27.238 71.871 12.162-7.749 22.744 12.763 35.127 8.597m538.915-9.367c12.807-30.685 23.687-116.887 4.836-38.255 3.051 5.749-24.444 52.236-4.836 38.255m-480.03-4.516c-39.788-56.285-48.393-18.882-7.136 1.737zm111.233-3.685c-16.83-30.918-66.341-86.458-24.852-16.724.077 7.435 19.828 22.053 24.852 16.724m389.586-2.568c8.122-29.504 26.837-109.645 4.378-36.598 1.065 5.743-17.913 42.895-4.378 36.598m-467.037-6.684c-38.883-34.71 15.698 23.216 0 0m487.73-3.573c10.931-27.753 35.254-100 8.32-30.876 1.795 4.581-19.687 35.686-8.32 30.876m48.39-9.99c-9.555 2.95.837 3.957 0 0m-3.157-27.135c15.095-58.39-38.818 73.84-1.104 3.472zm91.81 13.716c-10.17-.183-4.217 6.5 0 0m-62.588-4.065c21.292-50.716-23.246 2.918 0 0m25.865-5.193c11.15-33.75-22.324 18.252 0 0m-514.574-1.109c-3.554-31.08-14.36-1.279 0 0m542.413-.082c1.727-9.086-8.985 8.397 0 0m35.088.524c16.981-27.846-21.27 9.903 0 0m116.263-6.745c-5.586.953-1.052 10.394 0 0m-61.078-43.906c-4.669 16.997 2.956 49.063.777 7.67zm-566.783 28.426c76.71-5.987 139.133-59.047 215.39-66.813 102.943-17.558 207.262-29.006 311.898-34.39 100.67-23.112 202.89 22.677 286.151 77.44 62.81 58.461-35.784-69.455-76.151-54.565-49.93-36.764-105.091-39.513-161.288-48.7-88.068 1.986-176.857 4.525-264.22 17.069-73.356 38.09-158.638 8.893-237.553 26.437-69.657 20.11-139.826 22.125-210.273 2.84-36.061-16.15-88.79-22.614-58.781 25.78-27.788 5.09-63.9-41.123-49.326 11.735 5.242 74.443 99.794 15.809 144.107 33.481 9.531-14.19 30.472 18.172 48.976 7.64 17.032.039 34.313 7.764 51.07 2.046m-243.424-1.369c-1.09-24.413-8.648 7.133 0 0m851.25-49.252c-6.722-17.125-3.346 48.42 0 0M324.79 793.19c-8.888-68.994-62.637-4.965 0 0m175.275-6.01c71.936 1.226 143.005-28.857 217.8-22.99 76.178 12.971 141.3-28.969 216.973-29.447 64.866-2.722 155.274-6.015 204.43-10.953-39.841-2.086-104.333-22.858-155.154-14.241-76.788 7.349-154.684 4.544-230.638 20.123-67.08 14.415-131.422 46.416-202.69 32.95-50.239 7.859-114.566-15.506-157.319 7.727 33.528 4.168 71.19 21.358 106.598 16.831m634.092-7.891c1.806-45.8-22.469 4.72 0 0m27.025-13.51c-17.988-8.64-7.168 22.504 0 0m-766.517-1.447c-.193-18.762-26.137 9.48 0 0m708.115 0c-4.904-4.86-1.598 8.653 0 0m-826.727-5.37c13.696-16.257 90.712-108.673 22.893-42.116-5.37 5.563-56.907 68.38-22.893 42.117m80.394 3.457c11.015-20.75-59.926-13.49-9.7 1.122zm-40-7.564c-4.094-34.705-41.792 16.582 0 0m317.667 1.348c74.733-22.185 148.53-43.641 227.273-48.342 85.585 3.958 173.527-22.64 256.854 6.048 9.14-23.688-37.098-113.691-68.366-145.043-52.06-51.39-58.79-126.264-108.651-179.287-55.999-42.625-131.523 22.798-199.682 5.841-74.14-10.875-149.293-16.2-224.253-12.074-51.303-15.191-93.872 1.265-61.575 60.718 15.56 18.293 66.233 72.299 16.4 33.807-53.247-7.619-11.713-152.502-56.918-68.69-29.112 65.482-40.033 136.723-61.002 204.013-33.994 41.02-14.035 53.649 10.149 13.522 35.586-18.011 5.458-150.801 32.516-63.095-4.773 54.092 49.558 120.341 52.446 150.143-29.97-17.986-59.402-64.522-34.191-6.091 42.624 12.158-15.64 64.405 43.398 45.748 58.426 1.91 117.574 1.16 175.602 2.782M521.544 711.91c-50.704-20.644 161.69 8.954 107.559-12.825 92.36-6.542-140.696 29.14-84.993 16.292l-7.745-.33zm-75.431-53.963c-55.667-21.18-9.525-46.907-36.698-85.638-22.65-33.881-14.253-140.789 6.958-129.154 15.34 37.02-.961-94.654 14.087-25.603 7.405 42.994-1.877 96.33 31.981 119.415 51.036 41.77 139.71 54.003 187.492 70.758-72.9 1.815-148.754-32.869-208.602-68.523-45.113-20.489 69.51 97.168 12.324 64.924-33.041-37.879-37.384-105.997-47.463-140.304-6.915 68.428 22.382 147.552 52.715 193.243l-5.953 2.553zm-18.179-184.125c-3.43-66.043-5.185 54.583 0 0m336.845 83.346c-90.964-12.833-192.789-36.465-252.666-111.765 42.155 23.198 116.92 83.23 186.099 91.487 30.53 4.077 169.786 28.306 66.567 20.278m116.667-30.356c-37.526-6.805-138.514-36.191-128.45-59.388 33.719 32.836 148.849 82.164 137.952 60.383zM389.274 740.127c-48.755-50.559-9.338 30.58 7.956 7.485zm37.458 5.116c4.116-43.035-32.846 6.323 0 0m-74.586-7.135c-10.323-61.46-46.65 24.457 0 0m54.633-1.436c-3.055-40.596-59.795-28.668-3.487.82l2.753 1.013zm-93.86-55.516c8.566-24.046-72.058 99.843-15.401 22.175l6.402-9.24zm4.527 53.333c-3.407-4.783-3.407 4.783 0 0m1.333-39.65c48.191-47.146 5.519-41.893-13.093 3.775-27.172 37.09-9.658 16.645 13.093-3.776m11.27 16.908c9.91-34.988-15.206 32.496 0 0m28.524 5.878c-3.231-17.343-9.32 6.22 0 0m16.296-14.803c24.113-34.337-33.83-41.042-16.246-1.842l7.928 5.442zm22.078-8.492c-24.384-90.03-16.134 2.527 0 0m-45.396-7.508c36.464-37.629 1.295-20.634-4.6 4.746zm29.708-55.798c-4.345-32.447-52.66 83.533-8.474 21.68 8.082-6.33 12.128-11.235 8.474-21.68m-1.247 20.262c7.61-12.79-22.48 21.17 0 0m16.1-17.59c-8.264-35.592-10.38-9.018-2.552 2.126zm-16.037-21.162c5.07-11.08-8.99 7.277 0 0m412.704-225.94c43.079-1.73 125.02-15.974 45.223-35.898-86.662-2.33-173.847-11.959-260.02.366-36.139-2.311-134.129 39.698-118.913 22.75 81.626 1.157 162.817-.896 244.146 6.532 29.556 4.372 59.496 11.788 89.564 6.25m229.356 1413.273c-9.658-38.85 26.12 23.055 0 0m80.838-7.401c-30.05-4.823 7.94-24.092 2.332-45.175 1.638 10.04 20.917 54.211-2.332 45.175m-32.016-6.72c-25.19-48.387 33.712 12.313 0 0M46.779 1097.541c14.123-35.533 71.339-113.565 8.524-46.608-11.77 14.05-5.995 58.62-21.01 31.386-13.546-21.376 11.924-100.926 19.894-112.014-2.362 38.867 41.968-55.458 68.386-64.95 12.192-16.315 82.233-82.634 69.884-61.756-53.878 49.725-121.275 98.314-140.722 173.41-18.598 79.507 53.647-27.943 71.71-45.229 16.753-33.86 131.728-105.475 53.518-39.096-64.615 35.485-90.485 109.928-129.59 166.531zM175.614 929.98c59.374-47.89-52.914 33.782-18.168 12.145l9.462-6.615z" style="fill:#000;stroke-width:1.33333" transform="translate(-30.394 -337.078)"/><path d="M829.963 2027.942c-65.958-12.902-131.89-23.764-199.458-20.183-56.42-12.216-130.56 19.71-175.797-4.44 32.88-31.273 66.27-91.583 80.161-114.503 20.2 23.867 35.264 52.52-2.332 19.644-12.488 34.897 119.158 61.833 47.548 15.513-32.588-13.574-72.406-124.623-18.316-54.82 28.161 26.693 55.782 19.062 14.312-6.876-36.657-19.862-57.74-84.844-8.476-28.227 20.167 24.952 76 16.928 18.262-3.221-41.768-11.201-72.283-113.232-10.121-45.548 26.325 29.344 56.34 17.244 13.066-6.647-39.495-15.967-86.009-92.104-10.921-52.594 39.419 4.695 41.419 71.32 70.852 37.206 43.83 14.877 103.819-7.104 144.544-19.326 23.073 32.586 68.081-58.257 62.384 13.185.084 89.954 21.027 185.012 80.11 254.455-32.076 9.171-71.57 16.353-105.818 16.382m-284.093-30.748c-5.69-15.027-93.144-40.854-39.632-3.61 12.26 5.505 26.579 7.366 39.632 3.61m15.889-12.45c-1.266-13.614 37.31-10.84-9.662-29.633-45.273-76.81-59.133 47.008 9.662 29.634" style="fill:#e9afaf;stroke-width:1.69481" transform="translate(-30.394 -337.078)"/><path d="M662.424 1734.963c.629-44.79-22.484-57.95-22.382-5.829-24.774 3.812-19.56-53.972-52.088-47.195-8.243-49.429-47.729-.697-73.689-39.363-21.94-9.082-35.632-14.697-37.403-5.047-2.082-57.22-.373-111.191 14.99-155.3 35.21-11.245 75.387-64.525 107.185-34.518 14.89-29.07 36.623-31.124 46.836-1.714 32.148 12.377 71.451 12.605 75.516-12.99 14.026 73.53 59.004-46.425 87.286-8.75 23.134-40.54 6.692-21.408 29.823-1.105 29.059-12.631 35.138-55.687 41.835.693 7.427 25.422 13.98 137.245-23.612 73.862-12.806 53.69-100.356 4.702-143.144 30.603-51.699-5.883-143.456 17.98-168.22 2.175 19.372-31.203-82.385 60.68-16.489 34.59 86.24 1.577 173.644 43.313 260.061 9.675 34.973-7.756 107.53-75.305 79.443 5.988-.528 46.323 31.659-67.205 20.062-5.642-13.06 43.705 17.161 5.04 14.227 10.584-16.899 69.52 73.87-50.574 31.37-77.438-10.764-20.38-7.73-93.535-26.023-64.615 3.105-33.884.437-66.014-9.922-53.22-4.543-75.56-56.28 42.81-53.443 10.31-.023-73.273-45.227 18.75-38.846 2.285-11.916-43.918-68.209 74.527-75.165 12.564-29.753.965-20.52 50.62-62.007 23.154 3.545-43.027-25.374 22.016-29.822-35.056-18.85 2.175-27.304-25.473-34.953 19.406-6.408-64.368-23.347 42.691-28.366-21.967-10.626-17.444-13.552 20.56-23.623-17.846-17.444 17.902-3.32 40.002-22.643 7.196-6.583 27.614-44.247 29.698-26.83 72.704-45.025-50.467-6.5 36.516-40.488 19.96 8.419 40.154-33.093 56.155-10.571 109.863 35.75 51.583-49.317 25.454-29.375 20.766 28.939-10.757-93.862-138.773-48.881-48.422-66.083-58.317-70.352-150.855-84.962-231.492 4.408-23.282 61.289-63.927 19.275-60.66-9.818-64.727 80.64 81.656 60.937 63.97 17.722 37.225 82.908 58.573 25.569 11.193-27.415-23.171-70.878-106.452-72.58-118.826 25.173 39.892 49.482 118.755 106.932 105.166-43.606-9.353-101.457-104.2-93.71-116.639 17.139 23.524 62.826 80.062 82.699 67.15-65.422-55.052-106.605-132.748-135.922-211.734 31.038 34.31 59.465 139.457 103.588 125.13-8.105-28.852-92.538-93.983-55.424-98.4 58.973 27.436 131.41 48.64 190.293 12.147 66.8-46.166-55.571-123.564-107.537-76.307-36.538 6.901-109.161 67.535-120.833 5.327-22.548-51.606-46.443-94.59 28.854-75.595 40.853 15.144 42.987-35.728 87.16-7.454-2.615-40.343 69.453 2.045 92.91 7.146 47.097 22.266 84.13 68.124 101.775 116.175 9.033 53.325 8.547 110.172 19.998 161.533 10.983-66.638 7.322-153.085-31.772-213.609-33.257-48.372-82.38-108.304-90.431-158.91 96.972 5.949 176.287-66.248 272.129-70.711 93.324-14.839 187.49-23.608 281.686-30.22 42.108-45.982 36.833 70.006 54.107 9.72-22.009 31.74-17.057 119.373-17.292 115.306-28.93-14.338-34.968-33.243-66.748-12.76 8.501-46.983-36.336 32.444-30.897-16.426-38.076 48.187-6.627-45.982-39.692 6.433-39.445 65.777 13.842-72.219-29.199-6.375-9.771 24.5-36.824 61.706-18.286 8.401 19.153-26.438 16.956-73.618-7.612-22.025-9.762 22.93-26.434 65.408-12.048 13.806 13.206-29.802 15.375-72.39-8.418-21.001-5.628 13.602-10.363-23.164-28.659 18.294-12.622-32.8-60.891 83.801-67.646 116.996-41.865 70.513-60.404 156.265-36.939 236.485 3.428 58.33 143.491 23.202 124.888 67.372-61.671 21.278-128.247 10.154-152.32 91.356-16.553 34.63-71.974-35.595-73.274-60.157-30.903-54.353-96.367 60.902-120.566-23.14 12.32-22.747 145.125-25.015 73.518-38.445-60.35-4.876-139.581 56.867-46.545 86.547 58.518-7.048 115.283 43.003 153.436 61.656 41.555-67.124 118.845-69.122 178.558-109.428 23.679-80.482-148.653-10.535-121.758-104.068 1.954-17.95-7.027-63.654-11.659-20.21-3.418-17.078-7.466-102.27 3.405-43.736 7.021-66.5 19.692-147.19 89.893-175.828 59.447-35.259 130.33-45.622 200.974-52.006 37.683 16.77 79.273-.115 76.315 56.752 11.187-18.232 14.108 26.524 19.679-20.52 8.442 48.323-6.824 134.425-18.897 193.904-8.975 28.162-7.838 83.291 4.732 22.807 9.426-28.01 22.975-161.797 24.391-72.019 3.076 60.473-29.319 78.65-30.444 139.614-16.17 79.845-21.016 160.508-60.099 234.118-24.393 65.793-69.372 120.867-115.09 172.808-22.573 46.07-82.648-2.226-88.273 63.708-45.26 55.09-132.508 54.101-192.817 47.322zm99.435-106.288c-25.809-49.53-188.974 8.237-73.17-4.386 24.715-11.294 52.896 15.07 73.17 4.386m89.894-27.46c52.245-19.734-42.887 1.095 0 0m-310.717-82.143c14.926-26.209 5.155 16.48-3.888 3.865zm151.647-275.631c72.024-4.04-33.428-43.374-22.456 2.768l8.519-1.2zm-185.232-39.798c34.555-47.015-39.972 33.919 0 0m361.157-17.884c-24.88-42.677 14.658-10.71 41.663-27.658 33.614 13.145 76.13-2.185 18.266-5.903-35.814 2.284-126.511-61.389-84.856 17.224 3.315 3.83 29.573 46.765 24.927 16.337m-360.37-18.532c32.991-7.672 41.393-56.4-7.03-22.444-34.002 16.474-58.784 41.889-5.823 12.516 84.628-62.637-46.864 59.246 12.852 9.928m13.27 10.16c-4.345-6.276-6.516 6.077 0 0m426.956-56.85c50.028-1.969 145.282-60.98 54.141-88.234-62.072-44.267-174.499-7.839-182.195 61.154 39.417 18.614 83.534 36.848 128.054 27.08m-569.32-106.349c50.037-41.844 115.395 4.91 152.936 13.452-49.976-63.583-147.26-39.096-199.912 7.86 16.396-5.405 30.966-14.944 46.975-21.312m685.79 9.806c-47.02-49.94-142.74-59-204.47-27.14-45.854 46.96 47.625-33.934 79.409-9.827 44.077.852 85.443 31.694 125.06 36.967" style="fill:#e9afaf;stroke-width:1.69481" transform="translate(-30.394 -337.078)"/><path d="M1132.484 1310.854c-13.687-98.309 34.518-191.609 55.545-285.623 4.727-32.925 9.447-74.513-30.218-52.408-18.49-45.618 43.01-88.094 47.785-22.773-.596 71.544-38.699 137.655-31.579 210.39-4.984 44.8 6.62 146.025-41.533 150.414M244.502 1309.279c-34.834-65.646 22.978-142.465-3.928-212.733-3.743-48.864-60.693-158.208-2.194-170.587 21.627 62.413-19.667 137.227 20.932 202.012-.549 48.384 41.766 173.868-14.81 181.308" style="fill:#e9afaf;stroke-width:1.69481" transform="translate(-30.394 -337.078)"/><path d="M1158.895 1062.817c-12.4-30.253 22.71-130.002 20.316-47.637 3.536 16.217-26.448 116.84-20.316 47.637M285.95 942.501c-50.69-22.888 19.623-100.1 68.182-80.336 35.972-33.485 101.95 41.948 69.035 34.205-17.502-29.914-57.282-31.628-20.525 5.297 39.892 49.562-86.283-68.864-41.924 2.64 50.498 66.066-73.727-71.418-44.928 6.617 49.365 57.478-77.12-17.6-24.773 30.888 25.467 9.543-6.786 6.598-5.066.69" style="fill:#e9afaf;stroke-width:1.69481" transform="translate(-30.394 -337.078)"/><path d="M434.294 754.793c12.605-28.414-58.524-100.615-1.116-51.922 51.173 36.9-50.65-94.094 10.397-45.193 33.566-5.598-37.021-77.658-29.885-111.437-9.112-32.397-9.52-110.48 1.952-35.369 6.833 30.26 21.084 101.636 54.579 94.26-17.15-29.005-64.652-94.965 1.197-48.017 55.393 28.623 116.195 53.631 179.742 50.549-69.515-26.736-160.43-28.634-206.368-94.754-3.346-37.382-27.706-100.763-8.95-126.396-6.51 37.928 29.45 114.87 54.975 97.675-59.314-38.038-54.904-133.69 31.347-100.743 85.758-5.554 170.835 9.246 255.881 14.852 61.35-7.642 151.25-54.846 186.224 23.971 31.963 62.646 60.693 127.182 109.063 179.364 17.597 28.237 86.605 140.394 4.285 101.946-89.513-8.116-179.602 3.922-268.946 9.384-62.575 6.134-121.863 31.335-182.927 42.184-63.696-.634-128.955-3.185-191.45-.354m143.99-41.174c40.202 2.87 96.463-25.584 38.592-8.069-23.849-.203-151.383-7.65-71.374 12.258 10.99-.873 21.891-2.528 32.781-4.19m224.562-156.39c-70.148-20.538-148.206-18.971-210.193-63.458-24.383-14.238-113.26-74.183-55.465-21.131 71.891 60.493 173.56 85.298 265.658 84.588m89.825-27.26c-47.033-6.568-107.389-40.72-140.455-57.748 31.398 32.152 97.772 58.073 140.455 57.749" style="fill:#483737;stroke-width:1.69481" transform="translate(-30.394 -337.078)"/><path d="M748.612 386.464c-87.423-15.4-176.493-11.031-264.847-13.264 116.823-38.468 242.287-28.391 362.8-18.875 82.947 26.322-94.218 36.293-97.953 32.14M503.712 861.99c-4.661-.802-14.576-1.331-22.033-1.175-12.732.266-14.238-.098-24.715-5.969-10.77-6.035-18.984-7.892-20.936-4.733-.546.884-3.595.901-7.303.04-10.578-2.456-25.269-1.74-55.22 2.694-42.924 6.354-59.65 5.228-70.318-4.734-6.276-5.86-8.519-11.527-12.285-31.043-4.794-24.844-4.156-25.443 17.333-16.262 17.263 7.376 31.28 9.84 30.81 5.416-.148-1.398-2.013-6.54-4.145-11.428-4.817-11.047-3.368-16.86 5.28-21.194 10.153-5.088 20-3.571 62.69 9.654 33.724 10.448 86.821 15.058 128.727 11.177 20.71-1.918 45.025-6.418 84.82-15.696 12.67-2.954 23.7-3.522 91.52-4.71 86.25-1.51 95.805-2.623 126.003-14.665 15.74-6.277 22.013-7.483 59.964-11.533 49.098-5.24 106.12-8.594 175.875-10.347 40.417-1.015 43.698-.856 71.182 3.457 63.079 9.9 91.157 18.63 120.788 37.55 6.907 4.41 10.747 5.703 16.948 5.704 15.764.003 43.823 17.879 68.255 43.486 12.645 13.253 21.471 24.305 19.41 24.305-.598 0-5.888-3.95-11.756-8.779-20.576-16.93-73.006-46.05-110.395-61.312-37.613-15.354-71.672-23.734-107.487-26.447-19.808-1.5-53.35.143-67.793 3.322-4.194.923-25.168 2.85-46.607 4.284-88.943 5.945-165.601 14.755-263.543 30.288-44.055 6.986-57.956 11.043-103.325 30.154-49.35 20.788-66.566 27.14-86.494 31.912-34.295 8.213-47.845 9.58-65.25 6.584" style="fill:#483737;stroke-width:1.69481" transform="translate(-30.394 -337.078)"/><path d="M470.252 785.753c-24.832-5.967-111.354-17.221-39.029-24.495 89.167.34 181.411 16.951 267.392-16.059 104.178-32.992 214.954-27.792 322.596-36.587 36.106 3.022 150.418 18.16 59.156 18.59-91.814 5.307-185.253 2.505-273.832 31.137-72.602 13.327-147.72-2.77-219.668 18.46-38.457 5.93-77.616 12.57-116.615 8.954M337.35 647.668c40.688-77.78 43.868-170.625 85.01-249.046 16.568 57.945-38.232 45.759-26.894 110.68-4.684 33.126 37.018 109.115 17.252 120.02-12.863-27.707-28-143.945-30.985-55.637 2.825 28.403-18.757 69.815-44.382 73.983" style="fill:#483737;stroke-width:1.69481" transform="translate(-30.394 -337.078)"/><path d="M182.192 856.727c14.428-19.334 76.779-43.488 21.713-18.441-61.44 45.183 61.614-39.905-5.612 2.34-56.991 42.217 2.503-3.854 28.812-15.253" style="fill:#483737;fill-opacity:1;stroke:#000;stroke-width:1px;stroke-linecap:butt;stroke-linejoin:miter;stroke-opacity:1" transform="translate(-30.394 -337.078)"/><path d="M222.868 887.234c-29.394 26.858-60.735 52.935-16.101 17.795 48.236-40.131-14.89 6.506-32.201 19.49-15.344 14.403 48.512-31.743 48.302-37.285z" style="fill:none;stroke:#000;stroke-width:1px;stroke-linecap:butt;stroke-linejoin:miter;stroke-opacity:1" transform="translate(-30.394 -337.078)"/><path d="M51.184 1044.353c-2.054-79.038 70.234-135.787 124.167-184.018 35.51-46.472 56.798-3.182 28.318 28.23-45.38 40.55-117.566 97.266-135.328 139.315 42.91-42.566 87.653-111.667 138.87-128.85-64.444 33.037-98.505 98.86-150.47 145.612z" style="fill:#483737;fill-opacity:1;stroke-width:.847406" transform="translate(-30.394 -337.078)"/><path d="M699.58 1579.247c-34.83-1.616-134.02-26.378-124.336-22.084 86.268 3.955 174.568 10.386 259.157-9.972-40.312 23.507-88.195 34.86-134.821 32.056" style="fill:#de8787;fill-opacity:1;stroke-width:.599206" transform="translate(-30.394 -337.078)"/><path d="M661.59 1552.636c-34.347 1.661-114.135-3.754-37.342-16.473 74.193 12.425 148.576-14.432 222.275-4.38-50.722 28.148-125.655 18.515-184.933 20.853" style="fill:#de8787;fill-opacity:1;stroke-width:.599206" transform="translate(-30.394 -337.078)"/><path d="M939.302 1109.316c40.193-34.72-54.988 33.344-61.482-26.678-30.903-85.255 103.734-41.7 30.04-1.782-24.82-48.189 31.164 1.551 1.311-41.405-66.394 60.223 71.039 54.64 23.565-6.168-11.929-33.424 86.044 20.047 103.616 34.308-14.469 30.74-82.941 48.081-97.05 41.725M445.71 1121.25c-1.15 1.112 68.73-71.297 3.235-84.341-57.69 19.107-9.058 105.689 7.8 33.592-66.589 16.08 34.143-58.107 11.683 9.353-20.737 95.17-134.65-33.62-42.52-41.968 71.262-45.29 144.802 85.003 45.435 84.326l-15.306-.4z" style="fill:#fff;fill-opacity:1;stroke-width:1.69481" transform="translate(-30.394 -337.078)"/><path d="M370.331 1104.512c-39.476-6.605-69.692-33.586-13.208-43.787 27.532-34.214 37.134 71.548 13.208 43.787M859.155 1098.943c-96.565-10.423 90.39-113.181 12.709-48.364-25.246 7.24 3.626 62.963-12.71 48.364" style="fill:#fff;fill-opacity:1;stroke-width:1.69481" transform="translate(-30.394 -337.078)"/><path d="M1052.51 717.964c-1.715-.87-3.534-2.48-4.042-3.58s-1.617-3.342-2.464-4.982c-.848-1.64-1.54-4.155-1.54-5.588 0-1.434-.537-2.938-1.193-3.343-2.6-1.607-3.191-15.093-3.984-90.754-.819-78.201-.838-78.627-3.26-72-1.341 3.667-2.948 7.867-3.573 9.333-.624 1.467-2.387 6.166-3.918 10.442-3.988 11.14-6.334 15.231-10.18 17.752-3.162 2.071-3.535 2.069-5.64-.034-1.97-1.97-2.234-5.469-2.103-27.873.142-24.313 1.045-33.897 4.484-47.62 1.56-6.225 4.11-21.793 6.77-41.333.85-6.234 2.096-14.334 2.77-18 .675-3.667 1.712-11.167 2.304-16.667 1.247-11.595 2.206-14.107 9.105-23.876 3.7-5.238 8.804-9.71 18.67-16.355 12.57-8.467 14.351-9.255 23.996-10.606 12.136-1.701 11.636-1.7 23.763-.105 6.244.822 13.238 3.062 21.079 6.752 6.453 3.038 12.245 5.523 12.87 5.523s4.374 3.162 8.333 7.027c6.368 6.217 7.456 8.097 9.455 16.333 1.242 5.119 2.257 10.365 2.255 11.658 0 2.352 2.518 7.701 4.247 9.01.505.382 1.332 16.882 1.838 36.667.506 19.784 1.443 36.982 2.082 38.218.64 1.235 1.162 5.285 1.162 9s.6 6.754 1.334 6.754c.733 0 1.333 1.165 1.333 2.588s.6 2.959 1.333 3.412c.734.453 1.334 3.296 1.334 6.317s.73 7.51 1.62 9.975c1.272 3.518 1.272 5.04 0 7.077-.89 1.427-1.62 4.813-1.62 7.524 0 4.596-3.688 17.382-6.923 24-.778 1.592-1.032 4.931-.565 7.421.696 3.71.267 5.075-2.379 7.56-4.36 4.098-8.103 3.232-8.234-1.905-.056-2.183-.481-4.87-.945-5.97-.87-2.064-1.526-9.97-3.485-42-1.064-17.397-2.672-28.852-4.81-34.27-.74-1.873-1.342-1.992-3.444-.679-1.922 1.2-2.549 3.133-2.549 7.859 0 3.447-.6 6.638-1.333 7.09-1.84 1.138-1.722 26.412.131 28.266 1.475 1.474 1.368 3.484-1.54 29.068-1.628 14.33-1.802 22.366-.62 28.667.797 4.25.278 5.334-5.807 12.131-7.557 8.44-14.132 12.336-17.646 10.456-1.251-.67-3.98-4.832-6.063-9.25-2.084-4.417-4.838-8.366-6.122-8.774-2.531-.806-2.948-2.862-1.154-5.692.695-1.098.12-4.627-1.478-9.071-1.981-5.511-2.4-8.955-1.726-14.204 1.713-13.351 2.228-43.927.764-45.39-.809-.81-1.405-7.422-1.405-15.584 0-7.798-.395-14.572-.878-15.055-1.72-1.72-4.456 2.164-4.456 6.33 0 2.33-.555 4.806-1.233 5.503-1.72 1.767-2.818 17.76-3.518 51.267-.33 15.766-1.173 29.866-1.874 31.333-.7 1.467-1.632 9.567-2.07 18-3.676 70.665-4.324 77.273-8.306 84.713-3.7 6.913-13.95 12.07-18.952 9.534m14.157-8.37c1.773-2.706 2.377-7.415 2.78-21.667.285-10.016 1.062-19.41 1.729-20.877s1.52-8.066 1.895-14.666 1.324-19.5 2.11-28.667 1.704-29.567 2.042-45.333c.339-15.767.973-29.567 1.41-30.667s.688-5.99.56-10.869c-.134-5.085.372-9.242 1.185-9.745.78-.482 1.419-2.76 1.419-5.06 0-4.516 5.545-13.632 9.62-15.813 2.886-1.544 7.657-.381 7.836 1.91 1.48 18.912 1.87 69.878.579 75.397-.775 3.311-.244 6.901 2.026 13.698 2.264 6.778 2.683 9.604 1.589 10.699-1.095 1.094-.813 2.055 1.067 3.635 1.406 1.181 4.293 5.448 6.416 9.481 4.868 9.25 7.598 9.845 14.095 3.073 3.864-4.028 4.693-5.76 4.025-8.406-1.754-6.946-2.146-16.428-.794-19.16.773-1.562 1.75-7.94 2.171-14.173 1.013-14.99 1.012-15.259-.052-35.483-.642-12.218-.477-17.756.55-18.391.92-.569 1.171-3.098.67-6.755-.733-5.345-.368-6.375 4.263-12.027 2.786-3.4 6.772-7.063 8.859-8.142 4.204-2.174 4.262-2.11 5.622 6.131.424 2.567 1.349 7.367 2.056 10.667s1.311 13.83 1.343 23.4c.035 10.482.625 17.966 1.482 18.824.784.783 1.442 6.004 1.464 11.602.041 10.478 1.686 14.466 3.257 7.895.49-2.047 1.474-4.464 2.188-5.371s.958-2.538.541-3.624-.183-2.329.518-2.762c.701-.434 1.275-3.718 1.275-7.298s.6-6.88 1.333-7.333c.734-.453 1.334-2.553 1.334-4.667s-.6-4.213-1.334-4.666c-.733-.454-1.333-3.528-1.333-6.833s-.69-7.3-1.535-8.878c-2.441-4.56-4.056-18.665-4.685-40.901-.32-11.337-1.2-21.355-1.953-22.263s-1.256-3.033-1.117-4.721c.138-1.69.186-6.902.104-11.584l-.147-8.513-2.473 3.18c-1.36 1.748-5.31 7.34-8.777 12.425-6.262 9.183-14.66 16.47-23.217 20.145-2.457 1.055-7.318 4.305-10.801 7.221-7.55 6.321-11.686 8.058-19.152 8.045-6.264-.012-20.593-4.014-24.72-6.904-6.326-4.432-25.412-22.777-28.836-27.718-2.046-2.953-4.215-5.368-4.819-5.368-1.43 0-3.28 7.382-5.183 20.667-.84 5.866-2.14 13.666-2.887 17.333-.748 3.667-1.871 12.667-2.496 20-.626 7.333-1.705 18.433-2.399 24.667-2.39 21.482-2.984 34.666-1.56 34.666 1.69 0 5.024-7.371 9.949-22 2.4-7.127 4.297-11.921 6.193-15.648.648-1.274 1.178-3.17 1.178-4.215 0-2.559 8.094-9.243 9.495-7.841.612.611 1.35 38.595 1.642 84.408.516 81.125.76 89.639 2.63 91.509.495.494.9 2.563.9 4.598s.6 4.07 1.333 4.523 1.333 1.772 1.333 2.931c0 6 10.647 7.707 14.204 2.278m43.489-229.451c3.232-2.98 9.724-7.31 14.426-9.621 6.188-3.044 9.793-5.922 13.06-10.43l4.51-6.228-6.51 5c-3.582 2.75-8.421 5.858-10.754 6.906s-4.657 2.577-5.163 3.396c-1.01 1.633-19.649 10.485-27.614 13.114-7.217 2.382-4.767 4.505 4.43 3.84 6.828-.494 8.428-1.196 13.615-5.977m-23.36-1.381c-2.016-.305-5.316-.305-7.333 0-2.017.306-.367.555 3.667.555s5.683-.25 3.666-.555m19.19-9.665c2.637-2.175 8.08-5.183 12.094-6.684 10.513-3.934 17.55-13.357 18.938-25.363.381-3.3 1.074-8.533 1.54-11.63.64-4.27.167-7.03-1.958-11.42-1.542-3.186-2.803-6.39-2.803-7.12 0-1.874-5.997-6.084-16.76-11.765-5.082-2.683-11.792-6.391-14.91-8.24-7.792-4.619-15.626-4.792-21.673-.48l-4.658 3.322 6 .418c6.853.476 9.34 2.11 6.913 4.537-1.077 1.076-5.193 1.486-12.247 1.218l-10.626-.402-9.986 6.325c-5.492 3.48-11.118 7.581-12.502 9.115-3.142 3.482-5.552 13.142-5.552 22.256 0 6.125.675 7.838 5.667 14.387 6.886 9.033 10.732 12.466 22.177 19.798l8.823 5.651 13.363.015c12.856.014 13.545-.135 18.16-3.938m7.187.688c2.543-1.063 4.623-2.27 4.623-2.684 0-.745-9.284 2.79-10.487 3.992-1.163 1.164 1.222.631 5.864-1.308m24.957-16.49c2.016-1.876 3.666-4.248 3.666-5.272 0-2.732-1.327-1.767-8.692 6.315-5.414 5.94-5.902 6.833-2.64 4.827 2.2-1.353 5.65-3.994 7.666-5.87m4.98-11.99c-.019-1.943-.2-1.978-1.314-.255-1.687 2.612-1.687 4.377 0 3.334.734-.454 1.325-1.839 1.313-3.079m4.93.829c-.425-1.064-.74-.748-.805.805-.058 1.406.257 2.193.7 1.75s.49-1.593.106-2.555m-94.244-46.64c3.3-1.88 8.1-3.81 10.667-4.289s7.667-2.795 11.333-5.146c6.01-3.854 6.351-4.323 3.466-4.761-6.423-.975-32.132 8.36-32.132 11.667 0 .66-2.1 3.183-4.667 5.604-2.567 2.42-4.667 5.434-4.667 6.696s-.6 2.665-1.333 3.119c-.733.453-1.333 1.407-1.333 2.12s2.85-1.603 6.333-5.148 9.033-7.984 12.333-9.863m-10 12.223c1.328-1.467 2.114-2.667 1.747-2.667s-1.753 1.2-3.08 2.667-2.113 2.667-1.747 2.667c.367 0 1.753-1.2 3.08-2.667m99.334-4c0-.733-.636-1.333-1.412-1.333-.777 0-1.041.6-.588 1.333s1.088 1.333 1.412 1.333.588-.6.588-1.333m-89.62-3.333c2.698-1.834 4.434-3.334 3.859-3.334s-3.255 1.5-5.953 3.334c-2.698 1.833-4.434 3.333-3.858 3.333s3.254-1.5 5.952-3.333" style="fill:#000;stroke-width:1.33333" transform="matrix(2.24933 0 0 1.97443 -1793.984 -331.577)"/><path d="M57.452 96.754c-12.039-7.719-18.185-13.082-24.429-21.316-5.618-7.41-6.622-13.086-4.301-24.323 2.157-10.442 4.322-12.836 21.014-23.233l5.818-3.624 9.143.353c10.088.388 14.454-.43 14.454-2.709 0-2.179-1.951-3.116-7.283-3.497-5.826-.417-5.816-.918.088-4.131 3.36-1.828 4.25-1.995 9.02-1.689 4.928.316 5.962.707 14.991 5.659 13.135 7.203 22.43 12.625 24.45 14.262 2.185 1.77 7.416 14.72 7.372 18.25-.018 1.493-.63 6.727-1.362 11.631-2.306 15.475-6.989 22.205-19.646 28.234-3.81 1.815-8.537 4.454-10.505 5.866-5.988 4.296-7.183 4.565-20.241 4.565h-11.88Z" style="fill:maroon;stroke-width:.726447" transform="matrix(2.24933 0 0 1.97443 479.153 402.104)"/><path d="M79.831 114.341c-.68-.123-1.539-.422-1.909-.665l-.673-.44.771-.69c.434-.387 2.114-1.177 3.836-1.803 10.214-3.715 24.71-10.7 27.72-13.358.978-.864 2.811-2.053 4.544-2.95 3.754-1.94 7.623-4.462 12.343-8.045 2.084-1.582 3.789-2.803 3.789-2.714 0 .477-4.774 6.638-6.461 8.34-2.424 2.442-4.602 3.927-10.156 6.924-5.002 2.699-9.813 5.852-12.92 8.468-1.2 1.01-2.934 2.47-3.852 3.241-2.2 1.848-4.26 2.822-6.935 3.278-2.774.472-8.484.707-10.097.414M24.691 38.577c0-.136.51-.821 1.131-1.521.623-.701 1.2-1.63 1.285-2.064l.299-1.547c.258-1.34 2.015-3.691 5.367-7.185 2.04-2.127 3.46-3.838 3.775-4.549.613-1.386 1.984-2.435 5.351-4.093 5.083-2.503 11.566-4.842 18.236-6.58 3.32-.865 4.429-1.043 6.678-1.072 1.483-.019 2.914.054 3.18.163.476.194.476.21 0 .738-.854.954-6.56 4.59-9.396 5.987-1.512.746-3.766 1.668-5.009 2.049-7.625 2.339-10.368 3.487-14.002 5.858-3.119 2.034-7.07 5.286-10.858 8.935-3.26 3.141-5.536 5.13-5.87 5.13-.092 0-.167-.112-.167-.249M118.652 87.426c.926-1.3 8.649-9.669 10.067-10.91 1.691-1.478 2.303-1.577 2.303-.37 0 1.605-1.937 4.088-5.522 7.076-2.296 1.914-6.637 4.917-7.108 4.917-.136 0-.018-.32.26-.713M96.756 99.662c.41-.664 8.755-4.093 9.897-4.067 1.082.025-3.297 2.233-7.067 3.564-2.4.847-3.122.975-2.83.503M130.141 72.758c-.207-.336.349-1.78 1.247-3.24l.79-1.284.084.881c.13 1.374-.19 2.586-.86 3.257-.646.646-1.028.763-1.26.386" style="fill:maroon;stroke-width:.256838" transform="matrix(2.24933 0 0 1.97443 479.153 402.104)"/><path d="M130.371 72.022c.096-.389.51-1.284.921-1.99l.746-1.285.005 1.156c.005 1.299-.767 2.825-1.43 2.825-.326 0-.379-.154-.242-.706zM131.174 32.643c-.743-.884-.848-1.469-.3-1.679.716-.275 1.432.379 1.432 1.306 0 1.197-.343 1.31-1.132.373M38.175 30.976c2.12-1.76 7.983-5.443 8.246-5.18.246.246-5.357 4.178-7.542 5.293-1.404.717-1.654.676-.704-.113" style="fill:maroon;stroke-width:.256838" transform="matrix(2.24933 0 0 1.97443 479.153 402.104)"/><path d="M45.245 340.037c-2.1-1.1-3.261-2.761-3.261-4.667 0-.71-.4-1.64-1.072-2.484-.652-.82-1.143-1.942-1.255-2.865-.101-.834-.28-2.382-.396-3.44-.117-1.059-.527-2.53-.911-3.27-.391-.752-.865-2.785-1.075-4.614-.556-4.836-1.044-33.388-1.474-86.265-.376-46.177-.827-74.396-1.304-81.493l-.24-3.58-1.211.196c-2.67.433-7.843 5.057-8.51 7.605-.22.847-.538 2.03-.705 2.63-.166.599-1.197 3.132-2.29 5.63-1.093 2.496-3.175 7.972-4.626 12.167C12.443 188.511 8.65 197.2 7.479 197.2c-1.347 0-.873-12.014 1.276-32.327.497-4.694 1.472-14.502 2.167-21.793 1.45-15.197 1.956-19.27 3.437-27.605.586-3.296 1.658-9.834 2.384-14.53 1.885-12.202 3.375-18.757 4.597-20.23.554-.667 1.398.14 5.018 4.794 2.688 3.455 14.303 15.271 20.53 20.886 4.846 4.37 8.602 7.238 10.907 8.33 5.966 2.825 17.077 5.475 22.918 5.466 6.878-.01 10.31-1.431 18.176-7.528 5.905-4.577 8.67-6.388 12.588-8.248 4.367-2.072 9.109-5.449 13.252-9.436 4.156-4.001 6.535-6.925 11.695-14.374 1.868-2.697 4.43-6.277 5.692-7.955l2.297-3.052.008 11.043c.007 10.284.058 11.153.74 12.656 1.155 2.546 1.898 10.012 2.334 23.45.462 14.233 1.412 26.368 2.573 32.87.62 3.475.954 4.686 2.153 7.81.91 2.37 1.13 3.724 1.605 9.856.26 3.352.476 4.32 1.26 5.659 1.683 2.87 1.61 6.922-.166 9.325-.6.81-.812 2.051-1.215 7.084-.42 5.24-.6 6.253-1.282 7.174-.675.914-.758 1.36-.553 2.996.21 1.682.105 2.19-.843 4.068-.595 1.18-1.433 3.325-1.862 4.766-.842 2.83-1.261 3.393-1.777 2.385-.612-1.196-.824-3.156-1.172-10.816-.343-7.548-.507-8.76-1.576-11.66-.723-1.96-1.313-10.017-1.315-17.942-.002-7.06-.578-18.71-1.078-21.794-.927-5.72-3.397-18.096-3.769-18.883-.595-1.259-1.433-1.306-3.679-.208-3.245 1.588-9.333 7.515-12.34 12.014-1.876 2.806-2.137 4.258-1.62 9.011l.443 4.06-.966 2.032c-.922 1.941-.965 2.299-.965 7.92 0 3.237.262 10.985.582 17.217.917 17.827-.081 35.403-2.455 43.219-.694 2.284-.749 3.092-.554 8.207.13 3.412.508 7.106.95 9.272.73 3.587.73 3.605.016 5.219-.404.914-2.022 2.96-3.714 4.698-6.373 6.544-8.427 6.088-13.672-3.037-2.757-4.796-5.493-8.737-7.113-10.246-1.058-.984-1.175-1.93-.328-2.633.932-.774.41-4.453-1.488-10.495-2.389-7.602-2.593-9.006-2.083-14.29.235-2.429.53-9.565.656-15.858.335-16.688-.697-57.433-1.52-60.026-.596-1.878-5.826-2.54-8.246-1.044-2.77 1.712-6.653 7.017-8.29 11.324-.395 1.04-.881 3.22-1.08 4.843-.228 1.875-.617 3.306-1.066 3.925-1.13 1.56-1.428 3.707-1.438 10.358-.005 3.436-.247 8.094-.538 10.352-.552 4.285-1.112 15.677-1.47 29.894-.5 19.847-1.251 35.701-2.38 50.228a3034 3034 0 0 0-1.443 19.614c-.863 12.354-1.26 15.98-2.177 19.874-.855 3.632-1.33 9.306-1.81 21.612-.52 13.393-1.037 17.78-2.4 20.42-1.892 3.66-7.033 5.018-11.045 2.917" style="fill:#d40000;stroke-width:.363224" transform="matrix(2.24933 0 0 1.97443 479.153 402.104)"/></svg>
