<?xml version="1.0" encoding="UTF-8" standalone="no"?>
<svg
   xmlns:dc="http://purl.org/dc/elements/1.1/"
   xmlns:cc="http://creativecommons.org/ns#"
   xmlns:rdf="http://www.w3.org/1999/02/22-rdf-syntax-ns#"
   xmlns:svg="http://www.w3.org/2000/svg"
   xmlns="http://www.w3.org/2000/svg"
   xmlns:sodipodi="http://sodipodi.sourceforge.net/DTD/sodipodi-0.dtd"
   xmlns:inkscape="http://www.inkscape.org/namespaces/inkscape"
   inkscape:version="1.0 (4035a4fb49, 2020-05-01)"
   sodipodi:docname="villager8claw.svg"
   viewBox="0 0 968.99072 1478.0826"
   height="1478.0826"
   width="968.99072"
   id="svg59"
   version="1.1">
  <metadata
     id="metadata65">
    <rdf:RDF>
      <cc:Work
         rdf:about="">
        <dc:format>image/svg+xml</dc:format>
        <dc:type
           rdf:resource="http://purl.org/dc/dcmitype/StillImage" />
        <dc:title></dc:title>
      </cc:Work>
    </rdf:RDF>
  </metadata>
  <defs
     id="defs63" />
  <sodipodi:namedview
     inkscape:current-layer="g67"
     inkscape:window-maximized="1"
     inkscape:window-y="-11"
     inkscape:window-x="-11"
     inkscape:cy="845.55853"
     inkscape:cx="832.60719"
     inkscape:zoom="0.39335742"
     inkscape:snap-text-baseline="true"
     showgrid="false"
     id="namedview61"
     inkscape:window-height="1826"
     inkscape:window-width="1080"
     inkscape:pageshadow="2"
     inkscape:pageopacity="0"
     guidetolerance="10"
     gridtolerance="10"
     objecttolerance="10"
     borderopacity="1"
     bordercolor="#666666"
     pagecolor="#ffffff"
     inkscape:document-rotation="0"
     fit-margin-top="0"
     fit-margin-left="0"
     fit-margin-right="0"
     fit-margin-bottom="0" />
  <g
     id="g67"
     inkscape:label="Image"
     inkscape:groupmode="layer"
     transform="translate(-75.865877,-101.55629)">
    <path
       d="m 631.99997,1578.3336 c -55.09293,-17.6835 -112.66645,-12.7219 -168.6578,-16.4857 -40.30983,-9.2508 -105.06956,18.4395 -129.72747,-1.1108 31.02304,4.8238 93.45146,-99.902 44.97423,-47.1538 42.3726,-48.6291 41.32405,-126.8767 23.04213,-184.8938 -23.335,-38.0025 -95.81319,-55.2406 -101.57778,-92.0265 28.79171,20.1897 40.97869,32.3565 8.74373,-0.2871 -49.97169,-37.6033 -61.66352,-136.2933 -83.71939,-165.1728 6.94999,57.9506 -78.81528,104.53 -68.33276,23.2003 25.36719,-48.2138 49.61037,-98.72521 40.42606,-155.66162 -28.1932,-38.2372 -42.87151,-74.55107 -1.18249,-108.28357 -63.5885,-27.79444 -76.09676,-118.6159 -69.94726,-182.41702 17.5343,-76.46791 83.081,-131.61471 147.19121,-168.31321 C 270.15676,436.97709 185.74291,494.0733 165.6215,516.87705 113.09635,569.7379 68.996957,641.32555 84.919917,718.98292 90.629704,770.92234 119.94468,870.31596 189.94111,837.87998 123.32037,885.29908 80.790962,779.01165 78.728988,725.51347 61.966609,651.24747 102.09073,582.33731 150.28394,529.48391 178.43165,477.73688 267.28524,464.56419 292.65238,447.8069 203.144,442.18317 165.1043,329.31641 203.93328,257.45032 c 42.68519,-88.2166 140.01207,-134.10308 231.70431,-153.39179 68.16793,-14.227182 134.4794,20.22884 179.2199,70.11019 55.52264,35.57972 48.81,109.61343 58.43421,155.1432 62.76739,17.11697 122.64279,-43.83597 182.33193,1.3734 59.71307,41.40602 99.70243,105.50686 159.13627,150.70562 34.5345,62.82808 32.4654,140.57658 26.7465,210.13325 -14.1219,76.37343 -44.24999,157.57551 -115.58857,195.31978 -43.64572,49.4128 29.97831,138.54863 -54.47875,155.59573 -33.99677,48.4908 46.13785,96.0401 45.28814,20.0439 0.34787,-34.7533 2.93193,-61.3079 8.64376,-11.5549 7.82773,48.3636 -65.31046,91.8935 -64.92923,23.0775 6.86579,-36.7304 2.92098,-61.4263 -9.28249,-12.1656 -22.52141,74.758 -52.50633,148.5271 -98.94753,211.3365 -17.01242,25.8897 -67.9328,60.2631 -11.42541,19.9733 18.75445,-13.5168 63.88723,-48.0717 24.4093,-11.6995 -52.83734,23.3554 -110.42811,58.3232 -90.99372,125.813 4.66325,49.0567 14.1863,101.644 50.0265,137.4951 60.4668,47.4324 -52.23129,19.3296 -84.90907,34.5793 z m 27.46549,-4.11 c 33.67282,-8.913 89.03012,-5.9146 40.71461,-45.8639 -42.60773,-51.967 -23.5425,-143.4771 -49.22275,-186.3696 -57.48295,11.4209 -118.59209,48.4747 -175.43571,14.6088 -24.14459,-18.2759 -83.74736,-30.6721 -39.19807,9.3415 23.41315,14.8604 68.4183,58.5955 13.65416,20.7205 -69.49036,-52.083 33.26002,42.8969 25.10038,51.4344 -25.54746,1.606 -77.45508,-64.7669 -41.81895,-7.0488 25.92967,17.6262 52.20599,52.881 6.26164,18.8302 -66.55748,-68.7725 22.86286,59.7082 24.79255,61.938 -26.51731,5.3623 -68.58289,-44.6151 -25.26174,-16.6869 -11.8047,-40.4688 -35.23529,-30.6271 -35.67598,5.4584 -24.24736,23.7034 -73.33606,79.7175 -1.13285,58.6091 70.79888,-5.236 143.49124,-4.165 213.20787,8.9133 14.55009,2.7893 29.21041,5.2077 44.01484,6.115 z m -243.29879,-24.8295 c -29.72028,3.3927 -39.85029,-38.4214 -6,-8.5345 10.55784,-3.2716 35.49907,11.6276 6,8.5345 z m 14.90864,-9.7932 c -33.30581,3.2236 -30.12554,-62.6835 -12.12732,-14.8289 4.38477,5.9084 43.44961,14.2447 12.12732,14.8289 z m 12.43511,-7.059 c -32.20548,-0.9788 -41.64305,-61.1602 -12.00843,-15.7849 3.85974,5.676 40.91843,15.4038 12.00843,15.7849 z m 115.51941,-176.4624 c 45.38821,-6.7858 92.91463,-11.2453 102.66683,-32.2741 76.4081,-44.6896 123.54987,-125.7588 160.39447,-203.705 21.97163,-53.2401 36.33435,-84.7114 30.67363,-122.18513 13.24807,-56.73333 31.52821,-115.12612 27.77931,-173.43092 -11.92188,32.56296 -7.95433,84.99034 -26.82482,106.5087 11.86692,-57.73329 23.18836,-115.56011 26.03294,-174.2062 11.27036,-42.36989 -19.88208,-107.46945 6.37457,-136.15212 18.68725,34.32479 -14.15948,98.45666 12.43746,120.15657 54.90928,-20.39067 16.78464,-160.0648 21.87488,-134.71747 59.35686,63.45618 -37.027,127.71129 -32.80742,192.98235 -3.2296,59.02919 92.91507,-0.11385 90.40859,-42.55948 18.6141,-65.51999 37.64453,-157.97727 -23.04238,-206.44132 -40.32321,28.82399 -77.36999,88.03055 -138.70928,84.45054 -49.59309,-33.90076 -94.98357,45.15934 -139.85315,6.7696 54.70963,17.49578 133.10545,-26.47821 127.253,-88.13449 -42.89363,-29.37521 -50.87464,103.62448 -116.11161,74.13078 -24.14678,-21.48068 -54.16081,49.90239 -97.35075,36.45844 -28.36161,9.85387 -83.59359,-32.87472 -24.55992,-9.0999 82.0807,29.43001 140.57023,-70.07895 91.29147,-135.5038 -17.06779,-64.80393 -69.54366,-133.46456 -143.82395,-125.22244 -40.86697,-4.48576 -60.09844,30.66198 -15.32925,46.76081 19.96018,40.3388 100.08541,-5.83948 122.01485,57.09484 51.02308,42.74753 26.78781,158.18856 -51.2221,136.40837 -55.75244,-14.98106 -117.2492,80.7732 -174.55164,16.9655 -36.21974,-32.83239 64.0672,-102.25115 27.19056,-42.88568 26.1865,82.44626 114.87464,-44.49696 55.63161,-80.66016 -31.1784,-56.10077 -99.12493,0.95714 -139.30199,18.22121 -58.4289,10.97293 -109.8536,55.42072 -120.13313,115.59551 -2.2964,55.07649 -7.5446,114.19991 13.2523,166.02393 7.16537,65.32839 1.77068,130.80451 12.62602,196.44106 -5.97447,26.9673 19.90944,90.0381 3.861,71.9245 22.01376,77.1948 35.80923,100.9128 92.58762,160.0491 40.75633,47.132 95.7414,77.4001 153.82886,97.9216 21.29643,5.7274 43.72182,3.6915 65.44142,2.3148 z m 28.19156,-54.0621 c -55.0935,2.9575 -88.49628,-74.0617 -143.84111,-39.0821 13.69691,-21.4747 13.07498,-42.3917 30.78957,-12.2749 42.73283,10.3937 72.78236,-89.3909 107.86368,-30.0855 30.0168,-27.05 64.76099,-29.9121 75.25111,14.78 39.3627,25.3384 27.62116,-69.8194 46.95422,-0.9605 3.74312,30.6171 -27.48305,-18.0819 -41.86375,17.0409 -22.20765,19.4537 -40.11844,56.7735 -75.15372,50.5821 z m 0.0489,-11.3916 c 32.0808,16.0411 81.44787,-57.43 23.258,-31.5425 -28.69398,1.3823 -118.54356,-21.9841 -61.69469,23.0434 11.06237,7.3427 25.14528,12.4254 38.43669,8.4991 z m 35.49138,-2.188 c 4.26387,-6.5658 -7.83948,7.4615 0,0 z m 11.41159,-36.885 c 39.22718,-26.8196 -55.70377,-73.2598 -43.48719,-9.0472 11.60647,7.3976 29.29839,10.4663 43.48719,9.0472 z m -91.00659,-8.4631 c 61.7061,16.0496 -6.12565,-71.0079 -19.23107,-10.6385 -25.78537,17.4744 10.39376,9.605 19.23107,10.6385 z m -17.78168,-16.9242 c 1.64289,-6.3112 -12.00115,15.4251 0,0 z m -141.21832,-35.397 c 26.38236,-24.5433 -45.33645,7.2106 12.21081,-17.7185 24.57135,-6.6301 50.43847,-43.8881 8.77412,-19.6029 -11.80006,-2.8236 67.62443,-15.9068 41.47064,-51.4975 17.77024,-45.1933 115.5424,0.4308 83.79459,-73.4249 -2.79695,-66.50754 -0.72262,-138.0974 -45.27932,-192.80371 -22.35138,-64.36 -128.64027,-58.64961 -150.43178,-33.79222 71.52134,-23.80997 -36.57641,39.21617 -47.36285,34.61805 36.65797,-48.51832 109.66003,-88.74526 165.70619,-47.18887 51.46399,42.19041 87.55561,106.73345 83.23321,174.81694 -3.02322,41.88021 18.05399,101.92261 -8.77306,133.12151 -28.39383,-44.2632 -113.14809,14.8445 -48.45555,38.5016 20.79929,-12.8371 70.81052,-22.1202 74.07317,-25.3397 -8.77109,42.8673 53.80166,72.2553 41.19829,21.4411 5.47885,-24.4377 31.57418,-81.3698 13.99994,-21.1225 6.00807,9.7443 43.37301,-16.1734 61.70659,3.0334 -22.82232,30.9267 54.62906,-17.6071 9.32655,-36.5943 -32.18066,-44.5985 -82.81164,31.0631 -87.65027,-31.8204 -8.49912,-67.4497 -27.83008,-143.43284 3.95771,-207.22073 40.42915,-70.07137 135.51864,-95.40813 210.40082,-76.25346 56.63295,29.21862 -49.73435,-11.51626 -74.26842,1.83823 -49.29265,5.20567 -114.25739,24.38466 -129.00646,75.76875 18.13383,-16.01219 -36.0544,49.58227 -16.55736,74.50089 3.43751,47.67804 3.58458,127.88912 25.94361,153.62242 53.22659,-40.4859 103.86082,17.884 146.37813,43.2797 -46.11648,0.3993 -11.5919,-8.3835 1.55929,10.3566 -24.17553,-5.8578 -64.67561,-19.4084 -28.31651,14.9536 -3.79865,40.5404 -27.51952,-52.4427 -48.39457,-9.2977 -37.93612,7.8999 -93.48741,-7.0299 -90.32731,45.003 -32.78229,13.2015 -59.67964,-58.3132 -67.81754,-29.2795 -41.53713,4.7413 -90.73186,-12.6868 -110.18661,36.0258 -10.02736,4.9109 -22.22299,4.1926 -30.90605,12.0753 z m 31.29564,-15.9579 c 38.47309,-33.2354 6.66457,-13.6663 -14.96115,3.3765 l 2.354,0.1235 z m 4.02168,-10.3884 c 60.66313,-47.7118 -28.42002,9.2791 0,0 z m 89.0025,-29.8068 c 35.45381,-20.9279 -14.82393,0.9745 0,0 z m 17.26941,-6.1062 c 1.21874,-8.7422 -17.39552,11.3248 0,0 z m 9.91077,0.5741 c -7.00184,-5.807 -12.68709,8.0191 0,0 z m -27.97273,-4.3061 -5.14081,4.3394 z m 179.70074,-2.954 c 32.77984,-26.7436 -24.30402,12.8655 0,0 z m -66.49884,1.1559 -1.83532,0.057 z m 10.77083,-0.3958 c -5.56162,-4.2866 -6.62462,4.5085 0,0 z m 30.87251,-6.8763 c -4.28196,-14.5542 -28.97495,8.7839 0,0 z m 64.00536,-12.9962 c -1.0675,-19.9105 -26.5519,1.1961 0,0 z m -111.88495,-32.116 -2.44199,0.5221 z M 316.64039,810.98309 c -7.15683,-0.51342 -13.04597,17.07795 0,0 z m 37.52628,-20.8998 c 6.73119,-8.83138 -9.61855,9.56119 0,0 z m -4.5217,198.3633 c 8.76509,-45.2389 -63.41293,16.90881 -42.25113,-20.9236 -34.77894,14.47125 -85.59046,-58.59356 -31.09375,-17.07831 20.0647,-18.52014 -41.84302,-58.29702 1.84468,-27.52953 28.51276,28.81089 41.91917,-35.21335 4.00214,-34.79375 -4.70096,-39.29624 35.25129,42.55218 42.38275,-14.11459 -24.01554,-52.54828 20.52236,34.45292 34.81762,-18.81022 3.30685,-30.33819 24.07898,26.82787 34.6994,-11.67801 30.72893,-34.76813 -20.90222,33.06165 23.2032,15.57881 19.3107,-11.00681 47.82637,-14.87829 8.67917,-0.491 -0.37962,29.4836 60.79094,-3.40029 17.66933,20.17566 14.28686,17.40503 60.0623,3.04436 15.85989,17.56881 -2.50496,21.8699 23.93295,68.5059 -14.88466,59.03813 11.35127,9.03571 -45.05702,13.08579 -42.63153,13.32604 -17.94261,0.71931 -42.89251,1.2593 -52.29711,19.73156 z m 18.97508,-21.5699 c -77.29979,-21.02183 12.07527,-154.06601 48.30681,-76.08919 10.19175,34.71956 -16.49726,66.91672 -27.62332,76.15245 86.79789,12.727 82.06937,-110.59623 0.20641,-105.8492 -50.55044,-2.82764 -104.76051,63.22993 -100.99706,97.21847 25.74344,8.44028 53.44677,6.25766 80.10716,8.56747 z m 21.79489,-11.2217 c 55.25158,-1.4223 -1.86578,-118.8144 -7.36118,-57.7057 26.14689,-12.22244 36.2504,-5.43674 20.85616,7.01848 -19.62513,28.00697 14.86682,18.31678 -16.50827,28.73645 -3.71697,10.37924 -31.75455,19.00216 -8.27615,29.11077 z m -1.97259,-8.214 c -2.05513,-26.68532 17.48262,13.29972 0,0 z m -5.27568,-54.4846 c -0.94388,-23.997 25.07349,-15.06933 0,0 z m -16.62967,55.2196 c 2.58115,-31.33433 -18.588,24.74439 0,0 z m -8.38826,-4.8427 c 34.67943,-23.14368 -19.49015,1.58441 0,0 z m 3.95774,-17.8679 c -17.02659,-13.60689 38.78622,-56.69837 -4.02189,-45.33398 -15.44554,5.95508 -18.01124,90.26101 4.02189,45.33398 z m -0.71777,-22.1457 c -19.15198,-31.39941 23.69505,2.28789 0,0 z m 21.77796,22.2636 c 2.61944,-7.2098 -6.55973,8.22304 0,0 z m -4.77167,-18.3669 c -5.67645,-11.55023 -10.54009,23.58312 0,0 z m 2.27167,3.3669 c -1.31648,-3.7917 -2.24454,3.87252 0,0 z m 262.88772,57.568 c -12.1207,-15.63439 -35.69184,-49.38263 -16.86356,-62.47156 6.74993,34.96573 2.34687,-50.31726 13.18612,0.66667 -2.9754,-18.28737 4.32369,-56.87487 9.78976,-14.26311 11.61919,-35.26815 16.65962,-48.10386 22.62634,-23.98631 7.38531,-27.19009 20.29349,-46.13428 8.06715,-6.52393 -2.63979,28.78887 32.21942,-62.79075 18.57655,-3.05946 14.01923,-43.33506 8.14417,23.00282 26.99644,-23.85903 -3.11067,13.51922 -6.10649,27.12926 11.69942,-2.19384 6.0905,7.5371 -14.11699,57.34714 18.28271,21.21366 7.42365,-28.20643 -23.19138,45.0743 6.81417,6.59979 -1.80452,-22.84633 -19.11937,57.00654 9.15302,9.44662 16.03119,-17.42435 -26.58567,48.72716 6.68836,9.0429 14.82535,-29.36182 -29.32804,60.47911 14.09076,12.85932 23.12137,-23.40768 -29.74544,41.40617 6.23036,3.08414 31.67,-30.61301 -42.57761,49.62783 3.48488,17.79243 28.1111,-37.81491 7.61798,-9.57082 -0.87025,10.2926 21.59912,-25.39342 29.79589,-25.04416 7.5681,5.46499 -26.24625,45.02022 -2.92786,7.02337 -20.89667,4.6549 -4.39061,15.73128 -42.02886,23.03205 -42.93189,22.73802 -36.46295,4.61395 -65.63027,10.80653 -98.18253,2.3668 z m 61.47641,-16.9233 c 29.56918,-0.69064 109.22303,-21.61771 48.13587,-50.5024 -26.02236,-64.75221 -124.80686,-11.06124 -118.89763,40.55945 25.09524,-0.44078 44.31076,19.55553 70.76176,9.94295 z m -24.2521,-9.559 c -85.78011,-38.79128 86.88183,-107.78344 43.04056,-16.3929 -8.41168,14.92915 -27.10609,20.47324 -43.04056,16.3929 z m 28.3009,-6.0607 C 770.9313,893.43861 645.7359,853.91177 665,921.35469 c 33.81073,35.90128 21.52497,-6.61579 14.45959,-11.82174 -6.69733,-38.75609 51.58637,-11.4968 25.09499,15.47583 -13.83465,-12.09515 -26.08178,27.62613 4.52502,10.59951 z m -7.77371,-18.9389 c 6.75733,-8.64258 -11.34731,8.28743 0,0 z m 108.1077,6.7555 c 35.6722,-31.97962 -19.0924,1.85008 0,0 z m -141.87585,-43.7379 -10.35432,8.78368 z m 63.78291,-23.8537 c 15.26598,-18.80532 -15.35255,12.48235 0,0 z m -68.15398,484.75001 c -1.31647,-3.7917 -2.24455,3.8725 0,0 z m 14.05422,-13.8515 c 31.19917,-21.9466 -20.22067,3.4363 0,0 z m 19.44578,-7.6703 c 35.99908,-29.8614 -41.00729,22.5337 0,0 z m -18.46223,-1.5271 c 5.45086,-7.9765 -14.76838,13.441 0,0 z m 16.57705,-10.2011 c 22.87803,-19.8874 42.86911,-46.2935 9.13133,-11.3984 3.30056,-1.4596 -22.76591,18.8903 -9.13133,11.3984 z m 3.51274,0.5 c 2.79684,-4.8697 -5.98204,7.2082 0,0 z m 20.19906,-11.75 c 41.21938,-45.8154 -32.51351,16.1062 -7.54092,6.3534 z m 10.59188,-5.1166 c 33.87624,-21.8839 93.28535,-160.9883 81.66236,-135.0728 -23.78649,47.0269 -59.67568,87.2228 -81.66236,135.0728 z M 193.82392,1132.3333 c 49.69991,-24.8064 10.20866,-129.4819 -24.68474,-62.1162 -10.2924,20.5357 -14.23423,77.0181 24.68474,62.1162 z m 39.34039,-78 c 8.7684,-30.5409 -25.29997,-127.7187 -37.88826,-51.1597 -12.54376,40.4499 31.08251,54.1085 27.43615,16.6988 2.3366,9.1476 -6.94527,35.2288 10.45211,34.4609 z m 664.97265,-25.0955 c 43.86322,-26.8189 -8.22,-130.90362 -29.6293,-46.57641 -9.08443,28.38511 0.0547,40.62551 19.73232,13.89613 -17.06923,14.79738 -20.26432,38.29388 9.89698,32.68028 z m -37.3458,-30.37121 c 13.93706,-60.17682 -3.7248,30.84321 -0.52824,2.53541 z m -634.11705,-45.0333 c 9.41461,-57.17669 -37.19629,-11.59887 -2.84923,15.01384 8.55116,5.48792 2.62626,-14.42816 2.84923,-15.01384 z m 658.28532,-1.1957 c 33.05051,-21.65134 -17.88384,-65.19939 -9.10457,-14.22728 -3.0666,7.94257 -5.88244,38.0162 9.10457,14.22728 z m -679.78299,-17.3043 c 33.48008,-16.84314 10.1096,-98.32587 -2.89994,-32.89821 -25.31972,22.49455 49.48621,-66.17144 -6.14498,-59.79408 -44.62572,19.42518 -9.45664,67.82752 9.04492,92.69229 z m 703.26871,-19 c 31.47256,-24.82958 8.56601,-134.25243 -20.54277,-71.84772 5.23014,12.00563 37.81688,-2.96957 22.77546,24.67833 -23.38881,-64.06086 -37.20833,55.95688 -2.23269,47.16939 z m 37.31282,-47.3731 c 66.00303,-41.40753 78.73443,-126.68392 91.87423,-197.21574 -0.6342,-68.63187 4.9632,-150.98504 -43.49829,-205.52263 -19.59194,-32.81945 -58.36908,-19.67883 -36.17636,17.49171 -31.53319,55.63392 52.48885,86.82713 41.7315,143.48982 6.54595,72.48241 -9.75029,156.92012 -73.32627,200.88254 13.49686,9.91712 -11.7848,61.09887 19.39519,40.8743 z m -730.92669,-35.5514 c -33.85275,-73.49177 -52.53204,-162.72202 -23.72254,-240.69872 4.48592,-40.7561 69.70167,-64.68147 62.13831,-96.2816 -56.59638,29.48554 -106.59046,84.51126 -120.02887,148.48221 -12.3226,70.12473 13.15859,157.19886 79.05957,190.94309 l 2.00013,-0.41329 z m -6.3877,-35.4184 c -1.23993,-50.54121 -16.20367,-132.79055 7.57341,-160.98744 8.00741,-52.36787 73.96426,-69.08501 93.07823,-118.32421 -3.17783,-30.58226 56.7339,-96.1148 -8.22275,-59.47571 -43.02804,19.76276 -39.13195,85.58468 -41.06733,95.69139 -11.81972,-72.45462 -75.26465,37.84376 -72.95471,70.44221 -5.16419,56.18624 -0.86311,121.63657 21.59315,172.65376 z M 458.99441,664.0662 c 85.53723,3.16124 91.04281,-100.98676 60.48214,-158.07607 -13.35629,-58.93408 -74.85691,-117.24975 -137.34708,-86.92045 -63.48374,32.03529 70.23079,10.16478 79.7797,56.51189 36.85856,46.88631 61.55913,144.85967 -15.15421,167.0216 -58.25523,21.13005 -4.44168,-99.20214 -50.17592,-29.71202 -13.17677,37.80671 29.92942,63.97253 62.41537,51.17505 z m 369.67226,-33.97905 c 65.26674,-11.90992 124.86406,-66.05673 122.20774,-136.05888 3.32527,-82.44778 -67.07054,-156.56004 -144.78248,-173.532 -35.18671,-12.34289 -99.18687,19.11271 -38.4374,42.03821 30.23923,28.0606 42.77028,36.11427 83.8281,27.55857 54.44026,15.01005 101.27083,86.38128 74.25522,140.94064 -26.17545,59.18289 -103.61836,65.25125 -146.33332,87.01889 13.49615,10.68498 32.74414,11.76846 49.26214,12.03457 z m -218.19771,-2.34149 c 61.1207,-38.69428 19.61028,-123.38536 -28.25917,-154.06056 -70.192,-48.50729 -77.07602,58.05264 -25.85672,85.80011 28.11199,16.96152 30.25255,60.16376 7.86141,70.37031 15.37924,1.93495 30.96636,-0.32889 46.25448,-2.10986 z m -52.49365,-2.04851 c 55.0838,-10.18473 -38.81494,-106.19993 -14.17175,-33.5995 -1.67862,11.56769 -8.38454,41.53829 14.17175,33.5995 z m 151.83611,-0.88803 c 31.95182,-3.21552 71.24541,-74.08688 21.28549,-24.31218 -24.19534,-4.7545 -76.34067,2.16801 -33.96665,25.03323 z m 29.3557,-34.3594 c 56.15448,-33.09088 38.89849,-125.11291 -31.86461,-117.30496 -26.74988,4.49198 -77.78879,-18.34542 -25.95614,-31.57072 63.42697,-19.49225 -11.30578,-15.18219 -29.24271,3.80717 55.48485,-63.72298 133.70878,9.02426 135.52563,74.2589 20.96555,55.27793 36.01963,-28.05451 26.17372,-52.43771 -4.42547,-72.96853 -69.04664,-143.27576 -145.89839,-130.48632 -62.52128,-8.44232 -102.12029,74.86167 -36.60333,108.88336 50.17776,40.96922 15.70515,157.39878 93.42987,150.50812 l 7.40443,-2.06512 z m 94.92855,5.03011 c 49.79663,-16.45673 121.78889,-64.29629 84.2909,-124.23756 -3.41959,-46.82461 -99.76133,-116.90246 -106.85786,-46.70011 3.77332,36.97517 11.50242,44.23519 34.35302,14.72312 57.02014,-41.96222 -51.4332,30.01428 -23.42916,65.78504 0.27215,49.46034 37.52332,-36.28056 66.18689,-42.23411 -22.47012,13.17762 -89.0431,99.36893 -28.14836,60.24794 75.09876,-43.78419 -68.1817,37.7952 0.60149,29.533 24.51644,-16.91209 55.99833,-20.59138 10.00362,-4.18081 -40.11053,3.83097 -3.38841,46.3251 -34.56558,28.85402 8.95327,32.38478 -32.58997,-54.13368 -29.16494,3.15906 -22.79952,22.64616 15.25011,15.6147 26.72998,15.05041 z m -581.51239,-6.43812 c 10.59946,-12.46992 -16.59852,13.8958 0,0 z m 10.08339,-11.45837 c 12.32246,-14.04286 -15.25885,14.798 0,0 z m 18.95897,-17.4402 c 45.5651,-25.96196 8.35211,-31.58711 -7.96455,4.71701 z m 547.06683,-7.47852 c -2.10028,-26.37118 -18.28019,-4.58255 0,0 z M 309.4496,551.83334 c 31.44981,-40.92301 74.29237,-116.96035 135.61559,-80.51969 -37.06191,-32.33911 -113.47316,-47.01805 -126.23125,16.34628 1.68435,34.16094 8.11219,35.60459 -9.38434,64.17341 z m 13.74774,-5.25 c 16.62217,-10.71965 96.63685,-33.5446 60.16267,-40.68443 41.02623,-26.57621 26.25276,-55.71832 -13.82984,-24.13197 -18.25544,18.44433 -38.86692,40.01951 -46.33283,64.8164 z m 68.26638,-41.80664 c 39.53399,14.93024 73.36543,-42.63878 20.61928,-25.39439 -2.34157,3.35296 -37.11069,25.93264 -20.61928,25.39439 z m 67.65082,-14.1086 c -12.11049,-14.97456 9.17548,17.12662 0,0 z m 310.68101,-6.19034 c 10.01119,-40.30616 -46.73167,-20.54277 -25.25855,-33.22849 -5.78487,-48.81453 -114.18192,20.675 -41.02308,10.36274 24.78943,-9.39671 41.68212,-12.99409 8.39182,5.30194 19.69446,3.83482 40.65628,6.43929 57.88981,17.56381 z m -71.56151,-28.17148 c 12.19693,-12.74251 41.51632,-24.15663 9.99096,-4.40004 z m -24.51375,-2.46035 c 15.15138,-23.20959 -35.22053,19.86616 0,0 z m -356.36501,-6.76259 c 63.867,-4.21731 80.92649,-67.60516 116.87394,-104.08894 36.97002,-33.32905 122.9961,-14.30895 121.48432,31.57199 -30.77455,-51.81282 -98.03738,-61.42305 -138.03074,-14.04804 -53.4936,69.57212 66.10168,47.60506 98.70724,28.16292 41.05751,9.93308 77.81793,8.05721 96.75666,-29.42678 44.13523,-53.01837 -62.16544,-103.184 -109.64777,-103.28625 -76.24046,0.86831 -148.22762,46.64447 -193.47097,105.66743 -10.67143,24.07641 -25.6983,72.6361 7.32732,85.44767 z m -20.60714,-8.25 c -24.67197,-82.08814 64.398,-137.51132 126.36905,-169.15866 69.75994,-38.73515 159.41242,-19.23269 204.36728,46.96856 56.57352,40.81276 35.80107,-87.06601 8.2763,-106.65022 C 588.06132,148.6555 513.58387,92.326457 431.30035,109.78556 c -71.99556,15.69517 -146.65044,45.90146 -195.80981,102.83263 -53.59934,60.25944 -57.32462,169.74114 16.82059,215.52997 13.20795,8.04672 28.92757,12.52168 44.43701,10.68518 z"
       style="fill:#000000"
       id="path71" />
    <path
       d="m 883.37459,620.37737 c 3.75453,-29.392 -18.10906,49.17335 7.17897,6.98362 14.08312,-51.71105 -40.02728,29.5894 -1.20054,10.98634 25.09075,-31.30998 -31.31911,-46.63019 -5.97843,-17.96996 z"
       style="fill:#000000"
       id="path101" />
    <path
       d="m 667.19703,639.12275 c 38.88885,32.74919 24.93445,-7.80498 3.74956,-8.1572 -42.16682,8.64826 60.04473,37.17407 12.587,5.41348 l -6.05453,-4.21903 -10.28197,6.96275 z"
       style="fill:#000000"
       id="path103" />
    <path
       d="m 695.01619,659.43984 c 45.96993,-0.82432 91.90449,-37.1145 118.12709,-73.95662 23.16978,-23.8112 10.88345,-121.4601 -0.64366,-50.65007 2.75395,54.38057 -45.79231,81.49835 -85.11614,105.57676 -6.73512,15.69402 -48.91666,-6.77569 -32.36729,19.02993 z"
       style="fill:#000000"
       id="path105" />
    <path
       d="m 542.34248,646.02325 c -27.66443,-30.49261 40.76572,-13.61322 3.16242,-30.74481 -24.53542,-16.58416 -35.64487,51.90466 -3.16242,30.74481 z"
       style="fill:#000000"
       id="path107" />
    <path
       d="m 533.02063,656.67789 c 47.49499,30.46538 119.13702,2.49262 147.90709,-43.19798 15.1334,-54.12377 -30.20595,31.50373 -56.41412,32.0793 -30.71764,11.75364 -67.25389,4.99182 -91.49297,11.11868 z"
       style="fill:#000000"
       id="path109" />
    <path
       d="m 921.21948,871.62716 c -26.21,55.22955 -10.39724,113.49992 -10.17384,171.13714 -0.95994,28.0975 -35.71312,99.8482 -41.15099,34.9816 0.69594,-27.6275 -13.76581,-104.12066 -17.89115,-40.3375 -11.34395,37.5635 31.64851,120.8467 56.1253,50.9522 40.78146,-55.5787 -7.48526,-126.11615 18.28893,-187.02485 -2.51333,-9.8793 18.92376,-30.93901 -5.19825,-29.70859 z"
       style="fill:#000000"
       id="path111" />
    <path
       d="m 131.9405,842.26559 c 13.35501,31.21593 92.64479,-6.38563 63.78929,-6.37101 -23.4335,15.0623 -43.57048,4.31918 -63.78929,6.37101 z"
       style="fill:#000000"
       id="path113" />
    <path
       d="m 296.05635,421.02168 c -37.40408,-53.55524 -31.78769,-128.4788 -15.51343,-187.62667 37.98987,-52.30108 108.00628,-46.19817 164.13135,-61.14613 58.20315,-14.23581 117.03694,27.52022 151.36846,71.48475 35.60242,14.47455 3.44703,96.93553 36.48421,83.84132 -3.27246,-45.85768 -6.23779,-93.72888 -50.15964,-122.58963 -41.1501,-34.07223 -97.07664,-62.84099 -151.88237,-48.38153 -59.43917,15.10571 -138.47751,15.26045 -168.48276,79.45653 -12.10755,59.68029 -21.58474,132.92552 16.62292,185.41581 l 7.07198,6.79172 10.35931,-7.24617 z"
       style="fill:#000000"
       id="path115" />
    <path
       d="m 290.17829,435.37888 c 23.2997,35.05332 2.42858,-45.69975 -7.05653,-12.34556 13.76487,-25.36401 -13.58824,-0.37174 6.83654,14.35651 11.27692,27.43518 29.93049,-18.42779 0.21999,-2.01095 z"
       style="fill:#501616"
       id="path117" />
    <path
       d="m 424.06466,663.71971 c -59.90793,-2.3647 0.25646,-114.09705 -8.75375,-49.03012 15.37131,79.58977 119.44694,-25.78364 77.96085,-76.65056 -11.11743,-65.91465 -78.1658,-105.42597 -133.41808,-105.27007 55.23919,-47.22031 135.98549,-5.98163 153.32095,58.68681 18.54715,48.36234 39.36558,108.90067 0.007,152.04679 -23.00996,20.91536 -59.67813,24.6923 -89.11739,20.21715 z"
       style="fill:#501616;stroke-width:1.27111"
       id="path119" />
    <path
       d="m 557.07428,651.14073 c -59.55045,-43.96795 55.69898,9.35365 70.03405,-31.24881 57.4165,-64.25385 -19.06138,-185.38738 -102.56705,-160.77739 -19.57077,5.45697 -88.24877,-63.99907 -24.08346,-63.297 70.73575,-14.51445 130.47982,43.29431 149.44966,106.79381 29.79289,49.45967 38.07325,129.82632 -34.44214,143.95756 -19.42149,1.55687 -39.36708,14.27481 -58.39106,4.57183 z"
       style="fill:#501616;stroke-width:1.27111"
       id="path121" />
    <path
       d="m 702.77777,594.95884 c -46.73333,-9.06029 -21.93403,-82.70531 -51.30835,-114.29912 -20.47727,-46.29335 -97.25531,-99.14919 -18.44571,-136.07874 58.57773,-21.28911 131.8302,-0.079 159.76484,58.84885 16.91998,35.09098 40.5851,117.33865 1.74337,134.9511 -12.45814,-47.6289 -31.12313,-118.34463 -92.3614,-118.51807 -25.63688,-3.66965 -77.65264,47.6081 -22.68968,12.17064 81.30508,-14.63934 -74.99301,24.20714 -1.40419,37.93962 71.73127,-14.14401 135.22576,65.70752 64.12791,116.94267 -10.64465,9.52213 -26.0937,9.91825 -39.42679,8.04305 z"
       style="fill:#501616;stroke-width:1.27111"
       id="path123" />
    <path
       d="m 804.38959,627.31998 c -52.18089,-21.64242 78.67047,-28.9107 92.56137,-60.67558 55.42361,-37.24912 41.6333,-111.23204 -1.1077,-152.10709 -37.64545,-47.89557 -97.98134,4.04676 -128.60205,-53.21686 -71.65425,-50.10078 76.07159,-51.9788 102.56654,-12.19932 58.23799,40.41901 96.26065,112.99047 74.82193,183.85369 -16.48552,54.80471 -68.22445,84.77866 -120.59104,96.11858 l -9.26896,-0.0611 z"
       style="fill:#501616;stroke-width:1.27111"
       id="path125" />
    <path
       d="M 931.22363,870.73205 C 907.80101,814.84606 979.64622,798.27847 987.22148,746.55439 1003.8662,687.05985 1014.292,613.41407 976.77973,560.1086 945.69681,534.54219 944.1144,464.69751 966.8586,447.39071 c 66.3425,33.19438 65.4852,116.7068 70.5373,180.66137 0.8443,73.11641 -16.3231,150.12702 -58.34075,210.80976 -11.44769,11.51499 -31.52884,37.39149 -47.83152,31.87021 z"
       style="fill:#501616;stroke-width:1.27111"
       id="path127" />
    <path
       d="M 275.37928,436.71741 C 193.02983,411.83344 175.815,300.2375 220.98335,235.20248 265.86258,163.31556 351.228,129.00853 430.50876,110.77845 c 88.36449,-18.43689 168.73148,45.82436 214.30565,115.29222 29.78452,21.62234 17.54728,146.88766 -15.89943,78.88154 10.03085,-44.32359 -21.81785,-79.70527 -52.93703,-107.12112 -49.48307,-39.75162 -115.06008,-56.92825 -176.32091,-35.80661 -58.2766,10.06261 -135.62407,27.50291 -145.24784,98.19224 -1.37277,60.86359 -12.35478,129.88251 34.95228,177.72886 z"
       style="fill:#501616;stroke-width:1.27111"
       id="path129" />
    <path
       d="m 201.65498,831.03918 c -86.82103,-65.51751 -96.7062,-211.04744 -12.57323,-283.11453 11.86211,-28.86146 104.21983,-75.55222 47.04505,-19.82493 -76.51177,66.01869 -66.50931,177.15395 -39.47226,264.16722 -2.50235,9.64527 34.46475,56.51092 5.00044,38.77224 z"
       style="fill:#782121;stroke-width:1.27111"
       id="path131" />
    <path
       d="M 285.33318,401.58286 C 265.34536,349.113 260.92978,279.50512 285.94741,229.07755 327.5938,179.337 399.39923,187.03957 456.57586,171.00021 c 60.71593,-4.72173 118.37242,39.72039 150.42235,89.05302 21.79797,45.3781 -0.39141,43.53331 -25.3153,11.82123 -79.44517,-52.73417 -179.75477,-3.09735 -243.28504,52.73674 -31.3697,3.61565 -44.2421,96.24615 -53.06469,76.97166 z"
       style="fill:#782121;stroke-width:1.27111"
       id="path133" />
    <path
       d="m 891.42022,823.92098 c -13.35603,-35.40643 2.75721,-68.88349 22.4499,-97.9219 23.81366,-34.05834 44.48204,-105.09539 -2.78399,-123.18376 31.35288,37.98748 24.44309,117.36331 -21.12583,136.96121 -1.2403,-42.99026 2.59539,-87.74204 4.50647,-128.48067 18.77996,-22.32308 69.08401,-98.81778 87.77216,-25.70755 26.51987,66.74258 9.65515,144.61964 -21.91802,206.54597 -13.49753,28.82269 -46.89101,20.67697 -68.90069,31.7867 z"
       style="fill:#782121;stroke-width:1.27111"
       id="path135" />
    <path
       d="m 567.3377,629.61826 c 46.16028,-40.27132 -50.0515,-86.17894 -44.63737,-139.85898 22.04478,-69.65142 119.71247,22.91487 116.87729,73.34938 8.15194,44.07224 -29.4525,75.93518 -72.23992,66.5096 z"
       style="fill:#782121;stroke-width:1.27111"
       id="path137" />
    <path
       d="m 693.28421,624.46216 c -28.17272,-40.68521 54.36141,-6.79093 65.11635,-43.74732 -13.22469,22.3359 -36.27133,47.85788 -65.11635,43.74732 z"
       style="fill:#782121;stroke-width:1.27111"
       id="path139" />
    <path
       d="m 763.48499,479.95683 c -16.52325,-11.27847 -71.17791,-7.19353 -28.86359,-28.23622 -24.99479,18.63109 -90.14263,8.84661 -32.77533,-13.36354 15.75397,-7.28422 58.88154,-0.16734 34.54257,23.13656 19.67032,-21.72815 36.76441,13.13318 27.09635,18.4632 z M 711.09344,451.1411 c 32.9966,-22.76479 -7.06595,-4.79659 -10.8883,4.74502 l 0.35997,-0.0786 z"
       style="fill:#782121;stroke-width:1.27111"
       id="path141" />
    <path
       d="m 697.38734,643.35222 c -67.11203,-40.05846 30.88367,6.0334 46.64956,-35.78363 19.72268,-15.8345 47.0538,-100.4174 59.76921,-40.1018 -11.61198,40.64007 -67.99318,74.22231 -106.41877,75.88543 z"
       style="fill:#782121;stroke-width:1.27111"
       id="path143" />
    <path
       d="m 311.58086,443.96719 c -32.24801,-36.20821 -1.87709,-93.67628 31.97315,-118.16619 61.0297,-54.96767 159.26451,-97.27688 234.25679,-44.2096 40.14922,22.63635 67.28796,63.30083 20.59934,90.63743 -30.75556,43.11253 -102.98923,-1.52092 -147.8335,35.3088 -87.74879,17.43798 -23.23014,-88.20059 30.42208,-76.93761 31.33881,-20.20217 99.61609,85.20759 65.10682,18.02266 -45.78303,-47.28902 -136.70468,-16.45486 -149.13648,46.85546 -18.01002,26.06411 -53.05414,50.41691 -85.3882,48.48905 z"
       style="fill:#782121;stroke-width:1.27111"
       id="path145" />
    <path
       d="m 323.68141,543.72174 c 15.55054,-29.97243 54.4141,-87.01089 86.52541,-70.00609 -22.94135,17.93689 -17.47808,44.79871 -21.58656,41.4914 -20.64533,9.86638 -44.5406,23.79486 -64.93885,28.51469 z"
       style="fill:#782121;stroke-width:1.27111"
       id="path147" />
    <path
       d="m 309.97343,548.27737 c 25.58189,-31.26281 12.6509,-27.48503 9.1361,-58.25752 -3.58298,-61.1606 100.95742,-47.45718 101.09773,-28.65584 -54.57131,-4.79357 -80.46687,56.16721 -110.23383,86.91336 z"
       style="fill:#916f6f;stroke-width:1.27111"
       id="path157" />
    <path
       d="m 641.53812,1571.6823 c -86.73118,-17.5075 -176.65348,-20.099 -264.53422,-10.5343 -41.92736,-13.8308 49.6254,-58.8397 38.48689,-95.2006 26.28634,21.7409 24.55496,28.0936 2.41367,21.8868 6.90462,22.9337 86.49834,39.1012 34.97493,3.3514 -28.74957,-17.7237 -49.48866,-90.732 -5.70812,-33.5576 69.02007,39.963 -77.51318,-87.7325 -4.73802,-34.5698 12.65684,20.4198 62.76723,19.3179 17.00999,0.7401 -34.29562,-11.0743 -53.40733,-86.1543 -4.72294,-32.5082 78.57063,45.351 -97.54813,-80.562 -6.39215,-46.0134 51.1363,34.4019 111.77978,28.9995 166.43713,7.2079 38.37683,-22.3724 54.7793,-6.4328 47.6386,31.3301 2.36487,61.9033 17.0371,127.4613 59.65504,174.2934 -22.0626,9.2857 -55.08558,14.37 -80.5208,13.5742 z M 430.18456,1546.896 c -16.30049,-12.0278 -70.79788,-26.0298 -25.58278,0.78 7.71891,0.9624 18.77991,4.1294 25.58278,-0.78 z m 13.40595,-8.7536 c 20.41798,-7.7779 -15.42744,-27.1619 -33.27169,-40.9218 -10.88283,15.6654 -2.02455,51.7578 33.27169,40.9218 z"
       style="fill:#c8b7b7;stroke-width:1.27111"
       id="path165" />
    <path
       d="m 500.36551,1354.5732 c -72.89454,-20.6369 -135.77605,-66.2429 -183.2864,-124.7833 -34.91892,-31.3696 -63.64204,-103.878 -65.95773,-131.6497 2.27947,-13.5527 -13.17324,-102.7488 -14.87068,-143.36011 3.83573,-61.72166 -4.05777,-122.33084 -17.95626,-181.83427 -3.59811,-65.26818 -12.58769,-142.70086 44.27794,-189.43886 52.04674,-34.95132 114.90624,-57.90341 174.30751,-79.24996 60.99473,3.15664 80.29314,108.99972 16.39112,130.99107 -59.55034,15.26859 7.44521,-89.72808 -48.6038,-39.5785 -58.30367,66.1991 60.46032,100.67377 103.86664,57.38528 22.9207,-18.29654 52.64682,41.40687 90.65925,12.40082 40.26024,-13.83505 70.30396,-29.95072 108.48826,-4.48072 42.42258,-22.93216 79.80711,-36.81173 129.22378,-28.03368 42.04014,-21.9273 41.05725,-5.66038 39.96646,35.44271 8.78878,86.49833 -4.76187,172.82615 -22.54604,257.27848 13.82231,14.79405 16.53488,-90.29461 27.93115,-89.59495 -4.31847,64.04974 -22.68228,126.39073 -34.86827,189.13769 4.66516,48.5022 -30.89031,97.9888 -49.92671,143.1733 -36.91315,65.5642 -84.00367,127.6961 -150.59494,165.1635 -13.42276,15.8152 -106.05857,26.9785 -146.50128,21.0312 z m 109.3846,-54.0267 c 32.68569,-14.8227 65.72247,-83.1909 95.29567,-55.0653 5.26567,-25.6098 -25.27408,-60.3658 -19.65471,-15.1574 -37.67413,31.2965 -48.86273,-73.7624 -92.70925,-15.2902 -21.49114,7.7945 -42.74981,-36.8432 -66.43597,3.4547 -12.05083,25.554 -53.72497,50.5261 -66.46092,13.7998 -50.28742,57.7191 56.25875,-1.9327 71.12651,51.034 23.16602,14.3565 51.48126,24.9484 78.83867,17.2244 z M 387.8458,1189.1582 c 44.61014,-15.6932 63.16509,-65.5244 119.66438,-43.6512 34.3115,-37.4737 52.42134,52.8052 94.19418,18.6821 -11.64236,-57.1454 81.19344,-19.9372 102.50285,-45.3638 4.21686,37.0031 55.95,28.7854 16.66784,3.5269 -12.04724,-25.9323 60.00457,17.2026 36.46026,-14.097 -44.37225,-27.8446 -96.98338,-80.3695 -150.77074,-39.468 -11.45502,-66.1535 -30.24959,-137.72984 -14.3529,-203.45135 3.81985,-11.61513 33.08167,-46.9521 9.84253,-28.94488 39.87162,-71.92099 138.216,-83.35977 211.28354,-64.34971 40.62035,5.8742 -50.54838,-30.45967 -71.31478,-16.39747 -73.89736,4.74241 -154.11923,50.60126 -163.02878,130.2641 2.33272,63.82192 -5.05468,133.73561 26.83604,191.43471 30.32677,-47.2182 131.70686,27.457 56.60164,45.552 32.80976,-27.1701 -40.83227,-13.2146 -44.08255,-12.378 -21.7413,15.9053 9.88769,-66.0626 -13.95269,-10.0149 -8.71368,27.4653 -13.85032,90.863 -44.51935,37.828 -8.25107,-31.0723 2.07145,-43.8787 -29.9235,-20.3652 -29.09162,10.1982 -85.14028,31.4373 -71.03201,-23.5195 33.79139,-30.7193 93.10225,34.9442 81.71243,-37.6475 -5.23737,-65.41151 6.42272,-138.24368 -28.71842,-196.78074 -27.18833,-61.9294 -98.39858,-113.54084 -164.58837,-75.56783 -25.34591,5.98067 -92.89,89.15811 -38.9723,36.14176 9.51168,-10.72204 78.72736,-26.04063 38.20626,-25.48716 61.37949,-32.0737 130.32047,6.74497 153.76457,67.62398 36.7029,62.15606 23.97242,138.38969 31.85044,206.80529 -39.50437,9.2388 -98.82912,5.9781 -88.67811,62.9662 -17.10593,13.0609 -74.67832,30.4822 -19.12761,13.7945 1.09923,21.4611 -83.20431,43.261 -36.52103,39.786 l -3.66273,4.7975 3.65873,-1.7188 z M 359.84428,978.2 c 41.53281,-7.48957 75.70365,-14.15258 104.0634,-22.17272 7.03307,-25.9386 -16.88009,-64.91749 17.26055,-68.84818 -19.34816,2.37928 -55.43147,-5.74488 -18.22377,-19.88274 -23.41974,13.6492 -55.50497,-7.8309 -14.69441,-19.29722 -46.99349,31.57714 -49.95218,-10.66611 -48.57419,-10.19229 -21.02028,41.83068 -38.61602,-19.25785 -50.9347,31.78431 -30.04237,9.43474 -32.05536,-38.9982 -25.92713,8.08043 -9.59275,46.40208 -56.69558,-33.46661 -35.09916,16.09227 44.48007,9.38108 -4.05104,62.0144 -20.87966,17.28175 -17.17547,-5.61893 39.24062,61.45843 -7.6269,27.39323 -27.32841,-2.17727 48.18246,50.61348 58.58523,39.00164 38.29654,-29.95488 21.69067,32.34492 42.05074,0.75952 z m 291.74727,-22.8387 c 29.29216,17.69915 86.01447,2.40424 101.68081,-1.44169 22.22658,-1.92019 41.27676,-33.77944 44.53089,-3.72171 7.17587,-16.5667 48.52322,-73.13177 10.17054,-36.60575 24.51579,-55.08766 -4.43106,12.57237 -21.61676,3.00375 8.96912,-12.23264 36.62393,-44.3621 7.63457,-19.54708 26.8827,-37.19548 -46.13854,39.8263 -15.84578,-13.24816 26.84885,-40.39168 -35.82866,37.48125 -1.47686,-16.08332 0.99316,5.19175 -41.39377,28.70099 -13.13667,-7.15237 11.98751,-18.8219 -33.92736,32.85666 -6.23453,-8.84626 11.38582,-12.68642 -40.83305,37.8903 -16.12026,-4.24105 11.43122,-42.79574 -28.71807,24.12892 -13.7592,-15.68908 -12.782,31.77437 -27.85025,12.22107 -22.07502,11.38599 -1.44846,-24.40158 -34.28287,52.31433 -19.45425,6.87623 4.00335,-49.10277 -24.81377,61.55642 -16.84558,-2.39174 -16.51034,16.26589 -16.16112,58.7331 -27.54126,23.16212 -0.42599,26.59084 -47.01611,52.45579 -1.50027,85.98708 3.10488,20.05172 4.2698,4.14145 11.58963,-1.44696 z"
       style="fill:#c8b7b7;stroke-width:1.27111"
       id="path167" />
    <path
       d="m 221.27362,964.56545 c -26.03918,-29.81671 12.93421,-59.1429 5.40201,-11.05494 -0.78215,4.10683 4.80838,23.46147 -5.40201,11.05494 z"
       style="fill:#c8b7b7;stroke-width:1.27111"
       id="path169" />
    <path
       d="m 195.49217,919.77885 c -44.76647,-20.11344 -2.6523,-111.8481 21.72385,-58.73407 -12.27178,22.37982 -33.18311,77.54628 -6.60028,22.79017 21.90855,-32.94899 7.59988,87.84339 -15.12357,35.9439 z"
       style="fill:#c8b7b7;stroke-width:1.27111"
       id="path171" />
    <path
       d="m 226.32083,1051.1892 c -3.44302,-29.5338 -6.43011,-43.9937 -11.49654,-5.9637 -47.2711,-6.4725 -0.75155,-120.2957 11.54175,-43.19 0.10574,8.1966 15.52723,56.3522 -0.0452,49.1537 z"
       style="fill:#c8b7b7;stroke-width:1.27111"
       id="path173" />
    <path
       d="m 881.69809,1027.5369 c -15.51297,-16.2716 23.26461,-48.13524 -13.04297,-14.6694 -17.11285,-32.15559 41.54512,-100.37258 37.6637,-32.98313 6.82404,19.39245 6.84067,57.52343 -24.62073,47.65253 z"
       style="fill:#c8b7b7;stroke-width:1.27111"
       id="path175" />
    <path
       d="m 874.53323,959.16875 c -9.64727,-32.74549 23.41248,-68.39872 17.97287,-16.38154 -4.40854,4.8002 -10.99449,17.32991 -17.97287,16.38154 z"
       style="fill:#c8b7b7;stroke-width:1.27111"
       id="path177" />
    <path
       d="m 879.95793,1100.5876 c -34.00877,-32.0061 3.36853,-81.7073 30.81715,-72.7464 7.78483,26.8746 -18.41517,65.2699 -30.81715,72.7464 z"
       style="fill:#c8b7b7;stroke-width:1.27111"
       id="path179" />
    <path
       d="M 145.69725,840.12644 C 93.474056,807.48634 86.158751,736.6542 83.72136,680.36371 c 1.214159,-79.89913 58.63803,-147.40345 119.9399,-192.76291 16.83491,-17.85564 103.79744,-39.73732 55.81024,1.93574 -65.07485,34.57186 -126.84812,96.58399 -135.39192,172.97144 -0.70486,58.81733 9.63824,142.507 69.949,167.3922 6.13816,13.252 -41.65019,16.83606 -48.33133,10.22626 z"
       style="fill:#501616;stroke-width:1.27111"
       id="path219" />
    <path
       d="m 204.23893,791.83803 c -17.01445,-70.03971 -33.49709,-150.3302 0.5467,-218.26352 13.63628,-28.02115 55.47952,-73.30485 57.89593,-12.89928 4.44647,-19.2398 -5.10304,-86.57202 39.91766,-101.52197 64.95339,-35.8092 -3.11689,38.08516 2.74892,66.46894 -34.29669,44.24541 -91.43771,79.10059 -99.46703,130.79743 -11.31711,41.42304 5.6068,107.90242 -1.64218,135.4184 z"
       style="fill:#501616;stroke-width:1.27111"
       id="path221" />
    <path
       d="m 807.97784,595.47214 c 10.86351,-30.05525 14.95722,-26.40412 32.63964,-7.27934 -11.49229,-24.63465 27.60357,8.00204 5.3354,-23.07324 25.10863,-17.94229 85.70977,-43.01064 20.49191,-16.97588 -59.37332,23.50401 13.12037,-31.92053 16.02905,-38.54674 -22.93275,20.90503 -70.91621,37.5408 -33.58632,-4.88708 18.48752,-18.53462 58.55866,-59.8451 16.2028,-23.2247 -27.88943,18.48766 -41.23363,68.63833 -42.90253,12.08116 -15.3684,-32.0889 84.17408,-99.59978 21.49468,-53.22596 -38.14753,65.36111 -51.70121,-89.27779 14.32158,-40.13541 53.25277,27.12766 103.17747,121.66756 35.32461,162.71471 -25.40499,16.20583 -53.66117,36.02172 -85.35082,32.55248 z"
       style="fill:#501616;stroke-width:1.27111"
       id="path223" />
    <path
       d="m 387.23684,503.67981 c 4.32143,-40.63194 84.08199,-28.97967 37.3996,-4.54902 -12.0976,3.14893 -24.81639,6.02754 -37.3996,4.54902 z"
       style="fill:#501616;stroke-width:1.27111"
       id="path225" />
    <path
       d="m 557.4563,623.15885 c -22.90468,3.37167 -26.92689,-92.38354 5.95508,-43.08824 13.73347,11.84152 14.89036,48.75634 -5.95508,43.08824 z"
       style="fill:#501616;stroke-width:1.27111"
       id="path227" />
    <path
       d="m 568.62211,1290.1211 c -30.7359,-5.3896 -59.7962,-52.2395 -7.99684,-34.1719 29.14744,7.6689 116.23627,-12.7723 54.12489,29.6207 -13.97486,7.1237 -30.97321,5.651 -46.12805,4.5512 z"
       style="fill:#d35f5f;stroke-width:1.27111"
       id="path229" />
    <path
       d="m 617.58965,1250.5049 c -69.99231,-11.1792 28.14309,-80.3552 27.05264,-4.2197 -5.42205,8.555 -19.83838,2.3581 -27.05264,4.2197 z"
       style="fill:#d35f5f;stroke-width:1.27111"
       id="path231" />
    <path
       d="m 548.21841,1243.6542 c -78.85557,11.0034 40.88013,-70.1995 15.91713,0.3428 l -6.99385,0.5301 z"
       style="fill:#d35f5f;stroke-width:1.27111"
       id="path233" />
    <path
       d="m 901.04501,916.71969 c -25.19446,-18.82703 -11.6016,-88.16278 13.41995,-49.27212 7.351,-39.55644 -44.92238,-0.12829 -18.28936,-40.59716 45.7879,-21.30288 22.25014,84.45995 4.86941,89.86928 z"
       style="fill:#c8b7b7;fill-opacity:1;stroke-width:0.635554"
       id="path235" />
    <path
       d="m 371.75966,962.20812 c -8.99085,-16.24251 33.9194,-39.51571 29.94401,-34.9909 -10.46579,-13.32364 10.20983,-31.66902 -18.53948,-31.82831 30.33324,-53.07167 48.2126,81.57537 -11.40453,66.81921 z m 24.01809,-13.98971 c -3.61437,-24.83507 -14.10437,5.58188 0,0 z"
       style="fill:#808000;fill-opacity:1;stroke-width:0.635554"
       id="path237" />
    <path
       d="m 690.14808,936.13529 c 10.44031,-19.53375 33.26688,-13.35819 13.57418,-45.20427 -20.03727,7.64976 -20.0695,-3.48368 -28.94832,20.17079 16.24492,7.38026 4.74408,41.74411 -10.65692,3.45787 6.23728,-80.32612 116.45659,15.06361 26.03106,21.57561 z"
       style="fill:#808000;fill-opacity:1;stroke-width:0.635554"
       id="path239" />
    <path
       d="m 350.36293,938.17076 c -29.40644,-36.58482 42.41803,-78.76778 15.83964,-44.00099 -19.92391,-17.92678 6.68292,44.24557 -15.83964,44.00099 z"
       style="fill:#808000;fill-opacity:1;stroke-width:0.635554"
       id="path243" />
    <g
       transform="matrix(1.0996823,0,0,1.3801697,-780.82666,-168.23813)"
       id="g2572">
      <path
         d="m 951.39796,1138.1246 c -7.93579,-24.5921 13.21815,-45.2734 4.87406,-6.2695 35.88255,-10.103 50.25248,-61.6576 73.78178,-90.7972 28.4998,-34.8354 48.4703,-75.31922 75.6851,-111.26812 30.2259,-51.98749 65.5436,-100.84314 92.8839,-154.61726 35.332,-55.63037 69.9401,-111.75881 106.0664,-166.78126 23.2406,-42.14129 57.1027,-77.67111 78.4596,-121.16741 36.9773,-48.00698 67.7988,-100.48206 98.5521,-152.56407 11.2886,-58.35827 -50.8227,23.26135 -66.3218,38.5211 -34.6565,29.24046 -58.9421,67.91605 -88.9744,101.55479 -36.5823,50.11034 -74.2705,99.42621 -105.1747,153.37039 -41.1914,63.84371 -82.2378,127.77659 -117.1687,195.34513 -34.1835,56.77133 -62.2339,116.93655 -96.164,173.80012 -16.76945,42.07879 -47.0892,77.28859 -61.8229,120.39339 -18.42668,21.2609 13.12462,-39.1371 20.89868,-52.2129 26.14301,-41.6916 45.14692,-87.10144 71.11902,-128.93172 35.6491,-68.52305 74.4419,-135.42444 112.1282,-202.77552 51.1009,-76.79615 95.1566,-158.37116 152.5717,-230.85491 29.7195,-40.34455 60.444,-80.40226 95.3087,-116.32507 28.5081,-28.68841 54.3459,-61.49744 88.3108,-84.15332 11.7028,42.4495 -34.8813,76.44233 -50.4074,113.7316 -27.1054,41.9922 -56.4988,82.30484 -82.3149,125.15858 -31.7769,38.7955 -52.8598,84.2252 -82.638,124.44538 -34.4818,56.41784 -71.5111,111.32506 -102.2172,169.91955 -32.452,46.32836 -57.7408,97.02873 -92.6158,141.70707 -21.3977,41.86216 -55.0571,75.77156 -75.8385,118.19006 -13.63624,13.7922 -27.41336,44.1601 -48.98174,42.5811 z m 182.38534,-5.751 c -0.9082,-40.6109 28.5216,-75.6496 42.2958,-112.9815 24.498,-61.0643 66.5464,-112.61577 98.6015,-169.53865 31.618,-44.33734 57.2145,-92.51579 91.7163,-134.79556 28.7222,-41.72165 62.7826,-79.59027 86.1173,-124.92584 28.4252,-30.42751 40.4038,-69.53266 58.6171,-105.74079 22.2508,-42.20544 51.2264,-81.50877 67.8186,-126.12111 21.459,-50.35113 75.7418,-4.44466 42.8474,30.78771 -18.1391,35.86616 -36.1328,72.76602 -61.7401,104.20829 -36.9749,66.83451 -75.7396,132.63717 -115.0909,198.10906 -54.5753,77.55871 -104.8726,157.77168 -154.3543,238.60958 -27.9754,39.91955 -50.8637,82.96891 -81.4807,120.87501 -26.2326,24.9984 -36.8744,76.183 -75.348,81.5138 z m 16.4212,-8.8897 c 30.8098,-29.5921 48.7984,-71.4158 78.2234,-103.3825 38.6129,-59.90398 77.277,-120.01275 114.7886,-180.61424 38.5359,-65.03707 85.507,-124.87397 123.3152,-190.42927 31.3394,-53.17985 61.7409,-106.97248 93.2559,-160.00003 26.1582,-34.20118 44.8932,-73.4795 63.0637,-112.1137 14.3963,-49.68343 -47.3786,-39.36555 -45.9676,0.55529 -25.4976,43.3717 -51.5674,86.79471 -74.1899,131.82438 -12.4434,46.2919 -50.5312,78.63899 -70.6862,121.26246 -41.3986,58.22839 -87.7934,113.20498 -123.6359,175.23786 -36.9538,51.95251 -67.8771,107.63081 -102.7912,160.9374 -23.6518,49.22525 -48.9466,98.16395 -67.3791,149.59515 -3.1433,10.9709 3.7904,16.7475 12.0031,7.1272 z m -371.07324,-11.5281 c 6.88198,-41.9644 21.16089,-81.7963 32.5989,-122.55451 34.74846,-75.5433 67.59113,-152.10259 110.39644,-223.64338 62.80928,-117.18064 134.5334,-229.96648 218.6031,-333.12015 54.1055,-72.08005 116.3406,-138.74067 187.508,-194.1619 18.2345,-11.28682 84.0294,-70.43235 55.3634,-20.1835 -30.6497,44.54822 -68.0764,84.69209 -99.5253,128.97518 -57.4649,71.95424 -112.929,145.50301 -167.4286,219.73938 -47.0311,65.32269 -96.2438,129.13364 -138.21376,197.89836 -43.88155,70.15609 -84.39492,142.43036 -120.70919,216.81928 -27.72107,40.79754 -40.09424,90.38154 -68.24894,130.09594 -2.10285,1.335 -15.12267,17.1853 -10.34405,0.1353 z m 12.3734,-5.8979 c 32.10278,-72.8383 71.77455,-142.36731 107.68127,-213.65179 32.49354,-55.91869 63.93267,-112.47668 100.33495,-166.00443 47.47892,-72.57676 101.53262,-140.69346 151.77962,-211.43288 49.9276,-65.55851 99.6914,-131.34443 150.804,-196.03044 25.2879,-37.76729 61.4981,-68.41644 81.1514,-109.5471 -23.2787,-1.56437 -71.2269,46.8466 -98.8714,68.91441 -62.8539,54.48052 -115.3064,119.65531 -164.9179,186.13216 -96.9633,123.00552 -173.42674,260.40444 -245.66286,398.89759 -21.66762,52.85173 -51.91798,102.31559 -66.65508,157.72248 -9.13337,26.2181 -12.85333,31.2691 3.9826,10.5876 -6.11382,17.2027 -36.46757,72.529 -19.6266,74.4124 z m 90.2933,-30.7933 c 9.0732,-30.176 31.5451,-60.8527 44.57598,-91.77378 34.3005,-57.41352 63.84331,-117.58522 98.29926,-174.86989 33.4272,-50.28956 65.0247,-101.86673 103.1776,-148.87763 12.7397,-14.34522 49.2716,-60.97548 55.7086,-48.26906 -20.0399,42.35837 -48.8986,79.93293 -72.2369,120.56282 -43.0173,72.03612 -89.1467,142.21573 -126.98206,217.17152 -30.32448,39.6426 -47.71717,92.26152 -93.95408,117.27732 -2.75271,0.3026 -6.75577,14.2152 -8.5884,8.7787 z m 32.7402,-29.4441 c 29.63618,-35.3505 52.94133,-75.84263 75.32213,-115.87605 49.05811,-89.83117 105.37391,-175.4489 157.63561,-263.32236 13.0114,-12.19456 48.372,-80.87653 14.0536,-38.80833 -31.2594,27.39984 -53.1514,64.10979 -78.5465,97.02895 -31.654,50.76595 -67.6382,99.0092 -92.78874,153.55383 -35.00375,59.6252 -68.37797,120.27045 -98.6149,182.26366 7.11368,0.3631 16.76448,-10.2994 22.9388,-14.8397 z M 1176.7313,896.79122 c 1.2401,-39.46878 33.0763,-75.01914 55.8631,-106.2821 38.8238,-55.2712 83.2486,-106.51616 120.5748,-162.78456 10.5237,-19.71574 56.4358,-75.93454 57.3132,-64.56461 -34.7342,26.55583 -53.5477,67.19235 -79.5463,101.41244 -41.5362,56.74128 -86.8736,110.93924 -126.0798,169.17475 -11.2311,12.19639 -39.6824,82.69912 -5.8385,45.71681 46.8613,-52.13182 79.629,-114.89793 116.6146,-174.01951 28.8886,-40.93863 56.371,-83.22084 85.9762,-123.58546 11.6896,-18.25799 39.5474,-50.47924 13.3301,-12.58911 -30.8118,34.14215 -49.0169,77.24989 -80.1796,111.30027 -44.739,70.74216 -83.0803,146.94078 -140.815,208.42357 -4.8533,2.99112 -10.2846,13.49612 -17.2128,7.79751 z m 11.7334,-357.22136 c 30.2387,-50.48731 64.9913,-98.30603 97.4789,-147.28537 9.3287,-16.60749 59.6047,-49.27274 19.6747,-16.86631 -37.3943,38.27188 -59.6707,88.27629 -93.0592,129.94901 -12.6004,18.23481 -21.2578,40.5373 1.5061,13.49827 32.233,-40.62909 78.5622,-69.54981 102.8053,-116.4494 13.7664,-15.292 46.5778,-80.3625 23.8528,-28.44386 -24.0748,36.17954 -47.7621,72.16596 -80.9356,100.99768 -26.1038,17.84765 -42.827,56.07501 -71.323,64.59998 z"
         style="fill:#000000;stroke-width:1.33333"
         id="path1749" />
      <path
         d="m 1301.9873,384.2118 c 7.0095,-4.17636 13.638,-9.0298 19.6183,-14.58807 2.8503,-2.6492 5.5504,-5.57926 8.2275,-8.40122 2.1207,-1.98698 4.6234,-6.04396 7.3224,-7.45534 0.3901,-0.20396 0.8664,-0.17327 1.306,-0.19538 0.5256,-0.0264 1.1341,-0.23229 1.578,0.0504 0.3485,0.22194 -0.8183,0.11523 -1.2275,0.17285 1.3477,-0.0764 12.1591,-0.1263 5.2767,-0.10501 -0.023,-0.10417 1.0257,0.13171 0.9405,0.0671 -0.3553,-0.26956 -0.8594,-0.30261 -1.2015,-0.58883 -0.9799,-0.81991 -1.1864,-1.30409 -1.7084,-2.23652 -1.3383,3.31698 -2.3876,6.74167 -3.6299,10.09762 -1.0923,3.42467 -2.9269,6.42218 -5.0509,9.28476 -1.0354,1.6733 -2.2769,3.20523 -3.4047,4.81216 -0.3963,0.56461 -0.7296,1.17296 -1.1436,1.72471 -0.5443,0.72544 -3.3281,3.86044 -3.5952,4.16475 -3.9068,4.71691 -1.9296,2.28566 -5.9255,7.29882 -0.4362,0.7275 9.8521,6.89688 10.2884,6.16939 v 0 c 3.7218,-5.28331 1.9882,-2.68752 5.2259,-7.77041 0.5645,-0.90838 2.3075,-3.74304 3.0412,-4.82913 1.5201,-2.25029 3.6037,-4.10296 4.8079,-6.58056 2.1513,-3.61144 4.4863,-7.15681 5.8971,-11.14676 1.5616,-4.17929 2.9863,-8.46609 3.4745,-12.92183 -0.1115,-0.95198 0.012,-1.96216 -0.3345,-2.85593 -0.964,-2.48844 -1.8345,-2.99755 -4.0178,-3.91837 -0.3215,-0.13558 -0.9038,0.2098 -1.2236,-0.0319 -0.9397,10e-4 -1.8795,0.01 -2.8191,0.003 -0.148,-10e-4 -0.5911,-0.0273 -0.4431,-0.0259 0.859,0.008 1.7225,0.13724 2.5768,0.0469 0.3378,-0.0357 -0.6643,-0.14177 -0.9962,-0.21406 -2.0222,-0.44049 -0.7559,-0.19236 -3.1128,-0.60511 -3.9183,0.016 -5.484,-0.39695 -8.8952,0.79189 -5.0676,1.7661 -8.8921,5.71314 -12.7027,9.29869 -1.2747,1.21383 -2.5194,2.45994 -3.824,3.6415 -7.1991,6.51999 -15.1314,12.23537 -21.8289,19.3032 -0.5333,0.5306 6.9706,8.07299 7.5039,7.54239 z"
         id="path1761"
         style="fill:#000000" />
      <path
         d="m 1391.1371,586.80516 c 0.5865,-0.45302 1.2073,-0.86493 1.7596,-1.35907 5.8068,-5.19519 10.9045,-12.15233 15.341,-18.50493 3.276,-4.86701 6.9193,-9.06828 11.6798,-12.52026 0.497,-0.36038 3.9049,-2.49354 4.5282,-2.88565 2.3752,-1.38375 3.94,-1.96788 5.2985,-4.6017 0.2262,-0.43869 0.2429,-0.95685 0.3643,-1.43528 -0.017,0.11079 0.058,0.35755 -0.052,0.33237 -3.2544,-0.74984 -6.3528,-2.31496 -9.6823,-2.5752 -0.6719,-0.0525 -0.7166,1.14282 -1.0333,1.73767 -1.4187,2.66488 -2.2723,5.50941 -3.2197,8.36277 -0.9195,3.84771 -3.1551,7.08811 -5.2257,10.38525 -0.3472,0.7104 9.6994,5.62154 10.0466,4.91114 v 0 c 2.2926,-3.9729 4.6753,-7.95011 5.7884,-12.45153 0.7559,-2.41356 1.3173,-4.88135 2.1582,-7.26519 0.1589,-0.45072 0.901,-1.05734 0.5144,-1.33833 -2.6041,-1.89263 -5.5674,-3.27731 -8.5459,-4.49881 -0.2855,-0.11709 -0.1677,0.59394 -0.2516,0.89092 0.4464,-1.43337 0.032,-0.4072 1.4176,-2.30726 0.048,-0.0652 0.1867,-0.23178 0.1072,-0.21719 -1.4414,0.26472 -3.1695,1.26535 -4.5284,1.65184 -2.2214,1.13305 -3.7823,1.86029 -5.9226,3.29203 -5.7046,3.81594 -10.2659,8.98528 -14.2361,14.53218 -4.5635,6.7005 -9.2043,13.35297 -14.1995,19.74179 -0.4329,0.55812 7.4601,6.68056 7.893,6.12244 z"
         id="path1763"
         style="fill:#000000" />
      <path
         d="m 963.2198,1098.8996 c 1.73069,-6.0125 2.1305,-12.2782 2.83223,-18.4628 0.51146,-4.5077 0.26955,-1.5934 0.45211,-3.9448 -3.94909,0.7805 -7.89818,1.5611 -11.84726,2.3416 -0.68282,-0.6017 -1.34572,-2.3833 -2.04845,-1.805 -1.12216,0.9234 -0.6387,2.8356 -0.93335,4.2587 -1.70082,8.2146 -2.79968,16.4622 -3.87767,24.7785 -0.88829,8.2482 -1.46744,16.5511 -1.41289,24.8521 0.01,1.4793 0.0294,2.9628 0.18088,4.4343 0.0624,0.6058 -0.14736,1.6998 0.45772,1.7687 4.72562,0.538 9.51209,-0.061 14.26813,-0.092 1.49913,-5.7233 0.7808,-2.6285 2.07073,-9.3037 0.11126,-1.1415 -16.0316,-2.7148 -16.14285,-1.5734 v 0 c -0.31362,7.0582 -0.40384,3.8212 0.0585,9.7144 4.66602,0.8799 9.25484,2.4211 13.99806,2.6396 0.71475,0.033 0.68648,-1.2676 0.88882,-1.9539 0.4278,-1.451 0.72146,-2.94 0.99284,-4.4282 1.47579,-8.0929 2.01997,-16.3098 2.85344,-24.482 0.64089,-8.3537 0.84413,-9.961 1.17332,-18.0813 0.0279,-0.6872 0.37746,-10.3962 0.10999,-12.0586 -0.38341,-2.383 0.41079,-6.1534 -1.8492,-7.0008 -3.96463,-1.4866 -8.4025,1.0543 -12.60374,1.5814 -0.44628,0.8875 -0.99091,1.7321 -1.33883,2.6625 -2.66392,7.1244 -2.52294,15.6466 -2.69737,23.1466 -0.0713,1.0193 14.34355,2.0276 14.41485,1.0083 z"
         id="path1765"
         style="fill:#000000" />
      <path
         transform="translate(779.13126,194.39126)"
         id="path1771"
         d="m 185.90158,929.76622 c 0.53743,-1.88865 1.3911,-14.1678 1.89704,-27.28702 l 0.91989,-23.85311 12.95328,-21.91306 c 7.12431,-12.05218 16.81726,-29.85348 21.5399,-39.55844 4.72264,-9.70496 11.93681,-23.43481 16.03148,-30.51078 4.09468,-7.07598 19.88044,-36.0754 35.07949,-64.44316 15.19904,-28.36777 33.97769,-62.6924 41.73035,-76.27696 7.75265,-13.58457 19.21746,-34.17934 25.47736,-45.76618 15.57782,-28.83398 45.47602,-78.59303 75.48167,-125.62277 13.78392,-21.60441 29.83817,-47.12638 35.67611,-56.71548 40.23255,-66.08393 129.03419,-183.58667 169.09384,-223.74574 9.56537,-9.58911 25.81692,-26.75063 36.11457,-38.13673 24.98377,-27.6245 37.78217,-37.87528 43.14796,-34.55903 0.84451,0.52194 1.53548,4.63623 1.53548,9.14288 0,7.9622 -0.59244,9.18208 -20.95004,43.13787 -26.24451,43.77493 -47.12599,76.05034 -65.2978,100.92736 -7.7681,10.63443 -15.99064,23.0217 -18.27233,27.52726 -5.33241,10.52974 -17.80217,29.45446 -39.69286,60.23989 -9.60969,13.51435 -21.52958,31.19594 -26.48863,39.29245 -4.95905,8.0965 -17.84348,28.45075 -28.63206,45.23168 -39.1935,60.9629 -86.5926,136.78609 -91.12301,145.76727 -9.35019,18.53597 -70.10845,117.38194 -93.03102,151.34964 -6.20142,9.18956 -19.62321,29.78434 -29.82619,45.76618 -10.20298,15.98184 -24.92511,37.55732 -32.71585,47.94551 -7.79074,10.3882 -19.25355,27.71396 -25.47292,38.50171 -18.99434,32.94646 -31.58923,49.19843 -42.76128,55.17753 -3.18008,1.70192 -3.33064,1.60097 -2.41443,-1.61877 z"
         style="fill:#800000;stroke-width:1.45289" />
      <path
         transform="translate(779.13126,194.39126)"
         id="path2342"
         d="m 360.66551,931.90174 c -4.665,-4.66498 9.32782,-40.2246 45.35632,-115.26296 15.27673,-31.8176 24.61341,-48.97845 40.31421,-74.09761 11.23818,-17.97957 28.15244,-45.11237 37.58726,-60.29512 9.43481,-15.18275 24.16293,-38.06584 32.72916,-50.85131 8.5662,-12.78547 20.65029,-31.41884 26.85352,-41.40749 14.09623,-22.69825 30.36535,-45.66319 70.42164,-99.40484 33.34887,-44.74261 36.84954,-49.76339 47.99416,-68.83484 3.87398,-6.62944 14.48341,-22.6476 23.57648,-35.59592 9.09308,-12.94831 19.06516,-27.74905 22.16016,-32.89052 6.22087,-10.33422 15.21641,-30.10887 15.24481,-33.51224 0.0286,-3.42818 26.64897,-52.48984 51.71903,-95.31873 17.07971,-29.17846 23.16229,-40.85165 24.01799,-46.09327 1.64136,-10.05446 7.42833,-19.08054 15.12523,-23.59122 18.35371,-10.756 32.67131,-2.25162 30.80781,18.29926 -0.5889,6.49456 -3.67173,13.91927 -16.04835,38.6511 -17.55186,35.07332 -26.20152,50.22144 -40.95851,71.7305 -5.75655,8.39046 -20.92285,33.23496 -33.70289,55.20998 -88.83271,152.74609 -82.65056,142.63431 -131.90832,215.75483 -17.76422,26.37003 -49.2675,75.07832 -70.00731,108.24063 -52.88319,84.55865 -103.93336,163.32607 -112.5259,173.62089 -4.00176,4.79455 -15.69034,21.13961 -25.97463,36.32236 -31.23662,46.1148 -47.60059,64.5078 -52.78187,59.32652 z"
         style="fill:#ff0000;stroke-width:1.45289" />
      <path
         transform="translate(779.13126,194.39126)"
         id="path2344"
         d="m 9.7792508,909.61217 c -1.4549119,-1.4549 -1.6939107,-3.04006 -1.2852698,-8.52456 0.5865191,-7.87185 4.640946,-19.19633 16.20521,-45.263 4.386844,-9.88826 7.769075,-18.19686 7.516067,-18.46356 -0.253007,-0.26669 -2.72596,2.04485 -5.49545,5.13676 -2.76949,3.09191 -5.055452,5.21296 -5.079915,4.71343 -0.02446,-0.49951 1.520687,-5.35375 3.433666,-10.78719 1.912978,-5.43342 5.430322,-16.12012 7.816318,-23.7482 7.330713,-23.43646 14.225378,-39.79703 37.233361,-88.35223 7.36304,-15.53869 15.902957,-34.03102 18.977593,-41.09406 10.613368,-24.381 60.630319,-117.63082 95.506029,-178.05802 46.57896,-80.70478 92.98773,-151.61756 137.9542,-210.79453 7.72841,-10.17078 21.60863,-28.43195 30.84493,-40.58038 47.9155,-63.02285 90.29318,-111.85719 126.8083,-146.12884 19.21496,-18.034393 70.71467,-62.300617 84.26497,-72.429373 16.2438,-12.142131 30.63985,-19.787342 37.25986,-19.787342 1.77596,0 -2.07984,7.748175 -9.69116,19.47423 -7.90121,12.172665 -15.44823,21.909983 -36.64236,47.276724 -10.13778,12.13364 -22.3626,27.389811 -27.16629,33.902601 -4.8037,6.51279 -15.9742,21.0876 -24.82333,32.38847 -43.65625,55.75161 -123.85991,160.90065 -145.36234,190.5737 -8.39383,11.58339 -28.91428,39.55303 -45.601,62.15477 -69.59919,94.27038 -107.11611,149.62605 -145.1744,214.20279 -28.41177,48.20863 -47.80861,82.58663 -61.44343,108.89926 -8.051921,15.53869 -21.921134,42.12141 -30.820473,59.07271 -20.653516,39.34044 -43.607037,85.24724 -54.449918,108.89926 -4.662628,10.17078 -8.594597,18.62992 -8.737709,18.79809 -0.143111,0.16816 -1.064468,-0.49852 -2.0474592,-1.48151 z"
         style="fill:#ff0000;stroke-width:1.02735" />
      <path
         transform="translate(779.13126,194.39126)"
         id="path2346"
         d="m 114.05705,864.3868 c 0,-1.03903 27.55601,-54.58963 40.35434,-78.42209 13.08172,-24.36016 36.38223,-66.01465 48.56008,-86.8112 4.63222,-7.91061 11.94026,-21.41105 16.24009,-30.00098 12.81439,-25.59979 23.5177,-43.25842 64.635,-106.63678 22.53087,-34.72915 60.78636,-87.84836 74.72788,-103.7625 10.73082,-12.24913 37.3679,-38.89376 37.74671,-37.75737 1.1563,3.46892 -14.13725,32.34008 -24.17643,45.64024 -3.125,4.14007 -12.34859,18.56813 -20.49687,32.06236 -8.1483,13.49422 -27.6571,45.39348 -43.3529,70.88725 -48.8062,79.27301 -68.64856,112.79257 -100.72153,170.14816 -29.31729,52.42765 -57.67214,95.54571 -73.04881,111.08235 -8.41691,8.50448 -20.46756,16.4944 -20.46756,13.57056 z"
         style="fill:#ff0000;stroke-width:1.02735" />
      <path
         transform="translate(779.13126,194.39126)"
         id="path2348"
         d="m 421.78365,333.67321 c 1.64064,-5.52054 9.49733,-18.47156 19.21828,-31.67954 5.7651,-7.8331 19.67085,-28.46978 30.90167,-45.85928 30.1965,-46.75544 44.93583,-66.28443 50.18799,-66.49696 4.2779,-0.1731 13.69716,-7.20782 25.84553,-19.30259 6.1187,-6.09171 11.5409,-10.81874 12.04932,-10.50451 1.35075,0.8348 -2.56113,10.40881 -6.69188,16.37781 -1.96406,2.83811 -5.8914,7.93405 -8.72741,11.32431 l -5.1564,6.16411 2.51679,2.23087 2.5168,2.23087 -3.57794,4.96059 c -1.96786,2.72833 -6.22779,9.22459 -9.46651,14.43614 -10.33132,16.62459 -22.30765,30.3819 -50.50348,58.01378 -15.01483,14.71452 -30.45534,30.28248 -34.31225,34.59548 -22.90493,25.61347 -26.41469,28.94043 -24.80051,23.50892 z"
         style="fill:#ff0000;stroke-width:1.02735" />
      <path
         transform="translate(779.13126,194.39126)"
         id="path2350"
         d="m 405.44146,694.8319 c -2.75415,-2.75414 2.26919,-20.57431 10.65458,-37.79687 7.33551,-15.06622 30.28546,-47.4789 73.47162,-103.76544 48.33343,-62.9952 68.07344,-89.72556 86.55132,-117.20089 23.24528,-34.5641 31.1151,-44.67064 34.16364,-43.87343 2.69155,0.70386 9.26064,-5.36161 16.09342,-14.85963 3.89296,-5.41145 6.49352,-7.81201 6.49352,-5.99409 0,0.23477 -7.5445,10.98343 -16.76555,23.88592 -9.22107,12.90249 -25.48322,36.17255 -36.13813,51.71124 -10.65492,15.53869 -24.98935,36.34256 -31.85429,46.23082 -13.03685,18.77826 -16.13399,23.70605 -45.52134,72.42828 -28.43482,47.14299 -46.40538,73.92474 -66.54547,99.17353 -16.37647,20.53051 -28.3612,32.30268 -30.60332,30.06056 z"
         style="fill:#ff0000;stroke-width:1.02735" />
      <path
         transform="translate(779.13126,194.39126)"
         id="path2352"
         d="m 186.27166,930.49397 c 0.35305,-0.92004 1.19513,-12.89221 1.87128,-26.60482 l 1.22938,-24.93204 12.22183,-21.06925 c 6.722,-11.58808 16.19523,-28.92849 21.05162,-38.53423 4.85638,-9.60573 13.55928,-26.01767 19.33977,-36.47098 5.78049,-10.4533 21.1415,-38.6541 34.13558,-62.66844 28.96999,-53.53939 75.8817,-137.90046 88.92032,-159.9049 25.58787,-43.18304 84.63326,-137.51966 109.14203,-174.37588 35.21308,-52.95332 86.15821,-120.75912 123.20807,-163.9847 6.05393,-7.06304 21.94242,-24.3996 35.30774,-38.52568 48.36081,-51.11351 57.7327,-60.06459 64.72603,-61.8198 3.32386,-0.83424 4.24216,0.98174 4.26108,8.4265 0.0204,8.05973 -2.47176,13.21908 -22.04031,45.62733 -25.39355,42.05525 -39.23597,63.34504 -70.44369,108.34313 -5.055,7.28875 -10.99296,16.53491 -13.19549,20.54703 -5.16072,9.40072 -17.14186,27.5226 -36.06724,54.55292 -18.82106,26.88129 -18.87053,26.95701 -62.58295,95.77851 -57.76883,90.95213 -77.8253,123.30811 -91.55699,147.70379 -29.45026,52.32128 -115.08857,186.24989 -154.98069,242.37226 -5.59058,7.86512 -15.41809,23.01603 -21.83892,33.66868 -13.95776,23.15701 -22.36726,35.16091 -30.45023,43.46538 -6.52599,6.70482 -13.41956,11.43158 -12.25822,8.40519 z"
         style="fill:#ff0000;stroke-width:1.02735" />
    </g>
  </g>
</svg>
