<?xml version="1.0" encoding="UTF-8" standalone="no"?>
<svg
   xmlns:dc="http://purl.org/dc/elements/1.1/"
   xmlns:cc="http://creativecommons.org/ns#"
   xmlns:rdf="http://www.w3.org/1999/02/22-rdf-syntax-ns#"
   xmlns:svg="http://www.w3.org/2000/svg"
   xmlns="http://www.w3.org/2000/svg"
   xmlns:sodipodi="http://sodipodi.sourceforge.net/DTD/sodipodi-0.dtd"
   xmlns:inkscape="http://www.inkscape.org/namespaces/inkscape"
   version="1.1"
   id="svg70"
   width="927.0069"
   height="1279.3346"
   viewBox="0 0 927.0069 1279.3346"
   sodipodi:docname="villager4.svg"
   inkscape:version="1.0 (4035a4fb49, 2020-05-01)">
  <metadata
     id="metadata76">
    <rdf:RDF>
      <cc:Work
         rdf:about="">
        <dc:format>image/svg+xml</dc:format>
        <dc:type
           rdf:resource="http://purl.org/dc/dcmitype/StillImage" />
        <dc:title></dc:title>
      </cc:Work>
    </rdf:RDF>
  </metadata>
  <defs
     id="defs74" />
  <sodipodi:namedview
     fit-margin-bottom="0"
     fit-margin-right="0"
     fit-margin-left="0"
     fit-margin-top="0"
     inkscape:document-rotation="0"
     pagecolor="#ffffff"
     bordercolor="#666666"
     borderopacity="1"
     objecttolerance="10"
     gridtolerance="10"
     guidetolerance="10"
     inkscape:pageopacity="0"
     inkscape:pageshadow="2"
     inkscape:window-width="1080"
     inkscape:window-height="1826"
     id="namedview72"
     showgrid="false"
     inkscape:pagecheckerboard="true"
     inkscape:zoom="0.78671483"
     inkscape:cx="438.62389"
     inkscape:cy="532.77052"
     inkscape:window-x="-11"
     inkscape:window-y="-11"
     inkscape:window-maximized="1"
     inkscape:current-layer="g78" />
  <g
     transform="translate(-211.19363,-350.64121)"
     inkscape:groupmode="layer"
     inkscape:label="Image"
     id="g78">
    <path
       id="path82"
       style="fill:#000000"
       d="m 691.3214,1628.667 c -52.38273,-15.2287 -106.32752,-14.7658 -159.7278,-16.4443 -44.18645,-7.3732 -102.80507,16.0551 -138.14997,-1.7544 30.34639,-2.7123 63.8679,-76.8459 63.03482,-64.264 -35.98676,36.4897 33.47172,-44.7334 12.63535,-69.9879 9.67191,-50.7129 5.5673,-106.8396 -48.10912,-126.4465 -34.11915,-36.5467 -92.41072,-98.1154 -86.95106,-138.1011 -4.3918,-18.5309 -28.52536,-105.0879 -77.36962,-119.0342 -26.72437,-48.8995 18.8358,-108.53164 -20.67618,-156.21928 -32.37234,-71.62375 -29.31994,-154.20978 -12.16277,-229.38168 30.13835,-49.24179 27.7146,-126.82934 85.21764,-155.11697 33.21224,-54.23015 64.49859,-112.54601 127.41782,-136.74718 50.96423,-48.17263 118.77426,-59.05041 185.87762,-61.13955 80.30916,-16.97587 153.43777,32.68128 208.58114,85.40339 43.3814,37.56494 55.25283,94.90109 83.25756,142.22139 18.40156,25.36919 33.81705,65.92839 57.29273,22.47381 70.14984,-38.32078 107.27644,69.43168 63.99124,114.23257 -60.06057,45.34007 -5.0512,126.16485 -27.139,181.1125 -7.587,-66.05936 -6.946,38.50293 -26.11501,57.77312 -29.74841,36.73018 12.41714,122.24808 -53.92968,151.17588 7.66454,61.6733 -58.98505,99.3048 -84.18506,150.5358 -18.50368,54.0053 -65.54408,84.4196 -103.70073,123.4568 -15.39138,50.6376 -7.96917,112.4439 12.4117,159.7538 -4.24784,38.9943 97.15177,95.2369 17.76984,78.466 -26.50801,1.7361 -52.45914,13.1477 -79.27146,8.032 z m 27.46549,-4.11 c 27.06037,-10.0338 89.03336,-1.7367 44.24813,-41.8302 -37.29182,-54.2717 -39.37542,-121.9515 -43.51882,-184.2361 -20.33729,-9.2252 -27.16582,27.7601 -56.23009,16.1651 -26.94988,4.1565 -81.21828,11.5378 -107.25689,15.3786 -17.73011,4.4424 -25.30255,-41.9493 -57.97136,-41.9657 -60.75123,-7.6286 42.66371,56.8769 37.28999,65.772 -24.4832,-8.6617 -71.2525,-64.6519 -48.27961,-5.7674 6.81658,31.7467 82.44297,60.6086 21.86262,30.4607 -20.8072,-17.3537 -36.6874,-30.4647 -17.80613,2.1913 10.14221,15.5278 62.02473,47.1218 15.62964,27.3862 -14.23271,-19.3669 -39.87931,-41.0395 -22.96668,-2.3415 2.64143,21.8041 78.39108,75.416 24.09726,47.3388 -30.70577,12.3836 -38.2712,-41.593 -8.50434,-5.3178 -8.14373,-31.2038 -34.01249,-46.8092 -32.07999,-3.8765 -11.84908,22.3322 -83.05257,76.571 -16.83261,67.5751 68.66234,-9.3241 140.80281,-5.5852 208.43544,4.1453 19.79575,3.9791 39.81267,6.7707 59.88344,8.9221 z M 475.4881,1599.7275 c -32.88005,-0.2488 -40.3823,-36.5182 -2.26754,-8.3638 13.46944,1.0306 23.2269,11.3852 2.26754,8.3638 z m 14.90864,-9.7932 c -32.46681,2.9978 -31.18085,-63.3559 -12.12732,-14.8289 4.38477,5.9084 43.44961,14.2447 12.12732,14.8289 z m 12.43511,-7.059 c -30.53596,1.3352 -42.26585,-61.1143 -14.1012,-16.2374 5.85281,5.7321 42.44318,16.0434 14.1012,16.2374 z m 53.48357,-155.2086 c 6.33787,-21.4832 -14.31152,2.0572 0,0 z m 46.64131,-9.5952 c -10.38186,-1.626 -3.99001,11.0955 0,0 z m 16.03137,-1.1548 c -3.95198,-5.1884 -4.93657,6.6819 0,0 z m 20.5,-1.4182 c 4.73691,-8.8718 -9.32921,1.158 0,0 z m 26.97697,-4.7715 c -2.15946,-21.2608 -15.23233,17.7275 0,0 z m 26.93549,-4.8957 c 0.40096,-35.3964 -16.32114,26.2307 0,0 z m -124.92777,0.3354 c -0.38043,-11.7834 -4.2321,5.8268 0,0 z m 14.48655,-1.2221 c -3.13395,-34.1947 -62.98178,-96.2871 8.30235,-97.7192 35.24939,-2.7199 63.03476,6.8594 50.66526,39.253 17.07015,26.5362 -25.15875,73.0559 26.51394,53.4971 46.39747,1.8007 56.60563,-78.6562 92.73034,-54.2269 30.78624,-35.2442 78.47136,-75.7896 94.04378,-111.0519 -8.41182,21.0969 -58.23749,66.0585 -59.37416,55.215 20.67655,-6.4247 56.59881,-48.6429 53.06835,-59.1973 -19.52773,24.6691 -47.71695,32.8143 -8.97517,6.7215 32.835,-37.5753 36.87678,-51.865 64.46429,-96.2654 1.94683,-32.6267 0.17102,-81.1487 13.99593,-124.63 3.96091,-20.77495 32.05779,-57.62725 19.47098,-58.95707 6.69581,-22.44852 4.78285,-119.7046 -4.83114,-52.73806 -0.0754,23.73799 -25.87718,125.46683 -17.6792,59.17189 15.62163,-55.82557 23.70954,-117.97179 18.12655,-172.00499 -4.78533,49.56872 -12.64944,11.45784 -7.53555,-6.51105 -4.26447,38.61006 -6.85988,29.29527 -14.98726,-2.80551 -41.85583,-15.10097 -97.60547,-6.77975 -146.15117,4.60922 -32.40435,17.03369 -80.81701,28.42676 -102.13219,69.41414 -19.66251,15.4368 -10.41102,91.13018 -22.42054,76.25937 -5.68484,-47.19248 -4.22308,82.09636 7.31527,35.71024 -6.9474,43.30822 10.71092,75.29032 56.72759,66.62442 40.26728,1.8263 58.43282,40.0793 9.00342,50.0267 -34.64183,18.2952 -77.46419,22.0262 -102.81296,56.9519 18.63468,-55.3349 69.78429,-70.1727 117.25,-78.0087 34.67423,-8.1947 -44.6639,-30.6896 -61.8396,-26.7936 -58.73401,-24.1192 -35.14765,-120.28865 -15.778,-168.75273 27.02397,-41.52473 26.79214,-100.54919 68.46149,-132.18906 -18.9142,44.64414 31.76116,-40.4076 9.55967,16.79812 10.7993,-25.31648 34.68814,-56.4586 16.36203,-8.36316 -12.10528,35.37043 -4.43746,40.19006 4.94957,3.05866 30.33428,-53.95292 9.37506,9.89001 3.3671,32.42593 10.41317,-8.46681 45.31734,-74.39769 28.61514,-19.99638 -8.62985,36.82659 42.46857,-53.8924 23.60977,2.85858 37.36593,-37.5368 8.33395,29.84746 25.22253,0.48311 10.58294,-11.33115 23.88265,-23.59111 14.80716,1.91416 19.61601,-13.12031 40.54149,5.77986 35.52989,-2.85228 42.54602,47.15949 11.59989,-80.41837 -4.81258,-43.61505 -3.07167,-23.03506 -43.92348,-101.74045 -30.98306,-43.18284 7.87792,27.9088 3.63369,64.84062 -5.00797,14.39245 -0.5668,-26.75884 -35.82463,-101.21684 -41.84902,-82.97188 9.20736,22.63402 32.26291,78.26087 16.18971,81.7519 -1.54833,-31.97203 -35.40838,-111.91313 -14.92643,-39.1373 8.93289,29.98805 4.41644,78.65406 -11.39979,21.27476 -11.95922,-22.97668 -49.60777,-81.37273 -26.5754,-25.02582 18.74359,67.95035 -22.68418,-34.05068 -43.02769,-41.45601 10.62445,25.90355 8.55545,31.20196 -3.0616,30.06379 16.94815,20.89282 20.20318,63.60209 -1.79727,22.65479 -20.09101,24.31711 -0.27167,-34.01015 -23.46186,-41.94747 -26.68902,-55.37067 -87.5143,-89.74573 -148.6945,-79.29321 -26.66461,0.61709 -83.55208,26.91931 -25.89631,9.33737 52.83627,-20.75465 144.94574,12.84724 140.68708,68.46785 -9.95703,-22.63451 -52.30738,-68.35487 -47.1279,-44.71909 -59.60125,-30.72471 -126.98391,-9.88896 -187.79093,4.54274 -31.49239,38.94345 -73.1924,72.38505 -108.35785,110.88693 -31.61637,38.42093 7.63706,78.58367 48.67621,54.56001 31.02764,0.5894 97.34022,1.4076 107.248,15.31755 -45.42746,2.96314 24.21367,50.76407 23.4083,76.4261 43.59802,48.77063 61.4157,110.71541 58.51644,174.73428 -2.69436,63.2161 -15.50504,-41.43126 -13.86651,-62.02052 0.70621,-58.785 -48.1358,-103.54069 -95.70219,-129.86359 -23.67599,8.79792 -60.48094,-22.69359 -64.41077,4.64266 -32.18113,-19.88284 -31.6877,20.09075 -65.22122,5.14686 -37.84989,-6.3067 -38.21805,0.73944 -23.19889,35.17714 13.11838,87.93605 94.87922,7.86585 145.16952,9.54941 48.00467,-2.62231 72.63037,74.22063 15.513,74.92951 -40.58341,29.3685 -113.14388,-28.8786 -129.33026,-10.75073 12.53744,25.15569 80.66749,101.32076 20.99004,54.62358 -18.36663,-21.33149 -37.84546,-72.69612 -49.66834,-77.74543 18.88897,62.12243 57.95634,114.27161 101.87963,160.94071 -48.5874,-18.1923 -62.18615,-73.75978 -92.42959,-110.57458 20.64083,51.86348 58.28568,123.95178 94.43438,144.95818 -43.06105,7.6584 -73.6987,-98.4464 -79.0606,-85.9355 11.41214,42.2557 64.82725,98.1404 76.29315,116.4056 -47.18285,-11.5032 -57.49377,-90.7519 -85.60984,-99.7572 13.57321,26.8239 14.27224,37.0623 13.25657,51.7246 17.87185,28.1706 20.01532,54.4121 -5.72373,12.9882 -9.61358,-27.1449 -18.10837,-98.5424 -14.68021,-30.2308 14.99545,48.7196 29.95585,96.9316 48.21122,144.6063 24.21433,49.6171 47.46216,102.9706 96.00731,133.2907 25.22453,8.564 79.95284,63.8762 91.13374,32.3272 -7.44458,-3.3131 -25.43939,-9.2406 -32.28238,-29.8819 -6.21687,31.7483 -66.59585,-32.9084 -24.19361,-7.7317 22.0657,19.6132 36.91312,-11.4662 45.59546,26.4149 20.51613,-22.2048 28.24504,63.2541 38.78065,14.9839 12.51795,-45.918 3.72845,30.129 20.51243,20.7909 z M 455.4881,1353.644 c 10.47082,-17.6668 -0.67641,14.1481 0,0 z m 129,-62.7065 c -32.11892,-11.3761 -94.65571,-5.381 -107.95728,-28.9651 18.35245,-30.1788 7.18173,-17.2579 14.30543,-4.4828 51.54788,-13.1874 104.10012,-5.1895 153.57033,-12.9529 37.4355,-1.6021 94.39371,-3.895 106.8918,-9.6403 11.63615,17.0116 -23.99613,57.7097 -17.7856,19.0431 -42.66238,14.9882 -82.08643,43.9497 -129.97171,37.7294 -6.35717,0.036 -12.71953,-0.162 -19.05297,-0.7314 z m 56.5,-6.7996 c 21.4708,1.1228 96.21572,-34.1753 37.26945,-16.7931 -51.36711,9.0025 -151.44755,1.4688 -172.77965,1.7248 44.69398,7.8365 89.68667,22.0719 135.5102,15.0683 z m 2,-19.3452 c 20.68078,4.2473 110.02067,-16.6412 44,-17.876 -53.59909,10.0879 -108.71193,4.5171 -161.37497,11.0239 -5.18744,14.4563 70.28393,4.5646 92.68162,7.96 l 12.34162,-0.4494 z m 106.42971,-14.626 c -1.49757,-9.4431 -2.13829,13.3469 0,0 z m 32.07029,28.25 c 2.39149,-5.5261 2.39149,5.5261 0,0 z m -367,-31.9539 c -52.95386,-5.1321 -61.28578,-98.1177 -6.38663,-105.2301 30.53886,14.1902 9.57519,65.1286 -1.40492,31.6235 -11.48636,67.8056 83.06358,2.8248 110.00186,-10.2439 46.94207,-39.0666 121.28157,20.3886 64.59075,61.9865 -44.65165,13.1448 -98.02924,-11.1292 -141.2201,18.9927 -7.11363,6.4937 -17.09715,3.3065 -25.58096,2.8713 z m 31.14167,-5.4213 c 43.53923,-25.9314 -51.3485,1.7211 -62.21855,-24.6146 14.5854,12.3926 43.52441,37.4267 62.21855,24.6146 z m -15.06996,-15.2127 c 39.10439,-16.0437 82.7858,-5.5082 124.91111,-0.1145 81.23282,-1.4203 17.09685,-102.7365 -38.8232,-61.362 -28.98338,17.7447 -112.19393,79.2155 -118.85132,17.0991 1.99078,-40.8914 -23.75919,55.5223 19.42692,43.0789 -3.67156,-1.1442 21.80863,4.9807 13.33649,1.2985 z m 126.42829,-12.58 c -44.30664,-14.4247 48.22627,-3.5999 0,0 z m -84.9008,-5.2126 c 24.96871,-7.7446 69.20248,-22.0386 86.41618,-6.264 -29.02552,-3.8553 -57.57846,5.7573 -86.41618,6.264 z m 6.9008,-7.1234 c 12.97029,-15.042 86.41486,-16.8703 33.29612,-24.1766 23.77402,-21.4268 96.105,26.0409 31.20388,12.831 -22.05703,-1.4883 -43.4217,6.0116 -64.5,11.3456 z m -92.53837,-24.4157 c 30.6493,-9.4704 30.00516,-36.3054 -0.99348,-21.3467 -16.16673,17.9036 -5.51552,70.8912 0.99348,21.3467 z m 94.03837,64.0317 c 7.59579,-25.2874 11.56694,-1.1773 0,0 z m 169.41611,-11.027 c -66.60734,-16.2904 -13.89084,-107.9666 33.20577,-62.5046 38.8733,-2.6525 136.77802,42.0459 118.74842,-32.0493 -58.55094,0.7894 15.37087,-62.8483 26.77573,-10.4005 33.97061,67.3586 -48.27924,97.2997 -100.95036,82.1471 -31.63485,-3.2707 -45.58116,33.9108 -77.77956,22.8073 z m 35.55752,-7.1898 c 33.71351,-19.7762 -73.68451,-26.4089 -57.53816,-22.0804 10.84511,19.702 36.15728,30.6062 57.53816,22.0804 z m 36.93927,-20.5952 c 25.28787,-0.073 118.28017,-34.3012 95.55812,-26.3509 -6.56084,35.7116 -103.75967,15.5061 -30.56542,31.3009 68.85614,7.4487 31.93982,-136.3689 0.83556,-80.1325 46.44356,-22.3413 23.80636,76.0833 -25.45876,60.9641 -37.31565,14.1947 -100.32486,-0.5515 -122.10601,3.2725 26.35398,6.7295 54.33864,21.8433 81.73651,10.9459 z m -94.07951,-21.5008 c 31.97758,-2.7225 101.20664,6.2765 104.96681,-1.6351 -34.03285,6.4707 -85.74331,-25.9528 -111.52695,-4.8964 -2.50584,6.2678 0.88746,24.6195 6.56014,6.5315 z m 81.66661,7.6751 c -25.96476,-1.6807 -48.12155,-1.7829 -8.76406,0.3773 -2.6361,0.2246 30.05463,1.3829 8.76406,-0.3773 z m -108.14558,-33.4674 c -29.97989,-49.32 -95.14603,-35.4049 -135.01245,-63.8472 -41.75057,-40.7101 74.41631,-52.4261 76.78571,-42.4371 -30.30016,1.447 -110.34661,22.2173 -43.36107,46.5216 25.15354,-6.9416 62.15177,-35.6832 63.48234,9.2218 9.35353,16.7879 52.48377,26.4401 38.10547,50.5409 z m -46.35442,-49.1294 c -2.72655,-3.4042 -3.11306,6.244 0,0 z m -22.36232,-25.6004 c -14.90445,1.4616 -17.12845,17.4653 0,0 z m 11.36232,-33.7772 c -3.61202,-4.2771 -12.00762,6.2138 0,0 z m 34,-9.932 c 5.49207,-38.5985 70.84521,-2.0697 21.55555,-2.8242 l -9.91696,1.1013 z m -124.91392,-28.818 c 8.09883,-18.63943 11.83658,-6.3209 0.8528,2.2505 z m 273.42734,-11.87215 c -24.79689,-11.96507 -33.85131,-72.68952 4.48658,-39.06546 16.98174,9.16236 105.63443,14.35739 46.08511,17.06043 -22.13592,-9.64166 -45.08597,7.76849 -54.82135,-1.46396 4.60404,0.26406 12.89622,37.10524 4.24966,23.46899 z M 448.52989,983.3116 c 31.59643,-18.06813 27.13108,-39.7314 -3.26873,-11.53474 -65.94607,32.93904 71.67532,-56.94097 29.49199,-1.21155 7.2025,-21.85494 -32.31193,26.42189 -26.22326,12.74629 z m 18.95821,2.22751 3.0404,-2.55699 z m 284.79706,-43.15872 c -29.24605,-6.86641 -88.79604,-25.37186 -37.91487,-52.64574 39.10559,-50.8039 111.50616,-25.57219 151.47789,6.353 -16.3011,37.14955 -77.0234,48.24728 -113.56302,46.29274 z m 44.70294,-8.08651 c 36.29297,1.63539 93.12367,-45.30492 26.31689,-52.05592 -23.49394,-13.72757 -68.51515,-28.65214 -38.19668,9.85381 0.8894,43.47463 -65.99478,14.90243 -23.50835,-10.65356 22.92608,35.77414 -20.58252,-10.11275 -2.6173,30.52834 43.51809,-4.0168 -0.47126,-72.65086 -23.0587,-23.88012 -20.7099,45.5424 56.37474,55.23984 55.74585,35.20421 -13.33449,12.31517 -17.63223,17.84864 5.31829,11.00324 z m -64.5,-5.17721 c -38.62231,-27.82307 64.49818,-84.20564 3.36978,-53.66435 -27.48147,25.71789 -58.07693,38.49634 -3.36978,53.66435 z m -405,-50.08336 c 40.16089,-35.62019 112.90097,-55.65443 150.29643,-5.37406 -46.18305,-32.16381 -98.92056,-31.73513 -144.04604,1.60522 z m 543.51542,-9.69164 c -42.76128,-32.10806 -130.33104,-37.16091 -154.09494,-11.05028 36.54529,-43.70875 89.26333,-19.91494 134.50321,-8.51102 6.58004,2.76079 30.71393,9.16033 19.59173,19.5613 z m 28.48458,-31.80256 3.0404,-2.55699 z m -293,569.34619 c -5.78871,-5.5325 -7.80262,6.1587 0,0 z m 22.34395,-3.2186 c 30.02739,-47.6914 -12.72504,-13.8388 0,0 z m -10.04598,-2.3043 c 29.08991,-16.268 -4.34565,-93.3068 6.23721,-31.2176 6.26908,10.1548 -28.8156,32.9116 -6.23721,31.2176 z m 98.35129,-11.1298 c -5.99891,-0.1755 -1.77358,6.516 0,0 z m -0.95502,-5.8422 c 8.86383,-8.0878 -14.13783,9.3562 0,0 z m -116.27127,-6.5854 c -10.91105,-21.7917 -36.73859,-93.8903 -21.88027,-28.3321 4.67829,5.6659 11.93548,35.4218 21.88027,28.3321 z m 143.34241,-4.7984 c 21.17004,-16.1218 78.72902,-62.3273 66.99419,-66.3622 -12.38712,19.4414 -77.86584,68.7055 -66.99419,66.3622 z m -137.13243,-13.8399 c 14.77926,-24.2908 -28.49758,-64.3864 -10.96197,-17.1257 1.21288,1.8724 12.00039,47.0283 10.96197,17.1257 z m 135.36705,4.5271 c -21.97437,6.5837 -4.39152,6.5331 0,0 z m -6.42853,-0.3719 c 17.03233,-11.5466 -17.57176,9.4251 0,0 z m -284.93019,0.8234 c -17.88657,-16.6638 -7.95258,-1.9617 0,0 z m 305.90577,-5.4071 c 13.66114,-14.548 -14.86914,13.3321 0,0 z m -20.1747,-0.406 c 19.1807,-19.1659 -13.36703,-24.397 0,0 z m -97.28983,-19.1612 c -4.72908,6.0037 4.99596,14.8114 0,0 z m -16.40711,-12.089 c -14.17582,-12.055 -5.93049,39.1326 0,0 z m 156.82459,8.8347 c 4.77436,-7.1328 -7.61493,7.8363 0,0 z m 0.69291,-3.75 c 9.39288,-10.1781 -10.54508,6.3779 0,0 z m -214.80525,-5.6087 c -3.71737,-16.1081 2.66081,17.1763 0,0 z m 55.59431,-7.8913 c -14.19231,-6.7947 -7.07371,17.4704 0,0 z m 171.09372,4.5457 c 7.91692,-8.8849 -9.92721,8.5425 0,0 z m 12.90832,-14.0149 c 23.68043,-27.4201 19.83343,-31.3607 -3,-3.323 -23.07921,23.1592 -1.67807,8.3432 2.93328,3.3829 z m 87.95803,-124.7808 c 14.64469,-24.7053 19.04163,-42.5576 1.22172,-7.8917 -8.49402,11.9623 -15.1004,32.1914 -1.22172,7.8917 z m 23.03572,-32.8724 c -6.14074,2.3679 -1.76186,7.9418 0,0 z M 293.84082,1108.155 c -4.48391,-62.7559 -10.89363,-125.56524 -26.28945,-187.7609 -28.70203,-41.44521 22.4149,-99.90601 -17.83663,-130.22743 -31.96119,62.24554 26.05793,124.91182 12.83559,189.46341 -6.05279,40.54472 -25.04289,118.35902 31.29049,128.52492 z m 346.95,-5.9883 c 15.24344,-22.7795 -8.47896,2.5259 0,0 z m 298.41134,-4.5 c 22.853,-28.7699 -24.10899,5.7958 0,0 z m 10.62571,-27.5871 c 19.41518,-66.4903 0.4588,-138.33742 26.65387,-203.61972 20.66378,-27.38527 -5.74078,-123.84724 -29.5117,-57.3048 -15.38063,57.3296 34.90152,-10.58895 20.43912,20.86265 16.9646,55.15066 -26.91178,105.00447 -31.4294,159.19578 -5.0804,16.00339 -29.02181,140.77649 13.84811,80.86609 z m -302.33977,19.3371 c 6.73119,-8.8314 -9.61855,9.5612 0,0 z m 10,-5.2355 -7.07382,5.3919 z m 0.56498,3.6304 c -5.38108,-1.1647 -2.99596,6.527 0,0 z m 47.18502,-0.8839 c 11.52074,-9.1462 -20.0322,9.0304 0,0 z m 1.25,-7.2598 c 39.99747,-23.1794 -29.99442,11.0615 0,0 z m 247.80687,-4.2777 -1.50669,2.3561 z m -37.29757,-15.1619 c 3.67393,-35.6507 -7.7379,39.9539 0,0 z m -185.38174,9.9384 c 3.16257,-4.5852 -7.08855,6.4065 0,0 z m -420.82288,-20.3071 c -2.27327,-6.3 -2.67086,7.6138 0,0 z m -9.01118,-65.73936 c -18.44657,-35.48854 13.62199,38.85496 0,0 z m 672.69708,-42.8327 c 7.34483,-35.76492 -13.05147,32.42839 0,0 z m -525.13544,0.68133 c 68.07178,-36.16754 -33.83878,-96.41552 -72.35439,-56.16472 -36.01841,53.57767 71.7934,74.82253 54.35096,8.09341 -25.30681,-21.01995 -41.46125,28.04377 -7.85333,11.65461 -27.78003,60.59412 -42.75353,-30.71066 -2.35293,-25.45055 63.66809,25.79207 -57.3132,75.18009 13.97057,62.3184 l 8.61239,-0.56836 z m 538.78032,-22.20251 c 1.5919,-21.46794 -11.86996,43.60604 0,0 z m -707.56029,-0.96802 c -0.0441,-25.82442 -21.36935,-101.53506 -15.17547,-34.08438 1.28306,11.0768 23.72671,85.3652 15.17547,34.08438 z m -32.07517,17.11833 c -2.20074,-7.14269 -0.76893,6.9869 0,0 z m 122.89699,-2.75 c -16.87321,-20.96641 4.48449,-58.70147 -36.00085,-32.60183 -47.45498,13.00907 24.64544,30.22291 36.00085,32.60183 z M 245.05287,917.22548 c -1.25842,-26.27441 -26.72522,-136.46468 -15.69311,-60.20312 3.46638,13.03267 21.6043,93.61826 15.69311,60.20312 z m 706.42271,-3.55881 c 21.07826,-20.15124 14.29123,-120.39675 -2.45464,-52.05923 1.18056,11.17116 -7.26231,56.77548 2.45464,52.05923 z m -537.74186,7.5 c 23.2262,-36.68403 -28.89178,6.1729 0,0 z m 581.15401,-57.49891 c 2.78719,-26.49772 6.88077,-134.70719 -6.20405,-57.64635 -2.66074,24.38769 -1.25182,81.49711 -1.48646,92.8206 3.86944,-11.35388 7.73878,-23.01274 7.69051,-35.17425 z m -17.17413,27.49891 c 10.59988,-17.16366 -5.94668,13.35411 0,0 z m 27.6503,-43.03518 c 0.014,-54.2035 -5.90326,13.92825 -0.6494,14.06597 l 0.7288,-4.61023 z M 692.04173,816.88648 c 11.94723,-16.57902 21.86554,-98.54463 3.93229,-37.70015 -0.99693,16.18319 -41.38892,78.41792 -3.93229,37.70015 z m -465.89465,1.55649 c 19.34512,-29.60353 -10.308,-8.57845 0,0 z m 67.02592,0.38305 c 7.18467,-7.32436 -15.88973,2.73838 0,0 z m 45.3151,-1.47509 c -3.44943,-13.64892 -12.75853,-0.10588 0,0 z m 130,-0.96278 c -6.62529,-19.56695 -43.63669,-79.63957 -21.96653,-22.97148 5.72769,8.78826 11.28988,19.40481 21.96653,22.97148 z m -162,-3.92617 c -40.93863,-26.03607 1.57216,-15.4541 23.90594,-7.18304 -37.21113,-31.21801 -4.37538,-55.87163 19.39631,-15.86448 36.62556,28.11239 -38.21143,-55.60122 12.97365,-18.09857 19.41562,17.21091 42.51544,29.16163 13.02384,-2.45482 -21.36587,-45.94078 47.13483,44.32263 23.45308,-3.50628 -10.10929,-38.7829 -90.7351,-19.05866 -112.42597,1.99599 -6.42281,25.08804 -20.76079,44.96548 19.67315,45.1112 z m 404.18619,-7.02586 c 9.16855,-17.02495 16.02675,-82.45935 3.6268,-28.69123 3.15969,4.75292 -19.12653,36.82183 -3.6268,28.69123 z m -360.02211,-3.3863 c -20.76453,-31.36592 -38.01813,-21.12771 -8.40474,1.77325 z m 83.42399,-2.76425 c -10.89916,-23.37178 -46.35497,-57.18901 -18.95939,-12.77394 3.99745,5.77866 10.38298,15.76784 18.95939,12.77394 z m 292.18942,-1.9256 c 8.81127,-26.10724 14.61723,-71.04706 1.6803,-20.67891 1.4128,2.28777 -12.04598,23.03301 -1.6803,20.67891 z M 375.9881,792.34641 c -25.33535,-24.19131 7.69384,15.06153 0,0 z M 236.54743,757.91667 c 8.01768,-18.70543 8.13322,-84.67443 2.19614,-32.00242 -4.65814,18.32522 -17.815,90.73307 -3.95511,38.73752 z m 505.23771,31.75 c 10.55758,-23.65799 19.99674,-62.78842 4.63478,-17.5814 1.52842,1.78502 -13.07656,18.7625 -4.63478,17.5814 z m 216.17005,-7.40406 c 0.0567,-39.75878 -22.59418,24.68513 0,0 z m -704.2264,2.26882 c 4.132,-11.04328 -12.19128,4.42468 0,0 z m 524.35001,-2.3574 c -7.11614,0.66454 0.15399,3.86489 0,0 z m -2.36807,-20.35086 c 8.90328,-40.6267 -25.8714,51.59886 0,0 z m -527.24487,12.90252 c -7.59271,-5.02622 -1.46662,13.45652 0,0 z m 734.93463,-0.55902 c 4.75595,-29.77538 -24.48059,14.91717 0,0 z m -138.83196,-2.05652 c -7.24198,-1.12574 -2.73452,5.33136 0,0 z m -46.9416,-3.04883 c 17.8821,-29.42817 -14.77356,-8.53718 0,0 z m 178.68751,-6.98224 c 27.59336,-30.67484 -35.52417,4.41817 -1.03395,2.20364 z m -159.28883,3.08759 c 20.24237,-30.0015 -23.23974,16.03636 0,0 z m 176.94264,-3.13249 c 22.70825,-19.54711 -10.56827,-1.70595 0,0 z m -562.87316,2.3007 c 0.66288,-22.73271 -12.43848,-2.12634 0,0 z m 406.80956,-0.0613 c 0.51113,-7.0092 -6.28878,7.33395 0,0 z m 26.31591,0.39313 c 15.24897,-21.09968 -16.89574,6.79088 0,0 z m -623.04935,-1.9375 -0.18469,1.8064 z m 710.2466,-3.12152 c -4.87013,0.84704 0.6564,7.48807 0,0 z m -45.24038,-11.44102 -0.0196,3.4622 z m -608.24119,-1.16608 c 3.56103,-20.00536 -8.84825,4.86414 0,0 z m 687.30186,-3.73813 c 31.9474,-30.00242 -49.593,4.88567 0,0 z m 31.991,-9.88249 c 25.8805,-5.16385 28.7054,-53.80467 5.259,-16.60733 -11.7986,1.96165 -28.17052,30.71516 -5.259,16.60733 z m -83.05789,-10.6508 -0.18469,1.8064 z m 35.31689,0.79449 c -3.35822,-3.70215 -3.88938,2.26036 0,0 z m 18.5,-2.60699 c -1.53888,-4.1296 -3.15652,4.35676 0,0 z m 20.0686,-0.67807 c 13.8,-8.99697 -26.9713,1.80103 0,0 z m -24.0686,-5.32193 c -14.19624,-6.97717 -16.96417,4.45112 0,0 z m -692.63131,-3.25 c 16.37483,-37.40815 -22.88135,-6.0215 0,0 z m 611.81048,-4.14369 c -26.04687,-62.18969 -18.86182,18.44442 0,0 z m 126.98143,0.23067 c 22.8599,-15.36765 7.3302,-72.29316 -0.7481,-21.55435 -1.1702,4.98658 -15.6382,42.6514 0.7481,21.55435 z m -13.6359,0.59792 c 3.1027,-15.79458 -12.6912,11.30662 0,0 z m -6.4763,-2.6849 c 34.7895,-49.63842 -13.0644,-14.40525 0,0 z m -15.41616,-0.75 c 8.70676,-46.61048 -57.4303,17.62544 -2.63422,2.09688 l 2.47083,-1.96682 z m -711.48752,-10.2194 c 8.56921,-41.18895 -16.02488,34.41631 0,0 z m 676.33997,0.36241 c 28.55983,-24.23302 -59.93294,-53.11924 -14.63702,-15.01617 5.14182,-1.67347 14.35807,27.6344 14.63702,15.01617 z m -48.98469,0.41601 c 7.26478,-23.72219 -5.66278,-25.72084 0,0 z M 303.17792,681.00907 c -3.01517,-24.18476 -2.98389,37.55899 0,0 z m 704.31018,5.79682 c -6.8272,-2.21563 -0.7854,11.03192 0,0 z m -732.58735,-1.13922 c -0.63378,-13.19732 -2.55142,14.19054 0,0 z m -31.92984,-7.18948 c 7.33913,-28.98382 -11.81059,35.34006 0,0 z m 786.47209,-3.43296 c -8.4717,-0.0905 2.6639,12.6088 0,0 z m -100.9549,3.87244 c -4.80922,-7.58398 2.30451,6.96691 0,0 z m 80.5173,-1.25 c 6.0232,-20.56653 -5.2834,-12.16235 -2.2161,1.55165 z M 904.27521,677.2851 c 8.79412,-10.83453 -24.56455,8.67376 0,0 z m 95.69184,0.38157 c 2.33365,-17.84854 9.28715,-61.71581 25.46555,-24.95021 35.3835,-59.05114 -75.26283,-74.91152 -67.71211,-13.04714 16.76998,-31.93603 -0.35788,50.79517 42.24656,37.99735 z m -707.72848,-3.5 c -6.80891,-7.28485 -4.7447,7.19466 0,0 z m 725.24953,-1.86803 c -4.1413,-3.58307 -0.3918,6.78967 0,0 z m -45,0.75758 c -10.1047,-28.06092 -38.61861,-27.01758 0,0 z m -649.47699,-9.16274 c 20.47446,-22.11355 -26.14704,20.0908 0,0 z m 583.47699,4.0163 c 3.5996,-43.01069 -67.83955,-39.62606 -32.11236,-10.93862 -4.11301,-43.63944 11.73109,25.20561 32.11236,10.93862 z M 294.63404,657.22981 c 8.32173,-46.60538 -17.43671,31.85882 0,0 z m -14.1692,-1.80084 c 16.18833,-37.87765 -9.34896,-19.33575 -1.94722,8.43875 0.64907,-2.81292 1.29815,-5.62583 1.94722,-8.43875 z m 33.5245,-0.37072 c 25.72035,-46.71291 -16.53603,5.85359 0,0 z M 789.43715,642.8275 c 4.05826,-20.04668 -33.39344,-99.61539 -36.19765,-63.39581 -0.17457,4.32332 46.46017,112.04027 36.19765,63.39581 z m 138.31143,10.82344 c -24.6004,6.99141 20.98709,5.89589 0,0 z m -599.44321,-3.67343 c 20.13971,-13.65703 58.80335,-93.4964 22.08409,-36.44208 -0.72638,7.70986 -36.52061,35.76671 -22.08409,36.44208 z m 6.68273,-0.58793 c 12.06163,-19.54698 81.05058,-73.50885 57.26215,-69.93299 -24.47011,18.03552 -41.63777,44.32469 -57.26215,69.93299 z m -30.71799,-5.47291 c -3.79434,1.58486 0.98904,13.92623 0,0 z m 64.27055,-22.90344 c 21.8771,-21.01751 42.62507,-48.63787 8.28109,-12.74647 -19.68074,16.43144 -43.81369,47.9983 -9.99808,14.25556 z m 564.9068,24.65344 c -4.36647,-21.05298 -17.14996,9.36827 0,0 z m 18.04064,0.40499 c -3.29123,-9.81801 -8.4177,4.03073 0,0 z m -676.99821,-6.40499 c 17.89876,-12.66226 45.36246,-68.83827 3.60859,-36.4746 -24.5857,37.22195 42.61836,-24.80194 4.56504,14.84445 -5.47057,-0.61017 -17.06272,39.56705 -8.17363,21.63015 z m 647.15077,0.63801 c 8.87593,-28.01456 -51.06836,-102.01803 -42.05862,-85.06552 13.50506,26.93834 10.11442,72.78404 42.05862,85.06552 z m 23.84744,-0.88801 c -2.70975,-8.28968 -3.37773,6.43136 0,0 z M 340.28646,622.98111 c 26.44135,-40.85319 4.33415,-28.58478 -14.03173,-0.59149 -10.18448,20.75966 9.57562,16.13589 14.03173,0.59149 z m -15.46742,-1.86409 c 20.6622,-17.0457 39.71645,-51.26052 2.16923,-22.31571 -14.35246,9.78359 -23.41857,56.85556 -2.16923,22.31571 z m -25.41249,-2.68049 c -9.13635,8.52098 -2.80065,18.01145 0,0 z m 68.17775,6.807 -7.63968,6.19672 z m -91.29209,-3.71386 c 8.26576,-16.62117 -17.6717,27.63178 0,0 z m 104.5351,2.58395 c 25.01353,-25.15858 0.92536,-16.01332 -7.19486,3.71085 z m 491.45494,-1.98746 c 5.56403,-29.92204 -60.33377,-92.13104 -59.63968,-45.48177 16.89312,26.99472 35.0857,38.12088 31.13856,7.32349 8.81209,7.22352 10.81332,61.65067 28.50112,38.15828 z m -164.8832,-9.463 c 17.69052,-33.91793 -81.70707,-74.73663 -29.7656,-29.40868 4.85793,2.79031 36.27734,65.39577 29.7656,29.40868 z m -400.91095,7.52783 c -1.51554,-7.64348 -1.67545,12.1293 0,0 z m 437.31176,-7.02432 c 0.16461,-27.53404 -45.84264,-99.87014 -53.22149,-64.92254 15.38818,23.03411 30.44157,48.63257 53.22149,64.92254 z M 338.66145,588.73642 c 46.75799,-4.69737 -5.16191,-48.33068 -12.90523,-6.90992 -14.80208,27.20837 -16.18679,34.71351 12.90523,6.90992 z m 547.34777,10.24367 c -10.57094,-26.78865 8.0939,29.60725 0,0 z m -597.75835,-7.4432 c 36.27475,1.78252 23.55859,-61.0105 2.59842,-11.92069 -8.64839,9.31622 -26.07021,34.12755 -2.59842,11.92069 z m -7.01624,-3.87022 c 19.40567,-26.16383 -19.73904,21.00871 0,0 z m 37.26655,-19.31302 c -8.19211,4.99475 -3.86715,27.48242 0,0 z m 428.15302,11.26908 c -15.59027,-30.90261 -7.55468,-0.74249 1.36983,4.12304 l -0.99571,-2.99698 z m -362.1661,0.11963 c -20.34094,-16.99016 -10.7507,15.24847 0,0 z m -90.07709,-10.53837 c 25.08998,-32.6421 -42.93798,39.06693 0,0 z m 33.57709,5.71268 c 12.32246,-14.04286 -15.25885,14.798 0,0 z m 16.20656,-29.24455 c -13.25449,-29.29381 -28.21673,59.89392 -5.08381,14.756 4.14858,-2.101 10.32891,-10.19455 5.08381,-14.756 z m 26.92221,28.53999 c -5.79335,-1.30072 -2.9265,5.45358 0,0 z m 491.80672,0.45456 c -8.43312,-29.14854 -8.54943,2.56874 0,0 z m -78.43549,-1.18924 c -6.73749,-15.69483 -19.46252,-18.2315 0,0 z m -355.77924,-3.44176 c 19.58728,-12.39916 106.76759,-50.04915 40.4035,-33.76916 -6.44901,2.64223 -67.30887,28.22234 -40.4035,33.76916 z m -25.93558,-0.52474 c 36.13463,0.749 55.28458,-78.40888 30.70477,-49.99226 19.30482,-17.33582 42.32091,-30.02944 7.98342,-9.77684 -25.22971,11.81881 -70.43499,38.27226 -38.68819,59.7691 z m 466.27167,-9.0467 c -10.99608,-21.62486 5.76184,26.31312 0,0 z m -481.55685,4.87482 c -11.13056,-19.89145 -18.03724,6.47764 0,0 z m -43.08333,-6.17238 -6.26994,4.78281 z m 38.13183,-6.90404 c 22.05509,-19.50478 32.38054,-42.20599 0.68181,-13.74518 -7.25589,-24.34499 5.86411,-57.86491 -25.69087,-24.21243 -33.00847,12.39888 16.33634,54.91669 25.00906,37.95761 z m 377.9515,5.87655 c -18.32998,-18.90875 -43.32535,-22.86627 -7.68497,-3.79981 z m -86,-4.33383 c -12.11731,-20.4267 -81.57981,-23.32771 -26.98682,-8.48635 4.26224,-2.0805 32.84571,17.50009 26.98682,8.48635 z m 152.68736,-0.24271 c -31.5637,-42.51035 -53.32058,2.89773 0,0 z M 478.9881,550.21056 c 32.43263,-10.94506 29.0372,-14.70182 -2.91318,-1.60588 l -3.4447,2.16595 z m 309.91285,-7.05327 c 3.48239,-31.7378 -72.15827,-57.12364 -25.83923,-14.65836 2.30687,3.01696 33.13625,37.33906 25.83923,14.65836 z m 75.58715,7.64019 c -4.51687,-20.62604 -10.8463,-4.06891 0,0 z m -540.45245,-7.6666 -7.52825,5.34292 z m 124.21436,-3.04884 c -13.62695,4.56804 -3.21036,9.34429 0,0 z m 229.19318,2.08463 c -26.00569,-18.76648 -33.54787,-9.98999 0,0 z m 72.04491,-3.50709 c -23.73637,-34.03953 -38.08978,-19.05291 0,0 z M 420.27357,520.09825 c 16.73839,-11.59388 83.73621,-49.43841 24.38056,-28.54437 -16.34644,3.90059 -64.34125,66.57718 -24.38056,28.54437 z m 25.91748,14.59709 c 11.29651,-26.99148 94.01604,-42.04959 72.08329,-47.29775 -25.5267,6.07239 -76.42347,10.76458 -72.08329,47.29775 z m -109.09938,-5.23342 c 28.3996,-21.27107 73.34499,-109.22944 74.52512,-95.43219 -33.61794,18.3393 -76.64142,53.66992 -74.52512,95.43219 z m 371.39643,3.6914 c -3.87198,-30.84075 -71.84433,-37.34935 -28.52242,-4.58944 9.52201,1.42163 18.76821,4.97436 28.52242,4.58944 z m -312.66042,-5.1955 c 67.28459,-56.66038 -24.69933,4.5727 0,0 z m 70.16042,-1.65423 c 29.49427,-12.26142 34.96281,-29.86575 2.14736,-8.30162 -2.52522,-0.40284 -23.88622,25.27199 -2.14736,8.30162 z m 20,2.59313 c 26.92128,-17.64276 100.15678,4.56119 110.28189,-24.87628 -36.84467,-12.96481 -113.16253,3.09151 -119.92323,25.86004 3.21378,-0.32792 6.42756,-0.65584 9.64134,-0.98376 z m -83.82712,-16.17571 c 33.90738,-21.66861 -0.52052,-61.84325 -10.9746,-17.06937 -4.59871,17.38185 -12.82893,52.51308 10.9746,17.06937 z m 205.93755,16.52164 c 15.48257,-4.20417 -38.71875,1.88655 0,0 z m 227.38957,-1.03041 c -5.97581,-33.49676 -32.7882,-83.36771 -73.83333,-66.4465 26.01533,20.57408 47.69347,46.02193 73.83333,66.4465 z m -20.65705,-6.55775 c -14.77075,-22.09244 -58.90604,-46.73074 -19.2533,-11.025 1.98799,0.93446 27.19462,22.75668 19.2533,11.025 z m -225.23047,0.77192 c 51.39363,-11.59737 -25.22833,1.06207 -5.97378,1.14406 l 3.1017,-0.59402 z m 284.97188,0.24026 c -6.18094,-21.26642 -30.04089,-46.36413 -9.69107,-10.51078 -2.35236,-2.41228 11.6622,19.43017 9.69107,10.51078 z m -211.03,-0.64844 c -16.96189,-27.68629 -16.16169,-9.98703 0,0 z m -14.22103,-0.0969 c -10.52215,-24.69547 -34.37115,6.42968 0,0 z m -28.33333,-1.00466 c -3.68256,-4.30812 -4.82769,4.4547 0,0 z m 91.38328,-4.25 c -12.55536,-24.91684 -18.45298,-8.84478 0,0 z m 21.99505,-14.37615 c -6.9886,-29.88927 -52.98962,-21.37095 -16.20969,-0.0202 10.97341,7.62144 34.92573,18.89917 16.20969,0.0202 z m -100.49078,8.33934 C 617.50393,480.82135 548.1586,476.4685 532.93836,496.33463 c 37.88553,-2.85999 74.73851,-2.50676 100.93729,14.29523 z m 133.14924,-12.05661 c -7.7236,-23.54211 -65.98573,-38.43026 -22.57429,-8.88253 2.59046,0.19698 43.9005,27.57831 22.57429,8.88253 z m -107.53679,1.22679 c -9.99934,-6.59755 -10.29007,2.70362 0,0 z m -230.31579,-7.82753 c -13.73455,10.30094 33.34628,-52.54325 1.74041,-13.85469 -3.40957,3.67104 -22.16463,34.35541 -1.74041,13.85469 z m 62.69729,-3.48458 c 26.83737,-14.68977 -53.18363,17.91442 0,0 z m 351.88001,-3.73364 c -1.01354,-30.89914 -87.69826,-77.1211 -31.84343,-30.00649 3.91541,1.65335 45.38588,63.65288 31.84343,30.00649 z m -460.3651,6.62758 c 11.01236,-15.17 -13.86351,13.4796 0,0 z m 288.10359,1.51195 c -18.518,-20.7276 -109.99505,-13.2806 -43.42875,-7.01825 13.94366,-1.26465 31.6285,11.13201 43.42875,7.01825 z m 26,-0.41999 c -2.17611,-15.16631 -18.43559,3.26166 0,0 z m -252.57428,-5.61405 c 28.50757,1.07211 57.50662,-30.33614 12.36764,-16.49225 -6.99383,-0.48382 -39.99927,30.84649 -12.36764,16.49225 z m 93.64006,-1.75328 -9.0475,5.49429 z m 150.59604,0.42464 c -5.24359,-30.07308 -98.02319,-28.05844 -32.54575,-9.5577 10.21109,4.61324 20.93749,10.46106 32.54575,9.5577 z M 427.79674,476.1242 c 38.16559,-26.28526 -10.96853,-22.36545 -6.99642,8.90905 l 2.17211,-1.41667 z m -32.37673,6.37452 c 23.94841,-13.6399 32.48824,-28.68808 3.30142,-7.64317 0.44508,-0.72367 -11.53515,12.36174 -3.30142,7.64317 z m 362.53712,-7.46162 c -13.13653,-20.72128 -68.33398,-30.97007 -80.5961,-32.77345 23.66938,47.87535 59.09048,4.79341 80.5961,32.77345 z m -189.46903,1.87395 c 24.44113,2.40263 75.45233,-11.57552 23.57875,-12.16023 -16.05074,1.87795 -67.10549,19.29635 -23.57875,12.16023 z m -47.61481,-14.89426 c -40.8949,-4.99513 -36.54926,26.84975 0,0 z m 0.84055,6.08297 c 5.45162,-4.96897 -30.50521,11.51046 0,0 z M 408.4881,466.49163 c 64.16677,-51.37658 -38.06498,21.15941 0,0 z m 139.38153,5.26162 c 50.28456,-22.66005 -58.40133,7.77926 0,0 z m -96.2438,-1.69204 c 22.26594,-5.20429 -8.2058,-28.48674 0,0 z m 123.36227,-5.75759 c 33.86694,-11.45854 -42.07544,6.33811 0,0 z m -166.83249,-4.41607 c 16.7621,-21.37391 76.26735,-40.59643 73.19585,-55.92959 -24.76591,8.34954 -75.05385,30.44091 -73.19585,55.92959 z m 29.21754,-5.29144 c 45.13288,-19.46197 111.10671,-83.76863 153.46927,-42.84559 -53.08876,26.39057 52.55889,-7.50054 41.03836,3.4764 -66.38611,-39.46784 -160.70701,-17.66797 -203.82162,45.68975 3.10466,-2.10685 6.20933,-4.21371 9.31399,-6.32056 z m 38.49965,3.32771 c 35.36675,-6.63423 130.69989,-12.22878 122.74499,-24.98433 -32.98628,-2.46455 -137.14646,20.08932 -126.27068,25.33142 l 3.14286,-0.3094 z m 300.50227,-4.0106 c -30.34206,-20.12436 -40.44873,2.88555 0,0 z m -104.52993,-2.27979 c -12.08766,-41 -96.0401,-4.27188 -92.33233,0.49502 30.70209,2.05887 61.6547,1.26841 92.33233,-0.49502 z m 55.64296,-3.71708 c -41.81759,-33.8784 -30.74336,3.96549 0,0 z m -265,-2.08641 c 7.62768,-9.61838 -19.63783,11.38613 0,0 z m 10.25656,-0.0428 c 37.85131,-16.11892 -32.35892,7.42199 0,0 z m 22.47298,-1.32153 c 68.00721,-16.3151 -30.10953,4.42093 0,0 z m 273.27046,-1.90405 c -24.79235,-23.44969 -58.01006,-23.45899 -10.94676,-3.51141 l 5.2704,2.55593 z m -38,-4.10971 -3.4395,-1.90616 z M 500.41684,432.9879 c 22.97264,6.34182 121.7753,-22.31261 52.66496,-28.90333 -11.45321,-7.41501 -110.90237,43.42377 -52.66496,28.90333 z m 268.07126,-4.18466 c -29.85729,-22.42195 9.68249,10.89967 0,0 z m -120,-2.85139 c -6.31021,-8.62501 -12.42235,8.04714 0,0 z m 25,0.15831 c 10.58205,-48.11152 -126.86517,-42.04136 -49.89433,-20.37272 16.57556,6.92193 33.65183,12.6698 49.89433,20.37272 z m 24.40817,-0.0449 c -17.85239,-36.0891 -39.27938,-3.70833 0,0 z m 19.38253,-1.59722 c -24.88461,-9.04299 11.47118,9.94651 0,0 z m 78.7093,-3.11891 c -19.96765,-26.04304 -103.87447,-28.43042 -33.9623,-9.62244 11.26703,3.07649 22.27034,8.58731 33.9623,9.62244 z m -86.18567,-2.18543 c -18.31443,-22.21928 -24.75172,-6.64059 0,0 z m -254.63306,-8.11662 c 26.90922,-12.23397 96.90028,-29.06714 93.54161,-44.96791 -23.30143,-7.61197 -124.51437,48.79952 -93.54161,44.96791 z m 53.81873,-12.13041 c 8.40066,-7.37484 -18.69453,8.98007 0,0 z m 250.46429,-5.44905 c -32.98764,-33.0043 -130.36153,-46.2346 -141.00665,-29.6267 45.79205,11.24317 97.14007,29.47501 141.00665,29.6267 z M 552.4881,387.83099 c 19.24621,-1.66194 106.05199,0.48234 46.0461,-10.25081 -17.87251,-9.74416 -111.25236,18.80609 -46.0461,10.25081 z m 102.39169,-3.92263 c -19.27765,-13.59881 -13.44298,2.23599 0,0 z M 597.9881,368.19993 c 9.54732,-5.54676 -33.24267,3.08121 0,0 z m 537.5,417.71674 c 3.6166,-4.21481 3.6166,4.21481 0,0 z" />
    <path
       style="fill:#ffd5d5;stroke-width:1.79762"
       d="m 710.77381,1622.8649 c -3.46042,-0.3781 -21.25685,-3.0237 -39.54762,-5.8789 -18.29077,-2.8553 -42.55863,-6.2542 -53.92857,-7.553 -28.67368,-3.2756 -128.33515,-3.1486 -159.78928,0.2035 -21.25257,2.265 -24.61817,2.2499 -28.7619,-0.1288 -8.96462,-5.1464 -5.63349,-11.6975 22.0247,-43.3147 16.76916,-19.1695 16.89507,-19.3844 17.67594,-30.1799 0.57567,-7.9586 1.80729,-11.8938 4.59493,-14.6814 3.63305,-3.633 4.02095,-3.6692 8.42232,-0.7853 5.33688,3.4968 14.67125,16.8399 12.97047,18.5407 -0.63297,0.6329 -2.63513,-0.1924 -4.44925,-1.8342 -7.1503,-6.4709 -12.35149,-2.185 -8.49087,6.9967 3.46695,8.2455 7.66012,10.6692 18.85445,10.8981 5.5718,0.1139 12.6878,1.5295 15.81334,3.1458 6.81062,3.5219 11.2542,3.7783 11.2542,0.6494 0,-1.259 -6.50304,-8.7416 -14.45119,-16.6279 -17.47094,-17.3351 -25.62908,-28.8369 -30.4518,-42.9327 -1.998,-5.8398 -3.63273,-11.3 -3.63273,-12.134 0,-4.429 7.06316,-0.1454 17.87788,10.8423 11.78244,11.971 21.3661,17.4179 28.29735,16.0831 2.15788,-0.4156 -1.48099,-4.5671 -12.32915,-14.0662 -14.59829,-12.7828 -28.45322,-29.9709 -28.45322,-35.2984 0,-3.9266 2.10697,-2.9609 13.50816,6.1909 11.76024,9.4401 35.02755,23.0565 35.02755,20.4987 0,-0.88 -4.24687,-3.8949 -9.4375,-6.6998 -5.19062,-2.8049 -14.71103,-10.416 -21.15647,-16.9136 -10.06004,-10.1415 -12.28665,-13.6132 -15.72916,-24.5247 -4.62258,-14.6519 -5.05361,-20.5451 -1.50269,-20.5451 1.37913,0 8.86172,4.5948 16.62798,10.2107 18.7762,13.5774 31.70109,22.1464 33.40387,22.1464 4.71176,0 -0.90155,-7.2016 -17.03638,-21.857 -40.89193,-37.1424 -44.65078,-43.2219 -27.41369,-44.3382 17.71411,-1.1471 26.43464,3.9093 43.389,25.1585 15.51599,19.4464 9.49666,18.651 72.55742,9.5875 33.48819,-4.8131 57.75862,-7.4863 62.35869,-6.8683 10.65172,1.431 14.52066,0.043 28.36479,-10.1767 13.46421,-9.939 18.2026,-11.0861 20.59315,-4.9849 0.87163,2.2245 2.5251,17.7964 3.67439,34.6041 2.36155,34.5369 7.30527,66.3635 13.81481,88.937 6.57592,22.8037 20.08947,49.814 30.88868,61.7388 10.6663,11.7781 12.90863,17.7936 8.46364,22.7052 -3.58355,3.9598 -6.33896,4.7288 -32.43791,9.0526 -10.87559,1.8017 -20.9872,3.6236 -22.47024,4.0486 -1.48303,0.4249 -5.52767,0.4632 -8.98809,0.085 z m -222.90476,-24.8733 c 0,-1.5335 -3.03348,-4.033 -6.74107,-5.5546 -3.70759,-1.5215 -11.76891,-5.2176 -17.91404,-8.2137 -11.17039,-5.4461 -16.69013,-5.6701 -16.69013,-0.6776 0,4.5069 7.73433,11.8629 15.27976,14.5323 10.22109,3.6162 26.06548,3.5636 26.06548,-0.086 z m 15.27976,-11.5928 c 0,-1.7281 2.09791,-2.8987 5.84226,-3.2597 3.21325,-0.3098 5.84226,-1.3108 5.84226,-2.2244 0,-0.9137 -5.46026,-4.4112 -12.13393,-7.7724 -8.8229,-4.4436 -13.7586,-8.374 -18.08788,-14.4035 -6.37228,-8.875 -12.92104,-11.2157 -12.92104,-4.6183 0,2.5019 -1.00363,3.5055 -3.14584,3.1458 -4.80882,-0.8074 -5.14779,10.9348 -0.57445,19.8993 5.49541,10.7719 9.76326,13.031 23.4941,12.436 8.96279,-0.3884 11.68452,-1.1345 11.68452,-3.2028 z"
       id="path95" />
    <path
       style="fill:#ffd5d5;stroke-width:1.79762"
       d="m 643.50827,1399.9038 c -0.62129,-1.9575 0.078,-11.1527 1.55411,-20.4338 1.99468,-12.5421 2.20806,-18.7209 0.83101,-24.0652 -2.21089,-8.5805 -2.20412,-8.4044 -0.76137,-19.7738 1.49704,-11.7974 -3.03783,-19.3831 -14.84961,-24.8396 -7.30245,-3.3734 -11.6355,-3.9199 -30.96098,-3.9049 -13.89635,0.011 -25.03168,0.9178 -29.1832,2.3772 -15.54893,5.4656 -18.06691,19.6867 -7.9168,44.7124 3.29031,8.1124 5.30294,15.4293 4.47251,16.2597 -0.83043,0.8304 -3.33388,7.0207 -5.56322,13.756 -2.22933,6.7354 -4.84738,12.3614 -5.81788,12.5022 -0.9705,0.1407 -5.48064,-6.6199 -10.02254,-15.0238 -7.88655,-14.5924 -8.53493,-15.2797 -14.41404,-15.2797 -5.2921,0 -6.55752,-0.883 -9.01697,-6.2917 -4.3637,-9.5964 -7.53139,-11.3626 -19.72294,-10.9968 -9.33492,0.2801 -12.31212,-0.5301 -22.13665,-6.0243 -17.8004,-9.9546 -23.32258,-7.4574 -10.55625,4.7737 11.62625,11.1387 25.16665,15.5407 30.76136,10.0004 1.81813,-1.8005 2.66305,-1.5325 4.25135,1.3482 3.11111,5.6426 12.63103,14.0406 20.37778,17.9762 3.89222,1.9774 7.40887,3.7925 7.81477,4.0336 0.40588,0.2411 -0.73064,2.0612 -2.52564,4.0447 -6.93694,7.6652 -20.51022,3.0435 -52.76165,-17.9652 -15.48794,-10.0889 -17.80969,-12.2369 -17.00216,-15.7292 1.07361,-4.6429 -0.82578,-5.3121 -3.75038,-1.3212 -3.11939,4.2567 -22.37263,-7.9747 -39.78497,-25.2751 -37.79804,-37.555 -65.82108,-95.2443 -104.31739,-214.7517 -9.04182,-28.0693 -12.04542,-40.0415 -12.62333,-50.3157 -0.939,-16.6938 -0.31686,-15.3855 5.55632,11.6846 2.57411,11.8642 6.62253,25.616 8.99649,30.5595 4.68404,9.7539 13.75572,20.6726 17.17555,20.6726 3.55319,0 0.77758,-13.0385 -5.33719,-25.0716 -3.88283,-7.6409 -5.59121,-13.5731 -5.60793,-19.4732 -0.0133,-4.6668 -2.34705,-15.1586 -5.18626,-23.3153 -2.83922,-8.1567 -4.50515,-14.8304 -3.70207,-14.8304 3.15212,0 12.19471,13.4049 24.71578,36.639 20.24281,37.5626 30.87818,49.9899 49.36029,57.677 3.70759,1.542 6.74107,2.036 6.74107,1.0978 0,-0.9383 -7.68482,-11.3926 -17.07738,-23.232 -9.39256,-11.8393 -17.07738,-22.0718 -17.07738,-22.7388 0,-0.6671 3.75691,2.0941 8.34869,6.136 8.73454,7.6884 18.47244,11.7122 25.79128,10.6571 3.93964,-0.568 3.47977,-1.258 -5.20728,-7.8135 -11.4818,-8.6644 -29.17204,-30.1802 -42.69818,-51.9316 -11.82751,-19.0198 -37.06602,-68.81193 -36.19847,-71.41458 0.33557,-1.00672 8.68126,11.76432 18.54597,28.38008 14.43576,24.3151 20.74221,33.0373 32.3168,44.6963 13.64851,13.748 29.80666,24.6576 32.51257,21.9517 0.68529,-0.6853 -3.51845,-6.3414 -9.34164,-12.5692 -22.96477,-24.5604 -48.35683,-58.96546 -64.12783,-86.89012 -7.98447,-14.13761 -21.28525,-43.83086 -23.68848,-52.88326 l -1.19308,-4.49404 3.62452,4.49404 c 1.99349,2.47173 7.82677,12.17887 12.96285,21.57143 21.04468,38.48526 26.71856,46.69968 37.98563,54.99402 9.32707,6.86623 17.55712,10.11683 17.55712,6.93453 0,-2.90941 -7.71998,-15.06068 -23.35569,-36.76188 -21.3569,-29.64177 -22.48073,-31.62869 -18.70841,-33.07626 5.79526,-2.22386 12.37846,-0.81531 42.55017,9.10402 27.37917,9.00124 33.08084,10.27506 49.14802,10.98034 15.41189,0.67652 19.41216,0.25091 26.30666,-2.79885 4.47201,-1.97818 11.32588,-4.13647 15.23084,-4.79621 9.40637,-1.58921 17.67905,-6.80827 22.19244,-14.00078 4.59999,-7.33054 4.08755,-23.88385 -1.07178,-34.62059 -7.88254,-16.40387 -26.02407,-27.8631 -44.11111,-27.8631 -14.61669,0 -40.16413,6.86811 -56.3832,15.15792 -8.83583,4.51612 -18.13851,8.22889 -20.67262,8.2506 -2.5341,0.0217 -8.24764,1.69658 -12.69675,3.7219 -25.8893,11.78535 -45.6503,2.02202 -52.95121,-26.16163 -1.52674,-5.89365 -5.00024,-17.0735 -7.71888,-24.84408 l -4.943,-14.12835 4.49356,-3.67067 c 3.87584,-3.16607 6.04082,-3.51213 15.74922,-2.51749 6.19061,0.63425 13.32162,1.93866 15.84668,2.89868 8.94823,3.40212 17.60603,2.01322 28.55709,-4.58116 13.56393,-8.16777 16.99694,-8.91555 25.19863,-5.48866 8.38663,3.50416 9.92268,3.53081 9.92268,0.17223 0,-1.46024 2.07177,-4.01246 4.60393,-5.67159 4.37523,-2.86676 5.66945,-2.76823 26.05215,1.98354 13.48276,3.14319 23.55477,4.57884 27.12045,3.86571 13.37362,-2.67471 66.07719,41.11486 82.15074,68.25621 12.98782,21.93088 18.22329,42.01118 18.24963,69.99504 0.0205,21.88271 6.42201,68.97181 9.84103,72.39081 3.95264,3.9527 5.47407,-11.148 4.6728,-46.37901 -1.09281,-48.04931 -17.89258,-97.75165 -45.57072,-134.82143 -6.27475,-8.40387 -12.76915,-18.91994 -14.432,-23.36905 -1.66286,-4.4491 -9.17631,-16.17857 -16.69658,-26.06547 -7.52025,-9.88691 -15.405,-21.48928 -17.52164,-25.78305 l -3.84845,-7.80687 4.23371,-3.42825 c 2.32855,-1.88554 6.2918,-3.42826 8.80722,-3.42826 4.36378,0 4.43313,-0.15514 1.51238,-3.38251 -6.36976,-7.0385 -26.59098,-10.54505 -73.32202,-12.71474 -25.58591,-1.18792 -33.89269,-1.01747 -37.40417,0.76753 -6.77306,3.44298 -27.06219,5.10668 -33.34032,2.73387 -6.43957,-2.43379 -14.61627,-9.91101 -18.0722,-16.52619 -3.61536,-6.92035 -3.06628,-20.76162 1.19801,-30.19939 4.74523,-10.5022 58.85041,-64.82821 68.63165,-68.91177 7.1526,-2.98613 14.82484,-10.49728 16.82848,-16.47513 0.66277,-1.97738 7.71742,-10.99098 15.67699,-20.03022 l 14.47194,-16.43497 23.46838,-5.61089 c 39.82363,-9.52115 58.54824,-12.68941 81.89099,-13.85624 31.64339,-1.58175 51.32953,2.05993 80.44345,14.881 1.41014,0.62099 2.24702,-0.45896 2.24702,-2.89966 0,-3.84965 0.0568,-3.85617 5.59209,-0.64173 7.18816,4.17435 22.82122,21.91696 33.0997,37.56626 l 8.04631,12.25071 v -7.23536 c 0,-12.56429 -5.06611,-23.57354 -16.44559,-35.73825 -18.8407,-20.14077 -48.29189,-32.12074 -85.11989,-34.62454 l -17.97619,-1.22214 11.68453,-1.33246 c 25.20885,-2.87472 51.94782,2.63046 78.07381,16.07429 12.9805,6.67946 19.62863,11.69743 32.6355,24.63311 9.39484,9.3434 18.89956,20.82711 22.37241,27.03061 3.32094,5.93214 8.22569,12.85471 10.89944,15.38349 5.91046,5.59001 8.78399,15.20438 8.83396,29.55699 0.048,13.76124 1.9041,17.14856 7.49645,13.68004 3.54888,-2.2011 4.25085,-2.12442 5.89711,0.64415 6.59498,11.09104 12.06853,14.60796 14.17829,9.10998 1.37484,-3.58274 -3.60218,-22.07566 -7.90683,-29.37919 -4.30073,-7.29686 -4.31664,-6.90529 0.33017,-8.12045 3.43345,-0.89788 3.72914,-1.90596 2.82967,-9.64716 -0.55246,-4.75449 -1.52987,-10.66684 -2.17203,-13.13856 -2.03329,-7.82636 9.30631,6.92525 25.25948,32.85987 7.95932,12.93923 15.54924,23.88513 16.86648,24.32421 3.36133,1.12045 1.09878,-12.9122 -4.65274,-28.85673 -2.44807,-6.78666 -4.14285,-13.26401 -3.76614,-14.39412 0.92013,-2.7604 23.42368,31.24263 28.87255,43.62664 2.38386,5.41796 5.74974,13.75308 7.47971,18.52249 3.32057,9.15452 7.35475,12.39627 10.22716,8.21827 2.75284,-4.00403 0.32888,-37.11178 -3.76842,-51.47133 -3.72871,-13.06778 -4.56994,-18.10766 -2.71239,-16.25011 2.09836,2.09838 12.9597,36.99728 15.1206,48.5845 3.56126,19.09632 10.86033,14.23475 8.50364,-5.66388 -1.01832,-8.59799 -10.14494,-38.08705 -17.16293,-55.45517 -4.88039,-12.07797 -1.15368,-13.09385 6.59446,-1.79762 13.13439,19.149 25.32234,50.37859 29.80998,76.38314 3.20564,18.57566 5.51798,25.63174 8.39974,25.63174 2.58751,0 1.40079,-26.30825 -2.00435,-44.43447 -2.57775,-13.72184 -1.63781,-17.77695 2.79525,-12.0593 4.98224,6.42597 20.40261,38.32503 23.58945,48.79785 1.73929,5.71579 3.38621,10.70918 3.65981,11.0964 0.27362,0.38725 2.02804,-1.18608 3.89871,-3.49627 l 3.40124,-4.20035 4.34569,4.68908 c 8.82415,9.52141 16.94934,43.07079 12.46185,51.45573 -2.67178,4.99226 -5.8398,4.89914 -12.14707,-0.35708 -2.79476,-2.32901 -8.11486,-4.79245 -11.82245,-5.4743 -4.13217,-0.75993 -6.74107,-2.25176 -6.74107,-3.85469 0,-2.93151 -2.01172,-3.39921 -4.58393,-1.06574 -0.93926,0.85209 -5.07808,2.36676 -9.19739,3.36597 l -7.48966,1.81673 0.98378,-6.0624 c 0.86256,-5.31525 0.50589,-6.0624 -2.89395,-6.0624 -2.19564,0 -7.36623,3.48848 -11.91974,8.04197 l -8.04197,8.042 v -7.1996 c 0,-9.01051 -3.21001,-10.52667 -11.47383,-5.41935 l -6.17221,3.81464 0.97043,-7.23506 c 1.3163,-9.81388 -1.34013,-9.34181 -11.71448,2.08172 -12.7197,14.00604 -14.98419,16.21767 -15.78525,15.41659 -0.40308,-0.40308 0.47326,-5.36352 1.94742,-11.02321 3.3141,-12.72371 3.47494,-19.65796 0.43328,-18.68068 -1.23587,0.39708 -6.53164,6.73368 -11.76839,14.08136 -13.67404,19.18602 -17.00966,23.19516 -15.65582,18.81696 0.60046,-1.94181 3.1884,-11.77601 5.751,-21.8538 4.46411,-17.55584 4.60981,-25.65977 0.41471,-23.06705 -3.9518,2.44235 -13.8318,19.96355 -16.67776,29.57637 -1.60991,5.4378 -3.73095,11.1003 -4.71344,12.58333 -3.54102,5.34512 -1.96196,-2.82318 4.65029,-24.05541 8.8438,-28.39782 6.07308,-34.01859 -6.79868,-13.79205 -2.83828,4.46003 -5.08584,6.64466 -5.08584,4.94345 0,-5.02251 -3.77633,-3.48393 -10.37751,4.22807 -6.84437,7.99608 -8.65622,8.32249 -5.89585,1.06216 2.80419,-7.3756 -0.4571,-5.67061 -11.06052,5.78235 -12.47981,13.47968 -22.02065,32.12131 -33.71406,65.8731 -5.13801,14.83036 -13.70895,35.91666 -19.04653,46.85846 -17.1685,35.19467 -27.3581,81.29916 -25.48166,115.29573 1.59654,28.9252 8.47103,44.0129 26.22311,57.5529 6.06549,4.6263 9.454,5.8941 15.75308,5.8941 17.0095,0 49.68025,9.0043 60.69738,16.7286 4.60918,3.2316 4.86198,3.8739 2.27039,5.769 -1.604,1.1728 -10.40946,3.5691 -19.56768,5.325 -19.65236,3.7679 -43.11106,11.4262 -54.50129,17.7923 -4.47596,2.5017 -9.31805,4.0957 -10.76017,3.5423 -1.44211,-0.5534 -2.62203,-0.1086 -2.62203,0.9884 0,1.0969 -5.0558,7.0774 -11.23512,13.29 -10.36467,10.4204 -20.56318,26.3227 -23.87703,37.2311 -1.09513,3.6048 0.91928,2.3598 10.18044,-6.2917 13.77862,-12.8717 25.75783,-19.495 56.63323,-31.3129 12.71921,-4.8684 27.17051,-10.4791 32.11396,-12.4683 4.94345,-1.9892 11.77543,-4.6431 15.18217,-5.8976 3.40674,-1.2545 8.86701,-4.6278 12.13393,-7.4962 11.95609,-10.4976 6.20252,-27.8126 -11.97696,-36.0439 -6.49396,-2.9403 -12.16404,-3.7351 -27.92247,-3.9139 -22.69512,-0.2574 -31.31449,-3.3656 -39.65406,-14.2993 -7.33364,-9.6149 -9.60759,-18.1856 -9.78264,-36.87147 -0.14471,-15.45021 -0.37648,-16.56981 -2.43209,-11.75021 -3.11671,7.30745 -4.77417,3.87234 -5.82166,-12.06544 -0.47119,-7.16955 -1.15566,-16.06498 -1.521,-19.76763 -0.62007,-6.28418 -0.38423,-6.66179 3.54481,-5.67567 4.86105,1.22004 5.01288,0.67251 8.02434,-28.93748 2.91559,-28.66755 4.79299,-35.22699 14.21309,-49.6593 15.96769,-24.46372 32.14639,-36.60727 74.21467,-55.70471 30.85566,-14.00731 28.74565,-13.3256 58.08358,-18.76603 41.84554,-7.75983 81.82482,-7.94937 107.12215,-0.50786 6.05536,1.78124 6.72391,2.74396 10.78572,15.53125 4.30914,13.56589 7.75983,17.87218 9.3636,11.6853 0.5605,-2.16225 0.91083,-1.63095 1.04977,1.59204 0.20283,4.70514 3.03877,8.21138 5.03055,6.21958 0.54319,-0.54317 1.67892,-3.65765 2.52386,-6.92106 2.76578,-10.68221 0.26365,64.97636 -2.80598,84.84627 -1.60376,10.38125 -5.66372,31.00892 -9.02214,45.83928 -6.69906,29.58212 -8.36705,44.18605 -5.17303,45.29143 3.39317,1.17429 14.97068,-45.9339 18.64147,-75.85095 1.09181,-8.89822 2.4548,-18.07553 3.02887,-20.39403 3.83813,-15.5011 5.7072,29.21459 2.31405,55.3614 -1.04851,8.07964 -1.08709,14.04728 -0.0972,15.03718 2.09872,2.09872 -0.91882,10.66162 -10.40783,29.53432 -14.44918,28.73799 -20.68756,59.53049 -23.48779,115.93499 l -1.76168,35.4857 -17.87045,30.1689 c -21.62374,36.5053 -39.59208,60.2056 -54.11997,71.3846 -5.96536,4.5902 -10.84611,9.1075 -10.84611,10.0384 0,3.5182 4.83191,1.4251 14.83035,-6.4241 5.68497,-4.463 10.33631,-7.4324 10.33631,-6.5987 0,6.8821 -33.43291,42.2669 -44.60991,47.2144 -6.11508,2.7068 -7.52445,5.251 -2.90882,5.251 4.08889,0 9.53672,-3.1814 19.20623,-11.216 4.69628,-3.9023 8.53869,-6.4742 8.53869,-5.7155 0,1.3891 -9.4273,11.515 -45.61564,48.996 -18.63606,19.3017 -19.91487,20.2716 -24.17109,18.3324 -5.10393,-2.3256 -23.6894,-0.6917 -23.6894,2.0825 0,2.1695 -19.39946,26.4168 -30.39941,37.9961 -12.50954,13.1685 -21.42938,16.8753 -48.95724,20.3455 -7.25341,0.9143 -8.49912,0.585 -9.48032,-2.5065 z m 11.53935,-112.8428 c 8.40387,-2.6863 28.83485,-10.8557 45.40219,-18.1541 16.56735,-7.2985 30.47252,-13.27 30.90041,-13.27 0.42791,0 1.02905,3.0268 1.3359,6.7261 1.50164,18.1032 21.23055,0.3118 21.23055,-19.1456 0,-3.9282 -0.6067,-7.4939 -1.34822,-7.9238 -0.74152,-0.4299 -7.41518,0.276 -14.83035,1.5687 -7.41518,1.2928 -29.25625,3.2332 -48.53572,4.3122 -19.27946,1.079 -43.95178,2.7762 -54.82738,3.7717 -10.8756,0.9956 -39.99702,2.5675 -64.71429,3.4932 -24.71726,0.9257 -52.07362,2.9376 -60.79191,4.4708 -8.71829,1.5333 -16.60535,2.3218 -17.52679,1.7523 -0.92144,-0.5695 -1.67534,-3.4144 -1.67534,-6.3222 0,-7.7205 -2.59467,-6.5058 -8.70321,4.0746 -6.52978,11.31 -5.65105,13.9365 6.76827,20.2298 8.79997,4.4593 19.83027,6.7551 65.75041,13.6854 56.4113,8.5135 76.76004,8.66 101.56548,0.7309 z m 129.42857,-8.9539 c 0,-1.483 -0.80893,-2.6964 -1.79762,-2.6964 -0.98869,0 -1.79762,1.2134 -1.79762,2.6964 0,1.4831 0.80893,2.6965 1.79762,2.6965 0.98869,0 1.79762,-1.2134 1.79762,-2.6965 z m -338.99332,-35.9425 c 10.70584,-6.4468 25.43565,-11.6944 32.82554,-11.6944 4.76687,0 4.76454,-0.01 2.41465,6.1747 -1.31382,3.4556 -1.1787,4.6111 0.53929,4.6111 3.56746,0 6.6067,-3.8989 6.6067,-8.4755 v -4.1611 l 40.89583,0.1897 c 24.11846,0.1118 43.36835,-0.5849 46.92273,-1.6985 9.5336,-2.9868 17.48472,-10.1491 22.54917,-20.3121 7.98991,-16.0337 5.46174,-28.3452 -8.64732,-42.11 -11.06666,-10.7967 -21.91603,-15.1111 -37.99915,-15.1111 -13.31448,0 -21.77267,2.7517 -35.55173,11.566 -16.20478,10.3661 -60.29985,32.7406 -72.6039,36.8403 -22.90852,7.6331 -34.258,4.0266 -36.00132,-11.4401 l -0.98414,-8.7313 3.85873,3.8587 c 2.12229,2.1223 4.54227,3.8588 5.37773,3.8588 3.69945,0 8.05176,-7.817 8.74754,-15.711 0.90775,-10.2991 -4.92991,-23.2492 -12.31124,-27.3109 -11.57602,-6.37 -34.11092,9.5466 -39.41834,27.8415 -3.62754,12.5043 -2.88395,31.9136 1.68348,43.9423 8.62146,22.7053 24.77482,33.3389 51.56982,33.948 7.4188,0.1686 11.01539,-0.9504 19.52593,-6.0751 z m 238.96107,-17.2479 c 24.12593,-15.2824 28.21757,-16.9125 40.71082,-16.2189 39.44151,2.1897 75.6322,-0.069 84.15561,-5.2524 6.02263,-3.6626 21.23002,-23.0542 24.82253,-31.6523 4.30438,-10.3018 3.12935,-27.3828 -3.03472,-44.1139 -6.34542,-17.2234 -10.56312,-22.5222 -19.21979,-24.1462 -13.88114,-2.6041 -32.79506,9.2061 -32.79506,20.4779 0,6.8792 3.43135,9.6084 13.50827,10.7443 9.49281,1.0699 10.78096,3.7017 9.4815,19.3714 -1.35733,16.3676 -10.15304,22.4151 -32.60155,22.4151 -7.32738,0 -22.52077,-1.6435 -33.76309,-3.6523 -11.24233,-2.0087 -27.72096,-4.5742 -36.61917,-5.7011 -11.77903,-1.4917 -17.65395,-3.1587 -21.60399,-6.13 -14.6024,-10.9846 -32.39351,-9.5356 -47.28232,3.8507 -7.26857,6.5351 -8.82164,9.1784 -10.90191,18.5554 -5.19081,23.3979 3.79534,38.6229 27.34121,46.3237 12.08846,3.9536 26.87888,2.0476 37.80166,-4.8714 z m -79.72965,-79.8012 c 0,-9.3739 -4.02399,-14.0176 -24.28267,-28.0224 -13.47501,-9.3153 -15.01169,-11.5603 -17.93478,-26.2013 -1.9491,-9.7627 -6.67972,-12.388 -21.3441,-11.8453 -9.41794,0.3486 -14.1327,1.4245 -17.70079,4.0394 -2.67495,1.9603 -8.90785,5.1584 -13.85089,7.1068 -8.38261,3.3041 -9.44638,3.353 -15.80909,0.7273 -9.6553,-3.9845 -18.50626,-11.0739 -18.50626,-14.8231 0,-8.4866 20.58033,-18.765 48.59903,-24.2717 10.67106,-2.0973 19.26915,-4.6222 19.10682,-5.6109 -0.48749,-2.9692 -34.90439,-1.7048 -48.83085,1.7941 -24.38867,6.1273 -36.85119,15.036 -36.85119,26.3427 0,15.7496 17.46686,25.6647 67.41072,38.2657 39.56101,9.9814 52.05816,15.7588 66.5119,30.7482 5.93215,6.152 11.39241,10.8277 12.13393,10.3904 0.74152,-0.4372 1.34822,-4.3252 1.34822,-8.6399 z m 5.04816,-111.6719 c 9.85399,-1.2255 11.68046,-5.1693 5.03953,-10.8816 -3.85298,-3.3142 -7.00435,-4.2108 -14.80017,-4.2108 -5.44765,0 -11.46113,0.8329 -13.36328,1.8509 -3.48214,1.8636 -8.88853,10.611 -8.88853,14.3815 0,1.9601 9.9283,1.6066 32.01245,-1.14 z m -151.09542,-26.3275 c 3.36297,-4.2035 4.45923,-10.33634 1.84765,-10.33634 -2.81489,0 -9.06537,9.71914 -7.35223,11.43224 1.74381,1.7439 3.51471,1.3913 5.50458,-1.0959 z m 272.60925,-15.27979 c -0.67752,-3.70759 -1.92757,-8.61381 -2.77787,-10.90274 -0.85031,-2.28891 -1.54603,-4.39823 -1.54603,-4.68736 0,-1.60875 25.64798,-3.65591 46.2593,-3.69229 14.35918,-0.0254 23.94779,-0.75459 24.18948,-1.83963 0.22023,-0.98869 -5.63127,-2.82196 -13.00335,-4.07393 -38.58966,-6.55351 -49.0753,-9.24231 -56.37899,-14.45712 -9.39393,-6.7072 -14.38946,-8.22711 -18.97473,-5.77316 -9.10829,4.87462 -1.63017,33.62723 11.99082,46.10357 8.94766,8.19575 11.82802,8.00525 10.24137,-0.67734 z M 461.37777,976.10714 c 11.40929,-10.32482 14.59769,-12.02844 12.61614,-6.74107 -2.14692,5.72865 4.2461,-0.86081 7.51167,-7.74247 3.64442,-7.68006 2.50062,-9.78431 -5.31849,-9.78431 -10.48261,0 -52.96324,23.92487 -49.24211,27.73293 1.61783,1.6556 17.42554,-5.54264 23.62192,-10.75654 8.55428,-7.19796 15.8037,-10.43198 18.14228,-8.09341 1.46619,1.4662 -1.28927,5.09771 -10.3458,13.63512 -14.98532,14.12632 -12.35156,15.65513 3.01439,1.74975 z m 345.56866,-38.51021 c 19.46514,-5.16528 34.94555,-12.68894 44.80204,-21.77434 9.49245,-8.74984 16.72406,-19.53414 14.24324,-21.24056 -0.93182,-0.64094 -5.29552,-3.68776 -9.69713,-6.7707 -11.78194,-8.2522 -31.49197,-17.75832 -46.72915,-22.5374 -10.89335,-3.41664 -17.2777,-4.19007 -34.07733,-4.12821 -26.46506,0.0974 -36.01043,3.56315 -54.37651,19.74291 -7.16881,6.31543 -16.20251,14.2297 -20.07489,17.58724 -5.4097,4.69049 -7.04066,7.41759 -7.04066,11.77246 0,10.57139 10.70388,18.26392 38.3492,27.56031 14.30806,4.81139 16.70874,5.0894 37.75,4.3713 15.02795,-0.51288 27.2333,-2.03079 36.85119,-4.58301 z M 339.56548,872.67996 c 28.00605,-18.87117 62.21947,-25.85702 92.11449,-18.80836 12.44255,2.93371 31.74942,11.19243 40.15139,17.17515 7.83188,5.57679 8.36135,3.1547 1.06762,-4.88391 -25.06048,-27.61983 -70.51619,-30.90262 -115.35731,-8.3311 -14.06666,7.08069 -29.66072,17.89235 -29.66072,20.56436 0,1.93593 1.1984,1.34966 11.68453,-5.71614 z m 533.67157,-12.22352 c -2.87093,-4.75483 -15.95317,-10.15319 -41.12395,-16.96969 -30.23189,-8.18711 -31.58498,-8.4799 -47.36761,-10.24986 -25.47373,-2.85676 -45.52378,2.5351 -60.39268,16.24075 -9.63768,8.88371 -9.68237,11.01238 -0.0946,4.50593 27.67074,-18.77785 96.53738,-13.4128 137.22575,10.69055 9.87475,5.84969 10.22698,5.92096 11.86826,2.40155 1.0799,-2.31564 1.03826,-4.70894 -0.11523,-6.61923 z"
       id="path97" />
    <path
       style="fill:#ffd5d5;stroke-width:1.79762"
       d="m 928.34896,1081.386 c -5.35623,-10.0082 -0.58762,-54.3041 11.91421,-110.67171 2.81057,-12.67218 22.32445,-67.86278 23.55819,-66.62904 0.36453,0.36453 -0.19976,8.62929 -1.25398,18.36614 -1.05421,9.73686 -2.7553,37.92659 -3.78021,62.64385 -2.6266,63.34486 -5.63893,80.09916 -16.52471,91.90886 -7.9667,8.6428 -11.10428,9.631 -13.9135,4.3819 z"
       id="path99" />
    <path
       style="fill:#ffd5d5;stroke-width:1.79762"
       d="m 282.04167,1103.0265 c -25.1211,-11.6307 -31.20005,-40.8561 -21.54296,-103.57093 7.36961,-47.85956 6.71545,-54.23721 -12.81252,-124.9139 -3.25053,-11.76449 -5.00232,-23.3683 -5.63084,-37.29843 -0.79995,-17.72988 -0.40342,-21.80382 3.21873,-33.06871 l 4.13107,-12.84767 5.85059,6.38409 c 10.64634,11.61717 11.70781,22.0009 5.91335,57.84678 -4.63513,28.67392 -4.07811,47.16817 1.76887,58.7305 7.7864,15.39751 18.72715,76.01126 25.34641,140.42377 3.86477,37.6083 4.49289,51.7474 2.29599,51.683 -0.74152,-0.022 -4.58393,-1.5375 -8.53869,-3.3685 z"
       id="path101" />
    <path
       style="fill:#ffff00;stroke-width:0.89881"
       d="m 659.31098,1223.3626 c -11.12604,-2.8149 -22.05792,-10.4757 -28.67701,-20.0962 l -2.74831,-3.9946 10.25466,0.579 c 26.60002,1.5017 50.02764,7.5921 52.82553,13.7328 0.97501,2.1399 0.80116,2.602 -1.95797,5.2042 -1.66538,1.5706 -4.60869,3.371 -6.54067,4.0009 -5.53591,1.8047 -17.15322,2.0927 -23.15623,0.5739 z"
       id="path103" />
    <path
       style="fill:#ffff00;stroke-width:0.89881"
       d="m 422.79379,1225.1607 c -3.19221,-0.6994 -6.85995,-0.9203 -8.98809,-0.5412 -8.48164,1.5108 -14.63719,-2.1507 -18.52529,-11.0195 -2.72639,-6.2189 -3.4149,-23.0668 -1.34263,-32.8542 0.77816,-3.6753 1.76404,-7.0316 2.19084,-7.4584 0.43546,-0.4354 1.00819,2.5142 1.3051,6.7215 0.7141,10.1189 3.41371,17.1127 8.63861,22.3797 4.93491,4.9746 9.1443,6.3589 19.01516,6.2532 16.96942,-0.1816 39.09741,-10.1433 77.70035,-34.9793 21.00743,-13.5156 27.38876,-16.7734 35.55311,-18.1505 25.29887,-4.2672 54.80666,19.1208 54.76846,43.4098 -0.0186,11.8443 -7.34082,20.4219 -20.44521,23.9505 -10.30569,2.7751 -14.91648,2.6717 -40.66505,-0.9113 -40.38342,-5.6195 -59.18227,-6.3455 -78.57153,-3.0346 -8.45742,1.4442 -22.99395,5.7702 -22.99395,6.8429 0,0.941 -0.89113,0.87 -7.63988,-0.6086 z m 145.54601,-12.9255 c 1.44941,-0.3419 2.79954,-1.1145 3.0003,-1.7167 0.70693,-2.1208 -6.27262,-3.9903 -16.64601,-4.4588 -8.89444,-0.4017 -10.11161,-0.282 -10.11161,0.9939 0,1.4955 3.26123,3.5236 8.90364,5.5369 3.12334,1.1145 9.2443,0.968 14.85368,-0.3553 z m -61.50732,-7.4879 c 15.52707,-2.2234 22.53495,-2.7839 35.66262,-2.8526 15.42459,-0.081 16.25963,-0.1724 14.93281,-1.6396 -4.26656,-4.7179 -19.14008,-7.0066 -34.17436,-5.2588 -13.06327,1.5187 -48.45547,10.4659 -51.02523,12.8993 -1.3496,1.2779 12.48088,0.02 34.60416,-3.1483 z m -8.98809,-8.263 c 16.2711,-4.1636 31.60858,-6.8206 39.21356,-6.7934 2.40828,0.01 8.01888,0.6138 12.46798,1.3448 10.48487,1.7227 16.60352,1.7025 19.12442,-0.063 2.60806,-1.8268 2.53154,-2.4242 -0.79597,-6.214 -5.8831,-6.7005 -25.45108,-13.9583 -37.63349,-13.9583 -6.32315,0 -13.65027,1.8013 -16.64296,4.0916 -2.33812,1.7893 -0.97301,2.6799 5.2595,3.4313 6.02731,0.7267 11.3641,2.2449 11.3641,3.2329 0,1.0318 -5.76458,2.8497 -21.19675,6.6845 -13.67546,3.3982 -20.39405,5.6935 -25.92088,8.8554 -3.78929,2.1678 -5.59079,4.8435 -2.64794,3.9329 0.92359,-0.2859 8.75739,-2.3309 17.40843,-4.5445 z"
       id="path105" />
    <path
       style="fill:#ffff00;stroke-width:0.89881"
       d="m 378.34998,1192.5964 c -2.14776,-7.7337 -0.1877,-23.4242 3.94493,-31.5795 2.55943,-5.0508 6.12618,-7.43 13.68213,-9.1266 5.65112,-1.2689 9.83274,-0.4452 11.62477,2.2898 3.25536,4.9683 -2.64333,12.6638 -14.49256,18.9072 l -7.00261,3.6897 -1.55143,7.663 c -2.37305,11.7213 -4.45515,14.4581 -6.20523,8.1564 z"
       id="path107" />
    <path
       style="fill:#ffff00;stroke-width:0.89881"
       d="m 428.18665,1243.4968 c -5.541,-1.0591 -18.98022,-7.662 -25.61607,-12.5856 -4.30877,-3.197 -4.59726,-3.59 -2.24703,-3.0606 1.48304,0.334 14.30537,0.8805 28.49408,1.2145 32.61591,0.7676 33.22816,1.1058 17.85655,9.8634 -8.92404,5.0843 -11.91764,5.824 -18.48753,4.5683 z"
       id="path109" />
    <path
       style="fill:#ffff00;stroke-width:0.89881"
       d="m 773.77891,1203.2305 c -14.14536,-3.3285 -14.11859,-3.3046 -4.49405,-4.0251 28.40585,-2.1268 45.33029,-9.3889 48.14322,-20.6579 0.35545,-1.424 1.3981,-2.7857 2.317,-3.026 0.91891,-0.2403 1.67074,-0.7412 1.67074,-1.1133 0,-0.372 -5.56139,1.2403 -12.35864,3.5829 -18.13577,6.2503 -17.47089,6.1326 -13.07525,2.3146 2.07759,-1.8046 5.80582,-6.3138 8.28496,-10.0204 11.38861,-17.0274 12.83124,-40.5698 2.80379,-45.7552 -3.03098,-1.5674 -10.45914,-1.8018 -14.03351,-0.4428 -4.0309,1.5325 -3.61836,0.24 1.5837,-4.9621 4.25664,-4.2566 5.42637,-4.95 8.35119,-4.95 9.07209,0 17.22342,12.1015 21.18982,31.4584 2.43251,11.8711 2.05596,26.7008 -0.91884,36.1872 -1.65439,5.2756 -2.50448,6.5504 -6.44618,9.6661 -6.05178,4.7837 -14.15796,9.182 -22.17419,12.0315 -7.84667,2.7893 -7.76172,2.7904 -20.84376,-0.2879 z"
       id="path111" />
    <path
       style="fill:#ffff00;stroke-width:0.89881"
       d="m 622.44025,1185.5951 c -1.04204,-2.7155 -0.52694,-5.3413 1.93257,-9.8514 3.30703,-6.0643 6.9451,-7.7729 17.75483,-8.3383 10.19155,-0.5331 18.33927,0.6047 40.42209,5.6446 24.20231,5.5236 26.44817,5.9249 37.15499,6.6391 l 9.58311,0.6393 -7.08593,0.7456 c -6.34953,0.6682 -49.04843,-0.4312 -69.5851,-1.7916 -4.10448,-0.2719 -11.30745,-0.2121 -16.0066,0.1328 l -8.54391,0.6272 -1.52018,3.1786 c -1.72745,3.6121 -3.28518,4.5128 -4.10587,2.3741 z"
       id="path113" />
    <path
       style="fill:#ffff00;stroke-width:0.89881"
       d="m 685.12964,1203.1032 c -4.5132,-0.9484 -15.8382,-4.1349 -25.16667,-7.0812 l -16.96085,-5.3569 7.19048,-0.044 c 3.95476,-0.024 15.27976,0.6324 25.16667,1.4596 10.07661,0.8432 27.85066,1.5339 40.44643,1.5719 23.13207,0.07 31.56832,-0.726 41.95042,-3.9565 4.20739,-1.3092 5.93528,-1.4214 9.87939,-0.6415 4.07053,0.8048 4.4477,1.0383 2.54065,1.5725 -21.15838,5.9273 -30.05289,8.1309 -37.83201,9.3728 -5.14139,0.8208 -12.55958,2.2716 -16.48488,3.2239 -9.03772,2.1928 -19.92432,2.1502 -30.72963,-0.1202 z"
       id="path115" />
    <path
       style="fill:#ffff00;stroke-width:0.89881"
       d="m 861.94887,626.4407 c -2.98393,-2.09002 -5.82444,-8.62382 -9.90743,-22.78927 -3.75226,-13.01801 -6.13039,-18.949 -7.8243,-19.51364 -0.55864,-0.18622 -0.75268,1.71015 -0.51342,5.01785 0.76146,10.52712 -2.85776,14.85805 -9.44977,11.30801 -7.15678,-3.85418 -20.93127,-21.39838 -20.92241,-26.64832 0.0138,-8.20279 3.80434,-13.30675 9.88235,-13.30675 5.2415,0 14.80321,5.33578 22.86529,12.75967 15.04836,13.85713 25.66997,32.18213 25.66997,44.28728 0,3.90315 -0.39009,4.99496 -2.47173,6.91801 -3.3516,3.09627 -5.06132,3.5552 -7.32855,1.96716 z"
       id="path117" />
    <path
       style="fill:#ffff00;stroke-width:0.89881"
       d="m 827.25808,520.83202 c -3.46042,-2.99639 -15.39212,-14.0315 -26.51488,-24.52246 -21.0972,-19.89881 -27.48506,-25.7428 -34.08518,-31.18308 l -3.94788,-3.25413 3.51207,-1.23992 c 2.04615,-0.72239 7.09577,-1.23993 12.09799,-1.23993 8.09808,0 8.96626,0.18913 15.27976,3.32862 12.03968,5.98691 22.5953,17.52691 30.32006,33.1476 5.21371,10.54294 11.92745,30.55636 10.21421,30.44819 -0.32147,-0.0203 -3.41574,-2.4885 -6.87615,-5.48489 z"
       id="path119" />
    <path
       style="fill:#ffff00;stroke-width:0.89881"
       d="m 750.40986,392.72625 c -26.95359,-1.93054 -54.98347,-8.13405 -125.6805,-27.81531 -5.75596,-1.60239 -5.28003,-2.94323 1.93866,-5.46174 7.26463,-2.53453 34.8162,-2.24743 50.48887,0.52611 21.08735,3.73177 39.93726,9.34608 55.46217,16.51903 7.92528,3.66171 20.12072,11.3283 23.15066,14.55352 1.95503,2.08103 1.99155,2.26831 0.41437,2.12512 -0.95127,-0.0864 -3.54967,-0.2874 -5.77423,-0.44673 z"
       id="path121" />
    <path
       style="fill:#ffff00;stroke-width:0.89881"
       d="m 483.97,434.69529 c -5.66472,-1.98707 25.78134,-19.00564 50.24835,-27.19434 10.26135,-3.43431 11.10409,-3.5724 18.25882,-2.99187 9.55462,0.77526 20.8039,3.63789 23.02532,5.85932 1.58398,1.58398 1.60969,1.88879 0.32469,3.84995 -2.91299,4.44578 -19.2701,11.21001 -36.18815,14.96506 -13.70526,3.04195 -20.21102,3.8621 -32.80655,4.13575 -6.67366,0.14499 -14.18776,0.64025 -16.698,1.10057 -2.51024,0.46033 -5.28426,0.58433 -6.16448,0.27556 z"
       id="path123" />
    <path
       style="fill:#ffff00;stroke-width:0.89881"
       d="m 408.87102,456.12541 c 0.0282,-6.81806 8.79379,-17.87491 21.12404,-26.64561 11.09118,-7.88933 36.32111,-20.30362 48.74962,-23.98705 3.23613,-0.95909 2.50862,1.73081 -1.70423,6.30121 -4.5647,4.95211 -11.0891,9.31218 -30.87761,20.63463 -18.7052,10.7026 -28.46292,17.13389 -33.48066,22.06704 -3.55331,3.49341 -3.81932,3.60716 -3.81116,1.62978 z"
       id="path125" />
    <path
       style="fill:#ffff00;stroke-width:0.89881"
       d=""
       id="path127" />
    <path
       style="fill:#ffff00;stroke-width:0.89881"
       d="m 370.97219,554.76188 c -8.95543,-3.19896 -18.36632,-11.63739 -22.29166,-19.9882 -3.65778,-7.78159 -1.12438,-14.94348 6.70255,-18.94804 1.48303,-0.75878 5.32544,-3.89691 8.53869,-6.97362 3.21324,-3.07671 7.20705,-6.29858 8.87513,-7.15971 2.71732,-1.4028 3.17541,-1.42316 4.40287,-0.1957 1.6683,1.6683 2.77519,7.94592 2.84699,16.14634 0.0574,6.55142 1.61759,18.27886 2.69241,20.23745 0.48038,0.87537 1.94173,0.0878 5.52355,-2.97696 5.26205,-4.50239 12.36206,-9.44844 13.56314,-9.44844 3.14506,0 -2.86933,9.08835 -13.05379,19.7256 -11.04668,11.53779 -11.55567,11.81177 -17.79988,9.58128 z"
       id="path129" />
    <path
       style="fill:#ffff00;stroke-width:0.89881"
       d="m 316.28486,603.83947 c 0,-0.88528 2.42679,-6.63239 5.39286,-12.77137 2.96607,-6.13898 5.39286,-11.91569 5.39286,-12.83713 0,-0.92145 1.65861,-3.1625 3.6858,-4.98012 2.02719,-1.81763 4.26214,-4.41705 4.96654,-5.7765 1.15093,-2.22122 1.75662,-2.47023 5.97639,-2.45694 10.84324,0.0341 19.36962,10.30366 13.96326,16.81792 -1.67505,2.01831 -7.44082,4.65507 -12.59745,5.76097 -3.92127,0.84096 -6.10717,2.19538 -12.68767,7.86146 -7.96379,6.85715 -12.15672,9.9777 -13.41848,9.98656 -0.37076,0.003 -0.67411,-0.71958 -0.67411,-1.60485 z"
       id="path131" />
    <path
       style="fill:#ffff00;stroke-width:0.89881"
       d="m 294.72289,811.14778 c -6.47345,-1.07234 -10.76015,-3.36552 -13.34696,-7.14001 -2.78046,-4.05705 -2.39425,-8.52217 2.05339,-23.74027 3.1287,-10.70518 3.72587,-11.96664 7.12482,-15.05057 8.72525,-7.91659 32.84913,-17.32678 46.51604,-18.14488 4.13995,-0.24781 9.5495,-1.06624 12.02123,-1.81872 5.61535,-1.70952 17.00756,-1.75222 24.83507,-0.0931 12.77422,2.70763 20.32952,8.78786 25.03788,20.14957 7.21857,17.41905 6.50586,17.59002 -9.87593,2.3691 -10.41268,-9.6748 -15.58107,-13.50283 -17.0255,-12.61012 -2.91761,1.80318 1.24261,11.4201 8.76233,20.25527 6.01427,7.0664 8.78459,11.46271 7.82674,12.42057 -1.12068,1.12068 -10.21609,-4.53149 -20.70549,-12.86703 -10.46244,-8.31412 -19.47773,-13.93449 -22.35145,-13.93449 -2.05656,0 -1.85053,3.76392 0.45706,8.34979 1.04728,2.08128 4.51396,8.13697 7.70371,13.45709 3.18976,5.32012 5.66972,10.2832 5.51102,11.02905 -0.48032,2.25748 -8.23404,-3.81393 -12.66787,-9.91934 -10.81089,-14.88665 -24.69405,-20.10139 -31.41764,-11.80098 -1.04653,1.29197 -1.55659,3.52915 -1.56414,6.86058 -0.0147,6.48893 3.01093,12.9508 9.05752,19.34417 5.02108,5.30906 4.90887,5.66571 -1.1087,3.52376 -8.3504,-2.97231 -21.25461,-5.77451 -26.62788,-5.78235 -5.27405,-0.008 -5.61756,0.11892 -5.61756,2.07067 0,2.40203 2.77597,5.2187 10.26061,10.41102 4.89281,3.3943 5.10801,3.6803 2.69643,3.58361 -1.4414,-0.0578 -4.84103,-0.47287 -7.55473,-0.92239 z"
       id="path133" />
    <path
       style="fill:#ffff00;stroke-width:0.89881"
       d="m 676.70748,828.8798 c 0,-1.35314 2.88741,-8.12649 12.07821,-28.3334 2.79664,-6.14869 6.32399,-15.6536 7.83855,-21.12202 3.27774,-11.83452 6.88037,-21.17771 8.16589,-21.17771 2.04597,0 -1.72556,25.1416 -6.08417,40.55795 -3.47869,12.30413 -5.33112,15.75388 -12.35262,23.00421 -7.16642,7.39995 -9.64586,9.21753 -9.64586,7.07097 z"
       id="path135" />
    <path
       style="fill:#ffff00;stroke-width:0.635554"
       d="m 477.87979,527.36408 c 8.15767,-15.7752 57.16881,-29.99851 94.15279,-27.32368 10.19612,0.73743 23.73535,3.26104 23.73535,4.4241 0,1.21505 -4.10015,6.41407 -6.20153,7.86356 -9.09818,6.27577 -18.27142,7.73302 -52.58724,8.35395 -11.18576,0.2024 -23.34073,0.67807 -27.01106,1.05703 -8.20523,0.84719 -17.60719,3.16311 -21.36274,5.26213 -1.84475,1.03105 -4.3661,1.72641 -7.31274,2.01676 l -4.49723,0.44315 z"
       id="path139" />
    <path
       style="fill:#ffff00;stroke-width:0.635554"
       d="m 626.91009,506.35187 c -5.96111,-3.06018 -16.25884,-6.54347 -24.15106,-8.1693 -12.81359,-2.63965 -16.69883,-2.90043 -43.0427,-2.88907 l -25.56495,0.011 1.73167,-1.47627 c 2.65956,-2.26732 10.07195,-5.68075 15.71386,-7.23629 4.51939,-1.24606 6.67361,-1.4061 19.3844,-1.44011 12.67134,-0.0339 15.08979,0.13077 21.2348,1.44583 12.52917,2.68131 23.68728,7.34862 31.36147,13.11817 3.67857,2.76558 8.92302,8.32889 8.34784,8.85538 -0.13677,0.12519 -2.39366,-0.87352 -5.01533,-2.21937 z"
       id="path141" />
    <path
       style="fill:#ffff00;stroke-width:0.635554"
       d="m 589.2441,452.37877 c -4.81155,-0.24129 -8.90583,-0.59627 -9.09839,-0.78884 -1.30871,-1.3087 13.12812,-8.53714 24.86651,-12.45052 27.15153,-9.05184 49.77235,-8.22574 60.193,2.19822 3.56281,3.56395 6.64119,9.16503 5.40268,9.83014 -2.55691,1.3731 -60.83513,2.24051 -81.3638,1.211 z"
       id="path143" />
    <path
       style="fill:#ffff00;stroke-width:0.635554"
       d="m 551.91469,477.88982 c 0,-1.59205 19.21911,-8.30594 31.95019,-11.16129 7.79973,-1.74933 13.48622,-2.00869 21.43331,-0.97757 5.82624,0.75595 9.04059,1.7632 8.74228,2.73949 -1.04944,3.43462 -22.58955,8.00908 -38.20994,8.11462 -4.24007,0.0286 -10.5692,0.44805 -14.06475,0.93201 -7.41692,1.02686 -9.85109,1.11403 -9.85109,0.35274 z"
       id="path145" />
    <path
       style="fill:#ffff00;stroke-width:0.635554"
       d="m 430.52381,458.38027 c 0,-1.14133 9.59733,-12.20754 15.98308,-18.4293 11.65317,-11.35391 23.90361,-19.93869 38.99237,-27.32481 21.50833,-10.52857 42.42453,-15.72941 66.7332,-16.59329 17.97805,-0.6389 35.37595,1.75087 51.4799,7.07128 7.6217,2.51805 20.9844,8.04692 22.07417,9.13327 0.47197,0.47048 -39.61876,8.73989 -45.74857,9.43643 -2.62216,0.29796 -3.33666,0.1879 -3.33666,-0.514 0,-1.04404 4.31795,-3.97452 10.16887,-6.90135 2.27211,-1.13658 4.2356,-2.16095 4.36332,-2.27637 0.41924,-0.37886 -3.32655,-3.47546 -7.95111,-6.57312 -2.74129,-1.83619 -6.77163,-3.77282 -10.16887,-4.88628 -5.32438,-1.74508 -6.19302,-1.84205 -16.11439,-1.7988 -9.35889,0.0408 -11.17013,0.23222 -16.84219,1.78005 -14.86957,4.05769 -29.00693,10.83654 -53.70434,25.75119 -27.26017,16.46228 -36.06756,21.58825 -43.44364,25.28452 -3.89561,1.95215 -8.29842,4.38414 -9.78403,5.40442 -1.48561,1.02028 -2.70111,1.66655 -2.70111,1.43616 z"
       id="path147" />
    <path
       style="fill:#ffff00;stroke-width:0.635554"
       d="m 668.22112,423.30162 c -7.88074,-3.59195 -43.70384,-17.60911 -50.61221,-19.80397 -7.66745,-2.43602 -15.33942,-6.18682 -16.58735,-8.10951 -0.79948,-1.23173 -0.75969,-1.52164 0.36291,-2.64424 2.09833,-2.09833 7.65585,-2.83315 18.8523,-2.49268 24.7303,0.75203 45.73013,9.80659 51.46824,22.1917 1.72304,3.719 2.53438,8.90892 1.78077,11.39105 l -0.498,1.64024 z"
       id="path149" />
    <path
       style="fill:#ffff00;stroke-width:0.635554"
       d="m 530.30584,388.37031 c 0,-1.9416 18.33068,-7.40647 34.95549,-10.42117 10.24107,-1.85709 26.01047,-2.35307 30.5937,-0.96223 1.87465,0.56889 6.76345,1.74353 10.86399,2.61032 19.90788,4.20819 15.38577,5.71172 -20.16662,6.70509 -12.58398,0.35161 -26.88395,0.94895 -31.77772,1.32743 -14.34973,1.10978 -24.46884,1.41604 -24.46884,0.74056 z"
       id="path151" />
    <path
       style="fill:#ffff00;stroke-width:0.635554"
       d="m 450.27625,410.48048 c -4.56733,-2.89079 26.96762,-22.32323 55.76005,-34.36041 9.57856,-4.00448 21.03101,-7.80868 27.5794,-9.16114 5.33934,-1.10276 14.19524,-1.36029 14.77048,-0.42954 0.56384,0.91232 -0.83265,4.00527 -2.70858,5.99895 -6.2809,6.67513 -20.88813,13.26209 -57.31835,25.84702 -10.31186,3.56226 -22.29437,7.87619 -26.62778,9.58651 -7.97107,3.14602 -9.82123,3.55281 -11.45522,2.51861 z"
       id="path153" />
    <path
       style="fill:#ffff00;stroke-width:0.635554"
       d="m 399.26155,566.17964 c -9.35378,-8.39015 -9.08538,-17.84072 0.81834,-28.81392 2.06171,-2.28435 4.96628,-4.74286 6.45459,-5.46334 1.48832,-0.72048 4.63838,-3.02527 7.00015,-5.12177 4.72987,-4.19862 11.53958,-8.4196 22.24562,-13.78888 3.8631,-1.93742 8.14878,-4.23273 9.52372,-5.1007 4.16801,-2.63114 3.31166,-1.2633 -1.4943,2.38686 -5.65671,4.29631 -10.85856,8.9348 -10.46327,9.33009 0.16498,0.16498 1.67089,-0.90718 3.34646,-2.38258 4.17161,-3.67325 4.97066,-4.03911 6.18012,-2.82964 2.45971,2.4597 1.03013,11.44666 -3.51995,22.12792 -7.8382,18.40008 -20.64417,30.85924 -33.4087,32.50393 -3.00076,0.38664 -3.14537,0.32501 -6.68278,-2.84797 z"
       id="path155" />
    <path
       style="fill:#ffff00;stroke-width:0.635554"
       d="m 337.10834,527.58013 c 0.0413,-4.33503 1.47958,-13.52843 2.86365,-18.30458 2.59488,-8.95439 6.57731,-16.46005 14.05639,-26.492 9.96856,-13.37118 18.80515,-22.06779 33.27774,-32.75058 5.72987,-4.22945 14.93484,-10.3615 15.55389,-10.3615 0.45908,0 -31.68199,48.47785 -37.70893,56.87576 -10.44574,14.55502 -21.3694,27.40165 -26.30598,30.9368 -1.65366,1.18421 -1.74718,1.18938 -1.73676,0.0961 z"
       id="path157" />
    <path
       style="fill:#ffff00;stroke-width:0.635554"
       d="m 386.9684,526.42463 c -0.16381,-0.52433 -0.41423,-1.33638 -0.55649,-1.80456 -1.50323,-4.9472 8.17322,-42.99534 10.93666,-43.00329 0.24431,-7.1e-4 2.40127,-1.2877 4.79326,-2.86 2.39198,-1.57229 4.93211,-2.85871 5.64473,-2.85871 0.71261,0 2.51834,1.22267 4.01272,2.71706 8.06762,8.06762 5.1247,22.12051 -6.55159,31.28483 -1.88314,1.47801 -4.33087,3.95764 -5.43941,5.51029 -3.59189,5.03092 -10.18835,11.96772 -11.38054,11.96772 -0.63883,0 -1.29554,-0.429 -1.45934,-0.95334 z"
       id="path159" />
    <path
       style="fill:#ffff00;stroke-width:0.635554"
       d="m 472.16805,457.49195 c -0.97153,-1.57196 11.44749,-6.02893 28.53412,-10.24041 29.92569,-7.37602 65.38009,-13.04312 85.91488,-13.7328 12.51612,-0.42036 13.68532,-0.13996 11.0616,2.65287 -4.78011,5.08819 -21.9213,8.52741 -75.95279,15.23922 -30.87974,3.83589 -44.1159,5.60783 -47.78652,6.39722 -0.76507,0.16454 -1.56216,0.0223 -1.77129,-0.3161 z"
       id="path161" />
    <path
       style="fill:#ffff00;stroke-width:0.635554"
       d="m 434.79318,490.12445 c -1.63416,-1.63416 11.68996,-14.54971 18.56656,-17.99724 2.605,-1.306 14.02954,-4.22016 18.92963,-4.82856 4.64372,-0.57657 7.80768,0.53129 7.80768,2.73386 0,2.72527 -5.84953,7.82409 -12.92464,11.26593 -6.02884,2.93286 -15.18272,5.37751 -20.20399,5.3957 -1.26734,0.005 -3.84133,0.68461 -5.71999,1.51116 -4.47885,1.97053 -5.96271,2.41169 -6.45525,1.91915 z"
       id="path163" />
    <path
       style="fill:#ffff00;stroke-width:0.635554"
       d="m 406.37275,529.48081 c 0,-0.95282 8.09027,-11.27407 13.12218,-16.74075 7.00009,-7.60492 15.0817,-15.00488 19.51973,-17.87332 5.90089,-3.81393 27.11062,-10.31471 28.64548,-8.77984 1.51663,1.51662 -5.75155,6.93358 -29.90187,22.28577 -9.39705,5.97364 -17.94355,11.64487 -18.99221,12.60273 -1.67233,1.52752 -9.40095,7.21909 -11.59887,8.54173 -0.43694,0.26294 -0.79444,0.2466 -0.79444,-0.0363 z"
       id="path165" />
    <path
       style="fill:#ffff00;stroke-width:0.635554"
       d="m 446.6075,527.94267 c 0.56948,-11.54962 9.15679,-21.3807 24.2941,-27.81278 7.1834,-3.05235 18.1496,-6.13648 33.19046,-9.33448 14.34616,-3.05029 17.60896,-3.24977 17.19564,-1.05133 -0.30022,1.59683 -6.1226,4.48416 -21.48847,10.65617 -16.72197,6.71672 -31.24661,13.64735 -38.47397,18.35838 -5.21137,3.39694 -11.54852,9.08137 -13.86026,12.43266 -1.07404,1.55701 -1.09124,1.49184 -0.8575,-3.24862 z"
       id="path167" />
    <path
       style="fill:#ffff00;stroke-width:0.635554"
       d="m 424.32716,568.06041 c -2.29745,-1.40079 -2.51318,-2.38226 -1.11702,-5.08213 2.48288,-4.80136 18.82544,-14.55497 39.30231,-23.45651 10.04865,-4.36827 29.35726,-8.45639 30.58186,-6.47495 1.0396,1.68212 -7.53957,6.81354 -34.92389,20.88886 -11.88486,6.10873 -23.26866,12.07025 -25.29733,13.24782 -4.25773,2.47148 -5.68966,2.61841 -8.54593,0.87691 z"
       id="path169" />
    <path
       style="fill:#ffff00;stroke-width:0.635554"
       d="m 679.6611,484.48167 c -4.14465,-0.83299 -9.83395,-2.92582 -18.09854,-6.6576 -2.43876,-1.1012 -7.87275,-3.13122 -12.07553,-4.51117 -16.21963,-5.32559 -19.96447,-9.27163 -9.9067,-10.43896 12.46899,-1.44718 34.63585,5.07451 43.0932,12.67839 2.94148,2.64464 5.88533,7.20967 5.88533,9.12638 0,0.96336 -3.51089,0.88561 -8.89776,-0.19704 z"
       id="path171" />
    <path
       style="fill:#ffff00;stroke-width:0.635554"
       d="m 705.96491,465.76076 c -7.68784,-1.19959 -13.04011,-3.96024 -18.57033,-9.57837 -3.39409,-3.44805 -9.45548,-12.45856 -8.81305,-13.10098 0.60094,-0.60094 22.04322,4.05417 32.50499,7.05682 12.1645,3.49136 25.10832,8.61444 32.0558,12.68747 2.86883,1.68187 5.12927,3.14472 5.02322,3.25078 -0.10606,0.10606 -1.90647,-0.21023 -4.00092,-0.70285 -4.43409,-1.04293 -11.89368,-1.16622 -19.07806,-0.31534 -8.2088,0.97221 -15.64273,1.24531 -19.12165,0.70247 z"
       id="path173" />
    <path
       style="fill:#ffff00;stroke-width:0.635554"
       d="m 737.11623,607.29 c -11.21254,-9.41638 -20.32124,-20.52564 -35.89847,-43.78293 l -10.26632,-15.32792 0.76771,-2.56239 c 1.05696,-3.52781 3.81128,-6.16326 6.44126,-6.16326 8.52511,0 22.86858,16.58537 34.51913,39.91453 6.29856,12.61228 11.0682,26.94096 10.42957,31.33189 -0.19117,1.31441 -0.73762,1.00349 -5.99288,-3.40992 z"
       id="path175" />
    <path
       style="fill:#ffff00;stroke-width:0.635554"
       d="m 704.01426,621.28111 c -3.23946,-3.42453 -7.12257,-9.09405 -15.13762,-22.1016 -6.82824,-11.08148 -8.40556,-13.17563 -15.06696,-20.00387 -8.21216,-8.41784 -9.71962,-10.20354 -10.62583,-12.58706 -2.54809,-6.70198 14.20035,-0.90321 27.5746,9.54708 11.54417,9.02031 17.60417,17.99648 18.04512,26.72873 0.16113,3.19072 -0.0792,5.51531 -0.75824,7.33356 -0.73284,1.96238 -0.87587,3.66436 -0.54416,6.4754 0.83136,7.04543 -0.063,8.22729 -3.48691,4.60776 z"
       id="path177" />
    <path
       style="fill:#ffff00;stroke-width:0.635554"
       d="m 788.55073,653.72522 c -3.82927,-4.17216 -12.75936,-21.43099 -22.62436,-43.72519 -12.50391,-28.25798 -13.64238,-32.17319 -10.78316,-37.08329 1.90358,-3.269 3.5728,-2.98413 7.76315,1.32485 6.57764,6.76384 14.70797,22.47426 20.88285,40.35242 3.70259,10.72013 5.28425,17.88418 5.58059,25.27707 0.11911,2.97121 0.45199,7.15713 0.73975,9.30204 0.28776,2.14491 0.35642,4.37528 0.15258,4.95638 -0.32448,0.92503 -0.53753,0.8747 -1.7114,-0.40428 z"
       id="path179" />
    <path
       style="fill:#ffff00;stroke-width:0.635554"
       d="m 782.84971,547.50856 c -4.15881,-3.07008 -28.65036,-28.20914 -31.81012,-32.65111 -4.22265,-5.93618 -3.27758,-8.87102 2.64109,-8.20165 3.77617,0.42707 12.41707,4.45114 17.78853,8.28414 5.34446,3.81372 12.04491,11.08706 14.24385,15.46167 1.99322,3.96537 2.63675,6.31172 2.97964,10.86403 0.1224,1.62498 0.41651,4.31301 0.65358,5.9734 0.41646,2.91687 0.37691,3.01888 -1.1706,3.01888 -0.89101,0 -3.25405,-1.21984 -5.32597,-2.74936 z"
       id="path183" />
    <path
       style="fill:#ffff00;stroke-width:0.635554"
       d="m 841.31407,490.35693 c -2.08595,-2.18472 -9.10693,-10.8362 -15.60218,-19.22552 -8.98267,-11.60209 -13.08132,-16.34222 -17.12251,-19.80236 -6.07565,-5.20207 -13.32995,-12.57061 -14.44893,-14.67646 -2.49448,-4.69448 10.15133,1.93416 22.80038,11.95143 11.81199,9.35436 22.96604,22.73133 25.06198,30.05664 0.5154,1.80134 1.66529,5.74803 2.55531,8.77042 2.49418,8.46992 2.25519,8.68547 -3.24405,2.92585 z"
       id="path185" />
    <path
       style="fill:#ffff00;stroke-width:0.635554"
       d="m 734.24802,510.62746 c -8.57529,-3.52752 -23.3275,-12.88538 -26.90861,-17.0691 -2.69641,-3.15015 -3.32352,-5.08481 -2.34461,-7.23328 0.98091,-2.15285 3.5013,-2.95351 8.35068,-2.65279 4.99914,0.31001 9.01472,2.11612 13.3291,5.99512 3.03345,2.72733 7.00864,9.35007 7.00864,11.67652 0,0.60048 0.47651,1.4843 1.05891,1.96404 1.83115,1.50838 5.93219,6.98393 5.93219,7.92043 0,1.30126 -2.3323,1.08316 -6.4263,-0.60094 z"
       id="path187" />
    <path
       style="fill:#ffff00;stroke-width:0.635554"
       d="m 767.68537,502.40225 c -2.09733,-1.13679 -7.53131,-4.23463 -12.07553,-6.8841 -4.54421,-2.64947 -9.5492,-5.55008 -11.1222,-6.44581 -4.17841,-2.37935 -13.25192,-9.99172 -14.7064,-12.33818 l -1.25454,-2.0239 1.32533,-0.7093 c 2.76779,-1.48127 14.09485,2.72687 22.38371,8.31582 5.26859,3.55246 11.26782,9.7159 13.11767,13.47673 0.81476,1.65642 2.81675,4.28593 4.44888,5.84335 1.63214,1.55743 2.68152,2.83182 2.33196,2.83198 -0.34955,1.7e-4 -2.35155,-0.9298 -4.44888,-2.06659 z"
       id="path189" />
    <path
       style="fill:#ffff00;stroke-width:0.635554"
       d="m 786.752,419.3072 c -2.44688,-0.6506 -8.16687,-2.46933 -12.71108,-4.04162 -4.54422,-1.5723 -12.4092,-4.04158 -17.47775,-5.48728 -9.12644,-2.60314 -17.35423,-5.65649 -20.24688,-7.51365 -1.4162,-0.90925 -1.4356,-1.00742 -0.35519,-1.79744 1.47759,-1.08044 5.46019,-1.05283 12.97542,0.0899 17.44545,2.65278 34.38304,9.41035 42.89992,17.11573 l 3.17777,2.87499 -1.90666,-0.0289 c -1.04867,-0.0159 -3.90866,-0.56119 -6.35555,-1.21179 z"
       id="path191" />
    <path
       style="fill:#ffff00;stroke-width:0.635554"
       d="m 699.68106,532.13203 c -2.79644,-0.46209 -8.35155,-1.53619 -12.34469,-2.38688 -6.87899,-1.4655 -7.46963,-1.71901 -11.24701,-4.82728 -4.73049,-3.89256 -8.10013,-7.85856 -9.47731,-11.15461 -0.90429,-2.16428 -0.90584,-2.53894 -0.016,-3.89693 3.3993,-5.18799 18.27013,-2.42664 29.53491,5.48431 6.08067,4.27029 10.20673,9.90277 11.72042,15.99954 0.397,1.599 0.28413,1.74242 -1.32595,1.68489 -0.96794,-0.0346 -4.04788,-0.44095 -6.84432,-0.90304 z"
       id="path193" />
    <path
       style="fill:#ffff00;stroke-width:0.317777"
       d="m 766.1848,776.69771 c 0.76463,-4.0364 4.10713,-13.22349 7.11009,-19.54254 3.81128,-8.02 4.60639,-7.56138 2.83433,1.63484 -0.54493,2.82795 -0.91427,3.725 -3.66349,8.89776 -3.1441,5.91576 -5.6883,10.04272 -6.19114,10.04272 -0.15699,0 -0.19739,-0.46475 -0.0898,-1.03278 z"
       id="path195" />
    <path
       style="fill:#ffff00;stroke-width:0.317777"
       d="m 796.14684,767.67034 c -0.74415,-0.67152 -1.54565,-1.6811 -1.7811,-2.24351 -0.60693,-1.44978 -0.51849,-3.83193 0.20112,-5.41734 0.82414,-1.81571 3.56223,-4.65986 5.29244,-5.49744 1.3134,-0.6358 1.45118,-0.64604 2.18887,-0.16269 1.52018,0.99606 0.90858,4.1629 -1.864,9.65182 -0.78084,1.54584 -1.70424,3.2785 -2.05201,3.85036 l -0.63231,1.03974 z"
       id="path197" />
    <path
       style="fill:#ffff00;stroke-width:0.449405"
       d="m 276.84415,599.5935 c 0,-1.42282 6.45954,-10.71451 11.96881,-17.21648 1.2787,-1.50911 3.0439,-4.3 3.92267,-6.20198 4.2055,-9.10224 9.35688,-15.09734 12.97262,-15.09734 3.16181,0 5.64436,5.22291 5.12724,10.78691 -1.04458,11.23935 -9.28472,19.28489 -19.80431,19.33662 -2.54208,0.0125 -2.86449,0.13625 -4.74953,1.82299 -3.44067,3.07871 -8.57628,7.1517 -9.01754,7.1517 -0.23098,0 -0.41996,-0.26209 -0.41996,-0.58242 z"
       id="path199" />
    <path
       style="fill:#ffff00;stroke-width:0.449405"
       d="m 327.96841,572.2305 c -1.79452,-4.67646 0.39634,-17.58776 4.38084,-25.81744 2.1439,-4.42804 4.03361,-6.45738 6.01309,-6.45738 1.57254,0 2.69834,1.07085 5.3359,5.07551 1.79302,2.72236 2.12457,3.56075 2.0981,5.30538 -0.0407,2.68015 -1.67218,5.48519 -4.8519,8.34185 -1.33127,1.19602 -2.84014,3.00665 -3.35302,4.02361 -0.6063,1.20219 -1.7367,2.36507 -3.23128,3.32414 -2.02718,1.30084 -4.14886,3.59451 -5.64142,6.09874 -0.4191,0.70317 -0.51577,0.71678 -0.75031,0.10559 z"
       id="path201" />
    <path
       style="fill:#ffff00;stroke-width:0.449405"
       d="m 312.86867,632.28721 c -0.68173,-1.49623 -0.64851,-2.89968 0.15908,-6.71992 1.35835,-6.42553 3.84745,-12.83376 7.1227,-18.3375 4.13662,-6.95117 20.70031,-19.16952 26.00582,-19.18341 1.39589,-0.004 1.72195,0.17588 1.94687,1.07201 0.61706,2.45859 -4.22353,11.27695 -9.00944,16.41295 -1.51629,1.62721 -4.20915,4.71377 -5.98412,6.85902 -1.77498,2.14526 -4.34735,4.87539 -5.71639,6.06697 -1.36904,1.19158 -3.64004,3.88548 -5.04666,5.98644 -2.84783,4.25359 -7.20095,8.9881 -8.26405,8.9881 -0.38075,0 -0.92697,-0.51509 -1.21381,-1.14466 z"
       id="path203" />
    <path
       style="fill:#ffff00;stroke-width:0.449405"
       d="m 324.86789,635.26826 c -0.92256,-0.74787 -1.05579,-1.23146 -1.02146,-3.70759 0.0735,-5.30285 3.39435,-11.34238 10.67633,-19.41694 2.03526,-2.25678 4.56749,-5.25439 5.62718,-6.66136 1.94725,-2.5854 4.54196,-4.95758 7.89129,-7.2145 6.61413,-4.45688 5.01337,3.27261 -3.60609,17.41251 -3.18013,5.21688 -4.20992,7.10264 -6.00324,10.99313 -1.47662,3.20341 -4.91577,6.88001 -7.76276,8.29872 -2.76461,1.37767 -4.36612,1.45939 -5.80125,0.29603 z"
       id="path205" />
    <path
       style="fill:#ffff00;stroke-width:0.449405"
       d="m 340.35969,641.33045 c 0.5704,-1.48645 12.63119,-19.47406 16.90459,-25.21172 9.83416,-13.20379 20.16665,-24.35428 29.8859,-32.25189 5.51399,-4.48053 6.72626,-5.0166 8.81578,-3.89833 1.80029,0.96349 0.71332,3.69164 -3.68915,9.25921 -2.92173,3.69496 -15.14311,16.0908 -33.43002,33.90724 -5.9397,5.78689 -12.59427,12.41788 -14.78794,14.73555 -2.19368,2.31768 -3.8583,3.87465 -3.69916,3.45994 z"
       id="path207" />
    <path
       style="fill:#ffff00;stroke-width:0.449405"
       d="m 325.80628,648.68864 c -2.02335,-2.02335 0.42438,-5.68071 13.11451,-19.59553 7.24245,-7.94139 10.27304,-11.8076 11.5909,-14.78685 1.87112,-4.22998 14.37057,-21.68118 14.73853,-20.57731 0.42562,1.27686 -5.29564,12.82414 -11.38738,22.98326 -7.9295,13.22394 -15.1642,23.07587 -21.45397,29.21516 -4.00517,3.90934 -5.02713,4.33674 -6.60259,2.76127 z"
       id="path209" />
    <path
       style="fill:#ffff00;stroke-width:0.449405"
       d="m 271.45243,643.20642 c 0.003,-1.2971 2.30362,-8.99146 3.99825,-13.36979 2.34944,-6.07012 4.78582,-10.18572 6.78633,-11.46364 2.54001,-1.62255 12.5693,-12.80791 12.57897,-14.02896 0.007,-0.89236 -1.56634,-0.0845 -8.00153,4.1084 -7.16613,4.66915 -10.66101,6.54701 -12.43112,6.67947 -1.85695,0.13897 -1.93418,-0.90618 -0.32162,-4.35214 2.75358,-5.88427 4.11531,-7.50391 9.24432,-10.99518 5.39089,-3.66952 9.77513,-5.87314 12.38017,-6.22255 1.49075,-0.19995 1.9501,-0.0485 2.98164,0.98303 1.14783,1.14783 1.20454,1.39499 0.96632,4.21158 -0.84179,9.95295 -13.85987,31.53037 -23.92073,39.6485 -0.74548,0.60153 -1.91684,2.0543 -2.60302,3.22837 -1.28192,2.1934 -1.65996,2.55204 -1.65798,1.57291 z"
       id="path211" />
    <path
       style="fill:#ffff00;stroke-width:0.449405"
       d="m 277.80596,658.86115 c -0.68239,-4.58806 -0.64632,-7.01685 0.17409,-11.7214 1.00065,-5.7382 3.8363,-11.75718 5.91476,-12.55475 2.98739,-1.14638 2.04865,6.3487 -2.10706,16.82306 -0.93162,2.34814 -1.94139,5.48274 -2.24392,6.96577 -0.85257,4.17934 -1.17529,4.26983 -1.73787,0.48732 z"
       id="path213" />
    <path
       style="fill:#ffff00;stroke-width:0.449405"
       d="m 288.75338,710.4334 c -3.57307,-1.88035 -5.09173,-4.73911 -4.22583,-7.9548 0.93547,-3.47407 3.78035,-6.86906 6.82006,-8.13882 1.66009,-0.69346 1.71987,-0.68377 2.86867,0.46503 1.072,1.072 1.15024,1.39348 0.90655,3.72495 -0.46739,4.47172 -3.34978,12.6652 -4.44351,12.63114 -0.31775,-0.01 -1.18443,-0.33727 -1.92594,-0.7275 z"
       id="path215" />
    <path
       style="fill:#ffff00;stroke-width:0.449405"
       d="m 310.80591,654.74609 c -0.82735,-0.82734 -0.63255,-2.04359 0.86827,-5.42123 2.24322,-5.04843 9.8944,-14.77789 10.44038,-13.27629 0.34867,0.95893 -1.54758,5.69533 -4.95099,12.36647 -2.31315,4.53408 -3.46465,6.3306 -4.24875,6.62872 -1.36869,0.52037 -1.27809,0.53316 -2.10891,-0.29767 z"
       id="path217" />
    <path
       style="fill:#ffff00;stroke-width:0.449405"
       d="m 288.76695,664.40327 c -0.92796,-2.38386 5.35814,-21.9833 7.05066,-21.9833 0.5852,0 0.21677,5.08356 -0.78823,10.87598 -0.69404,4.00015 -2.40149,7.67565 -4.91632,10.58299 -0.88239,1.02012 -1.11747,1.11169 -1.34611,0.52433 z"
       id="path219" />
    <path
       style="fill:#ffff00;stroke-width:0.449405"
       d="m 603.48978,1366.7468 c -0.61129,-1.2977 -2.15361,-5.6962 -3.42739,-9.7746 -1.27377,-4.0783 -3.54051,-11.2332 -5.03718,-15.8996 -4.22931,-13.1864 -4.88356,-18.6905 -2.41402,-20.3086 0.9789,-0.6414 1.20668,-0.6259 2.78778,0.1895 3.60125,1.8574 7.12025,6.1702 10.04283,12.3084 4.12694,8.6676 4.63075,17.7116 1.3454,24.1514 -0.69972,1.3716 -0.90444,2.6596 -0.90919,5.7203 -0.006,4.1091 -0.29108,5.9725 -0.91245,5.9725 -0.2004,0 -0.8645,-1.0617 -1.47578,-2.3593 z"
       id="path227" />
    <path
       style="fill:#ffff00;stroke-width:0.449405"
       d="m 593.01715,1376.6437 c -2.60253,-2.3989 -5.23073,-6.8802 -8.75259,-14.9238 -1.5221,-3.4763 -3.53525,-7.8373 -4.47367,-9.6911 -1.22502,-2.42 -2.08642,-5.145 -3.05429,-9.6622 -1.99663,-9.3187 -2.75892,-14.0631 -2.74381,-17.0774 l 0.0135,-2.6964 0.93562,1.1235 c 1.71375,2.0579 5.81714,10.8268 14.14666,30.2313 4.53789,10.5715 8.75752,20.2211 9.37695,21.4434 1.09689,2.1647 1.1036,2.2347 0.25733,2.6876 -1.82982,0.9793 -3.55817,0.5446 -5.70572,-1.4349 z"
       id="path229" />
    <path
       style="fill:#ffff00;stroke-width:0.449405"
       d="m 612.17581,1400.1151 c -0.49434,-0.4944 -0.89437,-1.1516 -0.88894,-1.4606 0.0248,-1.4119 2.03136,-4.6665 6.67604,-10.8284 5.90717,-7.8367 7.83029,-11.329 7.8338,-14.2259 0.001,-1.1123 -0.42032,-4.2469 -0.93706,-6.9658 -1.91774,-10.0906 -2.23101,-19.3632 -0.67172,-19.883 0.74042,-0.2468 2.60839,3.6408 3.91372,8.1453 2.56317,8.8449 3.2509,21.0732 1.62761,28.9397 -1.27289,6.1685 -3.74235,10.9535 -7.43618,14.4088 l -2.95968,2.7687 h -3.12939 c -2.53018,0 -3.30149,-0.1721 -4.0282,-0.8988 z"
       id="path231" />
    <path
       style="fill:#ffff00;stroke-width:0.449405"
       d="m 627.68428,1401.471 c -1.27803,-2.4714 -1.33973,-5.0911 -0.20316,-8.6259 2.25895,-7.0253 9.61921,-15.1728 11.76675,-13.0252 0.84611,0.8461 -0.42959,5.0743 -3.17155,10.512 -2.9968,5.943 -6.84488,12.4796 -7.3467,12.4796 -0.19368,0 -0.66409,-0.6032 -1.04534,-1.3405 z"
       id="path233" />
    <path
       style="fill:#ffff00;stroke-width:0.449405"
       d="m 615.96273,1340.5816 c -1.14961,-1.7545 -1.74515,-7.1955 -1.11815,-10.2157 0.93363,-4.4973 2.77077,-5.7793 5.71191,-3.9859 l 1.41491,0.8628 -0.6232,3.2925 c -1.19524,6.3149 -3.03719,11.1572 -4.24406,11.1572 -0.22746,0 -0.74109,-0.4999 -1.14141,-1.1109 z"
       id="path235" />
    <path
       style="fill:#ffff00;stroke-width:0.449405"
       d="m 577.88436,1404.5981 c -2.50305,-1.9689 -4.25856,-7.4778 -5.725,-17.9652 -2.37006,-16.9497 -2.56246,-17.7791 -4.0351,-17.394 -0.68904,0.1802 -0.9512,-0.039 -1.14925,-0.9608 -0.14111,-0.6568 -0.75247,-2.992 -1.35856,-5.1892 -0.6061,-2.1973 -1.02979,-4.0672 -0.94154,-4.1555 0.17075,-0.1707 7.87357,16.2115 11.33368,24.1043 2.7039,6.1678 5.46975,14.4586 6.15335,18.445 0.46565,2.7155 0.44922,3.2401 -0.11258,3.5954 -1.09748,0.6942 -2.9426,0.4815 -4.165,-0.48 z"
       id="path237" />
    <path
       style="fill:#ffff00;stroke-width:0.89881"
       d="m 916.17654,636.9676 c -7.91561,-5.02544 -13.62813,-12.26012 -18.06823,-22.88275 -1.49156,-3.56845 -5.06521,-15.63453 -7.94145,-26.81353 -2.87624,-11.17899 -6.26493,-22.88884 -7.53042,-26.02189 -1.2655,-3.13305 -2.15532,-5.84204 -1.97738,-6.01998 0.54521,-0.54521 10.24319,12.26693 17.18746,22.7066 14.53455,21.85051 23.77161,43.2939 23.77161,55.18466 0,3.51109 -0.32527,6.38379 -0.72284,6.38379 -0.39756,0 -2.521,-1.1416 -4.71875,-2.5369 z"
       id="path239" />
    <path
       style="fill:#ffff00;stroke-width:0.89881"
       d="m 894.59029,667.0062 c -3.63972,-2.47325 -8.67498,-8.88032 -14.39142,-18.31221 -5.18482,-8.55474 -6.71412,-8.42032 -6.54,0.57488 l 0.12705,6.56341 -2.66173,-2.54633 c -6.54245,-6.25878 -7.67353,-11.67536 -3.14078,-15.04077 2.03798,-1.51313 3.8169,-1.88096 8.98809,-1.85848 15.17455,0.066 27.24213,10.79685 29.00449,25.79173 0.52454,4.46308 0.38776,5.11234 -1.26322,5.99592 -2.96463,1.58662 -6.70342,1.15516 -10.12248,-1.16815 z"
       id="path241" />
    <path
       style="fill:#ffff00;stroke-width:0.89881"
       d="m 892.83053,706.88771 c -5.31025,-5.68464 -8.33067,-22.44273 -4.045,-22.44273 1.75164,0 6.21219,6.67529 10.36684,15.51415 3.14532,6.69156 3.31154,7.41525 1.9423,8.45657 -2.52819,1.92273 -5.56524,1.3612 -8.26414,-1.52799 z"
       id="path243" />
    <path
       style="fill:#ffff00;stroke-width:0.89881"
       d="m 953.00442,688.90007 c -2.66534,-4.54083 -5.6607,-8.57016 -6.65635,-8.95407 -0.99566,-0.38391 -4.34959,-3.24498 -7.45318,-6.35794 -8.30753,-8.33261 -8.62629,-12.4072 -0.87975,-11.24553 12.09993,1.8145 26.74585,13.95056 26.74585,22.16245 0,2.37529 -2.10057,6.76768 -4.83754,10.11551 l -2.07297,2.53564 z"
       id="path245" />
    <path
       style="fill:#ffffff;stroke-width:1.79762"
       d="m 782.26107,934.8945 c 0,-1.03733 1.61872,-2.39981 3.59715,-3.02774 3.49313,-1.10867 8.2595,-7.61695 6.71179,-9.16466 -0.42243,-0.42243 -3.92592,1.74461 -7.78552,4.81565 -6.39467,5.08817 -7.80204,5.48003 -15.85786,4.41532 -33.45619,-4.42174 -45.57882,-29.44753 -24.94841,-51.50311 9.5373,-10.19614 13.85051,-10.95803 22.21079,-3.92331 11.00225,9.25778 13.38829,24.5851 4.68074,30.06779 -8.50325,5.35404 -11.44438,5.14135 -13.57899,-0.98198 -3.45613,-9.91426 -2.85302,-11.03743 5.19651,-9.67747 5.12314,0.86555 7.19047,0.58435 7.19047,-0.97803 0,-2.80969 -7.0659,-14.30173 -8.79345,-14.30173 -2.30979,0 -12.58317,10.93526 -13.76162,14.64823 -3.11043,9.80009 6.59033,19.48713 19.52742,19.49981 8.72928,0.009 13.08183,-2.35243 16.49119,-8.9454 3.69133,-7.13825 3.41015,-13.78454 -0.83544,-19.74691 -9.33237,-13.10612 -7.52639,-19.47727 4.87898,-17.21207 3.71843,0.67897 14.04114,4.31583 22.93935,8.0819 8.89821,3.76607 19.48207,7.39526 23.51968,8.06487 9.20618,1.52679 17.9205,6.72239 19.14799,11.41629 3.42086,13.0814 -23.3109,32.767 -49.53604,36.47894 -6.1093,0.86472 -13.33237,2.08689 -16.05127,2.71593 -2.97847,0.6891 -4.94346,0.39403 -4.94346,-0.74232 z"
       id="path247" />
    <path
       style="fill:#ffffff;stroke-width:1.27111"
       d="m 414.96558,943.58954 c -3.92752,-0.96984 -2.414,-3.79481 5.98276,-11.16675 10.39766,-9.12864 19.75946,-24.17112 19.75244,-31.73811 -0.006,-6.60751 -3.58871,-12.38771 -10.43583,-16.83733 -6.99245,-4.54405 -18.66833,-5.02611 -24.1811,-0.99835 -6.06929,4.43437 -9.86712,13.79426 -9.86712,24.31789 0,9.84065 1.07693,14.07516 4.43322,17.43144 5.03303,5.03304 12.98481,0.52539 19.66262,-11.1462 2.1277,-3.71884 3.86855,-7.07341 3.86855,-7.45461 0,-1.21131 -8.77104,-0.0495 -10.50778,1.3919 -2.6252,2.17873 -7.84329,-1.03213 -8.31909,-5.119 -0.61606,-5.29159 6.75781,-12.68455 12.65179,-12.68455 6.32087,0 12.30151,3.38374 13.40838,7.58622 1.42247,5.40072 0.97531,17.1699 -0.77674,20.44364 -2.51982,4.70833 -10.38657,12.8949 -14.37116,14.95541 -4.94686,2.55812 -17.32062,2.44636 -25.37597,-0.2292 -8.55298,-2.84085 -18.28298,-12.26292 -19.53042,-18.91234 -1.48835,-7.93359 0.0428,-16.75736 4.01382,-23.13113 3.45655,-5.54798 4.54184,-6.24885 17.66501,-11.40792 15.62434,-6.14235 21.52732,-6.75498 34.84337,-3.61619 17.76796,4.18817 35.0431,16.04585 40.84868,28.03857 3.69839,7.63987 2.97421,16.25806 -1.96507,23.38545 -3.53439,5.10012 -17.84157,15.7732 -19.64761,14.657 -0.82827,-0.5119 -20.38594,1.16868 -27.38609,2.35326 -1.39822,0.23661 -3.54322,0.18302 -4.76666,-0.11909 z"
       id="path249" />
    <path
       style="fill:#ffffff;stroke-width:1.27111"
       d="m 363.80346,930.87798 c -8.80437,-2.12577 -30.22299,-9.83162 -35.48351,-12.76602 -12.32641,-6.87587 -10.91006,-10.12306 7.51912,-17.23866 16.81342,-6.49174 22.07822,-7.8945 23.66691,-6.30581 0.7375,0.7375 2.13185,6.63556 3.09855,13.10679 1.83648,12.29359 3.83499,19.83469 5.9691,22.52351 1.33726,1.68484 0.11354,1.85933 -4.77017,0.68019 z"
       id="path251" />
    <path
       style="fill:#de8787;stroke-width:0.89881"
       d="m 588.38547,1283.9131 c -12.19689,-1.4654 -28.43243,-4.3985 -54.37798,-9.8239 l -18.875,-3.9469 23.81845,0.637 c 13.10015,0.3503 43.63721,0.619 67.86012,0.5971 49.08944,-0.044 61.04485,-0.9166 80.17534,-5.8492 15.60891,-4.0246 16.77529,-3.3725 4.545,2.5407 -18.59151,8.9889 -35.05296,13.9869 -52.53806,15.9516 -14.18949,1.5943 -36.8491,1.5467 -50.60787,-0.1064 z"
       id="path253" />
    <path
       style="fill:#de8787;stroke-width:0.89881"
       d="m 536.88144,1264.5972 c -6.25078,-0.9205 -9.93999,-2.5496 -10.32723,-4.5603 -0.21121,-1.0967 0.59872,-1.6154 3.13484,-2.0073 8.33733,-1.2885 27.42034,-2.3869 55.65056,-3.2031 53.67974,-1.5522 67.46669,-2.3861 86.63514,-5.2403 11.60538,-1.728 31.37935,-1.8973 35.35133,-0.3026 1.39964,0.5619 2.39007,1.5248 2.20098,2.1397 -1.15774,3.7646 -25.90242,10.3645 -47.88862,12.7726 -7.7553,0.8495 -119.27756,1.2082 -124.757,0.4013 z"
       id="path255" />
  </g>
</svg>
