<svg xmlns="http://www.w3.org/2000/svg" width="915.513" height="1246.431"><path d="M658.964 1506.429c-52.382-15.229-106.327-14.766-159.728-16.445-44.186-7.373-102.805 16.056-138.15-1.754 27.672-.532 78.61-70.117 36.284-54.507-6.912-32.884-4.832-38.344-14.62-2-31.269 72.813 6.99-123.715-15.367-28.287.134 29.122-33.819 80.787-20.412 20.739 5.189-29.362-3.4-62.062-5.752-14.601-3.174 31.899-21.85 47.208-12.553 6.185-16.186 46.41-13.475 17.433-3.918-13.366-11.802 47.748-21.008 24.68-12.608-12.324 7.436-26.156-2.67-69.333-6.746-20.73-.153 37.535-2.489 102.233-13.958 57.022-15.104 61.58-30.9-51.519-37.087 4.153-18.548 35.24 5.294-110.166-9.737-45.45 1.484 28.614-23.554 93.37-16.968 27.094 2.785-22.333-8.156-81.79-7.212-25.79 15.684 29.14-27.247 80.693-29.403 25.146 1.038-25.254 11.367-124.833-5.388-52.13-2.53 23.725-.808 98.497-9.485 33.076-40.285 77.645-.185-67.73-20.084-55.522 11.006-19.872-1.414-114.025-15.893-52.843 17.082-58.167-20.09-107.452-29.715-163.088-8.408-25.21-8.383-75.721 4.678-21.79.036 32.666 25.027 103.015 17.403 34.016-19.278-52.094-10.792-107.49-14.026-160.655-2.676-33.167 12.571-61.68 7.428-11.894 8.527 69.11 8.227-73.03 7.548-94.536-.495-29.724-1.378-107.63-9.88-39.83-10.85 63.093-15.683 127.332-12.616 191.319-17.746-49.1-1.72-107.864 2.412-160.267 19.693-115.206 28.812-236.275 91.528-338.34 54.26-94.136 134.677-186.07 247.67-204.133 69.816-.077 123.398-25.621 184.384-49.947 66.547-5.755 130.215 25.225 187.673 55.135 49.925 38.616 105.197 72.929 139.633 128.495 64.021 84.011 47.87 195.37 53.457 294.116-13.527 128.224-37.988 255.319-44.972 384.38-5.714 76.836-27.999 151.538-46.435 225.072-1.605 26.043-24.318 89.505-37.04 90.844 3.957-31.948-29.01-52.616-28.354-69.952 10.26 47.179-43.695 101.853-55.086 40.69-29.61 49.948-77.87-8.385-66.585-10.389-43.288 37.309 63.81 105.819-20.436 97.72-21.647-5.446-40.208 16.652-59.884 5.368m27.466-4.11c27.06-10.034 89.033-1.737 44.248-41.83-38.732-56.55-38.55-126.532-45.725-191.722-59.074 13.499-118.212 40.485-179.73 24.795-12.125 45.216-.969-48.464-39.071-12.703 19.486-24.885-47.428-20.915-5.64 8.768 12.22 18.273 78.875 62.885 20.772 29.805-21.4-18.347-48.02-41.958-27.583 1.232 6.01 26.895 90.49 70.189 22.872 35.634-54.332-51.532-8.23 24.911 20.599 37.033-24.97 4.173-64.132-64.938-45.741-9.8 9.57 29.88 81.2 72.707 11.743 49.441-28.494-11.881-14.227-32.642 4.494-7.398-20.1-93.124-85.048 66.08-8.67 48.143-18.336 5.226-89.992-21.765-64.1 15.32 57.287-5.685 114.455-4.099 172.158-3.035 40.382 2.045 79.463 13.172 119.374 16.317m-228.39-34.623c-32.575 2.489-30.573-61.476-12.128-14.829 4.385 5.909 43.45 14.245 12.128 14.83m12.435-7.059c-36.03-7.678-39.634-56.922-8.5-12.589 7.525 2.85 33.292 14.331 8.5 12.59M840.5 1438.93c17.378-23.888 5.97-104.065 3.932-35.208-2.049 55.872-23.027-63.444-25.66 5.643 1.014 10.482 5.321 44.301 21.728 29.565m-419.343-3.285c25.737-42.836-15.883 13.112-1.21 1.544zm-138.1 2.171c8.804-22.837 22.813-138.092 6.35-64.32-3.575 21.063-11.366 42.964-6.35 64.32m127.515-18.192c.794-20.2 15.153-119.743 23.679-55.206 3.87-28.674 16.491-106.699-13.091-106.33-9.544 50.909-3.108 121.478-10.588 161.536m-133.453-8.613c5.82-25.426-2.104-84.98-9.868-27.74-2.402 5.529 8.82 67.204 9.868 27.74m512.798 12.421c12.791-22.509 4.278-98.894-2.2-102.83 9.46 30.768-40.833 87.197 2.2 102.83m108.077-.087c5.599-31.981-10.373-54.524-3.736-101.665-8.413 32.244-17.898 72.44 3.736 101.665m-471.977-9.185c14.423-29.649 7.023-47.668-2.028-4.61-2.415 1.304-6.067 28.97 2.028 4.61m-42.946-14.48c3.749-25.893 27.807-117.875 16.857-42.006-6.985 37.265 9.179 64.802 8.153 12.844-8.85-40.13 24.365-121.585-16.36-134.24 5.003 56.58-9.964 131.566-10.545 175.555zm337.664 16.27c-4.608-.237 2.338 4.711 0 0m9.904-23.27c3.612-27.933-16.535-51.83-6.014-6.652-.453 23.383 7.372 39.248 6.014 6.652m-520.007-22.167c16.326-25.844-17.72-83.896-6.14-25.358.416 24.078-2.002 94.739 4.9 32.662zm595.833 34.843c13.425-32.053-16.427 18.012 0 0m-86.89 1.074c-3.374-9.646-2.257 7.744 0 0m-460.908-14.463c-4.704 5.869-.71 21.369 0 0m104.932-24.317c24.18-43.214 27.79-97.305 17.845-144.62-30.008-41.852-63.62-49.6-86.344-72.247-10.445-12.017-29.972-58.261-10.512-39.034-3.829-26.128-24.17-74.584-17.634-17.848.98 40.528 9.765 55.053 31.21 69.369 7.578 22.21 21.666 120.048 1.245 48.717.62-29.775-19.754-76.018-20.618-18.655 4.466 53.499 10.424 104.953 7.68 157.838 23.198-23.805 33.672-116.475 25.488-38.036 3.102 19.582 9.984 71.197 10.863 74.832 28.151-46.06 23.22-130.462 33.105-161.535 8.21 56.376-12.703 113.988.412 170.357 3.25-9.484 3.931-19.661 7.26-29.138m-42.113 1.004c6.207-24.28 7.009-110.216 15.312-91.314-3.723 30.188 1.635 64.664-15.312 91.314m448.575 5.776c-2.256-75.872-9.371 69.36-.25 8.052zm-429.575 5.237c10.804-46.794-6.414-14.709-3.279 12.651l.894-1.145zm487.684 3.833c4.566-25.62-16.45-64.485-13.665-16.773.855 8.541-3.309 38.416 13.665 16.773m80.942-3.257c9.147-51.541-11.574 32.368 0 0m-163.335-16.182c-4.174-71.152-1.326 44.857.222 14.595l-.084-6.395zm130.01 14.982c-.505-72.681-10.885 39.831-.834 5.154l.557-3.443zm-121.949 3.398-.034 3.969zm-516.64-19.575c-1.194-51.638-7.806 53.14 0 0m567.48-2.686c-4.696-24.7 3.157 43.333 0 0m37.507 8.5c37.663-82.201 13.394-176.983 45.705-261.073 9.687-20.847 17.776-90.883 2.346-34.588-12.275 56.635-25.436 97.263-34.08 165.76 10.647 40.926-30.989 117.277-13.971 129.9m-666.199.5c-3.648-24.856-3.543 27.291 0 0m200.094-18.95c-14.01 19.338-1.604 26.58 0 0m-111.102 7.45c17-30.35 14.894-121.556 2.693-124.865-5.589 21.897 14.436 87.418-9.94 72.289-2.45 9.06-5.01 67.657 7.247 52.576m495.515-2.042c12.7-33.201-21.057-48.553-5.327-6.38-.915 1.164 5.8 29.661 5.327 6.38m145.219-3.707c27.874-68.748 41.493-143.637 46.986-217.27-2.23-25.857 7.988-81.23-5.338-25.29-18.1 66.055-20.64 134.944-33.52 201.988-12.81-80.402 18.732-159.965 20.269-240.136-33.994 88.783-48.844 184.235-53.606 278.238 3.789-27.437 27.952-64.73 21.4-8.886-.08-2.873-1.397 29.151 3.809 11.356m-171.82-32.539c-22.29-2.004 6.834 62.483-.106 10.675zm102.375 23.787c12.887-39.338 11.046-119.42-13.029-54.304-28.412 3.667 3.664-155.35-40.558-81.237-13.496 24.192-32.134 85.56-16.207 93.412 11.896-20.845 8.229 80.386 17.963 13.094 21.308-42.136 25.894 49.585 37.536 7.254 7.037 3.077 9.328 52.287 14.295 21.782m-648.156-22.182c22.359-32.622-20.56-89.522-3.994-25.365-3.031 16.205-2.13 64.602 3.994 25.365m681.713 18.951-.067 2.952zm-631.443-2.023c34.955-49.426-.17-109.237-2.734-162.649-14.516 43.264-6.792 103.134-2.497 151.962zm-13.318-3.995c-2.197-12.715-.8 16.763 0 0m488.733-15.808c23.703-18.086 15.986-19.735 23.632-59.134-16.564-46.006-61.264 46.975-23.632 59.134m159.335-.022c7.287-88.96 30.348-175.577 42.025-263.92-32.74 79.477-30.261 167.389-46.32 250.518l1.023 7.486zm-652.487-7.1c-.561-26.446-7.789-137.332-15.006-60.022-5.924 10.799-.178 77.173 15.006 60.022m709.854.93c44.748-136.702 36.718-282.862 62.68-422.896 10.72-80.374 26.845-162.102 13.534-243.027-13.626 50.284-6.875 111.295-15.052 165.441-6.585 66.555-16.487 133.952-33.65 197.95-.235-33.95 4.743-131.01 13.098-129.802-.579 72.062 10.317-48.187 13.567-68.76 4.764-26.84 2.987-69.801-3.637-17.034 1.185 29.15-11.2 83.39-8.615 20.747.317-43.61-19.347 104.148-20.813 27.278 7.67-82.323 26.421-164.118 24.636-246.739 9.15-28.27-45.088-79.024-23.997-23.666 14.84 46.278 14.247 95.705 9.88 142.759-14.065-20.702-5.097 61.209-13.23 82.07-2.464 29.187 4.394 92.818-14.415 88.527 7.314 58.28 4.63 118.99-8.234 176.127-8.178-9.079 12.37-116.778-7.178-37.823-17.541 37.9 13.438-1.367 1.935 36.81-4.132 29.37-17.833 94.364 1.048 29.383 7.068-33.033 29.685-48.71 18.255-2.657-5.187 27.858-10.107 84.8.132 24.457.634-26.332 35.459-61.457 23.751-13.322-.149 69.059-28.908 163.543-33.695 214.177M966.13 835.3l3.04-2.557zm-222.512 466.397c5.284-21.568-4.583 15.066 0 0m10.856-14.52c3.425-21.452 30.09-97.017-5.192-48.947-.419 3.728-2.257 75.84 5.192 48.948m-168.48-3.003c24.939-1.135 110.75-19.336 87.178-21.885 12.293-13.223 65.7-37.845 24.958-6.491 29.184-7.695 69.882-64.438 75.626-65.456-26.02 27.69-27.463 53.301 7.885 11.524 47.444-80.687 30.384 90.27 40.586 58.538 4.677-54.744-.57-118.09 34.022-160.696 1.632-25.238 14.89-101.917 16.141-30.996-1.514 20.38-4.89 91.798 5.095 34.245 3.135-32.098 40.087-134.151-15.638-73.478-24.228 57.279-53.045 119.186-98.98 160.34 38.467-49.49 74.7-101.628 92.56-162.996 17.397-28.472 29.056-119.765 31.78-106.175-3.128 27.917-18.398 51.205-7.44 9.175 8.178-58.935 22.892-88.271 29.266-134.888-3.048-91.634-14.114 66.298-28.344 64.13 9.548-55.603 25.856-111.07 23.11-167.581-7.841 13.463-34.204-50.526-18.427-2.985-15.247 7.906-37.263-9.625-14.44 18.404-49.518-32.348-106.082-67.91-143.88-118.962C688 536.685 638.602 497.47 575.622 480.436c-28.316-11.653-29.51-75.493-67.72-29.78-100.26 71.114-183.523 174.966-213.46 295.657-12.126 44.417 39.27 27.695 9.631-5.411 9.34 30.983 49.163 12.38 23.654-16.96 20.436-13.688 42.882-30.859 2.674-17.85 17.903-4.358 83.242-14.092 32.492-18.434 47.005-1.496 114.592 3.08 130.537 57.323-13.939-20.054-59.46-57.292-71.987-21.17 27.596 11.615 96.044 30.926 70.475 72.863-25.291-23.965-36.893 1.649-29.137 21.47-5.182-50.52-53.12 2.387-86.373-13.045-23.307 31.497-3.195 7.458-29.694-9.93-9.73 23.926-18.263 30.87-16.643-2.375-18.564-9.852-55.173-17.35-43.118 1.623 8.605-15.884-5.389 45.36 24.613 53.579 25.258 14.471 33.504 59.582-.38 21.678-9.457-23.553-56.426-79.763-26.244-21.868 10.991 33.095 78.002 100.222 69.753 96.511-41.945-11.943-68.65-92.27-80.592-94.779 13.257 48.196 61.643 114.957 85.688 133.463-56.798-13.075-61.128-81.031-91.637-122.385-4.621-3.273 28.943 69.644 45.355 93.051 7.076 22.129 85.909 84.593 25.476 47.621-24.985-12.759-58.265-106.578-61.308-86.79 9.038 45.687 12.87 76.609 44.843 124.52 1.373 51.529-61.88-124.603-35.91-38.733 26.679 47.608 28.324 103.201 54.165 150.542 35.362 52.47 86.022 94.513 144.878 117.045 24.342-23.49 47.708-40.72 55.326 6.93 9.438 20.941 28.643 13.13 45.016 9.373m49.351-30.746c-3.71-49.972-111.187-21.218-88.663-34.668 26.882-8.358 95.387-7.688 88.663 34.668m-57.715-53.712c-63.517 4.824-108.957-49.013-119.078-106.832 4.375-60.885-72.532-103.816-81.351-73.524 18.63-21.607 28.379-52.34 34.843-29.147 63.064-21.414 125.396 11.35 181.503 35.016 64.285 3.004 126.912-25.212 188.128-37.504 33.96-19.64-38.759-87.388 14.231-41.352 17.051 14.35 39.511 47.683 5.689 18.818-51.09 47.867-70.198 117.352-91.244 181.373-22.188 59.743-79.742 58.274-132.721 53.152m83.292-7.057c33.358 8.876 29.727-52.138 20.603-18.688-22.54-40.24-22.393 36.791-32.644-12.615-28.58-24.759-33.036 63.923-34.037 1.035-31.809-28.093-42.912 56.43-37.003-.943-21.282-40.265-34.378 46.94-34.114-7.482-44.602-36.74-63.23 26.32-7.556 31.201 40.14 13.827 83.232 8.276 124.751 7.493m40.844-38.231c8.62-47.285 55.168-124.7 52.041-148.033-42.502 1.09-30.267 64.186-72.973 44.11 19.525 48.341-10.494 102.183-63.82 66.164-8.8-18.172-11.728-68.838-19.488-17.007-5.133 42.43-60.434 15.225-82.679 8.508 17.797-18.26 55.462-87.686 1.96-71.737-10.627 46.158-43.23-15.359-52.038 6.539-38.31-.6 20.06 62.513 15.844 90.187 51.65 14.779 120.006 18.91 179.21 22.205 13.988-2.755 28.172.99 41.943-.936m-69.636-35.3c61.123 30.874 61.52-105.744.516-63.565-40.916-5.646-9.83 57.168-.516 63.565m-42-7.361c32.368-37.505-14.638-98.606-45.053-52.519-14.69 35.399-39.302 65.057 14.118 51.709 10.292.613 20.622 1.54 30.935.81m52.2-61.182c28.796-11.045 103.482-44.542 106.385-49.512-68.153 12.05-148.484 57.756-210.329 7.139-22.769-11.347-83.802-23.396-92.442-14.213 66.998 13.275 125.753 60.768 196.387 56.586m-131.632-11.39c-2.47-54.926-57.862 20.16-.963 5.506zm188.932 6.322c46.85-11.056-37.089-25.879-3.275 1.353l3.224-1.332zm-228.49-9.09c30.96-66.563-64.908-4.18 0 0m-26.24-11.212c26.118-32.738-56.797-33.53-7.61-6.19.89.531 7.535 23.534 7.61 6.19m367.323 108.28c20.59-35.857-2.264 12.099 0 0m16.91-28.092c3.983-12.255 12.045-17.603 0 0M551.632 966.13c-22.946-55.863-77.29 26.157-85.904-35.524-8.076-21.396 25.918-80.693 24.743-57.024 8.644-4.746 48.246-54.246 15.254-32.006 22.026-37.892 11.423-67.989 6.36-122.9 5.483-37.697 33.08 62.691 17.232 86.181-1.49 38.03 4.362 79.35-44.345 83.952-6.27 21.007-.746 34.375 5.858 60.103 10.16-46.725 55.895-18.53 72.407 9.447 22.707-12.805 69.551-81.872 75.31-19.055 20.735 14.401 37.128-27.661 17.165-8.474-1.466-17.582-30.816-74.333-38.095-56.674-60.585-22.91-19.828-120.166 4.213-160.317 15.488-1.193-29.603 71.011-18.9 97.431-14.278 30.198 4.872 60.36 46.113 54.421 49.649 32.37 6.151 114.128-38.005 73.219 9.607-32.084-39.077 45.08-59.406 27.22m-78.777-36.701-.004 6.483zm121.714 3.32c3.02-6.088-7.027 6.533 0 0m26.563.93c-1.317-3.792-2.245 3.872 0 0m-17.987-10.507c4.585-7.741-23.25 18.66 0 0m2.48 5.518-2.442.522zm-116.965-48.817c-7.817 2.437-8.033 14.13 0 0m23.472-7.194c-8.095-3.621-11.755 3.586 0 0m-2.932-7.603c35.976-22.968-18.53.656 0 0m90.432 84.603c7.645-7.711-4.781 6.947 0 0m-51.5-85.778c-4.434-6.206 17.471-29.201 35.804-10.157-1.93 16.97-27.082-4.726-35.804 10.157m-99.37-10.472c25.562-23.126 12.002-32.055-11.164-8.305 54.02-34.5-55.194-.14 6.04-21.575 44.686-10.409 51.27-10.128 5.124 29.88m207.338-5c-4.136-50.208 29.623-25.977 57.649-32.336-12.25-36.962-39.116-2.616-50.397-28.958-25.64 10.286-48.997 28.029-27.675-10.49 10.577-35.235 97.44-48.066 80.176-75.433-17.724 5.862-31.69 44.312-19.036 7.818-18.307-3.295-31.58 54.379-24.322 13.649-42.914 43.034 18.36-41.68 18.519-18.847 31.086-25.956 156.405-6.58 78.93 19.086 12.82 42.234 75.105-39.72 31.256 18.5 14.652 8.247 71.082-37.037 23.667-.134-16.925 27.816 97.246-1.992 30.758 16.859 19.428 2.908-30.06 12.182-1.58 21.04-29.927-31.379-51.028 2.038-50.063 5.811-25.362-21.4-21.537 49.17-29.301 5.234-31.1-12.986-35.231 51.025-30.985 5.365-50.575-3.878 7.955 43.829-35.182 32.258-47.144-11.283 43.953 19.045-9.218 6.27-24.398-11.006-37.377 5.963-43.196 14.308m-3.904-66.704c35.987 16.973 47.709-26.012 29.485-41.929-11.53.606-71.217 72.613-29.485 41.93m84.936 8.954c-14.022-4.273-18.857 5.185 0 0m-6.417-8.888c59.302-54.543-28.07 6.394 0 0m34.917.91c52.383-4.846 53.627-42.8 2.488-46.917-53.584-24.241 1.097 23.75-19.84 49.059l5.697.47zm-21.48-3.547c2.763-7.101-6.7 6.594 0 0m-13.943-6.341c42.404-41.587-55.952-18.95-20.392-14.187 42.588-15.829-14.164 36.972 16.856 18.223zm-13.077-4.134c3.095-19.586-20.134 10.446 0 0m-19.587-12.048c42.362-24.512-11.238-25.8-2.092 3.477zm67.654-32.886c56.763-39.01-68.605-1.429 0 0m-28.832-4.611c44.842-40.49-47.314 2.337 0 0m-64.107.795c3.162-4.586-7.09 6.406 0 0m25.872-16.305c-22.053 7.888-16.635 13.315 0 0M391.623 832.193c-22.747-48.168 27.156 1.989 0 0m15.42-4.602c-19.675-42.2 24.72-6.119 0 0m27.154-6.677c-15.035-30.034 20.495-5.432 0 0M613.13 709.682c2.985-5.524 5.78 1.393 0 0m-79 574.555c-1.838-3.792-2.979 2.219 0 0m-10.32-2.809c1.772-26.324-24.658 7.234 0 0m-17.141-6.813c-5.1-22.059-27.755 6.813 0 0m183.46-5.937c-1.316-3.791-2.244 3.873 0 0m-428.149-56.46c-6.366-53.947 13.05-119.528-18-165.2-71.433-26.132-45.127-92.019-72.842-152.713-20.519 27.707-2.826 111.852-6.041 159.929-8.233 42.338-15.74-65.212-17.717-89.224-11.178-44.752 5.204 110.45-.482 70.388 2.546 29.95 45.408 109.174 26.848 103.61-4.979-33.176 6.355-90.814 13.639-100.721 9.41 71.52-11.694 144.925 5.455 215.319 23.888-24.684 4.612-102.461 17.194-147.15 32.789-18.792 27.71 77.46 38.236 103.114 3.51 20.067 14.933 86.218 13.523 29.981l.06-13.671zm-91.289 40.759c-5.227-2.084 4.228 10.595 0 0m550.646-6.484c42.708-26.126-38.757 15.476 0 0m-16.17-.863c5.452-7.977-14.768 13.44 0 0m137.044-24.982c6.562-27.24 1.873-72.782-.515-20.21-2.344 16.928-6.244 66.98.515 20.21m-666.092-5.47c-.734-23.675-25.464-120.358-16.019-46.681.128 13.448 18.805 87.456 16.02 46.682m655.694 14.313-.185 1.806zm2.14-11.062c5.464-46.953-6.436 31.112 0 0m-613.462-46.743c5.898-30.111-6.861-98.46-5.425-28.233 3.087 24.664 8.509 117.95 5.566 39.745zm655.301 31.743-.047 2.44zm7.946-48.136c10.386-81.937-16.744 97.249-1.626 9.84.539-3.28 1.085-6.56 1.626-9.84m-22.653.136c4.036-82.556-12.855 87.215-.525 4.91l.37-3.468zm-507.365 27.64c-29.94-25.274 25.426 26.55 0 0m-216.199-5.14c-6.128-25.057-.303 21.7 0 0m700.376-22.25c-1.497-19.836-1.696 37.891 0 0m-656.059-44c-1.47-56.945-1.395 82.616-.017 5.03l.012-3.488zm127.704 28.41c-12.919-26.009-24.27-40.13-8.976-1.22 2.76 11.175 24.17 15.644 8.976 1.22m-159.404 4.34c1.82-11.758-6.634-38.236-2.38-11.167zm700.675-8.938-.185 1.806zm-540.658-43.562c-3.41-28.227-54.057-99.808-23.038-32.773 2.5 5.326 39.037 72.822 23.038 32.773m-165.98-12.28c-1.811-30.295-10.626-130.18-11.804-47.69-1.877 12.751 14.906 78.735 11.87 48.351zm764.842-23.219c3.6-12.412-7.39 13.98 0 0m-643.788-16.252c2.426-85.716-34.543 31.711 0 0m-17.1 2.06c-1.837-3.793-2.978 2.218 0 0m-15.057-13.069c-26.546-57.285-3.993 34.451 0 0m11.027 6.224c-6.282-19.585-7.061 16.01 0 0m659.026-6.965c-2.98-11.709-6.367 31.586 0 0m-616.408-7.5c-2.124-20.731-26.704-62.698-10.562-18.292-.067-7.138 8.787 27.412 10.562 18.293m615.511-7.387c4.048-13.616-11.494 22.965 0 0m-652.268 1.805c44.37-33.938-32.804-131.247-30.06-52.494-.88 18.61-.1 62.425 30.06 52.494m662.9-10.598c-2.687-5.294.2 6.31 0 0m-26.962-4.638c2.691-33.512-19.381.2 0 0m28.232-4.47c21.46-74.361 6.258-153.825 29.5-228.137 10.66-25.724 10.165-120.78-29.173-76.994 16.176 59.815 21.682 122.05-2.033 185.058-16.316 30.638-47.69 120.725 1.706 120.074m-759-40.184c-4.03-39.763-.478 41.846 0 0m113 9.782c-1.346-7.112-3.34 5.469 0 0m-62.024-9.42c-.483-42.382-8.456-20.722-1.925 6.86zm47.771-17.39c20.073-23.107-28.995-64.934-17.787-15.06-.354 9.255 7.652 19.242 17.787 15.06m-33.03-18.5-.007 5.48zm-60.257-35.39c-3.177-61.119-16.598 14.526-4.308 32.68 1.96-10.83 1.829-21.916 4.308-32.68m-13.888 23.14c2.89-45.389-13.19-9.237-1.172 8.375zm86.643-6.5c-5.643-53.799-9.927-109.363 5.753-157.367-55.455-48.329-59.19 74.003-24.66 102.841 14.462 3.212 8.13 78.435 18.907 54.527m21.325-2.75c3.084-30.831-12.223-17.86 0 0m-71.87-7.5c5.635-25.745-16.237-60.19-8.583-12.836 1.69 4.082 11.933 40.972 8.583 12.837m33.351 6.824c-4.232-18.524-2.46 9.626 0 0m691.408-9.645c-2.23-43.242 33.14-113.453 9.686-139.088 4.354 44.656-18.161 107.59-9.686 139.088m-708.086-3.178c1.449-20.131-10.175-35.36 0 0m18.736-7.4c-11.507-47.304-12.418 7.985 0 0m31.967-27.35c3.338-20.025-3.297-100.806-19.8-45.766-5.955 15.954 17.273 102.203 19.8 45.766m-80.46 4.25c31.488-39.343-11.053-87.84 1.21-83.365 18.467-57.27-47.094 65.99-1.21 83.365m24.116-7.036c13.656-25.855-19.35-66.525-5.056-16.785.857 3.789-4.442 19.581 5.056 16.785m-45.347-36.714c7.39-56.03-9.81 41.496 0 0m123.007.591c8.45-22.917-15.66-4.21 0 0m-129.92-22.573c13.365-34.17 17.359-91.142 27.394-115.554-7.98 74.811 28.553-70.687 20.35-55.214-20.486-12.304 68.602-90.284 46.415-115.636-34.22 45.54-49.885 83.53-70.175 137.73-18.195 53.31-30.244 109.814-25.832 166.395l1.034-8.849zm301.861 5.523c13.665-22.907 74.98 2.114 33.602-37.816-19.973-38.592-46.316 55.68-33.602 37.816m-14.463-1.541c43.482-19.625-39.082 9.442 0 0m-40.48-1.25c-23.496-25.615 34.377-69.676-23.972-42.742-57.719 9.438-56.512 48.614 4.863 42.641 4.658-2.05 14.3 5.52 19.108.1m-127.789-3.178c.715-16.812-8.295 9.533 0 0m163.326-.572c54.29-5.074-12.964-75.934-16.577-21.089 54.622-41.62 3.015 51.61-8.283 1.126-2.118-53.732-20.51 40.272 24.86 19.963m-145.883-5.25c5.735-13.71-10.648 2.712 0 0m142.951-7.75c17.81-23.388-15.882-8.124-2.133.38zm-166.603-3.5c-2.244-5.498-.945 5.354 0 0m29.345-6c15.268-39.058 1.865-28.803-4.284 4.374zm697.296 3.25c3.292-50.143 21.39-101.465 10.866-151.03-17.768-22.109 6.134 87.457-14.056 116.096-.74 9.738.11 30.3 3.19 34.934m-818.113-12.367c11.122-34.313 11.116-70.537-.113-14.873-.696 4.08-5.466 43.381.113 14.873m116.934-4.883c4.82-42.296 28.586-112.595 47.485-130.437-8.377 20.347-44.064 101.495-30.174 84.011 18.866-59.783 61.614-105.822 98.914-154.75 38.56-45.2 83.377-85.212 133.45-117.271-55.183.97-83.38 59.412-124.067 88.24-46.88 35.35-86.832 110.271-116.219 138.812-8.394 35.79-17.015 93.133-13.297 99.458zm-89.864-4.478c27.482-30.34 54.482-73.184 54.303-114.075-26.077 18.557-69.268 113.312-48.76 52.44-11.405 5.568-17.928 99.84-5.543 61.635m75.04 8.228c4.654-36.496 18.676-62.65-5.255-36.38-7.045 10.316-5.424 28.915 5.256 36.38m136.417-10.734c42.259-17.279-36.453 17.406 0 0m-48.388 3.962c19.432-18.475 11.69-41.7 21.82-6.703 23.151-8.112 9.74-56.864 19.764-8.077 35.862 3.166 29.435-57.296-9.333-28.97-27.437.807-80.914 16.497-32.25 43.75m-94.757-37.478c13.265-82.684-18.835 29.77 0 0m-26.272 6c-1.317-3.792-2.245 3.872 0 0m9.823-9.928c11.701-30.169 8.173-68.842-2.829-16.25-3.132 8.845-25.505 27.113 2.829 16.25m-32.515-26.822c13.337-30.81 74.11-116.441 62.65-106.246-30.18 34.919-57.526 85.489-62.65 106.246m58.557 4.75c-.123-28.26-5.538 27.037 0 0m13.126-6.461c5.232-37.55-10.734 37.08 0 0m650.818-8.884c-26.989-25.164-29.2-103.748-58.998-147.023-53.706-56.95-126.927-99.472-200.507-126.811-23.76-4.993 53.329 23.646 68.219 37.04 20.056 6.38 58.57 56.222 17.847 22.774-48.83-33.922-150.984-96.978-193.53-44.605 62.475-3.825 144.3 7.845 201.31 54.99 27.996 24.122 105.069 64.538 94.023 82.524-21.534-24.621-123.914-93.854-105.87-79.008 51.147 33.714 97.865 75.582 123.785 132.07 26.965 17.783 20.835 104.41 53.72 68.05m-58.366 10.095c-4.324-9.507-3.624 7.64 0 0m-612.43-5.692c3.647-16.766-6.05 13.457 0 0m605.987.652c-.152-35.737-82.292-70.512-25.443-21.001 6.225 8.282 12.84 22.381 25.443 21m80-5.742c-3.72-9.904-5.626 7.388 0 0m-752.947-9.718c10.425-28.512 48.646-111.66 7.862-43.958-2.335 9.254-19.186 44.291-7.862 43.958m-14.575-69.507c20.73-41.534 62.563-117.915 72.885-136.092-48.392 62.855-82.581 136.28-101.335 213.269 9.576-25.69 17.567-51.983 28.45-77.177m110.959 47.305c38.2-45.126 66.901-97.854 106.222-142.45-47.478 50.39-111.03 97.134-122.127 170.102 6.279-8.662 9.266-19.214 15.905-27.652m-70.812 2.546c-18.867 20.53-15.563 32.566 0 0m-8.517 4.406c20.479-19.156 18.098-69.147 1.907-19.905-7.074 11.486-18.534 55.617-1.907 19.905m744.892 16.88c-13.615-25.217-48.004-108.81-52.965-90.926 17.24 29.792 9.65 83.27 52.965 90.926m-74.74-10.134c-31.486-41.363-11.511-40.748 8.301-6.438-16.61-52.014-62.398-82.546-99.155-119.494-44.224-37.995-98.724-67.887-158.039-70.62 73.735 49.435 156.168 91.47 215.35 159.803 3.542 4.203 42.02 64.398 33.544 36.749m-77.282-1.346c-20.59-24.194-87.455-74.532-32.343-24.179 5.539 3.286 35.642 35.79 32.343 24.179m24.022.542c-9.646-21.447-90.121-79.392-41.206-31.604 13.394 10.919 25.561 23.782 41.206 31.604m-566.95-24.693c1.683-24.903-16.365 40.905 0 0m7.92 15.25-1.62 2.605zm738.088-26.339c2.556-100.894-56.07-192.368-136.45-249.286-64.93-52.065-144.966-93.97-229.704-94.084-41.666-13.708-113.552 55.213-61.655 74.338 54.366-21.12 113.485-4.64 168.831 7.478 24.539 2.37-52.625-27.202-73.054-27.768-29.928-13.176-127.938 16.647-63.403-29.94 62.36 12.16 130.388 8.892 187.025 45.715 56.28 22.254 115.04 51.94 133.318 115.887 31.582 57.439 53.773 119.162 74.674 180.95 3.779-7.26-.795-15.779.418-23.29m-696.496 12.34c52.222-71.363 117.236-132.112 184.529-189.002-88.45 19.9-133.296 107.003-180.348 175.89-2.805 3.916-15.04 29.525-4.18 13.112m-36.562-10.19-5.438 10.762zm575.472 11.94c-43.824-62.209-121.93-82.302-185.086-118.636 39.441 48.058 131.596 55.927 177.443 113.22zm-602.948-23.75c26.917-21.025 41.82-78.245 7.472-23.762-12.869 15.826-35.522 67.264-7.472 23.762m707.617 4.892c-3.677-33.616-31.791-112.51-20.38-33.819.475 7.227 28.833 76.43 20.38 33.819m-701.18 9.773c2.573-8.3-11.024 13.738 0 0m-53.348-13.314c14.148-23.214 23.146-57.334 1.695-15.412-7.015 9.189-22.767 40.756-1.695 15.412m59.348-2.39c-7.936-2.036-10.567 28.298 0 0m8.085 3.982c19.964-27.69-23.835 26.231 0 0m27.287-4.266c29.581-46.527 107.885-111.926 122.596-132.659-45.184 34.138-87.474 74.49-120.803 120.097-5.285 6.798-20.697 37.523-1.793 12.562m-38.622-29.682c20.303-19.585 32.26-65.887-.848-22.22-20.723 18.994-34.092 79.71.848 22.22m548.739 30.646c-17.766-25.103-97.978-56.386-31.296-18.882 10.039 6.886 19.873 14.354 31.296 18.882m-531.7-7.568c3.733-24.755-18.278 23.359 0 0m-30.577-37.573c10.73-24.349 78.246-98.299 11.943-54.58-21.174 19.146-68.148 142.24-11.943 54.58m505.213 24.18c-16.52-18.795-39.628-21.973 0 0m-459.663-13.343c11.751-26.974 80.98-103.738 28.307-47.05-7.901 2.301-57.305 82.528-28.307 47.05m11.693-1.337c4.395-11.962-16.796 27.198 0 0m624.133-16.385c10.956-57.58-62.73-84.306-71.68-138.413-31.74-37.508 29.37 65.32-15.375 6.358-52.486-65.528-148.896-80.473-227.786-66.809-44.668 3.727 62.802-17.292 2.617-10.04-49.808-25.364-67.665 66.976-9.282 43.917 65.947-11.352 126.965 17.514 179.589 54.249 51.345 30.436 114.666 76.485 142.615 117.267l-.37-3.469zm-617.393 2.385c13.432-15.252 47.094-68.596 12.56-26.433-2.346 1.233-32.733 51.19-12.56 26.433m-42.592-16.753c5.026-18.545 79.151-86.914 28.193-46.208-9.219 4.518-61.041 95.065-28.193 46.208m63.967 9.253c32.023-34.172-34.728 35.512 0 0m-7.907-.75c40.506-52.063-26.199 27.843-3.478 4.54zm-30.496 6c3.162-4.586-7.09 6.406 0 0m19.761-27.153c10.963-22.282 46.521-59.747 5.17-25.307-25.903 16.666-39.046 72.378-5.17 25.307m656.935 15.827c-5.14-8.056 2.405 9.666 0 0m-601.312-38.535c25.172-19 62.07-62.184 12.666-22.739-20.082 20.438-68.75 83.619-20.65 31.744zm-20.512 29.11c10.484-12.294-13.411 13.045 0 0m471.084-3.87c-36.345-35.346-84.3-66.438-133.488-73.947 48.879 15.465 91.252 45.527 133.488 73.947m132.467-15.957c-25.039-56.645-10.154 29.296 7.142 13.69l-2.357-5.782zm-604.997 3.552c32.599-27.999 17.77-36.881-3.77-2.317-15.744 16.473-4.046 13.002 3.77 2.317m-48.034-.224c14.129-22.153 48.098-61.805 8.834-19.207-3.143 2.27-29.776 41.134-8.834 19.207m94.894-25.345c-1.774-5.493-46.168 46.36-5.357 5.19zm534.214.046c8.15-38.264-79.338-73.182-31.073-20.532 4.935 6.068 44.327 55.338 31.073 20.532m-581.795.61c25.292-19.229 51.18-52.806 9.92-15.192-12.215 9.64-41.935 41.086-9.92 15.191m2.167 9.189c10.484-12.295-13.411 13.044 0 0m-94-3.088c20.319-17.898 24.791-58.268-5.18-20.901-6.634 5.963-13.089 30.19 5.18 20.901m59.971-.373c3.46-5.349-7.676 4.8 0 0m350.029.505c-15.252-14.406-96.41-70.254-79.546-41.293 24.912 16.647 52.262 29.12 79.546 41.293m-396.932-3.156c27.773 6.683 35.44-81.173 11.694-31.683-2.732 7.228-22.736 25.429-11.694 31.683m59.83-2.337c36.017-18.877 31.322-28.554-1.349-2.755l-5.266 5.269zm54.23 1.199c3.162-4.586-7.09 6.406 0 0m-13.408-8.078c23.845-23.025-25.294 17.945 0 0m5.082-10.112c7.509-15.667-38.98 32.014-2.204 1.664zm-76.012 8.031c7.299-19.49 49.365-52.85 60.997-59.74-3.329 11.302 70.282-54.542 67.334-45.229 57.815-46.61-65.362 12.43-80.795 31.886-19.618 9.521-45.597 58.7-44.11 35.038-4.086 5.991-14.428 37.81-3.426 38.045m69.71-37.434c-29.054 15.618-46.386 51.082-10.542 10.274l5.27-5.139zm233.344 33.853c-14.574-16.894-26.867-4.162 0 0M319.18 468.074c25.594-21.835-38.213 22.82 0 0m34.394-2.665c26.377-14.688 83.596-76.67 25.24-31.849-7.566 4.898-66.07 57.961-25.24 31.85m46.685 8.52c3.162-4.586-7.09 6.406 0 0m-72.565-6.5c8.965-10.02-10.987 10.961 0 0m73.914-7.95c-16.918 4.774-23.575 18.257 0 0m6.086 7.95c8.965-10.02-10.987 10.961 0 0m2.565.5c3.162-4.586-7.09 6.406 0 0m29.016-16.567c3.915-19.189-42.646 35.867-2.474 1.987zm-121.556 4.605c23.554-26.265-36.054 30.461 0 0m11.5.167c35.58-34.766 110.34-80.544 129.006-98.333-50.904 18.914-87.806 63.432-132.92 92.722-26.42 12.578 1.864 12.79 3.914 5.611m53.774 5.321c25.967-9.994 41.774-47.023 5.765-11.091-.255.345-27.447 17.284-5.765 11.091m41.638-11.015c-17.81 12.205-10.523 10.007 0 0m-162.384 7.37c31.744-11.585 76.29-82.106 21.898-25.877-3.038 5.893-30.79 21.308-21.898 25.878M420.6 444.683c47.615-31.732 146.784-33.64 124.056-116.393-1.952-31.803-57.438-18.266-12.485-9.637-48.2-2.272-120.306 1.716-145.05 36.422 24.042-8.18 73.846-34.71 90.004-23.563-30.69 5.021-81.252 16.337-21.243 21.184 31.859-6.153 111.893-16.986 40.355-1.551-50.801 44.786 83.958-5.75 7.325 23.425-20.292 8.363-50.245 25.586-30.577 35.8-26.418 30.869 5.998-21.242-31.174 5.456-11.732 5.366-67.867 52.86-21.211 28.857m64.47-7.851c-39.853 1.275-55.506 28.745 0 0m-96.44 7.638c24.664-9.7 101.42-76.235 38.118-37.762-8.573 4.963-61.434 53.133-38.118 37.762m248.207 2.85c85.124 9.99-99.661-35.48-22.683.211 6.91 3.863 16.025 4.316 22.683-.212M276.34 432.494c18.685-31.9 88.798-51.189 85.889-74.91-33.904 2.347-94.66 72.607-85.89 74.91m169.919 15.434c2.796-4.87-5.983 7.208 0 0m-80.128-9.606c18.007-12.682 77.785-62.078 28.848-26.43-4.81 2.695-63.672 50.897-28.848 26.43m543.971 2.222c-3.036-39.459-89.481-70.22-26.035-21.265 4.783 1.237 26.239 35.581 26.035 21.265M293.18 440.1c25.721-17.789 75.16-87.005 29.95-36.87-2.414 7.25-43.47 39.299-29.95 36.87m264.952.246c-1.805-7.02-5.15 5.775 0 0m139.69-3.26c-21.032-18.934-108.816-26.134-90.14-16.627 30.536 2.499 60.212 10.583 90.14 16.628m-27.69 1.094c-18.29-7.786 5.382 5.427 0 0m-117 .059c-1.838-3.793-2.98 2.218 0 0m-95.357-4.152c49.425-18.173-19.934-.78-.996.187zM306.131 408.85c-31.184 21.804-32.167 33.109 0 0m63.109 19.806c21.779-16.217 35.164-33.795 2.982-6.169-.882-.393-18.387 17.98-2.982 6.17m119.488-.477c57.03-8.561-29.84-4.958-7.046 1.186zm-151.597-18.315c20.512-16.868 77.98-49.966 76.802-55.505-30.786-6.817-122.796 91.44-94.421 67.417 5.991-3.799 11.556-8.222 17.619-11.912m83.5-6.429c28.153-12.553 29.265-34.137-.19-6.035-27.413 20.765-30.428 26.375.19 6.035M555.994 414.6c6.297-38.427-15.553-6.79 0 0m-13.535 1.329c4.972-45.096-81.73 16.498-10.733.452zM408.63 399.863c29.088-24.119-38.225 27.534 0 0m43.516 5.987c28.839-9.274 41.96-41.685 7.336-11.172 1.039-.727-27.41 24.218-7.336 11.172m-84.398-32.223c45.992-40.148-68.778 51.352-5.396 4.247l2.741-2.157zm517.844 20.302c-14.42-21.855-37.42-22.384 0 0M476.322 372.99c15.122-38.545-59.28 46.4-11.402 9.252l6.94-4.773zM309.13 388.18c10.484-12.295-13.411 13.044 0 0m151-9.854c-13.3 2.256-19.09 18.294 0 0m-142.437 2.104c8.965-10.02-10.987 10.961 0 0m117.296.321c35.643-21.853 11.147-2.32-1.532.483zm412.126-2.28c-10.547-20.167-8.176 9.196 0 0m-15.985.643c-16.022-34.216-55.243-27.193-8.973-4.743l4.19 3.035zm-506.5-4.434c4.774-7.133-7.615 7.836 0 0m129.874-.953c14.96-9.836-11.405 2.442 0 0m-59.68-30.297c66.487-36.319-70.231 17.792-6.457 4.53zm369.127.944c-19.926-19.975-8.593.715 0 0m-11.821-19.53c-29.31-20.028.083 7.067 0 0m-55.5-9.134c-43.087-16.699-7.699 8.28 0 0m-36-1.596c-48.567-8.193-23.466 8.366 0 0m-31-6.444c22.927-10.797-60.184 2.025 0 0" style="fill:#000" transform="translate(-102.39 -263.816)"/><path d="M553.79 1286.851c-21.78-36.26-33.01-65.226-68.078-19.655-49.42-19.312-93.366-51.713-127.295-93.043-42.125-44.229-36.794-109.117-65.746-160.108-9.804-20.585-18.726-59.143-1.613-16.277 3.777 25.274 50.98 86.572 25.413 27.953-35.638-46.006-26.025-74.704-41.478-121.564 27.722 36.346 42.456 101.8 91.169 109.868-12.502-15.345-70.298-65.956-19.222-34.918 45.875 15.978-39.154-34.451-38.223-58.74-13.032-17.456-53.012-110.394-19.913-50.23 15.019 29.399 44.772 74.472 72.865 74.824-34.96-30.905-81.649-86.834-83.407-124.73 8.219 14.43 57.88 92.156 56.037 52.49-31.46-11.581-53.343-102.128-44.462-81.32-14.862 6.425 8.617-29.432 21.535-2.534 27.684-3.298 18 57.508 32.944 8.38 24.856 3.061 14.812 52.7 27.558 9.973 31.178-28.702 46.292 52.931 38.97 2.042 7.544-10.034 64.048-26.874 44.904 10.871-33.531 7.063-41.089 16.997-2.176 7.658-45.856 42.328 37.083-23.672-1.017 20.447-12.595 17.937 52.194-38.172 14.099-34.383-28.877-51.855 52.771 8.272 30.13-44.202-7.883-31.5-122.103-49.453-46.248-59.105 22.488 5.29 60.662 60.478 28.77 8.207-17.377-26.838-103.373-38.972-109.215-27.365 40.548.634-89.614 24.289-16.053 10.448-18.227 25.027-49.599 20.71-20.085 34.918 8.067 56.476-48.158-27.498-23.7 22.253-15.097 45.41-24.943-32.482-4.16-50.544C347.632 596.232 429.85 498.998 531.521 436.28c22.023 10.646 31.924 55.9 78.893 59.099 66.017 17.706 100.4 81.512 145.87 126.842 35.947 29.976 75.486 63.705 114.65 85-28.376-31.824 31.722-.95 10.184-37.728 39.921 25.964 17.043 80.057 10.828 128.86-7.434 19.026-16.845 102.889-.898 39.872 3.757-26.299 20.405-111.47 17.272-40.565-7.595 48.325-23.432 90.935-32.075 148.071-.394 27.118 19.349-51.276 5.277 9.972-17.35 55.022-38.615 110.21-67.045 160.646-17.206 21.309-46.119 71.7-46.021 72.04 35.523-45.49 60.553-77.863 76.55-118.37-.608-35.088 68.784-96.766 44.486-26.175-10.258 27.905-20.853 120.694-17.606 45.74 7.02-30.065-8.167-80.735-11.628-20.892-9.25 53.254-41.841 96.103-36.86 155.018-.977 26.58-2.87 69.017-6.252 15.813 5.59-27.492-7.92-93.59-35.13-39.278-58.703 66.36.625-27.309-7.345-11.622-18.814 18.016-57.387 63.038-65.521 58.297 14.938-24.398-54.29 26.316-31.814 18.004-39.54 12.003-82.874 19.835-123.547 21.927m82.778-35.652c9.243-66.23-160.815-19.263-64.92-29.088 25.67-3.591 56 11.573 64.92 29.089m21.034-52.267c65.982-22.653 60.596-104.388 90.758-155.762 15.633-29.014 45.311-93.565 73.355-67.644-13.537-24.684-74.587-75.31-32.445-18.048-1.226 59.937-101.013 37.688-142.197 63.742-61.69 23.285-108.539-34.387-168.097-36.31-46.244 4.96-75.156-6.18-81.091 3.397-17.702 26.89-39.49 55.221-2.177 17.47 69.276 17.498 52.441 116.937 97.384 161.484 42.612 43.066 110.004 34.404 164.51 31.671m161.156-72.364c12.33-23.005 3.536.882-5.883 8.518zM572.03 965.75c28.514-25.112 40.281-46.09 58.383-16.934 67.932 8.69 42.02-106.247-17.731-89.34-26.67-30.822-2.23-94.344 12.427-137.193-.267-34.382-38.923 54.723-34.596 77.055-18.876 44.421 10.017 71.496 42.513 84.974 14.529 24.778 31.321 49.343 29.276 49.78-29.569 30.146-24.408-52.089-60.696-13.234-21.041 44.551-49.05 37.907-73.861 3.24-29.113-25.58-38.564 59.244-41.814 1.65-26.301-49.83 68.702-40.048 42.01-99.464 8.674-31.848 5.956-124.019-17.726-115.34 11.423 46.644 5.919 88.352 4.31 119.774-16.67 16.073 19.023-1.603-8.288 25.352-18.772 26.165-18.16-3.663-35.536 38.348-24.654 53.028 18.901 72.1 55.06 51.12 14.967 8.06 26.106 30.897 46.27 20.212m30.347-18.563c-11.34 7.237.742 3.917 0 0m-46.41-86.188c59.604-1.867-11.077-26.859-7.813 3.34zm105.095-14.34c8.644-32.465 79.918 3.986 41.82-18.802 48.198 16.198-4.027-40.485 41.972-29.029-20.949 46.764 33.26-48.579 34.602 9.525-2.78-47.451 42.809 1.478 30.322-38.948 25.298-10.816 41.133 22.054 44.479-4.501 12.316-12.323 42.42-17.202-.82-12.718-37.34 8.712-35.71-12.945-7.29-27.184-24.91 15.697-64.311 28.241-26.408-9.828-38.885 42.68-61.87.062-22.448-9.49-27.966-32.87-131.626-8.247-116.636-4.206-8.081 15.539-47.084 54.259-8.971 22.907-8.973 30.534 33.22-37.592 22.713-.979 15.594-32.252 44.365-18.778 8.302 2.204-32.391 18.104-75.346 37.265-76.224 79.363 21.217-26.632 61.354-8.763 52.485-3.77 27.623-24.126 50.684 38.905 3.809 14.153-21.516-27.273-34.356 52.562-21.707 31.303m-261.194-14.538c-2.163-43.856-32.409-2.656 0 0m39.123-12.368c4.993-28.427-21.182-3.584 0 0m178.164-111.507c-4.016-3.986-4.619 6.2 0 0" style="fill:#ffd5d5;stroke-width:.89881" transform="translate(-102.39 -263.816)"/><path d="M668.837 1501.119c-91.799-23.169-187.531-15.792-280.676-14.02-9.612-48.892 104.957 11.343 48.54-16.785-45.794-29.807 29.966-111.129 24.68-49.732-60.014-23.938 75.537 54.453 22.484 3.222-32.071-18.55-52.176-93.904-10.683-37.704 65.912 37.168-67.704-75.833-5.44-35.644 28.12 20.236 56.36 27.636 10.517-.305-25.702-15.868-48.977-88.53-5.805-36.531 25.34 23.179 51.954 21.619 10.459-1.838-18.974-8.46-53.56-68.383-11.365-38.918-17.291 15.895 48.683-10.097 25.53 31.959 15.48-15.79 100.616.857 141.926-23.41 78.476-42.237 38.504 79.224 64.583 121.536 3.482 40.37 84.373 102.708-.138 93.86-11.572 1.473-22.615 8.625-34.612 4.31m-198.76-34.597c-21.107-11.666 40.234-3.483-5.394-17.911-17.868-22.16-40.52-30.968-14.35 2.348 23.387 31.023-38.629-52.302-15.34 2.079 6.658 12.784 21.688 17.748 35.084 13.484M234.106 1014.219c-24.797-29.297-18.436-114.381 21.445-64.263 8.897 17.34 11.064 74.387-21.445 64.263M243.49 869.214c-24.494-20.6-7.207-127.345 5.06-57.765-5.83 16.838 13.522 50.409-5.06 57.765" style="fill:#ffd5d5;stroke-width:.89881" transform="translate(-102.39 -263.816)"/><path d="M229.477 907.075c3.372-58.602-68.211-119.135-21.895-173.418 72.75-4.882-6.302 80.143 22.363 119.403 1.602 15.885 7.21 42.36-.468 54.015M244.15 937.366c-27.376-37.862 16.854-47.198 13.867-5.204-1.814 6.041-9.018 8.11-13.868 5.204M348.705 744.192c-57.165-45.013 128.874-62.642 51.025-9.326-15.258-18.682-5.351-38.701-15.296-.43-18.057 26.268-12.948-46.82-21.674 1.854-2.89 2.651-8.015 17.96-14.055 7.902M724.175 718.774c-3.857-29.968 53.329-9.27 3.901 2.61z" style="fill:#ffd5d5;stroke-width:.89881" transform="translate(-102.39 -263.816)"/><path d="M755.975 724.08c-36.757-18.387 60.027-22.554 6.338.647zM907.975 995.577c-48.544-30.024 4.767-99.433 10.282-142.967 5.545-39.938 28.782-89.771-.816-124.375-28.212-40.872 38.483-75.14 30.553-17.722-.418 65.671-25.241 128.836-21.582 195.1-3.334 24.193-.504 84.132-18.437 89.964" style="fill:#ffd5d5;stroke-width:.89881" transform="translate(-102.39 -263.816)"/><path d="M901.21 886.824c11.196-31.947 16.285-154.18 21.307-132.67 5.618 42.342-10.86 101.672-21.306 132.67" style="fill:#ffd5d5;stroke-width:.89881" transform="translate(-102.39 -263.816)"/><path d="M619.402 1049.983c-64.23-6.992-118.221-47.864-181.56-57.795 49.94-6.313 98.49 13.473 139.985 37.872 58.964 9.396 114.562-18.198 171.482-28.088-42.54 15.603-83.314 49.773-129.907 48.01" style="fill:red;stroke-width:.89881" transform="translate(-102.39 -263.816)"/><path d="M634.233 1154.593c-50.01-12.325-118.725.124-155.878-27.919-8.179-32.197-50.436-111.313 5.552-77.643 25.031 22.001 59.093-52.014 60.008 9.438-17.207 26.008-48.057 69.05 7.862 58.84 34.61 17.64 48.375-14.208 55.178-40.365-11.066 76.428 116.977 58.244 73.487-14.583 4.314-18.976 54.232-4.011 43.717-41.064 21.607-17.429 52.236-23.772 23.658 10.591-19.159 39.3-32.497 81.004-46.623 122.277-22.326-.305-44.66 1.055-66.961.428" style="fill:#000;stroke-width:.89881" transform="translate(-102.39 -263.816)"/><path d="M462.214 1035.066c-48.874-42.305 59.643-24.863 0 0" style="fill:#fff;stroke-width:.89881" transform="translate(-102.39 -263.816)"/><path d="M494.917 1044.956c-44.856-21.917 42.22-37.085 10.795 2.386zM441.481 1027.429c-26.783-18.94-19.88-44.22 8.146-17.988 1.793 1.982-7.408 29.847-8.146 17.988" style="fill:#fff;stroke-width:.89881" transform="translate(-102.39 -263.816)"/><path d="M559.182 1110.521c-58.535 18.408-18.586-51.15 1.688-66.2 44.966-16.588 49.176 64.193 17.637 67l-10.311-.291z" style="fill:#ff0;stroke-width:.89881" transform="translate(-102.39 -263.816)"/><path d="M639.176 1120.749c-29.188-8.448-43.447-81.99 11.16-67.602 41.315-22.753 35.15 92.537-11.16 67.602M691.696 1043.75c-.17-35.737 43.203 12.278.255.561zM585.248 1193.619c-34.592 11.504-133.8-50.15-53.928-47.253 24.537 10.94 8.255 45.66 25.854 6.404 38.277-2.58 6.002 56.736 34.18 8.43 36.749-18.768 18.75 57.047 36.283 2.075 27.19-20.024 25.683 38.921 40.979-.494 14.83 34.541 26.917-21.324 13.51 20.851-25.286 19.21-66.862 5.443-96.878 9.987" style="fill:#fff;stroke-width:.89881" transform="translate(-102.39 -263.816)"/><path d="M402.26 450.094c12.946-21.883 68.987-54.173 60.119-29.9 22.079-17.336-10.738-25.615 30.785-40.196 24.134-8.052 58.845-24.647 9.863-10.995-50.781 10.479 20.134-38.323 26.537-24.138-30.315-9.08-79.906 18.759-104.427-.292 26.63-7.353 96.127-22.103 28.49-14.37-22.46 5.554-102.707 40.845-42.21 7.102 33.907-25.248 89.414-12.743 119.037-20.358-47.37-21.319 43.742 2.98 14.17 41.767-10.025 66.047-99.803 57.567-142.825 92.93z" style="fill:#e3dbdb;stroke-width:.89881" transform="translate(-102.39 -263.816)"/><path d="M271.494 763.809c4.878-38.94 11.792-98.09 29.902-115.422 47.917-80.162 119.084-142.901 188.338-204.004 20.658-14.744 58.432-15.808 16.483 3.848-77.923 54.957-139.15 130.786-189.574 210.392-9.204 18.528-35.46 88.615-17.188 29.82 11.922-23.245 43.564-109.1 11.652-42.505-20.458 36.69-22.442 81.915-39.613 117.87" style="fill:#e3dbdb;stroke-width:.449405" transform="translate(-102.39 -263.816)"/><path d="M306.698 630.52c31.634-58.241 70.21-115.084 119.59-159.74 19.552-20.037 99.64-50.891 40.609-9.596-58.767 51.04-113.902 106.583-160.2 169.337M284.68 612.097c27.13-55.597 77.97-94.596 123.041-135.111 24.34-13.524-55.039 53.408-68.917 72.322-19.917 19.24-34.53 43.756-54.125 62.79M290.012 481.59c-3.498-22.39 8.808-49.053 11.779-31.615 33.507-46.035 86.674-78.559 140.888-93.287-26.904 25.132-87.434 57.92-91.41 65.66-22.643 16.617-45.392 38.806-61.257 59.242M268.226 440.341c24.239-34.29 55.382-78.935 100.937-81.988-28.733 33.03-75.246 45.083-100.937 81.988" style="fill:#e3dbdb;stroke-width:.449405" transform="translate(-102.39 -263.816)"/><path d="M261.122 492.438c-2.013-19.193 44.352-74.104 22.662-22.297 2.683 13.608-7.844 26.94-22.662 22.297" style="fill:#e3dbdb;stroke-width:.449405" transform="translate(-102.39 -263.816)"/><path d="M214.57 590.938c2.122-33.276 48.226-118.53 69.005-92.491-26.514 28.575-40.211 66.513-69.005 92.491M259.51 457.008c16.092-22.166 83.975-77.148 32.371-22.29-9.755 7.672-18.897 21.656-32.37 22.29M289.17 441.074c18.707-26.603 84.924-88.17 32.183-29.658-10.783 9.25-19.58 23.375-32.182 29.658M331.613 407.79c14.857-21.029 81.128-66.038 83.167-50.513-29.78 16.534-107.154 65.775-94.203 61.58l4.943-4.983z" style="fill:#e3dbdb;stroke-width:.449405" transform="translate(-102.39 -263.816)"/><path d="M338.716 473.095c14.329-27.958 105.878-86.112 44.072-31.086-13.042 12.288-28.001 24.159-44.072 31.086" style="fill:#e3dbdb;stroke-width:.158889" transform="translate(-102.39 -263.816)"/><path d="M381.68 448.415c19.37-30.153 77.297-59.277 72.58-52.343-20.285 21.829-48.439 35.545-72.58 52.343M316.601 461.001c34.95-36.103 79.772-62.33 119.022-94.094 65.428-26.982-34.364 26.814-49.987 43.635-24.226 14.542-42.147 41.6-69.035 50.46M375.664 462.172c15.588-20.919 58.96-39.877 14.671-4.97-3.895 1.489-9.566 6.372-14.67 4.97M325.274 501.046c18.927-24.252 78.218-67.09 27.263-20.632-8.476 7.491-17.003 15.65-27.263 20.632M444.87 391.525c13.68-12.133 51.322-48.064 21.615-10.406-7.248 2.286-13.56 9.748-21.615 10.406" style="fill:#e3dbdb;stroke-width:.158889" transform="translate(-102.39 -263.816)"/><path d="M445.076 409.277c16.959-26.553 60.446-37.765 15.571-7.759-5.324 2.327-10.134 5.669-15.57 7.76M395.503 418.384c13.388-18.583 79.276-54.75 27.417-16.163-9.585 4.622-17.64 11.94-27.417 16.163" style="fill:#e3dbdb;stroke-width:.158889" transform="translate(-102.39 -263.816)"/><path d="M354.192 445.843c17.445-19.264 95.816-73.579 38.255-28.122-12.599 9.488-24.387 20.488-38.255 28.122M139.3 798.08c-3.83-79.387 23.235-158.811 54.482-228.88 7.618-2.102 47.116-102.286 44.844-50.457-11.967 36.14-70.277 94.365-47.17 105.79-10.464 16.484-13.475 82.895-27.05 47.86 1.664 42.953-17.932 86.866-25.106 125.687M185.074 758.438c-11.466-27.996 22.647-109.093 4.36-45.642 13.511-29.977 28.943-49.865 58.017-80.541-9.81 49.012-26.804 82.85-57.48 114.506l-3.317 10.218zM201.218 659.163c1.493-22.507 38.536-91.975 19.763-31.213-5.427 10.78-12.944 21.637-19.763 31.213" style="fill:#e3dbdb;stroke-width:.158889" transform="translate(-102.39 -263.816)"/><path d="M191.09 660.912c-10.57-27.5 53.757-113.936 21.514-48.394-8.85 14.74-11.564 35.41-21.514 48.394M234.704 597.419c-8.603-28.998 69.72-100.283 30.616-37.657-11.297 9.966-15.717 34.13-30.616 37.657M230.765 624.51c4.149-28.653 74.183-109.931 29.773-36.6-10.377 11.738-19.453 25.324-29.773 36.6M187.91 616.232c12.018-30.6 42.846-71.814 14.7-16.485-2.632 7.205-8.704 11.934-14.7 16.485M151.908 663.95c19.28-76.84 53.436-150.516 102.71-212.737-39.59 68.043-79.5 137.251-102.71 212.737" style="fill:#e3dbdb;stroke-width:.158889" transform="translate(-102.39 -263.816)"/><path d="M240.762 497.427c-13.411-30.173 54.25-55.489 15.596-11.444-3.42 6.324-6.507 13.965-15.596 11.444M252.008 552.818c6.772-21.859 56.962-88.803 54.298-67.86-22.131 19.677-37.503 44.209-54.298 67.86M264.717 602.364c4.317-21.538 19.35-10.972 0 0M205.454 681.386c9.53-32.477 68.103-111.576 66.29-104.757-22.454 34.66-43.064 70.725-66.29 104.757" style="fill:#e3dbdb;stroke-width:.158889" transform="translate(-102.39 -263.816)"/><path d="M275.297 662.095c12.318-71.318 74.075-117.155 120.827-166.73-41.98 49.695-76.77 104.96-115.006 157.035ZM287.972 546.544c-11.071-27.515 75.645-89.204 31.341-39.527-5.606 16.033-19.793 27.712-31.34 39.527M162.314 853.972c-28.744-15.113 22.02-141.731 5.171-66.526 19.848-18.557 18.828 75.101-5.171 66.526M186.93 1166.407c-.215-42.781 10.2-102.716-4.566-135.136-4.07 36.656-9.556 78.324-11.728 112.52-27.828-59.829-22.751-127.48-27.738-191.638 13.297 32.81 3.242 106.95 22.607 115.797 1.607-58.026-10.517-124.159 2.766-177.117 33.308 42.353.494 114.574 48.431 134.76 57.376 26.501 41.48 91.885 45.093 143.743-36.29 33.212-16.394-90.691-51.452-64.705-6 19.296 2.283 93.446-23.412 61.773zM155.144 916.984c-6.588-20.075-2.942-91.225 6.051-34.902-3.927 9.678-2.127 28.453-6.051 34.902" style="fill:#e3dbdb;stroke-width:.449405" transform="translate(-102.39 -263.816)"/><path d="M181.903 899.237c-20.453-30.98.738-67.675.544-13.101l.62 13.75zM189.629 846.492c-6.386-29.21-1.3-62.003 7.114-14.15.33 3.756.287 18.58-7.114 14.15M227.877 708.585c16.517-25.689 28.455-74.687 16.923-13.643 1.307 12.02-7.312 14.308-16.923 13.643M160.934 761.156c.551-32.103 18.485-72.937 5.495-20.374-1.381 4.191-6.208 30.957-5.495 20.374M355.848 1394.696c-11.199-56.394 8.668-113.744-.28-169.746-10.057 37.662-4.877 117.23-33.658 165.07 3.303-17.862-12.022-62.478-7.157-90.549 9.59-74.8-30.35 108.67-30.425 24.96 17.667-41.938-25.968-147.237 7.154-153.559-1.215 20.29 28.598 109.465 16.746 44.04 2.98-36.357-17.203-62.266-31.04-69.457-13.754-25.023-15.192-125.742 4.086-46.453 12.454 28.009-20.215-8.306.265 28.13 20.576 52.504 75.597 45.367 102.967 104.654 8.653 56.392-8.305 110.248-27.528 162.01l-.613 2.922zm-32.74-27.454c15.714-30.35 11.542-73.091 14.22-102.209-14.544 29.636-9.362 76.487-14.22 102.21M235.757 1332.565c-8.105-42.919-14.819-131.072 1.156-152.572.363 46.583 38.8 127.17-1.156 152.572M214.763 1315.508c-19.42-27.446-7.594-73.435-3.464-96.08.858 26.525 19.13 78.08 3.464 96.08M195.188 1257.29c-21.531-20.314-4.632-121.52 10.07-66.368-3.624 20.124 2.719 52.448-10.07 66.368M174.022 1225.982c-15.322-30.076-21.989-134.039-4.985-49.512 1.272 11.777 11.63 50.337 4.985 49.512M142.115 1082.466c-15.519-23.378-7.54-129.05-2.03-46.818.068 7.413 9.144 69.694 2.03 46.818M182.892 1336.931c3.292-17.12-8.256-112.156 9.54-52.115 4.816 17.453-4.922 40.071-9.54 52.115M204.78 1375.328c-1.195-24.554-3.917-91.326 8.99-31.03-.033 21.69-13.248 94.605-8.99 31.03" style="fill:#e3dbdb;stroke-width:.449405" transform="translate(-102.39 -263.816)"/><path d="M260.732 1362.254c-3.444-30.246-14.677-64.832 8.534-57.078-2.133-29.134-2.053-121.263 6.206-46.068.94 33.33 5.14 77.461-14.74 103.146M274.52 1423.386c-19.08-32.53 8.871-101.721 3.472-30.039-2.082 9.384 1.958 21.785-3.472 30.039M282.002 1432.783c-3.677-21.995 9.88-65.438 15.927-81.593-1.917 24.94-9.461 68.51-15.927 81.593M233.8 1379.191c-4.024-42.97 9.876-36.623 0 0M311.844 1102.119c-17.366-19.299-56.506-116.684-17.576-47.54 6.645 11.97 20.294 43.891 17.576 47.54M260.352 1048.174c-35-30.78 25-56.496 0 0" style="fill:#e3dbdb;stroke-width:.449405" transform="translate(-102.39 -263.816)"/><path d="M832.084 1350.373c-3.532-29.912-16.393-31.079-19.491-21.075-3.716-40.097-38.342-25.478-34.63 8.891-2.385-21.774-5.297-55.959-15.107-33.565-5.917-40.042 11.532-101.76 41.617-118.925 11.673 27.362-5.72 100.481 18.941 103.432 28.882-72.225 22.46 34.398 8.67 61.242M709.286 1315.081c-39.288-30.302 41.469-108.616 25.117-37.04-1.03 13.059-8.567 40.605-25.117 37.04M928.501 1311.665c15.85-79.354 38.948-159.233 36.104-240.576-28.542 10.28-33.201 103.062-25.524 27.574 10.288-31.61-.008-67.515-14.37-17.694-21.636 68.006-4.466-20.57 7.372-39.794 6.452-53.582 8.638-107.597 3.456-161.117 26.24 1.408 5.374-90.37 18.039-121.02 2.328-43.866-1.668-53.348 13.244-56.57 1.8-52.45-11.595-113.82-14.699-157.88 32.942 26.276 23.345 73.823 22.743 111.088-9.999 67.767-17.732 136.096-24.801 204.106 21.731 20.731 18.796-96.937 21.88-31.34 3.856 67.64 17.7-125.325 13.304-28.946-3.444 19.775-10.115 110.73-13.301 93.36-2.806-57.23-12.653 49.554-13.05 69.743-6.768 30.097.224 70.25 7.822 15.757 24.16-106.39 28.863-215.643 36.42-324.073 13.486 15.719 7.487 107.03 1.29 149.941-20.227 123.743-31.577 248.448-44.64 373.083-6.646 44.068-15.325 97.797-31.289 134.358" style="fill:#e3dbdb;stroke-width:.89881" transform="translate(-102.39 -263.816)"/><path d="M902.583 1354.35c4.918-29.054-6.31-70.955-18.014-18.18-9.83 20.197 3.73-91.619 3.973-72.637 7.262-64.359 22.294-127.938 45.119-188.555-3.256 78.722-31.964 157.102-20.128 236.105 15.503-71.479 16.302-146.154 38.704-216.33 2.417 83.78-15.508 167.554-42.526 246.458-2.498-8.973-3.886 21.295-7.128 13.138M839.145 1373.867c-7.367-40.118 22.811-75.827 17.472-115.98 1.468-68.531 23.553-134.744 38.993-201.034 11.68-10.63-14.03 66.822-18.216 89.99-19.304 74.332-1.835 158.192-38.249 227.024M912.459 681.624c-14.974-59.216-48.706-114.97-90.136-159.475-22.817-19.98-56.422-47.518-13.309-15.682 22.156 16.259 86.015 75.864 39.106 17.367-70.904-47.95-142.199-114.333-232.94-114.049-25.326 15.61-75.294-1.73-30.973-18.416 73.754-2.727 137.884 37.247 195.447 78.71-13.11-36.089-89.48-59.654-95.879-70.516 63.02 22.959 117.23 64.628 171.762 102.523 38.379 42.669 50.149 103.909 62.152 157.53 28.59-.18 9.995 11.628-5.23 22.008" style="fill:#e3dbdb;stroke-width:.89881" transform="translate(-102.39 -263.816)"/><path d="M915.388 548.097c-46.98-62.359-120.357-97.17-185.027-138.06-46.945-31.81-104.883-24.997-158.294-21.86-35.538-39.44 39.85-56.294 51.973-44.453-69.966 20.605 33.55-.227 55.594 5.364 64.569 4.958 132.283 29.354 169.062 85.765 22.496 16.924-28.551-61.784 7.063-15.097 8.497 49.472 87.83 90.717 65.342 136.134zM878.106 653.574c-38.929-62.045-98.773-106.135-159.57-145.486-12.412-16.02-99.918-49.415-71.129-52.356 89.63 10.885 156.79 78.584 215.633 140.407 17.998 22.864 35.508 67.62 6.617 20.446-28.837-20.598 30.269 59.243 8.45 36.989" style="fill:#e3dbdb;stroke-width:.89881" transform="translate(-102.39 -263.816)"/><path d="M835.957 617.229c-40.835-45.62-100.391-58.198-149.63-88.187-61.555-47.233 65.668 27.975 87.777 36.7 12.004-2.29 94.51 71.191 61.853 51.487M918.852 496.82c-25.25-15.392-64.381-86.67-10.433-39.953 6.08 2.238 29.661 55.658 10.433 39.952" style="fill:#e3dbdb;stroke-width:.89881" transform="translate(-102.39 -263.816)"/><path d="M1004.707 631.64c-25.287-79.81-57.405-158.666-102.742-229.16-40.698-47.402-107.466-57.709-159.948-88.812-50.47 2.566-125.687-47.137-156.14 8.958 41.47-8.379 144.4 7.5 160.93 28.727-57.058-12.369-118.207-28.44-174.647-5.866-38.34-51.242 52.313-85.826 97.102-73.995 103.45 15.582 194.96 77.44 265.37 152.704 53.928 56.163 74.67 135.487 72.371 211.714z" style="fill:#e3dbdb;stroke-width:.89881" transform="translate(-102.39 -263.816)"/><path d="M953.075 620.438c-20.696-15.394-29.618-128.062-10.349-56.945 2.345 15.785 15.258 48.01 10.35 56.945M946.25 657.35c-27.89-9.98-39.988-87.376-37.914-86.17 11.727 20.16 50.751 78.027 37.915 86.17" style="fill:#e3dbdb;stroke-width:.89881" transform="translate(-102.39 -263.816)"/><path d="M751.322 1293.823c-16.374-19.867 10.654-101.097 16.288-58.169-6.718 18.674-11.965 41.45-16.288 58.17M786.01 1422.198c-33.236-24.547 12.193-82.566 3.272-107.425 2.236 32.502 17.688 84.186-3.273 107.425M831.266 1442.208c-29.549-25.258 1.968-87.024 6.498-21.346 10.042-8.857 10.806-82.99 11.939-22.303-3.167 12.56-.841 43.392-18.437 43.649" style="fill:#e3dbdb;stroke-width:.449405" transform="translate(-102.39 -263.816)"/><path d="M816.404 1389.593c-7.45-22.767 4.143-74.473 10.403-23 3.806 10 1.282 23.606-10.403 23M896.076 1420.492c-25.743-22.573 3.325-140.873-2.172-60.853-4.67 36.2 11.529 36.415 2.172 60.853M870.989 1314.077c1.533-55.295 13.913-111.26 19.675-166.91.738-28.396 34.905-136.6 17.855-50.951-12.22 73.31-28.915 145.98-35.68 220.108zM923.074 1041.626c2.157-16.808-21.044 21.673-5.577-13.286 7.746-31.383 14.436-53.483 9.236-8.654-.007 2.112-4.964 43.13-3.659 21.94M711.247 1316.156c-42.263-28.785 38.09-110.603 22.685-37.242-1.235 13.427-7.236 34.886-22.685 37.242M757.878 1362.051c-9.098-20.198-4.958-67.272 5.045-19.886-.828.399-2.06 24.757-5.045 19.886M731.096 1351.964c-14.007-61.501 12.578-31.666 0 0M728.41 1414.165c-7.524-27.484-5.561-83.907 2.292-25.934-.446 8.655.161 17.5-2.291 25.934M862.065 673.766c-18.063-12.142-66.447-70.394-19.448-35.278 5.069 3.266 36.33 33.977 19.448 35.278M908.98 444.247c-17.243-15.008-80.638-77.782-24.518-39.61 10.6 9.316 27.983 25.349 24.518 39.61M797.785 515.327c-31.514-25.168-85.87-50.403-112.688-62.701 45.389 10.305 98.723 42.821 124.23 70.422zM644.386 488.849c-21.862-5.158-110.2-61.834-44.698-34.8 7.92 5.042 78.817 51.177 44.698 34.8M620.416 449.528c-88.973-35.25 100.029 4.84 14.835-1.584l-7.299 2.12zM299.917 560.458c7.511-26 56.25-73.645 18.83-23.915-6.332 7.783-11.11 17.406-18.83 23.915" style="fill:#e3dbdb;stroke-width:.449405" transform="translate(-102.39 -263.816)"/><path d="M331.375 524.117c12.586-26.704 51.336-51.403 13.912-12.151l-5.847 5.645zM279.668 578.715c6.21-31.679 88.259-111.228 31.502-45.409-12.068 12.98-20.431 35.403-31.502 45.41" style="fill:#e3dbdb;stroke-width:.449405" transform="translate(-102.39 -263.816)"/><path d="M713.74 779.192c51.839-20.712-32.879-34.62-11.063-17.854 19.135-45.473 66.98 10.503 11.063 17.854M417.125 774.656c-3.148-23.925 21.216-8.858 0 0" style="fill:#0ff;stroke-width:.449405" transform="translate(-102.39 -263.816)"/><path d="M410.244 788.007c-34.332-12.915-3.258-65.435-8.465-8.714 28.178 22.006 50.251-53.191 5.56-13.128 19.22-64.258 71.003 36.28 2.905 21.842" style="fill:#0ff;stroke-width:.449405" transform="translate(-102.39 -263.816)"/><path d="M555.38 729.371c-42.267-12.71-89.121-12.315-126.806-38.02-49.707-25.712-96.246-58.134-135.974-97.442-11.271-36.293 42.919-37.373 51.497-6.724 48.13 44.253 109.445 74.657 174.036 84.902 37.213 3.919 76.733 5.267 112.395-7.098 15.461-10.465 48.801-35.995 43.807-47.212-27.427-21.708-22.552-63.989-35.952-93.83-.775-30.979 47.098-17.705 30.61-50.335-6.946-117.529-20.225-235.63-10.48-353.248 2.296-37.7 44.155-36.522 46.232-.306 12.446 45.14 6.832 92.701 9.64 138.927-.241 77.474-2.2 154.985-5.502 232.32-5.062 29.964 49.38 38.036 28.222 72.312 6.158 32.204 1.796 58.5-20.152 82.18-10.467 41.375-52.315 61.254-89.535 73.443-23.479 6.299-47.555 12.22-72.039 10.131M577.12 724c31.487-6.768 29.524-70.264-6.462-41.264-10.642 15.357-44.248 52.2 6.461 41.264m30.597-2.907c36.886 4.129 39.777-78.145 1.812-43.01-11.48 15.078-10.922 39.216-30.06 48.07 9.577-.551 19.045-2.398 28.248-5.06M541.3 717.75c33.513-4.8 16.202-65.676-10.968-32.831-16.847 18.976-25.363 41.345 10.968 32.831m90.53-3.274c35.664 4.71 58.689-56.699 26.85-70.586-25.017 15.082-13.315 53.989-30.955 71.861zm-114.362-13.355c30.233-35.23-45.837-35.617-47.126-2 2.362 15.715 41.839 18.48 47.126 2m-50.36-1.755c42.947-22.535-17.81-53.014-30.45-13.597-1.901 13.213 21.428 14.457 30.45 13.597m213.283-8.51c39.629-2.982 10.097-93.939-8.57-51.308.566 15.685 4.788 54.444 4.29 55.441zM438.7 680.829c39.855-23.469-33.961-48.795-41.922-14.076 8.235 11.591 28.197 16.69 41.921 14.076m270.223-17.367c27.037-13.233-13.409-71.218-10.33-28.02 2.004 4.665-.865 43.989 10.33 28.02m-310.134-1.68c46.714-12.594-32.827-50.65-30.514-10.691 9.277 4.768 19.043 18.486 30.514 10.692m-26.328-24.024c31.466-19.506-36.249-50.93-41.004-16.444 6.602 11.829 28.296 25.202 41.004 16.444m358.306-17.059c22.292-38.04-43.613-31.042-65.218-41.15-23.883 14.607 20.073 47.408 40.07 36.182 8.41 1.321 16.397 6.776 25.148 4.968m-45.447-2.505c-3.44.332-1.1 3.016 0 0m-345.05-6.737c27.635-22.982-52.604-65.033-43.667-26.26 6.125 16.561 24.793 34.754 43.668 26.26m394.083-26.874c6.068-35.885-42.12-46.957-68.286-53.391-40.224 9.83 2.808 51.735 27.194 52.77 13.47 1.12 27.747 3.099 41.092.62m2.545-33.532c-5.022-39.763-66.163-53.451-93.934-39.788-5.098 35.282 42.087 6.452 59.184 28.42 10.911 5.44 22.316 10.986 34.75 11.368m-31.382-40.85c16.99-29.998-48.143-60.95-30.991-16.786 5.676 11.57 19.375 14.952 30.991 16.786m.36-48.7c21.866-32.082-61.701-53.773-33.69-11.159 4.222 13.233 31.654 43.114 33.69 11.159m.203-32.015c18.514-25.67-26.49-63.225-39.893-40.697-1.642 25.836 14.422 43.738 39.893 40.697m2.357-45.424c16.089-29.14-29.646-53.227-45.165-40.047-3.055 23.957 22.071 51.43 45.165 40.047m1.382-64.394c15.928-34.38-73.91-61.234-48.818-9.108 1.526 28.101 59.589 56.985 48.818 9.108m0-52.054c8.187-27.44-43.531-38.267-51.673-37.028-17.596 29.302 45.904 79.558 51.357 41.753zm.149-47.15c17.319-29.427-59.616-60.44-53.235-24.519-1.58 24.307 48.635 66.276 53.235 24.519m-1.312-41.213c15.127-28.405-45.64-73.618-50.365-33.279-5.813 21.821 39.963 56.197 50.365 33.279m-4.86-43.535c11.397-26.36-43.084-61.625-38.542-18.718 8.766 11.805 23.556 20.186 38.543 18.718m195.308 79.907c1.407-4.514 3.38-.246 0 0m-26.672-132c1.407-4.514 3.38-.246 0 0" style="fill:#000;stroke-width:.92757" transform="matrix(1.89722 0 -.0711 1.91606 -482.565 -163.913)"/><path d="M356.68 639.87c-33.78-5.705-23.12-42.09 7.597-31.844 22.467 9.965 23.097 38.91-7.598 31.843M532.116 718.189c-40.218 5.768 3.32-54.753 25.079-39.46 13.597 14.122-8.306 41.356-25.079 39.46M713.641 586.336c-26.478.655-63.226-17.06-63.804-45.865 25.3-19.639 61.448 3.311 80.762 22.025 12.984 14.487 1.114 29.392-16.958 23.84M697.198 386.227c-28.214 6.1-50.917-64.001-13.07-41.846 25.756-2.123 40.043 39.325 13.07 41.846M693.66 185.392c-25.677-2.69-49.909-37.11-25.471-55.674 28.601-7.906 62.881 57.324 25.47 55.674" style="opacity:1;fill:#28170b;fill-opacity:1;stroke-width:.544835" transform="matrix(1.89722 0 -.0711 1.91606 -482.565 -163.913)"/><path d="M419.608 678.816c-52.191-7.01 22.283-53.727 30.36-13.563 4.217 16.897-19.713 21.295-30.36 13.563M626.645 715.02c23.082-15.52 7.143-74.65 39.013-69.19 18.87 31.395-1.888 70.587-39.013 69.19M696.384 285.024c-32.324 9.553-57.565-72.275-19.04-50.647 24.583-.03 55.207 49.412 19.04 50.647M728.265 549.832c-24.247-18.385-67.217-15.245-84.862-29.266 11.214-34.252 67.29-5.52 86.53 10.826 4.697 5.21 13.935 23.564-1.668 18.44" style="opacity:1;fill:#784421;fill-opacity:1;stroke-width:.544835" transform="matrix(1.89722 0 -.0711 1.91606 -482.565 -163.913)"/><path d="M327.258 613.38c-27.546 2.932-46.757-62.8-7.19-39.3 16.662 8.923 48.533 39.428 7.19 39.3M559.903 725.047c-25.633-8.992 15.896-60.19 36.754-46.558 11.866 20.909-13.004 52.588-36.754 46.558M723.261 620.404c-22.737-3.527-75.397-9.246-62.41-38.978 24.962 7.194 63.499 2.157 76.629 25.353 1.33 8-6.148 15.373-14.219 13.625M695.198 474.736c-30.893-7.65-36.664-68.306 2.75-43.754 14.272 6.5 14.072 42.094-2.75 43.754M696.236 135.551c-30.535 7.265-41.28-55.857-8.951-36.179 6.675 6.275 28.998 34.332 8.951 36.18" style="opacity:1;fill:#a05a2c;fill-opacity:1;stroke-width:.544835" transform="matrix(1.89722 0 -.0711 1.91606 -482.565 -163.913)"/><path d="M488.802 710.726c-42.17-1.877 12.737-58.667 32.701-31.441 16.172 16.353-18.244 39.186-32.701 31.44" style="opacity:1;fill:#c87137;fill-opacity:1;stroke-width:.544835" transform="matrix(1.89722 0 -.0711 1.91606 -482.565 -163.913)"/><path d="M488.802 710.726c-42.17-1.877 12.737-58.667 32.701-31.441 16.172 16.353-18.244 39.186-32.701 31.44M386.606 662.765c-42.745-12.5 13.631-48.216 27.184-17.616 1.899 14.152-16.233 19.517-27.184 17.616M694.226 238.28c-30.345 1.47-56.36-72.612-15.06-56.284 26.658 2.061 52.332 53.231 15.06 56.283M696.384 507.173c-30.64 7.36-31.232-58.876.178-31.143 9.109 2.315 16.06 40.031-.178 31.143M672.148 697.297c15.078-20.714-19.67-68.928 18.243-70.906 10.892 24.98 14.398 60.748-18.243 70.906" style="opacity:1;fill:#c87137;fill-opacity:1;stroke-width:.544835" transform="matrix(1.89722 0 -.0711 1.91606 -482.565 -163.913)"/><path d="M454.615 699.498c-41.908-2.987 19.522-56.552 29.372-24.399.274 13.878-15.385 28.441-29.372 24.4M584.612 723.194c14.761-15.138 30.036-76.636 53.966-42.676 1.272 26.149-29.186 49.34-53.966 42.676M703.8 667.447c-9.069-14.881-9.348-71.732 12.076-35.3.985 11.97.032 29.037-12.077 35.3M694.75 428.423c-29.37 6.587-41.958-68.366-5.48-39.86 24.017-3.792 28.665 45.888 5.48 39.86M697.201 345.573c-31.887-3.595-44.39-44.519-33.387-69.076 26.28 8.804 56.969 23.33 46.874 57.167-.721 6.544-5.592 15.093-13.487 11.909" style="opacity:1;fill:#d38d5f;fill-opacity:1;stroke-width:.544835" transform="matrix(1.89722 0 -.0711 1.91606 -482.565 -163.913)"/><path d="M-11.61 268.042c7.067-12.374 41.955-13.625 25.768 4.738-8.8 5.715-15.711 16.044-1.763 4.87 19.914-10.701-.598-31.14-15.658-17.976-3.22 1.956-7.88 4.074-8.346 8.368" style="fill:#000;fill-opacity:1;stroke-width:.264583" transform="matrix(3.58638 0 -.10958 2.95307 146.077 121.93)"/><path d="M-11.025 267.783c.624-3.473-4.386 7.534.75-1.507-7.697 8.483 15.602-14.063 23.805-5.853 17.888 4.028-26.065 32.425-2.825 17.49 17.91-8.868 3.854-27.655-11.917-18.612-9.445 2.657-15.256 16.755-8.253 6.218-1.445-.692-4.36 1.66-1.56 2.264" style="fill:#000;fill-opacity:1;stroke-width:.264583" transform="matrix(3.58638 0 -.10958 2.95307 146.077 121.93)"/><path d="M12.866 257.32c-.745 1.71-1.232 4.332 2.617 1.209.171-3.08-9.384-.377-2.617-1.21" style="fill:#500;fill-opacity:1;stroke-width:.264583" transform="matrix(3.58638 0 -.10958 2.95307 146.077 121.93)"/><path d="M1.054 281.123c-22.77-11.15 8.317-33.647 16.84-15.228-1.988 5.427-11.75 15.805-16.84 15.228" style="fill:#500;fill-opacity:1;stroke-width:.133635" transform="matrix(3.58638 0 -.10958 2.95307 146.077 121.93)"/></svg>
