<?xml version="1.0" encoding="UTF-8" standalone="no"?>
<svg
   xmlns:dc="http://purl.org/dc/elements/1.1/"
   xmlns:cc="http://creativecommons.org/ns#"
   xmlns:rdf="http://www.w3.org/1999/02/22-rdf-syntax-ns#"
   xmlns:svg="http://www.w3.org/2000/svg"
   xmlns="http://www.w3.org/2000/svg"
   xmlns:sodipodi="http://sodipodi.sourceforge.net/DTD/sodipodi-0.dtd"
   xmlns:inkscape="http://www.inkscape.org/namespaces/inkscape"
   version="1.1"
   id="svg70"
   width="927.0069"
   height="1279.3346"
   viewBox="0 0 927.0069 1279.3346"
   sodipodi:docname="villager4knot.svg"
   inkscape:version="1.0 (4035a4fb49, 2020-05-01)">
  <metadata
     id="metadata76">
    <rdf:RDF>
      <cc:Work
         rdf:about="">
        <dc:format>image/svg+xml</dc:format>
        <dc:type
           rdf:resource="http://purl.org/dc/dcmitype/StillImage" />
        <dc:title />
      </cc:Work>
    </rdf:RDF>
  </metadata>
  <defs
     id="defs74" />
  <sodipodi:namedview
     inkscape:guide-bbox="true"
     showguides="true"
     fit-margin-bottom="0"
     fit-margin-right="0"
     fit-margin-left="0"
     fit-margin-top="0"
     inkscape:document-rotation="0"
     pagecolor="#ffffff"
     bordercolor="#666666"
     borderopacity="1"
     objecttolerance="10"
     gridtolerance="10"
     guidetolerance="10"
     inkscape:pageopacity="0"
     inkscape:pageshadow="2"
     inkscape:window-width="1080"
     inkscape:window-height="1826"
     id="namedview72"
     showgrid="false"
     inkscape:pagecheckerboard="true"
     inkscape:zoom="0.55629139"
     inkscape:cx="569.82676"
     inkscape:cy="872.44265"
     inkscape:window-x="-11"
     inkscape:window-y="-11"
     inkscape:window-maximized="1"
     inkscape:current-layer="g78">
    <sodipodi:guide
       id="guide116"
       orientation="1,0"
       position="-158.19048,1043.8465" />
  </sodipodi:namedview>
  <g
     transform="translate(-211.19363,-350.64121)"
     inkscape:groupmode="layer"
     inkscape:label="Image"
     id="g78">
    <path
       d="m 691.3214,1628.667 c -72.49863,-17.507 -148.81123,-19.6274 -222.85224,-14.4674 -27.99954,5.1538 -107.07162,7.2256 -46.79089,-22.3723 16.08117,-24.9165 36.95942,-39.8083 28.47755,-45.0732 30.61253,-47.6627 28.43484,-109.19 12.20937,-161.731 -44.17193,-45.4767 -101.98013,-84.9229 -125.23844,-148.8932 -4.97819,-59.8411 -36.0026,-120.6255 -84.6449,-152.7842 -1.43377,-70.5197 1.64763,-138.07186 -34.44427,-202.41649 -19.65401,-84.96965 2.19798,-170.0674 34.41133,-248.30002 25.77814,-69.36378 85.37619,-115.29675 124.82289,-177.85572 60.27769,-47.22827 127.09139,-95.60093 207.38186,-98.45355 70.37939,-12.72624 145.69644,-3.01809 201.72467,45.13976 59.46623,37.1926 92.81516,98.94225 117.97992,162.03861 15.15078,38.43194 48.08075,81.83332 79.88584,35.10586 85.45341,-13.74142 85.66891,113.02854 28.32221,148.59878 -19.50493,44.90242 17.371,141.03586 -5.5575,141.82153 -10.77778,-16.99915 -10.24831,68.46368 -32.91909,84.07719 -3.18763,52.89785 -5.78404,114.03555 -45.1981,146.61215 -8.94857,70.829 -82.32998,109.1333 -103.42326,175.8286 -35.94103,51.4976 -110.97015,82.7346 -92.98348,157.5987 3.85247,61.4338 24.0028,121.0544 68.30633,164.5805 -26.87718,6.0056 -75.61576,10.5988 -109.4698,10.9454 z m 27.46549,-4.11 c 37.99889,-0.2756 82.73613,-17.7388 37.65941,-52.1587 -41.421,-47.1559 -16.76504,-142.8368 -50.20868,-173.6431 -45.16113,24.2179 -121.26406,36.0671 -167.72861,19.9575 -12.29654,-43.088 -94.72263,-36.5367 -35.71934,2.218 30.26317,21.2152 41.43907,46.5161 0.46569,11.7526 -52.42881,-25.8576 -6.51122,41.2659 22.40886,54.4997 -19.92052,-12.2272 -63.25132,-44.2467 -29.05306,-0.013 22.86116,13.2432 40.52367,43.5414 4.37633,13.6935 -66.00999,-50.3796 39.20467,72.3699 15.6032,56.5805 -24.87353,10.6505 -52.39068,-40.9397 -17.21008,-9.6527 -26.10617,-71.6394 -37.64482,23.9993 -69.77218,41.6591 -18.63435,50.9811 84.43214,2.8038 112.30736,16.7105 59.61759,-0.6711 118.05928,10.777 176.8711,18.3964 z M 475.4881,1599.7275 c -40.97036,-5.3281 -24.83443,-32.0711 6.71659,-6.1973 12.66131,2.4808 -0.62371,12.8359 -6.71659,6.1973 z m 14.90864,-9.7932 c -33.65963,-2.4303 -29.17327,-57.9017 -3.9779,-10.1014 3.55916,-0.7546 32.45778,14.8005 3.9779,10.1014 z m 12.43511,-7.059 c -35.10908,-6.0092 -35.86876,-52.7823 -5.44314,-11.3094 2.68225,-0.5473 31.55103,15.2062 5.44314,11.3094 z m 53.48357,-155.2086 c 9.23956,-21.1541 -15.46841,1.6606 0,0 z m 46.64131,-9.5952 c -10.69901,-2.744 -2.44534,11.6837 0,0 z m 16.03137,-1.1548 c -4.37338,-5.5581 -4.01001,7.4789 0,0 z m 20.5,-1.4182 c 5.48396,-8.8465 -9.70241,1.3087 0,0 z m 26.97697,-4.7715 c -3.78791,-21.484 -11.88536,18.393 0,0 z m 26.93549,-4.8957 c 3.74677,-34.6895 -16.43188,25.0004 0,0 z m -124.92777,0.3354 c 1.48747,-12.3035 -5.41272,4.6218 0,0 z m 14.48655,-1.2221 c -14.03479,-35.9689 -53.75668,-110.0868 21.10715,-98.1421 82.71261,-10.711 -3.72869,140.4033 87.06552,86.7439 35.92745,-51.7518 87.55712,-49.9157 122.76629,-103.317 21.51496,-20.1534 62.19022,-83.0239 19.13346,-25.9321 -22.67265,24.8288 -53.3394,36.7408 -10.38249,6.8435 26.65772,-26.8963 36.4196,-52.0515 -2.04955,-17.8605 45.42009,-40.9598 91.36776,-97.7695 85.83435,-162.3065 -5.80038,-55.1319 34.67864,-102.48658 34.29558,-152.33188 5.88846,-30.38477 -4.87448,-84.46125 -8.81311,-21.71948 -0.39028,25.21804 -27.04406,103.83456 -13.72238,36.55698 14.03757,-43.92982 7.39108,-171.02383 14.35787,-153.17419 -9.37374,48.72743 -6.26295,-50.75845 -9.60406,5.56042 -10.94427,-39.88962 -93.1345,-35.37143 -139.63939,-22.64803 -59.07991,16.68019 -135.90966,49.87806 -134.71345,122.99649 2.43402,15.88323 -7.31174,39.02349 -11.21826,18.95778 1.6689,18.66564 -4.47344,49.79914 9.17976,51.49719 -26.65719,83.89332 106.41316,34.05742 91.85321,96.91432 -33.34807,13.5729 -133.79522,61.0341 -124.05559,58.7994 6.35403,-58.5317 116.15901,-53.0403 113.58381,-81.2059 -61.70813,-4.6876 -119.95548,-42.4438 -96.82391,-114.10767 13.37754,-62.85176 41.40505,-122.0223 67.99218,-180.13184 6.14373,-7.76505 27.33285,-34.66556 16.11196,-6.97538 12.25753,-19.96472 25.52582,-19.37055 12.92332,3.38372 27.70622,-57.39798 20.62183,-15.40104 10.7772,20.35436 7.09615,-25.26305 38.34325,-71.47303 20.17576,-15.39395 -22.73321,61.07827 45.78817,-66.6697 21.65116,10.53305 12.55358,-6.98046 37.1645,-41.72236 24.29949,-5.50983 30.32169,-32.09611 10.50365,33.05817 39.99802,-12.37347 -3.75329,19.47542 40.93337,9.5419 55.0667,19.82355 7.77398,-57.14264 -35.97839,-54.32038 -45.81378,-103.70881 -25.98986,-42.33613 7.07766,96.78426 -14.49497,23.39828 5.75222,-32.31815 -63.23447,-131.54673 -28.44224,-48.07896 14.9777,28.74781 3.18246,67.25729 -3.0828,17.02148 -6.01606,-28.54153 -23.59973,-54.32737 -9.0607,-9.2998 12.85061,25.7972 -1.40055,71.44893 -11.39979,21.27476 -12.90234,-30.37213 -48.29285,-71.75479 -23.74627,-14.21216 4.4515,35.49696 -58.46578,-99.24527 -39.04706,-27.09713 -18.59235,-0.0588 22.05697,72.65668 -11.66863,27.54604 -16.35226,-28.29134 -57.90237,-119.66856 -126.86559,-121.04727 -27.1224,-16.27416 -141.53014,29.46191 -60.85316,5.88156 50.17816,-10.98817 127.95156,11.2522 130.35316,71.73025 -30.37044,-70.47856 -107.40035,-63.44848 -176.42393,-53.81332 -71.14697,0.8337 -103.03725,70.51906 -153.3921,110.30227 -54.94918,36.54944 -2.63242,98.91477 48.32583,69.03851 36.51931,4.30546 107.58146,-5.82821 81.79338,33.77818 38.05337,57.31085 85.21098,113.24941 92.47999,184.99106 7.56244,31.43181 -2.58626,101.08572 -9.12044,30.7713 3.91612,-65.30216 -20.14661,-132.09167 -80.86123,-164.47707 -57.88514,-35.55514 -101.36016,4.72313 -159.90983,-2.64868 -49.66362,6.60112 12.92638,115.73781 58.75703,70.25814 40.98038,-43.66259 162.41007,-21.31669 108.90781,47.57889 -48.31747,31.03895 -99.35002,-12.03899 -147.03156,-7.22002 17.96532,23.71893 70.50666,101.57736 14.06754,45.36559 -12.6316,-24.81043 -59.51639,-104.42568 -30.09361,-34.56582 6.17401,36.58431 111.30202,150.57639 80.51468,123.18379 -39.68763,-15.1883 -69.81138,-100.58251 -79.65197,-96.79528 12.92601,47.86438 68.17942,114.33828 82.44426,135.17368 -37.94285,-9.9675 -52.18632,-69.0228 -68.52388,-78.0249 7.6597,34.3172 88.88585,117.6381 65.25361,105.4184 -40.63012,-18.1851 -50.80396,-90.9265 -72.67353,-87.5175 11.21199,29.9406 32.6395,115.5735 -0.50698,43.4958 -4.49192,-24.8899 -15.67542,-72.3672 -11.14866,-18.3364 31.68852,95.5044 54.6987,204.4186 135.40636,271.9486 23.31091,11.5762 93.89029,68.3154 92.7234,35.1115 -13.81773,-32.1744 -53.59144,-9.9038 -60.64298,-40.0436 45.48482,10.6938 67.49156,30.396 91.91586,59.2971 17.17296,-58.3312 1.73146,-3.0765 24.36218,8.4867 z M 455.4881,1353.644 c 9.91812,-19.7222 0.0967,14.3574 0,0 z m 129,-62.7065 c -32.2475,-6.6386 -127.58862,-13.3362 -96.31157,-42.3809 43.11386,9.7517 116.2367,-3.9523 171.05852,-4.6585 37.29228,-7.7234 132.38228,-8.616 73.73612,21.0224 -23.23858,-16.0422 -100.07789,47.05 -148.48307,26.017 z m 56.5,-6.7996 c 28.82328,0.1837 86.6113,-32.861 27.09838,-15.293 -44.8897,7.4189 -170.76025,4.9505 -154.22483,1.7623 41.80111,7.9711 84.23062,20.1062 127.12645,13.5307 z m 2,-19.3452 c 28.29801,8.1796 102.41606,-23.5322 33.9334,-16.1612 -39.37987,11.519 -139.03468,-4.1454 -142.16499,16.1741 35.97535,1.8553 72.21892,1.156 108.23159,-0.013 z m 106.42971,-14.626 c -2.3825,-8.9007 -1.20047,14.6275 0,0 z m 32.07029,28.25 c 2.31542,-5.7591 2.31542,5.7591 0,0 z m -367,-31.9539 c -78.24301,1.6151 -31.71835,-157.7152 9.48439,-80.1539 -1.22922,33.585 -31.58959,-6.7298 -13.69815,31.9006 60.76158,22.5416 109.2055,-74.9635 170.50088,-40.0447 63.82641,57.055 -42.0616,85.6041 -88.81626,69.646 -29.31924,-4.8134 -49.49948,25.0986 -77.47086,18.652 z m 31.14167,-5.4213 c 38.76337,-21.4961 -79.12635,-9.8539 -56.12424,-19.4734 15.18724,11.4098 35.91903,30.694 56.12424,19.4734 z m -15.06996,-15.2127 c 50.26221,-25.5616 108.05141,14.2474 156.28511,-9.8502 27.14743,-69.8929 -77.31794,-72.8142 -109.26489,-27.2863 -36.6,47.1191 -87.47335,-3.911 -84.14894,-8.2993 -9.42275,34.8409 9.43892,51.1892 37.12872,45.4358 z m 126.42829,-12.58 c -40.87609,-12.9946 45.37461,-2.6469 0,0 z m -84.9008,-5.2126 c 22.87901,-19.5164 126.28872,-8.9599 53.9219,-6.1099 -17.98642,1.9166 -35.78124,5.7819 -53.9219,6.1099 z m 6.9008,-7.1234 c 8.8954,-13.0416 80.68032,-16.7368 33.29612,-24.1766 31.69067,-23.1513 86.04843,29.1289 22.96416,12.6724 -19.29413,0.5362 -37.72182,6.8185 -56.26028,11.5042 z m -92.53837,-24.4157 c 59.03836,-32.8859 -33.10548,-29.1801 -7.43746,19.7389 9.19054,4.0865 1.56408,-23.465 7.43746,-19.7389 z m 94.03837,64.0317 c 4.13589,-24.7314 13.40656,-2.2428 0,0 z m 169.41611,-11.027 c -69.91301,-16.3482 -4.58515,-110.7016 41.14357,-62.4876 36.25263,3.2724 125.10495,35.839 110.81062,-32.0663 -61.04192,-8.049 38.3463,-60.0578 31.81886,1.7889 17.82573,91.4731 -98.40833,59.7334 -144.67194,84.2987 -11.09808,7.8982 -25.49021,13.984 -39.10111,8.4663 z m 35.55752,-7.1898 c 20.84099,-29.0354 -109.0123,-33.1024 -32.71999,-0.4548 10.33994,4.1645 22.30005,4.6668 32.71999,0.4548 z m 36.93927,-20.5952 c 28.20656,-1.4279 141.80789,-44.1898 63.70458,-4.9182 -64.81305,5.1072 56.23589,26.0177 40.01286,-27.0408 17.36101,-33.6213 -38.49436,-71.6525 -29.98019,-46.0545 50.61717,28.9989 -24.48024,82.7216 -65.12638,69.7571 -33.31986,1.7166 -131.03567,-11.0795 -49.87058,9.3935 13.4726,3.3006 28.14445,4.2299 41.25971,-1.1371 z m -94.07951,-21.5008 c 26.68531,-1.1572 150.48231,5.0902 69.21273,-4.1446 -20.95445,-13.7169 -101.13995,-6.9045 -69.21273,4.1446 z m 81.66661,7.6751 c -52.27844,-2.0215 -20.8697,-0.5585 0,0 z m -108.14558,-33.4674 c -28.08115,-57.8543 -123.5104,-25.0374 -143.63288,-83.7367 14.66278,-35.8719 129.53583,-26.1105 48.43083,-16.0118 -70.84166,14.9291 3.151,59.2852 34.28902,25.1542 24.19551,9.8734 42.98527,44.8854 63.78747,66.1916 z m -46.35442,-49.1294 c -3.5809,-3.2818 -1.90784,6.8081 0,0 z m -22.36232,-25.6004 c -14.91981,-0.636 -14.29799,19.6345 0,0 z m 11.36232,-33.7772 c -5.04198,-4.8866 -10.0419,8.0043 0,0 z m 34,-9.932 c 23.31204,-39.65217 57.82991,5.0088 4.32275,-0.6399 l -3.65792,0.5415 z m -124.91392,-28.818 c 10.05793,-25.14164 8.37022,7.8553 0,0 z m 273.42734,-11.87215 c -34.2397,-17.63952 -21.6861,-70.72276 13.78487,-35.81266 33.17504,3.70036 82.81529,18.26113 20.25143,10.80962 -39.56351,-0.20388 -39.19852,3.39146 -34.0363,25.00304 z M 448.52989,983.3116 c 43.61873,-32.28651 2.9756,-22.01966 -21.4205,-4.19068 31.32505,-34.23239 83.12654,-26.06929 28.94111,0.40493 1.18043,-2.29292 -10.68764,11.85455 -7.52061,3.78575 z m 18.95821,2.22751 c 4.2206,-3.54954 3.67459,-3.09034 0,0 z m 284.79706,-43.15872 c -52.15172,-0.91115 -74.75626,-45.23097 -21.81794,-68.26847 34.04958,-35.44941 177.35972,6.16222 109.17828,49.56778 -26.29541,14.91626 -57.4704,19.70709 -87.36034,18.70069 z m 44.70294,-8.08651 c 45.7617,5.75025 83.31881,-56.93215 16.68676,-57.15317 -35.34726,-21.51207 -43.13802,-2.63448 -31.06393,28.02346 -33.62496,41.86096 -43.1979,-50.17432 -14.27434,-9.57884 -40.48646,3.5498 29.79743,30.40348 3.90629,-15.35417 -64.40656,-37.53456 -31.68663,97.18666 19.42693,43.05948 -13.3843,8.09673 -14.30508,20.58195 5.31829,11.00324 z m -64.5,-5.17721 c -35.02373,-25.81221 60.88558,-89.12685 -6.90905,-44.59674 -29.7938,17.67393 -30.52357,38.44376 6.90905,44.59674 z m -405,-50.08336 C 359.33879,830.5199 470.05704,842.25708 469.05186,868.01056 425.11037,839.25184 367.3594,846.87869 327.4881,879.03331 Z m 543.51542,-9.69164 C 840.83855,828.60451 699.30468,847.272 723.94457,850.86754 766.04694,816.61971 837.1616,838.0123 873.62486,865.62816 Z m 28.48458,-31.80256 c 4.2206,-3.54954 3.67459,-3.09034 0,0 z m -293,569.34619 c -5.81563,-6.3524 -6.78038,7.3058 0,0 z m 22.34395,-3.2186 c 26.66898,-29.7781 -5.35178,-33.9165 0,0 z m -10.04598,-2.3043 c 27.15597,-24.0019 -2.22919,-83.274 4.73233,-21.8176 -0.51697,4.1145 -23.80634,24.204 -4.73233,21.8176 z m 98.35129,-11.1298 c -6.23434,-0.8081 -0.85209,6.7541 0,0 z m -0.95502,-5.8422 c 7.97074,-8.1264 -15.11625,10.8939 0,0 z m -116.27127,-6.5854 c -9.21717,-30.5048 -39.47236,-81.1115 -17.88631,-20.5179 4.12169,5.2545 6.92863,25.5764 17.88631,20.5179 z m 143.34241,-4.7984 c 24.0723,-11.4236 101.52166,-96.661 43.77734,-41.8838 -13.07608,13.676 -36.0373,27.9524 -43.77734,41.8838 z m -137.13243,-13.8399 c 16.28879,-29.5006 -33.32894,-57.6034 -8.59145,-9.4548 -0.57009,0.849 11.23651,37.3446 8.59145,9.4548 z m 135.36705,4.5271 c -24.85564,7.6274 -3.04172,5.694 0,0 z m -6.42853,-0.3719 c 17.20129,-11.5969 -17.47387,9.3159 0,0 z m -284.93019,0.8234 c -15.71806,-15.8531 -9.57668,-2.9065 0,0 z m 305.90577,-5.4071 c 13.66592,-14.5536 -14.87816,13.3432 0,0 z m -20.1747,-0.406 c 20.65074,-17.2724 -14.93366,-25.3356 0,0 z m -97.28983,-19.1612 c -5.74058,6.4068 6.8303,13.0386 0,0 z m -16.40711,-12.089 c -19.96096,-6.3424 1.85065,34.2534 0,0 z m 156.82459,8.8347 c 4.30882,-7.102 -7.83551,8.6723 0,0 z m 0.69291,-3.75 c 9.90338,-10.2313 -10.4835,5.9909 0,0 z m -214.80525,-5.6087 c -3.74299,-15.9256 2.76464,17.3989 0,0 z m 55.59431,-7.8913 c -13.9757,-8.213 -6.54296,19.1965 0,0 z m 171.09372,4.5457 c 7.66677,-8.8425 -10.08308,8.9014 0,0 z m 12.90832,-14.0149 c 33.97499,-37.9549 -17.56824,25.5181 -11.91732,8.9133 4.4711,-2.2877 8.21852,-5.5922 11.91732,-8.9133 z m 87.95803,-124.7808 c 25.06499,-43.8181 1.12443,-16.123 -7.9521,11.3357 l 1.09345,-0.6351 z m 23.03572,-32.8724 c -6.45323,1.7248 -0.70254,7.8103 0,0 z M 293.84082,1108.155 C 288.1115,1036.6246 282.564,963.26918 258.69645,895.58421 c 0.0622,-26.43782 20.28663,-113.43097 -13.95934,-93.74121 -17.44756,71.8353 40.11703,140.93375 12.22696,213.5443 -4.8062,33.2375 -6.94586,85.8092 36.87675,92.7677 z m 346.95,-5.9883 c 19.41881,-21.0812 -8.72475,-1.8387 0,0 z m 298.41134,-4.5 c 19.26002,-15.7711 -2.96209,12.1854 -5.98459,0.484 z m 10.62571,-27.5871 c 17.32361,-77.07506 4.02984,-159.26869 34.10298,-233.48429 9.4928,-44.49709 -40.18381,-71.04407 -39.90531,-11.37393 12.75317,15.4896 34.22403,-19.89498 27.08913,25.24837 -3.55204,64.50048 -41.74819,121.74004 -44.28947,187.15975 -4.45697,18.1847 -4.46521,76.4281 23.00267,32.4501 z m -302.33977,19.3371 c 6.28653,-8.7616 -9.93791,10.372 0,0 z m 10,-5.2355 c -7.07723,5.3945 -10.46219,7.9746 0,0 z m 0.56498,3.6304 c -5.71496,-1.6439 -1.892,6.8606 0,0 z m 47.18502,-0.8839 c 9.95128,-9.6998 -21.38698,11.4613 0,0 z m 1.25,-7.2598 c 36.80103,-20.4189 -26.60516,8.6619 0,0 z m 247.80687,-4.2777 -1.50669,2.3561 z m -37.29757,-15.1619 c 3.16083,-34.9161 -7.56502,41.5219 0,0 z m -185.38174,9.9384 c 2.20796,-4.5008 -7.40671,7.8474 0,0 z m -420.82288,-20.3071 c -2.73372,-6.2611 -2.08704,8.0942 0,0 z m -9.01118,-65.73936 c -18.50411,-35.2409 13.91116,39.12166 0,0 z m 672.69708,-42.8327 c 7.65905,-36.14891 -13.13413,32.09846 0,0 z m -525.13544,0.68133 c 79.19336,-46.87265 -84.48015,-112.73914 -79.2189,-29.80416 12.89649,56.79723 103.2936,-4.71849 44.58596,-23.00918 -27.86995,20.22254 31.3031,23.81654 -12.21663,36.28451 -36.98078,-45.37918 58.09556,-61.79924 32.24387,-10.89482 -37.48929,39.48719 -24.07854,28.35876 14.6057,27.42365 z m 538.78032,-22.20251 c -1.65936,-15.45462 -8.62528,38.82295 0,0 z m -707.56029,-0.96802 c 2.86273,-30.10449 -24.49193,-91.37449 -13.80429,-27.33625 1.04078,10.44968 22.32034,71.44377 13.80429,27.33625 z m -32.07517,17.11833 c -2.09465,-7.34487 -0.85894,6.9854 0,0 z m 122.89699,-2.75 c 5.39385,-40.67911 -41.32456,-53.91599 -48.4583,-17.19679 14.46995,9.53399 31.8795,13.1219 48.4583,17.19679 z M 245.05287,917.22548 c 0.39621,-25.25449 -26.91776,-127.85477 -13.78112,-52.50392 2.70864,7.9206 14.60982,68.51703 13.78112,52.50392 z m 706.42271,-3.55881 c 27.85037,-25.32903 3.68356,-116.49315 -2.9395,-38.54892 1.63175,10.5658 -8.02652,32.78639 2.9395,38.54892 z m -537.74186,7.5 c 24.59897,-34.14332 -26.75608,2.87697 0,0 z m 581.15401,-57.49891 c 5.60407,-28.65882 2.63963,-127.13062 -7.02222,-47.12047 -1.65132,27.19462 -2.81124,124.11849 7.02222,47.12047 z m -17.17413,27.49891 c 10.74325,-18.54615 -4.79545,12.28478 0,0 z m 27.6503,-43.03518 c -1.9286,-59.75036 -3.4774,46.82076 0,0 z M 692.04173,816.88648 c 16.37838,-23.33248 16.075,-90.69072 1.94079,-29.76381 -6.2333,14.00905 -31.41319,64.11479 -1.94079,29.76381 z m -465.89465,1.55649 c 15.57484,-11.58695 -1.18118,-28.98663 0,0 z m 67.02592,0.38305 c 5.56645,-8.74175 -16.26076,5.42618 0,0 z m 45.3151,-1.47509 c -1.55961,-14.12166 -13.23161,1.28279 0,0 z m 130,-0.96278 c -6.80537,-29.43717 -44.90049,-67.09797 -17.61929,-16.1762 4.3451,6.69161 9.66911,13.57737 17.61929,16.1762 z m -162,-3.92617 c -51.61177,-38.25571 58.42423,15.00946 7.89527,-28.45797 2.66676,-47.66068 73.50792,51.25397 31.43937,-16.02983 0.11355,-18.07197 70.28724,48.98172 29.9651,0.88689 -18.52189,-41.82608 52.35036,46.84428 20.76283,-10.1064 -32.62569,-43.72906 -154.1047,7.51777 -102.7803,52.7561 z m 404.18619,-7.02586 c 12.37956,-23.81115 10.79588,-71.86472 2.21346,-21.05972 1.38596,1.40683 -16.59888,28.04059 -2.21346,21.05972 z m -360.02211,-3.3863 c -25.98105,-43.47515 -36.90774,-1.20523 0,0 z m 83.42399,-2.76425 c -14.60784,-35.63092 -44.77182,-41.10108 -11.1968,-3.09726 l 5.17836,3.17701 z m 292.18942,-1.9256 c 12.17701,-36.92739 9.62442,-57.01952 -2.51718,-8.59875 -2.56211,1.10311 -2.59593,11.00106 2.51718,8.59875 z M 375.9881,792.34641 c -25.80497,-28.42708 4.9114,14.54876 0,0 z M 236.54743,757.91667 c 8.98095,-22.23802 6.79275,-79.20837 0.12033,-22.94394 -4.69489,17.60432 -13.46624,78.56063 -0.12033,22.94394 z m 505.23771,31.75 c 20.67799,-46.45444 9.07568,-47.25203 0,0 z m 216.17005,-7.40406 c 1.35678,-40.49079 -23.54517,24.14229 0,0 z m -704.2264,2.26882 c 4.16043,-11.48656 -12.2514,5.40282 0,0 z m 524.35001,-2.3574 c -6.9075,-0.75529 -0.14757,4.56721 0,0 z m -2.36807,-20.35086 c 5.19297,-35.32786 -19.04619,42.48192 0,0 z m -527.24487,12.90252 c -8.92846,-4.42264 0.88287,13.77746 0,0 z m 734.93463,-0.55902 c 4.78786,-29.14644 -22.36488,14.76928 0,0 z m -138.83196,-2.05652 c -6.91881,-2.17706 -2.35285,5.8681 0,0 z m -46.9416,-3.04883 c 18.6842,-21.25639 -11.97038,-14.78462 0,0 z m 178.68751,-6.98224 c 25.55906,-30.56125 -34.12474,8.64692 0,0 z m -159.28883,3.08759 c 21.773,-30.73237 -22.3187,15.09935 0,0 z m 176.94264,-3.13249 c 27.12295,-16.47971 -10.48433,-5.57171 0,0 z m -562.87316,2.3007 c 3.36206,-22.12872 -13.53131,-2.81298 0,0 z m 406.80956,-0.0613 c -0.42466,-7.11163 -5.63595,8.43966 0,0 z m 26.31591,0.39313 c 17.98449,-21.2213 -17.71942,5.98866 0,0 z m -623.04935,-1.9375 -0.18469,1.8064 z m 710.2466,-3.12152 c -5.48777,0.94948 1.97935,7.13728 0,0 z m -45.24038,-11.44102 -0.0196,3.4622 z m -608.24119,-1.16608 c 6.88112,-20.55142 -10.32355,3.83602 0,0 z m 687.30186,-3.73813 c 30.0652,-28.71527 -47.12698,5.9868 0,0 z m 31.991,-9.88249 c 30.8494,-11.46391 21.6494,-49.15576 -3.7622,-11.20095 -10.3745,6.32797 -10.3833,22.68947 3.7622,11.20095 z m -83.05789,-10.6508 -0.18469,1.8064 z m 35.31689,0.79449 c -2.85205,-4.1783 -3.81814,2.76133 0,0 z m 18.5,-2.60699 c -1.81867,-4.27596 -2.73052,4.82935 0,0 z m 20.0686,-0.67807 c 13.2904,-10.11953 -29.18976,4.35195 0,0 z m -24.0686,-5.32193 c -12.83719,-7.80461 -15.98988,5.44004 0,0 z m -692.63131,-3.25 c 18.91218,-34.21907 -23.23116,-10.32731 0,0 z m 611.81048,-4.14369 c -10.38477,-46.95622 -29.90141,1.97862 0,0 z m 126.98143,0.23067 c 26.2584,-20.06721 0.9587,-67.9624 -3.4292,-13.116 -4.1711,3.7577 -7.0797,31.0142 3.4292,13.116 z m -13.6359,0.59792 c 3.0365,-16.12256 -12.5916,12.05259 0,0 z m -6.4763,-2.6849 c 30.1142,-30.55434 -3.7619,-35.91954 0,0 z m -15.41616,-0.75 c 2.23867,-47.91047 -49.34263,26.04024 0,0 z m -711.48752,-10.2194 c 8.37284,-41.26798 -14.73699,32.65175 0,0 z m 676.33997,0.36241 c 25.39877,-30.50552 -59.32075,-44.47754 -10.22001,-11.60145 1.11921,-1.88669 9.74722,23.20984 10.22001,11.60145 z m -48.98469,0.41601 c 7.79886,-21.34077 -6.14155,-25.55785 0,0 z M 303.17792,681.00907 c -3.58179,-23.36674 -1.98957,41.62568 0,0 z m 704.31018,5.79682 c -7.87476,-1.81476 1.2727,11.03258 0,0 z m -732.58735,-1.13922 c -0.8741,-13.02833 -2.33646,14.58147 0,0 z m -31.92984,-7.18948 c 6.6021,-28.14807 -12.05737,37.89367 0,0 z m 786.47209,-3.43296 c -9.5069,0.61812 4.9446,11.95375 0,0 z m -100.9549,3.87244 c -4.74545,-8.07016 1.91003,6.73691 0,0 z m 80.5173,-1.25 c 9.3163,-21.03478 3.7833,12.08483 -2.2161,1.55165 z M 904.27521,677.2851 c 7.7632,-11.94275 -26.0488,12.14381 0,0 z m 95.69184,0.38157 c -1.11708,-15.24393 12.29605,-59.53954 25.46555,-24.95021 42.8411,-74.28 -102.11059,-48.90345 -60.0275,-18.78337 4.01949,17.90658 7.17769,53.02106 34.56195,43.73358 z m -707.72848,-3.5 c -6.04596,-8.29649 -4.84871,7.83769 0,0 z m 725.24953,-1.86803 c -4.5671,-3.48073 0.388,7.00928 0,0 z m -45,0.75758 c -10.89955,-28.35487 -32.87815,-18.41923 0,0 z m -649.47699,-9.16274 c 19.83396,-22.10604 -26.4917,20.99527 0,0 z m 583.47699,4.0163 c 14.16271,-33.72843 -66.15124,-44.12086 -32.11236,-10.93862 -9.97208,-42.74414 17.5779,27.21414 32.11236,10.93862 z M 294.63404,657.22981 c 9.15335,-42.47008 -17.56681,28.23095 0,0 z m -14.1692,-1.80084 c 16.46446,-35.85034 -11.00994,-12.50397 -1.94722,8.43875 z m 33.5245,-0.37072 c 29.95258,-42.2042 -13.92556,-7.83753 0,0 z M 789.43715,642.8275 c 9.73054,-32.458 -56.16714,-111.35871 -25.81252,-36.97869 2.24144,4.00612 32.38813,76.60964 25.81252,36.97869 z m 138.31143,10.82344 c -25.19788,6.96752 20.31831,5.18829 0,0 z m -599.44321,-3.67343 c 24.50832,-17.57837 51.06519,-86.15383 16.29687,-27.59038 -2.82198,6.93318 -28.16045,21.72915 -16.29687,27.59038 z m 6.68273,-0.58793 c 19.98747,-19.40413 94.95806,-100.67609 32.51029,-46.63218 -12.39659,14.39242 -22.6365,30.45632 -32.51029,46.63218 z m -30.71799,-5.47291 c -4.74505,3.04333 3.12013,12.73505 0,0 z m 64.27055,-22.90344 c 28.41467,-27.20781 31.09506,-37.94244 0.81399,-6.03233 -17.21382,14.99133 -27.14914,34.13323 -0.81399,6.03233 z m 564.9068,24.65344 c -3.24896,-21.97005 -17.78005,10.3928 0,0 z m 18.04064,0.40499 c -2.16605,-10.45888 -8.67659,4.81147 0,0 z m -676.99821,-6.40499 c 36.22994,-18.11282 21.48557,-73.50471 -0.69897,-24.02742 59.94462,-39.38394 -21.93727,25.58609 0.69897,24.02742 z m 647.15077,0.63801 c 8.46894,-31.84902 -65.7786,-130.65621 -31.23896,-49.5504 4.56536,18.93 10.79209,41.9647 31.23896,49.5504 z m 23.84744,-0.88801 c -1.99235,-8.79292 -3.86162,6.43704 0,0 z M 340.28646,622.98111 c 41.95234,-78.27754 -49.1458,46.65815 0,0 z m -15.46742,-1.86409 c 45.38016,-33.12143 3.81415,-43.56761 -10.42721,-1.84826 -7.29911,17.79901 3.60792,17.32031 10.42721,1.84826 z m -25.41249,-2.68049 c -8.97242,6.79082 -2.38796,18.05615 0,0 z m 68.17775,6.807 c -6.39309,5.18558 -13.34575,10.82504 0,0 z m -91.29209,-3.71386 c 5.98463,-14.90517 -18.96654,32.41032 0,0 z m 104.5351,2.58395 c 31.72561,-34.22449 -25.07125,10.95947 0,0 z m 491.45494,-1.98746 c 13.29376,-41.41911 -89.07591,-91.41281 -47.09243,-28.61819 24.57751,29.48795 17.11633,-34.38741 26.81797,11.90211 1.87746,8.1873 8.67899,33.89632 20.27446,16.71608 z m -164.8832,-9.463 c 15.35706,-40.43008 -83.16725,-69.35658 -22.14957,-18.57573 3.42648,4.56907 27.31822,49.35321 22.14957,18.57573 z m -400.91095,7.52783 c -2.51123,-6.9342 -0.5491,13.5024 0,0 z m 437.31176,-7.02432 c 8.989,-30.70518 -69.6234,-110.31563 -41.61717,-47.35166 11.68148,17.48239 24.32522,34.96125 41.61717,47.35166 z M 338.66145,588.73642 c 49.37927,-11.07356 -20.32274,-44.83343 -17.79375,2.33915 -15.45813,24.32654 10.50653,8.74229 17.79375,-2.33915 z m 547.34777,10.24367 c -10.64043,-26.38398 8.4534,30.0677 0,0 z m -597.75835,-7.4432 c 43.81028,-10.33222 9.24186,-50.97782 -4.75684,-3.00496 -8.16202,4.66527 -10.57181,25.60951 4.75684,3.00496 z m -7.01624,-3.87022 c 20.22135,-26.68655 -19.37757,20.12705 0,0 z m 37.26655,-19.31302 c -9.99596,6.4444 -0.22441,26.64594 0,0 z m 428.15302,11.26908 c -17.00908,-33.52253 -0.0661,13.65527 0,0 z m -362.1661,0.11963 c -16.31481,-17.73941 -11.89668,14.03046 0,0 z m -90.07709,-10.53837 c 19.83782,-28.7547 -33.63721,32.50577 0,0 z m 33.57709,5.71268 c 11.89059,-13.86895 -15.67761,15.51843 0,0 z m 16.20656,-29.24455 c -22.01177,-18.42595 -21.48954,60.58675 0.98073,8.30067 l 1.0211,-4.36614 z m 26.92221,28.53999 c -5.77261,-2.02082 -2.23538,5.87968 0,0 z m 491.80672,0.45456 c -3.56194,-29.55188 -11.92687,-0.19878 0,0 z m -78.43549,-1.18924 c -3.74088,-13.69861 -20.55009,-16.41723 0,0 z m -355.77924,-3.44176 c 27.56805,-11.38524 98.80843,-54.30009 27.58621,-28.15806 -5.81866,4.4954 -49.51954,19.2881 -27.58621,28.15806 z m -25.93558,-0.52474 c 33.06322,1.59386 42.44129,-48.49775 37.99878,-56.22031 69.57018,-38.88966 -87.9713,23.70564 -37.99878,56.22031 z m 466.27167,-9.0467 c -11.38889,-21.07387 6.59664,26.91125 0,0 z m -481.55685,4.87482 c -8.09067,-19.3375 -17.09129,6.32836 0,0 z m -43.08333,-6.17238 c -7.3622,5.616 -8.91096,6.79742 0,0 z m 38.13183,-6.90404 c 18.36003,-11.62549 28.97932,-43.27472 0.68181,-13.74518 13.30332,-48.803 -37.47654,-40.2967 -34.57027,-2.28205 5.61408,9.43764 22.6311,27.72127 33.88846,16.02723 z m 377.9515,5.87655 c -24.03695,-22.93859 -42.87496,-19.64796 0,0 z m -86,-4.33383 c -16.97117,-24.01491 -74.38286,-17.76052 -20.14809,-6.77051 0.32466,-2.51147 23.76491,15.57097 20.14809,6.77051 z m 152.68736,-0.24271 c -26.23953,-41.53187 -55.80716,2.23008 0,0 z M 478.9881,550.21056 c 45.13132,-14.23384 -1.31904,6.59943 -2.67436,0.23559 z m 309.91285,-7.05327 c -0.50595,-40.58368 -69.6797,-45.33651 -19.8025,-7.90574 0.48644,0.8012 26.59546,28.53034 19.8025,7.90574 z m 75.58715,7.64019 c -1.33102,-20.01929 -12.35113,-4.33116 0,0 z m -540.45245,-7.6666 c -7.28543,5.17058 -12.32073,8.74422 0,0 z m 124.21436,-3.04884 c -13.3323,2.68504 -2.33639,9.87863 0,0 z m 229.19318,2.08463 c -7.42328,-9.32743 -34.94697,-14.23642 -10.69855,-3.63794 z m 72.04491,-3.50709 c -4.07833,-16.9738 -39.36573,-27.59256 -11.90949,-6.86642 z M 420.27357,520.09825 c 26.20099,-11.76313 72.22515,-50.64502 17.00073,-24.63802 -13.62611,6.43059 -48.63636,55.61822 -17.00073,24.63802 z m 25.91748,14.59709 c 14.75546,-26.53807 122.46826,-57.07721 36.91352,-39.29668 -18.00496,4.54451 -40.72261,16.99852 -36.91352,39.29668 z m -109.09938,-5.23342 c 22.90597,-17.08045 68.81632,-95.30242 68.12485,-91.79703 -32.44391,19.95514 -68.94858,49.99965 -68.12485,91.79703 z m 371.39643,3.6914 c -10.79451,-46.48477 -73.76274,-13.92967 -14.34829,-1.61726 z m -312.66042,-5.1955 c 28.8188,-20.18325 28.914,-34.15819 -0.95813,-6.03876 -6.94309,0.91084 -3.03688,8.98263 0.95813,6.03876 z m 70.16042,-1.65423 c 45.19663,-19.2889 5.7444,-25.10477 -9.19067,5.8056 z m 20,2.59313 c 28.22093,-18.07389 106.24868,5.37932 102.93756,-26.97254 -25.44208,-9.68924 -122.14203,7.73217 -102.93756,26.97254 z m -83.82712,-16.17571 c 40.22739,-32.26207 -18.79126,-52.99483 -14.54727,-2.08504 -8.60845,26.28935 8.42365,16.1129 14.54727,2.08504 z m 205.93755,16.52164 c 12.00357,-5.44871 -42.33217,4.3674 0,0 z m 227.38957,-1.03041 c 9.78467,-37.21652 -72.23607,-93.70598 -64.2637,-58.52209 21.94038,18.93819 41.38781,40.64739 64.2637,58.52209 z m -20.65705,-6.55775 c -15.48309,-25.94238 -54.27272,-37.67614 -14.28954,-7.25835 -2.11821,-1.90871 22.15112,18.59187 14.28954,7.25835 z m -225.23047,0.77192 c 49.24565,-10.93892 -30.02357,2.4545 0,0 z m 284.97188,0.24026 c -23.69174,-54.97743 -21.53648,-15.0892 0,0 z m -211.03,-0.64844 c -8.38513,-19.21074 -20.5283,-15.21462 0,0 z m -14.22103,-0.0969 c -11.29955,-24.89496 -29.97418,8.73092 0,0 z m -28.33333,-1.00466 c -3.66246,-4.83138 -4.27567,5.17878 0,0 z m 91.38328,-4.25 c -8.36664,-26.95597 -19.02693,-4.71007 0,0 z m 21.99505,-14.37615 c -11.90247,-37.25719 -52.08224,-7.44107 -6.41558,5.85311 3.928,6.97275 26.32782,5.61401 6.41558,-5.85311 z m -100.49078,8.33934 c -16.82109,-49.69481 -154.37786,-9.91385 -59.25907,-15.45917 20.46421,0.84963 41.68405,4.23733 59.25907,15.45917 z m 133.14924,-12.05661 c -12.54093,-31.33504 -61.8392,-27.09799 -14.95521,-4.78244 -1.35865,-1.28501 35.18306,22.36608 14.95521,4.78244 z m -107.53679,1.22679 c -8.93308,-7.28547 -9.70916,3.66688 0,0 z m -230.31579,-7.82753 c -0.74232,-10.41471 25.37975,-43.60068 -2.8421,-7.25826 -4.34997,1.14883 -12.2773,29.38179 2.8421,7.25826 z m 62.69729,-3.48458 c 17.3636,-13.34542 -39.91484,15.69804 0,0 z m 351.88001,-3.73364 c -5.12341,-36.68908 -83.03496,-70.23183 -23.31167,-19.88895 2.72566,2.5298 34.06524,48.59345 23.31167,19.88895 z m -460.3651,6.62758 c 10.88584,-15.1592 -13.91543,13.68538 0,0 z m 288.10359,1.51195 c -22.21382,-23.03467 -104.22723,-9.73753 -32.41994,-5.87668 10.68625,2.17424 21.09489,8.81367 32.41994,5.87668 z m 26,-0.41999 c -0.86848,-15.75871 -19.59492,4.66533 0,0 z m -252.57428,-5.61405 c 35.59154,3.98721 46.74864,-37.73927 3.59898,-12.10088 -8.16835,1.05972 -22.77253,25.53632 -3.59898,12.10088 z m 93.64006,-1.75328 c -7.10918,4.3172 -16.11261,9.78473 0,0 z m 150.59604,0.42464 c -12.51088,-35.15339 -90.30924,-21.46155 -24.78508,-5.99106 7.74917,3.49999 16.08843,6.68397 24.78508,5.99106 z M 427.79674,476.1242 c 40.39985,-37.55543 -26.18285,3.6244 -2.82242,4.38335 l 2.00189,-3.10902 z m -32.37673,6.37452 c 53.79582,-31.84413 -2.05277,-14.13127 0,0 z m 362.53712,-7.46162 c -18.2946,-30.93745 -123.22028,-42.35404 -50.36383,-8.7423 16.76961,1.37667 38.29104,-8.41226 50.36383,8.7423 z m -189.46903,1.87395 c 29.54663,6.62735 66.20149,-17.96155 16.17201,-10.80585 -12.425,0.66764 -52.10869,18.70003 -16.17201,10.80585 z m -47.61481,-14.89426 c -33.13557,-7.70473 -38.14352,27.02468 0,0 z m 0.84055,6.08297 c -1.17686,-4.46003 -29.52419,14.46471 0,0 z M 408.4881,466.49163 c 34.63327,-24.87841 9.82622,-15.78236 -8.29697,3.96782 z m 139.38153,5.26162 c 46.79031,-21.1343 -54.41036,7.34293 0,0 z m -96.2438,-1.69204 c 22.53097,-6.61083 -10.28474,-24.77544 0,0 z m 123.36227,-5.75759 c 32.66846,-12.22047 -43.97573,7.87533 0,0 z m -166.83249,-4.41607 c 22.05488,-17.50688 115.25369,-74.3326 38.66287,-41.28453 -15.66765,9.22953 -38.11019,20.1993 -38.66287,41.28453 z m 29.21754,-5.29144 c 38.37365,-21.73739 129.9007,-85.17264 145.30796,-38.57811 -20.66813,13.28094 99.62671,-3.97736 23.15001,-12.75809 -61.34371,-26.83711 -152.6271,14.75091 -168.45797,51.3362 z m 38.49965,3.32771 c 30.74608,-8.14477 116.59476,-6.38793 115.77145,-25.16358 -35.35285,1.60609 -99.04158,11.65985 -115.77145,25.16358 z m 300.50227,-4.0106 c -19.39124,-18.34944 -46.08875,1.88335 0,0 z m -104.52993,-2.27979 c -9.92851,-48.91796 -142.25049,10.56384 -57.7145,1.70814 19.25122,0.11562 38.49789,-0.60379 57.7145,-1.70814 z m 55.64296,-3.71708 c -30.09149,-31.5452 -39.76202,0.95503 0,0 z m -265,-2.08641 c 6.96376,-10.10403 -21.21218,14.22292 0,0 z m 10.25656,-0.0428 c 39.97737,-15.81825 -30.79305,5.93326 0,0 z m 22.47298,-1.32153 c 62.58272,-14.04664 -11.77848,-0.77031 0,0 z m 273.27046,-1.90405 c -35.27206,-29.04486 -41.23099,-11.08736 -2.02988,-0.34168 z m -38,-4.10971 c -4.8307,-2.67716 -4.20441,-2.33007 0,0 z M 500.41684,432.9879 c 27.09832,10.47588 116.74535,-27.93953 44.72504,-29.19474 -9.49671,-1.97161 -99.57305,41.91839 -44.72504,29.19474 z m 268.07126,-4.18466 c -31.33868,-26.1984 5.97497,9.77606 0,0 z m -120,-2.85139 c -6.75569,-9.68501 -10.82983,10.00481 0,0 z m 25,0.15831 c 8.57133,-52.79969 -128.10522,-36.91846 -37.38963,-15.35252 12.55078,4.89557 25.20539,9.57421 37.38963,15.35252 z m 24.40817,-0.0449 c -12.40391,-35.30089 -42.90523,-3.81821 0,0 z m 19.38253,-1.59722 c -26.37323,-11.48821 9.90675,10.29185 0,0 z m 78.7093,-3.11891 c -21.01605,-28.02471 -98.85271,-23.71069 -25.54659,-6.9666 8.33829,2.86894 16.6711,6.17022 25.54659,6.9666 z m -86.18567,-2.18543 c -12.06461,-19.83882 -26.23662,-5.64581 0,0 z m -254.63306,-8.11662 c 24.36262,-6.13637 133.60396,-49.2936 64.7399,-40.61415 -16.23367,7.88615 -74.09879,26.62885 -64.7399,40.61415 z m 53.81873,-12.13041 c 5.80789,-7.89749 -20.00526,12.25831 0,0 z m 250.46429,-5.44905 c -29.47922,-30.96915 -124.14406,-47.84083 -132.35871,-27.44283 43.61822,11.02357 86.90697,26.65489 132.35871,27.44283 z M 552.4881,387.83099 c 24.05609,0.62148 100.77147,-2.53364 36.26172,-12.25709 -15.56355,-4.14576 -90.58178,19.11253 -36.26172,12.25709 z m 102.39169,-3.92263 c -22.4467,-15.31209 -10.20096,3.40082 0,0 z M 597.9881,368.19993 c 6.62828,-7.29957 -36.36525,6.97328 0,0 z m 537.5,417.71674 c 3.3839,-4.72629 3.3839,4.72629 0,0 z"
       style="fill:#000000"
       id="path82" />
    <path
       d="m 710.77381,1622.8649 c -90.26684,-17.2545 -182.65735,-19.877 -274.06224,-11.5514 -30.51836,-22.1765 42.02851,-59.5963 40.25348,-92.8183 41.22187,17.4746 -24.05338,22.2228 23.38408,36.6525 72.99183,28.9358 -56.02473,-70.1682 -10.94618,-64.0095 20.04479,27.4942 53.45257,27.2176 12.71961,-1.1896 -41.92889,-47.6678 7.56099,-9.5251 30.68696,1.5501 -35.04277,-5.0612 -77.64827,-103.1398 -18.29673,-49.2842 71.09043,40.8069 -94.62036,-77.3919 -1.9679,-49.0565 36.61224,66.3722 110.9864,17.7281 169.31094,22.9778 64.97165,-55.1243 29.5025,76.3236 53.4619,109.0988 27.4665,51.5316 65.38647,106.0311 -24.54392,97.6302 z m -222.90476,-24.8733 c -19.75673,-23.8385 -66.67079,-16.7262 -17.68073,2.1118 5.26046,-0.5587 13.49246,3.1654 17.68073,-2.1118 z m 15.27976,-11.5928 c 27.78773,-12.2676 -65.92286,-61.6262 -31.12019,-2.662 6.78352,7.9201 23.38098,8.1131 31.12019,2.662 z"
       style="fill:#ffd5d5;stroke-width:1.79762"
       id="path95" />
    <path
       d="m 643.50827,1399.9038 c 16.6017,-54.1555 -6.02772,-116.2555 -73.37004,-90.6401 -32.19867,9.2253 17.74945,107.0894 -24.84793,72.2065 -15.73961,-28.1484 -57.01173,-39.8014 -82.08641,-41.1246 11.55625,21.9638 80.07872,20.4262 60.28401,48.0899 -49.78292,-21.6772 -81.91538,-41.7449 -120.4196,-78.78 -53.56838,-73.3099 -81.48927,-162.8751 -103.18511,-249.9591 -8.76258,-24.0068 42.50796,110.3703 26.39117,37.8451 -9.29542,-27.103 -23.6803,-85.86 5.69188,-29.225 4.64701,36.5521 90.02248,98.9005 36.92079,35.3341 -38.17924,-32.1985 61.52813,28.3588 8.87278,-14.0162 -25.73904,-23.4093 -72.63603,-110.05858 -63.58373,-107.05377 16.13378,28.50407 51.5408,86.64897 75.44564,83.24027 -36.80593,-37.0325 -89.24162,-114.12338 -92.49637,-148.13638 9.83807,21.74611 61.58838,106.02298 62.69115,72.16596 -14.65875,-21.53865 -65.73586,-79.55163 -3.95269,-52.73043 46.01047,36.68376 176.31679,2.86676 103.83052,-61.98876 -53.99602,-37.26935 -124.14767,63.65446 -165.27648,2.888 -20.57,-31.48912 -21.81617,-72.71329 26.81513,-50.31442 47.28832,-15.53125 94.67416,-27.51745 142.38978,1.89814 48.83351,31.42879 79.80386,86.26659 73.83394,145.04842 -1.6009,32.98967 16.85872,75.54607 13.63971,18.21988 5.4755,-87.0756 -52.10584,-156.8612 -96.04731,-225.62581 34.71223,-32.99266 -75.09311,-29.90642 -105.5703,-24.46306 -91.30112,2.96235 -17.34466,-94.53428 25.60109,-115.11683 26.11959,-24.22139 42.58014,-63.22309 84.44086,-61.83235 49.76281,-19.57854 116.47325,-6.04633 156.17848,0.76451 21.99536,19.76953 58.16015,78.61676 32.07076,15.7926 -15.00978,-32.19372 -82.32699,-43.54051 -99.4445,-46.05282 67.68691,-8.38728 130.15547,42.27317 152.9075,102.71574 -8.83899,29.58854 50.45691,51.01074 20.23525,3.94217 0.88986,-19.46861 -1.10747,-52.69004 20.49822,-7.22532 16.90006,37.25833 34.01265,37.68373 15.02045,-4.67177 13.18066,-8.61509 52.73215,117.32949 45.70599,35.36067 -6.29785,-29.68321 -9.42403,-53.03671 3.50885,-9.11726 27.01989,77.41349 -3.40968,-59.01367 -1.86968,-49.18865 28.14634,23.65762 29.30693,90.93 44.45243,103.80417 -1.36516,-25.39163 -10.57575,-81.67131 12.00163,-29.21852 7.67755,37.32546 46.37665,33.98408 38.88875,85.46108 -31.82101,-2.25785 -51.73028,-21.58821 -71.04093,-4.42248 -11.14451,-8.2631 -23.56386,-29.28701 -43.56472,2.11585 -6.32869,1.00765 9.49007,-50.73075 -12.81083,-13.4669 -35.60054,65.77962 13.50949,-73.31981 -22.91705,-4.86078 -28.13605,70.16233 24.6775,-72.4715 -15.19849,-11.98742 -35.59636,-5.88143 -61.18056,76.74323 -80.09447,123.80414 -21.1177,50.91201 -44.14717,120.086 -5.41663,167.67453 22.98598,14.8725 133.15345,28.2386 50.10634,42.3652 -38.958,5.5036 -79.64467,33.8122 -86.58412,70.82 23.98115,-46.3808 165.68639,-40.2641 113.06016,-100.9609 -58.67272,16.4722 -80.50429,-47.65399 -84.69966,-69.26373 2.41854,-45.77289 5.82149,-107.85596 50.66759,-143.54138 62.31628,-42.19155 145.3565,-64.14852 218.24123,-41.47553 17.10835,38.23411 30.62552,23.88766 22.37515,78.68009 0.90067,37.45076 -24.22429,111.38067 -12.93522,114.61642 11.04597,-23.82085 20.84247,-140.39884 21.76602,-55.59511 1.30968,64.30326 -42.64205,119.67294 -35.78582,186.06044 5.21767,38.3915 -24.96739,66.5834 -42.2447,97.6427 -8.26076,18.0319 -70.87231,69.0863 -17.0035,32.7189 -9.41291,24.9917 -82.53233,75.0048 -19.77381,35.5339 -30.30815,60.0441 -91.20118,57.3936 -123.87554,107.407 -12.32293,14.3242 -41.72444,24.8981 -58.43761,17.839 z m 11.53935,-112.8428 c 33.46987,-10.9894 68.86721,-36.871 88.81689,-20.1856 34.04344,-60.7913 -75.36515,-13.2778 -109.48951,-21.9292 -48.94741,5.0276 -125.87018,4.3629 -153.41154,7.4687 11.33965,47.2356 110.56081,33.6102 155.6826,39.0742 l 9.22929,-1.8338 z m 129.42857,-8.9539 c -4.45709,-9.4716 -4.45667,9.4718 0,0 z m -338.99332,-35.9425 c 36.68027,-19.1899 29.78449,2.4451 53.47941,-13.4937 36.34286,-3.0186 92.25072,15.1184 103.27819,-33.2806 -18.25641,-88.8545 -111.62147,-19.4479 -158.80579,2.5934 -25.71554,19.6225 -53.8393,-29.0099 -22.24885,-17.3491 2.33886,-100.7283 -101.17831,38.189 -21.04781,62.5828 14.15153,5.2089 32.19069,8.7279 45.34485,-1.0528 z m 238.96107,-17.2479 c 47.6266,-34.96 164.90612,12.9592 150.33419,-84.735 2.45204,-66.3897 -92.61596,-18.4595 -32.30338,4.4579 -20.1984,78.3578 -125.71019,-12.7247 -172.27177,20.2694 -37.42047,35.9987 14.60267,86.5923 54.24096,60.0077 z m -79.72965,-79.8012 c -28.37943,-31.8179 -52.1931,-92.2919 -103.77524,-52.3355 -85.19712,-26.5685 105.10701,-55.301 6.65815,-46.9456 -52.6684,-5.6086 -66.62207,57.3024 -7.64402,59.9215 35.96499,-0.1695 91.05047,39.438 104.76111,39.3596 z m 5.04816,-111.6719 c 31.53785,-37.34859 -84.31745,9.0006 0,0 z m -151.09542,-26.3275 c 23.55149,-33.67182 -19.62347,11.3545 0,0 z m 272.60925,-15.27979 c -24.54836,-38.75005 111.93754,-6.50474 39.91911,-27.48484 -27.5417,-2.24981 -86.95641,-40.51638 -59.06125,16.38053 -1.43289,1.62828 23.28421,30.3823 19.14214,11.10431 z M 461.37777,976.10714 c 28.86395,-6.37796 20.71352,-38.90965 -15.13814,-11.82941 -57.43584,40.59487 50.38126,-27.89799 12.12375,10.07966 -16.14893,11.62079 -7.17916,14.75267 3.01439,1.74975 z m 345.56866,-38.51021 c 49.51496,-4.86262 83.76247,-58.52115 14.69178,-67.94582 -40.1054,-32.27917 -162.61729,18.70374 -106.9479,61.41592 28.67722,15.17544 61.53626,13.12804 92.25612,6.5299 z M 339.56548,872.67996 c 28.33738,-46.17486 159.22603,2.79318 133.3335,-6.51712 -38.16769,-42.53153 -118.29943,-16.5678 -133.3335,6.51712 z m 533.67157,-12.22352 c -45.27502,-21.75696 -116.32442,-49.01201 -156.14108,-2.95452 46.52002,-38.58421 124.02728,7.00987 156.14102,2.95452 z"
       style="fill:#ffd5d5;stroke-width:1.79762"
       id="path97" />
    <path
       d="m 928.34896,1081.386 c -6.46661,-54.9757 16.24027,-140.12793 35.37744,-171.6323 -13.5785,56.25666 13.33125,134.2552 -33.13863,174.3775 z"
       style="fill:#ffd5d5;stroke-width:1.79762"
       id="path99" />
    <path
       d="m 282.04167,1103.0265 c -58.02888,-45.4301 1.50848,-126.477 -23.07881,-185.88056 -9.41155,-28.71799 -32.37926,-116.39424 -3.70712,-119.43499 14.3403,56.48193 -2.86698,119.96235 22.4854,178.10926 0.22484,36.23509 27.73211,112.33379 4.30053,127.20629 z"
       style="fill:#ffd5d5;stroke-width:1.79762"
       id="path101" />
    <path
       d="m 659.31098,1223.3626 c -48.7555,-18.2075 -23.82382,-33.9864 14.1679,-18.385 41.05457,7.8898 2.30866,24.5797 -14.1679,18.385 z"
       style="fill:#ffff00;stroke-width:0.89881"
       id="path103" />
    <path
       d="m 422.79379,1225.1607 c -45.21265,15.6261 -30.13386,-93.2261 -16.72146,-22.7721 62.51709,31.736 118.20662,-89.0112 176.39538,-29.0009 37.99648,81.6831 -87.03473,35.3923 -129.04009,45.5387 -10.74569,-0.01 -19.9013,9.3029 -30.63383,6.2343 z m 145.54601,-12.9255 c -8.49947,-20.9416 -41.89067,6.5758 0,0 z m -61.50732,-7.4879 c 31.13662,-0.4891 77.20861,-7.6949 16.42107,-9.751 -27.41487,3.3466 -79.86096,20.2215 -16.42107,9.751 z m -8.98809,-8.263 c 25.06093,-10.249 111.43528,1.2952 42.56888,-24.4452 -53.33331,-1.5365 3.7147,12.7686 -15.02305,11.8082 -12.86959,-0.2074 -71.35039,24.6747 -27.54583,12.6372 z"
       style="fill:#ffff00;stroke-width:0.89881"
       id="path105" />
    <path
       d="m 378.34998,1192.5964 c -21.01873,-42.2884 61.18986,-49.9516 11.48783,-17.7854 -8.00501,-1.2136 -4.31859,30.5348 -11.48783,17.7854 z"
       style="fill:#ffff00;stroke-width:0.89881"
       id="path107" />
    <path
       d="m 428.18665,1243.4968 c -98.68934,-27.7478 96.4997,-15.4264 0,0 z"
       style="fill:#ffff00;stroke-width:0.89881"
       id="path109" />
    <path
       d="m 773.77891,1203.2305 c -28.3259,7.4352 92.8416,-38.5947 24.9661,-21.704 0.51084,-0.6227 36.79695,-68.1185 -8.37835,-57.3948 49.86009,-36.6384 49.58084,110.5676 -16.58775,79.0988 z"
       style="fill:#ffff00;stroke-width:0.89881"
       id="path111" />
    <path
       d="m 622.44025,1185.5951 c 4.48665,-41.909 98.07364,1.7265 99.76166,-4.5211 -30.76078,5.6377 -76.30624,-11.9893 -99.76166,4.5211 z"
       style="fill:#ffff00;stroke-width:0.89881"
       id="path113" />
    <path
       d="m 685.12964,1203.1032 c -29.21975,-6.5265 -60.02043,-17.5812 -9.77037,-11.0225 27.56195,7.8329 144.90153,-11.8225 56.98488,7.9192 -15.56422,2.8728 -31.41094,7.2116 -47.21451,3.1033 z"
       style="fill:#ffff00;stroke-width:0.89881"
       id="path115" />
    <path
       d="m 861.94887,626.4407 c -15.82266,-24.92688 -9.379,-50.94812 -27.69492,-25.97705 -45.26212,-27.76854 0.94802,-58.2256 22.18469,-16.13182 6.70054,7.43556 28.06734,41.93684 5.51023,42.10887 z"
       style="fill:#ffff00;stroke-width:0.89881"
       id="path117" />
    <path
       d="m 827.25808,520.83202 c -22.0753,-19.96624 -103.37849,-84.58707 -24.92767,-52.60252 11.86991,3.50041 43.758,65.63984 24.92767,52.60252 z"
       style="fill:#ffff00;stroke-width:0.89881"
       id="path119" />
    <path
       d="m 750.40986,392.72625 c -36.87054,-5.76963 -109.55904,-15.67316 -123.74184,-33.27705 36.3953,-7.9993 120.01421,11.82413 123.74184,33.27705 z"
       style="fill:#ffff00;stroke-width:0.89881"
       id="path121" />
    <path
       d="m 483.97,434.69529 c 7.54305,-32.50854 135.64731,-37.8623 68.05109,-8.80914 -22.00073,7.66867 -45.16731,7.22995 -68.05109,8.80914 z"
       style="fill:#ffff00;stroke-width:0.89881"
       id="path123" />
    <path
       d="m 408.87102,456.12541 c 7.04903,-39.2933 117.80269,-67.69297 37.29182,-23.69682 -12.27498,4.73249 -28.08,19.81887 -37.29182,23.69682 z"
       style="fill:#ffff00;stroke-width:0.89881"
       id="path125" />
    <path
       style="fill:#ffff00;stroke-width:0.89881"
       d=""
       id="path127" />
    <path
       d="m 370.97219,554.76188 c -59.90317,-9.33191 20.81715,-92.21032 10.03924,-25.27789 4.80902,15.72675 37.65403,-19.21184 7.76064,15.69661 -2.52741,4.40791 -10.96088,13.81007 -17.79988,9.58128 z"
       style="fill:#ffff00;stroke-width:0.89881"
       id="path129" />
    <path
       d="m 316.28486,603.83947 c -10.9796,-42.19571 66.43712,-45.38594 26.78026,-16.24317 -9.86624,0.70898 -19.34124,19.29775 -26.78026,16.24317 z"
       style="fill:#ffff00;stroke-width:0.89881"
       id="path131" />
    <path
       d="m 294.72289,811.14778 c -57.49967,-48.60444 95.52021,-105.29938 108.04738,-35.9787 -5.1888,1.52344 -49.35413,-39.00498 -21.94501,0.15497 26.54884,36.03616 -64.1238,-46.80737 -27.06943,7.42593 19.08083,31.09858 -51.5292,-48.8868 -37.88285,5.87723 35.72736,30.77628 -58.08972,-10.28273 -13.59536,23.44296 z"
       style="fill:#ffff00;stroke-width:0.89881"
       id="path133" />
    <path
       d="m 676.70748,828.8798 c 12.90851,-30.82855 38.75636,-106.1137 21.99848,-30.07518 -2.18891,11.32317 -11.1069,26.2301 -21.99848,30.07518 z"
       style="fill:#ffff00;stroke-width:0.89881"
       id="path135" />
    <path
       d="m 477.87979,527.36408 c 21.13301,-26.31294 107.82171,-40.47077 111.68661,-15.03602 -32.41426,13.9243 -84.14462,5.39668 -111.68661,15.03602 z"
       style="fill:#ffff00;stroke-width:0.635554"
       id="path139" />
    <path
       d="m 626.91009,506.35187 c -23.24402,-18.16527 -140.39128,-4.76752 -55.92878,-21.20004 16.91261,-4.42729 63.42853,14.3953 55.92878,21.20004 z"
       style="fill:#ffff00;stroke-width:0.635554"
       id="path141" />
    <path
       d="m 589.2441,452.37877 c -22.51265,-18.81408 106.26515,-27.50755 70.45885,-0.29773 -23.47181,0.77393 -46.98375,1.11755 -70.45885,0.29773 z"
       style="fill:#ffff00;stroke-width:0.635554"
       id="path143" />
    <path
       d="m 551.91469,477.88982 c 29.72063,-23.00807 93.89543,-4.90659 23.91584,-1.28475 l -14.06475,0.93201 z"
       style="fill:#ffff00;stroke-width:0.635554"
       id="path145" />
    <path
       d="m 430.52381,458.38027 c 42.75028,-59.43829 130.39262,-80.07854 195.26272,-46.14285 -34.64035,6.02706 -49.01565,17.56343 -42.50415,-6.82841 C 528.34747,379.823 478.17693,439.5029 430.52381,458.38027 Z"
       style="fill:#ffff00;stroke-width:0.635554"
       id="path147" />
    <path
       d="m 668.22112,423.30162 c -27.58669,-8.87873 -105.16744,-40.19977 -30.31626,-31.00734 11.13129,-5.29536 54.95673,33.95182 30.31626,31.00734 z"
       style="fill:#ffff00;stroke-width:0.635554"
       id="path149" />
    <path
       d="m 530.30584,388.37031 c 18.16487,-23.61859 133.91986,-3.115 56.24656,-2.06799 -18.77338,-0.0777 -37.4987,2.74283 -56.24656,2.06799 z"
       style="fill:#ffff00;stroke-width:0.635554"
       id="path151" />
    <path
       d="m 450.27625,410.48048 c 14.34696,-21.71485 100.87406,-59.26174 88.9186,-32.86723 -28.11189,13.97914 -59.04,24.76115 -88.9186,32.86723 z"
       style="fill:#ffff00;stroke-width:0.635554"
       id="path153" />
    <path
       d="m 399.26155,566.17964 c -32.79419,-30.38484 75.19105,-73.32447 37.43131,-48.95424 23.84117,-7.7987 -18.1617,69.0708 -37.43131,48.95424 z"
       style="fill:#ffff00;stroke-width:0.635554"
       id="path155" />
    <path
       d="m 337.10834,527.58013 c -4.45491,-31.073 49.66198,-86.76941 60.90086,-80.20278 -19.53635,26.67055 -34.80057,59.99998 -60.90086,80.20278 z"
       style="fill:#ffff00;stroke-width:0.635554"
       id="path157" />
    <path
       d="m 386.9684,526.42463 c -11.83789,-28.76398 36.4836,-76.0467 25.36342,-24.14461 -8.81163,5.84389 -15.78257,22.78794 -25.36342,24.14461 z"
       style="fill:#ffff00;stroke-width:0.635554"
       id="path159" />
    <path
       d="m 472.16805,457.49195 c 34.27248,-17.70406 110.68646,-26.42307 119.22455,-17.73648 -38.93333,9.8571 -79.66525,12.2409 -119.22455,17.73648 z"
       style="fill:#ffff00;stroke-width:0.635554"
       id="path161" />
    <path
       d="m 434.79318,490.12445 c 8.52468,-29.97504 75.73252,-24.46169 21.8994,-5.03516 -7.52612,0.60438 -14.72437,2.87964 -21.8994,5.03516 z"
       style="fill:#ffff00;stroke-width:0.635554"
       id="path163" />
    <path
       d="m 406.37275,529.48081 c 10.45167,-35.22588 94.40612,-58.29174 31.38552,-21.10814 -10.80263,6.44302 -21.05404,14.45736 -31.38552,21.10814 z"
       style="fill:#ffff00;stroke-width:0.635554"
       id="path165" />
    <path
       d="m 446.6075,527.94267 c -0.15132,-41.64783 121.966,-47.52402 41.14194,-22.5028 -11.11738,-2.61912 -40.99185,30.59702 -41.14194,22.5028 z"
       style="fill:#ffff00;stroke-width:0.635554"
       id="path167" />
    <path
       d="m 424.32716,568.06041 c 7.10051,-32.7154 110.31849,-45.97228 33.84326,-14.12473 -11.20351,2.92182 -22.06692,16.86565 -33.84326,14.12473 z"
       style="fill:#ffff00;stroke-width:0.635554"
       id="path169" />
    <path
       d="m 679.6611,484.48167 c -23.72584,-3.75764 -70.70953,-30.1979 -17.0298,-18.66268 5.11301,-3.05321 43.50226,24.36067 17.0298,18.66268 z"
       style="fill:#ffff00;stroke-width:0.635554"
       id="path171" />
    <path
       d="m 705.96491,465.76076 c -91.43529,-37.85798 63.68749,-5.35285 38.19971,-0.38713 -12.70215,-2.66812 -25.44876,1.72085 -38.19971,0.38713 z"
       style="fill:#ffff00;stroke-width:0.635554"
       id="path173" />
    <path
       d="m 737.11623,607.29 c -22.53691,-11.05578 -71.47395,-95.79048 -18.2308,-50.80325 5.00214,4.61522 37.33097,63.75853 18.2308,50.80325 z"
       style="fill:#ffff00;stroke-width:0.635554"
       id="path175" />
    <path
       d="m 704.01426,621.28111 c -10.58587,-19.57451 -70.19177,-81.03583 -13.25581,-45.14545 16.26993,6.74439 24.19932,39.64497 13.25581,45.14545 z"
       style="fill:#ffff00;stroke-width:0.635554"
       id="path177" />
    <path
       d="m 788.55073,653.72522 c -22.70098,-20.60251 -50.6807,-126.26244 -9.70451,-52.02746 6.01557,14.58161 14.5992,39.54251 9.70451,52.02746 z"
       style="fill:#ffff00;stroke-width:0.635554"
       id="path179" />
    <path
       d="m 782.84971,547.50856 c -30.03341,-16.11212 -45.57246,-62.50793 -3.07901,-25.04812 5.02113,1.2404 18.15678,36.95866 3.07901,25.04812 z"
       style="fill:#ffff00;stroke-width:0.635554"
       id="path183" />
    <path
       d="m 841.31407,490.35693 c -17.53653,-22.83428 -75.00497,-81.95671 -15.76886,-34.14031 7.27991,0.73132 29.51905,45.09123 15.76886,34.14031 z"
       style="fill:#ffff00;stroke-width:0.635554"
       id="path185" />
    <path
       d="m 734.24802,510.62746 c -45.92276,-9.5347 -20.83444,-48.99411 0.49411,-7.31949 14.96836,3.22609 3.7483,12.70304 -0.49411,7.31949 z"
       style="fill:#ffff00;stroke-width:0.635554"
       id="path187" />
    <path
       d="m 767.68537,502.40225 c -36.69554,-11.46452 -49.49801,-46.02879 -7.60877,-13.42524 -1.08904,1.45056 20.92565,22.35889 7.60877,13.42524 z"
       style="fill:#ffff00;stroke-width:0.635554"
       id="path189" />
    <path
       d="m 786.752,419.3072 c -18.44175,-4.25285 -80.95278,-26.2032 -24.95025,-16.04018 3.66182,-2.12666 52.06368,24.12285 24.95025,16.04018 z"
       style="fill:#ffff00;stroke-width:0.635554"
       id="path191" />
    <path
       d="m 699.68106,532.13203 c -46.25253,-0.53646 -29.5181,-48.02916 4.02273,-9.46655 7.41192,6.28934 5.37977,14.49673 -4.02273,9.46655 z"
       style="fill:#ffff00;stroke-width:0.635554"
       id="path193" />
    <path
       d="m 766.1848,776.69771 c 12.22211,-42.4322 17.62069,-22.93115 0,0 z"
       style="fill:#ffff00;stroke-width:0.317777"
       id="path195" />
    <path
       d="m 796.14684,767.67034 c -4.60251,-22.41477 15.72434,-7.1069 0,0 z"
       style="fill:#ffff00;stroke-width:0.317777"
       id="path197" />
    <path
       d="m 276.84415,599.5935 c 7.11672,-32.42634 54.08132,-48.60126 21.57251,-9.85491 -7.64933,0.19658 -17.35608,5.36196 -21.57251,9.85491 z"
       style="fill:#ffff00;stroke-width:0.449405"
       id="path199" />
    <path
       d="m 327.96841,572.2305 c -5.00835,-53.72204 39.31434,-24.53237 0,0 z"
       style="fill:#ffff00;stroke-width:0.449405"
       id="path201" />
    <path
       d="m 312.86867,632.28721 c -4.43104,-39.37898 64.41539,-59.23496 14.52452,-13.82988 -4.67939,0.32719 -9.20027,20.81154 -14.52452,13.82988 z"
       style="fill:#ffff00;stroke-width:0.449405"
       id="path203" />
    <path
       d="m 324.86789,635.26826 c -0.67053,-31.01326 48.7262,-53.73082 13.56401,-8.59475 -1.74452,1.92375 -8.14535,12.33955 -13.56401,8.59475 z"
       style="fill:#ffff00;stroke-width:0.449405"
       id="path205" />
    <path
       d="m 340.35969,641.33045 c 9.63379,-32.90795 89.16242,-90.59882 31.01446,-30.4902 -10.4127,10.08689 -20.5682,20.44359 -31.01446,30.4902 z"
       style="fill:#ffff00;stroke-width:0.449405"
       id="path207" />
    <path
       d="m 325.80628,648.68864 c 13.83076,-25.39361 58.78914,-79.42928 22.24362,-22.69605 -6.34077,6.51988 -12.21515,22.68851 -22.24362,22.69605 z"
       style="fill:#ffff00;stroke-width:0.449405"
       id="path209" />
    <path
       d="m 271.45243,643.20642 c 0.0369,-22.56026 43.95193,-50.9954 1.46902,-28.90624 40.957,-55.12368 26.75483,10.71656 -1.46902,28.90624 z"
       style="fill:#ffff00;stroke-width:0.449405"
       id="path211" />
    <path
       d="m 277.80596,658.86115 c 2.88615,-43.48919 12.37344,-8.80869 0,0 z"
       style="fill:#ffff00;stroke-width:0.449405"
       id="path213" />
    <path
       d="m 288.75338,710.4334 c -16.00136,-15.20166 21.93803,-26.20331 0,0 z"
       style="fill:#ffff00;stroke-width:0.449405"
       id="path215" />
    <path
       d="m 310.80591,654.74609 c 7.91353,-29.34175 22.06011,-18.52514 0,0 z"
       style="fill:#ffff00;stroke-width:0.449405"
       id="path217" />
    <path
       d="m 288.76695,664.40327 c 4.65125,-35.43252 15.38508,-22.12378 0,0 z"
       style="fill:#ffff00;stroke-width:0.449405"
       id="path219" />
    <path
       d="m 603.48978,1366.7468 c -16.17717,-22.9118 -10.81709,-72.0399 5.40433,-20.5738 -3.34146,-3.4933 -1.24964,31.0454 -5.40433,20.5738 z"
       style="fill:#ffff00;stroke-width:0.449405"
       id="path227" />
    <path
       d="m 593.01715,1376.6437 c -20.35206,-22.6073 -25.38187,-85.0364 -3.92858,-22.6961 -0.73709,3.7922 19.07566,31.5699 3.92858,22.6961 z"
       style="fill:#ffff00;stroke-width:0.449405"
       id="path229" />
    <path
       d="m 612.17581,1400.1151 c 18.0563,-26.4763 13.2352,-78.5214 17.55345,-16.2787 -1.75537,7.1346 -7.52131,21.7243 -17.55345,16.2787 z"
       style="fill:#ffff00;stroke-width:0.449405"
       id="path231" />
    <path
       d="m 627.68428,1401.471 c -2.71196,-28.1403 30.5044,-30.3193 0,0 z"
       style="fill:#ffff00;stroke-width:0.449405"
       id="path233" />
    <path
       d="m 615.96273,1340.5816 c -6.85703,-29.3496 17.30699,-8.6127 0,0 z"
       style="fill:#ffff00;stroke-width:0.449405"
       id="path235" />
    <path
       d="m 577.88436,1404.5981 c -11.85086,-36.221 -16.10981,-59.5258 1.95852,-11.5199 -0.93497,-0.056 7.43939,17.0375 -1.95852,11.5199 z"
       style="fill:#ffff00;stroke-width:0.449405"
       id="path237" />
    <path
       d="M 916.17654,636.9676 C 889.774,619.88909 867.2206,515.16017 903.04096,586.09305 c 5.76133,10.06176 30.19435,52.8342 13.13558,50.87455 z"
       style="fill:#ffff00;stroke-width:0.89881"
       id="path239" />
    <path
       d="m 894.59029,667.0062 c -23.61416,-16.40942 -5.91379,-37.81537 -23.4661,-13.72025 -26.25461,-50.34903 71.64002,15.74529 23.4661,13.72025 z"
       style="fill:#ffff00;stroke-width:0.89881"
       id="path241" />
    <path
       d="m 892.83053,706.88771 c -22.60127,-34.62377 19.12446,-12.46109 4.19609,2.56847 z"
       style="fill:#ffff00;stroke-width:0.89881"
       id="path243" />
    <path
       d="m 953.00442,688.90007 c -69.25755,-77.74501 53.42008,17.35062 0,0 z"
       style="fill:#ffff00;stroke-width:0.89881"
       id="path245" />
    <path
       d="m 782.26107,934.8945 c 31.81849,-14.37448 -75.62371,6.83454 -44.50626,-46.10051 18.10553,-50.44004 60.66696,30.99397 19.53595,16.79847 -0.16743,-8.73255 24.72511,-24.89715 -3.71153,-19.02548 -25.17267,45.63016 62.93536,24.3602 23.01445,-14.8463 43.63999,-11.02622 114.73302,41.8006 36.46041,59.10356 -10.05232,1.31179 -20.63075,5.8383 -30.79302,4.07026 z"
       style="fill:#ffffff;stroke-width:1.79762"
       id="path247" />
    <path
       d="m 414.96558,943.58954 c 19.0318,-13.60522 43.23994,-74.17408 -8.88173,-60.74054 -28.33047,21.67063 4.99702,67.59731 18.09727,23.14852 -50.02865,1.37187 26.06663,-38.49611 6.45656,11.61821 -59.77018,63.04486 -83.00366,-68.35595 -2.75535,-42.34137 64.02345,11.89409 48.24598,78.2557 -12.91675,68.31518 z"
       style="fill:#ffffff;stroke-width:1.27111"
       id="path249" />
    <path
       d="m 363.80346,930.87798 c -43.32582,-2.2296 -54.66016,-35.60065 -4.29748,-36.31049 -5.46474,5.02978 18.12053,41.176 4.29748,36.31049 z"
       style="fill:#ffffff;stroke-width:1.27111"
       id="path251" />
    <path
       d="m 588.38547,1283.9131 c -15.70172,-2.4595 -105.59786,-16.9841 -49.43453,-13.1338 46.51776,3.6714 168.84044,-2.4767 152.58046,-2.7114 -31.64579,16.5794 -68.12458,19.5275 -103.14593,15.8452 z"
       style="fill:#de8787;stroke-width:0.89881"
       id="path253" />
    <path
       d="m 536.88144,1264.5972 c -12.23582,-16.3951 78.66637,-6.5839 104.71747,-11.9026 26.02103,-7.0384 102.91249,-5.2587 36.63475,9.0191 -46.61053,6.0729 -94.40512,2.4843 -141.35222,2.8835 z"
       style="fill:#de8787;stroke-width:0.89881"
       id="path255" />
    <g
       transform="matrix(3.9350039,0,-0.12023125,3.0729503,356.68858,493.16681)"
       id="g1509">
      <g
         transform="matrix(0.52900596,0,0,0.64883731,-178.24319,-96.795445)"
         id="g1173">
        <path
           d="M 555.37909,729.37125 C 513.11261,716.66171 466.2586,717.05587 428.57368,691.35113 378.86743,665.63881 332.32843,633.21704 292.59987,593.90931 c -11.27108,-36.29325 42.91907,-37.37283 51.49737,-6.7239 48.13037,44.25292 109.44443,74.65624 174.03537,84.9011 37.21358,3.91904 76.73338,5.26734 112.39538,-7.09722 15.46134,-10.46569 48.80139,-35.99537 43.80664,-47.21208 -27.42658,-21.70777 -22.55158,-63.98908 -35.95118,-93.8303 -0.77578,-30.97856 47.09734,-17.70503 30.60875,-50.33526 -6.94526,-117.52854 -20.22392,-235.62882 -10.47908,-353.24811 2.29628,-37.699843 44.15516,-36.521617 46.23146,-0.30519 12.44685,45.13915 6.83267,92.70084 9.63988,138.92644 -0.24068,77.47447 -2.19937,154.98546 -5.50187,232.31938 -6.11971,29.75951 45.42023,34.56629 30.13318,67.63883 -2.71455,29.57933 7.45205,60.65788 -19.62922,81.65698 -9.95705,41.05137 -47.65914,63.82441 -85.15967,76.53904 -25.51922,7.50244 -52.04097,14.3675 -78.84779,12.23223 z M 577.11926,724 c 31.48789,-6.76836 29.52521,-70.26446 -6.46099,-41.26438 C 554.8779,700.9769 532.59601,735.93336 577.11926,724 Z m 30.59788,-2.90677 c 36.88556,4.12831 39.7771,-78.1451 1.81174,-43.01052 -11.48062,15.07835 -10.92177,39.21606 -30.05899,48.07012 9.57608,-0.55086 19.04435,-2.39815 28.24725,-5.0596 z M 541.29947,717.75 c 33.51285,-4.80004 16.20153,-65.67638 -10.96896,-32.83123 -16.84808,18.97345 -25.35839,41.344 10.96896,32.83123 z m 90.52977,-3.27402 c 35.66361,4.70985 58.68848,-56.69895 26.84992,-70.58614 -25.01686,15.082 -13.31478,53.98908 -30.95553,71.86159 z M 517.46705,701.12079 c 30.95108,-32.76573 -43.76316,-37.63273 -44.93491,-4.55424 -11.22358,17.41057 43.72986,21.50335 44.93491,4.55424 z m -50.36053,-1.75438 c 42.9473,-22.53539 -17.80883,-53.01422 -30.44974,-13.59713 -1.90077,13.21248 21.42794,14.45699 30.44974,13.59713 z m 213.28314,-8.50952 c 35.71516,-2.8339 16.19667,-86.26846 -7.7485,-55.70996 -1.76875,16.52176 4.38048,60.57196 3.46808,59.84234 z M 438.69947,680.82762 c 39.85539,-23.46841 -33.96075,-48.79447 -41.92106,-14.07574 8.23424,11.59132 28.19705,16.68973 41.92106,14.07574 z M 708.923,663.46144 c 27.07124,-13.52872 -13.45452,-70.82713 -10.33083,-28.02052 2.00448,4.66485 -0.86436,43.98872 10.33083,28.02052 z m -310.13414,-1.67987 c 46.71396,-12.59449 -32.82643,-50.65081 -30.51396,-10.69194 9.27722,4.76852 19.04275,18.48603 30.51396,10.69194 z m -26.32803,-24.02411 c 31.46653,-19.50619 -36.24867,-50.93122 -41.00413,-16.44415 6.6021,11.82842 28.29601,25.20156 41.00413,16.44415 z m 358.30601,-17.05914 c 22.29194,-38.04124 -43.61304,-31.04233 -65.21749,-41.14962 -23.88373,14.60626 20.0731,47.40723 40.06933,36.18106 8.41008,1.32139 16.39726,6.77638 25.14816,4.96856 z m -45.44672,-2.50519 c -3.43969,0.33158 -1.10094,3.01587 0,0 z m -345.04957,-6.73672 c 27.63481,-22.9826 -52.60478,-65.03307 -43.6675,-26.26061 6.12487,16.56167 24.7927,34.75441 43.6675,26.26061 z m 394.08198,-26.87449 c 6.06848,-35.88451 -42.11937,-46.95692 -68.2856,-53.3911 -40.22357,9.8304 2.80854,51.73504 27.19402,52.771 13.47004,1.11785 27.74669,3.09947 41.09158,0.6201 z m 2.54589,-33.53226 c -4.93944,-38.73672 -51.66159,-44.18587 -83.10856,-45.77479 -27.87674,3.82962 -1.33975,40.04713 18.25747,23.00207 22.96515,3.62694 41.17742,21.9277 64.85109,22.77272 z M 705.51643,510.2 c 16.98955,-29.99753 -48.1434,-60.95053 -30.99171,-16.78629 5.67655,11.57004 19.37522,14.95246 30.99171,16.78629 z m 0.36015,-48.7 c 21.86513,-32.08176 -61.70206,-53.77314 -33.69054,-11.1586 4.2217,13.23298 31.65355,43.11346 33.69054,11.1586 z m 0.20268,-32.01536 c 18.51327,-25.6691 -26.4907,-63.22497 -39.89296,-40.69695 -1.64552,25.83691 14.42578,43.73447 39.89296,40.69695 z m 2.35694,-45.42395 c 16.08835,-29.13876 -29.64609,-53.22622 -45.1653,-40.04639 -3.05472,23.9563 22.07132,51.43021 45.1653,40.04639 z m 1.38216,-64.39402 c 16.88102,-29.9024 -66.93969,-62.47148 -50.19705,-15.30557 -2.26307,29.73162 59.90811,67.35159 50.19705,15.30557 z m 0,-52.05417 c 8.18709,-27.44017 -43.53134,-38.26662 -51.67291,-37.02786 -17.59644,29.30256 45.90344,79.55816 51.35683,41.75307 z m 0.14821,-47.14983 c 17.31928,-29.42653 -59.61537,-60.44032 -53.23429,-24.51871 -1.57975,24.30678 48.63461,66.27632 53.23429,24.51871 z M 708.6548,179.25 c 15.12696,-28.40533 -45.63996,-73.61842 -50.36431,-33.2787 -5.81306,21.82069 39.96251,56.19665 50.36431,33.2787 z m -4.85915,-43.53466 c 11.39669,-26.36082 -43.08463,-61.62535 -38.54259,-18.71858 8.76603,11.80498 23.55629,20.18648 38.54259,18.71858 z m 195.3076,79.9071 c 1.40682,-4.51444 3.38011,-0.24678 0,0 z M 872.43129,83.622445 c 1.40683,-4.514413 3.38009,-0.246808 0,0 z"
           style="fill:#000000;stroke-width:0.92757"
           id="path125-4" />
        <path
           d="m 356.67913,639.86938 c -33.7797,-5.70474 -23.11947,-42.08946 7.59751,-31.84344 22.46897,9.96149 23.0931,38.91213 -7.59751,31.84344 z"
           style="opacity:1;fill:#28170b;fill-opacity:1;stroke-width:0.544835"
           id="path137-4" />
        <path
           d="m 532.11614,718.18886 c -40.2182,5.76863 3.31962,-54.75262 25.07885,-39.45962 13.59734,14.1214 -8.30569,41.35618 -25.07885,39.45962 z"
           style="opacity:1;fill:#28170b;fill-opacity:1;stroke-width:0.544835"
           id="path982-1" />
        <path
           d="m 713.64113,586.33649 c -26.47823,0.65466 -63.22586,-17.06144 -63.80421,-45.86501 25.29971,-19.63947 61.44815,3.31094 80.7625,22.0247 12.98323,14.48654 1.11405,29.39169 -16.95829,23.84031 z"
           style="opacity:1;fill:#28170b;fill-opacity:1;stroke-width:0.544835"
           id="path984-7" />
        <path
           d="m 697.19753,386.22717 c -28.21308,6.10047 -50.91689,-64.00117 -13.07006,-41.84656 25.75631,-2.12229 40.04395,39.32576 13.07006,41.84656 z"
           style="opacity:1;fill:#28170b;fill-opacity:1;stroke-width:0.544835"
           id="path986-1" />
        <path
           d="m 693.65984,185.39224 c -24.73734,-3.83942 -48.00148,-32.11415 -28.33427,-54.52554 29.38785,-13.29319 66.6993,55.79904 28.33427,54.52554 z"
           style="opacity:1;fill:#28170b;fill-opacity:1;stroke-width:0.544835"
           id="path988-1" />
        <path
           d="m 419.60762,678.81595 c -52.19105,-7.01025 22.28316,-53.72673 30.36071,-13.56261 4.21712,16.89696 -19.71345,21.29431 -30.36071,13.56261 z"
           style="opacity:1;fill:#784421;fill-opacity:1;stroke-width:0.544835"
           id="path990-0" />
        <path
           d="m 626.64508,715.01979 c 23.0817,-15.5197 7.14325,-74.65011 39.01335,-69.18908 18.8698,31.39394 -1.88851,70.58623 -39.01335,69.18908 z"
           style="opacity:1;fill:#784421;fill-opacity:1;stroke-width:0.544835"
           id="path992-4" />
        <path
           d="m 696.38401,285.02437 c -32.32401,9.55249 -57.56483,-72.27531 -19.03974,-50.64752 24.58289,-0.0289 55.20659,49.41212 19.03974,50.64752 z"
           style="opacity:1;fill:#784421;fill-opacity:1;stroke-width:0.544835"
           id="path994-2" />
        <path
           d="m 728.26537,549.83243 c -24.24714,-18.38581 -67.21733,-15.24543 -84.86228,-29.26685 11.22318,-34.15193 67.28197,-5.66378 86.53082,10.82661 4.69569,5.20979 13.93451,23.56391 -1.66854,18.44024 z"
           style="opacity:1;fill:#784421;fill-opacity:1;stroke-width:0.544835"
           id="path996-0" />
        <path
           d="m 327.25802,613.38066 c -27.5457,2.93125 -46.75688,-62.80074 -7.18917,-39.29979 16.66154,8.92234 48.53259,39.42724 7.18917,39.29979 z"
           style="opacity:1;fill:#a05a2c;fill-opacity:1;stroke-width:0.544835"
           id="path998-2" />
        <path
           d="m 559.90274,725.04715 c -25.63287,-8.99243 15.89608,-60.19075 36.75394,-46.55859 11.86587,20.91054 -13.00368,52.58654 -36.75394,46.55859 z"
           style="opacity:1;fill:#a05a2c;fill-opacity:1;stroke-width:0.544835"
           id="path1000-1" />
        <path
           d="m 723.26116,620.40388 c -22.73761,-3.52715 -75.39708,-9.24622 -62.41046,-38.97744 24.96211,7.19316 63.49925,2.15647 76.62933,25.35288 1.33072,7.99875 -6.14803,15.37236 -14.21887,13.62456 z"
           style="opacity:1;fill:#a05a2c;fill-opacity:1;stroke-width:0.544835"
           id="path1002-0" />
        <path
           d="m 695.19827,474.73606 c -28.2516,-4.57994 -38.27915,-67.84015 -0.87705,-44.06735 18.78991,0.15432 18.01957,43.59279 0.87705,44.06735 z"
           style="opacity:1;fill:#a05a2c;fill-opacity:1;stroke-width:0.544835"
           id="path1004-7" />
        <path
           d="m 696.23624,135.55142 c -30.64121,7.46117 -42.04236,-55.369671 -8.95132,-36.179074 6.67485,6.274214 28.99848,34.331254 8.95132,36.179074 z"
           style="opacity:1;fill:#a05a2c;fill-opacity:1;stroke-width:0.544835"
           id="path1006-5" />
        <path
           d="m 488.80172,710.72558 c -42.17059,-1.87706 12.73725,-58.66697 32.70143,-31.44078 15.72517,16.8705 -17.47856,38.65455 -32.70143,31.44078 z"
           style="opacity:1;fill:#c87137;fill-opacity:1;stroke-width:0.544835"
           id="path1008-5" />
        <path
           d="m 488.80172,710.72558 c -42.17059,-1.87706 12.73725,-58.66697 32.70143,-31.44078 15.72517,16.8705 -17.47856,38.65455 -32.70143,31.44078 z"
           style="opacity:1;fill:#c87137;fill-opacity:1;stroke-width:0.544835"
           id="path1010-3" />
        <path
           d="m 386.60589,662.76495 c -42.74478,-12.5009 13.63139,-48.2159 27.18363,-17.61618 1.89949,14.15229 -16.23279,19.51759 -27.18363,17.61618 z"
           style="opacity:1;fill:#c87137;fill-opacity:1;stroke-width:0.544835"
           id="path1012-1" />
        <path
           d="m 694.22646,238.27938 c -30.34565,1.46997 -56.36017,-72.61188 -15.05975,-56.28314 26.65686,2.06113 52.33093,53.2309 15.05975,56.28314 z"
           style="opacity:1;fill:#c87137;fill-opacity:1;stroke-width:0.544835"
           id="path1014-4" />
        <path
           d="m 696.38388,507.17258 c -30.63992,7.36029 -31.23145,-58.87535 0.17841,-31.1428 9.1087,2.31535 16.05895,40.03152 -0.17841,31.1428 z"
           style="opacity:1;fill:#c87137;fill-opacity:1;stroke-width:0.544835"
           id="path1016-7" />
        <path
           d="m 672.14816,697.2973 c 15.07792,-20.71471 -19.66929,-68.92788 18.24266,-70.90674 10.89173,24.97957 14.39833,60.74814 -18.24266,70.90674 z"
           style="opacity:1;fill:#c87137;fill-opacity:1;stroke-width:0.544835"
           id="path1018-1" />
        <path
           d="m 454.61523,699.49827 c -41.90817,-2.98734 19.52184,-56.55225 29.37147,-24.39926 0.27447,13.87779 -15.38508,28.44115 -29.37147,24.39926 z"
           style="opacity:1;fill:#d38d5f;fill-opacity:1;stroke-width:0.544835"
           id="path1020-3" />
        <path
           d="m 584.61185,723.19354 c 14.76148,-15.13801 30.03636,-76.63533 53.9658,-42.67548 1.27207,26.14877 -29.18587,49.33914 -53.9658,42.67548 z"
           style="opacity:1;fill:#d38d5f;fill-opacity:1;stroke-width:0.544835"
           id="path1022-5" />
        <path
           d="m 703.79929,667.44739 c -9.06807,-14.88143 -9.34701,-71.73219 12.07688,-35.30009 0.98438,11.96892 0.0316,29.03692 -12.07688,35.30009 z"
           style="opacity:1;fill:#d38d5f;fill-opacity:1;stroke-width:0.544835"
           id="path1024-7" />
        <path
           d="m 694.74951,428.423 c -29.36975,6.58747 -41.95764,-68.36639 -5.47946,-39.86077 24.01659,-3.79109 28.6652,45.8892 5.47946,39.86077 z"
           style="opacity:1;fill:#d38d5f;fill-opacity:1;stroke-width:0.544835"
           id="path1026-9" />
        <path
           d="m 697.20127,345.57303 c -31.88688,-3.59551 -44.39041,-44.51854 -33.38728,-69.07601 26.28059,8.80417 56.969,23.33058 46.87433,57.1673 -0.72146,6.54395 -5.59246,15.09292 -13.48705,11.90871 z"
           style="opacity:1;fill:#d38d5f;fill-opacity:1;stroke-width:0.544835"
           id="path1028-4" />
      </g>
      <path
         d="m -11.609059,268.04212 c 6.8495241,-12.49954 41.925446,-13.64068 25.767453,4.73751 -8.7996225,5.71575 -15.7116235,16.04464 -1.763326,4.86954 19.913829,-10.70031 -0.598269,-31.13859 -15.658485,-17.97515 -3.2191211,1.95553 -7.879937,4.0738 -8.345642,8.3681 z"
         style="fill:#000000;fill-opacity:1;stroke-width:0.264583"
         id="path1470" />
      <path
         d="m -11.02513,267.78267 c 0.623954,-3.47282 -4.385525,7.53411 0.750981,-1.50625 -7.698021,8.48279 15.6012444,-14.06343 23.804458,-5.85369 17.887363,4.02798 -26.064856,32.42508 -2.825169,17.4895 21.58409,-11.53084 -2.0610353,-29.58621 -16.1993119,-16.05546 -8.0615061,3.88541 -8.8833371,12.63877 -3.970899,3.66262 -1.4452551,-0.69242 -4.3591291,1.65956 -1.5600591,2.26328 z"
         style="fill:#000000;fill-opacity:1;stroke-width:0.264583"
         id="path1472" />
      <path
         d="m 12.866139,257.31962 c -0.744655,1.71097 -1.23235,4.33254 2.616508,1.20942 0.171455,-3.08066 -9.3833381,-0.37669 -2.616508,-1.20942 z"
         style="fill:#550000;fill-opacity:1;stroke-width:0.264583"
         id="path1474" />
      <path
         d="M 1.053967,281.12265 C -21.715244,269.97242 9.3711189,247.4762 17.894909,265.89483 15.906429,271.32172 6.144098,281.69985 1.053967,281.12265 Z"
         style="fill:#550000;fill-opacity:1;stroke-width:0.133635"
         id="path1476" />
    </g>
  </g>
</svg>
