<?xml version="1.0" encoding="UTF-8" standalone="no"?>
<svg
   xmlns:dc="http://purl.org/dc/elements/1.1/"
   xmlns:cc="http://creativecommons.org/ns#"
   xmlns:rdf="http://www.w3.org/1999/02/22-rdf-syntax-ns#"
   xmlns:svg="http://www.w3.org/2000/svg"
   xmlns="http://www.w3.org/2000/svg"
   xmlns:sodipodi="http://sodipodi.sourceforge.net/DTD/sodipodi-0.dtd"
   xmlns:inkscape="http://www.inkscape.org/namespaces/inkscape"
   inkscape:version="1.0 (4035a4fb49, 2020-05-01)"
   sodipodi:docname="villager5knot.svg"
   viewBox="0 0 1100.1436 1638.9607"
   height="1638.9607"
   width="1100.1436"
   id="svg808"
   version="1.1">
  <metadata
     id="metadata814">
    <rdf:RDF>
      <cc:Work
         rdf:about="">
        <dc:format>image/svg+xml</dc:format>
        <dc:type
           rdf:resource="http://purl.org/dc/dcmitype/StillImage" />
        <dc:title></dc:title>
      </cc:Work>
    </rdf:RDF>
  </metadata>
  <defs
     id="defs812" />
  <sodipodi:namedview
     inkscape:current-layer="g816"
     inkscape:window-maximized="1"
     inkscape:window-y="-11"
     inkscape:window-x="-11"
     inkscape:cy="725.73874"
     inkscape:cx="754.99874"
     inkscape:zoom="0.41721855"
     showgrid="false"
     id="namedview810"
     inkscape:window-height="1826"
     inkscape:window-width="1080"
     inkscape:pageshadow="2"
     inkscape:pageopacity="0"
     guidetolerance="10"
     gridtolerance="10"
     objecttolerance="10"
     borderopacity="1"
     bordercolor="#666666"
     pagecolor="#ffffff"
     inkscape:document-rotation="0"
     fit-margin-top="0"
     fit-margin-left="0"
     fit-margin-right="0"
     fit-margin-bottom="0" />
  <g
     id="g816"
     inkscape:label="Image"
     inkscape:groupmode="layer"
     transform="translate(-157.07955,-600.27687)">
    <path
       d="m 833.07932,2236.2703 c -67.18709,-18.9126 -136.29912,-20.8292 -204.86572,-20.9151 -62.83062,-11.9548 -135.2378,18.0001 -191.82389,-0.9174 39.17896,-2.1426 114.91806,-120.3322 99.28929,-107.7432 -10.62587,22.0209 -62.58621,60.9934 -18.46814,16.2398 30.2474,-67.6251 29.33062,-149.8833 11.25462,-219.8636 -47.91106,-45.6264 -112.17403,-74.6314 -153.06241,-127.5984 -27.22209,29.4962 -109.23825,-25.1205 -108.81286,-86.0279 -8.09057,-1.9643 -15.81655,45.4451 -18.57263,-5.501 -0.19838,-28.239 -31.84716,-94.53 -21.4188,-28.4588 -26.21366,73.0259 -13.66585,-205.501 -18.15461,-103.8591 2.4815,-73.9089 -30.34542,-144.6553 -23.13946,-219.2546 -2.69302,-86.742 3.30044,-174.0835 26.07715,-258.2751 -12.65888,2.0962 -29.16862,154.9267 -53.52742,113.5956 14.04149,-74.8992 48.72115,-157.3763 55.334,-226.07765 15.45307,-71.47654 68.9166,-157.98239 148.9971,-202.59242 39.82311,-11.53299 118.93451,-123.98172 112.35958,-100.98451 -33.64555,29.53062 -74.2339,84.05543 -55.30325,67.82205 -18.90317,41.40747 70.30259,-46.64572 92.51667,-57.96044 13.12845,-9.81425 49.09788,-32.47341 26.15999,-11.20086 37.91092,-21.20297 95.32795,-60.58027 108.27781,-36.08094 -29.41046,15.28576 121.7966,-45.41941 42.43858,0.0279 38.65459,6.22018 114.53814,-37.78071 125.88102,-3.85838 -41.19683,19.28102 -64.35564,30.9086 -4.14356,9.97391 28.45344,-12.88821 85.56041,-14.89146 26.43826,7.176 -18.75945,19.88827 122.08349,-25.72102 41.39878,6.18022 -96.49705,21.93224 116.9005,-2.3198 31.0468,21.19231 -103.26036,39.91753 89.5156,-33.37565 37.40666,14.00634 41.33291,-16.99359 63.69102,1.68991 5.88696,6.698 -97.271,36.40835 69.44136,-10.45079 44.73475,13.50948 -66.80536,24.46789 65.62631,-9.00816 54.94201,25.89224 31.9922,4.10427 128.7914,18.11178 42.1989,31.39814 -42.2421,5.51328 130.2027,14.79549 50.8583,36.57961 -37.8473,11.48582 49.4966,17.63352 13.4777,50.65137 33.2366,39.00299 -36.4241,19.7131 -20.151,26.62916 35.3099,59.7416 87.6122,107.73876 106.4992,175.26254 11.3051,47.7639 -32.2587,-14.2107 -12.0819,40.5261 13.3409,70.293 32.4484,133.3437 -3.2383,197.9638 -11.0548,69.2511 9.1326,114.7857 -13.1155,184.1033 -14.2063,74.0719 -50.6228,138.7168 -74.479,209.5159 -1.4602,24.8885 -49.0215,148.5403 -36.3624,61.7991 -7.1653,-49.3409 -50.9535,108.276 -31.7445,24.6859 8.4553,-60.4479 -45.7564,68.6527 -71.2231,78.2845 81.7601,-71.0635 -22.39034,34.6138 -58.35786,43.0643 -87.69051,26.8451 -54.57415,136.4094 -41.21762,204.5239 9.74883,56.7282 54.30968,107.5453 82.95025,144.9359 -53.00635,-17.4818 -100.73396,12.7085 -153.16045,4.932 z m 36.62065,-5.48 c 32.20943,-19.3022 124.64459,2.8112 66.69908,-43.6757 -53.39264,-73.0089 -62.03951,-165.4466 -63.79771,-252.787 -55.72188,-30.0121 -141.10537,47.724 -210.9793,22.0318 -39.07683,-19.6208 -56.80766,52.3312 -37.91068,-17.2521 -9.65861,-23.7642 -78.82856,10.5478 -32.76796,-14.0607 -82.49944,-42.8646 -2.35289,53.589 30.59664,67.9266 22.07259,43.706 -109.27735,-95.8649 -59.96661,2.2232 10.50644,40.5423 108.64096,81.5349 28.31737,40.9054 -40.67714,-42.4482 -44.39641,-18.318 -10.27269,17.7286 34.98199,23.0914 46.26875,45.1304 -1.54342,14.7634 -61.91915,-80.7422 -0.74715,52.7087 25.93728,73.4189 37.84127,34.5283 -111.69164,-56.3692 -30.13749,-14.9112 -7.27865,-33.2968 -32.72246,-64.1129 -37.83335,-7.8996 -27.18039,37.8235 -107.97304,114.0931 -9.93015,90.8937 70.56748,-10.803 139.37599,3.3077 210.11017,-0.022 45.13237,-0.2818 91.78173,22.0582 133.47882,20.717 z m -324.39839,-33.106 c -43.48638,-0.1784 -54.03481,-48.5423 -3.02339,-11.1517 20.76975,3.559 32.2912,12.495 3.02339,11.1517 z m 19.87819,-13.0576 c -43.3653,3.9019 -40.64848,-82.2944 -16.16976,-19.7719 5.84637,7.8779 57.93282,18.9929 16.16976,19.7719 z m 16.58015,-9.412 c -40.47714,1.073 -56.4696,-79.973 -17.90401,-21.7392 7.33258,6.8061 53.41429,22.713 17.90401,21.7392 z M 735.7858,1939.9315 c 30.35693,-5.1045 100.95249,-11.3101 117.53937,-27.7741 48.57578,-31.8267 109.67425,-77.4688 144.37642,-133.6094 42.75001,-59.6699 84.02701,-121.3079 101.11431,-193.8059 21.4956,-38.7743 40.7607,-102.0234 39.1452,-133.7666 0,45.4787 -30.9153,75.8685 -9.1197,13.958 24.9185,-66.2685 29.6429,-116.7016 37.4572,-172.6647 4.4462,-37.4171 -6.2547,-68.5919 -12.3679,-13.7145 1.1657,31.1705 -34.4197,153.8933 -21.017,69.303 20.7796,-78.6487 27.0891,-159.2046 32.0515,-239.1611 C 1092.2758,1074.4163 1133.8886,994.96389 1064.41,950.50194 990.04707,913.17032 939.0998,851.49427 894.71422,786.34411 838.76762,722.97303 748.62929,738.37255 673.2778,724.2341 c -53.55833,12.91463 -133.65412,28.95793 -158.7013,36.47492 -57.33767,41.49469 -75.18653,79.91639 -111.79863,148.5481 -13.72183,39.88186 -132.25011,141.47748 -38.90828,147.18428 51.72424,29.6529 77.32169,-6.1473 57.87774,-54.3486 9.02976,-74.45078 88.0256,124.4967 64.92019,24.3473 20.56258,-86.13857 55.51783,65.0564 95.94566,71.8879 -51.05299,5.5249 -63.74466,-89.0927 -85.42254,-79.4782 -2.1479,94.5342 124.46988,75.5063 151.33821,157.3517 25.30079,66.2137 14.24042,145.6163 1.11192,213.6218 -50.0513,-0.3541 -73.47887,74.2672 -32.86929,99.7005 16.75285,-111.084 105.61049,92.3754 127.30884,-25.6436 43.62066,-65.2441 82.99257,73.4917 96.10523,-5.9375 -20.61089,41.1842 -20.70691,-94.5829 -81.89831,-65.1889 -47.89686,-72.6337 -2.16809,-165.6656 34.28364,-233.2416 29.51113,-34.5431 113.40358,-79.9337 99.72326,-116.6217 -6.17781,36.8498 -118.82805,113.0374 -45.61662,51.3674 34.5074,-12.7477 70.75239,-138.20636 54.61181,-40.8797 -38.89278,85.2892 81.69613,-26.2958 88.33581,-68.0199 37.14606,-12.28858 -45.45042,114.9408 27.75506,69.0362 22.2976,-12.194 83.7116,-97.94516 62.5602,-22.3239 -19.3429,19.4933 -30.8161,55.8093 7.007,60.6948 -80.9968,-38.9221 -162.02908,-3.8942 -233.79065,36.2807 -55.51179,30.5879 -98.11139,95.3374 -94.26236,168.3653 -7.90226,39.5973 -14.20273,92.3811 51.06021,81.0841 76.72051,22.8985 26.07621,164.0148 -35.37831,100.2966 -2.31761,-13.3177 -96.48925,75.3557 -127.85233,2.2993 -73.00568,85.645 -93.46795,-78.4092 -38.70327,-92.06 39.68374,-23.5021 34.75837,-50.0322 29.74984,-72.0459 13.08885,-54.7955 22.17645,-141.4599 -45.26965,-183.4295 -66.84214,-44.9233 -180.62169,-81.7306 -233.2697,3.1518 7.67019,38.9164 -38.53082,54.3826 -41.07143,55.0759 4.42056,-55.2263 -64.19033,-11.3107 -23.82724,24.419 12.09215,53.6467 109.25199,57.8532 65.44222,-2.9658 15.61963,50.1793 64.44558,13.6727 31.65384,-20.2846 -32.67705,20.5637 85.0426,-55.4303 8.19762,-22.8052 -22.70666,-2.4362 118.5979,-17.5971 36.73275,-25.971 60.427,-2.2025 172.24709,8.4506 173.32103,83.6181 -4.97291,-47.3902 -113.28131,-75.4621 -88.04783,-26.6408 43.65344,-11.9681 136.9836,74.2698 77.11759,81.5922 -50.53571,-33.3592 -13.54778,79.8911 -38.07443,6.7895 -28.37574,16.0876 -110.84613,-8.0999 -123.89596,40.0003 13.61942,-46.0087 -43.38124,-44.1745 -35.10617,-10.6723 10.24504,-49.9842 -50.09028,-46.5043 -84.03037,-56.379 32.04868,17.5393 25.68906,-0.5041 10.5381,25.7686 32.86941,-21.5557 -9.6864,40.1877 32.68594,58.6085 31.15163,19.7399 63.51806,94.3616 8.48656,39.6545 -12.59466,-30.6161 -75.2927,-104.8602 -34.25125,-29.4873 3.00483,40.4796 131.80732,161.2099 96.34084,128.8988 -63.78642,-10.9831 -88.23199,-115.6874 -117.04381,-135.0417 33.01127,70.7673 38.97158,93.8413 85.17646,153.974 31.1314,27.4641 57.33034,48.2161 2.86719,20.3467 -41.29587,-31.7407 -112.19451,-160.1157 -93.72298,-150.574 25.75654,71.3056 94.44989,176.8469 129.19373,203.1484 -68.40606,-17.2354 -81.52921,-108.5706 -120.07785,-149.1187 10.95886,27.2071 33.47986,81.0831 11.28299,69.5222 12.42256,46.5286 61.64795,108.4111 50.86527,129.8219 -22.29279,-23.214 -68.74774,-155.3989 -43.18673,-66.5409 35.2106,63.5608 37.62037,137.59 72.02898,200.6685 41.95056,59.1589 94.11367,112.6804 162.40138,141.0699 42.23139,54.4757 86.02386,-79.7167 101.20388,14.6106 7.66733,43.1377 35.82548,23.3076 63.3543,22.1174 z m 65.8025,-40.995 c -11.92401,-63.3448 -141.02322,-34.6586 -127.68536,-42.1422 36.6651,-17.1085 135.34073,-17.3431 127.68536,42.1422 z m -76.95338,-71.6152 c -84.61024,6.4402 -145.00349,-65.2262 -158.91845,-142.0616 -0.61714,-70.2231 -85.51381,-153.5038 -109.95914,-95.1749 23.24831,-27.7184 40.22802,-74.7668 47.54833,-42.0414 78.43919,-24.8269 160.86046,6.8409 228.56638,44.1555 82.90735,17.3852 159.00821,-33.1121 240.54954,-37.5189 69.06772,-5.2477 25.73012,-104.0472 19.34511,-89.5154 24.67671,26.9412 91.09011,85.0545 24.91171,55.3164 -67.58482,67.9725 -88.41547,163.6223 -122.20649,249.5241 -27.84211,72.3695 -108.74482,56.8226 -169.83699,57.3162 z m 111.05646,-9.4092 c 42.36657,4.9591 41.58632,-64.6511 25.37384,-26.7665 -26.48479,-53.4677 -27.98462,49.5618 -39.33077,-11.678 -35.39667,-43.8891 -49.12306,83.4912 -47.49447,-1.8985 -43.68948,-34.8294 -55.30478,71.4621 -49.32407,-1.2728 -28.93701,-54.5743 -46.16027,62.074 -45.48524,-9.975 -39.16461,-41.0237 -96.42942,15.4531 -28.75488,33.4536 57.25737,29.0107 123.41822,18.9959 185.01559,18.1372 z m 54.45774,-50.9756 c 11.53271,-62.9812 73.47201,-166.3697 69.44294,-197.2724 -58.76214,0.2276 -39.30387,85.4816 -97.35198,58.7079 17.47271,57.348 1.76745,128.6308 -73.96636,96.1568 -30.05439,-12.8176 -21.67596,-106.6679 -37.11115,-30.6139 -6.66611,55.7629 -80.6644,21.5803 -109.64469,10.9837 23.35154,-24.5439 73.11102,-116.6243 2.01861,-95.2887 -12.82193,61.5631 -59.04306,-20.2594 -66.79699,9.3825 -56.44003,-10.915 23.84245,79.325 15.68981,115.0742 58.98279,30.4723 153.89132,22.705 227.36249,34.3469 23.54535,-1.9044 47.10921,-0.5109 70.35732,-1.477 z m -92.84754,-47.0657 c 87.05056,37.6562 81.18255,-148.247 -4.33036,-82.3793 -37.70322,-9.4131 -13.22985,70.8027 4.33036,82.3793 z m -56,-9.816 c 43.28241,-49.2547 -19.55105,-131.8721 -59.66028,-67.8197 -15.9834,34.0842 -57.57351,85.9448 6.89324,66.0203 17.56676,0.8731 35.16161,2.9612 52.76704,1.7994 z m 69.60104,-81.5747 c 39.47254,-14.8357 139.73453,-60.9856 143.45155,-66.2582 -91.27642,15.8587 -198.56919,77.2824 -281.97267,10.3101 -29.27339,-21.2182 -155.42427,-29.7836 -133.57212,-22.5696 92.92491,17.9609 174.61174,82.3332 272.09324,78.5177 z M 635.3926,1613.2916 c 3.06601,-63.0615 -75.90613,12.791 -1.92006,12.2015 z m 251.90898,8.4304 c 61.97003,-16.9439 -49.66542,-32.8677 -4.58844,1.8959 l 4.07659,-1.6844 z m -304.65205,-12.1188 c 42.9926,-85.89 -87.42887,-7.4391 0,0 z m -34.98813,-14.9503 c 35.49817,-44.0226 -77.76507,-44.0905 -10.14609,-8.2532 1.18762,0.7079 10.04642,31.3785 10.14609,8.2532 z m 137.64018,-215.0866 c 3.35755,-10.6983 9.05407,-31.1978 44.37396,-18.7765 15.48264,30.6124 -35.89836,-1.4182 -44.37396,18.7765 z m -132.49289,-13.9631 c 56.82401,-57.5223 -19.19051,-11.944 -9.29853,-15.9146 56.99105,-40.5973 -77.65525,5.0759 2.42748,-23.9097 33.08046,-15.5955 71.722,-3.1066 23.26749,24.6893 -0.56264,-1.7356 -17.99101,25.668 -16.39644,15.135 z m 276.45012,-6.6667 c -4.84172,-65.9131 37.9414,-37.5176 75.7067,-37.577 -1.35331,-65.0887 -47.44289,-4.9174 -73.97725,-44.6292 -28.93069,10.169 -55.47062,43.5911 -29.52571,-13.1381 9.60425,-47.1331 134.21973,-66.0454 100.8581,-97.4628 -20.35897,14.5382 -33.8544,49.6116 -18.77249,6.9426 -24.40965,-4.393 -42.10536,72.5047 -32.42863,18.1979 -67.35952,67.1328 28.19533,-54.7709 13.24002,-18.2276 33.52897,-33.2149 163.65505,-30.4437 146.36095,4.232 -78.93118,28.7758 29.9552,40.4908 33.2987,8.7566 -54.40511,53.3765 53.4767,-2.5256 36.3542,10.2619 -78.441,41.0541 20.2262,36.2986 46.2322,33.6635 -34.4742,7.3038 -46.2889,29.5197 -40.8968,34.228 -32.2394,-33.8167 -68.0359,-12.674 -53.5814,15.3755 -44.73419,-40.1078 -21.9948,55.8683 -55.62076,-3.6596 -27.3149,-4.6268 -33.50042,69.1538 -30.54884,10.4676 -61.11933,-18.5251 8.47591,70.937 -49.81929,42.5296 -46.51252,-3.5456 57.10658,23.0667 -10.96753,14.9729 -18.65279,-6.2842 -54.4894,-17.0028 -55.91217,15.0662 z m -5.20503,-88.9376 c 46.85508,21.2784 64.22049,-33.9367 39.31315,-55.9057 -14.94311,0.2799 -95.439,97.3759 -39.31315,55.9057 z m 113.2478,11.9376 c -18.69551,-5.6969 -25.14246,6.9139 0,0 z m -8.55557,-11.8502 c 51.20685,-43.8176 -15.24989,-13.3587 -3.80131,1.4827 z m 46.55557,1.2129 c 43.11462,-2.7774 91.63012,-47.5064 23.24309,-55.0082 -33.30504,-17.7915 -78.95909,-25.1835 -38.45148,16.8908 -0.19922,18.3816 -24.62813,56.1133 15.20839,38.1174 z m -28.63992,-4.7282 c 3.6838,-9.4686 -8.93372,8.7914 0,0 z m -18.59125,-8.4559 c 49.88861,-30.7125 -46.17253,-59.1015 -37.09173,-9.2941 91.98868,-64.5694 -23.51878,54.2442 37.09173,9.2941 z m -17.43549,-5.5119 c 3.04367,-27.9449 -27.56958,14.1289 0,0 z m -26.11596,-16.0639 c 56.42049,-32.6777 -14.99301,-34.3815 -2.78992,4.6365 z m 90.20472,-43.8471 c 76.53492,-49.7746 -92.29175,-6.9326 0,0 z m -38.44174,-6.1483 c 66.41266,-55.6107 -72.50222,2.6569 0,0 z m -85.47694,1.0593 c 4.21676,-6.1135 -9.45147,8.542 0,0 z m 34.49658,-21.7397 c -29.40383,10.518 -22.17968,17.7543 0,0 z m -408.67785,171.4252 c -30.3289,-64.2233 36.208,2.6523 0,0 z m 20.56055,-6.1361 c -14.76146,-45.4119 30.83771,-2.3385 1.35014,0.6724 z m 36.20522,-8.9021 c -20.04595,-40.0454 27.32722,-7.2427 0,0 z m 133.24542,617.7647 c -2.45074,-5.0574 -3.97203,2.958 0,0 z m -13.75978,-3.7453 c 2.36331,-35.0991 -32.87768,9.6451 0,0 z m -22.85497,-9.084 c -6.79922,-29.4122 -37.00704,9.083 0,0 z m 244.61475,-7.916 c -1.75507,-5.0557 -2.99292,5.1632 0,0 z m 18.73896,-18.4687 c 48.74332,-22.8938 -25.90229,26.8955 0,0 z m 25.9277,-10.2271 c 42.27797,-34.204 -42.28038,20.7317 -1.33763,0.8018 z m -24.6163,-2.0361 c 7.26781,-10.6353 -19.69123,17.9213 0,0 z m 67.02333,-21.4079 c 76.22919,-82.6102 -75.70561,52.4114 0,0 z m -44.9206,7.8064 c 30.50409,-26.5165 57.15881,-61.7247 12.17509,-15.1979 4.40073,-1.9461 -30.35452,25.1873 -12.17509,15.1979 z m 4.68365,0.6667 c 3.72914,-6.493 -7.97601,9.6108 0,0 z m 26.93208,-15.6667 c 53.68536,-59.913 -43.6836,22.0214 -10.12346,8.3069 z m 14.68812,-7.3736 c 36.16469,-33.456 114.72704,-184.7101 98.94314,-161.5627 -31.9819,52.1808 -82.82121,126.545 -105.62048,166.8425 l 3.46,-2.7357 3.21734,-2.5439 z m 45.45774,-34.4622 c 15.0696,-54.9012 -35.0617,59.9015 0,0 z m -582.4614,-12.9771 c -39.92054,-33.6988 33.90134,35.401 0,0 z m 586.4502,-12.3615 c 16.4247,-30.1659 -18.43148,27.3746 0,0 z m 43.9679,-33.4922 c 20.2407,-19.0818 25.8808,-66.6515 2.3272,-15.7744 -1.4174,1.0893 -22.8348,45.5159 -9.1262,27.1381 z m -19.2455,15.3333 c -5.1334,1.5041 0.046,7.1758 0,0 z M 337.863,1762.3415 c -4.62052,-28.558 -55.66753,-83.1284 -33.447,-21.5972 8.85793,8.052 19.22708,24.5318 33.447,21.5972 z m 29.32133,-14.5236 c -59.18131,-111.7898 7.86128,45.4149 0,0 z m 677.44017,2.452 c 54.877,-87.2398 -16.666,5.2974 0,0 z m 76.1648,-29.8516 c 12.114,-60.6669 -20.4771,71.9783 0,0 z m -789.4892,-15.1484 c 6.06868,-30.5762 -36.08576,-85.87 -13.51591,-25.5798 0.10324,4.4988 26.64537,69.5995 13.51591,25.5798 z m 766.7326,0.6476 c 28.1771,-74.368 -24.8728,43.3193 -1.8249,3.9355 z m -804.98877,5.6857 c -7.07138,-45.8829 -14.42884,-59.6842 -9.09168,-7.6013 -2.35255,1.3637 14.40171,26.9482 9.09168,7.6013 z m 791.91997,-8.2203 c 1.2723,-24.187 16.0585,-84.6649 -4.5136,-25.0927 -2.8802,8.1538 -16.7517,52.5251 4.5136,25.0927 z m 30.2177,-1.9197 c 7.4945,-40.7932 -11.9846,22.6842 0,0 z m -747.17975,-17.86 c -4.98901,-37.3263 -71.85088,-133.0126 -29.78533,-46.2155 5.74311,6.6799 49.97143,92.3066 29.78533,46.2155 z m 735.97405,-19.0152 c 11.8457,-62.894 -2.7375,-27.3299 -7.6133,13.9746 z m -837.90604,-7.2779 c -23.05809,-56.8578 6.40682,46.6123 0,0 z m 860.38884,-0.3868 c 15.2722,-27.7166 15.328,-73.6337 -0.3789,-15.5176 -2.7532,6.9018 -17.8223,52.4144 0.3789,15.5176 z m 17.0593,-0.6534 -0.064,3.2531 z m -835.41827,-41.6667 c 2.4074,-114.1147 -45.27665,43.0982 0,0 z m 826.73907,-9.6976 c 15.0753,-43.1177 -26.4299,50.9334 0,0 z m -849.53722,12.4429 c -2.45072,-5.0574 -3.97203,2.958 0,0 z m -20.15774,-16.758 c -22.35221,-61.3318 -14.6801,25.9482 0,0 z m 14.78252,7.6324 c -7.03846,-24.492 -11.15584,20.7762 0,0 z m -53.35787,-8.2064 c 16.05166,-51.6106 -27.79186,-33.3087 0,0 z m 891.35891,-16.6589 c -1.5735,-31.7018 -4.618,56.5103 0,0 z m -781.1758,5.5789 c -5.01853,-36.9814 -36.73524,-79.1238 -11.22525,-18.5127 0.69322,-1.9629 9.43001,28.757 11.22525,18.5127 z m 827.0665,-11.3157 c 6.0803,-39.3946 -31.6901,32.5781 -0.4447,0.6732 z m -876.07682,3.8721 c 57.36777,-45.8932 -43.49055,-173.6132 -40.07837,-69.9923 -1.17462,24.815 -0.13501,83.2334 40.07837,69.9923 z m 847.91752,-20.3141 c -0.7503,-46.7226 -23.15,0.4406 0,0 z m 46.9762,-4.7289 -5.9324,4.4821 z m -8.2705,2.4792 c 33.3872,-89.3097 2.3765,-187.5427 31.9995,-278.1541 15.6948,-38.0375 30.3407,-193.5923 -33.2255,-128.857 11.5509,71.2463 35.9535,135.2993 6.3392,210.3272 -7.7671,60.587 -82.105,152.0895 -13.0668,194.3598 z m -862.39625,-44.2472 c -1.79424,-9.4817 -4.45297,7.2924 0,0 z m 887.37565,-10.1604 c 12.4017,-29.2406 25.5091,-142.511 0.6109,-84.6872 -1.0784,28.2047 -1.7539,56.4744 -0.6109,84.6872 z m -906.37942,-25.585 c 26.57388,-30.6461 -38.27478,-87.0514 -23.7158,-20.0804 -0.47256,12.3396 10.20235,25.6555 23.7158,20.0804 z m 291.9683,-12 -0.005,8.6447 z m 162.28488,4.4261 c 4.02621,-8.1166 -9.36908,8.7111 0,0 z m 35.41726,1.2406 c -1.75535,-5.0554 -2.99269,5.1633 0,0 z m -23.982,-14.0093 c 6.11221,-10.321 -30.99936,24.8815 0,0 z m 3.30589,7.3579 c -3.74996,-2.8496 -4.2955,5.012 0,0 z m -513.03556,-11.6819 -0.008,7.3057 z m 16.66443,-25 c 10.39038,-60.9269 -39.78382,-132.8302 12.3263,-181.4819 0.6613,-95.6236 -96.49971,-26.938 -66.60098,43.0047 20.35714,43.3749 50.42335,113.1229 54.27468,138.4772 z m 28.43457,-3.6667 c 4.11135,-41.1095 -16.29746,-23.8135 0,0 z m -76.72067,-7.9172 c 9.95671,-43.0983 -16.27813,-53.879 -8.24116,-1.5237 -4.36855,7.9203 8.7011,26.2805 8.24116,1.5237 z m 25.36154,7.0155 c -5.64238,-24.699 -3.27962,12.8348 0,0 z m 921.87658,-12.8602 c -4.503,-59.7093 46.3644,-144.2569 11.6658,-187.4991 11.529,61.818 -26.1623,140.3611 -11.6658,187.4991 z m -558.53392,-10.9784 c -10.62999,3.3512 -10.2514,18.4686 0,0 z m -360.59922,-3.1246 c -10.55961,-38.4706 -22.18072,-20.6447 0,0 z m 42.62254,-36.4684 c 4.46307,-26.7361 -4.3609,-134.5058 -26.39974,-61.029 -7.93934,21.2779 23.03085,136.32 26.39974,61.029 z m 349.27248,30 c -7.2971,-5.3292 -17.03641,6.332 0,0 z m -3.90866,-10.1367 c 47.97956,-30.9509 -25.34731,1.4148 0,0 z m -418.94575,-22.1674 c -16.33047,-46.363 -4.03769,-176.5666 -7.48513,-165.6727 -3.54038,39.383 -24.75668,168.3237 7.48513,165.6727 z m 102.00184,-49.5707 c 6.01564,-39.8914 -31.25522,-17.2218 0,0 z m 905.46599,-26.1836 c 2.6493,-31.2197 -7.0397,35.5372 0,0 z m -676.20934,3.4468 c 15.91178,-32.6534 101.16325,3.223 44.25083,-49.3775 -50.05816,-39.7317 -17.31314,46.1212 -57.87773,52.3132 z m -19.28344,-2.0551 c 42.65546,-14.77 -42.34783,13.5915 0,0 z m -53.97484,-1.6667 c -31.32726,-34.152 45.83627,-92.9002 -31.96224,-56.9893 -34.88624,0.1679 -102.85869,55.0754 -28.04282,51.2858 19.2767,-2.6993 42.28893,14.5394 60.00506,5.7035 z m -167.84636,-5.5497 c -18.65201,-18.8958 4.49902,20.2899 0,0 z m 215.23022,0.5497 c 72.39723,-6.7738 -17.29076,-101.2612 -22.10285,-28.1177 60.96632,-52.5487 24.18808,52.0239 -9.08719,12.6273 2.80563,-74.9082 -33.44038,14.5934 20.01229,17.6476 z m -3.90944,-17.3333 c 22.95633,-28.1565 4.65287,17.2898 -6.19137,0.523 z m -222.13804,-4.6667 c -2.99169,-7.3295 -1.25907,7.1394 0,0 z m 938.25924,-36.03 c 10.2788,-29.8139 -2.2438,-84.4779 -4.961,-18.8942 -4.4864,23.8506 -7.0262,75.125 4.961,18.8942 z m -742.18586,0.052 c 56.34567,-23.0384 -48.60412,23.2076 0,0 z m -64.51637,5.2823 c 26.21362,-25.0876 15.47228,-58.9155 29.09316,-8.9368 30.86798,-10.8167 12.98598,-75.8186 26.35151,-10.7698 48.72839,3.6271 40.04356,-76.7006 -12.44403,-38.6275 -35.55402,1.0612 -108.32724,21.1906 -43.00064,58.3341 z m 824.39183,-23.971 c -5.7344,-44.4492 -3.3321,56.8431 0,0 z m -1016.43102,-16 c -0.94153,-11.6264 -2.82933,11.8053 0,0 z m 23.61778,-1.1909 c -4.41406,-45.2176 -11.15516,-43.3482 -14.87917,1.0243 l 5.1208,0.7811 z m -81.5661,-19.6967 c -9.54043,-3.5058 -6.1601,43.6224 0,0 z m 88.61499,18.8877 c -1.75506,-5.0557 -2.99294,5.1633 0,0 z m -38.24571,-9.0619 c 11.81026,-34.1151 -15.48987,-16.8411 0,0 z m 109.51355,-12.9453 c 71.61624,-98.52 -107.93441,22.5686 0,0 z m -42.59724,-13.4747 c 59.31272,-13.2022 77.41113,-66.0645 18.54442,-94.4312 16.92994,-75.7611 -75.1179,123.5463 -18.54442,94.4312 z m 526.22089,-10.5181 c -12.65475,7.7583 -14.05775,22.386 0,0 z m 39.77518,-14.3691 c 36.15798,-17.9341 90.54888,-45.0157 20.87424,-21.6217 -31.53815,11.1962 -107.8338,78.5629 -20.87424,21.6217 z m -22.31035,17.895 c -12.41108,1.3012 -12.50334,14.0334 0,0 z m -598.05072,-22.8593 c -2.31904,-33.6832 -1.28134,52.3514 0,0 z m 121.6944,10.6667 c 19.18095,-38.5499 -30.36865,37.5899 0,0 z m 837.27385,-8.4328 c 13.1659,-40.7118 -55.0871,32.1489 0,0 z m 20.0595,-0.9424 c -4.9591,-13.2053 -7.5009,9.851 0,0 z m -368.11112,-6.1387 -5.46415,2.4787 z m -467.85198,-9.1972 c 89.51825,-40.2872 -56.24027,-19.2323 0,0 z m -123.1261,-3.5389 -0.24625,2.4086 z m 109.29572,-11.7525 c 70.85538,-24.2118 -26.13784,-20.7573 -32.06833,-25.1408 7.46409,11.3936 18.54625,21.7398 32.06833,25.1408 z m -110.20654,-7.1447 c 14.92413,-40.9423 -14.83284,0.1209 0,0 z m 663.02195,0.648 c 41.31666,-6.1518 99.69987,-42.8248 68.97796,-90.16743 9.23331,34.23813 -102.53447,101.59763 -68.97796,90.16743 z m 242.31147,-3.4056 c -25.7523,-56.782 -28.4865,-30.7818 -0.938,2.2037 z m 58.6462,-4.5072 c -4.0088,-19.1224 -6.915,11.3311 0,0 z m -730.0148,-0.6415 c -27.54252,-17.3797 -68.93317,-109.11166 -59.87629,-24.1134 -1.25348,24.1493 55.07863,32.2208 59.87629,24.1134 z m 557.952,-9.2689 c 47.6224,-24.1766 15.3435,-78.27336 -13.7684,-22.1484 -51.85117,30.7523 -26.5371,27.6201 13.7684,22.1484 z m -820.5989,-21.2444 c -31.5283,-28.2045 72.17259,-152.06143 5.45528,-79.14141 -14.65085,10.00587 -21.77119,123.18821 -5.45528,79.14141 z m 65.71572,-32.2956 c -0.70999,-20.71327 52.87842,-117.74613 11.23449,-41.98009 -23.24443,31.58559 -43.06186,125.73879 -11.23449,41.98009 z m 927.24838,18.856 c -13.0572,-21.473 4.79,26.4674 0,0 z m -901.87279,-7.9936 c 24.80265,-42.41378 -18.60797,24.5628 0,0 z m 880.87479,-21.0536 c -20.4998,-63.7311 3.2039,49.7687 1.2679,5.2732 l -1.0312,-4.2886 z m -898.11239,16.084 c 0.83603,-12.4226 -5.77521,19.6683 0,0 z m -59.95464,-19.53093 c 31.87299,-63.23698 -16.63336,-11.13206 -5.63567,17.07283 l 2.48763,-5.6187 z m 74.22272,7.83383 c 17.91253,-38.4192 53.54965,-75.29323 64.13863,-112.6305 -30.60178,28.75258 -60.85148,70.44436 -64.13863,112.6305 z m 865.82141,-6.66663 c -2.8338,-24.24952 -17.6778,-42.34354 0,0 z m -881.15392,-36.286 c 12.63029,-53.04592 -30.50702,74.74193 -0.70104,1.78262 z m 30.55947,27.9526 c 2.90679,-9.40802 -6.26375,10.12273 0,0 z m 784.00005,-1.9493 c -38.3548,-50.80183 -30.327,-25.84273 0,0 z m -774.27096,-13.7173 c 19.00149,-26.88641 -24.96636,38.67743 0,0 z m -61.85673,-7 c 26.05689,-86.31661 -16.68858,38.40763 0,0 z m 87.77493,-13.2868 c 21.21341,-23.59823 72.16277,-117.93281 22.43573,-45.21923 -14.89796,19.75934 -66.53345,110.55706 -22.43573,45.21923 z m 772.36916,18.4482 c -6.3647,-37.33481 -68.514,-38.76258 -22.1212,-4.33866 7.2559,-40.98243 30.2549,40.51229 22.1212,4.33866 z m -863.28712,-41.4159 c -3.87786,-16.55318 -6.47179,40.6146 0,0 z m 22.93188,3.5878 c 3.38182,-12.22836 -9.75684,22.36193 0,0 z m -45.93772,-0.362 c 46.97695,-63.40794 -36.31647,24.33715 -6.18206,3.1008 l 3.94273,-1.97759 z m 810.41356,-6.1664 c -22.4606,-25.38067 -140.05374,-91.86331 -66.88465,-34.69105 19.38125,10.09079 45.72335,42.04092 66.88465,34.69105 z m -760.76926,-9.985 c 10.50238,-49.43393 -10.03958,22.32399 0,0 z m 39.62973,-14.1533 c 15.60473,-18.70625 50.73711,-64.16361 12.27531,-22.2827 60.38871,-76.86528 -19.5136,11.52912 -30.75004,43.51606 7.26431,-6.0487 12.43963,-14.07775 18.47473,-21.23336 z m -105.32041,13.0309 c 9.63519,-33.80578 60.06811,-94.82839 74.71523,-99.81985 24.91601,-16.98285 79.02719,-88.27492 18.15948,-33.11533 -38.9253,29.6779 -99.88178,104.23878 -92.87471,132.93518 z m 80.73205,0.2672 -2.00895,3.14136 z m 770.92419,-1.2638 c -12.2222,-14.89613 -9.5641,3.66949 0,0 z m -822.65907,-18.3614 c 17.21628,-32.28991 -28.77145,43.21054 0,0 z m 824.51377,-2.6264 c -28.0045,-25.43098 -125.14178,-34.31209 -38.7089,-8.80045 7.1993,0.80145 45.0121,30.92271 38.7089,8.80045 z m -753.26384,-0.3798 c 19.62179,-24.5606 -21.63394,24.44528 0,0 z m -6.29173,-17.1454 c 24.29556,-35.0274 44.34545,-81.69502 7.59507,-21.28128 -6.88362,-22.90657 -39.46221,73.69249 -7.59507,21.28128 z m 55.25009,4.0134 c -11.05166,5.0108 -21.60902,28.16777 0,0 z m -93.77797,0.132 c 46.2859,-70.55038 -20.75317,19.01076 0,0 z m 111.01495,-7.7472 c 37.31941,-49.65039 -23.02605,24.19402 0,0 z m -126.80663,0.9328 -4.12524,5.80568 z m 121.31757,-15.5189 c 36.54127,-48.65967 -48.02151,58.08645 0,0 z m -88.64553,11.1691 c 3.34987,-9.62139 -8.46964,13.99321 0,0 z m 724.68179,-7.2411 c -35.53832,-27.73926 -51.5563,-12.44336 -9.665,-2.25736 -5.1403,-4.18467 12.8783,9.39029 9.665,2.25736 z m 24,-1.2614 c -9.3859,-7.39426 1.3359,5.43263 0,0 z m -762.86519,-8.2574 c 15.83658,-26.87632 -19.15724,27.35279 0,0 z m 83.02443,-10.4028 c 21.31487,-16.78818 65.63736,-77.31426 21.22254,-29.15319 -2.96722,1.22018 -51.34089,63.48245 -21.22254,29.15319 z m -13.4416,-3.3398 c 29.88008,-27.69606 88.55899,-118.82573 26.54171,-43.05249 -3.4352,5.37537 -42.33708,55.01013 -26.54171,43.05249 z m 775.30056,11.304 c -20.0636,-24.18397 -27.5062,6.90765 0,0 z m -106.57,-5.1181 c -9.2543,-12.70762 -47.37714,-22.31658 -14.7903,-6.0166 z m -720.11495,-2.8525 c 6.36588,-9.51036 -10.15317,10.44825 0,0 z m 116.25704,0.2865 c 30.39901,-28.89618 33.46489,-40.12004 -0.18034,-2.50831 l -3.20623,3.48917 z m 660.40971,-2.2254 c -20.1082,-27.22026 -18.6417,3.38649 0,0 z m -738.72111,-16.1983 c 22.69722,-35.11442 -34.16243,45.08168 0,0 z m 145.38769,-56.16601 c -29.69857,19.36217 -78.20254,79.36588 -25.17586,24.88291 8.47425,-8.21016 16.93803,-16.43399 25.17586,-24.88291 z m -59.55953,52.30321 c 6.47117,-14.49927 -25.61057,34.1241 0,0 z m 686.89295,8.6666 c -7.5355,-6.30705 -4.3988,4.18278 0,0 z m -793.36359,-18.6666 c 45.15477,-52.97793 -27.48725,36.47355 0,0 z m 640.69684,9.3333 c -17.73358,-11.36583 8.28582,8.85107 0,0 z m -625.20061,-18.5554 c -19.60895,16.67321 -17.75422,23.53693 0,0 z m 92.31716,9.2275 c -21.65341,15.88416 -2.5801,8.87653 0,0 z m -17.404,-30.28204 c -32.80885,28.44557 -48.62712,60.5257 0,0 z m 690.9542,36.94324 c -4.5761,-5.5465 -3.4485,5.43754 0,0 z m 38.9256,-2.0421 c -22.4064,-13.36581 11.1691,13.5977 0,0 z m -59.5923,0.8392 c -15.463,-10.33686 -16.0119,1.7622 0,0 z m -714.52958,-16.4637 c -12.06929,4.30618 -20.39082,30.71158 0,0 z m 673.19628,13.7619 c -5.0786,-16.01493 -16.7972,7.09992 0,0 z m -617.95835,-8.1619 c 18.61887,-25.37114 -28.73703,31.13173 0,0 z m 44.63541,-37.21121 c 33.47712,-32.90966 25.304,-40.5385 -4.95406,-1.57973 -44.4052,46.94379 -25.14773,36.78188 4.80203,1.74698 z m -14.38449,24.88183 c -1.8329,-7.02789 -28.24774,33.09186 0,0 z m -83.43784,-3.98515 c 38.53335,-43.7663 -18.09224,23.60664 -1.96471,2.2789 z m 54.64989,6.05851 c 13.25977,-18.77895 -24.17815,29.00811 0,0 z m 655.84888,4.18122 c -0.5428,-15.84958 -33.3744,18.53124 0,0 z m -18.0202,-5.74089 c -10.9351,-12.37634 -30.6661,8.52774 0,0 z m -698.49664,-5.11767 c 3.72917,-6.49289 -7.9761,9.61094 0,0 z m -11.19488,-15.40772 c 44.58909,-44.76548 -46.47475,34.75738 0,0 z m 93.54862,-0.25894 c 59.3203,-72.41927 -55.79532,42.41187 0,0 z m -3.1066,7 c 11.87274,-13.2778 -14.54223,14.51453 0,0 z m 703.7895,1.72594 c -23.2954,-31.54294 -123.5177,4.76357 -33.0752,0.32213 10.5269,3.37094 22.7945,4.74726 33.0752,-0.32213 z m -683.90992,-0.82461 c 22.87481,-20.58154 31.67853,-44.47043 0,0 z M 1063.826,776.0101 c 69.1275,-14.03278 -69.4511,1.71211 0,0 z M 410.63492,765.13049 c -13.15985,0.90519 -18.30834,23.76726 0,0 z m -22.66667,-1.86064 c 27.41804,-37.42673 -34.92559,39.39757 0,0 z m 8.62171,0.17726 -9.09372,8.11578 z m 588.94397,6.18842 c -7.79955,-3.73823 1.10041,7.61427 0,0 z m -538.89901,-5.06659 c -9.15769,-3.27982 -5.81101,16.74069 0,0 z m 71.63477,-19.72744 c 41.8948,-22.52673 -8.48663,-31.27678 -25.59659,20.7457 10.73288,-3.60382 16.29069,-15.11956 25.59659,-20.7457 z m 526.29861,19.62121 c -15.4937,-8.16897 -13.0494,8.79872 0,0 z m -640.02577,-11.72969 -4.46802,3.55621 z m 92.59441,-15.81184 c -3.99425,-7.39383 -28.05511,29.46481 0,0 z m 513.49796,6.79803 c -12.1267,-7.16265 -33.10252,9.76863 0,0 z m 38.0667,2.38445 c 49.8036,-11.86677 10.2318,-11.75862 -12.0666,1.02279 z M 442.78584,733.26985 c 56.89233,-48.22433 -49.20943,34.89545 0,0 z m 679.73806,9.15332 c -10.4259,-14.22484 -49.8671,6.09084 -16.3512,3.38866 z M 475.96825,725.88366 c 31.25644,-35.32964 -53.58627,40.65572 0,0 z m 125.44253,12.19543 c 76.24367,-23.39382 -81.88733,7.78325 -11.07062,1.89897 3.69021,-0.63299 7.38041,-1.26598 11.07062,-1.89897 z m -49.48925,-2.88484 c 59.37909,-27.16855 -48.26062,1.70106 0,0 z m -96.25568,-6.41799 -9.06687,7.51207 z m 24.55615,1.93657 c -3.79236,-4.17387 -7.56579,16.11886 0,0 z m 6.41292,1.12986 -5.35429,2.84691 z m -6.66667,-5.4167 c 8.04682,-11.04591 -26.60316,25.64797 0,0 z m 539.33335,4.87531 c -28.8399,-6.68044 -38.3978,7.90092 -2.837,0.3611 z m -521.25486,-1.98905 c 3.87979,-7.95477 -12.26432,9.82875 0,0 z m 100.24227,-3.65295 c 45.62665,-17.63538 -55.86774,11.31711 0,0 z m 303.9848,2.13832 c -4.50496,-3.75849 -1.88248,3.3428 0,0 z M 485.04189,711.08777 c 1.57316,-14.70574 -37.04794,30.54221 0,0 z m -27.0972,3.08376 -11.48401,8.09148 z m 32.10744,3.43165 c 11.87275,-13.27778 -14.5422,14.51453 0,0 z m 21.58279,-5.41839 c 32.25751,-29.1797 -39.97079,31.85417 0,0 z m 482.33333,5.6557 c -31.28712,-4.87042 -35.51254,7.77909 0,0 z m -496.49659,-2.23731 c 3.72918,-6.4929 -7.97609,9.61091 0,0 z m 19.22599,-3.21773 c 19.48671,-19.03332 -25.44488,20.59677 0,0 z m -18.7294,-1.1156 c 6.36581,-9.51035 -10.15323,10.44848 0,0 z m 6.17008,-1 c 3.72916,-6.49292 -7.97608,9.61091 0,0 z m 54.08296,-4.56546 c 32.99068,-21.47684 -46.55168,22.04864 0,0 z m 12.45163,2.87846 c 0.97418,-14.86247 -24.60079,13.98506 0,0 z m -66.53459,-2.313 c 3.72916,-6.49292 -7.97608,9.61091 0,0 z m 5.82992,-0.33334 c 6.36579,-9.51034 -10.15324,10.44853 0,0 z m 29.33333,-3.92801 c 9.49763,-13.68125 -39.32958,30.20962 0,0 z m -60,-2.41289 c 54.09637,-32.79509 11.72688,-21.2364 -14.33495,6.13141 l 1.43816,0.20371 z m 482.35966,2.35373 c 7.95386,-13.16468 -59.63836,17.11515 -2.15252,0.74102 z m -454.83139,-6.04603 c 28.37645,-17.68676 70.04878,-45.04502 89.41199,-62.93915 -9.75113,6.96184 -137.41868,76.8898 -89.41199,62.93915 z m 90.83044,7.82528 -3.93343,-0.003 z m 250.38889,-5.31336 c 11.79266,-15.82616 -37.70111,12.73979 0,0 z m -238.41426,-4.02842 -3.25313,0.0636 z m -82.24343,-5.9291 -6.06562,3.64851 z m 386.57676,-2.4511 c 26.84804,-14.45664 -52.11013,17.02761 0,0 z m -99.99924,1.6094 c -13.24492,-11.61939 -28.75793,11.71072 0,0 z m -238.74428,-0.22182 -3.73695,0.59827 z m 20.3244,-2.14185 c 14.8906,-10.02827 -24.79485,8.46168 0,0 z m 21.26175,-2.09124 c 9.7273,-13.28541 -34.08131,16.13154 0,0 z m 20.37356,-0.89125 c 18.52503,-15.43518 -47.24232,17.53704 0,0 z m 55.78381,-0.61643 c 25.97095,-15.63472 -50.86364,18.33761 0,0 z m -28.82309,-0.47321 c 21.74532,-14.19475 -26.32549,12.87016 0,0 z m 107.82309,2.835 c -2.82713,-5.07208 -5.12192,3.30123 0,0 z M 559.81598,665.7213 c 53.83029,-39.03817 -43.94099,27.7017 -0.96866,0.68497 z m 19.61983,-0.16812 c 27.51395,-15.05291 52.38069,-39.898 10.21864,-10.70883 -16.70596,11.18219 -48.71372,38.84676 -10.21864,10.70883 z m -46.13423,1.46296 c 42.24028,-23.71077 36.75252,-29.8497 -3.27724,-0.34268 -7.68405,-1.5865 -23.79886,27.96779 3.27724,0.34268 z m 57.90782,0.93761 c 33.44949,-15.87027 140.76074,-75.29669 52.4981,-36.92896 -8.93618,0.58324 -105.02096,62.03401 -52.4981,36.92896 z m 220.58788,5.8771 c -22.62042,-5.73197 -27.3507,6.7944 0,0 z m 98.83764,0.89216 c 63.61601,-14.49782 -36.28511,1.80188 0,0 z m -150.00555,-4.98252 c 8.21127,-8.10616 -29.5841,15.59154 0,0 z m 14.67221,1.52936 c 17.46798,-9.42056 -30.21145,10.01488 0,0 z m 93.32879,-2.22136 c 27.27117,-14.59649 -50.52177,13.99018 0,0 z m -121.99545,-0.44531 c 13.36462,-10.17207 -34.31395,12.43666 0,0 z m -121.33334,-0.75397 c 46.46928,-23.87356 -27.96754,8.75428 0,0 z m 67.41183,-1.30886 c 2.89896,-7.35676 -18.96356,9.89534 0,0 z m 39.58817,-0.24394 c 4.30574,-10.85977 -16.96308,11.47577 0,0 z m -85.66666,-2.40923 c 28.79893,-20.12892 141.22652,-42.15607 115.00807,-50.55865 -38.4372,13.12769 -87.59477,19.12606 -115.00807,50.55865 z m 208.94657,-1.1994 c 70.98856,-11.39503 -38.35331,-6.35992 -9.7001,2.21819 3.23336,-0.7394 6.46673,-1.47879 9.7001,-2.21819 z m -283.44316,-1.75127 c 3.72915,-6.49289 -7.97608,9.61094 0,0 z m 107.44072,-6.12748 c 22.65898,-16.82353 -39.12355,21.43945 0,0 z m 109.05571,-1.68702 c 74.28024,-28.05931 -61.8691,17.98736 0,0 z m -9.89736,-4.69976 c 69.85489,-24.85414 -90.66315,22.66981 0,0 z m -39.43582,-2.60556 c 32.33906,-9.18821 84.65437,-41.35084 22.92192,-17.81438 -21.15298,6.60203 -72.65023,39.70181 -22.92192,17.81438 z m 91.25786,5.24072 c 33.99067,-16.88982 -49.96602,15.85667 0,0 z M 662.01001,642.2005 c -22.45672,5.92489 -19.25141,13.09693 0,0 z m 68.5138,-3.77792 -5.46414,2.47873 z"
       style="fill:#000000;stroke-width:1.33333"
       id="path820" />
    <path
       d="m 887.0047,1768.9329 c -73.13254,-4.3525 -147.33176,0.3929 -218.54065,-19.7516 -87.18431,22.3867 -93.8421,-73.7742 -112.97537,-132.7394 41.10433,-21.2087 30.71704,22.6701 70.7953,17.9727 31.76481,-67.9754 86.95099,-2.6866 33.6243,36.9891 -60.48418,77.3769 124.57449,68.8539 103.11265,-12.7097 -22.35681,89.7041 145.95008,97.9801 100.2595,1.4694 -24.63654,-53.6175 62.58372,-1.6299 55.19242,-68.8338 42.40179,-49.2216 57.88417,4.4557 21.41847,38.1562 -25.25744,43.2623 -29.94449,95.2277 -52.88662,139.4471 z"
       style="fill:#000000;stroke-width:0.847406"
       id="path837" />
    <path
       d="m 906.07192,1085.8978 c 41.95917,-2.1383 95.70358,-137.6695 90.44815,-48.5616 -16.27977,34.1326 -60.31455,34.0896 -90.44815,48.5616 z"
       style="fill:#000000;stroke-width:0.847406"
       id="path839" />
    <path
       d="m 1010.3028,1060.6084 c 24.4165,-27.4379 92.4466,-67.72837 50.5108,-1.5879 -4.3769,4.7506 -73.12474,14.2772 -50.5108,1.5879 z"
       style="fill:#000000;stroke-width:0.847406"
       id="path841" />
    <path
       d="m 321.53601,1164.7563 c -78.67639,1.4634 73.11291,-80.6988 14.97734,-6.3583 -2.10938,5.5866 -9.49282,9.8432 -14.97734,6.3583 z"
       style="fill:#000000;stroke-width:1.19841"
       id="path845" />
    <path
       d="m 356.80119,1087.3621 c -77.26681,-53.1203 100.77206,-9.489 0,0 z"
       style="fill:#000000;stroke-width:0.847406"
       id="path851" />
    <path
       d="m 487.14983,1075.2181 c -64.66952,36.6417 -64.27814,-124.92594 -24.69548,-28.9677 3.87338,9.4401 26.9364,22.0972 24.69548,28.9677 z"
       style="fill:#000000;stroke-width:0.847406"
       id="path853" />
    <path
       d="m 372.48347,1101.7266 c 0.21935,-40.0065 74.25498,-7.7027 0,0 z"
       style="fill:#000000;stroke-width:0.847406"
       id="path855" />
    <path
       d="m 815.30556,1147.8022 c 16.56106,-36.6668 159.10361,-77.8223 66.21893,-37.4547 -22.48567,11.7358 -44.57186,24.2361 -66.21893,37.4547 z"
       style="fill:#000000;stroke-width:0.847406"
       id="path857" />
    <path
       d="m 810.51334,1142.4574 c 69.10021,-44.4029 -3.03054,-48.914 -3.66723,1.359 45.52681,-13.6222 39.15657,-72.6471 1.71503,-19.0884 -4.23459,4.28 -7.71192,16.3985 1.9522,17.7294 z"
       style="fill:#000000"
       id="path859" />
    <path
       d="m 583.46075,1101.1373 c 18.51181,57.3702 30.42903,-4.6134 -8.15287,-5.596 5.06241,44.8304 59.6339,42.0229 17.28665,0.4008 l -4.28236,0.8902 z"
       style="fill:#000000"
       id="path861" />
    <path
       d="m 846.97647,1106.494 c 19.91701,-33.4033 76.49991,-98.0979 31.09769,-22.0199 -9.65594,8.0552 -19.40043,17.0728 -31.09769,22.0199 z"
       style="fill:#000000;stroke-width:0.599206"
       id="path863" />
    <path
       d="m 845.0286,1220.1805 c -0.69779,-16.968 41.88339,-61.9697 33.56123,-21.3694 6.43762,-55.3743 73.7836,-21.8292 10.14583,-1.9104 -15.18811,6.5438 -29.47922,14.9134 -43.70706,23.2798 z"
       style="fill:#ac9393;fill-opacity:1;stroke-width:0.299603"
       id="path867" />
    <path
       d="m 846.2276,1218.6266 c -0.46171,-23.1203 53.68683,-65.3177 26.06489,-16.139 11.6265,-49.0299 77.66364,-34.4161 16.99852,-6.0356 -14.81157,6.4894 -28.71438,14.772 -43.06341,22.1746 z"
       style="fill:#ac9393;fill-opacity:1;stroke-width:0.299603"
       id="path869" />
    <path
       d="m 914.08714,1189.8493 c 23.58797,-67.9103 75.06817,0.7614 0,0 z"
       style="fill:#ac9393;fill-opacity:1;stroke-width:0.299603"
       id="path871" />
    <path
       d="m 965.46908,1194.8771 c -63.49271,-28.9756 86.34942,-30.2435 0,0 z"
       style="fill:#ac9393;fill-opacity:1;stroke-width:0.299603"
       id="path873" />
    <path
       d="m 414.13444,1224.4865 c -62.15468,-76.0959 171.9255,-80.2108 71.37712,-13.0141 -16.10622,-29.5189 -3.09799,-57.3899 -18.62819,-6.8114 -22.60167,35.4759 -20.92936,-58.9914 -27.5647,0.7891 0.51992,12.766 -10.16967,32.3704 -25.18423,19.0364 z"
       style="fill:#ac9393;fill-opacity:1;stroke-width:0.599206"
       id="path875" />
    <path
       d="m 259.85462,1443.7504 c 12.67066,-78.9277 -95.31912,-168.1539 -27.35827,-234.8587 71.86181,-27.0076 30.2615,73.0872 18.53321,106.2625 2.02903,42.7251 32.56063,86.9742 8.82506,128.5962 z"
       style="fill:#ac9393;fill-opacity:1;stroke-width:0.599206"
       id="path877" />
    <path
       d="m 280.75546,1393.2555 c -22.4192,-23.0366 -26.15528,-146.6037 2.35168,-102.1921 0.80218,33.463 16.37552,71.1134 -2.35168,102.1921 z"
       style="fill:#ac9393;fill-opacity:1;stroke-width:0.599206"
       id="path879" />
    <path
       d="m 279.88096,1478.9069 c -26.91846,-29.9642 2.69762,-86.1595 20.17123,-27.7187 2.46397,10.7067 -4.85511,35.184 -20.17123,27.7187 z"
       style="fill:#ac9393;fill-opacity:1;stroke-width:0.599206"
       id="path881" />
    <path
       d="m 271.15109,1584.5168 c -27.30394,-26.0567 -26.367,-156.0772 17.67504,-94.5337 19.74202,10.7738 25.06412,102.7338 -17.67504,94.5337 z"
       style="fill:#ac9393;fill-opacity:1;stroke-width:0.599206"
       id="path883" />
    <path
       id="path885"
       d=""
       style="fill:#ac9393;fill-opacity:1;stroke-width:0.599206" />
    <path
       d="m 1170.375,1558.4451 c -69.1489,-36.434 -7.8587,-127.769 7.6953,-181.6658 19.5876,-71.126 31.284,-146.4504 -9.2864,-213.2816 16.7841,-70.5703 73.0965,-4.5677 49.0016,39.4862 -11.5098,91.5518 -35.545,181.8582 -27.8645,274.9766 -0.6317,27.5082 -0.787,58.2736 -19.546,80.4846 z"
       style="fill:#ac9393;fill-opacity:1;stroke-width:0.847406"
       id="path889" />
    <path
       d="m 1157.8083,1412.4825 c 7.857,-63.6075 19.7483,-137.2794 22.8472,-194.864 21.0278,62.3119 -11.0092,132.1392 -22.8472,194.864 z"
       style="fill:#6c5353;fill-opacity:1;stroke-width:0.847406"
       id="path891" />
    <path
       d="m 776.18132,1627.1687 c -74.08654,-11.3882 -198.14097,-72.2382 -233.47512,-78.1444 86.67753,-15.2763 151.27238,58.7384 232.81668,54.2428 48.04009,-0.7531 191.13929,-49.3274 174.26625,-37.298 -58.14772,19.1476 -108.86961,67.2934 -173.60781,61.1996 z"
       style="fill:#6c5353;fill-opacity:1;stroke-width:1.19841"
       id="path893" />
    <path
       d="m 278.44377,1149.9689 c -6.70297,-42.1187 28.19325,-159.65998 53.07551,-70.1721 71.51029,46.2236 -33.03451,53.6323 -53.07551,70.1721 z"
       style="fill:#ac9393;fill-opacity:1;stroke-width:1.19841"
       id="path895" />
    <path
       d="m 575.66316,1610.5518 c -63.22527,-9.3424 41.43017,-78.9065 8.21297,-6.2541 2.2045,2.2239 -5.68595,13.0051 -8.21297,6.2541 z"
       style="fill:#ffff00;fill-opacity:1;stroke-width:1.19841"
       id="path897" />
    <path
       d="m 880.269,1241.2326 c 8.90755,-47.2831 45.15162,-28.1017 0,0 z"
       style="fill:#483737;fill-opacity:1;stroke-width:0.299603"
       id="path899" />
    <path
       d="m 906.02642,1266.8079 c 51.19971,-33.8236 -7.70067,-31.3482 -13.01899,-29.8256 26.76706,-55.5083 84.90206,29.4419 13.01899,29.8256 z"
       style="fill:#483737;fill-opacity:1;stroke-width:0.299603"
       id="path901" />
    <path
       d="m 898.0462,1254.7995 c -0.23137,-30.8067 33.88968,5.1767 0,0 z"
       style="fill:#483737;fill-opacity:1;stroke-width:0.299603"
       id="path903" />
    <path
       d="m 507.57564,1278.8432 c -57.74825,4.9158 -0.41507,-95.6896 -17.85983,-16.4886 27.9174,39.883 69.17867,-66.7988 10.37555,-13.8323 26.90521,-85.0489 90.52265,32.6413 7.48428,30.3209 z"
       style="fill:#483737;fill-opacity:1;stroke-width:0.299603"
       id="path905" />
    <path
       d="m 509.03394,1260.7979 c 5.70438,-39.8267 26.7073,-4.6344 0,0 z"
       style="fill:#483737;fill-opacity:1;stroke-width:0.299603"
       id="path907" />
    <path
       d="m 649.9588,1938.5174 c -37.64263,-6.5856 18.70096,-32.6013 0,0 z"
       style="fill:#ac9393;fill-opacity:1;stroke-width:0.299603"
       id="path909" />
    <path
       d="m 622.90126,1927.5886 c -29.77142,-3.012 11.14976,10.7194 6.05981,-3.7441 z"
       style="fill:#ac9393;fill-opacity:1;stroke-width:0.299603"
       id="path911" />
    <path
       d="m 846.41015,2229.7837 c -66.70792,-20.4084 -138.28327,-23.758 -207.48942,-19.8043 -45.176,-25.3685 -146.29364,26.366 -164.45881,-10.6544 29.14116,-20.7346 104.34987,-160.1996 78.4916,-110.6036 17.23849,18.8707 34.4873,56.7679 -1.55692,20.3626 -6.36148,30.3837 111.62394,65.5918 37.27525,11.1379 -22.60435,-24.7084 -64.99165,-123.4219 -11.3328,-51.9803 24.101,21.0584 62.35691,23.2778 15.26167,-4.0703 -35.03583,-24.329 -55.50535,-82.3897 -4.5501,-28.8684 26.26162,20.448 63.3621,25.6776 10.38823,3.7889 -37.54534,-16.1228 -69.80396,-126.6429 -10.56378,-58.0607 20.19224,21.9508 70.03256,33.6283 19.93975,-0.305 -43.40504,-14.5017 -77.84011,-99.0595 -21.74237,-53.5891 -36.67467,16.0653 69.47389,-11.7167 29.48144,39.8574 21.8413,-22.0078 137.26302,2.5616 192.74481,-31.6397 106.92487,-54.9213 48.16619,105.5781 83.46783,159.6793 2.90594,41.31 58.21429,140.9287 58.8895,120.7214 -35.2765,-5.2222 -70.2642,23.9975 -104.24588,14.0283 z m -287.32262,-32.6359 c 4.16014,-10.2599 -100.04518,-45.9141 -31.4251,-0.8415 10.13544,3.4687 21.07161,1.882 31.4251,0.8415 z m 18.55432,-13.1627 c -7.38262,-7.1207 -77.05308,-81.9204 -36.69966,-10.0492 8.9166,10.7292 23.83505,12.2748 36.69966,10.0492 z m 18.21147,-10.067 c -21.6626,-15.9824 -86.98523,-73.8543 -38.06857,-8.9858 9.95334,10.2983 24.75316,12.2132 38.06857,8.9858 z"
       style="fill:#ac9393;fill-opacity:1;stroke-width:0.847406"
       id="path961" />
    <path
       d="m 692.52641,1944.4614 c -22.03498,-28.2331 -40.09934,-102.0631 -76.06911,-34.6974 -74.35898,2.5184 -141.0401,-69.4793 -189.79825,-124.5448 -50.45358,-59.497 -45.68376,-142.4719 -82.8361,-208.917 -12.83114,-29.0414 -22.47603,-71.1533 -1.78406,-18.8984 6.37406,37.6719 75.9824,124.6421 32.97118,37.3357 -36.94893,-59.0606 -38.35342,-87.6544 -44.64848,-135.4827 -33.63537,-87.0463 84.0701,151.3266 50.14017,75.0047 7.74268,37.5589 109.47129,63.1923 39.73154,22.9135 -52.04692,-47.3307 -76.49386,-115.8829 -107.49669,-177.2682 40.61691,54.0848 51.88666,152.8849 132.63051,159.97 -68.59609,-38.7239 -96.47128,-117.8843 -127.95827,-185.4877 38.09598,45.0718 55.10393,129.054 125.41605,132.2114 -52.04918,-27.37 -120.7326,-131.7329 -113.75526,-160.9622 7.85189,22.3346 82.12525,120.2198 68.04004,62.6937 -26.9185,-32.3827 -73.36448,-90.0488 -65.23081,-100.0119 0.92462,-18.0012 14.77139,-16.0958 -6.75031,-25.2595 38.6696,8.6952 81.10981,14.1098 79.85861,56.2222 -7.7237,-36.118 39.91502,-31.1424 32.59737,9.4178 16.19642,-40.8539 96.59674,-29.8831 122.54358,-35.5941 33.80929,38.7828 -94.80057,49.8673 -6.01594,37.2674 -3.78059,19.3389 -27.65334,33.0685 12.20681,5.6135 18.27138,-1.7156 -37.08554,56.1045 7.80395,11.6752 56.0277,-23.1994 -39.96557,-48.0498 10.43646,-68.5345 86.48324,18.6415 -17.46577,-101.2901 -70.62067,-78.4821 11.95547,-94.1794 128.63425,81.6615 89.81607,-7.361 -34.58709,-41.6723 -133.87784,-59.0513 -161.3536,-45.3471 45.67895,7.3205 -109.13977,33.2951 -19.06663,16.1806 -4.4782,16.8697 -67.31349,37.4209 -27.66463,36.1269 19.41406,40.1021 -21.96187,47.7489 -37.05189,12.8604 46.52235,100.7671 -118.61577,2.7741 -62.90928,-47.772 43.55268,7.4326 3.2052,51.8748 49.24947,14.2832 10.27224,-55.9158 71.25625,-111.1194 137.91067,-91.0421 81.4939,16.3827 186.30583,75.9255 159.32941,175.3079 -3.18405,36.8541 4.8902,80.3398 -18.11742,112.8532 -51.13438,3.4956 -77.05966,148.1425 -2.37679,123.3534 38.26206,-46.4796 77.90598,58.6175 122.67715,-7.9241 35.22788,-31.1854 111.42599,36.1387 104.73672,-54.1452 9.25236,-80.5077 -130.36642,-46.0681 -89.52209,-121.1609 -1.42913,-75.221 22.17164,-149.7064 92.90889,-185.4974 65.19765,-33.7451 138.23549,-76.1788 212.67892,-42.8348 44.4907,18.1988 -36.5063,-29.6833 14.2628,-54.5202 36.3773,-103.76747 -125.76701,103.969 -81.02861,-6.8949 9.45231,-41.47892 -6.57902,-68.55939 -24.62894,-16.3634 -15.86373,42.7615 -117.17927,121.1015 -67.88248,24.5652 0.65242,-64.21489 -33.14489,62.9712 -70.41795,65.0511 -54.73275,48.9755 -79.73785,128.2835 -96.77837,200.0905 -11.3157,47.5396 6.75683,101.0673 56.32861,98.5258 36.30861,38.9992 32.22434,87.6082 38.06411,77.6236 -27.16826,30.8281 -45.51024,-73.6734 -88.06547,-15.2439 -24.7743,92.8244 -66.78099,-11.306 -113.49303,-6.8953 -15.0718,23.941 -26.14152,54.9204 -33.06932,2.021 -5.05721,-36.1714 23.37818,-54.7627 54.35338,-71.4847 7.40347,-70.4076 27.88987,-152.8539 -9.21211,-218.1364 -27.72873,-64.8925 -94.79652,-82.2967 -121.44559,-148.4117 -58.65225,-84.72134 -20.98028,13.9694 -37.81307,32.6252 -18.18466,-25.0632 -66.83211,-113.92387 -62.73317,-32.1103 45.24953,82.8602 -155.41233,44.184 -77.90211,-19.6167 62.90559,-75.50806 88.82851,-179.82735 171.82411,-237.75827 30.14407,-6.79415 112.43631,-31.73764 168.75052,-35.69743 74.53201,13.28206 162.67056,0.92167 216.21275,66.39832 39.42431,65.7373 93.42418,120.36378 162.48594,158.82224 67.1918,42.79754 33.309,123.94254 101.1454,160.08034 -5.4305,79.697 -12.1435,159.4911 -31.9735,237.4257 -15.743,97.5863 28.1967,-59.7961 26.3376,-87.0671 16.6188,-23.2391 0.9587,74.1435 -2.1148,97.8917 -1.4591,47.7661 -48.6929,127.315 -27.2002,142.7137 -27.2333,71.7123 -47.0298,148.9992 -90.763,213.4034 -46.9435,78.1841 -106.24486,151.0067 -187.58302,195.1583 26.01182,7.1907 -91.79528,25.929 -115.66427,28.057 -14.56569,-0.8583 -28.21631,8.8676 -42.6535,5.6816 z m 111.29334,-55.1421 c 0.85047,-48.4274 -112.4542,-52.8232 -125.64151,-28.9391 44.93723,-16.574 111.56598,12.7264 125.64151,28.9391 z m 32.20141,-64.4323 c 84.33,-33.4801 76.23375,-141.7076 118.0048,-209.1442 24.87008,-28.9923 48.71954,-128.9572 97.08484,-83.2006 -10.3578,-33.4929 -103.89934,-105.3001 -46.3072,-30.8934 7.7513,80.7018 -123.51773,52.3007 -175.47541,84.3669 -91.04698,39.2149 -161.60131,-46.9868 -250.49792,-46.5085 -34.46629,-4.5689 -91.87206,-14.8789 -89.55919,-0.7738 -36.09433,56.2193 -45.85227,60.7484 1.59442,25.7778 91.27166,51.9947 58.09449,195.5826 153.77844,244.3269 57.9966,29.9243 128.68037,18.8773 191.37722,16.0489 z M 695.70543,1375.8798 c 78.55088,4.9883 -2.30251,-40.6186 -7.44432,-5.6634 17.75052,-5.7192 -21.93104,22.331 7.44432,5.6634 z m 141.9074,-33.6237 c 50.85185,0.3121 83.08873,5.9397 58.11131,-12.3577 55.58067,28.4055 -5.46641,-57.9061 47.47121,-41.0985 -5.48167,55.3417 34.69351,-53.2598 56.75454,9.1826 -7.21788,-52.5122 56.27291,7.2577 30.49541,-44.6065 25.0686,-22.4249 69.7537,33.1678 54.1194,-3.7395 33.2778,-10.4029 57.3964,-30.0596 2.4158,-19.5293 -55.9451,14.0477 -34.8038,-12.6723 -13.3655,-32.5066 -29.03,20.4331 -72.3863,31.8013 -28.0343,-12.4256 -5.7371,22.9074 -104.92324,27.5696 -40.9994,-5.1682 45.7369,-30.9542 -80.27931,-37.7219 -106.69952,-24.3885 -42.08932,19.9515 -31.07059,-2.8389 -62.41498,42.0852 -35.96417,39.9974 40.7776,-34.8694 7.87488,20.6337 -34.6695,5.6567 -81.09281,123.9443 -23.44061,59.5839 30.20106,11.2777 45.75595,16.3396 72.7438,12.8089 48.21826,73.7272 -80.91061,-23.2464 -61.36875,56.873 -4.68816,21.279 2.59993,-1.7851 6.33671,-5.3469 z m -349.36698,-4.6694 c -4.8517,-62.2934 -44.15862,-1.6515 0,0 z m 17.57733,-5.8555 c 10.91732,-55.4329 -30.73828,1.7384 0,0 z m 34.96182,-11.0926 c 2.46922,-43.0271 -29.97893,1.3253 0,0 z"
       style="fill:#ac9393;fill-opacity:1;stroke-width:1.69481"
       id="path1003" />
    <path
       d="m 567.10043,1100.3976 c -42.35023,5.7306 -87.72627,-73.4656 -60.49492,-85.1784 -5.90979,34.1585 78.88656,88.099 60.49492,85.1784 z"
       style="fill:#000000;fill-opacity:1;stroke-width:0.599206"
       id="path1014" />
    <g
       id="g1509"
       transform="matrix(4.3581773,0,-0.13316102,3.8642955,329.02377,762.23078)">
      <g
         id="g1173"
         transform="matrix(0.52900596,0,0,0.64883731,-178.24319,-96.795445)">
        <path
           d="M 555.37909,729.37125 C 513.11261,716.66171 466.2586,717.05587 428.57368,691.35113 378.86743,665.63881 332.32843,633.21704 292.59987,593.90931 c -11.27108,-36.29325 42.91907,-37.37283 51.49737,-6.7239 48.13037,44.25292 109.44443,74.65624 174.03537,84.9011 37.21358,3.91904 76.73338,5.26734 112.39538,-7.09722 15.46134,-10.46569 48.80139,-35.99537 43.80664,-47.21208 -27.42658,-21.70777 -22.55158,-63.98908 -35.95118,-93.8303 -0.77578,-30.97856 47.09734,-17.70503 30.60875,-50.33526 -6.94526,-117.52854 -20.22392,-235.62882 -10.47908,-353.24811 2.29628,-37.699843 44.15516,-36.521617 46.23146,-0.30519 12.44685,45.13915 6.83267,92.70084 9.63988,138.92644 -0.24068,77.47447 -2.19937,154.98546 -5.50187,232.31938 -5.06163,29.96466 49.38122,38.03723 28.22216,72.31315 6.1578,32.20406 1.7964,58.49912 -20.15192,82.17989 -10.46688,41.37481 -52.31471,61.25379 -89.53455,73.44259 -23.4791,6.29883 -47.55495,12.22027 -72.03919,10.13145 z M 577.11926,724 c 31.48789,-6.76836 29.52521,-70.26446 -6.46099,-41.26438 -10.64196,15.35716 -44.24862,52.20033 6.46099,41.26438 z m 30.59788,-2.90677 c 36.88556,4.12831 39.7771,-78.1451 1.81174,-43.01052 -11.48062,15.07835 -10.92177,39.21606 -30.05899,48.07012 9.57608,-0.55086 19.04435,-2.39815 28.24725,-5.0596 z M 541.29947,717.75 c 33.51285,-4.80004 16.20153,-65.67638 -10.96896,-32.83123 -16.84663,18.97708 -25.36351,41.34562 10.96896,32.83123 z m 90.52977,-3.27402 c 35.66361,4.70985 58.68848,-56.69895 26.84992,-70.58614 -25.01686,15.082 -13.31478,53.98908 -30.95553,71.86159 z M 517.46705,701.12079 c 31.05278,-33.02277 -43.84862,-37.43712 -44.93491,-4.55424 -11.22358,17.41057 43.72986,21.50335 44.93491,4.55424 z m -50.36053,-1.75438 c 42.9473,-22.53539 -17.80883,-53.01422 -30.44974,-13.59713 -1.90077,13.21248 21.42794,14.45699 30.44974,13.59713 z m 213.28314,-8.50952 c 39.62888,-2.98256 10.09775,-93.93983 -8.57,-51.3088 0.5668,15.68487 4.78824,54.44438 4.28958,55.44118 z M 438.69947,680.82762 c 39.85539,-23.46841 -33.96075,-48.79447 -41.92106,-14.07574 8.10805,11.81854 28.38346,16.33445 41.92106,14.07574 z M 708.923,663.46144 c 27.03712,-13.23313 -13.40869,-71.21869 -10.33083,-28.02052 2.00448,4.66485 -0.86436,43.98872 10.33083,28.02052 z m -310.13414,-1.67987 c 53.43881,-19.64162 -54.47235,-46.05695 -23.484,-5.92438 6.35885,4.95457 15.4349,12.05232 23.484,5.92438 z m -26.32803,-24.02411 c 31.46653,-19.50619 -36.24867,-50.93122 -41.00413,-16.44415 6.6021,11.82842 28.29601,25.20156 41.00413,16.44415 z m 358.30601,-17.05914 c 22.29194,-38.04124 -43.61304,-31.04233 -65.21749,-41.14962 -23.88373,14.60626 20.0731,47.40723 40.06933,36.18106 8.41008,1.32139 16.39726,6.77638 25.14816,4.96856 z m -45.44672,-2.50519 c -3.43969,0.33158 -1.10094,3.01587 0,0 z m -345.04957,-6.73672 c 27.63481,-22.9826 -52.60478,-65.03307 -43.6675,-26.26061 6.12487,16.56167 24.7927,34.75441 43.6675,26.26061 z m 394.08198,-26.87449 c 6.06848,-35.88451 -42.11937,-46.95692 -68.2856,-53.3911 -40.22357,9.8304 2.80854,51.73504 27.19402,52.771 13.4698,1.11954 27.74698,3.09711 41.09158,0.6201 z m 2.54589,-33.53226 c -5.008,-39.67543 -66.22955,-53.85073 -93.93479,-39.78741 -5.09809,35.28189 42.08713,6.45217 59.18388,28.42057 10.91183,5.43875 22.31676,10.98534 34.75091,11.36684 z M 705.51643,510.2 c 16.98955,-29.99753 -48.1434,-60.95053 -30.99171,-16.78629 5.67655,11.57004 19.37522,14.95246 30.99171,16.78629 z m 0.36015,-48.7 c 21.86513,-32.08176 -61.70206,-53.77314 -33.69054,-11.1586 4.2217,13.23298 31.65355,43.11346 33.69054,11.1586 z m 0.20268,-32.01536 c 18.51327,-25.6691 -26.4907,-63.22497 -39.89296,-40.69695 -1.64134,25.83552 14.42058,43.73923 39.89296,40.69695 z m 2.35694,-45.42395 c 16.08835,-29.13876 -29.64609,-53.22622 -45.1653,-40.04639 -3.05472,23.9563 22.07132,51.43021 45.1653,40.04639 z m 1.38216,-64.39402 c 15.92733,-34.38003 -73.90985,-61.23362 -48.81885,-9.10804 1.52669,28.10154 59.58907,56.98524 48.81885,9.10804 z m 0,-52.05417 c 8.18709,-27.44017 -43.53134,-38.26662 -51.67291,-37.02786 -17.59644,29.30256 45.90344,79.55816 51.35683,41.75307 z m 0.14821,-47.14983 c 17.31928,-29.42653 -59.61537,-60.44032 -53.23429,-24.51871 -1.57975,24.30678 48.63461,66.27632 53.23429,24.51871 z M 708.6548,179.25 c 15.12696,-28.40533 -45.63996,-73.61842 -50.36431,-33.2787 -5.81306,21.82069 39.96251,56.19665 50.36431,33.2787 z m -4.85915,-43.53466 c 11.39669,-26.36082 -43.08463,-61.62535 -38.54259,-18.71858 8.76603,11.80498 23.55629,20.18648 38.54259,18.71858 z m 195.3076,79.9071 c 1.40682,-4.51444 3.38011,-0.24678 0,0 z M 872.43129,83.622445 c 1.40683,-4.514413 3.38009,-0.246808 0,0 z"
           style="fill:#000000;stroke-width:0.92757"
           id="path125" />
        <path
           d="m 356.67913,639.86938 c -26.49853,-4.52436 -30.77415,-33.79986 -1.00842,-33.67211 26.278,0.56869 38.46858,42.27395 1.00842,33.67211 z"
           style="opacity:1;fill:#28170b;fill-opacity:1;stroke-width:0.544835"
           id="path137-4" />
        <path
           d="m 532.11614,718.18886 c -40.2182,5.76863 3.31962,-54.75262 25.07885,-39.45962 13.59734,14.1214 -8.30569,41.35618 -25.07885,39.45962 z"
           style="opacity:1;fill:#28170b;fill-opacity:1;stroke-width:0.544835"
           id="path982-1" />
        <path
           d="m 713.64113,586.33649 c -26.47823,0.65466 -63.22586,-17.06144 -63.80421,-45.86501 25.29971,-19.63947 61.44815,3.31094 80.7625,22.0247 12.98323,14.48654 1.11405,29.39169 -16.95829,23.84031 z"
           style="opacity:1;fill:#28170b;fill-opacity:1;stroke-width:0.544835"
           id="path984-7" />
        <path
           d="m 697.19753,386.22717 c -28.21308,6.10047 -50.91689,-64.00117 -13.07006,-41.84656 25.75631,-2.12229 40.04395,39.32576 13.07006,41.84656 z"
           style="opacity:1;fill:#28170b;fill-opacity:1;stroke-width:0.544835"
           id="path986-1" />
        <path
           d="m 693.65984,185.39224 c -25.67669,-2.68952 -49.90836,-37.1094 -25.47094,-55.67446 28.60146,-7.90592 62.88145,57.32446 25.47094,55.67446 z"
           style="opacity:1;fill:#28170b;fill-opacity:1;stroke-width:0.544835"
           id="path988-1" />
        <path
           d="m 419.60762,678.81595 c -52.19105,-7.01025 22.28316,-53.72673 30.36071,-13.56261 4.21712,16.89696 -19.71345,21.29431 -30.36071,13.56261 z"
           style="opacity:1;fill:#784421;fill-opacity:1;stroke-width:0.544835"
           id="path990-0" />
        <path
           d="m 626.64508,715.01979 c 23.0817,-15.5197 7.14325,-74.65011 39.01335,-69.18908 18.8698,31.39394 -1.88851,70.58623 -39.01335,69.18908 z"
           style="opacity:1;fill:#784421;fill-opacity:1;stroke-width:0.544835"
           id="path992-4" />
        <path
           d="m 696.38401,285.02437 c -32.32401,9.55249 -57.56483,-72.27531 -19.03974,-50.64752 24.58289,-0.0289 55.20659,49.41212 19.03974,50.64752 z"
           style="opacity:1;fill:#784421;fill-opacity:1;stroke-width:0.544835"
           id="path994-2" />
        <path
           d="m 728.26537,549.83243 c -24.24714,-18.38581 -67.21733,-15.24543 -84.86228,-29.26685 11.21363,-34.25198 67.2901,-5.5199 86.53082,10.82661 4.69569,5.20979 13.93451,23.56391 -1.66854,18.44024 z"
           style="opacity:1;fill:#784421;fill-opacity:1;stroke-width:0.544835"
           id="path996-0" />
        <path
           d="m 327.25802,613.38066 c -27.5457,2.93125 -46.75688,-62.80074 -7.18917,-39.29979 16.66154,8.92234 48.53259,39.42724 7.18917,39.29979 z"
           style="opacity:1;fill:#a05a2c;fill-opacity:1;stroke-width:0.544835"
           id="path998-2" />
        <path
           d="m 559.90274,725.04715 c -25.63287,-8.99243 15.89608,-60.19075 36.75394,-46.55859 11.86616,20.90893 -13.00432,52.58872 -36.75394,46.55859 z"
           style="opacity:1;fill:#a05a2c;fill-opacity:1;stroke-width:0.544835"
           id="path1000-1" />
        <path
           d="m 723.26116,620.40388 c -22.73761,-3.52715 -75.39708,-9.24622 -62.41046,-38.97744 24.96211,7.19316 63.49925,2.15647 76.62933,25.35288 1.33072,7.99875 -6.14803,15.37236 -14.21887,13.62456 z"
           style="opacity:1;fill:#a05a2c;fill-opacity:1;stroke-width:0.544835"
           id="path1002-0" />
        <path
           d="m 695.19827,474.73606 c -30.89319,-7.6493 -36.66393,-68.30645 2.74991,-43.75394 14.27185,6.49939 14.07224,42.09395 -2.74991,43.75394 z"
           style="opacity:1;fill:#a05a2c;fill-opacity:1;stroke-width:0.544835"
           id="path1004-7" />
        <path
           d="m 696.23624,135.55142 c -30.53543,7.26504 -41.28013,-55.856964 -8.95132,-36.179074 6.67485,6.274214 28.99848,34.331254 8.95132,36.179074 z"
           style="opacity:1;fill:#a05a2c;fill-opacity:1;stroke-width:0.544835"
           id="path1006-5" />
        <path
           d="m 488.80172,710.72558 c -42.17059,-1.87706 12.73725,-58.66697 32.70143,-31.44078 16.17146,16.3534 -18.24451,39.18627 -32.70143,31.44078 z"
           style="opacity:1;fill:#c87137;fill-opacity:1;stroke-width:0.544835"
           id="path1008-5" />
        <path
           d="m 488.80172,710.72558 c -42.17059,-1.87706 12.73725,-58.66697 32.70143,-31.44078 16.17146,16.3534 -18.24451,39.18627 -32.70143,31.44078 z"
           style="opacity:1;fill:#c87137;fill-opacity:1;stroke-width:0.544835"
           id="path1010-3" />
        <path
           d="m 386.60589,662.76495 c -42.74478,-12.5009 13.63139,-48.2159 27.18363,-17.61618 1.89949,14.15229 -16.23279,19.51759 -27.18363,17.61618 z"
           style="opacity:1;fill:#c87137;fill-opacity:1;stroke-width:0.544835"
           id="path1012-1" />
        <path
           d="m 694.22646,238.27938 c -30.34565,1.46997 -56.36017,-72.61188 -15.05975,-56.28314 26.65686,2.06113 52.33093,53.2309 15.05975,56.28314 z"
           style="opacity:1;fill:#c87137;fill-opacity:1;stroke-width:0.544835"
           id="path1014-4" />
        <path
           d="m 696.38388,507.17258 c -30.63992,7.36029 -31.23145,-58.87535 0.17841,-31.1428 9.1087,2.31535 16.05895,40.03152 -0.17841,31.1428 z"
           style="opacity:1;fill:#c87137;fill-opacity:1;stroke-width:0.544835"
           id="path1016-7" />
        <path
           d="m 672.14816,697.2973 c 15.07792,-20.71471 -19.66929,-68.92788 18.24266,-70.90674 10.89173,24.97957 14.39833,60.74814 -18.24266,70.90674 z"
           style="opacity:1;fill:#c87137;fill-opacity:1;stroke-width:0.544835"
           id="path1018-1" />
        <path
           d="m 454.61523,699.49827 c -41.90817,-2.98734 19.52184,-56.55225 29.37147,-24.39926 0.27447,13.87779 -15.38508,28.44115 -29.37147,24.39926 z"
           style="opacity:1;fill:#d38d5f;fill-opacity:1;stroke-width:0.544835"
           id="path1020-3" />
        <path
           d="m 584.61185,723.19354 c 14.76148,-15.13801 30.03636,-76.63533 53.9658,-42.67548 1.27207,26.14877 -29.18587,49.33914 -53.9658,42.67548 z"
           style="opacity:1;fill:#d38d5f;fill-opacity:1;stroke-width:0.544835"
           id="path1022-5" />
        <path
           d="m 703.79929,667.44739 c -9.06807,-14.88143 -9.34701,-71.73219 12.07688,-35.30009 0.98438,11.96892 0.0316,29.03692 -12.07688,35.30009 z"
           style="opacity:1;fill:#d38d5f;fill-opacity:1;stroke-width:0.544835"
           id="path1024-7" />
        <path
           d="m 694.74951,428.423 c -29.36975,6.58747 -41.95764,-68.36639 -5.47946,-39.86077 24.01659,-3.79109 28.6652,45.8892 5.47946,39.86077 z"
           style="opacity:1;fill:#d38d5f;fill-opacity:1;stroke-width:0.544835"
           id="path1026-9" />
        <path
           d="m 697.20127,345.57303 c -31.88688,-3.59551 -44.39041,-44.51854 -33.38728,-69.07601 28.27734,8.42964 58.66006,26.40608 45.87053,61.19872 -1.2536,5.45689 -6.63758,10.38866 -12.48325,7.87729 z"
           style="opacity:1;fill:#d38d5f;fill-opacity:1;stroke-width:0.544835"
           id="path1028-4" />
      </g>
      <path
         d="m -11.609059,268.04212 c 7.0661327,-12.37454 41.953613,-13.62517 25.767453,4.73751 -8.7996225,5.71575 -15.7116235,16.04464 -1.763326,4.86954 19.913829,-10.70031 -0.598269,-31.13859 -15.658485,-17.97515 -3.2191211,1.95553 -7.879937,4.0738 -8.345642,8.3681 z"
         style="fill:#000000;fill-opacity:1;stroke-width:0.264583"
         id="path1470" />
      <path
         d="m -11.02513,267.78267 c 0.623954,-3.47282 -4.385525,7.53411 0.750981,-1.50625 -7.698021,8.48279 15.6012444,-14.06343 23.804458,-5.85369 17.887363,4.02798 -26.064856,32.42508 -2.825169,17.4895 17.909191,-8.86707 3.854325,-27.6541 -11.9168528,-18.61113 -9.4454092,2.65668 -15.2561592,16.75487 -8.2533581,6.21829 -1.4452551,-0.69242 -4.3591291,1.65956 -1.5600591,2.26328 z"
         style="fill:#000000;fill-opacity:1;stroke-width:0.264583"
         id="path1472" />
      <path
         d="m 12.866139,257.31962 c -0.744655,1.71097 -1.23235,4.33254 2.616508,1.20942 0.171455,-3.08066 -9.3833381,-0.37669 -2.616508,-1.20942 z"
         style="fill:#550000;fill-opacity:1;stroke-width:0.264583"
         id="path1474" />
      <path
         d="M 1.053967,281.12265 C -21.715244,269.97242 9.3711189,247.4762 17.894909,265.89483 15.906429,271.32172 6.144098,281.69985 1.053967,281.12265 Z"
         style="fill:#550000;fill-opacity:1;stroke-width:0.133635"
         id="path1476" />
    </g>
  </g>
</svg>
