<?xml version="1.0" encoding="UTF-8" standalone="no"?>
<svg
   xmlns:dc="http://purl.org/dc/elements/1.1/"
   xmlns:cc="http://creativecommons.org/ns#"
   xmlns:rdf="http://www.w3.org/1999/02/22-rdf-syntax-ns#"
   xmlns:svg="http://www.w3.org/2000/svg"
   xmlns="http://www.w3.org/2000/svg"
   xmlns:sodipodi="http://sodipodi.sourceforge.net/DTD/sodipodi-0.dtd"
   xmlns:inkscape="http://www.inkscape.org/namespaces/inkscape"
   inkscape:version="1.0 (4035a4fb49, 2020-05-01)"
   sodipodi:docname="villager7knot.svg"
   viewBox="0 0 915.51294 1246.4307"
   height="1246.4307"
   width="915.51294"
   id="svg10"
   version="1.1">
  <metadata
     id="metadata16">
    <rdf:RDF>
      <cc:Work
         rdf:about="">
        <dc:format>image/svg+xml</dc:format>
        <dc:type
           rdf:resource="http://purl.org/dc/dcmitype/StillImage" />
        <dc:title></dc:title>
      </cc:Work>
    </rdf:RDF>
  </metadata>
  <defs
     id="defs14" />
  <sodipodi:namedview
     inkscape:current-layer="g18"
     inkscape:window-maximized="1"
     inkscape:window-y="-11"
     inkscape:window-x="-11"
     inkscape:cy="280.37369"
     inkscape:cx="429.14454"
     inkscape:zoom="0.55629139"
     showgrid="false"
     id="namedview12"
     inkscape:window-height="1826"
     inkscape:window-width="1080"
     inkscape:pageshadow="2"
     inkscape:pageopacity="0"
     guidetolerance="10"
     gridtolerance="10"
     objecttolerance="10"
     borderopacity="1"
     bordercolor="#666666"
     pagecolor="#ffffff"
     inkscape:document-rotation="0"
     fit-margin-top="0"
     fit-margin-left="0"
     fit-margin-right="0"
     fit-margin-bottom="0" />
  <g
     id="g18"
     inkscape:label="Image"
     inkscape:groupmode="layer"
     transform="translate(-102.39081,-263.81628)">
    <path
       d="m 658.96425,1506.4288 c -52.38273,-15.2287 -106.32752,-14.7658 -159.7278,-16.4443 -44.18645,-7.3732 -102.80507,16.0551 -138.14997,-1.7544 27.67132,-0.5318 78.60893,-70.1169 36.28377,-54.5066 -6.91185,-32.8841 -4.83214,-38.3444 -14.61974,-2.0003 -31.26937,72.8132 6.9902,-123.7154 -15.36714,-28.2876 0.13397,29.1223 -33.81938,80.7878 -20.41233,20.7392 5.18884,-29.3616 -3.39956,-62.0623 -5.75212,-14.601 -3.17356,31.8988 -21.84935,47.2086 -12.5526,6.1855 -16.18639,46.4091 -13.47523,17.4331 -3.91853,-13.3663 -11.80169,47.7477 -21.00751,24.6803 -12.60775,-12.3244 7.43577,-26.1556 -2.6704,-69.3324 -6.74642,-20.7295 -0.15238,37.5352 -2.48846,102.233 -13.95772,57.0215 -15.1037,61.5808 -30.90033,-51.5186 -37.08698,4.153 -18.54798,35.2407 5.29405,-110.166 -9.73667,-45.4498 1.48415,28.6143 -23.55377,93.3694 -16.9687,27.0943 2.78579,-22.333 -8.15568,-81.7893 -7.21184,-25.7896 15.684,29.1401 -27.24626,80.6921 -29.40319,25.1458 1.03889,-25.2548 11.36766,-124.8332 -5.38784,-52.1309 -2.52906,23.7258 -0.80762,98.4975 -9.48427,33.0764 -40.28512,77.6454 -0.1856,-67.7297 -20.08443,-55.522 11.00632,-19.872 -1.41353,-114.0247 -15.8925,-52.8426 17.08134,-58.1677 -20.09108,-107.452 -29.7154,-163.0883 -8.40823,-25.2095 -8.3835,-75.7213 4.67771,-21.7893 0.0366,32.6658 25.02708,103.0146 17.40311,34.0153 -19.27818,-52.094 -10.79172,-107.4903 -14.02549,-160.65514 -2.67642,-33.16654 12.57061,-61.67968 7.42726,-11.89353 8.5275,69.10887 8.22698,-73.0307 7.54786,-94.53641 -0.49418,-29.72355 -1.37724,-107.629 -9.87886,-39.82908 -10.85083,63.09189 -15.68324,127.33123 -12.61698,191.31776 -17.745693,-49.09903 -1.71884,-107.86383 2.41236,-160.26642 19.6927,-115.20576 28.81221,-236.27519 91.52774,-338.34075 54.25997,-94.13492 134.67694,-186.06848 247.67045,-204.13278 69.81613,-0.077 123.39814,-25.62069 184.38415,-49.9463 66.54685,-5.75525 130.21449,25.2245 187.67242,55.13516 49.92537,38.61574 105.19747,72.92845 139.63281,128.49447 64.02168,84.01139 47.87068,195.36978 53.45738,294.11571 -13.5267,128.22409 -37.98788,255.31921 -44.97166,384.38041 -5.71477,76.8355 -27.99888,151.5377 -46.43542,225.0724 -1.60539,26.0425 -24.31836,89.5045 -37.03931,90.8433 3.95675,-31.9477 -29.01069,-52.6154 -28.35507,-69.9516 10.26076,47.1785 -43.69434,101.853 -55.08506,40.6904 -29.60972,49.9478 -77.86989,-8.3857 -66.58502,-10.3895 -43.28887,37.3085 63.80881,105.8189 -20.43628,97.7201 -21.64681,-5.4459 -40.20867,16.6517 -59.88393,5.3677 z m 27.46549,-4.11 c 27.06024,-10.0338 89.03335,-1.7367 44.2482,-41.8301 -38.73177,-56.5498 -38.54918,-126.5318 -45.72448,-191.7213 -59.07408,13.4984 -118.21266,40.4849 -179.73041,24.7946 -12.12549,45.2155 -0.96859,-48.4638 -39.07102,-12.7031 19.48598,-24.8845 -47.42774,-20.9154 -5.63957,8.7681 12.21885,18.2734 78.87489,62.8852 20.77135,29.8049 -21.39908,-18.3466 -48.01903,-41.9579 -27.58285,1.2317 6.01071,26.8949 90.48986,70.1891 22.87241,35.6346 -54.33254,-51.5323 -8.22969,24.9111 20.59827,37.0324 -24.97007,4.1729 -64.13198,-64.9372 -45.7411,-9.7988 9.57081,29.8798 81.20018,72.7058 11.74321,49.4404 -28.49363,-11.8814 -14.22639,-32.6427 4.49455,-7.3986 -20.10103,-93.1236 -85.04823,66.0804 -8.67045,48.1436 -18.33554,5.2262 -89.99157,-21.7655 -64.09935,15.3197 57.28679,-5.6845 114.45498,-4.0985 172.15702,-3.0352 40.38237,2.0456 79.46334,13.172 119.37422,16.3171 z m -228.39015,-34.6227 c -32.57431,2.4884 -30.57222,-61.4759 -12.12732,-14.8289 4.38477,5.9084 43.44961,14.2447 12.12732,14.8289 z m 12.43511,-7.059 c -36.02903,-7.6785 -39.63416,-56.9226 -8.50048,-12.5889 7.52597,2.8491 33.29289,14.331 8.50048,12.5889 z m 370.02553,-21.7086 c 17.37808,-23.888 5.97055,-104.0645 3.93203,-35.2072 -2.04894,55.8719 -23.02689,-63.444 -25.66031,5.6429 1.0138,10.4819 5.32135,44.3009 21.72828,29.5643 z m -419.34341,-3.2849 c 25.73745,-42.8361 -15.88243,13.1127 -1.21064,1.5445 z m -138.09899,2.1715 c 8.80283,-22.8371 22.81189,-138.0922 6.34988,-64.3205 -3.57523,21.063 -11.36624,42.9644 -6.34988,64.3205 z m 127.51393,-18.1918 c 0.79391,-20.2005 15.15356,-119.7431 23.67897,-55.2067 3.87013,-28.6741 16.49167,-106.6986 -13.0907,-106.3293 -9.5445,50.9084 -3.10835,121.478 -10.58827,161.536 z m -133.45277,-8.6129 c 5.81933,-25.426 -2.10369,-84.9806 -9.86761,-27.741 -2.40195,5.5293 8.81976,67.2046 9.86761,27.741 z m 512.798,12.4209 c 12.79112,-22.5091 4.27849,-98.8943 -2.20031,-102.8299 9.45989,30.7676 -40.83295,87.1966 2.20031,102.8299 z m 108.0767,-0.087 c 5.59922,-31.9814 -10.3727,-54.5247 -3.73525,-101.6654 -8.41368,32.2444 -17.89873,72.44 3.73525,101.6654 z m -471.97666,-9.1848 c 14.42296,-29.6491 7.02294,-47.6685 -2.02811,-4.6106 -2.41472,1.3036 -6.06644,28.9694 2.02811,4.6106 z m -42.94576,-14.481 c 3.74844,-25.8929 27.80659,-117.8743 16.85674,-42.0052 -6.98516,37.2643 9.17889,64.8016 8.15279,12.8438 -8.85023,-40.1307 24.36503,-121.5849 -16.35969,-134.2404 5.00302,56.5808 -9.96387,131.5667 -10.54495,175.555 z m 337.66385,16.2708 c -4.60782,-0.237 2.33789,4.7109 0,0 z m 9.9036,-23.2708 c 3.61178,-27.9322 -16.53469,-51.8292 -6.01403,-6.6517 -0.4523,23.3831 7.37195,39.2477 6.01403,6.6517 z m -520.00623,-22.1661 c 16.32558,-25.8444 -17.721,-83.8965 -6.14113,-25.3589 0.41665,24.078 -2.00154,94.7395 4.90124,32.6624 z m 595.83224,34.8429 c 13.425,-32.0537 -16.42693,18.0118 0,0 z m -86.89062,1.0732 c -3.37286,-9.6459 -2.25597,7.7447 0,0 z m -460.90708,-14.4623 c -4.70437,5.8688 -0.70942,21.3684 0,0 z m 104.93181,-24.317 c 24.17957,-43.2141 27.79012,-97.3057 17.84502,-144.6205 -30.00836,-41.8513 -63.62014,-49.6006 -86.34365,-72.2471 -10.44492,-12.0165 -29.97239,-58.2609 -10.5127,-39.0339 -3.82846,-26.1276 -24.17035,-74.5838 -17.63306,-17.8481 0.97937,40.5286 9.76408,55.0537 31.20906,69.3689 7.57844,22.2099 21.66659,120.0486 1.24506,48.7174 0.62056,-29.7746 -19.7539,-76.0179 -20.61719,-18.6551 4.46604,53.4992 10.42408,104.9535 7.67962,157.8385 23.19806,-23.8049 33.67211,-116.4757 25.48802,-38.0363 3.1016,19.5822 9.98409,71.1969 10.86314,74.8324 28.15081,-46.0606 23.2191,-130.4624 33.10498,-161.5353 8.21051,56.3754 -12.70351,113.9875 0.41201,170.3564 3.24975,-9.4833 3.93114,-19.661 7.25969,-29.1373 z m -42.11275,1.0036 c 6.20706,-24.2797 7.00895,-110.2155 15.31211,-91.3134 -3.72341,30.188 1.63463,64.6633 -15.31211,91.3134 z m 448.57457,5.7757 c -2.25531,-75.872 -9.37072,69.361 -0.24965,8.0525 z m -429.57516,5.2374 c 10.80417,-46.7935 -6.41399,-14.7089 -3.27806,12.6515 l 0.89306,-1.1457 z m 487.6846,3.8329 c 4.56621,-25.6198 -16.44919,-64.4845 -13.66554,-16.7725 0.85539,8.5409 -3.30815,38.416 13.66554,16.7725 z m 80.94143,-3.2572 c 9.14697,-51.5407 -11.57393,32.3685 0,0 z m -163.33491,-16.1814 c -4.17398,-71.1524 -1.32577,44.8568 0.22267,14.5945 l -0.0846,-6.3946 z m 130.01049,14.9815 c -0.50463,-72.6807 -10.88557,39.8316 -0.83401,5.1547 l 0.55711,-3.4433 z m -121.9489,3.3985 -0.034,3.9684 z m -516.63964,-19.5749 c -1.19448,-51.6382 -7.80706,53.1396 0,0 z m 567.47968,-2.6868 c -4.6964,-24.6998 3.15644,43.3337 0,0 z m 37.50636,8.5 c 37.66346,-82.201 13.39414,-176.9824 45.70564,-261.0723 9.68679,-20.8474 17.77541,-90.8837 2.34558,-34.5884 -12.27467,56.6354 -25.43534,97.2633 -34.08042,165.76 10.64802,40.9261 -30.98818,117.277 -13.9708,129.9007 z m -666.19844,0.5 c -3.64786,-24.8557 -3.54296,27.2916 0,0 z m 200.09408,-18.95 c -14.0096,19.3385 -1.6038,26.5797 0,0 z m -111.10246,7.45 c 16.99948,-30.3488 14.89372,-121.5554 2.69342,-124.865 -5.58881,21.8972 14.43571,87.4183 -9.94073,72.2892 -2.44997,9.0607 -5.00918,67.6568 7.24731,52.5758 z m 495.5151,-2.0419 c 12.7004,-33.201 -21.05711,-48.5522 -5.32682,-6.38 -0.91472,1.1641 5.80085,29.6618 5.32682,6.38 z M 905.7119,1351.93 c 27.87439,-68.7483 41.49274,-143.6372 46.98599,-217.2707 -2.22945,-25.8563 7.98777,-81.2284 -5.33756,-25.2884 -18.10075,66.0545 -20.64006,134.9429 -33.52076,201.9867 -12.81046,-80.402 18.73289,-159.9648 20.26898,-240.136 -33.99309,88.7831 -48.84305,184.2354 -53.60543,278.2383 3.78883,-27.4366 27.95199,-64.729 21.4002,-8.8862 -0.0805,-2.8728 -1.39709,29.1517 3.80858,11.3563 z m -171.81992,-32.5388 c -22.28978,-2.0046 6.83446,62.4828 -0.10571,10.675 z m 102.37475,23.7873 c 12.88683,-39.3386 11.046,-119.4205 -13.02824,-54.3049 -28.41279,3.6677 3.66374,-155.3497 -40.55871,-81.2369 -13.49623,24.1919 -32.13359,85.5604 -16.20643,93.4127 11.89543,-20.8456 8.22861,80.3852 17.96236,13.0939 21.3084,-42.1364 25.8938,49.5852 37.53588,7.2536 7.03781,3.0771 9.32803,52.2872 14.29514,21.7816 z m -648.15575,-22.1829 c 22.35875,-32.6218 -20.55957,-89.5215 -3.9941,-25.3646 -3.03096,16.2052 -2.13065,64.6018 3.9941,25.3646 z m 681.71296,18.9519 -0.0668,2.9515 z m -631.44299,-2.0239 c 34.95507,-49.4255 -0.16931,-109.2364 -2.73417,-162.6482 -14.5155,43.2638 -6.7918,103.1335 -2.49673,151.9614 z m -13.31768,-3.9951 c -2.19764,-12.7147 -0.80013,16.7635 0,0 z m 488.73246,-15.8079 c 23.70376,-18.086 15.98659,-19.7347 23.63266,-59.1335 -16.56457,-46.006 -61.26457,46.9751 -23.63266,59.1335 z m 159.33522,-0.022 c 7.28725,-88.9603 30.34786,-175.5765 42.02525,-263.9198 -32.73935,79.477 -30.26137,167.3887 -46.31973,250.5184 l 1.02293,7.4862 z m -652.48664,-7.0995 c -0.56175,-26.4459 -7.78904,-137.332 -15.00668,-60.0217 -5.92343,10.7982 -0.17717,77.1722 15.00668,60.0217 z m 709.85321,0.9297 c 44.74882,-136.7013 36.71896,-282.8621 62.68063,-422.89601 10.72045,-80.37414 26.84465,-162.10223 13.53395,-243.02721 -13.62613,50.28441 -6.87508,111.29552 -15.05195,165.44171 -6.58559,66.55512 -16.48689,133.95175 -33.65093,197.94951 -0.23413,-33.94896 4.7436,-131.00938 13.09919,-129.80229 -0.57894,72.06239 10.31689,-48.18622 13.56649,-68.75873 4.76428,-26.84067 2.98662,-69.80184 -3.63666,-17.03504 1.1844,29.14959 -11.19972,83.3908 -8.61563,20.74724 0.31766,-43.61036 -19.34611,104.14826 -20.8125,27.27818 7.66958,-82.32275 26.4212,-164.11849 24.63595,-246.73881 9.14932,-28.27045 -45.08776,-79.02396 -23.99745,-23.66646 14.83955,46.27856 14.24712,95.70461 9.88104,142.75884 -14.06571,-20.7013 -5.09779,61.20923 -13.22982,82.06989 -2.4646,29.18721 4.39295,92.81823 -14.4163,88.52769 7.31439,58.27954 4.631,118.98899 -8.23329,176.12679 -8.17827,-9.079 12.37067,-116.77767 -7.17824,-37.8228 -17.54141,37.9001 13.43764,-1.3669 1.93545,36.8094 -4.13279,29.3708 -17.83328,94.364 1.04767,29.3829 7.06832,-33.0328 29.6849,-48.7092 18.2552,-2.6564 -5.18777,27.8576 -10.10707,84.8004 0.13157,24.4568 0.63428,-26.3321 35.45912,-61.4575 23.75139,-13.3218 -0.14878,69.0585 -28.90841,163.5427 -33.69576,214.1766 z m 35.63343,-476.62747 3.04041,-2.55703 z M 743.61917,1301.6979 c 5.28375,-21.5677 -4.58279,15.0665 0,0 z m 10.85534,-14.5191 c 3.42549,-21.4527 30.09123,-97.0174 -5.19141,-48.9478 -0.41896,3.7282 -2.25709,75.8398 5.19141,48.9478 z m -168.4804,-3.0038 c 24.93969,-1.1355 110.7516,-19.3364 87.1789,-21.8854 12.29334,-13.2226 65.70088,-37.8445 24.95794,-6.4907 29.18387,-7.6945 69.88175,-64.4382 75.62584,-65.4555 -26.01935,27.6903 -27.46263,53.3006 7.88536,11.5239 47.44405,-80.6873 30.38389,90.2696 40.58626,58.538 4.677,-54.7439 -0.57039,-118.0895 34.02157,-160.6963 1.63213,-25.2383 14.88938,-101.91669 16.1415,-30.9962 -1.514,20.3808 -4.88977,91.7987 5.09433,34.2453 3.13496,-32.0977 40.08713,-134.15128 -15.63786,-73.4782 -24.22841,57.2788 -53.0445,119.1862 -98.97906,160.3394 38.46657,-49.4887 74.69826,-101.6276 92.55918,-162.9954 17.39664,-28.4714 29.05616,-119.7648 31.78016,-106.17461 -3.12867,27.91636 -18.39792,51.20512 -7.43935,9.17465 8.1774,-58.93478 22.8908,-88.27134 29.26467,-134.88778 -3.0478,-91.63437 -14.11341,66.29736 -28.34347,64.12947 9.54761,-55.6031 25.85543,-111.06876 23.11062,-167.58083 -7.84193,13.4631 -34.20431,-50.52615 -18.42753,-2.98512 -15.24712,7.90609 -37.26271,-9.62475 -14.44059,18.40425 C 821.41535,674.55623 764.85086,638.99477 727.05368,587.94189 687.99852,536.68495 638.60103,497.46991 575.6209,480.43608 547.30486,468.78328 546.11035,404.94338 507.90038,450.65666 407.6408,521.77004 324.37831,625.62189 294.44082,746.31279 c -12.12558,44.41694 39.27099,27.69555 9.63129,-5.41118 9.34036,30.9836 49.16243,12.38038 23.65408,-16.96048 20.43557,-13.68722 42.88141,-30.85807 2.67337,-17.84896 17.9032,-4.35844 83.24271,-14.09199 32.49207,-18.43412 47.00551,-1.496 114.59226,3.08032 130.53714,57.32339 -13.93831,-20.05476 -59.45906,-57.29228 -71.98681,-21.17076 27.59585,11.61525 96.04421,30.9263 70.47472,72.86365 -25.29101,-23.96506 -36.89244,1.64835 -29.13701,21.4692 -5.18207,-50.52 -53.11956,2.38726 -86.37282,-13.04489 -23.30692,31.49734 -3.195,7.45844 -29.69418,-9.92979 -9.73045,23.92647 -18.26229,30.87031 -16.6423,-2.37482 -18.56406,-9.85207 -55.17319,-17.34956 -43.11887,1.62262 8.60504,-15.88387 -5.38817,45.36068 24.61345,53.57888 25.25777,14.47175 33.50371,59.58241 -0.37999,21.67855 -9.45694,-23.55271 -56.42631,-79.76332 -26.2439,-21.86776 10.99137,33.09503 78.0024,100.22128 69.75285,96.5111 -41.94481,-11.94295 -68.64919,-92.27119 -80.59231,-94.77914 13.2577,48.19569 61.6432,114.95679 85.68841,133.4629 -56.7985,-13.07479 -61.1277,-81.03137 -91.63672,-122.3855 -4.62144,-3.27232 28.94303,69.64388 45.35506,93.05156 7.07548,22.12827 85.90817,84.59316 25.47533,47.62076 -24.98459,-12.75879 -58.26482,-106.5778 -61.30765,-86.78919 9.03787,45.68585 12.86982,76.60779 44.8434,124.51879 1.37224,51.5293 -61.87993,-124.60228 -35.90965,-38.7331 26.67803,47.6084 28.32293,103.2018 54.16467,150.5425 35.36197,52.4709 86.02196,94.513 144.87795,117.0454 24.34136,-23.4913 47.70796,-40.7206 55.32573,6.9292 9.43809,20.9415 28.64332,13.1296 45.01598,9.3734 z m 49.35188,-30.7462 c -3.7096,-49.9719 -111.18704,-21.2177 -88.66253,-34.6681 26.88126,-8.3577 95.3869,-7.6878 88.66253,34.6681 z m -57.71504,-53.7114 c -63.51706,4.8237 -108.95652,-49.0135 -119.07801,-106.8327 4.37477,-60.8848 -72.53228,-103.81573 -81.35137,-73.5236 18.62996,-21.60726 28.37947,-52.34096 34.84361,-29.1472 63.06415,-21.41355 125.39539,11.3504 181.503,35.016 64.28501,3.0037 126.91195,-25.2118 188.12783,-37.50421 33.95908,-19.64014 -38.75901,-87.38745 14.2314,-41.3517 17.05074,14.3499 39.51097,47.68259 5.68848,18.81844 -51.09083,47.86657 -70.19802,117.35117 -91.24437,181.37247 -22.18797,59.7431 -79.7413,58.2741 -132.72057,53.1525 z m 83.29235,-7.0569 c 33.35809,8.8751 29.72712,-52.1385 20.6027,-18.6886 -22.53906,-40.2395 -22.39328,36.7914 -32.64403,-12.6151 -28.58006,-24.7588 -33.03604,63.9228 -34.03687,1.0347 -31.80901,-28.0928 -42.91202,56.4307 -37.00341,-0.9429 -21.2817,-40.2648 -34.37733,46.9398 -34.11393,-7.4812 -44.60153,-36.7398 -63.23007,26.3203 -7.55537,31.2009 40.13979,13.8263 83.2315,8.2757 124.75091,7.4922 z m 40.8433,-38.2317 c 8.62125,-47.2847 55.16828,-124.6991 52.04185,-148.0327 -42.50239,1.0903 -30.26741,64.1855 -72.97363,44.1093 19.52481,48.3417 -10.49405,102.1839 -63.81969,66.1647 -8.79988,-18.1719 -11.72831,-68.8376 -19.48844,-17.0075 -5.13235,42.431 -60.43347,15.225 -82.67843,8.5083 17.79654,-18.2596 55.46137,-87.6857 1.95887,-71.7371 -10.62598,46.1585 -43.2292,-15.3587 -52.03675,6.5391 -38.3111,-0.6008 20.05914,62.5128 15.84347,90.1866 51.65091,14.7793 120.00626,18.9111 179.20953,22.2054 13.98906,-2.7554 28.17253,0.9895 41.94322,-0.9361 z m -69.63565,-35.2993 c 61.12284,30.8737 61.51935,-105.7444 0.51617,-63.5651 -40.91589,-5.6459 -9.82955,57.168 -0.51617,63.5651 z m -42,-7.362 c 32.36785,-37.5043 -14.63822,-98.6052 -45.05333,-52.5184 -14.68868,35.3988 -39.30145,65.0568 14.11832,51.7085 10.2916,0.6138 20.62161,1.541 30.93501,0.8099 z m 52.20078,-61.181 c 28.79572,-11.0455 103.48131,-44.542 106.38456,-49.5129 -68.15349,12.0506 -148.48464,57.7564 -210.32883,7.1394 -22.76911,-11.34724 -83.80235,-23.39571 -92.44283,-14.21316 66.99808,13.27566 125.75386,60.76826 196.3871,56.58666 z m -131.63252,-11.3914 c -2.47106,-54.92538 -57.86176,20.1617 -0.9629,5.5071 z m 188.93174,6.3228 c 46.8509,-11.0557 -37.08865,-25.8785 -3.27511,1.3533 l 3.22367,-1.332 z m -228.48904,-9.0891 c 30.95899,-66.56399 -64.90846,-4.18 0,0 z m -26.2411,-11.2127 c 26.11823,-32.7378 -56.79684,-33.52921 -7.60957,-6.1899 0.89071,0.5308 7.53477,23.5339 7.60957,6.1899 z M 812.2242,1133.496 c 20.59061,-35.8571 -2.26388,12.0988 0,0 z m 16.91049,-28.0922 c 3.98225,-12.2551 12.04403,-17.6025 0,0 z M 551.63095,966.12983 c -22.9458,-55.86273 -77.29046,26.15668 -85.90418,-35.52418 -8.07543,-21.39542 25.91781,-80.69293 24.74275,-57.0235 8.64497,-4.74654 48.24655,-54.24641 15.25408,-32.00592 22.02683,-37.89259 11.42307,-67.98914 6.36021,-122.90042 5.48356,-37.69634 33.0806,62.6914 17.23262,86.18119 -1.49115,38.03063 4.36167,79.35058 -44.345,83.95176 -6.26973,21.00687 -0.74608,34.37486 5.8573,60.10372 10.16089,-46.7259 55.89551,-18.53116 72.40756,9.44632 22.70711,-12.80499 69.55067,-81.87163 75.30943,-19.05526 20.73491,14.40169 37.1286,-27.66076 17.16571,-8.4731 -1.46654,-17.58258 -30.81599,-74.3331 -38.0952,-56.674 -60.58496,-22.91105 -19.82826,-120.16676 4.21242,-160.31777 15.48838,-1.193 -29.60283,71.01151 -18.89969,97.43171 -14.27825,30.19726 4.87208,60.35932 46.11293,54.42073 49.64878,32.37038 6.15137,114.12743 -38.00524,73.21885 9.60744,-32.08427 -39.07714,45.07914 -59.4057,27.21987 z m -78.7766,-36.7013 -0.004,6.48352 z m 121.71366,3.3196 c 3.01962,-6.08742 -7.02679,6.53339 0,0 z m 26.56294,0.9304 c -1.31648,-3.7917 -2.24454,3.87252 0,0 z m -17.9865,-10.5069 c 4.58423,-7.74071 -23.24955,18.66099 0,0 z m 2.47942,5.5184 -2.44203,0.52219 z M 488.6591,879.87343 c -7.81663,2.43676 -8.03341,14.12942 0,0 z m 23.47185,-7.1949 c -8.09499,-3.62052 -11.75529,3.58666 0,0 z m -2.9315,-7.6025 c 35.97588,-22.96847 -18.53067,0.65608 0,0 z m 90.4315,84.6025 c 7.64475,-7.71054 -4.78135,6.94769 0,0 z m -51.5,-85.7776 c -4.43357,-6.20621 17.47136,-29.20112 35.80366,-10.15738 -1.92971,16.97015 -27.0821,-4.72598 -35.80366,10.15738 z m -99.36967,-10.4724 c 25.56188,-23.12513 12.00208,-32.05498 -11.16379,-8.30434 54.01978,-34.49971 -55.1947,-0.13947 6.03885,-21.57563 44.68696,-10.40843 51.27005,-10.12706 5.12494,29.87997 z m 207.33759,-5 c -4.13598,-50.20759 29.62316,-25.97703 57.64866,-32.33526 -12.24995,-36.96226 -39.11541,-2.6165 -50.39699,-28.95819 -25.63923,10.28565 -48.99618,28.02843 -27.67435,-10.49004 10.57695,-35.23479 97.44053,-48.06568 80.17617,-75.43331 -17.72444,5.86275 -31.69047,44.31251 -19.0365,7.8184 -18.30724,-3.2947 -31.57902,54.37858 -24.32147,13.6484 -42.91414,43.03494 18.35958,-41.67997 18.51829,-18.84629 31.08641,-25.95641 156.40501,-6.57974 78.93109,19.08591 12.81981,42.23402 75.10387,-39.71976 31.25512,18.49951 14.65184,8.24761 71.08195,-37.03668 23.6673,-0.13405 -16.92483,27.81656 97.24613,-1.99124 30.75801,16.85919 19.42771,2.90813 -30.05978,12.18224 -1.58016,21.04063 -29.92754,-31.37898 -51.02837,2.03785 -50.06348,5.81073 -25.36165,-21.40078 -21.53629,49.17049 -29.30099,5.23433 -31.0996,-12.98612 -35.23103,51.02443 -30.98446,5.36417 -50.57472,-3.87725 7.95474,43.82903 -35.18234,32.25827 -47.14414,-11.28338 43.95289,19.04536 -9.21781,6.27047 -24.39808,-11.00596 -37.37734,5.96232 -43.19609,14.30713 z m -3.90377,-66.7032 c 35.98657,16.97236 47.70893,-26.01196 29.48487,-41.9293 -11.52941,0.60606 -71.21696,72.61258 -29.48487,41.9293 z m 84.93585,8.9532 c -14.02169,-4.27252 -18.85679,5.18531 0,0 z m -6.41668,-8.8876 c 59.30197,-54.54336 -28.07119,6.39404 0,0 z m 34.91668,0.9096 c 52.38257,-4.84509 53.62707,-42.79896 2.48779,-46.9163 -53.58388,-24.24136 1.09742,23.74939 -19.84016,49.05843 l 5.69771,0.47024 z m -21.47994,-3.5461 c 2.76287,-7.10145 -6.70029,6.59341 0,0 z m -13.94344,-6.3419 c 42.40476,-41.58693 -55.95195,-18.95022 -20.39167,-14.18612 42.58815,-15.82892 -14.16347,36.97116 16.85619,18.2222 z m -13.07662,-4.134 c 3.09539,-19.58544 -20.13352,10.44678 0,0 z m -19.58697,-12.0479 c 42.36185,-24.51198 -11.23784,-25.8003 -2.09242,3.4772 z m 67.65354,-32.8853 c 56.76364,-39.01073 -68.60408,-1.42901 0,0 z m -28.8313,-4.6113 c 44.84203,-40.49076 -47.31384,2.33652 0,0 z m -64.10771,0.7945 c 3.16255,-4.58504 -7.08868,6.40676 0,0 z m 25.87244,-16.3048 c -22.05298,7.88857 -16.63462,13.3157 0,0 z m -306.50839,128.569 c -22.74673,-48.1676 27.15603,1.98914 0,0 z m 15.42041,-4.6021 c -19.67519,-42.19934 24.72038,-6.11852 0,0 z m 27.15392,-6.6766 c -15.03446,-30.03415 20.49541,-5.43205 0,0 z m 178.93406,-111.2317 c 2.98526,-5.52397 5.7807,1.39291 0,0 z m -79,574.55517 c -1.83808,-3.7929 -2.979,2.2185 0,0 z m -10.31983,-2.809 c 1.77236,-26.3244 -24.65815,7.234 0,0 z m -17.14123,-6.813 c -5.09959,-22.059 -27.75486,6.8123 0,0 z m 183.46106,-5.937 c -1.31647,-3.7917 -2.24455,3.8725 0,0 z M 261.98116,1212.218 c -6.36601,-53.9472 13.05032,-119.5282 -17.99956,-165.2007 -71.43313,-26.1309 -45.12716,-92.01808 -72.84254,-152.71221 -20.51879,27.70738 -2.82559,111.85161 -6.04143,159.92851 -8.23269,42.338 -15.73917,-65.21112 -17.71689,-89.22401 -11.17796,-44.75205 5.20439,110.45091 -0.48132,70.38851 2.54514,29.9495 45.40753,109.1743 26.84738,103.6092 -4.9785,-33.175 6.35534,-90.8132 13.63924,-100.7205 9.40962,71.5195 -11.69384,144.9254 5.4553,215.319 23.88724,-24.6841 4.61191,-102.461 17.19336,-147.1499 32.78927,-18.792 27.70984,77.46 38.23657,103.1141 3.5089,20.0674 14.93299,86.2181 13.52264,29.9814 l 0.0609,-13.6714 z m -91.28918,40.759 c -5.22688,-2.084 4.22769,10.5954 0,0 z m 550.64623,-6.4837 c 42.70785,-26.126 -38.75705,15.4755 0,0 z m -16.16949,-0.8637 c 5.45086,-7.9765 -14.76838,13.441 0,0 z m 137.04374,-24.9814 c 6.56158,-27.2397 1.87294,-72.7827 -0.51541,-20.2102 -2.34407,16.9283 -6.24408,66.9791 0.51541,20.2102 z m -666.09233,-5.4697 c -0.73396,-23.675 -25.46414,-120.358 -16.0189,-46.6816 0.12826,13.4481 18.80476,87.4559 16.0189,46.6816 z m 655.69393,14.3125 -0.18469,1.8064 z m 2.14059,-11.0625 c 5.46288,-46.9528 -6.43664,31.113 0,0 z m -613.46273,-46.7422 c 5.89836,-30.1118 -6.8614,-98.4597 -5.42456,-28.2336 3.08698,24.6642 8.50821,117.9512 5.56613,39.745 z m 655.30131,31.7422 -0.0477,2.4398 z m 7.94624,-48.135 c 10.38568,-81.9374 -16.74399,97.2484 -1.62601,9.8399 0.53843,-3.2806 1.08408,-6.5599 1.62601,-9.8399 z m -22.65346,0.1359 c 4.03591,-82.5568 -12.85456,87.2143 -0.52472,4.9101 l 0.37065,-3.4683 0.15409,-1.4418 z m -507.3651,27.6394 c -29.94039,-25.2741 25.42605,26.5509 0,0 z m -216.19884,-5.1403 c -6.12801,-25.0563 -0.30328,21.7005 0,0 z m 700.37559,-22.25 c -1.4963,-19.8355 -1.69564,37.8917 0,0 z m -656.05863,-44 c -1.47021,-56.9441 -1.39531,82.6169 -0.0167,5.0306 l 0.0116,-3.488 z m 127.70398,28.411 c -12.91851,-26.0093 -24.26913,-40.1299 -8.97597,-1.2206 2.76038,11.1746 24.16925,15.6445 8.97597,1.2206 z m -159.40377,4.339 c 1.81946,-11.7572 -6.63461,-38.2351 -2.37943,-11.1667 z m 700.67482,-8.9375 -0.18469,1.8064 z m -540.65791,-43.5625 c -3.40939,-28.2264 -54.05757,-99.80721 -23.03789,-32.7722 2.4988,5.3256 39.03628,72.8212 23.03789,32.7722 z m -165.98022,-12.2791 c -1.8114,-30.2952 -10.62567,-130.18039 -11.80422,-47.6902 -1.87635,12.7508 14.90633,78.7352 11.8705,48.351 z m 764.84182,-23.2191 c 3.60075,-12.4122 -7.38987,13.9801 0,0 z m -643.78819,-16.2518 c 2.42638,-85.71662 -34.54208,31.7109 0,0 z m -17.09861,2.059 c -1.83808,-3.7929 -2.979,2.2185 0,0 z m -15.05763,-13.0685 c -26.54619,-57.28456 -3.99289,34.4511 0,0 z m 11.02621,6.2243 c -6.2816,-19.5852 -7.06087,16.0101 0,0 z m 659.0263,-6.9648 c -2.97908,-11.709 -6.36646,31.586 0,0 z m -616.40737,-7.5 c -2.12438,-20.7318 -26.70485,-62.69847 -10.5624,-18.2926 -0.0671,-7.13834 8.78738,27.4118 10.5624,18.2926 z m 615.5106,-7.3878 c 4.04809,-13.61536 -11.49397,22.9657 0,0 z m -652.26834,1.8051 c 44.37042,-33.93825 -32.80411,-131.2468 -30.05878,-52.49423 -0.88097,18.61128 -0.10125,62.42503 30.05878,52.49423 z m 662.9005,-10.598 c -2.68728,-5.29347 0.19896,6.3101 0,0 z m -26.96238,-4.6376 c 2.69126,-33.5121 -19.38123,0.2002 0,0 z m 28.23211,-4.46947 c 21.45966,-74.36179 6.25798,-153.82547 29.50089,-228.13729 10.6595,-25.72426 10.16375,-120.78107 -29.17396,-76.99486 16.17615,59.81527 21.68194,122.0512 -2.03288,185.05796 -16.31625,30.6382 -47.68954,120.72508 1.70595,120.07419 z m -759,-40.1844 c -4.02949,-39.7632 -0.47759,41.84591 0,0 z m 113,9.7812 c -1.34583,-7.11115 -3.33958,5.46933 0,0 z m -62.02355,-9.4194 c -0.4831,-42.3823 -8.4559,-20.72259 -1.92514,6.8604 0.64171,-2.2868 1.28343,-4.5736 1.92514,-6.8604 z m 47.77072,-17.3896 c 20.07328,-23.10785 -28.99532,-64.93405 -17.78684,-15.06031 -0.35441,9.25472 7.65175,19.24165 17.78684,15.06031 z m -33.03092,-18.5 -0.006,5.47934 z m -60.25653,-35.3896 c -3.1762,-61.11987 -16.59718,14.52537 -4.30736,32.67864 1.95952,-10.83012 1.8287,-21.91521 4.30736,-32.67864 z m -13.8879,23.1396 c 2.88966,-45.38936 -13.19063,-9.23766 -1.17143,8.37446 z m 86.64275,-6.5 c -5.64225,-53.7992 -9.92652,-109.36363 5.75333,-157.3677 -55.45507,-48.32869 -59.18906,74.00286 -24.66007,102.84114 14.46251,3.21228 8.13034,78.43466 18.90674,54.52656 z m 21.32593,-2.75 c 3.08353,-30.83201 -12.22312,-17.86 0,0 z m -71.86997,-7.5 c 5.63441,-25.74512 -16.23794,-60.19054 -8.58306,-12.83612 1.68995,4.08131 11.93288,40.97193 8.58306,12.83612 z m 33.35062,6.8238 c -4.2317,-18.52428 -2.4598,9.62582 0,0 z m 691.40742,-9.6452 c -2.22993,-43.24227 33.14105,-113.45289 9.68667,-139.08833 4.35343,44.65666 -18.16135,107.59016 -9.68667,139.08833 z m -708.08557,-3.1786 c 1.44862,-20.13058 -10.17463,-35.35972 0,0 z m 18.73573,-7.3987 c -11.50676,-47.30457 -12.41804,7.98426 0,0 z m 31.96691,-27.3513 c 3.33841,-20.02414 -3.29664,-100.80569 -19.7999,-45.76561 -5.955,15.95377 17.27295,102.20306 19.7999,45.76561 z m -80.46048,4.25 c 31.48905,-39.34275 -11.05245,-87.84017 1.21151,-83.36406 18.46624,-57.27099 -47.09494,65.9887 -1.21151,83.36406 z m 24.11681,-7.036 c 13.65563,-25.85457 -19.34923,-66.52464 -5.05593,-16.78469 0.85693,3.78893 -4.44216,19.58146 5.05593,16.78469 z m -45.34687,-36.714 c 7.38961,-56.02969 -9.80966,41.49687 0,0 z m 123.00711,0.5918 c 8.45037,-22.91699 -15.65922,-4.211 0,0 z m -129.92104,-22.5737 c 13.36594,-34.16944 17.3597,-91.14191 27.39483,-115.55346 -7.97959,74.81118 28.55275,-70.68733 20.34929,-55.21464 -20.48505,-12.30403 68.6032,-90.28307 46.41618,-115.63583 -34.22064,45.541 -49.88547,83.52986 -70.17526,137.73028 -18.19543,53.30975 -30.2445,109.81396 -25.83261,166.39525 l 1.03438,-8.84886 z m 301.86189,5.5233 c 13.66466,-22.90645 74.97968,2.11454 33.60186,-37.8155 -19.97261,-38.5928 -46.31601,55.68047 -33.60186,37.8155 z m -14.46258,-1.5414 c 43.48127,-19.62435 -39.08245,9.44287 0,0 z m -40.48113,-1.25 c -23.49545,-25.61404 34.37721,-69.67516 -23.97168,-42.74197 -57.71831,9.4384 -56.51136,48.61492 4.86299,42.64177 4.65835,-2.05077 14.30039,5.52012 19.10869,0.1002 z m -127.78817,-3.1775 c 0.71465,-16.81244 -8.29555,9.53312 0,0 z m 163.32606,-0.5725 c 54.28914,-5.07379 -12.96446,-75.93324 -16.57712,-21.08823 54.62149,-41.61999 3.01484,51.6088 -8.28273,1.12589 -2.11823,-53.73206 -20.50989,40.2718 24.85985,19.96234 z m -145.88359,-5.25 c 5.73497,-13.7087 -10.64753,2.71264 0,0 z m 142.95151,-7.75 c 17.8095,-23.38745 -15.8826,-8.12362 -2.13337,0.38122 z m -166.60353,-3.5 c -2.24376,-5.49715 -0.9443,5.35458 0,0 z m 29.34547,-6 c 15.26809,-39.05756 1.86457,-28.80233 -4.28435,4.37429 z m 697.29601,3.25 c 3.29219,-50.14272 21.38984,-101.46415 10.86576,-151.02862 -17.76776,-22.10977 6.13406,87.45657 -14.05581,116.09489 -0.7404,9.73778 0.11074,30.29939 3.19005,34.93373 z m -818.11335,-12.3664 c 11.12259,-34.3131 11.11603,-70.53722 -0.11244,-14.87268 -0.69622,4.08046 -5.46577,43.38059 0.11244,14.87268 z m 116.93478,-4.8836 c 4.81927,-42.29549 28.58533,-112.59436 47.485,-130.43646 -8.37727,20.34681 -44.06446,101.49498 -30.17493,84.01096 18.8666,-59.78258 61.61415,-105.82199 98.91443,-154.75059 38.56026,-45.19947 83.37652,-85.2116 133.45096,-117.27057 -55.18401,0.96953 -83.38111,59.41192 -124.06786,88.24075 -46.88044,35.34892 -86.83258,110.27083 -116.2191,138.81161 -8.39381,35.79036 -17.01518,93.13244 -13.29651,99.45733 z m -89.8641,-4.4776 c 27.48192,-30.34043 54.48165,-73.18369 54.30241,-114.07536 -26.07705,18.55772 -69.26826,113.31245 -48.75909,52.44017 -11.40584,5.56782 -17.92868,99.84059 -5.54332,61.63519 z m 75.04054,8.2276 c 4.65316,-36.49516 18.67554,-62.64958 -5.25607,-36.37914 -7.04442,10.3155 -5.42349,28.91442 5.25607,36.37914 z m 136.41569,-10.7334 c 42.25923,-17.27883 -36.4531,17.40576 0,0 z m -48.38728,3.9618 c 19.43187,-18.47466 11.68995,-41.70077 21.81986,-6.70262 23.151,-8.11249 9.73948,-56.86401 19.76367,-8.07741 35.86205,3.1658 29.43551,-57.29551 -9.33304,-28.97056 -27.43691,0.80725 -80.91397,16.49744 -32.25049,43.75059 z m -94.7574,-37.4784 c 13.26457,-82.68352 -18.83477,29.77014 0,0 z m -26.27199,6 c -1.31648,-3.7917 -2.24454,3.87252 0,0 z m 9.82284,-9.9279 c 11.70164,-30.1685 8.17331,-68.84126 -2.82868,-16.2505 -3.13203,8.8458 -25.50523,27.1139 2.82868,16.2505 z m -32.51492,-26.8221 c 13.33672,-30.80989 74.11015,-116.44086 62.65002,-106.24538 -30.18039,34.91843 -57.52616,85.4887 -62.65002,106.24538 z m 58.55696,4.75 c -0.12241,-28.25889 -5.5381,27.03713 0,0 z m 13.12587,-6.4609 c 5.23224,-37.55046 -10.73395,37.07943 0,0 z m 650.81785,-8.8832 C 904.95118,644.17012 902.73965,565.58616 872.94171,522.31092 819.23603,465.3619 746.01548,422.83867 672.43549,395.49965 c -23.76118,-4.99309 53.32805,23.64659 68.21818,37.04105 20.05659,6.38004 58.57073,56.22098 17.84698,22.77379 -48.82971,-33.92216 -150.98359,-96.9785 -193.52942,-44.60532 62.47483,-3.82529 144.29966,7.84442 201.30998,54.98993 27.9955,24.1218 105.06871,64.53832 94.02256,82.52415 -21.53337,-24.62139 -123.91344,-93.85409 -105.87027,-79.00817 51.14707,33.71368 97.86562,75.58174 123.78561,132.06901 26.96442,17.78393 20.83511,104.41089 53.72044,68.05034 z m -58.36544,10.0941 c -4.32411,-9.50662 -3.62425,7.64046 0,0 z m -612.42951,-5.6911 c 3.64677,-16.76667 -6.05119,13.45677 0,0 z m 605.98635,0.6512 c -0.15241,-35.73656 -82.29185,-70.51192 -25.44256,-21.00102 6.22487,8.2821 12.83873,22.38156 25.44256,21.00102 z m 80,-5.7414 c -3.71929,-9.90408 -5.62579,7.38821 0,0 z m -752.94688,-9.7187 c 10.42446,-28.51136 48.64585,-111.65934 7.86243,-43.95771 -2.33566,9.25423 -19.18622,44.29132 -7.86243,43.95771 z m -14.57531,-69.5067 c 20.72993,-41.53356 62.56353,-117.91466 72.88485,-136.09143 -48.39137,62.85502 -82.5808,136.27901 -101.33476,213.26863 9.57596,-25.6909 17.56744,-51.98258 28.44991,-77.1772 z m 110.95928,47.3056 c 38.20058,-45.12651 66.90115,-97.85421 106.22237,-142.45069 -47.47831,50.39031 -111.02982,97.13396 -122.1275,170.10239 6.27888,-8.66214 9.26626,-19.214 15.90513,-27.6517 z m -70.81172,2.5452 c -18.86716,20.53036 -15.5633,32.56629 0,0 z m -8.51692,4.4059 c 20.47859,-19.15521 18.09744,-69.14623 1.90707,-19.90474 -7.07423,11.48609 -18.53447,55.61733 -1.90707,19.90474 z m 744.89155,16.8805 c -13.61494,-25.21656 -48.0036,-108.80921 -52.96515,-90.92641 17.23993,29.79283 9.65108,83.26946 52.96515,90.92641 z m -74.73926,-10.1345 c -31.4871,-41.36245 -11.51193,-40.74785 8.30058,-6.43796 -16.60969,-52.01384 -62.39863,-82.54584 -99.1554,-119.49333 -44.22373,-37.99563 -98.72379,-67.88744 -158.03849,-70.61937 73.735,49.43394 156.16746,91.46867 215.35041,159.80258 3.54088,4.20245 42.01892,64.39722 33.5429,36.74808 z m -77.28282,-1.3457 c -20.58895,-24.1941 -87.45509,-74.53203 -32.34247,-24.17859 5.53828,3.28536 35.64206,35.78943 32.34247,24.17859 z m 24.02208,0.542 c -9.64631,-21.44668 -90.1212,-79.39228 -41.20554,-31.60368 13.39362,10.91875 25.56077,23.78146 41.20554,31.60368 z m -566.94967,-24.6925 c 1.68234,-24.90292 -16.36503,40.90469 0,0 z m 7.91904,15.2502 -1.6196,2.60455 z m 738.08888,-26.3391 c 2.5562,-100.89493 -56.07034,-192.36851 -136.45084,-249.28669 -64.9288,-52.06515 -144.965,-93.97068 -229.70355,-94.08369 -41.66544,-13.70774 -113.55197,55.2127 -61.65437,74.33756 54.36529,-21.1195 113.48505,-4.64024 168.8309,7.47862 24.53854,2.36888 -52.62542,-27.20213 -73.05481,-27.76804 -29.92708,-13.17584 -127.93776,16.64683 -63.40219,-29.94108 62.36034,12.1617 130.38815,8.89283 187.02433,45.71603 56.28076,22.25383 115.03989,51.93957 133.31784,115.88643 31.58225,57.43941 53.77365,119.16209 74.67419,180.95012 3.7789,-7.25928 -0.7947,-15.77844 0.4185,-23.28926 z m -696.49572,12.3391 c 52.22126,-71.36295 117.23517,-132.11169 184.52816,-189.00165 -88.449,19.89952 -133.29572,107.00285 -180.34809,175.89026 -2.80491,3.91587 -15.03982,29.52473 -4.18007,13.11139 z m -36.56253,-10.1891 -5.4378,10.76198 z m 575.47233,11.9391 c -43.82461,-62.20856 -121.9311,-82.30104 -185.08677,-118.6354 39.44172,48.05785 131.59626,55.92707 177.44347,113.22049 z m -602.94792,-23.75 c 26.91632,-21.02492 41.81941,-78.2441 7.47162,-23.76154 -12.86868,15.82588 -35.5219,67.26397 -7.47162,23.76154 z m 707.61662,4.8923 c -3.67656,-33.61629 -31.79099,-112.50897 -20.37984,-33.81864 0.47524,7.22692 28.83277,76.42939 20.37984,33.81864 z m -701.18028,9.773 c 2.57303,-8.29988 -11.02386,13.7383 0,0 z m -53.34779,-13.3143 c 14.14837,-23.21325 23.14651,-57.33387 1.69463,-15.41164 -7.01499,9.18905 -22.76689,40.75594 -1.69463,15.41164 z m 59.34847,-2.3899 c -7.93624,-2.03582 -10.56704,28.29797 0,0 z m 8.08463,3.9826 c 19.96391,-27.68952 -23.83456,26.2308 0,0 z m 27.287,-4.2666 c 29.58099,-46.52652 107.88534,-111.9261 122.59615,-132.65866 -45.18369,34.13793 -87.47459,74.4905 -120.80326,120.09679 -5.28483,6.79789 -20.69724,37.52343 -1.79289,12.56187 z m -38.6217,-29.6821 c 20.30235,-19.58489 32.26042,-65.88629 -0.8484,-22.21926 -20.72245,18.99406 -34.09173,79.70958 0.8484,22.21926 z m 548.73864,30.6462 c -17.76629,-25.10269 -97.9784,-56.38592 -31.29624,-18.8815 10.03892,6.88573 19.87308,14.35369 31.29624,18.8815 z m -531.7,-7.5677 c 3.73331,-24.75463 -18.27784,23.35892 0,0 z m -30.57708,-37.57346 c 10.72984,-24.34823 78.24598,-98.29812 11.94345,-54.57916 -21.17446,19.14604 -68.14867,142.23934 -11.94345,54.57916 z m 505.21303,24.17976 c -16.51932,-18.79389 -39.62793,-21.97213 0,0 z m -459.66286,-13.342 c 11.75105,-26.97448 80.9806,-103.73845 28.30656,-47.05118 -7.90101,2.30214 -57.3044,82.52897 -28.30656,47.05118 z m 11.69337,-1.33776 c 4.39421,-11.96175 -16.79648,27.1987 0,0 z m 624.13229,-16.3848 c 10.95584,-57.57983 -62.7304,-84.30591 -71.67993,-138.41278 -31.73896,-37.5084 29.37039,65.32029 -15.37513,6.3579 -52.48549,-65.5275 -148.89573,-80.47276 -227.7858,-66.80873 -44.66759,3.72648 62.80186,-17.29184 2.61676,-10.04067 -49.80786,-25.36344 -67.66448,66.97693 -9.28166,43.91731 65.9471,-11.35196 126.96493,17.51385 179.58857,54.24909 51.34525,30.43641 114.66616,76.48475 142.6156,117.26673 l -0.37101,-3.46823 z m -617.3924,2.3848 c 13.43205,-15.25175 47.0938,-68.59522 12.55895,-26.43213 -2.34489,1.23251 -32.7319,51.18992 -12.55895,26.43213 z M 263.69451,537.4256 c 5.02626,-18.54461 79.1517,-86.91331 28.19309,-46.20737 -9.21862,4.5179 -61.04068,95.06432 -28.19309,46.20737 z m 63.96739,9.25297 c 32.02263,-34.1719 -34.72789,35.51284 0,0 z m -7.90729,-0.75 c 40.50638,-52.0629 -26.19847,27.8438 -3.4777,4.54089 z m -30.4961,6 c 3.16258,-4.58515 -7.08859,6.40658 0,0 z m 19.76147,-27.15281 c 10.96301,-22.28223 46.52144,-59.74685 5.16913,-25.30651 -25.90229,16.66528 -39.04476,72.37734 -5.16913,25.30651 z m 656.93471,15.82705 c -5.14003,-8.05563 2.40568,9.66642 0,0 z M 364.64315,502.06754 c 25.17187,-19.00042 62.06928,-62.1834 12.66551,-22.7385 -20.08206,20.43764 -68.74895,83.61847 -20.64871,31.74354 z m -20.5122,29.11103 c 10.48437,-12.29451 -13.4112,13.04474 0,0 z m 471.08443,-3.87041 c -36.34536,-35.34641 -84.29971,-66.43841 -133.48806,-73.94693 48.8785,15.46513 91.25162,45.52655 133.48806,73.94693 z m 132.46679,-15.95731 c -25.03876,-56.64467 -10.15431,29.29625 7.14221,13.69008 l -2.35739,-5.78143 z m -604.99737,3.55234 c 32.59913,-27.99922 17.76994,-36.88156 -3.7692,-2.31709 -15.74441,16.47334 -4.04632,13.00214 3.7692,2.31709 z m -48.03396,-0.22462 c 14.12876,-22.15282 48.0977,-61.80472 8.83392,-19.2068 -3.14322,2.27042 -29.77585,41.13379 -8.83392,19.2068 z m 94.89412,-25.34409 c -1.77378,-5.49357 -46.16751,46.35915 -5.35668,5.19011 1.78556,-1.73004 3.57112,-3.46007 5.35668,-5.19011 z m 534.21418,0.0451 c 8.14924,-38.26323 -79.33772,-73.18156 -31.07308,-20.53185 4.93522,6.06778 44.32706,55.33876 31.07308,20.53185 z m -581.79496,0.60984 c 25.29196,-19.22811 51.18074,-52.80565 9.91987,-15.19102 -12.21507,9.64 -41.93546,41.08589 -9.91987,15.19102 z m 2.16677,9.18915 c 10.48437,-12.29451 -13.4112,13.04474 0,0 z m -94,-3.08721 c 20.31856,-17.8979 24.7911,-58.26864 -5.18075,-20.90157 -6.63332,5.96288 -13.08774,30.1897 5.18075,20.90157 z m 59.97104,-0.37373 c 3.4604,-5.34835 -7.67638,4.80119 0,0 z m 350.02896,0.50522 c -15.25148,-14.40562 -96.40917,-70.25339 -79.54619,-41.29241 24.91265,16.64687 52.26248,29.11964 79.54619,41.29241 z m -396.9315,-3.15549 c 27.77293,6.68268 35.43874,-81.1731 11.69321,-31.68364 -2.73164,7.22795 -22.73565,25.42917 -11.69321,31.68364 z m 59.82972,-2.33741 c 36.01724,-18.87683 31.32154,-28.55413 -1.34897,-2.75493 l -5.26636,5.26889 z m 54.22934,1.19862 c 3.16258,-4.58515 -7.08859,6.40658 0,0 z m -13.40779,-8.07725 c 23.84482,-23.02565 -25.29333,17.94466 0,0 z m 5.08274,-10.11222 c 7.50837,-15.66699 -38.98061,32.01414 -2.20474,1.6639 z m -76.01267,8.03105 c 7.29922,-19.49059 49.36567,-52.85071 60.99714,-59.74047 -3.32846,11.30184 70.28189,-54.54149 67.3343,-45.22845 57.81471,-46.61066 -65.36222,12.42898 -80.79502,31.88618 -19.6185,9.52099 -45.59767,58.70024 -44.11114,35.03793 -4.08552,5.99089 -14.42749,37.80986 -3.42528,38.04481 z m 69.71016,-37.43388 c -29.0539,15.61804 -46.38617,51.08171 -10.54152,10.27414 l 5.26864,-5.13925 z m 233.34396,33.85293 c -14.57404,-16.89447 -26.86694,-4.16198 0,0 z M 319.17993,468.07398 c 25.59369,-21.83461 -38.21279,22.82068 0,0 z m 34.39387,-2.66454 c 26.37725,-14.68813 83.59628,-76.67126 25.24112,-31.8494 -7.5668,4.89785 -66.07085,57.96103 -25.24112,31.8494 z m 46.68471,8.51913 c 3.16258,-4.58515 -7.08859,6.40658 0,0 z m -72.56465,-6.5 c 8.96511,-10.0201 -10.98647,10.96148 0,0 z m 73.91426,-7.94989 c -16.91796,4.77411 -23.57506,18.25688 0,0 z m 6.08574,7.94989 c 8.96511,-10.0201 -10.98647,10.96148 0,0 z m 2.56465,0.5 c 3.16258,-4.58515 -7.08859,6.40658 0,0 z m 29.01607,-16.56668 c 3.91573,-19.1885 -42.64605,35.86672 -2.47389,1.98729 z m -121.55586,4.60499 c 23.55387,-26.26531 -36.05415,30.46161 0,0 z m 11.50077,0.16722 c 35.57993,-34.76618 110.33981,-80.54415 129.00544,-98.33351 -50.90403,18.9148 -87.80581,63.43205 -132.9199,92.72268 -26.41952,12.57782 1.86433,12.78904 3.91446,5.61083 z m 53.77346,5.32119 c 25.9672,-9.99422 41.77454,-47.0232 5.7655,-11.09155 -0.25531,0.34512 -27.44778,17.28391 -5.7655,11.09155 z m 41.638,-11.01569 c -17.81017,12.20532 -10.52288,10.00779 0,0 z m -162.38407,7.37111 c 31.7441,-11.58604 76.29062,-82.10696 21.89829,-25.87802 -3.0386,5.89291 -30.79041,21.30835 -21.89829,25.87802 z m 158.35364,-13.12835 c 47.61551,-31.73209 146.78428,-33.64088 124.05673,-116.39308 -1.95208,-31.80338 -57.43788,-18.2666 -12.48491,-9.63741 -48.19954,-2.27197 -120.30634,1.71649 -145.05098,36.42244 24.04258,-8.18118 73.84708,-34.71092 90.00502,-23.56305 -30.69023,5.02075 -81.25248,16.33649 -21.24321,21.18357 31.8584,-6.15291 111.89283,-16.98554 40.35516,-1.55128 -50.80133,44.78633 83.95754,-5.75041 7.32438,23.42589 -20.29175,8.36226 -50.24453,25.58516 -30.57644,35.79935 -26.41873,30.86901 5.99817,-21.24162 -31.17432,5.45634 -11.73229,5.36618 -67.86669,52.86023 -21.21143,28.85723 z m 64.47016,-7.8518 c -39.8527,1.27579 -55.50594,28.74536 0,0 z m -96.43973,7.63835 c 24.66446,-9.70036 101.42031,-76.23461 38.11846,-37.76237 -8.57299,4.96322 -61.43408,53.13394 -38.11846,37.76237 z m 248.2075,2.84954 c 85.12363,9.99015 -99.66148,-35.48005 -22.68356,0.21194 6.91009,3.86232 16.02496,4.31522 22.68356,-0.21194 z m -360.4985,-14.82368 c 18.68496,-31.90057 88.79807,-51.18875 85.88876,-74.90903 -33.90343,2.3467 -94.65972,72.6064 -85.88876,74.90903 z m 169.91856,15.4338 c 2.79688,-4.86968 -5.98207,7.20819 0,0 z m -80.12756,-9.60559 c 18.00655,-12.68199 77.78517,-62.07834 28.84762,-26.43073 -4.81042,2.69608 -63.67188,50.89798 -28.84762,26.43073 z m 543.97138,2.22231 c -3.03675,-39.45895 -89.48146,-70.21948 -26.03534,-21.26528 4.7833,1.23699 26.23872,35.5814 26.03534,21.26528 z m -616.92362,-0.44608 c 25.72141,-17.78895 75.16082,-87.0051 29.95074,-36.87097 -2.4149,7.25146 -43.46995,39.29938 -29.95074,36.87097 z m 264.95224,0.24603 c -1.80493,-7.02045 -5.15058,5.77445 0,0 z m 139.6909,-3.25944 c -21.03262,-18.93498 -108.81653,-26.13439 -90.14167,-16.62787 30.53683,2.49907 60.21293,10.58309 90.14167,16.62787 z m -27.6909,1.09277 c -18.28916,-7.78517 5.38158,5.42733 0,0 z m -117,0.059 c -1.83804,-3.79303 -2.97904,2.21847 0,0 z m -95.35696,-4.15181 c 49.42455,-18.17274 -19.93377,-0.77909 -0.99566,0.18711 z M 306.13095,408.84993 c -31.1842,21.8044 -32.16651,33.10892 0,0 z m 63.10869,19.8063 c 21.77917,-16.21703 35.16422,-33.79552 2.98253,-6.169 -0.88192,-0.39331 -18.38746,17.97994 -2.98253,6.169 z m 119.4886,-0.47766 c 57.03015,-8.56094 -29.83987,-4.95748 -7.04598,1.18644 2.34866,-0.39548 4.69732,-0.79096 7.04598,-1.18644 z M 337.13095,409.86405 c 20.51236,-16.86823 77.97939,-49.96561 76.80155,-55.50456 -30.78554,-6.81752 -122.79545,91.44014 -94.42062,67.41609 5.99133,-3.79825 11.55615,-8.22118 17.61907,-11.91153 z m 83.5,-6.42902 c 28.15303,-12.5535 29.26503,-34.13733 -0.18951,-6.03553 -27.41373,20.76561 -30.42826,26.37542 0.18951,6.03553 z m 135.36304,11.16521 c 6.2974,-38.42761 -15.5529,-6.78952 0,0 z m -13.53531,1.32833 c 4.97234,-45.09546 -81.72958,16.4988 -10.73307,0.45235 z M 408.63095,399.86305 c 29.08802,-24.11878 -38.22501,27.53356 0,0 z m 43.51587,5.98681 c 28.83911,-9.27345 41.96028,-41.68462 7.33621,-11.17196 1.03858,-0.72683 -27.41012,24.21761 -7.33621,11.17196 z m -84.39804,-32.22254 c 45.992,-40.14859 -68.77787,51.35128 -5.39556,4.24643 l 2.74095,-2.15719 z m 517.8444,20.30125 c -14.42,-21.85493 -37.42106,-22.3838 0,0 z M 476.32195,372.99114 c 15.12178,-38.5451 -59.27923,46.39981 -11.40149,9.2518 l 6.93931,-4.773 z m -167.191,15.18743 c 10.48437,-12.29451 -13.4112,13.04474 0,0 z m 151,-9.85322 c -13.30048,2.25598 -19.09077,18.29414 0,0 z m -142.43709,2.10322 c 8.96511,-10.0201 -10.98647,10.96148 0,0 z m 117.2962,0.32188 c 35.64343,-21.85365 11.14687,-2.32035 -1.5323,0.48278 z m 412.12558,-2.27973 c -10.54648,-20.16818 -8.17601,9.19514 0,0 z m -15.98469,0.64211 c -16.02184,-34.21566 -55.24334,-27.19234 -8.97288,-4.7431 l 4.19084,3.03498 z m -506.5,-4.43426 c 4.77435,-7.13276 -7.61494,7.83639 0,0 z m 129.8741,-0.95213 c 14.96023,-9.83693 -11.40516,2.44201 0,0 z m -59.68024,-30.29787 c 66.48703,-36.31813 -70.23119,17.79193 -6.45704,4.53134 z m 369.12757,0.94438 c -19.92644,-19.97485 -8.59374,0.71481 0,0 z M 752.13095,324.8432 c -29.31046,-20.02789 0.0829,7.0669 0,0 z m -55.5,-9.13401 c -43.0874,-16.69919 -7.69895,8.28047 0,0 z m -36,-1.59663 c -48.56733,-8.19292 -23.46642,8.36622 0,0 z m -31,-6.44311 c 22.92693,-10.79725 -60.18402,2.02405 0,0 z"
       style="fill:#000000"
       id="path22" />
    <path
       d="m 553.78938,1286.8512 c -21.77975,-36.2598 -33.01027,-65.2259 -68.07735,-19.6548 -49.42016,-19.3124 -93.36651,-51.7131 -127.29541,-93.0432 -42.12445,-44.229 -36.794,-109.1168 -65.74545,-160.1082 -9.80436,-20.58514 -18.72587,-59.14289 -1.61271,-16.27701 3.77637,25.27441 50.98025,86.57181 25.41231,27.95351 -35.6377,-46.00687 -26.02458,-74.70462 -41.47737,-121.56428 27.72204,36.34623 42.45595,101.79918 91.16836,109.86778 -12.50166,-15.34529 -70.29773,-65.95606 -19.22128,-34.91827 45.87414,15.97778 -39.15464,-34.45073 -38.22319,-58.73899 -13.03196,-17.45693 -53.0122,-110.3946 -19.91341,-50.2307 15.01883,29.39876 44.77188,74.47206 72.86496,74.82355 -34.95908,-30.90447 -81.64841,-86.83314 -83.40733,-124.73035 8.219,14.43142 57.88024,92.1569 56.03699,52.48984 -31.4603,-11.58008 -53.34245,-102.12726 -44.46117,-81.31843 -14.86261,6.42426 8.61663,-29.4329 21.53515,-2.53497 27.6839,-3.29766 17.99993,57.50807 32.94302,8.3802 24.856,3.06155 14.81234,52.70093 27.55889,9.97349 31.17787,-28.70256 46.2912,52.93062 38.96931,2.0416 7.54465,-10.03385 64.04843,-26.87407 44.90452,10.87116 -33.53135,7.06322 -41.08877,16.99725 -2.17608,7.65771 -45.85656,42.32843 37.08256,-23.67149 -1.01735,20.44742 -12.59523,17.93662 52.19407,-38.17271 14.09917,-34.38281 -28.87649,-51.85512 52.77151,8.2718 30.12951,-44.2027 -7.88225,-31.50003 -122.10288,-49.45304 -46.24763,-59.10503 22.48834,5.29106 60.66195,60.47808 28.76927,8.20743 -17.37606,-26.83791 -103.37225,-38.97197 -109.21408,-27.36526 40.54845,0.63417 -89.61451,24.28873 -16.05278,10.44816 -18.22765,25.02661 -49.59882,20.70969 -20.08565,34.91799 8.06715,56.47562 -48.15732,-27.49808 -23.69973,22.2525 -15.09662,45.41093 -24.94289,-32.48191 -4.15947,-50.54329 41.53831,-112.23371 123.75533,-209.46769 225.42798,-272.18555 22.02303,10.64642 31.92404,55.89965 78.89306,59.09914 66.01617,17.70569 100.39893,81.51187 145.87036,126.84241 35.94592,29.97577 75.48494,63.70437 114.64999,84.99934 -28.37689,-31.82319 31.72116,-0.95011 10.18357,-37.72769 39.92097,25.96456 17.04248,80.05688 10.8279,128.8594 -7.43398,19.02677 -16.84549,102.88957 -0.89779,39.87235 3.75625,-26.29815 20.40496,-111.46994 17.2716,-40.56461 -7.59459,48.32465 -23.43224,90.93545 -32.07524,148.07108 -0.39397,27.1177 19.34876,-51.27604 5.27716,9.97187 -17.34983,55.02161 -38.6149,110.20961 -67.04503,160.64561 -17.2063,21.3094 -46.11855,71.7011 -46.021,72.0397 35.52341,-45.4885 60.55333,-77.862 76.5506,-118.3697 -0.60867,-35.0872 68.78321,-96.76595 44.48572,-26.1745 -10.2587,27.9049 -20.85354,120.6939 -17.60609,45.7404 7.02073,-30.0653 -8.16742,-80.7355 -11.62858,-20.8927 -9.24962,53.2543 -41.8411,96.103 -36.8596,155.018 -0.97702,26.5793 -2.87039,69.0174 -6.25191,15.8129 5.58931,-27.492 -7.92014,-93.5898 -35.13041,-39.2778 -58.70244,66.3602 0.62561,-27.3084 -7.34464,-11.6223 -18.81386,18.0168 -57.38734,63.0384 -65.52123,58.2972 14.93818,-24.3977 -54.29028,26.3167 -31.81425,18.0047 -39.54014,12.003 -82.87337,19.8341 -123.54619,21.9267 z m 82.77901,-35.6517 c 9.24272,-66.2306 -160.81562,-19.2633 -64.92022,-29.0887 25.66893,-3.5913 55.99963,11.5731 64.92022,29.0887 z m 21.03349,-52.2672 c 65.98221,-22.6534 60.59607,-104.3882 90.75788,-155.7624 15.63356,-29.014 45.31172,-93.56493 73.35499,-67.64394 -13.53725,-24.68406 -74.58644,-75.31021 -32.44508,-18.04827 -1.22617,59.93701 -101.01297,37.68784 -142.19666,63.74231 -61.68922,23.285 -108.53853,-34.38732 -168.0969,-36.31015 -46.24363,4.95938 -75.15639,-6.179 -81.09151,3.39689 -17.70196,26.89086 -39.49002,55.22156 -2.17651,17.47076 69.27627,17.4976 52.441,116.937 97.38357,161.4831 42.61202,43.0663 110.00396,34.4039 164.51022,31.6717 z m 161.15637,-72.3646 c 12.32924,-23.005 3.53553,0.8818 -5.8835,8.5182 z M 572.03028,965.75043 c 28.51367,-25.11247 40.28108,-46.09025 58.38261,-16.93478 67.93259,8.68951 42.01948,-106.24701 -17.73109,-89.33902 -26.6696,-30.82241 -2.22937,-94.34432 12.42674,-137.19376 -0.26657,-34.38188 -38.92229,54.72297 -34.59552,77.0548 -18.87576,44.42135 10.01667,71.49594 42.51323,84.97473 14.52839,24.77737 31.32101,49.34273 29.27596,49.78054 -29.56893,30.14509 -24.4085,-52.08954 -60.69664,-13.23512 -21.04078,44.55115 -49.04867,37.90727 -73.86054,3.2404 -29.11313,-25.5794 -38.56415,59.2433 -41.81438,1.65032 -26.30112,-49.83038 68.70208,-40.04843 42.00989,-99.4644 8.67464,-31.84767 5.95653,-124.01896 -17.7254,-115.33923 11.42237,46.64277 5.91837,88.35109 4.30911,119.77302 -16.66836,16.07296 19.02333,-1.60318 -8.28729,25.35237 -18.77209,26.1651 -18.16021,-3.6636 -35.53626,38.34737 -24.65356,53.02876 18.9013,72.10102 55.06009,51.11992 14.96681,8.06028 26.10605,30.89756 46.26949,20.21284 z m 30.34641,-18.56377 c -11.34033,7.23684 0.74219,3.91762 0,0 z M 555.9666,860.99882 c 59.60406,-1.8671 -11.07679,-26.85859 -7.81239,3.34026 z m 105.09542,-14.33934 c 8.64386,-32.46518 79.9183,3.98587 41.82052,-18.8021 48.19766,16.19785 -4.02752,-40.48525 41.97179,-29.02932 -20.94913,46.76368 33.25938,-48.57874 34.60215,9.52481 -2.78029,-47.45106 42.80804,1.47859 30.3218,-38.9478 25.29752,-10.81567 41.1327,22.05438 44.47854,-4.50152 12.31614,-12.32216 42.41957,-17.2017 -0.81937,-12.71757 -37.34039,8.71185 -35.71073,-12.94504 -7.29068,-27.18443 -24.90959,15.69747 -64.31085,28.24173 -26.40747,-9.82754 -38.88568,42.6801 -61.86953,0.0617 -22.44793,-9.49007 -27.96589,-32.8693 -131.62598,-8.24646 -116.63663,-4.20642 -8.08075,15.53933 -47.08381,54.25915 -8.97081,22.90721 -8.97312,30.53458 33.22094,-37.59176 22.71295,-0.9783 15.59418,-32.25238 44.3655,-18.77864 8.30239,2.20337 -32.39164,18.1042 -75.34591,37.26564 -76.22437,79.36359 21.21684,-26.63262 61.35362,-8.76306 52.48461,-3.77068 27.6235,-24.12585 50.6842,38.90508 3.80903,14.15282 -21.51559,-27.27278 -34.35505,52.56266 -21.70652,31.30395 z m -261.19377,-14.5385 c -2.16324,-43.85549 -32.40916,-2.65644 0,0 z m 39.12292,-12.36823 c 4.9931,-28.42687 -21.18267,-3.58399 0,0 z M 617.15545,708.2465 c -4.0164,-3.98615 -4.6194,6.19985 0,0 z"
       style="fill:#ffd5d5;stroke-width:0.89881"
       id="path34" />
    <path
       d="m 668.837,1501.1187 c -91.79855,-23.1685 -187.53116,-15.7916 -280.67585,-14.0203 -9.61218,-48.8914 104.95714,11.3432 48.53936,-16.7847 -45.79355,-29.8068 29.96667,-111.1285 24.68022,-49.7318 -60.01409,-23.9379 75.53707,54.4527 22.48421,3.2221 -32.07101,-18.5509 -52.17579,-93.9042 -10.68321,-37.7044 65.91275,37.1688 -67.7035,-75.8327 -5.44049,-35.6439 28.12092,20.2359 56.36084,27.6358 10.51814,-0.305 -25.70254,-15.8678 -48.97713,-88.5288 -5.80525,-36.5307 25.33987,23.1786 51.95377,21.6189 10.45868,-1.8379 -18.97359,-8.461 -53.55949,-68.3834 -11.3645,-38.9184 -17.29148,15.8955 48.68267,-10.0968 25.52962,31.9592 15.4799,-15.7894 100.61642,0.8574 141.9262,-23.4103 78.47603,-42.2362 38.50417,79.2249 64.58331,121.536 3.48163,40.3713 84.37269,102.7084 -0.13848,93.861 -11.57203,1.4728 -22.6147,8.6242 -34.61196,4.3091 z M 470.07684,1466.522 c -21.10718,-11.6665 40.23463,-3.4835 -5.39382,-17.9113 -17.8685,-22.1598 -40.51925,-30.968 -14.34924,2.3488 23.38592,31.0224 -38.62961,-52.3029 -15.34021,2.0785 6.65783,12.7844 21.68717,17.7484 35.08327,13.484 z"
       style="fill:#ffd5d5;stroke-width:0.89881"
       id="path36" />
    <path
       d="M 234.10611,1014.2187 C 209.3085,984.92174 215.67,899.83782 255.55127,949.95595 c 8.89668,17.33931 11.06411,74.38715 -21.44516,64.26275 z"
       style="fill:#ffd5d5;stroke-width:0.89881"
       id="path38" />
    <path
       d="m 243.4892,869.21425 c -24.49336,-20.60026 -7.20667,-127.34532 5.06113,-57.76552 -5.82949,16.83828 13.52203,50.40907 -5.06113,57.76552 z"
       style="fill:#ffd5d5;stroke-width:0.89881"
       id="path40" />
    <path
       d="m 229.47671,907.07475 c 3.37185,-58.60178 -68.21081,-119.13518 -21.89435,-173.41805 72.74925,-4.88129 -6.30211,80.14303 22.36306,119.40296 1.60158,15.88535 7.21004,42.36038 -0.46871,54.01509 z"
       style="fill:#ffd5d5;stroke-width:0.89881"
       id="path42" />
    <path
       d="m 244.1495,937.36606 c -27.37571,-37.86221 16.85459,-47.19761 13.86791,-5.20401 -1.81468,6.04121 -9.01828,8.10965 -13.86791,5.20401 z"
       style="fill:#ffd5d5;stroke-width:0.89881"
       id="path44" />
    <path
       d="m 348.70495,744.19168 c -57.16495,-45.01277 128.87452,-62.64218 51.0254,-9.32547 -15.25849,-18.6827 -5.35143,-38.70135 -15.29594,-0.43046 -18.05742,26.26798 -12.94852,-46.82 -21.67465,1.85471 -2.88925,2.65064 -8.01482,17.95973 -14.05481,7.90122 z"
       style="fill:#ffd5d5;stroke-width:0.89881"
       id="path46" />
    <path
       d="m 724.17499,718.77359 c -3.85727,-29.96713 53.32875,-9.27043 3.90108,2.61048 z"
       style="fill:#ffd5d5;stroke-width:0.89881"
       id="path48" />
    <path
       d="m 755.97544,724.08037 c -36.75723,-18.38716 60.02673,-22.55422 6.33775,0.64683 z"
       style="fill:#ffd5d5;stroke-width:0.89881"
       id="path50" />
    <path
       d="m 907.97524,995.5772 c -48.54423,-30.02399 4.76634,-99.43323 10.2815,-142.96694 5.54516,-39.93875 28.78197,-89.77143 -0.81553,-124.37513 -28.21215,-40.87238 38.48297,-75.14007 30.5524,-17.72219 -0.41767,65.67137 -25.24075,128.83604 -21.58123,195.10046 -3.33424,24.19247 -0.50395,84.13112 -18.43714,89.9638 z"
       style="fill:#ffd5d5;stroke-width:0.89881"
       id="path52" />
    <path
       d="m 901.21088,886.82411 c 11.19493,-31.94736 16.28458,-154.18006 21.30585,-132.67057 5.61784,42.34204 -10.86044,101.67246 -21.30585,132.67057 z"
       style="fill:#ffd5d5;stroke-width:0.89881"
       id="path54" />
    <path
       d="m 619.40247,1049.9825 c -64.22979,-6.9913 -118.22151,-47.8636 -181.55952,-57.79443 49.93857,-6.31314 98.48897,13.47273 139.98356,37.87153 58.96498,9.3968 114.56271,-18.1979 171.48233,-28.0877 -42.54017,15.6033 -83.31418,49.7733 -129.90637,48.0106 z"
       style="fill:#ff0000;stroke-width:0.89881"
       id="path56" />
    <path
       d="m 634.23283,1154.593 c -50.01062,-12.325 -118.72472,0.1237 -155.87742,-27.919 -8.17927,-32.1971 -50.43619,-111.3129 5.55197,-77.6428 25.03097,22.0011 59.09281,-52.01453 60.00748,9.4374 -17.20689,26.0088 -48.05699,69.0498 7.86247,58.8397 34.60946,17.6413 48.37465,-14.2068 55.17775,-40.3643 -11.0657,76.4277 116.97645,58.244 73.48742,-14.5829 4.31334,-18.9756 54.23173,-4.0114 43.71649,-41.0645 21.60699,-17.4283 52.23645,-23.77163 23.65805,10.5917 -19.15884,39.2993 -32.49678,81.0036 -46.6229,122.2772 -22.32641,-0.305 -44.65949,1.0545 -66.96131,0.4275 z"
       style="fill:#000000;stroke-width:0.89881"
       id="path58" />
    <path
       d="m 462.21419,1035.0664 c -48.87457,-42.30575 59.6433,-24.8638 0,0 z"
       style="fill:#ffffff;stroke-width:0.89881"
       id="path60" />
    <path
       d="m 494.91735,1044.9555 c -44.85672,-21.9169 42.22059,-37.0844 10.79486,2.3864 l -10.79482,-2.3864 z"
       style="fill:#ffffff;stroke-width:0.89881"
       id="path62" />
    <path
       d="m 441.48144,1027.4287 c -26.78315,-18.9394 -19.88139,-44.21905 8.14579,-17.9876 1.79304,1.9819 -7.40777,29.8468 -8.14579,17.9876 z"
       style="fill:#ffffff;stroke-width:0.89881"
       id="path64" />
    <path
       d="m 559.18223,1110.5214 c -58.53572,18.4071 -18.58663,-51.1504 1.6873,-66.2003 44.96674,-16.5877 49.176,64.1929 17.63711,67.0008 l -10.31103,-0.2923 -9.01338,-0.508 z"
       style="fill:#ffff00;stroke-width:0.89881"
       id="path66" />
    <path
       d="m 639.17628,1120.7485 c -29.18832,-8.447 -43.4475,-81.9895 11.16063,-67.6016 41.31375,-22.7528 35.14816,92.5374 -11.16063,67.6016 z"
       style="fill:#ffffff;stroke-width:0.89881"
       id="path72" />
    <path
       d="m 691.69557,1043.7497 c -0.16892,-35.737 43.20372,12.2784 0.25501,0.5616 z"
       style="fill:#ffffff;stroke-width:0.89881"
       id="path74" />
    <path
       d="m 585.24771,1193.6188 c -34.59169,11.5038 -133.80042,-50.1491 -53.92742,-47.2528 24.53661,10.94 8.2549,45.6608 25.85354,6.4044 38.27671,-2.5801 6.00194,56.7361 34.18003,8.4304 36.74866,-18.7686 18.75043,57.0459 36.28336,2.0747 27.18944,-20.0243 25.68326,38.9207 40.97854,-0.4944 14.83061,34.5409 26.917,-21.3244 13.51098,20.8514 -25.28644,19.21 -66.86237,5.4426 -96.87903,9.9863 z"
       style="fill:#ffffff;stroke-width:0.89881"
       id="path76" />
    <path
       d="m 402.2596,450.09376 c 12.946,-21.88288 68.98783,-54.17259 60.11935,-29.89963 22.07901,-17.33623 -10.73783,-25.61541 30.78528,-40.19576 24.13403,-8.0519 58.84455,-24.64688 9.86297,-10.99493 -50.78169,10.47814 20.1339,-38.32316 26.53671,-24.1386 -30.3145,-9.07948 -79.9058,18.75878 -104.427,-0.29184 26.63005,-7.35251 96.12661,-22.10269 28.48921,-14.36962 -22.45862,5.55347 -102.70645,40.8443 -42.20866,7.10175 33.90609,-25.24813 89.41344,-12.74313 119.03685,-20.3583 -47.37024,-21.31858 43.74197,2.97998 14.16989,41.76759 -10.02488,66.04643 -99.80358,57.56641 -142.82525,92.92914 z"
       style="fill:#e3dbdb;stroke-width:0.89881"
       id="path78" />
    <path
       d="m 271.49431,763.80894 c 4.87755,-38.9401 11.79211,-98.08901 29.9021,-115.42212 47.91636,-80.16218 119.08349,-142.90116 188.33726,-204.00341 20.65837,-14.74436 58.43267,-15.80795 16.48313,3.84782 -77.92292,54.95711 -139.14964,130.78561 -189.57426,210.39139 -9.20343,18.5285 -35.45925,88.61574 -17.18774,29.8207 11.92195,-23.24563 43.56414,-109.10024 11.65268,-42.50568 -20.45799,36.69039 -22.44205,81.91568 -39.61317,117.8713 z"
       style="fill:#e3dbdb;stroke-width:0.449405"
       id="path80" />
    <path
       d="m 306.69768,630.52067 c 31.63466,-58.24174 70.20959,-115.08508 119.59043,-159.74094 19.5515,-20.03672 99.64018,-50.89069 40.60879,-9.59533 -58.76695,51.04035 -113.9014,106.58263 -160.19922,169.33627 z"
       style="fill:#e3dbdb;stroke-width:0.449405"
       id="path82" />
    <path
       d="m 284.67926,612.09739 c 27.12995,-55.59716 77.97008,-94.59649 123.04197,-135.11178 24.33982,-13.52382 -55.03926,53.40865 -68.91769,72.3227 -19.91695,19.2396 -34.52882,43.75611 -54.12428,62.78908 z"
       style="fill:#e3dbdb;stroke-width:0.449405"
       id="path84" />
    <path
       d="m 290.01238,481.5902 c -3.49863,-22.38975 8.80793,-49.05335 11.77836,-31.61558 33.50725,-46.03468 86.67414,-78.55817 140.88805,-93.28667 -26.90394,25.13197 -87.43426,57.91925 -91.41071,65.66038 -22.64174,16.61702 -45.39102,38.80597 -61.2557,59.24187 z"
       style="fill:#e3dbdb;stroke-width:0.449405"
       id="path86" />
    <path
       d="m 268.22622,440.3411 c 24.23836,-34.28988 55.38224,-78.93528 100.93663,-81.98809 -28.73254,33.02954 -75.24542,45.0827 -100.93663,81.98809 z"
       style="fill:#e3dbdb;stroke-width:0.449405"
       id="path88" />
    <path
       d="m 261.12235,492.43804 c -2.01296,-19.19262 44.35141,-74.10361 22.66202,-22.29703 2.68258,13.60784 -7.84446,26.94037 -22.66202,22.29703 z"
       style="fill:#e3dbdb;stroke-width:0.449405"
       id="path90" />
    <path
       d="m 214.5697,590.93814 c 2.12225,-33.27647 48.22619,-118.53071 69.00518,-92.49163 -26.51365,28.57518 -40.21104,66.51395 -69.00518,92.49163 z"
       style="fill:#e3dbdb;stroke-width:0.449405"
       id="path92" />
    <path
       d="m 259.51018,457.00782 c 16.09143,-22.16624 83.97516,-77.14746 32.371,-22.29058 -9.75472,7.67274 -18.89683,21.65716 -32.371,22.29058 z"
       style="fill:#e3dbdb;stroke-width:0.449405"
       id="path94" />
    <path
       d="m 289.1709,441.07397 c 18.70643,-26.60256 84.92274,-88.16922 32.18248,-29.65832 -10.78296,9.2512 -19.57968,23.37492 -32.18248,29.65832 z"
       style="fill:#e3dbdb;stroke-width:0.449405"
       id="path96" />
    <path
       d="m 331.61287,407.79004 c 14.85717,-21.02876 81.1279,-66.03821 83.16666,-50.51306 -29.77951,16.5342 -107.15365,65.7754 -94.2023,61.57978 l 4.94262,-4.98247 z"
       style="fill:#e3dbdb;stroke-width:0.449405"
       id="path98" />
    <path
       d="m 338.71572,473.09511 c 14.32897,-27.95844 105.87838,-86.11206 44.07179,-31.08578 -13.0413,12.28791 -28.00049,24.15864 -44.07179,31.08578 z"
       style="fill:#e3dbdb;stroke-width:0.158889"
       id="path102" />
    <path
       d="m 381.67983,448.41454 c 19.37071,-30.15262 77.29739,-59.27631 72.58023,-52.34209 -20.28504,21.82826 -48.43896,35.54491 -72.58023,52.34209 z"
       style="fill:#e3dbdb;stroke-width:0.158889"
       id="path104" />
    <path
       d="m 316.60118,461.00127 c 34.94932,-36.10346 79.77145,-62.33091 119.02132,-94.09419 65.42876,-26.98218 -34.36387,26.81409 -49.98644,43.63511 -24.22644,14.54141 -42.14705,41.59969 -69.03488,50.45908 z"
       style="fill:#e3dbdb;stroke-width:0.158889"
       id="path106" />
    <path
       d="m 375.66421,462.17173 c 15.58737,-20.91854 58.96001,-39.87714 14.67078,-4.96904 -3.89523,1.48826 -9.56582,6.37161 -14.67078,4.96904 z"
       style="fill:#e3dbdb;stroke-width:0.158889"
       id="path108" />
    <path
       d="m 325.27438,501.04575 c 18.927,-24.25131 78.21779,-67.08926 27.26242,-20.63219 -8.47611,7.49192 -17.00318,15.65131 -27.26242,20.63219 z"
       style="fill:#e3dbdb;stroke-width:0.158889"
       id="path110" />
    <path
       d="m 444.87011,391.52466 c 13.67969,-12.13292 51.32187,-48.06337 21.61531,-10.40542 -7.24841,2.28536 -13.56079,9.74781 -21.61531,10.40542 z"
       style="fill:#e3dbdb;stroke-width:0.158889"
       id="path112" />
    <path
       d="m 445.07637,409.27737 c 16.95868,-26.55318 60.4459,-37.76571 15.57108,-7.75937 -5.32396,2.32709 -10.13418,5.66894 -15.57108,7.75937 z"
       style="fill:#e3dbdb;stroke-width:0.158889"
       id="path114" />
    <path
       d="m 395.50313,418.38397 c 13.38823,-18.5827 79.27539,-54.75041 27.41729,-16.16341 -9.58549,4.62227 -17.64006,11.9403 -27.41729,16.16341 z"
       style="fill:#e3dbdb;stroke-width:0.158889"
       id="path116" />
    <path
       d="m 354.1921,445.84301 c 17.44527,-19.2642 95.81565,-73.57862 38.25469,-28.12208 -12.59852,9.48773 -24.38704,20.48786 -38.25469,28.12208 z"
       style="fill:#e3dbdb;stroke-width:0.158889"
       id="path118" />
    <path
       d="m 139.29988,798.0795 c -3.83,-79.38678 23.23484,-158.81069 54.48239,-228.87899 7.61803,-2.10232 47.1154,-102.28689 44.84357,-50.45792 -11.96727,36.14055 -70.27649,94.36499 -47.17033,105.79086 -10.46367,16.48315 -13.47429,82.89411 -27.04902,47.85945 1.66312,42.953 -17.93214,86.86654 -25.10661,125.6866 z"
       style="fill:#e3dbdb;stroke-width:0.158889"
       id="path120" />
    <path
       d="m 185.07403,758.4384 c -11.46645,-27.99629 22.64717,-109.0932 4.36079,-45.64234 13.5105,-29.97693 28.94237,-49.86483 58.01589,-80.5412 -9.80976,49.01211 -26.80345,82.85069 -57.47893,114.50614 l -3.31738,10.21839 z"
       style="fill:#e3dbdb;stroke-width:0.158889"
       id="path122" />
    <path
       d="m 201.21823,659.16321 c 1.49292,-22.50767 38.53612,-91.9756 19.76289,-31.21365 -5.42731,10.78032 -12.94451,21.63723 -19.76289,31.21365 z"
       style="fill:#e3dbdb;stroke-width:0.158889"
       id="path124" />
    <path
       d="m 191.08995,660.91179 c -10.5707,-27.499 53.75659,-113.93548 21.51359,-48.39405 -8.84999,14.74102 -11.56357,35.41116 -21.51359,48.39405 z"
       style="fill:#e3dbdb;stroke-width:0.158889"
       id="path126" />
    <path
       d="m 234.70392,597.41855 c -8.60277,-28.99714 69.72074,-100.28237 30.61574,-37.65682 -11.297,9.96605 -15.71619,34.13066 -30.61574,37.65682 z"
       style="fill:#e3dbdb;stroke-width:0.158889"
       id="path128" />
    <path
       d="m 230.76535,624.50947 c 4.14833,-28.65214 74.18274,-109.93076 29.77288,-36.59983 -10.3769,11.7384 -19.45281,25.32475 -29.77288,36.59983 z"
       style="fill:#e3dbdb;stroke-width:0.158889"
       id="path130" />
    <path
       d="m 187.91013,616.23179 c 12.01801,-30.59965 42.84569,-71.81377 14.6994,-16.48495 -2.63132,7.2056 -8.70317,11.93462 -14.6994,16.48495 z"
       style="fill:#e3dbdb;stroke-width:0.158889"
       id="path132" />
    <path
       d="m 151.90836,663.95026 c 19.27983,-76.84104 53.43566,-150.5163 102.7103,-212.7377 -39.59025,68.04309 -79.50018,137.25174 -102.7103,212.7377 z"
       style="fill:#e3dbdb;stroke-width:0.158889"
       id="path134" />
    <path
       d="m 240.76232,497.4274 c -13.41171,-30.17354 54.25042,-55.48938 15.59559,-11.44479 -3.42081,6.32459 -6.5069,13.96575 -15.59559,11.44479 z"
       style="fill:#e3dbdb;stroke-width:0.158889"
       id="path136" />
    <path
       d="m 252.00817,552.8176 c 6.77195,-21.85856 56.9622,-88.80293 54.29773,-67.85886 -22.13115,19.67584 -37.50329,44.20825 -54.29773,67.85886 z"
       style="fill:#e3dbdb;stroke-width:0.158889"
       id="path138" />
    <path
       d="m 264.71682,602.36395 c 4.31755,-21.53825 19.35091,-10.97179 0,0 z"
       style="fill:#e3dbdb;stroke-width:0.158889"
       id="path140" />
    <path
       d="m 205.45381,681.38556 c 9.53049,-32.47651 68.10361,-111.57567 66.28954,-104.75701 -22.4532,34.66072 -43.06323,70.72556 -66.28954,104.75701 z"
       style="fill:#e3dbdb;stroke-width:0.158889"
       id="path142" />
    <path
       d="M 275.29705,662.09462 C 287.61506,590.77705 349.37248,544.94016 396.12355,495.3644 354.1448,545.0602 319.35344,600.32492 281.11817,652.39986 Z"
       style="fill:#e3dbdb;stroke-width:0.449405"
       id="path144" />
    <path
       d="m 287.9722,546.54365 c -11.07122,-27.51455 75.6452,-89.20382 31.34081,-39.52623 -5.60568,16.03229 -19.79319,27.71155 -31.34081,39.52623 z"
       style="fill:#e3dbdb;stroke-width:0.449405"
       id="path146" />
    <path
       d="m 162.3138,853.97178 c -28.74337,-15.11265 22.02072,-141.73082 5.17153,-66.52579 19.84799,-18.55673 18.82718,75.10116 -5.17153,66.52579 z"
       style="fill:#e3dbdb;stroke-width:0.449405"
       id="path148" />
    <path
       d="m 186.93057,1166.4066 c -0.21591,-42.7811 10.19926,-102.7156 -4.5665,-135.1357 -4.07086,36.6564 -9.556,78.324 -11.72841,112.52 -27.82783,-59.8287 -22.75111,-127.4794 -27.73797,-191.63806 13.29703,32.80997 3.24205,106.95086 22.60717,115.79706 1.60735,-58.026 -10.51685,-124.15851 2.76578,-177.11733 33.30829,42.35356 0.49387,114.57453 48.43169,134.76113 57.37556,26.5007 41.47948,91.8844 45.09246,143.7418 -36.28895,33.2127 -16.39368,-90.6905 -51.45163,-64.7041 -6.00025,19.296 2.28279,93.446 -23.41263,61.7723 z"
       style="fill:#e3dbdb;stroke-width:0.449405"
       id="path150" />
    <path
       d="m 155.1436,916.98381 c -6.58789,-20.07506 -2.94174,-91.22527 6.05148,-34.90134 -3.92736,9.67796 -2.12755,28.45296 -6.05148,34.90134 z"
       style="fill:#e3dbdb;stroke-width:0.449405"
       id="path152" />
    <path
       d="m 181.90318,899.23698 c -20.45364,-30.97973 0.73783,-67.67548 0.5441,-13.10133 l 0.61989,13.75015 z"
       style="fill:#e3dbdb;stroke-width:0.449405"
       id="path154" />
    <path
       d="m 189.62872,846.49184 c -6.38562,-29.20912 -1.29985,-62.00302 7.11437,-14.15076 0.32897,3.75649 0.28685,18.58186 -7.11437,14.15076 z"
       style="fill:#e3dbdb;stroke-width:0.449405"
       id="path156" />
    <path
       d="m 227.87657,708.58475 c 16.5176,-25.68842 28.45539,-74.68649 16.92331,-13.64316 1.30739,12.02091 -7.31176,14.30854 -16.92331,13.64316 z"
       style="fill:#e3dbdb;stroke-width:0.449405"
       id="path158" />
    <path
       d="m 160.93447,761.15581 c 0.55083,-32.10322 18.48431,-72.93633 5.49465,-20.37386 -1.38158,4.19143 -6.20839,30.95748 -5.49465,20.37386 z"
       style="fill:#e3dbdb;stroke-width:0.449405"
       id="path160" />
    <path
       d="m 355.848,1394.6956 c -11.19901,-56.3935 8.66833,-113.7434 -0.27943,-169.7458 -10.05754,37.662 -4.87721,117.2293 -33.65824,165.0711 3.3025,-17.8628 -12.02197,-62.479 -7.15781,-90.5496 9.59058,-74.8004 -30.34982,108.6701 -30.42413,24.9595 17.66669,-41.9375 -25.96888,-147.2372 7.15343,-153.5588 -1.21526,20.2894 28.59833,109.4649 16.74622,44.0399 2.97929,-36.3566 -17.20284,-62.266 -31.03935,-69.4567 -13.75441,-25.0234 -15.19248,-125.7417 4.08575,-46.4533 12.454,28.009 -20.21512,-8.3056 0.26477,28.1308 20.5757,52.5037 75.59688,45.3668 102.9672,104.6536 8.65298,56.3918 -8.3056,110.2475 -27.52827,162.0104 l -0.6131,2.9212 z m -32.73916,-27.4532 c 15.71281,-30.3506 11.5409,-73.0917 14.21966,-102.2092 -14.54487,29.6359 -9.36245,76.4871 -14.21966,102.2092 z"
       style="fill:#e3dbdb;stroke-width:0.449405"
       id="path162" />
    <path
       d="m 235.75721,1332.5653 c -8.10552,-42.9192 -14.81911,-131.0722 1.15537,-152.5721 0.36339,46.5831 38.80063,127.1704 -1.15537,152.5721 z"
       style="fill:#e3dbdb;stroke-width:0.449405"
       id="path164" />
    <path
       d="m 214.76349,1315.5084 c -19.4206,-27.4462 -7.59413,-73.4355 -3.46498,-96.0807 0.85807,26.5256 19.13035,78.0795 3.46498,96.0807 z"
       style="fill:#e3dbdb;stroke-width:0.449405"
       id="path166" />
    <path
       d="m 195.18812,1257.29 c -21.53137,-20.3138 -4.63168,-121.5191 10.06927,-66.3681 -3.62366,20.124 2.71921,52.4482 -10.06927,66.3681 z"
       style="fill:#e3dbdb;stroke-width:0.449405"
       id="path168" />
    <path
       d="m 174.02185,1225.9819 c -15.32218,-30.0759 -21.98887,-134.0387 -4.98521,-49.5124 1.27251,11.7778 11.63093,50.3377 4.98521,49.5124 z"
       style="fill:#e3dbdb;stroke-width:0.449405"
       id="path170" />
    <path
       d="m 142.11541,1082.4662 c -15.51926,-23.3785 -7.53974,-129.04974 -2.03119,-46.8184 0.0687,7.413 9.14519,69.6946 2.03119,46.8184 z"
       style="fill:#e3dbdb;stroke-width:0.449405"
       id="path172" />
    <path
       d="m 182.89199,1336.9311 c 3.29244,-17.1192 -8.25621,-112.1559 9.54018,-52.115 4.81581,17.4533 -4.92177,40.0711 -9.54018,52.115 z"
       style="fill:#e3dbdb;stroke-width:0.449405"
       id="path174" />
    <path
       d="m 204.77987,1375.3283 c -1.1953,-24.5541 -3.91669,-91.3262 8.98959,-31.0311 -0.0323,21.6908 -13.24719,94.606 -8.98959,31.0311 z"
       style="fill:#e3dbdb;stroke-width:0.449405"
       id="path176" />
    <path
       d="m 260.73224,1362.254 c -3.44471,-30.2456 -14.67737,-64.8316 8.53402,-57.0779 -2.13319,-29.1339 -2.05353,-121.2634 6.20601,-46.0681 0.94028,33.3302 5.13981,77.4614 -14.74003,103.146 z"
       style="fill:#e3dbdb;stroke-width:0.449405"
       id="path178" />
    <path
       d="m 274.51985,1423.3857 c -19.07897,-32.5301 8.87164,-101.7208 3.47181,-30.0384 -2.08176,9.3832 1.95787,21.7851 -3.47181,30.0384 z"
       style="fill:#e3dbdb;stroke-width:0.449405"
       id="path180" />
    <path
       d="m 282.00231,1432.7826 c -3.6778,-21.9945 9.87894,-65.4377 15.92643,-81.5931 -1.91672,24.9409 -9.46102,68.5107 -15.92643,81.5931 z"
       style="fill:#e3dbdb;stroke-width:0.449405"
       id="path182" />
    <path
       d="m 233.79943,1379.1911 c -4.02373,-42.9701 9.87692,-36.6228 0,0 z"
       style="fill:#e3dbdb;stroke-width:0.449405"
       id="path184" />
    <path
       d="m 311.84435,1102.1186 c -17.36665,-19.2986 -56.50662,-116.68373 -17.57678,-47.5394 6.64569,11.969 20.29438,43.8909 17.57678,47.5394 z"
       style="fill:#e3dbdb;stroke-width:0.449405"
       id="path186" />
    <path
       d="m 260.35249,1048.1735 c -35.00085,-30.7802 24.99888,-56.49526 0,0 z"
       style="fill:#e3dbdb;stroke-width:0.449405"
       id="path188" />
    <path
       d="m 832.08373,1350.3728 c -3.53205,-29.9115 -16.39229,-31.0785 -19.4911,-21.0744 -3.71536,-40.0977 -38.34139,-25.4782 -34.62956,8.8908 -2.38548,-21.7741 -5.29737,-55.9591 -15.10686,-33.565 -5.91755,-40.0425 11.53183,-101.761 41.61698,-118.9252 11.67318,27.362 -5.72084,100.4814 18.94118,103.4322 28.8816,-72.2256 22.45927,34.3983 8.66936,61.2416 z"
       style="fill:#e3dbdb;stroke-width:0.89881"
       id="path190" />
    <path
       d="m 709.28558,1315.0812 c -39.28772,-30.3024 41.46901,-108.6162 25.11759,-37.0401 -1.03089,13.0588 -8.56764,40.6049 -25.11759,37.0401 z"
       style="fill:#e3dbdb;stroke-width:0.89881"
       id="path192" />
    <path
       d="m 928.50121,1311.6653 c 15.85053,-79.3541 38.94773,-159.2328 36.10335,-240.5762 -28.54179,10.2807 -33.20069,103.0617 -25.52357,27.5742 10.28765,-31.6107 -0.008,-67.515 -14.37091,-17.6946 -21.63541,68.0062 -4.46528,-20.5705 7.37306,-39.794 6.45189,-53.58195 8.63778,-107.59651 3.45598,-161.11687 26.24004,1.40783 5.37417,-90.3689 18.0386,-121.01979 2.32855,-43.86564 -1.66727,-53.3476 13.24436,-56.56987 1.8008,-52.45022 -11.59515,-113.81973 -14.69863,-157.87941 32.94184,26.27503 23.34476,73.82185 22.74227,111.0871 -9.99864,67.76763 -17.7317,136.09596 -24.80117,204.10661 21.73143,20.73088 18.79608,-96.93702 21.8809,-31.34002 3.85519,67.64028 17.69964,-125.32586 13.3034,-28.94625 -3.44421,19.77449 -10.11455,110.72935 -13.30135,93.36038 -2.80598,-57.23145 -12.65234,49.55376 -13.04916,69.74248 -6.7684,30.09727 0.22381,70.25044 7.82162,15.75726 24.16092,-106.38986 28.86351,-215.64308 36.41914,-324.07288 13.4869,15.7182 7.4878,107.03029 1.2918,149.94101 -20.22835,123.74241 -31.57799,248.44785 -44.64123,373.08245 -6.64523,44.0685 -15.32486,97.7968 -31.28846,134.3584 z"
       style="fill:#e3dbdb;stroke-width:0.89881"
       id="path194" />
    <path
       d="m 902.58283,1354.3492 c 4.91832,-29.0535 -6.30919,-70.9539 -18.01378,-18.1801 -9.82945,20.1975 3.72941,-91.6178 3.97266,-72.636 7.26194,-64.359 22.29428,-127.9383 45.11891,-188.5548 -3.25575,78.7213 -31.9641,157.1012 -20.12729,236.1046 15.50234,-71.4786 16.30201,-146.1538 38.70384,-216.3307 2.41703,83.7806 -15.50862,167.5544 -42.52575,246.4588 -2.4982,-8.9732 -3.88653,21.2954 -7.12859,13.1382 z"
       style="fill:#e3dbdb;stroke-width:0.89881"
       id="path196" />
    <path
       d="m 839.14548,1373.8666 c -7.36758,-40.1174 22.81086,-75.8268 17.47155,-115.9805 1.46767,-68.5306 23.55267,-134.7432 38.99249,-201.0334 11.681,-10.6301 -14.02987,66.8227 -18.21578,89.9907 -19.30369,74.3317 -1.83505,158.192 -38.24826,227.0232 z"
       style="fill:#e3dbdb;stroke-width:0.89881"
       id="path198" />
    <path
       d="M 912.45856,681.62395 C 897.48479,622.40753 863.75301,566.6541 822.32281,522.14891 799.50578,502.16858 765.90116,474.6313 809.01445,506.4671 c 22.15525,16.25864 86.01425,75.86395 39.10542,17.36686 -70.90416,-47.94919 -142.1988,-114.33272 -232.93914,-114.0488 -25.3264,15.60905 -75.29522,-1.72992 -30.97377,-18.41606 73.75418,-2.72729 137.88428,37.24703 195.44723,78.70958 -13.11083,-36.08848 -89.48085,-59.65404 -95.87894,-70.51605 63.01975,22.95898 117.2299,64.62873 171.76157,102.52377 38.37919,42.66856 50.14906,103.90811 62.15182,157.53015 28.58963,-0.18092 9.99576,11.62762 -5.23008,22.0074 z"
       style="fill:#e3dbdb;stroke-width:0.89881"
       id="path200" />
    <path
       d="m 915.38796,548.09668 c -46.97925,-62.3585 -120.35658,-97.16996 -185.0267,-138.05917 -46.94555,-31.81027 -104.88297,-24.99766 -158.2944,-21.85968 -35.53774,-39.44079 39.84949,-56.29454 51.97268,-44.45401 -69.96515,20.60537 33.55036,-0.22678 55.59438,5.36391 64.56908,4.95845 132.28301,29.35383 169.06253,85.765 22.49515,16.92456 -28.5518,-61.78411 7.06272,-15.09695 8.49719,49.47268 87.82923,90.71744 65.34188,136.13427 -1.90436,-2.59779 -3.80873,-5.19558 -5.71309,-7.79337 z"
       style="fill:#e3dbdb;stroke-width:0.89881"
       id="path202" />
    <path
       d="M 878.10631,653.57394 C 839.17695,591.52873 779.33278,547.43895 718.53649,508.08816 706.12363,492.06794 618.61787,458.67333 647.4074,455.73199 c 89.6299,10.88537 156.78893,78.58359 215.63242,140.407 17.99794,22.86403 35.50802,67.61913 6.61762,20.44574 -28.83721,-20.59796 30.26858,59.24346 8.44887,36.98921 z"
       style="fill:#e3dbdb;stroke-width:0.89881"
       id="path204" />
    <path
       d="m 835.95733,617.22871 c -40.83574,-45.62056 -100.39142,-58.1973 -149.63038,-88.18697 -61.55462,-47.23263 65.66855,27.97546 87.77717,36.6997 12.00386,-2.28976 94.50956,71.19202 61.85321,51.48727 z"
       style="fill:#e3dbdb;stroke-width:0.89881"
       id="path206" />
    <path
       d="m 918.85195,496.81912 c -25.24914,-15.39109 -64.38122,-86.66885 -10.43304,-39.95194 6.07977,2.23759 29.66149,55.6574 10.43304,39.95194 z"
       style="fill:#e3dbdb;stroke-width:0.89881"
       id="path208" />
    <path
       d="M 1004.7074,631.64055 C 979.42002,551.82972 947.30247,472.97381 901.96475,402.47932 861.26739,355.07761 794.49907,344.77122 742.01656,313.66831 c -50.47016,2.56527 -125.68641,-47.13684 -156.13937,8.95775 41.47048,-8.37893 144.39981,7.50026 160.93022,28.7272 -57.05804,-12.36907 -118.20779,-28.44077 -174.64753,-5.86657 -38.33959,-51.2412 52.31314,-85.82523 97.10256,-73.99432 103.44974,15.5812 194.95868,77.43902 265.36959,152.70344 53.92815,56.16273 74.66917,135.48713 72.37127,211.71408 z"
       style="fill:#e3dbdb;stroke-width:0.89881"
       id="path210" />
    <path
       d="m 953.07522,620.43804 c -20.6959,-15.3936 -29.61789,-128.0623 -10.34924,-56.94471 2.34532,15.78446 15.25808,48.00983 10.34924,56.94471 z"
       style="fill:#e3dbdb;stroke-width:0.89881"
       id="path212" />
    <path
       d="m 946.25061,657.35041 c -27.8898,-9.9802 -39.98849,-87.37641 -37.91442,-86.1704 11.72709,20.16003 50.75127,78.0266 37.91442,86.1704 z"
       style="fill:#e3dbdb;stroke-width:0.89881"
       id="path214" />
    <path
       d="m 751.32198,1293.8234 c -16.37405,-19.8674 10.65405,-101.097 16.28759,-58.1689 -6.71755,18.673 -11.96439,41.4497 -16.28759,58.1689 z"
       style="fill:#e3dbdb;stroke-width:0.449405"
       id="path216" />
    <path
       d="m 786.00946,1422.1984 c -33.23595,-24.5478 12.19307,-82.5665 3.27291,-107.425 2.23599,32.5018 17.68795,84.1853 -3.27291,107.425 z"
       style="fill:#e3dbdb;stroke-width:0.449405"
       id="path218" />
    <path
       d="m 831.26555,1442.208 c -29.54818,-25.2581 1.96814,-87.0245 6.49833,-21.3463 10.04163,-8.8571 10.80565,-82.9902 11.93902,-22.303 -3.16663,12.5596 -0.84136,43.3925 -18.43735,43.6493 z"
       style="fill:#e3dbdb;stroke-width:0.449405"
       id="path220" />
    <path
       d="m 816.40391,1389.5925 c -7.45049,-22.7663 4.14287,-74.4729 10.40264,-22.9991 3.80603,9.9996 1.28252,23.6056 -10.40264,22.9991 z"
       style="fill:#e3dbdb;stroke-width:0.449405"
       id="path222" />
    <path
       d="m 896.07582,1420.4921 c -25.74271,-22.5729 3.3253,-140.8729 -2.17172,-60.8532 -4.67072,36.1995 11.52875,36.4151 2.17172,60.8532 z"
       style="fill:#e3dbdb;stroke-width:0.449405"
       id="path224" />
    <path
       d="m 870.98861,1314.0771 c 1.53301,-55.2948 13.91328,-111.2598 19.67516,-166.9094 0.7383,-28.3971 34.9048,-136.5999 17.85554,-50.9517 -12.21978,73.3109 -28.91487,145.9803 -35.68085,220.1082 z"
       style="fill:#e3dbdb;stroke-width:0.449405"
       id="path226" />
    <path
       d="m 923.07417,1041.6255 c 2.15663,-16.8073 -21.04456,21.6738 -5.57704,-13.2854 7.74571,-31.38317 14.436,-53.48315 9.23592,-8.6544 -0.007,2.1127 -4.96446,43.1294 -3.65888,21.9398 z"
       style="fill:#e3dbdb;stroke-width:0.449405"
       id="path228" />
    <path
       d="m 711.24696,1316.156 c -42.26335,-28.785 38.08944,-110.6028 22.68511,-37.2423 -1.23509,13.4276 -7.23633,34.8863 -22.68511,37.2423 z"
       style="fill:#e3dbdb;stroke-width:0.449405"
       id="path230" />
    <path
       id="path232"
       d=""
       style="fill:#e3dbdb;stroke-width:0.449405" />
    <path
       d="m 757.8775,1362.0511 c -9.0978,-20.1983 -4.95711,-67.2725 5.04537,-19.8862 -0.82775,0.3987 -2.0606,24.7575 -5.04537,19.8862 z"
       style="fill:#e3dbdb;stroke-width:0.449405"
       id="path234" />
    <path
       d="m 731.09631,1351.9635 c -14.00706,-61.5009 12.57755,-31.6656 0,0 z"
       style="fill:#e3dbdb;stroke-width:0.449405"
       id="path236" />
    <path
       d="m 728.41091,1414.1652 c -7.52498,-27.484 -5.56239,-83.9069 2.29089,-25.9346 -0.44628,8.6556 0.16119,17.5012 -2.29089,25.9346 z"
       style="fill:#e3dbdb;stroke-width:0.449405"
       id="path238" />
    <path
       d="m 862.06457,673.76628 c -18.06214,-12.142 -66.44635,-70.39441 -19.448,-35.2784 5.06931,3.26631 36.3299,33.97761 19.448,35.2784 z"
       style="fill:#e3dbdb;stroke-width:0.449405"
       id="path240" />
    <path
       d="m 908.98044,444.24717 c -17.24347,-15.0083 -80.63886,-77.78181 -24.51881,-39.61015 10.6011,9.31617 27.98298,25.34863 24.51881,39.61015 z"
       style="fill:#e3dbdb;stroke-width:0.449405"
       id="path242" />
    <path
       d="m 797.7849,515.32692 c -31.51412,-25.16817 -85.86943,-50.4027 -112.68825,-62.701 45.38931,10.30477 98.72354,42.82107 124.23004,70.42248 z"
       style="fill:#e3dbdb;stroke-width:0.449405"
       id="path244" />
    <path
       d="m 644.3857,488.84902 c -21.86142,-5.15832 -110.19913,-61.83449 -44.69792,-34.79945 7.9197,5.0418 78.81761,51.17689 44.69792,34.79945 z"
       style="fill:#e3dbdb;stroke-width:0.449405"
       id="path246" />
    <path
       d="m 620.41643,449.52842 c -88.97378,-35.2504 100.02861,4.83874 14.83459,-1.58396 l -7.29907,2.11884 -7.53555,-0.53488 z"
       style="fill:#e3dbdb;stroke-width:0.449405"
       id="path248" />
    <path
       d="m 299.91695,560.45825 c 7.51116,-26.00115 56.25066,-73.64485 18.83089,-23.91507 -6.33244,7.78267 -11.11013,17.40555 -18.83089,23.91507 z"
       style="fill:#e3dbdb;stroke-width:0.449405"
       id="path250" />
    <path
       d="m 331.37528,524.11685 c 12.58585,-26.70435 51.33612,-51.40301 13.91131,-12.15115 l -5.84627,5.64521 z"
       style="fill:#e3dbdb;stroke-width:0.449405"
       id="path252" />
    <path
       d="m 279.66841,578.71518 c 6.21003,-31.67906 88.25824,-111.22845 31.50164,-45.40916 -12.0682,12.97924 -20.43137,35.40256 -31.50164,45.40916 z"
       style="fill:#e3dbdb;stroke-width:0.449405"
       id="path254" />
    <path
       d="m 713.74014,779.19225 c 51.8384,-20.71249 -32.87902,-34.62095 -11.0632,-17.85466 19.13548,-45.47269 66.97949,10.50339 11.0632,17.85466 z"
       style="fill:#00ffff;stroke-width:0.449405"
       id="path256" />
    <path
       d="m 417.1254,774.656 c -3.14849,-23.92547 21.21551,-8.85827 0,0 z"
       style="fill:#00ffff;stroke-width:0.449405"
       id="path258" />
    <path
       d="m 410.2443,788.0067 c -34.33204,-12.91482 -3.25826,-65.43479 -8.46571,-8.71363 28.17823,22.00641 50.25181,-53.19121 5.56117,-13.12847 19.21976,-64.25799 71.00209,36.28106 2.90454,21.8421 z"
       style="fill:#00ffff;stroke-width:0.449405"
       id="path260" />
    <g
       id="g1509"
       transform="matrix(3.5863829,0,-0.10957939,2.9530724,248.46776,385.74719)">
      <g
         id="g1173"
         transform="matrix(0.52900596,0,0,0.64883731,-178.24319,-96.795445)">
        <path
           d="M 555.37909,729.37125 C 513.11261,716.66171 466.2586,717.05587 428.57368,691.35113 378.86743,665.63881 332.32843,633.21704 292.59987,593.90931 c -11.27108,-36.29325 42.91907,-37.37283 51.49737,-6.7239 48.13037,44.25292 109.44443,74.65624 174.03537,84.9011 37.21358,3.91904 76.73338,5.26734 112.39538,-7.09722 15.46134,-10.46569 48.80139,-35.99537 43.80664,-47.21208 -27.42658,-21.70777 -22.55158,-63.98908 -35.95118,-93.8303 -0.77578,-30.97856 47.09734,-17.70503 30.60875,-50.33526 -6.94526,-117.52854 -20.22392,-235.62882 -10.47908,-353.24811 2.29628,-37.699843 44.15516,-36.521617 46.23146,-0.30519 12.44685,45.13915 6.83267,92.70084 9.63988,138.92644 -0.24068,77.47447 -2.19937,154.98546 -5.50187,232.31938 -5.06163,29.96466 49.38122,38.03723 28.22216,72.31315 6.1578,32.20406 1.7964,58.49912 -20.15192,82.17989 -10.46688,41.37481 -52.31471,61.25379 -89.53455,73.44259 -23.4791,6.29883 -47.55495,12.22027 -72.03919,10.13145 z M 577.11926,724 c 31.48789,-6.76836 29.52521,-70.26446 -6.46099,-41.26438 -10.64196,15.35716 -44.24862,52.20033 6.46099,41.26438 z m 30.59788,-2.90677 c 36.88556,4.12831 39.7771,-78.1451 1.81174,-43.01052 -11.48062,15.07835 -10.92177,39.21606 -30.05899,48.07012 9.57608,-0.55086 19.04435,-2.39815 28.24725,-5.0596 z M 541.29947,717.75 c 33.51285,-4.80004 16.20153,-65.67638 -10.96896,-32.83123 -16.84697,18.97618 -25.36228,41.34522 10.96896,32.83123 z m 90.52977,-3.27402 c 35.66361,4.70985 58.68848,-56.69895 26.84992,-70.58614 -25.01686,15.082 -13.31478,53.98908 -30.95553,71.86159 z M 517.46705,701.12079 c 30.23292,-35.2293 -45.83728,-35.61724 -47.12641,-2.00043 2.36275,15.7155 41.83906,18.48032 47.12641,2.00043 z m -50.36053,-1.75438 c 42.9473,-22.53539 -17.80883,-53.01422 -30.44974,-13.59713 -1.90077,13.21248 21.42794,14.45699 30.44974,13.59713 z m 213.28314,-8.50952 c 39.62888,-2.98256 10.09775,-93.93983 -8.57,-51.3088 0.5668,15.68487 4.78824,54.44438 4.28958,55.44118 z M 438.69947,680.82762 c 39.85539,-23.46841 -33.96075,-48.79447 -41.92106,-14.07574 8.23424,11.59132 28.19705,16.68973 41.92106,14.07574 z M 708.923,663.46144 c 27.03712,-13.23313 -13.40869,-71.21869 -10.33083,-28.02052 2.00448,4.66485 -0.86436,43.98872 10.33083,28.02052 z m -310.13414,-1.67987 c 46.71396,-12.59449 -32.82643,-50.65081 -30.51396,-10.69194 9.27722,4.76852 19.04275,18.48603 30.51396,10.69194 z m -26.32803,-24.02411 c 31.46653,-19.50619 -36.24867,-50.93122 -41.00413,-16.44415 6.6021,11.82842 28.29601,25.20156 41.00413,16.44415 z m 358.30601,-17.05914 c 22.29194,-38.04124 -43.61304,-31.04233 -65.21749,-41.14962 -23.88373,14.60626 20.0731,47.40723 40.06933,36.18106 8.41008,1.32139 16.39726,6.77638 25.14816,4.96856 z m -45.44672,-2.50519 c -3.43969,0.33158 -1.10094,3.01587 0,0 z m -345.04957,-6.73672 c 27.63481,-22.9826 -52.60478,-65.03307 -43.6675,-26.26061 6.12487,16.56167 24.7927,34.75441 43.6675,26.26061 z m 394.08198,-26.87449 c 6.06848,-35.88451 -42.11937,-46.95692 -68.2856,-53.3911 -40.22357,9.8304 2.80854,51.73504 27.19402,52.771 13.46986,1.11913 27.74691,3.09769 41.09158,0.6201 z m 2.54589,-33.53226 c -5.02276,-39.76264 -66.16355,-53.45098 -93.93479,-39.78741 -5.09809,35.28189 42.08713,6.45217 59.18388,28.42057 10.91183,5.43875 22.31676,10.98534 34.75091,11.36684 z M 705.51643,510.2 c 16.98955,-29.99753 -48.1434,-60.95053 -30.99171,-16.78629 5.67655,11.57004 19.37522,14.95246 30.99171,16.78629 z m 0.36015,-48.7 c 21.86513,-32.08176 -61.70206,-53.77314 -33.69054,-11.1586 4.2217,13.23298 31.65355,43.11346 33.69054,11.1586 z m 0.20268,-32.01536 c 18.51327,-25.6691 -26.4907,-63.22497 -39.89296,-40.69695 -1.64237,25.83587 14.42186,43.73805 39.89296,40.69695 z m 2.35694,-45.42395 c 16.08835,-29.13876 -29.64609,-53.22622 -45.1653,-40.04639 -3.05472,23.9563 22.07132,51.43021 45.1653,40.04639 z m 1.38216,-64.39402 c 15.92733,-34.38003 -73.90985,-61.23362 -48.81885,-9.10804 1.52669,28.10154 59.58907,56.98524 48.81885,9.10804 z m 0,-52.05417 c 8.18709,-27.44017 -43.53134,-38.26662 -51.67291,-37.02786 -17.59644,29.30256 45.90344,79.55816 51.35683,41.75307 z m 0.14821,-47.14983 c 17.31928,-29.42653 -59.61537,-60.44032 -53.23429,-24.51871 -1.57975,24.30678 48.63461,66.27632 53.23429,24.51871 z M 708.6548,179.25 c 15.12696,-28.40533 -45.63996,-73.61842 -50.36431,-33.2787 -5.81306,21.82069 39.96251,56.19665 50.36431,33.2787 z m -4.85915,-43.53466 c 11.39669,-26.36082 -43.08463,-61.62535 -38.54259,-18.71858 8.76603,11.80498 23.55629,20.18648 38.54259,18.71858 z m 195.3076,79.9071 c 1.40682,-4.51444 3.38011,-0.24678 0,0 z M 872.43129,83.622445 c 1.40683,-4.514413 3.38009,-0.246808 0,0 z"
           style="fill:#000000;stroke-width:0.92757"
           id="path125" />
        <path
           d="m 356.67913,639.86938 c -33.7797,-5.70474 -23.11947,-42.08946 7.59751,-31.84344 22.4673,9.96485 23.09771,38.91077 -7.59751,31.84344 z"
           style="opacity:1;fill:#28170b;fill-opacity:1;stroke-width:0.544835"
           id="path137-4" />
        <path
           d="m 532.11614,718.18886 c -40.2182,5.76863 3.31962,-54.75262 25.07885,-39.45962 13.59734,14.1214 -8.30569,41.35618 -25.07885,39.45962 z"
           style="opacity:1;fill:#28170b;fill-opacity:1;stroke-width:0.544835"
           id="path982-1" />
        <path
           d="m 713.64113,586.33649 c -26.47823,0.65466 -63.22586,-17.06144 -63.80421,-45.86501 25.29971,-19.63947 61.44815,3.31094 80.7625,22.0247 12.98323,14.48654 1.11405,29.39169 -16.95829,23.84031 z"
           style="opacity:1;fill:#28170b;fill-opacity:1;stroke-width:0.544835"
           id="path984-7" />
        <path
           d="m 697.19753,386.22717 c -28.21308,6.10047 -50.91689,-64.00117 -13.07006,-41.84656 25.75631,-2.12229 40.04395,39.32576 13.07006,41.84656 z"
           style="opacity:1;fill:#28170b;fill-opacity:1;stroke-width:0.544835"
           id="path986-1" />
        <path
           d="m 693.65984,185.39224 c -25.67669,-2.68952 -49.90836,-37.1094 -25.47094,-55.67446 28.60146,-7.90592 62.88145,57.32446 25.47094,55.67446 z"
           style="opacity:1;fill:#28170b;fill-opacity:1;stroke-width:0.544835"
           id="path988-1" />
        <path
           d="m 419.60762,678.81595 c -52.19105,-7.01025 22.28316,-53.72673 30.36071,-13.56261 4.21712,16.89696 -19.71345,21.29431 -30.36071,13.56261 z"
           style="opacity:1;fill:#784421;fill-opacity:1;stroke-width:0.544835"
           id="path990-0" />
        <path
           d="m 626.64508,715.01979 c 23.0817,-15.5197 7.14325,-74.65011 39.01335,-69.18908 18.8698,31.39394 -1.88851,70.58623 -39.01335,69.18908 z"
           style="opacity:1;fill:#784421;fill-opacity:1;stroke-width:0.544835"
           id="path992-4" />
        <path
           d="m 696.38401,285.02437 c -32.32401,9.55249 -57.56483,-72.27531 -19.03974,-50.64752 24.58289,-0.0289 55.20659,49.41212 19.03974,50.64752 z"
           style="opacity:1;fill:#784421;fill-opacity:1;stroke-width:0.544835"
           id="path994-2" />
        <path
           d="m 728.26537,549.83243 c -24.24714,-18.38581 -67.21733,-15.24543 -84.86228,-29.26685 11.21363,-34.25198 67.2901,-5.5199 86.53082,10.82661 4.69569,5.20979 13.93451,23.56391 -1.66854,18.44024 z"
           style="opacity:1;fill:#784421;fill-opacity:1;stroke-width:0.544835"
           id="path996-0" />
        <path
           d="m 327.25802,613.38066 c -27.5457,2.93125 -46.75688,-62.80074 -7.18917,-39.29979 16.66154,8.92234 48.53259,39.42724 7.18917,39.29979 z"
           style="opacity:1;fill:#a05a2c;fill-opacity:1;stroke-width:0.544835"
           id="path998-2" />
        <path
           d="m 559.90274,725.04715 c -25.63287,-8.99243 15.89608,-60.19075 36.75394,-46.55859 11.86609,20.90933 -13.00416,52.58818 -36.75394,46.55859 z"
           style="opacity:1;fill:#a05a2c;fill-opacity:1;stroke-width:0.544835"
           id="path1000-1" />
        <path
           d="m 723.26116,620.40388 c -22.73761,-3.52715 -75.39708,-9.24622 -62.41046,-38.97744 24.96211,7.19316 63.49925,2.15647 76.62933,25.35288 1.33072,7.99875 -6.14803,15.37236 -14.21887,13.62456 z"
           style="opacity:1;fill:#a05a2c;fill-opacity:1;stroke-width:0.544835"
           id="path1002-0" />
        <path
           d="m 695.19827,474.73606 c -30.89319,-7.6493 -36.66393,-68.30645 2.74991,-43.75394 14.27185,6.49939 14.07224,42.09395 -2.74991,43.75394 z"
           style="opacity:1;fill:#a05a2c;fill-opacity:1;stroke-width:0.544835"
           id="path1004-7" />
        <path
           d="m 696.23624,135.55142 c -30.53543,7.26504 -41.28013,-55.856964 -8.95132,-36.179074 6.67485,6.274214 28.99848,34.331254 8.95132,36.179074 z"
           style="opacity:1;fill:#a05a2c;fill-opacity:1;stroke-width:0.544835"
           id="path1006-5" />
        <path
           d="m 488.80172,710.72558 c -42.17059,-1.87706 12.73725,-58.66697 32.70143,-31.44078 16.17146,16.3534 -18.24451,39.18627 -32.70143,31.44078 z"
           style="opacity:1;fill:#c87137;fill-opacity:1;stroke-width:0.544835"
           id="path1008-5" />
        <path
           d="m 488.80172,710.72558 c -42.17059,-1.87706 12.73725,-58.66697 32.70143,-31.44078 16.17146,16.3534 -18.24451,39.18627 -32.70143,31.44078 z"
           style="opacity:1;fill:#c87137;fill-opacity:1;stroke-width:0.544835"
           id="path1010-3" />
        <path
           d="m 386.60589,662.76495 c -42.74478,-12.5009 13.63139,-48.2159 27.18363,-17.61618 1.89949,14.15229 -16.23279,19.51759 -27.18363,17.61618 z"
           style="opacity:1;fill:#c87137;fill-opacity:1;stroke-width:0.544835"
           id="path1012-1" />
        <path
           d="m 694.22646,238.27938 c -30.34565,1.46997 -56.36017,-72.61188 -15.05975,-56.28314 26.65686,2.06113 52.33093,53.2309 15.05975,56.28314 z"
           style="opacity:1;fill:#c87137;fill-opacity:1;stroke-width:0.544835"
           id="path1014-4" />
        <path
           d="m 696.38388,507.17258 c -30.63992,7.36029 -31.23145,-58.87535 0.17841,-31.1428 9.1087,2.31535 16.05895,40.03152 -0.17841,31.1428 z"
           style="opacity:1;fill:#c87137;fill-opacity:1;stroke-width:0.544835"
           id="path1016-7" />
        <path
           d="m 672.14816,697.2973 c 15.07792,-20.71471 -19.66929,-68.92788 18.24266,-70.90674 10.89173,24.97957 14.39833,60.74814 -18.24266,70.90674 z"
           style="opacity:1;fill:#c87137;fill-opacity:1;stroke-width:0.544835"
           id="path1018-1" />
        <path
           d="m 454.61523,699.49827 c -41.90817,-2.98734 19.52184,-56.55225 29.37147,-24.39926 0.27447,13.87779 -15.38508,28.44115 -29.37147,24.39926 z"
           style="opacity:1;fill:#d38d5f;fill-opacity:1;stroke-width:0.544835"
           id="path1020-3" />
        <path
           d="m 584.61185,723.19354 c 14.76148,-15.13801 30.03636,-76.63533 53.9658,-42.67548 1.27207,26.14877 -29.18587,49.33914 -53.9658,42.67548 z"
           style="opacity:1;fill:#d38d5f;fill-opacity:1;stroke-width:0.544835"
           id="path1022-5" />
        <path
           d="m 703.79929,667.44739 c -9.06807,-14.88143 -9.34701,-71.73219 12.07688,-35.30009 0.98438,11.96892 0.0316,29.03692 -12.07688,35.30009 z"
           style="opacity:1;fill:#d38d5f;fill-opacity:1;stroke-width:0.544835"
           id="path1024-7" />
        <path
           d="m 694.74951,428.423 c -29.36975,6.58747 -41.95764,-68.36639 -5.47946,-39.86077 24.01659,-3.79109 28.6652,45.8892 5.47946,39.86077 z"
           style="opacity:1;fill:#d38d5f;fill-opacity:1;stroke-width:0.544835"
           id="path1026-9" />
        <path
           d="m 697.20127,345.57303 c -31.88688,-3.59551 -44.39041,-44.51854 -33.38728,-69.07601 26.28059,8.80417 56.969,23.33058 46.87433,57.1673 -0.72146,6.54395 -5.59246,15.09292 -13.48705,11.90871 z"
           style="opacity:1;fill:#d38d5f;fill-opacity:1;stroke-width:0.544835"
           id="path1028-4" />
      </g>
      <path
         d="m -11.609059,268.04212 c 7.0661327,-12.37454 41.953613,-13.62517 25.767453,4.73751 -8.7996225,5.71575 -15.7116235,16.04464 -1.763326,4.86954 19.913829,-10.70031 -0.598269,-31.13859 -15.658485,-17.97515 -3.2191211,1.95553 -7.879937,4.0738 -8.345642,8.3681 z"
         style="fill:#000000;fill-opacity:1;stroke-width:0.264583"
         id="path1470" />
      <path
         d="m -11.02513,267.78267 c 0.623954,-3.47282 -4.385525,7.53411 0.750981,-1.50625 -7.698021,8.48279 15.6012444,-14.06343 23.804458,-5.85369 17.887363,4.02798 -26.064856,32.42508 -2.825169,17.4895 17.909191,-8.86707 3.854325,-27.6541 -11.9168528,-18.61113 -9.4454092,2.65668 -15.2561592,16.75487 -8.2533581,6.21829 -1.4452551,-0.69242 -4.3591291,1.65956 -1.5600591,2.26328 z"
         style="fill:#000000;fill-opacity:1;stroke-width:0.264583"
         id="path1472" />
      <path
         d="m 12.866139,257.31962 c -0.744655,1.71097 -1.23235,4.33254 2.616508,1.20942 0.171455,-3.08066 -9.3833381,-0.37669 -2.616508,-1.20942 z"
         style="fill:#550000;fill-opacity:1;stroke-width:0.264583"
         id="path1474" />
      <path
         d="M 1.053967,281.12265 C -21.715244,269.97242 9.3711189,247.4762 17.894909,265.89483 15.906429,271.32172 6.144098,281.69985 1.053967,281.12265 Z"
         style="fill:#550000;fill-opacity:1;stroke-width:0.133635"
         id="path1476" />
    </g>
  </g>
</svg>
