<?xml version="1.0" encoding="UTF-8" standalone="no"?>
<svg
   xmlns:dc="http://purl.org/dc/elements/1.1/"
   xmlns:cc="http://creativecommons.org/ns#"
   xmlns:rdf="http://www.w3.org/1999/02/22-rdf-syntax-ns#"
   xmlns:svg="http://www.w3.org/2000/svg"
   xmlns="http://www.w3.org/2000/svg"
   xmlns:sodipodi="http://sodipodi.sourceforge.net/DTD/sodipodi-0.dtd"
   xmlns:inkscape="http://www.inkscape.org/namespaces/inkscape"
   version="1.1"
   id="svg86"
   width="1383.9907"
   height="1702.7975"
   viewBox="0 0 1383.9907 1702.7975"
   sodipodi:docname="villager3shot.svg"
   inkscape:version="1.0 (4035a4fb49, 2020-05-01)">
  <metadata
     id="metadata92">
    <rdf:RDF>
      <cc:Work
         rdf:about="">
        <dc:format>image/svg+xml</dc:format>
        <dc:type
           rdf:resource="http://purl.org/dc/dcmitype/StillImage" />
        <dc:title></dc:title>
      </cc:Work>
    </rdf:RDF>
  </metadata>
  <defs
     id="defs90" />
  <sodipodi:namedview
     inkscape:document-rotation="0"
     pagecolor="#ffffff"
     bordercolor="#666666"
     borderopacity="1"
     objecttolerance="10"
     gridtolerance="10"
     guidetolerance="10"
     inkscape:pageopacity="0"
     inkscape:pageshadow="2"
     inkscape:window-width="1080"
     inkscape:window-height="1826"
     id="namedview88"
     showgrid="false"
     inkscape:zoom="0.59003612"
     inkscape:cx="602.43006"
     inkscape:cy="728.64239"
     inkscape:window-x="-11"
     inkscape:window-y="-11"
     inkscape:window-maximized="1"
     inkscape:current-layer="g94"
     inkscape:pagecheckerboard="true"
     fit-margin-top="0"
     fit-margin-left="0"
     fit-margin-right="0"
     fit-margin-bottom="0" />
  <g
     inkscape:groupmode="layer"
     inkscape:label="Image"
     id="g94"
     transform="translate(-30.393888,-337.07791)">
    <path
       id="path98"
       style="fill:#000000;stroke-width:1.33333"
       d="m 815.89032,2036.8228 c -60.3607,-12.9053 -122.08491,-28.1804 -186.46848,-16.25 -66.77086,-14.898 -141.85,-1.791 -207.0394,5.9162 10.04684,-18.9842 -25.66671,-4.6305 11.79192,-19.3933 32.04667,-0.454 103.226,-127.659 61.16329,-70.0249 -46.02933,37.3592 42.3426,-48.0172 24.23934,-79.9837 -1.44562,-64.3501 26.6492,-158.6409 -47.95117,-184.8206 -49.4148,-46.0292 -129.5922,-57.124 -159.12801,-117.2211 -42.83548,-44.5701 -56.46159,-109.4038 -55.39456,-169.5398 4.54714,-52.017 16.42892,-57.0198 -22.24223,-68.9306 -32.85717,-65.3406 17.76434,-137.6352 -0.82791,-206.6427 -6.36799,-62.0914 -65.71972,-147.81462 -6.58719,-196.76502 -1.63992,-55.6508 -93.16861,35.7627 -114.55205,63.8771 -18.69572,27.16842 -80.467132,87.94082 -28.546643,28.98472 30.476263,-55.13052 99.218903,-86.41092 131.024173,-130.47272 0.46253,-26.1065 -8.8516,-118.2887 30.0896,-59.7341 -1.85338,-67.0653 48.07797,-118.0904 85.51844,-168.8031 40.89669,-63.42965 29.84313,-143.64865 68.90452,-208.70767 8.32603,-87.78063 115.49188,-93.79883 184.76554,-95.24911 88.99669,-11.88415 178.52661,-2.99015 267.99323,0.50218 62.60212,15.38591 114.35719,32.51534 141.94516,105.91145 13.90351,76.84712 89.36051,117.56528 112.16201,190.02455 11.7818,80.5027 81.8198,100.7275 148.1182,121.2171 62.7663,29.118 126.1228,58.4824 149.2444,130.438 31.3779,45.4182 -17.8223,0.6027 -32,-11.6104 -51.4876,-60.0142 -129.7496,-90.8477 -204.7282,-109.946 6.9837,38.2152 -2.8724,41.2891 15.6112,8.8897 -2.55,33.4236 4.4246,141.4454 -19.7296,115.539 -21.71,48.7156 54.1362,-30.7241 48.8471,32.18 12.6791,80.66592 -39.7398,152.50042 -28.9363,233.28442 14.2508,63.1205 13.0983,148.4003 -51.7308,183.245 2.1092,44.7861 -6.656,85.5307 -21.0525,129.085 -4.1088,54.9773 -43.0475,84.9706 -85.6705,111.4173 28.1003,-39.1447 10.349,-64.9188 -15.7882,-12.7435 -17.28897,21.6714 -17.38747,52.1928 -25.44634,49.1771 -24.48935,25.8656 -50.86689,39.6448 -80.89235,55.322 -47.58885,19.0575 -25.21804,65.4622 -30.42433,119.1272 -2.07466,71.6171 25.00756,136.6412 60.98964,195.7692 27.40485,26.5792 66.97088,51.504 6.2846,38.1884 -43.24442,-12.2058 -79.24294,21.8405 -123.5556,8.7427 z m 36.62065,-5.48 c 36.38374,-23.4341 125.46119,6.5915 63.20356,-46.5494 -47.35451,-74.794 -62.18458,-163.7026 -58.79616,-251.1435 -18.9657,-36.7642 -40.97034,50.9771 -63.49025,7.5557 -25.63686,38.3802 -34.36433,-10.6444 -56.37876,19.537 -16.66989,-14.0431 -58.33961,22.3651 -63.22687,4.3211 -13.5703,28.0285 -25.42304,-33.5518 -45.3147,15.803 -1.21721,-42.3424 -69.72833,-69.6499 -97.14585,-67.3777 -6.68066,41.2385 109.72368,87.3088 76.80393,92.2134 -34.32866,-15.1463 -100.06913,-91.3494 -61.78577,-13.9447 2.67849,37.8377 124.03021,71.2041 36.66239,53.8651 -23.53447,-14.2124 -61.63845,-66.6718 -47.84397,-30.9014 -5.09307,25.4617 120.63837,100.1851 34.60243,61.3607 -29.26383,-27.333 -50.9037,-65.3801 -30.62225,-3.122 7.14666,35.7121 117.74391,109.522 32.12968,63.1184 -38.41987,19.9236 -60.31379,-61.2343 -15.53228,-9.0811 20.31256,19.5816 -38.4186,-86.7481 -32.63904,-23.031 -1.03431,51.0213 -136.25797,121.6498 -28.38459,109.9532 76.01852,-19.6869 151.83578,5.6403 230.16906,-6.1432 41.76867,12.2651 85.94449,19.1056 127.58944,23.5664 z m -324.39839,-33.106 c -48.54668,-4.4102 -56.15243,-49.6576 -8,-11.3794 20.7203,-1.1933 44.62092,13.3256 8,11.3794 z m 19.87819,-13.0576 c -47.70812,-1.0884 -44.1782,-90.916 -16.16976,-19.7719 10.86101,10.1272 56.63589,18.4597 16.16976,19.7719 z m 16.58015,-9.412 c -44.92222,-7.1756 -63.21599,-86.7653 -16.01124,-21.0466 10.29874,9.859 53.44865,20.4416 16.01124,21.0466 z m 71.31142,-206.9448 c 5.62734,-31.8013 -19.29545,6.4743 0,0 z m 62.18842,-12.7936 c -13.5635,-0.6401 -7.48967,14.1348 0,0 z m 21.37516,-1.5398 c -4.5953,-6.345 -7.95528,7.6117 0,0 z m 27.33333,-1.8909 c 3.36101,-9.9856 -9.62247,1.2853 0,0 z m 35.96929,-6.362 c -0.003,-27.6893 -25.67298,21.7809 0,0 z m 35.91399,-6.5276 c 3.02611,-42.8205 -26.20013,32.0498 0,0 z m -166.57036,0.4472 c -2.39366,-14.7296 -4.21266,8.8734 0,0 z m 20.02041,-2.3333 c 52.87353,2.83 146.79573,5.1088 186.52599,-52.3477 -2.2011,-23.0645 31.70285,-64.9786 32.24461,-18.9857 2.86791,-60.1848 43.18288,14.6076 54.79711,-47.4236 37.87421,-33.3998 57.63321,-66.0782 85.79271,-107.6603 28.5592,-48.3369 45.4212,-112.6559 71.3836,-170.5258 -6.7792,-44.8298 13.0336,-86.6548 18.9466,-137.4929 -16.4262,10.4228 24.1845,-42.9138 9.054,-63.6674 28.2285,46.7705 21.6617,-194.80612 8.2912,-68.8377 -4.3425,32.1096 -34.5346,176.4698 -22.6045,75.4258 15.7235,-65.1916 25.4381,-135.3939 26.8461,-193.63802 -4.69,-31.199 -0.059,-54.1946 -8.8218,0.2083 -18.0264,36.4781 2.2182,-106.7975 -9.1253,-9.22 -16.7926,42.0649 1.2709,-70.9769 -38.5288,-30.7031 -37.6381,-29.4663 -74.2988,-15.9179 -99.12042,-9.8983 -39.49999,1.3992 -59.03501,14.7205 -82.54834,12.2832 -16.29611,28.5226 -26.47911,6.9937 -41.59092,17.8211 -19.75057,12.6199 -27.67323,17.3156 -42.00969,28.7858 -50.05459,13.1083 -66.21915,111.77802 -69.65376,162.99362 -8.46206,-39.9402 -6.90059,-53.5847 -8.32089,-3.8632 1.24456,28.9416 3.37589,86.5705 9.51546,24.995 17.32312,19.8812 -17.22771,119.2079 52.5016,93.384 44.00932,6.9292 134.20241,33.954 50.34799,65.1756 -30.08366,22.9569 -51.24801,27.2334 -50.89641,24.2013 -53.20547,1.7367 -76.5266,55.1146 -107.83086,76.2525 -37.27716,-49.0309 -100.59265,-64.0977 -154.08514,-66.3152 -69.49957,-39.215 -40.84012,-71.1382 30.96359,-76.5549 43.57572,-22.3407 73.67125,1.1672 20.94623,7.5415 -38.65657,4.5149 -112.94396,10.5248 -47.70443,51.1623 39.17141,30.3572 61.91927,-63.4675 96.35919,-4.8176 -11.92439,28.6443 64.33301,69.4489 62.68032,77.9322 24.36188,-32.2813 55.64574,-126.4009 106.30791,-84.8743 24.98354,-37.0771 107.00336,-13.7525 52.67072,-41.1637 -41.34744,-32.8213 -118.23534,2.8202 -119.73833,-52.0309 -22.70499,-77.4139 -9.95964,-159.0929 33.74257,-225.47562 11.99431,-44.7447 44.11372,-133.1336 72.78722,-143.1584 -27.20027,74.5454 36.17683,-60.6174 15.30276,14.8561 -16.20328,41.2471 50.00341,-104.1501 22.86476,-15.0156 -9.27811,26.4265 -23.83696,94.7373 -1.69323,30.0091 8.36254,-32.3238 48.19433,-85.8822 23.20983,-20.0432 -18.93319,35.9261 -20.59927,80.8588 5.77366,21.8949 16.73167,-38.8367 39.72123,-47.4398 18.34689,0.1962 -16.50672,60.3674 55.38541,-81.7591 31.4797,3.8115 3.29235,5.9549 40.05572,-43.7692 25.28447,4.4288 23.33295,-6.0708 38.80515,-49.7212 28.08845,-1.2325 30.4589,-4.8602 40.248,-37.0896 39.8842,1.7248 19.9393,-25.813 46.3456,51.9691 31.3937,-17.3092 -18.2516,-32.6703 33.353,-103.5599 13.1353,-92.2798 -21.9507,77.506 6.4595,-58.6441 -50.529,-8.6417 -103.94033,4.3444 -207.22681,17.1246 -309.56562,33.4472 -76.63751,8.4892 -140.14031,60.9503 -217.39226,67.4162 -60.61342,-12.1915 -26.9764,26.9307 -9.18242,42.8339 20.17741,78.5837 108.84987,124.34412 101.68576,211.51112 -2.78119,28.8454 22.10082,116.4808 -0.66981,117.8505 -4.55731,-62.7761 -9.1292,-106.154 -17.65805,-169.2575 -22.13877,-41.3201 -61.83868,-99.36932 -95.51972,-102.70902 -30.31917,-37.4427 -35.72308,0.8155 -67.03532,-26.2081 -32.05298,-7.3621 -37.68611,-16.8211 -31.82851,15.8375 -31.99318,-8.7341 -52.62372,-28.1459 -55.49864,9.2414 -24.56474,-12.331 -96.32837,-0.1746 -79.81,-1.6572 -25.14219,-39.3296 15.21969,72.36562 30.21621,101.50962 61.05367,8.3333 141.13667,-77.06542 209.67775,-31.8555 38.74598,27.1953 34.79209,87.4735 1.82944,71.6325 -55.3314,48.803 -141.58486,8.2745 -200.58209,-17.0856 6.6538,51.3234 89.96526,96.7699 67.04052,116.3943 -53.06192,-25.2531 -81.40018,-130.478 -103.86899,-141.9706 21.94155,59.5254 54.28739,123.1215 95.05692,176.3768 18.27723,21.1774 83.15957,68.383 20.60477,36.1637 -43.59541,-28.6946 -117.58697,-151.5161 -97.77095,-133.9461 36.4701,65.8831 57.01497,162.1721 133.60439,190.0341 -48.98047,21.7974 -89.17879,-79.003 -114.1309,-121.4668 -35.98905,-48.2097 80.60702,154.2365 43.07855,89.4696 13.19602,36.1729 119.58325,113.2135 31.09368,58.2168 -33.17755,-38.822 -98.35983,-146.0414 -84.06534,-123.0198 -3.18943,34.7747 0.48177,50.8983 7.63519,26.201 33.78593,50.4748 -5.3872,25.5203 -1.08438,31.4801 -47.34665,10.2749 -9.44685,91.1228 -5.85689,133.6523 1.18116,54.059 48.8071,129.9962 79.92868,145.7261 -21.72281,-20.8581 -36.17856,-78.7197 -1.38232,-27.325 25.88543,19.5874 79.16844,99.0331 21.34779,52.4547 12.21603,26.9674 74.84626,50.926 46.12505,-5.1914 11.85692,3.1299 -16.61722,-47.527 -0.15144,-60.9595 -8.8631,-44.3325 29.81448,11.9084 11.4835,-32.5933 -8.41451,-54.0054 36.42628,20.1873 12.42572,-39.0013 0.68686,-52.6149 41.75138,46.4365 25.76434,-24.0761 -1.42763,-23.0551 21.00184,-47.0824 25.48858,-7.1766 -6.90942,-81.898 18.27251,-17.5392 18.0645,-3.8674 -8.31488,-38.1019 13.10424,-71.503 18.0792,-9.702 13.69573,-69.7234 13.28978,21.6505 23.92469,11.12 10.73092,-61.0203 17.00754,-17.1058 17.19819,9.9251 0.56364,-26.9195 19.85544,-70.6285 24.36976,-26.6667 24.324,-37.7411 9.57451,59.9065 38.85982,5.0852 -8.78181,51.0698 35.81277,0.8709 35.68344,38.2482 8.84808,-47.0543 34.21197,-62.7221 35.39182,-6.2032 4.76474,-51.0731 30.66202,-5.7141 29.39511,-28.6624 17.54466,-14.9291 39.98357,-61.3151 38,-4.4892 20.78504,-65.8354 43.22455,-52.4122 38.87918,7.471 10.16709,-32.0783 37.67255,-77.8277 46.39498,-53.2085 17.94884,-7.0391 -6.39392,68.4301 17.46716,9.7299 2.12934,24.6908 0.0491,46.5532 -1.98778,80.3037 23.0624,-78.2365 18.11203,33.2759 13.62181,27.7517 24.07484,-34.1075 5.63489,46.8394 22.23256,40.7811 18.75259,27.8309 -69.28983,131.8093 -36.8251,55.1079 12.94274,-51.5412 -25.9582,60.9977 -17.2203,1.0135 11.7314,-51.1929 -2.92614,-38.403 -10.17842,2.3042 -30.04529,34.5012 24.89963,-79.0453 -21.12196,-47.72 -74.82803,54.3728 -175.37725,57.6284 -261.02324,30.4117 -31.85639,-16.9973 -113.93244,3.5013 -75.57629,-9.888 3.15279,-9.6923 -44.88911,28.8846 -1.49798,-7.359 23.99983,-21.2297 46.64975,-64.3601 19.62119,-8.8102 68.04935,-20.0584 138.1813,-10.8547 204.81284,-16.5342 33.67031,-27.7579 130.43525,25.9385 113.73575,-30.0011 13.16774,13.8412 29.20264,52.7754 28.08437,-4.5378 12.0761,-46.3823 -14.23859,-96.1852 -12.77007,-118.428 -8.32541,54.5591 -52.08533,67.3636 -45.85757,12.4093 -20.79436,77.8101 -37.24424,5.3617 -37.99595,23.1332 -10.13945,33.0666 -36.85474,40.8328 -39.50988,29.7611 -22.15377,72.5252 -24.4922,-70.4277 -38.14864,11.9582 -23.33165,23.6648 -44.3234,-23.3193 -66.95776,-5.1573 -15.4416,-54.2672 -29.19409,-11.1169 -49.2402,4.5161 -3.88815,-23.2405 -44.22746,-20.574 -46.49244,0.3611 -30.98034,7.8076 -40.97431,38.041 -58.96304,24.7098 24.79626,55.1747 -33.84212,15.7614 -8.12616,65.8776 -6.15037,21.3528 -6.48934,44.1445 -4.02618,66.885 8.79365,16.7391 -15.93359,62.8164 10.00232,23.3775 -1.73807,33.6921 34.99035,-12.1948 47.79628,28.4689 23.1297,-3.4064 16.53573,22.1211 39.85168,-6.3457 9.25104,17.3659 15.7222,53.8931 38.70076,29.1966 -0.83068,23.2693 32.13875,90.6934 30.38899,22.2252 18.10118,-59.2673 8.89246,57.5448 29.26275,31.5906 z m 76.6,-104.5031 c -37.20392,-26.2727 -81.30928,0.7118 -91.46284,-10.0049 -69.7295,12.431 64.28106,-33.4778 86.19618,-4.8526 16.25203,-0.1644 27.68499,16.054 5.26666,14.8575 z m 95.83134,-35.7072 c 42.93588,-18.1356 -12.38194,18.643 0,0 z m -309.76467,-78.3069 c 18.92934,-42.2487 6.33059,14.5926 0,0 z m 130.66667,-272.7255 c 15.45553,-21.7387 34.73338,-38.9986 42.44701,-15.6327 48.10181,9.9794 -35.00328,11.468 -42.44701,15.6327 z m -166.5519,-38.424 c 26.1832,-40.8053 0.22013,16.2805 0,0 z m 364.56979,-15.8295 c -28.79865,-23.5536 -54.80536,-96.3879 5.98211,-52.0873 27.33656,14.1584 157.08648,19.7871 61.44682,22.7473 -51.44051,-19.0378 -35.45131,3.6172 -50.60158,7.1458 -55.58444,-35.1855 0.44374,3.2615 -13.91328,27.0237 z M 492.1683,1176.3489 c 27.29695,-15.3123 57.37448,-62.0679 7.95759,-22.9536 -32.9985,22.4544 -66.77886,26.4624 -13.01721,2.8948 26.24281,-22.7124 76.69477,-40.0625 40.10526,1.3134 12.22151,-26.4119 -49.36277,40.2984 -35.04564,18.7454 z m 25.27762,2.9701 c 4.50566,-5.4089 6.30464,-3.6828 0,0 z m 379.72941,-57.545 c -34.90053,-17.29 -122.85679,-24.419 -58.78729,-59.0084 47.20882,-75.77822 135.2756,-52.797 196.98666,-10.6579 46.6116,25.3674 -78.70375,76.3273 -116.83442,69.8029 l -14.89952,0.093 -6.46553,-0.2297 z m 59.60392,-10.782 c 39.83457,-3.9928 130.16375,-48.624 46.43335,-63.0135 -21.51036,-14.3195 -118.55043,-54.55152 -63.09598,-5.4704 11.02465,70.9625 -89.78927,47.3922 -30.52156,-1.9903 21.73724,53.5105 0.0122,-0.322 -7.93809,13.7926 -3.62634,79.0315 67.49659,-26.3275 1.65884,-27.2183 -78.42648,28.3714 9.78855,132.4531 49.82894,61.318 -5.50808,22.758 -45.32723,32.6706 3.6345,22.5819 z m -86,-6.903 c -50.76381,-50.946 102.95207,-117.13482 4.49304,-71.5524 -26.47623,30.623 -76.63079,47.5594 -25.50443,62.0905 6.72146,0.8361 13.34483,13.0142 21.01139,9.4619 z m -540,-66.7778 c 52.10031,-43.03712 130.4559,-70.32412 189.55948,-22.4862 50.12002,54.0745 -61.44823,-36.72102 -92.24992,-18.87522 -34.12991,8.55412 -66.84093,24.00272 -97.30956,41.36142 z m 724.68715,-12.9222 c -62.32306,-30.66262 -160.16026,-69.36162 -213.45241,-3.5585 22.75502,-54.67982 134.15523,-50.05262 193.89141,-19.0976 11.7385,-1.80452 45.1168,29.225 19.561,22.6561 z m -447.91678,699.7667 c 5.20735,-32.4921 -37.9467,-27.8918 -44.79522,-56.5107 -11.22779,36.377 -77.38605,-48.0205 -67.47276,-5.9691 9.57278,24.7972 62.23294,41.4183 105.8907,65.0461 l 5.88031,0.8346 z m 242.62864,-5.3788 c -7.94097,0.2479 -3.26341,9.0971 0,0 z m -2.23649,-5.7615 c 20.97989,-14.1663 -17.97906,5.1782 0,0 z m 28.32371,-24.7382 c 24.12962,-14.9174 -25.57414,10.5792 0,0 z m -1.35076,-5.4548 c 23.2773,-15.7413 -25.51837,13.3498 0,0 z m 0.361,-6.446 c 23.8039,-29.017 -16.38969,-30.5965 0,0 z m 31.48361,-8.425 c 12.31029,-12.7818 -24.39231,15.6009 0,0 z m 1.35325,-10.803 c -7.14891,-13.8493 -9.53597,11.4119 0,0 z m 41.50342,-16.9927 c 4.97821,-6.0882 -8.97998,7.2444 0,0 z m 8.28014,-11.4852 c 5.33037,-19.4463 -35.55299,27.5181 0,0 z m -2.94681,7.4852 c 4.33127,-6.6272 -7.58474,8.4179 0,0 z m 16.68332,-23 c 15.55103,-32.4718 -21.82987,16.0028 0,0 z m -575.85277,-7.6667 c -31.89151,-37.7365 -43.11492,-17.3806 0,0 z m 597.89376,-18.9277 c 4.50425,-31.6181 -20.70295,25.8895 0,0 z m -244.89439,-9.1107 c 38.34403,-2.788 140.87409,-49.7947 49.6926,-22.3908 -80.45945,9.6353 -161.93739,6.1176 -242.35927,0.3368 64.10627,9.8361 126.51898,31.913 192.66667,22.054 z m 173.6906,-8.6248 c 2.57919,-30.8652 6.89603,-77.6539 -14.20362,-57.6091 11.60345,-59.1559 -18.68214,-35.8392 -11.44058,-1.9229 19.17244,-1.9442 -12.87012,93.3366 16.2442,23.6187 16.12587,-18.4896 -8.7892,55.9404 9.4,35.9133 z m -582.53553,-11.903 c -6.63729,-16.8756 4.58786,26.4036 0,0 z m 690.09458,-16.8787 c 41.5753,-51.4846 81.6391,-112.9624 78.0755,-182.6231 -22.8766,29.9418 -46.0084,110.0512 -64.0875,158.944 -20.6883,7.3172 -58.9574,79.4811 -13.9878,23.6791 z m -278.58298,11.6129 c 34.35364,2.3812 158.35979,-22.4837 58.66666,-23.8346 -65.06529,5.0944 -124.01153,16.8733 -189.01236,7.534 -38.888,8.3685 -54.6401,18.4325 -1.15345,15.0962 43.79243,3.7236 87.5619,3.9108 131.49915,1.2044 z m 327.17578,-21.3833 c -3.2171,-3.0719 -34.1917,43.2278 0,0 z m -3.1874,-4.0919 c 32.7146,-38.1942 19.8652,-96.8649 -4.6919,-23.6538 -11.4806,25.7834 -25.1052,68.1656 4.6919,23.6532 z m -736.65505,21.5619 c -3.81172,-7.1482 -0.50089,8.7186 0,0 z m -21.63333,-17.2411 c -17.33857,-33.5515 -15.21427,-73.8124 -36.99144,-84.9573 3.75705,26.212 21.88028,87.4942 36.99144,84.9573 z m 576.20628,1.6531 c -1.10718,-13.0372 -3.66989,16.5019 0,0 z M 292.24258,1412.5492 c -9.57766,-26.2993 1.65823,31.2884 0,0 z m -23.02877,-22.3935 c 12.60554,-16.0524 13.40642,-107.8121 2.3029,-39.107 -4.15834,4.3912 -5.91436,79.841 -2.3029,39.107 z m 12.23211,-22.4907 c -3.8619,-7.3868 -2.02243,11.4294 0,0 z m 353.33333,-28.6725 c -2.22867,-4.6084 -5.74753,7.2267 0,0 z m 113.73696,-4.1701 c 14.29148,-28.294 -10.10714,6.6475 0,0 z m 397.88169,-6 c 27.1811,-37.6638 -32.0242,8.7172 0,0 z m 14.1677,-36.7828 c 21.9329,-70.7054 7.5609,-142.8041 20.0185,-215.363 12.3328,-45.8035 56.4058,-159.09932 -7.0804,-166.23372 -22.6439,28.0115 -33.0346,93.61962 12.6167,54.5934 15.3298,61.74892 -20.5599,126.60032 -36.5622,184.56942 -9.4009,46.7226 -36.519,148.4712 -12.5541,170.6264 8.3115,-8.9817 17.8732,-17.1572 23.5615,-28.1925 z m -901.11968,27.3184 c 29.54182,-56.629 4.34419,-128.6444 2.19569,-191.1407 -17.43946,-48.5707 -36.81817,-105.7791 -13.08554,-151.77272 14.91629,-36.5339 -25.91036,-90.2411 -37.59335,-31.0754 -1.13806,86.14342 53.50336,167.84892 29.38876,255.31162 -4.5483,35.6858 -27.60814,105.3876 19.09444,118.6772 z m -2.66667,-3.5356 c 4.78426,-5.0765 1.65603,5.2565 0,0 z m 500.66667,2 c 9.41498,-11.8537 -12.54783,12.0351 0,0 z m 13.33333,-6.9807 c -23.22556,14.6665 -1.92583,4.5047 0,0 z m 0.75331,4.8405 c -6.78679,-0.8973 -5.52178,8.3009 0,0 z m -166.56974,-10.8236 c -10.7624,-4.5476 -25.1775,22.8905 -8.90121,6.8915 z m 229.4831,9.6451 c 16.73231,-11.5605 -25.2907,9.8583 0,0 z m 1.66666,-9.6797 c 57.46029,-35.0358 -48.17533,20.8243 0,0 z m -554.77372,-5.0016 c 4.30757,-9.2249 -7.9462,11.5018 0,0 z m 885.18284,-0.702 c -3.7735,2.5775 -1.5838,5.7996 0,0 z m -49.7301,-20.2158 c 6.2425,-51.4227 -11.7312,57.3212 0,0 z m -247.1756,13.2511 c 4.97821,-6.0882 -8.97998,7.2444 0,0 z m -578.88006,-8.2784 c 12.60231,-64.5253 -8.69184,-52.8498 0,0 z m 329.37664,-24.0549 c -1.37172,-4.9421 -18.35545,5.4265 0,0 z m -323.60866,-82.3953 c -23.84859,-47.4173 18.4596,54.5734 0,0 z m 196.74885,-56.2018 c 75.67336,-28.6987 1.88639,-113.1612 -57.80903,-84.7583 -104.87903,-4.0257 -9.9331,144.3503 33.24879,49.9292 17.35976,-84.5304 -66.8567,-8.0559 -29.52993,-10.1103 59.42771,-30.0822 -35.19364,73.3304 -15.3473,-4.1013 16.25656,-87.63282 96.0422,14.1439 24.51391,41.0776 -57.38325,9.2084 54.14337,13.0915 44.92356,7.9631 z m -225.03996,-30.894 c -3.11206,-30.3629 -24.89969,-146.38752 -21.7409,-56.2272 -0.0261,18.1338 35.88733,133.2443 21.7409,56.2272 z m 121.09576,19.1577 c -26.43565,-35.932 16.0564,-81.3172 -48.70776,-40.6595 -66.57449,9.2015 44.04109,43.1899 48.70776,40.6595 z m 773.45393,-26 c 21.3573,-22.2661 28.0692,-159.01092 -2.9158,-85.42342 0.979,13.46052 -8.3436,119.71622 2.9158,85.42342 z m -716.98909,10 c 28.07448,-49.1532 -38.72428,10.9107 0,0 z M 816.85076,954.44878 c 16.75739,-31.7154 32.09477,-140.4656 5.24306,-50.2669 -1.83094,24.9696 -58.58051,107.77262 -5.24306,50.2669 z m -531.82498,2.586 c 9.83603,-8.9389 -20.04086,1.6888 0,0 z m 60.42014,-1.9668 c -7.1318,-17.7829 -16.59938,-2.0037 0,0 z m 173.33333,-1.2837 c -15.91604,-34.785 -58.99516,-113.4329 -29.28871,-30.6286 7.31361,11.4568 15.33578,26.5535 29.28871,30.6286 z m -216,-5.2349 c -61.17298,-38.4829 -4.62747,-26.3332 26.84901,-7.6084 -5.9953,-14.2337 -44.88545,-88.8921 12.74447,-40.165 23.2246,25.6411 57.36243,44.0054 17.81714,2.4154 -45.97066,-77.4908 102.71669,70.5338 41.79434,-3.6376 -42.15012,-54.0718 12.15718,-21.0032 29.72015,10.4545 13.6151,-82.5436 -84.45661,-41.7174 -136.81476,-41.9274 -22.29689,-0.6396 -35.91585,106.5783 -27.23788,71.8713 12.16265,-7.7492 22.7441,12.7631 35.12753,8.5972 z m 538.91492,-9.3678 c 12.80681,-30.6847 23.68666,-116.8861 4.83573,-38.255 3.05119,5.749 -24.44351,52.2366 -4.83573,38.255 z m -480.02948,-4.5151 c -39.78864,-56.2856 -48.39326,-18.8821 -7.13647,1.7361 z m 111.23199,-3.6856 c -16.82884,-30.9182 -66.34113,-86.4578 -24.85166,-16.7236 0.0768,7.435 19.82749,22.0527 24.85166,16.7236 z m 389.58589,-2.5675 c 8.12216,-29.5048 26.83693,-109.6456 4.37818,-36.5986 1.06562,5.7429 -17.91244,42.8948 -4.37818,36.5986 z m -467.03665,-6.6847 c -38.88312,-34.7095 15.69774,23.2168 0,0 z m 487.72938,-3.573 c 10.9321,-27.7526 35.25461,-100.0006 8.3216,-30.8754 1.79372,4.5812 -19.68778,35.6862 -8.3216,30.8754 z m 48.39155,-9.9902 c -9.55538,2.9503 0.83612,3.9578 0,0 z m -3.15743,-27.1345 c 15.09454,-58.3901 -38.81855,73.8398 -1.10427,3.4718 z m 91.81038,13.716 c -10.1701,-0.1826 -4.2175,6.5006 0,0 z m -62.58878,-4.0651 c 21.29178,-50.716 -23.24636,2.9179 0,0 z m 25.86491,-5.1929 c 11.15083,-33.7508 -22.32381,18.2518 0,0 z m -514.57403,-1.109 c -3.55374,-31.0796 -14.35962,-1.2785 0,0 z m 542.4127,-0.082 c 1.7276,-9.0864 -8.9847,8.3968 0,0 z m 35.0879,0.5241 c 16.9819,-27.8456 -21.2692,9.9034 0,0 z m 116.263,-6.7453 c -5.586,0.9535 -1.0513,10.3946 0,0 z m -61.0772,-43.9057 c -4.6689,16.9965 2.9559,49.0625 0.7762,7.669 z m -566.78284,28.4255 c 76.70867,-5.987 139.13295,-59.0468 215.38935,-66.8122 102.94279,-17.5584 207.26196,-29.0068 311.89769,-34.3908 100.6712,-23.1113 202.8906,22.6779 286.1519,77.4398 62.8104,58.4618 -35.7841,-69.4548 -76.1519,-54.5639 -49.9291,-36.7648 -105.0906,-39.5138 -161.2877,-48.7008 -88.068,1.9862 -176.85654,4.5253 -264.21892,17.0692 -73.35658,38.0906 -158.63881,8.8931 -237.55424,26.4376 -69.65655,20.1091 -139.82534,22.1242 -210.27239,2.8391 -36.06121,-16.1491 -88.78978,-22.6135 -58.78133,25.7809 -27.78766,5.0894 -63.90009,-41.1239 -49.32583,11.735 5.24189,74.4426 99.79381,15.8081 144.10716,33.4806 9.53074,-14.1894 30.47175,18.1721 48.97581,7.6408 17.03231,0.038 34.31332,7.7632 51.0704,2.0447 z m -243.42464,-1.3682 c -1.09032,-24.4136 -8.64765,7.133 0,0 z m 851.25038,-49.2528 c -6.722,-17.1248 -3.3457,48.4196 0,0 z m -817.86268,-18.7851 c -8.88749,-68.9949 -62.6363,-4.9659 0,0 z m 175.27544,-6.01 c 71.93615,1.2252 143.00542,-28.8577 217.80071,-22.9903 76.17736,12.9711 141.29943,-28.9691 216.97222,-29.4471 64.86582,-2.722 155.27361,-6.0154 204.42921,-10.9535 -39.8406,-2.086 -104.3326,-22.8575 -155.15352,-14.241 -76.78747,7.349 -154.68317,4.5442 -230.63761,20.1233 -67.08013,14.415 -131.42179,46.4158 -202.6902,32.9499 -50.23857,7.859 -114.56615,-15.5053 -157.31842,7.7269 33.5274,4.1685 71.18943,21.3581 106.59761,16.8318 z m 634.09164,-7.8917 c 1.8066,-45.799 -22.4686,4.7211 0,0 z m 27.0255,-13.5093 c -17.9878,-8.6414 -7.1681,22.5033 0,0 z m -766.5168,-1.4475 c -0.19283,-18.7623 -26.13733,9.4806 0,0 z m 708.1149,-7e-4 c -4.9042,-4.8593 -1.5986,8.6534 0,0 z m -826.72727,-5.3685 c 13.69571,-16.2577 90.71244,-108.6737 22.8928,-42.1172 -5.3705,5.5633 -56.90702,68.3812 -22.8928,42.1172 z m 80.39399,3.4558 c 11.0153,-20.7504 -59.9261,-13.4897 -9.69903,1.1227 z m -40,-7.5637 c -4.09417,-34.7046 -41.79233,16.5819 0,0 z m 317.66666,1.348 c 74.73327,-22.1853 148.52977,-43.641 227.27307,-48.3423 85.58554,3.9587 173.52745,-22.6392 256.85435,6.0486 9.1392,-23.6877 -37.0978,-113.69115 -68.3663,-145.04335 -52.06042,-51.3892 -58.7899,-126.26367 -108.65094,-179.28652 -55.99846,-42.62499 -131.52233,22.79791 -199.68188,5.84112 -74.13911,-10.87522 -149.2929,-16.20134 -224.25261,-12.07424 -51.3036,-15.19163 -93.87243,1.26483 -61.57537,60.71748 15.5599,18.29337 66.23271,72.29912 16.39968,33.80758 -53.24666,-7.61901 -11.71237,-152.50212 -56.91776,-68.69098 -29.11225,65.48288 -40.03287,136.72329 -61.00152,204.01349 -33.99397,41.02072 -14.0358,53.64912 10.14874,13.52245 35.5864,-18.01143 5.45754,-150.80147 32.51584,-63.09551 -4.77256,54.09279 49.55828,120.34158 52.4466,150.14338 -29.97134,-17.9862 -59.4026,-64.5221 -34.1919,-6.0915 42.62434,12.1582 -15.63977,64.4059 43.39832,45.7483 58.42607,1.9103 117.57442,1.1602 175.60168,2.782 z m -112.56849,-44.2925 c -50.70381,-20.6439 161.6894,8.9532 107.55881,-12.8253 92.3609,-6.5421 -140.69636,29.1396 -84.99287,16.2922 l -7.74528,-0.3294 -14.82066,-3.1377 z m -75.43151,-53.9629 c -55.66704,-21.1812 -9.5244,-46.90784 -36.69762,-85.6386 -22.65022,-33.88098 -14.25262,-140.78861 6.95806,-129.15353 15.34001,37.01892 -0.96133,-94.65439 14.087,-25.60343 7.40506,42.99385 -1.87699,96.33057 31.98119,119.41504 51.03613,41.77059 139.70941,54.0032 187.49156,70.75828 -72.90027,1.81458 -148.75351,-32.86887 -208.60225,-68.5229 -45.11255,-20.48898 69.50956,97.16814 12.32453,64.92324 -33.04133,-37.87841 -37.3841,-105.99657 -47.46336,-140.30356 -6.91466,68.42799 22.38255,147.55211 52.71516,193.24256 l -5.95235,2.5537 -6.84182,-1.6708 z M 427.93441,473.82232 c -3.43038,-66.04301 -5.18495,54.58265 0,0 z m 336.84484,83.34582 C 673.8148,544.33452 571.99014,520.70346 512.11258,445.40268 c 42.15555,23.19876 116.9197,83.23001 186.09932,91.48699 30.53049,4.07737 169.78603,28.30647 66.56735,20.27847 z M 881.44592,526.8119 c -37.52625,-6.80513 -138.514,-36.19117 -128.44956,-59.38808 33.71866,32.8363 148.84861,82.16378 137.95149,60.38281 l -9.50193,-0.99477 z M 389.27437,740.12698 c -48.75538,-50.5586 -9.3384,30.5802 7.95606,7.4848 -2.65202,-2.495 -5.30404,-4.9899 -7.95606,-7.4848 z m 37.45797,5.1163 c 4.11588,-43.0349 -32.84629,6.3228 0,0 z m -74.5864,-7.1348 c -10.32318,-61.4614 -46.64964,24.4562 0,0 z m 54.63331,-1.4364 c -3.05562,-40.5958 -59.7953,-28.6677 -3.48745,0.8193 l 2.75328,1.0132 z M 312.919,681.15568 c 8.56558,-24.0456 -72.05816,99.8433 -15.40137,22.1749 l 6.40282,-9.239 z m 4.52692,53.3333 c -3.4066,-4.7831 -3.4066,4.7831 0,0 z m 1.33333,-39.6509 c 48.19077,-47.1453 5.51827,-41.8916 -13.09329,3.7764 -27.17176,37.0891 -9.65777,16.6448 13.09329,-3.7764 z m 11.26993,16.9093 c 9.90927,-34.9881 -15.2062,32.4955 0,0 z m 28.52343,5.8779 c -3.23075,-17.343 -9.32028,6.2201 0,0 z m 16.29641,-14.803 c 24.11346,-34.3374 -33.83046,-41.0426 -16.24566,-1.8426 l 7.92749,5.4428 z m 22.07812,-8.4924 c -24.38418,-90.0292 -16.13445,2.5273 0,0 z m -45.39621,-7.5076 c 36.46446,-37.6288 1.29519,-20.6342 -4.59968,4.746 z m 29.70793,-55.7984 c -4.34477,-32.44659 -52.65904,83.5335 -8.47393,21.6809 8.08213,-6.3308 12.12809,-11.2355 8.47393,-21.6809 z m -1.2472,20.2621 c 7.60972,-12.7905 -22.48026,21.1709 0,0 z m 16.10092,-17.59 c -8.26427,-35.59152 -10.38078,-9.0179 -2.5529,2.1263 z m -16.0372,-21.16217 c 5.06946,-11.08064 -8.99094,7.27692 0,0 z M 792.77925,386.59368 c 43.07828,-1.72926 125.01944,-15.97392 45.22302,-35.89752 -86.66186,-2.32931 -173.84729,-11.95912 -260.01944,0.36626 -36.13958,-2.31141 -134.12966,39.6979 -118.91361,22.749 81.62594,1.15807 162.81706,-0.8954 244.14564,6.53291 29.55641,4.37201 59.49601,11.78722 89.56439,6.24935 z M 1022.135,1799.8666 c -9.6577,-38.8502 26.1193,23.0556 0,0 z m 80.8376,-7.4006 c -30.0492,-4.8233 7.9397,-24.0925 2.3321,-45.1752 1.6378,10.0401 20.9169,54.2113 -2.3321,45.1752 z m -32.0158,-6.7207 c -25.19,-48.3858 33.7122,12.3142 0,0 z M 46.779246,1097.5422 c 14.122336,-35.5334 71.338334,-113.56512 8.523687,-46.6084 -11.770333,14.0499 -5.994795,58.62 -21.010715,31.3865 -13.544869,-21.3762 11.925254,-100.92602 19.894427,-112.01472 -2.361993,38.86742 41.968712,-55.4575 68.386425,-64.9498 12.19197,-16.3146 82.23333,-82.634 69.88361,-61.7555 -53.87818,49.7252 -121.274917,98.3133 -140.721735,173.41032 -18.598024,79.5067 53.646815,-27.94352 71.710975,-45.22952 16.75182,-33.8606 131.72749,-105.475 53.51708,-39.0956 -64.61477,35.4841 -90.485454,109.92782 -129.590534,166.53072 z M 175.61352,929.97948 c 59.37399,-47.8904 -52.9136,33.7811 -18.1676,12.1443 l 9.46173,-6.6145 z" />
    <path
       d="m 829.96292,2027.9418 c -65.95755,-12.9019 -131.8902,-23.7635 -199.45842,-20.1829 -56.41876,-12.2164 -130.55964,19.7106 -175.79688,-4.4394 32.88103,-31.2737 66.27014,-91.5832 80.16143,-114.504 20.2009,23.8673 35.26443,52.5198 -2.33247,19.644 -12.4871,34.8979 119.15863,61.8337 47.54889,15.5131 -32.5886,-13.5738 -72.40664,-124.6223 -18.31619,-54.8201 28.16093,26.6931 55.78153,19.062 14.31163,-6.8753 -36.65667,-19.8619 -57.74072,-84.8443 -8.47584,-28.2274 20.1674,24.9517 76.0004,16.928 18.26207,-3.2208 -41.76861,-11.2015 -72.28356,-113.2324 -10.12111,-45.5485 26.32537,29.3442 56.33982,17.244 13.06547,-6.6461 -39.49477,-15.9676 -86.00854,-92.1044 -10.92071,-52.5947 39.41887,4.6951 41.41896,71.3202 70.85176,37.2064 43.83103,14.8769 103.81897,-7.1043 144.54443,-19.3264 23.07324,32.5865 68.08115,-58.2569 62.38371,13.1852 0.0845,89.9536 21.02707,185.0122 80.11122,254.455 -32.0772,9.1715 -71.57161,16.3532 -105.81899,16.3819 z m -284.09255,-30.7483 c -5.69063,-15.0261 -93.14396,-40.8537 -39.63197,-3.6103 12.25998,5.5061 26.57847,7.3665 39.63197,3.6103 z m 15.88863,-12.4488 c -1.26611,-13.6143 37.30937,-10.8401 -9.66168,-29.6342 -45.27369,-76.8094 -59.13314,47.0084 9.66168,29.6342 z"
       style="fill:#e9afaf;stroke-width:1.69481"
       id="path110" />
    <path
       d="m 662.42441,1734.9633 c 0.6282,-44.7909 -22.48433,-57.9502 -22.38238,-5.8293 -24.77361,3.8116 -19.55977,-53.9719 -52.08815,-47.195 -8.2425,-49.4286 -47.72882,-0.6972 -73.68867,-39.3628 -21.94034,-9.0817 -35.63213,-14.6969 -37.40305,-5.047 -2.08243,-57.22 -0.37306,-111.1913 14.99017,-155.3003 35.20891,-11.2446 75.38624,-64.5249 107.18514,-34.5183 14.88917,-29.0696 36.62218,-31.1235 46.83524,-1.7136 32.14868,12.377 71.45132,12.6049 75.5165,-12.99 14.02541,73.5304 59.00398,-46.4254 87.28603,-8.7502 23.13393,-40.5395 6.69159,-21.4081 29.82259,-1.1051 29.05892,-12.6311 35.13819,-55.6868 41.83496,0.6937 7.42741,25.422 13.98028,137.2444 -23.61136,73.8618 -12.80611,53.6892 -100.35626,4.7018 -143.14457,30.6024 -51.69848,-5.8825 -143.45583,17.9796 -168.22054,2.1752 19.37246,-31.2032 -82.38386,60.6808 -16.48811,34.5907 86.24001,1.5763 173.6435,43.3125 260.06092,9.675 34.97325,-7.756 107.52915,-75.305 79.44299,5.9874 -0.52796,46.3232 31.65864,-67.2051 20.06211,-5.6421 -13.06111,43.7056 17.16095,5.0406 14.22719,10.584 -16.8992,69.5205 73.87045,-50.5734 31.37024,-77.4376 -10.76446,-20.3799 -7.73058,-93.5353 -26.02368,-64.6152 3.10516,-33.8841 0.4367,-66.0135 -9.9215,-53.2207 -4.54341,-75.5592 -56.28022,42.8102 -53.44323,10.3098 -0.0229,-73.2718 -45.22695,18.7509 -38.84594,2.2864 -11.91632,-43.9187 -68.2089,74.5262 -75.16577,12.5636 -29.75297,0.9648 -20.51859,50.6193 -62.00673,23.1543 3.54537,-43.027 -25.37355,22.0154 -29.82134,-35.0563 -18.84987,2.1753 -27.30496,-25.4729 -34.95313,19.4059 -6.40866,-64.3683 -23.34688,42.6914 -28.36612,-21.967 -10.62601,-17.4437 -13.55256,20.5608 -23.62332,-17.8459 -17.44378,17.9015 -3.31934,40.0024 -22.6429,7.196 -6.58292,27.6135 -44.24679,29.6983 -26.82937,72.7037 -45.02594,-50.4669 -6.49998,36.5162 -40.48899,19.96 8.4194,40.1542 -33.09245,56.1556 -10.57066,109.8628 35.75058,51.5836 -49.31666,25.4549 -29.37494,20.7665 28.9385,-10.7575 -93.86238,-138.7732 -48.88113,-48.4221 -66.08304,-58.317 -70.3517,-150.855 -84.96224,-231.4922 4.40787,-23.2813 61.28891,-63.9266 19.27547,-60.6594 -9.81787,-64.7276 80.64071,81.6554 60.93733,63.9705 17.72183,37.2243 82.90753,58.5717 25.56833,11.1925 -27.41486,-23.1717 -70.878,-106.4526 -72.58055,-118.8261 25.1737,39.8915 49.48307,118.7547 106.93231,105.166 -43.60567,-9.3532 -101.45665,-104.1994 -93.71013,-116.6393 17.13918,23.5239 62.82685,80.0623 82.69937,67.1503 -65.42229,-55.0526 -106.60452,-132.748 -135.92155,-211.7347 31.0381,34.3097 59.46518,139.4577 103.58751,125.1305 -8.10458,-28.8518 -92.53788,-93.9826 -55.42354,-98.3992 58.97323,27.4354 131.41006,48.64 190.29269,12.1457 66.80094,-46.1653 -55.5712,-123.5639 -107.53666,-76.3061 -36.53832,6.9007 -109.16126,67.5348 -120.83344,5.3263 -22.5482,-51.60628 -46.44286,-94.59027 28.85385,-75.59472 40.85355,15.14383 42.98778,-35.72823 87.16009,-7.45387 -2.61447,-40.34345 69.45284,2.04501 92.91038,7.1454 47.09642,22.26681 84.12946,68.12459 101.77521,116.17519 9.03275,53.3255 8.54714,110.1724 19.99784,161.5334 10.98255,-66.6386 7.32181,-153.0847 -31.77256,-213.6091 -33.25619,-48.37219 -82.37907,-108.30386 -90.43093,-158.91088 96.97251,5.94978 176.2875,-66.24763 272.12926,-70.71018 93.32365,-14.83892 187.48925,-23.60842 281.68655,-30.2204 42.1073,-45.98191 36.8322,70.00618 54.1068,9.72009 -22.009,31.73937 -17.0573,119.37283 -17.2921,115.30599 -28.9295,-14.33743 -34.9686,-33.2425 -66.7478,-12.7591 8.5008,-46.9836 -36.33668,32.4433 -30.89775,-16.42657 -38.07576,48.18679 -6.62672,-45.98206 -39.69153,6.43333 -39.44468,65.77701 13.84172,-72.21893 -29.19915,-6.37488 -9.77098,24.49972 -36.82447,61.70566 -18.2859,8.40084 19.15335,-26.43882 16.95625,-73.61826 -7.61237,-22.02526 -9.7621,22.92966 -26.43379,65.40841 -12.04737,13.80564 13.20601,-29.80191 15.37461,-72.39051 -8.41786,-21.00111 -5.62862,13.60282 -10.36348,-23.16329 -28.65912,18.29421 -12.62251,-32.80005 -60.89164,83.80135 -67.64616,116.9963 -41.86475,70.51258 -60.4044,156.26478 -36.9392,236.48498 3.42785,58.3295 143.49147,23.2022 124.88758,67.3717 -61.67103,21.2783 -128.24694,10.1545 -152.31953,91.3567 -16.55304,34.6292 -71.97377,-35.5953 -73.27402,-60.157 -30.90269,-54.353 -96.36737,60.9018 -120.56564,-23.1401 12.31904,-22.7473 145.12442,-25.0151 73.51788,-38.4453 -60.35109,-4.8759 -139.58167,56.8665 -46.54533,86.5472 58.51783,-7.0486 115.28279,43.003 153.43654,61.6558 41.55418,-67.1244 118.84448,-69.1222 178.55739,-109.4277 23.67877,-80.4825 -148.65279,-10.5356 -121.7577,-104.0684 1.95412,-17.95 -7.02761,-63.6538 -11.65872,-20.2106 -3.41795,-17.077 -7.46662,-102.2694 3.40423,-43.7351 7.02137,-66.4997 19.69199,-147.19048 89.89318,-175.82861 59.44691,-35.25821 130.33003,-45.62206 200.97455,-52.00595 37.6826,16.76991 79.2728,-0.11463 76.3146,56.75204 11.1871,-18.23199 14.1081,26.52423 19.6789,-20.51888 8.4421,48.32208 -6.8234,134.4241 -18.8972,193.9028 -8.9747,28.1625 -7.8377,83.2913 4.7327,22.8075 9.4257,-28.0099 22.9749,-161.79679 24.3907,-72.0187 3.0762,60.4723 -29.3186,78.6494 -30.4441,139.6137 -16.1698,79.8444 -21.0158,160.5083 -60.0988,234.1176 -24.3935,65.7933 -69.37267,120.8672 -115.08966,172.8082 -22.57333,46.0695 -82.64853,-2.226 -88.27395,63.7079 -45.2588,55.0894 -132.50808,54.1013 -192.81693,47.3221 z m 99.43454,-106.2886 c -25.80861,-49.5299 -188.97402,8.237 -73.16964,-4.3856 24.71492,-11.2944 52.89571,15.0702 73.16964,4.3856 z m 89.89372,-27.4601 c 52.24523,-19.7336 -42.88644,1.0959 0,0 z m -310.71672,-82.143 c 14.9257,-26.2085 5.15465,16.4806 -3.88768,3.8656 z m 151.64724,-275.631 c 72.02398,-4.0387 -33.42797,-43.374 -22.45626,2.7684 l 8.51908,-1.1991 z m -185.2319,-39.7975 c 34.55449,-47.0148 -39.97224,33.9187 0,0 z m 361.1567,-17.8842 c -24.8805,-42.6771 14.65842,-10.7101 41.66323,-27.6576 33.61408,13.145 76.12927,-2.185 18.2661,-5.9031 -35.81461,2.2839 -126.51152,-61.3892 -84.85672,17.2242 3.31543,3.8298 29.57349,46.7642 24.92739,16.3365 z m -360.37071,-18.5316 c 32.99198,-7.672 41.3942,-56.4004 -7.02954,-22.4443 -34.00208,16.4742 -58.78382,41.8887 -5.82304,12.516 84.62817,-62.6369 -46.86344,59.2461 12.85258,9.9283 z m 13.26995,10.1606 c -4.34406,-6.2773 -6.51529,6.0762 0,0 z m 426.95709,-56.8514 c 50.02747,-1.9682 145.28158,-60.9801 54.14118,-88.2331 -62.07265,-44.2676 -174.49932,-7.839 -182.19544,61.1539 39.41724,18.6137 83.53416,36.8476 128.05426,27.0792 z M 379.14306,1014.188 c 50.03796,-41.84361 115.39612,4.91 152.93664,13.4518 -49.97542,-63.58268 -147.26012,-39.09565 -199.91209,7.8607 16.39672,-5.4056 30.96638,-14.9449 46.97545,-21.3125 z m 685.79084,9.8063 c -47.0208,-49.94036 -142.74038,-58.9997 -204.47041,-27.14013 -45.85327,46.96013 47.62519,-33.9345 79.40945,-9.82735 44.07691,0.85198 85.44326,31.69448 125.06096,36.96748 z"
       style="fill:#e9afaf;stroke-width:1.69481"
       id="path112" />
    <path
       d="m 1132.4838,1310.8543 c -13.6869,-98.309 34.5182,-191.609 55.5447,-285.6228 4.7277,-32.92596 9.4474,-74.51343 -30.2174,-52.40839 -18.4907,-45.61852 43.0108,-88.09434 47.785,-22.77298 -0.5962,71.54347 -38.699,137.65487 -31.579,210.38957 -4.9836,44.7994 6.6206,146.0249 -41.5333,150.4146 z"
       style="fill:#e9afaf;stroke-width:1.69481"
       id="path114" />
    <path
       d="m 244.50237,1309.2786 c -34.83408,-65.6457 22.97803,-142.4645 -3.92855,-212.7329 -3.74249,-48.8637 -60.69275,-158.20806 -2.19396,-170.58633 21.62701,62.41238 -19.66706,137.22703 20.93224,202.01123 -0.54871,48.3845 41.76574,173.868 -14.80973,181.308 z"
       style="fill:#e9afaf;stroke-width:1.69481"
       id="path116" />
    <path
       d="m 1158.8945,1062.8168 c -12.3997,-30.253 22.7108,-130.00131 20.3162,-47.6371 3.5363,16.2177 -26.4481,116.8408 -20.3162,47.6371 z"
       style="fill:#e9afaf;stroke-width:1.69481"
       id="path118" />
    <path
       d="m 285.95075,942.5013 c -50.6911,-22.888 19.6226,-100.10054 68.18112,-80.33678 35.97199,-33.48438 101.94971,41.94825 69.03497,34.20499 -17.50197,-29.91396 -57.28233,-31.62798 -20.52461,5.2978 39.89192,49.56216 -86.28346,-68.86465 -41.92376,2.64012 50.49713,66.06556 -73.72764,-71.41883 -44.92862,6.61648 49.36524,57.47772 -77.12078,-17.59983 -24.77265,30.88794 25.46681,9.54318 -6.78607,6.59858 -5.06645,0.68945 z"
       style="fill:#e9afaf;stroke-width:1.69481"
       id="path120" />
    <path
       d="m 434.29415,754.79296 c 12.60527,-28.41377 -58.52441,-100.61527 -1.11665,-51.92214 51.17339,36.89984 -50.64972,-94.09352 10.397,-45.19315 33.56625,-5.59813 -37.02097,-77.65751 -29.88427,-111.43656 -9.11179,-32.39705 -9.52024,-110.48043 1.95144,-35.36879 6.83336,30.26033 21.08401,101.63519 54.57925,94.25923 -17.14958,-29.00462 -64.65228,-94.96453 1.19746,-48.01633 55.393,28.62285 116.19449,53.63102 179.74194,50.54847 -69.51566,-26.7352 -160.43011,-28.63333 -206.36826,-94.75322 -3.34609,-37.38297 -27.70559,-100.76371 -8.94981,-126.39619 -6.51046,37.92815 29.44957,114.87021 54.97493,97.67448 -59.31393,-38.03794 -54.90373,-133.68896 31.34652,-100.74238 85.75811,-5.55409 170.83504,9.24555 255.88142,14.85126 61.34976,-7.6412 151.25037,-54.84579 186.22397,23.97157 31.96312,62.64596 60.69321,127.1819 109.06301,179.36349 17.5966,28.23701 86.6047,140.39428 4.2852,101.94621 -89.51355,-8.116 -179.6024,3.92208 -268.94664,9.38435 -62.57514,6.1333 -121.86269,31.33426 -182.92677,42.18328 -63.69609,-0.63366 -128.95522,-3.1844 -191.44974,-0.35358 z m 143.98926,-41.17414 c 40.20303,2.87072 96.46376,-25.58411 38.59229,-8.06886 -23.84836,-0.20328 -151.3829,-7.64982 -71.37386,12.25805 10.98988,-0.87295 21.89125,-2.52817 32.78157,-4.18919 z M 802.84593,557.22807 C 732.69806,536.69119 654.63958,538.25783 592.65259,493.77102 568.27025,479.53304 479.39333,419.58754 537.18781,472.63958 c 71.89116,60.49356 173.56098,85.29877 265.65812,84.58849 z m 89.82501,-27.2582 c -47.03274,-6.56912 -107.38853,-40.72001 -140.45532,-57.74903 31.39877,32.15207 97.7723,58.07267 140.45532,57.74903 z"
       style="fill:#483737;stroke-width:1.69481"
       id="path122" />
    <path
       d="M 748.61197,386.46448 C 661.1888,371.06351 572.11879,375.43251 483.76465,373.19981 600.58844,334.73167 726.05242,344.8086 846.56584,354.32498 c 82.94572,26.32245 -94.21907,36.29324 -97.95387,32.1395 z"
       style="fill:#483737;stroke-width:1.69481"
       id="path124" />
    <path
       style="fill:#483737;stroke-width:1.69481"
       d="m 503.7117,861.99005 c -4.66073,-0.80244 -14.57537,-1.33142 -22.03254,-1.1755 -12.73206,0.26622 -14.23856,-0.0976 -24.71553,-5.96831 -10.77055,-6.03525 -18.98317,-7.89211 -20.93534,-4.73344 -0.54662,0.88446 -3.59557,0.90134 -7.30297,0.0404 -10.5781,-2.45638 -25.26896,-1.73971 -55.22117,2.69385 -42.92304,6.35352 -59.64849,5.22758 -70.31668,-4.73365 -6.27642,-5.86049 -8.51903,-11.52726 -12.2852,-31.04313 -4.79453,-24.84471 -4.1566,-25.44322 17.333,-16.26185 17.26296,7.37555 31.27949,9.83935 30.80979,5.41569 -0.14845,-1.39822 -2.01356,-6.54087 -4.14467,-11.4281 -4.817,-11.04673 -3.36859,-16.86057 5.28018,-21.19439 10.15293,-5.08755 20.00023,-3.571 62.68985,9.65464 33.72361,10.44788 86.82085,15.05808 128.72632,11.17672 20.71094,-1.91827 45.02479,-6.41759 84.81993,-15.69607 12.66941,-2.95395 23.70124,-3.52164 91.51982,-4.70954 86.24957,-1.51073 95.80583,-2.62297 126.00367,-14.66534 15.73947,-6.27661 22.01256,-7.48313 59.96418,-11.53306 49.09744,-5.23932 106.11876,-8.5939 175.87436,-10.34672 40.4177,-1.01561 43.6981,-0.85628 71.1821,3.45719 63.0789,9.89993 91.1573,18.62868 120.7883,37.54946 6.9069,4.41042 10.7474,5.70296 16.9481,5.70399 15.7639,0.003 43.8224,17.87907 68.2549,43.48623 12.645,13.25285 21.471,24.3049 19.4097,24.3049 -0.598,0 -5.888,-3.95044 -11.7557,-8.77875 -20.5757,-16.93101 -73.006,-46.05049 -110.3949,-61.31264 -37.6132,-15.3537 -71.6724,-23.73379 -107.4874,-26.44674 -19.8077,-1.50041 -53.3501,0.1431 -67.7925,3.3217 -4.1946,0.92319 -25.1679,2.85109 -46.6073,4.28422 -88.94306,5.94544 -165.60099,14.75544 -263.54317,30.288 -44.0544,6.98654 -57.95597,11.04359 -103.32448,30.15433 -49.35085,20.78822 -66.56625,27.13988 -86.4944,31.9123 -34.29499,8.213 -47.84543,9.5802 -65.25025,6.58357 z"
       id="path126" />
    <path
       d="m 470.25216,785.75299 c -24.83188,-5.96728 -111.35389,-17.22115 -39.02868,-24.49547 89.16611,0.34002 181.41057,16.9517 267.39155,-16.05833 104.17748,-32.99202 214.95368,-27.7918 322.59577,-36.58767 36.1058,3.0224 150.4186,18.16111 59.1562,18.58963 -91.81355,5.30827 -185.25278,2.5056 -273.83231,31.13775 -72.60175,13.32752 -147.71921,-2.76897 -219.66747,18.45917 -38.45714,5.93013 -77.61657,12.57067 -116.61506,8.95492 z"
       style="fill:#483737;stroke-width:1.69481"
       id="path128" />
    <path
       d="m 337.35069,647.66812 c 40.68763,-77.77982 43.8676,-170.62544 85.01006,-249.04614 16.56753,57.94485 -38.23277,45.7587 -26.89461,110.67993 -4.68435,33.12632 37.01826,109.11536 17.2515,120.02052 -12.8627,-27.7073 -28.00056,-143.94503 -30.98475,-55.63715 2.82485,28.40299 -18.75724,69.81475 -44.3822,73.98284 z"
       style="fill:#483737;stroke-width:1.69481"
       id="path130" />
    <path
       d="m 182.19224,856.72721 c 14.42826,-19.33446 76.77829,-43.48773 21.71302,-18.44153 -61.44113,45.18334 61.61397,-39.9042 -5.61232,2.34082 -56.9911,42.21698 2.50317,-3.85472 28.8118,-15.2533"
       style="fill:#483737;fill-opacity:1;stroke:#000000;stroke-width:1px;stroke-linecap:butt;stroke-linejoin:miter;stroke-opacity:1"
       id="path132" />
    <path
       d="m 222.86771,887.23382 c -29.39389,26.85849 -60.73511,52.93473 -16.10071,17.79552 48.23591,-40.13149 -14.88939,6.50548 -32.20142,19.49033 -15.34341,14.40201 48.51211,-31.74377 48.30213,-37.28585 z"
       style="fill:none;stroke:#000000;stroke-width:1px;stroke-linecap:butt;stroke-linejoin:miter;stroke-opacity:1"
       id="path140" />
    <path
       d="M 51.183624,1044.3535 C 49.129722,965.31536 121.41771,908.56645 175.3511,860.33458 c 35.51075,-46.47147 56.79806,-3.18201 28.31749,28.23102 -45.37939,40.5487 -117.565877,97.26577 -135.32767,139.3146 42.91017,-42.5664 87.65262,-111.66677 138.8709,-128.85032 -64.44465,33.03731 -98.50585,98.86066 -150.471004,145.61222 z"
       style="fill:#483737;fill-opacity:1;stroke-width:0.847406"
       id="path142" />
    <path
       d="m 699.57971,1579.2467 c -34.82982,-1.6152 -134.01892,-26.3776 -124.33531,-22.0841 86.26777,3.955 174.56808,10.386 259.15674,-9.9718 -40.31206,23.507 -88.19551,34.8607 -134.82143,32.0559 z"
       style="fill:#de8787;fill-opacity:1;stroke-width:0.599206"
       id="path146" />
    <path
       d="m 661.59023,1552.6364 c -34.34736,1.6606 -114.13514,-3.7548 -37.34258,-16.4734 74.19302,12.4248 148.57622,-14.4318 222.27554,-4.3807 -50.72265,28.1489 -125.65488,18.5154 -184.93296,20.8541 z"
       style="fill:#de8787;fill-opacity:1;stroke-width:0.599206"
       id="path148" />
    <path
       d="m 939.30194,1109.3161 c 40.19264,-34.7201 -54.98789,33.3435 -61.48166,-26.6783 -30.90317,-85.25524 103.73377,-41.699 30.03987,-1.7822 -24.8207,-48.1882 31.16412,1.5515 1.31099,-41.4049 -66.39383,60.2231 71.03865,54.6401 23.56496,-6.1677 -11.92873,-33.42422 86.0436,20.0473 103.6164,34.3077 -14.469,30.7399 -82.94178,48.0816 -97.05056,41.7254 z"
       style="fill:#ffffff;fill-opacity:1;stroke-width:1.69481"
       id="path561" />
    <path
       d="m 445.71075,1121.2509 c -1.1507,1.1108 68.73015,-71.2978 3.23438,-84.3424 -57.69066,19.1075 -9.05795,105.6894 7.80048,33.593 -66.58931,16.0788 34.14285,-58.1072 11.68235,9.3525 -20.73664,95.1695 -134.64969,-33.6191 -42.52084,-41.9683 71.26267,-45.28909 144.80335,85.0034 45.43603,84.3259 l -15.30645,-0.3997 z"
       style="fill:#ffffff;fill-opacity:1;stroke-width:1.69481"
       id="path563" />
    <path
       d="m 370.33125,1104.5123 c -39.47663,-6.6056 -69.69257,-33.5868 -13.20777,-43.7877 27.53134,-34.2135 37.13367,71.548 13.20777,43.7877 z"
       style="fill:#ffffff;fill-opacity:1;stroke-width:1.69481"
       id="path565" />
    <path
       d="m 859.15493,1098.9426 c -96.56465,-10.4231 90.38937,-113.18074 12.70899,-48.3637 -25.24621,7.24 3.62631,62.9631 -12.70899,48.3637 z"
       style="fill:#ffffff;fill-opacity:1;stroke-width:1.69481"
       id="path567" />
    <g
       id="g2433"
       transform="matrix(2.2493285,0,0,1.9744291,-1763.5899,5.5007685)">
      <path
         id="path2366"
         d="m 1052.5098,717.96411 c -1.715,-0.8692 -3.5339,-2.4805 -4.0419,-3.5804 -0.508,-1.1 -1.6169,-3.3419 -2.4642,-4.982 -0.8473,-1.64 -1.5405,-4.1546 -1.5405,-5.5879 0,-1.4334 -0.5367,-2.9378 -1.1925,-3.3431 -2.5993,-1.6064 -3.1912,-15.0926 -3.9836,-90.7537 -0.8191,-78.2011 -0.8384,-78.6272 -3.2608,-72 -1.3403,3.6667 -2.9476,7.8667 -3.5718,9.3333 -0.6242,1.4667 -2.3875,6.1656 -3.9184,10.442 -3.988,11.1399 -6.3342,15.2309 -10.1807,17.7512 -3.1617,2.0716 -3.5345,2.0694 -5.6389,-0.034 -1.9705,-1.9695 -2.2345,-5.4681 -2.1035,-27.8724 0.1421,-24.3131 1.0446,-33.8972 4.4841,-47.6203 1.5602,-6.2248 4.1104,-21.7932 6.7707,-41.3333 0.8486,-6.2333 2.095,-14.3333 2.7697,-18 0.6748,-3.6667 1.7111,-11.1667 2.303,-16.6667 1.2478,-11.5944 2.2062,-14.1072 9.1057,-23.8758 3.6998,-5.2382 8.8039,-9.7097 18.6695,-16.3553 12.5695,-8.467 14.3514,-9.2545 23.9959,-10.6062 12.1367,-1.7009 11.6365,-1.6987 23.7633,-0.1041 6.2445,0.8211 13.238,3.0612 21.0788,6.7518 6.4536,3.0377 12.2451,5.523 12.87,5.523 0.6249,0 4.3747,3.1618 8.3329,7.0263 6.368,6.2171 7.4568,8.0979 9.4551,16.3333 1.2422,5.1189 2.2569,10.3652 2.2549,11.6585 0,2.352 2.5183,7.7011 4.2475,9.0097 0.5047,0.382 1.3317,16.882 1.8376,36.6667 0.506,19.7847 1.4431,36.9827 2.0824,38.2179 0.6393,1.2351 1.1624,5.2851 1.1624,9 0,3.7148 0.6,6.7543 1.3333,6.7543 0.7334,0 1.3334,1.1646 1.3334,2.588 0,1.4233 0.6,2.9588 1.3333,3.412 0.7333,0.4532 1.3333,3.296 1.3333,6.3173 0,3.0214 0.7293,7.5101 1.6206,9.975 1.2719,3.5173 1.2719,5.04 0,7.0766 -0.8913,1.4272 -1.6206,4.8131 -1.6206,7.5242 0,4.5961 -3.6878,17.3819 -6.9225,24.0005 -0.7778,1.5914 -1.032,4.9308 -0.5649,7.4208 0.696,3.7098 0.2664,5.0749 -2.3793,7.5604 -4.3609,4.0969 -8.1035,3.2309 -8.2345,-1.9054 -0.056,-2.1832 -0.4807,-4.8694 -0.9444,-5.9694 -0.8704,-2.0646 -1.5265,-9.9712 -3.4854,-42 -1.064,-17.3977 -2.6718,-28.8528 -4.81,-34.2706 -0.7394,-1.8734 -1.3418,-1.9922 -3.4442,-0.6793 -1.9215,1.2 -2.5481,3.1326 -2.5481,7.8586 0,3.447 -0.6,6.6381 -1.3333,7.0913 -1.8397,1.1369 -1.7223,26.4111 0.1312,28.2646 1.4745,1.4745 1.368,3.4849 -1.5396,29.0687 -1.6284,14.3289 -1.8024,22.3654 -0.6204,28.6667 0.7971,4.2495 0.2779,5.3339 -5.8078,12.1312 -7.5569,8.4404 -14.1319,12.3363 -17.646,10.4556 -1.2508,-0.6694 -3.9789,-4.8315 -6.0625,-9.2493 -2.0836,-4.4177 -4.8383,-8.3664 -6.1217,-8.7747 -2.5314,-0.8056 -2.9483,-2.8613 -1.1542,-5.6922 0.6953,-1.0971 0.1204,-4.6268 -1.4777,-9.0709 -1.9816,-5.5109 -2.4003,-8.9548 -1.7268,-14.2039 1.713,-13.3511 2.2281,-43.9264 0.7647,-45.3899 -0.8094,-0.8094 -1.4059,-7.4216 -1.4059,-15.5837 0,-7.7978 -0.3948,-14.5726 -0.8773,-15.0551 -1.7208,-1.7208 -4.456,2.1644 -4.456,6.3294 0,2.3302 -0.5549,4.8068 -1.2332,5.5034 -1.7199,1.7668 -2.8176,17.7607 -3.5184,51.2667 -0.3298,15.7667 -1.1727,29.8667 -1.8732,31.3333 -0.7005,1.4667 -1.6325,9.5667 -2.0712,18 -3.6757,70.6653 -4.3236,77.273 -8.3054,84.713 -3.6997,6.9131 -13.9498,12.0696 -18.952,9.5342 z m 14.1569,-8.3707 c 1.7728,-2.7055 2.3772,-7.4148 2.7811,-21.6667 0.2838,-10.0153 1.0614,-19.4097 1.7281,-20.8764 0.6667,-1.4666 1.5193,-8.0666 1.8947,-14.6666 0.3753,-6.6 1.3248,-19.5 2.1099,-28.6667 0.7851,-9.1667 1.7044,-29.5667 2.0428,-45.3333 0.3385,-15.7667 0.9726,-29.5667 1.4092,-30.6667 0.4366,-1.1 0.6887,-5.9909 0.5603,-10.8687 -0.1338,-5.0852 0.3718,-9.2426 1.1852,-9.7453 0.7802,-0.4822 1.4185,-2.7591 1.4185,-5.0597 0,-4.5166 5.546,-13.6327 9.6202,-15.8132 2.8858,-1.5444 7.6572,-0.3814 7.8364,1.9101 1.4792,18.9117 1.8705,69.8778 0.5789,75.397 -0.7747,3.3109 -0.2437,6.9011 2.0262,13.6978 2.2634,6.7775 2.6831,9.6039 1.5884,10.6985 -1.0946,1.0946 -0.8125,2.0551 1.0678,3.6356 1.4054,1.1813 4.2923,5.4479 6.4152,9.4812 4.8684,9.2493 7.5985,9.8444 14.095,3.0728 3.8644,-4.0281 4.6934,-5.7593 4.0253,-8.4061 -1.7535,-6.9464 -2.1461,-16.4276 -0.7936,-19.1603 0.7731,-1.5619 1.75,-7.9397 2.1709,-14.173 1.0123,-14.9891 1.0119,-15.2583 -0.052,-35.4828 -0.6426,-12.2184 -0.4768,-17.7563 0.5507,-18.3913 0.9197,-0.5684 1.1702,-3.0977 0.669,-6.7545 -0.7327,-5.3451 -0.3675,-6.3752 4.2635,-12.0267 2.7856,-3.3995 6.772,-7.0637 8.8586,-8.1428 4.2039,-2.1739 4.2622,-2.1104 5.622,6.1314 0.4235,2.5667 1.3485,7.3667 2.0556,10.6667 0.7071,3.3 1.3118,13.83 1.3437,23.4 0.035,10.482 0.6242,17.9661 1.4821,18.824 0.7832,0.7832 1.4419,6.0041 1.4639,11.602 0.041,10.4782 1.686,14.4658 3.2568,7.8952 0.4893,-2.0467 1.474,-4.4636 2.1883,-5.3709 0.7143,-0.9074 0.9577,-2.5381 0.541,-3.624 -0.4166,-1.0859 -0.1838,-2.3289 0.5175,-2.7623 0.7014,-0.4335 1.2752,-3.7173 1.2752,-7.2974 0,-3.5801 0.6,-6.8801 1.3333,-7.3333 0.7333,-0.4532 1.3333,-2.5532 1.3333,-4.6667 0,-2.1134 -0.6,-4.2134 -1.3333,-4.6666 -0.7333,-0.4533 -1.3333,-3.5281 -1.3333,-6.8331 0,-3.3049 -0.691,-7.3001 -1.5356,-8.8781 -2.4407,-4.5604 -4.056,-18.6645 -4.6845,-40.9008 -0.3204,-11.3366 -1.1991,-21.3548 -1.9526,-22.2627 -0.7535,-0.908 -1.2565,-3.0326 -1.1178,-4.7214 0.1388,-1.6888 0.1859,-6.9015 0.1047,-11.5838 l -0.1476,-8.5131 -2.4729,3.1798 c -1.3602,1.7489 -5.3098,7.3402 -8.7769,12.425 -6.262,9.1839 -14.6599,16.4707 -23.2173,20.1455 -2.4569,1.0551 -7.3172,4.3046 -10.8006,7.221 -7.5496,6.321 -11.6861,8.0584 -19.1524,8.0448 -6.2634,-0.012 -20.5926,-4.0135 -24.7193,-6.9039 -6.3268,-4.4315 -25.4122,-22.7766 -28.8368,-27.7182 -2.0459,-2.9523 -4.2141,-5.3677 -4.8183,-5.3677 -1.4294,0 -3.2809,7.3817 -5.1836,20.6667 -0.8402,5.8666 -2.1393,13.6666 -2.8869,17.3333 -0.7475,3.6667 -1.8708,12.6667 -2.4961,20 -0.6253,7.3333 -1.7045,18.4333 -2.3982,24.6667 -2.3908,21.4827 -2.9842,34.6666 -1.5602,34.6666 1.6899,0 5.0235,-7.3717 9.9487,-22 2.3995,-7.1269 4.297,-11.9213 6.1931,-15.6486 0.6477,-1.2733 1.1777,-3.17 1.1777,-4.2148 0,-2.5585 8.0939,-9.2427 9.4952,-7.8414 0.6117,0.6117 1.3505,38.5955 1.642,84.4085 0.5161,81.1252 0.7608,89.6388 2.631,91.5089 0.4942,0.4942 0.8985,2.5631 0.8985,4.5976 0,2.0345 0.6,4.0699 1.3333,4.5231 0.7334,0.4533 1.3334,1.7725 1.3334,2.9317 0,5.9989 10.6467,7.7065 14.2035,2.2781 z m 43.4891,-229.4508 c 3.2326,-2.9796 9.7241,-7.309 14.4257,-9.6209 6.1889,-3.0433 9.7935,-5.9221 13.0599,-10.4305 l 4.5115,-6.2271 -6.5115,4.9998 c -3.5814,2.7499 -8.4205,5.8577 -10.7537,6.9063 -2.3332,1.0485 -4.6564,2.5766 -5.1627,3.3957 -1.0094,1.6334 -19.649,10.4853 -27.6144,13.1141 -7.2162,2.3815 -4.7661,4.5051 4.4303,3.8399 6.8284,-0.494 8.4282,-1.1963 13.6149,-5.9773 z m -23.3593,-1.3806 c -2.0167,-0.3055 -5.3167,-0.3055 -7.3333,0 -2.0167,0.3055 -0.3667,0.5554 3.6666,0.5554 4.0334,0 5.6834,-0.2499 3.6667,-0.5554 z m 19.1888,-9.6653 c 2.638,-2.1744 8.0806,-5.1824 12.0948,-6.6842 10.513,-3.9334 17.5493,-13.3568 18.9377,-25.3622 0.3817,-3.3 1.0745,-8.5336 1.5395,-11.6302 0.6413,-4.2693 0.1681,-7.03 -1.9576,-11.421 -1.5418,-3.1849 -2.8032,-6.3884 -2.8032,-7.119 0,-1.8739 -5.9969,-6.0838 -16.7596,-11.7655 -5.0822,-2.6829 -11.7921,-6.3909 -14.9108,-8.2398 -7.7908,-4.6188 -15.625,-4.7921 -21.6723,-0.4793 l -4.6573,3.3215 6,0.4175 c 6.8522,0.4768 9.3396,2.1096 6.9121,4.5371 -1.0764,1.0763 -5.1926,1.4859 -12.2467,1.2186 l -10.6255,-0.4026 -9.9859,6.3258 c -5.4922,3.4792 -11.1184,7.5808 -12.5027,9.1147 -3.1418,3.4815 -5.5513,13.1416 -5.5513,22.2562 0,6.1251 0.6747,7.8381 5.6667,14.3864 6.8859,9.0328 10.7316,12.4659 22.1773,19.798 l 8.8227,5.6517 13.3628,0.015 c 12.8557,0.014 13.545,-0.1351 18.1593,-3.9386 z m 7.1874,0.6883 c 2.5431,-1.0626 4.6238,-2.2706 4.6238,-2.6845 0,-0.7449 -9.2843,2.7896 -10.4871,3.9924 -1.1635,1.1636 1.2217,0.6315 5.8633,-1.3079 z m 24.9571,-16.4901 c 2.0167,-1.8756 3.6667,-4.2479 3.6667,-5.2718 0,-2.7318 -1.3274,-1.7675 -8.6924,6.3148 -5.4138,5.9409 -5.9018,6.8329 -2.6409,4.8274 2.2,-1.3531 5.65,-3.9948 7.6666,-5.8704 z m 4.9796,-11.9899 c -0.018,-1.9431 -0.199,-1.9783 -1.3129,-0.2547 -1.6875,2.6112 -1.6875,4.3763 0,3.3334 0.7333,-0.4533 1.3241,-1.8387 1.3129,-3.0787 z m 4.9312,0.8287 c -0.4256,-1.0637 -0.7415,-0.7478 -0.8055,0.8055 -0.058,1.4056 0.2572,2.1931 0.7003,1.75 0.443,-0.4431 0.4904,-1.5931 0.1052,-2.5555 z m -94.2441,-46.6406 c 3.3,-1.8792 8.1,-3.8087 10.6667,-4.2877 2.5666,-0.4791 7.6666,-2.795 11.3333,-5.1465 6.0088,-3.8536 6.3507,-4.3234 3.4651,-4.7612 -6.4228,-0.9743 -32.1318,8.3604 -32.1318,11.6668 0,0.6614 -2.1,3.1833 -4.6666,5.6042 -2.5667,2.421 -4.6667,5.4343 -4.6667,6.6963 0,1.262 -0.6,2.6654 -1.3333,3.1187 -0.7334,0.4532 -1.3334,1.4077 -1.3334,2.121 0,0.7134 2.85,-1.6036 6.3334,-5.1488 3.4833,-3.5453 9.0333,-7.9835 12.3333,-9.8628 z m -10,12.2239 c 1.3273,-1.4667 2.1133,-2.6667 1.7466,-2.6667 -0.3666,0 -1.7526,1.2 -3.0799,2.6667 -1.3274,1.4667 -2.1133,2.6667 -1.7467,2.6667 0.3667,0 1.7527,-1.2 3.08,-2.6667 z m 99.3333,-4 c 0,-0.7333 -0.6354,-1.3333 -1.412,-1.3333 -0.7766,0 -1.0412,0.6 -0.588,1.3333 0.4533,0.7333 1.0887,1.3333 1.4121,1.3333 0.3233,0 0.5879,-0.6 0.5879,-1.3333 z m -89.6197,-3.3333 c 2.698,-1.8334 4.4343,-3.3334 3.8585,-3.3334 -0.5758,0 -3.2544,1.5 -5.9524,3.3334 -2.6979,1.8333 -4.4343,3.3333 -3.8585,3.3333 0.5758,0 3.2544,-1.5 5.9524,-3.3333 z"
         style="fill:#000000;stroke-width:1.33333" />
      <path
         transform="translate(1010.5848,371.59135)"
         id="path2388"
         d="M 57.451533,96.754184 C 45.413203,89.035181 39.267215,83.672178 33.023235,75.438008 27.404803,68.02877 26.400878,62.35168 28.721946,51.11467 30.878819,40.672578 33.044031,38.278796 49.736018,27.882244 l 5.818113,-3.623793 9.142417,0.352193 c 10.088707,0.388647 14.454047,-0.429334 14.454047,-2.70841 0,-2.179035 -1.95108,-3.11606 -7.282576,-3.497526 -5.826465,-0.416882 -5.815792,-0.917464 0.08807,-4.13075 3.35918,-1.828295 4.249929,-1.995085 9.019968,-1.688962 4.927562,0.316231 5.961824,0.706623 14.991285,5.658601 13.135088,7.203603 22.429988,12.625495 24.450538,14.262448 2.18391,1.769306 7.41466,14.71911 7.37147,18.249587 -0.0182,1.492944 -0.63117,6.727059 -1.36201,11.631367 -2.30612,15.475364 -6.98895,22.205165 -19.64634,28.234219 -3.80966,1.814644 -8.536742,4.454277 -10.504618,5.865851 -5.988842,4.295841 -7.183535,4.565301 -20.241647,4.565301 H 64.15485 Z"
         style="fill:#800000;stroke-width:0.726447" />
      <path
         transform="translate(1010.5848,371.59135)"
         id="path2390"
         d="m 79.831116,114.34123 c -0.679846,-0.12325 -1.53885,-0.42248 -1.908899,-0.66494 l -0.672817,-0.44085 0.771035,-0.68892 c 0.433265,-0.38712 2.113359,-1.17718 3.835183,-1.80348 10.214465,-3.71544 24.710192,-10.70083 27.720582,-13.358346 0.97794,-0.863306 2.81092,-2.052887 4.54376,-2.948833 3.75438,-1.941173 7.6226,-4.462662 12.34333,-8.045963 2.0836,-1.581568 3.78836,-2.802696 3.78836,-2.713617 0,0.477152 -4.7732,6.637861 -6.46109,8.33924 -2.42341,2.442788 -4.6013,3.927765 -10.15592,6.92473 -5.00162,2.698599 -9.81265,5.851769 -12.91934,8.467409 -1.200721,1.01093 -2.934376,2.46953 -3.852572,3.24133 -2.198826,1.84827 -4.259675,2.82238 -6.934623,3.27783 -2.774542,0.4724 -8.484476,0.70676 -10.096989,0.41441 z"
         style="fill:#800000;stroke-width:0.256838" />
      <path
         transform="translate(1010.5848,371.59135)"
         id="path2392"
         d="m 24.691285,38.577393 c 0,-0.136545 0.509022,-0.821396 1.13116,-1.52189 0.622138,-0.700495 1.200023,-1.628969 1.284189,-2.063277 0.08417,-0.434307 0.218767,-1.130761 0.299112,-1.547674 0.258035,-1.338943 2.015043,-3.690945 5.367231,-7.184795 2.040439,-2.126666 3.460038,-3.837263 3.774558,-4.548288 0.613345,-1.386567 1.98446,-2.435321 5.351887,-4.093611 5.082922,-2.503085 11.565392,-4.842027 18.23549,-6.579552 3.320217,-0.8649 4.428606,-1.0428263 6.677784,-1.071968 1.483239,-0.019218 2.914789,0.054151 3.181225,0.163042 0.474678,0.193998 0.474678,0.20885 0,0.737903 -0.855342,0.953324 -6.561465,4.588877 -9.397122,5.987207 -1.511725,0.745465 -3.765477,1.667317 -5.008339,2.048558 -7.625148,2.338969 -10.368876,3.48674 -14.002777,5.857719 -3.11831,2.034576 -7.069646,5.286386 -10.857469,8.935312 -3.260611,3.141048 -5.536466,5.129579 -5.870753,5.129579 -0.0914,0 -0.166176,-0.111719 -0.166176,-0.248265 z"
         style="fill:#800000;stroke-width:0.256838" />
      <path
         transform="translate(1010.5848,371.59135)"
         id="path2394"
         d="m 118.65236,87.426427 c 0.9254,-1.299606 8.64855,-9.669312 10.06703,-10.909811 1.69085,-1.478689 2.30278,-1.577364 2.30278,-0.371331 0,1.605734 -1.93765,4.088925 -5.52202,7.076724 -2.29633,1.914144 -6.63737,4.916521 -7.10864,4.916521 -0.13542,0 -0.018,-0.320446 0.26085,-0.712103 z"
         style="fill:#800000;stroke-width:0.256838" />
      <path
         transform="translate(1010.5848,371.59135)"
         id="path2396"
         d="m 96.7557,99.661624 c 0.410354,-0.663966 8.75572,-4.092912 9.89735,-4.066627 1.08183,0.02491 -3.29729,2.233178 -7.067185,3.563787 -2.399286,0.846846 -3.122145,0.975276 -2.830165,0.50284 z"
         style="fill:#800000;stroke-width:0.256838" />
      <path
         transform="translate(1010.5848,371.59135)"
         id="path2398"
         d="m 130.14147,72.75776 c -0.20722,-0.335278 0.34841,-1.779221 1.24673,-3.239976 l 0.78974,-1.284189 0.084,0.881678 c 0.13082,1.373336 -0.18937,2.585946 -0.85984,3.256424 -0.64616,0.646154 -1.02766,0.762989 -1.26061,0.386063 z"
         style="fill:#800000;stroke-width:0.256838" />
      <path
         transform="translate(1010.5848,371.59135)"
         id="path2400"
         d="m 130.37096,72.021954 c 0.0962,-0.388468 0.51074,-1.28419 0.92111,-1.990494 l 0.74612,-1.284189 0.005,1.15577 c 0.005,1.298653 -0.76742,2.825217 -1.43005,2.825217 -0.32597,0 -0.37871,-0.154019 -0.24188,-0.706304 z"
         style="fill:#800000;stroke-width:0.256838" />
      <path
         transform="translate(1010.5848,371.59135)"
         id="path2402"
         d="m 131.174,32.642532 c -0.74308,-0.883096 -0.84778,-1.468189 -0.30032,-1.678268 0.71607,-0.274783 1.43268,0.37841 1.43268,1.305907 0,1.196684 -0.34365,1.309689 -1.13236,0.372361 z"
         style="fill:#800000;stroke-width:0.256838" />
      <path
         transform="translate(1010.5848,371.59135)"
         id="path2404"
         d=""
         style="fill:#800000;stroke-width:0.256838" />
      <path
         transform="translate(1010.5848,371.59135)"
         id="path2406"
         d="m 38.175273,30.976075 c 2.120457,-1.760316 7.98245,-5.442704 8.245497,-5.179658 0.246076,0.246076 -5.356637,4.17789 -7.542173,5.292868 -1.403948,0.71624 -1.653989,0.675993 -0.703324,-0.11321 z"
         style="fill:#800000;stroke-width:0.256838" />
      <path
         transform="translate(1010.5848,371.59135)"
         id="path2408"
         d="m 45.245297,340.03677 c -2.100678,-1.10045 -3.261338,-2.76112 -3.261338,-4.66629 0,-0.7113 -0.400692,-1.64041 -1.07147,-2.48447 -0.652147,-0.82062 -1.143519,-1.94182 -1.255571,-2.86493 -0.101255,-0.83416 -0.279552,-2.38251 -0.396215,-3.44077 -0.116663,-1.05827 -0.52667,-2.52932 -0.911127,-3.26901 -0.390987,-0.75226 -0.864588,-2.78542 -1.074758,-4.61391 -0.555959,-4.83688 -1.043777,-33.38818 -1.473907,-86.26561 -0.375625,-46.17714 -0.826961,-74.39565 -1.303415,-81.49238 l -0.240412,-3.5809 -1.211447,0.19659 c -2.668893,0.4331 -7.842921,5.05732 -8.508925,7.60474 -0.221416,0.8469 -0.538763,2.03018 -0.705214,2.6295 -0.166451,0.59932 -1.197013,3.1328 -2.290139,5.62996 -1.093124,2.49716 -3.175094,7.97276 -4.6266,12.16799 -4.47135,12.92338 -8.2648511,21.61181 -9.4360461,21.61181 -1.3466397,0 -0.8722271,-12.0137 1.2765665,-32.3269 0.4966163,-4.69467 1.4717786,-14.50171 2.1670266,-21.79342 1.448948,-15.19647 1.956011,-19.26911 3.436947,-27.60499 0.585605,-3.29626 1.6582,-9.83428 2.383544,-14.52895 1.88546,-12.203323 3.374845,-18.758097 4.596795,-20.230456 0.553932,-0.667447 1.398802,0.139476 5.018876,4.793454 2.687546,3.455118 14.302122,15.271662 20.52901,20.885992 4.846435,4.36968 8.602348,7.23785 10.907743,8.3296 5.965636,2.82511 17.076867,5.47564 22.917688,5.46689 6.878497,-0.0103 10.309921,-1.43157 18.175906,-7.52834 5.904825,-4.57672 8.669425,-6.38804 12.588645,-8.24787 4.36623,-2.07196 9.10816,-5.448783 13.25118,-9.436432 4.15663,-4.000743 6.53573,-6.924716 11.69497,-14.373359 1.86801,-2.696935 4.42981,-6.276912 5.69289,-7.955504 l 2.29652,-3.051986 0.008,11.042905 c 0.007,10.284074 0.0583,11.153751 0.73975,12.655991 1.15516,2.546366 1.89834,10.011995 2.3343,23.449345 0.46181,14.23383 1.41165,26.36936 2.57287,32.87174 0.62036,3.47377 0.95447,4.68546 2.15332,7.8093 0.90951,2.3699 1.13011,3.72432 1.60521,9.85551 0.25977,3.35238 0.47525,4.32017 1.26008,5.65937 1.68222,2.8705 1.60971,6.92161 -0.1669,9.32461 -0.59898,0.81016 -0.81181,2.05142 -1.21468,7.08399 -0.41958,5.24128 -0.60034,6.25304 -1.28188,7.17488 -0.67547,0.91361 -0.75773,1.35892 -0.55331,2.99509 0.21018,1.68221 0.1051,2.18964 -0.84254,4.0686 -0.59548,1.18068 -1.43326,3.32513 -1.86174,4.76544 -0.84206,2.83055 -1.2617,3.39387 -1.77729,2.38575 -0.61171,-1.19609 -0.82411,-3.15608 -1.17213,-10.81607 -0.34292,-7.54785 -0.50673,-8.75961 -1.57629,-11.6603 -0.72242,-1.95924 -1.31305,-10.01702 -1.31515,-17.94243 -0.002,-7.05877 -0.57795,-18.71033 -1.07751,-21.79342 -0.92686,-5.7202 -3.39705,-18.09653 -3.7689,-18.88318 -0.59506,-1.25887 -1.43361,-1.30622 -3.6789,-0.2077 -3.2451,1.58769 -9.33355,7.51488 -12.34096,12.01412 -1.87544,2.80576 -2.1362,4.25736 -1.6186,9.01068 l 0.44202,4.05927 -0.96559,2.03278 c -0.92197,1.94093 -0.9656,2.29876 -0.9656,7.91914 0,3.2375 0.26229,10.98563 0.58287,17.21807 0.91697,17.82705 -0.0817,35.4026 -2.45579,43.21872 -0.69386,2.28438 -0.74836,3.09222 -0.55369,8.20649 0.12991,3.41291 0.50806,7.10665 0.94928,9.27236 0.73087,3.58755 0.73093,3.60512 0.0171,5.21883 -0.40422,0.91381 -2.02224,2.9604 -3.71427,4.69807 -6.37264,6.54452 -8.42726,6.08818 -13.67237,-3.03669 -2.756593,-4.79562 -5.493131,-8.73733 -7.11301,-10.24559 -1.057395,-0.98454 -1.175214,-1.93018 -0.328078,-2.63323 0.932617,-0.774 0.411136,-4.45305 -1.487659,-10.49551 -2.388939,-7.60221 -2.593456,-9.00533 -2.082811,-14.28938 0.234751,-2.42915 0.529983,-9.56533 0.656073,-15.85818 0.334383,-16.68832 -0.697517,-57.43357 -1.520218,-60.02668 -0.595553,-1.87716 -5.825849,-2.53881 -8.245906,-1.04313 -2.769511,1.71165 -6.653512,7.01704 -8.289907,11.32367 -0.395464,1.04078 -0.881261,3.22016 -1.079548,4.84307 -0.229045,1.87463 -0.617938,3.30602 -1.066356,3.92493 -1.130675,1.56055 -1.428696,3.70698 -1.438147,10.35795 -0.0049,3.43585 -0.246909,8.09419 -0.537833,10.35187 -0.552227,4.28546 -1.112612,15.67729 -1.470536,29.89375 -0.499697,19.84771 -1.251094,35.70165 -2.380575,50.22846 -0.392746,5.0513 -1.041805,13.87764 -1.442353,19.61407 -0.862605,12.35374 -1.259747,15.97966 -2.176738,19.8737 -0.855268,3.63194 -1.330335,9.30592 -1.8095,21.61181 -0.521502,13.3933 -1.037472,17.78116 -2.401293,20.42079 -1.891243,3.66045 -7.032158,5.01798 -11.044038,2.91632 z"
         style="fill:#d40000;stroke-width:0.363224" />
    </g>
  </g>
</svg>
