<?xml version="1.0" encoding="UTF-8" standalone="no"?>
<svg
   xmlns:dc="http://purl.org/dc/elements/1.1/"
   xmlns:cc="http://creativecommons.org/ns#"
   xmlns:rdf="http://www.w3.org/1999/02/22-rdf-syntax-ns#"
   xmlns:svg="http://www.w3.org/2000/svg"
   xmlns="http://www.w3.org/2000/svg"
   xmlns:sodipodi="http://sodipodi.sourceforge.net/DTD/sodipodi-0.dtd"
   xmlns:inkscape="http://www.inkscape.org/namespaces/inkscape"
   inkscape:version="1.0 (4035a4fb49, 2020-05-01)"
   sodipodi:docname="villager10claw.svg"
   viewBox="0 0 965.19342 1203.9227"
   height="1203.9227"
   width="965.19342"
   id="svg10"
   version="1.1">
  <metadata
     id="metadata16">
    <rdf:RDF>
      <cc:Work
         rdf:about="">
        <dc:format>image/svg+xml</dc:format>
        <dc:type
           rdf:resource="http://purl.org/dc/dcmitype/StillImage" />
        <dc:title></dc:title>
      </cc:Work>
    </rdf:RDF>
  </metadata>
  <defs
     id="defs14" />
  <sodipodi:namedview
     inkscape:current-layer="g18"
     inkscape:window-maximized="1"
     inkscape:window-y="-11"
     inkscape:window-x="-11"
     inkscape:cy="354.535"
     inkscape:cx="434.5807"
     inkscape:zoom="0.78671483"
     showgrid="false"
     id="namedview12"
     inkscape:window-height="1826"
     inkscape:window-width="1080"
     inkscape:pageshadow="2"
     inkscape:pageopacity="0"
     guidetolerance="10"
     gridtolerance="10"
     objecttolerance="10"
     borderopacity="1"
     bordercolor="#666666"
     pagecolor="#ffffff"
     inkscape:document-rotation="0"
     fit-margin-top="0"
     fit-margin-left="0"
     fit-margin-right="0"
     fit-margin-bottom="0" />
  <g
     id="g18"
     inkscape:label="Image"
     inkscape:groupmode="layer"
     transform="translate(-64.879143,-317.31437)">
    <path
       d="m 244.16667,1519.9506 c 39.06832,-25.9886 81.45413,-103.0002 3.12942,-97.65 -35.20685,44.0515 -80.50393,-24.0613 -125.53899,13.6144 -27.905293,16.1712 -85.947797,-12.0665 -39.390178,-32.3927 9.137226,-45.3807 -8.663534,-97.4952 38.349648,-128.1609 38.64505,-58.5532 -41.041797,-102.8251 -25.658204,-158.3217 31.473454,-50.1845 31.076354,-110.8691 -11.546189,-153.71702 -5.841249,-53.53491 47.639073,-108.77855 17.960933,-163.84046 -58.570368,-57.63666 57.5979,-98.8871 29.21429,-159.95532 0.73234,-66.01151 59.25347,-112.87044 102.52809,-155.16249 33.49186,-46.63552 69.71828,-94.06535 126.64207,-112.92938 122.90014,-54.79506 269.2832,-75.30854 397.51786,-26.79833 83.43451,22.6661 157.66123,75.73398 211.35212,143.13162 48.41336,67.63842 72.53026,153.68981 56.31876,236.26711 -2.2606,67.60772 -5.6732,137.036 -31.69884,200.40007 17.56434,22.25521 -46.18029,45.06676 -53.86643,1.97223 -15.66802,-21.22761 -39.63247,-99.91053 -53.90702,-83.1475 29.50303,47.67852 8.20771,103.32597 26.44809,157.74907 -42.41707,52.0893 60.94253,75.1088 16.42617,122.1674 0.96844,51.3624 -1.66265,114.2451 28.32462,153.3586 -1.82113,28.4132 -0.0384,70.9183 7.02546,87.0191 -44.33429,18.4612 -93.85791,8.96 -136.15184,29.2474 -35.29027,-3.4325 -134.97575,0.078 -82.09178,53.9846 30.64397,10.5976 72.40513,65.1553 12.71431,59.6265 -70.6567,4.0145 -142.10737,1.193 -212.18264,9.741 -91.31613,-20.3295 -184.40985,0.3708 -276.42483,3.6381 -8.35547,1.8814 -17.1156,1.9167 -25.4949,0.1586 z m 30.78135,-6.2781 c 79.92234,-3.1378 160.10015,-17.2889 239.96023,-9.8034 58.56865,16.8363 120.37658,-7.4498 180.47601,-1.4059 26.24952,2.7209 125.73426,5.0354 64.2178,-31.944 -55.81128,-31.1131 -44.28966,-119.8438 -63.66762,-152.3312 -61.71153,19.1139 -110.38555,83.5522 -180.44048,71.3185 -55.40331,-10.3728 -110.26711,-24.1792 -159.40772,-52.7001 -57.13834,-15.4421 5.53038,36.9033 11.49941,54.6562 -29.34722,-2.925 -50.67712,-77.7283 -34.5524,-12.4937 14.99244,21.0343 39.59043,57.5232 2.2404,21.5955 -8.63447,-16.4598 -21.33634,-66.7521 -16.83776,-19.2659 3.69988,26.0426 49.42678,89.4006 5.16921,37.4751 11.33037,0.3752 50.63373,63.1275 4.80767,30.3542 -41.49111,-27.1002 45.96384,54.3106 -8.12015,20.7788 -28.79923,-47.7904 -18.02132,28.5647 -4.49059,28.6132 -28.6456,3.0781 -21.37621,-53.5955 -11.20276,-9.5938 10.55466,-44.9095 -25.09744,-35.4121 -18.06169,-0.1652 22.75295,17.3694 -47.18984,-2.4141 -29.01194,28.5349 5.98147,-0.2769 11.58473,-2.5279 17.42238,-3.6232 z M 585.83896,1500 c 22.05307,-20.6306 -43.40825,-113.2106 1.74533,-58.2478 7.29823,17.0884 20.33243,46.061 -1.74533,58.2478 z m -128.89206,-7.8289 c -24.65268,-23.0027 7.78594,-102.6796 -0.95117,-36.1616 -2.32757,4.145 16.88956,51.7736 0.95117,36.1616 z m -148.53023,-56.3082 c -8.68661,-4.1972 -1.62927,24.7911 0,0 z m -193,-0.1967 c 37.64746,-42.2687 95.3497,15.09 132.74201,-16.6867 31.35458,6.8043 75.48026,18.8284 59.62769,-32.9248 5.98742,-21.9438 1.13891,-106.856 -1.34073,-44.1014 8.39248,27.4958 -30.8038,110.6693 -34.91209,43.59 -2.11469,-26.3594 -0.782,-110.874 -29.24108,-97.148 -3.77995,30.6619 -24.73851,109.9538 -19.5028,101.2726 -11.39985,-46.9822 34.50173,-97.7022 8.33271,-140.833 -40.34601,-44.565 -38.30666,-106.0482 -31.66876,-162.1382 7.33785,-26.6636 -25.75511,-9.5468 -41.72452,-19.4694 -22.02812,67.2328 31.57962,130.056 18.17176,197.0311 -25.02497,42.2282 8.4028,115.8776 -13.98776,143.811 -0.38486,-57.8009 1.20365,-112.3916 9.49958,-169.6385 -10.27586,-57.0305 -26.21256,-105.0727 -22.10226,-164.1808 -13.96254,-59.5951 -26.65761,-119.48365 -25.52097,-181.16233 -5.46903,-57.58195 3.4308,-117.11066 49.24496,-150.42306 23.76198,-43.74858 28.02909,-114.89576 75.46733,-153.41471 27.38104,-31.60589 117.06507,-73.92208 34.05086,-99.33474 -22.71118,-6.88503 -76.55358,33.459 -28.80584,3.23982 17.50924,-60.34701 -59.60396,43.46396 -27.02999,-1.13723 -46.36545,43.97168 -106.23962,102.87738 -84.56847,171.755 -20.39833,47.4754 -80.60111,95.78761 -28.1463,146.67473 21.37776,57.79129 -51.059353,116.75862 -11.95907,169.56301 43.62985,38.13301 15.28146,95.80121 -2.245578,139.29271 -4.302758,54.2029 68.148668,103.3043 23.008538,160.631 -61.473135,30.07 -0.16396,108.1638 -52.146833,139.3323 12.519151,9.5181 27.834909,22.8285 44.757613,16.3996 z m 11.14405,-667.6655 c 4.35368,-60.24957 78.01059,-88.54854 75.42241,-152.11499 9.72979,-20.24924 42.25018,-58.30313 14.78915,-16.38993 -15.90634,54.34038 -45.38745,101.54577 -79.87755,141.66895 -2.72323,5.67312 -6.71353,59.1075 -10.33401,26.83597 z m 83.85595,-186.25806 c 13.64236,-24.56195 92.78577,-74.66378 83.07689,-59.77913 -31.31242,14.17204 -59.12691,35.2776 -83.07689,59.77913 z m 29,-62.77141 c 25.74607,-20.79077 41.35724,-16.90589 5.23037,-1.09257 5.49187,0.58498 -11.57581,5.6367 -5.23037,1.09257 z m 50.6924,883.81827 c 12.19931,-42.6358 25.67559,-114.6219 -30.42386,-126.3545 27.68785,40.6904 8.03715,92.8333 25.12565,133.0836 z m 443.542,-6.1456 c 58.50327,-7.7267 117.29359,-14.9817 174.97394,-24.8989 29.81367,-11.8518 63.32754,-2.8185 38.69075,-39.2043 8.09225,-32.7155 -0.76521,-66.1176 -17.45431,-85.4833 1.5498,-53.5864 -22.16685,-110.0023 0.8987,-159.7656 -37.00611,-26.3248 -40.64904,-61.4385 -22.99116,-99.37248 -15.6226,-36.03384 -17.7737,-72.32525 -9.37794,-107.93238 -21.50626,-4.96972 -11.58313,58.1051 -20.77125,79.7847 -1.24333,64.04866 8.86935,128.20526 -3.36676,191.82016 -1.04383,60.6384 39.49429,115.092 28.00516,177.9062 -7.48085,55.5292 -6.22531,-39.0749 -10.48284,-58.6385 -11.40869,-58.5414 -36.07552,-114.4576 -17.69998,-175.1928 2.95453,-25.2897 7.41288,-97.44528 -23.08668,-41.8748 -47.11523,25.2286 -23.99241,102.0681 -39.09148,151.7857 7.62163,54.1725 -25.98337,116.5161 17.93237,162.8797 13.85888,37.039 -36.69625,-33.1135 -29.58774,-51.6068 -6.23262,-31.8831 24.51182,-123.3784 -17.33911,-71.3016 23.00671,-24.1285 -38.71123,29.0235 -18.5964,53.2793 8.88827,21.2347 9.4433,123.4014 -5.43658,55.3353 10.06193,-27.2372 -0.0179,-123.6834 -38.56892,-58.1004 -14.47068,19.6331 -13.1608,109.3382 13.35023,100.5808 z M 861.29836,1350.5 c -20.30933,-63.1096 -8.31766,-129.2974 -7.54844,-193.5973 -2.19444,-18.3065 -11.79096,-97.5038 1.01547,-79.9011 6.42835,61.0925 6.40262,123.0855 -1.46368,183.5507 -0.12026,29.8979 19.21016,60.7729 7.99665,89.9477 z m -336.10722,32.75 c 45.63452,-10.2291 -67.12617,-17.7634 -9.42072,-1.5995 -0.21503,4.9482 7.22729,6.244 9.42072,1.5995 z m 21.72553,2.0325 c 23.90081,-1.3018 74.48861,-31.5043 24.08721,-9.7648 -3.45954,1.8771 -57.76739,15.0801 -24.08721,9.7648 z m 9.40998,-11.1636 c 62.93688,-27.1276 123.55934,-61.2153 176.74679,-104.5757 29.34623,-25.9518 76.17719,-72.8734 70.69367,-114.1395 15.41848,-44.7874 -1.58122,-88.9555 8.68376,-135.0867 -10.94032,-54.09111 14.09424,-105.62557 20.85127,-158.91489 16.71561,7.7678 10.40688,-112.98896 -0.32338,-36.81584 -1.61268,26.38583 -24.68306,94.37578 -10.82193,30.06654 31.98212,-62.3464 -21.93838,-111.31857 -78.62353,-125.63071 -61.04353,-29.36033 -137.53842,-2.60861 -177.27386,49.12182 -10.14782,22.93473 18.55449,-9.06066 -0.32329,15.14546 -34.74712,43.92279 -18.28786,102.24141 -15.19085,153.18346 20.49414,21.64309 77.53742,4.43681 71.77581,57.27816 -0.47385,68.3454 -78.81017,25.6908 -118.36191,52.786 -25.14182,-27.3066 -72.79409,22.0198 -85.5637,-33.1322 -19.54012,-63.21922 82.63501,-42.2972 66.78823,-105.83706 7.18561,-53.58057 -15.43953,-102.82484 -46.32766,-145.52597 -31.82226,-49.63345 -108.31757,-45.8087 -150.7025,-18.93112 26.70851,-6.57092 60.00634,-13.32982 11.05517,-0.0596 -38.62455,19.43822 -96.26661,71.25558 -56.97423,113.28276 23.51008,9.16191 41.76484,61.61843 6.07746,25.39713 -10.59145,-22.97754 -54.87263,-69.22431 -25.6395,-16.59928 12.84566,32.97851 70.74572,84.9823 64.00875,90.56213 -42.83015,-23.95468 -58.38171,-73.44827 -85.00965,-111.59884 12.17016,53.53744 73.25864,132.07729 89.70733,150.41475 -51.86371,-17.24699 -58.53792,-80.88999 -88.06276,-121.79751 -0.43837,7.04403 32.05056,75.00067 51.27314,101.70891 10.31844,20.0869 77.74996,73.6938 19.48012,38.4373 -31.00127,-24.72534 -39.96002,-71.58209 -65.29931,-96.78364 18.51111,47.34606 5.26049,74.60504 42.66924,121.74744 24.14317,63.8008 -27.21314,-19.6538 -30.70399,-42.8089 -28.15389,-50.37351 40.95713,79.236 -10.28967,58.6136 2.2353,57.9243 -8.90443,126.1074 33.90753,171.931 64.34839,80.9677 168.29939,118.491 268.15573,128.6319 27.00519,-16.3376 32.1153,15.3966 43.61772,9.9291 z m -68.3076,-97.7032 c 17.99678,-26.057 112.73864,-18.7957 99.36694,-8.5957 -32.98444,-2.4965 -68.96399,-8.0289 -99.36694,8.5957 z m 53.03553,-39.8618 c -43.85868,-4.5806 -147.18199,-7.0973 -125.39351,-72.093 18.48371,-55.7257 79.99374,-81.3155 126.77638,-47.3025 43.46142,-41.1542 105.51033,-25.5744 140.09745,21.1539 36.44127,39.766 -46.07695,75.4696 -78.20497,90.3323 -20.43508,6.2389 -41.95248,8.6429 -63.27535,7.9093 z m 42.86209,-9.0347 c 34.64571,-1.3688 106.44012,-42.0827 91.40242,-63.5735 -57.27637,-1.4581 -112.74666,19.2325 -168.09252,19.4285 -25.35851,-11.6907 -119.56619,-15.5483 -65.35731,21.7721 42.06435,26.2203 94.40168,23.6199 142.04741,22.3729 z m -56.23625,-46.9731 -4.97536,-0.01 z m -102.3902,-4.9728 c 64.65954,-7.2981 127.46029,-40.5249 193.32211,-24.9879 27.4886,3.1233 92.44125,10.3894 42.56427,-23.1499 -34.58901,-35.8895 -82.24901,-35.7456 -115.23976,-3.4024 -22.03167,0.031 -93.58345,-16.3917 -83.01928,-6.4458 10.01254,0.4204 -68.89989,50.613 -37.62734,57.986 z m 93.62645,-13.728 c 49.11182,-13.8065 -14.39642,-1.7271 0,0 z m 42.76903,0.7488 h -2.95006 z m 102.23097,-1.8245 c -20.78021,-7.5475 -38.98972,4.5219 -2.87362,0.3893 l 2.87362,-0.3897 z m -86.25,-6.1819 -2.43984,0.048 z m -117.92215,-39.3132 c 6.02289,-13.0494 -28.02052,28.0556 0,0 z m 63.67215,5.9755 c -2.41329,-3.9271 -2.41329,3.9271 0,0 z m 40.5,-11.3696 -7.19009,6.0405 z M 515.16714,1113 c -4.16686,-7.0781 -3.48476,3.9917 0,0 z m -218.25047,106.4828 c -46.29881,6.6705 -31.40004,-114.606 -26.43925,-38.7281 -10.0541,18.848 49.94658,32.0921 26.43925,38.7281 z m 413.5,-10.5789 c 26.27153,1.253 53.18951,-88.9106 34.53982,-25.2628 -8.04325,12.1001 -20.40807,21.5573 -34.53982,25.2628 z m -233,-124.9963 c -1.7731,-15.3831 25.79572,-31.6524 8.31529,-8.375 z m 83.63001,-5.9596 c -15.52578,-20.252 7.33556,-39.3782 7.19165,-7.9201 9.52179,5.8459 -1.20675,17.9893 -7.19165,7.9201 z M 262.17088,873.6709 c 19.85703,-45.78618 90.23571,-125.35776 133.41903,-62.77573 21.63669,16.12679 47.26013,87.29965 11.44949,29.30955 -20.81882,-40.1152 -44.72338,65.74045 -80.57111,9.03851 -48.14641,-56.97937 87.3258,-60.50116 30.99738,-8.18139 -35.41612,23.88434 -19.59218,-57.44607 -9.9288,-2.31508 39.68056,8.31892 -6.49655,-66.78671 -23.0975,-15.23743 -5.83075,63.61182 96.26734,23.12391 45.46703,-23.15895 -42.35715,-22.41597 -78.28148,33.53842 -101.22145,63.40671 z m 474.24579,-16.8901 c -13.65048,-20.42288 -44.64507,-89.31359 -51.63934,-31.40297 -24.47184,24.62405 -32.07152,-41.16706 -1.44541,-24.64973 -40.6149,7.15483 19.08496,41.4901 0.86085,-0.98989 -46.20285,-41.83098 -53.8173,81.19429 4.72572,41.21058 44.35314,-37.79458 -40.89495,53.34978 -48.61391,-14.68753 4.36936,-54.89094 -25.98088,9.58615 -45.69386,24.83802 17.77958,-38.4596 85.03928,-102.57611 117.25984,-45.94088 3.30706,16.19946 44.52611,36.44941 24.54611,51.6224 z m -113.5,-14.5308 c 3.15652,-4.35676 1.53888,4.1296 0,0 z m -132.17368,527.592 -6.91676,-1.7627 z m 98.75191,-5.6315 c 30.09923,-2.1434 102.04322,-56.9043 36.84392,-18.9755 -4.53854,4.2745 -46.28954,17.2043 -36.84392,18.9755 z m 77.42177,-35.3504 c 1.80511,-7.8557 -22.52593,17.9133 0,0 z m -338.3962,-6.9063 c -5.16129,-2.4891 1.25936,5.5254 0,0 z m 361.3462,-9.7766 c -18.53405,4.3621 -12.87944,11.913 0,0 z m 10.19072,-1.114 c 30.36345,-21.4482 -27.30229,12.0888 0,0 z m 7.85928,-12.7556 c -5.44605,-3.2236 -19.96271,17.3749 0,0 z m 22.26535,-19.8005 c -6.76683,1.7011 -16.17135,12.328 0,0 z m 10.83912,-3.4571 c 25.13885,-19.1876 -34.88619,22.9025 0,0 z m 14.86016,-16.1792 c -12.73826,-4.6091 -15.68483,18.8983 0,0 z M 249.7039,1255 c -19.42725,-28.7191 -26.25336,-24.4032 0,0 z m 525.95203,-9.422 c 21.86564,-23.253 -25.37146,23.3767 0,0 z m 6.2455,-11.0648 c 18.76722,-11.5212 36.94679,-81.7969 14.05588,-29.7683 -1.85919,4.8345 -43.21285,56.2777 -14.05588,29.7683 z m 18.51524,-11.7632 c 6.73119,-8.8314 -9.61855,9.5612 0,0 z m -604,-156.25 c 6.18227,-38.607 2.75803,-91.11164 -33.13945,-110.95678 -8.88805,33.94379 -24.72721,117.11018 33.13945,110.95678 z m -27.54502,-19.8851 c -31.19317,-20.6957 37.09854,-54.40053 -0.87532,-23.8952 12.41665,34.1057 21.97433,8.4733 21.76083,-6.0763 8.65598,14.8888 0.30717,44.6467 -20.88551,29.9715 z M 851.08201,1052 c 32.26986,-49.9669 7.86213,-111.93556 12.13827,-166.80613 4.71352,-26.92062 28.07818,-71.01461 -11.90869,-82.37897 2.18893,56.72275 22.09688,132.70063 -19.96304,175.19111 -5.46596,16.35708 -18.28248,95.37619 19.73346,73.99399 z m -13.2983,-15.5222 c -19.27012,-50.9899 51.98369,-14.1124 0,0 z m 10.09702,-5.9778 c 11.16178,-34.89637 -26.54013,-5.2316 0,0 z m -636.08513,13.4652 c -10.64154,-17.4639 5.12807,20.2926 0,0 z m 329.98323,-3.0792 c 18.29032,-21.8325 -30.56285,27.8879 0,0 z m -76.26324,2.2231 c -11.91067,-41.5346 25.04439,-38.7496 30.44705,-3.817 30.70981,31.418 89.81699,-67.53631 70.25036,-4.1799 71.46781,35.4728 57.85042,-98.73072 -4.17149,-67.6915 -44.69033,-8.62658 -18.9642,-89.21731 -23.51669,-125.29108 26.44303,-41.30504 5.68625,-98.40809 32.50171,-132.77658 28.01812,-16.45007 57.41227,-6.2928 53.38687,-24.98714 60.55481,15.56357 -11.73457,-51.56717 -28.83651,-66.0032 -49.40272,-31.73469 -81.73001,-91.02656 -144.66025,-99.30961 -71.8283,-11.96497 -152.2575,8.89761 -197.6913,68.88838 -42.33374,40.57457 -58.60514,98.39328 -67.82071,154.47653 4.44044,34.52039 28.98467,63.43361 43.9256,18.20717 46.95542,-43.53539 107.09735,-84.4137 173.28763,-83.71932 84.61862,1.75499 14.88447,95.10007 68.57932,129.96582 31.08555,49.36129 38.95638,123.88209 -1.14827,170.41201 -44.63971,-19.08144 -60.94699,72.70492 -11.20816,68.55042 z m 32.90108,-70.2929 c 30.72687,-18.22859 47.8373,-2.45991 0,0 z m 3.92821,-8.9931 c 7.68065,-19.04585 48.55699,-17.99078 7.3357,-1.45432 3.16942,-1.21492 -15.23057,6.19988 -7.3357,1.45432 z M 222.00418,1042.5 c -3.95791,-27.9015 -27.53896,-59.47775 -8.41893,-13.8845 0.51993,-1.4722 7.07244,21.5676 8.41893,13.8845 z m 339.91249,-14.8429 c 35.46319,-17.7742 -22.37243,3.9089 0,0 z M 150.34502,996.1575 c 12.61459,-41.68238 4.02645,-132.56509 -18.14633,-140.54871 -3.19349,56.91855 0.11436,115.36798 11.51013,171.08001 5.36988,-6.9735 3.66491,-21.5892 6.6362,-30.5313 z m 320.07165,21.8642 c -5.3814,-7.6088 -3.28265,15.2135 0,0 z m -43.8184,-25.2016 c -0.67418,-10.57001 -1.46276,12.3905 0,0 z M 431.54423,981.5 c 3.16257,-4.58518 -7.08855,6.40645 0,0 z m 9.00763,-2.7109 c 7.78055,-5.53563 -13.50109,5.66925 0,0 z m 400.8868,-8.5509 c 8.98248,-35.03473 1.98228,-131.98975 6.43835,-120.22608 -2.29435,38.05323 -36.6461,87.00685 -6.43835,120.22608 z m -650.83728,-9.9683 c -0.76053,-44.635 3.82496,-114.20674 -21.06706,-142.43981 1.03828,45.88969 -16.11244,109.7803 16.7578,146.67091 z m 783.72088,-12.6916 c 11.3309,-5.21331 13.18553,-33.68148 -1.5175,-14.6069 45.11424,-43.12012 36.84944,-111.83008 43.42414,-168.63193 3.7946,-63.6835 18.5973,-131.71605 -12.8238,-191.23316 C 973.36031,479.33952 892.44425,411.46792 806.39853,369.86221 726.90338,335.7171 640.2453,315.8743 553.44546,325.64282 c -93.20018,7.37885 -186.82665,36.78411 -264.39291,88.82601 -28.17973,15.59718 -32.23212,95.14765 3.12813,41.42744 51.02798,-41.08383 115.76841,-65.57112 179.77783,-76.85803 81.81758,-3.67489 165.87995,-15.05503 245.547,10.7262 63.42359,15.89962 128.66054,34.14042 177.57536,80.28084 46.74768,40.59888 82.36415,94.9316 101.1023,153.5209 2.72885,44.50735 -23.20908,-49.85053 -37.26346,-63.41058 C 910.55954,472.52577 819.67864,415.11991 722.1564,398.37285 670.99659,384.82312 619.01999,375.4167 565.84332,379.76865 c -59.76602,3.64338 -121.61606,0.64302 -176.99848,26.96864 -32.32089,17.46529 -129.28719,38.65097 -95.50332,84.50717 62.20283,-24.71916 127.81089,-68.70978 201.80667,-69.49985 129.87614,-11.80167 265.19308,16.52624 374.33702,89.42655 -20.51977,12.90956 -57.22925,-39.24214 -78.45654,-32.78335 49.48705,22.51153 93.00233,54.74511 127.85149,96.61304 20.67861,19.01596 35.66255,58.07804 3.49464,18.09522 -36.4524,-47.50519 -82.46826,-85.99467 -137.61904,-109.63525 -87.44399,-42.32177 -187.60663,-35.42544 -281.69501,-30.4295 -53.64987,9.39234 -110.19958,11.39776 -157.81624,40.54853 -35.29744,21.51249 36.9869,-32.52481 55.10795,-27.13076 78.94731,-18.00459 159.79033,-28.32827 240.82444,-21.06088 44.03173,0.004 87.27974,7.18423 128.86548,21.71863 -133.32364,-51.14276 -289.94259,-61.65217 -421.49514,0.18944 -41.16253,9.02214 -44.31783,59.0399 3.27048,50.74187 58.21757,-27.7286 123.99096,-23.65018 185.61765,-11.02251 62.49812,5.11102 122.23835,31.16541 182.38748,49.87147 66.59131,34.04333 131.41302,72.27486 191.46135,116.47019 31.89897,35.21458 104.6576,99.55467 81.0104,135.59802 5.35803,-47.2285 -96.58968,-140.45232 -85.7909,-124.96871 38.94785,39.83232 71.8287,89.95481 68.80907,147.78005 C 960.44652,778.25449 936.88164,714.80181 887.65175,676.34052 843.39897,626.36588 780.70016,599.84631 724.04846,567.31985 c -22.54301,-13.3163 -84.07882,-29.07375 -37.41545,8.05526 56.77078,47.10177 130.91437,71.84368 177.66731,131.56893 33.33046,48.16492 63.42201,99.73198 84.19001,154.89114 13.45054,65.22332 -31.56933,-57.99063 -44.64384,-79.52167 -30.58624,-56.27738 -74.39383,-107.64516 -138.62716,-126.95843 -47.27015,-14.06465 24.03966,55.54583 46.86715,50.57054 62.70765,8.14728 -27.14374,11.48011 -42.02913,-8.54727 -20.38891,9.36672 69.14876,32.67981 72.40565,53.35255 -27.26175,-12.81303 -72.5299,-36.39853 -95.5768,-26.21454 51.59736,18.43997 91.87751,54.59383 131.25509,91.67028 43.03929,32.61813 49.70037,90.48876 86.52954,126.89426 z m 23.5116,-197.8722 c 7.89794,-37.64175 -49.12543,-88.20882 -38.94795,-104.66166 21.86039,27.98145 51.07849,67.52345 38.94795,104.66166 z M 925.59106,624.905 C 873.98715,580.49639 807.68267,558.30455 751.45302,520.68443 c -43.48154,-19.94909 -94.1853,-27.01345 -140.53635,-13.19194 69.11503,-35.08482 146.85339,3.76912 205.76186,41.8193 27.67736,22.42406 116.8407,47.93919 108.91253,75.59321 z m -53.4814,319.614 -0.0668,2.95154 z m 114.307,-2.5826 c -5.80946,1.03545 -0.48513,7.26432 0,0 z M 824.07895,939 l -0.0477,2.43984 z m 49.74668,-4.75 c 12.48829,-20.00157 12.19875,-93.98635 0.32466,-79.46476 -3.3064,26.19128 -4.69461,53.37985 -0.32466,79.46476 z m 115.09083,0.1248 c -2.14922,-6.32684 -4.51751,14.83732 0,0 z m -162.70568,-5.7686 c -3.12994,-2.46143 1.63095,9.87798 0,0 z M 162.74534,895.876 c -20.42727,-45.86075 18.20373,-84.48274 14.68733,-121.15261 -60.74427,-26.15408 -44.26604,80.0572 -19.53408,110.68978 5.26905,6.09365 3.8055,30.30144 4.818,10.93802 z m 48.7295,-54.3867 c 5.16239,-21.94502 -23.6741,-15.05353 0,0 z m 9.9516,-19.5483 c 31.97608,-56.80876 95.11992,-105.34768 162.25438,-100.16041 25.28023,15.36444 73.33933,54.68859 59.16423,-6.56665 C 420.31046,654.48022 335.21721,690.76205 294.53851,714.21475 262.64622,733.22917 186.11545,781.52807 221.42644,821.941 Z M 199.1221,814 c -6.56062,-30.55638 -17.62649,-15.90248 0,0 z m 47.51882,-20.1612 c 4.14987,-8.82926 -14.58988,18.96571 0,0 z m 350.77575,-50.7405 c 13.6119,-19.03408 112.74875,-34.08262 46.50449,-46.3199 -43.86541,-18.20039 -113.53842,51.47614 -70.99602,67.76462 8.01346,-7.29841 14.46537,-16.61802 24.49153,-21.44472 z m -318.52628,17.5515 c -7.15064,0.28003 -15.82691,18.08176 0,0 z M 316.41667,739.75 c 6.73119,-8.83138 -9.61855,9.56119 0,0 z m 306,-7.5 c 1.19773,-4.29859 -7.19399,5.7767 0,0 z m 114.40504,-19.7946 c -38.77643,-31.27464 -28.09514,-0.72098 4.46719,3.36967 z M 759.30093,710 c -45.40869,-63.23207 -67.4136,-156.41501 -150.92287,-181.09734 -25.85129,-9.30519 -75.91646,-21.45074 -31.21878,7.02917 38.442,35.98484 85.24691,64.84758 107.18731,114.92342 14.37545,27.58249 48.83478,61.02384 74.95434,59.14475 z m -66.31005,-14.8645 c -28.69152,-33.34073 -23.14403,-87.10186 -70.60011,-107.29055 -24.56484,-24.91106 -67.80283,-72.20224 -101.41532,-47.88489 40.35825,41.91268 90.28262,73.91471 125.81176,121.08853 3.71417,10.74486 57.61424,59.64731 46.20367,34.08691 z M 753.7374,683.5 c -7.56354,-28.85195 -8.95858,7.54501 0,0 z m 50.67927,-20.4187 c -20.94024,-13.19688 -114.93349,-66.77197 -56.72544,-23.67004 17.59299,10.8999 38.3459,14.68426 56.72544,23.67004 z m -66,-9.8645 c -8.27313,-25.84825 -41.16247,-56.87211 -11.82193,-14.92095 4.16385,4.60704 5.09826,12.82786 11.82193,14.92095 z m -221.5,-124.48045 c 60.45037,-7.55396 -97.40122,-36.94617 -74.24488,-18.51364 27.69041,-3.51171 49.22648,19.3442 74.24488,18.51364 z m -162,-7.96148 c 4.07125,-4.70347 -16.92209,11.2606 0,0 z m 50.19847,-11.16897 c 40.77204,-8.71519 -48.44465,4.39702 0,0 z"
       style="fill:#000000"
       id="path22" />
    <path
       d="m 833.46746,1053.6989 c -32.35093,-65.49807 43.52832,-107.88147 23.01384,-174.74608 5.13979,-23.71573 -22.88348,-102.52802 18.90264,-54.64906 -19.04092,64.36935 -4.32407,135.72574 -11.69449,203.09954 -5.11538,11.8394 -12.73037,34.3609 -30.22199,26.2956 z m 11.99537,-17.7121 c 35.07417,-31.5536 -17.3516,-38.58248 -11.50962,-4.8498 l 4.38282,2.8536 z"
       style="fill:#ac9393;stroke-width:0.89881"
       id="path37" />
    <path
       d="m 185.57117,965.11361 c -31.78523,-37.7955 -16.81593,-124.01187 -12.51867,-146.59879 19.4565,45.02963 18.55933,103.49673 14.82929,149.04005 z"
       style="fill:#ac9393;stroke-width:0.89881"
       id="path41" />
    <path
       d="m 184.72665,1067.8765 c -49.98783,-3.7772 -6.90178,-137.30704 -13.02981,-108.2765 20.22216,25.95471 46.76988,84.1209 13.02981,108.2765 z m 1.02458,-21.7122 c 35.95772,-43.9366 -58.10121,-43.4861 -14.26471,2.7978 l 6.48346,0.054 z"
       style="fill:#ac9393;stroke-width:0.89881"
       id="path43" />
    <path
       d="m 159.77098,900.15086 c -16.66479,-35.70016 -46.50679,-142.31362 14.17726,-125.06092 22.93625,37.31137 -33.5779,40.88573 -14.33032,83.12942 -0.89655,11.31296 6.11889,38.54238 0.15306,41.9315 z"
       style="fill:#ac9393;stroke-width:0.89881"
       id="path45" />
    <path
       d="m 833.17644,969.20421 c -9.10951,-27.81386 11.25828,-117.37725 16.13399,-112.45601 -7.46474,36.362 13.70569,83.49745 -16.13399,112.45601 z"
       style="fill:#ac9393;stroke-width:0.89881"
       id="path47" />
    <path
       d="m 565.43932,744.36206 c -11.23379,-57.49199 102.41177,-52.21487 102.14058,-33.1959 -38.09433,2.2783 -85.18513,47.26595 -102.37212,52.83461 0.0772,-6.54624 0.15436,-13.09247 0.23154,-19.63871 z"
       style="fill:#2b0000;stroke-width:0.89881"
       id="path53" />
    <path
       d="m 695.88135,701.49221 c -54.86525,-26.97567 -78.74419,-90.9459 -130.97547,-121.85889 -25.11326,-12.00261 -66.4909,-64.78084 -9.08839,-43.58985 47.36062,33.42296 107.41794,69.52441 118.11578,131.11592 2.48194,13.8285 10.69033,26.09042 21.94808,34.33282 z"
       style="fill:#2b0000;stroke-width:0.89881"
       id="path55" />
    <path
       d="m 753.33794,711.0913 c -57.0463,-16.77718 -70.95291,-80.23659 -109.43433,-117.54104 -18.50465,-21.88235 -89.1088,-65.58111 -78.57606,-76.99663 64.22171,10.84036 122.22686,52.66628 146.35562,114.10846 13.799,26.58306 34.03447,51.39467 41.65477,80.42921 z"
       style="fill:#2b0000;stroke-width:0.89881"
       id="path57" />
    <path
       d="m 965.97713,945.17943 c -40.266,-53.74475 -61.62121,-122.89061 -120.87951,-160.79756 -21.83236,-21.01691 -100.9935,-64.70643 -93.35587,-62.39432 29.58735,-6.37346 80.52307,36.14701 91.44179,20.93234 -23.08037,-3.33137 -112.11231,-61.58382 -51.12424,-34.74075 30.17056,16.16452 66.57731,-3.38072 13.92388,-4.62074 -30.23462,-2.19702 -89.21836,-74.81033 -28.29634,-42.03467 64.85658,21.76396 104.10349,79.04941 133.14658,137.2886 15.28271,23.19531 27.41736,82.75758 45.36854,84.16819 C 938.29241,827.18154 909.55032,775.11774 877.55657,725.60448 840.0493,664.47553 774.56908,631.6163 714.40478,597.40484 c -20.37775,-11.33558 -76.90715,-70.857 -18.77926,-40.77976 86.63411,38.1625 174.51191,85.27792 230.39756,164.4216 39.39088,23.97265 22.10503,82.46647 52.5494,108.96395 6.87354,-44.3836 -68.0772,-155.5206 -61.40081,-136.63096 38.26518,29.13224 67.23384,79.08992 80.73981,117.04216 6.13372,-57.09407 -46.39395,-90.94044 -78.85419,-129.97794 C 867.39942,638.30218 809.37215,604.06388 750.72447,572.38699 687.167,540.93825 617.69292,520.82403 548.67986,506.51256 c -60.65745,-5.58013 -125.56608,-21.88279 -182.92679,7.26685 -38.42775,22.00496 -72.64101,-31.9841 -20.98373,-42.50358 100.32973,-54.13745 220.90419,-52.76234 330.36926,-32.85536 24.13957,5.12106 71.14875,19.8524 20.71515,10.70704 -110.68068,-11.95339 -225.59736,-8.00447 -331.16402,29.38608 -24.17918,7.35339 -43.63523,39.22385 -7.94025,9.14552 38.05399,-21.68215 85.15862,-22.20449 128.05795,-31.55156 74.24122,-8.77139 150.32523,-9.61499 224.15855,2.76802 76.47387,17.23913 150.15257,56.4886 199.02541,118.90191 17.97991,23.02312 53.41565,54.32405 21.65917,10.12824 -22.37614,-42.84637 -104.23165,-92.08466 -118.84275,-101.15577 21.50411,17.14189 91.94684,45.64734 34.73719,8.66045 -141.34349,-80.11482 -321.24981,-103.59902 -474.0668,-42.81118 -25.56879,10.83958 -95.1112,70.89151 -82.45015,10.8295 40.94487,-42.95454 102.7546,-56.9346 157.40577,-74.87481 59.60564,-7.89595 120.48944,-9.76658 180.74071,-7.71209 65.57146,6.06725 130.0508,24.45966 190.97455,48.91714 88.98125,40.43915 149.70027,125.1071 177.29138,216.92759 C 1000.5785,591.6793 957.69494,545.6397 928.94521,502.79808 874.97144,439.86302 796.91503,403.37605 716.38792,389.10788 631.90187,362.99114 542.7784,374.27364 456.38067,380.79436 c -67.53079,14.79019 -133.96291,43.20147 -184.19728,92.21761 -23.9451,-12.79621 24.74372,-77.72287 59.60237,-84.74605 137.77323,-68.33229 304.80857,-88.28105 449.14329,-28.01575 84.14877,33.28584 162.95614,92.59454 205.83149,173.35911 24.70966,54.89303 45.99166,114.38791 33.02026,175.30009 -5.3141,69.03777 -3.9353,140.23483 -28.49514,206.04766 -29.83834,23.58802 3.72262,3.94784 -16.06965,32.50798 -2.26861,4.12812 -8.49521,1.67793 -9.23888,-2.28558 z m 37.80367,-194.26536 c 3.6561,-35.4187 -32.88292,-109.12214 -50.65042,-101.07946 26.53525,26.97228 35.22155,75.9893 50.65042,101.07946 z m -70.61766,-123.2774 c -29.45578,-51.94396 -97.70431,-55.85974 -139.87343,-93.9728 -51.1035,-31.78226 -114.49681,-49.27482 -174.0191,-33.88095 29.80599,6.93855 87.31486,-5.90473 124.10702,18.86636 56.83354,24.39156 105.85539,64.31266 163.02444,87.57662 9.3019,6.41018 14.28828,20.77135 26.76107,21.41077 z"
       style="fill:#2b0000;stroke-width:0.89881"
       id="path59" />
    <path
       d="m 796.57405,660.56499 c -25.82488,-1.5901 -99.48676,-60.24192 -41.56988,-30.48999 12.43373,9.11765 36.76031,17.88864 41.56988,30.48999 z"
       style="fill:#2b0000;stroke-width:0.89881"
       id="path61" />
    <path
       d="m 502.21393,528.23075 c -14.35605,-20.35423 -103.07674,-18.76516 -38.10461,-23.03478 19.14867,3.29169 127.39032,24.86579 38.10461,23.03478 z"
       style="fill:#2b0000;stroke-width:0.89881"
       id="path63" />
    <path
       d="m 215.09991,813.80245 c -1.66731,-70.48435 79.77703,-98.15368 132.75256,-123.33118 43.73019,-28.57067 131.04689,13.41201 83.16721,61.09168 -36.62199,-45.94026 -102.56074,-32.53394 -144.6769,-1.71315 -31.76343,9.95556 -40.22508,59.28061 -71.24287,63.95265 z"
       style="fill:#2b0000;stroke-width:0.89881"
       id="path65" />
    <path
       d="m 719.83945,1391.1127 c -19.8585,-32.1083 -6.12326,-130.9018 36.19208,-109.1039 12.88496,29.7121 -2.10989,85.9231 15.76777,98.8691 0.32275,-43.0824 -20.85025,-91.5778 5.76003,-132.2194 25.00755,-17.5366 -7.19445,0.2404 23.87686,-20.5611 16.15318,27.5669 -22.59703,96.9686 14.0124,135.0146 40.26526,40.5199 -48.29939,19.5492 -74.30635,32.0029 -3.82109,-3.6605 -21.2014,6.4949 -21.30279,-4.0022 z"
       style="fill:#2b0000;stroke-width:0.89881"
       id="path67" />
    <path
       d="m 720.32564,1390.6614 c -16.71988,-35.2897 -7.72875,-123.7102 34.29015,-111.488 13.77661,33.0402 -2.36192,82.3199 14.50308,102.6448 11.70343,-46.5772 -27.11635,-92.8607 11.32143,-131.8749 34.19811,-51.4314 25.5843,20.313 17.17148,45.3062 -10.88106,38.9959 64.90106,109.7674 -13.15815,94.0199 -22.10454,-16.2363 -61.21386,25.0345 -64.12799,1.392 z"
       style="fill:#2b0000;stroke-width:0.89881"
       id="path69" />
    <path
       d="m 838.63833,1381.733 c -26.57246,-35.8965 -46.09039,-84.174 -25.07567,-127.2144 -2.98948,-54.3425 4.85959,-107.4579 12.32222,-161.5651 -13.13161,-27.6126 41.664,-50.9813 48.21865,-55.0208 3.67449,69.9567 -22.41644,143.0907 14.32064,208.855 12.65171,26.3346 -4.99249,98.0935 15.04895,100.4204 -5.13034,-49.4241 4.34187,-102.692 -23.47772,-147.1976 -15.11167,-49.7893 7.94855,-100.9056 0.53926,-151.6415 -6.6571,-51.50892 -1.46954,-101.83932 14.44697,-151.24471 7.14829,-72.67029 -6.07771,88.0785 -4.24369,48.82451 39.94965,34.72995 -27.65595,108.4735 34.077,131.3925 13.75881,42.0859 -23.38331,88.8181 2.83546,129.4594 -11.53338,46.9196 32.50058,69.3054 19.51699,111.2519 38.49008,73.8802 -70.44954,43.7521 -108.5291,63.6804 z m 28.81889,-30.6985 c -15.70712,-64.5773 -11.05497,-130.6695 -7.36053,-196.1669 6.68573,-22.912 -13.7037,-125.7727 -11.52162,-60.6133 10.26148,68.3415 -2.63332,136.7872 1.49884,205.1615 2.18201,17.9933 5.58522,37.1725 17.38331,51.6187 z"
       style="fill:#2b0000;stroke-width:0.89881"
       id="path71" />
    <path
       d="m 837.42116,1377.5673 c -35.46095,-39.5703 -36.12446,-93.8321 -21.13481,-141.3094 -3.18241,-57.1448 -0.50629,-120.936 20.87166,-174.5528 17.51712,-13.0127 43.90154,-50.5607 37.43271,-4.4162 -0.62451,56.9313 -20.11707,115.1315 5.73265,169.7437 24.61495,34.4249 1.9535,110.7872 22.59128,124.0747 5.66918,-62.5287 -9.09397,-123.511 -28.66965,-182.6693 8.03492,-63.2697 7.44715,-127.6823 3.87743,-191.7684 -4.91585,-26.19444 14.25324,-90.37975 21.16145,-88.79846 -27.74708,48.35724 22.93675,89.59673 -2.65433,140.09676 -7.71741,42.0064 64.91418,61.1824 23.34358,102.3082 5.70425,49.8881 -1.76798,111.2377 27.01361,148.9753 -1.88429,37.4982 24.43938,93.4755 -29.52441,88.4007 -26.11222,10.1663 -58.66232,5.7559 -80.04117,9.9152 z m 29.77421,-25.5924 c -4.31933,-50.1845 -19.49195,-99.4234 -7.38794,-150.073 2.16751,-47.5408 -0.48502,-95.2259 -6.58101,-142.3984 -16.49989,44.2142 8.54261,92.665 -2.12104,139.2819 -3.21992,51.7724 -8.21692,106.3199 12.89346,155.2643 l 2.59291,-1.683 z"
       style="fill:#2b0000;stroke-width:0.89881"
       id="path73" />
    <path
       d="m 872.20528,932.1808 c -4.19824,-22.56987 6.0404,-123.89927 9.21158,-56.8733 -0.55701,18.92162 2.51014,40.67654 -9.21158,56.8733 z"
       style="fill:#2b0000;stroke-width:0.89881"
       id="path75" />
    <path
       d="m 97.614115,1435.7299 c -51.503357,-13.9422 29.546705,-63.7032 -8.638933,-96.5651 2.673197,-44.6044 63.236548,-69.6198 46.319768,-119.8473 -12.07923,-46.1792 -58.061908,-87.7879 -21.85913,-136.3512 C 151.4853,1030.9444 96.015071,987.17601 90.729946,936.46766 112.2142,881.47839 128.29416,823.22083 97.757067,766.01177 95.517639,712.34031 165.19763,666.78789 140.51773,607.00594 c 9.3214,-33.91287 82.22114,-120.16888 77.75118,-103.27451 -8.60139,14.44615 49.09134,-62.43216 37.01515,-14.33652 -20.82818,10.2096 -37.46901,27.65011 -5.87769,9.47628 37.68196,-35.1712 110.7734,40.21528 39.20328,52.4637 -42.01941,35.74728 -87.75857,81.56621 -93.29777,138.39283 -4.57841,63.90419 -88.19973,85.4122 -70.73446,153.00687 -4.05252,72.31563 1.12945,145.11524 21.4938,214.66391 1.05502,65.4323 11.80381,122.8317 25.9785,185.4696 -17.68169,56.1592 -3.90709,114.1805 -14.81078,169.9887 -12.87513,16.1437 -39.85424,23.0796 -59.624825,22.8731 z M 130.56723,778.4616 c -1.28699,-48.19432 37.99742,-78.25968 62.12557,-112.60617 2.60122,-26.74421 26.44782,-79.82547 31.97515,-86.01987 -37.9147,34.33799 -22.82083,90.10158 -63.31119,121.39696 -20.48854,16.06067 -47.48524,56.9307 -30.78953,77.22908 z m 90.8351,-206.1435 c 18.17871,-25.21205 59.37903,-37.6075 76.26029,-55.18908 -22.70879,5.25329 -86.46244,53.83456 -76.26029,55.18908 z m 26.92145,-55.86648 c 44.01894,-17.9679 -0.36339,-15.31902 -10.18764,6.45969 l 1.63449,-0.12918 z"
       style="fill:#2b0000;stroke-width:0.89881"
       id="path77" />
    <path
       d="m 281.30714,1407.7734 c -0.54564,-39.2166 -12.97062,-108.5674 -13.25056,-127.6788 54.17477,19.7846 33.82907,96.2611 13.25056,127.6788 z"
       style="fill:#2b0000;stroke-width:0.89881"
       id="path79" />
    <path
       d="m 214.70229,1434.1021 c -29.79131,-13.8023 -67.98421,-17.2739 -46.37483,-57.8649 -13.96001,-62.6386 27.34802,-127.4204 1.81393,-186.4018 -18.88852,-29.8908 -22.48713,-109.4956 1.65144,-119.6236 61.46449,1.8572 0.94714,88.1084 30.39603,126.317 21.97755,46.1998 51.29861,80.5423 27.9727,132.7781 -17.32877,17.4469 -5.85505,95.3541 -0.7873,42.2757 -3.00828,-31.3198 13.25227,-65.7437 19.27705,-93.6277 38.76997,33.2418 -0.6194,116.7258 40.16519,133.1454 21.07857,-19.9778 12.58448,-75.673 20.68241,-82.9649 4.95424,41.1993 2.95321,128.4692 -59.01528,88.6629 -13.54804,2.0729 -20.32587,23.1333 -35.78134,17.3038 z"
       style="fill:#2b0000;stroke-width:0.89881"
       id="path81" />
    <path
       d="m 211.10705,1431.9251 c -23.47815,-14.1635 -64.52329,-13.3466 -41.55771,-50.6228 -11.0252,-58.3469 13.0174,-114.2081 9.37871,-170.2144 -23.57282,-38.9278 -36.86019,-116.764 -6.4026,-139.8908 58.85758,2.5304 -0.0196,90.148 29.85278,127.4624 31.90051,48.1907 46.92353,100.7477 19.84707,156.4677 -21.44035,24.3838 21.1002,57.7979 4.67011,18.0227 5.19429,-26.9099 23.16939,-133.5306 37.61985,-59.9441 11.34392,27.0331 -9.2072,106.511 26.48056,99.0341 17.48526,-21.1482 12.52606,-81.7277 18.17074,-88.6949 5.31679,50.2223 2.90001,131.2468 -64.87691,95.223 -10.17391,5.8169 -19.63543,22.1056 -33.1826,13.1571 z"
       style="fill:#2b0000;stroke-width:0.89881"
       id="path83" />
    <path
       d="m 142.93849,1022.6137 c -9.492,-56.23902 -14.48754,-113.83449 -10.48063,-170.62049 27.67044,34.90212 25.50756,90.72621 19.57624,135.16537 -2.15805,12.00905 -4.7614,24.01902 -9.09561,35.45512 z"
       style="fill:#2b0000;stroke-width:0.89881"
       id="path85" />
    <path
       d="m 419.00606,1174.8176 c 17.4816,-52.033 68.04528,-78.2588 116.03067,-48.7788 42.91539,-25.2134 93.3654,-44.9432 128.00405,6.6445 34.39769,50.3809 -103.83982,-7.9069 -138.26076,19.6641 -33.43891,12.124 -70.5028,16.089 -105.77396,22.4702 z"
       style="fill:#d35f5f;stroke-width:1.27111"
       id="path87" />
    <path
       d="m 528.95696,1227.9378 c -31.52099,-3.4547 -110.1307,-14.7385 -98.35444,-48.6677 50.84657,-12.658 103.83365,24.9854 152.45308,-6.4536 25.94232,-2.7026 94.43747,-17.1745 92.63698,4.4719 -34.16264,43.7731 -94.54059,53.5411 -146.73562,50.6494 z"
       style="fill:#c83737;stroke-width:1.27111"
       id="path89" />
    <path
       d="m 515.61032,1225.6623 c -25.12871,3.4102 -125.00339,-33.9252 -63.40628,-47.9242 55.39499,11.1199 107.86958,6.6928 161.15626,-7.2571 27.3826,-4.9102 95.27822,-11.6636 43.91486,24.2575 -39.40367,31.5373 -93.2416,35.9465 -141.66484,30.9238 z"
       style="fill:#c83737;stroke-width:1.27111"
       id="path91" />
    <path
       d="m 420.27717,1174.1377 c 16.93494,-48.6993 65.19633,-77.7012 110.02336,-46.465 44.06183,-27.0114 97.34727,-41.0669 134.54814,7.0596 29.07764,35.6047 -57.79914,7.5341 -77.81006,11.4693 -57.27329,-4.2843 -109.75523,24.0647 -166.76144,27.9361 z"
       style="fill:#c83737;stroke-width:1.27111"
       id="path93" />
    <path
       d="m 444.4084,1043.5596 c -41.87896,-34.7256 6.7847,-70.03686 35.04635,-76.66646 34.44999,-59.65771 16.19562,-137.18189 -26.40164,-187.89807 -12.98101,-38.12924 15.48357,-105.17296 -52.36212,-102.68097 -66.84076,0.36158 -127.62358,41.59951 -174.22572,86.55591 -17.6219,55.47094 -49.62517,-15.2455 -35.97471,-41.73989 10.3201,-76.1894 58.82299,-145.22576 125.0543,-183.11727 71.10245,-33.50916 166.75678,-31.03705 222.02124,31.18168 37.29861,37.63698 83.91013,65.75707 112.13972,111.20689 -5.14224,12.90186 -41.03775,-2.84918 -22.51741,11.67476 -46.11123,2.89803 -85.23539,28.6851 -69.65872,78.86426 -18.85621,55.52751 -27.42602,113.16815 -19.04372,171.73803 4.3272,42.71484 95.09865,8.24783 76.12416,78.39733 -13.14289,29.1371 -61.83473,19.8197 -43.26071,-9.3803 -26.82217,13.358 -77.06759,60.4475 -90.79127,-2.1355 -34.63516,-10.25729 3.13225,53.3819 -36.14975,33.9996 z m 57.23711,-69.49518 c 62.54914,-9.04029 0.19978,-15.21043 0,0 z m 17.52278,-15.37211 c 34.73293,-21.29807 -25.90358,-2.27617 -14.15857,6.11988 l 5.87226,-2.29613 z"
       style="fill:#ac9393;fill-opacity:1;stroke-width:1.27111"
       id="path152" />
    <path
       d="m 549.93025,1372.1477 c -44.34253,-18.6928 -109.86364,-10.2946 -159.22077,-36.787 -71.70525,-24.3493 -138.4823,-75.115 -172.52609,-143.1907 -4.18767,-44.5273 -10.12558,-89.2643 -6.32685,-134.0327 54.79444,23.3606 -21.97249,-107.18608 17.09236,-32.1456 4.26705,22.8522 46.82277,78.7094 24.55824,24.266 -29.93356,-35.3671 -37.47587,-99.75493 -37.73979,-117.26906 20.27641,33.24831 46.65428,103.84776 85.63618,100.21046 -14.39703,-13.6789 -65.75641,-59.73178 -16.89007,-30.535 44.20297,10.543 -37.29769,-31.52497 -35.11806,-51.11344 -12.1035,-19.43079 -38.69827,-74.0142 -34.60593,-74.91549 15.54474,31.68901 56.73015,93.28741 76.71844,87.5438 -27.75546,-32.87984 -73.22111,-80.89879 -75.58355,-114.17151 11.76391,11.92638 59.19961,85.37157 51.38223,37.85387 -60.52374,-30.87928 -34.39503,-95.38122 13.40693,-123.61737 23.60687,-13.52308 71.87307,-26.86209 19.37025,-14.55638 17.68073,-16.74979 106.55819,-28.00055 134.17346,17.02395 35.43497,47.03007 59.17301,102.65496 49.86221,162.43508 0.13631,51.91702 -102.93862,45.10422 -58.48938,110.16489 22.1508,37.6233 54.82236,-15.1755 77.65344,17.703 39.69549,-26.6795 124.57122,16.58 119.49663,-57.48053 -0.85184,-62.93905 -99.40405,-21.27347 -75.36592,-96.51693 -10.26586,-42.517 6.07188,-96.58486 25.7166,-122.95929 -21.11406,4.01367 43.36539,-51.89139 68.61264,-53.77954 58.82818,-25.63169 120.58123,9.60136 169.99583,39.75964 39.63084,27.40205 -2.17429,103.19357 8.76152,116.62756 7.45934,-25.78124 13.12139,-68.78608 21.9163,-78.13457 5.85386,49.95559 -15.84706,58.89716 -20.35919,108.85913 -18.98111,49.04173 -7.33464,100.10043 -13.51729,150.78873 5.51921,42.3069 -5.32907,89.5747 -10.31484,126.3468 -52.22374,89.4273 -149.02461,139.3099 -239.5,181.866 -0.29399,-1.4073 -10.17159,6.046 -8.79553,-0.2438 z M 517.00363,1267.581 c 21.29421,-5.2561 118.39313,7.6889 49.10279,-8.7859 -25.34082,-10.9076 -117.46107,26.7861 -49.10279,8.7859 z m 64.70433,-33.1489 c 40.07302,-9.3367 133.00845,-46.5602 103.83538,-94.0095 -33.61443,-42.6686 -94.91642,-69.966 -138.14656,-25.1112 -32.25565,-4.5036 -67.87295,-34.2924 -97.995,2.0172 -49.5205,31.9871 -52.59876,106.3083 18.13233,109.8831 37.36685,7.2562 76.20412,13.3561 114.17385,7.2204 z m -277.60695,-16.0124 c -26.20956,-14.6711 -33.91362,-41.2712 -39.75098,-68.2977 -4.89535,24.3702 3.13011,78.4778 39.75098,68.2977 z m 421.01985,-14.6791 c 28.47852,-10.4755 35.45921,-78.1787 12.80553,-21.4701 1.12133,14.8365 -48.27355,38.0151 -12.80553,21.4701 z M 489.08072,1072.0758 c 15.67783,-36.1536 -30.98937,35.814 0,0 z m 81.85765,8.0967 c -0.27767,-17.1311 -16.74405,-48.7133 -15.18524,-7.6652 3.05763,3.7393 9.88592,14.7736 15.18524,7.6652 z M 267.91518,866.34696 c 20.59001,-34.98474 91.09745,-112.81953 112.91051,-40.91329 5.08134,72.23082 -105.06176,-2.86144 -30.66727,-17.94143 33.27708,19.99081 -9.26385,52.81011 -11.41407,8.32815 -30.6658,52.74461 65.90359,17.60098 23.15168,-13.02886 -69.38185,-26.10437 -42.91398,92.63318 11.10708,55.39303 13.287,-26.10989 26.49973,-42.9841 40.85982,-5.50077 35.70813,36.01237 -20.46651,-60.8392 -40.27673,-64.33283 -53.00712,-10.93864 -92.47772,48.27818 -110.73719,85.00083 z m 472.39853,-10.55872 c -4.83195,-43.44403 -62.50236,-106.78479 -106.74734,-53.25178 -25.18759,17.79966 -55.07448,73.01173 -15.00811,21.77532 25.4432,-52.49166 28.61668,73.22487 74.51044,19.71187 35.21971,-41.90197 -47.06165,38.13773 -47.73333,-21.98871 -6.60691,-37.24314 60.94455,-33.87694 17.53595,-15.70473 -7.71149,40.36154 36.62087,19.73625 32.45161,-7.03423 20.56378,11.32341 26.05912,51.05316 44.99078,56.49226 z M 624.92566,842.51367 c -3.24762,-4.56005 -3.24762,4.56005 0,0 z"
       style="fill:#ac9393;fill-opacity:1;stroke-width:1.27111"
       id="path154" />
    <path
       d="m 253.12049,1514.9206 c 9.04565,-40.8921 54.89306,5.183 32.44503,-34.7829 6.8141,-54.062 27.24808,11.2727 16.13443,-2.1698 -21.7297,-25.5642 9.22802,47.2736 21.46892,14.5924 -15.98855,-20.8173 -21.33324,-60.5852 3.26083,-17.8944 43.8683,17.5064 -42.83412,-54.4985 6.0543,-21.8154 50.15674,13.319 -26.96908,-56.1117 -13.6997,-85.1943 -2.02579,-18.2083 26.78303,70.5274 38.98912,45.5099 -19.07043,-10.0727 -45.23084,-95.1679 -16.46691,-40.5596 11.70775,27.7439 46.39334,16.6316 10.97871,-4.184 -28.01856,-15.8976 -24.38396,-53.01 10.606,-27.18 54.82178,28.6805 116.11098,46.101 177.72893,50.0437 60.6904,-4.6942 102.7947,-58.2351 159.95161,-73.1964 8.04621,48.8057 7.40552,115.1307 55.51675,149.9253 64.41155,41.8022 -42.32696,34.9295 -73.11927,33.648 -50.21784,-1.9315 -101.34724,11.314 -150.96962,6.6181 -63.59053,-16.8079 -130.57008,-0.7356 -195.31377,0.3502 -27.91396,0.4826 -56.20932,5.4726 -83.56536,6.2892 z m 339.62501,-19.2582 c 28.25586,-25.5447 -43.35962,-115.0958 -14.92954,-48.101 17.56105,8.9371 4.41955,61.8098 14.92954,48.101 z m -132.33391,-20.9975 c -7.90829,-16.8345 5.66196,-75.9028 -12.65338,-30.1197 -11.44322,18.6698 24.9359,81.4609 12.65338,30.1197 z"
       style="fill:#ac9393;fill-opacity:1;stroke-width:1.27111"
       id="path156" />
    <path
       d="m 674.83603,821.94054 c -24.15525,-46.59278 39.47832,-14.1201 0,0 z"
       style="fill:#000000;fill-opacity:1;stroke-width:0.449405"
       id="path158" />
    <circle
       id="path1767"
       style="fill:#000000;stroke:#000000"
       cx="306.30667"
       cy="1316.9275"
       r="0.44474047" />
    <circle
       id="path1767-6"
       style="fill:#000000;stroke:#000000"
       cx="306.30667"
       cy="1316.9275"
       r="0.44474047" />
    <circle
       id="path1767-8"
       style="fill:#000000;stroke:#000000"
       cx="306.30667"
       cy="1316.9275"
       r="0.44474047" />
    <g
       transform="matrix(1.1163198,0,0,1.1911313,-804.75881,85.013977)"
       id="g2572">
      <path
         d="m 951.39796,1138.1246 c -7.93579,-24.5921 13.21815,-45.2734 4.87406,-6.2695 35.88255,-10.103 50.25248,-61.6576 73.78178,-90.7972 28.4998,-34.8354 48.4703,-75.31922 75.6851,-111.26812 30.2259,-51.98749 65.5436,-100.84314 92.8839,-154.61726 35.332,-55.63037 69.9401,-111.75881 106.0664,-166.78126 23.2406,-42.14129 57.1027,-77.67111 78.4596,-121.16741 36.9773,-48.00698 67.7988,-100.48206 98.5521,-152.56407 11.2886,-58.35827 -50.8227,23.26135 -66.3218,38.5211 -34.6565,29.24046 -58.9421,67.91605 -88.9744,101.55479 -36.5823,50.11034 -74.2705,99.42621 -105.1747,153.37039 -41.1914,63.84371 -82.2378,127.77659 -117.1687,195.34513 -34.1835,56.77133 -62.2339,116.93655 -96.164,173.80012 -16.76945,42.07879 -47.0892,77.28859 -61.8229,120.39339 -18.42668,21.2609 13.12462,-39.1371 20.89868,-52.2129 26.14301,-41.6916 45.14692,-87.10144 71.11902,-128.93172 35.6491,-68.52305 74.4419,-135.42444 112.1282,-202.77552 51.1009,-76.79615 95.1566,-158.37116 152.5717,-230.85491 29.7195,-40.34455 60.444,-80.40226 95.3087,-116.32507 28.5081,-28.68841 54.3459,-61.49744 88.3108,-84.15332 11.7028,42.4495 -34.8813,76.44233 -50.4074,113.7316 -27.1054,41.9922 -56.4988,82.30484 -82.3149,125.15858 -31.7769,38.7955 -52.8598,84.2252 -82.638,124.44538 -34.4818,56.41784 -71.5111,111.32506 -102.2172,169.91955 -32.452,46.32836 -57.7408,97.02873 -92.6158,141.70707 -21.3977,41.86216 -55.0571,75.77156 -75.8385,118.19006 -13.63624,13.7922 -27.41336,44.1601 -48.98174,42.5811 z m 182.38534,-5.751 c -0.9082,-40.6109 28.5216,-75.6496 42.2958,-112.9815 24.498,-61.0643 66.5464,-112.61577 98.6015,-169.53865 31.618,-44.33734 57.2145,-92.51579 91.7163,-134.79556 28.7222,-41.72165 62.7826,-79.59027 86.1173,-124.92584 28.4252,-30.42751 40.4038,-69.53266 58.6171,-105.74079 22.2508,-42.20544 51.2264,-81.50877 67.8186,-126.12111 21.459,-50.35113 75.7418,-4.44466 42.8474,30.78771 -18.1391,35.86616 -36.1328,72.76602 -61.7401,104.20829 -36.9749,66.83451 -75.7396,132.63717 -115.0909,198.10906 -54.5753,77.55871 -104.8726,157.77168 -154.3543,238.60958 -27.9754,39.91955 -50.8637,82.96891 -81.4807,120.87501 -26.2326,24.9984 -36.8744,76.183 -75.348,81.5138 z m 16.4212,-8.8897 c 30.8098,-29.5921 48.7984,-71.4158 78.2234,-103.3825 38.6129,-59.90398 77.277,-120.01275 114.7886,-180.61424 38.5359,-65.03707 85.507,-124.87397 123.3152,-190.42927 31.3394,-53.17985 61.7409,-106.97248 93.2559,-160.00003 26.1582,-34.20118 44.8932,-73.4795 63.0637,-112.1137 14.3963,-49.68343 -47.3786,-39.36555 -45.9676,0.55529 -25.4976,43.3717 -51.5674,86.79471 -74.1899,131.82438 -12.4434,46.2919 -50.5312,78.63899 -70.6862,121.26246 -41.3986,58.22839 -87.7934,113.20498 -123.6359,175.23786 -36.9538,51.95251 -67.8771,107.63081 -102.7912,160.9374 -23.6518,49.22525 -48.9466,98.16395 -67.3791,149.59515 -3.1433,10.9709 3.7904,16.7475 12.0031,7.1272 z m -371.07324,-11.5281 c 6.88198,-41.9644 21.16089,-81.7963 32.5989,-122.55451 34.74846,-75.5433 67.59113,-152.10259 110.39644,-223.64338 62.80928,-117.18064 134.5334,-229.96648 218.6031,-333.12015 54.1055,-72.08005 116.3406,-138.74067 187.508,-194.1619 18.2345,-11.28682 84.0294,-70.43235 55.3634,-20.1835 -30.6497,44.54822 -68.0764,84.69209 -99.5253,128.97518 -57.4649,71.95424 -112.929,145.50301 -167.4286,219.73938 -47.0311,65.32269 -96.2438,129.13364 -138.21376,197.89836 -43.88155,70.15609 -84.39492,142.43036 -120.70919,216.81928 -27.72107,40.79754 -40.09424,90.38154 -68.24894,130.09594 -2.10285,1.335 -15.12267,17.1853 -10.34405,0.1353 z m 12.3734,-5.8979 c 32.10278,-72.8383 71.77455,-142.36731 107.68127,-213.65179 32.49354,-55.91869 63.93267,-112.47668 100.33495,-166.00443 47.47892,-72.57676 101.53262,-140.69346 151.77962,-211.43288 49.9276,-65.55851 99.6914,-131.34443 150.804,-196.03044 25.2879,-37.76729 61.4981,-68.41644 81.1514,-109.5471 -23.2787,-1.56437 -71.2269,46.8466 -98.8714,68.91441 -62.8539,54.48052 -115.3064,119.65531 -164.9179,186.13216 -96.9633,123.00552 -173.42674,260.40444 -245.66286,398.89759 -21.66762,52.85173 -51.91798,102.31559 -66.65508,157.72248 -9.13337,26.2181 -12.85333,31.2691 3.9826,10.5876 -6.11382,17.2027 -36.46757,72.529 -19.6266,74.4124 z m 90.2933,-30.7933 c 9.0732,-30.176 31.5451,-60.8527 44.57598,-91.77378 34.3005,-57.41352 63.84331,-117.58522 98.29926,-174.86989 33.4272,-50.28956 65.0247,-101.86673 103.1776,-148.87763 12.7397,-14.34522 49.2716,-60.97548 55.7086,-48.26906 -20.0399,42.35837 -48.8986,79.93293 -72.2369,120.56282 -43.0173,72.03612 -89.1467,142.21573 -126.98206,217.17152 -30.32448,39.6426 -47.71717,92.26152 -93.95408,117.27732 -2.75271,0.3026 -6.75577,14.2152 -8.5884,8.7787 z m 32.7402,-29.4441 c 29.63618,-35.3505 52.94133,-75.84263 75.32213,-115.87605 49.05811,-89.83117 105.37391,-175.4489 157.63561,-263.32236 13.0114,-12.19456 48.372,-80.87653 14.0536,-38.80833 -31.2594,27.39984 -53.1514,64.10979 -78.5465,97.02895 -31.654,50.76595 -67.6382,99.0092 -92.78874,153.55383 -35.00375,59.6252 -68.37797,120.27045 -98.6149,182.26366 7.11368,0.3631 16.76448,-10.2994 22.9388,-14.8397 z M 1176.7313,896.79122 c 1.2401,-39.46878 33.0763,-75.01914 55.8631,-106.2821 38.8238,-55.2712 83.2486,-106.51616 120.5748,-162.78456 10.5237,-19.71574 56.4358,-75.93454 57.3132,-64.56461 -34.7342,26.55583 -53.5477,67.19235 -79.5463,101.41244 -41.5362,56.74128 -86.8736,110.93924 -126.0798,169.17475 -11.2311,12.19639 -39.6824,82.69912 -5.8385,45.71681 46.8613,-52.13182 79.629,-114.89793 116.6146,-174.01951 28.8886,-40.93863 56.371,-83.22084 85.9762,-123.58546 11.6896,-18.25799 39.5474,-50.47924 13.3301,-12.58911 -30.8118,34.14215 -49.0169,77.24989 -80.1796,111.30027 -44.739,70.74216 -83.0803,146.94078 -140.815,208.42357 -4.8533,2.99112 -10.2846,13.49612 -17.2128,7.79751 z m 11.7334,-357.22136 c 30.2387,-50.48731 64.9913,-98.30603 97.4789,-147.28537 9.3287,-16.60749 59.6047,-49.27274 19.6747,-16.86631 -37.3943,38.27188 -59.6707,88.27629 -93.0592,129.94901 -12.6004,18.23481 -21.2578,40.5373 1.5061,13.49827 32.233,-40.62909 78.5622,-69.54981 102.8053,-116.4494 13.7664,-15.292 46.5778,-80.3625 23.8528,-28.44386 -24.0748,36.17954 -47.7621,72.16596 -80.9356,100.99768 -26.1038,17.84765 -42.827,56.07501 -71.323,64.59998 z"
         style="fill:#000000;stroke-width:1.33333"
         id="path1749" />
      <path
         d="m 1301.9873,384.2118 c 7.0095,-4.17636 13.638,-9.0298 19.6183,-14.58807 2.8503,-2.6492 5.5504,-5.57926 8.2275,-8.40122 2.1207,-1.98698 4.6234,-6.04396 7.3224,-7.45534 0.3901,-0.20396 0.8664,-0.17327 1.306,-0.19538 0.5256,-0.0264 1.1341,-0.23229 1.578,0.0504 0.3485,0.22194 -0.8183,0.11523 -1.2275,0.17285 1.3477,-0.0764 12.1591,-0.1263 5.2767,-0.10501 -0.023,-0.10417 1.0257,0.13171 0.9405,0.0671 -0.3553,-0.26956 -0.8594,-0.30261 -1.2015,-0.58883 -0.9799,-0.81991 -1.1864,-1.30409 -1.7084,-2.23652 -1.3383,3.31698 -2.3876,6.74167 -3.6299,10.09762 -1.0923,3.42467 -2.9269,6.42218 -5.0509,9.28476 -1.0354,1.6733 -2.2769,3.20523 -3.4047,4.81216 -0.3963,0.56461 -0.7296,1.17296 -1.1436,1.72471 -0.5443,0.72544 -3.3281,3.86044 -3.5952,4.16475 -3.9068,4.71691 -1.9296,2.28566 -5.9255,7.29882 -0.4362,0.7275 9.8521,6.89688 10.2884,6.16939 v 0 c 3.7218,-5.28331 1.9882,-2.68752 5.2259,-7.77041 0.5645,-0.90838 2.3075,-3.74304 3.0412,-4.82913 1.5201,-2.25029 3.6037,-4.10296 4.8079,-6.58056 2.1513,-3.61144 4.4863,-7.15681 5.8971,-11.14676 1.5616,-4.17929 2.9863,-8.46609 3.4745,-12.92183 -0.1115,-0.95198 0.012,-1.96216 -0.3345,-2.85593 -0.964,-2.48844 -1.8345,-2.99755 -4.0178,-3.91837 -0.3215,-0.13558 -0.9038,0.2098 -1.2236,-0.0319 -0.9397,10e-4 -1.8795,0.01 -2.8191,0.003 -0.148,-10e-4 -0.5911,-0.0273 -0.4431,-0.0259 0.859,0.008 1.7225,0.13724 2.5768,0.0469 0.3378,-0.0357 -0.6643,-0.14177 -0.9962,-0.21406 -2.0222,-0.44049 -0.7559,-0.19236 -3.1128,-0.60511 -3.9183,0.016 -5.484,-0.39695 -8.8952,0.79189 -5.0676,1.7661 -8.8921,5.71314 -12.7027,9.29869 -1.2747,1.21383 -2.5194,2.45994 -3.824,3.6415 -7.1991,6.51999 -15.1314,12.23537 -21.8289,19.3032 -0.5333,0.5306 6.9706,8.07299 7.5039,7.54239 z"
         id="path1761"
         style="fill:#000000" />
      <path
         d="m 1391.1371,586.80516 c 0.5865,-0.45302 1.2073,-0.86493 1.7596,-1.35907 5.8068,-5.19519 10.9045,-12.15233 15.341,-18.50493 3.276,-4.86701 6.9193,-9.06828 11.6798,-12.52026 0.497,-0.36038 3.9049,-2.49354 4.5282,-2.88565 2.3752,-1.38375 3.94,-1.96788 5.2985,-4.6017 0.2262,-0.43869 0.2429,-0.95685 0.3643,-1.43528 -0.017,0.11079 0.058,0.35755 -0.052,0.33237 -3.2544,-0.74984 -6.3528,-2.31496 -9.6823,-2.5752 -0.6719,-0.0525 -0.7166,1.14282 -1.0333,1.73767 -1.4187,2.66488 -2.2723,5.50941 -3.2197,8.36277 -0.9195,3.84771 -3.1551,7.08811 -5.2257,10.38525 -0.3472,0.7104 9.6994,5.62154 10.0466,4.91114 v 0 c 2.2926,-3.9729 4.6753,-7.95011 5.7884,-12.45153 0.7559,-2.41356 1.3173,-4.88135 2.1582,-7.26519 0.1589,-0.45072 0.901,-1.05734 0.5144,-1.33833 -2.6041,-1.89263 -5.5674,-3.27731 -8.5459,-4.49881 -0.2855,-0.11709 -0.1677,0.59394 -0.2516,0.89092 0.4464,-1.43337 0.032,-0.4072 1.4176,-2.30726 0.048,-0.0652 0.1867,-0.23178 0.1072,-0.21719 -1.4414,0.26472 -3.1695,1.26535 -4.5284,1.65184 -2.2214,1.13305 -3.7823,1.86029 -5.9226,3.29203 -5.7046,3.81594 -10.2659,8.98528 -14.2361,14.53218 -4.5635,6.7005 -9.2043,13.35297 -14.1995,19.74179 -0.4329,0.55812 7.4601,6.68056 7.893,6.12244 z"
         id="path1763"
         style="fill:#000000" />
      <path
         d="m 963.2198,1098.8996 c 1.73069,-6.0125 2.1305,-12.2782 2.83223,-18.4628 0.51146,-4.5077 0.26955,-1.5934 0.45211,-3.9448 -3.94909,0.7805 -7.89818,1.5611 -11.84726,2.3416 -0.68282,-0.6017 -1.34572,-2.3833 -2.04845,-1.805 -1.12216,0.9234 -0.6387,2.8356 -0.93335,4.2587 -1.70082,8.2146 -2.79968,16.4622 -3.87767,24.7785 -0.88829,8.2482 -1.46744,16.5511 -1.41289,24.8521 0.01,1.4793 0.0294,2.9628 0.18088,4.4343 0.0624,0.6058 -0.14736,1.6998 0.45772,1.7687 4.72562,0.538 9.51209,-0.061 14.26813,-0.092 1.49913,-5.7233 0.7808,-2.6285 2.07073,-9.3037 0.11126,-1.1415 -16.0316,-2.7148 -16.14285,-1.5734 v 0 c -0.31362,7.0582 -0.40384,3.8212 0.0585,9.7144 4.66602,0.8799 9.25484,2.4211 13.99806,2.6396 0.71475,0.033 0.68648,-1.2676 0.88882,-1.9539 0.4278,-1.451 0.72146,-2.94 0.99284,-4.4282 1.47579,-8.0929 2.01997,-16.3098 2.85344,-24.482 0.64089,-8.3537 0.84413,-9.961 1.17332,-18.0813 0.0279,-0.6872 0.37746,-10.3962 0.10999,-12.0586 -0.38341,-2.383 0.41079,-6.1534 -1.8492,-7.0008 -3.96463,-1.4866 -8.4025,1.0543 -12.60374,1.5814 -0.44628,0.8875 -0.99091,1.7321 -1.33883,2.6625 -2.66392,7.1244 -2.52294,15.6466 -2.69737,23.1466 -0.0713,1.0193 14.34355,2.0276 14.41485,1.0083 z"
         id="path1765"
         style="fill:#000000" />
      <path
         transform="translate(779.13126,194.39126)"
         id="path1771"
         d="m 185.90158,929.76622 c 0.53743,-1.88865 1.3911,-14.1678 1.89704,-27.28702 l 0.91989,-23.85311 12.95328,-21.91306 c 7.12431,-12.05218 16.81726,-29.85348 21.5399,-39.55844 4.72264,-9.70496 11.93681,-23.43481 16.03148,-30.51078 4.09468,-7.07598 19.88044,-36.0754 35.07949,-64.44316 15.19904,-28.36777 33.97769,-62.6924 41.73035,-76.27696 7.75265,-13.58457 19.21746,-34.17934 25.47736,-45.76618 15.57782,-28.83398 45.47602,-78.59303 75.48167,-125.62277 13.78392,-21.60441 29.83817,-47.12638 35.67611,-56.71548 40.23255,-66.08393 129.03419,-183.58667 169.09384,-223.74574 9.56537,-9.58911 25.81692,-26.75063 36.11457,-38.13673 24.98377,-27.6245 37.78217,-37.87528 43.14796,-34.55903 0.84451,0.52194 1.53548,4.63623 1.53548,9.14288 0,7.9622 -0.59244,9.18208 -20.95004,43.13787 -26.24451,43.77493 -47.12599,76.05034 -65.2978,100.92736 -7.7681,10.63443 -15.99064,23.0217 -18.27233,27.52726 -5.33241,10.52974 -17.80217,29.45446 -39.69286,60.23989 -9.60969,13.51435 -21.52958,31.19594 -26.48863,39.29245 -4.95905,8.0965 -17.84348,28.45075 -28.63206,45.23168 -39.1935,60.9629 -86.5926,136.78609 -91.12301,145.76727 -9.35019,18.53597 -70.10845,117.38194 -93.03102,151.34964 -6.20142,9.18956 -19.62321,29.78434 -29.82619,45.76618 -10.20298,15.98184 -24.92511,37.55732 -32.71585,47.94551 -7.79074,10.3882 -19.25355,27.71396 -25.47292,38.50171 -18.99434,32.94646 -31.58923,49.19843 -42.76128,55.17753 -3.18008,1.70192 -3.33064,1.60097 -2.41443,-1.61877 z"
         style="fill:#800000;stroke-width:1.45289" />
      <path
         transform="translate(779.13126,194.39126)"
         id="path2342"
         d="m 360.66551,931.90174 c -4.665,-4.66498 9.32782,-40.2246 45.35632,-115.26296 15.27673,-31.8176 24.61341,-48.97845 40.31421,-74.09761 11.23818,-17.97957 28.15244,-45.11237 37.58726,-60.29512 9.43481,-15.18275 24.16293,-38.06584 32.72916,-50.85131 8.5662,-12.78547 20.65029,-31.41884 26.85352,-41.40749 14.09623,-22.69825 30.36535,-45.66319 70.42164,-99.40484 33.34887,-44.74261 36.84954,-49.76339 47.99416,-68.83484 3.87398,-6.62944 14.48341,-22.6476 23.57648,-35.59592 9.09308,-12.94831 19.06516,-27.74905 22.16016,-32.89052 6.22087,-10.33422 15.21641,-30.10887 15.24481,-33.51224 0.0286,-3.42818 26.64897,-52.48984 51.71903,-95.31873 17.07971,-29.17846 23.16229,-40.85165 24.01799,-46.09327 1.64136,-10.05446 7.42833,-19.08054 15.12523,-23.59122 18.35371,-10.756 32.67131,-2.25162 30.80781,18.29926 -0.5889,6.49456 -3.67173,13.91927 -16.04835,38.6511 -17.55186,35.07332 -26.20152,50.22144 -40.95851,71.7305 -5.75655,8.39046 -20.92285,33.23496 -33.70289,55.20998 -88.83271,152.74609 -82.65056,142.63431 -131.90832,215.75483 -17.76422,26.37003 -49.2675,75.07832 -70.00731,108.24063 -52.88319,84.55865 -103.93336,163.32607 -112.5259,173.62089 -4.00176,4.79455 -15.69034,21.13961 -25.97463,36.32236 -31.23662,46.1148 -47.60059,64.5078 -52.78187,59.32652 z"
         style="fill:#ff0000;stroke-width:1.45289" />
      <path
         transform="translate(779.13126,194.39126)"
         id="path2344"
         d="m 9.7792508,909.61217 c -1.4549119,-1.4549 -1.6939107,-3.04006 -1.2852698,-8.52456 0.5865191,-7.87185 4.640946,-19.19633 16.20521,-45.263 4.386844,-9.88826 7.769075,-18.19686 7.516067,-18.46356 -0.253007,-0.26669 -2.72596,2.04485 -5.49545,5.13676 -2.76949,3.09191 -5.055452,5.21296 -5.079915,4.71343 -0.02446,-0.49951 1.520687,-5.35375 3.433666,-10.78719 1.912978,-5.43342 5.430322,-16.12012 7.816318,-23.7482 7.330713,-23.43646 14.225378,-39.79703 37.233361,-88.35223 7.36304,-15.53869 15.902957,-34.03102 18.977593,-41.09406 10.613368,-24.381 60.630319,-117.63082 95.506029,-178.05802 46.57896,-80.70478 92.98773,-151.61756 137.9542,-210.79453 7.72841,-10.17078 21.60863,-28.43195 30.84493,-40.58038 47.9155,-63.02285 90.29318,-111.85719 126.8083,-146.12884 19.21496,-18.034393 70.71467,-62.300617 84.26497,-72.429373 16.2438,-12.142131 30.63985,-19.787342 37.25986,-19.787342 1.77596,0 -2.07984,7.748175 -9.69116,19.47423 -7.90121,12.172665 -15.44823,21.909983 -36.64236,47.276724 -10.13778,12.13364 -22.3626,27.389811 -27.16629,33.902601 -4.8037,6.51279 -15.9742,21.0876 -24.82333,32.38847 -43.65625,55.75161 -123.85991,160.90065 -145.36234,190.5737 -8.39383,11.58339 -28.91428,39.55303 -45.601,62.15477 -69.59919,94.27038 -107.11611,149.62605 -145.1744,214.20279 -28.41177,48.20863 -47.80861,82.58663 -61.44343,108.89926 -8.051921,15.53869 -21.921134,42.12141 -30.820473,59.07271 -20.653516,39.34044 -43.607037,85.24724 -54.449918,108.89926 -4.662628,10.17078 -8.594597,18.62992 -8.737709,18.79809 -0.143111,0.16816 -1.064468,-0.49852 -2.0474592,-1.48151 z"
         style="fill:#ff0000;stroke-width:1.02735" />
      <path
         transform="translate(779.13126,194.39126)"
         id="path2346"
         d="m 114.05705,864.3868 c 0,-1.03903 27.55601,-54.58963 40.35434,-78.42209 13.08172,-24.36016 36.38223,-66.01465 48.56008,-86.8112 4.63222,-7.91061 11.94026,-21.41105 16.24009,-30.00098 12.81439,-25.59979 23.5177,-43.25842 64.635,-106.63678 22.53087,-34.72915 60.78636,-87.84836 74.72788,-103.7625 10.73082,-12.24913 37.3679,-38.89376 37.74671,-37.75737 1.1563,3.46892 -14.13725,32.34008 -24.17643,45.64024 -3.125,4.14007 -12.34859,18.56813 -20.49687,32.06236 -8.1483,13.49422 -27.6571,45.39348 -43.3529,70.88725 -48.8062,79.27301 -68.64856,112.79257 -100.72153,170.14816 -29.31729,52.42765 -57.67214,95.54571 -73.04881,111.08235 -8.41691,8.50448 -20.46756,16.4944 -20.46756,13.57056 z"
         style="fill:#ff0000;stroke-width:1.02735" />
      <path
         transform="translate(779.13126,194.39126)"
         id="path2348"
         d="m 421.78365,333.67321 c 1.64064,-5.52054 9.49733,-18.47156 19.21828,-31.67954 5.7651,-7.8331 19.67085,-28.46978 30.90167,-45.85928 30.1965,-46.75544 44.93583,-66.28443 50.18799,-66.49696 4.2779,-0.1731 13.69716,-7.20782 25.84553,-19.30259 6.1187,-6.09171 11.5409,-10.81874 12.04932,-10.50451 1.35075,0.8348 -2.56113,10.40881 -6.69188,16.37781 -1.96406,2.83811 -5.8914,7.93405 -8.72741,11.32431 l -5.1564,6.16411 2.51679,2.23087 2.5168,2.23087 -3.57794,4.96059 c -1.96786,2.72833 -6.22779,9.22459 -9.46651,14.43614 -10.33132,16.62459 -22.30765,30.3819 -50.50348,58.01378 -15.01483,14.71452 -30.45534,30.28248 -34.31225,34.59548 -22.90493,25.61347 -26.41469,28.94043 -24.80051,23.50892 z"
         style="fill:#ff0000;stroke-width:1.02735" />
      <path
         transform="translate(779.13126,194.39126)"
         id="path2350"
         d="m 405.44146,694.8319 c -2.75415,-2.75414 2.26919,-20.57431 10.65458,-37.79687 7.33551,-15.06622 30.28546,-47.4789 73.47162,-103.76544 48.33343,-62.9952 68.07344,-89.72556 86.55132,-117.20089 23.24528,-34.5641 31.1151,-44.67064 34.16364,-43.87343 2.69155,0.70386 9.26064,-5.36161 16.09342,-14.85963 3.89296,-5.41145 6.49352,-7.81201 6.49352,-5.99409 0,0.23477 -7.5445,10.98343 -16.76555,23.88592 -9.22107,12.90249 -25.48322,36.17255 -36.13813,51.71124 -10.65492,15.53869 -24.98935,36.34256 -31.85429,46.23082 -13.03685,18.77826 -16.13399,23.70605 -45.52134,72.42828 -28.43482,47.14299 -46.40538,73.92474 -66.54547,99.17353 -16.37647,20.53051 -28.3612,32.30268 -30.60332,30.06056 z"
         style="fill:#ff0000;stroke-width:1.02735" />
      <path
         transform="translate(779.13126,194.39126)"
         id="path2352"
         d="m 186.27166,930.49397 c 0.35305,-0.92004 1.19513,-12.89221 1.87128,-26.60482 l 1.22938,-24.93204 12.22183,-21.06925 c 6.722,-11.58808 16.19523,-28.92849 21.05162,-38.53423 4.85638,-9.60573 13.55928,-26.01767 19.33977,-36.47098 5.78049,-10.4533 21.1415,-38.6541 34.13558,-62.66844 28.96999,-53.53939 75.8817,-137.90046 88.92032,-159.9049 25.58787,-43.18304 84.63326,-137.51966 109.14203,-174.37588 35.21308,-52.95332 86.15821,-120.75912 123.20807,-163.9847 6.05393,-7.06304 21.94242,-24.3996 35.30774,-38.52568 48.36081,-51.11351 57.7327,-60.06459 64.72603,-61.8198 3.32386,-0.83424 4.24216,0.98174 4.26108,8.4265 0.0204,8.05973 -2.47176,13.21908 -22.04031,45.62733 -25.39355,42.05525 -39.23597,63.34504 -70.44369,108.34313 -5.055,7.28875 -10.99296,16.53491 -13.19549,20.54703 -5.16072,9.40072 -17.14186,27.5226 -36.06724,54.55292 -18.82106,26.88129 -18.87053,26.95701 -62.58295,95.77851 -57.76883,90.95213 -77.8253,123.30811 -91.55699,147.70379 -29.45026,52.32128 -115.08857,186.24989 -154.98069,242.37226 -5.59058,7.86512 -15.41809,23.01603 -21.83892,33.66868 -13.95776,23.15701 -22.36726,35.16091 -30.45023,43.46538 -6.52599,6.70482 -13.41956,11.43158 -12.25822,8.40519 z"
         style="fill:#ff0000;stroke-width:1.02735" />
    </g>
  </g>
</svg>
