<svg xmlns="http://www.w3.org/2000/svg" width="927.007" height="1279.335"><path d="M691.321 1628.667c-52.382-15.229-106.327-14.766-159.727-16.444-44.187-7.374-102.805 16.055-138.15-1.755 30.346-2.712 63.868-76.846 63.034-64.264-35.986 36.49 33.472-44.733 12.636-69.988 9.672-50.713 5.567-106.84-48.11-126.446-34.118-36.547-92.41-98.116-86.95-138.101-4.392-18.531-28.526-105.088-77.37-119.034-26.724-48.9 18.836-108.532-20.676-156.22-32.373-71.623-29.32-154.21-12.163-229.381 30.138-49.242 27.715-126.83 85.218-155.117 33.212-54.23 64.498-112.546 127.418-136.748 50.964-48.172 118.774-59.05 185.877-61.14 80.31-16.975 153.438 32.682 208.581 85.404 43.382 37.565 55.253 94.901 83.258 142.222 18.401 25.369 33.817 65.928 57.293 22.474 70.15-38.321 107.276 69.431 63.99 114.232-60.06 45.34-5.05 126.165-27.138 181.113-7.587-66.06-6.946 38.503-26.115 57.773-29.749 36.73 12.417 122.248-53.93 151.176 7.665 61.673-58.985 99.304-84.185 150.535-18.504 54.006-65.544 84.42-103.7 123.457-15.392 50.638-7.97 112.444 12.411 159.754-4.248 38.994 97.152 95.237 17.77 78.466-26.508 1.736-52.46 13.148-79.272 8.032m27.466-4.11c27.06-10.034 89.033-1.737 44.248-41.83-37.292-54.272-39.375-121.952-43.519-184.236-20.337-9.226-27.166 27.76-56.23 16.165-26.95 4.156-81.218 11.538-107.257 15.378-17.73 4.443-25.302-41.949-57.971-41.965-60.751-7.629 42.664 56.877 37.29 65.772-24.483-8.662-71.253-64.652-48.28-5.768 6.817 31.747 82.443 60.609 21.863 30.461-20.807-17.354-36.688-30.465-17.806 2.191 10.142 15.528 62.024 47.122 15.63 27.386-14.233-19.366-39.88-41.039-22.967-2.341 2.641 21.804 78.39 75.416 24.097 47.339-30.706 12.383-38.271-41.593-8.504-5.318-8.144-31.204-34.013-46.81-32.08-3.877-11.85 22.333-83.053 76.571-16.833 67.576 68.662-9.325 140.803-5.586 208.435 4.145 19.796 3.979 39.813 6.77 59.884 8.922m-243.299-24.83c-32.88-.248-40.382-36.518-2.267-8.363 13.469 1.03 23.226 11.385 2.267 8.363m14.909-9.793c-32.467 2.998-31.181-63.356-12.128-14.829 4.385 5.909 43.45 14.245 12.128 14.83m12.435-7.059c-30.536 1.335-42.266-61.114-14.101-16.237 5.852 5.732 42.443 16.043 14.1 16.237m53.483-155.208c6.338-21.483-14.311 2.057 0 0m46.642-9.595c-10.382-1.626-3.99 11.095 0 0m16.031-1.155c-3.952-5.189-4.936 6.682 0 0m20.5-1.418c4.737-8.872-9.33 1.157 0 0m26.977-4.772c-2.16-21.26-15.232 17.727 0 0m26.936-4.896c.4-35.396-16.322 26.231 0 0m-124.928.336c-.38-11.784-4.232 5.826 0 0m14.486-1.222c-3.134-34.195-62.981-96.288 8.303-97.72 35.25-2.72 63.034 6.86 50.665 39.253 17.07 26.537-25.159 73.056 26.514 53.497 46.397 1.801 56.606-78.656 92.73-54.226 30.786-35.245 78.472-75.79 94.044-111.052-8.412 21.097-58.237 66.058-59.374 55.215 20.676-6.425 56.599-48.643 53.068-59.198-19.528 24.67-47.717 32.815-8.975 6.722 32.835-37.575 36.877-51.865 64.464-96.265 1.947-32.627.171-81.15 13.996-124.63 3.961-20.775 32.058-57.628 19.471-58.958 6.696-22.448 4.783-119.704-4.83-52.738-.076 23.738-25.878 125.467-17.68 59.172 15.622-55.825 23.71-117.972 18.126-172.005-4.785 49.569-12.649 11.458-7.535-6.51-4.265 38.61-6.86 29.294-14.987-2.806-41.856-15.101-97.606-6.78-146.152 4.609-32.404 17.034-80.817 28.427-102.132 69.414-19.662 15.437-10.41 91.13-22.42 76.26-5.685-47.193-4.223 82.096 7.315 35.71-6.947 43.308 10.71 75.29 56.728 66.624 40.267 1.826 58.432 40.08 9.003 50.027-34.642 18.295-77.464 22.026-102.813 56.952 18.635-55.335 69.784-70.173 117.25-78.009 34.674-8.195-44.664-30.69-61.84-26.794-58.734-24.119-35.147-120.288-15.778-168.752 27.024-41.525 26.793-100.55 68.462-132.19-18.914 44.645 31.761-40.407 9.56 16.799 10.799-25.317 34.688-56.459 16.362-8.363-12.106 35.37-4.438 40.19 4.95 3.058 30.333-53.953 9.374 9.89 3.366 32.426 10.413-8.467 45.318-74.398 28.615-19.996-8.63 36.826 42.469-53.893 23.61 2.858 37.366-37.536 8.334 29.848 25.223.483 10.583-11.33 23.882-23.59 14.807 1.915 19.616-13.12 40.541 5.78 35.53-2.853 42.546 47.16 11.6-80.418-4.813-43.615-3.071-23.035-43.923-101.74-30.983-43.183 7.878 27.91 3.634 64.841-5.008 14.393-.567-26.759-35.824-101.217-41.849-82.972 9.208 22.634 32.263 78.26 16.19 81.752-1.548-31.972-35.408-111.913-14.927-39.137 8.933 29.988 4.417 78.654-11.4 21.274-11.959-22.976-49.607-81.372-26.575-25.025 18.744 67.95-22.684-34.051-43.027-41.456 10.624 25.903 8.555 31.202-3.062 30.063 16.948 20.893 20.203 63.602-1.797 22.655-20.091 24.317-.272-34.01-23.462-41.947-26.69-55.371-87.514-89.746-148.695-79.294-26.664.618-83.552 26.92-25.896 9.338 52.836-20.755 144.946 12.847 140.687 68.468-9.957-22.635-52.307-68.355-47.128-44.72-59.601-30.724-126.984-9.888-187.79 4.543-31.493 38.944-73.193 72.385-108.359 110.887-31.616 38.421 7.637 78.584 48.677 54.56 31.027.59 97.34 1.408 107.248 15.318-45.428 2.963 24.213 50.764 23.408 76.426 43.598 48.77 61.416 110.715 58.516 174.734-2.694 63.216-15.505-41.431-13.866-62.02.706-58.785-48.136-103.541-95.702-129.864-23.676 8.798-60.481-22.694-64.411 4.643-32.181-19.883-31.688 20.09-65.221 5.147-37.85-6.307-38.218.739-23.2 35.177 13.12 87.936 94.88 7.866 145.17 9.55 48.005-2.623 72.63 74.22 15.513 74.929-40.583 29.368-113.144-28.879-129.33-10.751 12.538 25.156 80.668 101.32 20.99 54.624-18.367-21.332-37.845-72.697-49.668-77.746 18.889 62.123 57.956 114.272 101.88 160.94-48.588-18.192-62.187-73.759-92.43-110.574 20.64 51.864 58.285 123.952 94.434 144.958-43.06 7.659-73.699-98.446-79.06-85.935 11.412 42.256 64.827 98.14 76.293 116.405-47.183-11.503-57.494-90.751-85.61-99.757 13.573 26.824 14.272 37.063 13.256 51.725 17.872 28.17 20.016 54.412-5.723 12.988-9.614-27.145-18.109-98.542-14.68-30.23 14.995 48.719 29.955 96.93 48.21 144.606 24.215 49.617 47.463 102.97 96.008 133.29 25.225 8.564 79.953 63.876 91.134 32.327-7.445-3.313-25.44-9.24-32.283-29.881-6.216 31.748-66.595-32.909-24.193-7.732 22.066 19.613 36.913-11.466 45.595 26.415 20.516-22.205 28.245 63.254 38.78 14.984 12.519-45.918 3.73 30.129 20.513 20.79m-127.47-51.301c10.47-17.667-.677 14.148 0 0m129-62.706c-32.12-11.377-94.657-5.382-107.958-28.966 18.352-30.178 7.182-17.257 14.305-4.482 51.548-13.188 104.1-5.19 153.57-12.953 37.436-1.602 94.394-3.895 106.892-9.64 11.637 17.011-23.996 57.71-17.785 19.043-42.663 14.988-82.087 43.95-129.972 37.729-6.357.036-12.72-.162-19.053-.731m56.5-6.8c21.47 1.123 96.215-34.175 37.269-16.793-51.368 9.002-151.448 1.469-172.78 1.725 44.694 7.836 89.687 22.071 135.51 15.068m2-19.345c20.68 4.247 110.02-16.641 44-17.876-53.6 10.088-108.713 4.517-161.376 11.024-5.187 14.456 70.284 4.564 92.682 7.96l12.341-.45zm106.429-14.626c-1.498-9.443-2.138 13.347 0 0m32.07 28.25c2.392-5.526 2.392 5.526 0 0m-367-31.954c-52.954-5.132-61.286-98.118-6.387-105.23 30.54 14.19 9.576 65.128-1.404 31.623-11.487 67.806 83.063 2.825 110.001-10.244 46.942-39.066 121.282 20.389 64.591 61.987-44.651 13.145-98.03-11.13-141.22 18.993-7.114 6.493-17.097 3.306-25.58 2.87m31.142-5.421c43.539-25.932-51.349 1.72-62.219-24.615 14.586 12.393 43.525 37.427 62.219 24.615m-15.07-15.213c39.104-16.044 82.786-5.508 124.91-.115 81.234-1.42 17.098-102.736-38.822-61.362-28.984 17.745-112.194 79.216-118.852 17.1 1.991-40.892-23.759 55.522 19.427 43.078-3.671-1.144 21.809 4.981 13.337 1.299m126.428-12.58c-44.307-14.425 48.226-3.6 0 0m-84.9-5.213c24.968-7.744 69.202-22.038 86.415-6.264-29.025-3.855-57.578 5.758-86.416 6.264m6.9-7.123c12.97-15.042 86.415-16.87 33.296-24.177 23.774-21.427 96.105 26.041 31.204 12.831-22.057-1.488-43.422 6.012-64.5 11.346m-92.538-24.416c30.649-9.47 30.005-36.305-.994-21.347-16.166 17.904-5.515 70.892.994 21.347m94.038 64.032c7.596-25.288 11.567-1.177 0 0m169.416-11.027c-66.607-16.29-13.89-107.967 33.206-62.505 38.873-2.652 136.778 42.046 118.748-32.05-58.55.79 15.371-62.847 26.776-10.4 33.97 67.359-48.28 97.3-100.95 82.148-31.635-3.271-45.581 33.91-77.78 22.807m35.558-7.19c33.713-19.776-73.685-26.409-57.538-22.08 10.845 19.702 36.157 30.606 57.538 22.08m36.939-20.595c25.288-.073 118.28-34.301 95.558-26.351-6.56 35.712-103.76 15.506-30.565 31.3 68.856 7.45 31.94-136.368.835-80.132 46.444-22.341 23.807 76.084-25.459 60.964-37.315 14.195-100.324-.551-122.106 3.273 26.354 6.73 54.34 21.843 81.737 10.946m-94.08-21.501c31.978-2.722 101.207 6.277 104.967-1.635-34.033 6.47-85.743-25.953-111.527-4.896-2.505 6.267.888 24.619 6.56 6.531m81.667 7.675c-25.965-1.68-48.121-1.783-8.764.377-2.636.225 30.055 1.383 8.764-.377m-108.145-33.467c-29.98-49.32-95.147-35.405-135.013-63.848-41.75-40.71 74.416-52.426 76.786-42.437-30.3 1.447-110.347 22.218-43.361 46.522 25.153-6.942 62.151-35.683 63.482 9.222 9.354 16.788 52.484 26.44 38.106 50.54m-46.355-49.13c-2.726-3.404-3.113 6.244 0 0m-22.362-25.6c-14.905 1.461-17.129 17.465 0 0m11.362-33.777c-3.612-4.277-12.008 6.213 0 0m34-9.932c5.492-38.599 70.845-2.07 21.556-2.825l-9.917 1.102zm-124.914-28.818c8.099-18.64 11.837-6.321.853 2.25zm273.428-11.872c-24.797-11.966-33.852-72.69 4.486-39.066 16.982 9.162 105.635 14.357 46.085 17.06-22.136-9.641-45.086 7.769-54.821-1.463 4.604.264 12.896 37.105 4.25 23.469M448.53 983.312c31.596-18.069 27.131-39.732-3.269-11.535-65.946 32.939 71.675-56.941 29.492-1.212 7.203-21.855-32.312 26.422-26.223 12.747m18.958 2.227 3.04-2.557zm284.797-43.159c-29.246-6.866-88.796-25.371-37.915-52.645 39.106-50.804 111.506-25.573 151.478 6.353-16.3 37.15-77.023 48.247-113.563 46.292m44.703-8.086c36.293 1.635 93.124-45.305 26.317-52.056-23.494-13.728-68.515-28.652-38.197 9.854.89 43.474-65.994 14.902-23.508-10.654 22.926 35.774-20.583-10.113-2.617 30.529 43.518-4.017-.472-72.651-23.059-23.88-20.71 45.542 56.375 55.24 55.746 35.204-13.335 12.315-17.632 17.848 5.318 11.003m-64.5-5.177c-38.622-27.823 64.498-84.206 3.37-53.665-27.482 25.718-58.077 38.497-3.37 53.665m-405-50.084c40.161-35.62 112.901-55.654 150.297-5.374-46.184-32.164-98.921-31.735-144.047 1.605zm543.516-9.691c-42.762-32.108-130.332-37.161-154.095-11.05 36.545-43.71 89.263-19.916 134.503-8.512 6.58 2.761 30.714 9.16 19.592 19.562m28.484-31.803 3.04-2.557zm-293 569.346c-5.789-5.532-7.803 6.159 0 0m22.344-3.218c30.027-47.692-12.725-13.84 0 0m-10.046-2.305c29.09-16.268-4.346-93.306 6.237-31.217 6.27 10.155-28.815 32.911-6.237 31.217m98.351-11.13c-5.999-.175-1.773 6.517 0 0m-.955-5.842c8.864-8.087-14.137 9.357 0 0m-116.27-6.585c-10.912-21.792-36.74-93.89-21.881-28.332 4.678 5.666 11.935 35.422 21.88 28.332m143.341-4.798c21.17-16.122 78.73-62.328 66.995-66.363-12.387 19.442-77.866 68.706-66.995 66.363m-137.132-13.84c14.78-24.291-28.498-64.387-10.962-17.126 1.213 1.872 12 47.028 10.962 17.126m135.367 4.527c-21.974 6.584-4.391 6.533 0 0m-6.428-.372c17.032-11.547-17.572 9.425 0 0m-284.93.823c-17.887-16.663-7.953-1.961 0 0m305.905-5.407c13.661-14.548-14.869 13.332 0 0m-20.175-.406c19.181-19.166-13.367-24.397 0 0m-97.29-19.161c-4.728 6.004 4.997 14.811 0 0m-16.406-12.089c-14.176-12.055-5.931 39.133 0 0m156.824 8.835c4.774-7.133-7.615 7.836 0 0m.693-3.75c9.393-10.178-10.545 6.378 0 0m-214.805-5.609c-3.718-16.108 2.66 17.176 0 0m55.594-7.891c-14.192-6.795-7.074 17.47 0 0m171.094 4.545c7.917-8.884-9.927 8.543 0 0m12.908-14.014c23.68-27.42 19.834-31.361-3-3.323-23.08 23.159-1.678 8.343 2.933 3.382zm87.958-124.781c14.645-24.706 19.042-42.558 1.222-7.892-8.494 11.962-15.1 32.191-1.222 7.892m23.036-32.873c-6.14 2.368-1.762 7.942 0 0m-621.625-43.389c-4.484-62.756-10.894-125.565-26.29-187.76-28.702-41.446 22.415-99.907-17.836-130.228-31.961 62.245 26.058 124.911 12.835 189.463-6.052 40.545-25.043 118.36 31.29 128.525m346.95-5.988c15.243-22.78-8.48 2.526 0 0m298.411-4.5c22.853-28.77-24.109 5.796 0 0m10.626-27.587c19.415-66.49.459-138.338 26.654-203.62 20.664-27.385-5.741-123.847-29.512-57.305-15.38 57.33 34.902-10.589 20.44 20.863 16.964 55.15-26.913 105.004-31.43 159.196-5.08 16.003-29.022 140.776 13.848 80.866m-302.34 19.337c6.731-8.832-9.618 9.56 0 0m10-5.236-7.074 5.392zm.565 3.63c-5.381-1.164-2.996 6.528 0 0m47.185-.883c11.52-9.147-20.032 9.03 0 0m1.25-7.26c39.998-23.18-29.994 11.061 0 0m247.807-4.278-1.507 2.356zm-37.298-15.162c3.674-35.65-7.737 39.954 0 0m-185.381 9.939c3.162-4.586-7.089 6.406 0 0m-420.823-20.307c-2.273-6.3-2.671 7.613 0 0m-9.011-65.74c-18.447-35.488 13.622 38.855 0 0m672.697-42.832c7.345-35.765-13.052 32.428 0 0m-525.136.68c68.072-36.167-33.839-96.415-72.354-56.164-36.019 53.578 71.793 74.823 54.35 8.094-25.306-21.02-41.46 28.043-7.853 11.654-27.78 60.594-42.753-30.71-2.352-25.45 63.668 25.792-57.314 75.18 13.97 62.318l8.613-.568zm538.78-22.202c1.592-21.468-11.87 43.606 0 0m-707.56-.968c-.044-25.824-21.37-101.535-15.175-34.084 1.283 11.077 23.727 85.365 15.175 34.084m-32.075 17.119c-2.2-7.143-.769 6.987 0 0m122.897-2.75c-16.873-20.967 4.485-58.702-36-32.602-47.456 13.009 24.645 30.223 36 32.602m-126.332-15.942c-1.259-26.274-26.725-136.464-15.693-60.203 3.466 13.033 21.604 93.619 15.693 60.203m706.423-3.558c21.078-20.152 14.29-120.397-2.455-52.06 1.18 11.172-7.262 56.776 2.455 52.06m-537.742 7.5c23.226-36.684-28.892 6.173 0 0m581.154-57.5c2.787-26.497 6.88-134.706-6.204-57.646-2.661 24.388-1.252 81.498-1.487 92.821 3.87-11.354 7.739-23.013 7.69-35.174m-17.174 27.5c10.6-17.164-5.947 13.354 0 0m27.65-43.036c.014-54.203-5.903 13.929-.65 14.066l.73-4.61zm-313.322-31.245c11.947-16.579 21.865-98.544 3.932-37.7-.997 16.184-41.389 78.418-3.932 37.7m-465.895 1.557c19.345-29.604-10.308-8.578 0 0m67.026.383c7.185-7.324-15.89 2.738 0 0m45.315-1.475c-3.45-13.649-12.758-.106 0 0m130-.963c-6.625-19.567-43.637-79.64-21.966-22.971 5.727 8.788 11.29 19.404 21.966 22.971m-162-3.926c-40.939-26.036 1.572-15.454 23.906-7.183-37.211-31.218-4.375-55.872 19.396-15.865 36.626 28.113-38.211-55.6 12.974-18.098 19.416 17.21 42.515 29.162 13.024-2.455-21.366-45.94 47.135 44.323 23.453-3.506-10.11-38.783-90.735-19.059-112.426 1.996-6.423 25.088-20.76 44.965 19.673 45.111m404.186-7.026c9.169-17.025 16.027-82.46 3.627-28.691 3.16 4.753-19.126 36.822-3.627 28.691m-360.022-3.386c-20.764-31.366-38.018-21.128-8.405 1.773zm83.424-2.764c-10.899-23.372-46.355-57.19-18.96-12.774 3.998 5.778 10.384 15.767 18.96 12.774m292.19-1.926c8.81-26.107 14.617-71.047 1.68-20.679 1.413 2.288-12.046 23.033-1.68 20.679m-350.278-5.014c-25.335-24.19 7.694 15.062 0 0m-139.44-34.43c8.017-18.705 8.133-84.674 2.196-32.002-4.659 18.325-17.815 90.733-3.956 38.738zm505.237 31.75c10.558-23.657 19.997-62.788 4.635-17.58 1.528 1.784-13.077 18.762-4.635 17.58m216.17-7.403c.057-39.76-22.594 24.685 0 0M253.73 784.53c4.132-11.043-12.191 4.425 0 0m524.35-2.357c-7.116.665.154 3.865 0 0m-2.368-20.35c8.903-40.628-25.872 51.598 0 0m-527.245 12.902c-7.593-5.027-1.467 13.456 0 0m734.934-.56c4.756-29.775-24.48 14.918 0 0M844.57 772.11c-7.242-1.126-2.735 5.332 0 0m-46.942-3.049c17.882-29.428-14.774-8.537 0 0m178.687-6.982c27.594-30.675-35.524 4.418-1.034 2.204zm-159.288 3.088c20.242-30.002-23.24 16.036 0 0m176.942-3.133c22.708-19.547-10.568-1.706 0 0m-562.873 2.3c.663-22.732-12.438-2.125 0 0m406.81-.06c.51-7.01-6.29 7.334 0 0m26.316.393c15.249-21.1-16.896 6.79 0 0m-623.05-1.938-.184 1.807zm710.247-3.121c-4.87.847.656 7.488 0 0m-45.24-11.441-.02 3.462zM297.935 747c3.561-20.006-8.848 4.864 0 0m687.302-3.739c31.947-30.002-49.593 4.886 0 0m31.991-9.882c25.88-5.164 28.705-53.805 5.26-16.607-11.8 1.961-28.171 30.715-5.26 16.607m-83.058-10.65-.184 1.806zm35.317.794c-3.358-3.702-3.89 2.26 0 0m18.5-2.607c-1.539-4.13-3.156 4.356 0 0m20.069-.678c13.8-8.997-26.972 1.8 0 0m-24.069-5.322c-14.196-6.977-16.964 4.45 0 0m-692.631-3.25c16.375-37.408-22.882-6.022 0 0m611.81-4.144c-26.047-62.19-18.862 18.444 0 0m126.982.23c22.86-15.367 7.33-72.293-.748-21.554-1.17 4.987-15.639 42.652.748 21.555m-13.636.599c3.102-15.795-12.691 11.306 0 0m-6.477-2.685c34.79-49.639-13.064-14.406 0 0m-15.416-.75c8.707-46.61-57.43 17.625-2.634 2.097l2.47-1.967zm-711.487-10.22c8.569-41.189-16.025 34.417 0 0m676.34.363c28.56-24.233-59.933-53.12-14.637-15.016 5.142-1.674 14.358 27.634 14.637 15.016m-48.985.416c7.265-23.722-5.663-25.721 0 0m-607.31-14.467c-3.015-24.185-2.984 37.56 0 0m704.31 5.797c-6.827-2.216-.785 11.032 0 0m-732.587-1.14c-.634-13.197-2.552 14.191 0 0m-31.93-7.189c7.339-28.984-11.81 35.34 0 0m786.472-3.433c-8.472-.09 2.664 12.609 0 0m-100.955 3.873c-4.81-7.584 2.305 6.967 0 0m80.517-1.25c6.024-20.567-5.283-12.163-2.216 1.551zm-104.73-.382c8.794-10.834-24.564 8.674 0 0m95.692.382c2.334-17.849 9.287-61.716 25.466-24.95 35.383-59.052-75.263-74.912-67.713-13.048 16.77-31.936-.357 50.795 42.247 37.998m-707.728-3.5c-6.81-7.285-4.745 7.194 0 0m725.25-1.868c-4.142-3.583-.393 6.79 0 0m-45 .757c-10.106-28.06-38.62-27.017 0 0m-649.478-9.163c20.475-22.113-26.147 20.091 0 0m583.477 4.017c3.6-43.01-67.84-39.626-32.112-10.939-4.113-43.64 11.73 25.206 32.112 10.939m-611.854-10.68c8.322-46.606-17.437 31.859 0 0m-14.17-1.801c16.19-37.878-9.348-19.336-1.946 8.439zm33.525-.37c25.72-46.714-16.536 5.853 0 0m475.448-12.231c4.058-20.047-33.393-99.616-36.198-63.396-.174 4.323 46.46 112.04 36.198 63.395M927.75 653.65c-24.6 6.991 20.987 5.896 0 0m-599.444-3.673c20.14-13.658 58.804-93.497 22.084-36.443-.726 7.71-36.52 35.767-22.084 36.443m6.683-.588c12.062-19.547 81.05-73.51 57.262-69.933-24.47 18.035-41.638 44.324-57.262 69.933m-30.718-5.473c-3.794 1.585.99 13.926 0 0m64.27-22.904c21.878-21.017 42.626-48.638 8.282-12.746-19.681 16.431-43.814 47.998-9.998 14.255zm564.907 24.654c-4.366-21.053-17.15 9.368 0 0m18.041.405c-3.291-9.818-8.418 4.03 0 0m-676.998-6.405c17.899-12.663 45.362-68.839 3.608-36.475-24.585 37.222 42.619-24.802 4.566 14.845-5.471-.61-17.063 39.567-8.174 21.63m647.15.638c8.877-28.015-51.068-102.018-42.058-85.066 13.505 26.938 10.114 72.784 42.059 85.066m23.848-.888c-2.71-8.29-3.378 6.431 0 0M340.286 622.98c26.442-40.853 4.335-28.585-14.031-.591-10.185 20.76 9.575 16.136 14.031.591m-15.467-1.864c20.662-17.046 39.716-51.26 2.17-22.316-14.353 9.784-23.42 56.856-2.17 22.316m-25.412-2.68c-9.137 8.52-2.801 18.011 0 0m68.177 6.807-7.64 6.196zm-91.292-3.714c8.266-16.621-17.671 27.631 0 0m104.535 2.584c25.014-25.159.926-16.014-7.195 3.71zm491.455-1.988c5.564-29.922-60.334-92.13-59.64-45.482 16.894 26.995 35.086 38.121 31.14 7.324 8.811 7.223 10.812 61.65 28.5 38.158M707.4 612.663c17.69-33.918-81.707-74.736-29.766-29.409 4.858 2.79 36.278 65.396 29.766 29.41m-400.91 7.528c-1.516-7.643-1.676 12.13 0 0m437.31-7.024c.165-27.534-45.842-99.87-53.22-64.923 15.388 23.034 30.44 48.633 53.22 64.923m-405.138-24.43c46.758-4.698-5.161-48.331-12.905-6.91-14.802 27.208-16.187 34.713 12.905 6.91M886.01 598.98c-10.57-26.789 8.094 29.607 0 0m-597.758-7.443c36.275 1.782 23.558-61.01 2.598-11.92-8.648 9.315-26.07 34.127-2.598 11.92m-7.016-3.87c19.405-26.164-19.74 21.008 0 0m37.266-19.313c-8.192 4.994-3.867 27.482 0 0m428.153 11.269c-15.59-30.903-7.554-.743 1.37 4.123l-.996-2.997zm-362.166.12c-20.34-16.99-10.75 15.248 0 0m-90.077-10.539c25.09-32.642-42.938 39.067 0 0m33.577 5.713c12.323-14.043-15.259 14.798 0 0m16.207-29.245c-13.255-29.294-28.217 59.894-5.084 14.756 4.148-2.1 10.329-10.194 5.084-14.756m26.922 28.54c-5.793-1.3-2.927 5.454 0 0m491.807.455c-8.434-29.149-8.55 2.568 0 0m-78.436-1.19c-6.737-15.694-19.462-18.231 0 0m-355.78-3.441c19.588-12.4 106.768-50.05 40.404-33.77-6.449 2.643-67.309 28.223-40.403 33.77m-25.935-.525c36.135.749 55.285-78.409 30.705-49.992 19.305-17.336 42.321-30.03 7.983-9.777-25.23 11.819-70.435 38.272-38.688 59.769m466.272-9.047c-10.996-21.625 5.762 26.313 0 0m-481.557 4.875c-11.13-19.891-18.037 6.478 0 0m-43.083-6.172-6.27 4.782zm38.132-6.904c22.055-19.505 32.38-42.206.681-13.746-7.255-24.345 5.865-57.864-25.69-24.212-33.009 12.399 16.336 54.917 25.009 37.958m377.951 5.876c-18.33-18.909-43.325-22.866-7.685-3.8zm-86-4.334c-12.117-20.426-81.58-23.327-26.987-8.486 4.263-2.08 32.846 17.5 26.987 8.486m152.687-.242c-31.563-42.51-53.32 2.897 0 0m-348.187-3.352c32.433-10.946 29.037-14.702-2.913-1.606l-3.445 2.166zm309.913-7.054c3.482-31.738-72.158-57.123-25.84-14.658 2.308 3.017 33.137 37.339 25.84 14.658m75.587 7.64c-4.517-20.626-10.846-4.068 0 0m-540.452-7.666-7.529 5.343zm124.214-3.049c-13.627 4.568-3.21 9.344 0 0m229.193 2.085c-26.006-18.767-33.548-9.99 0 0m72.045-3.507c-23.736-34.04-38.09-19.053 0 0m-329.214-18.562c16.738-11.594 83.736-49.438 24.38-28.544-16.346 3.9-64.341 66.577-24.38 28.544m25.917 14.597c11.297-26.991 94.016-42.05 72.083-47.297-25.526 6.072-76.423 10.764-72.083 47.297m-109.1-5.233c28.4-21.271 73.346-109.23 74.526-95.432-33.618 18.339-76.642 53.67-74.525 95.432m371.397 3.691c-3.872-30.84-71.844-37.349-28.522-4.59 9.522 1.423 18.768 4.975 28.522 4.59m-312.66-5.195c67.284-56.66-24.7 4.573 0 0m70.16-1.654c29.494-12.262 34.963-29.866 2.147-8.302-2.525-.403-23.886 25.272-2.147 8.302m20 2.593c26.921-17.643 100.157 4.56 110.282-24.877-36.845-12.964-113.163 3.092-119.923 25.86zm-83.827-16.176c33.907-21.669-.52-61.843-10.975-17.07-4.598 17.382-12.829 52.514 10.975 17.07m205.938 16.522c15.482-4.205-38.72 1.886 0 0m227.39-1.03c-5.977-33.498-32.79-83.368-73.834-66.447 26.015 20.574 47.693 46.022 73.833 66.446m-20.658-6.559c-14.77-22.092-58.906-46.73-19.253-11.025 1.988.935 27.194 22.757 19.253 11.025m-225.23.772c51.393-11.597-25.229 1.062-5.974 1.144l3.102-.594zm284.971.24c-6.18-21.266-30.04-46.363-9.69-10.51-2.353-2.412 11.662 19.43 9.69 10.51m-211.03-.648c-16.961-27.686-16.161-9.987 0 0m-14.22-.097c-10.523-24.695-34.372 6.43 0 0m-28.334-1.004c-3.682-4.308-4.828 4.454 0 0m91.383-4.25c-12.555-24.917-18.453-8.845 0 0m21.995-14.376c-6.988-29.89-52.99-21.371-16.21-.02 10.974 7.62 34.926 18.898 16.21.02m-100.49 8.339c-16.372-29.809-85.717-34.161-100.938-14.295 37.886-2.86 74.739-2.507 100.938 14.295m133.149-12.057c-7.724-23.542-65.986-38.43-22.574-8.882 2.59.197 43.9 27.578 22.574 8.882M659.488 499.8c-10-6.598-10.29 2.704 0 0m-230.316-7.827c-13.734 10.3 33.347-52.544 1.74-13.855-3.409 3.67-22.164 34.355-1.74 13.855m62.698-3.485c26.837-14.69-53.184 17.914 0 0m351.88-3.734c-1.014-30.899-87.699-77.12-31.844-30.006 3.916 1.653 45.386 63.653 31.844 30.006m-460.365 6.628c11.012-15.17-13.864 13.48 0 0m288.103 1.512c-18.518-20.728-109.995-13.28-43.429-7.018 13.944-1.265 31.629 11.132 43.43 7.018m26-.42c-2.176-15.166-18.435 3.261 0 0m-252.574-5.614c28.507 1.072 57.506-30.336 12.367-16.492-6.993-.484-39.999 30.846-12.367 16.492m93.64-1.753-9.048 5.494zm150.596.424c-5.244-30.073-98.023-28.058-32.546-9.558 10.211 4.614 20.938 10.462 32.546 9.558m-261.353-9.407c38.165-26.285-10.969-22.365-6.997 8.91l2.172-1.417zM395.42 482.5c23.948-13.64 32.488-28.688 3.301-7.643.446-.724-11.535 12.361-3.301 7.643m362.537-7.462c-13.136-20.721-68.334-30.97-80.596-32.773 23.67 47.875 59.09 4.793 80.596 32.773m-189.469 1.874c24.441 2.403 75.452-11.575 23.579-12.16-16.05 1.878-67.106 19.296-23.579 12.16m-47.615-14.894c-40.895-4.995-36.549 26.85 0 0m.84 6.083c5.452-4.97-30.504 11.51 0 0m-113.225-1.608c64.167-51.377-38.065 21.159 0 0m139.382 5.261c50.284-22.66-58.402 7.78 0 0m-96.244-1.692c22.266-5.204-8.206-28.487 0 0m123.362-5.757c33.867-11.459-42.075 6.338 0 0m-166.832-4.416c16.762-21.374 76.267-40.597 73.195-55.93-24.765 8.35-75.053 30.44-73.195 55.93m29.217-5.292c45.133-19.462 111.107-83.769 153.47-42.845-53.09 26.39 52.558-7.501 41.038 3.476-66.386-39.468-160.707-17.668-203.822 45.69zm38.5 3.328c35.367-6.634 130.7-12.229 122.745-24.985-32.986-2.464-137.147 20.09-126.27 25.332l3.142-.31zm300.502-4.01c-30.342-20.125-40.449 2.885 0 0m-104.53-2.28c-12.088-41-96.04-4.272-92.332.494 30.702 2.06 61.655 1.269 92.332-.495m55.643-3.718c-41.817-33.878-30.743 3.966 0 0m-265-2.086c7.628-9.618-19.638 11.386 0 0m10.257-.043c37.851-16.119-32.36 7.422 0 0m22.473-1.321c68.007-16.315-30.11 4.42 0 0m273.27-1.904c-24.792-23.45-58.01-23.46-10.947-3.512l5.27 2.556zm-38-4.11-3.44-1.906zm-230.071-5.464c22.972 6.342 121.775-22.313 52.665-28.903-11.453-7.415-110.903 43.423-52.665 28.903m268.071-4.185c-29.857-22.422 9.683 10.9 0 0m-120-2.851c-6.31-8.625-12.422 8.047 0 0m25 .158C684.07 378 546.623 384.07 623.594 405.737c16.575 6.922 33.652 12.67 49.894 20.373m24.408-.045c-17.852-36.089-39.28-3.708 0 0m19.383-1.597c-24.885-9.043 11.471 9.947 0 0m78.71-3.119c-19.969-26.043-103.875-28.43-33.963-9.622 11.267 3.076 22.27 8.587 33.962 9.622m-86.187-2.185c-18.314-22.22-24.751-6.64 0 0m-254.633-8.117c26.91-12.234 96.9-29.067 93.542-44.968-23.301-7.612-124.514 48.8-93.542 44.968m53.82-12.13c8.4-7.375-18.695 8.98 0 0m250.463-5.45c-32.987-33.004-130.361-46.234-141.006-29.626 45.792 11.243 97.14 29.475 141.006 29.627m-206.964-5.636c19.246-1.662 106.052.482 46.046-10.25-17.872-9.745-111.252 18.805-46.046 10.25m102.392-3.923c-19.278-13.598-13.443 2.236 0 0M597.988 368.2c9.547-5.547-33.243 3.081 0 0m537.5 417.717c3.617-4.215 3.617 4.214 0 0" style="fill:#000" transform="translate(-211.194 -350.641)"/><path d="M710.774 1622.865c-3.46-.378-21.257-3.024-39.548-5.879-18.29-2.855-42.558-6.254-53.928-7.553-28.674-3.276-128.336-3.149-159.79.204-21.252 2.265-24.618 2.25-28.762-.13-8.964-5.146-5.633-11.697 22.025-43.314 16.77-19.17 16.895-19.384 17.676-30.18.576-7.958 1.807-11.894 4.595-14.681 3.633-3.633 4.021-3.67 8.422-.786 5.337 3.497 14.672 16.84 12.97 18.541-.632.633-2.634-.192-4.448-1.834-7.15-6.471-12.352-2.185-8.491 6.997 3.467 8.245 7.66 10.669 18.854 10.898 5.572.114 12.688 1.53 15.813 3.146 6.811 3.521 11.255 3.778 11.255.649 0-1.26-6.503-8.742-14.452-16.628-17.47-17.335-25.629-28.837-30.451-42.933-1.998-5.84-3.633-11.3-3.633-12.134 0-4.429 7.063-.145 17.878 10.843 11.782 11.97 21.366 17.418 28.297 16.083 2.158-.416-1.48-4.567-12.329-14.066-14.598-12.783-28.453-29.971-28.453-35.299 0-3.926 2.107-2.96 13.508 6.191 11.76 9.44 35.028 23.057 35.028 20.499 0-.88-4.247-3.895-9.438-6.7-5.19-2.805-14.711-10.416-21.156-16.914-10.06-10.141-12.287-13.613-15.73-24.524-4.622-14.652-5.053-20.545-1.502-20.545 1.379 0 8.861 4.594 16.628 10.21 18.776 13.578 31.7 22.147 33.404 22.147 4.711 0-.902-7.202-17.037-21.857-40.892-37.143-44.65-43.222-27.414-44.339 17.715-1.147 26.435 3.91 43.39 25.159 15.515 19.446 9.496 18.65 72.557 9.587 33.488-4.813 57.759-7.486 62.359-6.868 10.651 1.431 14.52.043 28.364-10.177 13.465-9.939 18.203-11.086 20.594-4.984.871 2.224 2.525 17.796 3.674 34.604 2.361 34.537 7.305 66.363 13.815 88.937 6.576 22.803 20.09 49.814 30.888 61.738 10.667 11.779 12.909 17.794 8.464 22.706-3.583 3.96-6.339 4.728-32.438 9.052-10.875 1.802-20.987 3.624-22.47 4.049s-5.528.463-8.988.085m-222.905-24.873c0-1.534-3.033-4.033-6.741-5.555s-11.769-5.218-17.914-8.214c-11.17-5.446-16.69-5.67-16.69-.677 0 4.507 7.734 11.863 15.28 14.532 10.22 3.616 26.065 3.564 26.065-.086zm15.28-11.593c0-1.728 2.098-2.899 5.842-3.26 3.213-.31 5.842-1.31 5.842-2.224s-5.46-4.411-12.134-7.773c-8.822-4.443-13.758-8.374-18.087-14.403-6.373-8.875-12.922-11.216-12.922-4.618 0 2.501-1.003 3.505-3.145 3.145-4.81-.807-5.148 10.935-.575 19.9 5.496 10.772 9.763 13.03 23.494 12.436 8.963-.389 11.685-1.135 11.685-3.203" style="fill:#ffd5d5;stroke-width:1.79762" transform="translate(-211.194 -350.641)"/><path d="M643.508 1399.904c-.621-1.958.078-11.153 1.554-20.434 1.995-12.542 2.208-18.72.831-24.065-2.21-8.58-2.204-8.405-.761-19.774 1.497-11.797-3.038-19.383-14.85-24.84-7.302-3.373-11.635-3.92-30.96-3.904-13.897.01-25.032.917-29.184 2.377-15.549 5.465-18.067 19.686-7.917 44.712 3.29 8.112 5.303 15.43 4.473 16.26s-3.334 7.02-5.563 13.756c-2.23 6.735-4.848 12.361-5.818 12.502-.97.14-5.48-6.62-10.023-15.024-7.886-14.592-8.535-15.28-14.414-15.28-5.292 0-6.557-.883-9.017-6.291-4.363-9.597-7.531-11.363-19.723-10.997-9.335.28-12.312-.53-22.136-6.024-17.8-9.955-23.323-7.458-10.557 4.773 11.627 11.14 25.167 15.541 30.762 10 1.818-1.8 2.663-1.532 4.251 1.349 3.111 5.643 12.631 14.04 20.378 17.976 3.892 1.978 7.409 3.793 7.815 4.034s-.73 2.061-2.526 4.044c-6.937 7.666-20.51 3.044-52.762-17.965-15.488-10.089-17.81-12.237-17.002-15.729 1.074-4.643-.826-5.312-3.75-1.321-3.12 4.257-22.373-7.975-39.785-25.275-37.798-37.555-65.821-95.245-104.317-214.752-9.042-28.07-12.046-40.041-12.624-50.316-.939-16.693-.317-15.385 5.557 11.685 2.574 11.864 6.622 25.616 8.996 30.56 4.684 9.753 13.756 20.672 17.176 20.672 3.553 0 .777-13.038-5.338-25.072-3.882-7.64-5.59-13.573-5.608-19.473-.013-4.667-2.347-15.158-5.186-23.315s-4.505-14.83-3.702-14.83c3.152 0 12.195 13.404 24.716 36.639 20.243 37.562 30.878 49.99 49.36 57.677 3.708 1.542 6.741 2.036 6.741 1.097 0-.938-7.685-11.392-17.077-23.232s-17.078-22.071-17.078-22.738c0-.668 3.757 2.094 8.35 6.136 8.734 7.688 18.472 11.712 25.79 10.657 3.94-.568 3.48-1.258-5.207-7.814-11.482-8.664-29.172-30.18-42.698-51.931-11.828-19.02-37.066-68.812-36.198-71.415.335-1.007 8.68 11.764 18.545 28.38 14.436 24.315 20.743 33.037 32.317 44.696 13.649 13.748 29.807 24.658 32.513 21.952.685-.685-3.519-6.341-9.342-12.57-22.965-24.56-48.357-58.965-64.128-86.89-7.984-14.137-21.285-43.83-23.688-52.882l-1.193-4.495 3.624 4.495c1.994 2.471 7.827 12.178 12.963 21.57 21.045 38.486 26.719 46.7 37.986 54.995 9.327 6.866 17.557 10.117 17.557 6.934 0-2.909-7.72-15.06-23.356-36.761-21.357-29.642-22.48-31.63-18.708-33.077 5.795-2.224 12.378-.815 42.55 9.104 27.38 9.002 33.08 10.275 49.148 10.98 15.412.677 19.412.252 26.307-2.798 4.472-1.978 11.326-4.137 15.23-4.796 9.407-1.59 17.68-6.809 22.193-14.001 4.6-7.33 4.088-23.884-1.072-34.62-7.882-16.405-26.024-27.864-44.11-27.864-14.618 0-40.165 6.868-56.384 15.158-8.836 4.516-18.139 8.229-20.673 8.25s-8.247 1.697-12.696 3.723c-25.89 11.785-45.65 2.022-52.952-26.162-1.526-5.894-5-17.074-7.719-24.844l-4.943-14.128 4.494-3.671c3.876-3.166 6.04-3.512 15.75-2.518 6.19.635 13.32 1.939 15.846 2.9 8.948 3.401 17.606 2.012 28.557-4.582 13.564-8.168 16.997-8.916 25.199-5.489 8.386 3.504 9.922 3.531 9.922.172 0-1.46 2.072-4.012 4.604-5.671 4.375-2.867 5.67-2.768 26.052 1.983 13.483 3.144 23.555 4.58 27.12 3.866 13.374-2.675 66.078 41.115 82.152 68.256 12.987 21.931 18.223 42.012 18.25 69.995.02 21.883 6.421 68.972 9.84 72.391 3.953 3.953 5.474-11.148 4.673-46.379-1.093-48.05-17.893-97.751-45.57-134.821-6.275-8.404-12.77-18.92-14.433-23.37-1.663-4.448-9.176-16.178-16.696-26.065s-15.405-21.489-17.522-25.783l-3.848-7.807 4.233-3.428c2.329-1.885 6.292-3.428 8.808-3.428 4.363 0 4.433-.155 1.512-3.383-6.37-7.038-26.591-10.545-73.322-12.714-25.586-1.188-33.893-1.018-37.404.767-6.773 3.443-27.062 5.107-33.34 2.734-6.44-2.434-14.617-9.911-18.073-16.526-3.615-6.92-3.066-20.762 1.198-30.2 4.745-10.502 58.85-64.828 68.632-68.911 7.152-2.987 14.825-10.498 16.828-16.476.663-1.977 7.718-10.99 15.677-20.03l14.472-16.435 23.469-5.61c39.823-9.522 58.548-12.69 81.89-13.857 31.644-1.582 51.33 2.06 80.444 14.881 1.41.621 2.247-.459 2.247-2.9 0-3.85.057-3.856 5.592-.641 7.188 4.174 22.821 21.917 33.1 37.566l8.046 12.25v-7.235c0-12.564-5.066-23.573-16.445-35.738-18.841-20.14-48.292-32.12-85.12-34.624l-17.976-1.223 11.684-1.332c25.209-2.875 51.948 2.63 78.074 16.074 12.98 6.68 19.629 11.698 32.635 24.633 9.395 9.344 18.9 20.827 22.373 27.031 3.32 5.932 8.226 12.855 10.9 15.383 5.91 5.59 8.783 15.205 8.833 29.557.048 13.762 1.904 17.149 7.497 13.68 3.549-2.2 4.25-2.124 5.897.645 6.595 11.09 12.068 14.608 14.178 9.11 1.375-3.583-3.602-22.076-7.907-29.38-4.3-7.296-4.316-6.905.33-8.12 3.434-.898 3.73-1.906 2.83-9.647-.552-4.755-1.53-10.667-2.172-13.139-2.033-7.826 9.306 6.926 25.26 32.86 7.959 12.94 15.549 23.885 16.866 24.324 3.361 1.12 1.099-12.912-4.653-28.856-2.448-6.787-4.143-13.264-3.766-14.394.92-2.76 23.424 31.242 28.873 43.626 2.384 5.418 5.75 13.753 7.48 18.523 3.32 9.154 7.354 12.396 10.227 8.218 2.752-4.004.328-37.112-3.769-51.471-3.729-13.068-4.57-18.108-2.712-16.25 2.098 2.098 12.96 36.997 15.12 48.584 3.562 19.096 10.86 14.235 8.504-5.664-1.018-8.598-10.145-38.087-17.163-55.455-4.88-12.078-1.154-13.094 6.595-1.798 13.134 19.15 25.322 50.379 29.81 76.383 3.205 18.576 5.517 25.632 8.4 25.632 2.587 0 1.4-26.308-2.005-44.434-2.578-13.722-1.638-17.777 2.795-12.06 4.982 6.426 20.403 38.325 23.59 48.798 1.739 5.716 3.386 10.71 3.66 11.097.273.387 2.027-1.186 3.898-3.497l3.401-4.2 4.346 4.69c8.824 9.52 16.95 43.07 12.462 51.455-2.672 4.992-5.84 4.899-12.147-.357-2.795-2.33-8.115-4.793-11.823-5.475-4.132-.76-6.74-2.251-6.74-3.854 0-2.932-2.012-3.4-4.585-1.066-.939.852-5.078 2.367-9.197 3.366l-7.49 1.817.984-6.063c.863-5.315.506-6.062-2.894-6.062-2.195 0-7.366 3.488-11.92 8.042l-8.042 8.042v-7.2c0-9.01-3.21-10.526-11.473-5.419l-6.173 3.815.97-7.235c1.317-9.814-1.34-9.342-11.714 2.081-12.72 14.006-14.984 16.218-15.785 15.417-.403-.403.473-5.364 1.948-11.023 3.314-12.724 3.474-19.658.433-18.681-1.236.397-6.532 6.734-11.769 14.081-13.674 19.186-17.01 23.195-15.655 18.817.6-1.942 3.188-11.776 5.75-21.854 4.465-17.555 4.61-25.66.415-23.067-3.952 2.443-13.832 19.964-16.677 29.577-1.61 5.438-3.731 11.1-4.714 12.583-3.54 5.345-1.962-2.823 4.65-24.055 8.844-28.398 6.073-34.019-6.798-13.792-2.839 4.46-5.086 6.644-5.086 4.943 0-5.022-3.776-3.484-10.378 4.228-6.844 7.996-8.656 8.323-5.895 1.062 2.804-7.375-.458-5.67-11.061 5.783-12.48 13.48-22.02 32.121-33.714 65.873-5.138 14.83-13.709 35.916-19.047 46.858-17.168 35.195-27.358 81.3-25.481 115.296 1.596 28.925 8.47 44.013 26.223 57.553 6.065 4.626 9.454 5.894 15.753 5.894 17.01 0 49.68 9.004 60.697 16.729 4.61 3.231 4.862 3.873 2.27 5.769-1.603 1.172-10.409 3.569-19.567 5.325-19.652 3.767-43.111 11.426-54.501 17.792-4.476 2.502-9.318 4.096-10.76 3.542-1.443-.553-2.622-.108-2.622.989s-5.056 7.077-11.236 13.29c-10.364 10.42-20.563 26.322-23.877 37.23-1.095 3.605.92 2.36 10.18-6.291 13.78-12.872 25.759-19.495 56.634-31.313 12.72-4.868 27.17-10.479 32.114-12.468s11.775-4.643 15.182-5.898 8.867-4.628 12.134-7.496c11.956-10.498 6.203-27.813-11.977-36.044-6.494-2.94-12.164-3.735-27.922-3.914-22.695-.257-31.315-3.365-39.654-14.3-7.334-9.614-9.608-18.185-9.783-36.87-.145-15.45-.377-16.57-2.432-11.75-3.117 7.307-4.774 3.872-5.822-12.066-.471-7.17-1.155-16.065-1.52-19.768-.62-6.284-.385-6.662 3.544-5.676 4.861 1.22 5.013.673 8.024-28.937 2.916-28.668 4.793-35.227 14.213-49.66 15.968-24.463 32.147-36.607 74.215-55.704 30.856-14.007 28.746-13.326 58.084-18.766 41.845-7.76 81.825-7.95 107.122-.508 6.055 1.781 6.724 2.744 10.786 15.531 4.309 13.566 7.76 17.873 9.363 11.686q.84-3.244 1.05 1.592c.203 4.705 3.039 8.211 5.03 6.22.544-.544 1.68-3.658 2.524-6.922 2.766-10.682.264 64.977-2.806 84.846-1.603 10.382-5.663 31.01-9.022 45.84-6.699 29.582-8.367 44.186-5.173 45.291 3.393 1.174 14.97-45.934 18.642-75.85 1.091-8.899 2.454-18.076 3.029-20.395 3.838-15.5 5.707 29.215 2.314 55.362-1.049 8.08-1.087 14.047-.098 15.037 2.1 2.099-.918 10.661-10.407 29.534-14.45 28.738-20.688 59.53-23.488 115.935l-1.762 35.486-17.87 30.169c-21.624 36.505-39.592 60.205-54.12 71.384-5.966 4.59-10.846 9.108-10.846 10.039 0 3.518 4.831 1.425 14.83-6.424 5.685-4.463 10.336-7.433 10.336-6.6 0 6.883-33.433 42.268-44.61 47.215-6.115 2.707-7.524 5.251-2.909 5.251 4.09 0 9.537-3.181 19.207-11.216 4.696-3.902 8.538-6.474 8.538-5.715 0 1.389-9.427 11.515-45.615 48.996-18.636 19.301-19.915 20.271-24.171 18.332-5.104-2.325-23.69-.692-23.69 2.083 0 2.17-19.4 26.416-30.4 37.996-12.509 13.168-21.429 16.875-48.956 20.345-7.254.915-8.5.585-9.48-2.506m11.54-112.843c8.403-2.686 28.834-10.856 45.402-18.154 16.567-7.299 30.472-13.27 30.9-13.27s1.03 3.027 1.336 6.726c1.502 18.103 21.23.312 21.23-19.146 0-3.928-.606-7.493-1.348-7.923-.741-.43-7.415.276-14.83 1.568s-29.256 3.234-48.536 4.313-43.951 2.776-54.827 3.771-39.997 2.568-64.714 3.493c-24.718.926-52.074 2.938-60.792 4.471-8.718 1.534-16.606 2.322-17.527 1.753s-1.675-3.415-1.675-6.323c0-7.72-2.595-6.505-8.704 4.075-6.53 11.31-5.65 13.936 6.769 20.23 8.8 4.459 19.83 6.755 65.75 13.685 56.411 8.514 76.76 8.66 101.566.731m129.428-8.954c0-1.483-.809-2.696-1.797-2.696-.99 0-1.798 1.213-1.798 2.696s.809 2.697 1.798 2.697c.988 0 1.797-1.214 1.797-2.697m-338.993-35.942c10.706-6.447 25.436-11.695 32.825-11.695 4.767 0 4.765-.01 2.415 6.175-1.314 3.456-1.179 4.611.54 4.611 3.567 0 6.606-3.899 6.606-8.475v-4.162l40.896.19c24.118.112 43.368-.585 46.923-1.698 9.533-2.987 17.484-10.15 22.549-20.313 7.99-16.033 5.462-28.345-8.648-42.11-11.066-10.796-21.916-15.11-37.999-15.11-13.314 0-21.772 2.751-35.551 11.565-16.205 10.366-60.3 32.741-72.604 36.84-22.909 7.634-34.258 4.027-36.002-11.44l-.984-8.73 3.859 3.858c2.122 2.122 4.542 3.859 5.378 3.859 3.7 0 8.051-7.817 8.747-15.711.908-10.3-4.93-23.25-12.311-27.311-11.576-6.37-34.11 9.547-39.418 27.841-3.628 12.505-2.884 31.914 1.683 43.943 8.622 22.705 24.775 33.339 51.57 33.948 7.419.168 11.015-.95 19.526-6.075m238.96-17.248c24.127-15.283 28.219-16.913 40.712-16.22 39.441 2.19 75.632-.068 84.155-5.252 6.023-3.662 21.23-23.054 24.823-31.652 4.304-10.302 3.13-27.383-3.035-44.114-6.345-17.223-10.563-22.522-19.22-24.146-13.88-2.604-32.795 9.206-32.795 20.478 0 6.88 3.432 9.608 13.509 10.744 9.492 1.07 10.78 3.702 9.481 19.372-1.357 16.367-10.153 22.415-32.601 22.415-7.328 0-22.521-1.644-33.764-3.653-11.242-2.008-27.72-4.574-36.619-5.7-11.779-1.492-17.654-3.16-21.604-6.13-14.602-10.985-32.393-9.536-47.282 3.85-7.269 6.535-8.822 9.178-10.902 18.555-5.19 23.398 3.795 38.623 27.341 46.324 12.089 3.954 26.88 2.048 37.802-4.871m-79.729-79.801c0-9.374-4.024-14.018-24.282-28.023-13.475-9.315-15.012-11.56-17.935-26.201-1.95-9.763-6.68-12.388-21.344-11.846-9.418.35-14.133 1.425-17.701 4.04-2.675 1.96-8.908 5.158-13.85 7.107-8.384 3.304-9.447 3.353-15.81.727-9.655-3.985-18.506-11.074-18.506-14.823 0-8.487 20.58-18.765 48.599-24.272 10.67-2.097 19.269-4.622 19.107-5.61-.488-2.97-34.905-1.706-48.831 1.793-24.389 6.128-36.851 15.036-36.851 26.343 0 15.75 17.466 25.665 67.41 38.266 39.561 9.981 52.058 15.759 66.512 30.748 5.932 6.152 11.393 10.828 12.134 10.39.742-.437 1.348-4.325 1.348-8.64m5.048-111.672c9.854-1.226 11.68-5.17 5.04-10.882-3.853-3.314-7.004-4.21-14.8-4.21-5.448 0-11.461.832-13.363 1.85-3.483 1.864-8.889 10.611-8.889 14.382 0 1.96 9.928 1.606 32.012-1.14m-151.095-26.328c3.363-4.203 4.46-10.336 1.848-10.336-2.815 0-9.066 9.719-7.353 11.432 1.744 1.744 3.515 1.391 5.505-1.096m272.61-15.28c-.678-3.707-1.928-8.614-2.779-10.902-.85-2.29-1.546-4.399-1.546-4.688 0-1.609 25.648-3.656 46.26-3.692 14.359-.025 23.947-.755 24.19-1.84.22-.988-5.632-2.822-13.004-4.074-38.59-6.553-49.075-9.242-56.38-14.457-9.393-6.707-14.389-8.227-18.974-5.773-9.108 4.875-1.63 33.627 11.99 46.104 8.949 8.195 11.829 8.005 10.242-.678m-269.9-15.729c11.41-10.325 14.598-12.028 12.617-6.74-2.147 5.728 4.246-.862 7.512-7.743 3.644-7.68 2.5-9.785-5.319-9.785-10.483 0-52.963 23.925-49.242 27.733 1.618 1.656 17.426-5.542 23.622-10.756 8.554-7.198 15.804-10.432 18.142-8.094 1.466 1.466-1.29 5.098-10.346 13.635-14.985 14.127-12.351 15.656 3.015 1.75m345.57-38.51c19.465-5.165 34.945-12.689 44.801-21.774 9.493-8.75 16.725-19.535 14.244-21.241-.932-.64-5.296-3.688-9.697-6.77-11.782-8.253-31.492-17.759-46.73-22.538-10.893-3.417-17.277-4.19-34.077-4.128-26.465.097-36.01 3.563-54.376 19.743-7.17 6.315-16.203 14.23-20.075 17.587-5.41 4.69-7.041 7.417-7.041 11.772 0 10.572 10.704 18.264 38.35 27.56 14.307 4.812 16.708 5.09 37.75 4.372 15.027-.513 27.233-2.03 36.85-4.583M339.564 872.68c28.007-18.871 62.22-25.857 92.115-18.808 12.443 2.933 31.75 11.192 40.151 17.175 7.832 5.577 8.362 3.154 1.068-4.884-25.06-27.62-70.516-30.903-115.357-8.331-14.067 7.08-29.661 17.892-29.661 20.564 0 1.936 1.198 1.35 11.684-5.716m533.672-12.224c-2.87-4.754-15.953-10.153-41.124-16.97-30.232-8.186-31.585-8.48-47.368-10.25-25.473-2.856-45.523 2.536-60.392 16.242-9.638 8.883-9.683 11.012-.095 4.506 27.67-18.778 96.538-13.413 137.226 10.69 9.875 5.85 10.227 5.921 11.868 2.402 1.08-2.316 1.038-4.71-.115-6.62M928.349 1081.386c-5.356-10.008-.588-54.304 11.914-110.672 2.81-12.672 22.325-67.862 23.558-66.629.365.365-.2 8.63-1.254 18.366-1.054 9.737-2.755 37.927-3.78 62.644-2.626 63.345-5.639 80.1-16.525 91.91-7.966 8.642-11.104 9.63-13.913 4.381M282.042 1103.027c-25.121-11.631-31.2-40.857-21.543-103.571 7.37-47.86 6.715-54.238-12.813-124.914-3.25-11.765-5.002-23.369-5.63-37.299-.8-17.73-.404-21.804 3.218-33.068l4.131-12.848 5.85 6.384c10.647 11.617 11.709 22 5.914 57.847-4.635 28.674-4.078 47.168 1.769 58.73 7.786 15.398 18.727 76.011 25.346 140.424 3.865 37.608 4.493 51.747 2.296 51.683-.741-.022-4.584-1.537-8.538-3.368" style="fill:#ffd5d5;stroke-width:1.79762" transform="translate(-211.194 -350.641)"/><path d="M659.311 1223.363c-11.126-2.815-22.058-10.476-28.677-20.097l-2.748-3.994 10.254.579c26.6 1.501 50.028 7.592 52.826 13.733.975 2.14.801 2.602-1.958 5.204-1.666 1.57-4.609 3.37-6.54 4-5.537 1.805-17.154 2.093-23.157.575M422.794 1225.16c-3.192-.699-6.86-.92-8.988-.54-8.482 1.51-14.637-2.151-18.526-11.02-2.726-6.219-3.414-23.067-1.342-32.854.778-3.676 1.764-7.032 2.19-7.459.436-.435 1.009 2.515 1.306 6.722.714 10.119 3.413 17.113 8.638 22.38 4.935 4.974 9.145 6.359 19.015 6.253 16.97-.182 39.098-10.143 77.7-34.98 21.008-13.515 27.39-16.773 35.554-18.15 25.299-4.267 54.807 19.12 54.768 43.41-.018 11.844-7.34 20.422-20.445 23.95-10.305 2.775-14.916 2.672-40.665-.911-40.383-5.62-59.182-6.345-78.571-3.035-8.458 1.445-22.994 5.77-22.994 6.843 0 .941-.891.87-7.64-.608m145.546-12.925c1.45-.342 2.8-1.114 3-1.717.707-2.12-6.273-3.99-16.646-4.458-8.894-.402-10.112-.282-10.112.994 0 1.495 3.262 3.523 8.904 5.536 3.123 1.115 9.244.968 14.854-.355m-61.508-7.488c15.528-2.223 22.535-2.784 35.663-2.852 15.425-.081 16.26-.173 14.933-1.64-4.267-4.718-19.14-7.007-34.174-5.259-13.064 1.519-48.456 10.466-51.026 12.9-1.35 1.277 12.481.02 34.604-3.149m-8.988-8.263c16.271-4.163 31.609-6.82 39.214-6.793 2.408.01 8.019.614 12.468 1.345 10.485 1.722 16.603 1.702 19.124-.063 2.608-1.827 2.532-2.425-.796-6.214-5.883-6.7-25.45-13.959-37.633-13.959-6.323 0-13.65 1.802-16.643 4.092-2.338 1.79-.973 2.68 5.26 3.431 6.027.727 11.364 2.245 11.364 3.233 0 1.032-5.765 2.85-21.197 6.685-13.676 3.398-20.394 5.693-25.921 8.855-3.79 2.168-5.59 4.844-2.648 3.933.924-.286 8.757-2.33 17.408-4.545z" style="fill:#ff0;stroke-width:.89881" transform="translate(-211.194 -350.641)"/><path d="M378.35 1192.596c-2.148-7.733-.188-23.424 3.945-31.58 2.56-5.05 6.126-7.43 13.682-9.126 5.651-1.269 9.833-.445 11.625 2.29 3.255 4.968-2.644 12.664-14.493 18.907l-7.002 3.69-1.552 7.663c-2.373 11.721-4.455 14.458-6.205 8.156M428.187 1243.497c-5.541-1.06-18.98-7.662-25.616-12.586-4.31-3.197-4.598-3.59-2.247-3.06 1.483.334 14.305.88 28.494 1.214 32.616.768 33.228 1.106 17.856 9.863-8.924 5.085-11.917 5.824-18.487 4.569M773.779 1203.23c-14.145-3.328-14.119-3.304-4.494-4.025 28.406-2.126 45.33-9.389 48.143-20.658.356-1.424 1.398-2.785 2.317-3.026s1.67-.74 1.67-1.113c0-.372-5.56 1.24-12.358 3.583-18.136 6.25-17.47 6.133-13.075 2.315 2.078-1.805 5.806-6.314 8.285-10.02 11.388-17.028 12.831-40.57 2.804-45.756-3.031-1.567-10.46-1.802-14.034-.443-4.03 1.533-3.618.24 1.584-4.962 4.257-4.256 5.426-4.95 8.351-4.95 9.072 0 17.223 12.102 21.19 31.459 2.432 11.87 2.056 26.7-.919 36.187-1.654 5.275-2.504 6.55-6.446 9.666-6.052 4.784-14.158 9.182-22.174 12.031-7.847 2.79-7.762 2.79-20.844-.288M622.44 1185.595c-1.042-2.715-.527-5.341 1.933-9.851 3.307-6.065 6.945-7.773 17.755-8.339 10.191-.533 18.339.605 40.422 5.645 24.202 5.524 26.448 5.925 37.155 6.64l9.583.638-7.086.746c-6.35.668-49.049-.431-69.585-1.792-4.105-.271-11.308-.212-16.007.133l-8.544.627-1.52 3.179c-1.727 3.612-3.285 4.513-4.106 2.374" style="fill:#ff0;stroke-width:.89881" transform="translate(-211.194 -350.641)"/><path d="M685.13 1203.103c-4.514-.948-15.839-4.135-25.167-7.081l-16.96-5.357 7.19-.044c3.954-.024 15.28.632 25.166 1.46 10.077.843 27.85 1.534 40.447 1.572 23.132.07 31.568-.726 41.95-3.957 4.208-1.31 5.935-1.421 9.88-.641 4.07.804 4.447 1.038 2.54 1.572-21.158 5.927-30.053 8.131-37.832 9.373-5.141.82-12.56 2.271-16.485 3.224-9.037 2.193-19.924 2.15-30.73-.12zM861.949 626.44c-2.984-2.09-5.825-8.623-9.908-22.789-3.752-13.018-6.13-18.949-7.824-19.513-.558-.186-.753 1.71-.513 5.018.761 10.527-2.858 14.858-9.45 11.308-7.157-3.855-20.931-21.399-20.922-26.649.013-8.202 3.804-13.306 9.882-13.306 5.241 0 14.803 5.335 22.865 12.76 15.049 13.856 25.67 32.181 25.67 44.287 0 3.903-.39 4.994-2.472 6.918-3.351 3.096-5.06 3.555-7.328 1.967M827.258 520.832c-3.46-2.996-15.392-14.031-26.515-24.522-21.097-19.9-27.485-25.743-34.085-31.184l-3.948-3.254 3.512-1.24c2.046-.722 7.096-1.24 12.098-1.24 8.098 0 8.966.19 15.28 3.33 12.04 5.986 22.595 17.526 30.32 33.147 5.214 10.543 11.927 30.556 10.214 30.448-.321-.02-3.416-2.489-6.876-5.485M750.41 392.726c-26.954-1.93-54.984-8.134-125.68-27.815-5.757-1.602-5.28-2.943 1.938-5.462 7.265-2.534 34.816-2.247 50.489.526 21.087 3.732 39.937 9.346 55.462 16.52 7.925 3.661 20.12 11.328 23.15 14.553 1.956 2.08 1.992 2.268.415 2.125-.951-.086-3.55-.287-5.774-.447M483.97 434.695c-5.665-1.987 25.781-19.005 50.248-27.194 10.262-3.434 11.104-3.572 18.26-2.992 9.554.775 20.803 3.638 23.024 5.86 1.584 1.583 1.61 1.888.325 3.85-2.913 4.445-19.27 11.21-36.188 14.964-13.705 3.042-20.211 3.863-32.807 4.136-6.673.145-14.187.64-16.698 1.1-2.51.461-5.284.585-6.164.276M408.871 456.125c.028-6.818 8.794-17.875 21.124-26.645 11.091-7.89 36.321-20.304 48.75-23.987 3.236-.96 2.508 1.73-1.705 6.301-4.564 4.952-11.089 9.312-30.877 20.635-18.705 10.702-28.463 17.133-33.48 22.067-3.554 3.493-3.82 3.607-3.812 1.63M370.972 554.762c-8.955-3.2-18.366-11.638-22.291-19.988-3.658-7.782-1.125-14.944 6.702-18.948 1.483-.76 5.326-3.897 8.539-6.974s7.207-6.299 8.875-7.16c2.717-1.402 3.175-1.423 4.403-.195 1.668 1.668 2.775 7.946 2.847 16.146.057 6.551 1.617 18.279 2.692 20.237.48.876 1.942.088 5.524-2.977 5.262-4.502 12.362-9.448 13.563-9.448 3.145 0-2.87 9.088-13.054 19.726-11.047 11.537-11.556 11.811-17.8 9.58M316.285 603.84c0-.886 2.427-6.633 5.393-12.772s5.393-11.916 5.393-12.837 1.658-3.163 3.685-4.98 4.263-4.417 4.967-5.777c1.15-2.22 1.757-2.47 5.976-2.457 10.844.035 19.37 10.304 13.964 16.818-1.675 2.019-7.441 4.655-12.598 5.761-3.921.841-6.107 2.196-12.688 7.862-7.963 6.857-12.156 9.977-13.418 9.986-.37.003-.674-.72-.674-1.605M294.723 811.148c-6.474-1.073-10.76-3.366-13.347-7.14-2.78-4.057-2.394-8.522 2.053-23.74 3.129-10.706 3.726-11.967 7.125-15.051 8.725-7.917 32.85-17.327 46.516-18.145 4.14-.248 9.55-1.066 12.021-1.819 5.616-1.71 17.008-1.752 24.835-.093 12.775 2.708 20.33 8.788 25.038 20.15 7.219 17.419 6.506 17.59-9.876 2.369-10.412-9.675-15.58-13.503-17.025-12.61-2.918 1.803 1.243 11.42 8.762 20.255 6.015 7.066 8.785 11.463 7.827 12.42-1.12 1.121-10.216-4.53-20.705-12.866-10.463-8.315-19.478-13.935-22.352-13.935-2.057 0-1.85 3.764.457 8.35 1.047 2.081 4.514 8.137 7.704 13.457s5.67 10.283 5.51 11.029c-.48 2.258-8.233-3.814-12.667-9.92-10.81-14.886-24.694-20.1-31.418-11.8-1.046 1.292-1.556 3.529-1.564 6.86-.015 6.49 3.011 12.951 9.058 19.344 5.02 5.31 4.909 5.666-1.109 3.524-8.35-2.972-21.255-5.774-26.628-5.782-5.274-.008-5.617.119-5.617 2.07 0 2.403 2.776 5.22 10.26 10.412 4.893 3.394 5.108 3.68 2.697 3.583-1.442-.058-4.841-.473-7.555-.922M676.707 828.88c0-1.353 2.888-8.127 12.079-28.334 2.796-6.148 6.324-15.653 7.838-21.122 3.278-11.834 6.88-21.177 8.166-21.177 2.046 0-1.725 25.141-6.084 40.558-3.479 12.304-5.331 15.754-12.353 23.004-7.166 7.4-9.646 9.217-9.646 7.07" style="fill:#ff0;stroke-width:.89881" transform="translate(-211.194 -350.641)"/><path d="M477.88 527.364c8.157-15.775 57.169-29.998 94.153-27.324 10.196.738 23.735 3.261 23.735 4.424 0 1.216-4.1 6.415-6.202 7.864-9.098 6.276-18.271 7.733-52.587 8.354-11.186.202-23.34.678-27.01 1.057-8.206.847-17.608 3.163-21.364 5.262-1.844 1.031-4.366 1.727-7.312 2.017l-4.498.443z" style="fill:#ff0;stroke-width:.635554" transform="translate(-211.194 -350.641)"/><path d="M626.91 506.352c-5.961-3.06-16.259-6.544-24.151-8.17-12.814-2.64-16.699-2.9-43.043-2.889l-25.565.011 1.732-1.476c2.66-2.267 10.072-5.68 15.714-7.236 4.52-1.246 6.674-1.406 19.384-1.44 12.672-.034 15.09.13 21.235 1.446 12.53 2.681 23.687 7.348 31.362 13.118 3.678 2.765 8.923 8.329 8.347 8.855-.136.125-2.393-.873-5.015-2.22M589.244 452.379c-4.811-.242-8.906-.597-9.098-.79-1.309-1.308 13.128-8.536 24.866-12.45 27.152-9.051 49.773-8.225 60.193 2.199 3.563 3.564 6.641 9.165 5.403 9.83-2.557 1.373-60.835 2.24-81.364 1.21M551.915 477.89c0-1.592 19.219-8.306 31.95-11.161 7.8-1.75 13.486-2.01 21.433-.978 5.826.756 9.04 1.763 8.742 2.74-1.049 3.434-22.59 8.009-38.21 8.114-4.24.029-10.569.448-14.064.932-7.417 1.027-9.851 1.114-9.851.353M430.524 458.38c0-1.141 9.597-12.207 15.983-18.429 11.653-11.354 23.903-19.939 38.992-27.325 21.509-10.528 42.425-15.73 66.733-16.593 17.979-.639 35.376 1.75 51.48 7.071 7.622 2.518 20.985 8.047 22.075 9.133.471.47-39.62 8.74-45.749 9.437-2.622.298-3.337.188-3.337-.514 0-1.044 4.318-3.975 10.17-6.902 2.271-1.136 4.235-2.16 4.362-2.276.42-.379-3.326-3.475-7.95-6.573-2.742-1.836-6.772-3.773-10.17-4.886-5.324-1.745-6.193-1.842-16.114-1.8-9.359.042-11.17.233-16.842 1.781-14.87 4.058-29.007 10.837-53.704 25.751-27.26 16.462-36.068 21.588-43.444 25.285-3.896 1.952-8.298 4.384-9.784 5.404s-2.701 1.667-2.701 1.436M668.221 423.302c-7.88-3.592-43.704-17.61-50.612-19.804-7.668-2.436-15.34-6.187-16.587-8.11-.8-1.232-.76-1.521.362-2.644 2.099-2.098 7.656-2.833 18.853-2.493 24.73.752 45.73 9.807 51.468 22.192 1.723 3.719 2.534 8.909 1.78 11.391l-.497 1.64zM530.306 388.37c0-1.941 18.33-7.406 34.955-10.42 10.241-1.858 26.01-2.354 30.594-.963 1.875.569 6.763 1.743 10.864 2.61 19.908 4.208 15.386 5.712-20.167 6.705-12.584.352-26.884.95-31.777 1.328-14.35 1.11-24.47 1.416-24.47.74M450.276 410.48c-4.567-2.89 26.968-22.323 55.76-34.36 9.579-4.004 21.031-7.809 27.58-9.161 5.339-1.103 14.195-1.36 14.77-.43.564.913-.832 4.006-2.708 6-6.281 6.674-20.889 13.261-57.319 25.846-10.312 3.563-22.294 7.877-26.628 9.587-7.97 3.146-9.82 3.553-11.455 2.518M399.262 566.18c-9.354-8.39-9.086-17.841.818-28.814 2.062-2.285 4.966-4.743 6.454-5.464 1.489-.72 4.639-3.025 7-5.121 4.73-4.199 11.54-8.42 22.246-13.79 3.863-1.937 8.149-4.232 9.524-5.1 4.168-2.631 3.312-1.263-1.494 2.387-5.657 4.296-10.859 8.935-10.464 9.33.165.165 1.671-.907 3.347-2.383 4.171-3.673 4.97-4.039 6.18-2.83 2.46 2.46 1.03 11.447-3.52 22.129-7.838 18.4-20.644 30.859-33.409 32.504-3 .386-3.145.325-6.682-2.848M337.108 527.58c.042-4.335 1.48-13.528 2.864-18.304 2.595-8.955 6.577-16.46 14.056-26.492 9.969-13.372 18.806-22.068 33.278-32.751 5.73-4.23 14.935-10.362 15.554-10.362.46 0-31.682 48.478-37.709 56.876-10.446 14.555-21.37 27.402-26.306 30.937-1.654 1.184-1.747 1.19-1.737.096M386.968 526.425a294 294 0 0 1-.556-1.805c-1.503-4.947 8.173-42.995 10.937-43.003.244 0 2.4-1.288 4.793-2.86 2.392-1.573 4.932-2.859 5.645-2.859s2.518 1.223 4.012 2.717c8.068 8.068 5.125 22.12-6.551 31.285-1.883 1.478-4.331 3.958-5.44 5.51-3.592 5.031-10.188 11.968-11.38 11.968-.64 0-1.296-.429-1.46-.953M472.168 457.492c-.971-1.572 11.448-6.029 28.534-10.24 29.926-7.376 65.38-13.044 85.915-13.733 12.516-.42 13.685-.14 11.062 2.653-4.78 5.088-21.922 8.527-75.953 15.239-30.88 3.836-44.116 5.608-47.787 6.397-.765.165-1.562.022-1.771-.316M434.793 490.124c-1.634-1.634 11.69-14.55 18.567-17.997 2.605-1.306 14.03-4.22 18.93-4.828 4.643-.577 7.807.53 7.807 2.734 0 2.725-5.85 7.824-12.925 11.265-6.028 2.933-15.182 5.378-20.204 5.396-1.267.005-3.84.685-5.72 1.511-4.478 1.97-5.962 2.412-6.455 1.92M406.373 529.48c0-.952 8.09-11.273 13.122-16.74 7-7.605 15.082-15.005 19.52-17.873 5.9-3.814 27.11-10.315 28.645-8.78 1.517 1.517-5.751 6.933-29.902 22.286-9.397 5.973-17.943 11.645-18.992 12.602-1.672 1.528-9.4 7.22-11.599 8.542-.437.263-.794.247-.794-.036M446.608 527.943c.569-11.55 9.156-21.381 24.294-27.813 7.183-3.052 18.15-6.137 33.19-9.335 14.346-3.05 17.609-3.25 17.196-1.05-.3 1.596-6.123 4.483-21.489 10.655-16.722 6.717-31.246 13.648-38.474 18.359-5.211 3.397-11.548 9.081-13.86 12.432-1.074 1.557-1.091 1.492-.857-3.248" style="fill:#ff0;stroke-width:.635554" transform="translate(-211.194 -350.641)"/><path d="M424.327 568.06c-2.297-1.4-2.513-2.382-1.117-5.082 2.483-4.801 18.826-14.555 39.302-23.456 10.05-4.368 29.358-8.457 30.582-6.475 1.04 1.682-7.54 6.813-34.924 20.889-11.884 6.108-23.268 12.07-25.297 13.248-4.258 2.471-5.69 2.618-8.546.876M679.661 484.482c-4.145-.833-9.834-2.926-18.098-6.658-2.44-1.101-7.873-3.131-12.076-4.511-16.22-5.326-19.964-9.272-9.907-10.44 12.47-1.446 34.636 5.075 43.094 12.68 2.941 2.644 5.885 7.209 5.885 9.126 0 .963-3.511.885-8.898-.197M705.965 465.76c-7.688-1.199-13.04-3.96-18.57-9.578-3.395-3.448-9.456-12.458-8.813-13.1.6-.602 22.043 4.054 32.505 7.056 12.164 3.492 25.108 8.615 32.055 12.688 2.87 1.682 5.13 3.144 5.024 3.25-.107.107-1.907-.21-4.001-.702-4.434-1.043-11.894-1.167-19.078-.316-8.21.973-15.643 1.246-19.122.703M737.116 607.29c-11.212-9.416-20.321-20.526-35.898-43.783L690.95 548.18l.768-2.562c1.057-3.528 3.811-6.163 6.441-6.163 8.526 0 22.869 16.585 34.52 39.914 6.298 12.612 11.068 26.941 10.43 31.332-.192 1.314-.739 1.003-5.994-3.41M704.014 621.281c-3.24-3.424-7.122-9.094-15.137-22.101-6.829-11.082-8.406-13.176-15.067-20.004-8.212-8.418-9.72-10.204-10.626-12.587-2.548-6.702 14.2-.904 27.574 9.547 11.545 9.02 17.605 17.996 18.046 26.728.16 3.191-.08 5.516-.759 7.334-.733 1.962-.876 3.664-.544 6.475.832 7.046-.063 8.228-3.487 4.608M788.55 653.725c-3.829-4.172-12.759-21.43-22.624-43.725-12.504-28.258-13.642-32.173-10.783-37.083 1.904-3.27 3.573-2.984 7.763 1.325 6.578 6.763 14.708 22.474 20.883 40.352 3.703 10.72 5.284 17.884 5.58 25.277.12 2.971.453 7.157.74 9.302.288 2.145.357 4.375.153 4.957-.324.925-.537.874-1.711-.405M782.85 547.509c-4.16-3.07-28.65-28.21-31.81-32.652-4.223-5.936-3.278-8.87 2.64-8.201 3.777.427 12.418 4.45 17.79 8.284 5.344 3.814 12.044 11.087 14.243 15.462 1.993 3.965 2.637 6.311 2.98 10.864a109 109 0 0 0 .653 5.973c.417 2.917.377 3.019-1.17 3.019-.891 0-3.254-1.22-5.326-2.75M841.314 490.357c-2.086-2.185-9.107-10.836-15.602-19.226-8.983-11.602-13.081-16.342-17.123-19.802-6.075-5.202-13.33-12.57-14.449-14.676-2.494-4.695 10.152 1.934 22.8 11.951 11.813 9.354 22.967 22.731 25.063 30.057a1519 1519 0 0 0 2.555 8.77c2.494 8.47 2.255 8.686-3.244 2.926M734.248 510.627c-8.575-3.527-23.327-12.885-26.909-17.069-2.696-3.15-3.323-5.084-2.344-7.233.98-2.153 3.501-2.953 8.35-2.653 5 .31 9.015 2.116 13.33 5.995 3.033 2.728 7.008 9.35 7.008 11.677 0 .6.477 1.484 1.06 1.964 1.83 1.508 5.931 6.984 5.931 7.92 0 1.302-2.332 1.084-6.426-.6M767.685 502.402c-2.097-1.137-7.53-4.234-12.075-6.884s-9.55-5.55-11.122-6.446c-4.179-2.379-13.252-9.991-14.707-12.338l-1.254-2.024 1.325-.709c2.768-1.481 14.095 2.727 22.384 8.316 5.268 3.552 11.268 9.716 13.117 13.477.815 1.656 2.817 4.285 4.45 5.843 1.631 1.557 2.68 2.832 2.331 2.832s-2.351-.93-4.449-2.067M786.752 419.307c-2.447-.65-8.167-2.47-12.711-4.041-4.544-1.573-12.41-4.042-17.478-5.488-9.126-2.603-17.354-5.656-20.247-7.513-1.416-.91-1.435-1.008-.355-1.798 1.478-1.08 5.46-1.053 12.976.09 17.445 2.653 34.383 9.41 42.9 17.116l3.177 2.875-1.906-.03c-1.05-.015-3.91-.56-6.356-1.21M699.681 532.132c-2.796-.462-8.351-1.536-12.345-2.387-6.879-1.465-7.47-1.719-11.247-4.827-4.73-3.893-8.1-7.859-9.477-11.155-.904-2.164-.906-2.539-.016-3.897 3.4-5.188 18.27-2.426 29.535 5.485 6.08 4.27 10.207 9.902 11.72 16 .397 1.598.285 1.742-1.326 1.684-.968-.035-4.047-.44-6.844-.903" style="fill:#ff0;stroke-width:.635554" transform="translate(-211.194 -350.641)"/><path d="M766.185 776.698c.764-4.037 4.107-13.224 7.11-19.543 3.811-8.02 4.606-7.561 2.834 1.635-.545 2.828-.914 3.725-3.663 8.898-3.144 5.916-5.689 10.042-6.191 10.042-.157 0-.198-.464-.09-1.032M796.147 767.67c-.744-.671-1.546-1.68-1.781-2.243-.607-1.45-.519-3.832.2-5.418.825-1.815 3.563-4.66 5.293-5.497 1.314-.636 1.451-.646 2.19-.163 1.52.996.908 4.163-1.865 9.652-.78 1.546-1.704 3.279-2.052 3.85l-.632 1.04z" style="fill:#ff0;stroke-width:.317777" transform="translate(-211.194 -350.641)"/><path d="M276.844 599.594c0-1.423 6.46-10.715 11.969-17.217 1.279-1.51 3.044-4.3 3.923-6.202 4.205-9.102 9.357-15.097 12.972-15.097 3.162 0 5.645 5.223 5.127 10.787-1.044 11.239-9.284 19.284-19.804 19.336-2.542.013-2.864.136-4.75 1.823-3.44 3.079-8.576 7.152-9.017 7.152-.23 0-.42-.262-.42-.583M327.968 572.23c-1.794-4.676.397-17.587 4.381-25.817 2.144-4.428 4.034-6.457 6.013-6.457 1.573 0 2.699 1.07 5.336 5.075 1.793 2.723 2.125 3.56 2.098 5.306-.04 2.68-1.672 5.485-4.852 8.341-1.33 1.196-2.84 3.007-3.353 4.024-.606 1.202-1.736 2.365-3.23 3.324-2.028 1.301-4.15 3.595-5.642 6.099-.42.703-.516.717-.75.106M312.869 632.287c-.682-1.496-.649-2.9.159-6.72 1.358-6.425 3.847-12.833 7.122-18.337 4.137-6.951 20.7-19.17 26.006-19.184 1.396-.004 1.722.176 1.947 1.072.617 2.459-4.223 11.277-9.01 16.413-1.516 1.628-4.208 4.714-5.983 6.86s-4.348 4.875-5.717 6.066c-1.369 1.192-3.64 3.886-5.046 5.987-2.848 4.253-7.201 8.988-8.265 8.988-.38 0-.926-.515-1.213-1.145M324.868 635.268c-.923-.748-1.056-1.231-1.022-3.707.074-5.303 3.395-11.343 10.677-19.417 2.035-2.257 4.567-5.255 5.627-6.662 1.947-2.585 4.542-4.957 7.891-7.214 6.614-4.457 5.014 3.272-3.606 17.412-3.18 5.217-4.21 7.103-6.003 10.994-1.477 3.203-4.916 6.88-7.763 8.298-2.764 1.378-4.366 1.46-5.801.296M340.36 641.33c.57-1.486 12.63-19.474 16.904-25.211 9.834-13.204 20.167-24.355 29.886-32.252 5.514-4.48 6.726-5.017 8.816-3.898 1.8.963.713 3.691-3.69 9.259-2.92 3.695-15.142 16.09-33.43 33.907-5.939 5.787-12.593 12.418-14.787 14.736-2.194 2.317-3.858 3.874-3.7 3.46" style="fill:#ff0;stroke-width:.449405" transform="translate(-211.194 -350.641)"/><path d="M325.806 648.689c-2.023-2.024.425-5.681 13.115-19.596 7.242-7.941 10.273-11.807 11.59-14.787 1.872-4.23 14.371-21.68 14.74-20.577.425 1.277-5.296 12.824-11.388 22.983-7.93 13.224-15.164 23.076-21.454 29.215-4.005 3.91-5.027 4.337-6.603 2.762M271.452 643.206c.003-1.297 2.304-8.991 3.999-13.37 2.35-6.07 4.785-10.185 6.786-11.463 2.54-1.623 12.57-12.808 12.579-14.029.007-.892-1.566-.084-8.002 4.108-7.166 4.67-10.66 6.547-12.43 6.68-1.858.139-1.935-.906-.322-4.352 2.753-5.885 4.115-7.504 9.244-10.995 5.39-3.67 9.775-5.874 12.38-6.223 1.491-.2 1.95-.048 2.982.983 1.148 1.148 1.204 1.395.966 4.212-.842 9.953-13.86 31.53-23.92 39.648-.746.602-1.917 2.054-2.604 3.229-1.282 2.193-1.66 2.552-1.658 1.572M277.806 658.861c-.682-4.588-.646-7.017.174-11.721 1-5.738 3.836-11.757 5.915-12.555 2.987-1.146 2.048 6.349-2.107 16.823-.932 2.348-1.942 5.483-2.244 6.966-.853 4.18-1.175 4.27-1.738.487M288.753 710.433c-3.573-1.88-5.091-4.739-4.225-7.954.935-3.474 3.78-6.87 6.82-8.14 1.66-.693 1.72-.683 2.868.466 1.072 1.072 1.15 1.393.907 3.725-.468 4.471-3.35 12.665-4.444 12.63-.317-.01-1.184-.336-1.926-.727M310.806 654.746c-.827-.827-.633-2.043.868-5.421 2.243-5.049 9.895-14.778 10.44-13.276.35.958-1.547 5.695-4.95 12.366-2.314 4.534-3.465 6.33-4.25 6.629-1.368.52-1.277.533-2.108-.298M288.767 664.403c-.928-2.384 5.358-21.983 7.05-21.983.586 0 .217 5.084-.788 10.876-.694 4-2.401 7.676-4.916 10.583-.882 1.02-1.117 1.112-1.346.524M603.49 1366.747c-.612-1.298-2.154-5.696-3.428-9.775a2657 2657 0 0 0-5.037-15.9c-4.23-13.186-4.883-18.69-2.414-20.308.98-.641 1.207-.626 2.788.19 3.601 1.857 7.12 6.17 10.043 12.308 4.127 8.667 4.63 17.711 1.345 24.151-.7 1.372-.904 2.66-.909 5.72-.006 4.11-.291 5.973-.912 5.973-.2 0-.865-1.062-1.476-2.36M593.017 1376.644c-2.602-2.4-5.23-6.88-8.752-14.924-1.523-3.476-3.536-7.837-4.474-9.691-1.225-2.42-2.087-5.145-3.054-9.662-1.997-9.32-2.76-14.063-2.744-17.078l.013-2.696.936 1.123c1.714 2.058 5.817 10.827 14.147 30.232 4.537 10.571 8.757 20.22 9.377 21.443 1.096 2.165 1.103 2.235.257 2.688-1.83.979-3.558.544-5.706-1.435M612.176 1400.115c-.495-.494-.895-1.152-.89-1.46.026-1.412 2.032-4.667 6.677-10.829 5.907-7.837 7.83-11.329 7.834-14.226 0-1.112-.42-4.247-.937-6.966-1.918-10.09-2.231-19.363-.672-19.883.74-.246 2.608 3.641 3.914 8.146 2.563 8.845 3.25 21.073 1.627 28.94-1.273 6.168-3.742 10.953-7.436 14.408l-2.96 2.769h-3.129c-2.53 0-3.301-.172-4.028-.899M627.684 1401.471c-1.278-2.471-1.34-5.091-.203-8.626 2.26-7.025 9.62-15.173 11.767-13.025.846.846-.43 5.074-3.172 10.512-2.996 5.943-6.845 12.48-7.346 12.48-.194 0-.664-.604-1.046-1.341M615.963 1340.582c-1.15-1.755-1.745-7.196-1.118-10.216.933-4.497 2.77-5.78 5.711-3.986l1.415.863-.623 3.292c-1.195 6.315-3.037 11.158-4.244 11.158-.227 0-.741-.5-1.141-1.111M577.884 1404.598c-2.503-1.969-4.258-7.478-5.725-17.965-2.37-16.95-2.562-17.78-4.035-17.394-.689.18-.95-.04-1.149-.96-.141-.658-.752-2.993-1.359-5.19-.606-2.197-1.03-4.067-.941-4.156.17-.17 7.873 16.212 11.334 24.105 2.703 6.167 5.47 14.458 6.153 18.445.466 2.715.45 3.24-.113 3.595-1.097.694-2.942.482-4.165-.48" style="fill:#ff0;stroke-width:.449405" transform="translate(-211.194 -350.641)"/><path d="M916.177 636.968c-7.916-5.026-13.629-12.26-18.069-22.883-1.491-3.569-5.065-15.635-7.941-26.814s-6.265-22.889-7.53-26.022-2.156-5.842-1.978-6.02c.545-.545 10.243 12.267 17.188 22.707 14.534 21.85 23.771 43.294 23.771 55.185 0 3.51-.325 6.383-.723 6.383s-2.52-1.141-4.718-2.536M894.59 667.006c-3.64-2.473-8.675-8.88-14.391-18.312-5.185-8.555-6.714-8.42-6.54.575l.127 6.563-2.662-2.546c-6.542-6.259-7.673-11.675-3.14-15.04 2.037-1.514 3.816-1.882 8.988-1.86 15.174.067 27.242 10.798 29.004 25.792.525 4.464.388 5.113-1.263 5.996-2.965 1.587-6.704 1.156-10.123-1.168M892.83 706.888c-5.31-5.685-8.33-22.443-4.044-22.443 1.751 0 6.212 6.675 10.366 15.514 3.146 6.692 3.312 7.415 1.943 8.457-2.529 1.922-5.566 1.36-8.264-1.528M953.004 688.9c-2.665-4.54-5.66-8.57-6.656-8.954s-4.35-3.245-7.453-6.358c-8.308-8.333-8.626-12.407-.88-11.245 12.1 1.814 26.746 13.95 26.746 22.162 0 2.375-2.1 6.768-4.838 10.115l-2.073 2.536z" style="fill:#ff0;stroke-width:.89881" transform="translate(-211.194 -350.641)"/><path d="M782.261 934.895c0-1.038 1.619-2.4 3.597-3.028 3.493-1.109 8.26-7.617 6.712-9.165-.422-.422-3.926 1.745-7.786 4.816-6.394 5.088-7.802 5.48-15.857 4.415-33.457-4.422-45.58-29.447-24.949-51.503 9.538-10.196 13.85-10.958 22.211-3.923 11.002 9.257 13.388 24.585 4.68 30.067-8.502 5.354-11.444 5.142-13.578-.982-3.456-9.914-2.853-11.037 5.196-9.677 5.123.866 7.19.584 7.19-.978 0-2.81-7.065-14.302-8.793-14.302-2.31 0-12.583 10.935-13.761 14.648-3.11 9.8 6.59 19.488 19.527 19.5 8.73.01 13.082-2.352 16.491-8.945 3.692-7.138 3.41-13.785-.835-19.747-9.333-13.106-7.527-19.477 4.879-17.212 3.718.679 14.041 4.316 22.94 8.082 8.897 3.766 19.481 7.395 23.519 8.065 9.206 1.526 17.92 6.722 19.148 11.416 3.42 13.081-23.311 32.767-49.536 36.479-6.11.865-13.333 2.087-16.051 2.716-2.979.689-4.944.394-4.944-.743" style="fill:#fff;stroke-width:1.79762" transform="translate(-211.194 -350.641)"/><path d="M414.966 943.59c-3.928-.97-2.414-3.795 5.982-11.167 10.398-9.129 19.76-24.171 19.753-31.738-.006-6.608-3.589-12.388-10.436-16.838-6.993-4.544-18.668-5.026-24.181-.998-6.07 4.434-9.867 13.794-9.867 24.318 0 9.84 1.077 14.075 4.433 17.431 5.033 5.033 12.985.526 19.663-11.146 2.127-3.719 3.868-7.073 3.868-7.454 0-1.212-8.77-.05-10.508 1.391-2.625 2.18-7.843-1.032-8.319-5.119-.616-5.291 6.758-12.684 12.652-12.684 6.32 0 12.302 3.384 13.408 7.586 1.423 5.4.976 17.17-.776 20.444-2.52 4.708-10.387 12.895-14.371 14.955-4.947 2.558-17.321 2.447-25.376-.23-8.553-2.84-18.283-12.262-19.53-18.911-1.49-7.934.042-16.758 4.013-23.132 3.456-5.548 4.542-6.248 17.665-11.407 15.624-6.143 21.527-6.755 34.843-3.617 17.768 4.189 35.043 16.046 40.849 28.039 3.698 7.64 2.974 16.258-1.965 23.385-3.534 5.1-17.842 15.774-19.648 14.657-.828-.512-20.386 1.17-27.386 2.354-1.398.236-3.543.183-4.766-.12M363.803 930.878c-8.804-2.126-30.223-9.832-35.483-12.766-12.326-6.876-10.91-10.123 7.52-17.239 16.812-6.491 22.077-7.894 23.666-6.306.737.738 2.132 6.636 3.099 13.107 1.836 12.294 3.835 19.835 5.969 22.524 1.337 1.685.113 1.86-4.77.68" style="fill:#fff;stroke-width:1.27111" transform="translate(-211.194 -350.641)"/><path d="M588.385 1283.913c-12.196-1.465-28.432-4.398-54.378-9.824l-18.875-3.947 23.819.637c13.1.35 43.637.62 67.86.597 49.09-.044 61.045-.916 80.175-5.849 15.61-4.024 16.776-3.372 4.545 2.54-18.591 8.99-35.053 13.988-52.538 15.952-14.19 1.595-36.849 1.547-50.608-.106" style="fill:#de8787;stroke-width:.89881" transform="translate(-211.194 -350.641)"/><path d="M536.881 1264.597c-6.25-.92-9.94-2.55-10.327-4.56-.211-1.097.599-1.616 3.135-2.007 8.337-1.289 27.42-2.387 55.65-3.204 53.68-1.552 67.467-2.386 86.636-5.24 11.605-1.728 31.38-1.897 35.351-.302 1.4.561 2.39 1.524 2.201 2.14-1.158 3.764-25.902 10.364-47.889 12.772-7.755.85-119.277 1.208-124.757.401" style="fill:#de8787;stroke-width:.89881" transform="translate(-211.194 -350.641)"/><path d="M951.398 1138.125c-7.936-24.592 13.218-45.274 4.874-6.27 35.883-10.103 50.252-61.658 73.782-90.797 28.5-34.835 48.47-75.32 75.685-111.268 30.226-51.988 65.543-100.843 92.884-154.617 35.332-55.63 69.94-111.76 106.066-166.782 23.24-42.141 57.103-77.67 78.46-121.167 36.977-48.007 67.799-100.482 98.552-152.564 11.288-58.358-50.823 23.261-66.322 38.52-34.656 29.241-58.942 67.917-88.974 101.556-36.583 50.11-74.27 99.426-105.175 153.37-41.191 63.844-82.238 127.777-117.169 195.345-34.183 56.772-62.234 116.937-96.164 173.8-16.77 42.08-47.089 77.289-61.823 120.394-18.426 21.26 13.125-39.137 20.9-52.213 26.142-41.692 45.146-87.102 71.118-128.932 35.65-68.523 74.442-135.424 112.128-202.775 51.101-76.797 95.157-158.372 152.572-230.855 29.72-40.345 60.444-80.403 95.309-116.325 28.508-28.689 54.346-61.498 88.31-84.154 11.703 42.45-34.88 76.443-50.407 113.732-27.105 41.992-56.499 82.305-82.315 125.158-31.777 38.796-52.86 84.226-82.638 124.446-34.482 56.418-71.51 111.325-102.217 169.92-32.452 46.328-57.74 97.028-92.616 141.706-21.398 41.863-55.057 75.772-75.838 118.19-13.637 13.793-27.414 44.16-48.982 42.582m182.385-5.751c-.908-40.611 28.522-75.65 42.296-112.982 24.498-61.064 66.547-112.616 98.602-169.539 31.618-44.337 57.214-92.515 91.716-134.795 28.722-41.722 62.783-79.59 86.117-124.926 28.425-30.427 40.404-69.533 58.617-105.74 22.251-42.206 51.227-81.51 67.819-126.122 21.459-50.351 75.742-4.445 42.847 30.788-18.139 35.866-36.132 72.766-61.74 104.208-36.975 66.835-75.74 132.637-115.09 198.11-54.576 77.558-104.873 157.77-154.355 238.609-27.975 39.92-50.864 82.969-81.48 120.875-26.233 24.998-36.875 76.183-75.349 81.514m16.422-8.89c30.81-29.592 48.798-71.416 78.223-103.383 38.613-59.904 77.277-120.012 114.789-180.614 38.535-65.037 85.507-124.874 123.315-190.43 31.34-53.179 61.74-106.972 93.256-160 26.158-34.2 44.893-73.479 63.063-112.113 14.397-49.683-47.378-39.365-45.967.555-25.498 43.372-51.568 86.795-74.19 131.825-12.444 46.292-50.531 78.639-70.686 121.262-41.399 58.229-87.794 113.205-123.636 175.238-36.954 51.953-67.877 107.631-102.792 160.938-23.651 49.225-48.946 98.164-67.379 149.595-3.143 10.97 3.79 16.747 12.003 7.127m-371.074-11.528c6.882-41.965 21.161-81.796 32.6-122.555 34.748-75.543 67.59-152.102 110.396-223.643 62.809-117.18 134.533-229.967 218.603-333.12 54.105-72.08 116.34-138.74 187.508-194.162 18.234-11.287 84.03-70.432 55.363-20.184-30.65 44.549-68.076 84.692-99.525 128.976-57.465 71.954-112.93 145.503-167.429 219.739-47.03 65.323-96.244 129.134-138.214 197.898-43.881 70.156-84.394 142.43-120.709 216.82-27.72 40.797-40.094 90.381-68.249 130.096-2.103 1.335-15.122 17.185-10.344.135m12.374-5.898c32.102-72.838 71.774-142.367 107.68-213.652 32.494-55.919 63.934-112.477 100.336-166.004 47.479-72.577 101.533-140.694 151.78-211.433 49.927-65.559 99.69-131.345 150.804-196.03 25.287-37.768 61.498-68.417 81.15-109.548-23.278-1.564-71.226 46.847-98.87 68.915-62.854 54.48-115.307 119.655-164.918 186.132-96.964 123.005-173.427 260.404-245.663 398.897-21.668 52.852-51.918 102.316-66.655 157.723-9.134 26.218-12.854 31.269 3.982 10.588-6.114 17.202-36.467 72.529-19.626 74.412m90.293-30.793c9.073-30.176 31.545-60.853 44.576-91.774 34.3-57.414 63.843-117.585 98.3-174.87 33.426-50.29 65.024-101.867 103.177-148.878 12.74-14.345 49.271-60.975 55.708-48.269-20.04 42.359-48.898 79.933-72.236 120.563-43.018 72.036-89.147 142.216-126.983 217.172-30.324 39.642-47.717 92.261-93.954 117.277-2.752.303-6.755 14.215-8.588 8.779m32.74-29.444c29.636-35.351 52.941-75.843 75.322-115.877 49.058-89.83 105.374-175.448 157.636-263.322 13.011-12.194 48.372-80.876 14.054-38.808-31.26 27.4-53.152 64.11-78.547 97.029-31.654 50.766-67.638 99.009-92.789 153.554-35.003 59.625-68.378 120.27-98.615 182.263 7.114.363 16.765-10.3 22.94-14.84m262.193-149.03c1.24-39.469 33.077-75.019 55.863-106.282 38.824-55.271 83.249-106.516 120.575-162.784 10.524-19.716 56.436-75.935 57.313-64.565-34.734 26.556-53.547 67.192-79.546 101.412-41.536 56.742-86.873 110.94-126.08 169.175-11.23 12.197-39.682 82.7-5.838 45.717 46.861-52.132 79.629-114.898 116.614-174.02 28.889-40.938 56.371-83.22 85.977-123.585 11.69-18.258 39.547-50.48 13.33-12.59-30.812 34.143-49.017 77.25-80.18 111.301-44.739 70.742-83.08 146.94-140.815 208.424-4.853 2.99-10.285 13.496-17.213 7.797m11.734-357.221c30.238-50.487 64.991-98.306 97.479-147.286 9.328-16.607 59.604-49.272 19.674-16.866-37.394 38.272-59.67 88.276-93.059 129.95-12.6 18.234-21.258 40.536 1.506 13.497 32.233-40.629 78.562-69.55 102.806-116.449 13.766-15.292 46.577-80.362 23.852-28.444-24.074 36.18-47.762 72.166-80.935 100.998-26.104 17.848-42.827 56.075-71.323 64.6" style="fill:#000;stroke-width:1.33333" transform="matrix(1.0148 0 0 1.0099 -762.27 -71.416)"/><path d="M1301.987 384.212c7.01-4.177 13.638-9.03 19.619-14.588 2.85-2.65 5.55-5.58 8.227-8.401 2.12-1.987 4.623-6.044 7.322-7.456.39-.204.867-.173 1.307-.195.525-.027 1.134-.233 1.578.05.348.222-.819.115-1.228.173 1.348-.076 12.16-.126 5.277-.105-.023-.104 1.025.132.94.067-.355-.27-.86-.302-1.201-.589-.98-.82-1.187-1.304-1.709-2.236-1.338 3.317-2.387 6.741-3.63 10.097-1.092 3.425-2.926 6.423-5.05 9.285-1.036 1.673-2.277 3.205-3.405 4.812-.396.565-.73 1.173-1.144 1.725-.544.725-3.328 3.86-3.595 4.165-3.907 4.717-1.93 2.285-5.925 7.299-.437.727 9.852 6.896 10.288 6.169 3.722-5.283 1.988-2.688 5.226-7.77.564-.909 2.307-3.743 3.041-4.83 1.52-2.25 3.604-4.103 4.808-6.58 2.151-3.612 4.486-7.157 5.897-11.147 1.562-4.18 2.986-8.466 3.474-12.922-.111-.952.012-1.962-.334-2.856-.964-2.488-1.835-2.997-4.018-3.918-.321-.136-.904.21-1.223-.032-.94.001-1.88.01-2.82.003-.148 0-.59-.027-.443-.026.86.008 1.723.137 2.577.047.338-.036-.664-.142-.996-.214-2.022-.44-.756-.192-3.113-.605-3.918.016-5.484-.397-8.895.792-5.068 1.766-8.892 5.713-12.703 9.299-1.274 1.213-2.52 2.46-3.824 3.641-7.199 6.52-15.131 12.235-21.829 19.303-.533.53 6.971 8.073 7.504 7.543zM1391.137 586.805c.587-.453 1.207-.865 1.76-1.359 5.807-5.195 10.904-12.152 15.34-18.505 3.277-4.867 6.92-9.068 11.68-12.52.498-.36 3.905-2.494 4.529-2.886 2.375-1.383 3.94-1.968 5.298-4.601.226-.44.243-.957.365-1.436-.017.111.058.358-.052.333-3.255-.75-6.353-2.315-9.683-2.576-.672-.052-.716 1.143-1.033 1.738-1.419 2.665-2.272 5.51-3.22 8.363-.92 3.848-3.155 7.088-5.226 10.385-.347.71 9.7 5.622 10.047 4.911 2.293-3.973 4.675-7.95 5.788-12.451.756-2.414 1.318-4.882 2.159-7.265.159-.451.9-1.058.514-1.339-2.604-1.892-5.567-3.277-8.546-4.499-.285-.117-.168.594-.251.891.446-1.433.032-.407 1.417-2.307.048-.065.187-.232.107-.217-1.441.265-3.17 1.265-4.528 1.652-2.221 1.133-3.782 1.86-5.923 3.292-5.704 3.816-10.266 8.985-14.236 14.532-4.563 6.7-9.204 13.353-14.2 19.742-.432.558 7.46 6.68 7.894 6.122zM963.22 1098.9c1.73-6.013 2.13-12.279 2.832-18.463.511-4.508.27-1.594.452-3.945l-11.847 2.342c-.683-.602-1.346-2.384-2.049-1.805-1.122.923-.638 2.835-.933 4.258-1.7 8.215-2.8 16.462-3.878 24.779-.888 8.248-1.467 16.55-1.412 24.852.01 1.48.029 2.963.18 4.434.063.606-.147 1.7.458 1.769 4.726.538 9.512-.061 14.268-.092 1.5-5.723.781-2.629 2.071-9.304.111-1.141-16.032-2.715-16.143-1.573-.313 7.058-.404 3.821.059 9.714 4.666.88 9.254 2.421 13.998 2.64.714.033.686-1.268.889-1.954.427-1.451.721-2.94.992-4.428 1.476-8.093 2.02-16.31 2.854-24.482.64-8.354.844-9.961 1.173-18.082.028-.687.378-10.396.11-12.058-.383-2.383.41-6.154-1.85-7.001-3.964-1.487-8.402 1.054-12.603 1.581-.446.888-.99 1.732-1.339 2.663-2.664 7.124-2.523 15.646-2.697 23.146-.071 1.02 14.344 2.028 14.415 1.009z" style="fill:#000" transform="matrix(1.0148 0 0 1.0099 -762.27 -71.416)"/><path d="M185.902 929.766c.537-1.888 1.39-14.168 1.897-27.287l.92-23.853 12.953-21.913c7.124-12.052 16.817-29.853 21.54-39.558s11.937-23.435 16.031-30.511c4.095-7.076 19.88-36.076 35.08-64.443 15.199-28.368 33.977-62.693 41.73-76.277s19.217-34.18 25.477-45.766c15.578-28.834 45.476-78.594 75.482-125.623 13.784-21.605 29.838-47.127 35.676-56.716 40.233-66.084 129.034-183.586 169.094-223.745 9.565-9.59 25.817-26.751 36.115-38.137 24.983-27.625 37.782-37.875 43.148-34.56.844.523 1.535 4.637 1.535 9.144 0 7.962-.592 9.182-20.95 43.138-26.245 43.774-47.126 76.05-65.298 100.927-7.768 10.634-15.99 23.022-18.272 27.527-5.333 10.53-17.802 29.455-39.693 60.24-9.61 13.514-21.53 31.196-26.489 39.292s-17.843 28.451-28.632 45.232c-39.193 60.963-86.592 136.786-91.123 145.767-9.35 18.536-70.108 117.382-93.03 151.35-6.202 9.19-19.624 29.784-29.827 45.766s-24.925 37.558-32.716 47.946c-7.79 10.388-19.253 27.714-25.473 38.501-18.994 32.947-31.589 49.199-42.761 55.178-3.18 1.702-3.33 1.601-2.414-1.619" style="fill:maroon;stroke-width:1.45289" transform="matrix(1.0148 0 0 1.0099 28.39 124.901)"/><path d="M360.666 931.902c-4.665-4.665 9.327-40.225 45.356-115.263 15.277-31.818 24.613-48.979 40.314-74.098a33088 33088 0 0 0 37.587-60.295c9.435-15.183 24.163-38.066 32.73-50.851 8.566-12.786 20.65-31.42 26.853-41.408 14.096-22.698 30.365-45.663 70.422-99.405 33.348-44.742 36.85-49.763 47.994-68.834 3.874-6.63 14.483-22.648 23.576-35.596 9.093-12.949 19.065-27.75 22.16-32.89 6.221-10.335 15.217-30.11 15.245-33.513.029-3.428 26.65-52.49 51.72-95.319 17.079-29.178 23.162-40.851 24.017-46.093 1.642-10.055 7.429-19.08 15.125-23.591 18.354-10.756 32.672-2.252 30.808 18.299-.589 6.494-3.671 13.92-16.048 38.651-17.552 35.073-26.202 50.221-40.959 71.73-5.756 8.391-20.922 33.235-33.702 55.21-88.833 152.747-82.651 142.635-131.909 215.755-17.764 26.37-49.267 75.079-70.007 108.241-52.883 84.559-103.933 163.326-112.526 173.62-4.002 4.795-15.69 21.14-25.975 36.323-31.236 46.115-47.6 64.508-52.781 59.327" style="fill:red;stroke-width:1.45289" transform="matrix(1.0148 0 0 1.0099 28.39 124.901)"/><path d="M9.78 909.612c-1.456-1.455-1.695-3.04-1.286-8.524.587-7.872 4.64-19.197 16.205-45.263 4.387-9.889 7.77-18.197 7.516-18.464s-2.726 2.045-5.495 5.137-5.056 5.213-5.08 4.713 1.52-5.354 3.434-10.787c1.913-5.433 5.43-16.12 7.816-23.748 7.33-23.437 14.225-39.797 37.233-88.352 7.363-15.54 15.903-34.031 18.978-41.094 10.613-24.381 60.63-117.631 95.506-178.058 46.579-80.705 92.988-151.618 137.954-210.795 7.728-10.17 21.609-28.432 30.845-40.58 47.915-63.023 90.293-111.858 126.808-146.13 19.215-18.034 70.715-62.3 84.265-72.429 16.244-12.142 30.64-19.787 37.26-19.787 1.776 0-2.08 7.748-9.691 19.474-7.901 12.173-15.448 21.91-36.642 47.277-10.138 12.134-22.363 27.39-27.167 33.903-4.803 6.512-15.974 21.087-24.823 32.388-43.656 55.752-123.86 160.9-145.362 190.574-8.394 11.583-28.915 39.553-45.601 62.155-69.6 94.27-107.116 149.626-145.175 214.202-28.412 48.209-47.808 82.587-61.443 108.9a15113 15113 0 0 1-30.82 59.072c-20.654 39.34-43.608 85.248-54.45 108.9-4.663 10.17-8.595 18.63-8.738 18.798s-1.065-.499-2.048-1.482M114.057 864.387c0-1.04 27.556-54.59 40.354-78.422 13.082-24.36 36.383-66.015 48.56-86.811 4.633-7.911 11.94-21.412 16.24-30.001 12.815-25.6 23.518-43.259 64.636-106.637 22.53-34.73 60.786-87.849 74.727-103.763 10.731-12.249 37.368-38.894 37.747-37.757 1.156 3.469-14.137 32.34-24.176 45.64-3.125 4.14-12.349 18.568-20.497 32.062-8.148 13.495-27.657 45.394-43.353 70.888-48.806 79.273-68.649 112.792-100.722 170.148-29.317 52.428-57.672 95.546-73.048 111.082-8.417 8.505-20.468 16.495-20.468 13.57M421.784 333.673c1.64-5.52 9.497-18.471 19.218-31.68 5.765-7.832 19.67-28.47 30.902-45.859 30.196-46.755 44.935-66.284 50.188-66.497 4.277-.173 13.697-7.207 25.845-19.302 6.119-6.092 11.541-10.819 12.05-10.505 1.35.835-2.562 10.41-6.692 16.378-1.964 2.838-5.892 7.934-8.728 11.324l-5.156 6.165 2.517 2.23 2.516 2.231-3.578 4.96c-1.967 2.73-6.227 9.225-9.466 14.437-10.331 16.625-22.308 30.382-50.504 58.014-15.014 14.714-30.455 30.282-34.312 34.595-22.905 25.614-26.415 28.94-24.8 23.51M405.441 694.832c-2.754-2.754 2.27-20.574 10.655-37.797 7.336-15.066 30.286-47.479 73.472-103.765 48.333-62.996 68.073-89.726 86.551-117.201 23.245-34.564 31.115-44.67 34.164-43.874 2.691.704 9.26-5.361 16.093-14.86 3.893-5.41 6.494-7.811 6.494-5.993 0 .234-7.545 10.983-16.766 23.885s-25.483 36.173-36.138 51.712c-10.655 15.538-24.99 36.342-31.854 46.23-13.037 18.779-16.134 23.707-45.522 72.429-28.435 47.143-46.405 73.925-66.545 99.173-16.377 20.53-28.361 32.303-30.604 30.06M186.272 930.494c.353-.92 1.195-12.892 1.87-26.605l1.23-24.932 12.222-21.07c6.722-11.587 16.195-28.928 21.052-38.533s13.56-26.018 19.34-36.471c5.78-10.454 21.141-38.654 34.135-62.669 28.97-53.54 75.882-137.9 88.92-159.905 25.588-43.183 84.634-137.52 109.142-174.376 35.214-52.953 86.159-120.759 123.209-163.984 6.053-7.063 21.942-24.4 35.307-38.526 48.361-51.113 57.733-60.065 64.726-61.82 3.324-.834 4.242.982 4.261 8.427.02 8.06-2.471 13.219-22.04 45.627-25.393 42.055-39.236 63.345-70.444 108.343-5.055 7.289-10.993 16.535-13.195 20.547-5.16 9.401-17.142 27.523-36.067 54.553-18.821 26.881-18.87 26.957-62.583 95.779-57.77 90.952-77.826 123.308-91.557 147.703-29.45 52.322-115.089 186.25-154.981 242.373-5.59 7.865-15.418 23.016-21.839 33.668-13.958 23.157-22.367 35.161-30.45 43.466-6.526 6.705-13.42 11.431-12.258 8.405" style="fill:red;stroke-width:1.02735" transform="matrix(1.0148 0 0 1.0099 28.39 124.901)"/></svg>
