<svg xmlns="http://www.w3.org/2000/svg" width="759.552" height="1222.396"><path d="M610.429 1499.238c-47.952-12.405-96.797-17.164-145.964-14.793-49.024-8.598-97.356 7.42-146.134 2.376 4.076-12.595 59.596-43.775 62.639-77.82-10.39 22.506-34.79 29.109-7.443 5.235 22.325-50.85 22.973-113.311 7.441-165.494-39.821-46.859-110.867-53.95-145.887-106.675-42.286-45.91-51.364-115.207-38.32-174.579-62.422-19.289-11.728-94.37-21.307-139.524 3.333-55.228-42.987-109.526-17.507-163.411 26.717-17.323-14.836-52.021 3.222-83.248-1.973-29.966 36.19 20.031 24.617-24.762 11.685-71.316 56.492-130.947 99.884-186.396 36.406-36.613-.49 3.372-13.24 20.933 65.357-63.235 150.154-120.054 245.463-110.178 69.277-2.11 148.232-13.88 204.558 36.86 41.82 34.447 74.943 78.532 102.7 124.555 27.056 39.193 31.861 91.942 51.29 125.836 1.728 7.06 13.994-29.25 8.108 4.714 4.426 31.901-1.433 68.788-14.656 77.952 3.648 15.603 30.098-19.323 37.175 14.706 14.436 59.01-33.398 113.384-20.295 173.108 9.799 51.224 7.477 108.763-37.534 142.413-2.789 43.037-15.121 86.065-25.644 128.507-18.357 15.515-67.262 79.807-46.143 18.376-30.796 16.834-33.421 78.75-81.327 87.717-57.954 16.055-43.954 80.868-42.996 126.507 10.401 44.446 14.603 95.977 52.517 126.592 23.95 19.372 23.576 33.893-8.844 22.24-29.08-.225-57.14 14.056-86.373 8.253m27.465-4.11c24.157-14.476 93.483 2.109 50.024-32.756-36.79-52.95-49.492-119.034-45.994-182.446-11.22-46.516-33.158 34.784-49.943-1.665-9.472 24.78-33.916-3.312-44.059 11.666-29.415 5.799-47.293 13.322-67.964 4.422-18.8 26.403-25.623-41.719-56.158-32.412-61.847-19.572 17.446 50.462 36.849 63.095-27.139.629-78.116-70.978-53.85-6.599 6.021 28.711 81.11 61.404 22.84 33.16-16.206-18.187-45.548-42.968-22.098-.74 8.29 19.773 67.284 55.753 18.168 27.595-14.703-15.772-39.84-44.099-22.814-2.107 1.592 26.302 82.243 69.505 21.361 51.858-25.673-7.957-37.447-36.736-6.506-8.743 1.27-26.093-37.342-52.15-30.327-5.74-12.195 22.89-86.428 78.794-16.281 67.056 51.959-10.609 104.452 2.043 156.543-2.478 37.468-.351 74.247 17.926 110.209 16.834m-243.299-24.83c-27.888 3.802-41.538-35.974-8.874-9.986 10.587.546 36.657 11.623 8.874 9.987m14.909-9.792c-31.53 3.265-31.68-63.503-12.127-14.83 6.1 4.745 40.025 15.617 12.127 14.83m12.435-7.06c-30.45.82-42.237-60.057-13.47-16.21 5.905 5.617 40.131 15.402 13.47 16.21m53.484-155.208c5.377-21.625-12.576 2.045 0 0m46.64-9.595c-10.39-1.677-3.945 11.152 0 0m16.032-1.155c-3.952-5.188-4.936 6.682 0 0m20.5-1.418c4.05-7.744-8.329.437 0 0m26.977-4.772c-2.097-21.418-16.014 17.691 0 0m26.936-4.895c.99-32.064-18.775 23.274 0 0m-124.928.335c-.38-11.783-4.232 5.827 0 0m15.015-1.75c50.156 2.676 118.777 2.741 143.19-50.454 9.766-33.975 25.563 6.162 27.466-22.447 36.568 13.406 52.337-42.213 76.663-65.672 34.35-27.284 37.294-72.087 55.754-108.683 26.553-36.667 13.23-85.23 31.32-124.95-2.814-35.469 14.628-70.28 20.45-87.565-.616-22.32 4.688-107.813-5.358-39.86-1.94 20.334-14.101 91.099-20.021 76.851 10.812-60.023 27.935-119.655 22.63-181.145 1.717-28.317-14.291 55.985-10.472 1.409 4.292-54.059-5.278 46.151-8.14.549-12.967-47.698-87.157-24.706-129.287-19.672-42.59 7.514-67.236 26.267-106.407 46.786-33.768 21.565-29.243 98.08-40.42 105.795-4.927-50.615-7.461 83.927 6.274 30.336 1.875 31.325-4.51 80.31 42.505 66.291 46.353-.917 79.611 40.058 20.392 54.871-27.983 16.121-17.292 9.688-25.235 8.071-46.822-2.185-71.021 88.861-105.192 38.187-36.124-34.485-115.374-10.647-122.48-68.783 25.64-9.698 66.01-28.115 89.3-18.599-22.07 16.517-108.406 5.817-55.242 48.397 27.935 3.344 62.479-42.776 73.502 7.287 16.472 20.965 51.357 67.848 62.787 16.183 11.672-57.78 86.743-33.298 113.112-57.123-36.514-31.16-115.186-3.703-107.946-76.055-13.416-56.75 15.524-108.904 37.252-158.889 5.341-25.97 35.441-92.59 45.74-80.277-7.285 24.6 29.472-42.898 14.434 2.437-6.224 15.649 34.456-68.612 16.677-10.418-9.568 26.453-11.265 58.67 2.36 12.212 5.9-23.63 31.407-41.41 14.25-5.581-15.86 25.558-10.305 56.185 4.933 13.686 18.427-36.165 23.014-10.675 11.352 13.372 12.856-8.79 37.112-48.06 27.323-7.844 8.182-10.24 29.17-20.702 17.055 3.534 12.412-3.658 31.16-33.303 21.066-.924 18.653-12.24 37.702 6.618 34.517-2.908 43.461 36.647-.083-36.298 25.22-56.377 7.374-35.203 11.908-27.545-3.978-6.656-9.595-14.43 2.506-66.645 7.17-25.126 14.46-38.54 22.517 39.692 19.353-5.822-18.773-83.169-70.193-157.731-138.449-208.068-42.806-28.134-91.86-40.753-142.836-42.596-16.533-2.867-85.156-1.806-35.793.976 46.77 3.377 123.4 34.745 140.296 55.919-49.085-13.53-90.257-51.247-144.026-49.306-54.13-2.17-113.39-8.863-160.078 25.045-19.98 11.868-58.197 39.1-15.817 13.079 26.035-6.38-56.405 21.151-48.449 48.68-18.579 35.938 20.406 94.214 20.506 109.366-33.148-17.217-40.864-58.84-46.846-69.961-16.06 24.816 38.73 81.878 12.079 76.132-12.492-18.755-20.273-95.083-34.052-34.758-14.302 24.018 45.909 78.073 18.875 74.69-25.051-39.305-45.902-60.273-11.669-103.81 10.916-15.827 33.98-51.798 27.79-12.583 2.287 28.4 12.564 31.796 4.729 2.099 5.77-29.04-2.815-60.027-23.81-20.847-30.393 39.225-68.587 83.222-67.176 135.174 14.08-55.341 10.682 38.227 40.277 27.598-11.249-26.362-1.095-91.552 3.89-26.867 18.152 36.314-4.87 45.652-30.734 27.83-3.567 21.2 20.914 52.861-2.492 50.944-2.81 26.417-36.392 64.985 12.274 65.057-34.106-12.467-11.147-33.773 10.194-8.372 24.76 10.878-28.196-68.229 18.697-28.081 14.272 16.642 43.052 30.333 14.81 2.266-29.402-51.062 70.655 45.138 31.345-2.728-28.684-34.694 10.435-17.23 19.457 5.499-12.046-34.009 16.008-61.183 31.363-18.493 1.588-42.27 36.627 28.064 43.29 42.647 27.426 49.909 78.595 91.864 70.576 154.554 7.182 22.614 6.213 106.804-2.66 46.457-12.63-43.508 6.642-95.577-29.984-130.516-26.165-44.69-70.318-56.607-109.04-69.44-30.377-16.284-10.277 29.853-36.182 8.128-25.877 1.869-37.993 15.607-68.277 10.327-24.821 10.895-23.426-15.33-16.853 17.822 4.074 40.28 34.299 85.443 75.87 47.699 38.241-24.036 108.118-37.127 125.61 18.697 12.817 37.487-25.521 10.723-36.06 36.068-42.817 19.719-107-19.77-131.682-18.658 1.01 26.549 66.656 67.608 41.157 76.467-31.752-17.692-54.19-92.51-67.962-96.334 22.2 54.66 47.238 115.523 96.881 150.195 17.903 30.64-45.176-17.618-46.35-34.113-11.34-18.722-54.186-92.36-27.671-36.282 14.101 45.454 59.114 100.256 82.207 120.294-43.504 4.614-72.89-101.043-79.648-88.752 23.216 42.763 42.034 93.895 88.12 117.337-54.57-5.69-68.283-71.334-93.147-110.344-9.583 6.69-.043 55.465 1.928 21.585 33.253 35.98-39.437 29.431-14.656 74.819 11.562 53.6 16.253 113.149 58.86 153.185 31.024 42.757-26.91-59.648 10.862-12.346 19.213 18.811 52.668 60.42 18.489 44.06 18.86 21.718 48.086 26.462 34.558-9.335-6.838-18.917-8.077-45.483 2.734-57.797 9.89 22.309-4.69-56.425 17.525-17.886-17.762-19.083 6.8-52.35 14.984-17.343-14.11-24.206 22.59-43.198 18.472-44.45 2.638-36.65 19.431 51.028 12.274-.393-2.008-27.203 15.617-22.413 13.815 1.012 12.483-55.504 9.085 37.538 22.709 1.232 12.62-41.042 1.881 49.273 13.87 1.06 8.766-34.967 10.23 4.3 22.39-7.198 1.725 14.925 12.65 31.698 20.414 9.05-11.73 20.814 17.522 19.69 28.858 19.15 3.394-26.863 27.428-28.387 23.507-1.049 21.447-18.93 22.595-10.453 41.314-34.97 19.391 6.44 11.353 11.102 23.73-13.653 26.28-17.475 7.817 66.978 23.163 16.161 6.645-33.603 44.466-29.74 31.792 4.747 31.611-54.766-7.439 81.828 18.053 17.274.03 23.106-6.143 52.196 8.56 43.368 10.045 31.998 6.858 84.723-25.032 92.838 4.768-29.336 10.568-34.03-6.375-7.455-4.09-20.906 4.306-55.769-7.542-14.653-21.67 36.104 14.941-62.484-22.944-26.268-59.06 40.457-135.484 36.601-201.28 17.718-11.826-10.709-72.935 4.113-45.741-7.476-40.278 30.846 50.009-64.717 13.38-10.644 50.516-13.367 104.778-8.337 152.143-14.793 30.294-1.173 84.905 3.176 91.14-16.035 25.486 43.2 22.442-49.877 11.586-67.073-5.436-16.351 4.094-52.752-8.564-16.39-6.424 30.75-34.868 29.039-30.821.673-21.414 45.956-23.448 11.828-27.335 13.52-11.378 21.362-32.07 31.49-44.106 34.81-10.644-36.858-1.23-16.868-22.84 2.089-25.813-6.911-40.352-15.404-58.112-29.472-17.53 16.004-10.765 27.345-31.517 12.357-26.948-6.332-50.435 37.742-67.734 32.302-2.503 31.858-17.124 68.118-9.321 111.33-11.258 20.91 12.857 2.437 14.219 11.915 22.553-8.124 45.42 31.54 60.016 11.28 3.694 26.604 36.885 29.468 28.902 23.991 6.348 38.99 19.42 36.911 28.042 3.86 11.054 3.83-.582 42.738 15.212 30.732m57.45-78.377c-20.16-19.06-122.916 3.99-51.475-15.327 8.194-7.832 82.573 2.284 51.475 15.327m71.874-26.78c30.76-7.933-13.552 10.818-2.132 3.506zm-232.324-58.73c8.21-27.27 10.086 6.462 0 0m98-204.545c4.497-37.794 70.373-2.787 23.123-3.398-7.663 1.113-15.794.438-23.123 3.398m-124.914-28.818c12.346-21.47 12.997-10.754 0 0m273.428-11.872c-22.184-12.393-35.184-72.229 4.486-39.065 18.848 10.048 107.585 14.352 43.667 16.811-33.484-14.954-28.09 17.876-55.745-3.81 1.486 7.024 29.822 31.933 7.592 26.064m-278.472-11.983c28.638-15.086 29.708-41.137-.508-13.077-58.439 30.298 17.201-22.276 36.28-19.332 3.388 13.74-28.327 24.977-35.772 32.41m18.958 2.228 3.04-2.557zm284.797-43.16c-31.319-4.787-86.062-26.489-36.756-52.712 37.285-47.94 94.751-27.868 137.77-1.952 33.068 30.644-50.485 52.215-76.635 54.46-8.107.665-16.262.727-24.379.205m44.703-8.086c26.853 2.424 93.75-40.09 34.825-47.26-17.896-12.946-83.316-38.19-46.171 2.113-.463 53.893-70.093 16.815-22.401-6.186 14.554 13.084-.752 28.164-5.868 5.49-15.288 51.948 52.739-5.548 4.148-14.32-57.783 1.098-5.018 101.975 30.192 46.862-12.402 11.41-16.407 25.25 5.275 13.301m-64.5-5.177c-33.28-31.177 62.538-87.937.576-50.299-33.068 20.587-47.427 38.244-.576 50.3m-405-50.083c41.314-37.427 112.988-53.016 153.394-6.523-38.21-19.086-95.282-37.42-138.561-1.522l-7.5 4.034zm543.516-9.692c-44.003-30.52-127.395-39.963-155.532-9.395 33.975-45.048 87.559-21.795 132.15-11.549 7.179 3.12 32.747 8.4 23.382 20.944M539.595 547.111l3.04-2.557zm-206.5-82.029c-35.5-5.388-17.464-89.374-25.58-80.202 5.38 16.176 6.54 68.37 6.825 22.268 7.428-39.932 11.429 63.838 23.887 59.187l-2.797-.683zm120.5-106.391c7.454-12.948 10.473-2.174 0 0m.578 906.047c4.67-17.643-37.08-37.55-37.176-37.46-24.229-2.12-60.654-34.288-43.282 1.656 27.873 9.432 49.991 33.54 80.458 35.804m181.972-4.034c-6.224-.42-1.396 7.003 0 0m-1.678-4.321c17.25-10.211-12.851 2.5 0 0m21.243-18.554c16.283-12.035-20.384 10.63 0 0m-1.013-4.09c17.344-11.803-19.242 10.14 0 0m.27-4.835c19.181-19.166-13.366-24.397 0 0m23.613-6.32c4.985-9.726-15.522 13.577 0 0m1.015-8.101c-5.182-10.794-6.9 9.125 0 0m31.128-12.745c3.162-4.585-7.089 6.407 0 0m6.21-8.614c-2.43-13.222-19.649 20.576 0 0m-2.21 5.614c2.797-4.87-5.982 7.208 0 0m12.512-17.25c13.03-21.717-19.459 11.498 0 0m-431.89-5.75c-14.546-22.608-39.695-17.784 0 0m448.421-14.196c4.905-17.605 2.778 4.741-4.32 4.602zm-183.67-6.833c25.95-1.201 98.028-33.82 33.713-16.916-59.107 8.143-118.933 4.113-178.214.376 48.002 7.405 95.273 23.853 144.5 16.54m130.267-6.468c7.834-36.183-9.812-51.857-15.613-70.297-6.065 12.422 2.463 69.992.815 59.196 14.363-32.906 10.682-2.32 10.764 13.866l1.54-.128zm-436.901-8.928c-5.696-10.996 5.233 22.365 0 0m517.57-12.659c31.523-37.299 61.454-84.645 56.843-135.139-24.473 35.58-26 80.779-48.567 116.384-15.929 16.271-38.832 55.815-8.275 18.755m-208.937 8.71c28.397 3.878 111.635-18.942 41.865-19.093-51.392 16.188-103.354 1.441-154.654 10.788-30.337 13.154 44.342 6.246 57.275 9.572 18.512.302 37.033-.172 55.514-1.267m245.382-16.037c-5.937 1.059-19.013 26.396 0 0m-2.39-3.07c23.28-20.073 11.338-67.42-3.52-17.74-9.902 14.586-14.145 48.079 3.52 17.74zm-552.492 16.172c-2.997-5.358-.138 6.71 0 0m-16.225-12.93c-6.03-22.148-34.184-98.434-22.124-37.603 5.059 12.95 8.567 31.26 22.124 37.602m432.155 1.24c-1.498-9.444-2.138 13.346 0 0m-450.832-89.706c-6.992-16.948.941 22.978 0 0m-17.272-16.795c13.147-24.443 5.618-71.774-.24-19.062-.618 2.808-2.669 45.763.24 19.062m9.174-16.868c-3.7-5.171-.452 9.129 0 0m265-21.504c-2.726-3.405-3.113 6.244 0 0m85.303-3.128c9.153-12.125-5.438-2.532 0 0m298.411-4.5c20.708-16.608-4.036 12.201-6.562 1.215zm10.626-27.587c19.154-66.137.682-137.218 26.528-202.206 16.668-25.252 5.953-125.49-27.561-65.775-11.319 27.877.79 31.49 21.7 29.632 8.144 52.51-25.624 101.215-33.61 152.419-4.4 29.33-23.605 94.534-2.933 105.958 5.838-6.232 10.809-13.18 15.876-20.028m-675.84 20.489c21.911-48.984 4.066-104.345-1.625-154.994-32.782-45.785 4.894-93.406-12.442-138.542-38.964-14.51-16.904 68.695-9.064 91.016 23.953 56.221 6.549 114.998 1.621 172.199 1.001 13.102 9.123 25.38 21.51 30.32m-2-2.652c3.157-4.357 1.54 4.13 0 0m375.5 1.5c6.731-8.831-9.618 9.561 0 0m10-5.235-7.074 5.391zm.565 3.63c-5.38-1.165-2.996 6.527 0 0m-124.927-8.118c-8.882-3.15-17.599 16.004-5.43 5.155zm172.112 7.234c11.521-9.146-20.032 9.03 0 0m1.25-7.26c39.784-20.278-26.905 14.038 0 0m-416.08-3.75c2.722-6.767-6.115 9.667 0 0m663.887-.527-1.507 2.356zM836.105 930.8c2.838-32.978-6.763 36.509 0 0m-185.382 9.938c3.162-4.585-7.089 6.407 0 0m-434.16-6.209c7.946-24.254-2.588-44.305-1.864-7.993 1.906.362-4.326 12.079 1.864 7.993m247.032-18.04c-3.917-4.048-13.006 6.048 0 0M220.89 854.691c-17.123-32.934 11.261 34.277 0 0M368.45 812.54c60.861-24.912-10.702-89.662-52.515-65.6-68.785 21.89 18.571 103.25 33.23 36.855 11.45-48.882-45.543-14.96-22.488-2.982 44.165-28.011-19.024 48.823-9.908-2.918 1.069-56.437 67.172-14.862 30.283 16.427-36.698 27.372.244 21.209 21.398 18.218m-168.78-23.17c-.044-25.825-21.369-101.535-15.175-34.085 1.283 11.077 23.727 85.366 15.175 34.085m90.822 14.368c-15.465-15.68 2.663-61.91-31.56-32.578-54.837 8.412 15.734 31.027 31.56 32.578m580.09-19.5c10.766-16.25 26.287-99.008-.72-69.626-1.4 20.88-8.309 56.927.72 69.626m-537.741 7.5c22.802-33.287-28.221 5.359 0 0m278.308-104.28c13.668-20.845 20.545-97.49 3.642-35.182-4.913 14.797-35.425 71.88-3.642 35.182m-398.869 1.94c9.49-5.638-18.756-.142 0 0m45.315-1.476c-3.45-13.649-12.758-.106 0 0m130-.962c-9.403-24.068-43.745-77.73-20.353-20.366 4.735 8.37 10.986 16.81 20.353 20.366m242.186-10.952c10.558-22.135 14.76-80.76 3.375-25.678.134 5.231-16.076 28.554-3.375 25.678M269.76 672.62c-20.701-30.649-38.268-21.777-8.495 1.677zm83.424-2.764c-10.343-23.105-46.209-56.453-18.96-12.774 3.998 5.779 10.384 15.768 18.96 12.774m292.19-1.926c7.974-24.017 15.047-72.02 1.68-20.679 1.413 2.288-12.046 23.033-1.68 20.68m-350.278-5.013c-25.608-24.418 7.098 14.707 0 0m365.797-2.68c10.607-23.632 20.006-62.774 4.635-17.581 1.528 1.785-13.077 18.762-4.635 17.581m36.294-7.493c-4.648-.563-1.574 5.35 0 0m-2.368-20.35c8.092-40.572-23.836 50.584 0 0m68.858 10.287c-7.242-1.126-2.735 5.33 0 0m-46.942-3.05c20.776-37.722-13.25-18.287 0 0m19.399-3.894c20.986-30.453-23.496 16.003 0 0m20.879-.893c.458-6.984-6.205 7.667 0 0m26.316.393c15.562-18.902-16.04 5.93 0 0m87.197-5.059c-5.417.652 1.752 7.715 0 0m-45.808-32.93c-3.334 26.543 3.525 22.033 0 0m30.782-16.646c-7.699-6.388.833 30.48 0 0m-6.28-68.07c-8.324-34.254-10.863-8.435.6 2.814zM284.666 383.205c-25.434 23.116-21.011 21.686 0 0m482.381-9.467c-30.575-41.295-15.33-8.4 0 0m-81.873-71.12c-21.465-14.918-76.902-21.352-22.674-6.537 7.488 2.37 14.814 5.551 22.674 6.537m160.642 141.706c5.87-11.685 6.66 6.412 0 0" style="fill:#000" transform="translate(-150.261 -278.23)"/><path d="M620.637 1494.76c-76.91-23.353-158.878-19.198-238.247-16.5-28.286 11.95-60.7-2.661-25.497-26.09 19.376-26.66 24.955-25.562 36.396 2.581 27.85 18.008 57.73-10.694 13.854-21.743-13.853-28.26-32.11 8.147-16.254-28.705-6.711-54.993 54.37 44.378 7.811 1.07-10.755 17.54 85.023 47.722 37.673 11.006-23.967-7.49-56.37-88.482-17.29-42.92 16.606 17.037 44.26 22.64 9.498-.34-23.695-16.216-41.826-69.247-7.755-28.084 16.148 17.148 59.267 26.176 16.355 7.422-26.397-10.936-57.565-96.056-11.225-44.416 17.817 20.112 52.943 22.223 14.349-2.013-25.762-12.093-66.326-71.941-9.728-39.656 29.416 7.562 33.92 49.088 60.118 30.746 32.945 11.51 63.813-19.36 93.884-7.038 12.303-13.202 32.736 5.394 43.767-23.494 27.524 31.851 4.126 95.399 28.69 136.188-.59 35.201 77.384 88.238 12.247 84.15-15.962 2.609-32.309 10.856-48.646 7.837m-212.388-26.308c-13.888-9.165-68.455-31.583-30.912-.51 9.535 3.613 21.395 4.551 30.912.51" style="fill:#ac9393;stroke-width:1.79762" transform="translate(-150.261 -278.23)"/><path d="M496.3 1275.86c3.178-30.856-20.649-43.433-20.072-4.346-18.25-12.563-11.774-39.766-35.593-37.227-8.424-41.122-33.45 4.359-54.073-30.449-41.124 9.56-28.506-22.71-29.97-59.899 4.316-22.921 11.44-82.543 15.91-62.536 18.12 1.98 56.721-58.323 75.349-17.603 3.965-19.448 27.933-38.6 32.658-6.005 18.052-1.196 50.81 18.187 59.091-6.75 6.013 47.05 50.368-29.813 52.854-15.464 8.646 22.921 30.826-43.264 27.126 1.34 24.958 15.737 35.48-58.841 36.564-3.93 12.32 30.454 10.225 101.522-17.22 65.804-20.456 29.957-79.448 5.746-113.305 20.56-40.915-9.472-81.653 6.383-122.299 8.65 32.86-50.025-64.891 43.64-8.078 16.206 67.817 7.993 139.268 33.331 205.967 4.408 21.441-9.374 65.873-46.992 50.065 3.103-9.758 46.53 22.378-38.609 11.486 11.11 13.249 5.618 2.57 33.112 24.776 6.576 23.881-15.162 16.941-87.5 5.262-87.242-15.502 14.91 8.619-62.562-12.447-31.459 13.6-20.646.152-50.609-7.92-38.187-1.137-45.73-42.33 24.343-40.752 17.748 6.463-29.278-19.759-41.072-26.934-8.575-23.96-19.126-51.845 58.19-61.075 7.443-9.519 24.892-43.504 32.586-47.803 8.09-15.454 26.458-30.566-52.973-42.118-2.433-7.125 29.303.85-40.129-12.84-4.428-12.47 32.844-7.115-51.375-21.819-5.723-10.415-41.497-12.116 26.069-25.797-4.517-12.589 15.051-26.653 44.352-24.305 41.13-26.87-2.207-24.688 50.687-35.771 73.11.32 22.786 15.746 83.644-16.572 47.662 20.513-11.195-52.529-68.17-46.144-60.047 19.198 53.312-36.03-30.899-36.415-50.133-.463-37.128-47.507-116.8 6.64-125.864 4.56-23.813-13.072-24.873-13.568-25.603-2.76-53.51 26.74 35.418 39.565 46.724 3.425 27.197 86.023 58.213 33.866 22.371-14.831-11.517-44.369-52.945-42.683-62.528 3.273 21.706 58.487 70.01 55.601 41.44-40.848-8.423-88.036-128.988-78.531-112.296 15.305 26.096 54.306 93.372 76.656 76.456-46.518-34.748-75.88-88.913-95.734-142.762 14.336 8.951 35.822 88.011 72.301 83.205-8.666-25.138-56.302-60.212-46.433-76.91 44.39 17.822 104.298 42.525 145.697 6.254 46.04-.243-8.015-79.308-44.431-63.591-41.743-5.146-88.712 55.548-122.396 22.909-30.69-40.187-19.54-86.171 38.509-62.979 12.63-31.18 49.254 10.67 49.17-23.066 39.792 15.869 87.594 15.584 112.894 60.517 20.738 21.554 37.97 48.41 34.27 79.234.525 20.979 8.73 114.356 13.607 85.826-1.699-52.808 4.326-112.57-28.155-157.709-34.977-38.77-49.42-92.245-86.246-127.79-6.063 38.122-21.486-31.295-37.23 3.954-.209 38.051-.067 22.155-24.664 3.236-16.552 12.83 38.262 53.725-5.258 21.998-38.626-35.414-12.764 17.478-14.168 16.311-18.455-25.119-59.857-36.039-32.511 5.673 12.588 26.203-59.704-29.977-27.122 12.037-40.254-17.583 20.313-59.351 7.422-80.64-17.384-42.524 5.548-22.934 29.599-20.532 1.708-13.76-6.479-81.88-13.293-65.46-.098 19.589 5.948 84.882-15.635 34.511-4.17-17.85-16.657-44.862-18.534-8.5-2.852-45.483 30.731-85.807 56.426-121.102 14.846-24.064 40.486-51.984 32.69-2.82-2.562 62.767 4.964-51.244-20.683 2.659-30.358 36.004-45.01 77.238-7.835 109.675 31.206 45.697 5.049-26.733-9.143-40.31-6.718-21.336 13.566-73.2 18.45-22.582-3.388 28.68 43.103 60.26 15.499 15.1-18.678-20.524-12.553-94.055-4.166-33.269-2.77 29.729 69.737 73.7 28.376 22.01-12.813-13.969-16.836-85.597-10.547-73.594-16.285 28.375 27.522 85.547 35.333 68.035-18.246-25.645-13.446-81.184-26.574-63.613-17.907-49.498 48.535-60.886 72.583-85.657 47.832-26.052 104.72-14.626 156.717-13.822 49.469.304 87.52 42.786 134.451 45.901-40.192-28.81-88.328-46.039-136.704-55.507 54.858 1.516 112.936 5.475 159.458 38.036 61.139 37.043 105.31 99.316 132.856 164.408 9.142 16.511 25.741 94.698 7.881 39.375-13.558 32.225-17.663-28.574-21.748 12.14 12.49 33.922-9.235 65.966 3.783 103.12-16.954-14.301-33.214-28.935-53.513-14.87 5.915-32.423-28.325 24.742-21.99-12.213-16.741 12.79-15.954 8.447-19.059-7.01-17.185 18.275-32.928 38.367-18.653-.34-14.596-12.791-46.143 73.732-26.726 10.419 14.44-23.076 5.841-45.436-8.572-11.603-9.99 26.969-16.493 33.368-5.84.35 11.735-29.345-.452-32.907-12.497-4.74-4.203-17.986-19.65 24.603-17.708.578-40.938 36.596-45.163 96.738-71.359 142.976-21.377 46.023-21.678 103.187-.6 148.853 19.012 20.508 94.83 12.076 89.233 34.084-42.86 17.663-104.313 8.127-116.116 70.357-30.6 29.14-50.135-61.755-83.013-56.486-15.45 28.413-78.21 14.009-52.828-14.773 20.974 4.404 98.21-23.622 40.522-18.436-45.29 1.312-97.938 30.706-35.71 61.923 40.71 4.798 85.187 15.092 113.413 48.314 21.426-5.78 41.314-44.295 69.107-51.88 26.445-1.63 112.635-37.245 55.77-60.467-34.987-12.601-91.008-1.891-75.612-57.822-1.64-15.254-20.457-35.822-5.888-40.752 9.208-38.524 6.984-101.707 54.103-117.944 30.106-24.028 60.324-35.038 97.511-41.528 38.993-8.355 99.615-17.986 119.346 13.084-.519 30.446 16.323 24.351 18.66 12.403 8.19 62.088-15.942 122.452-21.246 183.025 18.036-29.843 17.443-66.308 24.353-99.768-3.294 20.328 10.528 59.824-7.807 65.672-7.884 46.31-17.64 91.694-24.37 138.625-4.552 48.242-34.236 88.67-46.936 134.85-27.861 33.438-55.411 80.284-86.975 103.05-45.813-12.57-50.103 58.637-97.262 62.5-30.834 9.148-65.09 7.34-95.832 8.973m69.618-78.838c4.585-43.626-141.533.563-54.884-6.01 19.232-6.145 37.491 1.834 54.884 6.01m73.908-24.883c22.211-17.22-32.584 9.346 0 0m-235.007-60.671c10.771-26.958-17.37 8.657 0 0m112.71-207.206c54.43 2.957-14.195-39.983-19.853 2.272 6.688-.066 13.164-2.122 19.854-2.272m-137.996-30.759c15.775-31.485-23.47 27.918 0 0m272.227-5.532c3.996-17.752-25.692-36.326 8.037-17.195-.77-17.348 63.452.919 56.325-11.635-31.154 5.35-73.274-30.9-93.089-15.315 1.1 12.555 15.221 49.093 28.727 44.145M379.46 847.61c10.944-10.087 28.801-8.591 20.71-28.41-21.818 3.68-90.562 51.748-32.46 21.951 36.806-26.722 13.285 2.16-1.742 16.717 5.904-.567 8.074-9.069 13.492-10.258m10.44 7.159c-2.233-7.087-6.45 6.844 0 0m325.894-44.193c36.394-2.965 106.44-46.35 35.659-63.298-44.194-34.247-100.578-14.42-131.631 26.707-30.506 23.533 43.575 39.313 62.304 39.389 11.268.044 22.595-.607 33.668-2.798m-414.66-85.296c35.609-22.405 73.88 21.244 99.341 17.173-40.52-46.277-112.698-31.413-153.486 6.264 18.636-6.281 35.301-17.511 54.145-23.437m490.897 6.43c-39.25-19.35-95.332-42.602-136.766-18.795-24.001 13.412-27.988 29.112-.709 6.741 45.139-20.88 94.428 3.665 136.483 20.275 2.591-1.776 2.105-5.794.992-8.22M542.696 545.578c-2.232-7.086-6.45 6.844 0 0m-84.635-188.043c11.904-14.99-14.912 3.494 0 0" style="fill:#ac9393;stroke-width:1.79762" transform="translate(-150.261 -278.23)"/><path d="M846.14 934.313c-1.26-75.485 38.021-143.51 46.05-217.16 7.632-32.936-44.172-2.117-23.799-41.452 36.231-61.432 39.523 43.2 23.974 70.043-22.41 62.43-5.74 130.412-24.823 193.073-14.327 25.438-26.34 35.078-21.403-4.504M184.447 954.417c-28.65-37.307 5.292-86.096-.65-128.588-2.52-48.62-26.361-93.85-26.118-142.745 20.462-53.02 38.923 32.978 17.463 52.127 3.926 52 26.84 101.52 25.833 154.69-2.141 15.018 9.22 71.72-16.528 64.516" style="fill:#ac9393;stroke-width:1.79762" transform="translate(-150.261 -278.23)"/><path d="M445.935 1263.306c-26.523-11.245-88.078-33.229-71.499-54.057 15.086 11.162 57.692 9.489 48.767 15.903-2.916 16.574 54.474 29.965 22.732 38.154M755.655 1141.63c33.93-35.99 41.501-82.185 60.581-126.022 23.136-58.59 7.953 40.46-7.416 55.474-13.59 26.035-32.294 51.067-53.165 70.549M686.168 1150.152c6.275-55.036-17.996 2.321-12.63-16.66 12.963-16.049-16.189-51.516 5.925-53.972-9.176 42.887 28.223 7.56 6.705 70.632" style="fill:#ac9393;stroke-width:.635554" transform="translate(-150.261 -278.23)"/><path d="M499.845 1136.216c-17.7-1.682-95.794.249-36.913-11.62 45.414-2.037 90.799 5.906 135.967-7.593 22.597-5.021 53.014 7.23 14.509 12.328-37.41 6.747-75.67 6.947-113.563 6.885" style="fill:#c8b7b7;stroke-width:.635554" transform="translate(-150.261 -278.23)"/><path d="M511.602 1155.248c-19.46-2.075-79.642-13.968-79.25-15.63 63.462 4.06 130.045 6 191.18-6.49-34.445 19.056-73.04 24.823-111.93 22.12" style="fill:#c8b7b7;stroke-width:.635554" transform="translate(-150.261 -278.23)"/><path d="M595.266 699.846c11.06-20.848 26.26-75.514 30.803-70.183-4.618 23.116-8.081 63.229-30.803 70.183M625.942 676.243c4.44-21.386 23.246-83.579 10.687-25.156-3.95 6.363-1.023 23.944-10.687 25.156M712.132 639.83c3.214-34.837 20.041-13.316 0 0M642.508 667.728c1.626-20.918 22.485-73.909 7.774-20.34-2.986 5.273-1.439 19.119-7.774 20.34" style="fill:#000;stroke-width:.449405" transform="translate(-150.261 -278.23)"/><path d="M387.189 1374.262c1.263-48.909 19.712-116.909-29.84-147.85-46.457-29.246-102.347-48.01-132.126-97.524-6.97-35.172 21.174 6.513 3.625-31.469-7.378-13.851-3.115-75.04-.782-43.258 5.229 37.433 35.978 86.491 58.61 100.688-17.95-20.99-19.215-56.779 4.726-14.328 32.997 25.175 29.091 44.265 14.878 38.257 32.326 36.293 44.027 3.724 29.704-28.148-7.83-11.37 1.676-51.02 11.49-36.562-11.025-19.802 4.512-33.205 8.245-31.264-13.504-7.055 3.658-38.777 17.519-13.932-13.19-38.126 27.865-32.128 19.904-39.81 2.653-29.077 16.56 43.037 12.538-3.795 6.275-46.034 13.372 31.93 18.821-10.559 10.114-4.942 6.825 55.918 20.334 9.575 7.792-7.016.355 53.726 13 2.59 9.134-23.192 8.059 12.712 20.602.603-2.52 30.128 18.818 15.704 18.865 13.309-4.343 19.759 31.487 7.285 28.567 19.1-.275-22.933 29.345-44.15 23.54-6.877 23.171-16.728 23.665-7.076 42.286-34.532 21.543 21.255 12.001-15.9 33.908-15.868 18.27 30.777-9.154 49.735-9.625 14.47-7.92 20.443-44.979 44.094-24.628 8.056-9.674 21.128-36.384 41.435-47.525 35.278-2.312-49.926-12.964 26.044-38.667 1.71-20.647-8.206-24.633-15.902-42.233-24.21-8.112 43.577-41.007-11.961-59.223 23.251-21.804 26.04-46.182 6.472-38.06 44.73-20.809 11.545-8.952 107.613-8.268 97.576 11.87-.14 37.914 2.963 58.32 20.292 10.055 11.825-33.825-11.101-46.105-14.45-3.31 24.667 40.25 36.736 68.12 52.338 51.803 4.941-35.825-32.144-9.73-47.782 7.277 11.001 14.016 38.446 30.152 22.289-2.336 22.558 28.31 60.612 22.6 16.094 17.653-23.392 3.995 40.82 30.718 23.798 52.59 2.797 119.787-4.677 141.004-61.423 8.094 25.286-.35-22.059 16.466-.964 3.86-21.627 35.559 4.105 38.323-25.181 30.218-35.354 67.678-69.496 81.395-115.219 15.785-46.265 41.77-88.627 39.775-139.66 9.369-46.432 17.913-93.078 29.3-122.113.357-21.63 2.238-91.434-6.062-34.44-1.192 16.233-14.985 92.588-18.87 71.789 12.527-62.177 27.9-124.526 21.647-188.474-3.116 22.283-14.302 47.67-9.696 7.865 2.657-41.584-6.877 50.97-8.766 2.663-6.948-32.86-53.539-22.06-84.893-27.25-22.492 7.993-49.473 9.522-69.445 13.375-25.77 13.248-49.65 24.86-80.068 41.547 23.244-11.738 32.132-113.79 13.567-48.336-15.415 47.332-25.645 60.67-45.435 108.816-4.115 17.193-3.248 79.966-12.9 29.682.088 20.649-3.557 80.21 8.776 47.343 2.73 32.655-3.157 81.62 46.302 67.41 33.162-.76 79.048 34.43 25.683 48.373-16.262 9.847-31.728 5.184-32.737 13.199-29.47-3.451-90.63 76.997-54.838 16.784 15.652-50.633 82.193-27.116 110.561-50.102-26.85-37.453-88.928-.557-103.471-48.468-14.003-52.414-8.535-108.91 19.013-156.206 16.557-33.274 34.246-109.603 59.11-113.436-10.18 32.104 29.714-41.914 12.96 6.79-1.601 7.836 32.86-65.027 17.975-14.202-8.437 20.987-13.227 62.885.415 19.325 4.976-23.673 32.602-47.453 14.7-9.213-11.313 17.458-12.825 56.085 3.493 18.241 14.213-35.098 29.431-25.563 13.794 6.54 15.932-5.424 14.522-24.95 16.506-.554 6.724-17.243 15.425-42.122 9.174-6.406 11.086-9.168 28.796-20.87 18.88 3.15 13.022-3.839 29.57-30.329 21.112-.908 38.987-25.939 21.753 6.228 33.782-2.398 45.277 37.458 1.473-39.615 27.783-61.434 6.458-31.822 8.049-25.2-4.653-1.634-10.09-17.673-.139-63.944 8.123-26.059 10.607-36.034 23.435 42.714 16.732-8.231-18.963-81.514-69.573-154.554-136.26-204.336-40.694-27.703-87.575-40.967-136.505-43.02-22.469-3.812-101.714-2.345-36.22 1.684 44.483 5.46 111.667 32.076 131.672 54.208-49.817-15.234-92.752-52.221-147.919-49.352-52.885-2.062-110.327-7.41-155.74 25.662-39.445 19.66-77.912 55.676-65.743 104.167 4.612 25.517 19.349 65.344 23.065 66.717-31.79-11.44-39.259-54.678-43.415-76.897-27.677 25.4 31.44 77.821 11.594 86.22-17.05-19.612-22.426-98.69-38.137-36.262-12.097 19.388 47.759 86.676 17.548 69.273-24.077-36.572-44.164-57.587-9.521-99.473 12.313-19.855 34.684-51.375 28.107-7.648 11.408 46.038 1.666-28.5 3.78-44.172-14.329-6.275-38.915 36.147-12.671 5.687-15.25 20.55-50.906 66.22-54.415 67.367 23.312-34.635 43.56-72.39 75.32-100.255-15.615 17.203-42.876 51.754-7.157 16.531 61.951-58.194 144.25-100.782 231.387-91.963 65.358-1.536 139.33-12.542 193.259 34.085 42.478 32.32 74.197 76.642 103.094 120.717 28.698 34.33 30.016 89.11 51.726 119.119-.066 34.198.721 68.983-2.226 102.408-10.017 37.342 6.454 52.885-4.053 93.93-5.82 34.375 7.932 22.597 6.273 41.267-15.462 55.392-33.157 112.52-27.138 170.82 21.374 2.9 31.252-62.014 26.47-14.681-1.525 23.48-14.894.838-19.1 20.897-5.335 28.54-16.595 96.302-29.23 138.262-17.882 17.923-66.28 80.65-46.794 19.007 8.262-25.389 54.888-75.395 51.912-119.193-2.246-36.873-35.11 56.261-36.374 76.69-19.626 34.09-23.858 57.103-32.944 58.705-10.274 49.254-57.317 68.185-95.822 92.38-23.213 39.43-11.49 92.781-5.405 136.704-19.923 9.409-15.653-62.593-15.822-82.914-.15-40.562-26.817-17.654-39.083-.46-14.615-13.442-28.412 4.634-47.905-3.983-6.494 12.322-50.857 14.336-63.403 12.222-13.177-10.793-27.947 22.216-34.712-14.03-11.038-22.688-89.78-44.685-45.654.907 19.275 15.769 74.14 60.36 20 27.967-14.203-18.023-46.504-38.798-27.282.857 1.867 23.129 66.93 67.6 17.284 31.874-48.87-50.875-1.07 33.9.623 31.043-13.055-16.365-36.1-38.535-20.284-.62-.926-1.314-15.41 2.92-14.957-.485m88.114-75.81c6.224-22.764-13.469 2.428 0 0m44.262-6.054c9.28-10.38-11.315 2.63 0 0m17.613-3.815c1.743-7.04-6.823 3.284 0 0m42.881-3.306c16.905-11.632-11.143-8.903 0 0m26.619-3.127c18.385-12.771-7.67-27.285 0 0m-119.215-4.792c1.129-12.493-5.585 4.051 0 0m148.072-14.904c2.62-6.277-6.489 4.968 0 0m-.709-6.185c17.068-10.42-14.785 3.254 0 0m18.805-17.124c22.752-13.94-15.415 4.786 0 0m-1.346-3.826c25.286-15.196-13.581 4.622 0 0m24.039-10.922c13.279-12.668-11.495 6.717 0 0m1.787-8.115c7.678-10.054-14.893-2.015 0 0m32.883-14.567c4.03-5.278-7.984 6.199 0 0m3.366-2.1c3.985-6.672-5.347 4.009 0 0m-5.145-.673c22.435-15.103-10.421-3.286 0 0m16.212-15.93c17.856-23.897-15.215 4.766 0 0m-430.097-7.449c-19.164-26.97-35.59-12.647 0 0m446.266-11.199c10.443-16.982-12.337 2.207 0 0zm-487.162-19.48c-3.123-23.487-3.087 2.835 0 0m-1.797-11.485c-2.272-8.318-1.414 4.599 0 0m549.953-7.662c21.891-29.193-26.493 28.82 0 0m-7.841 4.249c22.884-8.237 34.39-87.298 9.096-38.194-1.503 8.938-18.224 34.457-9.096 38.194m-233.4-159.783c2.377-12.416-6.93 9.579 0 0m6.257-10.995c4.26-7.413-11.54 11.496 0 0m8.827.46c3.927-5.794-7.908 4.34 0 0m-3.899-1.047c14.811-11.31-14.677 7.046 0 0m49.384.078c17.277-8.977-14.393 3.058 0 0m28.459-17.413c4.632-5.639-6.403 4.768 0 0m184.89-5.265c5.28-47.076-6.73 50.03-1.912 6.413zM629.632 676.15c10.646-19.84 15.774-83.564 3.696-27.488-.017 6.37-15.33 27.837-3.696 27.488m19.223-20.729c8.438-26.425 9.006-51.645-1.27-11.142-8.887 12.5-5.135 40.405 1.27 11.142m12.154 4.832c8.067-16.556 22.538-68.25 5.853-22.232 1.789 4.113-15.057 22.159-5.853 22.232m26.74-13.37c19.153-31.77-.355-26.514-3.393 3.974zm75.227-2.998c3.464-5.72-10.434 4.867 0 0m-29.7-6.135c20.48-22.638-17.008 1.098 0 0m22.858-1.686c4.771-8.165-5.882 3.05 0 0m26.305-.168c14.356-15.82-12.613-.27 0 0m88.043-4.18c-2.661-10.026-1.612 11.351 0 0m-44.949-23.79c-2.609-35.011-1.543 35.752 0 0m28.92-15.454c4.503-34.189-7.425 2.083 0 0m-4.356-77.524c-8.336-36.92-14.8-18.95 0 0m-83.055-141.4c-30.266-40.994-14.634-7.073 0 0m-83.65-72.343c-14.71-11.422-77.075-22.031-27.563-6.912 1.861-.337 33.698 12.71 27.562 6.912" style="fill:#000;stroke-width:.449405" transform="translate(-150.261 -278.23)"/><path d="M728.845 638.446c7.16-21.518 17.564-4.248 0 0" style="fill:#000;stroke-width:.449405" transform="translate(-150.261 -278.23)"/><path d="M381.773 683.345c-21.171-11.487-31.049-72.975-9.262-24.425-1.064 2.888 21.141 31.88 9.262 24.425M347.41 669.568c-19.16-10.013-33.624-57.816-8.157-19.5 1.152 4.06 21.018 22.62 8.156 19.5M258.099 672.016c-50.75-51.711 36.554 8.826 0 0" style="fill:#000;stroke-width:.635554" transform="translate(-150.261 -278.23)"/><path d="M771.56 1154.733c3.159-48.646 50.425-82.774 56.074-135.112 3.747-14.282 1.14-41.74-9.453-13.71 10.402-51.755 13.668-105.29 28.567-154.99.768-27.896 17.502-30.475 11.854-68.11 2.333-26.617-3.158-43.585-7.152-6.263-.084 22.005-24.73 114.87-14.924 54.317 12.245-56.07 23.931-112.97 17.581-170.694-3.983 23.013-12.89 43.383-8.885 5.611-.986-21.97-8.36 46.026-11.13-4.666-14.193-13.41-51.437-21.603-76.341-15.242-31.424-.368-72.974 10.084-97.464 22.394-13.962-5.796-72.15 53.674-43.801 7.4 9.67-19.598 14.266-79.846-1.385-27.79-12.523 39.547-31.742 73.24-46.154 111.98-3.643 17.325-2.674 77.108-11.946 28.478-.18 16.467-4.156 85.607 8.207 48.12 1.362 33.288-1.807 80.146 45.977 67.343 34.733-.817 80.237 34.207 24.894 48.756-29.982 18.936-65.914 16.942-95.296 50.11 10.305-26.264 27.99-61.502 61.465-54.838 29.62.931 84.703-19.177 29.716-32.52-49.147 4.605-89.03-25.457-81.153-78.68-8.69-62.153 33.841-113.879 49.346-171.135 6.55-20.46 35.327-70.954 35.78-43.602 18.629-37.356 14.808-.89 13.933-1.297 10.515-27.018 27.615-45.962 13.226-5.15-9.28 27.173-7.484 49.04 4.28 9.053 7.043-24.52 31.498-46.127 12.593-5.853-13.117 24.74-8.947 51.19 7.377 11.851 22.564-39.517 17.038-11.263 12.227 12.936 12.97-22.798 19.313 13.253 23.548-25.631.708-2.951 7.158 40.256 14.366 9.064 12.746-13.506 1.09 29.464 22.391-1.076 9.353-10.39 2.097 21.213 19.243 7.637 2.565 8.953 15.824-25.538 15.725 4.013 13.234-8.765 34.487 23.948 22.83-11.167-3.726-29.834 9.298-69.752 21.722-91.065 18.79 53.81.817-35.096-9.875-50.177-24.495-59.807-66.739-112.996-118.168-151.848-44.689-31.508-97.824-43.194-151.728-45.205-15.454-3.308-79.162-.972-28.211 2.82 41.641 3.497 121.95 33.193 132.026 52.98-44.57-16.593-84.572-47.641-134.203-47.62-35.209-5.403-130.679 1.952-126.076 4.056 63.5-28.254 134.675-16.424 202.026-21.236 78.255-4.457 142.723 51.411 183.88 112.566 30.964 38.396 59.117 83.391 68.41 132.33 3.088 11.609 19.24 53.702 22.798 43.23 7.081-6.407 7.588 61.749-4.1 77.279-4.748-1.137-29.282 75.798 11.456 57.295 10.573 46.46-19.763 91.7-27.984 137.3-10.218 39.695-21.365 88.132-11.002 125.593 41.5-35.738 27.608-97.227 31.92-146.04 1.853-54.751 33.75-107.748 18.152-162.953 26.695 39.624-4.605 88.774-11.742 130.855-10.135 54.392 21.11 117.045-13.23 165.716-35.526 10.458-22.712 55.505-34.717 91.444-3.362 44.387-29.818 96.153-67.47 111.143zm30.961-28.393c3.018-6.73 29.287-49.818 9.85-50.646-11.96 15.151-31.539 73.827-9.85 50.646M561.787 970.01c1.865-12.837-8.86 10.184 0 0m12.335-9.839c11.405-6.587-14.05-1.27 0 0m51.78-3.55c-1.581-7.614-13.171 10.406 0 0m247.912-9.396c-3.248-4.56-3.248 4.56 0 0m-222.444-6.356c-1.538-4.647-3.135 4.528 0 0m185.375-14.617c-3.066-8.855-4.538 36.593 0 0m37.474-150.728c12.053-14.074 18.513-93.83-5.015-60.614-.818 5.785-9.289 100.37 5.015 60.614M629.3 676.777c9.453-14.577 18.906-85.305 4.524-33.063.259 7.459-16.536 33.867-4.524 33.063m20.732-24.37c7.269-23.72 7.537-47.356-2.264-10.336-9.244 14.395-5.114 42.594 2.264 10.336m12.535 5.323c6.263-14.456 22.417-66.261 4.52-21.817-.801 3.852-16.762 35.062-4.52 21.817m26.92-13.005c20.128-37.495-7.774-14.024-4.57 5.823zm67.918-11.629c-5.863-1.502-1.372 8.323 0 0m113.866-1.817c-4.427-6.53-3.073 8.677 0 0m-45.76-23.515c-4.244-33.417-1.24 35.312 0 0m29.916-19.478c1.583-28.047-7.384 17.495 0 0m-4.498-72.92c-8.07-37.354-17.754-17.614 0 0m-85.74-145.369c-51.567-64.269 10.407 25.62 0 0m-81.647-69.124c-17.536-12.436-79.194-22.294-26.207-5.679 3.358.483 33.579 12.301 26.207 5.679" style="fill:#000;stroke-width:1.27111" transform="translate(-150.261 -278.23)"/><path d="M792.476 1128.04c-.347-20.769 35.996-82.61 21.35-28.093-5.083 6.523-15.39 30.948-21.35 28.093" style="fill:#000;stroke-width:1.27111" transform="translate(-150.261 -278.23)"/><path d="M794.138 1124.112c2.314-25.89 36.33-71.024 15.76-19-2.388 1.992-16.075 29.914-15.76 19M228.522 1111.513c-15.58-14.766-24.211-87.297-6.449-30.66-.488 2.553 22.068 52.412 6.45 30.66M200.24 1005.06c-.29-24.363 11.464-48.118 5.11-10.199.02 1.607-4.887 26.788-5.11 10.2" style="fill:#000;stroke-width:1.27111" transform="translate(-150.261 -278.23)"/><path d="M702.17 808.012c-1.339-.828-.904-2.18 2.03-6.3 2.053-2.886 4.519-6.36 5.478-7.722 1.047-1.487 1.207-2.476.4-2.476-.739 0-2.954 2.256-4.922 5.013-6.756 9.466-18.1 12.817-27.804 8.213-13.372-6.346-24.567-28.836-20.981-42.152 3.746-13.912 18.981-20.606 32.711-14.372 2.915 1.324 5.918 3.562 6.674 4.973 2.33 4.354 1.565 10.83-1.907 16.144-8.976 13.74-20.947 13.011-18.527-1.128l.834-4.879 2.954 4.001c6.152 8.332 13.196 1.147 8.242-8.405-1.4-2.698-3.473-5.087-4.61-5.31-2.961-.579-13.231 6.854-15.482 11.206-6.463 12.499 3.78 24.125 19.89 22.577 7.281-.7 11.658-4.088 15.204-11.77 2.56-5.546 3.23-17.77 1.047-19.118-2.874-1.777-8.814-11.276-8.814-14.097 0-4.225 4.34-4.903 14.78-2.307 10.23 2.543 29.08 10.412 36.147 15.088 2.721 1.801 5.504 3.274 6.183 3.274s4.141.623 7.691 1.385c8.47 1.816 14.008 6.44 14.008 11.695 0 9.622-27.525 28.018-47.031 31.433-4.544.796-11.463 2.49-15.376 3.767-4.177 1.363-7.817 1.886-8.818 1.267" style="fill:#fff;stroke-width:1.27111" transform="translate(-150.261 -278.23)"/><path d="M639.523 795.092c-8.155-2.842-17.389-10.58-17.389-14.572 0-4.507 7.122-13.833 15.202-19.907 7.982-6 29.864-19.943 31.299-19.943.422 0-3 4.07-7.606 9.044-14.71 15.89-20.524 32.744-14.965 43.389 1.37 2.622 2.122 4.722 1.673 4.666-.449-.055-4.145-1.26-8.214-2.678M284.655 801.996c-7.74-1.494-25.177-7.474-32.382-11.105-15.806-7.968-16.593-12.932-2.44-15.396 10.23-1.78 14.114-3.358 21.703-8.81 6.027-4.33 6.074-4.34 7.521-1.635.801 1.496 2.246 8.37 3.211 15.273s2.62 14.621 3.676 17.15c2.173 5.202 2.176 5.191-1.29 4.523M333.91 813.552c-.874-.352-1.589-1.123-1.589-1.713s4.905-6.119 10.9-12.287c12.386-12.746 14.394-15.934 15.314-24.313 1.334-12.158-9.032-24.402-21.435-25.319-13.725-1.014-19.87 7.635-20.988 29.542-.738 14.46.131 17.137 5.565 17.137 7.62 0 20.813-12.631 20.813-19.926 0-3.808-2.289-3.77-10.063.17-5.898 2.989-6.253 3.026-8.22.853-1.13-1.25-2.055-3.57-2.055-5.158 0-4.037 7.373-10.971 13.67-12.858 4.576-1.371 5.722-1.294 8.574.575 4.52 2.96 6.09 7.745 5.257 16.018-1.166 11.594-3.893 17.309-11.903 24.947-6.744 6.432-7.81 6.994-13.237 6.98-8.012-.02-13.8-2.684-21.52-9.905-11.042-10.328-14.746-21.18-10.777-31.573 2.958-7.744 9.924-13.334 23.948-19.215 10.324-4.33 12.833-4.89 21.241-4.742 16.093.284 30.82 7.07 42.548 19.608 8.104 8.664 11.281 16.168 10.555 24.931-.722 8.704-3.732 12.848-12.347 17.002-3.717 1.792-7.456 4.213-8.31 5.38-2.421 3.312-29.97 6.275-35.94 3.866" style="fill:#fff;stroke-width:1.27111" transform="translate(-150.261 -278.23)"/><path d="M951.398 1138.125c-7.936-24.592 13.218-45.274 4.874-6.27 35.883-10.103 50.252-61.658 73.782-90.797 28.5-34.835 48.47-75.32 75.685-111.268 30.226-51.988 65.543-100.843 92.884-154.617 35.332-55.63 69.94-111.76 106.066-166.782 23.24-42.141 57.103-77.67 78.46-121.167 36.977-48.007 67.799-100.482 98.552-152.564 11.288-58.358-50.823 23.261-66.322 38.52-34.656 29.241-58.942 67.917-88.974 101.556-36.583 50.11-74.27 99.426-105.175 153.37-41.191 63.844-82.238 127.777-117.169 195.345-34.183 56.772-62.234 116.937-96.164 173.8-16.77 42.08-47.089 77.289-61.823 120.394-18.426 21.26 13.125-39.137 20.9-52.213 26.142-41.692 45.146-87.102 71.118-128.932 35.65-68.523 74.442-135.424 112.128-202.775 51.101-76.797 95.157-158.372 152.572-230.855 29.72-40.345 60.444-80.403 95.309-116.325 28.508-28.689 54.346-61.498 88.31-84.154 11.703 42.45-34.88 76.443-50.407 113.732-27.105 41.992-56.499 82.305-82.315 125.158-31.777 38.796-52.86 84.226-82.638 124.446-34.482 56.418-71.51 111.325-102.217 169.92-32.452 46.328-57.74 97.028-92.616 141.706-21.398 41.863-55.057 75.772-75.838 118.19-13.637 13.793-27.414 44.16-48.982 42.582m182.385-5.751c-.908-40.611 28.522-75.65 42.296-112.982 24.498-61.064 66.547-112.616 98.602-169.539 31.618-44.337 57.214-92.515 91.716-134.795 28.722-41.722 62.783-79.59 86.117-124.926 28.425-30.427 40.404-69.533 58.617-105.74 22.251-42.206 51.227-81.51 67.819-126.122 21.459-50.351 75.742-4.445 42.847 30.788-18.139 35.866-36.132 72.766-61.74 104.208-36.975 66.835-75.74 132.637-115.09 198.11-54.576 77.558-104.873 157.77-154.355 238.609-27.975 39.92-50.864 82.969-81.48 120.875-26.233 24.998-36.875 76.183-75.349 81.514m16.422-8.89c30.81-29.592 48.798-71.416 78.223-103.383 38.613-59.904 77.277-120.012 114.789-180.614 38.535-65.037 85.507-124.874 123.315-190.43 31.34-53.179 61.74-106.972 93.256-160 26.158-34.2 44.893-73.479 63.063-112.113 14.397-49.683-47.378-39.365-45.967.555-25.498 43.372-51.568 86.795-74.19 131.825-12.444 46.292-50.531 78.639-70.686 121.262-41.399 58.229-87.794 113.205-123.636 175.238-36.954 51.953-67.877 107.631-102.792 160.938-23.651 49.225-48.946 98.164-67.379 149.595-3.143 10.97 3.79 16.747 12.003 7.127m-371.074-11.528c6.882-41.965 21.161-81.796 32.6-122.555 34.748-75.543 67.59-152.102 110.396-223.643 62.809-117.18 134.533-229.967 218.603-333.12 54.105-72.08 116.34-138.74 187.508-194.162 18.234-11.287 84.03-70.432 55.363-20.184-30.65 44.549-68.076 84.692-99.525 128.976-57.465 71.954-112.93 145.503-167.429 219.739-47.03 65.323-96.244 129.134-138.214 197.898-43.881 70.156-84.394 142.43-120.709 216.82-27.72 40.797-40.094 90.381-68.249 130.096-2.103 1.335-15.122 17.185-10.344.135m12.374-5.898c32.102-72.838 71.774-142.367 107.68-213.652 32.494-55.919 63.934-112.477 100.336-166.004 47.479-72.577 101.533-140.694 151.78-211.433 49.927-65.559 99.69-131.345 150.804-196.03 25.287-37.768 61.498-68.417 81.15-109.548-23.278-1.564-71.226 46.847-98.87 68.915-62.854 54.48-115.307 119.655-164.918 186.132-96.964 123.005-173.427 260.404-245.663 398.897-21.668 52.852-51.918 102.316-66.655 157.723-9.134 26.218-12.854 31.269 3.982 10.588-6.114 17.202-36.467 72.529-19.626 74.412m90.293-30.793c9.073-30.176 31.545-60.853 44.576-91.774 34.3-57.414 63.843-117.585 98.3-174.87 33.426-50.29 65.024-101.867 103.177-148.878 12.74-14.345 49.271-60.975 55.708-48.269-20.04 42.359-48.898 79.933-72.236 120.563-43.018 72.036-89.147 142.216-126.983 217.172-30.324 39.642-47.717 92.261-93.954 117.277-2.752.303-6.755 14.215-8.588 8.779m32.74-29.444c29.636-35.351 52.941-75.843 75.322-115.877 49.058-89.83 105.374-175.448 157.636-263.322 13.011-12.194 48.372-80.876 14.054-38.808-31.26 27.4-53.152 64.11-78.547 97.029-31.654 50.766-67.638 99.009-92.789 153.554-35.003 59.625-68.378 120.27-98.615 182.263 7.114.363 16.765-10.3 22.94-14.84m262.193-149.03c1.24-39.469 33.077-75.019 55.863-106.282 38.824-55.271 83.249-106.516 120.575-162.784 10.524-19.716 56.436-75.935 57.313-64.565-34.734 26.556-53.547 67.192-79.546 101.412-41.536 56.742-86.873 110.94-126.08 169.175-11.23 12.197-39.682 82.7-5.838 45.717 46.861-52.132 79.629-114.898 116.614-174.02 28.889-40.938 56.371-83.22 85.977-123.585 11.69-18.258 39.547-50.48 13.33-12.59-30.812 34.143-49.017 77.25-80.18 111.301-44.739 70.742-83.08 146.94-140.815 208.424-4.853 2.99-10.285 13.496-17.213 7.797m11.734-357.221c30.238-50.487 64.991-98.306 97.479-147.286 9.328-16.607 59.604-49.272 19.674-16.866-37.394 38.272-59.67 88.276-93.059 129.95-12.6 18.234-21.258 40.536 1.506 13.497 32.233-40.629 78.562-69.55 102.806-116.449 13.766-15.292 46.577-80.362 23.852-28.444-24.074 36.18-47.762 72.166-80.935 100.998-26.104 17.848-42.827 56.075-71.323 64.6" style="fill:#000;stroke-width:1.33333" transform="matrix(.86957 0 0 .87993 -658.84 -43.63)"/><path d="M1301.987 384.212c7.01-4.177 13.638-9.03 19.619-14.588 2.85-2.65 5.55-5.58 8.227-8.401 2.12-1.987 4.623-6.044 7.322-7.456.39-.204.867-.173 1.307-.195.525-.027 1.134-.233 1.578.05.348.222-.819.115-1.228.173 1.348-.076 12.16-.126 5.277-.105-.023-.104 1.025.132.94.067-.355-.27-.86-.302-1.201-.589-.98-.82-1.187-1.304-1.709-2.236-1.338 3.317-2.387 6.741-3.63 10.097-1.092 3.425-2.926 6.423-5.05 9.285-1.036 1.673-2.277 3.205-3.405 4.812-.396.565-.73 1.173-1.144 1.725-.544.725-3.328 3.86-3.595 4.165-3.907 4.717-1.93 2.285-5.925 7.299-.437.727 9.852 6.896 10.288 6.169 3.722-5.283 1.988-2.688 5.226-7.77.564-.909 2.307-3.743 3.041-4.83 1.52-2.25 3.604-4.103 4.808-6.58 2.151-3.612 4.486-7.157 5.897-11.147 1.562-4.18 2.986-8.466 3.474-12.922-.111-.952.012-1.962-.334-2.856-.964-2.488-1.835-2.997-4.018-3.918-.321-.136-.904.21-1.223-.032-.94.001-1.88.01-2.82.003-.148 0-.59-.027-.443-.026.86.008 1.723.137 2.577.047.338-.036-.664-.142-.996-.214-2.022-.44-.756-.192-3.113-.605-3.918.016-5.484-.397-8.895.792-5.068 1.766-8.892 5.713-12.703 9.299-1.274 1.213-2.52 2.46-3.824 3.641-7.199 6.52-15.131 12.235-21.829 19.303-.533.53 6.971 8.073 7.504 7.543zM1391.137 586.805c.587-.453 1.207-.865 1.76-1.359 5.807-5.195 10.904-12.152 15.34-18.505 3.277-4.867 6.92-9.068 11.68-12.52.498-.36 3.905-2.494 4.529-2.886 2.375-1.383 3.94-1.968 5.298-4.601.226-.44.243-.957.365-1.436-.017.111.058.358-.052.333-3.255-.75-6.353-2.315-9.683-2.576-.672-.052-.716 1.143-1.033 1.738-1.419 2.665-2.272 5.51-3.22 8.363-.92 3.848-3.155 7.088-5.226 10.385-.347.71 9.7 5.622 10.047 4.911 2.293-3.973 4.675-7.95 5.788-12.451.756-2.414 1.318-4.882 2.159-7.265.159-.451.9-1.058.514-1.339-2.604-1.892-5.567-3.277-8.546-4.499-.285-.117-.168.594-.251.891.446-1.433.032-.407 1.417-2.307.048-.065.187-.232.107-.217-1.441.265-3.17 1.265-4.528 1.652-2.221 1.133-3.782 1.86-5.923 3.292-5.704 3.816-10.266 8.985-14.236 14.532-4.563 6.7-9.204 13.353-14.2 19.742-.432.558 7.46 6.68 7.894 6.122zM963.22 1098.9c1.73-6.013 2.13-12.279 2.832-18.463.511-4.508.27-1.594.452-3.945l-11.847 2.342c-.683-.602-1.346-2.384-2.049-1.805-1.122.923-.638 2.835-.933 4.258-1.7 8.215-2.8 16.462-3.878 24.779-.888 8.248-1.467 16.55-1.412 24.852.01 1.48.029 2.963.18 4.434.063.606-.147 1.7.458 1.769 4.726.538 9.512-.061 14.268-.092 1.5-5.723.781-2.629 2.071-9.304.111-1.141-16.032-2.715-16.143-1.573-.313 7.058-.404 3.821.059 9.714 4.666.88 9.254 2.421 13.998 2.64.714.033.686-1.268.889-1.954.427-1.451.721-2.94.992-4.428 1.476-8.093 2.02-16.31 2.854-24.482.64-8.354.844-9.961 1.173-18.082.028-.687.378-10.396.11-12.058-.383-2.383.41-6.154-1.85-7.001-3.964-1.487-8.402 1.054-12.603 1.581-.446.888-.99 1.732-1.339 2.663-2.664 7.124-2.523 15.646-2.697 23.146-.071 1.02 14.344 2.028 14.415 1.009z" style="fill:#000" transform="matrix(.86957 0 0 .87993 -658.84 -43.63)"/><path d="M185.902 929.766c.537-1.888 1.39-14.168 1.897-27.287l.92-23.853 12.953-21.913c7.124-12.052 16.817-29.853 21.54-39.558s11.937-23.435 16.031-30.511c4.095-7.076 19.88-36.076 35.08-64.443 15.199-28.368 33.977-62.693 41.73-76.277s19.217-34.18 25.477-45.766c15.578-28.834 45.476-78.594 75.482-125.623 13.784-21.605 29.838-47.127 35.676-56.716 40.233-66.084 129.034-183.586 169.094-223.745 9.565-9.59 25.817-26.751 36.115-38.137 24.983-27.625 37.782-37.875 43.148-34.56.844.523 1.535 4.637 1.535 9.144 0 7.962-.592 9.182-20.95 43.138-26.245 43.774-47.126 76.05-65.298 100.927-7.768 10.634-15.99 23.022-18.272 27.527-5.333 10.53-17.802 29.455-39.693 60.24-9.61 13.514-21.53 31.196-26.489 39.292s-17.843 28.451-28.632 45.232c-39.193 60.963-86.592 136.786-91.123 145.767-9.35 18.536-70.108 117.382-93.03 151.35-6.202 9.19-19.624 29.784-29.827 45.766s-24.925 37.558-32.716 47.946c-7.79 10.388-19.253 27.714-25.473 38.501-18.994 32.947-31.589 49.199-42.761 55.178-3.18 1.702-3.33 1.601-2.414-1.619" style="fill:maroon;stroke-width:1.45289" transform="matrix(.86957 0 0 .87993 18.67 127.421)"/><path d="M360.666 931.902c-4.665-4.665 9.327-40.225 45.356-115.263 15.277-31.818 24.613-48.979 40.314-74.098a33088 33088 0 0 0 37.587-60.295c9.435-15.183 24.163-38.066 32.73-50.851 8.566-12.786 20.65-31.42 26.853-41.408 14.096-22.698 30.365-45.663 70.422-99.405 33.348-44.742 36.85-49.763 47.994-68.834 3.874-6.63 14.483-22.648 23.576-35.596 9.093-12.949 19.065-27.75 22.16-32.89 6.221-10.335 15.217-30.11 15.245-33.513.029-3.428 26.65-52.49 51.72-95.319 17.079-29.178 23.162-40.851 24.017-46.093 1.642-10.055 7.429-19.08 15.125-23.591 18.354-10.756 32.672-2.252 30.808 18.299-.589 6.494-3.671 13.92-16.048 38.651-17.552 35.073-26.202 50.221-40.959 71.73-5.756 8.391-20.922 33.235-33.702 55.21-88.833 152.747-82.651 142.635-131.909 215.755-17.764 26.37-49.267 75.079-70.007 108.241-52.883 84.559-103.933 163.326-112.526 173.62-4.002 4.795-15.69 21.14-25.975 36.323-31.236 46.115-47.6 64.508-52.781 59.327" style="fill:red;stroke-width:1.45289" transform="matrix(.86957 0 0 .87993 18.67 127.421)"/><path d="M9.78 909.612c-1.456-1.455-1.695-3.04-1.286-8.524.587-7.872 4.64-19.197 16.205-45.263 4.387-9.889 7.77-18.197 7.516-18.464s-2.726 2.045-5.495 5.137-5.056 5.213-5.08 4.713 1.52-5.354 3.434-10.787c1.913-5.433 5.43-16.12 7.816-23.748 7.33-23.437 14.225-39.797 37.233-88.352 7.363-15.54 15.903-34.031 18.978-41.094 10.613-24.381 60.63-117.631 95.506-178.058 46.579-80.705 92.988-151.618 137.954-210.795 7.728-10.17 21.609-28.432 30.845-40.58 47.915-63.023 90.293-111.858 126.808-146.13 19.215-18.034 70.715-62.3 84.265-72.429 16.244-12.142 30.64-19.787 37.26-19.787 1.776 0-2.08 7.748-9.691 19.474-7.901 12.173-15.448 21.91-36.642 47.277-10.138 12.134-22.363 27.39-27.167 33.903-4.803 6.512-15.974 21.087-24.823 32.388-43.656 55.752-123.86 160.9-145.362 190.574-8.394 11.583-28.915 39.553-45.601 62.155-69.6 94.27-107.116 149.626-145.175 214.202-28.412 48.209-47.808 82.587-61.443 108.9a15113 15113 0 0 1-30.82 59.072c-20.654 39.34-43.608 85.248-54.45 108.9-4.663 10.17-8.595 18.63-8.738 18.798s-1.065-.499-2.048-1.482M114.057 864.387c0-1.04 27.556-54.59 40.354-78.422 13.082-24.36 36.383-66.015 48.56-86.811 4.633-7.911 11.94-21.412 16.24-30.001 12.815-25.6 23.518-43.259 64.636-106.637 22.53-34.73 60.786-87.849 74.727-103.763 10.731-12.249 37.368-38.894 37.747-37.757 1.156 3.469-14.137 32.34-24.176 45.64-3.125 4.14-12.349 18.568-20.497 32.062-8.148 13.495-27.657 45.394-43.353 70.888-48.806 79.273-68.649 112.792-100.722 170.148-29.317 52.428-57.672 95.546-73.048 111.082-8.417 8.505-20.468 16.495-20.468 13.57M421.784 333.673c1.64-5.52 9.497-18.471 19.218-31.68 5.765-7.832 19.67-28.47 30.902-45.859 30.196-46.755 44.935-66.284 50.188-66.497 4.277-.173 13.697-7.207 25.845-19.302 6.119-6.092 11.541-10.819 12.05-10.505 1.35.835-2.562 10.41-6.692 16.378-1.964 2.838-5.892 7.934-8.728 11.324l-5.156 6.165 2.517 2.23 2.516 2.231-3.578 4.96c-1.967 2.73-6.227 9.225-9.466 14.437-10.331 16.625-22.308 30.382-50.504 58.014-15.014 14.714-30.455 30.282-34.312 34.595-22.905 25.614-26.415 28.94-24.8 23.51M405.441 694.832c-2.754-2.754 2.27-20.574 10.655-37.797 7.336-15.066 30.286-47.479 73.472-103.765 48.333-62.996 68.073-89.726 86.551-117.201 23.245-34.564 31.115-44.67 34.164-43.874 2.691.704 9.26-5.361 16.093-14.86 3.893-5.41 6.494-7.811 6.494-5.993 0 .234-7.545 10.983-16.766 23.885s-25.483 36.173-36.138 51.712c-10.655 15.538-24.99 36.342-31.854 46.23-13.037 18.779-16.134 23.707-45.522 72.429-28.435 47.143-46.405 73.925-66.545 99.173-16.377 20.53-28.361 32.303-30.604 30.06M186.272 930.494c.353-.92 1.195-12.892 1.87-26.605l1.23-24.932 12.222-21.07c6.722-11.587 16.195-28.928 21.052-38.533s13.56-26.018 19.34-36.471c5.78-10.454 21.141-38.654 34.135-62.669 28.97-53.54 75.882-137.9 88.92-159.905 25.588-43.183 84.634-137.52 109.142-174.376 35.214-52.953 86.159-120.759 123.209-163.984 6.053-7.063 21.942-24.4 35.307-38.526 48.361-51.113 57.733-60.065 64.726-61.82 3.324-.834 4.242.982 4.261 8.427.02 8.06-2.471 13.219-22.04 45.627-25.393 42.055-39.236 63.345-70.444 108.343-5.055 7.289-10.993 16.535-13.195 20.547-5.16 9.401-17.142 27.523-36.067 54.553-18.821 26.881-18.87 26.957-62.583 95.779-57.77 90.952-77.826 123.308-91.557 147.703-29.45 52.322-115.089 186.25-154.981 242.373-5.59 7.865-15.418 23.016-21.839 33.668-13.958 23.157-22.367 35.161-30.45 43.466-6.526 6.705-13.42 11.431-12.258 8.405" style="fill:red;stroke-width:1.02735" transform="matrix(.86957 0 0 .87993 18.67 127.421)"/></svg>
