<?xml version="1.0" encoding="UTF-8" standalone="no"?>
<svg
   xmlns:dc="http://purl.org/dc/elements/1.1/"
   xmlns:cc="http://creativecommons.org/ns#"
   xmlns:rdf="http://www.w3.org/1999/02/22-rdf-syntax-ns#"
   xmlns:svg="http://www.w3.org/2000/svg"
   xmlns="http://www.w3.org/2000/svg"
   xmlns:sodipodi="http://sodipodi.sourceforge.net/DTD/sodipodi-0.dtd"
   xmlns:inkscape="http://www.inkscape.org/namespaces/inkscape"
   version="1.1"
   id="svg10"
   width="891.95795"
   height="1284.6157"
   viewBox="0 0 891.95795 1284.6157"
   sodipodi:docname="villager11knot.svg"
   inkscape:version="1.0 (4035a4fb49, 2020-05-01)">
  <metadata
     id="metadata16">
    <rdf:RDF>
      <cc:Work
         rdf:about="">
        <dc:format>image/svg+xml</dc:format>
        <dc:type
           rdf:resource="http://purl.org/dc/dcmitype/StillImage" />
        <dc:title />
      </cc:Work>
    </rdf:RDF>
  </metadata>
  <defs
     id="defs14" />
  <sodipodi:namedview
     fit-margin-bottom="0"
     fit-margin-right="0"
     fit-margin-left="0"
     fit-margin-top="0"
     inkscape:document-rotation="0"
     pagecolor="#ffffff"
     bordercolor="#666666"
     borderopacity="1"
     objecttolerance="10"
     gridtolerance="10"
     guidetolerance="10"
     inkscape:pageopacity="0"
     inkscape:pageshadow="2"
     inkscape:window-width="1080"
     inkscape:window-height="1826"
     id="namedview12"
     showgrid="false"
     inkscape:zoom="0.56247059"
     inkscape:cx="567.25428"
     inkscape:cy="309.88422"
     inkscape:window-x="-11"
     inkscape:window-y="-11"
     inkscape:window-maximized="1"
     inkscape:current-layer="g18" />
  <g
     transform="translate(-92.206315,-286.55279)"
     inkscape:groupmode="layer"
     inkscape:label="Image"
     id="g18">
    <path
       d="m 626.60711,1567.5479 c -52.38273,-15.2287 -106.32752,-14.7658 -159.7278,-16.4443 -44.18645,-7.3732 -102.80507,16.0551 -138.14997,-1.7544 30.35606,-2.6981 63.86571,-76.836 63.03482,-64.264 -31.72978,35.6791 34.42006,-55.7944 14.50401,-84.0269 -0.97957,-22.3505 6.62767,-103.917 -21.73221,-85.8887 -1.71547,30.1773 -4.53707,76.3573 -2.12003,97.9912 8.69348,-16.7538 22.94121,-79.2781 13.81423,-23.8103 0.70987,26.5861 -32.49917,48.6644 -22.95052,8.1175 4.43118,-27.6053 6.87053,-84.6772 -1.67343,-85.2088 -19.21103,25.8021 -14.68499,99.5793 -46.52137,94.2987 -24.68826,-31.2933 19.52242,-121.0677 -10.44685,-119.4658 -16.91298,43.3078 0.43969,133.3542 -52.09446,142.3179 -39.78058,-46.3321 -8.92645,-110.1308 -8.29238,-163.6114 3.30251,-20.5618 -1.13133,-105.4188 -23.89378,-80.9332 -9.18822,62.8091 30.80005,141.3968 -34.26795,183.2866 -40.0891,59.6518 0.6924,-52.2007 -43.02539,-39.292 -8.89435,21.827 -28.08145,100.1781 -52.04099,81.8126 -39.441357,-62.6095 59.1496,-107.1994 22.13188,-168.2537 -32.631836,-54.0464 -14.76748,-111.1823 0.97084,-165.568 -5.05855,-59.0889 -14.9076,-117.33074 -2.12611,-176.39309 2.13253,-84.13658 -6.66505,-170.21223 16.81405,-252.42496 24.30109,-56.04026 52.59444,-110.78253 64.4888,-171.15903 8.76949,-47.65664 64.97411,-65.48287 91.75441,-75.44928 24.22727,-63.1475 102.01563,-71.961 156.89041,-96.18584 62.02168,-25.51636 127.25907,-16.39179 191.23365,-10.02943 64.01261,-6.15586 126.68282,34.17225 168.48269,64.03231 39.64377,33.93031 81.04763,63.73953 106.91754,108.24473 5.25051,58.66248 54.13309,97.76795 59.50209,155.8557 14.4277,55.24548 -5.37505,108.31691 -5.96338,163.1853 7.63522,51.96304 1.27101,105.7657 -0.38073,157.97391 -14.61005,66.24898 -69.70089,115.96128 -42.031,182.99808 4.45929,50.7736 -53.95039,49.6483 -55.8266,2.3936 -33.44023,-33.3516 -18.20374,55.8258 -42.58723,69.68 -31.13969,63.3732 -102.77597,79.7399 -150.13533,124.2934 -44.81976,42.6197 -115.10113,32.2233 -172.31204,33.6187 -32.49522,12.9282 -80.78156,-48.6221 -92.96344,-23.2759 9.35057,21.5421 94.88373,80.59 31.91821,45.8016 -19.90828,-25.224 -43.71118,-30.6454 -25.4478,6.9434 6.81675,31.7462 82.44271,60.6092 21.86246,30.4618 -20.80741,-17.3569 -36.68728,-30.4677 -17.80597,2.1903 10.14221,15.5278 62.02473,47.1218 15.62964,27.3862 -14.23271,-19.3669 -39.87931,-41.0395 -22.96668,-2.3415 2.31252,21.7847 78.38932,75.0382 24.43869,47.6381 -30.51271,12.0548 -39.01861,-41.7535 -8.84577,-5.6171 -8.14373,-31.2038 -34.01249,-46.8092 -32.07999,-3.8765 -11.84908,22.3322 -83.05257,76.571 -16.83261,67.5751 62.73609,-11.52 129.11576,-2.3378 191.47886,-0.2795 39.19429,13.5 119.3391,21.1254 137.03421,-6.7539 -41.74841,-51.3534 -61.70828,-122.6695 -54.32557,-188.2198 17.39753,5.3705 1.41073,89.4555 26.31057,118.6836 3.56999,35.8632 42.497,68.5195 52.25684,89.5217 -40.15387,-12.8404 -74.25262,8.9024 -111.90152,4.2253 z M 274.2395,1430.6459 c 23.26543,-53.1697 40.15949,-122.7975 28.51991,-176.9729 -19.28545,-23.3498 -66.97872,-106.3172 -55.41864,-98.0143 12.43429,54.6277 21.10827,111.0125 4.89291,165.9426 -4.12465,34.0947 -5.30732,90.9322 22.00582,109.0446 z m 1.55546,-56.2602 c 1.35473,-32.2533 1.18659,-101.8847 15.67552,-108.5769 -5.63951,35.9654 -2.91105,74.245 -15.67552,108.5769 z m -155.85729,21.473 c 38.01092,-64.9035 54.19126,-139.7007 73.20572,-211.401 -3.98523,-20.5073 23.77864,-114.6119 25.13311,-54.2005 6.18859,71.8195 -60.92575,131.1451 -44.68991,200.4097 10.90242,76.0811 75.9242,-12.1819 53.39319,-51.4382 -15.285,-56.1694 5.36596,-110.9677 12.50508,-165.952 -16.4903,-50.0847 -11.47063,-103.4634 -17.33382,-155.40716 -21.5195,3.01424 8.51817,-86.11446 -16.61012,-117.86278 -24.42998,-64.1974 4.51388,-132.11987 46.49072,-181.42197 -8.48464,-7.87853 39.81932,-63.32026 55.98859,-92.99061 -2.50527,24.15728 -62.16035,82.93418 -9.31712,35.36096 19.01838,-11.72716 47.64873,-62.61017 9.53181,-61.2218 20.17835,-33.09824 -22.39829,-68.31033 -11.43716,-108.44064 -47.53681,-57.69002 -100.25294,51.6924 -101.97733,97.22319 -19.98895,62.06433 -65.02116,118.01098 -60.41604,186.4054 -16.37681,82.90427 5.51182,168.19762 -14.04091,251.04783 8.70985,64.25978 19.86188,132.57288 -12.08029,192.18928 5.26753,57.8724 55.27527,119.6662 4.33501,172.783 -19.450518,12.1922 -18.098881,103.9932 7.31947,64.9173 z m 11.08614,-58.0501 c 32.62761,-44.9606 20.61706,-105.9642 27.73356,-158.2928 13.13759,-149.3134 -14.23182,-300.27068 11.74687,-448.59884 15.98784,-62.45709 52.80922,-117.97685 73.0249,-178.43918 14.17355,-26.72514 33.91446,-49.63516 9.68326,-7.13617 -28.39075,61.91671 -59.1408,124.01327 -78.0612,189.39584 -21.9497,157.6942 3.89378,317.46795 -11.83723,475.76735 -10.95597,39.6445 9.98237,103.8963 -32.29016,127.3038 z m 37.38029,-111.261 c 4.82618,-113.9441 24.9252,-226.79522 22.09718,-341.07022 -1.22735,-21.02651 -0.72939,-79.3524 7.42426,-26.91443 -1.26125,86.50141 -5.03189,172.88505 -15.57929,258.88925 -6.34364,34.5354 2.18083,81.3648 -13.94215,109.0954 z M 156.84639,716.1628 c -15.04963,-64.55045 27.78109,-123.08063 54.6663,-178.1558 13.4396,-20.31559 52.82311,-66.17972 56.30621,-72.05564 -34.3955,51.70006 -73.49766,100.15965 -96.0643,158.29982 -21.76615,23.15813 2.17735,88.9762 -14.90821,91.91162 z m 56.94273,0.04 c 1.10923,-6.8946 5.9563,-0.98453 0,0 z m 123.37047,687.8449 c -3.52183,-38.8005 72.59598,-123.5365 -4.63548,-120.9629 2.01288,35.1356 -20.4482,97.315 4.63548,120.9629 z m -2.38578,-60.1986 c 4.60351,-25.6504 29.08583,-52.651 9.1773,-12.385 -2.29754,4.4149 -2.89495,11.5214 -9.1773,12.385 z m 217.5,1.9486 c 60.7882,9.5191 122.17777,-13.5353 160.92677,-61.1506 17.48901,-14.8819 57.57463,-47.7006 66.43754,-56.2908 -15.88798,14.4473 -51.75568,54.6364 -7.53616,25.114 49.21555,-39.2098 65.09747,-106.8463 76.74836,-165.5838 17.0053,-60.8463 -8.42846,-123.10218 14.28398,-180.06747 10.16275,-18.61279 17.0922,-93.93208 8.64345,-81.26072 -9.37846,27.60831 -7.09696,82.64207 -23.49555,93.92479 1.805,-38.70058 32.34234,-110.16552 15.53824,-128.65634 -36.70485,50.5562 -53.68421,115.42553 -105.24043,155.17136 -44.71163,50.20104 -131.09907,48.39167 -148.83838,-24.75648 -10.85773,-26.72839 -24.89212,-47.86464 -8.08686,-6.5057 14.6632,41.01773 84.06888,149.49916 -0.70167,145.04506 -38.97925,4.3301 -91.90602,11.8612 -121.19875,-8.3889 -24.1987,-54.5286 36.5416,-104.42473 23.88465,-160.7554 -19.1174,48.94962 -35.7006,102.4832 -96.19908,104.89664 -74.14061,3.47556 -128.2242,-59.76349 -162.37411,-118.2608 -31.08257,-43.24913 19.97777,61.09427 36.68535,77.50885 15.19836,22.13045 73.2589,72.94091 16.35285,34.19133 -28.00716,-17.19783 -45.22781,-79.53937 -59.99156,-85.09448 14.27108,49.21052 70.45389,124.97246 87.92933,139.30686 -55.27034,-17.6456 -62.19757,-87.15843 -93.9556,-128.38248 9.3288,46.9658 51.76859,80.46051 58.93874,127.70638 -16.15372,-15.9788 -61.62055,-114.49451 -39.5617,-50.37793 5.24864,7.21963 10.87725,35.30853 -4.49387,14.30443 16.82629,21.9883 23.72755,88.1586 2.27907,28.448 -12.47179,-33.2616 24.692,79.4623 -4.31122,20.3112 -20.19288,-45.3777 15.84698,39.1724 -3.95555,31.0095 11.01967,46.091 27.21475,90.9755 53.68189,129.7363 15.20896,57.906 81.97939,49.3915 118.06325,85.3039 36.19636,34.1392 90.68151,47.6067 139.54702,43.5533 z m -108.77259,-29.7488 c -27.39552,-49.7955 58.76222,-21.8582 0,0 z m 10.44077,-11.3527 c -2.26405,-32.3682 -5.68429,17.3779 0,0 z m 70.08673,-59.4326 c -22.17814,12.6136 -91.37259,-67.2497 -70.52108,-48.4409 50.4574,-6.6963 84.22726,-41.8577 133.03645,-38.9696 38.03158,-19.4322 93.73324,28.4473 140.47988,12.7906 -50.87456,15.5274 -79.96911,74.4081 -141.12864,70.9651 -20.55821,2.1723 -41.64015,4.8381 -61.86661,3.6548 z m 10.75014,-5.4687 c 58.40016,-0.2131 127.38928,-9.1811 160.57385,-63.7638 -52.13357,-16.775 -100.30891,37.0515 -153.32074,29.6766 -30.0313,-21.6705 -94.30311,1.1986 -39.24136,29.0464 10.19724,3.9584 21.21513,4.4657 31.98825,5.0408 z m 39.50378,-37.0116 c 21.64412,-20.8984 107.97953,-30.3528 37.17195,-45.403 -36.49625,10.1085 -68.18618,0.9563 -100.29734,21.2539 -25.19797,34.108 50.7954,11.8045 63.12539,24.1491 z m 102.48119,-71.2357 c -0.53772,-55.9585 43.64007,7.4854 0,0 z m 12.53169,-5.8488 c 0.0679,-25.5009 -14.52359,6.5458 0,0 z m -159.2434,-23.6512 c 1.31538,-51.4414 16.77019,34.7767 0,0 z m 56.72169,2.7858 c -13.34326,-57.8084 22.36749,4.8557 0,0 z m -253.34114,-29.8603 c -41.57293,-16.8335 11.90224,-7.9689 0,0 z m 321.84114,262.9144 c 21.76494,0.2704 34.90598,-33.1623 13.1147,-9.2088 -0.44077,-1.6553 -37.2179,17.4075 -13.1147,9.2088 z m 28.5,-14.5899 c 6.73119,-8.8314 -9.61855,9.5612 0,0 z m 57.51119,-43.5964 c 5.12317,-7.5056 -14.32555,13.2296 0,0 z m 17.7803,-14.6097 c 9.34838,-6.9752 -28.92034,13.5092 0,0 z m 24.10256,-13.4159 -8.26112,5.8855 z m -10.26649,4.372 c 3.16257,-4.5852 -7.08855,6.4065 0,0 z m -582.64845,-25.75 c 11.82761,-27.9622 28.29604,-114.5868 20.85975,-108.2711 -4.4841,30.702 -28.42246,112.6302 -23.11127,115.4944 0.75051,-2.4078 1.50101,-4.8155 2.25152,-7.2233 z m 609.54616,7.8122 c 20.02016,-15.4592 46.31206,-73.0661 39.74834,-86.5702 -10.79515,25.732 -41.50984,86.2207 -43.22238,90.2774 l 5.66297,-5.0222 z m 112.99109,-74.0622 c 22.80841,-44.8629 -5.1167,-97.3118 -5.07652,-143.2294 8.90062,-11.9826 16.31741,36.2318 30.49403,1.4721 20.80853,-38.40168 39.74439,-99.94974 25.0255,-135.72289 -21.71783,47.96872 -21.95249,118.59879 -79.6727,140.23019 -23.06727,-13.2973 -12.7268,62.0798 -17.25487,78.656 9.2639,27.2826 29.86311,39.4577 12.88127,3.7038 -10.51082,-25.2723 4.54218,-111.74187 5.02505,-40.9059 8.81886,28.5174 -10.51512,93.7376 28.57824,95.7961 z M 240.9121,1145.5411 c 2.6258,-24.3461 -12.04213,39.5411 0,0 z m 620.82453,-83.4935 c 4.3701,-44.4042 0.28258,-30.7037 -1.72465,4.6818 z m -349.34224,-2.7036 c -23.11121,-34.4223 18.83548,-54.8326 26.58402,-13.1607 32.06473,53.7747 71.67839,-72.86263 70.32073,1.0753 33.39309,34.8031 22.48668,-56.18431 1.98263,-71.39208 -18.5986,-35.25863 -13.29128,-117.57525 -72.17842,-105.54826 -38.62664,25.40182 -27.38669,88.42123 -51.71067,127.65013 -9.09264,22.06511 -11.14079,66.56311 25.00171,61.37561 z m 71.77072,-1.1237 c -1.20857,-4.5979 -5.22205,8.8955 0,0 z m -0.26374,-4.1727 c 2.79684,-4.8697 -5.98204,7.2082 0,0 z m -348.12756,-27.691 c -1.34585,-7.1111 -3.33957,5.4693 0,0 z m 659.53707,-7.1436 c 42.99474,-39.18207 60.11835,-108.33978 60.02132,-162.34044 2.03295,-62.50322 22.80646,-124.00112 22.34819,-187.18942 1.14209,-60.7506 -29.20175,-110.14146 -56.72988,-161.37908 -7.14342,-52.16759 -50.95886,-93.40328 -91.95331,-123.31695 -38.38425,-38.9753 -87.72548,-60.47682 -139.15342,-80.79126 -62.38849,-2.68884 -126.0365,-13.49448 -188.7369,-8.38872 -54.11004,16.3104 -110.10954,29.60023 -159.89695,56.31972 -30.98661,8.19448 -59.75543,84.26337 -26.1866,79.53203 44.05383,-39.99846 109.10773,-36.87068 160.75724,-62.98748 22.38474,-11.10538 114.19745,-25.01505 46.52175,-20.81489 -63.14435,-3.68439 -131.76269,-5.20196 -182.97229,37.83013 0.0949,-4.39702 59.18637,-46.49763 92.4263,-43.19676 68.47519,-4.99053 137.57393,6.55731 205.40923,-7.6351 61.72181,7.08417 121.05323,38.53422 175.64263,69.37096 79.11213,48.99647 88.37813,148.94779 112.65388,230.18172 31.46881,73.30268 22.0236,157.0011 10.20336,233.73657 -4.33864,24.135 -19.14821,84.59055 -26.71509,89.59595 17.23891,-71.67024 36.33625,-143.86524 30.16341,-218.41886 -0.0707,-70.08692 -33.20408,-133.1051 -46.96864,-200.74998 -8.5159,-38.73148 -43.66002,-109.10389 -68.60514,-110.93234 17.62692,7.91314 45.40313,66.88776 14.45511,28.93637 -54.76726,-82.04695 -162.5109,-111.91741 -256.58425,-105.64733 -74.78891,4.95447 -144.2866,36.00267 -214.56412,59.7007 -64.21822,-15.69467 -72.21265,102.96404 -35.47638,105.82024 46.45151,-52.19715 110.63783,-80.12391 179.53723,-83.41637 62.24217,-23.17163 128.25028,-42.65552 195.20993,-29.28123 68.58345,10.46935 104.72853,77.10139 159.98676,112.05995 49.04009,51.62104 26.2837,130.55457 54.63973,191.51827 -15.56347,19.54136 9.61126,77.69054 -6.59669,112.26491 0.49688,22.56567 -1.5436,57.99098 -9.95912,41.21864 -5.29052,36.81776 -6.1389,76.00441 -19.3051,110.63254 -7.22166,-44.24086 2.94539,-130.22476 -0.94642,-149.87207 1.51152,65.62613 -27.1021,134.6511 2.82113,197.54208 l 3.38586,2.0104 z m -25.43663,-33.0163 c -4.09466,-49.90626 -7.70953,-9.49579 0,0 z m -444.63134,4.0487 c 35.40757,-17.39852 78.26041,-94.02573 18.18436,-104.35525 -50.38268,-16.68527 -104.42551,-22.71337 -157.18064,-21.51196 -43.29723,26.82352 31.83965,81.25249 52.28367,107.81995 25.10647,15.39394 57.99085,18.12693 86.71261,18.04726 z M 366.49114,933.823 c -87.38744,-13.50352 39.66043,-88.84574 53.71471,-25.00105 -2.59799,21.75469 -36.19019,25.20449 -53.71471,25.00105 z m 24.63194,-9.722 c 31.54075,-6.98821 -8.05438,-53.54688 -1.49561,-12.06127 -41.8801,35.05418 16.41829,-39.09804 -26.98208,-12.74655 -7.20264,14.99208 13.74683,37.54789 28.47769,24.80782 z m 11.64156,-2.3034 c 22.28903,-13.31662 4.34267,-13.25528 -3.65576,0.10262 z m -47.57689,-2.75 c 26.95909,-40.69761 -41.64691,-6.00718 -0.65535,2.3065 l 1.10126,-0.16193 z m 28.3867,-4.6757 c 18.0647,-33.63986 -20.00046,6.80127 0,0 z m 2.44936,-25.2366 -2.43984,0.0477 z m 77.78986,81.4123 c 28.06838,-24.89889 -20.50005,4.19145 0,0 z m 237.46014,4.345 c 69.97664,-19.46972 108.34617,-88.23755 135.55057,-150.2533 -62.46013,-4.37012 -123.30408,21.17532 -184.68063,29.81138 -55.59602,15.84529 -16.08088,95.20349 15.54413,119.6737 10.43148,5.14295 22.86515,4.8893 33.58593,0.76822 z m -13.5,-70.771 c -81.64887,-3.60454 9.81986,-67.17071 47.73978,-53.8546 66.76133,2.74795 -30.41796,58.55996 -47.73978,53.8546 z m 17.4646,-7.9488 c 28.51605,-27.23929 -51.83713,7.95586 -10.20083,-25.31435 -4.71639,35.65348 21.48171,-15.90896 -11.3367,-5.37483 -18.09111,16.86142 1.07266,38.87346 21.53753,30.68918 z m 10.67714,-2.7899 c 74.22173,-20.40482 -4.73819,-54.09917 -6.96588,-29.16825 21.85904,2.03592 -3.36735,30.9062 6.96588,29.16825 z m -44.77601,-3.798 c 3.02296,-46.76283 -28.31126,21.92855 0,0 z m -201.02561,60.93 c -1.8055,-5.13437 -4.70296,12.86555 0,0 z m 422.25945,-42.2173 c 8.32874,-46.13917 10.61558,-131.72862 2.57279,-154.71491 -7.83106,49.91594 -1.06109,102.50721 -5.71369,153.50201 -0.2729,21.98634 0.54354,12.30886 3.1409,1.2129 z M 483.7585,890.5124 c -7.79855,-1.4491 -0.43244,6.46977 0,0 z m -0.5382,-4.2148 c -39.70552,-47.23487 -108.47994,-44.86969 -163.503,-61.15888 -44.55997,-23.44996 -77.27198,47.63943 -15.18917,34.43763 53.88588,-7.40229 105.3472,9.49372 156.14536,24.58681 l 11.67051,1.84229 z m 22.56872,-1.3282 -3.25182,2.08984 z M 259.30303,873.1017 c -7.11199,-10.77187 1.97741,16.0487 0,0 z m 329.71379,5.1196 c -1.03616,-14.03899 -9.67383,-0.95889 0,0 z m -90.47888,-6.1159 c 32.81485,-35.7147 84.09512,-26.89538 118.11784,-25.27297 44.89873,-28.1284 97.82848,-37.91344 146.59102,-57.68654 47.96887,-11.6792 130.09186,-35.33158 109.96007,-100.9008 -21.62576,-46.70232 -63.86674,-79.02291 -113.05984,-92.48941 -47.47817,-28.30814 -105.94187,-5.19144 -157.31055,-22.54225 -62.37649,2.31595 -127.01085,7.21804 -189.91508,-2.79435 -71.00189,-15.4231 -95.11685,47.28195 -122.4668,96.1305 -35.92662,39.83971 -103.02267,97.06529 -36.59511,141.85596 35.79317,15.67316 57.50851,-4.44104 95.30762,14.10721 44.71297,-0.23106 94.85848,20.37086 134.58025,45.23582 2.76893,4.63343 11.16663,14.41325 14.79058,4.35683 z m -31.66,-34.0568 c -41.37057,-43.84936 -110.45615,-57.55807 -167.01293,-41.73813 -55.81557,19.97231 52.33949,-56.57258 81.6276,-37.33799 42.34789,-2.07257 149.11274,13.9632 99.43407,75.26717 -1.36954,6.40923 -11.59457,14.60025 -14.04874,3.80895 z m 11.41102,-6.9415 c 31.34453,-66.27739 -75.54735,-66.53464 -117.40684,-66.1848 -20.10953,-5.16454 -90.86895,32.88288 -34.55987,21.14059 55.5229,-10.68082 115.89052,17.05791 151.96671,45.04421 z m 126.09363,1.4814 c -27.9815,-69.76917 64.15304,-95.27303 114.76933,-106.10167 31.85424,-13.44104 134.1671,-9.72549 103.02305,37.89669 -30.44046,-21.71684 -81.34309,3.64152 -118.16685,10.93948 -35.31236,12.37565 -79.51846,30.99068 -99.62553,57.2655 z m 12.08303,-17.8859 c 60.28,-42.21234 134.74468,-59.83879 205.65903,-69.0601 -45.318,-40.0568 -104.52688,-12.36019 -155.18359,-0.91816 -33.28783,-2.77857 -82.3585,62.44684 -50.47544,69.97826 z m -268.44181,3.4057 3.4622,0.0196 z m 195.75,49.6893 c -0.50045,-4.19937 -10.97727,6.34119 0,0 z m -23.5,-2.6248 c 3.37715,-6.34832 -12.68251,11.94469 0,0 z m 102.40203,-3.3153 c 56.9739,-26.13019 121.71214,-32.57604 182.8783,-39.37828 53.38892,-14.55495 1.57045,-57.79544 -30.93096,-32.55187 -53.54889,21.05648 -126.84783,35.22127 -161.6943,75.97443 z m -69.58629,3.7088 c 38.53993,-5.62636 -23.14204,0.58623 0,0 z m 77.3741,-4.4122 c -16.9225,4.19914 -3.41169,5.12858 0,0 z m 338.71619,-41.3565 c -6.74047,33.12648 -0.19545,56.45856 0,0 z m -714.69734,38.25 c 20.72281,-42.44105 -48.60617,-32.32681 0,0 z m -26.70869,-6.5163 c -1.29752,-18.19615 -10.82076,-8.63271 0,0 z m 15.25,-29.9432 c -5.47516,-22.25439 -36.80624,-48.23417 -14.11817,-10.70778 0.94624,6.00703 6.64508,16.95236 14.11817,10.70778 z m 667.27981,-24.2905 c -0.79326,-36.13046 13.74935,-96.57771 -25.35532,-113.7645 24.31299,31.62706 16.23043,105.97648 24.27377,121.16508 0.36052,-2.46686 0.72103,-4.93372 1.08155,-7.40058 z m -703.99986,7.75 c -5.33774,-24.02305 1.08175,19.93535 0,0 z m 644.55621,-8.5 c 20.42621,-21.24818 5.65891,-11.88881 -4.90095,3.73188 z m -4.57644,-1.7621 c 10.03045,-11.21682 46.15621,-36.45802 10.99437,-19.1505 18.14218,-11.95457 47.36856,-68.01925 8.74742,-28.761 -11.86624,5.33758 -64.12125,57.31827 -19.74179,47.9115 z m 14.78727,-2.4879 c 4.39147,-9.22812 -18.20557,23.23548 0,0 z m 4.83057,-8.25 c 3.16255,-4.58504 -7.08868,6.40676 0,0 z m -648.12756,-3.5589 c -0.73405,-10.34824 -4.4022,0.70953 0,0 z m 608.49292,-6.6796 c -2.81236,-2.13718 -3.2218,3.75887 0,0 z m 7.63464,-0.7615 c 3.16255,-4.58504 -7.08868,6.40676 0,0 z m 0,-3 c 3.16255,-4.58504 -7.08868,6.40676 0,0 z m 37.09455,-2.3633 c 30.90197,-8.93597 26.72116,-50.58017 4.55361,-10.15568 2.58844,-2.18355 -19.45341,19.3915 -4.55361,10.15568 z M 221.74254,748.3402 c 23.73893,-43.13466 105.94332,-114.45767 90.91906,-139.45322 -19.55539,22.53961 -42.74414,44.4058 -10.54304,6.74761 -18.64977,9.63174 -55.70085,79.00393 -79.2273,112.17582 -4.23433,5.80838 -23.85462,32.43886 -1.14872,20.52979 z m 5.72369,-27.5426 c 22.58901,-53.27143 62.80547,-95.72191 96.55129,-140.25268 -40.25529,33.34745 -67.67045,77.19786 -97.58141,119.45483 -3.95086,4.59223 -14.02493,36.60685 1.03012,20.79785 z m 661.10634,1.9351 c 9.21567,-21.61586 -15.45664,-5.17001 0,0 z m 12.20124,-49.9264 C 895.55682,607.74807 890.9968,522.78823 822.82374,492.13409 774.08673,446.32814 722.00837,393.00452 648.6157,406.86354 c -66.66389,-7.95832 -121.666,38.68585 -188.02207,38.36191 -50.84036,8.48184 -100.03332,38.8614 -131.33703,78.9635 0.6456,58.48859 80.44533,-9.98109 114.5016,-10.96838 87.12492,-22.7182 177.84728,-10.89907 266.58461,-11.21699 53.1466,6.18043 99.08756,50.21329 132.84321,80.94077 -37.68562,-49.47687 -88.73935,-101.38513 -155.89118,-99.15767 -29.35558,-0.23278 -94.98169,20.34615 -34.13433,-2.22572 24.74552,-11.0308 130.6609,13.03358 61.0418,-13.5216 -93.25528,-21.58991 -192.03164,-1.54113 -280.39392,31.5813 -22.21385,7.66896 -100.40969,52.12687 -39.50594,14.40888 98.26234,-49.08516 212.39052,-72.48522 321.41031,-54.53522 49.55468,17.3499 80.48415,62.98605 117.94317,96.75211 18.67931,21.54166 32.3013,63.06977 42.51259,40.82215 18.15419,19.69865 -8.22222,82.339 24.60529,75.73772 z m -28,-23.8497 c 5.14797,-37.33527 -15.88735,-29.71829 -6.35564,4.03462 -0.80044,12.1853 15.32335,9.27335 6.35564,-4.03462 z M 859.46577,638.7822 C 842.30766,573.23392 778.05915,530.6138 717.00779,510.63841 651.82205,500.4321 585.38171,509.58111 519.62818,506.12229 465.9296,504.4841 418.1267,531.19926 366.79148,542.40151 c -31.03699,16.10941 -32.74183,52.05863 8.18439,26.65074 56.17982,-16.05606 114.13085,10.97401 172.02488,1 59.9746,-7.51441 119.89774,8.35752 180.34628,6.78573 41.51517,12.41246 87.36127,27.1678 119.38258,57.88442 2.14422,5.29374 18.77502,23.25853 12.73616,4.0598 z M 293.96579,608.38542 c -17.33543,11.71192 -14.26003,19.10105 0,0 z m 45.73773,-37.4059 c 3.45547,-14.96254 -12.08995,15.97657 0,0 z m -8.92971,-2.29994 c -3.75696,-1.92912 -0.93449,4.93706 0,0 z M 304.7585,448.98859 c -5.34359,-1.77994 1.09273,8.83977 0,0 z M 663.95351,344.87453 c -25.29297,-16.0335 -55.68475,2.61106 -11.69079,1.76093 3.95847,1.12708 30.2325,6.74511 11.69079,-1.76093 z M 410.77381,1538.6084 c -32.88005,-0.2488 -40.3823,-36.5182 -2.26754,-8.3638 13.46944,1.0306 23.2269,11.3852 2.26754,8.3638 z m 14.90864,-9.7932 c -32.46763,2.996 -31.18291,-63.3604 -12.12732,-14.8289 4.38477,5.9084 43.44961,14.2447 12.12732,14.8289 z m 12.43511,-7.059 c -30.53825,1.3402 -42.26259,-61.1154 -14.10277,-16.2356 5.85299,5.7355 42.44907,16.0357 14.10277,16.2356 z"
       style="fill:#000000"
       id="path22" />
    <path
       d="m 521.29281,1345.6731 c -51.64776,-1.4593 -95.05038,-30.8147 -133.92262,-61.5234 -53.57246,-11.841 -88.34664,-47.6957 -111.32485,-96.3077 -7.33333,-33.5287 -48.57273,-92.1826 -26.96354,-110.548 -10.98056,-41.0795 -12.43217,-26.5939 9.18729,-1.8144 -3.2555,-26.6458 -12.73975,-41.7782 6.1035,-9.5388 -7.75741,-40.1536 -9.48038,-63.4036 -19.7786,-97.37494 13.67815,13.9786 41.37029,88.39884 45.17399,62.25974 -12.17788,-33.56918 -53.92725,-87.18993 -52.46126,-106.32469 27.45427,40.85231 37.26038,107.99829 91.94273,120.40179 -26.65218,-19.5755 -69.33354,-84.46846 -87.29422,-132.20516 4.60856,-11.67613 32.10259,70.71916 61.69823,81.97682 54.9181,32.10134 -37.1028,-44.19024 -41.01433,-69.07017 -11.40085,-16.68752 -44.83949,-90.12333 -13.02771,-39.21581 34.55449,58.75799 94.87235,121.69652 169.60634,108.63644 52.58476,-8.70465 66.61415,-56.9391 84.23824,-101.12024 12.78026,58.03276 -60.97748,118.44192 -14.14648,169.77502 43.73811,0.1322 95.00962,4.1916 141.41989,-3.9339 35.91421,-43.635 -19.88663,-104.3313 -31.04475,-150.8907 -8.00032,-36.35034 27.80432,76.4276 62.97821,74.43992 83.91803,3.8466 140.27977,-74.52758 172.35298,-142.50623 8.88016,-23.90913 44.8753,-79.55284 32.284,-20.95019 -1.35622,31.3447 -25.19697,81.75225 -14.17722,102.85915 9.49181,-26.79901 28.30526,-103.64398 21.12993,-95.78648 4.40029,43.71041 -14.7325,86.72508 -24.27858,126.11416 14.34647,92.11817 -3.09787,189.95507 -49.73365,270.79657 -9.95477,25.1348 -80.75338,60.8324 -30.32843,15.7457 40.97043,-44.2389 -35.83013,30.1365 -51.89548,40.3534 -38.4584,45.2157 -94.61072,73.3773 -154.86728,66.1956 -13.95148,-0 -27.9138,0.1154 -41.85633,-0.4435 z m -61.60554,-39.8035 c 3.29371,-68.6042 -51.24483,41.4393 0,0 z m 71.49244,-59.7921 c 55.11079,-2.1412 122.0655,-5.7052 155.73622,-56.5978 24.41725,-10.8148 60.3213,-27.0375 10.61299,-18.6185 -44.65353,6.3017 -90.66462,-43.4911 -127.77451,-7.1258 -44.23058,-13.9211 -73.41389,34.3039 -118.47192,33.6203 15.08393,10.7983 46.53123,60.3734 79.89722,48.7218 z M 690.28534,1130.993 c 23.71576,-45.379 -41.2086,-0.036 0,0 z m -154.28455,-20.3605 c 10.62897,-44.126 -21.32101,-22.4333 0,0 z m 55.01824,-4.7305 c 12.66412,-43.9792 -23.59653,-21.2919 0,0 z m -253.98217,-32.8193 c -24.24733,-22.6793 -22.65811,5.2822 0,0 z"
       style="fill:#ffd5d5;stroke-width:0.89881"
       id="path34" />
    <path
       d="M 486.76676,870.5002 C 441.03991,835.88032 382.31219,822.18962 326.1545,818.79201 c -32.3681,-15.64067 -78.94197,10.85213 -96.00007,-41.40568 -27.00135,-36.98542 34.22835,-68.90256 50.65756,-98.80871 40.29992,-34.34525 37.53594,-112.1431 106.15441,-106.84215 60.6052,-1.76922 121.24405,12.3003 181.96406,2.48905 34.44448,-7.81977 67.48199,11.07503 102.47337,6.8692 28.42967,2.52781 59.07531,-5.05262 83.83588,12.88622 52.43658,15.15787 101.03094,49.49131 119.80776,102.37771 9.57484,55.05528 -55.47927,77.23761 -97.74802,88.18875 -56.09183,19.93396 -114.81607,34.13157 -166.58604,64.0621 -32.54312,-11.94952 -89.35475,-6.85249 -117.23147,27.50665 l -2.70633,-1.3536 z m -10.37719,-28.85206 c 48.88989,-40.69611 -6.63465,-80.96932 -51.26938,-79.43362 -52.98574,-10.0521 -114.12942,-2.96231 -148.97144,42.70321 64.54787,-28.36772 148.28151,-14.32887 196.01616,38.9407 z m 133.36501,-9.62257 c 41.46412,-50.82018 117.41268,-64.22856 180.05054,-74.91351 19.95249,-3.95478 52.13011,18.24501 39.20493,-18.2642 -52.17256,-37.469 -120.13006,-11.37998 -174.61717,6.93303 -35.19158,8.15684 -79.67589,61.6121 -44.6383,86.24468 z M 352.31662,817.86932 c -4.0561,-2.77428 -5.39296,3.58136 0,0 z"
       style="fill:#ffd5d5;stroke-width:0.89881"
       id="path36" />
    <path
       d="m 678.38716,976.9618 c -44.98336,-15.82269 -86.30993,-117.8196 -15.162,-125.14616 57.67339,-5.96136 113.3533,-31.04168 171.80161,-27.0642 -27.40591,67.1734 -75.51207,148.33373 -156.63961,152.21036 z m 27.00313,-75.11503 c 35.39197,-6.32003 81.97222,-60.90909 16.55971,-51.41076 -38.75514,-7.41817 -111.08176,54.39438 -33.63709,53.64757 l 9.58467,-0.35912 z"
       style="fill:#ffd5d5;stroke-width:0.89881"
       id="path38" />
    <path
       d="m 394.56067,988.14928 c -61.80594,-0.66242 -102.17031,-59.92364 -124.69618,-109.75445 42.47573,-32.60742 113.73966,-3.10931 164.62762,5.32863 38.82988,-0.61618 50.92407,38.53252 27.0723,67.79439 -14.17258,23.66771 -36.38023,48.80985 -67.00374,36.63143 z m -8.45351,-55.28142 c 73.11371,-5.85935 -0.3102,-83.89002 -35.58816,-36.36657 -50.99283,16.52286 14.69398,46.40292 35.58816,36.36657 z"
       style="fill:#ffd5d5;stroke-width:0.89881"
       id="path40" />
    <path
       d="m 498.04697,1057.5197 c -40.79198,-39.9352 15.43332,-99.94347 16.57773,-147.48147 11.20136,-83.13461 98.12472,-17.41777 86.48737,40.20644 7.16331,29.73207 55.44996,94.53623 12.78264,105.83543 -6.76808,-20.8908 -6.413,-59.30127 -26.73708,-16.9264 -28.46374,51.4444 -51.87954,-19.8638 -76.40321,-17.0593 -17.06525,12.0976 15.51687,45.4619 -12.70745,35.4253 z"
       style="fill:#ffd5d5;stroke-width:0.89881"
       id="path42" />
    <path
       d="m 668.95705,1352.6795 c 23.45922,-30.3825 -8.59342,-41.0364 -10.35975,-3.247 -11.95639,20.3226 6.57902,80.8394 13.58816,33.7068 3.60652,-23.7473 12.22981,-98.3854 -12.92673,-44.0368 -11.46111,11.9853 3.46101,12.7497 9.69832,13.577 z"
       style="fill:#000000"
       id="path44" />
    <path
       d="m 855.41645,1114.0348 c 0.25854,22.0767 51.14834,64.1985 36.31427,31.7818 -14.54302,-3.378 -14.72801,-57.0938 -36.31427,-31.7818 z"
       style="fill:#000000"
       id="path46" />
    <path
       d="m 900.99621,1163.0594 c -0.96742,1.4876 -0.97696,-1.4623 0,0 z"
       style="fill:#000000;stroke:#000000"
       id="path48" />
    <path
       d="m 913.13623,1173.2504 c 29.0106,-24.7292 41.452,-83.0258 12.91636,-100.3703 31.18534,-55.997 -48.64036,13.4489 1.47997,20.4827 6.83188,21.5898 -31.31471,62.2918 -14.39633,79.8876 z"
       style="fill:#000000"
       id="path50" />
    <path
       d="m 932.6352,1097.4758 c 0.77901,2.4474 2.40545,-2.0653 0,0 z"
       style="fill:#000000"
       id="path52" />
    <path
       d="m 656.07394,908.53055 c 9.98209,27.72324 50.93908,106.09385 64.29654,83.5196 -30.47965,-17.92849 -37.20472,-77.08132 -64.29654,-83.5196 z"
       style="fill:#000000"
       id="path56" />
    <path
       d="m 406.25743,933.20707 c -20.226,29.19012 -37.293,61.98309 -62.16235,86.52653 27.7298,10.8327 76.97115,-70.85767 62.16235,-86.52653 z"
       style="fill:#000000"
       id="path60" />
    <path
       d="m 559.95269,760.60826 c 25.1116,-14.33691 19.86855,-58.76725 -3.26529,-22.67792 -5.59455,10.31593 -15.3369,20.59868 3.26529,22.67792 z"
       style="fill:#000000"
       id="path62" />
    <path
       d="m 494.61652,733.44523 c 18.1879,30.05101 48.1459,3.24923 9.18228,-9.22944 l -5.0806,4.12776 z"
       style="fill:#ffd5d5;fill-opacity:1"
       id="path64" />
    <path
       d="m 632.97148,1561.3809 c -51.51825,-15.5524 -102.52141,-16.0129 -155.6112,-15.3949 -35.29456,-15.7883 -106.71457,22.0817 -119.24306,-8.6368 23.48463,-23.3734 48.9205,-56.3224 55.03048,-82.9262 20.86582,23.9932 26.09492,32.5534 -0.6117,19.6871 0.22317,22.0195 84.77272,42.4017 38.65416,10.5248 -33.83916,-19.8688 -50.92777,-92.5629 -9.60311,-37.2398 62.28987,32.3736 -54.54635,-57.5628 -13.39458,-41.6376 13.20834,18.4887 71.52052,36.279 22.995,14.9135 -31.24748,-12.8914 -51.56429,-97.3504 -5.54664,-41.9288 15.83508,15.6956 47.60239,20.7826 12.96093,-2.3688 -22.84047,-8.9615 -69.83252,-73.4491 -15.49061,-40.4675 51.01788,34.9979 118.75213,22.5298 176.6843,16.266 64.00443,-31.518 23.95104,51.2831 44.9411,86.6507 2.80722,41.4425 42.5908,85.6464 46.44964,114.8239 -26.63289,-2.7172 -50.88547,14.2157 -78.21471,7.7344 z m -212.58042,-22.8538 c 3.14729,-10.9379 -73.99485,-33.0112 -21.92356,-0.547 l 10.00873,1.1084 z m 16.61187,-10.5615 c -18.91207,-12.7663 40.5717,-3.6974 -5.24092,-18.4584 -12.95957,-15.3226 -41.10052,-35.9663 -16.53953,-0.4116 26.91954,31.834 -38.74931,-45.445 -10.27001,8.597 7.25732,10.2882 20.26301,13.4142 32.05046,10.273 z"
       style="fill:#ffd5d5;fill-opacity:1;stroke-width:0.888935"
       id="path66" />
    <path
       d="m 525.06053,1238.7316 c -46.78064,5.3004 -59.60759,-58.5785 -4.80596,-38.7158 55.86983,27.7888 102.15826,-31.3591 157.9394,-25.1369 41.18552,-1.9899 -34.07299,52.0265 -52.0863,52.7394 -32.61841,9.6418 -67.21956,11.7722 -101.04714,11.1133 z"
       style="fill:#000080;fill-opacity:1;stroke-width:0.888935"
       id="path68" />
    <path
       d="m 554.18749,1199.1941 c -26.74374,0.3412 -73.27057,-5.1549 -26.15792,-30.7827 38.01011,12.873 77.17776,-31.7202 114.95587,3.0302 -31.16048,4.2902 -57.81591,36.028 -88.79795,27.7525 z"
       style="fill:#000080;fill-opacity:1;stroke-width:0.888935"
       id="path70" />
    <path
       d="m 470.16025,828.48456 c -43.22369,-43.60239 -110.76433,-49.26608 -166.79034,-40.84752 41.61846,-35.5022 106.0674,-22.51486 155.10418,-9.54167 28.27923,-0.19742 38.13977,57.14322 11.68616,50.38919 z"
       style="fill:#501616;fill-opacity:1;stroke-width:0.888935"
       id="path72" />
    <path
       d="m 609.73025,816.95841 c -12.6122,-60.15191 60.84249,-74.9888 104.57814,-83.00652 33.90945,-14.99131 79.05075,-12.71054 106.3551,12.49317 -73.62466,7.96028 -149.56369,26.77196 -209.15957,72.63948 l -1.77368,-2.12613 z"
       style="fill:#501616;fill-opacity:1;stroke-width:0.888935"
       id="path74" />
    <path
       d="m 687.5278,895.51767 c -34.66512,-17.93793 25.22485,-50.10262 11.89359,-12.33099 -6.28678,-3.0061 -3.9913,-24.08701 -15.84039,1.89025 10.3339,6.13879 46.57715,-4.62797 13.43497,11.23069 z"
       style="fill:#501616;fill-opacity:1;stroke-width:0.888935"
       id="path76" />
    <path
       d="m 367.20362,919.3717 c -21.16111,-36.6926 40.80548,-30.53325 0,0 z"
       style="fill:#501616;fill-opacity:1;stroke-width:0.888935"
       id="path78" />
    <path
       d="m 377.6819,926.857 c 0.89849,4.34502 19.68933,-55.5152 24.72553,-18.25913 0.0469,11.58919 -14.57654,19.32222 -24.72553,18.25913 z"
       style="fill:#501616;fill-opacity:1;stroke-width:0.888935"
       id="path80" />
    <path
       d="m 105.98442,1401.6811 c -30.111771,-55.7255 50.33353,-98.9554 27.97342,-155.7244 -23.75422,-46.987 -33.78977,-97.919 -6.00709,-145.3316 11.0771,-59.7222 -16.30251,-119.39509 -0.95939,-178.83596 8.063,-69.09506 -6.13009,-138.83722 7.68769,-207.40707 -3.00455,-81.903 57.60707,-146.08702 71.41534,-224.33648 -2.20289,-44.37724 81.25017,-116.44182 91.79394,-44.81963 -3.56896,32.26162 22.46702,78.45522 16.29941,93.01201 51.20321,21.77258 -73.92858,114.97824 -20.30827,56.81121 20.83692,-23.80546 14.36152,-41.49253 -1.67474,-6.08817 -36.04384,43.99979 -37.03802,68.69441 -68.68273,109.01526 -31.28985,47.04511 -33.57558,106.4458 -13.70135,158.58308 15.2293,40.67638 -6.18023,95.14812 13.29462,113.49718 -1.60004,55.79197 12.10463,110.55727 13.798,164.91137 -17.02447,52.3277 -18.00458,107.5727 -9.28032,161.5096 13.73849,37.5239 -50.14,101.7242 -53.76624,32.9036 -15.66221,-62.2501 42.15513,-114.5498 42.57653,-177.3602 7.26782,-22.4598 1.13819,-69.8316 -14.75717,-24.1028 -8.50364,67.4403 -28.33117,132.3096 -49.42386,196.805 -10.87519,20.5838 -27.44828,85.523 -46.27779,76.958 z m 33.25804,-66.6991 c 32.68099,-43.5851 16.95504,-105.452 26.6494,-156.9008 11.12202,-149.0465 -11.74096,-299.41894 10.68387,-447.63135 17.65163,-58.58152 45.7603,-113.841 69.69241,-170.14994 16.865,-26.82638 27.31243,-62.28728 2.30683,-17.10979 -24.35218,46.87085 -40.09717,98.4245 -65.24755,145.51867 -37.51501,105.96726 -21.72469,220.78234 -21.9905,330.93921 0.19639,93.6585 -0.33324,188.1008 -13.71997,280.8822 6.59216,8.7613 -29.11363,46.9606 -8.37449,34.4518 z m 34.55759,-111.4101 c 7.37541,-87.9609 17.33877,-176.1906 21.93824,-264.49201 -3.42813,-31.49255 11.27639,-112.69874 -5.61003,-118.88839 1.78081,94.19368 -3.9999,188.0955 -14.49109,281.6483 1.64311,27.4266 -14.91601,93.4522 -1.83712,101.7321 z m -9.69649,-505.5014 c -6.65447,-39.49061 -0.79323,-89.28099 24.79879,-125.43576 12.66218,-47.83772 70.90887,-99.0768 80.12431,-131.08711 -33.88605,45.72529 -72.68505,88.61752 -91.96487,143.32199 -14.19507,30.48986 -39.93487,89.90139 -12.95823,113.20088 z"
       style="fill:#ff00ff;fill-opacity:1;stroke-width:0.888935"
       id="path82" />
    <path
       d="m 886.85197,1018.2111 c -25.73081,-56.6281 -6.12578,-119.3606 -2.55995,-178.29132 -0.22897,42.88683 -6.77441,91.50258 2.13411,130.78179 14.81041,-36.57357 9.76778,-104.97614 26.69202,-114.72053 3.9779,-50.52268 9.02967,-101.32059 2.02609,-150.34032 C 915.0149,676.28237 898.40258,608.80256 894.03674,565.85625 880.61932,502.52331 809.46341,482.00701 773.6828,434.15933 722.84482,391.34458 649.112,395.8932 587.97801,407.55925 c -50.82597,19.10769 -103.30347,31.34511 -156.7143,39.02929 -42.14425,14.65373 -74.64875,46.42602 -107.11672,75.70078 -28.59721,-42.79571 -13.53959,-118.88621 49.07627,-113.71112 98.61084,-34.35938 204.39956,-78.8883 310.05363,-48.6899 66.17232,13.32394 127.87097,50.53892 163.48086,108.828 29.86628,6.73884 -55.43271,-72.37252 -8.10634,-31.61705 51.18102,52.02562 56.88854,130.22004 79.01117,196.4324 28.10143,70.2271 24.21697,149.13203 14.13128,222.70737 -3.86375,26.61395 -26.02441,94.26591 -20.56383,102.7145 C 944.51371,865.76724 956.44108,763.008 937.56082,665.56937 903.4126,583.20804 904.27672,479.47785 831.74791,417.74513 784.6903,376.70756 722.37987,363.43575 668.05668,336.54797 c -50.92415,-5.24468 -101.71256,10.90355 -153.10943,4.84834 -59.75177,-3.13813 -126.42072,-4.09865 -172.8952,40.2176 -21.80449,20.77567 44.58328,-30.49736 61.90426,-28.3811 43.01027,-8.98512 96.72742,-6.02238 134.86858,-3.46691 -63.06411,16.45706 -123.34377,41.46833 -186.52391,57.41209 -24.38409,2.63877 -53.47701,59.04751 -52.04084,2.80295 12.53094,-60.99915 81.46829,-75.735 131.70129,-93.45144 53.02998,-20.02135 109.25364,-29.3585 165.33393,-17.20398 53.77128,-0.39695 108.6415,0.9393 154.54196,33.40117 47.49366,22.483 89.46254,58.37915 125.30665,97.41819 45.65333,33.76763 38.3458,94.21163 73.98495,134.38713 26.7736,49.70723 29.73805,110.59473 20.68444,165.93121 -1.55352,49.1541 -26.78273,97.85977 -12.32683,146.6942 -21.71724,47.47488 -19.00163,114.96687 -69.74341,142.99888 l -2.89117,-1.9452 z"
       style="fill:#ff00ff;fill-opacity:1;stroke-width:0.888935"
       id="path84" />
    <path
       d="m 851.18688,639.07531 c -31.56232,-33.70766 -77.98615,-48.91796 -120.20542,-62.8196 -67.94322,-0.25561 -135.26313,-14.19592 -203.08776,-6.51573 -57.23934,6.1973 -115.06342,-19.98515 -170.18865,3.50586 -40.07083,9.11798 22.1635,-50.05643 47.21595,-41.15513 48.16303,-17.23028 97.6982,-29.79776 149.49608,-25.2021 73.41618,3.19434 155.41422,-15.5568 219.40146,30.65446 36.30198,13.723 98.10593,92.08689 77.36834,101.53228 z"
       style="fill:#800080;fill-opacity:1;stroke-width:1.25714"
       id="path86" />
    <path
       d="m 211.87433,749.80504 c 28.77891,-46.5022 52.94921,-97.7272 95.50087,-133.93824 24.17058,-19.22191 -16.23893,51.77307 -31.67737,62.73956 -24.73166,19.03098 -39.02732,58.15353 -63.8235,71.19868 z"
       style="fill:#800080;fill-opacity:1;stroke-width:1.25714"
       id="path88" />
    <path
       d="m 265.89113,1423.4284 c -38.67894,-70.6992 12.02673,-148.6971 -9.38699,-222.3235 -16.68084,-60.4537 25.01631,31.5925 40.88436,45.7597 24.89644,50.9814 -4.9667,117.024 -16.83661,170.8001 -2.35241,5.16 -11.06225,23.8145 -14.66076,5.7637 z m 13.64651,-55.631 c 3.69521,-29.5418 17.19897,-91.1153 8.36693,-104.9916 -9.58447,23.7733 -17.26388,104.8632 -8.36693,104.9916 z"
       style="fill:#800080;fill-opacity:1;stroke-width:1.25714"
       id="path90" />
    <path
       d="m 330.5591,1399.7471 c -5.40753,-34.7621 -4.65074,-82.7817 5.34338,-117.4889 73.72472,-1.2387 -4.94086,100.1886 -5.34338,117.4889 z m 8.69735,-57.2993 c 14.59452,-17.861 17.99764,-58.0512 0.83761,-14.9698 0.0191,3.6538 -12.70699,22.7325 -0.83761,14.9698 z"
       style="fill:#800080;fill-opacity:1;stroke-width:1.25714"
       id="path92" />
    <path
       d="m 900.7347,1160.5165 c -19.97559,-26.9387 -9.70556,-106.0025 -21.85093,-120.4324 -10.91272,27.8927 3.18438,104.5659 3.45212,90.7416 -25.83001,-22.9845 -17.02374,-99.5467 0.21955,-104.5547 37.60875,-7.3531 55.84804,-55.66799 64.98173,-90.60892 3.62413,-26.50467 26.1736,-73.84685 19.91192,-18.41789 -2.95211,34.31809 -17.42914,118.16691 -49.07283,109.76471 -19.1198,-31.47085 -2.53331,47.874 -5.17154,61.259 14.69087,20.8805 4.92409,63.6294 -12.47002,72.2486 z"
       style="fill:#800080;fill-opacity:1;stroke-width:1.25714"
       id="path94" />
    <path
       d="M 892.51762,673.1016 C 879.74817,651.68237 885.36301,578.1263 864.60004,601.58013 836.48627,550.31679 791.70357,511.43619 747.47,474.5032 697.29866,442.56755 633.94736,453.95044 577.70242,457.11337 c -74.11399,10.67957 -149.66042,31.86967 -211.6805,74.68298 52.37192,-24.97459 113.52843,-52.47415 174.45485,-62.25602 65.98219,-9.13099 139.56838,-21.77042 200.8863,11.71529 -32.34117,-5.54523 -109.17611,-5.01415 -113.16188,13.70786 55.40378,-21.15563 122.64663,-10.43543 163.71651,33.94784 23.07825,15.34662 58.7165,63.39891 16.40725,21.92116 -39.19349,-35.10017 -90.73136,-56.12856 -143.83075,-50.31662 -93.9509,-2.1532 -192.79915,-8.75665 -279.83437,33.92126 -37.27482,31.19153 -82.7495,-0.5149 -33.87104,-33.52926 43.95191,-40.01872 100.40287,-57.78002 158.6307,-62.96535 53.56211,-13.50164 104.02265,-40.22509 161.50119,-29.53741 56.30069,-8.79056 96.5888,35.08572 133.98733,69.61271 51.98261,28.4919 87.13433,78.2589 89.53238,139.10478 -1.00083,14.52439 12.83493,54.70076 -1.92277,55.97901 z"
       style="fill:#800080;fill-opacity:1;stroke-width:1.25714"
       id="path96" />
    <path
       d="m 907.82381,807.57036 c -1.83335,-40.4314 -6.28039,-90.94643 -19.62519,-123.75986 34.97933,23.82187 22.15775,87.16422 19.62519,123.75986 z"
       style="fill:#800080;fill-opacity:1;stroke-width:0.628572"
       id="path98" />
    <path
       d="m 889.66056,909.77842 c 6.10368,-52.59829 -6.2366,-108.92534 8.1209,-159.33926 1.76051,35.70825 2.37015,95.43999 -2.6082,139.77707 -0.85862,4.50375 -6.58879,41.73698 -5.5127,19.56219 z"
       style="fill:#800080;fill-opacity:1;stroke-width:0.628572"
       id="path100" />
    <path
       d="m 611.71083,864.18672 c 42.15943,-39.20241 102.16945,-49.69612 154.02608,-71.38891 28.28928,-23.66559 96.32494,2.63258 42.57257,28.70724 -58.09514,6.20892 -117.77342,13.96891 -173.10574,34.03662 -2.81825,-0.72573 -26.29823,15.08948 -23.49291,8.64505 z"
       style="fill:#ffff00;fill-opacity:1;stroke-width:0.628572"
       id="path129" />
    <path
       d="M 465.10904,884.61927 C 412.5733,869.75234 359.63087,852.00588 304.11438,859.19629 c -67.93507,10.0401 -17.20633,-61.46724 25.07031,-31.75567 51.41439,14.98597 116.24263,14.11586 152.51052,58.30424 l -4.46404,0.13237 z"
       style="fill:#ffff00;fill-opacity:1;stroke-width:0.628572"
       id="path131" />
    <path
       d="m 833.15826,795.39586 c -15.30374,-25.87998 89.98711,-95.60983 36.15697,-33.48194 -30.80783,26.81935 29.89915,-7.72762 -11.70299,21.4897 -7.04908,6.15654 -13.46277,15.36193 -24.45398,11.99224 z"
       style="fill:#ffff00;fill-opacity:1;stroke-width:0.628572"
       id="path133" />
    <path
       d="m 234.87911,821.75421 c -13.18982,-19.59762 -21.12065,-49.50541 1.59081,-13.1942 4.66062,3.03954 10.29974,19.41265 -1.59081,13.1942 z"
       style="fill:#ffff00;fill-opacity:1;stroke-width:0.628572"
       id="path135" />
    <path
       d="m 247.10326,854.31526 c -30.29812,-57.97941 36.16379,5.704 0,0 z"
       style="fill:#ffff00;fill-opacity:1;stroke-width:0.628572"
       id="path137" />
  </g>
  <g
     inkscape:groupmode="layer"
     id="layer1"
     inkscape:label="Image 1">
    <g
       id="g1509"
       transform="matrix(3.7795276,0,0,3.0712889,97.654994,124.81505)">
      <g
         transform="matrix(0.52900596,0,0,0.64883731,-178.24319,-96.795445)"
         id="g1173">
        <path
           d="m 555.37909,729.37125 c -31.57943,-11.62212 -66.81022,-9.07973 -97.6538,-23.82419 -27.29446,-11.34553 -51.6042,-28.3742 -78.15393,-41.22205 -26.56379,-19.62801 -53.83025,-38.23536 -77.26445,-61.72782 -33.42961,-21.72717 9.06995,-58.03647 28.73959,-27.90789 22.07071,23.61842 49.96445,41.74199 76.34622,59.88922 31.02934,11.15738 59.37278,29.50246 92.54757,34.585 43.90846,6.86698 90.7162,9.90114 133.38042,-4.56789 15.49006,-11.27048 38.74841,-36.87715 46.81433,-44.59315 -32.57918,-7.05253 -18.3665,-41.483 -32.14715,-58.6865 -5.51943,-18.91569 -12.33939,-33.57792 -6.565,-52.76919 9.72159,-18.24653 39.93119,4.4083 27.65228,-25.16618 -4.58612,-92.57526 -14.11994,-185.02494 -13.95544,-277.97338 -0.65317,-36.70585 -1.07611,-74.92188 12.70323,-109.542335 23.64667,-27.675384 38.84525,26.472975 41.99329,42.637525 7.60285,95.23186 4.03877,191.67536 1.43538,287.35013 7.1081,4.19279 -8.93374,38.8205 0.76671,52.08397 -8.31165,23.09005 -5.51888,39.36747 19.3364,46.20738 20.99267,14.31491 -2.59041,35.16383 9.22251,53.63115 -17.32025,12.89445 18.4782,35.23123 -11.43192,46.71107 -15.78041,15.45906 -13.72627,51.41891 -41.23011,61.78923 -21.38673,25.11116 -55.83885,29.95084 -85.64514,39.73732 -15.09456,4.7572 -31.29517,3.4921 -46.89099,3.35858 z M 577.11926,724 c 18.05004,-6.36509 42.8048,-59.77363 5.94718,-45.70582 -23.21763,-2.73965 -21.05202,31.19083 -38.32347,42.11596 9.82131,3.62969 22.56683,8.68002 32.37629,3.58986 z m 30.59788,-2.90677 c 24.30593,2.39317 41.90531,-53.20955 23.2987,-52.50503 -35.97607,-1.07081 -23.12224,43.23548 -51.54595,57.56463 9.58623,-0.55291 19.02675,-2.39433 28.24725,-5.0596 z M 541.29947,717.75 c 24.72326,-13.95033 32.9095,-49.81398 -4.80199,-39.71625 -9.19913,7.05559 -27.09307,41.22286 -25.28063,37.35797 9.88413,0.61747 20.34982,4.93333 30.08262,2.35828 z m 90.52977,-3.27402 c 26.57313,-5.12267 50.01783,-19.64577 38.108,-50.47598 1.37036,-26.38141 -8.37191,-31.15305 -22.1703,-8.62946 -12.77144,11.45618 -0.23352,32.77344 -12.18057,45.91572 -0.66517,3.42153 -18.14132,20.01593 -3.75713,13.18972 z M 517.46705,701.12079 c 16.16275,-14.25188 12.89621,-28.97433 -10.65618,-26.50283 -22.32883,-10.55192 -23.54455,21.09671 -40.48172,28.30653 16.19157,5.90331 39.49583,19.17588 51.1379,-1.8037 z m -50.36053,-1.75438 c 21.31527,-12.15798 26.83976,-34.63172 -2.94633,-35.34489 -7.91987,1.13443 -30.70493,30.43794 -30.03125,25.77188 10.30676,2.97813 22.20179,15.93132 32.97758,9.57301 z m 213.28314,-8.50952 c 32.19564,-11.48638 15.28289,-40.60135 9.84669,-66.13142 -35.30784,-5.80056 -8.96453,43.95992 -15.52139,64.99168 -6.55272,15.73839 -3.01853,8.9781 5.6747,1.13974 z M 438.69947,680.82762 c 40.22248,-14.74824 -16.26013,-49.92958 -29.59988,-21.419 -37.11257,8.7125 13.35962,19.65583 24.01562,24.3151 z M 708.923,663.46144 c 12.95114,-14.3921 11.05001,-56.49917 -13.80318,-43.73203 4.53873,5.09478 5.06302,69.65194 13.80318,43.73203 z m -310.13414,-1.67987 c 27.47946,-7.76634 19.44126,-22.28848 -3.39922,-27.74881 -13.11922,-5.18532 -45.47414,13.75004 -16.97359,23.10932 5.46838,5.70116 12.93288,10.36169 20.37281,4.63949 z m -26.32803,-24.02411 c 30.81728,-3.22326 -10.60189,-39.52914 -22.80372,-31.39983 -11.65853,11.38736 -33.07401,10.35941 -9.37449,23.20023 9.03729,8.55489 19.90818,15.97595 32.17821,8.1996 z m 358.30601,-17.05914 c 25.61939,-26.40284 -18.75388,-34.42997 -38.14049,-32.40246 -14.88396,-7.22242 -49.95228,-19.60073 -31.84108,8.93554 12.21596,27.39789 48.63231,12.1331 65.71926,25.37708 z m -45.44672,-2.50519 c -3.5607,1.04954 -1.78691,2.91198 0,0 z M 340.27055,611.45641 C 367.78106,599.24363 323.93954,579.84136 314.09543,569 c -39.77414,-10.52347 -11.22462,37.62632 8.45808,43.34911 5.62363,2.34943 12.40386,2.28724 17.71704,-0.8927 z m 394.08198,-26.87449 c 8.9746,-23.68671 -15.94189,-35.03333 -36.06363,-41.9927 -21.74938,-24.0683 -78.71983,-2.01671 -38.74315,16.48344 -0.3124,24.31733 36.04887,22.80142 54.56661,27.6947 6.76743,-0.29422 13.68261,-0.23141 20.24017,-2.18544 z m 2.54589,-33.53226 c 1.05081,-36.09197 -49.1038,-40.61173 -76.32418,-46.5992 -30.29399,-8.46952 -19.13098,41.33481 -3.86212,23.97536 28.71765,-5.7876 56.06773,23.32384 80.18628,22.62384 z M 705.51643,510.2 c -3.95674,-16.82244 8.05645,-34.56708 -17.53794,-34.78296 -23.31528,-26.39256 -15.28452,17.50343 -9.97245,27.66091 9.40845,-0.21206 19.74875,6.01215 27.51039,7.12205 z m 0.36015,-48.7 c 1.32641,-17.37076 7.00465,-33.27148 -16.27729,-29.58322 -14.53154,-4.42509 -26.0186,-20.47763 -18.89095,5.22698 -10.36116,19.39261 41.7147,60.90373 35.16824,24.35624 z m 0.20268,-32.01536 c 3.79444,-20.40277 8.63679,-45.48583 -20.11018,-40.59079 -18.17809,-17.74801 -22.53967,-14.55727 -17.9084,8.90036 -3.43759,21.52864 20.07586,33.14326 38.01858,31.69043 z m 2.35694,-45.42395 c 1.47742,-19.58297 8.3214,-41.5946 -19.88617,-36.43473 -14.97842,-4.47775 -30.64266,-25.66856 -24.14392,1.78683 -3.65246,19.24329 15.31345,31.61913 30.61216,37.24851 3.52855,-1.30612 12.45697,3.06925 13.41793,-2.60061 z m 1.38216,-64.39402 c 11.95341,-36.52957 -31.86601,-27.21355 -49.09786,-46.87809 1.89548,18.00737 -2.72492,39.21695 5.06534,54.68616 7.86425,8.69828 47.84097,33.39319 44.03252,7.82593 0,-5.21133 0,-10.42267 0,-15.634 z m 0,-52.05417 c 1.69094,-14.85606 0.97696,-26.5551 -17.69848,-24.72639 -17.80882,-5.60869 -40.62196,-37.45817 -32.54995,-0.58036 -9.94398,29.75654 33.89883,48.60049 50.02194,42.16551 0.23515,-5.61674 0.21398,-11.23874 0.22649,-16.85876 z m 0.14821,-47.14983 c 7.95363,-26.13697 -8.1646,-32.20725 -30.34459,-35.41301 -13.34813,-7.40604 -25.14972,-18.19004 -20.53032,5.70034 -13.10694,28.16784 53.27387,71.29396 50.79174,34.03643 z M 708.6548,179.25 c 1.39528,-23.88238 -2.16552,-43.29446 -29.00772,-44.26802 -23.07889,-24.66179 -19.43261,13.53471 -20.5914,29.95323 6.83234,8.18318 51.41223,35.81076 49.59912,14.31479 z m -4.85915,-43.53466 c 3.01511,-27.72251 -38.81357,-68.736796 -38.54259,-18.71858 6.21002,10.95497 28.57565,21.60719 38.54259,18.71858 z m 195.3076,79.9071 c 2.75586,-4.59971 3.07379,-0.82332 0,0 z M 872.43129,83.622445 c 2.75584,-4.599694 3.07379,-0.82335 0,0 z"
           style="fill:#000000;stroke-width:0.92757"
           id="path125" />
        <path
           transform="translate(289.95004,80.994338)"
           id="path137-4"
           d="m 66.729093,558.87504 c -3.811452,-1.21051 -7.66478,-3.45489 -11.982775,-6.97941 -2.307623,-1.88357 -5.704222,-4.36245 -7.547996,-5.50862 -3.598662,-2.23708 -6.116913,-4.39797 -6.979355,-5.98891 -0.930115,-1.71578 0.744289,-3.25975 7.228975,-6.66581 3.393627,-1.7825 7.771721,-4.44213 9.729096,-5.91029 4.594821,-3.44642 6.212995,-3.88654 10.372017,-2.82105 11.222576,2.87509 24.731309,14.84604 25.47387,22.57402 0.365145,3.80014 -0.628645,5.32777 -4.5384,6.97634 -1.777065,0.74931 -3.966555,1.5682 -4.865534,1.81976 -0.898978,0.25155 -3.105562,1.08417 -4.903519,1.85026 -3.681097,1.56847 -8.311049,1.82098 -11.986379,0.65371 z"
           style="opacity:1;fill:#28170b;fill-opacity:1;stroke-width:0.544835" />
        <path
           transform="translate(289.95004,80.994338)"
           id="path982-1"
           d="m 242.1661,637.19452 c -0.89898,-0.0998 -5.81767,-0.85523 -10.93042,-1.6788 l -9.29591,-1.4974 2.15368,-3.81795 c 9.57721,-16.97811 19.24717,-30.92431 22.63635,-32.64658 0.78622,-0.39952 3.04321,-1.00275 5.01555,-1.34049 9.77822,-1.67443 16.69535,0.3553 19.07613,5.59762 3.65103,8.03935 -2.33193,21.4573 -13.5437,30.37436 -2.31823,1.84376 -4.9505,3.65053 -5.84948,4.01503 -1.82763,0.74104 -6.76658,1.27119 -9.2622,0.99421 z"
           style="opacity:1;fill:#28170b;fill-opacity:1;stroke-width:0.544835" />
        <path
           transform="translate(289.95004,80.994338)"
           id="path984-7"
           d="m 423.69109,505.34215 c -0.11325,-0.11325 -6.06513,-1.18181 -13.2264,-2.37456 -15.41836,-2.56804 -22.32087,-4.24922 -27.75549,-6.76017 -7.2124,-3.33234 -11.98616,-9.13173 -12.62688,-15.33975 l -0.29834,-2.89068 -4.1507,-2.41171 c -6.69518,-3.89017 -10.23227,-8.5806 -9.47157,-12.55997 0.74773,-3.91148 7.08103,-8.37677 14.85796,-10.47559 5.47071,-1.47642 15.9116,-1.36292 21.50187,0.23375 5.28504,1.50949 9.92853,3.92132 13.29402,6.90491 1.71843,1.52343 4.09213,2.81932 7.42886,4.05569 24.33424,9.01665 35.13742,20.7195 32.1874,34.86791 -0.46349,2.22292 -1.05796,4.25692 -1.32106,4.52001 -1.03848,1.03848 -19.58569,3.06414 -20.41967,2.23016 z"
           style="opacity:1;fill:#28170b;fill-opacity:1;stroke-width:0.544835" />
        <path
           transform="translate(289.95004,80.994338)"
           id="path986-1"
           d="m 407.24749,305.23283 c -2.88351,-0.2675 -4.94979,-0.90409 -8.44495,-2.60179 -16.46085,-7.99552 -24.81513,-18.56754 -24.4468,-30.93648 0.0714,-2.39727 -0.20644,-6.4877 -0.61739,-9.08985 -0.59606,-3.77427 -0.61205,-5.02774 -0.0791,-6.19754 0.58303,-1.27962 0.90254,-1.42833 2.50876,-1.16768 1.01235,0.16428 4.61998,2.042 8.01696,4.17271 9.87621,6.19473 12.57594,7.37773 16.19858,7.09807 12.17629,-0.94 16.82056,1.27908 18.83099,8.99765 1.06945,4.10592 1.02815,8.1087 -0.20191,19.56779 -0.81193,7.56381 -1.16761,9.34586 -1.98458,9.94324 -1.03813,0.75911 -3.35671,0.80981 -9.78061,0.21388 z"
           style="opacity:1;fill:#28170b;fill-opacity:1;stroke-width:0.544835" />
        <path
           transform="translate(289.95004,80.994338)"
           id="path988-1"
           d="m 403.7098,104.3979 c -8.95789,-2.99544 -24.86452,-12.122351 -31.76198,-18.224392 l -2.61328,-2.311915 0.32982,-9.602243 c 0.579,-16.856928 1.73258,-23.411801 4.63014,-26.309361 2.7953,-2.795297 6.56065,-1.749022 12.17638,3.383443 2.86684,2.620122 3.31225,2.831425 6.92458,3.285006 5.30573,0.666211 7.87994,1.413999 11.53313,3.350287 5.61725,2.977284 9.97567,8.908433 12.14665,16.529717 1.22781,4.310268 1.82188,25.558348 0.7846,28.062578 -1.45059,3.50204 -7.01156,4.22394 -14.15004,1.83688 z"
           style="opacity:1;fill:#28170b;fill-opacity:1;stroke-width:0.544835" />
        <path
           transform="translate(289.95004,80.994338)"
           id="path990-0"
           d="m 129.65758,597.82161 c -14.00259,-4.78317 -18.51956,-6.74304 -21.42966,-9.29814 -3.79867,-3.33528 -1.93043,-5.8592 6.24987,-8.44335 3.84831,-1.21568 4.60909,-1.70288 7.81465,-5.00448 1.95321,-2.01172 3.5513,-3.83833 3.5513,-4.05912 0,-0.75532 6.19001,-2.71847 9.49866,-3.01248 7.10839,-0.63165 15.89434,2.55354 21.59066,7.82732 3.95514,3.66177 5.59884,6.59182 5.61349,10.00658 0.013,3.02383 -1.9818,6.7347 -4.7588,8.85283 -2.20928,1.6851 -14.09364,7.47622 -15.14996,7.38241 -0.39677,-0.0352 -6.23787,-1.94845 -12.98021,-4.25157 z"
           style="opacity:1;fill:#784421;fill-opacity:1;stroke-width:0.544835" />
        <path
           transform="translate(289.95004,80.994338)"
           id="path992-4"
           d="m 336.69504,634.02545 c 0,-0.44105 1.54562,-2.83152 3.43471,-5.31214 10.63694,-13.9677 11.02123,-15.04904 11.76821,-33.11409 0.52345,-12.6592 1.21393,-15.46219 4.85143,-19.69422 1.12115,-1.30439 2.74827,-3.47491 3.61584,-4.82338 2.37647,-3.69374 7.68066,-8.98415 10.10254,-10.07626 1.82446,-0.82272 2.39624,-0.86573 3.79686,-0.28557 3.47372,1.43886 5.44649,7.65848 5.46295,17.22319 0.007,3.984 0.29771,6.33709 1.05559,8.5399 2.46357,7.1605 2.65793,14.81505 0.53298,20.99131 -1.3593,3.95086 -2.8579,6.30262 -6.45939,10.13674 -5.92625,6.30905 -14.73452,10.89898 -27.26501,14.20761 -3.74574,0.98905 -7.50064,2.07065 -8.34421,2.40355 -2.03582,0.80341 -2.5525,0.7636 -2.5525,-0.19664 z"
           style="opacity:1;fill:#784421;fill-opacity:1;stroke-width:0.544835" />
        <path
           transform="translate(289.95004,80.994338)"
           id="path994-2"
           d="m 406.43397,204.03003 c -0.74914,-0.12593 -3.17247,-0.71375 -5.38516,-1.30626 -19.78789,-5.29875 -34.04181,-20.71908 -32.43834,-35.09277 0.20058,-1.79796 0.57848,-3.83386 0.83978,-4.52424 0.29993,-0.79242 0.17464,-2.97818 -0.33983,-5.92835 -1.3985,-8.01957 -0.95395,-12.23951 1.36695,-12.97614 1.70505,-0.54116 5.69801,1.6393 14.43561,7.88291 4.19523,2.99778 9.50395,6.43479 11.79715,7.63778 3.69879,1.94036 4.5948,2.18727 7.93743,2.18727 7.96279,0 12.81576,2.91267 14.54284,8.72836 0.76496,2.57591 0.83448,4.98062 0.51533,17.82665 l -0.36891,14.84909 -1.95653,0.54349 c -1.90954,0.53044 -8.22427,0.62979 -10.94632,0.17221 z"
           style="opacity:1;fill:#784421;fill-opacity:1;stroke-width:0.544835" />
        <path
           transform="translate(289.95004,80.994338)"
           id="path996-0"
           d="m 438.31533,468.83809 c -5.40422,-1.15788 -10.84209,-3.34303 -24.52608,-9.85557 -6.59251,-3.13753 -13.70261,-6.3848 -15.80022,-7.21615 -10.46371,-4.14711 -19.13912,-5.84806 -26.53601,-5.20282 -3.80985,0.33234 -4.6494,0.60981 -6.79075,2.24433 -3.89687,2.97456 -7.32777,2.27676 -10.14149,-2.06265 -1.91643,-2.95557 -2.75292,-6.90176 -2.45315,-11.57284 0.46173,-7.19482 4.42346,-11.72469 10.64048,-12.16644 3.34949,-0.23799 24.22708,3.66517 38.78191,7.25045 27.22109,6.70537 41.20973,16.81961 44.43857,32.13056 0.44236,2.09762 0.80854,4.61067 0.81375,5.58456 0.009,1.72836 -0.0459,1.76966 -2.3061,1.7263 -1.27355,-0.0244 -4.02796,-0.41131 -6.12091,-0.85973 z"
           style="opacity:1;fill:#784421;fill-opacity:1;stroke-width:0.544835" />
        <path
           transform="translate(289.95004,80.994338)"
           id="path998-2"
           d="M 37.307981,532.38632 C 30.344311,530.98857 24.386727,527.3682 18.07125,520.69634 11.092786,513.32407 6.4174387,505.47257 4.8811542,498.54566 c -1.6101168,-7.2598 1.7826399,-11.50355 9.2713218,-11.59682 6.400097,-0.0797 8.347819,0.53118 12.678701,3.97658 2.166329,1.72341 7.723024,5.81432 12.348213,9.09092 9.624171,6.818 16.885534,13.39534 18.523203,16.77832 2.766309,5.71443 0.330039,9.78667 -8.175677,13.6657 -2.747252,1.25289 -7.892743,2.57464 -9.432914,2.42309 -0.333673,-0.0328 -1.587383,-0.25654 -2.786021,-0.49713 z"
           style="opacity:1;fill:#a05a2c;fill-opacity:1;stroke-width:0.544835" />
        <path
           transform="translate(289.95004,80.994338)"
           id="path1000-1"
           d="m 269.9527,644.05281 c -3.49879,-0.84898 -13.8933,-4.38282 -13.8933,-4.72333 0,-0.17122 0.96649,-1.13859 2.14775,-2.14971 3.21554,-2.75238 6.70779,-8.39636 11.1737,-18.05828 7.96195,-17.22552 11.92838,-21.26621 21.24498,-21.64269 2.11446,-0.0854 4.82517,-0.50843 6.02381,-0.93997 7.15288,-2.57522 13.23491,-0.96742 14.70498,3.88731 1.20736,3.98716 -0.20965,11.32503 -3.58033,18.5405 -5.07031,10.85379 -12.63738,19.70837 -19.91749,23.3064 -3.99008,1.97201 -4.49971,2.08418 -9.96495,2.19344 -3.16789,0.0633 -6.74051,-0.12281 -7.93915,-0.41367 z"
           style="opacity:1;fill:#a05a2c;fill-opacity:1;stroke-width:0.544835" />
        <path
           transform="translate(289.95004,80.994338)"
           id="path1002-0"
           d="m 433.31112,539.40954 c -4.19353,-2.35995 -10.07646,-3.63482 -21.08484,-4.56922 -22.91208,-1.94479 -29.20905,-3.90544 -35.95102,-11.19386 -2.83966,-3.06981 -7.83828,-11.50417 -9.33933,-15.75859 -2.15512,-6.10827 0.14076,-9.26936 6.7323,-9.26936 3.9972,0 14.22477,2.77221 21.87207,5.92847 l 6.75721,2.7889 h 6.19161 c 16.09871,0 31.2883,4.54198 37.01222,11.06735 3.99586,4.55537 3.65098,9.65022 -1.10244,16.28614 -2.56489,3.58067 -6.1238,6.50863 -7.72656,6.35675 -0.29966,-0.0284 -1.81221,-0.76485 -3.36122,-1.63658 z"
           style="opacity:1;fill:#a05a2c;fill-opacity:1;stroke-width:0.544835" />
        <path
           transform="translate(289.95004,80.994338)"
           id="path1004-7"
           d="m 405.24823,393.74172 c -5.21593,-1.91775 -12.49652,-7.69547 -17.45502,-13.85194 -6.2393,-7.7467 -9.24234,-16.32138 -7.53157,-21.50507 0.5591,-1.6941 0.47868,-2.92282 -0.51935,-7.93506 -1.25179,-6.28664 -1.02324,-8.1989 0.97992,-8.1989 0.52075,0 3.63812,1.49778 6.92748,3.3284 8.91399,4.96089 10.16446,5.36055 16.43266,5.25205 4.52578,-0.0784 5.73077,0.0926 7.83589,1.11189 4.98545,2.41383 5.96255,6.5168 4.62474,19.41992 -0.55127,5.31697 -0.75488,10.08391 -0.52873,12.37895 0.44836,4.55015 -0.44819,8.22834 -2.37508,9.74403 -1.60581,1.26313 -5.34136,1.37698 -8.39094,0.25573 z"
           style="opacity:1;fill:#a05a2c;fill-opacity:1;stroke-width:0.544835" />
        <path
           transform="translate(289.95004,80.994338)"
           id="path1006-5"
           d="M 406.2862,54.557081 C 396.23329,52.866182 382.59993,45.198697 377.37207,38.2956 l -2.09255,-2.763101 0.61359,-5.699062 c 0.76115,-7.069483 1.72067,-10.376734 3.87234,-13.34702 3.23267,-4.462575 7.47366,-4.854378 13.56584,-1.253276 10.46362,6.185083 20.18554,23.306811 20.18554,35.549712 v 3.658589 l -1.70261,0.340523 c -1.90829,0.381659 -1.92628,0.380927 -5.52802,-0.224884 z"
           style="opacity:1;fill:#a05a2c;fill-opacity:1;stroke-width:0.544835" />
        <path
           transform="translate(289.95004,80.994338)"
           id="path1008-5"
           d="m 198.85168,629.73124 c -2.5471,-0.67662 -8.38599,-2.679 -12.97529,-4.44973 l -8.3442,-3.21951 1.53375,-1.06727 c 3.41533,-2.37658 7.81362,-7.55673 12.80025,-15.07565 2.89336,-4.36267 6.28939,-8.86152 7.54673,-9.99745 4.60519,-4.16051 8.80886,-5.0292 14.71265,-3.04036 2.20198,0.7418 3.92851,0.9879 5.34333,0.76166 2.96824,-0.47464 9.73017,0.67094 12.61774,2.13764 3.40601,1.73003 4.90352,4.12222 4.90352,7.83307 0,4.05653 -1.96836,7.98499 -6.45134,12.87558 -1.99546,2.17689 -4.42197,5.1125 -5.39224,6.52356 -2.0482,2.97867 -5.6495,5.70047 -9.29452,7.02462 -3.76927,1.36929 -11.19677,1.23553 -17.00038,-0.30616 z"
           style="opacity:1;fill:#c87137;fill-opacity:1;stroke-width:0.544835" />
        <path
           transform="translate(289.95004,80.994338)"
           id="path1010-3"
           d="m 198.85168,629.73124 c -2.5471,-0.67662 -8.38599,-2.679 -12.97529,-4.44973 l -8.3442,-3.21951 1.53375,-1.06727 c 3.41533,-2.37658 7.81362,-7.55673 12.80025,-15.07565 2.89336,-4.36267 6.28939,-8.86152 7.54673,-9.99745 4.60519,-4.16051 8.80886,-5.0292 14.71265,-3.04036 2.20198,0.7418 3.92851,0.9879 5.34333,0.76166 2.96824,-0.47464 9.73017,0.67094 12.61774,2.13764 3.40601,1.73003 4.90352,4.12222 4.90352,7.83307 0,4.05653 -1.96836,7.98499 -6.45134,12.87558 -1.99546,2.17689 -4.42197,5.1125 -5.39224,6.52356 -2.0482,2.97867 -5.6495,5.70047 -9.29452,7.02462 -3.76927,1.36929 -11.19677,1.23553 -17.00038,-0.30616 z"
           style="opacity:1;fill:#c87137;fill-opacity:1;stroke-width:0.544835" />
        <path
           transform="translate(289.95004,80.994338)"
           id="path1012-1"
           d="m 96.655852,581.77061 c -1.519852,-0.70772 -4.041089,-2.42155 -5.60275,-3.80853 -1.561661,-1.38697 -3.102062,-2.52177 -3.423116,-2.52177 -0.321053,0 -1.845218,-0.62994 -3.387035,-1.39986 -5.552566,-2.77274 -7.846953,-6.415 -6.337144,-10.06 0.866301,-2.09144 6.174976,-6.9619 8.073606,-7.40716 0.799384,-0.18747 2.556718,-0.9096 3.905185,-1.60474 5.478901,-2.82437 10.448652,-3.10772 17.689422,-1.00855 8.59961,2.49312 15.40898,6.63193 17.47073,10.61893 1.56261,3.02175 1.06099,4.84715 -2.28114,8.301 -3.13873,3.24364 -6.03604,5.00481 -10.81318,6.57295 -1.49829,0.49182 -3.93031,1.50643 -5.40448,2.25468 -3.37267,1.71187 -6.30897,1.73059 -9.890098,0.0631 z"
           style="opacity:1;fill:#c87137;fill-opacity:1;stroke-width:0.544835" />
        <path
           transform="translate(289.95004,80.994338)"
           id="path1014-4"
           d="m 404.27642,157.28504 c -8.30681,-2.00681 -20.63159,-10.45275 -27.332,-18.73013 -7.80357,-9.64017 -10.6563,-18.46771 -8.39559,-25.97946 0.6607,-2.19533 0.69275,-3.55061 0.18613,-7.8687 -0.50519,-4.30578 -0.47807,-5.489998 0.15529,-6.782624 1.78801,-3.649143 3.9608,-3.292889 13.3426,2.187674 6.22713,3.63771 7.57284,4.20392 11.66991,4.91019 16.22658,2.79719 24.54413,7.8749 27.05663,16.51758 1.04005,3.57764 0.748,11.26285 -0.59209,15.58065 -0.47938,1.54459 -0.84935,4.72946 -0.85442,7.35527 -0.0112,5.82831 -0.74112,8.47494 -2.94497,10.67878 -2.83848,2.83848 -6.63662,3.49691 -12.29149,2.13077 z"
           style="opacity:1;fill:#c87137;fill-opacity:1;stroke-width:0.544835" />
        <path
           transform="translate(289.95004,80.994338)"
           id="path1016-7"
           d="m 406.43384,426.17824 c -8.58608,-2.93595 -14.02214,-4.36087 -16.68475,-4.37347 -1.66176,-0.008 -1.7412,-0.12693 -3.3674,-5.04778 -3.48208,-10.53667 -4.78771,-24.18996 -2.68247,-28.05113 1.9166,-3.51517 5.28256,-2.70608 10.87299,2.6136 2.98621,2.84158 3.56706,3.1603 6.34847,3.48352 7.87836,0.91554 11.81286,3.32475 13.04458,7.98759 0.61394,2.32417 1.19796,26.09066 0.64111,26.08955 -0.14991,-2.9e-4 -3.82755,-1.21614 -8.17253,-2.70188 z"
           style="opacity:1;fill:#c87137;fill-opacity:1;stroke-width:0.544835" />
        <path
           transform="translate(289.95004,80.994338)"
           id="path1018-1"
           d="m 382.19812,616.30296 c 0.21715,-0.74914 0.98738,-2.83314 1.71163,-4.6311 2.90739,-7.21767 2.87664,-14.03832 -0.14677,-32.54929 -1.84021,-11.2668 -2.29887,-22.55141 -1.08614,-26.72303 1.74837,-6.01418 5.70789,-8.71296 12.71286,-8.665 4.34446,0.0297 5.05108,0.2622 5.05108,1.66168 0,0.52097 1.45532,6.08426 3.23404,12.36285 4.67304,16.49505 5.63453,21.61874 5.36336,28.58086 -0.18478,4.74414 -0.47183,6.26734 -1.67727,8.90037 -2.02407,4.42115 -4.4287,7.26528 -7.42731,8.78479 -1.40682,0.71289 -2.91022,1.7227 -3.34089,2.24401 -0.43066,0.52132 -2.13149,1.53829 -3.77962,2.25995 -1.93708,0.84816 -4.41323,2.69526 -7.00319,5.22405 -3.05044,2.97838 -3.91238,3.5869 -3.61178,2.54986 z"
           style="opacity:1;fill:#c87137;fill-opacity:1;stroke-width:0.544835" />
        <path
           transform="translate(289.95004,80.994338)"
           id="path1020-3"
           d="m 164.66519,618.50393 c -1.57215,-0.5658 -5.7634,-2.64789 -9.31388,-4.62686 -3.55048,-1.97898 -7.1677,-3.85913 -8.03825,-4.17813 l -1.58283,-0.57998 10.07945,-10.23674 c 14.96098,-15.19443 16.17531,-16.00299 22.80692,-15.18596 10.77567,1.32759 16.36372,6.01908 15.76525,13.23585 -0.59567,7.18306 -8.62202,16.62888 -18.25534,21.48383 -2.90513,1.46411 -7.53877,1.49968 -11.46132,0.088 z"
           style="opacity:1;fill:#d38d5f;fill-opacity:1;stroke-width:0.544835" />
        <path
           transform="translate(289.95004,80.994338)"
           id="path1022-5"
           d="m 294.66181,642.1992 c 6.50145,-4.78609 10.30231,-11.03167 16.43144,-27.00018 4.77393,-12.43772 6.93022,-16.53244 10.71512,-20.34765 4.80209,-4.84053 9.99145,-6.84221 17.80154,-6.86653 4.11566,-0.0128 4.34445,0.0542 6.06638,1.7761 3.64283,3.64283 3.73896,11.88617 0.2602,22.31252 -2.90089,8.69439 -7.05047,15.57378 -12.61973,20.92166 -4.40223,4.22724 -8.10376,6.11863 -13.14678,6.7177 -2.14845,0.25521 -6.48061,1.0963 -9.62704,1.86909 -5.62536,1.38163 -15.37964,3.04298 -17.9033,3.04928 -1.04779,0.003 -0.67347,-0.44756 2.02217,-2.43199 z"
           style="opacity:1;fill:#d38d5f;fill-opacity:1;stroke-width:0.544835" />
        <path
           transform="translate(289.95004,80.994338)"
           id="path1024-7"
           d="m 413.84925,586.45305 c -1.27279,-2.46132 -2.36678,-8.78056 -4.41466,-25.50066 -1.06102,-8.66274 -2.29709,-17.19678 -2.74683,-18.96451 -0.44974,-1.76774 -0.75212,-3.27317 -0.67196,-3.34541 0.0802,-0.0722 1.31891,-0.52602 2.75277,-1.00841 9.89408,-3.32863 16.72147,3.49613 17.6541,17.64734 0.54255,8.23213 -1.87118,18.51505 -5.6646,24.1322 -1.0538,1.56043 -2.48775,4.12432 -3.18655,5.69754 -1.42903,3.21719 -2.54456,3.61934 -3.72227,1.34191 z"
           style="opacity:1;fill:#d38d5f;fill-opacity:1;stroke-width:0.544835" />
        <path
           transform="translate(289.95004,80.994338)"
           id="path1026-9"
           d="m 404.79947,347.42866 c -12.82483,-2.65932 -22.67417,-10.24806 -25.60144,-19.72547 -0.74216,-2.4028 -1.0955,-5.07759 -1.0955,-8.29285 0,-2.61034 -0.2728,-6.20086 -0.60623,-7.97894 -0.33343,-1.77807 -0.63739,-5.08629 -0.67548,-7.35159 -0.16249,-9.66598 4.71898,-9.37858 15.44743,0.90947 l 2.9966,2.87359 5.99319,-0.0943 c 5.25611,-0.0827 6.34789,0.0647 8.87727,1.19859 3.61398,1.62005 6.22883,4.63048 7.48163,8.61346 1.35239,4.29961 1.17302,14.06728 -0.42803,23.30802 l -1.22718,7.08286 -3.81041,0.0957 c -2.09573,0.0527 -5.40407,-0.23472 -7.35185,-0.6386 z"
           style="opacity:1;fill:#d38d5f;fill-opacity:1;stroke-width:0.544835" />
        <path
           transform="translate(289.95004,80.994338)"
           id="path1028-4"
           d="m 407.25123,264.57869 c -7.4349,-1.86423 -22.84036,-10.58359 -28.98972,-16.40793 -2.39262,-2.26616 -2.96615,-3.23902 -4.16255,-7.0608 -2.07119,-6.61617 -2.52402,-11.82212 -2.67221,-30.72128 l -0.13466,-17.17421 3.41017,2.58177 c 4.58651,3.47236 9.44111,5.70781 21.10742,9.71959 12.06151,4.14767 16.96635,6.48486 20.42633,9.7333 3.87574,3.63876 5.18436,6.83617 5.15124,12.58618 -0.016,2.77733 -0.41184,5.91505 -0.9889,7.83867 -0.79989,2.66639 -0.94226,5.01047 -0.84383,13.8933 0.12707,11.46696 -0.12979,12.89892 -2.60465,14.52051 -1.8784,1.23077 -5.93003,1.43585 -9.69864,0.4909 z"
           style="opacity:1;fill:#d38d5f;fill-opacity:1;stroke-width:0.544835" />
      </g>
      <path
         style="fill:#000000;fill-opacity:1;stroke-width:0.264583"
         id="path1470"
         d="m -11.609059,268.04212 c 1.293032,-0.85762 2.506396,-1.83266 3.6919572,-2.8321 0.555318,-0.51543 1.119474,-1.06349 1.8275246,-1.36685 0.110412,-0.0473 0.2261865,-0.081 0.3392797,-0.12143 0.7407019,-0.33152 1.4781289,-0.69618 2.1547148,-1.14779 0.3972494,-0.26516 0.6202744,-0.44671 0.9894031,-0.732 0.7560316,-0.76688 1.76792008,-1.12713 2.70018222,-1.6205 0.46755184,-0.23565 0.97845558,-0.3585 1.46604068,-0.54131 0.2316629,-0.0869 0.4557964,-0.19304 0.6877342,-0.27916 0.6571326,-0.24401 0.8799991,-0.29227 1.5595851,-0.48481 0.7009757,-0.27014 1.4385316,-0.41378 2.1622559,-0.60417 0.2143202,-0.0564 0.4253952,-0.12474 0.6400073,-0.18 0.5355828,-0.13791 0.6847175,-0.15729 1.2178561,-0.25776 0.1889456,-0.0197 0.3769783,-0.0526 0.5668365,-0.059 1.6948246,-0.0574 0.1881563,-0.01 0.8803655,0.0589 0.2472254,0.0246 0.4960149,0.0302 0.7435861,0.051 0.727983,0.0612 0.753049,0.0741 1.453153,0.17211 0.200117,0.0446 0.403037,0.0782 0.600352,0.13395 0.150334,0.0425 1.030563,0.35764 1.188616,0.41218 0.405137,0.13978 0.804601,0.29618 1.212458,0.42781 0.211374,0.0682 0.427922,0.11922 0.641884,0.17883 0.591771,0.1552 1.209562,0.28431 1.710605,0.65832 0.284481,0.21236 0.578525,0.52251 0.826113,0.76681 0.459967,0.48827 0.859562,1.02823 1.269773,1.55765 0.292821,0.37792 0.49315,0.6506 0.670806,1.08916 0.0088,0.0601 0.02728,0.1195 0.02649,0.1802 -0.0026,0.20035 -0.214436,0.61838 -0.267104,0.77307 -0.12956,0.38055 -0.235467,0.7902 -0.34186,1.17615 -0.149859,0.69813 -0.356254,1.38464 -0.596857,2.05671 -0.07802,0.21794 -0.143729,0.44223 -0.249843,0.64797 -0.230292,0.44645 -0.689356,1.01676 -0.983472,1.40689 -0.727048,0.84894 -1.599483,1.55115 -2.395926,2.33021 -0.447962,0.43821 -0.432482,0.43723 -0.838563,0.89734 -0.384793,0.44698 -0.794146,0.87818 -1.255223,1.24817 -1.338086,1.07368 -0.0067,-0.0933 -1.483366,1.12728 -0.271881,0.22474 -0.529577,0.46609 -0.794365,0.69916 -0.2406,0.22363 -0.4866468,0.44157 -0.7218013,0.67093 -0.2723134,0.26559 -0.8914099,0.93226 -1.1883837,1.20997 -0.5478809,0.51231 -1.1710554,0.95197 -1.7543542,1.42232 -0.5478224,0.48133 -1.1799604,0.90916 -1.6152625,1.50487 -0.1306941,0.17886 -0.2115756,0.33613 -0.315392,0.52443 -0.014666,0.0254 -0.024172,0.0548 -0.043998,0.0765 -0.00815,0.009 -0.024164,0.004 -0.034892,0.01 -0.035157,0.0183 -0.067628,0.0414 -0.1019095,0.0614 -0.2410164,0.14009 -0.4820605,0.27821 -0.7288186,0.40793 -0.4652412,0.14478 -0.8983298,0.37148 -1.3479316,0.55735 -0.2218542,0.13657 -0.4220274,0.27437 -0.6198011,0.44336 -0.049863,0.0426 -0.091494,0.0965 -0.1482256,0.12941 -0.025705,0.0148 0.034067,-0.0487 0.0511,-0.0731 -0.1037703,0.0737 0.938276,1.5412 1.0420464,1.46752 v 0 c 0.090575,-0.0586 0.1833943,-0.11385 0.2717257,-0.17579 0.1192284,-0.0836 0.2282278,-0.21244 0.3804476,-0.23535 0.5371867,-0.1969 1.0801252,-0.38613 1.5927633,-0.64148 0.5079355,-0.31494 0.9585764,-0.68607 1.3137505,-1.17158 0.1268513,-0.1515 0.2446858,-0.24206 0.4091762,-0.35869 0.4957506,-0.35148 0.9992069,-0.69231 1.4798395,-1.06469 2.5058799,-2.06216 -1.1880768,0.98963 1.2332742,-1.04954 0.197858,-0.16664 0.4080232,-0.31835 0.6048247,-0.48623 0.664527,-0.56684 1.276443,-1.19454 1.95592,-1.74464 0.220307,-0.19322 1.323162,-1.15787 1.528902,-1.34971 0.320693,-0.29906 0.863085,-0.84649 1.17522,-1.19113 0.133783,-0.14772 0.255306,-0.3062 0.388463,-0.4545 0.110856,-0.12346 0.228876,-0.24027 0.343313,-0.36042 0.434292,-0.41418 0.893657,-0.78369 1.36489,-1.15562 0.237194,-0.18719 0.486229,-0.3601 0.712989,-0.55983 0.734046,-0.64651 0.868612,-0.86286 1.509382,-1.6187 0.198327,-0.30871 0.415787,-0.60594 0.594982,-0.92612 0.673119,-1.20277 1.03416,-2.53939 1.29056,-3.88345 0.101473,-0.52596 0.220666,-1.04465 0.342038,-1.56627 0.08381,-0.36017 0.15469,-0.57055 0.156105,-0.95048 6.61e-4,-0.17841 -0.03217,-0.35536 -0.04826,-0.53304 -0.05432,-0.1847 -0.0926,-0.37489 -0.162961,-0.55409 -0.236748,-0.60301 -0.631492,-1.1452 -1.013718,-1.66127 -0.160008,-0.21604 -0.316979,-0.43484 -0.490021,-0.64059 -0.176128,-0.20942 -0.370924,-0.4024 -0.556387,-0.6036 -0.950104,-0.83473 -1.940604,-1.61673 -3.196105,-1.92245 -0.396075,-0.10958 -0.798742,-0.19662 -1.189892,-0.32267 -0.373194,-0.12025 -0.758966,-0.32039 -1.119544,-0.46329 -0.621397,-0.24627 -0.83252,-0.29828 -1.470596,-0.49607 -0.262974,-0.0521 -0.523975,-0.11531 -0.788924,-0.15614 -0.265674,-0.0409 -0.534136,-0.0612 -0.801512,-0.0889 -1.2336668,-0.12799 -2.4729699,-0.15105 -3.6953089,0.0918 -1.2260331,0.24502 -0.094693,0.01 -1.3047244,0.28851 -0.9921528,0.22872 -1.9998698,0.40024 -2.9652319,0.73376 -0.2954926,0.10592 -0.5952672,0.20057 -0.8864779,0.31774 -0.7419818,0.29855 -0.6740726,0.32948 -1.33558822,0.6141 -0.76560608,0.32941 -0.29829786,0.0901 -1.08005506,0.40134 -0.19511105,0.0777 -0.384513,0.169 -0.57676952,0.25351 -0.3464103,0.17453 -0.7815412,0.38789 -1.115066,0.58099 -0.6259277,0.3624 -1.184742,0.81654 -1.7689605,1.23961 -0.2861537,0.20034 -0.5605266,0.4185 -0.8576675,0.60215 -0.1537202,0.095 -0.3177513,0.17222 -0.4765693,0.25843 -0.4926105,0.26742 -0.9758307,0.5491 -1.4638843,0.82458 -0.4187134,0.19884 -0.8423015,0.39344 -1.2348749,0.64203 -0.4890874,0.30971 -0.9337998,0.68309 -1.3991863,1.02562 -1.2665983,0.96979 -2.6329063,1.85821 -3.6352603,3.11935 -0.08181,0.10546 1.409792,1.26248 1.491605,1.15699 z" />
      <path
         style="fill:#000000;fill-opacity:1;stroke-width:0.264583"
         id="path1472"
         d="m -11.02513,267.78267 c 0.102691,-0.0335 0.206507,-0.0637 0.308075,-0.10041 0.05517,-0.0198 0.729922,-0.28382 0.7862494,-0.31202 0.1376206,-0.0689 0.2647037,-0.15711 0.3967855,-0.23614 0.065055,-0.0389 0.2700785,-0.11039 0.1946212,-0.11766 -0.2900262,-0.0279 -0.581697,0.0349 -0.8725451,0.0523 -0.172321,-0.33761 -0.277797,-0.71877 -0.516962,-1.01283 -0.0508,-0.0625 -0.147505,0.0682 -0.210655,0.11816 -0.126198,0.0998 -0.23526,0.21958 -0.353858,0.3283 -0.408756,0.37476 -0.814769,0.74096 -1.204168,1.13633 -0.482934,0.56621 -1.001398,1.09956 -1.456335,1.68921 -0.604297,0.84431 -0.352426,0.76176 1.391028,1.24076 0.102326,0.0281 0.153576,-0.14674 0.224905,-0.22532 0.09294,-0.10237 0.178326,-0.21137 0.26749,-0.31705 0.543188,-0.694 1.067351,-1.40388 1.560599,-2.13431 0.124191,-0.20225 0.257054,-0.39042 0.325451,-0.62233 0.06663,-0.22593 0.155489,-0.83764 -0.0897,-0.99324 -1.044063,-0.6626 -1.099331,-0.49046 -1.757872,-0.0949 -0.480145,0.42296 -0.978936,0.85807 -1.415121,1.32676 -0.201277,0.21627 -0.623639,0.73628 -0.82246,0.97808 -0.712164,0.95747 -1.066806,1.11223 1.200373,1.76726 0.220609,0.0637 0.379311,-0.259 0.565973,-0.39275 1.265328,-0.90662 -0.008,-0.0383 1.418756,-0.99232 0.78282,-0.57483 1.5772105,-1.13932 2.3154031,-1.77207 0.3176227,-0.27226 0.5647795,-0.48538 0.7857458,-0.83624 0.063642,-0.10108 0.098587,-0.21757 0.1478806,-0.32634 0.00837,-0.24805 0.1020096,-0.50819 0.025101,-0.74414 -0.1554903,-0.47707 -0.4242607,-0.5596 -0.805907,-0.67151 -0.023371,-0.007 0.042801,0.0236 0.062388,0.038 0.068366,0.0505 0.1701438,0.0776 0.2011728,0.15673 0.1142645,0.29143 0.145588,0.60888 0.218382,0.91334 0.026241,-0.005 0.056171,-0.003 0.078722,-0.0161 0.2819681,-0.18061 0.4814218,-0.46167 0.7289739,-0.679 0.2690077,-0.23614 0.3818263,-0.25919 0.7152492,-0.41865 0.1930008,-0.0872 0.3855236,-0.1755 0.5790025,-0.26165 0.6340711,-0.28234 0.8242771,-0.34782 1.4703494,-0.68309 0.7286805,-0.37815 1.4124106,-0.82211 2.0989052,-1.27003 0.275746,-0.16721 0.5472774,-0.34897 0.8461852,-0.47501 0.1688106,-0.0712 0.573085,-0.18104 0.74013529,-0.23133 0.52580425,-0.15827 0.44936938,-0.13859 1.01735494,-0.33328 0.43610143,-0.20147 0.67676011,-0.29619 1.07892527,-0.54097 0.4597978,-0.27985 0.3786562,-0.29751 0.8423015,-0.53289 0.1891023,-0.096 0.7256394,-0.30116 0.9058659,-0.37209 0.187204,-0.0666 0.3707426,-0.14451 0.5616125,-0.1997 0.1970241,-0.057 0.4006138,-0.0882 0.6000271,-0.13614 0.197567,-0.0475 1.0147262,-0.26105 1.240754,-0.3066 0.2018027,-0.0407 0.8629274,-0.1275 1.0517502,-0.1533 0.4517512,-0.0216 0.9184113,-0.1521 1.373868,-0.11116 0.044465,0.004 -0.1699615,0.024 -0.1280277,0.0393 0.1425279,0.0521 0.2993134,0.0502 0.4485304,0.0777 0.1641735,0.0303 0.3277264,0.0639 0.4915898,0.0958 0.1680062,0.0409 0.6192274,0.14521 0.7867515,0.20778 0.1624769,0.0607 0.4359621,0.2325 0.5762715,0.3157 0.4328051,0.25664 0.2049741,0.13005 0.6546191,0.36435 0.907225,0.37387 1.901601,0.44414 2.867414,0.551 0.398714,0.0405 0.794295,0.10225 1.192918,0.14314 0.08795,0.009 0.17555,0.0268 0.263954,0.0259 0.02571,-0.036 0.0088,-0.0299 0.0471,-0.0261 0.342467,0.20776 0.637106,0.48516 0.986828,0.68295 0.125089,0.0707 0.256652,0.12937 0.384978,0.19406 0.643105,0.25663 1.349087,0.25689 1.975841,0.55367 0.259989,0.15954 0.531665,0.36466 0.601422,0.6826 0.03682,0.16782 0.02478,0.34272 0.0385,0.51398 0.02696,0.35411 0.05975,0.72312 -0.01422,1.0744 -0.009,0.0429 -0.132735,0.46222 -0.137185,0.47744 -0.102328,0.25394 -0.09917,0.53874 -0.19196,0.79478 -0.06083,0.16785 -0.236773,0.39042 -0.329933,0.54049 -0.09165,0.11171 -0.18678,0.22066 -0.274941,0.33515 -0.112717,0.14636 -0.211507,0.30331 -0.327469,0.44712 -0.278846,0.34581 -0.472636,0.51331 -0.784187,0.83605 -0.511161,0.52957 -0.400279,0.41627 -0.866264,0.96369 -0.558356,0.63413 -1.036257,1.33284 -1.480801,2.04944 -0.05842,0.10803 -0.11027,0.2199 -0.175264,0.32409 -0.164644,0.26397 -0.302185,0.3982 -0.525191,0.63053 -0.50911,0.53041 -1.054017,1.02433 -1.586233,1.53117 -0.731777,0.68204 -1.53884,1.28463 -2.238698,2.00107 -0.185303,0.18968 -0.4832987,0.53715 -0.6668893,0.74824 -0.5296247,0.60878 -1.0522424,1.23732 -1.6447566,1.78774 -0.1715186,0.1593 -0.3521311,0.30855 -0.5281967,0.46286 -0.8040873,0.70202 -1.6293148,1.39044 -2.3161742,2.21263 -0.2347838,0.28104 -0.4452537,0.58168 -0.676757,0.86542 -0.1344983,0.0881 -0.2558447,0.36677 -0.4114816,0.43381 -0.017727,0.008 0.018947,-0.0371 0.014841,-0.0559 -0.00607,-0.0279 -0.079485,-0.0566 -0.093399,-0.0636 -0.6072833,0.1416 -1.1353526,0.49614 -1.5997357,0.89947 -0.032705,0.0148 -0.2377702,0.19714 -0.094446,0.0212 -0.1145857,0.0548 0.6601502,1.67526 0.774736,1.62049 v 0 c 0.2363578,-0.10345 0.464467,-0.20947 0.6660379,-0.37436 0.2561016,-0.18076 0.539309,-0.3798 0.8476099,-0.44553 0.2321978,-0.0532 0.3146727,-0.0569 0.5311765,-0.1697 0.3572155,-0.18608 0.6668677,-0.46572 0.9818147,-0.71046 0.9972257,-0.99343 2.020615,-1.95736 3.0353278,-2.93288 0.3011254,-0.3333 0.6108311,-0.65894 0.9062138,-0.99735 0.3932165,-0.4505 0.7405865,-0.94091 1.1604785,-1.36829 0.998288,-0.8913 2.111372,-1.64854 3.061615,-2.59683 0.876385,-0.89982 1.721871,-1.79761 2.255269,-2.95198 0.423514,-0.6358 0.965846,-1.1761 1.480192,-1.73808 0.862323,-0.90916 1.76389,-1.80967 2.293688,-2.9651 0.287012,-0.54031 0.510377,-1.09937 0.649822,-1.69659 0.07625,-0.27292 0.1325,-0.4459 0.176951,-0.73187 0.0697,-0.44842 0.03949,-0.90384 0.05617,-1.35517 -0.0071,-0.15301 -0.0012,-0.3072 -0.02142,-0.45904 -0.127599,-0.95685 -0.574474,-1.64874 -1.383219,-2.16925 -0.385835,-0.20782 -0.758915,-0.39304 -1.188487,-0.49569 -0.111492,-0.0266 -0.226486,-0.0357 -0.339336,-0.0558 -0.466154,-0.0831 -0.217126,-0.068 -0.584568,-0.0702 -0.320048,-0.0626 -0.384324,-0.1594 -0.661359,-0.31995 -0.0488,-0.0283 -0.108308,-0.0358 -0.155492,-0.0667 -0.720758,-0.47205 0.100795,-0.002 -0.393789,-0.27817 -0.200178,-0.13172 -0.323367,-0.22769 -0.549883,-0.31556 -0.06195,-0.024 -0.130142,-0.0271 -0.194497,-0.0436 -0.407238,-0.10459 -0.812349,-0.21818 -1.225033,-0.30117 -0.205219,-0.0315 -0.409066,-0.0738 -0.615656,-0.0945 -0.591694,-0.0592 -1.222805,-0.045 -1.819633,-0.0579 -0.318327,-0.16613 -0.58861,-0.38853 -0.892706,-0.57863 -0.461274,-0.28836 -0.943403,-0.49444 -1.4683721,-0.63912 -0.1701884,-0.0346 -0.9235945,-0.19178 -1.0851808,-0.2081 -0.8841433,-0.0893 -1.7636763,-0.0774 -2.6430287,0.0464 -1.3287701,0.19217 -2.6452441,0.40834 -3.8628505,1.01316 -0.1803544,0.086 -0.3631875,0.16691 -0.5410633,0.25789 -0.73696368,0.37696 -0.2713657,0.16102 -0.91863183,0.52982 -0.28447533,0.16208 -0.50762434,0.25514 -0.8110222,0.39362 -0.15857093,0.0724 -0.31724608,0.14452 -0.47586913,0.21678 -0.97031874,0.39732 -2.00518224,0.63585 -2.92080914,1.16418 -0.9202441,0.52132 -1.8455401,1.03465 -2.7776365,1.53453 -0.2351662,0.12612 -0.476822,0.24025 -0.7087434,0.37224 -0.2169744,0.12349 -0.4247485,0.26248 -0.6371227,0.39372 -0.1811433,0.13799 -0.3701804,0.26618 -0.5434301,0.41395 -0.4672422,0.39853 -0.9191106,0.93156 -1.2420256,1.45309 0.042451,0.35703 0.018539,0.7284 0.1273532,1.07109 0.0048,0.0151 0.4092276,0.35864 0.5183341,0.30046 0.059646,-0.0318 -0.1238411,-0.0651 -0.1637146,-0.11965 -0.1053076,-0.14417 -0.2328585,-0.29016 -0.2640775,-0.46593 -0.034089,-0.19193 0.052261,-0.38634 0.078392,-0.57951 -0.1509419,-0.0551 -0.040151,-0.0306 -0.3193071,0.14285 -0.179184,0.11136 -0.3595801,0.22084 -0.5365021,0.33578 -0.825314,0.5361 -1.607473,1.12929 -2.37134,1.74961 -0.675044,0.56742 -0.763009,0.6128 -1.34128,1.19422 -0.117402,0.11803 -0.410821,0.21725 -0.338519,0.36722 0.960483,1.9922 1.041924,1.60536 1.79759,0.74961 0.130403,-0.15486 0.260806,-0.30969 0.39121,-0.46452 0.111473,-0.14455 0.217968,-0.29308 0.334419,-0.43363 0.337824,-0.40778 0.722877,-0.77346 1.077647,-1.16583 -0.06734,-0.42276 0.08011,0.45008 -1.086609,-0.45117 -0.315241,-0.24352 0.08893,-0.73782 -0.149418,-0.40463 -0.0537,0.0751 -0.112512,0.14632 -0.168767,0.21947 -0.549775,0.67845 -1.071941,1.37988 -1.556833,2.10593 -0.06509,0.096 -0.130693,0.19164 -0.19526,0.288 -0.05004,0.0747 -0.213972,0.1634 -0.14856,0.22505 1.226806,1.15642 1.085786,1.38168 1.61686,0.86077 0.534763,-0.48834 1.047611,-0.99917 1.556086,-1.51487 0.522391,-0.52112 1.1030545,-1.00161 1.5386298,-1.60258 0.1042594,-0.14386 0.2923649,-0.27078 0.2881202,-0.44837 -0.010999,-0.46021 -0.220586,-0.89389 -0.3308792,-1.34082 -0.3460504,0.003 -0.6934878,-0.0241 -1.0381518,0.007 -0.06858,0.006 -0.530102,0.21948 -0.586663,0.24461 -0.379533,0.1687 -0.760526,0.33557 -1.106923,0.56825 -0.104468,0.0779 0.997334,1.5553 1.101802,1.47738 z" />
      <path
         style="fill:#550000;fill-opacity:1;stroke-width:0.264583"
         id="path1474"
         d="m 12.866139,257.31962 c -0.09341,-0.10831 -0.179205,-0.22368 -0.28022,-0.32493 -0.233584,-0.23412 -0.514755,-0.46256 -0.790277,-0.64782 -0.06747,-0.0454 -0.149536,-0.16898 -0.213238,-0.11845 -1.524242,1.2091 -1.6195986,0.87056 -1.008357,1.62402 1.0446,0.95707 2.315532,1.6031 3.577105,2.2229 0.02543,-0.006 0.07256,0.008 0.07628,-0.0176 0.06516,-0.45315 0.2188,-0.92025 0.122968,-1.36792 -0.03097,-0.14466 -0.287162,-0.08 -0.434839,-0.089 -0.732311,-0.0444 -1.479392,0.0684 -2.199974,0.18051 -0.141227,0.0378 -0.289134,0.0561 -0.423679,0.1133 -0.671343,0.28527 -0.07585,1.58097 0.144245,1.84428 0.231942,0.27748 0.72387,0.03 1.084923,0.009 0.457818,-0.0264 1.04588,-0.18348 1.489274,-0.28684 0.219612,-0.0602 0.439224,-0.12048 0.658836,-0.18072 0.132099,-0.0654 -0.792662,-1.93355 -0.92476,-1.86816 v 0 c -0.216558,0.0502 -0.433115,0.10041 -0.649673,0.15062 -0.221103,0.0549 -0.442503,0.10859 -0.66331,0.16466 -0.188977,0.048 -0.397496,0.0494 -0.566021,0.14749 -0.04828,0.0281 0.127498,0.0508 0.129238,0.10664 0.01733,0.5559 -0.06746,1.11074 -0.07396,1.66687 -3.7e-4,0.0326 0.02142,0.0761 0.05354,0.082 0.141135,0.0258 0.28692,0.004 0.430379,0.007 0.703218,-0.0375 1.408191,-0.0846 2.101191,-0.21912 0.204761,-0.0397 0.486914,0.022 0.608045,-0.14779 0.828535,-1.16146 0.771463,-1.1005 0.36812,-1.70661 -1.022713,-0.91537 -2.272381,-1.51005 -3.472249,-2.15648 -0.891976,-0.47752 -0.628526,-0.5098 -1.841208,0.96487 -0.07014,0.0853 0.134788,0.17626 0.215542,0.25159 0.30744,0.28678 0.68733,0.47537 1.016899,0.73255 0.08036,0.10361 1.545545,-1.0329 1.465181,-1.13651 z" />
      <path
         style="fill:#550000;fill-opacity:1;stroke-width:0.505076"
         d="m 3.9834975,1062.5108 c -5.540666,-6.4351 -14.2336895,-17.392 -15.8797895,-20.0153 -4.787243,-7.6293 -7.148298,-10.8787 -10.365397,-14.2655 -5.318702,-5.5992 -9.796455,-8.5748 -17.507539,-11.6344 -1.167794,-0.4634 -0.997736,-0.6661 3.68732,-4.3959 4.98142,-3.9658 6.875546,-6.2359 6.87896,-8.2444 0.0025,-1.4585 2.2189,-3.0389 7.578032,-5.40333 2.361232,-1.04177 6.716394,-3.37081 9.678139,-5.17564 3.0311624,-1.84714 7.3297782,-3.94731 9.8341973,-4.80469 2.44706428,-0.83774 5.9332113,-2.39778 7.7469927,-3.46675 5.258436,-3.0991 10.103703,-4.62525 18.355685,-5.78163 3.698174,-0.51824 4.979991,-0.50256 7.576144,0.0927 4.031903,0.92447 10.2069,4.05192 11.027406,5.58504 0.615102,1.14934 0.772499,1.17758 4.448773,0.79822 6.914862,-0.71357 9.148916,-0.427 12.087404,1.55046 1.628699,1.09603 3.771066,1.98937 5.66388,2.36176 1.674383,0.32941 3.766834,1.08582 4.649884,1.68091 2.224669,1.4992 2.683046,4.70214 1.394232,9.74225 -1.026289,4.0135 -2.099809,5.6195 -7.982927,11.9424 -2.031801,2.1837 -5.161284,6.1954 -6.954405,8.9148 -2.45358,3.7212 -4.605942,6.1676 -8.699278,9.8879 -7.045915,6.4038 -31.955559,31.3695 -31.955559,32.0275 0,0.2779 -0.379368,0.5053 -0.843043,0.5053 -0.463675,0 -2.04513,0.6784 -3.514346,1.5076 l -2.671303,1.5076 z"
         id="path1476"
         transform="scale(0.26458333)" />
    </g>
  </g>
</svg>
