<?xml version="1.0" encoding="UTF-8" standalone="no"?>
<svg
   xmlns:dc="http://purl.org/dc/elements/1.1/"
   xmlns:cc="http://creativecommons.org/ns#"
   xmlns:rdf="http://www.w3.org/1999/02/22-rdf-syntax-ns#"
   xmlns:svg="http://www.w3.org/2000/svg"
   xmlns="http://www.w3.org/2000/svg"
   xmlns:sodipodi="http://sodipodi.sourceforge.net/DTD/sodipodi-0.dtd"
   xmlns:inkscape="http://www.inkscape.org/namespaces/inkscape"
   version="1.1"
   id="svg808"
   width="1100.1436"
   height="1638.9607"
   viewBox="0 0 1100.1436 1638.9607"
   sodipodi:docname="villager5.svg"
   inkscape:version="0.92.2 5c3e80d, 2017-08-06">
  <metadata
     id="metadata814">
    <rdf:RDF>
      <cc:Work
         rdf:about="">
        <dc:format>image/svg+xml</dc:format>
        <dc:type
           rdf:resource="http://purl.org/dc/dcmitype/StillImage" />
        <dc:title></dc:title>
      </cc:Work>
    </rdf:RDF>
  </metadata>
  <defs
     id="defs812" />
  <sodipodi:namedview
     fit-margin-bottom="0"
     fit-margin-right="0"
     fit-margin-left="0"
     fit-margin-top="0"
     inkscape:document-rotation="0"
     pagecolor="#ffffff"
     bordercolor="#666666"
     borderopacity="1"
     objecttolerance="10"
     gridtolerance="10"
     guidetolerance="10"
     inkscape:pageopacity="0"
     inkscape:pageshadow="2"
     inkscape:window-width="1280"
     inkscape:window-height="700"
     id="namedview810"
     showgrid="false"
     inkscape:zoom="0.59003613"
     inkscape:cx="400.62166"
     inkscape:cy="998.21442"
     inkscape:window-x="0"
     inkscape:window-y="1"
     inkscape:window-maximized="1"
     inkscape:current-layer="g816"
     inkscape:pagecheckerboard="true" />
  <g
     transform="translate(-157.07955,-600.27687)"
     inkscape:groupmode="layer"
     inkscape:label="Image"
     id="g816">
    <path
       id="path820"
       style="fill:#000000;stroke-width:1.33333"
       d="m 833.07932,2236.2703 c -56.18637,-9.9652 -113.06932,-28.636 -172.69315,-17.1503 -57.45733,-8.7733 -113.30384,-6.0508 -170.98594,1.7513 -41.76194,3.4488 -77.2709,-3.767 -34.46301,-12.6323 20.17643,-5.0168 127.62324,-154.4318 72.19695,-92.284 -18.50839,33.1772 -51.07926,45.5281 -9.92331,6.9794 30.88159,-58.7453 22.21807,-129.6045 19.81257,-193.621 -3.53101,-54.3768 -76.20444,-62.5526 -108.70139,-104.6901 -43.1868,-23.1943 -47.2412,-74.7542 -63.80075,-34.0201 -18.32544,-39.5663 -12.81031,23.9722 -42.85896,-20.1706 -36.86814,-20.6999 -46.71571,-33.8387 -50.42402,-65.1283 -15.09005,-60.8341 -6.64196,39.4834 -22.11083,-6.7636 1.07264,-32.3661 -33.49605,-127.2799 -22.5287,-43.056 -14.70162,59.1734 -19.21152,-80.9412 -18.15461,-103.8591 5.39572,-57.557 -18.6706,-95.0012 -18.77373,-150.7459 -10.40815,-43.6274 0.41778,-95.3518 -4.95472,-131.132 0.41537,-66.1545 10.69196,-131.277 26.66614,-195.6518 -1.17799,-31.697 -17.64269,73.2579 -29.58413,92.0887 -4.12056,36.3386 -37.33426,58.7657 -19.48775,4.6935 15.60247,-68.5008 36.08322,-135.7777 54.60862,-203.41883 -19.35971,5.03407 31.15881,-52.15982 3.55294,-40.58854 31.38412,-78.25211 92.48115,-147.67101 169.98184,-182.47203 27.01125,-29.39387 69.94309,-79.25795 91.2012,-93.41925 -35.85441,35.15963 -108.14252,113.53754 -52.21321,65.46914 -63.75654,56.72343 26.93137,6.24867 46.61345,-24.56912 34.53175,-19.75045 36.88483,-29.00289 71.37999,-45.58748 -58.93928,45.68093 101.60386,-60.07196 67.88359,-26.77413 18.95242,-3.28993 56.65718,-18.59281 20.64985,9.81007 25.00014,-16.28024 129.35071,-48.95601 52.66667,-8.68327 4.2024,18.30598 118.01478,-39.91383 109,-13.25841 -7.52801,6.75053 50.55736,-5.96903 3.99195,16.17639 -36.45884,16.95684 -57.56761,24.67486 -5.24822,7.52367 32.23062,-10.91091 113.64067,-29.23416 40.43199,2.84988 -49.39493,25.79584 143.73938,-31.5603 41.39878,6.18022 -46.36687,13.50009 -38.99762,14.80631 7.26804,6.58697 15.17386,2.50278 40.95533,9.49568 50.9783,4.69428 -27.72536,10.65532 -106.47596,36.66169 -33.90211,16.6592 46.37082,-13.79462 78.71936,-15.76866 44.10923,7.2582 35.56156,-12.70288 74.92612,-7.00008 17.77609,4.54251 -30.3291,3.16089 -76.61069,29.69053 -20.03143,15.45805 32.2756,-11.42962 103.49456,-10.32659 32.59931,5.43432 -29.23599,14.01563 96.08995,-6.63346 72.29475,15.19768 -10.7948,17.53827 143.9614,8.85462 61.2303,35.11416 -103.5578,10.38541 86.1098,2.82309 54.7697,35.49857 -29.8961,3.51661 -51.6474,7.39092 -9.119,19.79263 23.1839,13.46934 -13.0307,26.84529 11.4157,48.52489 28.2417,53.72529 -65.1314,-27.51139 -17.0861,26.1081 14.7272,52.67161 77.3629,73.06397 74.0306,124.50943 25.7544,23.4369 34.3387,90.2437 3.6954,44.488 8.2423,58.1177 17.9466,114.7895 28.9849,160.8498 -27.9117,25.1687 -30.1733,95.628 -33.081,122.2066 20.5932,-8.3368 -18.465,65.8499 7.4802,53.2583 -5.5345,59.4732 -27.997,119.3412 -43.0724,178.9518 -22.5993,31.8283 -33.7823,78.2349 -53.3328,126.9213 -1.3286,35.6826 -47.0203,131.431 -29.3845,43.6726 1.6262,-65.2637 -57.3989,123.705 -31.7445,24.6859 21.5612,-75.8576 -38.2314,49.9235 -55.9038,61.4847 -57.98022,58.2734 64.2864,-55.6165 6.4514,2.3546 -37.14788,41.066 -86.43243,56.1977 -132.50849,90.0517 -6.7326,37.9322 -1.02978,81.7937 -1.49565,121.5345 11.71612,55.0399 28.02108,106.1349 59.71876,153.384 24.86371,25.8453 70.49878,52.75 6.2846,38.1884 -42.21694,-12.0532 -80.46624,21.5633 -123.5556,8.7427 z m 36.62065,-5.48 c 32.43142,-3.2832 61.18321,-21.9751 91.47088,-12.4558 -47.64352,-52.294 -76.23002,-122.8626 -83.06461,-193.0646 -6.00651,-32.2573 2.34237,-101.7465 -13.38884,-103.068 -3.93984,-9.1167 -91.83354,28.9317 -125.38516,29.7106 -38.16045,15.2639 -92.13693,0.6637 -111.2412,0.535 -16.83193,46.1756 -15.77268,15.9931 -4.37968,-13.3402 -16.63275,-25.1813 -83.79033,14.5748 -32.76796,-14.0607 -32.99133,-25.3441 -61.1089,-15.5505 -22.46812,22.9328 21.80144,21.3489 107.68946,83.5387 36.04535,45.2879 -23.95742,-14.058 -70.16565,-72.7958 -47.18257,-12.7953 4.27543,38.4305 69.87599,86.5386 72.62439,72.3185 -39.67982,-1.0745 -100.64485,-74.9015 -72.66087,-36.9043 -3.4085,39.6688 113.79864,92.0791 29.68837,59.6431 -23.76401,-13.6919 -49.37459,-72.5888 -34.43773,-13.9093 21.39543,36.8757 49.97196,86.8806 64.8749,91.388 -17.95476,-16.091 -87.78263,-22.5528 -65.78275,-43.6918 47.60527,44.3352 15.83893,-3.1945 -5.16586,-30.0439 5.12339,54.2744 -81.22271,106.4014 -75.31956,132.4749 58.91272,4.5335 116.9318,-18.2268 173.50558,0.3512 62.43555,-8.5088 121.46755,-1.1406 180.74369,12.7473 14.67532,-4.3616 28.23155,18.2424 44.29175,5.9446 z m -324.39839,-33.106 c -36.04457,6.468 -61.9446,-52.9645 -19.15545,-15.0116 16.25974,3.7093 63.8093,14.6523 19.15545,15.0116 z m 19.87819,-13.0576 c -46.94595,-1.8488 -44.46076,-89.2814 -16.16976,-19.7719 10.86101,10.1272 56.63589,18.4597 16.16976,19.7719 z m 16.58015,-9.412 c -39.55734,-0.6917 -63.12702,-83.7416 -22.56658,-27.1234 6.95306,14.8794 63.93192,25.8245 22.56658,27.1234 z M 735.7858,1939.9315 c 35.93585,-3.9219 134.84507,-20.6954 131.31016,-32.2192 -55.8463,20.4847 52.11646,-32.455 64.31595,-53.806 51.62044,-44.4012 84.44259,-103.6227 122.12839,-158.7947 32.9881,-46.2508 38.3569,-116.0243 66.5783,-152.7668 6.8805,-22.3587 27.1026,-114.2057 17.8425,-91.3693 -1.9894,37.004 -28.5137,93.8422 -12.4045,21.644 17.0307,-36.9653 42.8779,-142.2337 29.3667,-129.9183 10.7149,30.0401 15.5954,-101.3493 8.0793,-101.398 -15.4964,43.5774 -14.0086,118.0372 -36.1192,145.1489 8.1041,-68.8118 32.7286,-136.3836 32.8182,-205.5822 -9.9922,-11.8 25.1494,-89.2117 -9.342,-77.9334 -17.1231,-25.1269 -61.2984,-65.7376 -29.4591,-73.194 -26.4012,-58.00434 -63.9888,-94.08973 -120.1803,-120.41561 -48.80335,-30.44743 -65.15188,-62.86792 -82.00297,-104.62978 -32.46267,-20.93624 -62.0581,-60.52136 -101.17777,-64.62139 -59.13338,-0.32097 -118.57973,-22.00262 -177.41473,-14.25063 -28.13229,26.38629 -113.07245,21.58722 -111.52109,33.64584 34.43206,-44.49229 -98.66881,69.52844 -59.58597,46.60466 -47.71425,43.87867 -53.4131,99.23941 -101.43441,155.00536 -19.70447,34.1828 -83.63506,101.73855 -3.71367,95.36045 36.32003,9.559 79.91542,25.8658 59.32808,-28.9752 -5.69359,-34.82423 3.64862,-73.56849 28.06729,-21.5297 19.37842,29.4044 59.79322,92.132 35.40256,20.5036 13.67565,-91.77254 45.91194,38.9221 75.66303,53.5953 66.39083,45.9037 -50.03099,-2.6202 -44.18526,-45.0931 -37.95143,-81.88574 -21.60101,64.232 26.90466,56.0604 67.20256,24.7983 129.2996,87.7646 118.53151,164.2158 -12.60077,48.7303 11.61817,122.3271 -25.01717,145.5168 -31.03815,-25.0079 -54.28153,53.2895 -34.36627,39.212 -25.20801,32.1602 22.76949,81.0758 15.43694,25.7187 48.54301,-57.9198 80.40209,99.6361 115,15.6359 20.96364,-55.5658 79.78082,-36.0951 78.97236,6.2794 26.9364,6.3744 42.24998,-59.8614 11.77148,-12.5179 17.89828,-30.7862 -11.49931,0.8251 -1.90772,-40.7353 -31.43624,-6.8061 -11.95809,-62.5168 -65.18384,-41.5743 -44.90846,-55.1961 -7.44246,-143.2201 16.13275,-201.679 21.76532,-63.9515 107.89589,-79.8259 124.79738,-147.8216 -1.2654,-23.084 -38.4068,59.1649 -63.25941,67.5694 -73.47855,41.0051 59.64146,-38.2244 54.41609,-78.2977 35.35131,-74.09311 6.98588,59.8806 -6.04501,57.6504 58.10036,-14.8146 84.24455,-67.1968 110.16688,-113.57213 20.94658,25.48023 -24.83667,92.90013 -9.54242,85.33333 42.6621,12.0091 91.5396,-82.88221 99.5745,-60.9921 10.0163,47.1804 -62.9407,69.5983 2.4194,91.821 -35.023,-5.8747 -81.762,-29.3977 -127.95182,-12.0808 -27.99176,11.779 -129.51932,56.4279 -112.02733,54.2805 11.61564,0.7565 -78.85787,40.9901 -72.9064,82.3804 -9.60116,40.3701 -21.93515,90.2904 -12.27341,121.8274 -37.77581,-1.8966 14.3662,57.8159 48.16616,39.3226 56.5756,11.0611 52.49675,146.3384 -21.34018,110.9301 3.23886,-28.1881 -37.4779,6.7795 -9.58794,-20.8424 -40.41471,18.2028 -78.85505,77.2876 -114.06974,25.8723 -22.60588,-48.399 -52.83551,50.5174 -81.01973,-3.1857 -25.70817,-16.7681 9.07184,-109.1764 23.18696,-106.5198 1.40314,30.7704 59.95976,-70.9731 27.64891,-39.5516 16.7467,-21.3522 -8.94825,-15.8413 2.99765,-28.2129 5.88194,-16.8905 19.88539,-53.702 2.57315,-41.3939 18.65375,-63.2645 -4.95812,-129.8713 -70.43265,-152.4857 -59.03051,-41.6541 -157.40603,-61.1461 -205.6832,5.9432 -16.64615,17.9132 -4.39703,58.9716 -18.96457,49.5948 -25.41175,-4.138 -37.08546,52.65 -23.00813,-2.697 -78.77268,-53.3952 -20.99479,103.5232 35.05808,81.5319 40.55992,12.9518 -20.69256,-69.2202 10.05932,-37.1676 21.13435,47.5191 50.71294,1.8959 24.05604,-27.3589 -54.23085,35.3934 82.7072,-54.3086 19.87301,-24.8413 -76.59996,13.7858 85.1567,-21.0839 50.52206,-16.8114 -81.88264,-14.2686 56.11467,-8.3977 76.05868,4.9251 29.7157,7.6326 90.78168,40.4923 71.79765,71.5695 -13.86163,-35.3718 -90.96529,-91.5826 -97.04505,-26.1001 45.2805,-6.7168 137.56817,49.5735 97.7143,88.2357 -32.28937,-22.9114 -55.17714,-15.895 -33.6814,23.4408 -17.16283,26.8601 -4.22404,-60.3517 -39.36624,-18.0059 -46.65104,9.7767 -101.63162,-5.2234 -100.52224,34.1707 16.43927,-38.0267 -47.35941,-59.5141 -26.93408,-11.5042 -30.10491,10.5662 13.12808,-51.8738 -34.38053,-37.9721 -34.31368,-4.4019 -12.13307,-22.7059 -57.82193,-17.575 10.53284,19.1921 56.87976,-2.1798 8.14532,17.0771 2.57135,34.1675 39.98107,-28.1303 7.51346,18.1709 12.44131,49.9778 69.47733,81.0311 71.65475,109.9963 -43.25363,6.2498 -68.23947,-106.1676 -88.21376,-85.1397 32.79581,59.7436 62.45437,130.3896 125.81248,164.0144 -61.24267,1.9439 -90.07845,-87.7283 -122.66804,-132.723 -32.08224,-51.3937 53.50908,124.3247 33.41792,77.056 17.01129,42.8029 59.2202,98.3105 90.92636,108.2794 -66.41232,1.4947 -84.89688,-89.132 -117.25707,-134.7661 -10.68669,-25.2033 -32.73138,-65.1747 -12.56649,-15.0334 38.19843,66.6331 62.2871,150.3249 134.31584,189.0562 -59.48259,1.6935 -89.10233,-85.4095 -117.3737,-132.6442 -46.14548,-74.5355 42.86882,96.7956 -4.79647,42.6691 11.70343,51.2168 56.50037,110.1484 65.21253,149.997 -32.61142,-19.7774 -55.80518,-111.7088 -66.56599,-116.7285 9.17464,48.2413 49.08882,121.244 52.7137,147.0552 2.89617,54.355 35.87747,116.1383 84.71713,154.6587 31.98747,47.9087 74.6982,58.7464 116.43022,84.3673 28.96515,26.2475 47.20203,-6.0397 62.01778,-26.879 43.75446,-10.5652 14.02142,88.7056 77.49421,60.3493 l 9.31588,-0.6264 7.89694,-0.76 z m 65.8025,-40.995 c -17.60901,-58.1116 -112.78792,-42.1389 -135.62005,-36.9573 37.67085,-30.6341 154.15646,-13.2545 135.62005,36.9573 z m -76.95338,-71.6152 c -66.91119,1.912 -135.81346,-40.7745 -145.84993,-110.3346 -26.64226,-51.9121 -29.96506,-133.359 -92.15007,-155.0502 -17.56338,14.9849 -62.0671,66.0171 -18.41584,12.8068 18.55981,-34.54 39.24377,-62.9362 23.56344,-22.1401 60.6318,-27.1489 135.0546,-8.1387 194.84585,14.89 55.15866,51.1714 134.25438,21.5408 198.0216,5.6721 47.26366,-21.5328 106.27529,-8.6274 117.17223,-36.9312 37.6385,-25.4017 -44.04763,-76.1627 -10.05551,-71.0695 21.77951,21.3446 101.13631,103.7575 31.48821,49.4567 -34.33995,27.8976 -81.2873,111.0528 -99.86515,173.0592 -15.31305,57.8881 -39.91494,144.3217 -115.43001,139.3479 -27.75937,0.7429 -55.56885,1.4748 -83.32482,0.2929 z m 111.05646,-9.4092 c 49.40185,7.8349 39.39259,-81.797 27.94354,-19.073 4.12868,-2.6807 -27.49556,-45.5054 -28.4749,-10.458 -9.18887,48.9204 -1.33979,-42.2754 -42.65553,-13.2481 -11.12398,13.1754 -19.22593,67.926 -15.4054,12.0407 -0.89346,-31.7147 -60.99507,-13.259 -51.62819,22.9223 2.11665,-14.5277 7.79172,-60.9923 -34.16503,-43.8378 -15.50241,61.4751 0.56443,7.2304 -17.01902,-6.7683 -41.05163,-15.8854 -90.66889,2.3934 -34.67161,33.9958 58.09485,36.4305 130.97615,25.4565 196.07614,24.4264 z m 54.45774,-50.9756 c 22.62139,-68.9055 45.67732,-137.9337 81.81913,-201.2362 -32.31159,11.145 -72.81608,15.9264 -57.66667,56.6882 -26.05649,-0.8669 -49.56921,24.691 -52.0615,5.9835 -7.03313,28.6875 24.11365,88.0695 -11.53662,98.1911 -48.47952,5.4696 -90.20262,8.1411 -83.39153,-57.1063 -18.84349,-47.7011 -3.79033,97.1799 -61.29343,47.2282 -33.04248,-0.3019 -92.73031,9.2599 -49.1459,-37.0974 34.28797,-27.1078 36.07489,-98.8554 -13.33611,-69.9777 -5.6709,50.3705 -70.84813,5.5433 -53.41253,-3.2843 -9.72467,34.317 -62.81349,-16.5806 -28.71816,33.3402 26.62872,35.1345 18.0224,134.6742 65.87296,106.3068 73.5487,7.4494 145.71986,26.9036 220.41205,21.5116 12.42671,-3.9467 37.93078,3.8498 42.45831,-0.5477 z m -92.84754,-47.0657 c 53.26649,10.6155 72.10018,-13.4536 57.37087,-65.6391 12.67305,-57.5095 -64.62433,-9.3358 -85.85479,-11.1749 16.60376,17.5221 4.23366,74.7665 28.48392,76.814 z m -56,-9.816 c 9.13277,-43.7614 35.51524,-95.0544 -34.08825,-89.443 -20.98898,-12.9348 -72.87688,122.5883 -52.19672,87.2813 27.78355,-1.8341 63.55693,3.9984 86.28497,2.1617 z m 69.60104,-81.5747 c 54.20112,-18.8132 104.11741,-50.1666 159.46945,-68.9945 -85.51039,12.6472 -169.61352,58.4885 -257.20292,38.9791 -50.01891,-42.2628 -119.64053,-52.0694 -183.13411,-49.9695 46.65632,6.8978 95.65777,28.9888 142.06394,49.2127 44.33182,14.9057 91.16176,34.5884 138.80364,30.7722 z M 635.3926,1613.2916 c 21.83162,-47.3955 -75.68298,-22.0795 -22.85779,7.8395 9.00388,-6.8531 23.77108,20.4635 22.85779,-7.8395 z m 251.90898,8.4304 c 59.54778,-4.5572 -30.33075,-50.7966 -11.33333,2.5539 l 2.6683,1.0265 z m -304.65205,-12.1188 c 41.51514,-45.5645 -46.47721,-56.2431 -26.39504,-5 9.38603,-6.7681 21.22435,16.6713 26.39504,5 z m -34.98813,-14.9503 c 37.76637,-43.1868 -78.27236,-50.8774 -14.95829,-13.5764 6.52431,-0.8281 12.9851,38.8298 14.95829,13.5764 z m 137.64018,-215.0866 c 34.24406,-28.5038 -32.24862,8.4556 16.47839,-21.6229 34.83477,-13.4638 46.55927,30.5725 5.89656,13.3124 -9.09169,-1.2152 -14.33253,7.0268 -22.37495,8.3105 z m -132.49289,-13.9631 c 25.95703,-28.0204 35.63257,-50.1266 -5.95591,-17.0279 -38.77624,27.7005 53.93595,-39.2608 -9.93033,-13.4228 -81.59656,15.7291 123.39993,-51.7865 36.33773,9.8079 -0.35571,1.4365 -25.4964,32.5634 -20.45149,20.6428 z m 276.45012,-6.6667 c 13.23188,-39.567 -1.68334,-61.4567 44.23682,-39.625 72.2473,29.3895 7.84702,-71.1936 -7.22777,-21.7017 -3.6557,7.3769 -42.89888,-50.344 -63.3391,-2.8702 -30.48113,28.8501 0.0436,-54.2772 26.83553,-61.0391 19.25531,-28.9982 102.33972,-38.9948 83.03433,-70.1366 -29.18141,-1.7201 -49.80007,74.1382 -29.25046,9.5081 -28.62014,-1.3033 -42.51244,79.797 -32.42863,18.1979 -22.7304,17.25 -44.4968,38.8317 -10.37292,2.1333 12.57548,-7.7037 35.62625,-60.4369 23.61294,-20.3609 30.78707,-20.2803 59.25913,-25.0713 82.58787,-20.4103 27.09457,-8.2691 79.32938,7.7135 63.47628,12.9407 37.1719,14.867 -25.56191,5.6378 -32.45545,32.0986 28.28075,44.5979 100.84415,-55.0395 53.64455,3.4821 -44.90702,58.3657 96.0321,-40.6589 34.3783,6.5963 -82.40677,49.6103 129.4002,2.9356 40.068,28.8526 -8.2829,-1.3852 9.1174,13.6568 -28.743,11.6678 47.0479,55.9135 -36.4695,-34.74 -50.5681,9.5347 37.0971,59.0096 -36.48386,-21.5275 -24.7141,28.431 -8.17473,47.4017 -10.27703,-39.3014 -47.50712,-0.9984 -3.12673,41.2911 -17.45267,31.5299 -8.56898,1.1304 -55.4694,-10.396 -15.23343,49.2263 -22.53567,45.6049 -41.98088,-6.3512 -66.77366,-3.5404 -11.70521,6.5295 -4.90165,29.082 -76.01689,-32.1977 -82.45811,20.4343 z m -5.20503,-88.9376 c 29.33505,-5.6975 61.96788,17.0421 44.50208,-31.0137 28.35847,-89.8442 -117.02979,89.0769 -44.50208,31.0137 z m 113.2478,11.9376 c -21.79139,-4.3423 -27.3533,4.5144 0,0 z m -8.55557,-11.8502 c 26.44697,-6.4305 26.40751,-53.7937 1.77035,-10.4998 l -11.26914,11.0689 c -4.34697,5.6657 16.37399,-3.0398 9.49879,-0.5691 z m 46.55557,1.2129 c 32.60872,-10.6687 102.93182,-34.2229 33.78942,-51.1103 -21.61001,-7.4167 -103.33956,-43.2147 -52.91639,2.0223 18.50427,28.6592 -34.90209,64.5207 19.12697,49.088 z m -28.63992,-4.7282 c 4.22144,-9.3171 -9.04656,7.973 0,0 z m -18.59125,-8.4559 c 49.25348,-34.4694 -42.17631,-59.4597 -37.09173,-9.2941 85.25877,-55.447 -9.44292,41.4817 20.15169,18.4489 l 7.40225,-1.2418 z m -17.43549,-5.5119 c 5.89587,-26.588 -30.5553,12.0339 0,2e-4 z m -26.11596,-16.0639 c 22.57072,-16.3374 40.14993,-39.7636 2.95558,-20.5514 -7.02174,-1.7635 -12.11209,40.0279 -2.95558,20.5514 z m 90.20472,-43.8471 c 67.63232,-35.3231 -59.20584,-26.4778 -18.19119,-0.089 6.61449,-2.5189 12.8127,9.6619 18.19119,0.089 z m -38.44174,-6.1483 c 59.23943,-34.4709 -44.99888,-27.4478 -13.91329,3.6109 l 8.92693,-0.9694 z m -85.47694,1.0593 c 4.97826,-6.0881 -8.98003,7.2443 0,0 z m 34.49658,-21.7397 c -23.07253,7.5018 -37.81988,25.3689 0,0 z m -408.67785,171.4252 c -19.35556,-22.7436 3.95857,-44.4689 7.34452,-8.0188 13.96668,1.2538 -2.01253,15.4515 -7.34452,8.0188 z m 20.56055,-6.1361 c -10.13534,-46.0428 25.52283,-9.95 5.29854,2.6386 z m 36.20522,-8.9021 c -17.03431,-42.9832 26.8528,-2.6333 0,0 z m 133.24542,617.7647 c -3.11162,-4.5797 -3.84027,2.5408 0,0 z m -13.75978,-3.7453 c 0.56793,-34.401 -31.40105,8.8596 0,0 z m -22.85497,-9.084 c -3.10656,-28.1898 -43.27813,4.4487 0,0 z m 244.61475,-7.916 c -1.61227,-4.875 -3.28855,4.7496 0,0 z m 18.73896,-18.4687 c 37.22763,-20.8948 -5.23469,21.2427 -6.6517,3.5832 z m 25.9277,-10.2271 c 44.38031,-35.0686 -37.40145,15.3012 -8.90416,5.3374 z m -24.6163,-2.0361 c 9.25235,-10.8103 -18.37474,14.7701 0,0 z m 67.02333,-21.4079 c 30.40314,-14.0691 28.17615,-53.7645 -2.20398,-8.3014 -30.72293,22.5079 -32.56189,36.964 2.20398,8.3014 z m -44.9206,7.8064 c 27.75749,-25.0099 71.26763,-74.0888 18.04309,-21.014 -0.95807,1.9321 -36.84899,33.2277 -18.04309,21.014 z m 4.68365,0.6667 c 4.33129,-6.6272 -7.58475,8.4179 0,0 z m 26.93208,-15.6667 c 46.15114,-52.6349 -6.85184,-12.0828 -21.44249,14.9114 7.7373,-4.038 15.29928,-8.6036 21.44249,-14.9114 z m 14.68812,-7.3736 c 44.63134,-50.9958 75.35944,-112.4157 105.82064,-172.4116 -36.666,57.8906 -73.56926,115.2983 -110.15613,172.3318 l -5.80185,8.0954 10.13734,-8.0154 z m 45.45774,-34.4622 c 20.3746,-61.9079 -43.93882,69.6274 0,0 z m -582.4614,-12.9771 c -39.60975,-33.1971 34.36535,35.6279 0,0 z m 586.4502,-12.3615 c 16.2499,-29.988 -18.48782,27.5752 0,0 z m 43.9679,-33.4922 c 24.3434,-30.3659 28.4614,-67.219 2.3272,-15.7744 -9.5216,16.5845 -24.996,55.3457 -2.3272,15.7744 z m -19.2455,15.3333 c -4.6724,1.8128 -1.0863,7.4478 0,0 z M 337.863,1762.3415 c -10.43696,-17.2358 -40.23744,-90.1618 -40.62427,-31.927 5.51527,10.92 29.97875,37.1491 40.62427,31.927 z m 29.32133,-14.5236 c -18.5097,-34.5191 -35.78513,-63.4831 -11.87384,-6.9573 -5.48941,13.6635 35.56551,33.97 11.87384,6.9573 z m 677.44017,2.452 c 18.9822,-21.0176 29.8178,-62.0292 5.6509,-18.3364 -2.1788,-0.7127 -20.8991,43.1632 -5.6509,18.3364 z m 76.1648,-29.8516 c 14.2021,-72.8143 -23.2547,81.5977 0,0 z m -789.4892,-15.1484 c 1.12054,-39.5791 -37.34931,-93.0651 -13.51591,-25.5798 2.48585,10.6667 26.36269,68.3022 13.51591,25.5798 z m 766.7326,0.6476 c 25.2782,-54.3321 -6.812,-14.5546 -8.1992,17.2649 l 2.6632,-5.3262 z m -804.98877,5.6857 c -6.18022,-36.9312 -17.11619,-78.9264 -8.2673,-15.6374 -6.84875,6.3566 13.76537,36.3385 8.2673,15.6374 z m 791.91997,-8.2203 c 15.5563,-15.458 -12.6873,-7.3952 7.5783,-44.6222 12.4119,-52.7549 -42.1309,89.9595 -7.5783,44.6222 z m 30.2177,-1.9197 c 5.6998,-38.514 -11.8606,24.3894 0,0 z m -747.17975,-17.86 c -4.5021,-21.0108 -48.22388,-109.6615 -47.04438,-85.4663 7.58148,32.7205 61.06306,107.5497 52.44524,101.2392 l -2.39573,-7.1013 z m 735.97405,-19.0152 c 2.3701,-11.6673 11.1133,-78.173 -1.0807,-18.037 -3.5702,16.1046 -15.3752,52.4742 1.0807,18.037 z m -837.90604,-7.2779 c -26.27479,-61.0753 8.60939,50.2628 0,0 z m 860.38884,-0.3868 c 14.0263,-29.0623 18.25,-74.6194 4.2271,-28.4198 -2.1548,6.1505 -25.8195,70.1395 -4.2271,28.4198 z m 17.0593,-0.6534 c -2.3336,1.3326 2.164,7.3424 0,0 z m -835.41827,-41.6667 c 13.19953,-72.5993 -54.1356,-16.3767 -1.43371,14.4824 z m 826.73907,-9.6976 c 22.6388,-54.7244 -35.0191,63.4655 0,0 z m -849.53722,12.4429 c -3.1116,-4.5797 -3.84026,2.5408 0,0 z m -20.15774,-16.758 c -35.41173,-73.745 -2.97916,43.1304 0,0 z m 14.78252,7.6324 c -7.9455,-23.2604 -10.14796,19.3718 0,0 z m -53.35787,-8.2064 c 16.1137,-19.5457 -18.3336,-59.0263 -4.75475,-9.0492 -0.16286,-2.9663 0.40919,16.6588 4.75475,9.0492 z m 891.35891,-16.6589 c -0.01,-34.0465 -5.7974,50.5378 0,0 z m -781.1758,5.5789 c -6.84437,-34.2662 -37.33999,-91.8691 -14.0832,-24.3902 1.72267,1.0697 13.59041,35.8764 14.0832,24.3902 z m 827.0665,-11.3157 c 19.6573,-28.1257 -35.6965,-1.5382 -7.7387,11.7141 z m -876.07682,3.8721 c 22.62483,-19.4909 25.66573,-112.626 -18.82919,-96.6004 -13.31721,-83.4644 -49.62367,122.2192 18.82919,96.6004 z m 847.91752,-20.3141 c -9.2615,-55.4563 -18.3727,15.0069 0,0 z m 46.9762,-4.7289 c -7.6958,2.3661 -8.1239,9.5862 0,0 z m -8.2705,2.4792 c 32.194,-76.9749 4.3855,-164.3351 25.5616,-244.5134 9.7047,-59.221 32.1994,-122.0136 11.3688,-181.1221 -61.1766,-16.1894 -40.1043,77.4512 -13.2323,100.8291 -4.2112,59.2766 -16.7005,127.5802 -31.8092,183.5677 -34.0006,31.7586 -27.5967,96.9149 -22.2394,130.6673 12.0783,-1.3564 18.7124,9.4299 30.3505,10.5714 z m -862.39625,-44.2472 c -2.36909,-9.0495 -4.12223,7.2078 0,0 z m 887.37565,-10.1604 c 0.3147,-34.9377 41.0578,-115.5005 6.1061,-98.585 -7.4472,-45.9344 -7.2077,109.549 -6.1061,98.585 z m -906.37942,-25.585 c 25.54392,-22.5179 -16.47611,-49.3364 -17.42183,-59 -7.48203,16.7499 -15.10916,67.369 17.42183,59 z m 291.9683,-12 c -1.90723,3.8126 1.89271,19.24 0,0 z m 162.28488,4.4261 c 4.77812,-7.9373 -9.34085,7.5703 0,0 z m 35.41726,1.2406 c -1.6125,-4.8747 -3.28838,4.7496 0,0 z m -23.982,-14.0093 c 9.66432,-11.0567 -29.59519,20.9904 0,0 z m 3.30589,7.3579 c -3.37446,-2.4384 -5.30818,4.2952 0,0 z m -513.03556,-11.6819 c -1.96751,3.21 1.94531,16.272 0,0 z m 16.66443,-25 c 18.06839,-55.0479 -49.09307,-128.4817 12.97702,-171.6752 -0.19803,-21.4535 -13.20787,-86.6816 -26.69182,-47.0504 -38.29049,-45.491 -56.65636,76.178 -30.27719,104.1412 23.09088,35.9014 36.99955,96.8648 40.46375,126.5449 z m 28.43457,-3.6667 c -1.62721,-57.458 -14.1302,-11.7978 0,0 z m -76.72067,-7.9172 c 8.79504,-32.4971 -10.31767,-69.6596 -8.03728,-12.5378 -0.8915,11.9528 0.33168,41.0709 8.03728,12.5378 z m 25.36154,7.0155 c -7.61311,-22.478 -0.81355,14.7927 0,0 z m 921.87658,-12.8602 c -2.1131,-61.4327 36.1442,-123.7585 19.77,-183.0018 -17.5712,-41.2724 -3.3903,80.4133 -13.7366,102.809 2.9087,15.7977 -34.1744,84.4516 -6.0334,80.1928 z m -558.53392,-10.9784 c -11.70999,5.984 -11.9942,17.3955 0,0 z m -360.59922,-3.1246 c -22.09965,-61.839 -7.0749,21.5836 0,0 z m 42.62254,-36.4684 c -7.47617,-18.2023 13.18902,-114.989 -23.97108,-82.3305 -8.44742,21.0507 6.13542,149.8969 27.67355,96.9971 -1.23416,-4.8889 -2.46831,-9.7777 -3.70247,-14.6666 z m 349.27248,30 c -7.62857,-4.2309 -18.59938,4.4165 0,0 z m -3.90866,-10.1367 c 48.70288,-38.4813 -30.87458,9.2968 0,0 z m -418.94575,-22.1674 c -6.02121,-54.1856 -22.14002,-119.6384 2.96967,-171.6959 -18.71892,-17.3854 -15.97577,82.8835 -19.91457,108.936 4.8162,8.0357 -2.46825,100.6022 16.9449,62.7599 z m 102.00184,-49.5707 c 2.02898,-43.1676 -28.95498,-14.5795 0,0 z m 905.46599,-26.1836 c 3.0753,-31.7477 -7.2259,34.4843 0,0 z m -676.20934,3.4468 c 18.7751,-41.1966 91.89677,12.6257 54.02919,-39.3884 -26.42295,-30.7509 -51.39542,-28.9361 -43.04501,13.6137 4.45246,18.1733 -48.83735,36.2218 -10.98418,25.7747 z m -19.28344,-2.0551 c 51.3041,-22.9313 -10.31693,7.272 -15.59358,3.9796 l 7.03155,-1.0302 z m -53.97484,-1.6667 c -39.92671,-34.0331 52.45137,-92.6449 -14.8755,-60.0367 -39.78155,2.9303 -135.9711,51.1981 -45.12956,54.3332 15.06355,-1.3166 57.44553,14.3423 60.00506,5.7035 z m -167.84636,-5.5497 c -18.40829,-18.1268 4.18957,21.1097 0,0 z m 215.23022,0.5497 c 73.42739,-14.5292 -10.7871,-99.3002 -22.32087,-31.5165 -7.62244,17.9017 57.14323,-42.8529 32.11794,8.5554 -51.49043,54.8728 -44.28204,-25.5146 -40.57949,-28.3088 -31.93836,13.8024 1.01991,64.4846 30.78242,51.2699 z m -3.90944,-17.3333 c 7.84015,-14.6798 10.70722,-31.712 -9.28688,-4.1509 -0.64209,6.2072 5.80115,4.873 9.28688,4.1509 z m -222.13804,-4.6667 c -3.16474,-6.996 -1.15388,7.0428 0,0 z m 938.25924,-36.03 c 7.7481,-19.9794 1.7779,-91.7641 -3.4295,-30.5172 -3.5451,26.0728 -12.6881,99.416 3.4295,30.5172 z m -742.18586,0.052 c 55.36339,-22.4123 -49.73845,23.5096 0,0 z m -64.51637,5.2823 c 25.03444,-9.4712 18.01053,-79.8979 23.98791,-12.5846 29.32686,27.9139 24.19431,-86.1728 26.71488,-22.6003 4.556,62.1369 83.49398,-56.3871 4.73468,-25.1057 -24.29202,5.112 -130.53764,9.0474 -55.43747,60.2906 z m 824.39183,-23.971 c -4.4285,-45.6848 -4.6889,54.1245 0,0 z m -1016.43102,-16 c -0.8664,-11.6138 -2.91664,11.6345 0,0 z m 23.61778,-1.1909 c -6.94537,-29.2225 -6.21537,-63.553 -11.788,-13.2757 -7.79311,16.8538 -4.37933,16.8542 11.788,13.2757 z m -81.5661,-19.6967 c -3.8694,-9.5072 -12.22521,41.657 0,0 z m 88.61499,18.8877 c -1.61225,-4.875 -3.28857,4.7496 0,0 z m -38.24571,-9.0619 c 8.10765,-46.6718 -14.7988,-6.8559 0,0 z m 109.51355,-12.9453 c 13.32757,-32.6782 35.56631,-55.6172 -12.37487,-27.2108 -52.49423,16.1497 -18.15749,37.7129 12.37487,27.2108 z m -42.59724,-13.4747 c 45.66445,-23.7162 94.10917,-39.2739 31.74717,-81.1359 -35.96533,-9.6892 16.85908,-64.0718 -25.64406,-12.6423 -9.30329,8.2432 -44.72562,126.8926 -6.10311,93.7782 z m 526.22089,-10.5181 c -14.05888,10.6008 -16.00788,22.6576 0,0 z m 39.77518,-14.3691 c 27.97124,-15.4938 106.07572,-50.7855 33.37124,-24.0545 -26.30624,-3.1401 -117.96488,79.5696 -54.18564,36.2314 l 10.32522,-6.108 z m -22.31035,17.895 c -13.93202,3.5897 -14.3914,12.6137 0,0 z m -598.05072,-22.8593 c -1.45826,-35.3641 -2.16857,47.9285 0,0 z m 121.6944,10.6667 c 20.06862,-38.6489 -30.32605,36.2347 0,0 z m 837.27385,-8.4328 c 21.6013,-39.626 -57.2344,23.2582 -8.1107,3.4456 z m 20.0595,-0.9424 c -6.1629,-12.205 -6.9839,9.3577 0,0 z m -368.11112,-6.1387 c -8.4466,2.0594 -6.12447,4.5505 0,0 z m -467.85198,-9.1972 c 25.33489,-19.5264 48.99292,-27.8551 1.42695,-18.4821 -21.83469,-6.027 -17.07274,26.8585 -1.42695,18.4821 z m -123.1261,-3.5389 c -2.56669,0.5783 1.91002,5.8446 0,0 z m 109.29572,-11.7525 c 32.70182,-15.1241 46.31005,-14.1429 1.2596,-21.3308 -65.36431,-35.475 -23.0903,18.2047 -1.2596,21.3308 z m -110.20654,-7.1447 c 7.3591,-41.4768 -11.52511,5.6113 0,0 z m 663.02195,0.648 c 43.68129,-10.7757 99.32907,-36.7938 68.97796,-90.16743 -11.10641,43.25633 -52.95919,73.02663 -83.66057,94.97673 z m 242.31147,-3.4056 c -11.3339,-29.2493 -41.1777,-65.0452 -13.6657,-14.8889 -0.7905,-9.2965 12.5568,26.1206 13.6657,14.8889 z m 58.6462,-4.5072 c -6.2027,-17.5925 -5.1532,11.9436 0,0 z m -730.0148,-0.6415 c -28.84475,-12.6401 -69.77813,-118.43385 -58.27046,-30.5273 -15.04999,36.4145 78.28848,36.9117 58.27046,30.5273 z m 557.952,-9.2689 c 35.3699,-10.3757 33.9407,-88.38532 -3.4422,-30.556 -25.6957,23.5315 -71.37254,38.7128 -10.9131,32.6038 z m -820.5989,-21.2444 c -29.8249,-33.3201 53.66613,-114.17008 27.34875,-106.90373 -36.42495,27.50597 -42.74993,101.39453 -32.95907,121.57623 l 1.50244,-3.1057 z m 65.71572,-32.2956 c -17.97132,13.116 63.19567,-130.92351 15.67755,-54.13763 -9.85685,33.06875 -37.76312,60.32793 -32.86263,96.66673 5.4264,-14.2639 8.57032,-29.7044 17.18508,-42.5291 z m 927.24838,18.856 c -12.7577,-21.6206 4.212,26.095 0,0 z m -901.87279,-7.9936 c 23.48888,-42.5688 -9.55352,13.7198 -5.86724,7 z m 880.87479,-21.0536 c -24.5709,-72.02834 5.5454,55.6665 2.2991,9.5619 z m -898.11239,16.084 c 1.81207,-12.9791 -6.16772,17.6195 0,0 z m -59.95464,-19.53093 c 13.49064,-31.04646 19.35227,-54.4865 -2.65405,-12.0294 -9.49333,16.95403 -6.55715,51.30243 2.65405,12.0294 z m 74.22272,7.83383 c 13.6517,-28.74311 77.62933,-117.82552 64.13863,-112.6305 -32.92093,24.07179 -73.6247,105.13913 -64.13863,112.6305 z m 865.82141,-6.66663 c -4.9954,-29.61943 -16.776,-42.62913 0,0 z m -881.15392,-36.286 c 22.0037,-64.16754 -29.64737,54.48543 -10.68515,26.03194 l 5.14119,-11.9347 z m 30.55947,27.9526 c 3.26926,-9.46359 -6.33938,9.56836 0,0 z m 784.00005,-1.9493 c -17.602,-26.13415 -45.0902,-47.82886 -10.0356,-9.56736 l 9.5589,10.18336 z m -774.27096,-13.7173 c 20.92607,-33.59508 -16.3009,30.33843 -7.95704,11.6666 z m -61.85673,-7 c 24.81781,-85.57981 -20.65936,54.03883 0,0 z m 87.77493,-13.2868 c 17.6795,-20.0458 77.84919,-124.81982 29.89093,-55.15568 -13.59007,14.57194 -85.21098,137.63011 -29.89093,55.15568 z m 772.36916,18.4482 c -8.9295,-34.44696 -73.2468,-49.33687 -22.1212,-4.33866 9.098,-39.18211 31.4915,43.10819 22.1212,4.33866 z m -863.28712,-41.4159 c -2.4634,-16.73409 -8.09476,35.01947 0,0 z m 22.93188,3.5878 c 4.47173,-13.08523 -9.39575,19.5519 0,0 z m -45.93772,-0.362 c 30.45934,-42.23621 6.48263,-30.25726 -9.97397,4.0473 l 3.79191,-0.9465 z m 810.41356,-6.1664 c -28.4973,-21.85182 -90.29891,-70.59814 -99.36397,-59.83695 21.9265,17.50859 97.96147,77.26047 99.36397,59.83695 z m -760.76926,-9.985 c 10.51762,-55.61378 -10.35824,28.93192 0,0 z m 39.62973,-14.1533 c 21.98151,-28.65224 55.23877,-67.58577 12.27531,-22.2827 18.30568,-25.58506 45.6691,-60.87892 7.92909,-13.71647 -16.5613,14.99741 -65.95904,94.66398 -20.2044,35.99917 z m -105.32041,13.0309 c 20.01181,-50.85631 55.65484,-83.299 79.03084,-113.49678 -44.82112,64.42694 101.26063,-93.09378 22.62538,-26.35978 -46.77267,35.63779 -95.32549,92.20827 -107.84724,145.08396 z m 80.73205,0.2672 c -3.77346,2.57745 -1.58375,5.79952 0,0 z m 770.92419,-1.2638 c -15.3612,-13.41172 -8.1362,2.93605 0,0 z m -822.65907,-18.3614 c 18.64629,-33.04787 -27.5686,39.72756 0,0 z m 824.51377,-2.6264 c -15.5916,-18.92293 -134.16456,-40.86834 -53.4188,-14.29817 11.3987,-0.18922 64.4723,38.07385 53.4188,14.29817 z m -753.26384,-0.3798 c 19.7681,-24.67249 -21.52458,24.25374 0,0 z m -6.29173,-17.1454 c 15.70438,-25.80835 58.19418,-96.0374 14.31679,-32.6666 -23.57474,41.84991 1.93073,-16.01461 -16.57665,13.65369 -12.25125,17.58748 -22.99589,63.94256 2.25986,19.01291 z m 55.25009,4.0134 c -12.59186,7.4938 -23.13043,27.73416 0,0 z m -93.77797,0.132 c 42.09149,-67.90172 -25.53442,29.34157 0,0 z m 111.01495,-7.7472 c 29.49351,-35.45664 6.00847,-18.75118 -6.5314,8 z m -126.80663,0.9328 c -8.78279,8.40692 -2.21786,7.07489 0,0 z m 121.31757,-15.5189 c 44.23568,-59.11702 -54.60547,65.98361 0,0 z m -88.64553,11.1691 c 4.16676,-9.84175 -8.34413,12.40404 0,0 z m 724.68179,-7.2411 c -22.3659,-24.32808 -68.36202,-21.13592 -18.1713,-4.66159 -5.5211,-8.56559 22.1474,13.423 18.1713,4.66159 z m 24,-1.2614 c -9.7713,-5.59063 3.3057,5.25144 0,0 z m -762.86519,-8.2574 c 16.09663,-27.07201 -19.02497,26.94275 0,0 z m 83.02443,-10.4028 c 22.07034,-19.56739 77.21095,-88.126 21.22254,-29.15319 -8.22088,7.50308 -50.33731,62.87424 -21.22254,29.15319 z m -13.4416,-3.3398 c 19.69142,-21.46374 52.08893,-62.37283 60.52032,-79.56722 -19.50784,10.0521 -84.2499,105.81854 -60.52032,79.56722 z m 775.30056,11.304 c -24.6555,-23.94123 -24.2956,7.25434 0,0 z m -106.57,-5.1181 c -33.5278,-26.60119 -46.72494,-17.15561 0,0 z m -720.11495,-2.8525 c 6.8211,-9.53641 -9.95011,9.69654 0,0 z m 116.25704,0.2865 c 26.71151,-25.42712 43.68731,-49.20747 6.39868,-9.23242 2.07724,-0.18501 -17.48839,15.03851 -6.39868,9.23242 z m 660.40971,-2.2254 c -22.5222,-25.30436 -19.5234,2.04956 0,0 z m -738.72111,-16.1983 c 24.02065,-35.87459 -32.68593,41.95061 0,0 z m 145.38769,-56.16601 c -24.32185,15.16239 -88.19894,87.53735 -33.64652,33.09721 11.2783,-10.9679 22.66238,-21.83162 33.64652,-33.09721 z m -59.55953,52.30321 c 8.94833,-15.98449 -24.39825,29.97371 0,0 z m 686.89295,8.6666 c -8.9994,-4.9972 -3.6243,3.60533 0,0 z m -793.36359,-18.6666 c 37.85015,-47.05145 4.96726,0.66332 -9.28856,11.6155 z m 640.69684,9.3333 c -17.12316,-9.81837 10.12986,9.089 0,0 z m -625.20061,-18.5554 c -8.05489,4.00247 -31.42646,36.97794 0,0 z m 92.31716,9.2275 c -21.36552,18.69203 -1.06305,6.122 0,0 z m -17.404,-30.28204 c -11.35927,6.238 -55.02052,62.627 -18.59331,21.67834 6.48359,-6.9618 13.36532,-13.66026 18.59331,-21.67834 z m 690.9542,36.94324 c -5.126,-4.78024 -3.4174,4.93864 0,0 z m 38.9256,-2.0421 c -21.9687,-11.4577 13.0069,13.44514 0,0 z m -59.5923,0.8392 c -16.145,-9.94114 -17.4159,0.69173 0,0 z m -714.52958,-16.4637 c 4.96608,-12.28871 -35.74195,43.97809 0,0 z m 673.19628,13.7619 c -6.124,-14.67469 -17.3426,4.64469 0,0 z m -617.95835,-8.1619 c 19.8225,-25.70354 -27.63729,28.76985 0,0 z m 44.63541,-37.21121 c 24.47488,-24.36152 41.47934,-53.16966 2.68675,-10.18304 -16.4484,18.5022 -70.19712,78.85919 -20.03992,29.02585 l 8.30053,-8.88358 z m -14.38449,24.88183 c 8.09486,-14.47556 -37.84583,39.43218 0,0 z m -83.43784,-3.98515 c 32.88894,-38.64204 5.04343,-0.53585 -7.72503,8.96041 z m 54.64989,6.05851 c 14.54197,-19.48935 -22.42827,25.90112 0,0 z m 655.84888,4.18122 c 3.2655,-13.42937 -34.4207,11.92836 0,0 z m -18.0202,-5.74089 c -12.4066,-12.43885 -30.1118,7.51824 0,0 z m -698.49664,-5.11767 c 4.33132,-6.62715 -7.58479,8.41801 0,0 z m -11.19488,-15.40772 c 10.21843,4.84471 27.27113,-36.48898 -6.85396,1.75319 -19.08881,20.17669 -1.86647,3.87819 6.85396,-1.75319 z m 93.54862,-0.25894 c 43.13949,-45.31906 -3.09754,-19.02345 -17.85715,13.2929 5.95888,-4.42223 11.92371,-8.83646 17.85715,-13.2929 z m -3.1066,7 c 12.17748,-13.45222 -14.22913,14.04446 0,0 z m 703.7895,1.72594 c -11.7075,-33.72566 -111.2322,8.11178 -61.8928,-5.78479 16.8771,-2.14654 39.3388,16.50341 61.8928,5.78479 z m -683.90992,-0.82461 c 37.25652,-38.50428 23.21286,-34.56895 0,0 z M 1063.826,776.0101 c 77.2264,-18.06475 -78.4395,2.70544 0,0 z M 410.63492,765.13049 c -14.63437,3.7267 -20.30806,21.75266 0,0 z m -22.66667,-1.86064 c 28.20084,-37.7963 -34.41166,38.18597 0,0 z m 8.62171,0.17726 c -11.62483,8.38097 -12.62508,13.2611 0,0 z m 588.94397,6.18842 c -7.8727,-2.85137 1.0879,7.20603 0,0 z m -538.89901,-5.06659 c -6.56694,-3.95794 -9.62813,15.80425 0,0 z m 71.63477,-19.72744 c 25.2276,-28.13168 -0.87102,10.87474 24.27308,-17.072 -40.36474,18.02001 11.46532,-29.07691 -29.18433,6.37495 -22.46085,33.5041 -34.33713,46.77755 4.91125,10.69705 z m 526.29861,19.62121 c -16.8938,-6.732 -14.1791,7.50801 0,0 z M 404.54253,752.73302 c -7.26372,3.76121 -4.65101,5.72202 0,0 z m 92.59441,-15.81184 c 7.74156,-13.90501 -39.0925,34.53061 0,0 z m 513.49796,6.79803 c -9.1124,-6.02116 -35.91847,6.60523 0,0 z m 38.0667,2.38445 c 53.1169,-14.19328 17.7242,-13.1197 -12.0666,1.02279 4.0404,-0.0984 8.1414,0.61354 12.0666,-1.02279 z M 442.78584,733.26985 c 44.57361,-33.8232 4.5885,-11.56197 -16.00683,10.11726 6.83881,6.02774 10.40372,-12.46911 16.00683,-10.11726 z m 679.73806,9.15332 c -28.5925,-15.18478 -52.8666,13.97192 0,0 z M 475.96825,725.88366 c 39.85712,-40.12271 -68.44766,48.68435 0,0 z m 125.44253,12.19543 c 85.59601,-26.67403 -92.37876,10.01566 -11.07062,1.89897 z m -49.48925,-2.88484 c 44.45011,-15.26633 4.87074,-24.63269 -13.95328,2.6767 4.35395,-0.28941 9.85892,-6.21388 13.95328,-2.6767 z m -96.25568,-6.41799 c -11.73965,7.08166 -12.43868,12.95054 0,0 z m 24.55615,1.93657 c 0.71647,-6.11592 -10.65119,13.7976 0,0 z m 6.41292,1.12986 c -6.98264,1.18476 -7.29547,6.40699 0,0 z m -6.66667,-5.4167 c 11.28642,-12.39704 -24.09788,21.19615 0,0 z m 539.33335,4.87531 c -13.8243,-6.90346 -53.95464,5.98816 -7.2126,0.91803 z m -521.25486,-1.98905 c 5.34125,-7.53005 -12.09751,7.72508 0,0 z m 100.24227,-3.65295 c 52.88234,-18.51527 -68.75844,12.30765 0,0 z m 303.9848,2.13832 c -5.27959,-2.80184 -1.24609,3.00457 0,0 z M 485.04189,711.08777 c 15.3305,-20.11126 -56.67371,39.10232 0,0 z m -27.0972,3.08376 c -22.06664,12.95816 -8.55738,8.61911 0,0 z m 32.10744,3.43165 c 12.17748,-13.4522 -14.2291,14.04446 0,0 z m 21.58279,-5.41839 c 33.14273,-29.52679 -38.95152,30.60843 0,0 z m 482.33333,5.6557 c -34.20801,-5.08695 -47.44124,7.75933 0,0 z m -496.49659,-2.23731 c 4.33133,-6.62716 -7.58479,8.41799 0,0 z m 19.22599,-3.21773 c 20.16237,-19.19809 -24.76898,19.58713 0,0 z m -18.7294,-1.1156 c 6.82105,-9.5364 -9.95014,9.69671 0,0 z m 6.17008,-1 c 4.33131,-6.62717 -7.58478,8.41799 0,0 z m 54.08296,-4.56546 c 34.48817,-21.19716 -44.5621,19.90988 0,0 z m 12.45163,2.87846 c 2.67688,-13.14921 -25.1425,9.50411 0,0 z m -66.53459,-2.313 c 4.33131,-6.62717 -7.58478,8.41799 0,0 z m 5.82992,-0.33334 c 6.82104,-9.53639 -9.95015,9.69674 0,0 z m 29.33333,-3.92801 c 10.16989,-12.56969 -34.5558,23.63633 0,0 z m -60,-2.41289 c 34.15233,-20.96812 46.15249,-36.52007 3.78862,-8.46606 -12.65411,7.10914 -31.54394,24.24851 -3.78862,8.46606 z m 482.35966,2.35373 c 30.31146,-13.73663 -70.01815,11.74687 -10.49386,3.61259 z M 506.82985,695.90331 C 535.29823,677.4962 608.51907,629.23759 611.81757,625.9339 579.46372,636.91099 464.3934,716.88116 488.96825,701.90121 l 8.95934,-3.31966 z m 90.83044,7.82528 c -8.88579,-2.43216 -1.60335,2.42299 0,0 z m 250.38889,-5.31336 c 13.14476,-13.96922 -35.33392,7.9427 0,0 z m -238.41426,-4.02842 c -7.34245,-2.1641 -1.33257,2.33364 0,0 z m -82.24343,-5.9291 c -4.11711,-0.0821 -12.05788,9.81146 0,0 z m 386.57676,-2.4511 c 28.0782,-14.20769 -47.32724,13.9852 0,0 z m -99.99924,1.6094 c -14.55388,-8.97133 -29.94805,6.93629 0,0 z m -238.74428,-0.22182 c -4.79696,-2.19797 -5.16823,3.79336 0,0 z m 20.3244,-2.14185 c 16.04261,-9.31192 -23.46761,6.63708 0,0 z m 21.26175,-2.09124 c 11.11524,-12.0263 -31.53881,11.64449 0,0 z m 20.37356,-0.89125 c 19.36264,-14.3488 -42.6047,13.03626 0,0 z m 55.78381,-0.61643 c 27.19909,-15.36408 -46.37289,15.1061 0,0 z m -28.82309,-0.47321 c 22.23101,-14.16716 -25.85808,12.31168 0,0 z m 107.82309,2.835 c -3.19062,-4.55257 -5.39794,2.5539 0,0 z M 559.81598,665.7213 c 62.9073,-45.66628 -50.99303,32.37179 -8.17153,5.77836 z m 19.61983,-0.16812 c 31.22437,-18.69697 60.32468,-43.83851 10.21864,-10.70883 -9.46698,6.00285 -47.77285,37.29214 -18.81114,16.87495 z m -46.13423,1.46296 c 30.30855,-16.32193 54.94278,-39.04612 9.16248,-8.55445 -15.42713,9.41866 -41.16078,29.18831 -9.16248,8.55445 z m 57.90782,0.93761 c 25.30021,-18.39292 87.88083,-39.13932 95.16101,-54.52973 -32.37084,8.04863 -123.97255,60.35868 -109.73482,61.50862 l 7.61999,-3.32486 z m 220.58788,5.8771 c -33.35022,-4.65792 -25.52757,5.31721 0,0 z m 98.83764,0.89216 c 66.9702,-16.08779 -43.85456,4.1243 0,0 z m -150.00555,-4.98252 c 10.77946,-8.17327 -27.54839,12.77175 0,0 z m 14.67221,1.52936 c 18.86522,-8.88126 -27.92572,8.03326 0,0 z m 93.32879,-2.22136 c 28.52996,-14.19551 -46.4366,11.1829 0,0 z m -121.99545,-0.44531 c 16.42206,-8.96827 -31.14585,8.53935 0,0 z m -121.33334,-0.75397 c 42.30436,-23.47022 -12.76937,4.501 -8,1.73941 z m 67.41183,-1.30886 c 4.45267,-6.40612 -18.1727,6.79323 0,0 z m 39.58817,-0.24394 c 6.58394,-9.84841 -17.0728,8.32299 0,0 z m -85.66666,-2.40923 c 41.20906,-24.95372 114.27286,-32.59731 131.43128,-54.19325 -37.20276,6.8411 -133.73552,38.1467 -131.43128,54.19325 z m 208.94657,-1.1994 c 59.05661,-10.78317 9.45436,-9.02807 -19.98612,-1.18748 l 5.98612,4.38896 z m -283.44316,-1.75127 c 4.3313,-6.62715 -7.58478,8.41801 0,0 z m 107.44072,-6.12748 c 24.50918,-16.65003 -36.35596,18.47638 0,0 z m 109.05571,-1.68702 c 56.79914,-19.43422 7.85915,-8.02531 -19.31588,5.0061 l 6.37498,-0.63393 z m -9.89736,-4.69976 c 71.03114,-24.35237 -80.15433,17.98127 -10.43731,3.42513 z m -39.43582,-2.60556 c 26.22537,-9.9441 98.0855,-41.85543 32.61431,-21.38186 -19.48919,5.43814 -98.33233,47.89336 -32.61431,21.38186 z m 91.25786,5.24072 c 35.68752,-16.21278 -47.2477,13.51852 0,0 z M 662.01001,642.2005 c -24.88965,8.63706 -22.88386,13.14916 0,0 z m 68.5138,-3.77792 c -8.44661,2.05928 -6.12444,4.55066 0,0 z" />
    <path
       id="path837"
       style="fill:#000000;stroke-width:0.847406"
       d="m 887.0047,1768.9329 c -59.80271,-6.4987 -126.16935,3.3429 -186.85238,-13.7187 -56.23389,-19.8849 -117.03239,20.3657 -117.96505,-59.7864 -1.62003,-30.8832 -61.79536,-100.4275 -0.95017,-76.504 19.03212,-37.057 -0.34893,33.2895 45.04688,15.4908 16.66572,-26.6687 28.87169,-44.6756 60.53606,-18.9626 -5.16258,42.6931 -93.59612,120.7613 0.67543,101.4274 55.29952,28.9813 69.48036,-28.7918 75.52546,-58.1854 0.9725,61.272 28.27381,81.2421 85.00446,68.1989 39.7726,-4.1066 7.79152,-65.0349 15.11104,-91.7699 -3.1371,-30.613 4.05131,26.1079 26.1672,-7.1846 51.20138,6.1833 2.89363,-57.6317 58.97111,-52.8904 45.24437,-20.266 -21.32204,64.6909 -24.76754,91.8728 -13.38435,31.7587 -22.12096,78.5967 -36.5025,102.0121 z" />
    <path
       id="path839"
       style="fill:#000000;stroke-width:0.847406"
       d="m 906.07192,1085.8978 c 38.29108,-15.9494 70.78677,-67.3438 86.15032,-87.88489 27.61886,66.89129 -42.72199,69.19349 -86.15032,87.88489 z" />
    <path
       id="path841"
       style="fill:#000000;stroke-width:0.847406"
       d="m 1010.3028,1060.6084 c 31.0968,-19.672 87.414,-81.53877 54.3613,-5.7382 -0.8439,12.1245 -85.38297,16.044 -54.3613,5.7382 z" />
    <path
       id="path845"
       style="fill:#000000;stroke-width:1.19841"
       d="m 321.53601,1164.7563 c -84.34931,2.0575 64.24837,-70.324 20.97222,-24.4685 -1.0194,8.8893 -7.97621,31.2484 -20.97222,24.4685 z" />
    <path
       id="path851"
       style="fill:#000000;stroke-width:0.847406"
       d="m 356.80119,1087.3621 c -71.27712,-49.6307 70.04023,-13.5499 21.53298,-6.1383 -7.37655,-3.0482 -15.22098,20.0352 -21.53298,6.1383 z" />
    <path
       id="path853"
       style="fill:#000000;stroke-width:0.847406"
       d="m 487.14983,1075.2181 c -62.07176,33.5597 -72.57482,-119.39974 -30.35296,-42.1026 -1.37188,14.5145 40.97406,45.1822 30.35296,42.1026 z" />
    <path
       id="path855"
       style="fill:#000000;stroke-width:0.847406"
       d="m 372.48347,1101.7266 c -9.43725,-26.1808 71.03164,-23.5921 10.94838,-0.4851 l -5.93183,4.128 z" />
    <path
       id="path857"
       style="fill:#000000;stroke-width:0.847406"
       d="m 815.30556,1147.8022 c 24.16973,-32.5954 78.31989,-50.1335 107.12606,-57.7537 -36.76093,17.313 -72.45064,36.58 -107.12606,57.7537 z" />
    <path
       id="path859"
       style="fill:#000000"
       d="m 810.51334,1142.4574 c 38.16382,-16.9795 46.07734,-71.1917 7.00554,-23.9283 -46.94345,53.9057 32.72898,9.8797 25.16321,-19.0898 -6.89809,-4.4129 -55.63374,36.2947 -32.16875,43.0181 z" />
    <path
       id="path861"
       style="fill:#000000"
       d="m 583.46075,1101.1373 c 18.0404,50.0559 34.24884,19.6929 0.46882,-5.752 -35.73157,-9.0548 38.82713,65.9905 22.86645,25.125 -2.08623,-8.3804 -9.63212,-36.0693 -23.33527,-19.373 z" />
    <path
       id="path863"
       style="fill:#000000;stroke-width:0.599206"
       d="m 846.97647,1106.494 c 22.21052,-27.075 74.52223,-112.13675 39.04738,-32.182 -3.25142,10.8769 -42.4383,36.0577 -39.04738,32.182 z" />
    <path
       id="path867"
       style="fill:#ac9393;fill-opacity:1;stroke-width:0.299603"
       d="m 845.0286,1220.1805 c 17.45992,-45.1777 41.73189,-50.5423 33.56123,-21.3694 -1.14488,-36.9254 71.47917,-49.1454 25.57894,-7.7266 -20.96097,6.7051 -40.29254,18.0116 -59.14017,29.096 z" />
    <path
       id="path869"
       style="fill:#ac9393;fill-opacity:1;stroke-width:0.299603"
       d="m 846.2276,1218.6266 c 4.97908,-25.7723 53.86797,-70.4446 26.06489,-16.139 5.71178,-28.13 72.9596,-61.2963 32.21637,-11.8056 -20.44931,6.3871 -40.39222,18.7649 -58.28126,27.9446 z" />
    <path
       id="path871"
       style="fill:#ac9393;fill-opacity:1;stroke-width:0.299603"
       d="m 914.08714,1189.8493 c 27.26593,-68.1839 74.56647,-0.1872 0,0 z" />
    <path
       id="path873"
       style="fill:#ac9393;fill-opacity:1;stroke-width:0.299603"
       d="m 965.46908,1194.8771 c -65.93985,-17.091 79.40812,-43.2537 9.5873,-2.5645 l -6.74107,3.7659 z" />
    <path
       id="path875"
       style="fill:#ac9393;fill-opacity:1;stroke-width:0.599206"
       d="m 414.13444,1224.4865 c -63.04461,-59.7776 136.87432,-88.3985 93.35682,-30.2242 -42.99153,52.1162 -23.64729,-31.4005 -33.10382,-23.0857 3.73091,31.7058 -29.55365,71.0051 -25.62209,15.7238 -16.0479,-23.9115 2.40039,60.8486 -34.63091,37.5861 z" />
    <path
       id="path877"
       style="fill:#ac9393;fill-opacity:1;stroke-width:0.599206"
       d="m 259.85462,1443.7504 c 7.40815,-76.275 -63.97707,-134.3377 -47.48127,-211.0108 3.88364,-38.2409 60.18072,-21.0005 48.32439,-28.55 6.59684,-17.4347 33.39387,67.9397 -5.80824,80.137 -18.34937,55.3907 34.08836,107.4538 4.96512,159.4238 z" />
    <path
       id="path879"
       style="fill:#ac9393;fill-opacity:1;stroke-width:0.599206"
       d="m 280.75546,1393.2555 c -15.25429,-27.6 -35.29881,-133.3298 2.12825,-116.6433 -1.72952,36.6714 17.6555,90.0807 -2.12825,116.6433 z" />
    <path
       id="path881"
       style="fill:#ac9393;fill-opacity:1;stroke-width:0.599206"
       d="m 279.88096,1478.9069 c -20.64942,-23.6685 -6.75967,-90.7373 13.56039,-36.869 14.57031,4.7891 4.80618,46.6052 -13.56039,36.869 z" />
    <path
       id="path883"
       style="fill:#ac9393;fill-opacity:1;stroke-width:0.599206"
       d="m 271.15109,1584.5168 c -38.74909,-25.5688 2.04187,-133.6093 -10.46328,-116.6275 10.7308,35.8411 51.38272,3.8762 38.76597,57.5985 4.82093,24.2322 7.84751,61.1525 -28.30269,59.029 z" />
    <path
       style="fill:#ac9393;fill-opacity:1;stroke-width:0.599206"
       d=""
       id="path885" />
    <path
       id="path889"
       style="fill:#ac9393;fill-opacity:1;stroke-width:0.847406"
       d="m 1170.375,1558.4451 c -31.3904,-10.1884 -34.7609,-31.8846 -29.6744,-66.1883 6.7121,-66.1038 47.3422,-103.4809 46.2831,-173.285 22.6368,-50.5219 8.4975,-100.59 -13.8837,-136.7482 -23.628,-54.0852 58.0122,-77.4219 45.2044,-11.2702 3.2779,85.8503 -34.2713,167.8721 -27.8471,254.2894 -2.931,42.0699 6.8676,103.1797 -20.0823,133.2023 z" />
    <path
       id="path891"
       style="fill:#6c5353;fill-opacity:1;stroke-width:0.847406"
       d="m 1157.8083,1412.4825 c 3.1112,-58.3774 24.4952,-122.648 18.7012,-185.0983 0.8448,-42.945 26.264,52.038 6.1561,66.1658 -10.9252,36.7569 -9.0333,91.76 -24.8573,118.9325 z" />
    <path
       id="path893"
       style="fill:#6c5353;fill-opacity:1;stroke-width:1.19841"
       d="m 776.18132,1627.1687 c -86.32126,-11.9149 -159.9241,-65.4114 -245.36336,-78.0983 63.08954,-0.8643 131.71144,7.6702 181.79017,49.5382 84.3852,20.3972 166.56732,-24.0452 249.03795,-36.1718 -63.81764,16.5682 -117.86025,71.5569 -185.46476,64.7319 z" />
    <path
       id="path895"
       style="fill:#ac9393;fill-opacity:1;stroke-width:1.19841"
       d="m 278.44377,1149.9689 c -7.3547,-35.0321 21.73692,-118.1654 36.8005,-109.4081 -22.55727,34.8407 97.91093,72.9991 7.04498,88.6965 -7.7544,-1.9318 -44.87622,37.4136 -43.84548,20.7116 z" />
    <path
       id="path897"
       style="fill:#ffff00;fill-opacity:1;stroke-width:1.19841"
       d="m 575.66316,1610.5518 c -57.37483,-5.2345 19.13655,-76.008 12.89108,-21.1695 -2.357,0.8652 -5.82093,31.8528 -12.89108,21.1695 z" />
    <path
       id="path899"
       style="fill:#483737;fill-opacity:1;stroke-width:0.299603"
       d="m 880.269,1241.2326 c -8.93886,-37.6153 60.52679,-40.0628 9.35614,-11.8235 l -5.40055,7.1949 z" />
    <path
       id="path901"
       style="fill:#483737;fill-opacity:1;stroke-width:0.299603"
       d="m 906.02642,1266.8079 c 34.33583,-15.1646 18.48293,-54.1291 -14.99712,-18.2944 5.23043,-70.2002 101.26364,3.0007 14.99712,18.2944 z" />
    <path
       id="path903"
       style="fill:#483737;fill-opacity:1;stroke-width:0.299603"
       d="m 898.0462,1254.7995 c 1.71588,-29.8492 32.02434,3.5545 0,0 z" />
    <path
       id="path905"
       style="fill:#483737;fill-opacity:1;stroke-width:0.299603"
       d="m 507.57564,1278.8432 c -66.33307,0.3453 6.28382,-97.7462 -19.23082,-26.5518 2.55083,64.0896 86.03534,-45.1116 22.15514,-11.4493 -38.32206,34.3262 12.85111,-52.5406 34.26713,-10.3487 15.03961,27.3757 -8.82781,51.5847 -37.19145,48.3498 z" />
    <path
       id="path907"
       style="fill:#483737;fill-opacity:1;stroke-width:0.299603"
       d="m 509.03394,1260.7979 c 0.8923,-27.6712 24.02122,-18.5754 8.21802,-5.5706 2.22204,5.1112 -5.09374,6.6791 -8.21802,5.5706 z" />
    <path
       id="path909"
       style="fill:#ac9393;fill-opacity:1;stroke-width:0.299603"
       d="m 649.9588,1938.5174 c -36.40459,-8.309 17.39466,-31.214 0,0 z" />
    <path
       id="path911"
       style="fill:#ac9393;fill-opacity:1;stroke-width:0.299603"
       d="m 622.90126,1927.5886 c -42.15601,-14.2739 27.12857,-11.0017 0,0 z" />
    <path
       style="fill:#ac9393;fill-opacity:1;stroke-width:0.847406"
       d="m 846.41015,2229.7837 c -8.61194,-4.1915 -15.82092,-6.4303 -18.47275,-5.7369 -0.92001,0.2406 -8.8731,-1.1109 -17.67354,-3.0033 -29.3331,-6.3077 -56.2734,-10.1858 -83.73981,-12.0544 -17.76488,-1.2086 -54.96406,-0.5163 -70.65521,1.315 -10.87792,1.2695 -11.56393,1.2563 -16.94811,-0.3247 -22.50169,-6.6075 -48.13581,-7.2066 -94.84147,-2.2163 -29.60342,3.163 -42.54691,3.9851 -58.21844,3.6976 l -14.4059,-0.2643 0.20601,-3.3896 c 0.26064,-4.2886 4.06369,-11.974 9.43491,-19.0667 2.29421,-3.0294 11.64692,-14.0302 20.7838,-24.4461 32.64336,-37.213 41.91214,-52.6539 44.82932,-74.6814 l 1.06363,-8.0314 7.76158,10.6967 c 11.63255,16.0315 20.57536,30.6918 20.57536,33.73 0,2.7025 -7.05534,-1.8575 -18.13308,-11.7197 -3.21514,-2.8623 -6.17607,-5.2042 -6.57985,-5.2042 -1.36256,0 -4.0925,5.4874 -4.09569,8.2327 -0.008,6.6577 7.17382,10.9167 34.55781,20.4944 21.44666,7.5011 26.75659,9.7373 30.75904,12.9538 1.75702,1.4119 3.69943,2.3957 4.31647,2.1861 0.6379,-0.2167 -0.98975,-1.7359 -3.77289,-3.5214 -7.92304,-5.083 -19.25695,-19.9901 -36.15121,-47.5486 -15.52618,-25.3267 -23.97902,-40.3956 -25.11826,-44.7783 -1.8031,-6.9365 -3.63916,-18.4951 -3.14321,-19.7875 0.67045,-1.7472 2.45612,0.08 13.40982,13.7215 11.8345,14.7384 19.99245,22.6976 25.96367,25.3311 5.83554,2.5737 26.7329,9.8362 28.30286,9.8362 3.26401,0 -0.0242,-3.3659 -13.38938,-13.7057 -29.87937,-23.116 -43.0959,-38.6653 -45.39322,-53.4054 -0.48342,-3.1017 -1.58846,-5.9232 -3.09185,-7.8942 -1.28675,-1.687 -2.17646,-3.2304 -1.97714,-3.4297 0.19933,-0.1993 4.71849,3.3223 10.0426,7.8258 12.05664,10.1984 24.04795,19.1803 32.2226,24.1357 3.44817,2.0902 8.36671,5.094 10.93011,6.6751 13.6025,8.3899 21.27539,10.9752 23.74436,8.0002 1.36227,-1.6414 1.39013,-1.6255 -4.78175,-2.7253 -9.41965,-1.6785 -17.80941,-5.6955 -26.29249,-12.5887 -18.23169,-14.8147 -33.99229,-35.109 -38.20184,-49.1908 -0.95513,-3.1951 -3.14183,-10.3853 -4.85932,-15.9782 -5.41652,-17.6385 -5.00697,-21.5351 1.90406,-18.1158 3.24575,1.6058 8.22433,5.7107 30.59332,25.2241 10.21219,8.9085 17.17938,13.4732 29.51079,19.3348 16.24154,7.7201 19.71769,6.9342 10.3079,-2.3306 -2.85557,-2.8116 -16.29755,-14.3814 -29.87105,-25.7107 -31.04228,-25.9098 -39.38281,-34.3146 -44.94532,-45.2917 -1.25678,-2.4801 -2.34645,-6.049 -2.42149,-7.9308 -0.11242,-2.8189 0.2982,-3.7952 2.33186,-5.5445 2.22818,-1.9166 3.00861,-2.0841 8.02246,-1.7215 7.71123,0.5575 18.65304,5.247 27.08766,11.6092 l 2.01291,1.5184 -8.6035,4.8713 c -12.413,7.0283 -12.41005,7.5761 0.023,4.2804 15.82968,-4.1961 28.79289,-4.2179 35.88705,-0.06 6.09273,3.5705 6.11051,3.6482 3.07133,13.4198 -4.5955,14.7753 -6.55745,27.6266 -4.41939,28.948 1.86436,1.1522 6.76419,-7.4082 10.76793,-18.8126 1.91903,-5.4662 0.46354,-5.3651 27.00995,-1.8757 34.33481,4.5132 58.95325,4.3515 76.38412,-0.5015 4.12997,-1.1498 11.30314,-2.6597 15.94038,-3.3552 13.21253,-1.9816 29.80191,-6.3796 62.32704,-16.5235 29.03813,-9.0564 42.29049,-12.7776 49.70077,-13.9557 4.75314,-0.7557 9.6989,1.7434 11.6697,5.8965 3.57633,7.5366 4.425,16.4381 5.57656,58.4914 1.03522,37.8046 4.22965,62.5861 12.01186,93.1849 10.94821,43.047 30.62535,84.6406 56.06033,118.5004 3.91979,5.2182 8.94065,11.5044 11.15746,13.9695 2.21681,2.465 3.85442,4.658 3.63912,4.8733 -0.2153,0.2153 -3.57161,-0.037 -7.45847,-0.5596 -11.91324,-1.6033 -22.74832,0.1576 -52.53232,8.5372 -6.29198,1.7703 -15.2533,3.8905 -19.91403,4.7116 -4.66073,0.8212 -9.88886,2.2031 -11.61807,3.0709 -5.5303,2.7756 -11.06181,2.1476 -20.18146,-2.291 z m -287.32262,-32.6359 c 5.36251,-0.9055 5.82643,-1.2218 4.62237,-3.152 -1.21597,-1.9494 -9.18616,-4.7545 -24.58945,-8.6545 -12.30526,-3.1155 -13.06133,-3.433 -18.21922,-7.6499 -5.93422,-4.8516 -13.6499,-8.8643 -15.60321,-8.1148 -4.04368,1.5517 -0.41927,9.7751 7.60587,17.2569 9.91486,9.2436 18.40032,12.1871 33.12274,11.49 4.66073,-0.2206 10.53814,-0.7497 13.0609,-1.1757 z m 18.55432,-13.1627 c 4.11391,-0.5049 5.4466,-2.33 3.02285,-4.1396 -0.87409,-0.6527 -6.67637,-3.3207 -12.89396,-5.9289 -16.93814,-7.1054 -16.83221,-7.0163 -22.85187,-19.2231 -5.70508,-11.5689 -9.78596,-16.7977 -13.10991,-16.7977 -2.60842,0 -3.15415,1.3049 -3.15415,7.5421 0,9.4956 4.96833,21.0186 12.28738,28.498 9.6801,9.8923 18.43821,12.2905 36.69966,10.0492 z m 18.21147,-10.067 c 3.32067,-1.4038 0.77407,-3.5185 -11.74456,-9.7527 -17.2596,-8.5953 -20.8087,-11.0225 -25.28119,-17.2902 -9.32259,-13.0644 -16.58531,-19.9911 -19.70553,-18.7937 -2.32126,0.8907 -1.08157,8.4326 2.58822,15.7461 8.31092,16.5627 22.79055,29.3377 35.29148,31.1368 4.74055,0.6822 16.27734,0.042 18.85158,-1.0463 z"
       id="path961" />
    <path
       style="fill:#ac9393;fill-opacity:1;stroke-width:1.69481"
       d="m 692.52641,1944.4614 c -8.49177,-2.3922 -13.56097,-10.1869 -20.07426,-30.8674 -7.06474,-22.4314 -10.91701,-29.3566 -17.9828,-32.3275 -9.11736,-3.8336 -13.65808,-1.3933 -24.94329,13.4048 -11.41205,14.9644 -15.35604,18.3484 -24.24582,20.8029 -7.15341,1.9752 -15.02971,-0.2872 -23.63367,-6.7884 -3.17843,-2.4016 -18.36294,-11.0315 -33.74336,-19.1776 -36.95714,-19.5738 -50.80467,-29.0538 -66.09765,-45.2503 -6.99109,-7.4042 -21.48173,-22.4119 -32.20142,-33.3506 -23.44867,-23.9276 -37.92005,-43.7912 -50.101,-68.769 -10.62518,-21.7877 -16.29933,-40.4013 -20.08621,-65.8913 -2.82582,-19.0209 -5.3449,-26.2818 -28.60989,-82.4636 -9.47981,-22.8925 -18.72803,-48.6725 -22.47454,-62.6492 -2.74653,-10.2461 3.0778,0.9167 13.70639,26.2696 14.40664,34.3648 22.97047,51.4971 32.34921,64.7159 8.14257,11.4765 17.59245,19.618 17.59245,15.1566 0,-6.4718 -10.5541,-30.6619 -29.67223,-68.0088 -18.94912,-37.0168 -33.03579,-68.4147 -33.03579,-73.6338 0,-1.2038 1.81913,-0.6004 4.46559,1.4813 2.45607,1.9319 5.22243,3.5126 6.14747,3.5126 3.6143,0 -0.32873,-17.1279 -9.524,-41.3708 -5.27168,-13.8985 -9.31419,-25.5407 -8.98335,-25.8715 1.05947,-1.0595 12.20368,18.109 28.25483,48.5994 36.081,68.5387 60.16719,94.169 90.50575,96.3082 l 10.31273,0.7271 -12.71109,-8.5898 c -24.85633,-16.7971 -43.00534,-36.3946 -62.28897,-67.2604 -11.46224,-18.3466 -63.55706,-120.7365 -62.71488,-123.263 0.32669,-0.9801 3.47685,4.2359 7.00034,11.591 3.5235,7.3551 8.56011,16.805 11.19246,20.9996 2.63236,4.1947 12.35513,22.5625 21.60616,40.8175 9.25103,18.2549 20.82091,38.9782 25.71083,46.0517 17.50414,25.3207 35.70358,38.0792 56.62749,39.6983 l 10.49323,0.8119 -9.75198,-5.6424 c -12.88321,-7.4541 -27.58732,-20.6416 -39.85016,-35.7399 -18.30584,-22.5386 -24.22344,-32.2961 -50.61254,-83.4549 -10.3286,-20.0233 -27.74359,-58.0944 -27.74359,-60.6505 0,-3.2357 11.33447,14.478 28.50598,44.5498 20.2895,35.5322 30.54627,50.4438 44.54785,64.765 13.25707,13.5597 29.05485,21.8717 43.78786,23.0392 5.18197,0.4106 9.04043,0.3465 8.57436,-0.1426 -0.46607,-0.489 -6.60669,-4.7322 -13.64581,-9.4293 -24.42156,-16.2963 -49.7475,-45.1218 -70.72168,-80.4942 -13.32884,-22.4787 -39.35375,-71.2493 -39.35375,-73.7487 0,-3.4861 5.23404,-2.0628 9.96598,2.71 2.54144,2.5634 11.72825,16.6254 20.41512,31.2488 17.67363,29.7517 28.82287,43.4428 39.64269,48.6806 25.01293,12.1085 20.62778,-5.2135 -10.04458,-39.6776 -22.93163,-25.7665 -32.13067,-38.0635 -38.03528,-50.8443 -7.39821,-16.0139 -7.40927,-16.367 -0.78482,-25.0427 7.48544,-9.8034 7.51013,-11.0574 0.10652,-5.4104 -6.769,5.1629 -11.70865,4.9534 -12.49037,-0.5299 -0.4356,-3.0555 0.76548,-4.3797 5.93184,-6.5396 16.21239,-6.7781 15.94233,-6.2256 3.61965,-7.4058 -6.23286,-0.597 -12.60996,-2.1457 -14.17134,-3.4415 -2.58577,-2.146 -2.41909,-2.4684 1.86949,-3.6153 9.20735,-2.4624 18.73391,0.2776 27.76371,7.9853 9.28939,7.9292 17.52633,10.3337 28.84794,8.4209 13.79219,-2.3302 18.2038,3.6336 16.24163,21.956 -1.60699,15.0058 -0.48747,17.86 7.00533,17.86 5.0596,0 5.80323,-0.4644 4.74899,-2.9659 -0.68749,-1.6313 -1.61994,-6.8946 -2.07212,-11.6962 -0.74481,-7.9091 -0.42026,-8.9936 3.45041,-11.5298 3.7762,-2.4743 4.93417,-2.523 9.96763,-0.4199 3.13229,1.3087 8.23847,5.2763 11.34707,8.8168 5.52597,6.2937 5.62584,6.6817 4.47833,17.397 -0.83028,7.7529 -0.63217,10.625 0.67706,9.8158 1.0179,-0.6291 1.85074,-3.3283 1.85074,-5.9982 0,-7.345 7.2894,-14.8002 17.40974,-17.8056 4.77473,-1.4179 20.92413,-3.3458 35.88755,-4.284 40.14648,-2.5174 42.91327,-3.0309 49.94006,-9.2669 8.13351,-7.2183 11.09795,-8.0813 14.57242,-4.242 2.60816,2.882 11.53637,30.5085 10.26915,31.7758 -0.2918,0.2918 -7.68362,2.422 -16.4263,4.7339 -17.97324,4.7528 -33.22092,10.4851 -34.83446,13.0959 -1.52352,2.4651 19.00066,0.3808 26.56534,-2.6978 9.77801,-3.9794 15.2533,-4.8826 15.2533,-2.5164 0,1.1596 -5.14799,7.3804 -11.43998,13.8241 -12.97929,13.2923 -12.23535,13.1401 8.64508,-1.768 8.25035,-5.8906 15.68633,-10.7101 16.52442,-10.7101 4.3783,0 0.43644,7.6156 -11.64909,22.5058 -5.12899,6.3193 -8.86173,11.9533 -8.29498,12.52 0.56673,0.5668 10.58616,-8.5253 22.26541,-20.2045 25.8683,-25.8683 27.04854,-30.0746 8.43849,-30.0746 -5.9556,0 -7.23819,-0.5125 -6.4464,-2.5759 0.54364,-1.4167 -0.62429,-6.3248 -2.5954,-10.9067 -4.21061,-9.7878 -4.68734,-20.7776 -1.03289,-23.8106 4.3477,-3.6082 18.44131,-1.146 28.21427,4.9292 4.79345,2.9798 9.71244,5.0352 10.93105,4.5676 3.64345,-1.3982 9.14923,-13.9767 9.13149,-20.8619 -0.0507,-19.6724 -26.15064,-45.8363 -58.93358,-59.0779 -14.54781,-5.8761 -28.67909,-9.2058 -39.06946,-9.2058 h -9.17723 l 1.04395,-5.2198 c 1.69403,-8.4701 6.13283,-16.4039 10.96574,-19.5997 17.65475,-11.6744 59.91107,12.5461 79.92149,45.8093 3.68034,6.1179 4.12099,6.3649 6.22359,3.4894 3.15147,-4.3098 2.76044,-13.8985 -0.89491,-21.9447 -5.37571,-11.833 -28.81895,-30.5174 -49.13884,-39.164 -35.21917,-14.9865 -65.70862,-20.9941 -106.54756,-20.9941 -19.57799,0 -24.43449,1.8715 -12.75554,4.9155 3.49554,0.911 9.02487,2.34 12.28738,3.1753 5.3974,1.3821 2.96585,2.2386 -26.98814,9.506 -34.65432,8.4077 -45.34857,12.1956 -28.94064,10.2506 8.44261,-1.0008 14.89628,-2.7738 24.57477,-6.7513 7.09894,-2.9174 -1.45546,4.5822 -22.78473,19.9754 -25.08419,18.1031 -22.88512,16.3597 -21.8902,17.3546 0.44138,0.4414 3.56338,-1.0736 6.93777,-3.3665 l 6.13527,-4.169 3.93726,6.3324 c 3.16486,5.0901 3.93727,8.7161 3.93727,18.4833 0,10.5271 -0.54904,12.7352 -4.10876,16.5244 -2.25982,2.4054 -5.77962,4.3735 -7.82179,4.3735 -5.09125,0 -12.10033,-5.8547 -15.91619,-13.295 -3.66516,-7.1463 -11.41892,-14.9493 -13.14242,-13.2258 -0.64594,0.646 0.57441,5.1614 2.71189,10.0343 6.92461,15.7864 10.421,28.371 8.74985,31.4936 -2.42363,4.5286 -28.61507,4.6895 -38.67926,0.2376 -21.24174,-9.3962 -46.1931,-49.1892 -46.1931,-73.6697 0,-7.8353 0.62962,-9.6167 4.46559,-12.634 5.46396,-4.298 5.22062,-4.2967 16.23227,-0.086 15.55759,5.9492 15.82773,6.375 12.30346,19.3947 -1.65604,6.1179 -2.59542,11.539 -2.08752,12.0469 0.5079,0.5079 3.08759,-2.0872 5.73264,-5.7669 6.759,-9.403 14.62322,-14.3519 23.10437,-14.5393 8.13001,-0.1797 8.15317,-0.2298 11.21034,-24.2529 2.17738,-17.1098 4.24625,-21.2308 17.91102,-35.6772 18.02435,-19.0554 38.95812,-29.2682 66.97569,-32.6748 33.96543,-4.1298 78.99517,7.0867 114.88909,28.6177 7.24545,4.3462 16.59888,9.3956 20.78541,11.2208 32.68945,14.2519 56.60199,42.4325 65.49493,77.185 3.70708,14.4867 3.69391,44.3711 -0.0264,59.8472 -3.42102,14.2312 -3.46142,13.5161 0.63945,11.3214 2.71614,-1.4537 3.63115,-1.2637 4.4724,0.9286 1.27923,3.3336 -5.03359,27.7546 -9.64964,37.3295 -3.98522,8.2664 -4.16097,11.4883 -0.77975,14.2945 3.20468,2.6596 3.18041,8.3351 -0.0539,12.6113 -3.63188,4.8018 -3.04102,7.0571 0.91169,3.48 12.65636,-11.4538 -4.6811,24.2189 -19.15566,39.4138 -5.89775,6.1912 -7.60089,6.6631 -10.3718,2.8736 -2.78541,-3.8092 -6.19388,-1.7973 -12.39392,7.3158 -11.77677,17.31 -21.20736,48.8261 -21.42047,71.5852 -0.14491,15.4739 0.44547,17.1665 10.79231,30.9416 11.26705,15.0003 22.24379,16.2361 36.51508,4.1113 15.17623,-12.8936 23.19716,-18.1047 27.86697,-18.1047 4.94167,0 7.8199,2.748 17.28154,16.4998 2.50229,3.6369 7.77869,8.8482 11.72533,11.5808 6.20644,4.2971 8.68247,4.9572 18.33035,4.8868 13.70545,-0.1 20.41582,-3.321 47.47296,-22.7868 20.53827,-14.776 23.84748,-16.6918 23.84748,-13.806 0,1.1137 3.44234,1.6782 8.85823,1.4524 8.7103,-0.3631 8.89046,-0.2716 10.78734,5.477 2.2924,6.9472 8.82816,9.9295 22.19068,10.1255 11.2858,0.1656 16.82107,-1.9968 24.69599,-9.648 16.27614,-15.8136 19.31594,-54.0372 6.45935,-81.2225 -7.79737,-16.4875 -26.04921,-29.9039 -34.68862,-25.4985 -11.4395,5.8332 -35.94329,-2.7138 -48.42124,-16.8895 -10.91921,-12.4048 -11.3294,-19.8426 -1.19913,-21.7431 5.7107,-1.0713 5.78448,-1.1946 4.36653,-7.2965 -4.04582,-17.4101 -0.77802,-52.982 8.59237,-93.5324 2.82576,-12.2285 5.13774,-24.6983 5.13774,-27.7107 0,-8.8221 7.8897,-22.1828 20.20609,-34.2177 10.24084,-10.0068 19.77563,-17.3655 46.55367,-35.9288 4.38975,-3.0431 7.53083,-6.2619 6.9802,-7.1528 -2.204,-3.5662 101.13403,-50.662 123.67433,-56.364 20.13414,-5.0934 37.50303,-3.5509 79.58073,7.0673 18.5843,4.6897 34.1362,8.1801 34.5598,7.7564 0.4236,-0.4236 -2.5848,-2.2083 -6.6853,-3.966 -8.7802,-3.7636 -17.8625,-11.0228 -19.2464,-15.3829 -1.3809,-4.3508 1.3021,-10.5251 11.8116,-27.1816 10.8485,-17.1939 15.7673,-32.6046 13.4285,-42.0716 -1.1814,-4.78235 -2.5326,-6.4529 -5.5664,-6.88214 -3.2286,-0.45684 -8.7318,4.19424 -28.3528,23.96284 -31.8982,32.138 -44.1039,40.1594 -61.10845,40.1594 -9.02743,0 -9.50746,-2.4511 -2.03935,-10.4133 8.06764,-8.6015 9.40457,-13.6872 10.69422,-40.6811 1.00678,-21.07321 0.77508,-25.61958 -1.53297,-30.08295 -1.49547,-2.89191 -2.98577,-5.258 -3.31178,-5.258 -0.32601,0 -5.2578,8.33044 -10.95953,18.5121 -27.01869,48.24765 -48.68428,72.61045 -77.33827,86.96615 -4.66073,2.335 -10.15268,4.7652 -12.20435,5.4003 l -3.7303,1.1547 4.2144,-10.3717 c 4.81205,-11.8425 11.81887,-40.4149 13.29321,-54.2068 1.71984,-16.0886 -3.8025,-17.6763 -11.6069,-3.337 -2.49344,4.5813 -5.67206,12.7356 -7.06359,18.1207 -1.39152,5.3851 -5.27345,13.9414 -8.62649,19.014 -8.40669,12.718 -36.4959,40.0188 -45.14333,43.8763 -8.55431,3.8159 -23.31851,16.8356 -28.38191,25.0284 -2.02272,3.2728 -3.88681,9.2731 -4.14243,13.334 -0.37999,6.0371 -2.03168,9.2662 -9.05883,17.7102 -12.17744,14.6327 -15.3925,20.82 -28.88245,55.5841 -31.34669,80.7815 -36.48048,127.4126 -18.05429,163.9903 9.31128,18.4838 8.72967,18.0468 19.88445,14.942 17.9438,-4.9944 25.98388,-0.1787 34.84539,20.8711 5.55761,13.2017 9.43818,18.4249 15.5785,20.9683 4.79195,1.9849 5.0158,2.5036 4.06711,9.4251 -1.3638,9.95 0.21441,15.0829 5.35803,17.4265 l 4.32065,1.9687 -3.46706,6.796 c -4.7532,9.317 -2.20532,8.365 5.88371,-2.1983 4.79152,-6.2572 6.90237,-7.9809 7.3026,-5.9632 1.55835,7.8564 -14.40424,26.8211 -22.5753,26.8211 -3.52224,0 -4.17804,-0.8066 -4.17804,-5.1389 0,-7.2501 -4.33304,-16.768 -10.67847,-23.4561 -11.89756,-12.5402 -29.21731,-15.5156 -44.88062,-7.7102 -10.73087,5.3474 -16.47274,12.4241 -25.52646,31.4605 -6.89876,14.5054 -14.67569,23.4876 -20.33592,23.4876 -6.36644,0 -15.19743,-7.0952 -30.70807,-24.6724 -8.97301,-10.1685 -19.39609,-20.6539 -23.16243,-23.301 -12.16429,-8.5494 -24.50823,-7.6159 -35.79803,2.7072 -3.17642,2.9044 -3.81333,5.2572 -3.81333,14.0866 0,12.8625 -3.14445,17.6041 -9.09474,13.714 -11.19398,-7.3183 -15.49921,-30.122 -8.06553,-42.7212 3.64676,-6.1808 3.65549,-6.3202 0.34144,-5.4535 -4.75839,1.2443 -5.75121,-3.2171 -2.85644,-12.8357 6.99154,-23.2311 21.36849,-34.5532 35.62681,-28.0567 6.23895,2.8427 11.55776,-1.3957 17.79157,-14.1775 6.88969,-14.1267 9.19591,-34.4837 7.8292,-69.1086 -0.64,-16.2136 -0.30605,-31.4598 0.87233,-39.8281 3.1261,-22.1998 3.89397,-50.9786 1.66621,-62.4488 -4.8884,-25.1695 -19.17753,-50.8871 -40.40004,-72.712 -11.17203,-11.4891 -13.24449,-14.6252 -16.54546,-25.0366 -5.40294,-17.0412 -7.50542,-19.6684 -16.55604,-20.6886 -5.08282,-0.5729 -9.73364,-2.5958 -14.09593,-6.1311 -3.58068,-2.9019 -10.32364,-8.2115 -14.98437,-11.7992 -8.52187,-6.5598 -13.83741,-14.6893 -38.4436,-58.7951 -10.24622,-18.366 -15.72205,-24.57472 -21.67387,-24.57472 -5.69398,0 -9.45383,6.27842 -12.52029,20.90722 -2.19107,10.4527 -2.09233,11.917 1.68251,24.9498 6.14215,21.2061 5.09452,23.4476 -5.30142,11.3429 -7.72631,-8.9963 -31.3934,-43.8134 -36.13598,-53.16029 -8.53191,-16.81507 -17.66936,-22.02797 -23.36769,-13.33123 -4.7445,7.24103 -5.1885,31.24032 -0.8851,47.84212 4.71216,18.1788 4.61188,23.3024 -0.55726,28.4716 -5.58105,5.581 -17.12998,5.5423 -39.26408,-0.1317 -9.20796,-2.3605 -22.90887,-4.5643 -30.44648,-4.8975 -37.94204,-1.677 -37.2057,-18.3553 3.37298,-76.39882 35.34592,-50.55863 43.3334,-63.23859 59.95443,-95.17647 19.18008,-36.8552 28.72524,-51.81684 42.98843,-67.38259 6.41944,-7.0057 9.19849,-11.18528 7.82237,-11.76458 -2.40194,-1.01114 7.85501,-10.97015 31.89216,-30.9658 23.01822,-19.14804 40.03279,-29.94341 30.37628,-19.27308 -3.65217,4.03559 -2.19217,6.67131 1.59668,2.88247 3.08075,-3.08075 4.81579,-3.47232 35.68917,-8.05425 37.48771,-5.56358 58.35219,-11.65934 70.40307,-20.56895 4.89551,-3.6194 6.73457,-3.84478 30.11346,-3.69046 23.66253,0.15619 36.0884,1.4848 85.07845,9.09684 11.65905,1.81158 33.50081,4.36382 48.53727,5.67164 37.18289,3.23407 45.40766,7.0918 83.26127,39.05276 10.5087,8.8728 22.52067,18.58408 26.69328,21.58063 4.17263,2.99655 7.58659,6.13919 7.58659,6.98366 0,3.39276 18.61847,40.41888 25.4363,50.58457 9.44558,14.08379 31.90197,36.10942 45.80512,44.92649 6.02632,3.82175 18.81562,11.32432 28.42082,16.67238 22.7612,12.67326 40.5442,26.20394 56.7968,43.21531 19.3668,20.27096 47.1964,64.13635 41.826,65.92655 -4.3309,1.4436 -8.4662,7.2125 -8.4662,11.8107 0,7.6511 7.3294,20.1271 24.5893,41.8557 14.6167,18.4009 16.6211,20.289 21.0478,19.8267 10.751,-1.123 12.6306,10.1869 6.8005,40.9187 -2.4865,13.1067 -3.6273,26.9557 -3.9788,48.3021 -0.5437,33.0137 -1.9248,42.8381 -14.5707,103.6513 -8.6339,41.5195 -14.3283,71.7468 -15.964,84.7406 l -0.9601,7.6266 4.1005,-4.9509 c 6.8281,-8.2443 12.8093,-30.2528 19.842,-73.0104 7.2932,-44.341 11.4063,-63.5554 13.605,-63.5554 2.7179,0 2.4185,52.9592 -0.4383,77.5163 -1.9408,16.6834 -2.7571,19.1626 -5.9113,17.9522 -2.8287,-1.0855 -3.2472,3.0022 -0.5804,5.6691 3.7933,3.7933 -9.4416,62.2867 -22.3661,98.8501 -12.5281,35.4421 -17.9105,61.0133 -12.8423,61.0133 1.3464,0 4.0458,-3.6227 5.9985,-8.0504 4.8598,-11.0193 4.5438,-7.4673 -1.5823,17.7884 -3.834,15.8059 -6.9977,24.577 -11.7701,32.6322 -9.0092,15.2063 -11.8633,22.2821 -27.1407,67.2861 -7.3417,21.6269 -16.4439,45.478 -20.2271,53.0024 -7.1935,14.3071 -57.9867,92.14 -76.34372,116.9852 -15.35553,20.7828 -34.37972,42.4345 -54.44971,61.97 -16.75282,16.3067 -32.22428,27.6762 -68.78181,50.5457 -18.91484,11.8326 -20.58628,13.807 -10.43887,12.3312 l 7.46249,-1.0854 -4.9391,2.7221 c -11.96966,6.5966 -90.11197,22.523 -123.86657,25.2454 -7.45717,0.6015 -16.99048,2.1047 -21.18514,3.3406 -12.06913,3.5559 -15.73624,3.9558 -21.46833,2.341 z m 111.29334,-55.1421 c 0,-20.2272 -18.06641,-34.0218 -53.38657,-40.7633 -28.485,-5.4369 -68.75014,-0.2005 -81.35095,10.5796 -3.92145,3.3548 -4.30911,4.1568 -1.69481,3.5062 14.10787,-3.5108 28.8559,-4.992 49.99694,-5.0214 36.22375,-0.051 52.99062,4.8361 69.4637,20.2447 4.38297,4.0998 9.33842,10.4909 11.01212,14.2025 3.76748,8.3547 5.95957,7.3438 5.95957,-2.7483 z m 32.20141,-64.4323 c 14.82788,-4.0478 24.85742,-10.4925 37.86801,-24.3332 19.18045,-20.4042 33.98592,-52.2217 47.66349,-102.4306 16.28114,-59.7663 55.70689,-133.5088 92.17554,-172.4064 l 9.0733,-9.6776 11.9539,8.3949 c 19.3629,13.598 21.9715,10.6234 6.8399,-7.7997 -14.1176,-17.1885 -50.08135,-53.309 -53.0411,-53.2723 -1.39822,0.017 -3.57429,0.6856 -4.83572,1.4849 -2.95547,1.8728 -1.15812,5.4544 10.78427,21.4901 17.27085,23.1904 20.17585,34.4285 11.36115,43.9497 -2.589,2.7965 -6.37725,7.4599 -8.41838,10.3633 -5.81232,8.2676 -17.71544,12.289 -50.10483,16.9276 -30.09189,4.3096 -42.96481,7.1108 -57.70586,12.5569 -15.89799,5.8736 -74.49201,19.8889 -95.76054,22.9053 -42.41302,6.0153 -72.57602,-0.3047 -100.07784,-20.9692 -16.72971,-12.5705 -74.19775,-28.8479 -114.96618,-32.5635 -29.30292,-2.6706 -52.92298,0.1122 -82.07964,9.6705 -2.62841,0.8616 -2.66018,0.3021 -0.4076,-7.1826 1.39651,-4.6402 1.80745,-8.7524 0.95943,-9.6004 -2.18242,-2.1824 -12.1321,10.2271 -21.30752,26.5752 -4.39192,7.8253 -12.12653,19.4246 -17.18805,25.7763 -5.06151,6.3517 -9.20275,12.3184 -9.20275,13.2593 0,0.9409 8.40141,-6.6646 18.66978,-16.9011 l 18.66975,-18.6119 9.71834,5.0024 c 14.44984,7.4378 30.19835,24.3054 39.67416,42.4933 4.35782,8.3644 13.78214,32.3678 20.94292,53.3409 7.1608,20.973 14.41526,40.8684 16.12102,44.212 1.70577,3.3436 4.73771,12.4958 6.73765,20.3382 11.639,45.6405 49.3995,81.6594 99.62438,95.0295 16.99275,4.5236 50.23426,6.1941 104.56727,5.255 30.43616,-0.526 44.99579,-1.449 51.69175,-3.2768 z M 695.70543,1375.8798 c 7.69692,-3.9004 9.44571,-4.1973 14.9699,-2.5422 3.4402,1.0307 9.2552,1.874 12.92224,1.874 11.06987,0 13.9671,-6.2222 6.78505,-14.5719 -5.67006,-6.5918 -20.01658,-7.737 -30.30595,-2.4191 -8.20988,4.2432 -18.83735,11.9175 -17.85872,12.8961 0.356,0.356 3.07543,-0.049 6.04316,-0.9003 6.5268,-1.8718 7.13524,0.3877 1.15886,4.3036 -3.79844,2.4888 -5.69545,5.776 -3.33329,5.776 0.49707,0 4.8255,-1.9873 9.61875,-4.4162 z m 141.9074,-33.6237 c 6.00555,-5.4349 16.77414,-5.2257 41.59406,0.8082 18.9174,4.599 23.66537,5.2311 27.19954,3.6208 4.18269,-1.9058 7.16578,-6.345 5.43011,-8.0807 -0.47845,-0.4784 -7.62731,-2.5315 -15.88638,-4.5624 -12.63618,-3.1073 -14.07687,-3.7857 -9.08884,-4.2801 3.26023,-0.3232 13.09151,0.2573 21.84731,1.2899 8.75579,1.0326 16.17198,1.6252 16.4804,1.3167 0.30842,-0.3084 -1.30813,-5.8575 -3.59232,-12.3314 -5.37139,-15.2234 -5.50168,-24.426 -0.41127,-29.0483 4.60897,-4.1851 11.96366,-6.1288 18.09483,-4.7822 4.43579,0.9743 4.52336,1.2516 4.4432,14.0691 -0.0656,10.4766 0.41894,13.0752 2.43761,13.0752 3.54962,0 6.89619,-7.8603 8.03199,-18.8652 0.88428,-8.5679 1.53473,-9.759 7.47577,-13.6906 11.86975,-7.8551 18.82207,-4.8113 28.60519,12.5234 2.79862,4.9589 5.76295,9.0162 6.58739,9.0162 2.53857,0 4.00598,-5.3915 5.07408,-18.643 0.9157,-11.36 1.4143,-12.7666 4.6909,-13.2334 2.0165,-0.2872 8.1178,1.7106 13.5585,4.4397 15.1184,7.5836 17.5188,8.0682 17.5188,3.5368 0,-2.0847 -2.2721,-7.8164 -5.0492,-12.7371 l -5.0491,-8.9467 4.3524,-5.1725 c 6.5417,-7.7745 15.2628,-7.2083 33.2173,2.1562 7.7283,4.0309 16.9115,9.0636 20.4071,11.1837 8.1193,4.9246 8.3059,2.0123 0.4827,-7.5349 l -5.8728,-7.167 8.7082,-1.1551 c 10.7846,-1.4307 14.9011,-3.5397 14.9011,-7.6345 0,-2.4432 2.6857,-3.9807 11.7776,-6.7423 17.9288,-5.4457 17.3071,-7.6771 -1.7667,-6.3411 -43.5506,3.0504 -53.5216,3.2549 -59.6747,1.2243 -3.4457,-1.1373 -6.265,-3.0736 -6.265,-4.3029 0,-2.5736 6.6699,-8.4821 22.6464,-20.0614 6.1874,-4.4845 11.2498,-8.8698 11.2498,-9.7452 0,-0.8753 -0.2219,-1.5916 -0.4931,-1.5916 -0.2713,0 -11.6952,5.72 -25.3865,12.7111 -13.6913,6.9911 -26.4347,12.7111 -28.3186,12.7111 -5.5775,0 -4.0538,-5.086 5.0774,-16.9481 14.3629,-18.6585 15.5067,-20.3377 13.8527,-20.3377 -0.8815,0 -2.6431,1.2535 -3.9147,2.7857 -5.0143,6.0419 -26.3845,19.4906 -34.9082,21.9686 -10.38366,3.0186 -16.34204,2.1657 -23.22788,-3.3249 -11.24312,-8.9649 -0.13744,-18.515 30.79758,-26.4839 8.2034,-2.1132 9.4619,-5.8526 2.9659,-8.8124 -2.3304,-1.0618 -4.237,-3.2395 -4.237,-4.8394 0,-3.6688 -12.3882,-9.1474 -26.41046,-11.6798 -6.13168,-1.1074 -23.64584,-1.5988 -43.2177,-1.2125 -30.28743,0.5977 -33.98766,1.0129 -46.46646,5.2138 -7.45717,2.5103 -17.57353,6.8173 -22.48081,9.571 l -8.92233,5.0068 1.08859,-6.8076 c 0.59871,-3.7442 0.63302,-6.8076 0.0763,-6.8076 -0.5568,0 -4.98188,5.9106 -9.83353,13.1348 -4.85164,7.2241 -14.90607,19.8186 -22.3432,27.9878 -7.43713,8.1692 -13.06714,15.308 -12.51116,15.864 0.55598,0.5559 6.86122,-3.7697 14.01167,-9.6125 l 13.00078,-10.6233 -1.13229,7.4705 c -0.62276,4.1087 -1.50967,9.4597 -1.97091,11.8911 -0.53822,2.8372 -4.84713,7.6937 -12.02962,13.5585 -19.09834,15.5944 -28.26237,25.6307 -34.7944,38.1059 -7.67173,14.6518 -12.07921,30.2903 -9.75884,34.626 2.23269,4.1718 7.60609,2.4977 12.31113,-3.8356 2.07289,-2.7903 6.53917,-8.0348 9.92505,-11.6544 9.8072,-10.4843 18.71587,-8.9339 39.26565,6.8334 6.33907,4.8639 12.20389,8.602 13.03296,8.3069 0.82907,-0.295 3.29356,-3.2057 5.47665,-6.4682 7.54381,-11.2738 20.13436,-7.8629 30.33214,8.2174 6.24647,9.8496 6.48615,17.771 0.65337,21.5928 -5.41189,3.546 -12.16321,2.371 -31.78966,-5.5326 -15.66772,-6.3093 -25.53046,-7.5194 -29.43819,-3.6116 -1.29909,1.299 -3.96201,10.3366 -5.91758,20.0835 -4.84808,24.1632 -5.50911,29.7192 -2.39545,20.1338 1.38578,-4.2661 4.02945,-9.123 5.87483,-10.793 z m -349.36698,-4.6694 c 2.84828,-2.8482 2.53884,-8.135 -0.47616,-8.135 -1.38046,0 -2.95238,-2.0974 -3.49316,-4.6608 -1.94547,-9.222 -5.71841,-15.677 -9.16317,-15.677 -8.96792,0 -8.76914,16.9824 0.3323,28.3881 2.15118,2.6958 10.13625,2.7487 12.80019,0.085 z m 17.57733,-5.8555 c 4.53441,-4.1036 4.08776,-14.4999 -0.87059,-20.2644 -6.44197,-7.4892 -9.58854,-4.6913 -9.58854,8.526 0,8.6742 0.62397,11.3487 2.96592,12.7127 3.90521,2.2746 3.90287,2.2749 7.49321,-0.9743 z m 34.96182,-11.0926 c 4.82567,-4.8256 -1.25526,-18.3039 -8.2581,-18.3039 -2.59161,0 -3.26662,1.2029 -3.26662,5.8215 0,12.0207 5.75411,18.253 11.52472,12.4824 z"
       id="path1003" />
    <path
       style="fill:#000000;fill-opacity:1;stroke-width:0.599206"
       d="m 567.10043,1100.3976 c -4.28432,-2.1745 -10.62093,-5.1604 -14.08135,-6.6352 -5.55946,-2.3696 -6.8844,-2.7005 -11.38492,-2.8437 -3.46597,-0.1102 -6.20791,-0.5837 -8.58202,-1.482 -13.26433,-5.0189 -26.18071,-24.9169 -32.48033,-50.0369 -4.11251,-16.3987 -3.97792,-29.0615 0.30888,-29.0615 2.71513,0 8.0648,7.0791 13.45874,17.8095 2.80979,5.5897 3.32648,7.1208 3.32648,9.8575 0,6.9647 3.11181,14.7718 9.00542,22.5932 4.3906,5.8268 13.54613,14.6524 21.05403,20.2955 6.33924,4.7647 18.08011,12.0703 23.06825,14.3539 2.81378,1.2882 3.19769,1.6769 3.19769,3.2369 0,0.9752 0.39071,2.7081 0.86824,3.851 0.47753,1.1428 0.67976,2.0639 0.4494,2.0467 -0.23035,-0.017 -3.92418,-1.8104 -8.20851,-3.9849 z"
       id="path1014" />
    <path
       style="fill:#ffffff;stroke:#ffffff;stroke-width:3;stroke-miterlimit:4;stroke-dasharray:none;stroke-opacity:1"
       d="m 383.5058,991.80478 c -3.08159,-7.11315 -6.16738,-11.59849 -8.80677,-12.80108 -5.62854,-2.56454 -17.80351,-13.79928 -17.80351,-16.42861 0,-5.12524 15.99253,-5.73533 26.40279,-1.00722 13.96886,6.34434 17.56711,17.22048 9.46268,28.60209 -1.82769,2.56675 -3.59046,6.44834 -3.91726,8.62574 -0.46492,3.0976 -1.62623,1.5767 -5.33793,-6.99092 z"
       id="path852"
       inkscape:connector-curvature="0"
       transform="translate(157.07955,600.27687)" />
    <path
       style="fill:#ffffff;stroke:#ffffff;stroke-width:3;stroke-miterlimit:4;stroke-dasharray:none;stroke-opacity:1"
       d="m 282.55158,680.30915 c -7.79797,-1.75976 -22.45945,-3.91117 -32.58106,-4.78092 -19.64588,-1.68816 -30.77251,-5.51297 -31.77358,-10.92225 -1.54172,-8.33067 34.0326,-29.66987 60.73725,-36.43315 6.9911,-1.77058 15.76175,-4.00006 19.49034,-4.95441 3.72858,-0.95434 10.76618,-3.49393 15.63911,-5.64354 4.87293,-2.14961 9.26028,-3.50798 9.74966,-3.0186 0.48938,0.48938 -2.92143,7.23104 -7.57957,14.98147 -14.33805,23.8563 -15.7156,38.67321 -4.68979,50.44341 l 3.57215,3.81333 -9.19319,-0.14289 c -5.05625,-0.0786 -15.57335,-1.58269 -23.37132,-3.34245 z"
       id="path854"
       inkscape:connector-curvature="0"
       transform="translate(157.07955,600.27687)" />
    <path
       style="fill:#ffffff;stroke:#ffffff;stroke-width:3;stroke-miterlimit:4;stroke-dasharray:none;stroke-opacity:1"
       d="m 397.38362,670.93667 c 3.04296,-3.8685 3.32755,-5.94928 2.42118,-17.70274 -1.63066,-21.14598 3.62189,-28.91665 17.04148,-25.21132 11.54994,3.18909 34.95868,28.7886 34.95868,38.23038 0,3.9061 -0.0219,3.90953 -22.45625,3.52276 -18.5877,-0.32047 -23.45,0.12378 -28.22477,2.57876 -7.54459,3.87909 -7.82367,3.7733 -3.74032,-1.41784 z"
       id="path856"
       inkscape:connector-curvature="0"
       transform="translate(157.07955,600.27687)" />
    <path
       style="fill:#ffffff;stroke:#ffffff;stroke-width:3;stroke-miterlimit:4;stroke-dasharray:none;stroke-opacity:1"
       d="m 650.0656,673.68894 c 7.24186,-14.19521 35.75962,-45.85383 49.08995,-54.49656 13.43127,-8.70817 17.0177,-6.06033 13.81829,10.20198 -1.5824,8.04315 -1.4694,11.67971 0.61111,19.66732 2.814,10.8037 2.09098,16.93603 -2.20308,18.68543 -1.54713,0.6303 -12.1085,1.03423 -23.4697,0.89763 l -20.65674,-0.24837 -8.35747,6.00425 c -10.96921,7.88059 -13.1271,7.70672 -8.83236,-0.71168 z"
       id="path858"
       inkscape:connector-curvature="0"
       transform="translate(157.07955,600.27687)" />
    <path
       style="fill:#ffffff;stroke:#ffffff;stroke-width:3;stroke-miterlimit:4;stroke-dasharray:none;stroke-opacity:1"
       d="m 795.14859,672.1643 c -0.63877,-1.03356 1.2355,-8.86006 4.16505,-17.39224 7.23666,-21.07647 6.38854,-26.63577 -6.09328,-39.94079 -5.07779,-5.41267 -9.23235,-10.79552 -9.23235,-11.96189 0,-3.96064 11.6233,-2.20125 31.77335,4.80945 10.95512,3.81156 27.27042,9.46855 36.25623,12.57108 25.63618,8.85141 30.53871,12.38924 27.63918,19.94531 -4.43192,11.54939 -79.56269,39.97104 -84.50818,31.96908 z"
       id="path860"
       inkscape:connector-curvature="0"
       transform="translate(157.07955,600.27687)" />
    <path
       style="fill:#ffffff;stroke:#ffffff;stroke-width:3;stroke-miterlimit:4;stroke-dasharray:none;stroke-opacity:1"
       d="m 642.90051,1119.5282 c -12.47181,-2.6055 -16.46189,-10.7067 -20.02872,-40.6648 -1.71095,-14.3703 -4.00169,-24.396 -7.49512,-32.803 -0.86084,-2.0716 -0.44824,-2.9659 1.36834,-2.9659 1.43043,0 13.52098,-3.4474 26.86787,-7.6608 29.43918,-9.2937 39.39167,-10.7625 46.83685,-6.9124 5.95924,3.0816 6.55243,4.815 7.88716,23.0473 3.22174,44.0085 3.2306,43.3981 -0.74911,51.6191 -5.74731,11.8724 -15.28559,16.7413 -33.81313,17.2603 -7.98828,0.2238 -17.38165,-0.1901 -20.87414,-0.9198 z"
       id="path862"
       inkscape:connector-curvature="0"
       transform="translate(157.07955,600.27687)" />
    <path
       style="fill:#ffffff;stroke:#ffffff;stroke-width:3;stroke-miterlimit:4;stroke-dasharray:none;stroke-opacity:1"
       d="m 530.6137,1107.2635 c -11.18576,-0.7823 -23.57907,-1.003 -27.54069,-0.4904 -4.73425,0.6125 -7.20295,0.2826 -7.20295,-0.9626 0,-8.8662 29.7366,-66.3778 40.0436,-77.4458 l 7.16704,-7.6962 17.49991,0.6478 c 14.46607,0.5355 18.5694,1.3088 23.66897,4.4605 13.51101,8.3502 14.6138,22.6517 4.76591,61.8065 l -5.43487,21.6089 -16.31459,-0.2532 c -8.97303,-0.1392 -25.46658,-0.8932 -36.65233,-1.6755 z"
       id="path864"
       inkscape:connector-curvature="0"
       transform="translate(157.07955,600.27687)" />
    <path
       style="fill:#ffffff;stroke:#ffffff;stroke-width:3;stroke-miterlimit:4;stroke-dasharray:none;stroke-opacity:1"
       d="m 467.05827,1021.9094 c -2.33037,-1.3322 -6.27585,-2.4492 -8.76773,-2.4822 -4.79824,-0.064 -13.82566,-6.6381 -16.83457,-12.2603 -6.17581,-11.5396 18.07739,-24.85591 32.08117,-17.61428 6.42823,3.32417 8.11489,8.79951 5.68144,18.44338 -0.9901,3.9238 -2.23908,9.2315 -2.77551,11.7949 -1.0897,5.2072 -3.16288,5.6752 -9.3848,2.1185 z"
       id="path866"
       inkscape:connector-curvature="0"
       transform="translate(157.07955,600.27687)" />
    <path
       style="fill:#ffffff;stroke:#ffffff;stroke-width:3;stroke-miterlimit:4;stroke-dasharray:none;stroke-opacity:1"
       d="m 718.7214,1021.0104 c -2.41517,-7.6095 -1.30022,-15.8075 2.57686,-18.947 4.964,-4.01955 9.57884,-3.82601 18.58187,0.7793 14.58484,7.4607 13.03522,13.5314 -4.42449,17.3331 -5.46624,1.1903 -11.20439,2.6944 -12.75143,3.3425 -1.99446,0.8356 -3.1532,0.106 -3.98281,-2.5079 z"
       id="path868"
       inkscape:connector-curvature="0"
       transform="translate(157.07955,600.27687)" />
    <path
       style="fill:#ffffff;stroke:#ffffff;stroke-width:3;stroke-miterlimit:4;stroke-dasharray:none;stroke-opacity:1"
       d="m 569.59436,1218.2802 c -38.33971,-3.8728 -63.72192,-11.6216 -88.35189,-26.9728 -21.94907,-13.6803 -27.52524,-24.1428 -17.02871,-31.9507 6.53453,-4.8607 30.58867,-5.9409 44.19753,-1.9847 11.40429,3.3153 13.92454,7.2108 16.94132,26.1855 l 2.05373,12.9175 3.21942,-13.2822 c 1.77068,-7.3052 4.09404,-14.4783 5.16302,-15.9402 1.19854,-1.6391 5.45189,-2.9459 11.09535,-3.4089 16.72617,-1.3721 22.9234,8.4086 20.95346,33.0698 -0.75708,9.4778 -0.54829,12.4142 0.75213,10.5777 0.99008,-1.3982 1.81182,-5.757 1.82609,-9.6862 0.0669,-18.4251 30.08535,-33.4434 43.57284,-21.7996 4.62779,3.9952 4.74389,4.5149 4.33151,19.3903 -0.23305,8.4068 0.27569,15.7173 1.13054,16.2457 0.85485,0.5283 2.84684,-3.0494 4.42666,-7.9504 6.15369,-19.0903 11.07802,-28.0675 16.91547,-30.8376 13.3088,-6.3154 22.12116,-0.182 28.12147,19.5727 1.95047,6.4215 4.17999,11.6755 4.95451,11.6755 0.77449,0 2.30987,-4.3853 3.41194,-9.7452 3.24617,-15.7875 4.24527,-18.1907 7.78122,-18.7167 4.07488,-0.6062 14.63285,9.2402 18.96733,17.6889 l 3.08161,6.0067 2.04199,-9.0568 c 2.91464,-12.9274 5.28929,-15.999 5.32189,-6.8839 0.049,13.6925 -9.86812,28.9742 -21.03701,32.417 -5.26093,1.6216 -111.30199,3.7354 -123.84342,2.4686 z"
       id="path870"
       inkscape:connector-curvature="0"
       transform="translate(157.07955,600.27687)" />
  </g>
</svg>
