<svg xmlns="http://www.w3.org/2000/svg" width="1383.991" height="1702.797"><path d="M815.89 2036.823c-60.36-12.906-122.085-28.18-186.468-16.25-66.771-14.898-141.85-1.791-207.04 5.916 10.047-18.984-25.666-4.63 11.792-19.393 32.047-.454 103.226-127.66 61.164-70.025-46.03 37.359 42.342-48.017 24.239-79.984-1.446-64.35 26.65-158.64-47.951-184.82-49.415-46.03-129.592-57.125-159.128-117.222-42.836-44.57-56.462-109.403-55.395-169.54 4.547-52.016 16.43-57.02-22.242-68.93-32.857-65.34 17.764-137.635-.828-206.643-6.368-62.091-65.72-147.814-6.587-196.765-1.64-55.65-93.169 35.763-114.552 63.877-18.696 27.169-80.467 87.941-28.547 28.985 30.476-55.13 99.22-86.41 131.024-130.473.463-26.106-8.851-118.288 30.09-59.734-1.853-67.065 48.078-118.09 85.518-168.803 40.897-63.43 29.844-143.648 68.905-208.707 8.326-87.781 115.492-93.8 184.766-95.25 88.996-11.884 178.526-2.99 267.993.503C915.245 358.95 967 376.08 994.588 449.476c13.903 76.847 89.36 117.565 112.162 190.025 11.782 80.502 81.82 100.727 148.118 121.217 62.766 29.118 126.123 58.482 149.245 130.438 31.377 45.418-17.823.602-32-11.61-51.488-60.015-129.75-90.848-204.729-109.947 6.984 38.215-2.872 41.29 15.612 8.89-2.55 33.424 4.424 141.445-19.73 115.539-21.71 48.716 54.136-30.724 48.847 32.18 12.68 80.666-39.74 152.5-28.936 233.284 14.25 63.12 13.098 148.4-51.731 183.245 2.11 44.786-6.656 85.531-21.053 129.085-4.108 54.978-43.047 84.971-85.67 111.418 28.1-39.145 10.349-64.92-15.788-12.744-17.29 21.672-17.388 52.193-25.447 49.177-24.489 25.866-50.867 39.645-80.892 55.322-47.589 19.058-25.218 65.463-30.424 119.128-2.075 71.617 25.007 136.64 60.99 195.769 27.404 26.579 66.97 51.504 6.284 38.188-43.244-12.206-79.243 21.84-123.556 8.743m36.621-5.48c36.384-23.434 125.461 6.591 63.204-46.55-47.355-74.794-62.185-163.702-58.797-251.143-18.965-36.764-40.97 50.977-63.49 7.556-25.637 38.38-34.364-10.645-56.379 19.537-16.67-14.044-58.34 22.365-63.227 4.32-13.57 28.03-25.423-33.551-45.314 15.804-1.217-42.343-69.729-69.65-97.146-67.378-6.68 41.238 109.724 87.309 76.804 92.213-34.329-15.146-100.07-91.349-61.786-13.944 2.679 37.837 124.03 71.204 36.662 53.865-23.534-14.213-61.638-66.672-47.843-30.902-5.094 25.462 120.638 100.185 34.602 61.361-29.264-27.333-50.904-65.38-30.622-3.122 7.146 35.712 117.744 109.522 32.13 63.118-38.42 19.924-60.314-61.234-15.533-9.08 20.313 19.581-38.418-86.749-32.639-23.032-1.034 51.022-136.258 121.65-28.385 109.954 76.019-19.687 151.836 5.64 230.17-6.144 41.768 12.265 85.944 19.106 127.589 23.567m-324.398-33.106c-48.547-4.41-56.153-49.658-8-11.38 20.72-1.193 44.62 13.326 8 11.38m19.878-13.058c-47.708-1.088-44.178-90.916-16.17-19.772 10.861 10.127 56.636 18.46 16.17 19.772m16.58-9.412c-44.922-7.175-63.216-86.765-16.011-21.046 10.298 9.859 53.448 20.441 16.01 21.046m71.311-206.945c5.628-31.8-19.295 6.475 0 0m62.189-12.793c-13.564-.64-7.49 14.135 0 0m21.375-1.54c-4.595-6.345-7.955 7.612 0 0m27.333-1.89c3.361-9.987-9.622 1.284 0 0m35.97-6.363c-.003-27.69-25.673 21.781 0 0m35.914-6.528c3.026-42.82-26.2 32.05 0 0m-166.57.448c-2.394-14.73-4.213 8.873 0 0m20.02-2.334c52.873 2.83 146.795 5.11 186.526-52.347-2.202-23.065 31.702-64.979 32.244-18.986 2.868-60.185 43.183 14.608 54.797-47.424 37.875-33.4 57.634-66.078 85.793-107.66 28.56-48.337 45.421-112.656 71.384-170.526-6.78-44.83 13.033-86.655 18.946-137.493-16.426 10.423 24.185-42.913 9.054-63.667 28.229 46.77 21.662-194.806 8.291-68.838-4.342 32.11-34.534 176.47-22.604 75.426 15.723-65.192 25.438-135.394 26.846-193.638-4.69-31.199-.059-54.195-8.822.208-18.026 36.478 2.218-106.797-9.125-9.22-16.793 42.065 1.27-70.977-38.529-30.703-37.638-29.466-74.299-15.918-99.12-9.898-39.5 1.4-59.035 14.72-82.549 12.283-16.296 28.523-26.479 6.994-41.59 17.821-19.751 12.62-27.674 17.316-42.01 28.786-50.055 13.108-66.22 111.778-69.654 162.994-8.462-39.94-6.9-53.585-8.32-3.864 1.244 28.942 3.375 86.571 9.515 24.995 17.323 19.882-17.228 119.208 52.501 93.384 44.01 6.93 134.203 33.954 50.348 65.176-30.084 22.957-51.248 27.233-50.896 24.201-53.206 1.737-76.527 55.115-107.831 76.253-37.277-49.031-100.593-64.098-154.085-66.315-69.5-39.215-40.84-71.139 30.963-76.555 43.576-22.34 73.672 1.167 20.947 7.541-38.657 4.515-112.944 10.525-47.705 51.163 39.172 30.357 61.92-63.468 96.36-4.818-11.925 28.644 64.332 69.449 62.68 77.932 24.362-32.281 55.645-126.4 106.308-84.874 24.983-37.077 107.003-13.753 52.67-41.164-41.347-32.821-118.235 2.82-119.738-52.03-22.705-77.415-9.96-159.094 33.742-225.476 11.995-44.745 44.114-133.134 72.788-143.159-27.2 74.546 36.177-60.617 15.302 14.856-16.203 41.247 50.004-104.15 22.865-15.015-9.278 26.426-23.837 94.737-1.693 30.009 8.363-32.324 48.194-85.882 23.21-20.043-18.933 35.926-20.6 80.858 5.773 21.895 16.732-38.837 39.722-47.44 18.347.196-16.506 60.367 55.386-81.76 31.48 3.811 3.292 5.955 40.056-43.769 25.285 4.43 23.333-6.072 38.805-49.722 28.088-1.233 30.459-4.86 40.248-37.09 39.884 1.724 19.94-25.813 46.346 51.97 31.394-17.309-18.252-32.67 33.353-103.56 13.135-92.28-21.95 77.506 6.46-58.644-50.529-8.641-103.94 4.344-207.227 17.124-309.565 33.447-76.638 8.49-140.14 60.95-217.393 67.416-60.613-12.191-26.976 26.93-9.182 42.834 20.177 78.584 108.85 124.344 101.686 211.511-2.782 28.845 22.1 116.48-.67 117.85-4.557-62.776-9.13-106.153-17.658-169.257-22.139-41.32-61.839-99.37-95.52-102.709-30.32-37.443-35.723.816-67.035-26.208-32.053-7.362-37.686-16.821-31.829 15.837-31.993-8.734-52.623-28.145-55.498 9.242-24.565-12.331-96.329-.175-79.81-1.657-25.143-39.33 15.22 72.365 30.216 101.51 61.053 8.333 141.136-77.066 209.678-31.856 38.746 27.195 34.792 87.473 1.829 71.632-55.331 48.803-141.585 8.275-200.582-17.085 6.654 51.323 89.965 96.77 67.04 116.394-53.061-25.253-81.4-130.478-103.869-141.97 21.942 59.525 54.288 123.12 95.057 176.376 18.278 21.178 83.16 68.383 20.605 36.164-43.595-28.695-117.587-151.516-97.77-133.946 36.47 65.883 57.014 162.172 133.604 190.034-48.98 21.797-89.18-79.003-114.131-121.467-35.99-48.21 80.607 154.237 43.078 89.47 13.196 36.173 119.583 113.213 31.094 58.216-33.178-38.822-98.36-146.04-84.065-123.02-3.19 34.775.481 50.899 7.635 26.202 33.786 50.474-5.387 25.52-1.085 31.48-47.346 10.275-9.446 91.123-5.857 133.652 1.182 54.06 48.808 129.996 79.93 145.726-21.724-20.858-36.18-78.72-1.383-27.325 25.885 19.588 79.168 99.033 21.348 52.455 12.216 26.967 74.846 50.926 46.125-5.192 11.857 3.13-16.618-47.527-.152-60.959-8.863-44.333 29.815 11.908 11.484-32.593-8.415-54.006 36.426 20.187 12.425-39.002.687-52.615 41.752 46.437 25.765-24.076-1.428-23.055 21.002-47.082 25.488-7.176-6.909-81.898 18.273-17.54 18.065-3.868-8.315-38.102 13.104-71.503 18.08-9.702 13.695-69.723 13.289 21.65 23.924 11.12 10.73-61.02 17.007-17.106 17.198 9.925.564-26.92 19.855-70.628 24.37-26.666 24.324-37.741 9.574 59.906 38.86 5.085-8.782 51.07 35.812.87 35.683 38.248 8.848-47.054 34.212-62.722 35.392-6.203 4.765-51.073 30.662-5.714 29.395-28.663 17.545-14.929 39.983-61.315 38-4.489 20.785-65.835 43.224-52.412 38.88 7.471 10.166-32.078 37.672-77.827 46.394-53.208 17.949-7.04-6.394 68.43 17.467 9.73 2.13 24.69.05 46.553-1.988 80.303 23.063-78.236 18.112 33.276 13.622 27.752 24.075-34.107 5.635 46.84 22.233 40.781 18.752 27.831-69.29 131.81-36.825 55.108 12.942-51.541-25.958 60.998-17.22 1.014 11.73-51.193-2.927-38.403-10.179 2.304-30.045 34.501 24.9-79.046-21.122-47.72-74.828 54.373-175.377 57.628-261.023 30.411-31.857-16.997-113.933 3.502-75.576-9.888 3.152-9.692-44.89 28.885-1.498-7.359 24-21.23 46.65-64.36 19.62-8.81 68.05-20.058 138.182-10.854 204.814-16.534 33.67-27.758 130.435 25.939 113.735-30.001 13.168 13.841 29.203 52.775 28.085-4.538 12.076-46.382-14.239-96.185-12.77-118.428-8.326 54.56-52.086 67.364-45.858 12.41-20.794 77.81-37.244 5.361-37.996 23.133-10.14 33.066-36.855 40.832-39.51 29.76-22.154 72.526-24.492-70.427-38.148 11.959-23.332 23.665-44.324-23.32-66.958-5.157-15.442-54.268-29.194-11.117-49.24 4.516-3.889-23.24-44.228-20.574-46.493.36-30.98 7.808-40.974 38.042-58.963 24.71 24.796 55.175-33.842 15.762-8.126 65.878-6.15 21.353-6.49 44.145-4.026 66.885 8.793 16.74-15.934 62.817 10.002 23.378-1.738 33.692 34.99-12.195 47.796 28.469 23.13-3.407 16.536 22.12 39.852-6.346 9.251 17.366 15.722 53.893 38.7 29.197-.83 23.269 32.14 90.693 30.39 22.225 18.101-59.268 8.892 57.545 29.263 31.59m76.6-104.503c-37.204-26.272-81.31.712-91.463-10.005-69.73 12.431 64.28-33.477 86.196-4.852 16.252-.165 27.685 16.054 5.267 14.857m95.83-35.707c42.937-18.136-12.381 18.643 0 0m-309.764-78.307c18.93-42.249 6.33 14.593 0 0m130.667-272.725c15.455-21.739 34.733-38.999 42.447-15.633 48.102 9.98-35.003 11.468-42.447 15.633m-166.552-38.424c26.183-40.806.22 16.28 0 0m364.57-15.83c-28.799-23.553-54.806-96.388 5.982-52.087 27.336 14.158 157.086 19.787 61.447 22.747-51.44-19.038-35.452 3.617-50.602 7.146-55.584-35.186.444 3.261-13.913 27.024zm-371.296-15.977c27.297-15.312 57.375-62.068 7.958-22.954-32.999 22.455-66.779 26.463-13.017 2.895 26.242-22.712 76.694-40.062 40.105 1.313 12.221-26.411-49.363 40.299-35.046 18.746m25.278 2.97c4.506-5.409 6.305-3.683 0 0m379.73-57.545c-34.901-17.29-122.857-24.419-58.788-59.008 47.209-75.779 135.276-52.797 196.987-10.658 46.611 25.367-78.704 76.327-116.835 69.803l-14.9.093zm59.603-10.782c39.835-3.993 130.164-48.624 46.434-63.013-21.51-14.32-118.55-54.552-63.096-5.47 11.024 70.962-89.79 47.391-30.522-1.991 21.737 53.51.012-.322-7.938 13.792-3.626 79.032 67.497-26.327 1.659-27.218-78.427 28.371 9.788 132.453 49.829 61.318-5.508 22.758-45.327 32.67 3.634 22.582m-86-6.903c-50.764-50.946 102.952-117.135 4.493-71.552-26.476 30.623-76.63 47.559-25.504 62.09 6.721.836 13.345 13.014 21.011 9.462m-540-66.778c52.1-43.037 130.456-70.324 189.56-22.486 50.12 54.074-61.448-36.721-92.25-18.875-34.13 8.554-66.841 24.002-97.31 41.361m724.687-12.922c-62.323-30.663-160.16-69.362-213.452-3.558 22.755-54.68 134.155-50.053 193.891-19.098 11.739-1.805 45.117 29.225 19.561 22.656M607.55 1724.156c5.207-32.492-37.947-27.892-44.796-56.511-11.227 36.377-77.386-48.02-67.472-5.97 9.572 24.798 62.233 41.42 105.89 65.047l5.88.835zm242.628-5.38c-7.94.249-3.263 9.098 0 0m-2.236-5.76c20.98-14.167-17.98 5.178 0 0m28.323-24.739c24.13-14.917-25.574 10.58 0 0m-1.35-5.455c23.277-15.74-25.519 13.35 0 0m.36-6.446c23.805-29.017-16.389-30.596 0 0m31.484-8.425c12.31-12.781-24.392 15.601 0 0m1.354-10.803c-7.15-13.849-9.536 11.412 0 0m41.503-16.992c4.978-6.089-8.98 7.244 0 0m8.28-11.486c5.33-19.446-35.553 27.519 0 0m-2.947 7.486c4.332-6.628-7.584 8.418 0 0m16.684-23c15.55-32.472-21.83 16.002 0 0m-575.853-7.667c-31.892-37.737-43.115-17.38 0 0m597.894-18.928c4.504-31.618-20.703 25.89 0 0m-244.895-9.11c38.344-2.788 140.874-49.795 49.693-22.391-80.46 9.635-161.938 6.117-242.36.337 64.107 9.836 126.52 31.913 192.667 22.054m173.69-8.625c2.58-30.865 6.897-77.654-14.203-57.61 11.604-59.155-18.682-35.838-11.44-1.922 19.172-1.944-12.87 93.336 16.244 23.618 16.126-18.49-8.79 55.94 9.4 35.914m-582.535-11.903c-6.637-16.876 4.588 26.403 0 0m690.095-16.879c41.575-51.485 81.639-112.962 78.075-182.623-22.876 29.942-46.008 110.051-64.087 158.944-20.688 7.317-58.958 79.481-13.988 23.68zm-278.583 11.613c34.354 2.381 158.36-22.484 58.667-23.835-65.066 5.095-124.012 16.874-189.013 7.534-38.888 8.369-54.64 18.433-1.153 15.097 43.792 3.723 87.562 3.91 131.499 1.204m327.176-21.383c-3.217-3.072-34.192 43.228 0 0m-3.188-4.092c32.715-38.194 19.865-96.865-4.692-23.654-11.48 25.783-25.105 68.166 4.692 23.653zm-736.655 21.562c-3.811-7.148-.5 8.718 0 0m-21.633-17.241c-17.339-33.552-15.214-73.813-36.992-84.958 3.758 26.212 21.88 87.494 36.992 84.958m576.206 1.653c-1.107-13.037-3.67 16.502 0 0m-601.11-119.607c-9.577-26.3 1.659 31.289 0 0m-23.028-22.393c12.605-16.053 13.406-107.812 2.303-39.107-4.159 4.39-5.915 79.84-2.303 39.107m12.232-22.491c-3.862-7.387-2.023 11.43 0 0m353.333-28.672c-2.228-4.609-5.747 7.226 0 0m113.737-4.17c14.292-28.295-10.107 6.647 0 0m397.882-6c27.181-37.664-32.024 8.717 0 0m14.168-36.783c21.932-70.706 7.56-142.804 20.018-215.363 12.333-45.804 56.406-159.1-7.08-166.234-22.644 28.011-33.035 93.62 12.616 54.593 15.33 61.75-20.56 126.6-36.562 184.57-9.4 46.722-36.519 148.47-12.554 170.626 8.312-8.982 17.873-17.157 23.562-28.192m-901.12 27.318c29.542-56.629 4.344-128.644 2.196-191.14-17.44-48.571-36.819-105.78-13.086-151.773 14.916-36.534-25.91-90.242-37.593-31.076-1.138 86.144 53.503 167.85 29.388 255.312-4.548 35.686-27.608 105.387 19.095 118.677m-2.667-3.536c4.785-5.076 1.656 5.257 0 0m500.667 2c9.415-11.853-12.548 12.036 0 0m13.333-6.98c-23.225 14.666-1.926 4.504 0 0m.754 4.84c-6.787-.897-5.522 8.301 0 0m-166.57-10.823c-10.763-4.548-25.178 22.89-8.901 6.891zm229.483 9.645c16.732-11.56-25.29 9.858 0 0m1.667-9.68c57.46-35.036-48.176 20.824 0 0m-554.774-5.002c4.307-9.224-7.946 11.502 0 0m885.183-.702c-3.774 2.578-1.584 5.8 0 0m-49.73-20.215c6.242-51.423-11.732 57.32 0 0m-247.176 13.25c4.978-6.087-8.98 7.245 0 0m-578.88-8.278c12.602-64.525-8.692-52.85 0 0m329.377-24.055c-1.372-4.942-18.356 5.427 0 0m-323.61-82.395c-23.848-47.417 18.46 54.574 0 0m196.75-56.202c75.673-28.698 1.886-113.16-57.81-84.758-104.878-4.026-9.932 144.35 33.25 49.93 17.36-84.531-66.857-8.057-29.53-10.111 59.427-30.082-35.194 73.33-15.348-4.101 16.257-87.633 96.042 14.144 24.514 41.077-57.383 9.209 54.144 13.092 44.924 7.963m-225.04-30.894c-3.112-30.363-24.9-146.387-21.741-56.227-.026 18.134 35.887 133.244 21.74 56.227m121.096 19.158c-26.436-35.932 16.056-81.317-48.708-40.66-66.575 9.202 44.04 43.19 48.708 40.66m773.454-26c21.357-22.266 28.069-159.01-2.916-85.423.979 13.46-8.344 119.716 2.916 85.423m-716.99 10c28.075-49.153-38.724 10.91 0 0m371.078-139.04c16.757-31.716 32.095-140.466 5.243-50.267-1.831 24.97-58.58 107.773-5.243 50.267m-531.825 2.586c9.836-8.94-20.041 1.689 0 0m60.42-1.967c-7.132-17.783-16.6-2.004 0 0m173.333-1.284c-15.916-34.785-58.995-113.433-29.288-30.628 7.313 11.456 15.335 26.553 29.288 30.628m-216-5.235c-61.173-38.483-4.627-26.333 26.85-7.608-5.996-14.234-44.886-88.892 12.744-40.165 23.224 25.641 57.362 44.005 17.817 2.415-45.97-77.49 102.717 70.534 41.794-3.637-42.15-54.072 12.157-21.003 29.72 10.454 13.615-82.543-84.456-41.717-136.814-41.927-22.297-.64-35.916 106.578-27.238 71.871 12.162-7.749 22.744 12.763 35.127 8.597m538.915-9.367c12.807-30.685 23.687-116.887 4.836-38.255 3.051 5.749-24.444 52.236-4.836 38.255m-480.03-4.516c-39.788-56.285-48.393-18.882-7.136 1.737zm111.233-3.685c-16.83-30.918-66.341-86.458-24.852-16.724.077 7.435 19.828 22.053 24.852 16.724m389.586-2.568c8.122-29.504 26.837-109.645 4.378-36.598 1.065 5.743-17.913 42.895-4.378 36.598m-467.037-6.684c-38.883-34.71 15.698 23.216 0 0m487.73-3.573c10.931-27.753 35.254-100 8.32-30.876 1.795 4.581-19.687 35.686-8.32 30.876m48.39-9.99c-9.555 2.95.837 3.957 0 0m-3.157-27.135c15.095-58.39-38.818 73.84-1.104 3.472zm91.81 13.716c-10.17-.183-4.217 6.5 0 0m-62.588-4.065c21.292-50.716-23.246 2.918 0 0m25.865-5.193c11.15-33.75-22.324 18.252 0 0m-514.574-1.109c-3.554-31.08-14.36-1.279 0 0m542.413-.082c1.727-9.086-8.985 8.397 0 0m35.088.524c16.981-27.846-21.27 9.903 0 0m116.263-6.745c-5.586.953-1.052 10.394 0 0m-61.078-43.906c-4.669 16.997 2.956 49.063.777 7.67zm-566.783 28.426c76.71-5.987 139.133-59.047 215.39-66.813 102.943-17.558 207.262-29.006 311.898-34.39 100.67-23.112 202.89 22.677 286.151 77.44 62.81 58.461-35.784-69.455-76.151-54.565-49.93-36.764-105.091-39.513-161.288-48.7-88.068 1.986-176.857 4.525-264.22 17.069-73.356 38.09-158.638 8.893-237.553 26.437-69.657 20.11-139.826 22.125-210.273 2.84-36.061-16.15-88.79-22.614-58.781 25.78-27.788 5.09-63.9-41.123-49.326 11.735 5.242 74.443 99.794 15.809 144.107 33.481 9.531-14.19 30.472 18.172 48.976 7.64 17.032.039 34.313 7.764 51.07 2.046m-243.424-1.369c-1.09-24.413-8.648 7.133 0 0m851.25-49.252c-6.722-17.125-3.346 48.42 0 0M324.79 793.19c-8.888-68.994-62.637-4.965 0 0m175.275-6.01c71.936 1.226 143.005-28.857 217.8-22.99 76.178 12.971 141.3-28.969 216.973-29.447 64.866-2.722 155.274-6.015 204.43-10.953-39.841-2.086-104.333-22.858-155.154-14.241-76.788 7.349-154.684 4.544-230.638 20.123-67.08 14.415-131.422 46.416-202.69 32.95-50.239 7.859-114.566-15.506-157.319 7.727 33.528 4.168 71.19 21.358 106.598 16.831m634.092-7.891c1.806-45.8-22.469 4.72 0 0m27.025-13.51c-17.988-8.64-7.168 22.504 0 0m-766.517-1.447c-.193-18.762-26.137 9.48 0 0m708.115 0c-4.904-4.86-1.598 8.653 0 0m-826.727-5.37c13.696-16.257 90.712-108.673 22.893-42.116-5.37 5.563-56.907 68.38-22.893 42.117m80.394 3.457c11.015-20.75-59.926-13.49-9.7 1.122zm-40-7.564c-4.094-34.705-41.792 16.582 0 0m317.667 1.348c74.733-22.185 148.53-43.641 227.273-48.342 85.585 3.958 173.527-22.64 256.854 6.048 9.14-23.688-37.098-113.691-68.366-145.043-52.06-51.39-58.79-126.264-108.651-179.287-55.999-42.625-131.523 22.798-199.682 5.841-74.14-10.875-149.293-16.2-224.253-12.074-51.303-15.191-93.872 1.265-61.575 60.718 15.56 18.293 66.233 72.299 16.4 33.807-53.247-7.619-11.713-152.502-56.918-68.69-29.112 65.482-40.033 136.723-61.002 204.013-33.994 41.02-14.035 53.649 10.149 13.522 35.586-18.011 5.458-150.801 32.516-63.095-4.773 54.092 49.558 120.341 52.446 150.143-29.97-17.986-59.402-64.522-34.191-6.091 42.624 12.158-15.64 64.405 43.398 45.748 58.426 1.91 117.574 1.16 175.602 2.782M521.544 711.91c-50.704-20.644 161.69 8.954 107.559-12.825 92.36-6.542-140.696 29.14-84.993 16.292l-7.745-.33zm-75.431-53.963c-55.667-21.18-9.525-46.907-36.698-85.638-22.65-33.881-14.253-140.789 6.958-129.154 15.34 37.02-.961-94.654 14.087-25.603 7.405 42.994-1.877 96.33 31.981 119.415 51.036 41.77 139.71 54.003 187.492 70.758-72.9 1.815-148.754-32.869-208.602-68.523-45.113-20.489 69.51 97.168 12.324 64.924-33.041-37.879-37.384-105.997-47.463-140.304-6.915 68.428 22.382 147.552 52.715 193.243l-5.953 2.553zm-18.179-184.125c-3.43-66.043-5.185 54.583 0 0m336.845 83.346c-90.964-12.833-192.789-36.465-252.666-111.765 42.155 23.198 116.92 83.23 186.099 91.487 30.53 4.077 169.786 28.306 66.567 20.278m116.667-30.356c-37.526-6.805-138.514-36.191-128.45-59.388 33.719 32.836 148.849 82.164 137.952 60.383zM389.274 740.127c-48.755-50.559-9.338 30.58 7.956 7.485zm37.458 5.116c4.116-43.035-32.846 6.323 0 0m-74.586-7.135c-10.323-61.46-46.65 24.457 0 0m54.633-1.436c-3.055-40.596-59.795-28.668-3.487.82l2.753 1.013zm-93.86-55.516c8.566-24.046-72.058 99.843-15.401 22.175l6.402-9.24zm4.527 53.333c-3.407-4.783-3.407 4.783 0 0m1.333-39.65c48.191-47.146 5.519-41.893-13.093 3.775-27.172 37.09-9.658 16.645 13.093-3.776m11.27 16.908c9.91-34.988-15.206 32.496 0 0m28.524 5.878c-3.231-17.343-9.32 6.22 0 0m16.296-14.803c24.113-34.337-33.83-41.042-16.246-1.842l7.928 5.442zm22.078-8.492c-24.384-90.03-16.134 2.527 0 0m-45.396-7.508c36.464-37.629 1.295-20.634-4.6 4.746zm29.708-55.798c-4.345-32.447-52.66 83.533-8.474 21.68 8.082-6.33 12.128-11.235 8.474-21.68m-1.247 20.262c7.61-12.79-22.48 21.17 0 0m16.1-17.59c-8.264-35.592-10.38-9.018-2.552 2.126zm-16.037-21.162c5.07-11.08-8.99 7.277 0 0m412.704-225.94c43.079-1.73 125.02-15.974 45.223-35.898-86.662-2.33-173.847-11.959-260.02.366-36.139-2.311-134.129 39.698-118.913 22.75 81.626 1.157 162.817-.896 244.146 6.532 29.556 4.372 59.496 11.788 89.564 6.25m229.356 1413.273c-9.658-38.85 26.12 23.055 0 0m80.838-7.401c-30.05-4.823 7.94-24.092 2.332-45.175 1.638 10.04 20.917 54.211-2.332 45.175m-32.016-6.72c-25.19-48.387 33.712 12.313 0 0M46.779 1097.541c14.123-35.533 71.339-113.565 8.524-46.608-11.77 14.05-5.995 58.62-21.01 31.386-13.546-21.376 11.924-100.926 19.894-112.014-2.362 38.867 41.968-55.458 68.386-64.95 12.192-16.315 82.233-82.634 69.884-61.756-53.878 49.725-121.275 98.314-140.722 173.41-18.598 79.507 53.647-27.943 71.71-45.229 16.753-33.86 131.728-105.475 53.518-39.096-64.615 35.485-90.485 109.928-129.59 166.531zM175.614 929.98c59.374-47.89-52.914 33.782-18.168 12.145l9.462-6.615z" style="fill:#000;stroke-width:1.33333" transform="translate(-30.394 -337.078)"/><path d="M829.963 2027.942c-65.958-12.902-131.89-23.764-199.458-20.183-56.42-12.216-130.56 19.71-175.797-4.44 32.88-31.273 66.27-91.583 80.161-114.503 20.2 23.867 35.264 52.52-2.332 19.644-12.488 34.897 119.158 61.833 47.548 15.513-32.588-13.574-72.406-124.623-18.316-54.82 28.161 26.693 55.782 19.062 14.312-6.876-36.657-19.862-57.74-84.844-8.476-28.227 20.167 24.952 76 16.928 18.262-3.221-41.768-11.201-72.283-113.232-10.121-45.548 26.325 29.344 56.34 17.244 13.066-6.647-39.495-15.967-86.009-92.104-10.921-52.594 39.419 4.695 41.419 71.32 70.852 37.206 43.83 14.877 103.819-7.104 144.544-19.326 23.073 32.586 68.081-58.257 62.384 13.185.084 89.954 21.027 185.012 80.11 254.455-32.076 9.171-71.57 16.353-105.818 16.382m-284.093-30.748c-5.69-15.027-93.144-40.854-39.632-3.61 12.26 5.505 26.579 7.366 39.632 3.61m15.889-12.45c-1.266-13.614 37.31-10.84-9.662-29.633-45.273-76.81-59.133 47.008 9.662 29.634" style="fill:#e9afaf;stroke-width:1.69481" transform="translate(-30.394 -337.078)"/><path d="M662.424 1734.963c.629-44.79-22.484-57.95-22.382-5.829-24.774 3.812-19.56-53.972-52.088-47.195-8.243-49.429-47.729-.697-73.689-39.363-21.94-9.082-35.632-14.697-37.403-5.047-2.082-57.22-.373-111.191 14.99-155.3 35.21-11.245 75.387-64.525 107.185-34.518 14.89-29.07 36.623-31.124 46.836-1.714 32.148 12.377 71.451 12.605 75.516-12.99 14.026 73.53 59.004-46.425 87.286-8.75 23.134-40.54 6.692-21.408 29.823-1.105 29.059-12.631 35.138-55.687 41.835.693 7.427 25.422 13.98 137.245-23.612 73.862-12.806 53.69-100.356 4.702-143.144 30.603-51.699-5.883-143.456 17.98-168.22 2.175 19.372-31.203-82.385 60.68-16.489 34.59 86.24 1.577 173.644 43.313 260.061 9.675 34.973-7.756 107.53-75.305 79.443 5.988-.528 46.323 31.659-67.205 20.062-5.642-13.06 43.705 17.161 5.04 14.227 10.584-16.899 69.52 73.87-50.574 31.37-77.438-10.764-20.38-7.73-93.535-26.023-64.615 3.105-33.884.437-66.014-9.922-53.22-4.543-75.56-56.28 42.81-53.443 10.31-.023-73.273-45.227 18.75-38.846 2.285-11.916-43.918-68.209 74.527-75.165 12.564-29.753.965-20.52 50.62-62.007 23.154 3.545-43.027-25.374 22.016-29.822-35.056-18.85 2.175-27.304-25.473-34.953 19.406-6.408-64.368-23.347 42.691-28.366-21.967-10.626-17.444-13.552 20.56-23.623-17.846-17.444 17.902-3.32 40.002-22.643 7.196-6.583 27.614-44.247 29.698-26.83 72.704-45.025-50.467-6.5 36.516-40.488 19.96 8.419 40.154-33.093 56.155-10.571 109.863 35.75 51.583-49.317 25.454-29.375 20.766 28.939-10.757-93.862-138.773-48.881-48.422-66.083-58.317-70.352-150.855-84.962-231.492 4.408-23.282 61.289-63.927 19.275-60.66-9.818-64.727 80.64 81.656 60.937 63.97 17.722 37.225 82.908 58.573 25.569 11.193-27.415-23.171-70.878-106.452-72.58-118.826 25.173 39.892 49.482 118.755 106.932 105.166-43.606-9.353-101.457-104.2-93.71-116.639 17.139 23.524 62.826 80.062 82.699 67.15-65.422-55.052-106.605-132.748-135.922-211.734 31.038 34.31 59.465 139.457 103.588 125.13-8.105-28.852-92.538-93.983-55.424-98.4 58.973 27.436 131.41 48.64 190.293 12.147 66.8-46.166-55.571-123.564-107.537-76.307-36.538 6.901-109.161 67.535-120.833 5.327-22.548-51.606-46.443-94.59 28.854-75.595 40.853 15.144 42.987-35.728 87.16-7.454-2.615-40.343 69.453 2.045 92.91 7.146 47.097 22.266 84.13 68.124 101.775 116.175 9.033 53.325 8.547 110.172 19.998 161.533 10.983-66.638 7.322-153.085-31.772-213.609-33.257-48.372-82.38-108.304-90.431-158.91 96.972 5.949 176.287-66.248 272.129-70.711 93.324-14.839 187.49-23.608 281.686-30.22 42.108-45.982 36.833 70.006 54.107 9.72-22.009 31.74-17.057 119.373-17.292 115.306-28.93-14.338-34.968-33.243-66.748-12.76 8.501-46.983-36.336 32.444-30.897-16.426-38.076 48.187-6.627-45.982-39.692 6.433-39.445 65.777 13.842-72.219-29.199-6.375-9.771 24.5-36.824 61.706-18.286 8.401 19.153-26.438 16.956-73.618-7.612-22.025-9.762 22.93-26.434 65.408-12.048 13.806 13.206-29.802 15.375-72.39-8.418-21.001-5.628 13.602-10.363-23.164-28.659 18.294-12.622-32.8-60.891 83.801-67.646 116.996-41.865 70.513-60.404 156.265-36.939 236.485 3.428 58.33 143.491 23.202 124.888 67.372-61.671 21.278-128.247 10.154-152.32 91.356-16.553 34.63-71.974-35.595-73.274-60.157-30.903-54.353-96.367 60.902-120.566-23.14 12.32-22.747 145.125-25.015 73.518-38.445-60.35-4.876-139.581 56.867-46.545 86.547 58.518-7.048 115.283 43.003 153.436 61.656 41.555-67.124 118.845-69.122 178.558-109.428 23.679-80.482-148.653-10.535-121.758-104.068 1.954-17.95-7.027-63.654-11.659-20.21-3.418-17.078-7.466-102.27 3.405-43.736 7.021-66.5 19.692-147.19 89.893-175.828 59.447-35.259 130.33-45.622 200.974-52.006 37.683 16.77 79.273-.115 76.315 56.752 11.187-18.232 14.108 26.524 19.679-20.52 8.442 48.323-6.824 134.425-18.897 193.904-8.975 28.162-7.838 83.291 4.732 22.807 9.426-28.01 22.975-161.797 24.391-72.019 3.076 60.473-29.319 78.65-30.444 139.614-16.17 79.845-21.016 160.508-60.099 234.118-24.393 65.793-69.372 120.867-115.09 172.808-22.573 46.07-82.648-2.226-88.273 63.708-45.26 55.09-132.508 54.101-192.817 47.322zm99.435-106.288c-25.809-49.53-188.974 8.237-73.17-4.386 24.715-11.294 52.896 15.07 73.17 4.386m89.894-27.46c52.245-19.734-42.887 1.095 0 0m-310.717-82.143c14.926-26.209 5.155 16.48-3.888 3.865zm151.647-275.631c72.024-4.04-33.428-43.374-22.456 2.768l8.519-1.2zm-185.232-39.798c34.555-47.015-39.972 33.919 0 0m361.157-17.884c-24.88-42.677 14.658-10.71 41.663-27.658 33.614 13.145 76.13-2.185 18.266-5.903-35.814 2.284-126.511-61.389-84.856 17.224 3.315 3.83 29.573 46.765 24.927 16.337m-360.37-18.532c32.991-7.672 41.393-56.4-7.03-22.444-34.002 16.474-58.784 41.889-5.823 12.516 84.628-62.637-46.864 59.246 12.852 9.928m13.27 10.16c-4.345-6.276-6.516 6.077 0 0m426.956-56.85c50.028-1.969 145.282-60.98 54.141-88.234-62.072-44.267-174.499-7.839-182.195 61.154 39.417 18.614 83.534 36.848 128.054 27.08m-569.32-106.349c50.037-41.844 115.395 4.91 152.936 13.452-49.976-63.583-147.26-39.096-199.912 7.86 16.396-5.405 30.966-14.944 46.975-21.312m685.79 9.806c-47.02-49.94-142.74-59-204.47-27.14-45.854 46.96 47.625-33.934 79.409-9.827 44.077.852 85.443 31.694 125.06 36.967" style="fill:#e9afaf;stroke-width:1.69481" transform="translate(-30.394 -337.078)"/><path d="M1132.484 1310.854c-13.687-98.309 34.518-191.609 55.545-285.623 4.727-32.925 9.447-74.513-30.218-52.408-18.49-45.618 43.01-88.094 47.785-22.773-.596 71.544-38.699 137.655-31.579 210.39-4.984 44.8 6.62 146.025-41.533 150.414M244.502 1309.279c-34.834-65.646 22.978-142.465-3.928-212.733-3.743-48.864-60.693-158.208-2.194-170.587 21.627 62.413-19.667 137.227 20.932 202.012-.549 48.384 41.766 173.868-14.81 181.308" style="fill:#e9afaf;stroke-width:1.69481" transform="translate(-30.394 -337.078)"/><path d="M1158.895 1062.817c-12.4-30.253 22.71-130.002 20.316-47.637 3.536 16.217-26.448 116.84-20.316 47.637M285.95 942.501c-50.69-22.888 19.623-100.1 68.182-80.336 35.972-33.485 101.95 41.948 69.035 34.205-17.502-29.914-57.282-31.628-20.525 5.297 39.892 49.562-86.283-68.864-41.924 2.64 50.498 66.066-73.727-71.418-44.928 6.617 49.365 57.478-77.12-17.6-24.773 30.888 25.467 9.543-6.786 6.598-5.066.69" style="fill:#e9afaf;stroke-width:1.69481" transform="translate(-30.394 -337.078)"/><path d="M434.294 754.793c12.605-28.414-58.524-100.615-1.116-51.922 51.173 36.9-50.65-94.094 10.397-45.193 33.566-5.598-37.021-77.658-29.885-111.437-9.112-32.397-9.52-110.48 1.952-35.369 6.833 30.26 21.084 101.636 54.579 94.26-17.15-29.005-64.652-94.965 1.197-48.017 55.393 28.623 116.195 53.631 179.742 50.549-69.515-26.736-160.43-28.634-206.368-94.754-3.346-37.382-27.706-100.763-8.95-126.396-6.51 37.928 29.45 114.87 54.975 97.675-59.314-38.038-54.904-133.69 31.347-100.743 85.758-5.554 170.835 9.246 255.881 14.852 61.35-7.642 151.25-54.846 186.224 23.971 31.963 62.646 60.693 127.182 109.063 179.364 17.597 28.237 86.605 140.394 4.285 101.946-89.513-8.116-179.602 3.922-268.946 9.384-62.575 6.134-121.863 31.335-182.927 42.184-63.696-.634-128.955-3.185-191.45-.354m143.99-41.174c40.202 2.87 96.463-25.584 38.592-8.069-23.849-.203-151.383-7.65-71.374 12.258 10.99-.873 21.891-2.528 32.781-4.19m224.562-156.39c-70.148-20.538-148.206-18.971-210.193-63.458-24.383-14.238-113.26-74.183-55.465-21.131 71.891 60.493 173.56 85.298 265.658 84.588m89.825-27.26c-47.033-6.568-107.389-40.72-140.455-57.748 31.398 32.152 97.772 58.073 140.455 57.749" style="fill:#483737;stroke-width:1.69481" transform="translate(-30.394 -337.078)"/><path d="M748.612 386.464c-87.423-15.4-176.493-11.031-264.847-13.264 116.823-38.468 242.287-28.391 362.8-18.875 82.947 26.322-94.218 36.293-97.953 32.14M503.712 861.99c-4.661-.802-14.576-1.331-22.033-1.175-12.732.266-14.238-.098-24.715-5.969-10.77-6.035-18.984-7.892-20.936-4.733-.546.884-3.595.901-7.303.04-10.578-2.456-25.269-1.74-55.22 2.694-42.924 6.354-59.65 5.228-70.318-4.734-6.276-5.86-8.519-11.527-12.285-31.043-4.794-24.844-4.156-25.443 17.333-16.262 17.263 7.376 31.28 9.84 30.81 5.416-.148-1.398-2.013-6.54-4.145-11.428-4.817-11.047-3.368-16.86 5.28-21.194 10.153-5.088 20-3.571 62.69 9.654 33.724 10.448 86.821 15.058 128.727 11.177 20.71-1.918 45.025-6.418 84.82-15.696 12.67-2.954 23.7-3.522 91.52-4.71 86.25-1.51 95.805-2.623 126.003-14.665 15.74-6.277 22.013-7.483 59.964-11.533 49.098-5.24 106.12-8.594 175.875-10.347 40.417-1.015 43.698-.856 71.182 3.457 63.079 9.9 91.157 18.63 120.788 37.55 6.907 4.41 10.747 5.703 16.948 5.704 15.764.003 43.823 17.879 68.255 43.486 12.645 13.253 21.471 24.305 19.41 24.305-.598 0-5.888-3.95-11.756-8.779-20.576-16.93-73.006-46.05-110.395-61.312-37.613-15.354-71.672-23.734-107.487-26.447-19.808-1.5-53.35.143-67.793 3.322-4.194.923-25.168 2.85-46.607 4.284-88.943 5.945-165.601 14.755-263.543 30.288-44.055 6.986-57.956 11.043-103.325 30.154-49.35 20.788-66.566 27.14-86.494 31.912-34.295 8.213-47.845 9.58-65.25 6.584" style="fill:#483737;stroke-width:1.69481" transform="translate(-30.394 -337.078)"/><path d="M470.252 785.753c-24.832-5.967-111.354-17.221-39.029-24.495 89.167.34 181.411 16.951 267.392-16.059 104.178-32.992 214.954-27.792 322.596-36.587 36.106 3.022 150.418 18.16 59.156 18.59-91.814 5.307-185.253 2.505-273.832 31.137-72.602 13.327-147.72-2.77-219.668 18.46-38.457 5.93-77.616 12.57-116.615 8.954M337.35 647.668c40.688-77.78 43.868-170.625 85.01-249.046 16.568 57.945-38.232 45.759-26.894 110.68-4.684 33.126 37.018 109.115 17.252 120.02-12.863-27.707-28-143.945-30.985-55.637 2.825 28.403-18.757 69.815-44.382 73.983" style="fill:#483737;stroke-width:1.69481" transform="translate(-30.394 -337.078)"/><path d="M182.192 856.727c14.428-19.334 76.779-43.488 21.713-18.441-61.44 45.183 61.614-39.905-5.612 2.34-56.991 42.217 2.503-3.854 28.812-15.253" style="fill:#483737;fill-opacity:1;stroke:#000;stroke-width:1px;stroke-linecap:butt;stroke-linejoin:miter;stroke-opacity:1" transform="translate(-30.394 -337.078)"/><path d="M222.868 887.234c-29.394 26.858-60.735 52.935-16.101 17.795 48.236-40.131-14.89 6.506-32.201 19.49-15.344 14.403 48.512-31.743 48.302-37.285z" style="fill:none;stroke:#000;stroke-width:1px;stroke-linecap:butt;stroke-linejoin:miter;stroke-opacity:1" transform="translate(-30.394 -337.078)"/><path d="M51.184 1044.353c-2.054-79.038 70.234-135.787 124.167-184.018 35.51-46.472 56.798-3.182 28.318 28.23-45.38 40.55-117.566 97.266-135.328 139.315 42.91-42.566 87.653-111.667 138.87-128.85-64.444 33.037-98.505 98.86-150.47 145.612z" style="fill:#483737;fill-opacity:1;stroke-width:.847406" transform="translate(-30.394 -337.078)"/><path d="M699.58 1579.247c-34.83-1.616-134.02-26.378-124.336-22.084 86.268 3.955 174.568 10.386 259.157-9.972-40.312 23.507-88.195 34.86-134.821 32.056" style="fill:#de8787;fill-opacity:1;stroke-width:.599206" transform="translate(-30.394 -337.078)"/><path d="M661.59 1552.636c-34.347 1.661-114.135-3.754-37.342-16.473 74.193 12.425 148.576-14.432 222.275-4.38-50.722 28.148-125.655 18.515-184.933 20.853" style="fill:#de8787;fill-opacity:1;stroke-width:.599206" transform="translate(-30.394 -337.078)"/><path d="M939.302 1109.316c40.193-34.72-54.988 33.344-61.482-26.678-30.903-85.255 103.734-41.7 30.04-1.782-24.82-48.189 31.164 1.551 1.311-41.405-66.394 60.223 71.039 54.64 23.565-6.168-11.929-33.424 86.044 20.047 103.616 34.308-14.469 30.74-82.941 48.081-97.05 41.725M445.71 1121.25c-1.15 1.112 68.73-71.297 3.235-84.341-57.69 19.107-9.058 105.689 7.8 33.592-66.589 16.08 34.143-58.107 11.683 9.353-20.737 95.17-134.65-33.62-42.52-41.968 71.262-45.29 144.802 85.003 45.435 84.326l-15.306-.4z" style="fill:#fff;fill-opacity:1;stroke-width:1.69481" transform="translate(-30.394 -337.078)"/><path d="M370.331 1104.512c-39.476-6.605-69.692-33.586-13.208-43.787 27.532-34.214 37.134 71.548 13.208 43.787M859.155 1098.943c-96.565-10.423 90.39-113.181 12.709-48.364-25.246 7.24 3.626 62.963-12.71 48.364" style="fill:#fff;fill-opacity:1;stroke-width:1.69481" transform="translate(-30.394 -337.078)"/><path d="M951.398 1138.125c-7.936-24.592 13.218-45.274 4.874-6.27 35.883-10.103 50.252-61.658 73.782-90.797 28.5-34.835 48.47-75.32 75.685-111.268 30.226-51.988 65.543-100.843 92.884-154.617 35.332-55.63 69.94-111.76 106.066-166.782 23.24-42.141 57.103-77.67 78.46-121.167 36.977-48.007 67.799-100.482 98.552-152.564 11.288-58.358-50.823 23.261-66.322 38.52-34.656 29.241-58.942 67.917-88.974 101.556-36.583 50.11-74.27 99.426-105.175 153.37-41.191 63.844-82.238 127.777-117.169 195.345-34.183 56.772-62.234 116.937-96.164 173.8-16.77 42.08-47.089 77.289-61.823 120.394-18.426 21.26 13.125-39.137 20.9-52.213 26.142-41.692 45.146-87.102 71.118-128.932 35.65-68.523 74.442-135.424 112.128-202.775 51.101-76.797 95.157-158.372 152.572-230.855 29.72-40.345 60.444-80.403 95.309-116.325 28.508-28.689 54.346-61.498 88.31-84.154 11.703 42.45-34.88 76.443-50.407 113.732-27.105 41.992-56.499 82.305-82.315 125.158-31.777 38.796-52.86 84.226-82.638 124.446-34.482 56.418-71.51 111.325-102.217 169.92-32.452 46.328-57.74 97.028-92.616 141.706-21.398 41.863-55.057 75.772-75.838 118.19-13.637 13.793-27.414 44.16-48.982 42.582m182.385-5.751c-.908-40.611 28.522-75.65 42.296-112.982 24.498-61.064 66.547-112.616 98.602-169.539 31.618-44.337 57.214-92.515 91.716-134.795 28.722-41.722 62.783-79.59 86.117-124.926 28.425-30.427 40.404-69.533 58.617-105.74 22.251-42.206 51.227-81.51 67.819-126.122 21.459-50.351 75.742-4.445 42.847 30.788-18.139 35.866-36.132 72.766-61.74 104.208-36.975 66.835-75.74 132.637-115.09 198.11-54.576 77.558-104.873 157.77-154.355 238.609-27.975 39.92-50.864 82.969-81.48 120.875-26.233 24.998-36.875 76.183-75.349 81.514m16.422-8.89c30.81-29.592 48.798-71.416 78.223-103.383 38.613-59.904 77.277-120.012 114.789-180.614 38.535-65.037 85.507-124.874 123.315-190.43 31.34-53.179 61.74-106.972 93.256-160 26.158-34.2 44.893-73.479 63.063-112.113 14.397-49.683-47.378-39.365-45.967.555-25.498 43.372-51.568 86.795-74.19 131.825-12.444 46.292-50.531 78.639-70.686 121.262-41.399 58.229-87.794 113.205-123.636 175.238-36.954 51.953-67.877 107.631-102.792 160.938-23.651 49.225-48.946 98.164-67.379 149.595-3.143 10.97 3.79 16.747 12.003 7.127m-371.074-11.528c6.882-41.965 21.161-81.796 32.6-122.555 34.748-75.543 67.59-152.102 110.396-223.643 62.809-117.18 134.533-229.967 218.603-333.12 54.105-72.08 116.34-138.74 187.508-194.162 18.234-11.287 84.03-70.432 55.363-20.184-30.65 44.549-68.076 84.692-99.525 128.976-57.465 71.954-112.93 145.503-167.429 219.739-47.03 65.323-96.244 129.134-138.214 197.898-43.881 70.156-84.394 142.43-120.709 216.82-27.72 40.797-40.094 90.381-68.249 130.096-2.103 1.335-15.122 17.185-10.344.135m12.374-5.898c32.102-72.838 71.774-142.367 107.68-213.652 32.494-55.919 63.934-112.477 100.336-166.004 47.479-72.577 101.533-140.694 151.78-211.433 49.927-65.559 99.69-131.345 150.804-196.03 25.287-37.768 61.498-68.417 81.15-109.548-23.278-1.564-71.226 46.847-98.87 68.915-62.854 54.48-115.307 119.655-164.918 186.132-96.964 123.005-173.427 260.404-245.663 398.897-21.668 52.852-51.918 102.316-66.655 157.723-9.134 26.218-12.854 31.269 3.982 10.588-6.114 17.202-36.467 72.529-19.626 74.412m90.293-30.793c9.073-30.176 31.545-60.853 44.576-91.774 34.3-57.414 63.843-117.585 98.3-174.87 33.426-50.29 65.024-101.867 103.177-148.878 12.74-14.345 49.271-60.975 55.708-48.269-20.04 42.359-48.898 79.933-72.236 120.563-43.018 72.036-89.147 142.216-126.983 217.172-30.324 39.642-47.717 92.261-93.954 117.277-2.752.303-6.755 14.215-8.588 8.779m32.74-29.444c29.636-35.351 52.941-75.843 75.322-115.877 49.058-89.83 105.374-175.448 157.636-263.322 13.011-12.194 48.372-80.876 14.054-38.808-31.26 27.4-53.152 64.11-78.547 97.029-31.654 50.766-67.638 99.009-92.789 153.554-35.003 59.625-68.378 120.27-98.615 182.263 7.114.363 16.765-10.3 22.94-14.84m262.193-149.03c1.24-39.469 33.077-75.019 55.863-106.282 38.824-55.271 83.249-106.516 120.575-162.784 10.524-19.716 56.436-75.935 57.313-64.565-34.734 26.556-53.547 67.192-79.546 101.412-41.536 56.742-86.873 110.94-126.08 169.175-11.23 12.197-39.682 82.7-5.838 45.717 46.861-52.132 79.629-114.898 116.614-174.02 28.889-40.938 56.371-83.22 85.977-123.585 11.69-18.258 39.547-50.48 13.33-12.59-30.812 34.143-49.017 77.25-80.18 111.301-44.739 70.742-83.08 146.94-140.815 208.424-4.853 2.99-10.285 13.496-17.213 7.797m11.734-357.221c30.238-50.487 64.991-98.306 97.479-147.286 9.328-16.607 59.604-49.272 19.674-16.866-37.394 38.272-59.67 88.276-93.059 129.95-12.6 18.234-21.258 40.536 1.506 13.497 32.233-40.629 78.562-69.55 102.806-116.449 13.766-15.292 46.577-80.362 23.852-28.444-24.074 36.18-47.762 72.166-80.935 100.998-26.104 17.848-42.827 56.075-71.323 64.6" style="fill:#000;stroke-width:1.33333" transform="matrix(1.45357 0 0 1.55319 -1060.776 -213.82)"/><path d="M1301.987 384.212c7.01-4.177 13.638-9.03 19.619-14.588 2.85-2.65 5.55-5.58 8.227-8.401 2.12-1.987 4.623-6.044 7.322-7.456.39-.204.867-.173 1.307-.195.525-.027 1.134-.233 1.578.05.348.222-.819.115-1.228.173 1.348-.076 12.16-.126 5.277-.105-.023-.104 1.025.132.94.067-.355-.27-.86-.302-1.201-.589-.98-.82-1.187-1.304-1.709-2.236-1.338 3.317-2.387 6.741-3.63 10.097-1.092 3.425-2.926 6.423-5.05 9.285-1.036 1.673-2.277 3.205-3.405 4.812-.396.565-.73 1.173-1.144 1.725-.544.725-3.328 3.86-3.595 4.165-3.907 4.717-1.93 2.285-5.925 7.299-.437.727 9.852 6.896 10.288 6.169 3.722-5.283 1.988-2.688 5.226-7.77.564-.909 2.307-3.743 3.041-4.83 1.52-2.25 3.604-4.103 4.808-6.58 2.151-3.612 4.486-7.157 5.897-11.147 1.562-4.18 2.986-8.466 3.474-12.922-.111-.952.012-1.962-.334-2.856-.964-2.488-1.835-2.997-4.018-3.918-.321-.136-.904.21-1.223-.032-.94.001-1.88.01-2.82.003-.148 0-.59-.027-.443-.026.86.008 1.723.137 2.577.047.338-.036-.664-.142-.996-.214-2.022-.44-.756-.192-3.113-.605-3.918.016-5.484-.397-8.895.792-5.068 1.766-8.892 5.713-12.703 9.299-1.274 1.213-2.52 2.46-3.824 3.641-7.199 6.52-15.131 12.235-21.829 19.303-.533.53 6.971 8.073 7.504 7.543zM1391.137 586.805c.587-.453 1.207-.865 1.76-1.359 5.807-5.195 10.904-12.152 15.34-18.505 3.277-4.867 6.92-9.068 11.68-12.52.498-.36 3.905-2.494 4.529-2.886 2.375-1.383 3.94-1.968 5.298-4.601.226-.44.243-.957.365-1.436-.017.111.058.358-.052.333-3.255-.75-6.353-2.315-9.683-2.576-.672-.052-.716 1.143-1.033 1.738-1.419 2.665-2.272 5.51-3.22 8.363-.92 3.848-3.155 7.088-5.226 10.385-.347.71 9.7 5.622 10.047 4.911 2.293-3.973 4.675-7.95 5.788-12.451.756-2.414 1.318-4.882 2.159-7.265.159-.451.9-1.058.514-1.339-2.604-1.892-5.567-3.277-8.546-4.499-.285-.117-.168.594-.251.891.446-1.433.032-.407 1.417-2.307.048-.065.187-.232.107-.217-1.441.265-3.17 1.265-4.528 1.652-2.221 1.133-3.782 1.86-5.923 3.292-5.704 3.816-10.266 8.985-14.236 14.532-4.563 6.7-9.204 13.353-14.2 19.742-.432.558 7.46 6.68 7.894 6.122zM963.22 1098.9c1.73-6.013 2.13-12.279 2.832-18.463.511-4.508.27-1.594.452-3.945l-11.847 2.342c-.683-.602-1.346-2.384-2.049-1.805-1.122.923-.638 2.835-.933 4.258-1.7 8.215-2.8 16.462-3.878 24.779-.888 8.248-1.467 16.55-1.412 24.852.01 1.48.029 2.963.18 4.434.063.606-.147 1.7.458 1.769 4.726.538 9.512-.061 14.268-.092 1.5-5.723.781-2.629 2.071-9.304.111-1.141-16.032-2.715-16.143-1.573-.313 7.058-.404 3.821.059 9.714 4.666.88 9.254 2.421 13.998 2.64.714.033.686-1.268.889-1.954.427-1.451.721-2.94.992-4.428 1.476-8.093 2.02-16.31 2.854-24.482.64-8.354.844-9.961 1.173-18.082.028-.687.378-10.396.11-12.058-.383-2.383.41-6.154-1.85-7.001-3.964-1.487-8.402 1.054-12.603 1.581-.446.888-.99 1.732-1.339 2.663-2.664 7.124-2.523 15.646-2.697 23.146-.071 1.02 14.344 2.028 14.415 1.009z" style="fill:#000" transform="matrix(1.45357 0 0 1.55319 -1060.776 -213.82)"/><path d="M185.902 929.766c.537-1.888 1.39-14.168 1.897-27.287l.92-23.853 12.953-21.913c7.124-12.052 16.817-29.853 21.54-39.558s11.937-23.435 16.031-30.511c4.095-7.076 19.88-36.076 35.08-64.443 15.199-28.368 33.977-62.693 41.73-76.277s19.217-34.18 25.477-45.766c15.578-28.834 45.476-78.594 75.482-125.623 13.784-21.605 29.838-47.127 35.676-56.716 40.233-66.084 129.034-183.586 169.094-223.745 9.565-9.59 25.817-26.751 36.115-38.137 24.983-27.625 37.782-37.875 43.148-34.56.844.523 1.535 4.637 1.535 9.144 0 7.962-.592 9.182-20.95 43.138-26.245 43.774-47.126 76.05-65.298 100.927-7.768 10.634-15.99 23.022-18.272 27.527-5.333 10.53-17.802 29.455-39.693 60.24-9.61 13.514-21.53 31.196-26.489 39.292s-17.843 28.451-28.632 45.232c-39.193 60.963-86.592 136.786-91.123 145.767-9.35 18.536-70.108 117.382-93.03 151.35-6.202 9.19-19.624 29.784-29.827 45.766s-24.925 37.558-32.716 47.946c-7.79 10.388-19.253 27.714-25.473 38.501-18.994 32.947-31.589 49.199-42.761 55.178-3.18 1.702-3.33 1.601-2.414-1.619" style="fill:maroon;stroke-width:1.45289" transform="matrix(1.45357 0 0 1.55319 71.746 88.106)"/><path d="M360.666 931.902c-4.665-4.665 9.327-40.225 45.356-115.263 15.277-31.818 24.613-48.979 40.314-74.098a33088 33088 0 0 0 37.587-60.295c9.435-15.183 24.163-38.066 32.73-50.851 8.566-12.786 20.65-31.42 26.853-41.408 14.096-22.698 30.365-45.663 70.422-99.405 33.348-44.742 36.85-49.763 47.994-68.834 3.874-6.63 14.483-22.648 23.576-35.596 9.093-12.949 19.065-27.75 22.16-32.89 6.221-10.335 15.217-30.11 15.245-33.513.029-3.428 26.65-52.49 51.72-95.319 17.079-29.178 23.162-40.851 24.017-46.093 1.642-10.055 7.429-19.08 15.125-23.591 18.354-10.756 32.672-2.252 30.808 18.299-.589 6.494-3.671 13.92-16.048 38.651-17.552 35.073-26.202 50.221-40.959 71.73-5.756 8.391-20.922 33.235-33.702 55.21-88.833 152.747-82.651 142.635-131.909 215.755-17.764 26.37-49.267 75.079-70.007 108.241-52.883 84.559-103.933 163.326-112.526 173.62-4.002 4.795-15.69 21.14-25.975 36.323-31.236 46.115-47.6 64.508-52.781 59.327" style="fill:red;stroke-width:1.45289" transform="matrix(1.45357 0 0 1.55319 71.746 88.106)"/><path d="M9.78 909.612c-1.456-1.455-1.695-3.04-1.286-8.524.587-7.872 4.64-19.197 16.205-45.263 4.387-9.889 7.77-18.197 7.516-18.464s-2.726 2.045-5.495 5.137-5.056 5.213-5.08 4.713 1.52-5.354 3.434-10.787c1.913-5.433 5.43-16.12 7.816-23.748 7.33-23.437 14.225-39.797 37.233-88.352 7.363-15.54 15.903-34.031 18.978-41.094 10.613-24.381 60.63-117.631 95.506-178.058 46.579-80.705 92.988-151.618 137.954-210.795 7.728-10.17 21.609-28.432 30.845-40.58 47.915-63.023 90.293-111.858 126.808-146.13 19.215-18.034 70.715-62.3 84.265-72.429 16.244-12.142 30.64-19.787 37.26-19.787 1.776 0-2.08 7.748-9.691 19.474-7.901 12.173-15.448 21.91-36.642 47.277-10.138 12.134-22.363 27.39-27.167 33.903-4.803 6.512-15.974 21.087-24.823 32.388-43.656 55.752-123.86 160.9-145.362 190.574-8.394 11.583-28.915 39.553-45.601 62.155-69.6 94.27-107.116 149.626-145.175 214.202-28.412 48.209-47.808 82.587-61.443 108.9a15113 15113 0 0 1-30.82 59.072c-20.654 39.34-43.608 85.248-54.45 108.9-4.663 10.17-8.595 18.63-8.738 18.798s-1.065-.499-2.048-1.482M114.057 864.387c0-1.04 27.556-54.59 40.354-78.422 13.082-24.36 36.383-66.015 48.56-86.811 4.633-7.911 11.94-21.412 16.24-30.001 12.815-25.6 23.518-43.259 64.636-106.637 22.53-34.73 60.786-87.849 74.727-103.763 10.731-12.249 37.368-38.894 37.747-37.757 1.156 3.469-14.137 32.34-24.176 45.64-3.125 4.14-12.349 18.568-20.497 32.062-8.148 13.495-27.657 45.394-43.353 70.888-48.806 79.273-68.649 112.792-100.722 170.148-29.317 52.428-57.672 95.546-73.048 111.082-8.417 8.505-20.468 16.495-20.468 13.57M421.784 333.673c1.64-5.52 9.497-18.471 19.218-31.68 5.765-7.832 19.67-28.47 30.902-45.859 30.196-46.755 44.935-66.284 50.188-66.497 4.277-.173 13.697-7.207 25.845-19.302 6.119-6.092 11.541-10.819 12.05-10.505 1.35.835-2.562 10.41-6.692 16.378-1.964 2.838-5.892 7.934-8.728 11.324l-5.156 6.165 2.517 2.23 2.516 2.231-3.578 4.96c-1.967 2.73-6.227 9.225-9.466 14.437-10.331 16.625-22.308 30.382-50.504 58.014-15.014 14.714-30.455 30.282-34.312 34.595-22.905 25.614-26.415 28.94-24.8 23.51M405.441 694.832c-2.754-2.754 2.27-20.574 10.655-37.797 7.336-15.066 30.286-47.479 73.472-103.765 48.333-62.996 68.073-89.726 86.551-117.201 23.245-34.564 31.115-44.67 34.164-43.874 2.691.704 9.26-5.361 16.093-14.86 3.893-5.41 6.494-7.811 6.494-5.993 0 .234-7.545 10.983-16.766 23.885s-25.483 36.173-36.138 51.712c-10.655 15.538-24.99 36.342-31.854 46.23-13.037 18.779-16.134 23.707-45.522 72.429-28.435 47.143-46.405 73.925-66.545 99.173-16.377 20.53-28.361 32.303-30.604 30.06M186.272 930.494c.353-.92 1.195-12.892 1.87-26.605l1.23-24.932 12.222-21.07c6.722-11.587 16.195-28.928 21.052-38.533s13.56-26.018 19.34-36.471c5.78-10.454 21.141-38.654 34.135-62.669 28.97-53.54 75.882-137.9 88.92-159.905 25.588-43.183 84.634-137.52 109.142-174.376 35.214-52.953 86.159-120.759 123.209-163.984 6.053-7.063 21.942-24.4 35.307-38.526 48.361-51.113 57.733-60.065 64.726-61.82 3.324-.834 4.242.982 4.261 8.427.02 8.06-2.471 13.219-22.04 45.627-25.393 42.055-39.236 63.345-70.444 108.343-5.055 7.289-10.993 16.535-13.195 20.547-5.16 9.401-17.142 27.523-36.067 54.553-18.821 26.881-18.87 26.957-62.583 95.779-57.77 90.952-77.826 123.308-91.557 147.703-29.45 52.322-115.089 186.25-154.981 242.373-5.59 7.865-15.418 23.016-21.839 33.668-13.958 23.157-22.367 35.161-30.45 43.466-6.526 6.705-13.42 11.431-12.258 8.405" style="fill:red;stroke-width:1.02735" transform="matrix(1.45357 0 0 1.55319 71.746 88.106)"/></svg>