<?xml version="1.0" encoding="UTF-8" standalone="no"?>
<svg
   xmlns:dc="http://purl.org/dc/elements/1.1/"
   xmlns:cc="http://creativecommons.org/ns#"
   xmlns:rdf="http://www.w3.org/1999/02/22-rdf-syntax-ns#"
   xmlns:svg="http://www.w3.org/2000/svg"
   xmlns="http://www.w3.org/2000/svg"
   xmlns:sodipodi="http://sodipodi.sourceforge.net/DTD/sodipodi-0.dtd"
   xmlns:inkscape="http://www.inkscape.org/namespaces/inkscape"
   inkscape:version="1.0 (4035a4fb49, 2020-05-01)"
   sodipodi:docname="villager6knot.svg"
   viewBox="0 0 1051.1407 1950.7429"
   height="1950.7429"
   width="1051.1407"
   id="svg1016"
   version="1.1">
  <metadata
     id="metadata1022">
    <rdf:RDF>
      <cc:Work
         rdf:about="">
        <dc:format>image/svg+xml</dc:format>
        <dc:type
           rdf:resource="http://purl.org/dc/dcmitype/StillImage" />
        <dc:title></dc:title>
      </cc:Work>
    </rdf:RDF>
  </metadata>
  <defs
     id="defs1020" />
  <sodipodi:namedview
     inkscape:current-layer="g1024"
     inkscape:window-maximized="1"
     inkscape:window-y="-11"
     inkscape:window-x="-11"
     inkscape:cy="2128.2636"
     inkscape:cx="518.63743"
     inkscape:zoom="0.29501806"
     showgrid="false"
     id="namedview1018"
     inkscape:window-height="1826"
     inkscape:window-width="1080"
     inkscape:pageshadow="2"
     inkscape:pageopacity="0"
     guidetolerance="10"
     gridtolerance="10"
     objecttolerance="10"
     borderopacity="1"
     bordercolor="#666666"
     pagecolor="#ffffff"
     inkscape:document-rotation="0"
     fit-margin-top="0"
     fit-margin-left="0"
     fit-margin-right="0"
     fit-margin-bottom="0" />
  <g
     id="g1024"
     inkscape:label="Image"
     inkscape:groupmode="layer"
     transform="translate(-170.57859,-138.91882)">
    <path
       d="m 809.11107,2087.6671 c -87.59697,-25.9859 -180.57696,-17.2252 -270.3474,-24.2894 -41.1527,9.0749 -178.87528,23.92 -83.95242,-23.1599 34.03071,-32.549 11.05617,-44.0126 29.28089,-56.5161 47.41168,-65.9465 44.58639,-158.711 13.28203,-231.5945 -49.39388,-66.4774 -140.0707,-90.3319 -187.34572,-160.0029 -7.20278,-17.9262 -24.54484,-51.8468 -1.04637,-26.741 -0.0979,-86.8539 -128.69313,-99.8769 -108.64751,-202.522 7.88359,-97.632 -29.22139,-194.3765 -13.96494,-290.3643 65.84324,-64.6279 41.66607,-169.92872 100.70613,-247.10305 38.55872,-81.854 119.57955,-131.28336 165.39478,-204.3539 -63.16083,-57.05674 -145.3751,-137.3439 -107.48445,-242.52868 23.40035,-142.71513 166.36669,-271.74292 315.61852,-232.95586 119.17491,17.90966 242.64291,100.11873 261.59642,226.61977 51.54435,79.73984 -87.29996,194.67806 14.07701,243.19931 72.91696,63.13764 145.41876,129.96806 201.47746,208.90907 37.2503,55.93764 0.1653,106.26211 65.3765,145.10691 32.9463,55.73643 -20.9973,125.85353 -7.7582,194.99693 3.983,53.8429 -20.99,135.7792 -29.2095,166.4901 -10.1516,-88.2612 8.764,-164.9225 28.123,-252.3183 31.1537,-70.3878 -63.4794,-127.65082 -40.3632,-29.1231 40.6257,80.6726 3.2412,166.2162 -25.4125,244.3417 -38.9023,90.705 26.9353,97.0521 5.8483,125.4921 -94.9944,27.9745 -86.3107,157.709 -159.22538,219.4536 -63.92239,62.8791 61.41958,-121.4316 51.91368,-90.636 38.2777,-61.2463 85.8664,-262.046 86.2341,-233.2817 -31.6757,96.4189 1.5018,-61.0745 10.9595,-88.4921 18.7651,-35.3603 23.5364,-193.3515 3.1641,-77.4031 -3.2692,44.4056 -30.4853,107.5924 -12.5214,25.9603 5.3676,-72.7864 54.372,-196.25141 -2.9124,-217.4254 0.8056,-91.99032 -86.0564,-111.42874 -140.64009,-164.58286 -38.7085,-46.31024 -136.52162,-58.67926 -145.05913,-79.53864 35.95269,8.52372 112.68343,41.02539 43.30031,-5.58365 -57.14697,-32.69852 -112.2161,-17.11817 -177.92526,-45.7721 -79.63237,0.27123 -169.03334,-9.10428 -232.0594,50.53726 -85.77266,73.90234 -157.89956,169.92821 -188.19515,279.50922 30.6984,-2.74217 56.6994,-83.46263 101.24092,-46.50725 -22.32125,-61.75118 96.73876,4.52254 82.68787,-42.14438 90.00972,-4.72784 156.86759,87.80366 178.53823,164.1706 26.58897,85.8534 -2.60494,166.9508 -60.66521,220.5959 -6.75578,48.9367 25.55911,61.7227 39.78624,18.9732 40.79409,8.7919 94.52929,88.4678 108.32507,5.3819 35.32508,-45.6904 99.66014,63.3279 93.55174,-4.4488 -22.31626,-19.9978 -58.50785,-75.4902 -93.78956,-89.1585 -36.19754,-68.3419 51.93436,-206.9452 44.18632,-208.2173 54.85736,-67.4911 142.4266,-82.60254 227.56693,-94.94476 41.35717,-13.14433 90.38647,51.05704 23.31717,19.67289 -79.03258,-3.37601 -167.42207,14.33459 -223.69355,74.07507 -51.9532,47.4786 -107.99461,204.6016 -13.96654,220.7423 99.07944,18.3369 24.11265,160.5418 -44.22367,101.4815 -36.12092,44.6097 -82.74909,34.231 -119.73472,8.9075 -103.35783,58.6245 -63.80813,-107.135 -4.25164,-130.4065 4.9568,-68.5144 39.55577,-172.066 -36.56497,-218.11725 -62.6156,-52.15252 -173.90248,-69.35517 -231.43893,-10.62508 -16.03352,32.97203 -40.90105,76.43843 -66.40774,44.76573 -43.50921,50.3832 91.84119,129.1276 61.00395,43.316 44.34094,39.1227 43.18336,4.0091 28.47441,-25.668 20.06218,-17.0613 56.93213,-41.672 7.81334,-25.3283 26.13318,-4.1938 96.40082,-18.83845 30.85096,-19.91989 56.50311,-28.36383 188.56138,37.09509 168.91778,59.06789 -20.5177,-47.242 -122.25296,-34.5806 -44.07965,-0.6112 57.87197,19.3769 90.03593,83.825 18.30869,83.7232 6.90432,52.0859 -24.50129,-21.6824 -61.19103,5.0927 -49.09967,-18.1308 -74.31035,65.2816 -79.96742,2.9215 -36.07316,-18.027 -23.36512,49.5897 -32.05463,-6.6297 -18.70167,-21.6735 -104.84554,-38.8281 -61.16377,-14.8223 -27.77742,39.4143 73.79197,100.7008 50.81326,122.8073 -27.11831,-9.2564 -84.84698,-124.8284 -53.9953,-39.9528 26.684,46.7899 87.11157,116.7009 81.15841,124.5682 -38.4019,-20.3498 -71.98736,-105.2358 -87.27683,-106.886 28.66454,59.5102 51.27881,136.4149 121.19716,159.0431 -91.97506,9.2119 -116.48689,-164.7919 -134.80952,-154.0661 19.6013,70.6822 85.14453,154.7828 116.83914,193.9948 -62.8127,-14.0817 -97.42251,-156.0425 -108.48232,-134.3035 21.63086,63.9445 6.06756,143.9681 60.20744,195.4029 -17.38334,-33.5575 -77.96116,-157.2221 -36.6276,-56.9127 37.31673,83.6703 37.83931,186.6958 118.27826,246.6141 44.90452,59.0019 127.44637,107.0066 192.80844,61.0606 24.21485,107.0209 138.80628,36.732 206.97874,21.6462 8.8007,-29.9924 63.20506,-32.4714 27.84482,11.3004 -10.3235,75.0981 0.0155,153.7414 28.65756,223.0268 25.88014,41.0075 100.09511,105.0113 3.94861,83.7199 -30.0978,4.7524 -60.41249,15.7818 -91.19917,9.2704 z m 36.62065,-5.48 c 57.64164,-0.1404 110.20815,-30.0462 44.86697,-74.444 -51.91163,-64.3937 -8.06034,-194.2845 -71.13445,-232.591 -64.59964,31.4798 -193.8216,38.4828 -222.32047,31.6333 20.0639,-44.933 -77.06916,-8.5451 -30.16862,-30.342 -97.09608,-40.4358 92.50812,125.7773 9.86052,61.1741 -79.51624,-70.1395 -38.07491,47.3658 11.13033,59.6035 29.91153,31.8185 -102.1055,-83.0208 -44.18994,-5.8667 31.98954,16.4241 58.5711,66.9183 8.69606,25.0365 -62.33472,-54.4945 50.22852,83.7646 36.12746,82.3045 -30.08251,7.1193 -91.88877,-51.2778 -37.54748,-24.5882 -43.20717,-92.4782 -38.52439,37.9654 -87.90617,57.5322 -39.59224,67.9873 96.58693,13.0343 129.19758,25.9889 85.41819,-2.3742 169.2049,13.282 253.38821,24.5589 z m -324.39839,-33.106 c -48.64638,-4.7113 -36.78713,-40.3266 4.71985,-10.8616 16.18957,-1.7274 20.33075,23.4153 -4.71985,10.8616 z m 19.87819,-13.0576 c -45.23699,-2.1135 -38.15954,-76.92 -5.30387,-13.4686 4.74557,-1.0061 43.27705,19.7341 5.30387,13.4686 z m 16.58015,-9.412 c -48.99372,-10.4556 -45.72075,-71.2337 -5.87351,-14.648 4.29039,-0.5538 40.86308,20.3228 5.87351,14.648 z m 84.875,-235.1995 c -1.8827,-5.4771 -4.09827,3.3348 0,0 z m -13.75978,-3.7453 c 4.51075,-36.9349 -37.76583,11.6976 0,0 z m -22.85497,-9.084 c -8.17675,-29.7246 -32.5084,11.7532 0,0 z m 244.61475,-7.916 c -1.90831,-5.207 -2.69924,5.5383 0,0 z m 20.05036,-30.7319 c 3.26343,-9.7392 -20.20335,22.5512 0,0 z m -468.59708,-83.4144 c -40.36162,-34.4265 33.19752,35.0477 0,0 z m -58.90387,-57.3057 c -27.81261,-67.4774 -29.66616,-16.3492 0,0 z M 344.0336,1535 c -1.87043,-38.7537 -69.99264,-119.1973 -26.80926,-36.6293 2.86461,4.8794 41.64503,81.5825 26.80926,36.6293 z m -59.90212,-69 c 7.49366,-119.1975 -47.31108,37.9165 0,0 z m -22.79815,2.7453 c -1.88269,-5.4771 -4.09827,3.3348 0,0 z m -20.07684,-17.4246 c -18.86776,-60.2263 -9.36341,34.5271 0,0 z m 14.70162,8.299 c -8.28484,-26.9423 -8.30136,21.1027 0,0 z m 56.82524,-19.2864 c -5.36284,-44.6966 -46.31769,-85.8685 0,0 z m -49.01032,-7.4436 c 67.4503,-37.4161 -50.47744,-170.4433 -40.35617,-57.2089 -0.0725,22.9729 5.11685,71.2392 40.35617,57.2089 z m 847.91747,-20.3141 c 13.699,-49.3978 -30.615,-0.8427 0,0 z M 288,1366.0787 c -1.19328,-9.8807 -4.80638,7.3241 0,0 z m -19.00377,-35.7454 c 28.62539,-56.176 -56.54209,-61.096 -17.08714,-3.1295 l 7.60285,4.2919 z m 291.9683,-12 c -0.006,9.9987 -0.005,9.0483 0,0 z m 162.28488,4.4261 c 2.97859,-8.2653 -9.28281,10.2497 0,0 z M 758.66667,1324 c -1.90866,-5.2067 -2.69892,5.5384 0,0 z m -23.982,-14.0093 c 1.6874,-9.4612 -31.714,30.1631 0,0 z m 3.30589,7.3579 c -4.09158,-3.2366 -3.35257,5.6462 0,0 z M 224.955,1305.6667 c -0.0102,9.2939 -0.008,7.1326 0,0 z m 16.66443,-25 c -21.82792,-74.668 13.70545,-163.6747 -9.63948,-228.0243 -112.85282,41.7807 9.05939,161.5202 5.67736,239.2527 1.32071,-3.7428 2.64141,-7.4856 3.96212,-11.2284 z M 270.054,1277 c 2.25438,-51.4309 13.24114,29.8195 0,0 z m -51.35913,-0.9017 c -4.07409,-27.1102 -4.5633,12.074 0,0 z m 921.87653,-12.8602 c 1.0412,-53.691 43.0189,-185.4594 13.4418,-176.439 6.4276,59.5262 -26.9508,117.0099 -13.4418,176.439 z m -558.53387,-10.9784 c -11.26673,2.3769 -8.25893,18.5328 0,0 z m -360.59922,-3.1246 c -2.74369,-27.3128 -25.51057,-25.7539 0,0 z m 42.62254,-36.4684 c 16.75367,-40.3806 -25.865,-132.4334 -27.14633,-39.8417 -1.39474,22.1831 28.20955,106.1895 27.14633,39.8417 z m 349.27248,30 c -9.70734,-5.5439 -14.84949,5.4651 0,0 z m -3.90866,-10.1367 c 38.31445,-28.2023 -17.33342,1.9065 -5.05943,-0.9617 z m -316.94391,-71.7381 c 11.3206,-42.8581 -35.97508,-11.6457 0,0 z m 229.25665,-22.7368 c 42.03357,-8.9216 85.68142,-34.0507 28.14588,-62.4732 -19.39052,2.5718 -37.50274,61.9441 -28.14588,62.4732 z M 502.45397,1136 c 54.28582,-22.6094 -47.95167,9.0031 0,0 z m -53.97484,-1.6667 c -20.05542,-34.5576 29.58038,-89.7042 -38.04688,-57.7069 -79.6884,16.9769 -35.45445,74.5327 23.11277,59.8602 0.41846,-0.221 16.22002,5.9595 14.93411,-2.1533 z m -167.84636,-5.5497 c -17.11728,-24.947 1.96859,23.0104 0,0 z m 215.23022,0.5497 c 75.41834,-3.1814 -26.66402,-97.2385 -19.29203,-25.1482 58.38257,-54.8625 -8.68587,70.7727 -8.15659,-4.4982 -3.69042,-68.8602 -36.35335,63.6217 27.44862,29.6464 z M 491.95355,1112 c 35.24728,-29.8628 -28.26875,-23.801 0,0 z m -222.13804,-4.6667 c -2.78316,-7.6758 -1.4089,7.196 0,0 z m 196.07338,-35.9779 c 57.78696,-23.9713 -46.89341,22.7452 0,0 z m -64.51637,5.2824 c 15.46906,-14.7648 22.77162,-57.079 29.60321,-10.1595 21.85862,-11.7314 19.70844,-61.4546 27.63192,-8.6077 64.01708,-11.7489 6.23157,-76.9042 -32.98491,-38.2395 -35.52572,2.2812 -78.82396,37.0324 -24.25022,57.0067 z M 240,1034.6667 c -1.90834,-5.207 -2.69922,5.5384 0,0 z m 70.66667,-22.2067 c -3.69852,-15.20408 -2.92775,16.3865 0,0 z m -22.15126,-0.2153 c -4.44401,-36.10268 -38.89154,9.9967 0,0 z M 240.89675,1007 c 26.79225,-37.17541 -15.7108,-19.44165 0,0 z m 17.6273,-9.29717 c 15.42367,-36.93632 21.45161,-93.23114 3.17883,-25.25905 4.28774,-6.00504 -14.63717,43.80262 -3.17883,25.25905 z M 808,995.27913 c -10.88706,5.54307 -17.03008,8.67077 0,0 z m -505.33333,-1.2164 c -2.13887,-17.47363 -19.47594,5.50824 0,0 z m 15.74912,-3.04742 c -3.54984,-12.93726 -5.92109,7.27924 0,0 z m 508.68817,-14.8799 c -2.19628,-21.84564 -29.4972,45.91759 0,0 z m 346.16984,-4.56826 c 4.9377,-41.97684 -46.0048,37.32855 0,0 z m -366.43705,8.76618 c 2.94389,-6.00092 -9.87572,10.4634 0,0 z m -469.81284,-1.66666 c 0.0121,-9.67968 -7.55651,11.16588 0,0 z m 476.42913,-6.89035 c -2.28112,-7.3284 -8.14996,21.94222 0,0 z m 379.88026,-1.15149 c -3.8559,-14.05605 -7.9867,10.25972 0,0 z M 876.64287,942.96861 c -14.69052,9.14357 -20.51567,24.17248 0,0 z m 35.00912,0.71712 c 31.09916,-30.81488 -17.71896,6.072 0,0 z m 19.01468,-3.01906 c -1.25478,-7.76294 -7.17015,9.82241 0,0 z m -416,-4 c -7.81617,-5.47397 4.98643,8.74769 0,0 z m -251.8018,-3 c 19.24915,-31.32454 10.48525,-62.52455 0,0 z m 712.46846,-3 c -2.40302,-13.75744 -11.89073,8.27013 0,0 z m -673.9517,-32.89116 c -6.11863,-4.13474 -14.16229,38.36758 0,0 z m -16.06871,-7.52087 c -7.76315,-0.59045 3.11244,9.10604 0,0 z m 36.11843,-26.68621 c 18.13289,-56.64844 -30.72371,56.06748 0,0 z m -9.47015,-11.97552 c 58.17168,-130.67241 -48.30866,84.04765 0,0 z m 786.7856,-16.7327 c -11.8902,-17.93431 0.035,16.46959 0,0 z m 29.4214,-5.84104 c -9.5612,-29.30511 -36.6392,-39.56487 0,0 z M 1028,828.20005 c -9.887,-19.54294 -48.5403,-42.02618 -13.7683,-9.38863 z M 306.46405,811.64153 c 11.35368,-35.4585 -15.49115,37.0627 0,0 z M 318.05931,810 c 0.22294,-12.77136 -18.06214,42.98108 0,0 z m 759.26209,0.77756 c -35.8991,-29.98268 19.116,26.04874 0,0 z M 373.34003,794.65821 c 6.74942,-29.81659 -31.9211,47.47785 0,0 z M 330.29485,780 c 27.56549,-49.76978 -28.96617,51.09917 0,0 z m 14.03175,-1.75968 c 23.34293,-24.4907 83.5653,-116.37851 22.66206,-47.28905 -3.89281,4.7023 -58.2314,81.93146 -22.66206,47.28905 z M 992,780.06852 c -16.6571,-53.5071 -86.8303,-36.49235 -14.20752,-6.6576 l 6.69118,4.29187 z M 397.90588,760.22423 c 18.55326,-41.42518 -30.63104,49.18047 0,0 z m 654.32582,9.44244 c -19.8625,-29.13801 -13.8929,-2.56203 0,0 z M 421.20001,742.03388 c 8.97372,-31.59303 -26.29993,54.43447 0,0 z m -44.92136,6.63279 c -8.6582,0.19064 -1.50659,15.89509 0,0 z M 985.9834,733.57216 c -30.40856,-19.8897 24.7707,30.52188 0,0 z m -573.81332,4.09451 c 2.94391,-6.00094 -9.87571,10.4634 0,0 z m -33.50341,-28.10414 c -21.4028,15.25324 -20.42029,27.40671 0,0 z m 39.9365,8.65578 -10.7959,11.39381 z M 934,727.22255 c -20.99647,-48.92609 -58.92341,-10.19957 0,0 z m -503.33333,-3.88922 c 5.06494,-12.22753 -14.24285,16.54614 0,0 z m -27.76959,-11.66666 c 33.55387,-41.022 -18.67868,14.78634 0,0 z m 38.45853,-7.33334 c 5.10257,-14.09602 -17.05306,29.1978 0,0 z m 41.10004,-20.06109 c -24.73178,-11.55597 -12.33376,31.39899 0,0 z M 1008,690.71545 c -15.61448,-38.72024 -96.1658,-61.82614 -31.07004,-16.1591 10.75893,4.37825 23.18054,6.70272 31.07004,16.1591 z m -587.89908,-4.98792 c 12.16718,-13.95777 -14.16525,12.6571 0,0 z M 449.86399,672 c -15.80764,7.92757 -9.78044,20.50184 0,0 z m 348.0839,12.58736 c -23.47874,-33.89229 -100.16666,-32.29835 -28.40724,-7.07613 4.28782,-1.14675 27.3416,20.22031 28.40724,7.07613 z m 115.91263,3.63833 c -13.89487,-17.28452 -35.02764,-9.90359 0,0 z M 521.56623,669.53631 c 7.71489,-14.01145 -45.65031,32.39278 0,0 z m -54.91303,-1.51815 c 18.56984,-35.61262 -30.24423,42.16111 0,0 z m 35.90236,4.41363 c -9.94123,6.17268 -14.39065,8.93541 0,0 z m -67.22223,-4.48915 c 17.25214,-21.06538 -37.79403,35.99142 0,0 z m -10,-0.60931 c 27.90883,-30.10392 -33.03624,32.33178 0,0 z m 79.43968,-7.5054 c -16.8378,0.77481 -19.09171,22.49269 0,0 z m -4.08162,-3.3893 c -10.90423,-4.38317 -24.38737,33.43598 0,0 z M 912,666.45707 c -23.98602,-19.26382 -34.32658,-20.87182 0,0 z m -454.66667,-5.7904 c 8.38205,-11.68217 -13.25054,13.82934 0,0 z m 88,-0.0939 c -7.78957,4.14181 -4.89995,2.60537 0,0 z M 457.55096,645 c -22.39744,6.48812 -17.42481,23.3452 0,0 z m -23.46708,9.33333 c 11.82584,-13.42538 -15.24645,15.42492 0,0 z m 190.77649,-13.88474 c 34.29947,-36.41423 -47.28136,35.6934 0,0 z m 6.90351,7.6124 c 23.38352,-22.50722 -37.50633,24.46511 0,0 z m 8.06531,3.79877 c 31.68207,-23.37303 -24.44932,6.4164 0,0 z m 229.50414,0.20065 c -22.13544,-38.14765 -83.43137,-23.16468 -18.24762,-6.72106 5.30078,2.09842 11.51326,14.07341 18.24762,6.72106 z M 500,647.33333 c 13.40301,-16.20177 -18.41599,18.38982 0,0 z m 31.09039,-2.9554 c -12.54322,-1.58545 -11.73531,15.68551 0,0 z m 73.57628,0.17343 c 54.95958,-39.85328 -7.41508,14.93771 0,0 z m 52.88796,1.78197 c 33.0966,-29.39358 -30.32026,21.98612 0,0 z m 15.24369,-0.62445 c 5.81096,-24.76153 -22.39329,26.99086 0,0 z m -192.62824,2.62445 -1.5926,1.16927 z m 113.9138,-2 c 11.54205,-13.03486 -20.1754,18.14766 0,0 z m -1.41721,-3.03989 c 21.37877,-19.61228 -48.51205,27.87583 0,0 z m 90.9132,4.59973 c 11.30266,-11.71096 -24.76799,6.81945 0,0 z m -66.24654,-10.16582 c -11.48945,9.27292 -19.22421,15.51551 0,0 z m -95.97972,5.1683 c -6.09138,3.91493 -5.29861,3.40542 0,0 z M 585,638.31109 c 39.525,-23.72003 -58.58935,28.30889 0,0 z m 28.33333,-8.71897 c -13.83795,11.67537 -17.24138,14.54691 0,0 z m -152.4023,0.64383 c -9.5882,7.636 -14.91442,11.87778 0,0 z m 251.66922,8.53817 c -12.01108,-14.15797 -17.67743,13.70454 0,0 z m -49.74796,-2.72976 c 4.98988,-10.82305 -17.4447,14.57477 0,0 z m 35.11703,-0.0107 c -2.31041,-15.53499 -17.1631,10.61243 0,0 z M 548,634.55676 c 11.21345,-9.6545 -20.50985,12.24491 0,0 z m -3.82309,-3.31307 c 22.81359,-12.76146 -23.53323,8.80879 0,0 z m 100.62345,-2.88777 c -10.10666,6.54441 -12.51894,8.10645 0,0 z m -172.20504,-1.02259 c 13.65029,-20.33006 -21.5267,24.91291 0,0 z M 536,629.29595 c 10.53999,-10.47404 -30.20805,12.96751 0,0 z m 150,1.37072 c -4.88326,-6.44186 -5.70092,6.90505 0,0 z m -19.44444,-3.51394 c -8.01791,3.63721 -4.98604,2.26185 0,0 z m 239.18649,-5.94054 c 10.29367,-46.42583 -84.03301,-34.11945 -14.03584,-18.18103 1.30572,-2.80585 12.49645,32.44266 14.03584,18.18103 z m -400.48358,-5.54552 c 44.15714,-25.87233 -52.39198,8.0637 0,0 z m 59.4082,-1.3882 c 17.12652,-22.75229 -51.27453,24.95828 0,0 z m 153.19425,-4.63136 c -30.22442,-20.13015 6.19255,21.0878 0,0 z M 782,611.94885 c 28.81356,-16.66633 -36.35481,5.09319 0,0 z M 490.21553,607.05629 C 415.40299,556.43836 348.61527,479.80579 352.53807,384.117 323.4775,479.43907 392.78809,590.01426 487.52535,608.18314 Z M 700,608.66667 c 8.38205,-11.68217 -13.25054,13.82934 0,0 z m 70.66667,-6.4573 c -36.47284,-35.62316 -25.22621,28.70454 0,0 z M 676,608.66667 c -4.97666,-7.50462 -8.44053,13.23565 0,0 z m 14.66667,-1.42716 c -7.78959,4.14177 -4.89996,2.60534 0,0 z M 818.88768,606 c -28.79968,-23.87063 -50.44607,-0.31224 0,0 z m -285.55435,-9.92509 c -12.39509,-15.69471 -19.52011,12.81548 0,0 z m 60,-6.20874 c 40.0304,-17.5383 -53.31996,19.10257 0,0 z m 15.02211,3.58527 c 13.38681,-13.2094 -5.56331,14.20779 0,0 z M 578,589.33333 c 30.25136,-20.10549 -44.64638,20.97602 0,0 z m -62.13692,1.81251 c -19.861,-35.31553 -105.27288,-13.20773 0,0 z m 350.18444,-10.1818 c 57.11883,-42.84223 17.67983,-220.85852 41.71357,-203.03256 -27.36179,76.75467 -14.06413,165.17712 -55.16198,236.77373 -1.55292,-7.43484 4.22107,-28.50443 13.44841,-33.74117 z m -302.63989,5.47604 c 13.65058,-13.75848 -48.16207,24.51997 0,0 z m -14.00808,-0.47432 c 10.40617,-11.45392 -27.10177,11.20849 0,0 z m 298.90264,-5.38988 c -18.39148,-48.82976 -39.80157,37.92766 0,0 z M 754,582.66667 c -7.88241,-7.19443 -7.06654,6.72345 0,0 z m -220.66667,-1.33334 c -5.70091,-6.90505 -4.88326,6.44186 0,0 z m 19.33334,-10.15857 c -38.42352,-16.08677 -91.42214,-10.89379 -22.15437,0.28859 -5.1371,-1.38361 47.7132,5.86243 22.15437,-0.28859 z m 230,-6.49349 c 44.46111,-36.41624 -51.2778,13.27072 0,0 z M 847.97208,564 c 80.47942,-85.98796 -58.50959,2.16768 0,0 z m -18.9218,-4.73372 c 43.21997,-36.32786 -29.6351,14.40141 0,0 z m 38.78472,2.93253 c 22.5549,-27.50055 -11.68968,-8.87959 0,0 z m -48.13835,-13.86548 c 20.3289,-36.69063 20.44295,-8.85852 -0.91615,6.7415 l -4.76301,0.16933 z m -73.76836,5.37274 c -0.78713,-8.37896 -6.04636,13.80768 0,0 z m 12.12654,2.20522 c 0.56113,-7.46535 -5.70005,7.01951 0,0 z M 447.45328,544.60423 c -43.47981,-33.60776 26.35373,33.51611 0,0 z m 340.24336,1.5495 c 23.98229,-31.70315 -37.01038,21.74759 0,0 z m 21.62341,-0.33816 c 10.41026,-36.29991 -18.74823,26.81346 0,0 z M 526,549.22944 c -54.87771,-24.65342 -39.10682,2.05072 7.92865,3.17317 z m 298.55453,1.91531 c -2.41948,-5.01036 -4.00338,10.56171 0,0 z m -139.7173,-3.80544 c 25.61852,-16.50472 -59.48282,21.23127 0,0 z m 33.4961,-5.74828 c 25.51854,-37.82534 -42.34038,31.46146 0,0 z m 39.91407,6.17656 c 10.18333,-14.50589 -13.42417,10.97175 0,0 z m -6.42684,-8.96547 c 4.07733,-26.58671 -25.9946,40.61658 0,0 z m -29.48723,6.54583 c 21.88359,-18.63112 -16.48402,4.10709 0,0 z m 120.61748,-4.57508 c 61.05245,-106.48614 -32.47499,14.13703 0,0 z m -134.28414,-4.00762 c -10.53022,-3.70313 -18.84146,22.46782 0,0 z m 34.77837,-5.7581 c 50.27521,-58.57056 11.87061,-28.5745 0,0 z m -319.47764,3.32618 c -16.38834,-68.51768 -54.17263,-18.8393 0,0 z m 188.36593,2.11696 -3.25312,0.0636 z m 52.33334,-3.95034 c 60.97315,-20.34319 -34.16937,3.90004 0,0 z m 147.81752,-0.91678 c 40.88517,-35.97575 -21.62975,0.8951 0,0 z m -18.46279,-3.1906 c 44.39936,-35.26393 -34.03894,13.20067 0,0 z m -109.36417,2.28936 c -4.09154,-3.2366 -3.35265,5.64624 0,0 z m 29.93878,-3.04674 c 42.78573,-24.38956 -31.54487,10.31575 0,0 z m 46.63771,-9.17048 c 5.62593,-19.31156 2.48416,-1.63109 -8.74939,11.99999 z m -166.80528,7.18381 c -16.01167,-13.58773 -30.42027,18.55524 0,0 z M 790.66667,520.923 c 50.65798,-6.92251 31.19736,-80.89096 -0.4081,-15.31305 -3.98412,0.60378 -27.42871,45.54791 0.4081,15.31305 z m -228.32703,5.41033 c -13.28095,-9.69564 -12.60341,7.02979 0,0 z m 87.55573,-1.55829 c 99.00309,-40.90138 -87.39008,-10.94823 -20.46827,3.74967 l 10.36537,-1.84689 z m 54.3052,-5.88537 c -11.5131,-2.3606 -9.00281,20.67866 0,0 z m 159.74606,-1.72778 c 7.03747,-24.60395 -15.70454,34.69195 0,0 z m -89.1018,-0.49522 c -7.82179,1.15036 -4.06312,16.18036 0,0 z m -264.17162,3.34557 c -20.60988,-26.12561 -23.40706,-8.25975 0,0 z m 95.1423,0.65443 c -1.65664,-7.49324 -3.76641,8.37789 0,0 z m 136.92293,-4.2145 c 13.57443,-14.92811 -17.26946,15.52163 0,0 z m -45.10388,-10.9577 c 39.73241,-45.19531 -52.00532,32.97768 -3.25143,2.25826 z m 138.01048,6.74638 c 36.65278,-40.71208 -23.9033,6.41495 0,0 z m -11.56256,-7.10665 c -6.89516,-18.15456 -18.56268,42.92373 0,0 z M 562,512.08325 c -53.07527,-42.35258 -51.94306,12.66919 0,0 z m 134.49665,1.19918 c 42.39842,-22.81519 -22.92873,5.01605 0,0 z M 720,510.58785 c 20.22814,-19.42733 -26.2227,19.20871 0,0 z m 66.76284,-13.70074 c 1.78579,-26.64009 -26.38166,52.92872 0,0 z M 748.5624,507 c 45.73454,-41.50243 -28.74266,15.77714 0,0 z m -13.19271,-5.40808 c -9.29902,7.82591 -11.21035,9.43445 0,0 z M 590,501.28433 c -57.90574,-14.22238 22.45541,11.31685 0,0 z m 137.48893,-8.951 c 38.16357,-41.9092 -34.38736,29.33144 0,0 z m 13.76995,-5.25666 c -31.38393,-1.8352 -6.91103,36.2872 0,0 z M 508,492.00384 c -13.49511,-55.86055 -40.39871,-2.80651 0,0 z m 138,-5.44172 c 45.97744,-39.82616 -42.12785,27.33268 0,0 z m -1.33333,5.31237 c 4.41382,-10.06349 -32.7615,33.71252 0,0 z m 14.75512,5.34668 c 78.49045,-13.74293 -14.13046,-48.19077 -11.42814,5.15119 z M 558.2244,492.33333 c -15.70349,-37.8837 -35.64264,24.07928 0,0 z m 70.92229,1.61911 c 42.59989,-38.65461 -24.98794,13.06259 0,0 z m 123.59308,-2.00273 c 28.28932,-21.66886 -21.647,10.37585 0,0 z m 89.86648,-0.54358 c -2.72473,-8.80341 -11.18548,19.64331 0,0 z m -390.05549,-3.0728 c -11.14107,-40.07243 -27.03219,-19.78613 0,0 z m 163.65256,1.80996 c 72.31749,-27.84835 -2.17421,-71.7908 -23.14121,-13.83936 -0.7655,11.51138 13.29416,19.53841 23.14121,13.83936 z m 82.46335,-3.29705 c 46.71371,-32.49986 -36.52294,15.54288 0,0 z m 108.69794,-5.69131 c 34.61015,-36.91961 -42.71725,35.15385 0,0 z m -223.3734,2.51174 c -2.98893,-16.29536 -4.65176,21.3227 0,0 z m 138.00411,-0.99095 c 24.73364,-30.74297 -14.47742,2.73472 0,0 z m 49.30459,-11.39784 c 19.14277,-33.00829 -42.31558,41.68805 0,0 z m 16.65573,6.51181 c -15.56705,7.83079 0.0995,7.52404 0,0 z m 5.4974,1.98663 c -3.01216,-7.68504 -7.20112,21.92562 0,0 z m -214.21297,-0.66373 c 26.21381,-48.25994 -39.85183,3.0291 0,0 z m 157.89904,-3.58328 c 37.71281,-42.03484 -25.42335,9.4455 0,0 z m 111.37332,4.72025 c 24.74811,-45.24504 -20.18232,9.61412 0,0 z M 405.96997,469 c -14.32049,-64.18065 13.14591,5.32952 2.67517,5.31046 l -2.18054,-4.32858 z m 139.36336,7.82992 c -4.33643,-47.08839 -44.47528,9.36665 0,0 z m -71.98408,-9.41223 c -26.3537,-57.82928 -15.01241,23.43094 0,0 z M 768.22581,462 c 58.56744,-100.88982 -56.7514,45.10774 0,0 z m 28.82534,4.34003 c 13.56134,-27.74111 -28.68273,30.79389 0,0 z m 22.28218,-1.13939 c 33.89489,-33.83261 -47.22356,27.72468 0,0 z m -94.41741,4.46603 c 36.09362,-39.55961 -19.44198,7.44415 0,0 z m -200.29051,-8.11882 c 26.85757,-45.8225 -33.80155,19.73562 0,0 z M 557.33333,465.5 c -5.87942,-24.70671 -9.41731,17.346 0,0 z m 99.67355,-5.80757 c 29.24897,-51.91333 -24.02514,29.5408 0,0 z M 508,460.72843 c 24.77783,-63.12468 -69.28001,-44.41254 0,0 z m 167.74924,-6.76691 c 34.91409,-48.93408 -46.05583,32.52601 0,0 z m -77.00828,6.61731 c 12.77202,-11.96552 -19.40621,9.10388 0,0 z m 127.1342,-6.07447 c -3.04702,-53.81457 -77.06203,32.09964 -0.3485,6.64498 z M 793.50472,457 c 1.72006,-8.27206 -7.34703,12.99199 0,0 z m -48.78679,-3.74961 c 16.49017,-34.33336 -15.0719,12.63882 0,0 z m 39.49334,-3.25047 c 1.01784,-12.25281 -14.22328,27.74014 0,0 z M 429.2732,446.13991 c -1.22482,-60.07381 -38.10139,-22.98779 0,0 z m 388.73137,4.75356 c -7.70672,6.27369 -6.89513,5.61301 0,0 z M 758.95767,449 c 18.3194,-31.13317 -15.72715,15.3702 0,0 z m -130.87582,-6.31001 c 58.37273,10.94425 32.34123,-79.43174 -0.23407,-22.8492 -20.46344,9.05906 -32.31316,46.54605 0.23407,22.8492 z m 174.37214,0.97668 c 18.68562,-29.66121 -14.94973,12.04158 0,0 z M 863.11084,445 c 13.7255,-47.93859 -16.16166,-2.85068 0,0 z m -273.89615,-3.79648 c -13.70889,-23.22343 -19.26271,22.81221 0,0 z m 298.1511,-32.77031 c 31.30569,-38.16268 -18.9877,-137.98996 -12.30259,-38.04268 -6.354,17.36072 -4.95476,95.48204 12.30259,38.04268 z m -284.64822,33.90012 c 36.3904,-16.75727 0.69675,-30.51325 0,0 z M 469.53225,430.33015 c -20.22575,-71.81713 0.75609,115.35867 -2.25866,21.10619 -3.02781,-7.4906 0.61023,-14.17848 2.25866,-21.10619 z m 85.114,12.00318 c -2.96985,-14.73442 -13.61212,10.13573 0,0 z m 212.02042,-20.82218 c -28.75586,-14.0575 -1.347,45.16282 0,0 z M 827,432.06192 c 32.01074,-43.73165 -37.00588,42.04987 0,0 z m 7.62688,3.60475 c -8.18141,-19.59293 -4.71355,29.01342 0,0 z m -287.48147,1.87432 c 10.92818,-21.95049 -16.33868,-0.87375 0,0 z m 285.0637,-20.74104 c 25.3012,-60.70324 -21.44645,27.34889 -1.13732,1.48685 z m -298.37578,12.36672 c 4.98468,-28.14198 -18.92818,14.82777 0,0 z m 313.74783,-12.69662 c -9.51353,9.53925 2.19981,25.40651 0,0 z M 383.93169,380.66667 c 18.57491,-33.22025 34.93752,-137.10292 -3.54135,-51.98543 -7.96387,26.34766 -0.62398,136.04257 3.54135,51.98543 z m 363.95138,45.66666 c 33.0227,-37.99644 -13.24987,3.59533 0,0 z m -152.7883,-0.89477 c -11.98503,-7.44288 -11.63296,10.87793 0,0 z m 140.46315,-5.6408 c -37.47597,-72.4659 -54.87305,48.32052 0,0 z m -44.87083,4.16407 c 50.21219,-50.90359 -155.78037,83.52509 -6.69289,1.79079 z m -80.55693,-2.27612 c -15.42454,-3.1768 -3.99781,6.69048 0,0 z m -84.99467,-0.53107 c 3.4017,-14.63972 -11.60906,7.15418 0,0 z m -40.2439,-21.91273 c -30.37524,1.33889 14.59823,46.20855 0,0 z M 463.98317,401 c -20.24257,-5.30939 -5.09804,35.74841 0,0 z m 289.47816,12.43313 c 45.49587,-44.28218 -86.33317,-57.03102 -16.97756,-14.58273 2.90295,5.03546 7.53488,24.62693 16.97756,14.58273 z m -175.72845,1.7533 c 70.71311,-60.72092 -50.63607,-27.01551 0,0 z m 205.81319,-13.41814 c -17.83193,1.0803 1.81558,26.76905 0,0 z m -178.85771,9.41808 c 8.15441,-17.61871 -28.0277,24.49712 0,0 z m 14.36539,1.41286 c 37.49572,-25.8517 -35.67988,6.34296 0,0 z m 168.64158,-2.68168 c -5.20127,7.01952 -3.07715,4.15285 0,0 z m 36.24694,-12.69928 c 5.88027,-42.10303 -16.66811,55.19227 0,0 z m 24.72153,12.97322 c 10.30468,-29.54777 -13.4983,12.28878 0,0 z m -343.64625,-5.92658 c -14.925,-37.70953 0.49122,17.73199 0,0 z m -49.26594,-4.69532 c 43.1646,-44.35384 -10.86162,-91.87718 -13.47835,-18.32607 -2.49533,6.83265 0.56422,42.65605 13.47835,18.32607 z m 81.99352,-7.90527 c 14.4089,-80.54025 -38.37015,41.56073 -1.29632,1.80983 z m 110.49404,7.38083 c -12.26088,-9.23706 -10.06109,22.71136 0,0 z m 45.09416,2.12493 c -8.83157,-6.79222 0.82285,17.60358 0,0 z M 399.55292,368 c -5.28375,-40.14568 -7.73416,67.00727 0,0 z m 24.34192,21 c -1.62537,-53.92077 -7.52274,55.16837 0,0 z M 610,399.96007 c 43.90469,-31.8214 -31.40484,7.03977 0,0 z m 257.46696,-17.06219 c 41.5136,-43.29667 -64.63115,-178.94993 -33.29317,-67.0163 5.93815,11.21145 21.42228,122.73685 33.29317,67.0163 z m -87.1918,15.45393 c 39.24333,-31.93407 -26.78974,7.27281 0,0 z M 561.37259,374 c 25.02103,-70.18201 -35.80347,42.29789 -2.34766,3.86837 z m -82.50766,19.71277 c 11.27404,-26.61759 -17.7529,3.37244 0,0 z m 134.61394,-4.84214 c 66.95921,-37.48871 -40.2766,-22.32133 -0.9288,0.68808 z m 18.1878,4.14548 c 1.8877,-18.79527 -20.53111,20.16465 0,0 z m 215.04154,-5.34944 c -6.72488,3.8753 7.69224,13.63238 0,0 z m -284.86613,4.93074 c -2.9794,-4.34088 -0.85132,8.08747 0,0 z m -62.95012,-7.74816 c -6.87488,-7.75324 -9.41538,26.69901 0,0 z m 159.72709,2.32006 c -11.69615,-12.27464 -12.72043,16.69706 0,0 z m 19.35679,0.86978 c -13.46109,-12.41645 -22.54144,13.98603 0,0 z M 708.11537,383 c 41.79692,-72.70262 -63.69672,-8.71006 0,0 z m 65.89375,-6.61935 c -7.21602,-47.63082 -59.56129,-22.22525 -7.11409,5.66513 l 5.76412,2.93637 z m -278.73341,5.57291 c 43.48237,-35.58316 -28.90902,-25.71232 0,0 z m 77.4512,-11.62023 c 46.11384,-48.92075 -4.94337,24.44308 0,0 z M 420.27381,370 c 31.75857,-52.09771 -23.41648,11.06906 0,0 z m 102.39542,2.06019 c 3.65751,-17.80291 -10.39484,20.05701 0,0 z m 74.83528,-7.10135 c 28.29906,-30.57515 -48.66506,35.07792 0,0 z M 828,372.36576 c -3.16099,-14.00218 -1.15923,23.0094 0,0 z M 674.94189,360.4968 c 7.34475,-33.40716 5.58647,8.65206 -7.48193,9.05415 z m -161.75724,0.16987 c -7.83109,4.39835 1.56536,11.10336 0,0 z m 96.14868,-14.97676 c -30.45289,0.89593 -19.0122,33.29031 0,0 z M 681.31292,365 c -7.87299,-10.02869 -1.42881,15.38952 0,0 z m 171.48847,-0.27124 c -6.08547,-12.40977 1.69676,13.68273 0,0 z M 504,350.72484 c 62.09221,-31.67089 -7.60518,-72.34105 -22.02291,-9.31601 -9.32873,25.00228 13.31537,33.20644 22.02291,9.31601 z m 315.42633,-12.96327 c -10.08872,19.66203 8.02416,29.6977 0,0 z m -293.03988,23.67262 c 72.55454,-63.93819 -11.59286,-19.19357 0,0 z m -97.4304,-24.52899 c 19.90731,-24.25744 63.97423,-112.6096 7.53521,-49.4632 -16.06936,10.53052 -40.6759,104.71336 -7.53521,49.4632 z m 223.61559,16.42813 c -4.33557,-9.84799 -0.64491,29.59097 0,0 z M 371.26248,342.66667 c -2.60717,11.38614 -3.81471,16.65977 0,0 z m 260.40419,6.88969 c 40.98486,-26.23495 -56.59139,22.40437 0,0 z m -86.24939,0.95344 c -1.15114,-8.48106 -8.72146,17.94588 0,0 z m -7.39455,-13.36753 c 41.78081,-44.90791 -46.34328,38.77414 0,0 z m 28.48326,7.19106 c 101.34052,-72.90648 -49.94232,-3.22561 0,0 z M 457.26481,331.29376 c 44.05707,-29.41664 44.9253,-59.32174 -1.38262,-19.22186 -9.61423,6.71913 -16.06936,45.73464 1.38262,19.22186 z m 164.06852,11.37291 c 1.5472,-6.00174 -10.85998,8.97463 0,0 z M 780,339.43589 c -19.82205,-30.19316 -42.74112,5.93601 0,0 z m -181.56908,-2.6268 c 47.6035,-32.02166 -37.65516,-12.54931 0,0 z m 86.54131,-4.28132 c -3.74006,-4.53009 -2.37631,3.61558 0,0 z M 728,331.47788 c -34.18752,-12.70459 -48.58657,15.2717 0,0 z m -93.93616,-1.85045 c 45.84335,-48.63442 -59.1631,-7.65837 0,0 z M 487.93912,309.78256 c -20.50622,-2.34537 -19.49595,37.69205 0,0 z m 53.87571,14.37364 c 72.68827,-27.38526 15.31352,-40.32076 0,0 z m 43.87894,-11.83019 c -26.86148,-3.11763 -15.95629,30.13818 0,0 z m 73.49691,13.56494 c 14.85677,-25.73491 -18.65142,-16.60611 0,0 z m 28.32832,-2.29884 c 6.23357,-36.06529 -27.68291,10.05879 0,0 z m 17.81065,-2.11759 c 1.24601,-13.55929 -20.76068,10.5916 0,0 z m 50.76138,-5.49476 c -24.65094,-23.24519 -12.17171,17.6883 10e-6,1.8e-4 z m -25.79202,-4.98509 c -39.47993,-41.83924 -31.36832,24.56656 0,0 z M 424.16551,297 c 34.511,-27.27131 36.65186,-67.81229 -1.4108,-18.92417 -6.74933,8.17548 -12.19362,50.65584 1.4108,18.92417 z m 48.59004,-0.59343 c 29.08903,-14.7732 148.41604,-97.29829 57.00082,-51.64701 -5.92366,1.6358 -114.38,80.21057 -57.00082,51.64701 z m 32.39549,11.67366 c 31.50687,-10.97825 166.02435,-48.87466 56.84894,-36.19881 -21.25176,2.0703 -58.09422,7.76385 -56.84894,36.19881 z m 269.97708,-3.53962 c -29.80403,-47.57499 -64.2709,-9.80214 0,0 z m -226.45703,-1.88112 c -7.61006,-3.29867 -3.34571,12.16325 0,0 z M 386.07596,289.33333 c 52.45543,-131.84152 7.11873,-13.68548 -2.42584,6.76832 l 1.63528,-4.56259 z m 197.22072,9.79554 c -7.67381,-8.09823 -13.22384,23.80818 0,0 z m 14.30608,-1.55144 c -28.02437,-1.31591 -6.21379,11.89241 0,0 z m 91.40412,2.08924 c -18.06081,-9.04802 -9.04378,4.80765 0,0 z m -274.21101,-25.3745 c 35.13767,-45.19236 -48.59376,47.48064 0,0 z m 401.2214,18.41991 c -9.50276,-35.78958 -57.88677,-74.43726 -16.14617,-20.7496 4.71567,6.63163 5.63428,19.92646 16.14617,20.7496 z m -325.6084,-27.18251 c 42.14832,-13.42217 64.98755,-53.48562 6.75706,-24.29977 -26.41883,14.80557 -48.96693,72.16059 -6.75706,24.29977 z M 636,287.97247 c -54.74595,-36.78803 -12.19196,15.7486 0,0 z m 36.10905,1.36086 c 43.8708,-24.63456 -67.55093,-3.46654 0,0 z m 39.59199,-0.0876 c -20.23795,-19.64998 -13.21806,10.26238 0,0 z M 878.53635,285 C 866.02646,240.47003 752.49647,187.05287 840.14503,251.0051 853.23859,262.00802 865.12838,274.35857 878.53635,285 Z M 444.52681,232.74855 c 29.53536,-21.20322 46.5953,-58.23289 1.70596,-23.20272 -43.54856,21.49369 -51.25477,98.36791 -6.62979,28.85793 l 3.18267,-3.65541 z M 520,279.13308 c -7.85497,4.76972 -5.82846,3.53918 0,0 z m 92,3.53359 c -0.61008,-6.32526 -8.37611,8.66592 0,0 z m 109.32835,-2.33334 c -16.64358,-26.17641 -37.57344,7.32055 0,0 z m -211.52402,-3.5248 c 39.42783,-19.65204 -27.16697,9.1502 0,0 z m -47.36316,-16.64266 c 56.01138,-44.08922 -43.5965,28.19074 -1.19716,1.01153 z m 91.38984,2.70976 c 28.9131,-18.23115 -54.72032,21.23594 0,0 z m 120.09018,0.4577 c -31.71965,-28.70554 -122.45494,8.30145 -37.21645,-0.87324 12.34237,1.00615 24.87087,3.83209 37.21645,0.87324 z m 20.74548,-2 c -8.76667,-9.24514 -4.19848,6.11966 0,0 z M 469.29792,240.27251 c 30.04746,-8.28116 94.25542,-61.7741 24.05889,-31.59445 -26.83041,3.25032 -77.42577,68.03607 -24.05889,31.59445 z M 775.83776,257 c -10.44789,-50.47975 -170.73569,-39.74896 -70.23925,-22.52161 23.36362,7.65029 46.34043,16.59734 70.23925,22.52161 z m -217.21445,-7.64455 c 37.72054,-17.06271 156.0989,-7.62773 50.0846,-16.12826 -17.44182,2.10123 -35.35959,5.92477 -50.0846,16.12826 z m -146.45323,-9.02212 -1.5926,1.16927 z m 74.20789,-31.92753 c 36.5211,-14.34783 144.51258,-41.9079 46.21125,-38.12041 -26.7223,2.95932 -113.7273,82.63242 -46.21125,38.12041 z m 18.95,16.93136 c 10.02849,-12.66706 -44.30117,27.85806 0,0 z m 22.00536,-2.03564 c 50.71533,-7.55405 111.8095,-6.31553 156.91452,-14.88972 -44.79035,-10.68112 -130.73144,-13.10542 -156.91452,14.88972 z m -38.66666,-40.73219 c 32.15635,-24.63614 165.39004,-37.72084 55.17711,-30.96561 -30.97874,2.02109 -138.98199,76.43142 -55.17711,30.96561 z m 78.24373,16.82958 c 33.85128,-12.2362 200.02495,7.49421 87.11015,-9.06902 -12.74795,-0.0858 -121.04068,1.61827 -87.11015,9.06902 z m 183.21224,-0.60774 c -28.23059,-31.34391 -84.2089,-15.87379 -19.55842,-1.80494 -0.71747,-1.29935 34.68189,17.7143 19.55842,1.80494 z m -83.45597,-15.34153 c -78.88136,-17.6716 -66.77632,2.72277 0,0 z m 32,-16.80944 c -39.89732,-21.82884 -171.2468,0.41749 -57.13516,-0.76497 19.01565,1.09601 38.0969,1.93829 57.13516,0.76497 z m 78.95338,1583.6931 c 0.40373,-60.402 -192.02179,-24.614 -82.30718,-51.8325 31.33987,0.1127 91.39992,6.1837 82.30718,51.8325 z m -76.95338,-71.6152 c -117.72869,9.3528 -162.37103,-122.6902 -179.73985,-215.4121 -7.55341,-52.0829 -109.81773,-27.3336 -80.97579,-32.8174 38.88163,-80.3247 158.24674,-30.332 230.90244,-6.2071 91.91821,51.3027 193.57989,-6.4512 286.81644,-25.0937 62.01029,-9.1659 -29.61791,-123.0131 46.37559,-47.3027 33.9702,22.7777 12.1737,41.2895 -14.16868,13.8386 -63.57275,80.6178 -88.80876,181.5034 -127.49998,272.9577 -39.35742,45.1479 -106.52761,48.878 -161.71017,40.0367 z m 111.05646,-9.4092 c 33.96646,20.2286 44.11627,-70.9263 22.60556,-15.7774 1.84958,-62.3523 -38.41098,30.4629 -42.91972,-26.6414 -36.41439,-1.8446 -38.53001,57.0983 -44.55979,-0.2653 -46.2377,-13.8537 -42.79186,62.6696 -52.08527,-8.3092 -37.87183,0.1504 -34.37604,42.3609 -52.32792,-10.9646 -117.65795,12.1582 58.77305,89.0274 110.43368,63.9309 19.62059,-0.5759 39.22335,-1.7203 58.85346,-1.973 z m 54.45774,-50.9756 c -2.69269,-58.4272 99.10356,-164.0753 44.39167,-190.1264 0.053,34.5788 -102.35048,79.3412 -69.43831,60.0553 41.30545,83.9204 -95.84168,144.5688 -100.18094,35.6438 15.25769,20.1222 -111.99625,94.2569 -116.05805,15.4043 63.63047,-49.2145 10.23921,-103.545 -36.16873,-59.3466 -101.06182,-62.7903 -34.60682,108.287 17.35899,126.3441 85.00398,3.2938 172.39609,11.8891 258.9606,15.5212 z m -92.84754,-47.0657 c 91.49244,36.4838 71.07091,-151.9423 -15.64304,-83.6959 -26.21273,20.4528 -0.11957,64.1398 15.64304,83.6959 z m -56,-9.816 c 59.39735,-73.1063 -67.38259,-127.4942 -84.12747,-32.7385 -22.79709,51.854 60.24523,27.3356 84.12747,32.7385 z m 69.60104,-81.5747 c 35.43692,-14.8337 110.64825,-42.9478 124.64492,-62.4775 -107.86697,45.696 -220.66936,45.3968 -321.75146,-11.8621 -51.21519,-10.9634 -91.5789,-2.2063 -18.29689,11.7689 70.31913,24.6013 138.13721,67.6191 215.40343,62.5707 z m -175.51002,-15.1885 c -11.44448,-82.6557 -65.30979,47.715 0,0 z m 251.90898,8.4304 c 65.31352,-15.8338 -48.38953,-27.0237 0,0 z M 558.68128,1461 c 45.17226,-81.0208 -81.30561,-5.9081 0,0 z m -34.98813,-14.9503 c 33.41297,-45.4928 -71.5657,-36.1109 -10.14609,-8.2532 -2.64155,-1.1477 13.36682,32.4289 10.14609,8.2532 z m 489.76455,144.3732 c 14.0618,-28.8192 -14.83795,21.0313 0.6841,1.7337 z m 22.5473,-37.4562 8.0132,-14.9289 z M 730,1345.3333 c 10.38689,-11.1247 -5.56055,8.8854 0,0 z m -68.66667,-114.3702 c 9.93582,-52.8156 86.27487,8.6879 12.68632,-7.1486 l -7.71117,1.7993 z M 528.84044,1217 c 54.02776,-44.3698 -29.87111,-15.9796 -3.26027,-19.5376 31.54131,-28.0033 -67.88484,0.6165 -3.63902,-19.936 74.17778,-24.3115 41.43186,19.1344 6.89929,39.4736 z m 276.45012,-6.6667 c -26.67765,-67.5233 134.30657,-30.9541 44.58935,-66.7747 -29.21386,-14.8439 -53.77649,-4.7475 -83.96995,-0.8469 -4.3396,-65.5614 139.31674,-89.6185 110.48418,-123.9795 -30.20193,32.8901 -37.61135,-5.248 -25.69717,7.4735 -37.0784,42.2405 -13.1751,28.3577 -31.54876,25.1818 -29.12965,1.5735 43.59745,-59.30496 74.7081,-47.5246 33.6343,-14.04793 149.21849,12.4474 63.05005,39.7384 18.35162,44.3887 91.26854,-36.461 43.34904,23.7049 41.6991,-2.8906 57.9891,-30.0619 28.9575,10.605 33.6162,18.3518 87.8767,-8.1456 47.9175,13.8831 -37.8478,20.0784 9.2569,33.4753 -34.8943,9.1167 -31.7275,3.9407 -84.90634,26.2593 -62.78571,25.5071 -6.49172,50.0931 -31.03639,-27.2719 -52.82548,25.99 -9.76906,13.6249 -15.96159,-43.0991 -31.17729,3.3578 17.30613,56.0895 -68.50687,8.5593 -13.65224,38.0156 -30.8782,4.2285 -59.16314,-22.2947 -76.50482,16.5518 z m -5.20503,-88.9376 c 61.75791,42.2972 55.8179,-103.1328 9.29218,-31.4083 -13.72482,5.6156 -45.66977,64.9001 -9.29218,31.4083 z m 113.2478,11.9376 c -15.84665,-8.7 -22.91724,10.3713 0,0 z m -8.55557,-11.8502 c 49.99234,-29.5767 -20.4135,-19.8667 0,0 z m 46.55557,1.2129 c 67.79567,2.1794 62.39197,-67.9323 -0.92596,-65.1944 -51.48253,-30.6662 -3.74049,60.982 -10.7728,66.6983 3.89959,-0.5013 7.79917,-1.0026 11.69876,-1.5039 z m -28.63992,-4.7282 c 2.96602,-9.6089 -8.731,9.8223 0,0 z m -18.59125,-8.4559 c 50.45682,-49.4452 -87.03581,-23.955 -6.03078,-13.9035 -10.1938,16.7808 -20.0332,38.1514 6.03078,13.9035 z M 886.66667,1104 c 2.7953,-27.3601 -22.32897,16.5694 0,0 z m -26.11596,-16.0639 c 71.69172,-46.8135 -21.5578,-27.0433 0,0 z m 90.20472,-43.8471 c 60.33137,-45.86394 -74.68837,3.6411 0,0 z m -38.44174,-6.1483 c 66.81476,-51.54243 -68.0695,0.4657 0,0 z M 826.83675,1039 c 2.94391,-6.0009 -9.87571,10.4633 0,0 z m 34.49658,-21.7397 c -27.84007,6.3746 -17.36747,18.227 0,0 z m -408.67785,171.4252 c -31.21968,-45.5934 32.54587,-13.434 0,0 z m 20.56055,-6.1361 c -16.27457,-45.1051 29.83432,-2.3116 0,0 z m 36.20522,-8.9021 c -22.69484,-37.2331 27.71702,-10.9604 0,0 z m -337.23328,-69.6812 c -10.28226,-31.0676 16.03599,-11.0367 0,0 z M 980.93776,911.38797 c 22.20704,-30.41074 15.51559,8.6718 0,0 z m -252.05328,-24.7161 c -47.1055,-2.51854 -176.68609,-13.44002 -167.27277,-20.33 76.66235,2.46519 155.08386,13.30904 230.13863,17.34106 -21.36951,-1.57841 -43.34495,14.34418 -62.86586,2.98894 z M 472.93479,831.60953 c -49.44154,-27.6674 100.09613,-32.44637 137.13185,-32.82037 68.27185,8.12213 187.57672,-8.22939 223.90649,13.24378 -86.27902,-4.894 -178.66615,-6.36373 -265.27813,-2.0714 -31.43417,7.27401 -73.3723,-9.51413 -95.76021,21.64799 z m 124.45469,-79.40308 c -11.62512,-20.60468 -51.4604,-18.76608 -5.5361,-19.86925 54.24611,16.44079 133.69814,-21.25209 177.53716,6.84198 -66.13405,8.12025 -112.62713,-17.30669 -172.00106,13.02727 z"
       style="fill:#000000;stroke-width:1.33333"
       id="path1028" />
    <path
       d="m 952.61724,1657.0813 c -18.39499,28.1495 -137.92305,132.6518 -53.79183,64.2562 16.9564,-19.3602 54.70196,-35.3538 53.79183,-64.2562 z"
       style="fill:#000000"
       id="path1040" />
    <path
       d="m 845.47065,1760.0616 c -0.11559,4e-4 -0.11559,4e-4 0,0 z"
       style="fill:#000000;stroke:#000000"
       id="path1042" />
    <path
       d="m 1166.4165,1343.646 c 24.3393,41.5544 -67.9345,88.7986 -4.5692,61.7481 41.342,-48.8753 11.9766,-147.5888 15.556,-155.5141 -11.0358,56.1824 -16.4645,135.3173 -44.684,170.8148 35.3281,9.3023 81.9379,-65.8847 33.6972,-77.0488 z"
       style="fill:#000000"
       id="path1044" />
    <path
       d="m 831.55458,2080.0907 c -68.61218,-12.762 -136.75581,-25.3205 -206.62699,-22.5051 -47.86516,-9.779 -164.89877,24.4164 -166.94922,-12.4851 20.42732,-43.0202 97.45266,-128.5961 78.04272,-77.1245 -49.51712,-2.1092 104.21084,59.9067 36.33204,6.2881 -37.04854,-13.8397 -59.14594,-114.9888 -9.243,-46.1704 78.26728,41.2103 -91.10683,-106.0496 -10.28961,-48.1837 23.25372,24.6398 72.54367,31.3775 18.82355,5.7054 -41.03996,-14.9321 -54.92929,-112.0107 0.13376,-49.2907 86.44684,60.1432 -98.50543,-95.3633 -14.3437,-58.98 -5.18194,7.5452 59.67172,20.9147 41.89753,39.3635 51.32673,-18.3632 145.18553,-2.1932 210.56582,-37.8496 85.44779,9.6317 16.21546,145.2178 66.75342,199.3938 33.3467,44.2368 72.81344,105.9892 -11.58064,97.4189 -11.08527,2.0288 -22.2435,3.8465 -33.51568,4.4194 z m -292.6387,-31.7055 c -43.69526,-45.7616 -98.13117,-4.846 0,0 z m 16.1846,-13.2232 c -23.62779,-30.1063 -74.44265,-56.8965 -31.48148,-4.0988 9.35669,5.6815 21.00074,6.7066 31.48148,4.0988 z m 17.48625,-10.0981 c -25.5255,-32.2381 -85.32674,-54.656 -31.81791,-4.4483 9.29671,5.7792 21.25292,8.5268 31.81791,4.4483 z"
       style="fill:#d35f5f;stroke-width:1.19841"
       id="path1046" />
    <path
       d="m 831.55458,2080.0907 c -68.61218,-12.762 -136.75581,-25.3205 -206.62699,-22.5051 -47.86516,-9.779 -164.89877,24.4164 -166.94922,-12.4851 20.42732,-43.0202 97.45266,-128.5961 78.04272,-77.1245 -49.51712,-2.1092 104.21084,59.9067 36.33204,6.2881 -37.04854,-13.8397 -59.14594,-114.9888 -9.243,-46.1704 78.26728,41.2103 -91.10683,-106.0496 -10.28961,-48.1837 23.25372,24.6398 72.54367,31.3775 18.82355,5.7054 -41.03996,-14.9321 -54.92929,-112.0107 0.13376,-49.2907 86.44684,60.1432 -98.50543,-95.3633 -14.3437,-58.98 -5.18194,7.5452 59.67172,20.9147 41.89753,39.3635 51.32673,-18.3632 145.18553,-2.1932 210.56582,-37.8496 85.44779,9.6317 16.21546,145.2178 66.75342,199.3938 33.3467,44.2368 72.81344,105.9892 -11.58064,97.4189 -11.08527,2.0288 -22.2435,3.8465 -33.51568,4.4194 z m -292.6387,-31.7055 c -43.69526,-45.7616 -98.13117,-4.846 0,0 z m 16.1846,-13.2232 c -23.62779,-30.1063 -74.44265,-56.8965 -31.48148,-4.0988 9.35669,5.6815 21.00074,6.7066 31.48148,4.0988 z m 17.48625,-10.0981 c -25.5255,-32.2381 -85.32674,-54.656 -31.81791,-4.4483 9.29671,5.7792 21.25292,8.5268 31.81791,4.4483 z"
       style="fill:#d35f5f;stroke-width:1.19841"
       id="path1048" />
    <path
       d="m 1124.9086,1396.6319 c -28.6528,-86.4595 42.9834,-165.3471 47.7415,-250.7929 19.9913,-48.5395 -61.9975,-149.60512 11.1364,-154.473 35.7632,90.3147 -29.6541,184.6575 -17.2411,278.6549 -9.3738,32.0622 13.467,142.1105 -41.6368,126.611 z"
       style="fill:#d35f5f;stroke-width:1.19841"
       id="path1052" />
    <path
       d="m 235.31126,1291.367 c 5.35458,-67.9738 -114.34068,-231.9351 8.65674,-226.3009 -8.71626,70.5819 -14.71356,142.4671 -4.23046,216.0921 z"
       style="fill:#d35f5f;stroke-width:1.19841"
       id="path1054" />
    <path
       d="m 243.68748,1432.7797 c -59.63853,-37.4049 13.99181,-167.5493 34.43173,-57.772 1.39249,21.1492 -1.45131,68.018 -34.43173,57.772 z"
       style="fill:#d35f5f;stroke-width:1.19841"
       id="path1056" />
    <path
       d="m 255.79952,1329.1572 c -40.46439,-52.5526 33.59809,-63.49 17.36649,-4.9772 l -7.47804,5.9048 z"
       style="fill:#d35f5f;stroke-width:1.19841"
       id="path1058" />
    <path
       d="m 255.89023,1238.5457 c -41.75079,-31.3258 2.66874,-168.1164 5.87505,-59.7489 0.0156,19.0805 10.25007,44.5196 -5.87505,59.7489 z"
       style="fill:#d35f5f;stroke-width:1.19841"
       id="path1060" />
    <path
       d="m 394.83375,1071.82 c -68.40039,-75.02957 172.98232,-64.8117 64.82746,-20.7673 -10.6032,-63.47464 -20.10132,51.9681 -41.27137,-9.1515 -7.78516,9.0996 -4.96955,40.9941 -23.55609,29.9188 z"
       style="fill:#d35f5f;stroke-width:1.19841"
       id="path1062" />
    <path
       d="m 936.86157,1044.9882 c -38.87355,-38.7595 85.91903,-15.1251 0,0 z"
       style="fill:#d35f5f;stroke-width:1.19841"
       id="path1064" />
    <path
       d="m 895.96926,1037.2196 c 9.23393,-53.16076 66.11913,8.6602 0,0 z"
       style="fill:#d35f5f;stroke-width:1.19841"
       id="path1066" />
    <path
       d="m 1138.3472,1253.3174 c 1.482,-38.0036 19.5072,-203.9249 22.786,-160.1945 3.0452,54.3774 -13.1744,107.2493 -22.786,160.1945 z"
       style="fill:#d35f5f;stroke-width:1.19841"
       id="path1068" />
    <path
       d="m 859.861,1616.436 c -95.28027,-1.3246 -216.26502,7.2174 -291.21449,-38.8819 -10.70029,-42.8374 -72.92518,-145.8953 15.27046,-100.9238 29.11406,8.2949 87.0312,-43.9099 64.71173,22.6021 -85.1375,84.4578 78.79784,108.3789 91.76722,24.49 -6.81167,100.0801 159.33261,55.5006 96.21357,-30.3917 36.92244,-12.6323 60.09855,-30.2221 79.3044,-68.2741 44.87428,21.9519 -41.25973,124.2747 -48.52765,177.2212 z"
       style="fill:#000000;stroke-width:1.19841"
       id="path1070" />
    <path
       d="m 745.26886,1477.4437 c -58.71294,-12.3535 -222.09366,-74.1257 -205.87188,-78.4542 96.42716,2.9489 182.08954,90.8522 281.66449,43.2483 34.88935,-11.5619 135.03573,-34.2396 52.05883,-1.5822 -39.41209,20.0274 -81.62734,46.1903 -127.85144,36.7881 z"
       style="fill:#ff0000;stroke-width:1.19841"
       id="path1072" />
    <path
       d="m 482.17848,1130.1869 c -52.62313,3.5061 -1.88055,-86.2574 -15.58394,-18.6789 28.30501,45.9409 52.0111,-61.3925 10.15067,-8.431 7.99942,-87.9727 99.22711,44.2147 5.43327,27.1099 z"
       style="fill:#0000ff;stroke-width:0.423703"
       id="path1074" />
    <path
       d="m 489.00414,1109.1565 c -15.63887,-29.8751 34.81063,-8.9228 0,0 z"
       style="fill:#0000ff;stroke-width:0.423703"
       id="path1076" />
    <path
       d="m 881.91064,1118.0268 c 56.20023,-29.5954 -64.54064,-29.8465 19.84266,-46.2655 32.0292,10.3228 5.79557,51.641 -19.84266,46.2655 z"
       style="fill:#0000ff;stroke-width:0.423703"
       id="path1078" />
    <path
       d="m 445.13179,406.5257 c -27.50085,-44.82964 52.61474,-105.01618 19.13184,-27.6351 -4.15723,8.76654 -5.67848,27.91732 -19.13184,27.6351 z"
       style="fill:#ffff00;stroke-width:0.599206"
       id="path1082" />
    <path
       d="m 484.49655,363.98205 c -31.78326,-53.44303 97.1193,-74.2025 24.99225,-19.3244 -8.46795,4.49719 -12.54646,21.36998 -24.99225,19.3244 z"
       style="fill:#ffff00;stroke-width:0.599206"
       id="path1084" />
    <path
       d="m 505.5081,303.48189 c 8.62856,-49.45813 169.25228,-35.02731 67.98726,-18.87908 -22.43716,6.94764 -44.57868,15.71424 -67.98726,18.87908 z"
       style="fill:#ffff00;stroke-width:0.599206"
       id="path1086" />
    <path
       d="m 456.00472,306.7942 c 11.08985,-38.03061 125.07793,-89.87159 106.22409,-65.33789 -36.21278,20.39437 -73.0449,40.12199 -106.22409,65.33789 z"
       style="fill:#ffff00;stroke-width:0.599206"
       id="path1088" />
    <path
       d="m 463.345,286.77273 c -2.64637,-53.54373 125.21575,-68.26341 33.49637,-26.05914 -11.62122,8.11817 -21.46815,18.48808 -33.49637,26.05914 z"
       style="fill:#ffff00;stroke-width:0.599206"
       id="path1090" />
    <path
       d="m 437.46342,255.36006 c 15.6206,-49.55112 149.46585,-71.98229 46.27795,-24.04137 -14.82985,9.01762 -29.24408,19.44711 -46.27795,24.04137 z"
       style="fill:#ffff00;stroke-width:0.599206"
       id="path1092" />
    <path
       d="m 454.3569,226.96741 c 7.90078,-59.89396 197.58813,-66.41844 74.3512,-34.64615 -26.19247,8.01666 -52.11685,18.33496 -74.3512,34.64615 z"
       style="fill:#ffff00;stroke-width:0.599206"
       id="path1094" />
    <path
       d="m 514.87674,223.81696 c 34.09934,-33.09819 192.37742,-19.99926 161.89206,-12.93056 -54.13833,1.89576 -107.87883,9.2655 -161.89206,12.93056 z"
       style="fill:#ffff00;stroke-width:0.599206"
       id="path1096" />
    <path
       d="m 655.98984,166.3293 c -42.95378,1.10111 -92.77003,-8.76874 -22.02344,-8.82325 35.95223,-2.02844 92.13696,14.40755 22.02344,8.82325 z"
       style="fill:#ffff00;stroke-width:0.599206"
       id="path1098" />
    <path
       d="m 554.60792,347.56733 c 22.78855,-49.63464 67.75192,-30.36334 10.55534,-3.42166 l -5.42141,3.83302 z"
       style="fill:#ffff00;stroke-width:0.599206"
       id="path1100" />
    <path
       d="m 567.12266,416.24819 c -10.16047,-70.02489 80.11668,-29.13891 0,0 z"
       style="fill:#ffff00;stroke-width:0.599206"
       id="path1102" />
    <path
       d="m 602.96008,394.39742 c 12.32236,-73.10676 72.55475,-19.78123 0,0 z"
       style="fill:#ffff00;stroke-width:0.599206"
       id="path1104" />
    <path
       d="m 603.74595,448.84132 c 8.11693,-59.28883 109.15389,-48.30433 33.60958,-8.15133 -11.11168,3.01924 -21.97142,7.49255 -33.60958,8.15133 z"
       style="fill:#ffff00;stroke-width:0.599206"
       id="path1106" />
    <path
       d="m 600.10516,489.05022 c -25.52761,-52.11132 104.26165,-53.62324 30.06578,-8.30172 -7.6158,7.5305 -19.60988,12.21027 -30.06578,8.30172 z"
       style="fill:#ffff00;stroke-width:0.599206"
       id="path1108" />
    <path
       d="m 707.23981,429.69493 c -39.38465,-77.01839 75.17418,2.9128 0,0 z"
       style="fill:#ffff00;stroke-width:0.599206"
       id="path1110" />
    <path
       d="m 717.70809,464.68874 c -89.51922,-8.26872 53.02687,-57.12606 0,0 z"
       style="fill:#ffff00;stroke-width:0.599206"
       id="path1112" />
    <path
       d="m 745.7008,414.7819 c -60.81492,-26.70988 4.99111,-77.10086 14.29872,-15.31924 -0.23577,7.2491 -6.1187,16.21645 -14.29872,15.31924 z"
       style="fill:#ffff00;stroke-width:0.599206"
       id="path1114" />
    <path
       d="m 765.6446,254.11685 c -34.09444,-13.75571 -152.1412,-39.94998 -50.56571,-33.56775 9.14656,0.601 76.42736,27.05621 50.56571,33.56775 z"
       style="fill:#ffff00;stroke-width:0.599206"
       id="path1116" />
    <path
       d="M 861.61119,397.53761 C 881.24026,364.39932 783.4451,246.1276 850.10533,279.28858 c 22.62439,33.47749 30.24178,81.38192 11.50586,118.24903 z"
       style="fill:#ffff00;stroke-width:0.599206"
       id="path1120" />
    <path
       d="m 872.86977,434.5526 c -8.78053,-35.62966 18.77763,-164.61133 23.16998,-68.21508 -0.14445,24.28645 -6.6651,49.74284 -23.16998,68.21508 z"
       style="fill:#ffff00;stroke-width:0.599206"
       id="path1122" />
    <path
       d="m 874.70016,281.64866 c -35.50005,-25.81231 -107.0939,-98.13576 -29.09124,-35.48965 10.40879,10.82909 25.9706,19.65291 29.09124,35.48965 z"
       style="fill:#ffff00;stroke-width:0.599206"
       id="path1124" />
    <path
       d="m 699.74205,386.23065 c -54.34842,-50.86656 65.40995,-48.55558 0,0 z"
       style="fill:#ffff00;stroke-width:0.211851"
       id="path1128" />
    <path
       d="m 769.37375,384.41721 c -59.50408,-36.87633 -0.14472,-64.827 0,0 z"
       style="fill:#ffff00;stroke-width:0.211851"
       id="path1130" />
    <path
       d="m 727.71719,317.33104 c -58.16129,-4.59374 -1.84516,-39.06246 0,0 z"
       style="fill:#ffff00;stroke-width:0.211851"
       id="path1132" />
    <path
       d="m 717.01869,280.04973 c -47.1118,4.84676 3.74632,-21.74245 0,0 z"
       style="fill:#ffff00;stroke-width:0.211851"
       id="path1134" />
    <path
       d="m 774.96006,309.02644 c -54.19352,-16.30951 -27.10149,-49.26635 0,0 z"
       style="fill:#ffff00;stroke-width:0.211851"
       id="path1136" />
    <path
       d="m 654.41659,264.19062 c -35.50013,4.17431 -88.39518,-8.04203 -22.35033,-10.96774 8.89579,-5.45544 67.32547,16.10631 22.35033,10.96774 z"
       style="fill:#ffff00;stroke-width:0.211851"
       id="path1138" />
    <path
       d="m 558.75678,248.64129 c 38.84263,-32.51045 160.81768,-2.58895 51.64748,-9.57702 -17.55302,0.3026 -35.42139,2.46998 -51.64748,9.57702 z"
       style="fill:#ffff00;stroke-width:0.211851"
       id="path1140" />
    <path
       d="m 751.64428,204.86875 c -30.88205,-3.54592 -84.95393,-41.02756 -22.49594,-18.85851 -1.84909,3.4286 30.89713,10.84686 22.49594,18.85851 z"
       style="fill:#ffff00;stroke-width:0.211851"
       id="path1142" />
    <path
       d="m 656.5351,183.2279 c -106.47559,-2.02429 8.14144,-13.09153 0,0 z"
       style="fill:#ffff00;stroke-width:0.211851"
       id="path1144" />
    <path
       d="m 550.68005,201.67941 c 31.21318,-25.13766 175.43155,-3.59683 145.74676,-1.52867 -48.30738,-5.58819 -97.86236,-9.32131 -145.74676,1.52867 z"
       style="fill:#ffff00;stroke-width:0.211851"
       id="path1146" />
    <path
       d="m 670.5173,289.04119 c -75.78303,1.49533 53.62115,-22.91291 0,0 z"
       style="fill:#ffff00;stroke-width:0.211851"
       id="path1148" />
    <path
       d="m 621.29363,329.56494 c -16.92618,-59.66528 64.70319,7.3349 0,0 z"
       style="fill:#ffff00;stroke-width:0.211851"
       id="path1150" />
    <path
       d="m 586.51969,338.18488 c 10.45132,-51.49439 52.28968,-4.19209 0,0 z"
       style="fill:#ffff00;stroke-width:0.211851"
       id="path1152" />
    <path
       d="m 615.33,353.9299 c 21.38747,-16.49088 47.22808,-13.28691 0,0 z"
       style="fill:#ffff00;stroke-width:0.211851"
       id="path1154" />
    <path
       d="m 657.91214,325.05225 c -20.80258,-18.48594 18.60838,-26.15147 0,0 z"
       style="fill:#ffff00;stroke-width:0.211851"
       id="path1156" />
    <path
       d="m 645.47822,499.6666 c 23.00073,-59.79076 95.55287,-7.721 0,0 z"
       style="fill:#ffff00;stroke-width:0.211851"
       id="path1158" />
    <path
       d="m 661.08991,463.09447 c 8.53551,-41.87354 44.12922,-19.0138 0,0 z"
       style="fill:#ffff00;stroke-width:0.211851"
       id="path1160" />
    <path
       d="m 754.59828,439.52274 c -14.1106,-40.65336 34.00409,-16.1685 0,0 z"
       style="fill:#ffff00;stroke-width:0.211851"
       id="path1162" />
    <path
       d="m 753.6808,474.68199 c 7.32327,-55.73185 67.64115,-64.74536 0,0 z"
       style="fill:#ffff00;stroke-width:0.211851"
       id="path1164" />
    <path
       d="m 662.76171,369.67005 c 0.69478,-38.19278 30.55186,-14.1394 0,0 z"
       style="fill:#ffff00;stroke-width:0.211851"
       id="path1166" />
    <path
       d="m 678.08689,325.0496 c -11.69845,-29.18716 25.69393,-1.38883 0,0 z"
       style="fill:#ffff00;stroke-width:0.211851"
       id="path1168" />
    <path
       d="m 698.33475,334.20163 c 12.99947,-22.33327 44.42939,12.75743 0,0 z"
       style="fill:#ffff00;stroke-width:0.211851"
       id="path1170" />
    <path
       d="m 379.80782,420.8256 c -17.21279,-33.72814 12.39384,-153.54392 27.2691,-118.11457 -8.76998,39.41512 -27.50076,77.00289 -27.2691,118.11457 z"
       style="fill:#ffff00;stroke-width:0.211851"
       id="path1172" />
    <path
       d="m 410.543,360.02873 c -16.31017,-56.00311 100.72417,-137.47463 29.21936,-42.99605 -8.35455,15.11529 -15.18661,31.94996 -29.21936,42.99605 z"
       style="fill:#ffff00;stroke-width:0.211851"
       id="path1174" />
    <path
       d="m 413.80464,311.02826 c -9.21431,-46.0632 78.20057,-78.65828 17.16967,-23.80186 -5.70892,7.94372 -10.49482,16.57458 -17.16967,23.80186 z"
       style="fill:#ffff00;stroke-width:0.211851"
       id="path1176" />
    <path
       d="m 403.18012,274.65345 c -8.97579,-53.09973 127.13203,-113.27735 38.90236,-39.77373 -11.72372,14.29689 -22.24276,30.53721 -38.90236,39.77373 z"
       style="fill:#ffff00;stroke-width:0.211851"
       id="path1178" />
    <path
       d="m 444.83053,342.05195 c -4.55573,-46.23495 93.21529,-68.86927 23.12851,-21.91178 -7.44041,7.53981 -13.40299,16.93619 -23.12851,21.91178 z"
       style="fill:#ffff00;stroke-width:0.211851"
       id="path1180" />
    <path
       d="m 423.16302,449.64693 c -32.58541,-41.14625 15.73629,-34.94647 0,0 z"
       style="fill:#ffff00;stroke-width:0.211851"
       id="path1182" />
    <path
       d="m 437.94464,586.28372 c -83.29019,-0.94781 -113.79386,-259.88178 -83.72593,-198.38533 2.37259,79.96956 41.1985,159.43695 113.46466,197.80017 -7.51994,7.78407 -22.35266,-5.33284 -29.73873,0.58516 z"
       style="fill:#ffff00;stroke-width:0.211851"
       id="path1184" />
    <path
       d="m 522.70433,407.03347 c -7.66798,-70.09057 47.23266,-44.01071 0,0 z"
       style="fill:#ffff00;stroke-width:0.211851"
       id="path1186" />
    <path
       d="m 504.03758,463.92964 c -63.08506,-50.12434 36.61121,-68.47466 0,0 z"
       style="fill:#ffff00;stroke-width:0.211851"
       id="path1188" />
    <path
       d="m 494.50898,381.72032 c -25.77288,-26.55102 45.91373,-31.23392 0,0 z"
       style="fill:#ffff00;stroke-width:0.211851"
       id="path1190" />
    <path
       d="m 470.75926,473.2761 c -44.17557,-26.14075 2.22129,-39.22763 0,0 z"
       style="fill:#ffff00;stroke-width:0.211851"
       id="path1192" />
    <path
       d="m 500.48355,492.2627 c -40.27554,-29.98217 11.42173,-26.69659 0,0 z"
       style="fill:#ffff00;stroke-width:0.211851"
       id="path1194" />
    <path
       d="m 513.8664,465.53369 c 3.84319,-40.52107 33.35787,-8.935 0,0 z"
       style="fill:#ffff00;stroke-width:0.211851"
       id="path1196" />
    <path
       d="m 533.80742,477.10699 c -31.43293,-27.00174 34.14803,-7.28586 0,0 z"
       style="fill:#ffff00;stroke-width:0.211851"
       id="path1198" />
    <path
       d="m 447.69593,204.01263 c 34.80372,-37.86077 109.55369,-29.73493 140.45138,-52.0964 -49.88689,6.71084 -97.61416,26.08397 -140.45138,52.0964 z"
       style="fill:#ffff00;stroke-width:0.211851"
       id="path1200" />
    <path
       d="m 395.51364,290.56781 c 9.36301,-18.9146 48.22348,-45.41551 14.58755,-12.57921 z"
       style="fill:#ffff00;stroke-width:0.211851"
       id="path1202" />
    <path
       d="m 444.565,274.57842 c 40.68274,-35.58214 43.32414,-37.0578 0,0 z"
       style="fill:#ffff00;stroke-width:0.211851"
       id="path1204" />
    <path
       d="m 414.42913,376.68285 c 1.03949,-46.53455 25.1218,-27.63057 0,0 z"
       style="fill:#ffff00;stroke-width:0.211851"
       id="path1206" />
    <path
       d="m 464.92053,440.28976 c -23.40782,-29.47934 11.05404,-28.94235 0,0 z"
       style="fill:#ffff00;stroke-width:0.211851"
       id="path1208" />
    <path
       d="m 478.64713,418.83753 c -15.52106,-34.64913 26.041,-18.24623 0,0 z"
       style="fill:#ffff00;stroke-width:0.211851"
       id="path1210" />
    <path
       d="m 520.91979,364.15433 c 22.77065,-46.29706 64.09917,-48.92959 0,0 z"
       style="fill:#ffff00;stroke-width:0.211851"
       id="path1212" />
    <path
       d="m 468.2394,327.03425 c 8.94975,-24.37329 32.10153,-19.37603 0,0 z"
       style="fill:#ffff00;stroke-width:0.211851"
       id="path1214" />
    <path
       d="m 777.60277,528.74982 c 2.23647,-46.47265 81.52415,-65.57436 27.06541,-14.59207 -8.71479,5.46613 -18.73203,8.4597 -27.06541,14.59207 z"
       style="fill:#ffff00;stroke-width:0.299603"
       id="path1216" />
    <path
       d="m 868.93465,577.31762 c 22.81719,-57.61009 18.70413,-176.13917 44.49282,-198.30423 16.25901,66.78147 3.49933,146.9974 -44.49282,198.30423 z"
       style="fill:#ffff00;stroke-width:0.299603"
       id="path1218" />
    <path
       d="m 827.15795,565.22138 c 37.80352,-74.02815 60.11605,0.66906 0,0 z"
       style="fill:#ffff00;stroke-width:0.299603"
       id="path1220" />
    <path
       d="m 834.80085,545.71436 c 9.22267,-44.10805 41.15378,-50.95296 6.45689,-3.73481 l -4.19549,2.42678 -2.26137,1.30803 z"
       style="fill:#ffff00;stroke-width:0.299603"
       id="path1222" />
    <path
       d="m 902.50815,621.99623 c -6.51709,-20.47432 -64.16005,-44.12131 -12.20371,-30.28691 1.07012,3.72924 24.66555,27.17609 12.20371,30.28691 z"
       style="fill:#ffff00;stroke-width:0.299603"
       id="path1224" />
    <path
       d="m 864.3277,653.94876 c -52.80187,-12.47313 -64.78644,-63.0094 0,0 z"
       style="fill:#ffff00;stroke-width:0.299603"
       id="path1226" />
    <path
       d="m 793.15299,687.27891 c -45.93555,-6.71729 -76.25439,-51.3903 -13.81297,-17.19033 -0.78253,-0.8114 32.91294,21.24172 13.81297,17.19033 z"
       style="fill:#ffff00;stroke-width:0.299603"
       id="path1228" />
    <path
       d="m 756.68669,609.66319 c -34.75429,-26.33407 35.93222,-5.54041 0,0 z"
       style="fill:#ffff00;stroke-width:0.299603"
       id="path1230" />
    <path
       d="m 810.67978,604.54513 c -54.98287,-10.28985 17.63031,-8.25069 0,0 z"
       style="fill:#ffff00;stroke-width:0.299603"
       id="path1232" />
    <path
       d="m 766.57692,565.73885 c 22.67483,-38.61605 39.83618,3.94789 0,0 z"
       style="fill:#ffff00;stroke-width:0.299603"
       id="path1234" />
    <path
       d="m 768.73533,552.3249 c 4.27099,-17.5029 43.65169,-20.95903 13.66708,-4.99697 z"
       style="fill:#ffff00;stroke-width:0.299603"
       id="path1236" />
    <path
       d="m 698.17325,551.69259 c 21.71331,-37.46784 35.81373,-10.92271 0,0 z"
       style="fill:#ffff00;stroke-width:0.299603"
       id="path1238" />
    <path
       d="m 737.22571,538.32305 c 16.5233,-38.08699 42.34451,-44.24805 5.3815,-5.44107 l -1.62207,5.01863 z"
       style="fill:#ffff00;stroke-width:0.299603"
       id="path1240" />
    <path
       d="m 753.00308,485.32504 c 12.24437,-24.12195 35.21075,-22.40252 0,0 z"
       style="fill:#ffff00;stroke-width:0.105926"
       id="path1242" />
    <path
       d="m 774.33019,512.8111 c 8.82904,-34.05701 20.29808,-15.87963 0,0 z"
       style="fill:#ffff00;stroke-width:0.105926"
       id="path1244" />
    <path
       d="m 787.53486,473.52931 c 12.44514,-34.64602 18.42482,-5.25887 0,0 z"
       style="fill:#ffff00;stroke-width:0.105926"
       id="path1246" />
    <path
       d="m 803.46743,472.47337 c 22.38302,-32.00357 32.98781,-12.14665 0,0 z"
       style="fill:#ffff00;stroke-width:0.105926"
       id="path1248" />
    <path
       d="m 830.3525,443.4175 c -7.14427,-18.48353 12.53427,-10.29077 0,0 z"
       style="fill:#ffff00;stroke-width:0.105926"
       id="path1250" />
    <path
       d="m 828.89615,514.94624 c 11.43293,-37.55912 25.18375,-11.17687 0,0 z"
       style="fill:#ffff00;stroke-width:0.105926"
       id="path1252" />
    <path
       d="m 811.36815,558.17622 c 14.68112,-56.17803 33.16282,-29.2632 0,0 z"
       style="fill:#ffff00;stroke-width:0.105926"
       id="path1254" />
    <path
       d="m 806.53891,533.47269 c 11.03371,-35.6474 21.41211,-4.85419 0,0 z"
       style="fill:#ffff00;stroke-width:0.105926"
       id="path1256" />
    <path
       d="m 802.3943,553.26453 c 2.5255,-30.13078 18.05318,-22.35048 0,0 z"
       style="fill:#ffff00;stroke-width:0.105926"
       id="path1258" />
    <path
       d="m 783.24773,532.43972 c 14.95129,-24.90396 32.28148,-13.48039 0,0 z"
       style="fill:#ffff00;stroke-width:0.105926"
       id="path1260" />
    <path
       d="m 614.16373,528.3266 c 9.47396,-42.40224 114.52743,-24.58843 32.19617,-3.15917 -10.49037,2.61059 -21.37584,4.04894 -32.19617,3.15917 z"
       style="fill:#ffff00;stroke-width:0.423703"
       id="path1262" />
    <path
       d="m 675.47076,517.65095 c 32.07704,-40.21673 45.92023,-19.77762 0,0 z"
       style="fill:#ffff00;stroke-width:0.423703"
       id="path1264" />
    <path
       d="m 475.28014,609.46419 c -63.4753,-11.49354 -1.07794,-42.15446 12.97738,-1.92753 l -3.88003,2.62039 z"
       style="fill:#ffff00;stroke-width:0.423703"
       id="path1268" />
    <path
       d="m 502.304,591.53144 c -105.40618,-38.6085 32.05476,-14.31236 0,0 z"
       style="fill:#ffff00;stroke-width:0.423703"
       id="path1270" />
    <path
       d="m 554.2076,572.96123 c -37.34929,5.93752 -99.33253,-29.55271 -27.81336,-7.02666 -4.02387,0.75365 44.72279,6.49722 27.81336,7.02666 z"
       style="fill:#ffff00;stroke-width:0.423703"
       id="path1272" />
    <path
       d="m 528.14988,552.60187 c -58.44093,-10.22426 -34.49734,-22.43664 0,0 z"
       style="fill:#ffff00;stroke-width:0.423703"
       id="path1274" />
    <path
       d="m 550.18243,511.32645 c -66.2552,-7.02783 26.12764,-16.81227 0,0 z"
       style="fill:#ffff00;stroke-width:0.423703"
       id="path1276" />
    <path
       d="m 541.5472,496.06025 c -19.0149,-37.57875 42.6804,7.01047 0,0 z"
       style="fill:#ffff00;stroke-width:0.423703"
       id="path1278" />
    <path
       d="m 569.24905,478.99165 c -7.44695,-46.50483 38.31091,-4.96647 0,0 z"
       style="fill:#ffff00;stroke-width:0.423703"
       id="path1280" />
    <path
       d="m 599.88379,441.91251 c 3.54136,-28.38812 38.00329,-16.74766 1.99506,0.3534 z"
       style="fill:#ffff00;stroke-width:0.423703"
       id="path1282" />
    <path
       d="m 575.95253,446.47169 c -8.75021,-25.90364 31.05812,2.24196 0,0 z"
       style="fill:#ffff00;stroke-width:0.423703"
       id="path1284" />
    <path
       d="m 545.91981,394.31047 c 16.63187,-63.26732 27.58842,-37.15673 1.99136,0.65714 z"
       style="fill:#ffff00;stroke-width:0.423703"
       id="path1286" />
    <path
       d="m 566.31465,377.69994 c 9.6871,-38.11348 47.03001,-38.84483 0,0 z"
       style="fill:#ffff00;stroke-width:0.423703"
       id="path1288" />
    <path
       d="m 586.42393,361.83894 c 7.86054,-31.51118 42.42555,-7.03581 0,0 z"
       style="fill:#ffff00;stroke-width:0.423703"
       id="path1290" />
    <path
       d="m 540.34195,323.65079 c 10.68076,-34.54196 58.38828,-20.75787 0,0 z"
       style="fill:#ffff00;stroke-width:0.423703"
       id="path1292" />
    <path
       d="m 417.94049,533.60636 c -47.55241,-33.02718 1.67662,-43.62631 0,0 z"
       style="fill:#ffff00;stroke-width:0.423703"
       id="path1294" />
    <path
       d="m 488.18442,615.61612 c 30.82637,-28.56107 44.56258,3.5699 0,0 z"
       style="fill:#ffff00;stroke-width:0.423703"
       id="path1296" />
    <path
       d="m 330.25237,790.28062 c 13.70928,-46.08759 101.4283,-120.76828 34.58451,-39.14791 -10.39854,13.96332 -21.20836,27.86591 -34.58451,39.14791 z"
       style="fill:#ffff00;stroke-width:0.423703"
       id="path1298" />
    <path
       d="m 465.05688,695.32792 c 9.92714,-25.14713 29.45555,-8.59202 0,0 z"
       style="fill:#ffff00;stroke-width:0.423703"
       id="path1300" />
    <path
       d="m 542.56161,618.56858 c 29.89983,-21.1188 25.01276,1.49357 0,0 z"
       style="fill:#ffff00;stroke-width:0.423703"
       id="path1302" />
    <path
       d="m 574.90716,529.30231 c 0.33276,-18.21121 39.02574,8.05523 0,0 z"
       style="fill:#ffff00;stroke-width:0.423703"
       id="path1304" />
    <path
       d="m 1002.5814,685.46713 c -51.69664,-11.1136 -68.26302,-69.30945 -12.94676,-14.81811 l 7.75622,7.81615 z"
       style="fill:#ffff00;stroke-width:0.599206"
       id="path1306" />
    <path
       d="m 986.81617,778.33353 c -35.69482,-6.78306 -62.09751,-60.55004 -11.79933,-22.40108 -3.57077,-5.11721 26.74066,28.24475 11.79933,22.40108 z"
       style="fill:#ffff00;stroke-width:0.599206"
       id="path1308" />
    <path
       d="m 927.61469,728.52506 c -63.25944,-26.56499 3.54776,-40.6429 0,0 z"
       style="fill:#ffff00;stroke-width:0.599206"
       id="path1310" />
    <path
       d="m 1023.6821,825.84052 c -28.58376,-17.70583 -37.73416,-47.31191 0,0 z"
       style="fill:#ffff00;stroke-width:0.599206"
       id="path1312" />
    <path
       d="m 670.59477,1795.8449 c -24.03819,-38.9425 -42.32758,-79.5697 -88.2992,-39.1345 -85.79224,3.2949 -139.68753,-81.4256 -191.50389,-137.8268 -25.75188,-31.8966 -52.11209,-139.7855 -43.31896,-142.1919 17.11111,7.6585 -47.91073,-86.263 -36.23295,-124.8105 -5.03085,-43.8153 -25.23743,-97.2209 10.95958,-25.4776 -1.81712,36.0272 95.1936,127.0291 80.1915,86.6559 -53.39829,-46.4717 -84.10163,-112.6573 -109.14098,-177.4278 24.4097,53.9175 74.21464,166.5773 122.73206,147.0008 -62.37446,-24.1682 -95.39911,-118.189 -110.19082,-157.0797 25.84096,35.6974 58.50688,107.8189 93.95239,108.2594 -25.25306,-44.5109 -113.31774,-122.6802 -91.93518,-153.6151 2.35688,36.2115 96.18273,107.8916 49.1384,39.4091 -64.80383,-44.8771 -60.44395,-155.1326 19.57506,-69.6696 -12.87239,36.9087 38.0406,-37.8253 37.27825,23.7677 4.63817,-7.5166 88.7183,-44.158 122.68545,-23.8238 15.55292,41.8797 3.59576,-47.2387 42.21653,-16.9416 73.18735,-44.2841 -151.56731,-100.1491 -48.18819,-103.2812 32.54926,21.6984 78.44435,63.3553 31.01646,1.2814 -26.3299,-29.0568 -134.06968,-46.86837 -145.07232,-30.7676 54.61665,4.9397 -98.44241,24.526 -16.77875,15.0868 -71.08559,5.1853 11.06202,104.1867 -57.82322,56.0348 9.76298,28.0861 -36.16098,59.5511 -60.13811,6.4601 -26.53618,-30.5093 -3.31006,-69.8435 22.84122,-37.8539 31.64733,-83.3478 115.83698,-109.22006 197.30048,-85.53168 79.76775,22.45178 143.63581,95.74068 115.25043,182.22858 27.65264,84.8424 -91.84416,117.3545 -65.39595,200.5485 15.43539,51.0933 82.68578,-31.1216 105.40489,27.9032 50.75276,8.3491 79.93291,-61.0975 127.61912,-19.309 90.09419,-39.7095 19.0167,-129.127 -49.22544,-132.9671 -12.60274,-80.0925 9.04203,-170.7115 78.07319,-220.82219 59.20387,-60.64383 189.29568,-54.62634 237.70248,-54.01502 -66.27099,-52.68414 -178.66582,0.34782 -241.34474,32.19538 -59.5043,37.47583 -69.76991,94.57093 -93.81596,169.49143 -25.47328,74.3406 29.54994,101.5974 72.94016,141.2297 40.14904,31.7104 23.73403,70.667 -19.36963,26.0918 -58.60961,-42.1211 -58.92768,95.8758 -110.21178,24.8253 -27.68184,-40.9779 -92.27354,22.1737 -75.2646,2.0819 -42.3947,-80.6236 95.27329,-111.7988 56.35209,-203.444 -5.84791,-40.1937 2.38232,-87.3779 -28.77893,-118.7917 -24.36684,-62.65106 -134.10518,-141.89943 -167.31223,-92.25152 -34.37973,-6.95619 -102.68867,25.99337 -89.75388,15.82305 -40.73468,-1.18793 -108.00941,108.39797 -67.9373,12.97491 48.11199,-110.02137 124.93456,-214.54939 232.44692,-271.7064 80.89567,-16.50285 171.6607,-27.00928 250.47181,8.65736 45.13063,17.90891 94.83936,-7.14774 131.79954,49.59597 -31.1914,-14.03443 -139.56311,-36.90122 -50.83427,-3.33965 86.68735,14.11739 136.0524,92.71562 211.9205,126.64597 44.6255,25.60511 38.2238,115.87926 74.6943,118.1854 4.1144,82.36661 -24.0051,171.39271 -28.6508,247.08981 16.5533,-35.5768 36.2298,-182.9919 29.6667,-67.8835 -7.5171,62.396 -42.653,146.3965 -36.7807,195.6246 23.8151,-44.7157 -38.6253,124.4705 -29.8301,99.1159 -44.4675,108.438 -107.77728,216.1854 -204.23416,285.7114 -48.66828,43.1746 -127.85298,55.7333 -196.86647,59.9872 z m 107.63831,-63.8192 c -9.4277,-64.9255 -195.62193,-15.6115 -77.85332,-17.8808 35.44362,-26.3532 88.88912,64.8467 77.85332,17.8808 z m 17.77774,-54.3292 c 110.21791,-19.0673 88.91946,-159.4625 145.7725,-231.1239 24.66046,-32.4902 36.16237,-98.6693 82.52788,-68.6969 -15.9736,-32.7004 -84.89839,-86.5643 -43.34638,-13.4773 -7.67868,58.3056 -94.59613,40.2914 -136.07122,64.0682 -89.5348,40.7645 -173.59628,-7.0742 -258.09564,-33.3451 -59.40144,-4.7509 -132.33657,-22.7909 -154.87105,44.0558 44.83694,-47.2388 114.0121,41.8412 106.63867,97.4618 19.69707,79.8664 86.74471,155.4489 175.86,145.1224 27.13751,0.7434 54.89976,1.7074 81.58524,-4.065 z M 733.3028,1343.1527 c -7.6804,0.072 -3.55623,9.55 0,0 z m -44.52806,-117.3143 c 64.48065,-11.3579 -49.3919,-24.0169 -23.9074,2.6242 l 6.88506,-3.0979 z m -150.88332,-13.743 c 66.00214,-39.0879 -4.24134,-55.4902 -41.31318,-25.5643 64.29876,-11.7612 6.00221,25.0894 23.3502,16.3251 51.61186,-47.2095 -6.94148,34.019 17.96298,9.2392 z m 279.0869,-13.2273 c 32.10112,-15.2195 93.59571,14.4066 83.53851,-54.8636 30.03637,-19.5782 12.69953,37.1745 43.14908,-7.1024 22.53114,-10.0513 30.64807,34.5134 41.32954,-16.8887 14.13092,-7.1256 95.28125,-9.6516 73.54625,-13.3736 31.1784,-22.6712 58.4005,-33.0846 -4.7057,-22.721 -60.19679,4.6066 31.4112,-54.8902 -27.2392,-22.7154 -49.58535,26.3994 19.3156,-47.8727 -30.05684,-9.0613 -52.18664,14.7593 -27.20901,-17.8621 -4.96028,-35.3387 -52.06824,-30.5768 -177.42538,-20.34913 -178.4434,40.8608 22.10643,-28.671 3.83965,29.1128 26.05703,-17.0187 28.62465,-31.1033 6.0988,24.189 43.79685,-24.1763 -0.0469,44.7128 -147.03821,79.5934 -105.92835,128.6784 24.99575,-24.7269 115.37256,1.3785 94.29741,22.2134 -31.51041,-5.6593 -83.15606,0.6883 -64.08151,42.6361 z m -355.83139,-10.5569 c 13.23763,-53.918 -54.71928,-14.6457 0,0 z m 22.69214,-11.9705 c -15.05944,-53.0017 -19.60926,30.7371 0,0 z m 29.8941,-3.3009 c 16.89453,-28.0407 -31.01195,-13.5477 0,0 z M 992.60896,909.69603 c 11.49094,-27.25565 -27.38,17.59234 0,0 z M 755.3897,890.00524 c 116.96974,-14.79069 -169.43301,-16.89528 -99.29623,-17.66526 -39.41716,-12.27239 -156.90556,-6.24072 -57.37185,3.16108 51.9203,4.82094 105.56168,13.45061 156.66808,14.50418 z M 491.79216,817.92217 c 84.84911,-14.02693 171.06091,-7.19018 257.1339,-10.41129 41.12992,11.27018 140.12203,4.19349 45.27746,-3.50206 -67.63047,-16.39391 -139.46352,6.26292 -208.32799,-6.67326 -33.08231,-0.13582 -152.00109,18.97714 -130.55332,24.91353 19.0647,12.4186 18.62778,8.22397 36.46995,-4.32692 z m 128.46613,-65.23454 c 44.99214,-45.49336 106.5133,11.35688 153.20912,-16.93817 -66.41363,-17.00412 -141.68279,4.39675 -199.67746,-4.70882 -24.20679,2.06448 40.93408,29.15888 46.46834,21.64699 z"
       style="fill:#d35f5f;fill-opacity:1;stroke-width:1.69481"
       id="path1458" />
    <g
       id="g1509"
       transform="matrix(4.2072924,0,-0.12855084,4.6823294,329.203,323.55795)">
      <g
         id="g1173"
         transform="matrix(0.52900596,0,0,0.64883731,-178.24319,-96.795445)">
        <path
           d="M 555.37909,729.37125 C 513.11261,716.66171 466.2586,717.05587 428.57368,691.35113 378.86743,665.63881 332.32843,633.21704 292.59987,593.90931 c -11.27108,-36.29325 42.91907,-37.37283 51.49737,-6.7239 49.46981,45.3507 112.75703,76.51036 179.35673,85.5795 35.52339,3.01016 73.15056,4.20768 107.07402,-7.77562 15.46134,-10.46569 48.80139,-35.99537 43.80664,-47.21208 -27.42658,-21.70777 -22.55158,-63.98908 -35.95118,-93.8303 -0.40056,-31.47327 46.90048,-17.38817 30.60875,-50.33526 -6.94526,-117.52854 -20.22392,-235.62882 -10.47908,-353.24811 0.54935,-28.957644 38.8326,-43.774505 43.64938,-7.63677 15.89814,44.87159 8.92441,93.46668 12.19004,140.07653 -0.0224,79.5347 -2.12488,159.1097 -5.46995,238.50087 -5.09441,30.07456 49.20359,38.10924 28.22216,72.31315 6.1578,32.20406 1.7964,58.49912 -20.15192,82.17989 -10.46688,41.37481 -52.31471,61.25379 -89.53455,73.44259 -23.4791,6.29883 -47.55495,12.22027 -72.03919,10.13145 z M 577.11926,724 c 30.66758,-6.39359 30.63575,-70.76571 -6.46099,-41.26438 -14.79419,17.17881 -39.52597,54.3233 6.46099,41.26438 z m 30.59788,-2.90677 c 40.26079,3.14564 36.56393,-83.08355 -0.48684,-39.66268 -1.97219,15.11676 -27.842,46.18794 -20.60101,44.07359 7.13729,-0.87728 14.18355,-2.41439 21.08785,-4.41091 z M 541.29947,717.75 c 33.51285,-4.80004 16.20153,-65.67638 -10.96896,-32.83123 -16.84468,18.98366 -25.37163,41.34828 10.96896,32.83123 z m 90.52977,-3.27402 c 35.66361,4.70985 58.68848,-56.69895 26.84992,-70.58614 -25.01686,15.082 -13.31478,53.98908 -30.95553,71.86159 z M 517.46705,701.12079 c 31.05278,-33.02277 -43.84862,-37.43712 -44.93491,-4.55424 -11.22358,17.41057 43.72986,21.50335 44.93491,4.55424 z m -50.36053,-1.75438 c 42.9473,-22.53539 -17.80883,-53.01422 -30.44974,-13.59713 -1.90077,13.21248 21.42794,14.45699 30.44974,13.59713 z m 213.28314,-8.50952 c 39.62888,-2.98256 10.09775,-93.93983 -8.57,-51.3088 0.5668,15.68487 4.78824,54.44438 4.28958,55.44118 z M 438.69947,680.82762 c 39.85539,-23.46841 -33.96075,-48.79447 -41.92106,-14.07574 8.10805,11.81854 28.38346,16.33445 41.92106,14.07574 z M 708.923,663.46144 c 27.03712,-13.23313 -13.40869,-71.21869 -10.33083,-28.02052 2.00448,4.66485 -0.86436,43.98872 10.33083,28.02052 z m -310.13414,-1.67987 c 53.43881,-19.64162 -54.47235,-46.05695 -23.484,-5.92438 6.35885,4.95457 15.4349,12.05232 23.484,5.92438 z m -26.32803,-24.02411 c 31.46653,-19.50619 -36.24867,-50.93122 -41.00413,-16.44415 6.6021,11.82842 28.29601,25.20156 41.00413,16.44415 z m 358.30601,-17.05914 c 22.29194,-38.04124 -43.61304,-31.04233 -65.21749,-41.14962 -24.3863,18.22526 23.78472,45.88019 44.54258,37.26639 6.72194,1.75589 13.52797,5.4947 20.67491,3.88323 z m -45.44672,-2.50519 c -3.43969,0.33158 -1.10094,3.01587 0,0 z m -345.04957,-6.73672 c 27.63481,-22.9826 -52.60478,-65.03307 -43.6675,-26.26061 6.12487,16.56167 24.7927,34.75441 43.6675,26.26061 z m 394.08198,-26.87449 c 6.06848,-35.88451 -42.11937,-46.95692 -68.2856,-53.3911 -41.81432,11.42154 6.49798,55.38294 32.60751,53.43935 11.77314,0.34656 24.08471,2.42845 35.67809,-0.0483 z m 2.54589,-33.53226 c -5.008,-39.67543 -66.22955,-53.85073 -93.93479,-39.78741 -5.09809,35.28189 42.08713,6.45217 59.18388,28.42057 10.91183,5.43875 22.31676,10.98534 34.75091,11.36684 z M 705.51643,510.2 c 16.8983,-29.93518 -48.4182,-60.79508 -30.99171,-16.78629 5.67655,11.57004 19.37522,14.95246 30.99171,16.78629 z m 0.36015,-48.7 c 21.74676,-31.91081 -61.66035,-53.85285 -33.69054,-11.1586 4.2217,13.23298 31.65355,43.11346 33.69054,11.1586 z m 0.20268,-32.01536 c 21.31493,-26.39769 -35.21021,-68.76418 -39.93897,-35.89543 -0.0696,24.06106 17.3023,38.59628 39.93897,35.89543 z m 2.35694,-45.42395 c 16.07925,-28.64632 -29.62282,-54.2071 -45.1653,-40.04639 -3.05472,23.9563 22.07132,51.43021 45.1653,40.04639 z m 1.38216,-64.39402 c 15.92733,-34.38003 -73.90985,-61.23362 -48.81885,-9.10804 1.52669,28.10154 59.58907,56.98524 48.81885,9.10804 z m 0,-52.05417 c 8.18709,-27.44017 -43.53134,-38.26662 -51.67291,-37.02786 -17.59644,29.30256 45.90344,79.55816 51.35683,41.75307 z m 0.14821,-47.14983 c 17.31928,-29.42653 -59.61537,-60.44032 -53.23429,-24.51871 -1.57975,24.30678 48.63461,66.27632 53.23429,24.51871 z M 708.6548,179.25 c 15.12696,-28.40533 -45.63996,-73.61842 -50.36431,-33.2787 -5.81306,21.82069 39.96251,56.19665 50.36431,33.2787 z m -4.85915,-43.53466 c 11.39669,-26.36082 -43.08463,-61.62535 -38.54259,-18.71858 8.76603,11.80498 23.55629,20.18648 38.54259,18.71858 z m 195.3076,79.9071 c 1.40682,-4.51444 3.38011,-0.24678 0,0 z M 872.43129,83.622445 c 1.40683,-4.514413 3.38009,-0.246808 0,0 z"
           style="fill:#000000;stroke-width:0.92757"
           id="path125" />
        <path
           d="m 356.67913,639.86938 c -26.49853,-4.52436 -30.77415,-33.79986 -1.00842,-33.67211 26.27692,0.57409 38.47496,42.27222 1.00842,33.67211 z"
           style="opacity:1;fill:#28170b;fill-opacity:1;stroke-width:0.544835"
           id="path137-4" />
        <path
           d="m 532.11614,718.18886 c -42.09345,6.07355 7.60523,-60.25702 27.6649,-36.98177 7.12055,15.53281 -11.19572,38.49523 -27.6649,36.98177 z"
           style="opacity:1;fill:#28170b;fill-opacity:1;stroke-width:0.544835"
           id="path982-1" />
        <path
           d="m 713.64113,586.33649 c -26.47823,0.65466 -63.22586,-17.06144 -63.80421,-45.86501 25.29971,-19.63947 61.44815,3.31094 80.7625,22.0247 13.54742,14.83707 0.27083,29.39502 -16.95829,23.84031 z"
           style="opacity:1;fill:#28170b;fill-opacity:1;stroke-width:0.544835"
           id="path984-7" />
        <path
           d="m 697.19753,386.22717 c -28.21308,6.10047 -50.91689,-64.00117 -13.07006,-41.84656 25.75631,-2.12229 40.04395,39.32576 13.07006,41.84656 z"
           style="opacity:1;fill:#28170b;fill-opacity:1;stroke-width:0.544835"
           id="path986-1" />
        <path
           d="m 693.65984,185.39224 c -28.36558,0.25717 -53.12872,-50.5019 -18.48151,-55.53546 25.57242,-1.23779 53.10874,58.71668 18.48151,55.53546 z"
           style="opacity:1;fill:#28170b;fill-opacity:1;stroke-width:0.544835"
           id="path988-1" />
        <path
           d="m 419.60762,678.81595 c -52.19105,-7.01025 22.28316,-53.72673 30.36071,-13.56261 4.21712,16.89696 -19.71345,21.29431 -30.36071,13.56261 z"
           style="opacity:1;fill:#784421;fill-opacity:1;stroke-width:0.544835"
           id="path990-0" />
        <path
           d="m 626.64508,715.01979 c 23.0817,-15.5197 7.14325,-74.65011 39.01335,-69.18908 18.8698,31.39394 -1.88851,70.58623 -39.01335,69.18908 z"
           style="opacity:1;fill:#784421;fill-opacity:1;stroke-width:0.544835"
           id="path992-4" />
        <path
           d="m 696.38401,285.02437 c -32.32401,9.55249 -57.56483,-72.27531 -19.03974,-50.64752 24.58289,-0.0289 55.20659,49.41212 19.03974,50.64752 z"
           style="opacity:1;fill:#784421;fill-opacity:1;stroke-width:0.544835"
           id="path994-2" />
        <path
           d="m 728.26537,549.83243 c -24.24714,-18.38581 -67.21733,-15.24543 -84.86228,-29.26685 11.21363,-34.25198 67.2901,-5.5199 86.53082,10.82661 4.64659,4.58542 13.89687,23.8962 -1.66854,18.44024 z"
           style="opacity:1;fill:#784421;fill-opacity:1;stroke-width:0.544835"
           id="path996-0" />
        <path
           d="m 327.25802,613.38066 c -27.5457,2.93125 -46.75688,-62.80074 -7.18917,-39.29979 16.66154,8.92234 48.53259,39.42724 7.18917,39.29979 z"
           style="opacity:1;fill:#a05a2c;fill-opacity:1;stroke-width:0.544835"
           id="path998-2" />
        <path
           d="m 559.90274,725.04715 c -25.63287,-8.99243 15.89608,-60.19075 36.75394,-46.55859 11.86667,20.9061 -13.00546,52.59254 -36.75394,46.55859 z"
           style="opacity:1;fill:#a05a2c;fill-opacity:1;stroke-width:0.544835"
           id="path1000-1" />
        <path
           d="m 723.26116,620.40388 c -22.73761,-3.52715 -75.39708,-9.24622 -62.41046,-38.97744 24.96211,7.19316 63.49925,2.15647 76.62933,25.35288 1.33072,7.99875 -6.14803,15.37236 -14.21887,13.62456 z"
           style="opacity:1;fill:#a05a2c;fill-opacity:1;stroke-width:0.544835"
           id="path1002-0" />
        <path
           d="m 695.19827,474.73606 c -30.89319,-7.6493 -36.66393,-68.30645 2.74991,-43.75394 14.27185,6.49939 14.07224,42.09395 -2.74991,43.75394 z"
           style="opacity:1;fill:#a05a2c;fill-opacity:1;stroke-width:0.544835"
           id="path1004-7" />
        <path
           d="m 696.23624,135.55142 c -30.53543,7.26504 -41.28013,-55.856964 -8.95132,-36.179074 6.67485,6.274214 28.99848,34.331254 8.95132,36.179074 z"
           style="opacity:1;fill:#a05a2c;fill-opacity:1;stroke-width:0.544835"
           id="path1006-5" />
        <path
           d="m 488.80172,710.72558 c -42.17059,-1.87706 12.73725,-58.66697 32.70143,-31.44078 15.9219,16.53815 -17.77298,38.95689 -32.70143,31.44078 z"
           style="opacity:1;fill:#c87137;fill-opacity:1;stroke-width:0.544835"
           id="path1008-5" />
        <path
           d="m 488.80172,710.72558 c -42.17059,-1.87706 12.73725,-58.66697 32.70143,-31.44078 15.9219,16.53815 -17.77298,38.95689 -32.70143,31.44078 z"
           style="opacity:1;fill:#c87137;fill-opacity:1;stroke-width:0.544835"
           id="path1010-3" />
        <path
           d="m 386.60589,662.76495 c -42.74478,-12.5009 13.63139,-48.2159 27.18363,-17.61618 1.89949,14.15229 -16.23279,19.51759 -27.18363,17.61618 z"
           style="opacity:1;fill:#c87137;fill-opacity:1;stroke-width:0.544835"
           id="path1012-1" />
        <path
           d="m 694.22646,238.27938 c -30.34565,1.46997 -56.36017,-72.61188 -15.05975,-56.28314 26.65686,2.06113 52.33093,53.2309 15.05975,56.28314 z"
           style="opacity:1;fill:#c87137;fill-opacity:1;stroke-width:0.544835"
           id="path1014-4" />
        <path
           d="m 696.38388,507.17258 c -30.63992,7.36029 -31.23145,-58.87535 0.17841,-31.1428 9.1087,2.31535 16.05895,40.03152 -0.17841,31.1428 z"
           style="opacity:1;fill:#c87137;fill-opacity:1;stroke-width:0.544835"
           id="path1016-7" />
        <path
           d="m 672.14816,697.2973 c 15.07792,-20.71471 -19.66929,-68.92788 18.24266,-70.90674 10.89173,24.97957 14.39833,60.74814 -18.24266,70.90674 z"
           style="opacity:1;fill:#c87137;fill-opacity:1;stroke-width:0.544835"
           id="path1018-1" />
        <path
           d="m 454.61523,699.49827 c -41.90817,-2.98734 19.52184,-56.55225 29.37147,-24.39926 0.27447,13.87779 -15.38508,28.44115 -29.37147,24.39926 z"
           style="opacity:1;fill:#d38d5f;fill-opacity:1;stroke-width:0.544835"
           id="path1020-3" />
        <path
           d="m 584.61185,723.19354 c 14.76148,-15.13801 30.03636,-76.63533 53.9658,-42.67548 1.27207,26.14877 -29.18587,49.33914 -53.9658,42.67548 z"
           style="opacity:1;fill:#d38d5f;fill-opacity:1;stroke-width:0.544835"
           id="path1022-5" />
        <path
           d="m 703.79929,667.44739 c -9.06807,-14.88143 -9.34701,-71.73219 12.07688,-35.30009 0.98438,11.96892 0.0316,29.03692 -12.07688,35.30009 z"
           style="opacity:1;fill:#d38d5f;fill-opacity:1;stroke-width:0.544835"
           id="path1024-7" />
        <path
           d="m 694.74951,428.423 c -29.36975,6.58747 -41.95764,-68.36639 -5.47946,-39.86077 24.02069,-3.28015 28.83747,45.35035 5.47946,39.86077 z"
           style="opacity:1;fill:#d38d5f;fill-opacity:1;stroke-width:0.544835"
           id="path1026-9" />
        <path
           d="m 697.20127,345.57303 c -31.88688,-3.59551 -44.39041,-44.51854 -33.38728,-69.07601 28.27734,8.42964 58.66006,26.40608 45.87053,61.19872 -1.2536,5.45689 -6.63758,10.38866 -12.48325,7.87729 z"
           style="opacity:1;fill:#d38d5f;fill-opacity:1;stroke-width:0.544835"
           id="path1028-4" />
      </g>
      <path
         d="m -11.609059,268.04212 c 7.0661327,-12.37454 41.953613,-13.62517 25.767453,4.73751 -8.8009634,5.80224 -15.6973553,15.83527 -1.763326,4.86954 19.913829,-10.70031 -0.598269,-31.13859 -15.658485,-17.97515 -3.2191211,1.95553 -7.879937,4.0738 -8.345642,8.3681 z"
         style="fill:#000000;fill-opacity:1;stroke-width:0.264583"
         id="path1470" />
      <path
         d="m -11.02513,267.78267 c 0.623954,-3.47282 -4.385525,7.53411 0.750981,-1.50625 -7.554572,7.52702 18.8939759,-15.92451 27.654979,-4.44739 5.51768,7.93181 -27.623536,29.61259 -6.67569,16.0832 20.503724,-10.64112 0.02026,-28.66278 -14.5449467,-17.21301 -8.6342853,3.64334 -11.4310743,14.44351 -5.6252642,4.82017 -1.4452551,-0.69242 -4.3591291,1.65956 -1.5600591,2.26328 z"
         style="fill:#000000;fill-opacity:1;stroke-width:0.264583"
         id="path1472" />
      <path
         d="m 12.866139,257.31962 c -1.834553,1.46861 0.719813,5.31275 1.973099,0.15561 -0.436769,-1.66631 -8.5424686,0.90264 -1.973099,-0.15561 z"
         style="fill:#550000;fill-opacity:1;stroke-width:0.264583"
         id="path1474" />
      <path
         d="M 1.053967,281.12265 C -22.5669,269.76773 9.9320335,247.60976 17.894909,265.89483 15.906429,271.32172 6.144098,281.69985 1.053967,281.12265 Z"
         style="fill:#550000;fill-opacity:1;stroke-width:0.133635"
         id="path1476" />
    </g>
  </g>
</svg>
