<svg xmlns="http://www.w3.org/2000/svg" width="891.958" height="1284.616"><g transform="translate(-92.206 -286.553)"><path d="M626.607 1567.548c-42.14-7.474-84.802-21.477-129.52-12.863-53.565-10.04-107.963 1.563-161.607 1.913-.013-2.393-20.837-5.04 4.84-11.345 22.77-1.73 68.296-78.899 51.444-60.168-45.623 46.26 24.367-25.564 12.608-52.339 2.808-41.249 5.917-87.677-7.705-125.211-25.908-7.975-6.634 67.804-17.157 93.702-3.667 56.665 29.717-82.682 17.558-22.692 1.484 27.056-29.692 73.149-23.788 18.923 2.168-27.871 8.525-74.647 1.79-91.187-19.215 29.198-26.037 103.758-44.135 107.303-36.338-35.723 12.87-100.624-12.95-136.101-19.955 50.481-4.394 113.968-44.033 155.897-34.297-1.24-36.864-82.571-25.329-116.584 8.494-40.98 11.694-141.508-16.097-142.086-14.118 54.064 14.507 109.82-4.517 162.066-22.068 6.28-44.374 61.107-56.032 48.844 21.45-27.163-20.42-100.878-24.55-31.643-19.372 24.967-42.296 110.7-49.955 35.659-26.614-51.24 57.794-82.18 28.787-138.338-16.218-47.691-39.057-89.706-8.232-139.12 15.798-47.24-3.548-93.85-4.285-140.796 8.781-53.862 12.561-108.18 6.613-162.578 4.187-53.447 2.545-109.8 18.459-160.771 18.477-48.215 47.532-93.77 57.201-145.192 6.9-43.857 47.694-105.971 96.864-91.043 8.105-57.955 74.025-72.807 119.453-92.56 53.371-20.394 103.516-34.762 162.717-32.439 49.404 18.046 107.383-3.763 154.416 25.455 33.48-.474 39.871 42.407 74.338 31.544 15.718 46.262 77.428 48.151 88.04 95.556 44.119 17.892 26.467 83.172 60.864 113.123 29.311 41.011 27.873 98.629 31.457 148-6.843 28.272-18.032 74.3-9.832 94.874 5.507 25.968-3.663 81.259.561 116.671.662 59.56-35.195 108.577-58.217 160.451 32.11 30.498 3.184 142.598-36.386 76.325-4.498-28.39-28.925-48.596-28.381-6-9.829 66.112-62.814 114.31-118.214 146.014-45.017 7.85-57.848 64.921-111.693 62.123-52.719 9.28-111.699 13.27-163.228-3.69-16.739-16.887-65.76-41.529-34.816-.627 14.84 17.31 87.563 68.254 31.23 38.678-17.968-10.544-52.624-54.597-35.387-9.597 1.21 29.5 51.175 65.32 54.468 54.24-29.757-.839-75.485-56.136-54.495-27.679-2.288 29.934 85.646 69.266 22.266 44.732-21.948-20.5-38.178-49.035-22.967-2.341 5.746 27.277 87.838 81.44 24.44 47.638-27.02 14.804-46.912-46.227-11.992-7.11 15.258 14.492-28.959-64.218-24.479-17.273-.776 38.266-102.193 91.237-21.288 82.464 54.634-17.379 108.433 6.985 164.794-6.166 47.342 8.477 95.304 31.266 142.226 9.094 30.125 3.548 32.203-.021 8.701-24.772-29.685-49.51-45.638-106.468-43.77-164.49 12.962-58.245 8.803 60.176 16.606 79.748 18.113 38.172 23.367 86.602 64.861 111.014 19.676 22.77-55.708-9.013-72.346 11.903-13.29.15-27.876 9.393-40.219.847M274.24 1430.646c30.895-45.95 18.687-104.181 38.611-154.233-11.875-41.036-61.187-77.65-66.563-128.615 4.862 41.54 22.636 89.408 12.744 135.819-10.659 49.808-17.61 104.112 11.184 149.18zm1.555-56.26c1.11-31.413 2.369-109.006 16.547-114.983-4.738 31.6-7.878 106.503-16.547 114.983m-155.857 21.473c31.521-52.017 46.774-112.268 61.994-170.561 18.378-31.482 9.711-115.439 36.428-119.241 3.3 64.858-22.76 127.218-49.807 184.932-3.15 18.245 13.39 80.289 24.088 73.654 66.96-33.048 17.01-109.51 31.728-164.415.291-43.2 28.435-74.231 7.298-117.476-9.58-44.905-2.276-89.598-10.966-133.043-15.752 41.167-.968-52.42-4.184-73.137-14.715-47.51-33.218-101.082-6.215-147.69 9.073-32.23 30.95-53.674 48.47-79.957-31.132 25.391 24.864-44.592 32.86-56.618 12.119-30.256 29.54-39.862 6.128-3.346-14.103 19.689-43.126 54.423-8.29 19.012 23.667-15.21 58.29-61.257 24.003-70.672-19.126 12.345 20.513-16.024-3.45-33.45-24.829-26.684 8.447-98.84-42.56-90.468-60.23 17.134-60.075 86.069-79 133.925-20.946 50.906-54.435 99.592-53.69 155.99.367 31.204-11.21 60.587-7.33 92 3.132 57.146 3.953 114.135-7.08 170.671 4.054 54.069 20.671 108.93-.734 162.732-37.433 53.634 28.593 99.272 15.8 156.917-13.965 42.907-58.177 75.54-25.306 124.2 4.561-3.56 6.814-9.243 9.815-13.96m11.086-58.05c19.543-13.588 25.019-82.416 25.285-123.511 7.53-92.742 6.825-185.557 3.39-278.48-1.746-70.543-2.149-142.198 12.098-211.395 13.496-56.631 51.668-101.722 63.496-158.765 10.475-15.733 48.922-83.319 23.36-30.039-29.81 51.511-46.462 108.665-73.183 162.179-18.425 48.31-15.87 100.91-20.12 151.594 1.347 128.44 8.308 257.043-4.15 385.136-4.394 28.684 2.287 97.18-30.176 103.28m37.38-111.261c3.835-50.592 7.247-101.896 10.98-152.799 12.854-79.644 11.192-160.69 10.89-241.123 16.15 12.33 1.617 83.768 5.55 117.99-1.323 77.764-15.623 154.469-17.351 232.266-6.495 9.915 1.81 47.046-10.069 43.666m-11.558-510.385c-14.385-53.862 16.554-99.93 37.65-146.48 15.345-41.85 66.329-87.124 77.794-113.2-22.24 51.594-71.481 84.71-85.494 141.92-24.73 31.5-30.2 76.687-23.148 113.61 9.38 2.772-4.908 10.195-6.802 4.15m56.943.04c2.068-6.915 5.72-1.593 0 0m123.37 687.845c-6.783-41.73 74-114.665 2.167-123.977-23.598-.012.104 69.112-15.702 93.726-3.856 10.21 3.875 31.433 13.536 30.25m-2.385-60.199c7.408-24.618 28.053-61.278 11.989-16.106-4.767 3.05-4.363 15.524-11.99 16.106m217.5 1.949c51.658 4.9 108.401-2.887 143.5-45.726 27.91-26.017 75.38-61.048 91.518-80.738-16.446 21.511-70.765 67.764-15.19 34.136 43.519-29.306 53.405-87.38 72.209-133.286 7.798-57.108 18.804-116.118 4.902-173.056 12.176-14.549 11.996-34.436 16.944-53.891 9.478 4.668 12.997-124.435 4.096-56.098-6.609 19.346-15.044 107.328-21.97 83.344 4.945-40.398 27.603-114.257 20.39-133.935-26.971 27.548-35.758 65.07-58.78 99.481-31.338 49.722-81.24 99.483-144 97.771-43.03-11.078-60.786-79.172-74.107-97.67 13.909 53.65 50.896 100.88 51.963 157.596-9.97 29.657-41.676 12.414-56.443 18.126-33.044 16.367-60.301-12.755-93.297 4.681-50.432-34.45 5.053-96.834 8.893-142.532 4.27-15.505-.202-43.146.737-32.364-15.235 19.624-28.984 100.128-53.298 86.031-38.513 37.068-107.053 15.053-140.025-19.402-36.63-24.75-52.655-66.34-79.344-99.255 17.492 49.295 45.535 97.64 83.332 134.1 46.818 37.413-41.94-9.843-41.428-35.542-12.296-18.083-53.679-94.61-28.134-36.998 21.745 44.306 51.118 109.114 90.23 124.189-49.81 1.12-63.674-66.85-87.944-101.075-9.353-23.057-23.774-44.95-8.306-8.394 11.808 34.587 54.271 82.772 52.303 108.218-20.194-20.668-38.956-75.434-49.698-77.884 3.624 15.305 31.275 70.448 5.642 41.81 13.473 17.876 28.965 94.495 6.035 36.787-23.199-51.638 6.052 14.866 4.94 31.552-10.865 0-27.83-70.442-16.95-19.067 12.39 17.024 8.811 38.54-.136 23.593-1.239 36.83 29.179 73.704 29.884 102.406 29.56 30.359 28.81 62.797 63.234 82.21 28.359 6.609 65.327 20.883 87.819 46.366 37.783 25.835 84.306 38.994 130.479 34.518zm-108.773-29.75c-24.293-49.905 55.664-25.048 0 0m10.441-11.352c-3.686-29.962-4.878 18.609 0 0m70.087-59.432c-39 11.176-42.25-41.706-72.739-41.274-17.929-13.117 61.002-7.215 76.988-39.594 25.169-14.09 45.896 17.668 65.764-16.476 40.685 5.274 77.176 33.211 122.48 20.26 36.715 4.05-33.822 9.028-35.406 28.332-30.517 40.026-84.779 44.93-130.757 48.625-8.28-3.287-17.613 4.52-26.33.127m10.75-5.47c42.994-1.828 93.635-3.216 128.855-30.623 18.547-15.614 57.557-47.885 6.286-32.684-51.892-8.594-88.103 48.02-136.896 25.974-31.079-9.483-78.213-8.207-39.971 26.918 12.06 9.126 28.43 9.69 41.726 10.416m39.504-37.01c18.166-13.373 60.889-29.942 70.49-30.486-28.21-21.925-62.246-19.935-85.514-.5-27.353-27.979-93.31 38.1-22.828 24.324 13.242-.597 24.984 9.12 37.852 6.661m102.48-71.236c1.996-54.391 42.472 6.567 0 0m12.533-5.85c-3.08-27.524-13.64 9.957 0 0m-159.244-23.65c-.233-46.492 18.555 15.2.746 8.548zm56.722 2.785c-12.081-46.799 19.917-16.439.813 4.965zm-253.341-29.86c-39.955-20.582 17.382-2.063 0 0m321.84 262.915c22.042.094 40.648-37.843 11.902-7.305 9.82-9.132-38.585 17.15-11.901 7.305m28.5-14.59c7.062-8.89-9.41 9.026 0 0m57.512-43.597c6.614-7.704-13.313 10.89 0 0m17.78-14.61c11.512-7.16-26.606 11.286 0 0m24.103-13.415c-10.405 5.016-11.625 10.678 0 0m-10.267 4.372c3.734-4.566-6.735 5.433 0 0m-582.648-25.75c12.25-37.7 23.189-76.49 22.276-116.5-7.019 43.357-22.985 95.69-27.902 133l2.444-6.291zm609.546 7.812c23.235-13.676 53.88-102.763 42.975-93.155-16.935 33.82-38.427 89.744-54.87 103.531-4.497 4.516 22.988-18.842 11.895-10.376m112.991-74.062c26.91-38.448-9.898-84.09 1.804-120.036-14.625-24.352-2.928-46.036 6.044-6.714 23.849-2.921 48.123-84.26 47.428-123.272 3.88-37.588-5.529-38.693-14.034-2.228-13.804 42.537-22.006 97.87-70.472 115-19.69-32.393-9.126 53.373-20.859 71.803 7.522 14.29 34.318 66.296 19.054 15.697-15.898-22.534 4.721-128.688.32-52.76 13.607 34.706-10.215 88.099 28.371 106.24zm-671.878-18.507c3.359-25.11-12.001 35.678 0 0m620.825-83.493c3.896-24.738 1.53-55.32.163-11.754 1.237-.345-4.724 27.32-.163 11.754m-349.343-2.704c-19.365-35 11.182-60.32 22.38-18.322 22.72 29.893 40.465 21.823 64.528-18.923 15.188-20.21-1.185 49.751 26.678 35.328 21.972-41.978-23.65-76.737-26.602-120.332-9.748-42.163-27.188-93.18-77.724-57.163-9.876 37.846-15.873 69.79-32.07 112.146-12.417 30.912-13.707 70.973 22.81 67.266m71.771-1.124c.632-4.778-6.358 7.211 0 0m-.264-4.172c3.249-4.97-5.688 6.313 0 0m-348.127-27.691c-1.777-6.787-3.092 5.405 0 0m659.537-7.144c45.667-32.581 43.09-94.947 65.046-141.967-13.676-39.406.223-59.538 5.204-96.823 4.779-54.55 23.414-106.992 2.406-161.08 6.267-52.612-51.3-78.718-48.58-128.792-10.527-28.666-24.634-42.394-44.007-62.185-14.094-32.952-65.37-45.118-82.502-78.655-45.333-11.797-86.365-54.187-142.753-49.769-53.408 5.562-107.262-16.59-158.688-1.774-33.538 11.959-68.188 17.178-102.477 34.18-50.594 7.202-113.642 66.169-80.008 106.83 30.478-42.961 92.396-38.617 137.211-60.013 28.319-11.75 113.625-35.873 108.282-31.491-56.646 2.284-116.484-8.593-170.764 10.755-21.582 13.422-87.218 54.334-28.407 14.79 55.847-47.987 132.989-27.206 199.74-31.518 49.067 6.814 98.8-26.393 142 10.75 56.817 16.14 106.17 38.846 149.367 78.5 49.212 56.583 58.502 134.059 79.081 203.456 26.094 52.62 20.299 114.55 19.2 171.55-5.57 54.62-17.362 112.481-37.376 161.686 8.135-52.94 28.8-103.786 30.908-158.067 2.175-61.684 4.558-126.922-23.472-183.596-12.096-51.724-24.275-104.914-48.258-152.451-3.3-22.382-77.422-82.649-30.69-31.71 22.516 15.99 25.65 50.477 2.221 14.756-33.975-52.863-89.829-82.453-149.984-95.703-56.214-18.421-113.91-10.914-170.886-1.192-49.69 17.7-101.194 31.202-150.278 50.949-65.38-3.862-66.636 71.001-42.915 112.622 39.226-35.708 85.438-81.7 144.112-83.058 58.9-2.362 109.515-39.452 167.315-39.462 54.39-2.437 110.393.8 149.447 45.065 36.065 45.325 102.167 61.327 110.147 127.443 9.628 44.096 8.754 96.207 25.791 134.09-23.417-16.744 11.106 60.807-3.326 81.865-7.384 33.158.3 109.496-12.644 64.882-2.519 32.578-15.088 121.9-19.89 117.37-.815-34.981-5.978-53.336-.706-98.14 1.783-26.453.108-98.341-.516-33.456-2.74 57.122-22.032 114.681-.766 170.837 2.093 5.124 4.067 14.51 12.415 8.526m-25.437-33.016c-7.381-66.381-3.843 23.202 0 0m-444.631 4.048c31.813-19.191 61.83-67.75 42.94-95.986-33.26-11.475-65.15-22.3-99.981-25.07-34.514-1.593-133.233-26.035-86.964 36.609 27.858 30.14 45.839 77.885 96.536 79.45 15.416 2.783 31.883 8.367 47.469 4.997m-58.752-56.422c-29.345-6.083-55.696-26.519-10.694-38.308 30.842-38.89 104.432 22.456 36.687 34.435-7.967 3.838-17.183 6.11-25.993 3.873m24.632-9.722c31.369-12.997-7.464-54.318-1.496-12.061-45.163 34.588 6.057-26.808-10.425-16.242-35.877-8.283-11.43 46.56 11.921 28.303m11.642-2.303c34.717-28.064-17.693 4.366 0 0m-47.577-2.75c14.032-33.866-.995-22.707-17.17-7.25 3.586-2.112 20.78 16.106 17.17 7.25m28.386-4.676c15.43-33.466-19.771 9.037 0 0m2.45-25.237c-5.507-1.623-1 1.75 0 0m77.79 81.413c27.466-29.619-22.616 8.735 0 0m237.46 4.345c69.955-19.05 108.41-88.732 135.55-150.254-33.581-9.667-114.394 20.701-164.918 24.41-36.612 8.352-68.93 22.246-39.47 59.821 1.657 39.338 28.32 80.965 68.838 66.023m-13.5-70.771c-28.768-.786-58.41-15.272-18.347-34.005 18.448-26.78 133.895-29.509 71.664 10.069-15.385 11.002-33.467 25.217-53.317 23.936m17.464-7.95c28.54-32.892-39.92 13.832-16.257-21.752 22.917-15.735-13.524 22.998 16.156 6.616-15.537-52.557-55.423 25.583.101 15.137m10.678-2.79c24.148-9.246 60.93-44.076 9.228-35.39-29.47 1.954-29.758-4.402-9.616 11.056 11.169 3.872-10.98 31.278.388 24.335m-44.776-3.797c.27-26.152 1.24-19.907-17.34-1.548 1.613 1.8 27.792 11.662 17.34 1.548m-201.026 60.93c.424-5.97-6.215 10.818 0 0m422.26-42.217c11.444-52.934 4.025-107.475 7.506-161-16.411 15.49-4.999 41.84-8.6 62.33 1.412 29.276-3.708 110.263-1.616 110.987l1.207-5.44zm-408.615-17.786c-7.954-.135-.61 5.88 0 0m-.539-4.214c-16.456-28.52-77.478-44.397-117.008-50.393-32.729-7.43-102.042-31.428-98.725 14.893 3.28 18.493 79.793.119 118.29 12.659 31.209 5.246 69.686 24.492 97.443 22.84m22.569-1.329c-6.013 1.533-2.658 4.04 0 0m-246.486-11.867c-6.452-11.243.921 15.501 0 0m329.714 5.12c-3.602-14.286-8.577-1.252 0 0m-90.48-6.117c13.257-28.037 65.948-20.914 88.29-34.331 8.974 33.544 46.258-4.842 72.934-13.64 40.384-9.749 74.641-27.52 120.013-39.836 11.383-2.274 87.67-22.359 95.52-63.808 7.284-33.892-12.975-49.753-35.403-80.256-28.599-32.541-71.873-36.647-107.617-57.936-46.229-2.834-93.37 2.559-137.799-11.5-54.788 7.567-110.759 9.245-165.38.328-40.361-2.55-106.563-1.813-110.256 51.118-23.147 52.149-74.99 84.58-99.065 136.376 18.275 39.14 44.232 76.983 85.164 49.913-10.099 8.506 57.356 18.037 50.85 12.265 42.457 6.861 85.517 19.95 122.486 43.543 8.012.66 12.634 21.391 20.264 7.764m-31.66-34.056c-32.341-35.83-83.545-49.717-131.103-47.272-22.044-8.951-91.016 36.15-42.155-1.222 36.609-39.312 97.221-32.124 145.394-24.987 33.477 9.303 80.29 21.99 45.135 64.11-3.453 4.626-10.63 24.632-17.27 9.37m11.412-6.942c35.826-57.156-55.235-63.225-92.462-66.127-25.51-4.854-91.718 11.342-82.272 25.293 59.542-14.68 130.088-2.008 172.262 44.706zm126.094 1.482c-26.368-61.3 41.93-86.165 88.39-99.294 44.606-12.476 103.75-26.128 140.171 9.686-2.925 25.245-12.599 27.157-18.274 11.518-69.907 3.948-141.73 24.483-199.63 64.86-1.67.554-5.595 20.232-10.657 13.23m12.083-17.886c56.865-38.886 125.18-58.92 193.15-66.539 47.04 2.533-52.297-38.847-72.568-20.263-43.527 13.398-127.607 15.997-129.14 72.755 1.68 3.981-2.12 30.249 8.558 14.047m-268.442 3.405c7.745-1.556 1.487 1.609 0 0m195.75 49.69c2.844-3.424-11.853 3.672 0 0m-23.5-2.625c5.176-6.49-12.018 9.502 0 0m102.402-3.315c49.539-26.243 107.236-25.45 160.628-39.46 45.351 7.168 60.567-27.122 33.247-38.888-57.338 2.54-108.214 32.373-161.315 50.788-9.601-.718-70.01 45.873-32.56 27.56m-69.586 3.708c34.03-3.488-11.533-3.578-5 1.21zm77.374-4.412c-17.35 6.157-1.83 3.72 0 0m338.716-41.356c-5.317-17.826-2.102 79.394-.978 19.15l.35-7.447zm-714.697 38.25c18.612-37.207-41.577-39.212-5.283-.747l3.28 4.497zm-26.71-6.517c-4.154-18.723-9.926-11.59 0 0m15.25-29.943c1.35-8.094-39.956-59.12-16.762-17.046 4.058 6.208 4.769 24.556 16.763 17.046m667.28-24.29c3.57-32.42 4.674-119.165-25.355-113.765 23.942 35.786 17.952 106.595 23.347 127.27l.927-6.105zm-704 7.75c-5.55-23.191 1.528 20.625 0 0m644.557-8.5c37.765-42.95-22.465 19.133 0 0m-4.576-1.762c12.573-15.74 51.76-37.786 10.994-19.151 19.823-17.543 52.239-70.55 8.747-28.761-15.403 8.185-63.061 58.213-19.741 47.912m14.787-2.488c7.193-10.735-16.942 19.27 0 0m4.83-8.25c3.734-4.566-6.735 5.433 0 0m-648.127-3.56c-3.257-10.33-2.449 2.467 0 0m608.493-6.679c-2.531-1.829-3.982 3.221 0 0m7.634-.761c3.734-4.566-6.735 5.433 0 0m0-3c3.734-4.566-6.735 5.433 0 0m37.095-2.364c34.241-13.882 31.147-54.715 4.554-10.155 1.021.113-18.932 18.354-4.554 10.155M221.743 748.34c27.181-52.83 88.592-85.146 97.574-147.542-14.032 18.425-62.979 67.196-22.21 22.066 33.742-47.45-48.794 52.054-53.144 74.725-3.45 10.341-55.041 67.112-22.22 50.751m5.723-27.542c23.79-44.01 46.81-89.267 86.087-121.47 34.678-52.139-24.883 18.986-42.632 34.747-11.776 30.328-58.331 67.877-50.055 91.518zm661.107 1.935c6.636-25.786-15.884-1.985 0 0m12.2-49.927c-4.61-56.943-8.365-120.06-49.507-163.912-54.747-23.761-83.671-84.864-143.01-100.723-52.104 2.56-108.341-12.785-155.051 17.806-52.08 20.234-113.645 11.839-160.666 43.805-23.237 22.12-82.244 41.551-60.013 80.04 36.556-1.293 84.354-33.77 127.648-40.083 74.792-17.984 152.643-6.765 228.838-8.945 57.96-1.642 107.378 37.364 146.52 75.946 30.12 32.23-30.57-46.876-48.286-51.254C747 478.446 675.8 474.975 621.912 496.41c30.485-30.77 117.107-11.686 122.851-14.312-51.991-32.233-117.797-22.967-175.99-18.236-69.733 10.82-140.073 31.193-200.029 68.603-13.427 1.582 44.446-30.244 64.264-35.88 80.371-34.467 169.522-48.116 256.342-41.438 49.747 1.43 83.3 38.942 113.939 72.78 30.438 18.037 51.263 60.906 65.885 82.205 1.756-52.335 20.63 27.433 14.854 51.259-5.616 7.926 18.028 20.032 16.746 11.416m-28-23.85c5.43-29.547-13.476-44.076-6.316-5.745-3.767 12.948 10.325 30.066 6.317 5.746m-13.307-10.174c-12.056-55.662-64.79-92.139-112.092-117.447-52.589-25.987-113.403-11.06-169.892-15.012-43.996.67-88.632-4.45-130.824 11.444-27.36 17.898-109.737 14.906-100.06 54.742-34.743 21.361 61.423-21.64 79.176-7.694 53.585 7.36 107.95 8.63 161.54 1.33 48.796 7.928 99.113 8.825 149.475 11.107 33.751 18.493 76.51 22.265 102.985 53.423 7.791-2.397 23.9 35.071 19.692 8.107m-565.5-30.397c-19.04 13.1-19.965 24.231 0 0m45.738-37.405c3.51-15.64-11.98 15.365 0 0m-8.93-2.3c-3.47-1.724-1.65 4.668 0 0m-26.015-119.691c-4.276-2.552-.739 8.796 0 0m359.195-104.114c-29.828-15.074-62.658.391-11.691 1.76 1.586.468 31.174 7.302 11.69-1.76m-253.18 1193.733c-27.986 4.446-45.94-39.867-14.367-11.258 12.195 2.782 47.857 10.989 14.367 11.258m14.908-9.793c-35.934-2.68-32.99-66.336-12.127-14.829 8.146 7.596 42.477 13.845 12.127 14.83m12.436-7.059c-28.71.58-48.388-64.024-16.925-20.342 2.489 11.575 50.576 18.132 16.925 20.342" style="fill:#000"/><path d="M521.293 1345.673c-37.49-2.288-82.268-19.527-104.327-40.164-8.178-7.65-19.432-15.773-29.596-21.36-11.764-6.466-32.708-14.498-47.592-18.252-6.823-1.72-13.818-6.121-20.777-13.07-7.087-7.078-12.095-14.435-21.063-30.943-8.795-16.19-15.288-26.287-21.893-34.042-3.984-4.679-4.62-6.01-5.572-11.685-1.478-8.794-4.294-16.868-13.207-37.862-10.936-25.761-14.103-36.126-15.91-52.068l-.502-4.43 2.086 1.959c4.278 4.019 6.242 1.952 6.142-6.462-.062-5.218-1.766-10.678-5.211-16.7-2.102-3.676-4.744-12.72-4.74-16.225.001-.741 1.357 2.112 3.013 6.34 3.715 9.488 8.1 18.337 10.999 22.197 2.61 3.477 5.959 4.042 5.322.9-.226-1.113-.635-3.696-.91-5.742-.276-2.045-1.939-8.666-3.696-14.712s-3.026-11.162-2.82-11.369c.207-.206 1.305 1.965 2.44 4.826 4.46 11.23 8.959 19.132 10.894 19.132 3.12 0-3.103-28.096-9.944-44.892-2.667-6.547-2.92-8.638-.787-6.505.585.585 1.848 1.063 2.807 1.063 1.559 0 1.688-.466 1.222-4.402-.287-2.422-3.782-12.941-7.766-23.377s-7.243-19.424-7.243-19.975c0-1.823 2.89 1.288 6.788 7.308 2.08 3.213 8.137 14.134 13.459 24.268 9.66 18.398 15.773 29.049 20.158 35.126 3.253 4.508 7.021 8.915 7.623 8.915 1.038 0 .46-7.926-.922-12.644-2.476-8.457-9.608-22.086-24.428-46.686-7.895-13.106-16.225-27.552-18.51-32.102-5.024-10.004-13.358-30.651-12.911-31.99.418-1.254 5.424 7.528 9.576 16.8 1.8 4.017 4.458 9.124 5.908 11.349s8.544 15.61 15.765 29.745c7.22 14.135 15.755 29.707 18.965 34.604 13.512 20.612 27.35 30.536 45.116 32.357 3.295.337 5.99.362 5.99.055s-2.123-1.625-4.719-2.928c-10.77-5.409-23.713-16.994-34.068-30.495-6.104-7.958-16.72-24.514-23.614-36.824-11.59-20.695-34.67-68.415-34.67-71.682 0-1.681 3.49 3.801 19.23 30.205 8 13.42 15.07 26.183 15.712 28.363 3.177 10.78 17.385 25.006 37.947 37.998 18.548 11.719 23.19 9.725 7.868-3.38-24.778-21.191-53.613-61.153-71.546-99.157-5.4-11.445-13.705-31.257-13.705-32.698 0-1.61 5.934 6.789 21.247 30.071 22.426 34.098 32.124 46.182 45.743 56.999 4.296 3.412 10.9 8.972 14.677 12.355 16.989 15.222 39.259 26.38 62.422 31.276 12.702 2.685 31.296 2.669 41.455-.036 9.5-2.53 18.612-6.807 25.396-11.92 5.02-3.784 5.916-4.145 9.196-3.706 4.926.661 8.362-.95 12.983-6.09 6.419-7.14 11.088-17.174 22.56-48.482 5.846-15.956 12.987-31.612 14.103-30.922 1.413.873.785 20.368-.988 30.664-2.486 14.438-4.647 21.524-13.513 44.3-13.398 34.421-16.198 44.66-16.198 59.237 0 14.79 5.43 26.46 16.553 35.574l3.902 3.198 8.423-2.826c8.04-2.698 8.893-2.804 18.759-2.333 5.716.272 15.56 1.57 22.02 2.902 8.444 1.74 14.553 2.43 22.022 2.482 9.383.067 10.957-.168 17.077-2.553 6.676-2.6 6.924-2.626 25.616-2.654 17.87-.027 19.127-.142 23.6-2.15 5.36-2.407 9.565-6.736 12.093-12.452 1.58-3.573 1.645-4.729.754-13.527-2.48-24.469-8.567-43.438-27.895-86.919-13.013-29.276-22.526-53.736-21.354-54.908.23-.23 4.355 7.987 9.17 18.258 20.317 43.343 32.926 60.23 52.617 70.465 5.75 2.988 6.022 3.036 17.078 2.985 17.372-.08 31.634-3.661 49.884-12.527 29.883-14.518 56.52-39.486 81.646-76.53 11.456-16.889 16.809-26.395 30.294-53.802 7.104-14.438 14.25-27.491 18.7-34.155 7.906-11.843 13.975-19.227 14.989-18.237 1.288 1.256.464 19.702-1.405 31.442-1.047 6.579-4.731 25.309-8.186 41.622-5.819 27.477-9.914 48.563-10.91 56.176-.502 3.836.64 7.19 2.449 7.19 3.45 0 5.762-9.302 13.072-52.58 2.004-11.864 4.422-24.807 5.373-28.762s2.22-10.426 2.817-14.38c2.065-13.668 2.64-10.98 2.212 10.335-.562 27.993-3.285 48.624-6.893 52.231-1.208 1.21-2.513 5.844-4.462 15.86-4.178 21.457-6.915 29.773-12.065 36.65l-2.042 2.727 1.628 7.61c4.287 20.032 5.957 46.496 4.508 71.425-1.219 20.97-2.701 34.734-7.345 68.202-2.863 20.632-4.122 27.27-6.14 32.357-1.396 3.52-5.86 15.905-9.918 27.522-9.666 27.666-12.544 34.964-19.316 48.985-7.708 15.961-15.338 27.093-25.594 37.341-9.262 9.256-15.617 13.804-28.526 20.415-13.501 6.913-12.6 4.818 6.73-15.643 14.774-15.64 22.794-24.74 22.265-25.269-.194-.194-2.108 1.553-4.254 3.882-5.668 6.152-22.388 20.858-47.494 41.77-27.43 22.85-34.728 29.316-47.18 41.796-5.441 5.455-12.927 11.926-16.635 14.381-19.585 12.968-43.035 20.955-69.658 23.725-7.702.802-68.382 1.002-80.443.266zm-61.606-39.803c3.545-3.79 4.08-4.871 4.062-8.223-.033-6.419-5.165-10.6-13.013-10.6-12.23 0-15.461 10.172-8.652 27.24l1.006 2.523 6.258-3.288c3.485-1.832 8.066-5.222 10.34-7.652m71.493-59.792c5.19-.219 13.28-.528 17.976-.687 16.584-.562 45.046-4.068 59.836-7.371 22.328-4.987 40.46-12.758 54.564-23.383 7.693-5.796 18.624-17.272 18.624-19.553 0-2.33 7.836-8.711 14.38-11.71 3.708-1.698 11.37-4.576 17.028-6.394 11.922-3.831 13.532-4.583 13.532-6.319 0-2.71-9.121-3.133-20.672-.956-6.573 1.239-10.92 1.486-18.875 1.074-13.274-.688-24.253-3.252-49.884-11.65-21.93-7.186-32.158-10.021-39.685-11.002-4.177-.544-4.736-.408-5.692 1.378-1.739 3.25-7.315 9.013-8.719 9.013-.718 0-4.347 1.266-8.063 2.813l-6.758 2.813-10.167-1.914c-5.592-1.053-12.588-1.914-15.547-1.914-7.275 0-14.26 2.335-16.05 5.366-.77 1.305-3.267 3.361-5.546 4.57s-6.44 4.322-9.245 6.918c-7.255 6.716-14.208 9.058-51.209 17.249-9.243 2.046-12.519 3.69-12.519 6.284 0 2.27 1.597 3.31 6.15 4.005 8.365 1.277 14.788 6.257 26.212 20.322 14.596 17.97 22.804 23.038 35.498 21.92 2.966-.261 9.64-.654 14.83-.872m159.105-115.085c7.962-3.185 8.46-14.047.936-20.378-7.18-6.041-12.716-.131-14.377 15.347-.333 3.104-.414 5.834-.181 6.067 1.005 1.005 10.283.3 13.622-1.036m-154.284-20.36c3.591-2.627 3.57-15.592-.037-22.866-3.789-7.64-6.012-3.617-6.069 10.98-.023 5.932.28 11.292.674 11.91.924 1.447 3.434 1.436 5.432-.024m55.018-4.731c4.703-8.025 3.624-21.616-2.009-25.307-1.948-1.277-2.37-1.292-3.536-.125-2.4 2.4-2.499 7.65-.354 18.79 1.136 5.897 2.39 10.722 2.787 10.722s1.797-1.836 3.112-4.08m-253.982-32.82c0-1.116-1.822-2.533-5.737-4.46-6.559-3.229-13.483-4.625-12.69-2.558.556 1.448 2.374 2.694 9.767 6.69 5.513 2.981 8.66 3.1 8.66.329" style="fill:#ffd5d5;stroke-width:.89881"/><path d="M486.767 870.5c-2.797-3.185-5.957-6.068-7.024-6.407-1.066-.338-4.5-2.184-7.633-4.1-26.437-16.182-63.716-29.647-103.044-37.22-10.416-2.006-12.808-2.215-14.566-1.274-4.192 2.243-36.548-3.215-45.789-7.724-2.675-1.305-3.563-2.266-3.508-3.795.04-1.126-.161-1.932-.45-1.791-.287.14-2.97 1.533-5.963 3.094-13.042 6.804-24.626 7.488-35.862 2.117-12.276-5.868-25.27-21.278-37.34-44.28l-5.535-10.55 3.814-6.977c9.037-16.53 20.356-31.447 44.94-59.222 34.586-39.075 48.13-59.134 51.509-76.284 4.317-21.915 19.51-35.217 47.28-41.398 11.51-2.561 26.511-4.004 40.896-3.933 11.244.056 15.022.375 40.751 3.443 39.32 4.687 81.094 4.392 128.513-.91l16.467-1.84 9.15 2.286c22.577 5.643 34.353 6.712 85.445 7.762l42.142.866 10.439 5.307c5.741 2.92 20.348 9.231 32.46 14.028 31.721 12.562 46.079 20.38 58.83 32.033 7.377 6.743 32.086 39.249 36.897 48.54 5.35 10.335 7.059 17.805 6.463 28.273-.587 10.324-3.529 19.032-9.04 26.755-13.04 18.274-43.349 34.853-83.056 45.432-18.206 4.85-31.836 9.335-61.776 20.327-30.018 11.02-40.251 14.48-55.565 18.794-12.498 3.52-16.388 5.273-32.077 14.448-21.23 12.415-30.04 15.758-36.763 13.948-4.053-1.091-8.653-5.97-9.571-10.151-.64-2.917-.16-2.95-9.685.646-3.38 1.275-11.873 3.345-18.875 4.6-22.814 4.088-31.093 5.867-37.6 8.08-11.41 3.882-17.873 8.522-22.94 16.475-5.21 8.178-5.664 8.2-12.334.602m-10.377-28.852c1.181-1.258 3.577-4.676 5.324-7.596 1.748-2.92 5.096-8.06 7.442-11.42 13.431-19.242 9.416-34.483-11.905-45.192-14.374-7.22-33.3-12.747-52.13-15.225-39.72-5.229-65.807-4.726-89.784 1.73-9.445 2.543-25.48 10.713-32.18 16.396a1505 1505 0 0 1-12.091 10.115c-10.037 8.295-15.646 13.733-14.917 14.462.364.364 7.437-1.878 15.72-4.98 8.282-3.103 18.82-6.6 23.42-7.77 8.169-2.079 8.848-2.109 29.212-1.302 11.466.455 25.284 1.488 30.705 2.296 34.449 5.136 64.52 18.985 84.88 39.09 3.756 3.71 7.556 7.855 8.444 9.213 2.044 3.126 5.03 3.195 7.86.183m133.365-9.622c.725-1.113 2.17-4.247 3.21-6.966 1.75-4.573 2.48-5.327 9.713-10.05 50.342-32.874 112.164-53.232 179.726-59.182 11.255-.991 12.8-.823 12.8 1.393 0 2.289 5.44 7.619 7.775 7.619 4.377 0 8.428-7.418 9.85-18.037.54-4.03.47-4.177-3.819-7.955-9.914-8.735-23.738-14.86-39.872-17.664-11.738-2.04-37.304-1.363-52.993 1.404-21.422 3.78-53.023 12.346-73.29 19.869-46.722 17.343-68.013 40.839-64.217 70.864.86 6.796 3.9 17.487 5.575 19.603 1.392 1.76 4.094 1.321 5.542-.898m-257.438-14.157c0-1.136-1.837-1.136-3.596 0-1.05.68-.802.875 1.124.885 1.36.008 2.472-.39 2.472-.885M678.387 976.962c-22.334-3.923-40.535-28.643-44.819-60.87-.797-5.994-1.641-8.757-3.511-11.488-10.679-15.59-11.267-27.025-1.875-36.418 8.405-8.405 29.954-16.68 50.31-19.321 16.847-2.186 29.085-4.563 65.256-12.677 48.16-10.803 56.885-12.237 75.229-12.369 10.295-.074 15.335.22 16.05.932.789.788-1.368 5.973-8.906 21.404-12.134 24.838-16.636 32.868-28.482 50.81-23.693 35.881-51.802 60.758-81.754 72.353-17.7 6.852-28.95 9.145-37.498 7.644m27.003-75.115c8.506-2.846 16.06-7.137 31.168-17.706 18.604-13.015 22.92-17.364 22.92-23.096 0-7.564-8.626-10.893-28.265-10.908-24.868-.02-48.943 6.652-59.14 16.387-2.104 2.009-5.443 4.472-7.42 5.474-18.967 9.617-19.915 21.429-2.247 28.002 7.274 2.706 15.553 4.01 25.907 4.084 8.66.06 11.207-.273 17.077-2.237M394.56 988.15c-5.684-1.182-14.785-2.77-20.223-3.529s-12.084-2.018-14.77-2.797c-12.803-3.714-27.48-13.728-38.298-26.132-3.228-3.701-11.854-14.688-19.167-24.415s-15.287-19.968-17.719-22.758c-8.862-10.173-15.27-23.465-14.519-30.124.572-5.073 2.553-7.948 7.061-10.248 10.715-5.466 31.555-5.73 68.201-.864 3.708.493 13.196 1.503 21.085 2.246 26.782 2.522 45.79 6.792 80.66 18.123l21.302 6.922 1.806 4.197c3.93 9.135 4.495 15.858 2.253 26.769-4.508 21.933-24.097 49.512-44.242 62.288-3.905 2.476-4.618 2.609-13.607 2.54-6.264-.047-12.997-.8-19.822-2.219m-8.453-55.282c2.92-1.016 8.279-2.63 11.91-3.588 8.426-2.223 16.749-6.656 19.658-10.47 8.79-11.525-3.284-28.813-24.374-34.902-3.817-1.102-7.493-1.427-13.106-1.158-9.13.436-15.342 2.98-21.143 8.657-2.278 2.23-5.396 4.09-8.533 5.094-6.85 2.192-15.055 6.635-17.135 9.28-1.142 1.451-1.74 3.618-1.74 6.3 0 3.714.4 4.475 4.369 8.3 11.808 11.381 35.965 17.403 50.094 12.487M498.047 1057.52c-1.662-.602-4.6-2.42-6.53-4.038-6.33-5.316-9.022-12.989-8.996-25.653.024-11.389 1.956-19.669 9.606-41.17 8.592-24.144 13.362-40.391 22.498-76.62 8.413-33.366 6.927-30.489 18.802-36.401 24.369-12.134 41.202-3.558 54.607 27.82 4.138 9.686 10.152 30.931 11.46 40.48 1.506 11.004 5.253 21.294 15.615 42.888 14.421 30.054 17.747 41.596 15.845 55.002-1.123 7.919-4.076 15.827-6.56 17.566-3.248 2.276-7.662 1.723-10.5-1.314-3.11-3.33-4.335-8.095-5.917-23.03-1.47-13.886-1.734-14.746-4.513-14.746-1.732 0-3.561 2.182-9.882 11.783-8.516 12.937-17.498 22.775-23.753 26.019-5.936 3.077-12.539 2.901-18.748-.501-6.398-3.506-15.626-13.51-17.144-18.585-4.773-15.96-15.03-22.563-23.183-14.926-5.48 5.135-6.37 20.011-1.857 31.039l2.3 5.617-5.064-.068c-2.785-.038-6.424-.56-8.086-1.162z" style="fill:#ffd5d5;stroke-width:.89881"/><path d="M668.957 1352.68c3.731-7.218 5.312-15.274 8.078-22.87 1.227-2.933 1.857-3.554 2.722-4.41-3.41-.67-6.828-1.304-10.23-2.014-.095-.02-.14-.162-.237-.169-.271-.019-2.18 3.718-2.326 3.99-4.187 6.809-6.854 14.387-8.367 22.225-.55 2.85-.83 5.746-1.244 8.618-.621 8.28-1.009 16.59-.887 24.895.031 2.151.219 4.297.258 6.448.055 3.055-.09 7.555-.17 10.654-.046 1.013 14.28 1.666 14.326.653.48-5.84 1.039-11.707 1.305-17.56.36-7.868.279-15.763 1.057-23.612.086-1.165.91-12.688 1.148-14.456.637-4.73 2.6-8.957 4.588-13.235 1.171-2.811 2.577-5.873 2.495-8.997-.02-.716.338-1.82-.31-2.126-3.287-1.55-6.994-1.98-10.492-2.969.15-.164.656-.585.453-.493-2.617 1.194-5.36 5.782-6.784 8.021-.578 1.183-1.22 2.337-1.733 3.55-2.81 6.65-4.188 13.82-5.792 20.823-.214.859 11.928 3.892 12.142 3.033M855.416 1114.035c.629.728 1.32 1.407 1.885 2.185.697.958 1.273 1.998 1.893 3.007 2.337 3.808 3.278 5.312 5.282 9.42.74 1.516 3.859 8.584 4.59 10.232 2.654 5.704 5.087 11.712 10.373 15.528 3.645 2.632 5.068 2.86 9.167 4.39l4.465 1.151c.884.426 6.907-12.065 6.024-12.491l-3.788-.831c-1.192-.27-2.38-.557-3.576-.81-.828-.174-1.696-.19-2.494-.47-4.26-1.49-4.59-7.8-6.33-11.122-3.698-9.899-7.685-18.973-15.556-26.363-.619-.581-1.387-.98-2.08-1.47-.54-.697-10.395 6.947-9.855 7.644" style="fill:#000"/><circle cx="900.607" cy="1163.059" r=".389" style="fill:#000;stroke:#000"/><path d="M913.136 1173.25c7.686-4.338 12.092-12.443 15.863-20.106 4.793-9.74 6.101-14.27 9.795-24.508 2.76-9.561 4.419-13.647 5.507-23.27.91-8.037.44-15.498-6.39-20.977-1.684-1.35-3.905-1.843-5.857-2.765-1.074-.595-7.736-1.066-8.38-3.005-.228-.684 2.3-5.579 2.379-5.739.747-1.247 1.486-2.5 2.243-3.741 2.714-4.45 2.588-3.978 5.047-8.568 5.1-9.517-.886 1.207 3.522-6.619.43-.852-11.62-6.925-12.049-6.073-4.519 6.7-8.976 13.523-12.205 20.956-1.289 4.32-2.64 7.135-1.917 11.81 1.004 6.49 4.866 10.576 10.961 12.543 1.233.397 2.56.388 3.841.583.679-.136 1.369-.226 2.037-.408.424-.116.966-.835 1.228-.482.497.672.37 1.665.263 2.493-.298 2.283-.885 4.523-1.469 6.75-1.264 4.82-5.177 17.17-6.485 21.372-5.338 15.818-2.909 8.416-7.856 23.857-1.25 3.898-2.537 9.2-4.804 12.957-.725 1.202-2.412 2.627-3.478 3.596-.66.58 7.544 9.925 8.204 9.344" style="fill:#000"/><path d="M932.635 1097.476c.199.447.077.203.384.724.044.078 1.147-.544 1.103-.622-.37-.443-.195-.235-.521-.622-.037-.068-1.003.452-.966.52M656.074 908.53c.384.67.773 1.337 1.151 2.01 1.933 3.432 2.666 4.66 4.362 8.527 6.889 15.707-1.457-2.121 6.592 15.65 1.39 3.068 2.884 6.087 4.326 9.13 6.23 12.555 12.997 24.922 21.661 35.992 5.274 6.738 6.826 7.938 12.771 13.882 8.301 6.6 4.107 3.763 12.474 8.666.478.427 6.504-6.336 6.026-6.762-6.77-4.747-3.3-2.077-10.32-8.127-1.916-2.01-3.937-3.926-5.75-6.03-1.978-2.298-3.798-4.73-5.61-7.162-3.25-4.363-8.667-12.175-11.473-16.796-2.995-4.933-6.966-12.692-9.643-17.793-.836-1.61-7.987-15.402-8.98-17.22-3.488-6.38-7.085-12.951-12.582-17.849-.275-.354-5.28 3.529-5.005 3.883M406.257 933.207c-.686.739-1.407 1.447-2.059 2.216-1.457 1.72-3.502 4.543-4.868 6.306-2.781 3.591-5.265 7.019-7.71 10.854-3.172 5.149-5.178 10.865-7.87 16.255-2.925 5.442.136-.199-3.01 5.423-.664 1.187-1.255 2.415-1.967 3.575-2.918 4.754-6.423 9.177-9.783 13.617-6.166 7.68-13.605 14.247-21.228 20.445-3.138 2.837-2.9 3.607-3.667 7.836.033.844 11.973.381 11.94-.463-1.062 3.364-1.8 3.666.818 2.203 9.68-5.86 18.419-13.454 25.104-22.61 3.144-4.692 4.296-6.173 6.96-11.035 2.545-4.643 4.563-9.57 6.929-14.301 2.223-4.988 4.405-10 7.789-14.35 8.548-11.776-3.845 5.388 4.872-6.995 2.902-4.122 6.06-8.093 8.333-12.624.45-.749-10.133-7.1-10.583-6.352M559.953 760.608c5.428-6.917 10.935-13.786 16.119-20.89 2.208-3.026 4.304-6.132 6.456-9.197.605-1.071-14.541-9.628-15.146-8.557-7.34 10.451-14.828 21.05-19.053 33.227-.383.822 11.24 6.24 11.624 5.417" style="fill:#000"/><path d="M494.617 733.445c6.766 5.879 13.687 11.567 20.43 17.48.696.833 12.488-9.027 11.79-9.86-1.876-1.79-3.665-3.675-5.629-5.367-5.282-4.553-11.082-8.531-17.41-11.482-.652-.65-9.834 8.58-9.181 9.23" style="fill:#ffd5d5;fill-opacity:1"/><path d="M632.971 1561.38c-10.358-1.201-24.511-4.063-43.926-8.88-9.882-2.453-22.502-5.444-28.045-6.647-9.66-2.098-10.36-2.134-16.963-.882-19.029 3.61-32.28 3.69-74.211.446-24.485-1.894-47.697-2.203-59.225-.788-4.143.509-11.933 1.997-17.31 3.307-7.772 1.893-11.968 2.387-20.446 2.409-12.324.03-15-.52-16.945-3.488-2.798-4.271 1.297-10.254 22.24-32.487 13.191-14.005 21.485-24.684 25.494-32.828 2.537-5.152 2.925-6.956 3.41-15.836.657-12.017 1.675-13.9 6.104-11.283 6.018 3.555 20.487 25.07 20.57 30.586.01.72-2.481-1.117-5.537-4.08-7.38-7.156-10.257-9.228-12.815-9.228-7.074 0 .014 14.862 9.751 20.446 4.912 2.817 11.494 3.557 16.09 1.81 1.9-.723 3.967-.026 13.17 4.44 6.004 2.913 11.417 5.299 12.028 5.301 3.202.012-.406-4.509-15.215-19.063-16.028-15.753-25.681-26.845-28.941-33.257-1.78-3.5-7.541-22.483-8.468-27.902-.426-2.492-.266-3.334.634-3.334.662 0 7.064 6.15 14.226 13.667l13.022 13.666 8.93 3.28c10.079 3.702 15.815 4.97 14.758 3.26-.364-.59-6.327-5.588-13.25-11.105-20.65-16.46-31.695-29.747-31.698-38.133 0-1.362-.646-3.462-1.436-4.667s-1.184-2.191-.877-2.191 4.853 3.527 10.102 7.839c10.558 8.67 26.642 19.96 33.675 23.638 5.107 2.67 9.925 3.667 11.763 2.434 1.985-1.331.452-2.51-4.07-3.13-2.326-.318-7.837-2.336-12.248-4.484-16.356-7.965-33.093-28.534-36.506-44.86-.676-3.236-2.043-8.245-3.038-11.133-2.113-6.13-2.413-12.084-.61-12.084 1.816 0 7.89 4.651 19.69 15.08 5.867 5.185 12.596 10.753 14.954 12.372 5.504 3.782 20.24 10.772 22.706 10.772 4.923 0 1.519-3.495-24.696-25.355-19.388-16.168-24.678-21.31-29.495-28.665-7.206-11.002-7.592-15.343-1.361-15.296 6.064.046 21.807 8.267 33.429 17.457 6.604 5.223 7.747 5.772 17.104 8.225 39.632 10.388 81.691 11.226 139.812 2.785 6.356-.923 15.13-1.918 19.497-2.211 9.05-.607 16.227-2.278 23.38-5.441 2.725-1.205 5.086-2.06 5.247-1.898.161.16-.06 1.525-.493 3.032-.451 1.574-.453 3.073-.005 3.521.449.449.424 4.743-.058 10.09-.461 5.121-.852 16.168-.868 24.55-.024 12.13.219 15.334 1.192 15.708.733.28 1.466 2.542 1.832 5.65 4.02 34.14 14.831 69.839 30.891 102.01 6.5 13.02 10.156 18.898 15.802 25.401 9.328 10.745 12.163 15.412 10.751 17.696-1.224 1.982-7.61 2.77-15.758 1.943-7.405-.75-8.136-.663-14.053 1.671-15.977 6.303-34.273 8.398-53.687 6.145m-212.58-22.853c4.779-.72 5.736-2.84 2.046-4.534-1.363-.626-7.67-2.487-14.015-4.136s-12.546-3.806-13.779-4.793c-8.923-7.146-13.78-9.377-14.774-6.787-.989 2.576.536 5.951 4.696 10.399 4.703 5.028 8.629 7.655 13.903 9.304 3.979 1.244 15.402 1.53 21.923.547m16.612-10.561c2.186-.84 1.2-2.568-2.6-4.56l-3.778-1.981 3.045.481c4.271.676 13.98-.443 15.843-1.826 1.474-1.094 1.465-1.225-.172-2.437-.95-.705-5.717-2.96-10.592-5.012-11.2-4.715-14.124-6.72-17.683-12.132-4.387-6.668-12.614-14.805-14.567-14.405-6.039 1.236 5.812 23.047 16.879 31.063 4.635 3.358 2.584 3.245-3.908-.216-4.937-2.631-5.36-3.135-8.918-10.621-4.009-8.436-7.64-12.758-10.285-12.236-1.412.278-1.64 1.195-1.627 6.527.013 5.013.493 7.14 2.503 11.092 4.392 8.634 11.699 14.818 19.913 16.851 3.15.78 13.363.403 15.947-.588" style="fill:#ffd5d5;fill-opacity:1;stroke-width:.888935"/><path d="M525.06 1238.732c-18.243-1.525-27.308-5.282-36.615-15.175-10.24-10.885-11.738-17.307-5.084-21.791 8.744-5.893 31.489-4.78 53.048 2.595 11.07 3.787 24.255 4.38 35.39 1.59 9.4-2.355 14.016-4.208 36.614-14.696 26.917-12.493 40.773-16.223 55.845-15.032 4.803.38 8.247.048 13.936-1.344 13.68-3.346 18.402-2.206 15.572 3.76-2.752 5.799-26.624 27.957-38.24 35.495-22.3 14.47-54.315 22.184-100.45 24.204-6.355.278-13.756.644-16.445.813s-8.796-.02-13.57-.42" style="fill:navy;fill-opacity:1;stroke-width:.888935"/><path d="M554.187 1199.194c-10.683-3.338-15.415-3.7-27.908-2.133-12.743 1.597-20.538-1.15-20.538-7.238 0-4.023 2.308-7.284 6.868-9.703 2.213-1.174 6.544-4.418 9.624-7.21 5.05-4.576 6.27-5.224 12.412-6.59 8.442-1.879 14.924-.886 20.72 3.174l3.845 2.693 5.203-3.474c3.293-2.199 6.768-3.709 9.468-4.114 3.85-.577 5.926-1.466 13.536-5.795 3.516-2 22.858-1.8 29.885.31 7.267 2.18 15.039 5.644 20.842 9.288l4.841 3.04-12.397 4.184c-19.209 6.484-37.007 14.491-50.742 22.83-8.145 4.943-11.859 5.05-25.659.738" style="fill:navy;fill-opacity:1;stroke-width:.888935"/><path d="M470.16 828.485c-11.848-12.115-33.145-25.482-52.021-32.652-33.125-12.581-75.173-15.045-113.374-6.644-2.246.494-1.76-2.729.86-5.714 6.898-7.855 34.991-16.498 59.501-18.304 9.33-.687 15.32-.376 40.61 2.109 59.053 5.804 85.758 21.838 79.174 47.539-1.436 5.605-7.481 17.84-9.078 18.373-.443.147-2.995-1.97-5.672-4.707M609.73 816.958c-1.244-3.272-1.2-21.41.065-26.626 4.044-16.674 18.672-30.675 41.29-39.518 12.711-4.97 24.002-8.07 53.333-14.642 29.915-6.704 29.99-6.724 36.676-9.995 4.704-2.302 5.82-2.479 14.873-2.36 11.27.148 22.048 2.195 36.996 7.025 17.843 5.766 30.441 12.862 27.7 15.603-.54.54-5.779 1.315-11.643 1.722-35.217 2.447-88.026 15.201-125.231 30.245-27.455 11.102-63.68 31.047-69.44 38.234-2.538 3.166-3.509 3.232-4.619.312M687.528 895.518c-8.75-3.248-12.11-10.676-9.208-20.362 1.337-4.464 5.674-9.624 9.397-11.179 2.621-1.095 3.358-1.074 5.991.176 3.207 1.522 6.655 5.89 8.89 11.266 2.059 4.948 1.777 5.637-3.177 7.768-6.362 2.737-7.098 1.662-4.01-5.857 2.915-7.097 2.283-8.353-2.877-5.72-2.558 1.304-4.45 3.256-6.32 6.517-3.324 5.794-3.51 9.274-.56 10.396 2.374.902 2.643.86 15.463-2.384 10.608-2.685 12.228-2.23 9.247 2.592-3.836 6.208-5.862 7.358-13.348 7.577-3.752.11-8.021-.246-9.488-.79M367.204 919.372c-2.696-2.872-5.43-9.49-5.452-13.199-.046-7.735 3.605-10.71 12.78-10.412 3.08.1 6.06-.104 6.623-.452s1.023-.406 1.023-.13c0 .277-2.963 6.266-6.585 13.31l-6.585 12.805zM377.682 926.857c-1.25-.395-3.192-1.209-4.314-1.81-1.983-1.06-1.92-1.147 2.275-3.15 2.372-1.132 6.503-3.656 9.179-5.609l4.865-3.55.024-7.62c.02-6.72.262-7.858 2.042-9.639 1.89-1.89 2.173-1.933 4.432-.665 4.185 2.35 6.555 7.598 6.222 13.784-.373 6.946-2.546 10.013-10.306 14.545-6.394 3.735-10.777 4.864-14.42 3.714" style="fill:#501616;fill-opacity:1;stroke-width:.888935"/><path d="M105.984 1401.681c-11.854-22.786-9.356-41.513 10.084-75.592 9.459-16.582 17.96-34.086 19.641-40.447 1.868-7.06 1.88-23.675.024-32.446-2.024-9.566-5.064-18.438-13.404-39.113-4.043-10.023-8.348-21.423-9.568-25.335-6.548-21-5.094-39.625 4.28-54.812 5.992-9.707 11.027-28.308 12.836-47.415 1.892-19.998 1.021-35.734-4.404-79.56-4.988-40.294-4.908-38.785-2.754-51.558 6.96-41.283 8.906-97.899 5.344-155.564-1.218-19.712-.669-32.253 2.22-50.67 3.814-24.33 4.172-27.68 4.977-46.668 1.617-38.135 6.951-55.284 36.636-117.784 18.355-38.645 19.776-42.426 29.919-79.56 6.124-22.422 10.373-35.14 15.196-45.476 10.474-22.451 26.901-38.107 46.512-44.329 18.91-5.999 30.306.833 33.44 20.048.516 3.165 1.34 14.581 1.833 25.37 1.258 27.577 3.437 35.469 12.346 44.712 5.118 5.31 6.77 9.399 6.017 14.893-.58 4.227-3.923 11.512-7.424 16.176-2.66 3.543-1.985 4.679 1.57 2.639 2.513-1.443 2.75-1.412 7.272.95 6.674 3.486 8.887 7.547 8.403 15.415-.818 13.285-15.86 35.51-32.429 47.915-2.79 2.089-8.173 6.815-11.962 10.502s-6.889 6.402-6.889 6.032 4.78-7.023 10.623-14.783c12.047-16 15.377-21.003 19.94-29.958 3.557-6.979 4.142-10.411 1.694-9.94-2.413.465-7.956 8.374-12.922 18.439-3.143 6.37-8.715 14.846-17.826 27.113-26.161 35.224-33.538 48.131-24.564 42.981 1.435-.823 2.61-1.292 2.61-1.042s-5.015 7.228-11.144 15.505c-14.168 19.136-19.653 27.347-24.428 36.573-2.103 4.063-4.224 7.65-4.714 7.972s-.953 1.322-1.028 2.222c-.252 2.988-3.276 11.336-6.229 17.194-10.496 20.824-13.852 46.185-9.82 74.226 1.759 12.234 8.225 38.459 14.173 57.484 3.956 12.653 4.076 13.372 4.07 24.446-.004 6.274-.578 19.209-1.276 28.743s-1.513 21.934-1.811 27.557c-.808 15.26 1.152 19.734 5.187 11.837 2.043-4.001 2.22-4.136 2.705-2.059 2.22 9.518 3.556 28.772 4.962 71.56 1.22 37.102 2.96 50.136 8.803 65.956 4.855 13.142 5.544 26.536 2.208 42.938-.745 3.667-3.33 14.067-5.745 23.112s-5.005 21.246-5.758 27.113c-.752 5.867-1.999 14.942-2.77 20.167-1.678 11.35-1.203 36.369.983 51.837 4.396 31.109 5.342 52.262 2.866 64.133-2.303 11.048-5.27 16.863-12.377 24.255-3.557 3.7-7.524 8.02-8.815 9.6-2.837 3.472-11.942 9.123-14.703 9.126-7.527.01-21.566-42.885-21.566-65.89 0-6.925.078-7.164 8.49-25.813 29.061-64.436 41.29-110.117 41.29-154.24 0-8.299-.325-12.735-.933-12.735-1.722 0-5.713 2.486-8.08 5.032-6.687 7.19-9.947 19.687-14.97 57.39-4.082 30.626-7.035 44.199-11.56 53.134-.868 1.714-4.01 12.317-6.98 23.562-15.452 58.486-27.542 93.747-42.67 124.451-9.525 19.334-21.396 39.558-23.218 39.558-.402 0-2.387-3.186-4.413-7.079m33.258-66.699c4.014-2.48 7.096-6.241 10.274-12.537 5.678-11.249 8.156-26.083 10.19-61.004.746-12.821 1.547-24.422 1.78-25.779.728-4.24 3.034-34.384 4.406-57.58 3.351-56.686 3.782-133.061 1.373-243.57-1.452-66.562-1.314-88.732.766-123.561 2.198-36.813 3.082-46.913 5.56-63.559 3.629-24.373 8.377-40.642 17.642-60.448 7.851-16.781 11.514-25.317 26.706-62.225 16.035-38.958 22.25-52.871 31.77-71.115 13.861-26.566 18.667-36.957 17.59-38.03-.984-.98-3.136 2.092-14.393 20.54-5.721 9.375-12.069 19.659-14.106 22.852-2.383 3.736-4.278 8.175-5.313 12.445-4.627 19.098-11.79 36.6-31.818 77.754-21.509 44.195-27.29 59.41-32.123 84.53-9.42 48.964-12.883 115.384-10.31 197.707 2.363 75.585 2.972 131.024 1.905 173.586-1.07 42.649-1.472 52.023-4.056 94.428-.746 12.223-1.774 30.79-2.285 41.26-2.317 47.401-9.868 81.101-20.911 93.325-1.697 1.878-3.085 3.639-3.085 3.912 0 .86 5.265-.97 8.438-2.931m34.558-111.41c1.337-2.738 1.792-6.55 2.331-19.557.37-8.885 1.084-17.18 1.588-18.434.504-1.253 1.361-11.054 1.904-21.779 1.232-24.318 2.69-41.877 7.636-91.949 7.498-75.906 8.57-91.56 8.525-124.45-.018-13.446.55-34.047 1.264-45.78 2.658-43.731 1.177-62.138-5.484-68.165-1.6-1.449-1.649.144-1.738 57.783-.125 81.218-2.16 119.954-8.832 168.167-1.666 12.036-12.855 156.838-12.855 166.36 0 3.136 3.771 1.673 5.661-2.196m-9.696-505.501c3.17-1.206 3.874-3.497 1.633-5.312-4.455-3.607-5.714-37.996-2.13-58.17 3.26-18.347 9.985-35.74 19.061-49.3 2.86-4.273 5.267-9.157 6.234-12.654 2.562-9.257 9.057-23.748 15.32-34.178 7.167-11.936 14.058-21.611 30.996-43.522 15.213-19.68 26.924-36.918 32.776-48.249 4.877-9.442 5.504-12.564 1.033-5.138-5.09 8.453-10.468 15.622-26.605 35.466-28.604 35.174-39.476 50.985-46.269 67.283-1.319 3.164-7.214 15.753-13.1 27.976-17.261 35.838-23.9 52.844-27.934 71.56-2.28 10.577-2.301 38.547-.036 47.524 1.947 7.717 3.446 8.833 9.02 6.714M886.852 1018.211c-1.916-2.924-6.25-15.06-8.438-23.633-3.18-12.458-4.427-24.442-4.443-42.73-.018-20.064.52-26.596 5.425-65.782 1.989-15.89 3.95-34.09 4.36-40.447.623-9.689.683-8.324.37 8.445-.206 11-.817 23.802-1.358 28.446-1.286 11.037-1.334 42.257-.09 59.114.54 7.334 1.243 17.324 1.56 22.2.57 8.732.603 8.836 2.188 6.878 3.53-4.359 12.164-53.932 16.444-94.414 2.065-19.528 1.944-19.151 4.272-13.313 2.162 5.423 4.086 6.238 5.197 2.201.404-1.467 1.133-13.867 1.622-27.557 1.203-33.694 2.263-43.355 5.801-52.892 2.506-6.753 1.367-24.807-3.048-48.306-3.628-19.312-4.38-27.385-2.785-29.908.698-1.104 1.307-1.143 3.706-.237 1.579.595 2.996.957 3.15.804.153-.154-.747-2.806-2.002-5.893-6.273-15.439-10.134-34.497-15.491-76.468-3.904-30.59-8.9-60.072-11.737-69.258-2.388-7.736-8.442-19.663-13.383-26.363-9.583-12.999-20-22.436-49.15-44.525-22.633-17.152-31.333-24.786-41.377-36.306-24.122-27.668-51.16-41.13-94.145-46.875-5.548-.742-18.968-1.106-39.114-1.06-44.401.099-51.274 1.402-106.922 20.269-42.61 14.446-54.92 17.381-80.603 19.217-14.95 1.068-23.007 2.6-35.597 6.77-26.63 8.82-53.534 26.935-92.005 61.948l-15.112 13.753-2.415-4.566c-3.685-6.968-8.62-22.877-10.06-32.44-6.524-43.276 13.098-73.629 47.841-74.002 6.244-.067 8.396-.63 22.021-5.755 14.777-5.558 33.918-11.965 103.066-34.497 36.787-11.988 41.786-13.135 75.56-17.345 50.41-6.283 82.165-4.683 123.117 6.204 38.39 10.206 48.709 13.784 70.226 24.353 36.615 17.985 62.563 40.514 84.795 73.623 6.001 8.938 11.884 15.103 14.023 14.697 2.99-.567 2.563-5.628-1.105-13.1-2.462-5.017-5.048-8.458-10.067-13.398-7.704-7.583-19.643-21.21-19.643-22.421 0-3.165 21.19 16.217 32.085 29.348 7.333 8.837 8.485 10.868 16.734 29.5 15.669 35.392 25.483 66.139 38.307 120.006 3.753 15.765 6.503 25.215 9.03 31.036 9.732 22.406 15.354 44.808 19.135 76.245 1.315 10.93 1.578 20.197 1.545 54.505-.06 64.528-1.102 72.588-18.61 144.007-7.895 32.2-13.424 58.43-12.51 59.345.529.528 2.432-4.076 6.892-16.676 13.42-37.908 22.934-79.892 29.21-128.895 1.58-12.338 1.959-21.233 2.38-56.003.347-28.534.17-45.465-.568-54.67-2.111-26.314-7.543-50.679-15.17-68.04-4.723-10.753-5.288-12.673-16.872-57.3-17.148-66.065-26.053-91.856-41.088-118.997-10.878-19.637-21.504-33.468-33.719-43.888-34.457-29.393-75.516-50.954-128.074-67.255-10.415-3.23-14.023-4.786-17.779-7.666-6.207-4.76-15.717-9.323-24.377-11.696-5.953-1.631-9.338-1.917-22.56-1.9-13.647.016-18.175.434-36.89 3.41-20.446 3.25-22.39 3.404-46.67 3.69-13.934.163-42.735-.163-64.003-.725-43.395-1.146-60.284-.461-80.449 3.265-23.17 4.28-40.222 11.537-57.336 24.398-3.667 2.756-11.81 8.573-18.097 12.928-6.286 4.355-10.982 8.067-10.434 8.25 1.208.402 3.562-.95 30.934-17.777 22.869-14.06 25.772-15.381 41.404-18.854 24.82-5.514 41.637-6.425 99.756-5.403 36.681.645 39.596.806 35.113 1.936-26.206 6.605-80.242 23.526-93.589 29.307-12.412 5.375-24.095 9.01-50.863 15.823-29.167 7.423-39.112 10.564-50.892 16.075-11.615 5.434-19.512 11.011-27.773 19.617l-7.157 7.454-2.618-4.129c-9.24-14.57-7.535-32.205 4.942-51.133 5.794-8.789 20.326-23.099 30.402-29.938 4.533-3.077 12.733-7.746 18.223-10.376 9.195-4.406 23.583-9.318 27.292-9.318.855 0 4.942-1.565 9.084-3.478 12.114-5.597 27.967-11.009 53.53-18.273 13.157-3.739 29.358-8.534 36.003-10.657 27.65-8.832 45.073-9.355 98.307-2.954 21.727 2.612 25.11 2.787 56.448 2.917 21.969.09 35.002.499 38.224 1.197 18.315 3.97 29.243 8.466 66.8 27.487 18.161 9.198 33.16 16.184 38.708 18.031 6.363 2.117 9.307 3.551 9.893 4.817 2.079 4.494 9.535 13.278 15.882 18.71 3.82 3.27 15.338 11.805 25.595 18.965 20.707 14.457 31.937 24.639 36.909 33.465 1.652 2.934 7.366 9.934 12.698 15.556 15.7 16.557 24.182 28.738 30.958 44.456 2.897 6.718 3.458 9.005 3.458 14.086 0 14.372 5.83 27.822 23.562 54.353 12.82 19.182 18.025 28.534 21.41 38.469 2.596 7.621 4.297 19.104 3.646 24.606-.389 3.281.088 6.012 2.109 12.063 5.373 16.096 6.612 25.279 6.59 48.869-.02 22.449-.104 23.326-5.795 61.336-1.904 12.712-4.104 28.713-4.89 35.558s-2.613 18.045-4.062 24.89-3.613 17.045-4.81 22.668c-3.984 18.73-3.828 32.21.577 49.548l1.86 7.324-3.571 9.566c-4.456 11.934-7.583 22.252-13.944 46.012-10.884 40.65-19.183 58.7-34.312 74.627-11.553 12.162-17.81 15.424-20.807 10.85" style="fill:#f0f;fill-opacity:1;stroke-width:.888935"/><path d="M851.187 639.075c-4.354-4.899-8.497-8.907-9.206-8.907s-5.137-3.562-9.84-7.916c-10.895-10.088-28.623-19.333-57.195-29.826-11.754-4.317-25.048-9.664-29.543-11.882l-8.171-4.033-36.457-1.488c-40.81-1.664-73.737-4.116-96.803-7.207-14.322-1.92-17.087-1.922-37.371-.032-46.493 4.332-119.428 1.54-147.097-5.632-8.127-2.106-26.06.878-54.802 9.12-20.425 5.856-26.65 6.965-20.435 3.64 2.131-1.141 2.622-2.603 2.622-7.811 0-7.949 3.195-13.494 10.786-18.717 7.97-5.483 18.7-9.184 47.246-16.293 13.878-3.457 28.702-7.766 32.943-9.576 19.627-8.378 33.9-12.052 55.539-14.296 11.095-1.15 128.966-2.224 176.151-1.604 43.95.577 66.67 7.316 104.265 30.928 37.928 23.822 62.657 48.842 76.011 76.91 5.677 11.931 10.832 28.853 9.766 32.052-.271.813-4.055-2.53-8.41-7.43M211.874 749.805c-1.197-1.937 4.6-11.71 17.176-28.962 6.87-9.423 14.61-21.691 17.2-27.264 8.135-17.494 31.418-51.486 36.066-52.655 1.476-.37 9.928-8.587 18.782-18.257s16.25-17.43 16.436-17.244c1.138 1.138-4.402 17.217-9.61 27.888-7.296 14.947-19.118 30.953-39.464 53.432-8.22 9.08-18.642 20.856-23.163 26.167-8.203 9.64-22.866 30.875-22.866 33.117 0 .651-1.962 2.003-4.36 3.005-5.087 2.126-5.34 2.158-6.197.773M265.891 1423.428c-10.813-20.577-15.021-39.848-14.964-68.516.045-22.023 1.156-31.681 7.015-60.972 3.386-16.932 3.904-22.204 3.954-40.228.058-21.431-1.24-32.364-7.52-63.345-1.667-8.22-3.03-15.557-3.03-16.307s1.894 2.58 4.21 7.401c5.777 12.026 12.751 23.186 27.87 44.593 13.993 19.815 24.261 36.943 26.852 44.794 1.486 4.501 1.336 6.019-1.546 15.61-4.504 14.996-6.482 25.782-10.17 55.46-3.86 31.07-6.103 43.373-10.37 56.9-3.728 11.817-11.592 28.026-15.16 31.245-2.423 2.185-2.586 2.034-7.14-6.635m13.647-55.63c3.036-10.763 4.284-19.735 8.23-59.202 2.062-20.634 4.119-40.293 4.569-43.686 1.395-10.515-3.4-7.013-7.572 5.53-4.234 12.73-7.142 39.912-9.005 84.157-.896 21.283.31 25.493 3.778 13.2M330.56 1399.747c-3.211-3.21-7.557-14.07-7.557-18.883 0-1.033 1.533-6.163 3.406-11.4 3.404-9.518 3.406-9.542 3.097-41.58-.17-17.632.033-34.114.451-36.628 1.585-9.52 7.465-11.817 20.415-7.97 11.738 3.485 17.888 10.939 17.888 21.678 0 8.956-2.717 16.798-15.085 43.547-12.791 27.663-16.229 37.477-16.662 47.572-.17 3.975-.778 7.228-1.35 7.228-.571 0-2.643-1.603-4.604-3.564m8.696-57.3c4.678-5.635 13.918-28.913 13.918-35.06 0-6.786-9.26 9.014-15.556 26.542-1.816 5.055-3.3 9.439-3.3 9.743 0 1.296 3.584.407 4.938-1.224M900.735 1160.517c-3.458-2.72-3.736-5.128-1.314-11.386.648-1.676-.123-2.3-3.662-2.965-6.407-1.201-7.096-4.651-8.274-41.426-.742-23.147-1.54-33.085-3.029-37.714-1.487-4.624-1.813-8.665-1.232-15.28.435-4.947.383-11.162-.114-13.813-2.249-11.988-6.429 6.35-7.777 34.121-.83 17.07.823 31.786 4.561 40.62 3.265 7.716 6.422 21.609 4.91 21.609-.647 0-1.758-1.556-2.468-3.457-2.679-7.173-6.709-14.65-9.925-18.416-1.831-2.144-4.526-5.98-5.987-8.522-2.46-4.28-2.53-5.05-.932-10.356 1.93-6.412 3.843-23.338 4.986-44.106.9-16.35 2.652-26.304 4.967-28.226 1.29-1.07 2.461-.454 5.097 2.678l3.422 4.067 8.977-4.63c16.071-8.287 27.798-20.925 37.6-40.518 5.844-11.683 10.788-25.88 20.389-58.552 8.567-29.154 10.846-35.526 13.229-36.999 2.774-1.714 3.72 2.354 3.74 16.086.051 36.29-10.11 79.957-25.45 109.363-6.24 11.964-16.803 24.316-19.908 23.281-.71-.237-2.585-4.272-4.165-8.967-3.214-9.55-5.784-12.902-8.959-11.684-3.065 1.177-2.023 15.825 1.655 23.27 2.354 4.763 2.55 6.287 1.442 11.232-.706 3.147-1.254 8.87-1.22 12.717s-.274 10.107-.686 13.91c-.661 6.104-.357 7.489 2.597 11.814 2.269 3.323 4.167 8.997 5.898 17.635l2.552 12.737-6.484 20.263c-3.566 11.145-7.495 21.18-8.731 22.298-2.082 1.884-2.504 1.833-5.705-.685" style="fill:purple;fill-opacity:1;stroke-width:1.25714"/><path d="M892.518 673.102c-7.251-3.889-8.872-7.2-7.476-15.277 2.086-12.068-2.701-47.845-8.145-60.873-2.899-6.938-6.005-5.706-7.664 3.04l-1.306 6.886-10.51-16.737c-18.986-30.229-31.268-45.892-43.039-54.887-3.62-2.766-17.083-15.555-29.92-28.42-18.853-18.892-25.964-25.109-36.988-32.33-25.27-16.557-39.21-20.001-85.667-21.169-77.968-1.96-145.03 9.85-219.916 38.727-34.189 13.184-74.123 34.1-75.865 39.734-.91 2.946 2.455 1.576 18.132-7.38 43.635-24.928 107.435-46.6 167.65-56.947 44.297-7.612 108.99-9.82 137.401-4.688 8.157 1.473 19.189 4.134 24.515 5.913 10.142 3.389 28.482 11.722 27.643 12.562-.268.268-10.076-.404-21.795-1.494-24.379-2.267-53.758-1.67-67.822 1.38-9.722 2.107-25.257 9.213-28.869 13.204-2.797 3.091-1.074 3.29 5.324.617 13.32-5.565 41.62-10.56 60.002-10.592 21.848-.037 48.682 6.423 66 15.89 10.346 5.654 16.446 10.123 25.143 18.418 3.803 3.627 9.46 8.231 12.572 10.232s8.971 6.792 13.022 10.648c10.344 9.845 28.965 31.44 27.968 32.437-.457.457-4.35-2.593-8.653-6.777-27.285-26.535-60.865-48.46-88.36-57.69-17.074-5.73-26.236-6.843-56.917-6.905-15.669-.032-48.006-.547-71.86-1.144-67.012-1.677-102.656.487-143.05 8.687-24.726 5.02-33.582 7.864-69.222 22.237-28.386 11.447-46.917 17.338-57.386 18.243-5.01.434-5.036.413-7.24-5.85-4.102-11.663-.639-22.493 10.835-33.885 3.554-3.529 14.382-11.736 24.062-18.238s20.712-14.354 24.514-17.45c8.663-7.05 28.555-16.647 43.372-20.925 11.608-3.351 29.796-6.83 65.695-12.565 30.637-4.894 44.025-8.612 61.366-17.044 29.175-14.185 39.276-15.624 101.53-14.46 53.012.99 52.122.857 70.9 10.652 14.087 7.347 25.923 16.67 54.03 42.556 28.014 25.798 40.615 35.724 54.658 43.049 13.241 6.906 21.96 17.441 33.18 40.092 10.904 22.01 17.535 48.26 21.789 86.256 3.014 26.923 3.76 43.523 1.983 44.15-.698.247-3.225-.601-5.616-1.883" style="fill:purple;fill-opacity:1;stroke-width:1.25714"/><path d="M907.824 807.57c0-.498-.276-3.162-.612-5.919-.337-2.756-1.047-12.79-1.579-22.298-2.662-47.597-6.823-70.217-16.376-89.019l-3.315-6.523h2.257c10.244 0 17.786 14.345 21.48 40.857 2.703 19.391 2.535 57.572-.339 76.967-.838 5.655-1.516 8.311-1.516 5.935" style="fill:purple;fill-opacity:1;stroke-width:.628572"/><path d="M889.66 909.778c-.035-4.496.371-20.195.904-34.885.816-22.495 1.082-56.942.792-102.843-.06-9.551 2.062-16.69 6.425-21.61l1.95-2.2-.46 2.828c-.255 1.555-.522 25.598-.594 53.428-.13 49.892-.46 60.218-2.509 78.258-1.01 8.89-3.459 23.011-5.288 30.485l-1.154 4.715z" style="fill:purple;fill-opacity:1;stroke-width:.628572"/><path d="M611.71 864.187c5.425-7.534 34.497-27.675 42.6-29.51 3.716-.843 14.736-4.955 31.428-11.726 45.891-18.617 53.686-21.662 65.665-25.646 20.478-6.81 34.836-10.262 50.916-12.241 10.01-1.232 14.04-1.218 16.55.056 3.673 1.865 7.054 5.08 8.93 8.493 5.995 10.906-2.79 23.477-19.49 27.892-4.673 1.236-15.606 1.808-21.057 1.102-3.191-.413-5.048-.284-8.485.587-9.255 2.347-27.263 5.738-53.058 9.99-55.51 9.15-73.042 13.845-100.396 26.88-5.904 2.814-11.677 5.304-12.828 5.534l-2.092.419zM465.109 884.62c-8.687-1.517-20.696-4.796-41.171-11.241-21.533-6.779-44.943-12.582-55.63-13.791-10.836-1.226-25.92-1.455-48.713-.74-45.884 1.442-53.78-.888-51.558-15.214 1.965-12.665 9.263-18.48 24.992-19.914 11.827-1.078 26.28 1.042 55.48 8.137 9.853 2.394 23.43 5.368 30.171 6.61 35.648 6.566 66.215 17.156 85.252 29.537 5.393 3.507 16.224 13.573 17.765 16.51.742 1.414.742 1.414-4.466 1.363-2.864-.028-8.32-.594-12.122-1.258M833.158 795.396c-4.804-1.44-5.4-4.935-1.988-11.684 1.203-2.38 3.664-6.307 5.468-8.727 4.515-6.058 19.375-20.806 24.716-24.531 2.42-1.688 6.84-5.239 9.823-7.89 6.73-5.983 11.642-9.717 13.928-10.585 2.708-1.029 2.79.542.305 5.766-4.381 9.208-13.811 22.346-22.879 31.874-2.99 3.143-5.311 5.84-5.157 5.996.155.154 3.377-1.092 7.16-2.77 3.782-1.679 7.582-3.268 8.444-3.532 1.43-.439 1.488-.386.668.602-.494.595-4.452 3.928-8.795 7.406s-10.442 8.8-13.554 11.829c-5.532 5.384-5.748 5.521-9.794 6.199-4.723.791-5.84.798-8.345.047M234.88 821.754c-2.006-1.577-3.489-4.402-5.413-10.312-.788-2.42-2.937-7.23-4.775-10.69-3.471-6.532-5.533-11.58-4.963-12.15 1.485-1.486 17.736 19.76 21.452 28.044 1.932 4.308 1.881 4.908-.491 5.735-2.823.984-3.913.866-5.81-.627M247.103 854.315c-5.926-7.31-8.765-12.446-9.221-16.683-1.174-10.9 13.864-10.381 18.606.642 1.955 4.544 1.526 10.41-1.25 17.078-1.1 2.641-2.21 4.932-2.466 5.09-.257.16-2.808-2.598-5.669-6.127" style="fill:#ff0;fill-opacity:1;stroke-width:.628572"/><path d="M1052.51 717.964c-1.715-.87-3.534-2.48-4.042-3.58s-1.617-3.342-2.464-4.982c-.848-1.64-1.54-4.155-1.54-5.588 0-1.434-.537-2.938-1.193-3.343-2.6-1.607-3.191-15.093-3.984-90.754-.819-78.201-.838-78.627-3.26-72-1.341 3.667-2.948 7.867-3.573 9.333-.624 1.467-2.387 6.166-3.918 10.442-3.988 11.14-6.334 15.231-10.18 17.752-3.162 2.071-3.535 2.069-5.64-.034-1.97-1.97-2.234-5.469-2.103-27.873.142-24.313 1.045-33.897 4.484-47.62 1.56-6.225 4.11-21.793 6.77-41.333.85-6.234 2.096-14.334 2.77-18 .675-3.667 1.712-11.167 2.304-16.667 1.247-11.595 2.206-14.107 9.105-23.876 3.7-5.238 8.804-9.71 18.67-16.355 12.57-8.467 14.351-9.255 23.996-10.606 12.136-1.701 11.636-1.7 23.763-.105 6.244.822 13.238 3.062 21.079 6.752 6.453 3.038 12.245 5.523 12.87 5.523s4.374 3.162 8.333 7.027c6.368 6.217 7.456 8.097 9.455 16.333 1.242 5.119 2.257 10.365 2.255 11.658 0 2.352 2.518 7.701 4.247 9.01.505.382 1.332 16.882 1.838 36.667.506 19.784 1.443 36.982 2.082 38.218.64 1.235 1.162 5.285 1.162 9s.6 6.754 1.334 6.754c.733 0 1.333 1.165 1.333 2.588s.6 2.959 1.333 3.412c.734.453 1.334 3.296 1.334 6.317s.73 7.51 1.62 9.975c1.272 3.518 1.272 5.04 0 7.077-.89 1.427-1.62 4.813-1.62 7.524 0 4.596-3.688 17.382-6.923 24-.778 1.592-1.032 4.931-.565 7.421.696 3.71.267 5.075-2.379 7.56-4.36 4.098-8.103 3.232-8.234-1.905-.056-2.183-.481-4.87-.945-5.97-.87-2.064-1.526-9.97-3.485-42-1.064-17.397-2.672-28.852-4.81-34.27-.74-1.873-1.342-1.992-3.444-.679-1.922 1.2-2.549 3.133-2.549 7.859 0 3.447-.6 6.638-1.333 7.09-1.84 1.138-1.722 26.412.131 28.266 1.475 1.474 1.368 3.484-1.54 29.068-1.628 14.33-1.802 22.366-.62 28.667.797 4.25.278 5.334-5.807 12.131-7.557 8.44-14.132 12.336-17.646 10.456-1.251-.67-3.98-4.832-6.063-9.25-2.084-4.417-4.838-8.366-6.122-8.774-2.531-.806-2.948-2.862-1.154-5.692.695-1.098.12-4.627-1.478-9.071-1.981-5.511-2.4-8.955-1.726-14.204 1.713-13.351 2.228-43.927.764-45.39-.809-.81-1.405-7.422-1.405-15.584 0-7.798-.395-14.572-.878-15.055-1.72-1.72-4.456 2.164-4.456 6.33 0 2.33-.555 4.806-1.233 5.503-1.72 1.767-2.818 17.76-3.518 51.267-.33 15.766-1.173 29.866-1.874 31.333-.7 1.467-1.632 9.567-2.07 18-3.676 70.665-4.324 77.273-8.306 84.713-3.7 6.913-13.95 12.07-18.952 9.534m14.157-8.37c1.773-2.706 2.377-7.415 2.78-21.667.285-10.016 1.062-19.41 1.729-20.877s1.52-8.066 1.895-14.666 1.324-19.5 2.11-28.667 1.704-29.567 2.042-45.333c.339-15.767.973-29.567 1.41-30.667s.688-5.99.56-10.869c-.134-5.085.372-9.242 1.185-9.745.78-.482 1.419-2.76 1.419-5.06 0-4.516 5.545-13.632 9.62-15.813 2.886-1.544 7.657-.381 7.836 1.91 1.48 18.912 1.87 69.878.579 75.397-.775 3.311-.244 6.901 2.026 13.698 2.264 6.778 2.683 9.604 1.589 10.699-1.095 1.094-.813 2.055 1.067 3.635 1.406 1.181 4.293 5.448 6.416 9.481 4.868 9.25 7.598 9.845 14.095 3.073 3.864-4.028 4.693-5.76 4.025-8.406-1.754-6.946-2.146-16.428-.794-19.16.773-1.562 1.75-7.94 2.171-14.173 1.013-14.99 1.012-15.259-.052-35.483-.642-12.218-.477-17.756.55-18.391.92-.569 1.171-3.098.67-6.755-.733-5.345-.368-6.375 4.263-12.027 2.786-3.4 6.772-7.063 8.859-8.142 4.204-2.174 4.262-2.11 5.622 6.131.424 2.567 1.349 7.367 2.056 10.667s1.311 13.83 1.343 23.4c.035 10.482.625 17.966 1.482 18.824.784.783 1.442 6.004 1.464 11.602.041 10.478 1.686 14.466 3.257 7.895.49-2.047 1.474-4.464 2.188-5.371s.958-2.538.541-3.624-.183-2.329.518-2.762c.701-.434 1.275-3.718 1.275-7.298s.6-6.88 1.333-7.333c.734-.453 1.334-2.553 1.334-4.667s-.6-4.213-1.334-4.666c-.733-.454-1.333-3.528-1.333-6.833s-.69-7.3-1.535-8.878c-2.441-4.56-4.056-18.665-4.685-40.901-.32-11.337-1.2-21.355-1.953-22.263s-1.256-3.033-1.117-4.721c.138-1.69.186-6.902.104-11.584l-.147-8.513-2.473 3.18c-1.36 1.748-5.31 7.34-8.777 12.425-6.262 9.183-14.66 16.47-23.217 20.145-2.457 1.055-7.318 4.305-10.801 7.221-7.55 6.321-11.686 8.058-19.152 8.045-6.264-.012-20.593-4.014-24.72-6.904-6.326-4.432-25.412-22.777-28.836-27.718-2.046-2.953-4.215-5.368-4.819-5.368-1.43 0-3.28 7.382-5.183 20.667-.84 5.866-2.14 13.666-2.887 17.333-.748 3.667-1.871 12.667-2.496 20-.626 7.333-1.705 18.433-2.399 24.667-2.39 21.482-2.984 34.666-1.56 34.666 1.69 0 5.024-7.371 9.949-22 2.4-7.127 4.297-11.921 6.193-15.648.648-1.274 1.178-3.17 1.178-4.215 0-2.559 8.094-9.243 9.495-7.841.612.611 1.35 38.595 1.642 84.408.516 81.125.76 89.639 2.63 91.509.495.494.9 2.563.9 4.598s.6 4.07 1.333 4.523 1.333 1.772 1.333 2.931c0 6 10.647 7.707 14.204 2.278m43.489-229.451c3.232-2.98 9.724-7.31 14.426-9.621 6.188-3.044 9.793-5.922 13.06-10.43l4.51-6.228-6.51 5c-3.582 2.75-8.421 5.858-10.754 6.906s-4.657 2.577-5.163 3.396c-1.01 1.633-19.649 10.485-27.614 13.114-7.217 2.382-4.767 4.505 4.43 3.84 6.828-.494 8.428-1.196 13.615-5.977m-23.36-1.381c-2.016-.305-5.316-.305-7.333 0-2.017.306-.367.555 3.667.555s5.683-.25 3.666-.555m19.19-9.665c2.637-2.175 8.08-5.183 12.094-6.684 10.513-3.934 17.55-13.357 18.938-25.363.381-3.3 1.074-8.533 1.54-11.63.64-4.27.167-7.03-1.958-11.42-1.542-3.186-2.803-6.39-2.803-7.12 0-1.874-5.997-6.084-16.76-11.765-5.082-2.683-11.792-6.391-14.91-8.24-7.792-4.619-15.626-4.792-21.673-.48l-4.658 3.322 6 .418c6.853.476 9.34 2.11 6.913 4.537-1.077 1.076-5.193 1.486-12.247 1.218l-10.626-.402-9.986 6.325c-5.492 3.48-11.118 7.581-12.502 9.115-3.142 3.482-5.552 13.142-5.552 22.256 0 6.125.675 7.838 5.667 14.387 6.886 9.033 10.732 12.466 22.177 19.798l8.823 5.651 13.363.015c12.856.014 13.545-.135 18.16-3.938m7.187.688c2.543-1.063 4.623-2.27 4.623-2.684 0-.745-9.284 2.79-10.487 3.992-1.163 1.164 1.222.631 5.864-1.308m24.957-16.49c2.016-1.876 3.666-4.248 3.666-5.272 0-2.732-1.327-1.767-8.692 6.315-5.414 5.94-5.902 6.833-2.64 4.827 2.2-1.353 5.65-3.994 7.666-5.87m4.98-11.99c-.019-1.943-.2-1.978-1.314-.255-1.687 2.612-1.687 4.377 0 3.334.734-.454 1.325-1.839 1.313-3.079m4.93.829c-.425-1.064-.74-.748-.805.805-.058 1.406.257 2.193.7 1.75s.49-1.593.106-2.555m-94.244-46.64c3.3-1.88 8.1-3.81 10.667-4.289s7.667-2.795 11.333-5.146c6.01-3.854 6.351-4.323 3.466-4.761-6.423-.975-32.132 8.36-32.132 11.667 0 .66-2.1 3.183-4.667 5.604-2.567 2.42-4.667 5.434-4.667 6.696s-.6 2.665-1.333 3.119c-.733.453-1.333 1.407-1.333 2.12s2.85-1.603 6.333-5.148 9.033-7.984 12.333-9.863m-10 12.223c1.328-1.467 2.114-2.667 1.747-2.667s-1.753 1.2-3.08 2.667-2.113 2.667-1.747 2.667c.367 0 1.753-1.2 3.08-2.667m99.334-4c0-.733-.636-1.333-1.412-1.333-.777 0-1.041.6-.588 1.333s1.088 1.333 1.412 1.333.588-.6.588-1.333m-89.62-3.333c2.698-1.834 4.434-3.334 3.859-3.334s-3.255 1.5-5.953 3.334c-2.698 1.833-4.434 3.333-3.858 3.333s3.254-1.5 5.952-3.333" style="fill:#000;stroke-width:1.33333" transform="matrix(1.56083 0 0 1.42753 -1155 94.16)"/><path d="M57.452 96.754c-12.039-7.719-18.185-13.082-24.429-21.316-5.618-7.41-6.622-13.086-4.301-24.323 2.157-10.442 4.322-12.836 21.014-23.233l5.818-3.624 9.143.353c10.088.388 14.454-.43 14.454-2.709 0-2.179-1.951-3.116-7.283-3.497-5.826-.417-5.816-.918.088-4.131 3.36-1.828 4.25-1.995 9.02-1.689 4.928.316 5.962.707 14.991 5.659 13.135 7.203 22.43 12.625 24.45 14.262 2.185 1.77 7.416 14.72 7.372 18.25-.018 1.493-.63 6.727-1.362 11.631-2.306 15.475-6.989 22.205-19.646 28.234-3.81 1.815-8.537 4.454-10.505 5.866-5.988 4.296-7.183 4.565-20.241 4.565h-11.88Z" style="fill:maroon;stroke-width:.726447" transform="matrix(1.56083 0 0 1.42753 422.348 624.62)"/><path d="M79.831 114.341c-.68-.123-1.539-.422-1.909-.665l-.673-.44.771-.69c.434-.387 2.114-1.177 3.836-1.803 10.214-3.715 24.71-10.7 27.72-13.358.978-.864 2.811-2.053 4.544-2.95 3.754-1.94 7.623-4.462 12.343-8.045 2.084-1.582 3.789-2.803 3.789-2.714 0 .477-4.774 6.638-6.461 8.34-2.424 2.442-4.602 3.927-10.156 6.924-5.002 2.699-9.813 5.852-12.92 8.468-1.2 1.01-2.934 2.47-3.852 3.241-2.2 1.848-4.26 2.822-6.935 3.278-2.774.472-8.484.707-10.097.414M24.691 38.577c0-.136.51-.821 1.131-1.521.623-.701 1.2-1.63 1.285-2.064l.299-1.547c.258-1.34 2.015-3.691 5.367-7.185 2.04-2.127 3.46-3.838 3.775-4.549.613-1.386 1.984-2.435 5.351-4.093 5.083-2.503 11.566-4.842 18.236-6.58 3.32-.865 4.429-1.043 6.678-1.072 1.483-.019 2.914.054 3.18.163.476.194.476.21 0 .738-.854.954-6.56 4.59-9.396 5.987-1.512.746-3.766 1.668-5.009 2.049-7.625 2.339-10.368 3.487-14.002 5.858-3.119 2.034-7.07 5.286-10.858 8.935-3.26 3.141-5.536 5.13-5.87 5.13-.092 0-.167-.112-.167-.249M118.652 87.426c.926-1.3 8.649-9.669 10.067-10.91 1.691-1.478 2.303-1.577 2.303-.37 0 1.605-1.937 4.088-5.522 7.076-2.296 1.914-6.637 4.917-7.108 4.917-.136 0-.018-.32.26-.713M96.756 99.662c.41-.664 8.755-4.093 9.897-4.067 1.082.025-3.297 2.233-7.067 3.564-2.4.847-3.122.975-2.83.503M130.141 72.758c-.207-.336.349-1.78 1.247-3.24l.79-1.284.084.881c.13 1.374-.19 2.586-.86 3.257-.646.646-1.028.763-1.26.386" style="fill:maroon;stroke-width:.256838" transform="matrix(1.56083 0 0 1.42753 422.348 624.62)"/><path d="M130.371 72.022c.096-.389.51-1.284.921-1.99l.746-1.285.005 1.156c.005 1.299-.767 2.825-1.43 2.825-.326 0-.379-.154-.242-.706zM131.174 32.643c-.743-.884-.848-1.469-.3-1.679.716-.275 1.432.379 1.432 1.306 0 1.197-.343 1.31-1.132.373M38.175 30.976c2.12-1.76 7.983-5.443 8.246-5.18.246.246-5.357 4.178-7.542 5.293-1.404.717-1.654.676-.704-.113" style="fill:maroon;stroke-width:.256838" transform="matrix(1.56083 0 0 1.42753 422.348 624.62)"/><path d="M45.245 340.037c-2.1-1.1-3.261-2.761-3.261-4.667 0-.71-.4-1.64-1.072-2.484-.652-.82-1.143-1.942-1.255-2.865-.101-.834-.28-2.382-.396-3.44-.117-1.059-.527-2.53-.911-3.27-.391-.752-.865-2.785-1.075-4.614-.556-4.836-1.044-33.388-1.474-86.265-.376-46.177-.827-74.396-1.304-81.493l-.24-3.58-1.211.196c-2.67.433-7.843 5.057-8.51 7.605-.22.847-.538 2.03-.705 2.63-.166.599-1.197 3.132-2.29 5.63-1.093 2.496-3.175 7.972-4.626 12.167C12.443 188.511 8.65 197.2 7.479 197.2c-1.347 0-.873-12.014 1.276-32.327.497-4.694 1.472-14.502 2.167-21.793 1.45-15.197 1.956-19.27 3.437-27.605.586-3.296 1.658-9.834 2.384-14.53 1.885-12.202 3.375-18.757 4.597-20.23.554-.667 1.398.14 5.018 4.794 2.688 3.455 14.303 15.271 20.53 20.886 4.846 4.37 8.602 7.238 10.907 8.33 5.966 2.825 17.077 5.475 22.918 5.466 6.878-.01 10.31-1.431 18.176-7.528 5.905-4.577 8.67-6.388 12.588-8.248 4.367-2.072 9.109-5.449 13.252-9.436 4.156-4.001 6.535-6.925 11.695-14.374 1.868-2.697 4.43-6.277 5.692-7.955l2.297-3.052.008 11.043c.007 10.284.058 11.153.74 12.656 1.155 2.546 1.898 10.012 2.334 23.45.462 14.233 1.412 26.368 2.573 32.87.62 3.475.954 4.686 2.153 7.81.91 2.37 1.13 3.724 1.605 9.856.26 3.352.476 4.32 1.26 5.659 1.683 2.87 1.61 6.922-.166 9.325-.6.81-.812 2.051-1.215 7.084-.42 5.24-.6 6.253-1.282 7.174-.675.914-.758 1.36-.553 2.996.21 1.682.105 2.19-.843 4.068-.595 1.18-1.433 3.325-1.862 4.766-.842 2.83-1.261 3.393-1.777 2.385-.612-1.196-.824-3.156-1.172-10.816-.343-7.548-.507-8.76-1.576-11.66-.723-1.96-1.313-10.017-1.315-17.942-.002-7.06-.578-18.71-1.078-21.794-.927-5.72-3.397-18.096-3.769-18.883-.595-1.259-1.433-1.306-3.679-.208-3.245 1.588-9.333 7.515-12.34 12.014-1.876 2.806-2.137 4.258-1.62 9.011l.443 4.06-.966 2.032c-.922 1.941-.965 2.299-.965 7.92 0 3.237.262 10.985.582 17.217.917 17.827-.081 35.403-2.455 43.219-.694 2.284-.749 3.092-.554 8.207.13 3.412.508 7.106.95 9.272.73 3.587.73 3.605.016 5.219-.404.914-2.022 2.96-3.714 4.698-6.373 6.544-8.427 6.088-13.672-3.037-2.757-4.796-5.493-8.737-7.113-10.246-1.058-.984-1.175-1.93-.328-2.633.932-.774.41-4.453-1.488-10.495-2.389-7.602-2.593-9.006-2.083-14.29.235-2.429.53-9.565.656-15.858.335-16.688-.697-57.433-1.52-60.026-.596-1.878-5.826-2.54-8.246-1.044-2.77 1.712-6.653 7.017-8.29 11.324-.395 1.04-.881 3.22-1.08 4.843-.228 1.875-.617 3.306-1.066 3.925-1.13 1.56-1.428 3.707-1.438 10.358-.005 3.436-.247 8.094-.538 10.352-.552 4.285-1.112 15.677-1.47 29.894-.5 19.847-1.251 35.701-2.38 50.228a3034 3034 0 0 0-1.443 19.614c-.863 12.354-1.26 15.98-2.177 19.874-.855 3.632-1.33 9.306-1.81 21.612-.52 13.393-1.037 17.78-2.4 20.42-1.892 3.66-7.033 5.018-11.045 2.917" style="fill:#d40000;stroke-width:.363224" transform="matrix(1.56083 0 0 1.42753 422.348 624.62)"/></g></svg>