<?xml version="1.0" encoding="UTF-8" standalone="no"?>
<svg
   xmlns:dc="http://purl.org/dc/elements/1.1/"
   xmlns:cc="http://creativecommons.org/ns#"
   xmlns:rdf="http://www.w3.org/1999/02/22-rdf-syntax-ns#"
   xmlns:svg="http://www.w3.org/2000/svg"
   xmlns="http://www.w3.org/2000/svg"
   xmlns:sodipodi="http://sodipodi.sourceforge.net/DTD/sodipodi-0.dtd"
   xmlns:inkscape="http://www.inkscape.org/namespaces/inkscape"
   version="1.1"
   id="svg1016"
   width="1051.1407"
   height="1950.7429"
   viewBox="0 0 1051.1407 1950.7429"
   sodipodi:docname="villager6.svg"
   inkscape:version="1.0 (4035a4fb49, 2020-05-01)">
  <metadata
     id="metadata1022">
    <rdf:RDF>
      <cc:Work
         rdf:about="">
        <dc:format>image/svg+xml</dc:format>
        <dc:type
           rdf:resource="http://purl.org/dc/dcmitype/StillImage" />
        <dc:title></dc:title>
      </cc:Work>
    </rdf:RDF>
  </metadata>
  <defs
     id="defs1020" />
  <sodipodi:namedview
     fit-margin-bottom="0"
     fit-margin-right="0"
     fit-margin-left="0"
     fit-margin-top="0"
     inkscape:document-rotation="0"
     pagecolor="#ffffff"
     bordercolor="#666666"
     borderopacity="1"
     objecttolerance="10"
     gridtolerance="10"
     guidetolerance="10"
     inkscape:pageopacity="0"
     inkscape:pageshadow="2"
     inkscape:window-width="1080"
     inkscape:window-height="1826"
     id="namedview1018"
     showgrid="false"
     inkscape:zoom="0.59003612"
     inkscape:cx="537.30204"
     inkscape:cy="909.75178"
     inkscape:window-x="-11"
     inkscape:window-y="-11"
     inkscape:window-maximized="1"
     inkscape:current-layer="g1024" />
  <g
     transform="translate(-170.57859,-138.91882)"
     inkscape:groupmode="layer"
     inkscape:label="Image"
     id="g1024">
    <path
       id="path1028"
       style="fill:#000000;stroke-width:1.33333"
       d="m 809.11107,2087.6671 c -73.42238,-23.5599 -150.13389,-17.0072 -224.7834,-21.8967 -54.24026,-14.4255 -142.04932,26.3995 -173.16507,-1.2418 42.79592,-8.2864 76.5833,-60.3566 88.15866,-90.1677 -60.74305,59.4169 40.77721,-47.8394 13.5167,-78.8155 17.20651,-81.2513 0.91852,-166.9817 -83.57605,-199.2044 -53.0439,-56.8931 -116.81825,-60.0229 -132.94551,-143.691 28.01165,54.9915 8.95714,-68.1055 -26.32536,-58.1702 -85.45033,-46.1417 -66.18059,-146.6616 -73.90147,-225.3675 6.86261,-77.8576 -49.83115,-172.172 15.28062,-234.9643 37.50292,1.3672 5.26381,-86.67473 38.75974,-119.98603 C 270.62926,828.69662 329.48203,763.33346 383.144,696.8318 427.48406,662.94497 499.84215,609.09104 409.16156,580.83802 327.02805,523.83957 326.92959,413.31746 359.56709,328.67295 399.35468,211.64703 521.44739,115.68765 649.0106,143.8843 c 123.51462,15.57637 253.19094,96.47239 273.19043,228.27098 34.84889,79.97751 -35.15654,148.62722 -24.7154,218.62486 72.59393,38.53273 123.90597,107.21379 184.71617,163.57925 35.5619,36.63732 108.7455,127.87432 67.5998,159.8545 19.8787,16.01423 102.3424,95.12731 59.9801,107.82881 -11.3317,56.4139 -13.9691,116.9648 -15.3803,175.3562 6.4638,60.7306 -31.5999,58.6948 -18.4014,126.9687 -19.0224,56.8017 -11.915,-114.0471 -8.6464,-91.862 -6.0737,-76.4645 69.7903,-204.9812 -0.4902,-248.02511 -52.0319,52.55241 38.4244,121.46921 -3.8894,186.09131 0.8566,78.0597 -65.1553,141.3972 -43.1581,220.5498 74.0138,41.2221 -58.6595,21.5839 -47.6869,81.9607 -34.2314,64.4727 -71.3966,154.3338 -125.93533,191.631 60.21403,-73.1396 109.52463,-155.7502 137.62013,-246.4965 13.7008,-28.5715 35.5969,-102.9502 31.8439,-115.9081 -4.2003,30.9291 -27.8427,86.6693 -14.0694,21.708 13.035,-67.9121 33.6423,-128.4841 41.1959,-192.5945 -3.0093,-111.5611 -19.2625,89.3128 -35.9984,92.2159 12.8885,-86.6842 36.2813,-173.5493 30.8987,-261.83447 -34.7401,52.12967 -25.5114,-82.79952 -70.5262,-103.43676 -66.8253,-19.41766 -104.47271,-94.34008 -173.36972,-112.7912 -24.61564,-10.11965 -136.91509,-43.34304 -54.22783,-30.3622 25.01788,8.69688 103.64276,40.84488 40.34326,2.05009 -25.59726,-26.2752 -68.7762,-47.76158 -82.28297,-20.62394 -69.01812,-35.28311 -141.75139,-48.04269 -215.47633,-27.55279 -52.21998,-19.63362 -129.59266,42.45809 -168.06759,87.82698 -65.82005,59.33182 -108.05051,140.70357 -141.55523,221.5233 -10.88977,51.83499 46.90842,-31.18067 37.92425,-23.39518 13.53417,2.35868 30.93894,-37.33087 62.18816,-9.55435 -34.47251,-56.52068 76.66666,-5.55336 64.0447,-29.38558 42.16445,27.37876 -16.62648,-25.4325 32.37301,-9.82181 74.14121,-11.17827 123.295,81.63778 161.64084,134.54681 6.47437,64.9914 33.59459,185.5024 -35.43182,214.3424 -45.85983,6.4208 -10.09505,141.2264 9.45872,54.062 43.92849,-19.8528 90.61167,101.9578 110.56686,12.3367 29.63629,-56.7788 101.48143,22.7615 86.29233,14.4375 34.49604,-30.5407 14.46572,-32.427 5.51245,-23.7386 -16.71898,-31.4334 -36.91402,-81.1388 -80.25097,-78.8351 -35.76087,-77.2351 10.01978,-162.9378 46.64067,-230.8747 -53.63268,39.0294 50.39616,-26.33673 38.96708,-40.28434 26.43933,-16.60886 45.89564,-5.21031 74.7168,-26.65778 36.6318,-5.211 154.38533,-48.95726 166.93773,11.76898 -67.20464,-32.73273 -136.93824,0.73649 -193.16081,11.53807 -66.52731,35.80798 -123.47521,96.64577 -127.12334,176.40477 4.4222,45.8366 -26.90955,96.0744 44.66046,94.8588 92.75805,13.027 35.81906,160.6534 -29.31369,101.8093 -7.00164,-26.7292 -72.75209,76.1942 -110.42566,14.964 -25.42332,-31.2223 -86.19785,50.7858 -87.80832,-22.6671 -9.97027,-76.3596 50.48848,-77.2707 67.54647,-132.5626 -14.15864,-22.7647 23.75325,-125.4167 -14.21242,-172.7135 -48.53597,-49.46703 -130.9599,-95.40247 -199.60299,-63.79224 -73.8935,-34.02139 -89.40603,142.85414 -120.4287,66.11434 -53.91524,20.0853 44.94297,139.0165 60.78768,67.2636 -39.19062,-60.9757 56.53838,50.3918 27.05527,-29.1897 -45.33178,-14.2664 87.94051,-63.39181 1.07239,-40.9005 -1.42002,-3.8541 119.93502,-16.0964 30.85096,-19.91989 60.3989,-15.76758 178.42442,15.88069 177.51121,70.08159 -14.92857,-27.2684 -101.23608,-76.66688 -79.37699,-20.5436 38.58384,4.1617 139.01828,79.5108 70.28817,84.9231 -47.33963,-29.9788 -9.44593,77.0859 -37.5731,10.7645 -32.80112,6.3355 -106.35696,-10.2187 -122.0382,37.1153 13.95356,-42.4784 -42.27521,-49.034 -34.2826,-10.4421 8.9155,-49.3497 -49.99209,-47.1501 -84.85394,-56.6092 30.94732,17.4003 24.41144,0.1944 10.53601,25.8928 13.44269,-5.0305 12.03859,60.9926 50.51951,78.0725 56.58087,57.2931 -22.86374,33.0402 -30.32611,-12.6438 -15.22527,-44.1134 -47.09062,-38.0314 -14.81603,4.9855 17.57449,43.4975 102.4557,127.2971 90.01639,129.0571 -47.62891,-18.7955 -89.56938,-123.916 -102.14197,-123.2383 32.77603,61.9482 52.31827,146.8154 127.20432,170.9065 -87.35714,4.1648 -96.88215,-113.1938 -140.55265,-167.7637 30.48156,72.5078 62.67991,154.6457 128.2026,203.498 12.84731,23.0521 -70.39865,-32.088 -72.99053,-65.1725 -16.29844,-33.33 -65.79463,-127.6948 -32.17296,-40.1647 5.68801,47.2381 2.55934,120.8181 51.26828,170.631 -15.10643,-19.9017 -77.55065,-172.4024 -44.30873,-69.3216 44.37348,65.0125 31.72052,149.6214 82.38549,210.2961 50.1804,56.0061 135.8301,165.2643 211.38816,118.9771 46.40962,-51.2008 27.71561,83.0873 97.12726,46.5022 41.56072,-8.9242 157.88635,-27.9096 131.07554,-38.3126 48.53586,-39.6422 54.52191,-11.2006 35.14668,-6.4427 -10.61464,56.3644 -12.28374,132.8047 10.06099,194.6989 -2.08514,57.3966 68.07557,102.818 74.6219,137.4779 -50.9139,-18.2269 -96.6822,16.2375 -146.80763,5.8504 z m 36.62065,-5.48 c 40.8567,-15.1743 123.12933,-4.4474 54.69756,-60.7411 -57.53172,-70.1383 -30.31861,-189.6445 -67.86547,-249.7182 -69.02068,16.9005 -152.17833,57.5833 -218.87021,26.8863 -39.88732,37.8795 -4.85324,20.8423 -21.08021,-14.0999 -12.141,-8.7266 -69.3116,11.1306 -25.63824,-8.0708 -91.71882,-43.9998 45.60651,86.1691 37.01999,80.798 -26.95207,-18.3102 -104.98191,-83.7215 -65.66272,-8.0626 8.88505,33.5112 113.40262,80.6043 30.2056,41.9912 -24.98727,-34.2274 -62.47524,-46.9996 -24.76196,0.1843 33.3463,23.4398 69.19496,70.4242 8.69606,25.0365 -57.94916,-67.9033 -3.52954,60.105 30.77787,69.766 46.09163,35.6143 -94.89825,-15.2266 -48.01628,-22.0795 49.43498,51.8684 -33.53525,-84.3381 -20.55025,0.5045 -7.429,35.5323 -121.10101,109.8938 -26.71024,100.1818 91.53369,-12.4315 187.70457,-7.446 277.86633,5.5173 26.41048,5.3061 53.11366,9.0468 79.89217,11.9062 z m -324.39839,-33.106 c -42.94931,1.8984 -49.18673,-48.1169 -8,-11.3794 14.07708,-4.362 47.33213,15.5034 8,11.3794 z m 19.87819,-13.0576 c -44.41766,4.2886 -40.18267,-83.6243 -16.16976,-19.7719 5.84637,7.8779 57.93282,18.9929 16.16976,19.7719 z m 16.58015,-9.412 c -42.01272,-1.2 -57.02201,-82.6227 -16.01124,-21.0466 5.18015,7.5143 54.77103,20.6196 16.01124,21.0466 z m 84.875,-235.1995 c -2.45074,-5.0574 -3.97203,2.958 0,0 z m -13.75978,-3.7453 c 2.41545,-35.8611 -35.44206,10.1167 0,0 z m -22.85497,-9.084 c -6.79922,-29.4122 -37.00704,9.083 0,0 z m 244.61475,-7.916 c -1.75507,-5.0557 -2.99292,5.1632 0,0 z m 20.05036,-30.7319 c 7.26781,-10.6353 -19.69123,17.9213 0,0 z m -468.59708,-83.4144 c -39.92054,-33.6988 33.90134,35.401 0,0 z m -58.90387,-57.3057 c -58.76758,-109.0195 8.56532,45.8573 0,0 z M 344.0336,1535 c -4.06189,-36.8833 -71.75338,-131.6765 -30.71176,-43.8079 6.66879,11.6093 47.00267,91.6694 30.71176,43.8079 z m -59.90212,-69 c -1.13069,-114.0944 -42.59806,43.4605 0,0 z m -22.79815,2.7453 c -2.45072,-5.0574 -3.97203,2.958 0,0 z m -20.07684,-17.4246 c -27.89141,-54.0583 -3.7492,36.2011 0,0 z m 14.70162,8.299 c -8.30896,-26.1293 -9.5169,21.3981 0,0 z m 56.82524,-19.2864 c -5.2772,-37.2019 -36.71864,-79.3036 -11.22525,-18.5127 0.69322,-1.9629 9.43001,28.757 11.22525,18.5127 z m -49.01032,-7.4436 c 60.48002,-40.478 -42.29636,-170.315 -40.25382,-67.6354 -0.77548,24.0178 1.01614,82.8628 40.25382,67.6354 z m 847.91747,-20.3141 c 9.561,-51.925 -29.1328,4.6215 0,0 z M 288,1366.0787 c -1.79424,-9.4817 -4.45297,7.2924 0,0 z m -19.00377,-35.7454 c 27.3373,-30.5208 -39.03104,-87.0312 -23.76662,-19.9674 -0.29705,12.1906 10.1868,26.0546 23.76662,19.9674 z m 291.9683,-12 -0.005,8.6447 z m 162.28488,4.4261 c 4.02621,-8.1166 -9.36908,8.7111 0,0 z M 758.66667,1324 c -1.75535,-5.0554 -2.99269,5.1633 0,0 z m -23.982,-14.0093 c 6.11221,-10.321 -30.99936,24.8815 0,0 z m 3.30589,7.3579 c -3.74996,-2.8496 -4.2955,5.012 0,0 z m -513.03556,-11.6819 -0.008,7.3057 z m 16.66443,-25 c -5.50652,-69.0656 -15.74449,-143.7572 5.97528,-203.4616 -19.2006,-75.0302 -94.82431,32.7991 -54.46761,74.0568 13.746,46.8828 45.37734,96.2243 44.53021,140.6332 z M 270.054,1277 c 4.47581,-48.4299 12.60135,31.4185 0,0 z m -51.35913,-0.9017 c -5.81623,-24.5886 -3.12867,13.1547 0,0 z m 921.87653,-12.8602 c -2.4219,-61.5684 42.5907,-133.5726 11.5988,-188.2805 12.9393,63.192 -26.0733,125.7745 -11.5988,188.2805 z m -558.53387,-10.9784 c -10.69359,3.5226 -11.01619,18.7836 0,0 z m -360.59922,-3.1246 c -10.55961,-38.4706 -22.18072,-20.6447 0,0 z m 42.62254,-36.4684 c 8.91692,-33.3208 -13.67644,-140.8469 -27.43361,-50.1214 -3.01833,16.7521 26.82611,130.9765 27.43361,50.1214 z m 349.27248,30 c -10.79331,-4.8276 -15.67364,4.7823 0,0 z m -3.90866,-10.1367 c 50.30799,-32.3826 -24.8088,1.2766 0,0 z m -316.94391,-71.7381 c 7.85383,-44.489 -34.05552,-10.2273 0,0 z m 229.25665,-22.7368 c 29.45981,-22.8298 96.47934,-10.2578 37.12436,-55.358 -23.77525,-36.6625 -50.70928,80.5267 -37.12436,55.358 z M 502.45397,1136 c 57.97502,-26.1658 -52.10993,12.5904 0,0 z m -53.97484,-1.6667 c -33.36367,-30.5161 45.70433,-92.373 -27.42566,-58.1878 -58.31836,-2.0079 -91.78992,72.6489 -9.06158,55.8545 7.27488,-2.9038 38.03771,14.0904 36.48724,2.3333 z m -167.84636,-5.5497 c -17.7471,-22.0283 2.94817,21.5847 0,0 z m 215.23022,0.5497 c 80.26044,-12.6735 -29.44473,-97.3668 -19.29203,-25.1482 40.64071,-55.74 30.40779,46.1223 -11.35135,12.0299 23.05437,-102.4191 -55.70198,31.5723 30.64338,13.1183 z M 491.95355,1112 c 33.19523,-32.4429 -27.8243,-21.6663 0,0 z m -222.13804,-4.6667 c -2.99169,-7.3295 -1.25907,7.1394 0,0 z m 196.07338,-35.9779 c 56.34566,-23.0384 -48.60412,23.2076 0,0 z m -64.51637,5.2824 c 26.54542,-25.5887 14.81113,-57.7355 29.60321,-10.1595 30.86002,-18.4111 12.81225,-65.0476 27.63192,-8.6077 52.77646,-3.5323 29.37193,-74.69348 -18.41711,-39.9424 -35.67654,1.4277 -103.59265,28.7296 -38.81802,58.7096 z M 240,1034.6667 c -1.75506,-5.0557 -2.99294,5.1633 0,0 z m 70.66667,-22.2067 c -3.50013,-15.17911 -3.20566,16.0314 0,0 z m -22.15126,-0.2153 c -3.02276,-35.63384 -43.46853,6.5333 0,0 z M 240.89675,1007 c 21.99239,-46.1406 -18.02009,-2.1186 0,0 z m 17.6273,-9.29717 c 12.26441,-34.25994 29.51757,-108.44308 5.56569,-34.74138 -0.3581,2.29814 -15.28053,56.67535 -5.56569,34.74138 z M 808,995.27913 l -10.62409,5.40917 z m -505.33333,-1.2164 c -2.89344,-16.07019 -19.88374,2.49373 0,0 z m 15.74912,-3.04742 c -5.51267,-11.82885 -4.41019,7.52287 0,0 z m 508.68817,-14.8799 c 1.90481,-21.41098 -31.39689,38.10009 0,0 z m 346.16984,-4.56826 c 12.6635,-42.00968 -54.0261,34.18985 0,0 z m -366.43705,8.76618 c 4.21675,-6.11352 -9.45147,8.54212 0,0 z m -469.81284,-1.66666 c 1.12208,-9.55574 -8.27369,9.8025 0,0 z m 476.42913,-6.89035 c 1.49739,-9.29416 -10.30951,18.4305 0,0 z m 379.88026,-1.15149 c -4.9591,-13.20535 -7.501,9.85094 0,0 z M 876.64287,942.96861 c -16.88974,12.09908 -22.49089,24.82271 0,0 z m 35.00912,0.71712 c 26.21877,-30.31701 -17.97032,9.16655 0,0 z m 19.01468,-3.01906 c 0.24945,-7.56265 -8.26646,8.17251 0,0 z m -416,-4 c -7.71022,-5.51109 4.72412,8.68924 0,0 z m -251.8018,-3 c 28.46057,-63.17596 1.04154,-38.0733 0,0 z m 712.46846,-3 c -3.01104,-12.91147 -12.07613,6.90518 0,0 z m -673.9517,-32.89116 c -0.23422,-9.32937 -18.29465,35.85078 0,0 z m -16.06871,-7.52087 c -7.08986,-0.76771 1.6505,9.30701 0,0 z m 36.11843,-26.68621 c 22.43078,-62.72434 -39.11544,67.00709 0,0 z m -9.47015,-11.97552 c 31.42731,-36.78329 15.66722,-68.66077 -0.58569,-10.56948 -15.39059,33.28562 -19.457,54.67582 0.58569,10.56948 z m 786.7856,-16.7327 c -12.7215,-16.22242 1.2702,16.44959 0,0 z m 29.4214,-5.84104 c -21.6706,-45.99864 -30.83,-30.37049 0,0 z M 1028,828.20005 c -37.75115,-48.78453 -42.56181,-25.7313 0,0 z M 306.46405,811.64153 c 11.64656,-35.77704 -15.44762,36.47815 0,0 z M 318.05931,810 c 3.70318,-15.89011 -18.88855,38.3425 0,0 z m 759.26209,0.77756 c -35.2126,-27.2169 21.8913,26.6811 0,0 z M 373.34003,794.65821 c 8.48961,-29.54858 -31.34831,40.98792 0,0 z M 330.29485,780 c 27.71603,-50.01374 -28.82012,50.81417 0,0 z m 14.03175,-1.75968 c 20.83769,-25.65832 93.66339,-122.90373 27.51833,-53.61145 -7.29905,8.39288 -65.99668,92.84302 -27.51833,53.61145 z M 992,780.06852 c -5.79954,-41.53322 -95.20326,-53.96458 -27.81064,-14.72806 10.06561,3.05495 16.93916,13.55693 27.81064,14.72806 z M 397.90588,760.22423 c 20.05283,-42.04247 -30.14428,46.22914 0,0 z m 654.32582,9.44244 c -19.3706,-24.67276 -19.2742,-13.97332 -0.3704,1.65733 z M 421.20001,742.03388 c 10.0181,-32.259 -24.90151,48.06615 0,0 z m -44.92136,6.63279 c -6.82884,-0.64541 -4.83837,16.09535 0,0 z M 985.9834,733.57216 c -30.20902,-20.39462 23.8029,30.41547 0,0 z m -573.81332,4.09451 c 4.21676,-6.11354 -9.45146,8.54212 0,0 z m -33.50341,-28.10414 c -13.85145,8.06254 -27.60065,32.66092 0,0 z m 39.9365,8.65578 c -17.9732,15.99907 -10.81587,14.38443 0,0 z M 934,727.22255 c -13.67704,-41.69546 -67.17633,-20.96207 0,0 z m -503.33333,-3.88922 c 6.5895,-12.16334 -14.11307,14.1333 0,0 z m -27.76959,-11.66666 c 36.64732,-46.84217 -22.40374,21.16324 0,0 z m 38.45853,-7.33334 c 7.29278,-15.43964 -16.17201,24.84423 0,0 z m 41.10004,-20.06109 c -16.50972,-13.74831 -24.37395,32.78342 0,0 z M 1008,690.71545 c -11.26968,-25.98942 -98.24231,-78.09105 -41.42524,-21.72756 12.78342,9.39105 30.6839,9.0106 41.42524,21.72756 z m -587.89908,-4.98792 c 12.23184,-13.97035 -14.1208,12.55591 0,0 z M 449.86399,672 c -16.27731,11.68813 -13.09204,20.48996 0,0 z m 348.0839,12.58736 C 780.65348,656.8275 688.2724,642.89645 760.88515,673.57661 c 5.71289,0.87923 40.29347,24.11843 37.06274,11.01075 z m 115.91263,3.63833 c -18.96178,-18.19565 -34.81327,-13.29739 0,0 z M 521.56623,669.53631 c 20.12703,-18.34903 -56.06106,35.26808 0,0 z m -54.91303,-1.51815 c 20.01874,-36.06731 -29.62916,39.40614 0,0 z m 35.90236,4.41363 -9.7783,6.07152 z m -67.22223,-4.48915 c 19.96282,-21.95655 -34.6016,30.90882 0,0 z m -10,-0.60931 c 28.49503,-30.46894 -32.43629,31.48947 0,0 z m 79.43968,-7.5054 c -15.66846,1.78024 -22.7979,21.60658 0,0 z m -4.08162,-3.3893 c -2.51374,-7.43959 -30.82983,30.49527 0,0 z M 912,666.45707 c -22.90711,-18.6752 -47.19988,-30.03257 0,0 z m -454.66667,-5.7904 c 8.97493,-11.77517 -12.82472,12.74823 0,0 z m 88,-0.0939 -5.35428,2.84694 z M 457.55096,645 c -24.30788,8.95642 -17.71715,22.82868 0,0 z m -23.46708,9.33333 c 12.21571,-13.63842 -14.78609,14.74134 0,0 z m 190.77649,-13.88474 c 39.09269,-38.35807 -51.93826,37.39967 0,0 z m 6.90351,7.6124 c 25.07048,-22.18006 -35.97341,21.72118 0,0 z m 8.06531,3.79877 c 29.0705,-23.22736 -25.38759,7.50542 0,0 z m 229.50414,0.20065 c -23.47506,-37.02771 -91.51786,-29.83665 -24.46611,-9.05999 7.64762,-0.85525 18.55905,18.19144 24.46611,9.05999 z M 500,647.33333 c 13.97914,-16.39267 -17.88159,17.39299 0,0 z m 31.09039,-2.9554 c -12.15543,-0.35514 -14.50034,15.16582 0,0 z m 73.57628,0.17343 c 54.00784,-38.33808 4.47232,7.63282 -5.21253,4.11429 l 3.47723,-2.74461 z m 52.88796,1.78197 c 32.03386,-28.91095 -31.00004,22.92616 0,0 z m 15.24369,-0.62445 c 6.81031,-23.59508 -22.59184,23.7423 0,0 z m -192.62824,2.62445 c 3.72915,-6.49289 -7.97608,9.61094 0,0 z m 113.9138,-2 c 12.55705,-13.25054 -18.8919,16.14521 0,0 z m -1.41721,-3.03989 c 22.11429,-19.16425 -43.82352,23.12232 0,0 z m 90.9132,4.59973 c 11.74956,-10.75515 -23.46267,4.49151 0,0 z m -66.24654,-10.16582 -11.57382,9.34102 z m -95.97972,5.1683 -4.33574,2.78658 z M 585,638.31109 c 41.49789,-23.68581 -55.08014,25.42342 0,0 z m 28.33333,-8.71897 -12.4632,10.51546 z m -152.4023,0.64383 -9.31779,7.42065 z m 251.66922,8.53817 c -12.11309,-12.29838 -19.94158,10.86677 0,0 z m -49.74796,-2.72976 c 7.28439,-10.28604 -17.1744,11.35665 0,0 z m 35.11703,-0.0107 c -2.55993,-14.90094 -17.70115,8.94165 0,0 z M 548,634.55676 c 12.33116,-9.49465 -19.13344,10.41344 0,0 z m -3.82309,-3.31307 c 22.59242,-12.73781 -23.61776,8.92039 0,0 z m 100.62345,-2.88777 -8.77269,5.68062 z m -172.20504,-1.02259 c 14.60671,-20.59547 -20.77576,23.02861 0,0 z M 536,629.29595 c 13.71386,-9.1835 -27.8385,8.80134 0,0 z m 150,1.37072 c -4.91006,-5.74418 -6.43694,5.93961 0,0 z m -19.44444,-3.51394 -5.46414,2.47873 z m 239.18649,-5.94054 c 3.83964,-56.46777 -85.5746,-26.39745 -19.57534,-24.44583 6.14436,0.69552 18.78389,39.74691 19.57534,24.44583 z m -400.48358,-5.54552 c 47.50738,-28.59116 -55.90709,7.86335 0,0 z m 59.4082,-1.3882 c 18.8624,-21.03367 -47.86499,18.64847 0,0 z m 153.19425,-4.63136 c -30.07729,-15.69086 7.50801,19.59445 0,0 z M 782,611.94885 c 15.81974,-7.62486 9.20915,-10.31124 -13.56391,-0.13802 z M 490.21553,607.05629 C 426.1342,558.86016 363.27085,504.23084 356.07718,419.92298 c -2.66721,-48.13131 -3.87721,-48.33476 -8.67963,2.95035 -8.26691,85.8243 58.37095,162.33394 135.65735,187.18236 z M 700,608.66667 c 8.97493,-11.77517 -12.82472,12.74823 0,0 z m 70.66667,-6.4573 c -40.32421,-33.22699 -21.63148,28.53835 0,0 z M 676,608.66667 c -2.20068,-7.52866 -11.09348,10.99617 0,0 z m 14.66667,-1.42716 -5.35429,2.84691 z M 818.88768,606 c -33.24486,-23.74446 -49.48341,-2.7627 0,0 z m -285.55435,-9.92509 c -12.97917,-13.71502 -21.55366,9.82826 0,0 z m 60,-6.20874 c 41.4183,-17.50415 -50.7875,17.55945 0,0 z m 15.02211,3.58527 c 13.48276,-12.15382 -6.29299,14.1706 0,0 z M 578,589.33333 c 31.84194,-19.73305 -42.49842,18.60949 0,0 z m -62.13692,1.81251 c -34.77579,-32.81145 -85.60334,-21.24616 -16.51289,-0.40967 l 8.29907,2.33952 z m 350.18444,-10.1818 c 54.72184,-55.32268 63.55326,-143.72449 45.89648,-215.48997 -23.8656,67.1522 -21.93156,122.40199 -36.99813,189.74123 -0.41421,34.08349 -42.58133,98.13578 -14.43857,30.21611 l 3.44846,-2.78067 z m -302.63989,5.47604 c 17.72928,-13.61966 -44.92105,19.81598 0,0 z m -14.00808,-0.47432 c 11.15853,-10.63322 -25.1983,8.29839 0,0 z m 298.90264,-5.38988 c -20.31852,-46.23378 -37.99282,34.65921 0,0 z M 754,582.66667 c -8.83281,-6.01132 -7.41549,5.71549 0,0 z m -220.66667,-1.33334 c -6.43694,-5.93961 -4.91005,5.74418 0,0 z m 19.33334,-10.15857 c -35.39763,-11.69246 -102.98374,-19.06949 -31.75665,-0.59188 1.72731,0.005 59.57241,6.18033 31.75665,0.59188 z m 230,-6.49349 c 46.09416,-40.835 -54.71069,14.68447 0,0 z M 847.97208,564 c 72.36156,-88.21204 -59.4681,10.3 0,0 z m -18.9218,-4.73372 c 39.083,-35.06767 -31.037,16.511 0,0 z m 38.78472,2.93253 c 17.79092,-30.8798 -11.02571,-3.9502 0,0 z m -48.13835,-13.86548 c 36.32246,-52.82024 4.87149,14.90107 -5.67916,6.91083 1.89305,-2.30361 3.78611,-4.60722 5.67916,-6.91083 z m -73.76836,5.37274 c 0.82825,-8.66619 -7.05584,11.8908 0,0 z m 12.12654,2.20522 c 0.98285,-7.32247 -5.98957,6.35588 0,0 z M 447.45328,544.60423 c -42.64585,-32.45486 27.76526,35.39538 0,0 z m 340.24336,1.5495 c 15.72294,-18.10528 1.56168,-13.65014 -14.84275,6.32286 z m 21.62341,-0.33816 c 9.23603,-35.60379 -18.34606,27.61962 0,0 z M 526,549.22944 c -42.94531,-19.00064 -62.45091,-12.69848 -8.66358,1.58375 -0.0837,1.18461 30.69406,4.9564 8.66358,-1.58375 z m 298.55453,1.91531 c -0.49287,-5.48142 -5.60662,9.01214 0,0 z m -139.7173,-3.80544 c 24.29211,-15.15626 -51.40191,16.06944 0,0 z m 33.4961,-5.74828 c 24.1911,-39.46764 -45.02463,32.44244 0,0 z m 39.91407,6.17656 c 10.02701,-14.42672 -13.37526,10.968 0,0 z m -6.42684,-8.96547 c 5.70662,-26.27874 -26.09483,35.27738 0,0 z m -29.48723,6.54583 c 18.9379,-19.35653 -16.94557,7.02229 0,0 z m 120.61748,-4.57508 c 26.06763,-30.03273 15.30995,-65.94451 -0.30346,-12.87997 -0.92741,0.55782 -17.45633,31.43418 0.30346,12.87997 z m -134.28414,-4.00762 c -4.84194,-5.21291 -24.27321,20.45412 0,0 z m 34.77837,-5.7581 c 72.30314,-88.00228 -29.87646,20.74974 0,0 z m -319.47764,3.32618 c -29.47158,-77.41544 -44.83104,-9.69631 0,0 z m 188.36593,2.11696 -3.25312,0.0636 z m 52.33334,-3.95034 c 67.37402,-24.1705 -40.95916,7.44194 0,0 z m 147.81752,-0.91678 c 33.76223,-37.41976 -21.58034,6.06752 0,0 z m -18.46279,-3.1906 c 38.24267,-33.0253 -28.70558,10.66169 -2.74445,1.1174 z m -109.36417,2.28936 c -3.74989,-2.84959 -4.29561,5.012 0,0 z m 29.93878,-3.04674 c 39.82866,-24.47192 -33.42072,12.76634 0,0 z m 46.63771,-9.17048 c 8.68315,-24.46147 -31.71453,45.29038 0,0 z m -166.80528,7.18381 c -21.44934,-11.9991 -29.49842,15.09607 0,0 z M 790.66667,520.923 c 43.35721,-5.15821 44.73942,-79.75169 7.0361,-25.22314 -4.01031,4.59092 -40.12381,53.89643 -7.0361,25.22314 z m -228.32703,5.41033 c -14.85404,-8.40849 -13.36468,5.6582 0,0 z m 87.55573,-1.55829 c 86.33408,-32.64375 -26.42794,-30.45571 -40.86412,2.05874 13.07432,5.25949 27.69325,-0.0641 40.86412,-2.05874 z m 54.3052,-5.88537 c -8.98071,-2.57385 -13.37579,19.73252 0,0 z m 159.74606,-1.72778 c 8.33637,-25.3076 -15.49435,31.59388 0,0 z m -89.1018,-0.49522 c -6.49919,1.06372 -6.86841,16.21369 0,0 z m -264.17162,3.34557 c -19.54613,-24.87824 -26.21887,-11.26516 0,0 z m 95.1423,0.65443 c -1.21747,-7.44344 -4.24125,7.80148 0,0 z m 136.92293,-4.2145 c 13.97431,-15.0472 -16.95784,14.94669 0,0 z m -45.10388,-10.9577 c 43.12768,-47.46157 -48.47274,27.60206 -11.21307,7.78797 z m 138.01048,6.74638 c 33.70044,-47.82832 -25.98081,14.96998 0,0 z m -11.56256,-7.10665 c -2.87287,-18.29716 -22.10865,36.68234 0,0 z M 562,512.08325 c -47.0238,-38.1902 -62.34583,6.58741 0,0 z m 134.49665,1.19918 c 37.83118,-22.61819 -24.38933,7.13784 0,0 z M 720,510.58785 c 20.86775,-19.4735 -25.73651,18.33061 0,0 z m 66.76284,-13.70074 c 3.84478,-26.3611 -26.51523,45.0368 0,0 z M 748.5624,507 c 31.25431,-27.37997 8.07413,-16.73606 -7.59407,4.44485 z m -13.19271,-5.40808 -7.89366,6.64318 z M 590,501.28433 c -53.02414,-10.82944 25.9732,10.70988 0,0 z m 137.48893,-8.951 c 36.3697,-41.02067 -35.28932,31.12582 0,0 z m 13.76995,-5.25666 c -21.8716,-7.17104 -21.34549,42.17486 0,0 z M 508,492.00384 c -21.31394,-59.58672 -34.41794,3.28293 0,0 z m 138,-5.44172 c 48.89716,-43.99702 -45.42993,31.72021 0,0 z m -1.33333,5.31237 c 7.22102,-10.87815 -30.19557,28.01064 0,0 z m 14.75512,5.34668 c 56.65735,0.67888 33.2611,-56.64613 -4.94182,-11.37568 -10.05212,2.13937 -16.9661,27.08599 4.94182,11.37568 z M 558.2244,492.33333 c -14.88236,-37.95664 -40.52279,22.56551 0,0 z m 70.92229,1.61911 c 37.48712,-36.95472 -26.15853,15.85371 0,0 z m 123.59308,-2.00273 c 26.14365,-21.4589 -22.74136,12.33342 0,0 z m 89.86648,-0.54358 c -0.63638,-8.69031 -12.72898,16.45262 0,0 z m -390.05549,-3.0728 c -13.64324,-39.38215 -27.65196,-22.73399 0,0 z m 163.65256,1.80996 c 65.74845,-33.92993 24.49767,-68.03124 -18.8937,-24.52268 -11.45575,13.78334 2.06345,31.89549 18.8937,24.52268 z m 82.46335,-3.29705 c 43.49669,-32.33495 -38.24431,18.33958 0,0 z m 108.69794,-5.69131 c 35.31222,-37.04463 -42.28742,34.22596 0,0 z m -223.3734,2.51174 c -1.872,-16.69077 -5.70582,19.9729 0,0 z m 138.00411,-0.99095 c 19.37547,-31.01709 -13.81872,6.76604 0,0 z m 49.30459,-11.39784 c 23.18865,-35.03074 -47.17887,43.10731 0,0 z m 16.65573,6.51181 c -15.02655,10.48895 10e-4,6.22023 0,0 z m 5.4974,1.98663 c 0.76253,-9.52259 -9.74454,18.53629 0,0 z m -214.21297,-0.66373 c 23.44602,-48.89014 -39.50608,5.22971 0,0 z m 157.89904,-3.58328 c 31.63656,-41.32821 -25.37183,12.95931 0,0 z m 111.37332,4.72025 c 18.36708,-43.96346 -18.70164,13.54487 0,0 z M 405.96997,469 c -9.60671,-56.39845 -20.54843,-23.5087 4.85572,9.63904 z m 139.36336,7.82992 c -7.29424,-46.1598 -42.52876,8.27487 0,0 z m -71.98408,-9.41223 c -41.46144,-69.74585 -1.03085,40.2331 0,0 z M 768.22581,462 c 36.09594,-39.36639 5.61457,-52.71565 -11.20176,-1.67139 -14.23869,14.3776 6.79563,24.14867 11.20176,1.67139 z m 28.82534,4.34003 c 15.60581,-27.51732 -28.53826,27.60343 0,0 z m 22.28218,-1.13939 c 35.18429,-36.20668 -47.10788,28.14178 0,0 z m -94.41741,4.46603 c 29.97964,-38.70581 -19.62796,11.71267 0,0 z m -200.29051,-8.11882 c 20.414,-48.55917 -33.15741,22.43651 0,0 z M 557.33333,465.5 c -7.60756,-23.02792 -8.28522,16.69092 0,0 z m 99.67355,-5.80757 c 26.14637,-49.82958 -24.75779,33.57403 0,0 z M 508,460.72843 c 33.21561,-53.2328 -76.99286,-65.32514 0,0 z m 167.74924,-6.76691 c 36.84754,-53.50974 -49.67048,35.32425 0,0 z m -77.00828,6.61731 c 13.45394,-11.58424 -19.01067,8.00475 0,0 z m 127.1342,-6.07447 c 23.09151,-51.15356 -94.18177,16.23312 -13.79839,5.62314 2.57541,8.27349 17.22436,5.28744 13.79839,-5.62314 z M 793.50472,457 c 2.80576,-8.48832 -7.52716,11.22732 0,0 z m -48.78679,-3.74961 c 13.15856,-32.64717 -14.66912,14.62563 0,0 z m 39.49334,-3.25047 c 2.11135,-12.06084 -14.03503,23.23128 0,0 z M 429.2732,446.13991 c -18.33276,-90.80823 -27.81436,4.95575 0,0 z m 388.73137,4.75356 -6.62193,5.39061 z M 758.95767,449 c 15.75906,-30.1245 -15.87872,18.30394 0,0 z m -130.87582,-6.31001 c 59.71829,4.61814 39.35062,-80.83961 -0.23407,-22.8492 -16.74644,11.99664 -39.83301,45.21052 0.23407,22.8492 z m 174.37214,0.97668 c 15.98572,-28.25523 -15.10284,13.69606 0,0 z M 863.11084,445 c 12.0044,-36.63257 -12.93974,-23.88636 -1.87247,2.83585 z m -273.89615,-3.79648 c -14.5757,-23.92087 -22.20238,22.38927 0,0 z m 298.1511,-32.77031 c 29.15704,-34.28563 -15.8953,-146.34558 -9.91854,-49.23426 -6.74641,22.02234 -11.37285,116.36058 9.91854,49.23426 z m -284.64822,33.90012 c 44.43465,-31.66051 -12.25414,-19.96759 0,0 z M 469.53225,430.33015 c -21.75607,-90.76773 2.79369,144.93336 -2.68681,9.47287 z m 85.114,12.00318 c -2.9547,-13.74341 -14.30655,8.18552 0,0 z m 212.02042,-20.82218 c -25.98115,-18.12829 -8.3413,48.07651 0,0.49383 z M 827,432.06192 c 32.24924,-43.86065 -36.8712,41.71193 0,0 z m 7.62688,3.60475 c -6.88377,-19.20704 -6.51896,26.86727 0,0 z m -287.48147,1.87432 c 7.82657,-22.7128 -15.14812,-0.46117 0,0 z m 285.0637,-20.74104 c 27.44803,-74.05011 -22.83279,37.44802 -3.82873,5.00541 l 2.69141,-3.51856 z m -298.37578,12.36672 c 2.50344,-27.12831 -17.16445,14.23133 0,0 z m 313.74783,-12.69662 c -8.32687,10.80416 -0.47097,27.13606 0,0 z M 383.93169,380.66667 c 9.50299,-26.75318 48.19917,-142.88096 0.93919,-65.00608 -14.80858,20.51716 -5.53503,170.74009 -0.93919,65.00608 z m 363.95138,45.66666 c 31.40136,-44.31532 -17.03063,13.70391 0,0 z m -152.7883,-0.89477 c -12.45415,-5.96456 -13.32216,9.43687 0,0 z m 140.46315,-5.6408 c -38.62549,-71.53567 -55.93062,47.47026 0,0 z m -44.87083,4.16407 c 22.05408,-42.62353 -26.46187,12.32638 0,0 z m -80.55693,-2.27612 c -16.64246,-0.64275 -3.2509,5.51513 0,0 z m -84.99467,-0.53107 c 2.33778,-14.37409 -11.12104,7.07694 0,0 z m -40.2439,-21.91273 c -23.55295,-9.03551 4.1926,56.43692 0,0 z M 463.98317,401 c -17.91204,-5.46263 -10.07175,34.13554 0,0 z m 289.47816,12.43313 c 42.03995,-51.30659 -82.54421,-55.09909 -22.39004,-20.46665 8.77499,2.39381 9.67603,32.38568 22.39004,20.46665 z m -175.72845,1.7533 c 62.91093,-47.22582 -31.74918,-49.58181 -8.2103,2.56503 z m 205.81319,-13.41814 c -17.31837,1.68851 -0.67974,26.4965 0,0 z m -178.85771,9.41808 c 9.34005,-16.99594 -26.77198,20.25635 0,0 z m 14.36539,1.41286 c 39.0833,-30.07008 -37.23283,9.43433 0,0 z m 168.64158,-2.68168 -3.41023,4.60237 z m 36.24694,-12.69928 c 7.49702,-43.18207 -17.1132,51.47755 0,0 z m 24.72153,12.97322 c 7.8886,-28.22458 -13.16007,13.52623 0,0 z m -343.64625,-5.92658 c -16.53564,-33.78616 4.66118,21.3397 0,0 z m -49.26594,-4.69532 c 32.97864,-37.94384 8.50857,-103.93528 -12.22369,-30.18715 -1.69645,7.51412 -5.1909,58.44895 12.22369,30.18715 z m 81.99352,-7.90527 c 16.32531,-65.87567 -30.46869,-3.90933 -11.84176,14.63598 l 4.90085,-4.94554 z m 110.49404,7.38083 c -11.01422,-8.60465 -13.18556,20.92864 0,0 z m 45.09416,2.12493 c -6.77691,-8.06121 -2.2033,16.81076 0,0 z M 399.55292,368 c -1.43116,-54.18821 -13.66126,85.61667 0,0 z m 24.34192,21 c -1.44411,-54.07411 -7.69016,54.75227 0,0 z M 610,399.96007 c 47.03466,-37.33522 -35.11175,11.98426 0,0 z m 257.46696,-17.06219 c 26.82439,-35.7293 -29.3024,-150.88098 -43.09541,-105.61453 10.79976,38.40834 33.01917,145.81453 38.57721,120.93075 z m -87.1918,15.45393 c 34.63569,-31.7598 -27.50619,9.57352 0,0 z M 561.37259,374 c 26.13544,-79.61572 -34.33981,39.98734 -7.37686,12.15526 z m -82.50766,19.71277 c 7.29113,-26.76274 -16.11035,4.20841 0,0 z m 134.61394,-4.84214 c 64.7155,-22.80085 -16.20001,-54.26851 -8.71783,6.45839 z m 18.1878,4.14548 c 2.94544,-17.81563 -21.10039,16.99887 0,0 z m 215.04154,-5.34944 c -5.755,1.16199 4.80111,15.73499 0,0 z m -284.86613,4.93074 c -2.11147,-4.70653 -1.91236,7.47459 0,0 z m -62.95012,-7.74816 c -3.40468,-8.6461 -12.99602,23.47024 0,0 z m 159.72709,2.32006 c -10.84378,-10.9004 -15.35835,14.3344 0,0 z m 19.35679,0.86978 c -12.11613,-10.82663 -25.40296,10.58035 0,0 z M 708.11537,383 c 36.73323,-84.04614 -66.13082,-1.7677 0,0 z m 65.89375,-6.61935 c 1.51147,-41.56826 -65.29116,-33.38867 -15.21515,-6.10067 -1.679,0.88947 18.21012,28.45244 15.21515,6.10067 z m -278.73341,5.57291 c 41.45877,-40.15492 -29.95994,-21.06176 0,0 z m 77.4512,-11.62023 c 44.6806,-46.15924 6.96792,13.93628 -4.32832,6.06154 l 2.57429,-3.60514 z M 420.27381,370 c 20.96945,-53.02921 -20.2216,16.10538 -0.61269,0.80175 z m 102.39542,2.06019 c 4.45459,-17.95783 -10.68536,18.85479 0,0 z m 74.83528,-7.10135 c 28.35876,-29.56969 -52.03539,35.4171 0,0 z M 828,372.36576 c -2.05357,-14.85714 -2.36636,20.98231 0,0 z M 674.94189,360.4968 c 3.90522,-44.71423 -26.61741,37.92328 0,0 z m -161.75724,0.16987 c -7.16603,5.04766 0.11836,11.73331 0,0 z m 96.14868,-14.97676 c -30.02289,0.002 -27.72364,36.74878 0,0 z M 681.31292,365 c -7.01308,-10.1594 -2.79171,14.68179 0,0 z m 171.48847,-0.27124 c -6.07712,-12.29845 1.65865,13.592 0,0 z M 504,350.72484 c 50.63017,-33.45983 24.05248,-68.09096 -16.13813,-25.36077 -11.21372,15.03814 -9.99927,66.16378 16.13813,25.36077 z m 315.42633,-12.96327 c -9.20069,22.93425 7.32335,29.59738 0,0 z m -293.03988,23.67262 c 31.94127,-18.16127 36.46163,-59.06098 5.30585,-13.53644 0.85706,-2.04686 -21.14811,24.85318 -5.30585,13.53644 z m -97.4304,-24.52899 c 20.40076,-31.68298 71.83697,-117.7993 7.53521,-49.4632 -16.88501,14.18868 -42.549,110.26189 -7.53521,49.4632 z m 223.61559,16.42813 c -3.13355,-10.43301 -2.54864,25.75138 0,0 z m -281.30916,-10.66666 -2.58562,11.29203 z m 260.40419,6.88969 c 42.70834,-25.53847 -54.73356,19.96642 0,0 z m -86.24939,0.95344 c 1.72114,-9.17711 -10.21687,14.84307 0,0 z m -7.39455,-13.36753 c 41.58236,-44.79598 -46.36947,38.86302 0,0 z m 28.48326,7.19106 c 46.14308,-22.7511 38.39103,-52.75941 -2.68262,-13.82719 -8.66495,5.74317 -16.61349,28.32413 2.68262,13.82719 z M 457.26481,331.29376 c 26.79804,-21.06382 67.86184,-67.38097 11.23521,-27.53942 -17.26801,-1.66976 -36.67441,61.09644 -11.23521,27.53942 z m 164.06852,11.37291 c 3.66527,-5.54025 -11.04359,6.4855 0,0 z M 780,339.43589 c -20.80097,-30.53258 -47.82429,3.72997 0,0 z m -181.56908,-2.6268 c 46.5432,-36.70932 -35.63347,-12.29074 -3.37124,0.50878 z m 86.54131,-4.28132 c -4.50497,-3.7585 -1.88247,3.3428 0,0 z M 728,331.47788 c -38.17703,-11.18627 -48.44506,12.64305 0,0 z m -93.93616,-1.85045 c 46.05484,-47.83649 -61.81202,-10.56841 0,0 z M 487.93912,309.78256 c -21.63807,0.22794 -22.5264,34.08109 0,0 z m 53.87571,14.37364 c 89.69021,-45.92882 -15.89737,-18.11463 0,0 z m 43.87894,-11.83019 c -26.44864,-3.97257 -23.30014,32.48747 0,0 z m 73.49691,13.56494 c 12.72146,-31.28437 -19.49004,-16.22752 0,0 z m 28.32832,-2.29884 c 3.99979,-37.86172 -29.13032,11.28895 0,0 z m 17.81065,-2.11759 c 2.24697,-12.17966 -21.15243,7.13327 0,0 z m 50.76138,-5.49476 c -32.47113,-21.53042 -6.5858,18.95188 10e-6,1.8e-4 z m -25.79202,-4.98509 c -46.0292,-40.02786 -24.92205,25.842 0,0 z M 424.16551,297 c 17.65356,-21.22767 57.61266,-68.59148 7.58476,-31.21446 -11.7067,4.27025 -28.00559,71.11857 -7.58476,31.21446 z m 48.59004,-0.59343 c 34.37534,-24.99329 98.54247,-59.02507 99.19327,-66.86692 -11.55383,-18.70931 -169.03143,106.59366 -99.19327,66.86692 z m 32.39549,11.67366 c 67.0668,-24.58189 174.62142,-48.98469 45.42161,-34.99895 -18.72135,3.51264 -46.95717,10.44419 -45.42161,34.99895 z m 269.97708,-3.53962 c -43.35497,-52.30743 -55.3823,-6.39806 0,0 z m -226.45703,-1.88112 c -6.13863,-3.41751 -5.88466,11.47877 0,0 z M 386.07596,289.33333 c 31.93325,-57.51001 -3.28803,-16.33956 -5.6964,15.8935 z m 197.22072,9.79554 c -4.13275,-8.25918 -16.93411,20.50614 0,0 z m 14.30608,-1.55144 c -28.17378,3.03122 -5.83861,9.88521 0,0 z m 91.40412,2.08924 c -20.03213,-7.2397 -9.42541,3.54169 0,0 z m -274.21101,-25.3745 c 44.23104,-52.4395 -56.31494,53.06695 0,0 z m 401.2214,18.41991 c -5.5039,-30.00984 -67.48116,-87.97581 -20.12249,-28.32162 4.75352,6.58959 11.77964,30.92984 20.12249,28.32162 z m -325.6084,-27.18251 c 28.89236,-14.51219 83.41419,-49.99539 17.83977,-29.2786 -27.94663,4.4344 -73.73116,88.95362 -17.83977,29.2786 z M 636,287.97247 c -54.88102,-26.28309 0.96736,18.50243 0,0 z m 36.10905,1.36086 c 50.00744,-21.97033 -74.66158,-6.38357 0,0 z m 39.59199,-0.0876 c -23.15832,-17.45613 -11.40317,9.74251 0,0 z M 878.53635,285 C 869.64403,247.39071 747.63836,177.21697 826.58308,240.59525 845.43979,253.54717 860.68091,270.83122 878.53635,285 Z M 444.52681,232.74855 c 32.2267,-30.40002 56.18233,-59.20794 1.70596,-23.20272 -33.94558,15.06677 -64.40438,105.11952 -12.99511,36.16875 3.76305,-4.32201 7.5261,-8.64402 11.28915,-12.96603 z M 520,279.13308 l -6.04581,3.67116 z m 92,3.53359 c 1.4435,-5.93415 -9.43977,6.50639 0,0 z m 109.32835,-2.33334 c -15.40035,-25.92468 -43.69966,4.52006 0,0 z m -211.52402,-3.5248 c 36.84596,-19.46056 -29.28162,11.07683 0,0 z m -47.36316,-16.64266 c 63.72557,-49.54069 -43.32441,25.61731 -8.60153,7.26779 z m 91.38984,2.70976 c 31.93621,-17.22895 -50.30917,16.87109 0,0 z m 120.09018,0.4577 c -23.59992,-26.73715 -132.2003,5.63766 -49.66265,-1.00836 16.62092,-1.36629 33.12551,4.94768 49.66265,1.00836 z m 20.74548,-2 c -10.81957,-7.23519 -2.16951,5.72266 0,0 z M 469.29792,240.27251 c 33.49468,-15.08514 103.0462,-61.86208 24.05889,-31.59445 -27.36483,7.25321 -86.87784,72.62592 -24.05889,31.59445 z M 775.83776,257 C 760.32736,218.06901 686.5362,217.29542 662.8641,223.04201 701.6763,230.29342 737.65656,247.53824 775.83776,257 Z m -217.21445,-7.64455 c 29.58436,-21.21808 165.77673,0.14341 67.55974,-17.75931 -22.80537,1.74651 -48.34488,4.38579 -67.55974,17.75931 z m -146.45323,-9.02212 c 3.72915,-6.49289 -7.97608,9.61094 0,0 z m 74.20789,-31.92753 c 28.94367,-17.7982 156.97402,-37.3345 60.19778,-38.49206 -27.65616,-12.82201 -144.54524,96.98219 -60.19778,38.49206 z m 18.95,16.93136 c 11.51007,-11.76324 -39.18584,21.5779 0,0 z m 22.00536,-2.03564 c 41.62285,-6.15418 174.13773,-12.03741 156.91452,-14.88972 -35.65236,-17.91353 -184.94813,1.68989 -156.91452,14.88972 z m -38.66666,-40.73219 c 27.0342,-24.92053 171.83757,-37.13576 74.43277,-32.2645 -41.33887,-8.56729 -176.5549,90.1029 -74.43277,32.2645 z m 78.24373,16.82958 c 33.9143,-13.90029 156.41338,6.99315 132.84354,-1.28865 -4.5651,-16.99976 -196.88832,-1.42415 -132.84354,1.28865 z m 183.21224,-0.60774 c -23.21386,-27.2047 -94.70921,-23.89441 -27.97472,-4.86381 4.21582,-0.12804 44.09348,21.59564 27.97472,4.86381 z m -83.45597,-15.34153 c -24.08063,-16.09461 -98.05979,0.68715 -32.06922,-1.453 l 16.02612,0.9403 z m 32,-16.80944 c -31.44931,-19.83068 -180.78242,-1.8652 -76.15646,-1.88165 25.34563,1.42871 50.76389,3.44563 76.15646,1.88165 z m 78.95338,1583.6931 c -6.68073,-63.7395 -194.14119,-20.5405 -96.16993,-51.2061 32.29685,-2.8619 107.32956,2.323 96.16993,51.2061 z m -76.95338,-71.6152 c -102.56099,9.4083 -154.78305,-95.4165 -170.57887,-180.6949 0.26183,-70.3257 -100.46952,-96.143 -98.39998,-55.1919 22.67203,-32.3181 40.47248,-72.6337 48.05481,-43.3779 88.48104,-31.4895 171.58347,21.7623 251.92633,47.586 82.04634,-1.7503 162.23812,-32.9762 240.73988,-51.4556 37.77956,-30.3603 -44.74835,-109.896 18.23404,-54.257 39.78522,28.3447 48.30902,57.8472 -0.76606,24.3969 -47.48546,70.2207 -90.57705,149.8517 -108.69052,236.3675 -21.11667,76.7903 -114.1056,88.3377 -180.51963,76.6269 z m 111.05646,-9.4092 c 42.323,12.0418 42.41697,-74.3625 22.60556,-15.7774 5.68087,-68.6452 -48.38359,27.7346 -30.52469,-12.5108 -33.84484,-59.2165 -62.92198,70.3697 -49.69977,-7.804 -39.40852,-44.5546 -68.17774,68.3197 -47.92091,-0.5274 -31.2335,-57.8583 -57.40664,55.25 -49.87357,-14.4131 -33.83737,-39.2402 -99.93267,6.723 -30.68558,33.4147 55.87364,28.4349 125.29152,18.3672 186.09896,17.618 z m 54.45774,-50.9756 c 5.76326,-63.1352 84.00507,-160.0786 57.99558,-195.7426 -42.05104,6.0888 -33.22201,91.715 -86.03622,54.4142 18.29868,59.2297 -0.29842,133.9841 -74.76027,100.3983 -24.69942,-24.6227 -25.1857,-106.8723 -29.75799,-33.493 -22.7111,48.913 -162.57297,34.2796 -91.23302,-24.5523 41.07497,-52.8 -12.86431,-87.4886 -41.50018,-34.1772 -36.63096,-13.4494 -36.57024,-32.4659 -74.34901,-12.2615 34.68266,56.4757 30.36671,157.3235 121.73781,130.7455 69.35759,18.7637 157.50635,9.4154 216.76853,18.1643 z m -92.84754,-47.0657 c 81.65678,41.1041 81.98325,-141.1555 0.2909,-85.0068 -53.67639,-6.9728 -12.73604,76.7219 -0.2909,85.0068 z m -56,-9.816 c 46.85139,-61.0718 -29.77529,-132.8238 -68.749,-56.1344 -56.91385,73.4226 20.18156,53.7841 68.749,56.1344 z m 69.60104,-81.5747 c 38.69925,-14.6928 138.13307,-59.6457 141.84796,-65.9912 -90.79454,16.1758 -197.70653,76.9709 -280.56141,9.8682 -29.17018,-16.6828 -110.41376,-29.7395 -126.77026,-20.0942 90.8534,16.3945 170.2927,82.3428 265.48371,76.2172 z m -175.51002,-15.1885 c 1.93234,-64.4656 -75.79705,13.4122 -1.92006,12.2015 z m 251.90898,8.4304 c 67.34059,-19.9757 -51.2894,-26.9881 0,0 z M 558.68128,1461 c 43.149,-86.4747 -88.21472,-8.1356 0,0 z m -34.98813,-14.9503 c 35.45109,-43.9932 -77.59045,-44.0759 -10.14609,-8.2532 1.18762,0.7079 10.04642,31.3785 10.14609,8.2532 z m 489.76455,144.3732 c 31.325,-52.852 -2.0924,13.5886 0,0 z m 22.5473,-37.4562 c 5.3052,-16.3416 16.0632,-23.4687 0,0 z M 730,1345.3333 c 10.19294,-10.2805 -6.37526,9.2637 0,0 z m -68.66667,-114.3702 c 3.35755,-10.6983 9.05407,-31.1978 44.37396,-18.7765 15.48264,30.6124 -35.89836,-1.4182 -44.37396,18.7765 z M 528.84044,1217 c 32.88131,-29.553 17.58014,-43.5247 -13.96086,-12.037 69.90356,-45.5772 -74.71915,1.5497 7.06157,-27.4366 33.37472,-15.9753 72.34876,-3.9788 23.29573,24.3386 -0.56264,-1.7356 -17.99101,25.668 -16.39644,15.135 z m 276.45012,-6.6667 c -5.41973,-66.521 39.01927,-35.1486 76.41263,-42.7966 -8.3508,-50.3686 -56.41646,-0.9685 -60.28447,-37.8134 -34.23267,2.1587 -76.80705,45.1691 -43.35838,-15.1013 13.66701,-46.433 130.75213,-64.9958 106.90157,-100.5778 -23.63253,7.8169 -42.25398,59.0833 -25.382,10.4246 -24.68389,-4.5439 -42.24305,73.2887 -32.42863,18.1979 -49.31378,56.5352 10.51871,-53.59164 32.88189,-29.1366 42.67644,-25.24665 202.31663,-5.722 96.87319,30.0712 25.09657,52.671 97.13164,-53.15165 43.34904,23.7049 30.6093,5 83.0988,-44.6554 26.1758,5.6967 8.5323,30.3785 124.2189,-9.2893 44.8931,16.9501 25.9765,3.9051 -40.1769,16.22 -2.1068,28.0546 -37.9059,-41.7725 -70.63074,2.6827 -67.6732,9.5313 -32.80416,-40.9767 -20.51039,63.8251 -43.04601,1.093 -21.83973,-1.4966 -50.98638,61.8555 -36.50874,9.1327 -55.33725,-11.9468 4.38097,79.8729 -64.07479,41.551 52.41516,21.2153 9.03877,18.1648 -29.13955,6.6981 -11.33497,4.0199 -13.61721,18.2687 -23.48465,24.3196 z m -5.20503,-88.9376 c 70.24182,36.5451 56.83138,-104.7928 9.29218,-31.4083 -13.88019,9.8917 -49.84394,66.9726 -9.29218,31.4083 z m 113.2478,11.9376 c -18.69551,-5.6969 -25.14246,6.9139 0,0 z m -8.55557,-11.8502 c 48.75372,-33.607 -13.80231,-23.3598 -3.87519,1.1862 z m 46.55557,1.2129 c 57.80557,-3.3467 81.53327,-54.6445 11.73452,-59.2263 -76.22843,-38.5303 -8.14206,33.3551 -36.76217,61.5583 l 8.52166,-0.2101 z m -28.63992,-4.7282 c 3.6838,-9.4686 -8.93372,8.7914 0,0 z m -18.59125,-8.4559 c 56.56504,-54.1663 -74.36312,-22.9719 -27.20634,-18.8913 56.80533,-21.1142 -18.86374,49.2523 22.49239,24.2728 z M 886.66667,1104 c 3.44266,-28.3042 -24.94026,16.1111 0,0 z m -26.11596,-16.0639 c 71.6129,-57.6715 -32.45949,-11.1758 0,0 z m 90.20472,-43.8471 c 63.92467,-44.53322 -78.67692,-3.1309 -2.20202,1.3237 z m -38.44174,-6.1483 c 66.41249,-55.60008 -72.50184,2.6427 0,0 z M 826.83675,1039 c 4.21676,-6.1135 -9.45147,8.542 0,0 z m 34.49658,-21.7397 c -29.40383,10.518 -22.17968,17.7543 0,0 z m -408.67785,171.4252 c -30.3289,-64.2233 36.208,2.6523 0,0 z m 20.56055,-6.1361 c -12.75938,-47.4494 28.84005,2.2706 0,0 z m 36.20522,-8.9021 c -20.04595,-40.0454 27.32722,-7.2427 0,0 z m -337.23328,-69.6812 c -7.62613,-32.9214 15.16547,-9.909 0,0 z M 980.93776,911.38797 c 27.60064,-27.04367 10.72931,8.88878 0,0 z m -252.05328,-24.7161 c -59.18006,-2.0548 -145.7539,-13.62169 -180.5647,-18.64023 71.43808,-11.64323 133.70222,20.63636 206.45423,9.24498 34.44475,1.13379 57.80768,9.22871 10.20088,8.40408 -10.67268,6.21464 -25.37581,8.51795 -36.09041,0.99117 z M 472.93479,831.60953 c -4.70811,-17.19898 -49.98574,-5.43812 -6.85731,-18.02593 52.45926,-4.24784 118.38157,-28.97991 178.11017,-6.8405 34.92504,-19.41728 94.36252,5.33421 119.44099,-11.77676 27.5546,22.15248 134.99106,5.99225 45.46369,21.55113 -80.0052,-23.89227 -146.77641,2.33158 -228.03004,-11.12078 -30.26896,16.96345 -84.49455,-8.69689 -108.1275,26.21284 z m 124.45469,-79.40308 c -5.32694,-35.82046 -57.5636,5.8453 -14.89787,-26.38869 50.27644,40.8094 94.58193,-18.91288 153.02246,8.34507 98.4971,-0.46789 -24.14396,20.01249 -57.69121,-1.03842 -33.66327,-16.99081 -53.6508,35.22858 -80.43338,19.08204 z" />
    <path
       id="path1040"
       style="fill:#000000"
       d="m 952.61724,1657.0813 c -23.46965,37.0341 -62.64125,59.26 -91.57978,91.2715 5.99747,11.0713 44.85179,-39.7391 67.56897,-51.0811 6.48361,-10.6699 31.54179,-30.2476 24.01081,-40.1904 z" />
    <path
       id="path1042"
       style="fill:#000000;stroke:#000000"
       d="m 845.47065,1760.0616 c -0.45053,0.7224 -0.47416,-0.7193 0,0 z" />
    <path
       id="path1044"
       style="fill:#000000"
       d="m 1166.4165,1343.646 c 10.2475,38.8589 -18.6551,75.152 -35.1294,60.1593 28.2671,48.0065 58.2627,-56.2067 52.6399,-88.8919 8.2161,-33.4408 6.8907,-119.6929 -13.1942,-43.7318 -5.0432,54.8178 -6.0881,117.5576 -45.2762,146.3534 37.9027,23.6981 91.6131,-66.2167 40.9599,-73.889 z" />
    <path
       id="path1046"
       style="fill:#d35f5f;stroke-width:1.19841"
       d="m 831.55458,2080.0907 c -56.00143,-4.1716 -108.8491,-29.4178 -165.49624,-19.1394 -72.5192,-10.1495 -148.93307,4.8243 -218.30886,-1.5518 25.28521,-35.3778 68.55011,-95.2855 80.71287,-119.5807 22.73016,28.0361 32.03129,44.7323 -3.83632,21.1431 -3.78427,34.983 115.3383,55.9716 47.7271,13.3022 -44.70881,-30.295 -61.58745,-116.4064 -9.243,-46.1704 87.5198,47.8954 -87.48295,-96.4588 -19.75426,-59.3036 18.42309,30.8374 100.44846,54.4509 28.2882,16.8253 -41.79172,-25.4817 -62.92346,-112.8206 0.13376,-49.2907 103.67818,58.9774 -80.64121,-54.3669 -29.28875,-71.7172 43.68284,7.5851 -22.3565,31.9475 31.16122,18.5887 51.23138,-7.1282 -6.22109,81.8093 37.86443,15.399 65.14665,31.7909 144.21425,-8.2655 211.05171,-22.7237 57.3437,5.7894 10.45945,123.5183 44.97454,168.3309 -0.10581,45.5961 59.06052,91.6133 54.34713,123.583 -30.78553,0.5091 -60.63556,10.803 -90.33353,12.3053 z m -292.6387,-31.7055 c -7.55322,-16.3252 -95.33631,-38.4184 -36.30748,-2.9723 11.49051,4.3536 24.26266,5.5217 36.30748,2.9723 z m 16.1846,-13.2232 c -16.43395,-8.6647 -73.52487,-79.8065 -39.69773,-11.2635 9.43879,11.6403 25.69947,14.7768 39.69773,11.2635 z m 17.48625,-10.0981 c -20.87855,-17.101 -87.27759,-74.1974 -40.67062,-11.1524 10.77704,9.9548 26.10251,16.5703 40.67062,11.1524 z" />
    <path
       id="path1048"
       style="fill:#d35f5f;stroke-width:1.19841"
       d="m 831.55458,2080.0907 c -56.00143,-4.1716 -108.8491,-29.4178 -165.49624,-19.1394 -72.5192,-10.1495 -148.93307,4.8243 -218.30886,-1.5518 25.28521,-35.3778 68.55011,-95.2855 80.71287,-119.5807 22.73016,28.0361 32.03129,44.7323 -3.83632,21.1431 -3.78427,34.983 115.3383,55.9716 47.7271,13.3022 -44.70881,-30.295 -61.58745,-116.4064 -9.243,-46.1704 87.5198,47.8954 -87.48295,-96.4588 -19.75426,-59.3036 18.42309,30.8374 100.44846,54.4509 28.2882,16.8253 -41.79172,-25.4817 -62.92346,-112.8206 0.13376,-49.2907 103.67818,58.9774 -80.64121,-54.3669 -29.28875,-71.7172 43.68284,7.5851 -22.3565,31.9475 31.16122,18.5887 51.23138,-7.1282 -6.22109,81.8093 37.86443,15.399 65.14665,31.7909 144.21425,-8.2655 211.05171,-22.7237 57.3437,5.7894 10.45945,123.5183 44.97454,168.3309 -0.10581,45.5961 59.06052,91.6133 54.34713,123.583 -30.78553,0.5091 -60.63556,10.803 -90.33353,12.3053 z m -292.6387,-31.7055 c -7.55322,-16.3252 -95.33631,-38.4184 -36.30748,-2.9723 11.49051,4.3536 24.26266,5.5217 36.30748,2.9723 z m 16.1846,-13.2232 c -16.43395,-8.6647 -73.52487,-79.8065 -39.69773,-11.2635 9.43879,11.6403 25.69947,14.7768 39.69773,11.2635 z m 17.48625,-10.0981 c -20.87855,-17.101 -87.27759,-74.1974 -40.67062,-11.1524 10.77704,9.9548 26.10251,16.5703 40.67062,11.1524 z" />
    <path
       id="path1052"
       style="fill:#d35f5f;stroke-width:1.19841"
       d="m 1124.9086,1396.6319 c -32.4945,-73.9545 36.2875,-140.9117 37.1173,-215.0382 30.3222,-66.256 -6.5208,-116.3047 -11.6444,-179.7346 62.9958,-58.82026 44.8222,88.3385 33.633,121.5418 -26.0726,84.7486 -9.458,175.5272 -28.7674,260.4409 -0.6233,12.4948 -21.5043,25.8984 -30.3385,12.7901 z" />
    <path
       id="path1054"
       style="fill:#d35f5f;stroke-width:1.19841"
       d="m 235.31126,1291.367 c 9.52023,-77.2645 -96.72598,-171.4523 -22.2888,-235.0356 85.15635,-0.945 -9.53491,94.9618 21.36624,143.8152 2.78424,29.3381 16.0796,65.1241 0.92256,91.2204 z" />
    <path
       id="path1056"
       style="fill:#d35f5f;stroke-width:1.19841"
       d="m 243.68748,1432.7797 c -47.9022,-36.6171 -6.04408,-169.2717 33.10847,-67.1875 4.62952,20.9526 1.43225,79.6917 -33.10847,67.1875 z" />
    <path
       id="path1058"
       style="fill:#d35f5f;stroke-width:1.19841"
       d="m 255.79952,1329.1572 c -24.79779,-27.5489 -1.70456,-86.125 18.94958,-24.0898 6.93539,11.5892 -4.84045,31.3477 -18.94958,24.0898 z" />
    <path
       id="path1060"
       style="fill:#d35f5f;stroke-width:1.19841"
       d="m 255.89023,1238.5457 c -31.95356,-24.2361 -12.45912,-167.3826 6.00233,-80.2706 -4.12676,22.9103 12.14207,68.282 -6.00233,80.2706 z" />
    <path
       id="path1062"
       style="fill:#d35f5f;stroke-width:1.19841"
       d="m 394.83375,1071.82 c -78.49456,-53.0147 166.64847,-92.81684 73.35465,-13.945 -28.2476,-15.3325 -8.96452,-58.95361 -25.27008,-1.0972 -28.7584,24.585 -14.46401,-56.1853 -34.09143,12.7273 l -6.46692,5.2874 z" />
    <path
       id="path1064"
       style="fill:#d35f5f;stroke-width:1.19841"
       d="m 936.86157,1044.9882 c -48.68557,-32.0524 95.10273,-22.9559 0,0 z" />
    <path
       id="path1066"
       style="fill:#d35f5f;stroke-width:1.19841"
       d="m 895.96926,1037.2196 c -6.74483,-38.99845 72.79098,-12.7816 6.89087,3.2252 l -3.95016,-0.031 z" />
    <path
       id="path1068"
       style="fill:#d35f5f;stroke-width:1.19841"
       d="m 1138.3472,1253.3174 c 2.1746,-49.5614 13.9778,-146.435 21.7158,-170.5156 7.4988,53.814 -14.5843,128.4546 -21.7158,170.5156 z" />
    <path
       id="path1070"
       style="fill:#000000;stroke-width:1.19841"
       d="m 859.861,1616.436 c -35.15855,2.0666 -87.4652,3.5142 -128.46181,-1.8533 -46.39234,-1.6175 -92.78651,-22.3383 -138.34432,-10.5008 -43.5349,-26.5806 -35.72796,-94.0637 -65.14141,-133.5284 39.63907,-22.473 76.56912,42.4512 99.40351,-11.3201 89.40427,-3.0815 -75.8351,134.4558 38.27339,111.8988 43.67253,20.6107 77.00002,-37.209 74.80556,-47.4098 -5.37952,89.5404 141.59855,72.6012 99.75796,-14.8369 -21.17821,-53.7752 59.23037,0.1294 54.63228,-61.8417 28.46325,-44.7126 61.65732,-24.1977 28.75081,17.8371 -22.44409,47.2139 -43.78906,118.1791 -63.67597,151.5551 z" />
    <path
       id="path1072"
       style="fill:#ff0000;stroke-width:1.19841"
       d="m 745.26886,1477.4437 c -75.13388,-13.3572 -163.52842,-62.0811 -223.06664,-76.3295 93.2961,-17.9068 160.07777,74.0725 251.38992,51.131 41.38439,-4.3876 123.32135,-35.5487 140.65291,-29.5933 -55.352,18.2859 -107.61155,67.0803 -168.97619,54.7918 z" />
    <path
       id="path1074"
       style="fill:#0000ff;stroke-width:0.423703"
       d="m 482.17848,1130.1869 c -59.71503,-3.2359 3.12674,-93.4455 -15.58394,-18.6789 26.34147,48.1105 60.31318,-65.3201 10.15067,-8.431 0.86536,-82.4016 105.1106,29.8444 5.43327,27.1099 z" />
    <path
       id="path1076"
       style="fill:#0000ff;stroke-width:0.423703"
       d="m 489.00414,1109.1565 c -13.45109,-29.8868 32.51332,-9.4419 0,0 z" />
    <path
       id="path1078"
       style="fill:#0000ff;stroke-width:0.423703"
       d="m 881.91064,1118.0268 c 56.37811,-44.1277 -31.47933,-9.0722 -10.43492,-36.3938 49.62175,-36.2102 65.28257,34.388 10.43492,36.3938 z" />
    <path
       id="path1082"
       style="fill:#ffff00;stroke-width:0.599206"
       d="m 445.13179,406.5257 c -23.92655,-33.54942 45.3848,-119.17764 22.82316,-37.80781 -4.81924,9.3867 -9.25576,39.97827 -22.82316,37.80781 z" />
    <path
       id="path1084"
       style="fill:#ffff00;stroke-width:0.599206"
       d="m 484.49655,363.98205 c -27.70495,-57.2432 99.86466,-81.32126 24.99225,-19.3244 -6.819,4.46998 -15.06804,22.47304 -24.99225,19.3244 z" />
    <path
       id="path1086"
       style="fill:#ffff00;stroke-width:0.599206"
       d="m 505.5081,303.48189 c 5.53114,-39.7354 107.03281,-35.05466 111.53333,-31.00243 -35.86987,7.13413 -83.06271,27.88822 -111.53333,31.00243 z" />
    <path
       id="path1088"
       style="fill:#ffff00;stroke-width:0.599206"
       d="m 456.00472,306.7942 c 22.24841,-36.53585 85.83038,-76.82787 121.75906,-74.15247 -41.20127,23.65193 -84.55053,45.81333 -121.75906,74.15247 z" />
    <path
       id="path1090"
       style="fill:#ffff00;stroke-width:0.599206"
       d="m 463.345,286.77273 c -2.49795,-51.27343 128.17906,-74.79296 46.0504,-33.51491 -17.30559,8.04324 -32.23961,25.16522 -46.0504,33.51491 z" />
    <path
       id="path1092"
       style="fill:#ffff00;stroke-width:0.599206"
       d="m 437.46342,255.36006 c 8.72156,-40.98455 156.40058,-82.56572 61.50539,-32.47251 -20.78968,9.96189 -39.08104,26.46104 -61.50539,32.47251 z" />
    <path
       id="path1094"
       style="fill:#ffff00;stroke-width:0.599206"
       d="m 454.3569,226.96741 c 13.34509,-44.23406 136.65775,-72.39437 122.53166,-47.88823 -42.79582,11.30863 -86.89614,21.79647 -122.53166,47.88823 z" />
    <path
       id="path1096"
       style="fill:#ffff00;stroke-width:0.599206"
       d="m 514.87674,223.81696 c 47.70655,-29.64134 135.42584,-24.58845 172.63883,-13.22247 -56.90071,1.09471 -120.84809,9.85614 -172.63883,13.22247 z" />
    <path
       id="path1098"
       style="fill:#ffff00;stroke-width:0.599206"
       d="m 655.98984,166.3293 c -31.887,-0.99231 -112.27888,-5.46011 -34.81111,-8.13305 25.89615,-4.26376 128.84497,12.63129 34.81111,8.13305 z" />
    <path
       id="path1100"
       style="fill:#ffff00;stroke-width:0.599206"
       d="m 554.60792,347.56733 c 12.98876,-37.59263 78.63609,-50.63278 21.38787,-9.37838 -6.92621,-1.60273 -14.83125,14.36118 -21.38787,9.37838 z" />
    <path
       id="path1102"
       style="fill:#ffff00;stroke-width:0.599206"
       d="m 567.12266,416.24819 c -19.54748,-35.8134 62.86572,-62.08974 20.95421,-10.32435 -5.4902,2.62801 -12.64643,15.39429 -20.95421,10.32435 z" />
    <path
       id="path1104"
       style="fill:#ffff00;stroke-width:0.599206"
       d="m 602.96008,394.39742 c 19.02596,-77.24782 69.30392,-17.10909 0,0 z" />
    <path
       id="path1106"
       style="fill:#ffff00;stroke-width:0.599206"
       d="m 603.74595,448.84132 c 8.61888,-43.48987 103.47418,-71.4395 44.79423,-10.65801 -14.56789,2.18626 -30.85451,10.08227 -44.79423,10.65801 z" />
    <path
       id="path1108"
       style="fill:#ffff00;stroke-width:0.599206"
       d="m 600.10516,489.05022 c -28.06928,-45.49676 107.77954,-66.19011 30.06578,-8.30172 -7.62804,7.50228 -19.53608,12.21946 -30.06578,8.30172 z" />
    <path
       id="path1110"
       style="fill:#ffff00;stroke-width:0.599206"
       d="m 707.23981,429.69493 c -38.24439,-73.19864 75.33939,-0.66076 0,0 z" />
    <path
       id="path1112"
       style="fill:#ffff00;stroke-width:0.599206"
       d="m 717.70809,464.68874 c -39.64856,-7.05419 -45.00791,-19.71768 3.32823,-29.94022 19.44925,-2.46067 4.02953,27.74532 -3.32823,29.94022 z" />
    <path
       id="path1114"
       style="fill:#ffff00;stroke-width:0.599206"
       d="m 745.7008,414.7819 c -29.93881,-16.92198 -45.06656,-66.57174 6.82635,-37.72055 12.3889,8.3334 9.81287,38.8299 -6.82635,37.72055 z" />
    <path
       id="path1116"
       style="fill:#ffff00;stroke-width:0.599206"
       d="m 765.6446,254.11685 c -37.2509,-16.89712 -165.67229,-41.35434 -57.59336,-32.50794 11.09679,-9.00621 90.92073,35.65631 57.59336,32.50794 z" />
    <path
       id="path1120"
       style="fill:#ffff00;stroke-width:0.599206"
       d="m 861.61119,397.53761 c 18.56754,-35.69916 -71.03697,-136.60808 -23.78338,-131.39227 36.53135,30.40684 42.48571,101.34014 23.78338,131.39227 z" />
    <path
       id="path1122"
       style="fill:#ffff00;stroke-width:0.599206"
       d="m 872.86977,434.5526 c -7.75397,-37.34015 12.99605,-102.58895 14.20869,-113.43297 16.12729,37.09059 9.94945,86.98879 -14.20869,113.43297 z" />
    <path
       id="path1124"
       style="fill:#ffff00;stroke-width:0.599206"
       d="m 874.70016,281.64866 c -26.12258,-22.40243 -123.82465,-104.39844 -41.21775,-45.96032 12.5008,10.67717 44.15079,37.31987 41.21775,45.96032 z" />
    <path
       id="path1128"
       style="fill:#ffff00;stroke-width:0.211851"
       d="m 699.74205,386.23065 c -50.89528,-53.81405 61.98556,-47.40399 0,0 z" />
    <path
       id="path1130"
       style="fill:#ffff00;stroke-width:0.211851"
       d="m 769.37375,384.41721 c -24.3134,-19.70223 -44.76937,-59.26433 -0.34836,-24.54425 3.57936,4.693 9.14393,23.83228 0.34836,24.54425 z" />
    <path
       id="path1132"
       style="fill:#ffff00;stroke-width:0.211851"
       d="m 727.71719,317.33104 c -61.59636,-11.27317 4.33586,-34.40473 0,0 z" />
    <path
       id="path1134"
       style="fill:#ffff00;stroke-width:0.211851"
       d="m 717.01869,280.04973 c -46.05763,-2.2447 6.94241,-18.16329 0,0 z" />
    <path
       id="path1136"
       style="fill:#ffff00;stroke-width:0.211851"
       d="m 774.96006,309.02644 c -41.74738,-9.42959 -43.285,-51.33916 -0.51588,-5.25937 l 2.73636,5.0246 z" />
    <path
       id="path1138"
       style="fill:#ffff00;stroke-width:0.211851"
       d="m 654.41659,264.19062 c -39.07695,0.56484 -100.60053,-4.07923 -22.35033,-10.96774 14.81065,-3.84514 65.70271,15.67364 22.35033,10.96774 z" />
    <path
       id="path1140"
       style="fill:#ffff00;stroke-width:0.211851"
       d="m 558.75678,248.64129 c 20.16523,-19.37667 110.912,-19.66487 104.81676,-8.20967 -34.60627,-0.38484 -72.23955,-5.99798 -104.81676,8.20967 z" />
    <path
       id="path1142"
       style="fill:#ffff00;stroke-width:0.211851"
       d="m 751.64428,204.86875 c -31.84663,-7.1195 -97.27957,-42.46891 -22.49594,-18.85851 2.00658,0.59296 31.83802,15.97852 22.49594,18.85851 z" />
    <path
       id="path1144"
       style="fill:#ffff00;stroke-width:0.211851"
       d="m 656.5351,183.2279 c -31.94849,0.87847 -82.03458,-5.93272 -18.64292,-6.25058 0.79966,-0.91328 46.94598,8.4809 18.64292,6.25058 z" />
    <path
       id="path1146"
       style="fill:#ffff00;stroke-width:0.211851"
       d="m 550.68005,201.67941 c 40.70282,-18.01369 109.6819,-15.0543 155.42829,-0.38297 -51.54997,-6.20884 -104.53108,-11.15981 -155.42829,0.38297 z" />
    <path
       id="path1148"
       style="fill:#ffff00;stroke-width:0.211851"
       d="m 670.5173,289.04119 c -73.20976,-5.81008 55.47283,-20.90109 0,0 z" />
    <path
       id="path1150"
       style="fill:#ffff00;stroke-width:0.211851"
       d="m 621.29363,329.56494 c -13.26708,-58.5945 60.75061,5.55354 0,0 z" />
    <path
       id="path1152"
       style="fill:#ffff00;stroke-width:0.211851"
       d="m 586.51969,338.18488 c 16.04851,-52.22917 48.85073,-4.13595 0,0 z" />
    <path
       id="path1154"
       style="fill:#ffff00;stroke-width:0.211851"
       d="m 615.33,353.9299 c 39.98735,-23.54176 32.2872,-6.89532 0,0 z" />
    <path
       id="path1156"
       style="fill:#ffff00;stroke-width:0.211851"
       d="m 657.91214,325.05225 c -20.89767,-17.28983 17.6975,-31.39818 0,0 z" />
    <path
       id="path1158"
       style="fill:#ffff00;stroke-width:0.211851"
       d="m 645.47822,499.6666 c 4.81716,-40.05069 87.31628,-31.81128 29.04124,-5.18727 -9.91248,0.60653 -19.0921,4.89241 -29.04124,5.18727 z" />
    <path
       id="path1160"
       style="fill:#ffff00;stroke-width:0.211851"
       d="m 661.08991,463.09447 c 16.15757,-46.54924 38.94696,-15.33571 0,0 z" />
    <path
       id="path1162"
       style="fill:#ffff00;stroke-width:0.211851"
       d="m 754.59828,439.52274 c -10.80202,-42.70751 32.14798,-14.66098 0,0 z" />
    <path
       id="path1164"
       style="fill:#ffff00;stroke-width:0.211851"
       d="m 753.6808,474.68199 c 3.9589,-39.78553 57.06085,-73.41109 16.38731,-14.62957 -5.57705,3.97116 -8.32573,15.55527 -16.38731,14.62957 z" />
    <path
       id="path1166"
       style="fill:#ffff00;stroke-width:0.211851"
       d="m 662.76171,369.67005 c 5.24408,-41.60113 27.75863,-11.10227 0,0 z" />
    <path
       id="path1168"
       style="fill:#ffff00;stroke-width:0.211851"
       d="m 678.08689,325.0496 c -9.53553,-31.72053 27.01577,-0.97166 0,0 z" />
    <path
       id="path1170"
       style="fill:#ffff00;stroke-width:0.211851"
       d="m 698.33475,334.20163 c -6.02104,-13.44249 58.51552,1.15247 2.90101,0.1913 z" />
    <path
       id="path1172"
       style="fill:#ffff00;stroke-width:0.211851"
       d="m 379.80782,420.8256 c -4.78514,-44.56501 -9.78426,-109.59034 30.37428,-135.28189 -6.23731,46.28295 -30.59958,88.13288 -30.37428,135.28189 z" />
    <path
       id="path1174"
       style="fill:#ffff00;stroke-width:0.211851"
       d="M 410.543,360.02873 C 395.79036,308.82309 511.48662,211.53816 449.03234,302.32902 435.1988,320.59046 428.88967,345.693 410.543,360.02873 Z" />
    <path
       id="path1176"
       style="fill:#ffff00;stroke-width:0.211851"
       d="m 413.80464,311.02826 c -12.606,-39.09704 83.16785,-89.68989 23.29276,-31.44066 -8.8574,9.67923 -14.38172,21.78928 -23.29276,31.44066 z" />
    <path
       id="path1178"
       style="fill:#ffff00;stroke-width:0.211851"
       d="m 403.18012,274.65345 c -12.85388,-44.70959 130.03679,-121.30424 51.45014,-53.54904 -17.89435,16.76993 -29.82889,41.69809 -51.45014,53.54904 z" />
    <path
       id="path1180"
       style="fill:#ffff00;stroke-width:0.211851"
       d="m 444.83053,342.05195 c -9.42106,-37.81884 98.21989,-79.8617 31.1407,-28.82242 -11.42546,7.62762 -19.23914,23.05697 -31.1407,28.82242 z" />
    <path
       id="path1182"
       style="fill:#ffff00;stroke-width:0.211851"
       d="m 423.16302,449.64693 c -31.20273,-50.21283 12.14856,-37.15297 1.32906,0.44365 z" />
    <path
       id="path1184"
       style="fill:#ffff00;stroke-width:0.211851"
       d="m 437.94464,586.28372 c -76.3673,-37.47525 -105.55141,-132.27475 -84.61427,-211.12801 3.90304,67.59658 20.56582,141.83121 78.63599,183.92323 17.1599,21.2706 67.65883,32.69829 5.97828,27.20478 z" />
    <path
       id="path1186"
       style="fill:#ffff00;stroke-width:0.211851"
       d="m 522.70433,407.03347 c -8.48547,-33.88025 30.44521,-73.29628 13.47667,-13.29055 l -11.37727,13.01209 z" />
    <path
       id="path1188"
       style="fill:#ffff00;stroke-width:0.211851"
       d="m 504.03758,463.92964 c -39.374,-19.68379 -9.23645,-81.47138 8.91987,-22.47385 -1.16236,5.01134 -1.24794,21.651 -8.91987,22.47385 z" />
    <path
       id="path1190"
       style="fill:#ffff00;stroke-width:0.211851"
       d="m 494.50898,381.72032 c -28.93221,-18.55872 45.60541,-43.92675 0,2e-4 z" />
    <path
       id="path1192"
       style="fill:#ffff00;stroke-width:0.211851"
       d="m 470.75926,473.2761 c -46.35653,-34.58948 6.15024,-32.30828 0,0 z" />
    <path
       id="path1194"
       style="fill:#ffff00;stroke-width:0.211851"
       d="m 500.48355,492.2627 c -44.11448,-46.38013 23.2589,-10.9522 0,0 z" />
    <path
       id="path1196"
       style="fill:#ffff00;stroke-width:0.211851"
       d="m 513.8664,465.53369 c 8.61099,-43.00482 30.38147,-6.42408 0,0 z" />
    <path
       id="path1198"
       style="fill:#ffff00;stroke-width:0.211851"
       d="m 533.80742,477.10699 c -31.05064,-30.88416 35.76722,-5.82787 0,-1.2e-4 z" />
    <path
       id="path1200"
       style="fill:#ffff00;stroke-width:0.211851"
       d="m 447.69593,204.01263 c 29.66786,-37.05289 165.29298,-42.58769 140.45138,-52.0964 -49.84234,6.17445 -103.29483,28.94314 -140.45138,52.0964 z" />
    <path
       id="path1202"
       style="fill:#ffff00;stroke-width:0.211851"
       d="m 395.51364,290.56781 c 35.88581,-46.90342 45.68179,-37.1128 0,0 z" />
    <path
       id="path1204"
       style="fill:#ffff00;stroke-width:0.211851"
       d="m 444.565,274.57842 c 16.84582,-27.0703 63.62274,-44.91402 12.50915,-10.08005 -7.20738,-13.75036 -7.15226,13.62039 -12.50915,10.08005 z" />
    <path
       id="path1206"
       style="fill:#ffff00;stroke-width:0.211851"
       d="m 414.42913,376.68285 c 4.13252,-46.39928 24.89709,-30.84337 0,0 z" />
    <path
       id="path1208"
       style="fill:#ffff00;stroke-width:0.211851"
       d="m 464.92053,440.28976 c -23.40923,-42.23467 14.10457,-22.85746 0,0 z" />
    <path
       id="path1210"
       style="fill:#ffff00;stroke-width:0.211851"
       d="m 478.64713,418.83753 c -12.73298,-37.52111 24.6732,-15.90144 0,0 z" />
    <path
       id="path1212"
       style="fill:#ffff00;stroke-width:0.211851"
       d="m 520.91979,364.15433 c 19.01584,-40.05598 56.52873,-49.31651 8.43875,-4.96372 l -8.43875,4.96376 z" />
    <path
       id="path1214"
       style="fill:#ffff00;stroke-width:0.211851"
       d="m 468.2394,327.03425 c 12.8285,-27.04803 30.78307,-18.77216 0,0 z" />
    <path
       id="path1216"
       style="fill:#ffff00;stroke-width:0.299603"
       d="m 777.60277,528.74982 c 3.5082,-35.60659 78.50057,-82.14091 35.17003,-21.01833 -9.61327,10.02796 -24.88527,13.27863 -35.17003,21.01833 z" />
    <path
       id="path1218"
       style="fill:#ffff00;stroke-width:0.299603"
       d="m 868.93465,577.31762 c 21.94522,-68.80488 18.70208,-139.74635 40.96609,-208.73771 20.73196,53.0799 10.78683,149.00409 -34.00426,201.39743 z" />
    <path
       id="path1220"
       style="fill:#ffff00;stroke-width:0.299603"
       d="m 827.15795,565.22138 c 14.18108,-32.89617 61.65469,-49.80521 23.05658,-2.9823 -6.38611,4.44316 -16.35255,-0.4599 -23.05658,2.9823 z" />
    <path
       id="path1222"
       style="fill:#ffff00;stroke-width:0.299603"
       d="m 834.80085,545.71436 c 11.13246,-40.36981 39.77892,-65.15545 11.97151,-10.00698 l -5.51462,6.27217 -6.45686,3.73481 z" />
    <path
       id="path1224"
       style="fill:#ffff00;stroke-width:0.299603"
       d="m 902.50815,621.99623 c -2.28981,-27.81499 -68.12588,-30.09969 -22.02083,-36.89296 11.09723,0.86093 34.07217,40.29438 22.02083,36.89296 z" />
    <path
       id="path1226"
       style="fill:#ffff00;stroke-width:0.299603"
       d="m 864.3277,653.94876 c -34.89525,-11.14866 -76.28287,-48.95362 -12.34215,-16.8152 -9.15925,-3.46624 30.34179,18.69433 12.34215,16.8152 z" />
    <path
       id="path1228"
       style="fill:#ffff00;stroke-width:0.299603"
       d="m 793.15299,687.27891 c -41.87846,-9.42471 -91.64377,-52.05008 -20.22321,-20.39621 0.77729,-1.593 41.00502,25.31014 20.22321,20.39621 z" />
    <path
       id="path1230"
       style="fill:#ffff00;stroke-width:0.299603"
       d="m 756.68669,609.66319 c -34.97078,-27.64764 38.45164,-6.22361 0,0 z" />
    <path
       id="path1232"
       style="fill:#ffff00;stroke-width:0.299603"
       d="m 810.67978,604.54513 c -45.55114,-6.26824 -11.06614,-17.93424 7.04315,0.78941 z" />
    <path
       id="path1234"
       style="fill:#ffff00;stroke-width:0.299603"
       d="m 766.57692,565.73885 c 29.07492,-39.24199 35.46884,5.13507 0,0 z" />
    <path
       id="path1236"
       style="fill:#ffff00;stroke-width:0.299603"
       d="m 768.73533,552.3249 c 24.03134,-30.50606 44.16931,-13.04641 0,0 z" />
    <path
       id="path1238"
       style="fill:#ffff00;stroke-width:0.299603"
       d="m 698.17325,551.69259 c 33.77752,-44.6031 33.61294,-8.16033 0,0 z" />
    <path
       id="path1240"
       style="fill:#ffff00;stroke-width:0.299603"
       d="m 737.22571,538.32305 c 5.50727,-27.1237 53.21285,-58.51378 10.73358,-12.72598 -7.34494,-1.88029 -3.34942,17.06472 -10.73358,12.72598 z" />
    <path
       id="path1242"
       style="fill:#ffff00;stroke-width:0.105926"
       d="m 753.00308,485.32504 c 23.13322,-33.9868 31.00637,-17.54773 0,0 z" />
    <path
       id="path1244"
       style="fill:#ffff00;stroke-width:0.105926"
       d="m 774.33019,512.8111 c 7.99804,-30.03026 26.16393,-28.53576 0,0 z" />
    <path
       id="path1246"
       style="fill:#ffff00;stroke-width:0.105926"
       d="m 787.53486,473.52931 c 16.98505,-32.54055 17.40331,-8.30957 0,0 z" />
    <path
       id="path1248"
       style="fill:#ffff00;stroke-width:0.105926"
       d="m 803.46743,472.47337 c 36.14716,-40.35494 27.79756,-6.7229 0,0 z" />
    <path
       id="path1250"
       style="fill:#ffff00;stroke-width:0.105926"
       d="m 830.3525,443.4175 c -4.75165,-20.0676 11.08213,-11.1645 0,0 z" />
    <path
       id="path1252"
       style="fill:#ffff00;stroke-width:0.105926"
       d="m 828.89615,514.94624 c 21.61845,-47.12393 20.53922,-4.70866 0,0 z" />
    <path
       id="path1254"
       style="fill:#ffff00;stroke-width:0.105926"
       d="m 811.36815,558.17622 c 18.00962,-55.49347 33.67749,-32.92849 0,0 z" />
    <path
       id="path1256"
       style="fill:#ffff00;stroke-width:0.105926"
       d="m 806.53891,533.47269 c 16.24845,-33.15835 20.28609,-8.79034 0,0 z" />
    <path
       id="path1258"
       style="fill:#ffff00;stroke-width:0.105926"
       d="m 802.3943,553.26453 c 10.04301,-44.65748 14.04248,-11.65416 0,0 z" />
    <path
       id="path1260"
       style="fill:#ffff00;stroke-width:0.105926"
       d="m 783.24773,532.43972 c 28.92274,-33.90873 24.81553,-7.00203 -2e-5,0 z" />
    <path
       id="path1262"
       style="fill:#ffff00;stroke-width:0.423703"
       d="m 614.16373,528.3266 c -14.55573,-24.00078 125.15291,-43.75326 42.58213,-6.13371 -13.64316,4.38445 -28.19491,7.31742 -42.58213,6.13371 z" />
    <path
       id="path1264"
       style="fill:#ffff00;stroke-width:0.423703"
       d="m 675.47076,517.65095 c 23.4439,-31.16533 51.29651,-33.37864 6.63929,-2.02975 l -6.73313,3.38365 0.0938,-1.3539 z" />
    <path
       id="path1268"
       style="fill:#ffff00;stroke-width:0.423703"
       d="m 475.28014,609.46419 c -59.40306,-15.64579 -19.35952,-37.65278 6.5294,-11.55384 10.13203,6.51524 9.23905,15.30363 -6.5294,11.55384 z" />
    <path
       id="path1270"
       style="fill:#ffff00;stroke-width:0.423703"
       d="m 502.304,591.53144 c -32.96578,-9.05687 -59.69312,-33.48639 -9.863,-15.01199 10.62758,-0.68636 34.78046,21.94743 9.863,15.01199 z" />
    <path
       id="path1272"
       style="fill:#ffff00;stroke-width:0.423703"
       d="m 554.2076,572.96123 c -29.83166,6.02455 -112.62147,-30.06783 -36.43844,-9.45607 0.22042,1.97295 56.62394,10.30629 36.43844,9.45607 z" />
    <path
       id="path1274"
       style="fill:#ffff00;stroke-width:0.423703"
       d="m 528.14988,552.60187 c -60.87912,-13.05562 -48.12876,-23.95185 4.28542,-0.33267 l -1.10765,0.55492 z" />
    <path
       id="path1276"
       style="fill:#ffff00;stroke-width:0.423703"
       d="m 550.18243,511.32645 c -62.01955,-4.65584 0.006,-23.77862 7.81184,0.41575 l -7.81184,-0.41573 z" />
    <path
       id="path1278"
       style="fill:#ffff00;stroke-width:0.423703"
       d="m 541.5472,496.06025 c -20.79091,-36.49287 45.49891,3.91343 0,0 z" />
    <path
       id="path1280"
       style="fill:#ffff00;stroke-width:0.423703"
       d="m 569.24905,478.99165 c -3.77741,-47.60499 36.28746,-3.53187 0,0 z" />
    <path
       id="path1282"
       style="fill:#ffff00;stroke-width:0.423703"
       d="m 599.88379,441.91251 c 0.2878,-24.26475 42.90245,-27.52045 1.99506,0.3534 z" />
    <path
       id="path1284"
       style="fill:#ffff00;stroke-width:0.423703"
       d="m 575.95253,446.47169 c -9.19892,-26.61347 32.97315,-0.49664 0,0 z" />
    <path
       id="path1286"
       style="fill:#ffff00;stroke-width:0.423703"
       d="m 545.91981,394.31047 c 3.07414,-31.0541 36.66359,-75.77994 13.05095,-16.82238 -3.61979,-11.9837 -7.55114,23.3408 -13.05095,16.82238 z" />
    <path
       id="path1288"
       style="fill:#ffff00;stroke-width:0.423703"
       d="m 566.31465,377.69994 c 13.58672,-40.45004 44.07339,-40.39978 0,0 z" />
    <path
       id="path1290"
       style="fill:#ffff00;stroke-width:0.423703"
       d="m 586.42393,361.83894 c 12.80486,-32.15595 38.76927,-7.37077 0,0 z" />
    <path
       id="path1292"
       style="fill:#ffff00;stroke-width:0.423703"
       d="m 540.34195,323.65079 c 2.69703,-25.6128 56.90704,-28.39938 7.51011,-3.70816 z" />
    <path
       id="path1294"
       style="fill:#ffff00;stroke-width:0.423703"
       d="m 417.94049,533.60636 c -62.94271,-62.96285 18.13121,-21.09601 0,0 z" />
    <path
       id="path1296"
       style="fill:#ffff00;stroke-width:0.423703"
       d="m 488.18442,615.61612 c 41.1143,-29.46996 36.74276,5.22407 0,0 z" />
    <path
       id="path1298"
       style="fill:#ffff00;stroke-width:0.423703"
       d="m 330.25237,790.28062 c 11.77683,-27.71544 43.18236,-72.45584 67.11024,-83.38631 -21.69928,27.18627 -42.66591,62.98736 -67.11024,83.38631 z" />
    <path
       id="path1300"
       style="fill:#ffff00;stroke-width:0.423703"
       d="m 465.05688,695.32792 c 12.81562,-25.24526 29.83972,-11.26759 0,0 z" />
    <path
       id="path1302"
       style="fill:#ffff00;stroke-width:0.423703"
       d="m 542.56161,618.56858 c 27.3762,-18.58929 36.9054,-4.12587 0,0 z" />
    <path
       id="path1304"
       style="fill:#ffff00;stroke-width:0.423703"
       d="m 574.90716,529.30231 c -2.54999,-14.82654 38.71837,1.24334 0,0 z" />
    <path
       id="path1306"
       style="fill:#ffff00;stroke-width:0.599206"
       d="m 1002.5814,685.46713 c -26.76251,1.0654 -89.21382,-71.02052 -30.12419,-29.11548 10.18093,7.67912 25.58416,20.74204 30.12419,29.11548 z" />
    <path
       id="path1308"
       style="fill:#ffff00;stroke-width:0.599206"
       d="m 986.81617,778.33353 c -36.89183,-12.46208 -72.67082,-63.23697 -11.79933,-22.40108 1.05713,-1.57623 25.36456,29.11015 11.79933,22.40108 z" />
    <path
       id="path1310"
       style="fill:#ffff00;stroke-width:0.599206"
       d="m 927.61469,728.52506 c -64.79237,-36.85328 9.47731,-31.18585 0,0 z" />
    <path
       id="path1312"
       style="fill:#ffff00;stroke-width:0.599206"
       d="m 1023.6821,825.84052 c -52.14972,-42.2754 -12.9845,-24.89931 0,0 z" />
    <path
       style="fill:#d35f5f;fill-opacity:1;stroke-width:1.69481"
       d="m 670.59477,1795.8449 c -8.05157,-4.9062 -9.27263,-6.6843 -22.87995,-33.3179 -15.84012,-31.0038 -20.0209,-33.1701 -36.9301,-19.1354 -22.34272,18.5446 -53.31641,19.2222 -87.46739,1.9137 -26.52346,-13.4428 -67.823,-50.5249 -109.9205,-98.6958 -36.67654,-41.9678 -43.96505,-57.1715 -60.77763,-126.7813 -4.16505,-17.2447 -9.07665,-36.2368 -10.91468,-42.2045 -1.83802,-5.9678 -3.11314,-11.0793 -2.83359,-11.3588 0.27954,-0.2796 4.15035,4.4125 8.60179,10.4268 4.45144,6.0143 8.87539,10.9351 9.831,10.9351 0.95561,0 -0.92338,-4.7667 -4.17552,-10.5926 -11.38916,-20.4027 -34.61645,-71.6908 -36.54349,-80.6916 -1.06988,-4.9972 -3.4751,-25.0048 -5.34494,-44.4614 -2.86052,-29.7651 -4.20092,-37.5486 -8.45162,-49.0771 -10.70774,-29.041 -5.00881,-22.1124 19.4112,23.5995 8.15299,15.2616 15.90651,31.3949 17.23005,35.8518 4.1227,13.8826 20.72522,33.4838 42.9471,50.7039 16.03176,12.4233 32.30174,18.9987 32.30174,13.0544 0,-1.262 -5.52933,-7.0914 -12.28739,-12.9542 -30.90956,-26.8149 -54.45254,-59.0268 -79.11473,-108.2462 -12.49968,-24.9461 -31.19259,-68.0153 -30.02625,-69.1816 1.1597,-1.1598 13.88273,24.2687 26.70889,53.3808 24.17907,54.8802 41.31263,78.5497 65.90768,91.0493 8.62071,4.3812 21.65154,7.5279 31.26927,7.551 9.2467,0.022 8.82654,-1.7915 -1.15378,-4.9803 -10.1532,-3.244 -30.13345,-17.3468 -41.1843,-29.0694 -19.97448,-21.1887 -29.89427,-37.7774 -54.59349,-91.2958 -9.69218,-21.001 -18.01203,-39.3277 -18.48857,-40.726 -1.74216,-5.1118 5.05276,4.7929 22.67251,33.0489 30.15589,48.3595 50.99421,73.3912 68.55415,82.3496 15.80771,8.0645 10.81257,-1.0037 -25.45068,-46.2031 -40.12427,-50.012 -50.91604,-65.8323 -66.52652,-97.5255 -7.73632,-15.7066 -4.24569,-22.3449 6.84329,-13.0141 6.7203,5.6548 12.30067,15.4817 17.00377,29.9433 6.81535,20.9567 27.42141,40.6116 42.89864,40.9186 6.2454,0.1239 7.20977,-0.3552 7.70114,-3.8253 0.74174,-5.2384 -9.31959,-20.2921 -18.46515,-27.6275 -22.60019,-18.1268 -28.77373,-27.3171 -38.7723,-57.7187 -2.97307,-9.0399 -6.8442,-18.265 -8.60251,-20.5004 -3.1769,-4.0388 -3.16603,-4.1004 1.73628,-9.8334 6.3431,-7.418 6.27839,-9.1043 -0.43716,-11.3934 -5.27777,-1.799 -5.18916,-1.8392 2.11852,-0.9625 14.0019,1.6798 35.64,7.358 45.10782,11.837 6.06276,2.8681 11.11583,6.8472 14.33005,11.2843 4.28615,5.9169 4.96851,8.3832 4.99092,18.0396 0.0182,7.8476 0.51624,10.427 1.66886,8.6435 0.90359,-1.3982 1.65458,-5.766 1.66885,-9.7061 0.0202,-5.57 0.87437,-7.6989 3.83928,-9.5687 6.88767,-4.3436 11.13374,-4.7569 17.55675,-1.709 8.40818,3.9899 13.15341,14.4541 11.64795,25.6859 l -1.07347,8.009 5.10771,-8.6536 c 8.9579,-15.1767 27.17472,-23.626 54.46756,-25.263 6.99109,-0.4194 23.88228,-1.1325 37.53599,-1.5848 l 24.8249,-0.8224 3.73301,9.1975 c 6.21899,15.3227 7.88284,14.9093 8.85841,-2.2008 0.46866,-8.2197 1.74077,-16.6053 2.82689,-18.6348 2.75077,-5.1398 8.90188,-6.2611 15.53375,-2.8316 3.80271,1.9664 7.91941,2.6015 13.08723,2.0191 22.49449,-2.5355 22.8727,-21.5355 0.83895,-42.1455 -19.12271,-17.8871 -42.85236,-32.7023 -64.50177,-40.2705 l -13.07816,-4.572 -1.5515,-7.942 c -3.09995,-15.8685 7.66107,-18.8537 30.10429,-8.3512 15.56993,7.286 30.25139,17.6501 42.17673,29.7739 l 10.25342,10.4241 -1.17466,-7.6266 c -4.56568,-29.6435 -47.7877,-56.1597 -106.80607,-65.52434 -11.8299,-1.87711 -24.16428,-2.45863 -41.52289,-1.95772 -29.60381,0.85429 -38.33636,3.64361 -16.98239,5.42446 26.76829,2.2324 23.24261,4.1173 -24.23598,12.9573 -10.95271,2.0393 -19.91403,4.4392 -19.91403,5.3331 0,0.8939 1.33466,1.238 2.96592,0.7646 3.10942,-0.9024 13.17054,-3.3544 21.32715,-5.1975 7.0425,-1.5915 4.49571,1.2087 -9.98909,10.983 -18.30197,12.35 -24.78881,19.3059 -24.14515,25.8909 0.34311,3.5103 1.82571,5.9643 4.36305,7.2217 5.26976,2.6117 5.02441,2.1972 7.95051,13.4313 4.96358,19.0564 -0.0919,20.671 -21.30692,6.8049 -19.51737,-12.7565 -22.49137,-12.2547 -14.12417,2.3832 5.17252,9.049 4.44906,14.6837 -2.97022,23.1338 -4.24084,4.8301 -6.26018,5.806 -12.01368,5.806 -10.34212,0 -20.25487,-5.729 -32.15774,-18.5852 -15.67607,-16.9316 -25.05704,-38.3729 -22.57572,-51.5994 1.10667,-5.8991 9.21282,-16.2508 12.72557,-16.2508 1.0473,0 2.57295,1.759 3.39033,3.9089 2.39742,6.3056 10.32513,14.734 13.85881,14.734 5.83079,0 14.72142,-10.5879 27.03586,-32.1971 20.58125,-36.11577 31.25725,-48.82067 46.30898,-55.1097 7.11048,-2.97093 18.74071,-3.26507 26.20572,-0.66275 4.34677,1.51529 7.23333,1.21011 15.7463,-1.66477 5.7331,-1.9361 16.73952,-4.40369 24.45872,-5.48356 43.09796,-6.0291 99.67956,16.1863 148.1156,58.15408 16.66965,14.4435 22.35492,22.0291 27.17394,36.257 7.34308,21.6801 7.85603,41.5888 2.45829,95.4117 -2.81654,28.0847 -3.14164,48.2734 -0.8464,52.5621 1.1502,2.1492 0.43467,5.4952 -2.55508,11.9483 -5.51031,11.8934 -11.40244,19.3154 -33.31625,41.9666 -27.74678,28.6804 -33.93294,45.1475 -30.43738,81.022 1.97653,20.285 5.20052,28.4486 12.41514,31.437 6.28926,2.6051 12.37443,1.24 37.35716,-8.3803 26.00567,-10.0142 28.59365,-9.6046 43.60348,6.9006 10.05342,11.055 16.7866,13.9691 29.78611,12.891 11.46072,-0.9504 23.73605,-7.028 44.3484,-21.9574 9.09066,-6.5843 19.02038,-13.1598 22.06606,-14.6122 5.39619,-2.5732 5.62967,-2.5236 9.14323,1.9432 9.9206,12.6119 33.87786,17.5849 48.29935,10.0257 22.06945,-11.5679 35.6846,-45.4396 29.05832,-72.2911 -3.47517,-14.0824 -10.53203,-24.5229 -21.05171,-31.1456 -10.16741,-6.401 -16.64833,-8.311 -32.69698,-9.6361 -17.73198,-1.464 -24.79467,-3.6981 -31.45245,-9.9492 -8.87538,-8.3331 -10.32264,-16.5981 -7.83758,-44.7591 1.13352,-12.8453 2.05819,-29.4564 2.05484,-36.9135 -0.0248,-54.9246 32.93884,-112.0215 88.72806,-153.6875 26.93267,-20.11458 32.2536,-22.4692 75.71199,-33.50401 51.72922,-13.13493 65.72023,-15.50604 91.42582,-15.49419 22.34366,0.0102 39.26366,3.15305 55.39676,10.28946 4.3093,1.90622 8.2004,3.10052 8.6469,2.654 0.4465,-0.44649 -1.2047,-4.93363 -3.6695,-9.97137 -8.7057,-17.79384 -25.7866,-24.27238 -59.52675,-22.5776 -27.22452,1.36751 -102.37589,17.01016 -110.93746,23.0915 -7.31066,5.19279 -16.45759,8.2878 -34.73086,11.75174 -18.64054,3.53355 -35.02508,9.52791 -34.6523,12.6777 0.63457,5.36177 -1.03777,8.09974 -10.76938,17.63183 -11.66643,11.42724 -25.04856,22.35054 -26.78678,21.86504 -2.21115,-0.6177 -17.41897,11.364 -15.31432,12.0656 1.18025,0.3934 2.9944,-0.1332 4.0314,-1.1702 5.48346,-5.4835 3.38323,0.5807 -8.23594,23.7803 -40.76889,81.402 -49.96329,131.2276 -33.70993,182.6786 l 4.20776,13.3199 10.00094,1.7617 c 24.85199,4.3775 40.62957,19.6602 61.97533,60.0312 5.29827,10.0206 9.97534,18.2193 10.39348,18.2193 0.41815,0 2.67926,-1.2574 5.02469,-2.7942 3.15101,-2.0646 4.76071,-2.2979 6.1652,-0.8934 2.50558,2.5056 0.16423,7.4434 -7.99549,16.8617 l -6.27443,7.2422 -10.77221,-10.0768 c -6.40132,-5.9882 -16.01086,-12.666 -23.68312,-16.4578 -10.82761,-5.3513 -14.64636,-6.381 -23.66586,-6.381 -18.25254,0 -27.80458,8.6192 -34.69594,31.3075 -4.00867,13.1977 -11.05712,21.8672 -17.77834,21.8672 -6.94055,0 -12.69697,-3.7115 -34.07164,-21.9684 -22.06707,-18.8482 -33.52237,-25.4863 -43.98178,-25.4863 -8.91805,0 -11.73018,2.3792 -14.33475,12.1277 -3.12122,11.6821 -7.8785,18.7142 -12.22298,18.0674 -13.52207,-2.0129 -20.08282,-46.7833 -9.76051,-66.6053 4.1979,-8.0613 6.09539,-9.5334 21.07377,-16.3493 17.16059,-7.8089 31.05721,-27.4884 37.66345,-53.3364 4.97119,-19.4506 4.08724,-78.135 -1.87032,-124.1687 l -4.68604,-36.2088 -19.57228,-28.1941 c -42.48194,-61.19573 -64.55389,-84.46828 -92.88577,-97.93827 -13.82973,-6.57514 -23.19971,-8.4082 -50.28704,-9.83771 -18.65045,-0.98424 -19.84073,-0.85386 -20.83616,2.28246 -0.58064,1.82948 0.12186,6.14479 1.56121,9.58956 1.43932,3.44477 2.61694,6.61661 2.61694,7.04855 0,0.43193 -3.36664,-1.09632 -7.48141,-3.39611 -7.09812,-3.96721 -7.52415,-4.01806 -8.31539,-0.99231 -1.04893,4.01114 -5.14423,4.06387 -32.48274,0.41811 -21.58809,-2.87889 -31.13588,-2.31201 -35.55915,2.11126 -2.98147,2.98148 -3.41441,11.21838 -0.84225,16.02449 2.12687,3.97411 1.90365,3.99783 -5.03747,0.53514 -9.69736,-4.83767 -20.47328,-2.49892 -34.99191,7.59448 -6.88846,4.7889 -13.48792,8.74372 -14.66546,8.78852 -1.17754,0.0448 -4.81031,4.35875 -8.07282,9.58656 -7.52052,12.05081 -25.41323,31.00748 -29.26716,31.00748 -5.6624,0 -3.49834,-11.59306 6.48556,-34.74367 26.8016,-62.14742 56.40778,-114.09166 86.55805,-151.86669 14.9742,-18.76105 70.57193,-76.46118 87.06177,-90.35395 43.83547,-36.93162 87.6665,-55.7587 116.57173,-50.07194 9.08921,1.78819 12.39916,1.5646 29.45613,-1.98982 27.51996,-5.73476 76.40358,-5.78228 104.52255,-0.10161 24.06495,4.86166 48.36375,12.77483 73.04342,23.78739 l 19.14846,8.54442 4.16558,-4.9505 c 11.69301,-13.89635 36.77749,-7.90907 66.18115,15.79643 7.23584,5.8336 18.0002,13.99844 23.92079,18.14408 5.9206,4.14564 10.03642,7.7803 9.14625,8.07702 -1.74757,0.58252 -15.43589,-3.73797 -46.18055,-14.57613 -21.51649,-7.58502 -46.89324,-11.41599 -45.46989,-6.86428 1.16435,3.72344 9.83416,7.3426 56.64084,23.64441 61.01026,21.24863 68.69605,25.73147 117.63473,68.61207 35.441,31.05374 53.444,43.09774 78.4611,52.49025 10.9227,4.10089 21.5204,16.13939 28.0812,31.8992 2.8371,6.81515 8.5685,24.95136 12.7363,40.30272 7.9901,29.43032 10.329,36.09727 14.3545,40.91694 3.4509,4.13173 9.8468,3.69909 14.5286,-0.98277 l 3.9487,-3.94869 1.045,9.998 c 1.2649,12.10125 -1.5032,60.90991 -4.975,87.72441 -2.3696,18.3021 -5.3677,36.4647 -20.1425,122.0264 -6.949,40.2419 -6.942,40.168 -3.5333,37.339 5.7429,-4.7661 8.1785,-14.7343 24.8377,-101.6495 4.5992,-23.9954 5.9532,-25.6732 7.5168,-9.3142 2.2205,23.2318 -1.7253,46.4869 -22.9882,135.4853 -16.6225,69.5753 -23.2791,103.6431 -20.7459,106.1763 2.0942,2.0942 5.7173,-3.9925 10.6901,-17.9592 1.6765,-4.7085 3.1038,-7.2873 3.1719,-5.7305 0.1883,4.3033 -10.5773,40.504 -18.5628,62.4198 -3.906,10.7197 -11.0749,30.549 -15.931,44.0651 -25.8884,72.0559 -58.2684,131.2058 -107.52701,196.4245 -10.8404,14.3527 -21.88317,29.2247 -24.53948,33.0488 -7.26583,10.4601 -16.28009,19.4237 -45.3395,45.0844 -17.23575,15.22 -28.29367,23.7561 -31.76087,24.5176 -2.92549,0.6425 -10.95526,4.8476 -17.8439,9.3446 -12.34309,8.0576 -16.55029,11.8995 -13.03107,11.8995 3.082,0 1.96683,3.1996 -2.01849,5.7915 -6.60278,4.2941 -32.43098,10.8839 -80.7672,20.607 -25.72206,5.1741 -50.34074,10.8844 -54.7082,12.6896 -10.50447,4.3418 -21.01483,4.2145 -28.49761,-0.345 z m 107.63831,-63.8192 c -0.60962,-3.2496 -3.98491,-8.8908 -7.78866,-13.0174 -11.80187,-12.8035 -32.03256,-19.215 -65.36469,-20.7154 -21.40513,-0.9635 -22.83877,-0.8128 -36.06527,3.7915 -15.36438,5.3485 -19.77353,8.6187 -13.39886,9.9378 2.1796,0.4511 16.92821,1.1943 32.77469,1.6518 15.84649,0.4574 33.38779,1.6758 38.98067,2.7075 26.07737,4.8104 41.7402,13.8683 47.63354,27.5468 l 3.12004,7.2416 0.59221,-6.7046 c 0.3257,-3.6876 0.10812,-9.2854 -0.48367,-12.4396 z m 17.77774,-54.3292 c 14.6697,-4.1366 24.28787,-6.5876 31.00043,-7.8999 4.98012,-0.9735 13.76451,-8.247 31.24173,-25.8682 13.4467,-13.5575 20.55915,-28.2454 27.56314,-56.9203 9.83864,-40.2802 28.13509,-87.6146 49.87891,-129.0406 16.20338,-30.8703 33.14335,-58.6578 39.29804,-64.4624 3.0363,-2.8636 6.07918,-7.4537 6.76196,-10.2001 0.68277,-2.7465 2.81098,-7.399 4.72933,-10.3389 l 3.48794,-5.3453 12.0555,6.6164 c 17.6002,9.6596 26.4239,8.3806 20.5292,-2.9758 -4.2238,-8.1372 -50.79058,-49.7262 -55.67798,-49.7262 -2.24754,0 -1.42162,2.6594 6.10419,19.655 3.34218,7.5477 6.93393,17.9914 7.98161,23.2082 1.90161,9.4689 1.89326,9.5037 -4.84191,20.1732 l -6.7468,10.6879 -29.48276,7.8324 c -16.21551,4.3079 -45.11739,12.1178 -64.22639,17.3554 -56.78417,15.5641 -102.81136,24.2138 -133.0427,25.0023 -13.36015,0.3485 -14.11634,0.1363 -51.69175,-14.5053 -71.33182,-27.7949 -96.113,-35.6106 -126.94719,-40.0377 -23.43067,-3.3642 -63.56647,-0.3117 -80.20413,6.0998 -2.11036,0.8132 -3.48602,-0.1002 -4.93276,-3.2755 -1.46888,-3.2238 -3.28468,-4.4032 -6.77923,-4.4032 -5.24956,0 -13.38212,8.9688 -23.87129,26.3259 -3.0554,5.0559 -6.91027,9.6481 -8.56635,10.2048 -4.36682,1.468 -8.33755,8.3321 -7.70465,13.3189 0.50618,3.9885 0.99585,3.6501 6.58512,-4.5511 l 6.03828,-8.8601 13.64889,0.054 c 12.3215,0.049 14.91088,0.6776 26.6254,6.4672 25.9415,12.821 39.70252,32.0002 44.21331,61.6216 11.92866,78.3331 51.72853,145.998 100.93128,171.5961 18.9802,9.8746 34.08632,13.4478 60.72903,14.3648 12.45512,0.4287 23.13243,1.28 23.72736,1.8917 0.59493,0.6117 16.335,0.7538 34.97793,0.3158 27.66139,-0.6499 36.23429,-1.4556 46.60731,-4.3807 z M 733.3028,1343.1527 c 0,-0.9454 -1.1241,-0.7619 -2.54222,0.4151 -1.39822,1.1604 -2.54222,2.8725 -2.54222,3.8046 0,0.9455 1.1241,0.7619 2.54222,-0.415 1.39822,-1.1604 2.54222,-2.8725 2.54222,-3.8047 z m -44.52806,-117.3143 c 20.91505,1.3068 22.4127,0.6616 20.07576,-8.6496 -1.40761,-5.6083 -9.88946,-9.2079 -21.67688,-9.1996 -13.83271,0.01 -21.50017,5.9896 -25.88984,20.1913 l -1.26636,4.0971 4.84992,-3.815 c 4.61397,-3.6294 5.77706,-3.757 23.9074,-2.6242 z m -150.88332,-13.743 c 3.54194,-4.2631 11.03141,-11.0406 16.64327,-15.0612 5.61186,-4.0205 11.20915,-9.1894 12.43841,-11.4863 6.29356,-11.7596 -3.92586,-18.3299 -23.48919,-15.1018 -9.9861,1.6478 -44.2018,13.3812 -46.90567,16.085 -1.61724,1.6173 5.48975,1.346 18.02627,-0.688 10.99968,-1.7846 19.4205,-1.0161 18.40723,1.6799 -0.29926,0.7962 -4.5481,4.5992 -9.44186,8.451 -4.89377,3.8518 -8.89777,7.8001 -8.89777,8.7741 0,2.0373 8.64997,-3.5905 16.10071,-10.4754 5.70096,-5.268 13.44021,-7.8664 15.15684,-5.0889 1.76423,2.8546 -3.61897,12.5174 -10.9755,19.7008 -6.40266,6.2521 -8.59954,10.9619 -5.11309,10.9619 0.88574,0 4.5084,-3.488 8.05035,-7.7511 z m 279.0869,-13.2273 c 3.56202,-5.1719 7.9379,-9.8674 9.72417,-10.4343 1.78626,-0.567 9.77831,0.5769 17.76011,2.5418 7.9818,1.9649 19.60273,3.7354 25.82429,3.9344 9.85761,0.3153 11.28164,-0.02 11.07652,-2.6042 -0.15948,-2.0098 0.98511,-2.9659 3.55065,-2.9659 7.12293,0 9.49072,-5.1226 10.92472,-23.6352 1.00833,-13.0174 2.15026,-18.3145 4.67805,-21.7002 3.72587,-4.9904 9.85011,-7.228 16.37102,-5.9814 3.80832,0.728 4.13269,1.3205 2.73508,4.9966 -2.48795,6.5437 -1.99374,15.8136 0.84307,15.8136 1.33582,0 5.33981,-3.56 8.89776,-7.9112 7.78373,-9.5191 21.7849,-20.9006 25.71132,-20.9006 1.83847,0 4.41933,3.5797 7.33159,10.1689 2.53989,5.7467 5.57262,10.1689 6.97384,10.1689 2.51215,0 3.39693,-1.7286 9.68051,-18.9123 4.61365,-12.6169 6.70705,-14.2845 13.51338,-10.7648 2.91136,1.5055 5.71707,3.8414 6.23492,5.1909 1.50258,3.9156 3.13138,2.8855 5.41258,-3.423 4.0069,-11.081 20.1581,-21.3047 33.4962,-21.2032 6.6811,0.051 19.2937,6.0032 19.2937,9.1053 0,3.2374 6.5085,7.8267 10.9697,7.7351 2.881,-0.059 2.396,-0.9896 -3.0018,-5.759 l -6.438,-5.6885 10.2513,-6.2274 c 10.2621,-6.2339 12.0992,-8.452 8.1328,-9.8195 -1.1652,-0.4017 3.4108,-2.522 10.1689,-4.7118 11.8722,-3.847 17.1393,-7.9889 7.6266,-5.9976 -30.5668,6.3988 -57.0339,5.2732 -64.28,-2.7337 -2.9839,-3.2971 -2.7782,-3.6183 9.217,-14.3986 6.748,-6.0645 12.2691,-11.6137 12.2691,-12.3316 0,-0.7179 -6.5662,1.9902 -14.5915,6.0179 -13.5456,6.7982 -31.9493,12.3549 -34.0296,10.2746 -0.4936,-0.4936 2.9989,-6.4279 7.7611,-13.1872 4.7622,-6.7594 8.6585,-13.306 8.6585,-14.548 0,-1.2968 -5.1953,1.3902 -12.2021,6.311 -15.54894,10.9195 -27.51173,14.726 -35.53865,11.308 -7.62121,-3.2452 -15.10519,-11.4351 -11.57761,-12.6696 1.39822,-0.4893 8.62864,-4.0074 16.06761,-7.8179 14.36341,-7.3574 18.86523,-13.1112 15.10453,-19.305 -9.12224,-15.0242 -84.87106,-20.6018 -120.99715,-8.9094 -5.60425,1.8139 -12.17161,2.7046 -16.46864,2.2337 -5.33842,-0.585 -8.63705,0.1377 -13.0343,2.8553 -12.68411,7.8392 -33.20509,35.0563 -33.20509,44.04 0,3.6696 0.0473,3.6754 5.26178,0.6412 2.89396,-1.684 6.80982,-4.9684 8.70188,-7.2988 l 3.44011,-4.237 -1.13361,8.8977 c -0.62347,4.8938 -0.53534,8.8754 0.19589,8.8481 0.7312,-0.027 4.69856,-6.1553 8.81632,-13.6178 7.39751,-13.4061 18.18511,-25.3132 22.93336,-25.3132 2.03069,0 1.88522,1.6301 -0.85668,9.5996 -3.8127,11.0818 -2.79596,13.8229 2.4114,6.5011 6.38006,-8.9706 22.47335,-24.5747 25.34521,-24.5747 4.4342,0 5.3406,7.6382 1.65527,13.9489 -4.64139,7.9479 -16.38035,16.2264 -45.37924,32.0019 -45.09622,24.5326 -51.96309,30.5212 -64.68589,56.4123 -10.27667,20.9132 -11.52417,28.1373 -4.8589,28.1373 2.31945,0 10.89943,-2.7912 19.06663,-6.2026 8.16719,-3.4115 18.85344,-7.1561 23.7472,-8.3212 8.42234,-2.0053 8.89776,-1.9415 8.89776,1.1952 0,1.8226 1.88482,5.1987 4.18848,7.5023 4.01038,4.0104 4.97717,4.1693 22.73535,3.7363 17.74107,-0.4325 18.74504,-0.2681 23.10831,3.7849 4.39145,4.0791 5.71213,6.4389 8.36249,14.9421 l 1.22366,3.926 -30.28896,-0.5363 c -26.65179,-0.4719 -30.83906,-0.1773 -34.86997,2.4532 -8.14652,5.3163 -10.32562,10.6231 -11.11145,27.0596 -0.69498,14.5359 -0.58377,15.1366 2.49681,13.488 1.7733,-0.9491 6.13857,-5.9571 9.70061,-11.129 z m -355.83139,-10.5569 c 3.15142,-1.2093 3.57892,-9.3097 0.77894,-14.7597 -3.49884,-6.8103 -10.52732,-13.0234 -14.73251,-13.0234 -3.86122,0 -4.06598,0.4413 -3.07642,6.6297 0.58307,3.6463 2.5601,10.129 4.39341,14.4059 3.33612,7.7829 6.09688,9.257 12.63658,6.7475 z m 22.69214,-11.9705 c 0.38743,-3.9954 -0.73653,-6.7799 -4.38485,-10.8631 -6.07224,-6.796 -8.8472,-5.4368 -8.8472,4.3334 0,10.9384 1.24272,13.0183 7.41929,12.4172 4.57165,-0.4448 5.36269,-1.246 5.81276,-5.8875 z m 29.8941,-3.3009 c 1.50035,-0.5757 3.49255,-2.4755 4.42709,-4.2217 3.61761,-6.7596 -7.34606,-18.1222 -13.69801,-14.1965 -1.99964,1.2359 -1.29179,6.4761 1.99977,14.8043 1.93177,4.8876 2.81192,5.3251 7.27115,3.6139 z M 992.60896,909.69603 c 3.93969,-3.93969 4.46271,-8.47406 0.97744,-8.47406 -2.81684,0 -12.84113,8.05583 -12.84113,10.31952 0,2.87873 8.45467,1.56355 11.86369,-1.84546 z M 755.3897,890.00524 c 5.09691,-1.50847 15.30833,-3.22447 22.69207,-3.81333 13.91267,-1.10954 18.70995,-4.12234 9.71117,-6.09881 -12.56479,-2.7597 -33.76292,-3.79865 -45.80964,-2.2452 -17.48063,2.25415 -45.15807,0.47926 -85.88983,-5.50792 -54.13448,-7.95726 -78.43409,-9.30453 -102.19016,-5.66586 -3.12473,0.4786 -5.32664,1.22489 -4.89313,1.65839 2.16729,2.16729 111.68874,14.84347 152.0912,17.60326 14.44827,0.98694 29.32024,2.88993 33.04882,4.2289 8.73038,3.13513 10.14348,3.12452 21.2395,-0.15948 z M 491.79216,817.92217 c 7.52493,-3.38974 12.2706,-3.94148 42.37029,-4.92605 25.82835,-0.84485 35.46999,-1.77712 40.50823,-3.91684 5.6053,-2.38056 8.69503,-2.54691 20.29328,-1.09261 17.88706,2.24285 59.41672,2.18695 102.7478,-0.13828 39.48388,-2.11879 65.38701,-0.61796 95.10175,5.5102 18.16807,3.74685 18.41077,3.75195 34.48677,0.7241 8.90445,-1.67712 16.55487,-3.6398 17.00092,-4.36152 0.44605,-0.72172 -7.37681,-1.81596 -17.38415,-2.43164 -26.87981,-1.65372 -42.36897,-4.17126 -53.96193,-8.77072 -10.04825,-3.9866 -10.53383,-4.02204 -16.94812,-1.23702 -5.49914,2.38767 -10.71334,2.74664 -31.17826,2.14645 -44.61007,-1.30831 -62.88173,-0.66219 -71.18208,2.51715 -9.44381,3.61733 -8.86316,3.60915 -21.27223,0.29965 -27.23141,-7.26263 -59.3304,-6.60097 -112.30576,2.31499 -16.48423,2.77436 -35.69131,5.84212 -42.68241,6.81724 -15.05923,2.10047 -30.50661,6.3148 -30.50661,8.32275 0,0.78602 3.79916,1.9331 8.44256,2.54907 5.24901,0.69631 10.21747,2.65893 13.13478,5.18845 l 4.69224,4.0685 5.08444,-4.88329 c 2.79644,-2.68581 8.89776,-6.60107 13.55849,-8.70058 z m 128.46613,-65.23454 c 2.98319,-1.5293 8.76548,-5.06686 12.84957,-7.86125 4.46729,-3.05659 13.58246,-6.65052 22.87996,-9.02109 l 15.45436,-3.9404 10.16887,4.04153 c 17.96979,7.14195 49.2472,9.56026 77.0247,5.95542 12.1016,-1.5705 17.25127,-3.69277 14.83166,-6.11238 -0.62276,-0.62277 -8.96124,-1.47331 -18.52994,-1.8901 -10.39699,-0.45287 -22.06238,-2.13961 -28.99017,-4.1918 -9.93788,-2.94385 -14.29225,-3.27454 -30.50661,-2.31685 -10.40275,0.61442 -23.49007,1.28156 -29.08295,1.48252 -7.03906,0.25292 -13.03784,1.77125 -19.49033,4.93311 -5.1268,2.51225 -12.61682,5.06708 -16.64447,5.67739 -10.90928,1.65309 -27.66956,-2.13801 -38.62972,-8.73788 l -9.52976,-5.73852 -8.27351,6.07331 c -9.26197,6.79893 -10.63952,9.85719 -3.61276,8.02072 9.71325,-2.53859 17.81364,-1.21624 21.94066,3.5817 2.14787,2.49705 3.90522,5.95933 3.90522,7.69397 0,1.73463 0.95333,3.53855 2.11851,4.00871 4.67427,1.88612 17.0066,0.96155 22.11671,-1.65811 z"
       id="path1458" />
  </g>
</svg>
