<?xml version="1.0" encoding="UTF-8" standalone="no"?>
<svg
   xmlns:dc="http://purl.org/dc/elements/1.1/"
   xmlns:cc="http://creativecommons.org/ns#"
   xmlns:rdf="http://www.w3.org/1999/02/22-rdf-syntax-ns#"
   xmlns:svg="http://www.w3.org/2000/svg"
   xmlns="http://www.w3.org/2000/svg"
   xmlns:sodipodi="http://sodipodi.sourceforge.net/DTD/sodipodi-0.dtd"
   xmlns:inkscape="http://www.inkscape.org/namespaces/inkscape"
   inkscape:version="1.0 (4035a4fb49, 2020-05-01)"
   sodipodi:docname="villager1knot.svg"
   viewBox="0 0 1274.0961 1684.1919"
   height="1684.1919"
   width="1274.0961"
   id="svg82"
   version="1.1">
  <metadata
     id="metadata88">
    <rdf:RDF>
      <cc:Work
         rdf:about="">
        <dc:format>image/svg+xml</dc:format>
        <dc:type
           rdf:resource="http://purl.org/dc/dcmitype/StillImage" />
        <dc:title></dc:title>
      </cc:Work>
    </rdf:RDF>
  </metadata>
  <defs
     id="defs86" />
  <sodipodi:namedview
     inkscape:current-layer="g90"
     inkscape:window-maximized="1"
     inkscape:window-y="-11"
     inkscape:window-x="-11"
     inkscape:cy="942.18511"
     inkscape:cx="893.54655"
     inkscape:zoom="0.41721854"
     showgrid="false"
     id="namedview84"
     inkscape:window-height="1826"
     inkscape:window-width="1080"
     inkscape:pageshadow="2"
     inkscape:pageopacity="0"
     guidetolerance="10"
     gridtolerance="10"
     objecttolerance="10"
     borderopacity="1"
     bordercolor="#666666"
     pagecolor="#ffffff"
     inkscape:document-rotation="0"
     inkscape:pagecheckerboard="true"
     fit-margin-top="0"
     fit-margin-left="0"
     fit-margin-right="0"
     fit-margin-bottom="0" />
  <g
     id="g90"
     inkscape:label="Image"
     inkscape:groupmode="layer"
     transform="translate(-75.729333,-377.41236)">
    <path
       d="m 840.2698,2056.5083 c -56.18637,-9.9652 -113.06932,-28.636 -172.69315,-17.1503 -71.42073,-13.3863 -143.9511,2.0842 -215.47667,2.5504 -0.0175,-3.1911 -27.78266,-6.7189 6.45386,-15.1272 30.36264,-2.356 91.06104,-105.171 68.59202,-80.2231 -60.85961,62.8341 36.74051,-39.811 17.22036,-75.3312 -3.01382,-45.8823 26.87693,-166.3217 -43.69462,-116.5816 -27.91844,-36.1952 -9.62281,99.492 -42.98876,26.7045 -12.27371,-30.6925 -21.60666,-108.3292 -19.2015,-29.4313 13.43314,40.4337 -24.73208,101.79 -27.45777,28.7504 -9.55266,-35.364 -45.75129,-132.3268 -24.89765,-124.8759 -0.93214,36.7142 -20.40377,158.6396 -42.45605,68.4246 -5.07472,-34.5999 -32.26394,-157.2673 -32.29374,-57.3604 4.54854,27.1806 -11.22498,128.4403 -20.23083,44.1733 -4.24729,-45.0032 -22.1929,-165.0263 -13.90917,-149.9013 -12.57831,81.2966 -6.91772,164.5903 -19.33617,245.6028 -39.16706,13.2231 -32.62836,-112.1815 -46.09442,-117.3124 -34.06679,69.366 -34.02629,-165.952 -53.63288,-65.1881 2.17725,34.0508 -21.65386,174.4617 -31.62482,76.6036 -4.65204,-34.8364 -3.34263,-163.9619 -25.04534,-68.8831 -43.821296,71.2543 -17.603544,-72.4986 -12.881497,-99.7774 4.640201,-55.4526 26.936627,-133.2454 30.389937,-174.7039 -46.815661,64.3458 15.91505,-139.3186 -14.41048,-90.4958 -13.962776,-62.528 -9.80666,-130.529 -10.441292,-195.553 1.007052,-41.9099 44.327402,-157.39092 25.044902,-148.6864 -17.40052,77.5147 -19.848885,158.2915 -14.41905,237.3064 2.44591,-87.0306 27.98255,-171.11187 34.90725,-257.73841 2.57387,-34.57837 39.24536,-147.99214 -6.69282,-59.85864 C 110.698,870.53105 48.457769,966.50897 89.304396,881.37583 120.7027,822.4418 134.36887,747.98985 185.67522,703.3668 224.23669,648.15962 261.89721,584.41383 319.15873,542.39398 365.95074,525.23179 353.27519,501.89541 313.985,528.90946 259.03447,586.5382 207.95657,648.78977 145.63366,698.1746 c 8.58629,-71.6623 77.59451,-119.49184 129.43771,-162.31764 75.25471,-39.85937 148.75289,-87.2343 235.10209,-98.36184 71.34579,-4.88252 135.2759,-18.42589 202.29,-44.74242 95.97534,-17.27638 198.03245,-27.32615 290.38524,11.09974 61.5163,36.48115 106.0083,89.80835 155.3991,138.30897 33.7913,58.13832 77.1461,110.02117 98.1963,175.223 34.7265,67.21199 35.1463,145.76057 53.6336,218.20264 5.3879,51.95921 29.9115,96.67275 39.7477,146.19535 -3.1009,74.1674 -43.6973,141.8895 -19.8917,217.653 10.0627,85.2322 -61.4415,152.6018 -60.7281,237.4058 -12.6181,57.3094 -10.5119,124.6786 -44.1299,173.0993 -19.4312,-37.7194 -13.7903,-127.7136 -26.0507,-126.3607 0.6147,38.2392 -33.2271,127.7357 -51.723,43.5867 -22.3233,-54.6861 -31.5441,88.0775 -43.5676,119.0999 -34.9766,73.9322 -18.1933,-72.363 -26.3,-96.0918 -40.8261,17.297 -60.8965,101.3371 -88.91842,102.3333 -3.36048,-43.3761 12.61362,-156.2757 26.50122,-137.7583 -10.439,15.5403 -10.1713,45.2693 -35.7682,45.9076 -29.42441,19.0398 -52.04655,43.9858 -77.23567,51.2104 -11.92375,39.6156 -4.58982,110.8521 -1.94712,162.8828 20.96261,51.9558 27.80088,110.1736 72.54121,150.7502 74.41728,51.4166 -59.35642,1.1652 -88.78202,31.4555 -14.44249,-0.3913 -30.21518,10.9518 -43.5556,-0.4478 z m 36.62065,-5.48 c 36.55518,0.047 66.59931,-24.7538 81.42988,-23.8342 -42.94354,-54.1513 -69.9884,-123.2466 -74.07581,-192.5948 -11.15691,-35.1034 16.13095,-99.3492 -27.52294,-90.4373 -13.25768,57.8943 -38.59044,0.1785 -63.00544,36.6793 -15.10503,-26.7151 -27.02178,5.4061 -49.5057,-3.3333 -33.30306,23.6856 -41.76834,-1.9934 -58.8983,15.1004 -7.57619,-42.1582 -45.74662,46.6861 -43.48674,-21.1319 -15.08204,-19.7668 -128.9935,-75.5399 -66.15964,-3.2587 21.94597,21.4341 107.51733,83.423 36.04535,45.2879 -23.95742,-14.058 -70.16565,-72.7958 -47.18257,-12.7953 1.6135,39.3329 68.2333,87.0939 72.62439,72.3185 -39.67553,-1.1267 -100.64842,-74.8341 -72.66087,-36.9043 -3.0501,39.912 114.19499,92.355 29.68837,59.6431 -29.26383,-27.333 -50.9037,-65.3801 -30.62225,-3.122 8.16028,36.5947 117.112,108.9829 32.12968,63.1184 -36.36307,20.2621 -61.53968,-61.4473 -15.53228,-9.0811 20.34292,19.3224 -38.61242,-85.6236 -32.63904,-23.031 -1.03433,51.0213 -136.25797,121.6497 -28.38459,109.9531 76.01852,-19.6869 151.83578,5.6403 230.16906,-6.1432 41.76867,12.2651 85.94449,19.1056 127.58944,23.5664 z m -324.39839,-33.106 c -37.31501,5.9279 -61.25296,-53.1563 -19.15545,-15.0116 16.25974,3.7093 63.8093,14.6523 19.15545,15.0116 z m 19.87819,-13.0576 c -47.91751,-3.579 -43.97798,-88.4362 -16.16976,-19.7718 10.86112,10.1271 56.63584,18.4596 16.16976,19.7718 z m 16.58015,-9.412 c -38.281,0.7634 -64.51673,-85.3676 -22.56658,-27.1233 3.32934,15.422 67.42508,24.1898 22.56658,27.1233 z M 429.15873,1739.3286 c 5.27979,-23.4661 -11.43449,-58.8904 10.04697,-73.7916 13.7869,34.465 14.49334,106.6594 36.49341,118.3483 -2.45635,-33.5049 12.60721,-64.5337 39.99637,-37.4771 65.81188,-33.32 -55.84751,-66.6249 -79.93411,-94.5673 -60.03683,-20.3668 -91.42055,-63.0053 -126.465,-110.9996 -15.88039,-30.946 -27.95427,-134.6736 -39.54065,-43.751 3.5462,37.7208 -33.64194,104.4067 -45.63326,32.3207 -17.02118,-27.9864 -9.40341,-153.782 -15.3926,-133.903 -2.6197,31.2799 -30.31329,175.578 -51.5093,91.2662 -15.22562,-126.0972 -10.7341,-253.4652 -16.28185,-380.1573 -14.8325,53.9524 -42.554132,108.224 -26.80191,165.0941 10.15119,30.0401 -21.136512,125.5862 16.22561,53.348 -9.58846,108.2485 -47.377404,214.1979 -43.367872,323.7823 9.835481,-35.4458 42.630252,-117.3837 42.093252,-34.3333 3.78384,31.0043 7.63461,164.0226 15.37401,62.2367 -7.90593,-40.7031 30.44612,-142.5282 42.55827,-49.9811 5.42746,28.3096 18.48754,102.8533 19.66668,33.1981 -6.51792,-39.0966 20.21149,-72.4105 15.71429,-8.4909 4.3523,42.2429 7.75345,123.2753 30.56666,139.877 6.86032,-90.6329 4.71966,-182.7795 22.95093,-271.9789 27.4782,0.9177 10.81695,108.2368 21.42609,146.1602 0.13957,96.6963 9.86816,-132.8443 39.29093,-19.8671 7.92754,29.5024 27.31087,157.5832 33.19189,69.4606 -8.61298,-44.5572 34.52365,-114.8612 38.76872,-33.6691 -0.31787,28.5365 21.35836,150.4463 19.76539,119.9357 1.01588,-20.6674 0.68097,-41.3761 0.79708,-62.0606 z m 231.10309,49.1794 c 5.62734,-31.8013 -19.29545,6.4743 0,0 z m 62.18842,-12.7936 c -13.56169,-0.656 -7.47482,14.141 0,0 z m 21.37516,-1.5398 c -4.5953,-6.345 -7.95528,7.6117 0,0 z m 27.33333,-1.8909 c 5.20067,-11.849 -11.89064,1.282 0,0 z m 35.96929,-6.362 c -0.003,-27.6893 -25.67298,21.7809 0,0 z m 35.91399,-6.5276 c 3.02611,-42.8205 -26.20013,32.0498 0,0 z m -166.57036,0.4472 c -2.39366,-14.7296 -4.21266,8.8734 0,0 z m 20.02041,-2.3333 c 49.18212,4.414 135.58629,3.2456 178.37615,-42.013 8.3395,-16.6481 32.9037,-83.1797 40.39445,-29.3204 3.108,-59.2971 42.87,13.8445 54.79711,-47.4236 37.87423,-33.3998 57.63323,-66.0783 85.79263,-107.6603 29.4602,-24.8157 21.7625,-79.8791 49.9037,-110.8074 27.9221,-49.2803 14.3569,-92.5982 30.1017,-141.4807 14.4491,-56.7664 -1.819,-46.2044 19.2498,-86.817 -8.4123,-34.8773 17.488,-14.8032 11.7397,-23.5083 9.1314,-33.4259 11.8814,-179.7035 -3.3194,-77.9104 -4.3425,32.1096 -34.5346,176.4698 -22.6045,75.4258 14.0393,-61.9885 26.4709,-132.3211 26.1223,-186.85078 11.4387,-66.45828 2.7135,-104.07181 -4.2951,-149.49522 -27.007,-25.90194 -84.1383,-70.56964 -97.8105,-111.18436 -45.6099,-14.56951 -83.38742,-74.03533 -106.71413,-92.84184 67.86873,4.70059 -15.52694,-14.86114 -47.06724,-11.16082 -55.67603,-28.69736 -120.05589,-7.31728 -168.64908,-21.61012 -46.05778,1.84839 -120.42395,-10.3259 -146.038,14.99171 -44.77519,-1.67931 -119.45818,10.78574 -159.3426,52.35477 -66.18247,40.42999 -87.68879,116.94166 -123.30365,180.19854 -17.99337,44.37422 -5.48514,59.6116 -29.59824,99.24355 -3.14212,55.13335 24.05261,105.81617 46.56066,153.94087 62.78261,-8.0548 138.28684,-75.7913 205.79023,-36.2033 38.74598,27.1953 34.79209,87.4735 1.82944,71.6325 -53.59795,47.0519 -138.27249,11.286 -195.58209,-15.7962 -4.37063,40.3938 68.74568,87.3176 69.32141,114.7546 -50.66906,-12.6259 -70.43794,-84.7243 -98.14305,-126.483 -29.6727,-55.0607 13.94126,61.2716 31.24501,82.3615 18.63946,49.5456 78.93894,102.7682 96.87835,128.5283 -63.23328,-19.4395 -97.28282,-123.2099 -123.23945,-147.4327 36.4701,65.8831 57.01497,162.1721 133.60439,190.0341 -40.84644,24.0693 -84.12917,-65.8992 -104.56056,-104.0759 -17.13665,-35.7027 -52.25704,-101.868 -19.9525,-27.166 37.06083,61.6343 59.51995,139.8984 127.93505,174.9775 -59.48259,1.6935 -89.10233,-85.4095 -117.3737,-132.6442 -47.3389,-76.6098 43.90774,99.1198 -5.52537,40.7751 -43.00422,19.3883 -6.09113,112.0062 -0.24402,164.5683 6.14968,46.198 50.84776,112.4222 76.31971,123.8245 -24.0823,-21.8238 -32.7216,-77.3072 -1.38232,-27.325 25.81166,19.5326 79.27031,99.1175 21.34779,52.4547 -5.02152,12.2556 64.45137,50.065 49.71117,18.2936 -2.3448,-27.0874 4.75373,-26.988 -12.94225,-61.6534 20.5014,-7.0645 -2.00629,-65.2507 24.77054,-31.1819 -15.75456,-33.4321 3.80743,-59.2274 13.98423,-38.3228 -18.8739,-29.4098 5.95794,-66.6051 20.84912,-17.3247 -13.32164,-48.1081 19.92192,-70.461 25.19452,-50 -3.33672,-82.7422 24.30762,70.2449 17.59009,-12.1297 -5.92987,-40.2845 20.06983,-26.6904 18.122,9.7513 2.70835,-58.199 15.16111,-18.3926 22.29252,13.7118 8.42187,-52.0314 21.59645,-34.9869 16.9,4.3802 2.29461,-3.4826 20.00382,-75.9605 26.30012,-23.7136 22.81546,-36.7327 10.01248,59.9801 38.85982,5.0852 -8.78181,51.0698 35.81277,0.8709 35.68344,38.2482 4.49726,-33.7926 35.09168,-72.7586 32.23918,-15.1404 1.30275,23.6371 24.56174,-53.1157 28.47395,-4.2386 6.70035,-22.8572 47.3421,-80.8179 42.0738,-19.9758 16.74655,-55.2415 44.91648,-60.904 36.92596,0.183 7.25034,8.9673 39.35414,-87.8511 46.14735,-43.4844 22.35152,-19.1154 -5.32061,70.3206 19.66801,7.2938 2.67769,24.3389 -0.63497,46.9491 -1.98778,80.3037 22.94602,-77.7927 17.79357,34.418 13.54782,27.9071 24.0923,-34.491 5.75257,46.6231 22.30655,40.6257 16.52936,28.6588 -24.41963,60.2611 -41.92606,78.0543 16.66878,-70.62 -24.91507,-22.1375 -13.39256,-10.8048 7.89559,-31.6491 6.17152,-75.7458 -6.3891,-16.6292 -34.64494,55.7746 21.04401,-61.9674 -19.84937,-42.7722 -74.97975,57.0603 -177.74651,60.9861 -264.81193,33.2692 -37.90019,-4.3192 -99.89224,13.1307 -89.54723,-1.4089 47.39491,-32.5852 -42.20582,25.1627 12.47296,-15.8381 23.99983,-21.2297 46.64975,-64.3601 19.62119,-8.8102 62.2967,-7.3777 123.55504,-27.0534 185.94739,-9.6436 32.45653,-36.4486 141.47917,16.5226 130.28218,-31.2176 11.31371,-20.7511 32.27535,63.1577 30.40339,-10.2119 12.0761,-46.3823 -14.23859,-96.1852 -12.77007,-118.428 -8.32541,54.5591 -52.08533,67.3636 -45.85757,12.4093 -6.50284,25.5874 -38.22041,66.444 -33.41933,13.2007 -13.59887,30.5346 -28.28085,53.5701 -44.0865,39.6936 -20.45348,73.7801 -24.4828,-64.6551 -35.57754,5.4793 -17.31002,31.6731 -26.5462,-0.985 -51.42933,3.4236 -6.24533,-5.9205 -40.55056,-33.7135 -33.20661,-25.8285 -16.77547,-24.3122 -26.88476,64.0909 -36.10488,12.6345 -28.32395,3.4326 -33.44273,-3.7784 -53.58324,17.3439 -25.49758,11.8225 -22.87072,31.0843 -46.85132,23.9341 -3.94538,-12.1637 12.4767,63.2642 -17.54954,30.2698 6.85827,32.9379 6.38867,59.1342 -1.9362,85.4538 15.66269,20.0118 -4.41708,44.0871 5.03992,58.4015 10.13885,-40.7391 8.12465,18.1548 35.09074,-12.2858 25.26757,18.6947 39.29367,46.4428 61.80386,15.825 16.44012,56.2462 51.57034,19.7583 51.70786,78.6353 28.55006,28.6953 14.38893,-90.4978 32.58489,-16.031 2.60655,5.4416 2.16484,36.2201 14.05976,20.4078 z m 76.6,-104.5031 c -37.1822,-26.2648 -81.29969,0.706 -91.46284,-10.0049 -69.7295,12.431 64.28106,-33.4778 86.19618,-4.8526 16.25203,-0.1644 27.68499,16.054 5.26666,14.8575 z m 95.83134,-35.7072 c 53.95177,-25.7158 -17.62287,21.8632 0,0 z m -309.76467,-78.3069 c 18.92934,-42.2487 6.33059,14.5926 0,0 z m -171.20005,-50.9496 c -5.54099,-22.2145 18.49446,4.8277 0,0 z m 3.8923,-34.0138 c -25.40807,-48.5309 -7.72814,-32.648 14.64115,-1.0148 -4.37254,3.1179 -10.74709,12.7041 -14.64115,1.0148 z m 329.70622,-29.3093 c -37.17373,-49.0723 -100.53717,-64.013 -153.95494,-66.2624 -60.47456,-35.1655 -50.47802,-68.324 19.44727,-74.0503 32.38799,-14.5327 95.63704,-15.009 41.0416,4.4359 -39.53905,3.5893 -122.88342,9.7115 -56.28354,51.7632 34.1142,22.1033 90.95703,-60.032 92.39932,5.5939 26.63986,20.8121 73.84121,102.7906 77.39442,44.1694 25.19244,-41.1302 62.02456,-87.7425 107.96384,-67.9811 28.93291,-33.1747 93.80652,-7.0287 34.34389,-37.0407 -47.37912,-30.9068 -120.483,6.3521 -116.69968,-62.9311 -20.79902,-75.4919 -1.81444,-152.186 38.37212,-216.5736 10.54164,-43.51869 43.86683,-129.92756 71.03569,-138.82518 -27.20027,74.54561 36.17686,-60.61744 15.30276,14.85619 -16.20328,41.24706 50.00342,-104.15016 22.86476,-15.01558 -9.27812,26.4265 -23.83695,94.73727 -1.69323,30.00904 8.36252,-32.32381 48.19433,-85.8821 23.20983,-20.04315 -16.79864,33.37042 -21.88341,82.3962 5.77366,21.89485 15.21542,-37.88403 40.31235,-46.62578 18.34689,0.19622 -16.5067,60.36732 55.38534,-81.759 31.4797,3.81143 2.95972,5.13139 40.17994,-43.44684 25.28454,4.42887 23.3329,-6.07085 38.8051,-49.72117 28.0883,-1.23251 29.9453,-5.16164 40.2702,-37.0768 39.8843,1.72486 12.4212,-16.86946 42.2087,12.48648 35.2845,27.69258 -16.2479,2.42006 -22.8365,38.83346 -15.1935,-9.96637 -22.5395,10.66034 -11.183,-18.89643 -38.9774,8.36011 1.9441,-38.13627 -33.7091,-1.48195 -45.998,-18.66094 -13.0983,27.42873 -128.28741,-5.95941 -76.56969,21.73135 -7.79771,-20.27901 -37.68693,39.33987 -39.01455,7.26915 -26.63033,28.01303 -35.97617,5.77236 -56.66059,42.34995 -33.45605,-11.51267 -74.24365,90.42583 -67.23551,137.03833 -3.04283,64.2554 -15.70457,-71 -12.82165,6.3356 0.27062,26.8813 3.08751,103.7957 9.59266,35.9613 17.3231,19.8812 -17.22771,119.2079 52.5016,93.384 41.99394,7.9039 135.12052,33.4218 50.34798,65.1756 -30.08361,22.9569 -51.24807,27.2335 -50.89641,24.2013 -57.93943,6.6291 -73.6273,48.223 -107.96094,76.1998 z m -62.39847,-66.04 c -2.22867,-4.6084 -5.74753,7.2267 0,0 z m 113.73696,-4.1701 c 15.36211,-29.8305 -10.57648,7.3826 0,0 z m 8.92971,-17 c 9.41498,-11.8537 -12.54783,12.0351 0,0 z m 13.33333,-6.9807 c -23.22556,14.6665 -1.92583,4.5047 0,0 z m 0.75331,4.8405 c -6.78679,-0.8973 -5.52178,8.3009 0,0 z M 629.3423,1324.5442 c -10.91206,-4.3616 -24.998,22.6742 -8.90121,6.8915 z m 229.4831,9.6451 c 16.73231,-11.5605 -25.2907,9.8583 0,0 z m 1.66666,-9.6797 c 57.40624,-35.0086 -48.09182,20.7823 0,0 z m 33.50342,-12.6683 c 4.97821,-6.0882 -8.97998,7.2444 0,0 z M 644.49206,1279.508 c -1.19558,-4.9279 -18.58543,5.4153 0,0 z M 841.23024,974.13437 c 16.87082,-31.73453 32.0251,-140.45189 5.24306,-50.26688 0.6471,23.94506 -62.7097,110.17211 -5.24306,50.26688 z m 24.84341,-15.26717 c 12.8068,-30.68476 23.68667,-116.88612 4.83573,-38.25498 3.0512,5.74902 -24.4435,52.2365 -4.83573,38.25498 z m 20.7884,-10.7682 c 8.12217,-29.50486 26.83693,-109.64559 4.37818,-36.59858 1.06564,5.74289 -17.91244,42.89469 -4.37818,36.59858 z m 20.69273,-10.25773 c 11.82963,-29.94305 34.02662,-97.00358 8.3216,-30.87533 1.79373,4.58113 -19.68779,35.68624 -8.3216,30.87533 z m 48.39155,-9.99019 c -9.55535,2.95025 0.8361,3.95774 0,0 z M 952.7889,900.7166 c 15.53348,-58.65412 -39.04574,73.2814 -1.31287,4.12761 l 1.28193,-4.03035 z m 127.9538,19.94616 c 9.1992,-13.50638 -15.3864,6.35838 0,0 z m -36.1434,-6.23018 c -10.1701,-0.18254 -4.2177,6.50062 0,0 z m -62.5888,-4.06511 c 21.2918,-50.71597 -23.24636,2.91791 0,0 z m 25.8649,-5.19287 c 11.5737,-33.89368 -23.73816,18.74502 0,0 z m 27.8387,-1.19084 c 1.7371,-9.08663 -8.9081,8.78334 0,0 z m 35.0879,0.52418 c 16.982,-27.84567 -21.2692,9.90328 0,0 z M 643.78602,1247.1731 c -10.14223,-58.3316 -4.73186,-105.3941 -21.52816,-166.5179 -30.07747,-41.9578 -62.4329,-85.98318 -97.28823,-97.21835 -27.89547,-24.5612 -31.625,5.40025 -61.14839,-19.13691 -32.05301,-7.36214 -37.68609,-16.82119 -31.82851,15.83743 -31.71904,-8.54042 -52.81378,-28.29938 -55.3749,9.12185 -24.55191,-11.91886 -96.48195,0.10266 -79.93374,-1.53766 -13.19975,0.86593 -7.43843,-56.58704 29.61836,-19.26153 -62.30794,-47.32284 1.56525,-14.66696 32.73087,-9.8024 -27.27506,-20.45881 -39.2648,-83.92025 7.71889,-38.19601 23.22458,25.64118 57.36246,44.00539 17.81714,2.41537 -45.76756,-76.47522 102.57167,69.84334 41.79434,-3.63755 -42.15013,-54.07189 12.15721,-21.00322 29.72015,10.4545 -24.30261,-35.98715 17.43779,-97.55342 32.61651,-29.06577 0.52611,-1.5907 16.62532,-54.41746 29.62911,3.69622 35.40932,34.87123 52.57818,106.05271 100.72669,150.07041 36.35256,58.163 25.98186,130.4565 33.78596,195.9516 2.6676,18.1534 -15.7263,27.4675 -9.05609,-3.1733 z M 309.40526,976.72037 c 9.85751,-8.79559 -20.03241,1.58421 0,0 z m 60.42014,-1.9668 c -7.13184,-17.78274 -16.59936,-2.00374 0,0 z m 173.33333,-1.2837 c -15.9258,-34.82975 -58.95057,-113.29183 -29.28871,-30.6286 6.98679,11.17792 16.38644,27.01353 29.28871,30.6286 z M 386.04417,954.35214 c -24.2591,-30.92559 -57.87268,-48.45334 -19.00995,-4.46121 4.10112,10.34226 10.38003,6.38368 19.00995,4.46121 z m 111.23199,-3.68567 c -16.8364,-30.9166 -66.33041,-86.48083 -24.85166,-16.72356 0.0768,7.4349 19.82755,22.05287 24.85166,16.72356 z m -77.45076,-9.25221 c -38.88315,-34.70948 15.69783,23.21706 0,0 z m 270,324.85104 c 15.40661,-21.729 34.82633,-39.0153 42.44701,-15.6328 51.66264,8.7827 -38.60541,13.05 -42.44701,15.6328 z m -166.5519,-38.424 c 26.1832,-40.8053 0.22013,16.2805 0,0 z m 364.56979,-15.8295 c -28.64834,-22.3337 -54.86657,-96.7731 5.98211,-52.0873 27.33656,14.1584 157.0865,19.7871 61.44682,22.7473 -47.93392,-14.4981 -38.6144,-2.719 -48.82479,8.8312 -74.62307,-49.2913 2.33398,1.0906 -18.60414,20.5088 z m -371.29551,-15.9773 c 29.30869,-17.2005 54.88131,-59.728 7.95759,-22.9536 -32.95192,22.444 -68.98999,27.4137 -13.01721,2.8948 23.87801,-17.9923 78.27566,-46.7726 40.02397,3.0638 14.31679,-31.2673 -50.68583,40.3564 -34.96435,16.995 z m 25.27762,2.9701 c 4.50566,-5.4089 6.30464,-3.6828 0,0 z m 379.72941,-57.545 c -36.19793,-15.0866 -121.87325,-26.0141 -58.78729,-59.0084 41.63281,-63.5734 121.04627,-64.1275 177.72448,-19.6754 86.4715,14.8802 -21.8288,67.6505 -59.54609,74.8269 -19.41579,4.447 -39.59259,4.3499 -59.3911,3.8569 z m 59.60392,-10.782 c 37.27067,-2.8414 132.91737,-49.5836 46.43327,-63.0135 -22.1965,-14.451 -118.20066,-54.4845 -63.0959,-5.4704 11.02465,70.9625 -89.78927,47.3922 -30.52156,-1.9903 21.73724,53.5105 0.0122,-0.322 -7.93809,13.7926 -3.62634,79.0315 67.49659,-26.3275 1.65884,-27.2183 -78.42648,28.3714 9.78855,132.4531 49.82894,61.318 -5.60648,22.7381 -45.18334,32.6477 3.6345,22.5819 z m -86,-6.903 c -50.65821,-50.9447 102.79744,-117.1371 4.49304,-71.5524 -26.43333,30.5617 -76.68283,47.6422 -25.50443,62.0905 6.72146,0.8361 13.34483,13.0142 21.01139,9.4619 z m -540,-66.7778 c 49.31525,-39.4402 123.2328,-70.35837 180.43677,-27.0888 72.60863,65.5732 -73.24047,-51.17707 -110.38452,-6.2035 -23.63722,10.6207 -48.13273,19.2552 -70.05225,33.2923 z m 724.68717,-12.9222 c -60.1681,-29.7406 -153.94375,-67.84104 -207.46214,-8.6922 -20.06374,9.2492 63.60594,-66.72461 97.41331,-35.86155 23.25715,2.94605 136.84323,23.09545 110.04883,44.55375 z M 745.8254,787.00452 c 4.5057,-5.40889 6.30461,-3.68264 0,0 z m 352.503,949.83678 c 2.9482,-72.6039 47.625,-132.9824 47.3025,-202.2321 0.5744,-112.9023 -15.7369,86.8518 -47.3204,61.8735 21.3511,-81.5962 -57.295,39.1225 -41.1836,-3.811 24.3275,-84.9969 -42.9089,19.9421 -36.3807,54.8312 -14.219,31.4885 -40.07456,150.0893 0.6207,58.8127 20.274,-28.7959 82.5284,-103.6904 67.3092,-19.7707 0.7032,7.0344 -1.8359,109.8845 9.6523,50.2964 z m -466.3993,7 c 7.69939,-40.902 -38.31386,-13.3777 -42.07825,-59.7917 -16.68564,46.8096 -65.81351,-44.9853 -74.409,-4.4527 14.67474,23.8449 51.7982,36.7788 95.97186,60.7508 -3.05879,-7.1155 22.88418,16.245 20.51539,3.4936 z m 242.62864,-5.3788 c -7.94097,0.2479 -3.26341,9.0971 0,0 z m -2.23649,-5.7615 c 20.97989,-14.1663 -17.97906,5.1782 0,0 z m 28.32371,-24.7382 c 24.12962,-14.9174 -25.57414,10.5792 0,0 z m -1.35076,-5.4548 c 23.2773,-15.7413 -25.51837,13.3498 0,0 z m 0.361,-6.446 c 23.8039,-29.017 -16.38969,-30.5965 0,0 z m 334.0308,-10.2207 c 26.0066,-94.7033 21.5168,-197.2455 69.693,-285.2797 46.4548,-73.5143 -13.8381,-160.9483 25.4032,-235.406 11.0711,-40.5236 22.7486,-87.5128 -2.2473,-125.0599 -12.4276,86.5221 -22.9415,175.039 -29.4312,262.7456 -25.8011,69.6417 -19.9024,151.2351 -62.3496,214.7037 -28.0482,-25.1981 6.1899,-127.7546 -4.3611,-163.5245 -11.993,70.4288 -21.7133,142.2766 -58.3245,205.2208 -26.2784,24.253 -27.1839,78.2233 3.8512,93.6578 0.9592,-35.8525 41.8723,-148.7645 40.9541,-48.8291 1.3198,15.3698 3.8377,100.2188 16.8122,81.7713 z m -302.54719,1.7957 c 12.31029,-12.7818 -24.39231,15.6009 0,0 z m 1.35325,-10.803 c -7.14891,-13.8493 -9.53597,11.4119 0,0 z m 41.50342,-16.9927 c 4.97821,-6.0882 -8.97998,7.2444 0,0 z m 8.28014,-11.4852 c 5.05288,-19.0632 -35.1845,27.6665 0,0 z m -2.94681,7.4852 c 4.33127,-6.6272 -7.58474,8.4179 0,0 z m 16.68332,-23 c 15.47727,-32.3275 -21.80226,15.9511 0,0 z m -575.85277,-7.6667 c -31.89151,-37.7365 -43.11492,-17.3806 0,0 z m 597.89374,-18.9277 c 4.5043,-31.6181 -20.70292,25.8895 0,0 z m -244.89437,-9.1107 c 38.34403,-2.788 140.87409,-49.7947 49.6926,-22.3908 -80.4623,9.638 -161.93757,6.1191 -242.35927,0.3368 64.00928,9.7475 126.60721,31.9705 192.66667,22.054 z m 173.6906,-8.6248 c 2.57919,-30.8652 6.89603,-77.6539 -14.20362,-57.6091 4.05767,-32.7081 -1.18837,-65.3393 -14.35049,-11.4736 10.93702,4.3341 10.00007,32.4371 5.64491,63.0282 17.59984,-52.0108 18.03453,-20.9645 20.1277,9.7021 z m 167.46847,-13.2516 c 20.182,-93.9012 -29.6623,51.8858 0,0 z m -750.004,1.3486 c -6.63729,-16.8756 4.58786,26.4036 0,0 z m 794.1471,-0.4338 c 38.8965,-68.4114 51.9233,-145.1716 64.2964,-221.6505 1.0149,-34.5633 28.4042,-78.2718 19.2665,-15.9638 0.3171,50.4693 -15.2898,130.2016 -4.8976,162.2353 30.4977,-66.7981 40.9498,-143.3065 41.2344,-216.5024 -2.6655,-73.6162 5.1999,-150.0459 -18.7983,-220.7513 -9.5162,68.9582 -42.6254,138.5296 -42.9376,205.0981 23.0282,45.1806 -28.2393,128.6014 -60.6413,92.1377 1.6413,43.7096 -5.5062,57.3121 -1.3054,97.2926 1.5,31.3483 -5.3392,114.7975 3.7829,118.1043 z m -84.5926,-34.6889 c 24.338,-45.7318 20.2306,-66.4081 49.9212,-89.2983 9.0742,-31.7311 16.241,-121.9148 -8.7591,-42.6794 -26.9349,54.93 -32.0234,115.7434 -73.3675,157.3732 -30.1492,34.2965 26.978,-19.6751 32.2054,-25.3955 z m -298.0429,29.8569 c 32.75769,2.7956 158.74619,-22.5829 58.66666,-23.8346 -61.6839,3.1242 -117.29498,20.0747 -178.55386,6.9191 -36.22301,3.1708 -76.16325,21.0774 -11.61195,15.7111 43.79243,3.7236 87.5619,3.9108 131.49915,1.2044 z m 321.9394,-15.0166 c -17.6193,13.8841 -14.973,21.2596 0,0 z m -9.417,4.0185 c 20.7002,-19.5151 5.4823,-68.8985 -3.2114,-10.8415 -1.4542,7.1354 -16.0932,37.9533 3.2114,10.8415 z m -725.18907,7.0848 c -3.81172,-7.1482 -0.50089,8.7186 0,0 z m -109.80075,-25.3556 c 14.39182,-64.8644 29.72287,-127.015 35.99611,-193.0734 6.86005,-37.3167 22.98746,-59.8462 -15.74515,-33.1162 -6.50958,-51.9585 59.64066,-22.1802 25.98712,-81.4355 -11.30567,-62.2223 -26.15658,-125.245 -38.24806,-187.9846 4.39559,-26.8568 34.90582,-115.36205 -16.89763,-105.17797 -28.33777,65.08167 21.04389,135.16417 24.77514,202.05087 -3.08784,31.2566 23.27143,10.4519 13.93322,16.686 -19.6389,51.2974 -50.60357,139.875 -1.7932,179.6335 -40.53862,21.4179 -38.95165,-88.8146 -23.54581,-123.4818 18.5125,-87.8867 -83.60588,152.3165 -48.93617,96.5398 -15.99336,87.6595 -16.09237,-74.1757 -12.6258,-103.6051 2.78365,-62.5433 12.95484,-124.6932 12.23431,-187.3995 -66.69769,95.884 -55.12146,218.7258 -52.23738,329.6162 4.53767,46.0633 -0.32616,126.5207 20.2222,152.5264 22.7818,-44.727 13.85844,-127.2595 42.85744,-154.2634 4.31314,68.7439 -8.48837,146.312 29.07922,206.8791 z m 88.16742,8.1145 c -17.33857,-33.5515 -15.21427,-73.8124 -36.99144,-84.9573 3.84945,26.1619 21.46941,86.4452 36.99144,84.9573 z m 576.20628,1.6531 c -1.10718,-13.0372 -3.66989,16.5019 0,0 z M 1127.065,1531.096 c -6.2479,0.4322 0.2818,10.7828 0,0 z m -12.9071,-7.6732 c 19.6291,-53.9621 -18.2427,-33.6736 -4.6732,8.471 l 4.6732,-8.4717 z m 20.083,-25.9148 c -0.9243,-16.5773 -10.0816,50.8629 0,0 z m -817.61884,-65.2732 c -9.99815,-23.6153 1.05767,30.0484 0,0 z m -23.02877,-22.3935 c 12.6186,-16.2055 13.40351,-107.545 2.3029,-39.107 -4.15834,4.3912 -5.91436,79.841 -2.3029,39.107 z m 12.23211,-22.4907 c -3.8619,-7.3868 -2.02243,11.4294 0,0 z m 880.5779,-25.2702 c 37.7316,-23.6684 27.4885,-92.2555 -16.3889,-47.8373 -3.8943,60.8278 29.4219,7.5035 22.2172,2.5891 6.3329,20.9388 -48.6035,47.4122 -5.8283,45.2482 z m -45.2322,-63.4902 c 6.2425,-51.4227 -11.7312,57.3212 0,0 z m 27.7307,-4.3449 c 24.6019,-62.0961 -9.5386,46.6559 27.8691,-8.2513 7.4862,-50.4909 -1.9734,-105.1605 3.7129,-157.7279 8.0113,-65.1255 44.4626,-129.21229 22.5045,-195.9422 -43.7516,-34.62784 -64.1956,110.0857 -19.8082,50.05876 32.4887,47.67954 -12.8085,123.76944 -26.5739,175.75284 -8.7297,31.271 -24.8327,104.2122 -16.0043,117.1309 34.926,-53.9538 -23.9008,53.9459 8.2999,18.9789 z m 26.2943,3.9093 c 31.326,-37.2185 -11.9773,4.8691 0,0 z m -988.03737,-4.75 c 0.38465,-59.8612 72.46861,-92.965 52.29382,-153.8645 -4.49557,-65.5596 -59.59957,-141.01439 -17.13129,-201.21049 59.41573,3.88809 -21.00651,-153.29006 26.1708,-77.62278 29.00738,19.91017 9.28827,80.84185 24.15284,14.46265 7.68729,-30.86979 52.40477,-98.23575 45.75659,-98.32821 -42.9009,37.58329 35.19871,-86.372 65.42391,-100.5854 45.94032,-61.45804 115.84449,-74.41585 182.96669,-102.10538 -53.92003,-16.30447 -117.73482,10.46878 -169.80613,32.56105 -81.06243,35.45479 -141.59857,103.01616 -202.07183,164.76053 45.17818,-62.43114 85.20989,-129.39006 152.08668,-171.83242 56.14944,-50.77385 128.83948,-78.39393 203.41467,-86.23386 -74.74223,-18.10594 -158.47847,6.89391 -222.22939,49.12897 -52.37864,27.4666 -112.4198,85.38711 -132.88875,129.15576 -12.50433,7.60305 -76.07155,44.04161 -73.39047,89.90926 -15.70801,27.55131 -59.198893,122.21734 -49.850755,110.48294 44.234575,-56.5183 75.934375,-119.01634 117.787485,-176.71709 14.8993,-10.44385 -50.28506,83.68841 -29.50655,73.57511 -21.91971,15.35806 -29.21639,108.28699 -25.03571,103.23386 28.62694,-30.72357 72.71334,-100.71827 101.93959,-98.41354 -48.47695,47.50006 -52.23189,124.61712 -78.02513,186.0266 -5.54252,29.86674 -26.50922,125.70774 -17.69001,125.61574 7.59095,-33.9852 68.82676,-145.62481 54.56627,-49.1162 -2.72954,79.8751 -18.95598,159.9118 -10.1421,239.8104 z M 1293.0219,1261.508 c -2.0311,-80.9032 28.6922,-160.2872 20.2392,-240.7343 -10.5789,-52.12363 -19.9355,-122.23608 -36.7068,-181.63089 -16.8394,-35.48067 -44.4096,-88.9271 -30.3748,-15.85145 0.3113,47.38117 -0.3632,94.76353 -1.7217,142.12488 -13.5232,50.45346 -26.3983,112.50636 -36.3841,168.15526 -4.631,38.4731 5.6338,121.7495 5.0717,36.2937 3.2668,-52.9833 17.9926,-40.1139 10.195,6.9761 27.5122,-40.4695 11.0893,-120.8514 39.8183,-145.8595 29.324,85.2741 19.6872,175.9742 27.2892,263.7958 2.4399,-10.8609 1.808,-22.2213 2.574,-33.2696 z m -81.8836,-16.3334 c -1.856,-9.8605 -4.5793,3.0584 0,0 z M 128.70312,1122.8413 c 40.60193,-59.2569 32.23214,-140.26549 64.24995,-207.05025 9.01089,-27.0824 43.685,-125.75746 37.65163,-106.71123 -49.60275,49.31799 -94.73728,106.81144 -93.66026,180.3577 -12.60784,58.41158 -23.66723,117.39108 -21.77679,177.40378 4.92453,-14.5356 9.66291,-29.1419 13.53547,-44 z m 388.92913,18.0696 c 75.67336,-28.6987 1.88639,-113.1612 -57.80903,-84.7583 -99.77359,-5.927 -21.1063,136.4698 29.56566,57.3997 31.4483,-73.7649 -61.09909,-38.3183 -28.05296,-15.517 62.73604,-37.6894 -31.55958,73.413 -13.14114,-6.1651 6.07558,-77.158 93.87851,-6.8377 37.00235,29.6907 -59.25903,32.0882 6.42142,18.1179 32.43512,19.35 z m -225.03996,-30.894 c -3.11206,-30.3629 -24.89969,-146.38749 -21.7409,-56.2272 -0.026,18.1338 35.88733,133.2443 21.7409,56.2272 z m 121.09576,19.1577 c -33.5997,-19.3287 18.79633,-81.7536 -33.38095,-46.5326 -89.63133,15.6791 12.96625,42.6294 33.38095,46.5326 z m 773.45395,-26 c 14.9731,-20.4554 35.0295,-142.78637 -0.9494,-95.3806 -2.3183,16.089 -9.6729,125.7989 0.9494,95.3806 z m -716.98911,10 c 28.06575,-49.1462 -38.71526,10.9095 0,0 z m 841.91661,-111.25 c -2.5666,0.5784 1.91,5.8445 0,0 z m -99.108,-83.75 c 53.6913,24.85922 -6.974,-117.24208 -28.9237,-56.59132 2.6709,47.76209 -18.1704,100.0043 28.9237,56.59162 z m 24.7656,-91.87952 c -10.189,-35.72267 -13.0219,-111.52205 20.8327,-42.64006 35.4346,47.44608 -7.8374,-64.21194 -23.0141,-85.8545 -25.354,-55.7909 -103.3015,-77.78917 -139.6014,-139.00656 -29.01,-32.61904 -72.4007,-50.20616 -28.7231,0.12405 22.6499,57.2477 88.9814,103.68111 92.5777,161.92326 -37.8396,-8.13272 -102.4403,-129.35685 -118.9026,-102.39892 16.7699,42.83004 67.1796,98.76162 59.4772,137.98152 21.7062,13.55364 44.0543,53.57795 54.2912,26.59899 31.2399,1.51912 31.2052,61.71572 57.0523,52.81841 -13.066,-81.89284 32.6398,92.54942 26.714,23.16942 0.1843,-10.90924 -0.1184,-21.82229 -0.7039,-32.71561 z m -83.6064,-176.3397 c 9.4276,-14.45189 8.5387,7.97268 0,0 z M 335.0261,775.05586 c 49.33849,-75.87013 1.26758,-19.41727 0,0 z M 261.8254,721.20588 C 328.44844,646.75115 416.03304,590.38915 513.39828,566.625 c 43.58335,-11.72421 103.90033,19.47384 81.95946,-52.03583 7.63084,-49.43458 14.37622,-101.19216 -55.56979,-75.06845 -78.40068,8.96045 -153.39487,34.93147 -220.0919,77.01049 -68.79026,29.75123 -128.31243,85.59621 -161.22657,151.91456 0.42743,31.75279 102.68263,-86.94216 84.65752,-68.47958 46.16809,-69.74506 114.63327,-94.16252 187.33838,-123.04283 42.08091,-25.1187 124.78627,-30.67319 142.03314,-22.73844 -104.77427,-2.18232 -205.09861,48.44379 -282.30499,115.94326 -31.73336,31.81896 -92.88666,116.92388 -75.17979,113.0312 53.93951,-81.63834 139.94573,-140.35884 231.58709,-171.8138 35.38169,-6.8952 141.44642,-29.08329 128.5607,8.38121 -84.00858,7.48764 -165.29759,39.10321 -226.63766,98.04708 -44.56502,22.4926 -121.00361,133.96024 -105.21362,119.64832 l 8.40136,-7.5489 10.11384,-8.66743 z m 820.6666,0.96872 c -9.1985,-13.36118 6.7115,15.55119 0,0 z m -709.96019,-8.07425 c 3.50548,-9.56072 -8.45259,12.33407 0,0 z M 1070.4783,701.1746 c 1.6132,-35.91848 -77.97852,-104.44871 -48.0885,-121.5121 45.733,20.14986 133.7096,115.82663 116.3789,108.25945 -42.8838,-56.18274 -75.2939,-119.56617 -117.7439,-176.31776 -22.21141,-18.88766 -52.16647,-63.81686 -5.2408,-27.89891 61.67,41.70412 115.5999,91.78505 165.1174,147.67064 58.312,39.29602 -29.1446,-52.43965 -30.3858,-77.3309 -56.3396,-52.01693 -99.7579,-124.21472 -176.02354,-149.69068 -36.78508,-15.38691 -169.76385,-31.65186 -72.66666,-1.49295 54.9749,13.33597 23.00005,22.00035 -10.36488,19.21646 -4.68682,15.03073 -87.4663,41.58679 -21.95392,33.23004 31.30812,-9.92913 166.6311,29.69272 74.41346,21.50077 -33.5878,8.81998 -148.39625,47.1511 -53.96004,52.68858 43.00184,-5.61131 134.81758,78.22836 47.4575,54.82492 -28.75693,-1.92593 -111.12404,5.25784 -38.08119,16.21641 32.57177,6.82845 109.85317,-5.25503 96.61587,39.29077 4.6879,23.9225 79.3948,93.4535 74.5261,61.34526 z M 397.8254,687.89699 c -6.90357,-0.81563 -17.84413,20.8614 -6.19412,6.33333 z m 14.08245,-13.41772 c -7.82788,3.30921 -4.44512,5.78474 0,0 z m 31.25088,-26.67813 c -29.38209,22.91244 -21.81313,19.40115 0,0 z m 15.33333,-7.40911 c -6.59284,1.42503 -19.37771,15.49046 0,0 z m -13.0056,1.58817 c 30.65603,-15.50534 70.74128,-41.47105 11.89214,-10.47226 2.03998,-5.79839 -23.16817,18.13226 -11.89214,10.47226 z m 94.54459,-40.47226 c 50.08931,-8.71856 -33.40435,4.33537 0,0 z m 41.89819,-4.66667 c 54.88391,-31.69216 -60.135,-8.04757 0,0 z m 31.9669,-8.85055 c 101.22537,-11.80389 205.3748,7.90887 306.25837,-11.60649 105.50569,13.43834 -42.35988,-53.54271 -79.74437,-45.40223 -26.42605,-6.03267 -164.14672,25.13882 -81.32921,-9.89217 36.69396,5.61078 84.6321,-10.88243 19.66957,-5.57637 -38.62195,3.67148 -147.18903,-4.20677 -134.70861,13.39733 67.19868,-2.98244 131.58712,-26.88426 199.10314,-23.08716 28.27117,-9.63114 144.52956,-38.75056 53.97332,-41.86893 -34.9276,0.5367 -77.61278,-2.87752 -96.69269,10.28128 36.89812,-18.82967 114.28143,-54.57564 32.23478,-72.90435 -57.61749,-13.91393 -85.68313,3.70506 -122.03209,0.24777 -32.40696,9.50718 -69.78531,13.90069 -98.63362,34.03962 3.81299,53.04397 24.81356,61.94723 72.91379,35.90096 33.71359,-21.96738 185.43387,-27.67261 142.47393,-18.72294 -68.41153,3.34159 -142.89395,16.83926 -201.52856,47.84262 -7.77587,28.02082 -24.16798,-30.05114 -22.16544,24.6748 6.11082,12.53842 -13.82824,69.90055 10.20769,62.67626 z m 124.9503,-13.8552 c 26.88711,-9.31877 127.64363,-12.46454 50.08043,0.30212 -6.56171,1.57727 -60.88065,9.32091 -50.08043,-0.30212 z M 765.8254,530.1746 c -20.24034,-4.14763 -26.0052,4.36485 0,0 z m 77.33333,-9.3026 c -25.56923,-11.99777 -37.59151,9.69365 0,0 z M 613.3091,490.48752 c 8.63025,-63.29285 -22.97169,-21.53974 0,0 z m 196.15247,-17.64625 c 8.86475,-9.59189 -16.30363,10.23429 0,0 z m 89.03049,-59.29633 c -61.32384,-42.88995 -36.6347,16.88097 0,0 z"
       style="fill:#000000;stroke-width:1.33333"
       id="path94" />
    <path
       d="m 1231.3544,861.65873 c -10.2756,-23.0089 -20.1616,-70.01023 -27.8709,-26.60913 -20.2892,-64.63716 -108.8027,-37.28021 -108.0496,-117.04145 -10.2599,-25.71153 -86.3813,-141.11917 -19.685,-78.46638 16.569,24.35981 108.2848,128.68477 74.838,44.45416 -19.4352,-45.85088 -103.028,-125.44281 -89.5195,-151.60222 50.4695,51.81506 108.1815,97.58058 161.1413,147.29691 22.3167,28.67713 45.0278,87.63189 40.5589,106.49024 -49.5789,-80.44527 -24.1883,48.79788 -25.9943,81.35377 0.9767,19.07093 -2.9103,-3.05861 -5.4189,-5.8759 z m -70.3385,-213.51719 c -7.0515,-13.53487 -7.316,16.33138 0,0 z"
       style="fill:#501616;stroke-width:2.39683"
       id="path106" />
    <path
       d="m 1289.8632,1258.3333 c -5.2657,-75.6541 1.1565,-156.0896 -27.6374,-227.2144 -27.0992,19.4955 -22.1395,145.4756 -36.1944,126.1116 -9.3363,-68.7308 -17.9357,66.6927 -16.5284,28.7302 -6.038,-103.2203 47.2644,-199.615 37.3467,-303.25816 4.0138,-27.18085 -15.0743,-137.4367 19.6788,-60.25072 26.9377,73.81997 39.1792,153.37882 47.0129,231.30108 -3.9625,69.4759 -19.603,137.8649 -22.7714,207.3456 z"
       style="fill:#501616;stroke-width:2.39683"
       id="path108" />
    <path
       d="m 1155.8316,1554.9405 c 1.3305,-61.1956 -6.179,-133.1336 5.0267,-187.6359 98.8334,-6.1644 38.3606,-137.7997 75.1667,-199.6289 12.9311,-25.305 22.6151,-147.4187 33.4874,-59.8049 8.1454,91.0499 7.6701,183.5515 0.3673,274.6619 -1.5214,29.5535 -38.6471,159.5547 -34.0869,69.562 -3.7943,-41.6341 19.6777,-116.592 0.2277,-142.7499 -28.6379,68.1468 -23.7505,147.5872 -55.5134,215.8797 -4.738,6.055 -24.687,73.9713 -24.6755,29.716 z"
       style="fill:#501616;stroke-width:2.39683"
       id="path110" />
    <path
       d="m 1226.0004,1678.377 c -9.2175,-31.6127 -1.6584,-170.239 -38.8822,-79.4871 -1.2945,48.2915 -27.8308,63.906 -33.0065,8.8925 19.7179,-64.2132 62.5989,-123.4322 67.4343,-194.4513 4.6518,-41.7673 12.5799,-47.7543 6.7724,-4.1022 -14.2648,36.3464 -1.9705,157.569 27.6382,68.1927 20.259,-69.209 34.1261,-140.7782 45.5041,-211.8978 7.3238,-73.6306 14.7289,-147.3392 25.7989,-220.5079 38.4362,69.0742 -25.5813,140.2515 -11.9595,212.3422 18.8973,72.9938 -10.1263,139.4186 -38.6756,204.6101 -21.7656,73.3061 -23.379,151.4232 -46.1145,224.1985 z"
       style="fill:#501616;stroke-width:2.39683"
       id="path112" />
    <path
       d="m 1090.5009,1728.4777 c 3.9792,-36.6822 6.0196,-116.6754 -42.5906,-57.1148 -23.0995,19.7356 -61.81423,109.4759 -41.0728,27.3665 10.452,-38.0141 26.2104,-127.082 53.484,-131.0242 -21.4495,58.0814 12.7754,19.4687 36.741,1.6983 6.5296,81.0476 47.8339,-72.0182 46.098,-62.4449 8.2964,84.5082 -42.9007,159.2859 -49.4622,242.0891 l -1.7003,-4.5355 -1.4964,-16.0345 z"
       style="fill:#501616;stroke-width:2.39683"
       id="path114" />
    <path
       d="m 1059.6395,1546.5516 c 27.8895,-40.7069 54.9952,-157.6187 69.9599,-155.9244 -0.8841,62.3354 -41.1355,120.2678 -76.9681,168.5077 l 7.0086,-12.5833 z"
       style="fill:#501616;stroke-width:2.39683"
       id="path116" />
    <path
       d="m 604.00587,582.42857 c -4.80552,-55.40137 -4.48347,-84.71876 51.36027,-93.43038 49.68351,-18.81665 133.9696,-40.31524 170.45671,-29.61929 -62.86224,29.12111 76.41231,-4.95218 101.89771,10.00599 -64.5177,45.31853 -155.50424,36.81164 -232.5262,47.18816 -31.56354,-7.60018 -81.05678,18.81234 -21.93246,10.65823 28.49596,-4.91354 88.29019,-12.44967 111.13715,-6.82986 -41.31073,-7.08074 -72.53753,30.95905 -10.55281,15.97557 45.9761,-17.46983 179.43969,6.81252 166.90315,39.94852 -111.9562,8.65186 -224.55419,9.88849 -336.74352,6.10306 z m 191.29624,-7.87976 c 75.09953,-25.90683 -131.65382,7.47119 -20.2486,2.93825 l 10.21986,-1.26392 z"
       style="fill:#501616;stroke-width:2.39683"
       id="path118" />
    <path
       d="m 1055.5556,703.17747 c -60.97492,-30.12241 -51.0231,-124.94316 -138.58204,-102.15075 -48.60688,-0.0842 -51.86174,-18.73512 0.2125,-13.70538 36.02564,5.83096 86.11084,-2.41717 29.52009,-38.1947 -21.20517,-26.73603 -137.40759,-17.40704 -59.91367,-51.21293 21.6762,-20.40997 134.26632,-16.04339 55.99236,-36.75808 -36.58704,-15.35045 -140.4509,8.23233 -55.55962,-32.01837 51.95541,-2.58392 51.95587,-22.49946 2.52245,-32.12329 -80.01794,-28.92885 140.42213,17.05492 80.53256,7.29261 75.20447,26.42131 122.51567,95.08024 175.99467,150.06948 16.6189,28.01818 83.6337,122.89613 17.6819,56.11673 -52.6794,-50.4505 -107.2641,-111.76426 -173.14704,-139.47749 34.26874,55.82167 78.89914,107.79847 110.28544,166.90062 -19.7704,-22.42711 -112.54693,-97.51947 -75.4698,-18.45777 4.687,11.37399 73.219,99.81881 29.9302,83.71932 z"
       style="fill:#501616;stroke-width:2.39683"
       id="path120" />
    <path
       d="m 636.79213,483.67635 c -71.2501,-67.84587 66.58073,-77.79965 113.24347,-83.49648 38.8276,-16.65098 169.90635,12.68464 83.7557,53.35021 -52.91549,-17.06712 -133.06247,9.90222 -190.48971,31.48729 z"
       style="fill:#501616;stroke-width:2.39683"
       id="path122" />
    <path
       d="m 204.80742,1249.1389 c -0.26725,-76.7448 15.36816,-153.509 11.02013,-229.9567 -36.32097,2.7549 -64.74568,130.9334 -49.93731,36.9773 16.51862,-81.55321 35.69295,-164.99907 74.61158,-238.91847 37.03684,-60.09994 -57.49884,27.48376 -66.61637,50.42365 -43.24064,58.81349 -1.50755,-69.41132 8.99804,-92.41416 10.67395,-20.64898 52.22099,-96.25686 9.85596,-37.59152 -32.56312,46.84065 -59.01411,98.13431 -95.138432,142.35208 33.184952,-59.94419 39.740102,-140.35658 103.803502,-177.56555 43.48757,-46.96048 80.61553,-103.91244 140.04977,-134.55729 64.76268,-42.50113 143.7092,-68.71872 221.55365,-55.29992 -152.77583,17.73265 -272.91261,132.51806 -348.7381,259.45517 76.31443,-73.46393 151.40481,-156.14285 257.54354,-185.15118 28.56081,-18.99333 155.7155,-23.70625 67.2263,3.79602 -94.70428,28.19015 -173.25393,101.23996 -214.51587,190.01952 27.55704,-5.60608 -44.99465,104.95954 -39.31258,105.44367 -12.96989,-39.51751 -48.1682,-64.06089 -24.70343,-3.54364 15.48545,55.53127 -62.54049,83.20838 -30.23544,146.10432 18.23505,68.1527 55.74033,149.6358 -4.20964,208.9241 -17.02873,10.8727 -24.48495,88.1891 -21.2553,11.5026 z"
       style="fill:#501616;stroke-width:2.39683"
       id="path124" />
    <path
       d="M 250.22222,726.0143 C 323.41134,616.62339 440.84907,532.57493 574.24342,520.02084 541.44712,469.50982 436.37526,514.07907 384.07398,536.2601 316.53917,568.23783 260.20626,619.82822 214.82562,678.45791 279.50389,544.56554 426.19618,459.63196 572.93815,453.45603 c -91.92931,-15.3345 -178.1775,35.82426 -257.71943,74.96251 -62.1579,34.9406 -90.06223,111.87579 -153.28288,142.95151 43.74879,-107.93353 160.0071,-159.96898 260.91268,-202.80742 53.46176,-8.23342 181.97817,-79.21834 174.06463,18.34616 11.82219,55.78153 -12.46353,89.97946 -72.74402,77.27517 -107.11205,19.424 -198.36314,86.73402 -272.95262,162.92137 z"
       style="fill:#501616;stroke-width:2.39683"
       id="path126" />
    <path
       d="m 244.31723,1547.2917 c -37.46597,-49.5682 -6.65245,-175.3448 -33.64456,-188.1984 -23.13899,29.5667 -13.53833,144.1011 -40.87932,127.2277 -15.17504,-95.5692 -15.975,-193.758 -13.06505,-290.4891 2.41776,-47.4743 20.32491,-144.0261 49.84051,-156.0386 -1.14364,98.9299 -23.70582,198.9124 -7.88337,297.2371 14.25338,-34.086 27.16636,-99.3892 60.16564,-136.7567 -10.68191,37.7767 -28.54713,145.7286 20.71706,136.5064 -47.15813,-38.1457 -4.61918,-166.6942 7.55567,-157.9066 9.63083,46.9873 36.44219,92.2826 -14.11962,121.8415 -8.57597,32.5926 43.76046,-14.1259 18.22738,35.2345 -11.70884,71.6454 -21.09936,144.8122 -43.64659,213.8257 l -3.2678,-2.4835 z"
       style="fill:#501616;stroke-width:2.39683"
       id="path128" />
    <path
       id="path130"
       d="m 422.14701,1774.2204 c -4.28528,-24.3184 -9.89618,-65.6858 -13.31889,-98.1963 -3.35623,-31.8792 -12.38874,-41.0521 -25.30662,-25.7001 -9.4567,11.2387 -15.81632,35.2101 -16.09375,60.6626 -0.13134,12.055 -1.0663,24.6146 -2.07754,27.9102 -1.83113,5.9676 -1.85371,5.9578 -5.52627,-2.3968 -2.02822,-4.6139 -8.19652,-28.8817 -13.70737,-53.9286 -10.42092,-47.3631 -18.67247,-70.7063 -24.99385,-70.7063 -5.84617,0 -11.3228,13.5745 -16.91975,41.9377 l -5.20396,26.3718 -1.78495,-17.9762 c -0.98173,-9.8869 -2.61153,-42.244 -3.62179,-71.9047 -1.48944,-43.7292 -2.61494,-55.4252 -5.95098,-61.8416 -3.80579,-7.3199 -9.85597,-12.0602 -12.28835,-9.6278 -1.92292,1.9229 -10.43008,60.5782 -12.97287,89.4455 -1.39343,15.8191 -4.20186,62.1499 -6.24094,102.9575 -2.03909,40.8075 -4.14645,74.6345 -4.68302,75.1711 -2.16054,2.1605 -10.59589,-15.3692 -14.09078,-29.2824 -5.45207,-21.7048 -11.09779,-67.6306 -12.77947,-103.9562 -1.57082,-33.9309 -4.20592,-42.5666 -11.21403,-36.7504 -6.06006,5.0294 -8.66154,18.7234 -8.67592,45.6692 -0.01,18.2116 -0.73266,24.3275 -2.64914,22.411 -1.44967,-1.4496 -6.34872,-21.3384 -10.88676,-44.1971 -4.53805,-22.8588 -9.89155,-44.0652 -11.89666,-47.1254 -8.19771,-12.5113 -20.85257,-0.6579 -29.97511,28.0766 -3.5597,11.2125 -5.53926,26.0523 -6.83052,51.205 -1,19.4794 -2.50851,36.1074 -3.35224,36.9511 -0.84373,0.8437 -1.55886,0.5454 -1.58919,-0.663 -0.58153,-23.1742 -9.89883,-126.959 -11.54559,-128.6058 -7.33607,-7.336 -19.95531,10.09 -33.010664,45.5848 l -5.925279,16.1096 1.452809,-28.7619 c 2.045792,-40.5015 6.735393,-74.1232 20.541504,-147.2708 14.11759,-74.7979 21.31184,-119.8288 21.27362,-133.1578 l -0.0275,-9.5873 -7.73681,13.1826 c -9.52599,16.231 -10.38965,13.312 -6.75281,-22.8237 2.04512,-20.3203 1.84917,-28.6738 -1.02494,-43.6936 -7.06722,-36.9326 -3.9456,-63.055 14.37116,-120.2612 l 10.3047,-32.1833 1.42006,29.7864 c 0.78102,16.3826 2.02868,64.3008 2.77257,106.4849 2.46147,139.5844 8.83537,229.3121 17.71547,249.387 7.47632,16.9015 16.46484,13.8494 26.21648,-8.9019 5.46141,-12.7419 15.97975,-54.2797 18.71466,-73.9058 l 1.837,-13.1825 1.67016,11.9841 c 0.91859,6.5913 1.79795,22.2306 1.95414,34.754 0.38847,31.1477 3.75529,54.9563 11.18498,79.0952 6.90413,22.4314 11.0496,28.7619 18.83437,28.7619 13.74285,0 26.41638,-26.7274 29.90866,-63.0748 1.94702,-20.2644 5.4994,-35.195 8.37384,-35.195 2.59332,0 6.99203,11.5147 14.92514,39.0703 9.90316,34.3986 11.67505,38.0635 30.14089,62.343 31.1936,41.0143 57.6838,64.494 90.22576,79.9719 10.03678,4.7737 23.10226,12.1341 29.0344,16.3563 5.93214,4.2223 22.21876,13.864 36.19252,21.4262 52.40407,28.3596 62.69743,42.0832 42.71737,56.9529 -5.62952,4.1897 -6.12185,4.1653 -16.13449,-0.7993 -8.3236,-4.127 -11.43854,-4.6147 -16.05181,-2.5127 -8.36269,3.8103 -13.30607,12.7807 -15.35217,27.8584 -0.99365,7.3222 -2.4031,13.9097 -3.13212,14.6387 -3.4619,3.4619 -12.05109,-23.333 -20.0156,-62.4406 -4.83248,-23.7286 -9.88645,-45.2363 -11.23109,-47.795 -2.34259,-4.4576 -2.67373,-4.386 -7.92072,1.714 -5.37689,6.251 -5.47768,7.4352 -5.57394,65.4826 -0.0539,32.5141 -0.48423,59.5026 -0.95624,59.9747 -0.47198,0.472 -2.6139,-9.1053 -4.75978,-21.2829 z"
       style="fill:#501616;stroke-width:2.39683" />
    <path
       d="m 117.30173,1130.2171 c 11.27304,-82.1934 12.12166,-170.57361 52.46161,-244.86251 19.00297,-33.52626 74.91461,-97.58772 39.62471,-21.91567 -33.29455,74.33111 -41.18295,156.16688 -68.04551,232.25508 -13.42256,17.7629 -30.20495,92.4241 -24.04081,34.5231 z"
       style="fill:#501616;stroke-width:2.39683"
       id="path132" />
    <path
       d="m 819.20203,989.74077 c 17.29055,-19.31249 50.02547,-148.76315 36.27579,-63.78707 -2.62257,22.00146 -18.48906,64.89334 -36.27579,63.78707 z"
       style="fill:#501616;stroke-width:1.19841"
       id="path134" />
    <path
       d="m 860.11702,960.11062 c 8.12292,-32.47893 28.03268,-93.59679 12.75963,-26.54695 -3.70268,7.92744 -1.6189,25.08772 -12.75963,26.54695 z"
       style="fill:#501616;stroke-width:1.19841"
       id="path136" />
    <path
       d="m 938.52371,923.63572 c 8.50065,-37.29735 34.08265,-54.83312 0,0 z"
       style="fill:#501616;stroke-width:0.847406"
       id="path140" />
    <path
       d="m 976.83467,908.81738 c 1.87922,-39.20827 23.61903,-8.65389 0,0 z"
       style="fill:#501616;stroke-width:0.847406"
       id="path144" />
    <path
       d="m 882.56674,944.94791 c 8.95284,-39.15384 26.1314,-82.14544 9.57671,-19.6849 -0.10578,-2.6503 -5.7006,33.19044 -9.57671,19.6849 z"
       style="fill:#501616;stroke-width:0.847406"
       id="path146" />
    <path
       id="path150"
       d=""
       style="fill:#501616;stroke-width:0.599206" />
    <path
       id="path152"
       d=""
       style="fill:#501616;stroke-width:0.599206" />
    <path
       d="m 536.64999,969.63294 c -28.38876,-13.70341 -43.3716,-98.95092 -12.45821,-32.49665 -1.10501,3.25235 26.18565,40.27549 12.45821,32.49665 z"
       style="fill:#501616;stroke-width:0.847406"
       id="path156" />
    <path
       d="m 490.68407,950.46772 c -31.7531,-17.22222 -42.11907,-76.23931 -6.89671,-19.72203 0.37875,1.81474 20.9876,25.98693 6.89671,19.72203 z"
       style="fill:#501616;stroke-width:0.847406"
       id="path158" />
    <path
       d="m 370.14819,953.59661 c -37.98673,-38.5194 -3.47324,-26.72082 14.38636,-0.0986 l -9.46886,2.42427 z"
       style="fill:#501616;stroke-width:0.847406"
       id="path162" />
    <path
       d="m 687.42278,1756.4231 c -3.80439,-37.0004 -19.1393,-62.9879 -22.77537,-8.5547 -19.03823,22.5948 -17.70013,-51.4334 -52.15187,-48.2251 -11.6269,-40.5513 -53.00662,4.187 -75.86904,-42.8905 -57.181,33.0604 -32.1117,-47.2548 -33.42254,-89.2603 -10.10589,-37.3386 14.42469,-39.3667 18.06716,-68.5929 28.8027,-7.2982 80.26973,-71.8713 101.76979,-26.8693 19.2518,-84.9365 78.98833,48.821 114.60806,-7.6266 5.927,-50.3892 21.77802,59.5314 36.98448,-2.1045 30.96146,14.7571 35.47339,-62.4686 48.38569,-15.0688 27.07227,-25.4199 19.30183,-37.6123 39.45954,-4.5682 28.83104,1.9591 32.36285,-68.9306 39.65326,-9.8122 8.00265,30.6688 22.76617,141.7285 -22.75271,87.9156 -20.8808,48.4249 -101.29268,1.783 -140.91068,30.2773 -50.42002,-19.1774 -142.15316,19.8835 -171.16453,4.2058 36.61977,-53.1364 -95.65802,62.9001 -12.30018,38.6515 69.93415,-13.4709 136.93549,25.0161 207.45339,11.2169 48.52288,7.1065 102.82147,-51.9688 136.28018,-40.3274 16.84618,38.831 -68.82912,72.9243 -2.27303,47.9357 14.1548,-33.5935 24.58728,-50.497 11.49446,-2.9516 2.49108,4.1948 24.95357,-40.5343 16.67926,8.4326 21.31829,8.0657 62.05967,-60.858 33.95826,-94.2618 -14.62153,-11.8758 -3.58209,-97.7876 -26.74323,-54.4002 1.22781,-28.5018 4.30615,-87.1513 -10.13481,-52.7198 4.31395,-78.8869 -55.0325,8.4835 -53.78097,10.6331 7.94004,-80.0574 -34.54503,-4.6279 -38.03688,-5.3372 -15.24176,-44.7215 -36.77796,50.2872 -53.32417,18.9685 -20.707,55.7855 -17.54538,-51.4807 -43.97781,10.19 -1.00394,34.1796 -49.98049,-4.3113 -45.43222,-9.9804 -20.41365,31.6932 -41.3429,-72.2809 -59.57921,-0.2768 -6.33091,-53.2984 -22.80742,40.385 -29.14465,-26.4942 -16.04689,-12.0799 -6.7872,25.8365 -24.44556,-11.3623 -17.26667,16.1301 4.28713,76.7082 -16.77409,18.1983 -7.85324,-6.0615 -53.8377,59.9523 -38.98898,51.2077 -31.18252,-3.1272 -32.65632,61.6678 -44.68505,89.0049 -21.58637,25.6572 39.70278,117.4811 -29.19299,75.4532 -37.07346,-25.0135 40.37696,16.5309 -0.97256,-29.776 -16.39358,-27.7944 -78.31472,-93.6219 -45.67765,-21.0484 -64.86895,-59.477 -73.08957,-151.9956 -83.78744,-233.884 -5.77659,-27.6569 17.98522,-53.9298 34.5206,-35.7127 -6.35069,-30.9357 -32.43814,-90.0183 0.13861,-29.9324 16.71298,42.1255 70.22094,123.4664 101.27058,107.5674 -66.41716,-42.9955 -93.95648,-122.2088 -128.03451,-189.8073 37.52922,49.1639 56.36457,157.9651 129.99333,150.236 -69.98529,-31.5401 -93.46326,-110.4057 -122.95737,-174.7766 30.84586,45.9402 59.95547,118.9763 113.16545,130.6394 -59.22024,-62.6148 -111.91707,-133.6391 -135.48747,-217.7908 26.73256,38.1843 67.37528,144.4752 103.29389,124.6771 -17.04501,-24.6557 -112.55605,-130.1536 -30.35615,-87.0617 57.6074,29.6594 143.06141,30.6041 185.1668,-15.0424 0.76248,-89.9222 -112.21967,-78.3574 -166.7585,-45.277 -46.46074,33.1353 -83.84329,25.1552 -91.97935,-33.5274 -39.11606,-66.65421 -7.51004,-138.12149 13.50063,-204.08267 35.06713,-73.46026 71.34726,-152.32309 146.63154,-193.02172 63.85681,-31.55656 135.47701,-36.60873 204.13131,-46.40907 67.48088,-0.8735 134.46545,8.16135 201.90568,9.90934 18.16936,12.89562 123.83247,16.22815 98.69451,22.15872 -30.62278,3.82329 50.14293,60.65557 64.20753,78.49742 49.7336,29.84844 73.2622,90.66205 123.3972,123.99489 17.9143,46.94897 13.6359,104.5563 7.8597,154.96746 1.2811,73.85003 -23.9941,145.00553 -27.939,217.93733 16.5112,-32.8541 37.6124,-185.8254 34.7205,-134.0916 11.4628,73.8296 -30.9989,122.2412 -34.1819,194.0107 -13.649,70.4503 -16.9535,142.6337 -55.1889,205.2542 -16.0775,67.7971 -67.087,120.5342 -111.81458,171.6633 -26.50998,55.0206 -78.20068,5.6954 -93.32731,67.3126 -41.01817,61.095 -125.19829,49.6058 -188.07969,55.9399 l -2.98845,-4.1302 z m 95.66017,-103.4545 c -2.9075,-56.6212 -188.7671,2.2593 -76.04163,-8.6181 26.69026,-7.6382 51.07846,5.1161 76.04163,8.6181 z M 566.80599,1536.5754 c 12.73956,-42.5769 -23.38859,23.8488 0,0 z m -171.40757,-49.6582 c -6.47693,-25.7489 -16.7112,11.5149 0,0 z m 8.21414,-29.9603 c 6.05277,-25.6675 -49.66317,-50.1962 -10.87541,-0.5045 l 3.91653,4.3364 z m 348.84074,-61.0974 c 36.8568,-59.0712 135.6856,-39.3975 161.79801,-102.3286 -40.06174,-53.3213 -153.33607,-0.8688 -130.51082,-98.4785 -4.15022,-60.9849 -9.77601,4.5809 -11.7898,-8.6426 0.30024,-22.047 -10.56276,-109.9022 6.42614,-44.2685 -0.86566,-67.8245 23.60134,-139.6793 83.00565,-171.08546 23.56789,-19.785 94.76764,-27.31013 76.34099,-45.01721 36.45808,17.12182 97.82763,-28.32115 127.68423,2.95648 8.8537,-0.65615 53.4965,-13.74997 36.7776,21.65544 48.9239,-29.0522 -30.3935,-81.11525 -55.8441,-45.76085 17.1672,-53.35586 -36.701,30.25226 -28.2014,-19.76296 -38.14216,39.9087 -9.9466,-11.88524 -30.02426,-6.23722 -20.80621,30.66332 -42.33718,50.6577 -19.36087,-0.33261 -7.30862,-43.27836 -61.58642,100.00013 -38.71171,16.42221 15.87012,-24.53941 19.00634,-76.22517 -7.45775,-22.96004 -10.5078,22.91342 -28.96416,76.00506 -12.85857,15.93673 16.39366,-39.02687 11.24758,-71.44201 -13.49543,-14.11067 -0.12845,-34.18286 -24.79718,24.0204 -25.06832,-5.17062 -52.34608,55.3797 -61.47926,136.21858 -97.31878,201.58658 -16.40224,60.5302 -35.80816,162.0443 25.24701,197.1865 41.56126,-1.2344 156.28152,32.327 60.00298,45.8746 -65.05703,-12.0802 -104.46523,62.7979 -135.44038,93.1867 -47.05749,-36.1201 -68.82377,-123.5287 -133.90837,-63.4056 -68.10392,-9.0819 -28.58707,-62.3906 22.30026,-51.8628 48.92259,-1.1976 40.95524,-29.7057 -2.30139,-14.5957 -53.66592,-2.2905 -121.22292,45.4152 -45.50538,81.4115 57.80969,5.1516 119.37592,19.6133 157.70786,67.0862 10.77253,-9.1168 20.46963,-19.3911 30.5066,-29.283 z M 651.87002,1262.5047 c -2.76013,-81.2885 6.34032,-177.0857 -57.83893,-239.1124 -34.11648,-41.93275 -56.84271,-123.26145 -96.84494,-142.2583 -7.56073,30.29034 -40.29251,-47.98665 -48.14731,14.3043 15.6544,51.91825 -58.27342,-40.44104 -30.67144,14.55115 64.29557,72.04217 -83.41017,-59.78522 -28.40283,20.25497 33.60963,47.91797 -84.66972,-80.59407 -49.54975,5.53657 27.97929,41.25225 -50.5215,-11.68488 -43.15773,21.9452 -27.18366,44.72111 84.5114,39.16809 94.81935,10.45876 20.17681,4.15883 49.86928,27.22025 40.65966,-9.23137 73.48631,10.45605 143.22878,41.68612 180.95685,111.74432 33.03443,53.1819 11.14515,159.4519 38.17707,191.8068 z m 92.82935,-3.5728 c -7.24746,-48.5885 -93.18832,23.2839 -20.15773,3.5159 l 8.99844,-1.3057 z M 531.24334,1223.818 c 12.30498,-34.9548 -22.35859,28.7113 0,0 z m 360.71661,-22.9076 c -26.33154,-48.8857 14.95923,12.6874 28.01603,-23.7192 25.00225,8.3124 109.89742,3.9892 36.82541,-4.5679 -38.15702,2.933 -131.01247,-62.7763 -87.7254,18.6248 4.86687,6.3233 23.23555,37.5911 22.88396,9.6623 z m -359.52143,-13.8337 c 25.18747,-1.1072 48.89292,-56.6882 -0.75795,-25.2508 -32.89848,15.503 -73.26669,48.152 -11.89437,15.0764 83.32778,-76.77 -58.04771,104.0361 -5.34004,24.5803 l 5.9234,-4.2317 z m 14.35685,8.999 c -6.41263,-4.1159 -5.7649,8.2457 0,0 z m 427.56892,-56.4364 c 57.38141,-2.2127 146.54281,-69.3853 48.50411,-89.5973 -62.94412,-45.1 -159.85917,-4.1835 -180.75112,61.0314 38.53394,23.7511 86.88176,36.8367 132.24701,28.5659 z m -609.32557,-87.2077 c 56.05452,-53.24919 143.59813,-29.0561 188.72699,-6.9047 -51.1197,-62.76967 -149.55351,-35.8524 -196.99586,11.4067 z m 719.01188,-15.5905 c -52.0587,-32.025 -138.55178,-65.55022 -194.9747,-20.6242 -49.35616,42.215 56.29941,-36.69643 87.12016,-8.3635 34.48024,-2.6932 83.77394,42.7143 107.85454,28.9877 z M 750.17275,784.23646 c -6.41262,-4.11577 -5.76494,8.24568 0,0 z"
       style="fill:#f4d7d7;stroke-width:1.69481"
       id="path164" />
    <path
       d="m 851.37682,2047.2043 c -69.97164,-17.9964 -139.9074,-19.3905 -211.63206,-19.9797 -45.46259,-19.4435 -142.49889,31.5308 -156.92853,-11.223 31.74507,-30.2287 64.00788,-76.6457 73.70894,-108.9943 20.25696,18.4979 39.02262,56.4724 1.80461,21.5495 -16.08911,34.4224 115.75815,61.0299 47.0422,15.9906 -38.48363,-21.1437 -70.6152,-124.3187 -13.27317,-50.3006 90.53789,52.915 -80.61577,-85.6652 -6.12539,-44.8705 23.97875,23.1842 77.37236,36.0362 17.8371,8.4597 -38.27632,-17.3023 -64.59607,-121.931 -7.60409,-54.9499 23.39317,22.1311 65.57785,32.2075 20.07679,-1.5071 -36.82016,-15.8289 -88.5167,-97.1365 -12.10821,-54.1549 44.20464,8.8705 31.4311,74.7144 76.82062,37.2358 33.23965,9.9476 95.97798,-7.6307 128.46882,-14.4377 37.9548,18.8588 71.22993,-64.0628 71.93146,10.0106 -3.58935,87.1919 20.78453,175.8502 73.84903,245.7195 -33.21638,13.3668 -66.91542,30.8765 -103.86812,21.452 z m -281.84011,-29.8512 c -4.74715,-12.324 -98.16586,-45.0011 -37.39241,-1.423 12.14306,2.7372 25.08034,3.3213 37.39241,1.423 z m 18.94044,-14.4817 c 60.41926,-12.8466 -106.87638,-59.8793 -43.74011,-52.3955 -10.19299,10.2733 -10.03904,66.649 43.74011,52.3955 z"
       style="fill:#f4d7d7;stroke-width:1.69481"
       id="path166" />
    <path
       d="m 273.55667,1158.4962 c -4.52662,-70.0674 -50.56996,-137.6095 -31.14533,-208.64498 56.53355,-17.07655 14.20782,73.82838 20.34693,108.75438 0.79969,29.2964 31.8659,89.7417 10.7984,99.8906 z"
       style="fill:#f4d7d7;stroke-width:1.69481"
       id="path168" />
    <path
       d="m 1179.1146,1298.0746 c 11.8084,-57.7644 -32.2466,35.0289 -12.8711,-18.7946 13.6296,-33.5479 -18.6942,9.8623 -4.9406,-41.2125 2.7356,-82.3821 61.4971,-154.3944 51.375,-237.4477 -2.5342,-43.19285 -48.1806,24.678 -30.482,-37.00186 30.0504,-85.58642 65.7695,23.52656 40.4066,62.64886 -24.6413,75.1757 -25.9076,153.8177 -24.6959,232.0768 2.1466,13.7213 -1.9094,43.5084 -18.792,39.731 z"
       style="fill:#f4d7d7;stroke-width:1.69481"
       id="path170" />
    <path
       d="m 1185.0265,931.13146 c -19.3267,-53.99774 26.7723,-120.50765 47.0046,-36.03067 11.8484,32.38661 -32.8763,24.56573 -47.0046,36.03067 z"
       style="fill:#f4d7d7;stroke-width:1.69481"
       id="path172" />
    <path
       d="m 1182.9426,1099.5048 c -8.7296,-24.9478 11.3239,-146.9674 21.9791,-71.4728 -0.3645,10.7906 -14.6936,91.0008 -21.9791,71.4728 z"
       style="fill:#f4d7d7;stroke-width:1.69481"
       id="path174" />
    <path
       id="path176"
       d=""
       style="fill:#f4d7d7;stroke-width:1.69481" />
    <path
       d="m 620.67815,1743.1491 c -24.44321,-18.2803 -116.46509,-42.6854 -92.56408,-72.1192 40.425,33.558 83.61291,14.0028 103.38125,69.0227 l -2.13602,7.1108 z"
       style="fill:#f4d7d7;stroke-width:1.69481"
       id="path178" />
    <path
       d="m 719.65081,1598.7462 c -36.17323,-2.9445 -134.39383,-27.1518 -120.50644,-22.0463 86.35469,4.5141 174.91979,10.4701 259.59179,-9.7805 -41.20381,24.7593 -91.12801,34.804 -139.08535,31.8268 z"
       style="fill:#ffaaaa;stroke-width:0.599206"
       id="path180" />
    <path
       d="m 679.50399,1572.0869 c -33.50263,0.7349 -102.34,-2.9538 -30.83763,-16.4454 74.32086,14.9072 149.13015,-16.0814 222.88326,-3.4862 -57.50973,27.4469 -128.68895,18.5326 -192.04563,19.9316 z"
       style="fill:#ffaaaa;stroke-width:0.599206"
       id="path182" />
    <path
       d="m 965.33659,1127.2955 c 39.13601,-36.8613 -55.00037,37.5325 -63.24704,-24.2949 -28.90271,-88.3944 105.26195,-33.6593 28.03603,-5.461 -19.17615,-45.9207 33.97944,6.9226 4.08433,-36.7402 -64.77639,54.3051 63.71062,56.366 25.95011,-4.8062 -20.6484,-35.8641 86.24778,15.147 101.20478,31.9315 -12.2716,26.0568 -87.5134,52.0993 -96.02821,39.3708 z"
       style="fill:#ffffff;stroke-width:1.69481"
       id="path42" />
    <path
       d="m 882.81828,1118.6173 c -90.23579,-14.2639 95.36203,-117.1193 11.58179,-45.2249 -20.68362,8.8655 3.38904,56.0841 -11.58179,45.2249 z"
       style="fill:#ffffff;stroke-width:1.69481"
       id="path44" />
    <path
       d="m 462.69248,1139.9114 c 66.81915,-7.454 35.58827,-122.6923 -11.26169,-66.199 -34.96529,50.6989 33.61169,59.4457 27.71575,15.8815 -64.60748,16.5968 32.25269,-53.0513 14.00361,9.3175 -23.24657,95.6707 -139.54332,-33.6596 -39.38002,-42.3076 74.05193,-42.3357 140.09392,92.0728 36.89631,84.2919 -9.31411,0.083 -18.77957,1.2201 -27.97396,-0.9843 z"
       style="fill:#ffffff;stroke-width:1.69481"
       id="path46" />
    <path
       d="m 381.27755,1119.1981 c -92.74004,-6.7073 52.84485,-83.5875 19.81918,-12.0783 10.68236,25.8367 -0.67331,18.5481 -19.81918,12.0783 z"
       style="fill:#ffffff;stroke-width:1.69481"
       id="path48" />
    <g
       id="g1509"
       transform="matrix(4.9549884,0,-0.15139616,3.9962087,267.67613,537.96973)">
      <g
         id="g1173"
         transform="matrix(0.52900596,0,0,0.64883731,-178.24319,-96.795445)">
        <path
           id="path125"
           style="fill:#000000;stroke-width:0.92757"
           d="m 555.37909,729.37125 c -38.84762,-12.55865 -82.02203,-10.83023 -117.64665,-33.2448 -48.9781,-25.19272 -95.96973,-54.69112 -135.42553,-93.52926 -36.66982,-21.37955 18.45298,-61.04098 32.9443,-23.54248 31.08777,29.22908 66.01908,55.30132 106.31282,70.02974 51.29586,25.46525 111.28815,30.38461 167.36747,21.89408 32.02812,-1.83334 49.57917,-31.42612 71.20354,-50.97605 -33.7127,-9.75429 -21.42746,-54.48757 -38.17243,-78.63536 -11.08534,-24.64553 4.5443,-45.03565 29.33916,-44.14348 -5.50347,-50.14161 -6.97598,-101.89279 -10.9858,-152.68978 -3.76121,-69.35786 -8.58399,-139.148 -2.73999,-208.47332 -3.82452,-25.33619 24.31733,-71.035998 41.49049,-30.55239 17.96875,38.17745 11.9433,81.66893 14.976,122.56868 1.24156,65.9382 -0.99813,131.86957 -2.79084,197.77572 1.9526,28.81431 -7.13703,58.78639 0.87067,86.75342 20.04102,10.4247 36.94522,25.42822 24.98245,51.01135 -1.29925,18.34271 5.8419,37.80004 0.40887,56.09459 -27.42352,15.4117 -21.52139,59.03667 -53.7572,71.04038 -28.76571,24.56801 -68.39843,32.87205 -104.74386,38.77369 -7.87785,0.26108 -15.75602,-0.0861 -23.63347,-0.15473 z M 577.11926,724 c 24.18503,-8.27127 38.71286,-62.92128 -1.65713,-45.13083 -12.92475,7.99162 -25.36809,36.28132 -26.91054,42.94612 8.96443,3.15735 19.41178,6.74478 28.56767,2.18471 z m 30.59788,-2.90677 c 28.13945,3.49165 48.15585,-68.62858 7.61822,-48.81821 -18.01364,13.62574 -13.76414,43.65123 -35.86547,53.87781 9.57613,-0.55087 19.0443,-2.39814 28.24725,-5.0596 z M 541.29947,717.75 c 29.59293,-7.97279 23.42454,-60.19115 -8.60376,-35.92678 -12.128,15.98682 -33.39202,41.14554 1.18728,36.73148 l 3.73489,-0.14139 z m 90.52977,-3.27402 c 36.02256,-1.2826 48.77336,-36.31117 37.16241,-66.12137 -19.97981,-20.11669 -31.45677,31.40487 -29.97561,47.65532 0.58265,3.48251 -22.64544,25.17455 -7.1868,18.46605 z M 517.46705,701.12079 c 33.55714,-29.09699 -38.18793,-41.5461 -40.80725,-7.1447 -27.57569,13.81862 37.01951,28.35152 40.80725,7.1447 z m -50.36053,-1.75438 c 38.72244,-15.56078 -2.9471,-56.18066 -21.18454,-20.28377 -27.30688,12.2843 8.57984,23.23754 21.18454,20.28377 z m 213.28314,-8.50952 c 31.25426,-5.26968 20.81482,-72.29569 -4.13496,-64.0899 -13.67864,21.4808 7.85934,50.49954 -4.41962,72.36131 2.98388,-2.6222 5.56236,-5.65809 8.55458,-8.27141 z M 438.69947,680.82762 c 39.755,-18.05575 -22.26118,-48.98096 -35.56321,-19.76134 -24.55015,9.08712 29.45536,25.45062 35.56321,19.76134 z M 708.923,663.46144 c 19.05291,-12.58241 1.09911,-62.69688 -12.26545,-39.32704 3.60648,5.44683 1.57505,59.69174 12.26545,39.32704 z m -310.13414,-1.67987 c 49.81262,-13.75513 -32.69251,-49.76591 -30.51396,-10.69194 9.05199,4.71397 19.44444,18.57272 30.51396,10.69194 z m -26.32803,-24.02411 c 31.1475,-10.6693 -23.03287,-50.44964 -37.14214,-22.44068 -17.85701,7.71355 29.45575,34.82506 37.14214,22.44068 z m 358.30601,-17.05914 c 26.25936,-34.03857 -33.84025,-30.11572 -51.94172,-38.06615 -45.04554,-17.23812 -9.2046,43.91726 17.79868,33.00394 11.93955,-2.51661 24.35128,7.65329 34.14304,5.06221 z m -45.44672,-2.50519 c -3.49125,0.73751 -1.44682,2.92378 0,0 z m -345.04957,-6.73672 c 25.08462,-15.47939 -31.9729,-55.41182 -45.80235,-38.21807 -0.63692,20.30892 24.14945,48.59264 45.80235,38.21807 z m 394.08198,-26.87449 c 9.14654,-33.13811 -36.11536,-40.98971 -56.91449,-52.17256 -19.42539,-7.74467 -47.14234,17.28942 -17.89229,26.6633 5.70239,29.01102 46.82394,25.9544 69.82945,26.63372 z m 2.54589,-33.53226 c -3.66228,-40.46897 -57.87919,-44.84981 -89.23834,-46.04409 -16.91235,16.70653 2.94192,34.51443 19.75341,22.7594 25.05543,1.57596 44.40698,22.44342 69.48493,23.28469 z M 705.51643,510.2 c 7.50919,-23.17894 -13.67369,-44.02146 -32.3399,-40.30741 -5.50962,26.70529 7.82785,36.63573 32.3399,40.30741 z m 0.36015,-48.7 c 13.59245,-29.37331 -20.20239,-33.87708 -37.267,-36.63937 -9.84464,19.50204 33.76829,78.05224 37.267,36.63937 z m 0.20268,-32.01536 c 8.06009,-20.90308 0.75524,-45.14527 -23.35784,-43.67333 -28.4051,-26.98978 -17.24204,47.79873 9.36444,42.36208 l 7.06727,1.24968 z m 2.35694,-45.42395 c 6.4765,-21.05858 -0.73821,-42.48937 -25.4906,-38.76966 -33.36534,-30.7096 -20.25223,38.55201 6.21509,38.94278 4.236,1.61393 16.75313,6.08667 19.27551,-0.17312 z m 1.38216,-64.39402 c 17.30942,-29.38334 -49.016,-42.70085 -48.65552,-39.99269 -10.25555,30.95027 14.45138,75.70342 48.1795,62.98779 1.15808,-7.48252 0.13425,-15.36977 0.47602,-22.9951 z m 0,-52.05417 c 7.79698,-31.33065 -34.29967,-25.76593 -49.86282,-42.64294 -11.89171,29.65147 12.58838,64.98236 46.30831,60.41553 7.47316,-0.27362 1.63071,-13.06333 3.55451,-17.77259 z m 0.14821,-47.14983 c 13.11115,-31.30836 -34.15003,-39.57749 -51.49294,-41.72358 -11.87359,27.54563 27.20043,77.39936 51.1044,52.11441 0.31348,-3.45721 0.31155,-6.92539 0.38854,-10.39083 z M 708.6548,179.25 c 8.28493,-29.39837 -22.14994,-51.9036 -45.35952,-49.95743 -16.75292,30.41327 10.95859,58.43266 42.04102,57.3199 2.88166,-1.09416 3.692,-4.65415 3.3185,-7.36247 z m -4.85915,-43.53466 c 7.84819,-26.94409 -41.80218,-64.692378 -38.54259,-18.71858 8.3361,11.56963 24.06838,20.37864 38.54259,18.71858 z m 195.3076,79.9071 c 2.13723,-4.52588 3.17162,-0.52515 0,0 z M 872.43129,83.622445 c 2.13723,-4.525856 3.17161,-0.52518 0,0 z" />
        <path
           id="path137-4"
           style="opacity:1;fill:#28170b;fill-opacity:1;stroke-width:0.544835"
           d="m 356.67913,639.86938 c -16.04881,-6.72499 -40.56553,-23.54258 -9.55205,-31.05304 21.83408,-14.05469 54.72316,33.01543 15.54308,31.75209 z" />
        <path
           id="path982-1"
           style="opacity:1;fill:#28170b;fill-opacity:1;stroke-width:0.544835"
           d="m 532.11614,718.18886 c -38.47519,6.1434 -4.86246,-33.39243 9.57925,-40.98122 38.95218,-6.96235 12.81689,44.77414 -9.57925,40.98122 z" />
        <path
           id="path984-7"
           style="opacity:1;fill:#28170b;fill-opacity:1;stroke-width:0.544835"
           d="m 713.64113,586.33649 c -28.14162,0.43102 -47.72694,-13.39203 -62.46925,-32.82093 -14.58955,-29.73836 43.30259,-22.80758 56.42663,-7.07511 23.09525,4.2149 47.53247,45.88879 6.04262,39.89604 z" />
        <path
           id="path986-1"
           style="opacity:1;fill:#28170b;fill-opacity:1;stroke-width:0.544835"
           d="m 697.19753,386.22717 c -22.83727,1.58713 -45.2972,-41.02236 -27.96524,-48.6444 16.86367,12.51469 50.91576,6.51974 39.73038,38.48728 0.171,8.11222 -2.03994,13.44162 -11.76514,10.15712 z" />
        <path
           id="path988-1"
           style="opacity:1;fill:#28170b;fill-opacity:1;stroke-width:0.544835"
           d="m 693.65984,185.39224 c -20.90975,-6.925 -43.19033,-19.9644 -33.09,-45.10682 2.17898,-25.68324 42.48134,0.21235 46.45544,15.20736 0.1453,10.88397 8.29755,39.22318 -13.36544,29.89946 z" />
        <path
           id="path990-0"
           style="opacity:1;fill:#784421;fill-opacity:1;stroke-width:0.544835"
           d="m 419.60762,678.81595 c -18.94739,-2.71699 -32.01996,-15.93262 -7.36514,-22.74597 20.97863,-25.9229 61.95711,21.45236 20.34535,26.99754 -4.36853,-1.28712 -8.66439,-2.80214 -12.98021,-4.25157 z" />
        <path
           id="path992-4"
           style="opacity:1;fill:#784421;fill-opacity:1;stroke-width:0.544835"
           d="m 626.64508,715.01979 c 24.41364,-19.69667 4.55351,-59.70995 35.8301,-73.68896 18.57038,22.60547 11.74517,68.91858 -24.93339,71.48205 -2.70967,-1.13481 -8.66313,4.5335 -10.89671,2.20691 z" />
        <path
           id="path994-2"
           style="opacity:1;fill:#784421;fill-opacity:1;stroke-width:0.544835"
           d="m 696.38401,285.02437 c -29.30235,1.74415 -51.48495,-47.05986 -31.376,-58.43059 19.65538,16.47607 55.36423,15.57374 44.4678,50.10931 2.3746,10.19845 -4.68497,9.18753 -13.0918,8.32128 z" />
        <path
           id="path996-0"
           style="opacity:1;fill:#784421;fill-opacity:1;stroke-width:0.544835"
           d="m 728.26537,549.83243 c -26.54557,-12.97136 -57.77623,-23.85055 -83.79455,-22.09286 -10.00277,-42.52433 51.2512,-14.9626 72.14092,-7.41289 8.69394,0.0483 33.70495,35.98532 11.65363,29.50575 z" />
        <path
           id="path998-2"
           style="opacity:1;fill:#a05a2c;fill-opacity:1;stroke-width:0.544835"
           d="m 327.25802,613.38066 c -24.44684,0.47035 -50.3799,-59.23687 -10.4768,-41.4609 16.21823,10.48434 55.74101,38.52281 10.4768,41.4609 z" />
        <path
           id="path1000-1"
           style="opacity:1;fill:#a05a2c;fill-opacity:1;stroke-width:0.544835"
           d="m 559.90274,725.04715 c -26.27583,-1.33224 5.32662,-34.13288 14.54281,-45.45585 45.32625,-20.24349 22.70079,47.79214 -6.60366,45.86952 l -4.70804,-0.074 z" />
        <path
           id="path1002-0"
           style="opacity:1;fill:#a05a2c;fill-opacity:1;stroke-width:0.544835"
           d="m 723.26116,620.40388 c -24.18009,-7.21109 -66.90497,-2.33277 -66.28904,-38.44695 20.65658,-4.00327 41.76943,11.55262 63.8637,9.45995 20.41202,0.24987 23.1641,31.05431 2.42534,28.987 z" />
        <path
           id="path1004-7"
           style="opacity:1;fill:#a05a2c;fill-opacity:1;stroke-width:0.544835"
           d="m 695.19827,474.73606 c -24.80907,-2.99409 -41.80619,-71.56411 -5.12435,-42.98775 24.34331,-9.81189 21.33476,47.95578 5.12435,42.98775 z" />
        <path
           id="path1006-5"
           style="opacity:1;fill:#a05a2c;fill-opacity:1;stroke-width:0.544835"
           d="m 696.23624,135.55142 c -20.98291,-0.76255 -44.97979,-26.78083 -20.81015,-41.721182 12.9941,-2.96406 43.03495,43.667042 20.81015,41.721182 z" />
        <path
           id="path1008-5"
           style="opacity:1;fill:#c87137;fill-opacity:1;stroke-width:0.544835"
           d="m 488.80172,710.72558 c -28.92815,-3.20515 -16.99803,-13.64984 -2.59862,-30.02091 15.89488,-20.97462 60.25673,2.9078 28.89352,23.30245 -5.86972,8.83096 -17.10161,9.134 -26.2949,6.71846 z" />
        <path
           id="path1010-3"
           style="opacity:1;fill:#c87137;fill-opacity:1;stroke-width:0.544835"
           d="m 488.80172,710.72558 c -28.92815,-3.20515 -16.99803,-13.64984 -2.59862,-30.02091 15.89488,-20.97462 60.25673,2.9078 28.89352,23.30245 -5.86972,8.83096 -17.10161,9.134 -26.2949,6.71846 z" />
        <path
           id="path1012-1"
           style="opacity:1;fill:#c87137;fill-opacity:1;stroke-width:0.544835"
           d="m 386.60589,662.76495 c -26.3144,-5.64672 -19.07733,-31.94803 5.86997,-28.93579 35.67221,2.67491 22.55433,32.68534 -5.86997,28.93579 z" />
        <path
           id="path1014-4"
           style="opacity:1;fill:#c87137;fill-opacity:1;stroke-width:0.544835"
           d="m 694.22646,238.27938 c -26.06807,-6.09101 -46.62205,-40.10449 -31.56254,-61.69072 28.98894,7.9619 63.58749,24.02077 43.85403,59.55995 -3.05929,3.24947 -8.30507,3.38539 -12.29149,2.13077 z" />
        <path
           id="path1016-7"
           style="opacity:1;fill:#c87137;fill-opacity:1;stroke-width:0.544835"
           d="m 696.38388,507.17258 c -28.22953,8.70315 -33.10226,-59.18239 -5.51316,-31.37526 16.82456,-5.58085 20.73142,43.23946 5.51316,31.37526 z" />
        <path
           id="path1018-1"
           style="opacity:1;fill:#c87137;fill-opacity:1;stroke-width:0.544835"
           d="m 672.14816,697.2973 c 14.54284,-20.16696 -19.26536,-74.23387 18.24266,-70.90674 10.41461,29.14037 15.91249,56.95256 -18.24266,70.90674 z" />
        <path
           id="path1020-3"
           style="opacity:1;fill:#d38d5f;fill-opacity:1;stroke-width:0.544835"
           d="m 454.61523,699.49827 c -35.63518,-3.57963 -2.07673,-31.3356 13.95141,-34.80767 33.0957,2.06539 5.86156,41.85843 -13.95141,34.80767 z" />
        <path
           id="path1022-5"
           style="opacity:1;fill:#d38d5f;fill-opacity:1;stroke-width:0.544835"
           d="m 584.61185,723.19354 c 17.87299,-14.11931 22.07606,-70.08492 53.08116,-48.88132 7.77164,33.81505 -34.87292,56.55763 -53.08116,48.88132 z" />
        <path
           id="path1024-7"
           style="opacity:1;fill:#d38d5f;fill-opacity:1;stroke-width:0.544835"
           d="m 703.79929,667.44739 c -4.7037,-15.89699 -15.23377,-69.29963 10.81287,-40.36718 4.48412,12.07049 -0.0561,37.12483 -10.81287,40.36718 z" />
        <path
           id="path1026-9"
           style="opacity:1;fill:#d38d5f;fill-opacity:1;stroke-width:0.544835"
           d="m 694.74951,428.423 c -25.52304,5.37081 -40.57694,-57.32876 -16.28188,-45.82871 11.73831,10.96838 38.31299,5.93876 29.60382,32.35301 -0.83763,10.44047 -0.65083,17.52017 -13.32194,13.4757 z" />
        <path
           id="path1028-4"
           style="opacity:1;fill:#d38d5f;fill-opacity:1;stroke-width:0.544835"
           d="m 697.20127,345.57303 c -29.21076,-5.32582 -40.74595,-32.52083 -35.86709,-59.62416 -5.27406,-25.6779 28.80121,8.93312 41.89673,7.9866 9.16877,5.70116 14.81829,58.29698 -6.02964,51.63756 z" />
      </g>
      <path
         id="path1470"
         style="fill:#000000;fill-opacity:1;stroke-width:0.264583"
         d="m -11.609059,268.04212 c 7.9043154,-6.58514 21.665196,-15.49348 30.530283,-5.80932 1.901613,8.65336 -9.8407352,13.10062 -14.2852762,19.11273 -7.4276329,6.45372 9.9418772,-3.5617 10.9259892,-7.35128 9.880915,-5.2465 5.951116,-18.58265 -4.866974,-18.10258 -7.2198556,-0.5859 -22.567817,6.62202 -22.304022,12.15045 z" />
      <path
         id="path1472"
         style="fill:#000000;fill-opacity:1;stroke-width:0.264583"
         d="m -11.02513,267.78267 c 2.1328927,-5.31872 -5.804627,8.73743 0.750981,-1.50625 -10.523093,3.75582 3.8786782,4.17504 1.9214333,-1.56344 3.4870343,0.53814 10.8522482,-6.54335 16.0203364,-5.76835 3.5797593,1.63703 14.1948263,1.3565 10.3684783,7.60479 -3.507928,6.65737 -14.2082747,12.12961 -15.2263661,17.71552 5.8384272,-5.11783 24.0564881,-16.61222 15.1699041,-24.21397 -7.000976,-3.33395 -14.931166,-3.64809 -21.8194437,0.64825 -4.0625498,2.69583 -11.5163703,8.96959 -7.9964003,8.01513 0.440809,-5.5857 -4.577366,7.59691 2.771896,-1.88823 1.0888885,-2.99845 -5.898645,-0.40321 -1.960819,0.95655 z" />
      <path
         id="path1474"
         style="fill:#550000;fill-opacity:1;stroke-width:0.264583"
         d="m 12.866139,257.31962 c -6.4349824,-0.88075 6.643798,2.84185 -1.836398,2.50538 7.914821,0.37875 -4.0999646,-1.2415 4.084114,0.54556 2.700405,-6.12567 -9.8043043,-1.87304 -2.247716,-3.05094 z" />
      <path
         id="path1476"
         style="fill:#550000;fill-opacity:1;stroke-width:0.133635"
         d="m 1.053967,281.12265 c -10.5036919,-9.34326 -14.191188,-17.34074 2.5680931,-21.43793 12.7504559,-3.01384 21.0733649,7.41318 6.7590419,15.34783 -2.5737215,0.57663 -6.4558358,10.05848 -9.327135,6.0901 z" />
    </g>
  </g>
</svg>
