<svg xmlns="http://www.w3.org/2000/svg" width="968.991" height="1478.083"><path d="M632 1578.334c-55.093-17.684-112.666-12.722-168.658-16.486-40.31-9.25-105.07 18.44-129.727-1.11 31.023 4.823 93.451-99.903 44.974-47.155 42.373-48.629 41.324-126.876 23.042-184.894-23.335-38.002-95.813-55.24-101.578-92.026 28.792 20.19 40.979 32.356 8.744-.287-49.972-37.603-61.664-136.293-83.72-165.173 6.95 57.95-78.815 104.53-68.332 23.2 25.367-48.213 49.61-98.725 40.426-155.661-28.193-38.237-42.872-74.551-1.183-108.284-63.588-27.794-76.096-118.616-69.947-182.417 17.534-76.468 83.081-131.615 147.191-168.313-3.075-42.75-87.49 14.345-107.61 37.15-52.526 52.86-96.625 124.448-80.702 202.105 5.71 51.94 35.025 151.333 105.021 118.897-66.62 47.42-109.15-58.868-111.212-112.367-16.762-74.266 23.362-143.176 71.555-196.03 28.148-51.746 117.001-64.919 142.368-81.676-89.508-5.624-127.548-118.49-88.719-190.357 42.685-88.216 140.012-134.103 231.705-153.391 68.168-14.228 134.479 20.228 179.22 70.11 55.522 35.58 48.81 109.613 58.434 155.143 62.767 17.117 122.642-43.836 182.332 1.373 59.713 41.406 99.702 105.507 159.136 150.706 34.534 62.828 32.465 140.577 26.746 210.133-14.122 76.374-44.25 157.576-115.588 195.32-43.646 49.413 29.978 138.549-54.479 155.596-33.997 48.49 46.138 96.04 45.288 20.044.348-34.754 2.932-61.308 8.644-11.555 7.828 48.363-65.31 91.893-64.93 23.077 6.867-36.73 2.922-61.426-9.282-12.165-22.521 74.758-52.506 148.527-98.947 211.336-17.013 25.89-67.933 60.263-11.426 19.973 18.755-13.516 63.888-48.071 24.41-11.7-52.838 23.356-110.428 58.324-90.994 125.814 4.663 49.057 14.186 101.644 50.026 137.495 60.467 47.432-52.23 19.33-84.909 34.58zm27.465-4.11c33.673-8.913 89.03-5.915 40.715-45.864-42.608-51.967-23.542-143.477-49.223-186.37-57.483 11.421-118.592 48.475-175.435 14.609-24.145-18.276-83.748-30.672-39.198 9.341 23.413 14.86 68.418 58.596 13.654 20.72-69.49-52.082 33.26 42.898 25.1 51.435-25.547 1.606-77.455-64.767-41.819-7.049 25.93 17.627 52.206 52.881 6.262 18.83-66.558-68.772 22.863 59.709 24.792 61.939-26.517 5.362-68.583-44.615-25.261-16.687-11.805-40.469-35.236-30.627-35.676 5.458-24.248 23.704-73.336 79.718-1.133 58.61 70.799-5.237 143.491-4.166 213.208 8.913 14.55 2.789 29.21 5.207 44.014 6.115m-243.298-24.83c-29.72 3.393-39.85-38.421-6-8.534 10.558-3.272 35.499 11.627 6 8.534m14.908-9.793c-33.305 3.223-30.125-62.684-12.127-14.829 4.385 5.908 43.45 14.245 12.127 14.829m12.435-7.06c-32.205-.978-41.643-61.16-12.008-15.784 3.86 5.676 40.918 15.404 12.008 15.785m115.52-176.461c45.388-6.786 92.914-11.246 102.667-32.275 76.408-44.69 123.55-125.758 160.394-203.705 21.972-53.24 36.334-84.711 30.674-122.185 13.248-56.733 31.528-115.126 27.78-173.43-11.923 32.562-7.955 84.99-26.826 106.508 11.867-57.733 23.189-115.56 26.033-174.206 11.27-42.37-19.882-107.47 6.375-136.152 18.687 34.325-14.16 98.456 12.437 120.156 54.91-20.39 16.785-160.065 21.875-134.717 59.357 63.456-37.027 127.711-32.807 192.982-3.23 59.03 92.915-.114 90.408-42.56 18.614-65.52 37.645-157.977-23.042-206.44-40.323 28.823-77.37 88.03-138.71 84.45-49.592-33.9-94.983 45.16-139.853 6.77 54.71 17.495 133.106-26.479 127.253-88.135-42.893-29.375-50.874 103.625-116.111 74.13-24.147-21.48-54.161 49.903-97.35 36.46-28.363 9.853-83.594-32.875-24.56-9.1 82.08 29.43 140.57-70.08 91.29-135.504-17.067-64.804-69.543-133.465-143.823-125.223-40.867-4.486-60.099 30.662-15.33 46.76 19.96 40.34 100.086-5.839 122.015 57.096 51.023 42.747 26.788 158.188-51.222 136.408-55.752-14.98-117.249 80.773-174.551 16.966-36.22-32.833 64.067-102.252 27.19-42.886 26.187 82.446 114.875-44.497 55.632-80.66-31.179-56.101-99.125.957-139.302 18.221-58.43 10.973-109.854 55.42-120.133 115.596-2.297 55.076-7.545 114.2 13.252 166.023 7.165 65.329 1.77 130.805 12.626 196.441-5.975 26.968 19.91 90.039 3.86 71.925 22.015 77.195 35.81 100.913 92.589 160.05 40.756 47.131 95.74 77.4 153.828 97.92 21.297 5.728 43.722 3.692 65.442 2.315m28.191-54.063c-55.093 2.958-88.496-74.061-143.84-39.082 13.696-21.474 13.074-42.391 30.789-12.275 42.733 10.394 72.782-89.39 107.864-30.085 30.016-27.05 64.76-29.912 75.25 14.78 39.363 25.338 27.622-69.82 46.955-.96 3.743 30.616-27.483-18.083-41.864 17.04-22.208 19.454-40.118 56.774-75.154 50.582m.05-11.391c32.08 16.04 81.447-57.43 23.257-31.543-28.694 1.383-118.543-21.984-61.694 23.044 11.062 7.342 25.145 12.425 38.436 8.499m35.49-2.188c4.265-6.566-7.839 7.461 0 0m11.412-36.885c39.227-26.82-55.704-73.26-43.487-9.047 11.607 7.397 29.298 10.466 43.487 9.047m-91.006-8.463c61.706 16.05-6.126-71.008-19.231-10.639-25.786 17.475 10.393 9.605 19.23 10.639m-17.782-16.925c1.643-6.31-12.001 15.426 0 0m-141.218-35.397c26.382-24.543-45.337 7.211 12.21-17.718 24.572-6.63 50.439-43.888 8.775-19.603-11.8-2.824 67.624-15.907 41.47-51.497 17.77-45.194 115.543.43 83.795-73.425-2.797-66.508-.723-138.098-45.28-192.804-22.35-64.36-128.64-58.65-150.431-33.792 71.521-23.81-36.577 39.216-47.363 34.618 36.658-48.519 109.66-88.745 165.706-47.19 51.464 42.191 87.556 106.734 83.233 174.818-3.023 41.88 18.054 101.923-8.773 133.121-28.394-44.263-113.148 14.845-48.455 38.502 20.799-12.837 70.81-22.12 74.073-25.34-8.771 42.868 53.802 72.256 41.198 21.441 5.479-24.437 31.574-81.37 14-21.122 6.008 9.744 43.373-16.173 61.707 3.033-22.823 30.927 54.629-17.607 9.326-36.594-32.18-44.598-82.811 31.063-87.65-31.82-8.5-67.45-27.83-143.433 3.958-207.221 40.429-70.071 135.518-95.408 210.4-76.254 56.633 29.219-49.734-11.516-74.268 1.839-49.293 5.205-114.257 24.384-129.006 75.768 18.133-16.012-36.055 49.583-16.558 74.501 3.438 47.678 3.585 127.89 25.944 153.623 53.226-40.486 103.86 17.884 146.378 43.28-46.117.399-11.592-8.384 1.56 10.356-24.176-5.858-64.676-19.408-28.317 14.954-3.799 40.54-27.52-52.443-48.395-9.298-37.936 7.9-93.487-7.03-90.327 45.003-32.782 13.201-59.68-58.313-67.818-29.28-41.537 4.742-90.732-12.686-110.186 36.026-10.028 4.911-22.223 4.193-30.906 12.075m31.295-15.957c38.473-33.236 6.665-13.667-14.96 3.376l2.353.124zm4.022-10.389c60.663-47.712-28.42 9.28 0 0m89.002-29.807c35.454-20.928-14.823.975 0 0m17.27-6.106c1.219-8.742-17.396 11.325 0 0m9.91.574c-7.001-5.807-12.686 8.02 0 0m-27.972-4.306-5.14 4.34zm179.7-2.954c32.78-26.743-24.303 12.866 0 0m-66.498 1.156-1.835.057zm10.77-.396c-5.561-4.286-6.624 4.509 0 0m30.873-6.876c-4.282-14.554-28.975 8.784 0 0m64.006-12.996c-1.068-19.91-26.552 1.196 0 0m-111.885-32.116-2.442.522zM316.64 810.983c-7.156-.513-13.046 17.078 0 0m37.527-20.9c6.73-8.831-9.619 9.561 0 0m-4.522 198.364c8.765-45.24-63.413 16.908-42.251-20.924-34.78 14.471-85.59-58.594-31.094-17.078 20.065-18.52-41.843-58.297 1.845-27.53 28.513 28.811 41.919-35.213 4.002-34.794-4.701-39.296 35.251 42.553 42.383-14.114-24.016-52.548 20.522 34.453 34.817-18.81 3.307-30.339 24.08 26.827 34.7-11.678 30.729-34.769-20.903 33.061 23.203 15.578 19.31-11.006 47.826-14.878 8.679-.49-.38 29.483 60.791-3.4 17.67 20.175 14.286 17.405 60.062 3.044 15.86 17.569-2.506 21.87 23.932 68.506-14.885 59.038 11.35 9.036-45.057 13.086-42.632 13.326-17.943.72-42.892 1.26-52.297 19.732m18.975-21.57c-77.3-21.022 12.075-154.066 48.307-76.09 10.192 34.72-16.497 66.917-27.623 76.153 86.797 12.727 82.069-110.596.206-105.85-50.55-2.827-104.76 63.23-100.997 97.22 25.743 8.44 53.447 6.257 80.107 8.567m21.795-11.222c55.252-1.422-1.866-118.814-7.361-57.706 26.147-12.222 36.25-5.436 20.856 7.019-19.625 28.007 14.867 18.317-16.508 28.736-3.717 10.38-31.755 19.002-8.276 29.111zm-1.973-8.214c-2.055-26.685 17.483 13.3 0 0m-5.275-54.485c-.944-23.997 25.073-15.069 0 0m-16.63 55.22c2.581-31.334-18.588 24.744 0 0m-8.388-4.843c34.68-23.143-19.49 1.585 0 0m3.957-17.868c-17.026-13.607 38.787-56.698-4.021-45.334-15.446 5.955-18.012 90.261 4.021 45.334m-.717-22.145c-19.152-31.4 23.695 2.288 0 0m21.778 22.263c2.62-7.21-6.56 8.223 0 0m-4.772-18.367c-5.676-11.55-10.54 23.584 0 0m2.272 3.367c-1.317-3.791-2.245 3.873 0 0m262.887 57.568c-12.12-15.634-35.691-49.382-16.863-62.471 6.75 34.965 2.347-50.318 13.186.666-2.975-18.287 4.324-56.874 9.79-14.263 11.619-35.268 16.66-48.104 22.626-23.986 7.385-27.19 20.294-46.134 8.067-6.524-2.64 28.789 32.22-62.79 18.577-3.06 14.019-43.334 8.144 23.003 26.996-23.858-3.11 13.519-6.106 27.129 11.7-2.194 6.09 7.537-14.117 57.347 18.282 21.213 7.424-28.206-23.191 45.075 6.814 6.6-1.804-22.846-19.119 57.007 9.154 9.447 16.03-17.425-26.586 48.727 6.688 9.043 14.825-29.362-29.328 60.479 14.09 12.859 23.122-23.408-29.745 41.406 6.231 3.084 31.67-30.613-42.578 49.628 3.485 17.793 28.111-37.815 7.618-9.571-.87 10.292 21.599-25.393 29.796-25.044 7.568 5.465-26.247 45.02-2.928 7.024-20.897 4.655-4.39 15.731-42.029 23.032-42.932 22.738-36.463 4.614-65.63 10.807-98.182 2.367zm61.477-16.923c29.569-.69 109.223-21.618 48.136-50.502-26.023-64.753-124.807-11.062-118.898 40.559 25.095-.44 44.31 19.556 70.762 9.943m-24.252-9.559c-85.78-38.791 86.882-107.783 43.04-16.393-8.411 14.93-27.106 20.473-43.04 16.393m28.3-6.06c61.852-42.17-63.343-81.697-44.079-14.254 33.81 35.901 21.525-6.616 14.46-11.822-6.698-38.756 51.586-11.497 25.095 15.476-13.835-12.095-26.082 27.626 4.525 10.6m-7.773-18.94c6.757-8.642-11.347 8.288 0 0m108.108 6.756c35.672-31.98-19.093 1.85 0 0m-141.876-43.738-10.355 8.784zm63.783-23.854c15.266-18.805-15.353 12.483 0 0m-68.154 484.75c-1.317-3.791-2.245 3.873 0 0m14.054-13.851c31.2-21.947-20.22 3.436 0 0m19.446-7.67c35.999-29.862-41.008 22.533 0 0m-18.463-1.528c5.451-7.976-14.768 13.441 0 0m16.577-10.2c22.879-19.888 42.87-46.294 9.132-11.4 3.3-1.459-22.766 18.891-9.132 11.4m3.513.5c2.797-4.87-5.982 7.207 0 0m20.2-11.75c41.219-45.816-32.514 16.105-7.542 6.353zm10.591-5.117c33.876-21.884 93.286-160.989 81.663-135.073-23.787 47.027-59.676 87.223-81.663 135.073m-535.261-158.634c49.7-24.806 10.209-129.482-24.685-62.116-10.292 20.536-14.234 77.018 24.685 62.116m39.34-78c8.769-30.54-25.3-127.718-37.888-51.16-12.544 40.45 31.083 54.11 27.436 16.7 2.337 9.147-6.945 35.228 10.452 34.46m664.973-25.095c43.863-26.82-8.22-130.904-29.63-46.577-9.084 28.386.055 40.626 19.733 13.897-17.07 14.797-20.264 38.293 9.897 32.68m-37.346-30.371c13.937-60.177-3.725 30.843-.528 2.535zm-634.117-45.034c9.415-57.176-37.196-11.599-2.85 15.014 8.552 5.488 2.627-14.428 2.85-15.014m658.285-1.195c33.05-21.652-17.883-65.2-9.104-14.228-3.067 7.943-5.883 38.017 9.104 14.228m-679.783-17.305c33.48-16.843 10.11-98.326-2.9-32.898-25.32 22.495 49.487-66.171-6.144-59.794-44.626 19.425-9.457 67.828 9.044 92.692m703.27-19c31.472-24.83 8.565-134.252-20.544-71.847 5.23 12.005 37.817-2.97 22.776 24.678-23.389-64.061-37.208 55.957-2.233 47.17m37.312-47.373c66.003-41.407 78.734-126.684 91.874-197.216-.634-68.631 4.963-150.985-43.498-205.522-19.592-32.82-58.37-19.679-36.176 17.492-31.534 55.633 52.488 86.827 41.731 143.49 6.546 72.482-9.75 156.92-73.326 200.882 13.497 9.917-11.785 61.099 19.395 40.874M214.831 833.41C180.98 759.917 162.3 670.687 191.11 592.71c4.486-40.756 69.701-64.681 62.138-96.282-56.596 29.486-106.59 84.512-120.029 148.483-12.322 70.124 13.159 157.199 79.06 190.943l2-.414zm-6.387-35.419c-1.24-50.54-16.204-132.79 7.573-160.987 8.007-52.368 73.964-69.085 93.078-118.324-3.178-30.583 56.734-96.115-8.223-59.476-43.028 19.763-39.131 85.585-41.067 95.691-11.82-72.454-75.265 37.844-72.955 70.443-5.164 56.186-.863 121.636 21.594 172.653m250.55-133.924c85.538 3.161 91.043-100.987 60.483-158.076-13.357-58.934-74.857-117.25-137.348-86.92-63.483 32.035 70.231 10.164 79.78 56.512 36.859 46.886 61.56 144.86-15.154 167.021-58.255 21.13-4.442-99.202-50.176-29.712-13.177 37.807 29.93 63.973 62.415 51.175m369.673-33.979c65.266-11.91 124.864-66.057 122.207-136.059 3.326-82.448-67.07-156.56-144.782-173.532-35.187-12.343-99.187 19.113-38.437 42.038 30.239 28.061 42.77 36.115 83.828 27.559 54.44 15.01 101.27 86.381 74.255 140.94-26.176 59.184-103.619 65.252-146.333 87.02 13.496 10.685 32.744 11.768 49.262 12.034m-218.198-2.341c61.12-38.695 19.61-123.386-28.26-154.06-70.191-48.508-77.075 58.052-25.856 85.8 28.112 16.96 30.253 60.163 7.861 70.37 15.38 1.934 30.967-.33 46.255-2.11m-52.494-2.049c55.084-10.185-38.815-106.2-14.171-33.6-1.68 11.568-8.385 41.539 14.171 33.6m151.836-.888c31.952-3.215 71.246-74.087 21.286-24.312-24.195-4.755-76.34 2.168-33.967 25.033zm29.356-34.36c56.155-33.09 38.899-125.112-31.864-117.304-26.75 4.492-77.79-18.346-25.957-31.571 63.427-19.492-11.305-15.182-29.242 3.807 55.485-63.723 133.708 9.024 135.525 74.26 20.966 55.277 36.02-28.055 26.174-52.439-4.425-72.968-69.047-143.275-145.898-130.486-62.522-8.442-102.12 74.862-36.604 108.883 50.178 40.97 15.705 157.4 93.43 150.509l7.405-2.066zm94.929 5.03c49.796-16.456 121.789-64.295 84.29-124.237-3.419-46.824-99.76-116.902-106.857-46.7 3.773 36.975 11.502 44.235 34.353 14.723 57.02-41.962-51.433 30.015-23.43 65.785.273 49.46 37.524-36.28 66.187-42.234-22.47 13.178-89.043 99.37-28.148 60.248 75.099-43.784-68.182 37.795.602 29.533 24.516-16.912 55.998-20.591 10.003-4.18-40.11 3.83-3.388 46.324-34.565 28.853 8.953 32.385-32.59-54.133-29.165 3.16-22.8 22.646 15.25 15.614 26.73 15.05m-581.513-6.437c10.6-12.47-16.598 13.896 0 0m10.084-11.459c12.322-14.043-15.26 14.798 0 0m18.959-17.44c45.565-25.962 8.352-31.587-7.965 4.717zm547.066-7.478c-2.1-26.372-18.28-4.583 0 0m-519.242-.832c31.45-40.923 74.292-116.96 135.615-80.52-37.062-32.338-113.473-47.017-126.231 16.347 1.684 34.16 8.112 35.605-9.384 64.173m13.747-5.25c16.623-10.72 96.637-33.544 60.163-40.684 41.026-26.576 26.253-55.718-13.83-24.132-18.255 18.444-38.867 40.02-46.333 64.816m68.267-41.806c39.534 14.93 73.365-42.64 20.619-25.395-2.342 3.353-37.11 25.933-20.62 25.395m67.65-14.109c-12.11-14.974 9.176 17.127 0 0m310.682-6.19c10.01-40.306-46.732-20.543-25.259-33.229-5.785-48.814-114.182 20.675-41.023 10.363 24.79-9.397 41.682-12.994 8.392 5.302 19.694 3.835 40.656 6.44 57.89 17.564m-71.562-28.172c12.197-12.742 41.516-24.156 9.991-4.4zm-24.514-2.46c15.152-23.21-35.22 19.866 0 0m-356.365-6.763c63.867-4.217 80.927-67.605 116.874-104.089 36.97-33.329 122.996-14.309 121.485 31.572-30.775-51.812-98.038-61.423-138.031-14.048-53.494 69.572 66.101 47.605 98.707 28.163 41.058 9.933 77.818 8.057 96.757-29.427 44.135-53.018-62.166-103.184-109.648-103.286-76.24.869-148.228 46.645-193.471 105.668-10.671 24.076-25.698 72.636 7.327 85.447m-20.607-8.25c-24.672-82.088 64.398-137.511 126.37-169.158 69.76-38.735 159.412-19.233 204.366 46.968 56.574 40.813 35.802-87.066 8.277-106.65-47.7-61.338-122.177-117.667-204.46-100.207-71.996 15.695-146.651 45.901-195.81 102.832-53.6 60.26-57.325 169.741 16.82 215.53 13.208 8.047 28.928 12.522 44.437 10.685" style="fill:#000" transform="translate(-75.866 -101.556)"/><path d="M883.375 620.377c3.754-29.392-18.11 49.174 7.179 6.984 14.083-51.711-40.028 29.59-1.201 10.986 25.09-31.31-31.32-46.63-5.978-17.97M667.197 639.123c38.889 32.749 24.934-7.805 3.75-8.157-42.167 8.648 60.044 37.174 12.587 5.413l-6.055-4.219z" style="fill:#000" transform="translate(-75.866 -101.556)"/><path d="M695.016 659.44c45.97-.824 91.905-37.115 118.127-73.957 23.17-23.811 10.884-121.46-.643-50.65 2.754 54.38-45.793 81.498-85.117 105.577-6.735 15.694-48.916-6.776-32.367 19.03M542.342 646.023c-27.664-30.492 40.766-13.613 3.163-30.745-24.536-16.584-35.645 51.905-3.163 30.745M533.02 656.678c47.496 30.465 119.138 2.493 147.908-43.198 15.133-54.124-30.206 31.504-56.414 32.08-30.718 11.753-67.254 4.991-91.493 11.118M921.22 871.627c-26.21 55.23-10.398 113.5-10.174 171.137-.96 28.098-35.713 99.849-41.151 34.982.696-27.628-13.766-104.12-17.892-40.338-11.343 37.564 31.649 120.847 56.126 50.953 40.781-55.58-7.485-126.117 18.289-187.025-2.514-9.88 18.923-30.94-5.199-29.709M131.94 842.266c13.356 31.216 92.645-6.386 63.79-6.371-23.434 15.062-43.57 4.319-63.79 6.37M296.056 421.022c-37.404-53.556-31.787-128.48-15.513-187.627 37.99-52.301 108.006-46.198 164.131-61.146 58.203-14.236 117.037 27.52 151.369 71.485 35.602 14.474 3.447 96.935 36.484 83.84-3.273-45.857-6.238-93.728-50.16-122.589-41.15-34.072-97.076-62.84-151.882-48.381-59.44 15.105-138.478 15.26-168.483 79.456-12.107 59.68-21.585 132.926 16.623 185.416l7.072 6.792z" style="fill:#000" transform="translate(-75.866 -101.556)"/><path d="M290.178 435.379c23.3 35.053 2.429-45.7-7.056-12.346 13.765-25.364-13.588-.371 6.836 14.357 11.277 27.435 29.93-18.428.22-2.011" style="fill:#501616" transform="translate(-75.866 -101.556)"/><path d="M424.065 663.72c-59.908-2.365.256-114.097-8.754-49.03 15.371 79.59 119.447-25.784 77.96-76.651-11.117-65.915-78.165-105.426-133.417-105.27 55.239-47.22 135.985-5.982 153.32 58.687 18.548 48.362 39.366 108.9.008 152.047-23.01 20.915-59.679 24.692-89.118 20.217z" style="fill:#501616;stroke-width:1.27111" transform="translate(-75.866 -101.556)"/><path d="M557.074 651.14c-59.55-43.967 55.7 9.354 70.034-31.248 57.417-64.254-19.061-185.387-102.567-160.777-19.57 5.456-88.248-64-24.083-63.297 70.736-14.515 130.48 43.294 149.45 106.793 29.792 49.46 38.073 129.827-34.443 143.958-19.421 1.557-39.367 14.275-58.39 4.572" style="fill:#501616;stroke-width:1.27111" transform="translate(-75.866 -101.556)"/><path d="M702.778 594.959c-46.734-9.06-21.934-82.705-51.309-114.3-20.477-46.293-97.255-99.148-18.445-136.078 58.577-21.29 131.83-.079 159.765 58.849 16.92 35.09 40.585 117.338 1.743 134.95-12.458-47.628-31.123-118.344-92.361-118.517-25.637-3.67-77.653 47.608-22.69 12.17 81.305-14.639-74.993 24.208-1.404 37.94 71.73-14.144 135.225 65.708 64.128 116.943-10.645 9.522-26.094 9.918-39.427 8.043" style="fill:#501616;stroke-width:1.27111" transform="translate(-75.866 -101.556)"/><path d="M804.39 627.32c-52.181-21.642 78.67-28.91 92.561-60.676 55.424-37.249 41.633-111.232-1.108-152.107-37.645-47.895-97.981 4.047-128.602-53.217-71.654-50.1 76.072-51.978 102.567-12.199 58.238 40.42 96.26 112.99 74.822 183.854-16.486 54.805-68.225 84.778-120.591 96.118l-9.27-.06z" style="fill:#501616;stroke-width:1.27111" transform="translate(-75.866 -101.556)"/><path d="M931.224 870.732c-23.423-55.886 48.422-72.454 55.997-124.178 16.645-59.494 27.071-133.14-10.441-186.445-31.083-25.567-32.666-95.411-9.921-112.718 66.342 33.194 65.485 116.707 70.537 180.661.844 73.116-16.323 150.127-58.34 210.81-11.449 11.515-31.53 37.391-47.832 31.87M275.38 436.717c-82.35-24.884-99.565-136.48-54.397-201.515 44.88-71.886 130.245-106.193 209.526-124.424 88.364-18.436 168.731 45.825 214.305 115.293 29.785 21.622 17.548 146.887-15.899 78.881 10.03-44.323-21.818-79.705-52.937-107.12-49.483-39.753-115.06-56.93-176.321-35.808-58.277 10.063-135.624 27.503-145.248 98.193-1.373 60.863-12.355 129.882 34.952 177.729z" style="fill:#501616;stroke-width:1.27111" transform="translate(-75.866 -101.556)"/><path d="M201.655 831.04c-86.821-65.518-96.706-211.048-12.573-283.115 11.862-28.862 104.22-75.553 47.045-19.825-76.512 66.018-66.51 177.154-39.472 264.167-2.503 9.645 34.464 56.51 5 38.772M285.333 401.583c-19.988-52.47-24.403-122.078.614-172.505C327.594 179.337 399.4 187.04 456.576 171c60.716-4.722 118.372 39.72 150.422 89.053 21.798 45.378-.391 43.534-25.315 11.821-79.445-52.734-179.755-3.097-243.285 52.737-31.37 3.616-44.242 96.246-53.065 76.972M891.42 823.921c-13.356-35.406 2.757-68.884 22.45-97.922 23.814-34.058 44.482-105.095-2.784-123.184 31.353 37.988 24.443 117.364-21.126 136.962-1.24-42.99 2.596-87.743 4.507-128.481 18.78-22.323 69.084-98.818 87.772-25.708 26.52 66.743 9.655 144.62-21.918 206.546-13.498 28.823-46.891 20.677-68.9 31.787M567.338 629.618c46.16-40.271-50.052-86.179-44.638-139.859 22.045-69.651 119.713 22.915 116.878 73.35 8.152 44.072-29.453 75.935-72.24 66.51M693.284 624.462c-28.173-40.685 54.362-6.79 65.117-43.747-13.225 22.336-36.272 47.858-65.117 43.747M763.485 479.957c-16.523-11.279-71.178-7.194-28.864-28.236-24.994 18.63-90.142 8.846-32.775-13.364 15.754-7.284 58.882-.167 34.543 23.137 19.67-21.729 36.764 13.133 27.096 18.463m-52.392-28.816c32.997-22.765-7.066-4.796-10.888 4.745l.36-.078z" style="fill:#782121;stroke-width:1.27111" transform="translate(-75.866 -101.556)"/><path d="M697.387 643.352c-67.112-40.058 30.884 6.034 46.65-35.783 19.723-15.835 47.054-100.418 59.77-40.102-11.613 40.64-67.994 74.222-106.42 75.885M311.58 443.967c-32.247-36.208-1.876-93.676 31.974-118.166 61.03-54.968 159.265-97.277 234.257-44.21 40.149 22.637 67.288 63.301 20.6 90.638-30.756 43.112-102.99-1.521-147.834 35.309-87.75 17.438-23.23-88.201 30.422-76.938 31.339-20.202 99.616 85.208 65.107 18.023-45.783-47.29-136.705-16.455-149.137 46.855-18.01 26.064-53.054 50.417-85.388 48.49M323.681 543.722c15.551-29.973 54.415-87.011 86.526-70.006-22.942 17.937-17.478 44.798-21.587 41.491-20.645 9.866-44.54 23.795-64.939 28.515" style="fill:#782121;stroke-width:1.27111" transform="translate(-75.866 -101.556)"/><path d="M309.973 548.277c25.582-31.262 12.651-27.485 9.137-58.257-3.583-61.16 100.957-47.457 101.097-28.656-54.571-4.794-80.467 56.167-110.234 86.913" style="fill:#916f6f;stroke-width:1.27111" transform="translate(-75.866 -101.556)"/><path d="M641.538 1571.682c-86.731-17.507-176.653-20.099-264.534-10.534-41.927-13.83 49.625-58.84 38.487-95.2 26.286 21.74 24.555 28.093 2.413 21.886 6.905 22.934 86.499 39.101 34.975 3.352-28.75-17.724-49.488-90.732-5.708-33.558 69.02 39.963-77.513-87.732-4.738-34.57 12.657 20.42 62.767 19.318 17.01.74-34.295-11.074-53.407-86.154-4.723-32.508 78.57 45.351-97.548-80.562-6.392-46.013 51.136 34.402 111.78 29 166.437 7.208 38.377-22.373 54.78-6.433 47.639 31.33 2.365 61.903 17.037 127.461 59.655 174.293-22.063 9.286-55.086 14.37-80.52 13.574m-211.353-24.786c-16.3-12.028-70.798-26.03-25.583.78 7.719.962 18.78 4.13 25.583-.78m13.406-8.754c20.417-7.778-15.428-27.162-33.272-40.921-10.883 15.665-2.025 51.757 33.272 40.921" style="fill:#c8b7b7;stroke-width:1.27111" transform="translate(-75.866 -101.556)"/><path d="M500.366 1354.573c-72.895-20.637-135.777-66.243-183.287-124.783-34.919-31.37-63.642-103.878-65.958-131.65 2.28-13.553-13.173-102.749-14.87-143.36 3.835-61.722-4.058-122.33-17.957-181.834-3.598-65.268-12.587-142.701 44.278-189.439 52.047-34.951 114.907-57.903 174.308-79.25 60.995 3.157 80.293 109 16.391 130.991-59.55 15.269 7.445-89.728-48.604-39.578-58.303 66.199 60.46 100.673 103.867 57.385 22.92-18.297 52.647 41.407 90.66 12.4 40.26-13.834 70.303-29.95 108.487-4.48 42.423-22.932 79.807-36.812 129.224-28.034 42.04-21.927 41.057-5.66 39.967 35.443 8.788 86.498-4.762 172.826-22.546 257.278 13.822 14.795 16.534-90.294 27.93-89.594-4.318 64.05-22.682 126.39-34.868 189.137 4.666 48.502-30.89 97.989-49.926 143.174-36.913 65.564-84.004 127.696-150.595 165.163-13.423 15.815-106.059 26.979-146.501 21.031m109.384-54.027c32.686-14.822 65.723-83.19 95.296-55.065 5.265-25.61-25.274-60.366-19.655-15.157-37.674 31.296-48.863-73.763-92.71-15.29-21.49 7.794-42.749-36.844-66.435 3.454-12.051 25.554-53.725 50.526-66.461 13.8-50.287 57.72 56.259-1.933 71.126 51.034 23.166 14.357 51.482 24.949 78.84 17.225m-221.904-111.388c44.61-15.693 63.165-65.524 119.664-43.651 34.312-37.474 52.422 52.805 94.194 18.682-11.642-57.145 81.194-19.937 102.503-45.364 4.217 37.003 55.95 28.786 16.668 3.527-12.047-25.932 60.005 17.203 36.46-14.097-44.372-27.844-96.983-80.37-150.77-39.468-11.455-66.153-30.25-137.73-14.353-203.451 3.82-11.615 33.081-46.952 9.842-28.945 39.872-71.921 138.216-83.36 211.284-64.35 40.62 5.874-50.549-30.46-71.315-16.397-73.897 4.742-154.12 50.601-163.029 130.264 2.333 63.822-5.055 133.735 26.836 191.435 30.327-47.219 131.707 27.457 56.602 45.552 32.81-27.17-40.832-13.215-44.083-12.378-21.741 15.905 9.888-66.063-13.952-10.015-8.714 27.465-13.85 90.863-44.52 37.828-8.25-31.073 2.072-43.879-29.923-20.365-29.092 10.198-85.14 31.437-71.032-23.52 33.791-30.72 93.102 34.944 81.712-37.647-5.237-65.412 6.423-138.244-28.718-196.781-27.189-61.93-98.399-113.541-164.589-75.568-25.346 5.98-92.89 89.158-38.972 36.142 9.512-10.722 78.727-26.04 38.206-25.487 61.38-32.074 130.32 6.744 153.765 67.624 36.703 62.156 23.972 138.39 31.85 206.805-39.504 9.239-98.829 5.978-88.678 62.966-17.106 13.06-74.678 30.482-19.127 13.795 1.099 21.46-83.205 43.26-36.521 39.785l-3.663 4.798zM359.844 978.2c41.533-7.49 75.704-14.153 104.064-22.173 7.033-25.938-16.88-64.917 17.26-68.848-19.348 2.38-55.431-5.745-18.224-19.883-23.42 13.65-55.505-7.83-14.694-19.297-46.993 31.577-49.952-10.666-48.574-10.192-21.02 41.83-38.616-19.258-50.935 31.784-30.042 9.435-32.055-38.998-25.927 8.08-9.593 46.403-56.696-33.466-35.1 16.093 44.48 9.38-4.05 62.014-20.879 17.282-17.175-5.62 39.24 61.458-7.627 27.393-27.328-2.177 48.183 50.613 58.586 39.001 38.296-29.954 21.69 32.345 42.05.76m291.748-22.839c29.292 17.7 86.014 2.405 101.68-1.441 22.227-1.92 41.277-33.78 44.531-3.722 7.176-16.567 48.523-73.132 10.17-36.606 24.517-55.088-4.43 12.573-21.616 3.004 8.97-12.233 36.624-44.362 7.635-19.547 26.882-37.196-46.139 39.826-15.846-13.248 26.849-40.392-35.829 37.48-1.477-16.084.993 5.192-41.394 28.701-13.137-7.152 11.988-18.822-33.927 32.857-6.234-8.846 11.386-12.687-40.833 37.89-16.12-4.241 11.43-42.796-28.719 24.129-13.76-15.69-12.782 31.775-27.85 12.222-22.075 11.387-1.448-24.402-34.283 52.314-19.454 6.876 4.003-49.103-24.814 61.556-16.846-2.392-16.51 16.266-16.16 58.733-27.54 23.162-.427 26.591-47.017 52.456-1.501 85.987 3.105 20.052 4.27 4.142 11.59-1.447M221.274 964.565c-26.04-29.816 12.934-59.142 5.402-11.054-.783 4.106 4.808 23.461-5.402 11.054" style="fill:#c8b7b7;stroke-width:1.27111" transform="translate(-75.866 -101.556)"/><path d="M195.492 919.779c-44.766-20.114-2.652-111.848 21.724-58.734-12.272 22.38-33.183 77.546-6.6 22.79 21.908-32.949 7.6 87.843-15.124 35.944M226.32 1051.19c-3.442-29.535-6.43-43.995-11.496-5.965-47.27-6.472-.751-120.295 11.542-43.19.106 8.197 15.527 56.353-.045 49.154M881.698 1027.537c-15.513-16.272 23.265-48.135-13.043-14.67-17.113-32.155 41.545-100.372 37.664-32.983 6.824 19.393 6.84 57.524-24.62 47.653" style="fill:#c8b7b7;stroke-width:1.27111" transform="translate(-75.866 -101.556)"/><path d="M874.533 959.169c-9.647-32.746 23.413-68.399 17.973-16.382-4.408 4.8-10.994 17.33-17.973 16.382M879.958 1100.588c-34.009-32.006 3.368-81.708 30.817-72.747 7.785 26.875-18.415 65.27-30.817 72.747" style="fill:#c8b7b7;stroke-width:1.27111" transform="translate(-75.866 -101.556)"/><path d="M145.697 840.126c-52.223-32.64-59.538-103.472-61.976-159.762 1.215-79.9 58.638-147.404 119.94-192.763 16.835-17.856 103.798-39.738 55.81 1.936-65.074 34.571-126.848 96.584-135.391 172.971-.705 58.817 9.638 142.507 69.949 167.392 6.138 13.252-41.65 16.836-48.332 10.226" style="fill:#501616;stroke-width:1.27111" transform="translate(-75.866 -101.556)"/><path d="M204.239 791.838c-17.015-70.04-33.497-150.33.547-218.263 13.636-28.022 55.48-73.305 57.896-12.9 4.446-19.24-5.103-86.572 39.917-101.522 64.954-35.809-3.117 38.085 2.75 66.47-34.298 44.245-91.439 79.1-99.468 130.797-11.317 41.423 5.607 107.902-1.642 135.418M807.978 595.472c10.863-30.055 14.957-26.404 32.64-7.28-11.493-24.634 27.603 8.003 5.335-23.072 25.109-17.943 85.71-43.011 20.492-16.976-59.374 23.504 13.12-31.92 16.029-38.547-22.933 20.905-70.916 37.54-33.586-4.887 18.487-18.535 58.558-59.845 16.202-23.225-27.89 18.488-41.233 68.638-42.902 12.081-15.369-32.089 84.174-99.6 21.494-53.226-38.147 65.361-51.7-89.277 14.322-40.135 53.253 27.128 103.178 121.668 35.325 162.715-25.405 16.205-53.662 36.021-85.351 32.552M387.237 503.68c4.321-40.632 84.082-28.98 37.4-4.55-12.098 3.15-24.817 6.028-37.4 4.55M557.456 623.159c-22.904 3.372-26.927-92.384 5.955-43.088 13.734 11.841 14.89 48.756-5.955 43.088" style="fill:#501616;stroke-width:1.27111" transform="translate(-75.866 -101.556)"/><path d="M568.622 1290.121c-30.736-5.39-59.796-52.24-7.997-34.172 29.148 7.67 116.237-12.772 54.125 29.62-13.975 7.125-30.973 5.652-46.128 4.552M617.59 1250.505c-69.993-11.18 28.143-80.355 27.052-4.22-5.422 8.555-19.838 2.358-27.052 4.22M548.218 1243.654c-78.855 11.004 40.88-70.2 15.918.343l-6.994.53z" style="fill:#d35f5f;stroke-width:1.27111" transform="translate(-75.866 -101.556)"/><path d="M901.045 916.72c-25.194-18.827-11.602-88.163 13.42-49.272 7.351-39.557-44.922-.129-18.29-40.598 45.789-21.302 22.25 84.46 4.87 89.87" style="fill:#c8b7b7;fill-opacity:1;stroke-width:.635554" transform="translate(-75.866 -101.556)"/><path d="M371.76 962.208c-8.991-16.242 33.92-39.516 29.944-34.99-10.466-13.324 10.21-31.67-18.54-31.83 30.333-53.07 48.213 81.576-11.404 66.82m24.018-13.99c-3.615-24.835-14.105 5.582 0 0M690.148 936.135c10.44-19.533 33.267-13.358 13.574-45.204-20.037 7.65-20.07-3.484-28.948 20.17 16.245 7.381 4.744 41.745-10.657 3.459 6.237-80.326 116.457 15.063 26.031 21.575M350.363 938.17c-29.407-36.584 42.418-78.767 15.84-44-19.924-17.927 6.682 44.245-15.84 44" style="fill:olive;fill-opacity:1;stroke-width:.635554" transform="translate(-75.866 -101.556)"/><path d="M1052.51 717.964c-1.715-.87-3.534-2.48-4.042-3.58s-1.617-3.342-2.464-4.982c-.848-1.64-1.54-4.155-1.54-5.588 0-1.434-.537-2.938-1.193-3.343-2.6-1.607-3.191-15.093-3.984-90.754-.819-78.201-.838-78.627-3.26-72-1.341 3.667-2.948 7.867-3.573 9.333-.624 1.467-2.387 6.166-3.918 10.442-3.988 11.14-6.334 15.231-10.18 17.752-3.162 2.071-3.535 2.069-5.64-.034-1.97-1.97-2.234-5.469-2.103-27.873.142-24.313 1.045-33.897 4.484-47.62 1.56-6.225 4.11-21.793 6.77-41.333.85-6.234 2.096-14.334 2.77-18 .675-3.667 1.712-11.167 2.304-16.667 1.247-11.595 2.206-14.107 9.105-23.876 3.7-5.238 8.804-9.71 18.67-16.355 12.57-8.467 14.351-9.255 23.996-10.606 12.136-1.701 11.636-1.7 23.763-.105 6.244.822 13.238 3.062 21.079 6.752 6.453 3.038 12.245 5.523 12.87 5.523s4.374 3.162 8.333 7.027c6.368 6.217 7.456 8.097 9.455 16.333 1.242 5.119 2.257 10.365 2.255 11.658 0 2.352 2.518 7.701 4.247 9.01.505.382 1.332 16.882 1.838 36.667.506 19.784 1.443 36.982 2.082 38.218.64 1.235 1.162 5.285 1.162 9s.6 6.754 1.334 6.754c.733 0 1.333 1.165 1.333 2.588s.6 2.959 1.333 3.412c.734.453 1.334 3.296 1.334 6.317s.73 7.51 1.62 9.975c1.272 3.518 1.272 5.04 0 7.077-.89 1.427-1.62 4.813-1.62 7.524 0 4.596-3.688 17.382-6.923 24-.778 1.592-1.032 4.931-.565 7.421.696 3.71.267 5.075-2.379 7.56-4.36 4.098-8.103 3.232-8.234-1.905-.056-2.183-.481-4.87-.945-5.97-.87-2.064-1.526-9.97-3.485-42-1.064-17.397-2.672-28.852-4.81-34.27-.74-1.873-1.342-1.992-3.444-.679-1.922 1.2-2.549 3.133-2.549 7.859 0 3.447-.6 6.638-1.333 7.09-1.84 1.138-1.722 26.412.131 28.266 1.475 1.474 1.368 3.484-1.54 29.068-1.628 14.33-1.802 22.366-.62 28.667.797 4.25.278 5.334-5.807 12.131-7.557 8.44-14.132 12.336-17.646 10.456-1.251-.67-3.98-4.832-6.063-9.25-2.084-4.417-4.838-8.366-6.122-8.774-2.531-.806-2.948-2.862-1.154-5.692.695-1.098.12-4.627-1.478-9.071-1.981-5.511-2.4-8.955-1.726-14.204 1.713-13.351 2.228-43.927.764-45.39-.809-.81-1.405-7.422-1.405-15.584 0-7.798-.395-14.572-.878-15.055-1.72-1.72-4.456 2.164-4.456 6.33 0 2.33-.555 4.806-1.233 5.503-1.72 1.767-2.818 17.76-3.518 51.267-.33 15.766-1.173 29.866-1.874 31.333-.7 1.467-1.632 9.567-2.07 18-3.676 70.665-4.324 77.273-8.306 84.713-3.7 6.913-13.95 12.07-18.952 9.534m14.157-8.37c1.773-2.706 2.377-7.415 2.78-21.667.285-10.016 1.062-19.41 1.729-20.877s1.52-8.066 1.895-14.666 1.324-19.5 2.11-28.667 1.704-29.567 2.042-45.333c.339-15.767.973-29.567 1.41-30.667s.688-5.99.56-10.869c-.134-5.085.372-9.242 1.185-9.745.78-.482 1.419-2.76 1.419-5.06 0-4.516 5.545-13.632 9.62-15.813 2.886-1.544 7.657-.381 7.836 1.91 1.48 18.912 1.87 69.878.579 75.397-.775 3.311-.244 6.901 2.026 13.698 2.264 6.778 2.683 9.604 1.589 10.699-1.095 1.094-.813 2.055 1.067 3.635 1.406 1.181 4.293 5.448 6.416 9.481 4.868 9.25 7.598 9.845 14.095 3.073 3.864-4.028 4.693-5.76 4.025-8.406-1.754-6.946-2.146-16.428-.794-19.16.773-1.562 1.75-7.94 2.171-14.173 1.013-14.99 1.012-15.259-.052-35.483-.642-12.218-.477-17.756.55-18.391.92-.569 1.171-3.098.67-6.755-.733-5.345-.368-6.375 4.263-12.027 2.786-3.4 6.772-7.063 8.859-8.142 4.204-2.174 4.262-2.11 5.622 6.131.424 2.567 1.349 7.367 2.056 10.667s1.311 13.83 1.343 23.4c.035 10.482.625 17.966 1.482 18.824.784.783 1.442 6.004 1.464 11.602.041 10.478 1.686 14.466 3.257 7.895.49-2.047 1.474-4.464 2.188-5.371s.958-2.538.541-3.624-.183-2.329.518-2.762c.701-.434 1.275-3.718 1.275-7.298s.6-6.88 1.333-7.333c.734-.453 1.334-2.553 1.334-4.667s-.6-4.213-1.334-4.666c-.733-.454-1.333-3.528-1.333-6.833s-.69-7.3-1.535-8.878c-2.441-4.56-4.056-18.665-4.685-40.901-.32-11.337-1.2-21.355-1.953-22.263s-1.256-3.033-1.117-4.721c.138-1.69.186-6.902.104-11.584l-.147-8.513-2.473 3.18c-1.36 1.748-5.31 7.34-8.777 12.425-6.262 9.183-14.66 16.47-23.217 20.145-2.457 1.055-7.318 4.305-10.801 7.221-7.55 6.321-11.686 8.058-19.152 8.045-6.264-.012-20.593-4.014-24.72-6.904-6.326-4.432-25.412-22.777-28.836-27.718-2.046-2.953-4.215-5.368-4.819-5.368-1.43 0-3.28 7.382-5.183 20.667-.84 5.866-2.14 13.666-2.887 17.333-.748 3.667-1.871 12.667-2.496 20-.626 7.333-1.705 18.433-2.399 24.667-2.39 21.482-2.984 34.666-1.56 34.666 1.69 0 5.024-7.371 9.949-22 2.4-7.127 4.297-11.921 6.193-15.648.648-1.274 1.178-3.17 1.178-4.215 0-2.559 8.094-9.243 9.495-7.841.612.611 1.35 38.595 1.642 84.408.516 81.125.76 89.639 2.63 91.509.495.494.9 2.563.9 4.598s.6 4.07 1.333 4.523 1.333 1.772 1.333 2.931c0 6 10.647 7.707 14.204 2.278m43.489-229.451c3.232-2.98 9.724-7.31 14.426-9.621 6.188-3.044 9.793-5.922 13.06-10.43l4.51-6.228-6.51 5c-3.582 2.75-8.421 5.858-10.754 6.906s-4.657 2.577-5.163 3.396c-1.01 1.633-19.649 10.485-27.614 13.114-7.217 2.382-4.767 4.505 4.43 3.84 6.828-.494 8.428-1.196 13.615-5.977m-23.36-1.381c-2.016-.305-5.316-.305-7.333 0-2.017.306-.367.555 3.667.555s5.683-.25 3.666-.555m19.19-9.665c2.637-2.175 8.08-5.183 12.094-6.684 10.513-3.934 17.55-13.357 18.938-25.363.381-3.3 1.074-8.533 1.54-11.63.64-4.27.167-7.03-1.958-11.42-1.542-3.186-2.803-6.39-2.803-7.12 0-1.874-5.997-6.084-16.76-11.765-5.082-2.683-11.792-6.391-14.91-8.24-7.792-4.619-15.626-4.792-21.673-.48l-4.658 3.322 6 .418c6.853.476 9.34 2.11 6.913 4.537-1.077 1.076-5.193 1.486-12.247 1.218l-10.626-.402-9.986 6.325c-5.492 3.48-11.118 7.581-12.502 9.115-3.142 3.482-5.552 13.142-5.552 22.256 0 6.125.675 7.838 5.667 14.387 6.886 9.033 10.732 12.466 22.177 19.798l8.823 5.651 13.363.015c12.856.014 13.545-.135 18.16-3.938m7.187.688c2.543-1.063 4.623-2.27 4.623-2.684 0-.745-9.284 2.79-10.487 3.992-1.163 1.164 1.222.631 5.864-1.308m24.957-16.49c2.016-1.876 3.666-4.248 3.666-5.272 0-2.732-1.327-1.767-8.692 6.315-5.414 5.94-5.902 6.833-2.64 4.827 2.2-1.353 5.65-3.994 7.666-5.87m4.98-11.99c-.019-1.943-.2-1.978-1.314-.255-1.687 2.612-1.687 4.377 0 3.334.734-.454 1.325-1.839 1.313-3.079m4.93.829c-.425-1.064-.74-.748-.805.805-.058 1.406.257 2.193.7 1.75s.49-1.593.106-2.555m-94.244-46.64c3.3-1.88 8.1-3.81 10.667-4.289s7.667-2.795 11.333-5.146c6.01-3.854 6.351-4.323 3.466-4.761-6.423-.975-32.132 8.36-32.132 11.667 0 .66-2.1 3.183-4.667 5.604-2.567 2.42-4.667 5.434-4.667 6.696s-.6 2.665-1.333 3.119c-.733.453-1.333 1.407-1.333 2.12s2.85-1.603 6.333-5.148 9.033-7.984 12.333-9.863m-10 12.223c1.328-1.467 2.114-2.667 1.747-2.667s-1.753 1.2-3.08 2.667-2.113 2.667-1.747 2.667c.367 0 1.753-1.2 3.08-2.667m99.334-4c0-.733-.636-1.333-1.412-1.333-.777 0-1.041.6-.588 1.333s1.088 1.333 1.412 1.333.588-.6.588-1.333m-89.62-3.333c2.698-1.834 4.434-3.334 3.859-3.334s-3.255 1.5-5.953 3.334c-2.698 1.833-4.434 3.333-3.858 3.333s3.254-1.5 5.952-3.333" style="fill:#000;stroke-width:1.33333" transform="matrix(1.36178 0 0 1.46251 -998.383 2.202)"/><path d="M57.452 96.754c-12.039-7.719-18.185-13.082-24.429-21.316-5.618-7.41-6.622-13.086-4.301-24.323 2.157-10.442 4.322-12.836 21.014-23.233l5.818-3.624 9.143.353c10.088.388 14.454-.43 14.454-2.709 0-2.179-1.951-3.116-7.283-3.497-5.826-.417-5.816-.918.088-4.131 3.36-1.828 4.25-1.995 9.02-1.689 4.928.316 5.962.707 14.991 5.659 13.135 7.203 22.43 12.625 24.45 14.262 2.185 1.77 7.416 14.72 7.372 18.25-.018 1.493-.63 6.727-1.362 11.631-2.306 15.475-6.989 22.205-19.646 28.234-3.81 1.815-8.537 4.454-10.505 5.866-5.988 4.296-7.183 4.565-20.241 4.565h-11.88Z" style="fill:maroon;stroke-width:.726447" transform="matrix(1.36178 0 0 1.46251 377.81 545.658)"/><path d="M79.831 114.341c-.68-.123-1.539-.422-1.909-.665l-.673-.44.771-.69c.434-.387 2.114-1.177 3.836-1.803 10.214-3.715 24.71-10.7 27.72-13.358.978-.864 2.811-2.053 4.544-2.95 3.754-1.94 7.623-4.462 12.343-8.045 2.084-1.582 3.789-2.803 3.789-2.714 0 .477-4.774 6.638-6.461 8.34-2.424 2.442-4.602 3.927-10.156 6.924-5.002 2.699-9.813 5.852-12.92 8.468-1.2 1.01-2.934 2.47-3.852 3.241-2.2 1.848-4.26 2.822-6.935 3.278-2.774.472-8.484.707-10.097.414M24.691 38.577c0-.136.51-.821 1.131-1.521.623-.701 1.2-1.63 1.285-2.064l.299-1.547c.258-1.34 2.015-3.691 5.367-7.185 2.04-2.127 3.46-3.838 3.775-4.549.613-1.386 1.984-2.435 5.351-4.093 5.083-2.503 11.566-4.842 18.236-6.58 3.32-.865 4.429-1.043 6.678-1.072 1.483-.019 2.914.054 3.18.163.476.194.476.21 0 .738-.854.954-6.56 4.59-9.396 5.987-1.512.746-3.766 1.668-5.009 2.049-7.625 2.339-10.368 3.487-14.002 5.858-3.119 2.034-7.07 5.286-10.858 8.935-3.26 3.141-5.536 5.13-5.87 5.13-.092 0-.167-.112-.167-.249M118.652 87.426c.926-1.3 8.649-9.669 10.067-10.91 1.691-1.478 2.303-1.577 2.303-.37 0 1.605-1.937 4.088-5.522 7.076-2.296 1.914-6.637 4.917-7.108 4.917-.136 0-.018-.32.26-.713M96.756 99.662c.41-.664 8.755-4.093 9.897-4.067 1.082.025-3.297 2.233-7.067 3.564-2.4.847-3.122.975-2.83.503M130.141 72.758c-.207-.336.349-1.78 1.247-3.24l.79-1.284.084.881c.13 1.374-.19 2.586-.86 3.257-.646.646-1.028.763-1.26.386" style="fill:maroon;stroke-width:.256838" transform="matrix(1.36178 0 0 1.46251 377.81 545.658)"/><path d="M130.371 72.022c.096-.389.51-1.284.921-1.99l.746-1.285.005 1.156c.005 1.299-.767 2.825-1.43 2.825-.326 0-.379-.154-.242-.706zM131.174 32.643c-.743-.884-.848-1.469-.3-1.679.716-.275 1.432.379 1.432 1.306 0 1.197-.343 1.31-1.132.373M38.175 30.976c2.12-1.76 7.983-5.443 8.246-5.18.246.246-5.357 4.178-7.542 5.293-1.404.717-1.654.676-.704-.113" style="fill:maroon;stroke-width:.256838" transform="matrix(1.36178 0 0 1.46251 377.81 545.658)"/><path d="M45.245 340.037c-2.1-1.1-3.261-2.761-3.261-4.667 0-.71-.4-1.64-1.072-2.484-.652-.82-1.143-1.942-1.255-2.865-.101-.834-.28-2.382-.396-3.44-.117-1.059-.527-2.53-.911-3.27-.391-.752-.865-2.785-1.075-4.614-.556-4.836-1.044-33.388-1.474-86.265-.376-46.177-.827-74.396-1.304-81.493l-.24-3.58-1.211.196c-2.67.433-7.843 5.057-8.51 7.605-.22.847-.538 2.03-.705 2.63-.166.599-1.197 3.132-2.29 5.63-1.093 2.496-3.175 7.972-4.626 12.167C12.443 188.511 8.65 197.2 7.479 197.2c-1.347 0-.873-12.014 1.276-32.327.497-4.694 1.472-14.502 2.167-21.793 1.45-15.197 1.956-19.27 3.437-27.605.586-3.296 1.658-9.834 2.384-14.53 1.885-12.202 3.375-18.757 4.597-20.23.554-.667 1.398.14 5.018 4.794 2.688 3.455 14.303 15.271 20.53 20.886 4.846 4.37 8.602 7.238 10.907 8.33 5.966 2.825 17.077 5.475 22.918 5.466 6.878-.01 10.31-1.431 18.176-7.528 5.905-4.577 8.67-6.388 12.588-8.248 4.367-2.072 9.109-5.449 13.252-9.436 4.156-4.001 6.535-6.925 11.695-14.374 1.868-2.697 4.43-6.277 5.692-7.955l2.297-3.052.008 11.043c.007 10.284.058 11.153.74 12.656 1.155 2.546 1.898 10.012 2.334 23.45.462 14.233 1.412 26.368 2.573 32.87.62 3.475.954 4.686 2.153 7.81.91 2.37 1.13 3.724 1.605 9.856.26 3.352.476 4.32 1.26 5.659 1.683 2.87 1.61 6.922-.166 9.325-.6.81-.812 2.051-1.215 7.084-.42 5.24-.6 6.253-1.282 7.174-.675.914-.758 1.36-.553 2.996.21 1.682.105 2.19-.843 4.068-.595 1.18-1.433 3.325-1.862 4.766-.842 2.83-1.261 3.393-1.777 2.385-.612-1.196-.824-3.156-1.172-10.816-.343-7.548-.507-8.76-1.576-11.66-.723-1.96-1.313-10.017-1.315-17.942-.002-7.06-.578-18.71-1.078-21.794-.927-5.72-3.397-18.096-3.769-18.883-.595-1.259-1.433-1.306-3.679-.208-3.245 1.588-9.333 7.515-12.34 12.014-1.876 2.806-2.137 4.258-1.62 9.011l.443 4.06-.966 2.032c-.922 1.941-.965 2.299-.965 7.92 0 3.237.262 10.985.582 17.217.917 17.827-.081 35.403-2.455 43.219-.694 2.284-.749 3.092-.554 8.207.13 3.412.508 7.106.95 9.272.73 3.587.73 3.605.016 5.219-.404.914-2.022 2.96-3.714 4.698-6.373 6.544-8.427 6.088-13.672-3.037-2.757-4.796-5.493-8.737-7.113-10.246-1.058-.984-1.175-1.93-.328-2.633.932-.774.41-4.453-1.488-10.495-2.389-7.602-2.593-9.006-2.083-14.29.235-2.429.53-9.565.656-15.858.335-16.688-.697-57.433-1.52-60.026-.596-1.878-5.826-2.54-8.246-1.044-2.77 1.712-6.653 7.017-8.29 11.324-.395 1.04-.881 3.22-1.08 4.843-.228 1.875-.617 3.306-1.066 3.925-1.13 1.56-1.428 3.707-1.438 10.358-.005 3.436-.247 8.094-.538 10.352-.552 4.285-1.112 15.677-1.47 29.894-.5 19.847-1.251 35.701-2.38 50.228a3034 3034 0 0 0-1.443 19.614c-.863 12.354-1.26 15.98-2.177 19.874-.855 3.632-1.33 9.306-1.81 21.612-.52 13.393-1.037 17.78-2.4 20.42-1.892 3.66-7.033 5.018-11.045 2.917" style="fill:#d40000;stroke-width:.363224" transform="matrix(1.36178 0 0 1.46251 377.81 545.658)"/></svg>