<?xml version="1.0" encoding="UTF-8" standalone="no"?>
<svg
   xmlns:dc="http://purl.org/dc/elements/1.1/"
   xmlns:cc="http://creativecommons.org/ns#"
   xmlns:rdf="http://www.w3.org/1999/02/22-rdf-syntax-ns#"
   xmlns:svg="http://www.w3.org/2000/svg"
   xmlns="http://www.w3.org/2000/svg"
   xmlns:sodipodi="http://sodipodi.sourceforge.net/DTD/sodipodi-0.dtd"
   xmlns:inkscape="http://www.inkscape.org/namespaces/inkscape"
   inkscape:version="1.0 (4035a4fb49, 2020-05-01)"
   sodipodi:docname="villager11sshot.svg"
   viewBox="0 0 891.95795 1284.6157"
   height="1284.6157"
   width="891.95795"
   id="svg10"
   version="1.1">
  <metadata
     id="metadata16">
    <rdf:RDF>
      <cc:Work
         rdf:about="">
        <dc:format>image/svg+xml</dc:format>
        <dc:type
           rdf:resource="http://purl.org/dc/dcmitype/StillImage" />
        <dc:title></dc:title>
      </cc:Work>
    </rdf:RDF>
  </metadata>
  <defs
     id="defs14" />
  <sodipodi:namedview
     inkscape:current-layer="g18"
     inkscape:window-maximized="1"
     inkscape:window-y="-11"
     inkscape:window-x="-11"
     inkscape:cy="531.37715"
     inkscape:cx="406.9272"
     inkscape:zoom="0.79545353"
     showgrid="false"
     id="namedview12"
     inkscape:window-height="1826"
     inkscape:window-width="1080"
     inkscape:pageshadow="2"
     inkscape:pageopacity="0"
     guidetolerance="10"
     gridtolerance="10"
     objecttolerance="10"
     borderopacity="1"
     bordercolor="#666666"
     pagecolor="#ffffff"
     inkscape:document-rotation="0"
     fit-margin-top="0"
     fit-margin-left="0"
     fit-margin-right="0"
     fit-margin-bottom="0" />
  <g
     id="g18"
     inkscape:label="Image"
     inkscape:groupmode="layer"
     transform="translate(-92.206315,-286.55279)">
    <path
       d="m 626.60711,1567.5479 c -42.13981,-7.4739 -84.80198,-21.477 -129.51986,-12.8627 -53.56554,-10.0398 -107.96332,1.5631 -161.6075,1.9128 -0.0131,-2.3933 -20.83699,-5.0392 4.84039,-11.3454 22.76895,-1.7302 68.29575,-78.8982 51.44402,-60.1674 -45.62364,46.2599 24.36667,-25.5645 12.60795,-52.339 2.80755,-41.2488 5.91661,-87.6775 -7.70552,-125.2112 -25.90735,-7.9749 -6.6339,67.8041 -17.15694,93.7019 -3.66699,56.6653 29.71685,-82.6821 17.55871,-22.6917 1.4841,27.0562 -29.69208,73.1483 -23.78872,18.9228 2.16801,-27.871 8.52512,-74.6466 1.78981,-91.1866 -19.21432,29.1979 -26.03663,103.7577 -44.13462,107.3021 -36.33744,-35.7227 12.87045,-100.6233 -12.94927,-136.1006 -19.9553,50.4812 -4.39495,113.968 -44.03338,155.8975 -34.2976,-1.2399 -36.8643,-82.5715 -25.32901,-116.5847 8.49431,-40.9803 11.69359,-141.5081 -16.09756,-142.0859 -14.11767,54.064 14.5078,109.8197 -4.51656,162.0664 -22.06795,6.2807 -44.37369,61.107 -56.03212,48.8437 21.45074,-27.1625 -20.41977,-100.8778 -24.55074,-31.6428 -19.37126,24.9674 -42.29534,110.6997 -49.953937,35.6587 -26.614685,-51.2391 57.793367,-82.1804 28.786257,-138.3382 -16.21708,-47.691 -39.056154,-89.7054 -8.2316,-139.1189 15.79786,-47.2415 -3.5479,-93.8512 -4.28495,-140.79673 8.78107,-53.86207 12.56122,-108.17973 6.61343,-162.57778 4.18677,-53.44747 2.54419,-109.80042 18.45831,-160.77134 18.47689,-48.21507 47.53186,-93.76891 57.20136,-145.19215 6.899,-43.85687 47.69417,-105.97113 96.86366,-91.04309 8.10562,-57.95443 74.02502,-72.80632 119.45328,-92.56033 53.3712,-20.39326 103.51573,-34.7614 162.71677,-32.43826 49.40466,18.04588 107.38278,-3.76315 154.41614,25.45477 33.48067,-0.47343 39.87134,42.40706 74.3383,31.54386 15.71785,46.26223 77.42786,48.15178 88.04041,95.55618 44.11799,17.89176 26.46681,83.17169 60.86302,113.12363 29.31173,41.01104 27.87347,98.6282 31.45762,147.99868 -6.84305,28.2727 -18.03189,74.30153 -9.83182,94.87506 5.50646,25.96799 -3.66335,81.25855 0.56069,116.67118 0.66189,59.55989 -35.19509,108.57712 -58.21682,160.45062 32.11057,30.4975 3.18414,142.5983 -36.38584,76.3246 -4.4985,-28.3903 -28.92529,-48.5956 -28.38191,-6 -9.82826,66.1121 -62.8131,114.3105 -118.21349,146.0146 -45.01728,7.849 -57.84779,64.921 -111.69322,62.1232 -52.71849,9.2791 -111.69867,13.2693 -163.22804,-3.6905 -16.73864,-16.8865 -65.75896,-41.5288 -34.81557,-0.6267 14.84033,17.3105 87.56276,68.2542 31.22986,38.6777 -17.96812,-10.5435 -52.62424,-54.5969 -35.38694,-9.5965 1.21011,29.4997 51.17496,65.3204 54.4683,54.2389 -29.75741,-0.8378 -75.48561,-56.1348 -54.49565,-27.6782 -2.28755,29.934 85.64622,69.2662 22.26627,44.7323 -21.94784,-20.4997 -38.17777,-49.035 -22.96668,-2.3415 5.74517,27.2773 87.83738,81.4404 24.43869,47.6381 -27.01831,14.8042 -46.91088,-46.2273 -11.99065,-7.1101 15.25717,14.4917 -28.95934,-64.2177 -24.47927,-17.2732 -0.77576,38.2659 -102.19347,91.2373 -21.28845,82.4648 54.63426,-17.379 108.43325,6.9847 164.79465,-6.1668 47.34176,8.4774 95.30371,31.2668 142.22544,9.0939 30.12481,3.5484 32.20327,-0.021 8.70146,-24.7718 -29.68539,-49.5098 -45.63876,-106.4681 -43.77102,-164.4907 12.9628,-58.2443 8.8034,60.1769 16.60658,79.749 18.11306,38.172 23.36747,86.6017 64.86127,111.0135 19.67617,22.7708 -55.7081,-9.0126 -72.34593,11.9036 -13.29105,0.1494 -27.87653,9.3924 -40.21906,0.8467 z M 274.2395,1430.6459 c 30.89583,-45.9507 18.68768,-104.1813 38.61167,-154.2325 -11.87505,-41.0366 -61.18712,-77.6503 -66.56352,-128.6158 4.86248,41.5407 22.6366,89.4088 12.74475,135.8193 -10.65935,49.8079 -17.61106,104.1121 11.18363,149.1807 z m 1.55546,-56.2602 c 1.10951,-31.4124 2.36899,-109.0054 16.54696,-114.9825 -4.73829,31.5994 -7.87792,106.5024 -16.54696,114.9825 z m -155.85729,21.473 c 31.52175,-52.0164 46.77444,-112.2673 61.99476,-170.5611 18.37745,-31.4812 9.71103,-115.4383 36.4274,-119.241 3.29993,64.8583 -22.75934,127.2189 -49.80709,184.9327 -3.14969,18.2448 13.38937,80.2885 24.08782,73.6536 66.96004,-33.0477 17.01074,-109.5094 31.72846,-164.4154 0.29111,-43.1991 28.43537,-74.2306 7.29774,-117.4753 -9.58065,-44.9051 -2.27604,-89.5977 -10.96561,-133.04302 -15.75235,41.16636 -0.96826,-52.42039 -4.18404,-73.13673 -14.71473,-47.50997 -33.21808,-101.08265 -6.21561,-147.69109 9.07378,-32.22877 30.95099,-53.67353 48.4708,-79.95636 -31.13278,25.391 24.86325,-44.59222 32.85958,-56.61787 12.11888,-30.25651 29.54069,-39.86261 6.12812,-3.34624 -14.10325,19.68879 -43.12617,54.42299 -8.28933,19.01183 23.66632,-15.21042 58.28854,-61.25693 24.00187,-70.67124 -19.12515,12.34486 20.51337,-16.02471 -3.44873,-33.44988 -24.82964,-26.68425 8.4464,-98.84076 -42.56139,-90.46891 -60.22895,17.13424 -60.0745,86.06891 -78.99982,133.92492 -20.94573,50.90591 -54.43415,99.59199 -53.68937,155.98999 0.36676,31.20404 -11.2109,60.58738 -7.32966,92 3.13189,57.1466 3.95281,114.13582 -7.08009,170.67152 4.05331,54.06868 20.67095,108.93028 -0.73411,162.73158 -37.433715,53.6342 28.59296,99.2721 15.80022,156.9176 -13.96544,42.9072 -58.177213,75.5402 -25.30675,124.2 4.56149,-3.5596 6.81461,-9.2431 9.81483,-13.9596 z m 11.08614,-58.0501 c 19.54325,-13.5872 25.01871,-82.4156 25.28515,-123.511 7.52976,-92.7421 6.82481,-185.5568 3.38919,-278.4791 -1.74469,-70.54336 -2.14782,-142.19834 12.09924,-211.3959 13.49511,-56.63094 51.66715,-101.72172 63.49599,-158.76477 10.47428,-15.73288 48.92185,-83.31839 23.36009,-30.03835 -29.81129,51.51075 -46.46284,108.66489 -73.18335,162.17812 -18.42466,48.30999 -15.8694,100.90955 -20.12059,151.5944 1.34754,128.44014 8.30891,257.0428 -4.15016,385.1361 -4.39362,28.6838 2.28785,97.1808 -30.17556,103.2805 z m 37.38029,-111.261 c 3.83494,-50.5916 7.24707,-101.8952 10.97963,-152.7984 12.85436,-79.64386 11.19259,-160.68998 10.89008,-241.1228 16.15055,12.32992 1.61743,83.76791 5.55101,117.99038 -1.32337,77.76362 -15.6234,154.46822 -17.35188,232.26542 -6.49535,9.9148 1.81028,47.0455 -10.06884,43.6654 z M 156.84639,716.1628 c -14.38491,-53.86177 16.55403,-99.92959 37.64989,-146.47976 15.34443,-41.84998 66.32853,-87.12418 77.79377,-113.19923 -22.23954,51.5929 -71.48138,84.70979 -85.49356,141.91841 -24.73065,31.50132 -30.20058,76.68753 -23.14843,113.61012 9.37952,2.77295 -4.90799,10.19616 -6.80167,4.15046 z m 56.94273,0.04 c 2.06804,-6.91447 5.71955,-1.59264 0,0 z m 123.37047,687.8449 c -6.78403,-41.729 73.99942,-114.6648 2.16593,-123.9772 -23.59734,-0.012 0.10409,69.1121 -15.70109,93.7266 -3.85637,10.209 3.87408,31.4326 13.53516,30.2506 z m -2.38578,-60.1986 c 7.40791,-24.6178 28.05349,-61.2777 11.98874,-16.1065 -4.76609,3.0499 -4.36211,15.5244 -11.98874,16.1065 z m 217.5,1.9486 c 51.65814,4.8999 108.40163,-2.8871 143.5,-45.7256 27.90981,-26.0176 75.37963,-61.0483 91.5183,-80.7378 -16.44618,21.511 -70.76499,67.7636 -15.19015,34.136 43.5188,-29.3064 53.40486,-87.3811 72.20882,-133.2859 7.79829,-57.1085 18.80453,-116.1188 4.9021,-173.05678 12.17613,-14.54846 11.99629,-34.43541 16.94392,-53.89102 9.47829,4.66804 12.99704,-124.43473 4.09597,-56.09804 -6.60828,19.34615 -15.04385,107.3287 -21.97057,83.34454 4.94533,-40.39788 27.60401,-114.25752 20.38998,-133.9354 -26.97015,27.54868 -35.7573,65.07112 -58.77932,99.4817 -31.33743,49.72191 -81.24011,99.48263 -143.99942,97.7708 -43.03133,-11.07828 -60.78678,-79.17207 -74.10777,-97.6696 13.90933,53.64863 50.89666,100.87981 51.96325,157.5954 -9.96925,29.6573 -41.67606,12.4143 -56.4428,18.1265 -33.0442,16.3665 -60.30135,-12.7551 -93.29668,4.6808 -50.43267,-34.4505 5.05258,-96.83407 8.89266,-142.5325 4.27014,-15.50494 -0.20162,-43.14539 0.7369,-32.3641 -15.23546,19.62409 -28.98438,100.1281 -53.29807,86.0315 -38.51302,37.068 -107.05253,15.05263 -140.02468,-19.4019 -36.63096,-24.74985 -52.65516,-66.33984 -79.34448,-99.2555 17.4926,49.29539 45.53508,97.63936 83.33193,134.10083 46.81798,37.41217 -41.93887,-9.84399 -41.42738,-35.54293 -12.29655,-18.08233 -53.67933,-94.60909 -28.13415,-36.99782 21.74489,44.30601 51.11768,109.11412 90.22892,124.18862 -49.80922,1.121 -63.67266,-66.84898 -87.9428,-101.07461 -9.35359,-23.05694 -23.77471,-44.95036 -8.30653,-8.39365 11.80836,34.58649 54.27147,82.77166 52.30316,108.21776 -20.19346,-20.6684 -38.95622,-75.43387 -49.69769,-77.88356 3.62338,15.30485 31.27429,70.44756 5.64212,41.81006 13.47218,17.8759 28.96419,94.4948 6.03438,36.7868 -23.19861,-51.6387 6.05274,14.8658 4.94047,31.5515 -10.86569,0 -27.8307,-70.4423 -16.95039,-19.0665 12.3895,17.0236 8.81129,38.5396 -0.13588,23.5929 -1.2388,36.8289 29.17899,73.7042 29.88377,102.4062 29.5612,30.3585 28.81018,62.7963 63.23469,82.2103 28.35831,6.6083 65.32672,20.8819 87.81823,46.3655 37.78328,25.8349 84.30636,38.9941 130.47938,34.518 z m -108.77259,-29.7488 c -24.29321,-49.9063 55.66346,-25.0485 0,0 z m 10.44077,-11.3527 c -3.68551,-29.9622 -4.87828,18.6087 0,0 z m 70.08673,-59.4326 c -39.00057,11.1762 -42.25057,-41.7057 -72.73871,-41.2739 -17.92881,-13.1171 61.00204,-7.2147 76.98771,-39.5939 25.16903,-14.0904 45.89645,17.6683 65.76401,-16.4758 40.68519,5.2739 77.17669,33.2112 122.48009,20.2591 36.71548,4.0504 -33.82196,9.0289 -35.40557,28.3333 -30.51682,40.0259 -84.77885,44.9291 -130.75772,48.6242 -8.27882,-3.2864 -17.61275,4.5208 -26.32981,0.127 z m 10.75014,-5.4687 c 42.99441,-1.8285 93.63494,-3.2165 128.85558,-30.6243 18.54627,-15.6141 57.55682,-47.885 6.28578,-32.6832 -51.89192,-8.5945 -88.10335,48.0205 -136.89641,25.9731 -31.07873,-9.4823 -78.21282,-8.2063 -39.97113,26.9183 12.06014,9.1258 28.43086,9.6895 41.72618,10.4161 z m 39.50378,-37.0116 c 18.1664,-13.3724 60.88903,-29.9409 70.49117,-30.4857 -28.21015,-21.9242 -62.24635,-19.9349 -85.51489,-0.5 -27.35293,-27.9785 -93.30902,38.1012 -22.8275,24.3243 13.24145,-0.5969 24.9839,9.1199 37.85122,6.6614 z m 102.48119,-71.2357 c 1.99567,-54.3911 42.47146,6.5674 0,0 z m 12.53169,-5.8488 c -3.07958,-27.5251 -13.64009,9.956 0,0 z m -159.2434,-23.6512 c -0.23348,-46.4915 18.55466,15.201 0.74606,8.5485 l -0.74609,-8.5485 z m 56.72169,2.7858 c -12.08094,-46.7993 19.91759,-16.4392 0.81291,4.9642 z m -253.34114,-29.8603 c -39.95431,-20.582 17.38195,-2.0636 0,0 z m 321.84114,262.9144 c 22.04123,0.094 40.64701,-37.843 11.90074,-7.3047 9.82123,-9.1316 -38.58448,17.1498 -11.90074,7.3047 z m 28.5,-14.5899 c 7.06119,-8.8902 -9.41089,9.0264 0,0 z m 57.51119,-43.5964 c 6.61444,-7.7043 -13.31257,10.8906 0,0 z m 17.7803,-14.6097 c 11.51212,-7.1608 -26.60585,11.2852 0,0 z m 24.10256,-13.4159 c -10.4052,5.0166 -11.62446,10.6781 0,0 z m -10.26649,4.372 c 3.73369,-4.5661 -6.73499,5.4332 0,0 z m -582.64845,-25.75 c 12.2502,-37.7004 23.18887,-76.489 22.27564,-116.5 -7.0182,43.3576 -22.98471,95.6896 -27.90129,133 l 2.44335,-6.2906 z m 609.54616,7.8122 c 23.23455,-13.6759 53.87991,-102.7627 42.97473,-93.1547 -16.93514,33.8196 -38.42684,89.7443 -54.86944,103.5311 -4.49777,4.5162 22.98799,-18.842 11.89471,-10.3764 z m 112.99109,-74.0622 c 26.91074,-38.4481 -9.89856,-84.0896 1.80398,-120.0353 -14.62546,-24.3521 -2.92797,-46.03615 6.04396,-6.7147 23.84878,-2.9209 48.12308,-84.25912 47.42746,-123.27193 3.88093,-37.58766 -5.52859,-38.69238 -14.03343,-2.22807 -13.80379,42.53763 -22.00585,97.87 -70.47166,115 -19.69024,-32.39223 -9.12628,53.3736 -20.85911,71.8035 7.52141,14.2895 34.31754,66.296 19.0534,15.6965 -15.8976,-22.5341 4.72139,-128.6875 0.32001,-52.7592 13.60752,34.7053 -10.21478,88.0982 28.37148,106.2396 z M 240.9121,1145.5411 c 3.35856,-25.1097 -12.00153,35.6781 0,0 z m 620.82453,-83.4935 c 3.89656,-24.7371 1.53028,-55.3199 0.1637,-11.7533 1.23669,-0.3453 -4.72461,27.3191 -0.1637,11.7533 z m -349.34224,-2.7036 c -19.36588,-34.9996 11.18144,-60.31953 22.37942,-18.3221 22.72084,29.8934 40.46533,21.8227 64.52827,-18.9229 15.18801,-20.2103 -1.18504,49.7515 26.67797,35.3282 21.97174,-41.978 -23.6494,-76.73739 -26.60194,-120.33233 -9.74849,-42.16328 -27.1877,-93.1803 -77.7241,-57.16237 -9.87577,37.84506 -15.87259,69.78919 -32.07003,112.14569 -12.41717,30.91141 -13.70668,70.97311 22.81041,67.26581 z m 71.77072,-1.1237 c 0.63211,-4.778 -6.35831,7.2108 0,0 z m -0.26374,-4.1727 c 3.24846,-4.9704 -5.68858,6.3135 0,0 z m -348.12756,-27.691 c -1.77695,-6.787 -3.09154,5.4059 0,0 z m 659.53707,-7.1436 c 45.66725,-32.5813 43.09005,-94.94653 65.04626,-141.96709 -13.67589,-39.40636 0.22321,-59.53836 5.2041,-96.82252 4.7784,-54.54979 23.41344,-106.99229 2.40606,-161.07999 6.26715,-52.61219 -51.30102,-78.71876 -48.58005,-128.79192 -10.52763,-28.66651 -24.63391,-42.39449 -44.00732,-62.18555 -14.09364,-32.95168 -65.36974,-45.11751 -82.50186,-78.65528 -45.33319,-11.7962 -86.36484,-54.18619 -142.75352,-49.76867 -53.40707,5.56171 -107.26193,-16.58943 -158.68778,-1.77445 -33.53805,11.95935 -68.18824,17.17863 -102.47711,34.1799 -50.59362,7.2028 -113.64185,66.16927 -80.00754,106.83006 30.47798,-42.96069 92.39637,-38.61662 137.21089,-60.01268 28.31903,-11.74943 113.62538,-35.87251 108.28153,-31.49123 -56.64585,2.28463 -116.48306,-8.59267 -170.76398,10.75569 -21.58168,13.4222 -87.21749,54.33416 -28.40675,14.78985 55.84692,-47.98737 132.9887,-27.20615 199.74061,-31.51788 49.06702,6.8137 98.79936,-26.39322 141.9996,10.7507 56.81649,16.13997 106.16968,38.84491 149.36657,78.49819 49.21199,56.58356 58.50287,134.05944 79.08148,203.45733 26.09353,52.61984 20.29863,114.55023 19.20028,171.54924 -5.5703,54.61953 -17.36249,112.4814 -37.37657,161.6862 8.13497,-52.93916 28.80019,-103.7856 30.90783,-158.06695 2.17565,-61.6843 4.55805,-126.92156 -23.47209,-183.59617 -12.09514,-51.72393 -24.27498,-104.91377 -48.25704,-152.4509 -3.30047,-22.38146 -77.42273,-82.64888 -30.69067,-31.7094 22.51612,15.99036 25.64936,50.47652 2.22127,14.75569 -33.97545,-52.86308 -89.82901,-82.45325 -149.98424,-95.70271 -56.21405,-18.42186 -113.90911,-10.91399 -170.88605,-1.19238 -49.68908,17.70042 -101.19402,31.20226 -150.27808,50.94846 -65.38041,-3.86126 -66.63556,71.00161 -42.91449,112.62263 39.2262,-35.70815 85.43759,-81.701 144.11182,-83.05773 58.9005,-2.36201 109.51521,-39.45214 167.31472,-39.46269 54.38972,-2.43665 110.39347,0.80047 149.44687,45.06529 36.06572,45.32494 102.16711,61.32655 110.14738,127.44307 9.6278,44.09559 8.75362,96.20714 25.79097,134.09029 -23.41741,-16.74435 11.10623,60.8071 -3.32596,81.86438 -7.3845,33.15871 0.29992,109.49625 -12.64421,64.88272 -2.5184,32.57728 -15.08828,121.89925 -19.89074,117.36899 -0.81404,-34.98075 -5.97671,-53.33527 -0.70463,-98.13923 1.78255,-26.45318 0.10805,-98.34167 -0.51637,-33.45618 -2.74019,57.1224 -22.03208,114.68134 -0.7658,170.83672 2.09223,5.1245 4.06692,14.5101 12.41461,8.5262 z m -25.43663,-33.0163 c -7.38165,-66.38095 -3.84362,23.2019 0,0 z m -444.63134,4.0487 c 31.81262,-19.19153 61.83069,-67.7495 42.93938,-95.98651 -33.25903,-11.4751 -65.14969,-22.30014 -99.98048,-25.07022 -34.51421,-1.59218 -133.23312,-26.0348 -86.96375,36.60893 27.85812,30.14014 45.83855,77.88516 96.53575,79.4511 15.41584,2.7822 31.88275,8.36609 47.4691,4.9967 z M 366.49114,933.823 c -29.34511,-6.08262 -55.69591,-26.51872 -10.69393,-38.3084 30.84136,-38.89016 104.43174,22.45599 36.68676,34.4355 -7.96725,3.83773 -17.18313,6.10993 -25.99283,3.8729 z m 24.63194,-9.722 c 31.36848,-12.99747 -7.46436,-54.31841 -1.49561,-12.06127 -45.16313,34.58861 6.05702,-26.80813 -10.42509,-16.24213 -35.87765,-8.28252 -11.43015,46.56017 11.9207,28.3034 z m 11.64156,-2.3034 c 34.71736,-28.06341 -17.69262,4.36649 0,0 z m -47.57689,-2.75 c 14.03274,-33.86541 -0.99428,-22.70699 -17.17065,-7.25 3.58692,-2.11112 20.78108,16.10614 17.17065,7.25 z m 28.3867,-4.6757 c 15.43012,-33.46584 -19.77193,9.0372 0,0 z m 2.44936,-25.2366 c -5.50682,-1.6231 -0.99942,1.75027 0,0 z m 77.78986,81.4123 c 27.46654,-29.61823 -22.61532,8.73555 0,0 z m 237.46014,4.345 c 69.95523,-19.05005 108.41105,-88.73201 135.55057,-150.2533 -33.58187,-9.66698 -114.39445,20.70079 -164.9182,24.40884 -36.61182,8.35292 -68.93056,22.24731 -39.47022,59.82187 1.65665,39.33847 28.32064,80.96507 68.83785,66.02259 z m -13.5,-70.771 c -28.76775,-0.78562 -58.41047,-15.27143 -18.34638,-34.00444 18.44735,-26.78085 133.89461,-29.50917 71.66342,10.06877 -15.3849,11.00232 -33.46695,25.21671 -53.31704,23.93567 z m 17.4646,-7.9488 c 28.53936,-32.89314 -39.91958,13.83168 -16.25715,-21.75295 22.91627,-15.73485 -13.52433,22.99857 16.15613,6.61645 -15.53778,-52.55711 -55.42385,25.58292 0.10102,15.1365 z m 10.67714,-2.7899 c 24.14884,-9.24658 60.93037,-44.07685 9.22891,-35.39113 -29.4702,1.95379 -29.7586,-4.40179 -9.61616,11.05583 11.16854,3.87219 -10.97993,31.27801 0.38725,24.3353 z m -44.77601,-3.798 c 0.2704,-26.15155 1.23998,-19.90698 -17.33938,-1.5477 1.61256,1.79961 27.79209,11.66147 17.33938,1.5477 z m -201.02561,60.93 c 0.4239,-5.96905 -6.21484,10.81793 0,0 z m 422.25945,-42.2173 c 11.44506,-52.93375 4.02557,-107.47456 7.50623,-161 -16.41057,15.48969 -4.99834,41.84054 -8.6004,62.33027 1.41317,29.27595 -3.70724,110.26343 -1.61533,110.98671 l 1.20694,-5.43865 z M 483.7585,890.5124 c -7.95315,-0.1356 -0.6104,5.88032 0,0 z m -0.5382,-4.2148 c -16.4566,-28.51906 -77.47786,-44.39669 -117.00866,-50.3926 -32.7283,-7.42967 -102.04191,-31.42796 -98.72497,14.8931 3.28096,18.49293 79.79369,0.11886 118.29114,12.65884 31.20783,5.24641 69.68539,24.49195 97.44249,22.84066 z m 22.56872,-1.3282 c -6.01347,1.53275 -2.65805,4.04017 0,0 z M 259.30303,873.1017 c -6.45247,-11.24266 0.92109,15.50172 0,0 z m 329.71379,5.1196 c -3.60208,-14.28562 -8.57632,-1.25174 0,0 z m -90.47888,-6.1159 c 13.25564,-28.03727 65.94665,-20.91414 88.28877,-34.3318 8.97456,33.54439 46.25828,-4.84129 72.93401,-13.6387 40.38411,-9.74969 74.6416,-27.51996 120.01309,-39.8373 11.38357,-2.27328 87.67082,-22.35841 95.52106,-63.80768 7.28289,-33.89225 -12.97622,-49.75327 -35.40435,-80.25572 -28.59821,-32.54119 -71.87217,-36.64692 -107.61671,-57.93659 -46.2287,-2.83337 -93.36902,2.559 -137.79879,-11.49885 -54.78836,7.5666 -110.75856,9.24385 -165.37913,0.32711 -40.3622,-2.55056 -106.56384,-1.81262 -110.25733,51.1185 -23.14692,52.14856 -74.98901,84.57879 -99.06475,136.3759 18.27517,39.13998 44.23198,76.98315 85.16401,49.9128 -10.09857,8.50607 57.35642,18.03717 50.84956,12.2645 42.4572,6.86168 85.51737,19.94986 122.48643,43.5436 8.01245,0.6589 12.63409,21.39102 20.26413,7.76423 z m -31.66,-34.0568 c -32.34212,-35.82907 -83.54619,-49.71697 -131.10413,-47.2716 -22.04423,-8.95134 -91.01601,36.14953 -42.15531,-1.22208 36.60924,-39.31166 97.22191,-32.12358 145.39495,-24.98662 33.4769,9.30319 80.28997,21.98922 45.13466,64.10934 -3.45321,4.62619 -10.62942,24.63229 -17.27017,9.37096 z m 11.41102,-6.9415 c 35.82648,-57.1563 -55.23543,-63.22531 -92.46176,-66.12688 -25.50929,-4.85451 -91.71805,11.34136 -82.27203,25.29258 59.54173,-14.68033 130.08794,-2.00827 172.26207,44.70628 z m 126.09363,1.4814 c -26.36775,-61.29959 41.93115,-86.16406 88.39122,-99.2935 44.6049,-12.47649 103.7495,-26.12828 140.17021,9.68561 -2.92457,25.24571 -12.59875,27.15715 -18.27376,11.51809 -69.90748,3.94793 -141.73031,24.48371 -199.63074,64.86004 -1.66871,0.55431 -5.59454,20.23275 -10.65693,13.22976 z m 12.08303,-17.8859 c 56.86506,-38.88546 125.18128,-58.9204 193.15121,-66.5382 47.04006,2.53303 -52.29785,-38.84707 -72.56905,-20.26307 -43.52631,13.3976 -127.60697,15.99619 -129.13945,72.75447 1.67914,3.98115 -2.11981,30.2489 8.55729,14.0468 z m -268.44181,3.4057 c 7.74545,-1.55614 1.48709,1.6084 0,0 z m 195.75,49.6893 c 2.84407,-3.42377 -11.85299,3.67223 0,0 z m -23.5,-2.6248 c 5.17607,-6.48931 -12.01749,9.50217 0,0 z m 102.40203,-3.3153 c 49.53904,-26.24233 107.23646,-25.45045 160.62834,-39.45974 45.35117,7.16864 60.56715,-27.1222 33.24632,-38.88773 -57.33762,2.5394 -108.21317,32.37303 -161.31448,50.78757 -9.60122,-0.71758 -70.01014,45.87321 -32.56018,27.5599 z m -69.58629,3.7088 c 34.03125,-3.48831 -11.53279,-3.57858 -5,1.2094 z m 77.3741,-4.4122 c -17.35024,6.157 -1.82875,3.72065 0,0 z m 338.71619,-41.3565 c -5.31645,-17.82551 -2.10222,79.39477 -0.97807,19.14961 l 0.3496,-7.44648 z m -714.69734,38.25 c 18.61239,-37.20633 -41.57671,-39.21179 -5.28257,-0.74639 l 3.27989,4.49639 z m -26.70869,-6.5163 c -4.15511,-18.7229 -9.92672,-11.58994 0,0 z m 15.25,-29.9432 c 1.34928,-8.09418 -39.95731,-59.12037 -16.76303,-17.0466 4.0587,6.20864 4.76925,24.55605 16.76303,17.0466 z m 667.27981,-24.2905 c 3.5688,-32.4197 4.67369,-119.16423 -25.35532,-113.7645 23.9418,35.78585 17.9519,106.59475 23.34628,127.26974 l 0.92749,-6.10466 z m -703.99986,7.75 c -5.55168,-23.19079 1.52693,20.62516 0,0 z m 644.55621,-8.5 c 37.76526,-42.95023 -22.46502,19.13387 0,0 z m -4.57644,-1.7621 C 858.85729,779.04638 898.04402,757 857.2779,775.635 c 19.82265,-17.54306 52.23893,-70.54919 8.74742,-28.761 -15.40338,8.18519 -63.06169,58.2128 -19.74179,47.9115 z m 14.78727,-2.4879 c 7.19284,-10.73473 -16.9423,19.26974 0,0 z m 4.83057,-8.25 c 3.73369,-4.56602 -6.73504,5.43343 0,0 z m -648.12756,-3.5589 c -3.25693,-10.33113 -2.44881,2.46635 0,0 z m 608.49292,-6.6796 c -2.53072,-1.82878 -3.98131,3.22125 0,0 z m 7.63464,-0.7615 c 3.73369,-4.56602 -6.73504,5.43343 0,0 z m 0,-3 c 3.73369,-4.56602 -6.73504,5.43343 0,0 z m 37.09455,-2.3633 c 34.24157,-13.88261 31.14662,-54.71551 4.55361,-10.15568 1.02147,0.11332 -18.93144,18.35409 -4.55361,10.15568 z M 221.74254,748.3402 c 27.18196,-52.83067 88.59227,-85.14634 97.57411,-147.54259 -14.03149,18.42562 -62.97848,67.19636 -22.20952,22.06655 33.74176,-47.45103 -48.79374,52.05369 -53.14407,74.72504 -3.45033,10.34106 -55.04115,67.11138 -22.22052,50.751 z m 5.72369,-27.5426 c 23.78921,-44.00923 46.80924,-89.26663 86.08639,-121.46947 34.67879,-52.13874 -24.88248,18.98605 -42.63163,34.74637 -11.77574,30.32845 -58.33147,67.87746 -50.05518,91.51862 z m 661.10634,1.9351 c 6.63641,-25.78533 -15.88406,-1.9847 0,0 z m 12.20124,-49.9264 C 896.16272,615.86295 892.40792,552.74581 851.26616,508.89359 796.51919,485.13278 767.59458,424.02974 708.25617,408.1705 c -52.10432,2.5601 -108.34118,-12.78488 -155.05147,17.80644 -52.07941,20.23397 -113.64428,11.83901 -160.66526,43.80551 -23.23696,22.12015 -82.24435,41.55057 -60.01376,80.03961 36.55673,-1.29301 84.35425,-33.77055 127.64806,-40.08321 74.79193,-17.98373 152.64315,-6.76478 228.8378,-8.94471 57.96016,-1.64192 107.37835,37.36434 146.52103,75.94568 30.12,32.23067 -30.57023,-46.87607 -48.28688,-51.25371 C 747.0009,478.44566 675.80117,474.97476 621.91151,496.40938 652.3973,465.63857 739.01904,484.72333 744.7632,482.0971 692.77192,449.86388 626.96564,459.13016 568.77381,463.86061 c -69.73354,10.82052 -140.07385,31.19369 -200.02953,68.60367 -13.42744,1.58205 44.44584,-30.2439 64.26391,-35.88049 80.37128,-34.46694 169.52134,-48.11585 256.34229,-41.43742 49.74701,1.43034 83.30013,38.94191 113.93837,72.77951 30.43783,18.0367 51.2633,60.90602 65.8847,82.20552 1.75633,-52.33566 20.63088,27.43245 14.85489,51.25847 -5.6166,7.92659 18.02799,20.03193 16.74537,11.41643 z m -28,-23.8497 c 5.42891,-29.54723 -13.47719,-44.07674 -6.317,-5.7459 -3.76726,12.94839 10.32512,30.06676 6.317,5.7459 z M 859.46577,638.7822 C 847.40967,583.11997 794.67692,546.64312 747.37372,521.33547 694.78501,495.34755 633.97101,510.27512 577.48177,506.32275 c -43.99546,0.67064 -88.63155,-4.44993 -130.82358,11.44436 -27.35947,17.89791 -109.7368,14.9062 -100.05956,54.74159 -34.7432,21.36152 61.42254,-21.64043 79.17518,-7.69347 53.58515,7.3589 107.95001,8.63012 161.54103,1.33058 48.7953,7.92751 99.11214,8.82383 149.47418,11.10587 33.75129,18.49322 76.5093,22.26581 102.98479,53.42342 7.79157,-2.39699 23.90074,35.07098 19.69196,8.1071 z M 293.96579,608.38542 c -19.0396,13.0995 -19.96443,24.23087 0,0 z m 45.73773,-37.4059 c 3.50999,-15.63972 -11.97914,15.36578 0,0 z m -8.92971,-2.29994 c -3.4706,-1.72386 -1.65009,4.66873 0,0 z M 304.7585,448.98859 c -4.27505,-2.55131 -0.73831,8.79651 0,0 z M 663.95351,344.87453 c -29.82774,-15.07384 -62.65778,0.39155 -11.69079,1.76093 1.58631,0.46796 31.17405,7.30148 11.69079,-1.76093 z M 410.77381,1538.6084 c -27.98629,4.4459 -45.9397,-39.8672 -14.36659,-11.2587 12.19481,2.782 47.85698,10.9892 14.36659,11.2587 z m 14.90864,-9.7932 c -35.93409,-2.6801 -32.9902,-66.3361 -12.12732,-14.8289 8.14576,7.5954 42.47691,13.8448 12.12732,14.8289 z m 12.43511,-7.059 c -28.70899,0.58 -48.38778,-64.0243 -16.92493,-20.3425 2.48923,11.5755 50.57634,18.1326 16.92493,20.3425 z"
       style="fill:#000000"
       id="path22" />
    <path
       id="path34"
       d="m 521.29281,1345.6731 c -37.48932,-2.2883 -82.26812,-19.5272 -104.32675,-40.1636 -8.17801,-7.6508 -19.43252,-15.7733 -29.59587,-21.3598 -11.76407,-6.4664 -32.7084,-14.4989 -47.59176,-18.2523 -6.82326,-1.7208 -13.81891,-6.1216 -20.77714,-13.0704 -7.08771,-7.0782 -12.09565,-14.4351 -21.063,-30.9428 -8.79537,-16.1911 -15.28812,-26.2869 -21.89295,-34.0422 -3.98461,-4.6786 -4.61955,-6.0099 -5.57274,-11.6845 -1.47719,-8.7941 -4.29362,-16.8689 -13.20627,-37.8626 -10.93667,-25.7612 -14.1038,-36.1261 -15.90993,-52.0675 l -0.50199,-4.4307 2.08517,1.959 c 4.27831,4.0192 6.24273,1.9526 6.14222,-6.4617 -0.0623,-5.2176 -1.76613,-10.6783 -5.21094,-16.7008 -2.10187,-3.6747 -4.74383,-12.7187 -4.73938,-16.2239 9.4e-4,-0.7415 1.35646,2.1115 3.01228,6.34 3.71529,9.4879 8.10004,18.3366 10.99924,22.1972 2.61051,3.4762 5.95882,4.0417 5.32175,0.8988 -0.22546,-1.1122 -0.63513,-3.6957 -0.91038,-5.7411 -0.27525,-2.0453 -1.93808,-8.6657 -3.69518,-14.7121 -1.7571,-6.0463 -3.02587,-11.1622 -2.81949,-11.3686 0.20639,-0.2063 1.30447,1.965 2.44018,4.8252 4.4591,11.2301 8.95802,19.1321 10.89271,19.1321 3.12092,0 -3.10253,-28.0962 -9.9438,-44.892 -2.66668,-6.5469 -2.9195,-8.638 -0.78648,-6.505 0.58498,0.585 1.84797,1.0636 2.80665,1.0636 1.5586,0 1.68787,-0.4659 1.22161,-4.4027 -0.28679,-2.4215 -3.78108,-12.94085 -7.76508,-23.37627 -3.984,-10.43542 -7.24363,-19.42424 -7.24363,-19.97516 0,-1.82323 2.88962,1.28756 6.78816,7.30772 2.08083,3.21324 8.13721,14.13378 13.45862,24.26786 9.6607,18.39785 15.77312,29.04895 20.15818,35.12625 3.2529,4.5083 7.02131,8.9154 7.62332,8.9154 1.0376,0 0.45954,-7.9265 -0.92216,-12.6449 -2.47627,-8.4561 -9.60783,-22.0859 -24.42779,-46.68592 -7.89511,-13.10533 -16.22473,-27.5512 -18.51025,-32.10196 -5.02419,-10.00376 -13.35745,-30.65089 -12.91117,-31.98973 0.41793,-1.25379 5.42436,7.52846 9.5767,16.79938 1.79942,4.01758 4.45802,9.12478 5.908,11.34933 1.44998,2.22456 8.54399,15.60987 15.76447,29.74514 7.22048,14.13528 15.7547,29.70716 18.96494,34.60416 13.51207,20.6118 27.35056,30.5365 45.11657,32.3567 3.29438,0.3375 5.98979,0.3624 5.98979,0.055 0,-0.3071 -2.12344,-1.6247 -4.71875,-2.928 -10.77038,-5.4084 -23.71348,-16.9938 -34.06824,-30.4945 -6.10389,-7.9584 -16.72053,-24.51383 -23.61435,-36.82391 -11.58958,-20.69517 -34.67009,-68.41517 -34.67009,-71.682 0,-1.68153 3.49033,3.80088 19.22985,30.20521 7.99942,13.41967 15.06997,26.18262 15.71232,28.36212 3.17712,10.77984 17.38478,25.00659 37.94746,37.99842 18.54757,11.71866 23.18933,9.72466 7.86725,-3.37957 -24.77815,-21.19158 -53.61235,-61.15367 -71.54589,-99.15735 -5.40075,-11.44493 -13.70504,-31.25758 -13.70504,-32.69791 0,-1.61024 5.93415,6.78835 21.24712,30.07099 22.42634,34.09819 32.12367,46.18164 45.74312,56.99868 4.29623,3.41221 10.90084,8.97214 14.67692,12.3554 16.98862,15.22132 39.25888,26.37951 62.42243,31.27584 12.70175,2.68489 31.29567,2.66861 41.45441,-0.0363 9.49959,-2.52941 18.61251,-6.80673 25.39598,-11.9201 5.02016,-3.78418 5.91602,-4.14515 9.19584,-3.70523 4.92647,0.66078 8.36251,-0.95118 12.98375,-6.09112 6.41855,-7.13897 11.08795,-17.17386 22.55901,-48.481 5.84638,-15.95614 12.98726,-31.61276 14.10366,-30.92279 1.41294,0.87324 0.78498,20.36886 -0.9877,30.6643 -2.48594,14.4379 -4.6475,21.52421 -13.51296,44.30016 -13.39827,34.42096 -16.19824,44.66056 -16.19824,59.23736 0,14.789 5.43032,26.4595 16.55242,35.5732 l 3.90294,3.1982 8.42261,-2.8261 c 8.03962,-2.6975 8.89264,-2.8036 18.75893,-2.3329 5.71604,0.2727 15.55922,1.5698 22.02083,2.902 8.44294,1.7406 14.55208,2.4293 22.02084,2.4825 9.38356,0.067 10.95766,-0.1685 17.07738,-2.5529 6.67564,-2.6009 6.92428,-2.6267 25.61607,-2.6548 17.86911,-0.027 19.12682,-0.1415 23.60029,-2.1499 5.35987,-2.4064 9.56455,-6.7358 12.09285,-12.4514 1.58067,-3.5734 1.64504,-4.7289 0.75361,-13.5278 -2.47895,-24.4685 -8.56654,-43.43715 -27.89456,-86.91829 -13.01362,-29.27601 -22.52617,-53.73633 -21.35383,-54.90868 0.22873,-0.22874 4.35491,7.98751 9.16927,18.2583 20.31696,43.34352 32.92643,60.23002 52.61749,70.46492 5.74906,2.98821 6.02149,3.03583 17.07738,2.98521 17.37278,-0.0795 31.63472,-3.66103 49.88393,-12.52695 29.88329,-14.51805 56.52112,-39.48624 81.64666,-76.52911 11.45583,-16.88947 16.80838,-26.39589 30.29364,-53.80321 7.10403,-14.43816 14.2503,-27.491 18.69932,-34.15477 7.90693,-11.84304 13.97562,-19.22654 14.98978,-18.2374 1.28812,1.25635 0.46382,19.70203 -1.4051,31.44198 -1.04734,6.57915 -4.7309,25.30941 -8.18566,41.62281 -5.81887,27.47664 -9.91427,48.56272 -10.9106,56.17559 -0.50202,3.83591 0.64053,7.19048 2.44904,7.19048 3.4498,0 5.76256,-9.30252 13.07237,-52.58036 2.00392,-11.86429 4.42194,-24.80714 5.37335,-28.7619 0.95142,-3.95477 2.21882,-10.4262 2.81646,-14.38096 2.0653,-13.66683 2.6406,-10.9789 2.21229,10.33631 -0.56248,27.99291 -3.28497,48.6233 -6.89263,52.23097 -1.20883,1.20882 -2.51312,5.84375 -4.46283,15.85905 -4.17717,21.45748 -6.91456,29.77313 -12.06501,36.65126 l -2.04158,2.7264 1.62834,7.60991 c 4.28626,20.03159 5.95638,46.49584 4.50756,71.42534 -1.21869,20.9697 -2.70101,34.7337 -7.34492,68.2014 -2.86294,20.6326 -4.12251,27.2702 -6.14021,32.3572 -1.39613,3.5199 -5.85923,15.9047 -9.918,27.5218 -9.66586,27.6658 -12.54375,34.9643 -19.31542,48.9851 -7.70887,15.9612 -15.33863,27.093 -25.59409,37.3415 -9.26207,9.2558 -15.61729,13.8038 -28.52618,20.4141 -13.5013,6.9138 -12.6,4.8187 6.72962,-15.6427 14.77401,-15.639 22.79382,-24.7406 22.26555,-25.2688 -0.19399,-0.194 -2.10835,1.5529 -4.25413,3.882 -5.66778,6.152 -22.38804,20.8575 -47.49369,41.7708 -27.43043,22.8499 -34.72826,29.3148 -47.18002,41.7954 -5.44191,5.4545 -12.92787,11.9259 -16.63546,14.3809 -19.58452,12.9682 -43.03485,20.9553 -69.65774,23.7253 -7.70213,0.8013 -68.38237,1.0015 -80.44345,0.2654 z m -61.60554,-39.8035 c 3.54516,-3.7901 4.07911,-4.871 4.06174,-8.2222 -0.0333,-6.4191 -5.16548,-10.5995 -13.01275,-10.5995 -12.23087,0 -15.46168,10.1715 -8.6522,27.2396 l 1.0063,2.5223 6.25759,-3.2883 c 3.48478,-1.8312 8.06627,-5.2219 10.33932,-7.6519 z m 71.49244,-59.7921 c 5.19063,-0.2185 13.27992,-0.5274 17.9762,-0.6864 16.58388,-0.5617 45.04632,-4.068 59.83602,-7.3712 22.32852,-4.987 40.46087,-12.7575 54.56444,-23.3833 7.69236,-5.7955 18.62334,-17.2719 18.62334,-19.5526 0,-2.3305 7.83628,-8.7112 14.38096,-11.7097 3.70759,-1.6987 11.36986,-4.5761 17.02726,-6.3943 11.92182,-3.8314 13.53226,-4.5834 13.53226,-6.3188 0,-2.7111 -9.12144,-3.1329 -20.67262,-0.9559 -6.57207,1.2386 -10.91934,1.4859 -18.875,1.0736 -13.27353,-0.6878 -24.25209,-3.2518 -49.88393,-11.6502 -21.93023,-7.1855 -32.15755,-10.0207 -39.68493,-11.0013 -4.17644,-0.5441 -4.73551,-0.4088 -5.69174,1.378 -1.73884,3.249 -7.31467,9.0127 -8.71897,9.0127 -0.71836,0 -4.34688,1.2659 -8.06337,2.8131 l -6.75727,2.813 -10.16729,-1.9142 c -5.59201,-1.0528 -12.58829,-1.9142 -15.54728,-1.9142 -7.27436,0 -14.25962,2.3354 -16.04984,5.366 -0.77087,1.305 -3.26675,3.3616 -5.54638,4.5703 -2.27963,1.2087 -6.43959,4.3217 -9.24435,6.9179 -7.25564,6.716 -14.2082,9.0579 -51.20873,17.2489 -9.24367,2.0463 -12.51925,3.6905 -12.51925,6.2842 0,2.2695 1.59712,3.3097 6.14945,4.0048 8.36541,1.2775 14.78839,6.2571 26.21249,20.3221 14.59562,17.9698 22.80363,23.0381 35.49818,21.9198 2.96607,-0.2613 9.63973,-0.6538 14.83035,-0.8723 z M 690.28534,1130.993 c 7.9613,-3.1854 8.46005,-14.0471 0.93572,-20.3784 -7.17932,-6.041 -12.71589,-0.1307 -14.37669,15.3473 -0.33303,3.1037 -0.41481,5.8339 -0.18171,6.067 1.00562,1.0056 10.28377,0.3001 13.62268,-1.0359 z m -154.28455,-20.3605 c 3.59125,-2.626 3.57018,-15.5913 -0.0371,-22.8652 -3.78863,-7.6395 -6.01142,-3.6176 -6.06847,10.98 -0.0232,5.9321 0.28023,11.2913 0.67425,11.9092 0.92318,1.4478 3.4337,1.4367 5.43138,-0.024 z m 55.01824,-4.7305 c 4.70303,-8.0251 3.62431,-21.6161 -2.00861,-25.3069 -1.94888,-1.277 -2.37005,-1.2919 -3.53679,-0.1251 -2.39971,2.3997 -2.49845,7.6504 -0.35332,18.7891 1.13581,5.8978 2.38964,10.7233 2.78628,10.7233 0.39663,0 1.79724,-1.8362 3.11244,-4.0804 z m -253.98217,-32.8193 c 0,-1.1168 -1.82157,-2.5332 -5.73656,-4.4605 -6.55929,-3.2292 -13.48289,-4.6249 -12.68982,-2.5582 0.55576,1.4483 2.37358,2.6936 9.76673,6.6908 5.51254,2.9804 8.65965,3.0996 8.65965,0.3279 z"
       style="fill:#ffd5d5;stroke-width:0.89881" />
    <path
       id="path36"
       d="m 486.76676,870.5002 c -2.79667,-3.18545 -5.95725,-6.06862 -7.0235,-6.40703 -1.06625,-0.33842 -4.50116,-2.18374 -7.63315,-4.10073 -26.43739,-16.18147 -63.71577,-29.64643 -103.0445,-37.21969 -10.41567,-2.00567 -12.80773,-2.21492 -14.5656,-1.27413 -4.1921,2.24354 -36.5482,-3.21425 -45.78898,-7.72363 -2.67523,-1.30548 -3.56318,-2.26608 -3.50789,-3.79492 0.0407,-1.12585 -0.16153,-1.93188 -0.44941,-1.79117 -0.28788,0.14071 -2.97135,1.5329 -5.96327,3.09374 -13.04294,6.80435 -24.6269,7.48844 -35.86237,2.11784 -12.27604,-5.868 -25.27085,-21.27824 -37.33966,-44.28022 l -5.53525,-10.54967 3.8141,-6.97712 c 9.03706,-16.53141 20.35583,-31.44745 44.94029,-59.22286 34.58525,-39.07429 48.12965,-59.13365 51.5082,-76.28402 4.31707,-21.91452 19.50935,-35.21632 47.28061,-41.39714 11.51042,-2.56178 26.51102,-4.00445 40.89583,-3.93312 11.24397,0.0558 15.02135,0.37484 40.7509,3.44238 39.31934,4.68775 81.09342,4.39208 128.51317,-0.9096 l 16.46644,-1.841 9.14963,2.2867 c 22.57807,5.64278 34.35362,6.71254 85.44605,7.76245 l 42.14166,0.86598 10.4387,5.30698 c 5.74128,2.91884 20.34807,9.23124 32.45953,14.02756 31.72184,12.56233 46.07921,20.38007 58.82998,32.03356 7.37797,6.74305 32.08704,39.24826 36.89743,48.5392 5.35117,10.33545 7.05897,17.80565 6.46376,28.27356 -0.58703,10.32398 -3.52935,19.03189 -9.04007,26.75448 -13.04062,18.27478 -43.34934,34.85391 -83.05655,45.43267 -18.20545,4.85027 -31.83604,9.33518 -61.7761,20.32637 -30.01797,11.01977 -40.25118,14.48111 -55.56504,18.79463 -12.49738,3.52019 -16.38736,5.27227 -32.07633,14.44742 -21.22976,12.41549 -30.04102,15.75858 -36.76338,13.94844 -4.05324,-1.09142 -8.65274,-5.96961 -9.57114,-10.15109 -0.64078,-2.91746 -0.16,-2.94952 -9.68527,0.64586 -3.37881,1.27537 -11.87256,3.34549 -18.875,4.60027 -22.81358,4.08803 -31.09273,5.86725 -37.59904,8.08019 -11.41125,3.88122 -17.87313,8.522 -22.93991,16.47494 -5.21001,8.17775 -5.6642,8.19992 -12.33487,0.60192 z m -10.37719,-28.85206 c 1.18152,-1.25767 3.57769,-4.67595 5.32484,-7.59617 1.74714,-2.92024 5.09603,-8.05931 7.44198,-11.42019 13.43079,-19.2413 9.41547,-34.48321 -11.90525,-45.19156 -14.37399,-7.21935 -33.30009,-12.74702 -52.13095,-15.2257 -39.71831,-5.22805 -65.80658,-4.72518 -89.78328,1.73064 -9.44502,2.54311 -25.48066,10.7133 -32.17948,16.39551 -3.06181,2.59716 -8.50302,7.14889 -12.09156,10.11496 -10.03648,8.29553 -15.64563,13.73359 -14.91712,14.4621 0.36379,0.36378 7.43766,-1.87733 15.71971,-4.98023 8.28205,-3.10292 18.82149,-6.59923 23.42095,-7.76959 8.16836,-2.07847 8.84716,-2.10871 29.21131,-1.30144 11.46676,0.45456 25.28396,1.48769 30.70489,2.29584 34.44921,5.13565 64.5201,18.98424 84.88059,39.09015 3.75575,3.70878 7.55533,7.85454 8.44351,9.2128 2.04394,3.12568 5.02997,3.19516 7.85986,0.18288 z m 133.36501,-9.62257 c 0.72527,-1.11227 2.1702,-4.24687 3.21096,-6.96577 1.75022,-4.57232 2.47938,-5.32684 9.71245,-10.05017 50.34171,-32.87409 112.16405,-53.2314 179.7264,-59.1816 11.25412,-0.99115 12.79913,-0.82295 12.79913,1.39342 0,2.28826 5.44026,7.61811 7.77591,7.61811 4.37648,0 8.42734,-7.4179 9.84974,-18.03677 0.53973,-4.0293 0.4691,-4.17642 -3.81912,-7.95493 -9.91371,-8.73534 -23.73808,-14.85982 -39.872,-17.66411 -11.73814,-2.04024 -37.30445,-1.36254 -52.9929,1.40472 -21.42238,3.77865 -53.02354,12.34551 -73.28984,19.86838 -46.72191,17.34321 -68.01358,40.83872 -64.21715,70.86408 0.85935,6.79645 3.89942,17.48663 5.57482,19.60345 1.39224,1.75906 4.09426,1.32082 5.5416,-0.89881 z M 352.31662,817.86932 c 0,-1.13646 -1.83669,-1.13646 -3.59524,0 -1.05059,0.67895 -0.80258,0.87432 1.12351,0.88505 1.35945,0.008 2.47173,-0.3907 2.47173,-0.88505 z"
       style="fill:#ffd5d5;stroke-width:0.89881" />
    <path
       id="path38"
       d="m 678.38716,976.9618 c -22.33417,-3.92323 -40.53527,-28.64256 -44.81912,-60.86986 -0.79679,-5.99416 -1.6413,-8.75692 -3.51149,-11.4875 -10.67828,-15.5909 -11.26697,-27.02582 -1.87484,-36.41795 8.4053,-8.4053 29.954,-16.68123 50.31019,-19.32199 16.84686,-2.18551 29.08538,-4.56294 65.25627,-12.67655 48.15933,-10.80278 56.88445,-12.23733 75.22863,-12.3688 10.29503,-0.0738 15.3355,0.219 16.04997,0.93229 0.78927,0.78796 -1.36812,5.97254 -8.90619,21.40318 -12.13369,24.83798 -16.63512,32.86828 -28.4818,50.80994 -23.6924,35.8819 -51.80128,60.75886 -81.75371,72.3538 -17.70036,6.85202 -28.94963,9.14503 -37.49791,7.64344 z m 27.00313,-75.11503 c 8.50576,-2.84562 16.05901,-7.13653 31.1674,-17.70582 18.60386,-13.01458 22.91964,-17.36352 22.91964,-23.09568 0,-7.56458 -8.62555,-10.89357 -28.26468,-10.90862 -24.86767,-0.0191 -48.94233,6.65201 -59.13981,16.38758 -2.10357,2.00829 -5.44253,4.47169 -7.41991,5.47422 -18.96687,9.61622 -19.91476,21.42829 -2.24702,28.00114 7.27408,2.70614 15.55344,4.0113 25.907,4.08399 8.65969,0.0608 11.20698,-0.27285 17.07738,-2.23681 z"
       style="fill:#ffd5d5;stroke-width:0.89881" />
    <path
       id="path40"
       d="m 394.56067,988.14928 c -5.68497,-1.18101 -14.78542,-2.76851 -20.22322,-3.52778 -5.43779,-0.75928 -12.0849,-2.01808 -14.77134,-2.79735 -12.80258,-3.71371 -27.47966,-13.72849 -38.29706,-26.13167 -3.22848,-3.70175 -11.85385,-14.6886 -19.1675,-24.4152 -7.31365,-9.72661 -15.2869,-19.96804 -17.71832,-22.75873 -8.86269,-10.17223 -15.2693,-23.46477 -14.51874,-30.12372 0.57179,-5.07287 2.55253,-7.94767 7.06057,-10.24749 10.71508,-5.46643 31.55447,-5.73043 68.20108,-0.86397 3.70759,0.49234 13.19562,1.50287 21.08452,2.24561 26.78193,2.52153 45.7896,6.79219 80.66067,18.12294 l 21.30174,6.92162 1.80581,4.19773 c 3.92972,9.13487 4.4956,15.85759 2.2532,26.76839 -4.50764,21.93289 -24.09689,49.51222 -44.24252,62.28819 -3.90424,2.476 -4.61716,2.60913 -13.60635,2.54082 -6.26393,-0.0476 -12.99729,-0.80149 -19.82254,-2.21939 z m -8.45351,-55.28142 c 2.91922,-1.01568 8.27861,-2.63038 11.90975,-3.58821 8.42631,-2.22272 16.74866,-6.65516 19.65832,-10.46992 8.79009,-11.5244 -3.28381,-28.81294 -24.37444,-34.9016 -3.81673,-1.10185 -7.49251,-1.42676 -13.1054,-1.1584 -9.12952,0.43649 -15.34273,2.98051 -21.14374,8.65738 -2.27773,2.22898 -5.3955,4.09036 -8.53265,5.09418 -6.85029,2.19195 -15.05496,6.63502 -17.13467,9.27893 -1.14194,1.45175 -1.74033,3.61831 -1.74033,6.30115 0,3.71397 0.40034,4.47454 4.36852,8.29936 11.80827,11.38165 35.96506,17.40324 50.09464,12.48713 z"
       style="fill:#ffd5d5;stroke-width:0.89881" />
    <path
       id="path42"
       d="m 498.04697,1057.5197 c -1.66245,-0.6016 -4.60081,-2.4188 -6.52971,-4.0382 -6.33111,-5.3153 -9.0219,-12.9882 -8.99592,-25.6521 0.0234,-11.3893 1.95525,-19.6691 9.60598,-41.1697 8.59164,-24.14486 13.36202,-40.3918 22.49738,-76.62147 8.41311,-33.36539 6.92693,-30.48814 18.80204,-36.40064 24.36927,-12.13322 41.20181,-3.55747 54.60731,27.82102 4.13776,9.68532 10.15228,30.93055 11.45968,40.47923 1.50663,11.0038 5.25322,21.294 15.61545,42.88863 14.42124,30.05343 17.74639,41.59563 15.84514,55.00123 -1.1231,7.9189 -4.07625,15.8269 -6.56008,17.5666 -3.24873,2.2755 -7.66231,1.7231 -10.49953,-1.3142 -3.11155,-3.3309 -4.33559,-8.0948 -5.91743,-23.0305 -1.47066,-13.8859 -1.73386,-14.7458 -4.51354,-14.7458 -1.73141,0 -3.56106,2.1817 -9.88136,11.7827 -8.51661,12.9373 -17.49799,22.7752 -23.75386,26.0191 -5.93539,3.0778 -12.53833,2.9014 -18.74724,-0.5007 -6.39807,-3.5058 -15.62673,-13.51 -17.1445,-18.5853 -4.77265,-15.9595 -15.02897,-22.5627 -23.18236,-14.9252 -5.48103,5.1342 -6.37112,20.011 -1.85704,31.0383 l 2.29957,5.6176 -5.06368,-0.068 c -2.78502,-0.038 -6.42386,-0.5606 -8.0863,-1.1622 z"
       style="fill:#ffd5d5;stroke-width:0.89881" />
    <path
       d="m 668.95705,1352.6795 c 3.73127,-7.2172 5.31147,-15.2731 8.07812,-22.8704 1.22645,-2.9319 1.8566,-3.5534 2.72156,-4.4085 -3.40986,-0.6714 -6.82747,-1.3045 -10.22958,-2.0141 -0.0949,-0.02 -0.14012,-0.1622 -0.23685,-0.169 -0.27128,-0.019 -2.18091,3.7174 -2.32628,3.9898 -4.18715,6.8085 -6.85373,14.3866 -8.36672,22.2252 -0.55007,2.8499 -0.82979,5.7454 -1.24468,8.618 -0.62091,8.2793 -1.00849,16.5897 -0.88668,24.8949 0.0315,2.1506 0.21897,4.2969 0.2579,6.4474 0.0553,3.0556 -0.0904,7.5551 -0.16941,10.6541 -0.0462,1.0129 14.27893,1.6664 14.32513,0.6534 v 0 c 0.48025,-5.8402 1.03895,-11.7072 1.3059,-17.561 0.35876,-7.8674 0.27832,-15.762 1.05613,-23.6109 0.0865,-1.1657 0.91088,-12.6883 1.1489,-14.4561 0.63686,-4.73 2.6003,-8.9575 4.58717,-13.2349 1.17134,-2.8116 2.57744,-5.8738 2.49499,-8.9978 -0.0189,-0.7157 0.33841,-1.8201 -0.30912,-2.1255 -3.28754,-1.5504 -6.99501,-1.9792 -10.49252,-2.9688 0.15093,-0.1644 0.6558,-0.5857 0.45278,-0.4931 -2.61631,1.1935 -5.36018,5.782 -6.78357,8.0209 -0.57777,1.1833 -1.22073,2.3371 -1.73331,3.5501 -2.80998,6.6499 -4.18802,13.8206 -5.79142,20.8229 -0.21449,0.8586 11.92707,3.892 12.14156,3.0334 z"
       id="path44"
       style="fill:#000000" />
    <path
       d="m 855.41645,1114.0348 c 0.62824,0.7285 1.31882,1.4075 1.88473,2.1854 0.6967,0.9577 1.27302,1.9975 1.89257,3.0068 2.33738,3.8078 3.27794,5.3117 5.28178,9.4191 0.73987,1.5165 3.85906,8.5848 4.59006,10.2328 2.6542,5.704 5.08694,11.7123 10.37313,15.5284 3.6451,2.6313 5.06841,2.8598 9.16719,4.3898 1.48846,0.3838 2.97692,0.7676 4.46538,1.1514 0.8833,0.4259 6.90682,-12.0659 6.02351,-12.4918 v 0 c -1.26273,-0.277 -2.52546,-0.5539 -3.78819,-0.8308 -1.19197,-0.2698 -2.38006,-0.5572 -3.57589,-0.8093 -0.82774,-0.1745 -1.69541,-0.1908 -2.49386,-0.4702 -4.25979,-1.4906 -4.58971,-7.7997 -6.33014,-11.1229 -3.69735,-9.8984 -7.68501,-18.9723 -15.55537,-26.3622 -0.61906,-0.5813 -1.38686,-0.9803 -2.08029,-1.4705 -0.54051,-0.6968 -10.39512,6.9472 -9.85461,7.644 z"
       id="path46"
       style="fill:#000000" />
    <circle
       r="0.38909465"
       cy="1163.0594"
       cx="900.60712"
       style="fill:#000000;stroke:#000000"
       id="path48" />
    <path
       d="m 913.13623,1173.2504 c 7.68605,-4.338 12.092,-12.4438 15.86301,-20.1067 4.79273,-9.7391 6.10076,-14.2692 9.79441,-24.5075 2.75963,-9.5615 4.41896,-13.6468 5.50784,-23.2696 0.90956,-8.038 0.44016,-15.4982 -6.39032,-20.9773 -1.68409,-1.3509 -3.90468,-1.8433 -5.85701,-2.7649 -1.07413,-0.595 -7.73645,-1.0666 -8.38046,-3.0051 -0.22746,-0.6847 2.30109,-5.5792 2.37889,-5.7392 0.74783,-1.2471 1.48631,-2.4999 2.24348,-3.7414 2.71396,-4.4498 2.5878,-3.9778 5.0474,-8.5677 5.09995,-9.5169 -0.88688,1.2072 3.52145,-6.6189 0.42941,-0.852 -11.61912,-6.9248 -12.04853,-6.0728 v 0 c -4.51917,6.7004 -8.97599,13.5223 -12.20568,20.9555 -1.2886,4.3197 -2.64007,7.1355 -1.91669,11.8107 1.00418,6.49 4.866,10.5751 10.96114,12.5421 1.23242,0.3978 2.56066,0.3889 3.84099,0.5833 0.6788,-0.136 1.36846,-0.2261 2.03641,-0.4081 0.42426,-0.1155 0.96634,-0.8346 1.22822,-0.4813 0.49754,0.6711 0.3708,1.6641 0.26274,2.4925 -0.29786,2.2834 -0.88418,4.523 -1.46843,6.7504 -1.26435,4.8202 -5.17662,17.1689 -6.48476,21.3718 -5.33834,15.8179 -2.90922,8.4159 -7.85659,23.8573 -1.24892,3.898 -2.53692,9.2004 -4.80337,12.9562 -0.72538,1.202 -2.41243,2.6271 -3.47856,3.5968 -0.66072,0.5801 7.5437,9.9241 8.20442,9.3439 z"
       id="path50"
       style="fill:#000000" />
    <path
       d="m 932.6352,1097.4758 c 0.19876,0.4471 0.0767,0.2028 0.38377,0.7239 0.044,0.078 1.14746,-0.5437 1.1035,-0.6217 v 0 c -0.36968,-0.4427 -0.19564,-0.2355 -0.52172,-0.6221 -0.0368,-0.068 -1.00232,0.4516 -0.96555,0.5199 z"
       id="path52"
       style="fill:#000000" />
    <path
       d="m 656.07394,908.53055 c 0.38383,0.66987 0.77271,1.33686 1.15148,2.0096 1.93224,3.43188 2.66516,4.65965 4.36134,8.52699 6.88895,15.70703 -1.4565,-2.12129 6.59205,15.65068 1.38924,3.06758 2.88383,6.08636 4.32574,9.12954 6.22984,12.55485 12.99783,24.92164 21.6615,35.99132 5.27393,6.73856 6.82552,7.93879 12.7713,13.88189 8.30113,6.59963 4.10701,3.76358 12.4735,8.66693 0.47821,0.4261 6.50391,-6.33687 6.0257,-6.76295 v 0 c -6.77008,-4.74619 -3.29976,-2.07673 -10.31906,-8.12641 -1.91671,-2.0103 -3.93769,-3.92611 -5.75013,-6.03089 -1.97857,-2.2977 -3.7979,-4.72957 -5.60956,-7.16105 -3.25066,-4.36282 -8.66759,-12.1748 -11.47364,-16.7957 -2.99565,-4.93312 -6.96604,-12.69286 -9.64307,-17.79383 -0.83567,-1.60886 -7.98672,-15.40124 -8.98072,-17.21975 -3.48739,-6.38011 -7.08429,-12.95101 -12.58143,-17.84865 -0.27452,-0.3539 -5.27952,3.52837 -5.005,3.88228 z"
       id="path56"
       style="fill:#000000" />
    <path
       d="m 406.25743,933.20707 c -0.68649,0.73865 -1.40752,1.44663 -2.05946,2.21594 -1.45744,1.7198 -3.50242,4.54329 -4.86756,6.30583 -2.78154,3.59125 -5.26511,7.0191 -7.71109,10.85399 -3.17175,5.14918 -5.17748,10.86476 -7.87009,16.25518 -2.92391,5.44198 0.13678,-0.19892 -3.00905,5.42272 -0.66417,1.18688 -1.25545,2.41568 -1.96689,3.57484 -2.91803,4.75441 -6.42377,9.17742 -9.78343,13.61739 -6.16626,7.68073 -13.60528,14.24704 -21.22835,20.44504 -3.13781,2.8372 -2.89988,3.6066 -3.66643,7.8356 0.0327,0.8443 11.97277,0.3818 11.94006,-0.4625 v 0 c -1.06165,3.3638 -1.80041,3.6656 0.8175,2.2031 9.68018,-5.8607 18.41934,-13.4546 25.10421,-22.6111 3.14405,-4.69068 4.29575,-6.17213 6.9604,-11.03451 2.54447,-4.64306 4.56282,-9.56935 6.92864,-14.30104 2.2236,-4.98754 4.40464,-9.99892 7.7891,-14.34893 8.54808,-11.77645 -3.8453,5.38755 4.87228,-6.99611 2.90167,-4.12194 6.06057,-8.09292 8.33311,-12.62392 0.44912,-0.74832 -10.13383,-7.09984 -10.58295,-6.35152 z"
       id="path60"
       style="fill:#000000" />
    <path
       d="m 559.95269,760.60826 c 5.42794,-6.91732 10.93528,-13.78656 16.11922,-20.89108 2.20768,-3.02561 4.30404,-6.1309 6.45606,-9.19635 0.60502,-1.071 -14.54124,-9.62739 -15.14627,-8.55639 v 0 c -7.33958,10.451 -14.82752,21.04908 -19.05314,33.22693 -0.38303,0.82195 11.24109,6.23884 11.62413,5.41689 z"
       id="path62"
       style="fill:#000000" />
    <path
       d="m 494.61652,733.44523 c 6.76682,5.87838 13.6878,11.56696 20.42958,17.47896 0.69717,0.83379 12.48867,-9.02572 11.7915,-9.8595 v 0 c -1.87651,-1.78904 -3.66568,-3.6744 -5.62952,-5.36711 -5.28209,-4.55281 -11.08203,-8.53081 -17.40928,-11.48179 -0.65262,-0.64928 -9.8349,8.58016 -9.18228,9.22944 z"
       id="path64"
       style="fill:#ffd5d5;fill-opacity:1" />
    <path
       id="path66"
       d="m 632.97148,1561.3809 c -10.3588,-1.2019 -24.51194,-4.0635 -43.92628,-8.8814 -9.88237,-2.4524 -22.50252,-5.4435 -28.0448,-6.6468 -9.66116,-2.0976 -10.36097,-2.134 -16.96388,-0.8814 -19.02841,3.6096 -32.27917,3.6892 -74.21071,0.4455 -24.48444,-1.8941 -47.69671,-2.2028 -59.22471,-0.7878 -4.14294,0.5085 -11.93286,1.9965 -17.31091,3.3067 -7.77149,1.8932 -11.96754,2.3876 -20.44552,2.4089 -12.32326,0.031 -14.99998,-0.52 -16.94456,-3.4878 -2.7984,-4.2709 1.29733,-10.2537 22.24011,-32.4873 13.19114,-14.0041 21.48494,-24.6836 25.4942,-32.8276 2.5365,-5.1524 2.92489,-6.956 3.41004,-15.8361 0.65654,-12.0169 1.67457,-13.8989 6.10324,-11.2828 6.0179,3.5549 20.48718,25.07 20.56952,30.586 0.0107,0.7192 -2.48061,-1.1168 -5.53632,-4.0801 -7.37955,-7.1563 -10.2569,-9.2283 -12.81511,-9.2283 -7.07368,0 0.0146,14.8621 9.7517,20.4465 4.91121,2.8167 11.49351,3.5569 16.08995,1.8093 1.89912,-0.722 3.9668,-0.025 13.16966,4.4405 6.00427,2.9134 11.41688,5.2989 12.02802,5.3012 3.2022,0.012 -0.40584,-4.5086 -15.21496,-19.0632 -16.02846,-15.753 -25.68111,-26.8449 -28.94133,-33.2567 -1.78018,-3.5011 -7.54101,-22.4832 -8.46796,-27.9023 -0.42628,-2.4921 -0.26626,-3.3335 0.63397,-3.3335 0.66229,0 7.06402,6.1497 14.22606,13.6661 l 13.02189,13.6661 8.92928,3.28 c 10.07998,3.7027 15.81583,4.9697 14.75937,3.2603 -0.36487,-0.5903 -6.32737,-5.5877 -13.25,-11.1052 -20.65031,-16.4588 -31.69565,-29.7464 -31.69802,-38.1327 -3.9e-4,-1.3618 -0.64674,-3.4619 -1.43635,-4.667 -0.7896,-1.205 -1.18441,-2.191 -0.87735,-2.191 0.30705,0 4.85329,3.5273 10.10275,7.8385 10.55725,8.6702 26.64163,19.9608 33.67476,23.6384 5.1063,2.67 9.92525,3.6672 11.76326,2.4342 1.98476,-1.3314 0.45198,-2.5096 -4.07126,-3.1296 -2.32548,-0.3187 -7.83668,-2.3369 -12.24713,-4.4847 -16.35604,-7.9653 -33.09357,-28.5334 -36.50576,-44.8604 -0.67611,-3.2352 -2.04357,-8.2449 -3.0388,-11.1327 -2.11258,-6.13 -2.41287,-12.0837 -0.60947,-12.0837 1.81642,0 7.88936,4.6511 19.68995,15.0801 5.86697,5.185 12.59604,10.7525 14.95348,12.3721 5.50433,3.7817 20.23963,10.772 22.70689,10.772 4.92282,0 1.51854,-3.4951 -24.69621,-25.3557 -19.38801,-16.1677 -24.67799,-21.3086 -29.49544,-28.6642 -7.20561,-11.002 -7.59183,-15.3432 -1.36082,-15.2959 6.06441,0.046 21.80673,8.2667 33.42863,17.4566 6.60464,5.2226 7.74718,5.7719 17.10487,8.2248 39.63196,10.3883 81.69082,11.2261 139.81206,2.7849 6.35589,-0.9231 15.12924,-1.918 19.49634,-2.2109 9.0499,-0.6071 16.22749,-2.2774 23.38089,-5.441 2.72476,-1.205 5.08578,-2.0592 5.24672,-1.8983 0.16094,0.161 -0.061,1.5257 -0.49326,3.0329 -0.45144,1.574 -0.45356,3.0725 -0.005,3.5211 0.44857,0.4485 0.42393,4.7428 -0.0579,10.0904 -0.46135,5.1203 -0.85228,16.1672 -0.86874,24.5486 -0.0238,12.13 0.2194,15.3348 1.19222,15.7081 0.73322,0.2813 1.46629,2.542 1.83241,5.6509 4.02033,34.1389 14.83103,69.8382 30.89095,102.0088 6.50019,13.021 10.15637,18.8982 15.80222,25.4018 9.32736,10.7444 12.16282,15.4116 10.75091,17.6961 -1.22461,1.9815 -7.61078,2.7689 -15.75825,1.9431 -7.40464,-0.7505 -8.13646,-0.6635 -14.05306,1.6707 -15.97666,6.3033 -34.27276,8.3975 -53.68645,6.1449 z m -212.58042,-22.8538 c 4.77878,-0.7198 5.73549,-2.8394 2.04642,-4.5338 -1.36358,-0.6263 -7.67076,-2.4878 -14.01597,-4.1366 -6.3452,-1.6488 -12.54552,-3.8057 -13.77849,-4.793 -8.92255,-7.1454 -13.78041,-9.3767 -14.77445,-6.7863 -0.98829,2.5755 0.53617,5.951 4.69605,10.3982 4.70319,5.0281 8.62899,7.6554 13.90288,9.3045 3.97919,1.2442 15.40291,1.5292 21.92356,0.547 z m 16.61187,-10.5615 c 2.1856,-0.8387 1.20017,-2.5672 -2.59948,-4.5597 l -3.77798,-1.9811 3.04437,0.4814 c 4.27159,0.6755 13.97961,-0.4435 15.84316,-1.8262 1.47446,-1.0939 1.46526,-1.2246 -0.17159,-2.4373 -0.95126,-0.7047 -5.71767,-2.9601 -10.592,-5.0119 -11.19976,-4.7145 -14.12409,-6.7207 -17.68358,-12.1318 -4.38651,-6.6683 -12.61424,-14.8045 -14.56679,-14.4049 -6.03899,1.2362 5.81206,23.0467 16.87872,31.0633 4.63519,3.3577 2.58445,3.2442 -3.90824,-0.2164 -4.9366,-2.6312 -5.3593,-3.1346 -8.91707,-10.6212 -4.009,-8.436 -7.64134,-12.7573 -10.28512,-12.2359 -1.41273,0.2786 -1.64123,1.1951 -1.62715,6.5269 0.0132,5.0136 0.49312,7.1401 2.50318,11.0919 4.39199,8.6348 11.69858,14.8183 19.91225,16.8515 3.1511,0.78 13.36294,0.4031 15.94732,-0.5886 z"
       style="fill:#ffd5d5;fill-opacity:1;stroke-width:0.888935" />
    <path
       id="path68"
       d="m 525.06053,1238.7316 c -18.24373,-1.5246 -27.30867,-5.2815 -36.61573,-15.1749 -10.23994,-10.8851 -11.73791,-17.3066 -5.08334,-21.7911 8.74361,-5.8923 31.48848,-4.7793 53.04732,2.5957 11.06968,3.7869 24.25552,4.379 35.39091,1.5894 9.39983,-2.3549 14.01563,-4.2076 36.61286,-14.6958 26.91748,-12.4934 40.77347,-16.223 55.84549,-15.032 4.80344,0.3796 8.24711,0.048 13.93593,-1.344 13.67994,-3.346 18.40249,-2.2058 15.57167,3.7597 -2.75197,5.7994 -26.6237,27.9578 -38.23952,35.495 -22.30009,14.47 -54.31543,22.1845 -100.4497,24.2044 -6.35588,0.2783 -13.75627,0.6439 -16.4453,0.8125 -2.68903,0.1686 -8.7958,-0.02 -13.57059,-0.4189 z"
       style="fill:#000080;fill-opacity:1;stroke-width:0.888935" />
    <path
       id="path70"
       d="m 554.18749,1199.1941 c -10.68317,-3.3383 -15.415,-3.7001 -27.9086,-2.1335 -12.74265,1.5978 -20.53838,-1.1494 -20.53838,-7.2376 0,-4.0232 2.30806,-7.2836 6.86885,-9.7031 2.21293,-1.1739 6.54366,-4.4183 9.62383,-7.2097 5.04913,-4.5757 6.27068,-5.2243 12.41163,-6.5906 8.44255,-1.8783 14.92389,-0.8853 20.72077,3.1747 l 3.8449,2.6928 5.2024,-3.474 c 3.29267,-2.1988 6.76832,-3.7089 9.46826,-4.1137 3.85024,-0.5774 5.92568,-1.466 13.53563,-5.795 3.516,-2.0002 22.85778,-1.8 29.88512,0.3093 7.26701,2.1812 15.03893,5.6447 20.84218,9.2882 l 4.84136,3.0397 -12.39731,4.1845 c -19.20913,6.4837 -37.00731,14.4911 -50.74259,22.829 -8.14493,4.9443 -11.85841,5.0512 -25.65805,0.739 z"
       style="fill:#000080;fill-opacity:1;stroke-width:0.888935" />
    <path
       id="path72"
       d="M 470.16025,828.48456 C 458.31191,816.3699 437.01541,803.00309 418.139,795.83331 c -33.12472,-12.5817 -75.17334,-15.04579 -113.37432,-6.64383 -2.24591,0.49397 -1.76042,-2.729 0.8608,-5.7144 6.89715,-7.85542 34.9908,-16.49774 59.50074,-18.30395 9.33051,-0.68759 15.32032,-0.37655 40.60906,2.10877 59.05396,5.80367 85.75867,21.83809 79.1744,47.53901 -1.43601,5.60531 -7.48112,17.84067 -9.07741,18.37276 -0.44314,0.14772 -2.99555,-1.97048 -5.67202,-4.70711 z"
       style="fill:#501616;fill-opacity:1;stroke-width:0.888935" />
    <path
       id="path74"
       d="m 609.73025,816.95841 c -1.24415,-3.27235 -1.19979,-21.4105 0.0651,-26.62676 4.04326,-16.67378 18.6717,-30.67462 41.28897,-39.51753 12.71182,-4.97008 24.00226,-8.06979 53.33324,-14.64228 29.91586,-6.70354 29.99032,-6.72383 36.67632,-9.99499 4.70461,-2.30175 5.82065,-2.47883 14.87324,-2.3599 11.2699,0.14805 22.0483,2.19475 36.99563,7.02508 17.84322,5.76615 30.44142,12.86235 27.70074,15.60303 -0.53961,0.53961 -5.77909,1.31449 -11.6433,1.72197 -35.21722,2.44709 -88.02649,15.2014 -125.23123,30.24542 -27.4547,11.10152 -63.67975,31.04703 -69.44054,38.23397 -2.53779,3.16605 -3.50815,3.23161 -4.61818,0.31199 z"
       style="fill:#501616;fill-opacity:1;stroke-width:0.888935" />
    <path
       id="path76"
       d="m 687.5278,895.51767 c -8.75058,-3.24721 -12.11004,-10.67596 -9.2081,-20.36178 1.33755,-4.46436 5.67434,-9.6234 9.39721,-11.17891 2.62105,-1.09514 3.3584,-1.0735 5.99125,0.17587 3.20731,1.52197 6.65489,5.89071 8.8904,11.26581 2.05817,4.94868 1.77666,5.63694 -3.17717,7.76802 -6.36226,2.73697 -7.09794,1.6626 -4.01014,-5.85633 2.9145,-7.09694 2.28255,-8.35317 -2.87773,-5.72059 -2.55714,1.30456 -4.45027,3.25664 -6.31997,6.51681 -3.32335,5.79484 -3.51043,9.27405 -0.55903,10.39617 2.37376,0.9025 2.64261,0.86105 15.46239,-2.38375 10.60765,-2.68489 12.22774,-2.2307 9.24693,2.59235 -3.83627,6.20721 -5.86225,7.35716 -13.34787,7.57628 -3.75175,0.10981 -8.02143,-0.24566 -9.48817,-0.78995 z"
       style="fill:#501616;fill-opacity:1;stroke-width:0.888935" />
    <path
       id="path78"
       d="m 367.20362,919.3717 c -2.6957,-2.87158 -5.42901,-9.48954 -5.45112,-13.19835 -0.0461,-7.7354 3.60418,-10.70969 12.77923,-10.41267 3.07969,0.0997 6.06008,-0.10342 6.62309,-0.45139 0.56302,-0.34796 1.02367,-0.40639 1.02367,-0.12983 0,0.27655 -2.96332,6.26546 -6.58516,13.30868 l -6.58516,12.80585 z"
       style="fill:#501616;fill-opacity:1;stroke-width:0.888935" />
    <path
       id="path80"
       d="m 377.6819,926.857 c -1.25084,-0.39482 -3.19191,-1.20897 -4.3135,-1.80922 -1.98293,-1.06123 -1.92012,-1.14823 2.27426,-3.15031 2.37242,-1.13241 6.5029,-3.65651 9.17885,-5.6091 l 4.86535,-3.55017 0.0238,-7.62005 c 0.021,-6.72025 0.26219,-7.85847 2.04267,-9.6391 1.89002,-1.89019 2.17285,-1.93263 4.43131,-0.66499 4.18569,2.34937 6.55521,7.59798 6.22279,13.78381 -0.37329,6.94647 -2.54622,10.01319 -10.30594,14.54511 -6.39452,3.7346 -10.77765,4.86356 -14.41957,3.71402 z"
       style="fill:#501616;fill-opacity:1;stroke-width:0.888935" />
    <path
       id="path82"
       d="m 105.98442,1401.6811 c -11.854581,-22.786 -9.356479,-41.5132 10.08354,-75.5921 9.45885,-16.5817 17.95916,-34.0859 19.64146,-40.4466 1.86738,-7.0605 1.87965,-23.6755 0.0239,-32.4461 -2.02396,-9.5659 -5.06442,-18.4379 -13.40426,-39.1132 -4.04288,-10.0227 -8.34849,-21.4233 -9.56802,-25.3347 -6.5481,-21.0013 -5.09369,-39.6253 4.28053,-54.8127 5.9914,-9.7069 11.02665,-28.308 12.83501,-47.4148 1.89272,-19.9982 1.02174,-35.7336 -4.40373,-79.5597 -4.98818,-40.29385 -4.9076,-38.78515 -2.75389,-51.55829 6.96075,-41.28256 8.90554,-97.89875 5.34369,-155.56369 -1.21758,-19.71213 -0.66823,-32.25296 2.21958,-50.66932 3.81519,-24.33056 4.17253,-27.68075 4.97783,-46.66911 1.61734,-38.13525 6.95124,-55.28368 36.63584,-117.78394 18.35468,-38.64534 19.77633,-42.42583 29.91861,-79.55971 6.12419,-22.4225 10.37368,-35.13955 15.19612,-45.47607 10.47466,-22.45156 26.90167,-38.10732 46.51239,-44.32864 18.9104,-5.99914 30.30646,0.83288 33.43973,20.04738 0.51607,3.16469 1.34105,14.58149 1.8333,25.37067 1.25819,27.57683 3.43733,35.46851 12.34638,44.71183 5.11731,5.30931 6.7694,9.39871 6.01642,14.89233 -0.57936,4.22693 -3.92305,11.5123 -7.42405,16.17586 -2.66018,3.54352 -1.98495,4.67907 1.56934,2.63918 2.51403,-1.44285 2.75118,-1.41186 7.2732,0.95048 6.67342,3.48623 8.88691,7.54683 8.40269,15.41448 -0.81765,13.28531 -15.85926,35.51013 -32.4288,47.91538 -2.79,2.08881 -8.1729,6.81491 -11.96198,10.50243 -3.78909,3.68751 -6.88925,6.40149 -6.88925,6.03105 0,-0.37045 4.7803,-7.02246 10.62289,-14.78225 12.0475,-16.00081 15.3775,-21.0036 19.94103,-29.95824 3.55646,-6.97856 4.1411,-10.41133 1.69287,-9.93984 -2.41329,0.46476 -7.95569,8.37349 -12.92183,18.4388 -3.14333,6.37087 -8.71541,14.84584 -17.82583,27.11253 -26.16113,35.22456 -33.53766,48.13187 -24.56406,42.98173 1.43517,-0.82368 2.60941,-1.29263 2.60941,-1.04212 0,0.25052 -5.01447,7.22792 -11.14327,15.50532 -14.16866,19.13585 -19.653,27.34668 -24.42817,36.5724 -2.10297,4.06299 -4.22433,7.65051 -4.71412,7.97228 -0.48981,0.32176 -0.95253,1.32181 -1.0283,2.22234 -0.25135,2.98745 -3.27556,11.33597 -6.22833,17.19368 -10.49679,20.82351 -13.85216,46.18487 -9.82032,74.2261 1.75899,12.23366 8.22511,38.45865 14.17334,57.48359 3.95616,12.65347 4.07583,13.37229 4.06957,24.44573 -0.004,6.27489 -0.57775,19.2093 -1.27602,28.74314 -0.69828,9.53383 -1.51316,21.93448 -1.81085,27.55699 -0.80802,15.26081 1.15225,19.73447 5.18667,11.83689 2.04377,-4.00077 2.22082,-4.1355 2.70541,-2.0586 2.22077,9.51783 3.55587,28.77169 4.96204,71.55933 1.21933,37.1022 2.95897,50.1362 8.80314,65.9567 4.85461,13.1417 5.54338,26.5359 2.208,42.9379 -0.74567,3.6668 -3.33112,14.0674 -5.74545,23.1123 -2.41433,9.0449 -5.00516,21.2455 -5.75741,27.1125 -0.75225,5.867 -1.99926,14.9422 -2.77115,20.1671 -1.67687,11.3507 -1.20208,36.3688 0.98375,51.8367 4.39619,31.1094 5.34155,52.2621 2.86626,64.1336 -2.30352,11.0478 -5.27107,16.863 -12.37753,24.2553 -3.55689,3.7 -7.5237,8.0201 -8.81514,9.6005 -2.8368,3.4713 -11.94137,9.1219 -14.70309,9.125 -7.52671,0.01 -21.56576,-42.8851 -21.56576,-65.8902 0,-6.9252 0.0785,-7.1638 8.48931,-25.8125 29.06194,-64.4366 41.29107,-110.1177 41.29107,-154.24 0,-8.2992 -0.32502,-12.7352 -0.93308,-12.7352 -1.72156,0 -5.71295,2.4855 -8.0807,5.032 -6.68615,7.1909 -9.94587,19.6874 -14.97021,57.39 -4.08132,30.6262 -7.03396,44.199 -11.55874,53.1336 -0.86829,1.7145 -4.00948,12.3177 -6.98042,23.5628 -15.45191,58.4855 -27.54162,93.7467 -42.66955,124.4509 -9.52552,19.3334 -21.39641,39.5576 -23.21889,39.5576 -0.40114,0 -2.38661,-3.1855 -4.41216,-7.0788 z m 33.25804,-66.6991 c 4.0137,-2.4806 7.09508,-6.241 10.27355,-12.5375 5.67819,-11.2485 8.15585,-26.0821 10.18933,-61.0031 0.74661,-12.8216 1.54801,-24.4222 1.78089,-25.7791 0.72768,-4.2399 3.0341,-34.3845 4.40563,-57.5811 3.35159,-56.685 3.78206,-133.0605 1.37281,-243.56827 -1.45118,-66.56328 -1.3137,-88.73282 0.76628,-123.56202 2.19845,-36.813 3.08199,-46.9127 5.56027,-63.55888 3.62862,-24.37295 8.37706,-40.64248 17.64226,-60.44761 7.85071,-16.78156 11.51395,-25.31714 26.70543,-62.22547 16.03508,-38.95787 22.25062,-52.87107 31.76964,-71.11483 13.8615,-26.56636 18.66733,-36.95699 17.58973,-38.03049 -0.98295,-0.97921 -3.13514,2.09228 -14.39203,20.53944 -5.72123,9.37562 -12.06916,19.65957 -14.10652,22.85322 -2.38298,3.73544 -4.27801,8.17454 -5.31273,12.4451 -4.62721,19.0977 -11.7892,36.59954 -31.81772,77.75328 -21.5088,44.19539 -27.29052,59.40963 -32.12339,84.5307 -9.41982,48.96385 -12.88336,115.38395 -10.3096,197.70628 2.36313,75.58555 2.97142,131.02475 1.90463,173.58645 -1.06898,42.6488 -1.47167,52.0228 -4.05642,94.4276 -0.74504,12.2228 -1.77323,30.79 -2.28487,41.2604 -2.31631,47.4014 -9.86721,81.1011 -20.91086,93.3251 -1.69686,1.8782 -3.0852,3.6385 -3.0852,3.9118 0,0.8592 5.26503,-0.9694 8.43889,-2.931 z m 34.55759,-111.4101 c 1.33721,-2.7379 1.79167,-6.55 2.3314,-19.5566 0.36872,-8.8857 1.08306,-17.1812 1.58741,-18.4344 0.50435,-1.2532 1.36133,-11.0537 1.9044,-21.7789 1.23136,-24.3182 2.68942,-41.8768 7.6354,-91.9486 7.49785,-75.90616 8.57025,-91.56017 8.52563,-124.45091 -0.0182,-13.44515 0.55036,-34.04623 1.26354,-45.78017 2.65792,-43.73075 1.17722,-62.13741 -5.48341,-68.16433 -1.60126,-1.44891 -1.64916,0.14398 -1.73799,57.78289 -0.12516,81.21816 -2.15968,119.95412 -8.83264,168.16742 -1.66574,12.0354 -12.85493,156.8376 -12.85493,166.3591 0,3.1366 3.77126,1.674 5.66119,-2.1955 z m -9.69649,-505.5014 c 3.16989,-1.20519 3.87447,-3.49648 1.63326,-5.31131 -4.45513,-3.60753 -5.7138,-37.99574 -2.12916,-58.17059 3.25984,-18.34683 9.98407,-35.73873 19.06043,-49.29895 2.86023,-4.27321 5.26651,-9.15773 6.23426,-12.65491 2.56158,-9.25692 9.05705,-23.74809 15.31976,-34.17787 7.16724,-11.93616 14.05756,-21.61098 30.9956,-43.52144 15.21363,-19.67982 26.92399,-36.91847 32.77599,-48.24903 4.87692,-9.44261 5.50444,-12.5644 1.03296,-5.13877 -5.09032,8.45331 -10.46792,15.62204 -26.60467,35.46594 -28.6035,35.1747 -39.47601,50.98534 -46.26894,67.28366 -1.3186,3.1637 -7.21394,15.75271 -13.10076,27.97558 -17.26074,35.83863 -23.89886,52.84413 -27.93326,71.55929 -2.28019,10.57754 -2.30147,38.54797 -0.0362,47.52475 1.94744,7.71716 3.4466,8.83291 9.02068,6.71365 z"
       style="fill:#ff00ff;fill-opacity:1;stroke-width:0.888935" />
    <path
       id="path84"
       d="m 886.85197,1018.2111 c -1.9161,-2.9243 -6.24906,-15.0601 -8.4379,-23.63296 -3.18092,-12.45845 -4.4271,-24.44232 -4.44349,-42.73098 -0.018,-20.06272 0.52078,-26.59522 5.42538,-65.78121 1.98879,-15.88972 3.95067,-34.09067 4.35972,-40.44656 0.62358,-9.68915 0.68335,-8.32478 0.36992,8.44488 -0.20561,11.00058 -0.81663,23.80125 -1.35783,28.44594 -1.28599,11.03662 -1.33388,42.25725 -0.0907,59.1142 0.54087,7.33371 1.24348,17.32352 1.56137,22.19956 0.56927,8.73195 0.60223,8.83557 2.18769,6.8776 3.52936,-4.35856 12.16357,-53.93194 16.44412,-94.41391 2.06482,-19.52756 1.94404,-19.15107 4.27137,-13.31286 2.16191,5.4232 4.08674,6.23839 5.19739,2.20117 0.4035,-1.46675 1.13348,-13.8674 1.62216,-27.557 1.20281,-33.69421 2.26234,-43.35479 5.80097,-52.89166 2.50586,-6.75347 1.36675,-24.80727 -3.04789,-48.30626 -3.62798,-19.3116 -4.37982,-27.38546 -2.78502,-29.9078 0.69819,-1.10424 1.3066,-1.14327 3.70575,-0.23769 1.57873,0.5959 2.99613,0.95774 3.14979,0.80408 0.15366,-0.15366 -0.747,-2.80532 -2.00147,-5.8926 -6.2733,-15.43865 -10.13415,-34.49661 -15.49127,-76.46809 -3.90438,-30.58971 -8.90047,-60.07189 -11.73654,-69.25794 -2.3883,-7.73575 -8.44291,-19.66263 -13.38302,-26.36297 -9.58383,-12.99869 -20.0012,-22.43589 -49.14963,-44.52511 -22.6339,-17.15238 -31.33419,-24.78626 -41.37783,-36.30603 -24.12223,-27.66753 -51.16067,-41.13009 -94.14537,-46.87539 -5.54743,-0.74147 -18.96721,-1.10521 -39.11315,-1.06015 -44.40164,0.0993 -51.27479,1.40225 -106.92263,20.26931 -42.61012,14.4467 -54.91985,17.38152 -80.60279,19.21686 -14.9492,1.0683 -23.00706,2.60098 -35.59736,6.77101 -26.63014,8.82013 -53.53337,26.93422 -92.00481,61.94734 l -15.11191,13.75344 -2.41484,-4.56588 c -3.68533,-6.96806 -8.61955,-22.87764 -10.06098,-32.43995 -6.52358,-43.27682 13.09888,-73.62914 47.84186,-74.00251 6.24374,-0.0671 8.39605,-0.62956 22.02103,-5.75466 14.77705,-5.55846 33.91761,-11.96509 103.06577,-34.49764 36.78697,-11.98737 41.78619,-13.13492 75.55951,-17.34434 50.41042,-6.28304 82.16542,-4.68289 123.11755,6.20396 38.39056,10.20588 48.70882,13.78404 70.22589,24.35291 36.6153,17.98488 62.56287,40.51371 84.7952,73.62294 6.00128,8.93735 11.8838,15.10268 14.02295,14.69713 2.99026,-0.5669 2.56354,-5.62859 -1.10447,-13.10073 -2.4628,-5.01698 -5.04814,-8.45755 -10.06718,-13.39737 -7.70438,-7.58276 -19.64294,-21.21005 -19.64294,-22.42146 0,-3.16452 21.18969,16.21767 32.08478,29.34791 7.33284,8.8372 8.48501,10.86837 16.73342,29.49966 15.66899,35.39266 25.48377,66.13968 38.30728,120.00627 3.75317,15.76565 6.50298,25.21592 9.03076,31.03609 9.7312,22.4059 15.35347,44.80863 19.13472,76.24491 1.3148,10.93081 1.57747,20.19701 1.54512,54.50524 -0.0609,64.52834 -1.10246,72.5878 -18.61135,144.00753 -7.89378,32.19916 -13.42268,58.43031 -12.50842,59.34457 0.52838,0.52838 2.43131,-4.07618 6.89154,-16.67567 13.41956,-37.90828 22.93395,-79.89198 29.21046,-128.89563 1.58028,-12.33801 1.95825,-21.23216 2.37992,-56.00293 0.34604,-28.53384 0.16994,-45.46506 -0.56858,-54.66952 -2.11138,-26.31451 -7.54342,-50.67906 -15.16944,-68.03994 -4.72334,-10.75286 -5.28869,-12.67285 -16.87227,-57.29995 -17.14814,-66.0653 -26.05353,-91.85662 -41.08815,-118.99736 -10.87799,-19.63713 -21.5045,-33.46831 -33.71894,-43.88769 -34.45716,-29.39324 -75.5163,-50.95448 -128.07446,-67.2553 -10.41433,-3.22998 -14.02268,-4.78585 -17.77871,-7.66593 -6.20749,-4.75985 -15.7175,-9.32265 -24.37734,-11.69601 -5.95239,-1.63134 -9.33734,-1.91652 -22.55955,-1.90068 -13.64689,0.0164 -18.17508,0.43499 -36.89082,3.4105 -20.44555,3.25053 -22.39,3.40425 -46.6691,3.68939 -13.93406,0.16365 -42.73557,-0.16218 -64.00335,-0.72406 -43.39474,-1.14645 -60.28338,-0.4611 -80.44865,3.26464 -23.16965,4.28083 -40.2219,11.53707 -57.33633,24.39829 -3.66686,2.75559 -11.81043,8.57312 -18.09683,12.92786 -6.2864,4.35474 -10.98156,8.06712 -10.43369,8.24975 1.20809,0.4027 3.56158,-0.94982 30.93341,-17.77691 22.86917,-14.05905 25.77253,-15.38112 41.40454,-18.85394 24.81884,-5.51377 41.63709,-6.42462 99.75563,-5.40263 36.68102,0.64502 39.59619,0.80573 35.11295,1.93572 -26.20607,6.60517 -80.24225,23.52633 -93.58849,29.30676 -12.41198,5.3758 -24.09569,9.01043 -50.86351,15.82289 -29.16671,7.42297 -39.11219,10.56446 -50.89159,16.07515 -11.61537,5.43395 -19.51235,11.01169 -27.77377,19.61697 l -7.15641,7.4543 -2.61843,-4.12883 c -9.23955,-14.56926 -7.53479,-32.20557 4.94264,-51.13313 5.79375,-8.7888 20.32557,-23.09894 30.40192,-29.93814 4.53249,-3.07638 12.73292,-7.74561 18.22317,-10.37605 9.19505,-4.40546 23.58302,-9.31768 27.29164,-9.31768 0.85477,0 4.94233,-1.56535 9.08347,-3.47857 12.11455,-5.59694 27.96752,-11.00834 53.53125,-18.27285 13.15664,-3.73875 29.35748,-8.53413 36.00188,-10.6564 27.65103,-8.83193 45.07302,-9.35552 98.30746,-2.9545 21.72711,2.61251 25.11022,2.78733 56.4474,2.91681 21.96902,0.0908 35.0021,0.499 38.22422,1.19728 18.31544,3.9692 29.24311,8.46575 66.79936,27.48674 18.16221,9.19856 33.15997,16.18482 38.70896,18.03141 6.36275,2.11739 9.30704,3.55112 9.89281,4.81733 2.0789,4.49371 9.53483,13.27732 15.88212,18.71027 3.82041,3.27006 15.33803,11.8042 25.59471,18.96474 20.70724,14.45644 31.93715,24.63841 36.90892,33.46468 1.65242,2.93349 7.36651,9.93386 12.698,15.55637 15.69962,16.55663 24.18258,28.73776 30.95888,44.45553 2.89634,6.71811 3.45773,9.00515 3.45773,14.08632 0,14.37205 5.83048,27.82171 23.56224,54.35295 12.81955,19.18131 18.02448,28.53382 21.40892,38.46873 2.59627,7.62129 4.29786,19.10393 3.64626,24.60566 -0.38865,3.28154 0.0887,6.01238 2.10893,12.0635 5.37373,16.09615 6.61207,25.27873 6.59026,48.86859 -0.0207,22.44927 -0.10365,23.32659 -5.79529,61.33654 -1.90346,12.71178 -4.10366,28.71261 -4.88931,35.55742 -0.78566,6.8448 -2.61368,18.04538 -4.06228,24.89019 -1.4486,6.8448 -3.61266,17.04533 -4.80903,22.66785 -3.98535,18.72982 -3.82866,32.21073 0.57594,49.54856 l 1.86066,7.32413 -3.57155,9.56565 c -4.45593,11.93418 -7.58292,22.25231 -13.94432,46.01198 -10.8834,40.64917 -19.18282,58.70018 -34.31169,74.62695 -11.55261,12.1619 -17.80931,15.4242 -20.80702,10.8491 z"
       style="fill:#ff00ff;fill-opacity:1;stroke-width:0.888935" />
    <path
       id="path86"
       d="m 851.18688,639.07531 c -4.35404,-4.89906 -8.49657,-8.90741 -9.20562,-8.90741 -0.70906,0 -5.13681,-3.56229 -9.83944,-7.9162 -10.89569,-10.08775 -28.62418,-19.33255 -57.19557,-29.82553 -11.7543,-4.31683 -25.0486,-9.66379 -29.54289,-11.88213 l -8.17144,-4.03335 -36.45719,-1.48725 c -40.80894,-1.66478 -73.73709,-4.11645 -96.80321,-7.2075 -14.32145,-1.91919 -17.08606,-1.92154 -37.37074,-0.0317 -46.49295,4.33146 -119.42747,1.53891 -147.09639,-5.63209 -8.12752,-2.10642 -26.06134,0.87784 -54.80206,9.11929 -20.42526,5.85697 -26.65029,6.96571 -20.43573,3.63977 2.13135,-1.14066 2.62196,-2.60216 2.62196,-7.81062 0,-7.94839 3.19589,-13.49389 10.78616,-18.71613 7.97057,-5.4839 18.70034,-9.18426 47.24628,-16.29375 13.87766,-3.45629 28.7019,-7.76531 32.94275,-9.5756 19.62708,-8.37819 33.90063,-12.05229 55.53883,-14.29606 11.09505,-1.1505 128.96654,-2.22393 176.15156,-1.60418 43.95072,0.57728 66.66936,7.31636 104.2644,30.9282 37.92886,23.8215 62.6573,48.84239 76.01168,76.91057 5.67638,11.9306 10.83214,28.85205 9.76567,32.05145 -0.27091,0.81272 -4.05496,-2.53066 -8.40901,-7.42974 z"
       style="fill:#800080;fill-opacity:1;stroke-width:1.25714" />
    <path
       id="path88"
       d="m 211.87433,749.80504 c -1.19711,-1.93697 4.59912,-11.71079 17.17553,-28.96203 6.86928,-9.42269 14.60959,-21.69144 17.20069,-27.26389 8.13468,-17.49453 31.41699,-51.48634 36.06534,-52.65483 1.4765,-0.37116 9.9285,-8.58692 18.78222,-18.25724 8.85372,-9.67032 16.24976,-17.43031 16.43565,-17.24442 1.1387,1.13871 -4.40196,17.21715 -9.61031,27.88813 -7.29557,14.94735 -19.1171,30.95322 -39.46384,53.43245 -8.21873,9.08012 -18.64189,20.8553 -23.16256,26.16706 -8.20337,9.6389 -22.86579,30.87458 -22.86579,33.11666 0,0.65104 -1.96183,2.00341 -4.35963,3.00528 -5.08786,2.12584 -5.34154,2.15747 -6.1973,0.77283 z"
       style="fill:#800080;fill-opacity:1;stroke-width:1.25714" />
    <path
       id="path90"
       d="m 265.89113,1423.4284 c -10.81283,-20.5769 -15.02158,-39.8481 -14.96369,-68.5167 0.0445,-22.0224 1.15555,-31.6807 7.01413,-60.9715 3.38671,-16.9324 3.90484,-22.2039 3.95404,-40.2286 0.0585,-21.4309 -1.23943,-32.3636 -7.5203,-63.3444 -1.66635,-8.2194 -3.02973,-15.5577 -3.02973,-16.3074 0,-0.7497 1.89458,2.5809 4.21016,7.4014 5.77694,12.0262 12.75124,23.1853 27.8702,44.5932 13.99355,19.8143 24.26126,36.9422 26.85235,44.7933 1.48554,4.5013 1.33523,6.019 -1.54607,15.6107 -4.50454,14.9954 -6.48253,25.7815 -10.1704,55.46 -3.86064,31.0689 -6.10303,43.3727 -10.37021,56.9004 -3.72736,11.8164 -11.5919,28.0247 -15.15999,31.2438 -2.42251,2.1856 -2.5853,2.0343 -7.14049,-6.6342 z m 13.64651,-55.631 c 3.03663,-10.7621 4.28392,-19.7345 8.22986,-59.2017 2.06297,-20.6337 4.11916,-40.2923 4.56931,-43.6857 1.3948,-10.5146 -3.3996,-7.0128 -7.57138,5.53 -4.2341,12.7303 -7.14264,39.9117 -9.0052,84.1574 -0.8959,21.2823 0.30895,25.4926 3.77741,13.2 z"
       style="fill:#800080;fill-opacity:1;stroke-width:1.25714" />
    <path
       id="path92"
       d="m 330.5591,1399.7471 c -3.21031,-3.2103 -7.55628,-14.071 -7.55628,-18.8833 0,-1.0326 1.53278,-6.1627 3.40618,-11.4004 3.40421,-9.5176 3.406,-9.5416 3.09692,-41.5803 -0.17009,-17.6315 0.033,-34.1135 0.45131,-36.6268 1.5847,-9.5211 7.46431,-11.8168 20.41498,-7.9708 11.73732,3.4856 17.88781,10.9394 17.88781,21.6784 0,8.956 -2.71672,16.7984 -15.08505,43.5466 -12.79137,27.6631 -16.22887,37.4776 -16.662,47.5721 -0.17058,3.9754 -0.77794,7.2282 -1.3497,7.2285 -0.57176,4e-4 -2.64363,-1.6034 -4.60417,-3.564 z m 8.69735,-57.2993 c 4.67729,-5.6358 13.91783,-28.9141 13.91783,-35.0611 0,-6.7856 -9.26012,9.0143 -15.55637,26.5427 -1.81544,5.0541 -3.30079,9.4384 -3.30079,9.7429 0,1.2958 3.58533,0.4069 4.93933,-1.2245 z"
       style="fill:#800080;fill-opacity:1;stroke-width:1.25714" />
    <path
       id="path94"
       d="m 900.7347,1160.5165 c -3.45818,-2.7202 -3.73599,-5.1272 -1.31411,-11.3855 0.6487,-1.6763 -0.12223,-2.3004 -3.66181,-2.9645 -6.40659,-1.2019 -7.09561,-4.6517 -8.27383,-41.4266 -0.74159,-23.1464 -1.53971,-33.085 -3.02867,-37.7143 -1.48701,-4.6232 -1.81283,-8.6645 -1.23189,-15.2796 0.43441,-4.9467 0.38304,-11.1624 -0.11417,-13.8128 -2.24898,-11.988 -6.42902,6.35 -7.77764,34.121 -0.82897,17.0702 0.82358,31.7863 4.56139,40.6195 3.26527,7.7164 6.42183,21.6091 4.90981,21.6091 -0.64722,0 -1.75777,-1.5557 -2.46789,-3.4571 -2.67881,-7.1728 -6.70873,-14.6504 -9.92493,-18.4158 -1.83145,-2.1442 -4.52567,-5.9792 -5.98717,-8.5223 -2.45983,-4.2803 -2.52909,-5.0497 -0.93214,-10.3559 1.92948,-6.4112 3.84314,-23.3378 4.98649,-44.1061 0.90004,-16.3488 2.65183,-26.304 4.96668,-28.2252 1.28949,-1.0702 2.46154,-0.4545 5.0968,2.6773 l 3.42223,4.0671 8.977,-4.6293 c 16.07126,-8.2878 27.79832,-20.9251 37.59997,-40.51857 5.84436,-11.68284 10.78841,-25.88064 20.38923,-58.55175 8.56725,-29.1539 10.84553,-35.52593 13.22873,-36.99882 2.77454,-1.71477 3.72041,2.35352 3.7399,16.08573 0.0515,36.28937 -10.11006,79.95696 -25.44895,109.36251 -6.24106,11.9645 -16.80388,24.3165 -19.90912,23.2814 -0.71034,-0.2368 -2.5843,-4.272 -4.16435,-8.9671 -3.21411,-9.5507 -5.78388,-12.9019 -8.95911,-11.6835 -3.06548,1.1764 -2.02362,15.8243 1.65505,23.269 2.35398,4.7639 2.54954,6.2879 1.44136,11.2328 -0.70517,3.1466 -1.25373,8.8692 -1.21902,12.7169 0.0347,3.8477 -0.27411,10.1072 -0.68625,13.9101 -0.66151,6.1038 -0.35716,7.4886 2.59643,11.8137 2.26925,3.323 4.16696,8.9973 5.89798,17.6356 l 2.55221,12.7361 -6.48362,20.2636 c -3.56599,11.145 -7.49523,21.1791 -8.73165,22.298 -2.08161,1.8838 -2.50398,1.8332 -5.70494,-0.6847 z"
       style="fill:#800080;fill-opacity:1;stroke-width:1.25714" />
    <path
       id="path96"
       d="m 892.51762,673.1016 c -7.25069,-3.88859 -8.87123,-7.20022 -7.47552,-15.27652 2.08559,-12.06835 -2.70149,-47.84492 -8.14515,-60.87345 -2.89888,-6.93796 -6.00542,-5.70544 -7.6641,3.04075 l -1.30577,6.8853 -10.51102,-16.73641 c -18.98473,-30.22889 -31.26678,-45.89255 -43.03809,-54.88777 -3.61927,-2.76572 -17.08345,-15.55417 -29.9204,-28.41878 -18.85229,-18.8929 -25.96398,-25.10936 -36.98757,-32.33152 -25.27005,-16.55579 -39.21022,-20.00037 -85.66675,-21.16801 -77.96816,-1.95967 -145.03004,9.84983 -219.91599,38.72689 -34.189,13.18376 -74.12365,34.09942 -75.86534,39.73427 -0.91034,2.94521 2.45523,1.57528 18.13199,-7.38056 43.63466,-24.92765 107.43532,-46.59915 167.6492,-56.94629 44.29799,-7.61215 108.99041,-9.81958 137.40214,-4.68842 8.15681,1.47312 19.18825,4.13414 24.51432,5.91338 10.14265,3.38829 28.48268,11.72197 27.6435,12.56116 -0.26841,0.2684 -10.0763,-0.40375 -21.79533,-1.49368 -24.37835,-2.26731 -53.75728,-1.66972 -67.82165,1.37954 -9.72177,2.10776 -25.25717,9.21372 -28.86909,13.20484 -2.79703,3.09069 -1.07386,3.29044 5.32419,0.61716 13.31889,-5.56499 41.61993,-10.56107 60.00209,-10.59238 21.84735,-0.0372 48.6813,6.42302 66.00009,15.88944 10.34539,5.65477 16.44548,10.12338 25.14289,18.41837 3.80286,3.62691 9.46001,8.2315 12.57144,10.23241 3.11143,2.00091 8.9713,6.79217 13.02193,10.64724 10.34459,9.84519 28.96521,31.44122 27.96865,32.4378 -0.4569,0.45688 -4.35095,-2.59291 -8.65348,-6.77733 -27.28442,-26.53543 -60.86431,-48.45954 -88.35938,-57.68933 -17.07393,-5.73153 -26.23659,-6.84322 -56.91702,-6.90565 -15.6692,-0.0319 -48.00662,-0.54657 -71.86093,-1.14374 -67.01105,-1.67758 -102.65577,0.48696 -143.05021,8.68678 -24.72551,5.01912 -33.58109,7.86389 -69.22125,22.23665 -28.38565,11.44721 -46.91655,17.33835 -57.38603,18.24356 -5.01089,0.43325 -5.03636,0.41267 -7.23954,-5.85094 -4.10202,-11.66202 -0.6391,-22.49239 10.83423,-33.88424 3.55436,-3.52911 14.38247,-11.73624 24.06249,-18.23806 9.68001,-6.50182 20.71145,-14.354 24.51431,-17.44928 8.66222,-7.05048 28.55403,-16.64782 43.37149,-20.92574 11.60764,-3.35122 29.79577,-6.82988 65.69483,-12.56479 30.63687,-4.89427 44.02488,-8.61272 61.36641,-17.0442 29.17529,-14.18507 39.27597,-15.62363 101.53053,-14.46022 53.01144,0.99067 52.12114,0.85691 70.8998,10.65182 14.08676,7.34762 25.92243,16.66981 54.03014,42.55597 28.01287,25.79882 40.61432,35.7239 54.65756,43.04902 13.24121,6.90677 21.95985,17.44158 33.18029,40.09204 10.9031,22.00985 17.53411,48.26092 21.78831,86.25633 3.01448,26.9232 3.76025,43.52314 1.98349,44.15021 -0.69808,0.24637 -3.2256,-0.60126 -5.6167,-1.88362 z"
       style="fill:#800080;fill-opacity:1;stroke-width:1.25714" />
    <path
       id="path98"
       d="m 907.82381,807.57036 c 0,-0.49883 -0.27542,-3.16241 -0.61205,-5.91905 -0.33662,-2.75666 -1.04706,-12.79068 -1.57875,-22.29783 -2.66186,-47.59699 -6.82326,-70.2176 -16.37637,-89.01905 l -3.31484,-6.52393 h 2.25682 c 10.2441,0 17.7866,14.34587 21.48112,40.85719 2.70234,19.39167 2.53394,57.57231 -0.33949,76.96697 -0.83791,5.65555 -1.51644,8.3115 -1.51644,5.9357 z"
       style="fill:#800080;fill-opacity:1;stroke-width:0.628572" />
    <path
       id="path100"
       d="m 889.66056,909.77842 c -0.0359,-4.49638 0.37074,-20.19497 0.90374,-34.88576 0.81611,-22.49429 1.08131,-56.94125 0.79176,-102.84235 -0.0602,-9.55146 2.06205,-16.68959 6.4254,-21.61115 l 1.95048,-2.20001 -0.46169,2.82858 c -0.25394,1.55571 -0.52088,25.5986 -0.59322,53.42864 -0.12969,49.8915 -0.46074,60.21744 -2.50892,78.25724 -1.0093,8.8896 -3.45902,23.01139 -5.28838,30.48575 l -1.15383,4.7143 z"
       style="fill:#800080;fill-opacity:1;stroke-width:0.628572" />
    <path
       id="path129"
       d="m 611.71083,864.18672 c 5.42398,-7.53389 34.49665,-27.67428 42.59845,-29.51052 3.71657,-0.84234 14.73716,-4.95386 31.42861,-11.72528 45.89113,-18.61718 53.68642,-21.66162 65.66561,-25.64557 20.47792,-6.8104 34.83537,-10.26227 50.91577,-12.24135 10.00969,-1.23194 14.03898,-1.2182 16.55001,0.0564 3.67265,1.86428 7.05414,5.08021 8.93,8.4928 5.99475,10.90568 -2.78944,23.47674 -19.4898,27.89185 -4.67341,1.23552 -15.60637,1.80786 -21.05717,1.10234 -3.19175,-0.41312 -5.04846,-0.28468 -8.48573,0.58699 -9.25471,2.34696 -27.26247,5.73746 -53.05715,9.9896 -55.51087,9.15073 -73.04281,13.84469 -100.39618,26.87989 -5.90473,2.81388 -11.67731,5.30444 -12.82795,5.53457 l -2.09209,0.41842 z"
       style="fill:#ffff00;fill-opacity:1;stroke-width:0.628572" />
    <path
       id="path131"
       d="m 465.10904,884.61927 c -8.68709,-1.51674 -20.69639,-4.79553 -41.17148,-11.2407 -21.533,-6.77818 -44.94289,-12.58168 -55.62865,-13.79078 -10.83679,-1.22619 -25.9217,-1.45507 -48.71435,-0.73912 -45.8837,1.44127 -53.78046,-0.88899 -51.55782,-15.21426 1.96512,-12.66547 9.26312,-18.48069 24.99214,-19.91432 11.82703,-1.07798 26.28031,1.04172 55.48001,8.13663 9.85287,2.39404 23.43003,5.36868 30.17146,6.61032 35.64722,6.5655 66.21472,17.15618 85.25206,29.53718 5.3927,3.50716 16.22341,13.57273 17.76445,16.50949 0.74213,1.41426 0.74203,1.41429 -4.46569,1.36352 -2.86431,-0.0279 -8.31927,-0.594 -12.12213,-1.25796 z"
       style="fill:#ffff00;fill-opacity:1;stroke-width:0.628572" />
    <path
       id="path133"
       d="m 833.15826,795.39586 c -4.80473,-1.43984 -5.39937,-4.93468 -1.98795,-11.68354 1.20306,-2.38002 3.66334,-6.30732 5.46729,-8.72732 4.51577,-6.0579 19.37495,-20.80554 24.71681,-24.53126 2.42,-1.68785 6.84034,-5.23848 9.82298,-7.89028 6.72936,-5.98295 11.64178,-9.71624 13.92804,-10.58489 2.70719,-1.02858 2.79016,0.54255 0.30453,5.76648 -4.38145,9.20826 -13.8114,22.34585 -22.87859,31.87391 -2.99093,3.14296 -5.31158,5.84095 -5.157,5.99554 0.15459,0.15458 3.37619,-1.09192 7.15913,-2.77001 3.78293,-1.67808 7.58299,-3.26733 8.44456,-3.53166 1.42915,-0.43846 1.48772,-0.38568 0.66803,0.602 -0.49417,0.59543 -4.45195,3.92798 -8.79509,7.40568 -4.34313,3.4777 -10.44232,8.80085 -13.55375,11.82923 -5.53241,5.38474 -5.74837,5.52142 -9.79436,6.19928 -4.72332,0.79134 -5.83936,0.79761 -8.34463,0.0468 z"
       style="fill:#ffff00;fill-opacity:1;stroke-width:0.628572" />
    <path
       id="path135"
       d="m 234.87911,821.75421 c -2.00552,-1.57753 -3.48811,-4.40221 -5.41249,-10.31202 -0.78801,-2.42 -2.9367,-7.23052 -4.77486,-10.69004 -3.47084,-6.5323 -5.53287,-11.58083 -4.96291,-12.15079 1.48497,-1.48498 17.73568,19.75991 21.45186,28.04447 1.93265,4.30849 1.88132,4.90782 -0.4912,5.73488 -2.82219,0.98382 -3.9127,0.86624 -5.8104,-0.6265 z"
       style="fill:#ffff00;fill-opacity:1;stroke-width:0.628572" />
    <path
       id="path137"
       d="m 247.10326,854.31526 c -5.92658,-7.30994 -8.76566,-12.44626 -9.22169,-16.68341 -1.17316,-10.90028 13.8645,-10.38131 18.60665,0.64214 1.95499,4.54449 1.52546,10.4095 -1.25074,17.07823 -1.0995,2.64112 -2.20911,4.93184 -2.4658,5.09048 -0.25669,0.15865 -2.80748,-2.5987 -5.66842,-6.12744 z"
       style="fill:#ffff00;fill-opacity:1;stroke-width:0.628572" />
    <g
       id="g2433"
       transform="matrix(1.5608268,0,0,1.4275341,-1155,94.160473)">
      <path
         id="path2366"
         d="m 1052.5098,717.96411 c -1.715,-0.8692 -3.5339,-2.4805 -4.0419,-3.5804 -0.508,-1.1 -1.6169,-3.3419 -2.4642,-4.982 -0.8473,-1.64 -1.5405,-4.1546 -1.5405,-5.5879 0,-1.4334 -0.5367,-2.9378 -1.1925,-3.3431 -2.5993,-1.6064 -3.1912,-15.0926 -3.9836,-90.7537 -0.8191,-78.2011 -0.8384,-78.6272 -3.2608,-72 -1.3403,3.6667 -2.9476,7.8667 -3.5718,9.3333 -0.6242,1.4667 -2.3875,6.1656 -3.9184,10.442 -3.988,11.1399 -6.3342,15.2309 -10.1807,17.7512 -3.1617,2.0716 -3.5345,2.0694 -5.6389,-0.034 -1.9705,-1.9695 -2.2345,-5.4681 -2.1035,-27.8724 0.1421,-24.3131 1.0446,-33.8972 4.4841,-47.6203 1.5602,-6.2248 4.1104,-21.7932 6.7707,-41.3333 0.8486,-6.2333 2.095,-14.3333 2.7697,-18 0.6748,-3.6667 1.7111,-11.1667 2.303,-16.6667 1.2478,-11.5944 2.2062,-14.1072 9.1057,-23.8758 3.6998,-5.2382 8.8039,-9.7097 18.6695,-16.3553 12.5695,-8.467 14.3514,-9.2545 23.9959,-10.6062 12.1367,-1.7009 11.6365,-1.6987 23.7633,-0.1041 6.2445,0.8211 13.238,3.0612 21.0788,6.7518 6.4536,3.0377 12.2451,5.523 12.87,5.523 0.6249,0 4.3747,3.1618 8.3329,7.0263 6.368,6.2171 7.4568,8.0979 9.4551,16.3333 1.2422,5.1189 2.2569,10.3652 2.2549,11.6585 0,2.352 2.5183,7.7011 4.2475,9.0097 0.5047,0.382 1.3317,16.882 1.8376,36.6667 0.506,19.7847 1.4431,36.9827 2.0824,38.2179 0.6393,1.2351 1.1624,5.2851 1.1624,9 0,3.7148 0.6,6.7543 1.3333,6.7543 0.7334,0 1.3334,1.1646 1.3334,2.588 0,1.4233 0.6,2.9588 1.3333,3.412 0.7333,0.4532 1.3333,3.296 1.3333,6.3173 0,3.0214 0.7293,7.5101 1.6206,9.975 1.2719,3.5173 1.2719,5.04 0,7.0766 -0.8913,1.4272 -1.6206,4.8131 -1.6206,7.5242 0,4.5961 -3.6878,17.3819 -6.9225,24.0005 -0.7778,1.5914 -1.032,4.9308 -0.5649,7.4208 0.696,3.7098 0.2664,5.0749 -2.3793,7.5604 -4.3609,4.0969 -8.1035,3.2309 -8.2345,-1.9054 -0.056,-2.1832 -0.4807,-4.8694 -0.9444,-5.9694 -0.8704,-2.0646 -1.5265,-9.9712 -3.4854,-42 -1.064,-17.3977 -2.6718,-28.8528 -4.81,-34.2706 -0.7394,-1.8734 -1.3418,-1.9922 -3.4442,-0.6793 -1.9215,1.2 -2.5481,3.1326 -2.5481,7.8586 0,3.447 -0.6,6.6381 -1.3333,7.0913 -1.8397,1.1369 -1.7223,26.4111 0.1312,28.2646 1.4745,1.4745 1.368,3.4849 -1.5396,29.0687 -1.6284,14.3289 -1.8024,22.3654 -0.6204,28.6667 0.7971,4.2495 0.2779,5.3339 -5.8078,12.1312 -7.5569,8.4404 -14.1319,12.3363 -17.646,10.4556 -1.2508,-0.6694 -3.9789,-4.8315 -6.0625,-9.2493 -2.0836,-4.4177 -4.8383,-8.3664 -6.1217,-8.7747 -2.5314,-0.8056 -2.9483,-2.8613 -1.1542,-5.6922 0.6953,-1.0971 0.1204,-4.6268 -1.4777,-9.0709 -1.9816,-5.5109 -2.4003,-8.9548 -1.7268,-14.2039 1.713,-13.3511 2.2281,-43.9264 0.7647,-45.3899 -0.8094,-0.8094 -1.4059,-7.4216 -1.4059,-15.5837 0,-7.7978 -0.3948,-14.5726 -0.8773,-15.0551 -1.7208,-1.7208 -4.456,2.1644 -4.456,6.3294 0,2.3302 -0.5549,4.8068 -1.2332,5.5034 -1.7199,1.7668 -2.8176,17.7607 -3.5184,51.2667 -0.3298,15.7667 -1.1727,29.8667 -1.8732,31.3333 -0.7005,1.4667 -1.6325,9.5667 -2.0712,18 -3.6757,70.6653 -4.3236,77.273 -8.3054,84.713 -3.6997,6.9131 -13.9498,12.0696 -18.952,9.5342 z m 14.1569,-8.3707 c 1.7728,-2.7055 2.3772,-7.4148 2.7811,-21.6667 0.2838,-10.0153 1.0614,-19.4097 1.7281,-20.8764 0.6667,-1.4666 1.5193,-8.0666 1.8947,-14.6666 0.3753,-6.6 1.3248,-19.5 2.1099,-28.6667 0.7851,-9.1667 1.7044,-29.5667 2.0428,-45.3333 0.3385,-15.7667 0.9726,-29.5667 1.4092,-30.6667 0.4366,-1.1 0.6887,-5.9909 0.5603,-10.8687 -0.1338,-5.0852 0.3718,-9.2426 1.1852,-9.7453 0.7802,-0.4822 1.4185,-2.7591 1.4185,-5.0597 0,-4.5166 5.546,-13.6327 9.6202,-15.8132 2.8858,-1.5444 7.6572,-0.3814 7.8364,1.9101 1.4792,18.9117 1.8705,69.8778 0.5789,75.397 -0.7747,3.3109 -0.2437,6.9011 2.0262,13.6978 2.2634,6.7775 2.6831,9.6039 1.5884,10.6985 -1.0946,1.0946 -0.8125,2.0551 1.0678,3.6356 1.4054,1.1813 4.2923,5.4479 6.4152,9.4812 4.8684,9.2493 7.5985,9.8444 14.095,3.0728 3.8644,-4.0281 4.6934,-5.7593 4.0253,-8.4061 -1.7535,-6.9464 -2.1461,-16.4276 -0.7936,-19.1603 0.7731,-1.5619 1.75,-7.9397 2.1709,-14.173 1.0123,-14.9891 1.0119,-15.2583 -0.052,-35.4828 -0.6426,-12.2184 -0.4768,-17.7563 0.5507,-18.3913 0.9197,-0.5684 1.1702,-3.0977 0.669,-6.7545 -0.7327,-5.3451 -0.3675,-6.3752 4.2635,-12.0267 2.7856,-3.3995 6.772,-7.0637 8.8586,-8.1428 4.2039,-2.1739 4.2622,-2.1104 5.622,6.1314 0.4235,2.5667 1.3485,7.3667 2.0556,10.6667 0.7071,3.3 1.3118,13.83 1.3437,23.4 0.035,10.482 0.6242,17.9661 1.4821,18.824 0.7832,0.7832 1.4419,6.0041 1.4639,11.602 0.041,10.4782 1.686,14.4658 3.2568,7.8952 0.4893,-2.0467 1.474,-4.4636 2.1883,-5.3709 0.7143,-0.9074 0.9577,-2.5381 0.541,-3.624 -0.4166,-1.0859 -0.1838,-2.3289 0.5175,-2.7623 0.7014,-0.4335 1.2752,-3.7173 1.2752,-7.2974 0,-3.5801 0.6,-6.8801 1.3333,-7.3333 0.7333,-0.4532 1.3333,-2.5532 1.3333,-4.6667 0,-2.1134 -0.6,-4.2134 -1.3333,-4.6666 -0.7333,-0.4533 -1.3333,-3.5281 -1.3333,-6.8331 0,-3.3049 -0.691,-7.3001 -1.5356,-8.8781 -2.4407,-4.5604 -4.056,-18.6645 -4.6845,-40.9008 -0.3204,-11.3366 -1.1991,-21.3548 -1.9526,-22.2627 -0.7535,-0.908 -1.2565,-3.0326 -1.1178,-4.7214 0.1388,-1.6888 0.1859,-6.9015 0.1047,-11.5838 l -0.1476,-8.5131 -2.4729,3.1798 c -1.3602,1.7489 -5.3098,7.3402 -8.7769,12.425 -6.262,9.1839 -14.6599,16.4707 -23.2173,20.1455 -2.4569,1.0551 -7.3172,4.3046 -10.8006,7.221 -7.5496,6.321 -11.6861,8.0584 -19.1524,8.0448 -6.2634,-0.012 -20.5926,-4.0135 -24.7193,-6.9039 -6.3268,-4.4315 -25.4122,-22.7766 -28.8368,-27.7182 -2.0459,-2.9523 -4.2141,-5.3677 -4.8183,-5.3677 -1.4294,0 -3.2809,7.3817 -5.1836,20.6667 -0.8402,5.8666 -2.1393,13.6666 -2.8869,17.3333 -0.7475,3.6667 -1.8708,12.6667 -2.4961,20 -0.6253,7.3333 -1.7045,18.4333 -2.3982,24.6667 -2.3908,21.4827 -2.9842,34.6666 -1.5602,34.6666 1.6899,0 5.0235,-7.3717 9.9487,-22 2.3995,-7.1269 4.297,-11.9213 6.1931,-15.6486 0.6477,-1.2733 1.1777,-3.17 1.1777,-4.2148 0,-2.5585 8.0939,-9.2427 9.4952,-7.8414 0.6117,0.6117 1.3505,38.5955 1.642,84.4085 0.5161,81.1252 0.7608,89.6388 2.631,91.5089 0.4942,0.4942 0.8985,2.5631 0.8985,4.5976 0,2.0345 0.6,4.0699 1.3333,4.5231 0.7334,0.4533 1.3334,1.7725 1.3334,2.9317 0,5.9989 10.6467,7.7065 14.2035,2.2781 z m 43.4891,-229.4508 c 3.2326,-2.9796 9.7241,-7.309 14.4257,-9.6209 6.1889,-3.0433 9.7935,-5.9221 13.0599,-10.4305 l 4.5115,-6.2271 -6.5115,4.9998 c -3.5814,2.7499 -8.4205,5.8577 -10.7537,6.9063 -2.3332,1.0485 -4.6564,2.5766 -5.1627,3.3957 -1.0094,1.6334 -19.649,10.4853 -27.6144,13.1141 -7.2162,2.3815 -4.7661,4.5051 4.4303,3.8399 6.8284,-0.494 8.4282,-1.1963 13.6149,-5.9773 z m -23.3593,-1.3806 c -2.0167,-0.3055 -5.3167,-0.3055 -7.3333,0 -2.0167,0.3055 -0.3667,0.5554 3.6666,0.5554 4.0334,0 5.6834,-0.2499 3.6667,-0.5554 z m 19.1888,-9.6653 c 2.638,-2.1744 8.0806,-5.1824 12.0948,-6.6842 10.513,-3.9334 17.5493,-13.3568 18.9377,-25.3622 0.3817,-3.3 1.0745,-8.5336 1.5395,-11.6302 0.6413,-4.2693 0.1681,-7.03 -1.9576,-11.421 -1.5418,-3.1849 -2.8032,-6.3884 -2.8032,-7.119 0,-1.8739 -5.9969,-6.0838 -16.7596,-11.7655 -5.0822,-2.6829 -11.7921,-6.3909 -14.9108,-8.2398 -7.7908,-4.6188 -15.625,-4.7921 -21.6723,-0.4793 l -4.6573,3.3215 6,0.4175 c 6.8522,0.4768 9.3396,2.1096 6.9121,4.5371 -1.0764,1.0763 -5.1926,1.4859 -12.2467,1.2186 l -10.6255,-0.4026 -9.9859,6.3258 c -5.4922,3.4792 -11.1184,7.5808 -12.5027,9.1147 -3.1418,3.4815 -5.5513,13.1416 -5.5513,22.2562 0,6.1251 0.6747,7.8381 5.6667,14.3864 6.8859,9.0328 10.7316,12.4659 22.1773,19.798 l 8.8227,5.6517 13.3628,0.015 c 12.8557,0.014 13.545,-0.1351 18.1593,-3.9386 z m 7.1874,0.6883 c 2.5431,-1.0626 4.6238,-2.2706 4.6238,-2.6845 0,-0.7449 -9.2843,2.7896 -10.4871,3.9924 -1.1635,1.1636 1.2217,0.6315 5.8633,-1.3079 z m 24.9571,-16.4901 c 2.0167,-1.8756 3.6667,-4.2479 3.6667,-5.2718 0,-2.7318 -1.3274,-1.7675 -8.6924,6.3148 -5.4138,5.9409 -5.9018,6.8329 -2.6409,4.8274 2.2,-1.3531 5.65,-3.9948 7.6666,-5.8704 z m 4.9796,-11.9899 c -0.018,-1.9431 -0.199,-1.9783 -1.3129,-0.2547 -1.6875,2.6112 -1.6875,4.3763 0,3.3334 0.7333,-0.4533 1.3241,-1.8387 1.3129,-3.0787 z m 4.9312,0.8287 c -0.4256,-1.0637 -0.7415,-0.7478 -0.8055,0.8055 -0.058,1.4056 0.2572,2.1931 0.7003,1.75 0.443,-0.4431 0.4904,-1.5931 0.1052,-2.5555 z m -94.2441,-46.6406 c 3.3,-1.8792 8.1,-3.8087 10.6667,-4.2877 2.5666,-0.4791 7.6666,-2.795 11.3333,-5.1465 6.0088,-3.8536 6.3507,-4.3234 3.4651,-4.7612 -6.4228,-0.9743 -32.1318,8.3604 -32.1318,11.6668 0,0.6614 -2.1,3.1833 -4.6666,5.6042 -2.5667,2.421 -4.6667,5.4343 -4.6667,6.6963 0,1.262 -0.6,2.6654 -1.3333,3.1187 -0.7334,0.4532 -1.3334,1.4077 -1.3334,2.121 0,0.7134 2.85,-1.6036 6.3334,-5.1488 3.4833,-3.5453 9.0333,-7.9835 12.3333,-9.8628 z m -10,12.2239 c 1.3273,-1.4667 2.1133,-2.6667 1.7466,-2.6667 -0.3666,0 -1.7526,1.2 -3.0799,2.6667 -1.3274,1.4667 -2.1133,2.6667 -1.7467,2.6667 0.3667,0 1.7527,-1.2 3.08,-2.6667 z m 99.3333,-4 c 0,-0.7333 -0.6354,-1.3333 -1.412,-1.3333 -0.7766,0 -1.0412,0.6 -0.588,1.3333 0.4533,0.7333 1.0887,1.3333 1.4121,1.3333 0.3233,0 0.5879,-0.6 0.5879,-1.3333 z m -89.6197,-3.3333 c 2.698,-1.8334 4.4343,-3.3334 3.8585,-3.3334 -0.5758,0 -3.2544,1.5 -5.9524,3.3334 -2.6979,1.8333 -4.4343,3.3333 -3.8585,3.3333 0.5758,0 3.2544,-1.5 5.9524,-3.3333 z"
         style="fill:#000000;stroke-width:1.33333" />
      <path
         transform="translate(1010.5848,371.59135)"
         id="path2388"
         d="M 57.451533,96.754184 C 45.413203,89.035181 39.267215,83.672178 33.023235,75.438008 27.404803,68.02877 26.400878,62.35168 28.721946,51.11467 30.878819,40.672578 33.044031,38.278796 49.736018,27.882244 l 5.818113,-3.623793 9.142417,0.352193 c 10.088707,0.388647 14.454047,-0.429334 14.454047,-2.70841 0,-2.179035 -1.95108,-3.11606 -7.282576,-3.497526 -5.826465,-0.416882 -5.815792,-0.917464 0.08807,-4.13075 3.35918,-1.828295 4.249929,-1.995085 9.019968,-1.688962 4.927562,0.316231 5.961824,0.706623 14.991285,5.658601 13.135088,7.203603 22.429988,12.625495 24.450538,14.262448 2.18391,1.769306 7.41466,14.71911 7.37147,18.249587 -0.0182,1.492944 -0.63117,6.727059 -1.36201,11.631367 -2.30612,15.475364 -6.98895,22.205165 -19.64634,28.234219 -3.80966,1.814644 -8.536742,4.454277 -10.504618,5.865851 -5.988842,4.295841 -7.183535,4.565301 -20.241647,4.565301 H 64.15485 Z"
         style="fill:#800000;stroke-width:0.726447" />
      <path
         transform="translate(1010.5848,371.59135)"
         id="path2390"
         d="m 79.831116,114.34123 c -0.679846,-0.12325 -1.53885,-0.42248 -1.908899,-0.66494 l -0.672817,-0.44085 0.771035,-0.68892 c 0.433265,-0.38712 2.113359,-1.17718 3.835183,-1.80348 10.214465,-3.71544 24.710192,-10.70083 27.720582,-13.358346 0.97794,-0.863306 2.81092,-2.052887 4.54376,-2.948833 3.75438,-1.941173 7.6226,-4.462662 12.34333,-8.045963 2.0836,-1.581568 3.78836,-2.802696 3.78836,-2.713617 0,0.477152 -4.7732,6.637861 -6.46109,8.33924 -2.42341,2.442788 -4.6013,3.927765 -10.15592,6.92473 -5.00162,2.698599 -9.81265,5.851769 -12.91934,8.467409 -1.200721,1.01093 -2.934376,2.46953 -3.852572,3.24133 -2.198826,1.84827 -4.259675,2.82238 -6.934623,3.27783 -2.774542,0.4724 -8.484476,0.70676 -10.096989,0.41441 z"
         style="fill:#800000;stroke-width:0.256838" />
      <path
         transform="translate(1010.5848,371.59135)"
         id="path2392"
         d="m 24.691285,38.577393 c 0,-0.136545 0.509022,-0.821396 1.13116,-1.52189 0.622138,-0.700495 1.200023,-1.628969 1.284189,-2.063277 0.08417,-0.434307 0.218767,-1.130761 0.299112,-1.547674 0.258035,-1.338943 2.015043,-3.690945 5.367231,-7.184795 2.040439,-2.126666 3.460038,-3.837263 3.774558,-4.548288 0.613345,-1.386567 1.98446,-2.435321 5.351887,-4.093611 5.082922,-2.503085 11.565392,-4.842027 18.23549,-6.579552 3.320217,-0.8649 4.428606,-1.0428263 6.677784,-1.071968 1.483239,-0.019218 2.914789,0.054151 3.181225,0.163042 0.474678,0.193998 0.474678,0.20885 0,0.737903 -0.855342,0.953324 -6.561465,4.588877 -9.397122,5.987207 -1.511725,0.745465 -3.765477,1.667317 -5.008339,2.048558 -7.625148,2.338969 -10.368876,3.48674 -14.002777,5.857719 -3.11831,2.034576 -7.069646,5.286386 -10.857469,8.935312 -3.260611,3.141048 -5.536466,5.129579 -5.870753,5.129579 -0.0914,0 -0.166176,-0.111719 -0.166176,-0.248265 z"
         style="fill:#800000;stroke-width:0.256838" />
      <path
         transform="translate(1010.5848,371.59135)"
         id="path2394"
         d="m 118.65236,87.426427 c 0.9254,-1.299606 8.64855,-9.669312 10.06703,-10.909811 1.69085,-1.478689 2.30278,-1.577364 2.30278,-0.371331 0,1.605734 -1.93765,4.088925 -5.52202,7.076724 -2.29633,1.914144 -6.63737,4.916521 -7.10864,4.916521 -0.13542,0 -0.018,-0.320446 0.26085,-0.712103 z"
         style="fill:#800000;stroke-width:0.256838" />
      <path
         transform="translate(1010.5848,371.59135)"
         id="path2396"
         d="m 96.7557,99.661624 c 0.410354,-0.663966 8.75572,-4.092912 9.89735,-4.066627 1.08183,0.02491 -3.29729,2.233178 -7.067185,3.563787 -2.399286,0.846846 -3.122145,0.975276 -2.830165,0.50284 z"
         style="fill:#800000;stroke-width:0.256838" />
      <path
         transform="translate(1010.5848,371.59135)"
         id="path2398"
         d="m 130.14147,72.75776 c -0.20722,-0.335278 0.34841,-1.779221 1.24673,-3.239976 l 0.78974,-1.284189 0.084,0.881678 c 0.13082,1.373336 -0.18937,2.585946 -0.85984,3.256424 -0.64616,0.646154 -1.02766,0.762989 -1.26061,0.386063 z"
         style="fill:#800000;stroke-width:0.256838" />
      <path
         transform="translate(1010.5848,371.59135)"
         id="path2400"
         d="m 130.37096,72.021954 c 0.0962,-0.388468 0.51074,-1.28419 0.92111,-1.990494 l 0.74612,-1.284189 0.005,1.15577 c 0.005,1.298653 -0.76742,2.825217 -1.43005,2.825217 -0.32597,0 -0.37871,-0.154019 -0.24188,-0.706304 z"
         style="fill:#800000;stroke-width:0.256838" />
      <path
         transform="translate(1010.5848,371.59135)"
         id="path2402"
         d="m 131.174,32.642532 c -0.74308,-0.883096 -0.84778,-1.468189 -0.30032,-1.678268 0.71607,-0.274783 1.43268,0.37841 1.43268,1.305907 0,1.196684 -0.34365,1.309689 -1.13236,0.372361 z"
         style="fill:#800000;stroke-width:0.256838" />
      <path
         transform="translate(1010.5848,371.59135)"
         id="path2404"
         d=""
         style="fill:#800000;stroke-width:0.256838" />
      <path
         transform="translate(1010.5848,371.59135)"
         id="path2406"
         d="m 38.175273,30.976075 c 2.120457,-1.760316 7.98245,-5.442704 8.245497,-5.179658 0.246076,0.246076 -5.356637,4.17789 -7.542173,5.292868 -1.403948,0.71624 -1.653989,0.675993 -0.703324,-0.11321 z"
         style="fill:#800000;stroke-width:0.256838" />
      <path
         transform="translate(1010.5848,371.59135)"
         id="path2408"
         d="m 45.245297,340.03677 c -2.100678,-1.10045 -3.261338,-2.76112 -3.261338,-4.66629 0,-0.7113 -0.400692,-1.64041 -1.07147,-2.48447 -0.652147,-0.82062 -1.143519,-1.94182 -1.255571,-2.86493 -0.101255,-0.83416 -0.279552,-2.38251 -0.396215,-3.44077 -0.116663,-1.05827 -0.52667,-2.52932 -0.911127,-3.26901 -0.390987,-0.75226 -0.864588,-2.78542 -1.074758,-4.61391 -0.555959,-4.83688 -1.043777,-33.38818 -1.473907,-86.26561 -0.375625,-46.17714 -0.826961,-74.39565 -1.303415,-81.49238 l -0.240412,-3.5809 -1.211447,0.19659 c -2.668893,0.4331 -7.842921,5.05732 -8.508925,7.60474 -0.221416,0.8469 -0.538763,2.03018 -0.705214,2.6295 -0.166451,0.59932 -1.197013,3.1328 -2.290139,5.62996 -1.093124,2.49716 -3.175094,7.97276 -4.6266,12.16799 -4.47135,12.92338 -8.2648511,21.61181 -9.4360461,21.61181 -1.3466397,0 -0.8722271,-12.0137 1.2765665,-32.3269 0.4966163,-4.69467 1.4717786,-14.50171 2.1670266,-21.79342 1.448948,-15.19647 1.956011,-19.26911 3.436947,-27.60499 0.585605,-3.29626 1.6582,-9.83428 2.383544,-14.52895 1.88546,-12.203323 3.374845,-18.758097 4.596795,-20.230456 0.553932,-0.667447 1.398802,0.139476 5.018876,4.793454 2.687546,3.455118 14.302122,15.271662 20.52901,20.885992 4.846435,4.36968 8.602348,7.23785 10.907743,8.3296 5.965636,2.82511 17.076867,5.47564 22.917688,5.46689 6.878497,-0.0103 10.309921,-1.43157 18.175906,-7.52834 5.904825,-4.57672 8.669425,-6.38804 12.588645,-8.24787 4.36623,-2.07196 9.10816,-5.448783 13.25118,-9.436432 4.15663,-4.000743 6.53573,-6.924716 11.69497,-14.373359 1.86801,-2.696935 4.42981,-6.276912 5.69289,-7.955504 l 2.29652,-3.051986 0.008,11.042905 c 0.007,10.284074 0.0583,11.153751 0.73975,12.655991 1.15516,2.546366 1.89834,10.011995 2.3343,23.449345 0.46181,14.23383 1.41165,26.36936 2.57287,32.87174 0.62036,3.47377 0.95447,4.68546 2.15332,7.8093 0.90951,2.3699 1.13011,3.72432 1.60521,9.85551 0.25977,3.35238 0.47525,4.32017 1.26008,5.65937 1.68222,2.8705 1.60971,6.92161 -0.1669,9.32461 -0.59898,0.81016 -0.81181,2.05142 -1.21468,7.08399 -0.41958,5.24128 -0.60034,6.25304 -1.28188,7.17488 -0.67547,0.91361 -0.75773,1.35892 -0.55331,2.99509 0.21018,1.68221 0.1051,2.18964 -0.84254,4.0686 -0.59548,1.18068 -1.43326,3.32513 -1.86174,4.76544 -0.84206,2.83055 -1.2617,3.39387 -1.77729,2.38575 -0.61171,-1.19609 -0.82411,-3.15608 -1.17213,-10.81607 -0.34292,-7.54785 -0.50673,-8.75961 -1.57629,-11.6603 -0.72242,-1.95924 -1.31305,-10.01702 -1.31515,-17.94243 -0.002,-7.05877 -0.57795,-18.71033 -1.07751,-21.79342 -0.92686,-5.7202 -3.39705,-18.09653 -3.7689,-18.88318 -0.59506,-1.25887 -1.43361,-1.30622 -3.6789,-0.2077 -3.2451,1.58769 -9.33355,7.51488 -12.34096,12.01412 -1.87544,2.80576 -2.1362,4.25736 -1.6186,9.01068 l 0.44202,4.05927 -0.96559,2.03278 c -0.92197,1.94093 -0.9656,2.29876 -0.9656,7.91914 0,3.2375 0.26229,10.98563 0.58287,17.21807 0.91697,17.82705 -0.0817,35.4026 -2.45579,43.21872 -0.69386,2.28438 -0.74836,3.09222 -0.55369,8.20649 0.12991,3.41291 0.50806,7.10665 0.94928,9.27236 0.73087,3.58755 0.73093,3.60512 0.0171,5.21883 -0.40422,0.91381 -2.02224,2.9604 -3.71427,4.69807 -6.37264,6.54452 -8.42726,6.08818 -13.67237,-3.03669 -2.756593,-4.79562 -5.493131,-8.73733 -7.11301,-10.24559 -1.057395,-0.98454 -1.175214,-1.93018 -0.328078,-2.63323 0.932617,-0.774 0.411136,-4.45305 -1.487659,-10.49551 -2.388939,-7.60221 -2.593456,-9.00533 -2.082811,-14.28938 0.234751,-2.42915 0.529983,-9.56533 0.656073,-15.85818 0.334383,-16.68832 -0.697517,-57.43357 -1.520218,-60.02668 -0.595553,-1.87716 -5.825849,-2.53881 -8.245906,-1.04313 -2.769511,1.71165 -6.653512,7.01704 -8.289907,11.32367 -0.395464,1.04078 -0.881261,3.22016 -1.079548,4.84307 -0.229045,1.87463 -0.617938,3.30602 -1.066356,3.92493 -1.130675,1.56055 -1.428696,3.70698 -1.438147,10.35795 -0.0049,3.43585 -0.246909,8.09419 -0.537833,10.35187 -0.552227,4.28546 -1.112612,15.67729 -1.470536,29.89375 -0.499697,19.84771 -1.251094,35.70165 -2.380575,50.22846 -0.392746,5.0513 -1.041805,13.87764 -1.442353,19.61407 -0.862605,12.35374 -1.259747,15.97966 -2.176738,19.8737 -0.855268,3.63194 -1.330335,9.30592 -1.8095,21.61181 -0.521502,13.3933 -1.037472,17.78116 -2.401293,20.42079 -1.891243,3.66045 -7.032158,5.01798 -11.044038,2.91632 z"
         style="fill:#d40000;stroke-width:0.363224" />
    </g>
  </g>
</svg>
