<svg xmlns="http://www.w3.org/2000/svg" width="965.193" height="1203.923"><g transform="translate(-64.88 -317.314)"><path d="M244.167 1519.95c39.068-25.988 81.454-103 3.13-97.65-35.208 44.052-80.505-24.06-125.54 13.615-27.905 16.171-85.948-12.067-39.39-32.393 9.137-45.38-8.664-97.495 38.35-128.16 38.645-58.554-41.042-102.826-25.659-158.322 31.474-50.185 31.077-110.87-11.546-153.717-5.841-53.535 47.64-108.779 17.961-163.84-58.57-57.637 57.598-98.888 29.214-159.956.733-66.012 59.254-112.87 102.528-155.163 33.492-46.635 69.719-94.065 126.643-112.929 122.9-54.795 269.283-75.309 397.517-26.798 83.435 22.666 157.662 75.734 211.353 143.131 48.413 67.639 72.53 153.69 56.318 236.267-2.26 67.608-5.673 137.036-31.699 200.4 17.565 22.256-46.18 45.067-53.866 1.973-15.668-21.228-39.632-99.91-53.907-83.148 29.503 47.679 8.208 103.326 26.448 157.75-42.417 52.089 60.943 75.108 16.426 122.167.969 51.362-1.662 114.245 28.325 153.358-1.821 28.413-.039 70.919 7.025 87.02-44.334 18.46-93.858 8.96-136.151 29.247-35.29-3.433-134.976.078-82.092 53.984 30.644 10.598 72.405 65.156 12.714 59.627-70.657 4.014-142.107 1.193-212.183 9.74-91.316-20.329-184.41.372-276.424 3.639-8.356 1.881-17.116 1.917-25.495.159m30.781-6.278c79.922-3.137 160.1-17.288 239.96-9.803 58.569 16.836 120.377-7.45 180.476-1.406 26.25 2.721 125.735 5.036 64.218-31.944-55.811-31.113-44.29-119.844-63.668-152.331-61.711 19.114-110.385 83.552-180.44 71.318-55.403-10.372-110.267-24.179-159.408-52.7-57.138-15.442 5.53 36.904 11.5 54.657-29.348-2.925-50.677-77.729-34.553-12.494 14.993 21.034 39.59 57.523 2.24 21.595-8.634-16.46-21.336-66.752-16.837-19.266 3.7 26.043 49.427 89.401 5.17 37.476 11.33.375 50.633 63.127 4.807 30.354-41.491-27.1 45.964 54.31-8.12 20.779-28.8-47.79-18.022 28.564-4.491 28.613-28.646 3.078-21.376-53.596-11.203-9.594 10.555-44.91-25.097-35.412-18.061-.165 22.753 17.37-47.19-2.414-29.012 28.535 5.981-.277 11.584-2.528 17.422-3.624M585.839 1500c22.053-20.63-43.408-113.21 1.745-58.248 7.299 17.089 20.333 46.061-1.745 58.248m-128.892-7.829c-24.653-23.003 7.786-102.68-.951-36.162-2.328 4.146 16.89 51.774.95 36.162m-148.53-56.308c-8.687-4.197-1.63 24.791 0 0m-193-.197c37.647-42.268 95.35 15.09 132.742-16.686 31.354 6.804 75.48 18.828 59.627-32.925 5.988-21.944 1.14-106.856-1.34-44.102 8.392 27.496-30.804 110.67-34.912 43.59-2.115-26.36-.782-110.874-29.242-97.148-3.78 30.662-24.738 109.954-19.502 101.273-11.4-46.982 34.501-97.702 8.332-140.833-40.346-44.565-38.306-106.048-31.668-162.138 7.337-26.664-25.755-9.547-41.725-19.47-22.028 67.233 31.58 130.056 18.172 197.031-25.025 42.229 8.403 115.878-13.988 143.811-.385-57.8 1.204-112.391 9.5-169.638-10.276-57.03-26.213-105.073-22.103-164.18-13.962-59.596-26.657-119.485-25.52-181.163-5.47-57.582 3.43-117.11 49.244-150.423 23.762-43.749 28.03-114.896 75.468-153.415 27.38-31.606 117.065-73.922 34.05-99.335-22.71-6.885-76.553 33.46-28.805 3.24 17.509-60.347-59.604 43.464-27.03-1.137-46.366 43.972-106.24 102.877-84.569 171.755-20.398 47.475-80.6 95.787-28.146 146.675 21.378 57.79-51.06 116.758-11.96 169.563 43.63 38.133 15.282 95.8-2.245 139.292-4.302 54.203 68.149 103.305 23.009 160.631-61.473 30.07-.164 108.164-52.147 139.333 12.52 9.518 27.835 22.828 44.758 16.4m11.144-667.665c4.353-60.25 78.01-88.549 75.422-152.115 9.73-20.25 42.25-58.303 14.79-16.39-15.907 54.34-45.388 101.546-79.878 141.669-2.723 5.673-6.714 59.107-10.334 26.836m83.856-186.258c13.642-24.562 92.785-74.664 83.077-59.78-31.313 14.173-59.127 35.278-83.077 59.78m29-62.772c25.746-20.79 41.357-16.906 5.23-1.092 5.492.585-11.576 5.636-5.23 1.092m50.692 883.819c12.2-42.636 25.676-114.622-30.424-126.355 27.688 40.69 8.037 92.833 25.126 133.084zm443.542-6.146c58.503-7.727 117.294-14.982 174.974-24.899 29.814-11.852 63.328-2.818 38.69-39.204 8.093-32.716-.764-66.118-17.454-85.484 1.55-53.586-22.166-110.002.9-159.765-37.007-26.325-40.65-61.439-22.992-99.373-15.623-36.034-17.774-72.325-9.378-107.932-21.506-4.97-11.583 58.105-20.771 79.785-1.244 64.048 8.87 128.205-3.367 191.82-1.044 60.638 39.494 115.092 28.005 177.906-7.48 55.53-6.225-39.075-10.483-58.638-11.408-58.542-36.075-114.458-17.7-175.193 2.955-25.29 7.413-97.446-23.086-41.875-47.116 25.229-23.993 102.068-39.092 151.786 7.622 54.172-25.983 116.516 17.933 162.88 13.858 37.038-36.697-33.114-29.588-51.608-6.233-31.883 24.512-123.378-17.34-71.301 23.007-24.129-38.71 29.023-18.596 53.28 8.889 21.234 9.444 123.4-5.436 55.334 10.062-27.237-.018-123.683-38.57-58.1-14.47 19.633-13.16 109.338 13.351 100.58m127.647-46.144c-20.309-63.11-8.317-129.297-7.548-193.597-2.195-18.307-11.791-97.504 1.015-79.901 6.429 61.092 6.403 123.085-1.463 183.55-.12 29.898 19.21 60.773 7.996 89.948m-336.107 32.75c45.635-10.23-67.126-17.763-9.42-1.6-.216 4.949 7.227 6.244 9.42 1.6m21.726 2.033c23.9-1.302 74.488-31.505 24.087-9.765-3.46 1.877-57.768 15.08-24.087 9.765m9.41-11.164c62.937-27.128 123.559-61.215 176.746-104.576 29.347-25.952 76.178-72.873 70.694-114.14 15.419-44.787-1.581-88.955 8.684-135.086-10.94-54.091 14.094-105.626 20.851-158.915 16.716 7.768 10.407-112.989-.323-36.816-1.613 26.386-24.683 94.376-10.822 30.067 31.982-62.347-21.939-111.319-78.624-125.63-61.043-29.361-137.538-2.61-177.274 49.12-10.147 22.936 18.555-9.06-.323 15.146-34.747 43.923-18.288 102.242-15.19 153.184 20.493 21.643 77.537 4.437 71.775 57.278-.474 68.345-78.81 25.69-118.362 52.786-25.142-27.307-72.794 22.02-85.563-33.132-19.54-63.22 82.635-42.297 66.788-105.837 7.185-53.58-15.44-102.825-46.328-145.526-31.822-49.634-108.317-45.809-150.702-18.931 26.708-6.571 60.006-13.33 11.055-.06-38.625 19.438-96.267 71.256-56.974 113.283 23.51 9.162 41.764 61.618 6.077 25.397-10.591-22.978-54.873-69.224-25.64-16.6 12.846 32.98 70.746 84.983 64.01 90.563-42.83-23.955-58.382-73.448-85.01-111.6 12.17 53.538 73.258 132.078 89.707 150.416-51.864-17.247-58.538-80.89-88.063-121.798-.438 7.044 32.05 75 51.273 101.71 10.319 20.086 77.75 73.693 19.48 38.436-31-24.725-39.96-71.582-65.299-96.783 18.511 47.346 5.26 74.605 42.67 121.747 24.143 63.801-27.214-19.654-30.705-42.809-28.154-50.373 40.957 79.236-10.29 58.614 2.236 57.924-8.904 126.107 33.908 171.93 64.349 80.969 168.3 118.492 268.156 128.633 27.005-16.338 32.115 15.396 43.618 9.929m-68.308-97.703c17.997-26.057 112.739-18.796 99.367-8.596-32.984-2.496-68.964-8.029-99.367 8.596m53.036-39.862c-43.86-4.58-147.182-7.097-125.394-72.093 18.484-55.726 79.994-81.316 126.776-47.303 43.462-41.154 105.51-25.574 140.098 21.154 36.441 39.766-46.077 75.47-78.205 90.333-20.435 6.239-41.953 8.643-63.275 7.909m42.862-9.035c34.645-1.369 106.44-42.082 91.402-63.573-57.276-1.458-112.747 19.232-168.092 19.428-25.359-11.69-119.567-15.548-65.358 21.772 42.065 26.22 94.402 23.62 142.048 22.373m-56.237-46.973-4.975-.01zm-102.39-4.973c64.66-7.298 127.46-40.525 193.322-24.988 27.489 3.124 92.442 10.39 42.565-23.15-34.59-35.889-82.25-35.745-115.24-3.402-22.032.031-93.584-16.392-83.02-6.446 10.013.42-68.9 50.613-37.627 57.986m93.627-13.728c49.111-13.806-14.397-1.727 0 0m42.769.75h-2.95zm102.23-1.825c-20.78-7.548-38.989 4.522-2.873.389zm-86.25-6.182-2.44.048zm-117.921-39.313c6.022-13.05-28.021 28.055 0 0m63.672 5.975c-2.414-3.927-2.414 3.927 0 0m40.5-11.37-7.19 6.04zm-48.75 3.12c-4.167-7.078-3.485 3.992 0 0m-218.25 106.483c-46.3 6.67-31.4-114.606-26.44-38.728-10.054 18.848 49.947 32.092 26.44 38.728m413.5-10.58c26.271 1.254 53.19-88.91 34.54-25.262-8.044 12.1-20.409 21.557-34.54 25.263m-233-124.995c-1.773-15.383 25.795-31.653 8.315-8.375zm83.63-5.96c-15.526-20.252 7.335-39.378 7.191-7.92 9.522 5.846-1.206 17.99-7.191 7.92M262.17 873.671c19.857-45.786 90.236-125.358 133.419-62.776 21.637 16.127 47.26 87.3 11.45 29.31-20.82-40.115-44.724 65.74-80.572 9.038-48.146-56.98 87.326-60.5 30.998-8.181-35.416 23.884-19.593-57.446-9.93-2.315 39.681 8.319-6.496-66.787-23.097-15.238-5.83 63.612 96.268 23.124 45.467-23.159-42.357-22.416-78.281 33.539-101.221 63.407zm474.246-16.89c-13.65-20.423-44.645-89.314-51.64-31.403-24.472 24.624-32.071-41.167-1.445-24.65-40.615 7.155 19.085 41.49.86-.99-46.202-41.83-53.817 81.195 4.726 41.21 44.354-37.794-40.894 53.35-48.613-14.687 4.369-54.89-25.981 9.586-45.694 24.838 17.78-38.46 85.039-102.576 117.26-45.94 3.307 16.199 44.526 36.449 24.546 51.622m-113.5-14.531c3.156-4.357 1.539 4.13 0 0m-132.174 527.592-6.917-1.763zm98.752-5.631c30.1-2.144 102.043-56.905 36.844-18.976-4.539 4.275-46.29 17.204-36.844 18.976m77.422-35.35c1.805-7.857-22.526 17.912 0 0m-338.397-6.907c-5.16-2.49 1.26 5.525 0 0m361.347-9.777c-18.534 4.362-12.88 11.913 0 0m10.19-1.114c30.364-21.448-27.302 12.089 0 0m7.86-12.755c-5.446-3.224-19.963 17.375 0 0m22.265-19.8c-6.767 1.7-16.171 12.327 0 0m10.84-3.458c25.138-19.188-34.887 22.903 0 0m14.86-16.18c-12.739-4.608-15.686 18.9 0 0M249.703 1255c-19.427-28.72-26.253-24.403 0 0m525.952-9.422c21.866-23.253-25.372 23.377 0 0m6.245-11.065c18.768-11.521 36.947-81.797 14.056-29.768-1.859 4.834-43.213 56.278-14.056 29.768m18.516-11.763c6.73-8.831-9.619 9.561 0 0m-604-156.25c6.182-38.607 2.758-91.112-33.14-110.957-8.888 33.944-24.727 117.11 33.14 110.957m-27.545-19.885c-31.194-20.696 37.098-54.4-.876-23.895 12.417 34.105 21.975 8.473 21.761-6.077 8.656 14.89.307 44.647-20.885 29.972m682.21 5.385c32.27-49.967 7.862-111.936 12.138-166.806 4.714-26.92 28.078-71.015-11.908-82.38 2.189 56.724 22.096 132.702-19.963 175.192-5.466 16.357-18.283 95.376 19.733 73.994m-13.298-15.522c-19.27-50.99 51.983-14.113 0 0m10.097-5.978c11.162-34.896-26.54-5.232 0 0m-636.085 13.465c-10.642-17.464 5.128 20.293 0 0m329.983-3.079c18.29-21.832-30.563 27.888 0 0m-76.263 2.223c-11.911-41.534 25.044-38.75 30.447-3.817 30.71 31.418 89.817-67.536 70.25-4.18 71.468 35.473 57.85-98.73-4.171-67.691-44.69-8.627-18.965-89.218-23.517-125.291 26.443-41.305 5.686-98.408 32.502-132.777 28.018-16.45 57.412-6.293 53.386-24.987 60.555 15.563-11.734-51.567-28.836-66.003-49.403-31.735-81.73-91.027-144.66-99.31-71.829-11.965-152.258 8.898-197.692 68.888-42.333 40.575-58.605 98.394-67.82 154.477 4.44 34.52 28.984 63.434 43.925 18.207 46.956-43.535 107.098-84.414 173.288-83.72 84.618 1.756 14.884 95.1 68.58 129.967 31.085 49.361 38.956 123.882-1.15 170.412-44.639-19.082-60.946 72.705-11.207 68.55zm32.9-70.293c30.728-18.228 47.838-2.46 0 0m3.929-8.993c7.68-19.046 48.557-17.99 7.336-1.454 3.169-1.215-15.231 6.2-7.336 1.454m-280.34 78.677c-3.959-27.901-27.54-59.478-8.42-13.884.52-1.473 7.073 21.567 8.42 13.884m339.912-14.843c35.463-17.774-22.373 3.909 0 0m-411.572-31.5c12.615-41.682 4.026-132.565-18.146-140.548-3.194 56.918.114 115.368 11.51 171.08 5.37-6.974 3.665-21.59 6.636-30.532m320.072 21.865c-5.382-7.61-3.283 15.213 0 0m-43.819-25.202c-.674-10.57-1.462 12.39 0 0m4.946-11.32c3.163-4.585-7.088 6.406 0 0m9.008-2.71c7.78-5.537-13.501 5.668 0 0m400.887-8.552c8.982-35.035 1.982-131.99 6.438-120.226-2.294 38.053-36.646 87.007-6.438 120.226M190.6 960.27c-.76-44.635 3.825-114.207-21.067-142.44 1.039 45.89-16.112 109.78 16.758 146.671zm783.721-12.692c11.331-5.213 13.186-33.681-1.517-14.607 45.114-43.12 36.85-111.83 43.424-168.632 3.794-63.683 18.597-131.716-12.824-191.233C973.36 479.34 892.445 411.468 806.4 369.862c-79.496-34.145-166.154-53.988-252.954-44.22-93.2 7.38-186.826 36.785-264.392 88.827-28.18 15.597-32.233 95.147 3.128 41.427 51.028-41.084 115.768-65.57 179.778-76.858 81.817-3.675 165.88-15.055 245.547 10.726 63.423 15.9 128.66 34.14 177.575 80.281 46.748 40.6 82.364 94.932 101.102 153.521 2.729 44.508-23.209-49.85-37.263-63.41-48.36-87.63-139.241-145.036-236.764-161.783-51.16-13.55-103.136-22.956-156.313-18.604-59.766 3.643-121.616.643-176.998 26.968-32.321 17.466-129.287 38.651-95.503 84.507 62.202-24.719 127.81-68.71 201.806-69.5 129.876-11.801 265.193 16.527 374.337 89.427-20.52 12.91-57.229-39.242-78.456-32.783C840.516 500.899 884.03 533.133 918.88 575c20.679 19.016 35.663 58.078 3.495 18.095-36.453-47.505-82.468-85.995-137.62-109.635-87.443-42.322-187.606-35.426-281.694-30.43-53.65 9.393-110.2 11.398-157.816 40.549-35.298 21.512 36.986-32.525 55.107-27.13 78.948-18.005 159.79-28.33 240.825-21.062 44.032.004 87.28 7.184 128.865 21.719-133.323-51.143-289.942-61.652-421.495.19-41.162 9.021-44.318 59.04 3.27 50.741 58.218-27.728 123.992-23.65 185.618-11.022 62.498 5.11 122.239 31.165 182.388 49.871 66.591 34.043 131.413 72.275 191.461 116.47 31.9 35.215 104.658 99.555 81.01 135.598 5.359-47.228-96.59-140.452-85.79-124.968 38.948 39.832 71.828 89.954 68.809 147.78-14.866-53.513-38.431-116.965-87.661-155.426-44.253-49.975-106.952-76.495-163.604-109.021-22.543-13.316-84.078-29.074-37.415 8.055 56.77 47.102 130.914 71.844 177.667 131.569 33.33 48.165 63.422 99.732 84.19 154.891 13.45 65.224-31.569-57.99-44.644-79.521-30.586-56.278-74.393-107.646-138.627-126.959-47.27-14.065 24.04 55.546 46.867 50.57 62.708 8.148-27.143 11.48-42.029-8.547-20.389 9.367 69.15 32.68 72.406 53.353-27.262-12.813-72.53-36.399-95.577-26.215 51.598 18.44 91.878 54.594 131.255 91.67 43.04 32.619 49.7 90.49 86.53 126.895zm23.512-197.872c7.898-37.642-49.126-88.209-38.948-104.662 21.86 27.982 51.078 67.524 38.948 104.662M925.59 624.905c-51.604-44.409-117.908-66.6-174.138-104.22-43.482-19.95-94.185-27.014-140.536-13.193 69.115-35.084 146.853 3.77 205.762 41.82 27.677 22.424 116.84 47.939 108.912 75.593M872.11 944.519l-.067 2.952zm114.307-2.583c-5.81 1.036-.485 7.265 0 0M824.079 939l-.048 2.44zm49.747-4.75c12.488-20.002 12.198-93.986.324-79.465-3.306 26.192-4.694 53.38-.324 79.465m115.09.125c-2.149-6.327-4.517 14.837 0 0m-162.705-5.769c-3.13-2.461 1.63 9.878 0 0m-663.466-32.73c-20.427-45.86 18.204-84.483 14.688-121.153-60.745-26.154-44.266 80.058-19.534 110.69 5.269 6.094 3.805 30.302 4.818 10.938zm48.73-54.387c5.162-21.945-23.674-15.053 0 0m9.951-19.548c31.977-56.809 95.12-105.348 162.255-100.16 25.28 15.364 73.34 54.688 59.164-6.567-22.535-60.734-107.628-24.452-148.306-1-31.893 19.015-108.424 67.314-73.113 107.727M199.122 814c-6.56-30.556-17.626-15.902 0 0m47.519-20.161c4.15-8.83-14.59 18.966 0 0m350.776-50.74c13.612-19.035 112.748-34.083 46.504-46.32-43.865-18.201-113.538 51.476-70.996 67.764 8.014-7.298 14.466-16.618 24.492-21.445m-318.527 17.55c-7.15.28-15.827 18.083 0 0m37.527-20.899c6.73-8.831-9.619 9.561 0 0m306-7.5c1.197-4.299-7.194 5.777 0 0m114.405-19.795c-38.777-31.274-28.095-.72 4.467 3.37zM759.3 710c-45.409-63.232-67.414-156.415-150.923-181.097-25.851-9.306-75.916-21.451-31.219 7.029 38.442 35.985 85.247 64.847 107.188 114.923C698.722 678.438 733.18 711.88 759.3 710m-66.31-14.864c-28.692-33.341-23.144-87.102-70.6-107.291-24.565-24.911-67.803-72.202-101.416-47.885 40.359 41.913 90.283 73.915 125.812 121.089 3.714 10.744 57.614 59.647 46.204 34.086m60.746-11.636c-7.563-28.852-8.958 7.545 0 0m50.68-20.419c-20.94-13.197-114.934-66.772-56.726-23.67 17.593 10.9 38.346 14.685 56.726 23.67m-66-9.864c-8.273-25.848-41.163-56.872-11.822-14.921 4.164 4.607 5.098 12.828 11.822 14.92m-221.5-124.48c60.45-7.555-97.402-36.947-74.245-18.514 27.69-3.512 49.226 19.344 74.245 18.513m-162-7.962c4.07-4.704-16.922 11.26 0 0m50.198-11.17c40.772-8.714-48.445 4.398 0 0" style="fill:#000"/><path d="M833.467 1053.699c-32.35-65.498 43.529-107.882 23.014-174.746 5.14-23.716-22.883-102.528 18.903-54.65-19.041 64.37-4.324 135.727-11.695 203.1-5.115 11.84-12.73 34.361-30.222 26.296m11.996-17.712c35.074-31.554-17.352-38.583-11.51-4.85l4.383 2.854zM185.571 965.114c-31.785-37.796-16.816-124.012-12.519-146.6 19.457 45.03 18.56 103.498 14.83 149.04z" style="fill:#ac9393;stroke-width:.89881"/><path d="M184.727 1067.877c-49.988-3.778-6.902-137.308-13.03-108.277 20.222 25.955 46.77 84.12 13.03 108.277m1.024-21.713c35.958-43.936-58.101-43.486-14.264 2.798l6.483.054zM159.771 900.15c-16.665-35.7-46.507-142.313 14.177-125.06 22.936 37.311-33.578 40.886-14.33 83.13-.897 11.312 6.119 38.542.153 41.93M833.176 969.204c-9.11-27.814 11.259-117.377 16.134-112.456-7.464 36.362 13.706 83.498-16.134 112.456" style="fill:#ac9393;stroke-width:.89881"/><path d="M565.44 744.362c-11.234-57.492 102.411-52.215 102.14-33.196-38.094 2.278-85.185 47.266-102.372 52.835zM695.881 701.492c-54.865-26.975-78.744-90.946-130.975-121.859-25.113-12.002-66.491-64.78-9.089-43.59 47.361 33.423 107.418 69.525 118.116 131.116 2.482 13.829 10.69 26.09 21.948 34.333" style="fill:#2b0000;stroke-width:.89881"/><path d="M753.338 711.091c-57.046-16.777-70.953-80.236-109.434-117.54-18.505-21.883-89.11-65.582-78.576-76.997 64.221 10.84 122.226 52.666 146.355 114.108 13.8 26.583 34.035 51.395 41.655 80.43" style="fill:#2b0000;stroke-width:.89881"/><path d="M965.977 945.18c-40.266-53.745-61.621-122.891-120.88-160.798-21.832-21.017-100.993-64.707-93.355-62.394 29.587-6.374 80.523 36.147 91.442 20.932-23.08-3.331-112.113-61.584-51.125-34.74 30.17 16.164 66.578-3.382 13.924-4.622-30.234-2.197-89.218-74.81-28.296-42.034 64.856 21.764 104.103 79.05 133.146 137.288 15.283 23.196 27.418 82.758 45.369 84.169-17.91-55.8-46.652-107.863-78.645-157.377-37.508-61.128-102.988-93.988-163.152-128.2-20.378-11.335-76.907-70.856-18.78-40.779 86.635 38.163 174.512 85.278 230.398 164.422 39.391 23.972 22.105 82.466 52.55 108.964 6.873-44.384-68.078-155.521-61.401-136.631 38.265 29.132 67.234 79.09 80.74 117.042 6.133-57.094-46.394-90.94-78.855-129.978-51.658-42.142-109.685-76.38-168.333-108.057-63.557-31.449-133.031-51.563-202.044-65.874-60.658-5.58-125.566-21.883-182.927 7.266-38.428 22.005-72.64-31.984-20.984-42.503 100.33-54.138 220.905-52.763 330.37-32.856 24.14 5.122 71.148 19.853 20.715 10.708-110.68-11.954-225.598-8.005-331.164 29.386-24.18 7.353-43.635 39.223-7.94 9.145 38.053-21.682 85.158-22.204 128.057-31.551 74.242-8.772 150.326-9.615 224.159 2.768 76.474 17.239 150.153 56.488 199.025 118.901 17.98 23.024 53.416 54.325 21.66 10.129-22.377-42.847-104.232-92.085-118.843-101.156 21.504 17.142 91.947 45.647 34.737 8.66-141.343-80.114-321.25-103.599-474.067-42.81-25.569 10.839-95.111 70.89-82.45 10.829 40.945-42.955 102.755-56.935 157.406-74.875 59.605-7.896 120.49-9.767 180.74-7.712 65.572 6.067 130.051 24.46 190.975 48.917 88.981 40.44 149.7 125.107 177.291 216.928 5.138-55.008-37.745-101.047-66.495-143.889-53.974-62.935-132.03-99.422-212.557-113.69-84.486-26.117-173.61-14.834-260.007-8.314-67.531 14.79-133.963 43.202-184.198 92.218-23.945-12.796 24.744-77.723 59.603-84.746 137.773-68.332 304.808-88.281 449.143-28.016 84.149 33.286 162.956 92.595 205.832 173.36 24.71 54.892 45.991 114.387 33.02 175.3-5.314 69.037-3.935 140.234-28.495 206.047-29.839 23.588 3.722 3.948-16.07 32.508-2.269 4.128-8.495 1.678-9.239-2.286m37.804-194.266c3.656-35.419-32.883-109.122-50.65-101.08 26.535 26.973 35.22 75.99 50.65 101.08m-70.618-123.277c-29.456-51.944-97.704-55.86-139.873-93.973-51.104-31.782-114.497-49.275-174.02-33.881 29.807 6.938 87.315-5.905 124.108 18.866 56.833 24.392 105.855 64.313 163.024 87.577 9.302 6.41 14.288 20.771 26.761 21.41" style="fill:#2b0000;stroke-width:.89881"/><path d="M796.574 660.565c-25.825-1.59-99.487-60.242-41.57-30.49 12.434 9.118 36.76 17.889 41.57 30.49M502.214 528.23c-14.356-20.353-103.077-18.764-38.105-23.034 19.149 3.292 127.39 24.866 38.105 23.035M215.1 813.802c-1.667-70.484 79.777-98.153 132.752-123.33 43.73-28.571 131.047 13.411 83.168 61.091-36.622-45.94-102.561-32.534-144.677-1.713-31.764 9.955-40.225 59.28-71.243 63.952M719.84 1391.113c-19.859-32.109-6.124-130.902 36.192-109.104 12.884 29.712-2.11 85.923 15.767 98.869.323-43.082-20.85-91.578 5.76-132.22 25.008-17.536-7.194.24 23.877-20.56 16.153 27.566-22.597 96.968 14.013 135.014 40.265 40.52-48.3 19.55-74.307 32.003-3.82-3.66-21.201 6.495-21.303-4.002" style="fill:#2b0000;stroke-width:.89881"/><path d="M720.326 1390.661c-16.72-35.29-7.73-123.71 34.29-111.488 13.776 33.04-2.362 82.32 14.503 102.645 11.703-46.577-27.116-92.86 11.321-131.875 34.198-51.431 25.585 20.313 17.172 45.306-10.881 38.996 64.9 109.768-13.158 94.02-22.105-16.236-61.214 25.035-64.128 1.392" style="fill:#2b0000;stroke-width:.89881"/><path d="M838.638 1381.733c-26.572-35.896-46.09-84.174-25.075-127.214-2.99-54.343 4.86-107.458 12.322-161.566-13.132-27.612 41.664-50.98 48.219-55.02 3.674 69.956-22.417 143.09 14.32 208.855 12.652 26.334-4.992 98.093 15.05 100.42-5.131-49.424 4.341-102.692-23.479-147.198-15.111-49.789 7.949-100.905.54-151.641-6.657-51.509-1.47-101.84 14.447-151.245 7.148-72.67-6.078 88.079-4.244 48.825 39.95 34.73-27.656 108.473 34.077 131.392 13.759 42.086-23.383 88.818 2.835 129.46-11.533 46.92 32.501 69.305 19.517 111.252 38.49 73.88-70.45 43.752-108.529 63.68m28.82-30.698c-15.708-64.578-11.056-130.67-7.361-196.167 6.685-22.912-13.704-125.773-11.522-60.614 10.262 68.342-2.633 136.788 1.499 205.162 2.182 17.993 5.585 37.172 17.383 51.619" style="fill:#2b0000;stroke-width:.89881"/><path d="M837.421 1377.567c-35.46-39.57-36.124-93.832-21.135-141.31-3.182-57.144-.506-120.935 20.872-174.552 17.517-13.013 43.902-50.56 37.433-4.416-.625 56.931-20.117 115.131 5.732 169.744 24.615 34.425 1.954 110.787 22.592 124.074 5.669-62.528-9.094-123.51-28.67-182.669 8.035-63.27 7.447-127.682 3.877-191.768-4.915-26.195 14.254-90.38 21.162-88.799-27.747 48.357 22.937 89.597-2.654 140.097-7.718 42.006 64.914 61.182 23.343 102.308 5.704 49.888-1.768 111.238 27.014 148.975-1.885 37.499 24.44 93.476-29.525 88.401-26.112 10.166-58.662 5.756-80.04 9.915m29.774-25.592c-4.319-50.185-19.492-99.423-7.388-150.073 2.168-47.54-.485-95.226-6.58-142.399-16.5 44.215 8.542 92.665-2.122 139.282-3.22 51.773-8.217 106.32 12.894 155.265l2.593-1.683zM872.205 932.18c-4.198-22.57 6.04-123.898 9.212-56.872-.557 18.921 2.51 40.676-9.212 56.873M97.614 1435.73c-51.503-13.942 29.547-63.703-8.639-96.565 2.673-44.605 63.237-69.62 46.32-119.847-12.08-46.18-58.062-87.788-21.86-136.352 38.05-52.022-17.42-95.79-22.705-146.498 21.484-54.99 37.564-113.247 7.027-170.456-2.24-53.672 67.44-99.224 42.76-159.006 9.322-33.913 82.222-120.169 77.752-103.275-8.601 14.447 49.091-62.432 37.015-14.336-20.828 10.21-37.469 27.65-5.878 9.476 37.682-35.171 110.774 40.215 39.204 52.464-42.02 35.747-87.759 81.566-93.298 138.393-4.579 63.904-88.2 85.412-70.735 153.007-4.052 72.315 1.13 145.115 21.494 214.664 1.055 65.432 11.804 122.831 25.979 185.47-17.682 56.158-3.907 114.18-14.811 169.988-12.875 16.144-39.854 23.08-59.625 22.873m32.953-657.268c-1.287-48.195 37.998-78.26 62.126-112.607 2.601-26.744 26.448-79.825 31.975-86.02-37.915 34.339-22.82 90.102-63.311 121.398-20.489 16.06-47.485 56.93-30.79 77.229m90.835-206.144c18.179-25.212 59.38-37.607 76.26-55.189-22.708 5.253-86.462 53.835-76.26 55.19m26.922-55.866c44.019-17.968-.364-15.32-10.188 6.46l1.635-.13zM281.307 1407.773c-.546-39.216-12.97-108.567-13.25-127.678 54.174 19.784 33.829 96.26 13.25 127.678" style="fill:#2b0000;stroke-width:.89881"/><path d="M214.702 1434.102c-29.791-13.802-67.984-17.274-46.375-57.865-13.96-62.638 27.348-127.42 1.814-186.402-18.888-29.89-22.487-109.495 1.652-119.623 61.464 1.857.947 88.108 30.396 126.317 21.977 46.2 51.298 80.542 27.973 132.778-17.33 17.447-5.855 95.354-.788 42.276-3.008-31.32 13.253-65.744 19.277-93.628 38.77 33.242-.62 116.726 40.166 133.145 21.078-19.977 12.584-75.673 20.682-82.965 4.954 41.2 2.953 128.47-59.015 88.663-13.548 2.073-20.326 23.134-35.782 17.304" style="fill:#2b0000;stroke-width:.89881"/><path d="M211.107 1431.925c-23.478-14.163-64.523-13.347-41.558-50.623-11.025-58.347 13.018-114.208 9.379-170.214-23.573-38.928-36.86-116.764-6.403-139.89 58.858 2.53-.02 90.147 29.853 127.461 31.9 48.191 46.924 100.748 19.847 156.468-21.44 24.384 21.1 57.798 4.67 18.023 5.195-26.91 23.17-133.53 37.62-59.944 11.344 27.033-9.207 106.51 26.48 99.034 17.486-21.148 12.527-81.728 18.172-88.695 5.316 50.222 2.9 131.247-64.877 95.223-10.174 5.817-19.636 22.106-33.183 13.157M142.938 1022.614c-9.492-56.24-14.487-113.835-10.48-170.62 27.67 34.901 25.507 90.725 19.576 135.165-2.158 12.009-4.761 24.019-9.096 35.455" style="fill:#2b0000;stroke-width:.89881"/><path d="M419.006 1174.818c17.482-52.033 68.045-78.26 116.03-48.78 42.916-25.213 93.366-44.942 128.005 6.645 34.397 50.381-103.84-7.907-138.261 19.664-33.439 12.124-70.503 16.09-105.774 22.47" style="fill:#d35f5f;stroke-width:1.27111"/><path d="M528.957 1227.938c-31.521-3.455-110.13-14.739-98.354-48.668 50.846-12.658 103.833 24.985 152.453-6.454 25.942-2.702 94.437-17.174 92.637 4.472-34.163 43.773-94.541 53.541-146.736 50.65" style="fill:#c83737;stroke-width:1.27111"/><path d="M515.61 1225.662c-25.128 3.41-125.003-33.925-63.406-47.924 55.395 11.12 107.87 6.693 161.156-7.257 27.383-4.91 95.279-11.664 43.915 24.258-39.404 31.537-93.241 35.946-141.665 30.923M420.277 1174.138c16.935-48.7 65.197-77.701 110.024-46.465 44.061-27.012 97.347-41.067 134.548 7.06 29.077 35.604-57.8 7.533-77.81 11.469-57.274-4.285-109.756 24.064-166.762 27.936" style="fill:#c83737;stroke-width:1.27111"/><path d="M444.408 1043.56c-41.879-34.726 6.785-70.037 35.047-76.667 34.45-59.658 16.195-137.182-26.402-187.898-12.98-38.13 15.484-105.173-52.362-102.68-66.84.36-127.624 41.599-174.226 86.555-17.622 55.471-49.625-15.245-35.974-41.74 10.32-76.19 58.823-145.226 125.054-183.117 71.102-33.51 166.757-31.037 222.021 31.182 37.299 37.637 83.91 65.757 112.14 111.206-5.142 12.902-41.038-2.849-22.518 11.675-46.11 2.898-85.235 28.685-69.658 78.864-18.857 55.528-27.426 113.169-19.044 171.738 4.327 42.715 95.099 8.248 76.124 78.398-13.143 29.137-61.835 19.82-43.26-9.38-26.823 13.358-77.068 60.447-90.792-2.136-34.635-10.257 3.132 53.382-36.15 34m57.238-69.496c62.549-9.04.2-15.21 0 0m17.522-15.372c34.733-21.298-25.903-2.276-14.158 6.12l5.872-2.296z" style="fill:#ac9393;fill-opacity:1;stroke-width:1.27111"/><path d="M549.93 1372.148c-44.342-18.693-109.863-10.295-159.22-36.787-71.706-24.35-138.483-75.115-172.527-143.191-4.187-44.527-10.125-89.264-6.326-134.033 54.794 23.36-21.973-107.186 17.092-32.145 4.267 22.852 46.823 78.71 24.558 24.266-29.933-35.367-37.476-99.755-37.74-117.27 20.277 33.249 46.655 103.848 85.637 100.211-14.398-13.679-65.757-59.732-16.89-30.535 44.202 10.543-37.298-31.525-35.119-51.113-12.103-19.431-38.698-74.015-34.606-74.916 15.545 31.69 56.73 93.288 76.719 87.544-27.756-32.88-73.221-80.899-75.584-114.172 11.764 11.927 59.2 85.372 51.383 37.854-60.524-30.879-34.395-95.38 13.407-123.617 23.606-13.523 71.873-26.862 19.37-14.556 17.68-16.75 106.558-28.001 134.173 17.024 35.435 47.03 59.173 102.654 49.862 162.435.137 51.917-102.938 45.104-58.489 110.165 22.15 37.623 54.822-15.176 77.653 17.703 39.696-26.68 124.572 16.58 119.497-57.481-.852-62.94-99.404-21.273-75.366-96.517-10.266-42.517 6.072-96.585 25.717-122.96-21.114 4.014 43.365-51.89 68.612-53.779 58.829-25.631 120.582 9.602 169.996 39.76 39.631 27.402-2.174 103.193 8.762 116.627 7.46-25.78 13.121-68.786 21.916-78.134 5.854 49.955-15.847 58.897-20.36 108.859-18.98 49.042-7.334 100.1-13.516 150.789 5.519 42.307-5.33 89.574-10.315 126.347-52.224 89.427-149.025 139.31-239.5 181.866-.294-1.408-10.172 6.046-8.796-.244m-32.926-104.567c21.294-5.256 118.393 7.689 49.102-8.786-25.34-10.908-117.46 26.786-49.102 8.786m64.704-33.149c40.073-9.337 133.008-46.56 103.835-94.01-33.614-42.668-94.916-69.965-138.146-25.11-32.256-4.504-67.873-34.293-97.995 2.017-49.52 31.987-52.599 106.308 18.132 109.883 37.367 7.256 76.204 13.356 114.174 7.22m-277.607-16.012c-26.21-14.671-33.914-41.272-39.751-68.298-4.895 24.37 3.13 78.478 39.751 68.298m421.02-14.68c28.478-10.475 35.46-78.178 12.805-21.47 1.122 14.837-48.273 38.016-12.805 21.47m-236.04-131.664c15.678-36.154-30.99 35.814 0 0m81.857 8.097c-.277-17.132-16.744-48.714-15.185-7.666 3.058 3.74 9.886 14.774 15.185 7.666M267.915 866.347c20.59-34.985 91.098-112.82 112.91-40.913 5.082 72.23-105.061-2.862-30.667-17.942 33.278 19.991-9.263 52.81-11.414 8.328-30.665 52.745 65.904 17.601 23.152-13.028-69.382-26.105-42.914 92.633 11.107 55.393 13.287-26.11 26.5-42.985 40.86-5.501 35.708 36.012-20.467-60.84-40.277-64.333-53.007-10.939-92.478 48.278-110.737 85zm472.399-10.559c-4.832-43.444-62.503-106.785-106.748-53.252-25.187 17.8-55.074 73.012-15.008 21.776 25.443-52.492 28.617 73.225 74.51 19.712 35.22-41.902-47.06 38.137-47.733-21.99-6.607-37.242 60.945-33.876 17.536-15.704-7.711 40.362 36.621 19.736 32.452-7.034 20.564 11.323 26.059 51.053 44.99 56.492m-115.388-13.274c-3.248-4.56-3.248 4.56 0 0" style="fill:#ac9393;fill-opacity:1;stroke-width:1.27111"/><path d="M253.12 1514.92c9.046-40.892 54.894 5.184 32.446-34.782 6.814-54.062 27.248 11.272 16.134-2.17-21.73-25.564 9.228 47.274 21.469 14.592-15.989-20.817-21.333-60.585 3.26-17.894 43.869 17.506-42.833-54.499 6.055-21.815 50.157 13.319-26.97-56.112-13.7-85.195-2.025-18.208 26.783 70.528 38.99 45.51-19.071-10.073-45.231-95.168-16.467-40.56 11.707 27.744 46.393 16.632 10.978-4.183-28.018-15.898-24.384-53.01 10.606-27.18 54.822 28.68 116.111 46.1 177.73 50.043 60.69-4.694 102.794-58.235 159.95-73.196 8.047 48.806 7.406 115.13 55.518 149.925 64.411 41.802-42.327 34.93-73.12 33.648-50.218-1.931-101.347 11.314-150.97 6.618-63.59-16.808-130.57-.735-195.313.35-27.914.483-56.21 5.473-83.566 6.29m339.626-19.258c28.255-25.544-43.36-115.095-14.93-48.1 17.561 8.937 4.42 61.81 14.93 48.1m-132.334-20.997c-7.909-16.835 5.662-75.903-12.654-30.12-11.443 18.67 24.936 81.461 12.654 30.12" style="fill:#ac9393;fill-opacity:1;stroke-width:1.27111"/><path d="M674.836 821.94c-24.155-46.592 39.478-14.12 0 0" style="fill:#000;fill-opacity:1;stroke-width:.449405"/><circle cx="306.307" cy="1316.928" r=".445" style="fill:#000;stroke:#000"/><circle cx="306.307" cy="1316.928" r=".445" style="fill:#000;stroke:#000"/><circle cx="306.307" cy="1316.928" r=".445" style="fill:#000;stroke:#000"/><path d="M951.398 1138.125c-7.936-24.592 13.218-45.274 4.874-6.27 35.883-10.103 50.252-61.658 73.782-90.797 28.5-34.835 48.47-75.32 75.685-111.268 30.226-51.988 65.543-100.843 92.884-154.617 35.332-55.63 69.94-111.76 106.066-166.782 23.24-42.141 57.103-77.67 78.46-121.167 36.977-48.007 67.799-100.482 98.552-152.564 11.288-58.358-50.823 23.261-66.322 38.52-34.656 29.241-58.942 67.917-88.974 101.556-36.583 50.11-74.27 99.426-105.175 153.37-41.191 63.844-82.238 127.777-117.169 195.345-34.183 56.772-62.234 116.937-96.164 173.8-16.77 42.08-47.089 77.289-61.823 120.394-18.426 21.26 13.125-39.137 20.9-52.213 26.142-41.692 45.146-87.102 71.118-128.932 35.65-68.523 74.442-135.424 112.128-202.775 51.101-76.797 95.157-158.372 152.572-230.855 29.72-40.345 60.444-80.403 95.309-116.325 28.508-28.689 54.346-61.498 88.31-84.154 11.703 42.45-34.88 76.443-50.407 113.732-27.105 41.992-56.499 82.305-82.315 125.158-31.777 38.796-52.86 84.226-82.638 124.446-34.482 56.418-71.51 111.325-102.217 169.92-32.452 46.328-57.74 97.028-92.616 141.706-21.398 41.863-55.057 75.772-75.838 118.19-13.637 13.793-27.414 44.16-48.982 42.582m182.385-5.751c-.908-40.611 28.522-75.65 42.296-112.982 24.498-61.064 66.547-112.616 98.602-169.539 31.618-44.337 57.214-92.515 91.716-134.795 28.722-41.722 62.783-79.59 86.117-124.926 28.425-30.427 40.404-69.533 58.617-105.74 22.251-42.206 51.227-81.51 67.819-126.122 21.459-50.351 75.742-4.445 42.847 30.788-18.139 35.866-36.132 72.766-61.74 104.208-36.975 66.835-75.74 132.637-115.09 198.11-54.576 77.558-104.873 157.77-154.355 238.609-27.975 39.92-50.864 82.969-81.48 120.875-26.233 24.998-36.875 76.183-75.349 81.514m16.422-8.89c30.81-29.592 48.798-71.416 78.223-103.383 38.613-59.904 77.277-120.012 114.789-180.614 38.535-65.037 85.507-124.874 123.315-190.43 31.34-53.179 61.74-106.972 93.256-160 26.158-34.2 44.893-73.479 63.063-112.113 14.397-49.683-47.378-39.365-45.967.555-25.498 43.372-51.568 86.795-74.19 131.825-12.444 46.292-50.531 78.639-70.686 121.262-41.399 58.229-87.794 113.205-123.636 175.238-36.954 51.953-67.877 107.631-102.792 160.938-23.651 49.225-48.946 98.164-67.379 149.595-3.143 10.97 3.79 16.747 12.003 7.127m-371.074-11.528c6.882-41.965 21.161-81.796 32.6-122.555 34.748-75.543 67.59-152.102 110.396-223.643 62.809-117.18 134.533-229.967 218.603-333.12 54.105-72.08 116.34-138.74 187.508-194.162 18.234-11.287 84.03-70.432 55.363-20.184-30.65 44.549-68.076 84.692-99.525 128.976-57.465 71.954-112.93 145.503-167.429 219.739-47.03 65.323-96.244 129.134-138.214 197.898-43.881 70.156-84.394 142.43-120.709 216.82-27.72 40.797-40.094 90.381-68.249 130.096-2.103 1.335-15.122 17.185-10.344.135m12.374-5.898c32.102-72.838 71.774-142.367 107.68-213.652 32.494-55.919 63.934-112.477 100.336-166.004 47.479-72.577 101.533-140.694 151.78-211.433 49.927-65.559 99.69-131.345 150.804-196.03 25.287-37.768 61.498-68.417 81.15-109.548-23.278-1.564-71.226 46.847-98.87 68.915-62.854 54.48-115.307 119.655-164.918 186.132-96.964 123.005-173.427 260.404-245.663 398.897-21.668 52.852-51.918 102.316-66.655 157.723-9.134 26.218-12.854 31.269 3.982 10.588-6.114 17.202-36.467 72.529-19.626 74.412m90.293-30.793c9.073-30.176 31.545-60.853 44.576-91.774 34.3-57.414 63.843-117.585 98.3-174.87 33.426-50.29 65.024-101.867 103.177-148.878 12.74-14.345 49.271-60.975 55.708-48.269-20.04 42.359-48.898 79.933-72.236 120.563-43.018 72.036-89.147 142.216-126.983 217.172-30.324 39.642-47.717 92.261-93.954 117.277-2.752.303-6.755 14.215-8.588 8.779m32.74-29.444c29.636-35.351 52.941-75.843 75.322-115.877 49.058-89.83 105.374-175.448 157.636-263.322 13.011-12.194 48.372-80.876 14.054-38.808-31.26 27.4-53.152 64.11-78.547 97.029-31.654 50.766-67.638 99.009-92.789 153.554-35.003 59.625-68.378 120.27-98.615 182.263 7.114.363 16.765-10.3 22.94-14.84m262.193-149.03c1.24-39.469 33.077-75.019 55.863-106.282 38.824-55.271 83.249-106.516 120.575-162.784 10.524-19.716 56.436-75.935 57.313-64.565-34.734 26.556-53.547 67.192-79.546 101.412-41.536 56.742-86.873 110.94-126.08 169.175-11.23 12.197-39.682 82.7-5.838 45.717 46.861-52.132 79.629-114.898 116.614-174.02 28.889-40.938 56.371-83.22 85.977-123.585 11.69-18.258 39.547-50.48 13.33-12.59-30.812 34.143-49.017 77.25-80.18 111.301-44.739 70.742-83.08 146.94-140.815 208.424-4.853 2.99-10.285 13.496-17.213 7.797m11.734-357.221c30.238-50.487 64.991-98.306 97.479-147.286 9.328-16.607 59.604-49.272 19.674-16.866-37.394 38.272-59.67 88.276-93.059 129.95-12.6 18.234-21.258 40.536 1.506 13.497 32.233-40.629 78.562-69.55 102.806-116.449 13.766-15.292 46.577-80.362 23.852-28.444-24.074 36.18-47.762 72.166-80.935 100.998-26.104 17.848-42.827 56.075-71.323 64.6" style="fill:#000;stroke-width:1.33333" transform="matrix(1.11632 0 0 1.19113 -804.759 85.014)"/><path d="M1301.987 384.212c7.01-4.177 13.638-9.03 19.619-14.588 2.85-2.65 5.55-5.58 8.227-8.401 2.12-1.987 4.623-6.044 7.322-7.456.39-.204.867-.173 1.307-.195.525-.027 1.134-.233 1.578.05.348.222-.819.115-1.228.173 1.348-.076 12.16-.126 5.277-.105-.023-.104 1.025.132.94.067-.355-.27-.86-.302-1.201-.589-.98-.82-1.187-1.304-1.709-2.236-1.338 3.317-2.387 6.741-3.63 10.097-1.092 3.425-2.926 6.423-5.05 9.285-1.036 1.673-2.277 3.205-3.405 4.812-.396.565-.73 1.173-1.144 1.725-.544.725-3.328 3.86-3.595 4.165-3.907 4.717-1.93 2.285-5.925 7.299-.437.727 9.852 6.896 10.288 6.169 3.722-5.283 1.988-2.688 5.226-7.77.564-.909 2.307-3.743 3.041-4.83 1.52-2.25 3.604-4.103 4.808-6.58 2.151-3.612 4.486-7.157 5.897-11.147 1.562-4.18 2.986-8.466 3.474-12.922-.111-.952.012-1.962-.334-2.856-.964-2.488-1.835-2.997-4.018-3.918-.321-.136-.904.21-1.223-.032-.94.001-1.88.01-2.82.003-.148 0-.59-.027-.443-.026.86.008 1.723.137 2.577.047.338-.036-.664-.142-.996-.214-2.022-.44-.756-.192-3.113-.605-3.918.016-5.484-.397-8.895.792-5.068 1.766-8.892 5.713-12.703 9.299-1.274 1.213-2.52 2.46-3.824 3.641-7.199 6.52-15.131 12.235-21.829 19.303-.533.53 6.971 8.073 7.504 7.543zM1391.137 586.805c.587-.453 1.207-.865 1.76-1.359 5.807-5.195 10.904-12.152 15.34-18.505 3.277-4.867 6.92-9.068 11.68-12.52.498-.36 3.905-2.494 4.529-2.886 2.375-1.383 3.94-1.968 5.298-4.601.226-.44.243-.957.365-1.436-.017.111.058.358-.052.333-3.255-.75-6.353-2.315-9.683-2.576-.672-.052-.716 1.143-1.033 1.738-1.419 2.665-2.272 5.51-3.22 8.363-.92 3.848-3.155 7.088-5.226 10.385-.347.71 9.7 5.622 10.047 4.911 2.293-3.973 4.675-7.95 5.788-12.451.756-2.414 1.318-4.882 2.159-7.265.159-.451.9-1.058.514-1.339-2.604-1.892-5.567-3.277-8.546-4.499-.285-.117-.168.594-.251.891.446-1.433.032-.407 1.417-2.307.048-.065.187-.232.107-.217-1.441.265-3.17 1.265-4.528 1.652-2.221 1.133-3.782 1.86-5.923 3.292-5.704 3.816-10.266 8.985-14.236 14.532-4.563 6.7-9.204 13.353-14.2 19.742-.432.558 7.46 6.68 7.894 6.122zM963.22 1098.9c1.73-6.013 2.13-12.279 2.832-18.463.511-4.508.27-1.594.452-3.945l-11.847 2.342c-.683-.602-1.346-2.384-2.049-1.805-1.122.923-.638 2.835-.933 4.258-1.7 8.215-2.8 16.462-3.878 24.779-.888 8.248-1.467 16.55-1.412 24.852.01 1.48.029 2.963.18 4.434.063.606-.147 1.7.458 1.769 4.726.538 9.512-.061 14.268-.092 1.5-5.723.781-2.629 2.071-9.304.111-1.141-16.032-2.715-16.143-1.573-.313 7.058-.404 3.821.059 9.714 4.666.88 9.254 2.421 13.998 2.64.714.033.686-1.268.889-1.954.427-1.451.721-2.94.992-4.428 1.476-8.093 2.02-16.31 2.854-24.482.64-8.354.844-9.961 1.173-18.082.028-.687.378-10.396.11-12.058-.383-2.383.41-6.154-1.85-7.001-3.964-1.487-8.402 1.054-12.603 1.581-.446.888-.99 1.732-1.339 2.663-2.664 7.124-2.523 15.646-2.697 23.146-.071 1.02 14.344 2.028 14.415 1.009z" style="fill:#000" transform="matrix(1.11632 0 0 1.19113 -804.759 85.014)"/><path d="M185.902 929.766c.537-1.888 1.39-14.168 1.897-27.287l.92-23.853 12.953-21.913c7.124-12.052 16.817-29.853 21.54-39.558s11.937-23.435 16.031-30.511c4.095-7.076 19.88-36.076 35.08-64.443 15.199-28.368 33.977-62.693 41.73-76.277s19.217-34.18 25.477-45.766c15.578-28.834 45.476-78.594 75.482-125.623 13.784-21.605 29.838-47.127 35.676-56.716 40.233-66.084 129.034-183.586 169.094-223.745 9.565-9.59 25.817-26.751 36.115-38.137 24.983-27.625 37.782-37.875 43.148-34.56.844.523 1.535 4.637 1.535 9.144 0 7.962-.592 9.182-20.95 43.138-26.245 43.774-47.126 76.05-65.298 100.927-7.768 10.634-15.99 23.022-18.272 27.527-5.333 10.53-17.802 29.455-39.693 60.24-9.61 13.514-21.53 31.196-26.489 39.292s-17.843 28.451-28.632 45.232c-39.193 60.963-86.592 136.786-91.123 145.767-9.35 18.536-70.108 117.382-93.03 151.35-6.202 9.19-19.624 29.784-29.827 45.766s-24.925 37.558-32.716 47.946c-7.79 10.388-19.253 27.714-25.473 38.501-18.994 32.947-31.589 49.199-42.761 55.178-3.18 1.702-3.33 1.601-2.414-1.619" style="fill:maroon;stroke-width:1.45289" transform="matrix(1.11632 0 0 1.19113 65 316.56)"/><path d="M360.666 931.902c-4.665-4.665 9.327-40.225 45.356-115.263 15.277-31.818 24.613-48.979 40.314-74.098a33088 33088 0 0 0 37.587-60.295c9.435-15.183 24.163-38.066 32.73-50.851 8.566-12.786 20.65-31.42 26.853-41.408 14.096-22.698 30.365-45.663 70.422-99.405 33.348-44.742 36.85-49.763 47.994-68.834 3.874-6.63 14.483-22.648 23.576-35.596 9.093-12.949 19.065-27.75 22.16-32.89 6.221-10.335 15.217-30.11 15.245-33.513.029-3.428 26.65-52.49 51.72-95.319 17.079-29.178 23.162-40.851 24.017-46.093 1.642-10.055 7.429-19.08 15.125-23.591 18.354-10.756 32.672-2.252 30.808 18.299-.589 6.494-3.671 13.92-16.048 38.651-17.552 35.073-26.202 50.221-40.959 71.73-5.756 8.391-20.922 33.235-33.702 55.21-88.833 152.747-82.651 142.635-131.909 215.755-17.764 26.37-49.267 75.079-70.007 108.241-52.883 84.559-103.933 163.326-112.526 173.62-4.002 4.795-15.69 21.14-25.975 36.323-31.236 46.115-47.6 64.508-52.781 59.327" style="fill:red;stroke-width:1.45289" transform="matrix(1.11632 0 0 1.19113 65 316.56)"/><path d="M9.78 909.612c-1.456-1.455-1.695-3.04-1.286-8.524.587-7.872 4.64-19.197 16.205-45.263 4.387-9.889 7.77-18.197 7.516-18.464s-2.726 2.045-5.495 5.137-5.056 5.213-5.08 4.713 1.52-5.354 3.434-10.787c1.913-5.433 5.43-16.12 7.816-23.748 7.33-23.437 14.225-39.797 37.233-88.352 7.363-15.54 15.903-34.031 18.978-41.094 10.613-24.381 60.63-117.631 95.506-178.058 46.579-80.705 92.988-151.618 137.954-210.795 7.728-10.17 21.609-28.432 30.845-40.58 47.915-63.023 90.293-111.858 126.808-146.13 19.215-18.034 70.715-62.3 84.265-72.429 16.244-12.142 30.64-19.787 37.26-19.787 1.776 0-2.08 7.748-9.691 19.474-7.901 12.173-15.448 21.91-36.642 47.277-10.138 12.134-22.363 27.39-27.167 33.903-4.803 6.512-15.974 21.087-24.823 32.388-43.656 55.752-123.86 160.9-145.362 190.574-8.394 11.583-28.915 39.553-45.601 62.155-69.6 94.27-107.116 149.626-145.175 214.202-28.412 48.209-47.808 82.587-61.443 108.9a15113 15113 0 0 1-30.82 59.072c-20.654 39.34-43.608 85.248-54.45 108.9-4.663 10.17-8.595 18.63-8.738 18.798s-1.065-.499-2.048-1.482M114.057 864.387c0-1.04 27.556-54.59 40.354-78.422 13.082-24.36 36.383-66.015 48.56-86.811 4.633-7.911 11.94-21.412 16.24-30.001 12.815-25.6 23.518-43.259 64.636-106.637 22.53-34.73 60.786-87.849 74.727-103.763 10.731-12.249 37.368-38.894 37.747-37.757 1.156 3.469-14.137 32.34-24.176 45.64-3.125 4.14-12.349 18.568-20.497 32.062-8.148 13.495-27.657 45.394-43.353 70.888-48.806 79.273-68.649 112.792-100.722 170.148-29.317 52.428-57.672 95.546-73.048 111.082-8.417 8.505-20.468 16.495-20.468 13.57M421.784 333.673c1.64-5.52 9.497-18.471 19.218-31.68 5.765-7.832 19.67-28.47 30.902-45.859 30.196-46.755 44.935-66.284 50.188-66.497 4.277-.173 13.697-7.207 25.845-19.302 6.119-6.092 11.541-10.819 12.05-10.505 1.35.835-2.562 10.41-6.692 16.378-1.964 2.838-5.892 7.934-8.728 11.324l-5.156 6.165 2.517 2.23 2.516 2.231-3.578 4.96c-1.967 2.73-6.227 9.225-9.466 14.437-10.331 16.625-22.308 30.382-50.504 58.014-15.014 14.714-30.455 30.282-34.312 34.595-22.905 25.614-26.415 28.94-24.8 23.51M405.441 694.832c-2.754-2.754 2.27-20.574 10.655-37.797 7.336-15.066 30.286-47.479 73.472-103.765 48.333-62.996 68.073-89.726 86.551-117.201 23.245-34.564 31.115-44.67 34.164-43.874 2.691.704 9.26-5.361 16.093-14.86 3.893-5.41 6.494-7.811 6.494-5.993 0 .234-7.545 10.983-16.766 23.885s-25.483 36.173-36.138 51.712c-10.655 15.538-24.99 36.342-31.854 46.23-13.037 18.779-16.134 23.707-45.522 72.429-28.435 47.143-46.405 73.925-66.545 99.173-16.377 20.53-28.361 32.303-30.604 30.06M186.272 930.494c.353-.92 1.195-12.892 1.87-26.605l1.23-24.932 12.222-21.07c6.722-11.587 16.195-28.928 21.052-38.533s13.56-26.018 19.34-36.471c5.78-10.454 21.141-38.654 34.135-62.669 28.97-53.54 75.882-137.9 88.92-159.905 25.588-43.183 84.634-137.52 109.142-174.376 35.214-52.953 86.159-120.759 123.209-163.984 6.053-7.063 21.942-24.4 35.307-38.526 48.361-51.113 57.733-60.065 64.726-61.82 3.324-.834 4.242.982 4.261 8.427.02 8.06-2.471 13.219-22.04 45.627-25.393 42.055-39.236 63.345-70.444 108.343-5.055 7.289-10.993 16.535-13.195 20.547-5.16 9.401-17.142 27.523-36.067 54.553-18.821 26.881-18.87 26.957-62.583 95.779-57.77 90.952-77.826 123.308-91.557 147.703-29.45 52.322-115.089 186.25-154.981 242.373-5.59 7.865-15.418 23.016-21.839 33.668-13.958 23.157-22.367 35.161-30.45 43.466-6.526 6.705-13.42 11.431-12.258 8.405" style="fill:red;stroke-width:1.02735" transform="matrix(1.11632 0 0 1.19113 65 316.56)"/></g></svg>