<svg xmlns="http://www.w3.org/2000/svg" width="778.719" height="1327.719"><g transform="translate(-171.548 -312.126)"><path d="M797.314 1639.846c-42.047-41.689-103.065-2.624-153.02-11.318-57.562-18.468-117.139-12.304-176.403-16.365-53.217-4.457-123.82 22.567-164.263 1.369 46.502-26.881 66.349-80.888 67.631-132.581-7.008-41.078-66.883-105.272-83.37-113.512 3.544 24.649-5.781 62.51-15.392 15.601-13.463-57.93-27.015-116.482-34.69-175.104-3.383 22.028-24.345 90.43-18.102 30.287-6.39-39.836-20.196-101.729-17.24-128.303-34.53 25.198 9.456-55.897 6.567-74.064 9.047-48.2-21.077-91.74-22.343-139.812-6.895-46.477-10.666-93.331-15.141-140.081 14.93-30.797 27.25 55.982 19.455.954-8.292-52.922-34.305-144.902 4.722-172.752-2.894-38.887 9.793-66.427 33.67-80.532 19.799-22.12 19.726 64.13 21.52 4.194-4.473-46.46 30.72-87.497 51.373-106.322-1.895 29.586 10.157-12.786 10.901 19.05 1.652 30.942-1.415-26.908 11.087-6.737 10.133-35.704 15.163 60.49 18.636.442.603-36.866 22.515-12.3 14.678 9.947 6.683-25.668 44.564-112.685 34.648-40.201 4.96-23.324 30.119-76.781 26.5-19.352 4.336-20.177 14.28-50.994 20.416-21.745 16.34 23.979 5.335 102.162 15.623 33.636 16.283-51.718 15.132 66.273 21.929-3.668 7.42-31.49 6.445 28.233 15.152-5.314 21.43-27.232 10.09 27.35 26.347-9.423 1.544 44.577 27.212-64.68 30.354-3.909 10.902-56.817 23.123 41.362 27.076-6.177 7.113-46.23 28.328-11.362 29.844 10.9-2.148-22.252 1.52-77.87 9.265-24.112.286 26.648 34.397 68.952 25.862 15.164 1.13-89.332 40.674 61.587 35.516 31.32-4.074-19.21-2.604-102.037 9.485-40.026 4.739 18.413 10.506 49.836 19.828 19.702 19.763 14.128 33.884 106.99 34.095 36.795 17.137-18.847 32.945 90.298 35.457 21.774 21.855 3.179 39.76 85.792 44.572 22.053 20.909 2.93 23.335 81.106 31.532 23.984 19.315 27.085 14.793 94.733 32.824 105.185 23.55-13.956 28.114 63.702 28.836 90.002 9.872 42.157-11.454 110.21 5.827 136.985 14.427-24.475 4.402-89.066 23.126-90.109 18.61 53.903.483 112.697 4.443 168.615 1.28 73.683 12.884 150.478-14.213 221.198-28.924 14.753-5.426 67.365-27.579 76.026-11.234 35.674-3.95 64.573-3.415 103.303-3.228-25.002-34.737-114.957-18.797-41.64 6.4 37.162-4.831 82.902-34.066 71.79-26.27 14.74-13.596 93.99-42.48 77.715-9.34-20.361-35.027 54.305-51.715 71.64-37.294 40.88 3.411-91.677-28.6-25.956-15.092 27.331-51.408 93.043-54.402 86.528-5.185-23.537 5.507-82.25-15.401-31.039-5.823 30.83-43.687 75.2-43.14 14.689-13.593 23.011-31.758 44.645-56.303 28.807-32.59 2.446 20.788 25.13-15.475 14.673-22.219-9.198-64.642-87.797-44.143-22.555-36.253-22.717-75.323-38.055-106.693-72.046-4.222 33.538-23.426 90.02-45.552 130.702-25.241 20.598-45.403 52.4 2.476 29.438 52.228 10.082 100.561-10.616 154.304-2.03 52.771-1.816 104.649 2.906 156.077 15.81 41.169-1.847 85.246-14.355 125.251-9.62-18.144-42.222-35.628-86.104-27.06-134.413 10.146-37.658 2.51 99.968 9.734 63.23-3.113 35.43 59.484 84.091 32.36 97.31m-209.766-108.93c-2.245-3.872-1.317 3.792 0 0m40.846-5.85c-2.025-11.304-5.765 14.19 0 0m-45.846-1.15c-4.81-7.583 2.304 6.968 0 0m-22.07-3.243c-4.8-12.043-5.98 15.5 0 0m38.035-8.756c26.997-27.859-.549-110.314-29.759-88.572 1.85 48.498-33.303-48.442 15.184-14.64 31.52 41.021 22.747-88.249 57.88-20.073 20.68-23.32 39.112-15.338 62.083-6.277 11.441-24.87 13.36-38.333 8.236-2.963-16.271 25.146-65.515-24.92-68.531 20.223-30.211-51.51-48.707 25.377-24.524 44.495 6.321 14.121 10.44 98.9 23.273 41.35 13.185-19.15 34.308-84.46 47.573-72.113 3.398 24.97-8.654 89.664 12.873 34.848 7.733-25.199 43.263-104.795 53.978-37.334 2.985 33.299-12.992 42.442 6.484 6.579 31.066-51.318 66.002-106.44 63.846-168.662-37.245-16.889-38.445 42.315-61.859 62.245-6.519 8.66-22.4 44.945-12.633 4.15 43.469-18.591 16.928-87.012 64.065-72.863 13.207-17.337-1.556-89.88 23.906-40.271 3.107 30.72 22.639 42.413 18.352 2.488-8.807-22.456-32.46-111.535-5.625-50.178 14.511 34.682 25.75 135.292 20.871 122.87 3.738-49.036-3.922-98.781-20.874-144.637 17.148-7.485 54.451 102.798 42.316 26.611-7.686-20.971-47.574-99.487-2.157-51.528-1.752-36.202-9.437-100.902-39.44-120.91-38.99 4.826-54.729 12.51-78.285 47.67-25.54 6.04-118.03-2.275-94.95 36.925 46.267-15.527 77.92 39.733 88.522 77.648 10.726 41.638 18.766 91.95-17.98 123.384-18.446 41.396-61.405 56.445-102.414 65.317-46.078 25.682-89.863-10.697-138.355 5.403-59.158 2.664-131.54-22.8-146.99-86.674-11.464-46.678-.997-97.204 28.314-135.859 54.173-34.08 3.9-95.734-47.33-75.782-30.57-14.393-77.287 2.975-72.045-31.615-34.611-54.886-63.316 45.966-68.72 75.635 9.5-12.094 62.856-50.022 37.302 4.632.37 27.429-26.308 80.579-2.257 92.316 20.48-11.999 9.087 58.153 19.05 79.271 3.353 23.23 21.16 123.73 17.41 55.266-6.516-33.813 20.697-62.327 18.177-13.36 5.907 35.825 38.13 107.944 64.534 105.641-16.198-24.177-21.65-88.342 2.291-29.187 23.705 46.078 69.612 75.168 110.085 104.642-15.666-24.168-15.963-96.677 14.381-39.701 11.422 26.1 89.095 91.796 53.178 28.714-23.16-22.84-14.502-62.704 11.609-23.18 15.682 3.004 39.162 89.616 48.955 58.056m-173.465-79.414c-38.447-15.456-32.712-55.635-13.111-44.646-38.724-25.007-.385-71.896 11.505-35.3-61.963-21.18 43.055 58.952-22.177 47.247 3.944 6.492 53.389 34.784 23.783 32.7m-105.989-110.67c-17.232-31.676 11.109-69.798-21.67-105.822 7.179-17.563 36.358-26.792 2.954-48.706-18.6-6.608-29.38 41.407-12.827 1.443 17.323-21.38.317-56.922 21.439-15.248 13.595 22.8 17.128-33.578 11.76 8.774-3.508 26.446 6.03 42.159-14.13 54.742 2.746 22.526 40.286 63.19 12.537 68.744.239 6.748 26.143 58.32-.063 36.073m462.884-216.998c-18.819-6.32-27.339-21.615-11.208-39.554 14.08 49.183 30.107 28.972 31.248-7.437 19.163 12.878 28.658 18.345 29.348-8.266 17.01 45.72-37.641 12.284-37.008 53.583l-5.195 2.873zm-523.585-25.417c14.994-17.542 101.61 7.262 41.69-4.67-13.772-7.008-35.4 5.713-41.69 4.67m407.091 372.362c8.177-44.7-29.239 70.18-.104.257zm-235.985 14.854-3.387-2.058zm112.24-4.499c-14.175-17.002 5.887 11.82 0 0m209.858-13.218c1.962-8.377-14.67 25.248 0 0m-77.09-4.942c-2.619-4.567-2.616 15.848 0 0m-293.58-1.548c-.937-26.198-17.89-11.434 0 0m332.99-4.76c17.029-11.732 29.634-69.254 8.502-22.974-.28 1.643-21.296 38.587-8.503 22.974m-38.651 1.062-.185 1.806zm114.854-51.693c20.402-30.88-17.151 22.254 0 0m-497.537-39.497c.769-22.139-9.3.593 0 0m321.5-2.382c48.366-20.132 117.3-21.631 135.932-81.357 40.035-50.375 15.234-121.68-17.994-168.859-40.968-32.331 36.167 53.532 23.662 77.674-22.156 13.771-29.333-120.441-73.222-69.564 8.426-5.94 7.894-51.352-9.665-13.157 9.422 34.58 3.238 92.083-41.015 46.745-29.968-16.665-52.663 89.413-82.32 32.312-7.379-64.466-77.965 37.723-80.126-31.725-38.632-63.885-56.008 38.306-62.124 70.013-24.787 32.767 1.879-50.421 5.404-68.93 4.537-44.116-59.532 54.832-38.863 85.78 5.288 61.882 60.924 115.78 124.751 110.064 39.076.277 79.534-9.365 115.58 11.004m-49.5-36.402c-55.87 1.916-129.476-7.159-151.843-66.668 24.383-25.273 78.733-19.883 78.588-67.086 5.746 61.014 84.309 51.63 127.796 35.984 41.469 3.813 17.147-69.127 50.354-28.784 19.746 8.778 111.853 8.913 73.225 61.065-33.34 36.089-82.413 68.683-131.445 63.579-15.208.872-31.83 7.508-46.675 1.91m20.974-5.588c-24.313-45.408-59.468 9.458 0 0m29.8-1.13c42.462-8.039-35.451-45.362-24.488.796 6.17 4.202 16.92-1.614 24.487-.795m-81.086-1.629c7.154-33.41-30.867 10.528 0 0m-19.688-1.017c-16.31-17.43-8.415-99.878-29.13-82.418-12.623 31.012-29.036 94.188 29.13 82.418m134.782-.125c64.942-22.446-43.522-25.68 0 0m-97.006-11.673c15.37-30.638 48.512 29.73 59.903-17.292 17.165 7.064 33.709 42.957 33.252 1.853 63.882 17.465-22.396-99.104-16.248-21.334-14.996-9.125-26.337-44.595-19.592-2.09-5.066 32.372-54.238-34.295-57.433 10.964-16.304-10.37-29.25-51.024-29.916-7.126-27.997-16.285-2.847 60.235 9.225 24.842 7.806 3.377 14.735 33.641 20.809 10.183m133.724-2.761c76.87-10.059-20.328-85.48-24.47-90.318 7.152 30.187 8.2 63.21 24.47 90.318m-221.5-1.732c-.65-52.576-50.352-13.49 0 0m-20.889-27.135c59.53 7.263-28.754-53.854-6.166.157l2.796 1.674zm159.124-32.048c-30.587-18.073-36.634 38.183-1.489 27.694 2.157-9.133-1.31-18.566 1.49-27.694m131.347 20.75c-7.375-40.47-20.858 21.859 0 0m-179.224 4.5c12.962-44.974-40.879-16.207 0 0m-127.897-4.659c-12.936-17.182-2.853 16.699 0 0m92.468-5.304c18.7-38.253-38.68-7.884-1.09 5.33l.619-3.022zm109.614-5.905c9.845-45.961-26.51 11.551-.154.745zm86.525 2.032c3.39-16.394 34.366-21.1-2.556-32.854-62.99-28.482 3.039 42.36 2.556 32.854m-237.542-12.167c-7.602 5.857-3.744 19.008 0 0m-8.308 5.003c23.686-30.257-39.602 9.367-2.045 4.002l1.403-2.747zm275.204-2.789c7.567-26.072 4.199 12.526-4.98 4.715zm-83.885 1.789c2.956-31.72-33.552-21.446 0 0m54.463 45.924c9.79-18.079 7.313-.542 0 0m109.244 40.826c-1.509-20.502-1.093 36.33 0 0m-535.561 8.812-.185 1.806zm555.767-20.32c5.64-28.725-8.997 17.574 0 0m25.931-2.044c-1.583-3.53-1.434 5.605 0 0m-33.385-16.259c9.247-22.662-11.377-58.221-3.996-14.898 1.322 4.686-2.876 39.226 3.996 14.898m-460.576-19.44c-4.292-30.2-17.368-10.55 0 0m481.973-.331c8.039-24.683-10.537-5.662 0 0m-1.393-22.04c-5.088-4.083-1.455 10.51 0 0m-634.317-38.566-.185 1.806zm143.873-18.59c-3.442 7.39 3.24 14.22 0 0m-146.54-18.87c-.841-19.366 23.572-117.575-2.883-64.815-11.868 6.824-6.54 108.476 2.884 64.815m357.206 4.648c28.533-21.922 35.599-95.584 76.564-37.571 33.266-39.652-7.618-122.482-52.084-60.396-24.082-40.252 47.904-95.73-4.738-133.853-25.71-58.516 34.893-97.355 67.976-134.257 36.348-25.652 91.494-82.51 138.142-45.751 32.355 28.568 59.753 62.406 75.918 102.87-22.515 1.104-59.774-42.901-87.388-60.584-41.694-51.033-103.346 14.21-139.848 44.936-26.404 35.957-66.562 82.006-17.919 120.765 13.784 26.232-35.211 88.497-16.271 83.69 39.17-25.721 86.16-12.59 127.482-24.39 32.63 4.197 49.112-41.117 86.153-44.413 9.949-21.13 12.632 12.425 26.113-15.597 8.758 31.3 2.495-10.453 21.946 7.218 15.978-61.876 31.22-140.954-21.032-190.976-14.006-57.49-50.553-103.853-75.43-157.692-13.818-40.075-25.59 20.11-43.542-12.75-26.525-36.266-75.946 32.004-82.2-28.509 1.211-31.671-9.834 31.942-26.27 5.667-49.555 27.423-51.696 77.51-62.688 127.664-15.447 1.23-8.877-35.345-10.455 5.143-17.384 65.57-26.113-39.069-52.47-50.479-25.894-36.278-85.734-65.74-118.72-47.996-18.272-14.76-23.32 31.432-54.93 22.82-11.191 41.925-59.176 62.308-65.32 108.746-17.874 48.348-4.606 102.553-18.877 150.812 5.35 21.163-20.727 87.504 27.666 84.785 14.602 59.218 90.884 23.817 126.975 43.503 25.875 6.21 46.963 45.417 64.092 74.83-16.735-49.69 47.719-72.6 56.279-55.376-36.993-48.511.86-107.393-22.428-151.816-16.682-50.523-67.36-66.201-87.49-112.567-9.774 28.972-32.746-13.276-47.09 17.549-38.954 23.757-65.481 66.03-78.386 92.434-37.883 30.838-5.723-45.156 20.803-57.378 29.203-43.587 57.579-55.729 96.68-82.672 34.127-1.837 65.588 42.673 84.84 77.845 24.997 40.867 57.436 101.922 41.254 130.839 22.083 28.488-4.367 42.653-8.999 5.459-11.2-19.309-5.935 27.421 10.444 33.317 2.303 26.938 9.98 44.882 12.442 65.668-22.054 10.384-70.037-38.024-51.272 10.448.672 11.615-.51 47.106-11.139 35.613 23.403 28.712-20.358 9.744 7.213 37.323 29.638 13.582 24.355-80.195 50.187-32.589 2.476 20.4 9.176 54.574 37.817 47.668m-172.55-202.66c-37.47-9.637-110.134-21.607-107.332-68.278 40.464-23.249 104.655-40.642 145.793-10.267 51.346 41.202 25.374 92.033-38.46 78.544m16.909-18.78c31.203-50.753-46.755-99.467-77.36-44.895-14.626 39.013 50.094 60.018 77.36 44.895m25.745-.331c51.125-2.597-46.541-101.343-10.378-28.602.72 14.404-25.793 41.017 10.378 28.602M328.94 923.335c10.32-25.81 34.143-49.526-8.822-30.8-36.882 4.281-10.784 25.768 8.822 30.8m38.607-41.418c1.197-4.299-7.194 5.776 0 0m8.5-2c-4.628-3.46-6.082 4.678 0 0m320.5 67.406c-41.035 1.533-65.7-39.103-22.788-60.708 39.772-48.39 120.101-51.069 169.822-21.202-19.214 48.824-83.095 83.322-136.069 83.007zm7.73-13.276c51.18 17.257 103.902-52.574 42.645-76.92-42.957-12.574-91.328 56.618-42.645 76.92m-23.958-2.969c8.892-39.327-14.464-49.361-23.008-11.517 6.145 6.292 15.495 7.572 23.008 11.517m108.172-19.161c29.794-21.744 73.608-48.459 12.063-52.627-42.118-21.803-27.639 66.127-12.063 52.627m38.056-21.604c-12.911 3.3-1.282 4.638 0 0m84.886 246.428c-6.597-9.294 6.238 19.278 0 0m-386.886 2.946c-4.079-.437-1.948 4.244 0 0m-99.229-10.332-2.558 3.452zm-25.787 1.812c.099-7.224-4.76 2.678 0 0m25.255-8c25.441-32.564-8.997-8.575 0 0m-17.275-11.691c-4.18 1.121-2.745 10.777 0 0m6.812.318c-2.7-11.482-1.747 18.178 0 0m-216.649-.627c3.163-4.586-7.088 6.406 0 0m717.646-1.08c39.024-52.068 25.298-122.028 25.004-182.622-4.777-68.137 8.844-136.697-1.99-204.548 9.005 40.929-34.116 76.95-19.39 116.768 17.533-31.705-1.126 28.362-10.24 18.046-14.052 32.169-7.368 57.96 15.495 75.792 5.255 46.247-47.042 63.373-24.967 109.73 1.71 22.329-3.449 50.681 16.088 66.834m-485.773-12.232c-10.33-.295-3.06 13.395 0 0m52.2-1.138c-4.557-.933 3.165 7.331 0 0m-38.2.2c-1.317-3.792-2.245 3.872 0 0m-20.036-7.691c-5.267-7.839-7.102 23.315 0 0m15.418-4.56c-6.157-35.595-3.535 12.397 0 0m46.093-1.709c1.734-19.493-9.754 11.97 0 0m-52.507-13.267c-10.499-4.173 5.217 10.554 0 0m105.532-1.773c-5.864-1.656 1.104 6.506 0 0m-135.5-21.878c-4.113-12.717-8.58 9.085 0 0m-54-8c2.366-26.161-28.363 10.806 0 0m15 .413c-6.45-18.21-5.078 9.505 0 0m527.519-3.785c-3.679-27.65-.809 13.33 0 0m-283.41.046c9.908-20.475.767-13.23-1.808 1.512zm-384.986-9.296c.72-9.016-9.885 23.13 0 0m4.377-11.5c4.774-7.133-7.615 7.836 0 0m2.25-12.013c28.033-20.575-41.627-45.272 2.399-68.884 17.825-31.42-30.56-106.86-38.57-104.48.387 57.625 14.19 114.572 26.81 170.316.676 4.492 6.637 6.359 9.36 3.048m8.817-5.903c20.22-24.119-25.003 24.408 0 0m644.185-5.584c-4.189-25.352-4.388 29.28 0 0m-250.773 1.54c8.601-33.289-8.38 7.615 0 0m274.315-10.888c27.455-12.657-1.917-92.718-5.88-33.878.408 7.492-15.257 45.331 5.88 33.878m-666.297-2.402c-5.314-55.663-29.007-23.87 0 0m286.095-26.032c7.265-17.539-9.699-.026 0 0m93.497-84.848c7.911-32.659-15.247 28.748 0 0m-322.867-7.481c-17.033 15.383-1.092 7.792 0 0m-47.724-3.762c5.472-46.738.66-109.653 30.025-142.29 7.569-33.617 44.516-54.275 39.77-57.474.844-16.731 21.76-39.165 29.52-12.93 9.474-41.275 59.437-32.972 94.56-36.919 31.537 9.095 40.196 40.783 66.364 49.52-1.61-65.41 16.12 34.554 35.874 41.605 44.066 2.427 11.64-67.227 47.416-93.372 9.254-11.232 24.527-44.927 26.563-10.267-13.496-37.159 51.148-11.277 29.056-9.855 8.087-42.133 13.946-6.706 26.787-.06 8.86-24.22 18.502 48.088 26.116-1.69 17.951 29.538 34.027-15.346 39.481 20.604 22.682 30.4 31.5-37.811 49.109 11.466 19.653 43.01 59.252 85.659 69.797 113.302-.159 45.641 57.095 92.32 41.336 19.01-7.465-35.836-37.706-84.89-71.732-114.328-32.155-4.889-59.345-102.91-24.514-36.791 10.683 27.78 72.61 63.87 45.357 7.514 4.193-30.871-36.204-83.92-33.955-89.14 49.387 31.938 35.018 98.048 52.7 146.965 6.243 21.443 41.827 79.07 33.934 28.524 3.93-31.166-18.942-88.29-15.437-105.677-19.01 57.148-21.605-64.509-34.87-80.062-18.612 30.193-24.905-92.524-32.773-23.402-24.886-.678-44.495-80.352-38.569-21.08-23.625 20.443-32.808-86.993-35.848-21.811-19.753 28.59-40.685-109.446-37.664-23.495-15.31-13.249-18.053-62.838-31.386-23.21-15.325-13.995-33.41-84.654-28.306-23.7 5.074 32.46-35.295 21.42-32.8-4.584-2.678 77.342-33.366-72.787-29.77-14.685-1.213 21.568-30.356 28.219-28.106 2.393-12.345 29.187-23.682-22.55-32.164 23.676-22.228 29.52-33.716-22.487-39.077 15.237-9.404 37.155-27.895 20.826-23.34-8.168-5.124 23.843-12.695 80.702-25.334 27.497-7.886-25.115-8.956-79.292-13.178-20.379-21.502 58.294-3.68-79.053-23.02-10.057-2.521 20.8-22.694 35.97-30.732 20.037-2.972 12.638-7.687 63.48-21.713 27.005-10.208 23.47-37.634 50.2-48.15 20.304-10.704 13.703.89-38.21-7.422-1.495-6.792 48.459-6.06 10.549-20.932-4.846-17.9 33.254-7.44 124.136-40.487 117.982-2.399-76.492-1.497 43.91-16.502 29.775 8.868-24.694-3.464-99.761-10.726-35.024 4.047 45.64 4.95 93.006-11.18 135.545-9.364-18.428-4.181-129.33-9.78-53.295-4.221 55.15 18.942 108.804 26.715 160.888-24.171-26.063.312 49.676 23.188 38.539 5.62 1.768 9.97 40.94 15.8 22.698m-7.55-185.393c-18.972-18.426 37.68-11.489 10.913-43.126 12.246-12.459 3.457-32.44 19.173-27.073 1.282-45.294 13.715 28.479-10.786 38.549-3.533 16.256 9.325 35.739-19.3 31.65m656.71-1.234c.867-4.552.867 4.551 0 0m-333.02-72.089c-12.201-17.597-42.687-33.324-51.128-2.965-24.996-40.017-42.582 25.4-59.6-15.934-29.438 7.51-41.713-50.683-11.625-11.031 11.025-31.138 38.708 56.307 41.836 2.359 17.26 1.05 43.237 30.734 46.166-3.518 12.402 6.37 86.833 37.517 34.352 31.09m102.17-63.183c-28.932-23.2-18.138-39.406.06-16.846-14.987-71.031 44.552 36.819 54.862-20.437 29.303-5.67 60.727 50.23 16.463 12.482-25.086-23.007-20.775 51.651-48.787 5.307-31.519-30.07-.591 26.687-22.597 19.494m-367.538-5.228c-42.93-14.491 45.601-3.745 16.416-11.851-2.118-35.327 35.53-56.87 47.014-17.546 15.44-12.391 23.958-70.078 41.8-22.386-3.978 12.579-33.817-31.932-25.97 12.745-12.806 50.369-57.896-47.212-53.03 15.924-1.181 12.602-9.404 34.944-26.23 23.114m260.437-31.172c-7.205-13.861-20.342-67.865 10.7-52.45-18.397-28.039 20.046-43.864 33.167-16.592 21.888-21.817-19.623 29.067-25.3-5.282 1.036 19.961-7.987 47.75-21.002 33.342-.639 5.74 19.254 55.235 2.435 40.982m72.881 356.043c7.867-15.025-11.97 17.508 0 0m13.502-.114c-7.116.664.154 3.865 0 0m-332.102-6.88c2.513-7.216-6.352 10.494 0 0m589.412-7.186c-1.404-9.605-2.002 15.613 0 0m-254.903-13.893c10.292-16.125-23.067 27.011 0 0m-181.497 3.702c-2.414-3.927-2.414 3.927 0 0m203.5-4c13.366-17.552-16.191 18.298 0 0m-338.61 1.422c-1.208-4.598-5.221 8.896 0 0m336.173-9.672c9.26-9.737-11.624 10.372 0 0m-320.85-11.25c3.876-10.663-12.02 20.717 0 0m106.287 5.581c.472-10.067-6.995 3.246 0 0m451.662-6.331-.048 2.44zm-224.662-1.4-4.535 2.753zm24.297-5.35c6.56-13.345-21.672 28.373 0 0m-330.211-1.282c11.5-24.674-8.946 5.14-2.943.278zm313.358-7.632c11.609-18.523-23.807 26.568 0 0m35.224-6.43c1.751-13.597-13.843 24.785 0 0m70.46 4.028c-8.57-5.958 4.67 8.773 0 0m-413.128-9.574c-6.491-9.697-9.02 28.06 0 0m328.656 9.14c11.13-12.579-9.328 5.312 0 0m-303.973-3.438-.185 1.807zm336.826-8.114c4.622-14.223-17.608 27.812 0 0m-334.68.302c-4.344 4.225.697 7.622 0 0m314.298.25c3.163-4.586-7.088 6.406 0 0m-8-1c3.163-4.586-7.088 6.406 0 0m21.412-.293c3.565-6.211-7.01 7.077 0 0m10.961-12.958c2.942-14.063-22.76 27.17 0 0m2-7c-1.317-3.791-2.245 3.873 0 0m159.5-66.117c-3.757-1.93-.935 4.937 0 0m-5-57.941c-2.998-5.358-.139 6.71 0 0" style="fill:#000"/><path d="M762.19 1452.476c-3.87 18.64 2.235 72.912-3.595 22.47 5.423-59.187-.974 7.173 0 26.066-1.411-32.88 1.05-36.06 3.595-61.12" style="fill:none;stroke:#000;stroke-width:1px;stroke-linecap:butt;stroke-linejoin:miter;stroke-opacity:1"/><path d="M561.772 1168.74c-22.332-9.791-20.725-93.19-47.361-41.974 2.651 26.287-32.028 42.936-33.62 9.972 24.536 16.147-8.804-26.668 12.367-16.531 9.92-23.966-7.303-42.685 2.172-60.798 32.07 23.906 68.698 13.517 42.09-17.749 13.253-21.29-36.602-71.343-16.536-71.115 1.251 34.85 36.707 32.664 10.968-3.183 16.94-30.584-20.14-97.062-45.221-136.922-20.441-33.365-47.675-77.292-87.173-70.138-41.88 24.8-74.981 58.066-107.18 95.502-27.54 21.743-30.248 75.45-.683 37.509 24.178-48.896 76.067-102.498 119.564-98.333 20.27 27.741 65.879 60.068 84.751 99.744 22.185 25.36 15.15 50.14 7.03 79.748-10.284 32.676 48.703 101.366-10.599 71.408-32.654 1.961-16.55 87.035-40.235 34.519-29.242-18.66-26.03-51.752-60.895-51.782-45.313-3.978-103.843 7.772-124.794-43.83-39.562-12.708-12.078-80.99-11.827-115.617 1.982-50.562 2.811-102.398 27.016-148.068 18.566-24.73 42.092-57.09 60.41-74.708 30.35-8.033 43.024-48.41 73.262-23.618 55.004-2.2 94.944 47.374 116.088 92.562.823 39.385 30.709 36.268 29.059.157 32.26-10.454 3.437-99.85 59.723-110.773 7.006-13.959 34.667-11.923 36.826-21.733 10.715 58.47 71.726-5.454 101.446 41.214 31.434-34.31 42.344 65.301 69.352 82.073 14.748 50.4 46.29 92.392 63.786 141.6 1.984 35.404 7.64 118.96-26.345 120.824-.918 13.67-12.982-15.081-20.953 11.363-14.676-15.933-65.07 35.143-86.816 47.036-30.378-2.05-62.268 3.033-90.004 11.763-27.305-23.265-73.833 44.282-43.938-14.625 44.937-52.25-49.392-99.417 7.66-145.305 31-46.89 80.435-92.989 136.964-97.21 35.54 26.758 77.621 71.644 112.111 82.905-19.698-48.765-54.073-100.432-104.456-120.073-52.054 8.014-98.832 44.486-133.113 83.99-45.59 29.31-72.145 94.808-27.88 137.772 15.445 27.59-52.266 112.874 1.004 100.653 44.356-70.353 71.366 84.486 24.917 56.86-42.173-57.923-32.889 68.242-78.937 44.91m-116.89-201.817c61.698-15.857 1.572-101.069-43.66-94.215-34.164-.409-147.416 15.81-85.907 62.238 37.443 23.913 84.853 40.164 129.568 31.977m301.254-22.063c31.176-15.38 110.073-46.192 90.737-87.214-56.716-19.427-130.714-18.255-169.167 34.778-65.306 48.042 46.988 64.646 78.43 52.436" style="fill:#f4d7d7;stroke-width:1.27111"/><path d="M599.74 1338.963c-56.985-21.014-126.67 13.658-177.767-28.604-54.861-42.88-68.575-133.372-14.488-182.84 18.786-10.106-12.695 58.409-10.501 76.67 3.787 43.368 23.179-43.54 26.568-60.329 11.628-58.008 53.565-9.23 58.192 22.917 27.939-14.771 66.506-37.817 71.14 11.48 45.591 35.29 54.334-89.429 101.283-26.468 44.61 20.398 5.288-100.704 32.977-65.838-24.344 40.042 26.518-20.543 33.096 24.687 5.747 22.316 45.735 108.791 31.573 37.787-5.936-22.713-56.246-93.877-13.623-43.06 29.834 47.955 47.95 114.907 8.58 162.925-20.47 56.481-87.244 56.88-134.78 75.63l-4.422-1.456zm.544-29.937c44.319 4.835 95.49-21.895 122.336-42.431 58.029-34.48 10.656-96.063-45.263-77.004-20.662-30.901-31.692-20.44-32.603 6.1-34.384 24.424-80.703 33.293-120.212 18.462-31.5 7.533-32.967-71.29-43.015-10.994-21.788 21.835-102.93 26.55-50.311 68.386 42.405 44.351 113.074 38.132 169.068 37.48M911.885 1106.094c-17.765-51.168-26.46-108.972 11.664-150.864 9.628-40.262-43.98-48.598-15.337-93.43 15.289-8.674 26.164-42.75 8.924-27.507-4.821-22.67 21.487-85.248 23.678-83.934.668 84.38-2.963 168.7-.262 253.105.079 33.604-.01 87.023-28.667 102.63" style="fill:#f4d7d7;stroke-width:1.27111"/><path d="M895.983 979.628c-2.885-27.173 17.762-84.262 19.7-25.44 1.888 8.947-8.335 36.681-19.7 25.44M646.989 1621.082c-73.439-20.895-149.875-11.8-225.126-15.717-28.907 12.623-90.887 4.427-105.086 5.72 48.274-32.453 43.674-96.609 76.927-137.282-19.018-57.524 34.558 30.002 60.703 20.776 17.914 17.856 57.574 47.308 37.253-.202 11.686 16.242 56.82 66.282 60.69 46.592-13.96-32.411 46.682 16.468 48.276-24.371 15.527-47.81 16.437 55.175 39.12 1.892 12.954-22.348 35.77-83.933 28.776-21.18-.264 65.676 32.972-35.981 48.113-50.24 10.494-21.25 30.934-58.352 20.802-7.64-9.93 31.063 11.756 28.991 23.316 13.17-11.887 46.836-12.509 101.46 15.711 143.108 17.787 41.421-63.312 1.386-84.383 24.003-14.717 3.856-30.166 4.857-45.092 1.37M222.684 1000.993c-16.904-57.654-28.527-118.907-28.573-179.498 30.048 42.857 55.76 96.689 23.255 142.453 7.166 13.825 39.357 32.357 5.318 37.044" style="fill:#f4d7d7;stroke-width:1.27111"/><path d="M562.548 1168.475c-21.675-12.277-25.59-95.223-49.428-38.574 5.197 36.058-42.401 21.452-27.714 9.768 12.47-2.055-5.67-20.69 8.403-25.383 11.322-19.964-7.643-37.812.935-54.263 31.063 20.854 71.36 16.74 42.954-18.067 13.519-20.245-33.27-70.462-16.995-69.97-.088 32.714 35.98 32.348 12.816-1.355 10.332-26.824-9.456-85.064-35.499-120.537-19.472-31.546-44.8-88.438-82.437-86.966-39.415-2.734-76.092 41.723-103.228 71.06-23.408 15.153-68.225 94.094-23.955 65.088 25.119-47.077 74.145-110.212 121.409-101.909 24.88 26.086 72.275 63.356 90.717 107.038 26.479 27.641-7.738 59.133 3.612 91.85.563 27.76 37.697 73.439-9.834 49.197-36.191 5.845-17.658 89.346-48.598 27.406-25.046-21.51-25.562-47.905-64.398-45.913-45.057.45-92.956 3.675-113.707-41.982-44.693-13.946-9.106-88.962-12.02-126.701.226-50.919 6.504-101.832 31.178-147.11 32.105-32.414 47.093-67.57 86.1-86.138 10.897-1.079 30.164-22.185 47.79-.73 54.178-.209 93.79 51.652 112.101 97.407 1.661 37.807 30.502 23.437 27.22-5.327 33.756-11.309 4.354-100.217 60.627-111.701 7.266-9.467 38.279-20.684 36.087-20.99 7.814 60.327 64.617-7.353 91.442 35.833 14.94 10.515 29.19-26.673 36.83 12.284 22.648 48.863 59.495 90.341 68.798 144.223 40.154 41.129 47.341 102.056 33.926 155.991.704 36.954-14.455 41.262-34.587 37.805-13.584 15.643-12.067-7.898-32.067 13.41-35.554 17.518-56.283 50.745-98.673 43.987-37.107 16.188-76.532-2.26-108.964 24.952 21.924-42.122 33.447-91.04-3.254-127.898 14.797-51.181 56.316-95.935 102.142-123.34 50.58-49.299 87.465 15.776 129.454 39.88 18.316 27.057 55.541 37.71 26.331-4.192-26.277-39.198-66.667-110.26-122.657-85.76-27.203 17.261-58.508 27.61-79.741 53.013-37.634 36.95-103.27 88.73-61.624 146.554 43.396 32.526-41.9 106.88 6.438 120.755 40.847-61.835 73.352 35.214 41.076 60.876-37.355-56.867-48.644 14.762-72.93 37.164l-8.442.868zM445.453 967.137c59.73-16.227 2.274-99.762-42.057-94.689-41.069-2.948-156.829 20.93-80.025 67.982 36.58 20.288 79.945 34.733 122.082 26.707m299.46-21.523c33.215-15.604 109.432-46.293 92.19-88.009-56.017-19.129-127.957-18.702-167.793 31.945-66.9 50.695 40.724 67.14 75.603 56.064M217.127 1176.381c-13.485-25.027-4.831-81.726 13.366-93.034-1.433 27.34-9.982 74.283-13.366 93.034" style="fill:#f4d7d7;stroke-width:.89881"/><path d="M393.63 953.893c-84.268 2.785-36.627-108.607 20.41-61.988 20.93 20.364 20.3 71.312-20.41 61.988M695.553 932.089c-45.135-49.996 60.94-112.57 77.622-45.386 12.671 42.786-49.208 50.49-77.622 45.386" style="fill:red;stroke-width:.89881"/><path d="M544.495 1293.985c-8.832-31.411-33.647 11.314-34.09-33.477 11.992-5.51 15.378-48.685 28.328-13.208 20.228 34.796 22.67-28.763 48.875 6.078 37.816 36.15 9.179-61.067 32.09-9.075 20.098 27.508 10.631-55.57 34.849-8.935 16.47 18.657 23.388 44.196-9.111 37.101.391 49.195-41.625-36.201-52.207 19.639-24.438-16.036-34.646-25.37-48.734 1.877M712.047 1236.91c-14.523-15.977-44.528-52.527.63-34.038 48.837 12.491-10.24 24.996-.63 34.038M437.317 1254.601c-17.978-53.12 64.209 10.359 4.764 1.996l-2.14.591z" style="fill:#000;stroke-width:.89881"/><path d="M588.077 1512.554c-13.663-20.714-47.52-93.234-65.36-68.795 3.864 21.297 51.132 87.245 1.188 48.384-22.528-19.376-76.965-110.916-61.489-32.673 14.884 54.455-48.066-20.591-67.425-31.875-24.77-13.263-35.428-65.664-53.019-68.878.034 22.147 32.369 86.302-5.883 39.322-28.506-35.462-43.046-80.21-46.709-125.164-24.5 5.019-9.363 79.927-17.182 63.1-11.882-51.883-18.737-104.829-23.995-157.68-40.095 15.91-2.727-72.002-3.154-99.106 15.656-52.485-62.315 41.288-32.679-19.015 2.247-30.995 46.283-100.23 62.122-37.846-5.194 32.228 19.092-3.517 39.438 17.903 38.1-2.032 137.236 8.144 88.075 65.287-46.33 53.584-63.18 141.565-13.045 198.262 43.543 39.582 106.71 45.249 162.3 35.795 29.843 2.892 53.965 18.916 82.901 2.84 53.34-9.74 104.238-32.524 128.672-84.053 31.385-42.746 11.97-104.177-9.36-147.538-12.429-38.64-54.597-38.748-79.846-49.093 21.285-39.336 95.163-3.292 118.275-45.727 17.248-30.701 86.957-46.267 85.426 10.087 4.231 24.18 40.12 107.345-6.23 63.173-1.93 25.551 38.245 83.575 23.153 96.626-8.874-18.741-52.722-89.949-35.522-31.999 13.658 29.61 9.535 121.536 13.758 110.772-4.662-38.426-10.493-128.396-34.357-129.54 3.989 22.636 34.528 96.525 11.199 90.838-.743-29.273-39.225-66.329-26.203-14.444-3.06 51.874-35.784 21.026-35.168 32.748 10.231 37.338-46.529 67.393-35.123 91.374 15.684-26.56 33.138-51.596 44.763-82.354 57.31-24.372 14.85 70.068 2.137 99.569-11.479 11.557-38.893 86.165-42.171 61.227-12.706-76.262-49.97 17.082-60.876 45.45-17.903 45.969 7.092-103.736-21.916-34.27-19.01 18.956-53.797 84.603-43.195 77.941 1.921-41.892-44.595-92.93-8.057-121.701 23.09 40.865 35.401-25.088 71.82 6.408 30.31 3.996 19.794-64.058 10.994-10.417-18.032 8.898-45.284-26.595-62.289 11.375-30.384-53.619-32.475 19.2-49.907 28.739-22.367-32.718-60.316.44-24.901 22.737-2.985-61.144 62.76 27.336 35.09 55.413-4.515 4.993-7.287 40.179-16.25 16.798m-152.176-81.303c-14.674-21.598-41.672-24.832-10.371-39.2-2.117-25.928-52.27-50.435 2.333-40.278-17.148-32.277-54.14 1.212-23.369 27.335 17.091 15.169-35.52 3.762-4.364 31.127 8.713 9.642 20.274 28.48 35.77 21.016M330.75 1323.034c-9.477-26.089-11.744-38.176-.67-53.21-19.48-28.543-23.084-55.15-9.487-74.307-6.295-22.743 13.288-65.482-8.15-38.252-15.94-26.576-18.815-35.193-18.374-2.305-16.604 19.728-20.39 49.6-3.856 12.535 34.786 3.372 21.74 34.047 6.628 47.593 31.287 35.01 4.748 75.118 21.506 107.173-1.161 6.803 14.945 8.332 12.403.773m462.417-218.344c2.472-39.974 52.288-9.8 39.959-54.158-3.093 24.504-10.484 19.42-32.133 7.396-1.585 21.436-9.987 60.115-23.432 19.182-22.97-35.576-18.796 43.74 15.606 27.58m-522.334-28.041c16.766-5.401 85.204 5.643 30.955-2.283-13.525-15.882-66.813 19.385-30.955 2.283M243.37 856.273c-6.738-27.304-51.559-36.41-39.98-64.43 20.339-8.308-24.77-85.514-14.061-103.744 29.205-42.588 10.918-105.194 17.952-155.805 18.853-29.409-2.699 104.424 17.34 42.026 3.083-25.954 5.629-55.555 6.03-10.71 40.062-17.28 20.923-85.411 40.816-122.329 13.375 2.735 13.258 59.871 20.608 9.527-1.427-32.215 16.903 38.198 41.87-2.87 9.675-39.738 32.149 13.775 32.291-29.082-4.865-43.068 25.57 9.838 31.455-31.89 10.565-36.824 16.023-28.153 12.263 5.401 10.706 48.882 18.678-68.21 20.21-10.904 1.118 25.2 23.449 83.667 27.28 24.164 4.438-53.42 4.389 41.016 22.839-5.244 5.901-39.377 50.591-1.148 56.4-48.74 13.49 23.544 18.991-8.165 31.67 17.56 20.298-15.663 18.798-45.202 29.03-2.252-14.597 37.547 65.593 4.553 18.671 5.072 44.598 59.703 22.032-21.445 36.369-23.958 5.91 15.15 23.502 66.21 33.455 27.553 7.55 23.045 29.434 60.975 22.662 10.488 8.565 22.483 37.969 95.932 39.182 30.363 8.897 38.857 35.74 59.072 36.083 23.315 10.085 34.766 39.264 47.618 42.948 22.346 6.859 25.117 11.469 52.218 28.745 49.99 9.956 22.105 5.637 97.08 29.161 87.42 8.455-33.832-1.44 53.239 17.681 62.887-.399 21.92 4.362 69.255-19.713 28.601-35.057-50.46-11.236-125.718-57.469-169.106-35.383-29.077 38.067 61.35 25.034 90.339 16.696 55.924-55.074-16.59-57.432-37.62-22.868-5.915 22.312 61.745 45.244 66.483 31.609 40.428 70.354 86.466 62.121 141.415-25.372 27.926-52.922-81.575-46.185-72.565-31.68-23.811-48.456-90.062-86.698-116.359-16.278 51.932-31.33-32.3-52.603-1.18-17.982-32.54-22.289 36.353-30.87-8.757-2.382-10.772-22.917 11.192-21.971-19.83-17.32-3.573-12.889 45.868-25.919 6.425-29.213 5.778-51.296 34.99-64.231 76.175 10.962 33.108-33.393 76.853-43.199 26.951.885-28.208-31.468-64.469-21.551-15.917-27.542-29.848-62.521-64.564-108.144-47.805-31.665-4.532-65.81 37.258-54.765 26.263-27.931-8.89-34.077 48.757-61.812 60.881-18.297 35.532-30.516 76.686-31.62 120.882-2.893 4.472 1.097 53.124-7.188 38.57m14.661-187.76c-7.966-24.732 39.404-73.6 10.117-82.732 4.56 18.906-23.99 24.145-13.86 56.29 13.48 19.889-46.117 17.55-6.425 29.575zm640.501.668c-2.446.551 1.821 5.572 0 0m-316.104-71.773c-5.411-12.73-57.172-44.58-69.01-15.03-18.67-20.407-33.074-9.19-40.366 5.022-14.955-31.336-31.871-21.492-50.98-32.667-9.75 22.035 93.094 47.52 52.635 40.188 15.827-36.82 41.38 24.838 55.498-16.66 20.453-5.026 31.48 33.763 52.223 19.147m92.8-63.66c-10.603-49.22 17.52-4.891 39.304-4.125 1.764-47.618 32.562-3.607 49.422-8.503-14.255-25.074-45.242-31.577-58.864-5.898-21.553-16.152-50.628-44.159-39.367 5.478-26.253-43.267-20.875 9.294 4.574 16.524zm-361.773-1.557c20.686-13.243 6.546-75.984 37.467-32.22 38.703 30.616 17.983-63.799 54.102-16.424-11.862-56.67-28.042 2.789-44.88 14.674-30.756-64.03-30.751 37.364-69.22 22.364-19.616 3.253 18.937 15.552 22.531 11.606m252.82-36.507c-5.25-26.683-11.6-35.481 8.525-42.427.902-32.623 3.613-26.565 26.645-18.53 24.207-25.136-7.365.484-22.337-21.046-23.549 5.164-1.055 34.69-26.786 33.022-6.513 7.109 6.222 73.31 13.953 48.981" style="fill:#fff;stroke-width:1.27111"/><path d="M495.138 1298.626c-49.474-.591.342-138.489 4.134-59.471-4.04 17.56 29.654 69.116-4.134 59.471M681.632 1275.578c-9.173-27.272-35.814-116.081 6.416-54.086 29.571 14.952 37.733 76.727-6.416 54.086M670.159 926.002c-34.917-8.901 25.102-58.865 8.54-7.983-.475 8.97 2.285 15.169-8.54 7.983M779.958 906.365c-38.956-53.412 50.562-55.05 53.6-30.385-12.532 2.94-53.993 54.554-53.6 30.385M319.75 918.562c-58.747-17.404 61.173-52.244 14.993-12.66-6.687 6.177-2.989 22.531-14.994 12.66M430.219 946.404c17.282-21.862-15.78-82.82 21.061-33.88 29.979 28.442-4.394 48.324-21.061 33.88" style="fill:#fff;stroke-width:1.27111"/><path d="M595.457 1252.896c-53.295-9.657 22.758-59.197 5.78-6.837.628 3.376-.898 10.155-5.78 6.837M591.326 1303.33c-4.35-46.923 67.12-5.835 19.248-1.185-6.39.403-12.846 2.677-19.248 1.184M642.079 1298.094c.02-43.825 57.294 4.319 0 0M624.2 1237.086c-21.219-35.578 27.802-23.098 0 0M656.627 1223.465c-25.685-31.441 16.18-3.438 0 0" style="fill:#fff;stroke-width:.635554"/><path d="M567.81 1302.242c-57.158-29.273 55.048-4.436 0 0M550.968 1246.84c-33.678-27.467 23.122-27.553 0 0M514.582 1241.784c-33.327-35.093 36.723-22.163 0 0M457.159 1280.132c-47.247-38.633 28.933-15.239 0 0M462.445 1233.39c-25.257-16.94 39.918-22.187 0 0" style="fill:#fff;stroke-width:.635554"/><circle cx="556.813" cy="901.057" r=".195" style="fill:#000;stroke:#000"/><path d="M381.455 882.254c-3.144 6.072-4.79 12.784-6.299 19.413-1.589 6.281-1.494 12.423-.973 18.815.32 3.436.366 6.887.599 10.328.06.888.075 1.78.176 2.663.098.858.28 1.705.42 2.558.908 4.175 2.185 8.267 3.487 12.334.931 3.36 1.4 6.917 3.058 10.04.273.513.644.968.965 1.451.758.506 1.37 1.637 2.273 1.517 1.714-.227 3.301-1.265 4.584-2.424.616-.557.524-1.579.736-2.383.592-2.246.599-3.07 1.066-5.414.244-1.22.528-2.432.792-3.648 1.52-7.703 3.376-15.327 5.223-22.956.54-2.707 1.122-5.425 1.415-8.175.307-2.894.276-5.833.311-8.737-.187-5.874-.257-11.752-.501-17.624-.17-2.403-.161-4.867-.825-7.204-.335-1.18-.585-1.599-1.096-2.682-1.29-2.27-3.28-3.946-5.842-4.584-.454-.114-.925-.144-1.388-.216-1.593.017-3.59-.152-4.897 1.066-1.234 1.15-1.653 2.623-2.212 4.143-2.117 5.384-3.412 11.092-4.002 16.844-.14 1.367-.192 2.74-.287 4.11-.179 11.316-.01-3.094.043 7.955.007 1.488-.062 2.976-.067 4.464-.016 4.854.065 9.712.118 14.565.188 4.83.114 4.163.465 8.72.124 1.608.289 4.023.624 5.693.267 1.33.49 1.73.973 2.897.245.396.455.818.737 1.19 1.631 2.15 3.61 1.743 6.093.092.618-.412 1.633-4.289 1.76-4.716 2.192-11.63 3.787-23.372 5.336-35.102.564-5.727.887-8.06 1.103-13.655.166-4.311.152-8.339-.888-12.524-1.639-4.038-.88-2.124-6.123 1.086-.053.033-.09-.193-.125-.141-.092.138-.07.324-.105.486q-.121.536-.245 1.07c-1.028 3.673-1.42 7.483-2.195 11.207-.455 2.188-1.057 4.343-1.505 6.532-1.465 7.165-1.43 7.911-2.353 15.073-.598 5.14-1.087 10.327-.723 15.505.002.03.233 2.671.55 3.084.077.1.124-.22.186-.329 9.911 6.035 5.25-2.8 3.686-2.756-1.521.043-3.036.654-4.326 1.461-.342.214-.844 2.453-.963 2.928-.347 2.066-.209 1.018-.409 3.147-.03.466 6.567.889 6.597.422.098-1.77.046-.91.155-2.581.03-.308.14-.619.09-.924-.013-.08-.15.063-.228.079-1.262.254-2.51.835-3.792.73-.49-.04-.654-.733-.957-1.12-.041-.052.1.114.167.111 1.936-.065 3.869-.208 5.803-.313.199-.504.45-.99.602-1.51.372-1.28.972-4.297 1.162-5.265 1.135-5.765.978-5.173 2.007-11.542.37-2.443.782-4.88 1.107-7.329.896-6.756.904-7.952 1.42-14.521.301-3.845.665-7.697.443-11.558.002-.182.05-4.285-.412-4.183-1.933.427-3.464 2.021-5.383 2.506-2.034.515-.01-1.523-.605-.901-1.092 8.272-2.666 16.479-3.525 24.784-1.13 11.632-2.37 23.27-2.537 34.967-.031.7-.142 1.4-.093 2.098.093 1.339 4.412-1.934 4.521.736-.062-1.246.161-2.552.212-3.783.163-3.973.081-7.957.083-11.931-.058-4.884-.134-9.77-.375-14.649-.193-3.926-.54-7.85-.253-11.786.224-3.11.265-4.423.704-7.517.587-4.137 1.571-8.215 2.02-12.372.078-.375.19-.743.235-1.123.007-.062-.03-.198-.083-.168-.43.24-.547.581-.525.59.104.04.223.016.334.024l-1.116-.032c1.295-.145 2.442.053 3.28 1.143 1.209 2.319.762 5.046.855 7.567-.163 6.799.099-3.065-.204 4.71-.168 4.339-.103 8.692.24 13.02.13 1.91.299 3.583.232 5.486-.114 3.265-.813 6.465-1.886 9.543-2.448 7.738-4.402 15.637-5.565 23.677-.28 2.967-.702 5.99-.776 8.975-.008.335-.259.98.076 1.003 5.32.369 2.42-2.246 4.824.55-.633-1.404-1.084-2.876-1.554-4.34-.323-1.008-.992-3.12-1.27-4.146-.165-.616-.298-1.241-.447-1.861-1.115-3.838-2.313-7.656-3.078-11.585-.16-1.063-.54-3.42-.598-4.472-.04-.747.019-1.497.02-2.245.007-2.813-.088-5.621-.309-8.426-.025-.276-.465-5.148-.475-5.487-.112-3.807.869-7.569 1.762-11.23.998-3.738 1.92-7.49 2.863-11.243.285-1.136.61-2.264.866-3.408.309-1.388.476-2.804.789-4.192.152-.414-5.701-2.559-5.853-2.145M717.617 864.97c-1.76 4.134.512-1.3-1.42 3.698-1.307 3.38-1.423 3.125-2.676 6.854-1.41 4.199-1.58 5.376-2.637 9.799-1.057 4.964-1.256 9.608-.841 14.641.294 3.569.537 5.674 1.46 9.142.372 1.398.892 2.753 1.339 4.13 1.124 3.24 2.718 6.277 4.476 9.21.398.665.864 1.287 1.238 1.965.676 1.229 1.027 2.316 1.513 3.622.91 3.465 1.772 6.949 3.278 10.211.75 1.334 2.357 3.379 4.079 3.422.93.024 1.861-.17 2.768-.386.3-.071.533-.31.8-.464.656-.434 1.063-.33 1.747-.924 1.857-1.61 2.754-3.521 3.816-5.68 1.86-4.288 2.84-8.928 3.316-13.567.185-1.806.333-6.112.406-7.867l.044-4.016c-.029-1.25-.1-2.498-.088-3.748.115-11.652.273 3.644.233-8.916-.015-4.775-.097-4.904-.41-9.622-.699-6.05-1.564-12.23-4.202-17.792-.4-.846-.891-1.645-1.337-2.467-1.313-2.256-3.145-4.104-4.967-5.94-1.12-1.129-.548-.441-1.29-1.406-.474-.898-.607-1.947-1.05-2.857-.177-.363-.237-.908-.618-1.041-1.578-.553-3.29-.604-4.934-.906-.558.574-1.18 1.092-1.673 1.723-1.605 2.056-2.29 4.855-2.939 7.313-.551 2.093-1.122 4.701-1.598 6.8-1.418 5.853-2.379 11.848-2.626 17.873-.14 3.403.064 5.878.235 9.28.485 3.357.665 6.75 1.12 10.111.26 1.93.598 3.849.934 5.766.738 4.22 1.264 7.066 2.399 11.161.397 1.433.899 2.835 1.349 4.252.924 2.866 2.074 5.64 3.376 8.35q.32.668.645 1.331c.145.292.238.618.443.87.516.633 1.135 1.174 1.702 1.761 1.637-.886 3.507-1.438 4.913-2.66.553-.48.419-1.407.59-2.12.215-.903.392-1.814.566-2.726.798-4.186 1.272-8.402 1.77-12.632.142-2.024.321-4.046.427-6.072.117-2.217.138-4.437.24-6.654.125-2.688.348-5.37.44-8.058.16-4.594.198-11.92-.02-16.545-.11-2.375-.375-4.741-.562-7.112-.547-3.689-.83-6.625-1.866-10.165-.41-1.404-1.358-3.969-2.527-5.13-.664-.658-1.37-1.631-2.305-1.597-1.74.063-3.255 1.239-4.883 1.858-.395.8-.866 1.566-1.185 2.399-.588 1.539-1.081 4.09-1.322 5.686-.642 4.265-.794 8.61-1.077 12.907-.162 2.328-.37 4.654-.485 6.985-.527 10.556-.652 21.332 1.19 31.782.28 1.594.752 3.15 1.128 4.724.438.851.442 2.156 1.313 2.554 1.916.874 4.345 1.789 6.254.9 1.551-.724 1.515-3.09 1.981-4.737.525-1.852.738-3.781.974-5.69.734-5.941.73-9.79.949-15.861.151-8.712.024-17.435-.548-26.131-.227-3.452-.64-8.685-1.383-12.211-.263-1.245-.732-2.438-1.098-3.657-1.624-2.661-2.417-5.297-7.438-3.188-1.682.707-2.177 2.963-2.919 4.63-1.025 2.304-1.73 4.747-2.343 7.193-2.172 8.665-2.283 12.857-3.274 21.96-.535 11.061-1.023 22.389 1.695 33.25.322 1.287 2.64 9.701 5.777 10.345 2.513.516 5.061-.838 7.592-1.257.862-2.233 2.048-4.367 2.586-6.7 1.205-5.213 1.096-12.733.598-17.935-.405-4.234-1.57-11.185-3.49-15.297-.58-1.238-1.662-2.172-2.493-3.258-2.391.255-5.35-.802-7.175.764-1.81 1.554-1.472 4.566-1.791 6.931-.361 2.68-.32 5.407-.237 8.11.17 5.505 1.02 11.615 2.195 17.002.472 2.161 1.162 4.268 1.743 6.403.588 1.299.949 2.727 1.764 3.897 2.572 3.688 5.573 1.697 8.388-2.446.999-1.47.374-3.54.368-5.318-.017-5.472-.395-5.998-1.51-11.051-.453-.941-2.218-5.825-4.467-4.92-5.164 2.081-4.308 5.075-4.268 8.826.046.537 7.632-.125 7.585-.661-1.308-6.005.816-1.192-4.965-2.343-2.762-.55-2.432-4.63-2.159.303.597 4.823.574 5.122 1.477 10.195.255 1.432-.305 3.393.848 4.28 1.484 1.144 3.746.291 5.581.671.326.068.722.973.763.643.152-1.206-.258-2.417-.387-3.625-1.011-7.433-2.095-14.855-3.149-22.283-.346-2.438-.529-4.906-1.037-7.316-.259-1.226-.28-2.756-1.254-3.544-1.392-1.124-3.415-1.07-5.122-1.605.816 5.409 1.665 10.812 2.314 16.245 1.541 12.908.376 4.16 1.445 15.88.112 1.22.305 2.43.458 3.645 1.4.618 2.671 1.757 4.198 1.854.583.037-.527-1.058-.65-1.63a59 59 0 0 1-.97-5.897c-.323-2.909-.563-5.83-.653-8.756-.127-4.12.198-18.957.266-22.714.38-13.627.195-8.598.707-21.156.087-2.15.352-4.298.271-6.447-.022-.578-.117-1.287-.577-1.637-4.525-3.445-4.182-2.957-3.815-.932.15 4.99.039 9.963.001 14.953-.054 7.143-.047 9.674.123 16.965.07 2.987.178 5.974.268 8.961.234 6.733.287 8.904.597 15.402.081 1.705-.04 3.436.275 5.113.415 2.214 5.27 3.22 5.94 3.227.596.006.03-1.193.046-1.79-.198-14.178-.581-28.36-1.52-42.51-.168-4.02-.452-8.064-.172-12.088.123-1.773.33-2.848.555-4.55.044-.334.077-.67.115-1.006l-3.535.176c-.261-.375-.361-.951-.784-1.125-.297-.122.222.604.282.919q.236 1.254.37 2.523c.443 4.161.341 4.897.419 9.424.002 7.753-.137 15.518.037 23.27.06 2.675.243 5.347.313 8.023.068 2.58.082 9.659.092 12.386-.006 1.667.03 3.334-.018 5-.097 3.331-.553 6.643-.618 9.975-.01.542-.492 1.557.046 1.626 1.527.194 2.998-.698 4.497-1.047.377.51.577 1.223 1.133 1.528.303.167-.125-.68-.202-1.016a44 44 0 0 0-.382-1.545c-.703-2.64-1.53-5.25-2.1-7.925a1624 1624 0 0 0-4.02-20.628c-.347-1.729-.789-3.44-1.078-5.18-.229-1.38-.316-2.78-.473-4.17-.078-1.401-.222-2.8-.233-4.202-.011-1.433.109-2.863.166-4.295.061-1.532.078-3.066.19-4.595.305-4.17 1.062-8.29 1.724-12.412.554-3.075 1.07-6.157 1.663-9.225.119-.612.207-1.232.364-1.835.09-.344.374-.643.373-.997 0-.126-.25.024-.375.036-1.3-.448-2.607-.875-3.9-1.343-.02-.007.008-.084.017-.064.548 1.394.773 2.907 1.5 4.235.27.408.519.83.808 1.224 1.454 1.982 3.408 3.593 4.53 5.828.319.615.684 1.208.957 1.845.72 1.679 1.111 3.293 1.5 5.082.778 3.584 1.272 7.228 1.367 10.897.422 8.573.76 17.154.592 25.737-.035 4.713.081 2.699-.338 7.255-.373 4.053-.702 8.125-2.13 11.977-1.028 2.858-.23.791-1.189 2.998-.052.121-.058.266-.138.37-.28.363-.993.514-1.369.797l-.028-.026 1.936-.123c.514.068 1.056 1.673.364.215-.317-.832-.677-1.649-.954-2.495-.805-2.467-1-5.098-1.842-7.557-.272-.764-.51-1.54-.815-2.29-.567-1.39-1.308-2.749-1.948-4.106-1.29-2.736-2.503-5.515-3.464-8.386-1.1-3.683-2.302-7.548-2.557-11.41-.08-1.228.001-2.463.084-3.691.228-3.387.695-5.945 1.21-9.325.302-1.626.564-3.26.908-4.876 1.087-5.115 2.833-10.1 3.453-15.308.118-.424-5.876-2.084-5.993-1.66" style="fill:#000"/><path d="M667.535 1208.998c-.597-3.527-1.243-7.042-1.764-10.583-.525-2.068-1.148-5.308-5.252 2.584-.678 1.304.775 2.838 1.246 4.23 2.164 6.388 4.906 12.553 7.614 18.72 2.032 4.077 3.95 10.648 10.101 3.695.928-1.048-.16-2.801-.408-4.179-.794-4.422-2.003-7.633-3.39-11.944-.792-1.983-1.508-3.998-2.377-5.95-1.863-4.186-4.561-10.395-9.813-2.269-.91 1.407.246 3.347.539 4.995.396 2.229 1.017 4.41 1.525 6.616.718 2.324 1.375 4.668 2.154 6.973.684 2.025 2.938 8.331 4.338 10.524.463.725 1.03 1.955 1.871 1.776 8.353-1.782 6.464-3.347 6.158-9.586-1.432-8.772-4.275-17.23-7.988-25.289-1.806-3.917-3.877-7.825-6.564-11.232-.606-.768-1.396-1.37-2.095-2.055-2.048.646-4.77.288-6.146 1.937-.876 1.051.709 2.657 1.277 3.902.613 1.343 1.429 2.588 2.245 3.819 1.573 2.37 3.93 5.353 5.934 7.409.826.848 1.765 1.577 2.648 2.366.702.403 1.306 1.093 2.107 1.21 1.586.232 3.504.738 4.805-.199 1.718-1.236 1.72-5.138.377-6.7-.726-.844-1.702-2.027-2.796-1.826-2.052.378-3.54 2.211-5.309 3.317-.357 1.455-.884 2.878-1.072 4.364-.497 3.939-.175 7.918.362 11.825.233 1.7.464 3.413.948 5.059.174.593.392 1.692.996 1.563 2.258-.484 4.13-2.069 6.194-3.103-.316-4.637-.277-7.404-1.693-12.058-.539-1.773-1.005-3.714-2.257-5.08-1.083-1.18-2.905-2.835-4.326-2.095-7.86 4.095-7.212 10.654-8.435 17.85-.143 3.728-.49 7.454-.43 11.184.057 3.577.649 13.367 2.459 17.31 2.336 5.088 7.601 1.03 9.91-2.175 1.33-1.846.623-4.508.934-6.763.112-5.972.343-7.467-.23-13.08-.072-.694.267-2.093-.429-2.047-2.031.133-4.24.925-5.598 2.442-.814.91.021 2.444.138 3.66.173 1.802.487 3.588.73 5.382.995 4.227 1.216 10.905 8.116 3.657.89-.936-.02-2.587-.114-3.876-.281-3.833-.625-5.454-1.23-9.16-.997-4.8 0-3.565-5.88-1.118.283.335 5.009-3.685 4.725-4.02-2.027.386-4.182.35-6.08 1.156-1.514.643.307 4.673-.855 4.858.392 4.037.374 5.574 1.5 9.607.39 1.395.21 3.414 1.496 4.08 9.19 4.764 7.493-2.001 6.974-6.583-.256-1.036-2.114-9.956-3.62-10.79-9.002-4.988-9.025 3.42-9.045 8.594-.01 2.35.2 4.697.3 7.045.205 1.97-.638 4.375.614 5.909 1.37 1.678 4.015 1.645 6.083 2.291.295.092.884.203.92-.103.259-2.187-.078-4.403-.127-6.604-.161-7.222-.324-12.979-.52-20.25-.562-12.253 2.06-6.462-4.811-12.313-.521-.443-1.276-2.283-1.285-1.599-.023 1.571.8 3.04 1.243 4.547 2.095 7.148 1.509 5.263 4.065 11.682 2.437.327 4.872 1.302 7.31.98.7-.092.617-1.32.627-2.026.02-1.645-.325-3.275-.539-4.906-.444-3.391-1.101-6.753-1.538-10.145-.11-.857-.143-1.72-.215-2.581-1.208-.027-2.48.305-3.624-.081-.511-.172-.683-.881-.794-1.409-.056-.265.359.645.61.541.669-.275.901-1.308 1.609-1.453 1.163-.238 2.372.612 3.54.398.4-.073-.55-.596-.825-.894-2.533-3.124-5.009-6.305-7.65-9.339-.929-1.065-1.756-2.247-2.859-3.13-2.033-1.629-7.071 1.668-7.761.908 1.13 3.67.377 1.427 2.433 6.598.886 2.227 1.764 4.457 2.656 6.681 3.128 7.804 6.32 15.584 9.363 23.422 2.299 5.502.818 5.725 8.323 5.072.368-.032.135-.744.065-1.106-.292-1.52-.72-3.013-1.144-4.502a156 156 0 0 0-1.902-6.177c-.748-2.262-1.58-4.495-2.37-6.742-.802-2.064-1.542-4.153-2.403-6.193-.623-1.476-.596-3.668-2.047-4.348-9.636-4.518-6.723 2.64-5.46 6.285.682 1.964 1.47 3.89 2.206 5.835 1.224 2.979 3.236 8.003 4.664 11.026.482 1.019.515 2.64 1.588 2.987 9.652 3.113 6.337-2.75 5.045-7.268-.82-2.089-1.577-4.203-2.458-6.266-1.746-4.089-3.937-8.641-6.198-12.49-.89-1.515-1.291-3.685-2.894-4.408-2.224-1.005-4.905-.568-7.318-.202-.451.068-.161.897-.241 1.346.158 3.896.858 7.757 2.454 11.34.09.427 6.13-.834 6.04-1.261zM480.225 1222.633a78 78 0 0 0-3.11 12.037c-.229 1.311-.464 2.63-.513 3.96-.02.538-.224 1.517.31 1.583 2.26.283 4.53-.462 6.795-.693 1.688-4.909 2.883-10.052 2.917-15.27.004-.659.327-1.913-.331-1.949-7.445-.4-6.461.519-7.146 5.12-.085 4.647-.83 6.904 6.485 3.572.643-.293.28-1.384.431-2.074.16-.722.235-1.472.5-2.162.05-.129.126.245.19.367-1.162.58-2.864.599-3.484 1.74-.496.91.578 1.99.922 2.969.725 2.064 2.125 6.053 3.573 7.886.574.727 1.31 1.913 2.209 1.686 2.377-.602 4.185-2.556 6.278-3.834.573-6.646-.249-13.332-1.374-19.878-.234-1.36-.122-2.901-.903-4.039-.305-.444-.525 1.009-.993 1.276-1.639.935-3.462 1.503-5.193 2.255.432 3.2.916 7.614 1.82 10.678.372 1.263.589 2.763 1.594 3.613 1.39 1.173 3.5 2.935 5.07 2.016 3.788-2.218 2.576-9.456 2.422-12.582-.32-2.201-.417-4.446-.958-6.603-.837-3.342-3.246-7.969-8.583-3.63-1.693 1.376-.921 4.283-1.06 6.461-.334 5.286.499 12.24.953 17.405.59 2.292 1.004 4.637 1.773 6.875 1.253 3.649 3.456 7.16 8.943 3.006 1.614-1.222 1.072-3.92 1.297-5.932.48-4.284-.077-6.66-.64-10.766-.44-.52-.655-1.715-1.318-1.56-2.477.576-5.239 1.446-6.804 3.45-1.225 1.57-.462 3.96-.534 5.95-.116 3.195-.11 9.154.778 12.52.156.591.728.984 1.092 1.476 2.283-1.357 5.481-1.794 6.851-4.07 1.28-2.128.223-4.97.082-7.449-.288-5.058-1.25-12.584-3.247-17.356-.86-2.054-1.888-4.218-3.623-5.615-1.637-1.317-3.965-1.393-5.947-2.089-7.709 4.565-7.176 2.571-10.536 9.615-.587 1.23-1.54 2.516-1.337 3.863.102.677 1.077-1.002 1.76-1.058 2.037-.168 4.296 1.337 6.12.411 1.487-.754 1.37-3.04 2.054-4.56.54-1.507 2.968-3.655 1.621-4.52-1.875-1.203-4.804-.031-6.544 1.36-1.488 1.19-1.432 3.545-1.899 5.393-.763 3.024-1.259 6.112-1.783 9.187-1.474 8.661-1.281 8.218-1.867 16.022.133.837-.428 2.329.4 2.51 2.227.49 4.867.314 6.777-.932 1.26-.822.945-2.86 1.284-4.326.446-1.925.767-3.879 1.07-5.832.711-4.601.9-3.283.337-5.71-1.968.717-4.592.518-5.906 2.15-1.195 1.483-.431 3.795-.418 5.7.01 1.408.36 8.16 1.523 10.106.613 1.025 1.605 2.825 2.702 2.352 2.426-1.046 3.58-3.887 5.37-5.83.251-2.358 1.013-8.106.697-10.566-.038-.293-.54-.409-.824-.326-2.116.621-4.724.717-6.174 2.378-.6.687.275 9.962.298 10.268.391 1.172.246 2.7 1.173 3.516 1.49 1.313 3.596 2.98 5.479 2.345 2.045-.688 2.677-3.434 3.576-5.395 1.153-2.513 1.774-7.538 1.948-10.496-5.137 1.819-4.313.058-5.063 2.896.132.49 7.053-1.374 6.922-1.863-2.888-5.577-.527-3.76-8.288-3.34-1.738 2.664-1.991 2.565-2.598 6.307-.26 1.61-.726 3.306-.309 4.882.185.699 1.266.698 1.883 1.073 1.322.803 2.405 2.705 3.932 2.462 1.016-.162-.011-2.057-.017-3.085-.097-.827-.973-9.882-1.792-10.683-.903-.884-7.598-5.6-8.664-1.148-.616 2.574.04 7.93.255 10.487 1.689.296 3.488.218 5.066.887.965.41 1.364 2.788 2.238 2.21 1.07-.71.27-2.561.23-3.844-.06-1.847-.81-11.56-2.136-12.985-1.808-1.941-4.924-1.972-7.386-2.958-.595.749-1.425 1.36-1.785 2.245-1.14 2.804-1.608 8.312-1.637 11.127-.017 1.764-.868 4.014.36 5.28 1.693 1.744 4.512 2.377 6.939 2.242 1.091-.061 1.211-1.82 1.817-2.73.63-2.269 1.427-4.498 1.89-6.806 1.133-5.656 1.997-13.524 1.771-19.299-.106-2.698.75-6.04-1.075-8.03-1.79-1.954-5.26-2.446-7.781-1.632-1.595.515-1.171 3.14-1.757 4.71-.376 1.684-1.605 3.394-1.128 5.053 1.15 3.994 3.427 8.613 6.673 5.054.8-.876 1.18-2.058 1.728-3.11.648-1.245 1.775-2.378 1.858-3.78.052-.877-1.004-1.443-1.506-2.165.808-2.593.528-2.78 2.143 2.696 1.179 3.994 2.69 12.306 3.579 16.216.538 2.365.148 5.255 1.77 7.058 1.812 2.012 4.976 2.136 7.464 3.204.305-.515.826-.952.916-1.544.543-3.611-.13-9.027-.603-12.432-.258-1.86.334-4.226-1.005-5.543-4.58-4.505-5.361-3.36-7.387-1.39.091 2.71.173 7.466.623 10.024.212 1.206.098 2.814 1.11 3.504 6.627 4.513 6.378 2.104 6.204-1.75-.1-2.228-.338-4.449-.508-6.673-.495-3.035-.92-6.083-1.486-9.106-.479-2.56-.891-5.146-1.644-7.64-1.018-3.37-3.16-6.407-7.956-4.556-3.107 1.2 5.849 10.634 1.457 9.884 2.278 8.556-.75 3.927 4.625 5.632 1.47.466 2.71 2.606 4.146 2.048 1.094-.425-.184-2.346-.418-3.496-1.075-5.278-1.593-6.119-3.418-11.07-2.396-1.16-4.545-3.157-7.187-3.478-.998-.121-1.551 1.42-1.853 2.38-.484 1.533-.499 3.2-.413 4.806.127 2.382.596 4.737 1.047 7.08.872 4.519 1.622 6.729 2.853 10.82 1.888.146 3.772.375 5.665.437.088 0 .117-.164.09-.248a44 44 0 0 0-1.347-3.542c-.693-1.614-3.598-8.29-5.336-9.252-2.051-1.134-4.63-.732-6.944-1.098-2.14 2.712-2.559 2.325-2.558 5.922 0 1.008-.42 2.502.464 2.987 3.586 1.973 6.687 2.594 7.344-.86.228-1.197.16-2.431.239-3.647-.622-5.08.503-6.333-7.505-6.304-.83 0-.941 1.399-1.177 2.195-.915 3.08-1.259 7.788-1.344 10.873-.043 1.538.088 3.075.132 4.613 2.13.837 4.124 2.187 6.39 2.51.573.082.734-.923.928-1.469.44-1.242.683-2.547.955-3.837.871-4.149 1.488-8.375 1.24-12.625.053-.45-6.306-1.211-6.36-.761M549.09 1283.365c1.904-1.1-1.026 1.304-.542 1.355 1.902.2 3.828.48 5.73.288.4-.04.588-.573.748-.94.246-.567 1.41-4.602 1.624-5.332.194-.487.324-1.005.584-1.46.104-.183.088.538-.105.62-.893.385-2.018.135-2.843.647-.28.174.441.501.723.67.703.422 1.397.96 2.206 1.086 1.428.222 2.89-.043 4.335-.065.472-.163 1.854-.253 1.414-.49-.603-.323-1.367.218-2.048.15-.334-.034-.577-.523-.904-.445-.21.05.004.438.065.645.108.365.168.785.437 1.053.814.807 1.82 1.393 2.73 2.09 4.09-2.33 3.828-1.191 5.284-4.246.161-.338.741-1.12.371-1.06-1.367.215-2.45 1.723-3.83 1.606-1.006-.086-1.172-1.95-2.168-2.118-.579-.098.035 1.174.052 1.76.66 1.889.525 2.13 1.946 3.635.769.815 1.746 1.405 2.574 2.16.89.812 1.052 1.026 1.829 1.88.341.338.571.855 1.025 1.015 4.52 1.59 4.282 1.644 7.14-1.513.474-.523.775-1.18 1.17-1.763.184-.27.891-.852.568-.8-1.087.172-2.05.799-3.075 1.199-.731-.41-1.366-1.366-2.193-1.229-.544.09-.192 1.087-.254 1.635-.229 2.025-.307 4.065.635 5.948.29.577.727 1.068 1.09 1.602l1.505 1.127c.359.263 4.089-4.806 3.73-5.07l-.071.354c-.019.102.045.329-.055.305-.113-.027-.083-.222-.085-.338-.006-.484.042-.966.062-1.45.032-.773.243-4.122-.054-4.83-.603-1.439-1.698-2.618-2.547-3.928-3.506.956-3.765.185-5.352 2.479-.3.434-.81.876-.741 1.4.04.302.616-.192.911-.112.971.263 1.812.947 2.804 1.118.328.056-.44-.499-.659-.748-1.146-1.512-2.341-2.941-3.966-3.975-.23-.147-.513-.185-.77-.278-.127-.025-.272-.01-.382-.074-.139-.087-.217-.245-.325-.368-.464-1.462-1.294-4.235-2.27-4.593-2.131-.783-4.092.966-4.877 2.593-.196.406-.889 1.137-.458 1.273.973.308 2.017-.308 3.026-.462.605.692 1.078 1.526 1.814 2.076.24.18-.116-.59-.206-.876-.209-.666-.313-1.39-.689-1.979-1.937-3.039-2.152-2.527-5.768-2.601-.329-.01-.649.113-.973.17.501.143 1.06.154 1.504.428.166.103-.393.244-.565.153-.65-.348-1.02-1.18-1.731-1.378-1.657-.46-3.436-.82-5.13-.528-1.785.31-2.836 2.827-3.553 4.094-.906 2.879-1.244 3.262-1.321 6.341-.025.99-.637 2.438.203 2.963 1.675 1.048 3.892.867 5.867.835.43-.01.766-1.908.797-2.044.118-.424-5.876-2.084-5.993-1.66zM630.314 1273.527c.273 2.528.985 5.01 2.034 7.327.418.921.827 1.864 1.428 2.677.558.756 1.122 1.67 2.01 1.975 1.67.574 3.515.352 5.272.529 3.523-3.868 1.894-1.471 3.795-5.548.232-.497.331-1.111.75-1.467.178-.15.35.517.18.677-.431.406-1.33.186-1.637.693-.18.296.582.375.874.563 3.103 1.797 4.595 2.21 7.975-.904.671-.619.569-1.735.824-2.61.81-2.777.062-1.05 1.17-3.26l.669-.639c.261-.397-5.367-4.096-5.629-3.698l-1.545 2.032c-.729 1.87-1.192 2.563-1.296 4.515-.014.248-.055.718.194.72 1.175.012 2.29-.553 3.457-.683.098-.011.136.337.048.292-.53-.274-.98-.684-1.47-1.025-.842-.477-1.577-1.249-2.528-1.429-1.62-.306-3.354-.406-4.949.015-1.94.512-3.07 2.43-3.787 4.074-.226.52-.513 1.067-.473 1.632.014.21.4.125.6.187.943.365 1.84.88 2.827 1.095.299.065-.504-.368-.67-.625-.449-.695-.787-1.456-1.155-2.197-.99-2-1.85-4.063-2.864-6.051-.08-.432-6.185.702-6.104 1.134z" style="fill:#ff2a2a"/><circle cx="182.458" cy="1559.434" r=".389" style="fill:#ff2a2a;stroke:#000"/><path d="M692.948 1219.762c-2.175-6.859-5.772-13.508-10.634-18.864-.56-.615-1.226-2.094-1.904-1.613-4.555 3.232-8.082 7.711-12.123 11.566 1.3 4.25 4.826 7.808 7.96 10.839.788.762 1.68 2.723 2.558 2.067 16.101-12.03 15.745-9.425 9.156-17.932-1.045-.907-2.022-3.542-3.135-2.72-5.136 3.796-10.313 8.446-12.653 14.388-1.002 2.547 2.737 4.744 4.213 7.05 2.155 3.368 7.856 11.914 10.945 14.771 1.592 1.472 3.69 2.278 5.535 3.416 5.084-3.15 12.059-4.395 15.252-9.452 1.83-2.899-1.702-6.675-3.088-9.811-3.142-7.11-10.022-16.72-16.22-21.64-1.424-1.13-3.134-1.845-4.7-2.768-4.962 1.653-10.78 1.718-14.884 4.958-1.912 1.51-.738 4.848-.621 7.281.07 1.47.657 2.88 1.175 4.258 2.828 7.507 8.802.976 16.692-5.229.95-.746-1.482-1.908-2.223-2.862-5.04 1.329-10.92.899-15.12 3.985-2.138 1.572-.975 5.242-1.045 7.896-.15 5.727 1.38 13.214 4.062 18.35.323.617.915 1.049 1.372 1.573 16.16-8.456 17.641-2.845 13.297-11.237-.649-1.122-16.515 8.054-15.866 9.176 6.516 6.426 1.307 2.665 19.026-3.076.13-.343.416-.664.392-1.03-.12-1.782-1.765-8.241-2.054-9.352-.459-1.767-.664-3.637-1.462-5.28-2.238-4.61-26.84 10.063-15.373.318-2.863-6.904-.854-.66 15.856-7.04.083-.03-.243-2.054-.663-2.145-.544-.117-.776.913-1.322 1.019-4.4.856-8.882 1.22-13.323 1.83 2.297 4.125 6.186 8.853 9.013 12.423 1.838 2.321 3.524 4.784 5.603 6.89 1.074 1.088 2.253 2.774 3.772 2.606 5.402-.597 10.398-3.164 15.598-4.747-3.466-5.42-7.656-10.81-11.796-15.712-1.792-2.122-2.841-6.176-5.618-6.152-6.549.058-12.852 3.204-18.587 6.365-1.002.553 1.378 1.827 2.067 2.74 7.663 7.557 4.578 6.77 21.728-3.287.878-.515-.92-1.825-1.503-2.66-3.717-5.329-8.385-9.84-13.747-13.503-4.486 3.625-9.48 6.698-13.457 10.875-.565.593.538 1.557.944 2.269 2.813 4.934 6.625 9.319 9.952 13.9.333 1.199 17.285-3.498 16.953-4.697" style="fill:#ff2a2a"/><circle cx="412.975" cy="1311.739" r=".445" style="fill:#000;stroke:#000"/><circle cx="575.452" cy="1583.409" r=".629" style="fill:#000;stroke:#000"/><path d="M951.398 1138.125c-7.936-24.592 13.218-45.274 4.874-6.27 35.883-10.103 50.252-61.658 73.782-90.797 28.5-34.835 48.47-75.32 75.685-111.268 30.226-51.988 65.543-100.843 92.884-154.617 35.332-55.63 69.94-111.76 106.066-166.782 23.24-42.141 57.103-77.67 78.46-121.167 36.977-48.007 67.799-100.482 98.552-152.564 11.288-58.358-50.823 23.261-66.322 38.52-34.656 29.241-58.942 67.917-88.974 101.556-36.583 50.11-74.27 99.426-105.175 153.37-41.191 63.844-82.238 127.777-117.169 195.345-34.183 56.772-62.234 116.937-96.164 173.8-16.77 42.08-47.089 77.289-61.823 120.394-18.426 21.26 13.125-39.137 20.9-52.213 26.142-41.692 45.146-87.102 71.118-128.932 35.65-68.523 74.442-135.424 112.128-202.775 51.101-76.797 95.157-158.372 152.572-230.855 29.72-40.345 60.444-80.403 95.309-116.325 28.508-28.689 54.346-61.498 88.31-84.154 11.703 42.45-34.88 76.443-50.407 113.732-27.105 41.992-56.499 82.305-82.315 125.158-31.777 38.796-52.86 84.226-82.638 124.446-34.482 56.418-71.51 111.325-102.217 169.92-32.452 46.328-57.74 97.028-92.616 141.706-21.398 41.863-55.057 75.772-75.838 118.19-13.637 13.793-27.414 44.16-48.982 42.582m182.385-5.751c-.908-40.611 28.522-75.65 42.296-112.982 24.498-61.064 66.547-112.616 98.602-169.539 31.618-44.337 57.214-92.515 91.716-134.795 28.722-41.722 62.783-79.59 86.117-124.926 28.425-30.427 40.404-69.533 58.617-105.74 22.251-42.206 51.227-81.51 67.819-126.122 21.459-50.351 75.742-4.445 42.847 30.788-18.139 35.866-36.132 72.766-61.74 104.208-36.975 66.835-75.74 132.637-115.09 198.11-54.576 77.558-104.873 157.77-154.355 238.609-27.975 39.92-50.864 82.969-81.48 120.875-26.233 24.998-36.875 76.183-75.349 81.514m16.422-8.89c30.81-29.592 48.798-71.416 78.223-103.383 38.613-59.904 77.277-120.012 114.789-180.614 38.535-65.037 85.507-124.874 123.315-190.43 31.34-53.179 61.74-106.972 93.256-160 26.158-34.2 44.893-73.479 63.063-112.113 14.397-49.683-47.378-39.365-45.967.555-25.498 43.372-51.568 86.795-74.19 131.825-12.444 46.292-50.531 78.639-70.686 121.262-41.399 58.229-87.794 113.205-123.636 175.238-36.954 51.953-67.877 107.631-102.792 160.938-23.651 49.225-48.946 98.164-67.379 149.595-3.143 10.97 3.79 16.747 12.003 7.127m-371.074-11.528c6.882-41.965 21.161-81.796 32.6-122.555 34.748-75.543 67.59-152.102 110.396-223.643 62.809-117.18 134.533-229.967 218.603-333.12 54.105-72.08 116.34-138.74 187.508-194.162 18.234-11.287 84.03-70.432 55.363-20.184-30.65 44.549-68.076 84.692-99.525 128.976-57.465 71.954-112.93 145.503-167.429 219.739-47.03 65.323-96.244 129.134-138.214 197.898-43.881 70.156-84.394 142.43-120.709 216.82-27.72 40.797-40.094 90.381-68.249 130.096-2.103 1.335-15.122 17.185-10.344.135m12.374-5.898c32.102-72.838 71.774-142.367 107.68-213.652 32.494-55.919 63.934-112.477 100.336-166.004 47.479-72.577 101.533-140.694 151.78-211.433 49.927-65.559 99.69-131.345 150.804-196.03 25.287-37.768 61.498-68.417 81.15-109.548-23.278-1.564-71.226 46.847-98.87 68.915-62.854 54.48-115.307 119.655-164.918 186.132-96.964 123.005-173.427 260.404-245.663 398.897-21.668 52.852-51.918 102.316-66.655 157.723-9.134 26.218-12.854 31.269 3.982 10.588-6.114 17.202-36.467 72.529-19.626 74.412m90.293-30.793c9.073-30.176 31.545-60.853 44.576-91.774 34.3-57.414 63.843-117.585 98.3-174.87 33.426-50.29 65.024-101.867 103.177-148.878 12.74-14.345 49.271-60.975 55.708-48.269-20.04 42.359-48.898 79.933-72.236 120.563-43.018 72.036-89.147 142.216-126.983 217.172-30.324 39.642-47.717 92.261-93.954 117.277-2.752.303-6.755 14.215-8.588 8.779m32.74-29.444c29.636-35.351 52.941-75.843 75.322-115.877 49.058-89.83 105.374-175.448 157.636-263.322 13.011-12.194 48.372-80.876 14.054-38.808-31.26 27.4-53.152 64.11-78.547 97.029-31.654 50.766-67.638 99.009-92.789 153.554-35.003 59.625-68.378 120.27-98.615 182.263 7.114.363 16.765-10.3 22.94-14.84m262.193-149.03c1.24-39.469 33.077-75.019 55.863-106.282 38.824-55.271 83.249-106.516 120.575-162.784 10.524-19.716 56.436-75.935 57.313-64.565-34.734 26.556-53.547 67.192-79.546 101.412-41.536 56.742-86.873 110.94-126.08 169.175-11.23 12.197-39.682 82.7-5.838 45.717 46.861-52.132 79.629-114.898 116.614-174.02 28.889-40.938 56.371-83.22 85.977-123.585 11.69-18.258 39.547-50.48 13.33-12.59-30.812 34.143-49.017 77.25-80.18 111.301-44.739 70.742-83.08 146.94-140.815 208.424-4.853 2.99-10.285 13.496-17.213 7.797m11.734-357.221c30.238-50.487 64.991-98.306 97.479-147.286 9.328-16.607 59.604-49.272 19.674-16.866-37.394 38.272-59.67 88.276-93.059 129.95-12.6 18.234-21.258 40.536 1.506 13.497 32.233-40.629 78.562-69.55 102.806-116.449 13.766-15.292 46.577-80.362 23.852-28.444-24.074 36.18-47.762 72.166-80.935 100.998-26.104 17.848-42.827 56.075-71.323 64.6" style="fill:#000;stroke-width:1.33333" transform="matrix(.84645 0 0 .87625 -453.3 445.688)"/><path d="M1301.987 384.212c7.01-4.177 13.638-9.03 19.619-14.588 2.85-2.65 5.55-5.58 8.227-8.401 2.12-1.987 4.623-6.044 7.322-7.456.39-.204.867-.173 1.307-.195.525-.027 1.134-.233 1.578.05.348.222-.819.115-1.228.173 1.348-.076 12.16-.126 5.277-.105-.023-.104 1.025.132.94.067-.355-.27-.86-.302-1.201-.589-.98-.82-1.187-1.304-1.709-2.236-1.338 3.317-2.387 6.741-3.63 10.097-1.092 3.425-2.926 6.423-5.05 9.285-1.036 1.673-2.277 3.205-3.405 4.812-.396.565-.73 1.173-1.144 1.725-.544.725-3.328 3.86-3.595 4.165-3.907 4.717-1.93 2.285-5.925 7.299-.437.727 9.852 6.896 10.288 6.169 3.722-5.283 1.988-2.688 5.226-7.77.564-.909 2.307-3.743 3.041-4.83 1.52-2.25 3.604-4.103 4.808-6.58 2.151-3.612 4.486-7.157 5.897-11.147 1.562-4.18 2.986-8.466 3.474-12.922-.111-.952.012-1.962-.334-2.856-.964-2.488-1.835-2.997-4.018-3.918-.321-.136-.904.21-1.223-.032-.94.001-1.88.01-2.82.003-.148 0-.59-.027-.443-.026.86.008 1.723.137 2.577.047.338-.036-.664-.142-.996-.214-2.022-.44-.756-.192-3.113-.605-3.918.016-5.484-.397-8.895.792-5.068 1.766-8.892 5.713-12.703 9.299-1.274 1.213-2.52 2.46-3.824 3.641-7.199 6.52-15.131 12.235-21.829 19.303-.533.53 6.971 8.073 7.504 7.543zM1391.137 586.805c.587-.453 1.207-.865 1.76-1.359 5.807-5.195 10.904-12.152 15.34-18.505 3.277-4.867 6.92-9.068 11.68-12.52.498-.36 3.905-2.494 4.529-2.886 2.375-1.383 3.94-1.968 5.298-4.601.226-.44.243-.957.365-1.436-.017.111.058.358-.052.333-3.255-.75-6.353-2.315-9.683-2.576-.672-.052-.716 1.143-1.033 1.738-1.419 2.665-2.272 5.51-3.22 8.363-.92 3.848-3.155 7.088-5.226 10.385-.347.71 9.7 5.622 10.047 4.911 2.293-3.973 4.675-7.95 5.788-12.451.756-2.414 1.318-4.882 2.159-7.265.159-.451.9-1.058.514-1.339-2.604-1.892-5.567-3.277-8.546-4.499-.285-.117-.168.594-.251.891.446-1.433.032-.407 1.417-2.307.048-.065.187-.232.107-.217-1.441.265-3.17 1.265-4.528 1.652-2.221 1.133-3.782 1.86-5.923 3.292-5.704 3.816-10.266 8.985-14.236 14.532-4.563 6.7-9.204 13.353-14.2 19.742-.432.558 7.46 6.68 7.894 6.122zM963.22 1098.9c1.73-6.013 2.13-12.279 2.832-18.463.511-4.508.27-1.594.452-3.945l-11.847 2.342c-.683-.602-1.346-2.384-2.049-1.805-1.122.923-.638 2.835-.933 4.258-1.7 8.215-2.8 16.462-3.878 24.779-.888 8.248-1.467 16.55-1.412 24.852.01 1.48.029 2.963.18 4.434.063.606-.147 1.7.458 1.769 4.726.538 9.512-.061 14.268-.092 1.5-5.723.781-2.629 2.071-9.304.111-1.141-16.032-2.715-16.143-1.573-.313 7.058-.404 3.821.059 9.714 4.666.88 9.254 2.421 13.998 2.64.714.033.686-1.268.889-1.954.427-1.451.721-2.94.992-4.428 1.476-8.093 2.02-16.31 2.854-24.482.64-8.354.844-9.961 1.173-18.082.028-.687.378-10.396.11-12.058-.383-2.383.41-6.154-1.85-7.001-3.964-1.487-8.402 1.054-12.603 1.581-.446.888-.99 1.732-1.339 2.663-2.664 7.124-2.523 15.646-2.697 23.146-.071 1.02 14.344 2.028 14.415 1.009z" style="fill:#000" transform="matrix(.84645 0 0 .87625 -453.3 445.688)"/><path d="M185.902 929.766c.537-1.888 1.39-14.168 1.897-27.287l.92-23.853 12.953-21.913c7.124-12.052 16.817-29.853 21.54-39.558s11.937-23.435 16.031-30.511c4.095-7.076 19.88-36.076 35.08-64.443 15.199-28.368 33.977-62.693 41.73-76.277s19.217-34.18 25.477-45.766c15.578-28.834 45.476-78.594 75.482-125.623 13.784-21.605 29.838-47.127 35.676-56.716 40.233-66.084 129.034-183.586 169.094-223.745 9.565-9.59 25.817-26.751 36.115-38.137 24.983-27.625 37.782-37.875 43.148-34.56.844.523 1.535 4.637 1.535 9.144 0 7.962-.592 9.182-20.95 43.138-26.245 43.774-47.126 76.05-65.298 100.927-7.768 10.634-15.99 23.022-18.272 27.527-5.333 10.53-17.802 29.455-39.693 60.24-9.61 13.514-21.53 31.196-26.489 39.292s-17.843 28.451-28.632 45.232c-39.193 60.963-86.592 136.786-91.123 145.767-9.35 18.536-70.108 117.382-93.03 151.35-6.202 9.19-19.624 29.784-29.827 45.766s-24.925 37.558-32.716 47.946c-7.79 10.388-19.253 27.714-25.473 38.501-18.994 32.947-31.589 49.199-42.761 55.178-3.18 1.702-3.33 1.601-2.414-1.619" style="fill:maroon;stroke-width:1.45289" transform="matrix(.84645 0 0 .87625 206.193 616.023)"/><path d="M360.666 931.902c-4.665-4.665 9.327-40.225 45.356-115.263 15.277-31.818 24.613-48.979 40.314-74.098a33088 33088 0 0 0 37.587-60.295c9.435-15.183 24.163-38.066 32.73-50.851 8.566-12.786 20.65-31.42 26.853-41.408 14.096-22.698 30.365-45.663 70.422-99.405 33.348-44.742 36.85-49.763 47.994-68.834 3.874-6.63 14.483-22.648 23.576-35.596 9.093-12.949 19.065-27.75 22.16-32.89 6.221-10.335 15.217-30.11 15.245-33.513.029-3.428 26.65-52.49 51.72-95.319 17.079-29.178 23.162-40.851 24.017-46.093 1.642-10.055 7.429-19.08 15.125-23.591 18.354-10.756 32.672-2.252 30.808 18.299-.589 6.494-3.671 13.92-16.048 38.651-17.552 35.073-26.202 50.221-40.959 71.73-5.756 8.391-20.922 33.235-33.702 55.21-88.833 152.747-82.651 142.635-131.909 215.755-17.764 26.37-49.267 75.079-70.007 108.241-52.883 84.559-103.933 163.326-112.526 173.62-4.002 4.795-15.69 21.14-25.975 36.323-31.236 46.115-47.6 64.508-52.781 59.327" style="fill:red;stroke-width:1.45289" transform="matrix(.84645 0 0 .87625 206.193 616.023)"/><path d="M9.78 909.612c-1.456-1.455-1.695-3.04-1.286-8.524.587-7.872 4.64-19.197 16.205-45.263 4.387-9.889 7.77-18.197 7.516-18.464s-2.726 2.045-5.495 5.137-5.056 5.213-5.08 4.713 1.52-5.354 3.434-10.787c1.913-5.433 5.43-16.12 7.816-23.748 7.33-23.437 14.225-39.797 37.233-88.352 7.363-15.54 15.903-34.031 18.978-41.094 10.613-24.381 60.63-117.631 95.506-178.058 46.579-80.705 92.988-151.618 137.954-210.795 7.728-10.17 21.609-28.432 30.845-40.58 47.915-63.023 90.293-111.858 126.808-146.13 19.215-18.034 70.715-62.3 84.265-72.429 16.244-12.142 30.64-19.787 37.26-19.787 1.776 0-2.08 7.748-9.691 19.474-7.901 12.173-15.448 21.91-36.642 47.277-10.138 12.134-22.363 27.39-27.167 33.903-4.803 6.512-15.974 21.087-24.823 32.388-43.656 55.752-123.86 160.9-145.362 190.574-8.394 11.583-28.915 39.553-45.601 62.155-69.6 94.27-107.116 149.626-145.175 214.202-28.412 48.209-47.808 82.587-61.443 108.9a15113 15113 0 0 1-30.82 59.072c-20.654 39.34-43.608 85.248-54.45 108.9-4.663 10.17-8.595 18.63-8.738 18.798s-1.065-.499-2.048-1.482M114.057 864.387c0-1.04 27.556-54.59 40.354-78.422 13.082-24.36 36.383-66.015 48.56-86.811 4.633-7.911 11.94-21.412 16.24-30.001 12.815-25.6 23.518-43.259 64.636-106.637 22.53-34.73 60.786-87.849 74.727-103.763 10.731-12.249 37.368-38.894 37.747-37.757 1.156 3.469-14.137 32.34-24.176 45.64-3.125 4.14-12.349 18.568-20.497 32.062-8.148 13.495-27.657 45.394-43.353 70.888-48.806 79.273-68.649 112.792-100.722 170.148-29.317 52.428-57.672 95.546-73.048 111.082-8.417 8.505-20.468 16.495-20.468 13.57M421.784 333.673c1.64-5.52 9.497-18.471 19.218-31.68 5.765-7.832 19.67-28.47 30.902-45.859 30.196-46.755 44.935-66.284 50.188-66.497 4.277-.173 13.697-7.207 25.845-19.302 6.119-6.092 11.541-10.819 12.05-10.505 1.35.835-2.562 10.41-6.692 16.378-1.964 2.838-5.892 7.934-8.728 11.324l-5.156 6.165 2.517 2.23 2.516 2.231-3.578 4.96c-1.967 2.73-6.227 9.225-9.466 14.437-10.331 16.625-22.308 30.382-50.504 58.014-15.014 14.714-30.455 30.282-34.312 34.595-22.905 25.614-26.415 28.94-24.8 23.51M405.441 694.832c-2.754-2.754 2.27-20.574 10.655-37.797 7.336-15.066 30.286-47.479 73.472-103.765 48.333-62.996 68.073-89.726 86.551-117.201 23.245-34.564 31.115-44.67 34.164-43.874 2.691.704 9.26-5.361 16.093-14.86 3.893-5.41 6.494-7.811 6.494-5.993 0 .234-7.545 10.983-16.766 23.885s-25.483 36.173-36.138 51.712c-10.655 15.538-24.99 36.342-31.854 46.23-13.037 18.779-16.134 23.707-45.522 72.429-28.435 47.143-46.405 73.925-66.545 99.173-16.377 20.53-28.361 32.303-30.604 30.06M186.272 930.494c.353-.92 1.195-12.892 1.87-26.605l1.23-24.932 12.222-21.07c6.722-11.587 16.195-28.928 21.052-38.533s13.56-26.018 19.34-36.471c5.78-10.454 21.141-38.654 34.135-62.669 28.97-53.54 75.882-137.9 88.92-159.905 25.588-43.183 84.634-137.52 109.142-174.376 35.214-52.953 86.159-120.759 123.209-163.984 6.053-7.063 21.942-24.4 35.307-38.526 48.361-51.113 57.733-60.065 64.726-61.82 3.324-.834 4.242.982 4.261 8.427.02 8.06-2.471 13.219-22.04 45.627-25.393 42.055-39.236 63.345-70.444 108.343-5.055 7.289-10.993 16.535-13.195 20.547-5.16 9.401-17.142 27.523-36.067 54.553-18.821 26.881-18.87 26.957-62.583 95.779-57.77 90.952-77.826 123.308-91.557 147.703-29.45 52.322-115.089 186.25-154.981 242.373-5.59 7.865-15.418 23.016-21.839 33.668-13.958 23.157-22.367 35.161-30.45 43.466-6.526 6.705-13.42 11.431-12.258 8.405" style="fill:red;stroke-width:1.02735" transform="matrix(.84645 0 0 .87625 206.193 616.023)"/></g></svg>
