<svg xmlns="http://www.w3.org/2000/svg" width="1006.157" height="1404.105"><path d="M826.076 1562.548c-21.935-28.118-75.99-19.463-110.714-12.026-48.25 11.436-93.565-21.02-142.281-13.406-55.182 4.144-109.096-13.912-161.741 8.54-24.136-12.338-75.91 11.832-81.9-10.191 42.118-13.477 57.984-71.045 71.025-111.213-7.868 53.896 44.386-42.166 5.23-3.633-42.958 2.33-78.709-28.435-97.47 19.762-18.236-5.904-64.498 24.97-41.285 24.202 20.534-21.119-2.708 24.95-14.2 12.994-12.863-3.695-13.147 43.965-29.165 7.39-27.68 4.778-55.771-19.223-48.12-18.885-8.432 28.866-35.08-84.887-39.829-15.385-22.517-9.29 2.568-109.812-18.816-132.552-4.722 2.28 16.022-48.078-11.426-65.997-31.67-37.555 1.377-72.488 35.908-82.667-23.122-59.401-34.393-110.227-41.46-172.828 15.66-33.488 34.38-60.206 9.975-96.955 21.238-44.156-6.2-86.62 4.446-128.492-2.22-46.382 7.475-96.635.752-146.69-4.061-43.107 10.86-94.15 38.212-126.85-.695-56.596 46.374-93.284 80.322-132.025 15.372-47.574 64.229-64.457 105.316-83.658 24.02-61.496 91.288-17.629 123.742-66.436 44.974-.422 104.446 42.64 133.386-19.91 42.832-3.3 87.286 1.776 120.03-34.816 28.77 7.233 51.61 41.675 74.77 3.525 62.122-31.855 24.066 76.949 90.285 48.123 65.427-12.215 8.194 79.673 60.639 56.033 38.022-14.527 53.114 19.294 46.484 38.478 49.106-24.028 33.122 48.69 70.118 26.792 33.329 21.685 13.526 65.958 18.788 96.497-20.867 43.79-4.288 96.906 5.576 140.95-18.354 22.362 8.711 51.935.137 79.9 19.14 30.606 3.87 65.186 10.627 99.503 7.26 53.306 5.824 108.253 3.176 162.937-7.745 39.783-10.827 80.87-4.891 121.16-.854 50.415 3.002 92.31-21.67 135.628.882 42.296-19.01 83.933-20.896 127.035-8.162 34.682-17.087 76.177-39.67 102.337-27.604 17.44-49.547 38.22-83.106 51.545-41.968-20.518-70.3-59.488-107.502-87.571-19.114-22.24-27.557-50.125-25.03-3.31-6.575 62.382-10.281 141.253 44.604 184.714-25.177 8.279 13.779 13.992-12.376 17.451m-123.468-15.289c40.672-9.643 69.563-18.289 106.928-5.746-6.392-34.534-39.745-103.362-24.272-155.394 2.979-28.978 11.706-124.921-32.812-60.7-17.112 47.8-57.958 75.615-102.812 82.2-18.812 25.91-34.741-23.162-48.486 10.575-35.451-16.334-74.52-25.193-104.907-59.024-29.504-32.087-58.864-23.634-57.175 22.23-25.512 53.338-52.875 107.624-94.705 151.219-12.198 24.558 50.759-21.692 64.054 7.429 30.825-12.395 77.53-12.235 114.195-11.23 46.333 7.572 94.617-4.337 139.672 13.483 14.903-3.949 25.447 12.69 40.32 4.958m-467.298-65.14c-5.49-12.589-3.747 9.66 0 0m-29.66-4.959c-21.094-37.174-42.322-24.436 0 0m29.59-6.097c26.215-30.494-15.994 17.992 17.908-7.262 20.186-33.51 70.883-20.062 73.075-59.849 41.56-11.657 48.752 27.673 94.789 1.106 7.828-33.062 49.41-80.893-4.702-93.924-50.49-17.507-94.409-57.849-117.925-90.764-1.131-27.19-16.995-65.91-19.375-99.752-9.133-53.032-18.054-105.908-13.2-159.892 19.762-23.85-4.939-57.901-6.347-18.857-38.339 1.928-32.461-91.315-44.057-127.086-1.969-46.93-21.51-100.045-11.38-144.22 16.832-6.54 20.632 64.214 15.746 9.056-10.898-71.828 42.273 72.158 6.259 30.208 12.727 30.729 10.242 48.344 32.654 44.458 19.333 40.207 15.435 32.195 19.625-3.495 9.023-36.888 5.049-94.552 24.636-112.3 12.808-10.017 8.74-40.546 26.78-35.642.993 3.137 10.715-45.533 14.664-7.229-2.36-17.523 16.135-60.824 32.233-29.067.184-33.146 18.648-8.757 28.405-35.342 15.867 24.068 24.044-26.19 42.387 8.762 19.625-37.179 64.187 22.99 82.92 41.985 13.57 16.693-1.166-61.355 16.39-16.283 11.658 26.04 12.938 77.344 42.96 46.193 14.396 20.87.628-63.325 29.273-72.859 14.575-21.028 28.663-43.37 28.702-23.468 4.014-41.269 6.568 7.323 19.713-24.921-1.552 64.855 26.632-52.308 27.53 16.342 17.173-14.329 17.342 2.909 27.205 20.639-1.53-49.077 26.447 11.495 37.277-20.981 10.419 31.68 32.026 42.391 36.261 9.328 25.812 11.24 38.228 66.36 63.484 83.657 11.734 18.076 13.187 57.804 24.19 26.522 4.316 32.354 21.36 97.078 45.807 87.267-4.11-20.59 11.838-102.1 14.112-46.853-6.014 27.691-5.782 98.08 10.355 33.928.844-25.984 14.307-124.726 22.357-47.62 6.407 74.358-6.863 149.084 2.256 223.489-3.806 53.256 9.76 123.084-35.487 161.282 22.288 49.712-27.557 93.756-53.756 133.628-27.9 46.57-78.067 80.115-97.665 126.908 10.563 37.405 38.039 20.475 21.01 46.631 29.809 11.067 49.891 62.665 87.868 77.083 22.876 36.31 53.772 19.64 72.153-6.25 50.091-4.252 56.29-68.541 70.763-109.693-4.345-44.836 26.742-84.753 18.384-129.798 21.452-28.56 15.927-63.06 24.89-94.545-7.464-41.154.947-86.386-4.238-129.748 15.816-51.51 8.279-109.742 8.7-163.11-13.376-45.571 7.248-95.628-15.207-138.313 8.816-29.228-21.258-57.84 2.523-81.718-28.095-31.366-5.484-85.853-18.732-110.608-49.354 22.027 15.962.984-1.604-28.967 15.886 40.771 17.324-34.984 2.96-19.105 34.613-32.45-8.555-104.06-39.363-52.956 38.901-40.843-68.284-60.54-44.162-43.31 27.91-48.362-44.74-47.338-70.926-30.651 31.566-57.36-26.385-74.742-73.431-65.978 8.257-56.169-43.845-65.34-73.12-26.52-34.965-31.421-66.192-21.167-97.182 9.109-50.41-13.94-76.968 12.557-114.092 37.388-44.285 2.06-89.756-41.27-121.402 10.944-55.38-17.728-79.678 38.227-123.348 53.17-14.155 21.117 10.912 38.46-26.112 15.74-38.093 15.17-33.428 65.473-75.84 82.684-36.055 49.943-53.956 103.806-72.436 161.485-21.857 46.66 8.3 94.484-10.416 139.966 14.844 48.214-15.741 96.265 10.177 146.759-34.702 46.06 27.682 97.152-21.367 135.959 3.813 55.218 10.367 103.857 32.184 153.489 37.912 53.48-80.158 44.48-31.83 103.318 26.702 38.175 26.334 81.086 38.67 121.496 27.418 31.163 42.562 109.187 88.466 108.957m-69.147-90.194c3.626-45.382-.755-91.11 8.943-138.75-.333-33.21 29.352-44.182 24.154-77.89 24.274 47.057-38.65 56.086-18.645 106.51-17.07 32.424 9.68 92.222-14.452 110.13m120.217-14.943c13.286-39.249 115.732-3.147 46.823-13.522-16.567-6.947-35.115 9.735-46.823 13.522m641.549-35.227c18.737-23.777 5.599-78.913 58.812-53.385-2.925-22.304 12.359-98.704 8.641-36.195 8.964 35.5-17.324 54.709-49.079 39.25-3.27 15.354 6.714 50.663-18.374 50.33m-690.55-33.57c-1.795-26.776 91.088-31.827 31.5-16.995-19.003-6.11-24.66 18.705-31.5 16.994m754-152.168c4.014-1.088 49.029-57.52 14.942-6.867l-8.462 6.489zm-818.261-90.592c-18.398-45.729-10.831-94.82 8.508-127.882-2.05-46.996 23.455 29.343-12.49 26.182-7.5 35.987 13.848 82.954 9.435 110.95zm823.869 1.668c-9.22-49.476 51.624 19.466 31.54-40.52-16.054-39.113 30.027-40.97 38.429-23.148-28.897-1.872-38.02-5.574-31.63 33.535 11.023 36.605-18.87 25.302-31.947 19.122.968 3.133-1.318 15.941-6.392 11.011m17.144-199.821c-26.067-21.527-37.185-70.233-5.479-20.1 32.08 43.528-18.317-104.22 10.553-55.4 11.405 35.115 45.994 53.2 24.425.617-29.975-43.509 14.238-77.106 18.602-80.04-52.644 28.467 8.186 82.152-10.454 121.596-21.923 2.833-37.242-38.405-25.359 11.367 2.005 8.038 3.82 43.072-12.288 21.96M209.467 625.619c.876-4.507.876 4.507 0 0m-41.704-1.431c-15.444-38.826-21.23-103.003 29.776-107.435-4.413-40.63 18.365-69.302 59.274-57.526-7.08-58.826 57.691-73.572 86.155-49.459-53.99-16.086-74.46 2.988-86.965 54.272-34.725-1.025-57.05 4.146-51.72 47.602-20.105 22.444-55.08 25.837-38.508 69.83-7.02 10.544 20.867 46.836 1.988 42.716m720.504-61.819c-14.884-46.005 13.29-96.501 49.388-37.923 21.311 17.553 4.058-112.866 17.749-42.114 6.446 36.169-10.399 81.528-39.914 31.533-44.204-45.297-5.98 47.126-27.223 48.504m-558.258-58.706c-18.2-13.647 66.677 8.384 51.844-38.888 45.33-.752 83.977-17.064 95.754-67.986 55.184-26.471-15.786 5.174-13.108 35.152-20.285 55.03-86.795 10.617-97.28 67.918-10.628 7.383-25.153 3.307-37.21 3.804m679.858-42.17c-22.586-50.37-57.393 11.628-87.715-26.328-20.924 27.395-66.362-24-71.388 16.954 7.143-59.514 57.65 12.064 79.038-23.5 23.73 21.856 37.61 12.037 62.12 3.44 13.107.643 50.976 62.396 17.945 29.434m-318.67-65.877c-18.75-21.626-76.298.791-33.287-20.682 16.725 14.94 72.794 17.39 71.42 11.978-9.518 11.168-25.26 9.728-38.133 8.704M304.31 333.24c3.379-4.056 4.728-2.761 0 0m585-8.28c-37.73-10.69-100.946-10.076-84.077-11.624 37.84-18.41 90.279 15.756 89.428 12.31zM508.178 314c13.92-39.587 49.604-29.848 75.376-29.881 11.95-52.318 56.11 17.35 84.307-21.132 29.494 11.895 94.59-32.184 99.139 2.454-44.393-17.662-97.167 11.867-142.627 15.229-34.097-37.892-38.89 37.235-78.053 6.556-15.453-10.919-33.219 32.82-38.142 26.774M249.726 1472.976c2.357-10.383-17.7 5.265 0 0m-75.496-29.11c-19.003-17.73-51.408-117.892-41.744-43.65-9.143 32.677 30.133 21.828 38.664 46.243zm4.128-10.677c-11.969-15.362 10.312 17.402 0 0m-9.515-17.49c-15.304-29.508-30.447-42.893-5.516-5.58-6.096-1.457 15.943 23.463 5.516 5.58m444.295-13.793c31.144 8.533 81.25-2.398 105.719-32.362 30.977-21.239 22.28-43.535-4.247-9.445-13.465 20.605-97.133 54.132-37.552 25.27 49.488-26.216 75.882-75.528 111.73-112.767 32.9-28.196 62.466-59.584 88.929-95.837 38.723-47.197 84.047-101.567 45.385-164.997-10.998-27.778-17.61-98.362-31.4-95.149-9.415-27.943-72.099 33.97-53.686 1.632 6.346 10.618 31.82 8.398-3.211 13.586-24.288 17.204-34.321 31.917-57.51 29.791-25.086 2.424-55.343 11.53-75.464 10.95 1.007 43.883 70.74 44.9 82.479 85.891 23.11 33.733 30.374 73.136 15.733 111.892-19.498 35.932-51.939 70.23-91.084 85.759-18.44 3.743-68.456 24.892-82.605 9.667-28.612 2.086-59.819-11.895-95.38 1.234-44.44-17.3-33.515 28.03-73.539-12.927-28.522-23.98-45.466-51.838-45.15-90.896-10.775-56.793 27.588-96.008 47.666-143.732-7.525-27.183-36.372-59.28-67.323-52.783-18.618 6.318-37.918-3.9-56.959-9.064-15.589 6.768-24.503-14.16-33.545 2.383 13.107-42.642-36.035-60.774-23.959-7.302-13.207 53.2-.84 107.342 8.12 160.45 7.452 50.205 23.124 103.317 51.86 143.434 40.785 33.698 97.86 47.945 136.39 81.033 38.683 17.436 66.484 56.906 104.987 60.566 13.409-5.741 22.65 27.534 33.616 3.723m-94.828-123.183c8.929-16.578 7.882 2.502 0 0M375.65 1237.68c-17.219-10.652-21.451-11.362-12.937-28.058-1.417-28.456 40.577 35.345 12.937 28.058m406.659-5.182c16.47-24.955 7.47 2.035 0 0m-468.688-109.666c7.462-36.742-37.89 2.765-17.812-33.402.887 41.073 21.517-32.002 20.5 14.29-.419 22.87 25.043-9.92-.827 19.883zm26.688-61.147c-55.713-18.27 41.01-5.42 0 0m471.267-34.378c-29.97-21.253-7.97-70.26-2.36-11.054 29.757 25.535 10.767-75.188 37.21-22.77 17.197 14.475 13.556-55.316 17.066-4.888-7.903 31.276-37.38-6.464-39.99 35.273l-6.44 4.409zm-42.01 278.215c32.505-23.72-19.522-3.387 0 0zm20.017-23.792c38.171-30.896 19.3-31.799-3.455.638l1.12 2.113zm-146.16-14.981c25.23-15.746 56.171-6.211 70.866-18.095 35.935-19.365 63.572-48.356 75.496-88.007 20.743-52.001-30.69-76.96-39.99-125.885-13.166-36.683-56.371 11.636-38.787-21.483-25.9-3.939 16.229 81.696-26.605 61.526-29.071-24.73-41.512-30.143-55.855 8.583-18.394 29.068-46.056 37.255-59.371-3.3-9.108-49.953-67.196 54.764-71.188-15.646-5.44-54.427-61.223-11.19-53.993 32.753.682 20.737-28.025 82.737-17.129 25.956 11.772-75.976-15.525 20.358-7.493 46.636.438 48.381 9.394-31.453 11.818 21.331.313 35.335 22.182 45.157 45.996 69.5 9.575 9.406-12.033-32.051 17.266-4.676 29.925-1.4 62.664 5.21 93.346-3.5 20.75 8.232 37.728 5.41 55.624 14.307m-79.605-17.385c-51.612-.917-117.72-33.597-123.51-86.283 16.256-38.543 68.874-33.018 80.633-68.118-6.249 45.909 71.12-7.64 78.535 50.692 21.954-28.381 69.757-30.05 82.333-59.729 27.153 21.87 138.123 7.29 90.92 77.362-43.63 67.856-132.307 91.732-208.91 86.076m52.49-6.28c41.248 3.19 118.091-35.348 128.674-51.085-22.985 17.135-80.067 47.27-90.819 36.049-50.938 5.468-105.877 7.47-155.072-8.7-36.181-8.02 54.214 32.606 76.192 24.41 13.675.265 27.371.204 41.026-.673m-2.025-17.216c-10.168-24.842-42.42-22.904-30.466-1.46 10.217-.872 20.305 3.618 30.466 1.46m29.8-1.129c43.538.89-25.49-53.326-21.689-1.743-14.584 10.775 24.62-2.584 21.688 1.743m-81.086-1.63c8.4-33.578-34.02 10.168 0 0m-19.688-1.017c-15.333-23.899-17.606-147.512-35.603-63.679-10.436 34.704-12.708 69.776 35.603 63.68m134.782-.124c52.872-8.21-21.063-40.655-6.823 1.65zm-97.006-11.674c14.427-40.561 39.994 37.562 51.78-12.154 22.744-25.588 36.793 56.414 41.374-3.284 17.854-10.238 34.81 19.462 21.07-20.142-16.994-27.776-34.601-52.777-36.175-1.41-18.468-2.854-24.803-54.385-21.447-.686-3.76 42.447-57.27-47.57-52.04 10.17-23.024 3.343-28.313-63.715-34.596-7.519-28.299-19.335-3.634 61.063 9.225 24.842 7.732 3.047 14.335 33.627 20.809 10.183m133.724-2.76c73.405-19.61-9.543-66.62-29.5-101.036 14.045 28.496 13.677 83.985 29.5 101.035m-221.5-1.732c-3.394-53.886-49.668-13.424 0 0m261.944-23.558c-6.43 5.645-4.779 7.26 0 0m-282.833-3.577c39.36 5.893 23.457-18.769-3.34-23.768-10.902-1.47-4.96 36.407 3.34 23.768m159.124-32.049c-10.975-19.216-49.48 28.096-2.666 30.438 3.006-9.736.627-20.436 2.666-30.438m131.346 20.75c-9.088-39.376-19.753 22.849 0 0m-179.223 4.5c10.73-44.97-41.428-17.25 0 0m-127.897-4.658c-13.868-15.981-2.39 16.312 0 0m92.468-5.305c17.69-46.967-43.365-8.488 0 0m109.614-5.905c5.391-66.886-23.215 21.116 0 0m86.525 2.032c-6.084-29.039 33.012.231 10.932-27.95-9.046-3.108-66.384-25.77-29.5 11.022 4.292-1.134 22.4 37.504 18.568 16.928m-237.542-12.166c-6.978 5.004-5.033 20.05 0 0m-8.308 5.002c25.644-33.453-43.534 14.728 0 0m273.048 1.5c17.955-43.45-22.355-1.572 0 0m-309.798-2.802c29.487-.115 75.387-41.128 22.935-19.835-5.028-4.683-40.478 25.283-22.935 19.835m228.068.302c-1.67-35.586-30.068-19.009 0 0m-75.846-5.8c17.629-11.817 88.956-17.477 56.979-37.266-10.577-2.45-94.745 50.99-56.98 37.266m-23.963 1.8c-4.09-48.675-105.906-16.438-33.897-9.58 10.95 3.651 24.263 6.311 33.897 9.58m178.613-25.805c-19.4-26.533-112.283-9.243-39.47-7.4 13.146-.68 29.26 5.73 39.47 7.4m-101.611 139.95c-3.96-2.1-.935 2.254 0 0m167.84-21.545c41.544-35.122-25.766 5.238 0 0m-83.378-9.1c8.494-17.033-24.358 24.658 0 0m26.559-28.073c9.774-22.135-14.13 11.525 0 0m109.377-31.427c3.249-4.97-5.688 6.314 0 0m-85.127-27.846c-3.302-6.043-4.453 11.265 0 0m127.194-30.904c-2.32-3.048-9.56 15.405 0 0m-322.972-17.5c25.875-1.203 25.804-83.073 54.25-57.227 34 57.483 41.122-23.875 25.773-51.17-10.817-33.548-40.036 3.494-57.082 13.417-25.252-33.861 32.135-70.045 13.527-103.823-24.094-35.121-34.508-84.465.133-115.4 23.583-15.78 63.626-51.592 54.922-52.048 31.877-37.483 48.399-33.011 93.421-59.7 25.794-8.01 54.294 27.087 76.41 51.495 29.274 13.724 22.445 46.99 42.468 69.274-6.15 16.528-37.244-36.571-35.19 12.161 10.69 47.393-44.235 6.747-40.931 51.432-40.662-17.872-38.242 55.72-68.128 16.914-21.429 20.26-16.67 18.085-33.59 3.928-14.298 52.993-27.622-48.754-52.501 6.748-20.664-39.736 19.806-67.879 15.575-111.97 21.776-3.875 3.987 67.594 21.459 16.127 4.292-24.488 13.91-69.92 24.261-18.407 21.255 28.263 37.306-89.555 43.554-20.796.989 61.806 57.957-63.658-.002-39.314-5.232-12.547-36.813 25.33-41.442 14.272-26.556 18.286-45.993 32.09-62.078 49.232 7.637 11.502-75.815 65.593-30.529 100.897 38.194 31.39-10.772 83.865-9.068 109.025 23.944-36.024 44.262-13.241 64.551-19.08 16.104 25.51 32.277-24.288 48.544-4.986 16.724-4.689 29.964-15.428 46.184-14.107 8.564 2.268 27.748-26.88 30.784-19.885 9.81-26.907 28.024 0 36.503-28.259 7.08 38.783 16.873-33.001 24.197 12.25 1.243-39.024 18.747 19.163 18.932-25.906 16.225-48.531 17.818-106.02-4.915-154.501-27.73-6.313-28.265-59.08-41.983-88.245-23.768-17.97-49.504-97.97-67.162-102.532-17.648 37.485-46.868-33.06-68.978-9.124-21.822 22.023-43.35 7.971-43.424-29.144-14.146 38.768-18.843 18.909-24.873 16.86-18.959 32.088-51.197 22.127-52.44 72.564 1.646 35.819-16.778 78.756-23.08 45.131 9.58 30.538-13.76 64.544-21.397 16.318-7.122-36.393-36.68-59.496-62.725-85.53-26.207-25.743-48.022 1.546-73.967-27.673-13.375 26.593-23.523-2.156-33.733 27.24-10.326 6.579-40.36 7.608-31.921 9.101-4.292 39.909-50.052 46.308-56.032 88.877-23.666 39.222-18.587 95.587-23.034 146.48-4.278 31.901-11.325 13.247-5.775 48.775-.738 36.644-9.629 59.436 24.448 57.662 15.113 22.555 22.569 42.935 49.938 34.647 21.949.766 66.132 11.424 79.097 8.157 24.505-5.978 15.451 37.084 34.951 12.42-10.376 35.027 40.157-11.153 23.726 29.268 25.002-17.537-.603 34.139 4.23 1.705-21.82 8.248 14.554 61.069 6.408 9.618-6.802-51.72 41.917-33.929 55.136-27.714-28.31-43.07-19.226-92.248-13.83-137.658-19.178-41.254-44.635-69.153-75.282-94.18.45-18.464-18.647-8.439-22.245-38.116-16.569 44.987-17.245-20.638-43.043 19.738-22.697-3.631-58.823 49.28-11.712 57.104-15.848-26.849-12.335-65.837 18.542-25.51 23.162 18.003 49.974 44.917 30.092-.244-4.888-58.808 46.309 22.132 48.082 43.975 22.578-34.529 14.054 51.641 18.98 69.345-25.28 5.924-30.357 65.972-56.795 25.345-9.712 66.18-46.948-52.473-70.917 4.14-3.948-26.627-25.542-51.374-44.614-19.393 1.31-29.838-13.533-81.591-34.65-49.08 12.484-17.534-5.232-82.006 29.517-56.78 20.064-29.618 42.212-57.228 62.726-67.997-19.9 40.617 44.715-57.947 55.4-21.123 17.57-22.804 11.175 15.883 25.865 7.465 30.965 25.239 54.436 70.811 69.753 108.06 21.713 19.184 27.549 60.327 23.559 79.726-20.526-23.134 18.738 41.039-.581 38.303-15.092-16.912-12.501-58.21-19.421-14.74 23.74 16.592 17.067 35.793 27.037 49.94-22.38.68 30.974 50.183-6.128 40.725-19.197 5.941-64.526-46.46-39.327 9.102-12.817 1.403 6.236 46.549-12.495 33.4-8.62-13.941 21.515 44.597-5.15 17.5-1.663 45.93 46.725 8.272 33.652-12.346 42.417-55.94 16.118 67.995 65.583 47.845zM720.56 960.882c-19.156-16.66 26.241.366 0 0m61.872 124.062c-3.644-4.577 2.714 7.378 0 0m-4.46-10.575c-1.75 1 1.623 5.507 0 0m-224.662-11.98c-4.048.01-2.558 4.08 0 0m224.007-3.757c-6.016-7.688 1.528 13.268 0 0m-323.236-6.575c-4.339 3.334-2.482 5.87 0 0m497.692-24.518c38.558-90.855 7.973-191.862 18.498-287.061 4.66-26.178-1.493-139.468-7.995-58.859-22.592 44.88-16.55 87.485-10.615 79.884-.659 29.37-25.26 8.148-19.846 52.622-13.36 44.217 29.13 6.843 19.335 56.385 6.297 37.71-52.325 43.867-23.86 85.609 5.511 16.623-4.484 90.582 24.483 71.42m-12.963-49.64c-31.12-37.106 55.857-36.33 9.282-.829l-4.666 1.336zm13.453-10.907c.589-35.736-27.51 13.672 0 0m-487.317 59.93c-4.78.747-2.264 7.732 0 0m45.564-7.503c-3.802-2.004 1.575 7.579 0 0m-38.2.2c-1.21-3.656-2.467 3.562 0 0m-4.618-12.25c-8.121-31.977-1.296 14.507 0 0m46.092-1.71c.115-18.416-8.59 11.585 0 0m-30.84-17.009c-16.787-32.97-10.935 35.909 0 0m-20.802 4.267c-6.39-2.623-1.3 10.611 0 0m104.668-2.298c-5.576-1.372.405 6.363 0 0m-107.5-15c-2.51-7.748-4.997 8.778 0 0m-28-6.878c-4.49-12.258-8.673 8.465 0 0m-54-8c7.575-20.638-32.116 1.864-.36 3.072zm15 .413c-5.406-12.75-4.484 7.294 0 0m356.59-.278c-7.166 2.213.627 2.969 0 0m170.929-3.507c-4.493-25.46.509 16.103 0 0m-283.41.046c13.585-35.027-7.473 7.819 0 0m151.272-3.956c.744-12.472-4.314 11.39 0 0m31.869-16.156c13.51-14.44-16.298 7.487 0 0m-563.75-.684c5.115-7.152-7.463 7.272 0 0m2.25-12.012c35.12-24.388-36.716-28.077-3.349-62.957 31.28-27.754-21.555-99.89-33.03-121.078-3.512 51.86 12.735 101.32 19.847 153.485 2.638 3.455 8.019 47.813 16.532 30.55m12.697-10.852c-13.513 6.391-16.13 23.674 0 0m640.305-.636c-4.914-26.583-4.144 29.298 0 0m-250.773 1.54c5.434-36.745-7.377 14.403 0 0m-378.542 1.03c3.583-5.953-7.006 5.677 0 0m156.797-6.153c23.112-25.696-54.349-31.885-13.666-7.076.314.396 14.47 23.258 13.666 7.076m33.757-8.117c27.939-26.786-48.933-5.482-3.19 5.987zm462.302 2.352c24.664-15.226.825-97.602-5.879-33.878-.113 6.513-14.395 47.597 5.88 33.878m-666.296-2.402c-2.368-33.413-23.674-48.968-7.833-5.375-.232 1.89 4.998 9.621 7.833 5.375m123.971-14.845c-4.197-21.2-31.431-3.577-7.018 7.322zm337.034-14.069c-10.863-11.687-7.35 17.767 0 0m-174.91 2.882c3.965-14.565-8.349-1.38 0 0m201.557-4.402c-9.763-1.699-7.03 12.302 0 0m-405.9-8.944c-24.064-32.497-16.222 37.383 0 0m100.832 10.189c26.187-24.688-25.11-92.535-29.823-58.3 25.628 33.214-30.635 76.864 29.823 58.3m25.745-.332c53.084 8.157-46.138-107.136-11.841-36.08 6.048 16.764-24.56 49.696 11.84 36.08m-63.326-2.305c-2.44-7.433-9.816 10.553 0 0m-9.84-5.19c-4.256-20.865 1.35-84.176-27.795-37.85-27.992 25.85 23.788 52.908 27.795 37.85m384.914 5.127c9.798-17.784-17.203 1.892 0 0m-93.074-8.503c-11.81-8.529-9.525 16.706 0 0m-281.5 3.642c-1.21-3.656-2.467 3.562 0 0m319.198-7.902c28.608 8.514 3.18-74.437 10.837-70.362-30.343 3.043-44.52 62.724-10.837 70.362m-22.698-3.476c-8.594-19.899 8.12-66.647-19.023-23.007-19.197 13.01 9.28 20.471 19.023 23.007m61.5-2.098c55.458 7.694 28.842-99.701-15.656-67.797 15.234 14.834-4.318 71.162 15.656 67.797m-414.107-5.106c8.324-27.24 34.304-49.844-3.393-27.918-46.105-3.614-18.939 21.891 3.393 27.918m473.882-4.418c18.517-27.445-16.973 14.44 0 0m-14.332-7c14.765-19.225 85.312-46.211 23.088-49.456-50.675-31.69-37.45 38.47-28.444 51.853zM409.05 811.847c-6.838-9.894-1.369 51.412-.889 6.248zm285.068 8.853c14.942-26.2 4.778-47.607-.815-5.198-5.673 14.645-19.856 26.729.815 5.198m-202.285-5.814c-3.996-11.67 2.295 19.22 0 0m375.575-.267c10.345-30.17-32.083 24.266 0 0m-533.097 1.295c27.307-13.435-26.305-.06-7.22-15.195-9.139 7.633-6.78 24.808 7.22 15.195m521-2.898c-13.149 5.352-.28 3.32 0 0m-378.053-7.099c-4.743-25.607-52.522-92.851-28.087-28.161-.533 8.27 27.7 50.2 28.087 28.161m-121.947.75c-1.751-57.932-40.17-3.547 0 0m22-4.037c28.833-1.319-47.997-61.515-17.103-8.651-1.789 14.173 8.121 14.445 17.103 8.651m488.19-.429c2.422-5.872-11.725 13.094 0 0m-462.748.511c-3.598-1.648-3.876 2.845 0 0m245.147-12.222c7.629-32.337-15.11 28.752 0 0m-225.402 5.694c46.82 10.451-71.935-74.862-28.605-16.953 1.345 21.618 11.805 17.85 28.605 16.953m302.174-5.807c23.587-41.255-3.349-33.254-7.607 7.25zm149.451-4.033c29.737-51.46-67.006-6.977-8.812-3.565l7.127 4.836zm-548.812-2.843c-3.471-1.724-1.65 4.669 0 0m336.088-6.511c8.358-15.242-11.729 16.552 0 0m78.833 2.206c24.857.313 51.832-17.012 33.827-35.239-6.235 14.922-29.254 30.723-33.827 35.24m-65.33-2.32c-7.167 2.213.626 2.968 0 0m169.078-6.507c26.752-62.697-48.742 22.91 0 0m-501.67.25c2.453-7.098-4.754 7.176 0 0m475.858-2.8c5.802-46.936-7.044-30.617-26.105-2.102-13.824 6.268 25.405 7.244 26.105 2.103m11.646-5.5c22.771-23.176-24.99-56.827-2.253-9.375 1.385 7.536-12.223 24.594 2.253 9.376m28.138.078c16.78-21.834-22.15 14.59 0 0m74.259.413c-.58-10.318-2.729 14.146 0 0m-254.903-13.892c12.075-16.793-21.433 23.374 0 0m-181.497 3.7c-2.555-3.587-2.555 3.588 0 0m203.5-4c13.653-17.72-15.982 17.871 0 0m-338.61 1.424c.633-4.778-6.357 7.21 0 0m336.172-9.673c9.926-10.26-11.575 10.232 0 0m-320.85-11.25c4.237-10.716-10.947 17.616 0 0M482.31 734.7c-1-8.193-5.525 3.076 0 0m451.662-6.332c-1.75 1 1.623 5.507 0 0m-224.662-1.4c-11.41 4.652-.682 2.69 0 0m24.297-5.35c8.018-14.26-20.316 25.003 0 0m-330.211-1.281c16.45-29.323-12.552 4.967 0 0m313.358-7.633c13.289-18.812-22.617 23.304 0 0m35.224-6.429c5.814-12.987 4.596-4.235-4.21 5.343zm70.46 4.027c-8.497-5.661 4.651 8.656 0 0M409.31 700.73c-3.38-10.354-12.264 24.478 0 0m328.656 9.14c9.806-12.488-9.513 6.616 0 0m-303.973-3.438c-1.925.434 1.432 4.384 0 0m336.826-8.113c6.2-15.21-17.1 24.63 0 0m-334.68.3c-4.126 4.874.198 7.932 0 0m314.298.25c3.734-4.565-6.735 5.434 0 0m-8-1c3.734-4.565-6.735 5.434 0 0m21.411-.292c4.031-6.166-6.892 6.321 0 0m10.962-12.958c4.72-13.66-22 22.111 0 0m2-7c-1.21-3.655-2.467 3.563 0 0" style="fill:#000" transform="translate(-92.612 -158.443)"/><path d="M733.99 856.456c-57.115-13.11 25.704-115.433 8.314-39.204-4.467 11.865 16.831 46.288-8.314 39.204M764.1 837.379c-7.991-28.994-10.392-85.378 30.142-46.008 20.35 29.711 1.796 71.064-29.943 56.976zM396.038 867.389c-64.417.73 15.16-100.306 3.311-27.88-6.234 6.066 16.01 39.535-3.31 27.88M420.872 873.903c21.781-24.014-22.443-99.695 26.852-54.834 14.633 23.767 13.071 67.912-26.852 54.834" style="fill:purple;stroke-width:.89881" transform="translate(-92.612 -158.443)"/><path d="M603.214 1147.347c10.988-24.526 108.87-59.048 60.563-19.535-21.246 1.333-43.231 14.313-60.563 19.535" style="fill:#d40000;stroke-width:.89881" transform="translate(-92.612 -158.443)"/><path d="M765.205 1120.547c-20.62-8.785-103.574-9.992-38.624-14.68 10.56-1.413 41.498 9.678 38.624 14.68M571.511 1243.333c-28.007-2.082-75.855-11.655-83.716-28.866 50.56 22.9 109.901 19.087 163.935 14.117 14.868 10.61 68.253-18.87 93.385-35.881-46.861 40.428-112.84 54.808-173.604 50.63M587.24 1145.148c-19.582-3.608-89.259-21.246-36.85-26.171 15.556-5.528 39.138 16.704 36.85 26.17M456.913 1150.24c15.403-32.297 90.135-33.286 27.414-8.735-8.118 5.505-18.19 7.55-27.414 8.735" style="fill:#d40000;stroke-width:.449405" transform="translate(-92.612 -158.443)"/><path d="M239.852 1470.307c0-.487 1.21-2.841 2.687-5.233 3.863-6.25 2.108-6.558-2.772-.485-4.772 5.937-8.206 6.52-18.247 3.1-7.413-2.527-20.403-14.29-27.849-25.22-2.872-4.217-11.713-20.25-19.645-35.631s-17.256-32.144-20.718-37.253c-7.16-10.564-8.509-14.903-16.48-52.996-8.241-39.376-14.6-56.441-28.702-77.033-8.573-12.518-10.638-17.213-10.638-24.185 0-10.283 5.933-16.896 27.534-30.688 12.754-8.143 19-14.157 21.497-20.696 2.843-7.444 1.971-11.958-5.1-26.396-14.818-30.262-25.038-71.996-30.521-124.643-2.918-28.01-2.957-27.64 3.677-34.467 3.107-3.196 7.245-9.081 9.198-13.078 5.198-10.642 4.962-27.871-.753-54.933-3.445-16.316-4.08-21.777-3.69-31.778.422-10.888.931-13.002 5.172-21.5l4.702-9.425-4.561-13.351c-5.96-17.44-6.92-34.586-3.608-64.403 2.745-24.72 3.06-47.592.831-60.378-1.462-8.392-1.41-10.295.433-15.889 3.334-10.116 3.846-36.076 1.248-63.165-2.542-26.492-2.023-43.048 1.744-55.684 5.925-19.875 23.367-69.558 25.436-72.453 1.249-1.748 2.6-5.233 3.003-7.746 1.805-11.246 24.574-58.115 38.997-80.272 7.3-11.214 9.63-13.794 15.466-17.122 14.471-8.25 21.031-16.207 36.919-44.775 8.97-16.13 18.467-27.384 26.87-31.842l5.543-2.94 8.884 5.277c12.467 7.407 12.74 7.31 13.44-4.783.712-12.291 2.533-15.389 11.457-19.496 9.23-4.247 25.998-15.252 32.141-21.095 9.218-8.767 26.517-20.816 37.498-26.118 10.544-5.09 11.126-5.216 24.151-5.216 7.34 0 15.419.479 17.951 1.064 4.385 1.014 4.78.821 8.26-4.02 2.214-3.081 6.234-6.35 10.195-8.294 3.597-1.764 8.58-4.998 11.073-7.187 8.299-7.287 20.503-6.684 53.574 2.644 9.788 2.76 23.246 5.675 29.907 6.476l12.111 1.456 6.32-4.532c3.476-2.493 9.592-5.976 13.59-7.74 3.999-1.765 10.005-5.736 13.347-8.825 11.44-10.573 27.155-17.561 45.155-20.08 9.178-1.283 12.714-1.187 23.68.647l12.89 2.155 7.3-6.315c4.015-3.474 10.732-7.972 14.927-9.997 4.194-2.025 10.249-5.224 13.454-7.109 14.572-8.57 34.94-4.934 54.319 9.696l6.892 5.203 3.784-4.716c2.164-2.698 4.907-4.717 6.409-4.717 3.702 0 12.944-5.675 15.94-9.787 2.258-3.1 3.47-3.515 11.624-3.975 15.521-.878 25.195 4.878 31.678 18.846 2.737 5.897 3.248 8.841 3.268 18.812l.022 11.82 4.478-.69c4.906-.759 8.288-.773 27.626-.114 18.033.614 28.99 4.314 38.669 13.057 12.5 11.293 14.197 25.811 5.37 45.933-1.648 3.758-2.996 7.015-2.996 7.24 0 .223 3.003-.921 6.673-2.544 11.453-5.064 25.227-7.474 38.925-6.81 23.538 1.141 34.027 10.336 30.143 26.425-1.088 4.504-2.006 5.808-4.319 6.136-3.88.55-4.955 3.703-2.168 6.356 1.435 1.366 2.422 1.623 2.762.717 2.053-5.469 3.305-5.857 12.218-3.79 17.112 3.968 32.497 13.348 37.379 22.788 2.617 5.06 1.589 11.83-2.803 18.468-5.13 7.752-3.092 7.686 2.707-.087 3.514-4.71 6.676-7.362 10.841-9.088 7.87-3.261 13.252-2.128 20.596 4.336 8.122 7.15 12.551 16.97 13.3 29.483.712 11.926-1.145 19.348-6.953 27.792-4.05 5.887-4.116 6.164-1.414 5.874 2.215-.239 3.176.67 4.39 4.144 3.17 9.084 1.452 27.653-2.443 26.385-.87-.283-2.93-2.937-4.578-5.898-1.648-2.962-3.267-5.114-3.598-4.783s.016 1.758.772 3.17 1.374 5.08 1.374 8.153c0 6.946-5.535 15.85-13.483 21.692-8.098 5.952-6.763 6.564 3.282 1.505 4.877-2.455 9.122-4.465 9.435-4.465s1.328 2.145 2.256 4.767c1.232 3.48 1.708 13.858 1.762 38.451.046 20.85.628 35.864 1.528 39.405 2.418 9.511 5.016 16.015 8.504 21.285l3.314 5.01-3.85 7.319c-5.17 9.827-5.145 18.631.111 39.873 3.29 13.292 3.862 17.74 3.372 26.2-.501 8.662-.155 11.172 2.312 16.75 6.411 14.497 7.35 23.233 7.492 69.78.113 36.603.482 44.769 2.412 53.352 1.986 8.827 2.306 17.432 2.487 66.733.221 60.127-.173 65.93-6.206 91.335-1.943 8.182-2.844 14.887-2.391 17.796.4 2.567.977 29.836 1.283 60.597.307 30.76.666 58.788.799 62.284.28 7.365-6.89 56.123-9.907 67.369-1.994 7.434-7.47 19.654-11.178 24.949-1.42 2.027-1.69 5.309-1.172 14.264.845 14.634-1.286 27.132-9.784 57.391-7.156 25.48-10.16 41.53-10.168 54.318-.01 8.491-3.611 22.578-14.241 55.633-7.57 23.54-17.505 41.218-27.821 49.509-6.087 4.89-16.486 9.706-23.406 10.837-4.044.661-5.944 1.964-9.288 6.371-9.122 12.02-24.295 20.915-35.753 20.961-9.471.038-15.947-3.403-25.753-13.687-4.638-4.864-11.56-10.419-16.107-12.927-9.834-5.423-20.837-15.987-39.37-37.797-15.257-17.954-24.754-27.02-32.138-30.677l-4.605-2.28 2.327-4.37c4.185-7.86 3.337-10.694-4.814-16.094-8.4-5.564-14.9-13.504-17.118-20.908-1.495-4.989-1.344-5.609 3.782-15.518 7.82-15.12 20.443-31.343 36.722-47.196 7.903-7.696 14.369-14.919 14.369-16.05s.96-2.843 2.134-3.803c5.421-4.43 26.909-30.994 36.28-44.85 5.717-8.45 15.621-22.23 22.01-30.618 35.458-46.56 44.528-69.857 37.703-96.843l-2.615-10.34 5.19-5.456c23.839-25.06 30.286-57.346 28.272-141.583-1.366-57.129-1.41-112.108-.13-163.973 1.448-58.709-1-94.389-6.959-101.405-2.388-2.813-2.408-2.814-4.363-.284-4.094 5.302-9.29 31.152-12.007 59.742-1.571 16.537-3.694 26.387-7.703 35.74-1.87 4.36-2.95 5.61-3.968 4.591-2.29-2.29-2.778-24.257-.899-40.467 2.705-23.334 1.772-37.919-2.374-37.12-4.486.864-10.573 30.295-10.924 52.82l-.203 13.022-3.663.008c-14.525.028-29.206-28.507-38.229-74.304l-2.745-13.933-3.104 5.551c-1.707 3.054-3.675 5.526-4.374 5.495-1.37-.062-4.702-7.775-10.252-23.73-2.927-8.416-4.747-11.33-11.238-17.993-8.078-8.293-14.795-18.497-29.503-44.825-8.933-15.99-19.555-29.354-25.968-32.67l-3.581-1.852-2.067 7.11c-2.161 7.433-6.659 13.203-10.292 13.203-6.368 0-14.95-9.652-20.84-23.439l-2.682-6.278-2.481 4.08c-4.36 7.17-7.428 7.581-17.062 2.286-10.757-5.913-15.175-6.071-17.078-.61-.768 2.201-1.416 6.062-1.442 8.58-.043 4.349-.267 4.105-4.493-4.906-2.446-5.215-5.374-10.506-6.507-11.757-2.495-2.757-7.91-2.954-11.273-.41-1.357 1.027-2.832 1.885-3.277 1.907s-1.033-3.893-1.304-8.701c-.944-16.7-5.136-16.225-15.734 1.783-3.898 6.624-7.615 12.043-8.26 12.043-1.552 0-2.402-4.053-2.8-13.347l-.328-7.626-3.195 5.705c-3.546 6.333-6.606 7.673-10.166 4.45-3.132-2.834-4.671-1.662-5.683 4.327-.696 4.12-1.25 4.827-3.35 4.278-3.35-.876-7.262 2.914-16.716 16.195-4.23 5.942-10.921 13.95-14.87 17.796-9.886 9.628-12.13 16.83-15.872 50.966-2.356 21.48-3.081 23.676-6.647 20.11-.988-.987-3.06-.09-7.343 3.178-7.2 5.496-12.156 5.912-16.67 1.399-4.177-4.178-6.852-10.682-12.517-30.441-5.303-18.494-12.924-36.315-15.53-36.315-.951 0-1.773.429-1.826.953s-.506 7.65-1.006 15.836-1.327 15.3-1.837 15.81-4.719-3.328-9.353-8.527c-15.16-17.01-36.661-37.33-44.306-41.868-6.611-3.925-8.522-4.449-16.22-4.449-8.374 0-8.896.183-12.863 4.512l-4.134 4.512-4.754-5.465c-6.174-7.097-9.682-7.168-18.715-.38-8.114 6.096-12.5 6.535-16.353 1.637-2.23-2.836-2.92-3.117-3.886-1.589-.646 1.022-1.184 2.243-1.195 2.714-.01.47-1.499 2.614-3.307 4.763-2.174 2.584-5.609 4.582-10.141 5.9-7.741 2.25-11.273 5.85-12.58 12.823l-.875 4.661-3.12-3.364c-3.8-4.1-8.561-5.457-12.63-3.602-4.71 2.146-10.552 11.227-13.53 21.033-2.256 7.427-2.875 8.44-3.736 6.114-2.154-5.823-5.893-1.817-10.097 10.815-2.317 6.963-3.075 8.005-5.821 8.005-7.027 0-10.236 4.25-15.653 20.725-1.789 5.439-4.696 10.788-7.835 14.415-11.342 13.104-14.7 25.497-19.585 72.269-1.095 10.486-3.065 25.644-4.377 33.684s-2.785 18.908-3.274 24.151c-1.495 16.037-1.86 16.07-9.577.863l-6.88-13.562-4.83-.006c-6.454-.008-11.827-2.971-14.396-7.94-2.67-5.164-10.8-29.198-10.11-29.888.285-.285 1.772.154 3.305.974 4.131 2.211 5.745-.212 5.4-8.11-.635-14.578-14.073-50.375-18.91-50.375-1.947 0-2.088 1.409-1.436 14.3.697 13.794.656 14.11-1.172 8.93-1.838-5.207-7.971-13.08-10.16-13.041-2.937.053-4.302 2.757-5.47 10.84-2.722 18.835-1.432 36.621 5.807 80.024 2.448 14.682 5.238 33.844 6.2 42.583s2.605 19.892 3.652 24.786 3.412 20.91 5.257 35.591c3.615 28.783 7.104 47.014 10.983 57.384 4.878 13.04 13.95 22.046 22.22 22.056 3.793.005 4.004-.27 4.796-6.247.457-3.439 1.85-7.512 3.097-9.052 2.116-2.613 2.409-2.659 4.385-.683 1.165 1.165 2.812 4.434 3.66 7.266 1.941 6.48-.028 17.105-4.275 23.06-2.873 4.026-2.919 4.633-2.862 37.776.06 35.3 1.29 49.658 7.732 90.249 1.72 10.836 4.52 29.024 6.224 40.417s6.32 33.987 10.26 50.208c3.939 16.222 7.464 32.82 7.835 36.886.77 8.462 2.79 11.907 16.194 27.621 27.704 32.481 69.37 60.912 107.947 73.656 11.257 3.72 18.81 10.367 21.11 18.582 2.238 7.995.37 17.243-7.11 35.2-3.262 7.828-8.046 19.666-10.632 26.306l-4.701 12.073-8.819 3.781c-7.364 3.159-10.495 3.778-18.987 3.757-8.93-.022-11.872-.691-24.15-5.487-15.567-6.08-27.892-7.845-37.18-5.321-4.52 1.227-5.403 1.985-5.403 4.637 0 4.254-3.294 11.893-6.734 15.616-4.701 5.088-11.534 8.78-28.497 15.401-18.55 7.24-26.989 12.458-34.327 21.222-4.621 5.52-15.606 13.36-15.606 11.14zm-66.733-97.839 3.813-7.577-.586-23.515c-1.122-45.021-.756-55.811 2.165-63.83 2.434-6.68 2.503-7.746.852-13.231-2.373-7.885-2.274-18.033.25-25.537 1.125-3.345 6.607-13.064 12.183-21.597 14.411-22.055 16.169-29.396 10.936-45.682l-2.8-8.714-.864 9.533c-1.057 11.647-3.893 19.265-12.434 33.405-7.854 13.003-10.239 19.185-11.631 30.15-.577 4.545-1.946 13.983-3.041 20.974-2.432 15.519-4.192 46.25-5.193 90.691-.839 37.247-.506 38.553 6.35 24.93m128.085-12.886c16.233-8.204 19.914-8.709 41.433-5.678 8.841 1.246 12.27 1.308 13.336.241 3.689-3.688-11.551-7.025-31.592-6.917-16.539.09-23.003 1.685-30.739 7.585-4.685 3.574-9.86 11.985-7.373 11.985.36 0 7.082-3.247 14.935-7.216m638.09-31.816c4.836-4.304 6.333-10.43 7.005-28.654.355-9.613.781-17.478.947-17.478.167 0 2.518.944 5.225 2.098 3.044 1.298 8.56 2.123 14.455 2.161 13.642.09 21.455-4.37 27.498-15.7 2.123-3.98 2.331-6.987 1.975-28.574-.22-13.27-.658-24.385-.975-24.702-2.806-2.806-7.886 21.913-9.055 44.061-.415 7.865-1.098 14.282-1.518 14.259s-3.91-1.148-7.756-2.501c-8.382-2.949-16.302-3.2-22.267-.708-6.578 2.748-11.026 10.968-16.403 30.308-2.595 9.334-6.11 19.421-7.811 22.415-1.7 2.995-3.092 5.747-3.092 6.117 0 1.494 9.387-.979 11.773-3.102m-693.687-36.281c8.421-9.381 11.444-11.096 19.667-11.159 7.95-.061 23.073-4.784 23.928-7.473.47-1.478-1.067-1.647-8.82-.966-16.663 1.462-35.452 8.97-40.624 16.234-2.514 3.53-3.354 10.037-1.295 10.037.634 0 3.85-3.003 7.144-6.673m759.05-151.93c6.77-6.713 14.949-19.6 14.064-22.16-.513-1.484-11.82 9.674-23.775 23.464l-4.132 4.766h3.86c2.906 0 5.374-1.5 9.983-6.07m-825.198-90.534c-.467-5.243-2.847-20.115-5.288-33.049-4.446-23.553-6.642-48.815-5.002-57.556.73-3.891 1.422-4.567 5.444-5.322 6.02-1.13 11.272-6.517 13.162-13.505 2.686-9.929-.387-30.05-4.389-28.734-.753.248-1.675 3.837-2.049 7.977-.381 4.23-1.976 9.995-3.64 13.162-4.467 8.502-9.064 21.153-11.808 32.498-3.54 14.634-4.479 44.745-1.863 59.742 2.352 13.48 7.146 28.775 11.144 35.551 2.813 4.767 2.866 4.791 3.995 1.8.629-1.667.761-7.32.294-12.564m823.61 3.164c.653-2.789 1.259-5.2 1.347-5.358.088-.159 3.261.89 7.052 2.331s10.013 2.647 13.827 2.682c5.99.054 7.333-.403 9.873-3.356 3.504-4.073 3.822-11.325 1.008-22.979-1.013-4.194-1.85-11.741-1.861-16.77-.017-7.864.411-9.646 3.058-12.712 3.027-3.507 3.302-3.564 16.524-3.44 7.396.069 13.447-.252 13.447-.714 0-1.612-5.19-6.393-9.18-8.456-5.68-2.938-18.728-2.772-23.982.305-10.256 6.005-11.903 15.755-5.837 34.544 3.879 12.011 4.295 18.25 1.41 21.135-2.483 2.483-1.939 2.506-12.947-.545-14.456-4.006-18.128-3.446-20.635 3.147-1.272 3.347-.744 12.285.89 15.037 1.534 2.587 4.901-.132 6.006-4.85m23.395-191.984c2.28-5.002 1.75-20.98-1.124-33.879-1.43-6.417-2.43-12.755-2.224-14.084.334-2.154.993-1.943 6.094 1.957 7.96 6.085 13.23 8.601 18.69 8.926 4.43.263 4.762.008 6.244-4.806 3.539-11.502 1.862-24.268-7.051-53.694-9.526-31.448-8.74-38.798 5.735-53.556 5.187-5.29 9.431-9.791 9.431-10.005 0-.213-1.707.495-3.793 1.573-6.91 3.573-12.951 11.043-18.915 23.386-5.807 12.02-5.892 12.378-5.892 24.954 0 12.602.073 12.91 5.896 24.798 9.35 19.088 12.484 33.174 8.178 36.748-4.994 4.144-21.57-13.348-26.314-27.766-2.328-7.077-7.47-14.105-10.32-14.105-2.323 0-2.45.57-1.63 7.309.488 4.02 2.558 16.088 4.598 26.818 4.635 24.381 5.85 36.364 3.814 37.623-2.164 1.337-4.1-.669-13.619-14.096-8.01-11.302-11.132-14.436-14.372-14.436-3.87 0 1.18 14.253 9.461 26.71 6.548 9.85 19.756 22.863 23.205 22.863 1.374 0 3.075-1.41 3.908-3.238m-816.25-235.969c-.406-1.014-.707-.713-.768.768-.055 1.34.245 2.09.667 1.669.423-.423.468-1.52.1-2.437m-35.41-3.316c.227-1.605-1.966-9.811-4.874-18.236-3.422-9.913-5.013-16.411-4.51-18.418.429-1.705-.095-6.044-1.163-9.641-2.273-7.653-2.48-16.166-.563-23.072 1.712-6.166 11.42-15.972 28.18-28.468l12.387-9.234v-10.555c0-27.345 9.507-36.52 40.131-38.727l12.351-.89 2.819-9.778c6.64-23.037 16.835-37.948 30.321-44.35 12.45-5.908 23.04-5.971 49.751-.294 6.105 1.297 2.07-2.406-7.327-6.726-7.2-3.31-9.209-3.643-21.908-3.643-16.417 0-24.789 2.502-35.547 10.624-12.2 9.211-18.476 22.37-18.895 39.62l-.216 8.888-3.813-.867c-2.098-.478-8.172-.853-13.5-.835-25.59.087-41.794 19.553-41.794 50.21 0 8.992-.23 9.902-2.494 9.902-5.458 0-17.304 5.667-23.017 11.01-11.769 11.01-16.806 30.886-14.045 55.424 1.446 12.851 6.395 34.108 9.13 39.22 1.947 3.636 8.032 2.812 8.596-1.164m719.73-63.339c1.588-4.176 1.53-15.078-.175-33.324-2.081-22.266.537-26.182 11.773-17.614 3.025 2.307 8.772 8.547 12.77 13.867 8.16 10.858 12.97 14.821 19.215 15.835 5.916.96 12.56-4.938 15.698-13.936 3.244-9.302 3.242-38.219-.004-52.056-1.271-5.418-2.844-9.851-3.496-9.851-.668 0-1.198 7.064-1.217 16.206-.04 19.756-1.895 40.002-4.084 44.569-2.617 5.46-5.134 4.77-10.376-2.841-8.814-12.796-19.879-21.072-28.175-21.072-15.285 0-25.446 22.758-22.094 49.489.711 5.674 1.84 11.756 2.509 13.514 1.044 2.747 1.583 3 3.83 1.797 1.439-.77 3.16-2.832 3.826-4.583zm-529.926-55.11c2.038-.959 3.641-2.96 4.063-5.07.473-2.365 1.97-4.013 4.656-5.125 5.071-2.1 9.606-8.193 10.714-14.393 1.255-7.024 2.392-7.432 39.486-14.167 13.248-2.406 22.285-6.18 29.075-12.142 5.243-4.603 12.205-15.716 12.224-19.512.022-4.344 10.237-22.952 15.654-28.517 2.932-3.012 8.401-7.852 12.153-10.755 3.751-2.903 6.231-5.475 5.511-5.715s-5.856 1.85-11.414 4.644c-8.91 4.48-10.203 5.574-10.939 9.25-.458 2.292-3.046 7.902-5.75 12.466s-5.305 10.014-5.78 12.111c-.534 2.369-4.356 7.256-10.087 12.9-14.904 14.68-32.006 21.812-59.429 24.787l-13.657 1.48.726 3.628c.607 3.036-.203 4.62-4.976 9.722-3.136 3.353-6.379 8.147-7.206 10.654-1.303 3.947-2.276 4.753-7.256 6.007-3.163.796-11.29 1.799-18.06 2.228s-13.585 1.251-15.144 1.827c-4.172 1.538-2.254 4.695 3.262 5.37 8.298 1.013 28.716-.051 32.174-1.678m658.856-31.757c2.582-4.178-18.55-33.015-27.637-37.714-3.318-1.716-4.39-1.568-14.022 1.932-15.245 5.539-21.194 6.854-27.251 6.024-5.652-.775-15.096-5.235-20.901-9.872l-3.403-2.718-5.259 4.502c-8.621 7.38-14.454 7.16-38.145-1.442-7.228-2.625-13.19-3.931-18.015-3.948-10.823-.038-14.801 4.775-18.367 22.22-.286 1.397.865-.413 2.558-4.023 5.04-10.749 8.846-11.433 30.646-5.511 17.713 4.811 26.524 4.982 32.928.635 2.576-1.747 4.939-3.177 5.251-3.177s3.16 1.978 6.33 4.397c10.69 8.161 16.97 8.672 38.294 3.114 17.077-4.451 23.48-4.397 30.27.256 2.402 1.645 5.685 5.268 7.296 8.05 3.368 5.818 15.214 18.503 17.278 18.503.765 0 1.731-.553 2.149-1.228M717.24 395.056c3.448-1.037 7.985-3.332 10.082-5.1l3.813-3.214-3.813.97c-5.211 1.323-25.645.75-35.239-.99-11.536-2.092-26.85-7.191-30.706-10.225l-3.363-2.645-7.845 4.305c-11.358 6.232-11.002 7.341 2.37 7.367 14.721.03 27.3 2.777 34.616 7.563 5.097 3.335 7 3.827 14.832 3.84 4.942.008 11.806-.834 15.253-1.871M307.22 331.48c.883-1.064 1.021-1.907.312-1.907-.7 0-1.983.858-2.853 1.907-.883 1.064-1.02 1.907-.312 1.907.7 0 1.983-.858 2.854-1.907m588.524-5.72c0-.699-.76-1.271-1.687-1.271-.929 0-7.078-2.348-13.665-5.218-26.571-11.575-51.305-14.715-69.593-8.835-5.058 1.627-8.938 3.215-8.623 3.53.315.316 10.772 1.395 23.237 2.398 25.908 2.086 45.032 4.726 58.844 8.125 11.631 2.863 11.487 2.847 11.487 1.271M515.93 308.95c3.01-3.652 8.952-10.23 13.205-14.617 9.092-9.38 11.382-9.818 20.777-3.978 8.42 5.235 16.792 6.157 23.735 2.615 2.764-1.41 9.11-6.345 14.1-10.965 14.667-13.58 20.257-14.49 31.654-5.15l5.6 4.59 9.85-1.436c5.417-.79 23.577-4.79 40.356-8.888 16.778-4.098 34.62-8.067 39.648-8.82 13.849-2.072 32.69-1.584 42.974 1.113 4.893 1.283 9.11 2.135 9.368 1.892 1.04-.974-1.321-7.13-3.614-9.422-6.448-6.449-16.916-5.955-49.608 2.34-23.12 5.865-32.855 7.163-40.616 5.412-5.524-1.246-5.792-1.157-11.007 3.65-6.16 5.678-13.787 8.184-21.13 6.944-2.803-.474-11.461-3.081-19.24-5.794-24.173-8.431-32.233-6.219-37.5 10.293l-1.418 4.449h-21.933c-19.796 0-22.62.278-28.987 2.856-8.313 3.366-16.786 11.283-21.043 19.664-5.831 11.48-3.337 13.16 4.829 3.253" style="fill:#483737;stroke-width:1.27111" transform="translate(-92.612 -158.443)"/><path d="M597.355 1405.791c-7.886-6.982-10.8-8.486-16.445-8.486-7.656 0-23.165-5.239-33.168-11.204-4.699-2.802-18.392-12.469-30.429-21.481s-26.336-18.881-31.777-21.93c-5.442-3.047-13.082-7.98-16.979-10.963-11.656-8.92-28.33-18.533-57.156-32.954-43.713-21.868-64.869-34.707-73.422-44.557-14.228-16.387-32.324-58.04-42.187-97.107-4.047-16.031-15.848-82.204-19.842-111.266-3.277-23.851-3.095-64.14.368-81.063 2.027-9.908 2.297-13.844 1.333-19.44-3.516-20.411 6.578-31.468 18.157-19.888 6.15 6.15 8.114 13.161 7.197 25.694-.55 7.51-.38 9.105.805 7.516 3.516-4.715 6.808-5.225 13.888-2.154 4.48 1.944 8.777 2.82 13.038 2.655 4.338-.166 10.996 1.227 20.974 4.39 15.445 4.897 18.648 5.152 48.964 3.902 9.446-.39 10.848-.102 19.067 3.906 12.342 6.02 26.14 20.082 33.364 34 2.958 5.7 5.378 11.59 5.378 13.089 0 3.017-8.974 21.503-20.393 42.01-25.262 45.37-30.022 64.005-26.739 104.688 2.35 29.123 7.537 44.832 21.062 63.784 6.432 9.014 31.513 33.41 39.958 38.866 8.942 5.778 12.34 5.864 23.977.61 11.388-5.142 19.158-5.865 28.315-2.634 5.074 1.79 6.251 1.743 15.655-.635 12.49-3.16 32.744-3.401 54.76-.655 8.363 1.043 18.395 1.897 22.294 1.897 4.579 0 8.854.9 12.075 2.542 5.718 2.915 18.974 3.435 30.126 1.18 14.512-2.933 52.897-14.45 60.122-18.04 27.542-13.678 55.569-40.052 74.31-69.926 10.603-16.9 14.765-34.626 13.646-58.12-1.081-22.71-4.256-32.121-23.055-68.332-8.045-15.496-15.35-22.144-40.939-37.262-23.79-14.054-35.535-24.527-39.002-34.773-3.524-10.415-3.524-10.416 8.367-11.281 5.768-.42 19.925-2.545 31.46-4.723s27.088-4.46 34.561-5.072c17.068-1.397 22.205-3.732 41.504-18.859 13.398-10.5 15.007-11.397 22.76-12.681 10.092-1.673 12.39-3.38 7.202-5.353l-3.703-1.407 7.627-4.358c10.438-5.963 20.646-9.718 26.527-9.759 3.898-.027 5.692.794 8.645 3.953 2.049 2.193 4.259 3.987 4.91 3.987 1.894 0 7.06 11.252 9.922 21.609 1.45 5.243 4.678 18.97 7.176 30.506 6.277 28.99 8.936 37.946 14.485 48.797 18.406 35.99 13.688 70.036-15.795 113.973-7.71 11.49-15.628 21.731-49.874 64.512-15.919 19.886-42.715 48.245-60.654 64.19-13.93 12.384-22.257 21.614-45.518 50.456-33.201 41.168-56.967 62.34-86.617 77.166-12.92 6.46-12.863 6.424-11.75 7.536 1.277 1.277 28.333-12.5 40.926-20.84 7.64-5.06 14.911-11.39 21.893-19.06 10.599-11.64 17.516-16.147 18.97-12.358 1.302 3.394-5.58 12.579-17.969 23.979-21.006 19.33-36.768 27.958-59.734 32.698-12.403 2.56-32.288 3.105-40.882 1.12-4.989-1.151-5.524-.981-10.1 3.21-2.657 2.433-5.29 4.425-5.85 4.425s-3.165-1.901-5.79-4.225m-73.008-130.83c.485-4.22-1.44-4.532-4.144-.671-2.711 3.871-2.484 5.05.882 4.572 2.048-.29 2.974-1.399 3.262-3.902m-139.549-39.162c1.867-3.488.548-9.095-4.307-18.31-7.309-13.87-16.394-20.135-18.041-12.44-.411 1.923-1.566 5.803-2.566 8.623-3.675 10.36-2.526 13.151 8.32 20.212 8.127 5.29 14.4 6.014 16.594 1.915m403.46-5.68c3.645-3.935 4.984-8.227 2.565-8.227-1.508 0-6.076 5.154-8.73 9.85-1.66 2.936 3.1 1.682 6.164-1.624m-466.593-112.404c3.241-3.465 5.893-6.534 5.893-6.818 0-.285-2.145-.452-4.766-.372l-4.767.145-.868-10.47c-1.315-15.857-3.009-16.766-11.151-5.981-2.934 3.886-6.006 6.844-6.826 6.574-.821-.27-1.667-3.163-1.88-6.43-.213-3.265-.887-5.938-1.498-5.938-1.65 0-6.438 13.615-5.577 15.86.566 1.475 2.83 1.936 9.505 1.936 11.234 0 13.846 2.158 13.846 11.44 0 3.495.494 6.355 1.097 6.355.604 0 3.75-2.835 6.992-6.3m26.887-57.262c7.455-2.834-1.197-7.16-16.992-8.495-8.625-.729-9.314-.609-8.897 1.555.28 1.458 3.093 3.432 7.44 5.222 7.666 3.158 13.287 3.68 18.45 1.718m472.318-33.95c2.525-1.492 3.694-3.2 3.699-5.403.011-5.441 2.414-12.25 5.216-14.788 2.046-1.853 5.34-2.58 14.142-3.12 10.906-.67 11.653-.906 15.094-4.757 4.729-5.292 5.423-8.516 4.335-20.127-1.017-10.85-2.187-10.873-4.265-.09-1.897 9.847-4.99 16.145-7.93 16.145-2.688 0-3.465-.81-9.127-9.533-5.176-7.974-9.011-9.003-10.928-2.932-.73 2.311-2.23 9.583-3.334 16.158-3.192 19.012-6.72 23.968-14.254 20.02-3.103-1.625-3.698-2.964-4.978-11.19-1.939-12.464-4.69-18.878-8.096-18.878-9.295 0-4.609 26.2 6.478 36.216 5.517 4.984 8.534 5.477 13.948 2.278" style="fill:#483737;stroke-width:1.27111" transform="translate(-92.612 -158.443)"/><path d="M688.286 826.304c-.002-.144 1.131-2.434 2.519-5.09 2.337-4.476 2.6-5.298 3.593-11.2 1.74-10.352 4.303-18.054 6.01-18.054 2.026 0 1.47 8.316-1.075 16.088-2.287 6.981-4.809 11.736-8.15 15.37-1.591 1.73-2.895 3.029-2.897 2.886M717.494 796.193c.003-3.217 2.708-14.17 4.747-19.23 2.915-7.227 7.616-13.54 10.084-13.54 3.353 0 1.286 9.158-4.64 20.558-2.861 5.505-3.62 6.581-6.709 9.528-1.915 1.827-3.482 3.035-3.482 2.684M741.312 778.574c.37-.342 4.213-3.565 8.539-7.163 11.82-9.83 19.1-17.556 22.915-24.314l1.468-2.602 1.282 1.487c.706.818 1.842 2.6 2.527 3.959 1.05 2.085 1.244 3.034 1.244 6.067 0 4.691-1.119 7.038-5.363 11.25-6.294 6.246-17.334 10.516-30.14 11.656-2.693.24-3.049.191-2.472-.34M796.589 770.594c-3.941-.482-7.19-1.596-7.19-2.464 0-.336.619-.977 1.376-1.424.823-.485 3.525-3.883 6.72-8.451 8.812-12.603 13.852-18.36 17.048-19.474 4.276-1.49 5.666 6.29 4.074 22.79-.619 6.4-.637 6.469-1.95 7.267-2.632 1.6-13.545 2.556-20.078 1.756M829.395 773.897c-4.514-1.614-.052-11.798 9.171-20.93 3.3-3.266 7.005-5.711 8.668-5.718 1.355-.006 2.385 1.636 2.383 3.803 0 2.363-1.753 8.756-3.943 14.393-1.745 4.49-1.749 4.495-4.181 5.693-4.301 2.117-10.157 3.452-12.098 2.759M868.988 784.934c-3.09-2.177-3.489-2.329-7.08-2.693-14.494-1.469-18.976-6.132-12.011-12.497 4.703-4.299 13.582-7.7 19.936-7.635 5.005.05 7.456 1.212 9.017 4.274 1.655 3.247.866 7.92-2.535 15.016-1.935 4.037-3.097 5.842-3.76 5.842-.16 0-1.766-1.038-3.567-2.307M855.617 820.256c-.897-2.337 7.91-13.553 11.313-14.407 2.183-.548 2.434 1.238.9 6.391-.623 2.09-.99 2.512-3.944 4.546-5.33 3.668-7.796 4.703-8.27 3.47M784.164 869.036c-.531-.214-1.095-.6-1.254-.857-.541-.875 1.138-3.238 3.255-4.58 3.822-2.426 5.091-1.012 3.065 3.415-1.044 2.28-1.243 2.466-2.616 2.44-.817-.016-1.92-.204-2.45-.418M749.986 875.03c-.485-1.266.884-3.03 2.895-3.73 1.033-.36 2.01-.522 2.172-.36.401.4-1.46 3.332-2.643 4.16-1.252.878-2.07.854-2.424-.07M723.586 877.022c-.798-1.139-.94-4.903-.234-6.22.67-1.255 2.434-1.077 4.103.413 1.383 1.236 1.414 1.338.826 2.757-.776 1.873-2.596 4.05-3.387 4.05-.335 0-.923-.45-1.308-1M402.478 795.836c-4.541-1.625-7.282-6.206-7.942-13.274-.267-2.853-.5-3.367-3.653-8.06-6.187-9.21-7.685-13.715-4.987-15.001 6.856-3.269 44.978 24.173 47.38 34.105.216.894.037 1.45-.707 2.193-.938.939-1.245.979-5.32.693a556 556 0 0 0-4.997-.335c-.37-.018-4.415.101-8.988.265-7.582.271-8.531.22-10.786-.586M470.327 810.273c-6.796-4.748-18.814-22.841-20.82-31.346-.35-1.483-1.582-5.426-2.738-8.763-3.348-9.67-4.827-16.513-4.02-18.614 1.847-4.815 16.575 14.34 26.672 34.694 5.861 11.813 8.186 19.006 7.251 22.436-1.02 3.744-2.673 4.16-6.345 1.593M464.724 905.838c-8.498-2.827-11.726-6.265-9.315-9.92 4.036-6.121 21.56-9.715 22.824-4.68.402 1.601-1.113 4.514-4.019 7.725-1.321 1.46-3.04 3.919-3.82 5.463-.779 1.543-1.464 2.795-1.523 2.782-.058-.014-1.924-.63-4.147-1.37M432.875 912.443c-1.336-1.336-3.658-4.19-5.16-6.343-2.23-3.198-3.351-4.326-6.118-6.16-1.862-1.235-4.51-3.46-5.884-4.944-2.193-2.37-2.48-2.893-2.36-4.309.11-1.299.441-1.79 1.709-2.532 2.346-1.374 9.74-1.3 14.37.142 12.664 3.946 16.385 11.157 10.116 19.61-.592.798-1.107 2.314-1.263 3.718-.324 2.911-.52 3.247-1.893 3.247-.717 0-1.916-.828-3.517-2.43M379.857 890.366c-2.485-1.898-4.344-4.89-4.341-6.992.005-4.232 4.895-7.474 9.432-6.253 3.034.817 6.32 4.913 6.818 8.502.135.97-.089 1.14-2.096 1.602-2.756.633-3.863 1.217-6.045 3.189l-1.697 1.533zM337.99 871.463c-1.799-1.94-2.697-5.293-2.697-10.07 0-3.691.141-4.498 1.048-5.955 2.108-3.392 5.07-2.542 10.22 2.93l3.341 3.554-1.827 3.512c-1.427 2.744-2.141 3.638-3.26 4.086-.789.316-2.279 1.144-3.312 1.841s-2.003 1.267-2.156 1.267-.763-.524-1.357-1.165M325.804 818.39c-.522-.102-1.533-.796-2.247-1.542-1.218-1.273-1.297-1.584-1.297-5.108 0-2.063.132-3.884.294-4.046s1.232.024 2.377.413c1.248.424 4.879.86 9.053 1.088 7.48.408 8.666.788 7.133 2.287-2.103 2.057-12.844 7.492-14.139 7.154a36 36 0 0 0-1.174-.245M351.475 805.858c-10.402-2.065-16.005-9.546-13.49-18.013.846-2.85 2.297-5.015 4.238-6.323 4.911-3.31 9.501 1.528 11.482 12.1.748 3.99 1.548 12.973 1.149 12.901-.13-.023-1.651-.322-3.38-.665M364.953 805.44c-3.32-1.174-4.711-3.855-4.716-9.087-.002-2.497-.246-3.253-2.262-7.027-2.815-5.269-4.931-10.99-4.931-13.333 0-1.98 1.198-3.582 2.68-3.582 4.796 0 17.033 8.568 23.068 16.152 4.662 5.858 5.892 9.772 3.745 11.92-.943.942-3.64 2.029-5.056 2.036-.278 0-1.392.497-2.475 1.103-1.772.99-6.6 2.525-7.788 2.475-.257-.011-1.276-.306-2.265-.656" style="fill:#000;stroke-width:.449405" transform="translate(-92.612 -158.443)"/><path d="M942.528 968.866c-2.323-.992-2.601-4.69-.66-8.784 1.455-3.072 4.47-6.067 6.107-6.067 2.269 0 3.818 3.921 3.838 9.715l.01 3.198-2.359.982c-2.782 1.157-5.566 1.541-6.936.956" style="fill:#ff0;stroke-width:.449405" transform="translate(-92.612 -158.443)"/><path d="M591.03 1094.106c-8.317-3.318-12.63-11.7-19.045-37.009-5.06-19.96-7.808-25.518-12.929-26.14-3.768-.457-10.391 3.872-15.346 10.03-3.246 4.035-3.501 4.953-2.183 7.848 4.85 10.644-11.012 31.115-23.193 29.932-5.144-.499-9.953-6.968-9.953-13.388v-4.347l3.692 2.628c2.03 1.446 4.319 2.63 5.085 2.63 2.195 0 1.63-7.81-1.15-15.89-1.398-4.064-2.542-7.506-2.542-7.65 0-.142 1.424.012 3.165.346 4.48.856 5.48-2.81 4.723-17.31-.507-9.691-.216-12.77 1.51-15.976 2.06-3.823 2.019-4.293-1.087-12.544-3.78-10.042-4.156-14.87-1.16-14.87 1.137 0 8.55 3.458 16.474 7.685 13.144 7.011 15.424 7.799 25.989 8.978 17.856 1.994 18.815-.238 8.857-20.601-6.947-14.205-7.829-18.795-3.813-19.845 3.036-.794 3.038-.807.694-5.34-1.017-1.965-2.822-7.514-4.011-12.33-3.342-13.526-7.4-21.563-14.267-28.252l-6.261-6.098 1.259-7.54c.692-4.148 1.66-7.976 2.148-8.508s2.172 3.472 3.74 8.898c5.451 18.863 12.798 27.955 16.7 20.665 1.802-3.369.347-10.737-5.035-25.484-4.387-12.02-4.658-13.615-1.928-11.349 1.066.884 2.353 1.192 2.86.685.508-.508.857-7.024.776-14.481-.253-23.281-8.213-48.123-19.273-60.149-2.795-3.038-6.637-9.243-8.537-13.787-11.2-26.776-30.793-60.691-45.098-78.06-12.47-15.14-19.605-21.45-24.422-21.595-3.836-.116-4.523-.78-7.695-7.436-3.914-8.212-6.894-9.348-11.983-4.566l-2.92 2.742-2.657-3.378c-3.762-4.783-10.24-4.578-18.43.583-3.458 2.18-13.379 10.902-22.046 19.385s-15.324 14.279-14.792 12.88c2.858-7.504 2.778-7.611-3.23-4.323-11.332 6.2-41.19 39.327-55.875 61.99l-1.949 3.009-4.406-2.687c-8.48-5.169-15.097-2.506-17.618 7.089-.698 2.659-1.87 13.57-2.604 24.247-.786 11.435-2.12 21.293-3.246 23.988-2.702 6.468-2.45 6.622 2.318 1.415 5.174-5.648 9.646-7.009 13.891-4.227 7.442 4.876 14.514 25.308 15.805 45.668l.795 12.533 3.93-4.564c4.97-5.77 12.738-10.97 16.381-10.964 8.914.015 18.71 12.407 23.082 29.2l1.481 5.69 3.024-5.382c2.116-3.764 3.647-5.183 5.095-4.724 1.205.382 3.322-.676 5.066-2.532 1.648-1.755 3.943-3.19 5.1-3.19 3.358 0 12.963 6.969 20.552 14.913 12.549 13.134 17.286 16.865 21.413 16.865 4.492 0 8.416-5.277 9.689-13.03.92-5.607 1.944-5.93 4.829-1.527 2.607 3.979 9.29 8.19 13.008 8.196 4.259.008 10.068-5.68 18.287-17.903 8.414-12.513 15.427-19.92 19.931-21.05 2.094-.526 2.789-1.375 2.258-2.76-.422-1.1-1.29-15.23-1.928-31.4-1.131-28.654-2.53-40.111-5.304-43.454-2.098-2.528-5.395-1.957-8.638 1.495l-2.946 3.136-2.808-8.036c-8.502-24.329-31.194-55.436-40.44-55.436-6.586 0-8.047 16.152-2.783 30.746 3.368 9.338 4.058 15.014 1.823 15.014-4.268 0-24.894-15.928-38.837-29.991-11.75-11.85-16.711-14.088-21.225-9.575-4.689 4.689-3.216 19.615 3.702 37.532 2.2 5.696-13.476-2.007-16.676-8.194-2.588-5.005-2.302-14.769.622-21.209 4.967-10.941 19.72-23.22 27.898-23.22 1.867 0 4.915-2.241 8.554-6.289 3.11-3.458 6.8-6.651 8.2-7.096 2.773-.88 7.654 1.758 12.214 6.599 5.246 5.57 10.937 3.299 14.81-5.91l1.832-4.36 1.684 5.623c1.616 5.394 6.415 11.101 16.168 19.23 2.744 2.288 4.037 4.504 4.08 6.991.048 2.848 1.598 4.89 7.106 9.362 11.851 9.622 36.222 35.684 44.922 48.04 4.53 6.434 11.645 17.807 15.812 25.275l7.576 13.576-2.287 19.793c-5.885 50.944-3.72 77.982 8.348 104.203 2.706 5.878 4.682 10.924 4.392 11.214s-3.297-.45-6.684-1.645c-7.973-2.81-25.399-3.865-31.358-1.898-5.75 1.897-11.922 8.853-13.013 14.664-.461 2.461-1.587 4.476-2.5 4.476-.914 0-2.492.318-3.507.708-1.492.572-1.816-.705-1.693-6.674.144-6.953-.032-7.407-3.025-7.837-1.748-.25-7.057.233-11.798 1.076-10.942 1.945-12.91.757-12.009-7.243.338-2.999.46-5.452.27-5.452s-2.204 1.736-4.476 3.858-4.763 3.648-5.537 3.391c-.773-.256-3.3-3.852-5.617-7.989-6.55-11.701-5.497-11.233-27.29-12.152-10.64-.449-26.78-2.117-35.868-3.708-11.967-2.094-21.835-2.92-35.783-2.997l-19.259-.106-5.528-3.935c-3.58-2.549-8.876-8.931-15.032-18.113l-9.505-14.178-6.384-.005c-7.12-.005-13.502-3.131-16.07-7.872-2.705-4.992-3.366-13.557-2.376-30.81.582-10.148.429-20.842-.394-27.497-1.288-10.423-1.201-11.254 2.025-19.31 4.144-10.353 5.539-21.983 7.279-60.684 1.466-32.607 2.79-47.166 5.757-63.269 2.17-11.78 7.938-29.046 12.685-37.974 1.727-3.25 3.141-7.126 3.141-8.615s1.98-6.837 4.4-11.886c3.661-7.642 7.571-12.448 23.326-28.678 19.96-20.561 24.89-27.907 26.47-39.443l.773-5.631 7.153-.85c3.935-.468 11.05-1.99 15.812-3.382 8.13-2.378 8.797-2.857 10.948-7.875 3.123-7.285 5.384-8.827 14.505-9.894 7.103-.832 8.278-1.415 12.57-6.237l4.734-5.319 5.295 4.533c7.429 6.359 15.39 8.611 34.112 9.653 21.685 1.207 23.537 2.284 51.342 29.857 30.813 30.554 38.189 41.915 45.256 69.707 4.142 16.287 6.455 20.882 11.099 22.047 6.63 1.664 13.12-10.244 13.12-24.072 0-5.314.281-6.047 1.826-4.765 3.09 2.565 6.993-.741 10.926-9.256 4.75-10.283 7.55-24.584 8.364-42.707 1.35-30.063 5.313-38.021 25.98-52.176 12.048-8.252 19.205-14.581 23.743-20.998l2.697-3.814 3.66 3.496c2.012 1.923 4.604 3.496 5.76 3.496 2.875 0 8.646-7.476 11.862-15.367l2.663-6.533.805 8.725c1.562 16.912 10.5 28.428 22.063 28.428 7.28 0 12.435-2.256 19.884-8.703 3.346-2.896 7.452-5.61 9.124-6.029 4.648-1.166 10.616 1.393 19.7 8.448 24.991 19.407 31.366 20.826 39.755 8.848 1.18-1.686 2.596-2.33 3.966-1.804 3.973 1.525 13.49 16.712 29.16 46.536 16.695 31.773 21.519 39.705 30.602 50.323 6.31 7.376 8.341 12.768 16.62 44.11 7.447 28.193 15.557 42.994 25.534 46.602 3.886 1.405 4.805 2.709 8.321 11.809 14.504 37.531 16.55 83.91 5.525 125.264-1.77 6.641-3.822 16.08-4.56 20.973-2.546 16.887-2.529 16.865-8.977 11.44-5.008-4.214-7.238-4.007-8.923.828l-1.397 4.006-1.397-4.324c-2.14-6.619-5.496-5.708-11.303 3.067-5.433 8.21-7.744 8.238-9.269.108-1.023-5.451-2.145-5.466-4.102-.054-2.383 6.59-5.445 8.538-15.382 9.786-10.175 1.277-14.513 3.573-16.886 8.935-.902 2.038-2.55 3.706-3.661 3.706s-6.549 4.198-12.083 9.33c-11.966 11.096-13.198 11.779-21.755 12.058-6.365.207-12.752 2.219-31.269 9.847-8.505 3.505-8.701 3.525-12.503 1.279-4.964-2.933-10.318-1.926-16.597 3.12l-4.73 3.8-4.186-2.552c-4.72-2.878-11.178-3.42-11.178-.939 0 .894.914 2.929 2.03 4.523 1.65 2.355 2.782 2.75 6.038 2.1l4.008-.8-3.814 2.624c-5.055 3.479-10.206 3.354-13.897-.336-2.551-2.552-4.86-3.133-16.149-4.067-22.518-1.862-29.318-1.418-35.72 2.334-3.096 1.814-7.817 5.72-10.492 8.681l-4.864 5.384.746-4.595c.41-2.527 4.511-13.429 9.114-24.226 12.979-30.449 15.748-44.709 11.477-59.092-1.54-5.187-4.186-8.961-12.593-17.966-6.289-6.737-11.276-13.319-12.19-16.092-4.12-12.481 2.37-28.878 19.981-50.478 20.467-25.103 23.276-28.962 23.276-31.977 0-4.53 21.823-23.168 49.958-42.668 7.752-5.373 10.81-6.798 13.995-6.523 3.238.279 6.41-1.266 15.4-7.498 13.605-9.43 18.26-11.59 21.383-9.918 1.452.777 3.96.738 7.01-.109 7.944-2.206 11.62-1.647 15.65 2.383 3.388 3.388 3.715 4.487 3.715 12.48 0 10.176-2.498 19.63-7.866 29.771-4.444 8.396-9.016 13.127-11.692 12.1-2.2-.845-4.576-8.482-4.586-14.745-.011-6.821-2.613-20.043-4.434-22.534-1.457-1.993-1.916-2.043-3.868-.423-1.218 1.011-6.342 10.427-11.388 20.925-9.603 19.983-13.63 25.309-18.601 24.595-3.395-.488-4.913-3.27-8.653-15.864-4.252-14.314-8.201-15.48-13.418-3.959-1.666 3.68-4.47 13.571-6.23 21.983-2.9 13.858-8.123 30.541-9.22 29.445-.24-.24-.978-5.676-1.64-12.08-1.363-13.172-3.163-17.915-7.648-20.15-4.36-2.174-5.152-1.208-5.178 6.315-.035 10.456-3.007 21.893-11.159 42.944-4.171 10.77-8.295 22.646-9.164 26.39-2.152 9.266-1.07 23.471 2.381 31.255l2.786 6.284 2.68-5.416c1.474-2.979 4.174-6.339 6-7.466 1.826-1.128 4.026-2.902 4.888-3.942 2.454-2.962 7.1-.094 13.346 8.24 2.983 3.98 7.507 9.551 10.053 12.38 4.223 4.694 4.907 5.016 7.825 3.687 2.12-.966 4.003-3.617 5.59-7.872l2.393-6.416 6.127 5.063c3.37 2.784 7.2 5.063 8.513 5.063s5.993-3.06 10.401-6.8l8.015-6.798 5.513 4.892c6.07 5.388 11.425 6.358 16.287 2.952 1.524-1.067 6.324-6.533 10.667-12.147 10.086-13.039 16.354-16.975 25.635-16.102 3.64.342 7.62 1.044 8.843 1.56 1.911.805 2.224.196 2.224-4.324 0-7.438 2.908-13.544 7.607-15.974 2.197-1.136 8.866-2.854 14.82-3.818 18.167-2.94 20.188-5.672 18.847-25.468-.937-13.823.996-22.204 5.12-22.204 2.507 0 8.462 3.002 15.484 7.805 5.565 3.807 12.396 4.807 13.483 1.973.351-.914-1.501-4.843-4.116-8.733-2.614-3.889-6.92-13.294-9.57-20.9-8.909-25.58-12.75-32.032-22.925-38.512-2.834-1.805-10.853-9.528-17.82-17.161-23.214-25.436-40.087-37.406-54.39-38.586-6.3-.52-7.964.139-39.059 15.455-17.863 8.798-35.31 18.004-38.769 20.458-9.05 6.419-26.165 23.8-25.4 25.794.364.948-3.812 6.223-9.586 12.108-7.507 7.651-10 9.582-9.365 7.25.863-3.167.852-3.165-3.253.636-2.266 2.097-4.764 5.283-5.553 7.08-1.652 3.764-6.445 8.096-19.874 17.964-11.939 8.773-17.913 15.341-22.852 25.127-5.928 11.743-8.054 22.652-7.19 36.9 1.174 19.334 6.93 36.216 19.712 57.815 4.533 7.659 5.254 9.889 5.254 16.246 0 9.088-3.193 18.796-11.958 36.354-9.353 18.736-11.308 25.243-10.68 35.55.525 8.616 3.956 18.01 6.576 18.005.795 0 7.736-4.943 15.427-10.98 25.065-19.682 31.9-20.452 39.902-4.497 5.64 11.246 8.138 23.13 8.198 38.995.062 16.662-2.485 27.03-7.636 31.081-5.488 4.317-11.634.702-20.18-11.868-4.82-7.09-9.943-10.93-14.6-10.942-7.07-.018-12.01 6.656-19.729 26.66-6.113 15.842-12.314 27.977-16.016 31.34-2.784 2.53-15.209 6.92-19.073 6.737-.94-.044-3.129-.646-4.862-1.338" style="fill:#916f6f;stroke-width:1.27111" transform="translate(-92.612 -158.443)"/><path d="M635.998 1263.214c-3.567-1.266-11.86-3.216-18.431-4.333-6.57-1.117-16.033-3.134-21.028-4.48-8.615-2.323-9.563-2.344-18.43-.402-7.55 1.652-16.443 2.005-46.176 1.833-36.734-.212-36.835-.22-40.04-3.193-5.261-4.88-10.05-7.455-12.277-6.6-1.722.66-1.963 2.044-1.366 7.828l.725 7.026-13.772-12.8c-28.01-26.03-31.912-33.001-33.705-60.214-1.22-18.51-2.696-20.429-7.44-9.677l-2.83 6.411-1.583-15.046c-1.197-11.385-1.243-18.125-.189-27.702 1.619-14.705 6.761-40.126 8.786-43.43 1.574-2.569 1.234 1.497-1.935 23.147-2.174 14.849-2.724 24.305-1.488 25.542 5.247 5.247 21.02-37.597 19.465-52.87-1.464-14.37 4.368-30.947 15.077-42.858 10.366-11.53 21.238-14.691 28.758-8.364 5.394 4.539 7.139 9.087 9.489 24.732 4.02 26.773 10.37 28.654 37.069 10.982 24.01-15.894 27.985-15.816 33.676.654 6.852 19.833 13.858 27.578 25.842 28.572 5.206.432 8.147-.075 12.413-2.14 7.746-3.75 19.442-15.915 23.355-24.29a5091 5091 0 0 0 5.271-11.319c1.104-2.38 4.098-6.527 6.655-9.215 3.645-3.831 5.6-4.888 9.046-4.888 5.827 0 15.017 4.756 25.653 13.277 8.746 7.005 9.655 7.486 16.908 8.94 3.124.627 4.766.125 7.626-2.335 3.51-3.017 3.644-3.552 3.602-14.368-.024-6.178-.527-18.098-1.118-26.487-1.011-14.345-.92-15.442 1.523-18.431 2.94-3.596 5.011-2.83 2.92 1.079-.756 1.412-1.375 3.749-1.375 5.193 0 3.4 2.813 3.389 14.139-.051 10.672-3.242 15.931-2.558 22.119 2.874 3.183 2.795 4.979 5.9 6.397 11.06 1.084 3.946 3.473 10.892 5.309 15.436 3.196 7.912 6.192 13.171 24.683 43.324 15.74 25.668 18.02 41.64 9.406 65.895-2.588 7.287-6.616 17.011-8.952 21.608-13.239 26.062-35.745 48.059-66.862 65.347-7.663 4.257-9.893 4.822-26.058 6.596-20.1 2.205-31.693 4.684-38.756 8.287-2.683 1.37-5.045 2.413-5.247 2.32-.203-.093-3.287-1.205-6.854-2.47zm-16.775-14.5c41.761-4.886 75.668-16.67 105.84-36.783 30.956-20.636 57.434-54.148 58.91-74.561.708-9.79-.223-12.978-5.498-18.817-7.605-8.418-21.284-13.09-65.445-22.349-9.08-1.904-19.157-4.934-23.516-7.072-7.045-3.455-7.723-3.572-8.897-1.534-.7 1.214-4.703 5.668-8.898 9.898-6.542 6.597-11.062 9.437-31.778 19.96-13.95 7.087-27.473 14.95-32.016 18.615l-7.865 6.347-2.101-6.326c-5.518-16.612-16.876-21.414-50.809-21.48-12.974-.025-15.875-.41-19.416-2.568-4.696-2.863-6.641-6.888-6.642-13.742l-.001-4.684-2.669 5.391c-4.671 9.437-14.506 16.95-37.66 28.769-23.618 12.056-32.18 18.581-37.709 28.74-3.433 6.307-3.54 6.986-2.174 13.785 6.671 33.22 41.776 62.743 88.83 74.706 6.797 1.727 17.219 3.615 23.161 4.194 17.901 1.745 49.225 1.514 66.353-.49M691.421 1548.283c-1.748-.27-6.45-1.866-10.448-3.546s-9.79-3.053-12.87-3.053c-3.078 0-8.1-.909-11.16-2.019-15.987-5.803-26.987-7.02-74.202-8.212-25.168-.635-49.478-1.728-54.022-2.428-10.808-1.665-44.315-1.658-66.733.014-18.042 1.346-37.841 4.73-47.397 8.101-5.235 1.847-5.26 1.841-9.433-2.316-7.332-7.306-17.802-7.146-43.347.663-13.745 4.201-18.268 4.376-17.636.678.22-1.287 5.171-7.766 11.002-14.396 25.023-28.458 52.211-72.308 76.535-123.444 6.307-13.258 8.036-18.172 8.051-22.88.05-14.773 6.16-28.6 14.36-32.49 11.665-5.536 23.894-.318 43.126 18.4 15.52 15.107 33.844 27.69 51.97 35.691 18.046 7.966 50.543 21.34 51.85 21.34.587 0 1.779-1.715 2.648-3.813.868-2.097 2.386-3.813 3.371-3.813.986 0 2.122-.858 2.524-1.907 1.191-3.102 6.513-2.2 14.994 2.543 10.173 5.69 15.556 5.853 21.477.654 3.037-2.666 6.926-4.349 13.074-5.657 31.01-6.598 58.792-24.069 76.597-48.17 5.102-6.906 12.518-20.297 17.014-30.72 2.936-6.807 13.774-18.868 19.318-21.5 5.914-2.806 8.69-1.252 11.7 6.55 3.328 8.625 3.325 62.236-.004 76.397-6.72 28.588-3.295 55.907 14.369 114.601 4.734 15.73 9.033 30.545 9.553 32.922.85 3.879.704 4.226-1.421 3.386-6.872-2.717-21.606-4.653-35.513-4.666-12.88-.013-19.372.763-37.606 4.493-12.122 2.48-25.757 5.54-30.302 6.8s-9.692 2.068-11.44 1.798zM937.198 1026.148c-3.94-6.013-5.616-16.21-6.867-41.802-1.21-24.734-1.34-25.57-5.148-32.886-5.278-10.141-6.17-19.152-2.624-26.477 1.469-3.035 7.27-10.663 12.89-16.952 13.84-15.488 15.473-19.161 16.894-38.031 1.665-22.12.13-25.98-12.126-30.502-9.487-3.5-10.277-4.8-9.286-15.281.467-4.935.786-12.78.71-17.437-.22-13.338 1.532-17.787 9.778-24.828 9.803-8.37 13.443-17.714 8.355-21.444-1.933-1.417-2.204-3.765-2.07-17.936.173-18.475 3.31-33.062 11.096-51.603 2.89-6.88 4.665-13.507 5.187-19.36 1.206-13.521 2.145-17.843 3.394-15.612 3.224 5.762 4.918 64.33 2.4 82.982-2.66 19.695-2.886 58.193-.627 106.773 4.111 88.398 1.152 126.717-12.96 167.786-2.403 6.991-5.297 13.426-6.431 14.3-3.686 2.838-10.17 1.967-12.566-1.69m15.876-52.142c6.224-5.328 9.093-10.271 9.093-15.669 0-7.29-10.922-10.99-21.038-7.126-7.472 2.854-9.983 6.671-9.165 13.934 1.535 13.61 10.946 17.561 21.11 8.861" style="fill:#916f6f;stroke-width:1.27111" transform="translate(-92.612 -158.443)"/><path d="M925.068 902.938c-1.155-2.533-.895-6.135 1.262-17.478 1.494-7.857 3.355-18 4.135-22.54 1.653-9.61 4.285-16.533 6.287-16.533 3.332 0 6.848 11.91 7.377 24.99.757 18.702-2.963 27.996-13.338 33.326-3.8 1.952-4.067 1.87-5.723-1.765M251.147 924.243c-2.033-3.935-9.104-30.967-10.39-39.722-.462-3.146-3.921-22.165-7.687-42.264-8.866-47.315-10.853-63.032-10.41-82.386l.358-15.702 9.385 15.703c20.967 35.08 30.79 59.058 31.019 75.71.156 11.431-1.853 17.161-8.736 24.91-7.048 7.936-9.424 12.552-9.424 18.309 0 6.42 2.32 10.152 12.617 20.303 11.051 10.894 11.282 12.735 2.758 21.961-3.392 3.67-6.508 6.673-6.925 6.673s-1.571-1.573-2.565-3.495" style="fill:#916f6f;stroke-width:1.27111" transform="translate(-92.612 -158.443)"/><path d="M569.528 1210.793c-4.584-8.012-9.102-12.535-9.987-9.999-.321.921-1.886 3.188-3.478 5.039-2.546 2.96-3.277 3.19-6.084 1.911-4.473-2.038-9.887-13.703-10.744-23.147-.982-10.835 1.551-13.274 10.062-9.685 1.739.733 2.297-.021 2.937-3.968 1.833-11.311 3.53-17.043 4.908-16.585.797.264 3.342 3.865 5.656 8.003 8.829 15.785 13.791 20.87 20.368 20.87 2.127 0 2.529-1.13 2.993-8.417.395-6.202 1.137-8.855 2.822-10.087 3.227-2.36 6.62-.797 21.53 9.923 11.139 8.007 13.313 9.087 18.427 9.147 7.946.094 9.047-2.358 9.1-20.27l.043-13.981 3.598 6.525c5.647 10.241 8.664 13.935 13.157 16.113l4.172 2.022 1.575-11.69c1.497-11.115 4.009-17.162 7.63-18.369 2.592-.864 12.09 9.05 19.595 20.451 7.14 10.847 11.24 20.801 11.24 27.284 0 2.837-.359 3.03-4.131 2.23-9.352-1.984-12.469-2.253-16.771-1.446-3.84.72-4.527 1.365-4.564 4.286-.023 1.891-1.148 5.726-2.499 8.523-1.35 2.796-2.475 6.371-2.499 7.944-.067 4.477-1.65 3.465-7.949-5.084-11.327-15.373-17.08-18.556-24.825-13.733-2.272 1.415-4.135 3.296-4.139 4.18-.004.885-1.686 2.563-3.737 3.73-2.545 1.447-4.16 3.728-5.092 7.185-1.725 6.407-3.267 6.097-14.602-2.936-15.918-12.684-20.08-12.345-27.088 2.21-2.273 4.718-4.948 8.58-5.945 8.58s-3.552-3.042-5.679-6.759M736.356 1152.725c-3.6-5.244-8.927-11.822-11.838-14.618-6.692-6.428-10.692-12.817-9.679-15.458 1.079-2.81 10.387-1.63 26.219 3.326 11.914 3.73 15.663 6.19 18.844 12.366 2.05 3.981 1.894 4.215-2.83 4.215-6.532 0-12.198 2.43-12.89 5.529-.336 1.503-.761 5.307-.946 8.453l-.335 5.72zM465.734 1176.28c-2.548-6.1-2.363-15.01.383-18.368 2.15-2.628 2.442-2.655 8.69-.789 11.02 3.293 21.963 12.866 20.14 17.618-1.11 2.892-5.011 3.842-14.766 3.597-4.674-.118-8.854.363-9.29 1.069-1.483 2.399-3.31 1.291-5.157-3.126" style="fill:#000;stroke-width:1.27111" transform="translate(-92.612 -158.443)"/><path d="M492.385 1025.94c-4.737-5.245-7.82-15.427-6.319-20.868.787-2.85 2.682-5.607 4.535-6.599 1.098-.588 1.168-.32 1.063 4.098-.162 6.78 1.821 7.935 4.864 2.832l1.47-2.464.749 5.625c.977 7.339.944 15.862-.07 17.875-1.303 2.59-3.67 2.401-6.292-.5" style="fill:#000;stroke-width:.635554" transform="translate(-92.612 -158.443)"/><path d="M689.48 1129.631c.601 5.526 2.64 10.752 4.54 15.935 1.257 2.68 2.08 5.58 3.486 8.183 2.654-.982 5.58-1.418 7.962-2.948.6-.385 0-1.427-.043-2.138-.323-5.26-1.76-10.448-2.852-15.583-1.59-5.81-3.566-11.585-6.355-16.942-1.6-2.788-.926-1.526-2.07-3.762-.685-1.27-.722-2.776-1.372-4.056-.22-.43-.313-1.347-.78-1.222-2.69.717-5.068 2.306-7.602 3.458.87 4.456 3.059 8.622 5.824 12.2.728.94 1.547 1.806 2.321 2.71 3.598 3.9 7.734 7.306 11.177 11.358.541.637 1.01 1.332 1.514 1.998 1.329 2.13 3.194 4.246 3.666 6.792.01.054.34 2.111.611 2.057 2.8-.558 5.711-1.19 8.12-2.722.603-.383-.352-1.389-.603-2.058-.692-1.836-1.89-3.939-2.778-5.619-2.863-4.64-5.724-9.33-9.368-13.414-1.575-1.765-2.036-2.098-3.669-3.537-2.698-2.14-4.392-3.596-8.889-.477-1.526 1.06-.056 8.832.158 10.321 1.763 8.272 3.627 16.532 5.752 24.72 1.634 4.637 1.37 4.924 9.683.512.692-.368.007-1.57-.039-2.353-.146-2.51-.438-4.334-.77-6.864-.211-1.218-.41-2.44-.633-3.655-.22-1.193-.707-4.07-1.267-5.379-.079-.184-.266-.44-.459-.387-2.812.765-6.006.962-8.293 2.768-.892.704.347 2.245.52 3.368 1.011 5.47 2.653 10.794 4.567 16.008.51 1.388 1.022 2.779 1.634 4.126.374.823.446 2.611 1.318 2.371 3.197-.88 5.7-3.392 8.55-5.087-.646-4.687-2.127-9.164-3.684-13.606-.298-.849-.438-1.772-.901-2.543-.123-.204-.015.556-.218.682-1.963 1.226-4.082 2.183-6.123 3.275 1.305 2.113 1.207 2.117 3.104 4.274 3.194 3.632 6.118 5.515 11.45 1.972 1.122-.746.725-2.597 1.087-3.895l.104-1.921c.016-.65-9.165-.875-9.181-.226l-.001 1.66c2.497-1.919.24-.455 6.794-.904.116-.01-.235-.071-.312-.158-.576-.643-1.077-1.351-1.632-2.013-2.658-3.167-1.91-2.274-5.099-5.366-2.948.456-6.12.151-8.843 1.367-.933.417-.752 1.932-.826 2.95-.084 1.161.135 2.331.358 3.473.896 4.588 2.781 8.936 4.51 13.248 3.362.073 6.81.98 10.086.218.815-.19-.162-1.668-.33-2.488-1.419-6.858-4.07-13.426-6.769-19.858-2.53-5.294-.743-3.793-10.418-2.886-.307.029-.295.56-.317.867-.103 1.41.348 4.417.527 5.567.19 1.223.432 2.437.648 3.656.393 1.77 1.011 4.612 1.463 6.438.173.7-.145 1.923.557 2.09 9.38 2.24 9.002 2.213 8.92-2.713-.102-1.077-.165-2.158-.305-3.23-.981-7.511-3.225-14.744-5.27-22.012-.376-1.16-.724-2.328-1.128-3.478-.241-.686-.096-1.87-.806-2.027-.625-.14-.424 1.433-1.038 1.616-5.879 1.753-7.816-1.277-5.602 1.558 4.113 5.15 7.455 10.843 11.5 16.045 1.107 1.384 2.126 2.84 3.297 4.17 2.105 2.39 10.13 1.294 8.842-1.608-.157-1.194-.21-2.43-.518-3.6-.666-2.528-1.886-4.809-3.3-6.995-.636-.906-1.231-1.842-1.907-2.72-3.258-4.225-7.41-7.634-11.122-11.433-1.454-1.532-2.407-2.43-3.642-4.136-1.361-1.88-2.387-3.986-3.695-5.895-.134-.196-.332-.34-.498-.51-2.595.83-5.109 1.984-7.786 2.492-.345.066-.329-.623-.524-.916-.045-.068.056.155.071.235.067.34.117.683.174 1.025.341 2.024.12.903.64 3.164 2.06 6.742 4.732 13.288 6.59 20.095 1.169 4.008 2.453 7.974 3.632 11.978.25.85.466 1.709.733 2.553.144.455.02 1.349.496 1.342 2.724-.035 5.362-.968 8.042-1.453.13.276.142.652.391.828.176.124-.084-.422-.117-.634-.058-.366-.096-.735-.156-1.1-.268-1.633-.334-1.942-.844-3.642-.236-.785-.505-1.56-.758-2.34-1.737-5.212-3.57-10.396-5.431-15.562-.166-.6-8.642 1.749-8.476 2.348zM508.177 1148.803c-.743 3.02-1.346 6.079-1.873 9.143-.142.824-.376 1.643-.374 2.479 0 .144.237.204.381.208 2.872.06 5.745-.014 8.617-.02 1.568-6.54 2.595-13.24 2.699-19.976.017-1.13.961-3.4-.169-3.386-1.581.02-2.186 2.287-3.279 3.43-2.334.117-5.286-1.235-7.004.35-1.813 1.672-.937 4.846-1.28 7.289-.528 3.777-1.364 11.945-1.309 15.938.02 1.477-.908 4.194.555 4.397 3.622.502 7.061-1.902 10.592-2.853 1.526-6.03 2.635-12.151 3.769-18.263.234-1.262 1.537-2.803.71-3.784-.649-.77-1.005 1.973-1.957 2.304-1.975.687-4.166.368-6.249.551-.131 1.952-.314 3.9-.395 5.855-.026.61-.4 9.527.193 11.273.133.394.444-.796.84-.92 2.59-.811 5.868-.067 7.932-1.828 1.246-1.063-.02-3.276-.03-4.914-.058-5.043-.587-10.09-.433-15.138.023-.755.076-1.514.214-2.256.221-1.186.23-1.084.463-.722-1.31 2.448-5.99 1.248-6.337-1.422-.12-.93-.401-2.315.41-2.786 5.118-2.97 5.176-2.391 6.981-.22-.61-.863.785 1.046.099 1.545-6.24 4.537-8.044.643-5.805 4.758.45.827.88 1.664 1.32 2.496 1.69 3.287 3.436 6.547 5.085 9.854.423.847 1.626 3.542 2.311 4.547.127.186.348.286.521.429 2.7-1.052 5.783-1.418 8.102-3.157.692-.52-.274-1.712-.49-2.55-1.55-6.056-4.255-11.76-6.535-17.56-.395-1.135-.783-2.273-1.185-3.406-1.612-4.54-1.942-5.593-9.108.365-.758.63.238 1.958.374 2.934.242 1.726.507 3.448.76 5.172 1.873 11.563 3.815 23.113 6.13 34.596 2.334 2.137 1.493 1.554 8.482-1.366.528-.22.12-1.142.088-1.713-.216-3.87-1.023-7.746-1.66-11.56-1.438-6.446-.95-13.013-11.406-5.836-1.352.929-.803 3.184-1.1 4.798-.415 2.247-.69 4.517-1.034 6.776-1.118 7.984-1.01 6.45-1.689 14.004-.096 1.066-1.296 3.06-.235 3.2 1.242.166 1.24-2.382 2.375-2.915 5.886-2.762 5.29 3.135 4.136-4.733-.752-3.345-1.377-6.864-2.707-10.057-.484-1.16-.997-2.353-1.828-3.296-3.535-4.01-5.688-3.372-10.871.205-1.035.714-.99 2.31-1.484 3.466-1.02 5.237-1.225 6.45 7.944 6.143.307-.01 1.558-3.696 1.698-4.21.029-.108-.017-.222-.026-.333-2.763-.071-5.547-.565-8.288-.211-.484.062-.427.882-.557 1.352-.423 1.518-.75 3.624-.958 5.21-.052.398-.466 1.009-.113 1.198.328.176.415-.617.623-.925-.326.501 6.77 5.107 7.096 4.605.37-.507.802-.973 1.108-1.52 1.3-2.327 1.581-5.216 1.616-7.82.013-1.02.742-2.543-.139-3.058-2.52-1.473-5.683-1.339-8.524-2.009-.803 1.309-1.111 1.514-1.277 3.182-.023.231-.001.573.213.663 3.897 1.648 7.14 5.429 8.313 2.029.19-.552.314-1.124.472-1.687.39-3.424.442.018-5.208-1.444-.567-.146-.748-2.059-.913-1.498-.232.791.453 1.587.652 2.387.375 1.51.683 3.038 1.073 4.545.467 1.806.997 3.596 1.495 5.394 1.77 5.012 2.218 9.487 9.278 10.841 1.865.358 3.49-1.715 4.767-3.122 1.035-1.14 1.47-2.734 1.89-4.215 1.348-4.751 1.45-9.807 1.814-14.676-.025-2.27.023-4.544-.076-6.813-.065-1.5.852-3.681-.416-4.486-11.676-7.414-8.69 1.218-8.037 6.344.692 3.968 1.4 7.945 2.627 11.792.327 1.026.089 2.733 1.124 3.028 8.406 2.397 7.944 1.954 9.486-1.995.102-1.113.278-2.221.306-3.339.093-3.822-.253-7.668-.753-11.45-.971-7.348-2.532-14.617-4.597-21.735-.647-1.897-1.182-3.836-1.94-5.692-.551-1.348-.571-3.522-1.979-3.893-12.399-3.268-9.524 3.405-8.04 9.88.524 1.54.992 3.1 1.573 4.619 1.665 4.353 3.797 8.485 6.018 12.573.394.726.382 2.096 1.205 2.165 2.927.245 5.806-.89 8.71-1.335.027-.332.125-.666.082-.996-.245-1.88-1.053-4.053-1.77-5.725-1.592-3.718-3.756-7.132-5.963-10.506-.277-.356-4.376-5.846-4.798-5.82-5.85.37-8.975.442-7.305 4.926 1.998 2.983 2.05 4.212 8.072 1.158 1.51-.766.64-5.083-.494-5.734-1.602-.92-3.556-1.244-5.404-1.234-.878 0-1.535.85-2.303 1.275-.573.625-1.234 1.179-1.72 1.874-4.365 6.255-3.366 16.002-2.558 23.057 1.667 6.952.447 8.612 10.793 9.791 1.143.13 1.67-1.677 2.09-2.75 1.38-3.532 1.045-9.02.71-12.448-.23-2.368-.781-4.695-1.172-7.042-2.592-2.221-4.521-5.637-7.777-6.663-1.614-.51-3.092 1.591-4.168 2.897-1.035 1.257-1.434 2.937-1.918 4.49-1.954 6.271-2.451 12.912-2.478 19.437 3.306 1.414 6.322 4.206 9.917 4.241 1.428.014.884-2.726 1.124-4.133.789-4.624 1.206-11.464 1.254-16.062.026-2.52.751-5.229-.218-7.554-1.391-3.336-4.359-5.767-6.538-8.65-1.25 1.164-2.8 2.072-3.75 3.492-.915 1.367-1.525 8.363-1.58 9.038a89 89 0 0 0 .06 15.128c2.858.937 5.613 2.279 8.574 2.811.468.084.708-.672.9-1.108.386-.881.594-1.833.803-2.772.696-3.126.997-6.352.955-9.55.077-.636-8.917-1.713-8.993-1.077zM613.788 1168.574c.338-.23.667-.907 1.015-.69.328.203.016.976-.348 1.106-1.024.367-2.209-.102-3.258.184-.22.06.062.454.144.666.673 1.73 1.043 2.148 2.066 3.826.964 1.385 2.203 2.135 3.487 3.106.317.24.54.701.935.736 2.105.185 4.313.507 6.339-.096.961-.286 1.252-1.567 1.878-2.35-1.89.448 2.944-2.631 1.924-2.445-1.67.304-3.116 1.493-4.802 1.688-.73.085-1.35-1.211-2.016-.899-.595.279-.181 1.3-.236 1.955-.064.757-.08 1.518-.121 2.277.085.893.241 3.9 1.129 4.125 2.585.653 5.346-.021 7.99-.367.343-.045.45-.526.693-.77.027-.028.146-.046.109-.036q-2.27.572-4.538 1.148c-.836-.964-1.78-1.844-2.507-2.892-1.362-1.964 4.23.072 8.321 1.182.468.127-.202 1.144-.663 1.294-.867.284-1.82.134-2.73.2.499-.172 1.337.83 1.588.35 1.313-2.516 2.79-5.238 2.7-8.075-.016-.525-6.101-1.142-6.143-1.15-1.226-.225-2.427-.573-3.64-.86-4.431-1.184-8.55-3.22-12.627-5.27-2.011-1.01-3.86-2.118-6.035-2.712-1.405 2.49-3.384 4.734-4.214 7.469-.182.597 1.129.545 1.727.724 2.519.753 4.967.458 7.288-1.497 1.755-1.478 1.252-4.21 1.116-6.086-.52-2.38-.302-2.158-.564.743.308-.53-7.182-4.884-7.49-4.355-1.24 3.977-1.4 2.384-.885 4.72.645 1.36-.282-.181 1.321-.835 1.26-.514 2.678-.49 4.021-.703.147-.023-.276.134-.424.13-.364-.01-.802-.394-1.08-.159-2.322 1.965-4.272 4.33-6.408 6.496 1.047 1.684 3.466 3.407 4.956 4.418 4.608 3.125 9.689 5.397 15.136 6.591 3.153.474 5.377 1.137 8.472.604.478-.082 1.026-.261 1.296-.664 1.613-2.411 2.715-5.132 4.235-7.602.067-.11.19.17.285.256l-1.161-.493c-1.446-.036-2.914-.357-4.339-.108-.843.147-1.57.723-2.238 1.258-.488.391-1.685 1.117-1.168 1.47 2.273 1.55 4.998 2.439 7.695 2.98.464.094.29-.992.081-1.417-.682-1.388-1.766-2.538-2.65-3.808-3.986.766-4.439-.132-6.298 1.97-.253.287-1.028.822-.663.936 2.228.693 4.764.141 6.929 1.014.65.263-.09 1.85.59 2.019.588.146.307-1.172.461-1.758.068-1.083.263-2.165.205-3.248-.132-2.46-.875-7.498-3.812-8.484-5.116-1.72-7.144 1.423-8.831 4.693 3.296-.465 7.966 2.405 4.873-.75-.446-.454-.576-.478-1.054-.702-.993-1.779-2.97-6.416-4.545-7.295-4.267-2.378-6.082-2.457-9.556-.137-.529.353-.821.97-1.232 1.456-.348.514 6.922 5.438 7.27 4.924zM646.29 1164.1c1.15 1.77 1.354 2.395 3.62 3.68 2.753 1.559 7.795 2.305 10.595.6.753-.458 1.335-1.152 2.002-1.728.38-1.337 1.06-2.623 1.14-4.011.051-.886-.322-1.78-.76-2.551-1.788-3.142-4.373-3.239-8.243-2.099-1.234.364-3.22 3.752-3.941 4.873-2.04 4.48-.768.72-.509.638 1.297-.415 2.697-.407 4.057-.468.012 0 .564.526.513.099-.03-.253-.117-.496-.176-.744.107-2.656-.164-5.35-1.196-7.825-.672-1.612-1.175-2.175-2.132-3.507-1.618-1.654-.46-.926-.811-.564-1.857 1.914-3.856 3.694-5.633 5.683-.093.104.18.215.273.318.32.354.625.72.966 1.053.575.561 1.186 1.084 1.778 1.626 1.738 1.44 3.535 3.034 5.69 3.838.774.289 1.612.896 2.395.635 2.118-.706 4.218-1.779 5.79-3.364.748-.755.427-2.083.64-3.125.276-2.683-.074 1.51-6.669 2.086-.772.067-.9-1.514-1.668-1.618-.457-.062-.236.893-.309 1.349-.357 2.24-.227 1.915.001 4.307 2.598 4.854.446 2.67 8.468 3.591.512-.35-4.435-7.578-4.946-7.228 5.69 1.727 4.76-.178 5.58 3.047-.053-1.529.482-4.395.137-5.648-.414-1.502-.362-3.908-1.875-4.282-6.634-1.642-6.801.61-7.85 3.85 1.818 1.419-.424-.155 5.303-1.312.243-.049.78.512.532.522-.324.013-2.162-1.38-2.353-1.527-.634-.488-1.246-1.003-1.869-1.505-1.263-.935-2.48-1.937-3.789-2.807-.494-.33-1.03-1.172-1.548-.881-4.718 2.65-7.723 3.237-6.004 6.36 1.768 2.615 2.01 5.568 2.342 8.637.41 1.767 1.438 5.588 3.435 6.222 4.395 1.397 5.96 1.149 8.716-1.572.509-.503.789-1.193 1.183-1.79.273-.521.669-.996.82-1.565.035-.13-.219-.167-.35-.194-1.52-.314-3.133-.272-4.583-.826-.717-.273-.435-1.186-.205-1.59.371-.65.787-1.275 1.18-1.913.25-.222.751-.332.747-.665-.003-.255-.997-.2-.755-.119.348.117 1.194-.122 1.078.227-.013.038-2.084.421-2.253.353-.412-.169-.646-.613-.968-.92-.308-.536-7.894 3.818-7.586 4.354z" style="fill:#782121" transform="translate(-92.612 -158.443)"/><path d="M1052.51 717.964c-1.715-.87-3.534-2.48-4.042-3.58s-1.617-3.342-2.464-4.982c-.848-1.64-1.54-4.155-1.54-5.588 0-1.434-.537-2.938-1.193-3.343-2.6-1.607-3.191-15.093-3.984-90.754-.819-78.201-.838-78.627-3.26-72-1.341 3.667-2.948 7.867-3.573 9.333-.624 1.467-2.387 6.166-3.918 10.442-3.988 11.14-6.334 15.231-10.18 17.752-3.162 2.071-3.535 2.069-5.64-.034-1.97-1.97-2.234-5.469-2.103-27.873.142-24.313 1.045-33.897 4.484-47.62 1.56-6.225 4.11-21.793 6.77-41.333.85-6.234 2.096-14.334 2.77-18 .675-3.667 1.712-11.167 2.304-16.667 1.247-11.595 2.206-14.107 9.105-23.876 3.7-5.238 8.804-9.71 18.67-16.355 12.57-8.467 14.351-9.255 23.996-10.606 12.136-1.701 11.636-1.7 23.763-.105 6.244.822 13.238 3.062 21.079 6.752 6.453 3.038 12.245 5.523 12.87 5.523s4.374 3.162 8.333 7.027c6.368 6.217 7.456 8.097 9.455 16.333 1.242 5.119 2.257 10.365 2.255 11.658 0 2.352 2.518 7.701 4.247 9.01.505.382 1.332 16.882 1.838 36.667.506 19.784 1.443 36.982 2.082 38.218.64 1.235 1.162 5.285 1.162 9s.6 6.754 1.334 6.754c.733 0 1.333 1.165 1.333 2.588s.6 2.959 1.333 3.412c.734.453 1.334 3.296 1.334 6.317s.73 7.51 1.62 9.975c1.272 3.518 1.272 5.04 0 7.077-.89 1.427-1.62 4.813-1.62 7.524 0 4.596-3.688 17.382-6.923 24-.778 1.592-1.032 4.931-.565 7.421.696 3.71.267 5.075-2.379 7.56-4.36 4.098-8.103 3.232-8.234-1.905-.056-2.183-.481-4.87-.945-5.97-.87-2.064-1.526-9.97-3.485-42-1.064-17.397-2.672-28.852-4.81-34.27-.74-1.873-1.342-1.992-3.444-.679-1.922 1.2-2.549 3.133-2.549 7.859 0 3.447-.6 6.638-1.333 7.09-1.84 1.138-1.722 26.412.131 28.266 1.475 1.474 1.368 3.484-1.54 29.068-1.628 14.33-1.802 22.366-.62 28.667.797 4.25.278 5.334-5.807 12.131-7.557 8.44-14.132 12.336-17.646 10.456-1.251-.67-3.98-4.832-6.063-9.25-2.084-4.417-4.838-8.366-6.122-8.774-2.531-.806-2.948-2.862-1.154-5.692.695-1.098.12-4.627-1.478-9.071-1.981-5.511-2.4-8.955-1.726-14.204 1.713-13.351 2.228-43.927.764-45.39-.809-.81-1.405-7.422-1.405-15.584 0-7.798-.395-14.572-.878-15.055-1.72-1.72-4.456 2.164-4.456 6.33 0 2.33-.555 4.806-1.233 5.503-1.72 1.767-2.818 17.76-3.518 51.267-.33 15.766-1.173 29.866-1.874 31.333-.7 1.467-1.632 9.567-2.07 18-3.676 70.665-4.324 77.273-8.306 84.713-3.7 6.913-13.95 12.07-18.952 9.534m14.157-8.37c1.773-2.706 2.377-7.415 2.78-21.667.285-10.016 1.062-19.41 1.729-20.877s1.52-8.066 1.895-14.666 1.324-19.5 2.11-28.667 1.704-29.567 2.042-45.333c.339-15.767.973-29.567 1.41-30.667s.688-5.99.56-10.869c-.134-5.085.372-9.242 1.185-9.745.78-.482 1.419-2.76 1.419-5.06 0-4.516 5.545-13.632 9.62-15.813 2.886-1.544 7.657-.381 7.836 1.91 1.48 18.912 1.87 69.878.579 75.397-.775 3.311-.244 6.901 2.026 13.698 2.264 6.778 2.683 9.604 1.589 10.699-1.095 1.094-.813 2.055 1.067 3.635 1.406 1.181 4.293 5.448 6.416 9.481 4.868 9.25 7.598 9.845 14.095 3.073 3.864-4.028 4.693-5.76 4.025-8.406-1.754-6.946-2.146-16.428-.794-19.16.773-1.562 1.75-7.94 2.171-14.173 1.013-14.99 1.012-15.259-.052-35.483-.642-12.218-.477-17.756.55-18.391.92-.569 1.171-3.098.67-6.755-.733-5.345-.368-6.375 4.263-12.027 2.786-3.4 6.772-7.063 8.859-8.142 4.204-2.174 4.262-2.11 5.622 6.131.424 2.567 1.349 7.367 2.056 10.667s1.311 13.83 1.343 23.4c.035 10.482.625 17.966 1.482 18.824.784.783 1.442 6.004 1.464 11.602.041 10.478 1.686 14.466 3.257 7.895.49-2.047 1.474-4.464 2.188-5.371s.958-2.538.541-3.624-.183-2.329.518-2.762c.701-.434 1.275-3.718 1.275-7.298s.6-6.88 1.333-7.333c.734-.453 1.334-2.553 1.334-4.667s-.6-4.213-1.334-4.666c-.733-.454-1.333-3.528-1.333-6.833s-.69-7.3-1.535-8.878c-2.441-4.56-4.056-18.665-4.685-40.901-.32-11.337-1.2-21.355-1.953-22.263s-1.256-3.033-1.117-4.721c.138-1.69.186-6.902.104-11.584l-.147-8.513-2.473 3.18c-1.36 1.748-5.31 7.34-8.777 12.425-6.262 9.183-14.66 16.47-23.217 20.145-2.457 1.055-7.318 4.305-10.801 7.221-7.55 6.321-11.686 8.058-19.152 8.045-6.264-.012-20.593-4.014-24.72-6.904-6.326-4.432-25.412-22.777-28.836-27.718-2.046-2.953-4.215-5.368-4.819-5.368-1.43 0-3.28 7.382-5.183 20.667-.84 5.866-2.14 13.666-2.887 17.333-.748 3.667-1.871 12.667-2.496 20-.626 7.333-1.705 18.433-2.399 24.667-2.39 21.482-2.984 34.666-1.56 34.666 1.69 0 5.024-7.371 9.949-22 2.4-7.127 4.297-11.921 6.193-15.648.648-1.274 1.178-3.17 1.178-4.215 0-2.559 8.094-9.243 9.495-7.841.612.611 1.35 38.595 1.642 84.408.516 81.125.76 89.639 2.63 91.509.495.494.9 2.563.9 4.598s.6 4.07 1.333 4.523 1.333 1.772 1.333 2.931c0 6 10.647 7.707 14.204 2.278m43.489-229.451c3.232-2.98 9.724-7.31 14.426-9.621 6.188-3.044 9.793-5.922 13.06-10.43l4.51-6.228-6.51 5c-3.582 2.75-8.421 5.858-10.754 6.906s-4.657 2.577-5.163 3.396c-1.01 1.633-19.649 10.485-27.614 13.114-7.217 2.382-4.767 4.505 4.43 3.84 6.828-.494 8.428-1.196 13.615-5.977m-23.36-1.381c-2.016-.305-5.316-.305-7.333 0-2.017.306-.367.555 3.667.555s5.683-.25 3.666-.555m19.19-9.665c2.637-2.175 8.08-5.183 12.094-6.684 10.513-3.934 17.55-13.357 18.938-25.363.381-3.3 1.074-8.533 1.54-11.63.64-4.27.167-7.03-1.958-11.42-1.542-3.186-2.803-6.39-2.803-7.12 0-1.874-5.997-6.084-16.76-11.765-5.082-2.683-11.792-6.391-14.91-8.24-7.792-4.619-15.626-4.792-21.673-.48l-4.658 3.322 6 .418c6.853.476 9.34 2.11 6.913 4.537-1.077 1.076-5.193 1.486-12.247 1.218l-10.626-.402-9.986 6.325c-5.492 3.48-11.118 7.581-12.502 9.115-3.142 3.482-5.552 13.142-5.552 22.256 0 6.125.675 7.838 5.667 14.387 6.886 9.033 10.732 12.466 22.177 19.798l8.823 5.651 13.363.015c12.856.014 13.545-.135 18.16-3.938m7.187.688c2.543-1.063 4.623-2.27 4.623-2.684 0-.745-9.284 2.79-10.487 3.992-1.163 1.164 1.222.631 5.864-1.308m24.957-16.49c2.016-1.876 3.666-4.248 3.666-5.272 0-2.732-1.327-1.767-8.692 6.315-5.414 5.94-5.902 6.833-2.64 4.827 2.2-1.353 5.65-3.994 7.666-5.87m4.98-11.99c-.019-1.943-.2-1.978-1.314-.255-1.687 2.612-1.687 4.377 0 3.334.734-.454 1.325-1.839 1.313-3.079m4.93.829c-.425-1.064-.74-.748-.805.805-.058 1.406.257 2.193.7 1.75s.49-1.593.106-2.555m-94.244-46.64c3.3-1.88 8.1-3.81 10.667-4.289s7.667-2.795 11.333-5.146c6.01-3.854 6.351-4.323 3.466-4.761-6.423-.975-32.132 8.36-32.132 11.667 0 .66-2.1 3.183-4.667 5.604-2.567 2.42-4.667 5.434-4.667 6.696s-.6 2.665-1.333 3.119c-.733.453-1.333 1.407-1.333 2.12s2.85-1.603 6.333-5.148 9.033-7.984 12.333-9.863m-10 12.223c1.328-1.467 2.114-2.667 1.747-2.667s-1.753 1.2-3.08 2.667-2.113 2.667-1.747 2.667c.367 0 1.753-1.2 3.08-2.667m99.334-4c0-.733-.636-1.333-1.412-1.333-.777 0-1.041.6-.588 1.333s1.088 1.333 1.412 1.333.588-.6.588-1.333m-89.62-3.333c2.698-1.834 4.434-3.334 3.859-3.334s-3.255 1.5-5.953 3.334c-2.698 1.833-4.434 3.333-3.858 3.333s3.254-1.5 5.952-3.333" style="fill:#000;stroke-width:1.33333" transform="matrix(2.1261 0 0 1.61029 -1804.947 -184.933)"/><path d="M57.452 96.754c-12.039-7.719-18.185-13.082-24.429-21.316-5.618-7.41-6.622-13.086-4.301-24.323 2.157-10.442 4.322-12.836 21.014-23.233l5.818-3.624 9.143.353c10.088.388 14.454-.43 14.454-2.709 0-2.179-1.951-3.116-7.283-3.497-5.826-.417-5.816-.918.088-4.131 3.36-1.828 4.25-1.995 9.02-1.689 4.928.316 5.962.707 14.991 5.659 13.135 7.203 22.43 12.625 24.45 14.262 2.185 1.77 7.416 14.72 7.372 18.25-.018 1.493-.63 6.727-1.362 11.631-2.306 15.475-6.989 22.205-19.646 28.234-3.81 1.815-8.537 4.454-10.505 5.866-5.988 4.296-7.183 4.565-20.241 4.565h-11.88Z" style="fill:maroon;stroke-width:.726447" transform="matrix(2.1261 0 0 1.61029 343.649 413.435)"/><path d="M79.831 114.341c-.68-.123-1.539-.422-1.909-.665l-.673-.44.771-.69c.434-.387 2.114-1.177 3.836-1.803 10.214-3.715 24.71-10.7 27.72-13.358.978-.864 2.811-2.053 4.544-2.95 3.754-1.94 7.623-4.462 12.343-8.045 2.084-1.582 3.789-2.803 3.789-2.714 0 .477-4.774 6.638-6.461 8.34-2.424 2.442-4.602 3.927-10.156 6.924-5.002 2.699-9.813 5.852-12.92 8.468-1.2 1.01-2.934 2.47-3.852 3.241-2.2 1.848-4.26 2.822-6.935 3.278-2.774.472-8.484.707-10.097.414M24.691 38.577c0-.136.51-.821 1.131-1.521.623-.701 1.2-1.63 1.285-2.064l.299-1.547c.258-1.34 2.015-3.691 5.367-7.185 2.04-2.127 3.46-3.838 3.775-4.549.613-1.386 1.984-2.435 5.351-4.093 5.083-2.503 11.566-4.842 18.236-6.58 3.32-.865 4.429-1.043 6.678-1.072 1.483-.019 2.914.054 3.18.163.476.194.476.21 0 .738-.854.954-6.56 4.59-9.396 5.987-1.512.746-3.766 1.668-5.009 2.049-7.625 2.339-10.368 3.487-14.002 5.858-3.119 2.034-7.07 5.286-10.858 8.935-3.26 3.141-5.536 5.13-5.87 5.13-.092 0-.167-.112-.167-.249M118.652 87.426c.926-1.3 8.649-9.669 10.067-10.91 1.691-1.478 2.303-1.577 2.303-.37 0 1.605-1.937 4.088-5.522 7.076-2.296 1.914-6.637 4.917-7.108 4.917-.136 0-.018-.32.26-.713M96.756 99.662c.41-.664 8.755-4.093 9.897-4.067 1.082.025-3.297 2.233-7.067 3.564-2.4.847-3.122.975-2.83.503M130.141 72.758c-.207-.336.349-1.78 1.247-3.24l.79-1.284.084.881c.13 1.374-.19 2.586-.86 3.257-.646.646-1.028.763-1.26.386" style="fill:maroon;stroke-width:.256838" transform="matrix(2.1261 0 0 1.61029 343.649 413.435)"/><path d="M130.371 72.022c.096-.389.51-1.284.921-1.99l.746-1.285.005 1.156c.005 1.299-.767 2.825-1.43 2.825-.326 0-.379-.154-.242-.706zM131.174 32.643c-.743-.884-.848-1.469-.3-1.679.716-.275 1.432.379 1.432 1.306 0 1.197-.343 1.31-1.132.373M38.175 30.976c2.12-1.76 7.983-5.443 8.246-5.18.246.246-5.357 4.178-7.542 5.293-1.404.717-1.654.676-.704-.113" style="fill:maroon;stroke-width:.256838" transform="matrix(2.1261 0 0 1.61029 343.649 413.435)"/><path d="M45.245 340.037c-2.1-1.1-3.261-2.761-3.261-4.667 0-.71-.4-1.64-1.072-2.484-.652-.82-1.143-1.942-1.255-2.865-.101-.834-.28-2.382-.396-3.44-.117-1.059-.527-2.53-.911-3.27-.391-.752-.865-2.785-1.075-4.614-.556-4.836-1.044-33.388-1.474-86.265-.376-46.177-.827-74.396-1.304-81.493l-.24-3.58-1.211.196c-2.67.433-7.843 5.057-8.51 7.605-.22.847-.538 2.03-.705 2.63-.166.599-1.197 3.132-2.29 5.63-1.093 2.496-3.175 7.972-4.626 12.167C12.443 188.511 8.65 197.2 7.479 197.2c-1.347 0-.873-12.014 1.276-32.327.497-4.694 1.472-14.502 2.167-21.793 1.45-15.197 1.956-19.27 3.437-27.605.586-3.296 1.658-9.834 2.384-14.53 1.885-12.202 3.375-18.757 4.597-20.23.554-.667 1.398.14 5.018 4.794 2.688 3.455 14.303 15.271 20.53 20.886 4.846 4.37 8.602 7.238 10.907 8.33 5.966 2.825 17.077 5.475 22.918 5.466 6.878-.01 10.31-1.431 18.176-7.528 5.905-4.577 8.67-6.388 12.588-8.248 4.367-2.072 9.109-5.449 13.252-9.436 4.156-4.001 6.535-6.925 11.695-14.374 1.868-2.697 4.43-6.277 5.692-7.955l2.297-3.052.008 11.043c.007 10.284.058 11.153.74 12.656 1.155 2.546 1.898 10.012 2.334 23.45.462 14.233 1.412 26.368 2.573 32.87.62 3.475.954 4.686 2.153 7.81.91 2.37 1.13 3.724 1.605 9.856.26 3.352.476 4.32 1.26 5.659 1.683 2.87 1.61 6.922-.166 9.325-.6.81-.812 2.051-1.215 7.084-.42 5.24-.6 6.253-1.282 7.174-.675.914-.758 1.36-.553 2.996.21 1.682.105 2.19-.843 4.068-.595 1.18-1.433 3.325-1.862 4.766-.842 2.83-1.261 3.393-1.777 2.385-.612-1.196-.824-3.156-1.172-10.816-.343-7.548-.507-8.76-1.576-11.66-.723-1.96-1.313-10.017-1.315-17.942-.002-7.06-.578-18.71-1.078-21.794-.927-5.72-3.397-18.096-3.769-18.883-.595-1.259-1.433-1.306-3.679-.208-3.245 1.588-9.333 7.515-12.34 12.014-1.876 2.806-2.137 4.258-1.62 9.011l.443 4.06-.966 2.032c-.922 1.941-.965 2.299-.965 7.92 0 3.237.262 10.985.582 17.217.917 17.827-.081 35.403-2.455 43.219-.694 2.284-.749 3.092-.554 8.207.13 3.412.508 7.106.95 9.272.73 3.587.73 3.605.016 5.219-.404.914-2.022 2.96-3.714 4.698-6.373 6.544-8.427 6.088-13.672-3.037-2.757-4.796-5.493-8.737-7.113-10.246-1.058-.984-1.175-1.93-.328-2.633.932-.774.41-4.453-1.488-10.495-2.389-7.602-2.593-9.006-2.083-14.29.235-2.429.53-9.565.656-15.858.335-16.688-.697-57.433-1.52-60.026-.596-1.878-5.826-2.54-8.246-1.044-2.77 1.712-6.653 7.017-8.29 11.324-.395 1.04-.881 3.22-1.08 4.843-.228 1.875-.617 3.306-1.066 3.925-1.13 1.56-1.428 3.707-1.438 10.358-.005 3.436-.247 8.094-.538 10.352-.552 4.285-1.112 15.677-1.47 29.894-.5 19.847-1.251 35.701-2.38 50.228a3034 3034 0 0 0-1.443 19.614c-.863 12.354-1.26 15.98-2.177 19.874-.855 3.632-1.33 9.306-1.81 21.612-.52 13.393-1.037 17.78-2.4 20.42-1.892 3.66-7.033 5.018-11.045 2.917" style="fill:#d40000;stroke-width:.363224" transform="matrix(2.1261 0 0 1.61029 343.649 413.435)"/></svg>