<svg xmlns="http://www.w3.org/2000/svg" width="1006.157" height="1404.105"><g transform="translate(-92.612 -158.443)"><path d="M826.076 1562.548c-21.935-28.118-75.99-19.463-110.714-12.026-48.25 11.436-93.565-21.02-142.281-13.406-55.182 4.144-109.096-13.912-161.741 8.54-24.136-12.338-75.91 11.832-81.9-10.191 42.118-13.477 57.984-71.045 71.025-111.213-7.868 53.896 44.386-42.166 5.23-3.633-42.958 2.33-78.709-28.435-97.47 19.762-18.236-5.904-64.498 24.97-41.285 24.202 20.534-21.119-2.708 24.95-14.2 12.994-12.863-3.695-13.147 43.965-29.165 7.39-27.68 4.778-55.771-19.223-48.12-18.885-8.432 28.866-35.08-84.887-39.829-15.385-22.517-9.29 2.568-109.812-18.816-132.552-4.722 2.28 16.022-48.078-11.426-65.997-31.67-37.555 1.377-72.488 35.908-82.667-23.122-59.401-34.393-110.227-41.46-172.828 15.66-33.488 34.38-60.206 9.975-96.955 21.238-44.156-6.2-86.62 4.446-128.492-2.22-46.382 7.475-96.635.752-146.69-4.061-43.107 10.86-94.15 38.212-126.85-.695-56.596 46.374-93.284 80.322-132.025 15.372-47.574 64.229-64.457 105.316-83.658 24.02-61.496 91.288-17.629 123.742-66.436 44.974-.422 104.446 42.64 133.386-19.91 42.832-3.3 87.286 1.776 120.03-34.816 28.77 7.233 51.61 41.675 74.77 3.525 62.122-31.855 24.066 76.949 90.285 48.123 65.427-12.215 8.194 79.673 60.639 56.033 38.022-14.527 53.114 19.294 46.484 38.478 49.106-24.028 33.122 48.69 70.118 26.792 33.329 21.685 13.526 65.958 18.788 96.497-20.867 43.79-4.288 96.906 5.576 140.95-18.354 22.362 8.711 51.935.137 79.9 19.14 30.606 3.87 65.186 10.627 99.503 7.26 53.306 5.824 108.253 3.176 162.937-7.745 39.783-10.827 80.87-4.891 121.16-.854 50.415 3.002 92.31-21.67 135.628.882 42.296-19.01 83.933-20.896 127.035-8.162 34.682-17.087 76.177-39.67 102.337-27.604 17.44-49.547 38.22-83.106 51.545-41.968-20.518-70.3-59.488-107.502-87.571-19.114-22.24-27.557-50.125-25.03-3.31-6.575 62.382-10.281 141.253 44.604 184.714-25.177 8.279 13.779 13.992-12.376 17.451m-123.468-15.289c40.672-9.643 69.563-18.289 106.928-5.746-6.392-34.534-39.745-103.362-24.272-155.394 2.979-28.978 11.706-124.921-32.812-60.7-17.112 47.8-57.958 75.615-102.812 82.2-18.812 25.91-34.741-23.162-48.486 10.575-35.451-16.334-74.52-25.193-104.907-59.024-29.504-32.087-58.864-23.634-57.175 22.23-25.512 53.338-52.875 107.624-94.705 151.219-12.198 24.558 50.759-21.692 64.054 7.429 30.825-12.395 77.53-12.235 114.195-11.23 46.333 7.572 94.617-4.337 139.672 13.483 14.903-3.949 25.447 12.69 40.32 4.958m-467.298-65.14c-5.49-12.589-3.747 9.66 0 0m-29.66-4.959c-21.094-37.174-42.322-24.436 0 0m29.59-6.097c26.215-30.494-15.994 17.992 17.908-7.262 20.186-33.51 70.883-20.062 73.075-59.849 41.56-11.657 48.752 27.673 94.789 1.106 7.828-33.062 49.41-80.893-4.702-93.924-50.49-17.507-94.409-57.849-117.925-90.764-1.131-27.19-16.995-65.91-19.375-99.752-9.133-53.032-18.054-105.908-13.2-159.892 19.762-23.85-4.939-57.901-6.347-18.857-38.339 1.928-32.461-91.315-44.057-127.086-1.969-46.93-21.51-100.045-11.38-144.22 16.832-6.54 20.632 64.214 15.746 9.056-10.898-71.828 42.273 72.158 6.259 30.208 12.727 30.729 10.242 48.344 32.654 44.458 19.333 40.207 15.435 32.195 19.625-3.495 9.023-36.888 5.049-94.552 24.636-112.3 12.808-10.017 8.74-40.546 26.78-35.642.993 3.137 10.715-45.533 14.664-7.229-2.36-17.523 16.135-60.824 32.233-29.067.184-33.146 18.648-8.757 28.405-35.342 15.867 24.068 24.044-26.19 42.387 8.762 19.625-37.179 64.187 22.99 82.92 41.985 13.57 16.693-1.166-61.355 16.39-16.283 11.658 26.04 12.938 77.344 42.96 46.193 14.396 20.87.628-63.325 29.273-72.859 14.575-21.028 28.663-43.37 28.702-23.468 4.014-41.269 6.568 7.323 19.713-24.921-1.552 64.855 26.632-52.308 27.53 16.342 17.173-14.329 17.342 2.909 27.205 20.639-1.53-49.077 26.447 11.495 37.277-20.981 10.419 31.68 32.026 42.391 36.261 9.328 25.812 11.24 38.228 66.36 63.484 83.657 11.734 18.076 13.187 57.804 24.19 26.522 4.316 32.354 21.36 97.078 45.807 87.267-4.11-20.59 11.838-102.1 14.112-46.853-6.014 27.691-5.782 98.08 10.355 33.928.844-25.984 14.307-124.726 22.357-47.62 6.407 74.358-6.863 149.084 2.256 223.489-3.806 53.256 9.76 123.084-35.487 161.282 22.288 49.712-27.557 93.756-53.756 133.628-27.9 46.57-78.067 80.115-97.665 126.908 10.563 37.405 38.039 20.475 21.01 46.631 29.809 11.067 49.891 62.665 87.868 77.083 22.876 36.31 53.772 19.64 72.153-6.25 50.091-4.252 56.29-68.541 70.763-109.693-4.345-44.836 26.742-84.753 18.384-129.798 21.452-28.56 15.927-63.06 24.89-94.545-7.464-41.154.947-86.386-4.238-129.748 15.816-51.51 8.279-109.742 8.7-163.11-13.376-45.571 7.248-95.628-15.207-138.313 8.816-29.228-21.258-57.84 2.523-81.718-28.095-31.366-5.484-85.853-18.732-110.608-49.354 22.027 15.962.984-1.604-28.967 15.886 40.771 17.324-34.984 2.96-19.105 34.613-32.45-8.555-104.06-39.363-52.956 38.901-40.843-68.284-60.54-44.162-43.31 27.91-48.362-44.74-47.338-70.926-30.651 31.566-57.36-26.385-74.742-73.431-65.978 8.257-56.169-43.845-65.34-73.12-26.52-34.965-31.421-66.192-21.167-97.182 9.109-50.41-13.94-76.968 12.557-114.092 37.388-44.285 2.06-89.756-41.27-121.402 10.944-55.38-17.728-79.678 38.227-123.348 53.17-14.155 21.117 10.912 38.46-26.112 15.74-38.093 15.17-33.428 65.473-75.84 82.684-36.055 49.943-53.956 103.806-72.436 161.485-21.857 46.66 8.3 94.484-10.416 139.966 14.844 48.214-15.741 96.265 10.177 146.759-34.702 46.06 27.682 97.152-21.367 135.959 3.813 55.218 10.367 103.857 32.184 153.489 37.912 53.48-80.158 44.48-31.83 103.318 26.702 38.175 26.334 81.086 38.67 121.496 27.418 31.163 42.562 109.187 88.466 108.957m-69.147-90.194c3.626-45.382-.755-91.11 8.943-138.75-.333-33.21 29.352-44.182 24.154-77.89 24.274 47.057-38.65 56.086-18.645 106.51-17.07 32.424 9.68 92.222-14.452 110.13m120.217-14.943c13.286-39.249 115.732-3.147 46.823-13.522-16.567-6.947-35.115 9.735-46.823 13.522m641.549-35.227c18.737-23.777 5.599-78.913 58.812-53.385-2.925-22.304 12.359-98.704 8.641-36.195 8.964 35.5-17.324 54.709-49.079 39.25-3.27 15.354 6.714 50.663-18.374 50.33m-690.55-33.57c-1.795-26.776 91.088-31.827 31.5-16.995-19.003-6.11-24.66 18.705-31.5 16.994m754-152.168c4.014-1.088 49.029-57.52 14.942-6.867l-8.462 6.489zm-818.261-90.592c-18.398-45.729-10.831-94.82 8.508-127.882-2.05-46.996 23.455 29.343-12.49 26.182-7.5 35.987 13.848 82.954 9.435 110.95zm823.869 1.668c-9.22-49.476 51.624 19.466 31.54-40.52-16.054-39.113 30.027-40.97 38.429-23.148-28.897-1.872-38.02-5.574-31.63 33.535 11.023 36.605-18.87 25.302-31.947 19.122.968 3.133-1.318 15.941-6.392 11.011m17.144-199.821c-26.067-21.527-37.185-70.233-5.479-20.1 32.08 43.528-18.317-104.22 10.553-55.4 11.405 35.115 45.994 53.2 24.425.617-29.975-43.509 14.238-77.106 18.602-80.04-52.644 28.467 8.186 82.152-10.454 121.596-21.923 2.833-37.242-38.405-25.359 11.367 2.005 8.038 3.82 43.072-12.288 21.96M209.467 625.619c.876-4.507.876 4.507 0 0m-41.704-1.431c-15.444-38.826-21.23-103.003 29.776-107.435-4.413-40.63 18.365-69.302 59.274-57.526-7.08-58.826 57.691-73.572 86.155-49.459-53.99-16.086-74.46 2.988-86.965 54.272-34.725-1.025-57.05 4.146-51.72 47.602-20.105 22.444-55.08 25.837-38.508 69.83-7.02 10.544 20.867 46.836 1.988 42.716m720.504-61.819c-14.884-46.005 13.29-96.501 49.388-37.923 21.311 17.553 4.058-112.866 17.749-42.114 6.446 36.169-10.399 81.528-39.914 31.533-44.204-45.297-5.98 47.126-27.223 48.504m-558.258-58.706c-18.2-13.647 66.677 8.384 51.844-38.888 45.33-.752 83.977-17.064 95.754-67.986 55.184-26.471-15.786 5.174-13.108 35.152-20.285 55.03-86.795 10.617-97.28 67.918-10.628 7.383-25.153 3.307-37.21 3.804m679.858-42.17c-22.586-50.37-57.393 11.628-87.715-26.328-20.924 27.395-66.362-24-71.388 16.954 7.143-59.514 57.65 12.064 79.038-23.5 23.73 21.856 37.61 12.037 62.12 3.44 13.107.643 50.976 62.396 17.945 29.434m-318.67-65.877c-18.75-21.626-76.298.791-33.287-20.682 16.725 14.94 72.794 17.39 71.42 11.978-9.518 11.168-25.26 9.728-38.133 8.704M304.31 333.24c3.379-4.056 4.728-2.761 0 0m585-8.28c-37.73-10.69-100.946-10.076-84.077-11.624 37.84-18.41 90.279 15.756 89.428 12.31zM508.178 314c13.92-39.587 49.604-29.848 75.376-29.881 11.95-52.318 56.11 17.35 84.307-21.132 29.494 11.895 94.59-32.184 99.139 2.454-44.393-17.662-97.167 11.867-142.627 15.229-34.097-37.892-38.89 37.235-78.053 6.556-15.453-10.919-33.219 32.82-38.142 26.774M249.726 1472.976c2.357-10.383-17.7 5.265 0 0m-75.496-29.11c-19.003-17.73-51.408-117.892-41.744-43.65-9.143 32.677 30.133 21.828 38.664 46.243zm4.128-10.677c-11.969-15.362 10.312 17.402 0 0m-9.515-17.49c-15.304-29.508-30.447-42.893-5.516-5.58-6.096-1.457 15.943 23.463 5.516 5.58m444.295-13.793c31.144 8.533 81.25-2.398 105.719-32.362 30.977-21.239 22.28-43.535-4.247-9.445-13.465 20.605-97.133 54.132-37.552 25.27 49.488-26.216 75.882-75.528 111.73-112.767 32.9-28.196 62.466-59.584 88.929-95.837 38.723-47.197 84.047-101.567 45.385-164.997-10.998-27.778-17.61-98.362-31.4-95.149-9.415-27.943-72.099 33.97-53.686 1.632 6.346 10.618 31.82 8.398-3.211 13.586-24.288 17.204-34.321 31.917-57.51 29.791-25.086 2.424-55.343 11.53-75.464 10.95 1.007 43.883 70.74 44.9 82.479 85.891 23.11 33.733 30.374 73.136 15.733 111.892-19.498 35.932-51.939 70.23-91.084 85.759-18.44 3.743-68.456 24.892-82.605 9.667-28.612 2.086-59.819-11.895-95.38 1.234-44.44-17.3-33.515 28.03-73.539-12.927-28.522-23.98-45.466-51.838-45.15-90.896-10.775-56.793 27.588-96.008 47.666-143.732-7.525-27.183-36.372-59.28-67.323-52.783-18.618 6.318-37.918-3.9-56.959-9.064-15.589 6.768-24.503-14.16-33.545 2.383 13.107-42.642-36.035-60.774-23.959-7.302-13.207 53.2-.84 107.342 8.12 160.45 7.452 50.205 23.124 103.317 51.86 143.434 40.785 33.698 97.86 47.945 136.39 81.033 38.683 17.436 66.484 56.906 104.987 60.566 13.409-5.741 22.65 27.534 33.616 3.723m-94.828-123.183c8.929-16.578 7.882 2.502 0 0M375.65 1237.68c-17.219-10.652-21.451-11.362-12.937-28.058-1.417-28.456 40.577 35.345 12.937 28.058m406.659-5.182c16.47-24.955 7.47 2.035 0 0m-468.688-109.666c7.462-36.742-37.89 2.765-17.812-33.402.887 41.073 21.517-32.002 20.5 14.29-.419 22.87 25.043-9.92-.827 19.883zm26.688-61.147c-55.713-18.27 41.01-5.42 0 0m471.267-34.378c-29.97-21.253-7.97-70.26-2.36-11.054 29.757 25.535 10.767-75.188 37.21-22.77 17.197 14.475 13.556-55.316 17.066-4.888-7.903 31.276-37.38-6.464-39.99 35.273l-6.44 4.409zm-42.01 278.215c32.505-23.72-19.522-3.387 0 0zm20.017-23.792c38.171-30.896 19.3-31.799-3.455.638l1.12 2.113zm-146.16-14.981c25.23-15.746 56.171-6.211 70.866-18.095 35.935-19.365 63.572-48.356 75.496-88.007 20.743-52.001-30.69-76.96-39.99-125.885-13.166-36.683-56.371 11.636-38.787-21.483-25.9-3.939 16.229 81.696-26.605 61.526-29.071-24.73-41.512-30.143-55.855 8.583-18.394 29.068-46.056 37.255-59.371-3.3-9.108-49.953-67.196 54.764-71.188-15.646-5.44-54.427-61.223-11.19-53.993 32.753.682 20.737-28.025 82.737-17.129 25.956 11.772-75.976-15.525 20.358-7.493 46.636.438 48.381 9.394-31.453 11.818 21.331.313 35.335 22.182 45.157 45.996 69.5 9.575 9.406-12.033-32.051 17.266-4.676 29.925-1.4 62.664 5.21 93.346-3.5 20.75 8.232 37.728 5.41 55.624 14.307m-79.605-17.385c-51.612-.917-117.72-33.597-123.51-86.283 16.256-38.543 68.874-33.018 80.633-68.118-6.249 45.909 71.12-7.64 78.535 50.692 21.954-28.381 69.757-30.05 82.333-59.729 27.153 21.87 138.123 7.29 90.92 77.362-43.63 67.856-132.307 91.732-208.91 86.076m52.49-6.28c41.248 3.19 118.091-35.348 128.674-51.085-22.985 17.135-80.067 47.27-90.819 36.049-50.938 5.468-105.877 7.47-155.072-8.7-36.181-8.02 54.214 32.606 76.192 24.41 13.675.265 27.371.204 41.026-.673m-2.025-17.216c-10.168-24.842-42.42-22.904-30.466-1.46 10.217-.872 20.305 3.618 30.466 1.46m29.8-1.129c43.538.89-25.49-53.326-21.689-1.743-14.584 10.775 24.62-2.584 21.688 1.743m-81.086-1.63c8.4-33.578-34.02 10.168 0 0m-19.688-1.017c-15.333-23.899-17.606-147.512-35.603-63.679-10.436 34.704-12.708 69.776 35.603 63.68m134.782-.124c52.872-8.21-21.063-40.655-6.823 1.65zm-97.006-11.674c14.427-40.561 39.994 37.562 51.78-12.154 22.744-25.588 36.793 56.414 41.374-3.284 17.854-10.238 34.81 19.462 21.07-20.142-16.994-27.776-34.601-52.777-36.175-1.41-18.468-2.854-24.803-54.385-21.447-.686-3.76 42.447-57.27-47.57-52.04 10.17-23.024 3.343-28.313-63.715-34.596-7.519-28.299-19.335-3.634 61.063 9.225 24.842 7.732 3.047 14.335 33.627 20.809 10.183m133.724-2.76c73.405-19.61-9.543-66.62-29.5-101.036 14.045 28.496 13.677 83.985 29.5 101.035m-221.5-1.732c-3.394-53.886-49.668-13.424 0 0m261.944-23.558c-6.43 5.645-4.779 7.26 0 0m-282.833-3.577c39.36 5.893 23.457-18.769-3.34-23.768-10.902-1.47-4.96 36.407 3.34 23.768m159.124-32.049c-10.975-19.216-49.48 28.096-2.666 30.438 3.006-9.736.627-20.436 2.666-30.438m131.346 20.75c-9.088-39.376-19.753 22.849 0 0m-179.223 4.5c10.73-44.97-41.428-17.25 0 0m-127.897-4.658c-13.868-15.981-2.39 16.312 0 0m92.468-5.305c17.69-46.967-43.365-8.488 0 0m109.614-5.905c5.391-66.886-23.215 21.116 0 0m86.525 2.032c-6.084-29.039 33.012.231 10.932-27.95-9.046-3.108-66.384-25.77-29.5 11.022 4.292-1.134 22.4 37.504 18.568 16.928m-237.542-12.166c-6.978 5.004-5.033 20.05 0 0m-8.308 5.002c25.644-33.453-43.534 14.728 0 0m273.048 1.5c17.955-43.45-22.355-1.572 0 0m-309.798-2.802c29.487-.115 75.387-41.128 22.935-19.835-5.028-4.683-40.478 25.283-22.935 19.835m228.068.302c-1.67-35.586-30.068-19.009 0 0m-75.846-5.8c17.629-11.817 88.956-17.477 56.979-37.266-10.577-2.45-94.745 50.99-56.98 37.266m-23.963 1.8c-4.09-48.675-105.906-16.438-33.897-9.58 10.95 3.651 24.263 6.311 33.897 9.58m178.613-25.805c-19.4-26.533-112.283-9.243-39.47-7.4 13.146-.68 29.26 5.73 39.47 7.4m-101.611 139.95c-3.96-2.1-.935 2.254 0 0m167.84-21.545c41.544-35.122-25.766 5.238 0 0m-83.378-9.1c8.494-17.033-24.358 24.658 0 0m26.559-28.073c9.774-22.135-14.13 11.525 0 0m109.377-31.427c3.249-4.97-5.688 6.314 0 0m-85.127-27.846c-3.302-6.043-4.453 11.265 0 0m127.194-30.904c-2.32-3.048-9.56 15.405 0 0m-322.972-17.5c25.875-1.203 25.804-83.073 54.25-57.227 34 57.483 41.122-23.875 25.773-51.17-10.817-33.548-40.036 3.494-57.082 13.417-25.252-33.861 32.135-70.045 13.527-103.823-24.094-35.121-34.508-84.465.133-115.4 23.583-15.78 63.626-51.592 54.922-52.048 31.877-37.483 48.399-33.011 93.421-59.7 25.794-8.01 54.294 27.087 76.41 51.495 29.274 13.724 22.445 46.99 42.468 69.274-6.15 16.528-37.244-36.571-35.19 12.161 10.69 47.393-44.235 6.747-40.931 51.432-40.662-17.872-38.242 55.72-68.128 16.914-21.429 20.26-16.67 18.085-33.59 3.928-14.298 52.993-27.622-48.754-52.501 6.748-20.664-39.736 19.806-67.879 15.575-111.97 21.776-3.875 3.987 67.594 21.459 16.127 4.292-24.488 13.91-69.92 24.261-18.407 21.255 28.263 37.306-89.555 43.554-20.796.989 61.806 57.957-63.658-.002-39.314-5.232-12.547-36.813 25.33-41.442 14.272-26.556 18.286-45.993 32.09-62.078 49.232 7.637 11.502-75.815 65.593-30.529 100.897 38.194 31.39-10.772 83.865-9.068 109.025 23.944-36.024 44.262-13.241 64.551-19.08 16.104 25.51 32.277-24.288 48.544-4.986 16.724-4.689 29.964-15.428 46.184-14.107 8.564 2.268 27.748-26.88 30.784-19.885 9.81-26.907 28.024 0 36.503-28.259 7.08 38.783 16.873-33.001 24.197 12.25 1.243-39.024 18.747 19.163 18.932-25.906 16.225-48.531 17.818-106.02-4.915-154.501-27.73-6.313-28.265-59.08-41.983-88.245-23.768-17.97-49.504-97.97-67.162-102.532-17.648 37.485-46.868-33.06-68.978-9.124-21.822 22.023-43.35 7.971-43.424-29.144-14.146 38.768-18.843 18.909-24.873 16.86-18.959 32.088-51.197 22.127-52.44 72.564 1.646 35.819-16.778 78.756-23.08 45.131 9.58 30.538-13.76 64.544-21.397 16.318-7.122-36.393-36.68-59.496-62.725-85.53-26.207-25.743-48.022 1.546-73.967-27.673-13.375 26.593-23.523-2.156-33.733 27.24-10.326 6.579-40.36 7.608-31.921 9.101-4.292 39.909-50.052 46.308-56.032 88.877-23.666 39.222-18.587 95.587-23.034 146.48-4.278 31.901-11.325 13.247-5.775 48.775-.738 36.644-9.629 59.436 24.448 57.662 15.113 22.555 22.569 42.935 49.938 34.647 21.949.766 66.132 11.424 79.097 8.157 24.505-5.978 15.451 37.084 34.951 12.42-10.376 35.027 40.157-11.153 23.726 29.268 25.002-17.537-.603 34.139 4.23 1.705-21.82 8.248 14.554 61.069 6.408 9.618-6.802-51.72 41.917-33.929 55.136-27.714-28.31-43.07-19.226-92.248-13.83-137.658-19.178-41.254-44.635-69.153-75.282-94.18.45-18.464-18.647-8.439-22.245-38.116-16.569 44.987-17.245-20.638-43.043 19.738-22.697-3.631-58.823 49.28-11.712 57.104-15.848-26.849-12.335-65.837 18.542-25.51 23.162 18.003 49.974 44.917 30.092-.244-4.888-58.808 46.309 22.132 48.082 43.975 22.578-34.529 14.054 51.641 18.98 69.345-25.28 5.924-30.357 65.972-56.795 25.345-9.712 66.18-46.948-52.473-70.917 4.14-3.948-26.627-25.542-51.374-44.614-19.393 1.31-29.838-13.533-81.591-34.65-49.08 12.484-17.534-5.232-82.006 29.517-56.78 20.064-29.618 42.212-57.228 62.726-67.997-19.9 40.617 44.715-57.947 55.4-21.123 17.57-22.804 11.175 15.883 25.865 7.465 30.965 25.239 54.436 70.811 69.753 108.06 21.713 19.184 27.549 60.327 23.559 79.726-20.526-23.134 18.738 41.039-.581 38.303-15.092-16.912-12.501-58.21-19.421-14.74 23.74 16.592 17.067 35.793 27.037 49.94-22.38.68 30.974 50.183-6.128 40.725-19.197 5.941-64.526-46.46-39.327 9.102-12.817 1.403 6.236 46.549-12.495 33.4-8.62-13.941 21.515 44.597-5.15 17.5-1.663 45.93 46.725 8.272 33.652-12.346 42.417-55.94 16.118 67.995 65.583 47.845zM720.56 960.882c-19.156-16.66 26.241.366 0 0m61.872 124.062c-3.644-4.577 2.714 7.378 0 0m-4.46-10.575c-1.75 1 1.623 5.507 0 0m-224.662-11.98c-4.048.01-2.558 4.08 0 0m224.007-3.757c-6.016-7.688 1.528 13.268 0 0m-323.236-6.575c-4.339 3.334-2.482 5.87 0 0m497.692-24.518c38.558-90.855 7.973-191.862 18.498-287.061 4.66-26.178-1.493-139.468-7.995-58.859-22.592 44.88-16.55 87.485-10.615 79.884-.659 29.37-25.26 8.148-19.846 52.622-13.36 44.217 29.13 6.843 19.335 56.385 6.297 37.71-52.325 43.867-23.86 85.609 5.511 16.623-4.484 90.582 24.483 71.42m-12.963-49.64c-31.12-37.106 55.857-36.33 9.282-.829l-4.666 1.336zm13.453-10.907c.589-35.736-27.51 13.672 0 0m-487.317 59.93c-4.78.747-2.264 7.732 0 0m45.564-7.503c-3.802-2.004 1.575 7.579 0 0m-38.2.2c-1.21-3.656-2.467 3.562 0 0m-4.618-12.25c-8.121-31.977-1.296 14.507 0 0m46.092-1.71c.115-18.416-8.59 11.585 0 0m-30.84-17.009c-16.787-32.97-10.935 35.909 0 0m-20.802 4.267c-6.39-2.623-1.3 10.611 0 0m104.668-2.298c-5.576-1.372.405 6.363 0 0m-107.5-15c-2.51-7.748-4.997 8.778 0 0m-28-6.878c-4.49-12.258-8.673 8.465 0 0m-54-8c7.575-20.638-32.116 1.864-.36 3.072zm15 .413c-5.406-12.75-4.484 7.294 0 0m356.59-.278c-7.166 2.213.627 2.969 0 0m170.929-3.507c-4.493-25.46.509 16.103 0 0m-283.41.046c13.585-35.027-7.473 7.819 0 0m151.272-3.956c.744-12.472-4.314 11.39 0 0m31.869-16.156c13.51-14.44-16.298 7.487 0 0m-563.75-.684c5.115-7.152-7.463 7.272 0 0m2.25-12.012c35.12-24.388-36.716-28.077-3.349-62.957 31.28-27.754-21.555-99.89-33.03-121.078-3.512 51.86 12.735 101.32 19.847 153.485 2.638 3.455 8.019 47.813 16.532 30.55m12.697-10.852c-13.513 6.391-16.13 23.674 0 0m640.305-.636c-4.914-26.583-4.144 29.298 0 0m-250.773 1.54c5.434-36.745-7.377 14.403 0 0m-378.542 1.03c3.583-5.953-7.006 5.677 0 0m156.797-6.153c23.112-25.696-54.349-31.885-13.666-7.076.314.396 14.47 23.258 13.666 7.076m33.757-8.117c27.939-26.786-48.933-5.482-3.19 5.987zm462.302 2.352c24.664-15.226.825-97.602-5.879-33.878-.113 6.513-14.395 47.597 5.88 33.878m-666.296-2.402c-2.368-33.413-23.674-48.968-7.833-5.375-.232 1.89 4.998 9.621 7.833 5.375m123.971-14.845c-4.197-21.2-31.431-3.577-7.018 7.322zm337.034-14.069c-10.863-11.687-7.35 17.767 0 0m-174.91 2.882c3.965-14.565-8.349-1.38 0 0m201.557-4.402c-9.763-1.699-7.03 12.302 0 0m-405.9-8.944c-24.064-32.497-16.222 37.383 0 0m100.832 10.189c26.187-24.688-25.11-92.535-29.823-58.3 25.628 33.214-30.635 76.864 29.823 58.3m25.745-.332c53.084 8.157-46.138-107.136-11.841-36.08 6.048 16.764-24.56 49.696 11.84 36.08m-63.326-2.305c-2.44-7.433-9.816 10.553 0 0m-9.84-5.19c-4.256-20.865 1.35-84.176-27.795-37.85-27.992 25.85 23.788 52.908 27.795 37.85m384.914 5.127c9.798-17.784-17.203 1.892 0 0m-93.074-8.503c-11.81-8.529-9.525 16.706 0 0m-281.5 3.642c-1.21-3.656-2.467 3.562 0 0m319.198-7.902c28.608 8.514 3.18-74.437 10.837-70.362-30.343 3.043-44.52 62.724-10.837 70.362m-22.698-3.476c-8.594-19.899 8.12-66.647-19.023-23.007-19.197 13.01 9.28 20.471 19.023 23.007m61.5-2.098c55.458 7.694 28.842-99.701-15.656-67.797 15.234 14.834-4.318 71.162 15.656 67.797m-414.107-5.106c8.324-27.24 34.304-49.844-3.393-27.918-46.105-3.614-18.939 21.891 3.393 27.918m473.882-4.418c18.517-27.445-16.973 14.44 0 0m-14.332-7c14.765-19.225 85.312-46.211 23.088-49.456-50.675-31.69-37.45 38.47-28.444 51.853zM409.05 811.847c-6.838-9.894-1.369 51.412-.889 6.248zm285.068 8.853c14.942-26.2 4.778-47.607-.815-5.198-5.673 14.645-19.856 26.729.815 5.198m-202.285-5.814c-3.996-11.67 2.295 19.22 0 0m375.575-.267c10.345-30.17-32.083 24.266 0 0m-533.097 1.295c27.307-13.435-26.305-.06-7.22-15.195-9.139 7.633-6.78 24.808 7.22 15.195m521-2.898c-13.149 5.352-.28 3.32 0 0m-378.053-7.099c-4.743-25.607-52.522-92.851-28.087-28.161-.533 8.27 27.7 50.2 28.087 28.161m-121.947.75c-1.751-57.932-40.17-3.547 0 0m22-4.037c28.833-1.319-47.997-61.515-17.103-8.651-1.789 14.173 8.121 14.445 17.103 8.651m488.19-.429c2.422-5.872-11.725 13.094 0 0m-462.748.511c-3.598-1.648-3.876 2.845 0 0m245.147-12.222c7.629-32.337-15.11 28.752 0 0m-225.402 5.694c46.82 10.451-71.935-74.862-28.605-16.953 1.345 21.618 11.805 17.85 28.605 16.953m302.174-5.807c23.587-41.255-3.349-33.254-7.607 7.25zm149.451-4.033c29.737-51.46-67.006-6.977-8.812-3.565l7.127 4.836zm-548.812-2.843c-3.471-1.724-1.65 4.669 0 0m336.088-6.511c8.358-15.242-11.729 16.552 0 0m78.833 2.206c24.857.313 51.832-17.012 33.827-35.239-6.235 14.922-29.254 30.723-33.827 35.24m-65.33-2.32c-7.167 2.213.626 2.968 0 0m169.078-6.507c26.752-62.697-48.742 22.91 0 0m-501.67.25c2.453-7.098-4.754 7.176 0 0m475.858-2.8c5.802-46.936-7.044-30.617-26.105-2.102-13.824 6.268 25.405 7.244 26.105 2.103m11.646-5.5c22.771-23.176-24.99-56.827-2.253-9.375 1.385 7.536-12.223 24.594 2.253 9.376m28.138.078c16.78-21.834-22.15 14.59 0 0m74.259.413c-.58-10.318-2.729 14.146 0 0m-254.903-13.892c12.075-16.793-21.433 23.374 0 0m-181.497 3.7c-2.555-3.587-2.555 3.588 0 0m203.5-4c13.653-17.72-15.982 17.871 0 0m-338.61 1.424c.633-4.778-6.357 7.21 0 0m336.172-9.673c9.926-10.26-11.575 10.232 0 0m-320.85-11.25c4.237-10.716-10.947 17.616 0 0M482.31 734.7c-1-8.193-5.525 3.076 0 0m451.662-6.332c-1.75 1 1.623 5.507 0 0m-224.662-1.4c-11.41 4.652-.682 2.69 0 0m24.297-5.35c8.018-14.26-20.316 25.003 0 0m-330.211-1.281c16.45-29.323-12.552 4.967 0 0m313.358-7.633c13.289-18.812-22.617 23.304 0 0m35.224-6.429c5.814-12.987 4.596-4.235-4.21 5.343zm70.46 4.027c-8.497-5.661 4.651 8.656 0 0M409.31 700.73c-3.38-10.354-12.264 24.478 0 0m328.656 9.14c9.806-12.488-9.513 6.616 0 0m-303.973-3.438c-1.925.434 1.432 4.384 0 0m336.826-8.113c6.2-15.21-17.1 24.63 0 0m-334.68.3c-4.126 4.874.198 7.932 0 0m314.298.25c3.734-4.565-6.735 5.434 0 0m-8-1c3.734-4.565-6.735 5.434 0 0m21.411-.292c4.031-6.166-6.892 6.321 0 0m10.962-12.958c4.72-13.66-22 22.111 0 0m2-7c-1.21-3.655-2.467 3.563 0 0" style="fill:#000"/><path d="M733.99 856.456c-57.115-13.11 25.704-115.433 8.314-39.204-4.467 11.865 16.831 46.288-8.314 39.204M764.1 837.379c-7.991-28.994-10.392-85.378 30.142-46.008 20.35 29.711 1.796 71.064-29.943 56.976zM396.038 867.389c-64.417.73 15.16-100.306 3.311-27.88-6.234 6.066 16.01 39.535-3.31 27.88M420.872 873.903c21.781-24.014-22.443-99.695 26.852-54.834 14.633 23.767 13.071 67.912-26.852 54.834" style="fill:purple;stroke-width:.89881"/><path d="M603.214 1147.347c10.988-24.526 108.87-59.048 60.563-19.535-21.246 1.333-43.231 14.313-60.563 19.535" style="fill:#d40000;stroke-width:.89881"/><path d="M765.205 1120.547c-20.62-8.785-103.574-9.992-38.624-14.68 10.56-1.413 41.498 9.678 38.624 14.68M571.511 1243.333c-28.007-2.082-75.855-11.655-83.716-28.866 50.56 22.9 109.901 19.087 163.935 14.117 14.868 10.61 68.253-18.87 93.385-35.881-46.861 40.428-112.84 54.808-173.604 50.63M587.24 1145.148c-19.582-3.608-89.259-21.246-36.85-26.171 15.556-5.528 39.138 16.704 36.85 26.17M456.913 1150.24c15.403-32.297 90.135-33.286 27.414-8.735-8.118 5.505-18.19 7.55-27.414 8.735" style="fill:#d40000;stroke-width:.449405"/><path d="M688.286 826.304c-.002-.144 1.131-2.434 2.519-5.09 2.337-4.476 2.6-5.298 3.593-11.2 1.74-10.352 4.303-18.054 6.01-18.054 2.026 0 1.47 8.316-1.075 16.088-2.287 6.981-4.809 11.736-8.15 15.37-1.591 1.73-2.895 3.029-2.897 2.886M717.494 796.193c.003-3.217 2.708-14.17 4.747-19.23 2.915-7.227 7.616-13.54 10.084-13.54 3.353 0 1.286 9.158-4.64 20.558-2.861 5.505-3.62 6.581-6.709 9.528-1.915 1.827-3.482 3.035-3.482 2.684M741.312 778.574c.37-.342 4.213-3.565 8.539-7.163 11.82-9.83 19.1-17.556 22.915-24.314l1.468-2.602 1.282 1.487c.706.818 1.842 2.6 2.527 3.959 1.05 2.085 1.244 3.034 1.244 6.067 0 4.691-1.119 7.038-5.363 11.25-6.294 6.246-17.334 10.516-30.14 11.656-2.693.24-3.049.191-2.472-.34M796.589 770.594c-3.941-.482-7.19-1.596-7.19-2.464 0-.336.619-.977 1.376-1.424.823-.485 3.525-3.883 6.72-8.451 8.812-12.603 13.852-18.36 17.048-19.474 4.276-1.49 5.666 6.29 4.074 22.79-.619 6.4-.637 6.469-1.95 7.267-2.632 1.6-13.545 2.556-20.078 1.756M829.395 773.897c-4.514-1.614-.052-11.798 9.171-20.93 3.3-3.266 7.005-5.711 8.668-5.718 1.355-.006 2.385 1.636 2.383 3.803 0 2.363-1.753 8.756-3.943 14.393-1.745 4.49-1.749 4.495-4.181 5.693-4.301 2.117-10.157 3.452-12.098 2.759M868.988 784.934c-3.09-2.177-3.489-2.329-7.08-2.693-14.494-1.469-18.976-6.132-12.011-12.497 4.703-4.299 13.582-7.7 19.936-7.635 5.005.05 7.456 1.212 9.017 4.274 1.655 3.247.866 7.92-2.535 15.016-1.935 4.037-3.097 5.842-3.76 5.842-.16 0-1.766-1.038-3.567-2.307M855.617 820.256c-.897-2.337 7.91-13.553 11.313-14.407 2.183-.548 2.434 1.238.9 6.391-.623 2.09-.99 2.512-3.944 4.546-5.33 3.668-7.796 4.703-8.27 3.47M784.164 869.036c-.531-.214-1.095-.6-1.254-.857-.541-.875 1.138-3.238 3.255-4.58 3.822-2.426 5.091-1.012 3.065 3.415-1.044 2.28-1.243 2.466-2.616 2.44-.817-.016-1.92-.204-2.45-.418M749.986 875.03c-.485-1.266.884-3.03 2.895-3.73 1.033-.36 2.01-.522 2.172-.36.401.4-1.46 3.332-2.643 4.16-1.252.878-2.07.854-2.424-.07M723.586 877.022c-.798-1.139-.94-4.903-.234-6.22.67-1.255 2.434-1.077 4.103.413 1.383 1.236 1.414 1.338.826 2.757-.776 1.873-2.596 4.05-3.387 4.05-.335 0-.923-.45-1.308-1M402.478 795.836c-4.541-1.625-7.282-6.206-7.942-13.274-.267-2.853-.5-3.367-3.653-8.06-6.187-9.21-7.685-13.715-4.987-15.001 6.856-3.269 44.978 24.173 47.38 34.105.216.894.037 1.45-.707 2.193-.938.939-1.245.979-5.32.693a556 556 0 0 0-4.997-.335c-.37-.018-4.415.101-8.988.265-7.582.271-8.531.22-10.786-.586M470.327 810.273c-6.796-4.748-18.814-22.841-20.82-31.346-.35-1.483-1.582-5.426-2.738-8.763-3.348-9.67-4.827-16.513-4.02-18.614 1.847-4.815 16.575 14.34 26.672 34.694 5.861 11.813 8.186 19.006 7.251 22.436-1.02 3.744-2.673 4.16-6.345 1.593M464.724 905.838c-8.498-2.827-11.726-6.265-9.315-9.92 4.036-6.121 21.56-9.715 22.824-4.68.402 1.601-1.113 4.514-4.019 7.725-1.321 1.46-3.04 3.919-3.82 5.463-.779 1.543-1.464 2.795-1.523 2.782-.058-.014-1.924-.63-4.147-1.37M432.875 912.443c-1.336-1.336-3.658-4.19-5.16-6.343-2.23-3.198-3.351-4.326-6.118-6.16-1.862-1.235-4.51-3.46-5.884-4.944-2.193-2.37-2.48-2.893-2.36-4.309.11-1.299.441-1.79 1.709-2.532 2.346-1.374 9.74-1.3 14.37.142 12.664 3.946 16.385 11.157 10.116 19.61-.592.798-1.107 2.314-1.263 3.718-.324 2.911-.52 3.247-1.893 3.247-.717 0-1.916-.828-3.517-2.43M379.857 890.366c-2.485-1.898-4.344-4.89-4.341-6.992.005-4.232 4.895-7.474 9.432-6.253 3.034.817 6.32 4.913 6.818 8.502.135.97-.089 1.14-2.096 1.602-2.756.633-3.863 1.217-6.045 3.189l-1.697 1.533zM337.99 871.463c-1.799-1.94-2.697-5.293-2.697-10.07 0-3.691.141-4.498 1.048-5.955 2.108-3.392 5.07-2.542 10.22 2.93l3.341 3.554-1.827 3.512c-1.427 2.744-2.141 3.638-3.26 4.086-.789.316-2.279 1.144-3.312 1.841s-2.003 1.267-2.156 1.267-.763-.524-1.357-1.165M325.804 818.39c-.522-.102-1.533-.796-2.247-1.542-1.218-1.273-1.297-1.584-1.297-5.108 0-2.063.132-3.884.294-4.046s1.232.024 2.377.413c1.248.424 4.879.86 9.053 1.088 7.48.408 8.666.788 7.133 2.287-2.103 2.057-12.844 7.492-14.139 7.154a36 36 0 0 0-1.174-.245M351.475 805.858c-10.402-2.065-16.005-9.546-13.49-18.013.846-2.85 2.297-5.015 4.238-6.323 4.911-3.31 9.501 1.528 11.482 12.1.748 3.99 1.548 12.973 1.149 12.901-.13-.023-1.651-.322-3.38-.665M364.953 805.44c-3.32-1.174-4.711-3.855-4.716-9.087-.002-2.497-.246-3.253-2.262-7.027-2.815-5.269-4.931-10.99-4.931-13.333 0-1.98 1.198-3.582 2.68-3.582 4.796 0 17.033 8.568 23.068 16.152 4.662 5.858 5.892 9.772 3.745 11.92-.943.942-3.64 2.029-5.056 2.036-.278 0-1.392.497-2.475 1.103-1.772.99-6.6 2.525-7.788 2.475-.257-.011-1.276-.306-2.265-.656" style="fill:#000;stroke-width:.449405"/><path d="M942.528 968.866c-2.323-.992-2.601-4.69-.66-8.784 1.455-3.072 4.47-6.067 6.107-6.067 2.269 0 3.818 3.921 3.838 9.715l.01 3.198-2.359.982c-2.782 1.157-5.566 1.541-6.936.956" style="fill:#ff0;stroke-width:.449405"/><path d="M569.528 1210.793c-4.584-8.012-9.102-12.535-9.987-9.999-.321.921-1.886 3.188-3.478 5.039-2.546 2.96-3.277 3.19-6.084 1.911-4.473-2.038-9.887-13.703-10.744-23.147-.982-10.835 1.551-13.274 10.062-9.685 1.739.733 2.297-.021 2.937-3.968 1.833-11.311 3.53-17.043 4.908-16.585.797.264 3.342 3.865 5.656 8.003 8.829 15.785 13.791 20.87 20.368 20.87 2.127 0 2.529-1.13 2.993-8.417.395-6.202 1.137-8.855 2.822-10.087 3.227-2.36 6.62-.797 21.53 9.923 11.139 8.007 13.313 9.087 18.427 9.147 7.946.094 9.047-2.358 9.1-20.27l.043-13.981 3.598 6.525c5.647 10.241 8.664 13.935 13.157 16.113l4.172 2.022 1.575-11.69c1.497-11.115 4.009-17.162 7.63-18.369 2.592-.864 12.09 9.05 19.595 20.451 7.14 10.847 11.24 20.801 11.24 27.284 0 2.837-.359 3.03-4.131 2.23-9.352-1.984-12.469-2.253-16.771-1.446-3.84.72-4.527 1.365-4.564 4.286-.023 1.891-1.148 5.726-2.499 8.523-1.35 2.796-2.475 6.371-2.499 7.944-.067 4.477-1.65 3.465-7.949-5.084-11.327-15.373-17.08-18.556-24.825-13.733-2.272 1.415-4.135 3.296-4.139 4.18-.004.885-1.686 2.563-3.737 3.73-2.545 1.447-4.16 3.728-5.092 7.185-1.725 6.407-3.267 6.097-14.602-2.936-15.918-12.684-20.08-12.345-27.088 2.21-2.273 4.718-4.948 8.58-5.945 8.58s-3.552-3.042-5.679-6.759M736.356 1152.725c-3.6-5.244-8.927-11.822-11.838-14.618-6.692-6.428-10.692-12.817-9.679-15.458 1.079-2.81 10.387-1.63 26.219 3.326 11.914 3.73 15.663 6.19 18.844 12.366 2.05 3.981 1.894 4.215-2.83 4.215-6.532 0-12.198 2.43-12.89 5.529-.336 1.503-.761 5.307-.946 8.453l-.335 5.72zM465.734 1176.28c-2.548-6.1-2.363-15.01.383-18.368 2.15-2.628 2.442-2.655 8.69-.789 11.02 3.293 21.963 12.866 20.14 17.618-1.11 2.892-5.011 3.842-14.766 3.597-4.674-.118-8.854.363-9.29 1.069-1.483 2.399-3.31 1.291-5.157-3.126" style="fill:#000;stroke-width:1.27111"/><path d="M492.385 1025.94c-4.737-5.245-7.82-15.427-6.319-20.868.787-2.85 2.682-5.607 4.535-6.599 1.098-.588 1.168-.32 1.063 4.098-.162 6.78 1.821 7.935 4.864 2.832l1.47-2.464.749 5.625c.977 7.339.944 15.862-.07 17.875-1.303 2.59-3.67 2.401-6.292-.5" style="fill:#000;stroke-width:.635554"/><path d="M689.48 1129.631c.601 5.526 2.64 10.752 4.54 15.935 1.257 2.68 2.08 5.58 3.486 8.183 2.654-.982 5.58-1.418 7.962-2.948.6-.385 0-1.427-.043-2.138-.323-5.26-1.76-10.448-2.852-15.583-1.59-5.81-3.566-11.585-6.355-16.942-1.6-2.788-.926-1.526-2.07-3.762-.685-1.27-.722-2.776-1.372-4.056-.22-.43-.313-1.347-.78-1.222-2.69.717-5.068 2.306-7.602 3.458.87 4.456 3.059 8.622 5.824 12.2.728.94 1.547 1.806 2.321 2.71 3.598 3.9 7.734 7.306 11.177 11.358.541.637 1.01 1.332 1.514 1.998 1.329 2.13 3.194 4.246 3.666 6.792.01.054.34 2.111.611 2.057 2.8-.558 5.711-1.19 8.12-2.722.603-.383-.352-1.389-.603-2.058-.692-1.836-1.89-3.939-2.778-5.619-2.863-4.64-5.724-9.33-9.368-13.414-1.575-1.765-2.036-2.098-3.669-3.537-2.698-2.14-4.392-3.596-8.889-.477-1.526 1.06-.056 8.832.158 10.321 1.763 8.272 3.627 16.532 5.752 24.72 1.634 4.637 1.37 4.924 9.683.512.692-.368.007-1.57-.039-2.353-.146-2.51-.438-4.334-.77-6.864-.211-1.218-.41-2.44-.633-3.655-.22-1.193-.707-4.07-1.267-5.379-.079-.184-.266-.44-.459-.387-2.812.765-6.006.962-8.293 2.768-.892.704.347 2.245.52 3.368 1.011 5.47 2.653 10.794 4.567 16.008.51 1.388 1.022 2.779 1.634 4.126.374.823.446 2.611 1.318 2.371 3.197-.88 5.7-3.392 8.55-5.087-.646-4.687-2.127-9.164-3.684-13.606-.298-.849-.438-1.772-.901-2.543-.123-.204-.015.556-.218.682-1.963 1.226-4.082 2.183-6.123 3.275 1.305 2.113 1.207 2.117 3.104 4.274 3.194 3.632 6.118 5.515 11.45 1.972 1.122-.746.725-2.597 1.087-3.895l.104-1.921c.016-.65-9.165-.875-9.181-.226l-.001 1.66c2.497-1.919.24-.455 6.794-.904.116-.01-.235-.071-.312-.158-.576-.643-1.077-1.351-1.632-2.013-2.658-3.167-1.91-2.274-5.099-5.366-2.948.456-6.12.151-8.843 1.367-.933.417-.752 1.932-.826 2.95-.084 1.161.135 2.331.358 3.473.896 4.588 2.781 8.936 4.51 13.248 3.362.073 6.81.98 10.086.218.815-.19-.162-1.668-.33-2.488-1.419-6.858-4.07-13.426-6.769-19.858-2.53-5.294-.743-3.793-10.418-2.886-.307.029-.295.56-.317.867-.103 1.41.348 4.417.527 5.567.19 1.223.432 2.437.648 3.656.393 1.77 1.011 4.612 1.463 6.438.173.7-.145 1.923.557 2.09 9.38 2.24 9.002 2.213 8.92-2.713-.102-1.077-.165-2.158-.305-3.23-.981-7.511-3.225-14.744-5.27-22.012-.376-1.16-.724-2.328-1.128-3.478-.241-.686-.096-1.87-.806-2.027-.625-.14-.424 1.433-1.038 1.616-5.879 1.753-7.816-1.277-5.602 1.558 4.113 5.15 7.455 10.843 11.5 16.045 1.107 1.384 2.126 2.84 3.297 4.17 2.105 2.39 10.13 1.294 8.842-1.608-.157-1.194-.21-2.43-.518-3.6-.666-2.528-1.886-4.809-3.3-6.995-.636-.906-1.231-1.842-1.907-2.72-3.258-4.225-7.41-7.634-11.122-11.433-1.454-1.532-2.407-2.43-3.642-4.136-1.361-1.88-2.387-3.986-3.695-5.895-.134-.196-.332-.34-.498-.51-2.595.83-5.109 1.984-7.786 2.492-.345.066-.329-.623-.524-.916-.045-.068.056.155.071.235.067.34.117.683.174 1.025.341 2.024.12.903.64 3.164 2.06 6.742 4.732 13.288 6.59 20.095 1.169 4.008 2.453 7.974 3.632 11.978.25.85.466 1.709.733 2.553.144.455.02 1.349.496 1.342 2.724-.035 5.362-.968 8.042-1.453.13.276.142.652.391.828.176.124-.084-.422-.117-.634-.058-.366-.096-.735-.156-1.1-.268-1.633-.334-1.942-.844-3.642-.236-.785-.505-1.56-.758-2.34-1.737-5.212-3.57-10.396-5.431-15.562-.166-.6-8.642 1.749-8.476 2.348zM508.177 1148.803c-.743 3.02-1.346 6.079-1.873 9.143-.142.824-.376 1.643-.374 2.479 0 .144.237.204.381.208 2.872.06 5.745-.014 8.617-.02 1.568-6.54 2.595-13.24 2.699-19.976.017-1.13.961-3.4-.169-3.386-1.581.02-2.186 2.287-3.279 3.43-2.334.117-5.286-1.235-7.004.35-1.813 1.672-.937 4.846-1.28 7.289-.528 3.777-1.364 11.945-1.309 15.938.02 1.477-.908 4.194.555 4.397 3.622.502 7.061-1.902 10.592-2.853 1.526-6.03 2.635-12.151 3.769-18.263.234-1.262 1.537-2.803.71-3.784-.649-.77-1.005 1.973-1.957 2.304-1.975.687-4.166.368-6.249.551-.131 1.952-.314 3.9-.395 5.855-.026.61-.4 9.527.193 11.273.133.394.444-.796.84-.92 2.59-.811 5.868-.067 7.932-1.828 1.246-1.063-.02-3.276-.03-4.914-.058-5.043-.587-10.09-.433-15.138.023-.755.076-1.514.214-2.256.221-1.186.23-1.084.463-.722-1.31 2.448-5.99 1.248-6.337-1.422-.12-.93-.401-2.315.41-2.786 5.118-2.97 5.176-2.391 6.981-.22-.61-.863.785 1.046.099 1.545-6.24 4.537-8.044.643-5.805 4.758.45.827.88 1.664 1.32 2.496 1.69 3.287 3.436 6.547 5.085 9.854.423.847 1.626 3.542 2.311 4.547.127.186.348.286.521.429 2.7-1.052 5.783-1.418 8.102-3.157.692-.52-.274-1.712-.49-2.55-1.55-6.056-4.255-11.76-6.535-17.56-.395-1.135-.783-2.273-1.185-3.406-1.612-4.54-1.942-5.593-9.108.365-.758.63.238 1.958.374 2.934.242 1.726.507 3.448.76 5.172 1.873 11.563 3.815 23.113 6.13 34.596 2.334 2.137 1.493 1.554 8.482-1.366.528-.22.12-1.142.088-1.713-.216-3.87-1.023-7.746-1.66-11.56-1.438-6.446-.95-13.013-11.406-5.836-1.352.929-.803 3.184-1.1 4.798-.415 2.247-.69 4.517-1.034 6.776-1.118 7.984-1.01 6.45-1.689 14.004-.096 1.066-1.296 3.06-.235 3.2 1.242.166 1.24-2.382 2.375-2.915 5.886-2.762 5.29 3.135 4.136-4.733-.752-3.345-1.377-6.864-2.707-10.057-.484-1.16-.997-2.353-1.828-3.296-3.535-4.01-5.688-3.372-10.871.205-1.035.714-.99 2.31-1.484 3.466-1.02 5.237-1.225 6.45 7.944 6.143.307-.01 1.558-3.696 1.698-4.21.029-.108-.017-.222-.026-.333-2.763-.071-5.547-.565-8.288-.211-.484.062-.427.882-.557 1.352-.423 1.518-.75 3.624-.958 5.21-.052.398-.466 1.009-.113 1.198.328.176.415-.617.623-.925-.326.501 6.77 5.107 7.096 4.605.37-.507.802-.973 1.108-1.52 1.3-2.327 1.581-5.216 1.616-7.82.013-1.02.742-2.543-.139-3.058-2.52-1.473-5.683-1.339-8.524-2.009-.803 1.309-1.111 1.514-1.277 3.182-.023.231-.001.573.213.663 3.897 1.648 7.14 5.429 8.313 2.029.19-.552.314-1.124.472-1.687.39-3.424.442.018-5.208-1.444-.567-.146-.748-2.059-.913-1.498-.232.791.453 1.587.652 2.387.375 1.51.683 3.038 1.073 4.545.467 1.806.997 3.596 1.495 5.394 1.77 5.012 2.218 9.487 9.278 10.841 1.865.358 3.49-1.715 4.767-3.122 1.035-1.14 1.47-2.734 1.89-4.215 1.348-4.751 1.45-9.807 1.814-14.676-.025-2.27.023-4.544-.076-6.813-.065-1.5.852-3.681-.416-4.486-11.676-7.414-8.69 1.218-8.037 6.344.692 3.968 1.4 7.945 2.627 11.792.327 1.026.089 2.733 1.124 3.028 8.406 2.397 7.944 1.954 9.486-1.995.102-1.113.278-2.221.306-3.339.093-3.822-.253-7.668-.753-11.45-.971-7.348-2.532-14.617-4.597-21.735-.647-1.897-1.182-3.836-1.94-5.692-.551-1.348-.571-3.522-1.979-3.893-12.399-3.268-9.524 3.405-8.04 9.88.524 1.54.992 3.1 1.573 4.619 1.665 4.353 3.797 8.485 6.018 12.573.394.726.382 2.096 1.205 2.165 2.927.245 5.806-.89 8.71-1.335.027-.332.125-.666.082-.996-.245-1.88-1.053-4.053-1.77-5.725-1.592-3.718-3.756-7.132-5.963-10.506-.277-.356-4.376-5.846-4.798-5.82-5.85.37-8.975.442-7.305 4.926 1.998 2.983 2.05 4.212 8.072 1.158 1.51-.766.64-5.083-.494-5.734-1.602-.92-3.556-1.244-5.404-1.234-.878 0-1.535.85-2.303 1.275-.573.625-1.234 1.179-1.72 1.874-4.365 6.255-3.366 16.002-2.558 23.057 1.667 6.952.447 8.612 10.793 9.791 1.143.13 1.67-1.677 2.09-2.75 1.38-3.532 1.045-9.02.71-12.448-.23-2.368-.781-4.695-1.172-7.042-2.592-2.221-4.521-5.637-7.777-6.663-1.614-.51-3.092 1.591-4.168 2.897-1.035 1.257-1.434 2.937-1.918 4.49-1.954 6.271-2.451 12.912-2.478 19.437 3.306 1.414 6.322 4.206 9.917 4.241 1.428.014.884-2.726 1.124-4.133.789-4.624 1.206-11.464 1.254-16.062.026-2.52.751-5.229-.218-7.554-1.391-3.336-4.359-5.767-6.538-8.65-1.25 1.164-2.8 2.072-3.75 3.492-.915 1.367-1.525 8.363-1.58 9.038a89 89 0 0 0 .06 15.128c2.858.937 5.613 2.279 8.574 2.811.468.084.708-.672.9-1.108.386-.881.594-1.833.803-2.772.696-3.126.997-6.352.955-9.55.077-.636-8.917-1.713-8.993-1.077zM613.788 1168.574c.338-.23.667-.907 1.015-.69.328.203.016.976-.348 1.106-1.024.367-2.209-.102-3.258.184-.22.06.062.454.144.666.673 1.73 1.043 2.148 2.066 3.826.964 1.385 2.203 2.135 3.487 3.106.317.24.54.701.935.736 2.105.185 4.313.507 6.339-.096.961-.286 1.252-1.567 1.878-2.35-1.89.448 2.944-2.631 1.924-2.445-1.67.304-3.116 1.493-4.802 1.688-.73.085-1.35-1.211-2.016-.899-.595.279-.181 1.3-.236 1.955-.064.757-.08 1.518-.121 2.277.085.893.241 3.9 1.129 4.125 2.585.653 5.346-.021 7.99-.367.343-.045.45-.526.693-.77.027-.028.146-.046.109-.036q-2.27.572-4.538 1.148c-.836-.964-1.78-1.844-2.507-2.892-1.362-1.964 4.23.072 8.321 1.182.468.127-.202 1.144-.663 1.294-.867.284-1.82.134-2.73.2.499-.172 1.337.83 1.588.35 1.313-2.516 2.79-5.238 2.7-8.075-.016-.525-6.101-1.142-6.143-1.15-1.226-.225-2.427-.573-3.64-.86-4.431-1.184-8.55-3.22-12.627-5.27-2.011-1.01-3.86-2.118-6.035-2.712-1.405 2.49-3.384 4.734-4.214 7.469-.182.597 1.129.545 1.727.724 2.519.753 4.967.458 7.288-1.497 1.755-1.478 1.252-4.21 1.116-6.086-.52-2.38-.302-2.158-.564.743.308-.53-7.182-4.884-7.49-4.355-1.24 3.977-1.4 2.384-.885 4.72.645 1.36-.282-.181 1.321-.835 1.26-.514 2.678-.49 4.021-.703.147-.023-.276.134-.424.13-.364-.01-.802-.394-1.08-.159-2.322 1.965-4.272 4.33-6.408 6.496 1.047 1.684 3.466 3.407 4.956 4.418 4.608 3.125 9.689 5.397 15.136 6.591 3.153.474 5.377 1.137 8.472.604.478-.082 1.026-.261 1.296-.664 1.613-2.411 2.715-5.132 4.235-7.602.067-.11.19.17.285.256l-1.161-.493c-1.446-.036-2.914-.357-4.339-.108-.843.147-1.57.723-2.238 1.258-.488.391-1.685 1.117-1.168 1.47 2.273 1.55 4.998 2.439 7.695 2.98.464.094.29-.992.081-1.417-.682-1.388-1.766-2.538-2.65-3.808-3.986.766-4.439-.132-6.298 1.97-.253.287-1.028.822-.663.936 2.228.693 4.764.141 6.929 1.014.65.263-.09 1.85.59 2.019.588.146.307-1.172.461-1.758.068-1.083.263-2.165.205-3.248-.132-2.46-.875-7.498-3.812-8.484-5.116-1.72-7.144 1.423-8.831 4.693 3.296-.465 7.966 2.405 4.873-.75-.446-.454-.576-.478-1.054-.702-.993-1.779-2.97-6.416-4.545-7.295-4.267-2.378-6.082-2.457-9.556-.137-.529.353-.821.97-1.232 1.456-.348.514 6.922 5.438 7.27 4.924zM646.29 1164.1c1.15 1.77 1.354 2.395 3.62 3.68 2.753 1.559 7.795 2.305 10.595.6.753-.458 1.335-1.152 2.002-1.728.38-1.337 1.06-2.623 1.14-4.011.051-.886-.322-1.78-.76-2.551-1.788-3.142-4.373-3.239-8.243-2.099-1.234.364-3.22 3.752-3.941 4.873-2.04 4.48-.768.72-.509.638 1.297-.415 2.697-.407 4.057-.468.012 0 .564.526.513.099-.03-.253-.117-.496-.176-.744.107-2.656-.164-5.35-1.196-7.825-.672-1.612-1.175-2.175-2.132-3.507-1.618-1.654-.46-.926-.811-.564-1.857 1.914-3.856 3.694-5.633 5.683-.093.104.18.215.273.318.32.354.625.72.966 1.053.575.561 1.186 1.084 1.778 1.626 1.738 1.44 3.535 3.034 5.69 3.838.774.289 1.612.896 2.395.635 2.118-.706 4.218-1.779 5.79-3.364.748-.755.427-2.083.64-3.125.276-2.683-.074 1.51-6.669 2.086-.772.067-.9-1.514-1.668-1.618-.457-.062-.236.893-.309 1.349-.357 2.24-.227 1.915.001 4.307 2.598 4.854.446 2.67 8.468 3.591.512-.35-4.435-7.578-4.946-7.228 5.69 1.727 4.76-.178 5.58 3.047-.053-1.529.482-4.395.137-5.648-.414-1.502-.362-3.908-1.875-4.282-6.634-1.642-6.801.61-7.85 3.85 1.818 1.419-.424-.155 5.303-1.312.243-.049.78.512.532.522-.324.013-2.162-1.38-2.353-1.527-.634-.488-1.246-1.003-1.869-1.505-1.263-.935-2.48-1.937-3.789-2.807-.494-.33-1.03-1.172-1.548-.881-4.718 2.65-7.723 3.237-6.004 6.36 1.768 2.615 2.01 5.568 2.342 8.637.41 1.767 1.438 5.588 3.435 6.222 4.395 1.397 5.96 1.149 8.716-1.572.509-.503.789-1.193 1.183-1.79.273-.521.669-.996.82-1.565.035-.13-.219-.167-.35-.194-1.52-.314-3.133-.272-4.583-.826-.717-.273-.435-1.186-.205-1.59.371-.65.787-1.275 1.18-1.913.25-.222.751-.332.747-.665-.003-.255-.997-.2-.755-.119.348.117 1.194-.122 1.078.227-.013.038-2.084.421-2.253.353-.412-.169-.646-.613-.968-.92-.308-.536-7.894 3.818-7.586 4.354z" style="fill:#782121"/><path d="M227.176 1469.559c-11.847-2.866-23.799-12.821-34.252-28.532-3.796-5.705-13.434-23.045-21.418-38.533s-16.66-31.08-19.28-34.651c-5.796-7.895-6.63-10.584-14.028-45.256-3.222-15.099-7.29-32.414-9.038-38.478-3.987-13.824-13.94-34.86-21.517-45.48-10.818-15.16-12.894-23.138-8.33-32.01 3.265-6.348 7.17-9.749 23.632-20.576 16.605-10.922 19.184-13.155 22.368-19.363 4.005-7.81 3.194-14.702-3.221-27.403-3.102-6.14-8.487-19.73-11.968-30.199-10.27-30.892-15.702-59.056-19.892-103.139l-1.992-20.963 6.927-7.482c13.689-14.785 15.544-29.072 8.251-63.547-6.636-31.37-5.775-46.374 3.512-61.2l2.935-4.686-2.548-5.761c-7.635-17.26-9.773-37.639-6.88-65.584 3.353-32.396 3.809-53.781 1.4-65.672-1.88-9.273-1.892-10.779-.131-15.77 4.373-12.394 5.082-27.285 2.635-55.347-2.54-29.137-2.788-49.255-.723-58.543 2.428-10.916 25.561-77.144 28.053-80.312 1.329-1.69 2.416-4.66 2.416-6.6 0-8.204 23.433-56.662 38.9-80.445 6.898-10.605 9.698-13.814 13.795-15.807 11.958-5.815 23.337-18.452 33.374-37.064 13-24.106 22.18-35.684 32.44-40.918l4.845-2.472 8.804 5.23c11.855 7.043 13.349 6.61 13.494-3.907.16-11.543 2.925-16.882 10.177-19.652 7.38-2.818 24.9-14.175 32.703-21.2 10.164-9.149 28.635-22.4 36.266-26.016 14.487-6.865 28.523-8.567 41.948-5.084l6.722 1.743 3.32-5.018c1.968-2.973 5.733-6.24 9.238-8.016 3.254-1.649 8.726-5.173 12.16-7.83 6.137-4.75 6.431-4.832 17.049-4.756 8.715.062 14.982 1.212 32.413 5.944 38.306 10.4 44.04 10.799 54.13 3.758 3.786-2.642 9.567-5.823 12.847-7.068s9.56-5.473 13.956-9.395c18.169-16.212 43.984-22.629 72.254-17.96l8.77 1.449 6.826-6.216c4.232-3.852 12.568-9.082 21.93-13.758 14.518-7.25 15.478-7.54 24.69-7.48 13.727.089 21.647 3.437 41.362 17.485 1.189.847 2.648.03 5.059-2.836 2.018-2.398 5.468-4.586 8.53-5.411 3.054-.822 7.658-3.739 11.342-7.184 5.888-5.508 6.647-5.832 15.065-6.435 7.822-.56 9.7-.224 15.986 2.85 12.375 6.055 18.375 17.864 18.379 36.17l.003 9.62 22.18.34c17.725.272 23.8.84 30.237 2.828 8.587 2.652 18.145 8.707 22.516 14.265 8.686 11.042 8.475 27.982-.566 45.465-2.092 4.046-2.086 4.166.178 3.168 1.294-.57 7.215-2.75 13.158-4.841 9.468-3.334 12.61-3.818 25.422-3.915 17.453-.132 23.863 1.521 30.728 7.925 3.805 3.55 5.19 5.954 5.725 9.934.79 5.901-1.513 14.444-3.896 14.444-.861 0-2.654.796-3.985 1.77-2.055 1.502-2.164 2.076-.723 3.813 2.336 2.813 3.746 2.563 5.345-.948 1.266-2.777 1.788-2.912 7.282-1.894 16.961 3.142 34.387 12.335 39.71 20.948 4.104 6.64 3.683 13.369-1.277 20.405-5.743 8.148-4.093 8.086 2.908-.11 10.633-12.445 21.458-13.69 31.83-3.663 2.733 2.642 6.73 8.521 8.884 13.066 3.437 7.253 3.91 9.582 3.871 19.066-.049 11.956-3.2 21.408-8.928 26.79-3.666 3.445-4.045 5.597-.666 3.788 3.389-1.813 5.052.636 6.508 9.582 1.227 7.536.577 15.838-1.566 20.006-1.13 2.199-1.332 2.208-3.591.164-1.316-1.192-3.044-4.137-3.839-6.547-2.067-6.263-2.837-4.373-1.007 2.47 2.32 8.671-.72 15.406-11.34 25.139-8.8 8.062-8.034 8.369 4.74 1.896l6.454-3.27 1.505 3.526c.977 2.287 1.788 16.709 2.31 41.025.885 41.308 1.924 47.514 9.975 59.562l3.702 5.54-3.044 4.486c-6.725 9.911-6.944 19.695-.95 42.605 2.48 9.476 3.451 16.465 3.576 25.722.135 9.939.783 14.179 2.972 19.44 5.362 12.882 6.605 25.598 6.655 68.115.036 30.068.5 41.69 1.94 48.454 2.443 11.474 4.43 86.403 3.017 113.764-1.002 19.412-3.315 37.136-6.634 50.844-2.089 8.626-1.954 117.966.161 130.613 1.023 6.114.92 9.931-.44 16.524-.974 4.716-2.666 15.724-3.759 24.463-3.464 27.695-8.002 44.36-15.172 55.718-3.084 4.885-3.309 6.358-3.767 24.63-.442 17.646-.913 20.955-5.112 35.959-11.545 41.256-12.46 45.457-13.134 60.377-.586 12.952-1.505 17.523-8.06 40.116-8.58 29.573-12.061 39.245-18.613 51.713-8.973 17.077-24.115 29.67-38.618 32.121-4.368.738-6.74 2.46-14.175 10.286-15.432 16.246-30.797 21.278-44.587 14.602-5.2-2.517-13.911-10.54-16.886-15.552-.635-1.07-4.815-3.88-9.29-6.246-9.648-5.1-24.178-18.442-38.5-35.354-15.074-17.8-26.216-28.965-33.444-33.512a1047 1047 0 0 1-6.775-4.282c-.23-.157.416-1.621 1.438-3.255 1.021-1.634 2.233-4.589 2.693-6.567.91-3.91-.398-5.431-11.974-13.927-4.001-2.937-7.027-6.758-10.07-12.717l-4.35-8.52 3.079-6.677c6.592-14.295 32.315-48.383 40.736-53.984 5.097-3.39 13.823-12.234 13.823-14.01 0-.924 6.02-8.66 13.377-17.19s18.037-22.384 23.733-30.786 16.253-23.105 23.458-32.673c22.946-30.468 32.48-46.856 36.58-62.867 2.641-10.322 2.458-27.129-.393-36.043l-2.237-6.99 7.095-7.667c11.727-12.671 19.439-29.816 23.712-52.712 2.615-14.014 4.554-98.622 2.607-113.764-.788-6.13-1.1-30.111-.787-60.377 1.127-108.67.692-150.94-1.688-163.779-3.097-16.71-5.143-19.84-9.057-13.859-4.012 6.132-10.053 38.027-11.617 61.331-.822 12.257-6.822 34.79-9.956 37.39-1.481 1.23-1.967.775-2.69-2.518-1.36-6.194-.964-29.446.78-45.783 2.326-21.78-.688-35.29-5.707-25.584-3.372 6.52-7.193 28.352-8 45.71l-.782 16.843h-4.255c-5.071 0-12.889-6.45-17.636-14.549-7.197-12.282-15-35.518-19.015-56.633-3.622-19.045-3.005-18.007-6.564-11.039-1.72 3.367-3.812 5.899-4.65 5.627-.837-.272-3.837-7.031-6.667-15.02-6.368-17.972-7.913-20.858-14.576-27.235-6.994-6.693-12.565-14.983-26.006-38.697-13.427-23.69-19.387-31.809-27.102-36.92l-5.848-3.872-1.598 6.06c-.88 3.333-1.624 6.406-1.655 6.828-.171 2.343-6.719 7.495-9.525 7.495-5.218 0-12.934-8.103-18.387-19.31l-4.88-10.03-2.632 4.46c-3.913 6.632-7.495 6.94-17.4 1.495-12.965-7.126-15.815-6.232-17.816 5.59l-.967 5.72-3.71-8.263c-6.09-13.564-9.774-16.086-17.593-12.043-3.747 1.938-3.75 1.936-3.75-1.844 0-2.081-.62-6.672-1.377-10.202-2.292-10.69-6.508-8.352-16.236 9.004-3.99 7.12-7.307 10.927-8.49 9.743-.341-.34-1.087-4.855-1.658-10.032-.95-8.615-1.16-9.12-2.477-5.968-.791 1.895-2.657 4.663-4.146 6.152l-2.707 2.707-3.166-2.974c-3.106-2.918-3.2-2.928-4.97-.507-.992 1.357-1.804 3.788-1.804 5.402 0 2.241-.713 2.935-3.016 2.935-3.631 0-9.994 6.642-20.09 20.974-3.94 5.592-8.904 11.185-11.033 12.428-8.325 4.86-13.742 21.807-16.71 52.268-.81 8.318-1.984 16.469-2.61 18.113-1.235 3.25-3.212 3.93-4.066 1.401-.35-1.04-2.652.056-6.67 3.178-9.6 7.46-16.23 6.265-21.47-3.871-1.05-2.029-4.58-12.498-7.845-23.265-6.797-22.413-13.667-38.507-16.094-37.704-1.12.371-1.867 5.06-2.426 15.256-.445 8.096-1.222 15.388-1.727 16.205-.584.945-9.315-7.013-23.978-21.855-27.278-27.61-33.8-32.154-46.148-32.154-7.432 0-8.236.296-12.76 4.708l-4.828 4.709-2.664-4.073c-3.292-5.032-8.264-7.819-12.174-6.821-1.626.415-6.018 3.062-9.758 5.882-3.741 2.82-7.558 5.128-8.483 5.128-.924 0-3.409-1.728-5.52-3.84l-3.84-3.839-2.14 4.51c-2.471 5.209-7.158 9.271-11.874 10.29-9.932 2.149-14.094 6.641-14.094 15.217v3.353l-3.62-3.875c-6.832-7.315-12.778-6.473-19.86 2.811-3.572 4.683-8.266 16.726-8.348 21.419-.049 2.751-.143 2.722-1.947-.604-1.043-1.923-2.439-3.496-3.101-3.496-1.518 0-5.348 7.563-8.115 16.023-1.892 5.788-2.456 6.425-5.216 5.898-4.723-.903-9.878 5.132-13.319 15.593-3.819 11.61-6.64 17.068-10.835 20.957-8.974 8.32-13.27 24.096-17.825 65.463-1.771 16.079-4.047 33.525-5.059 38.768-1.011 5.244-2.429 15.496-3.15 22.783-.72 7.287-1.64 13.579-2.042 13.98-1.154 1.155-4.21-3.51-9.72-14.836-5.07-10.42-5.132-10.487-9.968-10.487-10.612 0-13.515-3.582-21.064-25.99-2.342-6.953-4.26-12.905-4.26-13.225s1.102.414 2.449 1.632c8.552 7.74 9.627-7.84 2.098-30.421-5.364-16.09-10.707-26.693-13.449-26.693-2.18 0-2.585 9.756-.953 22.88l.95 7.626-3.077-7.42c-1.692-4.08-4.067-8.513-5.277-9.85-2.752-3.04-7.57-3.153-8.878-.207-1.719 3.873-2.161 41.532-.626 53.297.805 6.166 3.415 23.046 5.8 37.51 2.386 14.465 4.96 32.426 5.722 39.914s2.186 17.104 3.164 21.368 3.534 21.45 5.679 38.193 5.11 35.618 6.59 41.946c5.91 25.278 15.394 38.436 26.9 37.321 3.258-.315 4.116-1.014 4.385-3.57.806-7.675 2.948-12.711 5.404-12.711 7.35 0 8.56 20.684 1.806 30.823l-3.6 5.404.083 30.506c.091 33.693 2.14 55.238 9.856 103.595 2.398 15.031 5.015 31.905 5.817 37.498.801 5.593 4.552 23.04 8.334 38.769 3.783 15.73 7.55 33.176 8.373 38.769 1.825 12.41 5.104 17.312 25.81 38.58 28.874 29.656 60.722 50.775 94.13 62.42 6.291 2.194 13.573 5.392 16.18 7.107 6.31 4.148 9.877 11.37 9.877 19.993 0 8.876-2.192 15.972-11.962 38.72-4.431 10.32-8.455 20.598-8.942 22.843-.725 3.343-2.077 4.642-7.468 7.178-16.186 7.612-25.22 7.801-43.502.912-16.985-6.4-25.777-8.202-34.632-7.096-8.486 1.06-10.434 1.74-10.443 3.64-.035 7.157-6.732 17.956-14.337 23.121-2.248 1.527-11.638 5.766-20.867 9.421-20.244 8.018-26.064 11.564-33.927 20.673-5.931 6.869-16.026 13.921-16.026 11.195 0-.768.935-2.825 2.079-4.57 3.451-5.268 1.064-4.835-3.639.66-4.526 5.288-5.271 5.538-11.787 3.962zm-53.57-97.328c2.63-4.908 2.725-6.563 2.725-47.667 0-38.59.22-43.084 2.343-47.935 2.24-5.118 2.248-5.733.179-13.982-3.872-15.436-1.317-23.977 14.207-47.491 4.88-7.392 9.624-16.122 10.542-19.4 2.176-7.775 1.18-21.747-1.964-27.548l-2.405-4.44-.684 10.17c-.735 10.926-2.373 15.053-15.055 37.932-3.584 6.466-6.821 14.293-7.624 18.43-4.098 21.131-6.681 47.466-7.788 79.38-.66 19.022-1.505 43.112-1.877 53.532l-.678 18.946 2.678-2.422c1.472-1.331 3.903-4.709 5.402-7.505m127.468-12.655c14.665-7.554 22.282-9.42 29.561-7.238 2.583.773 9.754 1.795 15.935 2.27 9.363.72 11.142.565 10.652-.925-1.561-4.753-27.415-8.621-42.562-6.368-12.267 1.824-19.034 4.829-24.247 10.766-3.633 4.138-5.398 8.43-3.466 8.43.366 0 6.723-3.121 14.127-6.935m639.45-33.029c4.222-4.908 5.449-11.235 5.457-28.147.004-8.447.34-15.691.746-16.098s2.837.174 5.402 1.291c2.91 1.267 8.487 2.063 14.832 2.116 8.587.073 11.05-.408 15.832-3.092 11.17-6.266 16.644-19.787 14.241-35.167-.637-4.078-.914-11.99-.616-17.584.487-9.127-.748-15.15-2.706-13.192-1.715 1.715-5.808 24.794-7.257 40.92-1.509 16.796-1.69 17.523-4.18 16.726-15.147-4.848-20.14-5.352-26.536-2.68-6.498 2.715-10.677 8.822-14.304 20.906-7.46 24.848-8.478 27.799-11.437 33.14l-3.086 5.57 5.405-.725c3.622-.486 6.329-1.8 8.207-3.984m-694.153-35.752c7.357-8.611 11.347-10.813 19.239-10.617 7.67.19 23.215-4.593 23.215-7.145 0-2.438-5.061-2.399-17.532.136-18.91 3.843-34.584 13.618-34.584 21.568 0 5 3.105 3.733 9.662-3.942m758.289-150.915c7.294-7.214 17.151-23.778 14.15-23.778-.645 0-7.328 6.578-14.85 14.618l-13.677 14.618h4.43c3.512 0 5.569-1.129 9.947-5.458m-825.497-88.922c-.374-7.166-2.769-24.183-5.322-37.815-4.754-25.383-6.937-50.403-4.865-55.755.797-2.06 3.126-3.657 7.414-5.085 9.004-2.996 11.968-8.625 11.996-22.777.013-6.363-.708-12.27-1.82-14.935-3.269-7.821-5.786-5.026-5.786 6.425 0 3.747-.519 7.133-1.153 7.525-.635.392-2.953 5.145-5.152 10.562s-4.49 10.992-5.094 12.39c-2.357 5.469-5.384 21.002-6.748 34.632-1.71 17.086-.066 35.533 4.713 52.893 3.26 11.841 9.184 24.969 11.267 24.969.756 0 .968-5.013.55-13.029m822.451 5.084c.704-.873 1.654-3.34 2.111-5.482l.831-3.894 8.532 2.908c13.848 4.72 20.697 3.565 23.868-4.023 1.682-4.026 1.613-5.937-.697-19.24-2.911-16.762-3.048-20.865-.904-27.15 2.108-6.181 7.134-7.73 21.828-6.727l11.413.78-1.972-3.065c-3.216-4.998-12.074-8.784-20.551-8.784-18.806 0-25.243 12.12-18.386 34.618 4.88 16.014 5.205 19.179 2.33 22.727l-2.455 3.032-11.234-2.893c-13.602-3.503-14.985-3.524-18.225-.284-1.961 1.96-2.542 4.237-2.542 9.957 0 4.078.381 7.796.847 8.262 1.342 1.341 3.811.99 5.206-.742m25.517-198.61c1.935-5.788 1.245-18.287-1.686-30.507-1.904-7.938-2.479-15.889-1.15-15.889.424 0 2.94 1.718 5.591 3.818 6.067 4.805 14.841 8.829 19.33 8.865 2.976.024 3.656-.71 4.976-5.374 3.488-12.323 1.983-22.847-8.285-57.937-5.265-17.993-6.063-30.404-2.445-38.028 1.178-2.482 6.1-8.431 10.937-13.221s8.41-8.71 7.939-8.71c-1.98 0-12.283 8.012-15.166 11.793-1.718 2.253-5.45 8.959-8.296 14.901-8.867 18.522-8.466 30.09 1.773 51.171 5.226 10.76 9.57 23.892 9.57 28.933 0 1.118-.782 3.1-1.737 4.407-4.306 5.889-16.742-5.666-25.276-23.486-6.241-13.032-9.417-17.807-11.843-17.807-2.914 0-2.255 8.547 2.629 34.14 5.054 26.477 5.784 38.756 2.265 38.079-1.201-.232-4.373-3.563-7.048-7.402-15.55-22.32-20.903-26.643-19.693-15.907.923 8.182 9.957 23.138 20.822 34.472 10.866 11.334 14.005 12.023 16.793 3.689M211.286 625.379c0-.658-.572-1.196-1.271-1.196-.7 0-1.271.892-1.271 1.982s.572 1.628 1.27 1.196c.7-.432 1.272-1.324 1.272-1.982m-37.092-4.796c.241-2.514-1.472-9.675-4.216-17.62-2.542-7.362-4.49-15.18-4.328-17.373s-.732-8.497-1.987-14.007c-4.254-18.692.398-27.591 23.232-44.435 17.264-12.736 17.379-12.911 17.515-26.682.137-13.791 2.72-20.935 9.824-27.172 5.944-5.22 13.941-7.551 29.742-8.671l12.648-.897 2.828-9.702c1.556-5.337 5.058-14.337 7.783-20.002 6.096-12.669 16.235-22.748 26.594-26.436 10.863-3.867 29.963-2.845 47.428 2.537 4.93 1.52 1.775-1.911-5.085-5.526-22.005-11.598-49.09-7.617-66.526 9.777-8.754 8.734-12.58 17.921-13.527 32.49l-.662 10.168H240.68c-14.171 0-15.063.162-21.767 3.94-13.922 7.843-21.907 23.923-22.131 44.564l-.114 10.477-4.798.815c-8.435 1.434-19.68 7.957-24.42 14.166-6.921 9.064-9.725 18.105-10.509 33.89-.774 15.59 1.039 30.65 5.483 45.54 3.886 13.023 5.193 15.273 8.59 14.79 2.115-.301 2.87-1.402 3.18-4.63m717.654-59.077c3.384-2.475 4.51-11.399 3.24-25.665-1.746-19.616-1.533-30.568.629-32.362 4.1-3.403 13.188 3.528 24.266 18.509 10.734 14.514 19.501 18.048 27.27 10.993 8.467-7.688 12.197-30.6 8.433-51.797-2.653-14.942-4.571-21.54-5.865-20.173-.576.608-1.303 12.832-1.615 27.164-.824 37.758-3.454 43.323-13.998 29.622-11.854-15.404-21.719-21.877-30.757-20.182-12.966 2.433-21.01 21.141-19.342 44.987.797 11.397 2.801 20.568 4.495 20.568.532 0 1.992-.749 3.244-1.664M361.744 503.32c3.671-1.02 5.275-2.318 6.337-5.132.839-2.223 3.576-5.03 6.677-6.847 5.512-3.23 9.4-9.445 9.4-15.025 0-2.713 1.037-3.597 6.673-5.691 3.67-1.364 14.389-3.747 23.819-5.296 29.614-4.866 39.4-10.483 48.133-27.63 1.5-2.944 2.726-6.07 2.726-6.947s2.284-6.271 5.077-11.987c5.035-10.307 11.98-18.345 23.158-26.801 2.597-1.964 4.742-4.048 4.767-4.63.054-1.232.71-1.468-11.716 4.202-9.29 4.239-9.738 4.644-11.262 10.169-.873 3.165-3.466 8.508-5.763 11.873s-4.563 8.178-5.035 10.696c-.635 3.384-3.212 6.936-9.894 13.634-13.377 13.41-28.48 20.593-50.981 24.247-6.292 1.022-13.935 1.86-16.984 1.863l-5.543.005.823 4.39c.7 3.734.361 4.692-2.273 6.418-3.62 2.372-9.268 10.514-10.387 14.974-1.037 4.129-6.476 5.674-25.41 7.217-15.687 1.279-18.69 2.358-15.902 5.716 1.28 1.543 4.508 1.96 15.136 1.954 7.43-.004 15.72-.621 18.424-1.372zm661.781-33.923c0-6.326-19.918-32.355-27.93-36.498-3.18-1.645-4.438-1.423-15.413 2.725-20.486 7.74-30.795 7.063-43.82-2.879-6.55-5-7.06-5.11-9.032-1.952-.811 1.298-3.94 3.646-6.955 5.217-6.952 3.623-11.46 3.082-31.217-3.749-15.913-5.502-24.608-6.423-29.34-3.109-3.786 2.652-7.657 10.474-8.549 17.277l-.724 5.519 1.91-5.084c1.05-2.797 3.47-6.438 5.38-8.091 3.016-2.613 4.315-2.903 9.903-2.212 3.538.438 11.265 2.22 17.171 3.96 14.7 4.332 25.977 4.317 32.4-.042l4.727-3.207 4.031 3.403c5.89 4.973 13.42 8.035 19.835 8.067 3.1.016 12.904-1.763 21.79-3.952 17.38-4.284 21.596-4.256 28.882.188 2.305 1.406 5.737 5.252 7.627 8.545 4.049 7.058 14.682 18.127 17.413 18.127 1.051 0 1.911-1.014 1.911-2.253m-306.458-73.979c4.541-1.302 12.809-6.404 12.824-7.913.005-.488-1.78-.263-3.966.499-2.503.872-8.566 1.084-16.37.573-20.65-1.353-39.786-6.2-48.239-12.22-3.308-2.355-3.373-2.345-10.83 1.655-4.126 2.214-7.698 4.652-7.938 5.418-.289.922 4.432 1.67 13.96 2.215 16.32.932 25.272 3.189 30.81 7.766 3.385 2.8 5.024 3.157 14.625 3.198 5.947.025 12.753-.51 15.124-1.19m-409.811-63.59c.432-.699.213-1.27-.486-1.27s-1.625.571-2.057 1.27-.213 1.271.486 1.271 1.625-.572 2.057-1.27m578.354-10.106c-22.606-10.678-39.97-14.721-58.966-13.73-11.516.6-26.467 4.612-23.535 6.316.632.367 7.442 1.053 15.132 1.524 21.72 1.33 45.685 4.322 61.013 7.617 7.69 1.653 14.555 3.021 15.254 3.04s-3.305-2.126-8.898-4.767m-364.66-18.463c9.124-11.41 15.742-17.19 19.682-17.19 1.158 0 5.43 2.001 9.494 4.448 5.747 3.46 8.76 4.45 13.564 4.45 7.843 0 12.566-2.4 21.303-10.822 16.66-16.06 23.645-17.206 35.924-5.891 3.493 3.218 3.565 3.227 14.058 1.71 5.8-.839 24.24-4.89 40.978-9.003 16.737-4.113 35.736-8.2 42.22-9.081 13.84-1.882 32.24-1.026 42.04 1.955 3.74 1.138 6.943 1.887 7.118 1.664.175-.222-.19-2.285-.81-4.583-.708-2.621-2.651-5.108-5.21-6.669-6.768-4.126-17.512-3.324-44.239 3.304-25.543 6.334-37.411 7.91-44.58 5.923-4.315-1.196-4.92-1.01-8.262 2.55-4.655 4.958-12.471 8.541-18.708 8.576-2.712.016-12.597-2.546-21.965-5.692-18.735-6.29-24.51-6.916-30.446-3.297-3.84 2.341-9.39 11.58-9.39 15.63 0 1.746-2.772 1.978-21.926 1.837-19.998-.147-22.55.09-29.018 2.696-9.11 3.67-16.28 9.852-20.452 17.634-8.61 16.06-4.275 15.985 8.626-.15" style="fill:#2b0000;stroke-width:1.27111"/><path d="M596.294 1404.84c-7.575-6.633-10.156-7.823-16.978-7.823-13.674 0-29.325-7.92-57.879-29.286-22.919-17.15-32.738-23.889-40.675-27.915-3.146-1.596-8.973-5.4-12.95-8.454-12.24-9.402-25.732-17.131-61.614-35.296-33.316-16.867-52.394-28.004-63.602-37.13-14.381-11.709-36.794-60.886-47.402-104.01-4.458-18.12-16.846-90.124-19.691-114.447-2.575-22.014-2.496-53.683.173-69.919 1.15-6.99 2.147-19.669 2.217-28.172.12-14.525.314-15.662 3.209-18.75 3.715-3.962 6.69-4.132 12.249-.696 8.017 4.954 11.633 18.014 9.14 33l-.952 5.72 2.646-3.495c3.204-4.231 6.4-4.404 15.417-.835 4.659 1.845 8.293 2.449 11.846 1.97 3.793-.513 8.75.474 19.067 3.796 16.373 5.271 30.452 6.685 42.996 4.319 10.072-1.901 17.988-.45 28.966 5.31 13.013 6.83 28.92 25.557 34.813 40.987l2.043 5.35-5.093 10.703c-2.802 5.888-10.856 21.286-17.898 34.22-19.7 36.178-25.563 53.429-25.919 76.266-.254 16.304 2.255 43.695 4.948 54.022 2.796 10.72 10.776 26.4 18.76 36.863 8.01 10.494 34.401 35.123 41.54 38.765 6.899 3.52 10.26 3.223 21.615-1.903 11.021-4.976 16.032-5.432 26.723-2.432 6.624 1.858 7.727 1.85 14.066-.114 10.418-3.228 33.165-3.837 52.903-1.419 9.234 1.132 20.533 2.058 25.109 2.058 5.89 0 9.704.742 13.063 2.542 6.43 3.447 22.61 3.43 37.07-.036 20.123-4.824 46.52-13.035 54.122-16.835 25.574-12.783 50.842-35.837 69.279-63.209 9.976-14.81 12.347-19.824 15.472-32.723 6.971-28.771 1.23-62.925-15.08-89.723-2.626-4.313-6.267-10.988-8.092-14.834-4.84-10.199-15.73-19.519-38.859-33.26-10.984-6.525-22.974-14.6-26.644-17.945-7.12-6.49-13.212-16.96-13.212-22.71 0-3.834.478-4.003 15.434-5.457 3.945-.384 16.243-2.435 27.33-4.558 11.085-2.123 26.24-4.35 33.674-4.949 16.62-1.339 20.762-3.238 41.435-19.006 13.58-10.357 15.613-11.486 22.071-12.26 3.913-.47 7.847-1.307 8.743-1.86 1.957-1.21.623-3.834-1.949-3.834-4.442 0-.965-2.862 10.23-8.42 8.47-4.204 14.102-6.156 18.92-6.555 6.455-.536 7.03-.341 9.709 3.283 1.566 2.119 3.921 4.133 5.233 4.476 3.77.986 8.295 12.536 13.285 33.91 11.58 49.597 13.05 54.781 19.4 68.369 8.238 17.625 10.96 29.983 9.974 45.286-1.776 27.563-14.077 52.953-44.085 90.992a4614 4614 0 0 0-22.834 29.236c-17.746 22.953-39.11 46.603-58.153 64.376-27.741 25.89-31.553 29.975-55.587 59.557-37.361 45.987-57.147 63.718-89.003 79.758-7.02 3.535-12.024 6.683-11.118 6.995 2.499.862 28.846-12.491 41.978-21.275 7.934-5.306 13.941-10.588 18.9-16.615 10.476-12.735 20.733-19.11 20.733-12.885 0 3.754-6.84 13.398-12.837 18.098-3.077 2.412-8.31 7.077-11.63 10.366-18.398 18.227-46.97 29.184-75.95 29.125-8.04-.016-16.62-.51-19.067-1.097-4.004-.96-4.883-.647-8.775 3.123-2.38 2.304-5.016 4.19-5.86 4.19-.842 0-4.043-2.2-7.113-4.889zm-73.368-126.868c2.42-2.19 3.197-6.794 1.146-6.794-1.756 0-6.522 6.478-5.72 7.776.992 1.605 1.94 1.402 4.574-.982m-139.956-39.888c5.826-3.118.028-21.08-10.314-31.95-5.872-6.174-9.088-6.101-10.24.23-.443 2.44-1.78 6.662-2.971 9.383-2.614 5.971-1.952 9.289 2.74 13.73 3.512 3.326 14.922 9.923 17.161 9.923.641 0 2.272-.592 3.624-1.316m405.923-8.95c3.302-3.925 4.313-7.53 2.112-7.53-1.318 0-8.99 8.925-8.99 10.459 0 2.315 3.842.679 6.878-2.93M322.3 1117.066c3.157-3.664 5.575-6.826 5.375-7.027-.2-.2-1.855.202-3.676.895-5.15 1.957-7.207-1.03-7.227-10.495-.036-15.92-2.417-17.094-11.208-5.53-3.308 4.354-6.09 6.929-6.76 6.259-.625-.626-1.588-3.67-2.14-6.767l-1.004-5.629-2.782 5.352c-3.342 6.428-3.582 11.23-.617 12.367 1.19.457 5.069.468 8.619.024 5.335-.667 6.998-.365 9.592 1.738 2.655 2.152 3.11 3.54 2.947 9.01-.25 8.407 1.501 8.368 8.88-.198zm25.398-56.185c5.411-1.208 3.895-4.721-2.885-6.684-3.105-.9-9.394-1.782-13.975-1.96-6.637-.26-8.33.054-8.33 1.546 0 2.085 16.561 9.106 19.703 8.354a477 477 0 0 1 5.487-1.256m473.325-34.386c1.68-1.177 3.054-3.958 3.611-7.309 2.088-12.568 6.345-16.206 18.994-16.232 10.51-.022 14.239-1.605 17.685-7.506 2.029-3.474 2.474-6.265 2.228-13.98-.31-9.767-2.033-14.526-3.21-8.868-2.75 13.221-3.985 17.02-6.472 19.911l-2.846 3.31-3.04-3.268c-1.67-1.797-4.622-5.644-6.556-8.548-6.653-9.985-9.996-8.176-12.35 6.686-3.737 23.588-6.645 30.016-12.832 28.374-5.304-1.407-6.08-2.581-7.473-11.307-2.615-16.367-6.234-22.606-10.878-18.752-1.732 1.438-2.044 3.477-1.642 10.731.573 10.326 3.25 16.71 9.965 23.77 5.111 5.373 10.003 6.36 14.816 2.988" style="fill:#2b0000;stroke-width:1.27111"/><path d="M680.962 1544.83c-4.195-1.775-10.636-3.374-14.313-3.553-3.677-.18-8.253-.943-10.168-1.696-14.515-5.707-31.946-7.625-85.47-9.404-92.478-3.074-126.041-1.796-152.257 5.798l-9.863 2.856-2.905-3.508c-6.258-7.557-18.595-7.649-42.774-.319-25.238 7.651-25.478 6.7-4.431-17.57 20.43-23.56 40.478-55.382 64.578-102.51l15.869-31.03.985-11.552c1.81-21.223 9.23-31.254 23.123-31.254 9.258 0 19.323 6.042 34.181 20.515 21.49 20.934 34.858 28.871 79.85 47.41 21.231 8.747 23.638 9.476 24.786 7.508 1.598-2.74 6.969-7.96 9.694-9.42 1.454-.779 5.013.39 11.992 3.938 12.265 6.235 16.041 6.354 23.116.729 3.457-2.75 7.45-4.6 11.108-5.148 7.542-1.131 24.962-7.075 33.703-11.5 25.438-12.878 45.139-33.598 57.723-60.712 7.925-17.074 21.984-31.682 28.5-29.613 3.441 1.092 6.263 7.006 7.944 16.647 2.198 12.614.736 51.824-2.603 69.783-5.808 31.234-2.03 57.609 17.396 121.463 3.51 11.536 6.732 22.466 7.16 24.29l.78 3.315-9.83-2.486c-7.192-1.82-14.436-2.514-26.99-2.59-18.54-.11-27.103 1.173-57.985 8.693-9.87 2.403-19.593 4.32-21.609 4.258-2.015-.06-7.096-1.563-11.29-3.338M638.38 1263.925c-2.448-1.072-11.885-3.321-20.974-4.999-9.088-1.678-19.255-3.948-22.592-5.045-5.56-1.828-7.073-1.813-18.085.17-10.004 1.8-17.875 2.072-46.988 1.617-32.92-.515-35.139-.698-37.844-3.125-4.798-4.304-9.03-6.788-11.57-6.788-2.16 0-2.356.792-1.867 7.543l.545 7.543-12.15-11.209c-29.057-26.804-32.475-32.6-35.106-59.53-.937-9.59-1.733-17.578-1.768-17.753s-.881-.318-1.881-.318c-1.025 0-2.882 2.851-4.255 6.532-2.361 6.33-2.46 6.418-3.181 2.81-.41-2.048-1.113-9.993-1.564-17.655-.921-15.673 1.123-34.328 5.923-54.05 4.095-16.826 4.624-9.568 1.043 14.319-1.545 10.299-2.472 19.602-2.06 20.673 1.666 4.342 4.72 1.631 9.623-8.538 7.343-15.231 10.671-28.499 10.487-41.803-.252-18.21 4.773-32.098 15.764-43.569 10.35-10.802 21.126-13.753 28.271-7.741 4.917 4.137 7.676 11.279 9.27 24 2.421 19.303 7.532 25.55 18.296 22.36 2.797-.828 11.09-5.402 18.431-10.164 27.018-17.526 27.811-17.406 36.155 5.47 12.598 34.54 43.449 30.432 62.025-8.26 9.867-20.553 17.56-24.314 31.975-15.633 4.039 2.432 10.069 6.704 13.4 9.492 7.125 5.966 11.154 7.695 17.93 7.695 9.581 0 10.563-4.823 8.293-40.732-1.124-17.774-.304-22.823 3.709-22.823 1.532 0 1.52.662-.086 4.504-3.23 7.73-1.282 8.396 12.401 4.24 17.652-5.362 24.906-1.022 30.847 18.456 3.99 13.082 9.736 24.462 21.885 43.346 21.752 33.812 25.037 48.283 16.805 74.027-10.814 33.816-30.505 59.65-60.827 79.806-20.436 13.583-22.464 14.361-43.093 16.528-20.273 2.129-27.285 3.586-35.748 7.429-3.146 1.428-6.006 2.716-6.355 2.86-.35.145-2.638-.613-5.085-1.685m-9.534-16.265c68.616-10.46 123.432-44.427 149.406-92.581 8.073-14.966 8.402-27.425.95-35.913-7.644-8.705-20.706-13.516-56.595-20.844-20.255-4.135-30.704-7.23-37.391-11.074-2.833-1.628-4.135-1.853-4.514-.781-1.377 3.893-8.586 12.245-14.038 16.264-3.322 2.45-14.8 8.751-25.507 14.005-20.058 9.842-31.63 16.954-37.001 22.74-3.645 3.926-5.181 4.203-5.181.933 0-3.58-3.311-10.804-6.915-15.086-6.292-7.478-14.01-9.547-38.845-10.415-13.858-.484-23.298-1.368-25.04-2.344-4.51-2.528-6.737-6.799-6.75-12.951l-.011-5.755-3.741 6.522c-5.519 9.622-12.2 14.58-35.994 26.707-23.39 11.922-33.612 19.813-39.123 30.202-2.828 5.33-2.925 6.18-1.5 13.081 8.35 40.396 58.048 74.424 115.76 79.26 17.125 1.434 56.816.349 72.03-1.97" style="fill:#e9afaf;stroke-width:1.27111"/><path d="M591.772 1094.357c-4.691-1.343-10.026-7.23-13.144-14.502-1.208-2.818-4.272-13.404-6.809-23.525-5.112-20.397-7.315-24.557-13.319-25.154-3.338-.332-5.16.702-11.047 6.27-6.444 6.095-6.969 7.001-6.114 10.566 2.199 9.165-1.222 17.929-9.896 25.353-11.365 9.728-21.202 6.445-23.238-7.758l-.77-5.37 4.61 3.128c2.535 1.72 5.114 2.816 5.73 2.435 1.825-1.128 1.29-6.48-1.422-14.194-3.18-9.05-3.22-8.702.953-8.643l3.496.05.22-12.71c.122-6.992.265-14.244.318-16.117.054-1.872.995-4.302 2.092-5.4 1.813-1.812 1.705-2.72-1.178-9.941-6.656-16.667-4.532-19.33 9.352-11.723 16.76 9.18 21.862 11.13 31.64 12.087 11.35 1.111 15.391-.008 15.391-4.261 0-1.652-2.86-8.853-6.355-16-6.94-14.193-7.86-19.037-3.814-20.095 3.04-.795 3.042-.8.665-5.397-1.033-1.998-3.105-8.119-4.604-13.602-3.875-14.18-7.173-20.558-14.172-27.407l-6.128-5.999 1.464-8.407c.805-4.624 1.875-7.93 2.377-7.348s2.484 6 4.404 12.038c4.292 13.498 8.703 20.475 12.596 19.92 4.473-.636 3.76-12.672-1.604-27.086-2.342-6.292-4.559-12.298-4.928-13.347-.49-1.397.06-1.266 2.062.491 2.53 2.22 2.792 2.238 3.561.233.457-1.19.519-9.133.138-17.65-1.048-23.412-7.8-43.465-18.865-56.037-2.912-3.307-7.997-12.488-12.733-22.987-15.097-33.47-31.67-59.67-50.146-79.275-8.957-9.505-10.84-10.916-14.617-10.951-3.975-.038-4.654-.65-8.15-7.347-3.149-6.033-4.387-7.305-7.111-7.308-1.814-.003-4.32 1.123-5.566 2.501-2.248 2.484-2.29 2.478-4.738-.635-3.48-4.425-9.985-4.17-18.523.727-3.687 2.114-13.398 10.367-21.581 18.34-8.183 7.974-15.08 14.296-15.327 14.05-.246-.247.217-1.691 1.029-3.21 2.473-4.62.337-4.467-6.865.493-12.838 8.842-31.504 29.767-52.534 58.892l-2.954 4.092-4.097-2.498c-5.184-3.16-11.318-3.222-14.107-.14-3.392 3.748-4.576 9.686-5.863 29.41-.661 10.138-2.073 21.292-3.137 24.787-1.065 3.496-1.942 6.523-1.95 6.727-.007.204 2.187-1.94 4.875-4.767 5.864-6.164 9.81-6.6 14.828-1.642 6.747 6.666 12.706 25.4 14.18 44.578l.823 10.713 4.238-5.102c2.331-2.805 5.673-5.461 7.427-5.902s3.19-1.361 3.19-2.047c0-2.145 8.073-1.352 12.266 1.204 5.602 3.416 11.335 12.268 14.744 22.77l2.9 8.932 2.923-5.08c1.608-2.793 3.601-4.827 4.43-4.52.828.306 3.221-1.061 5.319-3.04l3.813-3.597 5.491 2.46c3.339 1.495 10.688 7.662 18.742 15.726 15.022 15.04 19.138 17.086 24.177 12.017 1.638-1.647 3.754-6.043 4.702-9.77l1.725-6.774 3.573 4.685c1.966 2.577 5.544 5.509 7.953 6.515 7.21 3.012 11.962-.275 22.33-15.446 10.075-14.74 13.84-18.954 18.754-20.99l3.553-1.47-.593-17.37c-1.051-30.824-2.846-52.041-4.795-56.706-2.247-5.379-5.79-5.944-10.12-1.615l-2.902 2.903-2.856-8.305c-5.885-17.115-23.496-44.385-33.365-51.667-4.906-3.619-9.417-3.907-11.127-.71-3.297 6.16-2.967 14.582 1.042 26.614 4.247 12.742 4.814 16.825 2.336 16.818-4.415-.013-24.816-15.927-39.302-30.658-13.247-13.47-19.847-14.835-22.875-4.73-1.849 6.172.072 19.764 4.07 28.803 1.39 3.141 2.272 5.966 1.96 6.277-1.207 1.208-9.728-2.57-13.279-5.886-2.054-1.919-4.44-5.846-5.304-8.726-1.334-4.455-1.239-6.249.64-11.999 4.536-13.88 17.188-26.2 28.177-27.438 3.055-.345 5.555-1.072 5.555-1.616 0-2.154 11.5-12.662 13.858-12.662 1.381 0 5.191 2.32 8.466 5.154 8.136 7.04 11.507 6.597 15.916-2.096l3.285-6.475 1.458 5.45c1.625 6.077 7.18 13.077 13.452 16.954 4.23 2.614 7.12 7.255 7.12 11.433 0 1.285 1.467 3.297 3.259 4.471 5.761 3.775 31.09 28.958 39.04 38.814 10.082 12.5 21.56 29.987 27.774 42.314l4.982 9.882-2.571 22.531c-3.069 26.893-3.336 55.316-.666 70.632 2.03 11.643 7.773 28.786 12.098 36.117 1.443 2.445 2.432 4.636 2.2 4.87-.234.233-4.118-.738-8.632-2.158-11.335-3.565-25.895-3.691-32.494-.283-5.253 2.713-10.613 10.445-10.649 15.36-.014 1.965-.784 2.86-2.459 2.86-1.34 0-3.303.333-4.361.738-1.64.63-1.724.09-.568-3.678.746-2.428.981-5.906.524-7.729-.72-2.867-1.504-3.313-5.83-3.313-2.748 0-7.907.624-11.463 1.387-8.478 1.818-10.572.274-9.965-7.352.24-3.011.22-5.475-.042-5.475s-2.462 1.744-4.89 3.875c-5.362 4.708-6.526 4.053-11.977-6.746-4.85-9.606-7.873-10.971-22.569-10.19-7.498.4-16.558-.28-28.745-2.158-30.951-4.767-45.121-6.12-50.742-4.848-7.353 1.666-14.972.192-20.79-4.023-2.929-2.122-8.91-9.466-14.405-17.689l-9.396-14.06-5.72-.047c-6.828-.055-13.478-3.183-17.011-8.002-2.425-3.307-2.583-5.51-2.736-38.133-.125-26.532.233-35.425 1.53-38.055 3.939-7.988 5.559-20.77 7.459-58.852 2.814-56.405 6.897-80.574 17.073-101.053 1.91-3.845 4.175-9.851 5.032-13.347 3.068-12.515 8.742-20.722 26.946-38.973 18.596-18.644 24.44-27.014 26.835-38.432l1.47-7.003 7.058-.834c3.883-.459 10.702-1.987 15.154-3.397 6.399-2.026 8.53-3.37 10.169-6.418 4.63-8.608 7.979-11.185 15.227-11.72 7.751-.572 11.765-2.758 14.945-8.142l2.218-3.754 5.599 4.928c7.41 6.523 14.148 8.477 34.158 9.903 21.89 1.56 23.76 2.614 49.653 27.99 30.752 30.14 40.82 45.379 46.857 70.933 3.657 15.473 5.86 20.378 10.002 22.265 6.557 2.988 12.925-6.299 14.282-20.828.683-7.316 1.05-8.195 3.188-7.636 3.18.832 6.64-2.445 9.899-9.377 4.324-9.2 6.427-20.32 7.66-40.518 1.969-32.27 6.21-40.648 27.987-55.292 6.078-4.086 14.26-10.977 18.184-15.313l7.135-7.884 3.964 3.336c2.18 1.834 4.518 3.335 5.195 3.335 2.348 0 7.605-6.39 10.631-12.923 2.993-6.459 3.054-6.505 3.775-2.859 4.209 21.283 9.512 29.143 20.674 30.64 7.167.962 12.928-1.279 22.061-8.579 4.803-3.84 9.117-6.279 11.105-6.279 4.882 0 12.505 4.191 23.119 12.711 10.656 8.554 18.238 12.711 23.184 12.711 3.738 0 10.598-5.2 11.782-8.931.72-2.271 1.013-2.313 3.73-.532 5.062 3.316 12.645 15.494 28.069 45.08 16.233 31.139 23.318 42.846 30.943 51.139 6.338 6.891 7.946 10.879 14.886 36.92 6.436 24.152 10.3 35.154 14.917 42.466 3.75 5.941 10.05 11.517 14.187 12.555 2.319.582 3.778 2.962 6.815 11.122 7.84 21.06 11.225 37.534 12.445 60.59 1.166 22.009-2.76 53.593-9.085 73.089-1.134 3.495-2.522 10.545-3.084 15.665-1.29 11.752-2.481 13.068-7.789 8.603-5.063-4.26-7.782-3.82-9.521 1.539l-1.352 4.167-1.19-4.818c-.861-3.485-1.945-4.926-3.916-5.207-2.143-.306-3.723 1.255-7.4 7.309-2.572 4.233-5.115 7.697-5.652 7.697-1.334 0-3.925-5.913-3.925-8.958 0-3.661-2.012-3.016-3.761 1.206-2.747 6.631-6.797 9.26-15.68 10.18-9.206.952-13.931 3.492-16.792 9.024-1.08 2.09-2.805 3.801-3.83 3.801-1.026 0-6.537 4.303-12.247 9.56-10.8 9.946-11.233 10.163-22.705 11.401-3.856.416-11.864 2.767-17.796 5.223-20.231 8.38-21.118 8.61-24.368 6.334-4.381-3.07-9.056-2.428-15.904 2.18-6.206 4.176-6.242 4.183-9.98 1.914-3.746-2.276-12.012-3.172-12.012-1.303 0 2.838 4.26 6.52 7.96 6.88l4.115.4-4.068 2.221c-5.587 3.051-8.827 2.788-12.641-1.026-2.815-2.815-4.543-3.303-12.971-3.666-5.348-.23-13.563-.85-18.254-1.38-12.868-1.452-18.931.711-28.705 10.242-7.67 7.481-7.966 7.64-7.19 3.88.446-2.157 2.804-8.784 5.24-14.726s6.703-16.38 9.482-23.195c9.204-22.572 10.61-37.275 4.825-50.43-1.42-3.23-6.47-9.779-11.35-14.717-10.005-10.13-12.722-15.5-12.68-25.064.056-12.456 7.596-26.042 27.236-49.076 12.358-14.495 17.223-21.351 17.223-24.274 0-4.088 18.687-20.387 43.747-38.159 12.268-8.7 15.91-10.68 19.23-10.457 3.19.215 7.005-1.648 17.272-8.436 15.195-10.045 17.295-11 19.735-8.976 1.352 1.123 2.968 1.128 6.66.022 13.324-3.992 20.467 1.068 20.467 14.5 0 15.099-12.229 42.51-18.964 42.51-2.528 0-4.225-5.666-5.994-20.022-1.891-15.337-3.185-19.381-6.2-19.381-2.506 0-4.521 3.381-11.923 20.013-7.66 17.212-13.072 25.435-17.466 26.538-4.415 1.108-7.228-2.202-9.312-10.96-5.958-25.04-13.863-21.104-20.42 10.168-3.028 14.438-8.534 31.778-10.091 31.778-.531 0-1.252-5.024-1.603-11.164-.67-11.747-2.977-18.278-7.272-20.576-4.266-2.283-4.76-1.524-5.562 8.542-1.023 12.847-3.287 21.126-11.518 42.13-8.342 21.287-9.698 26.71-9.63 38.513.051 9.142 3.204 21.39 5.721 22.23.671.223 2.615-2.224 4.32-5.438s4.279-6.36 5.719-6.989c1.44-.63 3.56-1.821 4.714-2.649 2.902-2.083 7.72 1.231 12.926 8.894 2.224 3.273 6.44 8.422 9.366 11.441 4.701 4.849 5.641 5.32 8.05 4.03 1.5-.803 4.017-4.242 5.592-7.642l2.865-6.183 6.066 5.013c3.336 2.757 6.614 5.012 7.283 5.012 2.504 0 6.952-3.013 12.796-8.668l6.027-5.833 4.142 3.92c7.354 6.962 13.168 8.513 18.056 4.816 1.361-1.03 6.223-6.568 10.805-12.307 11.376-14.253 15.086-16.628 24.854-15.91 4.194.309 8.53.954 9.633 1.435 1.671.728 2.031-.215 2.155-5.65.265-11.656 4.982-15.767 21.08-18.373 19.787-3.203 21.54-5.564 20.293-27.345-.669-11.687-.462-14.327 1.335-17.07 2.963-4.522 5.766-4.097 16.326 2.475 9.573 5.957 14.52 7.12 15.824 3.721.422-1.099-.386-3.558-1.795-5.464-4.146-5.607-8.62-15.3-12.398-26.857-6.442-19.705-12.558-29.722-21.682-35.508-3.002-1.904-11.348-9.93-18.546-17.837-23.014-25.28-38.838-36.535-53.197-37.837l-7.417-.672-33.498 16.567c-18.425 9.112-36.92 19.138-41.1 22.28-10.09 7.586-22.218 20.425-22.218 23.522 0 2.546-15.774 20.587-18 20.587-.68 0-.885-1.287-.454-2.86.553-2.018-.901-.988-4.937 3.495-3.147 3.496-5.18 6.546-4.516 6.778 1.419.497-5.27 6.221-20.327 17.398-20.794 15.435-29.325 32.076-29.284 57.125.029 17.662 4.326 33.227 14.227 51.53a5389 5389 0 0 1 8.167 15.151c3.316 6.191 3.881 13.99 1.618 22.347-.757 2.796-5.315 13.415-10.128 23.598-9.98 21.112-13.227 31.878-11.984 39.73.935 5.908 5.356 16.116 6.98 16.116.979 0 5.182-3.092 21.84-16.07 13.302-10.364 21.404-12.879 27.574-8.557 3.639 2.549 9.854 16.116 12.446 27.17 2.872 12.249 1.863 37.922-1.811 46.094-2.753 6.122-6.414 8.723-10.7 7.602-2.678-.7-12.332-10.826-15.584-16.344-2.879-4.885-8.138-8.117-13.208-8.117-6.11 0-11.51 7.584-19.23 27.008-10.807 27.194-15.665 33.708-26.75 35.87a440 440 0 0 0-6.356 1.28c-1.049.227-3.718-.106-5.933-.74M937.74 1027.141c-3.816-4.217-5.81-14.848-7.034-37.514-1.622-30.023-1.942-32.083-6.29-40.537-4.631-9.006-5.103-17.487-1.378-24.788 1.36-2.665 7.137-10.222 12.838-16.792 14.158-16.315 15.285-18.827 16.648-37.119 1.205-16.18.234-23.2-3.671-26.536-1.226-1.047-5.468-3.186-9.427-4.753-9.04-3.578-10.87-7.025-8.814-16.61.767-3.573 1.393-11.387 1.393-17.364 0-13.314 2.027-18.162 9.835-23.535 8.554-5.885 13.094-17.316 8.279-20.844-1.93-1.415-2.218-3.872-2.178-18.572.04-14.373.565-18.818 3.465-29.33 1.88-6.815 5.186-16.54 7.348-21.61 2.537-5.95 4.367-13.035 5.16-19.98.677-5.92 1.586-12.18 2.02-13.91l.79-3.147 1.081 2.924c1.47 3.974 3.584 34.443 3.578 51.588-.002 7.69-.844 22.562-1.87 33.049-2.436 24.915-2.396 60.885.13 113.618 3.696 77.191.29 118.218-13.033 157.011-2.423 7.055-5.582 13.829-7.02 15.052-3.478 2.96-9.025 2.82-11.85-.3m16.702-55.006c5.561-5.345 7.096-7.709 7.64-11.765.862-6.425-2.176-9.545-10.172-10.446-16.638-1.875-25.556 10.7-16.882 23.807 2.887 4.363 4.02 5.092 7.912 5.092 3.752 0 5.754-1.164 11.502-6.688" style="fill:#e9afaf;stroke-width:1.27111"/><path d="M925.904 904.844c-2.064-2.065-1.918-8.122.478-19.721 1.102-5.335 2.769-14.424 3.703-20.2 2.727-16.845 6.292-21.867 9.99-14.074 8.4 17.7 4.947 44.962-6.669 52.659-4.991 3.307-5.45 3.389-7.502 1.336M252.256 926.39c-3.54-4.366-8.712-26.505-18.04-77.22-3.536-19.226-7.543-42.547-8.904-51.824-2.91-19.828-4.802-52.407-3.044-52.407 1.703 0 20.982 32.977 28.364 48.518 8.806 18.538 11.7 27.963 12.448 40.543.747 12.544-1.301 18.89-8.843 27.4-7.5 8.465-8.63 10.809-8.63 17.907 0 6.655.058 6.752 10.804 18.092 6.275 6.621 10.805 12.484 10.805 13.984 0 2.303-10.872 16.23-12.874 16.491-.438.057-1.377-.61-2.086-1.485" style="fill:#e9afaf;stroke-width:1.27111"/><circle cx="334.04" cy="1158.056" r=".445" style="fill:#000;stroke:#000"/><circle cx="496.517" cy="1429.726" r=".629" style="fill:#000;stroke:#000"/><path d="M951.398 1138.125c-7.936-24.592 13.218-45.274 4.874-6.27 35.883-10.103 50.252-61.658 73.782-90.797 28.5-34.835 48.47-75.32 75.685-111.268 30.226-51.988 65.543-100.843 92.884-154.617 35.332-55.63 69.94-111.76 106.066-166.782 23.24-42.141 57.103-77.67 78.46-121.167 36.977-48.007 67.799-100.482 98.552-152.564 11.288-58.358-50.823 23.261-66.322 38.52-34.656 29.241-58.942 67.917-88.974 101.556-36.583 50.11-74.27 99.426-105.175 153.37-41.191 63.844-82.238 127.777-117.169 195.345-34.183 56.772-62.234 116.937-96.164 173.8-16.77 42.08-47.089 77.289-61.823 120.394-18.426 21.26 13.125-39.137 20.9-52.213 26.142-41.692 45.146-87.102 71.118-128.932 35.65-68.523 74.442-135.424 112.128-202.775 51.101-76.797 95.157-158.372 152.572-230.855 29.72-40.345 60.444-80.403 95.309-116.325 28.508-28.689 54.346-61.498 88.31-84.154 11.703 42.45-34.88 76.443-50.407 113.732-27.105 41.992-56.499 82.305-82.315 125.158-31.777 38.796-52.86 84.226-82.638 124.446-34.482 56.418-71.51 111.325-102.217 169.92-32.452 46.328-57.74 97.028-92.616 141.706-21.398 41.863-55.057 75.772-75.838 118.19-13.637 13.793-27.414 44.16-48.982 42.582m182.385-5.751c-.908-40.611 28.522-75.65 42.296-112.982 24.498-61.064 66.547-112.616 98.602-169.539 31.618-44.337 57.214-92.515 91.716-134.795 28.722-41.722 62.783-79.59 86.117-124.926 28.425-30.427 40.404-69.533 58.617-105.74 22.251-42.206 51.227-81.51 67.819-126.122 21.459-50.351 75.742-4.445 42.847 30.788-18.139 35.866-36.132 72.766-61.74 104.208-36.975 66.835-75.74 132.637-115.09 198.11-54.576 77.558-104.873 157.77-154.355 238.609-27.975 39.92-50.864 82.969-81.48 120.875-26.233 24.998-36.875 76.183-75.349 81.514m16.422-8.89c30.81-29.592 48.798-71.416 78.223-103.383 38.613-59.904 77.277-120.012 114.789-180.614 38.535-65.037 85.507-124.874 123.315-190.43 31.34-53.179 61.74-106.972 93.256-160 26.158-34.2 44.893-73.479 63.063-112.113 14.397-49.683-47.378-39.365-45.967.555-25.498 43.372-51.568 86.795-74.19 131.825-12.444 46.292-50.531 78.639-70.686 121.262-41.399 58.229-87.794 113.205-123.636 175.238-36.954 51.953-67.877 107.631-102.792 160.938-23.651 49.225-48.946 98.164-67.379 149.595-3.143 10.97 3.79 16.747 12.003 7.127m-371.074-11.528c6.882-41.965 21.161-81.796 32.6-122.555 34.748-75.543 67.59-152.102 110.396-223.643 62.809-117.18 134.533-229.967 218.603-333.12 54.105-72.08 116.34-138.74 187.508-194.162 18.234-11.287 84.03-70.432 55.363-20.184-30.65 44.549-68.076 84.692-99.525 128.976-57.465 71.954-112.93 145.503-167.429 219.739-47.03 65.323-96.244 129.134-138.214 197.898-43.881 70.156-84.394 142.43-120.709 216.82-27.72 40.797-40.094 90.381-68.249 130.096-2.103 1.335-15.122 17.185-10.344.135m12.374-5.898c32.102-72.838 71.774-142.367 107.68-213.652 32.494-55.919 63.934-112.477 100.336-166.004 47.479-72.577 101.533-140.694 151.78-211.433 49.927-65.559 99.69-131.345 150.804-196.03 25.287-37.768 61.498-68.417 81.15-109.548-23.278-1.564-71.226 46.847-98.87 68.915-62.854 54.48-115.307 119.655-164.918 186.132-96.964 123.005-173.427 260.404-245.663 398.897-21.668 52.852-51.918 102.316-66.655 157.723-9.134 26.218-12.854 31.269 3.982 10.588-6.114 17.202-36.467 72.529-19.626 74.412m90.293-30.793c9.073-30.176 31.545-60.853 44.576-91.774 34.3-57.414 63.843-117.585 98.3-174.87 33.426-50.29 65.024-101.867 103.177-148.878 12.74-14.345 49.271-60.975 55.708-48.269-20.04 42.359-48.898 79.933-72.236 120.563-43.018 72.036-89.147 142.216-126.983 217.172-30.324 39.642-47.717 92.261-93.954 117.277-2.752.303-6.755 14.215-8.588 8.779m32.74-29.444c29.636-35.351 52.941-75.843 75.322-115.877 49.058-89.83 105.374-175.448 157.636-263.322 13.011-12.194 48.372-80.876 14.054-38.808-31.26 27.4-53.152 64.11-78.547 97.029-31.654 50.766-67.638 99.009-92.789 153.554-35.003 59.625-68.378 120.27-98.615 182.263 7.114.363 16.765-10.3 22.94-14.84m262.193-149.03c1.24-39.469 33.077-75.019 55.863-106.282 38.824-55.271 83.249-106.516 120.575-162.784 10.524-19.716 56.436-75.935 57.313-64.565-34.734 26.556-53.547 67.192-79.546 101.412-41.536 56.742-86.873 110.94-126.08 169.175-11.23 12.197-39.682 82.7-5.838 45.717 46.861-52.132 79.629-114.898 116.614-174.02 28.889-40.938 56.371-83.22 85.977-123.585 11.69-18.258 39.547-50.48 13.33-12.59-30.812 34.143-49.017 77.25-80.18 111.301-44.739 70.742-83.08 146.94-140.815 208.424-4.853 2.99-10.285 13.496-17.213 7.797m11.734-357.221c30.238-50.487 64.991-98.306 97.479-147.286 9.328-16.607 59.604-49.272 19.674-16.866-37.394 38.272-59.67 88.276-93.059 129.95-12.6 18.234-21.258 40.536 1.506 13.497 32.233-40.629 78.562-69.55 102.806-116.449 13.766-15.292 46.577-80.362 23.852-28.444-24.074 36.18-47.762 72.166-80.935 100.998-26.104 17.848-42.827 56.075-71.323 64.6" style="fill:#000;stroke-width:1.33333" transform="matrix(1.05759 0 0 1.10703 -693.68 110.652)"/><path d="M1301.987 384.212c7.01-4.177 13.638-9.03 19.619-14.588 2.85-2.65 5.55-5.58 8.227-8.401 2.12-1.987 4.623-6.044 7.322-7.456.39-.204.867-.173 1.307-.195.525-.027 1.134-.233 1.578.05.348.222-.819.115-1.228.173 1.348-.076 12.16-.126 5.277-.105-.023-.104 1.025.132.94.067-.355-.27-.86-.302-1.201-.589-.98-.82-1.187-1.304-1.709-2.236-1.338 3.317-2.387 6.741-3.63 10.097-1.092 3.425-2.926 6.423-5.05 9.285-1.036 1.673-2.277 3.205-3.405 4.812-.396.565-.73 1.173-1.144 1.725-.544.725-3.328 3.86-3.595 4.165-3.907 4.717-1.93 2.285-5.925 7.299-.437.727 9.852 6.896 10.288 6.169 3.722-5.283 1.988-2.688 5.226-7.77.564-.909 2.307-3.743 3.041-4.83 1.52-2.25 3.604-4.103 4.808-6.58 2.151-3.612 4.486-7.157 5.897-11.147 1.562-4.18 2.986-8.466 3.474-12.922-.111-.952.012-1.962-.334-2.856-.964-2.488-1.835-2.997-4.018-3.918-.321-.136-.904.21-1.223-.032-.94.001-1.88.01-2.82.003-.148 0-.59-.027-.443-.026.86.008 1.723.137 2.577.047.338-.036-.664-.142-.996-.214-2.022-.44-.756-.192-3.113-.605-3.918.016-5.484-.397-8.895.792-5.068 1.766-8.892 5.713-12.703 9.299-1.274 1.213-2.52 2.46-3.824 3.641-7.199 6.52-15.131 12.235-21.829 19.303-.533.53 6.971 8.073 7.504 7.543zM1391.137 586.805c.587-.453 1.207-.865 1.76-1.359 5.807-5.195 10.904-12.152 15.34-18.505 3.277-4.867 6.92-9.068 11.68-12.52.498-.36 3.905-2.494 4.529-2.886 2.375-1.383 3.94-1.968 5.298-4.601.226-.44.243-.957.365-1.436-.017.111.058.358-.052.333-3.255-.75-6.353-2.315-9.683-2.576-.672-.052-.716 1.143-1.033 1.738-1.419 2.665-2.272 5.51-3.22 8.363-.92 3.848-3.155 7.088-5.226 10.385-.347.71 9.7 5.622 10.047 4.911 2.293-3.973 4.675-7.95 5.788-12.451.756-2.414 1.318-4.882 2.159-7.265.159-.451.9-1.058.514-1.339-2.604-1.892-5.567-3.277-8.546-4.499-.285-.117-.168.594-.251.891.446-1.433.032-.407 1.417-2.307.048-.065.187-.232.107-.217-1.441.265-3.17 1.265-4.528 1.652-2.221 1.133-3.782 1.86-5.923 3.292-5.704 3.816-10.266 8.985-14.236 14.532-4.563 6.7-9.204 13.353-14.2 19.742-.432.558 7.46 6.68 7.894 6.122zM963.22 1098.9c1.73-6.013 2.13-12.279 2.832-18.463.511-4.508.27-1.594.452-3.945l-11.847 2.342c-.683-.602-1.346-2.384-2.049-1.805-1.122.923-.638 2.835-.933 4.258-1.7 8.215-2.8 16.462-3.878 24.779-.888 8.248-1.467 16.55-1.412 24.852.01 1.48.029 2.963.18 4.434.063.606-.147 1.7.458 1.769 4.726.538 9.512-.061 14.268-.092 1.5-5.723.781-2.629 2.071-9.304.111-1.141-16.032-2.715-16.143-1.573-.313 7.058-.404 3.821.059 9.714 4.666.88 9.254 2.421 13.998 2.64.714.033.686-1.268.889-1.954.427-1.451.721-2.94.992-4.428 1.476-8.093 2.02-16.31 2.854-24.482.64-8.354.844-9.961 1.173-18.082.028-.687.378-10.396.11-12.058-.383-2.383.41-6.154-1.85-7.001-3.964-1.487-8.402 1.054-12.603 1.581-.446.888-.99 1.732-1.339 2.663-2.664 7.124-2.523 15.646-2.697 23.146-.071 1.02 14.344 2.028 14.415 1.009z" style="fill:#000" transform="matrix(1.05759 0 0 1.10703 -693.68 110.652)"/><path d="M185.902 929.766c.537-1.888 1.39-14.168 1.897-27.287l.92-23.853 12.953-21.913c7.124-12.052 16.817-29.853 21.54-39.558s11.937-23.435 16.031-30.511c4.095-7.076 19.88-36.076 35.08-64.443 15.199-28.368 33.977-62.693 41.73-76.277s19.217-34.18 25.477-45.766c15.578-28.834 45.476-78.594 75.482-125.623 13.784-21.605 29.838-47.127 35.676-56.716 40.233-66.084 129.034-183.586 169.094-223.745 9.565-9.59 25.817-26.751 36.115-38.137 24.983-27.625 37.782-37.875 43.148-34.56.844.523 1.535 4.637 1.535 9.144 0 7.962-.592 9.182-20.95 43.138-26.245 43.774-47.126 76.05-65.298 100.927-7.768 10.634-15.99 23.022-18.272 27.527-5.333 10.53-17.802 29.455-39.693 60.24-9.61 13.514-21.53 31.196-26.489 39.292s-17.843 28.451-28.632 45.232c-39.193 60.963-86.592 136.786-91.123 145.767-9.35 18.536-70.108 117.382-93.03 151.35-6.202 9.19-19.624 29.784-29.827 45.766s-24.925 37.558-32.716 47.946c-7.79 10.388-19.253 27.714-25.473 38.501-18.994 32.947-31.589 49.199-42.761 55.178-3.18 1.702-3.33 1.601-2.414-1.619" style="fill:maroon;stroke-width:1.45289" transform="matrix(1.05759 0 0 1.10703 130.32 325.85)"/><path d="M360.666 931.902c-4.665-4.665 9.327-40.225 45.356-115.263 15.277-31.818 24.613-48.979 40.314-74.098a33088 33088 0 0 0 37.587-60.295c9.435-15.183 24.163-38.066 32.73-50.851 8.566-12.786 20.65-31.42 26.853-41.408 14.096-22.698 30.365-45.663 70.422-99.405 33.348-44.742 36.85-49.763 47.994-68.834 3.874-6.63 14.483-22.648 23.576-35.596 9.093-12.949 19.065-27.75 22.16-32.89 6.221-10.335 15.217-30.11 15.245-33.513.029-3.428 26.65-52.49 51.72-95.319 17.079-29.178 23.162-40.851 24.017-46.093 1.642-10.055 7.429-19.08 15.125-23.591 18.354-10.756 32.672-2.252 30.808 18.299-.589 6.494-3.671 13.92-16.048 38.651-17.552 35.073-26.202 50.221-40.959 71.73-5.756 8.391-20.922 33.235-33.702 55.21-88.833 152.747-82.651 142.635-131.909 215.755-17.764 26.37-49.267 75.079-70.007 108.241-52.883 84.559-103.933 163.326-112.526 173.62-4.002 4.795-15.69 21.14-25.975 36.323-31.236 46.115-47.6 64.508-52.781 59.327" style="fill:red;stroke-width:1.45289" transform="matrix(1.05759 0 0 1.10703 130.32 325.85)"/><path d="M9.78 909.612c-1.456-1.455-1.695-3.04-1.286-8.524.587-7.872 4.64-19.197 16.205-45.263 4.387-9.889 7.77-18.197 7.516-18.464s-2.726 2.045-5.495 5.137-5.056 5.213-5.08 4.713 1.52-5.354 3.434-10.787c1.913-5.433 5.43-16.12 7.816-23.748 7.33-23.437 14.225-39.797 37.233-88.352 7.363-15.54 15.903-34.031 18.978-41.094 10.613-24.381 60.63-117.631 95.506-178.058 46.579-80.705 92.988-151.618 137.954-210.795 7.728-10.17 21.609-28.432 30.845-40.58 47.915-63.023 90.293-111.858 126.808-146.13 19.215-18.034 70.715-62.3 84.265-72.429 16.244-12.142 30.64-19.787 37.26-19.787 1.776 0-2.08 7.748-9.691 19.474-7.901 12.173-15.448 21.91-36.642 47.277-10.138 12.134-22.363 27.39-27.167 33.903-4.803 6.512-15.974 21.087-24.823 32.388-43.656 55.752-123.86 160.9-145.362 190.574-8.394 11.583-28.915 39.553-45.601 62.155-69.6 94.27-107.116 149.626-145.175 214.202-28.412 48.209-47.808 82.587-61.443 108.9a15113 15113 0 0 1-30.82 59.072c-20.654 39.34-43.608 85.248-54.45 108.9-4.663 10.17-8.595 18.63-8.738 18.798s-1.065-.499-2.048-1.482M114.057 864.387c0-1.04 27.556-54.59 40.354-78.422 13.082-24.36 36.383-66.015 48.56-86.811 4.633-7.911 11.94-21.412 16.24-30.001 12.815-25.6 23.518-43.259 64.636-106.637 22.53-34.73 60.786-87.849 74.727-103.763 10.731-12.249 37.368-38.894 37.747-37.757 1.156 3.469-14.137 32.34-24.176 45.64-3.125 4.14-12.349 18.568-20.497 32.062-8.148 13.495-27.657 45.394-43.353 70.888-48.806 79.273-68.649 112.792-100.722 170.148-29.317 52.428-57.672 95.546-73.048 111.082-8.417 8.505-20.468 16.495-20.468 13.57M421.784 333.673c1.64-5.52 9.497-18.471 19.218-31.68 5.765-7.832 19.67-28.47 30.902-45.859 30.196-46.755 44.935-66.284 50.188-66.497 4.277-.173 13.697-7.207 25.845-19.302 6.119-6.092 11.541-10.819 12.05-10.505 1.35.835-2.562 10.41-6.692 16.378-1.964 2.838-5.892 7.934-8.728 11.324l-5.156 6.165 2.517 2.23 2.516 2.231-3.578 4.96c-1.967 2.73-6.227 9.225-9.466 14.437-10.331 16.625-22.308 30.382-50.504 58.014-15.014 14.714-30.455 30.282-34.312 34.595-22.905 25.614-26.415 28.94-24.8 23.51M405.441 694.832c-2.754-2.754 2.27-20.574 10.655-37.797 7.336-15.066 30.286-47.479 73.472-103.765 48.333-62.996 68.073-89.726 86.551-117.201 23.245-34.564 31.115-44.67 34.164-43.874 2.691.704 9.26-5.361 16.093-14.86 3.893-5.41 6.494-7.811 6.494-5.993 0 .234-7.545 10.983-16.766 23.885s-25.483 36.173-36.138 51.712c-10.655 15.538-24.99 36.342-31.854 46.23-13.037 18.779-16.134 23.707-45.522 72.429-28.435 47.143-46.405 73.925-66.545 99.173-16.377 20.53-28.361 32.303-30.604 30.06M186.272 930.494c.353-.92 1.195-12.892 1.87-26.605l1.23-24.932 12.222-21.07c6.722-11.587 16.195-28.928 21.052-38.533s13.56-26.018 19.34-36.471c5.78-10.454 21.141-38.654 34.135-62.669 28.97-53.54 75.882-137.9 88.92-159.905 25.588-43.183 84.634-137.52 109.142-174.376 35.214-52.953 86.159-120.759 123.209-163.984 6.053-7.063 21.942-24.4 35.307-38.526 48.361-51.113 57.733-60.065 64.726-61.82 3.324-.834 4.242.982 4.261 8.427.02 8.06-2.471 13.219-22.04 45.627-25.393 42.055-39.236 63.345-70.444 108.343-5.055 7.289-10.993 16.535-13.195 20.547-5.16 9.401-17.142 27.523-36.067 54.553-18.821 26.881-18.87 26.957-62.583 95.779-57.77 90.952-77.826 123.308-91.557 147.703-29.45 52.322-115.089 186.25-154.981 242.373-5.59 7.865-15.418 23.016-21.839 33.668-13.958 23.157-22.367 35.161-30.45 43.466-6.526 6.705-13.42 11.431-12.258 8.405" style="fill:red;stroke-width:1.02735" transform="matrix(1.05759 0 0 1.10703 130.32 325.85)"/></g></svg>
