<?xml version="1.0" encoding="UTF-8" standalone="no"?>
<svg
   xmlns:dc="http://purl.org/dc/elements/1.1/"
   xmlns:cc="http://creativecommons.org/ns#"
   xmlns:rdf="http://www.w3.org/1999/02/22-rdf-syntax-ns#"
   xmlns:svg="http://www.w3.org/2000/svg"
   xmlns="http://www.w3.org/2000/svg"
   xmlns:sodipodi="http://sodipodi.sourceforge.net/DTD/sodipodi-0.dtd"
   xmlns:inkscape="http://www.inkscape.org/namespaces/inkscape"
   inkscape:version="1.0 (4035a4fb49, 2020-05-01)"
   sodipodi:docname="wurry2.svg"
   viewBox="0 0 778.71869 1327.7192"
   height="1327.7192"
   width="778.71869"
   id="svg10"
   version="1.1">
  <metadata
     id="metadata16">
    <rdf:RDF>
      <cc:Work
         rdf:about="">
        <dc:format>image/svg+xml</dc:format>
        <dc:type
           rdf:resource="http://purl.org/dc/dcmitype/StillImage" />
        <dc:title></dc:title>
      </cc:Work>
    </rdf:RDF>
  </metadata>
  <defs
     id="defs14" />
  <sodipodi:namedview
     fit-margin-bottom="0"
     fit-margin-right="0"
     fit-margin-left="0"
     fit-margin-top="0"
     inkscape:current-layer="g18"
     inkscape:window-maximized="1"
     inkscape:window-y="-11"
     inkscape:window-x="-11"
     inkscape:cy="601.0031"
     inkscape:cx="343.50561"
     inkscape:zoom="0.78671483"
     showgrid="false"
     id="namedview12"
     inkscape:window-height="1826"
     inkscape:window-width="1080"
     inkscape:pageshadow="2"
     inkscape:pageopacity="0"
     guidetolerance="10"
     gridtolerance="10"
     objecttolerance="10"
     borderopacity="1"
     bordercolor="#666666"
     pagecolor="#ffffff"
     inkscape:document-rotation="0"
     inkscape:pagecheckerboard="true" />
  <g
     transform="translate(-171.54761,-312.12649)"
     id="g18"
     inkscape:label="Image"
     inkscape:groupmode="layer">
    <path
       d="m 797.3141,1639.8457 c -42.0467,-41.6885 -103.06529,-2.6236 -153.02096,-11.3174 -57.56078,-18.4681 -117.13794,-12.3045 -176.40246,-16.3649 -53.21716,-4.4574 -123.81994,22.5667 -164.26227,1.3686 46.50199,-26.8815 66.34856,-80.8877 67.63064,-132.5812 -7.00821,-41.0779 -66.88273,-105.2714 -83.37011,-113.5117 3.54443,24.6486 -5.78104,62.509 -15.39207,15.6013 -13.46264,-57.9296 -27.01469,-116.4822 -34.68894,-175.1043 -3.38366,22.0276 -24.34591,90.4298 -18.10286,30.2867 -6.38961,-39.8358 -20.19567,-101.7284 -17.24069,-128.303 -34.52855,25.1977 9.45687,-55.8972 6.56777,-74.0641 9.04714,-48.19946 -21.07754,-91.74032 -22.34298,-139.81213 -6.89486,-46.47651 -10.66627,-93.33095 -15.14156,-140.0809 14.93071,-30.79693 27.2498,55.98204 19.45555,0.95401 -8.29207,-52.92169 -34.30517,-144.90123 4.72153,-172.75204 -2.89366,-38.88673 9.79282,-66.42683 33.66965,-80.53178 19.79945,-22.11929 19.72708,64.13087 21.52007,4.19458 -4.4722,-46.46061 30.72117,-87.49774 51.3738,-106.32282 -1.8953,29.58628 10.15715,-12.78571 10.90106,19.05013 1.65186,30.94222 -1.41483,-26.90764 11.08699,-6.7372 10.13249,-35.70384 15.16264,60.49053 18.63615,0.4421 0.6027,-36.86604 22.51484,-12.29925 14.67777,9.9475 6.68277,-25.66793 44.5643,-112.68499 34.64827,-40.20145 4.96044,-23.32376 30.11834,-76.78092 26.49936,-19.35167 4.33641,-20.17716 14.28066,-50.9936 20.41606,-21.74527 16.34103,23.97875 5.33556,102.16205 15.62303,33.63593 16.28313,-51.71816 15.13241,66.27283 21.92862,-3.66814 7.41966,-31.49007 6.445,28.233 15.15215,-5.31397 21.42992,-27.23145 10.09066,27.35114 26.34773,-9.42291 1.54406,44.5772 27.21187,-64.67988 30.35357,-3.90856 10.90235,-56.8167 23.12268,41.36208 27.07626,-6.17758 7.11327,-46.23041 28.32812,-11.36148 29.8442,10.90082 -2.14834,-22.25245 1.52008,-77.87039 9.26469,-24.11206 0.28609,26.64808 34.39707,68.9518 25.8619,15.16392 1.1305,-89.33207 40.67388,61.5868 35.5157,31.31953 -4.07359,-19.21038 -2.60349,-102.0363 9.48559,-40.02546 4.73872,18.4126 10.5054,49.83581 19.82757,19.70133 19.76332,14.12799 33.88425,106.98999 34.09552,36.79572 17.13685,-18.84761 32.94431,90.29723 35.45679,21.77409 21.85443,3.1784 39.75943,85.79126 44.57175,22.05288 20.90875,2.92972 23.33536,81.10571 31.53172,23.98395 19.31531,27.08505 14.79323,94.73286 32.82468,105.18428 23.54954,-13.95511 28.11354,63.70197 28.83601,90.00211 9.87134,42.15753 -11.45388,110.2099 5.82632,136.9852 14.42697,-24.47496 4.40259,-89.06555 23.12597,-90.10888 18.61057,53.90256 0.48381,112.69747 4.44299,168.61487 1.28057,73.68341 12.8847,150.47807 -14.21253,221.19797 -28.92427,14.7528 -5.42619,67.3654 -27.57904,76.026 -11.23376,35.6738 -3.94984,64.5735 -3.41512,103.3035 -3.22771,-25.0024 -34.73675,-114.9571 -18.79676,-41.6394 6.39951,37.1609 -4.83118,82.901 -34.06631,71.7887 -26.26923,14.7413 -13.59545,93.9905 -42.47912,77.7153 -9.34158,-20.3612 -35.02765,54.305 -51.7154,71.6398 -37.29425,40.8803 3.41062,-91.6771 -28.60071,-25.9561 -15.09165,27.3314 -51.40787,93.0437 -54.40196,86.5287 -5.18489,-23.5378 5.50728,-82.2494 -15.40099,-31.0389 -5.82286,30.8292 -43.68619,75.1987 -43.13977,14.6884 -13.59321,23.0116 -31.75821,44.645 -56.30305,28.8073 -32.59062,2.4458 20.78799,25.1296 -15.47453,14.6726 -22.21937,-9.1979 -64.64191,-87.797 -44.1438,-22.5549 -36.2521,-22.7169 -75.32296,-38.0551 -106.69257,-72.046 -4.22149,33.5378 -23.42608,90.0206 -45.55205,130.702 -25.241,20.5983 -45.40262,52.3996 2.47651,29.4384 52.22766,10.0821 100.56053,-10.6162 154.30313,-2.0302 52.77149,-1.816 104.64941,2.9055 156.07733,15.81 41.16879,-1.8473 85.24645,-14.3554 125.25151,-9.6198 -18.14417,-42.2227 -35.62806,-86.1047 -27.06059,-134.4134 10.14618,-37.6578 2.50997,99.9685 9.73458,63.2295 -3.11308,35.4309 59.48383,84.0919 32.35871,97.3104 z M 587.54761,1530.9166 c -2.24455,-3.8725 -1.31647,3.7917 0,0 z m 40.84652,-5.8505 c -2.02475,-11.3043 -5.76526,14.19 0,0 z m -45.84652,-1.1495 c -4.80922,-7.584 2.3045,6.9669 0,0 z m -22.06981,-3.2434 c -4.79937,-12.0431 -5.97941,15.5006 0,0 z m 38.03536,-8.7566 c 26.99638,-27.8582 -0.54872,-110.3135 -29.75917,-88.572 1.84996,48.4985 -33.30293,-48.4415 15.18438,-14.6393 31.51875,41.0212 22.74707,-88.2488 57.87999,-20.0731 20.6789,-23.3202 39.11128,-15.3377 62.08271,-6.2769 11.4409,-24.8701 13.35941,-38.3337 8.23569,-2.9633 -16.27093,25.1465 -65.51507,-24.9196 -68.53113,20.223 -30.21083,-51.5093 -48.7066,25.3775 -24.5239,44.4948 6.32129,14.1215 10.44041,98.9002 23.27308,41.3503 13.18519,-19.1509 34.30779,-84.4604 47.57275,-72.1134 3.3981,24.9709 -8.65355,89.6648 12.87384,34.8487 7.73266,-25.199 43.26272,-104.7958 53.97805,-37.3342 2.98459,33.2985 -12.99289,42.442 6.48387,6.5788 31.06586,-51.318 66.00214,-106.4395 63.8455,-168.6623 -37.24437,-16.8882 -38.44532,42.315 -61.85856,62.2451 -6.51904,8.6608 -22.40037,44.9455 -12.63353,4.1506 43.46931,-18.5918 16.9281,-87.0127 64.0655,-72.8637 13.20658,-17.3369 -1.55625,-89.8793 23.90588,-40.271 3.10662,30.7195 22.63867,42.4136 18.3523,2.4881 -8.80771,-22.4555 -32.46122,-111.5351 -5.62535,-50.1773 14.51134,34.6811 25.74901,135.2919 20.87115,122.8687 3.73803,-49.0347 -3.92258,-98.7806 -20.87433,-144.6362 17.14812,-7.4852 54.45156,102.7977 42.31648,26.6113 -7.68622,-20.9714 -47.57415,-99.4869 -2.15779,-51.5287 -1.75204,-36.2013 -9.43682,-100.9013 -39.43867,-120.90973 -38.99023,4.82652 -54.72944,12.51107 -78.28588,47.66993 -25.54028,6.0397 -118.03057,-2.2743 -94.94994,36.9249 46.26657,-15.5271 77.91992,39.7334 88.5215,77.6487 10.72607,41.6379 18.76649,91.9501 -17.97968,123.384 -18.44616,41.3955 -61.4052,56.4444 -102.41412,65.3163 -46.07794,25.6819 -89.8623,-10.6963 -138.35446,5.4038 -59.15848,2.6637 -131.54008,-22.8003 -146.99124,-86.6747 -11.46265,-46.6782 -0.99625,-97.2038 28.31445,-135.8583 54.17316,-34.081 3.90108,-95.7345 -47.32962,-75.7824 -30.56957,-14.3928 -77.28648,2.9753 -72.0449,-31.6154 -34.61132,-54.8858 -63.3159,45.9664 -68.72065,75.6356 9.50145,-12.094 62.85701,-50.0224 37.30229,4.6314 0.37127,27.4292 -26.30757,80.5791 -2.25629,92.316 20.47912,-11.9982 9.08643,58.1538 19.05039,79.2716 3.35195,23.2299 21.15905,123.7302 17.4083,55.2654 -6.51499,-33.8122 20.69745,-62.3264 18.17778,-13.3588 5.90731,35.8239 38.12931,107.9432 64.53458,105.6406 -16.1986,-24.1772 -21.65001,-88.3424 2.29094,-29.1876 23.7043,46.0777 69.61119,75.1677 110.08446,104.642 -15.66611,-24.1674 -15.9629,-96.677 14.38132,-39.701 11.42186,26.1007 89.09471,91.7962 53.17776,28.7146 -23.15902,-22.8396 -14.50189,-62.7048 11.60897,-23.1811 15.6821,3.0051 39.16215,89.6168 48.9553,58.0562 z m -173.46555,-79.4133 c -38.44703,-15.4563 -32.71201,-55.6357 -13.11095,-44.6463 -38.72326,-25.0069 -0.38468,-71.8956 11.5052,-35.3003 -61.96268,-21.18 43.0556,58.9525 -22.17706,47.2474 3.94372,6.4915 53.38902,34.784 23.78281,32.6992 z M 319.05903,1321.8325 c -17.23236,-31.6757 11.10871,-69.7974 -21.66983,-105.8214 7.17852,-17.5631 36.35733,-26.7916 2.95423,-48.7059 -18.59996,-6.6085 -29.38117,41.4069 -12.82745,1.443 17.32319,-21.3811 0.31723,-56.9224 21.43869,-15.2482 13.59485,22.7996 17.12866,-33.5776 11.76036,8.7735 -3.50791,26.4462 6.02922,42.1591 -14.12971,54.7423 2.74543,22.5261 40.28554,63.1895 12.53647,68.7441 0.2392,6.748 26.14309,58.3205 -0.0628,36.0726 z m 462.88405,-216.997 c -18.81906,-6.3206 -27.33875,-21.6156 -11.20796,-39.554 14.07911,49.1821 30.10735,28.972 31.24835,-7.4371 19.16276,12.8781 28.65705,18.3446 29.34721,-8.2666 17.00977,45.721 -37.64079,12.2842 -37.00754,53.5829 l -5.19484,2.8729 z m -523.5851,-25.4175 c 14.99377,-17.5424 101.61075,7.2615 41.68914,-4.6706 -13.77096,-7.007 -35.39899,5.7139 -41.68914,4.6706 z m 407.09133,372.3622 c 8.17635,-44.7004 -29.23911,70.1798 -0.10469,0.257 z m -235.98503,14.8534 -3.38758,-2.0576 z m 112.2391,-4.4982 c -14.17473,-17.0021 5.88788,11.8196 0,0 z m 209.85886,-13.2188 c 1.96146,-8.3769 -14.66969,25.2484 0,0 z m -77.09071,-4.9411 c -2.6184,-4.5677 -2.61559,15.848 0,0 z m -293.58046,-1.548 c -0.93642,-26.1983 -17.8895,-11.434 0,0 z m 332.98998,-4.7609 c 17.02981,-11.7312 29.63505,-69.254 8.5025,-22.9734 -0.27992,1.6427 -21.29528,38.5869 -8.5025,22.9734 z m -38.65033,1.0625 -0.18469,1.8064 z m 114.85444,-51.693 c 20.40206,-30.8806 -17.15125,22.2544 0,0 z m -497.53755,-39.4974 c 0.76898,-22.1387 -9.30021,0.5933 0,0 z m 321.5,-2.3818 c 48.36603,-20.132 117.30006,-21.6312 135.93269,-81.3571 40.03503,-50.3749 15.23379,-121.6801 -17.99384,-168.8588 -40.9687,-32.3314 36.16696,53.5321 23.6614,77.6742 -22.1557,13.7712 -29.33302,-120.4412 -73.2214,-69.564 8.42535,-5.94 7.8933,-51.3525 -9.66572,-13.1575 9.42242,34.5807 3.23801,92.0831 -41.01478,46.7456 -29.9682,-16.6655 -52.66321,89.4127 -82.31998,32.3113 -7.37892,-64.4656 -77.96502,37.7234 -80.12567,-31.7249 -38.6326,-63.8844 -56.00849,38.3067 -62.12409,70.0133 -24.78748,32.7671 1.87861,-50.4213 5.40329,-68.9309 4.53779,-44.1153 -59.53129,54.8332 -38.86222,85.7815 5.28752,61.8815 60.92322,115.7796 124.75118,110.063 39.07529,0.2772 79.53391,-9.3641 115.57914,11.0043 z m -49.5,-36.4018 c -55.87036,1.9162 -129.47552,-7.1586 -151.84253,-66.6678 24.38249,-25.2732 78.73266,-19.8835 78.58801,-67.0864 5.74551,61.0143 84.30889,51.6298 127.79545,35.9841 41.46911,3.8131 17.14769,-69.1269 50.35484,-28.7841 19.74564,8.7782 111.85302,8.9133 73.22413,61.0653 -33.33972,36.0884 -82.41207,68.6824 -131.44405,63.5784 -15.20877,0.872 -31.83008,7.5086 -46.67585,1.9105 z m 20.97421,-5.5885 c -24.31289,-45.4074 -59.46767,9.4584 0,0 z m 29.79951,-1.1289 c 42.46306,-8.0393 -35.45082,-45.3626 -24.48723,0.7956 6.16964,4.2013 16.91913,-1.6138 24.48723,-0.7956 z m -81.08501,-1.6293 c 7.15336,-33.4105 -30.86726,10.5274 0,0 z m -19.68871,-1.0176 c -16.30959,-17.4301 -8.41437,-99.8778 -29.12888,-82.4177 -12.6242,31.0118 -29.03673,94.188 29.12888,82.4177 z m 134.78212,-0.1244 c 64.94231,-22.4459 -43.52174,-25.6795 0,0 z m -97.00608,-11.6735 c 15.37126,-30.6375 48.51275,29.73 59.90309,-17.2916 17.16553,7.0641 33.70903,42.9564 33.25181,1.8532 63.88232,17.465 -22.39571,-99.1045 -16.24801,-21.3342 -14.99508,-9.1252 -26.33665,-44.5953 -19.59134,-2.0899 -5.06628,32.372 -54.23799,-34.2955 -57.43323,10.9634 -16.3038,-10.3695 -29.24904,-51.0239 -29.91595,-7.1262 -27.99738,-16.2841 -2.84749,60.2357 9.22536,24.8424 7.80524,3.3773 14.73454,33.6414 20.80827,10.1829 z m 133.72396,-2.7609 c 76.86948,-10.0586 -20.32734,-85.4797 -24.46873,-90.3181 7.15092,30.1867 8.19828,63.2105 24.46873,90.3181 z m -221.5,-1.7317 c -0.64901,-52.5765 -50.35152,-13.4895 0,0 z m -20.88832,-27.1349 c 59.5291,7.2631 -28.75427,-53.8546 -6.16669,0.1566 l 2.79688,1.6737 z m 159.12387,-32.0488 c -30.58675,-18.0724 -36.63433,38.1837 -1.4891,27.6942 2.15664,-9.1326 -1.31011,-18.566 1.4891,-27.6942 z m 131.34641,20.75 c -7.37504,-40.4705 -20.85729,21.8594 0,0 z m -179.22372,4.5 c 12.96239,-44.9732 -40.87841,-16.2066 0,0 z m -127.89677,-4.6583 c -12.93606,-17.1827 -2.85343,16.6984 0,0 z m 92.46824,-5.3047 c 18.69891,-38.253 -38.67956,-7.8831 -1.08942,5.3311 l 0.61764,-3.0224 z m 109.61415,-5.9049 c 9.84424,-45.9607 -26.51083,11.5518 -0.15488,0.7452 z m 86.52492,2.0321 c 3.38936,-16.3935 34.36522,-21.1002 -2.55602,-32.8542 -62.99101,-28.4812 3.03838,42.3595 2.55602,32.8542 z m -237.54261,-12.1666 c -7.60168,5.8566 -3.74362,19.0075 0,0 z m -8.30769,5.0024 c 23.68611,-30.257 -39.6018,9.3679 -2.04527,4.0029 l 1.40359,-2.747 z m 275.20346,-2.7882 c 7.56778,-26.0726 4.199,12.5258 -4.97883,4.7142 z m -83.88498,1.7882 c 2.95602,-31.7191 -33.55143,-21.4456 0,0 z m 54.46304,45.9243 c 9.79005,-18.0787 7.31361,-0.5415 0,0 z m 109.24462,40.8257 c -1.50898,-20.5015 -1.09316,36.3313 0,0 z m -535.56151,8.8125 -0.18469,1.8064 z m 555.76678,-20.3205 c 5.64046,-28.7247 -8.99653,17.5748 0,0 z m 25.93167,-2.0439 c -1.5835,-3.53 -1.43437,5.6058 0,0 z m -33.3852,-16.2583 c 9.24706,-22.6621 -11.37681,-58.2214 -3.99636,-14.8981 1.3227,4.686 -2.87512,39.2261 3.99636,14.8981 z m -460.57559,-19.4398 c -4.29214,-30.2015 -17.36837,-10.55 0,0 z m 481.97224,-0.3318 c 8.03928,-24.6829 -10.53622,-5.6619 0,0 z m -1.39301,-22.0406 c -5.08751,-4.0819 -1.45424,10.5099 0,0 z m -634.31689,-38.5651 -0.18469,1.8064 z m 143.87298,-18.5897 c -3.44192,7.3904 3.24003,14.2192 0,0 z M 220.56492,1166.269 c -0.84238,-19.3657 23.57123,-117.5749 -2.8844,-64.815 -11.86739,6.8241 -6.53886,108.4756 2.8844,64.815 z m 357.2052,4.6476 c 28.53265,-21.9216 35.5988,-95.584 76.56403,-37.5707 33.26625,-39.6516 -7.61839,-122.482 -52.08446,-60.3959 -24.0817,-40.2522 47.90408,-95.72908 -4.73756,-133.85263 -25.70984,-58.51647 34.89247,-97.35548 67.97544,-134.25736 36.34812,-25.65229 91.49484,-82.50986 138.14277,-45.75125 32.35501,28.56842 59.75236,62.4064 75.91727,102.87102 -22.51425,1.10308 -59.77392,-42.90198 -87.38736,-60.58487 -41.69474,-51.03309 -103.34611,14.2097 -139.8487,44.93614 -26.40356,35.9566 -66.56136,82.006 -17.91823,120.76514 13.78382,26.23167 -35.21155,88.49681 -16.27156,83.69061 39.1711,-25.7219 86.15979,-12.5901 127.48241,-24.3908 32.62922,4.1965 49.11154,-41.11703 86.15284,-44.41311 9.94849,-21.13027 12.63195,12.4256 26.11315,-15.59676 8.75826,31.30029 2.49452,-10.45328 21.94579,7.21777 15.97851,-61.87639 31.21954,-140.95343 -21.03212,-190.97629 -14.00579,-57.48999 -50.55303,-103.8524 -75.4307,-157.69161 -13.81694,-40.07457 -25.58961,20.11013 -43.54148,-12.74981 -26.52469,-36.26596 -75.94578,32.00409 -82.19872,-28.50877 1.21011,-31.67146 -9.83479,31.94161 -26.27005,5.66688 -49.55563,27.42241 -51.69682,77.51059 -62.68919,127.66369 -15.44622,1.22979 -8.87708,-35.34458 -10.45449,5.14319 -17.38429,65.56925 -26.11305,-39.06909 -52.47016,-50.47899 -25.89433,-36.27861 -85.73392,-65.7408 -118.71994,-47.99607 -18.27189,-14.75941 -23.32026,31.43154 -54.92969,22.81952 -11.19179,41.9249 -59.17607,62.30834 -65.32119,108.74586 -17.8732,48.34853 -4.60474,102.55381 -18.87621,150.81217 5.35022,21.16342 -20.72671,87.50465 27.6662,84.78568 14.60217,59.21745 90.88399,23.81665 126.97498,43.50285 25.87435,6.2092 46.96259,45.4165 64.09155,74.8304 -16.73481,-49.6905 47.71907,-72.6007 56.27891,-55.3771 -36.99222,-48.5106 0.86087,-107.39238 -22.42772,-151.81576 -16.68243,-50.52239 -67.35946,-66.2008 -87.4896,-112.56708 -9.77447,28.9719 -32.74589,-13.27526 -47.09059,17.54916 -38.95387,23.75745 -65.48118,66.03013 -78.38606,92.43427 -37.88251,30.83835 -5.72236,-45.15576 20.80352,-57.37788 29.20294,-43.58688 57.57845,-55.72909 96.68054,-82.67258 34.12576,-1.83682 65.58738,42.67342 84.83857,77.84582 24.99786,40.86668 57.43663,101.922 41.25506,130.83824 22.08284,28.48861 -4.36715,42.65301 -8.99917,5.45895 -11.20095,-19.30863 -5.93548,27.42136 10.44426,33.31706 2.30226,26.9381 9.98008,44.8823 12.4415,65.6685 -22.05403,10.3833 -70.03713,-38.0239 -51.2722,10.4478 0.67185,11.6148 -0.50984,47.1062 -11.13857,35.6127 23.40298,28.7118 -20.35776,9.7439 7.2127,37.3233 29.63797,13.5815 24.35529,-80.1946 50.18669,-32.5886 2.47668,20.4004 9.17627,54.5731 37.81754,47.6672 z M 405.22055,968.25625 c -37.47149,-9.63638 -110.13431,-21.60621 -107.33236,-68.27729 40.46396,-23.24882 104.65472,-40.64218 145.79266,-10.26671 51.34604,41.20147 25.37388,92.03271 -38.4603,78.544 z m 16.9083,-18.779 c 31.20316,-50.75298 -46.75514,-99.46683 -77.35995,-44.89569 -14.62567,39.01357 50.09439,60.01811 77.35995,44.89569 z m 25.7451,-0.3314 c 51.12509,-2.59639 -46.54134,-101.34308 -10.3783,-28.60174 0.72006,14.40421 -25.79296,41.01711 10.3783,28.60174 z M 328.94062,923.33488 c 10.32072,-25.80991 34.14372,-49.52573 -8.82174,-30.79913 -36.88192,4.28034 -10.78383,25.76705 8.82174,30.79913 z m 38.60699,-41.4182 c 1.19773,-4.29859 -7.19399,5.7767 0,0 z m 8.5,-2 c -4.62801,-3.45977 -6.0819,4.67862 0,0 z m 320.5,67.4065 c -41.03467,1.53273 -65.70035,-39.10336 -22.7876,-60.70769 39.77248,-48.39073 120.10124,-51.06948 169.82229,-21.20236 -19.2144,48.82412 -83.09528,83.3214 -136.06892,83.00735 z m 7.7299,-13.2766 c 51.18082,17.25768 103.9026,-52.57348 42.64541,-76.92025 -42.95705,-12.57312 -91.32753,56.61913 -42.64541,76.92025 z m -23.95703,-2.9684 c 8.89127,-39.32718 -14.46465,-49.36122 -23.00864,-11.51741 6.14529,6.29181 15.4947,7.57236 23.00864,11.51741 z m 108.17108,-19.1615 c 29.79484,-21.74321 73.60837,-48.45825 12.06296,-52.627 -42.1172,-21.80294 -27.63847,66.12761 -12.06296,52.627 z m 38.05605,-21.6033 c -12.91109,3.2994 -1.28135,4.63716 0,0 z m 84.88643,246.42752 c -6.59744,-9.2944 6.23827,19.2784 0,0 z m -386.88643,2.9463 c -4.07834,-0.4375 -1.94746,4.2436 0,0 z m -99.2285,-10.3324 -2.55766,3.4518 z m -25.78681,1.8118 c 0.0987,-7.2237 -4.76012,2.6782 0,0 z m 25.25465,-8 c 25.44145,-32.5633 -8.99683,-8.5746 0,0 z m -17.27478,-11.6911 c -4.18013,1.122 -2.74496,10.7772 0,0 z m 6.81202,0.3183 c -2.70114,-11.4817 -1.74691,18.1782 0,0 z m -216.64902,-0.6272 c 3.16257,-4.5852 -7.08855,6.4065 0,0 z m 717.64597,-1.0801 c 39.02404,-52.0674 25.29747,-122.02754 25.00379,-182.62187 -4.77684,-68.13676 8.8436,-136.697 -1.98959,-204.54795 9.00513,40.92896 -34.11638,76.95009 -19.3908,116.7681 17.53371,-31.70465 -1.12572,28.36269 -10.23926,18.04622 -14.05233,32.16862 -7.36781,57.9606 15.49482,75.7921 5.25534,46.24696 -47.04174,63.37253 -24.96746,109.7302 1.71021,22.3287 -3.44817,50.6808 16.0885,66.8332 z m -485.77353,-12.2316 c -10.32951,-0.295 -3.06024,13.3947 0,0 z m 52.2,-1.1383 c -4.5571,-0.9327 3.16502,7.3318 0,0 z m -38.2,0.2 c -1.31647,-3.7917 -2.24455,3.8725 0,0 z m -20.03596,-7.691 c -5.26624,-7.8382 -7.10178,23.3153 0,0 z m 15.41826,-4.559 c -6.15726,-35.5957 -3.53525,12.3964 0,0 z m 46.0926,-1.7094 c 1.7342,-19.4935 -9.75361,11.969 0,0 z m -52.50649,-13.2673 c -10.49891,-4.1733 5.21687,10.5542 0,0 z m 105.53159,-1.7733 c -5.86318,-1.6556 1.10479,6.5059 0,0 z m -135.5,-21.8776 c -4.11223,-12.7172 -8.57957,9.085 0,0 z m -54,-8 c 2.36663,-26.161 -28.36287,10.8061 0,0 z m 15,0.4128 c -6.44967,-18.2093 -5.07739,9.5055 0,0 z m 527.51903,-3.7852 c -3.6784,-27.6487 -0.80838,13.3311 0,0 z m -283.40992,0.046 c 9.90837,-20.4742 0.76743,-13.2289 -1.80739,1.5123 z m -384.98599,-9.2961 c 0.7195,-9.016 -9.8849,23.13 0,0 z m 4.37688,-11.5 c 4.77436,-7.1328 -7.61493,7.8363 0,0 z m 2.25026,-12.0124 c 28.03269,-20.5751 -41.62697,-45.27182 2.3987,-68.88409 17.825,-31.41914 -30.56045,-106.86043 -38.57043,-104.4799 0.38754,57.62449 14.19071,114.57165 26.81123,170.31594 0.67535,4.49205 6.63627,6.35865 9.3605,3.04805 z m 8.81711,-5.90275 c 20.21992,-24.11932 -25.00309,24.40745 0,0 z m 644.18466,-5.5845 c -4.18865,-25.35196 -4.38728,29.28095 0,0 z m -250.77235,1.5395 c 8.60068,-33.28827 -8.37948,7.61521 0,0 z m 274.31425,-10.8875 c 27.4553,-12.65656 -1.91688,-92.71795 -5.87915,-33.87801 0.40786,7.4921 -15.25735,45.33159 5.87915,33.87801 z m -666.29645,-2.4023 c -5.31369,-55.66225 -29.00693,-23.86965 0,0 z m 286.09454,-26.0318 c 7.26548,-17.53835 -9.6983,-0.0255 0,0 z m 93.49784,-84.84757 c 7.91098,-32.65879 -15.24754,28.74823 0,0 z m -322.86746,-7.4816 c -17.03303,15.38347 -1.0916,7.7924 0,0 z m -47.72358,-3.7615 c 5.47198,-46.73768 0.66044,-109.65277 30.02418,-142.29011 7.56899,-33.61686 44.51669,-54.27462 39.77129,-57.47411 0.84306,-16.73114 21.75968,-39.16464 29.51925,-12.92996 9.47381,-41.27459 59.43728,-32.97198 94.55925,-36.91841 31.53728,9.09434 40.19663,40.78267 66.36435,49.51989 -1.60939,-65.41033 16.11999,34.55368 35.87452,41.60456 44.0661,2.42707 11.63905,-67.22666 47.41584,-93.37221 9.25395,-11.23161 24.52688,-44.92635 26.56251,-10.26716 -13.49599,-37.15817 51.14824,-11.27704 29.05648,-9.85474 8.08641,-42.13332 13.94602,-6.70621 26.78732,-0.0596 8.85922,-24.22007 18.50186,48.08808 26.116,-1.69025 17.95092,29.53821 34.02647,-15.34607 39.481,20.60441 22.68123,30.40049 31.49946,-37.81147 49.10818,11.46591 19.65293,43.00898 59.25213,85.65836 69.79748,113.30204 -0.15904,45.64073 57.09496,92.31978 41.33629,19.01026 -7.46548,-35.83698 -37.70593,-84.8902 -71.73244,-114.32855 -32.15443,-4.88866 -59.34518,-102.91013 -24.51385,-36.79134 10.68269,27.78031 72.61076,63.86937 45.3566,7.51426 4.19335,-30.87142 -36.20402,-83.92035 -33.95449,-89.13984 49.38697,31.93808 35.01772,98.04827 52.70074,146.96498 6.24249,21.44264 41.82631,79.06985 33.93281,28.52406 3.93003,-31.16587 -18.94178,-88.29085 -15.43658,-105.67696 -19.01059,57.14769 -21.60537,-64.50897 -34.86981,-80.06222 -18.61223,30.19345 -24.90547,-92.52407 -32.7729,-23.40156 -24.8868,-0.6784 -44.49589,-80.35207 -38.5692,-21.08028 -23.62488,20.44254 -32.80789,-86.99364 -35.84786,-21.81118 -19.7538,28.59027 -40.68573,-109.44572 -37.66449,-23.49534 -15.31041,-13.24816 -18.05288,-62.8381 -31.38583,-23.21003 -15.32545,-13.99414 -33.4101,-84.6533 -28.30623,-23.70043 5.07385,32.46079 -35.29528,21.42037 -32.80074,-4.58357 -2.67732,77.34253 -33.36503,-72.78618 -29.76845,-14.68479 -1.21346,21.56866 -30.35704,28.21878 -28.10625,2.39348 -12.34519,29.18626 -23.68229,-22.54938 -32.16424,23.67603 -22.22821,29.52001 -33.71594,-22.48715 -39.07683,15.23634 -9.40442,37.15535 -27.89579,20.82633 -23.33938,-8.16736 -5.12471,23.84277 -12.696,80.70219 -25.33477,27.497 -7.88586,-25.11516 -8.9564,-79.29186 -13.17867,-20.37922 -21.50143,58.29361 -3.68008,-79.05261 -23.01871,-10.05737 -2.52193,20.80078 -22.69514,35.97019 -30.73252,20.03691 -2.97241,12.63812 -7.68766,63.481 -21.71284,27.00544 -10.20822,23.47005 -37.63484,50.19984 -48.15056,20.30394 -10.70345,13.70345 0.89002,-38.20928 -7.42155,-1.4953 -6.79203,48.45883 -6.06106,10.54911 -20.93262,-4.84593 -17.89977,33.2542 -7.43928,124.13658 -40.48692,117.9822 -2.39859,-76.49158 -1.49682,43.9097 -16.50173,29.77552 8.86787,-24.69468 -3.46439,-99.76187 -10.72646,-35.02401 4.04714,45.6391 4.95003,93.00597 -11.17972,135.54436 -9.36383,-18.42812 -4.18102,-129.33077 -9.78019,-53.29458 -4.22098,55.14898 18.94243,108.80366 26.71487,160.8878 -24.17054,-26.06263 0.31195,49.6763 23.18831,38.53866 5.61964,1.76847 9.97059,40.94096 15.79956,22.69839 z m -7.5504,-185.39282 c -18.97154,-18.42635 37.67905,-11.48881 10.91304,-43.12664 12.24579,-12.45844 3.45742,-32.43991 19.17243,-27.07263 1.28221,-45.29389 13.71594,28.47886 -10.78582,38.54889 -3.53291,16.25631 9.3257,35.73908 -19.29965,31.65038 z m 656.70951,-1.23469 c 0.86696,-4.55138 0.86696,4.55138 0,0 z M 564.68693,597.82843 c -12.20201,-17.59729 -42.68798,-33.32397 -51.1286,-2.96548 -24.99599,-40.01718 -42.5827,25.39954 -59.60009,-15.93358 -29.43834,7.51 -41.71329,-50.68294 -11.62509,-11.03139 11.02488,-31.13767 38.70749,56.30673 41.83544,2.35862 17.26017,1.04974 43.23784,30.73418 46.16626,-3.51746 12.40241,6.36953 86.83361,37.51732 34.35208,31.08929 z M 666.85655,534.6446 c -28.93236,-23.1995 -18.13887,-39.40577 0.0593,-16.84578 -14.98722,-71.03093 44.5518,36.81879 54.86248,-20.43656 29.30218,-5.67091 60.72664,50.2292 16.46288,12.48181 -25.08647,-23.00665 -20.77538,51.65091 -48.78699,5.30676 -31.51906,-30.06892 -0.59144,26.68681 -22.59765,19.49377 z m -367.53822,-5.22793 c -42.93012,-14.49109 45.60088,-3.74468 16.41519,-11.85111 -2.11776,-35.32692 35.5311,-56.86902 47.0146,-17.54552 15.43963,-12.39126 23.95759,-70.07778 41.80079,-22.38601 -3.97935,12.57874 -33.81774,-31.93234 -25.9713,12.74526 -12.80557,50.36849 -57.89572,-47.21194 -53.0295,15.92367 -1.1814,12.60167 -9.40455,34.94453 -26.22978,23.11371 z m 260.4369,-31.17164 c -7.20478,-13.86118 -20.34228,-67.86546 10.6991,-52.45001 -18.39614,-28.03863 20.04709,-43.86403 33.16758,-16.59215 21.88765,-21.81683 -19.62262,29.06717 -25.3005,-5.28214 1.0366,19.96125 -7.98648,47.75054 -21.00124,33.34204 -0.6388,5.73997 19.25341,55.2357 2.43506,40.98226 z m 72.88107,356.04275 c 7.86715,-15.02464 -11.96992,17.50774 0,0 z m 13.50201,-0.1138 c -7.11618,0.66449 0.15403,3.86496 0,0 z m -332.10198,-6.8804 c 2.51242,-7.21604 -6.35223,10.49481 0,0 z m 589.41161,-7.1859 c -1.4042,-9.60434 -2.00186,15.61325 0,0 z m -254.90292,-13.8922 c 10.2916,-16.12517 -23.06723,27.01054 0,0 z m -181.49741,3.7012 c -2.41328,-3.92709 -2.41328,3.92709 0,0 z m 203.5,-4 c 13.36625,-17.55128 -16.19102,18.29831 0,0 z m -338.6087,1.4227 c -1.20854,-4.59789 -5.22207,8.89541 0,0 z m 336.17161,-9.6727 c 9.26016,-9.73624 -11.62375,10.37189 0,0 z m -320.84989,-11.25 c 3.87662,-10.66313 -12.02049,20.71713 0,0 z m 106.28698,5.5818 c 0.47276,-10.06769 -6.99472,3.24521 0,0 z m 451.66233,-6.3318 -0.0477,2.43984 z m -224.66233,-1.4002 -4.53436,2.75338 z m 24.29774,-5.3498 c 6.55931,-13.34449 -21.67201,28.37358 0,0 z m -330.21142,-1.2814 c 11.5005,-24.67457 -8.94581,5.13925 -2.94258,0.2776 z m 313.35777,-7.6323 c 11.60888,-18.52308 -23.80684,26.56827 0,0 z m 35.22466,-6.4292 c 1.7509,-13.59756 -13.84325,24.78399 0,0 z m 70.45989,4.0271 c -8.56977,-5.95761 4.67023,8.77336 0,0 z m -413.12864,-9.5743 c -6.49062,-9.69703 -9.01987,28.06021 0,0 z m 328.65664,9.1401 c 11.13006,-12.57859 -9.32783,5.31203 0,0 z m -303.97353,-3.4375 -0.18469,1.80643 z m 336.8259,-8.1137 c 4.62229,-14.22364 -17.60743,27.81103 0,0 z m -334.67898,0.3012 c -4.34484,4.22517 0.69622,7.62208 0,0 z m 314.29753,0.25 c 3.16257,-4.58518 -7.08855,6.40645 0,0 z m -8,-1 c 3.16257,-4.58518 -7.08855,6.40645 0,0 z m 21.41139,-0.293 c 3.56554,-6.21109 -7.00874,7.07754 0,0 z m 10.96147,-12.9577 c 2.94154,-14.06326 -22.75923,27.1702 0,0 z m 1.99958,-6.9993 c -1.31648,-3.7917 -2.24454,3.87252 0,0 z m 159.50003,-66.11804 c -3.75696,-1.92912 -0.93449,4.93706 0,0 z m -5,-57.94099 c -2.99798,-5.35753 -0.13854,6.71081 0,0 z"
       style="fill:#000000"
       id="path22" />
    <path
       d="m 762.19048,1452.4762 c -3.87078,18.6401 2.23441,72.912 -3.59524,22.4702 5.42288,-59.1879 -0.9744,7.1728 0,26.0655 -1.41152,-32.8805 1.04901,-36.0602 3.59524,-61.119"
       style="fill:none;stroke:#000000;stroke-width:1px;stroke-linecap:butt;stroke-linejoin:miter;stroke-opacity:1"
       id="path34" />
    <path
       d="m 561.77217,1168.7391 c -22.33183,-9.7904 -20.72534,-93.1882 -47.36149,-41.973 2.65142,26.2868 -32.02778,42.9364 -33.6191,9.9721 24.53502,16.1468 -8.80459,-26.6679 12.36683,-16.5315 9.919,-23.9658 -7.30374,-42.685 2.17173,-60.7974 32.06904,23.9058 68.69755,13.5168 42.09061,-17.7488 13.25274,-21.2903 -36.60307,-71.34342 -16.5364,-71.11573 1.25102,34.84953 36.70635,32.66403 10.96776,-3.18247 16.94,-30.58458 -20.14,-97.0624 -45.22113,-136.92279 -20.44133,-33.3646 -47.6747,-77.2914 -87.17304,-70.13775 -41.87989,24.79967 -74.98094,58.06613 -107.17951,95.50249 -27.54,21.74284 -30.24872,75.4504 -0.68367,37.50827 24.17818,-48.89544 76.06763,-102.49714 119.56429,-98.3329 20.27008,27.74173 65.87887,60.0679 84.75103,99.74441 22.18503,25.36036 15.14957,50.14058 7.02912,79.748 -10.28271,32.67557 48.70361,101.36587 -10.5981,71.40787 -32.65369,1.9611 -16.55049,87.0349 -40.23487,34.5188 -29.24216,-18.6596 -26.02959,-51.7517 -60.8953,-51.782 -45.31288,-3.978 -103.84322,7.7725 -124.79386,-43.82963 -39.56162,-12.70778 -12.07841,-80.99059 -11.82663,-115.61674 1.98152,-50.56243 2.81101,-102.39806 27.01513,-148.06808 18.56618,-24.73004 42.09281,-57.08933 60.41108,-74.70785 30.3489,-8.03314 43.02322,-48.40959 73.26184,-23.61801 55.00333,-2.20072 94.94315,47.37319 116.08753,92.56185 0.82271,39.38487 30.70901,36.26729 29.05888,0.15647 32.25958,-10.45349 3.43694,-99.85064 59.72344,-110.77312 7.00601,-13.95847 34.66668,-11.92267 36.82528,-21.73286 10.71532,58.4703 71.7261,-5.45419 101.44673,41.21419 31.43351,-34.31059 42.34318,65.30112 69.35176,82.07347 14.74783,50.40018 46.28984,92.39164 63.78548,141.60029 1.98475,35.40307 7.64023,118.9598 -26.34509,120.82324 -0.91729,13.67029 -12.98155,-15.08114 -20.95208,11.36261 -14.6769,-15.93295 -65.07114,35.14327 -86.81632,47.03667 -30.3781,-2.0493 -62.26852,3.0331 -90.00457,11.7623 -27.30446,-23.2647 -73.83301,44.2824 -43.93727,-14.6248 44.9366,-52.24906 -49.39214,-99.41702 7.6588,-145.30448 31.00163,-46.88966 80.43606,-92.98917 136.96533,-97.21073 35.53929,26.75841 77.62072,71.64425 112.11107,82.90587 C 860.53861,815.86223 826.16379,764.1954 775.7813,744.55435 c -52.05475,8.0132 -98.83191,44.48579 -133.11308,83.98941 -45.58929,29.31093 -72.14544,94.80803 -27.88111,137.77209 15.44621,27.59071 -52.26468,112.87395 1.00471,100.65275 44.35656,-70.35241 71.3665,84.4868 24.91746,56.8602 -42.17304,-57.9228 -32.88913,68.242 -78.93711,44.9103 z M 444.88277,966.92349 c 61.69718,-15.85743 1.57142,-101.06939 -43.66068,-94.21564 -34.16368,-0.40837 -147.4164,15.8104 -85.90734,62.23831 37.44373,23.9126 84.85362,40.16414 129.56802,31.97733 z m 301.25274,-22.06386 c 31.17605,-15.37923 110.07309,-46.19209 90.73795,-87.21382 -56.7166,-19.42681 -130.71459,-18.25434 -169.16795,34.77788 -65.30595,48.04196 46.98876,64.64633 78.43,52.43594 z"
       style="fill:#f4d7d7;stroke-width:1.27111"
       id="path36" />
    <path
       d="m 599.74052,1338.9628 c -56.98538,-21.0138 -126.67112,13.6585 -177.7672,-28.6041 -54.86146,-42.8803 -68.57496,-133.3713 -14.48842,-182.8406 18.78596,-10.1055 -12.69536,58.4099 -10.50096,76.6712 3.78731,43.3679 23.17862,-43.5407 26.56766,-60.3291 11.62888,-58.0086 53.56558,-9.2295 58.19274,22.9163 27.9386,-14.7707 66.5054,-37.8165 71.14025,11.4805 45.59045,35.2896 54.33376,-89.4286 101.28206,-26.468 44.60947,20.3982 5.2885,-100.7038 32.97743,-65.8384 -24.34374,40.042 26.51821,-20.5429 33.09632,24.6878 5.74689,22.3157 45.7342,108.7907 31.57297,37.7864 -5.93637,-22.7125 -56.24684,-93.8763 -13.62299,-43.0597 29.83349,47.9548 47.9493,114.9069 8.58009,162.9245 -20.46956,56.4818 -87.2447,56.88 -134.78009,75.6309 l -4.42256,-1.4563 z m 0.54364,-29.9369 c 44.31872,4.835 95.49062,-21.8948 122.33584,-42.4313 58.02891,-34.4798 10.65628,-96.063 -45.26349,-77.0036 -20.6615,-30.901 -31.69109,-20.4404 -32.60249,6.0995 -34.38381,24.4247 -80.7034,33.2933 -120.21244,18.4621 -31.49878,7.5329 -32.96659,-71.2894 -43.01476,-10.9941 -21.7881,21.8351 -102.93076,26.5505 -50.31124,68.3862 42.40507,44.3516 113.0747,38.132 169.06858,37.4812 z"
       style="fill:#f4d7d7;stroke-width:1.27111"
       id="path38" />
    <path
       d="m 911.88548,1106.0935 c -17.76542,-51.1676 -26.46096,-108.971 11.66317,-150.86366 9.62805,-40.26183 -43.98044,-48.59756 -15.33713,-93.42908 15.28943,-8.67461 26.16439,-42.75077 8.92409,-27.50789 -4.82068,-22.66933 21.48743,-85.24833 23.67799,-83.9336 0.66844,84.37968 -2.96298,168.69959 -0.2618,253.10433 0.0792,33.6042 -0.009,87.0237 -28.66632,102.6299 z"
       style="fill:#f4d7d7;stroke-width:1.27111"
       id="path40" />
    <path
       d="m 895.98256,979.62766 c -2.88487,-27.17297 17.76197,-84.26209 19.69968,-25.43924 1.889,8.94668 -8.33394,36.68073 -19.69968,25.43924 z"
       style="fill:#f4d7d7;stroke-width:1.27111"
       id="path42" />
    <path
       d="m 646.98904,1621.0817 c -73.43861,-20.8945 -149.8751,-11.7998 -225.12566,-15.7163 -28.90754,12.6229 -90.8878,4.427 -105.08652,5.7202 48.27433,-32.4534 43.67445,-96.6093 76.92671,-137.2824 -19.01738,-57.524 34.55882,30.0019 60.70388,20.7758 17.91352,17.8564 57.57316,47.3077 37.25296,-0.2024 11.68513,16.2424 56.81876,66.2825 60.68864,46.5928 -13.95953,-32.4118 46.6834,16.468 48.27645,-24.3716 15.52725,-47.8093 16.43776,55.1757 39.12082,1.8922 12.95333,-22.3476 35.76949,-83.9326 28.77604,-21.1792 -0.26405,65.6757 32.97202,-35.9818 48.11223,-50.2402 10.49413,-21.2514 30.93451,-58.3529 20.80289,-7.6407 -9.93027,31.0635 11.75547,28.9914 23.31578,13.1704 -11.88735,46.8356 -12.50925,101.4593 15.71112,143.1081 17.78642,41.4211 -63.3123,1.386 -84.38317,24.0027 -14.71756,3.8564 -30.16658,4.8569 -45.09217,1.3706 z"
       style="fill:#f4d7d7;stroke-width:1.27111"
       id="path44" />
    <path
       d="m 222.68424,1000.9925 c -16.90418,-57.65364 -28.52696,-118.90651 -28.57373,-179.49761 30.04887,42.85721 55.7603,96.68866 23.25533,142.45312 7.16577,13.82511 39.3574,32.35679 5.3184,37.04449 z"
       style="fill:#f4d7d7;stroke-width:1.27111"
       id="path46" />
    <path
       d="m 562.54767,1168.4745 c -21.67497,-12.2764 -25.58919,-95.2228 -49.42775,-38.5733 5.19669,36.0576 -42.40116,21.4518 -27.71441,9.7682 12.4709,-2.0557 -5.66946,-20.6912 8.40352,-25.3834 11.32175,-19.9645 -7.64323,-37.8116 0.93476,-54.2635 31.063,20.8548 71.35979,16.7397 42.95437,-18.0668 13.51859,-20.2449 -33.26998,-70.46217 -16.9948,-69.96957 -0.088,32.71427 35.98,32.34767 12.81538,-1.35528 10.33218,-26.82338 -9.45533,-85.06406 -35.4987,-120.53733 -19.47245,-31.54588 -44.80038,-88.43709 -82.43672,-86.96512 -39.41538,-2.73446 -76.09195,41.72301 -103.22878,71.05936 -23.40724,15.15325 -68.22443,94.09437 -23.95462,65.08833 25.11902,-47.07733 74.14498,-110.21201 121.40889,-101.909 24.87926,26.0858 72.27541,63.35571 90.7176,107.03775 26.47834,27.64154 -7.73817,59.13315 3.61118,91.85083 0.56305,27.75953 37.69772,73.43803 -9.83342,49.19593 -36.19147,5.8455 -17.65804,89.3467 -48.59831,27.4065 -25.04636,-21.5094 -25.56176,-47.9051 -64.39741,-45.9129 -45.05699,0.4494 -92.9565,3.6749 -113.70744,-41.98179 -44.69311,-13.94625 -9.10554,-88.96289 -12.02076,-126.70184 0.22712,-50.91862 6.50447,-101.83175 31.17837,-147.11033 32.10579,-32.41356 47.09357,-67.56848 86.10021,-86.13698 10.89737,-1.07931 30.16379,-22.18562 47.79096,-0.73004 54.17685,-0.20917 93.78857,51.65173 112.10066,97.40643 1.66101,37.80707 30.50186,23.43692 27.22039,-5.32685 33.75491,-11.30843 4.35315,-100.21691 60.62593,-111.70084 7.26644,-9.4671 38.2789,-20.68406 36.08744,-20.99021 7.81421,60.32691 64.61667,-7.35312 91.44144,35.83324 14.94003,10.51524 29.19087,-26.67278 36.82979,12.28411 22.64832,48.86253 59.49577,90.34091 68.79849,144.22283 40.15432,41.12903 47.34123,102.05566 33.9256,155.99144 0.70452,36.95335 -14.45426,41.2619 -34.58682,37.80451 -13.58421,15.64319 -12.06707,-7.89778 -32.06647,13.41067 -35.55463,17.51755 -56.28363,50.74435 -98.67368,43.98655 -37.10706,16.1882 -76.53196,-2.2604 -108.96339,24.9516 21.92402,-42.1218 33.44633,-91.03969 -3.2541,-127.89818 14.79735,-51.18067 56.31564,-95.93441 102.14184,-123.33894 50.58101,-49.29913 87.46468,15.7751 129.4539,39.8801 18.31582,27.05636 55.54152,37.70938 26.33117,-4.1927 -26.27729,-39.19842 -66.66693,-110.25945 -122.65744,-85.75967 -27.20289,17.26065 -58.50754,27.60889 -79.74079,53.0125 -37.6342,36.95098 -103.26969,88.73026 -61.62414,146.5539 43.39641,32.52649 -41.8998,106.88019 6.43813,120.75499 40.84677,-61.8348 73.35212,35.2139 41.07604,60.8761 -37.3545,-56.867 -48.6438,14.762 -72.92986,37.1642 l -8.44161,0.8677 z M 445.45317,967.13686 c 59.7304,-16.2267 2.27358,-99.76158 -42.05758,-94.68864 -41.06852,-2.9484 -156.8283,20.92959 -80.02492,67.98141 36.57948,20.28833 79.94502,34.73288 122.0825,26.70723 z m 299.46025,-21.52294 c 33.21428,-15.60427 109.4315,-46.29314 92.19025,-88.00878 -56.0176,-19.12875 -127.95794,-18.70199 -167.79324,31.94449 -66.901,50.69552 40.72371,67.14118 75.60299,56.06429 z"
       style="fill:#f4d7d7;stroke-width:0.89881"
       id="path50" />
    <path
       d="m 217.12656,1176.3813 c -13.48467,-25.0274 -4.8306,-81.7259 13.36676,-93.0341 -1.43291,27.3392 -9.98261,74.2827 -13.36676,93.0341 z"
       style="fill:#f4d7d7;stroke-width:0.89881"
       id="path52" />
    <path
       d="m 393.63024,953.89278 c -84.26778,2.78554 -36.6269,-108.60628 20.41047,-61.98802 20.92912,20.36456 20.3002,71.3121 -20.41047,61.98802 z"
       style="fill:#ff0000;stroke-width:0.89881"
       id="path54" />
    <path
       d="m 695.55284,932.08854 c -45.13466,-49.99595 60.94094,-112.57035 77.62182,-45.38512 12.6713,42.786 -49.20793,50.48988 -77.62182,45.38512 z"
       style="fill:#ff0000;stroke-width:0.89881"
       id="path56" />
    <path
       d="m 544.49476,1293.9846 c -8.83127,-31.4107 -33.64722,11.3145 -34.0894,-33.4767 11.992,-5.5103 15.37768,-48.6851 28.32774,-13.2081 20.22775,34.7966 22.66921,-28.763 48.87469,6.0781 37.81634,36.1507 9.17908,-61.067 32.09086,-9.0754 20.09741,27.509 10.63064,-55.5703 34.84821,-8.9349 16.47006,18.6576 23.38857,44.1967 -9.11083,37.1018 0.39123,49.1943 -41.62468,-36.2015 -52.20745,19.6385 -24.43758,-16.0355 -34.64522,-25.3703 -48.73382,1.8767 z"
       style="fill:#000000;stroke-width:0.89881"
       id="path58" />
    <path
       d="m 712.04748,1236.9102 c -14.52357,-15.9775 -44.52829,-52.5267 0.62975,-34.0381 48.83641,12.4912 -10.23963,24.9957 -0.62975,34.0381 z"
       style="fill:#000000;stroke-width:0.89881"
       id="path60" />
    <path
       d="m 437.31705,1254.6011 c -17.97813,-53.1197 64.20857,10.3586 4.76379,1.996 l -2.14004,0.591 z"
       style="fill:#000000;stroke-width:0.89881"
       id="path62" />
    <path
       d="m 588.07712,1512.5541 c -13.66295,-20.714 -47.51988,-93.2339 -65.35986,-68.7952 3.8638,21.2971 51.13142,87.2448 1.18741,48.3842 -22.52815,-19.3762 -76.96467,-110.9162 -61.48827,-32.6726 14.8831,54.4545 -48.06645,-20.5915 -67.4251,-31.8757 -24.77034,-13.2632 -35.42879,-65.6638 -53.01912,-68.8781 0.0339,22.1471 32.36862,86.3025 -5.88294,39.3222 -28.50628,-35.4623 -43.04662,-80.2093 -46.70912,-125.1642 -24.50081,5.0191 -9.36317,79.9268 -17.18262,63.1005 -11.88129,-51.8834 -18.73606,-104.8288 -23.99492,-157.68 -40.0947,15.9099 -2.72671,-72.0025 -3.154,-99.1058 15.65652,-52.4852 -62.31473,41.2872 -32.67823,-19.0151 2.24631,-30.9956 46.28253,-100.23109 62.12201,-37.8461 -5.19451,32.2277 19.09189,-3.5171 39.43772,17.9026 38.09986,-2.0316 137.23591,8.1439 88.07444,65.2871 -46.32943,53.5844 -63.17915,141.5653 -13.04439,198.2618 43.54244,39.5826 106.70892,45.2492 162.3008,35.7956 29.84188,2.8914 53.96401,18.9161 82.90036,2.8397 53.33897,-9.7395 104.23808,-32.524 128.67197,-84.0532 31.38502,-42.7454 11.96961,-104.1764 -9.36109,-147.538 -12.42793,-38.6404 -54.5957,-38.7481 -79.84552,-49.0928 21.28558,-39.3358 95.16331,-3.2917 118.27511,-45.7266 17.24826,-30.70152 86.95686,-46.2673 85.42656,10.0869 4.23066,24.1788 40.11874,107.3449 -6.23098,63.1726 -1.92923,25.5515 38.24568,83.5755 23.15322,96.6256 -8.87345,-18.7405 -52.72113,-89.9481 -35.52131,-31.9985 13.65786,29.6105 9.53511,121.5356 13.75753,110.7722 -4.66175,-38.4261 -10.49257,-128.3965 -34.35648,-129.5409 3.98858,22.637 34.52799,96.5259 11.19855,90.8383 -0.7427,-29.2724 -39.22525,-66.3285 -26.2026,-14.444 -3.06044,51.8746 -35.78405,21.0261 -35.16839,32.7481 10.23148,37.3381 -46.52843,67.3931 -35.12291,91.374 15.68426,-26.5598 33.13809,-51.5962 44.76334,-82.3539 57.31003,-24.3716 14.85039,70.0682 2.13691,99.5691 -11.47922,11.5575 -38.89303,86.1655 -42.1715,61.2273 -12.70524,-76.2618 -49.96924,17.0819 -60.87619,45.45 -17.90288,45.9688 7.09208,-103.7361 -21.91591,-34.2707 -19.00874,18.9564 -53.79659,84.6039 -43.19485,77.9416 1.92136,-41.8916 -44.5949,-92.931 -8.05703,-121.7011 23.09102,40.865 35.40176,-25.0881 71.81977,6.4079 30.31042,3.996 19.79477,-64.0583 10.99461,-10.4169 -18.0319,8.898 -45.2841,-26.5946 -62.28891,11.375 -30.38424,-53.6189 -32.47526,19.1991 -49.90751,28.7388 -22.36685,-32.7183 -60.31568,0.4407 -24.90102,22.7375 -2.98512,-61.1446 62.76072,27.3361 35.09004,55.4132 -4.51497,4.9925 -7.28676,40.1785 -16.24958,16.7976 z m -152.17647,-81.3032 c -14.67326,-21.5976 -41.67159,-24.8318 -10.37068,-39.1999 -2.11648,-25.9282 -52.26957,-50.4354 2.33347,-40.2778 -17.14801,-32.2775 -54.14113,1.2121 -23.36919,27.3349 17.09113,15.1689 -35.51939,3.7623 -4.36413,31.1269 8.71264,9.6417 20.27346,28.4801 35.77053,21.0159 z M 330.74968,1323.0342 c -9.47698,-26.0889 -11.74396,-38.1762 -0.66902,-53.2106 -19.47997,-28.5423 -23.08514,-55.1496 -9.48798,-74.3064 -6.29433,-22.7437 13.2887,-65.4819 -8.14924,-38.2526 -15.93975,-26.5752 -18.81585,-35.1929 -18.37457,-2.3042 -16.60428,19.728 -20.39009,49.5989 -3.85621,12.5343 34.7862,3.3724 21.73978,34.0471 6.62841,47.5929 31.28707,35.011 4.74805,75.1182 21.50586,107.1729 -1.16108,6.8036 14.94505,8.3321 12.40275,0.7737 z m 462.41772,-218.344 c 2.472,-39.9744 52.28727,-9.8005 39.9586,-54.1581 -3.09275,24.5042 -10.48369,19.4199 -32.13255,7.3963 -1.58504,21.4356 -9.98737,60.1144 -23.43203,19.1814 -22.97021,-35.5759 -18.796,43.74 15.60598,27.5804 z M 270.83286,1076.649 c 16.76598,-5.4012 85.20396,5.6432 30.9554,-2.2828 -13.52539,-15.8823 -66.81329,19.3852 -30.9554,2.2828 z"
       style="fill:#ffffff;stroke-width:1.27111"
       id="path525" />
    <path
       d="m 243.36931,856.2725 c -6.73723,-27.30318 -51.55797,-36.41 -39.97871,-64.4288 20.33798,-8.30875 -24.77063,-85.51455 -14.06163,-103.74488 29.20465,-42.5875 10.91776,-105.19412 17.95165,-155.80531 18.85297,-29.40806 -2.69848,104.42497 17.34032,42.02619 3.08268,-25.95368 5.62906,-55.55428 6.03096,-10.71054 40.06132,-17.27958 20.92178,-85.41016 40.81511,-122.32773 13.37451,2.7345 13.25787,59.87057 20.60847,9.527 -1.42704,-32.2154 16.90218,38.19776 41.86932,-2.87074 9.67482,-39.7376 32.14902,13.77505 32.29127,-29.08155 -4.86475,-43.06782 25.56966,9.83793 31.45448,-31.88981 10.56517,-36.8242 16.02329,-28.15342 12.2631,5.40067 10.70653,48.88205 18.67873,-68.20974 20.2098,-10.90375 1.11904,25.20049 23.44954,83.66673 27.27972,24.16329 4.43866,-53.41944 4.38941,41.01612 22.83986,-5.24385 5.90118,-39.3763 50.59094,-1.14785 56.40034,-48.74031 13.4896,23.54426 18.99104,-8.16427 31.66976,17.56109 20.29795,-15.66313 18.79787,-45.20217 29.02984,-2.25281 -14.59676,37.54778 65.59291,4.55332 18.67149,5.07195 44.59733,59.70307 22.03185,-21.44426 36.36814,-23.95792 5.91113,15.15074 23.5022,66.21076 33.45498,27.55346 7.551,23.04456 29.43486,60.97475 22.66225,10.48807 8.56504,22.48282 37.96902,95.93219 39.18221,30.3627 8.89682,38.85737 35.74004,59.07228 36.08253,23.31479 10.08569,34.76665 39.2645,47.6186 42.94869,22.34646 6.85836,25.11642 11.46829,52.21819 28.74428,49.98967 9.9567,22.10528 5.63775,97.08005 29.16166,87.41966 8.45526,-33.83192 -1.44039,53.23941 17.68109,62.88745 -0.39927,21.91977 4.36198,69.25544 -19.71338,28.60143 -35.05685,-50.46056 -11.2357,-125.71815 -57.46847,-169.10655 -35.38301,-29.07641 38.06644,61.34947 25.03317,90.33898 16.69655,55.92457 -55.07322,-16.59013 -57.43162,-37.6189 -22.86801,-5.91594 22.31159,61.74389 45.2441,66.48249 31.60847,40.42733 70.35393,86.46528 62.12139,141.41422 -25.37287,27.92683 -52.92237,-81.57473 -46.18538,-72.565 -31.68038,-23.81057 -48.45613,-90.06207 -86.69778,-116.35856 -16.27853,51.93178 -31.33091,-32.30002 -52.60335,-1.18029 -17.98215,-32.54037 -22.28856,36.35275 -30.86935,-8.75643 -2.38291,-10.77217 -22.91759,11.19149 -21.97198,-19.83023 -17.31888,-3.57331 -12.88832,45.86794 -25.91818,6.42495 -29.21347,5.77776 -51.2968,34.98927 -64.2318,76.17511 10.96241,33.10828 -33.39313,76.85323 -43.19819,26.9512 0.88408,-28.20857 -31.46811,-64.46901 -21.55158,-15.91774 -27.54168,-29.8472 -62.52093,-64.56377 -108.1439,-47.8042 -31.66547,-4.53282 -65.81029,37.2573 -54.76496,26.26232 -27.93139,-8.88924 -34.07708,48.75724 -61.8117,60.88144 -18.29725,35.53198 -30.5167,76.68592 -31.62024,120.88186 -2.89311,4.47199 1.0969,53.12379 -7.18778,38.56945 z m 14.66212,-187.75974 c -7.96613,-24.73207 39.40322,-73.60035 10.11689,-82.73144 4.55994,18.90539 -23.99031,24.14473 -13.85993,56.29055 13.47957,19.88813 -46.11748,17.54914 -6.42583,29.57439 z m 640.501,0.66844 c -2.4469,0.55128 1.82088,5.57171 0,0 z M 582.42821,597.40766 c -5.41123,-12.73036 -57.17242,-44.58053 -69.0108,-15.02911 -18.6691,-20.40766 -33.07323,-9.19027 -40.36525,5.02176 -14.95528,-31.33592 -31.87138,-21.49195 -50.98092,-32.66742 -9.74964,22.03541 93.09457,47.52084 52.63592,40.18761 15.82734,-36.81948 41.37996,24.83889 55.49766,-16.66003 20.45313,-5.0258 31.48047,33.76386 52.22339,19.14719 z m 92.80003,-63.66023 c -10.60355,-49.21903 17.52039,-4.89049 39.30383,-4.1248 1.76393,-47.6172 32.56224,-3.60639 49.42189,-8.50264 -14.25457,-25.07377 -45.24201,-31.57729 -58.86357,-5.8975 -21.55382,-16.15206 -50.62836,-44.15906 -39.36696,5.47733 -26.2539,-43.26675 -20.87592,9.29425 4.57373,16.52441 z M 313.45505,532.191 c 20.68627,-13.24349 6.54588,-75.98362 37.46685,-32.22057 38.70287,30.61706 17.98326,-63.79829 54.10251,-16.42359 -11.86194,-56.67028 -28.04223,2.78911 -44.88131,14.67373 -30.7552,-64.03013 -30.75025,37.36431 -69.21881,22.36469 -19.61596,3.25268 18.93631,15.55132 22.53076,11.60574 z m 252.82044,-36.5066 c -5.25123,-26.6833 -11.60002,-35.48138 8.52455,-42.42732 0.9018,-32.62261 3.61296,-26.56532 26.64512,-18.52936 24.20647,-25.13681 -7.36478,0.48305 -22.33719,-21.04639 -23.54891,5.16389 -1.05489,34.68998 -26.78602,33.02166 -6.51278,7.10896 6.22239,73.30974 13.95354,48.98141 z"
       style="fill:#ffffff;stroke-width:1.27111"
       id="path527" />
    <path
       d="m 495.13758,1298.6263 c -49.47327,-0.5914 0.34261,-138.4888 4.1343,-59.4716 -4.03957,17.5597 29.65401,69.116 -4.1343,59.4716 z"
       style="fill:#ffffff;stroke-width:1.27111"
       id="path529" />
    <path
       d="m 681.63207,1275.5781 c -9.17348,-27.2716 -35.81435,-116.0812 6.41602,-54.0856 29.57106,14.9516 37.7327,76.7261 -6.41602,54.0856 z"
       style="fill:#ffffff;stroke-width:1.27111"
       id="path531" />
    <path
       d="m 670.15856,926.00174 c -34.91697,-8.90085 25.10269,-58.86486 8.54013,-7.98286 -0.47491,8.96942 2.2851,15.16869 -8.54013,7.98286 z"
       style="fill:#ffffff;stroke-width:1.27111"
       id="path533" />
    <path
       d="m 779.95841,906.36452 c -38.95675,-53.4118 50.56168,-55.04962 53.59888,-30.38495 -12.53128,2.93977 -53.99185,54.55448 -53.59888,30.38495 z"
       style="fill:#ffffff;stroke-width:1.27111"
       id="path535" />
    <path
       d="m 319.74929,918.56183 c -58.74638,-17.40352 61.17392,-52.24351 14.99419,-12.6602 -6.68734,6.17761 -2.98898,22.53155 -14.99419,12.6602 z"
       style="fill:#ffffff;stroke-width:1.27111"
       id="path537" />
    <path
       d="m 430.21885,946.40368 c 17.2824,-21.86146 -15.7801,-82.81945 21.06123,-33.8792 29.97889,28.44184 -4.39409,48.32319 -21.06123,33.8792 z"
       style="fill:#ffffff;stroke-width:1.27111"
       id="path539" />
    <path
       d="m 595.45664,1252.8964 c -53.29477,-9.6576 22.75828,-59.1977 5.77973,-6.8378 0.6289,3.376 -0.89723,10.1551 -5.77973,6.8378 z"
       style="fill:#ffffff;stroke-width:0.635554"
       id="path541" />
    <path
       d="m 591.32554,1303.3291 c -4.34962,-46.9221 67.12015,-5.8341 19.24869,-1.1843 -6.39061,0.4031 -12.84628,2.6768 -19.24869,1.1843 z"
       style="fill:#ffffff;stroke-width:0.635554"
       id="path543" />
    <path
       d="m 642.07903,1298.0935 c 0.0198,-43.824 57.29404,4.3194 0,0 z"
       style="fill:#ffffff;stroke-width:0.635554"
       id="path545" />
    <path
       d="m 624.20076,1237.0861 c -21.21947,-35.5779 27.80164,-23.0984 0,0 z"
       style="fill:#ffffff;stroke-width:0.635554"
       id="path547" />
    <path
       d="m 656.62742,1223.4645 c -25.68584,-31.4407 16.17908,-3.4371 0,0 z"
       style="fill:#ffffff;stroke-width:0.635554"
       id="path549" />
    <path
       d="m 567.81003,1302.2417 c -57.15787,-29.2728 55.04785,-4.4362 0,0 z"
       style="fill:#ffffff;stroke-width:0.635554"
       id="path551" />
    <path
       d="m 550.96784,1246.8396 c -33.67797,-27.4669 23.12179,-27.5526 0,0 z"
       style="fill:#ffffff;stroke-width:0.635554"
       id="path553" />
    <path
       d="m 514.58169,1241.7835 c -33.32665,-35.092 36.72363,-22.1621 0,0 z"
       style="fill:#ffffff;stroke-width:0.635554"
       id="path555" />
    <path
       d="m 457.15905,1280.1323 c -47.24714,-38.6333 28.93276,-15.239 0,0 z"
       style="fill:#ffffff;stroke-width:0.635554"
       id="path557" />
    <path
       d="m 462.44506,1233.3891 c -25.25752,-16.9395 39.91787,-22.1866 0,0 z"
       style="fill:#ffffff;stroke-width:0.635554"
       id="path559" />
    <circle
       id="path41"
       style="fill:#000000;stroke:#000000"
       cx="556.8125"
       cy="901.05658"
       r="0.19454733" />
    <path
       style="fill:#000000"
       id="path43"
       d="m 381.45482,882.25381 c -3.14405,6.0725 -4.78957,12.78383 -6.29873,19.4128 -1.589,6.28186 -1.49386,12.4232 -0.97336,18.81587 0.31974,3.43585 0.36639,6.88613 0.59888,10.32761 0.06,0.8875 0.0754,1.77896 0.17636,2.66273 0.0981,0.85857 0.28014,1.70545 0.42022,2.55818 0.90763,4.17532 2.18482,8.2666 3.48703,12.33443 0.93086,3.35957 1.39962,6.91645 3.05818,10.04004 0.27237,0.51296 0.64317,0.96727 0.96476,1.45091 0.75764,0.50562 1.36993,1.6364 2.27292,1.51687 1.71347,-0.22681 3.30109,-1.26566 4.58352,-2.42443 0.61677,-0.5573 0.52474,-1.57871 0.73645,-2.38256 0.59167,-2.24652 0.59897,-3.06965 1.06623,-5.41386 0.2433,-1.22059 0.5279,-2.43257 0.79185,-3.64885 1.51947,-7.70269 3.37565,-15.32696 5.22279,-22.95516 0.53944,-2.70782 1.12225,-5.4257 1.41464,-8.17562 0.30768,-2.89363 0.27688,-5.83246 0.31148,-8.73711 -0.18696,-5.87404 -0.25712,-11.75194 -0.50112,-17.62395 -0.17017,-2.4025 -0.16105,-4.86707 -0.82504,-7.20409 -0.33491,-1.17876 -0.58476,-1.59867 -1.09581,-2.68167 -1.28914,-2.26997 -3.28062,-3.94584 -5.84171,-4.5844 -0.45439,-0.11329 -0.92551,-0.14375 -1.38827,-0.21562 -1.59329,0.0174 -3.59022,-0.15236 -4.89719,1.06618 -1.23363,1.15016 -1.65283,2.6227 -2.21229,4.14303 -2.11696,5.38344 -3.41116,11.09233 -4.00181,16.84427 -0.1403,1.36625 -0.19135,2.7402 -0.28702,4.1103 -0.17865,11.31489 -0.009,-3.09465 0.0436,7.95446 0.007,1.48796 -0.0624,2.97547 -0.0673,4.46344 -0.0158,4.85392 0.0649,9.71212 0.11832,14.5657 0.18781,4.82958 0.1135,4.16221 0.46438,8.72018 0.12374,1.60733 0.28898,4.02224 0.62436,5.69272 0.26689,1.32933 0.48928,1.72995 0.97254,2.89632 0.24565,0.39664 0.45499,0.8182 0.73694,1.1899 1.63149,2.1508 3.61123,1.74369 6.09306,0.0922 0.61862,-0.41165 1.63284,-4.28836 1.7599,-4.71608 2.1929,-11.62895 3.78725,-23.37106 5.33654,-35.10123 0.56384,-5.72687 0.8866,-8.05977 1.10249,-13.65533 0.16633,-4.3111 0.15211,-8.339 -0.88784,-12.5243 -1.63845,-4.03802 -0.87954,-2.12395 -6.12232,1.0865 -0.0537,0.0329 -0.0905,-0.19364 -0.12563,-0.14129 -0.0922,0.13761 -0.0689,0.32407 -0.1052,0.4857 -0.0802,0.3573 -0.16286,0.71406 -0.2443,1.07109 -1.02837,3.67276 -1.42119,7.48191 -2.19577,11.20654 -0.45492,2.18753 -1.05655,4.34301 -1.50418,6.53204 -1.46501,7.16427 -1.42993,7.91116 -2.35312,15.0724 -0.59813,5.14006 -1.08744,10.32725 -0.72289,15.50518 0.002,0.0309 0.23308,2.67164 0.54991,3.08452 0.0768,0.10006 0.12415,-0.21955 0.18622,-0.32933 9.91094,6.03499 5.24893,-2.80071 3.68563,-2.75616 -1.52153,0.0434 -3.03575,0.65415 -4.32639,1.46112 -0.34195,0.2138 -0.84387,2.45317 -0.96253,2.92806 -0.3469,2.0663 -0.20896,1.01753 -0.40911,3.14693 -0.0299,0.46649 6.56725,0.8886 6.5971,0.42212 v 0 c 0.0977,-1.77049 0.0455,-0.91001 0.15522,-2.58155 0.0299,-0.30789 0.1399,-0.61841 0.0898,-0.92366 -0.0131,-0.0795 -0.14948,0.0631 -0.22847,0.079 -1.26198,0.25385 -2.50923,0.83489 -3.79219,0.72977 -0.48898,-0.0401 -0.6539,-0.73252 -0.95633,-1.11884 -0.0412,-0.0526 0.10032,0.11294 0.16708,0.11067 1.93601,-0.0656 3.86862,-0.20871 5.80293,-0.31306 0.19856,-0.50429 0.44982,-0.99025 0.60136,-1.51059 0.37281,-1.28008 0.97204,-4.29644 1.16267,-5.2652 1.13442,-5.76501 0.97761,-5.17264 2.00693,-11.54204 0.36897,-2.44277 0.78214,-4.87928 1.10689,-7.32832 0.89599,-6.75678 0.90407,-7.95215 1.41946,-14.52178 0.30156,-3.84404 0.6655,-7.69616 0.44317,-11.55739 0.002,-0.1817 0.0512,-4.28561 -0.4116,-4.18339 -1.93276,0.42693 -3.46413,2.02127 -5.38304,2.50666 -2.03402,0.5145 -0.01,-1.52347 -0.60557,-0.90182 -1.09159,8.27247 -2.66567,16.47941 -3.52431,24.7846 -1.13089,11.63202 -2.37016,23.27039 -2.53767,34.96715 -0.031,0.69911 -0.14156,1.39923 -0.0929,2.09733 0.0934,1.33933 4.41228,-1.9337 4.52173,0.73668 -0.0627,-1.24649 0.16071,-2.55265 0.21132,-3.78292 0.16346,-3.97328 0.0813,-7.95701 0.0829,-11.93162 -0.0579,-4.88348 -0.13369,-9.76974 -0.37436,-14.64856 -0.19369,-3.92655 -0.54109,-7.85061 -0.25361,-11.78654 0.2244,-3.10906 0.26559,-4.4226 0.70459,-7.51634 0.58706,-4.13714 1.5712,-8.21498 2.01979,-12.37274 0.0783,-0.37424 0.19034,-0.74298 0.23493,-1.12272 0.007,-0.0619 -0.029,-0.19799 -0.0834,-0.16748 -0.4287,0.24044 -0.54682,0.58092 -0.52493,0.58949 0.10407,0.0407 0.22296,0.0158 0.33443,0.0237 -0.37211,-0.0106 -0.74423,-0.0213 -1.11634,-0.0319 1.29529,-0.14498 2.44232,0.0538 3.28033,1.1437 1.20874,2.31852 0.7621,5.04533 0.85483,7.56664 -0.16234,6.79867 0.0987,-3.065 -0.20337,4.71054 -0.16852,4.33818 -0.10345,8.69157 0.24044,13.01935 0.12878,1.91019 0.29797,3.58325 0.23136,5.48599 -0.11428,3.26487 -0.81369,6.46551 -1.8862,9.54298 -2.44772,7.73788 -4.40213,15.63703 -5.56458,23.6768 -0.2796,2.96766 -0.7026,5.98965 -0.77607,8.97502 -0.008,0.33529 -0.25941,0.98016 0.0752,1.00334 5.32051,0.36871 2.42062,-2.24602 4.8242,0.54905 -0.63277,-1.40294 -1.08334,-2.87541 -1.55341,-4.33934 -0.32357,-1.00771 -0.99229,-3.11987 -1.26949,-4.14603 -0.1664,-0.61597 -0.29848,-1.24069 -0.44772,-1.86104 -1.11474,-3.83785 -2.31303,-7.65582 -3.07831,-11.58429 -0.16024,-1.0632 -0.53963,-3.42089 -0.59756,-4.47207 -0.0412,-0.74745 0.0185,-1.49707 0.0202,-2.24565 0.006,-2.81297 -0.0889,-5.62092 -0.30949,-8.42611 -0.0247,-0.27579 -0.46535,-5.14723 -0.47531,-5.48685 -0.1116,-3.80688 0.8689,-7.56837 1.76246,-11.23017 0.99784,-3.73756 1.92025,-7.49049 2.86272,-11.24222 0.28556,-1.13676 0.61098,-2.26393 0.86571,-3.408 0.30905,-1.38798 0.47688,-2.80459 0.78936,-4.19226 0.15169,-0.41388 -5.70142,-2.55912 -5.85311,-2.14524 z" />
    <path
       style="fill:#000000"
       id="path47"
       d="m 717.61657,864.96937 c -1.75935,4.13433 0.51258,-1.29942 -1.4198,3.69909 -1.30664,3.37989 -1.42306,3.12435 -2.67549,6.85309 -1.41054,4.19945 -1.58089,5.37626 -2.63712,9.79906 -1.05749,4.96486 -1.2563,9.6087 -0.84158,14.64169 0.29404,3.56843 0.53724,5.67386 1.45983,9.14124 0.37219,1.39878 0.89281,2.7538 1.33921,4.1307 1.12444,3.23961 2.71836,6.27722 4.47616,9.21064 0.39776,0.66378 0.8646,1.28609 1.23774,1.96401 0.67656,1.22915 1.02732,2.31574 1.51335,3.62173 0.91071,3.46541 1.77216,6.94939 3.2783,10.21155 0.74961,1.33366 2.35722,3.37872 4.07838,3.42227 0.93134,0.0236 1.86186,-0.17025 2.76809,-0.38635 0.29985,-0.0715 0.53313,-0.30962 0.79969,-0.46443 0.65692,-0.4338 1.06323,-0.33047 1.74771,-0.92393 1.8568,-1.60993 2.75385,-3.52092 3.8163,-5.67934 1.8593,-4.28869 2.83975,-8.92853 3.31575,-13.56751 0.18526,-1.80555 0.33338,-6.11231 0.4056,-7.86681 0.0149,-1.33868 0.0299,-2.67736 0.0448,-4.01604 -0.0295,-1.2493 -0.10071,-2.49831 -0.0884,-3.74789 0.11493,-11.65212 0.27283,3.64367 0.23299,-8.91653 -0.0151,-4.77466 -0.0975,-4.90322 -0.41049,-9.62149 -0.69862,-6.05053 -1.56327,-12.2292 -4.20112,-17.79261 -0.40075,-0.84521 -0.89173,-1.64461 -1.33759,-2.46692 -1.31249,-2.25569 -3.14469,-4.10354 -4.96694,-5.94034 -1.11905,-1.128 -0.54752,-0.44054 -1.29015,-1.40515 -0.47399,-0.89859 -0.60716,-1.94706 -1.04991,-2.8572 -0.17652,-0.36286 -0.23719,-0.90741 -0.61798,-1.04095 -1.57785,-0.55335 -3.28913,-0.60399 -4.9337,-0.90598 -0.55783,0.57441 -1.1808,1.09205 -1.67348,1.72323 -1.60458,2.05563 -2.29065,4.85454 -2.93827,7.31259 -0.55142,2.09291 -1.12269,4.7017 -1.59852,6.80034 -1.41829,5.85305 -2.37853,11.84809 -2.62574,17.87331 -0.1396,3.40259 0.0639,5.87755 0.23494,9.27927 0.48502,3.35736 0.66471,6.7512 1.11938,10.11176 0.26106,1.92949 0.59885,3.84805 0.93426,5.76602 0.73788,4.21941 1.26403,7.06512 2.39894,11.1608 0.39702,1.43275 0.89924,2.83425 1.34886,4.25137 0.92439,2.86663 2.07396,5.63988 3.37672,8.35087 0.21353,0.44432 0.42654,0.88892 0.64503,1.33083 0.14419,0.29163 0.23741,0.6175 0.44295,0.86968 0.51574,0.63274 1.13433,1.17418 1.70149,1.76127 1.63762,-0.88669 3.50704,-1.43872 4.91285,-2.66007 0.55378,-0.48112 0.41926,-1.40677 0.58952,-2.12033 0.21537,-0.90264 0.39298,-1.81408 0.56672,-2.72566 0.79785,-4.18599 1.27183,-8.40264 1.76995,-12.63254 0.1425,-2.02404 0.32119,-4.04585 0.4275,-6.07212 0.11629,-2.21641 0.13767,-4.43696 0.24022,-6.65405 0.1243,-2.68706 0.34707,-5.36946 0.4403,-8.05777 0.15931,-4.59392 0.19685,-11.91907 -0.02,-16.5446 -0.11138,-2.37538 -0.37552,-4.74113 -0.56327,-7.11169 -0.54624,-3.68945 -0.83041,-6.62582 -1.86537,-10.16537 -0.41052,-1.40397 -1.35796,-3.96888 -2.52744,-5.12953 -0.66356,-0.65855 -1.37062,-1.63186 -2.30488,-1.59797 -1.74027,0.0631 -3.25493,1.23912 -4.8824,1.85868 -0.39504,0.79955 -0.8669,1.56555 -1.18512,2.39866 -0.58785,1.53899 -1.08172,4.08937 -1.32226,5.68618 -0.64254,4.26535 -0.79372,8.60932 -1.07737,12.90695 -0.16171,2.3282 -0.36891,4.65369 -0.48512,6.98461 -0.52634,10.55632 -0.65118,21.33243 1.18967,31.78188 0.28091,1.59458 0.75236,3.14965 1.12853,4.72448 0.43785,0.85126 0.44268,2.15635 1.31354,2.55378 1.91582,0.87431 4.34448,1.78887 6.25332,0.89943 1.5513,-0.72284 1.51491,-3.08995 1.98157,-4.73655 0.52472,-1.85148 0.73731,-3.78068 0.97352,-5.69053 0.73475,-5.94055 0.72989,-9.78905 0.94912,-15.86062 0.15127,-8.7118 0.0239,-17.43466 -0.54799,-26.13087 -0.22698,-3.4512 -0.64052,-8.68485 -1.38323,-12.21077 -0.26234,-1.24542 -0.7319,-2.43802 -1.09784,-3.65703 -1.62415,-2.66104 -2.41725,-5.29711 -7.43777,-3.18777 -1.68192,0.70664 -2.17695,2.96304 -2.91873,4.62976 -1.02539,2.30399 -1.73014,4.74737 -2.34326,7.19358 -2.1716,8.66415 -2.28288,12.85608 -3.27372,21.9591 -0.53531,11.06146 -1.02288,22.38929 1.69427,33.25019 0.32213,1.28761 2.63952,9.70125 5.77719,10.34546 2.51281,0.51592 5.0615,-0.83828 7.59225,-1.25743 0.86211,-2.23302 2.0476,-4.36681 2.58632,-6.69906 1.20423,-5.21335 1.09557,-12.73402 0.59775,-17.93584 -0.40519,-4.23383 -1.57014,-11.18453 -3.49101,-15.29664 -0.57861,-1.23867 -1.66109,-2.17189 -2.49163,-3.25783 -2.39189,0.25469 -5.35026,-0.80242 -7.17567,0.76406 -1.81072,1.55388 -1.47199,4.56589 -1.79079,6.93055 -0.36136,2.68038 -0.32007,5.40708 -0.23699,8.11043 0.16915,5.50407 1.01972,11.61407 2.19504,17.00155 0.47146,2.16108 1.16213,4.26845 1.7432,6.40268 0.588,1.29914 0.94844,2.72765 1.764,3.89742 2.57125,3.68794 5.57226,1.6973 8.38769,-2.44592 0.99868,-1.46965 0.37411,-3.54099 0.36839,-5.31785 -0.0176,-5.47198 -0.3956,-5.99868 -1.50971,-11.05176 -0.45389,-0.9409 -2.21875,-5.82498 -4.46767,-4.91876 -5.16352,2.08068 -4.30793,5.07451 -4.26832,8.82542 0.0468,0.53637 7.63212,-0.12501 7.58535,-0.66137 v 0 c -1.30831,-6.00469 0.81631,-1.19165 -4.96526,-2.34284 -2.76221,-0.55 -2.43153,-4.63084 -2.15861,0.30311 0.59658,4.82262 0.57388,5.12147 1.47671,10.19461 0.25488,1.43222 -0.30479,3.39342 0.84775,4.28102 1.48467,1.14338 3.74658,0.29066 5.58161,0.67038 0.32558,0.0674 0.72141,0.97237 0.76295,0.64249 0.1518,-1.2055 -0.25831,-2.41627 -0.38747,-3.6244 -1.01063,-7.43335 -2.09494,-14.85569 -3.14869,-22.28306 -0.34597,-2.43859 -0.52887,-4.90589 -1.03732,-7.31585 -0.25868,-1.22611 -0.27903,-2.75665 -1.25387,-3.54402 -1.39186,-1.12418 -3.41448,-1.0703 -5.12171,-1.60545 0.81621,5.40888 1.66539,10.81222 2.31408,16.24508 1.54116,12.90758 0.37629,4.161 1.44524,15.88051 0.11122,1.21928 0.305,2.42961 0.4575,3.64442 1.39923,0.61791 2.67117,1.75696 4.1977,1.85372 0.58333,0.037 -0.52639,-1.0574 -0.6494,-1.62881 -0.41929,-1.94763 -0.75149,-3.91724 -0.97086,-5.89738 -0.32229,-2.90911 -0.5623,-5.83093 -0.65259,-8.75645 -0.12716,-4.11956 0.19807,-18.957 0.26663,-22.71418 0.38052,-13.62685 0.19416,-8.59749 0.70626,-21.15579 0.0876,-2.1492 0.35267,-4.2978 0.27139,-6.44724 -0.0219,-0.57817 -0.11678,-1.28651 -0.57712,-1.637 -4.52474,-3.44494 -4.18235,-2.95686 -3.81458,-0.93124 0.14965,4.98886 0.0383,9.9622 7.4e-4,14.95289 -0.0538,7.14265 -0.047,9.67338 0.12259,16.96439 0.0695,2.98763 0.17872,5.97419 0.26809,8.96129 0.23474,6.73298 0.28701,8.90392 0.59705,15.40153 0.0814,1.70509 -0.0398,3.43597 0.27513,5.1137 0.41556,2.21367 5.2696,3.22038 5.93966,3.22705 0.59691,0.006 0.031,-1.19348 0.0465,-1.79022 -0.19803,-14.17775 -0.58145,-28.35983 -1.52091,-42.50918 -0.1671,-4.0203 -0.45128,-8.0654 -0.1716,-12.0888 0.12327,-1.77338 0.33045,-2.8479 0.55493,-4.5496 0.0442,-0.33491 0.0771,-0.67122 0.11563,-1.00683 -1.1783,0.0588 -2.3566,0.11767 -3.5349,0.1765 -0.26155,-0.37505 -0.36168,-0.95149 -0.78467,-1.12514 -0.29644,-0.1217 0.2226,0.6041 0.28235,0.91892 0.15848,0.83504 0.28095,1.67754 0.37085,2.52271 0.44262,4.1614 0.34062,4.89711 0.41776,9.42424 0.002,7.75296 -0.13644,15.51788 0.0379,23.26934 0.0602,2.67592 0.24232,5.34804 0.31275,8.02371 0.0679,2.58018 0.0817,9.65867 0.0922,12.38603 -0.006,1.66678 0.03,3.33426 -0.0186,5.00034 -0.0971,3.33075 -0.55241,6.64267 -0.61767,9.97509 -0.0106,0.54182 -0.49185,1.55664 0.0457,1.62513 1.5267,0.19451 2.99799,-0.69758 4.49698,-1.04636 0.37768,0.50941 0.57718,1.22303 1.13305,1.52822 0.30293,0.16632 -0.12504,-0.67997 -0.20178,-1.01692 -0.1178,-0.51722 -0.24505,-1.03237 -0.38168,-1.54493 -0.70378,-2.6402 -1.52945,-5.24898 -2.09993,-7.92432 -1.29365,-6.88417 -2.63689,-13.76103 -4.01955,-20.62786 -0.34816,-1.7291 -0.78989,-3.44029 -1.07872,-5.18029 -0.22913,-1.38038 -0.31569,-2.78067 -0.47353,-4.17101 -0.0776,-1.40035 -0.22172,-2.7986 -0.23274,-4.20105 -0.0113,-1.43272 0.1086,-2.86347 0.16593,-4.29509 0.0613,-1.53182 0.0783,-3.06625 0.19008,-4.59522 0.30476,-4.16988 1.06197,-8.28983 1.72431,-12.41166 0.55344,-3.07526 1.07007,-6.15699 1.66303,-9.22494 0.11836,-0.61234 0.20705,-1.23168 0.36402,-1.83528 0.0893,-0.34343 0.37351,-0.64238 0.37261,-0.99723 -3.2e-4,-0.1256 -0.25004,0.0241 -0.37506,0.0362 -1.29981,-0.44758 -2.6069,-0.87456 -3.89944,-1.34274 -0.0206,-0.007 0.008,-0.0842 0.0164,-0.0638 0.54794,1.39365 0.77308,2.90693 1.50011,4.23517 0.26946,0.40792 0.51915,0.82961 0.80838,1.22376 1.45394,1.98139 3.40736,3.59327 4.52921,5.82733 0.31912,0.61519 0.68402,1.20871 0.95738,1.84556 0.72056,1.67868 1.11124,3.29295 1.4999,5.08186 0.7786,3.58368 1.27268,7.22838 1.3671,10.89752 0.4223,8.57211 0.75953,17.15352 0.59207,25.73698 -0.0347,4.71247 0.0811,2.6983 -0.33817,7.25456 -0.37304,4.05336 -0.70148,8.12477 -2.12973,11.97718 -1.02849,2.85809 -0.23078,0.79112 -1.18863,2.99814 -0.0524,0.12076 -0.0587,0.26527 -0.13887,0.3697 -0.27871,0.36312 -0.99275,0.51398 -1.36817,0.79701 -0.009,-0.009 -0.019,-0.0176 -0.0284,-0.0264 0.64544,-0.0408 1.29089,-0.0816 1.93633,-0.1224 0.51415,0.068 1.05539,1.67298 0.3633,0.21498 -0.31688,-0.83223 -0.67707,-1.64908 -0.95345,-2.49563 -0.80538,-2.4669 -1.0006,-5.09712 -1.84252,-7.55696 -0.27171,-0.76343 -0.50922,-1.53992 -0.81512,-2.2903 -0.56641,-1.3894 -1.30754,-2.74832 -1.94736,-4.10557 -1.28981,-2.7361 -2.50335,-5.51448 -3.46383,-8.38567 -1.10056,-3.68318 -2.30221,-7.54805 -2.55701,-11.41042 -0.081,-1.22798 0.001,-2.46312 0.084,-3.69099 0.22807,-3.38623 0.69501,-5.9443 1.20897,-9.32503 0.30289,-1.62537 0.56497,-3.25888 0.90867,-4.87611 1.08691,-5.11419 2.83274,-10.09872 3.45335,-15.30769 0.11742,-0.42382 -5.87627,-2.08437 -5.99369,-1.66055 z" />
    <path
       style="fill:#ff2a2a"
       id="path51"
       d="m 667.53507,1208.9984 c -0.59718,-3.5269 -1.24285,-7.0425 -1.76362,-10.5836 -0.52581,-2.0674 -1.14814,-5.3083 -5.25248,2.5844 -0.67822,1.3042 0.77467,2.838 1.2463,4.2303 2.1637,6.3876 4.90615,12.5521 7.61384,18.7204 2.03162,4.0759 3.95032,10.647 10.10133,3.694 0.92734,-1.0483 -0.16118,-2.8013 -0.4086,-4.1788 -0.79429,-4.4223 -2.00237,-7.6329 -3.38934,-11.9437 -0.79247,-1.9833 -1.50883,-3.9987 -2.37741,-5.9499 -1.86351,-4.1862 -4.56152,-10.395 -9.81338,-2.2692 -0.90907,1.4066 0.24611,3.3463 0.53924,4.9952 0.39609,2.2281 1.01657,4.4104 1.52485,6.6156 0.718,2.3243 1.37557,4.6681 2.15399,6.9729 0.68387,2.0248 2.93776,8.3312 4.33854,10.5241 0.46286,0.7246 1.03012,1.9549 1.87101,1.7756 8.35252,-1.7815 6.4635,-3.3468 6.15741,-9.5861 -1.43136,-8.7713 -4.27453,-17.2299 -7.98804,-25.2884 -1.80532,-3.9177 -3.87622,-7.8257 -6.56332,-11.2318 -0.60596,-0.7681 -1.39669,-1.3704 -2.09504,-2.0555 -2.04869,0.6458 -4.77028,0.2877 -6.14606,1.9374 -0.87637,1.0509 0.7087,2.6565 1.27665,3.9014 0.61291,1.3435 1.42896,2.5884 2.24543,3.8188 1.57313,2.3707 3.92957,5.3535 5.93315,7.4092 0.82629,0.8478 1.76554,1.5776 2.64831,2.3665 0.70247,0.4032 1.30597,1.0924 2.10741,1.2096 1.58621,0.232 3.50406,0.7379 4.80516,-0.1986 1.71715,-1.236 1.72051,-5.1382 0.37646,-6.7007 -0.72581,-0.8439 -1.70143,-2.0266 -2.7961,-1.8253 -2.05197,0.3776 -3.53901,2.2109 -5.30852,3.3163 -0.35732,1.455 -0.88411,2.8785 -1.07195,4.3649 -0.4977,3.9384 -0.17507,7.9173 0.36128,11.8246 0.23332,1.6998 0.46458,3.4128 0.94797,5.059 0.17406,0.5928 0.39236,1.6921 0.99645,1.5627 2.258,-0.4835 4.12937,-2.0683 6.19406,-3.1024 -0.31625,-4.6377 -0.27746,-7.4047 -1.6928,-12.0582 -0.53914,-1.7726 -1.00487,-3.7141 -2.25745,-5.0794 -1.08308,-1.1806 -2.90449,-2.836 -4.32535,-2.0958 -7.85982,4.0947 -7.21197,10.6537 -8.43516,17.8501 -0.14349,3.728 -0.49021,7.4536 -0.43046,11.1839 0.0573,3.5774 0.64872,13.3671 2.45892,17.3098 2.33628,5.0886 7.60142,1.0302 9.91027,-2.1748 1.33009,-1.8464 0.62268,-4.5083 0.93402,-6.7625 0.11243,-5.9723 0.3428,-7.4674 -0.23071,-13.0804 -0.0709,-0.6936 0.26757,-2.0929 -0.42812,-2.0473 -2.03147,0.1332 -4.24027,0.9253 -5.59793,2.4423 -0.81396,0.9095 0.021,2.4441 0.13755,3.6591 0.173,1.8025 0.48684,3.5888 0.73026,5.3832 0.99512,4.2271 1.21584,10.9045 8.11556,3.6567 0.89121,-0.9362 -0.0188,-2.5869 -0.11346,-3.876 -0.28132,-3.8329 -0.62489,-5.454 -1.23001,-9.1609 -0.99685,-4.7997 7.7e-4,-3.5638 -5.88094,-1.1166 0.28424,0.3341 5.0097,-3.6856 4.72546,-4.0197 v 0 c -2.02675,0.3852 -4.18141,0.349 -6.08024,1.1555 -1.51328,0.6428 0.3074,4.6728 -0.8548,4.8578 0.39194,4.0367 0.37393,5.5744 1.50088,9.6068 0.38996,1.3953 0.20909,3.4143 1.49538,4.081 9.19084,4.7635 7.49304,-2.002 6.97396,-6.5837 -0.25584,-1.036 -2.11369,-9.9564 -3.62017,-10.791 -9.00199,-4.9874 -9.02515,3.4213 -9.04476,8.5948 -0.009,2.3504 0.20062,4.6966 0.30093,7.0449 0.20443,1.9696 -0.63913,4.375 0.61329,5.9088 1.37038,1.6783 4.01459,1.6455 6.0827,2.2916 0.29478,0.092 0.88443,0.2031 0.92069,-0.1036 0.25848,-2.1865 -0.0786,-4.4028 -0.12773,-6.6041 -0.16105,-7.2213 -0.32418,-12.9782 -0.51913,-20.2493 -0.56244,-12.253 2.05914,-6.4621 -4.81217,-12.313 -0.52065,-0.4433 -1.27528,-2.283 -1.28494,-1.5992 -0.0222,1.5711 0.80136,3.039 1.24332,4.5469 2.09494,7.1475 1.5087,5.2631 4.06518,11.6819 2.43645,0.3268 4.87217,1.3016 7.30934,0.9803 0.70109,-0.092 0.61805,-1.3195 0.62709,-2.0266 0.021,-1.6448 -0.32492,-3.2744 -0.53851,-4.9054 -0.44414,-3.3915 -1.10145,-6.753 -1.53758,-10.1455 -0.11007,-0.8562 -0.14365,-1.7206 -0.21548,-2.5808 -1.20814,-0.027 -2.47932,0.3049 -3.62442,-0.081 -0.5106,-0.1722 -0.68203,-0.8813 -0.79344,-1.4085 -0.0562,-0.2659 0.35877,0.6442 0.6101,0.5408 0.66838,-0.2749 0.90085,-1.3083 1.60884,-1.4534 1.16334,-0.2383 2.37199,0.6117 3.54019,0.3984 0.39899,-0.073 -0.55019,-0.596 -0.82529,-0.8941 -2.53332,-3.1236 -5.0089,-6.3052 -7.65058,-9.3387 -0.92789,-1.0656 -1.75524,-2.247 -2.85795,-3.1303 -2.03304,-1.6287 -7.07169,1.6678 -7.76189,0.9076 1.12995,3.6696 0.3774,1.4275 2.43363,6.5983 0.88556,2.2269 1.76406,4.4566 2.65576,6.681 3.12851,7.8044 6.32083,15.5836 9.36337,23.4223 2.29844,5.5018 0.81797,5.7242 8.32241,5.0715 0.36802,-0.032 0.13515,-0.7436 0.0654,-1.1063 -0.29253,-1.5204 -0.71966,-3.0127 -1.14435,-4.5016 -0.59093,-2.0717 -1.22516,-4.1315 -1.9016,-6.1768 -0.74802,-2.2618 -1.58063,-4.4947 -2.37095,-6.742 -0.80076,-2.0643 -1.54131,-4.153 -2.40229,-6.193 -0.62292,-1.4759 -0.59622,-3.6683 -2.04674,-4.3483 -9.63662,-4.5174 -6.72321,2.6406 -5.45966,6.2849 0.68122,1.9647 1.47045,3.8904 2.20568,5.8356 1.22374,2.9784 3.23541,8.003 4.66383,11.0252 0.48191,1.0195 0.51491,2.6411 1.5882,2.9872 9.65224,3.1129 6.33714,-2.7506 5.04511,-7.2679 -0.81946,-2.0887 -1.57742,-4.2026 -2.45838,-6.2661 -1.7455,-4.0885 -3.93643,-8.641 -6.19812,-12.4893 -0.89068,-1.5155 -1.2913,-3.6856 -2.89344,-4.4089 -2.22431,-1.0043 -4.90574,-0.5671 -7.31878,-0.2018 -0.45072,0.068 -0.16068,0.8974 -0.24102,1.3461 0.15835,3.8962 0.85888,7.757 2.45459,11.3396 0.0891,0.4271 6.1291,-0.8337 6.03995,-1.2608 z" />
    <path
       style="fill:#ff2a2a"
       id="path53"
       d="m 480.22541,1222.6326 c -1.35186,3.9127 -2.39944,7.9576 -3.11077,12.0373 -0.22864,1.3114 -0.46367,2.6301 -0.51233,3.9604 -0.0197,0.5373 -0.22399,1.5163 0.30955,1.5831 2.25929,0.283 4.53038,-0.4621 6.79556,-0.6931 1.68749,-4.9091 2.88278,-10.052 2.91633,-15.2701 0.004,-0.6589 0.32682,-1.9135 -0.33113,-1.9488 -7.44478,-0.3999 -6.46094,0.5182 -7.14589,5.1189 -0.0852,4.6475 -0.83001,6.9044 6.48547,3.5727 0.64253,-0.2927 0.27953,-1.3842 0.4311,-2.0738 0.15883,-0.7226 0.23493,-1.4717 0.50002,-2.1624 0.0493,-0.1285 0.12601,0.2448 0.18902,0.3671 -1.16125,0.5798 -2.86346,0.5991 -3.48374,1.7392 -0.49532,0.9104 0.57827,1.9917 0.92193,2.9695 0.72557,2.0645 2.12563,6.0531 3.57371,7.8863 0.57408,0.7268 1.3105,1.9134 2.20834,1.6861 2.37732,-0.6016 4.18587,-2.5559 6.27881,-3.8339 0.57285,-6.6457 -0.24897,-13.3322 -1.3742,-19.878 -0.23371,-1.3596 -0.12258,-2.9013 -0.90299,-4.0388 -0.30481,-0.4443 -0.52486,1.0084 -0.99278,1.2755 -1.63901,0.9355 -3.46204,1.5034 -5.19306,2.2551 0.4313,3.2007 0.91535,7.6141 1.81942,10.6786 0.37245,1.2624 0.58919,2.763 1.59468,3.6124 1.38906,1.1734 3.49944,2.9352 5.06867,2.0165 3.78858,-2.2179 2.57642,-9.4563 2.42297,-12.5826 -0.31928,-2.2008 -0.41717,-4.4453 -0.95783,-6.6024 -0.83768,-3.3422 -3.24601,-7.9689 -8.58285,-3.631 -1.69373,1.3767 -0.92168,4.2834 -1.05956,6.4617 -0.33461,5.2863 0.49773,12.2401 0.95184,17.405 0.59112,2.2916 1.00478,4.6365 1.77336,6.8749 1.2528,3.6486 3.45584,7.16 8.94273,3.0061 1.61392,-1.2219 1.07251,-3.9208 1.29763,-5.9325 0.47936,-4.2836 -0.0779,-6.6589 -0.6406,-10.7651 -0.43926,-0.5205 -0.65449,-1.7157 -1.31779,-1.5613 -2.47681,0.5764 -5.23893,1.4468 -6.80366,3.4514 -1.22511,1.5695 -0.46193,3.9595 -0.53409,5.9492 -0.11587,3.1953 -0.11056,9.1543 0.77752,12.5194 0.15624,0.592 0.72784,0.9848 1.09175,1.4771 2.28388,-1.3568 5.48172,-1.7944 6.85163,-4.0705 1.28043,-2.1273 0.22246,-4.9695 0.0814,-7.4485 -0.28774,-5.0578 -1.25031,-12.5843 -3.24695,-17.3559 -0.85983,-2.0548 -1.88794,-4.2181 -3.62298,-5.6149 -1.63661,-1.3176 -3.96457,-1.393 -5.94686,-2.0895 -7.70831,4.5654 -7.17606,2.5713 -10.53609,9.6154 -0.58661,1.2298 -1.54001,2.5154 -1.33707,3.8628 0.10194,0.6768 1.07731,-1.0025 1.75946,-1.0585 2.03798,-0.1674 4.29726,1.337 6.12071,0.4115 1.48678,-0.7546 1.36957,-3.0404 2.05435,-4.5606 0.54034,-1.5063 2.96781,-3.6546 1.621,-4.5189 -1.87508,-1.2034 -4.80431,-0.032 -6.54431,1.3594 -1.48828,1.1902 -1.43197,3.5449 -1.8985,5.3926 -0.76372,3.0247 -1.25934,6.1121 -1.78291,9.1875 -1.4745,8.6608 -1.28173,8.218 -1.86783,16.0216 0.13352,0.837 -0.42722,2.3289 0.40056,2.5109 2.22717,0.4896 4.86727,0.313 6.77714,-0.933 1.25969,-0.8218 0.94421,-2.8605 1.28366,-4.3257 0.44602,-1.9253 0.76741,-3.8785 1.06942,-5.8315 0.71162,-4.6019 0.90085,-3.2837 0.33807,-5.7105 -1.96881,0.7166 -4.592,0.5183 -5.90642,2.1499 -1.19518,1.4835 -0.43144,3.795 -0.41757,5.7 0.0102,1.4077 0.36021,8.1602 1.52291,10.1064 0.61228,1.0249 1.60479,2.8243 2.70117,2.3518 2.42664,-1.0456 3.58062,-3.8868 5.37093,-5.8302 0.25059,-2.3578 1.01223,-8.1061 0.69604,-10.5658 -0.0376,-0.2927 -0.53997,-0.4088 -0.82313,-0.3258 -2.1164,0.6207 -4.72416,0.7163 -6.17454,2.3779 -0.59958,0.6868 0.27558,9.9615 0.29861,10.2681 0.39069,1.1718 0.24528,2.6989 1.17208,3.5155 1.49063,1.3135 3.59656,2.9796 5.47941,2.3455 2.04485,-0.6886 2.67682,-3.4341 3.57646,-5.3953 1.15266,-2.5128 1.77318,-7.5379 1.94785,-10.4964 -5.1373,1.8193 -4.31333,0.058 -5.06336,2.8965 0.13175,0.4894 7.05346,-1.3737 6.92172,-1.8631 v 0 c -2.88774,-5.5769 -0.52703,-3.7609 -8.28775,-3.3396 -1.73777,2.664 -1.99111,2.565 -2.59748,6.3065 -0.26088,1.6096 -0.72591,3.3057 -0.30923,4.8822 0.18462,0.6985 1.26582,0.6979 1.88323,1.0732 1.32136,0.8031 2.40492,2.7044 3.93199,2.4614 1.01535,-0.1616 -0.0116,-2.0563 -0.0173,-3.0844 -0.0971,-0.8274 -0.97353,-9.8824 -1.79202,-10.6832 -0.90354,-0.884 -7.5978,-5.6002 -8.66417,-1.1476 -0.61626,2.5732 0.0405,7.9301 0.25494,10.4864 1.68881,0.2957 3.4879,0.2179 5.06641,0.8871 0.965,0.4091 1.36365,2.7879 2.23752,2.2092 1.0699,-0.7086 0.26968,-2.5603 0.2293,-3.8429 -0.0582,-1.8475 -0.80815,-11.5606 -2.13521,-12.9857 -1.80736,-1.9409 -4.92417,-1.9715 -7.38626,-2.9572 -0.595,0.7482 -1.42499,1.3591 -1.785,2.2447 -1.13985,2.8039 -1.60781,8.312 -1.63628,11.1272 -0.0178,1.7637 -0.86837,4.0134 0.35993,5.2792 1.69261,1.7443 4.51159,2.3771 6.93838,2.2421 1.0914,-0.061 1.21181,-1.8196 1.81772,-2.7294 0.62978,-2.2689 1.42665,-4.4979 1.88936,-6.8066 1.13357,-5.656 1.99744,-13.5231 1.77137,-19.2984 -0.10563,-2.6986 0.74975,-6.0395 -1.0751,-8.0303 -1.79073,-1.9536 -5.25913,-2.4454 -7.78123,-1.6315 -1.59441,0.5144 -1.17098,3.1394 -1.75647,4.7091 -0.37599,1.6845 -1.60504,3.3948 -1.12798,5.0536 1.1488,3.9943 3.42631,8.6126 6.67285,5.0543 0.79922,-0.8759 1.17986,-2.0579 1.72737,-3.1098 0.64828,-1.2454 1.77567,-2.3781 1.85888,-3.7797 0.0521,-0.8777 -1.00394,-1.4437 -1.5059,-2.1655 0.80726,-2.5934 0.52707,-2.78 2.14268,2.6953 1.17873,3.9947 2.68905,12.3068 3.57846,16.2162 0.53807,2.3652 0.14882,5.2549 1.77125,7.058 1.8108,2.0124 4.97516,2.1362 7.46273,3.2043 0.30531,-0.5148 0.82689,-0.9526 0.91593,-1.5445 0.54322,-3.6109 -0.12893,-9.0266 -0.60215,-12.4319 -0.25847,-1.86 0.33312,-4.2261 -1.00552,-5.543 -4.57944,-4.5051 -5.36121,-3.3603 -7.38706,-1.3898 0.0914,2.7106 0.17314,7.4663 0.62326,10.0237 0.2124,1.2068 0.0977,2.8145 1.1104,3.5043 6.6263,4.5128 6.37782,2.1041 6.20358,-1.7495 -0.10076,-2.2287 -0.3385,-4.449 -0.50775,-6.6735 -0.49542,-3.0352 -0.92112,-6.0826 -1.48628,-9.1056 -0.47868,-2.5605 -0.89134,-5.1459 -1.64425,-7.6395 -1.0179,-3.3712 -3.15905,-6.4082 -7.95555,-4.5568 -3.1069,1.1993 5.84863,10.6344 1.45653,9.8843 2.27874,8.5558 -0.7491,3.9269 4.62565,5.6316 1.46918,0.4659 2.709,2.6058 4.14574,2.0478 1.09387,-0.4249 -0.18439,-2.3456 -0.41853,-3.4955 -1.07478,-5.2783 -1.59255,-6.1188 -3.41802,-11.0702 -2.39545,-1.1593 -4.54457,-3.1567 -7.18635,-3.4778 -0.99791,-0.1213 -1.55131,1.4201 -1.85365,2.3788 -0.48367,1.5337 -0.49819,3.2009 -0.41244,4.8067 0.12722,2.3824 0.59543,4.7376 1.04722,7.0802 0.87151,4.5187 1.62137,6.7289 2.85268,10.8203 1.88828,0.1456 3.77198,0.3746 5.66484,0.4368 0.0878,0 0.11761,-0.1642 0.09,-0.2476 -0.3975,-1.1991 -0.84748,-2.382 -1.34641,-3.5425 -0.69366,-1.6136 -3.59848,-8.2909 -5.33681,-9.252 -2.05087,-1.1338 -4.62934,-0.7318 -6.94401,-1.0977 -2.14043,2.7116 -2.55851,2.325 -2.55764,5.9215 2.5e-4,1.0078 -0.41931,2.5019 0.4637,2.9876 3.58596,1.9725 6.6875,2.5935 7.34441,-0.8605 0.22757,-1.1966 0.15895,-2.4309 0.23842,-3.6464 -0.62122,-5.0799 0.50316,-6.3339 -7.50419,-6.3048 -0.83037,0 -0.94162,1.399 -1.17782,2.1951 -0.91413,3.081 -1.2584,7.7885 -1.34359,10.8731 -0.0425,1.5377 0.088,3.0754 0.13197,4.6131 2.12988,0.8366 4.12416,2.1875 6.38964,2.5099 0.57334,0.082 0.73484,-0.9226 0.9285,-1.4684 0.44086,-1.2424 0.6833,-2.5479 0.95445,-3.8379 0.87192,-4.1483 1.48843,-8.3742 1.24004,-12.6244 0.0539,-0.4497 -6.30526,-1.2112 -6.35912,-0.7616 z" />
    <path
       style="fill:#ff2a2a"
       id="path55"
       d="m 549.08978,1283.3652 c 1.90459,-1.0994 -1.0253,1.3037 -0.54167,1.3546 1.90216,0.2004 3.82774,0.4802 5.7308,0.2885 0.39841,-0.04 0.58743,-0.5735 0.74703,-0.9407 0.24633,-0.5668 1.41004,-4.6015 1.62394,-5.3317 0.19457,-0.4869 0.32386,-1.0052 0.5837,-1.4606 0.10413,-0.1825 0.0881,0.5385 -0.10496,0.6216 -0.89265,0.384 -2.01716,0.1337 -2.84264,0.6463 -0.27914,0.1734 0.44122,0.5012 0.72308,0.6701 0.70309,0.4213 1.39657,0.959 2.20643,1.0854 1.42786,0.2228 2.88996,-0.043 4.33494,-0.065 0.47129,-0.1629 1.85334,-0.2531 1.41388,-0.4888 -0.60328,-0.3235 -1.36717,0.2168 -2.04832,0.1485 -0.33398,-0.033 -0.57717,-0.5226 -0.90357,-0.4444 -0.21029,0.05 0.004,0.4381 0.0649,0.6455 0.10762,0.3642 0.16727,0.7847 0.43682,1.0522 0.81362,0.8074 1.82014,1.3938 2.73022,2.0907 4.09043,-2.33 3.82806,-1.1914 5.28363,-4.2461 0.16118,-0.3383 0.74142,-1.1194 0.37129,-1.061 -1.36746,0.2157 -2.45044,1.7241 -3.82981,1.6065 -1.00662,-0.086 -1.17198,-1.9496 -2.16815,-2.1177 -0.57891,-0.098 0.0347,1.1736 0.052,1.7605 0.65883,1.8883 0.52435,2.1294 1.94542,3.6347 0.76887,0.8144 1.74647,1.4049 2.57412,2.1595 0.89078,0.8121 1.05182,1.0259 1.82865,1.8796 0.34196,0.3386 0.57197,0.856 1.02589,1.0157 4.5205,1.5908 4.28173,1.6439 7.13965,-1.513 0.47345,-0.523 0.77469,-1.1793 1.17054,-1.7632 0.18358,-0.2708 0.8907,-0.8521 0.5676,-0.8007 -1.08679,0.1729 -2.05045,0.7998 -3.07568,1.1996 -0.73075,-0.4095 -1.36592,-1.3657 -2.19227,-1.2285 -0.54409,0.09 -0.19229,1.087 -0.25428,1.635 -0.22899,2.0249 -0.30648,4.0649 0.63535,5.9476 0.28897,0.5776 0.72695,1.0678 1.09042,1.6017 0.50158,0.3757 1.00317,0.7515 1.50475,1.1272 0.35848,0.2637 4.08829,-4.806 3.7298,-5.0698 v 0 c -0.0239,0.1181 -0.0478,0.2362 -0.0717,0.3543 -0.0181,0.1015 0.0459,0.3285 -0.0544,0.3045 -0.11293,-0.027 -0.0834,-0.2218 -0.0849,-0.3379 -0.006,-0.4835 0.0418,-0.966 0.0617,-1.4491 0.0319,-0.7734 0.24303,-4.123 -0.0535,-4.8304 -0.60321,-1.4393 -1.69811,-2.6187 -2.54717,-3.928 -3.50584,0.9554 -3.76508,0.1848 -5.35236,2.4784 -0.30037,0.4341 -0.81048,0.876 -0.74137,1.3993 0.0401,0.3034 0.61609,-0.1911 0.91151,-0.1111 0.97116,0.2632 1.81234,0.9471 2.80391,1.118 0.32754,0.056 -0.43927,-0.4989 -0.65891,-0.7483 -1.1456,-1.5114 -2.34107,-2.9409 -3.96599,-3.9751 -0.23,-0.1463 -0.51292,-0.1849 -0.76939,-0.2774 -0.12762,-0.025 -0.27262,-0.01 -0.38286,-0.074 -0.13889,-0.087 -0.21677,-0.2456 -0.32516,-0.3684 -0.46323,-1.4617 -1.29394,-4.2349 -2.26891,-4.593 -2.13205,-0.7832 -4.09243,0.9666 -4.87752,2.5929 -0.19616,0.4064 -0.88887,1.1377 -0.4586,1.2736 0.97311,0.3075 2.01763,-0.3082 3.02644,-0.4623 0.60468,0.692 1.07753,1.5265 1.81405,2.0761 0.24042,0.1794 -0.11625,-0.5898 -0.20598,-0.8761 -0.20889,-0.6664 -0.31335,-1.3899 -0.68887,-1.9788 -1.93767,-3.0387 -2.15207,-2.5268 -5.7678,-2.6014 -0.3294,-0.01 -0.64905,0.1137 -0.97358,0.1706 0.50129,0.1426 1.06046,0.1538 1.50386,0.4277 0.16585,0.1025 -0.3926,0.2443 -0.56458,0.1525 -0.65072,-0.3473 -1.02077,-1.1805 -1.73147,-1.3778 -1.65629,-0.4599 -3.43601,-0.8203 -5.1298,-0.5273 -1.78479,0.3087 -2.83563,2.8267 -3.55301,4.0939 -0.90547,2.8785 -1.24369,3.2615 -1.32095,6.3409 -0.0248,0.9896 -0.63648,2.438 0.20283,2.963 1.67484,1.0477 3.89233,0.8669 5.8676,0.8343 0.42924,-0.01 0.76525,-1.908 0.79703,-2.0433 0.11742,-0.4238 -5.87627,-2.0843 -5.99369,-1.6605 z" />
    <path
       style="fill:#ff2a2a"
       id="path57"
       d="m 630.31366,1273.5274 c 0.27347,2.5281 0.98509,5.0101 2.03456,7.3269 0.41732,0.9212 0.82635,1.8639 1.42754,2.6772 0.55834,0.7554 1.12253,1.6688 2.01079,1.9741 1.66996,0.5741 3.5141,0.3529 5.27115,0.5294 3.52318,-3.8679 1.89409,-1.4713 3.79533,-5.5476 0.23214,-0.4977 0.3312,-1.1115 0.74973,-1.4671 0.17787,-0.1511 0.35093,0.5167 0.18085,0.6765 -0.43197,0.406 -1.3299,0.1863 -1.63786,0.6928 -0.18008,0.2962 0.58263,0.3758 0.87395,0.5637 3.10362,1.7972 4.59543,2.2106 7.97567,-0.9045 0.67091,-0.6183 0.56837,-1.7343 0.824,-2.6101 0.81035,-2.7763 0.062,-1.0506 1.16924,-3.2595 0.22296,-0.2129 0.44593,-0.4258 0.6689,-0.6387 0.26154,-0.3979 -5.36672,-4.0967 -5.62827,-3.6988 v 0 c -0.51513,0.6775 -1.03026,1.3551 -1.5454,2.0326 -0.72887,1.8701 -1.1919,2.5626 -1.29618,4.5149 -0.0133,0.2483 -0.0543,0.7178 0.19436,0.7203 1.17452,0.012 2.28943,-0.5534 3.45674,-0.6838 0.0981,-0.011 0.13604,0.3375 0.0483,0.2922 -0.53089,-0.2737 -0.97981,-0.6835 -1.46971,-1.0252 -0.8428,-0.4762 -1.57723,-1.2487 -2.5284,-1.4286 -1.62085,-0.3065 -3.35377,-0.4064 -4.94872,0.015 -1.94062,0.5123 -3.07005,2.4293 -3.78684,4.0741 -0.22624,0.5192 -0.51314,1.0667 -0.47369,1.6317 0.0146,0.2092 0.40047,0.1248 0.60071,0.1873 0.94229,0.365 1.83954,0.8798 2.82688,1.095 0.29828,0.065 -0.50387,-0.3684 -0.66962,-0.6248 -0.44933,-0.695 -0.78757,-1.4562 -1.15519,-2.1976 -0.9912,-1.9992 -1.85033,-4.0627 -2.86442,-6.0511 -0.0802,-0.4316 -6.18457,0.7024 -6.10439,1.1341 z" />
    <circle
       id="path59"
       style="fill:#ff2a2a;stroke:#000000"
       cx="182.45833"
       cy="1559.4344"
       r="0.38909465" />
    <path
       style="fill:#ff2a2a"
       id="path61"
       d="m 692.9482,1219.7621 c -2.17528,-6.8591 -5.7719,-13.5077 -10.63432,-18.8636 -0.55907,-0.6158 -1.22539,-2.0944 -1.9037,-1.6131 -4.55482,3.232 -8.0818,7.7106 -12.12271,11.5659 1.3002,4.2488 4.82536,7.808 7.95907,10.8386 0.78823,0.7623 1.68049,2.7235 2.55892,2.0672 16.10056,-12.0297 15.74433,-9.4253 9.1557,-17.9324 -1.045,-0.9065 -2.0225,-3.5417 -3.135,-2.7194 -5.13609,3.796 -10.31292,8.4453 -12.65267,14.388 -1.00284,2.5471 2.73692,4.7438 4.2122,7.0496 2.15503,3.3682 7.85656,11.9141 10.94546,14.7711 1.59164,1.4722 3.68992,2.2775 5.53488,3.4162 5.08407,-3.1506 12.05871,-4.3947 15.2522,-9.4519 1.83064,-2.8991 -1.70218,-6.6754 -3.08801,-9.8115 -3.14208,-7.1104 -10.02201,-16.7193 -16.21989,-21.6391 -1.4243,-1.1306 -3.13387,-1.8457 -4.70081,-2.7685 -4.96113,1.6527 -10.7789,1.7182 -14.88338,4.9582 -1.91189,1.5092 -0.73821,4.8479 -0.62132,7.2809 0.0707,1.4706 0.65674,2.8797 1.17566,4.2575 2.82746,7.5074 8.80104,0.9766 16.69152,-5.2283 0.9496,-0.7468 -1.48209,-1.9081 -2.22314,-2.8622 -5.03973,1.3283 -10.91961,0.8984 -15.11919,3.985 -2.13914,1.5722 -0.97547,5.2415 -1.04527,7.8953 -0.15064,5.7271 1.37968,13.2143 4.06202,18.3506 0.32211,0.6168 0.91471,1.0488 1.37206,1.5733 16.15955,-8.4567 17.6408,-2.8457 13.29689,-11.2378 -0.64889,-1.1219 -16.51529,8.0546 -15.8664,9.1766 v 0 c 6.51557,6.4258 1.30721,2.6645 19.02637,-3.0763 0.13048,-0.3434 0.41597,-0.6636 0.39145,-1.0301 -0.11925,-1.7823 -1.76522,-8.2411 -2.05363,-9.3516 -0.45906,-1.7674 -0.66406,-3.637 -1.46169,-5.2797 -2.23884,-4.6108 -26.84075,10.0623 -15.37362,0.3177 -2.86255,-6.9038 -0.85426,-0.6598 15.8564,-7.0398 0.0823,-0.031 -0.24373,-2.0545 -0.66327,-2.1452 -0.54363,-0.1176 -0.77563,0.9124 -1.32159,1.0187 -4.4002,0.8562 -8.88198,1.2206 -13.32297,1.8309 2.29695,4.1242 6.186,8.8521 9.01271,12.4221 1.83775,2.321 3.5234,4.7839 5.60323,6.8907 1.07342,1.0873 2.25268,2.7731 3.77134,2.6052 5.40186,-0.5971 10.39873,-3.1643 15.5981,-4.7465 -3.46567,-5.4196 -7.6556,-10.811 -11.79602,-15.7125 -1.79203,-2.1214 -2.84109,-6.1762 -5.61799,-6.1518 -6.54862,0.058 -12.85149,3.2042 -18.58693,6.3653 -1.00194,0.5522 1.37838,1.8263 2.06757,2.7395 7.66299,7.5571 4.57758,6.7707 21.72739,-3.2868 0.87861,-0.5152 -0.92009,-1.8252 -1.50285,-2.6605 -3.71713,-5.3285 -8.38536,-9.8399 -13.74725,-13.5029 -4.48564,3.6252 -9.48026,6.6982 -13.45692,10.8754 -0.56475,0.5932 0.53813,1.5571 0.94377,2.2687 2.8131,4.9347 6.625,9.3188 9.95292,13.9001 0.33211,1.1987 17.28482,-3.498 16.95271,-4.6968 z" />
  </g>
</svg>
