<svg xmlns="http://www.w3.org/2000/svg" width="778.719" height="1327.719"><g transform="translate(-171.548 -312.126)"><path d="M797.314 1639.846c-42.047-41.689-103.065-2.624-153.02-11.318-57.562-18.468-117.139-12.304-176.403-16.365-53.217-4.457-123.82 22.567-164.263 1.369 46.502-26.881 66.349-80.888 67.631-132.581-7.008-41.078-66.883-105.272-83.37-113.512 3.544 24.649-5.781 62.51-15.392 15.601-13.463-57.93-27.015-116.482-34.69-175.104-3.383 22.028-24.345 90.43-18.102 30.287-6.39-39.836-20.196-101.729-17.24-128.303-34.53 25.198 9.456-55.897 6.567-74.064 9.047-48.2-21.077-91.74-22.343-139.812-6.895-46.477-10.666-93.331-15.141-140.081 14.93-30.797 27.25 55.982 19.455.954-8.292-52.922-34.305-144.902 4.722-172.752-2.894-38.887 9.793-66.427 33.67-80.532 19.799-22.12 19.726 64.13 21.52 4.194-4.473-46.46 30.72-87.497 51.373-106.322-1.895 29.586 10.157-12.786 10.901 19.05 1.652 30.942-1.415-26.908 11.087-6.737 10.133-35.704 15.163 60.49 18.636.442.603-36.866 22.515-12.3 14.678 9.947 6.683-25.668 44.564-112.685 34.648-40.201 4.96-23.324 30.119-76.781 26.5-19.352 4.336-20.177 14.28-50.994 20.416-21.745 16.34 23.979 5.335 102.162 15.623 33.636 16.283-51.718 15.132 66.273 21.929-3.668 7.42-31.49 6.445 28.233 15.152-5.314 21.43-27.232 10.09 27.35 26.347-9.423 1.544 44.577 27.212-64.68 30.354-3.909 10.902-56.817 23.123 41.362 27.076-6.177 7.113-46.23 28.328-11.362 29.844 10.9-2.148-22.252 1.52-77.87 9.265-24.112.286 26.648 34.397 68.952 25.862 15.164 1.13-89.332 40.674 61.587 35.516 31.32-4.074-19.21-2.604-102.037 9.485-40.026 4.739 18.413 10.506 49.836 19.828 19.702 19.763 14.128 33.884 106.99 34.095 36.795 17.137-18.847 32.945 90.298 35.457 21.774 21.855 3.179 39.76 85.792 44.572 22.053 20.909 2.93 23.335 81.106 31.532 23.984 19.315 27.085 14.793 94.733 32.824 105.185 23.55-13.956 28.114 63.702 28.836 90.002 9.872 42.157-11.454 110.21 5.827 136.985 14.427-24.475 4.402-89.066 23.126-90.109 18.61 53.903.483 112.697 4.443 168.615 1.28 73.683 12.884 150.478-14.213 221.198-28.924 14.753-5.426 67.365-27.579 76.026-11.234 35.674-3.95 64.573-3.415 103.303-3.228-25.002-34.737-114.957-18.797-41.64 6.4 37.162-4.831 82.902-34.066 71.79-26.27 14.74-13.596 93.99-42.48 77.715-9.34-20.361-35.027 54.305-51.715 71.64-37.294 40.88 3.411-91.677-28.6-25.956-15.092 27.331-51.408 93.043-54.402 86.528-5.185-23.537 5.507-82.25-15.401-31.039-5.823 30.83-43.687 75.2-43.14 14.689-13.593 23.011-31.758 44.645-56.303 28.807-32.59 2.446 20.788 25.13-15.475 14.673-22.219-9.198-64.642-87.797-44.143-22.555-36.253-22.717-75.323-38.055-106.693-72.046-4.222 33.538-23.426 90.02-45.552 130.702-25.241 20.598-45.403 52.4 2.476 29.438 52.228 10.082 100.561-10.616 154.304-2.03 52.771-1.816 104.649 2.906 156.077 15.81 41.169-1.847 85.246-14.355 125.251-9.62-18.144-42.222-35.628-86.104-27.06-134.413 10.146-37.658 2.51 99.968 9.734 63.23-3.113 35.43 59.484 84.091 32.36 97.31m-209.766-108.93c-2.245-3.872-1.317 3.792 0 0m40.846-5.85c-2.025-11.304-5.765 14.19 0 0m-45.846-1.15c-4.81-7.583 2.304 6.968 0 0m-22.07-3.243c-4.8-12.043-5.98 15.5 0 0m38.035-8.756c26.997-27.859-.549-110.314-29.759-88.572 1.85 48.498-33.303-48.442 15.184-14.64 31.52 41.021 22.747-88.249 57.88-20.073 20.68-23.32 39.112-15.338 62.083-6.277 11.441-24.87 13.36-38.333 8.236-2.963-16.271 25.146-65.515-24.92-68.531 20.223-30.211-51.51-48.707 25.377-24.524 44.495 6.321 14.121 10.44 98.9 23.273 41.35 13.185-19.15 34.308-84.46 47.573-72.113 3.398 24.97-8.654 89.664 12.873 34.848 7.733-25.199 43.263-104.795 53.978-37.334 2.985 33.299-12.992 42.442 6.484 6.579 31.066-51.318 66.002-106.44 63.846-168.662-37.245-16.889-38.445 42.315-61.859 62.245-6.519 8.66-22.4 44.945-12.633 4.15 43.469-18.591 16.928-87.012 64.065-72.863 13.207-17.337-1.556-89.88 23.906-40.271 3.107 30.72 22.639 42.413 18.352 2.488-8.807-22.456-32.46-111.535-5.625-50.178 14.511 34.682 25.75 135.292 20.871 122.87 3.738-49.036-3.922-98.781-20.874-144.637 17.148-7.485 54.451 102.798 42.316 26.611-7.686-20.971-47.574-99.487-2.157-51.528-1.752-36.202-9.437-100.902-39.44-120.91-38.99 4.826-54.729 12.51-78.285 47.67-25.54 6.04-118.03-2.275-94.95 36.925 46.267-15.527 77.92 39.733 88.522 77.648 10.726 41.638 18.766 91.95-17.98 123.384-18.446 41.396-61.405 56.445-102.414 65.317-46.078 25.682-89.863-10.697-138.355 5.403-59.158 2.664-131.54-22.8-146.99-86.674-11.464-46.678-.997-97.204 28.314-135.859 54.173-34.08 3.9-95.734-47.33-75.782-30.57-14.393-77.287 2.975-72.045-31.615-34.611-54.886-63.316 45.966-68.72 75.635 9.5-12.094 62.856-50.022 37.302 4.632.37 27.429-26.308 80.579-2.257 92.316 20.48-11.999 9.087 58.153 19.05 79.271 3.353 23.23 21.16 123.73 17.41 55.266-6.516-33.813 20.697-62.327 18.177-13.36 5.907 35.825 38.13 107.944 64.534 105.641-16.198-24.177-21.65-88.342 2.291-29.187 23.705 46.078 69.612 75.168 110.085 104.642-15.666-24.168-15.963-96.677 14.381-39.701 11.422 26.1 89.095 91.796 53.178 28.714-23.16-22.84-14.502-62.704 11.609-23.18 15.682 3.004 39.162 89.616 48.955 58.056m-173.465-79.414c-38.447-15.456-32.712-55.635-13.111-44.646-38.724-25.007-.385-71.896 11.505-35.3-61.963-21.18 43.055 58.952-22.177 47.247 3.944 6.492 53.389 34.784 23.783 32.7m-105.989-110.67c-17.232-31.676 11.109-69.798-21.67-105.822 7.179-17.563 36.358-26.792 2.954-48.706-18.6-6.608-29.38 41.407-12.827 1.443 17.323-21.38.317-56.922 21.439-15.248 13.595 22.8 17.128-33.578 11.76 8.774-3.508 26.446 6.03 42.159-14.13 54.742 2.746 22.526 40.286 63.19 12.537 68.744.239 6.748 26.143 58.32-.063 36.073m462.884-216.998c-18.819-6.32-27.339-21.615-11.208-39.554 14.08 49.183 30.107 28.972 31.248-7.437 19.163 12.878 28.658 18.345 29.348-8.266 17.01 45.72-37.641 12.284-37.008 53.583l-5.195 2.873zm-523.585-25.417c14.994-17.542 101.61 7.262 41.69-4.67-13.772-7.008-35.4 5.713-41.69 4.67m407.091 372.362c8.177-44.7-29.239 70.18-.104.257zm-235.985 14.854-3.387-2.058zm112.24-4.499c-14.175-17.002 5.887 11.82 0 0m209.858-13.218c1.962-8.377-14.67 25.248 0 0m-77.09-4.942c-2.619-4.567-2.616 15.848 0 0m-293.58-1.548c-.937-26.198-17.89-11.434 0 0m332.99-4.76c17.029-11.732 29.634-69.254 8.502-22.974-.28 1.643-21.296 38.587-8.503 22.974m-38.651 1.062-.185 1.806zm114.854-51.693c20.402-30.88-17.151 22.254 0 0m-497.537-39.497c.769-22.139-9.3.593 0 0m321.5-2.382c48.366-20.132 117.3-21.631 135.932-81.357 40.035-50.375 15.234-121.68-17.994-168.859-40.968-32.331 36.167 53.532 23.662 77.674-22.156 13.771-29.333-120.441-73.222-69.564 8.426-5.94 7.894-51.352-9.665-13.157 9.422 34.58 3.238 92.083-41.015 46.745-29.968-16.665-52.663 89.413-82.32 32.312-7.379-64.466-77.965 37.723-80.126-31.725-38.632-63.885-56.008 38.306-62.124 70.013-24.787 32.767 1.879-50.421 5.404-68.93 4.537-44.116-59.532 54.832-38.863 85.78 5.288 61.882 60.924 115.78 124.751 110.064 39.076.277 79.534-9.365 115.58 11.004m-49.5-36.402c-55.87 1.916-129.476-7.159-151.843-66.668 24.383-25.273 78.733-19.883 78.588-67.086 5.746 61.014 84.309 51.63 127.796 35.984 41.469 3.813 17.147-69.127 50.354-28.784 19.746 8.778 111.853 8.913 73.225 61.065-33.34 36.089-82.413 68.683-131.445 63.579-15.208.872-31.83 7.508-46.675 1.91m20.974-5.588c-24.313-45.408-59.468 9.458 0 0m29.8-1.13c42.462-8.039-35.451-45.362-24.488.796 6.17 4.202 16.92-1.614 24.487-.795m-81.086-1.629c7.154-33.41-30.867 10.528 0 0m-19.688-1.017c-16.31-17.43-8.415-99.878-29.13-82.418-12.623 31.012-29.036 94.188 29.13 82.418m134.782-.125c64.942-22.446-43.522-25.68 0 0m-97.006-11.673c15.37-30.638 48.512 29.73 59.903-17.292 17.165 7.064 33.709 42.957 33.252 1.853 63.882 17.465-22.396-99.104-16.248-21.334-14.996-9.125-26.337-44.595-19.592-2.09-5.066 32.372-54.238-34.295-57.433 10.964-16.304-10.37-29.25-51.024-29.916-7.126-27.997-16.285-2.847 60.235 9.225 24.842 7.806 3.377 14.735 33.641 20.809 10.183m133.724-2.761c76.87-10.059-20.328-85.48-24.47-90.318 7.152 30.187 8.2 63.21 24.47 90.318m-221.5-1.732c-.65-52.576-50.352-13.49 0 0m-20.889-27.135c59.53 7.263-28.754-53.854-6.166.157l2.796 1.674zm159.124-32.048c-30.587-18.073-36.634 38.183-1.489 27.694 2.157-9.133-1.31-18.566 1.49-27.694m131.347 20.75c-7.375-40.47-20.858 21.859 0 0m-179.224 4.5c12.962-44.974-40.879-16.207 0 0m-127.897-4.659c-12.936-17.182-2.853 16.699 0 0m92.468-5.304c18.7-38.253-38.68-7.884-1.09 5.33l.619-3.022zm109.614-5.905c9.845-45.961-26.51 11.551-.154.745zm86.525 2.032c3.39-16.394 34.366-21.1-2.556-32.854-62.99-28.482 3.039 42.36 2.556 32.854m-237.542-12.167c-7.602 5.857-3.744 19.008 0 0m-8.308 5.003c23.686-30.257-39.602 9.367-2.045 4.002l1.403-2.747zm275.204-2.789c7.567-26.072 4.199 12.526-4.98 4.715zm-83.885 1.789c2.956-31.72-33.552-21.446 0 0m54.463 45.924c9.79-18.079 7.313-.542 0 0m109.244 40.826c-1.509-20.502-1.093 36.33 0 0m-535.561 8.812-.185 1.806zm555.767-20.32c5.64-28.725-8.997 17.574 0 0m25.931-2.044c-1.583-3.53-1.434 5.605 0 0m-33.385-16.259c9.247-22.662-11.377-58.221-3.996-14.898 1.322 4.686-2.876 39.226 3.996 14.898m-460.576-19.44c-4.292-30.2-17.368-10.55 0 0m481.973-.331c8.039-24.683-10.537-5.662 0 0m-1.393-22.04c-5.088-4.083-1.455 10.51 0 0m-634.317-38.566-.185 1.806zm143.873-18.59c-3.442 7.39 3.24 14.22 0 0m-146.54-18.87c-.841-19.366 23.572-117.575-2.883-64.815-11.868 6.824-6.54 108.476 2.884 64.815m357.206 4.648c28.533-21.922 35.599-95.584 76.564-37.571 33.266-39.652-7.618-122.482-52.084-60.396-24.082-40.252 47.904-95.73-4.738-133.853-25.71-58.516 34.893-97.355 67.976-134.257 36.348-25.652 91.494-82.51 138.142-45.751 32.355 28.568 59.753 62.406 75.918 102.87-22.515 1.104-59.774-42.901-87.388-60.584-41.694-51.033-103.346 14.21-139.848 44.936-26.404 35.957-66.562 82.006-17.919 120.765 13.784 26.232-35.211 88.497-16.271 83.69 39.17-25.721 86.16-12.59 127.482-24.39 32.63 4.197 49.112-41.117 86.153-44.413 9.949-21.13 12.632 12.425 26.113-15.597 8.758 31.3 2.495-10.453 21.946 7.218 15.978-61.876 31.22-140.954-21.032-190.976-14.006-57.49-50.553-103.853-75.43-157.692-13.818-40.075-25.59 20.11-43.542-12.75-26.525-36.266-75.946 32.004-82.2-28.509 1.211-31.671-9.834 31.942-26.27 5.667-49.555 27.423-51.696 77.51-62.688 127.664-15.447 1.23-8.877-35.345-10.455 5.143-17.384 65.57-26.113-39.069-52.47-50.479-25.894-36.278-85.734-65.74-118.72-47.996-18.272-14.76-23.32 31.432-54.93 22.82-11.191 41.925-59.176 62.308-65.32 108.746-17.874 48.348-4.606 102.553-18.877 150.812 5.35 21.163-20.727 87.504 27.666 84.785 14.602 59.218 90.884 23.817 126.975 43.503 25.875 6.21 46.963 45.417 64.092 74.83-16.735-49.69 47.719-72.6 56.279-55.376-36.993-48.511.86-107.393-22.428-151.816-16.682-50.523-67.36-66.201-87.49-112.567-9.774 28.972-32.746-13.276-47.09 17.549-38.954 23.757-65.481 66.03-78.386 92.434-37.883 30.838-5.723-45.156 20.803-57.378 29.203-43.587 57.579-55.729 96.68-82.672 34.127-1.837 65.588 42.673 84.84 77.845 24.997 40.867 57.436 101.922 41.254 130.839 22.083 28.488-4.367 42.653-8.999 5.459-11.2-19.309-5.935 27.421 10.444 33.317 2.303 26.938 9.98 44.882 12.442 65.668-22.054 10.384-70.037-38.024-51.272 10.448.672 11.615-.51 47.106-11.139 35.613 23.403 28.712-20.358 9.744 7.213 37.323 29.638 13.582 24.355-80.195 50.187-32.589 2.476 20.4 9.176 54.574 37.817 47.668m-172.55-202.66c-37.47-9.637-110.134-21.607-107.332-68.278 40.464-23.249 104.655-40.642 145.793-10.267 51.346 41.202 25.374 92.033-38.46 78.544m16.909-18.78c31.203-50.753-46.755-99.467-77.36-44.895-14.626 39.013 50.094 60.018 77.36 44.895m25.745-.331c51.125-2.597-46.541-101.343-10.378-28.602.72 14.404-25.793 41.017 10.378 28.602M328.94 923.335c10.32-25.81 34.143-49.526-8.822-30.8-36.882 4.281-10.784 25.768 8.822 30.8m38.607-41.418c1.197-4.299-7.194 5.776 0 0m8.5-2c-4.628-3.46-6.082 4.678 0 0m320.5 67.406c-41.035 1.533-65.7-39.103-22.788-60.708 39.772-48.39 120.101-51.069 169.822-21.202-19.214 48.824-83.095 83.322-136.069 83.007zm7.73-13.276c51.18 17.257 103.902-52.574 42.645-76.92-42.957-12.574-91.328 56.618-42.645 76.92m-23.958-2.969c8.892-39.327-14.464-49.361-23.008-11.517 6.145 6.292 15.495 7.572 23.008 11.517m108.172-19.161c29.794-21.744 73.608-48.459 12.063-52.627-42.118-21.803-27.639 66.127-12.063 52.627m38.056-21.604c-12.911 3.3-1.282 4.638 0 0m84.886 246.428c-6.597-9.294 6.238 19.278 0 0m-386.886 2.946c-4.079-.437-1.948 4.244 0 0m-99.229-10.332-2.558 3.452zm-25.787 1.812c.099-7.224-4.76 2.678 0 0m25.255-8c25.441-32.564-8.997-8.575 0 0m-17.275-11.691c-4.18 1.121-2.745 10.777 0 0m6.812.318c-2.7-11.482-1.747 18.178 0 0m-216.649-.627c3.163-4.586-7.088 6.406 0 0m717.646-1.08c39.024-52.068 25.298-122.028 25.004-182.622-4.777-68.137 8.844-136.697-1.99-204.548 9.005 40.929-34.116 76.95-19.39 116.768 17.533-31.705-1.126 28.362-10.24 18.046-14.052 32.169-7.368 57.96 15.495 75.792 5.255 46.247-47.042 63.373-24.967 109.73 1.71 22.329-3.449 50.681 16.088 66.834m-485.773-12.232c-10.33-.295-3.06 13.395 0 0m52.2-1.138c-4.557-.933 3.165 7.331 0 0m-38.2.2c-1.317-3.792-2.245 3.872 0 0m-20.036-7.691c-5.267-7.839-7.102 23.315 0 0m15.418-4.56c-6.157-35.595-3.535 12.397 0 0m46.093-1.709c1.734-19.493-9.754 11.97 0 0m-52.507-13.267c-10.499-4.173 5.217 10.554 0 0m105.532-1.773c-5.864-1.656 1.104 6.506 0 0m-135.5-21.878c-4.113-12.717-8.58 9.085 0 0m-54-8c2.366-26.161-28.363 10.806 0 0m15 .413c-6.45-18.21-5.078 9.505 0 0m527.519-3.785c-3.679-27.65-.809 13.33 0 0m-283.41.046c9.908-20.475.767-13.23-1.808 1.512zm-384.986-9.296c.72-9.016-9.885 23.13 0 0m4.377-11.5c4.774-7.133-7.615 7.836 0 0m2.25-12.013c28.033-20.575-41.627-45.272 2.399-68.884 17.825-31.42-30.56-106.86-38.57-104.48.387 57.625 14.19 114.572 26.81 170.316.676 4.492 6.637 6.359 9.36 3.048m8.817-5.903c20.22-24.119-25.003 24.408 0 0m644.185-5.584c-4.189-25.352-4.388 29.28 0 0m-250.773 1.54c8.601-33.289-8.38 7.615 0 0m274.315-10.888c27.455-12.657-1.917-92.718-5.88-33.878.408 7.492-15.257 45.331 5.88 33.878m-666.297-2.402c-5.314-55.663-29.007-23.87 0 0m286.095-26.032c7.265-17.539-9.699-.026 0 0m93.497-84.848c7.911-32.659-15.247 28.748 0 0m-322.867-7.481c-17.033 15.383-1.092 7.792 0 0m-47.724-3.762c5.472-46.738.66-109.653 30.025-142.29 7.569-33.617 44.516-54.275 39.77-57.474.844-16.731 21.76-39.165 29.52-12.93 9.474-41.275 59.437-32.972 94.56-36.919 31.537 9.095 40.196 40.783 66.364 49.52-1.61-65.41 16.12 34.554 35.874 41.605 44.066 2.427 11.64-67.227 47.416-93.372 9.254-11.232 24.527-44.927 26.563-10.267-13.496-37.159 51.148-11.277 29.056-9.855 8.087-42.133 13.946-6.706 26.787-.06 8.86-24.22 18.502 48.088 26.116-1.69 17.951 29.538 34.027-15.346 39.481 20.604 22.682 30.4 31.5-37.811 49.109 11.466 19.653 43.01 59.252 85.659 69.797 113.302-.159 45.641 57.095 92.32 41.336 19.01-7.465-35.836-37.706-84.89-71.732-114.328-32.155-4.889-59.345-102.91-24.514-36.791 10.683 27.78 72.61 63.87 45.357 7.514 4.193-30.871-36.204-83.92-33.955-89.14 49.387 31.938 35.018 98.048 52.7 146.965 6.243 21.443 41.827 79.07 33.934 28.524 3.93-31.166-18.942-88.29-15.437-105.677-19.01 57.148-21.605-64.509-34.87-80.062-18.612 30.193-24.905-92.524-32.773-23.402-24.886-.678-44.495-80.352-38.569-21.08-23.625 20.443-32.808-86.993-35.848-21.811-19.753 28.59-40.685-109.446-37.664-23.495-15.31-13.249-18.053-62.838-31.386-23.21-15.325-13.995-33.41-84.654-28.306-23.7 5.074 32.46-35.295 21.42-32.8-4.584-2.678 77.342-33.366-72.787-29.77-14.685-1.213 21.568-30.356 28.219-28.106 2.393-12.345 29.187-23.682-22.55-32.164 23.676-22.228 29.52-33.716-22.487-39.077 15.237-9.404 37.155-27.895 20.826-23.34-8.168-5.124 23.843-12.695 80.702-25.334 27.497-7.886-25.115-8.956-79.292-13.178-20.379-21.502 58.294-3.68-79.053-23.02-10.057-2.521 20.8-22.694 35.97-30.732 20.037-2.972 12.638-7.687 63.48-21.713 27.005-10.208 23.47-37.634 50.2-48.15 20.304-10.704 13.703.89-38.21-7.422-1.495-6.792 48.459-6.06 10.549-20.932-4.846-17.9 33.254-7.44 124.136-40.487 117.982-2.399-76.492-1.497 43.91-16.502 29.775 8.868-24.694-3.464-99.761-10.726-35.024 4.047 45.64 4.95 93.006-11.18 135.545-9.364-18.428-4.181-129.33-9.78-53.295-4.221 55.15 18.942 108.804 26.715 160.888-24.171-26.063.312 49.676 23.188 38.539 5.62 1.768 9.97 40.94 15.8 22.698m-7.55-185.393c-18.972-18.426 37.68-11.489 10.913-43.126 12.246-12.459 3.457-32.44 19.173-27.073 1.282-45.294 13.715 28.479-10.786 38.549-3.533 16.256 9.325 35.739-19.3 31.65m656.71-1.234c.867-4.552.867 4.551 0 0m-333.02-72.089c-12.201-17.597-42.687-33.324-51.128-2.965-24.996-40.017-42.582 25.4-59.6-15.934-29.438 7.51-41.713-50.683-11.625-11.031 11.025-31.138 38.708 56.307 41.836 2.359 17.26 1.05 43.237 30.734 46.166-3.518 12.402 6.37 86.833 37.517 34.352 31.09m102.17-63.183c-28.932-23.2-18.138-39.406.06-16.846-14.987-71.031 44.552 36.819 54.862-20.437 29.303-5.67 60.727 50.23 16.463 12.482-25.086-23.007-20.775 51.651-48.787 5.307-31.519-30.07-.591 26.687-22.597 19.494m-367.538-5.228c-42.93-14.491 45.601-3.745 16.416-11.851-2.118-35.327 35.53-56.87 47.014-17.546 15.44-12.391 23.958-70.078 41.8-22.386-3.978 12.579-33.817-31.932-25.97 12.745-12.806 50.369-57.896-47.212-53.03 15.924-1.181 12.602-9.404 34.944-26.23 23.114m260.437-31.172c-7.205-13.861-20.342-67.865 10.7-52.45-18.397-28.039 20.046-43.864 33.167-16.592 21.888-21.817-19.623 29.067-25.3-5.282 1.036 19.961-7.987 47.75-21.002 33.342-.639 5.74 19.254 55.235 2.435 40.982m72.881 356.043c7.867-15.025-11.97 17.508 0 0m13.502-.114c-7.116.664.154 3.865 0 0m-332.102-6.88c2.513-7.216-6.352 10.494 0 0m589.412-7.186c-1.404-9.605-2.002 15.613 0 0m-254.903-13.893c10.292-16.125-23.067 27.011 0 0m-181.497 3.702c-2.414-3.927-2.414 3.927 0 0m203.5-4c13.366-17.552-16.191 18.298 0 0m-338.61 1.422c-1.208-4.598-5.221 8.896 0 0m336.173-9.672c9.26-9.737-11.624 10.372 0 0m-320.85-11.25c3.876-10.663-12.02 20.717 0 0m106.287 5.581c.472-10.067-6.995 3.246 0 0m451.662-6.331-.048 2.44zm-224.662-1.4-4.535 2.753zm24.297-5.35c6.56-13.345-21.672 28.373 0 0m-330.211-1.282c11.5-24.674-8.946 5.14-2.943.278zm313.358-7.632c11.609-18.523-23.807 26.568 0 0m35.224-6.43c1.751-13.597-13.843 24.785 0 0m70.46 4.028c-8.57-5.958 4.67 8.773 0 0m-413.128-9.574c-6.491-9.697-9.02 28.06 0 0m328.656 9.14c11.13-12.579-9.328 5.312 0 0m-303.973-3.438-.185 1.807zm336.826-8.114c4.622-14.223-17.608 27.812 0 0m-334.68.302c-4.344 4.225.697 7.622 0 0m314.298.25c3.163-4.586-7.088 6.406 0 0m-8-1c3.163-4.586-7.088 6.406 0 0m21.412-.293c3.565-6.211-7.01 7.077 0 0m10.961-12.958c2.942-14.063-22.76 27.17 0 0m2-7c-1.317-3.791-2.245 3.873 0 0m159.5-66.117c-3.757-1.93-.935 4.937 0 0m-5-57.941c-2.998-5.358-.139 6.71 0 0" style="fill:#000"/><path d="M762.19 1452.476c-3.87 18.64 2.235 72.912-3.595 22.47 5.423-59.187-.974 7.173 0 26.066-1.411-32.88 1.05-36.06 3.595-61.12" style="fill:none;stroke:#000;stroke-width:1px;stroke-linecap:butt;stroke-linejoin:miter;stroke-opacity:1"/><path d="M560.225 1168.315c-20.075-13.689-19.123-94.966-46.593-38.865 7.841 41.921-47.459 18.653-27.091 10.458 7.204-4.683-2.45-19.07 6.609-29.767 13.18-16.221-21.095-62.345 16.477-45.629 35.106 27.38 45.769-4.3 27.793-23.017 16.486-30.613-36.122-48.233-17.792-76.365-3.745 26.867 37.899 50.796 14.357 8.312 3.996-24.523-.41-76.107-29.254-109.695-20.201-36.8-47.769-95.501-87.37-100.809-37.498-7.892-66.726 38.616-95.78 59.68-15.412 21.122-70.233 73.057-46.546 82.759 30.532-16.642 48.598-80.619 92.374-97.96 28.775-16.517 48.699-4.11 48.432-10.567 29.112 43.36 75.795 70.736 93.666 123.683 5.076 32.637-19.1 74.92 4.077 110.276 32.413 51.886-36.48-13.115-41.712 37.89-.638 65.138-27.588-8.832-50.988-22.218-17.928-30.74-77.465-14.414-115.353-22.921-22.657-9.174-32.211-42.132-57.837-46.555-5.193-49.396 6.337-90.42 8.902-139.51.296-54.837 11.853-116.444 55.074-153.568 22.07-16.674 13.811-47.756 49.03-44.564 19.417-38.799 65.288-16.096 106.433-3.37 45.008 20.982 57.504 87.213 83.947 109.7 16.287-33.493 30.63-63.932 34.915-111.866 18.784-25.55 80.348-49.02 71.263-49.092 11.549 63.37 62.67-11.616 90.72 34.151 14.687 9.525 28.253-25.866 37.205 12.578 23.62 48.903 58.744 91.443 69.253 145.267 44.403 44.362 47.255 112.679 30.16 169.913-.206 41.706-29.772 15.133-42.734 28.754-25.8-2.736-65.528 51.09-94.7 49.8-26.486 6.45-52.658 2.958-77.312 15.165-22.331-28.21-75.552 40.674-47.611-12.78 47.487-53.52-49.008-102.405 9.557-149.402 30.535-46.12 78.268-89.795 134.03-97.238 37.268 26.152 78.183 70.243 113.954 84.783-18.441-49.718-55.11-105.131-107.745-120.944-52.682 11.441-100.269 47.87-134.638 89.638-56.588 32.449-51.477 99.66-21.01 145.963-1.174 21.519-47.331 111.292 2.536 83.32 46.219-64.811 66.097 100.503 18.829 56.54-40.407-48.018-31.07 75.405-77.527 48.072M448.061 966.368c64.518-30.556-23.966-119.11-75.116-90.142-36.417-4.468-117.436 28.6-52.984 62.003 38.034 22.117 83.89 37.539 128.1 28.14m285.363-18.999c41.388-10.802 106.093-41.504 107.727-86.151-56.865-25.343-138.034-22.002-175.904 34.637-57.221 38.018 38.846 61.229 68.177 51.514" style="fill:#916f6f;stroke-width:1.27111"/><path d="M601.07 1339.644c-57.679-21.68-129.355 13.871-180.584-30.305-49.685-41.332-66.838-123.324-20.076-173.516 35.418-43.01-9.307 58.987-4.833 76.786 15.578 17.295 21.508-59.164 31.589-79.337 36.279-65.423 40.813 70.7 82.244 21.486 41.768-36.206 49.62 77.835 89.595 7.782 10.418-58.05 47.186.238 75.137-12.259 6.232-17.765-9.307-85.513 13.857-66.86-25.268 50.166 20.34-20.335 30.252 23.27 7.304 19.884 44.842 111.689 34.17 44.405-4.844-25.067-60.638-100.377-11.521-41.695 27.787 46.541 43.933 111.225 6.71 157.237-20.638 57.41-89.83 61.308-138.686 76.375zm1.186-30.928c41.126 6.373 86.253-22.157 114.664-35.36 35.397-24.182 52.183-83.972-9.858-84.197-27.982 20.508-66.91-54.704-58.502 2.734-36.263 33.474-88.7 31.587-132.777 24.11-23.163-11.363-24.135-67.092-34.602-13.311-21.65 23.628-102.149 26.392-49.799 69.381 42.007 42.553 107.905 36.575 162.608 37.645zM221.328 999.517c-14.102-57.628-28.661-117.644-26.203-177.387 24.902 41.014 58.859 93.502 21.594 136.26.415 15.402 44.789 40.603 4.61 41.127M910.869 1104.72c-6.159-36.434-33.034-94.5-.851-121.396 29.794-29.705 7.184-62.14-7.844-82.044-11.724-30.888 33.274-61.327 19.512-68.725-18.027-.145 20.083-97.573 18.35-88.08 3.746 82.631-3.986 165.468.89 248.203 1.396 33.262-.194 104.797-29.976 112.139z" style="fill:#916f6f;stroke-width:1.27111"/><path d="M896.512 980.342c-4.462-20.076 14.833-85.658 19.052-31.59 3.547 8.988-6.28 42.35-19.052 31.59M657.363 1622.812c-49.278-11.435-98.92-19.03-149.596-15.489-29.709 1.737-61.53-6.115-90.234.188-29.04 7.933-84.578 2.675-101.13 4.407 48.42-32.865 44.887-96.754 76.581-138.795-14.19-56.059 33.634 32.017 59.988 20.724 27.462 31.048 53.386 31.364 41.492 2.824 9.032 16.697 57.222 64.956 57.544 43.858-7.319-31.928 45.893 18.11 49.55-25.339 14.3-42.702 13.84 53.75 36.713 6.254 13.527-22.68 37.532-88.841 30.196-24 .649 63.07 33.116-35.394 48.179-50.457 10.987-24.17 29.96-54.597 20.64-6.122-10.8 33.357 27.947 4.356 22.216 13.75-12.564 51.353-7.154 106.997 21.879 151.854-21.81 13.227-88.844 7.46-124.018 16.343M217.059 1176.483c-13.607-24.63-3.027-83.707 13.333-91.362-1.45 29.585-10.218 67.365-13.333 91.362" style="fill:#916f6f;stroke-width:1.27111"/><path d="M240.211 848.762c-10.621-25.842-42.257-20.623-39.104-58.827 24.244 3.07-14.527-65.706-12.432-90.563-11.155-27.447 16.01-2.021 11.075-40.284 19.448-34.002-8.545-127.61 15.3-125.557 1.706 19.828-4.446 93.375 10.379 35.618 2.007-33.152 4.295-39.228 6.473-2.511 34.564-21.031 21.903-62.9 31.455-95.922 3.483-49.843 18.556-17.958 24.482.116 6.47-22.026 3.432-40.432 10.98-24.135 16.937 47.278 43.405-39.948 60.94-6.418 10.906-18.519 1.916-53.254 26.236-34.267 16.143-21.934 29.652-75.42 24.231-14.826 8.106 52.164 20.341-67.166 19.956-8.842 2.054 25.482 23.163 81.402 27.184 23.194 6.342-53.556 1.303 34.532 22.063-2.984 4.746-39.298 51.7-3.829 57.757-50.734 12.3 20.339 17.906-2.3 31.407 17.585 21.698-20.533 16.843-47.294 27.833-5.566 7.422 46.143 21.49 12.951 20.405 9.365 32.366 56.981 27.882-41.68 35.479-25.478 5.845 37.43 26.49 42.935 36.538 33.442 5.803 22.334 26.422 52.324 19.467 6.888 6.674 8.13 37.204 99.626 39.65 28.019 4.351 25.594 39.62 77.236 32.197 18.367 12.724 39.202 41.17 49.546 47.733 31.114 8.403 22.27 7.727 55.507 27.154 44.708 10.094 22.921 5.486 97.858 29.346 89.79 8.927-33.585-.048 51.232 18.29 64.33-.316 20.135 2.67 63.376-19.667 26.766-35.102-48.72-12.712-121.467-54.191-165.693-43.83-40.351 23.55 41.413 18.428 65.729 5.94 23.605 14.184 64.043-19.447 30.945-14.613-11.633-58.849-87.455-34.815-28.048 31.604 43.995 79.04 74.362 99.36 128.054 17.705 24.929 7.855 106.545-20.577 42.89-11.474-52.456-29.868-67.948-61.148-113.199-14.265-21.764-36.795-85.003-56.804-39.43-21.469-13.501-17.29-36.903-40.292-20.629-17.132-30.115-22.985 34.668-29.82-9.025-2.92-7.796-23.581 10.766-22.258-19.644-18.025 11.971-12.107 31.367-29.213 9.779-24.73 3.326-49.735 34.704-61.297 76.536 9.117 26.533-19.31 69.6-39.768 33.61 1.844-24.267-33.947-81.396-23.573-25.848-27.292-28.421-64.76-65.838-109.875-47.191-23.917-5.937-45.918 19.413-52.915 27.052-29.91-12.562-33.78 47.553-62.604 59.762-19.88 38.679-31.105 82.834-32.314 129.489-1.458 7.82-.496 52.661-9.684 22.473m15.96-179.482c-3.222-21.626 39.712-76.04 11.773-83.408.96 18.165-25.858 36.269-12.038 68.74-29.217-3.407-28.036 24.931.266 14.668m643.133.953c-3.151-6.698-3.151 6.697 0 0m-319.14-71.135c6.725-11.089-55.553-50.901-62.842-14.702-13.552-14.722-43.586-21.268-37.816 4.097 19.246-19.995 37.19 27.413 51.252-11.068 19.404-1.913 29.808 30.658 49.407 21.673m-105.493-4.006c-2.887-28.688-35.903-37.856-53.069-39.835 4.824 24.897 46.727 27.059 53.07 39.835m201.26-62.408c-12.812-50.691 19.174-.003 39.855-3.674-9.826-58.195 70.904 23.918 37.56-20.027-28.944-35.804-46.191 30.758-71.116-10.206-30.257-36.56-5.396 49.69-28.582 6.4-22.833-14.963 13.834 49.143 22.283 27.507m-362.91-.451c21.558-9.69 6.124-77.198 37.197-32.935 36.884 33.377 21.15-62.551 54.605-16.722-12.757-58.378-28.141 7.753-43.887 15.137-19.475-52.037-41.307 8.319-55.549 21.18-38.499.976-13.224 13.749 7.634 13.34m253.253-35.22c-3.423-24.444-13.299-37.09 8.574-42.4.766-32.986 2.83-27.889 24.354-18.537 30.15-16.124-12.362-18.573-29.575-18.627 5.403 32.422-35.565 29.36-14.584 69.768-.758 3.49 11.417 26.702 11.23 9.795M589.66 1515.202c-14.449-21.174-48.036-94.723-66.797-71.255 7.473 24.812 48.227 87.676-1.382 45.51-20.518-9.655-63.439-103.815-62.572-41.994 7.54 23.466 13.85 53.79-15 20.56-45.295-19.653-79.234-89.825-102.41-107.371 3.022 23.728 32.18 84.92-6.531 35.982-28.49-34.376-40.012-81.046-47.1-122.225-25.309 16.549-5.242 104.28-20.883 36.463-9.201-44.268-14.688-89.2-18.702-134.205-37.67 29.118-6.955-54.334-8.528-73.818 11.295-28.08 10.056-58.032-21.302-27.679-27.787 23.2 7.12-50.482 15.803-65.905 30.686-43.207 38.1 17.286 45.792 23.49 41.326 21.04 105.214-7.896 134.904 37.314-4.508 47.803-67.753 89.558-55.718 148.933-7.313 71.41 59.247 120.997 124.818 124.332 52.282-12.788 102.766 14.881 151.68-1.433 47.984-10.412 98.498-26.915 120.678-75.042 38.472-39.851 20.377-101.96 2.16-147.166-11.872-41.777-54.793-50.434-84.56-57.328 24.813-40.392 105.673-4.006 130.493-57.887 16.575-20.782 75.426-26.895 72.29 19.653 4.817 26.593 41.315 108.819-7.775 65.774 4.821 32.618 34.566 67.182 26.97 98.637-7.77-16.743-55.874-94.657-37.17-34.978 13.28 33.105 18.205 95.567 13.709 114.563-5.144-47.003-7.12-103.743-32.208-141.171-7.487 28.757 35.454 90.904 9.815 100.72-2.593-30.87-38.342-68.432-27.727-14.06 7.64 29.999-21.369 35.694-33.651 27.994 10.674 37.642-48.926 72.482-35.058 93.45 8.278-30.43 35.167-46.554 43.123-81.334 56.716-28.368 17.545 65.8 5.373 93.89-10.033 21.86-38.68 67.525-44.054 71.13 3.089-44.44-35.79-43.3-42.396-1.44-9.9 20.157-31.432 81.373-25.219 26.079 6.518-31.625-8.896-53.685-19.569-11.65-20.649 12.369-39.505 117.362-42.56 49.668-5.418-27.61-40.144-96.992.93-95.718 17.808 31.94 30.083-28.563 60.218.657 35.469 16.492 27.001-66.992 17.785-10.75-16.554 16.225-46.791-28.051-63.512 13.047-25.648-46.434-36.612 4.932-44.917 30.02-22.394-29.684-67.152-6.077-29.755 21.807 7.193-66.923 68.418 54.052 24.969 80.774zm-154.31-84.684c-11.538-20.381-44.129-24.74-10.04-37.589 1.315-23.906-49.044-48.677 1.252-40.811-10.861-31.09-55.296.41-21.265 28.347 14.702 13.07-34.58 2.648-5.554 29.438 7.414 7.81 24.19 31.772 35.606 20.615m-104.248-107.253c-19.657-38.64 11.518-54.448-19.702-93.683-10.095-25.854 23.087-24.946 8.836-56.736 1.516-24.742 7.941-32.677-6.685-14.353-16.265-27.603-18.835-35.11-21.133-.286-17.941 33.147-15.84 30.094 4.531 8.637 48.842 26.711-25.076 40.923 10.452 74.517 26.888 21.637-23.465 89.196 23.701 81.904m463.82-220.058c.044-33.164 59.325-21.354 34.492-51.697 6.269 42.05-44.797-21.22-32.379 31.066-6.979 46.952-32.03-56.394-33.884 2.329-9.164 10.769 23.954 24.792 31.772 18.301m-528.04-24.398c20.886-9.513 92.687 4.179 30.694-5.018-7.68-11.175-60.53 11.517-30.693 5.018" style="fill:#241c1c;stroke-width:1.27111"/><path d="M539.49 1286.511c-11.229-4.421-34.788-2.364-27.913-33.402 20.083 1.818 11.821-43.74 28.373-3.531 20.35 30.286 21.898-32.262 49.56 5.05 38.412 31.59 4.727-66.955 32.214-6.626 19.436 11.975 10.294-56.01 33.657-11.004 15.307 16.98 23.496 44.37-9.454 34.588-1.685 55.673-36.154-38.357-52.41 16.412-12.396 2.165-40.025-30.21-46.437 6.706l-2.933-1.992zM437.673 1254.68c-14.065-57.131 60.94 17.662 0 0M707.534 1229.839c-34.074-25.105-14.836-41.493 17.687-21.476 22.505 17.976-22.82 7.426-10.865 30.691z" style="fill:#000;stroke-width:1.27111"/><path d="M694.286 930.035c-41.524-51.598 65.719-108.56 78.984-41.76 11.688 39.586-54.409 52.93-78.984 41.76M391.496 953.506c-83.314-.89-28.629-112.31 25.332-57.93 19.45 23.384 13.595 67.263-25.332 57.93" style="fill:red;stroke-width:1.27111"/><path d="M783.16 912.266c-3.953-2.136-8.212-12.226-8.212-19.454 0-2.441-.442-6.58-.983-9.2-.867-4.197-.877-5.38-.08-9.997 2.686-15.563 10.484-20.629 23.576-15.315 2.07.84 4.644 1.53 5.72 1.531 3.686.007 14.125 1.838 18.308 3.211 4.57 1.5 8.512 4.333 9.445 6.785 1.568 4.124-3.177 11.355-12.668 19.308-7.17 6.007-30.558 23.151-32.284 23.665-.65.194-1.92-.046-2.822-.534M671.353 926.953c-4.37-1.812-9.187-4.128-10.707-5.146-2.651-1.777-2.746-1.952-2.365-4.337.657-4.108 4.084-12.234 6.59-15.628 2.473-3.35 6.008-5.788 8.391-5.788.795 0 2.48 1.06 3.83 2.412 3.359 3.358 4.688 8.076 4.694 16.655.004 6.365-1.225 15.324-2.084 15.19-.222-.035-3.98-1.546-8.349-3.358M682.551 1277.294c-6.794-13.998-9.628-24.302-15.616-56.79-2.126-11.535-4.05-21.83-4.274-22.88l-.408-1.906 2.802 2.476c23.304 20.588 37.08 35.593 44.356 48.31 4.029 7.04 5.394 11.335 5.439 17.103.045 5.797.589 5.145-11.291 13.545-7.13 5.041-9.482 6.16-14.528 6.913l-2.977.445zM491.491 1299.11c-5.025-1.68-6.967-2.836-9.968-5.942-7.38-7.639-9.597-21.077-6.494-39.376 2.325-13.71 8.953-34.627 11.805-37.26 2.908-2.683 6.41-1.655 8.532 2.505 2.693 5.277 4.171 12.387 6.618 31.82 3.1 24.622 5.155 35.022 8.378 42.397.835 1.91 1.954 3.956 2.487 4.544 1.548 1.711.158 2.053-9.256 2.276-7.049.167-9.239-.01-12.102-.964M430.62 950.993c-2.02-1.414-1.798-4.075.874-10.45 3.864-9.223 5.395-13.469 5.99-16.604.528-2.786.38-3.437-1.899-8.304-5.091-10.877-6.973-19.04-4.803-20.841 3.54-2.937 17.684 10.34 25.716 24.14q5.89 10.119 5.983 17.16c.097 7.261-3.15 10.698-11.71 12.392a182 182 0 0 0-9.489 2.205c-5.759 1.534-8.781 1.62-10.663.302M323.705 921.24c-12.998-5.465-21.609-12.873-21.609-18.588 0-4.375 5-7.568 14.41-9.205 2.387-.415 5.626-1.317 7.199-2.004 4.37-1.91 12.864-4.73 15.681-5.205 1.976-.334 2.845-.162 4.031.799 1.44 1.166 1.473 1.356.683 3.991-1.137 3.796-15.277 31.368-16.176 31.541-.398.077-2.297-.521-4.22-1.33M550.047 1246.55c-9.065-5.183-12.309-11.227-8.967-16.708 1.29-2.117 5.495-4.532 7.929-4.555 2.08-.019 5.112 2.22 6.247 4.613 2.03 4.277.976 18.26-1.374 18.243-.583 0-2.309-.721-3.835-1.594M589.365 1252.232c-.525-.165-3.242-2.458-6.037-5.096l-5.084-4.797v-5.833c0-5.246.18-6.138 1.783-8.866.98-1.668 2.963-3.813 4.405-4.766 2.286-1.512 3.24-1.731 7.433-1.713 3.758.016 5.416.34 7.581 1.478 2.551 1.342 2.74 1.612 2.384 3.396-.214 1.065-.388 7.04-.388 13.275 0 10.782-.064 11.373-1.303 12.036-1.393.745-9.183 1.386-10.774.886M565.36 1303.416c-7.005-1.256-12.212-5.335-12.218-9.57-.003-2.212 2.372-5.618 4.98-7.141 2.99-1.746 8.015-1.643 11.949.245 3.703 1.777 10.008 7.932 12.765 12.46 1.977 3.247 1.982 3.277.607 3.644-2.672.716-14.766.957-18.084.362M592.792 1303.457c-.738-.298-1.514-.991-1.725-1.54-.789-2.055-1.205-7.398-.792-10.154l.428-2.853 4.893.117c5.806.14 8.263-.989 11.248-5.163 1.802-2.52 2.045-2.647 4.416-2.32 3.843.53 10.396 3.948 13.474 7.025 3.643 3.644 3.799 6.21.55 9.062-2.336 2.051-7.468 3.907-10.806 3.907-1.092 0-5.1.572-8.905 1.27-7.376 1.356-10.624 1.52-12.781.65M646.465 1296.979c-1.517-1.08-3.396-2.542-4.175-3.25l-1.417-1.286 1.532-1.42c.843-.78 1.852-2.667 2.243-4.191s.819-3.101.952-3.503c.553-1.669 13.507-2.274 18.704-.874 6.22 1.675 7.431 4.28 3.5 7.522-2.538 2.09-8.717 5.246-14.665 7.489l-3.915 1.475zM513.368 1241.84c-3.899-2.237-6.984-5.607-7.568-8.268-1.326-6.034 8.59-14.476 14.248-12.132 3.669 1.52 3.79 6.079.395 14.781-.855 2.192-1.718 4.772-1.919 5.733-.458 2.199-1.15 2.183-5.156-.115" style="fill:#fff;stroke-width:.635554"/><path d="M550.047 1246.55c-9.065-5.183-12.309-11.227-8.967-16.708 1.29-2.117 5.495-4.532 7.929-4.555 2.08-.019 5.112 2.22 6.247 4.613 2.03 4.277.976 18.26-1.374 18.243-.583 0-2.309-.721-3.835-1.594M460.031 1281.278c-8.305-3-14.31-7.236-16.638-11.738-1.563-3.022-.833-7.706 1.574-10.114 1.807-1.807 2.25-1.942 5.912-1.81 2.177.079 4.542.551 5.255 1.05 2.115 1.482 4.78 5.947 6.1 10.22 1.38 4.47 2.417 13.598 1.54 13.562-.311-.013-1.995-.54-3.743-1.17M457.012 1231.576c-2.043-1.19-1.266-3.264 2.605-6.947 3.757-3.575 10.86-7.62 13.382-7.62 1.875 0 2.26 1.404 1.034 3.775-1.194 2.31-5.722 9.525-6.705 10.684-.82.967-8.699 1.05-10.316.108" style="fill:#fff;stroke-width:.635554"/><path d="M380.261 882.118c-4.707 3.574-7.89 8.804-9.852 14.322-.507 1.428-.86 2.908-1.289 4.362-1.687 6.836-.674 13.743.203 20.594.37 5.26.44 10.526.547 15.795-.14 3.388.206 6.291 1.198 9.54 1.096 3.236 2.556 6.179 4.864 8.712 1.77 1.776 3.55 2.943 6.437 2.296 2.022-.454 3.066-2.772 4.014-4.34 2.408-3.531 4.694-7.28 6.18-11.31.437-1.187.756-2.414 1.135-3.621.27-1.267.6-2.522.808-3.8.227-1.396.628-5.901.765-7.393.274-2.982.481-5.952.62-8.942.079-.893.165-1.785.237-2.679.167-2.086.154-3.094.504-5.104.514-2.953 1.339-5.869 2.045-8.779.818-3.636 2.082-7.175 2.595-10.878.368-2.652.27-2.84.225-5.4-.198-3.103-1.063-6.21-3.256-8.516-.369-.388-.794-.72-1.19-1.079-2.67-1.972-3.377-3.064-7.49-2.784-.624.043-1.12.562-1.68.843-.468.409-.924.832-1.405 1.226-.235.191-.506.335-.74.527-2.047 1.683-3.875 3.636-5.66 5.585-3.94 4.959-6.563 10.762-8.268 16.836-.405 1.444-.725 2.91-1.088 4.366-1.453 7.513-1.919 15.15-2.268 22.778-.035 4.676-.167 9.36.1 14.032.096 1.69.283 3.375.423 5.063.196 2.522.535 4.966 2.006 7.102.856 1.243 1.737 1.602 3.02 2.443 1.624.156 3.245.582 4.874.468.938-.065 1.816-.544 2.642-.993 5.83-3.174 7.885-11.211 9.783-16.957 2.6-10.26 4.09-20.82 4.536-31.395.253-6.007.09-7.57-.13-13.234-.13-1.41-.235-2.824-.391-4.233-.095-.855-.231-1.705-.362-2.556-.073-.476-.145-.954-.25-1.425-.04-.184.003-.513-.185-.537-8.564-1.06-7.275-3.04-8.918.195-3.261 7.517-5.141 15.548-6.805 23.543-1.582 7.734-2.862 15.547-3.393 23.427-.272 5.983-.664 9.66 8.755 8.022 1.01-.176 4.372-7.144 4.42-7.236 5.383-12.268 7.41-25.614 8.076-38.908.11-2.218.097-4.44.146-6.659-.156-2.83-.04-4.76-.79-7.364-.157-.55-.134-1.43-.688-1.571-2.688-.682-5.538-1.064-8.287-.706-.067.01-1.744 3.787-1.759 3.82-1.594 3.384-3.33 6.733-4.345 10.352-.648 2.312-.921 4.476-1.3 6.842-.475 3.876-.827 7.782-1.628 11.61-.332 1.59-.766 3.157-1.148 4.736-1.62 6.686-.933 3.84-2.68 11.115-1.478 8.426-2.86 16.975-2.72 25.558 1.609 2.757 1.275 2.42 8.878.421.855-.225.543-1.683.76-2.54 1.257-4.983 2.044-10.064 2.848-15.133.396-3.097.816-5.596.89-8.664.013-.578.437-1.58-.121-1.73-2.866-.769-5.97-1.289-8.874-.681-.972.203-.812 1.817-1.101 2.767-.461 1.513-.763 3.07-1.144 4.605-.53 3.2-1.023 5.004-.943 8.109.015.568-.279 1.594.283 1.682 3.054.482 6.183-.116 9.275-.174.121-.628-8.762-2.345-8.884-1.717 2.863.934 5.618 2.304 8.587 2.8.464.078.486-.812.638-1.257 1.114-3.26 1.077-4.395 1.617-8.069.095-1.537.25-3.072.286-4.611.024-1.057.815-2.647-.104-3.17-2.581-1.467-5.746-1.859-8.716-1.846-.692.003-.647 1.231-.864 1.888-.957 2.889-1.34 5.646-1.899 8.651-.277 1.888-.615 3.767-.83 5.662-.301 2.64-.587 7.173-.596 9.967-.003 1-.734 2.492.13 2.995 7.622 4.434 7.286 4.337 9.052 1.116 2.312-8.064 3.024-16.504 4.8-24.687l1.022-5.94c.382-1.784.813-3.558 1.145-5.352 1.033-5.596 1.535-11.267 1.901-16.939.332-2.773.232-2.827.939-5.444.968-3.587 2.716-6.883 3.82-10.427.145-.652.341-1.296.436-1.957.021-.145.048-.393-.093-.428-2.554-.642-5.17-1.01-7.749-1.544-.122-.025-.299-.247-.348-.133-.3.694-.399 1.459-.546 2.2-.29 1.457-.508 2.928-.763 4.392-1.096 7.642-2 15.3-2.963 22.958-.363 2.887-1.512 12.062-2.177 15.268-.343 1.652-.908 3.25-1.362 4.875-.3 1.187-.657 2.361-.9 3.562-.064.323-.312.84-.018.989 2.107 1.062 4.51 1.422 6.673 2.365.186.081.035.78.121.596.608-1.293.058-2.978.77-4.218.453-3.465.793-6.974 1.363-10.421.425-2.565 1.036-4.86 1.663-7.389.375-1.516.756-3.03 1.134-4.546 1.672-7.801 3.489-15.585 4.67-23.48.5-3.891.65-1.903-8.22-2.532-.255-.018-.188.476-.252.723-.283 1.09-.64 3.212-.761 4.13-.177 1.34-.294 2.688-.44 4.032-.646 6.86-1.094 13.732-1.625 20.602-.203 2.625-.336 5.257-.622 7.874-.517 4.742-1.378 9.173-2.207 13.86-.254 1.245-1.568 7.903-2.082 9.767-.336 1.218-.419 1.406-1.3 2.043-.118.086-.529.14-.393.192.786.304 1.635.404 2.453.606l.013.506c-.074 0-.193-.066-.22.001-.068.166.175.577.001.537-.192-.045-.135-.376-.155-.572-.062-.603.047-2.496.061-2.855.032-1.664.102-3.328.113-4.992.03-4.494-.239-8.99.03-13.481.205-5.07.036-1.93.407-6.998.146-1.989.31-5.043.61-7.02.17-1.125.461-2.229.673-3.347.239-1.264.452-2.534.678-3.801.26-1.232.457-2.48.782-3.696.313-1.168.74-2.302 1.13-3.447 1.27-3.725 2.713-7.406 4.967-10.663a197 197 0 0 1 3.74-4.27c.526-.586 1.12-1.11 1.633-1.708.06-.07-.162.092-.243.138-1.593.823-.917.663-3.943-.127-.154-.04-.423-.447-.275-.389.769.3 1.336 1.464 2.194 1.718.226-.21.106-.172.473.212.826.865.743 2.047.724 3.17-.099 2.076-.186 4.125-.683 6.154-.66 2.698-.791 2.236-1.662 5.087-.32 1.05-.563 2.122-.844 3.183-1.361 5.873-2.372 11.829-2.613 17.862-.332 2.928-.747 5.846-1.06 8.776-.13 1.232-.484 5.256-.67 6.557-.146 1.035-.363 2.058-.545 3.086-.234.895-.404 1.809-.703 2.684-1.32 3.863-3.596 7.355-5.074 11.154-.77 1.948-.008-.127 1.505-.309 1.948-.234 2.865-.123 3.675 1.112.034.052-.106-.066-.158-.1-.307-.422-.668-.805-.953-1.242-1.043-1.6-1.74-3.413-2.522-5.145-.164-.43-.314-.865-.494-1.289-.115-.27-.305-.509-.39-.79-.404-1.317.335-3.405.308-4.723.494-5.664.436-11.405-.378-17.037-.65-5.745-.921-11.529.352-17.226.318-1.156.575-2.331.955-3.47 1.506-4.517 4.075-8.553 7.08-12.214.382-.493-6.586-5.898-6.969-5.405zM716.914 869.37c-.772 6.477-.866 13.064-.362 19.567.429 3.991 1.134 7.94 1.733 11.906.196 2.23.046 4.488.293 6.715.178 1.608.514 2.891.87 4.453.66 3.229 1.295 6.486 2.42 9.592.518 1.434 1.13 2.833 1.684 4.253 1.036 2.599 1.808 5.298 3.019 7.824-.014-.053-.043-.215-.042-.16.014.728.157 3.112.766 3.135 2.78.107 5.601-.65 8.168-1.725.604-.253.328-1.268.492-1.902 1.925-9.43 1.05-19.154.252-28.663-.738-6.96-2.592-13.715-3.98-20.556-.1-.7-.217-1.396-.3-2.097-.128-1.096-.303-3.6-.455-4.655-.35-2.436-.879-4.86-1.466-7.246-.863-3.443-2.596-6.523-4.094-9.701-.335-.676-.31-1.26-.081-1.973.025-.08.171-.287.143-.208-.18.498-.4.98-.601 1.47l-3.977 1.08c-.093-.001-.329-.082-.28-.003.43.718 1.2 1.182 1.676 1.87.602.866 1.35 2.498 1.786 3.387 2.185 5.415 3.067 11.233 4.601 16.844.125.49 1.239 4.79 1.344 5.41.177 1.042.225 2.102.353 3.15.415 3.4.858 6.791 1.225 10.197.761 4.848.92 9.759 1.218 14.65.062 4.275-.838 8.412-1.652 12.575-.472 2.121-.985 4.237-1.217 6.403-.14 1.305-.112 2.601-.324 3.897-.067.151-.088.331-.2.452-.193.21.437-1.5.54-1.51.887-.083 1.78.074 2.67.111 0 .118-.027 1.683.543.434.128-.28-.219-.576-.313-.869a148 148 0 0 0-2.189-6.279c-1.69-4.48-2.786-9.155-3.495-13.882-1.076-6.017-2.933-11.858-4.264-17.817-.518-3.17-1.496-6.248-2.017-9.419-.179-1.09-.26-2.502-.343-3.61-.148-2.358-.71-4.793-.258-7.142.545-2.996 1.11-5.974 1.748-8.954.595-2.761 1.442-5.46 2.097-8.206.129-.486.125-.555.086-.19.278-.538-7.32-4.464-7.598-3.927-.792 1.474-.462.765-1.02 2.112-.404 1.146-.92 2.25-1.289 3.41-.546 1.72-.878 3.51-1.306 5.261-.353 1.833-.841 3.631-1.04 5.491-.013.117-.095 2.271-.131 2.544-.05.367-.154.725-.231 1.088-.555 2.973-.464 5.94-.329 8.952.204 4.835 1.207 9.562 1.988 14.327 1.239 5.945 2.95 11.769 4.44 17.654 1.285 5.082 1.615 10.433 3.837 15.268 1.43 3.477 2.99 8.094 5.827 10.655.354.319.825.476 1.237.714 1.325.161 2.64.483 3.974.485.554 0 1.08-.268 1.594-.476 2.225-.902 3.538-2.922 4.142-5.159.794-3.393 1.213-6.867 2.163-10.227 1.008-4.753 1.734-9.602 1.754-14.468-.085-5.026-.667-10.01-.692-15.036a95.4 95.4 0 0 0-3.317-19.909c-1.2-6.416-2.627-12.876-5.398-18.82-1.549-2.745-3.252-5.666-5.768-7.67-.776-.618-1.472-1.558-2.456-1.679-1.927-.236-3.856.446-5.784.668-.59.77-1.284 1.47-1.767 2.31-1.073 1.866-.638 5.508-.073 7.477.504 1.31 1.156 2.453 1.68 3.72.667 1.617.969 3.368 1.564 5.01.279 1.085.833 3.172 1.036 4.265.56 3.013.604 6.107.983 9.141.929 6.632 2.346 13.21 2.517 19.931.257 3.463.562 6.922.796 10.387.307 4.545.414 9.106.732 13.65.06.86.172 1.715.259 2.572-.04 3.65-.299-.728 7.587.92.446.094.446 3.024.445.97 0-.435-.02-.87-.03-1.307-.436-3.255-1.396-6.4-2.626-9.443-1.748-4.018-2.708-8.299-3.843-12.52-.377-1.763-.84-3.546-1.051-5.34-.127-1.08-.056-2.12-.098-3.206-.023-.6-.078-1.197-.117-1.796-.31-3.783-1.168-7.518-.948-11.337.064-6.422.271-12.89-.58-19.271 0-.628-8.88-.628-8.88 0z" style="fill:#000"/><path d="M664.327 1210.959c.296.877.537 1.774.886 2.63 2.614 6.407 6.324 12.34 10.197 18.044 3.057 4.269 3.434 5.066 10.525-.074.663-.48-.356-1.6-.604-2.38-.66-2.074-1.53-4.075-2.295-6.113-3.063-7.198-6.345-14.316-10.635-20.871-1.314-2.009-2.64-3.976-3.468-6.234-1.511-4.734-3.23-4.982-9.394-1.649-.645.35-.416 4.294-.407 4.784.126.84.2 1.69.378 2.522.204.95.51 1.874.768 2.81 1.22 4.448 2.598 8.81 4.252 13.116.873 2.023 1.73 4.047 2.72 6.016.349.696.833 1.422.972 2.206.085 2.52.419 4.975.902 7.457.349 1.734 1.04 3.364 1.547 5.051.104.344.165.701.277 1.043.068.206.046.632.26.598 2.906-.466 5.73-1.345 8.594-2.018.303-2.82.136-5.638-.054-8.457-.314-4.682-.297-5.515-1.178-10.319-.334-1.817-.782-3.612-1.172-5.419-1.14-5.526-3.455-10.692-5.014-16.093-.104-.284-.02-.932-.312-.853-.309.083.22.815-.068.956-2.314 1.137-5.101 1.252-7.27 2.65-.48.309.536 1.01.823 1.505 1.315 2.27 1.46 2.397 3.002 4.7 3.212 4.874 6.304 10.284 10.628 14.27.46.349 1.614 1.309 2.283 1.552.105.038-.152-.169-.197-.27-.03-.066.143.05.185.107.141.194.27.396.404.594a29 29 0 0 0 1.734 4.489c.5 1.02.436 1.172.493.609 2.28-1.403 4.966-2.296 6.838-4.209.462-.472-.762-1.08-1.12-1.635-2.31-3.579-1.263-2.36-4.252-6.3-2.728-3.597-3.585-4.423-6.643-7.87-3.287-3.312-6.492-6.78-10.331-9.478-.137-.096-3.463-2.205-4.212-2.233-1.966-.074-3.924.303-5.886.454-.413 1.816-1.117 3.589-1.24 5.447-.046.677 1.56 4.211 1.77 4.676 1.115 2.46 2.382 4.846 3.537 7.287 1.865 4.09 1.797 8.656 2.501 13.015.543 2.558.727 5.175.97 7.774.257 2.446 1.168 4.751 1.633 7.15.36 1.299.198.7.487 1.794.118.601 8.622-1.079 8.503-1.68-.21-.997-.118-.526-.282-1.412-.376-2.235-1.096-4.377-1.418-6.62-.29-2.607-.653-5.194-.68-7.822-.228-5.322-.627-10.656-2.693-15.644-1.477-3.241-3.03-6.46-4.922-9.486-.273-.436-.462-1.583-.872-1.273-1.028.776-1.265 2.244-1.898 3.366-1.69 0-3.394-.214-5.073-.011-.28.034.439.358.65.546.487.432.977.86 1.444 1.312 3.126 3.021 6.01 6.283 9.175 9.265 4.358 4.465 2.58 2.546 6.626 7.063 1.786 1.994 3.488 4.062 5.319 6.015.596.636 1.009 1.865 1.88 1.82 3.002-.157 5.802-1.58 8.703-2.371-.052-.492-.06-.99-.155-1.477-.177-.907-.543-1.592-.9-2.436-.712-1.688-1.336-3.435-2.514-4.873-.856-.81-1.495-2.245-2.663-2.58-1.118-1.54-1.975-3.213-2.976-4.83-1.934-3.127-4.1-6.1-6.345-9.01-1.08-1.393-2.38-3.11-3.536-4.458-.448-.523-.707-1.498-1.395-1.522-8.042-.282-8.515-1.189-8.574 3.173.486 5.687 2.075 11.224 2.994 16.845 1.08 4.867 2.297 9.728 3.236 14.624.707 3.69.301 2.478.823 6.01.106.719.269 1.427.403 2.14 2.92.048 5.85.392 8.76.142.296-.025.024-.597-.012-.892-.261-2.128-1.021-4.164-1.618-6.21-.6-2.237-1.302-4.438-1.22-6.778-.07-.523-.11-1.051-.212-1.569-.565-2.84-2.211-5.358-2.682-8.23-.657-2.346-1.122-4.128-1.936-6.469-1.193-3.427-2.917-6.66-3.798-10.19-.113-.42-.104-.894-.341-1.258-.074-.114-.243.133-.378.151-4.86.686-6.25 3.023-7.454.122-.148-.357 1.394 2.242.498 1.046.897 2.743 1.52 5.573 3.092 8.058.596 1.13 2.069 3.903 2.569 4.968 2.405 5.116 4.274 10.49 7.208 15.355.698 1.267 2.291 4.351 3.347 5.7.196.25.447.633.76.575 9.159-1.699 9.354-.45 6.853-5.75-3.509-6.708-7.46-13.166-11.736-19.413-.222-.592-8.596 2.544-8.374 3.136z" style="fill:#d40000"/><circle cx="907.572" cy="1279.371" r=".275" style="fill:#d40000;stroke:#000"/><path d="M493.125 1242.16c.845-6.293 1.474-12.614 1.798-18.956l.081-2.226q.024-.675.055-1.348c.004-.09.085-.33.025-.265-.19.21-.16.763-.44.724-8.65-1.197-6.718-4.465-8.41-.67-1.652 4.695-3.676 9.25-5.586 13.844-.927 1.707-1.434 3.59-2.16 5.379-.333.824-.83 1.575-1.173 2.395-.25.603-.44 1.23-.66 1.846-.14.602-.31 1.198-.42 1.806-.126.694-.175 1.4-.284 2.096-.524 3.327-1.246 6.618-1.824 9.936-.898 6.395-1.082 9.41 8.931 5.955.39-.135 2.01-6.015 2.016-6.038 2.008-7.163 3.05-14.568 5.062-21.725.662-2.453 2.28-4.386 3.481-6.553.462-.549.473-1.373.918-1.93.053-.067.093.235.168.194.002 0 1.926-1.681 1.93-1.685 1.34-1.11 2.45-2.46 3.348-3.942.508-.84.18-.575.52-.827l-5.45 1.357c-.604-.544-1.005-1.538-1.812-1.632-.472-.055.017.95.038 1.424.034.744.097 1.486.129 2.23.096 2.27.153 4.543.24 6.815.204 6.944 1.716 13.725 3.544 20.394 1.335 2.841 1.548 5.53 1.867 8.572.057.189-.022.61.17.567 2.764-.617 5.627-1.123 8.142-2.424.487-.252-.235-1.07-.358-1.604-.625-2.72-1.244-5.44-1.91-8.15-1.684-6.759-2.978-13.61-4.37-20.434-.85-3.257-1.497-7.811-4.398-10.03-.645-.493-1.417-.793-2.125-1.19-.991-.935-3.7.385-5.325.32-.14-.01-.284-.085-.416-.039-1.321.458-1.539.71-2.572 1.45-2.123 1.891-3.654 4.334-5.362 6.587-2.283 2.329-3.714 5.342-4.41 8.511-.223 1.013-.322 2.05-.482 3.075-.77 6.445-.531 12.95-.21 19.416.516 6.374.265 8.785 9.834 5.748.902-.286.758-1.737 1.05-2.636.37-1.135.622-2.306.933-3.458 1.915-7.117 3.185-14.4 5.132-21.507-4.46 5.263 1.6-.603-6.831 1.509-.627.157.075 1.289.139 1.931.281 2.84.623 5.601 1.162 8.412.288 1.5.673 2.98 1.01 4.47 1.386 6 2.317 12.14 4.484 17.926 1.831 3.11 1.72 3.764 8.726 1.268 1.024-.364.67-2.073.885-3.138.776-3.837.59-7.91.615-11.794-.134-3.303-.188-6.09-.548-9.37-.144-1.312-.407-2.607-.575-3.915-.158-1.232-.249-2.472-.402-3.704-.398-3.203-.481-3.439-1.027-6.44-.474-2.118-.854-4.33-1.77-6.322-.118-.257-.751-1.264-1-1.664-.4-.672-.633-1.395-.593-2.18-.02-.622-8.828-.352-8.809.27.032.6.004 1.204.096 1.796.217 1.404.813 2.74 1.537 3.947.158.266.299.544.476.798.045.065.104.146.183.15.055 0 .088-.188.097-.134.216 1.332-.393 3.141.08 4.421.275 3.313.707 6.614.958 9.928.318 4.214.327 8.45.711 12.662.169 2.725.307 5.586.613 8.308.098.87.029 1.8.387 2.598.097.216.406-.316.643-.304 7.545.39 7.292 3.225 7.48.563-.412-1.9-.588-3.817-.836-5.745-.51-3.954-1.061-7.91-2-11.79-.743-3.683-1.014-5.242-1.944-8.936-.354-1.41-.704-2.822-1.147-4.206-1.302-4.076-2.002-6.528-7.87-7.178-1.447-.16-2.392 1.657-3.588 2.486-.447.749-.97 1.457-1.341 2.246-1.007 2.14-1.852 5.151-2.444 7.372-1.2 4.5-2.14 9.072-2.546 13.717-.099 1.032-.227 2.062-.297 3.097-.04.573-.573 1.532-.03 1.722 2.528.886 5.31.704 7.966 1.057.072.01.204.105.215.033.208-1.421-.253-2.897.035-4.31-.13-6.053-.447-12.119-.063-18.169.242-3.751.383-5.253 3.088-7.943 1.143-1.584 2.155-3.253 3.316-4.824-.096.191-.72.319-.515.384.51.163 7.29-1.481-.439-.64-.366-.395-1.103-.789-.953-1.307.025-.085.11.145.137.23.592 1.927.75 3.956 1.109 5.93.728 4.716 1.399 9.475 2.535 14.114.309 1.263.702 2.504 1.043 3.758.295 1.086.577 2.176.865 3.264.827 2.855 1.663 5.688 2.787 8.444.234.573.137 1.616.75 1.696 8.826 1.158 8.39 2.357 8.986-1.123-.056-3.413-.432-6.762-1.429-10.044-.177-.827-.837-3.864-.962-4.675-.745-4.86-.914-9.796-1.641-14.657-.37-2.337-.653-4.687-1.027-7.023-.12-.752-.7-3.923-1.14-4.745-.659-1.23-1.017-3.088-2.363-3.458-1.968-.54-4.007.772-6.011 1.157-1.045 1.33-2.103 2.631-3.38 3.755-1.744 1.546-3.306 3.181-4.226 5.364-.567.807-1.225 1.543-1.798 2.346-1.167 1.636-2.099 3.408-3.001 5.2-.398.92-.85 1.817-1.192 2.759-.399 1.097-.705 2.226-1.029 3.348-1.57 5.43-2.754 10.978-3.408 16.597-.152 1.021-.339 2.038-.457 3.064-.067.588-.646 1.547-.1 1.775 2.446 1.017 5.279.673 7.815 1.435.344.103.074 1.243.354 1.017 1.052-.846-.687-3.389.791-3.972.496-2.75.983-5.512 1.2-8.3.087-1.11-.022-2.236.163-3.333.064-.379.2-.743.3-1.114 1.028-3.116 2.86-5.876 4.168-8.881 2.37-5.025 4.911-10.056 5.704-15.627.25-4.578.863-3.376-7.655-5.419-.555-.132-1.936 3.991-2.044 4.395-.228.854-.396 1.722-.594 2.584-.841 6.522-1.454 13.154-.607 19.71 0 .62 8.768.62 8.768 0z" style="fill:#d40000"/><circle cx="548.483" cy="1253.313" r=".275" style="fill:#d40000;stroke:#000"/><path d="M597.706 1252.799c-.925-4.984-3.605-12.683-9.04-1.08 1.47 2.7 1.108 2.069 2.744 4.924.507.883.929 1.822 1.529 2.644 1.542 2.113 4.788 4.75 7.736 3.477 1.945-.84 2.15-3.651 3.227-5.477.05-3.857-1.063-7.525-2.137-11.18-.556-1.897-1.002-4.462-2.345-6.026-2.829.766-5.914.895-8.487 2.3-.675.367 0 1.538.045 2.306.246 4.203.75 8.417 1.43 12.569.271 1.69.488 3.353.928 5.008 1.11 4.173 2.627 3.273 9.952.046 1.074-.473.846-2.19 1.211-3.306.443-1.357.808-2.738 1.211-4.106 1.154-3.504 1.755-7.2 3.166-10.622a12.6 12.6 0 0 1 .997-1.916c.191-.303 1.07-.854.717-.799-1.66.26-3.22.96-4.83 1.44-.859-.474-1.657-1.77-2.574-1.424-.853.323-.5 1.757-.672 2.652-.385 2.01-1.312 7.307-.271 9.276.703 1.33 1.84 2.38 2.759 3.57 2.398-.677 4.949-.95 7.193-2.032.885-.426 1.258-1.512 1.827-2.313 1.782-2.514 2.902-5.312 4.354-8.004-3.306 2.992-.434 1.297-6.993-.317-.183-.045-.258.293-.304.475-.141.551-.15 1.128-.249 1.688-.336 1.901-.47 2.272-.95 4.158-.522 1.312-.413 3.151-1.553 4.175-.972.874-2.447 1.412-3.6 1.954-2.165.456-4.386.725-6.602.704-.16 0 .616-.054.467-.11-1.4-.205-.874-.017-1.641-.347.014-.043.05-.085.043-.13-.036-.243-.143-.472-.172-.715-.149-1.262.118-2.566.142-3.829.099-.612-8.56-2.008-8.658-1.396-.834 3.06-.957 6.853.432 9.786.456.963 1.116 1.816 1.674 2.724.822.659 1.55 1.458 2.466 1.976 3.803 2.149 10.776 1.435 14.844-.041 1.052-.382 2.029-.943 3.043-1.415.734-.495 1.5-.944 2.202-1.484 3.368-2.593 5.311-5.907 6.282-10.012.58-2.64 1.145-5.29.92-8.018-.078-.93.216-2.105-.446-2.762-1.645-1.635-3.69-3.108-5.957-3.598-1.098-.238-1.95 1.117-2.924 1.676-.463.501-.98.958-1.39 1.505-1.495 2-2.548 4.56-3.738 6.766-.293.543-1.44 1.38-.876 1.629 1.563.687 3.412.158 5.118.237.482.99.73 2.134 1.446 2.97.23.27.145-.691.206-1.04.177-1.005.376-2.008.509-3.02.166-1.268.768-6.813.428-7.984-.601-2.068-1.953-3.84-2.93-5.76-2.196.333-4.505.23-6.59 1-.911.336-1.393 1.368-1.963 2.155-3.067 4.233-4.253 9.599-5.575 14.54-.244 1.355-.514 2.706-.733 4.066-.166 1.029-1.285 2.517-.42 3.099 10.62 7.154 8.373 1.53 7.788-3.749-.321-4.335-.698-8.667-1.803-12.889-.192-.735.052-2.03-.695-2.173-2.883-.55-5.865.24-8.797.359-.053.38-.181.757-.16 1.14.09 1.66.797 4.45 1.2 5.882a66 66 0 0 0 3 8.444c5.551-4.373.481-1.812 7.69-.834.423.057-.441-.732-.654-1.103-1.451-2.534-1.741-3.241-3.42-5.652-.579-.832-1.221-1.619-1.832-2.428-.846-.87-1.343-2.817-2.538-2.61-9.933 1.729-7.53 4.995-5.04 9.984.113.61 8.746-.993 8.633-1.604zM720.772 1230.856c.138.214.199.507.415.64.259.16.593.135.895.168.545.06 1.123.291 1.64.11 2.845-.995 5.32-2.852 7.324-5.064.964-1.063 1.681-2.326 2.522-3.489 1.524-2.726 2.817-5.583 2.574-8.763.132-.335-.173-.797-.038-1.159.017-.046.032.16.072.13.137-.1.19-.284.308-.406.141-.146.323-.248.464-.393.28-.287.53-.601.795-.902 1.417-1.24 2.513-2.77 3.383-4.43.416-.793.385-.542.41-.967-5.021.067-9.457-1.99-6.516 1.564.382.462.821.886 1.31 1.233.545.386 1.16.665 1.766.947 1.167.545.75.044 1.037.408.671.736.387 1.755.238 2.648-.442 2.654-.444 2.359-1.21 5.247-.17.528-1.9 5.861-2.087 6.4-.235.679-.468 1.36-.758 2.017-.09.206-.513.74-.38.559 1.389-1.887.281-1.145 3.299-1.501-2.093-.13-4.496-.17-6.011 1.414-.188.196.389-.568.65-.493 2.127.608 3.962 2.346 6.172 2.441.83.036-.748-1.483-1.122-2.224-2.306-.081-4.646-.648-6.918-.244-.783.139-1.01 1.239-1.613 1.76-.094.08-.115-.368.01-.374a48 48 0 0 1 5.824.101c.335.025.7.652.924.402.423-.47.257-1.24.385-1.86-2.531.825 1.236-2.283.42-2.498-.224-.059-.332.403-.29.63.026.137.273-.09.373-.186.533-.507 1.748-1.92 2.284-2.533.137-.15.597-.369.41-.451-2.602-1.152-5.334-1.986-8.023-2.918-.1-.035-.367.12-.32.025.234-.476.41-1.291.94-1.285 2.05.025 4 .913 6 1.37-.206-.583-8.448 2.338-8.241 2.921 2.246 1.03 4.293 2.74 6.74 3.09.97.138 1.673-1.067 2.328-1.796.492-.547 1.533-1.407 1.036-1.949-6.139-6.695-5.446-6.686-8.423-3.935-.292.378-.595.747-.875 1.134-.13.18-.21.398-.355.568-.267.315-.608.561-.872.878-1.607 1.927-2.488 3.882-2.708 6.42.026 1.552-.233 6.223 1.403 7.242 1.978 1.232 4.562 1.258 6.892 1.181.751-.025 1.192-.925 1.717-1.465.063-.065.058-.25-.031-.269-1.947-.405-3.926-.642-5.89-.962-.166-.52-1.013-1.74-.5-1.556 2.309.827 4.111 2.734 6.38 3.663.377.155.676-.464 1.052-.618.102-.042-.085.25-.193.266-1.067.16-2.164.066-3.228.245-.296.05.593.099.89.148 1.426-.042 2.897.231 4.278-.128 1.08-.281 2.004-1.024 2.869-1.732 3.236-2.648 4.474-8.505 5.474-12.292.636-4.619 1.492-10.054-1.284-14.215-.416-.623-.981-1.132-1.471-1.698-.292-.2-2.102-1.764-3.026-1.663-.012 0 .008 1-.109.987-2.693-.32-5.361-.817-8.042-1.225-1.377 1.645-2.594 3.421-4.15 4.92-1.696 2.542-3.221 5.467-2.29 8.6.477-.056.099.02.334-1.131.03-.15.226-.508.085-.45-.907.372-2.68 3.423-3.228 4.028-1.199 1.61-2.86 4.054-4.816 4.873-.987.413-2.097.483-3.074.92-2.97 1.324-2.733 1.732-4.579 4.332-.183.59 8.165 3.185 8.349 2.595z" style="fill:#ff2a2a"/><path d="M1052.51 717.964c-1.715-.87-3.534-2.48-4.042-3.58s-1.617-3.342-2.464-4.982c-.848-1.64-1.54-4.155-1.54-5.588 0-1.434-.537-2.938-1.193-3.343-2.6-1.607-3.191-15.093-3.984-90.754-.819-78.201-.838-78.627-3.26-72-1.341 3.667-2.948 7.867-3.573 9.333-.624 1.467-2.387 6.166-3.918 10.442-3.988 11.14-6.334 15.231-10.18 17.752-3.162 2.071-3.535 2.069-5.64-.034-1.97-1.97-2.234-5.469-2.103-27.873.142-24.313 1.045-33.897 4.484-47.62 1.56-6.225 4.11-21.793 6.77-41.333.85-6.234 2.096-14.334 2.77-18 .675-3.667 1.712-11.167 2.304-16.667 1.247-11.595 2.206-14.107 9.105-23.876 3.7-5.238 8.804-9.71 18.67-16.355 12.57-8.467 14.351-9.255 23.996-10.606 12.136-1.701 11.636-1.7 23.763-.105 6.244.822 13.238 3.062 21.079 6.752 6.453 3.038 12.245 5.523 12.87 5.523s4.374 3.162 8.333 7.027c6.368 6.217 7.456 8.097 9.455 16.333 1.242 5.119 2.257 10.365 2.255 11.658 0 2.352 2.518 7.701 4.247 9.01.505.382 1.332 16.882 1.838 36.667.506 19.784 1.443 36.982 2.082 38.218.64 1.235 1.162 5.285 1.162 9s.6 6.754 1.334 6.754c.733 0 1.333 1.165 1.333 2.588s.6 2.959 1.333 3.412c.734.453 1.334 3.296 1.334 6.317s.73 7.51 1.62 9.975c1.272 3.518 1.272 5.04 0 7.077-.89 1.427-1.62 4.813-1.62 7.524 0 4.596-3.688 17.382-6.923 24-.778 1.592-1.032 4.931-.565 7.421.696 3.71.267 5.075-2.379 7.56-4.36 4.098-8.103 3.232-8.234-1.905-.056-2.183-.481-4.87-.945-5.97-.87-2.064-1.526-9.97-3.485-42-1.064-17.397-2.672-28.852-4.81-34.27-.74-1.873-1.342-1.992-3.444-.679-1.922 1.2-2.549 3.133-2.549 7.859 0 3.447-.6 6.638-1.333 7.09-1.84 1.138-1.722 26.412.131 28.266 1.475 1.474 1.368 3.484-1.54 29.068-1.628 14.33-1.802 22.366-.62 28.667.797 4.25.278 5.334-5.807 12.131-7.557 8.44-14.132 12.336-17.646 10.456-1.251-.67-3.98-4.832-6.063-9.25-2.084-4.417-4.838-8.366-6.122-8.774-2.531-.806-2.948-2.862-1.154-5.692.695-1.098.12-4.627-1.478-9.071-1.981-5.511-2.4-8.955-1.726-14.204 1.713-13.351 2.228-43.927.764-45.39-.809-.81-1.405-7.422-1.405-15.584 0-7.798-.395-14.572-.878-15.055-1.72-1.72-4.456 2.164-4.456 6.33 0 2.33-.555 4.806-1.233 5.503-1.72 1.767-2.818 17.76-3.518 51.267-.33 15.766-1.173 29.866-1.874 31.333-.7 1.467-1.632 9.567-2.07 18-3.676 70.665-4.324 77.273-8.306 84.713-3.7 6.913-13.95 12.07-18.952 9.534m14.157-8.37c1.773-2.706 2.377-7.415 2.78-21.667.285-10.016 1.062-19.41 1.729-20.877s1.52-8.066 1.895-14.666 1.324-19.5 2.11-28.667 1.704-29.567 2.042-45.333c.339-15.767.973-29.567 1.41-30.667s.688-5.99.56-10.869c-.134-5.085.372-9.242 1.185-9.745.78-.482 1.419-2.76 1.419-5.06 0-4.516 5.545-13.632 9.62-15.813 2.886-1.544 7.657-.381 7.836 1.91 1.48 18.912 1.87 69.878.579 75.397-.775 3.311-.244 6.901 2.026 13.698 2.264 6.778 2.683 9.604 1.589 10.699-1.095 1.094-.813 2.055 1.067 3.635 1.406 1.181 4.293 5.448 6.416 9.481 4.868 9.25 7.598 9.845 14.095 3.073 3.864-4.028 4.693-5.76 4.025-8.406-1.754-6.946-2.146-16.428-.794-19.16.773-1.562 1.75-7.94 2.171-14.173 1.013-14.99 1.012-15.259-.052-35.483-.642-12.218-.477-17.756.55-18.391.92-.569 1.171-3.098.67-6.755-.733-5.345-.368-6.375 4.263-12.027 2.786-3.4 6.772-7.063 8.859-8.142 4.204-2.174 4.262-2.11 5.622 6.131.424 2.567 1.349 7.367 2.056 10.667s1.311 13.83 1.343 23.4c.035 10.482.625 17.966 1.482 18.824.784.783 1.442 6.004 1.464 11.602.041 10.478 1.686 14.466 3.257 7.895.49-2.047 1.474-4.464 2.188-5.371s.958-2.538.541-3.624-.183-2.329.518-2.762c.701-.434 1.275-3.718 1.275-7.298s.6-6.88 1.333-7.333c.734-.453 1.334-2.553 1.334-4.667s-.6-4.213-1.334-4.666c-.733-.454-1.333-3.528-1.333-6.833s-.69-7.3-1.535-8.878c-2.441-4.56-4.056-18.665-4.685-40.901-.32-11.337-1.2-21.355-1.953-22.263s-1.256-3.033-1.117-4.721c.138-1.69.186-6.902.104-11.584l-.147-8.513-2.473 3.18c-1.36 1.748-5.31 7.34-8.777 12.425-6.262 9.183-14.66 16.47-23.217 20.145-2.457 1.055-7.318 4.305-10.801 7.221-7.55 6.321-11.686 8.058-19.152 8.045-6.264-.012-20.593-4.014-24.72-6.904-6.326-4.432-25.412-22.777-28.836-27.718-2.046-2.953-4.215-5.368-4.819-5.368-1.43 0-3.28 7.382-5.183 20.667-.84 5.866-2.14 13.666-2.887 17.333-.748 3.667-1.871 12.667-2.496 20-.626 7.333-1.705 18.433-2.399 24.667-2.39 21.482-2.984 34.666-1.56 34.666 1.69 0 5.024-7.371 9.949-22 2.4-7.127 4.297-11.921 6.193-15.648.648-1.274 1.178-3.17 1.178-4.215 0-2.559 8.094-9.243 9.495-7.841.612.611 1.35 38.595 1.642 84.408.516 81.125.76 89.639 2.63 91.509.495.494.9 2.563.9 4.598s.6 4.07 1.333 4.523 1.333 1.772 1.333 2.931c0 6 10.647 7.707 14.204 2.278m43.489-229.451c3.232-2.98 9.724-7.31 14.426-9.621 6.188-3.044 9.793-5.922 13.06-10.43l4.51-6.228-6.51 5c-3.582 2.75-8.421 5.858-10.754 6.906s-4.657 2.577-5.163 3.396c-1.01 1.633-19.649 10.485-27.614 13.114-7.217 2.382-4.767 4.505 4.43 3.84 6.828-.494 8.428-1.196 13.615-5.977m-23.36-1.381c-2.016-.305-5.316-.305-7.333 0-2.017.306-.367.555 3.667.555s5.683-.25 3.666-.555m19.19-9.665c2.637-2.175 8.08-5.183 12.094-6.684 10.513-3.934 17.55-13.357 18.938-25.363.381-3.3 1.074-8.533 1.54-11.63.64-4.27.167-7.03-1.958-11.42-1.542-3.186-2.803-6.39-2.803-7.12 0-1.874-5.997-6.084-16.76-11.765-5.082-2.683-11.792-6.391-14.91-8.24-7.792-4.619-15.626-4.792-21.673-.48l-4.658 3.322 6 .418c6.853.476 9.34 2.11 6.913 4.537-1.077 1.076-5.193 1.486-12.247 1.218l-10.626-.402-9.986 6.325c-5.492 3.48-11.118 7.581-12.502 9.115-3.142 3.482-5.552 13.142-5.552 22.256 0 6.125.675 7.838 5.667 14.387 6.886 9.033 10.732 12.466 22.177 19.798l8.823 5.651 13.363.015c12.856.014 13.545-.135 18.16-3.938m7.187.688c2.543-1.063 4.623-2.27 4.623-2.684 0-.745-9.284 2.79-10.487 3.992-1.163 1.164 1.222.631 5.864-1.308m24.957-16.49c2.016-1.876 3.666-4.248 3.666-5.272 0-2.732-1.327-1.767-8.692 6.315-5.414 5.94-5.902 6.833-2.64 4.827 2.2-1.353 5.65-3.994 7.666-5.87m4.98-11.99c-.019-1.943-.2-1.978-1.314-.255-1.687 2.612-1.687 4.377 0 3.334.734-.454 1.325-1.839 1.313-3.079m4.93.829c-.425-1.064-.74-.748-.805.805-.058 1.406.257 2.193.7 1.75s.49-1.593.106-2.555m-94.244-46.64c3.3-1.88 8.1-3.81 10.667-4.289s7.667-2.795 11.333-5.146c6.01-3.854 6.351-4.323 3.466-4.761-6.423-.975-32.132 8.36-32.132 11.667 0 .66-2.1 3.183-4.667 5.604-2.567 2.42-4.667 5.434-4.667 6.696s-.6 2.665-1.333 3.119c-.733.453-1.333 1.407-1.333 2.12s2.85-1.603 6.333-5.148 9.033-7.984 12.333-9.863m-10 12.223c1.328-1.467 2.114-2.667 1.747-2.667s-1.753 1.2-3.08 2.667-2.113 2.667-1.747 2.667c.367 0 1.753-1.2 3.08-2.667m99.334-4c0-.733-.636-1.333-1.412-1.333-.777 0-1.041.6-.588 1.333s1.088 1.333 1.412 1.333.588-.6.588-1.333m-89.62-3.333c2.698-1.834 4.434-3.334 3.859-3.334s-3.255 1.5-5.953 3.334c-2.698 1.833-4.434 3.333-3.858 3.333s3.254-1.5 5.952-3.333" style="fill:#000;stroke-width:1.33333" transform="matrix(1.7018 0 0 1.60106 -1273.388 32.88)"/><path d="M57.452 96.754c-12.039-7.719-18.185-13.082-24.429-21.316-5.618-7.41-6.622-13.086-4.301-24.323 2.157-10.442 4.322-12.836 21.014-23.233l5.818-3.624 9.143.353c10.088.388 14.454-.43 14.454-2.709 0-2.179-1.951-3.116-7.283-3.497-5.826-.417-5.816-.918.088-4.131 3.36-1.828 4.25-1.995 9.02-1.689 4.928.316 5.962.707 14.991 5.659 13.135 7.203 22.43 12.625 24.45 14.262 2.185 1.77 7.416 14.72 7.372 18.25-.018 1.493-.63 6.727-1.362 11.631-2.306 15.475-6.989 22.205-19.646 28.234-3.81 1.815-8.537 4.454-10.505 5.866-5.988 4.296-7.183 4.565-20.241 4.565h-11.88Z" style="fill:maroon;stroke-width:.726447" transform="matrix(1.7018 0 0 1.60106 446.432 627.818)"/><path d="M79.831 114.341c-.68-.123-1.539-.422-1.909-.665l-.673-.44.771-.69c.434-.387 2.114-1.177 3.836-1.803 10.214-3.715 24.71-10.7 27.72-13.358.978-.864 2.811-2.053 4.544-2.95 3.754-1.94 7.623-4.462 12.343-8.045 2.084-1.582 3.789-2.803 3.789-2.714 0 .477-4.774 6.638-6.461 8.34-2.424 2.442-4.602 3.927-10.156 6.924-5.002 2.699-9.813 5.852-12.92 8.468-1.2 1.01-2.934 2.47-3.852 3.241-2.2 1.848-4.26 2.822-6.935 3.278-2.774.472-8.484.707-10.097.414M24.691 38.577c0-.136.51-.821 1.131-1.521.623-.701 1.2-1.63 1.285-2.064l.299-1.547c.258-1.34 2.015-3.691 5.367-7.185 2.04-2.127 3.46-3.838 3.775-4.549.613-1.386 1.984-2.435 5.351-4.093 5.083-2.503 11.566-4.842 18.236-6.58 3.32-.865 4.429-1.043 6.678-1.072 1.483-.019 2.914.054 3.18.163.476.194.476.21 0 .738-.854.954-6.56 4.59-9.396 5.987-1.512.746-3.766 1.668-5.009 2.049-7.625 2.339-10.368 3.487-14.002 5.858-3.119 2.034-7.07 5.286-10.858 8.935-3.26 3.141-5.536 5.13-5.87 5.13-.092 0-.167-.112-.167-.249M118.652 87.426c.926-1.3 8.649-9.669 10.067-10.91 1.691-1.478 2.303-1.577 2.303-.37 0 1.605-1.937 4.088-5.522 7.076-2.296 1.914-6.637 4.917-7.108 4.917-.136 0-.018-.32.26-.713M96.756 99.662c.41-.664 8.755-4.093 9.897-4.067 1.082.025-3.297 2.233-7.067 3.564-2.4.847-3.122.975-2.83.503M130.141 72.758c-.207-.336.349-1.78 1.247-3.24l.79-1.284.084.881c.13 1.374-.19 2.586-.86 3.257-.646.646-1.028.763-1.26.386" style="fill:maroon;stroke-width:.256838" transform="matrix(1.7018 0 0 1.60106 446.432 627.818)"/><path d="M130.371 72.022c.096-.389.51-1.284.921-1.99l.746-1.285.005 1.156c.005 1.299-.767 2.825-1.43 2.825-.326 0-.379-.154-.242-.706zM131.174 32.643c-.743-.884-.848-1.469-.3-1.679.716-.275 1.432.379 1.432 1.306 0 1.197-.343 1.31-1.132.373M38.175 30.976c2.12-1.76 7.983-5.443 8.246-5.18.246.246-5.357 4.178-7.542 5.293-1.404.717-1.654.676-.704-.113" style="fill:maroon;stroke-width:.256838" transform="matrix(1.7018 0 0 1.60106 446.432 627.818)"/><path d="M45.245 340.037c-2.1-1.1-3.261-2.761-3.261-4.667 0-.71-.4-1.64-1.072-2.484-.652-.82-1.143-1.942-1.255-2.865-.101-.834-.28-2.382-.396-3.44-.117-1.059-.527-2.53-.911-3.27-.391-.752-.865-2.785-1.075-4.614-.556-4.836-1.044-33.388-1.474-86.265-.376-46.177-.827-74.396-1.304-81.493l-.24-3.58-1.211.196c-2.67.433-7.843 5.057-8.51 7.605-.22.847-.538 2.03-.705 2.63-.166.599-1.197 3.132-2.29 5.63-1.093 2.496-3.175 7.972-4.626 12.167C12.443 188.511 8.65 197.2 7.479 197.2c-1.347 0-.873-12.014 1.276-32.327.497-4.694 1.472-14.502 2.167-21.793 1.45-15.197 1.956-19.27 3.437-27.605.586-3.296 1.658-9.834 2.384-14.53 1.885-12.202 3.375-18.757 4.597-20.23.554-.667 1.398.14 5.018 4.794 2.688 3.455 14.303 15.271 20.53 20.886 4.846 4.37 8.602 7.238 10.907 8.33 5.966 2.825 17.077 5.475 22.918 5.466 6.878-.01 10.31-1.431 18.176-7.528 5.905-4.577 8.67-6.388 12.588-8.248 4.367-2.072 9.109-5.449 13.252-9.436 4.156-4.001 6.535-6.925 11.695-14.374 1.868-2.697 4.43-6.277 5.692-7.955l2.297-3.052.008 11.043c.007 10.284.058 11.153.74 12.656 1.155 2.546 1.898 10.012 2.334 23.45.462 14.233 1.412 26.368 2.573 32.87.62 3.475.954 4.686 2.153 7.81.91 2.37 1.13 3.724 1.605 9.856.26 3.352.476 4.32 1.26 5.659 1.683 2.87 1.61 6.922-.166 9.325-.6.81-.812 2.051-1.215 7.084-.42 5.24-.6 6.253-1.282 7.174-.675.914-.758 1.36-.553 2.996.21 1.682.105 2.19-.843 4.068-.595 1.18-1.433 3.325-1.862 4.766-.842 2.83-1.261 3.393-1.777 2.385-.612-1.196-.824-3.156-1.172-10.816-.343-7.548-.507-8.76-1.576-11.66-.723-1.96-1.313-10.017-1.315-17.942-.002-7.06-.578-18.71-1.078-21.794-.927-5.72-3.397-18.096-3.769-18.883-.595-1.259-1.433-1.306-3.679-.208-3.245 1.588-9.333 7.515-12.34 12.014-1.876 2.806-2.137 4.258-1.62 9.011l.443 4.06-.966 2.032c-.922 1.941-.965 2.299-.965 7.92 0 3.237.262 10.985.582 17.217.917 17.827-.081 35.403-2.455 43.219-.694 2.284-.749 3.092-.554 8.207.13 3.412.508 7.106.95 9.272.73 3.587.73 3.605.016 5.219-.404.914-2.022 2.96-3.714 4.698-6.373 6.544-8.427 6.088-13.672-3.037-2.757-4.796-5.493-8.737-7.113-10.246-1.058-.984-1.175-1.93-.328-2.633.932-.774.41-4.453-1.488-10.495-2.389-7.602-2.593-9.006-2.083-14.29.235-2.429.53-9.565.656-15.858.335-16.688-.697-57.433-1.52-60.026-.596-1.878-5.826-2.54-8.246-1.044-2.77 1.712-6.653 7.017-8.29 11.324-.395 1.04-.881 3.22-1.08 4.843-.228 1.875-.617 3.306-1.066 3.925-1.13 1.56-1.428 3.707-1.438 10.358-.005 3.436-.247 8.094-.538 10.352-.552 4.285-1.112 15.677-1.47 29.894-.5 19.847-1.251 35.701-2.38 50.228a3034 3034 0 0 0-1.443 19.614c-.863 12.354-1.26 15.98-2.177 19.874-.855 3.632-1.33 9.306-1.81 21.612-.52 13.393-1.037 17.78-2.4 20.42-1.892 3.66-7.033 5.018-11.045 2.917" style="fill:#d40000;stroke-width:.363224" transform="matrix(1.7018 0 0 1.60106 446.432 627.818)"/></g></svg>
