<?xml version="1.0" encoding="UTF-8" standalone="no"?>
<svg
   xmlns:dc="http://purl.org/dc/elements/1.1/"
   xmlns:cc="http://creativecommons.org/ns#"
   xmlns:rdf="http://www.w3.org/1999/02/22-rdf-syntax-ns#"
   xmlns:svg="http://www.w3.org/2000/svg"
   xmlns="http://www.w3.org/2000/svg"
   xmlns:sodipodi="http://sodipodi.sourceforge.net/DTD/sodipodi-0.dtd"
   xmlns:inkscape="http://www.inkscape.org/namespaces/inkscape"
   inkscape:version="1.0 (4035a4fb49, 2020-05-01)"
   sodipodi:docname="wurryr4.svg"
   viewBox="0 0 778.71869 1327.7192"
   height="1327.7192"
   width="778.71869"
   id="svg10"
   version="1.1">
  <metadata
     id="metadata16">
    <rdf:RDF>
      <cc:Work
         rdf:about="">
        <dc:format>image/svg+xml</dc:format>
        <dc:type
           rdf:resource="http://purl.org/dc/dcmitype/StillImage" />
        <dc:title></dc:title>
      </cc:Work>
    </rdf:RDF>
  </metadata>
  <defs
     id="defs14" />
  <sodipodi:namedview
     fit-margin-bottom="0"
     fit-margin-right="0"
     fit-margin-left="0"
     fit-margin-top="0"
     inkscape:pagecheckerboard="true"
     inkscape:current-layer="g18"
     inkscape:window-maximized="1"
     inkscape:window-y="-11"
     inkscape:window-x="-11"
     inkscape:cy="584.1442"
     inkscape:cx="354.10672"
     inkscape:zoom="0.78671483"
     showgrid="false"
     id="namedview12"
     inkscape:window-height="1826"
     inkscape:window-width="1080"
     inkscape:pageshadow="2"
     inkscape:pageopacity="0"
     guidetolerance="10"
     gridtolerance="10"
     objecttolerance="10"
     borderopacity="1"
     bordercolor="#666666"
     pagecolor="#ffffff"
     inkscape:document-rotation="0" />
  <g
     transform="translate(-171.54761,-312.12649)"
     id="g18"
     inkscape:label="Image"
     inkscape:groupmode="layer">
    <path
       d="m 797.3141,1639.8457 c -42.0467,-41.6885 -103.06529,-2.6236 -153.02096,-11.3174 -57.56078,-18.4681 -117.13794,-12.3045 -176.40246,-16.3649 -53.21716,-4.4574 -123.81994,22.5667 -164.26227,1.3686 46.50199,-26.8815 66.34856,-80.8877 67.63064,-132.5812 -7.00821,-41.0779 -66.88273,-105.2714 -83.37011,-113.5117 3.54443,24.6486 -5.78104,62.509 -15.39207,15.6013 -13.46264,-57.9296 -27.01469,-116.4822 -34.68894,-175.1043 -3.38366,22.0276 -24.34591,90.4298 -18.10286,30.2867 -6.38961,-39.8358 -20.19567,-101.7284 -17.24069,-128.303 -34.52855,25.1977 9.45687,-55.8972 6.56777,-74.0641 9.04714,-48.19946 -21.07754,-91.74032 -22.34298,-139.81213 -6.89486,-46.47651 -10.66627,-93.33095 -15.14156,-140.0809 14.93071,-30.79693 27.2498,55.98204 19.45555,0.95401 -8.29207,-52.92169 -34.30517,-144.90123 4.72153,-172.75204 -2.89366,-38.88673 9.79282,-66.42683 33.66965,-80.53178 19.79945,-22.11929 19.72708,64.13087 21.52007,4.19458 -4.4722,-46.46061 30.72117,-87.49774 51.3738,-106.32282 -1.8953,29.58628 10.15715,-12.78571 10.90106,19.05013 1.65186,30.94222 -1.41483,-26.90764 11.08699,-6.7372 10.13249,-35.70384 15.16264,60.49053 18.63615,0.4421 0.6027,-36.86604 22.51484,-12.29925 14.67777,9.9475 6.68277,-25.66793 44.5643,-112.68499 34.64827,-40.20145 4.96044,-23.32376 30.11834,-76.78092 26.49936,-19.35167 4.33641,-20.17716 14.28066,-50.9936 20.41606,-21.74527 16.34103,23.97875 5.33556,102.16205 15.62303,33.63593 16.28313,-51.71816 15.13241,66.27283 21.92862,-3.66814 7.41966,-31.49007 6.445,28.233 15.15215,-5.31397 21.42992,-27.23145 10.09066,27.35114 26.34773,-9.42291 1.54406,44.5772 27.21187,-64.67988 30.35357,-3.90856 10.90235,-56.8167 23.12268,41.36208 27.07626,-6.17758 7.11327,-46.23041 28.32812,-11.36148 29.8442,10.90082 -2.14834,-22.25245 1.52008,-77.87039 9.26469,-24.11206 0.28609,26.64808 34.39707,68.9518 25.8619,15.16392 1.1305,-89.33207 40.67388,61.5868 35.5157,31.31953 -4.07359,-19.21038 -2.60349,-102.0363 9.48559,-40.02546 4.73872,18.4126 10.5054,49.83581 19.82757,19.70133 19.76332,14.12799 33.88425,106.98999 34.09552,36.79572 17.13685,-18.84761 32.94431,90.29723 35.45679,21.77409 21.85443,3.1784 39.75943,85.79126 44.57175,22.05288 20.90875,2.92972 23.33536,81.10571 31.53172,23.98395 19.31531,27.08505 14.79323,94.73286 32.82468,105.18428 23.54954,-13.95511 28.11354,63.70197 28.83601,90.00211 9.87134,42.15753 -11.45388,110.2099 5.82632,136.9852 14.42697,-24.47496 4.40259,-89.06555 23.12597,-90.10888 18.61057,53.90256 0.48381,112.69747 4.44299,168.61487 1.28057,73.68341 12.8847,150.47807 -14.21253,221.19797 -28.92427,14.7528 -5.42619,67.3654 -27.57904,76.026 -11.23376,35.6738 -3.94984,64.5735 -3.41512,103.3035 -3.22771,-25.0024 -34.73675,-114.9571 -18.79676,-41.6394 6.39951,37.1609 -4.83118,82.901 -34.06631,71.7887 -26.26923,14.7413 -13.59545,93.9905 -42.47912,77.7153 -9.34158,-20.3612 -35.02765,54.305 -51.7154,71.6398 -37.29425,40.8803 3.41062,-91.6771 -28.60071,-25.9561 -15.09165,27.3314 -51.40787,93.0437 -54.40196,86.5287 -5.18489,-23.5378 5.50728,-82.2494 -15.40099,-31.0389 -5.82286,30.8292 -43.68619,75.1987 -43.13977,14.6884 -13.59321,23.0116 -31.75821,44.645 -56.30305,28.8073 -32.59062,2.4458 20.78799,25.1296 -15.47453,14.6726 -22.21937,-9.1979 -64.64191,-87.797 -44.1438,-22.5549 -36.2521,-22.7169 -75.32296,-38.0551 -106.69257,-72.046 -4.22149,33.5378 -23.42608,90.0206 -45.55205,130.702 -25.241,20.5983 -45.40262,52.3996 2.47651,29.4384 52.22766,10.0821 100.56053,-10.6162 154.30313,-2.0302 52.77149,-1.816 104.64941,2.9055 156.07733,15.81 41.16879,-1.8473 85.24645,-14.3554 125.25151,-9.6198 -18.14417,-42.2227 -35.62806,-86.1047 -27.06059,-134.4134 10.14618,-37.6578 2.50997,99.9685 9.73458,63.2295 -3.11308,35.4309 59.48383,84.0919 32.35871,97.3104 z M 587.54761,1530.9166 c -2.24455,-3.8725 -1.31647,3.7917 0,0 z m 40.84652,-5.8505 c -2.02475,-11.3043 -5.76526,14.19 0,0 z m -45.84652,-1.1495 c -4.80922,-7.584 2.3045,6.9669 0,0 z m -22.06981,-3.2434 c -4.79937,-12.0431 -5.97941,15.5006 0,0 z m 38.03536,-8.7566 c 26.99638,-27.8582 -0.54872,-110.3135 -29.75917,-88.572 1.84996,48.4985 -33.30293,-48.4415 15.18438,-14.6393 31.51875,41.0212 22.74707,-88.2488 57.87999,-20.0731 20.6789,-23.3202 39.11128,-15.3377 62.08271,-6.2769 11.4409,-24.8701 13.35941,-38.3337 8.23569,-2.9633 -16.27093,25.1465 -65.51507,-24.9196 -68.53113,20.223 -30.21083,-51.5093 -48.7066,25.3775 -24.5239,44.4948 6.32129,14.1215 10.44041,98.9002 23.27308,41.3503 13.18519,-19.1509 34.30779,-84.4604 47.57275,-72.1134 3.3981,24.9709 -8.65355,89.6648 12.87384,34.8487 7.73266,-25.199 43.26272,-104.7958 53.97805,-37.3342 2.98459,33.2985 -12.99289,42.442 6.48387,6.5788 31.06586,-51.318 66.00214,-106.4395 63.8455,-168.6623 -37.24437,-16.8882 -38.44532,42.315 -61.85856,62.2451 -6.51904,8.6608 -22.40037,44.9455 -12.63353,4.1506 43.46931,-18.5918 16.9281,-87.0127 64.0655,-72.8637 13.20658,-17.3369 -1.55625,-89.8793 23.90588,-40.271 3.10662,30.7195 22.63867,42.4136 18.3523,2.4881 -8.80771,-22.4555 -32.46122,-111.5351 -5.62535,-50.1773 14.51134,34.6811 25.74901,135.2919 20.87115,122.8687 3.73803,-49.0347 -3.92258,-98.7806 -20.87433,-144.6362 17.14812,-7.4852 54.45156,102.7977 42.31648,26.6113 -7.68622,-20.9714 -47.57415,-99.4869 -2.15779,-51.5287 -1.75204,-36.2013 -9.43682,-100.9013 -39.43867,-120.90973 -38.99023,4.82652 -54.72944,12.51107 -78.28588,47.66993 -25.54028,6.0397 -118.03057,-2.2743 -94.94994,36.9249 46.26657,-15.5271 77.91992,39.7334 88.5215,77.6487 10.72607,41.6379 18.76649,91.9501 -17.97968,123.384 -18.44616,41.3955 -61.4052,56.4444 -102.41412,65.3163 -46.07794,25.6819 -89.8623,-10.6963 -138.35446,5.4038 -59.15848,2.6637 -131.54008,-22.8003 -146.99124,-86.6747 -11.46265,-46.6782 -0.99625,-97.2038 28.31445,-135.8583 54.17316,-34.081 3.90108,-95.7345 -47.32962,-75.7824 -30.56957,-14.3928 -77.28648,2.9753 -72.0449,-31.6154 -34.61132,-54.8858 -63.3159,45.9664 -68.72065,75.6356 9.50145,-12.094 62.85701,-50.0224 37.30229,4.6314 0.37127,27.4292 -26.30757,80.5791 -2.25629,92.316 20.47912,-11.9982 9.08643,58.1538 19.05039,79.2716 3.35195,23.2299 21.15905,123.7302 17.4083,55.2654 -6.51499,-33.8122 20.69745,-62.3264 18.17778,-13.3588 5.90731,35.8239 38.12931,107.9432 64.53458,105.6406 -16.1986,-24.1772 -21.65001,-88.3424 2.29094,-29.1876 23.7043,46.0777 69.61119,75.1677 110.08446,104.642 -15.66611,-24.1674 -15.9629,-96.677 14.38132,-39.701 11.42186,26.1007 89.09471,91.7962 53.17776,28.7146 -23.15902,-22.8396 -14.50189,-62.7048 11.60897,-23.1811 15.6821,3.0051 39.16215,89.6168 48.9553,58.0562 z m -173.46555,-79.4133 c -38.44703,-15.4563 -32.71201,-55.6357 -13.11095,-44.6463 -38.72326,-25.0069 -0.38468,-71.8956 11.5052,-35.3003 -61.96268,-21.18 43.0556,58.9525 -22.17706,47.2474 3.94372,6.4915 53.38902,34.784 23.78281,32.6992 z M 319.05903,1321.8325 c -17.23236,-31.6757 11.10871,-69.7974 -21.66983,-105.8214 7.17852,-17.5631 36.35733,-26.7916 2.95423,-48.7059 -18.59996,-6.6085 -29.38117,41.4069 -12.82745,1.443 17.32319,-21.3811 0.31723,-56.9224 21.43869,-15.2482 13.59485,22.7996 17.12866,-33.5776 11.76036,8.7735 -3.50791,26.4462 6.02922,42.1591 -14.12971,54.7423 2.74543,22.5261 40.28554,63.1895 12.53647,68.7441 0.2392,6.748 26.14309,58.3205 -0.0628,36.0726 z m 462.88405,-216.997 c -18.81906,-6.3206 -27.33875,-21.6156 -11.20796,-39.554 14.07911,49.1821 30.10735,28.972 31.24835,-7.4371 19.16276,12.8781 28.65705,18.3446 29.34721,-8.2666 17.00977,45.721 -37.64079,12.2842 -37.00754,53.5829 l -5.19484,2.8729 z m -523.5851,-25.4175 c 14.99377,-17.5424 101.61075,7.2615 41.68914,-4.6706 -13.77096,-7.007 -35.39899,5.7139 -41.68914,4.6706 z m 407.09133,372.3622 c 8.17635,-44.7004 -29.23911,70.1798 -0.10469,0.257 z m -235.98503,14.8534 -3.38758,-2.0576 z m 112.2391,-4.4982 c -14.17473,-17.0021 5.88788,11.8196 0,0 z m 209.85886,-13.2188 c 1.96146,-8.3769 -14.66969,25.2484 0,0 z m -77.09071,-4.9411 c -2.6184,-4.5677 -2.61559,15.848 0,0 z m -293.58046,-1.548 c -0.93642,-26.1983 -17.8895,-11.434 0,0 z m 332.98998,-4.7609 c 17.02981,-11.7312 29.63505,-69.254 8.5025,-22.9734 -0.27992,1.6427 -21.29528,38.5869 -8.5025,22.9734 z m -38.65033,1.0625 -0.18469,1.8064 z m 114.85444,-51.693 c 20.40206,-30.8806 -17.15125,22.2544 0,0 z m -497.53755,-39.4974 c 0.76898,-22.1387 -9.30021,0.5933 0,0 z m 321.5,-2.3818 c 48.36603,-20.132 117.30006,-21.6312 135.93269,-81.3571 40.03503,-50.3749 15.23379,-121.6801 -17.99384,-168.8588 -40.9687,-32.3314 36.16696,53.5321 23.6614,77.6742 -22.1557,13.7712 -29.33302,-120.4412 -73.2214,-69.564 8.42535,-5.94 7.8933,-51.3525 -9.66572,-13.1575 9.42242,34.5807 3.23801,92.0831 -41.01478,46.7456 -29.9682,-16.6655 -52.66321,89.4127 -82.31998,32.3113 -7.37892,-64.4656 -77.96502,37.7234 -80.12567,-31.7249 -38.6326,-63.8844 -56.00849,38.3067 -62.12409,70.0133 -24.78748,32.7671 1.87861,-50.4213 5.40329,-68.9309 4.53779,-44.1153 -59.53129,54.8332 -38.86222,85.7815 5.28752,61.8815 60.92322,115.7796 124.75118,110.063 39.07529,0.2772 79.53391,-9.3641 115.57914,11.0043 z m -49.5,-36.4018 c -55.87036,1.9162 -129.47552,-7.1586 -151.84253,-66.6678 24.38249,-25.2732 78.73266,-19.8835 78.58801,-67.0864 5.74551,61.0143 84.30889,51.6298 127.79545,35.9841 41.46911,3.8131 17.14769,-69.1269 50.35484,-28.7841 19.74564,8.7782 111.85302,8.9133 73.22413,61.0653 -33.33972,36.0884 -82.41207,68.6824 -131.44405,63.5784 -15.20877,0.872 -31.83008,7.5086 -46.67585,1.9105 z m 20.97421,-5.5885 c -24.31289,-45.4074 -59.46767,9.4584 0,0 z m 29.79951,-1.1289 c 42.46306,-8.0393 -35.45082,-45.3626 -24.48723,0.7956 6.16964,4.2013 16.91913,-1.6138 24.48723,-0.7956 z m -81.08501,-1.6293 c 7.15336,-33.4105 -30.86726,10.5274 0,0 z m -19.68871,-1.0176 c -16.30959,-17.4301 -8.41437,-99.8778 -29.12888,-82.4177 -12.6242,31.0118 -29.03673,94.188 29.12888,82.4177 z m 134.78212,-0.1244 c 64.94231,-22.4459 -43.52174,-25.6795 0,0 z m -97.00608,-11.6735 c 15.37126,-30.6375 48.51275,29.73 59.90309,-17.2916 17.16553,7.0641 33.70903,42.9564 33.25181,1.8532 63.88232,17.465 -22.39571,-99.1045 -16.24801,-21.3342 -14.99508,-9.1252 -26.33665,-44.5953 -19.59134,-2.0899 -5.06628,32.372 -54.23799,-34.2955 -57.43323,10.9634 -16.3038,-10.3695 -29.24904,-51.0239 -29.91595,-7.1262 -27.99738,-16.2841 -2.84749,60.2357 9.22536,24.8424 7.80524,3.3773 14.73454,33.6414 20.80827,10.1829 z m 133.72396,-2.7609 c 76.86948,-10.0586 -20.32734,-85.4797 -24.46873,-90.3181 7.15092,30.1867 8.19828,63.2105 24.46873,90.3181 z m -221.5,-1.7317 c -0.64901,-52.5765 -50.35152,-13.4895 0,0 z m -20.88832,-27.1349 c 59.5291,7.2631 -28.75427,-53.8546 -6.16669,0.1566 l 2.79688,1.6737 z m 159.12387,-32.0488 c -30.58675,-18.0724 -36.63433,38.1837 -1.4891,27.6942 2.15664,-9.1326 -1.31011,-18.566 1.4891,-27.6942 z m 131.34641,20.75 c -7.37504,-40.4705 -20.85729,21.8594 0,0 z m -179.22372,4.5 c 12.96239,-44.9732 -40.87841,-16.2066 0,0 z m -127.89677,-4.6583 c -12.93606,-17.1827 -2.85343,16.6984 0,0 z m 92.46824,-5.3047 c 18.69891,-38.253 -38.67956,-7.8831 -1.08942,5.3311 l 0.61764,-3.0224 z m 109.61415,-5.9049 c 9.84424,-45.9607 -26.51083,11.5518 -0.15488,0.7452 z m 86.52492,2.0321 c 3.38936,-16.3935 34.36522,-21.1002 -2.55602,-32.8542 -62.99101,-28.4812 3.03838,42.3595 2.55602,32.8542 z m -237.54261,-12.1666 c -7.60168,5.8566 -3.74362,19.0075 0,0 z m -8.30769,5.0024 c 23.68611,-30.257 -39.6018,9.3679 -2.04527,4.0029 l 1.40359,-2.747 z m 275.20346,-2.7882 c 7.56778,-26.0726 4.199,12.5258 -4.97883,4.7142 z m -83.88498,1.7882 c 2.95602,-31.7191 -33.55143,-21.4456 0,0 z m 54.46304,45.9243 c 9.79005,-18.0787 7.31361,-0.5415 0,0 z m 109.24462,40.8257 c -1.50898,-20.5015 -1.09316,36.3313 0,0 z m -535.56151,8.8125 -0.18469,1.8064 z m 555.76678,-20.3205 c 5.64046,-28.7247 -8.99653,17.5748 0,0 z m 25.93167,-2.0439 c -1.5835,-3.53 -1.43437,5.6058 0,0 z m -33.3852,-16.2583 c 9.24706,-22.6621 -11.37681,-58.2214 -3.99636,-14.8981 1.3227,4.686 -2.87512,39.2261 3.99636,14.8981 z m -460.57559,-19.4398 c -4.29214,-30.2015 -17.36837,-10.55 0,0 z m 481.97224,-0.3318 c 8.03928,-24.6829 -10.53622,-5.6619 0,0 z m -1.39301,-22.0406 c -5.08751,-4.0819 -1.45424,10.5099 0,0 z m -634.31689,-38.5651 -0.18469,1.8064 z m 143.87298,-18.5897 c -3.44192,7.3904 3.24003,14.2192 0,0 z M 220.56492,1166.269 c -0.84238,-19.3657 23.57123,-117.5749 -2.8844,-64.815 -11.86739,6.8241 -6.53886,108.4756 2.8844,64.815 z m 357.2052,4.6476 c 28.53265,-21.9216 35.5988,-95.584 76.56403,-37.5707 33.26625,-39.6516 -7.61839,-122.482 -52.08446,-60.3959 -24.0817,-40.2522 47.90408,-95.72908 -4.73756,-133.85263 -25.70984,-58.51647 34.89247,-97.35548 67.97544,-134.25736 36.34812,-25.65229 91.49484,-82.50986 138.14277,-45.75125 32.35501,28.56842 59.75236,62.4064 75.91727,102.87102 -22.51425,1.10308 -59.77392,-42.90198 -87.38736,-60.58487 -41.69474,-51.03309 -103.34611,14.2097 -139.8487,44.93614 -26.40356,35.9566 -66.56136,82.006 -17.91823,120.76514 13.78382,26.23167 -35.21155,88.49681 -16.27156,83.69061 39.1711,-25.7219 86.15979,-12.5901 127.48241,-24.3908 32.62922,4.1965 49.11154,-41.11703 86.15284,-44.41311 9.94849,-21.13027 12.63195,12.4256 26.11315,-15.59676 8.75826,31.30029 2.49452,-10.45328 21.94579,7.21777 15.97851,-61.87639 31.21954,-140.95343 -21.03212,-190.97629 -14.00579,-57.48999 -50.55303,-103.8524 -75.4307,-157.69161 -13.81694,-40.07457 -25.58961,20.11013 -43.54148,-12.74981 -26.52469,-36.26596 -75.94578,32.00409 -82.19872,-28.50877 1.21011,-31.67146 -9.83479,31.94161 -26.27005,5.66688 -49.55563,27.42241 -51.69682,77.51059 -62.68919,127.66369 -15.44622,1.22979 -8.87708,-35.34458 -10.45449,5.14319 -17.38429,65.56925 -26.11305,-39.06909 -52.47016,-50.47899 -25.89433,-36.27861 -85.73392,-65.7408 -118.71994,-47.99607 -18.27189,-14.75941 -23.32026,31.43154 -54.92969,22.81952 -11.19179,41.9249 -59.17607,62.30834 -65.32119,108.74586 -17.8732,48.34853 -4.60474,102.55381 -18.87621,150.81217 5.35022,21.16342 -20.72671,87.50465 27.6662,84.78568 14.60217,59.21745 90.88399,23.81665 126.97498,43.50285 25.87435,6.2092 46.96259,45.4165 64.09155,74.8304 -16.73481,-49.6905 47.71907,-72.6007 56.27891,-55.3771 -36.99222,-48.5106 0.86087,-107.39238 -22.42772,-151.81576 -16.68243,-50.52239 -67.35946,-66.2008 -87.4896,-112.56708 -9.77447,28.9719 -32.74589,-13.27526 -47.09059,17.54916 -38.95387,23.75745 -65.48118,66.03013 -78.38606,92.43427 -37.88251,30.83835 -5.72236,-45.15576 20.80352,-57.37788 29.20294,-43.58688 57.57845,-55.72909 96.68054,-82.67258 34.12576,-1.83682 65.58738,42.67342 84.83857,77.84582 24.99786,40.86668 57.43663,101.922 41.25506,130.83824 22.08284,28.48861 -4.36715,42.65301 -8.99917,5.45895 -11.20095,-19.30863 -5.93548,27.42136 10.44426,33.31706 2.30226,26.9381 9.98008,44.8823 12.4415,65.6685 -22.05403,10.3833 -70.03713,-38.0239 -51.2722,10.4478 0.67185,11.6148 -0.50984,47.1062 -11.13857,35.6127 23.40298,28.7118 -20.35776,9.7439 7.2127,37.3233 29.63797,13.5815 24.35529,-80.1946 50.18669,-32.5886 2.47668,20.4004 9.17627,54.5731 37.81754,47.6672 z M 405.22055,968.25625 c -37.47149,-9.63638 -110.13431,-21.60621 -107.33236,-68.27729 40.46396,-23.24882 104.65472,-40.64218 145.79266,-10.26671 51.34604,41.20147 25.37388,92.03271 -38.4603,78.544 z m 16.9083,-18.779 c 31.20316,-50.75298 -46.75514,-99.46683 -77.35995,-44.89569 -14.62567,39.01357 50.09439,60.01811 77.35995,44.89569 z m 25.7451,-0.3314 c 51.12509,-2.59639 -46.54134,-101.34308 -10.3783,-28.60174 0.72006,14.40421 -25.79296,41.01711 10.3783,28.60174 z M 328.94062,923.33488 c 10.32072,-25.80991 34.14372,-49.52573 -8.82174,-30.79913 -36.88192,4.28034 -10.78383,25.76705 8.82174,30.79913 z m 38.60699,-41.4182 c 1.19773,-4.29859 -7.19399,5.7767 0,0 z m 8.5,-2 c -4.62801,-3.45977 -6.0819,4.67862 0,0 z m 320.5,67.4065 c -41.03467,1.53273 -65.70035,-39.10336 -22.7876,-60.70769 39.77248,-48.39073 120.10124,-51.06948 169.82229,-21.20236 -19.2144,48.82412 -83.09528,83.3214 -136.06892,83.00735 z m 7.7299,-13.2766 c 51.18082,17.25768 103.9026,-52.57348 42.64541,-76.92025 -42.95705,-12.57312 -91.32753,56.61913 -42.64541,76.92025 z m -23.95703,-2.9684 c 8.89127,-39.32718 -14.46465,-49.36122 -23.00864,-11.51741 6.14529,6.29181 15.4947,7.57236 23.00864,11.51741 z m 108.17108,-19.1615 c 29.79484,-21.74321 73.60837,-48.45825 12.06296,-52.627 -42.1172,-21.80294 -27.63847,66.12761 -12.06296,52.627 z m 38.05605,-21.6033 c -12.91109,3.2994 -1.28135,4.63716 0,0 z m 84.88643,246.42752 c -6.59744,-9.2944 6.23827,19.2784 0,0 z m -386.88643,2.9463 c -4.07834,-0.4375 -1.94746,4.2436 0,0 z m -99.2285,-10.3324 -2.55766,3.4518 z m -25.78681,1.8118 c 0.0987,-7.2237 -4.76012,2.6782 0,0 z m 25.25465,-8 c 25.44145,-32.5633 -8.99683,-8.5746 0,0 z m -17.27478,-11.6911 c -4.18013,1.122 -2.74496,10.7772 0,0 z m 6.81202,0.3183 c -2.70114,-11.4817 -1.74691,18.1782 0,0 z m -216.64902,-0.6272 c 3.16257,-4.5852 -7.08855,6.4065 0,0 z m 717.64597,-1.0801 c 39.02404,-52.0674 25.29747,-122.02754 25.00379,-182.62187 -4.77684,-68.13676 8.8436,-136.697 -1.98959,-204.54795 9.00513,40.92896 -34.11638,76.95009 -19.3908,116.7681 17.53371,-31.70465 -1.12572,28.36269 -10.23926,18.04622 -14.05233,32.16862 -7.36781,57.9606 15.49482,75.7921 5.25534,46.24696 -47.04174,63.37253 -24.96746,109.7302 1.71021,22.3287 -3.44817,50.6808 16.0885,66.8332 z m -485.77353,-12.2316 c -10.32951,-0.295 -3.06024,13.3947 0,0 z m 52.2,-1.1383 c -4.5571,-0.9327 3.16502,7.3318 0,0 z m -38.2,0.2 c -1.31647,-3.7917 -2.24455,3.8725 0,0 z m -20.03596,-7.691 c -5.26624,-7.8382 -7.10178,23.3153 0,0 z m 15.41826,-4.559 c -6.15726,-35.5957 -3.53525,12.3964 0,0 z m 46.0926,-1.7094 c 1.7342,-19.4935 -9.75361,11.969 0,0 z m -52.50649,-13.2673 c -10.49891,-4.1733 5.21687,10.5542 0,0 z m 105.53159,-1.7733 c -5.86318,-1.6556 1.10479,6.5059 0,0 z m -135.5,-21.8776 c -4.11223,-12.7172 -8.57957,9.085 0,0 z m -54,-8 c 2.36663,-26.161 -28.36287,10.8061 0,0 z m 15,0.4128 c -6.44967,-18.2093 -5.07739,9.5055 0,0 z m 527.51903,-3.7852 c -3.6784,-27.6487 -0.80838,13.3311 0,0 z m -283.40992,0.046 c 9.90837,-20.4742 0.76743,-13.2289 -1.80739,1.5123 z m -384.98599,-9.2961 c 0.7195,-9.016 -9.8849,23.13 0,0 z m 4.37688,-11.5 c 4.77436,-7.1328 -7.61493,7.8363 0,0 z m 2.25026,-12.0124 c 28.03269,-20.5751 -41.62697,-45.27182 2.3987,-68.88409 17.825,-31.41914 -30.56045,-106.86043 -38.57043,-104.4799 0.38754,57.62449 14.19071,114.57165 26.81123,170.31594 0.67535,4.49205 6.63627,6.35865 9.3605,3.04805 z m 8.81711,-5.90275 c 20.21992,-24.11932 -25.00309,24.40745 0,0 z m 644.18466,-5.5845 c -4.18865,-25.35196 -4.38728,29.28095 0,0 z m -250.77235,1.5395 c 8.60068,-33.28827 -8.37948,7.61521 0,0 z m 274.31425,-10.8875 c 27.4553,-12.65656 -1.91688,-92.71795 -5.87915,-33.87801 0.40786,7.4921 -15.25735,45.33159 5.87915,33.87801 z m -666.29645,-2.4023 c -5.31369,-55.66225 -29.00693,-23.86965 0,0 z m 286.09454,-26.0318 c 7.26548,-17.53835 -9.6983,-0.0255 0,0 z m 93.49784,-84.84757 c 7.91098,-32.65879 -15.24754,28.74823 0,0 z m -322.86746,-7.4816 c -17.03303,15.38347 -1.0916,7.7924 0,0 z m -47.72358,-3.7615 c 5.47198,-46.73768 0.66044,-109.65277 30.02418,-142.29011 7.56899,-33.61686 44.51669,-54.27462 39.77129,-57.47411 0.84306,-16.73114 21.75968,-39.16464 29.51925,-12.92996 9.47381,-41.27459 59.43728,-32.97198 94.55925,-36.91841 31.53728,9.09434 40.19663,40.78267 66.36435,49.51989 -1.60939,-65.41033 16.11999,34.55368 35.87452,41.60456 44.0661,2.42707 11.63905,-67.22666 47.41584,-93.37221 9.25395,-11.23161 24.52688,-44.92635 26.56251,-10.26716 -13.49599,-37.15817 51.14824,-11.27704 29.05648,-9.85474 8.08641,-42.13332 13.94602,-6.70621 26.78732,-0.0596 8.85922,-24.22007 18.50186,48.08808 26.116,-1.69025 17.95092,29.53821 34.02647,-15.34607 39.481,20.60441 22.68123,30.40049 31.49946,-37.81147 49.10818,11.46591 19.65293,43.00898 59.25213,85.65836 69.79748,113.30204 -0.15904,45.64073 57.09496,92.31978 41.33629,19.01026 -7.46548,-35.83698 -37.70593,-84.8902 -71.73244,-114.32855 -32.15443,-4.88866 -59.34518,-102.91013 -24.51385,-36.79134 10.68269,27.78031 72.61076,63.86937 45.3566,7.51426 4.19335,-30.87142 -36.20402,-83.92035 -33.95449,-89.13984 49.38697,31.93808 35.01772,98.04827 52.70074,146.96498 6.24249,21.44264 41.82631,79.06985 33.93281,28.52406 3.93003,-31.16587 -18.94178,-88.29085 -15.43658,-105.67696 -19.01059,57.14769 -21.60537,-64.50897 -34.86981,-80.06222 -18.61223,30.19345 -24.90547,-92.52407 -32.7729,-23.40156 -24.8868,-0.6784 -44.49589,-80.35207 -38.5692,-21.08028 -23.62488,20.44254 -32.80789,-86.99364 -35.84786,-21.81118 -19.7538,28.59027 -40.68573,-109.44572 -37.66449,-23.49534 -15.31041,-13.24816 -18.05288,-62.8381 -31.38583,-23.21003 -15.32545,-13.99414 -33.4101,-84.6533 -28.30623,-23.70043 5.07385,32.46079 -35.29528,21.42037 -32.80074,-4.58357 -2.67732,77.34253 -33.36503,-72.78618 -29.76845,-14.68479 -1.21346,21.56866 -30.35704,28.21878 -28.10625,2.39348 -12.34519,29.18626 -23.68229,-22.54938 -32.16424,23.67603 -22.22821,29.52001 -33.71594,-22.48715 -39.07683,15.23634 -9.40442,37.15535 -27.89579,20.82633 -23.33938,-8.16736 -5.12471,23.84277 -12.696,80.70219 -25.33477,27.497 -7.88586,-25.11516 -8.9564,-79.29186 -13.17867,-20.37922 -21.50143,58.29361 -3.68008,-79.05261 -23.01871,-10.05737 -2.52193,20.80078 -22.69514,35.97019 -30.73252,20.03691 -2.97241,12.63812 -7.68766,63.481 -21.71284,27.00544 -10.20822,23.47005 -37.63484,50.19984 -48.15056,20.30394 -10.70345,13.70345 0.89002,-38.20928 -7.42155,-1.4953 -6.79203,48.45883 -6.06106,10.54911 -20.93262,-4.84593 -17.89977,33.2542 -7.43928,124.13658 -40.48692,117.9822 -2.39859,-76.49158 -1.49682,43.9097 -16.50173,29.77552 8.86787,-24.69468 -3.46439,-99.76187 -10.72646,-35.02401 4.04714,45.6391 4.95003,93.00597 -11.17972,135.54436 -9.36383,-18.42812 -4.18102,-129.33077 -9.78019,-53.29458 -4.22098,55.14898 18.94243,108.80366 26.71487,160.8878 -24.17054,-26.06263 0.31195,49.6763 23.18831,38.53866 5.61964,1.76847 9.97059,40.94096 15.79956,22.69839 z m -7.5504,-185.39282 c -18.97154,-18.42635 37.67905,-11.48881 10.91304,-43.12664 12.24579,-12.45844 3.45742,-32.43991 19.17243,-27.07263 1.28221,-45.29389 13.71594,28.47886 -10.78582,38.54889 -3.53291,16.25631 9.3257,35.73908 -19.29965,31.65038 z m 656.70951,-1.23469 c 0.86696,-4.55138 0.86696,4.55138 0,0 z M 564.68693,597.82843 c -12.20201,-17.59729 -42.68798,-33.32397 -51.1286,-2.96548 -24.99599,-40.01718 -42.5827,25.39954 -59.60009,-15.93358 -29.43834,7.51 -41.71329,-50.68294 -11.62509,-11.03139 11.02488,-31.13767 38.70749,56.30673 41.83544,2.35862 17.26017,1.04974 43.23784,30.73418 46.16626,-3.51746 12.40241,6.36953 86.83361,37.51732 34.35208,31.08929 z M 666.85655,534.6446 c -28.93236,-23.1995 -18.13887,-39.40577 0.0593,-16.84578 -14.98722,-71.03093 44.5518,36.81879 54.86248,-20.43656 29.30218,-5.67091 60.72664,50.2292 16.46288,12.48181 -25.08647,-23.00665 -20.77538,51.65091 -48.78699,5.30676 -31.51906,-30.06892 -0.59144,26.68681 -22.59765,19.49377 z m -367.53822,-5.22793 c -42.93012,-14.49109 45.60088,-3.74468 16.41519,-11.85111 -2.11776,-35.32692 35.5311,-56.86902 47.0146,-17.54552 15.43963,-12.39126 23.95759,-70.07778 41.80079,-22.38601 -3.97935,12.57874 -33.81774,-31.93234 -25.9713,12.74526 -12.80557,50.36849 -57.89572,-47.21194 -53.0295,15.92367 -1.1814,12.60167 -9.40455,34.94453 -26.22978,23.11371 z m 260.4369,-31.17164 c -7.20478,-13.86118 -20.34228,-67.86546 10.6991,-52.45001 -18.39614,-28.03863 20.04709,-43.86403 33.16758,-16.59215 21.88765,-21.81683 -19.62262,29.06717 -25.3005,-5.28214 1.0366,19.96125 -7.98648,47.75054 -21.00124,33.34204 -0.6388,5.73997 19.25341,55.2357 2.43506,40.98226 z m 72.88107,356.04275 c 7.86715,-15.02464 -11.96992,17.50774 0,0 z m 13.50201,-0.1138 c -7.11618,0.66449 0.15403,3.86496 0,0 z m -332.10198,-6.8804 c 2.51242,-7.21604 -6.35223,10.49481 0,0 z m 589.41161,-7.1859 c -1.4042,-9.60434 -2.00186,15.61325 0,0 z m -254.90292,-13.8922 c 10.2916,-16.12517 -23.06723,27.01054 0,0 z m -181.49741,3.7012 c -2.41328,-3.92709 -2.41328,3.92709 0,0 z m 203.5,-4 c 13.36625,-17.55128 -16.19102,18.29831 0,0 z m -338.6087,1.4227 c -1.20854,-4.59789 -5.22207,8.89541 0,0 z m 336.17161,-9.6727 c 9.26016,-9.73624 -11.62375,10.37189 0,0 z m -320.84989,-11.25 c 3.87662,-10.66313 -12.02049,20.71713 0,0 z m 106.28698,5.5818 c 0.47276,-10.06769 -6.99472,3.24521 0,0 z m 451.66233,-6.3318 -0.0477,2.43984 z m -224.66233,-1.4002 -4.53436,2.75338 z m 24.29774,-5.3498 c 6.55931,-13.34449 -21.67201,28.37358 0,0 z m -330.21142,-1.2814 c 11.5005,-24.67457 -8.94581,5.13925 -2.94258,0.2776 z m 313.35777,-7.6323 c 11.60888,-18.52308 -23.80684,26.56827 0,0 z m 35.22466,-6.4292 c 1.7509,-13.59756 -13.84325,24.78399 0,0 z m 70.45989,4.0271 c -8.56977,-5.95761 4.67023,8.77336 0,0 z m -413.12864,-9.5743 c -6.49062,-9.69703 -9.01987,28.06021 0,0 z m 328.65664,9.1401 c 11.13006,-12.57859 -9.32783,5.31203 0,0 z m -303.97353,-3.4375 -0.18469,1.80643 z m 336.8259,-8.1137 c 4.62229,-14.22364 -17.60743,27.81103 0,0 z m -334.67898,0.3012 c -4.34484,4.22517 0.69622,7.62208 0,0 z m 314.29753,0.25 c 3.16257,-4.58518 -7.08855,6.40645 0,0 z m -8,-1 c 3.16257,-4.58518 -7.08855,6.40645 0,0 z m 21.41139,-0.293 c 3.56554,-6.21109 -7.00874,7.07754 0,0 z m 10.96147,-12.9577 c 2.94154,-14.06326 -22.75923,27.1702 0,0 z m 1.99958,-6.9993 c -1.31648,-3.7917 -2.24454,3.87252 0,0 z m 159.50003,-66.11804 c -3.75696,-1.92912 -0.93449,4.93706 0,0 z m -5,-57.94099 c -2.99798,-5.35753 -0.13854,6.71081 0,0 z"
       style="fill:#000000"
       id="path22" />
    <path
       d="m 762.19048,1452.4762 c -3.87078,18.6401 2.23441,72.912 -3.59524,22.4702 5.42288,-59.1879 -0.9744,7.1728 0,26.0655 -1.41152,-32.8805 1.04901,-36.0602 3.59524,-61.119"
       style="fill:none;stroke:#000000;stroke-width:1px;stroke-linecap:butt;stroke-linejoin:miter;stroke-opacity:1"
       id="path34" />
    <path
       d="m 560.22533,1168.3147 c -20.07487,-13.6884 -19.12338,-94.9661 -46.5937,-38.8644 7.84175,41.921 -47.45859,18.6532 -27.09098,10.4573 7.20414,-4.6827 -2.44888,-19.0701 6.60932,-29.7665 13.18011,-16.2213 -21.09455,-62.3455 16.47664,-45.6286 35.10683,27.3795 45.76933,-4.3013 27.7934,-23.0174 16.48648,-30.6127 -36.12186,-48.23261 -17.79237,-76.36498 -3.74422,26.8664 37.89896,50.79628 14.35765,8.31154 3.99522,-24.52257 -0.41063,-76.1063 -29.25426,-109.69449 -20.20103,-36.79941 -47.76888,-95.50153 -87.36988,-100.80891 -37.49786,-7.89269 -66.72601,38.61565 -95.78066,59.67984 -15.41198,21.12233 -70.23249,73.05719 -46.54559,82.7586 30.53161,-16.64206 48.59827,-80.61831 92.37453,-97.95999 28.77442,-16.51689 48.69811,-4.10966 48.43132,-10.56716 29.11213,43.36052 75.7956,70.73646 93.66614,123.68325 5.07606,32.63712 -19.10007,74.92093 4.07664,110.2758 32.41383,51.8867 -36.4786,-13.1143 -41.71191,37.8895 -0.63764,65.1385 -27.58795,-8.8307 -50.98755,-22.217 -17.92843,-30.7398 -77.46547,-14.4141 -115.35338,-22.9215 -22.65631,-9.1739 -32.21087,-42.13207 -57.83691,-46.55421 -5.19266,-49.39679 6.33722,-90.41948 8.90257,-139.50949 0.29588,-54.83837 11.85298,-116.44479 55.07364,-153.56899 22.07011,-16.67374 13.81101,-47.75617 49.02927,-44.56433 19.41738,-38.79826 65.28889,-16.09566 106.43415,-3.36963 45.00788,20.98253 57.50357,87.21271 83.94681,109.69965 16.28699,-33.49219 30.63016,-63.93143 34.91473,-111.86595 18.78418,-25.54978 80.3479,-49.02054 71.26294,-49.09189 11.54877,63.36983 62.66931,-11.61597 90.71948,34.15132 14.6873,9.52516 28.25389,-25.86657 37.2054,12.57802 23.62088,48.90241 58.74407,91.44314 69.25321,145.26733 44.40318,44.36117 47.25477,112.6782 30.1606,169.91265 -0.2068,41.70547 -29.77211,15.1326 -42.73448,28.75365 -25.79925,-2.73613 -65.52769,51.09027 -94.69944,49.80027 -26.48656,6.4501 -52.65823,2.9583 -77.31306,15.1648 -22.33075,-28.2104 -75.55165,40.6737 -47.61096,-12.7789 47.48718,-53.52055 -49.00728,-102.40638 9.55722,-149.40317 30.53557,-46.11959 78.26851,-89.795 134.02955,-97.23757 37.26907,26.15163 78.1839,70.2432 113.95482,84.78257 -18.44132,-49.71822 -55.10966,-105.13114 -107.74509,-120.94379 -52.68178,11.4414 -100.26891,47.86993 -134.63824,89.6384 -56.58775,32.44832 -51.47699,99.65894 -21.00929,145.96307 -1.17511,21.51839 -47.33185,111.29119 2.53574,83.32029 46.21824,-64.81169 66.09706,100.5025 18.82828,56.5396 -40.40653,-48.0187 -31.0696,75.4047 -77.5263,48.0714 z M 448.06054,966.3681 c 64.51854,-30.55606 -23.9656,-119.11007 -75.11567,-90.14219 -36.41668,-4.46752 -117.43558,28.60081 -52.98346,62.00356 38.03387,22.11697 83.88953,37.53826 128.09913,28.13863 z m 285.36388,-18.99913 c 41.38713,-10.80215 106.09245,-41.50349 107.72646,-86.15108 -56.86495,-25.3431 -138.03382,-22.00155 -175.90365,34.63681 -57.22131,38.01828 38.8458,61.22894 68.17719,51.51427 z"
       style="fill:#916f6f;stroke-width:1.27111"
       id="path122" />
    <path
       d="m 601.0702,1339.6442 c -57.67917,-21.68 -129.35552,13.8712 -180.58431,-30.3049 -49.68462,-41.3326 -66.83788,-123.3245 -20.07555,-173.5166 35.41802,-43.0089 -9.30764,58.9869 -4.83372,76.786 15.57855,17.2952 21.5087,-59.1638 31.58941,-79.3365 36.27901,-65.4227 40.81255,70.6992 82.24425,21.486 41.76782,-36.2058 49.61934,77.8353 89.59469,7.7819 10.41818,-58.0494 47.18613,0.2384 75.13696,-12.2589 6.23202,-17.7652 -9.30648,-85.5128 13.85709,-66.8602 -25.26849,50.1662 20.33906,-20.3351 30.25153,23.2703 7.3049,19.8837 44.84254,111.6885 34.17001,44.4046 -4.84308,-25.067 -60.63749,-100.3766 -11.52085,-41.6945 27.78679,46.541 43.93289,111.2244 6.70941,157.2371 -20.6371,57.4088 -89.82991,61.3079 -138.68483,76.3741 l -7.85409,-3.3679 z m 1.18602,-30.9282 c 41.12578,6.3728 86.25282,-22.1568 114.66331,-35.3609 35.39733,-24.1812 52.18345,-83.9707 -9.85765,-84.1966 -27.98183,20.5084 -66.91076,-54.7035 -58.50222,2.7348 -36.26247,33.4736 -88.70001,31.5863 -132.77702,24.1095 -23.16215,-11.3632 -24.13491,-67.092 -34.6016,-13.3113 -21.64953,23.6289 -102.14864,26.3926 -49.79902,69.3815 42.00669,42.5528 107.90524,36.5746 162.6084,37.6451 z"
       style="fill:#916f6f;stroke-width:1.27111"
       id="path124" />
    <path
       d="M 221.32826,999.51677 C 207.22624,941.88904 192.66664,881.87295 195.1248,822.1304 c 24.90246,41.01355 58.85918,93.50167 21.59397,136.25912 0.41543,15.40287 44.78875,40.60372 4.60949,41.12725 z"
       style="fill:#916f6f;stroke-width:1.27111"
       id="path126" />
    <path
       d="m 910.86903,1104.7193 c -6.1588,-36.4334 -33.03407,-94.4998 -0.85129,-121.39506 29.79462,-29.70526 7.18455,-62.13937 -7.84356,-82.04383 -11.72408,-30.88862 33.27398,-61.32718 19.51196,-68.72586 -18.02745,-0.1448 20.08275,-97.57294 18.35004,-88.08049 3.74554,82.63198 -3.98589,165.4688 0.88953,248.20366 1.39634,33.26248 -0.19356,104.79758 -29.97583,112.13928 z"
       style="fill:#916f6f;stroke-width:1.27111"
       id="path128" />
    <path
       d="m 896.51166,980.34186 c -4.46161,-20.07602 14.83321,-85.6574 19.05268,-31.58954 3.5468,8.98737 -6.28106,42.35043 -19.05268,31.58954 z"
       style="fill:#916f6f;stroke-width:1.27111"
       id="path130" />
    <path
       d="m 657.36263,1622.8124 c -49.27791,-11.4355 -98.91912,-19.0301 -149.5958,-15.4891 -29.70851,1.7365 -61.52968,-6.1148 -90.23339,0.188 -29.04088,7.9323 -84.57795,2.6742 -101.12996,4.4067 48.41905,-32.8651 44.88662,-96.754 76.58083,-138.7952 -14.18982,-56.0585 33.63375,32.0171 59.98737,20.7243 27.46248,31.048 53.38629,31.3637 41.49185,2.8243 9.03202,16.6966 57.22256,64.9559 57.5441,43.8573 -7.31841,-31.9279 45.89297,18.1111 49.54997,-25.3384 14.29954,-42.7019 13.84022,53.749 36.71367,6.2533 13.52703,-22.6803 37.53183,-88.8408 30.1957,-23.9992 0.64889,63.069 33.11566,-35.3946 48.17892,-50.4577 10.9875,-24.1699 29.96031,-54.5964 20.64076,-6.122 -10.80091,33.3576 27.94634,4.3564 22.21525,13.7496 -12.56414,51.354 -7.15429,106.9979 21.87877,151.8551 -21.80926,13.2267 -88.84392,7.4587 -124.01804,16.343 z"
       style="fill:#916f6f;stroke-width:1.27111"
       id="path132" />
    <path
       d="m 217.05877,1176.4826 c -13.6072,-24.6303 -3.0263,-83.7066 13.33287,-91.3616 -1.45004,29.5849 -10.2172,67.3653 -13.33287,91.3616 z"
       style="fill:#916f6f;stroke-width:1.27111"
       id="path134" />
    <path
       style="fill:#916f6f;stroke-width:1.27111"
       d=""
       id="path136" />
    <path
       d="m 240.21114,848.76198 c -10.62115,-25.84232 -42.25687,-20.62296 -39.10419,-58.82747 24.24383,3.06983 -14.52683,-65.70529 -12.43172,-90.5627 -11.15511,-27.44722 16.01026,-2.02106 11.07444,-40.28385 19.44846,-34.00202 -8.5445,-127.61067 15.30113,-125.5572 1.70505,19.82858 -4.4468,93.37514 10.3778,35.61782 2.0072,-33.15139 4.29588,-39.22723 6.47293,-2.51101 34.56428,-21.03101 21.90339,-62.89901 31.4553,-95.92164 3.48274,-49.84307 18.55623,-17.95787 24.48217,0.11557 6.47054,-22.02556 3.4321,-40.43111 10.97987,-24.13463 16.93759,47.27778 43.40544,-39.94815 60.94008,-6.41822 10.90568,-18.51853 1.91651,-53.25401 26.23653,-34.26652 16.14263,-21.93397 29.65165,-75.42027 24.23048,-14.82644 8.10638,52.16428 20.34125,-67.16599 19.95573,-8.84123 2.0544,25.48145 23.16324,81.40168 27.18453,23.19365 6.34188,-53.55652 1.30289,34.53175 22.06279,-2.98425 4.74574,-39.29835 51.70063,-3.82889 57.75682,-50.73365 12.30034,20.33868 17.90609,-2.29958 31.40673,17.58467 21.6986,-20.5331 16.84371,-47.29344 27.83338,-5.56561 7.42197,46.14248 21.49073,12.95083 20.4052,9.36486 32.36635,56.98086 27.88155,-41.68021 35.47838,-25.47773 5.84553,37.42876 26.49047,42.93461 36.53845,33.44126 5.80268,22.33468 26.42166,52.32419 19.46696,6.88862 6.67437,8.12965 37.20368,99.62587 39.65069,28.01847 4.35069,25.59424 39.61879,77.23663 32.19658,18.36752 12.72388,39.20193 41.16958,49.54576 47.73281,31.11328 8.40337,22.26986 7.72734,55.50771 27.1541,44.70892 10.09353,22.92052 5.48545,97.85765 29.34559,89.78953 8.92724,-33.58518 -0.0475,51.23199 18.28936,64.32999 -0.31508,20.13491 2.67061,63.37573 -19.66568,26.76619 -35.10233,-48.72003 -12.71271,-121.4671 -54.19167,-165.69313 -43.8306,-40.35136 23.55063,41.41266 18.4281,65.72893 5.94098,23.60487 14.18396,64.04329 -19.44697,30.94477 -14.61307,-11.63318 -58.84859,-87.45522 -34.81457,-28.04742 31.60334,43.99454 79.03981,74.36141 99.35878,128.05334 17.70571,24.92895 7.85581,106.54566 -20.57636,42.8903 -11.4732,-52.45629 -29.86776,-67.9482 -61.14752,-113.19877 -14.26495,-21.7644 -36.79514,-85.00284 -56.80456,-39.43072 -21.4686,-13.50048 -17.28907,-36.90291 -40.29186,-20.62829 -17.13195,-30.11494 -22.9845,34.66766 -29.81892,-9.02546 -2.91999,-7.79622 -23.58223,10.76673 -22.25922,-19.6442 -18.02495,11.97151 -12.10651,31.36725 -29.2127,9.77928 -24.73039,3.32647 -49.73521,34.70392 -61.29705,76.53647 9.11706,26.53231 -19.31019,69.59892 -39.76771,33.60988 1.84373,-24.26754 -33.94708,-81.39567 -23.57317,-25.84778 -27.29152,-28.42162 -64.76005,-65.83831 -109.87526,-47.19153 -23.91652,-5.93685 -45.9176,19.41323 -52.91486,27.05189 -29.9095,-12.56164 -33.77929,47.55311 -62.60359,59.76193 -19.8802,38.67926 -31.10528,82.8346 -32.31428,129.48912 -1.45774,7.82071 -0.4961,52.66142 -9.68385,22.47319 z m 15.96044,-179.48239 c -3.2229,-21.62535 39.71112,-76.03972 11.77251,-83.40807 0.95993,18.16573 -25.85776,36.2695 -12.03806,68.7408 -29.21742,-3.40697 -28.03607,24.93113 0.26555,14.66727 z m 643.13252,0.95333 c -3.1515,-6.69744 -3.1515,6.69744 0,0 z M 580.16493,599.09785 c 6.724,-11.08861 -55.55438,-50.90094 -62.84255,-14.70202 -13.5524,-14.72195 -43.5867,-21.26749 -37.81596,4.09705 19.24546,-19.99496 37.18972,27.41317 51.25142,-11.06742 19.40407,-1.91386 29.80786,30.65716 49.40709,21.67239 z M 474.6714,595.09174 c -2.8871,-28.68799 -35.90307,-37.85532 -53.0693,-39.83474 4.82395,24.89698 46.72643,27.05872 53.0693,39.83474 z m 201.25983,-62.40809 c -12.81233,-50.69084 19.17364,-0.003 39.85433,-3.67401 -9.82572,-58.19429 70.9048,23.91836 37.56041,-20.0269 -28.9443,-35.80366 -46.191,30.75875 -71.11593,-10.20568 -30.25744,-36.56098 -5.39576,49.6907 -28.5818,6.39993 -22.83277,-14.96258 13.83352,49.14269 22.28299,27.50666 z m -362.91049,-0.4511 c 21.55776,-9.68888 6.12475,-77.19798 37.1975,-32.93434 36.88409,33.37716 21.15061,-62.55165 54.60454,-16.72191 -12.757,-58.37794 -28.14119,7.75292 -43.887,15.13676 -19.47512,-52.03753 -41.30693,8.31861 -55.54881,21.18052 -38.49877,0.97493 -13.22354,13.74825 7.63377,13.33897 z m 253.2529,-35.22007 c -3.42243,-24.44344 -13.29815,-37.0891 8.57424,-42.40032 0.76643,-32.98488 2.83091,-27.8877 24.35437,-18.53618 30.149,-16.12441 -12.36247,-18.57335 -29.57489,-18.62652 5.40269,32.42157 -35.56567,29.35867 -14.58395,69.76746 -0.75871,3.48963 11.41677,26.70214 11.23023,9.79556 z"
       style="fill:#241c1c;stroke-width:1.27111"
       id="path138" />
    <path
       d="m 589.65968,1515.2024 c -14.44855,-21.1742 -48.03561,-94.7231 -66.79663,-71.2553 7.47288,24.8117 48.22718,87.6763 -1.38206,45.5096 -20.51822,-9.6549 -63.43883,-103.8142 -62.57244,-41.9932 7.54091,23.466 13.85054,53.7893 -14.99976,20.5587 -45.2944,-19.6522 -79.23389,-89.8242 -102.41069,-107.3706 3.02309,23.7289 32.18135,84.9203 -6.53049,35.9829 -28.48939,-34.3768 -40.0112,-81.0465 -47.10045,-122.225 -25.30788,16.5485 -5.24139,104.2795 -20.88238,36.4622 -9.20107,-44.2675 -14.68812,-89.1996 -18.70167,-134.205 -37.67076,29.1185 -6.95466,-54.3339 -8.52831,-73.8173 11.29552,-28.0802 10.05612,-58.0329 -21.30207,-27.679 -27.78668,23.2005 7.12082,-50.4825 15.80332,-65.9054 30.68629,-43.20696 38.10058,17.2862 45.79229,23.4893 41.32521,21.0409 105.21363,-7.8948 134.90346,37.3145 -4.50812,47.8031 -67.75279,89.5579 -55.71739,148.9332 -7.3138,71.4097 59.24702,120.9969 124.8178,124.332 52.28153,-12.7883 102.76589,14.8814 151.6801,-1.4328 47.9839,-10.4122 98.49758,-26.9155 120.67764,-75.0425 38.4721,-39.8509 20.37693,-101.9597 2.16022,-147.1659 -11.87197,-41.7768 -54.79314,-50.4333 -84.55956,-57.3276 24.81239,-40.3919 105.67249,-4.0066 130.49223,-57.8867 16.5752,-20.78245 75.42653,-26.89544 72.29012,19.6525 4.81754,26.593 41.31513,108.8189 -7.77526,65.7738 4.82132,32.6183 34.56586,67.1826 26.9708,98.637 -7.77059,-16.7426 -55.87456,-94.6565 -37.17099,-34.978 13.28013,33.1053 18.20553,95.5675 13.709,114.5634 -5.14367,-47.0034 -7.11863,-103.7428 -32.20758,-141.1713 -7.48665,28.7571 35.45378,90.9044 9.81499,100.7202 -2.59253,-30.8708 -38.34195,-68.4322 -27.72728,-14.0609 7.641,29.9996 -21.36827,35.6953 -33.65089,27.9949 10.67376,37.6417 -48.92526,72.4824 -35.0573,93.4503 8.27725,-30.4301 35.16617,-46.5548 43.12251,-81.3346 56.71595,-28.3677 17.5449,65.7995 5.37353,93.8908 -10.03335,21.8588 -38.68004,67.5248 -44.05446,71.1301 3.08871,-44.4401 -35.78914,-43.3008 -42.39626,-1.4398 -9.89944,20.1558 -31.43135,81.3718 -25.2186,26.0778 6.51748,-31.6245 -8.89567,-53.6847 -19.56884,-11.6504 -20.64933,12.3695 -39.50512,117.3632 -42.5595,49.6689 -5.41892,-27.6095 -40.14523,-96.9925 0.92908,-95.7179 17.80788,31.9404 30.08354,-28.5632 60.21859,0.6565 35.4681,16.4922 27.00069,-66.9917 17.78426,-10.749 -16.55336,16.2238 -46.79079,-28.0519 -63.51162,13.0462 -25.64816,-46.4335 -36.61246,4.932 -44.91725,30.0193 -22.39366,-29.6829 -67.1517,-6.0765 -29.75511,21.8082 7.19346,-66.9235 68.41834,54.052 24.96911,80.7736 z m -154.31023,-84.6846 c -11.53735,-20.3809 -44.12809,-24.7393 -10.03999,-37.5885 1.31572,-23.9066 -49.04379,-48.6775 1.25276,-40.8114 -10.86158,-31.09 -55.29648,0.4093 -21.26526,28.347 14.7017,13.0695 -34.5792,2.6481 -5.55422,29.4378 7.41411,7.8104 24.1897,31.772 35.60671,20.6151 z M 331.10239,1323.265 c -19.65741,-38.6392 11.51762,-54.4483 -19.70249,-93.6832 -10.09526,-25.8538 23.08675,-24.9459 8.83655,-56.7359 1.5159,-24.7418 7.94085,-32.6774 -6.68581,-14.3534 -16.26419,-27.6023 -18.83442,-35.11 -21.13307,-0.2856 -17.94101,33.1475 -15.83884,30.0938 4.53169,8.6369 48.84157,26.7113 -25.07609,40.9233 10.45156,74.5174 26.88788,21.6368 -23.46448,89.1957 23.70157,81.9038 z m 463.82028,-220.0585 c 0.0434,-33.1636 59.324,-21.3536 34.49152,-51.6964 6.26834,42.0505 -44.79706,-21.2201 -32.37912,31.0664 -6.97886,46.9512 -32.03073,-56.3947 -33.88417,2.3282 -9.16406,10.7689 23.95373,24.7919 31.77177,18.3018 z m -528.03982,-24.3974 c 20.88493,-9.5127 92.68567,4.1787 30.69351,-5.0184 -7.68111,-11.1749 -60.53124,11.5169 -30.69351,5.0184 z"
       style="fill:#241c1c;stroke-width:1.27111"
       id="path140" />
    <path
       d="m 539.48948,1286.5111 c -11.22804,-4.4213 -34.78746,-2.3639 -27.91254,-33.4019 20.08313,1.8175 11.82111,-43.7398 28.37297,-3.5314 20.34931,30.2862 21.89796,-32.262 49.55977,5.0503 38.41196,31.5892 4.72767,-66.955 32.21414,-6.6258 19.43622,11.9749 10.2939,-56.0098 33.65675,-11.0041 15.30764,16.9799 23.49595,44.3702 -9.45338,34.5879 -1.6851,55.6733 -36.1546,-38.3571 -52.40972,16.4117 -12.39647,2.1652 -40.02506,-30.2107 -46.43723,6.7062 l -2.93291,-1.9921 z"
       style="fill:#000000;stroke-width:1.27111"
       id="path142" />
    <path
       d="m 437.67281,1254.6792 c -14.06436,-57.1303 60.94041,17.6627 0,0 z"
       style="fill:#000000;stroke-width:1.27111"
       id="path144" />
    <path
       d="m 707.5336,1229.8385 c -34.07367,-25.1046 -14.83594,-41.4929 17.6877,-21.4755 22.50434,17.9763 -22.82053,7.426 -10.86541,30.691 z"
       style="fill:#000000;stroke-width:1.27111"
       id="path146" />
    <path
       d="m 694.28583,930.03456 c -41.52394,-51.59716 65.719,-108.5592 78.98459,-41.7601 11.68783,39.58642 -54.40919,52.93079 -78.98459,41.7601 z"
       style="fill:#ff0000;stroke-width:1.27111"
       id="path148" />
    <path
       d="m 391.49621,953.50638 c -83.31432,-0.89117 -28.62915,-112.30982 25.33186,-57.9299 19.45021,23.38349 13.59444,67.26214 -25.33186,57.9299 z"
       style="fill:#ff0000;stroke-width:1.27111"
       id="path150" />
    <path
       id="path40"
       d="m 783.16041,912.26638 c -3.95308,-2.13629 -8.21204,-12.22605 -8.21204,-19.45484 0,-2.44079 -0.44256,-6.58036 -0.98346,-9.19905 -0.86702,-4.19751 -0.87648,-5.38122 -0.0798,-9.99756 2.68568,-15.56294 10.48408,-20.62883 23.57616,-15.31522 2.07021,0.84022 4.64421,1.52936 5.71999,1.53142 3.6861,0.007 14.12511,1.83809 18.30821,3.2113 4.56887,1.49985 8.51185,4.33234 9.44407,6.78426 1.56807,4.12434 -3.17626,11.35564 -12.66764,19.30802 -7.16953,6.007 -30.55767,23.15154 -32.28366,23.66535 -0.65051,0.19365 -1.92031,-0.0465 -2.82179,-0.53368 z"
       style="fill:#ffffff;stroke-width:0.635554" />
    <path
       id="path42"
       d="m 671.35302,926.95266 c -4.36944,-1.81196 -9.18749,-4.12767 -10.70678,-5.14603 -2.65126,-1.7771 -2.74637,-1.95152 -2.3649,-4.33709 0.65679,-4.10733 4.08323,-12.23397 6.58896,-15.62735 2.47392,-3.35031 6.00842,-5.78821 8.3918,-5.78821 0.79441,0 2.47906,1.06083 3.83,2.41177 3.35851,3.35851 4.68807,8.07623 4.6937,16.65486 0.004,6.3654 -1.22476,15.32445 -2.08365,15.1899 -0.22259,-0.0349 -3.9797,-1.5459 -8.34913,-3.35785 z"
       style="fill:#ffffff;stroke-width:0.635554" />
    <path
       id="path44"
       d="m 682.55105,1277.2936 c -6.79428,-13.9973 -9.62773,-24.3015 -15.61587,-56.7891 -2.12619,-11.5354 -4.04949,-21.8313 -4.274,-22.88 l -0.40821,-1.9067 2.80225,2.4758 c 23.30332,20.5886 37.08012,35.5936 44.3559,48.31 4.02862,7.0411 5.39429,11.3358 5.43892,17.1039 0.0448,5.7969 0.58894,5.1442 -11.29152,13.5448 -7.12942,5.0411 -9.48154,6.1604 -14.52743,6.9131 l -2.97743,0.4442 z"
       style="fill:#ffffff;stroke-width:0.635554" />
    <path
       id="path46"
       d="m 491.49115,1299.1101 c -5.02565,-1.6792 -6.96666,-2.8363 -9.96808,-5.9426 -7.38048,-7.6383 -9.59672,-21.0767 -6.49373,-39.3757 2.32472,-13.7094 8.95219,-34.6271 11.80515,-37.2596 2.90761,-2.6829 6.40991,-1.6547 8.53189,2.5047 2.69219,5.2771 4.1708,12.3871 6.61737,31.8198 3.09994,24.6225 5.15511,35.0223 8.37831,42.3971 0.83507,1.9107 1.95436,3.9558 2.4873,4.5447 1.54797,1.7105 0.15724,2.0524 -9.25648,2.2755 -7.04888,0.1671 -9.23871,-0.01 -12.10173,-0.9639 z"
       style="fill:#ffffff;stroke-width:0.635554" />
    <path
       id="path48"
       d="m 430.61935,950.99339 c -2.0195,-1.41451 -1.79692,-4.07544 0.87417,-10.45061 3.86412,-9.2226 5.39593,-13.46829 5.99063,-16.60411 0.52833,-2.78592 0.37953,-3.43663 -1.89889,-8.30376 -5.09157,-10.87652 -6.97286,-19.04005 -4.80283,-20.84102 3.53877,-2.93692 17.68342,10.34105 25.71574,24.14004 3.9272,6.74667 5.92093,12.46476 5.98319,17.15997 0.0963,7.26134 -3.15106,10.69784 -11.71014,12.39229 -2.59721,0.51418 -6.8672,1.50635 -9.48886,2.20482 -5.7592,1.5344 -8.78168,1.62011 -10.66301,0.30238 z"
       style="fill:#ffffff;stroke-width:0.635554" />
    <path
       id="path50"
       d="m 323.70481,921.23967 c -12.99806,-5.46517 -21.60885,-12.87221 -21.60885,-18.58804 0,-4.37465 4.99952,-7.56811 14.41045,-9.20471 2.38612,-0.41496 5.6254,-1.31685 7.1984,-2.0042 4.36931,-1.90925 12.86454,-4.72888 15.68147,-5.2048 1.9757,-0.33379 2.84501,-0.16153 4.0309,0.79875 1.43999,1.16603 1.47249,1.35604 0.68281,3.99176 -1.13714,3.79546 -15.27728,31.36731 -16.17571,31.54102 -0.39816,0.077 -2.29692,-0.52142 -4.21947,-1.32978 z"
       style="fill:#ffffff;stroke-width:0.635554" />
    <path
       id="path52"
       d="m 550.04712,1246.5494 c -9.06521,-5.1822 -12.30911,-11.2261 -8.96723,-16.7075 1.29091,-2.1173 5.49513,-4.5323 7.92892,-4.5545 2.07983,-0.019 5.1121,2.2198 6.24752,4.6125 2.02941,4.2767 0.97573,18.2605 -1.37464,18.2435 -0.58275,0 -2.30831,-0.7215 -3.83457,-1.594 z"
       style="fill:#ffffff;stroke-width:0.635554" />
    <path
       id="path54"
       d="m 589.36538,1252.232 c -0.52496,-0.165 -3.24195,-2.4585 -6.03777,-5.0965 l -5.0833,-4.7965 v -5.8328 c 0,-5.2465 0.17924,-6.1378 1.78291,-8.866 0.98059,-1.6682 2.96289,-3.8132 4.40511,-4.7666 2.28576,-1.5112 3.23939,-1.7309 7.43263,-1.7127 3.7585,0.016 5.41634,0.3396 7.58128,1.4785 2.55114,1.342 2.74012,1.6112 2.38333,3.3952 -0.21314,1.0657 -0.38753,7.0398 -0.38753,13.2758 0,10.7816 -0.064,11.3724 -1.30349,12.0358 -1.39228,0.7451 -9.18285,1.3857 -10.77317,0.8858 z"
       style="fill:#ffffff;stroke-width:0.635554" />
    <path
       id="path56"
       d="m 565.35924,1303.4162 c -7.00388,-1.2566 -12.21087,-5.3355 -12.21695,-9.5701 -0.003,-2.2122 2.3722,-5.6181 4.98062,-7.1415 2.98936,-1.7459 8.01378,-1.6428 11.94765,0.2453 3.70307,1.7773 10.00866,7.932 12.7651,12.4596 1.97695,3.2474 1.98193,3.2772 0.60763,3.6449 -2.67276,0.7152 -14.76602,0.9571 -18.08405,0.3618 z"
       style="fill:#ffffff;stroke-width:0.635554" />
    <path
       id="path58"
       d="m 592.79158,1303.4572 c -0.73788,-0.2982 -1.51406,-0.9915 -1.72486,-1.5409 -0.78828,-2.0542 -1.20482,-7.3975 -0.79153,-10.1535 l 0.42776,-2.8525 4.89288,0.117 c 5.80639,0.1389 8.26352,-0.9889 11.2482,-5.1629 1.80225,-2.5204 2.04458,-2.6477 4.41619,-2.3202 3.84278,0.5307 10.39599,3.9476 13.47366,7.0252 3.64323,3.6432 3.7991,6.2094 0.55041,9.0618 -2.33585,2.0509 -7.46873,3.9064 -10.80615,3.9064 -1.09257,0 -5.09982,0.572 -8.90499,1.2711 -7.37643,1.3553 -10.62453,1.5201 -12.78157,0.6485 z"
       style="fill:#ffffff;stroke-width:0.635554" />
    <path
       id="path60"
       d="m 646.4653,1296.9785 c -1.51739,-1.0793 -3.39642,-2.5413 -4.17562,-3.2489 l -1.41672,-1.2864 1.53208,-1.4198 c 0.84264,-0.781 1.85179,-2.6672 2.24254,-4.1917 0.39076,-1.5245 0.81943,-3.1008 0.95261,-3.5029 0.55264,-1.6686 13.50642,-2.2735 18.70427,-0.8735 6.21888,1.675 7.43075,4.2804 3.49866,7.5215 -2.53688,2.0911 -8.71582,5.2465 -14.6645,7.4887 l -3.91442,1.4755 z"
       style="fill:#ffffff;stroke-width:0.635554" />
    <path
       id="path62"
       d="m 513.3683,1241.8392 c -3.89904,-2.2364 -6.98429,-5.6065 -7.56875,-8.2675 -1.32515,-6.0334 8.59031,-14.4754 14.24894,-12.1316 3.66826,1.5195 3.79009,6.0785 0.39498,14.781 -0.85517,2.1921 -1.71875,4.772 -1.91906,5.7333 -0.45803,2.1981 -1.14994,2.1826 -5.15611,-0.1152 z"
       style="fill:#ffffff;stroke-width:0.635554" />
    <path
       id="path64"
       d="m 550.04712,1246.5494 c -9.06521,-5.1822 -12.30911,-11.2261 -8.96723,-16.7075 1.29091,-2.1173 5.49513,-4.5323 7.92892,-4.5545 2.07983,-0.019 5.1121,2.2198 6.24752,4.6125 2.02941,4.2767 0.97573,18.2605 -1.37464,18.2435 -0.58275,0 -2.30831,-0.7215 -3.83457,-1.594 z"
       style="fill:#ffffff;stroke-width:0.635554" />
    <path
       id="path66"
       d="m 460.03121,1281.2775 c -8.30561,-2.9997 -14.31018,-7.2357 -16.63833,-11.7379 -1.56243,-3.0214 -0.83323,-7.7059 1.57429,-10.1134 1.80673,-1.8067 2.25057,-1.9426 5.912,-1.8105 2.17724,0.079 4.54187,0.5514 5.25474,1.0507 2.11505,1.4814 4.78029,5.9467 6.10023,10.2202 1.38061,4.4698 2.41651,13.5971 1.53917,13.5615 -0.31038,-0.013 -1.99433,-0.5394 -3.7421,-1.1706 z"
       style="fill:#ffffff;stroke-width:0.635554" />
    <path
       id="path68"
       d="m 457.01233,1231.5757 c -2.04371,-1.1903 -1.26635,-3.2641 2.60417,-6.9471 3.75707,-3.5751 10.86063,-7.6197 13.38262,-7.6197 1.87529,0 2.26,1.4044 1.0341,3.775 -1.19456,2.31 -5.72258,9.5248 -6.70527,10.6839 -0.82001,0.9672 -8.69881,1.0497 -10.31562,0.1079 z"
       style="fill:#ffffff;stroke-width:0.635554" />
    <path
       style="fill:#000000"
       id="path39"
       d="m 380.26124,882.11846 c -4.7073,3.57389 -7.88959,8.80365 -9.85179,14.32154 -0.50795,1.4284 -0.85952,2.90768 -1.28928,4.36152 -1.68698,6.83658 -0.67378,13.74307 0.20296,20.59478 0.36915,5.26064 0.44045,10.52609 0.54675,15.79505 -0.14,3.3879 0.2066,6.29083 1.19783,9.54051 1.09599,3.2352 2.55595,6.17776 4.86457,8.71103 1.76933,1.77614 3.54951,2.94272 6.43643,2.2958 2.02278,-0.45327 3.06617,-2.77202 4.01457,-4.33897 2.40758,-3.53169 4.69344,-7.28 6.1792,-11.31032 0.43761,-1.18709 0.75669,-2.41457 1.13503,-3.62186 0.26958,-1.26638 0.60096,-2.52116 0.80875,-3.79913 0.2271,-1.39679 0.62811,-5.90144 0.76504,-7.39358 0.2736,-2.98142 0.48094,-5.95154 0.61947,-8.94192 0.079,-0.89297 0.16547,-1.78532 0.23699,-2.67892 0.16692,-2.08561 0.1541,-3.09436 0.50413,-5.104 0.51426,-2.9526 1.33874,-5.86892 2.04495,-8.77895 0.81832,-3.63636 2.08252,-7.17487 2.59547,-10.87842 0.36732,-2.65208 0.27041,-2.8392 0.22491,-5.39888 -0.19823,-3.10329 -1.06289,-6.2098 -3.25595,-8.51671 -0.3691,-0.38826 -0.79402,-0.71935 -1.19103,-1.07903 -2.66961,-1.97152 -3.37651,-3.06369 -7.48877,-2.78362 -0.62493,0.0426 -1.11974,0.56177 -1.67961,0.84265 -0.46878,0.40854 -0.92483,0.83216 -1.40633,1.22563 -0.23443,0.19156 -0.50536,0.33541 -0.73924,0.52764 -2.0472,1.68267 -3.87506,3.63596 -5.66064,5.58472 -3.94003,4.95866 -6.56222,10.76205 -8.26751,16.83601 -0.40544,1.4441 -0.72533,2.91086 -1.08799,4.36629 -1.45335,7.51218 -1.91898,15.14975 -2.26826,22.77791 -0.0344,4.67573 -0.16669,9.35964 0.0999,14.03191 0.0965,1.69068 0.28289,3.37502 0.42317,5.06263 0.1965,2.52259 0.53479,4.96622 2.00559,7.10181 0.85654,1.24369 1.7371,1.60277 3.0199,2.44321 1.62472,0.15618 3.24592,0.58231 4.87416,0.46853 0.93879,-0.0656 1.81601,-0.54384 2.64257,-0.99378 5.82915,-3.17312 7.88511,-11.21072 9.78275,-16.95695 2.60028,-10.25977 4.08928,-20.81953 4.53568,-31.39466 0.25356,-6.00675 0.0913,-7.56969 -0.1292,-13.23346 -0.13045,-1.41103 -0.23513,-2.82468 -0.39137,-4.23309 -0.0949,-0.85526 -0.23108,-1.70551 -0.36176,-2.55604 -0.0732,-0.47663 -0.14555,-0.95413 -0.24991,-1.42493 -0.041,-0.18485 0.003,-0.51374 -0.18498,-0.53702 -8.56473,-1.06115 -7.27499,-3.0399 -8.91796,0.19482 -3.26183,7.51676 -5.14158,15.54796 -6.80567,23.54282 -1.58159,7.73348 -2.8615,15.54693 -3.39322,23.42675 -0.2717,5.9835 -0.66358,9.66102 8.75524,8.02237 1.01002,-0.17572 4.37194,-7.14375 4.42026,-7.23636 5.38323,-12.26736 7.40913,-25.6133 8.07547,-38.90812 0.11113,-2.21726 0.0975,-4.43903 0.14619,-6.65854 -0.15523,-2.83072 -0.0396,-4.76108 -0.78875,-7.36434 -0.15815,-0.54956 -0.13498,-1.43043 -0.68929,-1.57103 -2.68717,-0.68158 -5.53776,-1.06376 -8.2868,-0.7057 -0.0667,0.009 -1.74374,3.7869 -1.75886,3.82067 -1.59388,3.38334 -3.33061,6.73252 -4.34483,10.35163 -0.64772,2.31127 -0.92148,4.47526 -1.30006,6.84193 -0.47466,3.87602 -0.8275,7.7816 -1.62806,11.61029 -0.33242,1.58982 -0.76568,3.15687 -1.14822,4.73538 -1.62033,6.68622 -0.93296,3.84085 -2.67903,11.11531 -1.47856,8.42566 -2.86128,16.97437 -2.71989,25.5575 1.60808,2.75691 1.2736,2.4211 8.87727,0.4213 0.85458,-0.22476 0.54325,-1.68302 0.75948,-2.5398 1.25754,-4.98282 2.04468,-10.06406 2.84838,-15.13352 0.39609,-3.09716 0.81642,-5.59531 0.88906,-8.66353 0.0137,-0.57821 0.43824,-1.58117 -0.1204,-1.73094 -2.86547,-0.76822 -5.97012,-1.28782 -8.87393,-0.6804 -0.97163,0.20325 -0.81188,1.81736 -1.10102,2.76698 -0.46075,1.51317 -0.76253,3.07025 -1.14379,4.60538 -0.53053,3.2001 -1.02288,5.0039 -0.9425,8.10857 0.0147,0.56849 -0.27915,1.59381 0.28257,1.68246 3.0543,0.48204 6.18312,-0.11607 9.27469,-0.1741 0.12139,-0.62814 -8.76188,-2.34486 -8.88327,-1.71672 v 0 c 2.86228,0.93345 5.61741,2.30387 8.58683,2.80034 0.46371,0.0775 0.48569,-0.81315 0.63769,-1.25805 1.11374,-3.25983 1.07676,-4.39523 1.61692,-8.06831 0.0952,-1.5373 0.24967,-3.07207 0.28575,-4.6119 0.0247,-1.05653 0.81518,-2.64633 -0.10348,-3.16877 -2.58159,-1.46813 -5.74621,-1.85977 -8.71604,-1.84685 -0.69232,0.003 -0.64675,1.23134 -0.86443,1.88855 -0.95661,2.88821 -1.33904,5.64554 -1.89821,8.65101 -0.27713,1.88713 -0.61582,3.76623 -0.83139,5.66137 -0.30025,2.63962 -0.58634,7.17351 -0.59484,9.96697 -0.003,0.99925 -0.73414,2.4925 0.1296,2.99496 7.62253,4.43416 7.28579,4.33691 9.05234,1.11637 2.31164,-8.06388 3.02354,-16.50369 4.79919,-24.68677 0.34088,-1.97982 0.68176,-3.95964 1.02263,-5.93946 0.38156,-1.78447 0.81335,-3.55892 1.14467,-5.35339 1.03312,-5.59555 1.53542,-11.26632 1.90163,-16.93807 0.33151,-2.77342 0.23212,-2.82744 0.93843,-5.4446 0.96805,-3.58704 2.71673,-6.88273 3.8197,-10.42659 0.14567,-0.65255 0.34178,-1.29586 0.43702,-1.95766 0.0208,-0.14453 0.0479,-0.39232 -0.0937,-0.42793 -2.55418,-0.64214 -5.16974,-1.00977 -7.74871,-1.54373 -0.12158,-0.0252 -0.29878,-0.2466 -0.34806,-0.13264 -0.29981,0.69322 -0.3986,1.45833 -0.54566,2.19915 -0.28939,1.45779 -0.50863,2.92864 -0.76295,4.39296 -1.09633,7.64183 -2.00017,15.29869 -2.96317,22.95804 -0.36291,2.88645 -1.51239,12.06148 -2.17753,15.26721 -0.34279,1.65212 -0.9078,3.25022 -1.36171,4.87533 -0.29968,1.18726 -0.65695,2.36146 -0.89906,3.5618 -0.0652,0.32313 -0.31312,0.84034 -0.0188,0.98873 2.10719,1.06234 4.50931,1.42268 6.67252,2.36573 0.18594,0.0811 0.0354,0.77979 0.12168,0.59623 0.60817,-1.29356 0.0578,-2.97849 0.76887,-4.2187 0.45409,-3.46524 0.79432,-6.97353 1.36427,-10.42088 0.42413,-2.56533 1.03573,-4.8606 1.66222,-7.38844 0.37574,-1.51605 0.75629,-3.0309 1.13444,-4.54636 1.67194,-7.8014 3.48881,-15.58558 4.66924,-23.48035 0.50036,-3.89075 0.65019,-1.90322 -8.21926,-2.53187 -0.25477,-0.0181 -0.18832,0.47622 -0.25243,0.72345 -0.28239,1.08898 -0.64055,3.21118 -0.76115,4.12922 -0.17609,1.34053 -0.29301,2.68818 -0.43951,4.03227 -0.64636,6.86089 -1.09449,13.73189 -1.62545,20.60265 -0.20285,2.62495 -0.33546,5.25663 -0.62124,7.87384 -0.51775,4.74156 -1.37846,9.17242 -2.20743,13.85991 -0.25394,1.24476 -1.5682,7.90267 -2.08215,9.7663 -0.33606,1.21859 -0.4185,1.4065 -1.29962,2.04362 -0.11812,0.0854 -0.52881,0.13934 -0.39288,0.19197 0.78536,0.30411 1.63525,0.4038 2.45288,0.60569 0.004,0.16886 0.008,0.33771 0.0127,0.50657 -0.0735,4.6e-4 -0.19273,-0.0667 -0.2204,10e-4 -0.0674,0.1656 0.17585,0.57679 0.002,0.53631 -0.19253,-0.0448 -0.13564,-0.37552 -0.15586,-0.57214 -0.062,-0.60295 0.047,-2.4953 0.0617,-2.8543 0.0317,-1.66427 0.1015,-3.32791 0.11251,-4.99245 0.0297,-4.4933 -0.23842,-8.99032 0.0303,-13.48103 0.2045,-5.06968 0.0364,-1.92974 0.40702,-6.99783 0.14544,-1.98864 0.3102,-5.04258 0.60924,-7.01985 0.17016,-1.12512 0.46192,-2.22858 0.67334,-3.34668 0.23915,-1.26484 0.45218,-2.53448 0.67828,-3.80172 0.26082,-1.23203 0.45673,-2.4796 0.78247,-3.69608 0.31269,-1.16776 0.74004,-2.30188 1.13002,-3.44615 1.26952,-3.72498 2.71255,-7.40625 4.96641,-10.66365 1.22385,-1.44462 2.47495,-2.8605 3.73991,-4.2692 0.52635,-0.58616 1.12099,-1.1098 1.63276,-1.70872 0.0604,-0.0707 -0.16151,0.0921 -0.24227,0.13812 -1.59319,0.82343 -0.91754,0.66332 -3.94299,-0.12667 -0.15375,-0.0402 -0.42314,-0.447 -0.27507,-0.38934 0.76835,0.29918 1.33604,1.46353 2.19363,1.71822 0.22642,-0.21004 0.1066,-0.17235 0.47308,0.21144 0.8259,0.86492 0.74284,2.04777 0.72417,3.17124 -0.0988,2.07498 -0.18629,4.12411 -0.68327,6.15333 -0.66062,2.69734 -0.79093,2.23609 -1.66166,5.08685 -0.32067,1.04988 -0.56269,2.12219 -0.84403,3.18329 -1.36132,5.87267 -2.37232,11.82827 -2.61279,17.86168 -0.33195,2.9283 -0.74731,5.84547 -1.05957,8.77611 -0.1312,1.23139 -0.48501,5.25634 -0.6699,6.55734 -0.14697,1.03418 -0.36389,2.0572 -0.54583,3.0858 -0.23438,0.89455 -0.40426,1.80855 -0.70313,2.68367 -1.31926,3.86297 -3.59599,7.35475 -5.07344,11.15417 -0.77092,1.94787 -0.008,-0.12712 1.50494,-0.30916 1.94736,-0.23425 2.86478,-0.12293 3.67422,1.1123 0.0342,0.0521 -0.10537,-0.0666 -0.15806,-0.0999 -0.30645,-0.42219 -0.66723,-0.8051 -0.95219,-1.24209 -1.04349,-1.60017 -1.74045,-3.4129 -2.52202,-5.14502 -0.16477,-0.42964 -0.31402,-0.86556 -0.4943,-1.28894 -0.11506,-0.27021 -0.30479,-0.50886 -0.39079,-0.78968 -0.40344,-1.31735 0.33557,-3.4053 0.3086,-4.7232 0.49448,-5.66417 0.43596,-11.40545 -0.3777,-17.03758 -0.64937,-5.74464 -0.92147,-11.52847 0.35186,-17.22562 0.31826,-1.15643 0.57547,-2.33144 0.9548,-3.4693 1.50617,-4.51802 4.07559,-8.55408 7.07996,-12.21471 0.3822,-0.49273 -6.58606,-5.89787 -6.96826,-5.40514 z" />
    <path
       style="fill:#000000"
       id="path41"
       d="m 716.91377,869.3693 c -0.7718,6.47803 -0.8662,13.06494 -0.36138,19.56809 0.42833,3.99075 1.13362,7.93964 1.73232,11.90542 0.19585,2.23062 0.0459,4.48824 0.29321,6.71554 0.17849,1.60761 0.51454,2.89067 0.87089,4.45302 0.65828,3.22866 1.29414,6.48518 2.4186,9.59168 0.519,1.43384 1.13054,2.8325 1.68417,4.25332 1.03617,2.59853 1.80818,5.29756 3.01941,7.8234 -0.0138,-0.0531 -0.0425,-0.21434 -0.0415,-0.15943 0.0134,0.72765 0.1568,3.11164 0.76509,3.13497 2.78076,0.10668 5.60149,-0.64996 8.16824,-1.72504 0.60424,-0.25308 0.32843,-1.26835 0.49265,-1.90253 1.92406,-9.4291 1.04916,-19.15398 0.25115,-28.66305 -0.73755,-6.96025 -2.59114,-13.71447 -3.98009,-20.5556 -0.0996,-0.69916 -0.21635,-1.39609 -0.29866,-2.0975 -0.1286,-1.09596 -0.30406,-3.59926 -0.45576,-4.65497 -0.34998,-2.43548 -0.87869,-4.85914 -1.46575,-7.24581 -0.86361,-3.44307 -2.59673,-6.52286 -4.09476,-9.70076 -0.33476,-0.67612 -0.30915,-1.25957 -0.0809,-1.97309 0.0256,-0.0801 0.17166,-0.28687 0.14298,-0.20783 -0.18055,0.49754 -0.40061,0.97984 -0.60091,1.46976 -1.32558,0.35977 -2.65117,0.71955 -3.97675,1.07932 -0.0935,-5.1e-4 -0.32865,-0.0817 -0.28049,-0.002 0.4311,0.71755 1.19964,1.18166 1.67689,1.86939 0.60122,0.86638 1.34942,2.49813 1.7853,3.38703 2.18562,5.41496 3.06772,11.23314 4.60151,16.84453 0.12518,0.48972 1.23867,4.79012 1.3441,5.41077 0.1769,1.04146 0.22433,2.10091 0.35251,3.14949 0.41555,3.39955 0.85797,6.79087 1.22505,10.19647 0.76154,4.84764 0.91938,9.7591 1.21804,14.65072 0.0616,4.27404 -0.83818,8.41098 -1.65224,12.57453 -0.47208,2.1211 -0.98496,4.23717 -1.21636,6.40246 -0.13951,1.30535 -0.11219,2.6014 -0.32442,3.89761 -0.0665,0.15075 -0.0877,0.33121 -0.1995,0.45224 -0.19352,0.20951 0.43696,-1.50108 0.53988,-1.5107 0.88708,-0.0829 1.78034,0.0743 2.67051,0.11138 -6.4e-4,0.11774 -0.0279,1.68288 0.54244,0.43341 0.12776,-0.27992 -0.21916,-0.57535 -0.31351,-0.86823 -0.68142,-2.11537 -1.41248,-4.19452 -2.1887,-6.27882 -1.68978,-4.48131 -2.78644,-9.15523 -3.4948,-13.88298 -1.07595,-6.01653 -2.93364,-11.85708 -4.26453,-17.81632 -0.51795,-3.17058 -1.49615,-6.2485 -2.01625,-9.41895 -0.17897,-1.09097 -0.26123,-2.50259 -0.34388,-3.6101 -0.14763,-2.35853 -0.70949,-4.79357 -0.25799,-7.14235 0.54533,-2.99623 1.11017,-5.97349 1.7484,-8.95408 0.59531,-2.7607 1.44183,-5.45961 2.09697,-8.20526 0.12893,-0.48601 0.1249,-0.55563 0.086,-0.19073 0.27766,-0.53729 -7.32075,-4.464 -7.59841,-3.92671 v 0 c -0.79167,1.47374 -0.46114,0.76515 -1.02046,2.11205 -0.4031,1.14567 -0.91985,2.25062 -1.28765,3.40901 -0.5464,1.72085 -0.87829,3.51129 -1.30658,5.26233 -0.35256,1.83233 -0.84111,3.63077 -1.03993,5.49067 -0.0125,0.11709 -0.0945,2.27131 -0.13105,2.54383 -0.0493,0.36753 -0.15422,0.72543 -0.23133,1.08815 -0.55478,2.9732 -0.46398,5.94035 -0.32823,8.95228 0.20331,4.83445 1.20649,9.56151 1.98764,14.32679 1.23902,5.94502 2.94921,11.76886 4.43982,17.6535 1.28504,5.08266 1.61504,10.43313 3.83769,15.26871 1.42903,3.47638 2.98994,8.09382 5.82673,10.65432 0.35344,0.31902 0.82468,0.47609 1.23702,0.71414 1.32454,0.16162 2.63925,0.48278 3.97361,0.48487 0.55444,8.7e-4 1.07988,-0.26786 1.59371,-0.47613 2.22503,-0.90186 3.53836,-2.92107 4.14211,-5.15834 0.79417,-3.39283 1.21308,-6.86749 2.16355,-10.22717 1.00802,-4.75285 1.73392,-9.60194 1.754,-14.46831 -0.0847,-5.02528 -0.66729,-10.00928 -0.69216,-15.03591 -0.39971,-6.74591 -1.50828,-13.39132 -3.31749,-19.9085 -1.19942,-6.41586 -2.62615,-12.8759 -5.39797,-18.81976 -1.54845,-2.74535 -3.25112,-5.66676 -5.7678,-7.67106 -0.77566,-0.61775 -1.47181,-1.5578 -2.45604,-1.67845 -1.92637,-0.23615 -3.85593,0.44556 -5.78389,0.66834 -0.5891,0.77006 -1.28394,1.46972 -1.7673,2.31019 -1.07267,1.86514 -0.63756,5.50754 -0.0727,7.47621 0.50462,1.31025 1.1566,2.45296 1.67953,3.71964 0.66766,1.61726 0.96938,3.36824 1.56489,5.00967 0.27837,1.08549 0.83265,3.17329 1.03567,4.26615 0.5597,3.01297 0.60397,6.10627 0.98276,9.14117 0.92886,6.63128 2.34623,13.20885 2.51752,19.93072 0.25654,3.46279 0.56202,6.92199 0.79571,10.38639 0.30666,4.5459 0.41444,9.10674 0.73175,13.65137 0.06,0.85921 0.17261,1.71394 0.25892,2.5709 -0.0405,3.65017 -0.29817,-0.72795 7.58733,0.92091 0.44632,0.0933 0.44624,3.0231 0.44487,0.9701 -2.9e-4,-0.43598 -0.0202,-0.87173 -0.0303,-1.3076 -0.43511,-3.25518 -1.39502,-6.40085 -2.62503,-9.44312 -1.74877,-4.0178 -2.70883,-8.29874 -3.84342,-12.5205 -0.37701,-1.76243 -0.84076,-3.54595 -1.05108,-5.33891 -0.12679,-1.08088 -0.0563,-2.12013 -0.098,-3.2065 -0.023,-0.59965 -0.0783,-1.19762 -0.11746,-1.79643 -0.31021,-3.78275 -1.16739,-7.51756 -0.94702,-11.33651 0.064,-6.42202 0.27093,-12.88958 -0.57995,-19.27138 0,-0.62796 -8.88074,-0.62796 -8.88074,0 z" />
    <path
       style="fill:#d40000"
       id="path45"
       d="m 664.32721,1210.959 c 0.29529,0.8767 0.5364,1.7737 0.88588,2.6303 2.61399,6.4071 6.32433,12.3401 10.19659,18.0436 3.05688,4.2686 3.43396,5.0662 10.52536,-0.074 0.66273,-0.4803 -0.3558,-1.6001 -0.60392,-2.3801 -0.65979,-2.0741 -1.53069,-4.0751 -2.29507,-6.113 -3.06263,-7.1977 -6.34528,-14.3158 -10.63473,-20.8711 -1.31393,-2.0087 -2.64076,-3.9759 -3.46849,-6.2339 -1.51131,-4.7333 -3.22926,-4.9822 -9.39372,-1.6487 -0.64536,0.349 -0.41599,4.294 -0.40662,4.7838 0.12592,0.8406 0.19925,1.6909 0.37775,2.522 0.2039,0.9494 0.51062,1.8737 0.76745,2.8101 1.21997,4.4479 2.59831,8.8099 4.25191,13.116 0.87321,2.0233 1.72946,4.047 2.71956,6.0162 0.3498,0.6957 0.83378,1.4214 0.97311,2.206 0.085,2.5194 0.41847,4.9749 0.90205,7.4565 0.3482,1.7343 1.03903,3.3648 1.54668,5.0514 0.10367,0.3444 0.16503,0.701 0.27697,1.0428 0.0676,0.2066 0.0457,0.6324 0.26034,0.5979 2.90537,-0.4659 5.72917,-1.3452 8.59376,-2.0178 0.30299,-2.8195 0.1355,-5.6379 -0.0536,-8.457 -0.31402,-4.6822 -0.2973,-5.5154 -1.17895,-10.3185 -0.33366,-1.8177 -0.78117,-3.6127 -1.17175,-5.419 -1.1395,-5.5265 -3.45465,-10.692 -5.01367,-16.0932 -0.10412,-0.2844 -0.02,-0.9325 -0.31235,-0.8534 -0.3084,0.083 0.21938,0.8152 -0.0674,0.9561 -2.31467,1.1375 -5.10152,1.2523 -7.26944,2.6493 -0.48061,0.3097 0.53544,1.0107 0.82209,1.5054 1.3149,2.2694 1.45964,2.3978 3.00211,4.6996 3.21234,4.8751 6.30373,10.2846 10.62787,14.2716 0.46027,0.3479 1.61362,1.3079 2.28327,1.5516 0.10513,0.038 -0.15196,-0.1692 -0.19745,-0.2714 -0.0291,-0.065 0.14306,0.051 0.18532,0.1084 0.14129,0.1931 0.26936,0.3956 0.40404,0.5934 0.45821,1.5436 1.02585,3.0418 1.73395,4.4888 0.4997,1.0211 0.43572,1.1721 0.49292,0.6089 2.27929,-1.4029 4.9662,-2.2955 6.83786,-4.2086 0.46213,-0.4723 -0.76233,-1.0801 -1.12055,-1.6354 -2.30851,-3.5786 -1.26192,-2.3592 -4.25148,-6.3001 -2.72831,-3.5965 -3.58472,-4.4226 -6.64295,-7.8694 -3.28655,-3.312 -6.49166,-6.7806 -10.33127,-9.4776 -0.13621,-0.096 -3.46281,-2.2053 -4.21124,-2.2334 -1.96657,-0.074 -3.92424,0.3029 -5.88636,0.4544 -0.41354,1.8154 -1.11705,3.5884 -1.24062,5.4463 -0.045,0.6772 1.5608,4.2114 1.77135,4.6763 1.11455,2.4607 2.38136,4.8456 3.53648,7.2872 1.86524,4.09 1.79663,8.6553 2.50094,13.0145 0.54315,2.5578 0.72676,5.1749 0.97026,7.7741 0.25675,2.4461 1.1673,4.7514 1.63238,7.1501 0.35963,1.2986 0.19865,0.7003 0.48685,1.7938 0.11877,0.6012 8.62183,-1.0783 8.50306,-1.6796 v 0 c -0.21031,-0.9968 -0.118,-0.526 -0.28137,-1.4117 -0.37604,-2.2358 -1.09642,-4.377 -1.41867,-6.6214 -0.28919,-2.6058 -0.65297,-5.1928 -0.67881,-7.8212 -0.22878,-5.322 -0.62822,-10.6563 -2.69409,-15.6435 -1.47674,-3.2417 -3.03055,-6.4603 -4.922,-9.4861 -0.27273,-0.4363 -0.46178,-1.5836 -0.87229,-1.2735 -1.02759,0.7765 -1.26475,2.2441 -1.89712,3.3661 -1.69107,0 -3.39441,-0.2139 -5.0732,-0.011 -0.28106,0.034 0.43843,0.3586 0.65021,0.5465 0.48635,0.4315 0.97637,0.8595 1.44384,1.3114 3.12597,3.0215 6.00894,6.2834 9.17462,9.2655 4.35769,4.4643 2.5795,2.5454 6.62597,7.0627 1.78573,1.9936 3.4885,4.0621 5.3187,6.0149 0.59643,0.6363 1.00928,1.8649 1.88029,1.8196 3.00258,-0.1564 5.8019,-1.5804 8.70285,-2.3706 -0.0516,-0.4922 -0.06,-0.9908 -0.15478,-1.4766 -0.17709,-0.9077 -0.54255,-1.5919 -0.89924,-2.4365 -0.71279,-1.6878 -1.33709,-3.4346 -2.51508,-4.873 -0.85598,-0.8101 -1.49419,-2.245 -2.66276,-2.5797 -1.11765,-1.54 -1.97449,-3.2129 -2.97537,-4.8303 -1.93462,-3.1263 -4.10096,-6.1002 -6.34562,-9.0091 -1.07956,-1.3932 -2.38066,-3.1105 -3.53598,-4.4591 -0.44756,-0.5224 -0.70707,-1.4971 -1.39457,-1.5212 -8.04223,-0.282 -8.51532,-1.189 -8.57413,3.1722 0.48559,5.6879 2.07504,11.224 2.99362,16.8456 1.08,4.8671 2.29728,9.7276 3.23604,14.6243 0.70723,3.6891 0.30127,2.4775 0.82302,6.0102 0.10605,0.7181 0.26873,1.4266 0.40309,2.1399 2.91993,0.047 5.85016,0.3913 8.75978,0.1416 0.29636,-0.025 0.0244,-0.597 -0.0119,-0.8923 -0.26126,-2.1283 -1.02077,-4.1639 -1.6173,-6.2098 -0.6003,-2.2367 -1.30243,-4.4377 -1.21981,-6.778 -0.071,-0.523 -0.1101,-1.0513 -0.21296,-1.569 -0.56442,-2.8405 -2.21096,-5.3576 -2.68147,-8.2309 -0.65701,-2.3454 -1.12204,-4.1268 -1.9366,-6.4682 -1.1923,-3.4271 -2.91639,-6.6607 -3.79735,-10.19 -0.11376,-0.4193 -0.1046,-0.8935 -0.34128,-1.2578 -0.0739,-0.1137 -0.24339,0.1324 -0.37767,0.1513 -4.86117,0.6856 -6.25044,3.0225 -7.45461,0.1215 -0.14803,-0.3567 1.39474,2.242 0.49788,1.0459 0.89703,2.7432 1.52043,5.573 3.09257,8.0581 0.5954,1.1308 2.06853,3.9033 2.56884,4.9678 2.40455,5.1162 4.27441,10.4909 7.20805,15.3548 0.69763,1.2672 2.29101,4.3517 3.34722,5.6998 0.19594,0.2501 0.44706,0.6339 0.75945,0.576 9.15882,-1.6993 9.35386,-0.4509 6.85319,-5.7498 -3.50858,-6.7087 -7.45904,-13.1662 -11.73625,-19.4137 -0.22177,-0.5921 -8.59535,2.5442 -8.37358,3.1363 z" />
    <circle
       id="path47"
       style="fill:#d40000;stroke:#000000"
       cx="907.57153"
       cy="1279.3708"
       r="0.27513146" />
    <path
       style="fill:#d40000"
       id="path49"
       d="m 493.1254,1242.1607 c 0.84484,-6.2939 1.47318,-12.6148 1.79787,-18.9571 0.027,-0.7419 0.0527,-1.4837 0.081,-2.2255 0.0171,-0.4495 0.033,-0.8991 0.0552,-1.3484 0.004,-0.089 0.0842,-0.3303 0.0247,-0.2646 -0.18971,0.2094 -0.16097,0.7628 -0.44089,0.7241 -8.6484,-1.197 -6.71747,-4.4656 -8.41022,-0.6701 -1.65126,4.6949 -3.67469,9.2504 -5.58491,13.844 -0.92735,1.7071 -1.4345,3.59 -2.15949,5.3789 -0.33395,0.824 -0.83112,1.5748 -1.17321,2.3955 -0.25132,0.6029 -0.44012,1.2301 -0.66018,1.8451 -0.14028,0.6021 -0.31099,1.198 -0.42084,1.8064 -0.12528,0.694 -0.17407,1.3998 -0.28377,2.0963 -0.52389,3.3269 -1.24523,6.6182 -1.8235,9.9353 -0.89846,6.3954 -1.0817,9.4113 8.9309,5.9555 0.3903,-0.1347 2.00932,-6.0154 2.01601,-6.0384 2.00809,-7.1631 3.05004,-14.5675 5.06156,-21.7248 0.66188,-2.4529 2.27978,-4.3858 3.48172,-6.5527 0.46132,-0.5487 0.4729,-1.3733 0.91751,-1.9298 0.0534,-0.067 0.0934,0.2343 0.1686,0.1935 0.002,0 1.92569,-1.6812 1.92993,-1.6849 1.33949,-1.1097 2.4497,-2.4599 3.34754,-3.9421 0.50829,-0.8391 0.1804,-0.5747 0.51995,-0.8267 -1.81669,0.4522 -3.63337,0.9043 -5.45006,1.3565 -0.60385,-0.5439 -1.00432,-1.5375 -1.81157,-1.6319 -0.47179,-0.055 0.0163,0.95 0.038,1.4245 0.0339,0.7434 0.0971,1.4853 0.12872,2.2288 0.0965,2.2714 0.1526,4.5443 0.24063,6.816 0.20356,6.9439 1.71589,13.7247 3.5431,20.394 1.33499,2.8412 1.54857,5.5306 1.86686,8.5715 0.0571,0.1892 -0.0217,0.6106 0.17118,0.5675 2.76346,-0.6173 5.62666,-1.1229 8.1414,-2.4244 0.48648,-0.2518 -0.23539,-1.07 -0.35799,-1.6039 -0.6247,-2.7204 -1.24451,-5.4393 -1.9099,-8.1502 -1.68424,-6.7586 -2.97789,-13.6103 -4.37072,-20.4341 -0.84956,-3.2564 -1.49669,-7.8109 -4.39751,-10.0289 -0.64509,-0.4932 -1.41674,-0.7941 -2.12512,-1.1911 -0.99116,-0.9348 -3.70084,0.3853 -5.32482,0.3196 -0.1392,-0.01 -0.28455,-0.084 -0.41617,-0.038 -1.32098,0.4583 -1.53872,0.7092 -2.57167,1.4491 -2.12363,1.892 -3.65378,4.3347 -5.36189,6.5873 -2.28318,2.3295 -3.71477,5.3423 -4.41085,8.5118 -0.22252,1.0131 -0.3212,2.0496 -0.4818,3.0744 -0.76958,6.4448 -0.53068,12.9497 -0.20952,19.4158 0.51607,6.3741 0.26518,8.7855 9.834,5.7485 0.90164,-0.2862 0.75794,-1.7367 1.05066,-2.6363 0.36941,-1.1352 0.62163,-2.3053 0.93244,-3.4579 1.91489,-7.117 3.18458,-14.3993 5.13168,-21.5065 -4.45916,5.2631 1.59977,-0.603 -6.83144,1.5086 -0.62605,0.1568 0.0756,1.2889 0.13918,1.9312 0.28126,2.8402 0.62364,5.6014 1.16242,8.4119 0.28758,1.5001 0.67337,2.9798 1.01005,4.4697 1.38571,6.0009 2.31638,12.1407 4.48424,17.9266 1.83059,3.1095 1.71878,3.7636 8.72604,1.268 1.02404,-0.3647 0.66949,-2.0733 0.88492,-3.1388 0.77578,-3.837 0.58871,-7.9089 0.6145,-11.7932 -0.13413,-3.3037 -0.18813,-6.0908 -0.54768,-9.371 -0.14371,-1.311 -0.40751,-2.6064 -0.57527,-3.9145 -0.15796,-1.2318 -0.24852,-2.4714 -0.40171,-3.7037 -0.39816,-3.203 -0.48123,-3.439 -1.02728,-6.4395 -0.47358,-2.1191 -0.85366,-4.331 -1.76978,-6.3231 -0.11772,-0.256 -0.75118,-1.2639 -0.99978,-1.663 -0.40024,-0.6729 -0.63344,-1.395 -0.59343,-2.18 -0.0191,-0.6229 -8.82798,-0.3525 -8.80886,0.2703 v 0 c 0.0319,0.5985 0.004,1.2031 0.0957,1.7953 0.21674,1.4035 0.81367,2.7401 1.53704,3.9471 0.15866,0.266 0.29921,0.5437 0.47598,0.798 0.045,0.065 0.10421,0.1454 0.1829,0.1499 0.055,0 0.0881,-0.1881 0.0969,-0.1338 0.21684,1.3315 -0.39245,3.1407 0.0798,4.4211 0.27543,3.3128 0.70761,6.6133 0.95819,9.9274 0.31866,4.2145 0.32791,8.451 0.7119,12.6619 0.16819,2.725 0.30603,5.5868 0.61236,8.3083 0.098,0.8702 0.0288,1.7995 0.38745,2.5983 0.097,0.2162 0.40582,-0.3164 0.64243,-0.3041 7.54514,0.3895 7.29214,3.225 7.47937,0.5629 -0.41135,-1.9005 -0.58694,-3.8166 -0.83544,-5.7453 -0.50947,-3.9541 -1.0608,-7.9094 -1.99892,-11.7897 -0.74374,-3.6831 -1.01499,-5.2419 -1.94429,-8.936 -0.35456,-1.4094 -0.70474,-2.822 -1.147,-4.2064 -1.30211,-4.076 -2.00211,-6.5279 -7.87131,-7.178 -1.44605,-0.1601 -2.39164,1.6574 -3.58746,2.4861 -0.44693,0.7488 -0.96949,1.4574 -1.34081,2.2464 -1.00672,2.1392 -1.85175,5.1512 -2.44389,7.3723 -1.19955,4.4997 -2.14072,9.0714 -2.54567,13.7169 -0.0991,1.0321 -0.22698,2.0618 -0.29738,3.0962 -0.039,0.573 -0.57262,1.5329 -0.0306,1.7227 2.52829,0.8856 5.31143,0.7034 7.96687,1.0571 0.0717,0.01 0.20413,0.1044 0.21462,0.033 0.20834,-1.4216 -0.25304,-2.8973 0.0354,-4.3102 -0.13065,-6.0534 -0.44679,-12.1191 -0.0632,-18.1689 0.24186,-3.7516 0.3826,-5.2528 3.08793,-7.9436 1.1427,-1.5839 2.1553,-3.2529 3.31635,-4.8238 -0.0966,0.1912 -0.71944,0.3189 -0.51535,0.384 0.51093,0.1631 7.29001,-1.4812 -0.43863,-0.6402 -0.36682,-0.395 -1.10308,-0.7887 -0.95308,-1.3065 0.0247,-0.085 0.11021,0.1444 0.13634,0.2294 0.59231,1.9277 0.74979,3.9566 1.10909,5.9309 0.72793,4.716 1.39884,9.4742 2.53494,14.1138 0.30919,1.2627 0.70233,2.5034 1.04324,3.7579 0.29517,1.0861 0.57666,2.176 0.86499,3.264 0.82755,2.8549 1.66359,5.688 2.78735,8.4441 0.23339,0.5723 0.13687,1.6156 0.74975,1.696 8.82655,1.158 8.39071,2.3567 8.98597,-1.1233 -0.0556,-3.4132 -0.43171,-6.7615 -1.42865,-10.0437 -0.17684,-0.8277 -0.83744,-3.8639 -0.96194,-4.6755 -0.7455,-4.859 -0.91431,-9.7953 -1.64182,-14.657 -0.37015,-2.3366 -0.65269,-4.6866 -1.02625,-7.0228 -0.12024,-0.7519 -0.6996,-3.9231 -1.1397,-4.7446 -0.65931,-1.2307 -1.01714,-3.0881 -2.36341,-3.458 -1.96768,-0.5406 -4.00761,0.7714 -6.01141,1.1571 -1.04504,1.33 -2.1027,2.6309 -3.38014,3.755 -1.74344,1.5452 -3.30515,3.1806 -4.22592,5.364 -0.56678,0.807 -1.22444,1.5421 -1.79771,2.3456 -1.16706,1.6359 -2.09887,3.4081 -3.00131,5.2002 -0.39719,0.9195 -0.84927,1.8172 -1.19158,2.7585 -0.399,1.0971 -0.7048,2.2263 -1.02904,3.3478 -1.57016,5.4312 -2.75412,10.9784 -3.40828,16.597 -0.15212,1.0214 -0.33844,2.0384 -0.45637,3.0643 -0.0676,0.5886 -0.64684,1.5471 -0.0998,1.7747 2.44519,1.0173 5.27799,0.6734 7.81447,1.4351 0.34399,0.1033 0.0738,1.243 0.35358,1.0178 1.05207,-0.8465 -0.68702,-3.3895 0.79168,-3.9729 0.49526,-2.7493 0.98256,-5.5113 1.20013,-8.3004 0.0865,-1.1085 -0.0227,-2.2353 0.16225,-3.3317 0.064,-0.3794 0.19996,-0.743 0.29994,-1.1145 1.02862,-3.1158 2.86047,-5.8764 4.16839,-8.8811 2.37004,-5.025 4.91125,-10.0555 5.70411,-15.6266 0.24971,-4.5786 0.86319,-3.3763 -7.65554,-5.4189 -0.55411,-0.1328 -1.936,3.9907 -2.0438,4.3945 -0.22795,0.8538 -0.39614,1.7225 -0.59422,2.5837 -0.84093,6.5227 -1.45326,13.154 -0.60651,19.7108 0,0.62 8.76827,0.62 8.76827,0 z" />
    <circle
       id="path51"
       style="fill:#d40000;stroke:#000000"
       cx="548.4834"
       cy="1253.3131"
       r="0.27513146" />
    <path
       style="fill:#ff2a2a"
       id="path55"
       d="m 597.70561,1252.7988 c -0.9242,-4.9836 -3.60507,-12.6826 -9.03961,-1.0799 1.46959,2.7006 1.10758,2.069 2.74443,4.9241 0.50635,0.8832 0.92824,1.8219 1.52842,2.6442 1.54225,2.1132 4.78832,4.7504 7.73593,3.4767 1.94509,-0.8406 2.15117,-3.6513 3.22675,-5.477 0.0511,-3.857 -1.06292,-7.5249 -2.13618,-11.1806 -0.5567,-1.8962 -1.00193,-4.4613 -2.34491,-6.0252 -2.82916,0.7663 -5.91437,0.8952 -8.48746,2.299 -0.67517,0.3683 -8e-5,1.5391 0.0449,2.3069 0.24645,4.2028 0.75091,8.4171 1.42995,12.569 0.27145,1.6899 0.48769,3.3526 0.92818,5.0081 1.11023,4.1728 2.62717,3.2726 9.95166,0.046 1.07416,-0.4732 0.84669,-2.1907 1.21133,-3.3064 0.44331,-1.3564 0.80751,-2.7374 1.21127,-4.1061 1.15371,-3.5037 1.75511,-7.1992 3.16608,-10.6217 0.27443,-0.6657 0.61235,-1.3075 0.99675,-1.9164 0.19099,-0.3025 1.07073,-0.8535 0.71726,-0.7984 -1.66039,0.2592 -3.22086,0.9604 -4.83129,1.4406 -0.85765,-0.4749 -1.65601,-1.7716 -2.57296,-1.4248 -0.853,0.3227 -0.49983,1.7566 -0.67175,2.6523 -0.38577,2.0096 -1.31283,7.3069 -0.27133,9.2762 0.70318,1.3296 1.83925,2.3803 2.75887,3.5705 2.39781,-0.6776 4.94873,-0.9512 7.19344,-2.0328 0.88511,-0.4265 1.25811,-1.512 1.82639,-2.3134 1.78216,-2.5135 2.90236,-5.3117 4.35435,-8.004 -3.30582,2.9923 -0.43448,1.2975 -6.99352,-0.3167 -0.18259,-0.045 -0.25734,0.2931 -0.30387,0.4753 -0.14074,0.5511 -0.14949,1.128 -0.24861,1.688 -0.33645,1.9008 -0.46917,2.2715 -0.95047,4.1575 -0.52164,1.3122 -0.41246,3.1515 -1.55215,4.1755 -0.97211,0.8733 -2.4477,1.412 -3.60089,1.9534 -2.16482,0.4565 -4.38545,0.725 -6.60138,0.7046 -0.15967,0 0.61608,-0.054 0.46634,-0.1094 -1.39989,-0.206 -0.87335,-0.018 -1.6409,-0.3476 0.0146,-0.043 0.0506,-0.085 0.0437,-0.1306 -0.0368,-0.2423 -0.14335,-0.4714 -0.1721,-0.7148 -0.14903,-1.2618 0.11817,-2.5664 0.14204,-3.8285 0.0987,-0.6122 -8.55934,-2.0084 -8.65807,-1.3962 v 0 c -0.83465,3.0605 -0.95706,6.8529 0.4318,9.7853 0.45628,0.9634 1.11631,1.8163 1.67447,2.7245 0.82192,0.6586 1.54888,1.4575 2.46578,1.9758 3.80237,2.1492 10.77546,1.4351 14.84391,-0.041 1.05148,-0.3815 2.02845,-0.9433 3.04267,-1.415 0.73412,-0.4947 1.50086,-0.9442 2.20236,-1.4841 3.36782,-2.5924 5.31096,-5.9069 6.28135,-10.0117 0.58041,-2.6401 1.14592,-5.2901 0.91978,-8.0184 -0.077,-0.9292 0.21661,-2.1044 -0.44483,-2.7615 -1.64574,-1.635 -3.68965,-3.1078 -5.957,-3.5986 -1.09816,-0.2377 -1.94972,1.1173 -2.92458,1.676 -0.46302,0.5018 -0.98009,0.9586 -1.38906,1.5053 -1.4962,2.0003 -2.54927,4.5598 -3.7391,6.766 -0.29264,0.5427 -1.44049,1.3807 -0.87616,1.6289 1.56349,0.6877 3.41245,0.1582 5.11867,0.2373 0.4819,0.9902 0.72971,2.1339 1.44571,2.9707 0.22974,0.2685 0.14528,-0.6918 0.20653,-1.0398 0.177,-1.0059 0.37543,-2.0089 0.50815,-3.0215 0.16615,-1.2677 0.76884,-6.8127 0.42846,-7.9835 -0.60134,-2.0683 -1.95283,-3.8399 -2.92924,-5.7599 -2.19669,0.3333 -4.50554,0.2308 -6.59007,0.9997 -0.91195,0.3364 -1.39352,1.3684 -1.96387,2.1555 -3.06714,4.2327 -4.25262,9.5984 -5.575,14.5392 -0.24432,1.3554 -0.51413,2.7064 -0.73296,4.0661 -0.16568,1.0294 -1.28507,2.5171 -0.42029,3.0995 10.62067,7.1536 8.37348,1.5296 7.78806,-3.7487 -0.32093,-4.3351 -0.69798,-8.6674 -1.80264,-12.889 -0.19251,-0.7357 0.0515,-2.0301 -0.6954,-2.1729 -2.88237,-0.551 -5.86426,0.239 -8.79639,0.3584 -0.0535,0.3801 -0.18128,0.7569 -0.16045,1.1401 0.0903,1.6601 0.79676,4.4496 1.20073,5.8825 0.80889,2.8692 1.80865,5.7111 2.99999,8.4432 5.55065,-4.3726 0.4804,-1.8116 7.68872,-0.834 0.42326,0.057 -0.44043,-0.7321 -0.6528,-1.1027 -1.45186,-2.5336 -1.74157,-3.241 -3.41979,-5.6519 -0.57928,-0.8322 -1.22172,-1.6186 -1.83258,-2.4279 -0.84617,-0.8699 -1.34297,-2.8176 -2.53851,-2.6095 -9.93255,1.7284 -7.52961,4.9945 -5.03997,9.9835 0.11341,0.6105 8.74632,-0.9933 8.63291,-1.6037 z" />
    <path
       style="fill:#ff2a2a"
       id="path57"
       d="m 720.77187,1230.8564 c 0.13848,0.2134 0.19891,0.5067 0.41546,0.6403 0.25825,0.1593 0.59305,0.1347 0.89465,0.1677 0.5446,0.06 1.12276,0.2909 1.63988,0.11 2.84519,-0.9955 5.31998,-2.8521 7.3241,-5.064 0.96357,-1.0635 1.68123,-2.3262 2.52184,-3.4894 1.52394,-2.7264 2.81761,-5.583 2.57383,-8.7627 0.13206,-0.3357 -0.17217,-0.7968 -0.0374,-1.1592 0.0172,-0.046 0.0315,0.159 0.0715,0.13 0.13751,-0.1 0.19035,-0.2839 0.3085,-0.4061 0.14084,-0.1457 0.32262,-0.2476 0.46388,-0.3929 0.2793,-0.2873 0.52989,-0.6011 0.79484,-0.9017 1.41682,-1.2404 2.51334,-2.7704 3.38291,-4.4298 0.41605,-0.794 0.38545,-0.543 0.41028,-0.9679 -5.0211,0.067 -9.45743,-1.9904 -6.51587,1.5643 0.3822,0.4618 0.8207,0.8858 1.30978,1.2325 0.545,0.3863 1.16051,0.6652 1.76588,0.9478 1.16705,0.5446 0.75078,0.044 1.03711,0.4074 0.67143,0.7359 0.38692,1.755 0.23821,2.6483 -0.44181,2.6537 -0.44417,2.3587 -1.20944,5.2472 -0.17153,0.5279 -1.90144,5.8609 -2.08798,6.3997 -0.23495,0.6786 -0.46746,1.3599 -0.75748,2.0169 -0.091,0.2061 -0.51315,0.7406 -0.37968,0.5591 1.38796,-1.8872 0.28046,-1.1454 3.29797,-1.5012 -2.09257,-0.1295 -4.49534,-0.1703 -6.01077,1.414 -0.18802,0.1966 0.38885,-0.5675 0.65041,-0.4928 2.12721,0.6076 3.96125,2.3464 6.17149,2.4414 0.82956,0.036 -0.74755,-1.4829 -1.12133,-2.2244 -2.30608,-0.081 -4.6463,-0.6477 -6.91826,-0.2442 -0.78333,0.1391 -1.01091,1.2391 -1.61269,1.7595 -0.094,0.081 -0.11507,-0.367 0.009,-0.3727 1.93968,-0.091 3.88807,-0.044 5.82449,0.1007 0.33501,0.025 0.69957,0.6521 0.92407,0.4022 0.42307,-0.4709 0.25684,-1.2398 0.38527,-1.8597 -2.53131,0.8239 1.23567,-2.2841 0.4189,-2.4982 -0.22344,-0.059 -0.33171,0.403 -0.28863,0.63 0.0259,0.1365 0.27209,-0.091 0.37277,-0.1868 0.5324,-0.5065 1.74728,-1.9189 2.28381,-2.533 0.13691,-0.1503 0.59663,-0.3686 0.41074,-0.4509 -2.60249,-1.1516 -5.33477,-1.9857 -8.02362,-2.9181 -0.10111,-0.035 -0.36729,0.1209 -0.32009,0.025 0.23395,-0.4759 0.40886,-1.2908 0.93918,-1.2843 2.05157,0.025 4.00062,0.9128 6.00094,1.3693 -0.20658,-0.5828 -8.44789,2.3386 -8.24132,2.9213 v 0 c 2.24648,1.0298 4.29295,2.7403 6.73943,3.0893 0.97048,0.1385 1.67382,-1.0665 2.32904,-1.7956 0.49156,-0.5471 1.53236,-1.4063 1.03533,-1.9484 -6.13879,-6.695 -5.44617,-6.6866 -8.42302,-3.9358 -0.29152,0.3781 -0.59502,0.7472 -0.87455,1.1342 -0.13081,0.1812 -0.21065,0.3981 -0.35518,0.5685 -0.26682,0.3145 -0.60768,0.5612 -0.87188,0.8779 -1.60697,1.9265 -2.48857,3.8815 -2.70788,6.4196 0.0258,1.552 -0.23349,6.2229 1.4023,7.2419 1.97837,1.2324 4.56239,1.2581 6.89195,1.1814 0.75189,-0.025 1.1925,-0.9254 1.71701,-1.4647 0.063,-0.065 0.058,-0.2509 -0.0305,-0.2693 -1.94749,-0.4052 -3.92632,-0.6417 -5.88948,-0.9625 -0.16681,-0.5186 -1.01319,-1.7395 -0.50043,-1.5556 2.3086,0.8275 4.11104,2.7337 6.38041,3.6634 0.37634,0.1542 0.67555,-0.4639 1.05174,-0.6184 0.10136,-0.042 -0.085,0.2497 -0.19338,0.2658 -1.06716,0.1594 -2.16362,0.066 -3.22769,0.2451 -0.29653,0.05 0.59326,0.099 0.88989,0.1478 1.42583,-0.042 2.897,0.2317 4.2775,-0.1274 1.08113,-0.2813 2.00462,-1.0245 2.86914,-1.732 3.2361,-2.6484 4.47407,-8.5055 5.47401,-12.2922 0.63594,-4.6188 1.49184,-10.0539 -1.28388,-14.2149 -0.41556,-0.6229 -0.98086,-1.1318 -1.47128,-1.6977 -0.29141,-0.2007 -2.10139,-1.7642 -3.02607,-1.6634 -0.0115,0 0.008,1.0008 -0.10848,0.987 -2.69264,-0.3198 -5.36125,-0.8169 -8.04188,-1.2253 -1.37738,1.6452 -2.594,3.4215 -4.15099,4.9205 -1.69525,2.5417 -3.22042,5.4669 -2.28994,8.6001 0.47776,-0.056 0.0994,0.02 0.33436,-1.1318 0.0305,-0.1493 0.22619,-0.5072 0.0851,-0.4493 -0.90638,0.372 -2.67963,3.4226 -3.22735,4.0273 -1.19905,1.6114 -2.86008,4.0543 -4.81623,4.8733 -0.98664,0.413 -2.09753,0.4836 -3.07431,0.9194 -2.96928,1.325 -2.73249,1.7332 -4.57867,4.3324 -0.1835,0.5903 8.16512,3.1853 8.34862,2.595 z" />
  </g>
</svg>
