<?xml version="1.0" encoding="UTF-8" standalone="no"?>
<svg
   xmlns:dc="http://purl.org/dc/elements/1.1/"
   xmlns:cc="http://creativecommons.org/ns#"
   xmlns:rdf="http://www.w3.org/1999/02/22-rdf-syntax-ns#"
   xmlns:svg="http://www.w3.org/2000/svg"
   xmlns="http://www.w3.org/2000/svg"
   xmlns:sodipodi="http://sodipodi.sourceforge.net/DTD/sodipodi-0.dtd"
   xmlns:inkscape="http://www.inkscape.org/namespaces/inkscape"
   inkscape:version="1.0 (4035a4fb49, 2020-05-01)"
   sodipodi:docname="wurry.svg"
   viewBox="0 0 1080 1812"
   height="1812"
   width="1080"
   id="svg10"
   version="1.1">
  <metadata
     id="metadata16">
    <rdf:RDF>
      <cc:Work
         rdf:about="">
        <dc:format>image/svg+xml</dc:format>
        <dc:type
           rdf:resource="http://purl.org/dc/dcmitype/StillImage" />
        <dc:title></dc:title>
      </cc:Work>
    </rdf:RDF>
  </metadata>
  <defs
     id="defs14" />
  <sodipodi:namedview
     inkscape:current-layer="g18"
     inkscape:window-maximized="1"
     inkscape:window-y="-11"
     inkscape:window-x="-11"
     inkscape:cy="1036.3122"
     inkscape:cx="558.64699"
     inkscape:zoom="0.78671483"
     showgrid="false"
     id="namedview12"
     inkscape:window-height="1826"
     inkscape:window-width="1080"
     inkscape:pageshadow="2"
     inkscape:pageopacity="0"
     guidetolerance="10"
     gridtolerance="10"
     objecttolerance="10"
     borderopacity="1"
     bordercolor="#666666"
     pagecolor="#ffffff" />
  <g
     id="g18"
     inkscape:label="Image"
     inkscape:groupmode="layer">
    <path
       d="m 797.3141,1639.8457 c -21.9349,-28.1181 -75.98958,-19.4634 -110.71413,-12.0258 -45.66379,10.2246 -89.16201,-16.8552 -134.80282,-14.0036 -57.0517,5.9961 -111.27144,-12.841 -166.28238,7.3112 -26.39835,6.4464 -46.24736,-11.608 -74.1397,2.4244 -34.15407,-11.4234 43.06132,-29.8836 38.82198,-63.8926 25.05066,-45.2011 35.14552,-97.3069 -9.12839,-133.1549 -16.11373,-31.1159 -41.20356,-39.8904 -48.59441,-65.5028 -11.45908,-14.6356 3.71722,86.2064 -17.51988,31.301 -13.41172,-49.1864 -21.77424,-101.9409 -33.17624,-150.0055 -1.01131,-22.7355 -2.65577,-56.7297 -10.38934,-14.0747 5.11214,20.7103 -22.63163,64.0731 -11.79235,19.079 2.58609,-48.8577 -28.63044,-90.3835 -12.27599,-139.7259 -1.14705,-5.163 -29.28168,32.6752 -16.2831,-4.6423 11.48446,-45.262 33.30625,-88.7724 9.58625,-134.51655 -17.04487,-69.41627 -22.28114,-141.48365 -29.07599,-212.45398 14.01043,-37.79156 27.86114,64.93751 19.45555,0.95401 -7.97795,-54.73134 -30.32335,-124.46078 -2.77167,-173.00001 16.80006,33.86766 -0.90464,-92.44682 34.10476,-66.53519 1.26348,5.37237 11.6481,-37.32801 17.72994,-14.12202 9.91138,-0.64939 5.81172,61.45579 10.93816,10.69381 -1.44724,-30.63207 12.69444,-96.17718 37.23389,-86.79598 0.98413,-30.68164 17.66622,-39.80637 15.30936,-10.77274 12.636,-39.33709 9.2921,51.63821 11.34908,-3.54179 11.80401,-13.38174 5.54174,16.79608 12.75668,-10.02488 9.15696,-5.10389 7.33685,65.77496 14.71456,19.08182 2.01091,-44.0944 19.05878,-34.04985 15.22226,2.30745 6.81223,-35.76485 41.70263,-80.24609 34.47612,-74.27719 -1.88528,24.14939 -2.85177,55.28122 7.87441,13.98671 6.59144,-35.29868 23.10396,-39.4646 18.67845,-1.73156 -1.85834,18.65306 15.09508,-69.51678 16.92843,-18.06126 21.38106,-15.7128 7.13582,124.19697 18.01587,40.28661 6.00913,-46.7553 19.9352,-14.90143 17.01643,12.19594 1.91487,13.0535 9.4852,-70.8489 14.80485,-16.45258 6.39078,-17.22498 24.40321,-37.37307 22.08745,-4.4074 5.54247,-17.35431 18.4756,-28.98711 13.81145,-1.82975 9.02345,-20.65407 25.97603,-69.5527 27.27533,-19.68556 13.77217,-42.43545 13.30804,-8.75771 22.81395,11.56402 3.22336,-16.6644 17.48743,-73.40066 28.37015,-24.91764 14.16166,68.93733 -3.18319,-76.14872 13.41079,-19.05011 0.6405,31.55303 32.9812,95.10285 27.45216,28.17883 2.79159,-90.13768 39.14703,60.92521 35.5157,31.31953 -2.69848,-27.02725 -4.1702,-108.66475 9.48559,-40.02546 7.54284,24.27999 11.23272,53.7794 15.98275,19.07261 20.69849,-4.03324 38.66306,116.69916 37.06098,46.21543 2.70149,-58.68448 38.78468,79.51491 33.04745,25.95756 4.55621,-56.32781 46.20008,76.83896 43.84912,23.64756 8.72142,-62.16573 35.31728,79.08799 30.09149,18.11303 9.04218,-36.69051 22.45845,52.12963 25.6863,69.662 11.81707,14.17809 1.86245,52.94867 17.27146,16.48024 23.44171,29.19744 21.01907,63.27985 24.79824,108.73752 4.84754,40.35274 -4.22554,93.85853 -0.72388,125.58432 6.31041,34.24033 20.70884,-71.06018 21.25195,-92.35296 25.17449,4.71238 12.82511,89.25931 13.62303,122.56163 -7.59939,90.62111 17.79934,185.06988 -15.6121,272.50458 -35.30057,11.5126 4.19718,75.9663 -29.30583,68.265 11.35895,44.1378 -12.9946,43.2318 -9.59183,50.4689 14.30066,24.6853 10.56524,100.0834 1.05091,34.698 -1.39084,-23.1875 -28.81818,-82.5828 -13.97846,-26.4991 6.58839,24.6328 4.35012,85.6583 -18.28813,87.9105 -2.01179,-40.3508 -41.31374,34.4441 -37.29123,62.3098 -8.71413,29.5287 -23.74444,15.2564 -18.22619,-1.2983 -26.79596,23.9608 -40.89963,82.9065 -65.13548,93.4781 -15.02671,-0.7175 15.43367,-100.502 -15.88622,-36.4551 -18.20099,33.1062 -53.5294,92.0462 -52.79996,94.5754 -4.98155,-20.8789 -4.06474,-46.963 -2.57626,-64.5025 -17.33328,18.7388 -44.35885,118.9425 -56.08281,50.253 -1.61805,-43.9239 -22.65434,59.3486 -46.05623,14.8674 -13.60781,6.0684 -41.45812,6.7068 -10.21857,18.4945 -24.47353,23.2705 -87.41598,-98.6462 -61.82747,-33.0112 8.83151,41.9294 -41.70946,-38.2803 -65.36843,-21.302 -14.15124,-19.2178 -63.33628,-71.5423 -37.11932,-15.6087 -25.80348,8.822 -21.47572,83.5872 -54.90108,111.8015 -11.58115,19.8901 -51.06931,40.3464 -2.70801,28.0194 30.36681,-17.6223 52.17388,16.7284 85.70289,-8.0703 40.10737,0.1319 76.23663,1.3478 116.22142,3.1607 46.94341,-8.4021 91.41855,14.8174 136.29879,15.5101 38.83315,-8.7468 66.7598,-17.2753 102.25118,-7.7717 26.00538,-2.2381 -30.36914,-54.9966 -19.02774,-81.7414 -8.01346,-26.6741 1.7157,-109.7811 4.09942,-36.4744 -3.47188,45.9282 19.49463,98.1648 45.80439,126.1725 -18.82031,2.636 14.85282,15.188 -9.65975,15.1118 z M 587.54761,1530.9166 c -2.46629,-3.5623 -1.20936,3.6562 0,0 z m 40.84652,-5.8505 c -0.9431,-11.4007 -6.72572,12.9884 0,0 z m -45.84652,-1.1495 c -4.83614,-7.2338 2.57102,7.1081 0,0 z m -22.06981,-3.2434 c -4.13393,-11.5179 -6.96462,14.2805 0,0 z m 38.03536,-8.7566 c 17.42159,-31.273 12.87201,-80.5206 -14.67653,-90.4014 -31.45096,-24.0992 -2.81831,22.8876 -17.85329,18.2703 -24.66531,-39.8673 -3.17813,-39.6661 17.95503,-31.0802 35.9585,48.4869 12.51216,-81.6287 53.22077,-26.9655 12.3243,29.1891 24.95059,-36.0537 49.88847,-4.75 29.592,34.1578 28.03315,-63.8109 27.33936,-4.5732 -9.42335,44.0329 -61.89603,-26.1793 -70.78134,27.1984 -19.49117,-25.2395 -35.04982,-30.9452 -32.17749,9.58 -17.3849,28.9353 12.73731,8.0067 7.03013,46.9147 17.05927,15.8984 6.11652,90.1229 23.89654,29.3504 9.24853,-28.7186 41.56458,-64.568 35.76459,-70.5435 18.68437,-38.2142 11.63999,45.6238 10.01468,60.5625 9.46359,-4.549 43.41333,-111.4379 56.6794,-92.4893 19.24342,14.1061 12.13933,69.9803 5.85184,61.0713 19.30372,-48.8056 58.14811,-88.46 67.79568,-139.161 7.33668,-17.9002 21.48554,-89.2008 -11.17613,-49.9835 -30.10437,-18.8848 -12.6046,59.421 -48.09214,56.4597 0.76483,28.3424 -19.01322,37.3677 -6.576,3.7971 27.65705,-13.4684 31.07232,-43.5189 37.19327,-76.5019 34.15231,31.1659 38.82552,-27.4706 30.84693,-53.3713 23.66679,-20.603 28.4594,91.4938 38.43391,31.634 4.06458,-31.9416 -31.3074,-74.5954 -17.05815,-90.6754 23.70825,48.6002 26.51895,105.0404 31.26642,158.1235 5.48532,-38.1156 -1.36976,-77.805 -7.37426,-114.8605 -10.76617,-24.3386 -24.67453,-66.8164 5.41835,-22.0536 8.38451,13.7094 36.22244,75.1696 24.73704,22.4484 6.11421,-22.5938 -53.19622,-99.6692 -13.0314,-76 26.90875,47.3775 5.23902,-40.4464 -2.95125,-57.4998 0.34176,-11.9698 -16.01029,-45.38724 -12.54998,-46.00015 -16.18627,-14.6814 -41.35075,18.20875 -55.81965,-1.835 -8.93278,28.72005 -24.20868,20.44915 -35.98194,45.84315 -12.31951,-1.7597 -19.46459,9.5818 -32.52886,0.7648 -20.61568,4.367 -43.00944,5.9588 -58.73189,15.3947 -24.50824,-6.1509 -8.4989,33.1631 7.92356,18.1089 34.90972,-6.0862 62.26607,39.3789 75.67616,73.6053 6.24346,35.8815 18.46979,69.2738 3.19609,105.3601 -23.78263,21.6737 -36.04599,63.8743 -70.27066,73.8775 -36.2339,13.2632 -68.85051,19.8961 -101.43986,29.8227 -17.49974,-14.0594 -56.27555,-15.8581 -89.00124,-8.2563 -35.81709,4.8516 -93.4668,-16.1898 -112.92188,-31.7889 -17.64075,-12.6105 -46.66378,-62.3464 -36.50129,-98.9695 -7.60886,-37.9527 24.80832,-82.4921 41.36297,-107.9275 37.93792,-17.7523 4.40364,-60.0273 -30.74609,-63.1122 -17.65412,11.3013 -36.85748,-1.2617 -54.06614,-2.2572 -16.45558,6.9997 -35.19546,-22.6049 -41.64928,-0.6307 5.05651,-20.5469 -16.86363,-52.75481 -24.75112,-43.71755 -19.37952,-0.84765 -39.80934,59.42385 -47.49913,94.10835 -5.58738,10.6683 13.46595,-19.3459 26.68619,-18.1659 36.57476,-36.728 -1.03241,39.3821 5.84114,62.156 -7.40912,25.2729 -17.3224,76.4085 11.63715,44.7562 4.26607,58.4597 13.19044,116.8465 27.08577,173.8629 4.78849,-25.2391 -9.82803,-60.5239 14.06102,-77.2723 3.35934,45.4471 16.29063,83.4999 42.43898,119.9029 9.4072,12.9136 38.41948,45.8788 22.46585,7.2016 -11.2052,-20.7656 -20.95732,-75.0156 2.58326,-26.3272 18.29773,46.3664 60.93503,72.6803 97.51428,102.2195 35.57864,25.6051 0.2315,1.9002 11.04824,-16.4286 -13.8966,-19.8597 -5.71456,-60.3328 11.71183,-21.6965 19.28987,21.41 53.9863,73.9207 75.50917,67.6131 -5.74586,-25.7677 -39.94022,-54.5245 -26.07786,-73.7125 25.40201,19.173 35.21462,34.094 53.23626,66.9125 5.82945,4.8545 15.20592,38.4402 18.97452,12.0876 z m -173.46555,-79.4133 c -23.05416,-11.9589 -56.10255,-61.3055 -8.08986,-39.4413 -27.86396,-26.4538 -39.34977,-75.9989 12.53989,-43.4717 -13.96561,12.6644 -48.98414,-17.1772 -18.95003,17.8263 31.39323,22.8954 5.1493,43.5576 -9.28281,32.3875 5.52347,6.7102 54.73241,37.9538 23.78281,32.6992 z M 319.05903,1321.8325 c -24.52901,-16.8386 5.70063,-17.2956 -7.96909,-43.3732 30.33873,-10.4702 -38.8498,-66.3837 -3.73893,-78.1515 29.27181,4.7097 -19.97459,-69.8849 -24.36233,-14.4722 -23.33309,8.8247 32.0024,-36.2671 10.21046,-54.3718 9.37501,-6.3268 22.70843,61.2364 29.79389,11.5605 0.63951,11.6551 -9.72406,40.8871 0.0934,63.461 -50.01132,-2.7319 32.68384,74.4626 0.0802,77.5477 -18.8086,-19.2753 28.11893,65.9064 -4.10767,37.7995 z m 462.88405,-216.997 c -13.51242,-26.2897 -24.45807,13.8957 -16.85684,-27.7109 4.77625,-49.2593 22.14023,63.0048 33.30776,5.0019 -2.46513,-45.1784 11.82232,-14.7024 29.49823,-10.4613 1.90803,-61.8228 20.48553,27.8272 -15.82565,5.1797 -12.22889,-10.3159 -7.85872,37.8262 -30.1235,27.9906 z m -523.5851,-25.4175 c 12.52065,-19.1287 68.88648,7.4998 67.25527,-3.3459 -23.68474,3.5613 -44.24389,-12.2879 -66.21723,6.6422 l -1.03803,-3.2963 z m 407.09133,372.3622 c 15.43496,-58.3681 -33.77392,73.1377 -3.59643,8.8276 z m -235.98503,14.8534 c -4.27935,-4.6908 -4.7542,-0.796 0,0 z m 112.2391,-4.4982 c -14.01545,-15.3613 7.52436,12.6092 0,0 z m 209.85886,-13.2188 c 2.7729,-8.2937 -13.49803,20.7595 0,0 z m -77.09071,-4.9411 c -1.3854,-5.2173 -3.97201,13.9465 0,0 z m -293.58046,-1.548 c -8.64264,-36.2072 -10.73747,5.1567 0,0 z m 332.98998,-4.7609 c 18.50897,-17.2318 32.36026,-73.1973 8.5025,-22.9734 -0.98531,1.7371 -21.34148,40.9055 -8.5025,22.9734 z m -38.65033,1.0625 c -1.92502,0.4337 1.43252,4.3834 0,0 z m 114.85444,-51.693 c 21.79551,-33.7747 -18.94451,25.6978 0,0 z m -497.53755,-39.4974 c -2.82121,-21.8603 -7.15579,2.6329 0,0 z m 321.5,-2.3818 c 30.97303,-16.9226 59.68912,-12.19 93.24639,-32.5813 31.87884,-8.1043 39.40949,-52.8649 57.86237,-72.99 13.61341,-41.6004 0.12477,-90.4461 -22.66607,-128.2044 -8.49831,-23.205 -47.61526,-46.1613 -14.25422,-10.1889 12.55386,22.6347 33.24024,60.2149 25.90346,79.4216 -23.77119,-21.0542 -29.43305,-106.4208 -63.56978,-88.634 -31.78007,44.4783 24.65533,-40.8852 -15.46377,-11.2385 -10.90638,19.1343 20.09206,85.8023 -19.4634,71.3626 -23.86169,-11.6539 -40.8117,-39.5332 -50.24491,1.5253 -14.60064,18.4461 -43.79719,54.7596 -55.9717,15.3213 -10.95914,-53.508 -41.0457,-4.4134 -68.12713,-2.5705 -10.39727,-20.5813 -18.9055,-66.5261 -46.35637,-48.7133 -21.58663,25.2759 -19.42641,99.9346 -39.19437,103.9594 0.65965,-32.8783 19.33218,-82.6535 20.34459,-103.8819 -28.93981,25.7224 -52.56624,69.014 -42.37541,106.3453 3.33395,40.2999 30.70036,80.345 66.41827,99.7645 25.7555,9.3123 51.12869,10.5017 78.55674,10.8055 27.5474,-4.5472 51.46759,-3.1803 70.68499,0.3306 10.41216,3.696 15.30458,8.9069 24.67032,10.1667 z m -49.5,-36.4018 c -50.19977,-0.3923 -110.1645,-1.8933 -141.4441,-48.0828 -43.98427,-42.188 64.52444,-28.876 61.48319,-67.4404 13.42074,-58.0842 2.67308,42.3499 42.7914,20.3377 39.09323,22.3056 98.84184,-0.3738 123.2127,-21.27 -14.62702,-37.5015 13.28226,-27.4775 23.34459,-1.0024 41.33733,-12.0816 112.59411,16.2673 60.34535,59.9787 -25.8163,29.6479 -77.77864,56.5638 -108.14086,56.6386 5.50462,-7.6928 -53.4278,8.5956 -61.59227,0.8406 z m 20.97421,-5.5885 c -10.16728,-24.8418 -42.41938,-22.9037 -30.46545,-1.4593 10.21643,-0.8725 20.3045,3.6177 30.46545,1.4593 z m 29.79951,-1.1289 c 43.63579,1.3866 -25.80579,-54.9493 -21.68815,-1.7436 -12.97221,8.7798 21.52837,0.3675 21.68815,1.7436 z m -81.08501,-1.6293 c 7.78101,-33.1664 -33.1603,9.1949 0,0 z m -19.68871,-1.0176 c -13.7862,-18.9046 -14.59207,-106.0046 -27.04195,-89.3757 -10.12473,35.6255 -38.68682,96.9609 27.04195,89.3757 z m 134.78212,-0.1244 c 52.58085,-9.9956 -20.95061,-39.6998 -6.82258,1.6502 z m -97.00608,-11.6735 c 14.54195,-40.5154 39.99482,37.5564 51.78118,-12.1542 22.75468,-26.1507 36.76705,57.9575 41.37372,-3.2842 18.90878,-8.0007 33.02111,15.6671 21.06906,-20.1418 -12.90145,-18.6564 -34.37123,-56.9306 -33.01857,-9.6601 -10.87668,36.9624 -27.43718,-52.1324 -25.78035,-3.2304 15.2617,60.3504 -55.78015,-31.0473 -48.02962,15.9407 -21.25012,25.8514 -32.64326,-67.9349 -37.42905,-2.4953 -27.48961,-19.8052 -3.30482,62.4256 9.22536,24.8424 7.73139,3.0469 14.3352,33.6262 20.80827,10.1829 z m 133.72396,-2.7609 c 73.22407,-19.7178 -9.19754,-63.7572 -26.73906,-99.6665 5.87664,19.8566 12.94309,84.1806 26.73906,99.6665 z m -221.5,-1.7317 c -3.39458,-53.8921 -49.48219,-13.4294 0,0 z m -20.88832,-27.1349 c 36.61088,0.045 25.87454,-8.3031 0.59915,-25.6523 -15.81585,-1.7956 -10.16645,36.1228 -0.59915,25.6523 z m 159.12387,-32.0488 c -0.60683,-16.3416 -55.62569,15.6498 -13.73555,24.4446 20.64088,19.4245 9.29721,-15.1608 13.73555,-24.4446 z m 131.34641,20.75 c -9.08878,-39.3761 -19.75374,22.8485 0,0 z m -179.22372,4.5 c 7.87391,-47.9365 -37.42342,-14.4052 0,0 z m -127.89677,-4.6583 c -13.22445,-16.295 -2.51086,16.3213 0,0 z m 92.46824,-5.3047 c 21.27669,-36.6502 -41.57253,-16.5774 -1.08942,5.3311 z m 109.61415,-5.9049 c 14.56102,-40.4309 -30.1383,-10.4272 -1.4103,6.7859 z m 86.52492,2.0321 c -6.22267,-27.4953 33.50642,-0.141 10.93122,-27.95 -8.90528,-3.2722 -65.91561,-26.2825 -29.5,11.0223 4.2928,-1.1343 22.40096,37.5035 18.56878,16.9277 z m -237.54261,-12.1666 c -6.978,5.0045 -5.03231,20.0496 0,0 z m -8.30769,5.0024 c 27.91216,-26.9051 -39.77558,-1.276 -3.44887,6.75 z m 275.20346,-2.7882 c 3.99625,-38.9292 -17.91211,21.9808 0,0 z m -83.88498,1.7882 c -1.56375,-35.0007 -30.22349,-19.4516 0,0 z m 54.46304,45.9243 c 13.10517,-17.819 3.7667,1.8411 0,0 z m 109.24462,40.8257 c -0.6654,-26.6767 -1.9221,40.442 0,0 z m -535.56151,8.8125 c -1.92502,0.4337 1.43252,4.3834 0,0 z m 555.76678,-20.3205 c 4.6953,-27.4225 -9.164,18.7282 0,0 z m 25.93167,-2.0439 c -0.99125,-3.678 -2.05816,5.0908 0,0 z m -33.3852,-16.2583 c 7.7652,-24.8921 -10.79257,-66.0183 -3.99636,-14.8981 1.44842,3.0548 -3.04259,40.0171 3.99636,14.8981 z m -460.57559,-19.4398 c -11.81806,-39.6183 -13.2297,-2.6739 0,0 z m 481.97224,-0.3318 c 4.05542,-26.4572 -8.78822,-2.7952 0,0 z m -1.39301,-22.0406 c -3.56906,-4.701 -3.47131,9.798 0,0 z m -634.31689,-38.5651 c -1.92502,0.4337 1.43252,4.3834 0,0 z m 143.87298,-18.5897 c -2.80344,9.3173 2.01909,14.632 0,0 z M 220.56492,1166.269 c -1.92801,-29.6775 20.59087,-84.7319 6.75207,-86.3214 -7.26227,1.0818 -30.73049,89.3886 -7.49837,99.0483 l 0.36935,-5.7633 z m 357.2052,4.6476 c 25.88943,-1.2147 25.78733,-83.0632 54.25045,-57.2267 39.17133,61.098 38.66095,-36.8224 22.49471,-60.2629 -24.40875,-25.5731 -42.24133,37.3969 -58.4196,14.6807 -9.26793,-40.824 45.92418,-79.50258 8.78643,-118.51455 -23.96603,-26.35021 -12.33435,-66.95733 8.59665,-94.25703 26.99926,-12.7415 47.05659,-55.82566 55.81402,-50.67074 28.99041,-38.48559 43.46994,-25.50887 78.83686,-55.24599 29.95677,-11.53909 48.90475,-0.84198 72.66688,27.60834 31.83397,25.93228 43.91637,55.08816 58.75109,84.93205 -0.20833,27.55312 -40.58003,-38.77209 -62.62942,-38.72303 -28.43174,-18.44528 -49.59242,-62.35136 -71.12925,-37.02421 -12.341,-3.82662 -25.17501,12.79699 -36.62535,14.08424 -22.83953,15.61942 -40.84523,28.93988 -56.85204,46.01427 7.47664,11.34548 -75.01654,65.17587 -30.26069,100.64743 34.32101,35.57608 -3.80544,72.02902 -11.54853,111.43462 20.24793,-21.7031 41.25263,-33.2167 58.39545,-16.772 12.79414,-5.5106 16.84908,-6.3465 26.13115,-12.1759 9.8756,14.605 30.42372,-13.7581 46.02308,1.0321 13.50676,-16.1786 15.2011,13.9904 25.98722,-15.4211 11.96335,13.3996 24.6623,-22.53717 36.00586,-17.13105 9.76211,-26.39716 28.30051,-0.77901 36.50333,-28.2584 7.0799,38.78305 16.87259,-33.00137 24.19675,12.25 1.24338,-39.0246 18.74707,19.16245 18.93217,-25.9062 13.56202,-41.88864 18.43072,-93.47168 1.92777,-136.99665 -11.23001,-27.84067 -30.37569,-28.78107 -38.95929,-67.2463 2.48983,-32.02987 -23.12482,-45.17573 -35.21729,-77.06695 -21.2935,-16.88698 -33.44726,-99.26366 -52.38092,-49.82525 -25.03292,-15.17708 -46.94255,-43.51666 -68.72966,-11.95863 -22.1611,0.99308 -30.02369,-7.66289 -33.10234,-40.45247 -8.56955,33.44748 -22.24531,20.46748 -24.87273,16.86 -16.13365,32.32953 -51.82874,20.21034 -50.23261,68.52707 -2.55108,16.83895 -13.74086,101.84834 -23.53345,40.71051 5.777,28.37219 -10.33278,79.73448 -23.15137,24.7757 -7.12214,-36.39345 -36.67938,-59.49648 -62.72464,-85.5299 -23.48354,-22.11494 -42.50189,-3.90612 -65.4784,-20.59255 -12.5948,-21.43769 -18.54182,27.87894 -31.72005,-0.64708 -4.92635,26.77164 -31.06194,30.79312 -42.42295,29.90759 -1.17504,41.42692 -50.88352,42.08437 -53.19768,85.51438 -20.29301,29.2761 -22.83643,65.59045 -22.46578,106.0459 -6.15381,24.50385 1.67874,73.73082 -13.08141,68.40186 14.84484,24.13447 -12.81071,87.98526 17.45004,78.06697 26.95659,1.21944 19.71099,36.75525 39.64539,40.41215 20.26299,-4.6002 60.3041,8.9561 89.7115,1.7342 -1.80429,17.0758 44.29567,-3.7824 28.3515,22.0799 -4.03552,-4.5989 46.19045,36.176 48.12177,60.4216 -2.43019,-40.0605 19.36336,-89.7231 59.37967,-47.3492 -16.36115,-42.7093 -36.58527,-87.13755 -10.59084,-132.42735 -21.61347,-34.2126 -33.17247,-81.90787 -73.89324,-93.73288 -5.64905,-27.83074 -20.81542,-24.75391 -28.534,-46.25051 -18.41448,40.59699 -15.85784,-24.34461 -42.20367,16.76142 -23.92559,-1.08714 -84.29719,86.28905 -73.67959,77.3856 4.96636,-21.84418 -15.41387,40.6777 -16.91323,15.2378 -31.19498,38.68776 0.95135,-45.85749 23.37069,-49.4678 24.98425,-39.60828 56.54831,-70.21568 57.88476,-52.46971 4.92343,-19.84867 47.5669,-51.03849 54.01792,-31.26817 18.15302,-18.83254 11.19973,11.87182 27.98072,9.75788 29.4688,24.11446 49.90487,68.52204 68.35175,103.9206 22.47853,21.35975 19.6404,55.51374 26.39648,80.30457 -23.25398,-18.00973 3.23745,27.87333 3.21125,38.0479 -28.13092,8.27495 -13.9621,-68.36083 -28.24266,-12.81525 17.49685,9.92848 26.66612,34.3589 22.4848,43.1237 17.62888,18.8482 -18.64425,6.2625 10.19383,29.3108 17.37694,25.7285 -27.50079,11.6183 -23.71489,16.3523 -23.80515,-25.0209 -49.13356,-18.3555 -24.35055,15.3251 -16.1993,1.6891 1.36672,22.4202 -6.7099,33.7659 -25.31542,-22.4629 2.96169,5.0769 -0.94563,18.9533 -27.88743,-25.0001 5.02058,46.4974 19.6784,1.5473 7.59509,-9.6451 3.13752,-46.8285 28.66085,-29.2326 4.15978,22.9932 5.70048,63.4702 39.32246,56.9833 z M 405.22055,968.25625 c -39.74581,-7.07765 -81.76591,-21.09029 -109.17932,-50.74867 -13.66894,-37.60295 72.90917,-38.19804 102.38911,-44.28241 41.03277,-6.14508 89.70534,55.94732 67.61727,84.11628 -17.70659,12.32235 -40.17283,12.69922 -60.82706,10.9148 z m 16.9083,-18.779 c 20.68792,-33.80573 -13.42235,-89.753 -54.73096,-62.46247 -62.79162,27.34848 4.12256,81.55306 50.76568,64.12485 z m 25.7451,-0.3314 c 52.30585,7.26245 -44.92656,-105.75676 -11.84116,-36.07964 9.16559,19.10148 -29.05719,46.88984 11.84116,36.07964 z M 328.94062,923.33488 c 0.51164,-22.87774 46.496,-52.31959 -1.35455,-31.9128 -43.52203,5.29071 -26.87994,21.29844 1.35455,31.9128 z m 38.60699,-41.4182 c 2.47946,-3.93863 -7.32839,4.19295 0,0 z m 8.5,-2 c -4.60689,-2.86228 -7.03516,3.88662 0,0 z m 320.5,67.4065 c -32.77789,-3.75045 -74.45495,-25.48005 -29.09476,-51.97866 31.76941,-49.13405 94.28598,-56.57856 146.91253,-42.57855 72.96205,8.25119 -7.48664,56.75617 -32.71265,75.83085 -24.66547,15.61027 -56.1246,23.12081 -85.10512,18.72636 z m 7.7299,-13.2766 c 37.52872,1.29498 92.85722,-11.54375 62.98681,-61.94873 -16.91268,-34.62616 -84.8598,-5.64547 -81.46919,27.53822 1.34195,11.73346 0.21589,37.51999 18.48238,34.41051 z m -23.95703,-2.9684 c -4.29011,-21.91405 6.9714,-64.5774 -17.79546,-23.54662 -19.75741,13.13141 9.59847,19.02688 17.79546,23.54662 z m 108.17108,-19.1615 c 23.46137,-21.06966 47.86747,-35.64355 51.17457,-40 -29.97067,-14.00962 -86.19802,-29.00459 -60.92627,22.32444 4.36678,8.75369 -7.74844,30.7821 9.7517,17.67556 z m 38.05605,-21.6033 c -13.14856,5.35251 -0.27882,3.32062 0,0 z m 84.88643,246.42752 c -5.8322,-10.5794 4.32121,17.8127 0,0 z m -386.88643,2.9463 c -4.04785,0.01 -2.55788,4.0791 0,0 z m -99.2285,-10.3324 c -4.3386,3.334 -2.48184,5.8707 0,0 z m -25.78681,1.8118 c -1.0335,-6.9955 -4.1282,2.8634 0,0 z m 25.25465,-8 c 31.24591,-50.0403 -18.27766,10.8021 0,0 z m -17.27478,-11.6911 c -3.35787,0.8364 -4.35355,10.8391 0,0 z m 6.81202,0.3183 c -1.67282,-12.0982 -2.80335,16.6443 0,0 z m -216.64902,-0.6272 c 3.73369,-4.5661 -6.73499,5.4332 0,0 z m 717.64597,-1.0801 c 36.24484,-42.6816 24.35512,-108.2457 27.12313,-161.48729 -9.97222,-75.07115 7.84679,-150.99753 -4.10893,-225.68253 8.32055,38.74511 -37.15669,92.21024 -19.3908,116.7681 19.95997,-40.95912 -2.7726,37.80566 -6.5433,12.2319 -10.27574,8.65589 -18.11899,78.21516 -1.29785,61.99855 29.54206,19.68549 6.63495,70.95142 -19.16055,84.83242 15.66502,31.83945 -3.13677,93.45815 23.3783,111.33885 z m -485.77353,-12.2316 c -9.52728,0.4326 -5.38741,13.2575 0,0 z m 52.2,-1.1383 c -3.802,-2.0043 1.57562,7.579 0,0 z m -38.2,0.2 c -1.20936,-3.6562 -2.46629,3.5623 0,0 z m -20.03596,-7.691 c -2.80196,-8.3864 -9.72042,20.3911 0,0 z m 15.41826,-4.559 c -8.12119,-31.9772 -1.29579,14.507 0,0 z m 46.0926,-1.7094 c 0.11511,-18.417 -8.5904,11.5845 0,0 z m -52.50649,-13.2673 c -10.23195,-3.992 4.65868,10.4441 0,0 z m 105.53159,-1.7733 c -5.57544,-1.3722 0.40556,6.363 0,0 z m -135.5,-21.8776 c -4.48892,-12.2589 -8.67253,8.4644 0,0 z m -54,-8 c 4.57031,-25.553 -31.62442,8.1715 0,0 z m 15,0.4128 c -8.24866,-16.1276 -3.73611,9.3126 0,0 z m 527.51903,-3.7852 c -4.49231,-25.4602 0.50952,16.103 0,0 z m -283.40992,0.046 c 14.55238,-38.3722 -8.37403,10.7492 0,0 z m -384.98599,-9.2961 c 2.23075,-10.1739 -10.15372,20.4764 0,0 z m 4.37688,-11.5 c 5.11579,-7.1523 -7.46262,7.2725 0,0 z m 2.25026,-12.0124 c 33.27944,-26.02492 -26.86878,-17.75176 -9.22141,-56.38952 42.0749,-29.66234 -9.99041,-90.90456 -25.7173,-127.85999 -4.97271,25.2756 4.14996,82.81052 12.53226,118.85083 4.09912,10.73586 7.1509,78.81678 22.40645,65.39868 z m 8.81711,-5.90275 c 20.68768,-24.29406 -24.69357,23.75455 0,0 z m 644.18466,-5.5845 c -4.91305,-26.58341 -4.14397,29.29795 0,0 z m -250.77235,1.5395 c 5.43374,-36.74517 -7.37763,14.40355 0,0 z m 274.31425,-10.8875 c 25.14793,-14.08838 0.4802,-99.17112 -5.87915,-33.87801 -0.11377,6.51269 -14.39517,47.5969 5.87915,33.87801 z m -666.29645,-2.4023 c -2.36796,-33.41288 -23.67377,-48.96741 -7.83312,-5.3752 -0.23149,1.89031 4.99818,9.62151 7.83312,5.3752 z m 286.09454,-26.0318 c 4.03629,-17.99447 -8.33084,1.16495 0,0 z m 93.49784,-84.84757 c 7.66439,-32.3961 -15.16196,28.80148 0,0 z m -322.86746,-7.4816 c -16.5227,17.94462 0.1654,4.95208 0,0 z m -47.72358,-3.7615 c 2.48274,-43.88156 5.72102,-94.22751 20.48245,-135.6275 14.10472,9.59163 8.26625,-34.50463 22.06892,-33.75001 11.42319,-1.71108 29.06968,-31.26121 20.24851,-26.54306 3.40961,31.30101 13.54577,-63.39102 36.51484,-16.77361 -2.45914,-36.07397 21.09014,-3.86221 25.32822,-35.33543 17.80158,17.88091 34.80263,-13.17136 45.97946,2.63773 21.1962,-24.88434 41.4982,23.38437 56.79258,10.41055 9.45011,27.3981 46.23412,62.15119 28.41931,11.41508 23.08549,-12.99859 18.32783,68.05939 38.56026,63.99725 2.20009,5.49404 25.36538,-12.05945 23.67845,-0.9742 -1.18561,-40.35222 10.61008,-77.29825 33.5234,-100.71179 16.01186,-35.18502 16.61817,-8.9702 18.49479,-0.87252 -1.75711,-32.01123 11.83126,-18.98305 10.92942,-16 14.65626,-29.78086 10.78457,42.78246 21.53919,-7.33893 18.45518,-34.3215 6.72966,41.12256 30.87837,4.51635 1.99102,24.97825 11.93806,41.12583 18.61282,7.21796 11.02858,9.14614 20.90737,21.05929 30.02585,1.10462 10.38569,31.82116 32.05056,42.16524 36.26101,9.3282 24.57704,4.58873 32.62423,60.21408 54.98832,71.0013 19.32815,25.18079 20.08096,63.32437 34.7034,43.87995 0.86833,32.59393 21.16842,86.30169 41.20864,84.87006 10.29322,-12.33778 -3.91031,-88.60324 1.1371,-63.589 -23.32474,-26.10366 -34.49854,-73.56017 -70.33381,-96.54106 -24.08869,-2.36397 -67.56796,-100.83254 -29.1191,-48.8336 4.35948,29.64402 79.38253,84.76764 50.01347,27.84492 1.2599,-45.30012 -22.70144,-72.61835 -40.31219,-103.87855 16.07837,18.29877 39.31217,26.49013 39.63624,56.34521 11.88043,45.69017 10.93614,88.56004 31.01917,126.30195 23.41416,6.47207 24.38943,51.82192 19.19752,5.53967 19.40013,-35.12322 -9.82551,-40.00496 -9.8316,-81.29884 2.06867,-11.89632 -0.34328,-61.03371 -3.7386,-18.82953 -12.80432,37.59595 -18.82374,-40.8213 -23.80781,-53.67163 -6.74358,-26.18108 -2.25793,-52.84779 -18.82263,-28.94171 -11.73852,-33.04903 -18.95086,-89.07997 -23.79195,-32.64651 -24.79696,3.36875 -46.70575,-92.32995 -38.5692,-21.08028 -17.06014,27.25215 -34.39364,-79.94563 -34.66437,-33.84331 -4.05544,79.55761 -46.0612,-97.57724 -37.38954,-26.82069 2.38046,53.13849 -25.41902,-49.33108 -24.90219,-22.37689 -11.33363,60.57171 -40.73096,-91.76917 -36.87879,-15.81121 5.55257,37.78591 -25.18572,37.10922 -32.17026,2.05155 -1.15072,63.79901 -20.77601,-10.5387 -29.004,-34.17598 7.39854,23.84569 -24.42386,64.63529 -28.8707,21.88467 -16.78846,39.86451 -15.39099,-28.25376 -25.57877,14.26456 -16.3761,30.14495 -44.24225,18.15037 -35.38898,6.20487 -13.054,17.9804 -30.2356,75.15114 -32.91393,18.51737 -0.5851,-42.62046 -11.94813,96.21905 -20.85108,24.8089 -16.5065,-5.03405 -9.9737,-98.37385 -17.51476,-37.63518 -0.0221,34.72546 -19.87641,42.22578 -12.68669,0.18079 1.47129,-64.9882 -13.80473,41.51888 -33.26659,29.29048 -9.18877,-5.32758 -4.74171,-26.33759 -12.6856,9.64955 -4.67074,47.62938 -16.51011,10.60652 -17.67156,9.56643 -12.8291,25.77206 -19.68349,27.42708 -38.43539,37.85236 -0.42914,-29.92451 -21.2049,-12.0755 -12.81926,-14.38729 -0.46139,-67.65227 -8.87529,71.00628 -15.03642,6.01297 -14.61761,-61.50577 -25.65213,64.47307 -28.12946,87.41673 -10.96647,7.68264 -13.10217,18.18329 -22.18709,23.98793 -1.30501,-21.61948 0.009,-65.81598 -4.97732,-15.95083 3.19724,19.14056 -15.98763,71.61378 -11.11977,23.05121 5.26106,-22.90627 -1.06411,-83.70059 -11.40083,-28.62419 -1.37396,39.03375 10.3251,79.85877 -5.37039,113.10719 2.62839,30.7952 -14.93658,46.93244 -10.46449,5.01465 0.83383,-22.25861 -4.09927,-103.31791 -4.81249,-38.31589 -3.2091,52.28167 8.74512,102.72103 24.28126,151.87203 7.46819,27.31462 1.29954,20.0606 -10.24903,8.25138 6.32975,19.04071 15.56012,59.75013 24.88581,43.6219 17.13913,-5.22839 20.73519,51.40071 26.35786,28.1609 z m -7.5504,-185.39282 c -29.27768,-26.21324 36.37659,3.8958 11.40038,-34.0549 -3.85911,-29.94983 14.79532,-9.70032 7.06932,-38.39794 25.80379,16.80423 -1.78423,-16.34294 14.1589,-15.58624 19.64294,36.17246 -26.36981,40.75272 -11.77238,80.8519 -4.74572,7.09053 -13.14624,7.93506 -20.85622,7.18718 z m 656.70951,-1.23469 c 0.87513,-4.50741 0.87513,4.50741 0,0 z M 564.68693,597.82843 c -22.84754,-21.28398 -35.64142,-33.71489 -51.1286,-2.96548 -21.86538,-20.09779 -28.43463,-20.94635 -42.06023,4.05372 -15.34528,-20.57276 -19.96624,-25.28585 -34.38434,-22.32256 -24.08367,-20.3358 -16.22165,-38.2365 5.21939,-8.69613 9.844,-38.30152 33.7557,62.08134 41.83544,2.35862 20.52754,-3.58174 37.41059,37.66008 46.16626,-3.51746 18.20914,4.09012 50.89421,31.71658 54.9115,26.30495 -3.84514,6.81264 -13.85489,10.92005 -20.55942,4.78434 z M 666.85655,534.6446 c -23.3305,-13.25093 -28.02202,-54.94949 -4.84125,-17.10541 15.29964,19.919 -13.45069,-56.08656 21.59979,-16.41791 22.27003,20.49283 27.28058,22.25847 38.16322,-3.75902 35.11178,-1.63955 64.88168,52.3021 16.46288,12.48181 -32.05352,-28.49251 -6.69039,48.07541 -42.56504,10.52967 -17.12726,-14.67966 -30.94236,-24.95779 -18.14168,7.89176 -0.97567,3.04036 -6.3238,13.21936 -10.67792,6.3791 z m -367.53822,-5.22793 c -48.17588,-11.18362 50.45689,-12.6953 16.23214,-5.70527 -0.78368,-32.16818 27.45572,-76.33627 43.2406,-24.70807 22.77005,11.63154 17.61157,-81.45488 45.75784,-21.3693 3.69152,25.13557 -28.22456,-36.78209 -24.46722,4.1656 -6.54602,51.48477 -37.63282,8.71602 -48.65811,-2.13296 -7.29079,15.18804 -3.71091,65.75719 -32.10525,49.75 z m 260.4369,-31.17164 c -11.49134,-27.92612 -15.33959,-70.37347 10.6991,-52.45001 -13.23273,-34.25079 12.31424,-42.13735 33.16758,-16.59215 19.85523,-32.80197 -3.93821,33.57392 -22.16776,-5.40119 -11.30442,-8.47719 3.93794,60.85397 -24.91216,29.16882 -0.11619,5.23218 19.63314,65.86832 3.21324,45.27453 z m 72.88107,356.04275 c 8.35734,-15.24222 -11.72924,16.55184 0,0 z m 13.50201,-0.1138 c -7.16653,2.21265 0.62711,2.96835 0,0 z m -332.10198,-6.8804 c 3.12508,-7.3813 -6.2581,9.30295 0,0 z m 589.41161,-7.1859 c -0.59567,-10.13935 -2.72306,14.14417 0,0 z m -254.90292,-13.8922 c 12.07503,-16.7922 -21.43313,23.37444 0,0 z m -181.49741,3.7012 c -2.55494,-3.58745 -2.55494,3.58745 0,0 z m 203.5,-4 c 13.65324,-17.72079 -15.98173,17.8703 0,0 z m -338.6087,1.4227 c 0.63212,-4.77801 -6.35831,7.21073 0,0 z m 336.17161,-9.6727 c 9.52442,-9.83403 -11.38158,9.98766 0,0 z m -320.84989,-11.25 c 5.31383,-11.48789 -11.44049,17.74493 0,0 z m 106.28698,5.5818 c -1.13635,-9.82551 -6.14174,3.47168 0,0 z m 451.66233,-6.3318 c -1.75027,0.99942 1.6231,5.50682 0,0 z m -224.66233,-1.4002 c -11.41018,4.65275 -0.68144,2.6896 0,0 z m 24.29774,-5.3498 c 8.35908,-14.46724 -20.51571,25.03601 0,0 z m -330.21142,-1.2814 c 16.36042,-28.7606 -12.58619,5.07554 0,0 z m 313.35777,-7.6323 c 13.28903,-18.81204 -22.61666,23.30424 0,0 z m 35.22466,-6.4292 c 2.67001,-13.45382 -13.7458,21.19544 0,0 z m 70.45989,4.0271 c -8.49759,-5.66113 4.65077,8.65598 0,0 z m -413.12864,-9.5743 c -3.4887,-10.26679 -12.21489,24.50089 0,0 z m 328.65664,9.1401 c 9.80591,-12.48826 -9.51354,6.6161 0,0 z m -303.97353,-3.4375 c -1.92502,0.43374 1.43252,4.38341 0,0 z m 336.8259,-8.1137 c 6.20127,-15.2093 -17.09932,24.62972 0,0 z m -334.67898,0.3012 c -4.12616,4.87337 0.19785,7.93086 0,0 z m 314.29753,0.25 c 3.73369,-4.56611 -6.73499,5.43318 0,0 z m -8,-1 c 3.73369,-4.56611 -6.73499,5.43318 0,0 z m 21.41139,-0.293 c 4.03102,-6.16587 -6.89236,6.32102 0,0 z m 10.96147,-12.9577 c 4.68942,-13.60053 -22.20347,22.23126 0,0 z m 1.99958,-6.9993 c -1.20936,-3.65615 -2.46629,3.56228 0,0 z m 159.50003,-66.11804 c -3.4706,-1.72386 -1.65009,4.66873 0,0 z m -5,-57.94099 c -2.85903,-5.36115 -0.37558,6.53913 0,0 z"
       style="fill:#000000"
       id="path22" />
    <path
       id="path34"
       d="m 762.19048,1452.4762 c -0.59921,10.7857 -1.29573,21.5665 -1.79762,32.3571 -0.21271,4.5733 -0.0742,6.8937 0.89881,10.7857 0.29065,1.1627 -1.19842,3.5953 0,3.5953 0.36181,0 -0.17171,-18.8549 -0.89881,-20.6726 -0.49762,-1.2441 -1.59389,-2.271 -1.79762,-3.5953 -0.58575,-3.8073 -0.75372,-13.2215 0.89881,-17.0774 0.7917,-1.8472 2.54228,-3.3889 2.69643,-5.3928 0.16728,-2.1747 -0.98757,-4.2665 -1.79762,-6.2917 -0.22254,-0.5563 -0.16462,1.2215 0,1.7976 0.44324,1.5514 1.79762,2.8807 1.79762,4.4941 0,2.7622 -1.38788,5.3576 -1.79762,8.0893 -0.49089,3.2726 -0.48835,6.6032 -0.89881,9.8869 -0.18949,1.5159 -0.7468,2.9739 -0.89881,4.494 -0.52798,5.2798 0,10.8654 0,16.1786 0,2.0972 0,4.1944 0,6.2917 0,1.1984 0,2.3968 0,3.5952 0,0.2996 -0.2996,0.8988 0,0.8988 0.2996,0 0,-0.5992 0,-0.8988 0,-1.7976 0,-3.5952 0,-5.3929 0,-10.132 -0.56138,-20.4547 0,-30.5595 1.39084,-25.0351 -0.11811,13.4101 3.59524,-12.5833 0.38368,-2.6858 -1.28249,-5.4035 -0.89881,-8.0893 0.69562,-4.8693 1.97142,-4.494 0.89881,-4.494"
       style="fill:none;stroke:#000000;stroke-width:1px;stroke-linecap:butt;stroke-linejoin:miter;stroke-opacity:1" />
  </g>
</svg>
