<svg xmlns="http://www.w3.org/2000/svg" width="1073.159" height="1538.403"><path d="M576.947 74.959c-66.063.416-114.902 51.987-157.07 95.31-34.155 71.223 34.315-46.868 62.092-55.678 68.344-61.744 176.099-28.947 223.177 42.29 41.757 34.074 31.921 78.126-22.013 87.44-67.62 29.172-123.737 102.7-168.651 140.658-23.97-35.472 12.164-87.8-5.597-132.845-.65-42.903 14.186-92.129 55.949-111.753-79.888 34.403-60.089 132.544-59.31 201.044-31.23 5.353-50.56-54.971-87.956-63.375-25.41-19.687-12.826-60.625-38.336-21.525-79.342-20.573-171.74-29.47-243.607 19.414-63.534 40.533-87.99 117.01-117.443 182.11-28.702 44.947-29.727 177.474 50.921 130.013 54.312-39.8-9.305-90.462-21.824-115.263 56.672-51.531 126.415 8.481 151.308 62.865 36.845 48.952 44.653 116.163 23.915 170.708-5.97 59.588 23.992 126.79-34.264 158.956-12.667 71.159 51.228 132.734 27.58 205.005-22.259 78.313 75.083 91.412 79.796 163.707 7.997 26.08 81.489 84.19 23.386 38.46 20.222 60.377 120.295 63.113 111.44 138.292 10.344 35.31-14.73 128.64-22.914 130.132 33.04-38.987-14.993 45.126 18.43-11.055-6.968-66.993 65.633 34.494 15.926-7.409-15.046 21.93 88.312 42.465 26.402 4.858-26.796-17.582-46.411-92.723-5.275-34.613 77.641 45.018-55.282-49.045-12.23-45.011 8.446 27.118 77.742 39.994 21.44 10.676-32.507-15.11-46.499-86.814-2.121-33.218 87.087 55.908-89.323-69.091-2.116-44.78 47.971 42.917 111.079 27.567 165.668 8.343 81.678-30.662 35.218 108.54 69.242 149.356 7.363 27.486 68.818 70.986 4.173 67.007-71.313 12.886-143.765-17.808-217.024-11.884-26.023-11.003-139.015 33.381-98.02-20.514-23.402 15.581-56.2 40.339-4.074 32.058 60.806-11.566 120.33-1.35 181.143-2.695 63.822 18.84 123.825 7.683 186.457 10.807 18.217-16.979-54.931-58.02-48.022-96.08-11.13-49.383-39.227-124.263 9.953-159.728 30.606-4.294 121.558-88.42 56.118-36.004-30.92 25.351-56.261 33.26-14.864-2.238 54.242-56.34 82.92-132.598 106.963-205.788-4.648-73.479 59.599 45.796 70.412-25.238.717-70.925-25.065-143.162 16.097-209.598 21.9-29.323 24.304-118.945-27.016-97.967 70.29-6.94 14.318 150.801 15.336 58.005-.37-34.519-51.012-14.05-7.757-5.978 18.728 68.765-29.986 137.283-5.969 206.479 30.24 57.379-57.048 67.995-44.275 6.364 20.467-73.012 24.338-116.495 25.258-200.286.857-63.202 1.154-112.177-.5-182.16-43.65-69.314-66.753-163.374-31.117-241.678 28.366-60.159 155.734 17.837 111.562 54.877-71.424 35.62-29.062 156.164 47.373 107.796 61.954-33.215 41.286-97.78-7.047-126.867-16.043-67.25-22.96-143.855-81.889-190.631-49.65-50.38-115.776-79.337-185.473-58.208-47.808-26.712-62.01-102.56-124.869-118.828-18.496-8.33-38.377-14.565-58.874-14.135M916.79 782.273l8.399-2.064zm-9.836 180.344 3.498-7.168zm3.498-7.168c22.442-15.814.491-74.768 4.124-22.65l-1.244 11.504zm-518.43 617.23c26.523-26.17 23.249-26.773 0 0m4.247-1338.767c10.91-24.334 13.947-61.32 0 0m235.982-85.69c-56.393 8.388-45.232 123.32-24.584 119.79-2.97-39.81-29.966-102.403 24.584-119.79m-50.322 17.143c-55.44 26.651-52.623 108.66-25.4 155.45 1.781-30.703-37.588-127.866 25.4-155.45m219.13 41.705c118.93 5.789 213.508 121.411 213.524 237.498-18.022-4.231-103.477-98.968-141.304-24.798-27.138 49.864-22.78 138.807-25.166 142.878-68.058-44.702-165.117-80.157-237.055-23.44-38.035 21.886-59.308 93.438-64.22 104.575-11.681-83.645-16.091-169.196-16.947-253.174 26.956-65.157 93.102-105.29 150.378-141.854 37.293-20.539 77.899-38.437 120.79-41.685m-539.132 38.477c96.149.226 202.933 42.135 242.116 136.097 32.503 64.091 26.588 152.614 23.248 216.068-47.95-27.553-125.694-11.833-128.499-90.071-34.637-66.789-101.823-114.999-175.773-127.489-28.577-9.474-125.986 20.93-45.15 6.824 98.988-7.158 194.515 63.392 228.298 154.003-11.502 52.6-106.418 32.488-132.584 90.105-50.69 85.844-19.196-40.992-54.411-75.038-26.537-57.054-79.26-135.501-152.37-98.851-29.157 17.669-57.302 37.505-39.09-11.858C59.1 380.96 82.59 301.18 153.23 269.323c33.652-16.528 71.375-23.584 108.695-23.776m541.699 70.148c-64.056 11.143-120.96 55.644-162.904 104.894-33.93 41.682-65.445 105.274-67.119 151.66 15.27-46.98 30.325-99.884 62.28-140.972 37.88-51.716 93.879-93.76 156.517-108.204 34.557-18.533 131.778 61.194 68.686 5.994-17.826-8.655-37.657-13.236-57.46-13.372m-547.012 12.733c-52.33-.734-104.055 22.108-137.95 62.136 83.201-93.257 253.728-64.748 308.506 45.548 35.419 31.354 17.259 135.339 25.457 122.262 39.874-62.71-21.784-140.914-67.296-185.631-35.987-29.21-82.545-44.389-128.717-44.315m-137.95 62.136-5.421 5.162zm717.741-27.21C759.91 382.95 682.648 430.978 656.432 509.25c34.084-76.462 108.542-136.16 193.6-140.351 22.247-2.919-12.615-5.84-13.628-5.545m21.88 27.21c-54.901 4.872-114.797 73.689-109.696 117.145 3.898-58.792 80.27-116.929 109.695-117.145m-707.745 24.297c39.302 27.772 132.178 71.813 159.466 138.777 45.233 70.152-4.913-41.154-30.971-56.064-35.11-36.354-78.743-70.707-128.495-82.713m853.94 63.725c41.518 16.846 64.765 88.332 46.03 81.312-28.161 53.463-104.517-1.706-72.742-52.232 4.683-11.926 12.077-28.087 26.711-29.08m29.833 97.66c6.936-2.37 20.72-25.717 0 0m-3.634-97.3c3.27 1.041-3.23 3.093 0 0m-50.3 8.286c-9.286 20.988-25.392 77.343-14.69 25.164 4.07-8.816 8.33-17.712 14.69-25.164m-952.663.13C85 492.344 17.559 510.688 7.412 506.027c4.512-7.305 10.266-17.903 20.303-18.667m1020.904 6.497c23.695 31.18.406 31.858 0 0m15.477 7.15c21.83 22.307-19.082 83.456.771 26.393.024-8.568-4.665-17.946-.771-26.392M30.113 502.509c60.25 12.423 63.593 86.787 25.778 87.531-43.234 14.148-68.056-77.602-25.778-87.531m41.588 77.445c11.79-14.433 10.409-18.812 0 0m623.168-64.3c62.708 5.345 139.442 27.722 171.009 86.234-46.516-30.86-116.975-49.886-176.52-27.761-59.28 18.529-116.672 61.288-130.311 124.874-10.236-68.156 13.14-149.113 84.407-173.41 16.226-6.8 33.867-9.87 51.415-9.938m261.447 27.765c14.862 15.684.099 23.533 0 0m-208.134 26.508c84.459-2.218 99.671 98.148 117.844 160.854 13.147 36.648-13.714 94.423 28.163 102.232 5.779 45.63-24.663 99.72-19.692 139.082 13.714-29.417 26.323-155.06 26.05-64.464-9.285 47.208-25.756 100.638-32.714 162.352-8.963 72.506-49.474 137.55-89.546 197.133-23.58 47.073-99.352 93.688-113.096 109.437-71.215 20.573-153.32 32.217-217.644-14-65.89-30.35-110.906-91.582-151.318-149.565-23.13-46.397-36.774-78.818-24.268-87.695-18.117-55.107 4.87-37.562-.316-28.555-7.297-64.866-13.01-130.269-21.954-195.406 10.584-62.495-4.457-130.406 25.733-193.56 10.964-71.09 83.004-92.12 145.715-83.406 74.55-8.955 113.57 88.621 143.098 117.633-7.225-63.194 28.843-126.923 89.862-150.495 29.336-13.697 61.682-21.32 94.083-21.577m-350.6 5.053c64.056-4.117 144.602 14.78 146.423 93.295 7.4 28.817 12.55 66.434-8.511 20.529-33.26-75.215-135.305-84.407-204.325-58.748-35.333 3.21-113.351 93.557-69.718 17.132 34.415-39.514 80.823-75.275 136.131-72.208m636.37 6.535c-1.925 3.8-15.739 2.813 0 0m-184.784 25.011c25.722 13.53 15.099 26.746 0 0m21.39 34.407c25.922 24.787 32.49 105.069 11.231 31.08-3.987-10.197-10.367-19.917-11.23-31.08m-576.878 9.56c-7.575 30.411-39.815 62.275-32.677 38.136-22.58 26.065-27.753 143.057-25.874 55.726 3.432-37.932 24.452-75.653 58.55-93.862m559.19 1.07c10.008 11.363 6.139 17.343 0 0m17.562 34.147c12.722 31.785 9.867 74.85 2.374 18.714l-2.134-13.475zm-598.834 9.168c-6.602 25.728-19.074 19.742 0 0m-8.653 21.863c-6.655 26.32-9.477 20.135 0 0m-28.252 3.53-.066 2.951zm321.51 4.884c6.28 6.252.276 13.173 0 0m159.219 17.387c-48.555 22.676-89.554 43-127.102 83.444-38.71 53.108 47.944 112.746 11.04 170.904 5.939 13.056 29.365-57.576 6.6-81.025-24.354-43.635-30.947-90.012 27.635-111.57 9.032-3.412 87.532-71.15 125.342-19.28 18.516 12.615 87.69 84.9 87.029 42.66-47.92-22.446-71.402-84.108-130.544-85.133m183.72.51c5.775 30.135-21.218 25.75 0 0m-184.287 7.408c3.386 2.338-4.13 2.609 0 0m4.756 1.246c-.145 7.398-9.852 9.193 0 0m-16.052.584c4.179 17.565-13.605 21.222 0 0m-13.881 6.656c3.27 1.042-3.23 3.094 0 0m-285.955 2.637c-56.283 8.184-120.775 55.168-136.42 104.317 51.143-21.731 111.734-124.408 170.686-61.03 29.32 47.024 99.924 74.219 60.03 130.09-5.418 28.092 18.518 94.5-21.345 45.695-52.298-10.799-93.391 116.79-39.048 108.319 49.585-78.842 83.329 108.64 138.13 29.9 12.378-49.41 51.37-42.927 80.006-18.923 44.215-48.384-34.01-142.866-56.296-87.76 57.287-45.06 67.413 126.249 20.919 35.317-47.087 4.576-45.43 125.467-101.934 59.25-15.624-54.886-61.124-95.627-83.937-25.194-30.318-32.016 12.58-137.612 51.378-68.892 51.399 4.77 4.636-95.492 33.818-131.337-18.65-34.262-69.615-104.107-115.987-119.752m285.115 3.938c2.309 1.141-3.36 4.024 0 0m-8.035.326c-4.245 10.142-9.618 2.967 0 0m217.922 5.922-.015 5.981zm-235.788 2.252c-.282 2.09-6.578 3.813 0 0m-6.164 7.931c-.256 2.956-10.059 7.664 0 0m4.164.069c-.282 2.09-6.578 3.813 0 0m-21.046.812c-2.367 16.715-18.154 11.979 0 0m-285.893 2.1c9.22 5.807-5.732 5.52 0 0M361 790.43l-4.016 2.135zm517.523 3.656c4.957 39.233-5.74 29.173 0 0m-242.586 1.934c-.282 2.09-6.578 3.813 0 0m-395.386 1.792c9.267 29.399-12.833 47.462 0 0m373.66 6.596c-6.58 18.49-11.817 3.526 0 0m-293.623.59c5.131 4.363-5.637 4.793 0 0m9.502 2.725c-1.823 10.223-17.126 8.938 0 0m400.17 8.582c-37.595 6.741 58.842 1.197 37.949 42.202 8.163 63.489-79.045 68.316-76.11 4.483-25.074 84.627 111.018 55.713 85.248-18.813-1.7-22.25-29.344-27.209-47.087-27.872M692.1 862.99c14.722-22.25 8.433-24.826 0 0m9.855-17.306c43.798-32.063 55.179 55.417 13.906 24.486 17.61-16.11 27.919-28.677-1.57-12.918 22.467 82.472 59.88-60.206-6.626-17.562zm-390.734-22.86c3.634 3.762-6.886 3.84 0 0m-66.282 6.192c9.617 9.61-6.912 19.208 0 0m53.647.205c10.912 5.517-3.115 6.256 0 0m67.504.763c-33.218 1.153-69.204 46.353-20.933 9.191 83.292-36.543 106.441 128.768 16.46 97.372-69.551-22.111 8.68-123.19 29.01-52.93-12.275 48.33-50.212-2.767-23.508-10.907-57.38 28.59 37.518 59.562 32.92 3.709-43.323-77.656-117.612 62.606-35.277 70.87 53.472 7.656 90.648-76.553 38.735-105.555-10.91-7.532-24.103-11.916-37.407-11.75m-70.787 11.28c-7.306 9.79-18.23 11.869 0 0m-85.403.05c56.547 23.332-36.62 78.013 9.54 120.187-16.526-33.776 6.529-116.107 22.162-37.112 9.395 33.595-19.423 98.002-30.144 33.276-14.258-35.293-33.912-84.883-1.558-116.35m64.47 12.98c7.675 5.231-3.563 6.964 0 0m538.206 27.948c-18.042 20.577-16.1 21.544 0 0m-13.006 15.813c-37.968 56.525-124.383 28.852-156.373 26.92 73.274 20.554 99.608 86.843 98.305 160.155 22.048 50.357 1.257-55.566 6.026-77.159 3.017-41.697 26.621-78.153 52.042-109.916m-152.716 22.931c5.395.67-3.457 3.296 0 0m124.203.942c1.264 3.658-9.264 5.19 0 0m-328.496 3.71c-33.604 47.366-110.142 11.652-137.061 28.366 58.95 26.727 36.573 124.408 65.252 154.792-1.33-62.046-4.416-142.047 63.327-172.463l5.39-6.21zm325.232 1.173c.002 26.81-34.086 54.936-25.953 87.374-28.028-48.327-43.547-83.506 25.953-87.374m-337.947 10.953c-12.119 15.463-22.444 14.274 0 0m-26.344 16.841c3.897.64-5.236 2.5 0 0m-17.324 2.204c4.43-.196-1.31 2.377 0 0m5 0c4.43-.196-1.31 2.377 0 0m-10.344 7.896c9.93 14.509-22.263 62.55-17.576 81.932-17.032-30.707-47.491-95.261 17.576-81.932m-144.61 17.01c27.365 21.433 6.577 92.565-.96 28.785 1.194-8.089-5.805-21.767.96-28.785m665.706 28.33-2.93 2.578Zm-673.817 7.625c19.067 35.314 38.553 108.375 21.668 129.89-45.355-23.57-26.206-89.919-21.668-129.89m653.026 3.25c-5.172 46.856-11.06 42.86 0 0m-622.377 52.525c4.81 1.919-3.845 3.26 0 0m661.006 18.057c9.109 14.03-27.73 5.895 0 0m6.685 1.266c6.999 9.219-11.696 17.906 0 0m-199.459 29.05c-9.18 5.473 15.426 2.542 0 0m-169.824 8.397c.914 4.232-6.977 4.69 0 0m274.715 58.879c-17.34 39.126-73.071 146.871-79.955 129.513 24.91-44.217 56.18-84.61 79.955-129.513m-228.719 54.238c-3.595-.988-2.299 5.98 0 0m.393 16.244c-12.674 2.209 2.68 7.538 0 0m-32.768 13.762c-32.593-3.5-81.688 26.71-19.67 8.132 27.312-8.494 99.053 19.756 37.803-6.683l-8.816-1.033zm-55.68 16.283-.394.455zm228.319 24.203c-15.78 21.673-51.04 47.534-11.65 10.486l6.462-6.191zm5.779 1.522c-23.609 41.274-36.298 25.816 0 0m-21.477 30.498c-17.2 19.006-36.536 18.609 0 0m-29.298 7.045c-1.055 4.008-12.896 7.788 0 0m-265.758 181.713c-14.94 33.29 72.928 46.167 17.377 19.82-5.109-7.01-9.033-15.865-17.377-19.82m-7.914 10.189c-8.237 34.705 68.276 42.131 12.059 11.647l-5.029-6.827zm-17.242 23.418c-7.583 24.822 79.865 20.294 17.64 6.151l-7.256-3.538z" style="fill:#000" transform="translate(-.414 -74.938)"/><path d="M748.416 569.498c-78.993 3.071-169.856 46.791-183.179 132.375 8.732 31.75-6.622 63.498-22.316 16.816-29.681-75.213-113.41-113.909-190.314-90.18-76.745 17.687-91.057 105.85-97.309 172.059-5.712 42.147 10.84 64.215 39.38 20.76 39.569-32.68 103.643-94.084 154.275-34.597 26.843 51.123 99.541 82.986 58.47 145.513 7.808 34.267 8.84 121.573-39.9 60.937-52.014-16.497-52.44 149.066-9.017 53.938 42.56-41.662 65.93 140.56 113.788 58.105 9.666-49.226 55.344-70.607 76.88-30.843 8.53-44.45-19.568-72.317-51.59-69.576 40.055-59.084-36.065-109.009-17.461-166.546 42.397-50.847 127.723-129.466 192.844-71.587 14.437 19.825 120.721 86.877 47.979 70.616-48.612-49.28-126.083-104.99-184.005-31.37-87.685 22.337-22.057 96.212-21.243 153.647 2.935 25.151-19.773 45.992 17.408 36.397 45.148 14.35 49.726 154.668-10.019 87.669-40.07-20.07-46.353 89.1-101.454 42.464-32.25-22.3-47.406-99.368-85.196-32.115-66.023-1.541 6.224-164.363 60.114-95.365-.685-61.693 31.57-131.457-38.682-169.002-32.977-65.797-103.62-46.124-142.656 1.091-26.214 35.476-87.05 31.665-59.817 90.548-4.215 49.113 31.843 201.375 13.67 178.705-20.647-26.306 22.235 43.568-.775 40.957 17.869 80.888 79.452 144.125 139.564 197.052 53.12 36.861 116.343 66.692 182.451 53.82 110.718-10.345 186.535-109.68 233.974-201.486 35.304-57.374 42.505-121.741 55.122-186.054-2.319-46.434 35.246-92.172 16.764-125.39-3.245 26.9-27.57 139.726-20.42 58.53 9.329-40.082 35.252-100.17-3.744-119.04 1.591-71.897-15.271-141.344-47.265-204.92-14.03-28.362-45.055-45.04-76.321-43.928M496.551 998.615c-4.419 22.555 9.68 12.503 0 0M737.648 812.84c68.655 12.173 36.822 131.075-30.593 101.486-55.876-33.574 25.783-130.03 45.025-54.528-13.551 53.512-69.079-3.386-21.144-20.108-88.799 5.083 10.124 123.91 32.423 42.035 25.961-45.096-38.407-69.524-46.173-62.278l7.126-3.769zm-362.191 15.55c84.608 2.61 53.073 156.543-26.62 112.51-70.135-35.083 28.347-138.156 47.377-51.56-.258 40.097-80.48 11.249-37.35-11.736-7.353 59.9 71.137-12.98 7.64-15.827-93.39 23.531 50.275 138.865 54.612 35.333 7.22-60.452-71.866-74.462-97.81-42.494 14.533-12.866 31.486-27.154 52.151-26.225m-3.92 45.204-10.283 2.99zm438.12 12.87c-46.18 48.12-71.028 112.142-58.532 179.055 9.686 52.185-11.599 30.606-14.35-7.584-7.33-49.017-9.328-118.565-74.972-118.41-51.89-44.973 49.114 11.72 76.204-7.66 29.491-4.921 52.554-23.616 71.65-45.4m-368.977 40.45c-49.57 36.114-80.6 89.586-67.439 152.089-6.681 83.913-22.82-46.359-29.179-70.31-2.004-41.17-82.794-72.373-6.768-60.285 36.843 7.337 74.607 5.69 103.386-21.494m276.23 188.379c14.05 13.398 35.088 6.81 46.434 16.53 23.658 36.358-33.354 55.712-59.006 79.33-20.622 5.797-83.7 88.696-102.24 49.486-29.136 11.112 12.007-29.874-24.846-7.111-13.556-22.022-90.649 37.973-57.861.303-30.453 9.014-76.833 11.754-51.108-23.147-31.073 18.037-55.617 16.328-38.716-7.618 21.164-13.058-90.35 34.954-34.396-17.286 18.044-35.57-97.986 38.347-34.71-14.595 12.62-1.904 53.913-42.75 19.055-18.022-17.723-25.218 97.503-71.144 44.888-16.32 13.657 13.47 30.327-24.27 42.022-9.3 49.753-17.001-39.767 45.334 15.857 18.503 19.249 3.594 55.618-33.097 51.166-7.479 29.32-21.911 82.713-23.703 89.74-3.902 21.095-4.497 68.117-23.947 94.487-37.75l.017-.016-.783-1.608zm-40.34 21.164c-14.903 5.875 26.253-1.108 0 0m86.573 17.072c-.92-.102.277.704 0 0m-70.99 2.58c-19.354 3.457-80.014 16.912-63.5 18.99 7.534-4.34 16.613 20.075 40.81-5.25 11.685-.295 33.343 1.09 22.69-13.74m-156.21 2.328c-.885.325 1.802.01 0 0m-118.806 42.854c-53.172 34.77 23.731 11.588 0 0m20.322 9.252c-1.285-.1-.018 2.383 0 0m136.584 62.959c29.72-7.6 64.12 26.931 12.742 11.849-23.37-20.06-109.336 19.635-46.475-8.268 11.076-2.38 22.408-3.518 33.733-3.581" style="fill:#fff;stroke-width:1.20159" transform="translate(-.414 -74.938)"/><path d="M743.719 571.03c-82.946.852-181.24 57.14-178.71 149.764-17.603 50.89-49.772-87.461-96.625-86.493-72.183-22.243-177.64-15.698-193.345 75.515-15.526 34.643-35.551 135.237-4.94 135.633 48.044-36.506 93.684-107.991 162.469-73.535 31.354 36.571 73.444 78.16 87.666 115.79-30.6 35.923 12.045 108.369-23.047 128.14-25.959-29.701-61.131-34.676-66.234 15.458-16.726 26.178 2.12 78.05 20.502 25.814 44.88-64.514 50.057 71.23 101.686 72.081 24.346-38.872 60.996-111.52 96.068-55.024 7.166-42.72-16.123-76.405-55.52-67.995 53.73-66.495-69.62-142.642 11.155-199.973 55.076-43.208 138.797-98.942 192.383-18.385 9.847 16.77 83.408 53.967 28.457 51.12-54.047-58.819-135.788-100.476-199.301-29.16-78.005 30.715-.931 104.743-10.674 161.66-17.194 34.075 56.717 31.322 51.135 81.328 11.697 48.26-20.739 65.056-54.042 25.88-24.112 25.537-64.819 91.202-107.317 34.38-14.627-42.423-41.717-62.783-72.144-18.374-57.47-17.334 6.683-153.606 59.755-100.828-1.746-53.909 41.273-108.968-18.602-147.079-33.814-58.156-97.174-82.932-145.594-29.528-29.478 45.407-104.06 42.651-72.725 111.196-.994 61.764 18.257 121.818 17.012 183.562-27.923-58.251 10.954 23.155-3.674 34.886 20.641 79.672 81.636 142.616 142.556 194.571 52.608 34.355 114.588 64.9 179.207 50.259 115.599-11.088 189.792-116.356 238.038-211.729 35.363-56.14 35.682-118.016 51.036-179.524.462-43.717 30.38-89.426 16.405-120.95-6.926 33.332-28.774 142.266-19.06 52.515 12.327-48.58 28.784-96.605-8.233-124.53 8.336-76.559-21.872-148.268-59.455-213.049-9.122-22.51-45.685-21.779-66.288-23.397M493.096 993.825c-8.94 26.687 18.764 13.815 0 0m244.6-180.994c52.045 8.108 51.227 97.395-2.464 104.48-99.848 17.995-4.924-156.517 15.36-51.03-22.94 46.698-59.945-14.933-19.716-26.525-88.674 5.064 9.991 123.735 32.476 42.043 26.19-44.933-38.499-69.956-46.121-62.669l7.129-3.659zm-362.77 15.295c67.504 3.61 69.763 122.963-2.728 120.48-107.794 2.683 13.17-166.94 25.052-53.148-18.339 54.835-77.279-35.221-21.72-20.342-57.203 13.76 52.052 47.456 5.832-5.86-82.788-35.321-28.74 136.923 30.597 53.152 35.953-56.306-43.001-118.715-89.321-66.792 15.663-11.964 30.964-27.949 52.288-27.49m434.097 58.932c-45.704 48.118-70.34 111.814-57.898 178.467 9.485 52.475-11.422 30.323-14.314-7.826-7.58-48.733-9.255-118.41-74.792-117.988-52.214-47.402 79.499 24.78 107.946-19.4 16.162-7.235 25.49-22.688 39.058-33.253M440.256 926.64c-46.497 37.413-81.155 87.323-67.032 150.336-5.814 87.356-22.888-42.822-29.152-68.285-1.692-40.97-82.836-72.227-7.201-60.343 36.917 7.016 74.988 6.436 103.385-21.708m276.654 188.652c14.041 13.4 35.089 6.808 46.434 16.53 23.658 36.358-33.354 55.713-59.006 79.33-20.612 5.803-83.749 88.708-102.23 49.48-29.163 11.125 12.03-29.882-24.856-7.105-13.556-22.022-90.649 37.973-57.861.303-30.453 9.014-76.833 11.754-51.108-23.147-31.064 18.033-55.622 16.331-38.716-7.618 21.164-13.058-90.35 34.954-34.396-17.286 18.044-35.57-97.985 38.347-34.71-14.595 12.62-1.904 53.913-42.75 19.055-18.022-16.355-27.193 100.164-71.208 43.078-13.293 17.134 2.591 43.02-25.297 57.125-13.047 14.843 10.183-49.483 37.33 2.564 19.223 19.249 3.594 55.618-33.097 51.166-7.479 29.32-21.911 82.713-23.703 89.74-3.902 21.095-4.497 68.117-23.947 94.487-37.75l.018-.016-.784-1.607zm-40.34 21.164c-14.903 5.875 26.253-1.107 0 0m86.573 17.072c-.92-.102.277.704 0 0m-70.99 2.58c-19.354 3.457-80.014 16.912-63.5 18.99 8.09-3.951 15.508 20.929 40.81-5.25 11.685-.294 33.343 1.09 22.69-13.74m-156.21 2.329c-.885.324 1.802.01 0 0m-118.806 42.853c-53.172 34.77 23.731 11.588 0 0m20.322 9.252c-1.286-.1-.018 2.383 0 0m133.26 62.248c36.23-1.64 71.656 26.821 14.64 11.564-26.52-20.54-110.918 31.352-49.616-6.015 11.15-4.128 23.123-5.747 34.976-5.549" style="fill:#fff;stroke-width:1.20159" transform="translate(-.414 -74.938)"/><path d="M895.975 1086.067c-46.095-60.26 37.732-125.298 19.122-178.45 4.29 38.955-26.123 87.02-8.326 22.848-6.236-26.105-2.065-139.45 27.445-83.266.2 77.535-23.831 154.19-6.385 231.702-5.417 12.584-21.538 9.783-31.856 7.166m5.802-75.321c-2.2-6.073-4.397 11.174 0 0M249.692 1148.247c-37.438-27.487-17.192-90.759-20.305-122.737 15.113 37.643 36.185 82.4 20.305 122.737M657.415 1609.743c-63.151-17.998-130.428-15.06-195.283-18.05-27.771 13.96-122.156-.136-59.989-18.014 29.027 16.586 63.956 14.792 15.483 1.079-25.964-62.503 32.531 31.75 52.304-9.658-21.498-17.608-60.81-30.587-33.66-65.065 11.951 13.825 29.239 44.36-2.308 20.8 11.883 36.128 95.183 35.563 29.615 3.103-21.011-17.328-35.708-84.23-1.76-31.292 70.037 47-72.715-92.493-4.088-31.628 32.593 20.54 56.925 13.809 10.52-4.446-28.92-19.672-34.816-82.13 2.3-28.433 22.876 25.678 50.498 7.48 6.95-5.388-31.068-11.593-50.377-75.418-1.815-36.521 59.662 49.275 138.049-1.04 200.159-2.909 13.784 54.085-1.764 116.789 35.513 165.193 21.83 33.763 37.886 61.157-14.176 58.344-12.457 4.552-26.98 9.627-39.765 2.885" style="fill:#fff;stroke-width:1.20159" transform="translate(-.414 -74.938)"/><path d="M540.928 697.05c-36.992-91.64-161.915-97.313-238.313-55.495-24.892 10.227-79.612 73.1-44.944 14.745 50.732-86.077 178.965-106.005 258.35-50.621 20.475-1.25 48.366 144.008 24.907 91.37M557.932 682.525c-10.122-80.604 48.16-172.083 136.359-166.253 54.885-1.469 164.3 44.045 162.788 84.744-53.714-48.563-131.336-45.028-194.369-17.56-48.576 19.424-90.522 61.284-103.854 108.176Z" style="fill:#ff0;stroke-width:1.20159" transform="translate(-.414 -74.938)"/><path d="M546.963 641.017c-9.583-85.086-19.55-172.58-13.562-257.568 38.279-73.852 117.13-119.247 189.638-154.894 83.319-47.942 181.606-4.436 236.592 65.299 33.82 42.015 60.758 110.257 50.096 158.99-27.905-77.532-159.719-78.081-153.896 17.145-17.263 26.644 23.34 127.179-35.675 76.03-68.904-45.303-164.083-52.272-227.5 6.675-24.037-18.77 28.492-100.18 52.47-131.504 41.282-51.548 101.553-90.399 165.889-102.524 21.255 2.608 108.812 61.997 57.934 12.923-73.317-42.554-153.189 14.175-206.533 63.663-50.381 49.515-85.298 122.076-92.125 188.281-5.023 11.053-14.772 67.657-23.328 57.484M660.07 510.044c28.798-83.08 113.067-133.476 197.09-143.354-57.602-9.025-120.496 35.742-163.006 76.962-15.963 15.7-39.291 54.657-34.084 66.392m89.211-1.436c-15.868-60.107 128.426-129.931 103.364-119.757-48.948 16.54-108.079 62.733-103.364 119.757" style="fill:red;stroke-width:1.20159" transform="translate(-.414 -74.938)"/><path d="M243.979 661.745c.24-75.931-38.13-151.062-93.829-201.119-62.146-20.396-125.192 2.89-123.785 11.879C36.467 401.28 76.039 330.353 130.79 283.858c93.479-61.471 223.888-43.08 312.036 19.076 63.927 51.02 87.61 129.255 85.431 208.011 2.323 33.978 17.038 122.492-35.944 67.929-84.31 12.987-83.438-72.623-126.058-118.648-51.156-62.943-143.623-96.878-221.778-71.48-5.08 11.185 75.03-12.926 102.697 6.15 70.77 20.623 133.549 78.049 158.583 147.089-21.04 50.21-115.18 36.686-142.26 99.14-4.477-.665-24.51 41.926-19.518 20.62m87.418-83.716c-31.421-76.056-98.736-137.492-176.974-162.943-7.158 14.416 77.59 36.807 96.024 67.247 34.571 23.26 53.676 76.225 79.854 96.52zm124.265-21.123c33.882-69.77-25.545-143.118-74.872-188.392-78.78-60.786-209.604-54.398-269.402 30.161 70.197-83.59 207.396-81.712 282.815-6.571 36.23 43.136 88.234 113.727 50.445 168.689 4.181.25 7.462-2.166 11.014-3.887" style="fill:#00f;stroke-width:1.20159" transform="translate(-.414 -74.938)"/><path d="M513.47 380.361c-13.358-48.695 8.248-102.958-4.646-154.101.809-33.292 74.713-116.834 17.63-57.499-45.597 49.241-4.403 130.807-31.901 176.909-19.918-57.628-122.227-62.368-90.093-133.853C440.87 137.013 521.448 59.67 611.454 88.347c53.381 18.141 127.377 80.745 116.025 133.409-77.11 30.864-142.628 86.5-197 148.001-1.279 7.538-10.022 30.223-17.009 10.604m51.288-57.85c-35.105-46.217-11.598-146.73 9.94-154.495-48.604 26.39-47.232 131.355-9.94 154.494m48.14-44.01c-31.594-33.627.959-135.05 7.175-125.645-38.755 22.296-38.92 108.292-7.176 125.646" style="fill:green;stroke-width:1.20159" transform="translate(-.414 -74.938)"/><path d="M32.587 586.252c-63.83-33.766 15.226-133.828 44.874-48.86 10.924 24.899-16.55 66.364-44.874 48.86M1006.19 580.73c-71.837-18.553-9.304-151.448 36.537-76.58 21.383 23.894 2.65 88.265-36.537 76.58" style="fill:#ff0;stroke-width:1.20159" transform="translate(-.414 -74.938)"/><path d="M739.715 1016.715c-16.292-37.42-37.64-93.1 24.649-85.196-1.85 29.413-27.887 55.19-24.649 85.196M357.924 1036.475c-35.464-27.94 12.246-100.407 20.632-55.72-13.345 5.716-6.456 74.713-20.632 55.72" style="fill:#000;stroke-width:1.20159" transform="translate(-.414 -74.938)"/><path d="M482.709 1220.557c-.172-.151-.637.41 0 0m34.941 12.796c-6.277 1.616.781 2.293 0 0" style="fill:#ff2a2a;stroke-width:1.20159" transform="translate(-.414 -74.938)"/><path d="M406.573 1203.697c-29.347 23.492-13.412 77.194 8.39 28.37 6.14-14.502 17.192-30.526-8.39-28.37" style="fill:#000" transform="translate(-.414 -74.938)"/><path d="M426.453 1227.498c51.72-47.66 119.037-1.542 169.326-24.539 43.231-54.318 138.1 53.75 141.74-47.427-9.622-53.758-32.465 78.463-67.692 15.2-51.933-31.997-83.877 49.225-128.012 18.92-27.49-16.858-139.333 1.949-115.362 37.846" style="fill:#000" transform="translate(-.414 -74.938)"/><path d="M715.961 1149.522c10.57 28.205 79.335 65.712 40.23 14.405-11.477-9.93-25.965-38.256-40.23-14.405M511.158 1173.66c-56.68-54.562 28.912-27.246 36.484 8.71 11.256-20.28 100.877-77.76 68.922-15.724 19.232 53.95 46.875-89.152-27.607-41.65-30.733-.934-50.99 67.874-35.28 36.77-15.573-62.56-130.663-32.347-55.574 22.02l7.064-4.37z" style="fill:#000" transform="translate(-.414 -74.938)"/><path d="M500.842 1196.425c-42.92 69.274 57.98 75.504 96.566 59.205 47.752 9.768 56.251-92.273 23.005-63.885 18.449 53.896-53.804 59.487-87.925 51.822-53.269 10.89 8.38-49.438-31.646-47.142" style="fill:#000" transform="translate(-.414 -74.938)"/><path d="M498.783 1191.435c7.994 45.618 40.905-37.599-.917-17.93-15.638 42.19 47.053 20.347.917 17.93" style="fill:#000" transform="translate(-.414 -74.938)"/><path d="M568.173 1243.911c-31.296 7.74-84.048-8.094-44.668-40.338 34.636 26.854 72.029-3.762 97.696-7.693 15.87 33.057-28.3 48.456-53.028 48.031m-50.467-9.544c-1.492-4.737-4.312 4.575 0 0M557.359 1193.593c-23.945 5.98-76.992-43.48-55.733-49.437 35.336 9.034 49.018 67.91 76.324 11.114 29.677-39.152 66.202-.542 25.783 19.755-16.43 5.527-26.814 30.65-46.374 18.568" style="fill:red;stroke-width:1.20159" transform="translate(-.414 -74.938)"/></svg>