<svg xmlns="http://www.w3.org/2000/svg" width="682.667" height="682.667" version="1.0" viewBox="0 0 512 512"><path d="M237.8 1.5c-.2.2-3.3.5-6.9.9-18.7 1.7-45.4 7.7-64.3 14.2-5.6 2-11 3.8-12.1 4.1-8 2.4-45.5 23.5-53.8 30.3-.7.6-4.6 3.7-8.7 7.1C77.6 69.8 54.1 94 44.4 107c-19.5 26.2-34 61-39.8 95.5C1.2 222.9.5 230.3.5 247c0 34.9 6.1 68.3 18.1 98.8 5.2 13.2 15.9 34.8 21 42.3 1.9 2.8 3.4 5.3 3.4 5.6 0 .9 13.9 19.9 18.5 25.3 10.9 12.8 33.3 34.5 43.5 42.2 23.4 17.6 50.2 30.8 80.9 39.8 4.1 1.2 8.1 2.3 9 2.5 9.7 2.1 22.2 4.7 24.6 5 19.2 3 23.6 3.2 48 3 14.3-.2 27.4-.5 29-.8 1.7-.3 4.8-.8 7-1.1 10.1-1.2 29.5-6 42.9-10.6 8.7-2.9 29-11.5 31.2-13.2.6-.4 3.3-2 6-3.4 19.3-10.2 46.7-33 66.8-55.4 5.1-5.6 21.6-27.4 21.6-28.4 0-.3 1.5-3 3.4-5.9 13.6-21.2 26.9-59.5 31.1-89.2.3-2.3.7-5 .9-6 .4-1.9 1.2-8.1 2.1-15.5.7-6.5 1.5-16.4 1.9-25.5l.5-9-1.5 5.5c-2.5 9.2-7.5 24.2-10.2 30.5-11.2 25.6-28 52.2-44.3 70-25.6 27.8-47.7 45-76.2 59.2-9.5 4.7-26.7 11.7-27.3 11-.1-.1-.8-2.1-1.6-4.5-2.8-8.3-.4-36.9 3.9-46.9 3.4-7.8 4.6-18.9 2.9-26.9-.3-1.6-.8-4.4-1.1-6.2-.3-1.7-2.9-10.1-5.7-18.5l-5.2-15.2-.3-23c-.2-23.6.3-29.4 3.9-40 1.1-3.3 2.2-6.7 2.3-7.5 6.3-27.5 11.2-43.2 16.7-53.3 2.2-4 3.2-5.4 7.9-10.7 6.6-7.7 8.8-11.1 10.7-16.6 2.9-8.4 2.5-17.9-1-25.5-4.9-10.7-8.5-12.9-14.9-9-3.2 1.9-3.3 1.9-8.1 0-5.3-2.1-5.2-2.2-6.2 4.4-.5 4.2-2.1 6.7-4.1 6.7-1 0-1.3-3.2-1.3-13.8.1-14.1-.8-19.6-4.4-26.7-2.7-5.2-10.7-16.1-15.1-20.3-3.1-3-3.7-3.2-5.6-2-1.1.7-7.6 9.7-14.3 20-18.2 27.8-35.3 51.1-47.9 64.9-3.7 4.1-6.8 5.7-14.4 7.4-13.6 3-15.6 4.3-31.5 20.9-28.7 29.9-27.5 29-47.5 37.1-18.5 7.5-27.3 13.2-33 21.6-3.4 4.8-2.7 7.7 3.4 13.9 5.7 5.9 14.3 11.5 29.6 19.5 2.5 1.3 2.5 3.4.3 11-.9 3.3-1.9 7.1-2.2 8.5s-.8 3.6-1.1 5c-.8 3.8-1.3 7-2 13-.9 8.4-3 15.8-7.9 28.2-2.4 6.2-5.2 14-6.1 17.3s-1.9 6.7-2.2 7.5c-.8 1.9-.8 1.8-1.7 6-1.9 8.6-2 8.7-7.8 2.3-2.4-2.5-5.4-5.8-6.8-7.2-16.6-16.9-34.9-47.9-44-74.6-2.4-7-6.6-22.4-7.5-27.5-.3-1.9-1-5.3-1.5-7.5-2.9-13.5-3.2-56.1-.4-70 .3-1.1.7-3.6 1-5.5 1.7-10.1 8-32 12.6-43.5 7.2-18.1 12.5-28.1 22.1-41.7C148.6 47.4 179.9 21.1 217 9.1c11.2-3.6 19.5-5.8 25.3-6.6 2.3-.4 4.4-.9 4.6-1.1.5-.4-8.6-.3-9.1.1"/></svg>
