<?xml version="1.0" standalone="no"?>
<!DOCTYPE svg PUBLIC "-//W3C//DTD SVG 20010904//EN"
 "http://www.w3.org/TR/2001/REC-SVG-20010904/DTD/svg10.dtd">
<svg version="1.0" xmlns="http://www.w3.org/2000/svg"
 width="512.000000pt" height="512.000000pt" viewBox="0 0 512.000000 512.000000"
 preserveAspectRatio="xMidYMid meet">
<metadata>
Created by potrace 1.11, written by Peter Selinger 2001-2013
</metadata>
<g transform="translate(0.000000,512.000000) scale(0.100000,-0.100000)"
fill="#000000" stroke="none">
<path d="M2378 5105 c-2 -2 -33 -5 -69 -9 -187 -17 -454 -77 -643 -142 -56
-20 -110 -38 -121 -41 -80 -24 -455 -235 -538 -303 -7 -6 -46 -37 -87 -71
-144 -117 -379 -359 -476 -489 -195 -262 -340 -610 -398 -955 -34 -204 -41
-278 -41 -445 0 -349 61 -683 181 -988 52 -132 159 -348 210 -423 19 -28 34
-53 34 -56 0 -9 139 -199 185 -253 109 -128 333 -345 435 -422 234 -176 502
-308 809 -398 41 -12 81 -23 90 -25 97 -21 222 -47 246 -50 192 -30 236 -32
480 -30 143 2 274 5 290 8 17 3 48 8 70 11 101 12 295 60 429 106 87 29 290
115 312 132 6 4 33 20 60 34 193 102 467 330 668 554 51 56 216 274 216 284 0
3 15 30 34 59 136 212 269 595 311 892 3 23 7 50 9 60 4 19 12 81 21 155 7 65
15 164 19 255 l5 90 -15 -55 c-25 -92 -75 -242 -102 -305 -112 -256 -280 -522
-443 -700 -256 -278 -477 -450 -762 -592 -95 -47 -267 -117 -273 -110 -1 1 -8
21 -16 45 -28 83 -4 369 39 469 34 78 46 189 29 269 -3 16 -8 44 -11 62 -3 17
-29 101 -57 185 l-52 152 -3 230 c-2 236 3 294 39 400 11 33 22 67 23 75 63
275 112 432 167 533 22 40 32 54 79 107 66 77 88 111 107 166 29 84 25 179
-10 255 -49 107 -85 129 -149 90 -32 -19 -33 -19 -81 0 -53 21 -52 22 -62 -44
-5 -42 -21 -67 -41 -67 -10 0 -13 32 -13 138 1 141 -8 196 -44 267 -27 52
-107 161 -151 203 -31 30 -37 32 -56 20 -11 -7 -76 -97 -143 -200 -182 -278
-353 -511 -479 -649 -37 -41 -68 -57 -144 -74 -136 -30 -156 -43 -315 -209
-287 -299 -275 -290 -475 -371 -185 -75 -273 -132 -330 -216 -34 -48 -27 -77
34 -139 57 -59 143 -115 296 -195 25 -13 25 -34 3 -110 -9 -33 -19 -71 -22
-85 -3 -14 -8 -36 -11 -50 -8 -38 -13 -70 -20 -130 -9 -84 -30 -158 -79 -282
-24 -62 -52 -140 -61 -173 -9 -33 -19 -67 -22 -75 -8 -19 -8 -18 -17 -60 -19
-86 -20 -87 -78 -23 -24 25 -54 58 -68 72 -166 169 -349 479 -440 746 -24 70
-66 224 -75 275 -3 19 -10 53 -15 75 -29 135 -32 561 -4 700 3 11 7 36 10 55
17 101 80 320 126 435 72 181 125 281 221 417 333 474 646 737 1017 857 112
36 195 58 253 66 23 4 44 9 46 11 5 4 -86 3 -91 -1z"/>
</g>
</svg>
